<?xml version="1.0" encoding="UTF-8"?><svg xmlns="http://www.w3.org/2000/svg" viewBox="0 0 6795.7 959.19"><defs><style>.d{fill:#fff;}</style></defs><g id="a"/><g id="b"><g id="c"><g><path d="M605.68,0c1.04,.63,2.04,1.72,3.14,1.82,93.72,8.64,177.23,43,251.18,100.49,52.35,40.7,94.22,90.53,126.08,148.75,11.68,21.35,21.37,43.5,29.85,66.24,.88,2.37,1.81,4.73,3.32,8.67,2.67-4.22,4.62-7.16,6.42-10.18,12.26-20.54,24.32-41.19,36.78-61.61,10.52-17.25,31.64-22.93,49.64-13.81,18.33,9.28,24.03,30.81,16.29,48.81-3,6.98-7.34,13.4-11.25,19.98-27.8,46.85-55.75,93.61-83.43,140.54-9.22,15.63-27,23.26-45.5,17.37-4.63-1.47-9.01-4.33-12.92-7.31-36.74-28.01-73.34-56.19-109.99-84.31-12.66-9.71-25.4-19.32-37.98-29.13-15.38-12-19.87-30.11-11.91-47.13,9.51-20.35,36.91-27.48,55.28-13.89,20.03,14.83,39.65,30.23,59.45,45.37,3.66,2.8,7.37,5.52,12.63,9.47-.83-3.68-1.03-5.72-1.75-7.55-16.95-43.04-40.6-82.08-70.88-117.05-35.22-40.68-76.77-73.58-124.84-97.82-46.45-23.43-95.58-38.38-147.74-41.84-19.85-1.32-39.88-2.25-59.71-1.18-30.89,1.67-61.31,7.16-91.07,16.04-54,16.11-102.68,42-145.68,78.35-41.89,35.41-75.6,77.33-100.41,126.36-14.47,28.6-25.74,58.33-32.99,89.51-5.15,22.13-24,30.56-38.46,29.57-22.92-1.57-34.48-18.59-35.31-34.21-.24-4.54,.34-9.26,1.37-13.7,13.23-56.93,36.45-109.52,69.47-157.75,42.57-62.18,96.66-111.86,162.57-148.68C384.12,28.45,445.04,9.73,509.53,2.06c3.41-.41,6.76-1.36,10.14-2.06,28.67,0,57.33,0,86,0Z"/><path d="M6795.7,387.23c-19.49,17.5-38.99,35.01-58.8,52.8-4.97-4.57-9.18-8.79-13.75-12.57-33.69-27.95-71.63-32.74-111.54-17.37-33.35,12.85-49.59,39.95-53.64,74.53-1.71,14.58-.99,29.21,3.28,43.5,10.89,36.47,35.53,57.63,72.61,64.43,20.38,3.73,40.49,1.48,60.05-5.39,2.2-.77,4.38-1.59,6.52-2.51,.88-.38,1.62-1.08,3.38-2.29v-92.44h87.17c.26,3.18,.7,6.05,.7,8.93,.04,41.91-.08,83.82,.15,125.73,.03,6-1.86,9.64-6.97,12.89-32.64,20.76-68.42,32.35-106.6,37.16-34.2,4.32-67.88,2.04-100.69-8.87-77.56-25.8-123.27-92.68-120.41-175.75,2.8-81.18,56.84-145.88,138.02-164.37,47.3-10.77,93.99-8.31,139.36,9.7,22.28,8.84,41.76,22,58.19,39.54,.86,.92,1.98,1.6,2.97,2.4v9.98Z"/><path d="M110.73,634.45c-4.66,7.66-9.31,15.18-13.83,22.76-9.36,15.69-18.25,31.67-28.06,47.06-13.99,21.96-41.89,24.31-59.99,6.31-10.42-10.36-11.37-34.48-4.31-45.72,9.36-14.9,18.06-30.22,27.06-45.35,21.56-36.26,43.78-72.15,64.45-108.91,13.43-23.89,42.19-26.39,60.4-12.02,48.51,38.28,97.75,75.66,146.96,113.05,23.21,17.64,19.95,49.95-1.08,62.44-14.18,8.42-28.82,8.33-42.21-1.4-18.54-13.47-36.47-27.77-54.69-41.69-5.24-4.01-10.55-7.92-17.13-11.13,1.73,4.88,3.21,9.86,5.23,14.61,23.29,54.57,56.61,102.21,100.36,142.31,40.39,37.02,86.44,65.01,138.18,83.56,33.04,11.84,66.93,19.26,101.94,22.22,71.11,6.02,138.92-5.9,203.92-35.21,50.85-22.94,94.69-55.45,131.96-96.5,44.79-49.34,75.35-106.65,92.02-171.24,1.4-5.42,3.02-10.92,5.53-15.88,8.45-16.74,27.77-24.01,45.72-17.66,17.12,6.06,27.57,24.15,23.64,42.25-9.28,42.82-25.22,83.21-46.07,121.68-17.16,31.67-37.81,60.99-61.68,87.96-36.47,41.19-79.05,74.9-127.22,101.47-54.78,30.21-113.37,48.72-175.52,56.27-32.85,3.99-65.84,4.52-98.63,1.73-60.5-5.13-118.19-21.2-172.7-48.38-38.95-19.42-74.78-43.41-107.16-72.3-41.5-37.03-76.36-79.63-102.24-128.98-12.32-23.48-22.84-47.9-34.85-73.33Z"/><path d="M3851.82,496.69c-1.75,2.74-3.58,5.43-5.25,8.22-24.39,40.82-48.94,81.56-72.98,122.59-4.1,7-8.7,9.76-16.63,9.11-7.94-.65-16.01-.58-23.97-.01-6.84,.49-10.71-1.98-14.29-7.9-24.27-40.13-48.94-80-73.52-119.94-1.65-2.68-3.53-5.23-7.16-7.3v167.66h-90.1c-1.97-7.58-2.75-324.31-.86-341.73,1.95-.4,4.12-1.21,6.29-1.22,22.66-.1,45.32,.2,67.97-.24,6.41-.12,8.62,3.55,11.26,7.89,35.83,58.79,71.7,117.54,107.58,176.3,2.06,3.38,4.23,6.7,7.01,11.08,2.39-3.74,4.39-6.69,6.21-9.75,35.06-58.86,70.22-117.65,104.97-176.69,3.93-6.68,8.18-9.06,15.82-8.85,19.98,.54,39.98,.18,59.97,.18h11.23c.59,114.74,.41,228.56,.88,343.07h-91c-1.28-57.33-.91-114.64-1.49-171.92-.65-.18-1.29-.37-1.94-.55Z"/><path d="M547.75,299.72v-58.03c22.31-1.35,44.07-.52,67.1-.48v57.54c38.97,4.46,75.69,12.64,109.83,32.81-11.26,27.09-22.28,53.63-33.67,81.03-3.95-1.88-6.89-3.26-9.81-4.68-32.47-15.8-66.35-26.11-102.88-24.26-10.51,.53-21.14,2.78-31.22,5.86-5.7,1.74-11.31,5.94-15.35,10.47-9.57,10.74-7.82,25,4.14,32.86,6.84,4.49,14.67,8.08,22.56,10.23,19.25,5.25,38.78,9.48,58.21,14.03,21.08,4.94,42.17,10.04,61.63,19.79,9.47,4.75,18.8,10.17,27.16,16.62,21.54,16.62,32.48,39.23,34.13,66.15,2.93,47.91-17.51,83.41-58.49,107.62-16.21,9.57-33.86,15.42-52.19,19.36-4.2,.9-8.4,1.76-13.91,2.91v58.67h-67.05v-56.52c-48.57-5.13-94.84-14.71-136.89-41.84,11.84-26.61,23.52-52.86,35.8-80.44,3.71,2.01,6.77,3.61,9.78,5.32,37.59,21.31,77.91,32.41,121.22,31.63,9.58-.17,19.18-1.96,28.65-3.69,4.49-.82,8.96-2.74,12.96-5.01,16.52-9.39,17.64-28.35,1.91-38.9-6.52-4.37-14.07-7.81-21.65-9.88-21.17-5.79-42.68-10.33-63.89-15.98-15.09-4.01-29.94-8.94-44.85-13.62-3.48-1.09-6.75-2.81-10.12-4.25-85.4-36.42-75.05-137.48-24.4-178.52,21.23-17.2,45.39-27.44,71.81-33.09,6.13-1.31,12.31-2.36,19.48-3.72Z"/><path d="M5241.59,491.84v176.05c-8.08,2.35-84.8,2.84-96.37,.9-1.89-7.34-2.69-322.58-.78-341.56,2.27-.35,4.76-1.07,7.26-1.08,22.33-.09,44.67,.18,66.99-.21,5.99-.1,8.98,2.99,12.25,6.94,44.62,53.81,89.3,107.58,133.97,161.35,2.3,2.76,4.64,5.49,8.53,10.1,1.1-13.56,.46-24.99,.57-36.37,.12-11.64,.03-23.28,.03-34.93v-106.2h97.09v342.42c-3.42,.21-6.66,.58-9.9,.59-20.67,.05-41.33-.21-61.99,.17-6.65,.12-10.95-2.02-15.2-7.17-44.47-53.93-89.21-107.65-133.89-161.41-2.23-2.68-4.65-5.21-8.55-9.56Z"/><path d="M6087.72,668.56V326.86c3.73-.27,7.22-.73,10.71-.74,19.99-.07,40,.28,59.98-.2,7.38-.18,12.21,2.04,16.95,7.8,43.79,53.18,87.9,106.11,131.92,159.1,2.71,3.27,5.5,6.48,9.31,9.47,1.37-58.42,.89-116.63,1.23-175.5h96.95v342.39c-3.37,.23-6.59,.63-9.81,.64-20.99,.06-41.99-.23-62.98,.18-6.43,.13-10.34-2.27-14.26-7.02-44.72-54.14-89.63-108.13-134.51-162.14-2.03-2.45-4.25-4.74-7.41-6.83-1.31,58.19-.88,116.14-1.18,173.85-7.6,2.4-84.49,2.94-96.88,.7Z"/><path d="M5531.96,669.38V326.93c2.84-.28,5.68-.8,8.51-.81,52.32-.05,104.63-.35,156.95,.08,35.36,.29,69.63,6.6,101.26,23.25,54.44,28.66,82.6,74.49,86.94,135.2,2.36,33.09-2.6,65.1-18.25,94.75-22.44,42.52-58.66,67.82-104.03,81.2-21.22,6.26-43.01,9.1-65.08,9.18-51.98,.19-103.97,.07-155.95,.04-3.27,0-6.53-.28-10.35-.45Zm98.95-78.38c26.94-.74,52.67-.11,78.12-2.46,37.78-3.48,65.65-28.46,73.72-64.4,2.3-10.26,3.04-21.11,2.78-31.65-1.16-47.48-32.07-81.22-79.58-85.29-24.15-2.07-48.57-.94-72.87-1.2-.54,0-1.09,.63-2.17,1.3v183.71Z"/><path d="M2750.92,497.8c.22,83.83-54.94,152.99-138.49,172.53-51.99,12.15-102.83,8.24-150.49-16.91-54.91-28.98-86.05-74.91-92.57-136.78-10.05-95.41,52.28-176.16,149.47-193.46,41.62-7.41,82.28-4.22,121.61,11.6,68.48,27.54,110.28,89.42,110.47,163.03Zm-100.92,.64c0-3.32,.17-6.65-.03-9.96-2.9-47.77-36.02-81.96-83.53-86.26-40.25-3.65-77,19.47-91.15,57.31-6.05,16.2-7.41,32.89-6.07,50.03,3.14,40.37,31.24,79.83,82.43,84.21,34.01,2.91,69.88-12.28,87.74-47.19,7.72-15.09,11.19-31.2,10.61-48.13Z"/><path d="M4724.02,498.64c1.14,75.29-46.61,149.5-137.97,171.59-52.97,12.81-104.71,7.98-153.19-18.03-68.86-36.94-97.4-107.21-89.98-175.17,8.13-74.36,62.23-137.21,147.31-153.5,40.42-7.74,80.19-4.98,118.94,9.36,73.05,27.03,116.3,93.16,114.88,165.76Zm-100.16-1.8c0-52.1-32.82-89.74-83.43-94.58-39.55-3.78-75.99,18.17-90.73,54.95-9.35,23.34-10.27,47.33-3.54,71.41,10.24,36.65,39.54,62.04,79.47,65.19,33.77,2.66,69.13-12.26,87.02-46.79,7.96-15.36,11.5-31.79,11.22-50.18Z"/><path d="M3504.27,498.13c-.02,84.26-54.96,152.88-138.61,172.28-51.33,11.9-101.39,7.89-148.75-16.1-70.31-35.61-101.45-106.29-94.01-176.76,7.9-74.73,62.59-138.05,147.83-154.1,41.86-7.88,82.93-4.78,122.63,11.05,69.09,27.55,110.92,89.5,110.9,163.63Zm-99.02,.62c-.51-.08-1.02-.17-1.52-.25,0-2.99,.13-5.99-.02-8.97-2.34-48.01-35.83-82.93-83.68-87.31-39.88-3.65-76.47,18.98-90.8,56.37-8.73,22.79-9.5,46.09-3.17,69.55,10.62,39.38,43.41,65.32,85.07,65.99,42.77,.69,75.23-23.44,87.39-61.35,3.51-10.94,4.56-22.66,6.74-34.03Z"/><path d="M4763.87,326.82h98.34c.16,3.76,.46,7.58,.47,11.39,.03,58.2-.16,116.39,.18,174.59,.07,11.56,.97,23.37,3.53,34.6,7.41,32.48,28.53,48.9,65.37,46.4,33.11-2.25,51.12-20.94,55.72-55.75,1.17-8.87,1.78-17.88,1.8-26.83,.16-57.2,.08-114.4,.08-171.6,0-3.95,0-7.9,0-11.62,8.53-2.52,88.28-2.65,97.99-.11v9.43c0,59.19,.08,118.39-.04,177.58-.04,19.67-1.99,39.16-7.43,58.18-13.55,47.38-43.4,79.39-90.68,94.11-42.15,13.12-84.82,13.26-126.95,.33-52.63-16.15-83.45-52.77-94.3-106.04-3.03-14.87-4.25-30.33-4.38-45.53-.48-60.19-.21-120.38-.18-180.57,0-2.62,.29-5.24,.48-8.57Z"/><path d="M1712.38,326.82h98.97c0,4.61,0,8.51,0,12.41,.06,59.87-.06,119.73,.33,179.6,.06,9.87,1.44,19.94,3.74,29.56,8.58,35.98,32.46,46.09,61.1,45.75,31.58-.38,50.4-15.61,57.48-46.42,2.58-11.22,3.62-23.02,3.69-34.56,.36-57.87,.16-115.74,.16-173.61,0-3.95,0-7.9,0-11.62,8.63-2.41,88.46-2.52,97.43-.26,.18,2.16,.53,4.44,.53,6.72-.03,63.52,.04,127.05-.22,190.57-.08,19.39-3.4,38.38-9.7,56.78-14.32,41.81-42.44,70.4-84.29,84.3-44.94,14.93-90.61,15-135.52-.06-47.39-15.89-75.98-49.76-88.17-97.74-4.19-16.5-6.02-33.36-6.03-50.38-.05-60.53-.03-121.06,0-181.6,0-2.92,.3-5.84,.5-9.43Z"/><path d="M4105.34,580.75v86.91c-7.73,2.76-89.29,3.12-99.06,.53V327.32c2.47-.41,4.94-1.17,7.41-1.17,51.67-.06,103.33-.33,154.99,.1,24.1,.2,47.72,4.02,70.36,12.96,52.01,20.55,80.38,65.65,77.57,121.4-2.76,54.69-35.52,97.96-98.67,113.92-16.85,4.26-34.05,6.26-51.47,6.23-16.67-.03-33.33,0-50,0h-11.15Zm.53-175.67v97.2c25.67-1.15,50.95,2.6,75.92-3.17,12.5-2.89,22.68-9.43,29.01-20.99,16.32-29.84,.52-64.25-32.73-71.12-4.86-1-9.87-1.77-14.82-1.83-18.9-.21-37.8-.09-57.38-.09Z"/><path d="M1703.7,668.99c-3.56,.33-6.4,.81-9.25,.82-28.31,.06-56.63-.14-84.94,.17-6.3,.07-9.51-2-11.75-7.86-6.26-16.45-13.09-32.69-19.71-49-1.24-3.05-2.58-6.05-4.01-9.37h-142.47c-8.71,21.3-17.71,43.3-26.74,65.36h-100.83c1.37-3.64,2.24-6.37,3.4-8.98,47.97-108.49,96.03-216.94,143.8-325.51,2.85-6.48,6.21-8.82,13.31-8.7,26.31,.43,52.63,.34,78.94,.05,6.12-.07,9.48,1.7,12.06,7.54,48.35,109.41,96.92,218.73,145.43,328.07,.92,2.06,1.58,4.24,2.74,7.42Zm-159.15-139.84c-13.88-34.43-27.36-67.88-41.71-103.49-14.42,35.86-27.84,69.24-41.61,103.49h83.32Z"/><path d="M3049.96,442.28c-3.43-3.64-6.05-6.56-8.82-9.34-29.98-30.02-65.78-38.46-105.58-25.38-37.29,12.25-55.37,40.84-59.57,78.66-2,18.04-.08,35.9,7.04,52.87,13.11,31.27,37.03,48.8,70.23,53.75,36.08,5.38,66.26-6.19,90.82-32.87,1.57-1.71,3.08-3.47,4.48-5.06,6.97,3.35,56.41,47.35,63.92,56.87-3.11,3.56-6.21,7.39-9.61,10.93-28.09,29.27-62.98,45.26-102.64,51.21-40.31,6.05-79.74,2.53-117.72-13.08-65.77-27.03-106.52-87.96-107.26-159.01-.5-47.66,13.41-89.79,46.21-124.88,25.79-27.59,57.9-44.38,94.71-52.22,44.82-9.55,88.78-6.87,131.38,10.63,25.74,10.58,47.31,26.89,65.63,49.7-21.02,19.02-41.83,37.85-63.23,57.21Z"/><path d="M2363.34,326.78v78.19c-34.34,.66-68.45-.04-103.81,.41v263.75h-99.5V405.58h-102.98c-2.34-8.03-2.84-66.73-.84-78.8h307.14Z"/><path d="M6027.08,669.72c-32.85,.26-65.28,.08-98.38,.14V328.03c7.12-2.52,88.67-2.86,98.38-.28v341.96Z"/><path class="d" d="M1502.83,425.66c14.35,35.61,27.84,69.06,41.71,103.49"/></g></g></g></svg>