<svg xmlns="http://www.w3.org/2000/svg" viewBox="0 0 279.1 279.1"><defs><style>.cls-1{fill:#fff;}</style></defs><g id="Layer_2" data-name="Layer 2"><g id="TextArea"><rect class="cls-1" x="9.6" y="9.6" width="259.8" height="259.8"/><circle cx="95.01" cy="35.77" r="3.7"/><circle cx="109.82" cy="35.77" r="3.7"/><circle cx="124.63" cy="35.77" r="3.7"/><circle cx="132.03" cy="35.77" r="3.7"/><circle cx="154.24" cy="35.77" r="3.7"/><circle cx="169.05" cy="35.77" r="3.7"/><circle cx="176.46" cy="35.77" r="3.7"/><circle cx="183.86" cy="35.77" r="3.7"/><circle cx="95.01" cy="43.18" r="3.7"/><circle cx="117.22" cy="43.18" r="3.7"/><circle cx="139.44" cy="43.18" r="3.7"/><circle cx="146.84" cy="43.18" r="3.7"/><circle cx="161.65" cy="43.18" r="3.7"/><circle cx="183.86" cy="43.18" r="3.7"/><circle cx="95.01" cy="50.58" r="3.7"/><circle cx="102.41" cy="50.58" r="3.7"/><circle cx="117.22" cy="50.58" r="3.7"/><circle cx="132.03" cy="50.58" r="3.7"/><circle cx="154.24" cy="50.58" r="3.7"/><circle cx="183.86" cy="50.58" r="3.7"/><circle cx="109.82" cy="57.99" r="3.7"/><circle cx="117.22" cy="57.99" r="3.7"/><circle cx="132.03" cy="57.99" r="3.7"/><circle cx="139.44" cy="57.99" r="3.7"/><circle cx="146.84" cy="57.99" r="3.7"/><circle cx="161.65" cy="57.99" r="3.7"/><circle cx="169.05" cy="57.99" r="3.7"/><circle cx="183.86" cy="57.99" r="3.7"/><circle cx="109.82" cy="65.39" r="3.7"/><circle cx="124.63" cy="65.39" r="3.7"/><circle cx="169.05" cy="65.39" r="3.7"/><circle cx="95.01" cy="72.8" r="3.7"/><circle cx="124.63" cy="72.8" r="3.7"/><circle cx="132.03" cy="72.8" r="3.7"/><circle cx="146.84" cy="72.8" r="3.7"/><circle cx="169.05" cy="72.8" r="3.7"/><circle cx="183.86" cy="72.8" r="3.7"/><circle cx="95.01" cy="80.2" r="3.7"/><circle cx="109.82" cy="80.2" r="3.7"/><circle cx="124.63" cy="80.2" r="3.7"/><circle cx="139.44" cy="80.2" r="3.7"/><circle cx="154.24" cy="80.2" r="3.7"/><circle cx="169.05" cy="80.2" r="3.7"/><circle cx="183.86" cy="80.2" r="3.7"/><circle cx="95.01" cy="87.6" r="3.7"/><circle cx="132.03" cy="87.6" r="3.7"/><circle cx="146.84" cy="87.6" r="3.7"/><circle cx="154.24" cy="87.6" r="3.7"/><circle cx="169.05" cy="87.6" r="3.7"/><circle cx="176.46" cy="87.6" r="3.7"/><circle cx="183.86" cy="87.6" r="3.7"/><circle cx="50.58" cy="95.01" r="3.7"/><circle cx="57.99" cy="95.01" r="3.7"/><circle cx="65.39" cy="95.01" r="3.7"/><circle cx="80.2" cy="95.01" r="3.7"/><circle cx="95.01" cy="95.01" r="3.7"/><circle cx="102.41" cy="95.01" r="3.7"/><circle cx="117.22" cy="95.01" r="3.7"/><circle cx="124.63" cy="95.01" r="3.7"/><circle cx="139.44" cy="95.01" r="3.7"/><circle cx="169.05" cy="95.01" r="3.7"/><circle cx="191.27" cy="95.01" r="3.7"/><circle cx="198.67" cy="95.01" r="3.7"/><circle cx="206.07" cy="95.01" r="3.7"/><circle cx="228.29" cy="95.01" r="3.7"/><circle cx="235.69" cy="95.01" r="3.7"/><circle cx="243.1" cy="95.01" r="3.7"/><circle cx="35.77" cy="102.41" r="3.7"/><circle cx="50.58" cy="102.41" r="3.7"/><circle cx="57.99" cy="102.41" r="3.7"/><circle cx="65.39" cy="102.41" r="3.7"/><circle cx="72.8" cy="102.41" r="3.7"/><circle cx="87.6" cy="102.41" r="3.7"/><circle cx="183.86" cy="102.41" r="3.7"/><circle cx="191.27" cy="102.41" r="3.7"/><circle cx="198.67" cy="102.41" r="3.7"/><circle cx="213.48" cy="102.41" r="3.7"/><circle cx="235.69" cy="102.41" r="3.7"/><circle cx="243.1" cy="102.41" r="3.7"/><circle cx="43.18" cy="109.82" r="3.7"/><circle cx="50.58" cy="109.82" r="3.7"/><circle cx="65.39" cy="109.82" r="3.7"/><circle cx="72.8" cy="109.82" r="3.7"/><circle cx="80.2" cy="109.82" r="3.7"/><circle cx="95.01" cy="109.82" r="3.7"/><circle cx="183.86" cy="109.82" r="3.7"/><circle cx="228.29" cy="109.82" r="3.7"/><circle cx="50.58" cy="117.22" r="3.7"/><circle cx="65.39" cy="117.22" r="3.7"/><circle cx="72.8" cy="117.22" r="3.7"/><circle cx="183.86" cy="117.22" r="3.7"/><circle cx="198.67" cy="117.22" r="3.7"/><circle cx="206.07" cy="117.22" r="3.7"/><circle cx="213.48" cy="117.22" r="3.7"/><circle cx="220.88" cy="117.22" r="3.7"/><circle cx="228.29" cy="117.22" r="3.7"/><circle cx="35.77" cy="124.63" r="3.7"/><circle cx="43.18" cy="124.63" r="3.7"/><circle cx="72.8" cy="124.63" r="3.7"/><circle cx="80.2" cy="124.63" r="3.7"/><circle cx="183.86" cy="124.63" r="3.7"/><circle cx="191.27" cy="124.63" r="3.7"/><circle cx="213.48" cy="124.63" r="3.7"/><circle cx="228.29" cy="124.63" r="3.7"/><circle cx="235.69" cy="124.63" r="3.7"/><circle cx="35.77" cy="132.03" r="3.7"/><circle cx="87.6" cy="132.03" r="3.7"/><circle cx="95.01" cy="132.03" r="3.7"/><circle cx="183.86" cy="132.03" r="3.7"/><circle cx="198.67" cy="132.03" r="3.7"/><circle cx="213.48" cy="132.03" r="3.7"/><circle cx="220.88" cy="132.03" r="3.7"/><circle cx="243.1" cy="132.03" r="3.7"/><circle cx="35.77" cy="139.44" r="3.7"/><circle cx="43.18" cy="139.44" r="3.7"/><circle cx="57.99" cy="139.44" r="3.7"/><circle cx="72.8" cy="139.44" r="3.7"/><circle cx="80.2" cy="139.44" r="3.7"/><circle cx="87.6" cy="139.44" r="3.7"/><circle cx="95.01" cy="139.44" r="3.7"/><circle cx="206.07" cy="139.44" r="3.7"/><circle cx="228.29" cy="139.44" r="3.7"/><circle cx="243.1" cy="139.44" r="3.7"/><circle cx="43.18" cy="146.84" r="3.7"/><circle cx="50.58" cy="146.84" r="3.7"/><circle cx="87.6" cy="146.84" r="3.7"/><circle cx="191.27" cy="146.84" r="3.7"/><circle cx="198.67" cy="146.84" r="3.7"/><circle cx="206.07" cy="146.84" r="3.7"/><circle cx="213.48" cy="146.84" r="3.7"/><circle cx="228.29" cy="146.84" r="3.7"/><circle cx="235.69" cy="146.84" r="3.7"/><circle cx="243.1" cy="146.84" r="3.7"/><circle cx="35.77" cy="154.24" r="3.7"/><circle cx="65.39" cy="154.24" r="3.7"/><circle cx="72.8" cy="154.24" r="3.7"/><circle cx="80.2" cy="154.24" r="3.7"/><circle cx="87.6" cy="154.24" r="3.7"/><circle cx="183.86" cy="154.24" r="3.7"/><circle cx="191.27" cy="154.24" r="3.7"/><circle cx="206.07" cy="154.24" r="3.7"/><circle cx="35.77" cy="161.65" r="3.7"/><circle cx="57.99" cy="161.65" r="3.7"/><circle cx="72.8" cy="161.65" r="3.7"/><circle cx="183.86" cy="161.65" r="3.7"/><circle cx="198.67" cy="161.65" r="3.7"/><circle cx="206.07" cy="161.65" r="3.7"/><circle cx="220.88" cy="161.65" r="3.7"/><circle cx="235.69" cy="161.65" r="3.7"/><circle cx="35.77" cy="169.05" r="3.7"/><circle cx="57.99" cy="169.05" r="3.7"/><circle cx="65.39" cy="169.05" r="3.7"/><circle cx="80.2" cy="169.05" r="3.7"/><circle cx="95.01" cy="169.05" r="3.7"/><circle cx="191.27" cy="169.05" r="3.7"/><circle cx="228.29" cy="169.05" r="3.7"/><circle cx="35.77" cy="176.46" r="3.7"/><circle cx="50.58" cy="176.46" r="3.7"/><circle cx="57.99" cy="176.46" r="3.7"/><circle cx="72.8" cy="176.46" r="3.7"/><circle cx="183.86" cy="176.46" r="3.7"/><circle cx="198.67" cy="176.46" r="3.7"/><circle cx="213.48" cy="176.46" r="3.7"/><circle cx="220.88" cy="176.46" r="3.7"/><circle cx="235.69" cy="176.46" r="3.7"/><circle cx="243.1" cy="176.46" r="3.7"/><circle cx="35.77" cy="183.86" r="3.7"/><circle cx="57.99" cy="183.86" r="3.7"/><circle cx="80.2" cy="183.86" r="3.7"/><circle cx="87.6" cy="183.86" r="3.7"/><circle cx="124.63" cy="183.86" r="3.7"/><circle cx="132.03" cy="183.86" r="3.7"/><circle cx="146.84" cy="183.86" r="3.7"/><circle cx="169.05" cy="183.86" r="3.7"/><circle cx="183.86" cy="183.86" r="3.7"/><circle cx="191.27" cy="183.86" r="3.7"/><circle cx="198.67" cy="183.86" r="3.7"/><circle cx="206.07" cy="183.86" r="3.7"/><circle cx="213.48" cy="183.86" r="3.7"/><circle cx="235.69" cy="183.86" r="3.7"/><circle cx="243.1" cy="183.86" r="3.7"/><circle cx="95.01" cy="191.27" r="3.7"/><circle cx="102.41" cy="191.27" r="3.7"/><circle cx="124.63" cy="191.27" r="3.7"/><circle cx="139.44" cy="191.27" r="3.7"/><circle cx="146.84" cy="191.27" r="3.7"/><circle cx="154.24" cy="191.27" r="3.7"/><circle cx="161.65" cy="191.27" r="3.7"/><circle cx="169.05" cy="191.27" r="3.7"/><circle cx="176.46" cy="191.27" r="3.7"/><circle cx="183.86" cy="191.27" r="3.7"/><circle cx="213.48" cy="191.27" r="3.7"/><circle cx="220.88" cy="191.27" r="3.7"/><circle cx="243.1" cy="191.27" r="3.7"/><circle cx="132.03" cy="198.67" r="3.7"/><circle cx="161.65" cy="198.67" r="3.7"/><circle cx="176.46" cy="198.67" r="3.7"/><circle cx="183.86" cy="198.67" r="3.7"/><circle cx="198.67" cy="198.67" r="3.7"/><circle cx="213.48" cy="198.67" r="3.7"/><circle cx="220.88" cy="198.67" r="3.7"/><circle cx="228.29" cy="198.67" r="3.7"/><circle cx="235.69" cy="198.67" r="3.7"/><circle cx="109.82" cy="206.07" r="3.7"/><circle cx="139.44" cy="206.07" r="3.7"/><circle cx="161.65" cy="206.07" r="3.7"/><circle cx="176.46" cy="206.07" r="3.7"/><circle cx="183.86" cy="206.07" r="3.7"/><circle cx="213.48" cy="206.07" r="3.7"/><circle cx="220.88" cy="206.07" r="3.7"/><circle cx="235.69" cy="206.07" r="3.7"/><circle cx="243.1" cy="206.07" r="3.7"/><circle cx="95.01" cy="213.48" r="3.7"/><circle cx="109.82" cy="213.48" r="3.7"/><circle cx="117.22" cy="213.48" r="3.7"/><circle cx="124.63" cy="213.48" r="3.7"/><circle cx="139.44" cy="213.48" r="3.7"/><circle cx="146.84" cy="213.48" r="3.7"/><circle cx="154.24" cy="213.48" r="3.7"/><circle cx="169.05" cy="213.48" r="3.7"/><circle cx="176.46" cy="213.48" r="3.7"/><circle cx="183.86" cy="213.48" r="3.7"/><circle cx="191.27" cy="213.48" r="3.7"/><circle cx="198.67" cy="213.48" r="3.7"/><circle cx="206.07" cy="213.48" r="3.7"/><circle cx="213.48" cy="213.48" r="3.7"/><circle cx="95.01" cy="220.88" r="3.7"/><circle cx="102.41" cy="220.88" r="3.7"/><circle cx="124.63" cy="220.88" r="3.7"/><circle cx="132.03" cy="220.88" r="3.7"/><circle cx="139.44" cy="220.88" r="3.7"/><circle cx="154.24" cy="220.88" r="3.7"/><circle cx="161.65" cy="220.88" r="3.7"/><circle cx="183.86" cy="220.88" r="3.7"/><circle cx="191.27" cy="220.88" r="3.7"/><circle cx="198.67" cy="220.88" r="3.7"/><circle cx="213.48" cy="220.88" r="3.7"/><circle cx="220.88" cy="220.88" r="3.7"/><circle cx="95.01" cy="228.29" r="3.7"/><circle cx="102.41" cy="228.29" r="3.7"/><circle cx="132.03" cy="228.29" r="3.7"/><circle cx="139.44" cy="228.29" r="3.7"/><circle cx="154.24" cy="228.29" r="3.7"/><circle cx="161.65" cy="228.29" r="3.7"/><circle cx="169.05" cy="228.29" r="3.7"/><circle cx="191.27" cy="228.29" r="3.7"/><circle cx="198.67" cy="228.29" r="3.7"/><circle cx="206.07" cy="228.29" r="3.7"/><circle cx="213.48" cy="228.29" r="3.7"/><circle cx="228.29" cy="228.29" r="3.7"/><circle cx="235.69" cy="228.29" r="3.7"/><circle cx="102.41" cy="235.69" r="3.7"/><circle cx="117.22" cy="235.69" r="3.7"/><circle cx="124.63" cy="235.69" r="3.7"/><circle cx="139.44" cy="235.69" r="3.7"/><circle cx="154.24" cy="235.69" r="3.7"/><circle cx="161.65" cy="235.69" r="3.7"/><circle cx="169.05" cy="235.69" r="3.7"/><circle cx="183.86" cy="235.69" r="3.7"/><circle cx="206.07" cy="235.69" r="3.7"/><circle cx="220.88" cy="235.69" r="3.7"/><circle cx="243.1" cy="235.69" r="3.7"/><circle cx="109.82" cy="243.1" r="3.7"/><circle cx="117.22" cy="243.1" r="3.7"/><circle cx="139.44" cy="243.1" r="3.7"/><circle cx="161.65" cy="243.1" r="3.7"/><circle cx="169.05" cy="243.1" r="3.7"/><circle cx="183.86" cy="243.1" r="3.7"/><circle cx="191.27" cy="243.1" r="3.7"/><circle cx="198.67" cy="243.1" r="3.7"/><circle cx="206.07" cy="243.1" r="3.7"/><circle cx="213.48" cy="243.1" r="3.7"/><circle cx="220.88" cy="243.1" r="3.7"/><path d="M33.64,32.07a1.58,1.58,0,0,0-1.57,1.57V82.33a1.57,1.57,0,0,0,1.57,1.58H82.33a1.58,1.58,0,0,0,1.58-1.58V33.64a1.57,1.57,0,0,0-1.58-1.57ZM76.5,46.88V75.6a.9.9,0,0,1-.9.9H40.38a.9.9,0,0,1-.9-.9V40.38a.9.9,0,0,1,.9-.9H75.6a.9.9,0,0,1,.9.9Z"/><path d="M69.09,61.69V48.45a1.57,1.57,0,0,0-1.57-1.58H48.45a1.58,1.58,0,0,0-1.58,1.58V67.52a1.58,1.58,0,0,0,1.58,1.58H67.52a1.57,1.57,0,0,0,1.57-1.58Z"/><path d="M196.54,32.07A1.58,1.58,0,0,0,195,33.64V82.33a1.58,1.58,0,0,0,1.58,1.58h48.69a1.57,1.57,0,0,0,1.57-1.58V33.64a1.57,1.57,0,0,0-1.57-1.57Zm42.85,14.81V75.6a.9.9,0,0,1-.9.9H203.27a.9.9,0,0,1-.9-.9V40.38a.9.9,0,0,1,.9-.9h35.22a.9.9,0,0,1,.9.9Z"/><path d="M232,61.69V48.45a1.58,1.58,0,0,0-1.58-1.58H211.35a1.58,1.58,0,0,0-1.58,1.58V67.52a1.58,1.58,0,0,0,1.58,1.58h19.06A1.58,1.58,0,0,0,232,67.52Z"/><path d="M33.64,195a1.58,1.58,0,0,0-1.57,1.58v48.69a1.57,1.57,0,0,0,1.57,1.57H82.33a1.57,1.57,0,0,0,1.58-1.57V196.54A1.58,1.58,0,0,0,82.33,195ZM76.5,209.78v28.71a.9.9,0,0,1-.9.9H40.38a.9.9,0,0,1-.9-.9V203.27a.9.9,0,0,1,.9-.9H75.6a.9.9,0,0,1,.9.9Z"/><path d="M69.09,224.58V211.35a1.57,1.57,0,0,0-1.57-1.58H48.45a1.58,1.58,0,0,0-1.58,1.58v19.07A1.58,1.58,0,0,0,48.45,232H67.52a1.58,1.58,0,0,0,1.57-1.58Z"/><polygon points="114.59 164.15 114.59 146.17 111.6 146.17 111.6 164.15 111.6 167.14 114.59 167.14 132.57 167.14 132.57 164.15 114.59 164.15"/><polygon points="114.59 114.59 132.57 114.59 132.57 111.6 114.59 111.6 111.6 111.6 111.6 114.59 111.6 132.57 114.59 132.57 114.59 114.59"/><polygon points="164.15 114.59 164.15 132.57 167.14 132.57 167.14 114.59 167.14 111.6 164.15 111.6 146.17 111.6 146.17 114.59 164.15 114.59"/><polygon points="164.15 164.15 146.17 164.15 146.17 167.14 164.15 167.14 167.14 167.14 167.14 164.15 167.14 146.17 164.15 146.17 164.15 164.15"/><path id="FrameBody" d="M265.3,0H13.7A13.66,13.66,0,0,0,0,13.7V265.4a13.72,13.72,0,0,0,13.7,13.7H265.4a13.72,13.72,0,0,0,13.7-13.7V13.7A13.81,13.81,0,0,0,265.3,0Zm3.2,261.1a7.38,7.38,0,0,1-7.4,7.4H17.9a7.38,7.38,0,0,1-7.4-7.4V17.9a7.38,7.38,0,0,1,7.4-7.4H261.1a7.38,7.38,0,0,1,7.4,7.4Z"/><g id="Layer_2-2" data-name="Layer 2"><g id="Layer_1-2" data-name="Layer 1-2"><g id="Layer_2-2-2" data-name="Layer 2-2"><g id="Layer_1-2-2" data-name="Layer 1-2-2"><path d="M119.18,140v-.9c.1-.66.14-1.33.18-2A19.61,19.61,0,0,1,127,123.67a18.5,18.5,0,0,1,9.13-4,19.7,19.7,0,0,1,15.28,3.7,20,20,0,0,1,7.48,10.92,20.56,20.56,0,0,1,.59,6.94,18.8,18.8,0,0,1-2.87,8.88,19.52,19.52,0,0,1-12.86,9.12c-8,1.59-14.69-.72-20-6.94a18.73,18.73,0,0,1-4.23-9.14c-.06-.37-.1-.73-.15-1.1Zm38.11-.53a12.78,12.78,0,0,0-.23-3.27,17.09,17.09,0,0,0-2-5.54,19.33,19.33,0,0,0-4.69-5.38,16.77,16.77,0,0,0-5.95-3.06,14.6,14.6,0,0,0-3.93-.63,7.59,7.59,0,0,0-.95-.07,6.51,6.51,0,0,1-1.16.07,8.31,8.31,0,0,0-1.41.13,18.86,18.86,0,0,0-5,1.42,18,18,0,0,0-9.28,9.66,17.76,17.76,0,0,0-1.09,9.28,17.15,17.15,0,0,0,1.35,4.81,18.49,18.49,0,0,0,5.9,7.21,17.36,17.36,0,0,0,10.31,3.4,16.31,16.31,0,0,0,1.71-.08,17.32,17.32,0,0,0,2.15-.28,16.6,16.6,0,0,0,5-1.84,18.8,18.8,0,0,0,6.15-5.55,16.27,16.27,0,0,0,2.29-4.56A15.88,15.88,0,0,0,157.29,139.51Z"/><path d="M133,132v-1.48a2.41,2.41,0,0,1,1.53-2.3,2.62,2.62,0,0,1,2.93.64,2.28,2.28,0,0,1,.64,1.56V132a7.79,7.79,0,0,0,1.36,0h1.34a7.08,7.08,0,0,0,0-1.22,3.4,3.4,0,0,1,.09-.9,2.44,2.44,0,0,1,2.38-1.84,2.48,2.48,0,0,1,2.54,1.76,3.92,3.92,0,0,1,.1,1v1.15c.12.14.26.09.39.09h2.89a2.55,2.55,0,0,1,.55,0,1.09,1.09,0,0,1,.88.93,2.84,2.84,0,0,1-.06,1.16,5.64,5.64,0,0,1-1.19,2.32,17.88,17.88,0,0,1-1.81,1.78c-.18.17-.37.34-.54.53a1.33,1.33,0,0,0-.37,1q0,3.15,0,6.29a5.76,5.76,0,0,1-5.77,5.66h-3.5a5.7,5.7,0,0,1-5.6-4.81,8.17,8.17,0,0,1-.07-1.11c0-1.93,0-3.85,0-5.78a1.83,1.83,0,0,0-.63-1.48l-1.6-1.48a6.24,6.24,0,0,1-1.53-2.29,3.51,3.51,0,0,1-.28-1.43A1.18,1.18,0,0,1,129,132Zm4,2.51a.35.35,0,0,0-.32-.08h-3.86c-.62,0-.86.28-.76.89a2.52,2.52,0,0,0,.69,1.39c.28.28.56.58.86.84a1.66,1.66,0,0,1,.59,1.39c0,1.17,0,2.33,0,3.5v3.4a3.32,3.32,0,0,0,3.25,3.39h.22c1.14,0,2.29,0,3.44,0a3.27,3.27,0,0,0,3-2.07,6.11,6.11,0,0,0,.21-2.5C139.45,142.88,136.91,139.58,136.91,134.52Zm6.05,7.42a1.09,1.09,0,0,0,0-2.17h0a1.09,1.09,0,0,0,0,2.17Zm1.23-9.94c0-.54,0-1.05,0-1.58a.7.7,0,0,0-.75-.67c-.52,0-.87.18-.92.6a9.09,9.09,0,0,0,0,1.65Zm-7.91,0c0-.05.05-.07.05-.1,0-.4,0-.81,0-1.21a1.75,1.75,0,0,0,0-.4.79.79,0,0,0-.91-.55.72.72,0,0,0-.73.68c0,.52,0,1,0,1.58Z"/><path d="M137.33,140.87a1.08,1.08,0,1,1-1.07-1.09,1.05,1.05,0,0,1,1.07,1h0Z"/></g></g></g></g></g></g></svg>