<?xml version="1.0" encoding="UTF-8"?><svg xmlns="http://www.w3.org/2000/svg" viewBox="0 0 1992.39 1150.09"><defs><style>.d{fill:#040303;}.e{fill:#f4ede3;}.f{fill:#c1baae;}.g{fill:#303656;}.h{fill:#303335;}.i{fill:#a4b4b5;}.j{fill:#bed1d2;}.k{fill:#1c9e9b;}.l{fill:#5ed0d8;}.m{fill:#51d282;}.n{fill:#758081;}</style></defs><g id="a"/><g id="b"><g id="c"><g><path class="f" d="M0,551.61c1.24-1.22,.84-2.8,.88-4.26,.61-25.45,3.81-50.63,8.35-75.63,7.14-39.35,18.29-77.55,33.49-114.57,19.19-46.73,44.18-90.1,74.69-130.37,20.67-27.29,43.83-52.3,68.91-75.48,32.23-29.81,67.64-55.39,105.89-77.01,47.07-26.6,96.89-46.18,149.5-58.6,22.62-5.34,45.49-9.28,68.63-11.81,26.32-2.87,52.69-4.55,79.14-3.65,30.21,1.03,60.25,3.94,90.03,9.5,38.87,7.25,76.58,18.22,113.15,33.17,49.92,20.41,95.93,47.46,138.27,80.83,19.89,15.67,38.62,32.63,56.36,50.68,5.68,5.78,10.7,12.21,16.92,17.47,.6,.97,1.09,2.05,1.83,2.9,26.13,29.85,49.08,61.91,68.68,96.45,21.78,38.39,38.82,78.72,51.57,120.92,5.72,18.92,9.83,38.24,13.97,57.54,2.34,16.77,5.17,33.46,6.73,50.34,3.03,32.84,3.32,65.68,1.01,98.57-1.19,16.91-3.84,33.64-5.59,50.49-.27,.6-.68,1.17-.79,1.8-5.1,31.24-12.96,61.77-23.28,91.69-21.97,63.7-54.28,121.65-96.56,174.1-5.83,7.23-12.44,13.83-17.63,21.58-6.42,5.78-11.93,12.43-17.97,18.56-17.53,17.77-36.04,34.47-55.67,49.93-32.53,25.62-67.36,47.6-104.62,65.63-48.29,23.37-98.81,39.88-151.76,48.91-24.58,4.19-49.25,7.25-74.18,7.9-1.15,.03-2.36-.12-3.24,.9h-44.98c-.71-.9-1.73-.89-2.73-.9-18.63-.34-37.08-2.51-55.51-5.02-33.16-4.51-65.62-12.13-97.4-22.53-38.05-12.46-74.4-28.77-109.08-48.83-36.28-21-69.92-45.6-100.7-73.99-18.84-17.37-36.64-35.81-53.05-55.57-26.89-32.37-50.16-67.13-69.45-104.5-22.84-44.24-39.73-90.67-50.31-139.34-6.89-31.67-11.59-63.64-12.59-96.09-.04-1.3,.28-2.7-.89-3.74v-47.96Zm58.88,8.75c.34,300.92,231.49,531.26,518.01,530.5,141.33-.38,262.22-51.21,362.32-151.51,101.84-102.04,152.19-224.99,151.12-368.82-1.05-141.27-52.35-261.48-152.62-361.23-101.75-101.22-224.51-150.96-367.45-149.94-141.2,1.01-261.68,52.51-361.31,152.84C108.91,312.93,61.28,435.04,58.88,560.36Z"/><path class="k" d="M1004.15,958.26c5.19-7.75,11.8-14.35,17.63-21.58,42.28-52.45,74.6-110.4,96.56-174.1,10.32-29.91,18.18-60.45,23.28-91.69,.1-.62,.52-1.2,.79-1.79,3.03,12.57,4.43,25.44,7.8,37.96,5.15,19.11,11.99,37.51,20.64,55.3,19.2,39.5,46.93,72.23,79.33,101.46,23.77,21.44,49.92,39.03,79.2,52.04,33.35,14.83,68.14,23.49,104.57,25.88,15.65,1.03,31.31,.95,46.92,.42,13.32-.45,24.49-5.76,30.68-18.64,2.38-4.95,4.84-9.87,7.39-14.73,3.41-6.48,6.7-13.37,12.43-17.92,13.67-10.86,29.21-17.56,46.9-18.78,7.76-.53,15.64-.88,23.19-2.56,28.76-6.41,50.91-33.25,50.41-63.5-.21-12.47,2.02-24.2,7.17-35.29,3.82-8.22,7.93-16.52,15.28-22.42,15.9-12.77,34.46-18.16,54.47-18.74,13.2-.38,24.71-4.86,34.99-12.63,16-12.09,26.06-27.38,26.44-48.34,.22-12.23-8.18-23.56-19.66-26.95-9.09-2.69-18.08-5.6-26.55-9.95-10.99-5.64-21.76-11.94-29.55-21.53-18.38-22.6-28.03-48.67-28.19-77.97-.11-20.31-.05-40.63,0-60.94,.01-5.83-.62-11.58-1.35-17.37-2.1-16.6-5.14-33.02-9.81-49.05-6.88-23.61-17.91-45.35-31.78-65.66-15.4-22.54-34.79-41.38-54.89-59.61-20.92-18.98-45.07-32.76-71.08-43.2-25.89-10.39-53.07-15.98-80.88-17.08-27.37-1.09-54.85-1.37-81.97,3.85-28.92,5.56-56.09,15.94-81.54,30.64-21.46,12.4-39.78,28.83-57.07,46.38-13.65,13.85-26.12,28.66-36.77,45.11-15.09,23.3-25.44,48.54-32.13,75.22-4.03,16.05-5.58,32.66-6.75,49.22-4.14-19.31-8.26-38.62-13.97-57.54-12.75-42.19-29.79-82.53-51.57-120.92-19.6-34.54-42.55-66.6-68.68-96.45-.74-.85-1.23-1.93-1.83-2.9,85.27-92.13,189.34-150.71,312.63-174.92,49.31-9.69,99.17-12.96,149.15-8.51,181.58,16.19,324.57,99.62,429,248.79,17.4,24.85,31.95,51.56,44.77,79.16,6.03,12.98,11.67,26.09,16.69,39.47,27.57,73.56,39.01,149.66,35.25,228.03-2.5,51.97-11.87,102.76-28.79,152-7.23,21.05-15.92,41.53-25.24,61.81-29.37,63.89-70.1,119.58-120.82,167.91-83.76,79.82-182.75,130.26-296.95,149.51-187.62,31.64-373.28-29.54-505.18-165.56-3.59-3.7-7.05-7.54-10.56-11.31Z"/><path class="e" d="M58.88,560.36c2.4-125.32,50.04-247.44,150.06-348.17C308.58,111.86,429.05,60.36,570.25,59.35c142.94-1.02,265.7,48.72,367.45,149.94,100.27,99.75,151.57,219.96,152.62,361.23,1.07,143.83-49.28,266.79-151.12,368.82-100.1,100.3-220.99,151.13-362.32,151.51-286.52,.76-517.66-229.58-518.01-530.5Zm237.8-7.48h-.18c0,14.65,.04,29.3,0,43.95-.1,30.48,.55,60.83,7.27,90.85,12.99,57.98,40.12,108.14,83.28,148.85,64.67,61.01,143.54,84.73,230.86,83.95,25.75-.23,29.53-3.76,38.09-28.07,7.3-20.72,22.21-32.54,43.25-37.18,9.47-2.09,19.25-1.46,28.81-2.83,29.3-4.21,47.35-18.23,53.72-46.32,2.21-9.76,3.57-19.63,4.87-29.53,2.02-15.44,6.07-30.03,17.67-41.39,10.63-10.4,24.03-14.39,38.23-16.64,18.53-2.93,36.46-7.68,52.49-17.95,10.63-6.81,19.11-15.45,23.77-27.43,4.79-12.3,2.01-23.33-7.98-31.93-5.84-5.03-12.88-7.58-20.11-9.57-17.52-4.83-32.11-14.34-44.4-27.5-17.36-18.6-27.21-40.05-26.66-66.16,.54-25.44,.66-50.91-1.85-76.34-4.41-44.75-19.41-85.39-45.78-121.79-27.32-37.71-62.43-66.32-104.25-86.37-30.45-14.6-63.03-22.69-96.74-24.23-82.09-3.75-152.01,24.28-208.23,84.1-42.56,45.29-64.8,99.7-66.04,162.12-.51,25.8-.08,51.61-.08,77.42Z"/><path class="h" d="M1140.26,469.71c1.17-16.56,2.73-33.17,6.75-49.22,6.69-26.68,17.04-51.91,32.13-75.22,10.65-16.45,23.12-31.25,36.77-45.11,17.29-17.54,35.62-33.98,57.07-46.38,25.45-14.7,52.62-25.09,81.54-30.64,27.12-5.21,54.6-4.93,81.97-3.85,27.81,1.1,55,6.69,80.88,17.08,26.01,10.44,50.16,24.22,71.08,43.2,20.09,18.22,39.49,37.06,54.89,59.61,13.87,20.31,24.9,42.05,31.78,65.66,4.67,16.02,7.72,32.45,9.81,49.05,.73,5.79,1.36,11.53,1.35,17.37-.04,20.31-.11,40.63,0,60.94,.16,29.3,9.81,55.37,28.19,77.97,7.8,9.59,18.57,15.88,29.55,21.53,8.47,4.35,17.47,7.26,26.55,9.95,11.48,3.39,19.88,14.72,19.66,26.95-.38,20.97-10.44,36.25-26.44,48.34-10.28,7.77-21.8,12.25-34.99,12.63-20.01,.58-38.58,5.97-54.47,18.74-7.35,5.9-11.47,14.2-15.28,22.42-5.15,11.09-7.38,22.82-7.17,35.29,.5,30.25-21.66,57.09-50.41,63.5-7.55,1.68-15.43,2.03-23.19,2.56-17.69,1.22-33.24,7.93-46.9,18.78-5.73,4.55-9.02,11.44-12.43,17.92-2.56,4.86-5.02,9.78-7.39,14.73-6.19,12.88-17.36,18.19-30.68,18.64-15.62,.53-31.27,.61-46.92-.42-36.43-2.39-71.22-11.05-104.57-25.88-29.28-13.02-55.43-30.6-79.2-52.04-32.4-29.22-60.12-61.96-79.33-101.46-8.65-17.79-15.49-36.19-20.64-55.3-3.38-12.53-4.77-25.4-7.8-37.96,1.75-16.84,4.4-33.58,5.59-50.49,2.32-32.89,2.02-65.73-1.01-98.57-1.56-16.88-4.39-33.58-6.73-50.34Zm566.47,235.36c3.11,1.08,6.2,.62,9.32-.04,4.22-.89,8.51-1.5,12.67-2.61,16.29-4.33,27.83-14.11,33.93-30,1.17-3.04,.2-4.43-3.14-5.14-11.21-2.38-22.09-6.19-31.94-11.85-20.37-11.7-37.64-26.86-49.67-47.52-11.68-20.06-18.08-41.4-17.76-64.71,.18-12.81-.22-25.64,.08-38.44,.65-27-2.17-53.57-9.16-79.68-5.61-20.96-14.03-40.69-25.13-59.34-7.31-12.3-15.65-23.76-24.76-34.79-11.16-13.53-23.81-25.39-37.69-35.97-16.92-12.9-35.57-22.58-55.1-31.14-22.3-9.76-45.6-14.37-69.34-17.89-.96-.14-2.02-.18-2.75,.74-6.57-1.64-13.34-1.82-20.01-2.79-1.66-1.19-3.32-1.13-4.99-.02-5.23,1.47-10.66,.35-15.94,1.24-.82-.06-1.65-.22-2.46-.16-20.96,1.67-41.4,5.77-61.37,12.49-39.56,13.33-73.68,35.01-101.97,65.71-23.51,25.51-40.94,54.62-51.88,87.63-8.64,26.06-13.11,52.76-13.22,80.18-.12,31.13-.22,62.26,.05,93.39,.15,17.6-.6,35.19,.79,52.82,1.62,20.59,4.82,40.79,10.03,60.76,9.09,34.85,24.68,66.71,45.57,95.77,26.97,37.51,61.2,67.11,102.18,88.74,16.94,8.95,34.69,15.96,52.93,21.63,33.61,10.45,68.15,14.09,103.26,13.25,4.43-.11,7.15-1.15,6.97-6.06,.75-.44,1.13-1.09,1.08-1.96,.7-.6,.71-1.32,.37-2.1,.59-1.18,1.24-2.34,1.77-3.54,11.45-25.98,30.25-43.88,57.24-53.4,11.11-3.92,22.59-3.16,33.88-4.55,22.26-2.74,39.33-19.21,43.18-41.26,1.42-8.1,.66-16.26,2.15-24.23,4.32-22.96,16.02-41.57,34.11-56.17,13.63-11,29.17-17.48,46.7-18.98Z"/><path class="d" d="M296.68,552.88c0-25.81-.43-51.62,.08-77.42,1.24-62.42,23.48-116.82,66.04-162.12,56.22-59.82,126.14-87.85,208.23-84.1,33.71,1.54,66.29,9.63,96.74,24.23,41.81,20.05,76.92,48.66,104.25,86.37,26.37,36.4,41.37,77.04,45.78,121.79,2.51,25.43,2.39,50.9,1.85,76.34-.56,26.11,9.3,47.56,26.66,66.16,12.28,13.16,26.88,22.67,44.4,27.5,7.23,1.99,14.27,4.54,20.11,9.57,9.99,8.6,12.76,19.63,7.98,31.93-4.66,11.98-13.15,20.62-23.77,27.43-16.03,10.27-33.96,15.02-52.49,17.95-14.2,2.25-27.6,6.24-38.23,16.64-11.6,11.36-15.64,25.94-17.67,41.39-1.3,9.9-2.65,19.77-4.87,29.53-6.37,28.09-24.42,42.11-53.72,46.32-9.56,1.37-19.34,.74-28.81,2.83-21.04,4.64-35.95,16.46-43.25,37.18-8.56,24.32-12.34,27.84-38.09,28.07-87.32,.78-166.18-22.94-230.86-83.95-43.15-40.71-70.29-90.87-83.28-148.85-6.73-30.02-7.37-60.36-7.27-90.85,.05-14.65,0-29.3,0-43.95h.18Zm569.1,115.6c-1.35-1.01-2.09-1.71-2.95-2.17-1.75-.95-3.58-1.76-5.35-2.67-43.52-22.19-69.92-57.35-78.95-105.27-3.38-17.93-1.92-36.2-1.74-54.33,.28-28.93-1.17-57.58-10.86-85.21-41.04-116.98-178.13-184.75-303.22-126.69-81.47,37.81-123.31,104.15-123.91,194.94-.24,37.13-.11,74.26-.15,111.39-.02,18.31-.18,36.61,2.05,54.86,6.98,57.09,29.81,106.88,70.24,147.77,55.31,55.94,124.52,76.75,201.42,76.77,3.41,0,4.92-1.68,6.15-4.62,15.47-36.81,44.31-55.59,82.89-61.09,8.89-1.27,17.95-.73,26.83-2.51,6.02-1.2,10.03-4.11,11.56-10.16,.61-2.41,1.46-4.78,1.87-7.23,1.73-10.33,3.06-20.74,5.05-31.02,4.69-24.22,15.08-45.34,34.54-61.3,16.47-13.5,35.86-19.95,56.46-23.53,9.41-1.64,19.16-2.11,28.05-7.95Z"/><path class="j" d="M1416.29,243.9c6.66,.97,13.44,1.15,20.01,2.79,9.73,4.46,19.5,8.83,29.19,13.38,19.18,9.01,37.13,19.83,52.41,34.78,17.93,17.55,30.72,38.59,41.64,60.87,1.63,3.32,3.94,6.62,3.69,10.69-.41-.16-.82-.31-1.22-.47-.13-.62-.38-.68-.74-.15-4.59-2.2-9.02-4.88-13.81-6.51-16.64-5.66-33.67-6.41-50.65-1.97-47.01,12.28-74.86,60.71-62.14,107.59,9,33.18,38.33,58.79,72.43,63.26,35.29,4.62,69.37-12,87.14-42.5,2.15,.2,1.95,1.78,2.04,3.3,.61,10.26,1.36,20.5,1.87,30.77,1.09,22.03,1.73,44.09,3.24,66.1,.74,10.67,.35,21.43,3.7,31.99,4.85,15.31,11.33,29.24,23.23,40.52,21.47,20.34,46.05,35.17,74.36,43.76,1.78,.54,3.63,.71,4.06,2.97-17.53,1.5-33.07,7.98-46.7,18.98-18.1,14.6-29.8,33.21-34.11,56.17-1.5,7.97-.74,16.13-2.15,24.23-3.86,22.05-20.93,38.52-43.18,41.26-11.29,1.39-22.77,.64-33.88,4.55-26.99,9.52-45.79,27.42-57.24,53.4-.53,1.21-1.18,2.36-1.77,3.54-1.24,.5-1.76,1.13-.37,2.1,.04,.88-.33,1.52-1.08,1.96-16.06-2.85-31.23-8.54-46.04-15.09-17.72-7.84-35.33-15.96-52.73-24.47-17.4-8.5-34.68-17.38-50-29.39-9.63-7.56-19.15-15.27-28.45-23.29-16.47-14.21-29.37-31.09-40.05-49.74-6.47-11.31-11.29-23.48-16.44-35.46-4.96-11.53-9.69-23.22-12.8-35.32-5.07-19.73-6.91-40.04-8.27-60.33-.85-12.75-.48-25.55-.79-38.33-.79-32.77-.28-65.56-.27-98.35,0-1.58-.48-3.51,2-3.84l.97,1.08c.02,1.18,.58,1.89,1.79,2.02,2.05,2.02,4.1,4.04,6.15,6.06,.12,1.32,.87,1.88,2.16,1.79,.93,.78,1.86,1.56,2.79,2.34,.23,1.25,.99,1.78,2.24,1.64,.33,.04,.59,.2,.78,.47,.42,1.83,1.51,2.71,3.43,2.4,.86,.5,1.72,.99,2.59,1.49,6.01,5.27,13.05,8.17,20.95,9.08l2.01,.5c2.14,1.4,4.24,2.93,6.99,1.5,1,.11,2.01,.22,3.01,.33,7.38,2.6,14.77,3.34,22.18,.08,1.33-.15,2.67-.29,4-.44,9.53-.41,18.25-3.19,25.98-8.87,.48-.26,.96-.51,1.44-.77,2.7,.3,4.26-1.29,5.54-3.35,.21-.26,.48-.4,.8-.42,1.2,.14,1.97-.33,2.2-1.56,1.89-1.5,3.79-3,5.68-4.51,3.02-.16,4.47-2.1,5.31-4.72l.06-.06c2.61-.8,4.45-2.3,4.79-5.19,2.83-3.93,5.66-7.86,8.49-11.79,1.31-.29,1.63-1.17,1.4-2.37,.93-1.87,1.86-3.74,2.79-5.6,2.76-3.54,4.78-7.36,4.65-12.02,.18-.66,.36-1.31,.54-1.97,1.87-1.68,2.98-3.54,1.45-6.03l.27-1.98c2.49-1.4,1.3-3.59,1.18-5.54l.17-4.51c1.68-3.35,1.69-6.7,0-10.05l-.45-5.11c.71-1.84,1.45-3.68-.92-4.95l-.28-1.97c1.56-2.51,.45-4.37-1.46-6.04l-.5-1.97c.64-2.88-.92-4.96-2.54-7.02-.29-.89-.57-1.78-.86-2.67-.33-2.56-1-4.94-3.5-6.29l-2.64-4.47c.36-1.35-.01-2.26-1.5-2.5-.24-.17-.36-.4-.37-.7,.22-1.26-.22-2.09-1.55-2.31-.25-.2-.38-.47-.39-.79,.15-1.26-.36-2.03-1.65-2.21-1.43-1.63-2.86-3.26-4.28-4.89-.84-3.19-2.8-5.24-6.05-6-1.29-1.09-2.58-2.18-3.87-3.26-.14-1.26-.87-1.81-2.11-1.74-.62-.46-1.24-.92-1.86-1.38-.22-1.25-.99-1.72-2.2-1.58-.32-.02-.59-.15-.8-.39-.24-1.33-1.07-1.76-2.34-1.52-1.55-.83-3.1-1.66-4.66-2.5-.79-2.14-2.47-2.61-4.51-2.39-.82-.27-1.64-.54-2.46-.81-5.92-4.44-12.76-5.78-19.96-5.89-1.34-.13-2.69-.26-4.03-.39-6.37-1.98-12.74-1.96-19.12-.02l-4.98,.48c-6.27-.99-11.56,2.64-17.6,3.82-.11-1.51,.62-2.58,1.38-3.62,6.57-8.94,12.41-18.38,19.27-27.15,14.99-19.15,30.89-37.34,50.67-51.76,7.75-5.65,14.49-12.77,23.59-16.47,8.56-3.48,17.22-6.72,25.71-10.36,2.53-1.09,5.98-1.26,6.99-4.75,5.28-.89,10.71,.22,15.94-1.25,1.66,1.49,3.32,1.46,4.99,.02Z"/><path class="i" d="M1232.4,497.65c-2.49,.33-2,2.26-2,3.84-.01,32.78-.53,65.58,.27,98.35,.31,12.77-.06,25.58,.79,38.33,1.35,20.29,3.2,40.6,8.27,60.33,3.11,12.1,7.84,23.79,12.8,35.32,5.15,11.98,9.97,24.15,16.44,35.46,10.67,18.66,23.58,35.53,40.05,49.74,9.29,8.02,18.81,15.73,28.45,23.29,15.31,12.02,32.6,20.89,50,29.39,17.41,8.51,35.01,16.63,52.73,24.47,14.81,6.56,29.98,12.24,46.04,15.09,.18,4.91-2.54,5.95-6.97,6.06-35.11,.84-69.65-2.8-103.26-13.25-18.24-5.67-35.99-12.69-52.93-21.63-40.98-21.63-75.2-51.23-102.18-88.74-20.89-29.05-36.49-60.91-45.57-95.77-5.21-19.97-8.41-40.16-10.03-60.76-1.39-17.63-.64-35.22-.79-52.82-.26-31.13-.17-62.26-.05-93.39,.11-27.42,4.58-54.12,13.22-80.18,10.95-33.01,28.37-62.12,51.88-87.63,28.29-30.7,62.41-52.38,101.97-65.71,19.97-6.73,40.41-10.82,61.37-12.49,.81-.06,1.64,.1,2.46,.16-1.01,3.49-4.45,3.66-6.99,4.75-8.49,3.65-17.15,6.89-25.71,10.36-9.1,3.7-15.84,10.82-23.59,16.47-19.78,14.42-35.68,32.6-50.67,51.76-6.86,8.77-12.7,18.21-19.27,27.15-.77,1.04-1.49,2.11-1.38,3.62,6.04-1.18,11.33-4.81,17.6-3.82-.88,1.27-2.34,1.16-3.59,1.44-19.62,4.36-36.29,13.69-48.96,29.48-20.72,25.85-25.01,54.61-14.61,85.76,3.13,9.37,8.81,17.4,14.21,25.55Z"/><path class="n" d="M1706.73,705.07c-.43-2.26-2.28-2.43-4.06-2.97-28.31-8.59-52.89-23.42-74.36-43.76-11.91-11.28-18.38-25.21-23.23-40.52-3.35-10.56-2.96-21.32-3.7-31.99-1.52-22-2.15-44.06-3.24-66.1-.51-10.26-1.26-20.51-1.87-30.77-.09-1.52,.11-3.1-2.04-3.3,.38-3.11,3.1-4.91,4.19-7.75,3.42-8.84,6.36-17.7,7.32-27.22,1.61-16.06-.88-31.37-7.89-45.87-7.79-16.14-19.1-29.2-34.63-38.42,.25-4.06-2.06-7.36-3.69-10.69-10.92-22.29-23.71-43.32-41.64-60.87-15.28-14.95-33.23-25.77-52.41-34.78-9.69-4.55-19.46-8.93-29.19-13.38,.74-.92,1.79-.88,2.75-.74,23.74,3.52,47.04,8.12,69.34,17.89,19.53,8.55,38.18,18.24,55.1,31.14,13.88,10.58,26.53,22.44,37.69,35.97,9.11,11.04,17.44,22.5,24.76,34.79,11.1,18.66,19.52,38.39,25.13,59.34,6.99,26.11,9.8,52.68,9.16,79.68-.31,12.81,.09,25.63-.08,38.44-.32,23.31,6.08,44.65,17.76,64.71,12.03,20.66,29.31,35.82,49.67,47.52,9.85,5.66,20.73,9.47,31.94,11.85,3.34,.71,4.31,2.1,3.14,5.14-6.1,15.89-17.65,25.67-33.93,30-4.16,1.1-8.45,1.71-12.67,2.61-3.11,.66-6.21,1.12-9.32,.04Z"/><path class="i" d="M1416.29,243.9c-1.67,1.44-3.33,1.47-4.99-.02,1.67-1.11,3.33-1.17,4.99,.02Z"/><path class="i" d="M1487.3,909.31c-1.39-.97-.87-1.6,.37-2.1,.34,.78,.33,1.51-.37,2.1Z"/><path class="e" d="M865.78,668.48c-8.89,5.84-18.64,6.31-28.05,7.95-20.6,3.58-39.99,10.03-56.46,23.53-19.46,15.96-29.85,37.08-34.54,61.3-1.99,10.28-3.32,20.69-5.05,31.02-.41,2.45-1.26,4.82-1.87,7.23-1.53,6.05-5.54,8.96-11.56,10.16-8.88,1.77-17.94,1.24-26.83,2.51-38.57,5.5-67.42,24.28-82.89,61.09-1.23,2.94-2.74,4.62-6.15,4.62-76.91-.03-146.11-20.83-201.42-76.77-40.43-40.89-63.27-90.68-70.24-147.77-2.23-18.25-2.07-36.55-2.05-54.86,.03-37.13-.1-74.26,.15-111.39,.6-90.79,42.44-157.13,123.91-194.94,125.09-58.06,262.19,9.71,303.22,126.69,9.69,27.63,11.14,56.28,10.86,85.21-.18,18.12-1.63,36.39,1.74,54.33,9.03,47.92,35.43,83.08,78.95,105.27,1.78,.91,3.6,1.71,5.35,2.67,.86,.47,1.6,1.16,2.95,2.17Zm-122.62-241.61c.33-46.31-35.71-82.69-82.27-83.04-45.97-.35-82.17,35.9-82.63,82.73-.45,45.42,36.13,82.2,82.3,82.75,45.25,.54,82.28-36.42,82.61-82.44Zm-284.41,82.23c46.01-.15,82.4-36.68,82.35-82.68-.04-46.06-36.95-82.76-83.05-82.59-45.58,.17-82.01,36.86-81.95,82.54,.06,46.59,36.31,82.87,82.65,82.73Z"/><path class="g" d="M1563.22,366.42c15.53,9.22,26.83,22.28,34.63,38.42,7,14.5,9.5,29.81,7.89,45.87-.96,9.52-3.9,18.38-7.32,27.22-1.1,2.84-3.81,4.64-4.19,7.75-17.77,30.5-51.85,47.12-87.14,42.5-34.1-4.47-63.43-30.08-72.43-63.26-12.72-46.88,15.13-95.31,62.14-107.59,16.98-4.43,34.01-3.68,50.65,1.97,4.79,1.63,9.22,4.31,13.81,6.51l.35,.18,.39-.03c.41,.16,.82,.31,1.22,.47Zm-46.1,75.25c0-6.81,0-13.63,0-20.44,0-6.81,.04-13.63-.02-20.44-.02-2.23,.59-4.86-3.32-4.61-17.46,1.12-34.85,15.08-39.53,31.89-7.87,28.28,8.17,53.5,37.17,58.87,4.74,.88,5.83-.44,5.77-4.88-.19-13.46-.07-26.93-.07-40.39Z"/><path class="g" d="M1232.4,497.65c-5.4-8.15-11.08-16.18-14.21-25.55-10.4-31.15-6.12-59.92,14.61-85.76,12.67-15.8,29.34-25.13,48.96-29.48,1.26-.28,2.71-.17,3.59-1.44,1.66-.16,3.32-.32,4.98-.49,6.37,.62,12.74,.59,19.12,.02,1.34,.13,2.69,.26,4.03,.39,6.65,1.96,13.31,3.93,19.96,5.89,.82,.27,1.64,.54,2.46,.81,1.08,1.59,2.65,2.26,4.51,2.39,1.55,.83,3.1,1.66,4.66,2.5,.46,1,1.11,1.7,2.34,1.52,.21,.25,.48,.38,.8,.39,.34,1.08,1,1.71,2.2,1.58,.62,.46,1.24,.92,1.86,1.38,.27,1.11,.91,1.76,2.11,1.74,1.29,1.09,2.58,2.18,3.87,3.26,1.45,2.57,3.42,4.61,6.05,6,1.43,1.63,2.86,3.26,4.28,4.89-.05,1.19,.57,1.87,1.65,2.21,.01,.32,.14,.58,.39,.79-.15,1.22,.53,1.87,1.55,2.31,0,.3,.13,.53,.37,.7-.08,1.18,.58,1.91,1.5,2.5,.88,1.49,1.76,2.98,2.64,4.47,.45,2.5,1.31,4.76,3.5,6.29,.29,.89,.57,1.78,.86,2.67,.09,2.62,.63,5.07,2.54,7.02,.17,.66,.33,1.31,.5,1.97-.67,2.29,.31,4.18,1.46,6.04,.09,.66,.19,1.32,.28,1.97-.32,1.76-.79,3.56,.92,4.95,.15,1.7,.3,3.4,.45,5.11-.82,3.35-.81,6.7,0,10.05-.06,1.5-.12,3.01-.17,4.51-1.84,1.54-1.65,3.51-1.18,5.54-.09,.66-.18,1.32-.27,1.98-1.14,1.85-2.21,3.72-1.45,6.03-.18,.66-.36,1.31-.54,1.97-2.39,3.68-3.67,7.79-4.65,12.02-.93,1.87-1.86,3.74-2.79,5.61-1.04,.45-1.56,1.21-1.4,2.37-2.83,3.93-5.66,7.86-8.49,11.79-2.26,1.12-3.95,2.76-4.79,5.19l-.06,.06c-2.47,.79-4.03,2.6-5.31,4.72-1.89,1.5-3.79,3-5.68,4.5-1.22-.17-1.86,.48-2.2,1.56-.33,.02-.6,.17-.8,.42-2.35,.29-4.13,1.51-5.54,3.35-.48,.26-.96,.51-1.44,.77-8.48,3.49-17.25,6.12-25.98,8.87-1.33,.15-2.67,.29-4,.44-7.39-.4-14.78-.51-22.18-.08-1-.11-2.01-.22-3.01-.33-2.13-1.44-4.42-2.1-6.99-1.5-.67-.17-1.34-.34-2.01-.5-6.98-3.03-13.97-6.05-20.95-9.08-.86-.5-1.72-.99-2.59-1.49-.77-1.33-1.7-2.44-3.43-2.4-.19-.27-.45-.43-.78-.47-.31-1.14-1.07-1.67-2.24-1.64-.93-.78-1.86-1.56-2.79-2.34-.31-1.09-1.02-1.7-2.16-1.79-2.05-2.02-4.1-4.04-6.15-6.06-.08-1.13-.53-1.94-1.79-2.02l-.97-1.08Zm68.83-54.93c0-13.46,0-26.92,0-40.38,0-5.98-.08-6.08-6.24-5.5-1.81,.17-3.64,.48-5.36,1.03-18.74,5.92-30.3,18.16-33.77,37.84-4.35,24.71,15.49,50.24,40.5,51.95,3.6,.25,5.01-.64,4.95-4.56-.22-13.46-.08-26.92-.09-40.38Z"/><path class="i" d="M1288.26,528.34c7.39-.43,14.79-.32,22.18,.08-7.41,3.26-14.8,2.52-22.18-.08Z"/><path class="i" d="M1314.45,527.98c8.73-2.75,17.5-5.38,25.98-8.87-7.73,5.68-16.45,8.46-25.98,8.87Z"/><path class="i" d="M1255.31,516.92c6.98,3.03,13.97,6.05,20.95,9.08-7.9-.91-14.94-3.81-20.95-9.08Z"/><path class="i" d="M1309.44,354.96c-6.37,.57-12.75,.6-19.12-.02,6.37-1.94,12.75-1.96,19.12,.02Z"/><path class="i" d="M1333.43,361.23c-6.65-1.96-13.31-3.93-19.96-5.89,7.2,.11,14.04,1.45,19.96,5.89Z"/><path class="i" d="M1378.93,478.78c.98-4.23,2.26-8.34,4.65-12.02,.13,4.65-1.89,8.48-4.65,12.02Z"/><path class="i" d="M1387.19,446.73c-.82-3.35-.82-6.7,0-10.05,1.69,3.35,1.68,6.7,0,10.05Z"/><path class="i" d="M1364.29,382.8c-2.62-1.39-4.6-3.43-6.05-6,3.24,.76,5.21,2.81,6.05,6Z"/><path class="i" d="M1278.26,526.51c2.57-.6,4.86,.06,6.99,1.5-2.74,1.43-4.85-.1-6.99-1.5Z"/><path class="i" d="M1384.12,464.79c-.76-2.31,.31-4.18,1.45-6.03,1.54,2.49,.43,4.35-1.45,6.03Z"/><path class="i" d="M1383.58,416.65c-1.92-1.96-2.45-4.41-2.54-7.02,1.63,2.06,3.18,4.14,2.54,7.02Z"/><path class="i" d="M1385.54,424.66c-1.14-1.85-2.13-3.75-1.46-6.04,1.91,1.67,3.02,3.53,1.46,6.04Z"/><path class="i" d="M1356.09,508.51c1.29-2.12,2.84-3.93,5.31-4.72-.84,2.62-2.29,4.56-5.31,4.72Z"/><path class="i" d="M1361.46,503.73c.84-2.43,2.53-4.07,4.79-5.19-.34,2.89-2.18,4.39-4.79,5.19Z"/><path class="i" d="M1380.18,406.96c-2.19-1.53-3.05-3.8-3.5-6.29,2.51,1.35,3.18,3.73,3.5,6.29Z"/><path class="i" d="M1341.86,518.35c1.41-1.84,3.19-3.06,5.54-3.35-1.27,2.06-2.84,3.65-5.54,3.35Z"/><path class="i" d="M1386.74,431.58c-1.71-1.39-1.24-3.18-.92-4.95,2.37,1.27,1.63,3.11,.92,4.95Z"/><path class="i" d="M1385.84,456.78c-.47-2.03-.66-4,1.18-5.54,.12,1.95,1.31,4.14-1.18,5.54Z"/><path class="i" d="M1340.4,364.43c-1.86-.13-3.43-.79-4.51-2.39,2.04-.23,3.72,.25,4.51,2.39Z"/><path class="i" d="M1249.29,513.04c1.73-.04,2.66,1.07,3.43,2.4-1.92,.31-3.01-.57-3.43-2.4Z"/><path class="i" d="M1233.36,498.73c1.27,.08,1.71,.89,1.79,2.02-1.21-.13-1.77-.83-1.79-2.02Z"/><path class="i" d="M1374.74,486.75c-.16-1.16,.37-1.92,1.4-2.37,.23,1.2-.09,2.08-1.4,2.37Z"/><path class="i" d="M1241.31,506.81c1.14,.09,1.85,.7,2.16,1.79-1.29,.1-2.04-.47-2.16-1.79Z"/><path class="i" d="M1246.27,510.93c1.17-.03,1.93,.5,2.24,1.64-1.25,.14-2.01-.39-2.24-1.64Z"/><path class="i" d="M1347.39,368.45c-1.23,.18-1.88-.52-2.34-1.52,1.27-.24,2.09,.19,2.34,1.52Z"/><path class="i" d="M1348.21,514.58c.33-1.08,.98-1.73,2.2-1.56-.23,1.23-1,1.69-2.2,1.56Z"/><path class="i" d="M1350.4,370.42c-1.21,.13-1.87-.49-2.2-1.58,1.21-.14,1.99,.33,2.2,1.58Z"/><path class="i" d="M1374.03,396.19c-.92-.58-1.58-1.31-1.5-2.5,1.49,.24,1.86,1.15,1.5,2.5Z"/><path class="i" d="M1372.17,393c-1.01-.44-1.7-1.1-1.55-2.31,1.33,.23,1.77,1.05,1.55,2.31Z"/><path class="i" d="M1370.23,389.9c-1.08-.34-1.71-1.02-1.65-2.21,1.29,.18,1.8,.95,1.65,2.21Z"/><path class="i" d="M1354.38,373.54c-1.2,.02-1.84-.63-2.11-1.74,1.24-.07,1.97,.48,2.11,1.74Z"/><path class="n" d="M1561.99,365.94l-.39,.03-.35-.18c.36-.53,.61-.47,.74,.15Z"/><path class="d" d="M743.17,426.87c-.33,46.03-37.36,82.99-82.61,82.44-46.17-.55-82.75-37.34-82.3-82.75,.46-46.83,36.66-83.08,82.63-82.73,46.57,.35,82.6,36.72,82.27,83.04Zm-25.71-.08c.02-31.75-24.8-56.51-56.81-56.68-31.08-.17-56.68,25.34-56.66,56.45,.02,31.81,24.76,56.95,55.97,56.89,33.31-.06,57.48-23.88,57.49-56.66Z"/><path class="d" d="M458.75,509.1c-46.34,.15-82.6-36.13-82.65-82.73-.05-45.68,36.37-82.36,81.95-82.54,46.1-.18,83.01,36.52,83.05,82.59,.04,46-36.34,82.53-82.35,82.68Zm-56.97-82.21c.08,31.41,24.82,56.54,55.72,56.62,33.45,.09,57.78-23.77,57.89-56.79,.11-31.74-25.11-56.63-57.34-56.61-30.96,.02-56.35,25.64-56.27,56.78Z"/><path class="l" d="M1517.12,441.67c0,13.46-.12,26.93,.07,40.39,.06,4.44-1.02,5.76-5.77,4.88-29-5.38-45.04-30.59-37.17-58.87,4.68-16.8,22.07-30.76,39.53-31.89,3.91-.25,3.3,2.37,3.32,4.61,.05,6.81,.02,13.63,.02,20.44,0,6.81,0,13.63,0,20.44Z"/><path class="m" d="M1301.23,442.72c0,13.46-.14,26.92,.09,40.38,.06,3.92-1.35,4.81-4.95,4.56-25.02-1.7-44.86-27.23-40.5-51.95,3.47-19.68,15.03-31.92,33.77-37.84,1.73-.55,3.56-.86,5.36-1.03,6.16-.58,6.23-.49,6.24,5.5,0,13.46,0,26.92,0,40.38Z"/><path class="e" d="M717.46,426.79c-.02,32.78-24.19,56.6-57.49,56.66-31.22,.06-55.96-25.09-55.97-56.89-.01-31.11,25.59-56.62,56.66-56.45,32.01,.17,56.82,24.93,56.81,56.68Zm-55.7-.07h.08c0-8.81-.14-17.63,.06-26.43,.1-4.19-1.17-5.61-5.54-4.93-15.57,2.42-26.96,15.24-27.15,30.95-.18,15.27,11.81,29.37,26.99,31.92,3.89,.65,5.63-.52,5.58-4.58-.1-8.98-.03-17.95-.03-26.93Z"/><path class="e" d="M401.79,426.89c-.08-31.15,25.3-56.77,56.27-56.78,32.23-.02,57.44,24.88,57.34,56.61-.11,33.02-24.43,56.88-57.89,56.79-30.9-.08-55.63-25.22-55.72-56.62Zm57.83-.32h.11c0-8.8-.13-17.61,.06-26.41,.09-4.28-1.4-5.53-5.66-4.84-15.26,2.44-26.61,14.87-27.02,29.98-.44,16.16,10.17,29.18,26.57,32.58,4.82,1,5.92,.13,5.94-4.9,.03-8.8,0-17.61,0-26.41Z"/><path class="d" d="M661.76,426.71c0,8.98-.07,17.96,.03,26.93,.05,4.06-1.7,5.24-5.58,4.58-15.18-2.56-27.17-16.65-26.99-31.92,.19-15.72,11.58-28.54,27.15-30.95,4.37-.68,5.63,.74,5.54,4.93-.2,8.81-.06,17.62-.06,26.43h-.08Z"/><path class="d" d="M459.62,426.57c0,8.8,.02,17.61,0,26.41-.02,5.02-1.12,5.9-5.94,4.9-16.4-3.41-27.01-16.42-26.57-32.58,.41-15.11,11.76-27.54,27.02-29.98,4.26-.68,5.75,.57,5.66,4.84-.19,8.8-.06,17.61-.06,26.41h-.11Z"/></g></g></g></svg>