<?xml version="1.0" encoding="utf-8"?>
<!-- Generator: Adobe Illustrator 26.0.0, SVG Export Plug-In . SVG Version: 6.00 Build 0)  -->
<svg version="1.1" id="Layer_1" xmlns="http://www.w3.org/2000/svg" xmlns:xlink="http://www.w3.org/1999/xlink" x="0px" y="0px"
	 viewBox="0 0 558.9 190.6" style="enable-background:new 0 0 558.9 190.6;" xml:space="preserve">
<style type="text/css">
	.st0{fill:#C4BAAE;}
	.st1{fill:#030202;}
	.st2{fill:#F6EEE4;}
</style>
<g id="Layer_2_00000142168852423515004890000014550175213228772781_">
	<g id="Layer_1-2">
		<path class="st0" d="M0,97.6v-4.3c0.4-3.1,0.6-6.2,0.8-9.3c3-26.3,15.5-47.3,36-63.8C49.2,10,64.1,3.4,80,1.2
			c26.4-3.7,50.8,1.2,72.3,17.5C169.7,32,182,49,187.7,70.3c2.8,10.7,3.7,21.8,2.8,32.8c-1.2,15.1-5.3,29.2-13.6,42
			c-14.5,22.5-34.4,37.9-60.9,43.2c-37.7,7.5-69.5-3.4-94.5-32.9c-10.5-12.3-17.4-27.3-20-43.2c-0.3-1.7-0.5-3.5-0.7-5.2L0,97.6z
			 M180.2,95.1c0.3-5.2-0.1-10.4-1.1-15.5c-1.7-9.2-4.9-18.1-9.6-26.2c-5.8-9.8-13.3-18.4-22.2-25.4c-8.3-6.7-17.9-11.6-28.2-14.5
			c-6-1.8-12.3-2.8-18.6-3c-1.5,0-3-0.5-4.5-0.3c-1.8,0.2-3.6,0.3-5.5,0.3c-2.2,0-4.5,0.2-6.7,0.6c-8.1,1.1-16.1,3.4-23.6,6.7
			c-20,9-35.7,25.4-43.9,45.7c-3.5,8.5-5.5,17.5-6,26.7c-0.3,5.7,0,11.5,0.8,17.2c1,7.8,3.2,15.5,6.4,22.7
			c6.3,13.9,15.9,25.1,27.9,34.1c14.4,10.8,30.9,15.7,48.7,16.1c2.7,0.1,5.4-0.1,8.1-0.4c3.4-0.2,6.8-0.7,10.2-1.3
			c8.3-1.6,16.3-4.5,23.7-8.7c11.5-6.5,21.4-15.5,29.1-26.3c4.7-6.6,8.4-13.8,10.9-21.5C179.3,113.5,180.6,104.3,180.2,95.1z"/>
		<path class="st1" d="M285.3,92.3c0.4,0.4,0.9,0.7,1.5,0.8c7.1,2.2,12.3,8.1,13.8,15.3c1.7,7.5,0.6,14.5-4.5,20.5
			c-2.3,2.7-5.2,4.8-8.4,6.2c-5,2.3-10.3,3.5-15.8,3.5c-14.2,0.1-28.4,0-42.7,0c-0.4,0-0.8-0.1-1.2-0.1c-0.5-1.7-0.6-83.9-0.1-86.8
			c0.7-0.3,1.5-0.3,2.3-0.2c12.9,0,25.7,0,38.6,0c6.9,0,13.5,1.3,19.6,4.8c12.5,7.2,12.1,21.7,6.3,29.2c-1.9,2.5-4.4,4.5-7.2,5.8
			L285.3,92.3z M249.7,120.6c0.3,0.1,0.5,0.2,0.8,0.2c5.8,0,11.5,0,17.2,0h0.3c11.3-0.3,11.5-17.4,0.2-17.9h-0.9
			c-5.3,0-10.5,0-15.8,0c-0.6,0-1.3-0.2-1.9,0.4L249.7,120.6z M249.7,86.1c0.4,0.1,0.8,0.1,1.1,0.2c5.2,0,10.4,0,15.6,0
			c1,0,2.1-0.2,3.1-0.4c4-0.8,6.8-4.5,6.4-8.6c-0.2-4.1-2.8-6.8-7.1-7.5c-0.8-0.1-1.6-0.2-2.4-0.2c-5,0-10.1,0-15.1,0
			c-0.5,0-1.1-0.2-1.6,0.4V86.1z"/>
		<path class="st1" d="M509.7,72.5c4.5,12.7,9,25.4,13.4,38c0.3,0.7,1,1.1,1.7,0.8c0.4-0.1,0.7-0.4,0.8-0.8
			c2.2-5.8,3.9-11.8,5.8-17.6c2.2-6.8,4.3-13.5,6.4-20.4c0.2-0.6,0.7-1,1.3-1h18.4c0.7,0,1.3,0.6,1.3,1.4c0,0.2,0,0.4-0.1,0.5
			c-8.9,23.6-17.7,47.3-26.6,70.9c-1.2,3.4-2.9,6.6-5,9.5c-3.9,5.5-10,9-16.7,9.6c-7.6,0.8-14.6-0.5-21-5.1l-1.4-1l-0.9-0.7
			l8.2-14.1c0.4-0.6,1.2-0.9,1.9-0.5c0.1,0,0.1,0.1,0.2,0.1c0.2,0.2,0.4,0.4,0.7,0.6c1.7,1.2,3.7,2,5.8,2.2c3.3,0.4,6.4-1.2,8-4.1
			c0.1-0.2,0.2-0.4,0.3-0.6c1.1-2.1,1.3-4.6,0.3-6.9c-7.9-19-15.7-38.1-23.4-57.2c-0.5-1.2-1-2.5-1.5-3.7c-0.1-0.3-0.2-0.7,0.1-0.9
			c0.1-0.1,0.2-0.1,0.4-0.1c6.8,0,13.5,0,20.3,0C509,71.5,509.5,71.9,509.7,72.5z"/>
		<path class="st1" d="M427.2,117.1l8.7,9.1c0.7,0.7,0.7,1.9,0,2.6l0,0c-5.6,5.8-13.1,9.5-21.1,10.3c-5.7,0.8-11.6,0.4-17.2-1.1
			c-12.4-3.3-21.4-13.9-22.6-26.7c-0.7-6.4-0.5-12.8,1.6-19C380.9,80,389.8,73,402.8,71c5-0.7,10.1-0.5,15,0.6
			c8.5,1.8,15.6,7.4,19.2,15.2c3.5,7,4.3,14.5,4.1,22.4c0,1-0.8,1.8-1.9,1.8c-1.9,0.1-3.8,0-5.7,0c-2.5,0-5,0-7.4,0h-14.6
			c-2.5,0-5,0-7.4,0c-1.7,0-3.4-0.1-5.2,0c-1,0-1.9,0.9-1.9,1.9c0,0.2,0,0.5,0.1,0.7c0.8,2.1,2.1,3.9,3.7,5.3
			c4.7,4.1,10,4.3,15.6,2.7c2.8-0.8,5.3-2.3,7.5-4.2l0.7-0.6C425.4,116.3,426.6,116.4,427.2,117.1z M418.2,98.8c1,0,1.9-0.9,1.9-1.9
			c0-0.1,0-0.1,0-0.2c-0.4-4.9-4-9-8.8-10.1c-8-1.8-13.4,4-14.8,9.8c-0.2,1,0.4,2,1.4,2.3c0.2,0,0.3,0.1,0.5,0.1H418.2z"/>
		<path class="st1" d="M357.7,117.1l8.7,9.1c0.7,0.7,0.7,1.8,0,2.5c-2.9,3.1-6.4,5.7-10.3,7.4c-6,2.6-12.6,3.7-19.1,3.3
			c-3.9-0.1-7.8-0.9-11.5-2.2c-10.9-4.1-17.4-12.1-19.5-23.4c-1.6-7.3-1.1-14.9,1.4-22C311.9,79.3,321,72.6,334,71
			c5-0.7,10.1-0.4,15,0.9c8.7,2.2,14.9,7.4,18.8,15.4c3.5,7.3,4.2,15,3.9,22.9c-0.1,0.3-0.2,0.6-0.3,0.9h-41.9c-1,0-1.8,0.8-1.8,1.8
			c0,0.3,0.1,0.5,0.2,0.8c0.1,0.3,0.3,0.6,0.5,0.9c2.6,5.3,8.2,8.5,14.1,8c4.8-0.3,9.4-2.3,12.9-5.6l0,0
			C355.9,116.3,357,116.3,357.7,117.1z M326.4,98.7c3.2,0.6,22.9,0.4,24.4-0.2c-0.2-4.1-1.5-7.7-5-10.1c-3.5-2.5-8.2-2.8-12-0.8
			C329.4,89.9,327.4,93.9,326.4,98.7z"/>
		<path class="st1" d="M490.6,49.2c-0.8,4.9-1.6,9.6-2.4,14.3c-0.1,0.7-0.8,1.2-1.5,1.1c0,0-0.1,0-0.1,0c-1.2-0.3-2.4-0.6-3.5-0.9
			c-0.2-0.1-0.4-0.1-0.7-0.2c-4.2-0.6-8.1,2.2-8.7,6.4c-0.1,0.4-0.1,0.9-0.1,1.3c0,0.7,0,1.4,0,2.1c0,0.7,0.6,1.3,1.3,1.3h11.3
			c0.7,0,1.2,0.5,1.3,1.1c0.4,4.1,0.4,8.3,0.2,12.5c-0.1,0.7-0.6,1.2-1.3,1.2c-3.8,0.1-7.5,0-11.5,0c-0.7,0-1.3,0.6-1.3,1.3v46.5
			c0,0.7-0.6,1.3-1.3,1.3h-18.7c-0.7,0-1.3-0.6-1.3-1.3V90.8c0-0.7-0.5-1.2-1.2-1.3c-2.1-0.2-4.2,0-6.2-0.1
			c-0.7-0.1-1.2-0.7-1.2-1.3V75.9c0-0.7,0.6-1.3,1.3-1.3c2.1-0.2,4.2,0,6.2-0.1c0.6,0,1.1-0.5,1.2-1.2c0-0.5-0.1-1,0-1.5
			c-0.1-2.5,0-5,0.3-7.4c1.4-9.5,7.4-15.9,16.7-18.1c6.9-1.7,13.6-0.9,20.4,1.4C490.3,47.9,490.7,48.6,490.6,49.2z"/>
		<path class="st2" d="M180.2,95.1c0.4,9.2-1,18.4-3.9,27.1c-2.5,7.7-6.1,15-10.9,21.5c-7.6,10.8-17.6,19.8-29.1,26.3
			c-7.4,4.2-15.4,7.1-23.7,8.7c-3.4,0.7-6.8,1.1-10.2,1.3c-2.7,0.2-5.4,0.4-8.1,0.4c-17.9-0.4-34.3-5.3-48.7-16.1
			c-12.1-9-21.7-20.3-27.9-34.1c-3.2-7.2-5.4-14.9-6.4-22.7c-0.8-5.7-1.1-11.4-0.8-17.2c0.5-9.2,2.5-18.2,6-26.7
			c8.2-20.3,23.9-36.7,43.9-45.7c7.5-3.3,15.4-5.6,23.6-6.7c2.2-0.4,4.4-0.6,6.7-0.6c1.8,0,3.7-0.1,5.5-0.3c1.5-0.2,3,0.3,4.5,0.3
			c6.3,0.2,12.5,1.2,18.6,3c10.3,2.9,19.9,7.8,28.2,14.5c8.9,7,16.5,15.7,22.2,25.5c4.7,8.1,7.9,17,9.6,26.2
			C180.2,84.8,180.5,89.9,180.2,95.1z M65.1,59.6h-8.6c-3.4,0-6.7,0-10.1,0c-4.2,0-6.2,2-6.3,6.1c0,2.3,0.4,4.6,1.3,6.8
			c1.6,4.1,4.1,7.8,7.3,10.9c2.5,2.4,5,4.7,7.5,7c2,1.8,3.1,4.3,3,7c-0.2,9.1,0,18.2,0,27.3c0,1.8,0.1,3.5,0.3,5.3
			c2.1,13,13.3,22.6,26.5,22.6c5.5,0.1,11,0,16.6,0c2.2,0,4.3-0.2,6.4-0.7c12.1-2.8,20.8-13.6,20.9-26c0.1-9.9,0.1-19.8,0-29.8
			c-0.1-1.7,0.6-3.3,1.7-4.6c0.8-0.9,1.7-1.7,2.6-2.5c3-2.6,5.9-5.4,8.5-8.4c2.7-3.2,4.6-6.9,5.6-11c0.5-1.8,0.6-3.6,0.3-5.5
			c-0.3-2.2-2-4-4.2-4.4c-0.9-0.2-1.7-0.2-2.6-0.2c-4.6,0-9.1,0-13.7,0c-0.6,0-1.3,0.2-1.8-0.4c0-1.8,0-3.6,0-5.5
			c0-1.5-0.1-3-0.5-4.5c-1.4-5.1-6.2-8.5-12-8.4c-5.3,0-10,3.6-11.3,8.7c-0.3,1.4-0.4,2.8-0.4,4.3c0.1,1.9,0.1,3.9-0.2,5.8
			c-2.2,0-4.3,0-6.3,0s-4.3,0.2-6.5-0.2c0-2.5,0-4.9,0-7.3c0-2.8-1.1-5.4-3-7.4c-3.5-3.8-9.1-5-13.9-3c-4.4,1.7-7.1,5.7-7.2,10.9
			C65.1,54.8,65.1,57,65.1,59.6z"/>
		<path class="st1" d="M65.1,59.6c0-2.6,0-4.8,0-7c0.1-5.1,2.8-9.2,7.2-10.9c4.8-2,10.3-0.8,13.9,3c1.9,2,3,4.6,3,7.4
			c0,2.4,0,4.8,0,7.3c2.2,0.5,4.3,0.2,6.5,0.2s4.1,0,6.3,0c0.2-1.9,0.3-3.8,0.2-5.8c0-1.4,0.1-2.9,0.4-4.3c1.3-5.1,6-8.7,11.3-8.7
			c5.8-0.1,10.6,3.2,12,8.4c0.3,1.5,0.5,3,0.5,4.5c0,1.8,0,3.7,0,5.5c0.6,0.7,1.2,0.4,1.8,0.4c4.6,0,9.1,0,13.7,0
			c0.9,0,1.8,0,2.6,0.2c2.2,0.4,3.9,2.2,4.2,4.4c0.3,1.8,0.2,3.7-0.3,5.5c-1,4.1-2.9,7.8-5.6,11c-2.7,3-5.5,5.8-8.5,8.4
			c-0.9,0.8-1.8,1.6-2.6,2.5c-1.2,1.2-1.8,2.9-1.7,4.6c0.1,9.9,0.1,19.8,0,29.8c-0.1,12.4-8.7,23.2-20.8,26
			c-2.1,0.5-4.3,0.7-6.4,0.7c-5.5,0-11,0.1-16.6,0c-13.2,0-24.5-9.7-26.5-22.7c-0.3-1.7-0.4-3.5-0.3-5.3c0-9.1-0.2-18.2,0-27.3
			c0.1-2.7-1-5.2-3-7c-2.5-2.3-5-4.7-7.5-7c-3.2-3-5.7-6.7-7.3-10.8c-0.9-2.1-1.3-4.4-1.3-6.8c0.1-4.1,2.1-6.1,6.3-6.1
			c3.3,0,6.7,0,10.1,0L65.1,59.6z M83.9,71.5c-0.4-0.4-1-0.5-1.6-0.4c-6.1,0-12.2,0-18.2,0c-2.9,0-4.1,1.3-3.6,4.2
			c0.4,2.5,1.5,4.8,3.2,6.6c1.3,1.4,2.7,2.7,4.1,4c1.9,1.6,2.9,4.1,2.8,6.6c-0.1,5.5,0,11,0,16.5c0,5.4,0,10.7,0,16.1
			c-0.2,8.7,6.7,15.9,15.3,16.1c0.3,0,0.7,0,1,0c5.4-0.2,10.9,0,16.3-0.1c6.2-0.1,11.8-4,14.1-9.8c1.6-3.9,1.1-8,1-11.8
			C95.9,111.1,83.9,95.4,83.9,71.5z M112.5,106.6c2.8,0,5.1-2.3,5.1-5.1s-2.3-5.1-5.1-5.1c0,0,0,0,0,0c-2.8,0-5.1,2.3-5.1,5.1
			S109.6,106.6,112.5,106.6C112.5,106.6,112.5,106.6,112.5,106.6z M118.3,59.6c0-2.6,0.1-5,0-7.5c-0.1-1.9-1.5-3-3.6-3.1
			c-2.4-0.1-4.1,0.8-4.3,2.8c-0.3,2.6-0.3,5.2,0,7.8L118.3,59.6z M80.9,59.6c0.1-0.2,0.2-0.4,0.2-0.5c0-1.9,0.1-3.8,0.1-5.7
			c0-0.6-0.1-1.3-0.2-1.9c-0.5-1.8-2.1-2.8-4.3-2.6c-2,0.2-3.4,1.3-3.5,3.2c-0.1,2.5,0,4.9,0,7.5L80.9,59.6z"/>
		<path class="st2" d="M83.9,71.5c0,23.9,12,39.5,34.5,48c0,3.8,0.5,7.9-1,11.8c-2.3,5.8-7.9,9.7-14.1,9.8
			c-5.4,0.1-10.9-0.1-16.3,0.1c-8.7,0.4-16-6.4-16.3-15.1c0-0.3,0-0.7,0-1c0-5.4,0-10.7,0-16.1c0-5.5-0.1-11,0-16.5
			c0.2-2.5-0.9-4.9-2.8-6.6c-1.4-1.3-2.8-2.7-4.1-4c-1.7-1.8-2.9-4.1-3.2-6.6c-0.5-2.9,0.7-4.2,3.6-4.2c6.1,0,12.1,0,18.2,0
			C82.8,71,83.4,71.2,83.9,71.5z M85.9,101.6c0.1-2.8-2.2-5.2-5-5.2c-2.8-0.1-5.2,2.2-5.2,5c-0.1,2.8,2.2,5.2,5,5.2
			c2.8,0.1,5.1-2,5.2-4.8C85.8,101.7,85.9,101.6,85.9,101.6L85.9,101.6z"/>
		<path class="st2" d="M112.5,106.6c-2.8,0-5.1-2.3-5.1-5.1s2.3-5.1,5.1-5.1c0,0,0,0,0,0c2.8,0,5.1,2.3,5.1,5.1
			S115.3,106.6,112.5,106.6C112.5,106.6,112.5,106.6,112.5,106.6z"/>
		<path class="st2" d="M118.3,59.6h-7.9c-0.3-2.6-0.3-5.2,0-7.8c0.2-2,1.9-3,4.3-2.8c2.1,0.1,3.5,1.2,3.6,3.1
			C118.4,54.5,118.3,57,118.3,59.6z"/>
		<path class="st2" d="M80.9,59.6h-7.6c0-2.5-0.1-5,0-7.5c0.1-1.9,1.4-3.1,3.5-3.2c2.2-0.2,3.8,0.8,4.3,2.6c0.2,0.6,0.2,1.3,0.2,1.9
			c0,1.9,0,3.8-0.1,5.7C81.1,59.2,81,59.4,80.9,59.6z"/>
		<path class="st1" d="M85.8,101.6c0,2.8-2.4,5.1-5.2,5c-2.8,0-5.1-2.4-5-5.2c0-2.8,2.3-5,5.1-5c2.8,0,5,2.2,5.1,4.9
			C85.9,101.4,85.9,101.5,85.8,101.6z"/>
	</g>
</g>
</svg>
