<svg xmlns="http://www.w3.org/2000/svg" viewBox="0 0 558.9 190.63"><defs><style>.cls-1{fill:#c4baae;}.cls-2{fill:#fff;}.cls-3{fill:#f6eee4;}.cls-4{fill:#030202;}</style></defs><g id="Layer_2" data-name="Layer 2"><g id="Layer_1-2" data-name="Layer 1"><g id="Layer_2-2" data-name="Layer 2"><g id="Layer_1-2-2" data-name="Layer 1-2"><path class="cls-1" d="M0,97.63V93.35C.45,90.24.65,87.1.82,84c3-26.34,15.53-47.35,36-63.8A87.69,87.69,0,0,1,80,1.17c26.36-3.71,50.81,1.18,72.29,17.52C169.72,32,182,49,187.67,70.35a97.27,97.27,0,0,1,2.79,32.81c-1.16,15.1-5.33,29.25-13.55,42-14.49,22.49-34.38,37.9-60.86,43.17-37.71,7.51-69.47-3.43-94.49-32.87a88.52,88.52,0,0,1-20-43.21c-.3-1.74-.5-3.48-.74-5.23Zm180.25-2.5a61.53,61.53,0,0,0-1.07-15.5,81.52,81.52,0,0,0-9.55-26.19A91.54,91.54,0,0,0,147.42,28a79.58,79.58,0,0,0-28.15-14.48,70.93,70.93,0,0,0-18.58-3c-1.51,0-3-.5-4.51-.29a33.51,33.51,0,0,1-5.48.3,40.27,40.27,0,0,0-6.66.64,87.82,87.82,0,0,0-23.61,6.71,85.11,85.11,0,0,0-43.87,45.7,83.53,83.53,0,0,0-6,26.71,85.94,85.94,0,0,0,.8,17.19,82.31,82.31,0,0,0,6.42,22.72C24,144.06,33.64,155.28,45.7,164.34c14.38,10.8,30.86,15.66,48.73,16.07,2.71.06,5.4-.15,8.11-.36a83,83,0,0,0,10.17-1.34,78.9,78.9,0,0,0,23.72-8.7,89.34,89.34,0,0,0,29.06-26.28,77.29,77.29,0,0,0,10.85-21.53A75.18,75.18,0,0,0,180.25,95.13Z"/><path class="cls-2" d="M285.26,92.3a2.47,2.47,0,0,0,1.45.78,20,20,0,0,1,13.75,15.31c1.72,7.48.6,14.47-4.49,20.51a23.57,23.57,0,0,1-8.42,6.2,38.13,38.13,0,0,1-15.8,3.52c-14.22.11-28.44,0-42.66,0-.4,0-.79-.05-1.16-.08-.48-1.74-.6-83.91-.14-86.76a4.94,4.94,0,0,1,2.32-.2H268.7a38.59,38.59,0,0,1,19.57,4.76c12.54,7.19,12.08,21.74,6.3,29.18a19,19,0,0,1-7.23,5.77Zm-35.59,28.34a3.09,3.09,0,0,0,.79.22H268c11.27-.35,11.47-17.36.21-17.88H251.56c-.62,0-1.29-.17-1.86.37Zm0-34.59a8.93,8.93,0,0,0,1.14.16h15.58a13.22,13.22,0,0,0,3.07-.43,8,8,0,0,0,6.4-8.62c-.2-4.1-2.75-6.81-7.06-7.48a14.69,14.69,0,0,0-2.39-.16H251.32c-.53,0-1.13-.17-1.65.42Z"/><path class="cls-2" d="M509.69,72.48q6.73,19.08,13.4,38a1.35,1.35,0,0,0,1.74.82,1.33,1.33,0,0,0,.82-.82c2.22-5.83,3.94-11.76,5.82-17.64,2.16-6.76,4.27-13.53,6.42-20.36a1.37,1.37,0,0,1,1.3-1h18.37a1.34,1.34,0,0,1,1.34,1.36,1.25,1.25,0,0,1-.1.51q-13.29,35.48-26.59,70.93a39.77,39.77,0,0,1-5,9.53,23,23,0,0,1-16.72,9.63c-7.56.84-14.65-.51-20.95-5.05l-1.35-1-.94-.71,8.18-14.15a1.36,1.36,0,0,1,1.86-.49l.19.13c.23.19.44.4.67.56a11.58,11.58,0,0,0,5.75,2.2,8,8,0,0,0,8-4.11c.12-.2.21-.42.32-.62a7.85,7.85,0,0,0,.31-6.85q-11.79-28.56-23.4-57.22c-.5-1.24-1-2.48-1.51-3.72-.11-.29-.2-.69.06-.86a.73.73,0,0,1,.38-.08h20.29A1.36,1.36,0,0,1,509.69,72.48Z"/><path class="cls-2" d="M427.25,117.11l8.73,9.06a1.88,1.88,0,0,1,0,2.64h0a33.93,33.93,0,0,1-21.12,10.27A43.42,43.42,0,0,1,397.69,138a30.53,30.53,0,0,1-22.61-26.65c-.73-6.43-.54-12.8,1.57-19C380.93,80,389.82,73,402.76,71a40.08,40.08,0,0,1,15,.62A27.47,27.47,0,0,1,437,86.86c3.51,7,4.33,14.48,4.15,22.38a1.87,1.87,0,0,1-1.85,1.83c-1.92.05-3.79,0-5.66,0H404.16c-1.71,0-3.41-.06-5.22,0a1.89,1.89,0,0,0-1.85,1.93,1.85,1.85,0,0,0,.13.66,13.52,13.52,0,0,0,3.72,5.35c4.66,4.07,10,4.32,15.59,2.7a19.84,19.84,0,0,0,7.47-4.17l.66-.56A1.89,1.89,0,0,1,427.25,117.11Zm-9-18.29a1.9,1.9,0,0,0,1.9-1.9,1.09,1.09,0,0,0,0-.18,11.2,11.2,0,0,0-8.79-10.06c-8-1.75-13.35,4-14.82,9.83a1.87,1.87,0,0,0,1.38,2.26,1.41,1.41,0,0,0,.46,0Z"/><path class="cls-2" d="M357.74,117.06l8.74,9.12a1.86,1.86,0,0,1,0,2.54,31.61,31.61,0,0,1-10.33,7.4A40.82,40.82,0,0,1,337,139.38a36.79,36.79,0,0,1-11.46-2.2c-10.91-4.1-17.35-12.09-19.55-23.4a40.77,40.77,0,0,1,1.38-22C311.93,79.35,321,72.64,334,71a40.31,40.31,0,0,1,15,.87c8.71,2.15,14.91,7.39,18.8,15.42,3.51,7.26,4.21,15,3.85,22.93a3.64,3.64,0,0,1-.33.87H329.4a1.83,1.83,0,0,0-1.66,2.62c.15.31.31.61.45.91a14.18,14.18,0,0,0,14.08,8A20.9,20.9,0,0,0,355.18,117h0A1.83,1.83,0,0,1,357.74,117.06Zm-31.3-18.38c3.24.57,22.85.4,24.43-.18-.18-4.1-1.48-7.71-5-10.08a11.43,11.43,0,0,0-12-.8C329.35,89.86,327.4,93.94,326.44,98.68Z"/><path class="cls-2" d="M490.6,49.19c-.81,4.87-1.58,9.56-2.37,14.32a1.32,1.32,0,0,1-1.5,1.09l-.12,0c-1.24-.32-2.36-.61-3.48-.93-.22-.06-.44-.12-.66-.16a7.67,7.67,0,0,0-8.74,6.4,6.89,6.89,0,0,0-.09,1.28v2.09a1.31,1.31,0,0,0,1.3,1.29h11.3a1.31,1.31,0,0,1,1.3,1.14,85.11,85.11,0,0,1,.16,12.47,1.31,1.31,0,0,1-1.27,1.21c-3.75.09-7.55,0-11.53,0a1.32,1.32,0,0,0-1.28,1.31v46.51a1.31,1.31,0,0,1-1.31,1.3H453.65a1.3,1.3,0,0,1-1.3-1.3V90.75a1.32,1.32,0,0,0-1.21-1.3c-2.12-.19-4.16,0-6.21-.1A1.31,1.31,0,0,1,443.72,88V75.94A1.32,1.32,0,0,1,445,74.63c2.11-.15,4.16,0,6.17-.06a1.29,1.29,0,0,0,1.21-1.16,12.34,12.34,0,0,1,0-1.49,61.35,61.35,0,0,1,.27-7.42c1.44-9.5,7.35-15.86,16.68-18.14,6.88-1.67,13.56-.91,20.4,1.37A1.32,1.32,0,0,1,490.6,49.19Z"/><path class="cls-3" d="M180.25,95.13a75.19,75.19,0,0,1-3.92,27.07,77.29,77.29,0,0,1-10.85,21.53A89.41,89.41,0,0,1,136.42,170a78.9,78.9,0,0,1-23.72,8.7A83,83,0,0,1,102.53,180c-2.71.21-5.4.42-8.11.36-17.87-.41-34.35-5.27-48.73-16.07C33.63,155.28,24,144.06,17.77,130.2a82.31,82.31,0,0,1-6.42-22.72,85.94,85.94,0,0,1-.8-17.19,83.53,83.53,0,0,1,6-26.71A85.15,85.15,0,0,1,60.43,17.85,88.28,88.28,0,0,1,84,11.14a40.27,40.27,0,0,1,6.66-.64,33.51,33.51,0,0,0,5.48-.3c1.46-.21,3,.27,4.51.29a70.93,70.93,0,0,1,18.58,3A79.58,79.58,0,0,1,147.42,28a91.36,91.36,0,0,1,22.21,25.47,81.52,81.52,0,0,1,9.55,26.19A61.29,61.29,0,0,1,180.25,95.13ZM65.12,59.64H46.42c-4.21,0-6.18,2-6.3,6.14a16.71,16.71,0,0,0,1.28,6.77,29.57,29.57,0,0,0,7.29,10.86q3.75,3.54,7.55,7a8.71,8.71,0,0,1,3,7c-.15,9.11,0,18.23,0,27.35a30.85,30.85,0,0,0,.33,5.26,26.92,26.92,0,0,0,26.5,22.59c5.52.07,11,0,16.55,0a27.64,27.64,0,0,0,6.41-.73,26.88,26.88,0,0,0,20.85-26c.09-9.92.07-19.84,0-29.75a6.37,6.37,0,0,1,1.73-4.56c.81-.88,1.7-1.7,2.58-2.5a91.6,91.6,0,0,0,8.54-8.41,26.67,26.67,0,0,0,5.64-11,13.28,13.28,0,0,0,.29-5.47,5.15,5.15,0,0,0-4.16-4.39,11,11,0,0,0-2.62-.2H128.21c-.6,0-1.29.25-1.84-.43V53.72a18.58,18.58,0,0,0-.49-4.52c-1.39-5.13-6.18-8.45-12-8.36a11.62,11.62,0,0,0-11.28,8.71,18.71,18.71,0,0,0-.41,4.28A30.89,30.89,0,0,1,102,59.6H95.68a31.47,31.47,0,0,1-6.47-.21V52.08a10.7,10.7,0,0,0-3-7.39,12.44,12.44,0,0,0-13.88-3c-4.44,1.71-7.14,5.74-7.23,10.86C65.09,54.82,65.12,57.05,65.12,59.64Z"/><path class="cls-4" d="M65.12,59.64v-7c.09-5.12,2.79-9.15,7.23-10.86a12.44,12.44,0,0,1,13.88,3,10.7,10.7,0,0,1,3,7.39v7.31c2.21.45,4.35.15,6.47.21s4.13,0,6.32,0a30.81,30.81,0,0,0,.18-5.76,18.71,18.71,0,0,1,.41-4.28,11.62,11.62,0,0,1,11.28-8.71c5.84-.09,10.63,3.23,12,8.36a18.58,18.58,0,0,1,.49,4.52v5.45c.55.68,1.24.43,1.84.43h13.67a11,11,0,0,1,2.62.2,5.15,5.15,0,0,1,4.16,4.39,13.28,13.28,0,0,1-.29,5.47,26.67,26.67,0,0,1-5.64,11,91.6,91.6,0,0,1-8.54,8.41c-.88.8-1.77,1.62-2.58,2.5a6.37,6.37,0,0,0-1.73,4.56c.06,9.91.08,19.83,0,29.75A26.88,26.88,0,0,1,109,152a27.64,27.64,0,0,1-6.41.73c-5.52,0-11,.07-16.55,0A26.91,26.91,0,0,1,59.56,130a30.85,30.85,0,0,1-.33-5.26c0-9.12-.16-18.24,0-27.35a8.71,8.71,0,0,0-3-7q-3.79-3.51-7.55-7A29.6,29.6,0,0,1,41.4,72.55a16.71,16.71,0,0,1-1.28-6.77c.12-4.12,2.09-6.1,6.3-6.14h18.7ZM83.87,71.51a1.92,1.92,0,0,0-1.55-.39H64.1c-2.94,0-4.1,1.35-3.62,4.24a11.84,11.84,0,0,0,3.25,6.55c1.34,1.36,2.68,2.74,4.11,4a8,8,0,0,1,2.79,6.57c-.12,5.51,0,11,0,16.54v16.07A15.71,15.71,0,0,0,86,141.16c.33,0,.65,0,1,0,5.43-.2,10.86,0,16.3-.07a15.44,15.44,0,0,0,14.1-9.79c1.56-3.91,1.06-8,1-11.8C95.87,111.06,83.87,95.45,83.87,71.51Zm28.6,35.1a5.12,5.12,0,0,0,0-10.24h0a5.12,5.12,0,0,0,0,10.24Zm5.82-47c0-2.59.1-5,0-7.51-.1-1.94-1.47-3-3.57-3.13-2.42-.14-4.11.82-4.32,2.82a37.85,37.85,0,0,0,0,7.82Zm-37.41,0c.12-.23.25-.36.25-.5,0-1.9.09-3.81.09-5.71A7.73,7.73,0,0,0,81,51.49c-.49-1.82-2.07-2.75-4.28-2.57-2,.16-3.38,1.3-3.46,3.22-.11,2.45,0,4.9,0,7.45Z"/><path class="cls-3" d="M83.87,71.51c0,23.94,12,39.55,34.48,48,0,3.84.53,7.89-1,11.8a15.44,15.44,0,0,1-14.1,9.79c-5.44.08-10.87-.13-16.3.07a15.7,15.7,0,0,1-16.34-15c0-.34,0-.67,0-1V109c0-5.51-.08-11,0-16.54a8,8,0,0,0-2.79-6.57c-1.43-1.28-2.77-2.66-4.11-4a11.84,11.84,0,0,1-3.25-6.55c-.48-2.89.68-4.23,3.62-4.24H82.29A1.9,1.9,0,0,1,83.87,71.51Zm2,30.06a5.11,5.11,0,1,0-5.23,5,5,5,0,0,0,5.21-4.78v-.22Z"/><path class="cls-3" d="M112.47,106.61a5.12,5.12,0,0,1,0-10.24h0a5.12,5.12,0,0,1,0,10.24Z"/><path class="cls-3" d="M118.29,59.58h-7.9a37.85,37.85,0,0,1,0-7.82c.21-2,1.9-3,4.32-2.82,2.1.12,3.47,1.19,3.57,3.13C118.39,54.53,118.29,57,118.29,59.58Z"/><path class="cls-3" d="M80.88,59.59H73.23c0-2.55-.08-5,0-7.45.08-1.92,1.42-3.06,3.46-3.22,2.21-.18,3.79.75,4.28,2.57a7.57,7.57,0,0,1,.22,1.89c0,1.9,0,3.81-.09,5.71C81.13,59.23,81,59.36,80.88,59.59Z"/><path class="cls-4" d="M85.85,101.57a5.11,5.11,0,1,1-5.08-5.19,5,5,0,0,1,5.08,4.92Z"/></g></g></g></g></svg>