<svg width="400" height="400" viewBox="0 0 400 400" fill="none" xmlns="http://www.w3.org/2000/svg">
<g clip-path="url(#clip0_1701_14122)">
<path d="M400 200C400 310.457 310.457 400 200 400C89.5431 400 0 310.457 0 200C0 89.5431 89.5431 0 200 0C310.457 0 400 89.5431 400 200Z" fill="#1F267B"/>
<path fill-rule="evenodd" clip-rule="evenodd" d="M200.193 77.5238L193.784 88.6118C193.641 88.8602 193.497 89.1084 193.354 89.357L79.2126 286.821H321.174L200.193 77.5238ZM159.99 176.75L105.034 271.824C133.617 271.14 159.323 267.815 178.513 258.153C184.632 255.072 190.037 251.37 194.651 246.923C182.445 238.591 173.654 229.001 167.93 218.277C161.066 205.416 158.907 191.469 159.961 177.125C159.971 177 159.98 176.875 159.99 176.75ZM184.07 271.971H295.244C280.102 247.138 263.691 225.429 245.262 212.492C239.617 208.529 233.85 205.439 227.925 203.33C226.911 218.998 223.026 232.12 216.562 242.984C208.95 255.777 198.061 264.936 185.191 271.416C184.819 271.603 184.445 271.788 184.07 271.971ZM254.203 200.634L200.28 107.346C186.461 132.649 176.355 156.755 174.778 178.205C174.393 183.436 174.521 188.466 175.216 193.292C188.463 187.114 201.192 184.604 213.412 185.334C228.223 186.219 241.657 191.825 253.799 200.348C253.934 200.443 254.068 200.538 254.203 200.634ZM181.04 211.288C180.426 210.137 179.858 208.971 179.335 207.79C191.507 201.713 202.508 199.552 212.533 200.151C212.764 200.164 212.995 200.18 213.225 200.196C212.567 214.906 209.163 226.315 203.889 235.242C192.864 227.888 185.581 219.796 181.04 211.288Z" fill="#FAFAFA"/>
</g>
<defs>
<clipPath id="clip0_1701_14122">
<rect width="400" height="400" fill="white"/>
</clipPath>
</defs>
</svg>
