<svg width="20" height="20" viewBox="0 0 20 20" fill="none" xmlns="http://www.w3.org/2000/svg">
<rect width="20" height="20" rx="10" fill="#0D1143" style="fill:#0D1143;fill:color(display-p3 0.0510 0.0667 0.2627);fill-opacity:1;"/>
<path fill-rule="evenodd" clip-rule="evenodd" d="M10 3L9.62918 3.63573C9.62086 3.64997 9.61253 3.6642 9.60425 3.67845L3 15H17L10 3ZM7.6738 8.6891L4.49401 14.1402C6.14787 14.101 7.63519 13.9103 8.74555 13.3563C9.09957 13.1797 9.41231 12.9674 9.67934 12.7125C8.97307 12.2347 8.4644 11.6849 8.13324 11.0701C7.7361 10.3327 7.61115 9.53305 7.67216 8.7106C7.67269 8.70345 7.67324 8.69625 7.6738 8.6891ZM9.06707 14.1486H15.4997C14.6236 12.7247 13.674 11.4802 12.6076 10.7383C12.281 10.5111 11.9473 10.334 11.6045 10.213C11.5459 11.1114 11.3211 11.8637 10.9471 12.4867C10.5067 13.2201 9.87663 13.7452 9.13196 14.1167C9.11042 14.1275 9.08882 14.1381 9.06707 14.1486ZM13.125 10.0585L10.005 4.70985C9.20543 6.16059 8.62067 7.54267 8.52944 8.77255C8.50719 9.07245 8.51455 9.36085 8.55477 9.63755C9.32128 9.2833 10.0578 9.1394 10.7648 9.18125C11.6218 9.232 12.3991 9.5534 13.1016 10.0421C13.1094 10.0475 13.1172 10.053 13.125 10.0585ZM8.89178 10.6694C8.85626 10.6034 8.82336 10.5365 8.79313 10.4688C9.49743 10.1203 10.1339 9.99645 10.714 10.0307C10.7273 10.0315 10.7407 10.0325 10.754 10.0334C10.716 10.8767 10.519 11.5309 10.2138 12.0427C9.57595 11.621 9.15452 11.1572 8.89178 10.6694Z" fill="white" style="fill:white;fill-opacity:1;"/>
</svg>
