<svg width="20" height="20" viewBox="0 0 20 20" fill="none" xmlns="http://www.w3.org/2000/svg">
<rect width="20" height="20" rx="10" fill="white" style="fill:white;fill-opacity:1;"/>
<path d="M11.4417 14.6698C11.3609 14.6698 11.2559 14.6456 11.1267 14.5972C11.0136 14.5489 10.9571 14.4763 10.9571 14.3795C10.9571 14.2505 11.0136 14.1538 11.1267 14.0893C11.2559 14.0248 11.3852 13.9764 11.5144 13.9442C11.9505 13.8151 12.2332 13.6781 12.3624 13.533C12.4917 13.3717 12.4917 13.0976 12.3624 12.7106L11.9505 11.4044C11.9344 11.3238 11.894 11.2754 11.8294 11.2593C11.7809 11.2432 11.6678 11.2351 11.4902 11.2351H7.85559C7.75868 11.2351 7.67791 11.2593 7.61329 11.3077C7.56483 11.3399 7.51637 11.4125 7.46789 11.5254C7.27407 11.9446 7.14482 12.251 7.08022 12.4445C7.0156 12.638 6.98328 12.8315 6.98328 13.025C6.98328 13.3314 7.07214 13.541 7.24984 13.6539C7.42752 13.7668 7.63751 13.8635 7.87982 13.9442C8.00904 13.9925 8.13021 14.049 8.24329 14.1135C8.37251 14.1618 8.43711 14.2505 8.43711 14.3795C8.43711 14.4763 8.37251 14.5489 8.24329 14.5972C8.13021 14.6456 8.03327 14.6698 7.9525 14.6698C7.6456 14.6698 7.39521 14.6537 7.20136 14.6214C7.02368 14.6053 6.846 14.5892 6.6683 14.573C6.50676 14.5569 6.28868 14.5489 6.01408 14.5489C5.73947 14.5489 5.52139 14.5569 5.35986 14.573C5.21447 14.5892 5.06102 14.6053 4.89948 14.6214C4.73794 14.6537 4.49564 14.6698 4.17257 14.6698C4.0918 14.6698 3.9868 14.6456 3.85757 14.5972C3.7445 14.5489 3.68796 14.4763 3.68796 14.3795C3.68796 14.2505 3.7445 14.1618 3.85757 14.1135C3.9868 14.049 4.11603 14.0006 4.24526 13.9683C4.50372 13.9039 4.73794 13.8394 4.94794 13.7748C5.17409 13.6942 5.39216 13.5572 5.60216 13.3637C5.81216 13.154 6.01408 12.8235 6.20791 12.372L9.01866 5.88964C9.19634 5.48652 9.2771 5.19627 9.26096 5.01889C9.26096 4.82539 9.2771 4.71251 9.30942 4.68026C9.39018 4.59964 9.49518 4.49482 9.6244 4.36582C9.75363 4.23682 9.87479 4.10782 9.98787 3.97882C10.1171 3.83369 10.2059 3.73694 10.2544 3.68856C10.3513 3.57569 10.4321 3.50312 10.4967 3.47088C10.5613 3.4225 10.6098 3.39832 10.6421 3.39832C10.6906 3.39832 10.7228 3.41444 10.739 3.44669C10.7713 3.47894 10.7956 3.53538 10.8117 3.616L14.0828 12.0092C14.2443 12.4123 14.4382 12.8154 14.6643 13.2185C14.9066 13.6055 15.2701 13.8474 15.7547 13.9442C15.8839 13.9603 16.0051 14.0087 16.1182 14.0893C16.2474 14.1538 16.312 14.2505 16.312 14.3795C16.312 14.4763 16.2474 14.5489 16.1182 14.5972C16.0051 14.6456 15.9082 14.6698 15.8274 14.6698C15.3589 14.6698 14.9874 14.6456 14.7128 14.5972C14.4544 14.565 14.1151 14.5489 13.6951 14.5489C13.4205 14.5489 13.1701 14.5569 12.944 14.573C12.7178 14.5892 12.4917 14.6053 12.2655 14.6214C12.0394 14.6537 11.7648 14.6698 11.4417 14.6698ZM8.36443 10.3644H11.2721C11.4013 10.3644 11.474 10.3563 11.4902 10.3402C11.5063 10.3079 11.4982 10.2354 11.4659 10.1225C11.4175 9.96124 11.3286 9.71131 11.1994 9.37268C11.0702 9.01793 10.9248 8.64706 10.7632 8.26004C10.6017 7.85691 10.4483 7.47798 10.3029 7.12322C10.1736 6.76847 10.0686 6.49434 9.98787 6.30084C9.92325 6.12347 9.86671 6.03477 9.81825 6.03477C9.78594 6.03477 9.7294 6.12347 9.64863 6.30084C9.43864 6.80071 9.18019 7.41347 8.87326 8.1391C8.56636 8.86474 8.29174 9.52586 8.04944 10.1225C8.00098 10.2354 8.00098 10.3079 8.04944 10.3402C8.11404 10.3563 8.21906 10.3644 8.36443 10.3644Z" fill="black" style="fill:black;fill-opacity:1;"/>
</svg>
