<svg xmlns="http://www.w3.org/2000/svg" width="20" height="20" viewBox="0 0 780 780">
    <circle cx="390" cy="390" r="390" fill="#fff"/>
    <circle cx="389" cy="389" r="364"/>
    <path fill="#fff"
          d="M386.338 91.696c4.364.019 8.728.02 13.093.024q12.333.017 24.668.064c9.379.034 18.758.05 28.136.065q28.883.049 57.765.151c-1.096 5.23-2.315 10.314-4.044 15.38l-1.205 3.554-1.294 3.77-1.354 3.98a5593 5593 0 0 1-3.567 10.45c-1.422 4.158-2.837 8.317-4.253 12.476q-1.719 5.046-3.44 10.09a2003 2003 0 0 0-8.817 26.362c-1.918 5.83-1.918 5.83-3.026 6.938-3.015.242-6.008.418-9.03.547l-2.846.127c-10.118.419-20.236.507-30.362.556q-5.08.026-10.161.065-14.419.104-28.838.182-8.886.049-17.773.12-3.353.024-6.706.037c-15.326.06-29.794.666-44.596 5.053l-2.698.79c-18.4 5.54-35.846 13.594-50.99 25.523l-2.77 2.152C251.276 236.828 236.194 258.106 229 284l-.707 2.488c-6.939 28.904-.285 58.792 14.906 83.785 2.978 4.509 6.27 8.641 9.801 12.727l2.46 2.902C280.725 415.02 318.159 431.16 356 434c5.569.312 11.142.428 16.718.52 2.589.044 5.177.098 7.766.154 6.413.137 12.827.258 19.24.378q8.198.154 16.395.332c2.523.052 5.047.094 7.571.136 20.175.394 36.623 3.784 52.06 17.667 8.768 9.142 10.827 20.224 10.59 32.34-.531 10.351-5.376 19.025-12.34 26.473l-1.7 1.86c-16.239 15.922-39.699 14.3-60.73 14.343l-2.912.009q-7.638.022-15.275.028-6.231.007-12.462.041C324.523 528.584 269.025 520.933 222 487l-2.937-2.11C199.102 470.233 181.167 453.395 167 433l-1.525-2.192C148.246 405.65 136.375 377.018 131 347l-.68-3.574c-3.11-19.703-2.66-41.785.68-61.426l.358-2.194C140.644 224.966 174.87 173.142 220 141l2.156-1.539c49.433-34.902 104.534-48.07 164.182-47.765"/>
    <path fill="#fff"
          d="M426.671 265.226q3.263.035 6.524.062c17.105.156 33.9.88 50.805 3.712l3.542.584c2.65.478 5.27 1.012 7.896 1.604l2.815.627C548.504 283.535 593.934 311.594 625 353l1.297 1.703c32.178 42.392 46.338 97.664 39.516 150.36-3.351 23.471-10.47 46.11-21.813 66.937l-.972 1.818c-8.587 15.997-19.576 30.353-31.805 43.737-2.133 2.347-4.21 4.735-6.285 7.133-3.073 3.46-6.297 6.534-9.833 9.515-2.287 1.952-4.468 3.997-6.667 6.047-16.309 14.628-35.632 26.616-55.463 35.83a332 332 0 0 0-4.004 1.898C508.665 687.764 487.115 693.89 465 698l-3.715.71c-23.053 3.713-47.5 2.44-70.78 2.391q-5.386-.007-10.773-.008-10.119-.005-20.238-.021-11.554-.016-23.109-.022-23.692-.016-47.385-.05a147 147 0 0 1 4.781-17.7l.824-2.478q1.336-4.004 2.68-8.006.935-2.797 1.868-5.597 1.948-5.84 3.906-11.677 2.51-7.491 5.01-14.987a20061 20061 0 0 1 5.7-17.062q1.288-3.85 2.579-7.698l.773-2.315c1.764-5.25 1.764-5.25 2.879-7.48l1.959-.004q23.731-.056 47.463-.18a7144 7144 0 0 1 22.954-.087q10.02-.019 20.037-.084c3.527-.022 7.055-.038 10.582-.037 15.781 0 30.692-.58 46.005-4.608l3.287-.85c2.42-.657 4.78-1.4 7.15-2.212l2.578-.876c31.854-11.343 60.578-34.683 75.226-65.518C570.224 502.814 575.203 470.24 564 440c-14.027-32.654-39.49-57.627-72.478-71.005-21.262-8.055-42.37-11.056-65.033-11.225q-3.275-.026-6.548-.065-9.296-.104-18.59-.182c-30.135-.259-30.135-.259-42.527-1.418l-2.42-.224c-14.744-1.6-29.26-7.845-39.404-18.881-7.836-10.64-9.009-21.16-8-34 2.733-12.58 10.923-23.26 21.625-30.187 12.157-6.706 23.964-7.5 37.5-7.625l5.754-.09c17.596-.227 35.197-.076 52.792.128"/>
</svg>