<svg width="40" height="40" viewBox="0 0 40 40" fill="none" xmlns="http://www.w3.org/2000/svg">
    <rect width="40" height="40" rx="20" fill="url(#paint0_radial_8038_5215)"/>
    <path fill-rule="evenodd" clip-rule="evenodd" d="M22.9279 11.5779C22.7776 11.7355 22.6497 12.1149 22.5761 12.6216C22.3969 13.8543 22.5217 14.6188 23.0775 15.6949C23.4958 16.5046 23.5976 16.6882 23.786 16.9728C23.8932 17.1348 24.0299 17.3611 24.0895 17.4757C24.2959 17.8723 24.6268 18.4162 25.1838 19.2747C25.2993 19.4527 25.4772 19.7489 25.579 19.9327C25.6808 20.1166 25.7824 20.2996 25.8047 20.3395C25.8271 20.3793 25.9293 20.5231 26.0318 20.6589C26.2194 20.9074 26.4523 21.2629 26.5274 21.4154C26.5643 21.49 26.6918 21.7017 27.0027 22.2043C27.0642 22.3038 27.1323 22.4139 27.1539 22.4489C27.1755 22.4841 27.2653 22.616 27.3533 22.7421C27.4413 22.8683 27.5862 23.095 27.6754 23.2459C27.7645 23.3968 27.9276 23.6274 28.0378 23.7582C28.452 24.2498 28.5517 24.4986 28.4622 24.8178C28.4254 24.9487 28.1238 25.3099 28.0842 25.2704C28.0653 25.2516 28.0513 25.3133 28.0613 25.3709C28.0639 25.3858 28.0379 25.389 28.0034 25.3781C27.9634 25.3654 27.9337 25.3765 27.9214 25.4085C27.9108 25.4362 27.9173 25.4588 27.9359 25.4588C27.9545 25.4588 27.9606 25.4736 27.9493 25.4917C27.9382 25.5098 27.9003 25.5245 27.8653 25.5245C27.8301 25.5245 27.8014 25.5394 27.8014 25.5574C27.8014 25.5755 27.8384 25.5903 27.8836 25.5903C27.9347 25.5903 27.9658 25.6089 27.9658 25.6396C27.9658 25.678 28.0097 25.689 28.163 25.689C28.2726 25.689 28.3602 25.7036 28.3602 25.7218C28.3602 25.7399 28.389 25.7547 28.4241 25.7547C28.4592 25.7547 28.4965 25.7685 28.507 25.7855C28.5297 25.8222 28.7168 25.9186 28.768 25.92C28.8042 25.921 29.0177 26.1015 29.0177 26.1311C29.0177 26.1728 29.3044 26.4106 29.3558 26.4114C29.388 26.4118 29.4228 26.4343 29.4333 26.4615C29.4449 26.4919 29.4949 26.5108 29.5637 26.5108C29.625 26.5108 29.6753 26.5256 29.6753 26.5436C29.6753 26.5617 29.6957 26.5765 29.7208 26.5765C29.7458 26.5765 29.8087 26.5986 29.8605 26.6257C29.9704 26.6829 30.05 26.6903 30.0191 26.6402C30.0044 26.6163 30.0378 26.6125 30.124 26.6281C30.2846 26.6572 30.3039 26.6741 30.1821 26.679L30.0862 26.6829L30.1848 26.708C30.3335 26.7459 30.537 26.7461 30.5138 26.7084C30.5022 26.6898 30.5154 26.6842 30.5445 26.6954C30.5724 26.7061 30.5868 26.7287 30.5763 26.7457C30.5349 26.8127 31.2925 26.7729 31.4402 26.7003C31.722 26.5618 31.7022 26.2095 31.3843 25.7054C31.35 25.6511 31.3028 25.5752 31.2794 25.5366C31.2247 25.4465 30.9181 24.8253 30.8436 24.6534C30.7524 24.443 30.6247 24.1973 30.5789 24.1438C30.5557 24.1168 30.4191 23.8653 30.2754 23.5851C30.1316 23.3048 29.9551 22.9793 29.883 22.8618C29.811 22.7442 29.6625 22.478 29.553 22.27C29.3838 21.9489 29.1855 21.591 28.5419 20.4456C28.491 20.3552 28.4242 20.2442 28.3933 20.199C28.3624 20.1538 28.2221 19.8949 28.0814 19.6238C27.9408 19.3525 27.7736 19.0492 27.7099 18.9498C27.4339 18.5195 26.8121 17.4641 26.6841 17.2089C26.5372 16.9162 26.3563 16.6079 26.0752 16.172C25.982 16.0273 25.8423 15.7906 25.7646 15.646C25.6871 15.5013 25.5239 15.2129 25.4019 15.0049C25.28 14.7971 25.0473 14.3976 24.885 14.1173C24.7227 13.8371 24.5111 13.4821 24.4148 13.3284C24.3185 13.1747 24.1942 12.9701 24.1385 12.8737C24.0829 12.7772 24.0226 12.6737 24.0045 12.6436C23.9864 12.6134 23.8618 12.3964 23.7276 12.1614C23.354 11.507 23.1426 11.3528 22.9279 11.5779ZM16.8257 12.0017C16.5844 12.0904 15.8683 12.9712 15.8683 13.1794C15.8683 13.1873 15.6806 13.5459 15.4513 13.9762C15.222 14.4064 14.98 14.8841 14.9136 15.0379C14.8472 15.1915 14.7246 15.4282 14.6413 15.5638C14.3504 16.0372 14.041 16.7718 13.9781 17.1381C13.9677 17.1993 13.9469 17.2733 13.9319 17.3024C13.917 17.3316 13.9078 17.3887 13.9113 17.4294C13.9148 17.4701 13.9091 17.5033 13.8985 17.5033C13.8519 17.5033 13.902 18.1782 13.9529 18.2348C14.0332 18.3241 14.0603 18.3027 14.0058 18.1933C13.9354 18.0523 13.9633 18.0151 14.0671 18.1113C14.1159 18.1566 14.177 18.1937 14.2027 18.1937C14.2284 18.1937 14.2678 18.2159 14.2903 18.243C14.3252 18.2851 14.3161 18.2923 14.2286 18.2923C14.1721 18.2923 14.1259 18.3071 14.1259 18.3252C14.1259 18.3433 14.1537 18.3581 14.1876 18.3581C14.2216 18.3581 14.2678 18.3803 14.2903 18.4074C14.3496 18.4789 14.6444 18.4734 14.7281 18.3992C14.7912 18.3432 14.7919 18.3437 14.7527 18.4184C14.7103 18.4991 14.7351 18.5677 14.7802 18.4947C14.7947 18.4714 14.8302 18.4489 14.8591 18.4446C14.8881 18.4404 14.9446 18.408 14.9847 18.3729C15.0291 18.3339 15.0468 18.3281 15.0297 18.3581C15.0143 18.3852 15.0646 18.3451 15.1415 18.2691C15.2185 18.1931 15.3099 18.1219 15.3447 18.1108C15.3795 18.0997 15.408 18.0748 15.408 18.0555C15.408 18.0362 15.4432 17.9878 15.4864 17.9478C15.5295 17.9079 15.6203 17.7953 15.6882 17.6975C15.9351 17.3424 16.0488 17.1879 16.1818 17.0267C16.2564 16.9363 16.3889 16.7544 16.4763 16.6225C16.8391 16.0746 17.1862 16.0127 17.5628 16.4289C17.6614 16.5378 17.7421 16.6398 17.7421 16.6556C17.7421 16.6713 17.7703 16.7243 17.8048 16.7733C17.9462 16.9741 18.4499 17.7635 18.5538 17.9472C18.7146 18.2314 18.7219 18.2432 18.9566 18.6046C19.1476 18.8986 19.3267 19.156 19.419 19.269C19.4369 19.2908 19.4515 19.3162 19.4515 19.3256C19.4515 19.3419 19.8356 19.9143 19.9414 20.0555C19.9702 20.0941 20.0161 20.1587 20.0432 20.1991C20.0703 20.2395 20.133 20.3263 20.1824 20.392C20.2318 20.4576 20.3299 20.5927 20.4005 20.6921C20.4709 20.7916 20.5658 20.9127 20.6113 20.9614C20.6567 21.0101 20.7342 21.1321 20.7834 21.2326C20.8326 21.3331 20.8883 21.4154 20.9073 21.4154C20.9262 21.4154 20.9325 21.4245 20.9213 21.4358C20.8984 21.4587 21.0336 21.6504 21.1617 21.7769C21.2075 21.8222 21.2789 21.9035 21.3204 21.9577C21.362 22.012 21.3846 22.0342 21.3707 22.0071C21.3485 21.9637 21.3527 21.9635 21.4045 22.0057C21.4369 22.032 21.4854 22.0567 21.5123 22.0607C21.5391 22.0646 21.5895 22.0935 21.624 22.1247C21.6587 22.1561 21.6869 22.1651 21.6869 22.1447C21.6869 22.1011 21.7783 22.1283 21.8562 22.195C21.8928 22.2263 21.9175 22.2301 21.9321 22.2064C21.9724 22.1412 22.1143 22.1652 22.1143 22.2372C22.1143 22.279 22.1362 22.303 22.1742 22.303C22.2072 22.303 22.2691 22.3399 22.3115 22.3851C22.354 22.4303 22.4058 22.4673 22.4266 22.4673C22.4474 22.4673 22.4992 22.5043 22.5416 22.5495C22.6003 22.6119 22.6522 22.6317 22.757 22.6317C22.8422 22.6317 22.9115 22.6513 22.9378 22.6831C22.9764 22.7296 22.9834 22.7293 23.0106 22.6806C23.0382 22.6312 23.0457 22.6315 23.1034 22.6837C23.138 22.715 23.1667 22.7271 23.1673 22.7107C23.1679 22.6944 23.1901 22.7097 23.2165 22.7448C23.2633 22.8065 23.2648 22.806 23.2653 22.7283C23.2657 22.6645 23.2723 22.6582 23.2977 22.6975C23.326 22.7413 23.3297 22.7413 23.3306 22.6975C23.3315 22.6536 23.3351 22.6536 23.3637 22.6975C23.3882 22.7352 23.3941 22.7255 23.3888 22.6564C23.385 22.6066 23.3736 22.5659 23.3633 22.5659C23.353 22.5659 23.3425 22.5385 23.34 22.5051C23.328 22.3459 23.1499 21.895 23.0596 21.7954C23.0278 21.7604 23.0019 21.7219 23.0019 21.71C23.0019 21.6981 22.9726 21.6528 22.9367 21.6094C22.8357 21.4868 22.8218 21.4655 22.8102 21.4144C22.8042 21.3881 22.7877 21.3591 22.7735 21.3499C22.7593 21.3407 22.6706 21.1483 22.5765 20.9223C22.3332 20.3381 22.1386 19.9494 21.6873 19.1471C21.6009 18.9934 21.4593 18.7271 21.3728 18.5553C21.2862 18.3836 21.1334 18.1173 21.0334 17.9636C20.9334 17.8099 20.7443 17.4697 20.6132 17.2075C20.3368 16.655 20.172 16.3506 19.8677 15.8308C19.7473 15.625 19.6488 15.45 19.6488 15.4418C19.6488 15.4337 19.5989 15.3506 19.538 15.2571C19.3919 15.0326 19.1885 14.6788 19.1885 14.649C19.1885 14.6116 18.7621 13.8698 18.5428 13.5256C18.4333 13.3538 18.2516 13.0321 18.1389 12.8106C17.7713 12.0879 17.3303 11.8164 16.8257 12.0017ZM23.364 22.8236C23.3655 22.8886 23.4283 22.9411 23.4292 22.8782C23.4301 22.8227 23.4357 22.8202 23.4651 22.8618C23.4924 22.9004 23.4973 22.9009 23.4874 22.8646C23.4751 22.8188 23.363 22.7815 23.364 22.8236Z" fill="white"/>
    <path fill-rule="evenodd" clip-rule="evenodd" d="M22.8999 11.43C22.5542 11.7751 22.3913 12.5165 22.4193 13.6179C22.4478 14.7428 22.5946 15.1698 23.4727 16.6815C24.0913 17.7467 24.878 19.0799 25.1105 19.4572C25.5478 20.1667 25.9003 20.7685 26.1011 21.1484C26.2099 21.3541 26.4558 21.7859 26.6474 22.1079C27.0455 22.7763 27.4109 23.3959 27.6625 23.829C28.174 24.7091 28.0592 24.8178 26.618 24.8178H25.6482L25.4651 24.7319C25.2087 24.6117 24.9065 24.1874 24.2267 22.9933C24.1186 22.8034 23.8818 22.4033 23.7006 22.104C23.5194 21.8048 23.1932 21.2427 22.9757 20.8549C22.7581 20.4671 22.4141 19.876 22.2111 19.5416C21.8366 18.9245 21.5989 18.5212 21.1535 17.7481C21.0175 17.512 20.8072 17.1585 20.686 16.9626C20.5649 16.7666 20.3436 16.3902 20.1943 16.1261C19.8674 15.5482 19.0051 14.0635 18.8311 13.779C18.7624 13.6667 18.6058 13.3974 18.4831 13.1805C17.8953 12.1416 17.5713 11.8158 17.1267 11.8165C16.7327 11.8172 16.4185 12.0562 16.1148 12.5864C15.9471 12.8792 15.8442 13.0492 15.2341 14.0416C15.043 14.3524 14.6926 14.9441 14.4555 15.3565C14.2183 15.7688 13.9017 16.3133 13.7519 16.5665C13.602 16.8196 13.3535 17.2412 13.1997 17.5033C13.0458 17.7656 12.7946 18.1871 12.6414 18.4403C12.4882 18.6934 12.2762 19.0633 12.1704 19.2621C12.0646 19.461 11.9089 19.7347 11.8246 19.8703C11.7403 20.0059 11.5869 20.2696 11.4838 20.4564C11.3807 20.6431 11.1615 21.0117 10.9968 21.2754C10.8321 21.5392 10.5985 21.9264 10.4778 22.1358C10.3571 22.3453 10.0882 22.8125 9.8802 23.1741C9.67218 23.5357 9.40575 23.9943 9.28817 24.1932C7.9767 26.4112 7.97068 26.426 8.19446 26.8744C8.32376 27.1335 8.55958 27.3127 8.90242 27.4124C9.11951 27.4755 19.5809 27.5158 19.8937 27.4548C21.1026 27.2187 18.8471 25.2468 16.986 24.9124C16.7229 24.8652 16.3519 24.8533 14.6355 24.8369C12.3855 24.8154 12.412 24.818 12.3036 24.6083C12.2107 24.4287 12.272 24.2317 12.5718 23.7468C12.6435 23.6307 12.8475 23.2842 13.0252 22.9769C13.2028 22.6695 13.4402 22.2627 13.5526 22.0728C13.6651 21.883 13.8424 21.5723 13.9467 21.3825C14.051 21.1926 14.1936 20.9524 14.2636 20.8486C14.406 20.6377 15.1294 19.4206 15.3238 19.0649C15.3931 18.9383 15.5642 18.6424 15.7042 18.4074C15.8442 18.1724 16.1295 17.6906 16.3382 17.337C16.9523 16.2963 17.1767 16.2047 17.5717 16.8335C17.9773 17.479 18.5203 18.387 18.9708 19.1729C19.2482 19.6568 19.5965 20.2509 19.7451 20.4932C19.8936 20.7355 20.1111 21.1097 20.2283 21.3246C20.3456 21.5396 20.5785 21.9402 20.7459 22.2147C20.9134 22.4892 21.1514 22.8988 21.2749 23.1248C21.3985 23.3508 21.6359 23.7576 21.8025 24.0288C21.9691 24.3 22.1838 24.6624 22.2797 24.8342C22.3755 25.006 22.4937 25.2057 22.5423 25.278C22.5909 25.3503 22.6947 25.5278 22.773 25.6725C23.4076 26.8459 23.7452 27.26 24.1853 27.4045C24.4319 27.4854 30.8538 27.5063 31.2532 27.4274C31.8274 27.3141 32.1562 26.8465 32.0435 26.3037C31.9943 26.0666 31.8301 25.7496 31.2485 24.7685C30.9859 24.3255 30.6922 23.8225 30.5959 23.6507C30.4995 23.479 30.3321 23.1906 30.224 23.0097C30.1159 22.8289 29.9064 22.4739 29.7585 22.2208C28.9477 20.8327 28.418 19.9297 28.1482 19.4758C27.9816 19.1955 27.7864 18.8627 27.7143 18.7362C27.3839 18.1551 26.9536 17.4275 26.7789 17.1542C26.6735 16.9894 26.4809 16.6565 26.3509 16.4146C26.2209 16.1727 26.0311 15.8416 25.9292 15.6789C25.8272 15.5162 25.6938 15.2942 25.6328 15.1858C25.5255 14.9953 24.4339 13.1387 23.8359 12.1297C23.3618 11.3299 23.155 11.1752 22.8999 11.43ZM23.3564 11.6108C23.4264 11.6786 23.5935 11.9264 23.7276 12.1614C23.8618 12.3964 23.9864 12.6134 24.0045 12.6436C24.0226 12.6737 24.0829 12.7772 24.1385 12.8737C24.1942 12.9701 24.3185 13.1747 24.4148 13.3284C24.5111 13.4821 24.7227 13.8371 24.885 14.1173C25.0473 14.3976 25.28 14.7971 25.4019 15.0049C25.5239 15.2129 25.6871 15.5013 25.7646 15.646C25.8423 15.7906 25.982 16.0273 26.0752 16.172C26.3563 16.6079 26.5372 16.9162 26.6841 17.2089C26.8121 17.4641 27.4339 18.5195 27.7099 18.9498C27.7736 19.0492 27.9408 19.3525 28.0814 19.6238C28.2221 19.8949 28.3624 20.1538 28.3933 20.199C28.4242 20.2442 28.491 20.3552 28.5419 20.4456C29.1855 21.591 29.3838 21.9489 29.553 22.27C29.6625 22.478 29.811 22.7442 29.883 22.8618C29.9551 22.9793 30.1316 23.3048 30.2754 23.5851C30.4191 23.8653 30.5557 24.1168 30.5789 24.1438C30.6247 24.1973 30.7524 24.443 30.8436 24.6534C30.9181 24.8253 31.2247 25.4465 31.2794 25.5366C31.3028 25.5752 31.35 25.6511 31.3843 25.7054C31.7022 26.2095 31.722 26.5618 31.4402 26.7003C31.2925 26.7729 30.5349 26.8127 30.5763 26.7457C30.5868 26.7287 30.5724 26.7061 30.5445 26.6954C30.5154 26.6842 30.5022 26.6898 30.5138 26.7084C30.537 26.7461 30.3335 26.7459 30.1848 26.708L30.0862 26.6829L30.1821 26.679C30.3039 26.6741 30.2846 26.6572 30.124 26.6281C30.0378 26.6125 30.0044 26.6163 30.0191 26.6402C30.05 26.6903 29.9704 26.6829 29.8605 26.6257C29.8087 26.5986 29.7458 26.5765 29.7208 26.5765C29.6957 26.5765 29.6753 26.5617 29.6753 26.5436C29.6753 26.5256 29.625 26.5108 29.5637 26.5108C29.4949 26.5108 29.4449 26.4919 29.4333 26.4615C29.4228 26.4343 29.388 26.4118 29.3558 26.4114C29.3044 26.4106 29.0177 26.1728 29.0177 26.1311C29.0177 26.1015 28.8042 25.921 28.768 25.92C28.7168 25.9186 28.5297 25.8222 28.507 25.7855C28.4965 25.7685 28.4592 25.7547 28.4241 25.7547C28.389 25.7547 28.3602 25.7399 28.3602 25.7218C28.3602 25.7036 28.2726 25.689 28.163 25.689C28.0097 25.689 27.9658 25.678 27.9658 25.6396C27.9658 25.6089 27.9347 25.5903 27.8836 25.5903C27.8384 25.5903 27.8014 25.5755 27.8014 25.5574C27.8014 25.5394 27.8301 25.5245 27.8653 25.5245C27.9003 25.5245 27.9382 25.5098 27.9493 25.4917C27.9606 25.4736 27.9545 25.4588 27.9359 25.4588C27.9173 25.4588 27.9108 25.4362 27.9214 25.4085C27.9337 25.3765 27.9634 25.3654 28.0034 25.3781C28.0379 25.389 28.0639 25.3858 28.0613 25.3709C28.0513 25.3133 28.0653 25.2516 28.0842 25.2704C28.1238 25.3099 28.4254 24.9487 28.4622 24.8178C28.5517 24.4986 28.452 24.2498 28.0378 23.7582C27.9276 23.6274 27.7645 23.3968 27.6754 23.2459C27.5862 23.095 27.4413 22.8683 27.3533 22.7421C27.2653 22.616 27.1755 22.4841 27.1539 22.4489C27.1323 22.4139 27.0642 22.3038 27.0027 22.2043C26.6918 21.7017 26.5643 21.49 26.5274 21.4154C26.4523 21.2629 26.2194 20.9074 26.0318 20.6589C25.9293 20.5231 25.8271 20.3793 25.8047 20.3395C25.7824 20.2996 25.6808 20.1166 25.579 19.9327C25.4772 19.7489 25.2993 19.4527 25.1838 19.2747C24.6268 18.4162 24.2959 17.8723 24.0895 17.4757C24.0299 17.3611 23.8932 17.1348 23.786 16.9728C23.3483 16.3119 22.8036 15.1964 22.6392 14.6245C22.5141 14.1892 22.4674 13.5192 22.5259 12.9997C22.6701 11.7199 22.9632 11.2298 23.3564 11.6108ZM17.5279 12.0642C17.7833 12.2139 17.9209 12.3819 18.1389 12.8106C18.2516 13.0321 18.4333 13.3538 18.5428 13.5256C18.7621 13.8698 19.1885 14.6116 19.1885 14.649C19.1885 14.6788 19.3919 15.0326 19.538 15.2571C19.5989 15.3506 19.6488 15.4337 19.6488 15.4418C19.6488 15.45 19.7473 15.625 19.8677 15.8308C20.172 16.3506 20.3368 16.655 20.6132 17.2075C20.7443 17.4697 20.9334 17.8099 21.0334 17.9636C21.1334 18.1173 21.2862 18.3836 21.3728 18.5553C21.4593 18.7271 21.6009 18.9934 21.6873 19.1471C22.1386 19.9494 22.3332 20.3381 22.5765 20.9223C22.6706 21.1483 22.7593 21.3407 22.7735 21.3499C22.7877 21.3591 22.8042 21.3881 22.8102 21.4144C22.8218 21.4655 22.8357 21.4868 22.9367 21.6094C22.9726 21.6528 23.0019 21.6981 23.0019 21.71C23.0019 21.7219 23.0278 21.7604 23.0596 21.7954C23.1499 21.895 23.328 22.3459 23.34 22.5051C23.3425 22.5385 23.353 22.5659 23.3633 22.5659C23.3736 22.5659 23.385 22.6066 23.3888 22.6564C23.3941 22.7255 23.3882 22.7352 23.3637 22.6975C23.3351 22.6536 23.3315 22.6536 23.3306 22.6975C23.3297 22.7413 23.326 22.7413 23.2977 22.6975C23.2723 22.6582 23.2657 22.6645 23.2653 22.7283C23.2648 22.806 23.2633 22.8065 23.2165 22.7448C23.1901 22.7097 23.1679 22.6944 23.1673 22.7107C23.1667 22.7271 23.138 22.715 23.1034 22.6837C23.0457 22.6315 23.0382 22.6312 23.0106 22.6806C22.9834 22.7293 22.9764 22.7296 22.9378 22.6831C22.9115 22.6513 22.8422 22.6317 22.757 22.6317C22.6522 22.6317 22.6003 22.6119 22.5416 22.5495C22.4992 22.5043 22.4474 22.4673 22.4266 22.4673C22.4058 22.4673 22.354 22.4303 22.3115 22.3851C22.2691 22.3399 22.2072 22.303 22.1742 22.303C22.1362 22.303 22.1143 22.279 22.1143 22.2372C22.1143 22.1652 21.9724 22.1412 21.9321 22.2064C21.9175 22.2301 21.8928 22.2263 21.8562 22.195C21.7783 22.1283 21.6869 22.1011 21.6869 22.1447C21.6869 22.1651 21.6587 22.1561 21.624 22.1247C21.5895 22.0935 21.5391 22.0646 21.5123 22.0607C21.4854 22.0567 21.4369 22.032 21.4045 22.0057C21.3527 21.9635 21.3485 21.9637 21.3707 22.0071C21.3846 22.0342 21.362 22.012 21.3204 21.9577C21.2789 21.9035 21.2075 21.8222 21.1617 21.7769C21.0336 21.6504 20.8984 21.4587 20.9213 21.4358C20.9325 21.4245 20.9262 21.4154 20.9073 21.4154C20.8883 21.4154 20.8326 21.3331 20.7834 21.2326C20.7342 21.1321 20.6567 21.0101 20.6113 20.9614C20.5658 20.9127 20.4709 20.7916 20.4005 20.6921C20.3299 20.5927 20.2318 20.4576 20.1824 20.392C20.133 20.3263 20.0703 20.2395 20.0432 20.1991C20.0161 20.1587 19.9702 20.0941 19.9414 20.0555C19.8356 19.9143 19.4515 19.3419 19.4515 19.3256C19.4515 19.3162 19.4369 19.2908 19.419 19.269C19.3267 19.156 19.1476 18.8986 18.9566 18.6046C18.7219 18.2432 18.7146 18.2314 18.5538 17.9472C18.4499 17.7635 17.9462 16.9741 17.8048 16.7733C17.7703 16.7243 17.7421 16.6713 17.7421 16.6556C17.7421 16.6398 17.6614 16.5378 17.5628 16.4289C17.1862 16.0127 16.8391 16.0746 16.4763 16.6225C16.3889 16.7544 16.2564 16.9363 16.1818 17.0267C16.0488 17.1879 15.9351 17.3424 15.6882 17.6975C15.6203 17.7953 15.5295 17.9079 15.4864 17.9478C15.4432 17.9878 15.408 18.0362 15.408 18.0555C15.408 18.0748 15.3795 18.0997 15.3447 18.1108C15.3099 18.1219 15.2185 18.1931 15.1415 18.2691C15.0646 18.3451 15.0143 18.3852 15.0297 18.3581C15.0468 18.3281 15.0291 18.3339 14.9847 18.3729C14.9446 18.408 14.8881 18.4404 14.8591 18.4446C14.8302 18.4489 14.7947 18.4714 14.7802 18.4947C14.7351 18.5677 14.7103 18.4991 14.7527 18.4184C14.7919 18.3437 14.7912 18.3432 14.7281 18.3992C14.6444 18.4734 14.3496 18.4789 14.2903 18.4074C14.2678 18.3803 14.2216 18.3581 14.1876 18.3581C14.1537 18.3581 14.1259 18.3433 14.1259 18.3252C14.1259 18.3071 14.1721 18.2923 14.2286 18.2923C14.3161 18.2923 14.3252 18.2851 14.2903 18.243C14.2678 18.2159 14.2284 18.1937 14.2027 18.1937C14.177 18.1937 14.1159 18.1566 14.0671 18.1113C13.9633 18.0151 13.9354 18.0523 14.0058 18.1933C14.0603 18.3027 14.0332 18.3241 13.9529 18.2348C13.902 18.1782 13.8519 17.5033 13.8985 17.5033C13.9091 17.5033 13.9148 17.4701 13.9113 17.4294C13.9078 17.3887 13.917 17.3316 13.9319 17.3024C13.9469 17.2733 13.9677 17.1993 13.9781 17.1381C14.041 16.7718 14.3504 16.0372 14.6413 15.5638C14.7246 15.4282 14.8472 15.1915 14.9136 15.0379C14.98 14.8841 15.222 14.4064 15.4513 13.9762C15.6806 13.5459 15.8683 13.1873 15.8683 13.1794C15.8683 13.1042 16.3411 12.3953 16.4917 12.2447C16.8071 11.9293 17.1853 11.8635 17.5279 12.0642ZM23.4874 22.8646C23.4973 22.9009 23.4924 22.9004 23.4651 22.8618C23.4357 22.8202 23.4301 22.8227 23.4292 22.8782C23.4283 22.9411 23.3655 22.8886 23.364 22.8236C23.363 22.7815 23.4751 22.8188 23.4874 22.8646Z" fill="white"/>
    <path d="M23.786 16.9728C23.5976 16.6882 23.4958 16.5046 23.0775 15.6949C22.5217 14.6188 22.3969 13.8543 22.5761 12.6216C22.6497 12.1149 22.7776 11.7355 22.9279 11.5779C23.1426 11.3528 23.354 11.507 23.7276 12.1614M23.786 16.9728C23.8932 17.1348 24.0299 17.3611 24.0895 17.4757C24.2959 17.8723 24.6268 18.4162 25.1838 19.2747C25.2993 19.4527 25.4772 19.7489 25.579 19.9327C25.6808 20.1166 25.7824 20.2996 25.8047 20.3395C25.8271 20.3793 25.9293 20.5231 26.0318 20.6589C26.2194 20.9074 26.4523 21.2629 26.5274 21.4154C26.5643 21.49 26.6918 21.7017 27.0027 22.2043C27.0642 22.3038 27.1323 22.4139 27.1539 22.4489C27.1755 22.4841 27.2653 22.616 27.3533 22.7421C27.4413 22.8683 27.5862 23.095 27.6754 23.2459C27.7645 23.3968 27.9276 23.6274 28.0378 23.7582C28.452 24.2498 28.5517 24.4986 28.4622 24.8178C28.4254 24.9487 28.1238 25.3099 28.0842 25.2704C28.0654 25.2516 28.0513 25.3133 28.0613 25.3709C28.0639 25.3858 28.0379 25.389 28.0034 25.3781C27.9634 25.3654 27.9337 25.3765 27.9214 25.4085C27.9108 25.4362 27.9173 25.4588 27.9359 25.4588C27.9545 25.4588 27.9606 25.4736 27.9493 25.4917C27.9382 25.5098 27.9003 25.5245 27.8653 25.5245C27.8301 25.5245 27.8014 25.5394 27.8014 25.5574C27.8014 25.5755 27.8384 25.5903 27.8836 25.5903C27.9347 25.5903 27.9658 25.6089 27.9658 25.6396C27.9658 25.678 28.0097 25.689 28.163 25.689C28.2726 25.689 28.3602 25.7036 28.3602 25.7218C28.3602 25.7399 28.389 25.7547 28.4241 25.7547C28.4592 25.7547 28.4965 25.7685 28.507 25.7855C28.5297 25.8222 28.7168 25.9186 28.768 25.92C28.8042 25.921 29.0177 26.1015 29.0177 26.1311C29.0177 26.1728 29.3044 26.4106 29.3558 26.4114C29.388 26.4118 29.4228 26.4343 29.4333 26.4615C29.4449 26.4919 29.4949 26.5108 29.5637 26.5108C29.625 26.5108 29.6753 26.5256 29.6753 26.5436C29.6753 26.5617 29.6957 26.5765 29.7208 26.5765C29.7458 26.5765 29.8087 26.5986 29.8605 26.6257C29.9704 26.6829 30.05 26.6903 30.0191 26.6402C30.0044 26.6163 30.0378 26.6125 30.124 26.6281C30.2846 26.6572 30.3039 26.6741 30.1821 26.679L30.0862 26.6829L30.1848 26.708C30.3335 26.7459 30.537 26.7461 30.5138 26.7084C30.5022 26.6898 30.5154 26.6842 30.5445 26.6954C30.5724 26.7061 30.5868 26.7287 30.5763 26.7457C30.5349 26.8127 31.2925 26.7729 31.4402 26.7003C31.722 26.5618 31.7022 26.2095 31.3843 25.7054C31.35 25.6511 31.3028 25.5752 31.2794 25.5366C31.2247 25.4465 30.9181 24.8253 30.8436 24.6534C30.7524 24.443 30.6247 24.1973 30.5789 24.1438C30.5557 24.1168 30.4191 23.8653 30.2754 23.5851C30.1316 23.3048 29.9551 22.9793 29.883 22.8618C29.811 22.7442 29.6625 22.478 29.553 22.27C29.3838 21.9489 29.1855 21.591 28.5419 20.4456C28.491 20.3552 28.4242 20.2442 28.3933 20.199C28.3624 20.1538 28.2221 19.8949 28.0814 19.6238C27.9408 19.3525 27.7736 19.0492 27.7099 18.9498C27.4339 18.5195 26.8121 17.4641 26.6841 17.2089C26.5372 16.9162 26.3563 16.6079 26.0752 16.172C25.982 16.0274 25.8423 15.7906 25.7646 15.646C25.6871 15.5013 25.5239 15.2129 25.4019 15.0049C25.28 14.7971 25.0473 14.3976 24.885 14.1173C24.7227 13.8371 24.5111 13.4821 24.4148 13.3284C24.3185 13.1747 24.1942 12.9701 24.1385 12.8737C24.0829 12.7772 24.0226 12.6737 24.0045 12.6436C23.9864 12.6134 23.8618 12.3964 23.7276 12.1614M23.786 16.9728C23.3483 16.3119 22.8036 15.1964 22.6392 14.6245C22.5141 14.1892 22.4674 13.5192 22.5259 12.9997C22.6701 11.7199 22.9632 11.2298 23.3564 11.6108C23.4264 11.6786 23.5935 11.9264 23.7276 12.1614M15.8683 13.1794C15.8683 12.9712 16.5844 12.0904 16.8257 12.0017C17.3303 11.8164 17.7713 12.0879 18.1389 12.8106M15.8683 13.1794C15.8683 13.1873 15.6806 13.5459 15.4513 13.9762C15.222 14.4064 14.98 14.8841 14.9136 15.0379C14.8472 15.1915 14.7246 15.4282 14.6413 15.5638C14.3504 16.0372 14.041 16.7718 13.9781 17.1381C13.9677 17.1993 13.9469 17.2733 13.9319 17.3024C13.917 17.3316 13.9078 17.3887 13.9113 17.4294C13.9148 17.4701 13.9091 17.5033 13.8985 17.5033C13.8519 17.5033 13.902 18.1782 13.9529 18.2348C14.0332 18.3241 14.0603 18.3027 14.0058 18.1933C13.9354 18.0523 13.9633 18.0151 14.0671 18.1113C14.1159 18.1566 14.177 18.1937 14.2027 18.1937C14.2284 18.1937 14.2678 18.2159 14.2903 18.243C14.3252 18.2851 14.3161 18.2923 14.2286 18.2923C14.1721 18.2923 14.1259 18.3071 14.1259 18.3252C14.1259 18.3433 14.1537 18.3581 14.1876 18.3581C14.2216 18.3581 14.2678 18.3803 14.2903 18.4074C14.3496 18.4789 14.6444 18.4734 14.7281 18.3992C14.7912 18.3432 14.7919 18.3437 14.7527 18.4184C14.7103 18.4991 14.7351 18.5677 14.7802 18.4947C14.7947 18.4714 14.8302 18.4489 14.8591 18.4446C14.8881 18.4404 14.9446 18.408 14.9847 18.3729C15.0291 18.3339 15.0468 18.3281 15.0297 18.3581C15.0143 18.3852 15.0646 18.3451 15.1415 18.2691C15.2185 18.1931 15.3099 18.1219 15.3447 18.1108C15.3795 18.0997 15.408 18.0748 15.408 18.0555C15.408 18.0362 15.4432 17.9878 15.4864 17.9478C15.5295 17.9079 15.6203 17.7953 15.6882 17.6975C15.9351 17.3424 16.0488 17.1879 16.1818 17.0267C16.2564 16.9363 16.3889 16.7544 16.4763 16.6225C16.8391 16.0746 17.1862 16.0127 17.5628 16.4289C17.6614 16.5378 17.7421 16.6398 17.7421 16.6556C17.7421 16.6713 17.7703 16.7243 17.8048 16.7733C17.9462 16.9741 18.4499 17.7635 18.5538 17.9472C18.7146 18.2314 18.7219 18.2432 18.9566 18.6046C19.1476 18.8986 19.3267 19.156 19.419 19.269C19.4369 19.2908 19.4515 19.3162 19.4515 19.3256C19.4515 19.3419 19.8356 19.9143 19.9414 20.0555C19.9702 20.0941 20.0161 20.1587 20.0432 20.1991C20.0703 20.2395 20.133 20.3263 20.1824 20.392C20.2318 20.4576 20.3299 20.5927 20.4005 20.6921C20.4709 20.7916 20.5658 20.9127 20.6113 20.9614C20.6567 21.0101 20.7342 21.1321 20.7834 21.2326C20.8326 21.3331 20.8883 21.4154 20.9073 21.4154C20.9262 21.4154 20.9325 21.4245 20.9213 21.4358C20.8984 21.4587 21.0336 21.6504 21.1617 21.7769C21.2075 21.8222 21.2789 21.9035 21.3204 21.9577C21.362 22.012 21.3846 22.0342 21.3707 22.0071C21.3485 21.9637 21.3527 21.9635 21.4045 22.0057C21.4369 22.032 21.4854 22.0567 21.5123 22.0607C21.5391 22.0646 21.5895 22.0935 21.624 22.1247C21.6587 22.1561 21.6869 22.1651 21.6869 22.1447C21.6869 22.1011 21.7783 22.1283 21.8562 22.195C21.8928 22.2263 21.9175 22.2301 21.9322 22.2064C21.9724 22.1412 22.1143 22.1652 22.1143 22.2372C22.1143 22.279 22.1362 22.303 22.1742 22.303C22.2072 22.303 22.2691 22.3399 22.3115 22.3851C22.354 22.4303 22.4058 22.4673 22.4266 22.4673C22.4474 22.4673 22.4992 22.5043 22.5416 22.5495C22.6003 22.6119 22.6522 22.6317 22.757 22.6317C22.8422 22.6317 22.9115 22.6513 22.9378 22.6831C22.9764 22.7296 22.9834 22.7293 23.0106 22.6806C23.0382 22.6312 23.0457 22.6315 23.1034 22.6837C23.138 22.715 23.1667 22.7271 23.1673 22.7107C23.1679 22.6944 23.1901 22.7097 23.2165 22.7448C23.2633 22.8065 23.2648 22.806 23.2653 22.7283C23.2657 22.6645 23.2723 22.6582 23.2977 22.6975C23.326 22.7413 23.3297 22.7413 23.3306 22.6975C23.3315 22.6536 23.3351 22.6536 23.3637 22.6975C23.3882 22.7352 23.3941 22.7255 23.3888 22.6564C23.385 22.6066 23.3736 22.5659 23.3633 22.5659C23.353 22.5659 23.3425 22.5385 23.34 22.5051C23.328 22.3459 23.1499 21.895 23.0596 21.7954C23.0278 21.7604 23.0018 21.7219 23.0018 21.71C23.0018 21.6981 22.9726 21.6528 22.9367 21.6094C22.8357 21.4868 22.8218 21.4655 22.8102 21.4144C22.8042 21.3881 22.7877 21.3591 22.7735 21.3499C22.7593 21.3407 22.6706 21.1483 22.5765 20.9223C22.3332 20.3381 22.1386 19.9494 21.6873 19.1471C21.6009 18.9934 21.4593 18.7271 21.3728 18.5553C21.2862 18.3836 21.1334 18.1173 21.0334 17.9636C20.9334 17.8099 20.7443 17.4697 20.6132 17.2075C20.3368 16.655 20.172 16.3506 19.8677 15.8308C19.7473 15.625 19.6488 15.45 19.6488 15.4418C19.6488 15.4337 19.5989 15.3506 19.538 15.2571C19.3919 15.0326 19.1885 14.6788 19.1885 14.649C19.1885 14.6116 18.7621 13.8698 18.5428 13.5256C18.4333 13.3538 18.2516 13.0321 18.1389 12.8106M15.8683 13.1794C15.8683 13.1042 16.3411 12.3953 16.4917 12.2447C16.8071 11.9293 17.1853 11.8635 17.5279 12.0642C17.7833 12.2139 17.9209 12.3819 18.1389 12.8106M23.364 22.8236C23.3655 22.8886 23.4283 22.9411 23.4292 22.8782C23.4301 22.8227 23.4357 22.8202 23.4651 22.8618C23.4924 22.9004 23.4973 22.9009 23.4874 22.8646C23.4751 22.8188 23.363 22.7815 23.364 22.8236ZM22.8999 11.43C22.5542 11.7751 22.3913 12.5165 22.4193 13.6179C22.4478 14.7428 22.5946 15.1698 23.4727 16.6815C24.0913 17.7467 24.878 19.0799 25.1105 19.4572C25.5478 20.1667 25.9003 20.7685 26.1011 21.1484C26.2099 21.3541 26.4558 21.7859 26.6474 22.1079C27.0455 22.7763 27.4109 23.3959 27.6625 23.829C28.174 24.7091 28.0592 24.8178 26.618 24.8178H25.6482L25.4651 24.7319C25.2087 24.6117 24.9065 24.1874 24.2267 22.9933C24.1186 22.8034 23.8818 22.4033 23.7006 22.104C23.5194 21.8048 23.1932 21.2427 22.9757 20.8549C22.7581 20.4671 22.4141 19.876 22.2111 19.5416C21.8366 18.9245 21.5989 18.5212 21.1535 17.7481C21.0175 17.512 20.8072 17.1585 20.686 16.9626C20.5649 16.7666 20.3436 16.3902 20.1943 16.1261C19.8674 15.5482 19.0051 14.0635 18.8311 13.779C18.7624 13.6667 18.6058 13.3974 18.4831 13.1805C17.8953 12.1416 17.5713 11.8158 17.1267 11.8165C16.7327 11.8172 16.4185 12.0562 16.1148 12.5864C15.9471 12.8792 15.8442 13.0492 15.2341 14.0416C15.043 14.3524 14.6926 14.9441 14.4555 15.3565C14.2183 15.7688 13.9017 16.3133 13.7519 16.5665C13.602 16.8196 13.3535 17.2412 13.1997 17.5033C13.0458 17.7656 12.7946 18.1871 12.6414 18.4403C12.4882 18.6934 12.2762 19.0633 12.1704 19.2621C12.0646 19.461 11.9089 19.7347 11.8246 19.8703C11.7403 20.0059 11.5869 20.2696 11.4838 20.4564C11.3807 20.6431 11.1615 21.0117 10.9968 21.2754C10.8321 21.5392 10.5985 21.9264 10.4778 22.1358C10.3571 22.3453 10.0882 22.8125 9.8802 23.1741C9.67218 23.5357 9.40575 23.9943 9.28817 24.1932C7.9767 26.4112 7.97068 26.426 8.19446 26.8744C8.32376 27.1335 8.55958 27.3127 8.90242 27.4124C9.11951 27.4755 19.5809 27.5158 19.8937 27.4548C21.1026 27.2187 18.8471 25.2468 16.986 24.9124C16.7229 24.8652 16.352 24.8533 14.6355 24.8369C12.3855 24.8154 12.412 24.818 12.3036 24.6083C12.2107 24.4287 12.272 24.2317 12.5718 23.7468C12.6435 23.6307 12.8475 23.2842 13.0252 22.9769C13.2028 22.6695 13.4402 22.2627 13.5526 22.0728C13.6651 21.883 13.8424 21.5723 13.9467 21.3825C14.051 21.1926 14.1936 20.9524 14.2636 20.8486C14.406 20.6377 15.1294 19.4206 15.3238 19.0649C15.3931 18.9383 15.5642 18.6424 15.7042 18.4074C15.8442 18.1724 16.1295 17.6906 16.3382 17.337C16.9523 16.2963 17.1767 16.2047 17.5717 16.8335C17.9773 17.479 18.5203 18.387 18.9708 19.1729C19.2482 19.6568 19.5965 20.2509 19.7451 20.4932C19.8936 20.7355 20.1111 21.1097 20.2283 21.3246C20.3456 21.5396 20.5785 21.9402 20.7459 22.2147C20.9134 22.4892 21.1514 22.8988 21.2749 23.1248C21.3985 23.3508 21.6359 23.7576 21.8025 24.0288C21.9691 24.3 22.1838 24.6624 22.2797 24.8342C22.3755 25.006 22.4937 25.2057 22.5423 25.278C22.5909 25.3503 22.6947 25.5278 22.773 25.6725C23.4076 26.8459 23.7452 27.26 24.1853 27.4045C24.4319 27.4854 30.8538 27.5063 31.2532 27.4274C31.8274 27.3141 32.1562 26.8465 32.0435 26.3037C31.9943 26.0666 31.8301 25.7496 31.2485 24.7685C30.9859 24.3255 30.6922 23.8225 30.5959 23.6507C30.4995 23.479 30.3321 23.1906 30.224 23.0097C30.1159 22.8289 29.9064 22.4739 29.7585 22.2208C28.9477 20.8327 28.418 19.9297 28.1482 19.4758C27.9816 19.1955 27.7864 18.8627 27.7143 18.7362C27.3839 18.1551 26.9536 17.4275 26.7789 17.1542C26.6735 16.9894 26.4809 16.6565 26.3509 16.4146C26.2209 16.1727 26.0311 15.8416 25.9292 15.6789C25.8272 15.5162 25.6938 15.2942 25.6328 15.1858C25.5255 14.9953 24.4339 13.1387 23.8359 12.1297C23.3618 11.3299 23.155 11.1752 22.8999 11.43Z" stroke="white" stroke-width="0.808381"/>
    <defs>
        <radialGradient id="paint0_radial_8038_5215" cx="0" cy="0" r="1" gradientUnits="userSpaceOnUse" gradientTransform="translate(20) rotate(90) scale(26)">
            <stop stop-color="#00B8E5"/>
            <stop offset="1" stop-color="#0071F4"/>
        </radialGradient>
    </defs>
</svg>
