<svg width="20" height="20" viewBox="0 0 20 20" fill="none" xmlns="http://www.w3.org/2000/svg">
<rect width="20" height="20" rx="10" fill="#07131F" style="fill:#07131F;fill:color(display-p3 0.0275 0.0745 0.1216);fill-opacity:1;"/>
<path d="M15.2797 10.3439L7.525 14.8211C6.98946 15.1303 6.80589 15.8149 7.11498 16.3502C7.42406 16.8856 8.10876 17.0689 8.6443 16.7597L16.399 12.2826C16.9345 11.9734 17.1181 11.2888 16.809 10.7533C16.4999 10.2181 15.8152 10.0347 15.2797 10.3439Z" fill="#FF7829" style="fill:#FF7829;fill:color(display-p3 1.0000 0.4706 0.1608);fill-opacity:1;"/>
<path d="M9.91619 8.91252L4.1002 12.2704C3.56467 12.5796 3.38108 13.2642 3.69017 13.7996C3.99925 14.3349 4.68396 14.5183 5.2195 14.2091L11.0355 10.8512C11.571 10.542 11.7546 9.85731 11.4455 9.32196C11.1365 8.78667 10.4517 8.6033 9.91619 8.91252Z" fill="#FCBF22" style="fill:#FCBF22;fill:color(display-p3 0.9882 0.7490 0.1333);fill-opacity:1;"/>
<path d="M11.3545 3.54489L3.59986 8.02208C3.06432 8.33126 2.88075 9.01588 3.18983 9.55124C3.49892 10.0866 4.18362 10.2699 4.71916 9.96074L12.4739 5.48356C13.0094 5.17438 13.193 4.48974 12.8839 3.95439C12.5748 3.41904 11.8901 3.2357 11.3545 3.54489Z" fill="#2AE5B9" style="fill:#2AE5B9;fill:color(display-p3 0.1647 0.8980 0.7255);fill-opacity:1;"/>
</svg>
