<svg fill="none" height="60" viewBox="0 0 60 60" width="60" xmlns="http://www.w3.org/2000/svg"><rect fill="#f5f6fa" height="60" rx="30" width="60"/><g fill="#0c1d2f"><path d="m44.3735 30.3338-20.3763 10.5311c-1.4072.7273-1.8896 2.3376-1.0774 3.5968.8121 1.2593 2.6113 1.6905 4.0185.9633l20.3763-10.5311c1.4071-.7273 1.8895-2.3376 1.0773-3.5968-.8121-1.2593-2.6112-1.6905-4.0184-.9633z"/><path d="m30.2813 26.9706-15.2822 7.8982c-1.4071.7273-1.8895 2.3377-1.0774 3.5969.8122 1.2593 2.6113 1.6905 4.0185.9632l15.2822-7.8983c1.4072-.7272 1.8896-2.3376 1.0774-3.5968-.8121-1.2592-2.6113-1.6905-4.0185-.9632z"/><path d="m34.061 14.3417-20.3763 10.531c-1.4072.7272-1.8896 2.3376-1.0774 3.5969.8121 1.2592 2.6113 1.6904 4.0185.9631l20.3763-10.531c1.4071-.7272 1.8895-2.3376 1.0773-3.5968-.8121-1.2593-2.6112-1.6905-4.0184-.9632z"/></g></svg>