<svg width="256" height="256" viewBox="0 0 256 256" fill="none" xmlns="http://www.w3.org/2000/svg">
<rect width="256" height="256" rx="128" fill="black" style="fill:black;fill-opacity:1;"/>
<path fill-rule="evenodd" clip-rule="evenodd" d="M147.724 169.642C152.286 172.547 157.635 174 163.772 174C169.411 174 174.511 172.676 179.073 170.027C183.633 167.378 187.241 163.789 189.895 159.261C192.632 154.647 194 149.434 194 143.624C194 139.779 193.295 136.19 191.885 132.858C190.558 129.44 188.692 126.492 186.287 124.014C183.965 121.45 181.187 119.485 177.953 118.118C174.85 116.688 171.506 115.962 167.921 115.94L192.258 88.1268L189.77 83H148.829L135.655 95.8168H170.845L147.476 122.348L151.207 132.473C153.281 131.619 155.188 130.935 156.93 130.422C158.671 129.824 160.289 129.397 161.781 129.141C163.357 128.799 164.849 128.628 166.26 128.628C169.328 128.628 171.982 129.269 174.221 130.55C176.46 131.747 178.16 133.541 179.321 135.934C180.482 138.241 181.063 141.06 181.063 144.393C181.063 147.725 180.316 150.716 178.824 153.365C177.331 156.013 175.34 158.107 172.853 159.645C170.365 161.098 167.669 161.824 164.767 161.824C162.362 161.824 160.081 161.354 157.925 160.414C155.769 159.474 153.654 158.022 151.581 156.056C149.59 154.005 147.558 151.399 145.485 148.238L135.036 155.031C139.017 161.866 143.246 166.737 147.724 169.642Z" fill="white" style="fill:white;fill-opacity:1;"/>
<path fill-rule="evenodd" clip-rule="evenodd" d="M77.0732 83H64V172.718H77.0732V143.308L90.3484 130.038L121.358 172.718H138.152L99.8466 120.544L137.406 83H119.741L77.0732 126.962V83Z" fill="white" style="fill:white;fill-opacity:1;"/>
</svg>
