<svg width="20" height="20" viewBox="0 0 20 20" fill="none" xmlns="http://www.w3.org/2000/svg">
<rect width="20" height="20" rx="10" fill="#E1E5FF" style="fill:#E1E5FF;fill:color(display-p3 0.8824 0.8980 1.0000);fill-opacity:1;"/>
<path d="M13.5395 15.4033C13.1667 15.4033 12.8116 15.2593 12.5409 14.9981L8.2092 10.7701C7.80976 10.3784 7.80089 9.72999 8.19589 9.33376L12.461 5.02025C12.7317 4.75009 13.0912 4.6015 13.4729 4.6015H14.9508L14.9375 6.79878H13.9611C13.8147 6.79878 13.6682 6.85732 13.5661 6.96088L10.5393 9.96416L13.6638 13.044C13.7658 13.1475 13.9078 13.206 14.0543 13.206H14.9419V15.3988H13.5395L13.5395 15.4033Z" fill="black" style="fill:black;fill-opacity:1;"/>
<path d="M7.2949 4.5968H5.04917V15.4031H7.2949V4.5968Z" fill="black" style="fill:black;fill-opacity:1;"/>
</svg>
