<svg width="20" height="20" viewBox="0 0 20 20" fill="none" xmlns="http://www.w3.org/2000/svg">
<g clip-path="url(#clip0_40007223_890)">
<path d="M0 10C0 15.5228 4.47715 20 10 20C15.5228 20 20 15.5228 20 10C20 4.47715 15.5228 0 10 0C4.47715 0 0 4.47715 0 10Z" fill="white" style="fill:white;fill-opacity:1;"/>
<path d="M20.0701 10.415C20.05 10.7767 20.0126 11.1385 19.9538 11.4973C19.8663 12.0311 19.7356 12.559 19.5648 13.071C19.5332 13.1672 19.4987 13.262 19.4629 13.3568C19.315 13.7638 19.1413 14.159 18.9432 14.5426C18.7005 15.0122 18.4221 15.4629 18.1119 15.8902C18.0215 16.0127 17.9296 16.1338 17.8335 16.2534C17.6023 16.5451 17.354 16.8236 17.0927 17.0891C16.7253 17.461 16.3289 17.8053 15.9099 18.1174C15.4892 18.4295 15.0457 18.711 14.5833 18.9546C14.2704 19.1209 13.9474 19.2682 13.6172 19.3994C13.5397 19.4301 13.4622 19.4592 13.3846 19.4884C13.3028 19.519 13.2195 19.5482 13.1363 19.5759C13.1176 19.5817 13.099 19.5876 13.0803 19.5934C13.043 19.6051 13.0056 19.6167 12.9683 19.6284C12.7731 19.6911 12.5779 19.748 12.3783 19.799C12.3754 19.8005 12.3726 19.8005 12.3697 19.8005C12.2563 19.8297 12.1429 19.8559 12.028 19.8778C11.9649 19.8924 11.9017 19.9055 11.8371 19.9172C11.827 19.9201 11.817 19.9216 11.8069 19.923C11.7424 19.9347 11.6792 19.9463 11.6146 19.9566C11.4739 19.9799 11.3332 20.0003 11.1911 20.0164C11.1653 20.0193 11.1408 20.0222 11.1164 20.0251C11.0605 20.0324 11.0045 20.0368 10.9485 20.0426C10.9313 20.0441 10.9126 20.047 10.8954 20.047C10.8595 20.0514 10.8236 20.0543 10.7863 20.0572C10.7274 20.0616 10.6685 20.0659 10.6082 20.0689C10.5322 20.0732 10.4575 20.0776 10.3814 20.0791C10.3341 20.0805 10.2881 20.082 10.2407 20.0834C10.2206 20.0834 10.1991 20.0834 10.179 20.0834C10.1417 20.0849 10.1058 20.0849 10.0685 20.0849H9.91343C6.89155 20.0849 4.12233 18.6862 2.25036 16.4838C2.19868 16.4226 2.14843 16.3613 2.09818 16.2986C2.08526 16.284 2.07235 16.268 2.06086 16.2519H2.05943C1.05883 14.9976 0.339614 13.4968 0.0123034 11.8546C-0.0436837 11.5731 0.095567 11.2974 0.345356 11.1705C1.0574 10.8132 2.03072 10.6659 2.73127 11.1283C2.99255 11.3018 3.28972 11.6256 3.20788 11.9698C3.13754 12.2673 2.86335 12.4336 2.66381 12.6393C2.43124 12.8784 2.33936 13.2416 2.39965 13.5698C2.44846 13.8352 2.59202 14.0963 2.82171 14.2407C3.05859 14.3909 3.3299 14.4522 3.6041 14.4901C3.96012 14.5382 4.43672 14.5951 4.71666 14.3034C4.80854 14.2086 4.87744 14.0948 4.98081 14.0132C5.08274 13.9344 5.20045 13.8746 5.32248 13.8367C5.5981 13.7521 5.92542 13.7769 6.16802 13.9432C6.33456 14.0569 6.48672 14.1955 6.6676 14.2874C6.83843 14.3734 7.02506 14.4274 7.21456 14.4507C7.51746 14.4886 7.91511 14.4814 8.19362 14.3399C8.33574 14.2669 8.47069 14.178 8.59414 14.073C9.10233 13.6412 9.38801 12.9747 9.42103 12.3082C9.42964 12.1332 9.41817 11.9771 9.34638 11.8152C9.2789 11.6621 9.18128 11.5264 9.09229 11.3864C9.07936 11.366 9.06644 11.3441 9.05353 11.3208C8.67453 10.6863 8.46063 9.95999 8.78937 9.24678C8.87839 9.02072 9.00328 8.79465 9.10807 8.56275C9.20282 8.35127 9.28179 8.1354 9.30188 7.9108C9.32915 7.67597 9.27603 7.44991 9.1655 7.25594C9.06213 7.07507 8.90853 6.92048 8.72621 6.81255C7.97398 6.36187 7.03224 6.48292 6.23263 6.20436C5.8321 6.07454 5.45743 5.8441 5.18036 5.51593C4.8473 5.12361 4.64776 4.62334 4.56306 4.07786C4.46257 3.47403 4.49702 2.23723 5.39713 2.55081C5.66702 2.64561 5.95843 2.81188 6.25273 2.92564C6.33025 2.95626 6.4092 2.98399 6.48528 3.00441C6.75804 3.08316 7.04229 3.11817 7.32509 3.09775C7.6481 3.089 7.9424 2.98982 8.22807 2.85563C8.88699 2.54352 9.48563 2.03596 10.2235 2.00096C10.2651 1.9995 10.3068 1.9995 10.3498 2.00242C10.3513 2.00096 10.3527 2.00096 10.3556 2.00242C10.7748 2.02429 11.1954 2.21535 11.4954 2.51143C11.6376 2.64415 11.7639 2.87313 11.6892 3.05837C11.5916 3.29464 11.3892 3.40257 11.1681 3.55572C10.9858 3.67386 10.7949 3.8022 10.6384 3.95826C9.93066 4.62043 10.1675 5.55677 10.8623 6.24519C11.1566 6.53689 11.4437 6.82276 11.7668 7.08382C12.074 7.33469 12.4199 7.55346 12.6941 7.84225C12.9037 8.06248 13.0458 8.3396 13.2511 8.5642C13.5253 8.86174 13.8713 8.94633 14.2589 8.88216C15.1045 8.74068 15.8898 8.16603 16.7768 8.29731C16.807 8.30168 16.8373 8.30606 16.8674 8.31335C17.6684 8.47524 17.8564 9.56036 17.1803 10.03C17.0899 10.0942 17.0081 10.1569 16.9449 10.2269C16.6046 10.5186 16.4309 10.9372 16.2558 11.3456C16.1639 11.5571 16.0735 11.7656 15.9586 11.9538C15.7763 12.2221 15.4835 12.5211 15.1447 12.4759C14.7801 12.4278 14.813 11.7962 14.7857 11.5439C14.7627 11.3456 14.7255 11.172 14.6279 10.997C14.5446 10.8497 14.434 10.7199 14.3048 10.6134C13.7048 10.116 12.9439 10.3246 12.2405 10.3713C11.8184 10.399 11.4136 10.4486 11.0705 10.7286C10.8968 10.8701 10.7604 11.0582 10.6829 11.2712C10.5523 11.63 10.6082 12.0617 10.8006 12.3869C10.9801 12.6888 11.3648 12.8551 11.6605 13.0126C11.6648 13.0156 11.6691 13.017 11.6734 13.0199C12.7458 13.545 12.1371 13.9446 12.1759 14.9422C12.1759 15.0035 12.1831 15.0662 12.1903 15.1318C12.1931 15.1595 12.1974 15.1887 12.2032 15.2164C12.3237 15.8013 11.6174 16.0638 10.914 15.9602C10.5752 15.9106 10.2379 15.8815 9.89621 15.8567C9.46984 15.8231 9.04635 15.9267 8.74774 16.2519C8.74201 16.2578 8.73627 16.2636 8.73052 16.2694C8.52379 16.5013 8.39748 16.8222 8.44197 17.1357C8.54246 17.8389 9.43395 17.9978 10.0067 18.0066C10.4561 18.0124 10.8982 17.9249 11.3447 17.9045C11.527 17.8972 11.7079 17.8826 11.8888 17.8593C11.9763 17.8476 12.0625 17.8345 12.15 17.817C12.4716 17.7543 12.8032 17.6522 13.0645 17.4449C13.3143 17.2481 13.4449 16.9301 13.4593 16.6136C13.465 16.494 13.455 16.3701 13.4277 16.2519C13.4191 16.2111 13.4076 16.1717 13.3933 16.1338C13.3243 15.9427 13.198 15.7706 13.1176 15.5839C13.0789 15.495 13.0473 15.4016 13.0258 15.3068C12.9611 15.0006 13.0473 14.6549 13.1363 14.3617C13.2382 14.0263 13.3933 13.6938 13.6344 13.437C13.8211 13.2372 14.0622 13.0987 14.3335 13.0579C14.6049 13.0156 14.9624 13.0389 15.1518 13.2664C15.3715 13.5319 15.413 13.914 15.6658 14.1532C15.9155 14.3895 16.3678 14.4595 16.6964 14.4741C16.9836 14.4872 17.2994 14.4624 17.532 14.2713C17.8335 14.0248 17.9196 13.5946 17.9583 13.2227C18.0014 12.7982 17.9656 12.3694 17.9282 11.9465C17.9081 11.7233 17.9024 11.5191 17.9095 11.3295C17.9239 10.9678 17.9914 10.6061 18.1406 10.2765C18.1881 10.1729 18.2425 10.0723 18.3043 9.97604C18.547 9.59391 18.9359 9.23511 19.4069 9.21907C19.6222 9.21032 19.8403 9.30221 19.9653 9.47723C19.9897 9.51223 20.0098 9.55015 20.027 9.58953C20.1333 9.84769 20.0858 10.1438 20.0701 10.4136V10.415Z" fill="#111214" style="fill:#111214;fill:color(display-p3 0.0667 0.0706 0.0784);fill-opacity:1;"/>
</g>
<defs>
<clipPath id="clip0_40007223_890">
<rect width="20" height="20" rx="10" fill="white" style="fill:white;fill-opacity:1;"/>
</clipPath>
</defs>
</svg>
