<svg width="256" height="256" viewBox="0 0 256 256" fill="none" xmlns="http://www.w3.org/2000/svg">
<rect width="256" height="256" rx="128" fill="white" style="fill:white;fill-opacity:1;"/>
<g clip-path="url(#clip0_40006742_102847)">
<mask id="mask0_40006742_102847" style="mask-type:luminance" maskUnits="userSpaceOnUse" x="39" y="82" width="179" height="98">
<path d="M218 82H39V180H218V82Z" fill="white" style="fill:white;fill-opacity:1;"/>
</mask>
<g mask="url(#mask0_40006742_102847)">
<path d="M140.842 83.4822H114.21V93.9077H140.842V83.4822Z" fill="#678DBD" style="fill:#678DBD;fill:color(display-p3 0.4039 0.5529 0.7412);fill-opacity:1;"/>
<path d="M142.334 95.3873H112.727V82H142.334V95.3873ZM115.701 92.4255H139.347V84.9618H115.701V92.4255Z" fill="#678DBD" style="fill:#678DBD;fill:color(display-p3 0.4039 0.5529 0.7412);fill-opacity:1;"/>
<path d="M126.108 132.884V120.829H151.734L151.74 109.663V107.442H112.721V146.271H161.14V132.884H126.108Z" fill="#162125" style="fill:#162125;fill:color(display-p3 0.0863 0.1294 0.1451);fill-opacity:1;"/>
<path d="M87.4604 82L69.5962 110.771L51.7321 82H39V146.271H52.3878V108.627L69.5904 134.56L86.8048 109.628V146.271H100.192V82H87.4604Z" fill="#162125" style="fill:#162125;fill:color(display-p3 0.0863 0.1294 0.1451);fill-opacity:1;"/>
<path d="M202.336 82L186.153 125.278L169.934 82H154.007L178.338 146.271H194.134L218.001 82H202.336Z" fill="#162125" style="fill:#162125;fill:color(display-p3 0.0863 0.1294 0.1451);fill-opacity:1;"/>
<path d="M59.1055 173.483C59.1055 169.71 61.764 166.973 65.5609 166.973C67.8261 166.973 69.6321 167.95 70.735 169.532L68.6905 171.037C68.0824 170.195 66.9618 169.491 65.5609 169.491C63.2184 169.491 61.6448 171.173 61.6448 173.477C61.6448 175.781 63.2184 177.464 65.5609 177.464C66.9559 177.464 68.0765 176.664 68.6905 175.859L70.735 177.422C69.6321 179.004 67.8261 179.981 65.5609 179.981C61.764 179.981 59.1055 177.245 59.1055 173.471V173.483Z" fill="#162125" style="fill:#162125;fill:color(display-p3 0.0863 0.1294 0.1451);fill-opacity:1;"/>
<path d="M85.1893 167.133H87.1147L92.2885 179.839H89.5945L88.7659 177.748H83.5144L82.686 179.839H79.9917L85.1835 167.133H85.1893ZM87.8658 175.443L86.155 171.125L84.4444 175.443H87.8658Z" fill="#162125" style="fill:#162125;fill:color(display-p3 0.0863 0.1294 0.1451);fill-opacity:1;"/>
<path d="M102.122 167.133H108.082C109.99 167.133 111.975 168.578 111.975 171.315C111.975 174.051 109.99 175.497 108.082 175.497H104.661V179.839H102.122V167.133ZM107.63 173.039C108.595 173.039 109.442 172.375 109.442 171.321C109.442 170.266 108.613 169.579 107.671 169.579H104.661V173.039H107.63Z" fill="#162125" style="fill:#162125;fill:color(display-p3 0.0863 0.1294 0.1451);fill-opacity:1;"/>
<path d="M122.205 167.133H124.744V179.839H122.205V167.133Z" fill="#162125" style="fill:#162125;fill:color(display-p3 0.0863 0.1294 0.1451);fill-opacity:1;"/>
<path d="M138.812 169.437H134.974V167.133H145.185V169.437H141.37V179.839H138.812V169.437Z" fill="#162125" style="fill:#162125;fill:color(display-p3 0.0863 0.1294 0.1451);fill-opacity:1;"/>
<path d="M158.38 167.133H160.305L165.479 179.839H162.785L161.956 177.748H156.705L155.876 179.839H153.182L158.374 167.133H158.38ZM161.056 175.443L159.346 171.125L157.635 175.443H161.056Z" fill="#162125" style="fill:#162125;fill:color(display-p3 0.0863 0.1294 0.1451);fill-opacity:1;"/>
<path d="M175.316 167.133H177.855V177.535H183.935V179.839H175.316V167.133Z" fill="#162125" style="fill:#162125;fill:color(display-p3 0.0863 0.1294 0.1451);fill-opacity:1;"/>
</g>
</g>
<defs>
<clipPath id="clip0_40006742_102847">
<rect width="179" height="98" fill="white" style="fill:white;fill-opacity:1;" transform="translate(39 82)"/>
</clipPath>
</defs>
</svg>
