<svg width="20" height="20" viewBox="0 0 20 20" fill="none" xmlns="http://www.w3.org/2000/svg">
<rect width="20" height="20" rx="10" fill="white" style="fill:white;fill-opacity:1;"/>
<g clip-path="url(#clip0_40007223_881)">
<path d="M12.8573 9.28427C12.7054 8.5553 12.228 8.04392 12.011 7.8372C12.0002 7.80457 11.9893 7.77192 11.9785 7.73928L13.096 6.93415C13.096 6.61862 13.0309 6.31397 12.9224 6.0202L10.9478 7.44552L11.0454 7.71752C11.1214 7.946 11.1973 8.18537 11.1973 8.18537L11.2407 8.30505L11.3384 8.38121C11.3709 8.40297 12.1087 9.00139 12.0219 9.89356L11.5662 10.22C10.8285 10.7531 10.6983 11.0904 10.5247 11.6344C10.4813 11.765 10.4379 11.9173 10.3728 12.0913C10.1124 12.7551 9.79776 12.9618 9.30953 13.2011L8.94065 13.3861L10.1232 15.9539H11.1539V15.1269H10.6983L10.0581 13.7343C10.5138 13.4732 10.9044 13.1141 11.1865 12.3634C11.2624 12.1566 11.3167 11.9934 11.3601 11.852C11.4686 11.493 11.5228 11.3189 11.8592 11.0468L11.9025 11.8629L11.5011 12.1566L12.0219 12.8204L12.8031 12.2763L12.7705 11.6018L13.1394 12.0696L13.9206 11.5256L13.8229 9.85005L12.8573 9.28427ZM12.7597 11.308L12.7163 10.4376L12.9875 10.2417L13.0417 11.123L12.7597 11.308Z" fill="#3E3AF2" style="fill:#3E3AF2;fill:color(display-p3 0.2431 0.2275 0.9490);fill-opacity:1;"/>
<path d="M14.3575 4.41649L13.8151 3.76368C13.8151 3.76368 13.671 3.88757 13.1936 4.24661C12.1087 3.20211 10.4705 2.78867 8.9624 3.21299L9.22278 3.99637C10.3837 3.66996 11.6422 3.96373 12.4993 4.74711C11.9785 5.12791 11.3601 5.574 10.72 6.04185C10.6983 6.03097 10.6766 6.02009 10.6549 5.99833C10.5247 5.92217 10.3294 5.79161 10.1775 5.67192C9.83035 5.38904 9.42892 5.23671 9.04919 5.24759C8.56096 5.25848 8.10529 5.48696 7.8232 5.84601C7.67131 6.04185 7.58451 6.24858 7.50857 6.43354C7.48687 6.49882 7.45432 6.55322 7.43262 6.6185C7.34583 6.80347 7.24818 6.92315 7.15054 6.96667L7.47602 7.72829C7.8015 7.6086 8.06189 7.34748 8.24633 6.94491C8.27888 6.86875 8.31143 6.80347 8.33312 6.72731C8.39822 6.57498 8.45247 6.43354 8.53926 6.32474C8.65861 6.17242 8.86475 6.06362 9.07088 6.06362H9.08173C9.29872 6.06362 9.50487 6.20505 9.60251 6.28122C9.7327 6.37914 9.8629 6.47706 9.99309 6.55322C9.20108 7.12988 8.38737 7.7174 7.69301 8.22878L7.68216 8.23966L7.71471 8.3267L7.99679 8.99039L9.49402 9.34944L9.50487 9.55616L8.00764 10.6442C7.89915 10.7204 7.8015 10.8183 7.72556 10.9162C7.50857 10.8945 7.28073 10.938 7.08544 11.025C6.74911 11.1773 6.51042 11.4711 6.42363 11.8084L6.35853 12.0804C6.32598 12.2327 6.17409 12.3415 6.01134 12.3415H5.64246V13.1684H6.01134C6.58637 13.1684 7.09629 12.7876 7.21563 12.2653L7.28073 11.9934C7.30243 11.9063 7.35668 11.8301 7.44347 11.7866C7.46517 12.2545 7.73641 12.6679 8.15953 12.9073C8.14868 12.9399 8.13783 12.9617 8.11614 12.9835C8.05104 13.0487 7.9317 13.0923 7.79065 13.1031L7.30243 13.114L7.71471 15.932H8.84305V15.1051H8.48502L8.30058 13.843C8.49587 13.7777 8.65861 13.6689 8.7888 13.5274C8.99494 13.299 9.09258 12.9943 9.04919 12.6788C9.02749 12.4938 8.89729 12.3415 8.7237 12.2545L8.65861 12.2218C8.45247 12.1239 8.32227 11.939 8.32227 11.7213C8.32227 11.7104 8.32227 11.6887 8.32227 11.6778C8.33312 11.5363 8.41992 11.3949 8.56096 11.297L10.4162 9.94785L10.3511 8.70751L8.94069 8.37022C10.2969 7.40188 11.8917 6.2377 13.031 5.4108C13.1286 5.56312 13.2045 5.71545 13.2588 5.87865V5.88953C13.6059 6.75995 13.5192 7.75005 12.9984 8.56606L13.747 8.99039C14.5716 7.72828 14.5499 6.12889 13.7253 4.89943C14.2135 4.54038 14.3575 4.41649 14.3575 4.41649Z" fill="#3E3AF2" style="fill:#3E3AF2;fill:color(display-p3 0.2431 0.2275 0.9490);fill-opacity:1;"/>
<path d="M11.4517 15.5053C11.4517 15.2448 11.6614 15.035 11.9218 15.035C12.1821 15.035 12.3919 15.2448 12.3919 15.5053C12.3919 15.7658 12.1821 15.9757 11.9218 15.9757C11.6614 15.9757 11.4517 15.7658 11.4517 15.5053ZM12.2545 15.5053C12.2545 15.3172 12.1026 15.1652 11.9146 15.1652C11.7265 15.1652 11.5747 15.3172 11.5747 15.5053C11.5747 15.6935 11.7265 15.8455 11.9146 15.8455C12.1026 15.8455 12.2545 15.6935 12.2545 15.5053ZM11.7482 15.2882H11.9507C12.052 15.2882 12.1098 15.3461 12.1098 15.433C12.1098 15.4908 12.0881 15.527 12.0447 15.556L12.1243 15.7224H11.9869L11.929 15.5777H11.8712V15.7224H11.7482V15.2882ZM11.929 15.4836C11.9652 15.4836 11.9869 15.4619 11.9869 15.433C11.9869 15.3968 11.9652 15.3751 11.929 15.3751H11.8712V15.4836H11.929Z" fill="#3E3AF2" style="fill:#3E3AF2;fill:color(display-p3 0.2431 0.2275 0.9490);fill-opacity:1;"/>
</g>
<defs>
<clipPath id="clip0_40007223_881">
<rect width="8.71508" height="13" fill="white" style="fill:white;fill-opacity:1;" transform="translate(5.64247 3)"/>
</clipPath>
</defs>
</svg>
