<svg width="20" height="20" viewBox="0 0 20 20" fill="none" xmlns="http://www.w3.org/2000/svg">
<rect width="20" height="20" rx="10" fill="white" style="fill:white;fill-opacity:1;"/>
<path fill-rule="evenodd" clip-rule="evenodd" d="M5.98617 10.6147L6.1682 11.8926L5.2577 12.0751L4.52923 11.8926L3.43652 10.0671L3.80076 6.78106L5.0755 5.13813L6.71447 4.9556L8.35346 4.04279L10.539 5.13813L9.99259 5.68572C11.5709 5.92909 12.6029 6.11178 13.0885 6.23347C13.817 6.416 15.0919 7.32882 15.2739 7.51135C15.4561 7.69388 15.3692 8.53299 15.2739 9.15428C15.2103 9.56849 15.0889 9.87269 14.9097 10.0671L15.6382 14.2658H13.9992L14.3634 13.9007L12.9065 10.7972L8.89988 11.345L7.44327 14.2658H5.80431L6.35058 13.353L7.44327 9.51934L6.7148 8.78922L5.0755 9.15428L4.8933 10.6147L5.43957 11.1624L5.98617 10.6147ZM8.54802 12.7707L9.09215 11.6495L9.81765 11.4627L10.3618 14.2658H8.54802L8.91077 14.079L8.54802 12.7707ZM12.0436 11.5015L12.5877 11.1329L13.4946 12.6993L13.3133 14.2658H11.6809L12.0436 13.7129V11.5015Z" fill="black" style="fill:black;fill-opacity:1;"/>
</svg>
