<svg width="256" height="256" viewBox="0 0 256 256" fill="none" xmlns="http://www.w3.org/2000/svg">
<rect width="256" height="256" rx="128" fill="white" style="fill:white;fill-opacity:1;"/>
<path d="M200.424 74.6346L172.708 102.711C169.587 105.873 165.772 108.169 161.636 109.461C159.122 110.239 156.484 110.64 153.809 110.64H102.203C99.5282 110.64 96.8904 110.239 94.3763 109.461C90.2275 108.169 86.4255 105.873 83.3047 102.711C74.0535 93.3399 64.8271 83.9935 55.5883 74.622C54.7214 73.7438 53.8545 72.8782 53 72C53.1982 73.9195 53.4706 75.9769 53.8793 78.1473C54.6471 82.2999 55.836 86.8915 57.6813 91.709C58.4244 93.6536 59.2294 95.5103 60.0839 97.2918C62.2512 101.808 64.7157 105.798 67.2792 109.323C72.1091 115.947 78.6729 120.915 86.0788 123.813C90.9458 125.72 96.1844 126.724 101.535 126.724H154.465C159.816 126.724 165.054 125.707 169.921 123.813C177.327 120.915 183.878 115.96 188.721 109.323C191.284 105.81 193.749 101.808 195.916 97.3043C196.771 95.5229 197.576 93.6661 198.319 91.7216C200.164 86.9041 201.365 82.325 202.121 78.1599C202.529 75.9895 202.802 73.932 203 72.0125C202.133 72.8907 201.266 73.7689 200.412 74.6346H200.424ZM58.7588 131.629L76.9886 150.108H105.857L91.4288 164.724L102.649 176.09L128.297 150.108H178.442L196.684 131.629C190.479 125.356 180.436 125.344 174.231 131.629L171.866 134.025H83.5647L81.1993 131.629C78.1032 128.493 74.0411 126.924 69.979 126.924C65.9169 126.924 61.8549 128.493 58.7588 131.629ZM132.297 157.41L107.999 181.522L118.464 192.123C123.566 197.292 131.852 197.292 136.954 192.123L171.222 157.41H132.297Z" fill="#1A1E20" style="fill:#1A1E20;fill:color(display-p3 0.1020 0.1176 0.1255);fill-opacity:1;"/>
</svg>
