<svg width="256" height="256" viewBox="0 0 256 256" fill="none" xmlns="http://www.w3.org/2000/svg">
<rect width="256" height="256" rx="128" fill="#FEF7EB" style="fill:#FEF7EB;fill:color(display-p3 0.9961 0.9686 0.9216);fill-opacity:1;"/>
<path d="M135.574 62V69.2833C135.574 76.0062 140.547 81.5985 147.1 82.3173C151.978 82.862 156.796 83.5998 161.58 84.534V94.4393C150.607 92.1277 139.364 90.9813 127.989 90.9813C116.617 90.9813 105.355 92.1277 94.4008 94.4393V84.534C99.1848 83.5808 104.003 82.843 108.881 82.3173C115.435 81.5985 120.407 76.0062 120.407 69.2833V62C95.8313 62.9722 72.4134 68.5455 51 78.0075C53.9519 104.053 62.0894 129.928 75.7669 154.074C89.4475 178.239 107.357 198.344 128.011 214C148.643 198.344 166.553 178.22 180.233 154.074C193.911 129.928 202.029 104.076 205 78.0265C183.583 68.5835 160.169 62.9722 135.574 62.019V62ZM126.486 190.07L117.436 178.122V95.2152C120.444 95.022 123.475 94.9048 126.486 94.8668V190.07ZM138.545 178.122L129.532 190.047V94.8858C132.544 94.9048 135.556 95.022 138.545 95.2152V178.122Z" fill="#722E28" style="fill:#722E28;fill:color(display-p3 0.4471 0.1804 0.1569);fill-opacity:1;"/>
</svg>
