<svg width="20" height="20" viewBox="0 0 20 20" fill="none" xmlns="http://www.w3.org/2000/svg">
<rect width="20" height="20" rx="10" fill="#0657F9" style="fill:#0657F9;fill:color(display-p3 0.0235 0.3412 0.9765);fill-opacity:1;"/>
<path fill-rule="evenodd" clip-rule="evenodd" d="M5.95147 4.51732L5.18769 5.29552L7.0514 7.19405L8.91509 9.09262V10.8598V12.6271H10.0011H11.0872V10.8598V9.09262L12.9463 7.19866L14.8055 5.30473L14.0369 4.5225L13.2684 3.74026L11.6448 5.38979C10.7518 6.29703 10.0123 7.03928 10.0015 7.03928C9.99068 7.03928 9.25016 6.29677 8.35596 5.38922C7.4617 4.48167 6.7267 3.73914 6.72263 3.73914C6.71857 3.73914 6.37154 4.08933 5.95147 4.51732ZM5.09043 9.07849C4.84736 9.60127 4.70658 10.0518 4.61592 10.5969C4.35673 12.1555 4.76642 13.7606 5.74197 15.0085C5.90295 15.2144 6.37658 15.6967 6.57733 15.8591C7.48099 16.5902 8.50976 16.9953 9.66374 17.0743C10.354 17.1215 11.0443 17.0293 11.7222 16.7993C13.6818 16.1345 15.0966 14.4185 15.4026 12.3354C15.5203 11.5339 15.4568 10.6764 15.221 9.88569C15.1273 9.57124 14.9374 9.10021 14.8381 8.93591L14.8002 8.87312L13.9738 9.71411C13.3073 10.3925 13.1495 10.5624 13.158 10.5926C13.2262 10.8358 13.2623 11.0886 13.272 11.3895C13.2908 11.9728 13.2003 12.4442 12.9748 12.9365C12.5366 13.8936 11.6816 14.5767 10.6362 14.8049C10.4547 14.8445 10.3879 14.849 9.9919 14.8485C9.60325 14.8479 9.52693 14.8427 9.35688 14.8053C8.32041 14.5771 7.50526 13.9313 7.04539 12.974C6.83754 12.5413 6.74344 12.1409 6.72924 11.6287C6.71899 11.2583 6.73907 11.0343 6.8086 10.7427L6.85337 10.5552L6.02976 9.71606C5.57677 9.25449 5.20118 8.87688 5.19515 8.87688C5.18909 8.87688 5.14196 8.96758 5.09043 9.07849Z" fill="white" style="fill:white;fill-opacity:1;"/>
</svg>
