<svg width="20" height="24" viewBox="0 0 20 24" fill="none" xmlns="http://www.w3.org/2000/svg">
<path d="M10 24C15.5 19.5532 20 12.2766 20 5L10 0V24Z" fill="#4A9252"/>
<mask id="path-2-inside-1" fill="white">
<path fill-rule="evenodd" clip-rule="evenodd" d="M0 5C0 12.2766 4.5 19.5532 10 24C15.5 19.5532 20 12.2766 20 5L10 0L0 5Z"/>
</mask>
<path d="M10 24L8.42819 25.9441L10 27.2149L11.5718 25.9441L10 24ZM0 5L-1.11803 2.76393L-2.5 3.45492V5H0ZM20 5H22.5V3.45492L21.118 2.76393L20 5ZM10 0L11.118 -2.23607L10 -2.79508L8.88197 -2.23607L10 0ZM11.5718 22.0559C6.47967 17.9389 2.5 11.318 2.5 5H-2.5C-2.5 13.2352 2.52033 21.1675 8.42819 25.9441L11.5718 22.0559ZM11.5718 25.9441C17.4797 21.1675 22.5 13.2352 22.5 5H17.5C17.5 11.318 13.5203 17.9389 8.42819 22.0559L11.5718 25.9441ZM21.118 2.76393L11.118 -2.23607L8.88197 2.23607L18.882 7.23607L21.118 2.76393ZM1.11803 7.23607L11.118 2.23607L8.88197 -2.23607L-1.11803 2.76393L1.11803 7.23607Z" fill="#4A9252" mask="url(#path-2-inside-1)"/>
</svg>
