<svg xmlns="http://www.w3.org/2000/svg" width="186" height="186" fill="none"><mask id="b" width="186" height="186" x="0" y="0" maskUnits="userSpaceOnUse" style="mask-type:alpha"><path fill="url(#a)" d="M185.558 92.779C185.558 41.539 144.019 0 92.779 0S0 41.539 0 92.779s41.539 92.779 92.779 92.779 92.779-41.539 92.779-92.779"/></mask><g mask="url(#b)"><path fill="url(#c)" d="M185.558 92.779C185.558 41.539 144.019 0 92.779 0S0 41.539 0 92.779s41.539 92.779 92.779 92.779 92.779-41.539 92.779-92.779"/><path fill="#fff" d="M155.871 63.82c-.388 2.27-.843 3.371-1.375 4.646l-.001.003c-.575 1.381-1.227 2.95-1.817 6.06a46 46 0 0 0-.454 2.964l-.007.05-.006.047c-.164 1.29-.274 2.158-.798 3.704-.425 1.262-1.136 3.37-2.848 5.638-1.383 1.836-3.698 4.91-6.787 5.277-.268.018-.829.046-1.058-.07-8.763-4.476-16.292-7.782-18.898-8.524-3.031-.859-2.643-7.468-2.3-13.299.154-2.606.299-5.07.177-7.18-.426-7.36-1.729-15.418-8.14-19.346-3.827-2.344-8.764-3.032-13.48-3.042.873-.416 1.848-.98 2.91-1.599l.033-.019c2.777-1.608 6.225-3.605 9.651-3.956 1.12-.11 2.221-.24 3.307-.36 6.906-.783 12.873-1.455 19.166.7 2.853.98 8.705 4.244 10.216 7.275 1.064 2.14 2.859 3.808 6.44 7.137a77 77 0 0 0 3.991 3.481l.041.034c1.262 1.038 1.511 1.255 1.887 2.022 1.16 2.365.737 4.877.15 8.356M123.995 94.08c.415.142.57.646.329 1.012-.936 1.42-2.008 3.368-3.293 5.75a116 116 0 0 1-1.653 3.01c-1.698 2.916-1.836 5.37-1.944 7.34-.117 2.06-.221 3.006-1.452 3.827-1.016.681-2.057.908-9.272 2.007-1.259.195-1.818.439-2.309.653-.134.058-.267.116-.419.173-.417.156-.825-.199-.8-.642.057-1.04.094-2.339.098-3.973v-.313a41 41 0 0 0-.072-3.486c-.095-1.842-.107-2.618.384-3.42.603-.969 1.073-1.265 1.846-1.755 1.079-.678 2.559-1.611 4.749-4.62 1.164-1.595 1.422-2.459 1.583-3.206.07-.31.095-.426.991-1.105.947-.719 3.834-2.906 7.529-2.285 1.022.173 2.324.555 3.705 1.032m-28.707 33.265a.75.75 0 0 1-.606.313c-.754.032-1.284-.155-1.635-.577-.744-.906-.644-2.726-.47-3.79l3.051-.813c.24 1.615.351 3.968-.34 4.867m.246-11.011a12 12 0 0 0-.105 1.47c.004.195.006.392.012.583.006.499.026 1.291-.043 1.651-.953.347-1.767.347-2.837.328-.016-.309.004-.77.016-1.081.006-.24.019-.479.022-.707.003-.253 0-.502 0-.751-.004-.587-.012-1.549.132-1.832.287-.042.58-.105.896-.177.63-.136 1.454-.31 1.978-.231a10 10 0 0 1-.071.747m-5.648 10.072c-.147 1.564-.63 3.498-2.097 3.792-.66.136-.98-.063-1.18-.252-.991-.918-1.15-3.692-1.011-5.676.66.012 1.525-.136 2.549-.334a60 60 0 0 0 1.742-.376c.057.734.098 1.782-.003 2.846m-.693-5.615-3.31 1.161c.168-1.285.392-3.093.47-4.294.058-.846.288-1.105.354-1.161.022-.019.066-.059.189-.059l.059.003.07.01 2.09-.114c.09.983.09 3.142.078 4.454m-5.345-1.029c-.187.498-.408 1.909-.546 2.902l-4.146-.126c.234-1.284.558-2.591.914-3.632.36-1.035.748-1.811 1.105-2.029.416-.25 1.332-.306 1.893.173.912.778 1.164 1.668.78 2.712m-1.552 12.69c-.32.439-.678.662-1.12.709-.45.051-.802-.05-1.082-.312-1.302-1.202-1.196-5.14-1.148-7.033 1.72-.392 3.575-.725 4.455-.776.132 1.585.17 5.677-1.105 7.412m-5.414-10.026c-.202.54-.398 1.05-.546 1.502-.482.151-1.956.019-3.461-.313l1.035-6.525c1.7-.451 3.672-.596 4.149-.091.628.667-.634 4.005-1.177 5.427m-1.87 11.019c-.804.991-2.01 1.454-3.692 1.436-1.164-.019-1.58-.461-1.788-.792-.934-1.479-.02-4.966.896-7.193l5.616.337c.057.391.104.867.126 1.385.062 1.585-.137 3.559-1.158 4.827"/><path fill="#fff" d="M121.42 86.094c-5.056-1.432-4.621-8.825-4.2-15.97.149-2.528.29-4.92.175-6.873-.388-6.688-1.513-13.972-6.892-17.27-5.786-3.537-15.25-2.731-21.09-1.988l-.016.005h-.007c-2.139.649-4.14 1.069-5.69.987-3.447-.178-6.128-1.63-8.489-2.902-1.842-.998-3.449-1.86-4.962-1.86q-.121 0-.247.003c-4.527.294-6.608 1.4-8.498 3.087-.475.42-1.055 1.639-2.953 7.108-.958 2.764-1.135 4.276-1.313 5.746-.16 1.343-.323 2.724-1.037 4.784-.497 1.422-.864 2.648-1.219 3.83-.936 3.14-1.676 5.615-3.899 8.557-.26.348-.584.86-.958 1.443-.504.794-1.128 1.78-1.95 2.924-.582.805-1.916 3.818-1.843 4.736.11 1.462.584 2.369 1.128 3.428.541 1.044 1.157 2.226 1.27 3.858l.018.265c.198 2.589-.17 3.888-5.096 8.287a52.6 52.6 0 0 0-6.895 7.524c-.133.176.04.437.26.419q.077-.01.15-.01.141-.011.282-.011.142 0 .282.007.14.005.28.025c1.19.136 2.351.64 3.19 1.508a.52.52 0 0 0 .566.114c.802-.334 1.683-.279 2.525-.2 1.04.096 2.09.407 2.78 1.078a.87.87 0 0 0 .79.241c.814-.185 1.67-.168 2.462.12a3.96 3.96 0 0 1 1.57 1.064.935.935 0 0 0 1.176.15q.341-.222.758-.365c1.07-.363 2.252-.156 3.29.217.511.184 1.047.348 1.508.656.847.564 1.364 1.388 1.694 2.309.187.519.886.699 1.31.346.762-.634 1.365-.741 1.973-.471.31.14.526.332.671.573.253.419.768.764 1.24.632 1.654-.461 3.726-.221 5.227.583.53.278 1.051.703 1.431 1.345l.001.001q.003.004.004-.001l.044-.285a.34.34 0 0 1 .236-.275l.348-.107c.82-.261 4.998-1.465 6.623.246.07.07.192.077.26.004.221-.243.401-.376.516-.442 1.058-.642 2.873-.682 4.08.352.243.204.637.13.82-.13q.17-.239.385-.421c.424-.366.961-.541 1.556-.504l2.295-.124c.577-.032 2.371-.154 2.936-.273l.132-.024c.24-.037.523-.098.82-.16 1.113-.243 2.376-.516 3.413-.037.996.461.87 1.596.75 2.597-.047.406-.098.83-.094 1.233q.01.281.014.57c.015.863.033 1.66-.138 2.272v.007l.105.474.016.069c.094.434.56.676.94.445.8-.488 1.64-1.122 1.894-1.487a.4.4 0 0 0 .045-.089c.035-.092.1-.291.171-.707.142-.853.301-2.586.315-6.105 0-.186 0-.319.004-.381a40 40 0 0 0-.073-3.279c-.094-1.908-.171-3.409.776-4.937.922-1.487 1.817-2.049 2.677-2.594 1-.627 2.129-1.339 4.03-3.946.932-1.284 1.047-1.802 1.138-2.216.207-.97.527-1.552 1.966-2.64 1.172-.885 4.737-3.587 9.547-2.778 1.577.268 4.134 1.109 6.657 2.103h.007c.094.029.191.062.28.109q.048.026.099.047c2.254.9 4.447 1.905 5.852 2.708.327.187.746.079.976-.22.46-.597.962-.943 1.503-1.268.203-.123.359-.217.508-.344l.15-.125c.42-.34.419-1.067-.062-1.315-6.779-3.505-13.164-5.462-15.274-6.062M73.242 87.65c-1.564 6.844-12.166 14.367-16.985 14.367h-.095a2.5 2.5 0 0 1-.543-.091c-.05-.015-.106-.033-.16-.047-.875-.276-2.086-.948-3.003-1.85-.63-.62-1.128-1.35-1.284-2.137l-.088-.413c-.26-1.164-.584-2.618.443-4.998q.212-.48.384-.89l.113-.267q.163-.386.294-.707a44 44 0 0 0 .471-1.222c.294-.823.33-1.131.37-1.45.037-.25.073-.556.175-.991.301-1.284.457-2.372.595-3.341.247-1.742.461-3.246 1.4-4.628q.239-.354.537-.638a7 7 0 0 1 .206-.19c.073-.061.146-.115.217-.17q.341-.24.736-.421.137-.062.272-.112.279-.103.585-.18 1.296-.314 3.053-.093c1.281.102 2.467.344 3.518.638a22 22 0 0 1 2.525.87q.19.075.37.157.272.114.504.217l.563.253.156.073c.74.337 1.376.707 1.92 1.095.267.197.518.396.742.598q.116.099.217.207.11.105.207.208c2.037 2.145 1.936 4.626 1.585 6.153m4.913-25.941-.206 1.24c-.475 2.797-1.567 6.63-5.593 7.618-3.873.947-4.79 1.149-7.548 1.273-.06.007-.127.007-.192.007-2.013 0-5.887-1.27-6.573-4.425-.439-2.031.457-3.503 1.933-5.944.246-.403.512-.835.794-1.317 1.951-3.287 2.72-5.666 3.338-7.574.601-1.864 1.102-3.405 2.39-4.682a7.1 7.1 0 0 1 1.813-1.31q.549-.275 1.153-.468a9.4 9.4 0 0 1 2.833-.431c1.878 0 3.754.54 5.092 1.614.602.482 1.458 1.446 1.955 4.29.256 1.465-.18 4.157-1.189 10.109m28.723 7.958c-1.386 2.379-2.144 3.689-3.341 4.67-2.375 1.952-5.146 2.446-7.428 2.446-1.639 0-3.03-.253-3.85-.403-2.359-.431-6.747-1.23-8.209-4.693-.286-.685-.289-1.12-.289-1.672 0-.545 0-1.461-.254-3.642l-.014-.145c-.117-.987-.247-2.104.036-3.537l.033-.171c.827-4.206 1.051-4.85 1.237-5.212a1.69 1.69 0 0 1 2.27-.728 1.69 1.69 0 0 1 .758 2.204c-.084.239-.319 1.135-.958 4.389l-.033.17c-.182.919-.102 1.615.004 2.497l.014.149c.275 2.368.275 3.44.275 4.022 0 .103 0 .215.004.282.001.026.014.06.022.085.274.65.892 1.143 1.645 1.522.468.235.957-.212.853-.725-.749-3.707-.708-8.031.708-10.703.464-.887 1.322-2.34 2.137-3.694l.007-.011.007-.011.247-.408q.106-.174.202-.337c.36-.596.696-1.143.966-1.578a5 5 0 0 1 .185-.302l.157-.257.061-.102q.017-.023.026-.04a2 2 0 0 1 .073-.116q.066-.104.094-.153l.004-.008.016-.025.007-.011q.423-.615.83-1.164c.366-.497-.059-1.148-.63-.914a11 11 0 0 0-2.508 1.429 1.68 1.68 0 0 1-2.365-.268 1.69 1.69 0 0 1 .272-2.372c.867-.681 5.462-4.033 10.965-2.46 3.965 1.129 6.043 4.158 6.826 5.297.631.925 2.565 3.733 2.503 7.653-.046 2.99-1.293 5.14-3.565 9.047"/><path fill="#fff" d="M71.142 49.164c-.282.682-.619 1.527-.981 2.445-.846 2.126-1.805 4.534-2.266 5.407-.795 1.51-1.414 2.461-1.908 3.228-.566.881-1.017 1.578-1.357 2.55-.597 1.7-.704 3.6-.316 5.666-1.054-.116-2.779-.842-2.974-1.757-.146-.68.277-1.426 1.524-3.477.25-.409.518-.854.811-1.349 2.143-3.609 3.01-6.294 3.648-8.257.688-2.136 1.013-3.032 2.108-3.78.49-.34 1.086-.558 1.711-.676m-2.097 75.684c-1.168 2.386-2.622 4.588-3.528 5.679-.75-2.028-2.054-6.675-1.71-10.414a5 5 0 0 1 .038-.319c.138-1.155.445-2.214.99-3.063.36-.558 1.358-.899 2.49-.899.836 0 1.745.183 2.528.603h.006c.419.224.99.678 1.05 1.997.086 1.782-.763 4.177-1.864 6.416"/><path fill="#fff" d="M133.042 98.11c.09.073.147.183.095.287-.349.701-.767 1.194-1.261 1.773-.596.71-1.278 1.514-1.912 2.769-.903 1.779-1.192 3.403-1.344 7.558-.179 4.881.01 7.622.152 9.621.135 1.931.218 3.095-.126 4.978-.694 3.799-2.319 6.314-4.377 9.497-2.575 3.981-5.238 8.097-9.648 9.409-.41.126-.424.125-1.574.129-1.001 0-2.666.005-5.818.121-5.761.209-8.651.313-11.124.788-2.594.502-3.947 1.053-5.26 1.583-1.183.479-2.302.934-4.447 1.375-1.28.258-3.19.541-9.702.551-6.768.012-10.854.015-16.25-.6-7.401-.845-11.117-1.268-13.585-2.586-5.821-3.105-8.28-8.689-12.345-17.94l-.021-.05c-.05-.115.09-.225.198-.161q.289.182.606.29.268.095.55.142c.372.063.76.067 1.154 0a1 1 0 0 0 .193-.054l.035-.015a.133.133 0 0 1 .183.065c.259.713.67 1.348 1.36 1.714.69.36 1.477.387 2.246.381a23 23 0 0 0 2.379-.151c.418-.044.846.16 1.006.549.723 1.752 1.618 3.02 2.963 3.207.073.01.168.023.288.023.303 0 .77-.088 1.43-.542.512-.35 1.303-.145 1.67.354.336.455.736.783 1.08 1.059 1.385 1.422 4.75 2.104 7.578 2.104 1.542 0 2.925-.203 3.739-.599 1.164-.565 1.164-1.433 1.107-1.784a56 56 0 0 1-.265-1.871c-.01-.074.103-.103.133-.034.169.369.376.829.927.918.06.006.127.02.203.02.788 0 2.014.256 2.225 1.015.108.387.26.749.467 1.076.473.749 1.436 1.641 3.345 1.673h.148c2.192 0 3.884-.717 5.025-2.134q.111-.137.213-.28c.41-.578 1.628-.603 2.149-.123.587.543 1.326.823 2.149.823q.198.001.404-.022c.98-.104 1.83-.623 2.464-1.51.415-.579.718-1.291.939-2.061.065-.227.377-.295.55-.136a2.96 2.96 0 0 0 2.06.798q.356.002.765-.082c1.904-.383 2.852-1.959 3.3-3.738.016-.06.102-.076.142-.029.482.587 1.372 1.265 2.92 1.265q.12.001.243-.004a2.62 2.62 0 0 0 2.01-1.042c.607-.791.846-1.963.9-3.143a.9.9 0 0 1 .557-.78c1.634-.683 3.613-2.154 4.193-3.156l.06-.11c.133-.258.361-.461.646-.515 1.266-.24 1.818-.48 2.32-.698.409-.18.738-.322 1.658-.465 7.32-1.117 8.749-1.363 10.333-2.419 2.369-1.58 2.489-3.754 2.606-5.858.1-1.779.214-3.799 1.596-6.168.502-.865 1.081-1.944 1.697-3.086 1.078-1.999 2.584-4.797 3.662-6.264a.735.735 0 0 1 .886-.23c2.53 1.076 4.685 2.152 5.152 2.526"/><path fill="#fff" d="M61.955 119.892c-.29 2.531-.467 5.912-.057 10.316a65 65 0 0 0 .48 3.84c-.348.189-1.384.454-3.226.425-2.647-.053-5.224-.719-5.998-1.556l-.12-.108c-.644-.517-1.066-.858-1.126-1.782-.02-.312.114-.621.4-1.058.158-.246.366-.53.624-.88.445-.597.997-1.341 1.562-2.301 1.657-2.799 2.285-3.663 3.083-4.755q.095-.132.2-.268a60 60 0 0 0 1.851-2.679 54 54 0 0 1 1.556-2.253c.707-.961 1.17-1.483 1.467-1.767a28 28 0 0 1-.237 1.613c-.14.869-.317 1.932-.459 3.213m-1.217-39.347q-.026.033-.05.067c-.345.477-.739 1.016-1.209 2.066-1.262 2.805-1.286 4.393-1.306 5.67-.012.67-.019 1.202-.202 1.824-.126.41-.33.88-.568 1.422-.744 1.704-1.716 3.938-1.28 6.944-.603-.29-1.525-.953-1.653-1.306a15 15 0 0 0-.104-.486c-.209-.938-.347-1.549.25-2.922 1.567-3.616 1.76-4.473 1.883-5.458.025-.215.051-.382.114-.654.331-1.426.504-2.647.646-3.628.211-1.489.353-2.474.855-3.215.183-.274.701-.416 1.442-.416.293 0 .624.022.985.073l.084.006q.056.005.113.013m-2.061 35.67c-.085-.867-.237-1.736-.552-2.553-.022-.041-.116-.25-.136-.29-.057-.104-.122-.202-.183-.305q-.006-.004-.006-.007c-.004-.006-.006-.006-.006-.009l-.1-.111a2 2 0 0 0-.162-.145 1 1 0 0 0-.132-.101l-.195-.106a1 1 0 0 0-.11-.048s-.004 0-.004-.003l-.028-.01q-.014-.009-.022-.012l-.022-.006q-.007-.002-.006-.004c-.02-.01-.032-.012-.04-.016-.506-.185-1.018-.388-1.554-.467l-.019-.003h-.012c-.06 0-.183-.012-.189-.012a2 2 0 0 0-.22 0q-.054 0-.102.003h-.028l-.043.004c-.006.006-.016.006-.02.006h-.006c-.12.035-.246.067-.366.104-.05.026-.107.051-.158.083-.043.025-.088.057-.132.079-.003.003-.009.009-.016.009l-.009.01c-.057.057-.117.11-.174.167-.019.02-.072.085-.11.133q-.015.009-.016.018l-.006.006c-.003.003-.003.006-.01.009q-.003.007-.006.007l-.037.063q-.303.472-.619.939-.73 1.118-1.489 2.222l-1.379 1.997a184 184 0 0 0-.886 1.303l.902.173c.678.124 1.353.243 2.041.337 1.416.193 2.856.282 4.291.231a1 1 0 0 1 .202.012c.345-.492.751-1.079 1.27-1.865q.43-.658.818-1.221a1.44 1.44 0 0 1-.214-.621m-5.046 5.852c-.122 1.092-1.344 3.918-3.25 6.609-1.596 2.25-2.565 2.796-2.758 2.815-.77-.107-1.53-2.013-2.133-3.903a82 82 0 0 1-.644-2.17c-.413-1.438-.488-3.367-.416-4.578 1.61.892 4.436 1.132 8.406 1.148h.012q.392.044.783.079m-2.821-8.991v.006l-.053.079a612 612 0 0 1-2.057 3 201 201 0 0 0-1.06 1.547c-.192.281-.45.59-.675.924-.565-.133-1.129-.262-1.688-.42a14 14 0 0 1-1.35-.451 3 3 0 0 1-.257-.107 1.1 1.1 0 0 0-.303-.382c.003-.003.003-.012.006-.016l.486-.987c.306-.602.613-1.201.953-1.782.607-1.048 1.338-2.114 2.364-2.793q.078-.056.161-.107c.398-.25.796-.426 1.284-.486.057-.006.401-.004.562.01l.067.003h.003l.07.022c.12.038.24.063.36.104l.12.06c.104.063.211.12.31.199-.159-.12.217.268.217.24.303.419.395.77.48 1.337m-5.405-2.844c-1.262 1.038-2.18 2.42-2.946 3.858-.43.798-.818 1.612-1.222 2.423a4 4 0 0 1-.129.243 13 13 0 0 1-1.137-.312 10 10 0 0 1-1.17-.447 16 16 0 0 1-.52-.259c.378-.716.83-1.404 1.26-2.072a29 29 0 0 1 1.974-2.742c.268-.331.552-.694.928-.912.384-.227.85-.173 1.29-.148.467.029.97.041 1.41.218.091.039.19.1.262.15m-2.004 16.936a1 1 0 0 0-.163.177c-.044.012-.089.022-.117.029-.303.031-.612.053-.918.073-.587.037-1.183.063-1.776.041-.33-.012-.63-.063-.767-.274-.218-.331-.284-.909-.362-1.348a21.9 21.9 0 0 1-.164-6.581c1.126.404 2.285.717 3.473.912-.256 1.966.18 4.852.435 5.736.12.411.24.827.36 1.235m-3.626-17.654a34 34 0 0 0-2.72 3.877c-.329.549-.7 1.117-.975 1.704a4.3 4.3 0 0 1-1.129-.502c-.29-.18-.572-.379-.846-.587-.069-.057-.258-.205-.376-.3q-.04-.033-.082-.059c.091-.258.258-.546.35-.739.21-.457.442-.906.686-1.343a18 18 0 0 1 1.568-2.36c.218-.272.425-.622.764-.723.31-.088.716-.047.965-.004a3.02 3.02 0 0 1 1.795 1.036m-7.679 5.311c.014-.052.081-.059.112-.015.262.373.627.697 1.02 1.002q.261.201.525.39a.07.07 0 0 1 .026.07c-.413 1.711-.696 3.528-.69 5.318 0 .079-.12.095-.138.018-.505-2.084-1.19-5.558-.855-6.783m4.88 3.723c-.202 1.489-.3 2.982-.234 4.483a26 26 0 0 0 .234 2.47v.004a1.5 1.5 0 0 0-.551-.02c.037-.012-.06-.006-.101-.006h-.012c-.028-.003-.07-.006-.083-.009-.208-.051-.226-.073-.391-.177a2.05 2.05 0 0 1-.593-.65c-.401-.694-.49-1.537-.521-2.323a20.4 20.4 0 0 1 .36-4.593c.247.1.46.192.818.346.353.154.719.306 1.076.471v.004z"/><g stroke-miterlimit="10" filter="url(#d)" opacity=".8"><path stroke="url(#e)" stroke-width="1.055" d="M76.352 196.467c-6.795 0-13.24-.429-18.648-.85l-1.49-.116-1.49-.207c-.65-.092-1.536-.187-2.39-.28-5.203-.566-14.879-1.62-25.56-6.636l-1.659-.782-1.547-.866C3.04 175.223-4.642 157.906-8.78 148.596c-.263-.591-.583-1.311-.883-1.974-2.089-4.274-3.409-8.127-4.529-11.654l-.249-.788-.207-.765c-2.98-10.59-3.733-19.735-2.368-28.778 1.368-9.08 4.732-17.341 10.575-25.988l3.03-4.948a10 10 0 0 0 1.283-3.25C.182 59.004 5.424 50.894 8 47.02a72 72 0 0 1 3.49-13.755l.24-.676.257-.66c.042-.115.096-.28.195-.578 1.157-3.485 3.87-11.641 10.816-20.205l2.61-3.16 2.657-2.401A61.6 61.6 0 0 1 52.068-7.852a67.2 67.2 0 0 1 15.165-2.682l.497-.037.75-.035a56 56 0 0 1 2.638-.062 56 56 0 0 1 9.572.806 10.63 10.63 0 0 0 5.854-.67 67 67 0 0 1 17.132-4.6c.492-.07.921-.123 1.259-.167.929-.116 2.405-.29 4.189-.46 3.11-.297 7.879-.651 13.049-.651 10.096 0 18.787 1.308 26.567 3.998l.662.23.647.243c17.169 6.488 25.909 15.552 32.195 23.548l.298.38.865.77a59.9 59.9 0 0 1 14.254 16.034l1.172 1.928.989 2.022c8.398 17.142 5.729 32.97 4.723 38.917l-.054.318a68 68 0 0 1-3.436 12.856 65.7 65.7 0 0 1-2.824 11.805 68.5 68.5 0 0 1-9.746 19.059 68 68 0 0 1-8.211 9.588 6.68 6.68 0 0 0-1.972 3.872q-.196 1.362-.45 2.695c-2.462 13.205-8.237 22.395-10.594 26.055l-7.127 10.236c-8.583 10.693-18.767 17.746-31.09 21.536l-2.986.936-3.225.561a63.5 63.5 0 0 1-11.174.967c-.517 0-1.037 0-1.614-.015h-.166l-.636.04-.682.025h-.019a16.5 16.5 0 0 0-4.212.694c-7.96 2.435-16.964 3.579-27.975 3.579Z" opacity=".8"/><path stroke="url(#f)" stroke-width="1.055" d="M76.354 189.429c-6.511 0-12.756-.415-18.005-.829l-1.244-.096-1.244-.172c-.776-.108-1.723-.207-2.638-.311-5.053-.549-13.501-1.468-22.932-5.891l-1.385-.651-1.288-.724C9.503 170.595 2.8 155.509-1.205 146.493c-.286-.643-.637-1.433-.964-2.15-1.866-3.828-3.09-7.364-4.123-10.617l-.207-.656-.18-.638c-2.65-9.419-3.335-17.456-2.153-25.298 1.182-7.843 4.16-15.09 9.354-22.73l3.882-6.338a10.6 10.6 0 0 0 1.389-3.66c1.933-10.77 7.02-18.404 9.332-21.88l.292-.44.108-.173a8 8 0 0 0 .137-.317q.211-.689.415-1.325a63.2 63.2 0 0 1 3.203-12.95l.208-.564.222-.566c.07-.18.136-.375.33-.96 1.102-3.318 3.394-10.206 9.389-17.597L31.604 15l2.208-1.997A53.4 53.4 0 0 1 54.45 1.354a59.3 59.3 0 0 1 13.368-2.35l.415-.032.622-.03a48 48 0 0 1 2.248-.051c3.25-.006 6.493-.942 9.678-.288 2.457.508 5.012.236 7.307-.778 4.288-1.891 10.06-2.646 16.67-3.47.471-.068.881-.12 1.2-.16.869-.11 2.259-.273 3.94-.432 2.924-.28 7.424-.622 12.262-.622 9.159 0 16.962 1.159 23.857 3.543l.551.19.539.209c15.219 5.75 22.74 13.447 28.6 20.91.325.415.659.84.783.987l.139.124 1.112.99.149.153a51.4 51.4 0 0 1 12.67 14.115l.975 1.607.829 1.684c7.224 14.745 4.96 28.16 3.994 33.889l-.052.305a60 60 0 0 1-3.347 12.168 57.3 57.3 0 0 1-2.596 11.233 60.6 60.6 0 0 1-8.62 16.864 59 59 0 0 1-8.728 9.85 8.23 8.23 0 0 0-2.685 5.265 54 54 0 0 1-.641 4.369c-2.171 11.656-7.245 19.718-9.568 23.328l-5.773 8.392c-7.672 9.858-16.763 16.305-27.776 19.7l-2.488.779-2.696.467c-3.217.568-6.479.85-9.746.844-.475 0-.96 0-1.482-.013h-.457s-.103 0-.315.015l-.57.035-.574.021-1.147.043a16.6 16.6 0 0 0-4.463.776c-7.332 2.341-15.805 3.446-26.281 3.446Z" opacity=".8"/><path stroke="url(#g)" stroke-width=".989" d="M76.354 181.139c-6.22 0-12.272-.404-17.365-.8l-.993-.077-.99-.137c-.899-.124-1.909-.234-2.886-.342-4.829-.525-12.122-1.319-20.3-5.155l-1.11-.52-1.037-.579c-15.709-8.807-21.478-21.798-25.298-30.395-.325-.736-.694-1.566-1.036-2.335-1.659-3.374-2.767-6.592-3.71-9.572l-.166-.523-.145-.513c-2.32-8.244-2.934-15.175-1.935-21.809 1.014-6.727 3.656-12.998 8.31-19.738l.553-.8.6-.768q.563-.722 1.096-1.421l2.335-4.282a13.8 13.8 0 0 0 1.528-4.498c1.485-9.606 6.113-16.547 8.25-19.748l.01-.018c.122-.183.28-.415.36-.543l.456-.727c.18-.39.415-.908.622-1.453.208-.649.455-1.45.724-2.28a54.4 54.4 0 0 1 2.891-11.988l.161-.452.177-.456c.15-.38.26-.71.475-1.358 1.022-3.071 2.917-8.771 7.958-14.99l1.744-2.11 1.761-1.59a45.2 45.2 0 0 1 17.47-9.861 51 51 0 0 1 11.571-2.02l.331-.025.504-.023a40 40 0 0 1 1.866-.043 39.5 39.5 0 0 1 9.995 1.27c2.826.716 5.814.4 8.427-.89 4.183-2.03 9.778-4.183 16.332-4.988q.675-.096 1.139-.153a164 164 0 0 1 3.689-.415c2.743-.263 6.961-.576 11.473-.576 8.222 0 15.137 1.009 21.151 3.087l.442.153.431.162c13.978 5.284 20.236 12.204 25.004 18.273 1.051 1.337 1.21 1.544 1.932 2.186l.89.791.346.355c2.3 1.782 7.003 5.45 11.119 12.234l.781 1.285.66 1.346c6.051 12.348 4.168 23.5 3.264 28.861l-.05.296a52.2 52.2 0 0 1-3.264 11.456l-.041.337a49.6 49.6 0 0 1-2.321 10.346 52.5 52.5 0 0 1-7.496 14.673 49.4 49.4 0 0 1-9.717 10.358 7.93 7.93 0 0 0-2.99 5.829 48 48 0 0 1-.763 6.602c-1.879 10.107-6.291 17.114-8.543 20.612l-4.475 6.613c-6.746 9.005-14.742 14.834-24.405 17.797l-1.988.622-2.151.374a47.3 47.3 0 0 1-8.329.721c-.434 0-.875 0-1.352-.012h-.587c-.081 0-.328 0-.83.031l-.456.029-.441.017-2.306.085a16.8 16.8 0 0 0-4.747.855c-6.716 2.263-14.64 3.327-24.605 3.327Z" opacity=".8"/><path stroke="url(#h)" stroke-width=".923" d="M76.353 172.843c-5.945 0-11.79-.392-16.72-.775l-.746-.058-.744-.102c-1.018-.141-2.09-.259-3.129-.371-4.539-.496-10.746-1.17-17.674-4.419l-.829-.392-.774-.433c-13.304-7.465-18.198-18.478-21.773-26.526-.37-.829-.757-1.702-1.138-2.538-1.52-3.056-2.488-5.991-3.293-8.502l-.124-.392-.108-.383c-3.89-13.825-2.428-23.523 5.215-34.588l.415-.602.45-.576c.508-.65.983-1.273 1.451-1.866.705-.925 1.42-1.867 2.196-2.835a7.7 7.7 0 0 0 1.155-1.995l.877-2.24c.372-.952.605-1.952.693-2.971.761-8.87 5.074-15.334 7.21-18.538l.012-.017c.156-.236.392-.588.471-.715l.5-.798.153-.208c.266-.537.786-1.671 1.244-2.86.247-.812.637-2.06 1.018-3.195 0-.043 0-.091.017-.141a46.4 46.4 0 0 1 2.551-10.88l.122-.34.133-.342c.232-.591.396-1.085.622-1.767.912-2.741 2.438-7.33 6.528-12.373l1.308-1.584 1.313-1.186c9.658-8.764 20.466-9.52 24.078-9.763l.25-.02.381-.017c.491-.023.983-.033 1.464-.033 4.288.015 8.531.882 12.481 2.552a5.13 5.13 0 0 0 4.377-.207h.021c3.672-2.13 10.4-5.991 18.976-7.024.414-.062.796-.11 1.076-.145a123 123 0 0 1 3.44-.38c2.563-.244 6.499-.536 10.683-.536 7.285 0 13.315.862 18.437 2.633l.332.114.323.123c11.979 4.526 17.145 10.206 21.408 15.635 1.147 1.45 1.659 2.125 2.943 3.257l.667.595.535.55.415.328c2.03 1.57 5.806 4.497 9.157 10.009l.587.964.495 1.01c4.873 9.953 3.349 18.98 2.53 23.832l-.047.288a44 44 0 0 1-2.991 10.256l-.118.282-.054.28c-.064.334-.101.6-.145.938l-.05.38a41.3 41.3 0 0 1-1.951 8.739 44.6 44.6 0 0 1-6.368 12.479c-2.737 3.886-5.806 7.051-9.25 9.556a12.08 12.08 0 0 0-4.956 9.584 41 41 0 0 1-.683 6.959c-1.588 8.562-5.242 14.36-7.516 17.893l-3.252 4.875c-5.823 8.135-12.692 13.33-20.96 15.861l-.437.137a16.5 16.5 0 0 1-2.142.519l-.525.091a39 39 0 0 1-6.909.599c-.392 0-.79 0-1.222-.01h-.717c-.162 0-.589 0-1.361.048l-.342.02-.334.013c-1.109.041-2.488.089-3.718.143a16.6 16.6 0 0 0-4.937.968c-5.95 2.126-13.234 3.133-22.673 3.133Z" opacity=".8"/><path stroke="url(#i)" stroke-width=".858" d="M76.349 164.549c-5.663 0-11.305-.379-16.078-.75l-.498-.038-.496-.07a112 112 0 0 0-3.378-.4c-4.172-.454-9.364-1.02-15.042-3.683l-.555-.261-.515-.288c-10.898-6.111-14.971-15.285-18.247-22.657-.403-.908-.83-1.845-1.245-2.758-1.283-2.561-2.152-5.184-2.865-7.429l-.083-.26-.073-.255c-3.21-11.405-2.15-18.644 4.056-27.63l.276-.4.3-.382c.542-.693 1.037-1.34 1.51-1.964 1.62-2.124 3.177-4.168 5.506-6.654.51-.546.816-1.252.864-1.997l.177-2.684-.07-.88.032-.911c.243-7.36 3.94-12.896 5.918-15.87.229-.344.467-.698.608-.924l.334-.531.309-.415c.369-.603 1.339-2.66 2.073-4.634.253-.83.743-2.412 1.174-3.667.127-.4.139-.497.243-1.356a38.4 38.4 0 0 1 2.129-9.09l.08-.23.09-.23c.307-.783.52-1.423.768-2.166.78-2.351 1.959-5.895 5.099-9.766l.875-1.058.866-.784c6.767-6.144 14.138-7.307 19.113-7.641l.168-.015h.257q.542-.024 1.072-.024c4.249 0 9.33 2.038 12 3.27a5.33 5.33 0 0 0 4.089.147 39.5 39.5 0 0 0 4.844-2.132c3.395-1.97 9.027-5.223 16.021-6.038.386-.058.732-.102 1.018-.14a199 199 0 0 1 3.187-.35c2.385-.228 6.037-.5 9.896-.5 6.345 0 11.49.714 15.726 2.178l.22.077.207.08c10.005 3.78 13.987 8.125 17.817 13 1.244 1.572 2.123 2.696 3.95 4.33l.444.396.414.415a10 10 0 0 0 1.201 1.014c1.717 1.329 4.595 3.556 7.148 7.759l.39.643.331.674c3.7 7.55 2.511 14.592 1.8 18.799l-.047.286a36 36 0 0 1-2.466 8.442v.02a8.2 8.2 0 0 0-.661 2.2c-.1.532-.162.959-.222 1.432l-.05.385a33.5 33.5 0 0 1-1.582 7.129 36 36 0 0 1-5.244 10.286c-3.38 4.821-7.287 8.213-11.994 10.368a6.82 6.82 0 0 0-3.982 5.905c-.022.515-.031.938-.016 1.174.232 3.627.495 7.737-.313 11.971-1.296 7.003-4.262 11.71-6.491 15.166 0 0-10.227 14.234-19.533 17.075l-1.002.313-1.076.188a31 31 0 0 1-5.487.475c-.348 0-.705 0-1.088-.01h-.851c-.365 0-.96 0-1.885.064l-.226.015h-.223c-3.561.128-6.926.249-7.862.431-.5.078-.988.221-1.451.427-5.267 2.308-12.174 3.388-21.703 3.388Z" opacity=".8"/><path stroke="url(#j)" stroke-width=".858" d="M76.355 156.258c-5.379 0-10.822-.367-15.438-.726l-.247-.019-.247-.035a125 125 0 0 0-3.622-.431c-3.928-.428-7.99-.869-12.417-2.945l-.278-.133-.257-.143c-8.502-4.769-11.66-11.892-14.723-18.789-.435-.978-.885-1.99-1.35-2.996-1.037-2.049-1.77-4.247-2.43-6.329l-.042-.128-.037-.131c-2.552-9.078-1.903-13.713 2.903-20.666l.14-.207.148-.193c.564-.719 1.077-1.391 1.57-2.04 2.31-3.03 4.307-5.65 8.782-9.78l.012-.012a2.34 2.34 0 0 0 .591-2.488l-.806-2.3a17 17 0 0 1-.34-2.2v-.025l-.05-.622.016-.456c.164-4.995 2.792-8.933 4.53-11.54.271-.415.53-.794.731-1.118l.166-.265.187-.251c.923-1.244 2.422-4.688 3.21-6.822.207-.657.738-2.422 1.18-3.701.314-.963.518-1.957.607-2.966a30 30 0 0 1 1.705-7.305l.041-.116.046-.114a52 52 0 0 0 .914-2.578c.695-2.088 1.481-4.456 3.668-7.154l.44-.531.43-.387c4.806-4.367 10.075-5.247 14.14-5.516h.217c.228 0 .456-.015.682-.015 3.955 0 6.995 1.622 9.006 2.696l.47.249.07.037c.551.299 1.036.56 1.486.782a5.73 5.73 0 0 0 4.037.415c2.754-.741 7.051-2.37 9.941-3.96l.06-.034c3.04-1.763 7.619-4.417 12.985-5.006.338-.054.662-.093.967-.133a81 81 0 0 1 2.925-.321c2.207-.207 5.576-.462 9.108-.462 5.408 0 9.665.564 13.016 1.72l.11.04.112.042c8.027 3.033 10.955 6.208 14.216 10.368 1.328 1.69 2.582 3.286 4.961 5.404l.221.207.208.207a17.4 17.4 0 0 0 2.073 1.786c1.427 1.105 3.382 2.619 5.139 5.509l.195.322.166.338c2.523 5.153 1.683 10.133 1.07 13.768l-.048.287a27.4 27.4 0 0 1-1.956 6.658 16 16 0 0 0-1.148 3.836c-.145.767-.23 1.367-.301 1.922l-.05.394a25.6 25.6 0 0 1-1.213 5.52 27.8 27.8 0 0 1-4.118 8.087c-3.048 4.376-6.428 7.074-10.918 8.502a9.8 9.8 0 0 0-5.24 3.969l-.356.548-.394.45c-1.141 1.298-.819 6.328-.622 9.331.207 3.295.429 6.702-.187 9.91-1.012 5.484-3.361 9.186-5.464 12.441 0 0-7.809 11.266-14.855 13.406l-.513.162-.539.093a22.5 22.5 0 0 1-4.066.353h-1.939c-.479 0-1.244 0-2.409.081h-.224c-4.726.172-7.577.273-9.153.58a14 14 0 0 0-3.086.923c-4.22 1.871-10.113 2.746-18.515 2.746Z" opacity=".8"/></g></g><defs><linearGradient id="e" x1="-17.672" x2="194.956" y1="-16.41" y2="206.755" gradientUnits="userSpaceOnUse"><stop offset=".206" stop-color="#89D0FF"/><stop offset=".398" stop-color="#EBBF9A"/><stop offset=".602" stop-color="#EB8280"/><stop offset=".841" stop-color="#A281FF"/></linearGradient><linearGradient id="f" x1="-9.39" x2="186.629" y1="-6.859" y2="199.716" gradientUnits="userSpaceOnUse"><stop offset=".206" stop-color="#89D0FF"/><stop offset=".398" stop-color="#EBBF9A"/><stop offset=".602" stop-color="#EB80DA"/><stop offset=".841" stop-color="#A281FF"/></linearGradient><linearGradient id="g" x1="-1.079" x2="178.329" y1="1.437" y2="191.418" gradientUnits="userSpaceOnUse"><stop offset=".206" stop-color="#89D0FF"/><stop offset=".398" stop-color="#EBBF9A"/><stop offset=".602" stop-color="#EB8280"/><stop offset=".841" stop-color="#A281FF"/></linearGradient><linearGradient id="h" x1="7.218" x2="169.977" y1="9.762" y2="183.098" gradientUnits="userSpaceOnUse"><stop offset=".206" stop-color="#89D0FF"/><stop offset=".398" stop-color="#EBBF9A"/><stop offset=".602" stop-color="#EB80E7"/><stop offset=".841" stop-color="#A281FF"/></linearGradient><linearGradient id="i" x1="15.508" x2="161.649" y1="18.055" y2="174.733" gradientUnits="userSpaceOnUse"><stop offset=".206" stop-color="#89D0FF"/><stop offset=".398" stop-color="#EBBF9A"/><stop offset=".602" stop-color="#EB80D3"/><stop offset=".841" stop-color="#A281FF"/></linearGradient><linearGradient id="j" x1="23.797" x2="153.307" y1="26.348" y2="166.431" gradientUnits="userSpaceOnUse"><stop offset=".206" stop-color="#89D0FF"/><stop offset=".398" stop-color="#EBBF9A"/><stop offset=".602" stop-color="#A280EB"/><stop offset=".841" stop-color="#A281FF"/></linearGradient><radialGradient id="a" cx="0" cy="0" r="1" gradientTransform="rotate(90 -4.862 97.64)scale(104.235)" gradientUnits="userSpaceOnUse"><stop offset=".167" stop-color="#073183"/><stop offset="1" stop-color="#0054F9"/></radialGradient><radialGradient id="c" cx="0" cy="0" r="1" gradientTransform="rotate(90 -4.862 97.64)scale(104.235)" gradientUnits="userSpaceOnUse"><stop offset=".167" stop-color="#073183"/><stop offset="1" stop-color="#0054F9"/></radialGradient><filter id="d" width="224.748" height="214.327" x="-18.203" y="-16.938" color-interpolation-filters="sRGB" filterUnits="userSpaceOnUse"><feFlood flood-opacity="0" result="BackgroundImageFix"/><feBlend in="SourceGraphic" in2="BackgroundImageFix" result="shape"/><feColorMatrix in="SourceAlpha" result="hardAlpha" values="0 0 0 0 0 0 0 0 0 0 0 0 0 0 0 0 0 0 127 0"/><feOffset dx=".264" dy=".396"/><feGaussianBlur stdDeviation=".33"/><feComposite in2="hardAlpha" k2="-1" k3="1" operator="arithmetic"/><feColorMatrix values="0 0 0 0 0 0 0 0 0 0 0 0 0 0 0 0 0 0 0.12 0"/><feBlend in2="shape" result="effect1_innerShadow_16934_507"/></filter></defs></svg>