<svg width="186" height="186" viewBox="0 0 186 186" fill="none" xmlns="http://www.w3.org/2000/svg">
<mask id="mask0_16934_507" style="mask-type:alpha" maskUnits="userSpaceOnUse" x="0" y="0" width="186" height="186">
<path d="M185.558 92.779C185.558 41.5386 144.019 0 92.779 0C41.5386 0 0 41.5386 0 92.779C0 144.019 41.5386 185.558 92.779 185.558C144.019 185.558 185.558 144.019 185.558 92.779Z" fill="url(#paint0_radial_16934_507)"/>
</mask>
<g mask="url(#mask0_16934_507)">
<path d="M185.558 92.779C185.558 41.5386 144.019 0 92.779 0C41.5386 0 0 41.5386 0 92.779C0 144.019 41.5386 185.558 92.779 185.558C144.019 185.558 185.558 144.019 185.558 92.779Z" fill="url(#paint1_radial_16934_507)"/>
<path d="M155.871 63.8194C155.483 66.0904 155.028 67.1914 154.496 68.4664L154.495 68.4694C153.92 69.8504 153.268 71.4184 152.678 74.5294C152.443 75.7744 152.326 76.6884 152.224 77.4934L152.217 77.5434L152.211 77.5904C152.047 78.8794 151.937 79.7484 151.413 81.2944C150.988 82.5564 150.277 84.6634 148.565 86.9324C147.182 88.7684 144.867 91.8414 141.778 92.2094C141.51 92.2274 140.949 92.2554 140.72 92.1384C131.957 87.6634 124.428 84.3574 121.822 83.6154C118.791 82.7564 119.179 76.1474 119.522 70.3164C119.676 67.7104 119.821 65.2464 119.699 63.1364C119.273 55.7754 117.97 47.7184 111.559 43.7904C107.732 41.4464 102.795 40.7584 98.0781 40.7484C98.9521 40.3324 99.9272 39.7674 100.989 39.1494L101.022 39.1304C103.799 37.5224 107.247 35.5254 110.673 35.1744C111.793 35.0634 112.894 34.9344 113.98 34.8134C120.886 34.0314 126.853 33.3594 133.146 35.5144C135.999 36.4934 141.851 39.7584 143.362 42.7894C144.426 44.9294 146.221 46.5974 149.802 49.9264C151.666 51.6604 152.894 52.6694 153.793 53.4074L153.834 53.4414C155.096 54.4794 155.345 54.6964 155.721 55.4634C156.881 57.8284 156.458 60.3404 155.871 63.8194Z" fill="white"/>
<path d="M123.995 94.0792C124.41 94.2222 124.565 94.7262 124.324 95.0922C123.388 96.5122 122.316 98.4602 121.031 100.842C120.428 101.965 119.857 103.025 119.378 103.852C117.68 106.768 117.542 109.222 117.434 111.192C117.317 113.252 117.213 114.198 115.982 115.019C114.966 115.7 113.925 115.927 106.71 117.026C105.451 117.221 104.892 117.465 104.401 117.679C104.267 117.737 104.134 117.795 103.982 117.852C103.565 118.008 103.157 117.653 103.182 117.21C103.239 116.17 103.276 114.871 103.28 113.237V112.924C103.318 111.51 103.259 110.363 103.208 109.438C103.113 107.596 103.101 106.82 103.592 106.018C104.195 105.049 104.665 104.753 105.438 104.263C106.517 103.585 107.997 102.652 110.187 99.6422C111.351 98.0482 111.609 97.1842 111.77 96.4372C111.84 96.1272 111.865 96.0112 112.761 95.3322C113.708 94.6132 116.595 92.4262 120.29 93.0472C121.312 93.2202 122.614 93.6022 123.995 94.0792Z" fill="white"/>
<path d="M95.2883 127.344C95.1313 127.549 94.9473 127.644 94.6823 127.657C93.9283 127.689 93.3983 127.502 93.0473 127.08C92.3033 126.174 92.4033 124.354 92.5773 123.29L95.6283 122.477C95.8673 124.092 95.9793 126.445 95.2883 127.344Z" fill="white"/>
<path d="M95.5336 116.333C95.4826 116.778 95.4266 117.279 95.4286 117.803C95.4326 117.998 95.4346 118.195 95.4406 118.386C95.4466 118.885 95.4666 119.677 95.3976 120.037C94.4446 120.384 93.6306 120.384 92.5606 120.365C92.5446 120.056 92.5646 119.595 92.5766 119.284C92.5826 119.044 92.5956 118.805 92.5986 118.577C92.6016 118.324 92.5986 118.075 92.5986 117.826C92.5946 117.239 92.5866 116.277 92.7306 115.994C93.0176 115.952 93.3116 115.889 93.6266 115.817C94.2576 115.681 95.0806 115.507 95.6046 115.586C95.5966 115.79 95.5646 116.093 95.5336 116.333Z" fill="white"/>
<path d="M89.8857 126.405C89.7387 127.969 89.2557 129.903 87.7887 130.197C87.1287 130.333 86.8097 130.134 86.6087 129.945C85.6177 129.027 85.4597 126.253 85.5977 124.269C86.2577 124.281 87.1227 124.133 88.1467 123.935C88.7717 123.811 89.3937 123.673 89.8887 123.559C89.9457 124.293 89.9867 125.341 89.8857 126.405Z" fill="white"/>
<path d="M89.1928 120.79L85.8828 121.951C86.0508 120.666 86.2748 118.858 86.3538 117.657C86.4108 116.811 86.6408 116.552 86.7068 116.496C86.7288 116.477 86.7728 116.437 86.8958 116.437C86.9148 116.437 86.9338 116.44 86.9548 116.44L87.0248 116.45L89.1158 116.336C89.2048 117.319 89.2048 119.478 89.1928 120.79Z" fill="white"/>
<path d="M83.8483 119.761C83.6613 120.259 83.4403 121.67 83.3023 122.663L79.1562 122.537C79.3902 121.253 79.7143 119.946 80.0703 118.905C80.4303 117.87 80.8183 117.094 81.1753 116.876C81.5913 116.626 82.5073 116.57 83.0683 117.049C83.9803 117.827 84.2323 118.717 83.8483 119.761Z" fill="white"/>
<path d="M82.2964 132.451C81.9754 132.89 81.6184 133.113 81.1764 133.16C80.7254 133.211 80.3744 133.11 80.0944 132.848C78.7924 131.646 78.8984 127.708 78.9464 125.815C80.6654 125.423 82.5214 125.09 83.4014 125.039C83.5334 126.624 83.5714 130.716 82.2964 132.451Z" fill="white"/>
<path d="M76.882 122.425C76.68 122.965 76.484 123.475 76.336 123.927C75.854 124.078 74.38 123.946 72.875 123.614L73.91 117.089C75.61 116.638 77.582 116.493 78.059 116.998C78.687 117.665 77.425 121.003 76.882 122.425Z" fill="white"/>
<path d="M75.0122 133.444C74.2082 134.435 73.0022 134.898 71.3202 134.88C70.1562 134.861 69.7401 134.419 69.5321 134.088C68.5981 132.609 69.5122 129.122 70.4282 126.895L76.0442 127.232C76.1012 127.623 76.1482 128.099 76.1702 128.617C76.2322 130.202 76.0332 132.176 75.0122 133.444Z" fill="white"/>
<path d="M121.42 86.0937C116.364 84.6617 116.799 77.2687 117.22 70.1237C117.369 67.5957 117.51 65.2047 117.395 63.2507C117.007 56.5627 115.882 49.2787 110.503 45.9817C104.717 42.4437 95.2524 43.2497 89.4124 43.9927C89.4074 43.9937 89.4024 43.9967 89.3974 43.9977C89.3944 43.9977 89.3924 43.9977 89.3904 43.9987C87.2514 44.6467 85.2504 45.0666 83.6994 44.9846C80.2534 44.8066 77.5724 43.3557 75.2114 42.0827C73.3694 41.0847 71.7624 40.2227 70.2494 40.2227C70.1694 40.2227 70.0854 40.2227 70.0024 40.2257C65.4754 40.5197 63.3944 41.6257 61.5044 43.3127C61.0294 43.7327 60.4494 44.9517 58.5514 50.4207C57.5934 53.1847 57.4164 54.6967 57.2384 56.1667C57.0784 57.5097 56.9154 58.8907 56.2014 60.9507C55.7044 62.3727 55.3374 63.5987 54.9824 64.7807C54.0464 67.9217 53.3064 70.3957 51.0834 73.3377C50.8224 73.6857 50.4994 74.1977 50.1254 74.7807C49.6214 75.5747 48.9974 76.5617 48.1744 77.7047C47.5934 78.5097 46.2594 81.5227 46.3324 82.4407C46.4414 83.9027 46.9164 84.8097 47.4604 85.8687C48.0014 86.9127 48.6174 88.0947 48.7294 89.7267L48.7484 89.9917C48.9464 92.5807 48.5774 93.8797 43.6524 98.2787C40.5034 101.097 38.2664 103.811 36.7574 105.803C36.6244 105.979 36.7974 106.24 37.0174 106.222C37.0684 106.215 37.1194 106.212 37.1664 106.212C37.2614 106.204 37.3554 106.201 37.4494 106.201C37.5434 106.201 37.6384 106.204 37.7314 106.208C37.8264 106.212 37.9174 106.219 38.0104 106.233C39.2014 106.369 40.3624 106.873 41.2004 107.741C41.3464 107.892 41.5734 107.933 41.7674 107.855C42.5694 107.521 43.4504 107.576 44.2924 107.655C45.3324 107.751 46.3824 108.062 47.0724 108.733C47.2804 108.936 47.5774 109.039 47.8614 108.974C48.6764 108.789 49.5314 108.806 50.3244 109.094C50.9504 109.327 51.4764 109.695 51.8944 110.158C52.1864 110.482 52.7044 110.544 53.0704 110.308C53.2984 110.161 53.5494 110.037 53.8284 109.943C54.8974 109.58 56.0804 109.787 57.1184 110.16C57.6294 110.344 58.1654 110.508 58.6264 110.816C59.4734 111.38 59.9904 112.204 60.3204 113.125C60.5074 113.644 61.2064 113.824 61.6304 113.471C62.3924 112.837 62.9954 112.73 63.6034 113C63.9134 113.14 64.1294 113.332 64.2744 113.573C64.5274 113.992 65.0424 114.337 65.5134 114.205C67.1684 113.744 69.2404 113.984 70.7414 114.788C71.2714 115.066 71.7924 115.491 72.1724 116.133L72.1734 116.134C72.1744 116.137 72.1774 116.136 72.1774 116.133L72.2214 115.848C72.2414 115.719 72.3324 115.612 72.4574 115.573L72.8054 115.466C73.6254 115.205 77.8034 114.001 79.4284 115.712C79.4984 115.782 79.6204 115.789 79.6884 115.716C79.9094 115.473 80.0894 115.34 80.2044 115.274C81.2624 114.632 83.0774 114.592 84.2844 115.626C84.5274 115.83 84.9214 115.756 85.1044 115.496C85.2174 115.337 85.3454 115.196 85.4894 115.075C85.9134 114.709 86.4504 114.534 87.0454 114.571L89.3404 114.447C89.9174 114.415 91.7114 114.293 92.2764 114.174C92.3194 114.165 92.3634 114.157 92.4084 114.15C92.6474 114.113 92.9314 114.052 93.2284 113.99C94.3414 113.747 95.6044 113.474 96.6414 113.953C97.6374 114.414 97.5114 115.549 97.3914 116.55C97.3444 116.956 97.2934 117.38 97.2974 117.783C97.3044 117.971 97.3084 118.16 97.3114 118.353C97.3264 119.216 97.3444 120.013 97.1734 120.625V120.629V120.632L97.2784 121.106C97.2834 121.124 97.2884 121.147 97.2944 121.175C97.3884 121.609 97.8544 121.851 98.2334 121.62C99.0334 121.132 99.8744 120.498 100.128 120.133C100.147 120.105 100.162 120.076 100.173 120.044C100.208 119.952 100.273 119.753 100.344 119.337C100.486 118.484 100.645 116.751 100.659 113.232C100.659 113.046 100.659 112.913 100.663 112.851C100.692 111.545 100.641 110.497 100.59 109.572C100.496 107.664 100.419 106.163 101.366 104.635C102.288 103.148 103.183 102.586 104.043 102.041C105.043 101.414 106.172 100.702 108.073 98.0947C109.005 96.8107 109.12 96.2927 109.211 95.8787C109.418 94.9097 109.738 94.3267 111.177 93.2387C112.349 92.3537 115.914 89.6517 120.724 90.4607C122.301 90.7287 124.858 91.5697 127.381 92.5637C127.381 92.5637 127.383 92.5647 127.385 92.5647H127.388C127.482 92.5927 127.579 92.6257 127.668 92.6727C127.7 92.6897 127.733 92.7057 127.767 92.7197C130.021 93.6197 132.214 94.6247 133.619 95.4277C133.946 95.6147 134.365 95.5067 134.595 95.2077C135.055 94.6107 135.557 94.2647 136.098 93.9397C136.301 93.8167 136.457 93.7227 136.606 93.5957C136.657 93.5527 136.707 93.5107 136.756 93.4707C137.176 93.1307 137.175 92.4037 136.694 92.1557C129.915 88.6507 123.53 86.6937 121.42 86.0937ZM73.2424 87.6497C71.6784 94.4937 61.0764 102.017 56.2574 102.017H56.1624C56.0864 102.013 56.0024 102.006 55.9124 101.991C55.8214 101.977 55.7234 101.955 55.6194 101.926C55.5684 101.911 55.5134 101.893 55.4594 101.879C54.5844 101.603 53.3734 100.931 52.4564 100.029C51.8254 99.4097 51.3284 98.6787 51.1724 97.8917C51.1434 97.7537 51.1144 97.6167 51.0844 97.4787C50.8244 96.3147 50.5004 94.8607 51.5274 92.4807C51.6694 92.1617 51.7954 91.8637 51.9114 91.5917C51.9484 91.5017 51.9884 91.4107 52.0244 91.3237C52.1334 91.0667 52.2304 90.8307 52.3184 90.6167C52.4634 90.2547 52.5824 89.9467 52.6804 89.6847C52.7204 89.5827 52.7574 89.4847 52.7894 89.3947C53.0834 88.5717 53.1194 88.2637 53.1594 87.9447C53.1964 87.6947 53.2324 87.3887 53.3344 86.9537C53.6354 85.6697 53.7914 84.5817 53.9294 83.6127C54.1764 81.8707 54.3904 80.3666 55.3294 78.9846C55.4894 78.7496 55.6664 78.5346 55.8664 78.3466C55.9354 78.2816 56.0014 78.2197 56.0724 78.1577C56.1454 78.0957 56.2184 78.0417 56.2894 77.9867C56.5174 77.8267 56.7614 77.6857 57.0254 77.5657C57.1164 77.5257 57.2074 77.4857 57.2974 77.4537C57.4834 77.3847 57.6784 77.3257 57.8824 77.2747C58.7454 77.0657 59.7644 77.0327 60.9354 77.1807C62.2164 77.2827 63.4024 77.5247 64.4534 77.8187C65.3314 78.0607 66.1154 78.3447 66.7784 78.6087C66.8474 78.6347 66.9134 78.6597 66.9784 78.6887C67.1054 78.7397 67.2284 78.7907 67.3484 78.8457C67.5304 78.9217 67.6964 78.9947 67.8524 79.0627C68.0594 79.1567 68.2484 79.2407 68.4154 79.3157L68.5714 79.3887C69.3114 79.7257 69.9474 80.0957 70.4904 80.4837C70.7584 80.6807 71.0094 80.8797 71.2334 81.0817C71.3104 81.1477 71.3834 81.2167 71.4504 81.2887C71.5234 81.3587 71.5924 81.4277 71.6574 81.4967C73.6944 83.6417 73.5934 86.1227 73.2424 87.6497ZM78.1554 61.7087L77.9494 62.9497C77.4744 65.7457 76.3824 69.5797 72.3564 70.5667C68.4834 71.5137 67.5654 71.7157 64.8084 71.8397C64.7474 71.8467 64.6814 71.8466 64.6164 71.8466C62.6034 71.8466 58.7294 70.5777 58.0434 67.4217C57.6044 65.3907 58.5004 63.9187 59.9764 61.4777C60.2224 61.0747 60.4884 60.6427 60.7704 60.1607C62.7214 56.8737 63.4904 54.4947 64.1084 52.5867C64.7094 50.7227 65.2104 49.1817 66.4984 47.9047C66.7954 47.6077 67.1324 47.3277 67.5244 47.0597C67.7744 46.8887 68.0354 46.7367 68.3114 46.5947C68.6774 46.4127 69.0614 46.2547 69.4644 46.1267C70.3604 45.8407 71.3284 45.6957 72.2974 45.6957C74.1754 45.6957 76.0514 46.2357 77.3894 47.3097C77.9914 47.7917 78.8474 48.7557 79.3444 51.5997C79.6004 53.0647 79.1644 55.7567 78.1554 61.7087ZM106.878 69.6667C105.492 72.0457 104.734 73.3557 103.537 74.3377C101.162 76.2887 98.3914 76.7827 96.1094 76.7827C94.4704 76.7827 93.0784 76.5297 92.2584 76.3797C89.9004 75.9487 85.5124 75.1507 84.0504 71.6867C83.7644 71.0017 83.7614 70.5667 83.7614 70.0147C83.7614 69.4697 83.7614 68.5537 83.5074 66.3727L83.4934 66.2277C83.3764 65.2407 83.2464 64.1237 83.5294 62.6907L83.5624 62.5197C84.3894 58.3137 84.6134 57.6707 84.7994 57.3077C85.2274 56.4807 86.2424 56.1547 87.0694 56.5797C87.8704 56.9967 88.2044 57.9677 87.8274 58.7837C87.7434 59.0227 87.5084 59.9187 86.8694 63.1727L86.8364 63.3437C86.6544 64.2617 86.7344 64.9577 86.8404 65.8397L86.8544 65.9887C87.1294 68.3567 87.1294 69.4297 87.1294 70.0107C87.1294 70.1137 87.1294 70.2257 87.1334 70.2927C87.1344 70.3187 87.1474 70.3527 87.1554 70.3777C87.4294 71.0277 88.0474 71.5207 88.8004 71.8997C89.2684 72.1347 89.7574 71.6877 89.6534 71.1747C88.9044 67.4677 88.9454 63.1436 90.3614 60.4716C90.8254 59.5846 91.6834 58.1327 92.4984 56.7777C92.5014 56.7737 92.5034 56.7707 92.5054 56.7667C92.5074 56.7627 92.5104 56.7597 92.5124 56.7557C92.5954 56.6187 92.6774 56.4837 92.7594 56.3477C92.8284 56.2307 92.8974 56.1197 92.9614 56.0107C93.3204 55.4147 93.6574 54.8677 93.9274 54.4327C93.9634 54.3707 93.9994 54.3087 94.0364 54.2507C94.0614 54.2067 94.0874 54.1667 94.1124 54.1307C94.1704 54.0357 94.2214 53.9487 94.2694 53.8737C94.2904 53.8377 94.3124 53.8047 94.3304 53.7717C94.3414 53.7577 94.3494 53.7427 94.3564 53.7317C94.3814 53.6877 94.4074 53.6477 94.4294 53.6157C94.4724 53.5467 94.5054 53.4957 94.5234 53.4627C94.5254 53.4597 94.5264 53.4577 94.5274 53.4547C94.5314 53.4477 94.5394 53.4367 94.5434 53.4297C94.5464 53.4247 94.5474 53.4237 94.5504 53.4187C94.8314 53.0097 95.1094 52.6207 95.3794 52.2547C95.7464 51.7577 95.3214 51.1067 94.7494 51.3407C93.3734 51.9017 92.4334 52.6187 92.2424 52.7697C91.5134 53.3507 90.4534 53.2307 89.8774 52.5017C89.3004 51.7737 89.4204 50.7107 90.1494 50.1297C91.0164 49.4487 95.6114 46.0967 101.114 47.6707C105.079 48.7987 107.157 51.8277 107.94 52.9667C108.571 53.8917 110.505 56.6997 110.443 60.6197C110.397 63.6097 109.15 65.7607 106.878 69.6667Z" fill="white"/>
<path d="M71.1421 49.1641C70.8601 49.8461 70.523 50.6911 70.161 51.6091C69.315 53.7351 68.356 56.1431 67.895 57.0161C67.1 58.5251 66.4811 59.477 65.9871 60.244C65.4211 61.125 64.9701 61.8221 64.6301 62.7941C64.0331 64.4941 63.9261 66.3941 64.3141 68.4601C63.2601 68.3441 61.5351 67.6181 61.3401 66.7031C61.1941 66.0221 61.617 65.2771 62.864 63.2261C63.114 62.8171 63.382 62.3721 63.675 61.8771C65.818 58.2681 66.6851 55.5831 67.3231 53.6201C68.0111 51.4841 68.3361 50.5881 69.4311 49.8401C69.9211 49.4991 70.5171 49.2821 71.1421 49.1641Z" fill="white"/>
<path d="M69.0447 124.848C67.8767 127.234 66.4227 129.436 65.5167 130.527C64.7667 128.499 63.4627 123.852 63.8067 120.113C63.8167 120.005 63.8287 119.898 63.8447 119.794C63.9827 118.639 64.2897 117.58 64.8357 116.731C65.1957 116.173 66.1927 115.832 67.3247 115.832C68.1607 115.832 69.0697 116.015 69.8527 116.435H69.8587C70.2777 116.659 70.8487 117.113 70.9087 118.432C70.9947 120.214 70.1457 122.609 69.0447 124.848Z" fill="white"/>
<path d="M133.042 98.1105C133.132 98.1835 133.189 98.2935 133.137 98.3975C132.788 99.0985 132.37 99.5905 131.876 100.17C131.28 100.88 130.598 101.684 129.964 102.939C129.061 104.718 128.772 106.342 128.62 110.497C128.441 115.378 128.63 118.119 128.772 120.118C128.907 122.049 128.99 123.213 128.646 125.096C127.952 128.895 126.327 131.41 124.269 134.593C121.694 138.574 119.031 142.69 114.621 144.002C114.211 144.128 114.197 144.127 113.047 144.131C112.046 144.131 110.381 144.136 107.229 144.252C101.468 144.461 98.5779 144.565 96.1049 145.04C93.5109 145.542 92.1579 146.093 90.8459 146.623C89.6619 147.102 88.5429 147.557 86.3979 147.998C85.1189 148.256 83.2079 148.539 76.6959 148.549C69.9279 148.561 65.8419 148.564 60.4469 147.949C53.0449 147.104 49.3289 146.681 46.8609 145.363C41.0399 142.258 38.5819 136.674 34.5159 127.423C34.5089 127.407 34.5018 127.39 34.4948 127.373C34.4448 127.258 34.5849 127.148 34.6929 127.212C34.8859 127.332 35.0869 127.431 35.2989 127.502C35.4769 127.565 35.6618 127.613 35.8488 127.644C36.2208 127.707 36.6089 127.711 37.0029 127.644C37.0719 127.632 37.1349 127.615 37.1959 127.59C37.2079 127.585 37.2189 127.58 37.2309 127.575C37.2999 127.541 37.3848 127.569 37.4138 127.64C37.6728 128.353 38.0839 128.988 38.7739 129.354C39.4649 129.714 40.2509 129.741 41.0199 129.735C41.8119 129.723 42.6099 129.679 43.3989 129.584C43.8169 129.54 44.2448 129.744 44.4048 130.133C45.1278 131.885 46.0229 133.153 47.3679 133.34C47.4409 133.35 47.5359 133.363 47.6559 133.363C47.9589 133.363 48.4269 133.275 49.0869 132.821C49.5979 132.471 50.3889 132.676 50.7559 133.175C51.0919 133.63 51.4918 133.958 51.8358 134.234C53.2208 135.656 56.5868 136.338 59.4138 136.338C60.9558 136.338 62.3389 136.135 63.1529 135.739C64.3169 135.174 64.3169 134.306 64.2599 133.955C64.1609 133.326 64.0708 132.702 63.9948 132.084C63.9858 132.01 64.0979 131.981 64.1279 132.05C64.2969 132.419 64.5039 132.879 65.0549 132.968C65.1149 132.974 65.1818 132.988 65.2578 132.988C66.0458 132.988 67.2718 133.244 67.4828 134.003C67.5908 134.39 67.7429 134.752 67.9499 135.079C68.4229 135.828 69.3859 136.72 71.2949 136.752H71.4429C73.6349 136.752 75.3269 136.035 76.4679 134.618C76.5419 134.527 76.6128 134.433 76.6808 134.338C77.0908 133.76 78.3089 133.735 78.8299 134.215C79.4169 134.758 80.1558 135.038 80.9788 135.038C81.1108 135.038 81.2448 135.032 81.3828 135.016C82.3638 134.912 83.2129 134.393 83.8469 133.506C84.2619 132.927 84.5649 132.215 84.7859 131.445C84.8509 131.218 85.1628 131.15 85.3368 131.309C85.7558 131.697 86.4278 132.107 87.3968 132.107C87.6328 132.107 87.8889 132.082 88.1609 132.025C90.0649 131.642 91.0128 130.066 91.4618 128.287C91.4768 128.227 91.5628 128.211 91.6028 128.258C92.0848 128.845 92.9749 129.523 94.5239 129.523C94.6029 129.523 94.6849 129.523 94.7659 129.519C95.5859 129.481 96.2768 129.121 96.7758 128.477C97.3828 127.686 97.6218 126.514 97.6768 125.334C97.6928 124.99 97.9148 124.687 98.2328 124.554C99.8668 123.871 101.846 122.4 102.426 121.398C102.446 121.363 102.466 121.326 102.486 121.288C102.619 121.03 102.847 120.827 103.132 120.773C104.398 120.533 104.95 120.293 105.452 120.075C105.861 119.895 106.19 119.753 107.11 119.61C114.43 118.493 115.859 118.247 117.443 117.191C119.812 115.611 119.932 113.437 120.049 111.333C120.149 109.554 120.263 107.534 121.645 105.165C122.147 104.3 122.726 103.221 123.342 102.079C124.42 100.08 125.926 97.2815 127.004 95.8145C127.207 95.5375 127.574 95.4515 127.89 95.5855C130.42 96.6605 132.575 97.7365 133.042 98.1105Z" fill="white"/>
<path d="M61.9552 119.892C61.6652 122.423 61.4882 125.804 61.8982 130.208C62.0142 131.451 62.1762 132.741 62.3772 134.048C62.0302 134.237 60.9942 134.502 59.1522 134.473C56.5052 134.42 53.9282 133.754 53.1542 132.917L53.0342 132.809C52.3902 132.292 51.9682 131.951 51.9082 131.027C51.8882 130.715 52.0222 130.406 52.3082 129.969C52.4662 129.723 52.6742 129.439 52.9322 129.089C53.3772 128.492 53.9292 127.748 54.4942 126.788C56.1512 123.989 56.7792 123.125 57.5772 122.033C57.6402 121.945 57.7072 121.856 57.7762 121.765C58.2462 121.121 58.7982 120.351 59.6282 119.086C60.2462 118.147 60.7602 117.411 61.1842 116.833C61.8912 115.872 62.3542 115.35 62.6512 115.066C62.6072 115.502 62.5092 116.114 62.4142 116.679C62.2742 117.548 62.0972 118.611 61.9552 119.892Z" fill="white"/>
<path d="M60.7383 80.5451C60.7223 80.5671 60.7033 80.5891 60.6873 80.6121C60.3433 81.0891 59.9493 81.6281 59.4793 82.6781C58.2173 85.4831 58.1933 87.0711 58.1733 88.3481C58.1613 89.0171 58.1543 89.5501 57.9713 90.1721C57.8453 90.5821 57.6403 91.0521 57.4033 91.5941C56.6593 93.2981 55.6873 95.5321 56.1233 98.5381C55.5203 98.2481 54.5983 97.5851 54.4703 97.2321C54.4383 97.0681 54.4033 96.9071 54.3663 96.7461C54.1573 95.8081 54.0193 95.1971 54.6153 93.8241C56.1833 90.2081 56.3763 89.3511 56.4993 88.3661C56.5243 88.1511 56.5503 87.9841 56.6133 87.7121C56.9443 86.2861 57.1173 85.0651 57.2593 84.0841C57.4703 82.5951 57.6123 81.6101 58.1143 80.8691C58.2973 80.5951 58.8153 80.4531 59.5563 80.4531C59.8493 80.4531 60.1803 80.4751 60.5413 80.5261L60.6253 80.5321C60.6623 80.5361 60.7013 80.5391 60.7383 80.5451Z" fill="white"/>
<path d="M58.6772 116.215C58.5922 115.348 58.4402 114.479 58.1252 113.662C58.1032 113.621 58.0092 113.412 57.9892 113.372C57.9322 113.268 57.8672 113.17 57.8062 113.067C57.8022 113.063 57.8002 113.063 57.8002 113.06C57.7962 113.054 57.7942 113.054 57.7942 113.051C57.7592 113.013 57.7272 112.976 57.6932 112.94C57.6422 112.889 57.5872 112.84 57.5322 112.795C57.5222 112.783 57.5132 112.773 57.5042 112.769C57.4792 112.748 57.4412 112.718 57.4002 112.694C57.3332 112.659 57.2702 112.621 57.2052 112.588C57.1852 112.575 57.1382 112.556 57.0942 112.54C57.0942 112.54 57.0912 112.54 57.0912 112.537C57.0812 112.533 57.0712 112.531 57.0632 112.527C57.0532 112.521 57.0472 112.517 57.0412 112.515C57.0312 112.511 57.0252 112.509 57.0192 112.509C57.0132 112.509 57.0132 112.505 57.0132 112.505C56.9932 112.495 56.9812 112.493 56.9722 112.489C56.4672 112.304 55.9552 112.101 55.4192 112.022C55.4162 112.022 55.4072 112.019 55.4002 112.019H55.3882C55.3282 112.019 55.2052 112.007 55.1992 112.007C55.1242 112.003 55.0512 112.003 54.9782 112.007C54.9432 112.007 54.9092 112.007 54.8772 112.01H54.8492C54.8372 112.01 54.8222 112.014 54.8062 112.014C54.8002 112.02 54.7902 112.02 54.7862 112.02C54.7832 112.02 54.7802 112.02 54.7802 112.02C54.6602 112.055 54.5342 112.087 54.4142 112.124C54.3632 112.15 54.3072 112.175 54.2562 112.207C54.2132 112.232 54.1682 112.264 54.1242 112.286C54.1212 112.289 54.1152 112.295 54.1082 112.295L54.0992 112.305C54.0422 112.362 53.9822 112.415 53.9252 112.472C53.9062 112.492 53.8532 112.557 53.8152 112.605C53.8052 112.611 53.7992 112.617 53.7992 112.623C53.7962 112.626 53.7962 112.626 53.7932 112.629C53.7902 112.632 53.7902 112.635 53.7832 112.638C53.7802 112.642 53.7802 112.645 53.7772 112.645C53.7622 112.672 53.7462 112.695 53.7402 112.708C53.5372 113.023 53.3322 113.336 53.1212 113.647C52.6352 114.392 52.1372 115.133 51.6322 115.869C51.1712 116.535 50.7112 117.201 50.2532 117.866C49.9972 118.239 49.7452 118.607 49.4932 118.98C49.4492 119.043 49.4082 119.106 49.3672 119.169C49.6662 119.226 49.9662 119.285 50.2692 119.342C50.9472 119.466 51.6222 119.585 52.3102 119.679C53.7262 119.872 55.1662 119.961 56.6012 119.91C56.6702 119.906 56.7392 119.91 56.8032 119.922C57.1482 119.43 57.5542 118.843 58.0722 118.057C58.3592 117.618 58.6332 117.212 58.8912 116.836C58.7752 116.656 58.7022 116.441 58.6772 116.215Z" fill="white"/>
<path d="M53.6313 122.067C53.5093 123.159 52.2873 125.985 50.3813 128.676C48.7853 130.926 47.8163 131.472 47.6233 131.491C46.8533 131.384 46.0934 129.478 45.4904 127.588C45.2484 126.822 45.0293 126.058 44.8463 125.418C44.4333 123.98 44.3584 122.051 44.4304 120.84C46.0404 121.732 48.8664 121.972 52.8364 121.988H52.8484C53.1104 122.016 53.3693 122.045 53.6313 122.067Z" fill="white"/>
<path d="M50.8102 113.076C50.8102 113.08 50.8102 113.08 50.8102 113.082C50.7912 113.108 50.7752 113.136 50.7572 113.161C50.0752 114.164 49.3882 115.162 48.7002 116.161C48.3442 116.676 47.9912 117.19 47.6402 117.708C47.4482 117.989 47.1892 118.298 46.9652 118.632C46.4002 118.499 45.8362 118.37 45.2772 118.212C44.8202 118.08 44.3692 117.938 43.9262 117.761C43.8372 117.729 43.7522 117.694 43.6702 117.654C43.5972 117.506 43.4932 117.373 43.3672 117.272C43.3702 117.269 43.3702 117.26 43.3732 117.256C43.5342 116.928 43.6982 116.597 43.8592 116.269C44.1652 115.667 44.4722 115.068 44.8122 114.487C45.4192 113.439 46.1502 112.373 47.1762 111.694C47.2272 111.656 47.2832 111.621 47.3372 111.587C47.7352 111.337 48.1332 111.161 48.6212 111.101C48.6782 111.095 49.0222 111.097 49.1832 111.111C49.2112 111.111 49.2342 111.114 49.2502 111.114H49.2532C49.2652 111.118 49.2882 111.124 49.3222 111.136C49.4422 111.174 49.5632 111.199 49.6832 111.24C49.7242 111.26 49.7612 111.278 49.8032 111.3C49.9072 111.363 50.0142 111.42 50.1122 111.499C49.9542 111.379 50.3302 111.767 50.3302 111.739C50.6332 112.158 50.7252 112.509 50.8102 113.076Z" fill="white"/>
<path d="M45.4053 110.232C44.1433 111.27 43.2253 112.652 42.4593 114.09C42.0293 114.888 41.6413 115.702 41.2373 116.513C41.1963 116.596 41.1552 116.675 41.1082 116.756C40.7262 116.673 40.3442 116.563 39.9712 116.444C39.5742 116.318 39.1793 116.173 38.8013 115.997C38.6283 115.914 38.4542 115.829 38.2812 115.738C38.6592 115.022 39.1102 114.334 39.5402 113.666C40.1462 112.722 40.8023 111.795 41.5153 110.924C41.7833 110.593 42.0672 110.23 42.4432 110.012C42.8272 109.785 43.2922 109.839 43.7332 109.864C44.2002 109.893 44.7022 109.905 45.1432 110.082C45.2342 110.121 45.3333 110.182 45.4053 110.232Z" fill="white"/>
<path d="M43.4011 127.168C43.3381 127.221 43.2851 127.278 43.2381 127.345C43.1941 127.357 43.1491 127.367 43.1211 127.374C42.8181 127.405 42.5091 127.427 42.2031 127.447C41.6161 127.484 41.0201 127.51 40.4271 127.488C40.0961 127.476 39.7961 127.425 39.6601 127.214C39.4421 126.883 39.3761 126.305 39.2981 125.866C38.9101 123.711 38.8591 121.466 39.1341 119.285C40.2601 119.689 41.4191 120.002 42.6071 120.197C42.3511 122.163 42.7871 125.049 43.0421 125.933C43.1611 126.344 43.2811 126.76 43.4011 127.168Z" fill="white"/>
<path d="M39.7764 109.514C38.7794 110.738 37.8714 112.041 37.0564 113.391C36.7274 113.94 36.3554 114.508 36.0814 115.095C35.6864 114.985 35.3304 114.827 34.9524 114.593C34.6624 114.413 34.3804 114.214 34.1064 114.006C34.0374 113.949 33.8484 113.801 33.7304 113.706C33.7034 113.685 33.6774 113.663 33.6484 113.647C33.7394 113.389 33.9064 113.101 33.9984 112.908C34.2074 112.451 34.4404 112.002 34.6844 111.565C35.1474 110.745 35.6654 109.943 36.2524 109.205C36.4704 108.933 36.6774 108.583 37.0164 108.482C37.3254 108.394 37.7324 108.435 37.9814 108.478C38.7194 108.621 39.2974 108.956 39.7764 109.514Z" fill="white"/>
<path d="M32.0965 114.825C32.1105 114.773 32.1785 114.766 32.2095 114.81C32.4715 115.183 32.8365 115.507 33.2285 115.812C33.4035 115.945 33.5765 116.077 33.7535 116.202C33.7755 116.218 33.7855 116.245 33.7795 116.272C33.3665 117.983 33.0845 119.8 33.0895 121.59C33.0895 121.669 32.9705 121.685 32.9525 121.608C32.4475 119.524 31.7615 116.05 32.0965 114.825Z" fill="white"/>
<path d="M36.9767 118.548C36.7747 120.037 36.6777 121.53 36.7427 123.031C36.7747 123.854 36.8627 124.672 36.9737 125.485C36.9737 125.491 36.9737 125.498 36.9767 125.501V125.505C36.7997 125.464 36.6147 125.458 36.4257 125.485C36.4627 125.473 36.3657 125.479 36.3247 125.479H36.3127C36.2847 125.476 36.2437 125.473 36.2297 125.47C36.0217 125.419 36.0037 125.397 35.8387 125.293C35.6237 125.154 35.3967 124.901 35.2457 124.643C34.8447 123.949 34.7567 123.106 34.7247 122.32C34.6657 120.778 34.7977 119.238 35.0857 117.727C35.3317 117.827 35.5457 117.919 35.9027 118.073C36.2557 118.227 36.6217 118.379 36.9787 118.544V118.548H36.9767Z" fill="white"/>
<g opacity="0.8" filter="url(#filter0_i_16934_507)">
<path opacity="0.8" d="M76.3523 196.467C69.5573 196.467 63.1123 196.038 57.7043 195.617L56.2133 195.501L54.7243 195.294C54.0733 195.202 53.1883 195.107 52.3343 195.014C47.1313 194.448 37.4553 193.394 26.7743 188.378L25.1153 187.596L23.5683 186.73C3.0403 175.223 -4.6427 157.906 -8.7797 148.596C-9.0427 148.005 -9.3627 147.285 -9.6627 146.622C-11.7517 142.348 -13.0717 138.495 -14.1917 134.968L-14.4407 134.18L-14.6477 133.415C-17.6277 122.825 -18.3807 113.68 -17.0157 104.637C-15.6477 95.5568 -12.2837 87.2958 -6.4407 78.6488L-3.4107 73.7008C-2.7957 72.7018 -2.36169 71.6018 -2.12769 70.4518C0.18231 59.0028 5.42431 50.8928 8.00031 47.0198C8.70931 42.3308 9.87829 37.7239 11.4903 33.2649L11.7303 32.5888L11.9873 31.9298C12.0293 31.8138 12.0833 31.6499 12.1823 31.3509C13.3393 27.8659 16.0523 19.7098 22.9983 11.1458L25.6073 7.98588L28.2653 5.58488C35.0933 -0.620116 43.2283 -5.21212 52.0683 -7.85212C57.0043 -9.32412 62.0923 -10.2241 67.2333 -10.5341L67.7303 -10.5712L68.4793 -10.6062C69.3683 -10.6482 70.2543 -10.6682 71.1183 -10.6682C74.3263 -10.6742 77.5293 -10.4042 80.6903 -9.86211C82.6663 -9.52911 84.6953 -9.76112 86.5443 -10.5312C92.0253 -12.8182 97.7873 -14.3651 103.676 -15.1311C104.168 -15.2011 104.597 -15.2551 104.935 -15.2991C105.864 -15.4151 107.34 -15.5892 109.124 -15.7592C112.234 -16.0562 117.003 -16.4102 122.173 -16.4102C132.269 -16.4102 140.96 -15.1022 148.74 -12.4122L149.402 -12.1822L150.049 -11.9391C167.218 -5.45111 175.958 3.6129 182.244 11.6089L182.542 11.9898L183.407 12.7589C189.085 17.2018 193.914 22.6328 197.661 28.7928L198.833 30.7209L199.822 32.7429C208.22 49.8849 205.551 65.7129 204.545 71.6599L204.491 71.9778C203.768 76.3648 202.617 80.6709 201.055 84.8339C200.48 88.8479 199.535 92.7999 198.231 96.6389C196.002 103.464 192.713 109.895 188.485 115.698C186.051 119.141 183.302 122.351 180.274 125.286C179.203 126.321 178.509 127.684 178.302 129.158C178.171 130.066 178.022 130.964 177.852 131.853C175.39 145.058 169.615 154.248 167.258 157.908L160.131 168.144C151.548 178.837 141.364 185.89 129.041 189.68L126.055 190.616L122.83 191.177C119.141 191.828 115.402 192.152 111.656 192.144C111.139 192.144 110.619 192.144 110.042 192.129H109.876L109.24 192.169L108.558 192.194H108.539C107.111 192.242 105.695 192.475 104.327 192.888C96.3673 195.323 87.3633 196.467 76.3523 196.467Z" stroke="url(#paint2_linear_16934_507)" stroke-width="1.0554" stroke-miterlimit="10"/>
<path opacity="0.8" d="M76.3536 189.429C69.8426 189.429 63.5976 189.014 58.3486 188.6L57.1046 188.504L55.8606 188.332C55.0846 188.224 54.1376 188.125 53.2226 188.021C48.1696 187.472 39.7216 186.553 30.2906 182.13L28.9056 181.479L27.6176 180.755C9.50253 170.595 2.80054 155.509 -1.20546 146.493C-1.49146 145.85 -1.84245 145.06 -2.16945 144.343C-4.03545 140.515 -5.25945 136.979 -6.29245 133.726L-6.49945 133.07L-6.67946 132.432C-9.32946 123.013 -10.0144 114.976 -8.83246 107.134C-7.65046 99.2906 -4.67245 92.0436 0.521542 84.4046L4.40355 78.0656C5.09055 76.9426 5.56154 75.7006 5.79254 74.4056C7.72554 63.6366 12.8126 56.0016 15.1246 52.5266L15.4166 52.0866L15.5246 51.9126C15.5726 51.8066 15.6176 51.7056 15.6616 51.5956C15.8026 51.1376 15.9416 50.6936 16.0766 50.2706C16.6846 45.8526 17.7576 41.5126 19.2796 37.3206L19.4876 36.7566L19.7096 36.1906C19.7796 36.0106 19.8456 35.8156 20.0406 35.2306C21.1416 31.9126 23.4336 25.0246 29.4286 17.6336L31.6036 15.0006L33.8116 13.0036C39.7326 7.62362 46.7856 3.64262 54.4506 1.35362C58.8026 0.0616268 63.2876 -0.726372 67.8186 -0.995372L68.2336 -1.0284L68.8556 -1.05739C69.6126 -1.09339 70.3676 -1.10939 71.1036 -1.10939C74.3546 -1.11539 77.5966 -2.05138 80.7816 -1.39738C83.2386 -0.88938 85.7936 -1.16137 88.0886 -2.17537C92.3766 -4.06637 98.1496 -4.82138 104.759 -5.64438C105.23 -5.71338 105.64 -5.76438 105.959 -5.80438C106.828 -5.91438 108.218 -6.07838 109.899 -6.23738C112.823 -6.51738 117.323 -6.85938 122.161 -6.85938C131.32 -6.85938 139.123 -5.70039 146.018 -3.31639L146.569 -3.12538L147.108 -2.91737C162.327 2.83263 169.848 10.5296 175.708 17.9926C176.033 18.4076 176.367 18.8326 176.491 18.9796L176.63 19.1036L177.742 20.0936L177.891 20.2466C182.954 24.1246 187.25 28.9116 190.561 34.3616L191.536 35.9686L192.365 37.6526C199.589 52.3976 197.325 65.8126 196.359 71.5416L196.307 71.8466C195.621 76.0086 194.5 80.0876 192.96 84.0146C192.475 87.8366 191.605 91.5996 190.364 95.2476C188.393 101.286 185.484 106.978 181.744 112.112C179.212 115.712 176.284 119.015 173.016 121.962C171.5 123.324 170.543 125.2 170.331 127.227C170.173 128.72 169.96 130.171 169.69 131.596C167.519 143.252 162.445 151.314 160.122 154.924L154.349 163.316C146.677 173.174 137.586 179.621 126.573 183.016L124.085 183.795L121.389 184.262C118.172 184.83 114.91 185.112 111.643 185.106C111.168 185.106 110.683 185.106 110.161 185.093H110.013H109.704C109.704 185.093 109.601 185.093 109.389 185.108L108.819 185.143L108.245 185.164L107.098 185.207C105.582 185.261 104.081 185.522 102.635 185.983C95.3026 188.324 86.8296 189.429 76.3536 189.429Z" stroke="url(#paint3_linear_16934_507)" stroke-width="1.0554" stroke-miterlimit="10"/>
<path opacity="0.8" d="M76.3544 181.139C70.1334 181.139 64.0824 180.735 58.9894 180.339L57.9964 180.262L57.0054 180.125C56.1074 180.001 55.0974 179.891 54.1204 179.783C49.2914 179.258 41.9984 178.464 33.8204 174.628L32.7104 174.108L31.6734 173.529C15.9644 164.722 10.1954 151.731 6.3754 143.134C6.0504 142.398 5.68139 141.568 5.33939 140.799C3.68039 137.425 2.57239 134.207 1.62939 131.227L1.46339 130.704L1.31839 130.191C-1.00261 121.947 -1.61561 115.016 -0.61661 108.382C0.39739 101.655 3.0394 95.3845 7.6924 88.6445L8.24638 87.8445L8.84538 87.0755C9.22238 86.5945 9.5854 86.1195 9.9424 85.6545L12.2774 81.3725C13.0434 79.9735 13.5604 78.4515 13.8054 76.8755C15.2904 67.2685 19.9184 60.3275 22.0544 57.1265L22.0644 57.1095C22.1874 56.9265 22.3444 56.6945 22.4254 56.5665L22.8814 55.8385C23.0604 55.4485 23.2964 54.9305 23.5034 54.3865C23.7114 53.7375 23.9584 52.9355 24.2274 52.1055C24.7334 48.0135 25.7034 43.9915 27.1184 40.1185L27.2794 39.6665L27.4564 39.2095C27.6054 38.8305 27.7154 38.5005 27.9314 37.8515C28.9534 34.7805 30.8484 29.0805 35.8894 22.8615L37.6334 20.7525L39.3944 19.1625C44.4054 14.6085 50.3754 11.2375 56.8644 9.30051C60.6304 8.18251 64.5134 7.50452 68.4354 7.28052L68.7664 7.25552L69.2704 7.23251C69.8924 7.20351 70.5144 7.18951 71.1364 7.18951C74.5094 7.18451 77.8684 7.61151 81.1314 8.46051C83.9574 9.17551 86.9454 8.85953 89.5584 7.57053C93.7414 5.54053 99.3364 3.38651 105.89 2.58151C106.34 2.51751 106.72 2.4675 107.029 2.4285C107.844 2.3265 109.142 2.17352 110.718 2.01352C113.461 1.75052 117.679 1.4375 122.191 1.4375C130.413 1.4375 137.328 2.44651 143.342 4.52451L143.784 4.6785L144.215 4.83951C158.193 10.1235 164.451 17.0435 169.219 23.1125C170.27 24.4495 170.429 24.6575 171.151 25.2985L172.041 26.0905L172.387 26.4445C174.687 28.2265 179.39 31.8945 183.506 38.6795L184.287 39.9645L184.947 41.3105C190.998 53.6585 189.115 64.8105 188.211 70.1715L188.161 70.4675C187.514 74.3975 186.419 78.2415 184.897 81.9225L184.856 82.2605C184.454 85.7815 183.676 89.2495 182.535 92.6055C180.824 97.8605 178.294 102.813 175.039 107.279C172.316 111.182 169.043 114.67 165.322 117.637C164.437 118.339 163.712 119.222 163.196 120.227C162.68 121.233 162.386 122.337 162.332 123.466C162.231 125.681 161.976 127.888 161.569 130.068C159.69 140.175 155.278 147.182 153.026 150.68L148.551 157.293C141.805 166.298 133.809 172.127 124.146 175.09L122.158 175.712L120.007 176.086C117.258 176.572 114.47 176.813 111.678 176.807C111.244 176.807 110.803 176.807 110.326 176.795H110.216H109.739C109.658 176.795 109.411 176.795 108.909 176.826L108.453 176.855L108.012 176.872L105.706 176.957C104.091 177.012 102.492 177.3 100.959 177.812C94.2434 180.075 86.3194 181.139 76.3544 181.139Z" stroke="url(#paint4_linear_16934_507)" stroke-width="0.989438" stroke-miterlimit="10"/>
<path opacity="0.8" d="M76.3531 172.843C70.4081 172.843 64.5631 172.451 59.6321 172.068L58.8871 172.01L58.1431 171.908C57.1251 171.767 56.0531 171.649 55.0141 171.537C50.4751 171.041 44.2681 170.367 37.3401 167.118L36.5111 166.726L35.7371 166.293C22.4331 158.828 17.5391 147.815 13.9641 139.767C13.5931 138.938 13.2071 138.065 12.8261 137.229C11.3061 134.173 10.3381 131.238 9.53307 128.727L9.40908 128.335L9.30108 127.952C5.41108 114.127 6.87308 104.429 14.5161 93.3637L14.9311 92.7617L15.3811 92.1857C15.8891 91.5367 16.3641 90.9127 16.8321 90.3197C17.5371 89.3947 18.2511 88.4527 19.0281 87.4847C19.5111 86.8817 19.9001 86.2087 20.1831 85.4897L21.0601 83.2507C21.4321 82.2977 21.6651 81.2977 21.7531 80.2787C22.5141 71.4097 26.8271 64.9447 28.9631 61.7407L28.9751 61.7237C29.1311 61.4877 29.3671 61.1357 29.4461 61.0087L29.9461 60.2107L30.0991 60.0027C30.3651 59.4657 30.8851 58.3317 31.3431 57.1437C31.5901 56.3307 31.9801 55.0827 32.3611 53.9477C32.3611 53.9047 32.3611 53.8567 32.3781 53.8067C32.7871 50.0907 33.6431 46.4377 34.9291 42.9267L35.0511 42.5867L35.1841 42.2447C35.4161 41.6537 35.5801 41.1597 35.8061 40.4777C36.7181 37.7367 38.2441 33.1477 42.3341 28.1047L43.6421 26.5207L44.9551 25.3347C54.6131 16.5707 65.4211 15.8147 69.0331 15.5717L69.2821 15.5527L69.6641 15.5347C70.1551 15.5117 70.6471 15.5017 71.1281 15.5017C75.4161 15.5167 79.6591 16.3837 83.6091 18.0537C84.3091 18.3447 85.0641 18.4767 85.8211 18.4407C86.5781 18.4047 87.3171 18.2017 87.9861 17.8467H88.007C91.679 15.7167 98.4061 11.8557 106.983 10.8227C107.397 10.7607 107.779 10.7137 108.059 10.6777C108.814 10.5827 110.018 10.4417 111.499 10.2987C114.062 10.0537 117.998 9.76172 122.182 9.76172C129.467 9.76172 135.497 10.6237 140.619 12.3947L140.951 12.5087L141.274 12.6317C153.253 17.1577 158.419 22.8377 162.682 28.2667C163.829 29.7177 164.341 30.3917 165.625 31.5237L166.292 32.1187L166.827 32.6687L167.242 32.9967C169.272 34.5677 173.048 37.4937 176.399 43.0057L176.986 43.9697L177.481 44.9797C182.354 54.9327 180.83 63.9597 180.011 68.8117L179.964 69.0997C179.386 72.6277 178.382 76.0717 176.973 79.3557L176.855 79.6377C176.843 79.6987 176.826 79.7877 176.801 79.9177C176.737 80.2517 176.7 80.5177 176.656 80.8557L176.606 81.2367C176.274 84.2117 175.62 87.1417 174.655 89.9747C173.204 94.4447 171.054 98.6567 168.287 102.454C165.55 106.34 162.481 109.505 159.037 112.01C157.525 113.114 156.29 114.555 155.43 116.218C154.57 117.881 154.108 119.722 154.081 121.594C154.052 123.929 153.823 126.257 153.398 128.553C151.81 137.115 148.156 142.913 145.882 146.446L142.63 151.321C136.807 159.456 129.938 164.651 121.67 167.182L121.233 167.319C120.531 167.54 119.815 167.713 119.091 167.838L118.566 167.929C116.285 168.333 113.973 168.534 111.657 168.528C111.265 168.528 110.867 168.528 110.435 168.518H110.365C110.168 168.518 109.95 168.518 109.718 168.518C109.556 168.518 109.129 168.518 108.357 168.566L108.015 168.586L107.681 168.599C106.572 168.64 105.193 168.688 103.963 168.742C102.278 168.812 100.613 169.138 99.0261 169.71C93.0751 171.836 85.7921 172.843 76.3531 172.843Z" stroke="url(#paint5_linear_16934_507)" stroke-width="0.923475" stroke-miterlimit="10"/>
<path opacity="0.8" d="M76.3486 164.549C70.6856 164.549 65.0436 164.17 60.2706 163.799L59.7726 163.761L59.2766 163.691C58.1346 163.533 56.9956 163.409 55.8986 163.291C51.7266 162.837 46.5346 162.271 40.8566 159.608L40.3016 159.347L39.7866 159.059C28.8886 152.948 24.8156 143.774 21.5396 136.402C21.1366 135.494 20.7096 134.557 20.2946 133.644C19.0116 131.083 18.1426 128.46 17.4296 126.215L17.3466 125.955L17.2736 125.7C14.0636 114.295 15.1236 107.056 21.3296 98.0707L21.6056 97.6707L21.9066 97.2877C22.4476 96.5947 22.9426 95.9477 23.4156 95.3237C25.0356 93.1997 26.5926 91.1557 28.9216 88.6697C29.4316 88.1237 29.7376 87.4177 29.7856 86.6727L29.9626 83.9887L29.8936 83.1097L29.9246 82.1977C30.1676 74.8387 33.8646 69.3017 35.8426 66.3277C36.0716 65.9837 36.3096 65.6297 36.4506 65.4037L36.7846 64.8727L37.0936 64.4577C37.4626 63.8547 38.4326 61.7977 39.1666 59.8237C39.4196 58.9937 39.9096 57.4117 40.3406 56.1567C40.4676 55.7567 40.4796 55.6597 40.5836 54.8007C40.9206 51.6957 41.6356 48.6427 42.7126 45.7107L42.7936 45.4817L42.8826 45.2517C43.1896 44.4677 43.4036 43.8277 43.6506 43.0847C44.4316 40.7337 45.6096 37.1897 48.7496 33.3187L49.6246 32.2607L50.4906 31.4767C57.2576 25.3327 64.6286 24.1697 69.6036 23.8357L69.7716 23.8207H70.0286C70.3896 23.8047 70.7486 23.7967 71.1006 23.7967C75.3496 23.7967 80.4316 25.8347 83.1006 27.0667C83.7386 27.3587 84.4286 27.5227 85.1306 27.5487C85.8326 27.5737 86.5326 27.4597 87.1896 27.2137C88.8506 26.6117 90.4686 25.8997 92.0336 25.0817C95.4286 23.1117 101.061 19.8587 108.055 19.0437C108.441 18.9857 108.787 18.9417 109.073 18.9047C109.776 18.8177 110.886 18.6977 112.26 18.5537C114.645 18.3257 118.297 18.0547 122.156 18.0547C128.501 18.0547 133.646 18.7677 137.882 20.2317L138.102 20.3087L138.309 20.3897C148.314 24.1697 152.296 28.5137 156.126 33.3887C157.37 34.9607 158.249 36.0847 160.076 37.7187L160.52 38.1147L160.934 38.5297C161.307 38.8987 161.708 39.2377 162.135 39.5437C163.852 40.8727 166.73 43.0997 169.283 47.3027L169.673 47.9457L170.004 48.6197C173.704 56.1697 172.515 63.2117 171.804 67.4187L171.757 67.7047C171.284 70.6097 170.456 73.4447 169.291 76.1467V76.1677C168.969 76.8667 168.746 77.6067 168.63 78.3677C168.53 78.8987 168.468 79.3257 168.408 79.7987L168.358 80.1837C168.092 82.6107 167.561 85.0017 166.776 87.3127C165.592 91.0017 163.821 94.4747 161.532 97.5987C158.152 102.42 154.245 105.812 149.538 107.967C148.394 108.489 147.417 109.316 146.715 110.359C146.012 111.401 145.611 112.617 145.556 113.872C145.534 114.387 145.525 114.81 145.54 115.046C145.772 118.673 146.035 122.783 145.227 127.017C143.931 134.02 140.965 138.727 138.736 142.183C138.736 142.183 128.509 156.417 119.203 159.258L118.201 159.571L117.125 159.759C115.314 160.081 113.478 160.24 111.638 160.234C111.29 160.234 110.933 160.234 110.55 160.224H110.516C110.27 160.224 110.002 160.224 109.699 160.224C109.334 160.224 108.739 160.224 107.814 160.288L107.588 160.303H107.365C103.804 160.431 100.439 160.552 99.5026 160.734C99.0026 160.812 98.5147 160.955 98.0517 161.161C92.7847 163.469 85.8776 164.549 76.3486 164.549Z" stroke="url(#paint6_linear_16934_507)" stroke-width="0.857513" stroke-miterlimit="10"/>
<path opacity="0.8" d="M76.3551 156.258C70.9761 156.258 65.5331 155.891 60.9171 155.532L60.6701 155.513L60.4231 155.478C59.1601 155.304 57.9621 155.173 56.8011 155.047C52.8731 154.619 48.8111 154.178 44.3841 152.102L44.1061 151.969L43.8491 151.826C35.3471 147.057 32.1891 139.934 29.1261 133.037C28.6911 132.059 28.2411 131.047 27.7761 130.041C26.7391 127.992 26.0051 125.794 25.3461 123.712L25.3041 123.584L25.2671 123.453C22.7151 114.375 23.3641 109.74 28.1701 102.787L28.3091 102.58L28.4581 102.387C29.0221 101.668 29.5351 100.996 30.0281 100.347C32.3381 97.3166 34.3351 94.6977 38.8101 90.5677L38.8221 90.5547C39.1511 90.2417 39.3811 89.8397 39.4861 89.3977C39.5911 88.9567 39.5651 88.4937 39.4131 88.0667L38.6071 85.7667C38.4451 85.0417 38.3311 84.3067 38.2671 83.5667V83.5417L38.2171 82.9197L38.2331 82.4637C38.3971 77.4687 41.0251 73.5307 42.7621 70.9237C43.0341 70.5087 43.2931 70.1297 43.4941 69.8057L43.6601 69.5406L43.8471 69.2897C44.7701 68.0457 46.2691 64.6017 47.0571 62.4677C47.2641 61.8107 47.7951 60.0457 48.2371 58.7667C48.5511 57.8037 48.7551 56.8097 48.8441 55.8007C49.1051 53.3047 49.6781 50.8497 50.5491 48.4957L50.5901 48.3797L50.6361 48.2657C51.0191 47.2807 51.2891 46.4717 51.5501 45.6877C52.2451 43.5997 53.0311 41.2317 55.2181 38.5337L55.6581 38.0027L56.0871 37.6157C60.8941 33.2487 66.1631 32.3687 70.2271 32.0997H70.3121H70.4451C70.6731 32.0997 70.9011 32.0847 71.1271 32.0847C75.0821 32.0847 78.1221 33.7067 80.1331 34.7807L80.6021 35.0297L80.6721 35.0667C81.2241 35.3657 81.7091 35.6267 82.1591 35.8487C83.4091 36.4757 84.8451 36.6227 86.1961 36.2637C88.9501 35.5227 93.2471 33.8937 96.1371 32.3047L96.1971 32.2697C99.2371 30.5067 103.816 27.8527 109.182 27.2637C109.52 27.2097 109.844 27.1707 110.149 27.1307C110.771 27.0527 111.807 26.9237 113.074 26.8097C115.281 26.6027 118.65 26.3477 122.182 26.3477C127.59 26.3477 131.847 26.9117 135.198 28.0687L135.308 28.1077L135.42 28.1497C143.447 31.1827 146.375 34.3577 149.636 38.5177C150.964 40.2077 152.218 41.8037 154.597 43.9217L154.818 44.1287L155.026 44.3357C155.669 44.9847 156.362 45.5817 157.099 46.1217C158.526 47.2267 160.481 48.7407 162.238 51.6307L162.433 51.9527L162.599 52.2906C165.122 57.4436 164.282 62.4237 163.669 66.0587L163.621 66.3457C163.254 68.6387 162.596 70.8757 161.665 73.0037C161.122 74.2287 160.736 75.5177 160.517 76.8397C160.372 77.6067 160.287 78.2067 160.216 78.7617L160.166 79.1557C159.967 81.0357 159.56 82.8867 158.953 84.6757C158.033 87.5797 156.642 90.3117 154.835 92.7627C151.787 97.1387 148.407 99.8367 143.917 101.265C141.766 101.946 139.915 103.348 138.677 105.234L138.321 105.782L137.927 106.232C136.786 107.53 137.108 112.56 137.305 115.563C137.512 118.858 137.734 122.265 137.118 125.473C136.106 130.957 133.757 134.659 131.654 137.914C131.654 137.914 123.845 149.18 116.799 151.32L116.286 151.482L115.747 151.575C114.405 151.816 113.044 151.934 111.681 151.928C111.374 151.928 111.059 151.928 110.725 151.928C110.429 151.928 110.103 151.928 109.742 151.928C109.263 151.928 108.498 151.928 107.333 152.009H107.221H107.109C102.383 152.181 99.5321 152.282 97.9561 152.589C96.8951 152.777 95.8601 153.086 94.8701 153.512C90.6501 155.383 84.7571 156.258 76.3551 156.258Z" stroke="url(#paint7_linear_16934_507)" stroke-width="0.857513" stroke-miterlimit="10"/>
</g>
</g>
<defs>
<filter id="filter0_i_16934_507" x="-18.2031" y="-16.9375" width="224.748" height="214.327" filterUnits="userSpaceOnUse" color-interpolation-filters="sRGB">
<feFlood flood-opacity="0" result="BackgroundImageFix"/>
<feBlend mode="normal" in="SourceGraphic" in2="BackgroundImageFix" result="shape"/>
<feColorMatrix in="SourceAlpha" type="matrix" values="0 0 0 0 0 0 0 0 0 0 0 0 0 0 0 0 0 0 127 0" result="hardAlpha"/>
<feOffset dx="0.26385" dy="0.395775"/>
<feGaussianBlur stdDeviation="0.329812"/>
<feComposite in2="hardAlpha" operator="arithmetic" k2="-1" k3="1"/>
<feColorMatrix type="matrix" values="0 0 0 0 0 0 0 0 0 0 0 0 0 0 0 0 0 0 0.12 0"/>
<feBlend mode="normal" in2="shape" result="effect1_innerShadow_16934_507"/>
</filter>
<radialGradient id="paint0_radial_16934_507" cx="0" cy="0" r="1" gradientUnits="userSpaceOnUse" gradientTransform="translate(92.779 102.502) rotate(90) scale(104.235)">
<stop offset="0.166667" stop-color="#073183"/>
<stop offset="1" stop-color="#0054F9"/>
</radialGradient>
<radialGradient id="paint1_radial_16934_507" cx="0" cy="0" r="1" gradientUnits="userSpaceOnUse" gradientTransform="translate(92.779 102.502) rotate(90) scale(104.235)">
<stop offset="0.166667" stop-color="#073183"/>
<stop offset="1" stop-color="#0054F9"/>
</radialGradient>
<linearGradient id="paint2_linear_16934_507" x1="-17.6717" y1="-16.4102" x2="194.956" y2="206.755" gradientUnits="userSpaceOnUse">
<stop offset="0.205697" stop-color="#89D0FF"/>
<stop offset="0.398413" stop-color="#EBBF9A"/>
<stop offset="0.601546" stop-color="#EB8280"/>
<stop offset="0.841139" stop-color="#A281FF"/>
</linearGradient>
<linearGradient id="paint3_linear_16934_507" x1="-9.39047" y1="-6.85936" x2="186.629" y2="199.716" gradientUnits="userSpaceOnUse">
<stop offset="0.205697" stop-color="#89D0FF"/>
<stop offset="0.398413" stop-color="#EBBF9A"/>
<stop offset="0.601546" stop-color="#EB80DA"/>
<stop offset="0.841139" stop-color="#A281FF"/>
</linearGradient>
<linearGradient id="paint4_linear_16934_507" x1="-1.07862" y1="1.4365" x2="178.329" y2="191.418" gradientUnits="userSpaceOnUse">
<stop offset="0.205697" stop-color="#89D0FF"/>
<stop offset="0.398413" stop-color="#EBBF9A"/>
<stop offset="0.601546" stop-color="#EB8280"/>
<stop offset="0.841139" stop-color="#A281FF"/>
</linearGradient>
<linearGradient id="paint5_linear_16934_507" x1="7.21808" y1="9.76172" x2="169.977" y2="183.098" gradientUnits="userSpaceOnUse">
<stop offset="0.205697" stop-color="#89D0FF"/>
<stop offset="0.398413" stop-color="#EBBF9A"/>
<stop offset="0.601546" stop-color="#EB80E7"/>
<stop offset="0.841139" stop-color="#A281FF"/>
</linearGradient>
<linearGradient id="paint6_linear_16934_507" x1="15.5076" y1="18.0547" x2="161.649" y2="174.733" gradientUnits="userSpaceOnUse">
<stop offset="0.205697" stop-color="#89D0FF"/>
<stop offset="0.398413" stop-color="#EBBF9A"/>
<stop offset="0.601546" stop-color="#EB80D3"/>
<stop offset="0.841139" stop-color="#A281FF"/>
</linearGradient>
<linearGradient id="paint7_linear_16934_507" x1="23.7971" y1="26.3477" x2="153.307" y2="166.431" gradientUnits="userSpaceOnUse">
<stop offset="0.205697" stop-color="#89D0FF"/>
<stop offset="0.398413" stop-color="#EBBF9A"/>
<stop offset="0.601546" stop-color="#A280EB"/>
<stop offset="0.841139" stop-color="#A281FF"/>
</linearGradient>
</defs>
</svg>
