<svg xmlns="http://www.w3.org/2000/svg" data-name="Layer 2" viewBox="0 0 369.58 299.71"><path d="M109.11 181.55c5.05-.25 14.34 2.53 19.91 3.3 33.24 4.62 69.02 4.95 102.37 1.01 7.97-.94 21.54-4.59 28.54-4.45 7.61.15 24.25 4.34 32.28 6.25 22.22 5.3 62.43 17.91 74.08 38.88 18.12 32.62-43.18 53.15-64.98 59.13-72.22 19.82-183.15 19.52-253.73-6.48-19.89-7.33-59.51-26.09-44.09-53.28 12.49-22.02 57.63-34.81 81.11-39.85 6.97-1.49 17.7-4.19 24.51-4.53Zm215.91-70.38c24.7 25.18-16.41 44.3-36.06 50.79-57.93 19.14-150.6 19.16-208.54 0-17.94-5.93-56.64-22.84-38.95-47.44 12.92-17.97 56-28.36 77.11-31.85 5.33-.88 13.76-2.59 18.88-2.66 5.51-.08 13.16 1.95 18.98 2.51 19.86 1.91 41.64 1.47 61.49-.5 4.17-.41 9.53-2 13.51-2.04 5.01-.05 14.05 1.82 19.34 2.7 21.79 3.61 58.49 12.45 74.23 28.49ZM168.09.26c31.81-1.3 95.46 1.61 120.34 23.34 20.67 18.04-7.05 32.89-22.48 38.46-44.24 15.96-123.66 16.3-167.25-1.77-33.57-13.91-32.62-33.42.51-46.93 20.36-8.3 46.92-12.2 68.88-13.1" data-name="Layer 1" style="fill:#e2d4c0"/></svg>