<svg width="400" height="401" viewBox="0 0 400 401" fill="none" xmlns="http://www.w3.org/2000/svg">
<path d="M130.048 231.38C130.048 221.231 130.007 211.083 130.089 200.914C130.089 198.913 129.573 197.221 128.521 195.592C127.139 193.467 125.447 191.611 123.57 189.899C121.301 187.795 118.99 185.753 116.742 183.628C113.853 180.905 110.924 178.203 108.118 175.398C103.662 170.942 100.176 165.806 97.5146 160.093C95.6167 156.008 94.0695 151.842 93.5125 147.366C93.1618 144.602 93.203 141.838 93.9044 139.115C95.266 133.917 99.9696 131.792 103.539 131.813C115.256 131.854 126.974 131.813 138.712 131.813C139.207 131.813 139.723 131.813 140.218 131.813C141.353 131.772 141.477 131.669 141.477 130.472C141.477 126.883 141.456 123.294 141.477 119.684C141.497 117.353 141.559 115.022 142.116 112.733C144.241 104.028 149.646 98.5415 158.29 96.2726C161.219 95.5094 164.252 95.2618 167.285 95.5506C173.04 96.0663 177.93 98.4384 181.849 102.708C184.779 105.905 186.656 109.618 187.296 113.929C187.419 114.734 187.481 115.559 187.502 116.363C187.522 120.839 187.522 125.315 187.543 129.791C187.543 131.751 187.543 131.751 189.565 131.751C196.682 131.751 203.82 131.751 210.937 131.751C211.371 131.751 211.824 131.751 212.258 131.71C212.629 131.689 212.835 131.442 212.877 131.112C212.938 130.617 212.938 130.101 212.938 129.606C212.938 126.017 212.938 122.428 212.938 118.818C212.938 116.796 213.083 114.775 213.557 112.815C215.662 104.131 221.087 98.6241 229.669 96.2519C232.784 95.3856 235.982 95.2412 239.221 95.7363C240.52 95.9219 241.841 96.0663 243.12 96.417C250.216 98.3765 257.437 104.709 258.675 113.682C258.84 114.878 258.984 116.054 258.984 117.25C258.984 120.716 258.984 124.181 259.005 127.646C259.005 128.595 258.984 129.544 259.005 130.493C259.025 131.627 259.17 131.751 260.346 131.792C260.841 131.792 261.357 131.792 261.852 131.792C271.878 131.792 281.883 131.792 291.909 131.792C293.312 131.792 294.653 132.019 295.973 132.514C298.882 133.628 300.698 135.753 301.688 138.661C302.575 141.281 302.699 144.003 302.286 146.706C300.76 156.627 296.572 165.291 289.929 172.819C285.535 177.791 280.687 182.287 275.756 186.722C274.291 188.022 272.827 189.321 271.403 190.641C269.588 192.312 268.02 194.21 266.844 196.396C266.246 197.531 265.916 198.727 265.916 200.027V201.347C265.916 214.156 265.916 226.945 265.916 239.754C265.916 246.499 265.813 253.244 265.792 259.989C265.771 266.508 264.389 272.758 261.852 278.719C259.108 285.175 255.23 290.889 250.175 295.757C243.12 302.564 234.827 307.122 225.193 309.144C221.355 309.948 217.477 310.361 213.557 310.381C202.789 310.443 191.999 310.567 181.23 310.381C170.297 310.216 160.271 306.957 151.4 300.48C141.807 293.467 135.432 284.185 132.131 272.758C131.286 269.849 130.708 266.879 130.399 263.888C130.13 261.33 130.068 258.731 130.068 256.153C130.027 247.902 130.068 239.631 130.068 231.38H129.986H130.048ZM151.874 227.131C151.874 237.403 151.874 247.696 151.874 257.968C151.874 260.546 152.08 263.104 152.72 265.641C154.474 272.551 158.166 278.183 163.798 282.535C169.389 286.867 175.846 288.744 182.819 288.805C192.845 288.888 202.85 288.847 212.877 288.805C215.455 288.805 218.055 288.62 220.551 288.001C229.772 285.773 236.663 280.472 241.016 272.015C243.182 267.828 244.275 263.331 244.234 258.566C244.213 255.286 244.234 252.007 244.234 248.727C244.234 246.809 244.811 246.437 241.944 245.551C233.836 243.013 226.265 239.321 219.169 234.68C211.309 229.544 204.295 223.418 198.291 216.198C191.422 207.927 186.285 198.645 182.695 188.496C180.859 183.319 179.601 177.997 178.899 172.572C178.487 169.457 178.301 166.301 178.157 163.166C178.033 160.711 177.971 158.257 177.826 155.802C177.682 153.265 177.826 153.471 175.413 153.471H138.733C138.238 153.471 137.722 153.43 137.227 153.492C134.834 153.822 132.936 155.142 132.42 157.638C132.09 159.226 132.111 160.918 132.441 162.527C133.493 167.436 135.7 171.768 139.352 175.295C141.972 177.832 144.612 180.39 147.212 182.947C147.934 183.649 148.615 184.391 149.234 185.175C150.636 186.928 151.544 188.909 151.75 191.178C151.833 192.188 151.915 193.178 151.915 194.189V227.11L151.874 227.131ZM242.728 212.093C242.666 206.772 238.457 202.007 232.619 202.007C227.544 202.007 222.573 205.699 222.511 212.073C222.428 217.952 227.07 222.283 232.722 222.221C238.829 222.159 242.687 217.291 242.748 212.073L242.728 212.093Z" fill="white"/>
<path d="M171.536 221.873C166.853 222.12 161.737 218.119 161.758 212.054C161.779 207.496 165.1 202.421 171.516 202.36C176.962 202.318 181.129 206.361 181.274 212.013C181.418 217.479 177.024 221.852 171.536 221.852V221.873Z" fill="white"/>
<path d="M397.474 231.731C397.454 231.979 397.371 232.226 397.392 232.474C397.64 234.248 397.268 235.981 396.959 237.713C396.134 242.354 395.061 246.954 393.864 251.513C392.317 257.35 390.481 263.105 388.397 268.778C385.241 277.358 381.486 285.651 377.175 293.716C373.193 301.162 368.758 308.34 363.869 315.23C361.022 319.231 358.051 323.151 354.936 326.946C352.893 329.421 350.789 331.835 348.644 334.227C345.178 338.064 341.547 341.735 337.813 345.304C333.666 349.264 329.334 352.998 324.837 356.566C319.556 360.774 314.068 364.652 308.416 368.324C300.865 373.233 292.985 377.565 284.815 381.381C277.038 384.99 269.075 388.085 260.905 390.663C228.454 400.894 193.528 402.771 160.149 396.108C149.958 394.066 139.87 391.261 130.133 387.61C125.367 385.816 120.664 383.877 116.022 381.731C109.379 378.679 102.963 375.213 96.6919 371.459C90.3173 367.622 84.1902 363.435 78.3107 358.897C74.2673 355.783 70.3476 352.544 66.5518 349.141C61.58 344.685 56.8351 339.982 52.3172 335.073C48.48 330.906 44.8286 326.575 41.3628 322.078C37.5875 317.189 34.0392 312.156 30.7178 306.958C25.4159 298.666 20.7742 290.023 16.7514 281.051C13.7807 274.45 11.1814 267.684 8.97397 260.795C7.07602 254.875 5.44627 248.852 4.10533 242.767C3.3214 239.198 2.64062 235.63 2.04235 232.02C1.67101 229.854 1.42346 227.668 1.13464 225.481C0.928341 223.934 0.680784 222.367 0.557005 220.799C0.371337 218.303 0 215.807 0 213.291C0 211.703 0.103149 210.155 0.474486 208.608C0.618894 208.34 0.783933 208.072 0.928341 207.783C1.85668 205.948 3.36266 204.792 5.32249 204.236C12.0891 202.338 17.7416 206.051 23.4561 210.032C24.8383 211.063 26.1999 212.115 27.5408 213.188C28.1184 213.662 28.7167 214.116 29.315 214.59C30.0989 215.209 30.8828 215.849 31.6874 216.447C33.5234 217.849 35.4214 219.211 37.2162 220.696C39.1966 222.346 41.3215 223.811 43.3226 225.44C45.1999 227.008 47.2216 228.41 49.1608 229.916C50.9969 231.339 52.8742 232.721 54.6896 234.165C57.1033 236.084 59.5789 237.899 62.0338 239.755C63.8905 241.158 65.7472 242.561 67.5626 244.004C69.5843 245.613 71.6886 247.099 73.6897 248.707C76.0002 250.543 78.3933 252.276 80.7451 254.07C83.9839 256.546 87.1403 259.454 89.1827 263.023C91.6789 267.416 92.0915 272.14 90.1316 277.173C89.0382 281.174 84.9329 284.516 81.1989 285.96C75.7733 288.064 70.0795 286.806 65.2727 283.835C62.5908 282.185 60.0534 280.329 57.5778 278.39C55.1435 276.513 52.6679 274.677 50.2748 272.738C48.2325 271.088 46.1076 269.5 44.0034 267.911C42.7862 267.004 41.5278 266.179 40.3106 265.292C39.5886 264.755 38.7428 264.487 37.897 264.24C37.505 264.116 37.1543 264.26 36.8655 264.528C36.5766 264.797 36.3703 265.106 36.3703 265.519C36.3703 265.828 36.3497 266.158 36.4322 266.447C36.7004 267.416 36.9274 268.406 37.2987 269.335C37.8351 270.675 38.4127 271.995 39.0522 273.295C40.5995 276.451 42.2086 279.607 43.7764 282.763C44.0034 283.217 44.2303 283.67 44.4779 284.103C45.1999 285.362 45.9632 286.579 46.644 287.858C47.9024 290.188 49.3465 292.396 50.77 294.623C52.771 297.82 54.9372 300.915 57.1858 303.947C58.8981 306.257 60.6929 308.547 62.4671 310.836C63.0859 311.641 63.7048 312.424 64.4063 313.146C65.644 314.487 66.6962 315.993 68.0371 317.251C68.2228 317.416 68.3259 317.643 68.491 317.849C68.7798 318.179 69.048 318.53 69.3574 318.86C71.5648 321.108 73.7516 323.377 76.0002 325.585C78.2489 327.792 80.3531 330.122 82.8493 332.061C84.5409 333.753 86.4389 335.217 88.2543 336.744C89.6984 337.961 91.1631 339.157 92.6485 340.292C94.3401 341.591 96.0111 342.932 97.7853 344.128C99.8689 345.531 101.911 346.995 104.036 348.357C107.151 350.358 110.287 352.338 113.526 354.174C116.001 355.576 118.498 356.876 120.994 358.217C122.768 359.165 124.625 359.929 126.44 360.816C128.586 361.868 130.793 362.816 133 363.724C137.003 365.374 141.067 366.921 145.193 368.283C148.122 369.252 151.031 370.263 154.022 371.026C187.442 379.731 223.462 379.937 256.614 369.314C257.13 369.149 257.646 368.984 258.141 368.819C261.111 367.808 264.103 366.839 267.032 365.684C269.549 364.693 272.066 363.683 274.541 362.61C277.079 361.496 279.575 360.3 282.071 359.145C283.68 358.402 285.228 357.577 286.754 356.69C288.322 355.783 289.973 354.978 291.561 354.091C293.81 352.833 296.017 351.471 298.183 350.089C301.793 347.8 305.321 345.386 308.808 342.891C309.922 342.086 311.015 341.24 312.108 340.395C313.243 339.508 314.378 338.6 315.492 337.693C316.42 336.95 317.348 336.207 318.235 335.403C319.679 334.083 321.268 332.928 322.588 331.505C322.712 331.36 322.877 331.257 323.022 331.154C323.496 330.741 324.012 330.37 324.445 329.937C327.663 326.74 330.861 323.522 334.058 320.325C334.368 320.015 334.719 319.726 334.966 319.355C335.564 318.468 336.369 317.746 337.07 316.942C337.772 316.137 338.453 315.312 339.154 314.508C340.041 313.456 340.969 312.424 341.836 311.352C343.012 309.887 344.146 308.382 345.281 306.876C347.076 304.524 348.809 302.152 350.48 299.698C352.625 296.583 354.647 293.406 356.566 290.168C357.824 288.064 359.041 285.939 360.176 283.753C361.867 280.514 363.456 277.235 365.086 273.955C365.313 273.501 365.54 273.047 365.725 272.594C366.262 271.315 366.757 270.036 367.334 268.778C368.634 265.849 369.769 262.837 370.841 259.825C371.955 256.731 372.966 253.617 373.936 250.481C374.864 247.49 375.524 244.314 376.659 241.405C377.587 238.992 378.681 236.599 380.187 234.475C382.208 231.628 384.973 229.504 388.315 228.472C389.841 227.998 391.389 227.75 392.977 227.915C394.648 228.101 395.948 228.864 396.752 230.37C396.979 230.824 397.206 231.278 397.433 231.711L397.474 231.731Z" fill="white"/>
<path d="M3.07573 166.275C2.99321 164.769 2.86944 163.263 3.03447 161.757C3.09636 161.139 3.17888 160.52 3.30266 159.901C4.37541 154.476 5.71635 149.092 7.28421 143.791C8.54263 139.501 9.94546 135.272 11.4927 131.085C14.1952 123.824 17.2897 116.729 20.8174 109.839C26.3049 99.1133 32.6795 88.9441 39.9825 79.3319C43.0769 75.2684 46.2745 71.308 49.6785 67.5126C53.6188 63.0984 57.7241 58.8286 62.1182 54.8476C63.7893 53.3212 65.4603 51.7741 67.1313 50.2684C71.4017 46.4317 75.8577 42.8633 80.4581 39.4185C85.8631 35.3756 91.4332 31.6215 97.2302 28.1562C103.295 24.5464 109.484 21.2048 115.9 18.2345C123.616 14.6661 131.517 11.5926 139.645 9.03491C172.343 -1.19611 207.682 -2.68126 241.206 4.29069C250.819 6.29151 260.309 8.97303 269.51 12.3971C275.534 14.6454 281.413 17.1826 287.189 19.9878C293.358 22.9994 299.34 26.341 305.22 29.8888C311.203 33.5192 316.958 37.459 322.508 41.7081C325.808 44.2246 329.027 46.8649 332.183 49.567C336.825 53.5481 341.219 57.7972 345.448 62.1908C349.698 66.5844 353.7 71.2048 357.496 75.9903C361.333 80.8377 364.943 85.8294 368.306 91.0068C373.566 99.0926 378.188 107.529 382.21 116.295C385.697 123.845 388.647 131.601 391.143 139.521C393.144 145.875 394.836 152.331 396.197 158.87C397.064 163.057 397.848 167.265 398.467 171.493C399.168 176.176 399.828 180.858 399.973 185.602C400.096 189.769 398.343 193.936 393.722 194.389C390.132 194.74 386.666 193.503 383.551 191.79C381.014 190.388 378.683 188.614 376.372 186.861C375.959 186.861 374.907 185.747 374.557 185.479C373.876 184.963 373.174 184.427 372.494 183.911C371.111 182.859 369.729 181.807 368.347 180.776C365.686 178.754 363.045 176.733 360.405 174.691C358.961 173.577 357.496 172.484 356.052 171.39C354.504 170.215 352.895 169.101 351.41 167.842C349.43 166.192 347.305 164.728 345.304 163.098C342.869 161.118 340.311 159.282 337.836 157.364C335.463 155.507 333.049 153.692 330.677 151.836C328.057 149.794 325.355 147.834 322.755 145.751C322.26 145.359 321.765 144.967 321.27 144.596C320.362 143.915 319.537 143.131 318.65 142.43C316.917 141.048 315.39 139.48 314.029 137.748C312.523 135.829 311.471 133.705 310.872 131.374C310.563 130.157 310.274 128.94 310.336 127.661C310.377 126.588 310.295 125.516 310.687 124.484C311.141 121.246 312.791 118.606 314.957 116.254C315.514 115.656 316.195 115.202 316.834 114.686C319.207 112.727 323.003 111.613 325.953 111.531C327.356 111.489 328.717 111.737 330.058 112.005C331.544 112.314 332.946 112.809 334.329 113.49C336.02 114.336 337.65 115.285 339.177 116.399C342.168 118.585 345.139 120.813 348.109 123.04C349.615 124.175 351.101 125.33 352.607 126.465C353.762 127.331 354.938 128.177 356.052 129.105C357.455 130.281 358.919 131.374 360.466 132.343C361.271 132.838 362.117 133.251 362.963 133.663C363.375 133.87 363.809 133.87 364.262 133.808C364.675 133.746 365.088 133.375 365.129 132.941C365.211 132.24 365.232 131.559 365.005 130.879C364.716 130.054 364.448 129.208 364.139 128.383C363.025 125.433 361.436 122.71 360.219 119.802C359.868 118.998 359.352 118.276 358.94 117.492C357.558 114.728 356.093 112.026 354.484 109.385C353.246 107.343 352.008 105.301 350.729 103.28C349.326 101.114 347.862 98.9895 346.397 96.8855C343.983 93.4408 341.384 90.1198 338.743 86.8401C337.34 85.0868 335.835 83.3748 334.349 81.6628C333.07 80.1982 331.605 78.8987 330.429 77.3311C327.335 74.2989 324.406 71.0604 321.084 68.2552C319.702 67.0794 318.444 65.7593 317.02 64.6042C315.803 63.6141 314.668 62.5208 313.451 61.5307C311.842 60.2106 310.212 58.9524 308.562 57.6941C306.416 56.0646 304.271 54.3938 302.043 52.888C297.855 50.0827 293.708 47.2774 289.335 44.7609C286.55 43.152 283.744 41.605 280.918 40.0992C277.308 38.1809 273.574 36.5101 269.819 34.86C266.353 33.3542 262.846 31.9722 259.298 30.6933C255.873 29.435 252.387 28.3624 248.901 27.3311C247.931 27.0423 246.961 26.7741 245.992 26.5266C213.706 18.1933 178.408 18.3996 146.391 28.4037C145.071 28.8162 143.73 29.1669 142.43 29.6413C141.069 30.157 139.707 30.6314 138.345 31.0852C137.809 31.2708 137.273 31.4565 136.757 31.6834C133.724 32.921 130.671 34.0761 127.68 35.3963C125.617 36.3038 123.554 37.2527 121.491 38.2015C119.222 39.2741 116.994 40.4293 114.786 41.6463C112.517 42.8839 110.268 44.1215 108.04 45.421C105.915 46.6586 103.852 47.9581 101.789 49.2783C98.241 51.5472 94.8165 54.0019 91.4332 56.4977C88.7101 58.5192 86.0488 60.6232 83.4495 62.8096C82.1498 63.9029 80.7882 64.9136 79.6123 66.1718C79.406 66.3987 79.1378 66.5844 78.9109 66.7906C78.3952 67.2444 77.8382 67.657 77.343 68.152C74.0835 71.3905 70.8034 74.6083 67.5851 77.888C66.0792 79.4144 64.697 81.0439 63.2529 82.6116C63.1704 82.6941 63.0878 82.7972 63.026 82.9004C62.634 83.5604 62.077 84.0761 61.5612 84.633C61.3137 84.9218 61.0455 85.19 60.7979 85.4788C59.1269 87.6033 57.4559 89.7279 55.8261 91.8732C54.1345 94.0596 52.5254 96.308 50.9575 98.5976C48.7295 101.815 46.7284 105.136 44.7273 108.498C42.9532 111.469 41.2821 114.501 39.7555 117.616C38.2289 120.73 36.5992 123.783 35.2376 126.96C34.4124 128.857 33.546 130.755 32.7827 132.673C32.3701 133.725 31.9575 134.777 31.5655 135.85C30.9053 137.624 30.2246 139.377 29.6057 141.151C28.2854 144.946 27.1713 148.804 25.9955 152.64C24.7989 156.539 23.7674 160.252 21.3537 163.614C19.4352 166.275 17.0009 168.255 13.927 169.41C11.9672 170.153 9.92483 170.441 7.84122 170.132C6.06706 169.864 4.70549 168.956 3.79778 167.389C3.59148 167.017 3.52959 166.543 3.15825 166.275H3.07573Z" fill="white"/>
</svg>
