<svg xmlns="http://www.w3.org/2000/svg" width="400" height="401" fill="none"><path fill="#fff" d="M130.048 231.38c0-10.149-.041-20.297.041-30.466 0-2.001-.516-3.693-1.568-5.322-1.382-2.125-3.074-3.981-4.951-5.693-2.269-2.104-4.58-4.146-6.828-6.271-2.889-2.723-5.818-5.425-8.624-8.23-4.456-4.456-7.942-9.592-10.603-15.305-1.898-4.085-3.445-8.251-4.002-12.727-.351-2.764-.31-5.528.391-8.251 1.362-5.198 6.066-7.323 9.635-7.302 11.717.041 23.435 0 35.173 0h1.506c1.135-.041 1.259-.144 1.259-1.341 0-3.589-.021-7.178 0-10.788.02-2.331.082-4.662.639-6.951 2.125-8.705 7.53-14.192 16.174-16.46a25.9 25.9 0 0 1 8.995-.722c5.755.515 10.645 2.887 14.564 7.157 2.93 3.197 4.807 6.91 5.447 11.221.123.805.185 1.63.206 2.434.02 4.476.02 8.952.041 13.428 0 1.96 0 1.96 2.022 1.96h21.372c.434 0 .887 0 1.321-.041.371-.021.577-.268.619-.598.061-.495.061-1.011.061-1.506v-10.788c0-2.022.145-4.043.619-6.003 2.105-8.684 7.53-14.19 16.112-16.563 3.115-.866 6.313-1.01 9.552-.516 1.299.186 2.62.33 3.899.681 7.096 1.96 14.317 8.292 15.555 17.265.165 1.196.309 2.372.309 3.568 0 3.466 0 6.931.021 10.396 0 .949-.021 1.898 0 2.847.02 1.134.165 1.258 1.341 1.299h31.563c1.403 0 2.744.227 4.064.722 2.909 1.114 4.725 3.239 5.715 6.147.887 2.62 1.011 5.342.598 8.045-1.526 9.921-5.714 18.585-12.357 26.113-4.394 4.972-9.242 9.468-14.173 13.903-1.465 1.3-2.929 2.599-4.353 3.919-1.815 1.671-3.383 3.569-4.559 5.755-.598 1.135-.928 2.331-.928 3.631v39.727c0 6.745-.103 13.49-.124 20.235-.021 6.519-1.403 12.769-3.94 18.73-2.744 6.456-6.622 12.17-11.677 17.038-7.055 6.807-15.348 11.365-24.982 13.387a58 58 0 0 1-11.636 1.237c-10.768.062-21.558.186-32.327 0-10.933-.165-20.959-3.424-29.83-9.901-9.593-7.013-15.968-16.295-19.269-27.722a50.4 50.4 0 0 1-1.732-8.87c-.269-2.558-.331-5.157-.331-7.735-.041-8.251 0-16.522 0-24.773h-.082zm21.826-4.249v30.837c0 2.578.206 5.136.846 7.673q2.63 10.365 11.078 16.894c5.591 4.332 12.048 6.209 19.021 6.27 10.026.083 20.031.042 30.058 0 2.578 0 5.178-.185 7.674-.804 9.221-2.228 16.112-7.529 20.465-15.986 2.166-4.187 3.259-8.684 3.218-13.449-.021-3.28 0-6.559 0-9.839 0-1.918.577-2.29-2.29-3.176-8.108-2.538-15.679-6.23-22.775-10.871-7.86-5.136-14.874-11.262-20.878-18.482-6.869-8.271-12.006-17.553-15.596-27.702a77.2 77.2 0 0 1-3.796-15.924c-.412-3.115-.598-6.271-.742-9.406-.124-2.455-.186-4.909-.331-7.364-.144-2.537 0-2.331-2.413-2.331h-36.68c-.495 0-1.011-.041-1.506.021-2.393.33-4.291 1.65-4.807 4.146-.33 1.588-.309 3.28.021 4.889 1.052 4.909 3.259 9.241 6.911 12.768 2.62 2.537 5.26 5.095 7.86 7.652a23 23 0 0 1 2.022 2.228c1.402 1.753 2.31 3.734 2.516 6.003.083 1.01.165 2 .165 3.011v32.921zm90.854-15.038c-.062-5.321-4.271-10.086-10.109-10.086-5.075 0-10.046 3.692-10.108 10.066-.083 5.879 4.559 10.21 10.211 10.148 6.107-.062 9.965-4.93 10.026-10.148z"/><path fill="#fff" d="M171.536 221.873c-4.683.247-9.799-3.754-9.778-9.819.021-4.558 3.342-9.633 9.758-9.694 5.446-.042 9.613 4.001 9.758 9.653.144 5.466-4.25 9.839-9.738 9.839z"/><path fill="#fff" d="M397.474 231.731c-.02.248-.103.495-.082.743.248 1.774-.124 3.507-.433 5.239-.825 4.641-1.898 9.241-3.095 13.8a195 195 0 0 1-5.467 17.265c-3.156 8.58-6.911 16.873-11.222 24.938a201 201 0 0 1-13.306 21.514 214 214 0 0 1-8.933 11.716 235 235 0 0 1-6.292 7.281c-3.466 3.837-7.097 7.508-10.831 11.077-4.147 3.96-8.479 7.694-12.976 11.262-5.281 4.208-10.769 8.086-16.421 11.758-7.551 4.909-15.431 9.241-23.601 13.057a199 199 0 0 1-23.91 9.282c-32.451 10.231-67.377 12.108-100.756 5.445-10.191-2.042-20.279-4.847-30.016-8.498-4.766-1.794-9.469-3.733-14.111-5.879-6.643-3.052-13.059-6.518-19.33-10.272a193 193 0 0 1-18.381-12.562 205 205 0 0 1-11.76-9.756 208 208 0 0 1-14.234-14.068 194 194 0 0 1-10.954-12.995 208 208 0 0 1-10.645-15.12 199.6 199.6 0 0 1-13.967-25.907 193 193 0 0 1-7.777-20.256 200 200 0 0 1-4.869-18.028 210 210 0 0 1-2.063-10.747c-.371-2.166-.619-4.352-.907-6.539-.207-1.547-.454-3.114-.578-4.682-.186-2.496-.557-4.992-.557-7.508 0-1.588.103-3.136.474-4.683.145-.268.31-.536.454-.825.929-1.835 2.435-2.991 4.394-3.547 6.767-1.898 12.42 1.815 18.134 5.796a152 152 0 0 1 4.085 3.156c.577.474 1.176.928 1.774 1.402.784.619 1.568 1.259 2.372 1.857 1.836 1.402 3.734 2.764 5.53 4.249 1.98 1.65 4.105 3.115 6.106 4.744 1.877 1.568 3.899 2.97 5.838 4.476 1.836 1.423 3.713 2.805 5.529 4.249 2.413 1.919 4.889 3.734 7.344 5.59 1.857 1.403 3.713 2.806 5.529 4.249 2.021 1.609 4.126 3.095 6.127 4.703 2.31 1.836 4.703 3.569 7.055 5.363 3.239 2.476 6.395 5.384 8.438 8.953 2.496 4.393 2.908 9.117.949 14.15-1.094 4.001-5.2 7.343-8.933 8.787-5.426 2.104-11.12.846-15.926-2.125-2.682-1.65-5.22-3.506-7.695-5.445-2.434-1.877-4.91-3.713-7.303-5.652-2.042-1.65-4.167-3.238-6.272-4.827-1.217-.907-2.475-1.732-3.692-2.619-.722-.537-1.568-.805-2.414-1.052-.392-.124-.743.02-1.032.288-.288.269-.495.578-.495.991 0 .309-.02.639.062.928.268.969.495 1.959.867 2.888a57 57 0 0 0 1.753 3.96c1.547 3.156 3.157 6.312 4.724 9.468.227.454.454.907.702 1.34.722 1.259 1.485 2.476 2.166 3.755 1.258 2.33 2.703 4.538 4.126 6.765 2.001 3.197 4.167 6.292 6.416 9.324 1.712 2.31 3.507 4.6 5.281 6.889.619.805 1.238 1.588 1.94 2.31 1.237 1.341 2.29 2.847 3.63 4.105.186.165.289.392.454.598.289.33.557.681.866 1.011 2.208 2.248 4.395 4.517 6.643 6.725s4.353 4.537 6.85 6.476c1.69 1.692 3.589 3.156 5.404 4.683a119 119 0 0 0 4.394 3.548c1.692 1.299 3.363 2.64 5.137 3.836 2.084 1.403 4.126 2.867 6.251 4.229 3.115 2.001 6.251 3.981 9.49 5.817 2.475 1.402 4.972 2.702 7.468 4.043 1.774.948 3.631 1.712 5.446 2.599 2.146 1.052 4.353 2 6.56 2.908 4.003 1.65 8.067 3.197 12.193 4.559 2.929.969 5.838 1.98 8.829 2.743 33.42 8.705 69.44 8.911 102.592-1.712.516-.165 1.032-.33 1.527-.495 2.97-1.011 5.962-1.98 8.891-3.135 2.517-.991 5.034-2.001 7.509-3.074 2.538-1.114 5.034-2.31 7.53-3.465a56 56 0 0 0 4.683-2.455c1.568-.907 3.219-1.712 4.807-2.599 2.249-1.258 4.456-2.62 6.622-4.002 3.61-2.289 7.138-4.703 10.625-7.198 1.114-.805 2.207-1.651 3.3-2.496 1.135-.887 2.27-1.795 3.384-2.702.928-.743 1.856-1.486 2.743-2.29 1.444-1.32 3.033-2.475 4.353-3.898.124-.145.289-.248.434-.351.474-.413.99-.784 1.423-1.217 3.218-3.197 6.416-6.415 9.613-9.612.31-.31.661-.599.908-.97.598-.887 1.403-1.609 2.104-2.413.702-.805 1.383-1.63 2.084-2.434.887-1.052 1.815-2.084 2.682-3.156 1.176-1.465 2.31-2.97 3.445-4.476a163 163 0 0 0 5.199-7.178 166 166 0 0 0 6.086-9.53c1.258-2.104 2.475-4.229 3.61-6.415 1.691-3.239 3.28-6.518 4.91-9.798.227-.454.454-.908.639-1.361.537-1.279 1.032-2.558 1.609-3.816 1.3-2.929 2.435-5.941 3.507-8.953 1.114-3.094 2.125-6.208 3.095-9.344.928-2.991 1.588-6.167 2.723-9.076.928-2.413 2.022-4.806 3.528-6.93 2.021-2.847 4.786-4.971 8.128-6.003 1.526-.474 3.074-.722 4.662-.557 1.671.186 2.971.949 3.775 2.455.227.454.454.908.681 1.341zM3.076 166.275c-.083-1.506-.207-3.012-.042-4.518.062-.618.145-1.237.269-1.856a180 180 0 0 1 3.981-16.11 195 195 0 0 1 4.209-12.706c2.702-7.261 5.797-14.356 9.324-21.246a203.6 203.6 0 0 1 19.166-30.507c3.094-4.064 6.292-8.024 9.696-11.82 3.94-4.414 8.045-8.683 12.44-12.664 1.67-1.527 3.341-3.074 5.012-4.58 4.27-3.836 8.727-7.405 13.327-10.85A195 195 0 0 1 97.23 28.157c6.065-3.61 12.254-6.951 18.67-9.921a198 198 0 0 1 23.745-9.2C172.343-1.196 207.682-2.681 241.206 4.29c9.613 2 19.103 4.682 28.304 8.106a203 203 0 0 1 17.679 7.59c6.169 3.012 12.151 6.354 18.031 9.902a194 194 0 0 1 17.288 11.82c3.3 2.516 6.519 5.156 9.675 7.858 4.642 3.981 9.036 8.23 13.265 12.624 4.25 4.393 8.252 9.014 12.048 13.8a198 198 0 0 1 10.81 15.016 197 197 0 0 1 13.904 25.288c3.487 7.55 6.437 15.306 8.933 23.226a200 200 0 0 1 5.054 19.349c.867 4.187 1.651 8.395 2.27 12.623.701 4.683 1.361 9.365 1.506 14.109.123 4.167-1.63 8.334-6.251 8.787-3.59.351-7.056-.886-10.171-2.599-2.537-1.402-4.868-3.176-7.179-4.929-.413 0-1.465-1.114-1.815-1.382-.681-.516-1.383-1.052-2.063-1.568-1.383-1.052-2.765-2.104-4.147-3.135a1165 1165 0 0 1-7.942-6.085c-1.444-1.114-2.909-2.207-4.353-3.301-1.548-1.175-3.157-2.289-4.642-3.548-1.98-1.65-4.105-3.114-6.106-4.744-2.435-1.98-4.993-3.816-7.468-5.734-2.373-1.857-4.787-3.672-7.159-5.528-2.62-2.042-5.322-4.002-7.922-6.085-.495-.392-.99-.784-1.485-1.155-.908-.681-1.733-1.465-2.62-2.166a28.4 28.4 0 0 1-4.621-4.682 17.1 17.1 0 0 1-3.157-6.374c-.309-1.217-.598-2.434-.536-3.713.041-1.073-.041-2.145.351-3.177.454-3.238 2.104-5.878 4.27-8.23.557-.598 1.238-1.052 1.877-1.568 2.373-1.959 6.169-3.073 9.119-3.155 1.403-.042 2.764.206 4.105.474 1.486.309 2.888.804 4.271 1.485 1.691.846 3.321 1.795 4.848 2.909 2.991 2.186 5.962 4.414 8.932 6.641 1.506 1.135 2.992 2.29 4.498 3.425 1.155.866 2.331 1.712 3.445 2.64a40 40 0 0 0 4.414 3.238c.805.495 1.651.908 2.497 1.32.412.207.846.207 1.299.145.413-.062.826-.433.867-.867.082-.701.103-1.382-.124-2.062-.289-.825-.557-1.671-.866-2.496-1.114-2.95-2.703-5.673-3.92-8.581-.351-.804-.867-1.526-1.279-2.31-1.382-2.764-2.847-5.466-4.456-8.107a373 373 0 0 0-3.755-6.105c-1.403-2.166-2.867-4.29-4.332-6.395-2.414-3.444-5.013-6.765-7.654-10.045-1.403-1.753-2.908-3.465-4.394-5.177-1.279-1.465-2.744-2.764-3.92-4.332-3.094-3.032-6.023-6.27-9.345-9.076-1.382-1.176-2.64-2.496-4.064-3.65-1.217-.99-2.352-2.084-3.569-3.074a174 174 0 0 0-4.889-3.837c-2.146-1.63-4.291-3.3-6.519-4.806-4.188-2.805-8.335-5.61-12.708-8.127a280 280 0 0 0-8.417-4.662c-3.61-1.918-7.344-3.589-11.099-5.239a177 177 0 0 0-10.521-4.167c-3.425-1.258-6.911-2.33-10.397-3.362q-1.455-.434-2.909-.804c-32.286-8.334-67.584-8.127-99.601 1.877-1.32.412-2.661.763-3.961 1.237-1.361.516-2.723.99-4.085 1.444-.536.186-1.072.371-1.588.598-3.033 1.238-6.086 2.393-9.077 3.713a412 412 0 0 0-6.189 2.806 121 121 0 0 0-6.705 3.444c-2.269 1.238-4.518 2.475-6.746 3.775-2.125 1.238-4.188 2.537-6.251 3.857-3.548 2.27-6.972 4.724-10.356 7.22a168 168 0 0 0-7.984 6.312c-1.3 1.093-2.66 2.104-3.837 3.362-.206.227-.474.412-.701.619-.516.453-1.073.866-1.568 1.361-3.26 3.239-6.54 6.456-9.758 9.736-1.506 1.526-2.888 3.156-4.332 4.724a1.6 1.6 0 0 0-.227.288c-.392.66-.949 1.176-1.465 1.733-.247.289-.516.557-.763.846a483 483 0 0 0-4.972 6.394 143 143 0 0 0-4.868 6.725c-2.228 3.217-4.23 6.538-6.23 9.9a126 126 0 0 0-4.973 9.118c-1.526 3.114-3.156 6.167-4.517 9.344-.826 1.897-1.692 3.795-2.455 5.713-.413 1.052-.826 2.104-1.218 3.177-.66 1.774-1.34 3.527-1.96 5.301-1.32 3.795-2.434 7.653-3.61 11.489-1.196 3.899-2.228 7.612-4.641 10.974-1.919 2.661-4.353 4.641-7.427 5.796-1.96.743-4.002 1.031-6.086.722-1.774-.268-3.136-1.176-4.043-2.743-.207-.372-.268-.846-.64-1.114z"/></svg>