<?xml version="1.0" encoding="UTF-8" standalone="no"?>
<!DOCTYPE svg PUBLIC "-//W3C//DTD SVG 1.1//EN" "http://www.w3.org/Graphics/SVG/1.1/DTD/svg11.dtd">
<svg width="100%" height="100%" viewBox="0 0 1536 1536" version="1.1" xmlns="http://www.w3.org/2000/svg" xmlns:xlink="http://www.w3.org/1999/xlink" xml:space="preserve" xmlns:serif="http://www.serif.com/" style="fill-rule:evenodd;clip-rule:evenodd;stroke-linejoin:round;stroke-miterlimit:2;">
    <g transform="matrix(1,0,0,1,-5360.87,-3772.94)">
        <g transform="matrix(48.75,0,0,48.75,5344.87,3760.94)">
            <circle cx="16.082" cy="16" r="15.754" style="fill:rgb(191,24,96);"/>
            <clipPath id="_clip1">
                <circle cx="16.082" cy="16" r="15.754"/>
            </clipPath>
            <g clip-path="url(#_clip1)">
                <g transform="matrix(0.0362301,-1.6224e-19,1.6224e-19,-0.0375549,-11.7728,44.1059)">
                    <path d="M768.829,944.753L811.623,978.33C856.358,1013.43 1051.92,922.065 1051.92,865.203L768.829,643.085L485.738,865.203C485.738,922.065 681.3,1013.43 726.035,978.33L768.829,944.753ZM595.063,613.52L569.249,637.193C542.334,661.874 485.738,827.999 485.738,827.999L565.738,765.229L595.063,613.52ZM696.972,514.771L663.172,543.138C628.34,572.369 596.747,741.708 596.747,741.708L691.914,667.038L696.972,514.771ZM721.246,643.47L768.829,606.135L816.412,643.47C816.412,643.47 805.062,482.298 785.795,467.181L768.829,453.868L751.862,467.181C732.596,482.298 721.246,643.47 721.246,643.47ZM942.595,612.761L971.92,764.47L1051.92,827.24C1051.92,827.24 995.324,661.115 968.409,636.434L942.595,612.761ZM840.685,514.771L845.744,667.038L940.911,741.708C940.911,741.708 909.318,572.369 874.486,543.138L840.685,514.771Z" style="fill:white;"/>
                </g>
            </g>
        </g>
    </g>
</svg>
