<?xml version="1.0" encoding="UTF-8" standalone="no"?>
<svg id="Layer_1" data-name="Layer 1" viewBox="0 0 286.99601 434.10997" version="1.1" width="286.996" height="434.10999" xmlns="http://www.w3.org/2000/svg" xmlns:svg="http://www.w3.org/2000/svg">
  <defs id="defs128">
    <style id="style126">
      .cls-1 { fill: #fff3d4; }
      .cls-1, .cls-2 { stroke-width: 0px; }
      .cls-2 { fill: #f58b00; }</style>
  </defs>
  <path class="cls-2" d="m 286.948,176.02 c -34.57,-19.26 -73.42,-31.77 -114.76,-35.75 v 80.96 l -28.69,12.33 -28.69,-12.33 V 199.4 c 0,0 0,-16.94 0,-16.94 v -42.19 c -41.34,3.99 -80.18,16.5 -114.76000028,35.75 0,0 -6.86000002,189.1 143.44000028,258.09 0,0 0.01,0 0.02,0 150.3,-68.98 143.44,-258.09 143.44,-258.09 z m -88.55,90.27 -31.17,13.39 -21.92,9.42 25.76,0.26 c 0.61,0 1.05,70.9 0.92,71.08 l -28.5,42.63 c 0,0 0,0 0,0 l -28.69,-42.91 c 0,0 0.5,-71.35 1.11,-71.35 l 25.67,0.26 -21.83,-9.38 -31.17,-13.39 -31.17,-13.39 31.17,-13.39 54.46,23.4 c 0.28,0.12 0.6,0.12 0.87,0 l 54.46,-23.4 31.17,13.39 -31.17,13.39 z" id="path130" />
  <path class="cls-1" d="m 229.568,279.68 -31.17,-13.39 -54.46,23.4 c -0.28,0.12 -0.6,0.12 -0.87,0 l -54.46,-23.4 -31.17,13.39 31.17,13.39 31.17,13.39 23.73,10.2 23.73,-10.2 31.17,-13.39 31.17,-13.39 z" id="path132" />
  <path class="cls-1" d="m 229.568,226.03 c 0,0 -31.88,-13.7 -57.38,-24.65 v 19.84 l -28.69,12.33 -28.69,-12.33 c 0,0 0,0 0,0 v -19.84 l -55.01,23.64 c -0.89,0.38 -0.89,1.65 0,2.04 l 28.8,12.37 54.46,23.4 c 0.28,0.12 0.6,0.12 0.87,0 l 54.46,-23.4 31.17,-13.39 z" id="path134" />
  <path class="cls-1" d="m 241.418,108.73 c -25.22,-7.58 -51.67,-12.32 -78.97,-13.85 l -6.52,-58.79 c -0.16,-1.48 0.31,-2.96 1.31,-4.06 3.12,-3.4 5.02,-7.93 5.02,-12.91 0,-10.56 -8.56,-19.12 -19.12,-19.12 -0.01,0 -0.02,0 -0.03,0 -0.02,0 -0.04,0 -0.07,0 -10.56,0 -19.12,8.56 -19.12,19.12 0,4.98 1.9,9.51 5.02,12.91 1.01,1.1 1.48,2.58 1.31,4.06 l -6.52,58.79 c -27.31,1.53 -53.75,6.26 -78.97,13.85 l 11.99,27.26 0.85,-0.27 c 26.94,-7.88 56.2,-11.81 85.47,-11.81 v 0 c 29.28,0 58.56,3.93 85.51,11.81 l 0.87,0.21 z" id="path136" />
</svg>
