<svg xmlns="http://www.w3.org/2000/svg" id="Layer_1" width="286.996" height="434.11" data-name="Layer 1" version="1.1"><defs id="defs128"><style id="style126">.cls-1{fill:#fff3d4;stroke-width:0}</style></defs><path id="path130" d="M286.948 176.02c-34.57-19.26-73.42-31.77-114.76-35.75v80.96l-28.69 12.33-28.69-12.33v-80.96A293.5 293.5 0 0 0 .048 176.02s-6.86 189.1 143.44 258.09h.02c150.3-68.98 143.44-258.09 143.44-258.09m-88.55 90.27-31.17 13.39-21.92 9.42 25.76.26c.61 0 1.05 70.9.92 71.08l-28.5 42.63-28.69-42.91s.5-71.35 1.11-71.35l25.67.26-21.83-9.38-31.17-13.39-31.17-13.39 31.17-13.39 54.46 23.4c.28.12.6.12.87 0l54.46-23.4 31.17 13.39-31.17 13.39z" style="stroke-width:0;fill:#f58b00"/><path id="path132" d="m229.568 279.68-31.17-13.39-54.46 23.4c-.28.12-.6.12-.87 0l-54.46-23.4-31.17 13.39 31.17 13.39 31.17 13.39 23.73 10.2 23.73-10.2 31.17-13.39 31.17-13.39z" class="cls-1"/><path id="path134" d="M229.568 226.03s-31.88-13.7-57.38-24.65v19.84l-28.69 12.33-28.69-12.33v-19.84l-55.01 23.64c-.89.38-.89 1.65 0 2.04l28.8 12.37 54.46 23.4c.28.12.6.12.87 0l54.46-23.4 31.17-13.39z" class="cls-1"/><path id="path136" d="M241.418 108.73c-25.22-7.58-51.67-12.32-78.97-13.85l-6.52-58.79c-.16-1.48.31-2.96 1.31-4.06 3.12-3.4 5.02-7.93 5.02-12.91 0-10.56-8.56-19.12-19.12-19.12h-.1c-10.56 0-19.12 8.56-19.12 19.12 0 4.98 1.9 9.51 5.02 12.91a5.13 5.13 0 0 1 1.31 4.06l-6.52 58.79c-27.31 1.53-53.75 6.26-78.97 13.85l11.99 27.26.85-.27c26.94-7.88 56.2-11.81 85.47-11.81 29.28 0 58.56 3.93 85.51 11.81l.87.21z" class="cls-1"/></svg>