<svg xmlns="http://www.w3.org/2000/svg" id="Layer_2" data-name="Layer 2" viewBox="0 0 317.1 404.71"><defs><style>.cls-1{fill:#60d099}</style></defs><g id="Layer_1-2" data-name="Layer 1"><g id="PYqOR7.tif"><path d="M280.62 340.91V199.16c0-7.98-6.14-17.93-12.83-22.16l-134-80.34-.52-1.48.08-82.47c1.39-8.67 10.06-15.16 18.69-11.82 48.3 28.75 98.37 55.06 146.2 84.62 11.54 7.13 17.91 12.42 18.85 27.13l-.08 202.46c-.46 3.12-1.41 6.06-3.76 8.24l-32.63 17.58Z" class="cls-1"/><path d="M212.71 381.91v-78.25c0-8.17-6.28-18.09-13.12-22.36L68.71 202.96l-.26-88.24c.84-8.94 10.24-15.05 18.68-11.83 47.15 27.63 95.1 54.17 141.89 82.43 14.39 8.69 22.11 12.6 23.16 31.32 2.46 44.01-1.91 90.3 0 134.54-.34 4.29-1 8.61-4.85 11.14z" class="cls-1"/><path d="M11.32 207.03c1.94-.36 4.27-.1 6.26 0 52.56 29.19 104.34 60.09 156.14 90.67 6.94 5.85 10.03 13.45 10.55 22.43 1.32 22.53-1.03 46.35-.03 69.02-1.69 11.28-11.43 18.18-22.58 14.62L16.99 315.62c-9.72-6.08-15.73-16.5-16.52-27.96-1.49-21.74 1.12-45.1-.02-67.01.28-5.88 4.92-12.51 10.87-13.61Z" class="cls-1"/></g></g></svg>