<svg xmlns="http://www.w3.org/2000/svg" width="130" height="161" fill="none"><path fill="url(#a)" d="m126.846 101.328-4.439-7.617L68.701 1.918l-.383-.603-.494-.493-.493-.329S66.948.33 66.728.22c-.219-.055-.383-.11-.602-.164-.165 0-.384-.055-.603-.055h-.767c-.22 0-.384 0-.603.055-.22 0-.439.11-.603.164-.22.055-.439.165-.603.274 0 0-.384.22-.493.329 0 0-.384.329-.548.493l-.274.493L7.159 94.916l-2.96 5.152v.164c-2.301 4.603-3.507 9.481-3.507 14.577 0 1.206.055 2.357.165 3.562.438 4.056 1.644 8.001 3.507 11.728 2.411 4.768 5.864 9.152 10.248 13.043 4.603 4.11 10.248 7.672 16.55 10.412 6.083 2.685 12.878 4.658 20.112 5.754 4.494.713 9.152 1.041 13.92 1.041s9.316-.328 13.755-1.041c7.234-1.096 14.03-3.069 20.112-5.754 6.357-2.795 11.947-6.302 16.605-10.357 4.384-3.891 7.892-8.221 10.303-12.988 1.863-3.672 3.124-7.618 3.562-11.673.164-1.261.219-2.466.219-3.781 0-4.713-.986-9.207-2.904-13.482z"/><path fill="url(#b)" d="m67.824.822.986 1.918 41.759 79.682 18.961 36.169c.165-1.261.22-2.466.22-3.782 0-4.713-.987-9.206-2.905-13.481l-4.439-7.617L68.701 1.918l-.384-.603z"/><path fill="url(#c)" d="m67.332.493 1.315 2.96 33.429 73.981 23.838 52.829c1.864-3.672 3.124-7.617 3.563-11.673l-18.962-36.169L68.811 2.74 67.825.822z"/><path fill="url(#d)" d="m66.728.219 1.37 4 23.62 69.05 23.948 69.982c4.384-3.891 7.891-8.22 10.303-12.988L102.13 77.434 68.646 3.452 67.331.492s-.384-.164-.603-.273"/><path fill="url(#e)" d="m66.07.11 1.042 4.767 14.139 65.817 17.81 82.97c6.357-2.795 11.947-6.303 16.605-10.358L91.718 73.324 68.098 4.22l-1.37-4s-.383-.11-.602-.165z"/><path fill="url(#f)" d="m65.523 0 .438 5.206 5.425 64.282 7.618 89.875c7.234-1.096 14.029-3.069 20.112-5.754l-17.81-82.97L67.111 4.877 66.07.11s-.384-.055-.603-.055z"/><path fill="url(#g)" d="M51.329 159.363c4.493.712 9.152 1.041 13.92 1.041 4.767 0 9.316-.329 13.755-1.041l-7.618-89.875-5.425-64.282L65.522 0h-.767l-.438 5.206-5.426 64.282-7.617 89.875z"/><path fill="url(#h)" d="M31.217 153.554c6.083 2.685 12.878 4.658 20.112 5.754l7.618-89.874 5.37-64.228L64.756 0s-.384 0-.603.055L63.11 4.823 48.973 70.694l-17.81 82.86z"/><path fill="url(#i)" d="M14.658 143.138c4.605 4.111 10.252 7.675 16.556 10.416L49.03 70.666l14.144-65.84L64.216.058s-.439.11-.603.165l-1.37 4.002L38.56 73.297z"/><path fill="url(#j)" d="M4.418 130.099c2.412 4.767 5.864 9.151 10.248 13.042L38.56 73.324 62.234 4.22l1.37-4s-.438.164-.603.274l-1.315 2.959L28.148 77.49z"/><path fill="url(#k)" d="M.856 118.371c.439 4.11 1.644 8.001 3.508 11.728l23.784-52.61L61.63 3.452l1.316-2.96s-.384.22-.494.33l-.986 1.918-41.814 79.846z"/><path fill="url(#l)" d="M.692 114.809c0 1.206.055 2.357.165 3.562l18.742-35.785L61.467 2.74l.987-1.918s-.384.329-.548.493l-.274.493L7.159 94.916l-2.96 5.152v.164c-2.301 4.603-3.507 9.481-3.507 14.577"/><path fill="url(#m)" d="m68.317 1.315.385.604s-.22-.44-.385-.604"/><defs><linearGradient id="a" x1="26.613" x2="143.177" y1="68.064" y2="114.261" gradientUnits="userSpaceOnUse"><stop stop-color="#FF5A5A"/><stop offset=".2" stop-color="#FDD55A"/><stop offset=".35" stop-color="#57F7AE"/><stop offset=".69" stop-color="#197CEF"/><stop offset="1" stop-color="#3A3A3A"/></linearGradient><linearGradient id="b" x1="139.833" x2="1.404" y1="131.743" y2="-127.414" gradientUnits="userSpaceOnUse"><stop stop-color="#3A3A3A"/><stop offset=".5" stop-color="#1682FE"/><stop offset="1" stop-color="#2DBDE1"/></linearGradient><linearGradient id="c" x1="133.916" x2="-24.352" y1="141.333" y2="-223.536" gradientUnits="userSpaceOnUse"><stop stop-color="#3A3A3A"/><stop offset=".5" stop-color="#1682FE"/><stop offset="1" stop-color="#2DBDE1"/></linearGradient><linearGradient id="d" x1="145.807" x2="-49.945" y1="198.765" y2="-286.996" gradientUnits="userSpaceOnUse"><stop stop-color="#3A3A3A"/><stop offset=".5" stop-color="#1682FE"/><stop offset="1" stop-color="#2DBDE1"/></linearGradient><linearGradient id="e" x1="136.6" x2="2.885" y1="240.853" y2="-182.051" gradientUnits="userSpaceOnUse"><stop stop-color="#3A3A3A"/><stop offset=".5" stop-color="#1682FE"/><stop offset="1" stop-color="#2DBDE1"/></linearGradient><linearGradient id="f" x1="115.063" x2="-15.748" y1="220.796" y2="-213.178" gradientUnits="userSpaceOnUse"><stop stop-color="#3A3A3A"/><stop offset=".22" stop-color="#1682FE"/><stop offset=".5" stop-color="#57F7AE"/><stop offset="1" stop-color="#FED55A"/></linearGradient><linearGradient id="g" x1="97.252" x2=".308" y1="227.646" y2="-141.662" gradientUnits="userSpaceOnUse"><stop stop-color="#3A3A3A"/><stop offset=".22" stop-color="#1682FE"/><stop offset=".5" stop-color="#57F7AE"/><stop offset="1" stop-color="#FED55A"/></linearGradient><linearGradient id="h" x1="59.111" x2="35.656" y1="245.237" y2="-109.932" gradientUnits="userSpaceOnUse"><stop stop-color="#3A3A3A"/><stop offset=".22" stop-color="#1682FE"/><stop offset=".5" stop-color="#57F7AE"/><stop offset="1" stop-color="#FED55A"/></linearGradient><linearGradient id="i" x1="63.448" x2="36.422" y1="258.425" y2="48.025" gradientUnits="userSpaceOnUse"><stop offset=".4" stop-color="#1682FE"/><stop offset=".7" stop-color="#57F7AE"/><stop offset="1" stop-color="#FED55A"/></linearGradient><linearGradient id="j" x1="42.615" x2="34.614" y1="265.02" y2="79.955" gradientUnits="userSpaceOnUse"><stop offset=".4" stop-color="#1682FE"/><stop offset=".7" stop-color="#57F7AE"/><stop offset="1" stop-color="#FED55A"/></linearGradient><linearGradient id="k" x1="7.159" x2="58.508" y1="190.654" y2="-81.216" gradientUnits="userSpaceOnUse"><stop offset=".03" stop-color="#1682FE"/><stop offset=".21" stop-color="#FCA75B"/><stop offset=".52" stop-color="#FF5A5A"/></linearGradient><linearGradient id="l" x1="2.336" x2="55.439" y1="169.118" y2="-36.772" gradientUnits="userSpaceOnUse"><stop offset=".03" stop-color="#1682FE"/><stop offset=".21" stop-color="#FCA75B"/><stop offset=".52" stop-color="#FF5A5A"/></linearGradient><linearGradient id="m" x1="68.537" x2="68.537" y1="1.919" y2="1.315" gradientUnits="userSpaceOnUse"><stop stop-color="#2DBDE1"/><stop offset=".5" stop-color="#1682FE"/><stop offset="1" stop-color="#3A3A3A"/></linearGradient></defs></svg>