<svg width="100%" height="100%" viewBox="0 0 21 20" fill="none" xmlns="http://www.w3.org/2000/svg"><path d="M0.532017 0H20.468C20.4855 0 20.5 0.0148805 20.5 0.0328611V19.9678C20.5 19.9857 20.4855 20.0006 20.468 20.0006H0.532017C0.514498 20.0006 0.5 19.9857 0.5 19.9678V0.0328611C0.5 0.0148805 0.514498 0 0.532017 0Z" fill="#644AEE"></path><path d="M17.7028 9.82371H3.45024V19.9989H17.7028V9.82371Z" fill="#B6B6B6"></path><path d="M3.48172 6.83916e-05H17.6709C17.6884 6.83916e-05 17.7029 0.0149489 17.7029 0.0329295V9.9948C17.7029 10.0128 17.6884 10.0277 17.6709 10.0277H3.48172C3.4642 10.0277 3.4497 10.0128 3.4497 9.9948V0.0329295C3.4503 0.0149489 3.4642 6.83916e-05 3.48172 6.83916e-05Z" fill="#EEEEEE"></path><path d="M11.9073 11.3644H15.2189C15.2365 11.3644 15.251 11.3793 15.251 11.3973V18.5666C15.251 18.5845 15.2365 18.5994 15.2189 18.5994H11.9073C11.8897 18.5994 11.8752 18.5845 11.8752 18.5666V11.3973C11.8752 11.3793 11.8897 11.3644 11.9073 11.3644Z" fill="#634AEE"></path></svg>