<svg xmlns="http://www.w3.org/2000/svg" width="162" height="144" fill="none"><path fill="#fff" d="M97.137 15.522c.498.045-1.851-5.18-2.136-5.694-1.087-1.954-2.426-3.471-3.953-4.667-1.676-1.31-3.585-2.23-5.636-2.905-.362-.122-.75.34-.679.797.705 4.711-.401 9.494-.874 11.679 0 0 7.37.276 13.284.79z"/><path fill="#0D1B3A" d="M95.517 15.894c-.945-3.335-2.523-6.299-4.568-8.567-1.145-1.273-2.782-2.649-4.4-3.304.15 2.629-.136 8.471-1.21 11.55a1.83 1.83 0 0 1-2.335 1.118 1.813 1.813 0 0 1-1.126-2.32c.95-2.712 1.203-9.12.97-10.657l-.013-.064c-.123-.784-.375-2.417.939-3.304.465-.315.925-.334 1.054-.34.188-.013.35 0 .498 0 3.844.295 7.13 3.516 8.36 4.885 2.413 2.68 4.27 6.144 5.364 10.014a1.82 1.82 0 0 1-1.268 2.243 1.835 1.835 0 0 1-2.264-1.26zm-10.52-12.25h.019z"/><path fill="#24A4EA" d="M108.37 120.478c6.626-4.39 17.03-6.023 21.417 3.908 3.307 7.481-2.103 16.525-7.693 16.583-14.636.167-34.073 1.272-39.605-3.645-4.413-3.92 20.55-13.317 25.875-16.853z"/><path fill="#0D1B3A" d="M109.879 143.34c8.068 0 12.158-.213 14.571-1.074 5.131-1.838 8.502-7.848 7.687-13.684-.802-5.707-4.096-10.104-9.039-12.064-5.202-2.057-11.498-1.061-16.04 2.545l2.743 3.413c3.333-2.642 7.914-3.387 11.666-1.903 3.482 1.383 5.727 4.435 6.309 8.607.524 3.734-1.682 7.841-4.82 8.966-2.589.926-10.204.861-24.031.752-6.05-.051-13.581-.109-22.66-.109v4.371c9.066 0 16.584.064 22.627.109 4.316.038 7.94.064 10.994.064z"/><path fill="#24A4EA" d="M119.004 95.946c7.221 1.697 15.878 7.225 12.41 15.966-2.103 5.29-9.931 5.444-14.72 3.567-6.004-2.359-9.492-8.201-9.362-14.468.103-5.007 5.868-6.427 11.679-5.065z"/><path fill="#0D1B3A" d="M125.307 118.597c3.099-.771 5.868-2.764 7.499-5.528 1.947-3.304 1.947-7.076 0-10.348-3.481-5.849-11.821-9.23-18.596-7.54l1.074 4.243c4.847-1.209 11.265 1.375 13.737 5.521 1.52 2.558.647 4.801-.007 5.913-1.371 2.327-4.018 3.786-6.742 3.722-3.481-.084-6.807-2.031-10.029-3.921q-.729-.426-1.449-.842l-2.2 3.786q.7.406 1.41.822c3.533 2.07 7.532 4.416 12.158 4.525a11.8 11.8 0 0 0 3.145-.353"/><path fill="#24A4EA" d="M43.276 117.143c9.816-6.98 14.617-18.883 16.098-30.382.738-5.701 1.003-11.724.33-17.444-.33-2.854-3.034-9.178-3.61-13.356-.718-2.963-1.106-6.248-1.106-9.854 0-28.833 35.483-41.887 56.149-22.881 10.469 9.628 13.808 26.539 7.137 39.227-2.388 4.544-5.934 8.162-10.12 10.823a35 35 0 0 1 1.883 2.668c10.702 16.878 12.798 49.163-10.255 62.622-4.05 2.365-15.387 2.931-20.68 3.072-1.863.277-3.81.264-5.752 0l-22.937-.373c-23.992.045-29.155-17.784-29.155-17.784s10.327 1.979 22.025-6.338z"/><path fill="#fff" d="M87.49 119.894h.187c5.998 0 10.443-4.872 10.702-10.631.11-2.391-.757-4.628-2.213-6.427 1.391-4.152 2.375-10.85 2.893-15.124.459-3.734.31-6.472.297-13.401 0-2.185 6.529-1.401 10.262 1.092 7.383 4.924 11.058 16.635 12.287 24.939 1.417 9.564-.744 19.481-6.392 27.272-5.196 7.166-14.248 11.53-22.919 12.829a41 41 0 0 1-3.765.372c1.663-2.873 2.459-6.247 2.608-9.538.174-3.869-1.508-8.188-3.96-11.383z"/><path fill="#fff" d="M118.034 41.486c.686-.74 1.443-1.363 2.284-1.768 2.472-1.201 5.726-.95 7.758.984 1.281 1.215 2.381 3.554 2.614 5.373.576 4.557-4.089 9.61-5.836 10.747l4.613 1.761c.401.186.608.656.486 1.1-.363 1.252-1.185 3.746-2.446 5.514-5.442 7.604-14.119 11.376-22.983 11.839-4.283.218-8.76-.116-12.863-1.498-6.897-2.32-10.243-13.099-1.223-14.821 2.737-.52 5.539-.624 8.289-1.086 7.609-1.286 11.51-6.646 15.502-12.675 1.094-1.652 2.291-3.837 3.812-5.464z"/><path fill="#0D143A" d="M122.308 44.279c.887-.482 1.728-1.183 2.194-.34.466.841.265 2.68-.622 3.161-.886.482-1.979.187-2.445-.649-.466-.842-.007-1.69.873-2.172"/><path fill="#fff" d="M117.691 36.137c-1.65-12.527-12.766-20.58-24.982-21.711-8.056-.669-16.396 1.22-23.041 5.868-6.645 4.589-11.233 11.71-12.61 19.61-.797 3.78-1.049 7.687-.609 11.466.524-3.78 1.398-7.404 2.692-10.894 2.763-8.574 9.168-15.754 17.547-19.205 15.516-6.402 34.617-1.742 40.996 14.866z"/><path fill="#0D1B3A" d="M107.056 80.692c.09 0 .174 0 .265-.013 10.973-1.215 23.733-7.514 26.638-21.545.298-1.44-.453-2.732-2.226-3.857 1.851-2.564 4.089-6.755 2.977-10.946-.719-2.686-2.207-5.16-4.193-6.973-2.278-2.083-5.073-3.111-7.868-2.899-3.229.244-5.196 1.472-6.089 2.179a2.364 2.364 0 0 0-.362 3.33 2.4 2.4 0 0 0 3.352.36c.284-.232 1.378-.99 3.455-1.145 3.312-.25 6.205 3.04 7.091 6.37.874 3.271-2.465 7.526-3.83 8.889l-2.614 2.622 3.481 1.273c.666.244 1.41.591 1.915.874-2.802 10.83-13.232 15.767-22.258 16.77-1.307.147-2.252 1.317-2.103 2.615a2.386 2.386 0 0 0 2.369 2.108z"/><path fill="#0D1B3A" d="M59.9 143.71c2.22 0 4.432-.019 6.742-.051 11.88-.18 21.56-.264 25.694-.303q2.148-.018 2.4-.077c12.314-2.686 23.617-12.572 27.486-24.038 3.197-9.474 4.536-24.92-7.24-44.683l-4.102 2.41c5.998 10.058 12.048 25.291 6.826 40.769-3.339 9.898-13.089 18.446-23.76 20.863-.29 0-.853.007-1.649.013-4.141.039-13.827.122-25.726.302-8.127.122-15.147.032-25.06-.315-1.293-.045-6.01-1.915-11.038-6.016-3.054-2.494-5.422-5.309-6.457-7.038 1.087.148 2.549.341 4.264.309 6.477-.135 11.129-3.323 14.868-5.881 6.212-4.256 11.142-10.021 15.07-17.624 3.733-7.218 5.545-14.95 5.396-22.979-.058-3.168-.543-5.655-1.507-10.605-1.055-5.392-2.103-8.677-2.945-11.319-.976-3.059-1.624-5.084-1.779-8.728-.252-6.035 1.1-10.553 1.695-12.218 1.204-3.368 3.656-8.266 8.496-12.495 1.954-1.704 7.35-5.804 15.309-7.09 6.949-1.118 12.326.444 14.35 1.029 1.657.482 5.113 1.484 8.852 4.049 1.515 1.041 5.384 4.01 8.483 9.108a31 31 0 0 1 3.067 6.768l4.549-1.414a35.8 35.8 0 0 0-3.533-7.803c-3.449-5.676-7.654-9.05-9.855-10.56-4.374-2.996-8.32-4.146-10.216-4.693-2.31-.668-8.444-2.448-16.454-1.157-8.852 1.427-14.882 5.753-17.69 8.208-5.603 4.898-8.444 10.567-9.842 14.462-.685 1.922-2.258 7.14-1.967 14.005.181 4.275.984 6.788 2 9.963.809 2.526 1.811 5.669 2.808 10.785.912 4.686 1.372 7.032 1.423 9.795.136 7.238-1.5 14.211-4.872 20.729-3.558 6.897-7.99 12.09-13.535 15.888-3.547 2.43-7.221 4.943-12.262 5.046-1.404.032-2.588-.135-3.63-.283-1.773-.244-3.986-.552-5.26 1.318-1.818 2.667.912 6.331 1.805 7.539 1.611 2.166 3.986 4.615 6.354 6.55 5.545 4.531 11.187 6.999 13.898 7.096 7.189.257 12.876.372 18.564.372z"/><path fill="#0D1B3A" d="M83.241 116.519c2.582.527 4.989 2.308 7.764 1.73 3.171-.663 6.303-3.234 5.708-7.328-.861-5.868-8.23-8.851-12.45-9.693a2.186 2.186 0 0 1-1.727-2.57 2.2 2.2 0 0 1 2.588-1.716c2.025.405 5.972 1.452 9.615 3.978 3.604 2.5 5.798 5.74 6.328 9.371.854 5.81-3.002 10.959-9.156 12.238-.718.148-1.442.218-2.16.218-2.97 0-5.87-1.195-8.36-2.821.97-1.086 1.352-2.005 1.85-3.407"/><path fill="#EFAAFB" d="M68.295 92.879c-15.115-7.92-19.172 6.459-19.172 6.459-14.073-6.176-19.094 5.868-19.094 5.868l-1.326-.906C18.008 84.536 3.883 86.458 3.883 86.458s14.513-18.84 14.636-19.546c.123-.707 15.05-9.102 15.05-9.102l5.228 5.727s7.984 6.03 8.366 6.383c.381.36 8.308 7.578 9.33 7.668s11.821 9.532 11.821 9.532"/><path fill="#24A4EA" d="M3.296 87.221C17.407 47.725 46.99 47.834 46.99 47.834c-2.084 5.033-2.575 8.87-1.987 11.923v.02c.033.16.065.314.104.475.064.276.142.552.226.816l.136.399c.04.122.09.237.136.353q.012.039.033.077c.045.122.096.238.155.36q.076.194.18.38c.059.135.13.263.202.385 0 0 0 .007.012.013.764 1.414 1.818 2.629 3.067 3.721.175.155.356.315.544.463q.836.684 1.76 1.311.33.23.679.45c.401.264.822.52 1.242.778q.328.201.667.392c.226.135.453.264.68.399 1.035.591 2.102 1.176 3.176 1.767 2.867 1.581 5.804 3.246 8.34 5.373a22.6 22.6 0 0 1 2.815 2.796c2.174 2.59 3.76 5.817 4.283 10.079l-4.71 3.387c-3.132-8.388-10.838-13.286-20.647-16.596-2.53 8.356 1.825 22.638 1.74 22.792-9.724-11.229-10.94-29.476-10.94-29.476-7.823 11.8-9.11 38.005-9.11 38.005C22.9 85.158 35.31 63.928 35.31 63.928l-1.113-2.97c-13.95 3.6-30.909 26.244-30.909 26.244z"/><path fill="#0D1B3A" d="M.006 89.888c.059-.186 3.598-.919 4.588-.913 2.381 0 4.723.682 6.878 1.659 6.412 2.905 11.42 8.413 15.438 14.018.796 1.06 1.34 1.825 2.562 4.486.783-1.118 4.581-7.693 8.276-9.133 2.925-1.144 6.386-.887 10.294.745.155.039 1.139.495 1.139.495s4.943-7.32 7.454-8.375c2.743-1.15 6.127-.764 10.074 1.138l.382.482a1.757 1.757 0 0 0 2.265 1.1c.44-.162.789-.477.983-.894s.213-.887.052-1.318c-3.003-8.04-9.906-13.639-21.728-17.63a1.78 1.78 0 0 0-1.358.096 1.74 1.74 0 0 0-.874 1.035c-1.41 4.653-1.139 9.828-.446 14.038-4.575-9.693-5.345-20.228-5.352-20.337a1.735 1.735 0 0 0-1.3-1.555 1.755 1.755 0 0 0-1.902.72c-4.251 6.414-6.632 16.627-7.959 25.31-.33-16.858 7.273-30.099 7.357-30.24a1.7 1.7 0 0 0 .123-1.46l-1.113-2.962c-.317-.842-1.223-1.292-2.096-1.067-4.782 1.24-12.727 5.328-23.999 17.56 6.807-12.72 15.29-19.276 21.391-22.574 5.552-2.995 10.47-4.1 13.264-4.505-4.788 14.358 3.83 19.108 12.171 23.704 6.871 3.786 13.976 7.7 15.147 17.277.117.938.984 1.62 1.941 1.504.466-.052.88-.283 1.165-.65.284-.36.414-.81.356-1.265-1.392-11.326-9.64-15.87-16.92-19.88-8.864-4.885-15.27-8.414-9.654-22.002a1.7 1.7 0 0 0-.168-1.613 1.75 1.75 0 0 0-1.443-.765c-.485 0-8.056.084-17.392 5.09a59 59 0 0 0-5.002 2.99c-5.066 3.387-9.472 7.655-13.083 12.546-3.798 5.142-6.49 10.914-8.929 16.788C1.708 85.652.861 87.78 0 89.901zM49.33 79.636c6.923 2.559 11.776 5.727 14.888 9.744-3.3-.906-6.309-.796-8.98.328-2.259.951-3.915 2.487-5.112 4.037-.977-4.037-1.747-9.327-.796-14.115zm-16.9 19.61c.866-6.813 2.49-15.959 5.447-22.894.906 5.213 2.86 12.977 6.95 19.816-3.022-.579-5.837-.36-8.399.649a14 14 0 0 0-3.999 2.436zM7.401 84.875c4.995-6.03 16.072-18.338 25.752-21.764l.259.695c-1.792 3.33-8.276 16.647-7.383 33.095-6.774-8.928-14.053-11.422-18.628-12.02z"/><path fill="#fff" d="M79.573 20.144c-.446.07-1.423-.463-1.85-.585-1.663-.476-3.358-.939-5.067-1.177-8.968-1.279-17.76-3.81-23.577-11.254a26 26 0 0 1-.932-1.279.604.604 0 0 0-1.094.225 28 28 0 0 0-.498 5.136c-.071 7.918 6.238 16.402 13.801 18.903.343.115 2.602 1.034 2.9.7 0 0 2.199-2.378 4.852-4.814 5.325-4.885 11.44-5.855 11.465-5.862z"/><path fill="#0D1B3A" d="M46.832 2.596c2.206-.43 3.46 1.672 4.063 2.68.052.09.103.174.142.232 2.789 4.197 5.61 6.466 9.427 7.584 3.197.939 6.568 1.614 9.822 2.263l1.061.212c2.472.495 5.604.533 8.23 1.626-.517.141-3.312 1.55-3.979 1.851-.905.418-1.805.83-2.646 1.343-.84-.199-1.676-.372-2.478-.54l-1.055-.212c-3.351-.668-6.82-1.362-10.203-2.352-4.316-1.266-7.694-3.702-10.76-7.816.058 1.022.18 2.282.407 3.773.86 5.746 2.802 9.821 6.115 12.836 3.04 2.764 5.745 3.708 7.583 4.158-.958.984-2.446 3.651-2.498 3.837-2.193-.7-5.002-1.992-8.055-4.769-4.096-3.727-6.477-8.625-7.493-15.419-1.1-7.379-.407-10.753 2.323-11.287zm24.624 136.002c8.625 1.581 13.976-.675 14.054-.713 3.021-1.331 4.807-4.969 4.238-8.652-.583-3.753-2.873-6.691-6.296-8.047-3.636-1.44-7.835-.835-10.973 1.575a2.206 2.206 0 0 1-3.087-.392 2.173 2.173 0 0 1 .395-3.066c4.36-3.355 10.223-4.191 15.302-2.179 4.905 1.947 8.192 6.113 9.013 11.441.88 5.695-1.921 11.164-6.806 13.311-.285.122-3.902 1.658-9.855 1.658-2.543 0-5.512-.282-8.832-1.066a11.1 11.1 0 0 0 2.854-3.876zm25.942-83.243c3.934 0 7.123-3.605 7.123-8.053s-3.189-8.054-7.124-8.054-7.124 3.606-7.124 8.054 3.19 8.053 7.124 8.053"/><path fill="#fff" d="M99.79 46.576c.914 0 1.656-.737 1.656-1.645 0-.909-.742-1.646-1.657-1.646s-1.656.737-1.656 1.646.742 1.645 1.656 1.645"/><path fill="#EFAAFB" d="M141.558 66.374s2.387-1.138 2.206-3.71c-.382-5.417-9.498-6.6-9.498-6.6s9.084-2.384 9.362-7.81c.13-2.577-2.277-3.644-2.277-3.644s4.632-1.915 9.466-.758c10.941 2.616 11.109 20.086.22 23.017-4.808 1.292-9.479-.489-9.479-.489z"/><path fill="#0D1B3A" d="M129.834 56.435c3.008.411 6.127.996 8.883 2.307 1.165.553 2.355 1.286 3.074 2.385.711 1.092.673 2.545-.22 3.529-.99 1.092-2.873 1.42-4.206 1.921l3.772 1.446c.175.071 3.818 1.44 8.107.932a16 16 0 0 0 2.097-.398c6.418-1.73 10.061-7.938 10.016-13.33-.052-5.393-3.714-12.026-10.262-13.067-5.649-.9-14.008 2.397-14.008 2.397.064-.026.161-.013.233-.02 1.494-.05 3.52.496 4.289 1.87 1.295 2.315-.31 4.745-2.277 6.023-1.87 1.222-4.083 1.806-6.218 2.385-2.155.585-4.38 1.041-6.606 1.285 1.112.065 2.226.194 3.332.341zm8.961-.695c4.283-1.78 6.088-4.454 6.244-7.385.052-1.028-.143-1.986-.589-2.847a18 18 0 0 1 1.242-.193c1.437-.167 3.138-.186 4.853.225 5.222 1.254 7.117 6.016 7.156 9.712.033 3.702-1.773 8.517-6.968 9.918-2.233.604-4.458.469-6.089.205a5.5 5.5 0 0 0 .531-2.867c-.207-2.924-2.058-5.109-6.373-6.768z"/></svg>