<svg width="162" height="144" viewBox="0 0 162 144" fill="none" xmlns="http://www.w3.org/2000/svg">
<path d="M97.1367 15.5224C97.6346 15.5674 95.2859 10.3419 95.0013 9.82767C93.9143 7.87373 92.5749 6.35687 91.0478 5.16139C89.3721 3.85019 87.4632 2.93106 85.4121 2.25618C85.0498 2.13406 84.6618 2.59684 84.733 3.05318C85.4382 7.76448 84.3316 12.5465 83.8594 14.7318C83.8594 14.7318 91.229 15.0082 97.1428 15.5224H97.1367Z" fill="white"/>
<path d="M95.5173 15.8943C94.5724 12.5585 92.9936 9.59544 90.949 7.32654C89.8038 6.0539 88.1668 4.67845 86.5493 4.02286C86.6983 6.65168 86.4134 12.4942 85.3394 15.5729C85.0092 16.5242 83.9613 17.0255 83.0037 16.6913C82.0458 16.3635 81.5414 15.3222 81.8777 14.371C82.8287 11.6586 83.0811 5.25049 82.8482 3.71434L82.8352 3.65008C82.7123 2.86592 82.4602 1.23335 83.7736 0.346367C84.2394 0.031423 84.699 0.0121407 84.8281 0.00571326C85.0157 -0.00714158 85.1777 0.00571326 85.3264 0.00571326C89.1699 0.301375 92.4566 3.52151 93.6861 4.89056C96.0995 7.5708 97.9564 11.0352 99.0499 14.9045C99.3218 15.875 98.7523 16.8777 97.7817 17.1477C97.6135 17.1926 97.4519 17.2184 97.2838 17.2184C96.4813 17.2184 95.7437 16.6913 95.5173 15.8879V15.8943ZM84.9966 3.64363H85.0157H84.9966Z" fill="#0D1B3A"/>
<path d="M108.37 120.478C114.996 116.088 125.4 114.455 129.787 124.386C133.094 131.867 127.684 140.911 122.094 140.969C107.458 141.136 88.0212 142.241 82.4889 137.324C78.0762 133.404 103.039 124.007 108.364 120.471L108.37 120.478Z" fill="#24A4EA"/>
<path d="M109.879 143.34C117.947 143.34 122.037 143.127 124.45 142.266C129.581 140.428 132.952 134.418 132.137 128.582C131.335 122.875 128.041 118.478 123.098 116.518C117.896 114.461 111.6 115.457 107.058 119.063L109.801 122.476C113.134 119.834 117.715 119.089 121.467 120.573C124.949 121.956 127.194 125.008 127.776 129.18C128.3 132.914 126.094 137.021 122.956 138.146C120.367 139.072 112.752 139.007 98.9249 138.898C92.8752 138.847 85.3435 138.789 76.2656 138.789V143.16C85.3309 143.16 92.8491 143.224 98.8924 143.269C103.208 143.307 106.832 143.333 109.886 143.333L109.879 143.34Z" fill="#0D1B3A"/>
<path d="M119.004 95.9462C126.225 97.6428 134.882 103.171 131.414 111.912C129.311 117.202 121.483 117.356 116.694 115.479C110.69 113.12 107.202 107.278 107.332 101.011C107.435 96.0041 113.2 94.5836 119.011 95.9462H119.004Z" fill="#24A4EA"/>
<path d="M125.307 118.597C128.406 117.826 131.175 115.833 132.806 113.069C134.753 109.765 134.753 105.993 132.806 102.721C129.325 96.8721 120.985 93.4913 114.21 95.1815L115.284 99.4237C120.131 98.2152 126.549 100.799 129.021 104.945C130.541 107.503 129.668 109.746 129.014 110.858C127.643 113.185 124.996 114.644 122.272 114.58C118.791 114.496 115.465 112.549 112.243 110.659C111.758 110.376 111.273 110.093 110.794 109.817L108.594 113.603C109.06 113.873 109.532 114.149 110.004 114.425C113.537 116.495 117.536 118.841 122.162 118.95C123.223 118.976 124.284 118.854 125.307 118.597Z" fill="#0D1B3A"/>
<path d="M43.2763 117.143C53.0919 110.163 57.893 98.2595 59.3745 86.7611C60.1122 81.0598 60.3773 75.0374 59.7047 69.317C59.3745 66.4632 56.67 60.1388 56.094 55.961C55.3758 52.9978 54.9878 49.7132 54.9878 46.1074C54.9878 17.2741 90.4709 4.22003 111.137 23.2259C121.606 32.8542 124.945 49.7646 118.274 62.4525C115.886 66.9968 112.34 70.6155 108.154 73.2762C108.821 74.1377 109.455 75.0244 110.037 75.9435C120.739 92.8221 122.835 125.107 99.7817 138.566C95.7313 140.931 84.3951 141.497 79.1026 141.638C77.2392 141.915 75.2916 141.902 73.3504 141.638L50.4131 141.265C26.4211 141.31 21.2578 123.481 21.2578 123.481C21.2578 123.481 31.5845 125.46 43.2828 117.143H43.2763Z" fill="#24A4EA"/>
<path d="M87.4896 119.894C87.5543 119.894 87.6125 119.894 87.6773 119.894C93.6753 119.894 98.1202 115.022 98.3791 109.263C98.4891 106.872 97.6219 104.635 96.1661 102.836C97.5572 98.6836 98.5408 91.9865 99.0586 87.7122C99.5179 83.9779 99.3689 81.2398 99.3562 74.3108C99.3562 72.1256 105.885 72.9097 109.618 75.4034C117.001 80.3272 120.676 92.0376 121.905 100.342C123.322 109.906 121.161 119.823 115.513 127.614C110.317 134.78 101.265 139.144 92.5944 140.443C91.3523 140.629 90.0972 140.745 88.829 140.815C90.4917 137.942 91.2876 134.568 91.4366 131.277C91.6112 127.408 89.929 123.089 87.4766 119.894H87.4896Z" fill="white"/>
<path d="M118.034 41.486C118.72 40.7469 119.477 40.1234 120.318 39.7184C122.79 38.5167 126.044 38.7673 128.076 40.7019C129.357 41.9165 130.457 44.2562 130.69 46.0753C131.266 50.6321 126.601 55.6844 124.854 56.822L129.467 58.5831C129.868 58.7692 130.075 59.2387 129.953 59.6822C129.59 60.9353 128.768 63.4294 127.507 65.1967C122.065 72.8006 113.388 76.5734 104.524 77.036C100.241 77.2545 95.7633 76.9204 91.6612 75.5384C84.7638 73.2182 81.4185 62.4394 90.4382 60.7168C93.1752 60.1963 95.9766 60.0933 98.7267 59.6307C106.336 58.3451 110.237 52.9847 114.229 46.9558C115.323 45.3038 116.52 43.1186 118.041 41.4925L118.034 41.486Z" fill="white"/>
<path d="M122.308 44.2786C123.195 43.7966 124.036 43.096 124.502 43.9381C124.968 44.7801 124.767 46.6183 123.88 47.1003C122.994 47.5823 121.901 47.2868 121.435 46.4512C120.969 45.6092 121.428 44.7607 122.308 44.2786Z" fill="#0D143A"/>
<path d="M117.691 36.1372C116.041 23.6103 104.925 15.5567 92.7087 14.4255C84.6531 13.757 76.3128 15.6467 69.6679 20.2937C63.0229 24.8829 58.4355 32.0045 57.0574 39.9039C56.2615 43.6832 56.0091 47.5909 56.4492 51.3702C56.9731 47.5909 57.8468 43.9658 59.1406 40.4759C61.9037 31.9016 68.3093 24.7222 76.6882 21.2707C92.2042 14.869 111.305 19.5288 117.684 36.1372H117.691Z" fill="white"/>
<path d="M107.056 80.6915C107.146 80.6915 107.23 80.6915 107.321 80.6785C118.294 79.4639 131.054 73.1649 133.959 59.1339C134.257 57.6939 133.506 56.4023 131.733 55.2773C133.584 52.713 135.822 48.5222 134.71 44.3315C133.991 41.6448 132.503 39.1701 130.517 37.3579C128.239 35.2753 125.444 34.2468 122.649 34.459C119.42 34.7032 117.453 35.9309 116.56 36.6379C115.538 37.4605 115.376 38.9516 116.198 39.9672C117.026 40.9827 118.527 41.1437 119.55 40.3272C119.834 40.0957 120.928 39.3375 123.005 39.1831C126.317 38.9325 129.21 42.2233 130.096 45.5526C130.97 48.8243 127.631 53.0791 126.266 54.4417L123.652 57.0643L127.133 58.3369C127.799 58.581 128.543 58.928 129.048 59.211C126.246 70.0412 115.816 74.9775 106.79 75.9801C105.483 76.1281 104.538 77.2977 104.687 78.5963C104.823 79.8044 105.858 80.7044 107.056 80.7044V80.6915Z" fill="#0D1B3A"/>
<path d="M59.9001 143.71C62.1197 143.71 64.3324 143.691 66.6423 143.659C78.5216 143.479 88.2013 143.395 92.3359 143.356C93.7679 143.344 94.5681 143.318 94.7363 143.279C107.05 140.593 118.353 130.707 122.222 119.241C125.419 109.767 126.758 94.3219 114.982 74.5575L110.88 76.9677C116.878 87.0265 122.928 102.259 117.706 117.737C114.367 127.635 104.617 136.183 93.9469 138.6C93.6558 138.6 93.0931 138.607 92.2972 138.613C88.156 138.652 78.4699 138.735 66.5711 138.915C58.4443 139.037 51.4239 138.947 41.5114 138.6C40.2176 138.555 35.5006 136.685 30.4731 132.584C27.4191 130.09 25.051 127.275 24.0157 125.546C25.1027 125.694 26.565 125.887 28.2797 125.855C34.7565 125.72 39.4087 122.532 43.1485 119.974C49.3599 115.718 54.2904 109.953 58.2179 102.35C61.9512 95.1315 63.7628 87.3994 63.6142 79.3714C63.556 76.2027 63.0707 73.7155 62.1067 68.7662C61.0518 63.3737 60.0035 60.0891 59.1624 57.4474C58.1857 54.3881 57.5384 52.3635 57.3833 48.7192C57.1309 42.6838 58.4833 38.1655 59.0785 36.5005C60.282 33.1327 62.734 28.2349 67.5739 24.0057C69.528 22.3025 74.9243 18.2017 82.8827 16.9162C89.8318 15.7979 95.2089 17.3598 97.2339 17.9447C98.8905 18.4267 102.346 19.4294 106.085 21.9939C107.6 23.0352 111.469 26.0046 114.568 31.1016C115.855 33.2226 116.891 35.4979 117.635 37.8695L122.184 36.4555C121.323 33.724 120.133 31.0952 118.651 28.6527C115.202 22.9773 110.997 19.6029 108.796 18.0925C104.422 15.0973 100.476 13.9468 98.5799 13.4004C96.2699 12.732 90.1359 10.9516 82.1258 12.2435C73.2743 13.6704 67.2441 17.9961 64.4358 20.4513C58.8326 25.349 55.9922 31.018 54.5945 34.913C53.9086 36.8349 52.3363 42.0538 52.6274 48.9183C52.8085 53.1926 53.611 55.7057 54.6267 58.8809C55.4356 61.4071 56.4384 64.5499 57.435 69.6662C58.3473 74.3516 58.8066 76.6977 58.8583 79.4614C58.9943 86.6989 57.3572 93.6724 53.9863 100.19C50.4277 107.087 45.9954 112.28 40.4505 116.078C36.9045 118.508 33.2295 121.021 28.1891 121.124C26.785 121.156 25.601 120.989 24.5592 120.841C22.7864 120.597 20.5735 120.289 19.2988 122.159C17.4807 124.826 20.2112 128.49 21.1041 129.698C22.7152 131.864 25.0898 134.313 27.458 136.248C33.003 140.779 38.6453 143.247 41.3563 143.344C48.5448 143.601 54.2322 143.716 59.9196 143.716L59.9001 143.71Z" fill="#0D1B3A"/>
<path d="M83.2414 116.519C85.8229 117.046 88.2298 118.827 91.0055 118.249C94.1761 117.586 97.3077 115.015 96.7125 110.921C95.8518 105.053 88.4822 102.07 84.2636 101.228C83.0728 100.991 82.2965 99.8403 82.5358 98.6577C82.7752 97.4751 83.9335 96.7036 85.1239 96.9415C87.1493 97.3465 91.0963 98.3941 94.7388 100.92C98.343 103.42 100.537 106.66 101.067 110.291C101.921 116.101 98.0649 121.25 91.9114 122.529C91.1932 122.677 90.4685 122.747 89.7504 122.747C86.7804 122.747 83.8818 121.552 81.3906 119.926C82.3612 118.84 82.7431 117.921 83.2414 116.519Z" fill="#0D1B3A"/>
<path d="M68.2948 92.8785C53.1801 84.9599 49.1232 99.338 49.1232 99.338C35.0504 93.1615 30.0294 105.206 30.0294 105.206L28.703 104.3C18.0075 84.5359 3.88281 86.4575 3.88281 86.4575C3.88281 86.4575 18.3958 67.6188 18.5187 66.9117C18.6416 66.2047 33.5687 57.8105 33.5687 57.8105L38.7967 63.5374C38.7967 63.5374 46.7811 69.5663 47.1629 69.9199C47.5444 70.2799 55.4706 77.4979 56.4932 77.5879C57.5155 77.6779 68.3143 87.1196 68.3143 87.1196" fill="#EFAAFB"/>
<path d="M3.29554 87.2212C17.4073 47.7249 46.9896 47.834 46.9896 47.834C44.9063 52.8668 44.4146 56.704 45.0033 59.7568V59.7763C45.0358 59.9368 45.068 60.0913 45.1067 60.2518C45.1714 60.5283 45.2492 60.8044 45.3334 61.0679C45.3786 61.2029 45.4238 61.3315 45.469 61.4665C45.5081 61.5889 45.5598 61.7044 45.605 61.82C45.6115 61.8459 45.6245 61.8715 45.6375 61.8974C45.6827 62.0194 45.7344 62.135 45.7927 62.257C45.8444 62.3856 45.9026 62.5144 45.9738 62.6365C46.032 62.7715 46.1033 62.9 46.1745 63.022C46.1745 63.022 46.1745 63.0285 46.1872 63.035C46.9509 64.4491 48.0054 65.6637 49.2544 66.7563C49.429 66.9108 49.6102 67.0713 49.7979 67.2193C50.3544 67.6754 50.9431 68.1124 51.5578 68.5304C51.7777 68.6845 52.0041 68.8324 52.2369 68.9804C52.6383 69.2439 53.0589 69.5009 53.4794 69.758C53.6993 69.893 53.9195 70.0215 54.1459 70.15C54.3723 70.285 54.5986 70.4136 54.8253 70.5486C55.8606 71.14 56.9281 71.7247 58.0021 72.3161C60.8686 73.8973 63.806 75.5619 66.3423 77.6895C67.3519 78.5377 68.303 79.4632 69.1571 80.4853C71.3311 83.0755 72.9164 86.3022 73.4404 90.5635L68.73 93.9507C65.5985 85.5631 57.8922 80.6653 48.0831 77.3551C45.5533 85.7107 49.9078 99.9926 49.8235 100.147C40.0987 88.9183 38.8823 70.6706 38.8823 70.6706C31.0597 82.4714 29.7721 108.676 29.7721 108.676C22.9006 85.1581 35.3107 63.9281 35.3107 63.9281L34.1978 60.9589C20.2478 64.5581 3.28906 87.2022 3.28906 87.2022L3.29554 87.2212Z" fill="#24A4EA"/>
<path d="M0.00647031 89.8881C0.0647031 89.7017 3.60397 88.9691 4.59395 88.9755C6.97501 88.9755 9.31728 89.6567 11.4719 90.6337C17.884 93.5389 22.892 99.0473 26.9101 104.652C27.7059 105.712 28.2494 106.477 29.4723 109.138C30.2553 108.02 34.0533 101.445 37.7479 100.005C40.6726 98.8608 44.1339 99.1178 48.0422 100.75C48.1974 100.789 49.181 101.245 49.181 101.245C49.181 101.245 54.1242 93.9245 56.6349 92.8704C59.378 91.7198 62.7624 92.1057 66.709 94.008L67.0908 94.49C67.395 95.4285 68.4303 95.9235 69.3556 95.5891C69.7953 95.4285 70.145 95.1135 70.3388 94.6959C70.533 94.278 70.5525 93.8089 70.3905 93.3783C67.3884 85.3374 60.4846 79.7394 48.6635 75.7477C48.2169 75.6001 47.7251 75.6321 47.3046 75.8442C46.884 76.0562 46.5669 76.4357 46.4313 76.8792C45.0206 81.5325 45.2922 86.7065 45.9847 90.9167C41.4099 81.224 40.6401 70.6893 40.6335 70.5803C40.5818 69.8408 40.0644 69.2177 39.3332 69.0247C38.602 68.8382 37.8387 69.1277 37.4308 69.7447C33.1798 76.1592 30.7988 86.3724 29.4723 95.0556C29.1424 78.1968 36.7451 64.956 36.829 64.8149C37.0879 64.3713 37.1332 63.8378 36.952 63.3558L35.8392 60.3926C35.5221 59.5506 34.6163 59.1006 33.7428 59.3256C28.9612 60.5661 21.0156 64.6539 9.74431 76.8853C16.5511 64.1654 25.0337 57.6095 31.1352 54.3122C36.6869 51.317 41.6041 50.2115 44.3994 49.8068C39.6113 64.1654 48.2299 68.9153 56.5701 73.511C63.4415 77.2968 70.546 81.2111 71.7173 90.7878C71.8337 91.7263 72.7005 92.4078 73.6581 92.2919C74.1242 92.2404 74.5382 92.0093 74.8228 91.6428C75.1074 91.2828 75.2369 90.8328 75.1786 90.3767C73.7875 79.0514 65.5381 74.5071 58.2589 70.4967C49.3947 65.6119 42.9887 62.0832 48.6053 48.4953C48.8251 47.9622 48.7604 47.3577 48.4368 46.8822C48.1135 46.4066 47.57 46.1172 46.9939 46.1172C46.5086 46.1172 38.9383 46.2011 29.6018 51.2079C27.8871 52.127 26.2113 53.1167 24.6002 54.1967C19.5339 57.5839 15.1276 61.8517 11.5172 66.743C7.7191 71.8849 5.02745 77.6568 2.58813 83.5313C1.70817 85.6524 0.860556 87.78 0 89.9011L0.00647031 89.8881ZM49.3299 79.6364C56.253 82.1946 61.1058 85.3633 64.2178 89.3802C60.9181 88.4741 57.9095 88.5835 55.2372 89.7081C52.979 90.6593 51.3228 92.1954 50.1255 93.7445C49.1488 89.7081 48.3785 84.4183 49.3299 79.6299V79.6364ZM32.4293 99.2463C33.2963 92.4333 34.9204 83.2872 37.8773 76.3518C38.7832 81.5646 40.7373 89.3291 44.8264 96.1676C41.8048 95.5891 38.99 95.8076 36.428 96.8167C34.8298 97.4467 33.5098 98.3208 32.4293 99.2528V99.2463ZM7.40204 84.8748C12.3972 78.8459 23.4744 66.5371 33.154 63.1113L33.4128 63.8058C31.6205 67.1351 25.1372 80.4525 26.0301 96.9006C19.2557 87.9726 11.9766 85.4789 7.40204 84.8813V84.8748Z" fill="#0D1B3A"/>
<path d="M79.5733 20.1437C79.1267 20.2144 78.1496 19.6809 77.7226 19.5588C76.0599 19.0831 74.3646 18.6204 72.6564 18.3825C63.6884 17.1035 54.8955 14.5711 49.0786 7.12812C48.755 6.71034 48.4443 6.28612 48.1467 5.84908C47.8426 5.39915 47.157 5.54696 47.0532 6.07404C46.7234 7.76446 46.5679 9.51269 46.5553 11.2095C46.484 19.1281 52.7927 27.6123 60.3565 30.1126C60.6993 30.2283 62.9576 31.1474 63.2552 30.8132C63.2552 30.8132 65.4549 28.435 68.1077 25.999C73.4328 21.1142 79.5473 20.1437 79.5733 20.1372V20.1437Z" fill="white"/>
<path d="M46.8315 2.59645C49.0377 2.16581 50.2929 4.26757 50.8946 5.27669C50.9467 5.36665 50.9984 5.45021 51.0371 5.50806C53.8258 9.70519 56.6467 11.9741 60.4643 13.0924C63.6606 14.0308 67.0319 14.7057 70.2864 15.3549L71.3473 15.567C73.8189 16.0619 76.9509 16.1004 79.5776 17.1931C79.0601 17.3345 76.2649 18.7421 75.5984 19.0442C74.6926 19.462 73.7933 19.8734 72.9522 20.3875C72.1111 20.1883 71.2761 20.0148 70.474 19.8477L69.4192 19.6355C66.0678 18.9671 62.5996 18.2729 59.2156 17.2831C54.8998 16.0169 51.5224 13.5809 48.4555 9.46738C48.5137 10.4893 48.6367 11.7491 48.8631 13.2402C49.7237 18.9864 51.6648 23.0614 54.9776 26.0758C58.0187 28.8396 60.7232 29.7844 62.5609 30.2344C61.603 31.2177 60.115 33.8851 60.0633 34.0715C57.8697 33.3709 55.0614 32.079 52.0076 29.3024C47.912 25.5745 45.5308 20.6768 44.5151 13.883C43.415 6.50433 44.1075 3.12992 46.8377 2.59645H46.8315Z" fill="#0D1B3A"/>
<path d="M71.4563 138.598C80.0811 140.179 85.4319 137.923 85.5096 137.885C88.5313 136.554 90.3173 132.916 89.7477 129.233C89.1655 125.48 86.8751 122.542 83.4521 121.186C79.8157 119.746 75.6167 120.351 72.4786 122.761C71.5146 123.5 70.1361 123.327 69.3923 122.369C68.6481 121.418 68.8227 120.042 69.7868 119.303C74.1478 115.948 80.0099 115.112 85.0891 117.124C89.9936 119.071 93.2807 123.237 94.1022 128.565C94.9824 134.26 92.1806 139.729 87.2956 141.876C87.0107 141.998 83.3939 143.534 77.4414 143.534C74.8985 143.534 71.9286 143.252 68.6094 142.468C69.8255 141.413 70.796 140.089 71.4625 138.592L71.4563 138.598Z" fill="#0D1B3A"/>
<path d="M97.3975 55.3552C101.332 55.3552 104.521 51.7498 104.521 47.3016C104.521 42.8538 101.332 39.248 97.3975 39.248C93.4632 39.248 90.2734 42.8538 90.2734 47.3016C90.2734 51.7498 93.4632 55.3552 97.3975 55.3552Z" fill="#0D1B3A"/>
<path d="M99.7894 46.5763C100.704 46.5763 101.446 45.8394 101.446 44.9307C101.446 44.0221 100.704 43.2852 99.7894 43.2852C98.8745 43.2852 98.1328 44.0221 98.1328 44.9307C98.1328 45.8394 98.8745 46.5763 99.7894 46.5763Z" fill="white"/>
<path d="M141.558 66.3735C141.558 66.3735 143.945 65.2359 143.764 62.6648C143.382 57.2468 134.266 56.0638 134.266 56.0638C134.266 56.0638 143.35 53.6796 143.628 48.2547C143.758 45.6771 141.351 44.6104 141.351 44.6104C141.351 44.6104 145.983 42.6949 150.817 43.8519C161.758 46.468 161.926 63.9378 151.037 66.8685C146.229 68.1606 141.558 66.38 141.558 66.38V66.3735Z" fill="#EFAAFB"/>
<path d="M129.834 56.4346C132.842 56.8461 135.961 57.4311 138.717 58.7422C139.882 59.2948 141.072 60.0278 141.791 61.1269C142.502 62.2195 142.464 63.6721 141.571 64.6556C140.581 65.7482 138.698 66.0758 137.365 66.5773L141.137 68.0234C141.312 68.0943 144.955 69.463 149.244 68.9554C149.93 68.8719 150.636 68.7434 151.341 68.5569C157.759 66.8278 161.402 60.6189 161.357 55.2265C161.305 49.8337 157.643 43.2007 151.095 42.1595C145.446 41.2595 137.087 44.5568 137.087 44.5568C137.151 44.5312 137.248 44.5442 137.32 44.5377C138.814 44.4862 140.84 45.0327 141.609 46.4079C142.904 48.722 141.299 51.1516 139.332 52.4303C137.462 53.6518 135.249 54.2365 133.114 54.815C130.959 55.4 128.734 55.8565 126.508 56.1005C127.62 56.165 128.734 56.2935 129.84 56.4411L129.834 56.4346ZM138.795 55.7405C143.078 53.9603 144.883 51.2863 145.039 48.3555C145.091 47.327 144.896 46.3694 144.45 45.5083C144.832 45.4373 145.246 45.3668 145.692 45.3153C147.129 45.1483 148.83 45.1288 150.545 45.5403C155.767 46.7938 157.662 51.5563 157.701 55.252C157.734 58.9543 155.928 63.7685 150.733 65.1697C148.5 65.7737 146.275 65.6387 144.644 65.3752C145.071 64.5011 145.252 63.5371 145.175 62.5085C144.968 59.5843 143.117 57.3991 138.802 55.7405H138.795Z" fill="#0D1B3A"/>
</svg>
