<svg xmlns="http://www.w3.org/2000/svg" width="40" height="40" fill="none"><path fill="url(#a)" d="M0 20c0 11.046 8.954 20 20 20s20-8.954 20-20S31.046 0 20 0 0 8.954 0 20"/><path fill="#010A24" d="M19.995 15.542c-5.96 0-10.792-.952-10.792-2.126s4.832-2.127 10.792-2.127 10.792.953 10.792 2.127-4.832 2.126-10.792 2.126m0 6.483c-5.96 0-10.792-.952-10.792-2.127s4.832-2.126 10.792-2.126 10.792.952 10.792 2.126c0 1.175-4.832 2.127-10.792 2.127m0 6.681c-5.96 0-10.792-.952-10.792-2.127s4.832-2.126 10.792-2.126 10.792.952 10.792 2.126c0 1.175-4.832 2.127-10.792 2.127"/><defs><radialGradient id="a" cx="0" cy="0" r="1" gradientTransform="rotate(55.124 .743 9.843)scale(39.375)" gradientUnits="userSpaceOnUse"><stop stop-color="#00D5FF"/><stop offset=".089" stop-color="#00D5FF"/><stop offset=".5" stop-color="#3A4AFF"/><stop offset="1" stop-color="#7E20FF"/></radialGradient></defs></svg>