<svg width="40" height="40" viewBox="0 0 40 40" fill="none" xmlns="http://www.w3.org/2000/svg">
<path d="M0 20.0002C0 31.0461 8.95435 40 20.0002 40C31.0456 40 40 31.0461 40 20.0002C40 8.95387 31.0456 0 20.0002 0C8.95435 0 0 8.95387 0 20.0002Z" fill="url(#paint0_radial_16935_578)"/>
<path d="M19.9951 15.5421C14.035 15.5421 9.20312 14.5898 9.20312 13.4156C9.20312 12.2415 14.035 11.2891 19.9951 11.2891C25.9552 11.2891 30.7866 12.2415 30.7866 13.4156C30.7866 14.5898 25.9552 15.5421 19.9951 15.5421Z" fill="#010A24"/>
<path d="M19.9951 22.0245C14.035 22.0245 9.20312 21.0726 9.20312 19.898C9.20312 18.7239 14.035 17.7715 19.9951 17.7715C25.9552 17.7715 30.7866 18.7239 30.7866 19.898C30.7866 21.0726 25.9552 22.0245 19.9951 22.0245Z" fill="#010A24"/>
<path d="M19.9951 28.7056C14.035 28.7056 9.20312 27.7537 9.20312 26.5791C9.20312 25.405 14.035 24.4531 19.9951 24.4531C25.9552 24.4531 30.7866 25.405 30.7866 26.5791C30.7866 27.7537 25.9552 28.7056 19.9951 28.7056Z" fill="#010A24"/>
<defs>
<radialGradient id="paint0_radial_16935_578" cx="0" cy="0" r="1" gradientUnits="userSpaceOnUse" gradientTransform="translate(8.39353 3.60567) rotate(55.1243) scale(39.375)">
<stop stop-color="#00D5FF"/>
<stop offset="0.088894" stop-color="#00D5FF"/>
<stop offset="0.5" stop-color="#3A4AFF"/>
<stop offset="1" stop-color="#7E20FF"/>
</radialGradient>
</defs>
</svg>
