<?xml version="1.0" encoding="UTF-8"?>
<svg id="Layer_2" data-name="Layer 2" xmlns="http://www.w3.org/2000/svg" viewBox="0 0 442.2 441.13">
  <defs>
    <style>
      .cls-1 {
        fill: #85fc4d;
      }
    </style>
  </defs>
  <g id="Layer_1-2" data-name="Layer 1">
    <g id="TKZT48.tif">
      <path class="cls-1" d="M210.36.25c191.39-8.77,303.44,214.3,180.16,361.97-103.32,123.77-302.02,97.64-369.78-48.28C-45.38,171.57,54.35,7.4,210.36.25ZM196.97,50.05c-70.72,9.35-129.44,63.68-144.69,133.26-29.71,135.53,104.06,249.15,233.08,197.63,119.27-47.63,146.61-205.91,49.19-290.42-24.91-21.61-56.74-36.42-89.64-40.47v105.89c43.09,15.12,59.36,68.79,32.17,105.84-29.73,40.51-91.74,36.93-116.48-6.8-21.12-37.34-3.61-84.63,36.36-99.04V50.05Z"/>
    </g>
  </g>
</svg>