<svg xmlns="http://www.w3.org/2000/svg" data-name="Layer 2" viewBox="0 0 442.2 441.13"><path d="M210.36.25c191.39-8.77 303.44 214.3 180.16 361.97C287.2 485.99 88.5 459.86 20.74 313.94-45.38 171.57 54.35 7.4 210.36.25m-13.39 49.8C126.25 59.4 67.53 113.73 52.28 183.31 22.57 318.84 156.34 432.46 285.36 380.94c119.27-47.63 146.61-205.91 49.19-290.42-24.91-21.61-56.74-36.42-89.64-40.47v105.89c43.09 15.12 59.36 68.79 32.17 105.84-29.73 40.51-91.74 36.93-116.48-6.8-21.12-37.34-3.61-84.63 36.36-99.04V50.05Z" data-name="Layer 1" style="fill:#85fc4d"/></svg>