<svg width="4259" height="987" viewBox="0 0 4259 987" fill="none" xmlns="http://www.w3.org/2000/svg">
<path d="M963.973 986.186H0.231934L253.764 732.941H710.458L963.973 986.186ZM710.458 253.633H253.846L493.443 493.229L253.726 732.946V253.596L0.231934 0.388672H963.973L710.458 253.633Z" fill="#F2FD59"/>
<path d="M2127.24 268.9C2069.92 273.063 2042.82 298.288 2005.61 336.46C2003.61 338.499 2002.9 340.372 1999.4 339.623V111.053H1887.1V751.099H1999.4V473.701C1999.4 445.937 2023.46 401.105 2046.94 386.12C2111.59 344.826 2201.17 379.584 2201.17 461.213V751.099H2315.56V436.279C2309.35 325.47 2239.75 260.741 2127.24 268.9Z" fill="#F2FD59"/>
<path d="M3742.54 538.069C3746.87 514.384 3737.05 454.65 3729.51 430.59C3662.87 217.297 3372.11 216.798 3287.28 415.771C3194.66 633.019 3426.64 844.855 3634.44 731.423C3670.82 711.567 3709.99 674.187 3725.73 636.141L3643.85 582.693C3621.25 620.947 3592.81 652.417 3547.36 661.116C3506.11 669.025 3466.94 664.946 3431.89 640.636C3399.88 618.45 3380.31 581.319 3374.32 543.314H3739.38C3741.46 542.024 3742.09 540.442 3742.5 538.111L3742.54 538.069ZM3380.6 464.308C3392.47 410.859 3443.46 368.526 3498.16 364.571C3566.22 359.659 3617.21 397.872 3630.24 464.308H3380.6Z" fill="#F2FD59"/>
<path d="M2741.39 289.321C2568.8 206.401 2383.11 357.421 2398.84 540.119C2417.74 759.531 2712.58 843.699 2840.67 665.664C2843.12 662.209 2857.19 640.896 2857.69 638.94C2858.48 635.859 2853.11 632.363 2850.91 630.864C2826.39 614.38 2800.08 600.352 2776.14 582.911L2773.27 582.744C2738.85 661.917 2636.41 689.599 2564.93 642.27C2531.63 620.208 2512.4 581.662 2504.91 543.241H2873.09C2880.83 442.963 2834.88 334.236 2741.43 289.321H2741.39ZM2511.11 464.318C2509.32 462.652 2521.72 436.428 2523.97 432.473C2581 330.531 2741.39 343.685 2760.74 464.318H2511.11Z" fill="#F2FD59"/>
<path d="M1280.81 268.173C1067.69 258.308 949.634 517.889 1087.21 677.776C1183.53 789.75 1372.6 791.748 1464.76 673.988C1468.13 669.659 1488.19 639.729 1487.61 637.315C1479.87 632.736 1405.86 580.412 1402.44 584.117C1402.53 585.907 1402.78 588.071 1401.78 589.57C1364.69 643.351 1326.35 670.449 1257.79 665.246C1209.09 661.541 1164.01 626.867 1145.57 581.994C1143.15 576.083 1135.08 551.898 1134.87 546.861C1134.79 544.322 1135.2 544.155 1137.2 542.574H1501.22C1506.05 538.619 1504.55 530.752 1504.3 524.924C1498.85 390.18 1424.8 274.834 1280.81 268.173ZM1143.4 465.69C1141.7 464.067 1140.66 464.066 1141.11 461.402C1142.41 453.577 1150.94 437.051 1155.27 429.725C1213.88 330.696 1372.76 345.099 1389.91 465.69H1143.4Z" fill="#F2FD59"/>
<path d="M4067.02 498.565L4235.53 279.362H4110.73C4110.57 281.193 4110.02 283.191 4108.73 284.523C4076.68 317.616 4046.21 365.57 4017.03 402.45C4014.28 405.905 4002.55 421.432 3999.51 420.683L3891.28 279.362H3763.36L3931.78 502.728L3740.51 751.07H3864.26C3875 739.706 3882.7 727.01 3892.4 714.772C3927.62 670.274 3963.33 626.15 3997.38 580.736L4003.46 585.023L4130.55 751.07H4258.46L4067.07 498.565H4067.02Z" fill="#F2FD59"/>
<path d="M1728.96 112.393L1614.57 176.789V279.405H1548.01V379.141H1614.57V751.113H1728.96V379.141H1824.66V279.405H1728.96V112.393Z" fill="#F2FD59"/>
<path d="M2958.35 751.142H3072.73V379.17H3228.75V279.434H2958.35V751.142Z" fill="#F2FD59"/>
</svg>

