<svg xmlns="http://www.w3.org/2000/svg" width="400" height="400"><path fill="#fff" d="M400 200c0 110.457-89.543 200-200 200S0 310.457 0 200 89.543 0 200 0s200 89.543 200 200"/><linearGradient id="a" x1="35.364" x2="339.091" y1="145.091" y2="145.091" gradientUnits="userSpaceOnUse"><stop offset="0" stop-color="#1b75ba"/><stop offset=".17" stop-color="#2967b2"/><stop offset=".72" stop-color="#543d99"/><stop offset="1" stop-color="#652d8f"/></linearGradient><path fill="url(#a)" d="M338.636 95.91c-33.818-44-77.909-70-146.909-70-81.818 0-156.363 75.272-156.363 155.635 0 55.91 31.727 82.728 66.727 82.728 27.803.876 53.518-14.69 65.636-39.728a2.727 2.727 0 0 0-2.363-4h-47.182a3.455 3.455 0 0 1-3.364-3.454v-34.182a3.455 3.455 0 0 1 3.364-3.454h63.636a6.46 6.46 0 0 0 5.91-3.91c27.817-63.636 77.09-77.454 105.363-79.727 14.516-1.166 29.125 0 43.273 3.455a2.09 2.09 0 0 0 2.272-3.364"/><linearGradient id="b" x1="73.038" x2="392.395" y1="275.107" y2="275.107" gradientTransform="rotate(-33.272 232.672 275.039)" gradientUnits="userSpaceOnUse"><stop offset="0" stop-color="#d81c5c"/><stop offset="1" stop-color="#ed4036"/></linearGradient><path fill="url(#b)" d="M61.742 305.685c34.325 44.177 78.893 69.404 147.594 69.235 81.698-.693 156.159-76.456 155.689-156.966-.391-55.995-32.135-82.856-67.455-82.469-27.83-.643-53.444 15.12-65.41 40.254a2.695 2.695 0 0 0 2.549 3.885l46.97-.25a3.44 3.44 0 0 1 3.456 3.402l.265 34.288a3.346 3.346 0 0 1-3.453 3.377l-63.522.44a6.51 6.51 0 0 0-5.906 3.875c-27.43 63.912-76.745 78.04-105.069 80.617a136 136 0 0 1-43.284-3.28 2.23 2.23 0 0 0-2.424 3.592"/></svg>