<svg xmlns="http://www.w3.org/2000/svg" data-name="Layer 2" viewBox="0 0 120.97 131.03"><defs><linearGradient id="a" x1="58.58" x2="51.48" y1="405.21" y2="376.41" gradientTransform="matrix(1 0 0 -1 0 424.64)" gradientUnits="userSpaceOnUse"><stop offset=".1" stop-color="#2c7aa8"/><stop offset="1" stop-color="#5ffeae"/></linearGradient><linearGradient id="b" x1="56.42" x2="24.32" y1="403.69" y2="324.69" gradientTransform="matrix(1 0 0 -1 0 424.64)" gradientUnits="userSpaceOnUse"><stop offset=".1" stop-color="#267daf"/><stop offset="1" stop-color="#5ffeae"/></linearGradient><linearGradient id="c" x1="70.16" x2="55.36" y1="406.86" y2="381.16" gradientTransform="matrix(1 0 0 -1 0 424.64)" gradientUnits="userSpaceOnUse"><stop offset="0"/><stop offset="1" stop-color="#0e0e0e" stop-opacity="0"/></linearGradient><linearGradient id="d" x1="43.41" x2="41.91" y1="386.21" y2="351.71" gradientTransform="matrix(1 0 0 -1 0 424.64)" gradientUnits="userSpaceOnUse"><stop offset=".1"/><stop offset=".9" stop-color="#0e0e0e" stop-opacity="0"/></linearGradient><linearGradient id="e" x1="82.52" x2="110.52" y1="420.3" y2="304.4" gradientTransform="matrix(1 0 0 -1 0 424.64)" gradientUnits="userSpaceOnUse"><stop offset=".1" stop-color="#4dfc8d"/><stop offset="1" stop-color="#1fc3f1"/></linearGradient><linearGradient id="f" x1="-17.99" x2="91.71" y1="360.19" y2="289.89" gradientTransform="matrix(1 0 0 -1 0 424.64)" gradientUnits="userSpaceOnUse"><stop offset=".1" stop-color="#3efe99"/><stop offset="1" stop-color="#2aabf0"/></linearGradient></defs><g data-name="Layer 1"><path d="M89.27 55.63c-.4-2.67-1.84-5.08-4-6.7-12-10.6-40.6-11.3-73.3-1.1l40.5-23.4c29.2-4.1 36 14.2 36.8 31.2" style="fill:url(#a)"/><path d="M85.27 49.03c-3.31-2.59-7.86-2.9-11.5-.8l-50.1 29.1a15.59 15.59 0 0 1-17.5-1 15.7 15.7 0 0 1-4.1-4.6 15.77 15.77 0 0 1-1.5-12 15.8 15.8 0 0 1 2.7-5.6 15.7 15.7 0 0 1 4.7-4l4-2.3c32.7-10.2 61.2-9.5 73.3 1.1z" style="fill:url(#b)"/><path d="M89.27 55.63c-.4-2.67-1.84-5.08-4-6.7-12-10.6-40.6-11.3-73.3-1.1l40.5-23.4c29.2-4.1 36 14.2 36.8 31.2" style="isolation:isolate;opacity:.3;fill:url(#c)"/><path d="M85.27 49.03c-3.31-2.59-7.86-2.9-11.5-.8l-50.1 29.1a15.59 15.59 0 0 1-17.5-1 15.7 15.7 0 0 1-4.1-4.6 15.77 15.77 0 0 1-1.5-12 15.8 15.8 0 0 1 2.7-5.6 15.7 15.7 0 0 1 4.7-4l4-2.3c32.7-10.2 61.2-9.5 73.3 1.1z" style="fill:url(#d);isolation:isolate;opacity:.3"/><path d="m120.97 21.23-.5 94.2c-.05 4.14-1.74 8.1-4.7 11a15.6 15.6 0 0 1-11 4.6 15.57 15.57 0 0 1-11-4.7 15.7 15.7 0 0 1-4.6-11l.3-58c0-.61-.08-1.21-.2-1.8-.8-17-7.6-35.2-36.9-31.1l37.2-21.6a20.91 20.91 0 0 1 21 0c3.18 1.89 5.8 4.58 7.6 7.8a20.96 20.96 0 0 1 2.8 10.6" style="fill:url(#e)"/><path d="M29.27 113.43a46.96 46.96 0 0 0 25 14.3c1.5.38 3.08.05 4.3-.9a4.88 4.88 0 0 0 1.9-3.8v-25.5c0-.8 0-2.3-.5-3-.4-.7-1-1.4-1.7-1.8s-1.8-.6-2.6-.6c-.84 0-1.66.2-2.4.6l-22.8 13.2c-.64.38-1.18.89-1.6 1.5a4.89 4.89 0 0 0-.7 4.1c.17.73.52 1.42 1 2z" style="fill:url(#f)"/></g></svg>