<svg xmlns="http://www.w3.org/2000/svg" xml:space="preserve" viewBox="0 0 328 328"><circle cx="164" cy="164" r="164" style="fill:red"/><path d="M246.5 85.4c1.6-1.6 1.6-4.1 0-5.7s-4.1-1.6-5.7 0l-71.7 71.7V83.2c0-2.2-1.8-4-4-4s-4 1.8-4 4V152L114 104.9c-1.6-1.6-4.1-1.6-5.7 0s-1.6 4.1 0 5.7l47.1 47.1H86.7c-2.2 0-4 1.8-4 4s1.8 4 4 4h68.2l-71.1 71.1c-1.6 1.6-1.6 4.1 0 5.7s4.1 1.6 5.7 0l71.7-71.7V239c0 2.2 1.8 4 4 4s4-1.8 4-4v-67.7l47.1 47.1c1.6 1.6 4.1 1.6 5.7 0s1.6-4.1 0-5.7l-47.1-47.1h68.8c2.2 0 4-1.8 4-4s-1.8-4-4-4h-69.4z" style="fill-rule:evenodd;clip-rule:evenodd;fill:#fff"/></svg>