<svg xmlns="http://www.w3.org/2000/svg" xmlns:xlink="http://www.w3.org/1999/xlink" data-name="Layer 2" viewBox="0 0 486.36 482.95"><defs><linearGradient id="a" x1="-3344.64" x2="-3940.45" y1="3617.82" y2="4351.61" gradientTransform="matrix(1 0 0 -1 3855.97 4063.87)" gradientUnits="userSpaceOnUse"><stop offset=".15" stop-color="#b32eff"/><stop offset=".42" stop-color="#ce60d3"/><stop offset=".65" stop-color="#e185b3"/><stop offset=".84" stop-color="#ee9c9f"/><stop offset=".96" stop-color="#f2a498"/></linearGradient><linearGradient xlink:href="#a" id="b" x1="-1815.19" x2="-2411.02" y1="-1324.6" y2="-590.79" gradientTransform="matrix(-1 0 0 1 -1840.24 1360.77)"/></defs><g data-name="Layer 1"><path d="M477.65 159.98 376.03 12.15c-15.96-23.17-52.05-10.87-50.87 17.28 1.08 25.66 10.67 52.82 33.62 86.15.03.05.01.11-.04.14q-.045.03-.09 0c-9.39-7-150.94-113.3-319.2-56.7h-.19c-18.57 6.96-28.05 22.15-23.35 39.96 4.35 16.49 21.26 26.39 38.07 23.6 35.74-5.95 71.21-8.78 106.09-5.72s69 12 100.77 27.61 60.55 37.7 87 63c29.75 28.43 66.66 89.06 66.66 89.06 4.47 7.93 13.99 11.5 22.57 8.45 10-3.58 14.66-15.11 10.9-25a387 387 0 0 0-28.69-59.67c-.04-.04-.03-.1 0-.14.03-.03.08-.03.12 0 12.44 4.68 23.95 10.51 37.57 7.32 11.11-2.61 20.86-10.17 25.39-20.75a48.07 48.07 0 0 0-4.72-46.75Z" style="fill:url(#a)"/><path d="m8.66 322.22 102.19 148.66c16 23.24 51.42 10.5 50.33-17.68-1-25.78-10.57-53.05-33.63-86.55-.07-.1 0-.23.12-.16 9.41 7 151 113.29 319.19 56.7h.2c18.57-6.94 28-22.1 23.34-39.93-4.34-16.48-21.25-26.38-38.05-23.58-35.75 6-71.21 8.77-106.1 5.71s-69-12-100.76-27.6-60.55-37.71-87-63c-29.74-28.43-66.66-89.06-66.66-89.06-4.63-8.26-14.72-11.75-23.47-8.12-9.52 4-13.59 15.25-9.94 24.89 7.83 20.61 17.4 40.5 28.62 59.48.03.05.01.12-.04.15q-.045.03-.09 0c-12.44-4.68-24-10.51-37.57-7.32-11.11 2.56-20.87 10.16-25.36 20.71-6.66 15.32-4.89 33 4.68 46.69Z" style="fill:url(#b)"/></g></svg>