<svg xmlns="http://www.w3.org/2000/svg" id="Layer_2" data-name="Layer 2" viewBox="0 0 305.5 254.77"><defs><style>.cls-1{fill:#0068e8}</style></defs><g id="Layer_1-2" data-name="Layer 1"><path d="M93.44 169.33c.02 8.32-.01 16.65 0 24.97 6.44-.33 12.8-1.8 19.23-2.49 24.6-2.65 50.78-2.9 75.4-.5 7.94.77 15.79 2.26 23.73 2.99.14-7.75-.18-15.53-.04-23.28.02-.91.53-1.6.54-1.69h28.97c-.02 10.8-.03 21.62.05 32.41 11.57 3.12 22.89 7.4 33.75 12.45 6.96 3.24 22.19 10.57 26.62 16.33 7.44 9.68 3.48 25.01-10.24 24.23-5.22-.29-17.57-9.41-23.2-12.27-64.02-32.59-168.36-32.66-232.07.67-5.64 2.95-17.32 11.62-22.89 11.61-13.76-.01-16.71-15.73-9-25.02 3.8-4.57 17.74-11.59 23.55-14.4 11.55-5.6 24.15-10.46 36.61-13.57.03-10.8.04-21.63.02-32.44zm-28.97-83.4c.02-10.97 0-21.97-.02-32.94-16.06-4.15-32.23-10.88-46.76-18.91C9.42 29.52.94 25.42.05 14.77-.62 6.64 4.98 0 13.28 0c5.64 0 16.36 8.17 21.89 11.11 63.99 34.01 170.17 34 234.4.5C275.3 8.62 286.25.2 291.95.01c7.31-.25 13.45 5.54 13.54 12.85.14 11.67-9.88 17.04-18.77 21.9-14.14 7.72-29.93 13.82-45.41 18.27-.08 10.79-.07 21.61-.05 32.41l-28.97.5c-.01-8.65.22-17.35-.26-25.98-9.76 1.43-19.63 3.15-29.46 4-19.18 1.65-40.71 1.63-59.92 0-9.77-.83-19.44-2.82-29.22-3.49 0 8.32.02 16.65 0 24.97l-28.97.5Z" class="cls-1"/><path d="M93.44 85.43c-.02 9.31.02 18.65 0 27.96H212.3c-.01-9.15.01-18.32 0-27.47l28.97-.5c.02 9.32-.01 18.65 0 27.97 7.85-.48 15.71 1.03 20.18 8.03 3.62 5.67 4.67 14.47-2.03 18.36-.87.5-4.59 1.57-5.42 1.57h-12.73c-.01 9.31.02 18.65 0 27.96H212.3c.15-9.31-.11-18.65 0-27.96H93.44c.02 9.31-.02 18.65 0 27.96H64.47c-.02-9.32.01-18.65 0-27.97-5.48.16-10.91-.05-15.65-3.07-6.77-4.32-11.39-17.01-3.79-22.61 1.01-.75 4.61-2.28 5.71-2.28h13.73c.01-9.15-.02-18.32 0-27.47l28.97-.5Z" class="cls-1"/></g></svg>