<?xml version="1.0" encoding="UTF-8" standalone="no"?>
<svg width="920" height="920" viewBox="0 0 920 920" fill="none" xmlns="http://www.w3.org/2000/svg">
<rect width="920" height="920" rx="460" fill="white"/>
<path fill-rule="evenodd" clip-rule="evenodd" d="M460 860C476.852 860 493.461 858.958 509.766 856.934C653.761 839.065 774.019 744.662 828.566 615.698C845.773 575.015 856.441 530.894 859.253 484.651C859.749 476.497 860 468.278 860 460C860 452.233 859.779 444.519 859.342 436.862C857.337 401.713 850.794 367.779 840.29 335.637C793.076 191.171 665.835 82.9027 510.945 63.2137C494.262 61.0931 477.259 60 460 60C446.231 60 432.624 60.6957 419.213 62.054C271.249 77.0393 147.111 172.667 91.434 304.302C87.1052 314.536 83.1902 324.989 79.71 335.637C69.3564 367.318 62.8513 400.74 60.7472 435.349C60.2515 443.503 60 451.722 60 460C60 467.767 60.2213 475.481 60.6581 483.138C60.6868 483.643 60.7165 484.147 60.7472 484.651C62.8513 519.261 69.3563 552.682 79.71 584.363C127.941 731.941 259.684 841.745 419.102 857.935C432.549 859.3 446.193 860 460 860ZM492.5 119.939C494.316 121.072 496.138 122.263 497.963 123.513C520.318 138.83 542.707 162.776 562.703 195.851C572.854 212.641 582.111 231.334 590.264 251.668C558.921 247.389 526.206 244.615 492.5 243.524V119.939ZM492.5 800.061V676.476C526.206 675.385 558.921 672.611 590.264 668.332C582.111 688.666 572.854 707.359 562.703 724.149C542.707 757.224 520.318 781.17 497.963 796.487C496.138 797.737 494.316 798.928 492.5 800.061ZM434.5 676.678L434.5 800.061C432.684 798.928 430.862 797.737 429.037 796.487C406.682 781.17 384.293 757.224 364.297 724.149C354.309 707.629 345.186 689.266 337.13 669.31C368.392 673.315 400.973 675.829 434.5 676.678ZM314.663 754.156C297.502 725.772 282.949 693.483 271.422 658.329C231.227 649.958 194.047 638.992 160.854 625.887C198.162 693.021 257.412 746.281 328.916 775.978C324.004 769.021 319.249 761.743 314.663 754.156ZM434.5 243.322C400.973 244.171 368.392 246.685 337.13 250.69C345.186 230.734 354.309 212.371 364.297 195.851C384.293 162.776 406.682 138.83 429.037 123.513C430.862 122.263 432.684 121.072 434.5 119.939V243.322ZM314.663 165.844C319.249 158.257 324.004 150.979 328.916 144.022C257.412 173.719 198.162 226.979 160.854 294.113C194.047 281.008 231.227 270.042 271.422 261.671C282.949 226.517 297.502 194.228 314.663 165.844ZM601.109 148.376C604.954 154 608.699 159.825 612.337 165.844C629.759 194.66 644.493 227.499 656.101 263.276C693.419 271.426 728.034 281.83 759.146 294.113C723.596 230.143 668.122 178.769 601.109 148.376ZM601.109 771.624C604.954 766 608.699 760.175 612.337 754.156C629.759 725.34 644.493 692.501 656.101 656.724C693.419 648.574 728.034 638.17 759.146 625.887C723.596 689.857 668.122 741.231 601.109 771.624Z" fill="black"/>
<path fill-rule="evenodd" clip-rule="evenodd" d="M491.912 301.212C532.042 302.584 570.337 306.514 606.086 312.554C606.256 313.222 606.425 313.891 606.593 314.562C618.022 360.201 624 409.552 624 459.669C624 509.786 618.022 559.136 606.593 604.776C606.552 604.941 606.51 605.107 606.468 605.272L606.391 605.58C606.331 605.819 606.27 606.058 606.21 606.297C606.169 606.459 606.127 606.621 606.086 606.783C580.58 611.093 553.777 614.328 525.937 616.327L520 396.669L493.071 618.085C491.55 618.139 490.026 618.189 488.5 618.236C479.096 618.522 469.593 618.669 460 618.669C451.241 618.669 442.558 618.547 433.956 618.307L407 396.669L401.05 616.801C370.32 614.836 340.812 611.366 312.869 606.606C312.714 605.997 312.56 605.387 312.407 604.776C300.978 559.136 295 509.786 295 459.669C295 409.552 300.978 360.201 312.407 314.562C312.56 313.951 312.714 313.341 312.869 312.732C349.631 306.469 389.1 302.439 430.5 301.133C432.015 301.085 433.533 301.041 435.054 301L463.5 476.669L491.912 301.212Z" fill="white"/>
<path fill-rule="evenodd" clip-rule="evenodd" d="M801.1 434.66C799.61 414.029 796.289 393.905 791.3 374.451C782.334 369.18 772.356 363.911 761.275 358.694C734.483 346.083 703.463 335.005 669.07 326C677.857 368.922 682.358 413.991 682.358 459.431C682.358 504.991 677.833 550.178 669 593.202C688.877 588.012 707.631 582.13 725.096 575.66H725.354C727.696 574.788 730.016 573.906 732.311 573.014C734.496 560.374 736.317 547.575 737.768 534.66H793.751C797.389 518.4 799.869 501.703 801.1 484.66H741.509C741.836 476.015 742 467.344 742 458.66C742 450.645 741.86 442.642 741.581 434.66H801.1Z" fill="white"/>
<path fill-rule="evenodd" clip-rule="evenodd" d="M119 485C120.473 505.804 123.806 526.093 128.835 545.703C137.801 550.975 147.78 556.244 158.861 561.46C185.489 573.994 216.294 585.014 250.437 593.989C243.224 558.778 238.897 522.121 237.572 485H213.496C213.166 476.697 213 468.359 213 460C213 451.641 213.166 443.303 213.496 435H237.608C238.974 398.217 243.288 361.898 250.437 327C216.294 335.975 185.489 346.995 158.861 359.529C147.78 364.746 137.801 370.014 128.835 375.286C123.886 394.585 120.579 414.542 119.071 435H155.455C155.152 443.313 155 451.651 155 460C155 468.35 155.152 476.687 155.455 485H119Z" fill="white"/>
</svg>
