<svg xmlns="http://www.w3.org/2000/svg" viewBox="0 0 30 30"><path fill="url(#a)" d="M15 0C2.645 0 0 2.645 0 15s2.645 15 15 15 15-2.645 15-15S27.355 0 15 0M8.51 4.17c0-.597.486-1.083 1.082-1.083h2.173c.597 0 1.083.486 1.083 1.083v2.158c0 .597.486 1.083 1.082 1.083h2.152c.597 0 1.083-.486 1.083-1.083V4.17c0-.597.486-1.083 1.082-1.083h2.174c.597 0 1.084.486 1.084 1.083v2.173c0 .597-.487 1.083-1.084 1.083h-2.159c-.596 0-1.082.487-1.082 1.083v2.159c0 .597-.486 1.083-1.082 1.083h-2.174a1.084 1.084 0 0 1-1.082-1.083V8.509c0-.596-.487-1.083-1.085-1.083H9.6a1.084 1.084 0 0 1-1.082-1.083V4.17zM7.426 18.264v2.158c0 .597-.487 1.083-1.083 1.083H4.17a1.084 1.084 0 0 1-1.083-1.083v-2.174c0-.596.487-1.082 1.083-1.082h2.158c.598 0 1.082-.487 1.082-1.084v-2.151c0-.597-.484-1.083-1.082-1.083H4.17a1.085 1.085 0 0 1-1.083-1.083V9.59c0-.596.487-1.083 1.083-1.083h2.173c.597 0 1.083.487 1.083 1.083v2.159c0 .596.486 1.083 1.084 1.083h2.158c.597 0 1.083.486 1.083 1.083v2.173c0 .597-.487 1.083-1.083 1.083H8.51c-.598 0-1.084.487-1.084 1.083v.009m14.086 7.58c0 .597-.487 1.084-1.083 1.084h-2.173a1.085 1.085 0 0 1-1.082-1.083v-2.159c0-.596-.487-1.083-1.085-1.083h-2.15c-.597 0-1.082.487-1.082 1.083v2.159c0 .596-.487 1.083-1.084 1.083H9.599a1.085 1.085 0 0 1-1.082-1.083V23.67c0-.596.486-1.083 1.082-1.083h2.158c.598 0 1.085-.486 1.085-1.083v-2.158c0-.597.486-1.083 1.082-1.083h2.174c.596 0 1.082.486 1.082 1.083v2.158c0 .597.486 1.083 1.082 1.083h2.159c.597 0 1.084.487 1.084 1.083v2.174zm5.422-14.086c0 .597-.486 1.084-1.082 1.084h-2.159c-.597 0-1.084.486-1.084 1.082v2.152c0 .597.487 1.083 1.084 1.083h2.159c.596 0 1.082.486 1.082 1.083v2.174c0 .596-.486 1.083-1.082 1.083h-2.174a1.085 1.085 0 0 1-1.084-1.083v-2.159c0-.596-.486-1.083-1.082-1.083h-2.159a1.085 1.085 0 0 1-1.082-1.083v-2.173c0-.597.486-1.083 1.082-1.083h2.159c.596 0 1.082-.487 1.082-1.084V9.594c0-.597.487-1.083 1.084-1.083h2.174c.596 0 1.082.486 1.082 1.083v2.174z"/><defs><linearGradient id="a" x1="64.037" x2="-21.861" y1="21.132" y2="22.336" gradientUnits="userSpaceOnUse"><stop stop-color="#F8F29C"/><stop offset=".165" stop-color="#F6DB2A"/><stop offset=".333" stop-color="#F4A435"/><stop offset=".55" stop-color="#E85A46"/><stop offset=".699" stop-color="#B93483"/><stop offset=".867" stop-color="#502B6E"/><stop offset="1" stop-color="#2A2136"/></linearGradient></defs></svg>
