<?xml version="1.0" encoding="UTF-8"?>
<svg id="Layer_2" data-name="Layer 2" xmlns="http://www.w3.org/2000/svg" viewBox="0 0 215.04 215.04">
  <defs>
    <style>
      .cls-1 {
        fill: #fff7ef;
      }
    </style>
  </defs>
  <g id="Layer_1-2" data-name="Layer 1">
    <g>
      <path class="cls-1" d="M211.66,215.04h-54.51c-3.57,0-6.96-1.41-9.5-3.95L48.83,112.27c-2.63-2.63-2.63-6.87,0-9.5L147.64,3.95c2.54-2.54,5.93-3.95,9.5-3.95h54.51c3.01,0,4.52,3.62,2.4,5.74l-99.38,99.38c-1.32,1.32-1.32,3.43,0,4.75l99.38,99.38c2.12,2.12.61,5.74-2.4,5.74v.05Z"/>
      <path class="cls-1" d="M55.17,57.71L10.11,102.77c-2.63,2.63-2.63,6.87,0,9.5l45.06,45.06c2.54,2.54,3.95,5.93,3.95,9.5v41.48c0,3.72-3.01,6.73-6.73,6.73H6.73c-3.72,0-6.73-3.01-6.73-6.73V6.73C0,3.01,3.01,0,6.73,0h45.67c3.72,0,6.73,3.01,6.73,6.73v41.48c0,3.57-1.41,6.96-3.95,9.5Z"/>
    </g>
  </g>
</svg>