<svg width="159" height="189" viewBox="0 0 159 189" fill="none" xmlns="http://www.w3.org/2000/svg">
<g clip-path="url(#clip0_168_232)">
<path d="M16.8365 63.1372L6.57617 41.5828L8.77972 59.2104L16.8365 63.1372Z" fill="white" style="fill:white;fill-opacity:1;"/>
<path d="M51.2495 118.009C60.6662 114.357 71.5462 110.91 81.6344 110.036C81.7721 109.127 80.8081 108.235 79.9989 108.167L60.4424 110.516L52.2824 110.962L64.6774 109.144L79.7751 107.704L54.6065 76.5979C54.9163 76.3407 57.1715 77.6096 57.7224 77.9012C62.8181 80.5933 67.6384 83.9028 72.7513 86.5949L87.8319 86.8865L104.462 96.0775L85.3529 73.0999L71.925 72.774L31.8307 21.383L29.2656 0.034295C33.6555 7.88786 49.6657 36.2498 49.6657 36.2498L79.4481 40.2967L113.31 0L104.927 49.865C109.575 58.2844 116.306 65.5035 122.176 73.117L113.792 77.2839L125.671 98.8897C126.136 99.1298 125.258 99.8157 125.206 99.8157H110.298C110.108 99.8157 109.489 98.6154 109.609 100.039L119.164 111.888L126.239 102.131C129.045 102.576 131.903 101.753 134.537 101.668C142.525 101.376 150.581 101.925 158.569 101.685C158.673 102.491 157.502 102.131 156.951 102.148C155.247 102.182 153.525 102.062 151.821 102.148C150.909 102.199 150.065 102.611 149.049 102.645C141.612 102.885 134.124 102.439 126.704 102.594L126.032 104.257C126.273 104.771 126.601 104.857 127.117 104.943C133.039 105.937 139.684 106.177 145.71 106.846C148.361 107.138 150.995 107.892 153.68 107.721L159.034 108.647H155.539L125.964 105.406L125.499 107.686C134.003 111.15 142.232 115.403 150.185 120.015L148.636 119.707C140.941 115.54 133.125 111.527 125.017 108.184L124.156 112.762C124.5 112.951 124.931 113.019 125.241 113.294C132.058 119.175 138.72 125.245 145.055 131.641L144.832 132.327C138.032 125.537 130.939 119.055 123.622 112.831C123.708 113.602 123.003 113.739 123.571 114.46C125.464 116.809 128.494 119.089 130.595 121.439C133.624 124.8 136.224 128.555 138.978 132.122C139.116 133.442 138.376 132.516 138.049 132.122C135.053 128.315 132.282 124.319 128.959 120.736C127.634 119.312 125.275 116.723 123.829 115.626C123.433 115.317 123.347 114.991 122.658 115.163L120.971 118.438C124.759 124.782 129.321 131.076 131.025 138.38L127.375 130.63L120.059 118.421L118.423 119.57C122.624 125.863 126.824 132.687 128.202 140.232L125.499 133.425C123.175 128.589 120.696 123.856 117.563 119.484L118.888 112.402L111.916 117.289C110.315 118.181 105.374 120.29 103.756 120.29H93.7367L98.6775 121.627C101.57 121.73 104.031 121.953 106.786 120.976C108.404 120.393 110.986 118.472 112.346 118.198C113.397 117.992 114.946 119.021 116.117 118.901C116.289 119.724 115.893 119.827 115.342 120.221C111.245 123.188 105.271 125.417 100.864 128.092C94.8729 127.972 89.0025 125.931 83.0116 125.4C82.8222 124.611 83.3215 124.474 83.7002 124.011C85.2496 122.159 87.4359 120.53 89.0542 118.678L87.9007 117.632C82.9255 119.673 79.4653 123.788 75.5402 127.269C75.3508 126.411 76.005 126.171 76.4698 125.64C79.4825 122.245 82.9944 119.295 86.9711 117.066L86.4891 115.66C79.1726 118.729 73.1817 123.599 67.6212 129.121C67.4318 128.263 68.086 128.023 68.5508 127.492C72.3209 123.256 76.8313 119.758 81.7549 116.963L85.3357 115.197C78.4151 116.672 72.3382 120.633 66.089 123.634C65.7447 123.805 64.5741 124.577 65.0561 123.548C71.443 119.758 78.1741 116.38 85.3357 114.254L84.1306 112.385C75.0237 113.739 66.9326 117.992 58.4627 121.164C57.7913 121.404 57.2576 121.867 56.4313 121.696L59.8399 119.758C67.449 116.432 75.1615 113.122 83.4592 111.956L82.7017 110.533C72.3554 111.836 62.2156 114.425 52.4546 117.992" fill="white" style="fill:white;fill-opacity:1;"/>
<path d="M41.1096 189H113.328L113.207 188.829L75.3163 134.66C75.3163 134.66 49.6311 121.199 47.5998 120.016L46.8939 119.621L18.4888 104.926C18.0928 105.011 15.631 110.893 15.2179 111.888C11.3961 120.787 7.64317 129.824 4.02797 138.809C2.96062 141.467 0.739853 145.925 0.154535 148.429C0.0512436 148.875 -0.120909 149.509 0.13732 149.869L41.1268 188.983L41.1096 189Z" fill="white" style="fill:white;fill-opacity:1;"/>
<path d="M101.518 47.4986L79.4482 40.2967L113.311 0L94.3394 37.4159L101.518 47.4986Z" fill="#1BAA81" style="fill:#1BAA81;fill:color(display-p3 0.1059 0.6667 0.5059);fill-opacity:1;"/>
<path d="M29.2659 0L6.57617 41.5827L16.8365 63.1371V41.7885L36.4102 57.5642L29.2659 0Z" fill="#1BAA81" style="fill:#1BAA81;fill:color(display-p3 0.1059 0.6667 0.5059);fill-opacity:1;"/>
</g>
<defs>
<clipPath id="clip0_168_232">
<rect width="159" height="189" fill="white" style="fill:white;fill-opacity:1;"/>
</clipPath>
</defs>
</svg>
