<svg width="47" height="30" viewBox="0 0 47 30" fill="none" xmlns="http://www.w3.org/2000/svg">
<path d="M5.17865 12.9884C5.14505 12.9884 5.1128 12.9749 5.08903 12.9509C5.06525 12.9269 5.0519 12.8943 5.0519 12.8604C5.05153 12.3144 4.83639 11.7909 4.45378 11.4049C4.07116 11.019 3.55241 10.8022 3.0115 10.8022C2.97789 10.8022 2.94565 10.7887 2.92189 10.7647C2.89812 10.7407 2.88477 10.7082 2.88477 10.6742C2.88477 10.6403 2.89812 10.6078 2.92189 10.5838C2.94565 10.5598 2.97789 10.5463 3.0115 10.5463C3.55184 10.5457 4.06985 10.3287 4.45194 9.94306C4.83403 9.55737 5.04894 9.03443 5.04958 8.489C5.04958 8.4551 5.06293 8.42255 5.0867 8.39855C5.11044 8.37455 5.14269 8.36108 5.17629 8.36108C5.20993 8.36108 5.24214 8.37455 5.26591 8.39855C5.28969 8.42255 5.30304 8.4551 5.30304 8.489C5.30364 9.03443 5.51859 9.55737 5.90064 9.94306C6.28273 10.3287 6.80075 10.5457 7.34109 10.5463C7.35774 10.5463 7.37424 10.5496 7.38961 10.556C7.40499 10.5625 7.41894 10.5719 7.43071 10.5838C7.44249 10.5957 7.45183 10.6098 7.4582 10.6253C7.46454 10.6408 7.46784 10.6574 7.46784 10.6742C7.46784 10.691 7.46454 10.7077 7.4582 10.7232C7.45183 10.7387 7.44249 10.7528 7.43071 10.7647C7.41894 10.7766 7.40499 10.786 7.38961 10.7924C7.37424 10.7988 7.35774 10.8022 7.34109 10.8022C6.80075 10.8028 6.28273 11.0198 5.90064 11.4054C5.51859 11.7911 5.30364 12.314 5.30304 12.8595C5.3033 12.8931 5.29036 12.9256 5.26708 12.9497C5.24379 12.9738 5.21203 12.9877 5.17865 12.9884Z" fill="white"/>
<path d="M5.17899 8.48975C5.17899 9.06931 5.40707 9.62514 5.81308 10.0349C6.21906 10.4448 6.76967 10.675 7.34379 10.675C6.76967 10.675 6.21906 10.9052 5.81308 11.315C5.40707 11.7248 5.17899 12.2807 5.17899 12.8602C5.17899 12.2807 4.95092 11.7248 4.54494 11.315C4.13897 10.9052 3.58835 10.675 3.01421 10.675C3.58835 10.675 4.13897 10.4448 4.54494 10.0349C4.95092 9.62514 5.17899 9.06931 5.17899 8.48975ZM5.17899 8.23389C5.11179 8.23389 5.04733 8.26085 4.99978 8.30885C4.95223 8.35681 4.92553 8.42191 4.92553 8.48975C4.92493 9.00125 4.72333 9.49164 4.36506 9.85332C4.00674 10.215 3.52093 10.4185 3.01421 10.4191C2.94699 10.4191 2.88252 10.4461 2.83498 10.494C2.78745 10.542 2.76074 10.6071 2.76074 10.675C2.76074 10.7429 2.78745 10.8079 2.83498 10.8559C2.88252 10.9039 2.94699 10.9308 3.01421 10.9308C3.52093 10.9315 4.00674 11.135 4.36506 11.4966C4.72333 11.8583 4.92493 12.3487 4.92553 12.8602C4.92553 12.9281 4.95223 12.9932 4.99978 13.0411C5.04733 13.0891 5.11179 13.1161 5.17899 13.1161C5.24623 13.1161 5.31069 13.0891 5.35824 13.0411C5.40576 12.9932 5.43249 12.9281 5.43249 12.8602C5.43298 12.3487 5.63451 11.8582 5.99286 11.4965C6.35117 11.1348 6.83706 10.9313 7.34379 10.9308C7.41103 10.9308 7.47549 10.9039 7.52304 10.8559C7.57056 10.8079 7.59729 10.7429 7.59729 10.675C7.59729 10.6071 7.57056 10.542 7.52304 10.494C7.47549 10.4461 7.41103 10.4191 7.34379 10.4191C6.83706 10.4186 6.35117 10.2152 5.99286 9.85347C5.63451 9.49175 5.43298 9.00129 5.43249 8.48975C5.43249 8.42191 5.40576 8.35681 5.35824 8.30885C5.31069 8.26085 5.24623 8.23389 5.17899 8.23389Z" fill="white"/>
<path d="M24.9097 4.75471C24.8761 4.75471 24.8438 4.74125 24.8201 4.71725C24.7963 4.69325 24.783 4.66073 24.783 4.6268C24.7824 4.08132 24.5676 3.55832 24.1855 3.17261C23.8034 2.7869 23.2853 2.56999 22.7449 2.56949C22.7113 2.56949 22.679 2.55601 22.6553 2.53202C22.6315 2.50803 22.6182 2.47549 22.6182 2.44156C22.6182 2.40763 22.6315 2.37509 22.6553 2.3511C22.679 2.32711 22.7113 2.31363 22.7449 2.31363C23.2853 2.31301 23.8034 2.09599 24.1855 1.7102C24.5676 1.32442 24.7824 0.801377 24.783 0.255859C24.783 0.239059 24.7862 0.222424 24.7926 0.206902C24.799 0.191382 24.8083 0.177279 24.8201 0.1654C24.8318 0.15352 24.8458 0.144097 24.8612 0.137668C24.8766 0.131239 24.893 0.12793 24.9097 0.12793C24.9263 0.12793 24.9428 0.131239 24.9582 0.137668C24.9735 0.144097 24.9875 0.15352 24.9993 0.1654C25.0111 0.177279 25.0204 0.191382 25.0268 0.206902C25.0331 0.222424 25.0364 0.239059 25.0364 0.255859C25.037 0.801422 25.252 1.32446 25.6342 1.71023C26.0163 2.096 26.5345 2.31301 27.075 2.31363C27.1086 2.31363 27.1408 2.32711 27.1646 2.3511C27.1883 2.37509 27.2017 2.40763 27.2017 2.44156C27.2017 2.47549 27.1883 2.50803 27.1646 2.53202C27.1408 2.55601 27.1086 2.56949 27.075 2.56949C26.5345 2.56999 26.0164 2.78689 25.6342 3.17258C25.252 3.55828 25.037 4.08128 25.0364 4.6268C25.0364 4.66073 25.0231 4.69325 24.9993 4.71725C24.9755 4.74125 24.9433 4.75471 24.9097 4.75471Z" fill="white"/>
<path d="M24.9095 0.255859C24.9094 0.542869 24.9653 0.827077 25.0741 1.09225C25.1829 1.35743 25.3423 1.59839 25.5434 1.80136C25.7444 2.00432 25.9831 2.16533 26.2457 2.27517C26.5084 2.38502 26.7899 2.44156 27.0743 2.44156C26.5001 2.44156 25.9495 2.67179 25.5435 3.0816C25.1375 3.49141 24.9095 4.04722 24.9095 4.62679C24.9095 4.3398 24.8536 4.05562 24.7448 3.79046C24.636 3.52531 24.4766 3.28439 24.2755 3.08146C24.0745 2.87853 23.8358 2.71757 23.5732 2.60778C23.3105 2.49798 23.029 2.4415 22.7447 2.44156C23.029 2.44156 23.3105 2.38502 23.5732 2.27517C23.8359 2.16533 24.0745 2.00432 24.2756 1.80136C24.4766 1.59839 24.6361 1.35743 24.7448 1.09225C24.8536 0.827077 24.9095 0.542869 24.9095 0.255859ZM24.9095 0C24.8422 0 24.7778 0.0269564 24.7302 0.0749393C24.6827 0.122922 24.656 0.188001 24.656 0.255859C24.6555 0.767449 24.454 1.25795 24.0956 1.61974C23.7373 1.98154 23.2515 2.18508 22.7447 2.1857C22.6774 2.1857 22.613 2.21266 22.5654 2.26064C22.5179 2.30862 22.4912 2.3737 22.4912 2.44156C22.4912 2.50942 22.5179 2.5745 22.5654 2.62248C22.613 2.67046 22.6774 2.69742 22.7447 2.69742C23.2518 2.6973 23.7383 2.90045 24.0971 3.26224C24.456 3.62402 24.6578 4.11484 24.6583 4.62679C24.6583 4.69466 24.685 4.75972 24.7326 4.80772C24.7801 4.85569 24.8446 4.88265 24.9118 4.88265C24.979 4.88265 25.0435 4.85569 25.091 4.80772C25.1386 4.75972 25.1653 4.69466 25.1653 4.62679C25.1664 4.11608 25.3679 3.62658 25.7257 3.26544C26.0834 2.9043 26.5683 2.70092 27.0743 2.69979C27.1415 2.69979 27.206 2.67283 27.2535 2.62485C27.301 2.57686 27.3277 2.51179 27.3277 2.44393C27.3277 2.37607 27.301 2.31099 27.2535 2.26301C27.206 2.21503 27.1415 2.18807 27.0743 2.18807C26.5675 2.18745 26.0816 1.9839 25.7233 1.62211C25.3649 1.26032 25.1634 0.769819 25.1629 0.258228C25.1629 0.19037 25.1362 0.125291 25.0887 0.0773085C25.0412 0.0293256 24.9767 0.00236921 24.9095 0.00236921V0Z" fill="white"/>
<path d="M46.5 29.973L31.0155 7.57107L26.5516 10.9626L32.0035 17.8623L16.9607 2.83008L0 29.973H46.5Z" fill="white"/>
<path d="M16.5664 20.8279C16.5664 20.8279 17.6197 23.6964 16.9048 29.9725H19.9394C19.9394 29.9725 21.647 24.2583 21.1274 23.1642C20.6078 22.0702 16.5664 20.8279 16.5664 20.8279Z" fill="url(#paint0_linear_839_44021)"/>
<path d="M32.9759 24.5836C31.4105 19.3873 26.7115 18.4833 24.7617 18.4833C23.8633 18.4833 20.5452 17.0429 19.3323 16.417C19.1619 16.3293 18.9296 15.82 19 15.6409L19.3441 15.077C19.4379 14.6861 19.5093 14.2573 19.184 14.0247L18.6156 13.7404C18.5325 13.6981 18.4387 13.6823 18.3466 13.6949C18.2544 13.7075 18.1682 13.748 18.0993 13.811L17.5585 14.3033C17.5585 14.3033 14.8436 13.6978 14.3728 13.7693C14.0973 13.8115 13.8401 14.2734 13.6739 14.6501C13.6283 14.7476 13.549 14.8249 13.4509 14.8675C13.3528 14.9101 13.2426 14.915 13.1412 14.8813C12.1738 14.5392 11.7799 14.6506 11.7799 14.6506C11.7799 14.6506 10.9303 15.7655 11.7799 16.6231C18.3583 23.446 20.5884 22.0847 21.4225 29.9993H24.4266L25.8262 27.0143L28.2065 27.0356L29.3419 29.9998H33.78L32.9759 24.5836ZM14.6488 15.2286C14.5895 15.2286 14.5315 15.2109 14.4822 15.1776C14.4328 15.1443 14.3944 15.097 14.3717 15.0417C14.349 14.9864 14.3431 14.9256 14.3547 14.8668C14.3662 14.8081 14.3948 14.7541 14.4367 14.7118C14.4787 14.6694 14.5321 14.6406 14.5903 14.6289C14.6485 14.6172 14.7088 14.6232 14.7636 14.6461C14.8184 14.6691 14.8653 14.7079 14.8982 14.7577C14.9311 14.8075 14.9488 14.866 14.9488 14.9259C14.9488 15.0062 14.9172 15.0832 14.8609 15.14C14.8047 15.1968 14.7284 15.2286 14.6488 15.2286Z" fill="#3083DC"/>
<defs>
<linearGradient id="paint0_linear_839_44021" x1="17.5287" y1="26.1843" x2="20.7426" y2="22.7708" gradientUnits="userSpaceOnUse">
<stop stop-color="#3083DC"/>
<stop offset="0.1" stop-color="#2E7FD5"/>
<stop offset="0.24" stop-color="#2A72C0"/>
<stop offset="0.41" stop-color="#235F9F"/>
<stop offset="0.61" stop-color="#194370"/>
<stop offset="0.82" stop-color="#0C2036"/>
<stop offset="1"/>
</linearGradient>
</defs>
</svg>
