<svg width="230" height="230" viewBox="0 0 230 230" fill="none" xmlns="http://www.w3.org/2000/svg">
<rect width="230" height="230" rx="115" fill="black"/>
<path d="M129.838 85.8487C132.404 87.1574 134.774 88.795 136.893 90.7059C140.143 79.7305 141.211 68.3006 140.166 57.0718C138.113 56.1851 136.007 55.4038 133.855 54.734C131.222 43.008 126.008 31.5652 118.805 21.6386C117.543 21.588 116.274 21.5625 115 21.5625C110.632 21.5625 106.335 21.8622 102.126 22.4421C110.124 31.0519 115.862 41.2794 119.128 52.2062C121.432 52.3332 123.801 52.6486 126.16 53.0933L126.216 53.112C126.248 53.1231 126.28 53.1347 126.313 53.1469L126.368 53.1681L126.397 53.1799L126.455 53.2042C129.622 63.185 130.904 73.9464 129.915 85.0285C129.89 85.3024 129.865 85.5758 129.838 85.8487Z" fill="white"/>
<path d="M121.94 83.0346C119.273 71.8509 114.471 61.3679 107.923 52.1268C105.701 52.3856 103.487 52.7619 101.289 53.2574C93.1586 44.4341 82.9427 37.1408 71.7636 32.1462C66.8038 34.7396 62.106 37.7654 57.7198 41.1734C68.9292 44.6333 78.9921 50.6151 87.2707 58.432C89.3291 57.3902 91.539 56.4785 93.8044 55.6841C93.8582 55.6727 93.9128 55.6625 93.9686 55.6534C94.0167 55.6456 94.0655 55.6387 94.1151 55.6327C101.848 62.6928 108.339 71.3718 113.024 81.4635C113.158 81.7534 113.291 82.0436 113.422 82.3343C113.945 82.3094 114.471 82.2969 115 82.2969C117.381 82.2969 119.703 82.5514 121.94 83.0346Z" fill="white"/>
<path d="M105.176 83.7983C97.2579 75.4061 87.8281 68.6994 77.5018 63.9541C75.7073 65.289 73.9777 66.7223 72.322 68.2502C60.8784 64.6769 48.3953 63.4679 36.2259 64.727C33.2315 69.4093 30.643 74.3763 28.5103 79.5784C39.9599 76.961 51.6791 77.1074 62.7692 79.7406C64.0309 77.8092 65.489 75.9147 67.0536 74.094C67.0817 74.0688 67.1103 74.0438 67.1397 74.0191C67.1902 73.9767 67.2426 73.935 67.297 73.8941C77.5242 76.1418 87.4845 80.4129 96.5876 86.81C96.8708 87.009 97.1523 87.2095 97.4321 87.4114C99.8201 85.8876 102.419 84.6653 105.176 83.7983Z" fill="white"/>
<path d="M91.0172 92.7665C79.9468 89.4442 68.4068 88.3454 57.0718 89.4007C56.1851 91.4541 55.4038 93.5601 54.734 95.7112C43.0155 98.3433 31.5797 103.552 21.6575 110.748C21.5943 112.157 21.5625 113.575 21.5625 115C21.5625 119.235 21.8442 123.404 22.3899 127.489C31.0106 119.465 41.2573 113.712 52.2062 110.439C52.3332 108.135 52.6486 105.765 53.0933 103.406C53.1249 103.309 53.1619 103.211 53.2042 103.111C63.185 99.9444 73.9464 98.6631 85.0286 99.6516C85.374 99.6825 85.7186 99.7154 86.0626 99.7504C87.4067 97.2051 89.0767 94.8586 91.0172 92.7665Z" fill="white"/>
<path d="M83.1564 107.519C71.8925 110.205 61.3411 115.057 52.0534 121.675C52.3183 123.896 52.7006 126.11 53.2019 128.306C44.3445 136.512 37.0425 146.826 32.0759 158.102C34.6757 163.093 37.713 167.821 41.1368 172.233C44.5503 160.884 50.5443 150.69 58.4143 142.31C57.367 140.255 56.4493 138.047 55.6488 135.784C55.6273 135.684 55.6098 135.58 55.5966 135.473C62.6359 127.721 71.2973 121.208 81.3763 116.495C81.6884 116.35 82.0009 116.206 82.3139 116.064C82.3026 115.711 82.2969 115.356 82.2969 115C82.2969 112.426 82.5942 109.922 83.1564 107.519Z" fill="white"/>
<path d="M83.6652 124.391C75.3 132.329 68.6229 141.772 63.9075 152.107C65.2474 153.898 66.6852 155.623 68.2176 157.275C64.6297 168.875 63.4701 181.534 64.8426 193.848C69.5532 196.851 74.5511 199.443 79.7857 201.574C77.0127 189.968 77.091 178.062 79.7337 166.797C77.7989 165.54 75.9005 164.087 74.0756 162.527C74.0324 162.48 73.9898 162.43 73.948 162.378L73.9223 162.346C73.9064 162.326 73.8907 162.305 73.8751 162.285C76.0952 152.051 80.3394 142.08 86.712 132.959C86.8777 132.722 87.0443 132.486 87.212 132.252C85.7025 129.825 84.5018 127.187 83.6652 124.391Z" fill="white"/>
<path d="M92.5923 138.82C89.3557 149.826 88.3111 161.284 89.3891 172.534C91.4449 173.415 93.5529 174.191 95.7058 174.855C98.4118 186.752 103.776 198.35 111.177 208.361C112.445 208.412 113.719 208.438 115 208.438C119.403 208.438 123.736 208.133 127.977 207.544C119.718 198.856 113.798 188.466 110.44 177.343C108.136 177.222 105.766 176.913 103.405 176.475C103.308 176.443 103.21 176.407 103.11 176.365C99.9163 166.392 98.6061 155.634 99.5647 144.55C99.5843 144.323 99.6047 144.097 99.6261 143.871C97.058 142.501 94.6943 140.798 92.5923 138.82Z" fill="white"/>
<path d="M107.636 146.871C110.343 157.96 115.153 168.349 121.68 177.508C123.901 177.243 126.114 176.861 128.311 176.36C136.627 185.336 147.107 192.714 158.56 197.684C163.536 195.057 168.247 191.993 172.641 188.545C161.13 185.153 150.794 179.11 142.315 171.147C140.259 172.195 138.052 173.112 135.788 173.913C135.769 173.917 135.75 173.921 135.731 173.925C135.7 173.931 135.669 173.937 135.637 173.942C135.585 173.951 135.532 173.958 135.478 173.965C127.726 166.926 121.212 158.264 116.5 148.185C116.421 148.017 116.343 147.848 116.265 147.679C115.846 147.695 115.424 147.703 115 147.703C112.468 147.703 110.003 147.415 107.636 146.871Z" fill="white"/>
<path d="M124.711 146.237C132.582 154.445 141.911 161.007 152.107 165.659C153.897 164.319 155.623 162.882 157.275 161.349C168.968 164.966 181.737 166.115 194.144 164.691C197.112 159.973 199.67 154.971 201.768 149.734C190.1 152.555 178.124 152.49 166.797 149.833C165.54 151.768 164.087 153.666 162.527 155.491C162.452 155.56 162.371 155.627 162.284 155.692C152.052 153.471 142.08 149.227 132.959 142.855C132.831 142.765 132.703 142.675 132.575 142.584C130.152 144.131 127.512 145.367 124.711 146.237Z" fill="white"/>
<path d="M139.136 137.067C150.045 140.231 161.391 141.245 172.534 140.178C173.415 138.122 174.191 136.014 174.855 133.861C186.759 131.153 198.363 125.785 208.378 118.377C208.417 117.257 208.438 116.131 208.438 115C208.438 110.464 208.114 106.004 207.49 101.641C198.813 109.873 188.443 115.776 177.343 119.127C177.222 121.43 176.913 123.801 176.475 126.161C176.464 126.194 176.453 126.226 176.441 126.259L176.43 126.29L176.414 126.333C176.399 126.374 176.382 126.415 176.364 126.456C166.392 129.65 155.634 130.961 144.55 130.002C144.396 129.989 144.242 129.975 144.088 129.961C142.754 132.55 141.084 134.938 139.136 137.067Z" fill="white"/>
<path d="M146.99 121.823C158 119.136 168.322 114.375 177.435 107.918C177.176 105.697 176.8 103.482 176.304 101.284C185.246 93.0452 192.616 82.6643 197.615 71.3097C194.994 66.3648 191.943 61.6833 188.51 57.3153C185.07 68.6853 179.039 78.8891 171.13 87.2661C172.172 89.3245 173.083 91.5344 173.877 93.7998C173.899 93.8998 173.916 94.0034 173.929 94.1106C166.869 101.844 158.19 108.334 148.098 113.019C147.951 113.087 147.803 113.155 147.656 113.223C147.687 113.811 147.703 114.404 147.703 115C147.703 117.34 147.457 119.623 146.99 121.823Z" fill="white"/>
<path d="M146.101 104.86C154.338 97.0081 160.93 87.6915 165.613 77.5019C164.278 75.7073 162.844 73.9777 161.316 72.322C164.919 60.786 166.118 48.1935 164.809 35.9308C160.119 32.9704 155.148 30.4156 149.944 28.3159C152.607 39.8272 152.474 51.6163 149.826 62.7692C151.757 64.031 153.652 65.489 155.473 67.0537C155.541 67.1296 155.608 67.2108 155.673 67.2971C153.425 77.5242 149.154 87.4845 142.757 96.5877C142.633 96.7639 142.508 96.9395 142.383 97.1145C143.944 99.4985 145.201 102.099 146.101 104.86Z" fill="white"/>
</svg>
