<svg xmlns="http://www.w3.org/2000/svg" data-name="Layer 2" viewBox="0 0 36.7 33.83"><path d="m15.97 10.85-8.63 5.7a.43.43 0 0 0 0 .71l8.71 5.75c.44.29.71.79.71 1.32v9.03c0 .36-.41.58-.71.37L.64 22.98c-.4-.28-.64-.73-.64-1.22v-9.7c0-.49.24-.94.64-1.22L16.05.08c.3-.21.71 0 .71.37v8.94c0 .59-.3 1.14-.79 1.47Zm20.73 1.21v9.7c0 .49-.24.94-.64 1.22L20.64 33.74c-.3.21-.71 0-.71-.37v-9.03c0-.53.27-1.03.71-1.32l8.71-5.75a.43.43 0 0 0 0-.71l-8.63-5.7c-.49-.33-.79-.88-.79-1.47V.45c0-.36.41-.58.71-.37l15.42 10.76c.4.28.64.73.64 1.22" data-name="Capa 1" style="fill:#faf0f0"/></svg>