<?xml version="1.0" encoding="UTF-8"?>
<svg id="Layer_2" data-name="Layer 2" xmlns="http://www.w3.org/2000/svg" viewBox="0 0 815.63 814.48">
  <defs>
    <style>
      .cls-1 {
        fill: #fff;
      }

      .cls-2 {
        fill: #4ba8db;
      }

      .cls-3 {
        fill: #141735;
      }
    </style>
  </defs>
  <g id="Capa_1" data-name="Capa 1">
    <g>
      <path class="cls-3" d="M439.98,0c17.57,6.59,38.46,5.87,57.14,10.07,327.61,73.62,430.79,490.91,175.07,708.96C438.08,918.65,63.14,788.11,9.42,485.59c-4.17-23.46-3.47-47.26-9.35-70.09.19-4.03-.25-8.2,0-12.22C12.95,192.74,161.73,17.85,378.88,0h61.1ZM220.03,631.4v-327.92c0-27.12,46.84-54.52,72.23-39.63l164.93,144.61c31.3,60.04-62.27,108.14-96.48,51.69-22.25-36.73,0-56.91,26-79.84l-54.68-54.34c-119.49,81.97-41.26,254.32,97.41,235.85,90.34-12.04,147.89-137.19,84.03-205.55-29.5-31.58-136.5-131.4-169.94-151.85-74.88-45.81-174.51-10.61-195.7,75.76-12.07,49.2-10.1,220.49-5.34,276.02,3.82,44.6,29.9,78.47,77.53,75.22ZM590.69,631.41c36.36,2.34,67.86-20.96,76.41-55.99-5.33-89.83,10.71-195.77.54-283.73-9.83-84.99-111.57-131.17-185.63-92.83-9.18,4.75-55.22,39.75-53.94,47.02l51.14,47.13c5.2.94,28.34-24.99,39.29-29.13,38.37-14.53,76.18,11.02,76.42,51.65l-4.24,315.88Z"/>
      <path class="cls-1" d="M220.03,631.4c-47.63,3.25-73.71-30.62-77.53-75.22-4.76-55.53-6.73-226.82,5.34-276.02,21.19-86.37,120.82-121.57,195.7-75.76,33.44,20.46,140.44,120.27,169.94,151.85,63.86,68.36,6.31,193.51-84.03,205.55-138.67,18.47-216.9-153.88-97.41-235.85l54.68,54.34c-26,22.93-48.26,43.11-26,79.84,34.21,56.45,127.77,8.36,96.48-51.69l-164.93-144.61c-25.38-14.89-72.23,12.51-72.23,39.63v327.92Z"/>
      <path class="cls-2" d="M590.69,631.41l4.24-315.88c-.24-40.63-38.05-66.18-76.42-51.65-10.95,4.15-34.09,30.07-39.29,29.13l-51.14-47.13c-1.28-7.27,44.76-42.27,53.94-47.02,74.06-38.34,175.8,7.84,185.63,92.83,10.17,87.96-5.87,193.9-.54,283.73-8.55,35.03-40.05,58.32-76.41,55.99Z"/>
    </g>
  </g>
</svg>