<?xml version="1.0" encoding="UTF-8"?>
<svg id="Layer_2" data-name="Layer 2" xmlns="http://www.w3.org/2000/svg" viewBox="0 0 91.93 56.01">
  <defs>
    <style>
      .cls-1 {
        fill: #fff;
      }
    </style>
  </defs>
  <g id="Layer_1-2" data-name="Layer 1">
    <path class="cls-1" d="M91.93,46.01c0,3.11-.31,6.15-.9,9.08-.16.82-1.12,1.19-1.79.7l-18.57-13.61-3.44,2.52,2.69,8.79-6.06-6.32-5.08-5.3-12.74-13.3-12.77,13.33-2.43,2.53-9.61,10.03,6.19-12.74-3.69-2.92L2.67,55.51c-.67.53-1.66.16-1.82-.67-.56-2.86-.85-5.81-.85-8.83C0,20.82,20.23.35,45.32,0c25.5-.35,46.61,20.48,46.61,46h0Z"/>
  </g>
</svg>