<?xml version="1.0" encoding="UTF-8"?>
<svg id="Layer_2" data-name="Layer 2" xmlns="http://www.w3.org/2000/svg" viewBox="0 0 69.57 41.62">
  <defs>
    <style>
      .cls-1 {
        fill: #f2f2f2;
      }
    </style>
  </defs>
  <g id="Layer_2-2" data-name="Layer 2">
    <g id="Layer_1-2" data-name="Layer 1-2">
      <path class="cls-1" d="M27.8,40.42c-2.18.78-4.54,1.2-6.99,1.2C9.32,41.62,0,32.31,0,20.81S9.32,0,20.81,0c2.45,0,4.8.42,6.99,1.2-8.06,2.87-13.83,10.57-13.83,19.61s5.77,16.74,13.83,19.61ZM48.76,0c-2.45,0-4.8.42-6.99,1.2,8.06,2.87,13.83,10.57,13.83,19.61s-5.77,16.74-13.83,19.61c2.18.78,4.54,1.2,6.99,1.2,11.5,0,20.81-9.32,20.81-20.81S60.25,0,48.76,0Z"/>
    </g>
  </g>
</svg>