<svg width="74" height="70" viewBox="0 0 74 70" fill="none" xmlns="http://www.w3.org/2000/svg">
<path opacity="0.8" d="M9.04565 47.2524V67.1175C9.04565 68.3404 10.0806 68.848 10.4026 68.9633C10.7246 69.1017 11.8055 69.4017 12.7714 68.5019L27.7994 54.06C29.0792 52.8303 30.3143 51.5376 31.2425 50.0251C31.6794 49.3141 31.8605 48.9136 31.8605 48.9136C32.7805 47.0447 32.7805 45.2451 31.8832 43.4454C30.5498 40.7691 27.1457 38.0465 22.0168 35.4624L13.2544 40.3538C10.6556 41.8304 9.04565 44.4376 9.04565 47.2524Z" fill="white"/>
<path d="M0.405029 3.06895V23.9032C0.405029 26.5104 2.15297 28.8175 4.63687 29.5559C13.1004 32.0015 27.8425 37.262 31.4074 44.9912C31.867 46.0063 32.1431 46.9985 32.2357 48.0367C34.6045 43.7222 35.6853 38.7616 35.1794 33.7319C34.4892 26.6026 30.7172 20.1193 24.8298 15.9894L3.83189 1.29238C3.46386 1.01551 3.0269 0.877075 2.58993 0.877075C2.22191 0.877075 1.89993 0.946294 1.55497 1.13087C0.864975 1.5231 0.405029 2.23835 0.405029 3.06895Z" fill="white"/>
<path opacity="0.8" d="M64.9402 47.2524V67.1175C64.9402 68.3404 63.9056 68.848 63.5833 68.9633C63.2617 69.1017 62.18 69.4017 61.2145 68.5019L45.8367 53.7241C44.79 52.718 43.7903 51.654 43.0018 50.4347C42.3774 49.4697 42.1256 48.9136 42.1256 48.9136C41.2056 47.0447 41.2056 45.2451 42.1021 43.4454C43.4363 40.7691 46.8404 38.0465 51.9685 35.4624L60.7313 40.3538C63.3535 41.8304 64.9402 44.4376 64.9402 47.2524Z" fill="white"/>
<path d="M73.595 3.06748V23.9017C73.595 26.5089 71.8467 28.816 69.3626 29.5544C60.8994 32 46.1575 37.2605 42.5926 44.9897C42.1321 46.0049 41.856 46.997 41.7643 48.0353C39.3955 43.7208 38.3147 38.7602 38.8206 33.7305C39.51 26.6011 43.282 20.1179 49.1702 15.988L70.1682 1.29091C70.536 1.01404 70.9729 0.87561 71.4098 0.87561C71.7777 0.87561 72.1001 0.944829 72.4444 1.12941C73.1346 1.52163 73.595 2.23688 73.595 3.06748Z" fill="white"/>
</svg>