<svg xmlns="http://www.w3.org/2000/svg" width="38" height="36" fill="none"><path fill="#131223" d="m6.985 22.147.187.42 5.457 1.963 11.854-.275 5.829-1.247.275-.594.184-.267.933-2.944-.21-1.684-1.976-2.04-12.031-.097-6.445-1.264-2.704.147-.956.55-.113.664L6.2 17.875v2.203"/><path fill="#03F5AE" d="M13.023 33.624s.543.69 1.197.895 1.524.012 2.612.786 2.022.695 2.022.695.932.084 2.02-.69c1.09-.774 1.96-.58 2.613-.786s1.197-.9 1.197-.9-1.864-1.282-5.832-1.282-5.83 1.282-5.83 1.282M31.46 14.866s.665 1.451.496 2.503c0 0-.58-2.016-1.276-2.495l.367-.925-.339-.242c-4.752-2.88-11.854-2.78-11.854-2.78 6.88-.604 11.74 1.614 11.74 1.614l.404-1.664-1.246-.605s.055-1.187-.151-1.623c-.122-.257-.475-.51-.744-.674-2.588-1.135-7.04-1.378-7.04-1.378 3.964-.367 5.936-.122 6.726.042-.138-.835-.492-2.068-1.39-2.257-.587-.124-.972-.09-1.347.035-.163-.188-.676-.738-1.27-.924-.72-.228-1.684-.014-2.888-.87-1.203-.855-2.232-.762-2.232-.762s-1.03-.093-2.232.763c-1.2.855-2.165.641-2.887.869-.721.227-1.323.988-1.323.988s1.45.996 4.5 1.318c-1.126-.061-2.725.072-3.68-.267-1.637-.58-1.903-1.16-3.282-.87-1.008.216-1.248 1.002-1.348 1.806 2.448-.44 3.847.129 3.847.129-3.515.375-4.706 1.325-4.777 1.385q-.14.126-.228.292c-.115.242-.026.33-.006.806 4.885-1.484 8.784-.453 8.784-.453-3.56.083-6.888.701-10.074 2.248l.469 1.64c2.928-1.058 4.574-.307 4.574-.307-1.75.42-3.436 1.07-5.016 1.931l.3.765c-.679.521-1.237 2.467-1.237 2.467-.17-1.051.496-2.503.496-2.503-1.379.085-1.9 1.391-1.9 2.48s.702 2.322 1.55 3.12c.846.799 1.038 1.68 1.038 1.68.642-1.756-.605-1.9-.266-3.98.34-2.08 2.843-3.192 2.843-3.192a11 11 0 0 0-1.56-.223c1.08-.162 1.831-1.89 8.504 2.444 6.672 4.333 10.804-.05 13.017-1.377.659.538 1.348 1.327 1.512 2.35.34 2.08-.907 2.224-.265 3.979 0 0 .193-.884 1.04-1.682.846-.797 1.548-2.031 1.548-3.12s-.518-2.396-1.897-2.481"/><path fill="#03F5AE" d="M35.064 11.907c-1.432-.802-3.784-.957-3.784-.957l-.379 1.698c2.364.976 3.676 3.632 3.676 3.632s.105-.271.612-.87c.552-.647 2.326-1.207 2.326-1.207s-1.21-1.603-2.45-2.296M31.275 32.65c.042-.515.119-.69.119-.69a11.6 11.6 0 0 1-2.882-.784c-.792.164-2.729.123-6.696-.244 0 0 4.557.13 7.145-1.008.27-.164.622-.417.744-.674.206-.436.048-1.995.048-1.995l1.246-.606-.405-1.665s-4.86 2.219-11.736 1.613c0 0 7.103.101 11.854-2.78l.338-.241-.46-1.162c-4.933 2.016-18.532 2.016-23.466 0l-.383.97a20.5 20.5 0 0 0 5.015 1.931s-1.504.278-4.557-.487l-.486 1.82c3.186 1.547 6.514 2.166 10.074 2.249 0 0-3.951.956-8.835-.528-.02.476-.058.638.055.88q.088.167.229.293c.072.059 1.261 1.008 4.776 1.385 0 0-1.333.747-3.778.306.1.804.314 1.696 1.323 1.909 1.38.288 1.645-.288 3.278-.872 1.633-.583 5.02-.59 5.02-.59s3.387.012 5.02.593c1.631.58 1.898 1.16 3.277.87q.19-.04.36-.131c.33.27 1.244.973 2.077 1.208.9.254 2.207.072 2.207.072s-.567-1.084-.521-1.643M5.776 20.73c-2.361.982-5.167.03-5.167.03s.117.264.183 1.048c.072.85-.792 2.5-.792 2.5s1.986.276 3.356-.11c1.584-.446 3.353-2 3.353-2zM12.824 4.33l.85-.85C12.66 2.035 12.884 0 12.884 0s-.162.12-.68.28C11.642.453 10.4.12 10.4.12s.112 1.38.576 2.247c.536 1 1.85 1.961 1.85 1.961"/><path fill="#fff" fill-rule="evenodd" d="M11.486 18.384s-.63 1.512.604 2.12c1.235.607 4.34.299 4.34.299s-2.692-1.983-4.944-2.42M26.861 19.939s.242 1.258-.797 1.524c-1.04.267-3.363-.46-3.363-.46s2.37-1.088 4.16-1.064" clip-rule="evenodd"/></svg>