<svg width="200" height="200" viewBox="0 0 200 200" fill="none" xmlns="http://www.w3.org/2000/svg">
<mask id="mask0_20_296" style="mask-type:luminance" maskUnits="userSpaceOnUse" x="54" y="0" width="146" height="146">
<path d="M54.1094 0H199.998V145.891H54.1094V0Z" fill="white"/>
</mask>
<g mask="url(#mask0_20_296)">
<path d="M128.83 39.0318C128.941 40.0485 129.095 41.0599 129.292 42.0645C129.488 43.0692 129.727 44.0632 130.007 45.0477C130.288 46.0323 130.611 47.0035 130.973 47.96C131.337 48.9165 131.74 49.857 132.181 50.78C132.624 51.7031 133.106 52.6061 133.623 53.4877C134.142 54.3706 134.698 55.2294 135.29 56.0642C135.881 56.9003 136.508 57.7083 137.167 58.4909C137.827 59.2735 138.519 60.0266 139.243 60.7504C139.967 61.4741 140.72 62.1657 141.503 62.8266C142.284 63.4861 143.093 64.1122 143.928 64.7035C144.764 65.2947 145.623 65.8513 146.504 66.369C147.387 66.888 148.29 67.3696 149.213 67.8124C150.136 68.2539 151.076 68.6565 152.033 69.0204C152.99 69.3829 153.961 69.7053 154.946 69.9863C155.929 70.2672 156.924 70.5053 157.929 70.702C158.933 70.8986 159.943 71.0525 160.961 71.1635C170.825 72.2444 183.556 72.9427 199.993 72.9427C183.556 72.9427 170.825 73.641 160.961 74.7219C159.943 74.833 158.933 74.9868 157.929 75.1835C156.924 75.3801 155.929 75.6196 154.946 75.9005C153.961 76.1801 152.99 76.5025 152.033 76.865C151.076 77.2289 150.136 77.6316 149.213 78.0744C148.29 78.5158 147.387 78.9974 146.504 79.5165C145.623 80.0355 144.764 80.5907 143.928 81.182C143.093 81.7733 142.284 82.3993 141.503 83.0589C140.72 83.7197 139.967 84.4113 139.243 85.1351C138.519 85.8588 137.827 86.612 137.167 87.3945C136.508 88.1771 135.881 88.9851 135.29 89.8212C134.698 90.656 134.142 91.5148 133.623 92.3978C133.104 93.2794 132.624 94.1823 132.181 95.1054C131.74 96.0285 131.336 96.9689 130.973 97.9254C130.611 98.8819 130.288 99.8531 130.007 100.838C129.727 101.822 129.488 102.816 129.292 103.821C129.095 104.826 128.941 105.837 128.83 106.854C127.749 116.717 127.051 129.448 127.051 145.885C127.051 129.45 126.351 116.717 125.272 106.854C125.161 105.837 125.007 104.826 124.81 103.821C124.614 102.816 124.374 101.822 124.093 100.838C123.812 99.8531 123.491 98.8819 123.127 97.9254C122.765 96.9689 122.362 96.0285 121.919 95.1054C121.477 94.1823 120.996 93.2794 120.477 92.3978C119.958 91.5148 119.403 90.656 118.812 89.8212C118.221 88.9851 117.595 88.1771 116.935 87.3945C116.274 86.612 115.583 85.8588 114.859 85.1351C114.135 84.4113 113.382 83.7197 112.599 83.0589C111.817 82.3993 111.007 81.7733 110.173 81.182C109.338 80.5907 108.479 80.0355 107.596 79.5165C106.715 78.9974 105.812 78.5158 104.889 78.0744C103.966 77.6316 103.025 77.2289 102.069 76.865C101.111 76.5025 100.141 76.1814 99.1565 75.9005C98.1719 75.6196 97.1779 75.3801 96.1733 75.1835C95.1686 74.9868 94.1573 74.833 93.1393 74.7219C83.2761 73.641 70.5449 72.9427 54.1094 72.9427C70.5449 72.9427 83.2761 72.2444 93.1393 71.1635C94.1573 71.0525 95.1686 70.8986 96.1733 70.702C97.1779 70.5053 98.1719 70.2672 99.1565 69.9863C100.141 69.7053 101.111 69.3829 102.069 69.0204C103.025 68.6565 103.966 68.2539 104.889 67.8111C105.812 67.3696 106.715 66.888 107.596 66.369C108.479 65.8513 109.338 65.2947 110.173 64.7035C111.007 64.1122 111.817 63.4861 112.599 62.8266C113.382 62.1657 114.135 61.4741 114.859 60.7504C115.583 60.0266 116.274 59.2735 116.934 58.4909C117.595 57.7083 118.221 56.9003 118.812 56.0642C119.403 55.2294 119.958 54.3706 120.477 53.4877C120.996 52.6061 121.477 51.7031 121.919 50.78C122.362 49.857 122.765 48.9165 123.127 47.96C123.491 47.0022 123.812 46.0323 124.093 45.0477C124.374 44.0632 124.614 43.0692 124.81 42.0645C125.007 41.0599 125.161 40.0485 125.272 39.0318C126.351 29.1685 127.051 16.4371 127.051 0C127.051 16.4357 127.749 29.1685 128.83 39.0318Z" fill="white"/>
<path d="M128.83 39.0318C128.941 40.0485 129.095 41.0599 129.292 42.0645C129.488 43.0692 129.727 44.0632 130.007 45.0477C130.288 46.0323 130.611 47.0035 130.973 47.96C131.337 48.9165 131.74 49.857 132.181 50.78C132.624 51.7031 133.106 52.6061 133.623 53.4877C134.142 54.3706 134.698 55.2294 135.29 56.0642C135.881 56.9003 136.508 57.7083 137.167 58.4909C137.827 59.2735 138.519 60.0266 139.243 60.7504C139.967 61.4741 140.72 62.1657 141.503 62.8266C142.284 63.4861 143.093 64.1122 143.928 64.7035C144.764 65.2947 145.623 65.8513 146.504 66.369C147.387 66.888 148.29 67.3696 149.213 67.8124C150.136 68.2539 151.076 68.6565 152.033 69.0204C152.99 69.3829 153.961 69.7053 154.946 69.9863C155.929 70.2672 156.924 70.5053 157.929 70.702C158.933 70.8986 159.943 71.0525 160.961 71.1635C170.825 72.2444 183.556 72.9427 199.993 72.9427C183.556 72.9427 170.825 73.641 160.961 74.7219C159.943 74.833 158.933 74.9868 157.929 75.1835C156.924 75.3801 155.929 75.6196 154.946 75.9005C153.961 76.1801 152.99 76.5025 152.033 76.865C151.076 77.2289 150.136 77.6316 149.213 78.0744C148.29 78.5158 147.387 78.9974 146.504 79.5165C145.623 80.0355 144.764 80.5907 143.928 81.182C143.093 81.7733 142.284 82.3993 141.503 83.0589C140.72 83.7197 139.967 84.4113 139.243 85.1351C138.519 85.8588 137.827 86.612 137.167 87.3945C136.508 88.1771 135.881 88.9851 135.29 89.8212C134.698 90.656 134.142 91.5148 133.623 92.3978C133.104 93.2794 132.624 94.1823 132.181 95.1054C131.74 96.0285 131.336 96.9689 130.973 97.9254C130.611 98.8819 130.288 99.8531 130.007 100.838C129.727 101.822 129.488 102.816 129.292 103.821C129.095 104.826 128.941 105.837 128.83 106.854C127.749 116.717 127.051 129.448 127.051 145.885C127.051 129.45 126.351 116.717 125.272 106.854C125.161 105.837 125.007 104.826 124.81 103.821C124.614 102.816 124.374 101.822 124.093 100.838C123.812 99.8531 123.491 98.8819 123.127 97.9254C122.765 96.9689 122.362 96.0285 121.919 95.1054C121.477 94.1823 120.996 93.2794 120.477 92.3978C119.958 91.5148 119.403 90.656 118.812 89.8212C118.221 88.9851 117.595 88.1771 116.935 87.3945C116.274 86.612 115.583 85.8588 114.859 85.1351C114.135 84.4113 113.382 83.7197 112.599 83.0589C111.817 82.3993 111.007 81.7733 110.173 81.182C109.338 80.5907 108.479 80.0355 107.596 79.5165C106.715 78.9974 105.812 78.5158 104.889 78.0744C103.966 77.6316 103.025 77.2289 102.069 76.865C101.111 76.5025 100.141 76.1814 99.1565 75.9005C98.1719 75.6196 97.1779 75.3801 96.1733 75.1835C95.1686 74.9868 94.1573 74.833 93.1393 74.7219C83.2761 73.641 70.5449 72.9427 54.1094 72.9427C70.5449 72.9427 83.2761 72.2444 93.1393 71.1635C94.1573 71.0525 95.1686 70.8986 96.1733 70.702C97.1779 70.5053 98.1719 70.2672 99.1565 69.9863C100.141 69.7053 101.111 69.3829 102.069 69.0204C103.025 68.6565 103.966 68.2539 104.889 67.8111C105.812 67.3696 106.715 66.888 107.596 66.369C108.479 65.8513 109.338 65.2947 110.173 64.7035C111.007 64.1122 111.817 63.4861 112.599 62.8266C113.382 62.1657 114.135 61.4741 114.859 60.7504C115.583 60.0266 116.274 59.2735 116.934 58.4909C117.595 57.7083 118.221 56.9003 118.812 56.0642C119.403 55.2294 119.958 54.3706 120.477 53.4877C120.996 52.6061 121.477 51.7031 121.919 50.78C122.362 49.857 122.765 48.9165 123.127 47.96C123.491 47.0022 123.812 46.0323 124.093 45.0477C124.374 44.0632 124.614 43.0692 124.81 42.0645C125.007 41.0599 125.161 40.0485 125.272 39.0318C126.351 29.1685 127.051 16.4371 127.051 0C127.051 16.4357 127.749 29.1685 128.83 39.0318Z" fill="white"/>
</g>
<mask id="mask1_20_296" style="mask-type:luminance" maskUnits="userSpaceOnUse" x="0" y="102" width="98" height="98">
<path d="M0 102.737H97.3456V200H0V102.737Z" fill="white"/>
</mask>
<g mask="url(#mask1_20_296)">
<path d="M49.8159 128.759C49.8895 129.437 49.9925 130.111 50.1236 130.781C50.2547 131.452 50.4139 132.114 50.5998 132.771C50.7871 133.426 51.0025 134.074 51.2446 134.712C51.4868 135.35 51.7543 135.976 52.05 136.591C52.3443 137.207 52.6654 137.809 53.0105 138.397C53.357 138.986 53.7275 139.559 54.1222 140.115C54.5155 140.672 54.9329 141.211 55.373 141.733C55.8131 142.254 56.2747 142.756 56.7576 143.239C57.2392 143.722 57.7422 144.183 58.2639 144.624C58.7857 145.064 59.3248 145.48 59.8813 145.874C60.4378 146.269 61.0104 146.64 61.599 146.985C62.1876 147.331 62.7883 147.652 63.4036 147.947C64.019 148.242 64.6464 148.51 65.2845 148.752C65.9227 148.994 66.5701 149.209 67.2256 149.397C67.8825 149.584 68.5447 149.742 69.2149 149.873C69.8838 150.004 70.558 150.107 71.2363 150.182C77.8128 150.902 86.3009 151.367 97.2586 151.367C86.3009 151.367 77.8128 151.833 71.2363 152.554C70.558 152.628 69.8838 152.731 69.2149 152.862C68.5447 152.993 67.8825 153.152 67.2256 153.339C66.5701 153.527 65.9227 153.741 65.2845 153.983C64.6464 154.225 64.019 154.494 63.4036 154.788C62.7883 155.084 62.1876 155.403 61.599 155.75C61.0104 156.096 60.4378 156.466 59.8813 156.86C59.3248 157.255 58.7857 157.672 58.2639 158.112C57.7422 158.553 57.2392 159.014 56.7576 159.496C56.2747 159.979 55.8131 160.48 55.373 161.002C54.9329 161.524 54.5155 162.063 54.1222 162.619C53.7275 163.177 53.357 163.75 53.0105 164.337C52.6654 164.926 52.3443 165.528 52.05 166.143C51.7543 166.759 51.4868 167.385 51.2446 168.023C51.0025 168.661 50.7871 169.308 50.5998 169.965C50.4125 170.621 50.2547 171.284 50.1236 171.953C49.9925 172.623 49.8895 173.298 49.8159 173.976C49.0948 180.551 48.6293 189.04 48.6293 199.997C48.6293 189.04 48.1624 180.551 47.4427 173.976C47.3691 173.298 47.2661 172.623 47.135 171.953C47.0039 171.284 46.8447 170.621 46.6574 169.965C46.4701 169.308 46.2561 168.661 46.014 168.023C45.7718 167.385 45.5029 166.759 45.2086 166.143C44.913 165.528 44.5932 164.926 44.2468 164.337C43.9003 163.75 43.5311 163.177 43.1364 162.619C42.7418 162.063 42.3244 161.524 41.8843 161.002C41.4441 160.48 40.9826 159.979 40.501 159.496C40.0181 159.014 39.5164 158.553 38.9947 158.112C38.4729 157.672 37.9338 157.255 37.376 156.86C36.8195 156.466 36.2469 156.096 35.6583 155.75C35.071 155.403 34.469 155.084 33.8536 154.788C33.2382 154.494 32.6108 154.225 31.9727 153.983C31.3346 153.741 30.6885 153.527 30.0316 153.339C29.3761 153.152 28.7126 152.993 28.0423 152.862C27.3735 152.731 26.6992 152.628 26.021 152.554C19.4445 151.833 10.9563 151.367 0 151.367C10.9563 151.367 19.4445 150.902 26.021 150.182C26.6992 150.107 27.3735 150.004 28.0423 149.873C28.7126 149.742 29.3761 149.583 30.0316 149.397C30.6885 149.209 31.3346 148.994 31.9727 148.752C32.6108 148.51 33.2382 148.242 33.8536 147.947C34.469 147.652 35.071 147.331 35.6583 146.985C36.2469 146.64 36.8195 146.269 37.376 145.874C37.9338 145.48 38.4729 145.064 38.9947 144.624C39.5164 144.183 40.0181 143.722 40.501 143.239C40.9826 142.756 41.4441 142.254 41.8843 141.733C42.3244 141.211 42.7418 140.672 43.1364 140.115C43.5311 139.559 43.9003 138.986 44.2468 138.397C44.5932 137.809 44.913 137.207 45.2086 136.591C45.5029 135.976 45.7718 135.35 46.014 134.712C46.2561 134.074 46.4701 133.426 46.6574 132.771C46.8447 132.114 47.0039 131.452 47.135 130.781C47.2661 130.111 47.3691 129.437 47.4427 128.759C48.1624 122.183 48.6293 113.695 48.6293 102.737C48.6293 113.695 49.0948 122.183 49.8159 128.759Z" fill="white"/>
</g>
</svg>
