<svg xmlns="http://www.w3.org/2000/svg" data-name="Layer 2" viewBox="0 0 479.13 340.74"><g data-name="Layer 2"><path d="m240.29 0 18.02 45.94 4.98-9.99 19.36 86.29.15 3.39-43 214.53c-.89-.15-.86-1.01-1.07-1.67-2.47-7.92-4.01-18.37-5.77-26.71-13.2-62.6-25.99-125.45-38.15-188.19l18.51-87.14c.84-.18 1.02.22 1.43.82.37.54 3.12 9.41 4.06 8.67L238.8.21zm238.84 180.32c-1.5 1.86-3.25 3.61-4.99 5.25-50.3 47.29-102.76 92.39-153.15 139.6-12.63 5-27.19 11.55-40.3 15.15-.8.22-1.56.46-2.4.34-.2-.81.16-1.16.49-1.76 2.58-4.83 10.55-13.76 14.3-18.67 30.28-39.58 60.81-79.04 91.65-118.17l91.29-21.62 3.12-.12ZM201.35 340.66c-.84.11-1.61-.11-2.41-.34-12.53-3.55-25.47-10.53-38.05-14.4C107 280.28 54.99 232.24 1.48 186.08L0 183.82l91.95 21.21 3.23 1.77 106.17 133.87Zm-79.94-201.81c.87-.23 1 .36 1.5.74 1.51 1.16 3.98 3.57 5.5 4.99 1.88 1.75 11.42 10.6 12.08 11.9 2.01 3.92 1.65 13.64 2.53 18.45 17.46 44.96 38.59 88.5 57.42 132.91 3.64 8.58 8.36 18.52 11.29 27.18.63 1.87 1.39 3.59 1.11 5.63l-106-138.03-26.39-90.75 41.22 42.95c1.68.06-.19-9.61-.24-10.73-.08-1.74.04-3.5 0-5.24Zm275.28-26.97-25.78 89.86c-34.85 44.4-67.31 91.07-102.92 134.88-.5.61-3.49 4.77-4.19 4.05 2.7-8.66 6.37-16.97 9.9-25.31 19.05-45.07 39.56-89.55 58.78-134.54 2.49-7.53 2.22-15.59 3.63-23.34l19.86-19.11c.06 4.57-1.02 9.18-1.27 13.71-.03.57-.4 3.25.76 2.76l41.22-42.95Zm-62.45-44.96-12.21 106.93-70.48 164.83-1.24.98 44.33-208.18c12.7-19.95 24.27-44.73 38.31-63.61.41-.56 0-1.24 1.29-.94ZM226.83 339.66c-.77.93-1.95-2.38-2.09-2.66-25.09-53.01-45.2-109.71-69.63-163.16L142.9 66.92c1.2-.17 1.64 1.22 2.2 2.04 11.29 16.51 24.15 37.93 33.98 55.45 1.59 2.83 3.19 5.28 3.93 8.56z" data-name="81OQ4x.tif" style="fill:#dbd0b4"/></g></svg>