<svg xmlns="http://www.w3.org/2000/svg" width="567" height="544" fill="none"><path fill="#F5F6FC" d="M237.34 212.88c-13.56 2.16-22.764 14.666-20.555 27.931 2.211 13.266 14.997 22.267 28.561 20.104zm275.751 102.239c0 13.439 11.141 24.335 24.882 24.335s24.881-10.896 24.881-24.335zM45.22 268.21c-8.356-10.668-23.974-12.694-34.883-4.52-10.91 8.17-12.98 23.447-4.624 34.115zm226.865 79.737 10.581 22.027c7.486-3.441 12.736-10.297 14.005-18.294 1.269-7.994-1.608-16.083-7.676-21.583zm-10.323-104.532c2.989-13.12-5.462-26.124-18.876-29.044-13.412-2.923-26.708 5.342-29.697 18.458zm255.195 28.889c0 122.461-103.976 222.668-233.424 222.668v48.671c155.87 0 283.187-120.968 283.187-271.339zM283.533 494.972c-129.448 0-233.423-100.207-233.423-222.668H.346c0 150.371 127.318 271.339 283.187 271.339zM50.11 272.304c0-122.461 103.975-222.668 233.423-222.668V.966C127.664.966.346 121.933.346 272.304zM283.533 49.636c129.448 0 233.424 100.207 233.424 222.668h49.763C566.72 121.933 439.403.966 283.533.966zm-38.187 211.279c33.858-5.396 103.549-22.072 166.702-19.942 31.417 1.058 57.157 6.804 74.438 18.138 15.51 10.173 26.605 26.331 26.605 56.008h49.763c0-44.527-18.235-76.483-48.653-96.432-28.655-18.792-65.446-25.177-100.439-26.358-69.663-2.348-148.283 16.065-176.422 20.551zM5.713 297.805c54.008 68.963 117.164 90.913 170.657 92.976 52.237 2.016 93.478-14.918 106.296-20.807l-21.162-44.05c-9.452 4.341-42.287 17.804-83.171 16.226-39.634-1.531-88.653-17.169-133.113-73.94zm283.282 32.292c-13.732-12.444-24.316-24.934-27.342-36.436L213.46 305.79c6.936 26.367 27.553 47.18 41.714 60.007zm-27.342-36.436c-3.879-14.747-4.081-31.854.109-50.246l-48.573-10.586c-5.667 24.877-5.813 49.836.271 72.961z"/></svg>