<svg width="567" height="544" viewBox="0 0 567 544" fill="none" xmlns="http://www.w3.org/2000/svg">
<path d="M237.34 212.88C223.78 215.04 214.576 227.546 216.785 240.811C218.996 254.077 231.782 263.078 245.346 260.915L237.34 212.88ZM513.091 315.119C513.091 328.558 524.232 339.454 537.973 339.454C551.714 339.454 562.854 328.558 562.854 315.119H513.091ZM45.22 268.21C36.8637 257.542 21.246 255.516 10.3365 263.69C-0.572952 271.86 -2.64281 287.137 5.71315 297.805L45.22 268.21ZM272.085 347.947L282.666 369.974C290.152 366.533 295.402 359.677 296.671 351.68C297.94 343.686 295.063 335.597 288.995 330.097L272.085 347.947ZM261.762 243.415C264.751 230.295 256.3 217.291 242.886 214.371C229.474 211.448 216.178 219.713 213.189 232.829L261.762 243.415ZM516.957 272.304C516.957 394.765 412.981 494.972 283.533 494.972V543.643C439.403 543.643 566.72 422.675 566.72 272.304H516.957ZM283.533 494.972C154.085 494.972 50.1102 394.765 50.1102 272.304H0.346436C0.346436 422.675 127.664 543.643 283.533 543.643V494.972ZM50.1102 272.304C50.1102 149.843 154.085 49.6363 283.533 49.6363V0.965759C127.664 0.965759 0.346436 121.933 0.346436 272.304H50.1102ZM283.533 49.6363C412.981 49.6363 516.957 149.843 516.957 272.304H566.72C566.72 121.933 439.403 0.965759 283.533 0.965759V49.6363ZM245.346 260.915C279.204 255.519 348.895 238.843 412.048 240.973C443.465 242.031 469.205 247.777 486.486 259.111C501.996 269.284 513.091 285.442 513.091 315.119H562.854C562.854 270.592 544.619 238.636 514.201 218.687C485.546 199.895 448.755 193.51 413.762 192.329C344.099 189.981 265.479 208.394 237.34 212.88L245.346 260.915ZM5.71315 297.805C59.7208 366.768 122.877 388.718 176.37 390.781C228.607 392.797 269.848 375.863 282.666 369.974L261.504 325.924C252.052 330.265 219.217 343.728 178.333 342.15C138.699 340.619 89.6796 324.981 45.22 268.21L5.71315 297.805ZM288.995 330.097C275.263 317.653 264.679 305.163 261.653 293.661L213.46 305.79C220.396 332.157 241.013 352.97 255.174 365.797L288.995 330.097ZM261.653 293.661C257.774 278.914 257.572 261.807 261.762 243.415L213.189 232.829C207.522 257.706 207.376 282.665 213.46 305.79L261.653 293.661Z" fill="#F5F6FC"/>
</svg>
