<svg xmlns="http://www.w3.org/2000/svg" width="31" height="28" fill="none"><path fill="#fff" fill-rule="evenodd" d="M24.273 14.594q0-.024.002-.048l.007-.128c.007-.138.015-.277.015-.418q0-.102-.004-.203l-.002-.074v-.025l-.002-.05a.26.26 0 0 0-.148-.198l-.016-.005-.012-.002a11 11 0 0 1-.92-.259l-.134-.045c-2.892-1.011-5.663-.544-6.945-.22l-.21.056h-.01l-.012.002a.52.52 0 0 1-.51-.42V9.955a.52.52 0 0 1 .383-.402c.86-.317 3.19-.89 7.118.12q.01.004.023.006.008 0 .014.003.008 0 .014.004.026.009.054.01c.144 0 .26-.118.26-.263q0-.027-.009-.05l-.004-.015a.3.3 0 0 0-.043-.09C21.468 5.852 17.95 3.5 13.885 3.5 8.134 3.5 3.471 8.2 3.471 14s4.662 10.5 10.413 10.5c4.151 0 7.73-2.453 9.402-5.996l.009-.019.054-.113q0-.01.004-.017a.1.1 0 0 0 .005-.03.26.26 0 0 0-.15-.236l-.01-.003-.006-.002-.02-.006-.113-.04c-2.979-1.041-5.83-.514-7.057-.19l-.013.004-.006.001a.522.522 0 0 1-.61-.41V14.86a.52.52 0 0 1 .3-.375l.012-.005.008-.003c.815-.315 3.217-.964 7.366.141a20 20 0 0 0 .973.233.26.26 0 0 0 .238-.193zm5.826-4.627a.523.523 0 0 1 .624.504v2.337a.53.53 0 0 1-.291.426l-.163.047c-.458.13-1.24.315-2.218.41l-.097.009a.26.26 0 0 0-.186.271V14a15 15 0 0 1-.034.956l-.001.014c.004.134.107.24.238.25h.003q.025 0 .05-.002c.88-.049 1.54-.19 1.986-.324l.095-.028a.527.527 0 0 1 .618.43v2.394a.53.53 0 0 1-.305.448l-.015.004-.119.035a13 13 0 0 1-3.125.469h-.017a.26.26 0 0 0-.225.184v.002C24.965 24.182 19.867 28 13.884 28 5.88 28-.543 21.17.036 12.975.524 6.069 6.075.497 12.926.033 19.677-.425 25.481 3.99 27.23 10.135q.005.029.015.054c.04.082.119.138.213.146h.043c1.135-.013 1.965-.18 2.496-.336z" clip-rule="evenodd"/></svg>