<svg xmlns="http://www.w3.org/2000/svg" id="Layer_2" data-name="Layer 2" viewBox="0 0 133.86 166.2"><defs><style>.cls-2{fill:#ddd}</style></defs><g id="Layer_2-2" data-name="Layer 2"><path d="M40.84 5.18C95-16.7 149.37 34.5 129.78 89.25c-8.37 23.41-30.96 41.17-55.98 43.22-.27-2.51-.6-5.16-1-7.96l-2.13-1.43c-2.38-15.51-15.6-26.01-30.7-28.1l-1.13-1.99V7.04l1.99-1.86Z" class="cls-2"/><path d="m11.87 103.63 3.05 1.02c12.92 18.68 34.57 26.96 56.63 26.62-1.52-1.98-.99-5.37 1.26-6.75 1.51 1.98 1.24 5.48 1 7.96-1.41 14.53-11.98 28.09-26.17 32.12-37.31 10.6-63.37-33.48-36.76-60.96.28-.87.62-.86 1 0Z" style="fill:#1e4480"/><path d="M40.84 5.18v88.5c15.72.46 31.08 15.23 31.96 30.83.15 2.6-.01 5.3-.06 7.9-23.26 2.93-48.55-8.85-60.87-28.79l-.49-2.56c5-5.5 12.16-8.47 19.47-9.26V11.81l2-2.66c2.28-1.34 5.55-2.99 7.99-3.98Z" style="fill:#152e51"/><path d="M32.85 9.15v84.53c-7.6.24-16.38 3.75-20.98 9.95h-1C-9.32 71.18-.47 28.76 32.85 9.15" class="cls-2"/></g></svg>