<?xml version="1.0" encoding="UTF-8"?>
<svg id="Layer_2" data-name="Layer 2" xmlns="http://www.w3.org/2000/svg" viewBox="0 0 158.63 124.64">
  <defs>
    <style>
      .cls-1 {
        fill: #b83932;
      }
    </style>
  </defs>
  <g id="Layer_2-2" data-name="Layer 2">
    <g id="MsyykW.tif">
      <g>
        <path class="cls-1" d="M71.77,124.64l-3.51-47.62c.27-2.13-.37-4.87.14-6.88.37-1.45,2.88-3.42,3.48-5,1.29-3.42.06-23.78-.09-29.07-.17-5.88-.93-12.04-1.04-17.92-.11-6.23-1.09-13.29,3.34-18.15h11.57s2.52,4.71,2.52,4.71c.79,19.43-1.02,39.24-1.42,58.79.51,2.97,4.66,5.21,4.49,8.48l-3.52,52.66h-15.97Z"/>
        <path class="cls-1" d="M48.81,124.64l-4.53-35.18c.34-3.31,8.6-9.87,10.02-13.47l-8.42-37.44,9.67-17.19,7.23,103.27h-13.98Z"/>
        <path class="cls-1" d="M96.73,124.64l7.23-103.27,9.27,17.22-8.06,36.42c-.08,1.08.25,1.84.81,2.72,1.32,2.08,9.08,9.77,9.22,11.25l-5,35.66h-13.48Z"/>
        <polygon class="cls-1" points="39.83 124.64 23.86 124.64 21.48 115.48 28.87 102.95 22.38 79.52 29.34 67.77 39.83 124.64"/>
        <path class="cls-1" d="M119.69,124.64l10.74-56.38c1.04-.23.68.45.98.99,1.94,3.37,4.14,6.65,5.7,10.23l-6.89,23.47c.03,2.19,6.86,9.35,7.36,12.08.43,2.35-2.19,6.93-1.92,9.61h-15.97Z"/>
        <path class="cls-1" d="M11.38,124.64H3.15c-.71-.97-3.28-5.33-3.14-6.15.1-.57,5.56-9.8,6.13-9.81l5.24,15.95Z"/>
        <path class="cls-1" d="M156.62,124.64h-8.48l5.24-16.47c1.58,3.85,6.04,7.75,5.12,12.12-.3,1.42-1.78,2.77-1.88,4.35Z"/>
      </g>
    </g>
  </g>
</svg>