<svg xmlns="http://www.w3.org/2000/svg" id="Layer_2" data-name="Layer 2" viewBox="0 0 329.65 258.82"><defs><style>.cls-1{fill:#fff}</style></defs><g id="Layer_2-2" data-name="Layer 2"><g id="ZlLnvw.tif"><path d="M47.71 91.42C97.46 52.8 161.99 32.6 224.89 45.64c26.79 5.55 53.79 18.2 76.2 33.69 6.9 4.77 13.29 10.38 20.12 15.1l-8.44 9.8c.29 2.12 8.76 9.37 7.9 10.61-11.2 8.48-22.28 17.12-34.43 24.27V258.7h-25.98v-92.38L55.17 258.67c-23.78 1.72-41.99-11.74-48.53-34.32-2.86-9.88-3.23-19.85-3.64-30.07h26.48c-.46 14.34.99 38.38 20.2 38.42l145.14-64.89c.12-.87-1.14-.47-1.74-.49-8-.31-15.98.18-23.98-.5-44.38-3.78-86.8-22.87-121.89-49.43H0V91.42zm243.52 12.5c-5.96-3.49-11.37-7.89-17.33-11.4-15.97-9.39-33.63-16.56-51.6-21.07 15.86 18.76 16.21 47.22 0 65.9 23.13-5.59 47.08-16.19 66.1-30.55.64-.49 3.36-2.13 2.84-2.89ZM140.37 73.45c-23.89 6.44-46.94 16.9-66.93 31.45 20.77 13.07 42.88 24.67 66.94 30.46-11.21-15.37-13.42-35.62-5.26-52.94l5.26-8.97Z" class="cls-1"/><path d="M37.72 48.48C91.02 9.11 159.52-8.3 225.3 3.78c37.41 6.87 73.61 23.44 104.34 45.45l-15.18 20.64c-31.88-22.11-68.55-38.33-107.47-42.8-57-6.54-115.43 11.25-159.79 46.88H0V48.48z" class="cls-1"/></g></g></svg>