<svg xmlns="http://www.w3.org/2000/svg" data-name="Layer 2" viewBox="0 0 415.61 277.5"><path d="m138.37 237.04 4.5 40.45H39.71C26.54 263.94 12.53 251.16 0 237.04zm277.24 0L375.9 277.5H273l3.74-40.46zm-281.24-61.43 3 39.96H8.99l13.99-39.96zm257.76 0 14.49 39.96H277.74l3.5-39.96zM240.28 2.31l-20.03 92.84-25.9.02L174.34.31c21.97-.81 44.02 0 65.94 2m-107.9 153.33H30.97l14.47-40.23 83.47-.01zm151.11 0c-.32-.1-.81-.76-.73-1.2l3.55-38.43.74-.76 81.87-.11 15.22 40.49H283.48ZM175.84 95.2h-27.72L99.41 15.53c-.13-1.1.18-.57.71-.78 13.22-5.32 28.09-8.14 42.05-10.91l33.67 91.37Zm62.94 0 32.67-88.37c14.16 3.05 29.72 4.67 43.53 8.95.55.17.89-.34.74.76L266.51 95.2h-27.72Zm-111.4 0H54.45l23.86-63.79c.49-1.65 4.3-1.52 5.36-.63zm159.85 0L331.17 31c1.06-1.21 2.83-.63 4.29-.77l25.21 64.96h-73.43Z" data-name="Layer 2" style="fill:#d1f8fc"/></svg>