<?xml version="1.0" encoding="UTF-8"?>
<svg id="Layer_2" data-name="Layer 2" xmlns="http://www.w3.org/2000/svg" viewBox="0 0 415.61 277.5">
  <defs>
    <style>
      .cls-1 {
        fill: #d1f8fc;
      }
    </style>
  </defs>
  <g id="Layer_2-2" data-name="Layer 2">
    <g id="t34GBn.tif">
      <g>
        <path class="cls-1" d="M138.37,237.04l4.5,40.45H39.71c-13.17-13.55-27.18-26.33-39.71-40.45h138.37Z"/>
        <polygon class="cls-1" points="415.61 237.04 375.9 277.5 273 277.5 276.74 237.04 415.61 237.04"/>
        <polygon class="cls-1" points="134.37 175.61 137.37 215.57 8.99 215.57 22.98 175.61 134.37 175.61"/>
        <polygon class="cls-1" points="392.13 175.61 406.62 215.57 277.74 215.57 281.24 175.61 392.13 175.61"/>
        <path class="cls-1" d="M240.28,2.31l-20.03,92.84-25.9.02L174.34.31c21.97-.81,44.02,0,65.94,2Z"/>
        <polygon class="cls-1" points="132.38 155.64 30.97 155.64 45.44 115.41 128.91 115.4 132.38 155.64"/>
        <path class="cls-1" d="M283.49,155.64c-.32-.1-.81-.76-.73-1.2l3.55-38.43.74-.76,81.87-.11,15.22,40.49h-100.66Z"/>
        <path class="cls-1" d="M175.84,95.2h-27.72L99.41,15.53c-.13-1.1.18-.57.71-.78,13.22-5.32,28.09-8.14,42.05-10.91l33.67,91.37Z"/>
        <path class="cls-1" d="M238.78,95.2L271.45,6.83c14.16,3.05,29.72,4.67,43.53,8.95.55.17.89-.34.74.76l-49.21,78.66h-27.72Z"/>
        <path class="cls-1" d="M127.38,95.2H54.45l23.86-63.79c.49-1.65,4.3-1.52,5.36-.63l43.71,64.42Z"/>
        <path class="cls-1" d="M287.23,95.2l43.94-64.2c1.06-1.21,2.83-.63,4.29-.77l25.21,64.96h-73.43Z"/>
      </g>
    </g>
  </g>
</svg>