<svg version="1.2" xmlns="http://www.w3.org/2000/svg" viewBox="0 0 215 232" width="215" height="232"><defs><linearGradient id="P" gradientUnits="userSpaceOnUse"/><linearGradient id="g1" x2="1" href="#P" gradientTransform="matrix(-474.016,314.86,-373.027,-561.585,96.705,-221.692)"><stop stop-color="#fbc67e"/><stop offset=".52" stop-color="#ff9401"/></linearGradient><linearGradient id="g2" x2="1" href="#P" gradientTransform="matrix(-474.016,314.86,-371.639,-559.496,96.705,-221.692)"><stop stop-color="#fbc67e"/><stop offset=".52" stop-color="#ff9401"/></linearGradient></defs><style>.a{fill:url(#g1)}.b{fill:url(#g2)}.c{fill:none;stroke:#fbc67e}</style><path class="a" d="m80.4 43.1c-0.3 0-0.6-0.3-0.6-0.6 0-0.2 0.2-0.4 0.3-0.5q0.1 0 0.1-0.1l35.1-35.1c6.7-6.7 16.6-8.9 24.9-4.5 11.2 5.9 21.5 13.5 30.7 22.6 24.1 24.2 37.7 57 37.7 91.2 0 34.1-13.6 66.9-37.7 91.1-9.1 9-19.4 16.6-30.5 22.5-8.2 4.4-18.2 2.2-24.9-4.5l-35.6-35.6q-0.1-0.1-0.1-0.2c0-0.2 0.2-0.4 0.4-0.4 19.2-0.1 37.6-7.7 51.2-21.4 13.7-13.6 21.3-32.2 21.3-51.5 0-19.4-7.6-38-21.3-51.6-13.6-13.6-31.9-21.3-51-21.4z"/><path class="b" d="m79.8 189.5c-19.4 0-38.1-7.7-51.9-21.5-13.7-13.8-21.5-32.5-21.5-51.9 0-19.5 7.8-38.2 21.5-52 13.8-13.8 32.5-21.5 51.9-21.5 0 0-26.4 29-26.4 73.5 0 44.5 26.4 73.4 26.4 73.4z"/><path fill-rule="evenodd" class="c" d="m81.4 189.9c19-0.4 37.1-8.2 50.6-21.6 13.8-13.9 21.6-32.7 21.6-52.2 0-19.6-7.8-38.4-21.6-52.3-13.5-13.4-31.6-21.2-50.6-21.6l0.4-0.5h-0.2l34.4-34.3c6.3-6.4 15.9-8.5 23.8-4.4 11.1 5.9 21.4 13.5 30.4 22.6 24 24 37.5 56.5 37.5 90.5 0 33.9-13.5 66.4-37.5 90.4-9 9-19.2 16.6-30.2 22.4-7.8 4.2-17.4 2.1-23.8-4.3zm-52.9-125.1c13.1-13.2 30.8-20.8 49.3-21.2-0.7 0.8-1.7 2.1-2.9 3.7-2.5 3.5-5.8 8.5-9.2 15-6.6 12.9-13.3 31.4-13.3 53.8 0 22.4 6.7 40.9 13.3 53.8 3.4 6.5 6.7 11.5 9.2 14.9 1.2 1.7 2.2 2.9 2.9 3.8-18.5-0.5-36.2-8-49.3-21.2-13.6-13.6-21.3-32.1-21.3-51.3 0-19.3 7.7-37.7 21.3-51.3z"/></svg>