<svg xmlns="http://www.w3.org/2000/svg" id="Layer_2" data-name="Layer 2" viewBox="0 0 183.95 209.19"><defs><style>.cls-1{fill:#fff}</style></defs><g id="Layer_2-2" data-name="Layer 2"><path d="M73.18 123.07c-19.94-.28-33.79-.67-50.12-13.5-34.38-27-29.37-80.75 8.7-101.57C55.03-4.72 84.56 1.99 110.11.27c-.03 28.61.03 57.25 0 85.86-12.3-.18-24.63.13-36.92 0 0 12.31.02 24.64 0 36.94Z" class="cls-1"/><path d="M73.18 123.07c12.3.18 24.63-.13 36.92 0 0-12.31-.02-24.64 0-36.94 28.06.4 50.5 4.81 65.45 31.11 24.22 42.61-7.02 89.58-54.2 91.7-15.66.71-31.99-.39-47.7-.24l-.49-1.51c.07-28.04 0-56.1.02-84.13Z" class="cls-1"/></g></svg>