<svg xmlns="http://www.w3.org/2000/svg" viewBox="0 0 1000 1000"><defs><radialGradient id="a" cx="-578.621" cy="414.774" r="1.7" fx="-578.621" fy="414.774" gradientTransform="rotate(-179.993 -92845.952 66989.891)scale(321.79999)" gradientUnits="userSpaceOnUse"><stop offset="0" stop-color="#6d28ff"/><stop offset="1" stop-color="#f7a7f9"/></radialGradient><radialGradient id="b" cx="-569.244" cy="416.442" r="1.7" fx="-569.244" fy="416.442" gradientTransform="rotate(90 -18900.397 122389.512)scale(247.3)" gradientUnits="userSpaceOnUse"><stop offset="0" stop-color="#ffcd6b"/><stop offset="1" stop-color="#eb5edf"/></radialGradient><radialGradient id="c" cx="500" cy="-416" r="416.9" fx="500" fy="-416" gradientTransform="matrix(1 0 0 -1 0 84)" gradientUnits="userSpaceOnUse"><stop offset="0" stop-color="#a273ff"/><stop offset=".5" stop-color="#9faeff"/><stop offset="1" stop-color="#aaf2e1"/></radialGradient><radialGradient id="d" cx="500" cy="-415.9" r="446.4" fx="500" fy="-415.9" gradientTransform="matrix(1 0 0 -1 0 84)" gradientUnits="userSpaceOnUse"><stop offset="0" stop-color="#ffd2b9"/><stop offset=".3" stop-color="#c99bed"/><stop offset="1" stop-color="#0075ff"/></radialGradient><radialGradient id="e" cx="-583.157" cy="422.265" r="1.7" fx="-583.157" fy="422.265" gradientTransform="rotate(-99 -116278.01 -9332.496)scale(247.4)" gradientUnits="userSpaceOnUse"><stop offset="0" stop-color="#f7a7f9"/><stop offset="1" stop-color="#00ddfb"/></radialGradient><radialGradient id="f" cx="-582.858" cy="423.158" r="1.7" fx="-582.858" fy="423.158" gradientTransform="rotate(-90 -123798.088 -19724.51)scale(247.1)" gradientUnits="userSpaceOnUse"><stop offset="0" stop-color="#a273ff"/><stop offset=".5" stop-color="#9faeff"/><stop offset="1" stop-color="#aaf2e1"/></radialGradient><radialGradient id="g" cx="-579.294" cy="413.408" r="1.7" fx="-579.294" fy="413.408" gradientTransform="rotate(180 -71466.7 51429.757)scale(247.6)" gradientUnits="userSpaceOnUse"><stop offset="0" stop-color="#fff3d0"/><stop offset="1" stop-color="#ffc044"/></radialGradient><radialGradient id="h" cx="-569.244" cy="416.442" r="1.7" fx="-569.244" fy="416.442" gradientTransform="rotate(90 -18900.397 122389.512)scale(247.3)" gradientUnits="userSpaceOnUse"><stop offset="0" stop-color="#ffcd6b"/><stop offset="1" stop-color="#eb5edf"/></radialGradient><radialGradient id="i" cx="-572.079" cy="414.755" r="1.7" fx="-572.079" fy="414.755" gradientTransform="rotate(114.2 -40128.177 104319.65)scale(264.79999)" gradientUnits="userSpaceOnUse"><stop offset="0" stop-color="#ffd2b9"/><stop offset=".3" stop-color="#c99bed"/><stop offset="1" stop-color="#0075ff"/></radialGradient><radialGradient id="j" cx="-569.148" cy="416.743" r="1.7" fx="-569.148" fy="416.743" gradientTransform="rotate(90 -18881.056 122713.723)scale(247.9)" gradientUnits="userSpaceOnUse"><stop offset="0" stop-color="#d4faff"/><stop offset="1" stop-color="#00ddfb"/></radialGradient><radialGradient id="k" cx="-569.505" cy="423.44" r="1.7" fx="-569.505" fy="423.44" gradientTransform="rotate(36 89873.702 269126.894)scale(246.39999)" gradientUnits="userSpaceOnUse"><stop offset="0" stop-color="#0075ff"/><stop offset="1" stop-color="#00ddfb"/></radialGradient></defs><circle cx="500" cy="500" r="500" data-name="White Background" style="stroke-width:0;fill:#fff"/><path d="M112.5 626c-13.2-40.7-20-83.2-20-126l3-2.3 393 .8L500 500z" style="stroke-width:0;fill:url(#a)"/><path d="M625.9 887.5c-61.2 19.9-126.1 25-189.7 14.9l-3-4.6 65.4-392.6 1.3-5.2 125.9 387.5z" style="stroke-width:0;fill:url(#b)"/><path d="M907.5 500c0 42.8-6.7 85.2-19.9 125.9h-8.8L502.2 501.5l-2.1-1.5h407.5z" style="stroke-width:0;fill:url(#c)"/><path d="M170.4 260.5c12.5-17.3 26.4-33.5 41.5-48.6l3.4 1 282.8 283.9 1.9 3.2z" style="stroke-width:0;fill:url(#d)"/><path d="M211.9 211.9C272.7 151.1 351.3 111 436.3 97.6l1.8 3L500 493.5v6.5z" style="stroke-width:0;fill:url(#e)"/><path d="M436.2 97.6c63.5-10.1 128.5-5 189.7 14.9L500 500z" style="stroke-width:0;fill:url(#f)"/><path d="M92.5 500c0-42.8 6.7-85.2 19.9-125.9L499.9 500z" style="stroke-width:0;fill:url(#g)"/><path d="M739.5 170.4c69.6 50.6 121.4 121.9 148 203.7L500 500z" style="fill:url(#h);stroke-width:0"/><path d="M260.5 829.6c-34.6-25.1-65-55.6-90.1-90.1L500 500z" style="stroke-width:0;fill:url(#i)"/><path d="M436.3 902.4c-21.1-3.3-41.9-8.3-62.2-14.9L500 500z" style="stroke-width:0;fill:url(#j)"/><path d="M887.5 625.9c-26.6 81.8-78.4 153.2-148 203.7L500 500z" style="stroke-width:0;fill:url(#k)"/></svg>