<svg xmlns="http://www.w3.org/2000/svg" id="Layer_2" data-name="Layer 2" viewBox="0 0 267.99 216.73"><defs><style>.cls-2{fill:#fca669}</style></defs><g id="Layer_1-2" data-name="Layer 1"><path d="M214.95 98.22H86.59c-1.99 0-19.91-16.75-21.04-18.92-.49-.96-.49-1.02 0-1.97.62-1.2 8.43-8.54 10.08-9.93 45.16-38.24 115.29-22.5 139.32 30.83Z" class="cls-2"/><path d="M222.94 145c-.04 14.34-4.67 28.39-11.5 40.83-3.81 0-19.25-21.89-26.03-21.85l-137.62-.02L44.13 145h178.8Zm-178.8-13.93c1.27-14.27 4.26-28.84 12.49-40.8 1.77-.02 19.62 23 26.06 21.79l138.25.1 2.01 18.9H44.14Z" style="fill:#fc6a51"/><path d="M242.92 203.74c.67 7.06-4.47 12.36-11.49 12.94l-191.83.04c-8.28.22-15.02-4.41-15.44-12.98zm-49.94-13.94H8.68c-3.53 0-9.78-7.95-8.49-11.95h180.3c3.49 0 10.33 9.11 12.49 11.95m74.92-11.95c.97 3.37-6.02 11.95-8.49 11.95h-34.46l4-11.95h38.96ZM82.78 40.16c-8.41 9.18-19.7-6.79-20.45-14.36-.82-8.33 9.95-12.46 15.79-5.76 3.89 4.47 9.39 14.95 4.66 20.11Zm165.86 24.49c12.45 12.41-25.52 30.75-23.77 10.17.59-6.95 17.8-16.13 23.77-10.17m16.94 62.75c1.66 1.81 2.64 5.48 2.15 7.91-2.56 12.63-37.34 7.77-25.82-7.48 3.04-4.03 20.38-4.03 23.67-.43M202.69 18.86c6.84 6.82-5.5 30.07-16.68 22.1-9.34-6.66 6.33-32.41 16.68-22.1M40.85 82c-4.69 5.55-15.01.2-19.61-3.27-5.71-4.29-6.27-13.63.88-15.92 7.78-2.48 26.9 9.53 18.73 19.18Zm98.87-56.77c-4.82 4.39-13.05 1.89-14.46-4.37-.64-2.86-.6-12.51.24-15.27 2.31-7.58 14.28-7.23 16.33-.24 1.05 3.59.83 17.21-2.11 19.88M5.9 125.31c5.62-1.25 19.43-1.73 21.05 5.48 2.76 12.29-10.62 12.26-19.29 11.25-10.13-1.17-9.69-14.97-1.76-16.73" class="cls-2"/></g></svg>