<?xml version="1.0" encoding="UTF-8"?>
<svg id="Layer_2" data-name="Layer 2" xmlns="http://www.w3.org/2000/svg" xmlns:xlink="http://www.w3.org/1999/xlink" viewBox="0 0 33.32 33.32">
  <defs>
    <style>
      .cls-1 {
        fill: none;
      }

      .cls-2 {
        clip-path: url(#clippath-1);
      }

      .cls-3 {
        fill: #fff;
      }

      .cls-4 {
        clip-path: url(#clippath);
      }

      .cls-5 {
        fill: #999;
      }
    </style>
    <clipPath id="clippath">
      <rect class="cls-1" width="33.32" height="33.32"/>
    </clipPath>
    <clipPath id="clippath-1">
      <rect class="cls-1" width="33.32" height="33.32"/>
    </clipPath>
  </defs>
  <g id="Layer_1-2" data-name="Layer 1">
    <g class="cls-4">
      <g>
        <g class="cls-2">
          <g>
            <path class="cls-5" d="M19.97,1.33l.89,2.08c1.74,4.08,4.99,7.33,9.07,9.07l2.08.89c.54.23.98.56,1.33.96C32.29,6.9,26.42,1.03,19.01,0c.4.34.73.78.96,1.33h0Z"/>
            <path class="cls-5" d="M1.33,13.36l2.08-.89c4.08-1.74,7.33-4.99,9.07-9.07l.89-2.08C13.59.78,13.92.34,14.32,0,6.9,1.03,1.03,6.9,0,14.32c.34-.4.78-.73,1.33-.96Z"/>
            <path class="cls-5" d="M32,19.97l-2.08.89c-4.08,1.74-7.33,4.99-9.07,9.07l-.89,2.08c-.23.54-.57.99-.96,1.33,7.42-1.03,13.28-6.9,14.32-14.32-.34.4-.78.73-1.33.96h0Z"/>
            <path class="cls-5" d="M13.36,32l-.89-2.08c-1.74-4.08-4.99-7.33-9.07-9.07l-2.08-.89c-.54-.23-.98-.56-1.33-.96,1.03,7.42,6.9,13.28,14.32,14.32-.4-.34-.73-.78-.96-1.33Z"/>
          </g>
        </g>
        <path class="cls-3" d="M9.1,15.03l1.02-.44c2.01-.86,3.61-2.46,4.47-4.47l.44-1.02c.61-1.43,2.64-1.43,3.26,0l.44,1.02c.86,2.01,2.46,3.61,4.47,4.47l1.02.44c1.43.61,1.43,2.64,0,3.26l-1.02.44c-2.01.86-3.61,2.46-4.47,4.47l-.44,1.02c-.61,1.43-2.64,1.43-3.26,0l-.44-1.02c-.86-2.01-2.46-3.61-4.47-4.47l-1.02-.44c-1.43-.61-1.43-2.64,0-3.26Z"/>
      </g>
    </g>
  </g>
</svg>