<svg xmlns="http://www.w3.org/2000/svg" id="Layer_2" data-name="Layer 2" viewBox="0 0 33.32 33.32"><defs><clipPath id="clippath"><path d="M0 0h33.32v33.32H0z" class="cls-1"/></clipPath><clipPath id="clippath-1"><path d="M0 0h33.32v33.32H0z" class="cls-1"/></clipPath><style>.cls-1{fill:none}</style></defs><g id="Layer_1-2" data-name="Layer 1" style="clip-path:url(#clippath)"><g style="clip-path:url(#clippath-1)"><path d="m19.97 1.33.89 2.08c1.74 4.08 4.99 7.33 9.07 9.07l2.08.89c.54.23.98.56 1.33.96C32.29 6.9 26.42 1.03 19.01 0c.4.34.73.78.96 1.33M1.33 13.36l2.08-.89c4.08-1.74 7.33-4.99 9.07-9.07l.89-2.08c.22-.54.55-.98.95-1.32C6.9 1.03 1.03 6.9 0 14.32c.34-.4.78-.73 1.33-.96M32 19.97l-2.08.89a17.2 17.2 0 0 0-9.07 9.07l-.89 2.08c-.23.54-.57.99-.96 1.33 7.42-1.03 13.28-6.9 14.32-14.32-.34.4-.78.73-1.33.96ZM13.36 32l-.89-2.08a17.2 17.2 0 0 0-9.07-9.07l-2.08-.89C.78 19.73.34 19.4-.01 19c1.03 7.42 6.9 13.28 14.32 14.32-.4-.34-.73-.78-.96-1.33Z" style="fill:#999"/></g><path d="m9.1 15.03 1.02-.44a8.5 8.5 0 0 0 4.47-4.47l.44-1.02c.61-1.43 2.64-1.43 3.26 0l.44 1.02a8.5 8.5 0 0 0 4.47 4.47l1.02.44c1.43.61 1.43 2.64 0 3.26l-1.02.44a8.5 8.5 0 0 0-4.47 4.47l-.44 1.02c-.61 1.43-2.64 1.43-3.26 0l-.44-1.02a8.5 8.5 0 0 0-4.47-4.47l-1.02-.44c-1.43-.61-1.43-2.64 0-3.26" style="fill:#fff"/></g></svg>