<svg xmlns="http://www.w3.org/2000/svg" xmlns:xlink="http://www.w3.org/1999/xlink" fill-rule="evenodd" stroke-linejoin="round" stroke-miterlimit="2" clip-rule="evenodd" viewBox="0 0 560 400"><linearGradient id="a"><stop offset="0" stop-color="#03b8ff"/><stop offset="1" stop-color="#fa52a0"/></linearGradient><linearGradient xlink:href="#a" id="b" x1="0" x2="1" y1="0" y2="0" gradientTransform="rotate(73.764 3.997 6.003)scale(13.1924)" gradientUnits="userSpaceOnUse"/><linearGradient xlink:href="#a" id="c" x1="0" x2="1" y1="0" y2="0" gradientTransform="rotate(73.763 6.101 7.59)scale(13.1925)" gradientUnits="userSpaceOnUse"/><linearGradient xlink:href="#a" id="d" x1="0" x2="1" y1="0" y2="0" gradientTransform="rotate(73.763 1.891 4.43)scale(13.1925)" gradientUnits="userSpaceOnUse"/><g fill-rule="nonzero"><path fill="url(#b)" d="M5 2.3 23.6 15 19 21.8.4 9z" transform="translate(144.33 64.263)scale(11.2764)"/><path fill="url(#c)" d="M23.6 15c-1.6 2.3-7 1.4-12.1-2.2C6.3 9.3 3.5 4.6 5 2.3 6.6 0 12 .9 17.1 4.5c5.2 3.4 8 8.2 6.5 10.5" transform="translate(144.33 64.263)scale(11.2764)"/><path fill="url(#d)" d="M19 21.7c-1.6 2.3-7 1.4-12.1-2.2s-8-8.2-6.4-10.6c1.6-2.3 7-1.4 12.1 2.2s7.9 8.3 6.4 10.6" transform="translate(144.33 64.263)scale(11.2764)"/><path fill="#0e0f23" d="m410.453 233.41-51.871 76.679c-18.043 25.935-78.935 14.659-136.445-24.808-11.276-7.894-21.425-15.787-31.574-24.808 7.894-1.128 18.042-5.639 28.191-16.915 18.042-19.17 27.064-23.68 34.957-22.553 7.894 0 16.915 7.894 31.574 27.064s34.957 24.808 47.36 14.659c1.129-1.128 2.256-1.128 3.384-2.255 10.149-7.894 13.531-11.277 32.701-47.361 4.51-9.021 20.298-23.68 41.723-16.915q8.457 21.99 0 37.212"/></g><g fill="#fff"><path d="M402.56 228.899c-15.787 22.552-71.042 11.276-124.04-25.936-54.128-37.212-85.701-84.573-69.915-107.126s71.042-11.276 124.04 25.936 84.574 84.573 69.915 107.126m-49.617-33.83c-7.893 11.277-34.956 5.639-62.02-12.404-25.936-18.042-41.722-41.722-33.829-52.999s34.957-5.638 62.02 12.404c25.936 18.043 41.723 41.723 33.83 53"/><path fill-rule="nonzero" d="M196.201 116.135c0-1.128-1.127-2.256-2.255-1.128s-2.255 1.128-2.255 2.255c1.128 3.383 2.255 5.638 2.255 7.894 0 1.127 1.128 2.255 2.255 1.127 1.128 0 2.256-1.127 1.128-2.255 0-2.255 0-4.51-1.128-7.893m5.639 18.042c0-1.128-1.128-2.255-2.256-1.128s-1.127 1.128-1.127 2.256c12.404 28.19 38.34 58.637 72.169 81.19 1.127 1.127 2.255 0 3.383 0 1.127-1.128 0-2.256 0-3.383-34.957-22.553-59.765-51.872-72.17-78.935m136.445 110.509c-1.128 0-2.255 0-2.255 1.127s0 2.256 1.127 2.256c3.383 1.127 7.894 2.255 11.277 3.382 1.127 0 2.255 0 2.255-1.127s0-2.255-1.128-2.255c-3.382-1.128-7.893-2.256-11.276-3.383m20.298 4.51c-1.128 0-2.256 1.128-2.256 2.255s1.128 2.256 2.256 2.256c9.02 1.127 19.17 2.255 27.063 1.127 1.128 0 2.255-1.127 2.255-2.255s-1.127-2.255-2.255-2.255c-9.021 1.127-18.042 0-27.063-1.128"/></g></svg>