<svg clip-rule="evenodd" fill-rule="evenodd" stroke-linejoin="round" stroke-miterlimit="2" viewBox="0 0 560 400" xmlns="http://www.w3.org/2000/svg" xmlns:xlink="http://www.w3.org/1999/xlink"><linearGradient id="a"><stop offset="0" stop-color="#03b8ff"/><stop offset="1" stop-color="#fa52a0"/></linearGradient><linearGradient id="b" gradientTransform="matrix(3.6886 12.6662 -12.6662 3.6886 8.6442 .4943)" gradientUnits="userSpaceOnUse" x1="0" x2="1" xlink:href="#a" y1="0" y2="0"/><linearGradient id="c" gradientTransform="matrix(3.6887 12.6663 -12.6663 3.6887 11.6818 -.3904)" gradientUnits="userSpaceOnUse" x1="0" x2="1" xlink:href="#a" y1="0" y2="0"/><linearGradient id="d" gradientTransform="matrix(3.6887 12.6663 -12.6663 3.6887 5.616 1.3761)" gradientUnits="userSpaceOnUse" x1="0" x2="1" xlink:href="#a" y1="0" y2="0"/><g transform="matrix(11.2764 0 0 11.2764 144.33 64.2632)"><g fill-rule="nonzero"><path d="m5 2.3 18.6 12.7-4.6 6.8-18.6-12.8z" fill="url(#b)"/><path d="m23.6 15c-1.6 2.3-7 1.4-12.1-2.2-5.2-3.5-8-8.2-6.5-10.5 1.6-2.3 7-1.4 12.1 2.2 5.2 3.4 8 8.2 6.5 10.5z" fill="url(#c)"/><path d="m19 21.7c-1.6 2.3-7 1.4-12.1-2.2s-8-8.2-6.4-10.6c1.6-2.3 7-1.4 12.1 2.2s7.9 8.3 6.4 10.6z" fill="url(#d)"/><path d="m23.6 15-4.6 6.8c-1.6 2.3-7 1.3-12.1-2.2-1-.7-1.9-1.4-2.8-2.2.7-.1 1.6-.5 2.5-1.5 1.6-1.7 2.4-2.1 3.1-2 .7 0 1.5.7 2.8 2.4s3.1 2.2 4.2 1.3c.1-.1.2-.1.3-.2.9-.7 1.2-1 2.9-4.2.4-.8 1.8-2.1 3.7-1.5.5 1.3.5 2.4 0 3.3z" fill="#0e0f23"/></g><g fill="#fff"><path d="m22.9 14.6c-1.4 2-6.3 1-11-2.3-4.8-3.3-7.6-7.5-6.2-9.5s6.3-1 11 2.3 7.5 7.5 6.2 9.5zm-4.4-3c-.7 1-3.1.5-5.5-1.1-2.3-1.6-3.7-3.7-3-4.7s3.1-.5 5.5 1.1c2.3 1.6 3.7 3.7 3 4.7z"/><g fill-rule="nonzero"><path d="m4.6 4.6c0-.1-.1-.2-.2-.1s-.2.1-.2.2c.1.3.2.5.2.7 0 .1.1.2.2.1.1 0 .2-.1.1-.2 0-.2 0-.4-.1-.7z"/><path d="m5.1 6.2c0-.1-.1-.2-.2-.1s-.1.1-.1.2c1.1 2.5 3.4 5.2 6.4 7.2.1.1.2 0 .3 0 .1-.1 0-.2 0-.3-3.1-2-5.3-4.6-6.4-7z"/><path d="m17.2 16c-.1 0-.2 0-.2.1s0 .2.1.2c.3.1.7.2 1 .3.1 0 .2 0 .2-.1s0-.2-.1-.2c-.3-.1-.7-.2-1-.3z"/><path d="m19 16.4c-.1 0-.2.1-.2.2s.1.2.2.2c.8.1 1.7.2 2.4.1.1 0 .2-.1.2-.2s-.1-.2-.2-.2c-.8.1-1.6 0-2.4-.1z"/></g></g></g></svg>