<?xml version="1.0" encoding="UTF-8"?>
<svg xmlns="http://www.w3.org/2000/svg" version="1.1" xmlns:xlink="http://www.w3.org/1999/xlink" viewBox="0 0 153.6 124.7">
  <defs>
    <style>
      .cls-1 {
        fill: url(#linear-gradient);
      }
    </style>
    <linearGradient id="linear-gradient" x1="0" y1="63.7" x2="153.6" y2="63.7" gradientTransform="translate(0 126) scale(1 -1)" gradientUnits="userSpaceOnUse">
      <stop offset="0" stop-color="#e1ff66"/>
      <stop offset="1" stop-color="#27ff93"/>
    </linearGradient>
  </defs>
  <!-- Generator: Adobe Illustrator 28.7.1, SVG Export Plug-In . SVG Version: 1.2.0 Build 142)  -->
  <g>
    <g id="Layer_1">
      <g id="Layer_1-2" data-name="Layer_1">
        <g id="Layer_1-2">
          <g id="Layer_1-2-2" data-name="Layer_1-2">
            <path class="cls-1" d="M138.3,75.5c-7-9.3-14.3-18.7-21.3-28,5.4-7,10.6-13.7,15.9-20.7,4.8-6.4,9.8-12.7,14.8-19.1l5.9-7.7-9.6.2h-18.1c-4.3,0-7.8,0-11.1-.2h-.9c-5.7,0-9.8,2.3-13.1,7.1-3.5,5-7,9.8-11.1,14.9-1.7,2.1-3.3,4.2-5,6.4l-2.2,2.9,2.2,2.9c4.4,6,8.9,11.8,13.3,17.6l8.1,10.8c-3.1,4.1-6.5,8.3-9.8,12.6l-2.2,2.9,2.2,2.9c.7,1,1.5,1.9,2.2,2.9,2,2.7,4.1,5.4,5.9,7.9,1.9,2.5,4.3,3.9,7.2,3.9h32.2l9.1-.2-5.7-7.5-8.9-12.4h0ZM50.2,3.9c-2-2.7-4.4-3.9-7.6-3.9H0l5.9,7.7c7.2,9.3,14.3,18.5,21.3,27.6,6.8,8.9,13.7,17.8,20.6,26.7-13.9,18.3-27.8,36.5-41.8,55l-5.7,7.7h42c3.9,0,6.1-2.1,7.4-3.9l.4-.4c13.5-17.6,27.4-35.7,41.1-53.5,1.9-2.3,3.1-6,0-10.2-15-18.9-28.3-36.3-40.9-52.9h0Z"/>
          </g>
        </g>
      </g>
    </g>
  </g>
</svg>