<svg xmlns="http://www.w3.org/2000/svg" data-name="Layer 2" viewBox="0 0 357.68 357.04"><g data-name="Layer 1"><path d="M22.91.16 333.29 0c11.57 1.33 21.31 10.53 23.61 21.89 1.04 104.3 1.04 208.94 0 313.25-2.3 11.35-12.01 20.56-23.61 21.89H23.75C11.01 355.31.91 344.61 0 331.79V25.25C.87 12.78 10.53 2.12 22.91.16m323.43 346.18c3.77-3.78 6.44-9.7 6.7-15.05V25.25c-.95-11.96-10.98-20.73-22.75-21.26H26.75C15.52 4.82 6.97 11.77 4.56 22.8c-.9 103.73-.9 207.7 0 311.42 2.25 10.85 11.54 18.53 22.69 18.81h303.54c5.39-.41 11.7-2.84 15.55-6.7Z" style="fill:#622669"/><path d="M346.34 346.34c-3.86 3.86-10.16 6.29-15.55 6.7H27.25c-11.14-.28-20.44-7.96-22.69-18.81-.9-103.72-.9-207.7 0-311.42C6.97 11.77 15.52 4.83 26.75 4h303.54c11.77.52 21.8 9.29 22.74 21.25v306.04c-.26 5.35-2.92 11.27-6.69 15.05M302.52 76.52H55.02v27.5h29.25c11.21 0 25.75 12.89 25.75 24.25v140.75h27.5v-165h27.5v192.5h27.5v-192.5h27.5v165h27.5V127.27c0-10.95 15.05-23.25 25.75-23.25h29.25z" style="fill:#38173f"/><path d="M302.52 76.52v27.5h-29.25c-10.7 0-25.75 12.3-25.75 23.25v141.75h-27.5v-165h-27.5v192.5h-27.5v-192.5h-27.5v165h-27.5V128.27c0-11.36-14.54-24.25-25.75-24.25H55.02v-27.5z" style="fill:#c54cd2"/></g></svg>