<svg width="256" height="256" viewBox="0 0 256 256" fill="none" xmlns="http://www.w3.org/2000/svg">
<rect width="256" height="256" rx="128" fill="#064CF9"/>
<rect width="256" height="256" rx="128" fill="#1E4477"/>
<path fill-rule="evenodd" clip-rule="evenodd" d="M118.748 56.4717C112.386 59.3692 103.177 63.5586 98.2832 65.7816C93.3893 68.0042 86.8226 70.9954 83.6905 72.4288C80.5584 73.8618 77.3971 75.2942 76.665 75.6112C75.9332 75.9286 75.3826 76.3358 75.4417 76.5161C75.5549 76.8621 82.3985 79.7988 112.418 92.383L130.824 100.099L152.993 90.8329C165.186 85.7365 177.684 80.514 180.767 79.227C183.85 77.9401 186.325 76.7457 186.267 76.5734C186.208 76.4008 181.844 74.3068 176.568 71.9199C163.407 65.9658 143.553 56.8719 136.938 53.7681C133.924 52.354 131.201 51.1984 130.887 51.2002C130.573 51.2019 125.111 53.5742 118.748 56.4717ZM64.0986 85.5443C64.0067 85.7809 63.9729 104.212 64.0235 126.502L64.1149 167.029L72.479 170.926C84.3892 176.475 101.821 184.66 117.443 192.04L130.907 198.4L146.272 191.241C154.723 187.303 164.039 182.96 166.976 181.591C169.912 180.222 178.16 176.386 185.305 173.067L198.296 167.034L198.387 126.067C198.437 103.536 198.341 85.1007 198.175 85.1007C198.008 85.1007 188.918 88.8134 177.975 93.3512C167.031 97.8887 153.593 103.455 148.112 105.72L138.146 109.839L137.968 144.551L137.79 179.262L134.319 180.787L130.848 182.312L127.47 180.74L124.091 179.168L124 144.515L123.909 109.862L119.46 108.006C117.013 106.985 111.007 104.498 106.113 102.48C94.2542 97.5888 68.108 86.7512 65.9696 85.8403C64.7068 85.3021 64.2221 85.2255 64.0986 85.5443Z" fill="white"/>
</svg>
