<svg xmlns="http://www.w3.org/2000/svg" xml:space="preserve" id="Layer_1" x="0" y="0" version="1.1" viewBox="0 0 168.3 193.8"><style>.st0{fill:#ff007a}</style><path d="M66 44.1c-2.1-.3-2.2-.4-1.2-.5 1.9-.3 6.3.1 9.4.8 7.2 1.7 13.7 6.1 20.6 13.8l1.8 2.1 2.6-.4c11.1-1.8 22.5-.4 32 4 2.6 1.2 6.7 3.6 7.2 4.2.2.2.5 1.5.7 2.8.7 4.7.4 8.2-1.1 10.9-.8 1.5-.8 1.9-.3 3.2.4 1 1.6 1.7 2.7 1.7 2.4 0 4.9-3.8 6.1-9.1l.5-2.1.9 1c5.1 5.7 9.1 13.6 9.7 19.2l.2 1.5-.9-1.3c-1.5-2.3-2.9-3.8-4.8-5.1-3.4-2.3-7-3-16.5-3.5-8.6-.5-13.5-1.2-18.3-2.8-8.2-2.7-12.4-6.2-22.1-19.1-4.3-5.7-7-8.8-9.7-11.4-5.9-5.7-11.8-8.7-19.5-9.9" class="st0"/><path d="M140.5 56.8c.2-3.8.7-6.3 1.8-8.6.4-.9.8-1.7.9-1.7s-.1.7-.4 1.5c-.8 2.2-.9 5.3-.4 8.8.7 4.5 1 5.1 5.8 10 2.2 2.3 4.8 5.2 5.8 6.4l1.7 2.2-1.7-1.6c-2.1-2-6.9-5.8-8-6.3-.7-.4-.8-.4-1.3.1-.4.4-.5 1-.5 3.9-.1 4.5-.7 7.3-2.2 10.2-.8 1.5-.9 1.2-.2-.5.5-1.3.6-1.9.6-6.2 0-8.7-1-10.8-7.1-14.3-1.5-.9-4.1-2.2-5.6-2.9-1.6-.7-2.8-1.3-2.7-1.3.2-.2 6.1 1.5 8.4 2.5 3.5 1.4 4.1 1.5 4.5 1.4.3-.3.5-1.1.6-3.6M70.1 71.7c-4.2-5.8-6.9-14.8-6.3-21.5l.2-2.1 1 .2c1.8.3 4.9 1.5 6.4 2.4 4 2.4 5.8 5.7 7.5 13.9.5 2.4 1.2 5.2 1.5 6.1.5 1.5 2.4 5 4 7.2 1.1 1.6.4 2.4-2.1 2.2-3.8-.4-8.9-3.9-12.2-8.4m65.3 43.5c-19.8-8-26.8-14.9-26.8-26.6 0-1.7.1-3.1.1-3.1.1 0 .8.6 1.7 1.3 4 3.2 8.5 4.6 21 6.4 7.3 1.1 11.5 1.9 15.3 3.2 12.1 4 19.6 12.2 21.4 23.3.5 3.2.2 9.3-.6 12.5-.7 2.5-2.7 7.1-3.2 7.2-.1 0-.3-.5-.3-1.3-.2-4.2-2.3-8.2-5.8-11.3-4.2-3.6-9.6-6.3-22.8-11.6m-14 3.3c-.2-1.5-.7-3.4-1-4.2l-.5-1.5.9 1.1c1.3 1.5 2.3 3.3 3.2 5.8.7 1.9.7 2.5.7 5.6 0 3-.1 3.7-.7 5.4-1 2.7-2.2 4.6-4.2 6.7-3.6 3.7-8.3 5.7-15 6.6-1.2.1-4.6.4-7.6.6-7.5.4-12.5 1.2-17 2.8-.6.2-1.2.4-1.3.3-.2-.2 2.9-2 5.4-3.2 3.5-1.7 7.1-2.6 15-4 3.9-.6 7.9-1.4 8.9-1.8 9.9-3.1 14.8-10.8 13.2-20.2" class="st0"/><path d="M130.5 134.6q-3.9-8.55-1.8-16.2c.2-.5.4-1 .6-1s.8.3 1.4.7c1.2.8 3.7 2.2 10.1 5.7 8.1 4.4 12.7 7.8 15.9 11.7 2.8 3.4 4.5 7.3 5.3 12.1.5 2.7.2 9.2-.5 11.9-2.2 8.5-7.2 15.3-14.5 19.2-1.1.6-2 1-2.1 1s.3-1 .9-2.2c2.4-5.1 2.7-10 .9-15.5-1.1-3.4-3.4-7.5-8-14.4-5.5-8-6.8-10.1-8.2-13M56 165.2c7.4-6.2 16.5-10.6 24.9-12 3.6-.6 9.6-.4 12.9.5 5.3 1.4 10.1 4.4 12.6 8.1 2.4 3.6 3.5 6.7 4.6 13.6.4 2.7.9 5.5 1 6.1.8 3.6 2.4 6.4 4.4 7.9 3.1 2.3 8.5 2.4 13.8.4.9-.3 1.7-.6 1.7-.5.2.2-2.5 2-4.3 2.9-2.5 1.3-4.5 1.7-7.2 1.7-4.8 0-8.9-2.5-12.2-7.5-.7-1-2.1-3.9-3.3-6.6-3.5-8.1-5.3-10.5-9.4-13.2-3.6-2.3-8.2-2.8-11.7-1.1-4.6 2.2-5.8 8.1-2.6 11.7 1.3 1.5 3.7 2.7 5.7 3 3.7.5 6.9-2.4 6.9-6.1 0-2.4-.9-3.8-3.3-4.9-3.2-1.4-6.7.2-6.6 3.3 0 1.3.6 2.1 1.9 2.7.8.4.8.4.2.3-2.9-.6-3.6-4.2-1.3-6.5 2.8-2.8 8.7-1.6 10.7 2.3.8 1.6.9 4.8.2 6.8-1.7 4.4-6.5 6.7-11.4 5.4-3.3-.9-4.7-1.8-8.7-5.9-7-7.2-9.7-8.6-19.7-10.1l-1.9-.3z" class="st0"/><path d="M3.4 4.3c23.3 28.3 59.2 72.3 61 74.7 1.5 2 .9 3.9-1.6 5.3-1.4.8-4.3 1.6-5.7 1.6-1.6 0-3.5-.8-4.8-2.1-.9-.9-4.8-6.6-13.6-20.3C32 53 26.3 44.3 26.2 44.2c-.4-.2-.4-.2 11.8 21.6C45.7 79.5 48.2 84.4 48.2 85c0 1.3-.4 2-2 3.8-2.7 3-3.9 6.4-4.8 13.5-1 7.9-3.7 13.5-11.4 23-4.5 5.6-5.2 6.6-6.3 8.9-1.4 2.8-1.8 4.4-2 8-.2 3.8.2 6.2 1.3 9.8 1 3.2 2.1 5.3 4.8 9.4 2.3 3.6 3.7 6.3 3.7 7.3 0 .8.2.8 3.8 0 8.6-2 15.7-5.4 19.6-9.6 2.4-2.6 3-4 3-7.6 0-2.3-.1-2.8-.7-4.2-1-2.2-2.9-4-7-6.8-5.4-3.7-7.7-6.7-8.3-10.7-.5-3.4.1-5.7 3.1-12 3.1-6.5 3.9-9.2 4.4-15.8.3-4.2.8-5.9 2-7.2 1.3-1.4 2.4-1.9 5.5-2.3 5.1-.7 8.4-2 11-4.5 2.3-2.1 3.3-4.2 3.4-7.3l.1-2.3-1.3-1.4C65.4 71.6.3 0 0 0c-.1 0 1.5 1.9 3.4 4.3m30.7 142.2c1.1-1.9.5-4.3-1.3-5.5-1.7-1.1-4.3-.6-4.3.9 0 .4.2.8.8 1 .9.5 1 1 .3 2.1s-.7 2.1.2 2.8c1.4 1.1 3.3.5 4.3-1.3m40.5-52.6c-2.4.7-4.7 3.3-5.4 5.9-.4 1.6-.2 4.5.5 5.4 1.1 1.4 2.1 1.8 4.9 1.8 5.5 0 10.2-2.4 10.7-5.3.5-2.4-1.6-5.7-4.5-7.2-1.5-.8-4.6-1.1-6.2-.6m6.4 5c.8-1.2.5-2.5-1-3.4-2.7-1.7-6.8-.3-6.8 2.3 0 1.3 2.1 2.7 4.1 2.7 1.3 0 3.1-.8 3.7-1.6" style="fill:#ff007a;fill-rule:evenodd;clip-rule:evenodd"/></svg>