<svg xmlns="http://www.w3.org/2000/svg" width="332" height="324" fill="none"><path fill="#F1ECE2" d="M303.46 250.25c-.21.16-.42.33-.64.48-.21.16-.43.31-.65.47q-.615.435-1.26.84c-.05.03-.1.06-.15.1-.35.22-.7.44-1.06.65-.53.32-1.05.62-1.59.92-3.66 2.04-7.51 3.68-11.44 5.13-3.71 1.36-7.47 2.55-11.26 3.61-5.43 1.52-10.93 2.78-16.48 3.88-5.39 1.08-10.8 1.99-16.23 2.78s-10.88 1.45-16.34 2.02c-1.79.19-3.58.36-5.37.53-3.59.33-7.18.61-10.77.85a502 502 0 0 1-17.48.86c-.73.02-1.46.05-2.2.07l-2.02.06c1.65-2.04 3.3-4.07 4.81-6.22.22-.27.44-.54.65-.82 3.41-4.58 6.67-9.26 9.79-14.03.32-.02.64-.03.95-.05 1.98-.11 3.96-.24 5.94-.37q2.25-.15 4.5-.33c10.49-.81 20.94-1.97 31.34-3.6 3.03-.47 6.04-.99 9.04-1.54 7.02-1.3 13.98-2.86 20.84-4.82 1.51-.43 3.01-.88 4.51-1.35.75-.24 1.5-.48 2.25-.73 1.13.2 2.16.67 3.22 1.06.93.34 1.86.7 2.79 1.07 2.63 1.04 5.21 2.19 7.71 3.52.99.52 1.96 1.07 2.92 1.65 1.27.77 2.51 1.58 3.67 2.51.34.27.44.38.31.54-.06.08-.16.16-.32.28z"/><path fill="#5E93FF" d="M206.24 298.56c-.21.13-.44.13-.66.05.06-.04.11-.06.16-.08.09-.03.17-.03.26-.03.08 0 .17.02.25.06zm-.89.05c-.27.12-.54.13-.83.05.27-.16.55-.14.83-.05m-1.06.05c-.27.12-.54.13-.83.05.27-.17.54-.15.83-.05m-1.06.05c-.27.13-.54.13-.82.04 0 0 .02 0 .03-.01a.95.95 0 0 1 .79-.03m-1.62-.01a1 1 0 0 1 .56.05c-.27.13-.55.13-.83.05.09-.05.18-.08.27-.1m-.93.02c.14 0 .28.03.43.07-.27.12-.54.13-.82.04a.84.84 0 0 1 .39-.12zm-.83.07c.07.01.13.03.19.05-.26.12-.54.13-.82.05.19-.12.39-.14.59-.1zm-.87.1c-.32.14-.65.13-.98.04.32-.15.65-.14.98-.04m-1.22.04c-.27.14-.54.12-.82.04.26-.15.54-.15.82-.04m70.16-63.83c.13.02.28.02.42.04.18.02.36.07.5.22-.37-.03-.73-.11-1.05-.29.02 0 .05 0 .07.01.02 0 .04 0 .07.01z"/><path fill="#3180F4" d="M115.62 323.3c.03.06.06.12.08.17l-5.58.02.09-.18h5.4z"/><path fill="#FDBF41" d="M283.17 239.63c-.75.25-1.49.49-2.25.73-1.5.47-3 .92-4.51 1.35-6.87 1.96-13.82 3.52-20.84 4.82-3 .56-6.02 1.07-9.04 1.54-10.4 1.63-20.85 2.79-31.34 3.6q-2.25.18-4.5.33c-1.98.13-3.96.26-5.94.37-.32.02-.63.03-.95.05 2.15-3.29 4.24-6.62 6.26-10 2.92-4.88 5.71-9.83 8.36-14.85 5.06.44 10.11.95 15.16 1.57.37.04.74.12 1.12.18 2.26.16 4.5.5 6.73.83 2.87.42 5.74.88 8.6 1.36 3.86.65 7.72 1.37 11.55 2.2 2.07.45 4.13.91 6.2 1.36.33.18.68.25 1.05.29 4.42 1.13 8.83 2.32 13.16 3.75.4.13.86.17 1.17.51z"/><path fill="#F1ECE2" d="M136.13 272.19c1.78.14 3.57.28 5.35.4-1.79-.12-3.57-.26-5.35-.4"/><path fill="#404A5A" d="M79.04 312.04c-.14 0-.26-.04-.35-.15h.09c.02 0 .03.01.05.01.01 0 .03 0 .04.01.02 0 .04.02.06.03 0 0 .02 0 .03.01l.06.06h.01zm-.35-.15c-.14 0-.27-.03-.35-.16h.11c.09.02.17.06.23.15v.01zm-.35-.16c-.15 0-.29-.01-.35-.17v-.01H78c.14 0 .27.03.34.17z"/><path fill="#404A5A" d="M77.99 311.54v.02c-.14 0-.29.02-.34-.17v-.02c.15-.02.28.01.35.17zm-1.37-.87c.1.07.22.12.33.17.08.04.16.07.24.11.14.07.27.16.36.29.03.04.06.1.09.16a2.2 2.2 0 0 1-1.24-.53z"/><path fill="#F1ECE2" d="M108.69 295.6c-.39.06-.78.12-1.16.18-1.5.2-3 .32-4.51.36-.5.01-1.01.02-1.51.01-.51 0-1.01-.02-1.52-.04-.22-.01-.43-.04-.65-.06-.21-.02-.43-.05-.65-.07-.28-.02-.49-.14-.7-.32-.6-.54-1.17-1.1-1.73-1.68 4.14.6 8.28 1.14 12.43 1.63z"/><path fill="#F1ECE2" d="M173.83 225.69c-2.98 0-5.96.04-8.94.09-4.96 7.69-10.31 15.11-16.15 22.16-1.23 1.48-2.47 2.94-3.74 4.38-3.2 3.65-6.54 7.17-10.04 10.53-3.07 2.94-6.24 5.75-9.55 8.39-2.58 2.07-5.25 4.04-8.02 5.87-5.1 3.38-10.45 6.29-16.21 8.41-2.92 1.07-5.9 1.94-8.98 2.45-.17.03-.33.1-.5.15.01.05.03.11.04.16.01.03.02.06.04.09.22.34.44.67.67.99a37.5 37.5 0 0 0 3.79 4.61c4.14.6 8.28 1.14 12.43 1.63 1.11-.17 2.21-.39 3.3-.65 2.53-.6 4.99-1.39 7.4-2.32 1.2-.47 2.39-.97 3.56-1.51a70 70 0 0 0 3.48-1.72c.5-.26.99-.53 1.49-.8 3.44-1.89 6.74-4.01 9.9-6.29 3.17-2.29 6.21-4.75 9.16-7.33.42-.37.84-.74 1.26-1.12.31-.28.61-.56.93-.85 1.89-1.73 3.75-3.51 5.56-5.33.7-.71 1.39-1.42 2.08-2.15 2.27-2.38 4.48-4.81 6.63-7.3 1.29-1.49 2.55-3.01 3.79-4.54.15-.18.3-.37.45-.56a275 275 0 0 0 2.53-3.21c2.63-3.4 5.16-6.87 7.6-10.41 1.32-1.92 2.61-3.85 3.88-5.8q1.065-1.65 2.1-3.3c.95-1.51 1.88-3.04 2.8-4.57-4.25-.1-8.49-.15-12.74-.15"/><path fill="#C18B00" d="M60.39 303.72c-.14.03-.25-.01-.3-.16.15-.03.26 0 .3.16"/><path fill="#FDBF41" d="M148.57 226.31c-2.13.1-4.26.22-6.38.35-2.33 3.3-4.74 6.55-7.26 9.72-2.47 3.12-5 6.18-7.66 9.15-1.51 1.68-3.03 3.35-4.59 4.99-1.1 1.16-2.22 2.31-3.37 3.43-4.57 4.47-9.36 8.69-14.51 12.5-.86.63-1.72 1.25-2.6 1.86a92 92 0 0 1-8.99 5.54c-2.25 1.22-4.57 2.3-6.92 3.29.02.11 0 .23.05.34.33.91.68 1.8 1.06 2.69.37.89.77 1.76 1.19 2.62.84 1.72 1.78 3.4 2.8 5.04l.02.02c.07.1.19.19.28.28.17-.05.33-.12.5-.15 3.07-.51 6.05-1.38 8.98-2.45 5.76-2.11 11.11-5.03 16.21-8.41 2.77-1.83 5.44-3.8 8.02-5.87 3.31-2.65 6.48-5.46 9.55-8.39 3.51-3.36 6.84-6.88 10.04-10.53 1.27-1.44 2.51-2.9 3.74-4.38 5.84-7.05 11.19-14.47 16.15-22.16-5.44.1-10.89.26-16.32.53z"/><path fill="#E7AA24" d="M256.12 144.22s-.07-.01-.1-.01c.03 0 .06 0 .1.01"/><path fill="#E7AA24" d="M255.53 144.45c.17 0 .36 0 .25-.27.08 0 .16.02.25.03q-.075 0-.12.03c-.07.05-.07.16-.05.29-.11 0-.22-.01-.33-.02-.06 0-.13-.01-.19-.02-.13-.01-.27-.03-.4-.04-.3-.04-.61-.1-.9-.17.51-.03 1 .15 1.5.18z"/><path fill="#F1ECE2" d="M100.38 247.53c.22.04.43.07.64.11-4.17 4.03-8.55 7.81-13.22 11.27-1.7 1.26-3.4 2.52-5.24 3.59-.34-1.47-.49-2.97-.66-4.47-.58-4.78-.8-9.58-.81-14.38a242 242 0 0 0 13.75 2.92c1.85.34 3.7.66 5.55.97z"/><path fill="#F10" d="M119.47 228.6c-.49.06-.99.1-1.49.15-4.92 6.26-10.17 12.23-15.87 17.82-.36.36-.73.71-1.09 1.06.17.03.34.06.5.09-.17-.03-.33-.06-.5-.08-4.17 4.03-8.55 7.81-13.22 11.27-1.7 1.26-3.4 2.52-5.24 3.59.02.2.03.41.05.61 0 .06 0 .11.02.17.04.23.09.46.13.69.03.19.06.37.1.56.09.46.18.93.27 1.4.53 2.64 1.16 5.25 1.95 7.82.36 1.15.65 2.33 1.23 3.41 2.35-.99 4.67-2.07 6.92-3.29 3.11-1.68 6.1-3.54 8.99-5.54.88-.6 1.74-1.22 2.6-1.86 5.15-3.8 9.94-8.03 14.51-12.5 1.15-1.12 2.26-2.27 3.37-3.43 1.56-1.64 3.08-3.31 4.59-4.99 2.65-2.97 5.19-6.03 7.66-9.15q3.765-4.77 7.26-9.72c-7.58.46-15.15 1.1-22.71 1.94z"/><path fill="#F1ECE2" d="M101.52 247.72c-.17-.03-.33-.06-.5-.08.17.03.34.06.5.08"/><path fill="#F10" d="M101.02 247.63c-.21-.03-.43-.07-.64-.11l.64.1zm-6.19-1.07"/><path fill="#FDBF41" d="M114.73 229.22c1.07-.23 2.16-.35 3.25-.46-4.92 6.26-10.17 12.23-15.87 17.82-.36.36-.73.71-1.09 1.06l-.64-.1c-1.85-.31-3.7-.63-5.55-.97-3.43-.63-6.86-1.32-10.26-2.1-1.16-.27-2.33-.54-3.49-.82 0-1.81.02-3.63.07-5.45.03-1.08.08-2.15.14-3.22 3.95-.94 7.93-1.77 11.92-2.53 6.82-1.29 13.68-2.34 20.56-3.19.11-.01.22-.03.33-.04.13-.02.26-.03.39-.02.08 0 .16.02.24.04z"/><path fill="#007FFF" d="M236.38 141.82c3.98.49 7.97.97 11.95 1.46a.5.5 0 0 1-.09.12c-2.47-.3-4.95-.59-7.42-.91-.72-.09-1.44-.15-2.16-.23s-1.44-.16-2.15-.3a.8.8 0 0 0-.13-.13z"/><path fill="#F1ECE2" d="M216.88 154.19c.15-.56.29-1.14.44-1.7-.14.57-.29 1.14-.44 1.7m114.4 79.99v-16.43c-.35-1.53-.83-3.02-1.68-4.36-1.37-2.16-3-4.09-5.04-5.67-2.13-1.65-4.31-3.2-6.66-4.52-3.23-1.81-6.59-3.34-9.96-4.85-.6-.27-1.22-.4-1.82-.64-7.62-2.98-15.46-5.22-23.4-7.15-5.08-1.24-10.2-2.3-15.34-3.26-5.77-1.08-11.57-2.01-17.38-2.81a488 488 0 0 0-17.41-2.07c-5.06-.49-10.13-.95-15.2-1.31-2.99-.22-5.99-.41-8.98-.58-2.54-.14-5.09-.27-7.64-.39-4.01-.18-8.01-.32-12.02-.41-.29 0-.58-.02-.87-.02-6.33-.14-12.67-.18-19-.12h-.31c-6.52.06-13.04.21-19.55.48-.39.01-.78.04-1.17.05-7.71.33-15.4.81-23.09 1.46-11.29.95-22.54 2.24-33.73 4-.27.04-.53.09-.8.13-.43 1.52-.82 3.06-1.36 4.55-.38 1.52-.76 3.04-1.15 4.55-1.03 4.03-1.96 8.08-2.77 12.16.57-.1 1.14-.19 1.71-.29.75-.13 1.5-.25 2.24-.38l3.33-.54a448 448 0 0 1 24.16-3.05c2.69-.27 5.39-.52 8.09-.75 4.08-.34 8.17-.63 12.26-.89 3.85-.24 7.7-.43 11.55-.59.99-.04 1.98-.09 2.97-.13 1.47-.06 2.95-.1 4.42-.15.95-.03 1.9-.05 2.86-.07 3.47-.09 6.94-.14 10.41-.17 1.31 0 2.61-.02 3.92-.02 2.24 0 4.48 0 6.71.02q1.215 0 2.43.03l2.61.03c2.37.04 4.73.1 7.1.17s4.73.16 7.1.25c.39.01.78.04 1.17.05 2.54.11 5.08.24 7.61.37 1.95.11 3.9.23 5.85.35 2.92.19 5.85.4 8.77.64 2.69.22 5.38.47 8.08.74.09 0 .19.02.28.03 1.93.19 3.86.38 5.79.58 3.09.31 6.18.68 9.27 1.09 3.08.41 6.16.85 9.24 1.31 1.28.19 2.56.39 3.83.59 3.83.62 7.65 1.3 11.45 2.05 2.24.44 4.47.9 6.7 1.38s4.45 1 6.67 1.54c3.37.83 6.72 1.72 10.03 2.69 4.42 1.3 8.8 2.76 13.09 4.47 1.08.42 2.14.87 3.21 1.32 1.62.7 3.21 1.47 4.79 2.25.39.19.78.38 1.17.58.3.15.61.3.91.45.4.2.8.4 1.19.62.5.27.99.56 1.45.88 1.78 1.23 3.61 2.39 5.26 3.79.38.33.75.66 1.11 1.01.43.36.84.75 1.23 1.14.65.65 1.25 1.35 1.78 2.08.26.36.5.73.73 1.11.2.33.38.66.55 1s.33.69.47 1.06c.15.36.28.73.4 1.1.08.26.17.53.25.79 0 0 0 .02.01.03v-.03c.21-1.11.08-2.23.09-3.35z"/><path fill="#FDBF41" d="M331.35 215.58c.01-4.15.01-8.29 0-12.44 0-1.91-.02-3.83-.03-5.74-.33-1.08-.56-2.19-1.05-3.22-1.25-2.59-3.12-4.67-5.28-6.53-2.36-2.04-4.97-3.73-7.71-5.22a91.4 91.4 0 0 0-12.34-5.61c-4.92-1.82-9.91-3.43-14.97-4.81a296 296 0 0 0-11.66-2.91c-4.45-1.01-8.92-1.9-13.41-2.69-4.66-.81-9.34-1.59-14.03-2.24-2.22-.31-4.45-.6-6.68-.88-4.98-.64-9.97-1.2-14.97-1.64-.93-.09-1.85-.22-2.78-.29-3.78-.29-7.56-.57-11.33-.84l-1.62-.12c-2.52-.18-5.04-.36-7.56-.49-3.28-.16-6.56-.28-9.84-.4H196c-3.43-.12-6.85-.25-10.28-.31-3.02-.05-6.04-.08-9.07-.09-1.33 0-2.66-.01-4-.01-5.3 0-10.59.08-15.88.23h-.23c-6.21.18-12.43.43-18.63.83-4.77.3-9.54.57-14.3.97-1.93.16-3.85.4-5.77.59-6.71.67-13.4 1.45-20.07 2.39l-.23.03c-2.67 6.91-5.07 13.91-7.18 21.02l-.15.53c.26-.04.53-.09.8-.13 11.19-1.76 22.44-3.06 33.73-4 7.69-.64 15.38-1.13 23.09-1.46.39-.02.78-.04 1.17-.05 6.51-.27 13.03-.42 19.55-.48h.31c6.34-.05 12.67-.01 19 .12.29 0 .58.02.87.02 4.01.09 8.01.23 12.02.41 2.55.12 5.09.25 7.64.39 2.99.17 5.99.36 8.98.58 5.07.37 10.14.82 15.2 1.31q2.685.27 5.37.57c4.02.45 8.03.95 12.04 1.5 5.81.8 11.61 1.73 17.38 2.81 5.14.96 10.26 2.02 15.34 3.26 7.94 1.93 15.78 4.17 23.4 7.15.6.24 1.22.37 1.82.64 3.37 1.52 6.73 3.04 9.96 4.85 2.35 1.32 4.53 2.87 6.66 4.52 2.04 1.58 3.67 3.51 5.04 5.67.85 1.34 1.32 2.83 1.68 4.36.14-.72.06-1.45.06-2.17z"/><path fill="#F1ECE2" d="M213.78 58.81c2.76 4.31 4.76 8.97 6.27 13.85.47 1.51.89 3.03 1.27 4.56a85 85 0 0 1 1.51 7.74c.11.76.22 1.52.32 2.29.19 1.53.36 3.06.5 4.59l.18 2.3c.28 4.18.4 8.36.29 12.55-.12 4.38-.38 8.76-.82 13.13-.44 4.34-1.04 8.66-1.76 12.95-.43 2.58-.91 5.15-1.43 7.7-4.14-.33-8.28-.61-12.43-.81-1.99-.09-3.99-.2-5.99-.3 1.35-5.8 2.49-11.64 3.38-17.54.98-6.53 1.68-13.08 1.94-19.67.21-5.6.18-11.21-.27-16.81-.38-4.67-1.01-9.29-2.01-13.87-1.13-5.15-2.72-10.15-5-14.92-.9-1.89-1.96-3.7-3.02-5.5.87-.28 1.78-.31 2.67-.4.47-.05.94-.09 1.4-.12.4-.02.8-.04 1.2-.05q.975-.015 1.95 0c.45.01.91.03 1.36.05.35.02.7.04 1.05.07a1.6 1.6 0 0 1 .76.26c.13.08.26.19.38.3.31.28.61.57.9.86.59.58 1.16 1.19 1.7 1.81 1.37 1.55 2.6 3.2 3.73 4.96z"/><path fill="#FDBF41" d="M204.7 71.47c1 4.57 1.63 9.2 2.01 13.87.46 5.6.49 11.21.27 16.81-.25 6.59-.95 13.14-1.94 19.67-.89 5.9-2.03 11.75-3.38 17.54-1.51-.07-3.03-.15-4.54-.21-3.46-.13-6.91-.21-10.37-.28-1.29-.03-2.58-.05-3.86-.07 1.26-4.75 2.37-9.54 3.32-14.36.72-3.61 1.34-7.24 1.89-10.88.36-2.44.68-4.88.96-7.33.29-2.56.52-5.13.68-7.71.17-2.75.28-5.51.34-8.26.07-3.69-.05-7.37-.32-11.05-.18-2.43-.41-4.85-.72-7.27-.42-3.31-1.02-6.58-1.81-9.82-.63-2.59-1.35-5.17-2.31-7.67.66-.42 1.42-.63 2.15-.9a55 55 0 0 1 4.49-1.45c1.52-.41 3.05-.76 4.61-1.02.11-.02.21-.05.32-.05.07 0 .13 0 .19.02 1.06 1.8 2.12 3.6 3.02 5.5 2.28 4.77 3.87 9.77 5 14.92"/><path fill="#3180F4" d="M248.17 62.99s-.04-.03-.04-.05v-.04l.05.03-.02.05z"/><path fill="#007FFF" d="M331.26 257.24c.01-.26.03-.52.03-.78 0-4.28.01-8.57.01-12.85 0-1.85-.03-3.7-.04-5.55 0-.11.05-.23.04-.34-.03-.07-.07-.12-.1-.18v.02c0-.01 0-.02-.01-.03-.08-.27-.17-.53-.25-.8-.12-.38-.26-.75-.4-1.1-.14-.36-.3-.71-.47-1.06a16 16 0 0 0-1.28-2.11c-.53-.74-1.12-1.43-1.78-2.08q-.585-.585-1.23-1.14c-.36-.36-.73-.69-1.11-1.01-1.65-1.4-3.48-2.56-5.26-3.79-.47-.32-.96-.61-1.45-.88-.39-.21-.79-.42-1.19-.62-.3-.15-.61-.3-.91-.45-.39-.2-.78-.39-1.17-.58-1.58-.78-3.17-1.55-4.79-2.25-1.07-.45-2.13-.9-3.21-1.32-4.3-1.7-8.67-3.17-13.09-4.47-3.32-.98-6.67-1.87-10.03-2.69-2.22-.54-4.44-1.06-6.67-1.54s-4.46-.94-6.7-1.38c-3.81-.75-7.63-1.44-11.45-2.05-1.28-.2-2.55-.4-3.83-.59-3.08-.46-6.15-.9-9.24-1.31-3.08-.41-6.17-.78-9.27-1.09-1.93-.19-3.86-.39-5.79-.58-.09 0-.19-.02-.28-.03-2.69-.27-5.38-.52-8.08-.74-2.92-.24-5.85-.44-8.77-.64-1.95-.13-3.9-.25-5.85-.35-2.54-.14-5.08-.27-7.61-.37-.39-.02-.78-.04-1.17-.05-2.37-.1-4.73-.18-7.1-.25s-4.73-.13-7.1-.17l-2.61-.03-2.43-.03c-2.24-.02-4.48-.03-6.71-.02-1.31 0-2.62.01-3.92.02-3.47.03-6.94.08-10.41.17-.95.02-1.9.05-2.86.07-1.47.04-2.95.09-4.42.15-.99.04-1.98.09-2.97.13-3.85.16-7.7.36-11.55.59-4.09.26-8.18.54-12.26.89-2.7.23-5.4.48-8.09.75a448 448 0 0 0-24.16 3.05q-1.665.255-3.33.54c-.75.12-1.49.25-2.24.38-.57.1-1.14.19-1.71.29.81-4.08 1.74-8.13 2.77-12.16.39-1.52.77-3.03 1.15-4.55.54-1.49.93-3.03 1.36-4.55l.15-.53a275 275 0 0 1 7.18-21.02q2.535-6.57 5.4-13.02c1.28-2.88 2.61-5.75 3.98-8.58 4.53-9.37 9.56-18.48 15.14-27.29 5.21-8.26 10.88-16.18 17.09-23.72.13-.15.23-.33.35-.49 1.87-2.14 3.71-4.3 5.62-6.41 6.22-6.89 12.92-13.27 20.34-18.86 1.83-1.38 3.72-2.68 5.59-4.01.17-.12.38-.14.58-.15.09-.27.34-.39.55-.52 3.83-2.45 7.81-4.63 12-6.39.15-.06.29-.14.45-.19.04-.01.09-.02.14-.03.05 0 .1-.02.15-.02.66-.42 1.42-.63 2.15-.9a55 55 0 0 1 4.49-1.45c1.52-.41 3.05-.76 4.61-1.02.11-.02.21-.05.32-.05.07 0 .13 0 .19.02.87-.28 1.78-.31 2.67-.4.47-.05.94-.09 1.4-.12.4-.02.8-.04 1.2-.05q.975-.015 1.95 0c.45.01.91.03 1.36.05.35.02.7.04 1.05.07a1.6 1.6 0 0 1 .76.26c.13.08.26.19.38.3.31.28.61.57.9.86.59.58 1.16 1.19 1.7 1.81 1.37 1.55 2.6 3.2 3.73 4.96 2.76 4.31 4.76 8.97 6.27 13.85.47 1.51.89 3.03 1.27 4.56a85 85 0 0 1 1.51 7.74c.11.76.22 1.52.32 2.29.19 1.53.36 3.06.5 4.59l.18 2.3c.28 4.18.4 8.36.29 12.55-.12 4.38-.38 8.76-.82 13.13-.44 4.34-1.04 8.66-1.76 12.95-.43 2.58-.91 5.15-1.43 7.7.67.05 1.34.1 2.01.16 4.81.4 9.61.88 14.41 1.32a.8.8 0 0 0-.13-.13c3.98.49 7.97.97 11.95 1.46a.5.5 0 0 1-.09.12c.24.03.48.07.72.1.8-3.94 1.52-7.88 2.13-11.85.54-3.56 1.02-7.13 1.39-10.71.35-3.35.66-6.7.82-10.07.08-1.62.17-3.25.27-4.87.01-.21-.1-.49.23-.58 0-3.02-.02-6.05-.03-9.07-.16-.07-.17-.21-.19-.36-.04-.61-.11-1.21-.13-1.82-.12-4.39-.52-8.75-1.11-13.09-.65-4.81-1.61-9.55-2.94-14.22-.33-1.17-.61-2.35-1.13-3.46l-.11-.4s-.04-.03-.04-.05v-.04c-.03-.14-.05-.28-.1-.42-1.93-5.57-4.45-10.85-7.92-15.65-3.34-4.63-7.37-8.5-12.34-11.38-1.86-1.08-3.88-1.84-5.79-2.81-.17-.09-.39-.07-.59-.11-.17-.22-.44-.28-.67-.39-4.51-2-9.01-4-13.53-5.98-.58-.26-1.11-.64-1.76-.72-.11-.04-.22-.07-.33-.11-.77-.25-1.56-.43-2.3-.78-.07-.02-.13-.04-.2-.07l-.1-.03h-.02c-.08.05-.13.01-.18-.06-1.45-.37-2.9-.65-4.37-.85-1.06-.15-2.12-.26-3.19-.32-.36-.02-.71-.03-1.07-.04-1.07-.03-2.13-.02-3.19.03-1.41.06-2.81.19-4.21.38-2.44.34-4.86.85-7.26 1.51-.34.1-.69.19-1.03.3-4.51 1.34-8.81 3.15-12.96 5.29q-2.07 1.065-4.11 2.25a92 92 0 0 0-3.67 2.21c-.4.25-.8.51-1.2.77s-.8.52-1.19.79c-.79.53-1.57 1.07-2.34 1.63-.38.28-.77.56-1.15.84v.08c0 .02-.02.04-.03.06-.03.03-.07.04-.13.04h-.01v.05c0 .04-.02.06-.04.07s-.04.01-.08 0c-.01 0-.03 0-.04-.02-1.7 1.19-3.35 2.43-4.96 3.72-.72.57-1.43 1.16-2.13 1.75-.11.09-.22.19-.33.28-.72.61-1.44 1.23-2.15 1.86v.05c0 .05-.02.08-.05.11 0 0-.02.01-.03.02-.02.01-.05.02-.08.02-.02.04-.05.08-.08.11-.04.04-.07.08-.12.11-.06.04-.13.08-.21.09 0 .09-.02.14-.06.16-.06.04-.17.01-.25.02-.27.28-.55.56-.82.83-.02.02-.03.04-.05.05v.04c0 .04-.02.06-.04.09h-.01s-.06.03-.12.03c-.24.2-.5.38-.73.59-.02.02-.04.03-.06.05-.88.83-1.77 1.66-2.64 2.51-.06.06-.12.11-.17.16-.27.27-.55.52-.83.78-.7.65-1.42 1.28-2.09 1.96-.36.37-.73.74-1.09 1.1-2.08 2.11-4.14 4.24-6.13 6.44a241 241 0 0 0-7.41 8.59c-.34.42-.69.83-1.03 1.25-.05.06-.11.13-.15.2-.07.1-.14.2-.21.31-.09.14-.18.28-.27.41-.07.1-.14.19-.22.29-.03.03-.05.06-.07.08-.11.12-.22.23-.35.32 0 .03-.01.04-.02.06 0 .02 0 .04-.02.06 0 .01-.02.02-.03.03-.02.01-.05.02-.07.03-.06.28-.29.42-.48.6-.01 0-.02.02-.03.03-.06.05-.1.11-.14.17-.02.03-.04.06-.05.1s-.03.07-.04.11v.05c0 .05-.02.08-.06.11 0 0-.02 0-.02.01h-.08c-.44.55-.89 1.1-1.33 1.65-.02.03-.05.06-.07.09.01.07.01.13 0 .19 0 .05-.03.08-.05.12 0 .01-.02.03-.02.04-.03.03-.07.07-.11.09-.05.03-.11.05-.17.07-.07.08-.14.15-.21.23-.03.03-.05.06-.07.08-.06.06-.11.13-.16.19-1.13 1.52-2.26 3.05-3.39 4.57 0 .05-.02.08-.05.11l-.02.02c-.02.02-.05.03-.08.03-.78 1.1-1.58 2.19-2.35 3.3l-.45.66c-1.15 1.69-2.23 3.43-3.39 5.11-.58.84-1.13 1.7-1.68 2.55-.56.85-1.12 1.7-1.73 2.53-.97 1.33-1.8 2.78-2.65 4.19-.37.61-.74 1.22-1.1 1.83-4.11 6.82-8.1 13.71-11.5 20.92-.2.42-.43.81-.66 1.21-.23.39-.47.79-.67 1.19-1.16 2.33-2.29 4.67-3.39 7.03-.41.88-.81 1.76-1.22 2.65-.53 1.15-1.05 2.31-1.56 3.47-.65 1.47-1.3 2.95-1.94 4.44-.27.62-.53 1.25-.79 1.88-.33.78-.66 1.56-.98 2.35a355 355 0 0 0-3.31 8.37c-.31.82-.62 1.64-.92 2.47-.73 2-1.44 4-2.15 6.01l-.51 1.44c-.13.37-.26.75-.38 1.13-.33.95-.64 1.91-.94 2.87-.37 1.17-.73 2.34-1.09 3.51-.26.84-.52 1.67-.79 2.51-.61 1.87-1.32 3.72-1.56 5.69-.01.1-.13.19-.19.28-.3.82-.48 1.66-.68 2.5-.1.4-.22.8-.34 1.2s-.24.8-.35 1.2c-.46 1.72-.91 3.45-1.33 5.18-.39 1.56-.76 3.14-1.12 4.71-.4 1.77-.78 3.54-1.15 5.31-.32 1.55-.63 3.11-.92 4.67-.23 1.24-.46 2.47-.67 3.71-.19 1.09-.36 2.18-.54 3.27-.22 1.39-.43 2.77-.62 4.16-.17 1.25-.33 2.49-.49 3.74-.42 3.43-.76 6.86-1.03 10.31-.07.99-.14 1.97-.19 2.96-.06.99-.11 1.97-.15 2.96-.08 1.97-.14 3.95-.2 5.92-.01.45-.01.9-.02 1.35v.41c-.01 2.53.09 5.05.17 7.56 0 .11.02.23.02.34.02.45.04.9.07 1.35.09 1.82.24 3.64.43 5.46.13 1.23.27 2.47.43 3.7.02.18.05.35.07.53.34 2.5.73 4.99 1.22 7.46.91 4.62 2.12 9.16 3.78 13.57.03.07.06.15.09.23 1.24 3.26 2.68 6.43 4.45 9.45 2.91 4.97 6.46 9.37 10.99 12.88.54.42 1.09.82 1.65 1.22.54.37 1.12.71 1.68 1.05.1.07.22.12.33.17.08.04.16.07.24.11.14.07.27.16.36.29.03.04.06.1.09.16v-.02c.15-.02.28.01.35.17h.01c.14 0 .27.04.34.17.04 0 .07 0 .1.01h.01c.09.02.17.06.23.15v.01h.09c.02 0 .03.01.06.01.01 0 .03 0 .04.01.02 0 .04.02.06.03 0 0 .02 0 .03.01l.06.06h.01c.19.2.45.25.69.36 4.99 2.21 9.99 4.42 14.98 6.63 2.47 1.09 4.92 2.24 7.53 2.96s5.26 1.21 7.97 1.32h5.4c1.31-.04 2.61-.21 3.9-.41 5.25-.79 10.29-2.34 15.16-4.43 8.92-3.83 16.97-9.06 24.52-15.11 1.66-1.33 3.28-2.7 4.89-4.09 5.61.1 11.21.13 16.82.07 5.34-.06 10.69-.15 16.03-.36.26-.15.54-.15.82-.04h.24c.32-.15.65-.14.98-.04h.24c.19-.12.39-.14.59-.1h.03c.07.02.13.04.19.06h.24a.84.84 0 0 1 .39-.12c.14 0 .28.03.43.07h.24c.09-.05.18-.08.27-.1a1 1 0 0 1 .56.05h.23s.02 0 .03-.01a.95.95 0 0 1 .79-.03h.23c.27-.17.54-.15.83-.05h.23c.27-.16.55-.14.83-.05h.23c.06-.04.11-.06.16-.08.09-.03.17-.03.26-.03.08 0 .17.02.25.06 1.22-.06 2.43-.1 3.65-.17 9.34-.55 18.65-1.29 27.95-2.32 14.12-1.57 28.15-3.68 42.01-6.84 9.44-2.15 18.75-4.73 27.75-8.36 4.83-1.95 9.52-4.18 13.86-7.1 2.61-1.76 5.03-3.74 6.97-6.27 1.22-1.61 2.21-3.34 2.59-5.36.15-.16.21-.35.22-.55.09-1.45.14-2.89.01-4.34zm-125.35-30.59c-2.6-.16-5.19-.3-7.79-.41 2.6.12 5.19.26 7.79.41m-57.67 47.21c-.42.37-.84.75-1.26 1.12a124 124 0 0 1-9.16 7.33c-3.17 2.28-6.46 4.4-9.9 6.29-.49.27-.99.54-1.49.8-1.15.6-2.31 1.17-3.48 1.72-1.17.54-2.36 1.04-3.56 1.51-2.4.94-4.86 1.72-7.4 2.32-1.1.26-2.2.48-3.3.65-.39.06-.78.12-1.16.18-1.5.2-3 .32-4.51.36-.5.01-1.01.02-1.51.01-.51 0-1.01-.02-1.52-.04-.22-.01-.43-.04-.65-.06-.21-.02-.43-.05-.65-.07-.28-.02-.49-.14-.7-.32a37.5 37.5 0 0 1-5.52-6.29c-.23-.33-.45-.66-.67-.99-.02-.03-.03-.06-.04-.09-.01-.05-.03-.11-.04-.16-.09-.09-.21-.18-.28-.28l-.02-.02a52 52 0 0 1-2.8-5.04c-.42-.87-.82-1.73-1.19-2.62-.38-.88-.73-1.78-1.06-2.69-.04-.11-.03-.22-.05-.34-.58-1.08-.87-2.26-1.23-3.41-.8-2.57-1.43-5.18-1.95-7.82l-.27-1.4c-.04-.19-.06-.37-.1-.56-.04-.23-.09-.46-.13-.69 0-.06 0-.11-.02-.17-.02-.2-.03-.41-.05-.61-.34-1.47-.49-2.97-.66-4.47-.58-4.78-.8-9.58-.81-14.38 0-1.81.02-3.63.07-5.45.03-1.08.08-2.15.14-3.22 3.95-.94 7.93-1.77 11.92-2.53 6.82-1.29 13.68-2.34 20.56-3.19.11-.01.22-.03.33-.04.13-.02.26-.03.39-.02.08 0 .16.02.24.04 1.07-.23 2.16-.35 3.25-.46l1.49-.15c7.56-.84 15.13-1.48 22.71-1.94 2.13-.13 4.26-.25 6.38-.35 5.44-.26 10.88-.43 16.32-.53q4.47-.09 8.94-.09c4.25 0 8.5.05 12.74.15-.92 1.53-1.85 3.06-2.8 4.57q-1.035 1.665-2.1 3.3c-1.27 1.95-2.56 3.88-3.88 5.8-2.44 3.54-4.97 7.01-7.6 10.41-.83 1.08-1.67 2.15-2.53 3.21-.15.19-.3.38-.45.56-1.24 1.54-2.5 3.05-3.79 4.54a199 199 0 0 1-6.63 7.3c-.69.72-1.38 1.44-2.08 2.15-1.8 1.82-3.66 3.6-5.56 5.33.58.03 1.16.05 1.74.08-.58-.03-1.16-.05-1.74-.08-.31.28-.62.57-.93.85zm155.54-23.9c-.06.08-.16.16-.32.28-.21.16-.42.33-.64.48-.21.16-.43.31-.65.47q-.615.435-1.26.84c-.05.03-.1.06-.15.1-.35.22-.7.44-1.06.65-.53.32-1.05.62-1.59.92-3.66 2.04-7.51 3.68-11.44 5.13-3.71 1.36-7.47 2.55-11.26 3.61-5.43 1.52-10.93 2.78-16.48 3.88-5.39 1.08-10.8 1.99-16.23 2.78s-10.88 1.45-16.34 2.02c-1.79.19-3.58.36-5.37.53-3.59.33-7.18.61-10.77.85a502 502 0 0 1-17.48.86c-.73.02-1.46.05-2.2.07l-2.02.06c1.65-2.04 3.3-4.07 4.81-6.22.22-.27.44-.54.65-.82 3.23-4.35 6.33-8.78 9.31-13.29.16-.25.99-1.51 1.24-1.9 1.89-2.91 3.72-5.85 5.51-8.83 2.92-4.88 5.71-9.83 8.36-14.85 5.06.44 10.11.95 15.16 1.57.37.04.74.12 1.12.18 2.26.16 4.5.5 6.73.83 2.87.42 5.74.88 8.6 1.36 3.86.65 7.72 1.37 11.55 2.2 2.07.45 4.13.91 6.2 1.36.02 0 .05 0 .07.01.02 0 .04 0 .07.01.13.02.28.02.42.04.18.02.36.07.5.22 4.42 1.13 8.83 2.32 13.16 3.75.4.13.86.17 1.17.51 1.13.2 2.16.67 3.22 1.06.93.34 1.86.7 2.78 1.07 2.63 1.04 5.21 2.19 7.71 3.52.99.52 1.96 1.07 2.92 1.65 1.27.77 2.51 1.58 3.67 2.51.34.27.44.38.31.54z"/><path fill="#F10" d="M331.35 177.89c-.12-2.39-1.03-4.5-2.42-6.42-1.96-2.73-4.49-4.86-7.23-6.74-4.67-3.2-9.78-5.55-15.01-7.65-2.91-1.17-5.86-2.21-8.84-3.17-4.54-1.46-9.15-2.71-13.78-3.85-5.79-1.42-11.61-2.65-17.47-3.72-3.57-.65-7.15-1.28-10.74-1.8-.11 0-.22-.01-.33-.02-.06 0-.13-.01-.19-.02-.13-.01-.27-.03-.4-.04-.3-.04-.61-.1-.9-.17-1.07-.17-2.13-.34-3.2-.52-.62-.09-1.24-.18-1.86-.26-.24-.04-.48-.07-.72-.1-2.47-.3-4.95-.59-7.42-.91-.72-.09-1.44-.15-2.16-.23-.72-.07-1.44-.16-2.15-.3-4.8-.45-9.6-.93-14.41-1.32-.67-.05-1.34-.11-2.01-.16-4.14-.33-8.28-.61-12.43-.81-1.99-.09-3.99-.2-5.99-.3-1.51-.07-3.03-.15-4.54-.21-3.46-.13-6.91-.21-10.37-.28-1.29-.03-2.58-.05-3.86-.07-2.17-.04 0 0 0 0s2.37-9.54 3.32-14.36c.72-3.61 1.34-7.24 1.89-10.88.36-2.44.68-4.88.96-7.33.29-2.56.52-5.13.68-7.71.17-2.75.28-5.51.34-8.26.07-3.69-.05-7.37-.32-11.05-.18-2.43-.41-4.85-.72-7.27-.42-3.31-1.02-6.58-1.81-9.82-.63-2.59-1.35-5.17-2.31-7.67-.05 0-.1 0-.15.02-.05 0-.1.02-.14.03-.16.05-.3.13-.45.19-4.2 1.76-8.17 3.95-12 6.39-.22.14-.46.25-.55.52.92 5.81 1.35 11.65 1.4 17.53.08 8.41-.54 16.77-1.69 25.1-.87 6.27-2.02 12.49-3.42 18.67-1.21 5.36-2.61 10.67-4.17 15.93-3.77.04-7.55.16-11.32.28-5.02.17-10.04.4-15.05.72-4.42.28-8.85.57-13.27.95-5.74.5-11.47 1.06-17.18 1.76-1.37 2.84-2.7 5.7-3.98 8.58q-2.865 6.45-5.4 13.02l.23-.03c6.67-.94 13.37-1.72 20.07-2.39 1.92-.19 3.84-.42 5.77-.59 4.76-.4 9.53-.67 14.3-.97 6.2-.4 12.41-.65 18.63-.83h.23a600 600 0 0 1 19.88-.22c3.02.01 6.05.04 9.07.09 3.43.06 6.85.19 10.28.31h.09c3.28.12 6.56.24 9.84.4 2.52.12 5.04.3 7.56.49l1.62.12c3.78.27 7.55.55 11.33.84.93.07 1.85.2 2.78.29 5 .44 9.99 1 14.97 1.64 2.23.28 4.45.58 6.68.88 4.69.65 9.37 1.43 14.03 2.24 4.49.79 8.97 1.68 13.41 2.69 3.91.89 7.8 1.86 11.66 2.91 5.07 1.38 10.05 2.99 14.97 4.81a94.5 94.5 0 0 1 12.34 5.61c2.74 1.5 5.34 3.18 7.71 5.22 2.15 1.85 4.03 3.93 5.28 6.53.5 1.03.73 2.14 1.05 3.22.01-2.15.03-4.3.04-6.45v-9.58c0-1.16.04-2.33-.02-3.48z"/><path fill="#404A5A" d="M205.12 25.34c-.77-.25-1.56-.43-2.3-.78 0-.1.01-.2.02-.3.92.28 1.79.67 2.6 1.19-.11-.04-.22-.07-.33-.11zm-2.69-.94s.07.03.09.06h-.02c-.08.05-.13.01-.18-.06.04-.01.07-.02.11 0m-92.97 58.17s-.02.08-.05.11l-.02.02c-.02.02-.05.03-.08.03v-.06s.06-.06.09-.08c.02 0 .04-.02.06-.02m4.12-5.25s-.07.07-.11.09c-.05.03-.1.05-.17.07v-.1c0-.03 0-.06.01-.08.02-.05.04-.1.07-.14s.08-.07.12-.11l.15-.09c.01.07.01.13 0 .19 0 .05-.03.08-.05.12 0 .01-.02.03-.02.04z"/><path fill="#215CB5" d="M115.15 75.21s-.02 0-.02.01h-.08c.05-.06.1-.13.15-.19v.05c0 .05-.02.08-.06.11zm.81-1.23c0-.05.04-.09.08-.11.02 0 .04-.01.06-.02 0 .03-.01.04-.02.06 0 .02 0 .04-.02.06 0 .01-.02.02-.03.03-.02.01-.05.02-.07.03z"/><path fill="#FEC35E" d="M186.95 17.33c.19-.08.31 0 .42.15-.17.04-.35.08-.42-.14z"/><path fill="#FDBF41" d="M186.94 17.33h.01l-.01.01z"/><path fill="#404A5A" d="M139.56 48.8c.06-.05.11-.1.17-.16v.04c0 .04-.02.06-.04.09h-.01s-.06.03-.12.03m1.17-1.18c.05-.03.11-.05.18-.05 0 .09-.02.14-.06.16-.06.04-.17.01-.25.02.04-.06.08-.1.13-.13m.75-.5s-.02.08-.05.11c0 0-.02.01-.03.02-.02.01-.05.02-.08.02l.16-.19v.05zm9.91-7.86-.03.06c-.03.03-.07.04-.13.04.05-.06.11-.11.17-.17v.08zm-.18.11v.04c0 .04-.02.06-.04.07s-.04.01-.08 0c-.01 0-.03 0-.04-.02.06-.03.11-.06.17-.09z"/><path fill="#F1ECE2" d="M202.77 24.21c-4.94-2.2-9.89-4.39-14.83-6.6-.2-.09-.4-.02-.58-.13-.17.04-.35.08-.42-.14-.2.09-.39 0-.58-.07-4.33-1.3-8.76-1.7-13.27-1.47-5.97.31-11.69 1.77-17.25 3.92a76 76 0 0 0-6.41 2.81c-.49.24-.98.48-1.46.74-.65.33-1.29.67-1.94 1.02-3.37 1.84-6.64 3.89-9.81 6.09-.66.46-1.32.92-1.97 1.39l-.39.28c-1.56 1.14-3.09 2.3-4.59 3.5a160 160 0 0 0-10.86 9.5c-9.69 9.25-18.3 19.46-26.18 30.28-.2.28-.4.57-.6.85 0 0-.02.07-.04.09s-.05.03-.09.04l-2.12 3.02c-1.18 1.68-2.34 3.36-3.48 5.07-1.08 1.62-2.15 3.26-3.2 4.9-.84 1.3-1.66 2.61-2.47 3.93-.72 1.18-1.44 2.35-2.15 3.53-1 1.67-1.99 3.35-2.97 5.05-.49.85-.97 1.69-1.45 2.55-.05.1-.12.19-.18.29 0 .11-.04.2-.08.29-.04.06-.08.13-.11.19-.45.8-.89 1.61-1.33 2.42-1.66 3.03-3.28 6.09-4.84 9.17a337 337 0 0 0-16.05 37.17c-.75 2.08-1.49 4.17-2.2 6.27-1.31 3.88-2.51 7.79-3.68 11.71-.48 1.61-.95 3.23-1.4 4.85l-.03.12c-.71 2.54-1.37 5.09-1.99 7.65-.57 2.3-1.12 4.61-1.63 6.93-.44 1.98-.84 3.97-1.24 5.96-.09.47-.18.94-.27 1.42-.04.19-.07.38-.11.57-.01.07-.03.14-.04.22-.07.38-.15.75-.22 1.13-.57 3.11-1.08 6.23-1.52 9.37-.43 3.03-.81 6.05-1.13 9.09-.07.68-.13 1.36-.2 2.04 0 .05-.01.1-.01.15-.05.52-.08.89-.12 1.26-.14 1.69-.26 3.39-.36 5.08-.1 1.7-.18 3.4-.23 5.1 0 .22 0 .44-.02.66-.1 3.27-.12 6.53-.02 9.79.1 3.08.27 6.15.56 9.22.28 3.06.67 6.11 1.2 9.16.26 1.49.54 2.97.86 4.44 1.06 4.96 2.49 9.82 4.45 14.52.14.33.27.65.42.98.14.32.29.65.43.97.34.76.7 1.51 1.07 2.25q.93 1.86 1.98 3.63c1.92 3.24 4.18 6.25 6.86 8.97.7.72 1.43 1.4 2.18 2.05 1.41 1.23 2.91 2.36 4.51 3.37.3.19.65.3.87.59.03.04.06.09.08.14.15-.03.26 0 .3.16.62.15 1.12.57 1.69.82 3.04 1.35 6.07 2.7 9.11 4.05 1.73.77 3.47 1.52 5.21 2.28l.22-.2c-.56-.35-1.14-.68-1.68-1.05-.57-.39-1.11-.8-1.65-1.22-4.53-3.52-8.08-7.91-10.99-12.88-1.77-3.02-3.21-6.19-4.45-9.45-.03-.08-.06-.15-.09-.23-1.66-4.41-2.87-8.95-3.78-13.57-.49-2.47-.88-4.96-1.22-7.46-.02-.18-.05-.35-.07-.53-.16-1.23-.3-2.47-.43-3.7-.19-1.82-.33-3.63-.43-5.46-.02-.45-.05-.9-.07-1.35 0-.11-.01-.23-.02-.34-.09-2.52-.18-5.04-.17-7.56v-.41c0-.45 0-.9.02-1.35.06-1.98.12-3.95.2-5.92.04-.99.09-1.97.15-2.96s.12-1.97.19-2.96c.26-3.45.61-6.88 1.03-10.31.15-1.25.31-2.49.49-3.74.19-1.39.4-2.78.62-4.16q.255-1.635.54-3.27c.21-1.24.44-2.47.67-3.71.29-1.56.6-3.11.92-4.67.37-1.77.75-3.55 1.15-5.31.36-1.57.73-3.14 1.12-4.71.43-1.73.87-3.46 1.33-5.18.11-.4.23-.8.35-1.2s.24-.8.34-1.2c.21-.84.38-1.68.68-2.5.07-.09.18-.18.19-.28.24-1.98.95-3.83 1.56-5.69.27-.83.53-1.67.79-2.51.36-1.17.72-2.34 1.09-3.51.3-.96.61-1.92.94-2.87.13-.37.25-.75.38-1.13l.51-1.44c.72-2 1.42-4.01 2.15-6.01.3-.82.61-1.65.92-2.47 1.07-2.81 2.17-5.6 3.31-8.37.32-.79.65-1.57.98-2.35.27-.63.53-1.25.79-1.88.64-1.48 1.29-2.96 1.94-4.44.51-1.16 1.03-2.31 1.56-3.47.4-.89.81-1.76 1.22-2.65 1.1-2.36 2.22-4.7 3.39-7.03.2-.41.44-.8.67-1.19s.46-.79.66-1.21c3.4-7.21 7.39-14.1 11.5-20.92.37-.61.73-1.22 1.1-1.83.86-1.42 1.68-2.86 2.65-4.19.61-.83 1.17-1.67 1.73-2.53.56-.85 1.11-1.71 1.68-2.55 1.16-1.68 2.24-3.42 3.39-5.11l.45-.66c.77-1.11 1.57-2.2 2.35-3.3v-.06s.06-.06.09-.08c.02 0 .04-.02.06-.02 1.13-1.52 2.26-3.05 3.39-4.57.05-.07.11-.13.16-.19.03-.03.05-.06.07-.08.07-.08.14-.15.21-.23v-.1c0-.03 0-.06.01-.08.02-.06.04-.1.07-.14s.08-.07.12-.11l.15-.09a.6.6 0 0 0 .07-.09c.44-.55.89-1.1 1.33-1.65.05-.06.1-.13.15-.19 0-.04.02-.07.04-.11.01-.03.03-.07.05-.1.04-.06.09-.12.14-.17 0-.01.02-.02.03-.03.19-.18.43-.33.48-.6v-.05c0-.05.04-.09.08-.11.02 0 .04-.01.06-.02.13-.1.25-.2.35-.32.03-.03.05-.06.07-.08.08-.09.15-.19.22-.29.09-.13.18-.27.27-.41.07-.1.14-.21.21-.31.05-.07.1-.14.15-.2.34-.42.69-.84 1.03-1.25 2.4-2.93 4.87-5.79 7.41-8.59 1.99-2.2 4.05-4.33 6.13-6.44.36-.37.73-.74 1.09-1.1.68-.68 1.39-1.31 2.09-1.96.28-.26.56-.51.83-.78.06-.05.11-.11.17-.16.87-.84 1.76-1.68 2.64-2.51.02-.02.04-.03.06-.05.23-.21.49-.4.73-.59.06-.05.11-.1.17-.16l.05-.05c.27-.28.55-.55.82-.83.04-.06.08-.1.13-.13s.11-.05.18-.05c.08-.01.15-.05.21-.09.04-.03.08-.07.12-.11.03-.03.05-.07.08-.11l.16-.19c.71-.63 1.42-1.25 2.15-1.86.11-.09.22-.18.33-.28.7-.59 1.41-1.17 2.13-1.75 1.61-1.29 3.27-2.54 4.96-3.72.06-.03.11-.06.17-.09h.01c.05-.07.11-.13.17-.18.38-.28.77-.57 1.15-.84.77-.56 1.56-1.1 2.34-1.63.39-.26.79-.53 1.19-.78.4-.26.8-.52 1.2-.77a109 109 0 0 1 7.78-4.46c4.16-2.14 8.46-3.95 12.96-5.29l1.03-.3c2.4-.67 4.81-1.18 7.26-1.51 1.39-.19 2.8-.32 4.21-.38 1.06-.05 2.12-.06 3.19-.03.36.01.71.02 1.07.04 1.07.06 2.13.17 3.19.32 1.47.2 2.92.48 4.37.85.04-.01.07-.02.11 0 .04 0 .07.03.09.06l.1.03c.07.02.13.04.2.07 0-.1.01-.2.02-.3a.2.2 0 0 0-.07-.05z"/><path fill="#FDBF41" d="M186.95 17.33c-.07-.31-.37-.34-.59-.44-4.26-1.89-8.52-3.79-12.8-5.66-1.14-.5-2.24-1.08-3.42-1.48-.13.08-.27.07-.41.02-2.93-.96-5.97-1.44-9.03-1.63-2.81-.17-5.63 0-8.42.37-2.3.31-4.56.79-6.8 1.39a68.5 68.5 0 0 0-12.56 4.75c-1.55.77-3.05 1.64-4.58 2.45-.51.27-1.04.51-1.53.8-4.38 2.61-8.63 5.42-12.66 8.55-1.01.78-2.04 1.54-2.98 2.39-.61.55-1.2 1.11-1.86 1.59-.12.09-.25.18-.4.27-.11.1-.22.19-.33.28V31c-.05.13-.1.25-.18.32-.05.04-.1.06-.16.07h-.12s-.06-.02-.1-.03c-.03.02-.06.04-.08.06-.35.25-.54.68-.86.93-.05.04-.1.07-.15.1-.84.44-1.35 1.23-2.1 1.77-.72.52-1.32 1.21-1.98 1.82-3.27 3.01-6.36 6.2-9.42 9.42-.94.99-1.78 2.05-2.68 3.08-.52.59-1.1 1.11-1.61 1.69-1.39 1.59-2.74 3.22-4.11 4.82a54 54 0 0 0-2.89 3.69c-.72 1.01-1.58 1.91-2.35 2.88-2.33 2.99-4.54 6.07-6.75 9.14-2.18 3.03-4.18 6.18-6.25 9.29-1.86 2.79-3.57 5.68-5.34 8.54-.65 1.06-1.23 2.16-1.89 3.22a85 85 0 0 0-3.17 5.59c-.62.74-.99 1.64-1.46 2.47-.98 1.74-1.92 3.5-2.77 5.31-.27.58-.66 1.07-.94 1.65-.79 1.61-1.59 3.22-2.42 4.82-2.07 4.02-3.89 8.15-5.78 12.26-2.05 4.44-3.87 8.99-5.67 13.54-1.22 3.09-2.45 6.18-3.42 9.36-.16.52-.46.99-.64 1.5-.94 2.74-1.88 5.47-2.77 8.22-.83 2.53-1.61 5.08-2.36 7.63-.72 2.46-1.41 4.92-2.07 7.39-1.29 4.79-2.47 9.61-3.48 14.46-.26 1.29-.52 2.58-.77 3.87-.86 4.39-1.62 8.81-2.24 13.25q-.87 6.33-1.44 12.69l-.09 1.17v1.08-1.08c-.18 2.32-.32 4.65-.41 6.99-.11 2.67-.13 5.34-.15 8.01 0 1.27.13 2.55.12 3.83-.02 1.95.15 3.89.26 5.83.04.71.07 1.43.14 2.15.01.12.03.25.04.37.23 1.87.38 3.75.64 5.61.25 1.81.5 3.62.83 5.41.48 2.5.93 5 1.7 7.43.24.76.37 1.56.59 2.34.46 1.7 1.01 3.38 1.61 5.03.87 2.37 1.87 4.69 2.95 6.97 1.67 3.5 3.74 6.76 6.17 9.78 2.3 2.87 4.93 5.4 7.94 7.52.12.09.25.17.38.25l.66.42c.12.08.25.16.38.24.42.26.83.53 1.23.82 0 0 .01 0 .02.01.12.09.24.18.36.28 0 .02.02.04.03.06.07.1.21.11.32.16 5.2 2.3 10.39 4.6 15.59 6.9.21.09.41.23.66.17-.03-.05-.05-.09-.08-.14-.22-.29-.57-.4-.87-.59a38.3 38.3 0 0 1-6.69-5.42c-2.68-2.72-4.94-5.74-6.86-8.97q-1.05-1.77-1.98-3.63a58 58 0 0 1-1.5-3.23c-.14-.33-.28-.65-.42-.98-1.96-4.7-3.38-9.56-4.45-14.52-.32-1.47-.6-2.95-.86-4.44-.52-3.04-.91-6.09-1.2-9.16-.29-3.06-.46-6.14-.56-9.22-.1-3.26-.08-6.53.02-9.79.01-.22.01-.44.02-.66.06-1.7.14-3.4.23-5.1.1-1.69.22-3.39.36-5.08.03-.37.07-.74.12-1.26 0-.05.01-.1.01-.15.06-.68.12-1.36.2-2.04.31-3.04.7-6.07 1.13-9.09.45-3.14.96-6.26 1.52-9.37.07-.38.15-.75.22-1.13.01-.07.03-.14.04-.22.04-.19.07-.38.11-.57a242 242 0 0 1 1.51-7.38c.51-2.32 1.06-4.63 1.63-6.93.63-2.56 1.29-5.11 1.99-7.65 0-.04.02-.08.03-.12.45-1.62.92-3.24 1.4-4.85 1.17-3.92 2.38-7.83 3.68-11.71.71-2.1 1.45-4.19 2.2-6.27 1.42-3.93 2.91-7.83 4.48-11.69a332 332 0 0 1 11.57-25.48c1.56-3.08 3.18-6.14 4.84-9.17.44-.81.89-1.62 1.33-2.42.04-.06.08-.13.11-.19a.5.5 0 0 0 .08-.29c.06-.1.13-.2.18-.29.48-.85.96-1.7 1.45-2.55.98-1.69 1.96-3.37 2.97-5.05.71-1.18 1.43-2.36 2.15-3.53.81-1.32 1.63-2.63 2.47-3.93 1.05-1.64 2.12-3.28 3.2-4.9 1.14-1.71 2.3-3.39 3.48-5.07.7-1.01 1.41-2.01 2.12-3.02v-.06c0-.01.01-.03.02-.04.02-.03.06-.04.1-.04.2-.28.39-.57.6-.85 7.88-10.82 16.49-21.02 26.18-30.28 3.49-3.33 7.09-6.51 10.86-9.5 1.5-1.2 3.03-2.36 4.59-3.5l.39-.28c.65-.47 1.31-.93 1.97-1.39 3.18-2.2 6.44-4.25 9.81-6.09.64-.35 1.29-.69 1.94-1.02.49-.25.97-.5 1.46-.74.42-.21.84-.41 1.26-.61 1.69-.79 3.4-1.53 5.15-2.2 5.56-2.14 11.28-3.6 17.25-3.92 4.5-.24 8.93.16 13.27 1.47.19.06.38.15.58.07 0 0 0-.01 0 0zM18 238.32v.28z"/><path fill="#C18B00" d="M91.53 76.21s.06-.04.1-.04c0 .04-.02.07-.04.09s-.05.03-.09.04v-.06c0-.01.01-.03.02-.04zm16.58-45.13c.06-.07.13-.11.23-.12.06 0 .14 0 .22.02V31c-.05.13-.1.25-.18.32-.05.04-.1.06-.16.07h-.12s-.06-.02-.1-.03c.02-.12.06-.22.12-.28z"/><path fill="#F10" d="M169.2 9.34c-3.87-1.73-7.75-3.41-11.6-5.16-4.41-2.01-8.99-3.25-13.84-3.48-1.22 0-2.45 0-3.67.01h-1.43c-2.44.13-4.85.49-7.24 1-7.05 1.5-13.61 4.26-19.9 7.72-6.33 3.48-12.21 7.64-17.8 12.2-.71.58-1.48 1.11-2.1 1.81-.05.02-.1.06-.13.11v.06h-.06c-.16.13-.32.25-.48.38-6.19 5.3-11.94 11.05-17.38 17.12-6.46 7.22-12.42 14.84-17.99 22.76-8.3 11.8-15.65 24.18-22.2 37.03-4.42 8.66-8.44 17.51-12.06 26.54-3.77 9.42-7.23 18.96-10.01 28.73-.31 1.08-.69 2.15-1 3.23-2.28 8.05-4.25 16.17-5.8 24.39-1.32 6.97-2.37 13.97-3.06 21.03-.51 5.12-.86 10.25-.84 15.4 0 2.34.01 4.68.02 7.02.03.32.04.64.05.96.01.5 0 .99-.02 1.49.02 2.85.26 5.68.53 8.52.45 4.63 1.15 9.21 2.18 13.74 1.28 5.68 3.03 11.19 5.52 16.46 2.67 5.64 6.06 10.77 10.64 15.06 2.67 2.5 5.61 4.61 8.92 6.16 2.94 1.38 5.92 2.67 8.9 3.98 2.04.9 4.06 1.87 6.14 2.67-.12-.09-.24-.19-.36-.28 0 0-.01 0-.02-.01-.4-.29-.81-.56-1.23-.82-.13-.08-.25-.16-.38-.24-.22-.14-.44-.27-.66-.42-.13-.08-.25-.17-.38-.25-3.01-2.13-5.63-4.65-7.94-7.52-2.43-3.02-4.5-6.28-6.17-9.78-1.09-2.28-2.09-4.6-2.95-6.97-.6-1.65-1.15-3.33-1.61-5.03-.21-.77-.35-1.57-.59-2.34-.77-2.43-1.23-4.93-1.7-7.43-.34-1.79-.58-3.6-.83-5.41-.26-1.86-.42-3.74-.64-5.61-.01-.12-.03-.25-.04-.37v7.17-7.17c-.07-.71-.1-1.43-.14-2.15-.1-1.94-.27-3.88-.26-5.83 0-1.27-.13-2.55-.12-3.83.02-2.67.05-5.34.15-8.01.09-2.33.23-4.66.41-6.99l.09-1.17q.57-6.36 1.44-12.69c.62-4.44 1.38-8.86 2.24-13.25.25-1.29.51-2.58.77-3.87 1-4.86 2.19-9.67 3.48-14.46.66-2.47 1.35-4.94 2.07-7.39.75-2.56 1.53-5.1 2.36-7.63.9-2.75 1.84-5.49 2.77-8.22.17-.52.48-.99.64-1.5.98-3.18 2.2-6.27 3.42-9.36 1.8-4.55 3.62-9.09 5.67-13.54 1.89-4.1 3.71-8.24 5.78-12.26.82-1.6 1.63-3.21 2.42-4.82.28-.57.68-1.07.94-1.65.85-1.81 1.79-3.57 2.77-5.31.47-.83.84-1.73 1.46-2.47.99-1.9 2.04-3.77 3.17-5.59.66-1.05 1.24-2.16 1.89-3.22 1.76-2.86 3.47-5.74 5.34-8.54 2.07-3.11 4.07-6.26 6.25-9.29 2.21-3.07 4.42-6.15 6.75-9.14.76-.98 1.62-1.87 2.35-2.88.91-1.27 1.87-2.5 2.89-3.69 1.37-1.61 2.72-3.24 4.11-4.82.51-.58 1.09-1.1 1.61-1.69.9-1.02 1.74-2.09 2.68-3.08 3.06-3.22 6.15-6.41 9.42-9.42.66-.61 1.26-1.3 1.98-1.82.75-.54 1.25-1.33 2.1-1.77.05-.03.11-.06.15-.1.32-.25.51-.68.86-.93.03-.02.06-.04.08-.06.02-.12.06-.22.12-.28.06-.07.13-.11.23-.12.06 0 .14 0 .22.02.11-.09.22-.19.33-.28.15-.1.27-.18.4-.27.66-.48 1.25-1.03 1.86-1.59.94-.86 1.98-1.61 2.98-2.39 4.03-3.13 8.28-5.94 12.66-8.55.5-.29 1.02-.53 1.53-.8 1.53-.82 3.03-1.69 4.58-2.45 4.03-1.99 8.22-3.58 12.56-4.75 2.24-.6 4.5-1.07 6.8-1.39 2.79-.38 5.61-.54 8.42-.37 3.07.19 6.1.67 9.03 1.63.15.05.28.06.41-.02-.25-.27-.63-.27-.94-.41z"/><path fill="#F10" d="M108.22 29.96s-.05-.04-.07-.05c.03.02.05.03.07.05m-.52-.32c.11.05.21.11.31.17-.1-.06-.2-.12-.31-.17"/><path fill="#FEC35E" d="M143.76.69h-3.67c-.48.02-.96.02-1.43.02-.02-.06-.05-.12-.07-.18 1.74 0 3.49 0 5.23-.02z"/><path fill="#C18B00" d="M91.46 23.62h-.03v-.06h.07v.07h-.03z"/><path fill="url(#a)" d="M303.63 250.1c.5-.39.5-.43 0-.82-1.16-.93-2.4-1.74-3.67-2.51-4.24-2.57-8.77-4.53-13.41-6.23-1.06-.39-2.09-.86-3.22-1.06-.31-.35-.77-.38-1.17-.51-4.33-1.44-8.74-2.62-13.16-3.75-.37-.03-.73-.11-1.05-.29-2.07-.45-4.14-.91-6.2-1.36-3.83-.83-7.68-1.55-11.54-2.2a496 496 0 0 0-8.6-1.36c-2.24-.33-4.48-.67-6.74-.83-.37-.06-.74-.13-1.12-.18-7.91-.97-15.83-1.7-23.78-2.25-5.19-.35-10.38-.63-15.58-.83-6.79-.26-13.59-.38-20.39-.38-8.43 0-16.85.21-25.26.62-9.72.47-19.42 1.21-29.09 2.29-1.58.18-3.18.28-4.74.62-.32-.09-.63 0-.95.03-6.89.85-13.75 1.9-20.57 3.19-4.03.76-8.04 1.6-12.02 2.55l-.08.13s-1.03 14.82 1.25 29.29c3.93.93 7.88 1.76 11.84 2.5 3.54.66 7.09 1.29 10.66 1.8 5 .72 10.01 1.45 15.04 1.97 4.89.51 9.77 1.04 14.67 1.4 2.9.21 5.79.46 8.69.63 4.29.25 8.59.46 12.88.61 3.92.14 7.84.25 11.76.3 6.27.08 12.55.05 18.82-.08 6.04-.13 12.08-.36 18.11-.7q10.785-.6 21.54-1.71c10.93-1.13 21.8-2.65 32.57-4.8 9.41-1.88 18.71-4.18 27.73-7.5 3.93-1.44 7.78-3.09 11.44-5.13 1.86-1.03 3.66-2.15 5.34-3.46z" opacity=".48"/><defs><linearGradient id="a" x1="193.023" x2="191.634" y1="231.049" y2="266.921" gradientUnits="userSpaceOnUse"><stop offset=".16" stop-color="#191919"/><stop offset=".97" stop-color="#191919" stop-opacity="0"/></linearGradient></defs></svg>