<svg xmlns="http://www.w3.org/2000/svg" data-name="Layer 2" viewBox="0 0 14.4 12.76"><defs><linearGradient id="a" x1="14.6" x2="-1.87" y1="19.09" y2="30.28" gradientTransform="matrix(1 0 0 -1 0 28.63)" gradientUnits="userSpaceOnUse"><stop offset="0" stop-color="#5433ff"/><stop offset=".5" stop-color="#20bdff"/><stop offset="1" stop-color="#5cffa2"/></linearGradient></defs><path d="m14.16 2.72-5.27 9.13c-.16.27-.39.5-.66.66s-.59.24-.91.24-.63-.08-.91-.24-.51-.39-.66-.66l-.92-1.6v-.03h.03c.33.33.8.49 1.27.42.23-.03.45-.11.64-.24s.35-.3.47-.5l4.41-7.65a1.507 1.507 0 0 0-.92-2.22c-.02 0-.02-.01-.02-.02 0-.02.01-.02.02-.02h1.87c.32 0 .63.08.91.24s.5.39.66.66.24.59.24.91-.08.63-.24.91ZM7.92 0H6.09s-.01.01-.01.02 0 .02.01.02c.12.05.23.12.33.22s.16.21.21.33.06.26.05.39-.05.26-.12.37L3.9 5.96c-.14.24-.38.4-.65.44a.93.93 0 0 1-.75-.22h-.03v.03l.93 1.62c.1.18.26.33.44.44s.39.16.6.16.42-.06.6-.16.33-.26.44-.44l3.48-6.02c.1-.18.16-.39.16-.6s-.06-.42-.16-.6S8.7.28 8.52.17 8.13 0 7.92 0M1.58 0C1.27 0 .96.09.7.27S.24.69.12.98s-.15.6-.09.91.21.59.43.81.5.37.81.43.62.03.91-.09.53-.32.71-.58.27-.56.27-.88q0-.315-.12-.6C2.92.695 2.84.62 2.7.47S2.38.21 2.19.13s-.4-.12-.6-.12Z" data-name="Layer 1" style="fill:url(#a)"/></svg>