<svg xmlns="http://www.w3.org/2000/svg" id="Layer_2" data-name="Layer 2" viewBox="0 0 405.26 394.08"><defs><style>.cls-1{fill:#8b8cf3}</style></defs><g id="Layer_1-2" data-name="Layer 1"><g id="VL0J6S.tif"><path d="M398.61 236.58c-20.28 35.02-45.65 68.72-66.95 103.24-16.37 19.6-43.19 10.77-65.35 12.33l-3.57 41.93-1.53-.32-52.44-91.44 54.48-101.25c.9.26.96 2.47 1.01 3.23.48 7.32.34 15.18.5 22.5.18 8.26-.44 16.56.48 24.77l36.24.98c6 .16 12.73.98 18.71 1.02 22.49.14 51.52-.94 71.27-12.41l7.16-4.59Z" style="fill:#c39af7"/><path d="M149.85.58c40.39-1.83 82.11 1.38 122.65-.02 10 .96 18.75 5.68 25.2 13.28l22.31 34.78 38.14-19.54-48.69 94.5-1.02.47-114.62 8.52 41.42-28.32-.34-1.53c-9.33-15.24-18.51-30.58-28.09-45.65-.18-.28-.2-1.07-.57-1.65C192.17 33.44 175.59 9.4 149.87.57Z" class="cls-1"/><path d="m320.19 253.58-47.95-83.99 83.7-47.51.68.04 46.37 81.34c4.53 12.31 1.89 22.31-4.38 33.13l-7.16 4.59c-19.74 11.48-48.77 12.56-71.27 12.41Z" style="fill:#695890"/><path d="M149.85.58c25.72 8.83 42.3 32.87 56.37 54.85.37.58.39 1.37.57 1.65l-44.28 84.96-85.37-43.46c-.66-1.03 1.88-5.26 2.52-6.52 11.61-23.04 23.82-48.18 36.46-70.5C123.94 7.78 133.77 1.31 149.85.58m-54.94 251h96.41v96.5H98.16c-11.33 0-23.06-11.84-28.22-21 .93-.52.44-1.8.36-2.6-2.7-26.15 11.81-51.31 24.62-72.9Z" style="fill:#4f5294"/><path d="M193.06 132.58c.32.17.32.33 0 .5zM69.93 327.08c-20.02-35.52-36.88-73.09-56.19-109.01-3.07-9.03-2.63-18.19.99-26.99l20.69-35.66L0 130.58h108.39l60.43 98.26-45.4-23.72c-9.09 15.74-19.24 30.84-28.51 46.47-12.81 21.59-27.31 46.75-24.62 72.9.08.8.57 2.08-.36 2.6Z" class="cls-1"/></g></g></svg>