<svg xmlns="http://www.w3.org/2000/svg" id="Layer_2" data-name="Layer 2" viewBox="0 0 349.97 312.18"><defs><style>.cls-1{fill:#fdfdfd}</style></defs><g id="Layer_1-2" data-name="Layer 1"><g id="tD1Ibf.tif"><path d="M131.91.64c30.39-1.7 61.36.57 91.76.36 20.87 2.3 40.63 11.27 56.21 25.21 13.97 12.51 31.35 30.03 43.96 43.95 34.16 37.7 35.17 94.81 1 132.9-26.07 29.06-57.63 55.31-84.17 84.17-39.54 34.53-95.48 32.78-133.9-2.5-28.07-25.78-53.76-55.56-81.67-81.67-35.42-41.39-32.69-96.42 4-135.9C40.42 54.98 54.11 41.2 66.31 29.95 85.36 12.38 105.55 2.11 131.91.64m-1.49 30.97c-14.67 1.59-28.12 7.6-39.13 17.32-13.12 11.58-29.9 28.67-41.71 41.71-23.85 26.34-24.94 64.02-1.74 91.18 27.04 24.84 51.5 54.21 78.42 78.93 26.87 24.67 61.86 28.08 91.42 5.47 26.15-26.93 55.36-52.56 80.7-80.15 25.3-27.55 28.2-63.56 4.24-93.18-25.96-22.31-46.39-58.75-83.93-61.43-28.52-2.03-59.49 1.38-88.26.14Z" class="cls-1"/><path d="M138.41 46.59c23.64-1.53 48.51.84 72.28-.14 15.48.85 27.74 6 39.22 16.22s24.92 23.91 34.97 34.96c20.74 22.79 23.49 52.97 4.47 77.92-24.87 23.73-48.35 51.66-73.91 74.45-22.96 20.46-54.98 22.21-78.67 1.73-25.99-22.46-49.2-51.79-74.95-74.91-19.76-24.36-17.9-55.62 2.74-78.69 7.76-8.68 17.74-18.09 26.23-26.22 15.49-14.86 24.73-23.83 47.62-25.32m-1 30.97c-5.37.68-10.41 3.04-14.62 6.36-15.31 19.88-61.69 44.1-36.99 73.42l71.45 71.41c10.12 8.11 25.01 8.34 35.21.27l72.41-72.45c8.86-10.81 8.48-24.87-.47-35.46-10.96-12.98-26.13-24.56-37.47-37.46-4.12-3.38-9.9-5.84-15.22-6.26-23.84-1.86-50.21 1.31-74.3.17" class="cls-1"/><path d="M145.35 92h59.24l49.26 49.2-78.69 79.54L96.1 142l.42-1.42z" class="cls-1"/></g></g></svg>