<svg xmlns="http://www.w3.org/2000/svg" id="Layer_2" data-name="Layer 2" viewBox="0 0 125.18 116"><defs><style>.cls-1{fill:#fcfcfc}</style></defs><g id="Layer_1-2" data-name="Layer 1"><g id="fxblpv.tif"><path d="M43.51.66C53.04-.23 79.43-.56 88 1.87c6.66 1.89 11.76 6.25 15.72 11.73 5.1 7.06 20.53 32.88 21.33 40.51 1.5 14.33-10.06 31.15-17.54 43.17-4.92 7.92-11.22 17.35-21.63 18.3-14.61 1.33-31.22-1.06-46.04 0-7.55-1.36-13.38-5.57-17.84-11.61-5.4-7.32-11.65-18.75-15.98-26.92-7.7-14.54-8.17-21.23-.5-36.03 4.13-7.97 9.93-18.06 14.88-25.52C26.22 6.73 32.58 1.68 43.51.66m18.1 50.65C58.14 44.55 54.66 37 50.69 30.56c-2.34-3.79-4.59-7.73-9.79-7.09-2.09.26-4.13 1.45-5.51 2.99-2.99 3.35-12.92 21.85-14.88 26.52-1.91 4.53-1.62 6.51.16 10.98 1.63 4.07 13.14 25.4 15.68 27.71 5.31 4.81 10.44.94 13.65-3.83 4.69-6.98 7.41-15.4 12.59-22.06.87 2.21 2.17 4.81 3.37 6.84 2.31 3.91 8.71 16.47 11.31 18.89 3.39 3.15 8.29 2.76 11.52-.38 2.44-2.36 14.18-23.85 15.68-27.72s1.11-6.46-.45-10.26C101.46 46.9 94.75 35.09 91 29.27c-1.52-2.35-2.87-4.9-5.87-5.61-4.71-1.1-7.69 1.32-10.13 4.92-4.54 6.68-7.7 15.39-12.17 22.24l-1.22.52Z" class="cls-1"/><path d="M40.94 29.95c1.92-.63 3.23 1.98 4.07 3.28 4.98 7.8 8.86 17.26 13.58 25.31L42.9 86.7c-2.45 1.85-4.24-2.79-5.37-4.68-3.04-5.07-6.55-11.47-9.18-16.76-1.92-3.87-3.73-5.35-1.83-9.81 2.75-6.45 8.75-16.72 12.5-22.91.41-.67 1.28-2.39 1.92-2.6Zm43.08 57.13c-1.76 1.03-3.35-1.79-4.13-2.94-5.29-7.77-8.65-17.64-13.79-25.61 4.52-7.85 8.31-16.2 12.91-23.99 2.28-3.87 3.22-7.43 6.67-1.99 3.75 5.91 9.36 15.91 12.19 22.23 1.34 2.99 1.65 3.71.32 6.83z" class="cls-1"/></g></g></svg>