<svg xmlns="http://www.w3.org/2000/svg" data-name="Layer 2" viewBox="0 0 127.06 142.35"><path d="M63.17 0c1.95-.1 4.32.79 6.1 1.61 17.26 8 34.45 21.57 51.8 29.99 3.69 2.09 5.24 5.78 5.55 9.92 1.43 19.33-1.13 40.39 0 59.9-.68 7.96-6.19 9.68-12.15 13.29-14.87 9.01-30.35 17.06-45.19 26.13-4.45 1.97-7.06 2.03-11.51 0-16.07-10.78-35.7-18.96-51.5-29.79-4.22-2.89-5.49-5.45-5.84-10.62-1.32-19.26 1.05-39.99 0-59.41.41-4.79 2.32-7.24 6.15-9.81C22.51 20.54 41.62 12.29 57.76 1.62 59.26.94 61.55.09 63.17.01ZM50.8 44.8c-.91-.24-1.75-.46-2.72-.53-6.02-.43-16-.48-21.99 0-.88.07-2.05.13-2.71.77l32.63 37.19.37 24.57 6.1 7.37 1.43.41 7.23-7.78V83.06L46.57 51.75c-1.75-2.16 5.1-5.72 4.23-6.95m53.35-.01H76.23c.7 1.7 5.79 5.77 5.43 7.13L66.83 68.55c-.17.88 7.22 9.77 8.08 9.62l29.24-33.39Z" data-name="Layer 1" style="fill:#fdfdfd"/></svg>