<svg xmlns="http://www.w3.org/2000/svg" fill="none" viewBox="0 0 24 24"><rect width="24" height="24" fill="#181A1F" rx="12"/><path fill="#F3BA2F" d="m8.856 20.794-.16-.165a.638.638 0 0 1-.136.1.342.342 0 0 1-.165.036.324.324 0 0 1-.136-.028.338.338 0 0 1-.171-.195.403.403 0 0 1-.025-.141v-.003a.39.39 0 0 1 .093-.256.319.319 0 0 1 .239-.106c.058 0 .11.012.155.035a.6.6 0 0 1 .138.096l.16-.187a.677.677 0 0 0-.085-.073.52.52 0 0 0-.22-.093.738.738 0 0 0-.146-.013.597.597 0 0 0-.43.177.606.606 0 0 0-.167.423v.003a.618.618 0 0 0 .167.424.583.583 0 0 0 .42.173.697.697 0 0 0 .273-.055.565.565 0 0 0 .105-.066.839.839 0 0 0 .091-.086Zm1.367-.394v-.002a.588.588 0 0 0-.362-.55.608.608 0 0 0-.244-.047.62.62 0 0 0-.438.177.597.597 0 0 0-.172.423v.003c0 .083.015.16.044.234a.6.6 0 0 0 .126.189.635.635 0 0 0 .193.127.624.624 0 0 0 .244.047.596.596 0 0 0 .61-.6Zm-.263.004a.38.38 0 0 1-.096.255.308.308 0 0 1-.108.078.34.34 0 0 1-.14.028.344.344 0 0 1-.14-.028.373.373 0 0 1-.11-.08.37.37 0 0 1-.096-.256v-.003a.39.39 0 0 1 .095-.256.332.332 0 0 1 .388-.076.334.334 0 0 1 .181.194.38.38 0 0 1 .026.14v.004Zm1.504.576v-1.16h-.249v.715l-.536-.714h-.232v1.16h.248v-.738l.555.738h.214Zm1.292 0v-1.16h-.249v.715l-.536-.714h-.232v1.16h.248v-.738l.555.738h.214Zm1.146 0v-.226h-.621v-.244h.54v-.227h-.54v-.235h.613v-.227h-.863v1.16h.871Zm1.23-.186-.16-.165a.638.638 0 0 1-.136.1.342.342 0 0 1-.165.036.324.324 0 0 1-.136-.028.338.338 0 0 1-.172-.195.402.402 0 0 1-.024-.141v-.003a.388.388 0 0 1 .093-.256.319.319 0 0 1 .239-.106c.057 0 .109.012.155.035a.6.6 0 0 1 .137.096l.16-.187a.675.675 0 0 0-.085-.073.522.522 0 0 0-.22-.093.74.74 0 0 0-.146-.013.597.597 0 0 0-.43.177.59.59 0 0 0-.167.423v.003a.619.619 0 0 0 .167.424.582.582 0 0 0 .42.173.697.697 0 0 0 .273-.055.566.566 0 0 0 .105-.066.836.836 0 0 0 .092-.086Zm1.068-.738v-.235h-.949v.235h.349v.925h.252v-.925h.348Z"/><g fill="#F3BA2F" clip-path="url(#a)"><path d="M9.126 9.284 12.03 6.38l2.906 2.905 1.69-1.69L12.03 3 7.437 7.594l1.69 1.69Zm-1.193 1.191-1.69-1.69-1.69 1.69 1.69 1.69 1.69-1.69Zm1.194 1.195 2.904 2.903 2.905-2.905 1.691 1.689-4.596 4.596-4.594-4.594-.002-.002 1.692-1.688Zm8.691.496 1.69-1.69-1.69-1.69-1.69 1.69 1.69 1.69Z"/><path d="m13.745 10.476-1.714-1.714-1.267 1.267-.146.146-.3.3-.003.002.003.003 1.713 1.713 1.715-1.715-.001-.002Z"/></g><defs><clipPath id="a"><path fill="#fff" d="M0 0h15v15H0z" transform="translate(4.5 3)"/></clipPath></defs></svg>