<svg width="545" height="944" viewBox="0 0 545 944" fill="none" xmlns="http://www.w3.org/2000/svg">
<path d="M544.249 0.004V0.001L471.98 0C471.98 0 471.98 0.002 471.98 0.004C471.98 109.237 384.343 197.988 275.546 199.816C274.405 199.802 273.268 199.773 272.124 199.773C270.98 199.773 269.843 199.802 268.702 199.816C159.905 197.987 72.269 109.236 72.269 0.004V0.001L0 0C0 0 0 0.002 0 0.004C0 100.892 54.904 188.955 136.462 235.95C54.904 282.945 0 371.008 0 471.897C0 572.787 54.905 660.85 136.463 707.845C54.905 754.838 0 842.902 0 943.791V943.795H72.269C72.269 943.795 72.269 943.793 72.269 943.791C72.269 834.535 159.943 745.769 268.773 743.978C269.89 743.991 271.004 744.02 272.125 744.02C273.246 744.02 274.359 743.991 275.477 743.978C384.307 745.769 471.981 834.535 471.981 943.791V943.795H544.25C544.25 943.795 544.25 943.793 544.25 943.791C544.25 842.902 489.345 754.838 407.787 707.844C489.346 660.849 544.25 572.786 544.25 471.896C544.25 371.007 489.346 282.944 407.788 235.949C489.344 188.955 544.249 100.892 544.249 0.004ZM471.98 471.897C471.98 581.153 384.306 669.919 275.476 671.71C274.359 671.697 273.245 671.668 272.124 671.668C271.003 671.668 269.89 671.697 268.772 671.71C159.942 669.919 72.268 581.153 72.268 471.897C72.268 362.664 159.905 273.913 268.702 272.085C269.843 272.099 270.98 272.128 272.124 272.128C273.268 272.128 274.405 272.099 275.546 272.085C384.343 273.913 471.98 362.663 471.98 471.897Z" fill="#59C7F2"/>
</svg>
