<svg xmlns="http://www.w3.org/2000/svg" fill="none" viewBox="0 0 24 24"><rect width="24" height="24" fill="url(#a)" rx="12"/><path fill="#fff" d="m19.796 11.214-3.432-3.432-.006-.006-.014-.011a.957.957 0 0 0-.07-.06c-.016-.014-.034-.026-.051-.039a.932.932 0 0 0-1.268.191l-5.337 5.338V8.443a.943.943 0 0 0-1.885 0v4.753l-1.948-1.949a.943.943 0 0 0-1.332 1.332l3.556 3.558a.91.91 0 0 0 .145.119.938.938 0 0 0 .425.15h.004a.93.93 0 0 0 .092.005h.014c.025 0 .05 0 .077-.004l.018-.002a.976.976 0 0 0 .073-.011l.01-.003a.72.72 0 0 0 .08-.02h.004l.084-.031a.96.96 0 0 0 .113-.057l.021-.013a.93.93 0 0 0 .103-.072l.009-.009a.939.939 0 0 0 .059-.053l5.41-5.406v4.74a.942.942 0 0 0 1.884 0v-4.752l1.83 1.83a.942.942 0 1 0 1.331-1.333h.001Z"/><defs><linearGradient id="a" x1="1.606" x2="22.394" y1="5.999" y2="18.001" gradientUnits="userSpaceOnUse"><stop offset=".13" stop-color="#348BED"/><stop offset=".31" stop-color="#2B80E8"/><stop offset=".64" stop-color="#1461DB"/><stop offset=".72" stop-color="#0E57D7"/></linearGradient></defs></svg>