<svg width="37" height="37" viewBox="0 0 37 37" fill="none" xmlns="http://www.w3.org/2000/svg">
<rect width="37" height="37" rx="18.5" fill="#0E0B2F"/>
<circle cx="18.5" cy="18.5" r="17.15" stroke="#BF7E4B" stroke-width="0.7"/>
<path fill-rule="evenodd" clip-rule="evenodd" d="M24.0674 14.9959C23.9066 12.9274 22.103 12.2004 19.8139 11.959L19.8708 9.09458L18.0948 9.06133L18.0386 11.8503C17.5718 11.8405 17.0951 11.8411 16.6193 11.8414L16.6763 9.03421L14.9 9L14.8428 11.8635C14.4581 11.8634 14.0796 11.864 13.7114 11.8563L13.7114 11.8472L11.2607 11.7997L11.2239 13.6615C11.2239 13.6615 12.5369 13.6621 12.5147 13.6852C13.2343 13.6994 13.4598 14.1137 13.5212 14.4694L13.4568 17.7321C13.5062 17.7331 13.5705 17.7368 13.6445 17.7473L13.4566 17.7443L13.3655 22.3153C13.329 22.5363 13.1889 22.8881 12.6855 22.8795C12.7086 22.8994 11.3945 22.8549 11.3945 22.8549L11 24.9295L13.3128 24.9739C13.7426 24.9829 14.1658 24.9984 14.5806 25.0087L14.524 27.9052L16.299 27.9387L16.356 25.0743C16.8432 25.0924 17.3148 25.1051 17.7754 25.1142L17.7177 27.9667L19.4938 28L19.5518 25.1092C22.5427 24.9984 24.6476 24.3002 24.962 21.5527C25.2161 19.3409 24.1733 18.3308 22.4856 17.8992C23.5266 17.4046 24.188 16.5101 24.0674 14.9959ZM21.4577 21.1421C21.4168 23.3071 17.6432 22.9881 16.4388 22.9661L16.5164 19.1281C17.7213 19.152 21.5036 18.8847 21.4577 21.1421ZM20.7395 15.7115C20.7003 17.6813 17.5543 17.3901 16.5521 17.371L16.6212 13.8913C17.6234 13.9105 20.7806 13.6569 20.7395 15.7115Z" fill="url(#paint0_linear_4921_4499)"/>
<defs>
<linearGradient id="paint0_linear_4921_4499" x1="11" y1="18.3142" x2="25.6701" y2="18.3142" gradientUnits="userSpaceOnUse">
<stop stop-color="#5589DF"/>
<stop offset="1" stop-color="#9D5FEE"/>
</linearGradient>
</defs>
</svg>
