<svg width="110" height="110" viewBox="0 0 110 110" fill="none" xmlns="http://www.w3.org/2000/svg">
<path d="M107.8 55C107.8 25.8393 84.1606 2.19995 55 2.19995C25.8393 2.19995 2.19995 25.8393 2.19995 55C2.19995 84.1606 25.8393 107.8 55 107.8C84.1606 107.8 107.8 84.1606 107.8 55Z" fill="black"/>
<path d="M60.5924 49.4075V23.3199H45.6808C40.7877 23.3951 36.1206 25.3917 32.6869 28.8784C29.2533 32.3652 27.3287 37.0625 27.3287 41.9561C27.3287 46.8498 29.2533 51.5471 32.6869 55.0338C36.1206 58.5206 40.7877 60.5172 45.6808 60.5923H49.4076V49.4075H60.5924Z" fill="white"/>
<path d="M64.3192 49.4076H60.5924V60.5924H49.4076V86.68H64.3192C69.2122 86.6048 73.8794 84.6083 77.313 81.1215C80.7467 77.6347 82.6712 72.9374 82.6712 68.0438C82.6712 63.1502 80.7467 58.4529 77.313 54.9661C73.8794 51.4793 69.2122 49.4828 64.3192 49.4076V49.4076Z" fill="white"/>
</svg>
