<svg width="17" height="16" viewBox="0 0 17 16" fill="none" xmlns="http://www.w3.org/2000/svg">
<path d="M7.46096 10.889L8.83808 10.3929C8.70037 10.2533 8.60021 9.98977 8.60021 9.74171C8.60021 8.43938 10.6909 8.26884 10.6909 6.00528C10.6909 4.56342 9.7019 3.55566 8.08692 3.55566C7.01027 3.55566 6.00873 4.0828 5.34521 5.05954L6.35927 6.47039C6.74737 5.88125 7.27317 5.50915 7.89914 5.50915C8.58769 5.50915 8.88815 5.91225 8.88815 6.39287C8.88815 7.46264 7.04783 7.6797 7.04783 9.50915C7.04783 10.0518 7.19806 10.5324 7.46096 10.889Z" fill="#6B7199"/>
<path d="M15.2871 8C15.2871 12.0024 12.0345 15.25 8.01856 15.25C4.00261 15.25 0.75 12.0024 0.75 8C0.75 3.99757 4.00261 0.75 8.01856 0.75C12.0345 0.75 15.2871 3.99757 15.2871 8Z" stroke="#6B7199" stroke-width="1.5"/>
<ellipse cx="8.01742" cy="12.4446" rx="0.890951" ry="0.888889" fill="#757693"/>
</svg>
