<svg xmlns="http://www.w3.org/2000/svg" viewBox="0 0 830.14 934.38"><g id="Layer_2" data-name="Layer 2"><g id="Layer_1-2" data-name="Layer 1"><path d="M0,707.62V269.07c.65-3.09,1.34-6.18,2-9.29C7.29,232.65,23,213.41,46.83,200.13c11.67-6.5,23.14-13.36,34.69-20.07l46.07-26.81Q151,139.63,174.52,126q25.8-14.94,51.61-29.86,23.06-13.4,46.05-26.85,23.24-13.53,46.5-27c13.81-8,27.6-16.08,41.48-24,7.35-4.18,14.65-8.59,22.4-11.91A75.24,75.24,0,0,1,427.84,1.5c9.16,1.86,18.75,3.87,26.87,8.2,21.56,11.5,42.4,24.35,63.58,36.56,18.21,10.5,36.54,20.8,54.74,31.31,20,11.58,40,23.36,60,34.93,20.89,12.06,41.91,23.9,62.81,35.95q38.34,22.1,76.58,44.37c13.82,8,28.16,15.24,38.35,28.33C821.88,235.43,830,251,830,269.36q.32,196.77,0,393.53a68.23,68.23,0,0,1-3,19.27c-6.37,21.13-18.19,38-38.26,48.74-15.5,8.31-30.38,17.77-45.57,26.66q-22.15,13-44.39,25.8c-15.52,9-31.09,17.86-46.6,26.83q-23.7,13.69-47.35,27.48l-45.65,26.54-46.91,27.26c-13.81,8-27.49,16.3-41.46,24-10.5,5.8-21.32,11-32.15,16.21-3.09,1.48-6.72,1.82-10.1,2.68h-24a6.93,6.93,0,0,0-1.51-1c-7.46-2.18-15.42-3.32-22.28-6.69-13.15-6.47-25.71-14.12-38.44-21.4q-24-13.73-47.87-27.63c-16.22-9.39-32.41-18.84-48.64-28.21S213.6,831,197.5,821.69s-32.44-18.77-48.67-28.16l-22.19-12.84,41.41-68.51,79.72-132Q287.36,514.58,327,449q51.68-85.47,103.37-170.91c1.82-3,3.75-4.22,7.34-4.22,38,0,75.91-.21,113.87-.36,5.38,0,10.76,0,17.19,0l-305.18,519c2.33,1.25,4.24,2.19,6.07,3.25q66.36,38.35,132.71,76.7c8.8,5.08,17.76,5.6,26.8.34q51-29.68,102.07-59.29c4.8-2.79,9.57-5.64,14.55-8.57-.89-1.55-1.33-2.41-1.85-3.23Q482,704.31,420,607c-1.92-3-1.89-5.09-.05-8.17,14.26-23.89,28.28-47.92,42.38-71.91,11.16-19,22.34-38,34-57.78L665.12,735.78c10-5.88,19.36-11.54,28.89-16.84,3.13-1.74,3.51-3.08,1.54-6.08-5.61-8.54-10.95-17.25-16.31-26q-38.09-61.86-76.14-123.74-40.54-65.86-81-131.76a7,7,0,0,1-.17-6q27.78-47.87,55.92-95.5c3.52-6,7.12-11.92,10.9-18.24l182,284.15,1.49-.43v-5.72q0-155.84,0-311.67c0-12-5-20.92-15.47-26.89q-37-21.19-74-42.51-63-36.31-125.86-72.68-61.86-35.73-123.7-71.47c-7.93-4.59-16.1-8.28-25.32-5.07A91.61,91.61,0,0,0,392.41,67c-33.92,19.62-67.74,39.4-101.63,59.06q-51.46,29.86-103,59.62Q130.3,219,72.88,252.47c-7.76,4.51-13.13,11-13.89,20-.81,9.53-.4,19.17-.41,28.76,0,21.47.05,42.95.07,64.43q.12,105.39.25,210.77c0,1.7.16,3.4.24,5.1a76.9,76.9,0,0,0,9.64-12.86q50.44-78.36,100.87-156.72c18.09-28.15,36-56.38,54.22-84.47,7.62-11.78,15.28-23.43,27.15-31.82,24-17,51.44-22.35,79.84-23.46,20.24-.78,40.56.47,60.85.82a20.09,20.09,0,0,1,2.57.48Q242.66,517.2,91.72,759.89a5.47,5.47,0,0,1-1.53-.31Q73,749.8,55.83,739.94,27.9,723.83,0,707.62Z"/></g></g></svg>