<svg xmlns="http://www.w3.org/2000/svg" data-name="Layer 3" viewBox="0 0 1500 1500"><circle cx="750" cy="750" r="750" fill="#2D374B" class="bg"/><path fill="#213147" d="M299.47 534.35v431.21c0 27.53 14.71 52.99 38.54 66.71l373.44 215.65a77.17 77.17 0 0 0 77 0l373.44-215.65c23.83-13.72 38.54-39.18 38.54-66.71V534.35c0-27.53-14.71-52.99-38.54-66.71L788.45 251.99a77.17 77.17 0 0 0-77 0L337.92 467.64c-23.83 13.72-38.45 39.18-38.45 66.71" class="bg"/><g fill="#12aaff"><path d="m831.42 833.59-53.26 146.05a18.77 18.77 0 0 0 0 12.55l91.62 251.3 105.97-61.2-127.19-348.7c-2.89-8.03-14.26-8.03-17.15 0ZM938.21 587.97c-2.89-8.03-14.26-8.03-17.15 0L867.8 734.02a18.77 18.77 0 0 0 0 12.55l150.11 411.44 105.97-61.2L938.2 587.97Z" class="fg"/></g><path fill="#9dcced" d="M749.91 268.15c2.62 0 5.24.72 7.58 1.99l404.13 233.34c4.69 2.71 7.58 7.76 7.58 13.09v466.59c0 5.42-2.89 10.38-7.58 13.09l-404.13 233.34c-2.26 1.35-4.96 1.99-7.58 1.99s-5.24-.72-7.58-1.99L338.2 996.43c-4.69-2.71-7.58-7.76-7.58-13.09V516.66c0-5.42 2.89-10.38 7.58-13.09l404.13-233.34c2.35-1.35 4.96-2.08 7.58-2.08m0-68.15c-14.35 0-28.8 3.7-41.7 11.19L304.17 444.44c-25.82 14.89-41.7 42.43-41.7 72.21v466.59c0 29.79 15.89 57.32 41.7 72.21l404.13 233.34c12.91 7.4 27.26 11.19 41.7 11.19s28.8-3.7 41.7-11.19l404.13-233.34c25.82-14.89 41.7-42.43 41.7-72.21V516.65c0-29.79-15.89-57.32-41.7-72.21L791.61 211.19C778.7 203.7 764.26 200 749.91 200" class="fg"/><path fill="#213147" d="m482.63 1158.55 37.19-101.82 74.83 62.19-69.96 63.91z" class="bg"/><g fill="#FFF"><path d="M715.88 483.26H613.43c-7.67 0-14.53 4.78-17.15 12.01l-219.62 602.08 105.97 61.2 241.83-663.01c2.26-5.96-2.17-12.28-8.58-12.28M895.15 483.26H792.7c-7.67 0-14.53 4.78-17.15 12.01l-250.76 687.48 105.97 61.2 272.97-748.41c2.17-5.96-2.26-12.28-8.58-12.28" class="fg"/></g></svg>