<svg xmlns="http://www.w3.org/2000/svg" viewBox="0 0 1175.56 1011.59"><g id="Layer_2" data-name="Layer 2"><g id="Layer_1-2" data-name="Layer 1"><path d="M203.9,1011.39c-48.44,0-96.88.13-145.32,0C36.32,1011.25,16,1007,4.77,984.26c-8.35-16.8-4.84-32.49,3.62-47.69,23.55-42.34,47.13-84.66,71.08-126.78q214.8-377.71,429.8-755.31c5.42-9.51,10.92-19,17-28.06,23.61-35.06,60.62-35.47,83.56.23,18.57,28.9,35.06,59.15,52.12,89C694,171.74,725.73,228,757.79,284.12c29.17,51.05,29.26,101.88.11,153q-142.08,249.14-284,498.37c-29.61,51.92-74.82,76.28-134.06,76C294.53,1011.19,249.22,1011.39,203.9,1011.39Z"/><path d="M934.2,1011.43c-58.32,0-116.64.09-175-.1a151.23,151.23,0,0,1-26.38-2.25c-29.23-5.3-45.43-33.56-34.79-61.36,4.26-11.12,10.25-21.67,16.24-32q83.06-143.34,166.46-286.47a253.32,253.32,0,0,1,16.16-24.88c20.43-27.23,55.05-27.64,75.33-.58,8.4,11.21,15.54,23.44,22.64,35.57q80.86,138.28,161.39,276.76c6,10.33,11.84,20.95,16.06,32.08,10.54,27.77-5.77,56.24-35.24,60.83-14.82,2.31-30.07,2.34-45.12,2.42-52.6.26-105.19.1-157.79.1Z"/></g></g></svg>