<svg xmlns="http://www.w3.org/2000/svg" viewBox="0 0 998.86 999.03"><path fill="#e74142" d="M998.86 472.55v54.94a14.13 14.13 0 0 0-1 3.12 502.6 502.6 0 0 1-32.27 148.57C901 849.55 741.68 973.87 560.79 995.28c-58.26 6.9-116 4.45-173.12-8.79-101-23.4-187.39-72.8-256.68-149.79C25.73 719.67-15.55 582 5.19 426.13c8.18-61.46 29-118.94 59.39-173 80-142.38 229.49-238.24 392.16-251.28C462 1.42 467.13.62 472.32 0h53.95c7.18.75 14.36 1.51 21.54 2.24a505.36 505.36 0 0 1 164.52 45.28C872.45 122.28 982.88 281 997 457c.44 5.18 1.24 10.36 1.86 15.55ZM269.53 735.07c21.31 0 42.64.63 63.93-.14 40.48-1.47 72.81-19 93.33-54Q509 540.6 589.39 399.23c20-35.21 19.65-72.2.3-107.78-21.52-39.58-44.4-78.42-66.8-117.52-2.46-4.3-5.09-8.84-8.71-12.06-4.48-4-9.69-8-15.28-9.74-12.2-3.86-21.88 2-29.25 11.25-4.94 6.18-8.84 13.26-12.78 20.18Q315 432.29 173.41 681.14a71.88 71.88 0 0 0-7.11 16.91c-4.2 15.81 3.12 29.28 18.67 34.14a66.51 66.51 0 0 0 18.63 2.75c21.97.32 43.95.13 65.93.13Zm414.63 0h95.89a101.34 101.34 0 0 0 12.44-.78c14.3-1.8 24.44-10.13 27-22.25 2.09-10-.9-19.18-5.75-27.72q-49.55-87.16-99.41-174.13a54.81 54.81 0 0 0-12.95-14.91c-10.14-8.18-22.54-8-32.54.36a60.36 60.36 0 0 0-13.1 15.47q-50.07 86-99.53 172.33a62.13 62.13 0 0 0-6.39 16.12c-3.47 14.36 3.08 27 17 31.94a66.13 66.13 0 0 0 21 3.45c32.08.31 64.18.12 96.34.12Z" class="bg"/><path fill="#fefefe" d="M269.53 735.07c-22 0-44 .19-65.93-.13a66.51 66.51 0 0 1-18.6-2.75c-15.55-4.86-22.87-18.33-18.67-34.14a71.88 71.88 0 0 1 7.11-16.91Q315 432.29 456.87 183.56c3.94-6.92 7.84-14 12.78-20.18 7.37-9.21 17.05-15.11 29.25-11.25 5.59 1.77 10.8 5.75 15.28 9.74 3.62 3.22 6.25 7.76 8.71 12.06 22.4 39.1 45.28 77.94 66.8 117.52C609 327 609.42 364 589.39 399.23Q509 540.61 426.79 680.92c-20.52 35-52.85 52.54-93.33 54-21.29.78-42.62.15-63.93.15Z" class="fg"/><path fill="#fefdfd" d="M684.16 735.07c-32.12 0-64.26.19-96.38-.16a66.13 66.13 0 0 1-21-3.45c-13.95-4.9-20.5-17.58-17-31.94a62.13 62.13 0 0 1 6.39-16.12q49.53-86.29 99.53-172.33a60.36 60.36 0 0 1 13.1-15.47c10-8.4 22.4-8.54 32.54-.36a54.81 54.81 0 0 1 12.95 14.91q50 86.9 99.41 174.13c4.85 8.54 7.84 17.71 5.75 27.72-2.52 12.12-12.66 20.45-27 22.25a101.34 101.34 0 0 1-12.44.78q-47.9.11-95.85.04Z" class="fg"/></svg>