<svg width="24" height="24" viewBox="0 0 24 24" fill="none" xmlns="http://www.w3.org/2000/svg">
<path class="bg" d="M12 23.9999C14.3733 23.9999 16.6934 23.2961 18.6668 21.9776C20.6402 20.659 22.1782 18.7849 23.0865 16.5921C23.9948 14.3994 24.2324 11.9867 23.7694 9.65893C23.3063 7.33113 22.1634 5.19294 20.4853 3.51471C18.807 1.83648 16.6688 0.693597 14.3411 0.230583C12.0133 -0.232442 9.6005 0.00520191 7.40778 0.913447C5.21508 1.8217 3.34093 3.35976 2.02237 5.33315C0.703788 7.30653 0 9.62661 0 12C0 15.1826 1.26428 18.2348 3.5147 20.4853C5.76514 22.7357 8.81735 23.9999 12 23.9999Z" fill="#0052FF"/>
<path class="fg" d="M11.9723 20.4507C16.6394 20.4507 20.4229 16.6672 20.4229 12C20.4229 7.33282 16.6394 3.54932 11.9723 3.54932C7.54458 3.54932 3.9122 6.95446 3.55106 11.2888H16.0913V12.6961H3.5498C3.90375 17.0377 7.5394 20.4507 11.9723 20.4507Z" fill="white"/>
</svg>