<svg width="16" height="16" viewBox="0 0 16 16" fill="none" xmlns="http://www.w3.org/2000/svg">
<rect width="16" height="16" rx="3" fill="#0052FF"/>
<path d="M8 15.9999C9.5822 15.9999 11.1289 15.5307 12.4445 14.6517C13.7601 13.7727 14.7855 12.5233 15.391 11.0614C15.9965 9.5996 16.1549 7.99114 15.8463 6.43929C15.5375 4.88742 14.7756 3.46196 13.6569 2.34314C12.538 1.22432 11.1125 0.462398 9.56073 0.153722C8.00887 -0.154961 6.40033 0.00346792 4.93852 0.608965C3.47672 1.21447 2.22729 2.23984 1.34825 3.55543C0.469192 4.87102 0 6.41774 0 8C0 10.1217 0.842853 12.1565 2.34313 13.6569C3.84343 15.1571 5.87823 15.9999 8 15.9999Z" fill="#0052FF"/>
<path d="M7.98158 13.6338C11.093 13.6338 13.6153 11.1115 13.6153 8C13.6153 4.88854 11.093 2.36621 7.98158 2.36621C5.02976 2.36621 2.60818 4.6363 2.36742 7.52587H10.7276V8.46407H2.36658C2.60254 11.3585 5.02631 13.6338 7.98158 13.6338Z" fill="white"/>
</svg>
