<svg xmlns="http://www.w3.org/2000/svg" viewBox="0 0 809.17 941.48"><g id="Layer_2" data-name="Layer 2"><g id="Layer_1-2" data-name="Layer 1"><path d="M403.61,941.48c-11.25-6.78-22.44-13.65-33.76-20.31-18.38-10.83-36.85-21.5-55.23-32.33a4,4,0,0,1-1.81-2.89c-.09-34.93-.08-69.86-.08-106,7.21,4.08,13.79,7.73,20.3,11.5q22.61,13.11,45.16,26.31c6.61,3.86,13.31,7.59,19.75,11.71,4.19,2.68,7.29,3.47,12.3.44,27.59-16.66,55.57-32.68,83.44-48.88.63-.37,1.55-.24,2.82-.41v5.13c0,32.28-.06,64.55.09,96.83,0,3.81-1.2,5.93-4.5,7.81-16.7,9.5-33.26,19.23-49.85,28.91q-17.08,10-34.11,20a20.61,20.61,0,0,0-2.52,2.08Z"/><path d="M653.31,379.19c0,16.31-.09,32.62.07,48.93,0,3.18-.88,4.71-3.77,6.35-19.52,11.15-38.81,22.7-58.25,34-16.21,9.4-32.55,18.58-48.79,27.93-14.68,8.46-29.35,17-43.89,25.65-1.24.74-2.07,3.17-2.09,4.82-.14,18.81-.09,37.62-.09,56.43q0,58.92.07,117.84c0,3-.86,4.41-3.58,6-18.8,10.75-37.42,21.84-56.12,32.79-10.26,6-20.54,12-30.91,17.81a4.61,4.61,0,0,1-3.84-.27c-28.84-16.84-57.58-33.86-86.5-50.58-2.81-1.62-2.91-3.37-2.91-5.88,0-55.93-.2-111.85.26-167.77.07-7.76-2.49-11.71-8.81-15.26C277.33,502.82,250.68,487.4,224,472q-33-19.06-65.86-38.4a5.12,5.12,0,0,1-2.15-3.72q-.16-50.92.05-101.86c0-1.65,1.62-3.94,3.14-4.83,27.77-16.42,55.65-32.67,83.48-49,3.54-2.08,6.34-2.06,10.26.3,17.57,10.6,35.53,20.55,53.3,30.83s35.44,20.73,53.21,31c13.95,8.09,27.92,16.14,42,24a7.27,7.27,0,0,0,6,.16c17.69-10.07,35.22-20.44,52.84-30.65,15.5-9,31.09-17.84,46.58-26.83q24.52-14.24,49-28.63c3.64-2.13,6.56-2.37,10.7.15,18.65,11.34,37.69,22,56.57,33,9,5.24,17.89,10.72,27,15.79,2.64,1.47,3.2,3.21,3.18,5.93C653.26,345.9,653.31,362.54,653.31,379.19Z"/><path d="M653.56,143.9c-15,8.81-29.49,17.3-44,25.73-15.07,8.78-30.11,17.59-45.31,26.12a7.84,7.84,0,0,1-6.53.06c-22.78-13-45.42-26.26-68.08-39.47q-35.88-20.93-71.75-41.9a100.22,100.22,0,0,0-11.1-6.13,7.39,7.39,0,0,0-5.8.44c-24.28,14-48.42,28.22-72.66,42.29-25.78,15-51.69,29.7-77.37,44.84-2.94,1.73-4.84,1.23-7.15-.12q-29.1-17-58.18-34.11l-30.34-17.82c6.39-3.77,12.15-7.17,17.92-10.56q39-22.84,78-45.67C274.66,74,298.15,60.61,321.54,47c21.83-12.68,43.59-25.5,65.39-38.24C391.72,6,396.44,3,401.43.67a7.87,7.87,0,0,1,6.31,0C430.88,14,453.83,27.7,476.92,41.16,498.88,54,521,66.51,543,79.28c21,12.2,41.85,24.6,62.82,36.81,15.35,8.93,30.79,17.68,46.19,26.52A19.32,19.32,0,0,1,653.56,143.9Z"/><path d="M559.64,849.87c-.09-2.07-.21-3.51-.21-5,0-32.8.07-65.59-.11-98.39,0-3.53,1.33-5.27,4.09-6.85q45.14-25.93,90.21-52c20-11.59,39.93-23.39,60-34.85,3-1.71,3.63-3.57,3.62-6.66q-.12-61.93,0-123.86c0-16.31.09-32.63-.07-48.94,0-3.44,1.15-5.29,4.11-7,21.15-12.25,42.17-24.73,63.27-37.06,7.84-4.57,15.82-8.92,24.31-13.69.11,2.26.26,3.83.26,5.41q0,139.83,0,279.68c0,3-.56,4.75-3.61,6.45-16.21,9.07-32.17,18.57-48.21,27.94q-32.72,19.13-65.41,38.26c-19.58,11.38-39.27,22.59-58.85,34-19.3,11.22-38.52,22.57-57.8,33.82C570.27,844.06,565.16,846.8,559.64,849.87Z"/><path d="M248.8,849.68l-22.36-13Q203.21,823.17,180,809.64t-46.5-27q-23.25-13.5-46.49-27-25.76-15-51.5-30C24.8,719.39,14.22,712.92,3.36,707c-2.91-1.59-3.31-3.32-3.3-6.14.08-24.46.05-48.93.05-73.39V415.55c5.74,3.23,10.83,6,15.83,8.91q29.12,17,58.19,34.1c4.5,2.63,9,5.19,13.59,7.74,3.08,1.73,4.42,3.93,4.4,7.84C91.93,520.58,92,567,92,613.45c0,11.15.06,22.3,0,33.45,0,2.56.54,4.1,3,5.5,14,8,27.88,16.22,41.83,24.32Q160,690.24,183.3,703.66q20.73,12,41.44,24c7.06,4.07,14.25,7.92,21.19,12.17a6.48,6.48,0,0,1,2.75,4.65C248.84,779.27,248.8,814,248.8,849.68Z"/><path d="M184.18,234.66c-13.65,8-26.67,15.74-39.74,23.37-14.91,8.7-29.59,17.85-44.91,25.76-6.92,3.57-7.73,8.1-7.66,14.79.29,30.12.13,60.24.13,90.36v6.13c-5.91-3.29-11.33-6.2-16.63-9.3-17.15-10-34.24-20.18-51.39-30.21-6.74-3.95-13.61-7.69-20.37-11.61A6.36,6.36,0,0,1,0,337.75c.18-33.11.13-66.23.07-99.34,0-2.88.61-4.77,3.39-6.39,21.43-12.4,42.73-25,64.09-37.56,6.74-4,13.63-7.66,20.34-11.65,3.07-1.83,5.5-1.5,8.57.33,16.63,9.94,33.43,19.61,50.15,29.41C159,219.78,171.29,227.07,184.18,234.66Z"/><path d="M717.23,395.11c0-34.5-.07-68.1.09-101.7,0-3.84-1.45-5.69-4.59-7.52-21.28-12.32-42.42-24.88-63.65-37.29-7.85-4.6-15.81-9-24.43-13.9,10.62-6.21,20.59-12,30.54-17.87,19.38-11.37,38.71-22.84,58.23-34a9,9,0,0,1,7.58,0c21.92,12.52,43.66,25.34,65.43,38.12,6.74,3.95,13.49,7.9,20.05,12.13a6.4,6.4,0,0,1,2.53,4.55q.21,50.42,0,100.82a6.13,6.13,0,0,1-2.54,4.45q-42.12,24.73-84.41,49.2C720.68,392.91,719.35,393.79,717.23,395.11Z"/><path d="M653.31,506.12v49.73c0,18.31-.06,36.62.06,54.93,0,2.67-.86,3.84-3.19,5.18-20.6,11.9-41,24-61.57,36.08-9.09,5.32-18.26,10.52-27.93,16.08-.11-2.19-.25-3.77-.25-5.36,0-32.62.07-65.24-.11-97.86,0-3.93,1.39-5.57,4.7-7.43,14.78-8.29,29.28-17.06,43.91-25.6C623.38,523.43,637.88,515.07,653.31,506.12Z"/><path d="M497,234.66c-15.32,9-29.76,17.46-44.24,25.9-15.06,8.77-30.1,17.58-45.3,26.11a7.8,7.8,0,0,1-6.53,0C375.54,272,350.29,257.13,325,242.28c-4.05-2.39-8.07-4.83-12.82-7.67,5.76-3.43,11-6.6,16.28-9.69l70.39-41.29c3.76-2.2,6.79-2.52,11.12.13C428.74,195.22,447.92,206,466.93,217,476.77,222.76,486.57,228.54,497,234.66Z"/><path d="M155.92,506.28c8.28,4.77,15.72,9,23.13,13.34q26.17,15.21,52.33,30.46c4.64,2.7,9.46,5.13,13.92,8.11a6.77,6.77,0,0,1,2.4,4.92c.14,34.58.11,69.17.11,104.56-5.18-2.89-10-5.46-14.65-8.2Q200.25,640.25,167.4,621c-.28-.17-.66-.15-.93-.31-10.55-6.3-10.55-6.31-10.55-18.89v-95.5Z"/></g></g></svg>