<svg xmlns="http://www.w3.org/2000/svg" viewBox="0 0 96 96"><circle cx="48" cy="48" r="48" fill="#F0B90B" class="bg"/><path fill="#fff" d="m30.9 25.906 16.909-9.842 16.908 9.842-6.216 3.636-10.692-6.207-10.692 6.207-6.216-3.636Zm33.817 12.412L58.5 34.682l-10.692 6.206-10.692-6.206-6.216 3.636v7.272l10.692 6.206v12.412l6.216 3.636 6.216-3.636V51.796l10.692-6.206v-7.272Zm0 19.684V50.73L58.5 54.366v7.272l6.216-3.636Zm4.413 2.57-10.69 6.206v7.272l16.908-9.842V44.524L69.13 48.16v12.412Zm-6.216-28.46 6.216 3.636v7.272l6.217-3.636v-7.272l-6.216-3.636-6.217 3.636ZM41.593 69.41v7.272l6.216 3.636 6.216-3.636V69.41l-6.216 3.636-6.216-3.636ZM30.9 58.001l6.216 3.637v-7.272L30.9 50.73v7.272Zm10.692-25.89 6.216 3.637 6.216-3.636-6.216-3.636-6.216 3.636Zm-15.106 3.637 6.216-3.636-6.216-3.636-6.216 3.636v7.272l6.216 3.636v-7.272Zm0 12.412-6.216-3.636v19.684l16.908 9.842v-7.272l-10.692-6.206V48.16Z" class="fg"/></svg>