<svg xmlns="http://www.w3.org/2000/svg" viewBox="0 0 607.49 607.5"><defs><style>.cls-1{fill:#efb90c;}.cls-2{fill:#fefefd;}.cls-3{fill:#fefdfc;}.cls-4{fill:#fefdfb;}.cls-5{fill:#fefdfa;}</style></defs><g id="Layer_2" data-name="Layer 2"><g id="Layer_1-2" data-name="Layer 1"><path class="cls-1" d="M607.49,303.91C607.1,472.5,471,608,302.59,607.5,134.64,607-.55,470.53,0,302.09.55,134.81,137.18-.57,304.9,0,472.28.57,607.88,136.76,607.49,303.91Zm-338,64.77h-.37c0,11.46.33,22.95-.15,34.4-.22,5,1.6,7.44,5.78,9.69,9.89,5.32,19.65,10.93,29.15,16.91,3.47,2.19,6.1,2.53,9.53.42,9.91-6.06,19.87-12,29.94-17.82,3.33-1.91,4.42-4.29,4.39-8.08-.2-23.62-.25-47.24,0-70.86,0-2.63,1.28-6.45,3.24-7.69,10.51-6.63,21.49-12.53,32.19-18.86S404.89,294,415.35,287c2.22-1.48,3.78-5.42,3.9-8.3.43-10.92.42-21.88-.05-32.8-.14-3.3-1.38-8-3.74-9.51-10.7-6.91-21.94-13-33.1-19.14a5.88,5.88,0,0,0-4.66.16c-3.88,1.87-7.58,4.11-11.31,6.28-17.33,10.11-34.57,20.37-52.05,30.22-2.41,1.36-6.51,2-8.83.88-8.33-4-16.25-8.87-24.29-13.48-13.64-7.83-27.22-15.79-41-23.48a6.6,6.6,0,0,0-5.51-.12c-11.23,6.42-22.37,13-33.33,19.9a8.36,8.36,0,0,0-3.43,5.91c-.33,12.62-.38,25.26,0,37.88.06,2.12,2,4.93,3.91,6.11,7,4.36,14.46,8,21.58,12.24,13.68,8.07,27.11,16.55,40.93,24.35,4.06,2.29,5.19,5,5.16,9.15C269.45,345.08,269.51,356.88,269.51,368.68ZM417.44,154.76c-3.16-1.62-5.25-2.57-7.23-3.72-12.57-7.3-25.11-14.67-37.69-21.95-10.18-5.9-20.46-11.6-30.59-17.57-10.41-6.15-20.67-12.57-31.09-18.7a4.84,4.84,0,0,0-4.06,0c-12.76,7.23-25.44,14.6-38.12,22-14.48,8.42-29,16.8-43.38,25.34-8,4.76-15.9,9.8-24.52,15.13a65.77,65.77,0,0,0,5.71,4.28c9.6,5.6,19.2,11.2,29,16.51,1.36.74,3.92.38,5.4-.43,6-3.26,11.67-7,17.55-10.39,14.75-8.56,29.58-17,44.3-25.59a11.09,11.09,0,0,1,11.78-.18c5.05,2.79,10.09,5.63,15.06,8.59,15.8,9.41,31.54,18.95,47.41,28.26a6,6,0,0,0,5,0c10.54-5.93,21-12.09,31.38-18.24A41.06,41.06,0,0,0,417.44,154.76ZM126.6,345.68h.16c0,19.8-.08,39.59.14,59.39a7.57,7.57,0,0,0,3,5.54c12.76,7.7,25.74,15,38.59,22.55q30.72,18,61.34,36.14c4.6,2.71,6.22,1.83,6.23-3.63,0-10.64-.06-21.28-.07-31.92,0-4.35-2.35-6.93-6-9-18.56-10.64-36.93-21.63-55.63-32-8-4.42-12-9.91-9.65-19.19.4-1.56.07-3.32.07-5,0-19-.12-37.92,0-56.88,0-5.59-2.39-9.16-7.17-11.8-8.81-4.86-17.32-10.26-26-15.36a20.73,20.73,0,0,0-3.88-1.37c-.37,1.21-1.07,2.43-1.07,3.64C126.58,306.43,126.6,326.05,126.6,345.68Zm254.16,105h-.1c0,6-.06,12,0,17.95,0,2.43.76,4.69,3.88,2.91,8.18-4.68,16.28-9.5,24.39-14.3,16.68-9.87,33.32-19.81,50-29.63,9-5.27,18.22-10.12,27-15.67a10.47,10.47,0,0,0,4.07-7.16c.45-5.9-.3-11.88-.32-17.84q-.09-40.64,0-81.29c0-5.8.4-11.6.51-17.41.07-3.24-1.17-5-4.54-3-10.15,5.94-20.38,11.76-30.27,18.1-1.83,1.17-3.12,4.57-3.14,6.95-.16,23.6,0,47.21,0,70.81,0,4.69-2,7.85-6.42,10.23-11.36,6.11-22.4,12.82-33.59,19.26-9.31,5.36-18.77,10.49-27.85,16.21-1.93,1.22-3.33,4.49-3.55,7C380.41,439.33,380.76,445,380.76,450.67ZM164.66,266.34c0-2.22,0-3.58,0-4.94,0-12.46-.11-24.92.23-37.37a8.33,8.33,0,0,1,3.34-6c10.21-6.21,20.7-12,31-18,1.16-.68,2.79-2.1,2.7-3a5.85,5.85,0,0,0-2.65-3.63c-6.61-4.09-13.33-8-20-11.91-2.86-1.67-5.6-3.74-8.68-4.77-2.45-.82-5.94-1.39-7.93-.25-10.78,6.16-21.14,13-31.85,19.32-3.25,1.91-4.09,4.12-4,7.65.13,12.14-.13,24.28,0,36.42,0,1.6.68,4,1.84,4.69C140.07,251.74,151.75,258.62,164.66,266.34Zm183,206.12h.08c0-6,.14-12,0-17.94-.13-4.13-1.91-5.06-5.43-3-9.39,5.61-18.71,11.32-28,17-3.64,2.2-7.2,2.19-10.68-.34-1.07-.77-2.05-1.71-3.18-2.38-8.55-5-17.11-10-25.73-14.93a23.7,23.7,0,0,0-4.42-1.5c-.43,1.53-1.21,3-1.23,4.58-.12,9.27.69,18.63-.28,27.8-.95,9,4,13.15,10.51,16.91,8.45,4.86,16.93,9.66,25.23,14.76,2.58,1.58,4.56,2,7.26.41,9.73-5.61,19.64-10.92,29.35-16.56,4.6-2.68,8-6.05,6.76-12.41C347,480.9,347.66,476.62,347.66,472.46ZM452.33,265.93c3.52-2,5.89-3.22,8.2-4.58,8.85-5.21,17.82-10.23,26.39-15.86,1.84-1.21,3.05-4.65,3.09-7.09.18-11.11-.74-22.26-.07-33.32.34-5.49-1.44-8.37-5.69-10.83-7.71-4.47-15.46-8.9-23-13.7-6.29-4-12.27-8-18.89-.73-.3.32-.94.31-1.37.56-7.85,4.6-15.71,9.18-23.53,13.84-2.12,1.26-3,2.94-.32,4.51,6.49,3.85,13.06,7.57,19.57,11.39,3.85,2.26,8.07,4.14,11.31,7.08a13.43,13.43,0,0,1,4.13,8.35c.49,9.94.17,19.92.16,29.88ZM308.1,174.73c-2.89,1.79-5.63,3.56-8.43,5.21q-12,7.06-24,14.05c-2.39,1.39-3.31,3.13-.5,4.83,10.34,6.24,20.68,12.49,31.23,18.34,1.6.89,4.72.4,6.5-.6,9.93-5.56,19.69-11.44,29.44-17.32,1-.61,2.24-1.88,2.24-2.85s-1.32-2.09-2.33-2.72c-6.9-4.25-13.78-8.52-20.83-12.51C317.22,178.81,312.78,177,308.1,174.73Zm73.79,214.43c2.43-.9,4.54-1.35,6.31-2.39,9.58-5.61,19.19-11.19,28.5-17.21,1.64-1.06,2.64-4.16,2.72-6.36.26-7.11-.09-14.24-.15-21.36,0-5.34,0-10.68,0-16l-2.06-1c-11.34,7-22.73,14-34,21.19-1.09.69-1.65,2.87-1.71,4.39-.32,8.27-.54,16.54-.53,24.81C381,379.65,381.54,384.06,381.89,389.16ZM198.42,323.55c-.24,2.78-.43,4.07-.44,5.35,0,9.81.54,19.66-.28,29.4-.67,8,3.38,11.85,9.36,15.24,7.19,4.08,14.21,8.44,21.39,12.52,1.76,1,3.88,1.39,5.84,2.06.51-2,1.42-4.05,1.45-6.1.19-10.46.36-20.93,0-31.38a9.23,9.23,0,0,0-3.54-6.42c-7.16-4.79-14.69-9-22.07-13.46C206.56,328.58,203,326.36,198.42,323.55Z"/><path class="cls-2" d="M269.51,368.68c0-11.8-.06-23.6,0-35.41,0-4.14-1.1-6.86-5.16-9.15-13.82-7.8-27.25-16.28-40.93-24.35-7.12-4.2-14.56-7.88-21.58-12.24-1.89-1.18-3.85-4-3.91-6.11-.35-12.62-.3-25.26,0-37.88a8.36,8.36,0,0,1,3.43-5.91c11-6.89,22.1-13.48,33.33-19.9a6.6,6.6,0,0,1,5.51.12c13.73,7.69,27.31,15.65,41,23.48,8,4.61,16,9.47,24.29,13.48,2.32,1.11,6.42.48,8.83-.88,17.48-9.85,34.72-20.11,52.05-30.22,3.73-2.17,7.43-4.41,11.31-6.28a5.88,5.88,0,0,1,4.66-.16c11.16,6.17,22.4,12.23,33.1,19.14,2.36,1.53,3.6,6.21,3.74,9.51.47,10.92.48,21.88.05,32.8-.12,2.88-1.68,6.82-3.9,8.3-10.46,7-21.33,13.36-32.17,19.78S361.5,319,351,325.66c-2,1.24-3.22,5.06-3.24,7.69-.22,23.62-.17,47.24,0,70.86,0,3.79-1.06,6.17-4.39,8.08-10.07,5.79-20,11.76-29.94,17.82-3.43,2.11-6.06,1.77-9.53-.42-9.5-6-19.26-11.59-29.15-16.91-4.18-2.25-6-4.67-5.78-9.69.48-11.45.15-22.94.15-34.4Z"/><path class="cls-3" d="M417.44,154.76a41.06,41.06,0,0,1-4.11,3.29c-10.42,6.15-20.84,12.31-31.38,18.24a6,6,0,0,1-5,0C361.06,167,345.32,157.41,329.52,148c-5-3-10-5.8-15.06-8.59a11.09,11.09,0,0,0-11.78.18c-14.72,8.61-29.55,17-44.3,25.59-5.88,3.41-11.59,7.13-17.55,10.39-1.48.81-4,1.17-5.4.43-9.76-5.31-19.36-10.91-29-16.51a65.77,65.77,0,0,1-5.71-4.28c8.62-5.33,16.49-10.37,24.52-15.13,14.41-8.54,28.9-16.92,43.38-25.34,12.68-7.37,25.36-14.74,38.12-22a4.84,4.84,0,0,1,4.06,0c10.42,6.13,20.68,12.55,31.09,18.7,10.13,6,20.41,11.67,30.59,17.57,12.58,7.28,25.12,14.65,37.69,21.95C412.19,152.19,414.28,153.14,417.44,154.76Z"/><path class="cls-3" d="M126.6,345.68c0-19.63,0-39.25.05-58.88,0-1.21.7-2.43,1.07-3.64a20.73,20.73,0,0,1,3.88,1.37c8.68,5.1,17.19,10.5,26,15.36,4.78,2.64,7.19,6.21,7.17,11.8-.09,19,0,37.92,0,56.88,0,1.66.33,3.42-.07,5-2.4,9.28,1.69,14.77,9.65,19.19,18.7,10.38,37.07,21.37,55.63,32,3.61,2.07,6,4.65,6,9,0,10.64.11,21.28.07,31.92,0,5.46-1.63,6.34-6.23,3.63q-30.66-18.07-61.34-36.14c-12.85-7.54-25.83-14.85-38.59-22.55a7.57,7.57,0,0,1-3-5.54c-.22-19.8-.14-39.59-.14-59.39Z"/><path class="cls-3" d="M380.76,450.67c0-5.65-.35-11.34.17-16.94.22-2.46,1.62-5.73,3.55-7,9.08-5.72,18.54-10.85,27.85-16.21,11.19-6.44,22.23-13.15,33.59-19.26,4.43-2.38,6.43-5.54,6.42-10.23,0-23.6-.2-47.21,0-70.81,0-2.38,1.31-5.78,3.14-6.95,9.89-6.34,20.12-12.16,30.27-18.1,3.37-2,4.61-.23,4.54,3-.11,5.81-.5,11.61-.51,17.41q-.08,40.65,0,81.29c0,6,.77,11.94.32,17.84a10.47,10.47,0,0,1-4.07,7.16c-8.79,5.55-18,10.4-27,15.67-16.71,9.82-33.35,19.76-50,29.63-8.11,4.8-16.21,9.62-24.39,14.3-3.12,1.78-3.84-.48-3.88-2.91-.09-6,0-12,0-17.95Z"/><path class="cls-4" d="M164.66,266.34c-12.91-7.72-24.59-14.6-36.1-21.75-1.16-.73-1.83-3.09-1.84-4.69-.09-12.14.17-24.28,0-36.42,0-3.53.8-5.74,4-7.65,10.71-6.28,21.07-13.16,31.85-19.32,2-1.14,5.48-.57,7.93.25,3.08,1,5.82,3.1,8.68,4.77,6.71,3.93,13.43,7.82,20,11.91a5.85,5.85,0,0,1,2.65,3.63c.09.92-1.54,2.34-2.7,3-10.33,6-20.82,11.75-31,18a8.33,8.33,0,0,0-3.34,6c-.34,12.45-.21,24.91-.23,37.37C164.65,262.76,164.66,264.12,164.66,266.34Z"/><path class="cls-4" d="M347.66,472.46c0,4.16-.63,8.44.15,12.44,1.24,6.36-2.16,9.73-6.76,12.41-9.71,5.64-19.62,10.95-29.35,16.56-2.7,1.56-4.68,1.17-7.26-.41-8.3-5.1-16.78-9.9-25.23-14.76-6.54-3.76-11.46-7.9-10.51-16.91,1-9.17.16-18.53.28-27.8,0-1.53.8-3.05,1.23-4.58a23.7,23.7,0,0,1,4.42,1.5c8.62,4.91,17.18,9.91,25.73,14.93,1.13.67,2.11,1.61,3.18,2.38,3.48,2.53,7,2.54,10.68.34,9.34-5.68,18.66-11.39,28-17,3.52-2.1,5.3-1.17,5.43,3,.18,6,0,12,0,17.94Z"/><path class="cls-3" d="M452.33,265.93v-10.5c0-10,.33-19.94-.16-29.88A13.43,13.43,0,0,0,448,217.2c-3.24-2.94-7.46-4.82-11.31-7.08-6.51-3.82-13.08-7.54-19.57-11.39-2.63-1.57-1.8-3.25.32-4.51,7.82-4.66,15.68-9.24,23.53-13.84.43-.25,1.07-.24,1.37-.56,6.62-7.25,12.6-3.28,18.89.73,7.52,4.8,15.27,9.23,23,13.7,4.25,2.46,6,5.34,5.69,10.83-.67,11.06.25,22.21.07,33.32,0,2.44-1.25,5.88-3.09,7.09-8.57,5.63-17.54,10.65-26.39,15.86C458.22,262.71,455.85,264,452.33,265.93Z"/><path class="cls-5" d="M308.1,174.73c4.68,2.24,9.12,4.08,13.28,6.43,7.05,4,13.93,8.26,20.83,12.51,1,.63,2.33,1.8,2.33,2.72s-1.23,2.24-2.24,2.85c-9.75,5.88-19.51,11.76-29.44,17.32-1.78,1-4.9,1.49-6.5.6-10.55-5.85-20.89-12.1-31.23-18.34-2.81-1.7-1.89-3.44.5-4.83q12-7,24-14.05C302.47,178.29,305.21,176.52,308.1,174.73Z"/><path class="cls-5" d="M381.89,389.16c-.35-5.1-.88-9.51-.89-13.92,0-8.27.21-16.54.53-24.81.06-1.52.62-3.7,1.71-4.39,11.24-7.2,22.63-14.16,34-21.19l2.06,1c0,5.35,0,10.69,0,16,.06,7.12.41,14.25.15,21.36-.08,2.2-1.08,5.3-2.72,6.36-9.31,6-18.92,11.6-28.5,17.21C386.43,387.81,384.32,388.26,381.89,389.16Z"/><path class="cls-5" d="M198.42,323.55c4.56,2.81,8.14,5,11.74,7.21,7.38,4.45,14.91,8.67,22.07,13.46a9.23,9.23,0,0,1,3.54,6.42c.33,10.45.16,20.92,0,31.38,0,2.05-.94,4.07-1.45,6.1-2-.67-4.08-1.05-5.84-2.06-7.18-4.08-14.2-8.44-21.39-12.52-6-3.39-10-7.28-9.36-15.24.82-9.74.23-19.59.28-29.4C198,327.62,198.18,326.33,198.42,323.55Z"/></g></g></svg>