<svg xmlns="http://www.w3.org/2000/svg" viewBox="0 0 1079.15 1079.02"><defs><style>.celo1{fill:#35cf7f}</style></defs><path d="M567.54 1079h-56.95a27.86 27.86 0 0 0-3.63-1c-24.24-3.11-48.76-4.76-72.67-9.51-104.93-20.82-196.09-68.66-272.2-143.81Q19.22 783.65 1.81 583.06c-.43-4.88-1.2-9.72-1.81-14.58v-58a31.82 31.82 0 0 0 1-4.13c1.78-16.54 2.86-33.18 5.36-49.61C15.52 396.75 34.67 340 63 286.24 145.49 129.75 304.87 21.65 480.78 3.11a546.91 546.91 0 0 1 185.94 11.94c216.49 51.83 381 235.8 408.22 456.65a544 544 0 0 1-10.86 194.85C1010 892.12 814.57 1059 583.14 1077.23c-5.22.41-10.4 1.19-15.6 1.77ZM456.4 935.87c12.77-1 25.55-1.79 38.31-2.89a145.13 145.13 0 0 0 15.79-2.32q162-32.4 232.06-182a14.6 14.6 0 0 1 6.8-6.44c132.55-59.18 206.92-200 180.9-342.71-30.66-168.18-193.47-282-361.35-250.92-107.65 19.91-184.61 81.29-231.38 180.32a15.73 15.73 0 0 1-8.34 8.46A312.58 312.58 0 0 0 148.3 676.84c26.17 149.39 156.18 258.46 308.1 259.03Z" class="celo1 bg"/><path fill="#fdfefe" d="M456.4 935.87c-151.92-.57-281.93-109.64-308.1-259a312.58 312.58 0 0 1 180.89-339.5 15.73 15.73 0 0 0 8.34-8.46c46.77-99 123.73-160.41 231.38-180.36 167.88-31.11 330.69 82.74 361.35 250.92 26 142.75-48.35 283.53-180.9 342.71a14.6 14.6 0 0 0-6.8 6.44Q672.27 898 510.5 930.66a145.13 145.13 0 0 1-15.79 2.34c-12.71 1.08-25.54 1.92-38.31 2.87Zm-.18-542.17-.2-1.39c-17.09 2.42-34.17 4.88-51.27 7.24-3.08.42-4.47 1.83-5.17 4.94-7.16 31.79-7.94 63.71-1.56 95.63 25.5 127.57 149.52 208 276.12 179.41 3.17-.71 4.7-1.94 5.45-5.26a232.24 232.24 0 0 0 1.7-94.66C661.2 472.32 565.9 393.63 456.22 393.7ZM768.9 632.29c63.62-51.39 100.1-142.55 75.41-235.15a229.15 229.15 0 0 0-199.26-169.06c-88.6-8.74-163.31 36.13-197.64 82.11 89.13-.75 166.39 28.64 229.52 91.69s92.72 140.56 91.97 230.41ZM310.22 447.07c-56.91 44.18-98.8 131.92-77.54 226.2 22.08 97.92 107 172.82 211.49 178.38a226.06 226.06 0 0 0 103.66-18.79c33.06-14.42 61.11-35.56 84.92-64-90.28.72-167.53-28.7-230.65-91.79s-92.57-140.4-91.88-230Z" class="fg"/><path d="M456.22 393.7c109.68-.07 205 78.62 225.07 185.91a232.24 232.24 0 0 1-1.7 94.66c-.75 3.32-2.28 4.55-5.45 5.26-126.6 28.62-250.62-51.84-276.14-179.41-6.38-31.92-5.6-63.84 1.56-95.63.7-3.11 2.09-4.52 5.17-4.94 17.1-2.36 34.18-4.82 51.27-7.24Z" class="celo1 bg"/><path fill="#36cf7f" d="M768.9 632.29c.75-89.85-28.72-167.23-92-230.41s-140.39-92.44-229.52-91.69c34.33-46 109-90.85 197.64-82.11a229.15 229.15 0 0 1 199.29 169.06c24.69 92.6-11.79 183.76-75.41 235.15ZM310.22 447.07c-.69 89.6 28.74 166.85 91.88 230s140.37 92.51 230.65 91.79c-23.81 28.48-51.86 49.62-84.92 64a226.06 226.06 0 0 1-103.66 18.79c-104.45-5.56-189.41-80.46-211.49-178.38-21.26-94.27 20.63-182.02 77.54-226.2Z" class="bg"/></svg>