<svg xmlns="http://www.w3.org/2000/svg" viewBox="0 0 1069.23 1070.33"><g id="Layer_2" data-name="Layer 2"><g id="Layer_1-2" data-name="Layer 1"><path d="M646.88,0a423.59,423.59,0,0,1,409,317.76c51.56,199.2-49.75,408.3-238.09,491.11-5,2.18-7.73,5.27-10,10.08-61,130.29-161.21,214-302.31,242.1-148.58,29.56-278.62-11.91-385.93-119.15C56.88,879.29,19.28,802.78,5.37,715.19-25,523.73,75.79,339.26,253.26,261c3.73-1.64,5.54-4.12,7.16-7.6Q351.77,57,563.14,9.13a270,270,0,0,1,32-5.12C612.35,2.27,629.63,1.3,646.88,0Zm84.51,648.27A304.8,304.8,0,0,0,723.46,578C684,411,519.39,308.42,352.18,346.3c-4.31,1-6,2.92-6.85,6.93-9.59,43.16-10.45,86.45-1.91,129.82,33.75,171.43,204.21,281.19,374.34,241.22,3.38-.79,4.85-2.33,5.63-5.74A322.66,322.66,0,0,0,731.39,648.27ZM659.65,846C538.77,846.3,434,806.51,348.58,720.9S223.4,530.7,224.85,409.8C144.4,474.86,94.52,588,118.53,709.33c23.73,119.94,117.56,216.57,239.34,241C477.88,974.45,578.31,936.52,659.65,846ZM409.23,225.64c121-1.07,225.6,38.63,311,124.11s125.32,190.19,123.88,311C917.8,602.61,975.6,490.33,950.6,362.68,926.68,240.55,829.4,140.79,701.11,118.11,581.85,97,471,147.93,409.23,225.64Z"/></g></g></svg>