<svg xmlns="http://www.w3.org/2000/svg" viewBox="0 0 1079.19 1079.08"><defs><style>.cronos1{fill:#fdfdfd}</style></defs><path fill="#121926" d="M509.65 0h59a9.08 9.08 0 0 0 2.48.94 493.93 493.93 0 0 1 95.57 14.18q225 57.41 342.1 258.09c40.07 68.77 62.33 143.47 68.64 222.86.38 4.84 1.19 9.65 1.79 14.48v58.94a17.7 17.7 0 0 0-1 3.52 535.21 535.21 0 0 1-47.54 190.41c-81.37 178.21-251.56 297.51-447.81 313.8a532.56 532.56 0 0 1-195.94-20.16C178.72 995.84 26.37 813.77 3.23 598.5a538.72 538.72 0 0 1 14.13-195.06C75.32 181.33 267.11 20.58 496.22 1.79c4.49-.36 8.96-1.18 13.43-1.79Zm381.47 539.69q0-99.17.11-198.31c0-3.91-1.31-5.85-4.57-7.73q-171.76-99-343.38-198.34c-3-1.75-5.11-1.74-8.11 0Q363.09 234.79 190.86 334c-3 1.71-4 3.49-4 6.92q.15 198.56 0 397.11c0 3.45 1.08 5.2 4 6.91q172.28 99.19 344.37 198.66c3.35 1.94 5.54 1.38 8.51-.34q171.43-99.09 343-198c3.35-1.93 4.49-3.94 4.48-7.78q-.22-98.89-.1-197.79Z" class="bg"/><path d="M891.12 539.69q0 98.89.1 197.8c0 3.84-1.13 5.85-4.48 7.78q-171.59 98.87-343 198c-3 1.72-5.16 2.28-8.51.34Q363.15 844.12 190.88 745c-3-1.71-4-3.46-4-6.91q.15-198.56 0-397.11c0-3.43 1.06-5.21 4-6.92q172.23-99.22 344.31-198.7c3-1.74 5.1-1.75 8.11 0q171.62 99.3 343.38 198.34c3.26 1.88 4.58 3.82 4.57 7.73q-.25 99.1-.13 198.26Zm-104.36-.18c0-45.95 0-91.91.09-137.86 0-3.79-1.05-5.92-4.41-7.85Q662.91 325 543.53 255.93c-3.11-1.8-5.32-1.91-8.51-.07q-119.16 68.94-238.5 137.58c-3.62 2.08-5 4.23-5 8.49q.21 137.63 0 275.23c0 4.11 1.42 6.19 4.79 8.12q119.32 68.64 238.51 137.54c3.42 2 5.68 1.78 8.93-.1q119.16-68.94 238.49-137.59c3.57-2 4.6-4.32 4.58-8.25-.11-45.79-.06-91.58-.06-137.37Z" class="cronos1 fg"/><path fill="#131a27" d="M786.76 539.51c0 45.79 0 91.58.08 137.37 0 3.93-1 6.2-4.58 8.25q-119.34 68.63-238.49 137.59c-3.25 1.88-5.51 2.08-8.93.1q-119.16-68.94-238.51-137.54c-3.37-1.93-4.8-4-4.79-8.12q.21-137.61 0-275.23c0-4.26 1.36-6.41 5-8.49Q415.86 324.82 535 255.86c3.19-1.84 5.4-1.73 8.51.07Q662.9 325 782.44 393.8c3.36 1.93 4.42 4.06 4.41 7.85-.14 45.95-.09 91.91-.09 137.86Zm-83.63-95c-1-.61-1.48-.94-2-1.24q-79.46-45.93-158.88-91.95c-2.93-1.7-4.78-.8-7.18.59q-78.15 45.21-156.39 90.27c-2.94 1.69-4.23 3.38-4.22 6.92q.18 90.42 0 180.84c0 3.23.92 5 3.79 6.68q78.54 45.06 156.89 90.38c3.06 1.77 5.11 1.58 8-.11q67.32-39 134.79-77.81c8.27-4.77 16.51-9.58 25.17-14.6a24.58 24.58 0 0 0-2-1.54c-21-12.18-42-24.3-63-36.6-2.62-1.54-4.42-1-6.75.32q-44.18 25.71-88.46 51.34c-2.49 1.45-4.33 1.95-7.14.3q-43.94-25.65-88.12-50.91c-3.32-1.9-4.49-4-4.47-7.82q.24-49.95 0-99.91c0-4.28 1.44-6.42 5.06-8.48q43.32-24.72 86.38-49.91c3.24-1.9 5.52-2.08 8.88-.11 29.27 17.15 58.71 34 88 51.1 2.71 1.58 4.64 1.42 7.22-.09 20.24-11.83 40.56-23.52 60.85-35.27 1.08-.67 2.1-1.43 3.58-2.41Z" class="bg"/><path d="M703.13 444.49c-1.48 1-2.5 1.74-3.59 2.38-20.29 11.75-40.61 23.44-60.85 35.27-2.58 1.51-4.51 1.67-7.22.09-29.3-17.08-58.74-34-88-51.1-3.36-2-5.64-1.79-8.88.11q-43.07 25.15-86.38 49.91c-3.62 2.06-5.08 4.2-5.06 8.48q.3 50 0 99.91c0 3.84 1.15 5.92 4.47 7.82q44.17 25.26 88.12 50.91c2.81 1.65 4.65 1.15 7.14-.3q44.21-25.71 88.48-51.28c2.33-1.36 4.13-1.86 6.75-.32 20.93 12.3 42 24.42 63 36.6a24.58 24.58 0 0 1 2 1.54c-8.66 5-16.9 9.83-25.17 14.6Q610.56 688 543.18 726.92c-2.93 1.69-5 1.88-8 .11q-78.38-45.37-156.92-90.43c-2.87-1.64-3.79-3.45-3.79-6.68q.15-90.42 0-180.84c0-3.54 1.28-5.23 4.22-6.92q78.26-45 156.39-90.27c2.4-1.39 4.25-2.29 7.18-.59q79.37 46.11 158.88 91.95c.51.3 1.02.63 1.99 1.24Z" class="cronos1 fg"/></svg>