<svg xmlns="http://www.w3.org/2000/svg" viewBox="0 0 932.85 1074.98"><g id="Layer_2" data-name="Layer 2"><g id="Layer_1-2" data-name="Layer 1"><path d="M.11,537.66q0-131.74-.11-263.5c0-4.42,1.36-6.66,5.18-8.86Q149.35,182.31,293.37,99,377.94,50.2,462.49,1.31c3-1.72,5.21-1.76,8.22,0Q616.84,85.91,763.06,170.34q82.19,47.49,164.45,94.85c4,2.32,5.35,4.85,5.34,9.42q-.17,263.25,0,526.5c0,4.28-1.42,6.5-5,8.59Q773.72,898.5,619.75,987.51q-74.64,43.1-149.24,86.21c-2.81,1.63-4.87,1.71-7.71.07Q274,964.68,85.1,855.73q-40.24-23.22-80.56-46.3C1.21,807.54,0,805.53,0,801.66Q.21,669.66.11,537.66Zm794.45,0c0-61-.08-122,.14-183,0-5.15-1.81-7.71-6-10.13Q629.61,252.87,470.66,161c-3-1.74-5.16-1.75-8.14,0-15.33,9.06-30.81,17.9-46.24,26.8Q280.17,266.29,144,344.68c-4.19,2.41-5.55,5.08-5.54,9.85q.21,182,0,364c0,6.33,1.91,9.61,7.42,12.78q158.32,91,316.35,182.43c3.09,1.79,5.38,2,8.61.12q159.34-92.18,318.87-184.07c3.68-2.13,5-4.48,4.95-8.67Q794.46,629.37,794.56,537.62Z"/><path d="M684,412l-30.63,17.7c-18.6,10.76-37.24,21.44-55.76,32.33-3,1.76-5.2,1.68-8.18,0-39.44-22.94-79-45.72-118.44-68.66-3-1.75-5.24-2.26-8.53-.34q-58.71,34.21-117.64,68c-4,2.26-5.48,4.76-5.46,9.4q.29,67.24,0,134.51c0,4.19,1.26,6.55,5,8.66q59.15,33.95,118.08,68.27c3,1.73,5.14,1.73,8.13,0,39.3-22.87,78.71-45.54,118-68.43,3.62-2.11,6.29-2.2,9.94-.06,27,15.86,54.12,31.5,81.19,47.23,1.23.71,2.37,1.56,4.2,2.78-4.06,2.4-7.43,4.44-10.83,6.4Q571.5,728.32,470.05,786.91c-2.67,1.55-4.58,1.55-7.24,0Q357.69,726.19,252.44,665.66c-2.94-1.69-4.11-3.64-4.11-7.13q.15-121,0-242c0-3.51,1.22-5.42,4.15-7.11q105.21-60.6,210.4-121.22c1.74-1,5-1.2,6.65-.25q105.9,60.9,211.6,122.12C681.81,410.43,682.42,410.93,684,412Z"/></g></g></svg>