<svg xmlns="http://www.w3.org/2000/svg" viewBox="0 0 874.17 1046"><g id="Layer_2" data-name="Layer 2"><g id="Layer_1-2" data-name="Layer 1"><path d="M442.23,1046h-5c-2.3-.28-4.6-.66-6.91-.81a97.89,97.89,0,0,1-40.09-11.08q-124.82-66-249.55-132.22c-6.1-3.24-12.19-7.22-16.88-12.18s-8.9-8-15.64-7.05c-.22,0-.5-.38-1.06-.84V170.72a24.83,24.83,0,0,0,0-3c-.42-3.47,1-5.06,4.5-4.49,4.43.74,7.06-1.61,10.21-4.49,5.71-5.22,11.82-10.39,18.61-14q124.17-66.18,248.7-131.7c33.14-17.32,67.58-17.43,100.71-.14C573.13,56.4,656,100.66,739,144.78a65.69,65.69,0,0,1,16.09,11.59c4.58,4.68,8.89,8.15,15.71,7.07.23,0,.53.34.86.57V882.88c-2.55,0-4.75-.32-6.82.09-1.76.35-3.87,1.09-5,2.39-6.11,7.29-13.64,12.59-22,17q-114,60.28-228,120.6c-11.89,6.26-23.81,12.82-36.41,17.28C463.61,1043.73,452.68,1044.19,442.23,1046Zm-258-855.95c2.22,1.29,3.48,2.09,4.78,2.78q113.76,60.22,227.56,120.4c15.33,8.08,31.09,7.94,46.42-.15q113.4-59.88,226.68-119.95c1.54-.82,3-1.73,5.2-3-2-1.13-3.18-1.88-4.45-2.55Q576.65,127.37,462.86,67.18c-15.34-8.1-31.06-8.12-46.39,0q-96.23,50.72-192.3,101.7C211.13,175.74,198.11,182.68,184.22,190.05ZM694.94,856.37c-2.3-1.35-3.78-2.31-5.34-3.14q-112.89-59.76-225.79-119.5c-16.23-8.59-32.47-8.44-48.67.14Q301.59,794,188.07,854.12c-1.08.57-2.06,1.33-3.46,2.25,1.38.81,2.2,1.35,3.06,1.81,77,40.79,153.94,81.74,231.11,122.21,13.67,7.17,28.59,6.92,42.36-.32Q573.52,921,685.64,861.37C688.52,859.84,691.38,858.28,694.94,856.37ZM184,515.72c75.5,40,150,79.42,225.12,119.17V396.55Zm511.28,0-225-119.12V634.84Zm16.13,60.12L503.32,686,711.39,796.13ZM168.06,576V796L375.92,686Zm543.36-325.7-194,102.68,194,102.67ZM361.78,352.93,168,250.37V455.49Z"/><path d="M0,844.82c2.67-.17,4.13-.34,5.6-.35,16.79,0,33.59.11,50.39-.1,4.16,0,5.16,1.29,5.41,5.36.66,10.44,1.52,20.91,3.2,31.22a43.06,43.06,0,0,0,17.89,29c10.58,7.48,21.61,14.3,32.45,21.4,1.52,1,3.06,1.95,5.19,3.31L88.88,986.45c-4-2.39-7.77-4.64-11.54-6.92-15.53-9.38-31-19-43.78-32C15.74,929.39,6.4,907.11,3.17,882.21,1.59,870,1.06,857.73,0,844.82Z"/><path d="M754.38,100.43c10.46-17.32,20.74-34.33,31.26-51.72C808,62.44,830.81,74.65,847.5,95.11c15.85,19.42,22.64,42.29,25,66.75.89,9.37,1.15,18.81,1.71,28.56H813.74c-.51-7.51-.78-14.95-1.6-22.34a145.08,145.08,0,0,0-3-17.17c-3.33-14.24-13-23.69-24.66-31.35C774.76,113.19,764.87,107.08,754.38,100.43Z"/></g></g></svg>