<svg version="1.0" xmlns="http://www.w3.org/2000/svg" width="21" height="21" viewBox="0 0 200.000000 200.000000" preserveAspectRatio="xMidYMid meet">
<g transform="translate(0.000000,200.000000) scale(0.100000,-0.100000)"
fill="#426ed5" stroke="none">
<path d="M837 1836 c-188 -98 -371 -197 -384 -208 -10 -8 -13 -145 -13 -627 0
-339 4 -621 8 -627 12 -17 57 -42 347 -195 75 -39 152 -75 171 -79 51 -12 97
3 219 68 61 32 164 87 230 122 66 34 126 67 133 72 9 8 12 147 12 633 0 580
-1 623 -17 638 -18 15 -75 46 -360 193 -182 95 -184 95 -346 10z m231 6 c114
-57 423 -222 440 -235 11 -8 11 -12 0 -23 -7 -6 -117 -66 -244 -133 -155 -81
-243 -121 -264 -121 -30 0 -103 36 -403 197 -59 32 -108 62 -109 68 -1 11 6
15 197 115 77 41 172 91 210 112 79 42 118 47 173 20z m-562 -311 c5 -4 84
-47 175 -94 239 -124 252 -132 237 -144 -7 -5 -42 -24 -78 -43 -36 -18 -87
-45 -115 -60 -27 -15 -94 -50 -147 -79 l-98 -52 0 240 c0 133 4 241 8 241 4 0
12 -4 18 -9z m1014 -232 c0 -192 -3 -239 -12 -232 -7 6 -80 45 -163 88 -182
94 -277 147 -273 150 2 1 48 26 103 55 55 28 154 81 220 116 66 35 121 64 123
64 1 0 2 -109 2 -241z m-540 -289 c0 -189 -3 -260 -12 -260 -9 0 -253 124
-356 182 -17 10 -55 29 -83 43 -39 20 -48 29 -40 39 6 7 57 37 113 67 57 29
159 83 228 120 69 36 131 67 138 68 9 1 12 -57 12 -259z m152 211 c51 -27 152
-80 223 -118 172 -90 172 -90 160 -101 -5 -5 -53 -32 -105 -60 -312 -165 -365
-192 -377 -192 -10 0 -13 53 -13 260 0 157 4 260 9 260 6 0 52 -22 103 -49z
m-484 -352 c86 -45 188 -100 227 -122 87 -51 155 -55 225 -15 25 14 90 49 145
78 55 29 137 72 182 96 45 24 84 44 87 44 3 0 6 -126 6 -279 l0 -280 -92 -49
c-83 -44 -144 -77 -328 -174 -102 -54 -84 -60 -530 176 l-85 45 -3 280 c-1
155 0 281 3 281 4 0 77 -37 163 -81z"/>
<path d="M1522 1753 c-8 -14 -2 -22 33 -44 36 -23 76 -73 75 -94 -2 -56 1 -65
21 -65 20 0 21 4 17 50 -6 58 -34 104 -88 143 -45 32 -46 32 -58 10z"/>
<path d="M320 433 c1 -60 32 -117 85 -153 40 -28 49 -30 61 -18 12 12 8 18
-31 46 -49 34 -75 80 -75 132 0 23 -4 30 -20 30 -16 0 -20 -7 -20 -37z"/>
</g>
</svg>
