<svg xmlns="http://www.w3.org/2000/svg" viewBox="0 0 1096.94 1096.94"><defs><style>.cls-1{fill:#13b5ec;}.cls-2{fill:#fff;}</style></defs><g id="Layer_2" data-name="Layer 2"><g id="Layer_1-2" data-name="Layer 1"><circle class="cls-1" cx="548.47" cy="548.47" r="548.47"/><path class="cls-2" d="M311.67,548q0-119.22,0-238.44c0-10.08,4.71-17.7,12-24.14,5.5-4.85,12.31-7.45,18.55-11,7.6-4.35,15.49-8.18,23.2-12.35,5.85-3.17,11.83-6.17,17.79-9.18,6.54-3.3,12.9-7,19.38-10.38,5.85-3.1,11.77-6.05,17.63-9.14,6.29-3.31,12.53-6.72,18.82-10.05,4.69-2.49,9.33-5.09,14.13-7.35,3.66-1.71,7-4,10.62-5.73,4.91-2.38,9.73-4.95,14.56-7.48,3.44-1.81,6.83-3.72,10.26-5.54,4.69-2.48,9.41-4.93,14.11-7.38,3.44-1.81,6.88-3.63,10.34-5.4a66.28,66.28,0,0,1,13.22-5.05,86.16,86.16,0,0,1,29-2.26,67.44,67.44,0,0,1,16.91,3.34c6,2,11.5,5.2,17.11,8.12,6.18,3.22,12.22,6.68,18.55,9.6,3.39,1.57,6.54,3.63,9.84,5.38,6.72,3.58,13.48,7.1,20.22,10.66,4.76,2.52,9.43,5.21,14.28,7.56,6,2.88,11.56,6.41,17.61,9.11,3.21,1.43,6.18,3.37,9.29,5,5.85,3.1,11.73,6.13,17.58,9.22,4.31,2.28,8.59,4.63,12.91,6.89,5.09,2.66,10.23,5.23,15.32,7.9,4.39,2.3,8.73,4.71,13.11,7,6.66,3.54,13.28,7.15,20,10.53,5.25,2.64,10.41,5.48,14.53,9.64a35.47,35.47,0,0,1,9.75,16.28,47,47,0,0,1,1.11,12q0,234.52,0,469.05A33.73,33.73,0,0,1,772,810.3c-4.45,4.1-9.68,6.86-15,9.55s-10.48,5.7-15.76,8.48c-4.83,2.55-9.77,4.9-14.51,7.6-3.31,1.88-6.72,3.56-10.08,5.33l-14.12,7.42-10.68,5.64-14.11,7.41-10.68,5.64c-4.83,2.55-9.6,5.24-14.53,7.58-3.51,1.67-6.76,3.78-10.24,5.51-4.9,2.42-9.68,5-14.52,7.59l-10.29,5.42-14.12,7.4c-3.62,1.91-7.21,3.89-10.86,5.76-6.44,3.32-12.7,7-19.59,9.4-10.39,3.7-21.1,4.52-32,4a69.58,69.58,0,0,1-17.17-3.13,81.67,81.67,0,0,1-13.07-5.53c-4.92-2.52-9.71-5.3-14.72-7.65-3.29-1.55-6.42-3.53-9.68-5.22-6.69-3.47-13.34-7-20-10.55-4.83-2.56-9.64-5.14-14.48-7.68-6.61-3.47-13.25-6.9-19.86-10.38-3.06-1.61-6-3.33-9.11-4.93-5.21-2.73-10.47-5.38-15.68-8.12-4.38-2.3-8.69-4.76-13.1-7-5-2.56-9.87-5.31-14.95-7.71-3.37-1.59-6.52-3.64-9.84-5.34-5-2.56-9.85-5.34-14.95-7.7-3.25-1.5-6.31-3.41-9.47-5.1-4.82-2.58-9.77-4.91-14.45-7.72-7.44-4.47-13.41-10.3-16.7-18.66a32.13,32.13,0,0,1-2-12Q311.68,666.77,311.67,548Zm429.56,37.3c-3.48,1.82-6.66,3.46-9.82,5.13q-10.12,5.31-20.24,10.65c-4.44,2.36-8.84,4.82-13.29,7.17-5.09,2.67-10.23,5.23-15.31,7.91s-10.1,5.51-15.18,8.2c-6,3.15-12,6.11-18,9.38Q641.8,637.95,634,642c-5.86,3-11.63,6.25-17.55,9.16-4.9,2.41-9.64,5.12-14.47,7.67-6.54,3.45-13.16,6.77-19.64,10.35a57.67,57.67,0,0,1-13.92,5.66,79.45,79.45,0,0,1-21.17,2.67A95.72,95.72,0,0,1,532,676.05a68.65,68.65,0,0,1-12.47-3.27c-8-3.11-15.35-7.52-22.9-11.51s-15.4-8-23-12.23c-6.42-3.54-13-6.78-19.47-10.24-6-3.22-12.06-6.38-18.07-9.6-5.51-2.94-10.91-6.12-16.52-8.85-3.56-1.73-7-3.75-10.46-5.55-4.72-2.42-9.36-5-14.13-7.37-3.36-1.65-6.54-3.63-9.85-5.37q-8.85-4.66-17.73-9.3l-13.92-7.25V778.79a6.32,6.32,0,0,1,0,.87c-.13,1,.34,1.42,1.28,1.87,3.37,1.6,6.66,3.38,10,5.14,7.55,4,15,8.14,22.61,12.14s15,7.84,22.57,11.75c7.71,4,15.49,7.89,23.13,12,7.14,3.86,14.35,7.59,21.52,11.39,9.07,4.82,18.21,9.52,27.28,14.35,7.16,3.8,14.38,7.5,21.53,11.32,6.34,3.38,12.71,6.71,19.07,10.07,7.15,3.78,14.37,7.15,22.45,8.36a13.39,13.39,0,0,0,4.51,0A50.46,50.46,0,0,0,563,874c4.17-2.08,8.46-3.91,12.61-6,5.11-2.63,10.1-5.49,15.17-8.2,4.88-2.6,9.75-5.21,14.69-7.7,4.44-2.23,8.69-4.84,13.14-7,5.11-2.48,9.9-5.54,15.08-7.88,3.33-1.51,6.43-3.53,9.66-5.25,6.72-3.57,13.48-7.08,20.2-10.65,4.44-2.36,8.77-5,13.3-7.13,6.17-2.95,12-6.5,18.12-9.56,3.2-1.61,6.36-3.32,9.49-5.1,4.92-2.8,10.07-5.2,15.08-7.85,6.42-3.38,12.72-7,19.25-10.16,2.15-1,2.52-2.17,2.52-4.22q-.07-94.65,0-189.31ZM732,311.66a1.45,1.45,0,0,0-.78-.72c-6.16-3.25-12.27-6.59-18.46-9.76-8.69-4.46-17.25-9.18-26-13.59-7.18-3.63-14.17-7.63-21.34-11.3-8.88-4.54-17.62-9.36-26.43-14-5.39-2.86-10.8-5.68-16.2-8.53q-7.8-4.11-15.6-8.24c-4.69-2.49-9.36-5-14-7.51-3.37-1.78-6.77-3.51-10.15-5.28-4.71-2.47-9.44-4.9-14.11-7.43-3.29-1.78-6.39-3.95-10-5a42.53,42.53,0,0,0-14.6-1.34,30.68,30.68,0,0,0-12.94,3.73c-3.16,1.69-6.23,3.58-9.46,5.14-6,2.88-11.71,6.16-17.57,9.23-4.39,2.31-8.75,4.67-13.14,7q-7.14,3.76-14.3,7.49c-4.47,2.32-8.84,4.84-13.32,7.14-5.17,2.65-10.3,5.4-15.46,8.07-6.19,3.21-12.29,6.58-18.45,9.84s-12.34,6.45-18.49,9.7c-3.12,1.65-6.17,3.42-9.3,5-5,2.58-10.07,4.91-14.94,7.66-5.51,3.11-11.18,5.91-16.73,8.94-2.25,1.22-4.74,2.05-6.62,3.65,4,2.6,8.37,4.49,12.53,6.75,5.62,3.06,11.17,6.28,16.92,9.07,3.56,1.72,7,3.72,10.47,5.52,4.72,2.43,9.39,5,14.09,7.44q5.34,2.82,10.71,5.59c4.46,2.31,8.92,4.64,13.34,7s9.14,4.87,13.69,7.33c4.86,2.64,9.79,5.16,14.68,7.75l16.16,8.57c2.93,1.55,5.87,3.05,8.79,4.61,5.13,2.74,10.23,5.53,15.36,8.26,6,3.16,12,6.22,17.91,9.43,4,2.15,8,4.25,12.55,4.88a66.47,66.47,0,0,0,13,.16,21.49,21.49,0,0,0,8.4-2.42c4.3-2.17,8.52-4.51,12.76-6.8,6.57-3.55,13.23-6.91,19.83-10.38,4.7-2.47,9.37-5,14.06-7.48,6.8-3.59,13.61-7.15,20.4-10.76,4.37-2.32,8.65-4.84,13.1-7,5.94-2.9,11.72-6.1,17.53-9.24,4.3-2.32,8.71-4.41,13-6.85,4.66-2.68,9.53-5,14.29-7.49,3.7-1.94,7.36-4,11.05-5.9,5.91-3.11,11.84-6.17,17.75-9.3C721.32,317.43,726.67,314.53,732,311.66ZM526.82,631.12V457.56c-4.36,2.62-8.7,4.82-13,7-3.33,1.7-6.53,3.67-9.84,5.4-5,2.6-10.08,4.9-14.94,7.69-6.18,3.54-12.63,6.56-18.83,10.05-6,3.37-12.23,6.4-18.33,9.64-5.07,2.69-10,5.7-15.17,8.15-4.88,2.31-9.44,5.2-14.3,7.54-3.62,1.74-7.11,3.78-10.67,5.66-6,3.14-12,6.23-18,9.39-5.46,2.87-10.89,5.79-16.33,8.7-4.56,2.44-9.11,4.9-14,7.55,2.63,1.4,5.09,2.57,7.41,4,4.93,3,10.23,5.21,15.21,8.12,5.87,3.44,12.24,6,18.17,9.38,4.69,2.65,9.48,5.12,14.23,7.64,7.55,4,15.18,7.89,22.69,12,8.64,4.68,17.46,9,26,13.89,4.75,2.69,9.61,5.18,14.43,7.75,4.19,2.23,8.33,4.58,12.62,6.6,6,2.82,11.68,6.18,17.53,9.26C516.68,625.57,521.88,627.85,526.82,631.12Zm205.47-86.73c-2.69-1.51-5.09-2.92-7.55-4.21-4.7-2.47-9.46-4.83-14.15-7.3-4.52-2.38-9-4.86-13.47-7.26-4.88-2.6-9.84-5-14.66-7.76-5.19-2.93-10.62-5.39-15.79-8.38-5.64-3.26-11.73-5.74-17.39-9-8.75-5-17.76-9.44-26.58-14.25-3.59-2-7.4-3.53-10.87-5.67-5.09-3.15-10.59-5.47-15.74-8.47-4.65-2.71-9.52-5.05-14.29-7.56l-12.62-6.63V630.8Zm8.86-42.9V353.7c-.81-.27-1.32.21-1.84.57-4.82,3.3-10.26,5.45-15.36,8.23s-10.19,5.35-15.29,8c-4.33,2.26-8.61,4.62-12.93,6.89-5.1,2.66-10.25,5.22-15.33,7.91s-10,5.64-15.19,8.16-10.1,5.18-15.13,7.82c-4.39,2.3-8.72,4.7-13.12,7-5,2.63-10.1,5.17-15.13,7.79-3.32,1.73-6.58,3.57-9.89,5.31-3.74,2-7.5,3.91-11.5,6,2.84,1.56,5.48,3.11,8.2,4.51,9.78,5,19.55,10.07,29.25,15.23,8.81,4.69,17.7,9.25,26.5,14,8.23,4.43,16.52,8.73,24.8,13.06,3.82,2,7.78,3.74,11.47,5.93,5.33,3.17,11,5.74,16.37,8.73,4.64,2.57,9.42,4.88,14.12,7.34C734.44,497.86,737.7,499.64,741.15,501.49ZM494.28,427.4,353.64,353.52V501.57c1.16-1.25,2.56-1.47,3.74-2.17,4.19-2.51,8.61-4.6,12.93-6.86,5.16-2.7,10.34-5.35,15.48-8.08,4.25-2.26,8.47-4.55,12.74-6.78,5.15-2.7,10.35-5.32,15.51-8,4.33-2.25,8.63-4.57,12.95-6.84,5.72-3,11.46-6,17.18-9,4.38-2.32,8.71-4.71,13.09-7,5.08-2.66,10.21-5.25,15.3-7.88q6.81-3.53,13.58-7.1C488.79,430.42,491.42,429,494.28,427.4Z"/><path class="cls-2" d="M239.7,793.06c4.13,0,8.26,0,12.38,0,5.49,0,7.88,2.3,8.07,7.92a158,158,0,0,0,1.2,18.18c1,6.58,2.46,13,6,18.79,3.64,6,9,10.08,14.64,13.95,3.33,2.31,6.72,4.53,10.2,6.57s6.74,4.2,10.16,6.18c3.67,2.13,4.18,7.09,2.28,10.3-4.14,7-8.59,13.88-12.5,21-3.09,5.64-8.39,6-12.72,3.26-7-4.45-14.18-8.65-21.1-13.27a90,90,0,0,1-26-26,69.62,69.62,0,0,1-8.65-20.38c-3.29-12.53-4.36-25.32-4.5-38.22,0-5.62,2.72-8.32,8.4-8.33Z"/><path class="cls-2" d="M857.31,306.81H845.14c-5.87,0-8.3-2.44-8.39-8.27-.13-9.26-.59-18.48-3.14-27.48-2.36-8.36-7.47-14.66-14.18-19.9-7.65-6-16.33-10.36-24.31-15.84-3.93-2.69-4.9-7.09-2.23-11.27,4.35-6.8,8.32-13.84,12.49-20.75,2.87-4.76,6.85-5.94,11.55-3,9.21,5.7,18.61,11.09,27.26,17.69A81,81,0,0,1,869,248a84.33,84.33,0,0,1,6.1,20.19,160.21,160.21,0,0,1,2.68,30.83c0,4.84-2.85,7.68-7.69,7.75C865.85,306.85,861.58,306.81,857.31,306.81Z"/></g></g></svg>