<svg xmlns="http://www.w3.org/2000/svg" viewBox="0 0 562.82 562.24"><circle cx="280.7" cy="281.12" r="267.43" fill="#fff" class="fg"/><path fill="#c0db64" d="M253.25 560.84c-4.57-.55-9.14-1.07-13.7-1.65-3.09-.4-6.2-.69-9.23-1.33q-9.66-2.05-19.26-4.46a275 275 0 0 1-63.63-24.9 278.85 278.85 0 0 1-45.05-30.36A281.66 281.66 0 0 1 13.65 368a267 267 0 0 1-9.41-37.8c-.86-5-1.59-10-2.32-15a157.56 157.56 0 0 1-1.58-19.53C.17 287.53 0 279.38 0 271.24c0-4.46.58-8.92.79-13.38a216.51 216.51 0 0 1 2.93-23.93A262.73 262.73 0 0 1 11.9 199 274.05 274.05 0 0 1 30 154 283.25 283.25 0 0 1 140.23 37.63a280.46 280.46 0 0 1 56-24.75 253.65 253.65 0 0 1 39.49-9.38c5-.75 10.1-1.27 15.15-1.9l4.72-.6 2.49-.33 3.29-.16 3.43-.32L270 0l1.42.14h20.22l1.47-.14 5.24.18 3.41.32 3.31.17 2.48.33c4.09.52 8.17 1.12 12.27 1.53a197.8 197.8 0 0 1 19.94 3.3 267.32 267.32 0 0 1 41.94 12.3 279.66 279.66 0 0 1 59.22 31.19 285.79 285.79 0 0 1 31.76 25.46 281.07 281.07 0 0 1 85.08 152.66c.93 4.82 1.4 9.74 2.12 14.61.27 1.8.76 3.58.93 5.39.39 4 .48 8.12 1 12.15 1.39 10.73 1 21.51.8 32.27-.13 6.21-.76 12.42-1.38 18.61-.43 4.25-1.29 8.46-1.83 12.71-2.72 21.59-8.76 42.28-16.78 62.44a275.64 275.64 0 0 1-27.24 51.6A285.93 285.93 0 0 1 487.92 472a281 281 0 0 1-65.2 52.28 276.48 276.48 0 0 1-79.27 31.13c-7.21 1.62-14.51 2.84-21.81 4-5.8.88-11.67 1.33-17.5 2l-3.43.35-3.77.13-5.35.35h-20.52l-5.35-.35-3.77-.13-3.42-.35-2.81-.14Zm34.13-169.65.92-.14c1.43-.16 2.86-.26 4.28-.49a56.86 56.86 0 0 0 20.69-7.16q19.35-11.77 38.67-23.6Q382 341.43 412 323l58.9-36a28.08 28.08 0 0 0 8.77-8 15.29 15.29 0 0 0-.29-18.5 26.07 26.07 0 0 0-9-7.42c-6.73-3.67-13.52-7.24-20.29-10.85l-8-4.25-1.33.79-42.52 26c-23.72 14.5-47.5 28.91-71.15 43.52a84.89 84.89 0 0 1-36.9 12.24l-2.48.28H274l-3-.33a77 77 0 0 1-11.48-2 71.38 71.38 0 0 1-13.76-4.84c-4.71-2.37-9.37-4.83-14-7.31q-33.55-17.82-67.09-35.69l-34.27-18.15c-3-1.61-6.07-3.2-9.14-4.81-.54.28-1.05.5-1.52.79l-28.41 17.4a29.55 29.55 0 0 0-7.23 6.24c-2.79 3.31-4.77 7.05-4.41 11.5a17.09 17.09 0 0 0 4.89 10.44 29.38 29.38 0 0 0 7.65 5.72q21.66 11.58 43.36 23.1 13.23 7 26.48 14l62.4 33.25c9.38 5 18.73 10.06 28.15 15a51 51 0 0 0 21.24 5.94l.48.12Zm-14.95 22.42a25.13 25.13 0 0 1-4.07-.09c-3-.53-6.06-1.22-9.08-1.9a72.93 72.93 0 0 1-17.68-6.57l-21.42-11.29Q192.59 379.3 165 364.87q-18.15-9.51-36.27-19.07a3.63 3.63 0 0 0-4.14.14c-8.16 5-16.42 9.89-24.59 14.89-4.29 2.62-8.55 5.3-12.67 8.18a18.49 18.49 0 0 0-6.33 8.24 13 13 0 0 0 0 11.27 22.24 22.24 0 0 0 9.7 10c10.68 5.77 21.45 11.37 32.2 17q19.31 10.16 38.63 20.26L221 466.93c9.41 4.93 18.86 9.77 28.2 14.83a61.14 61.14 0 0 0 26.64 7.66 11 11 0 0 0 2.28.39c2.29-.07 4.57-.25 6.85-.39 2.75-.33 5.52-.57 8.26-1a55.26 55.26 0 0 0 19.75-7q15.3-9.24 30.59-18.44 29-17.42 57.92-34.84 32.34-19.49 64.67-39c3.9-2.36 7.79-4.71 10.91-8.14 6.25-6.89 6.22-15.53-.36-22.07a29.71 29.71 0 0 0-6.62-5.07c-10.88-5.9-21.89-11.58-32.82-17.41a3.08 3.08 0 0 0-3.5.3q-18.47 11.25-37 22.32l-69.13 41.73a83 83 0 0 1-22.94 10.06c-2.31.57-4.73.75-7 1.43-2.94.89-6 .92-8.94 1.29l-3.38.3h-10.52Zm6.72-341.17c-3.72.37-7.49.55-11.17 1.17a52.26 52.26 0 0 0-18.44 6.47Q219.72 97.92 190 115.87l-57.31 34.45c-13.83 8.31-27.69 16.57-41.5 24.93-4.37 2.65-8.08 6-10.11 10.88-1 2.44-1.84 5-1.21 7.67a18.37 18.37 0 0 0 4.13 8.28 28.71 28.71 0 0 0 8.32 6.36q23.55 12.38 47.13 24.71 20.49 10.72 41 21.42l56.94 29.73c6.16 3.21 12.26 6.56 18.57 9.47a42.21 42.21 0 0 0 16.46 4.23l.54.15a6 6 0 0 0 .94.17c7.9.36 15.75.28 23.52-1.62a56.42 56.42 0 0 0 15.8-6.08q26-15.57 52-31.22l103.33-62a40.73 40.73 0 0 0 9.66-7.41c4.75-5.29 5.83-11.7 2.9-17.48a21.69 21.69 0 0 0-9-9c-4.37-2.48-8.86-4.77-13.31-7.11q-20.06-10.52-40.13-21l-65-34Q333.75 91 313.89 80.68a106 106 0 0 0-10.2-4.74 57.08 57.08 0 0 0-19.7-3.5Z" class="bg"/></svg>