<svg xmlns="http://www.w3.org/2000/svg" xmlns:xlink="http://www.w3.org/1999/xlink" viewBox="0 0 100 103.27"><defs><style>.cls-1{fill:#fff;}.cls-1,.cls-3{fill-rule:evenodd;}.cls-2{mask:url(#mask);}</style><mask id="mask" x="0" y="65.19" width="99.74" height="38.08" maskUnits="userSpaceOnUse"><g id="mask-2"><polygon id="path-1" class="cls-1" points="0 65.19 99.74 65.19 99.74 103.27 0 103.27 0 65.19"/></g></mask></defs><g id="Layer_2" data-name="Layer 2"><g id="Layer_1-2" data-name="Layer 1"><g id="New-web-2021"><g id="Group-28"><g id="Group-3"><g class="cls-2"><path id="Fill-1" class="cls-3" d="M49.77,84.57a20.49,20.49,0,0,1-9.44-2.13l-28.71-15L3,72.6c-4.09,2.46-4,6.22.16,8.41l39.7,20.75a15.15,15.15,0,0,0,6.89,1.51,16.14,16.14,0,0,0,8.08-2L96.72,77.91c4.08-2.45,4-6.22-.16-8.4L88.3,65.19,60.69,81.79a21.55,21.55,0,0,1-10.92,2.78"/></g></g><path id="Fill-4" class="cls-3" d="M96.81,44.66,89.92,41l-16,9.79-2.75,1.67-2.76,1.68-7.51,4.59a21.36,21.36,0,0,1-11,2.83,20.28,20.28,0,0,1-9.47-2.17l-8.6-4.56L29,53.32,26.13,51.8,10.27,43.39,3,47.8c-4.1,2.5-4,6.33.16,8.55l8.27,4.39,2.85,1.52,2.85,1.51L43,77.47A15,15,0,0,0,49.9,79,16,16,0,0,0,58,77L82.84,61.82l2.75-1.67,2.76-1.68L97,53.21c4.1-2.5,4-6.33-.16-8.55"/><path id="Fill-6" class="cls-3" d="M96.81,22.25,57,1.5A15.26,15.26,0,0,0,50.1,0,16.08,16.08,0,0,0,42,2L3,25.35c-4.1,2.45-4,6.21.16,8.4l6.89,3.59,2.85,1.48,2.85,1.49,15.86,8.27,2.85,1.48,2.84,1.49,5.66,3A15.26,15.26,0,0,0,49.9,56,16.08,16.08,0,0,0,58,54l4.66-2.79,2.76-1.65,2.75-1.65,16-9.62L87,36.64,89.73,35,97,30.65c4.1-2.45,4-6.21-.16-8.4"/></g></g></g></g></svg>