<svg xmlns="http://www.w3.org/2000/svg" width="150" height="150" fill="none"><circle cx="75" cy="75" r="75" fill="#133629" class="bg"/><path fill="#fff" d="M42.448 69.113c0-2.935.966-5.609 2.637-7.726l17.687 17.68a12.54 12.54 0 0 1-7.728 2.638c-6.985 0-12.633-5.648-12.596-12.592m52.616 12.554c6.949.036 12.596-5.61 12.596-12.592 0-2.897-.966-5.57-2.637-7.726l-17.687 17.68c2.117 1.673 4.793 2.638 7.728 2.638M75 83.97 36.502 45.49a58 58 0 0 1 3.42-3.975c8.842-9.249 21.29-15.044 35.114-15.044s26.308 5.795 35.114 15.042a33 33 0 0 1 3.344 3.938zM45.197 45.156l29.839 29.826 29.839-29.826c-7.915-7.986-18.469-12.37-29.84-12.37s-21.885 4.382-29.838 12.37m29.802 78.373c26.791 0 48.529-21.729 48.529-48.51a47.35 47.35 0 0 0-6.948-25.148l-7.84 7.838c2.601 3.12 4.161 7.057 4.161 11.44 0 9.844-7.99 17.83-17.837 17.83-4.347 0-8.323-1.559-11.445-4.16L75.036 91.4l-8.583-8.58c-3.122 2.6-7.06 4.16-11.446 4.16-9.847 0-17.836-7.985-17.836-17.83 0-4.345 1.56-8.32 4.16-11.441l-4.01-4.011-3.827-3.827a48.3 48.3 0 0 0-7.023 25.147c-.002 26.818 21.736 48.511 48.528 48.511" class="fg"/></svg>