<svg xmlns="http://www.w3.org/2000/svg" viewBox="0 0 1080 1079.53"><g id="Layer_2" data-name="Layer 2"><g id="Layer_1-2" data-name="Layer 1"><path d="M0,874V209a69.34,69.34,0,0,0,1.65-6.76,225.81,225.81,0,0,1,18.94-62.86C64,46.38,158.3-10.84,270.13,6.4,319.28,14,362,35.44,397.38,70.46c43.8,43.32,67.58,96,68.26,157.65,1,87.47.29,175,.31,262.45v6.74c5.82-.61,10.76-1.41,15.72-1.61,41.94-1.68,83.88-3.36,125.83-4.73,5-.16,6.37-1.28,6.36-6.41-.18-82.49-.37-165,.08-247.46a247.89,247.89,0,0,1,4.68-46.1C629,138.05,655,93.8,695.53,58.21c32.36-28.44,69.84-46.65,112.34-54.15C817.52,2.36,827.29,1.34,837,0h24a45.39,45.39,0,0,0,4.85.9c35.94,2.76,69.64,12.9,100.48,31.59,57.09,34.61,93.61,84.39,108.71,149.58,2,8.57,3.32,17.28,5,25.93V870c-1.64,8.8-3,17.67-5,26.39-13.31,57.77-44.8,103.37-93.27,137.11-34,23.7-72,36.88-113.32,40.83a229.25,229.25,0,0,1-91.32-9.3c-49.32-15.47-89.1-44.43-119.25-86.33-27.25-37.9-42.67-80.36-43.71-127-1.15-51.63-.38-103.31-.41-155,0-35.5-.07-71,.07-106.49,0-4.32-1.09-5.32-5.44-4.7a222.92,222.92,0,0,1-23.39,2c-37.62,1.41-75.25,2.76-112.88,3.78-5.2.14-6.26,1.68-6.26,6.58q.23,123.24.07,246.47c0,8.15-.32,16.33-1,24.45-5.23,61-30.81,112.31-77.25,151.78-63.72,54.16-137.79,71.92-218.18,49.43C82.07,1045.57,28.14,986,5.11,898.36,3,890.35,1.69,882.13,0,874ZM96.17,607.74c2.15-1.46,3.26-2.12,4.25-2.91a320.16,320.16,0,0,1,78.87-45.56c28.62-11.6,57.89-21.76,87.3-31.23a624.19,624.19,0,0,1,100.15-22.91c4.57-.67,5.14-2.74,5.14-6.61q-.12-131.7-.09-263.41a152,152,0,0,0-5.52-42c-22.78-79.9-109-118.32-182.35-89.08-54.58,21.75-87.68,71.82-87.72,131.1q-.15,183.45,0,366.88ZM986.45,474.66c-1.76,1.12-2.46,1.53-3.12,2-11,7.54-21.56,15.68-32.94,22.53-46.75,28.15-98,45.46-150.23,59.66-27.73,7.54-56.16,12.54-84.31,18.51-3.48.74-4.92,1.74-4.91,5.7q.19,133.71.14,267.41a136.31,136.31,0,0,0,17.07,67c43.1,77.64,148.32,94.51,213.45,34.08,30-27.87,44.9-62.5,44.88-103.59q-.12-183.69,0-367.38Zm-278.34,6,28.1-5.52c47-9.27,92.72-22.56,136.16-43.1,29.13-13.78,56.15-30.62,78-54.75,19.55-21.64,32.47-46.41,32.84-76.24.32-25.48.13-51-.35-76.46-.33-17.68-4.74-34.59-12.12-50.65A137.24,137.24,0,0,0,814.82,97.79c-63.71,14.84-106.59,67.63-107,133.14-.46,81.47-.12,162.94-.11,244.4C707.75,476.79,707.94,478.25,708.11,480.66Zm-333.48,125a9.78,9.78,0,0,0-2.39-.13c-20.68,4.36-41.44,8.37-62,13.25-35.22,8.34-69.09,20.72-102.06,35.65-30.05,13.61-57.48,30.84-79.28,56-18.45,21.33-31.36,45.47-32.27,74.1-.86,26.77-.92,53.69.8,80.41,2,31.84,15.37,59.55,38,82.11,32,31.92,71,45.09,115.73,39.63,47.29-5.78,82.43-30.24,105.11-72.14,12.37-22.86,15.57-47.75,15.8-73.42.6-67.3,1.72-134.6,2.58-201.9C374.75,628.13,374.63,617,374.63,605.64Z"/></g></g></svg>