<svg xmlns="http://www.w3.org/2000/svg" viewBox="0 0 1076.49 1075.53"><defs><style>.cls-1{fill:#00d8af;}.cls-2{fill:#f8f9f9;}.cls-3{fill:#01d8b0;}.cls-4{fill:#01d8af;}</style></defs><g id="Layer_2" data-name="Layer 2"><g id="Layer_1-2" data-name="Layer 1"><path class="cls-1" d="M538.07,1075.44c-10.67,0-21.34.26-32-.08-7.86-.25-15.71-1.17-23.55-2-8.3-.86-16.6-1.77-24.85-3-8.05-1.19-16.07-2.67-24.06-4.22-7.47-1.44-14.9-3.06-22.32-4.76-5.6-1.28-11.2-2.64-16.71-4.28-9-2.67-18-5.47-26.85-8.48-9.72-3.3-19.47-6.59-29-10.45q-16.78-6.81-33.14-14.66c-11.77-5.68-23.43-11.63-34.81-18-11.14-6.28-22.13-12.91-32.69-20.11-11.92-8.13-23.7-16.57-34.81-25.77-15.39-12.74-30.54-25.84-44.94-39.67a444,444,0,0,1-32.48-35.37c-10-12-19.39-24.47-28.35-37.23s-17.83-25.81-25.47-39.44c-10.19-18.17-19.83-36.72-28.43-55.68-7.35-16.21-13.2-33.14-19.1-50-2.87-8.17-4.23-16.85-6.46-25.25-2.48-9.32-5.63-18.49-7.63-27.91-2.27-10.65-3.62-21.5-5.29-32.27Q2.72,601.14.44,585.41a34.08,34.08,0,0,1-.28-4.95C.14,553-.29,525.5.35,498,.63,486,3,474,4.63,462c1-7.76,2.2-15.51,3.56-23.22.87-4.92,2.15-9.77,3.33-14.64,1.48-6.12,3-12.24,4.6-18.33,1.92-7.26,3.88-14.51,6-21.73,2.72-9.31,5-18.8,8.52-27.83,8.13-21,16.6-41.85,27-62a600.33,600.33,0,0,1,33.5-57,472.41,472.41,0,0,1,56.64-70.18c11.48-11.63,23-23.29,35.25-34.06,11.67-10.25,24.19-19.55,36.6-28.92,8.91-6.74,17.91-13.47,27.46-19.22,15.5-9.34,31.35-18.12,47.29-26.66a347.26,347.26,0,0,1,34-16.45c16.08-6.46,32.57-11.9,48.95-17.57,8.33-2.88,16.7-5.78,25.26-7.83,14.14-3.4,28.37-6.49,42.69-9,10.94-1.93,22.19-2.16,33.09-4.23C509-2.65,539.94,1.54,570.71.43c7-.25,14,1.1,21,1.87,11.56,1.27,23.15,2.35,34.63,4.1,8.65,1.31,17.16,3.51,25.73,5.36,3.47.76,6.94,1.57,10.38,2.51,18.3,5,37,9,54.8,15.35a580.29,580.29,0,0,1,59,24.93c16.41,8,31.91,17.86,47.7,27.09,21.84,12.77,42,28,61.21,44.3,18.95,16.07,37.29,32.9,53.33,52,11.93,14.21,24.37,28.06,35.39,42.95a509.46,509.46,0,0,1,29.43,45c8.84,15,16.6,30.72,24.36,46.36,3.75,7.53,6.46,15.58,9.53,23.44,4.83,12.36,9.9,24.64,14.24,37.17,2.83,8.19,4.49,16.77,6.75,25.15,1.68,6.21,3.49,12.37,5.2,18.57a106,106,0,0,1,2.68,10.3c2.14,12.51,4,25.07,6.12,37.59,6.6,39.17,3.5,78.66,3.76,118,.06,10.34-2.63,20.69-4.14,31-1.14,7.74-2.31,15.48-3.67,23.18-.87,4.93-2,9.81-3.22,14.68q-2.25,9.42-4.73,18.79-2.84,10.65-5.89,21.25c-2.15,7.46-4.12,15-6.72,22.28-3.15,8.82-6.86,17.43-10.35,26.13-3.38,8.44-6.13,17.21-10.3,25.24-9.69,18.65-19.46,37.32-30.34,55.29-9.76,16.09-20.73,31.5-31.78,46.75A282.73,282.73,0,0,1,943.16,893c-11.39,12.27-23,24.38-35,36-16,15.47-32.8,30.11-51.31,42.67-9.25,6.27-18,13.37-27.53,19.13-15.49,9.34-31.33,18.12-47.28,26.67a346.24,346.24,0,0,1-34,16.44c-16.07,6.46-32.56,11.9-48.94,17.59-8.21,2.85-16.43,5.86-24.88,7.78-16.56,3.77-33.24,7.07-50,10.11-13,2.36-26.11,4-39.19,6a27.9,27.9,0,0,1-4,.07Zm46.86-508.56v5.58c0,51.95-.12,103.91.12,155.86a154.75,154.75,0,0,0,2.52,28.28A147.29,147.29,0,0,0,764.48,873.28c70.4-15.46,116.29-77,115.82-143.32-.93-128.72-.26-257.44-.31-386.17a147.29,147.29,0,0,0-.91-19.94c-11.31-82.35-88.25-141.12-174.19-124.44-69.23,13.44-119.74,76-119.78,146.62q0,77.43,0,154.87V507l-94,3.36v-5.17q0-76.94,0-153.87c0-7-.36-14-.86-20.9-1.63-22.81-9-43.76-21.15-63-32.39-51.48-92.7-77-153.4-66.53-69.71,12-120.19,78.63-119.76,143.36.87,130.05.07,260.11.44,390.17.13,46,19.38,83.69,55.09,112.12,41.13,32.74,87.74,39.81,137.85,25,58.41-17.28,101.1-73.09,101.68-133.89.51-53.61.16-107.24.19-160.86v-6.36Z"/><path class="cls-2" d="M584.93,566.88l-93.74,3.51v6.36c0,53.62.32,107.25-.19,160.86-.58,60.8-43.27,116.61-101.68,133.89-50.11,14.84-96.72,7.77-137.85-25-35.71-28.43-55-66.14-55.09-112.12-.37-130.06.43-260.12-.44-390.17C195.51,279.51,246,212.89,315.7,200.88c60.7-10.46,121,15.05,153.4,66.53,12.13,19.28,19.52,40.23,21.15,63,.5,6.95.85,13.93.86,20.9q.11,76.93,0,153.87v5.17l94-3.36V500.9q0-77.44,0-154.87c0-70.62,50.55-133.18,119.78-146.62,85.94-16.68,162.88,42.09,174.19,124.44a147.29,147.29,0,0,1,.91,19.94c0,128.73-.62,257.45.31,386.17.47,66.27-45.42,127.86-115.82,143.32A147.29,147.29,0,0,1,587.57,756.6a154.75,154.75,0,0,1-2.52-28.28c-.24-52-.12-103.91-.12-155.86ZM256.53,581.5c2-1.28,3.09-1.88,4.07-2.67,14.28-11.44,30.2-20.27,46.86-27.43a500.27,500.27,0,0,1,119.43-34.91c4.16-.66,5.33-2,5.32-6.21-.16-54.95-.09-109.91-.14-164.86a112.65,112.65,0,0,0-.69-12.45c-6.63-60.42-69.44-93.82-122.11-69.88-35.06,15.94-52.49,44.6-52.65,83-.31,76.93-.09,153.86-.09,230.8Zm389.82-19.24c-.05,1.13-.13,2.11-.13,3.1,0,57.1-.07,114.21.12,171.31a81.88,81.88,0,0,0,2.41,18.2c10.49,44.89,53.42,71.6,96.16,65.94s76.13-42.33,76.26-85.62c.23-78.25.07-156.51.05-234.76a32.83,32.83,0,0,0-.39-3.56C768.44,534.77,708.16,550.35,646.35,562.26ZM644,501.37c16.18-3.64,31.54-6.58,46.61-10.59,34.75-9.26,68.35-21.34,96.53-44.72,15.73-13.05,28-28.79,31.16-49.57,1.47-9.61.91-19.56.83-29.36-.1-12.78.66-25.75-1.18-38.32-8.73-59.59-73.79-91.26-127.42-63.28C658.91,282,644.09,309.59,644,345c-.1,50.1,0,100.19,0,150.29ZM432.84,579.45c-1,.1-2.28.15-3.56.38-25.1,4.57-50,10.13-73.89,19.18-23.2,8.79-46.26,18-65.39,34.62-17.38,15.06-30.46,32.89-32.43,56.44-1.26,15-.63,30.28-.36,45.42a91,91,0,0,0,2.4,19.24c10.21,43,49.09,70.61,93.34,66.09,33.61-3.44,57.43-21,71.57-51.62,6.14-13.31,7.14-27.55,7.3-41.94.28-26.13.79-52.26,1-78.4C433,625.92,432.84,603,432.84,579.45Z"/><path class="cls-3" d="M256.53,581.5v-4.62c0-76.94-.22-153.87.09-230.8.16-38.39,17.59-67.05,52.65-83,52.67-23.94,115.48,9.46,122.11,69.88a112.65,112.65,0,0,1,.69,12.45c.05,54.95,0,109.91.14,164.86,0,4.25-1.16,5.55-5.32,6.21A500.27,500.27,0,0,0,307.46,551.4c-16.66,7.16-32.58,16-46.86,27.43C259.62,579.62,258.49,580.22,256.53,581.5Z"/><path class="cls-1" d="M646.35,562.26c61.81-11.91,122.09-27.49,174.48-65.39a32.83,32.83,0,0,1,.39,3.56c0,78.25.18,156.51-.05,234.76-.13,43.29-33.62,80-76.26,85.62s-85.67-21-96.16-65.94a81.88,81.88,0,0,1-2.41-18.2c-.19-57.1-.12-114.21-.12-171.31C646.22,564.37,646.3,563.39,646.35,562.26Z"/><path class="cls-4" d="M644,501.37v-6.05c0-50.1-.07-100.19,0-150.29.08-35.44,14.9-63,46.5-79.5,53.63-28,118.69,3.69,127.42,63.28,1.84,12.57,1.08,25.54,1.18,38.32.08,9.8.64,19.75-.83,29.36-3.18,20.78-15.43,36.52-31.16,49.57-28.18,23.38-61.78,35.46-96.53,44.72C675.52,494.79,660.16,497.73,644,501.37Z"/><path class="cls-3" d="M432.84,579.45c0,23.53.13,46.47,0,69.41-.19,26.14-.7,52.27-1,78.4-.16,14.39-1.16,28.63-7.3,41.94-14.14,30.63-38,48.18-71.57,51.62-44.25,4.52-83.13-23.12-93.34-66.09a91,91,0,0,1-2.4-19.24c-.27-15.14-.9-30.37.36-45.42,2-23.55,15.05-41.38,32.43-56.44,19.13-16.57,42.19-25.83,65.39-34.62,23.91-9,48.79-14.61,73.89-19.18C430.56,579.6,431.86,579.55,432.84,579.45Z"/></g></g></svg>