<svg xmlns="http://www.w3.org/2000/svg" viewBox="0 0 563.08 563"><defs><style>.cls-1{fill:#02943f;}.cls-2{fill:#fdfdfd;}.cls-3{fill:#fcfdfc;}.cls-4{fill:#fcfdfd;}</style></defs><g id="Layer_2" data-name="Layer 2"><g id="Layer_1-2" data-name="Layer 1"><path class="cls-1" d="M281.35,0c155-.23,281.38,125.66,281.73,280.69.36,155.83-125.87,282.37-281.6,282.31S.11,437,0,281.06C-.11,126.28,126.07.23,281.35,0Zm67.21,119.59v6c0,36.16.11,72.31,0,108.47-.12,27.18-19.07,50.91-45.69,56.36-8.87,1.81-18.2,1.57-27.33,1.8-20.32.5-37.71,15.93-39.17,36.22-1,13.43-.44,27-.55,40.46,0,1.45.15,2.91.26,4.79,16.94,0,33.58.25,50.21-.1,10.62-.22,21.37-.47,31.83-2.16,60.17-9.71,109.52-64.77,111.37-125.36,1.14-37.12.32-74.3.25-111.46,0-7.83-6.29-14.82-14-14.93C393.54,119.39,371.39,119.59,348.56,119.59Zm-21.69,69.67c-19.53,0-39-.13-58.51,0-73.64.59-134.16,60.88-134.8,134.49-.3,34.15-.05,68.31,0,102.47,0,10.7,6.48,17.18,17.07,17.2q29.75.06,59.49,0c1.46,0,2.93-.13,4.84-.22v-6.15c.06-37-.4-74,.37-111,.55-26.3,19.8-48.48,45.63-53.63,8.72-1.73,17.87-1.49,26.84-1.71,19.28-.48,36.64-14,38.71-33.12C328.23,221.89,326.87,205.8,326.87,189.26ZM133.76,245.6a14.1,14.1,0,0,0,1.3-1.37q27.85-45,76.77-65.17c1.4-.57,2.78-3.12,2.81-4.77.23-12.49.18-25,.1-37.48-.06-11-6.41-17.25-17.47-17.26q-29.49,0-59,0c-1.45,0-2.9.15-4.53.24Zm295.86,72.13a10.92,10.92,0,0,0-1.31,1.18q-27.9,45-76.84,65.09c-1.38.56-2.71,3.13-2.74,4.79-.23,12.32-.15,24.65-.11,37,0,11.25,6.43,17.67,17.64,17.68q29.24,0,58.48,0h4.88Z"/><path class="cls-2" d="M348.56,119.59c22.83,0,45-.2,67.11.11,7.74.11,14,7.1,14,14.93.07,37.16.89,74.34-.25,111.46-1.85,60.59-51.2,115.65-111.37,125.36-10.46,1.69-21.21,1.94-31.83,2.16-16.63.35-33.27.1-50.21.1-.11-1.88-.27-3.34-.26-4.79.11-13.49-.42-27,.55-40.46,1.46-20.29,18.85-35.72,39.17-36.22,9.13-.23,18.46,0,27.33-1.8,26.62-5.45,45.57-29.18,45.69-56.36.15-36.16,0-72.31,0-108.47Z"/><path class="cls-2" d="M326.87,189.26c0,16.54,1.36,32.63-.35,48.38-2.07,19.15-19.43,32.64-38.71,33.12-9,.22-18.12,0-26.84,1.71-25.83,5.15-45.08,27.33-45.63,53.63-.77,37-.31,74-.37,111v6.15c-1.91.09-3.38.22-4.84.22q-29.74,0-59.49,0c-10.59,0-17-6.5-17.07-17.2-.06-34.16-.31-68.32,0-102.47.64-73.61,61.16-133.9,134.8-134.49C287.85,189.13,307.34,189.26,326.87,189.26Z"/><path class="cls-3" d="M133.76,245.6V119.79c1.63-.09,3.08-.24,4.53-.24q29.49,0,59,0c11.06,0,17.41,6.24,17.47,17.26.08,12.5.13,25-.1,37.48,0,1.65-1.41,4.2-2.81,4.77q-49,20.16-76.77,65.17A14.1,14.1,0,0,1,133.76,245.6Z"/><path class="cls-4" d="M429.62,317.73V443.45h-4.88q-29.25,0-58.48,0c-11.21,0-17.61-6.43-17.64-17.68,0-12.33-.12-24.66.11-37,0-1.66,1.36-4.23,2.74-4.79q49-20.1,76.84-65.09A10.92,10.92,0,0,1,429.62,317.73Z"/></g></g></svg>