<svg xmlns="http://www.w3.org/2000/svg" viewBox="0 0 930.05 1014"><g id="Layer_2" data-name="Layer 2"><g id="Layer_1-2" data-name="Layer 1"><path d="M897,0c6.41,4.39,13.48,8.08,19.09,13.33C925.41,22,930,33.32,930,46.19q0,164.73.06,329.47c0,22-2.3,43.74-5.9,65.43a421.31,421.31,0,0,1-63.82,162.28,455.12,455.12,0,0,1-46.67,58.94C786,692.14,754.34,717,719.51,737.77c-28.51,17-58.52,31-90.5,40.08-19.73,5.59-39.84,9.93-60,14-23.89,4.85-48.17,5.27-72.5,5.18-56.43-.22-112.86-.07-169.3-.07h-6.59v-6.11c0-42-.17-84,.08-126a120.2,120.2,0,0,1,9.73-46.07c6.86-16.33,16.39-31,29.32-43.1,19.08-17.87,41.34-29.48,67.39-33.77,20.17-3.33,40.41-1.64,60.61-1.77,28.55-.19,55.76-5.61,81.51-18.14a190.54,190.54,0,0,0,43.94-29.33,178,178,0,0,0,53.24-84.77,183.64,183.64,0,0,0,6.62-37.16c1.32-17.7,1.19-35.53,1.21-53.31q.13-155.47,0-311c0-2.17-.06-4.33-.08-6.5Z"/><path d="M0,618c.66-5.11,1.25-10.23,2-15.33,2.39-16,4.26-32.2,7.4-48.11a332.18,332.18,0,0,1,22-70.87,681.12,681.12,0,0,1,32.1-62.53c8.5-14.78,18.61-28.78,29.17-42.22,15.29-19.45,32.68-37,51.07-53.64a414.74,414.74,0,0,1,54.83-41.66c26.54-17,54.48-31.26,84.3-41.36,19.09-6.46,38.62-11.76,58.17-16.71a236.35,236.35,0,0,1,33.42-5.45c61.15-6.36,122.5-1.76,183.74-3,16.79-.35,33.59-.05,50.87-.05.09,1.85.24,3.44.24,5,0,43.82.3,87.65-.15,131.48-.15,14.52-4.1,28.53-9.75,42A123.71,123.71,0,0,1,568.49,440C550,456.84,528.35,467.8,503.4,472c-20.15,3.41-40.4,1.79-60.6,1.81-40.16.05-76.8,11-109.56,34.22A185.25,185.25,0,0,0,259,624.14a163.76,163.76,0,0,0-3.19,29.91q-.32,178.73-.13,357.46c0,.83.05,1.66.09,2.49H33a13.74,13.74,0,0,0-2.94-2.18c-10-4-17.83-10.54-22.79-20C4.27,986.15,2.37,980,0,974Z"/><path d="M221.76,0c5.43,3.38,11.17,6.36,16.22,10.22,9.46,7.22,14.83,17.18,16.57,28.87a122.93,122.93,0,0,1,1,17.8q.12,59.73,0,119.46v5.07c-19.32,9-38.4,17.13-56.78,26.61A428,428,0,0,0,121.08,259c-12.47,10.36-24.47,21.31-36.38,32.32a412.67,412.67,0,0,0-59.9,69.82c-7.57,11-14.56,22.4-21.87,33.59A28.36,28.36,0,0,1,0,398V0Z"/><path d="M708.24,1014c-5.17-3.18-10.6-6-15.47-9.62-9.74-7.19-15.15-17.26-17.32-29a73.88,73.88,0,0,1-1-13.3q-.12-62.25,0-124.5v-5.78C784,789.2,868.79,717.62,930,617v397Z"/></g></g></svg>