<svg width="24" height="24" viewBox="0 0 24 24" fill="none" xmlns="http://www.w3.org/2000/svg">
<rect class="bg" width="24" height="24" rx="12" fill="white"/>
<path class="fg" fill-rule="evenodd" clip-rule="evenodd" d="M7.18456 18.4548C5.21949 16.9864 3.94737 14.6418 3.94737 12C3.94737 7.55266 7.55266 3.94737 12 3.94737C15.6705 3.94737 19.6788 6.14087 20.6482 9.50026C19.5649 5.74626 16.1038 3 12 3C7.02945 3 3 7.02945 3 12C3 16.9706 7.02945 21 12 21C16.9706 21 21 16.9706 21 12V11.5263L20.5055 11.5262C20.4909 11.5261 20.4686 11.5259 20.4397 11.5254C20.3817 11.5245 20.2967 11.5228 20.1908 11.5192C19.9786 11.512 19.6836 11.4975 19.3532 11.4688C18.6779 11.4101 17.9078 11.2955 17.3833 11.086C16.5394 10.749 16.063 10.3022 15.5186 9.77943L15.4872 9.74925C14.9418 9.22536 14.3292 8.63685 13.2675 8.13716C12.2214 7.64492 11.0648 7.72391 10.2149 7.8988C9.78324 7.98759 9.41353 8.10472 9.15123 8.1997C9.01974 8.24729 8.91434 8.2897 8.84062 8.32072C8.41293 8.5008 7.99776 8.71387 7.57803 8.91153C7.57803 8.91153 8.40159 9.13746 8.80893 9.26358C8.82367 9.2681 8.84665 9.27543 8.87675 9.28556C8.93703 9.30586 9.02519 9.3373 9.13189 9.3805C9.34676 9.46744 9.62936 9.59905 9.90832 9.77838C10.3477 10.0609 10.712 10.4162 10.8614 10.8525C9.92866 10.9751 9.05386 11.3845 8.39962 11.7693C8.00295 12.0027 7.67305 12.2355 7.44186 12.4104C7.32603 12.4981 7.2344 12.5715 7.1709 12.6238C7.11761 12.6677 6.27548 13.41 6.27548 13.41C6.27548 13.41 7.36194 13.5256 7.89809 13.6336C8.25474 13.7055 8.73564 13.8211 9.23721 13.9962C9.74113 14.172 10.2501 14.4023 10.6726 14.6972C11.0959 14.9926 11.4059 15.3342 11.5589 15.7252C12.0044 16.8639 11.5672 17.9732 10.6894 18.5971C9.82196 19.2137 8.50319 19.3603 7.18456 18.4548ZM10.2553 19.8631C10.61 19.7479 10.941 19.5806 11.2382 19.3693C12.4328 18.5203 13.0613 16.965 12.4411 15.38C12.1975 14.7573 11.7318 14.2812 11.2148 13.9203C10.6969 13.5588 10.1009 13.2941 9.54932 13.1017C9.18664 12.9751 8.83635 12.8774 8.52952 12.8033C8.63835 12.7323 8.7556 12.6591 8.87997 12.5859C9.60906 12.157 10.5273 11.7632 11.4079 11.7632C12.7352 11.7632 13.7236 12.1704 14.6674 12.6075C14.7532 12.6472 14.8394 12.6876 14.9259 12.7282C15.7693 13.1239 16.6551 13.5395 17.6842 13.5395C18.6823 13.5395 19.4596 13.2573 19.9953 12.9655C19.5183 16.9576 16.1206 20.0527 12 20.0527C11.4009 20.0527 10.8171 19.9872 10.2553 19.8631ZM18.9717 12.3836C18.617 12.5047 18.187 12.5921 17.6842 12.5921C16.8769 12.5921 16.1832 12.2687 15.3027 11.8581C15.2251 11.822 15.1461 11.7851 15.0655 11.7478C14.1838 11.3395 13.1637 10.9068 11.8359 10.8284C11.6577 9.94917 10.9914 9.34839 10.4206 8.98148C10.357 8.94059 10.2936 8.90191 10.2307 8.86532C10.2877 8.85193 10.3461 8.83899 10.4058 8.82673C11.1728 8.66887 12.0885 8.62944 12.864 8.99438C13.7845 9.42755 14.3037 9.92619 14.844 10.445L14.8624 10.4628C15.4183 10.9966 16.0062 11.5562 17.0319 11.9658C17.6018 12.1934 18.3392 12.3158 18.9717 12.3836Z" fill="url(#paint0_linear_44_1210)"/>
<defs>
<linearGradient id="paint0_linear_44_1210" x1="3" y1="21" x2="21.3228" y2="20.6652" gradientUnits="userSpaceOnUse">
<stop stop-color="#29CCB9"/>
<stop offset="0.494792" stop-color="#0091FF"/>
<stop offset="1" stop-color="#FF66B7"/>
</linearGradient>
</defs>
</svg>