<svg width="24" height="24" viewBox="0 0 24 24" fill="none" xmlns="http://www.w3.org/2000/svg">
<circle class="fg" cx="11.9999" cy="11.9999" r="11.5556" fill="#D9D9D9"/>
<path class="bg" d="M12.0167 11.9541L11.9899 11.9542L9.93231 5.81814L7.16351 5.83441L7.11133 14.6446C7.58946 14.3901 8.13164 14.1727 8.72177 13.9978L8.75435 8.49748L8.78528 7.79037L11.2037 13.5816C11.5199 13.5529 11.611 13.5417 11.9376 13.5398C12.2643 13.5379 12.3499 13.5534 12.6658 13.573L15.1533 7.68872L15.1759 8.39552L15.143 13.9601C15.7257 14.1281 16.2653 14.3391 16.7458 14.588L16.798 5.77783L14.0292 5.7941L12.0113 11.9541H12.0167Z" fill="black"/>
<path class="bg" d="M9.68823 17.9806C10.2828 17.9772 10.7676 17.4924 10.7711 16.8978C10.7746 16.3033 10.2955 15.8241 9.70098 15.8277C9.1065 15.8311 8.62169 16.3159 8.61818 16.9105C8.61463 17.505 9.09374 17.9841 9.68823 17.9806Z" fill="black"/>
<path class="bg" d="M14.1335 17.9543C14.728 17.9508 15.2128 17.466 15.2164 16.8715C15.2199 16.2769 14.7408 15.7978 14.1463 15.8013C13.5518 15.8048 13.067 16.2896 13.0635 16.8841C13.06 17.4787 13.5391 17.9578 14.1335 17.9543Z" fill="black"/>
<path class="bg" d="M12.0711 0.000210553C5.45306 0.0390885 0.0394194 5.45243 0.00021411 12.0705C-0.0389911 18.6886 5.31088 24.0387 11.9289 23.9998C18.547 23.9609 23.9606 18.5476 23.9998 11.9295C24.039 5.31142 18.6892 -0.0386674 12.0711 0.000210553ZM11.9384 22.3998C6.20344 22.4335 1.56622 17.7961 1.60019 12.0611C1.63417 6.32615 6.32665 1.63387 12.0616 1.60018C17.7966 1.56649 22.4338 6.20394 22.3998 11.9389C22.3658 17.6738 17.6734 22.3661 11.9384 22.3998Z" fill="black"/>
</svg>
