<svg xmlns="http://www.w3.org/2000/svg" viewBox="0 0 562.98 563.06"><defs><style>.cls-1{fill:#00dacc;}.cls-2{fill:#fff;}</style></defs><g id="Layer_2" data-name="Layer 2"><g id="Layer_1-2" data-name="Layer 1"><path class="cls-1" d="M281.75,0C438.22.27,565,128.11,563,285.06c-2,154.58-128,278-281.51,278C125.9,563-1.89,436.51,0,277.32,1.85,124.69,126.64.3,281.75,0Zm54.41,470.16a4.78,4.78,0,0,0-1.47-2.23c-2.94-2.06-4.84-4.94-6.76-7.94-2.42-3.8-1.83-7.46-.38-11.2.58-1.49,1.05-3,1.62-4.48a93.72,93.72,0,0,0,3.54-9.28.43.43,0,0,1,.14-.19c2.49-2.33,2.89-5.78,4.54-8.59,1.17-2,1.86-4.3,2.94-6.42,1.35-2.67,2.43-5.51,3.6-8.29.85-2,1.69-4.09,2.56-6.13a94.82,94.82,0,0,0,3.62-9.54c1.36-4.42,3.71-8.48,4.5-13.08a2.09,2.09,0,0,1,.19-.44,20.21,20.21,0,0,0,1.87-6.41c.07-1.11.3-2.21.46-3.31.6-4,2.55-7.56,3.07-11.55a2.65,2.65,0,0,1,.43-1.11c2-2.86,3.09-6.25,5.47-8.92,2-2.24,3.9-4,7.27-3.64a33.81,33.81,0,0,0,9.1,0,84.36,84.36,0,0,1,13.37-.72,11.46,11.46,0,0,0,3.54-.48,13.87,13.87,0,0,1,4.49-.54c2.19,0,4.46.49,6.52-.81.29-.19.78-.07,1.18-.1,5-.26,9.94-.41,14.81-1.86a10.2,10.2,0,0,0,6.57-5.1,29.14,29.14,0,0,0,3.21-11.92c.2-3.87-1.2-7.38-1.73-11.07a8.14,8.14,0,0,1,1.5-6.69c1.57-2,3.38-3.84,5.08-5.75s1.81-3.37-.09-5.42c-.93-1-1.92-1.94-2.85-2.93a4.72,4.72,0,0,1,0-6.84c1.22-1.27,2.47-2.51,3.72-3.75a3.26,3.26,0,0,0,1.06-2.08c.21-2.38.05-4.62-1.9-6.35a3.5,3.5,0,0,1-1.28-2.25,21.07,21.07,0,0,0-1.08-4.89,2.32,2.32,0,0,1,.82-3c1.34-.75,2.39-1.9,3.69-2.63a80.41,80.41,0,0,0,9.75-6.37,13.68,13.68,0,0,0,4.06-5.24,2.84,2.84,0,0,0-.86-3.86c-1.2-.93-2.25-2.05-3.49-2.89-3.58-2.4-6.68-5.43-10.29-7.79a35.89,35.89,0,0,1-3.19-2.48c-2.14-1.73-4.65-3-6.48-5.18-1.18-1.42-1.94-3.15-3.25-4.39-3.54-3.38-6.23-7.46-9.47-11.06a9.54,9.54,0,0,1-2.43-6.52,43.47,43.47,0,0,1,2.26-15.54c.63-1.86.73-3.9,1.82-5.59a4.55,4.55,0,0,0,0-4.78c-1.4-2.82-3.83-5.08-4.48-8.3a2.21,2.21,0,0,0-.38-.61c-1.81-2.7-3.46-5.49-5.07-8.32-1.21-2.13-2.84-4-3.53-6.45a1.82,1.82,0,0,0-.44-.57c-2.09-2.24-2.78-5.32-4.67-7.73-1-1.25-1.34-3-2.48-4.32a3.49,3.49,0,0,1-.71-2.48,11,11,0,0,0-2.19-7.2,7.1,7.1,0,0,1-.84-2c-1.09-3.1-3.06-5.74-4.73-8.49-1.3-2.13-2.77-4.26-4.21-6.34-2.1-3-4.09-6-6.88-8.47-1.06-.93-2.53-1.18-3.43-2.08-2.56-2.54-6.17-2.87-9.08-4.67-1.29-.8-3.05-.81-4.57-1.3-2.86-.92-5.6-2.23-8.66-2.56a25.08,25.08,0,0,1-5.62-1c-4.9-1.72-10-2-15.07-2.44-4.45-.37-8.81-1.26-13.23-1.74a53.43,53.43,0,0,0-8.56-.7,29.28,29.28,0,0,1-12.42-2,18.46,18.46,0,0,0-4.42-1c-3.54-.46-7.16-.55-10.51-2.05a10.89,10.89,0,0,0-2.54-.65,106.43,106.43,0,0,0-11.69-.93A46.27,46.27,0,0,0,255.78,88a29.91,29.91,0,0,1-6.06,1.38,15.91,15.91,0,0,0-6,1.48A17,17,0,0,1,239,92.46a9.49,9.49,0,0,0-3.86,1.22c-2.92,2-6.68,2.25-9.35,4.7-.16.15-.46.13-.69.17a6,6,0,0,0-3.52,1.89,7,7,0,0,1-1.95,1.38,48.32,48.32,0,0,0-6.69,4.94c-1.68,1.35-2.86,3.34-4.81,4.3-2.13,1-3.71,3.06-6.18,3.51-.22,0-.4.25-.59.4-5.07,4.26-10.09,8.58-14.84,13.2-4,3.9-7.93,7.9-11.88,11.87a23.57,23.57,0,0,1-5.37,3.94c-3.65,2-7.55,3.47-11.85,3.27a4.4,4.4,0,0,0-3.43,1.42,12.43,12.43,0,0,0-3.11,4.49,4,4,0,0,1-3.71,2.81c-2.67.33-5.44,1.08-7.15,3.46s-4,4.55-4.65,7.7a3.83,3.83,0,0,1-3.31,3.33,15.61,15.61,0,0,0-3.6,1.27c-1.94.82-2.22,1.87-1.06,3.6,1,1.47.8,2.43-.82,3.28a18.1,18.1,0,0,0-2.48,1.84c-1.85,1.4-3.24,3.32-5.27,4.52a2.47,2.47,0,0,0-.95,1.05c-1,2.35-3,3.94-4.47,5.88a70.66,70.66,0,0,0-5.13,9,3.49,3.49,0,0,0-.22.93,20.06,20.06,0,0,1-.67,3.52,23.85,23.85,0,0,0,.08,9.74c.53,2.16.81,4.22-.54,6.22a2,2,0,0,0,.37,2.8c1.49,1.24,1.4,2.72.91,4.35-.93,3.13-3.37,5.6-3.93,8.9,0,.07-.08.13-.14.19-2.19,2-2.29,4.6-2.42,7.27a3.7,3.7,0,0,0,2,3.8c1.84,1,2.43,2.67,2.85,4.49.23,1,.26,2.06.5,3.06,1,4.19.28,8.82,3.26,12.5a.51.51,0,0,1,.06.22c.5,3.7,3.42,5.62,5.86,7.85a17.22,17.22,0,0,0,7.42,4.48,2.15,2.15,0,0,1,1,.65,3.71,3.71,0,0,0,1.58.95c3,1.17,4.52,3.86,6.22,6.35a1.3,1.3,0,0,1,.12.46c.89,4.27.95,8.72,2.8,12.8a16.38,16.38,0,0,1,.63,3,5.11,5.11,0,0,0,1,2.42,9.65,9.65,0,0,1,1.88,3.84,6,6,0,0,0,2.07,3.44,25.85,25.85,0,0,0,7.15,3.7,7.2,7.2,0,0,1,4.23,3.26c1.39,2.1,1.8,4.63,3.08,6.72a25.62,25.62,0,0,1,2.23,5.76c1,3.17,2.64,6.12,3.42,9.38a2.44,2.44,0,0,0,.49.81c1.71,2.35,2.28,5.42,4.7,7.32a1.63,1.63,0,0,1,.39.86,1.8,1.8,0,0,0,.82,1.15c2.73,1.51,3.45,5.25,6.76,6.13.25.06.4.47.62.71a6,6,0,0,0,3.48,1.91,12.22,12.22,0,0,1,3.17,1,25.38,25.38,0,0,0,6.6,2,1.68,1.68,0,0,1,1.08.42A23.31,23.31,0,0,0,194,370a34.8,34.8,0,0,0,4.68,2.79c1.27.56,2.05,1.89,3.41,2.11,2,.31,3.56,1.37,5.3,2.13a23.94,23.94,0,0,0,6.65,1.84c2.37.27,3-.25,3.59-2.52a17.46,17.46,0,0,0,.68-4.25,29.51,29.51,0,0,1,1.69-8.67,25.73,25.73,0,0,0,1.39-5.56,21.24,21.24,0,0,1,2.31-7.76,8.92,8.92,0,0,0,.43-1.12,5.2,5.2,0,0,0-1.43-6.08c-1.1-1.07-2.62-1.57-3.53-2.82-1.54-2.13-3.43-4-4.83-6.23-1-1.61-2-3.25-3.16-4.76a48,48,0,0,1-5.37-9.55,29,29,0,0,0-1.35-2.81c-1.65-2.9-2.13-6.33-4.1-9.09a1,1,0,0,1-.09-.22c-.54-2.39-1-4.79-1.65-7.16a9.69,9.69,0,0,1,.32-5.61,4.12,4.12,0,0,1,3.26-3.1,6.77,6.77,0,0,1,6.26,1.5c3,2.6,5.07,6,6.89,9.42,1.52,2.88,2.91,5.88,4.54,8.65s2.45,6,4.22,8.78c1.54,2.43,2.1,5.49,3,8.28.57,1.66,1.42,2.78,2.18,2.52,1.27-.44,1.35-1.68,1.46-2.77a7.36,7.36,0,0,1,1.1-3.64,12,12,0,0,0,2-4.84,15.05,15.05,0,0,1,1.93-4.61c1.17-2,2.16-4.29,1.67-6.6-.65-3-.94-6.17-2.1-9.09a40.75,40.75,0,0,1-1.2-5.11c-.63-2.51-.14-5.12-.81-7.61-1.27-4.79-1.21-9.8-2.38-14.61a3.85,3.85,0,0,1-.05-1c-.06-7.76,0-15.52-.2-23.27A10.26,10.26,0,0,1,233,241a4.51,4.51,0,0,1,3.91-1.92,6.45,6.45,0,0,1,6,4.4c.34,1,.5,2,.88,3a36.33,36.33,0,0,1,2.55,13.32,74.81,74.81,0,0,0,1.11,10.46,59.63,59.63,0,0,1,.72,8.31c0,1.68,0,3.36,0,5a1.49,1.49,0,0,0,.94,1.53,1.84,1.84,0,0,0,2-.45,3.3,3.3,0,0,0,.86-1.42,16.24,16.24,0,0,1,2.07-3.76c1.43-2.2,2.82-4.43,4.09-6.72a16.13,16.13,0,0,1,1.66-2.6,8.38,8.38,0,0,0,2.26-6.36c-.19-1.83-.42-3.66-.45-5.49-.11-5.92-.09-11.84-.21-17.75a126.11,126.11,0,0,1,3.12-31.35,13.81,13.81,0,0,1,.88-2.48c.72-1.6,1.5-3.17,2.29-4.74a24.14,24.14,0,0,1,6.45-7.58,2.23,2.23,0,0,1,1.35-.42c2.2-.18,4,1.48,4.25,4.22a71.61,71.61,0,0,1,.54,7.17c-.08,4.24,0,8.48,0,12.72-.07,6.4-.56,12.75-2.61,18.89a16.52,16.52,0,0,0-.75,6.63c.11,1.3.94,1.63,2,.86a5.69,5.69,0,0,0,1.39-1.65,14.57,14.57,0,0,1,1.33-2c3.07-3.67,6.22-7.27,9.6-10.68,1.6-1.62,3.3-3.33,3.36-5.86.05-1.77.47-3.51.48-5.24,0-5.35,3-9.88,3.9-15a2.25,2.25,0,0,1,.43-.86c1.86-2.87,2.05-6.57,4.52-9.14a.44.44,0,0,0,.1-.22c.47-3.28,2.83-5.65,4.18-8.51a47.77,47.77,0,0,1,6-9.15c2.87-3.61,5.3-7.57,8.52-10.89,1.89-1.94,3.25-4.35,5.55-5.93,2.86-2,2.75-2,5.25.45a3.66,3.66,0,0,1,1,3.7,7.39,7.39,0,0,1-.65,1.81,17.9,17.9,0,0,0-1.58,6,11.44,11.44,0,0,1-1.81,5.15,7.16,7.16,0,0,0-1.2,4,5.16,5.16,0,0,1-.92,3.17c-2.15,2.7-2.58,6.33-4.84,9a1.25,1.25,0,0,0-.14.45,7.26,7.26,0,0,1-1.83,3.3,5.18,5.18,0,0,0-1.56,3.66c0,1.13.81,1.56,1.8,1a3,3,0,0,0,.74-.6c3.17-3.4,7-6,10.52-9.05,1.44-1.24,2.7-2.87,4.43-3.6,2.35-1,4.07-2.78,6.05-4.19,3-2.14,6.17-3.89,9.18-5.94,2.07-1.41,4.5-1.88,6.66-3,1.68-.87,3.22-2,5-2.72.82-.35,1.79-.22,2.46-.79,1.91-1.63,4.23-2,6.58-2.35,1.77-.3,3.67-.19,5.21-1.48a1.5,1.5,0,0,1,1.82,0c1.1.88,2.37,1.55,3.05,2.94a1.84,1.84,0,0,1,0,1.92c-1.32,2.73-3.79,4.31-6,6.06-3.17,2.51-6.3,5.06-9.66,7.36-4.06,2.8-8.28,5.32-12.42,8a34,34,0,0,1-4.88,2.89c-2.58,1.09-4.46,3.41-7.3,3.94-2.44,2.39-5.8,3.25-8.55,5.19-3.61,2.55-7.69,4.43-11.57,6.61a4.85,4.85,0,0,0-.83.48c-.55.46-1.14,1-.9,1.8s1,.95,1.73,1a8.78,8.78,0,0,0,3.3-.47c6.65-2.5,13.75-2.51,20.63-3.76a2.81,2.81,0,0,1,1.19,0,10.88,10.88,0,0,0,5,0c1.8-.35,3.62-.56,5.42-.91a5.83,5.83,0,0,1,5.3,1.54c2.13,2,1.86,4.54-.65,5.94-3.66,2-7.35,4-11.07,6-1.55.79-3.43.85-4.88,1.83-2.12,1.43-4.56,1.83-6.94,2.45-1.23.32-2.45.73-3.67,1-2.76.73-5.47,1.69-8.38,1.81-3.91.15-7.84-.25-11.72.6a2.18,2.18,0,0,1-.95,0c-2.6-.65-5.24-.44-7.88-.5a8.1,8.1,0,0,1-2.37-.16c-2.48-.82-4.38.13-6.06,1.79a29.78,29.78,0,0,0-4.44,5.51c-1.7,2.74-4.35,4.86-6.63,7.18s-4.41,5-6.85,7.35a2.61,2.61,0,0,0-.7,3.35c.95.49,1.67,0,2.43-.18,2.09-.57,3.93-1.78,6-2.42,5.92-1.85,11.77-4.07,18-4.64,4.2-.39,8.24-2,12.54-1.63a5.09,5.09,0,0,0,1.4-.27,37.39,37.39,0,0,1,8.58-.62c2,0,2.92,1.37,3.68,3s-.13,2.43-1,3.38a19.1,19.1,0,0,1-4.11,3.23c-2.06,1.19-4.14,2.41-6.07,3.76-2.57,1.8-5.57,2.6-8.21,4.22-1.85,1.14-4.21,1.4-6.24,2.35-3.13,1.46-6.67,1.62-9.85,2.9a28,28,0,0,1-8.4,1.59c-2.23.18-4.47.19-6.69.48a38.31,38.31,0,0,1-11.66-.06c-1-.16-2-.36-2.75.37a17.1,17.1,0,0,0-3.21,3.53,90.89,90.89,0,0,1-5.72,8.81,2.15,2.15,0,0,0-.47.81c-.64,3.36-4.07,5.27-4.53,8.71-1.79,1.56-1.93,4-3,5.91-.54,1,0,1.7,1.08,1.85a5.49,5.49,0,0,0,3.71-.71,19.22,19.22,0,0,1,6.3-2.11c2.55-.57,5.14-.78,7.67-1.69a19.63,19.63,0,0,1,7-1.56c5.11.12,9.84-1.84,14.8-2.5a71.28,71.28,0,0,1,9.78-.49,3,3,0,0,1,2.89,2.47,3.18,3.18,0,0,1-.89,3.71c-3.12,2.55-6.14,5.24-10.11,6.47a5,5,0,0,0-1.93.93c-1.62,1.49-3.7,1.78-5.66,2.38a8.78,8.78,0,0,0-1.13.37,19,19,0,0,1-7,2.18,32.41,32.41,0,0,0-4.27.56,55.25,55.25,0,0,1-12.83,1.25c-2.63-.12-5.28,0-7.91,0a9.45,9.45,0,0,1-3.29-.52c-3.18-1.09-5.32-.07-6.38,3.08a16.68,16.68,0,0,1-2,4.32,9.68,9.68,0,0,0-1.3,3.33,5.88,5.88,0,0,1-.72,2,16.11,16.11,0,0,0-2.27,5.76,4.3,4.3,0,0,1-.63,1.79c-1.42,1.74-1.85,3.87-2.46,5.93-.32,1.06-.49,2,.53,2.81s1.84.15,2.71-.17a3.15,3.15,0,0,0,1.12-.88,6.8,6.8,0,0,1,2.55-1.73c2.49-1,4.56-2.83,7.18-3.59a3.75,3.75,0,0,0,1.25-.69,13.52,13.52,0,0,1,3.56-1.79c3.32-1.26,6.55-2.73,9.91-3.92a58.86,58.86,0,0,1,9.11-2.71c1.71-.31,3.54.07,5.16-.86a3.76,3.76,0,0,1,3.88.13,6.58,6.58,0,0,0,2.72.86,2.57,2.57,0,0,1,2.49,1.6c.56,2.1.87,4.4-.6,6.22-2.74,3.39-5.49,6.86-9.79,8.5a2,2,0,0,0-.81.5c-2.36,2.76-6.42,2.32-8.94,4.77-.14.14-.45.14-.69.15a11,11,0,0,0-3.69,1A37.46,37.46,0,0,1,251.09,351c-4.4.59-8.74,1.64-13.17,2.15a17.91,17.91,0,0,1-4.71-.35c-.63-.09-1.25-.28-1.88-.33-2.2-.14-2.9.35-3.25,2.54a14.52,14.52,0,0,1-1.25,4.6,22.81,22.81,0,0,0-2.12,7.81,9.74,9.74,0,0,1-.72,2.77,24.88,24.88,0,0,0-2.32,11.17,4.29,4.29,0,0,1-1.13,3.31,6.55,6.55,0,0,0-1.75,3.84c-.23,1.33-.29,2.75-1.17,3.86a11,11,0,0,0-2.06,5.3,5.74,5.74,0,0,1-1,2.65,12,12,0,0,0-1.95,4.6,8.34,8.34,0,0,1-.89,3c-2.44,3.59-2.91,8.07-5.3,11.69-.12.19-.08.47-.15.7a4.22,4.22,0,0,1-.88,1.69,9.38,9.38,0,0,0-2.1,4,11.41,11.41,0,0,1-1.64,3.15c-1.36,2-2.63,4.17-3.83,6.3a46.84,46.84,0,0,1-4.73,6.86c-3.11,3.75-6.42,7.31-8.78,11.6a3.51,3.51,0,0,1-1.56,1.44c-.46.24-1.13.3-1.17,1,4.8,5,40.87,17.43,61.51,21a222.1,222.1,0,0,0,96.31-4.27,2.76,2.76,0,0,0-.46-2.56Z"/><path class="cls-2" d="M336.16,470.16l2.79.36a2.76,2.76,0,0,1,.46,2.56,222.1,222.1,0,0,1-96.31,4.27c-20.64-3.57-56.71-16-61.51-21,0-.72.71-.78,1.17-1a3.51,3.51,0,0,0,1.56-1.44c2.36-4.29,5.67-7.85,8.78-11.6a46.84,46.84,0,0,0,4.73-6.86c1.2-2.13,2.47-4.26,3.83-6.3A11.41,11.41,0,0,0,203.3,426a9.38,9.38,0,0,1,2.1-4,4.22,4.22,0,0,0,.88-1.69c.07-.23,0-.51.15-.7,2.39-3.62,2.86-8.1,5.3-11.69a8.34,8.34,0,0,0,.89-3,12,12,0,0,1,1.95-4.6,5.74,5.74,0,0,0,1-2.65,11,11,0,0,1,2.06-5.3c.88-1.11.94-2.53,1.17-3.86a6.55,6.55,0,0,1,1.75-3.84,4.29,4.29,0,0,0,1.13-3.31A24.88,24.88,0,0,1,224,370.22a9.74,9.74,0,0,0,.72-2.77,22.81,22.81,0,0,1,2.12-7.81,14.52,14.52,0,0,0,1.25-4.6c.35-2.19,1-2.68,3.25-2.54.63.05,1.25.24,1.88.33a17.91,17.91,0,0,0,4.71.35c4.43-.51,8.77-1.56,13.17-2.15a37.46,37.46,0,0,0,10.27-2.77,11,11,0,0,1,3.69-1c.24,0,.55,0,.69-.15,2.52-2.45,6.58-2,8.94-4.77a2,2,0,0,1,.81-.5c4.3-1.64,7.05-5.11,9.79-8.5,1.47-1.82,1.16-4.12.6-6.22a2.57,2.57,0,0,0-2.49-1.6,6.58,6.58,0,0,1-2.72-.86,3.76,3.76,0,0,0-3.88-.13c-1.62.93-3.45.55-5.16.86a58.86,58.86,0,0,0-9.11,2.71c-3.36,1.19-6.59,2.66-9.91,3.92a13.52,13.52,0,0,0-3.56,1.79,3.75,3.75,0,0,1-1.25.69c-2.62.76-4.69,2.59-7.18,3.59a6.8,6.8,0,0,0-2.55,1.73,3.15,3.15,0,0,1-1.12.88c-.87.32-1.76.9-2.71.17s-.85-1.75-.53-2.81c.61-2.06,1-4.19,2.46-5.93a4.3,4.3,0,0,0,.63-1.79,16.11,16.11,0,0,1,2.27-5.76,5.88,5.88,0,0,0,.72-2,9.68,9.68,0,0,1,1.3-3.33,16.68,16.68,0,0,0,2-4.32c1.06-3.15,3.2-4.17,6.38-3.08a9.45,9.45,0,0,0,3.29.52c2.63,0,5.28-.13,7.91,0a55.25,55.25,0,0,0,12.83-1.25,32.41,32.41,0,0,1,4.27-.56,19,19,0,0,0,7-2.18,8.78,8.78,0,0,1,1.13-.37c2-.6,4-.89,5.66-2.38a5,5,0,0,1,1.93-.93c4-1.23,7-3.92,10.11-6.47a3.18,3.18,0,0,0,.89-3.71,3,3,0,0,0-2.89-2.47,71.28,71.28,0,0,0-9.78.49c-5,.66-9.69,2.62-14.8,2.5a19.63,19.63,0,0,0-7,1.56c-2.53.91-5.12,1.12-7.67,1.69a19.22,19.22,0,0,0-6.3,2.11,5.49,5.49,0,0,1-3.71.71c-1.11-.15-1.62-.89-1.08-1.85,1.09-1.93,1.23-4.35,3-5.91.46-3.44,3.89-5.35,4.53-8.71a2.15,2.15,0,0,1,.47-.81,90.89,90.89,0,0,0,5.72-8.81,17.1,17.1,0,0,1,3.21-3.53c.79-.73,1.79-.53,2.75-.37a38.31,38.31,0,0,0,11.66.06c2.22-.29,4.46-.3,6.69-.48a28,28,0,0,0,8.4-1.59c3.18-1.28,6.72-1.44,9.85-2.9,2-.95,4.39-1.21,6.24-2.35,2.64-1.62,5.64-2.42,8.21-4.22,1.93-1.35,4-2.57,6.07-3.76a19.1,19.1,0,0,0,4.11-3.23c.91-.95,1.73-1.92,1-3.38s-1.69-2.95-3.68-3a37.39,37.39,0,0,0-8.58.62,5.09,5.09,0,0,1-1.4.27c-4.3-.33-8.34,1.24-12.54,1.63-6.24.57-12.09,2.79-18,4.64-2,.64-3.87,1.85-6,2.42-.76.2-1.48.67-2.43.18a2.61,2.61,0,0,1,.7-3.35c2.44-2.31,4.5-5,6.85-7.35s4.93-4.44,6.63-7.18a29.78,29.78,0,0,1,4.44-5.51c1.68-1.66,3.58-2.61,6.06-1.79a8.1,8.1,0,0,0,2.37.16c2.64.06,5.28-.15,7.88.5a2.18,2.18,0,0,0,.95,0c3.88-.85,7.81-.45,11.72-.6,2.91-.12,5.62-1.08,8.38-1.81,1.22-.31,2.44-.72,3.67-1,2.38-.62,4.82-1,6.94-2.45,1.45-1,3.33-1,4.88-1.83,3.72-1.93,7.41-3.94,11.07-6,2.51-1.4,2.78-4,.65-5.94a5.83,5.83,0,0,0-5.3-1.54c-1.8.35-3.62.56-5.42.91a10.88,10.88,0,0,1-5,0,2.81,2.81,0,0,0-1.19,0c-6.88,1.25-14,1.26-20.63,3.76a8.78,8.78,0,0,1-3.3.47c-.75,0-1.48-.09-1.73-1s.35-1.34.9-1.8a4.85,4.85,0,0,1,.83-.48c3.88-2.18,8-4.06,11.57-6.61,2.75-1.94,6.11-2.8,8.55-5.19,2.84-.53,4.72-2.85,7.3-3.94a34,34,0,0,0,4.88-2.89c4.14-2.65,8.36-5.17,12.42-8,3.36-2.3,6.49-4.85,9.66-7.36,2.22-1.75,4.69-3.33,6-6.06a1.84,1.84,0,0,0,0-1.92c-.68-1.39-1.95-2.06-3.05-2.94a1.5,1.5,0,0,0-1.82,0c-1.54,1.29-3.44,1.18-5.21,1.48-2.35.4-4.67.72-6.58,2.35-.67.57-1.64.44-2.46.79-1.77.75-3.31,1.85-5,2.72-2.16,1.11-4.59,1.58-6.66,3-3,2-6.21,3.8-9.18,5.94-2,1.41-3.7,3.2-6.05,4.19-1.73.73-3,2.36-4.43,3.6-3.51,3-7.35,5.65-10.52,9.05a3,3,0,0,1-.74.6c-1,.53-1.77.1-1.8-1a5.18,5.18,0,0,1,1.56-3.66,7.26,7.26,0,0,0,1.83-3.3,1.25,1.25,0,0,1,.14-.45c2.26-2.65,2.69-6.28,4.84-9a5.16,5.16,0,0,0,.92-3.17,7.16,7.16,0,0,1,1.2-4,11.44,11.44,0,0,0,1.81-5.15,17.9,17.9,0,0,1,1.58-6,7.39,7.39,0,0,0,.65-1.81,3.66,3.66,0,0,0-1-3.7c-2.5-2.43-2.39-2.42-5.25-.45-2.3,1.58-3.66,4-5.55,5.93-3.22,3.32-5.65,7.28-8.52,10.89a47.77,47.77,0,0,0-6,9.15c-1.35,2.86-3.71,5.23-4.18,8.51a.44.44,0,0,1-.1.22c-2.47,2.57-2.66,6.27-4.52,9.14a2.25,2.25,0,0,0-.43.86c-.85,5.1-3.85,9.63-3.9,15,0,1.73-.43,3.47-.48,5.24-.06,2.53-1.76,4.24-3.36,5.86-3.38,3.41-6.53,7-9.6,10.68a14.57,14.57,0,0,0-1.33,2,5.69,5.69,0,0,1-1.39,1.65c-1,.77-1.86.44-2-.86a16.52,16.52,0,0,1,.75-6.63c2-6.14,2.54-12.49,2.61-18.89.05-4.24,0-8.48,0-12.72a71.61,71.61,0,0,0-.54-7.17c-.22-2.74-2.05-4.4-4.25-4.22a2.23,2.23,0,0,0-1.35.42,24.14,24.14,0,0,0-6.45,7.58c-.79,1.57-1.57,3.14-2.29,4.74a13.81,13.81,0,0,0-.88,2.48,126.11,126.11,0,0,0-3.12,31.35c.12,5.91.1,11.83.21,17.75,0,1.83.26,3.66.45,5.49a8.38,8.38,0,0,1-2.26,6.36,16.13,16.13,0,0,0-1.66,2.6c-1.27,2.29-2.66,4.52-4.09,6.72a16.24,16.24,0,0,0-2.07,3.76,3.3,3.3,0,0,1-.86,1.42,1.84,1.84,0,0,1-2,.45,1.49,1.49,0,0,1-.94-1.53c0-1.68-.05-3.36,0-5a59.63,59.63,0,0,0-.72-8.31,74.81,74.81,0,0,1-1.11-10.46,36.33,36.33,0,0,0-2.55-13.32c-.38-1-.54-2-.88-3a6.45,6.45,0,0,0-6-4.4A4.51,4.51,0,0,0,233,241a10.26,10.26,0,0,0-2.35,6.62c.15,7.75.14,15.51.2,23.27a3.85,3.85,0,0,0,.05,1c1.17,4.81,1.11,9.82,2.38,14.61.67,2.49.18,5.1.81,7.61a40.75,40.75,0,0,0,1.2,5.11c1.16,2.92,1.45,6.05,2.1,9.09.49,2.31-.5,4.59-1.67,6.6a15.05,15.05,0,0,0-1.93,4.61,12,12,0,0,1-2,4.84,7.36,7.36,0,0,0-1.1,3.64c-.11,1.09-.19,2.33-1.46,2.77-.76.26-1.61-.86-2.18-2.52-.95-2.79-1.51-5.85-3-8.28-1.77-2.79-2.55-5.95-4.22-8.78s-3-5.77-4.54-8.65c-1.82-3.44-3.85-6.82-6.89-9.42a6.77,6.77,0,0,0-6.26-1.5,4.12,4.12,0,0,0-3.26,3.1,9.69,9.69,0,0,0-.32,5.61c.62,2.37,1.11,4.77,1.65,7.16a1,1,0,0,0,.09.22c2,2.76,2.45,6.19,4.1,9.09a29,29,0,0,1,1.35,2.81,48,48,0,0,0,5.37,9.55c1.15,1.51,2.17,3.15,3.16,4.76,1.4,2.28,3.29,4.1,4.83,6.23.91,1.25,2.43,1.75,3.53,2.82a5.2,5.2,0,0,1,1.43,6.08,8.92,8.92,0,0,1-.43,1.12,21.24,21.24,0,0,0-2.31,7.76,25.73,25.73,0,0,1-1.39,5.56,29.51,29.51,0,0,0-1.69,8.67,17.46,17.46,0,0,1-.68,4.25c-.61,2.27-1.22,2.79-3.59,2.52a23.94,23.94,0,0,1-6.65-1.84c-1.74-.76-3.35-1.82-5.3-2.13-1.36-.22-2.14-1.55-3.41-2.11A34.8,34.8,0,0,1,194,370a23.31,23.31,0,0,1-4.89-3.7,1.68,1.68,0,0,0-1.08-.42,25.38,25.38,0,0,1-6.6-2,12.22,12.22,0,0,0-3.17-1,6,6,0,0,1-3.48-1.91c-.22-.24-.37-.65-.62-.71-3.31-.88-4-4.62-6.76-6.13a1.8,1.8,0,0,1-.82-1.15,1.63,1.63,0,0,0-.39-.86c-2.42-1.9-3-5-4.7-7.32A2.44,2.44,0,0,1,161,344c-.78-3.26-2.4-6.21-3.42-9.38a25.62,25.62,0,0,0-2.23-5.76c-1.28-2.09-1.69-4.62-3.08-6.72a7.2,7.2,0,0,0-4.23-3.26,25.85,25.85,0,0,1-7.15-3.7,6,6,0,0,1-2.07-3.44,9.65,9.65,0,0,0-1.88-3.84,5.11,5.11,0,0,1-1-2.42,16.38,16.38,0,0,0-.63-3c-1.85-4.08-1.91-8.53-2.8-12.8a1.3,1.3,0,0,0-.12-.46c-1.7-2.49-3.21-5.18-6.22-6.35a3.71,3.71,0,0,1-1.58-.95,2.15,2.15,0,0,0-1-.65,17.22,17.22,0,0,1-7.42-4.48c-2.44-2.23-5.36-4.15-5.86-7.85a.51.51,0,0,0-.06-.22c-3-3.68-2.28-8.31-3.26-12.5-.24-1-.27-2.06-.5-3.06-.42-1.82-1-3.51-2.85-4.49a3.7,3.7,0,0,1-2-3.8c.13-2.67.23-5.3,2.42-7.27.06-.06.13-.12.14-.19.56-3.3,3-5.77,3.93-8.9.49-1.63.58-3.11-.91-4.35a2,2,0,0,1-.37-2.8c1.35-2,1.07-4.06.54-6.22a23.85,23.85,0,0,1-.08-9.74,20.06,20.06,0,0,0,.67-3.52,3.49,3.49,0,0,1,.22-.93,70.66,70.66,0,0,1,5.13-9c1.52-1.94,3.48-3.53,4.47-5.88a2.47,2.47,0,0,1,.95-1.05c2-1.2,3.42-3.12,5.27-4.52a18.1,18.1,0,0,1,2.48-1.84c1.62-.85,1.81-1.81.82-3.28-1.16-1.73-.88-2.78,1.06-3.6a15.61,15.61,0,0,1,3.6-1.27,3.83,3.83,0,0,0,3.31-3.33c.67-3.15,2.91-5.27,4.65-7.7s4.48-3.13,7.15-3.46a4,4,0,0,0,3.71-2.81,12.43,12.43,0,0,1,3.11-4.49,4.4,4.4,0,0,1,3.43-1.42c4.3.2,8.2-1.28,11.85-3.27a23.57,23.57,0,0,0,5.37-3.94c4-4,7.87-8,11.88-11.87,4.75-4.62,9.77-8.94,14.84-13.2.19-.15.37-.36.59-.4,2.47-.45,4.05-2.46,6.18-3.51,1.95-1,3.13-3,4.81-4.3a48.32,48.32,0,0,1,6.69-4.94,7,7,0,0,0,1.95-1.38,6,6,0,0,1,3.52-1.89c.23,0,.53,0,.69-.17,2.67-2.45,6.43-2.73,9.35-4.7A9.49,9.49,0,0,1,239,92.46a17,17,0,0,0,4.74-1.57,15.91,15.91,0,0,1,6-1.48A29.91,29.91,0,0,0,255.78,88a46.27,46.27,0,0,1,15.36-1.9,106.43,106.43,0,0,1,11.69.93,10.89,10.89,0,0,1,2.54.65c3.35,1.5,7,1.59,10.51,2.05a18.46,18.46,0,0,1,4.42,1,29.28,29.28,0,0,0,12.42,2,53.43,53.43,0,0,1,8.56.7c4.42.48,8.78,1.37,13.23,1.74,5.06.43,10.17.72,15.07,2.44a25.08,25.08,0,0,0,5.62,1c3.06.33,5.8,1.64,8.66,2.56,1.52.49,3.28.5,4.57,1.3,2.91,1.8,6.52,2.13,9.08,4.67.9.9,2.37,1.15,3.43,2.08,2.79,2.44,4.78,5.46,6.88,8.47,1.44,2.08,2.91,4.21,4.21,6.34,1.67,2.75,3.64,5.39,4.73,8.49a7.1,7.1,0,0,0,.84,2,11,11,0,0,1,2.19,7.2,3.49,3.49,0,0,0,.71,2.48c1.14,1.29,1.49,3.07,2.48,4.32,1.89,2.41,2.58,5.49,4.67,7.73a1.82,1.82,0,0,1,.44.57c.69,2.42,2.32,4.32,3.53,6.45,1.61,2.83,3.26,5.62,5.07,8.32a2.21,2.21,0,0,1,.38.61c.65,3.22,3.08,5.48,4.48,8.3a4.55,4.55,0,0,1,0,4.78c-1.09,1.69-1.19,3.73-1.82,5.59a43.47,43.47,0,0,0-2.26,15.54,9.54,9.54,0,0,0,2.43,6.52c3.24,3.6,5.93,7.68,9.47,11.06,1.31,1.24,2.07,3,3.25,4.39,1.83,2.2,4.34,3.45,6.48,5.18a35.89,35.89,0,0,0,3.19,2.48c3.61,2.36,6.71,5.39,10.29,7.79,1.24.84,2.29,2,3.49,2.89a2.84,2.84,0,0,1,.86,3.86,13.68,13.68,0,0,1-4.06,5.24,80.41,80.41,0,0,1-9.75,6.37c-1.3.73-2.35,1.88-3.69,2.63a2.32,2.32,0,0,0-.82,3,21.07,21.07,0,0,1,1.08,4.89A3.5,3.5,0,0,0,441,275c2,1.73,2.11,4,1.9,6.35a3.26,3.26,0,0,1-1.06,2.08c-1.25,1.24-2.5,2.48-3.72,3.75a4.72,4.72,0,0,0,0,6.84c.93,1,1.92,1.93,2.85,2.93,1.9,2,1.92,3.36.09,5.42s-3.51,3.71-5.08,5.75a8.14,8.14,0,0,0-1.5,6.69c.53,3.69,1.93,7.2,1.73,11.07A29.14,29.14,0,0,1,433,337.76a10.2,10.2,0,0,1-6.57,5.1c-4.87,1.45-9.83,1.6-14.81,1.86-.4,0-.89-.09-1.18.1-2.06,1.3-4.33.8-6.52.81a13.87,13.87,0,0,0-4.49.54,11.46,11.46,0,0,1-3.54.48,84.36,84.36,0,0,0-13.37.72,33.81,33.81,0,0,1-9.1,0c-3.37-.37-5.27,1.4-7.27,3.64-2.38,2.67-3.47,6.06-5.47,8.92a2.65,2.65,0,0,0-.43,1.11c-.52,4-2.47,7.59-3.07,11.55-.16,1.1-.39,2.2-.46,3.31a20.21,20.21,0,0,1-1.87,6.41,2.09,2.09,0,0,0-.19.44c-.79,4.6-3.14,8.66-4.5,13.08a94.82,94.82,0,0,1-3.62,9.54c-.87,2-1.71,4.09-2.56,6.13-1.17,2.78-2.25,5.62-3.6,8.29-1.08,2.12-1.77,4.43-2.94,6.42-1.65,2.81-2.05,6.26-4.54,8.59a.43.43,0,0,0-.14.19,93.72,93.72,0,0,1-3.54,9.28c-.57,1.47-1,3-1.62,4.48-1.45,3.74-2,7.4.38,11.2,1.92,3,3.82,5.88,6.76,7.94A4.78,4.78,0,0,1,336.16,470.16Z"/></g></g></svg>