<svg xmlns="http://www.w3.org/2000/svg" width="32" height="32" fill="none"><path fill="#000" d="M16 1C7.716 1 1 7.716 1 16c0 6.226 3.793 11.566 9.195 13.835a6.3 6.3 0 0 1-.55.853A15.95 15.95 0 0 0 16 32c1.999 0 3.642-.343 5.181-.867a.65.65 0 0 1-.706-.197c-.18-.212-.309-.39-.358-.508C26.4 28.638 31 22.856 31 16c0-8.284-6.716-15-15-15" class="fg"/><path fill="#00CFFF" d="M31.997 15.67C31.816 6.759 24.383-.302 15.445.01 6.715.311-.182 7.613.004 16.349c.142 6.453 4.083 11.926 9.639 14.34.788-1.001 1.445-2.802 1.773-3.804q.492-1.232 1.034-2.397c1.626.563 3.805.027 4.998-1.27l.05-.05h-.006c-1.445-.634-3.438-.306-4.751.712q.672-1.39 1.417-2.687c1.599.64 3.799.202 5.047-1.035l.05-.05h-.006c-1.39-.689-3.356-.47-4.713.444a37 37 0 0 1 1.543-2.37c1.654.515 3.832-.12 4.976-1.478l.044-.055h-.006c-1.346-.52-3.12-.213-4.379.668l.132-.18c.323-.422.651-.827.985-1.226 1.954-.553 3.695-2.546 3.974-4.604l.01-.082h-.005c-2.02.405-3.891 2.392-4.264 4.494-.323.383-.635.772-.947 1.177.504-1.369.416-3.033-.323-4.182v-.016l-.043.054c-1.111 1.407-1.292 3.695-.427 5.211a39 39 0 0 0-1.467 2.239c.295-1.555-.203-3.36-1.297-4.379l-.006-.005-.027.065c-.723 1.62-.334 3.86.854 5.123a41 41 0 0 0-1.341 2.535c.257-1.615-.318-3.487-1.478-4.5l-.006-.005-.027.066c-.657 1.702-.153 4.006 1.128 5.238-.28.596-.548 1.21-.805 1.828a.5.5 0 0 0-.236-.142 5.8 5.8 0 0 1-1.302-.575 5 5 0 0 0-1.062-.487c-1.445-.47-1.232-1.171-1.987-2.562-.05-.093-.646-.711-.772-.826-.033-.028-.41-.247-.607-.657a3.2 3.2 0 0 1-.312-1.062c-.05-.454-.236-.75-.679-.903-2.113-.728-1.166-3.481-1.09-3.848.061-.312-.207-.996-.311-1.368a2 2 0 0 1-.033-.17 1.87 1.87 0 0 1 .443-1.62c.258-.258 1.139-.668 1.325-.909.18-.235.328-.509.514-.739.247-.306 1.008-.914 2.026-1.461.618-.329.728-1.193.963-1.462.405-.454 1.013-.454 1.467-.864.23-.208.558-.312.772-.526 1.05-1.078 2.463-1.516 3.859-1.773.941-.176 1.986.093 2.966.262.143.022.28.06.416.099 2.206.077 4.86.536 5.819 1.467.596.585.892 1.22 1.034 1.658q.24.74.651 1.396l.591.958a2.7 2.7 0 0 1 .334 2.03c-.093.395-.136.81-.021 1.04.186.362.75.947 1.089 1.281q.246.247.542.427c.454.285 1.313.838 1.313.887 0 .066.071.34-.312.668s-1.094.854-1.094.854.038.24.136.432c.099.192.35.476.274.739s-.602.465-.454.75c.153.29.525.378.416.64-.11.263-.63.706-.58.903.054.192.476 1.976-.504 2.288-.739.236-2.764.367-3.716.416-.411.022-.783.252-.98.613a3.3 3.3 0 0 0-.367 1.139c-.186 1.264-1.434 4.165-1.434 4.165s-.038.071-.093.197c-.11.263-.263.674-.241.838.016.11.159.317.378.574.17.203.448.285.706.198 6.41-2.179 10.963-8.326 10.816-15.463" class="bg"/></svg>