<svg xmlns="http://www.w3.org/2000/svg" viewBox="0 0 355.69 394.09"><g id="Layer_2" data-name="Layer 2"><g id="Layer_1-2" data-name="Layer 1"><g id="Layer_2-2" data-name="Layer 2"><g id="Layer_1-2-2" data-name="Layer 1-2"><path d="M234.92,382.72c.4.31.79.61,1.19.9.58.44,1.23,1,1.13,1.73s-.82,1.07-1.47,1.32c-23.93,9.17-55.43,8.25-80.46,5.61A235.29,235.29,0,0,1,117,385c-9.22-2.56-27.63-5.65-34.12-13.07-4.71-5.39,6.46-13.5,9.26-17.19,5.79-7.62,10.16-17.08,14.25-25.7,8.58-18.09,18.09-40.89,20.08-60.9.36-2.19,1.06-2.69,3.26-2.54a13.68,13.68,0,0,1,1.88.32,17.74,17.74,0,0,0,4.71.36c4.43-.51,8.77-1.57,13.16-2.15,8.56-1,40.26-10.47,34.8-23.91a2.59,2.59,0,0,0-2.49-1.6,6.4,6.4,0,0,1-2.72-.87,3.78,3.78,0,0,0-3.88-.12c-1.62.92-3.45.54-5.16.86a57.75,57.75,0,0,0-9.11,2.7c-3.36,1.2-6.59,2.67-9.91,3.92a13.55,13.55,0,0,0-3.56,1.8,4,4,0,0,1-1.25.69c-2.62.75-4.69,2.58-7.18,3.59a6.47,6.47,0,0,0-2.55,1.73,2.89,2.89,0,0,1-1.12.87c-.87.32-1.76.91-2.72.18-3.43-2.61,7-21.84,8.45-25.29,1.3-3.15,3.25-5,6.79-3.74a9.36,9.36,0,0,0,3.28.53c2.64-.05,5.29-.13,7.92,0a54.42,54.42,0,0,0,12.78-1.28,34,34,0,0,1,4.26-.55,19.19,19.19,0,0,0,7-2.18,8.78,8.78,0,0,1,1.13-.37c2-.61,4-.89,5.66-2.39a5.14,5.14,0,0,1,1.93-.92c4-1.23,7-3.93,10.11-6.48a3.18,3.18,0,0,0,.89-3.7,3,3,0,0,0-2.89-2.48,74.25,74.25,0,0,0-9.78.5c-5,.66-9.69,2.62-14.8,2.5a19.62,19.62,0,0,0-7,1.55c-2.53.91-5.12,1.12-7.67,1.7a19,19,0,0,0-6.3,2.11c-8,4.39-2.15-6.72-.78-9.31A147.37,147.37,0,0,1,164,187.34a7.26,7.26,0,0,1,2.53-2.49,7.54,7.54,0,0,1,3.54-.44A101.31,101.31,0,0,0,227.94,168c2-1.3,4.14-3.25,3.61-5.54-.61-2.66-4.13-3.18-6.85-3a139.25,139.25,0,0,0-45.53,10.14c-1.18-.8-.3-2.63.65-3.7l15.33-17.3a16,16,0,0,1,3.8-3.45c3.05-1.77,6.83-1.35,10.35-1.09a84.29,84.29,0,0,0,49.5-12c2.12-1.29,4.46-3.29,4-5.72-.62-3.12-4.92-3.44-8.07-3l-33.35,4.6a1.93,1.93,0,0,1-1,0c-1.36-.59,0-2.58,1.32-3.25a368.07,368.07,0,0,0,55.91-34.87c2.59-2,5.37-5.5,3.29-8-1.49-1.78-4.32-1.29-6.54-.58a130.46,130.46,0,0,0-44.22,24.4c-3.73,3.14-7.45,6.58-12.12,8A276.45,276.45,0,0,0,232,78.16c.66-2.06,1.15-4.66-.47-6.07-2.2-1.93-5.48.39-7.39,2.61-14.34,16.58-27.08,35.64-30.47,57.3-.43,2.72-.72,5.52-2,8a22.54,22.54,0,0,1-3.51,4.75l-10.38,11.73c-.81.91-2.12,1.89-3.09,1.17a138.89,138.89,0,0,0,3.56-44.55c-.17-2.09-.6-4.52-2.45-5.53-2.63-1.44-5.65,1.14-7.31,3.64-5.4,8.13-7.76,17.95-8.54,27.68s-.08,19.51.15,29.27c.17,7.17-.66,13-4.21,19.2-1,1.77-5.55,12-8.48,10.85a1.46,1.46,0,0,1-.94-1.52v-5a60.92,60.92,0,0,0-.72-8.32,73.2,73.2,0,0,1-1.11-10.45,36.18,36.18,0,0,0-2.56-13.32c-.37-1-.53-2-.88-3a6.43,6.43,0,0,0-6-4.39,4.48,4.48,0,0,0-3.91,1.92,10.17,10.17,0,0,0-2.35,6.61c.15,7.76.14,15.52.2,23.28a3.35,3.35,0,0,0,.05.95c1.17,4.81,1.1,9.82,2.38,14.61.67,2.49.18,5.1.81,7.61a37.66,37.66,0,0,0,1.2,5.12c1.16,2.92,1.44,6.05,2.09,9.08,1.09,5.08-4.38,13.61-6.2,18.33-2.25,5.88-3.82,2.36-5.77-1.7-1.85-3.85-3.33-7.86-5-11.82-3-7.18-6.14-14.72-12.06-20a6.8,6.8,0,0,0-6.26-1.5,4.14,4.14,0,0,0-3.26,3.11,9.76,9.76,0,0,0-.33,5.61c.63,2.36,1.12,4.77,1.66,7.15a.85.85,0,0,0,.09.22c2,2.76,2.45,6.2,4.1,9.1.51.9.93,1.86,1.35,2.8a47.19,47.19,0,0,0,5.37,9.55c1.15,1.51,2.17,3.16,3.16,4.77,1.4,2.27,3.29,4.1,4.83,6.22.91,1.26,2.43,1.76,3.53,2.82a5.21,5.21,0,0,1,1.43,6.08,9.9,9.9,0,0,1-.42,1.07,21.23,21.23,0,0,0-2.31,7.77,26.63,26.63,0,0,1-1.39,5.56,29.19,29.19,0,0,0-1.69,8.67,17.46,17.46,0,0,1-.68,4.25c-.62,2.27-1.22,2.78-3.59,2.52a23.58,23.58,0,0,1-6.65-1.85c-7.93-3.52-15.12-8.5-23.07-12-3.39-1.49-6.83-2.44-9.78-4.43-2.64-1.78-4.42-5-7.14-6.49a1.76,1.76,0,0,1-.82-1.15,1.62,1.62,0,0,0-.39-.86c-2.42-1.9-3-5-4.71-7.32a2.63,2.63,0,0,1-.49-.82c-.78-3.25-2.39-6.21-3.41-9.37a25.84,25.84,0,0,0-2.23-5.76c-1.28-2.09-1.69-4.62-3.09-6.72a7.18,7.18,0,0,0-4.22-3.26,25.35,25.35,0,0,1-7.15-3.71,5.91,5.91,0,0,1-2.07-3.43A9.92,9.92,0,0,0,35.27,221a5.16,5.16,0,0,1-1-2.43,17,17,0,0,0-.63-3c-1.85-4.07-1.92-8.52-2.8-12.8a1.83,1.83,0,0,0-.12-.46c-1.7-2.48-3.21-5.18-6.22-6.34a3.56,3.56,0,0,1-1.58-1,2.27,2.27,0,0,0-1-.64,17.26,17.26,0,0,1-7.41-4.48c-2.44-2.23-5.36-4.15-5.86-7.85a.48.48,0,0,0-.07-.23c-3-3.67-2.27-8.3-3.25-12.49-.24-1-.27-2.06-.5-3.07-.42-1.81-1-3.51-2.85-4.48A3.7,3.7,0,0,1,0,158c.13-2.68.23-5.31,2.42-7.28.06,0,.13-.11.14-.18.56-3.31,3-5.77,3.93-8.91.49-1.63.58-3.11-.91-4.34a2,2,0,0,1-.37-2.81c1.34-2,1.07-4.06.54-6.22a23.63,23.63,0,0,1-.08-9.73A20,20,0,0,0,6.37,115a3.32,3.32,0,0,1,.22-.93,70.78,70.78,0,0,1,5.13-9c1.52-1.93,3.48-3.53,4.47-5.87a2.35,2.35,0,0,1,.95-1c2-1.2,3.41-3.13,5.27-4.52a18.81,18.81,0,0,1,2.48-1.85c1.62-.85,1.81-1.81.82-3.27-1.17-1.74-.88-2.78,1.06-3.6a15.75,15.75,0,0,1,3.6-1.28,3.82,3.82,0,0,0,3.31-3.33c.66-3.14,2.9-5.27,4.65-7.7,2.45-3.39,6-2,8.94-4,3.18-2.08,4.07-5.95,8.31-7.7,3.63-1.49,7.56-2.16,11.14-3.75C73.24,54.29,78,48.64,83,43.48,104,21.35,135.06.4,166.68,0c9.1-.12,18.13,1.26,27.12,2.62,19.62,3,40,8,59.73,9.13,3.06.33,5.79,1.63,8.66,2.56,15.58,4.95,24.38,14.51,31.38,29.23,5.37,11.3,10.94,22.5,16.9,33.5,3.35,6.18,8.65,12.38,9.26,19.65.33,3.94-1.33,6.2-2.45,9.73-1.33,4.15-1.4,8.81-1.47,13.12a9.5,9.5,0,0,0,2.43,6.52c3.24,3.61,5.93,7.69,9.47,11.06,1.31,1.24,2.07,3,3.25,4.4,5.74,6.87,15.44,12.06,22.54,17.47a4.85,4.85,0,0,1,2.15,2.7,4.13,4.13,0,0,1-.6,2.54c-3.35,6.35-11,8.83-16.67,13.27a3.22,3.22,0,0,0-1.43,3.82c.8,4.68,4.76,8.42,4.26,13.14a3.28,3.28,0,0,1-1.06,2.08c-1.25,1.24-2.5,2.47-3.72,3.74a4.73,4.73,0,0,0-.16,6.69c.05.05.1.11.16.16.93,1,1.92,1.93,2.85,2.92,1.89,2,1.92,3.37.08,5.43-1.69,1.9-3.5,3.71-5.07,5.74a8.16,8.16,0,0,0-1.51,6.7c.54,3.68,1.94,7.19,1.73,11.07-.24,4.9-1.59,11.34-5.44,14.7-2.74,2.4-6.58,3-10.19,3.41q-12.18,1.49-24.43,2.45c-11.13.87-27.14-2.67-33.36,8.68-2,3.6-3,7.65-4,11.62a343.54,343.54,0,0,1-17.77,50.77c-5,11.28-16.54,26.18-14.12,39.05C226.21,375.14,230.48,379.27,234.92,382.72Z"/></g></g></g></g></svg>