<svg xmlns="http://www.w3.org/2000/svg" viewBox="0 0 841.5 1070.82"><g id="Layer_2" data-name="Layer 2"><g id="Layer_1-2" data-name="Layer 1"><path d="M796.47,279.21c11.7,34.33,17.24,70.6,18.39,106.79a471.26,471.26,0,0,1-1.42,53.54c-1.16,14-.31,33.5-9.9,44.93a41.9,41.9,0,0,1-6.66,6c-90.63,70-219.28,68.61-314.15,9.35-28.41-17.75-53.64-39.76-82.46-56.83-36-21.34-75.54-37-117.17-42.35-42.05-5.4-85.26-4-126.43,6.61-38.07,9.82-73.3,28.09-104.47,52-9.23,7.06-18.55,14.86-29.92,17.3a4.94,4.94,0,0,1-3,0c-2.68-1.12-2.67-7.36-3.07-9.69a111,111,0,0,1-1.52-12.33c-1.2-21.08-3.23-42.21-2.67-63.26,1.46-55.12,13.47-110.42,36.07-160.77,23.27-51.82,59.15-94.41,101.4-131.9,40.91-36.31,87.25-63.94,139.78-79.91C372.07-6.51,461-6.76,543,21.24,617.18,46.57,680.7,92.42,729.82,153.17a347.63,347.63,0,0,1,47.63,78C784.3,246.69,790.88,262.8,796.47,279.21Z"/><path d="M637.1,642.61c-58-.39-113.5-18.5-162.54-48.85-44.26-27.4-84.81-62.3-134-80.94-46.12-17.48-97.15-20.49-145.57-12.36-51.65,8.68-93.39,30.88-135.39,61.25-12.51,9-32.76,25.36-48.33,14.11-8.65-6.25-13.58-17.71-10.24-27.38,5.06-14.63,27.18-25.22,39.22-33.62a479.82,479.82,0,0,1,51.29-31.7C193.39,429.63,327.49,435.91,423.1,500c13.33,8.94,26.23,18.52,39.66,27.33,46.1,30.27,88.42,56.49,144.47,63.09,55.63,6.56,117.57-4,164.84-35.26,11.51-7.6,22.68-15.71,34.36-23,10.57-6.62,21.7-2.73,28.92,5.63,6.53,7.56,7.72,16.36,4.22,25.53a20.17,20.17,0,0,1-6.09,8.73c-55.23,41.08-115.82,68.39-185.64,70.46Q642.47,642.65,637.1,642.61Z"/><path d="M240,807.05q0-105.39,0-210.77c0-8.82.66-17.63.5-26.44-.17-10.12,7.88-19.34,17.83-23.55,8.32-3.53,19.68.15,26.26,7.28,5.47,5.92,7.81,12.59,7.81,20.63q0,105.85.25,211.73.12,113.87.11,227.74c0,9.82.41,19.7-.57,29.43-2.24,22.16-19.78,34.21-39.1,24.11-8.17-4.27-12.35-12.34-12.43-21.93-.09-11-.07-22-.08-33q-.06-98.15-.11-196.29v-9Z"/><path d="M194.39,696.32q0,56.16,0,112.32c0,10.27-2.75,19.42-11,26.11-11.77,9.59-22.31,6.51-32.8-3.31-6.62-6.19-8.79-14.92-8.81-23.68q-.27-111.33-.06-222.65a81.66,81.66,0,0,1,2.15-17.74c2.79-12.28,21.63-21,33.06-16,13.1,5.74,17.25,16.4,17.26,29.58q0,57.66,0,115.32Z"/><path d="M585.13,827.39q0,58.9,0,117.8c0,4.28-.07,8.77-1.35,12.76-.93,2.88-3.72,5.29-6,7.57-13.51,13.39-34.24,7.05-41.52-6.84-1.91-3.63-2.61-8.28-2.62-12.46q-.23-119.57-.07-239.12c0-14.59,10.59-25.43,25.85-26.38,9.1-.56,22.32,6.23,25.29,19.43a30,30,0,0,1,.47,6.43Q585.16,767,585.13,827.39Z"/><path d="M683.05,817.94c0,34.3.22,68.6-.09,102.89-.15,16.29-14,25.94-29.09,24.56-14.4-1.32-22.66-12.74-22.62-27.16.18-59.78.07-119.55.17-179.32,0-9.61.27-19.24,1-28.82.72-9.41,11.18-18.14,20.53-19.22,13.17-1.53,22.16,3.92,27.92,15.16,1.57,3.06,2,7,2.06,10.51.14,33.8.08,67.6.08,101.4Z"/><path d="M44.72,710.94c0-28.13-.13-56.27.06-84.4.09-14,17.72-31.91,33.31-23.83,9.66,5,16.69,12,17.25,23.59.54,11,1,21.91,1.08,32.87q.43,44.69.5,89.35c0,15.31.26,30.65-.62,45.92-.66,11.43-4.58,21.25-16.49,26.71-11,5.06-25.43-.62-30.88-9.85-3.49-5.92-4.74-12.11-4.65-19,.31-21.46.22-42.94.27-64.41,0-5.66,0-11.31,0-17Z"/><path d="M338.17,693.36c0-24.3-.17-48.6.12-72.9a71.19,71.19,0,0,1,2.56-19.08c5-17.11,26.19-20.47,37.64-11.15,9.57,7.79,11,17.93,11.06,28.94.09,46.77.24,93.54.15,140.3a228.33,228.33,0,0,1-1.6,28.29c-1.28,10.15-9,15.36-17.85,18a24.15,24.15,0,0,1-28.59-12.68c-2.55-5.53-3.59-12.18-3.68-18.34-.38-27.13-.16-54.26-.16-81.39Z"/><path d="M782.06,737.5c0,15,.05,30,0,44.94-.06,13.68-18.2,30.24-36.47,21.74-12.41-5.78-16-15.51-16.09-27.69q-.18-37.44.08-74.89a97.54,97.54,0,0,1,1.4-15.34c1.77-10.66,9.25-16.23,18.91-18.6s17.92.71,25.15,8.05c5.57,5.66,7.18,11.91,7.08,19.35C781.93,709.21,782.05,723.35,782.06,737.5Z"/><path d="M436.27,691.41c0-8,.26-16-.06-24-.62-15.71,18-27.49,31.56-24.27,10,2.36,19.62,14.55,19.64,24.64,0,14.64-.08,29.29-.24,43.93-.18,15-9.75,25.11-24.82,26.43-11.9,1-25.46-10.78-25.85-22.81-.26-8-.05-16-.05-24Z"/></g></g></svg>