<svg xmlns="http://www.w3.org/2000/svg" viewBox="0 0 1079.15 1079.01"><defs><style>.cls-1{fill:#c3136f;}.cls-2{fill:#fefefe;}.cls-3{fill:#fefcfd;}.cls-4{fill:#fefdfd;}.cls-5{fill:#fdfbfc;}.cls-6{fill:#fdfcfc;}</style></defs><g id="Layer_2" data-name="Layer 2"><g id="Layer_1-2" data-name="Layer 1"><path class="cls-1" d="M0,568.46v-58a31,31,0,0,0,1-4.1c1.77-16.54,2.85-33.18,5.36-49.6,9.15-60,28.27-116.74,56.59-170.47C144.77,131.07,301.51,23.87,476,3.74,543.41-4,609.94.25,675.56,17.25c218,56.5,378.14,243.69,400.81,468.19a537.63,537.63,0,0,1-14.53,190.11c-57.38,221.58-250.55,383.57-478.73,401.67-5.21.41-10.38,1.18-15.57,1.79H510.59a17.64,17.64,0,0,0-3.6-1A539.07,539.07,0,0,1,1.8,583C1.41,578.15.61,573.31,0,568.46ZM243.88,447.3c1,11.62,2.19,28.21,3.72,44.77.48,5.18,2.16,6.29,6.91,4a94.36,94.36,0,0,0,16.55-10c32.33-25,68.39-40.7,109.29-44.78,43.5-4.34,85.19,1.53,124.79,20.83C527.9,473.16,548,488.17,568.28,503c33.29,24.33,70.24,38.86,111.51,41.8,48.13,3.44,92-8.24,131-37.2,6-4.42,9.77-10,10.69-17.29,3.71-29.35,4.86-58.83.55-88.12-8.49-57.68-30.75-109.51-70.69-152.42C677.23,170.2,586,139.63,478.8,157.66c-56.39,9.48-103.91,36.15-145.39,75.08C272.78,289.64,245.43,360.34,243.88,447.3Zm453.4,170.29c10.09-.93,20.25-1.45,30.27-2.87,40.89-5.81,76.52-23.77,109.26-48.11a17.76,17.76,0,0,0,5.33-7c3.3-7.66.94-15.75-5.6-21-6.37-5.15-12.37-5.19-20.18-.27-13.36,8.4-26,18.42-40.27,24.83-55.18,24.82-110.52,24.43-164.15-4.46-22.47-12.1-43.56-26.86-64.88-41-69.4-46-143.39-53.88-221.43-26.7-29.69,10.34-54.81,29.06-80.41,46.69a29.16,29.16,0,0,0-6.55,6.79c-4.37,5.92-4.11,13.25.31,19.51s10.72,9.1,17.75,6.77a67.4,67.4,0,0,0,14.66-7.2c7.85-5,15.26-10.68,23-15.83,31.66-21,66.2-33.68,104.32-36.13,44.66-2.86,85.78,7.62,123.14,32.39,18.44,12.22,36.56,24.94,55.23,36.78C613.71,604,653.62,616.76,697.28,617.59ZM447.2,735.81h-.33q0-54,0-107.9c0-20.48,0-41-.16-61.44-.11-11.26-8.86-20.08-19.38-20.05-9.79,0-17.81,9-18,20-.12,8.83-.51,17.65-.49,26.47.12,50.77.38,101.54.49,152.3q.16,80.92.17,161.84c0,10.95,5.7,17.77,15.69,19.17,9.73,1.36,17.75-3.93,20.28-14.27a69.67,69.67,0,0,0,1.64-16.32Q447.3,815.73,447.2,735.81Zm-71.28-81.13h-.11q0-26.46,0-52.93c0-10.81.15-21.64-.15-32.45s-7.88-18.94-17.2-19.28c-10.48-.38-18.44,6.62-19.84,17.54a69,69,0,0,0-.75,8.94q0,79.38.06,158.77a39.5,39.5,0,0,0,.9,8.4c1.88,8.57,11.31,16.61,19.08,16.5s15.73-7.63,17.51-16.66a30.42,30.42,0,0,0,.48-6Q375.95,696.12,375.92,654.68Zm282.5,96.18h0c0-29.28,0-58.56,0-87.84,0-12.71-11.35-21.11-23.55-17.65-9.13,2.59-13.74,9.36-13.74,20.54q0,71.37,0,142.74c0,9.65.11,19.3.14,29A16.64,16.64,0,0,0,628,851.4c6,4.61,12.71,5.93,19.67,2.7s10.86-8.65,10.8-16.89C658.3,808.43,658.42,779.64,658.42,750.86Zm70.77-6.67c0-22.62,0-45.24,0-67.87a56.58,56.58,0,0,0-.7-10.42c-1.67-8.76-10.42-15-19.56-14.26-9.38.75-16.41,7.53-16.48,16.71q-.57,74.08-.77,148.19c0,12.05,7.78,19.71,18.72,19.52,11.42-.19,18.77-7.9,18.8-20C729.24,792.09,729.19,768.14,729.19,744.19ZM516.55,656.71h.54c0-18,.12-36-.07-53.92A57.53,57.53,0,0,0,515.28,588c-2.33-8.19-9.92-13-18.29-12.55-8.1.42-13.79,5.36-15.66,14.12a60.52,60.52,0,0,0-1.43,12.35q-.24,54.67-.18,109.34a45.69,45.69,0,0,0,1.09,9.89c2.37,10.49,11.73,16.4,21.75,14,9.26-2.24,13.74-7.47,13.9-18C516.77,697,516.55,676.84,516.55,656.71Zm-248.74,9.88h-.1V704c0,8.15-.29,16.31,0,24.44.43,10.95,7.94,18.58,18,18.92s17.89-7,19-17.89a120.36,120.36,0,0,0,.75-12.44q0-40.66-.24-81.32c-.07-10-.3-20-.8-29.92-.47-9.42-8.1-17.8-16.83-19.07-6.79-1-15.38,4.75-18.43,12.73a24.24,24.24,0,0,0-1.38,8.26C267.76,627.34,267.81,647,267.81,666.59Zm532.77,18.86h0c0-10.81.2-21.63,0-32.43-.23-9.76-8.7-18.19-18.08-18.53-10.67-.4-18.71,6.27-19.06,17.34-.68,21.27-.57,42.56-.74,63.84a23.29,23.29,0,0,0,.63,4.44,18.76,18.76,0,0,0,20.32,15.23,19,19,0,0,0,16.92-18.44C800.64,706.42,800.58,695.93,800.58,685.45ZM550.66,651.18h.17c0,5.81-.22,11.64,0,17.44.44,9.35,8.92,17.55,17.8,17.56,10.08,0,18.44-7.51,18.76-17.55.37-11.28.4-22.59.16-33.88-.21-9.5-9.19-18-18.12-17.69-10.49.34-18.77,8.55-18.81,18.67C550.64,640.88,550.66,646,550.66,651.18Z"/><path class="cls-2" d="M243.88,447.3c1.55-87,28.9-157.66,89.53-214.56,41.48-38.93,89-65.6,145.39-75.08,107.22-18,198.43,12.54,272.5,92.1,39.94,42.91,62.2,94.74,70.69,152.42,4.31,29.29,3.16,58.77-.55,88.12-.92,7.29-4.74,12.87-10.69,17.29-39,29-82.83,40.64-131,37.2-41.27-2.94-78.22-17.47-111.51-41.8-20.27-14.82-40.38-29.83-63.14-40.91-39.6-19.3-81.29-25.17-124.79-20.83-40.9,4.08-77,19.76-109.29,44.78a94.36,94.36,0,0,1-16.55,10c-4.75,2.31-6.43,1.2-6.91-4C246.07,475.51,244.83,458.92,243.88,447.3Z"/><path class="cls-3" d="M697.28,617.59c-43.66-.83-83.57-13.63-120.18-36.84-18.67-11.84-36.79-24.56-55.23-36.78-37.36-24.77-78.48-35.25-123.14-32.39-38.12,2.45-72.66,15.14-104.32,36.13-7.76,5.15-15.17,10.84-23,15.83a67.4,67.4,0,0,1-14.66,7.2c-7,2.33-13.31-.48-17.75-6.77s-4.68-13.59-.31-19.51a29.16,29.16,0,0,1,6.55-6.79c25.6-17.63,50.72-36.35,80.41-46.69,78-27.18,152-19.35,221.43,26.7,21.32,14.15,42.41,28.91,64.88,41,53.63,28.89,109,29.28,164.15,4.46,14.26-6.41,26.91-16.43,40.27-24.83,7.81-4.92,13.81-4.88,20.18.27,6.54,5.29,8.9,13.38,5.6,21a17.76,17.76,0,0,1-5.33,7c-32.74,24.34-68.37,42.3-109.26,48.11C717.53,616.14,707.37,616.66,697.28,617.59Z"/><path class="cls-4" d="M447.2,735.81q0,79.92-.07,159.84A69.67,69.67,0,0,1,445.49,912c-2.53,10.34-10.55,15.63-20.28,14.27-10-1.4-15.67-8.22-15.69-19.17q-.12-80.91-.17-161.84c-.11-50.76-.37-101.53-.49-152.3,0-8.82.37-17.64.49-26.47.16-11,8.18-20,18-20,10.52,0,19.27,8.79,19.38,20.05.2,20.48.15,41,.16,61.44q0,54,0,107.9Z"/><path class="cls-4" d="M375.92,654.68q0,41.43,0,82.87a30.42,30.42,0,0,1-.48,6c-1.78,9-9.76,16.55-17.51,16.66s-17.2-7.93-19.08-16.5a39.5,39.5,0,0,1-.9-8.4q-.1-79.38-.06-158.77a69,69,0,0,1,.75-8.94C340,556.64,348,549.64,358.46,550c9.32.34,16.9,8.56,17.2,19.28s.14,21.64.15,32.45q0,26.46,0,52.93Z"/><path class="cls-4" d="M658.42,750.86c0,28.78-.12,57.57.07,86.35.06,8.24-3.78,13.63-10.8,16.89S634,856,628,851.4a16.64,16.64,0,0,1-6.77-13.8c0-9.65-.14-19.3-.14-29q0-71.37,0-142.74c0-11.18,4.61-17.95,13.74-20.54,12.2-3.46,23.52,4.94,23.55,17.65.07,29.28,0,58.56,0,87.84Z"/><path class="cls-5" d="M729.19,744.19c0,23.95,0,47.9,0,71.85,0,12.12-7.38,19.83-18.8,20-10.94.19-18.74-7.47-18.72-19.52q.14-74.1.77-148.19c.07-9.18,7.1-16,16.48-16.71,9.14-.73,17.89,5.5,19.56,14.26a56.58,56.58,0,0,1,.7,10.42C729.22,699,729.19,721.57,729.19,744.19Z"/><path class="cls-5" d="M516.55,656.71c0,20.13.22,40.26-.09,60.39-.16,10.58-4.64,15.81-13.9,18-10,2.42-19.38-3.49-21.75-14a45.69,45.69,0,0,1-1.09-9.89q0-54.67.18-109.34a60.52,60.52,0,0,1,1.43-12.35c1.87-8.76,7.56-13.7,15.66-14.12,8.37-.44,16,4.36,18.29,12.55A57.53,57.53,0,0,1,517,602.79c.19,18,.07,36,.07,53.92Z"/><path class="cls-3" d="M267.81,666.59c0-19.62-.05-39.25.06-58.87a24.24,24.24,0,0,1,1.38-8.26c3.05-8,11.64-13.72,18.43-12.73,8.73,1.27,16.36,9.65,16.83,19.07.5,10,.73,20,.8,29.92q.26,40.66.24,81.32a120.36,120.36,0,0,1-.75,12.44c-1.12,10.88-9,18.22-19,17.89s-17.61-8-18-18.92c-.33-8.13-.05-16.29,0-24.44V666.59Z"/><path class="cls-3" d="M800.58,685.45c0,10.48.06,21,0,31.45a19,19,0,0,1-16.92,18.44,18.76,18.76,0,0,1-20.32-15.23,23.29,23.29,0,0,1-.63-4.44c.17-21.28.06-42.57.74-63.84.35-11.07,8.39-17.74,19.06-17.34,9.38.34,17.85,8.77,18.08,18.53.25,10.8,0,21.62,0,32.43Z"/><path class="cls-6" d="M550.66,651.18c0-5.15,0-10.3,0-15.45,0-10.12,8.32-18.33,18.81-18.67,8.93-.29,17.91,8.19,18.12,17.69.24,11.29.21,22.6-.16,33.88-.32,10-8.68,17.56-18.76,17.55-8.88,0-17.36-8.21-17.8-17.56-.27-5.8,0-11.63,0-17.44Z"/></g></g></svg>