<svg xmlns="http://www.w3.org/2000/svg" viewBox="0 0 479.7 479.8"><path fill="#211438" d="M236.7 0h6.48a34.34 34.34 0 0 0 6.25.23 216.69 216.69 0 0 1 22.32 1.88 232.42 232.42 0 0 1 41 9.17 240.32 240.32 0 0 1 162.64 182.58 183.08 183.08 0 0 1 3.84 32.34c.07 1.14.14 2.28.22 3.43a22.45 22.45 0 0 0 .25 4v16.79c-.06.47-.14.94-.17 1.41a224.46 224.46 0 0 1-3.47 30.48c-11.55 61.17-42 110.91-91.34 148.72-39 29.9-83.48 45.72-132.56 48.41a236.47 236.47 0 0 1-52.2-3 231.32 231.32 0 0 1-56-16.68c-49.7-22.12-88-56.86-114.27-104.52-27.25-49.52-35.48-102.44-25.77-158 7.66-43.8 26.59-82.4 55.94-115.77A237.57 237.57 0 0 1 160 13.67a234.57 234.57 0 0 1 45.4-11.2 214.23 214.23 0 0 1 25-2.24 34.34 34.34 0 0 0 6.3-.23Zm22.08 204.62h94.77a8.42 8.42 0 0 0 5.45-2.46 8.1 8.1 0 0 0 2.62-4.8 97 97 0 0 0-2.53-30.93 103 103 0 0 0-92.19-78.57c-16.2-1.19-32 1-46.9 7.44q-48.4 20.86-61.26 72.15c-2.29 9.17-2.76 18.54-2.63 28 .08 5.78 3.46 9.23 9.26 9.23Zm-.37 34.3h114.42a8.59 8.59 0 0 0 8.26-11.69c-1.28-3.58-4.41-5.58-8.74-5.58H143.64a8.53 8.53 0 0 0-8.3 10.19c.81 4.36 4.17 7.08 8.78 7.08Zm-11.51 55.17h102.9a8.19 8.19 0 0 0 7.77-4.49c3.19-6-1-12.78-7.89-12.78H143.24a8.08 8.08 0 0 0-6.34 3.37 8.54 8.54 0 0 0-.75 9.29 8.11 8.11 0 0 0 7.81 4.6Zm49.86 11.28H212.1a8.5 8.5 0 0 0-8.55 10.45c.83 4.2 4.22 6.82 8.86 6.82h169.72a8.16 8.16 0 0 0 7.4-5.06 8.57 8.57 0 0 0-7.95-12.2Zm-116.53-38.62h83a8.59 8.59 0 0 0 8.27-11.59 8.41 8.41 0 0 0-8.31-5.67H96.35a8.24 8.24 0 0 0-7 4.6 8.6 8.6 0 0 0 7.85 12.65ZM239.83 379h57.08a8.51 8.51 0 1 0-.37-17H182.37a8.14 8.14 0 0 0-6.19 3.18 8.22 8.22 0 0 0-1 9 8 8 0 0 0 7.68 4.8q28.48.02 56.97.02Zm59.37-46.54h-51.44a8.44 8.44 0 0 0-8.23 10.28c.88 4.16 4.24 6.74 8.81 6.74h102.53a8.49 8.49 0 0 0 7-12.3 8 8 0 0 0-7.62-4.7q-25.51-.04-51.05-.01Zm-151.61-26.85h-40.48a8.52 8.52 0 1 0 .23 17h81.06a8.08 8.08 0 0 0 6.2-3.18 8.25 8.25 0 0 0 .95-9.13 8 8 0 0 0-7.62-4.7c-13.48-.01-26.93.01-40.34.01Zm-18.83-75.54a8.76 8.76 0 1 0-8.81 8.85 8.85 8.85 0 0 0 8.81-8.85Zm-56.49 19.41a8.88 8.88 0 1 0 8.73 8.91 8.82 8.82 0 0 0-8.73-8.91Zm56.49 36a8.76 8.76 0 1 0-8.83 8.83 8.85 8.85 0 0 0 8.83-8.81Zm-52.54 28.46a8.76 8.76 0 1 0 8.86-8.81 8.85 8.85 0 0 0-8.86 8.81Zm157.36 27a8.76 8.76 0 1 0-8.82 8.83 8.85 8.85 0 0 0 8.82-8.86Zm-64.76 29.5a8.76 8.76 0 1 0-8.82 8.84 8.85 8.85 0 0 0 8.82-8.87Z" class="bg"/><path fill="#776f85" d="M230.45.23a.94.94 0 0 0 .06-.15s0 0 0-.08h6.23a34.34 34.34 0 0 1-6.29.23ZM249.42 0a.75.75 0 0 0 0 .16s0 0 .06.07a34.34 34.34 0 0 1-6.3-.23Z" class="fg"/><path fill="#fff" d="M258.78 204.62h-93.43c-5.8 0-9.18-3.45-9.26-9.23-.13-9.42.34-18.79 2.63-28q12.81-51.14 61.28-72.11c14.94-6.44 30.7-8.63 46.9-7.44a103 103 0 0 1 92.19 78.57 97 97 0 0 1 2.53 30.93 8.1 8.1 0 0 1-2.62 4.8 8.42 8.42 0 0 1-5.45 2.46H352Zm-.37 34.3H144.12c-4.61 0-8-2.72-8.78-7.08a8.53 8.53 0 0 1 8.3-10.19h228.71c4.33 0 7.46 2 8.74 5.58a8.59 8.59 0 0 1-8.26 11.69Zm-11.51 55.17H144a8.11 8.11 0 0 1-7.81-4.6 8.54 8.54 0 0 1 .75-9.29 8.08 8.08 0 0 1 6.34-3.37h206.4c6.87 0 11.08 6.79 7.89 12.78a8.19 8.19 0 0 1-7.77 4.49H246.9Zm49.86 11.28h84.78a8.57 8.57 0 0 1 7.95 12.2 8.16 8.16 0 0 1-7.4 5.06H212.41c-4.64 0-8-2.62-8.86-6.82a8.5 8.5 0 0 1 8.55-10.45Zm-116.53-38.62h-83a8.6 8.6 0 0 1-7.85-12.65 8.24 8.24 0 0 1 7-4.6h166.84a8.41 8.41 0 0 1 8.31 5.67 8.59 8.59 0 0 1-8.27 11.59ZM239.83 379h-57a8 8 0 0 1-7.68-4.8 8.22 8.22 0 0 1 1-9 8.14 8.14 0 0 1 6.19-3.18h114.2a8.51 8.51 0 1 1 .37 17h-16.79Zm59.37-46.53h51.08a8 8 0 0 1 7.62 4.7 8.49 8.49 0 0 1-7 12.3H248.34c-4.57 0-7.93-2.58-8.81-6.74a8.44 8.44 0 0 1 8.23-10.28h22.78Zm-151.61-26.86h40.29a8 8 0 0 1 7.62 4.7 8.25 8.25 0 0 1-.95 9.13 8.08 8.08 0 0 1-6.2 3.18h-81.06a8.52 8.52 0 1 1-.23-17h34.89Zm-18.83-75.54a8.76 8.76 0 1 1-8.77-8.9 8.84 8.84 0 0 1 8.77 8.9Zm-56.49 19.41a8.88 8.88 0 1 1-8.76 8.89 8.84 8.84 0 0 1 8.76-8.89Zm56.49 36.02a8.76 8.76 0 1 1-8.75-8.92 8.83 8.83 0 0 1 8.75 8.92Zm-52.54 28.44a8.76 8.76 0 1 1 8.72 8.94 8.84 8.84 0 0 1-8.72-8.94Zm157.36 26.97a8.76 8.76 0 1 1-8.74-8.92 8.82 8.82 0 0 1 8.74 8.92Zm-64.76 29.5a8.76 8.76 0 1 1-8.76-8.91 8.84 8.84 0 0 1 8.76 8.91Z" class="fg"/></svg>