<svg xmlns="http://www.w3.org/2000/svg" viewBox="0 0 479.7 479.8"><defs><style>.cls-1{fill:#211438;}.cls-2{fill:#776f85;}.cls-3{fill:#fff;}</style></defs><g id="Layer_2" data-name="Layer 2"><g id="Layer_1-2" data-name="Layer 1"><path class="cls-1" d="M236.7,0h6.48a34.34,34.34,0,0,0,6.25.23,216.69,216.69,0,0,1,22.32,1.88,232.42,232.42,0,0,1,41,9.17A240.32,240.32,0,0,1,475.39,193.86a183.08,183.08,0,0,1,3.84,32.34c.07,1.14.14,2.28.22,3.43a22.45,22.45,0,0,0,.25,4v16.79c-.06.47-.14.94-.17,1.41a224.46,224.46,0,0,1-3.47,30.48c-11.55,61.17-42,110.91-91.34,148.72-39,29.9-83.48,45.72-132.56,48.41a236.47,236.47,0,0,1-52.2-3,231.32,231.32,0,0,1-56-16.68c-49.7-22.12-88-56.86-114.27-104.52C2.44,305.72-5.79,252.8,3.92,197.24c7.66-43.8,26.59-82.4,55.94-115.77A237.57,237.57,0,0,1,160,13.67,234.57,234.57,0,0,1,205.4,2.47a214.23,214.23,0,0,1,25-2.24A34.34,34.34,0,0,0,236.7,0Zm22.08,204.62H352c.52,0,1,0,1.55,0a8.42,8.42,0,0,0,5.45-2.46,8.1,8.1,0,0,0,2.62-4.8,97,97,0,0,0-2.53-30.93,103,103,0,0,0-92.19-78.57c-16.2-1.19-32,1-46.9,7.44q-48.4,20.86-61.26,72.15c-2.29,9.17-2.76,18.54-2.63,28,.08,5.78,3.46,9.23,9.26,9.23Zm-.37,34.3H372.83a8.59,8.59,0,0,0,8.26-11.69c-1.28-3.58-4.41-5.58-8.74-5.58H143.64a8.53,8.53,0,0,0-8.3,10.19c.81,4.36,4.17,7.08,8.78,7.08ZM246.9,294.09H349.8a8.19,8.19,0,0,0,7.77-4.49c3.19-6-1-12.78-7.89-12.78H144.24c-.32,0-.64,0-1,0a8.08,8.08,0,0,0-6.34,3.37,8.54,8.54,0,0,0-.75,9.29,8.11,8.11,0,0,0,7.81,4.6Zm49.86,11.28H212.1a8.5,8.5,0,0,0-8.55,10.45c.83,4.2,4.22,6.82,8.86,6.82H381.13c.32,0,.65,0,1,0a8.16,8.16,0,0,0,7.4-5.06,8.57,8.57,0,0,0-7.95-12.2ZM180.23,266.75h83a8.59,8.59,0,0,0,8.27-11.59,8.41,8.41,0,0,0-8.31-5.67h-166c-.28,0-.56,0-.84,0a8.24,8.24,0,0,0-7,4.6,8.6,8.6,0,0,0,7.85,12.65ZM239.83,379h40.29c5.6,0,11.19,0,16.79,0a8.51,8.51,0,1,0-.37-17H183.09c-.24,0-.48,0-.72,0a8.14,8.14,0,0,0-6.19,3.18,8.22,8.22,0,0,0-1,9,8,8,0,0,0,7.68,4.8Q211.34,379,239.83,379Zm59.37-46.54H270.54c-7.59,0-15.19,0-22.78,0a8.44,8.44,0,0,0-8.23,10.28c.88,4.16,4.24,6.74,8.81,6.74H349.79c.36,0,.72,0,1.08,0a8.49,8.49,0,0,0,7-12.3,8,8,0,0,0-7.62-4.7Q324.74,332.44,299.2,332.47ZM147.59,305.61H142c-11.63,0-23.26,0-34.89,0a8.52,8.52,0,1,0,.23,17h79.62c.48,0,1,0,1.44,0a8.08,8.08,0,0,0,6.2-3.18,8.25,8.25,0,0,0,.95-9.13,8,8,0,0,0-7.62-4.7C174.45,305.59,161,305.61,147.59,305.61Zm-18.83-75.54a8.76,8.76,0,1,0-8.81,8.85A8.85,8.85,0,0,0,128.76,230.07ZM72.27,249.48A8.88,8.88,0,1,0,81,258.39,8.82,8.82,0,0,0,72.27,249.48Zm56.49,36a8.76,8.76,0,1,0-8.83,8.83A8.85,8.85,0,0,0,128.76,285.5ZM76.22,313.94a8.76,8.76,0,1,0,8.86-8.81A8.85,8.85,0,0,0,76.22,313.94Zm157.36,27a8.76,8.76,0,1,0-8.82,8.83A8.85,8.85,0,0,0,233.58,340.91Zm-64.76,29.5a8.76,8.76,0,1,0-8.82,8.84A8.85,8.85,0,0,0,168.82,370.41Z"/><path class="cls-2" d="M230.45.23a.94.94,0,0,0,.06-.15s0,0,0-.08h6.23A34.34,34.34,0,0,1,230.45.23Z"/><path class="cls-2" d="M249.42,0a.75.75,0,0,0,0,.16s0,0,.06.07A34.34,34.34,0,0,1,243.18,0Z"/><path class="cls-3" d="M258.78,204.62H165.35c-5.8,0-9.18-3.45-9.26-9.23-.13-9.42.34-18.79,2.63-28Q171.53,116.25,220,95.28c14.94-6.44,30.7-8.63,46.9-7.44a103,103,0,0,1,92.19,78.57,97,97,0,0,1,2.53,30.93,8.1,8.1,0,0,1-2.62,4.8,8.42,8.42,0,0,1-5.45,2.46c-.51,0-1,0-1.55,0Z"/><path class="cls-3" d="M258.41,238.92H144.12c-4.61,0-8-2.72-8.78-7.08a8.53,8.53,0,0,1,8.3-10.19H372.35c4.33,0,7.46,2,8.74,5.58a8.59,8.59,0,0,1-8.26,11.69Z"/><path class="cls-3" d="M246.9,294.09H144a8.11,8.11,0,0,1-7.81-4.6,8.54,8.54,0,0,1,.75-9.29,8.08,8.08,0,0,1,6.34-3.37c.32,0,.64,0,1,0H349.68c6.87,0,11.08,6.79,7.89,12.78a8.19,8.19,0,0,1-7.77,4.49H246.9Z"/><path class="cls-3" d="M296.76,305.37h84.78a8.57,8.57,0,0,1,7.95,12.2,8.16,8.16,0,0,1-7.4,5.06c-.31,0-.64,0-1,0H212.41c-4.64,0-8-2.62-8.86-6.82a8.5,8.5,0,0,1,8.55-10.45Z"/><path class="cls-3" d="M180.23,266.75h-83a8.6,8.6,0,0,1-7.85-12.65,8.24,8.24,0,0,1,7-4.6c.28,0,.56,0,.84,0h166a8.41,8.41,0,0,1,8.31,5.67,8.59,8.59,0,0,1-8.27,11.59Z"/><path class="cls-3" d="M239.83,379q-28.49,0-57,0a8,8,0,0,1-7.68-4.8,8.22,8.22,0,0,1,1-9,8.14,8.14,0,0,1,6.19-3.18c.24,0,.48,0,.72,0H296.54a8.51,8.51,0,1,1,.37,17c-5.6,0-11.19,0-16.79,0Z"/><path class="cls-3" d="M299.2,332.47q25.55,0,51.08,0a8,8,0,0,1,7.62,4.7,8.49,8.49,0,0,1-7,12.3c-.36,0-.72,0-1.08,0H248.34c-4.57,0-7.93-2.58-8.81-6.74a8.44,8.44,0,0,1,8.23-10.28c7.59,0,15.19,0,22.78,0Z"/><path class="cls-3" d="M147.59,305.61c13.43,0,26.86,0,40.29,0a8,8,0,0,1,7.62,4.7,8.25,8.25,0,0,1-.95,9.13,8.08,8.08,0,0,1-6.2,3.18c-.47,0-1,0-1.44,0H107.29a8.52,8.52,0,1,1-.23-17c11.63,0,23.26,0,34.89,0Z"/><path class="cls-3" d="M128.76,230.07a8.76,8.76,0,1,1-8.77-8.9A8.84,8.84,0,0,1,128.76,230.07Z"/><path class="cls-3" d="M72.27,249.48a8.88,8.88,0,1,1-8.76,8.89A8.84,8.84,0,0,1,72.27,249.48Z"/><path class="cls-3" d="M128.76,285.5a8.76,8.76,0,1,1-8.75-8.92A8.83,8.83,0,0,1,128.76,285.5Z"/><path class="cls-3" d="M76.22,313.94a8.76,8.76,0,1,1,8.72,8.94A8.84,8.84,0,0,1,76.22,313.94Z"/><path class="cls-3" d="M233.58,340.91a8.76,8.76,0,1,1-8.74-8.92A8.82,8.82,0,0,1,233.58,340.91Z"/><path class="cls-3" d="M168.82,370.41a8.76,8.76,0,1,1-8.76-8.91A8.84,8.84,0,0,1,168.82,370.41Z"/></g></g></svg>