<svg width="24" height="25" viewBox="0 0 24 25" fill="none" xmlns="http://www.w3.org/2000/svg">
<path  class="bg" d="M21.9 18.583C21.904 18.046 23.952 18.069 23.938 17.567C23.928 17.18 23.021 17.189 23.306 16.37C23.726 15.15 23.954 13.84 23.954 12.477C23.954 5.862 18.59 0.5 11.977 0.5C5.362 0.5 0 5.862 0 12.477C-0.0013665 13.8325 0.227905 15.1784 0.678 16.457C0.848 17 0.002 17.213 0.002 17.537C0.002 18.045 1.784 17.977 1.784 18.567C1.784 19.083 0.023 19.241 0.023 19.761C0.023 20.478 3.924 20.228 3.973 20.845C4.012 21.322 2.633 21.35 2.624 21.859C2.611 22.671 7.949 22.405 7.949 22.946C7.949 23.355 5.521 23.207 5.521 23.69C5.521 24.173 8.717 24.48 12.239 24.48C15.761 24.48 18.192 24.088 18.192 23.664C18.192 23.241 15.924 23.329 15.971 22.946C16.053 22.279 21.085 22.62 21.085 21.849C21.085 21.442 19.701 21.347 19.745 20.909C19.809 20.289 23.954 20.382 23.954 19.739C23.954 19.234 21.901 19.109 21.903 18.585L21.9 18.583ZM18.69 17.027C18.58 17.436 19.842 17.497 19.842 17.924C19.842 18.443 15.994 18.236 16.032 18.923C16.056 19.355 18.766 19.428 18.714 19.88C18.64 20.534 14.518 20.208 14.477 20.834C14.447 21.294 16.489 21.309 16.493 21.728C16.497 22.081 14.889 22.273 11.813 22.273C8.306 22.273 6.603 22.084 6.796 21.69C6.977 21.322 10.081 21.39 10.05 20.811C10.018 20.233 4.538 20.404 4.372 19.843C4.235 19.377 6.173 19.281 6.161 18.838C6.148 18.387 3.678 18.489 3.624 17.943C3.589 17.583 4.915 17.607 4.858 17.155C4.816 16.827 4.268 16.873 3.944 16.195C3.31942 14.8467 3.04448 13.3627 3.14454 11.8802C3.24461 10.3976 3.71647 8.96405 4.51657 7.71187C5.31668 6.4597 6.41926 5.42921 7.7226 4.71547C9.02593 4.00173 10.488 3.62774 11.974 3.628C13.4307 3.62764 14.865 3.98696 16.1495 4.67404C17.434 5.36112 18.529 6.35472 19.3372 7.56663C20.1455 8.77853 20.642 10.1713 20.7828 11.6212C20.9235 13.071 20.7041 14.5333 20.144 15.878C19.729 16.82 18.794 16.631 18.687 17.028H18.689L18.69 17.027Z" fill="white"/>
</svg>
