<?xml version="1.0" encoding="UTF-8"?><svg id="Layer_2" xmlns="http://www.w3.org/2000/svg" viewBox="0 0 1437.83 1437.48"><g id="Layer_2-2"><g><path d="M0,718.42c.41-57.35,6.98-113.91,20.49-169.64,11.75-48.5,28.4-95.25,49.94-140.28,20.63-43.13,45.35-83.77,74.08-121.97,17.12-22.77,35.56-44.43,55.27-65.01,34.73-36.28,72.8-68.61,114.28-96.94,25.25-17.25,51.48-32.83,78.71-46.73,30.52-15.58,61.99-28.88,94.41-39.97,33.79-11.55,68.27-20.45,103.39-26.81,19.82-3.59,39.77-6.3,59.83-8.17C669.04,1.18,687.68-.06,706.4,0c15.19,.05,30.38-.07,45.55,.41,11.65,.37,23.29,1.36,34.9,2.45,11.45,1.08,22.87,2.52,34.28,4,16.81,2.17,33.46,5.28,50.03,8.84,39.62,8.52,78.25,20.31,115.86,35.43,55.16,22.17,106.76,50.77,154.83,85.75,26.68,19.41,51.93,40.51,75.67,63.42,27.08,26.14,52.11,54.11,74.84,84.14,24.47,32.33,46.13,66.44,64.87,102.39,18.22,34.95,33.42,71.18,45.63,108.66,8.73,26.78,15.83,53.99,21.36,81.61,3.99,19.92,7.13,39.98,9.37,60.16,2.58,23.21,4.04,46.49,4.18,69.86,.09,15.67,.14,31.34-.56,46.98-1.85,41.14-7.39,81.8-16.36,122-11.64,52.18-28.94,102.42-51.86,150.7-27.59,58.11-62.4,111.56-104.34,160.34-41.51,48.28-88.58,90.35-141.21,126.2-52.63,35.84-109.01,64.2-169.19,85-31.16,10.77-62.91,19.34-95.27,25.69-19.77,3.88-39.66,6.96-59.68,9.2-15.25,1.71-30.55,2.82-45.89,3.58-17.1,.85-34.2,.73-51.3,.55-14.24-.15-28.43-1.05-42.61-2.19-15.29-1.23-30.53-3.04-45.72-5.25-23.58-3.44-46.94-8.03-70.04-13.84-48.68-12.25-95.57-29.39-140.65-51.51-57.18-28.05-109.7-63.07-157.59-105.03-49.23-43.14-91.8-92.1-127.74-146.82-13.79-21-26.43-42.68-37.94-65.01-25.62-49.68-45.12-101.66-58.54-155.92-10.86-43.9-17.51-88.43-19.85-133.6-.69-13.24-.97-26.51-1.44-39.77Zm574.93-197.95c-7.02,.4-14.03,.82-21.05,1.19-12.96,.68-25.7,2.81-38.28,5.92-16.06,3.97-31.35,9.87-45.69,18.19-24.35,14.13-43.28,33.66-57.62,57.75-12.36,20.77-20.68,43.17-26.31,66.6-6.94,28.88-13.36,57.87-18.81,87.07-2.82,15.1-4.55,30.3-3.31,45.74,.55,6.87,1.46,13.66,3.08,20.34,4.07,16.78,11.76,31.65,23.55,44.38,10.16,10.97,22.32,19.1,35.64,25.56,20.7,10.05,42.78,14.89,65.63,16.37,8.43,.55,16.88,.79,25.37,.56,16.35-.45,32.53-2.02,48.52-5.39,15.55-3.28,30.48-8.39,44.66-15.61,21.81-11.11,39.52-26.95,53.86-46.66,13.49-18.53,22.99-39.06,30.03-60.78,6.16-19.01,10.39-38.53,14.46-58.07,3.61-17.35,6.88-34.78,9.99-52.23,2.39-13.38,3.83-26.86,2.69-40.53-.62-7.51-1.63-14.93-3.56-22.2-6.97-26.15-22.13-46.5-44.24-61.77-12.34-8.53-26.07-14.18-40.38-18.45-18.98-5.66-38.43-7.89-58.21-7.99Zm286.04,253.33c2.04-.73,3.97-.44,5.86-.46,25.41-.25,50.82,.45,76.23-.42,9.43-.32,18.81-.95,28.17-2.22,13.82-1.87,27.34-4.92,40.42-9.77,32.66-12.09,56.91-33.58,72.46-64.83,7.6-15.28,12.69-31.37,16.01-48.06,2.38-11.98,3.26-24.02,2.01-36.23-2.52-24.62-13.55-44.31-33.58-58.9-11.61-8.46-24.43-14.46-38.13-18.67-18.95-5.81-38.42-8.06-58.15-8.11-47.48-.13-94.95-.04-142.43-.04-1.44,0-2.88-.04-4.31,.05-8.5,.55-14.68,5.87-16.46,14.19-2.27,10.62-4.5,21.25-6.76,31.88-5.63,26.57-11.26,53.14-16.9,79.7-4.25,20-8.53,39.99-12.78,60-5.63,26.56-11.22,53.14-16.86,79.7-6.5,30.62-13.05,61.24-19.56,91.86-.6,2.81-1.34,5.61-1.66,8.46-.82,7.32,2.71,12.43,10.59,12.88,.48,.03,.96,.01,1.44,.01,23.98,0,47.96,.03,71.93-.01,9.19-.02,15.75-5.42,17.67-14.45,3.25-15.31,6.44-30.63,9.66-45.94,4.76-22.66,9.53-45.32,14.31-67.97,.19-.91,.53-1.79,.8-2.66Z"/><path d="M569.35,599.5c6.54-.12,13.37,.45,20.04,2.33,3.86,1.09,7.55,2.59,11.02,4.62,9.56,5.61,14.99,14.22,17.5,24.73,1.71,7.16,2.27,14.47,1.87,21.89-.62,11.22-2.78,22.19-4.85,33.17-4.62,24.49-10.11,48.79-16.07,72.98-3.38,13.73-8.22,26.91-16.34,38.65-13.19,19.07-31.23,30.26-54.35,33.05-10.9,1.31-21.71,.92-32.32-2.11-9.92-2.83-17.91-8.33-23.25-17.32-2.89-4.87-4.66-10.16-5.58-15.72-1.77-10.67-1.56-21.4,.33-31.98,5.07-28.3,10.87-56.45,17.98-84.32,2.44-9.59,4.86-19.21,8.7-28.38,3.67-8.74,8.11-17.02,14.14-24.38,11.52-14.07,26.41-22.38,44.14-25.86,5.51-1.08,11.09-1.41,17.06-1.34Z"/><path d="M875.71,697.43c6.71-32.06,13.44-63.55,20.17-95.16,1.61-.12,2.86-.3,4.11-.3,20.77-.02,41.55-.1,62.32,.04,6.06,.04,12.1,.74,17.95,2.57,11.18,3.51,18.08,11.02,19.38,22.59,2.18,19.49-2.44,37.26-16.13,51.82-8.65,9.19-19.55,14.78-31.95,17.33-4.55,.94-9.17,1.37-13.8,1.38-19.17,.03-38.35,.02-57.52,0-1.25,0-2.51-.14-4.51-.27Z"/></g></g></svg>