<svg width="16" height="16" viewBox="0 0 16 16" fill="none" xmlns="http://www.w3.org/2000/svg">
<rect width="16" height="16" rx="3" fill="#FF0420"/>
<path d="M8.00001 12.0733V15.0623C4.92541 15.0623 2.43225 12.5691 2.43225 9.49453C2.43225 6.41994 4.92541 3.92678 8.00001 3.92678V0.937744C11.0746 0.937744 13.5678 3.43094 13.5678 6.5055C13.5678 9.58009 11.0746 12.0733 8.00001 12.0733Z" fill="white"/>
<path d="M8 0C3.58213 0 0 3.58212 0 8C0 12.4179 3.58213 16 8 16C12.4179 16 16 12.4179 16 8C16 3.58212 12.4179 0 8 0ZM8 12.0733V15.0623C4.92541 15.0623 2.43225 12.5691 2.43225 9.49452C2.43225 6.41992 4.92541 3.92676 8 3.92676V0.937728C11.0746 0.937728 13.5678 3.43092 13.5678 6.50548C13.5678 9.58008 11.0746 12.0733 8 12.0733ZM10.7546 7.9742V8.0258C9.5402 8.63064 8.6306 9.5402 8.0258 10.7546H7.9742C7.36936 9.5402 6.45976 8.63064 5.24541 8.0258V7.9742C6.45976 7.36936 7.36936 6.4598 7.9742 5.24544H8.0258C8.6306 6.4598 9.5402 7.36936 10.7546 7.9742Z" fill="#FF0420"/>
</svg>
