<svg xmlns="http://www.w3.org/2000/svg" fill="none" viewBox="0 0 240 240">
    <rect class="bg" width="240" height="240" fill="#162f29" rx="120"/>
    <path class="fg" fill="#fff" d="M211.875 120.492q0 1.397-.04 2.795h-44.687v-2.036h-43.009c0-.426.013-.852.013-1.264s0-.852-.013-1.265h43.009V116.7h44.647q.08 1.896.08 3.792m-88.495-9.168 42.092-5.177.253 2.023 44.447-5.47a93 93 0 0 0-1.504-6.454l-43.755 5.39.253 2.022-42.292 5.204c.187.825.36 1.65.506 2.488zm-2.196-8.145 40.229-10.047.492 1.97 42.691-10.66a97 97 0 0 0-2.835-6.081l-41.439 10.353.492 1.97-40.561 10.14c.333.785.639 1.57.931 2.369zm-3.566-7.625 37.607-14.199.719 1.903 39.789-15.024a87 87 0 0 0-4.085-5.51l-38.033 14.36.718 1.902-38.059 14.372c.466.719.918 1.45 1.344 2.196m-4.937-7.053 33.215-17.313.932 1.81 36.729-19.15a93 93 0 0 0-5.257-4.697l-34.519 17.992.931 1.81-33.774 17.605c.585.639 1.171 1.278 1.73 1.943zm-8.011-7.612 30.075-19.123 1.091 1.717 33.189-21.106a91 91 0 0 0-6.414-3.726l-30.302 19.27 1.092 1.716-30.94 19.669c.758.505 1.49 1.038 2.222 1.583zm-7.106-4.444 25.204-20.667 1.291 1.57 28.385-23.288a92 92 0 0 0-7.386-2.462L119.88 52.252l1.291 1.57-26.123 21.425q1.277.56 2.516 1.198m-9.409-3.66 19.908-19.815 1.424 1.437 25.298-25.138a95 95 0 0 0-8.344-.998l-21.572 21.465 1.424 1.438-21.026 20.919c.972.2 1.93.426 2.888.692M77.15 71.122l15.876-19.243 1.57 1.29 20.667-25.044a93 93 0 0 0-9.289.905L89.513 48.978l1.57 1.29-17.193 20.84c.479-.013.97-.026 1.45-.026.612 0 1.211 0 1.81.026zm-9.515.572 12.23-18.924 1.703 1.105 14.785-22.889a92 92 0 0 0-9.901 3.18L76.045 50.283l1.704 1.105L64.202 72.36a49 49 0 0 1 3.433-.678zm-10.566 2.94 8.796-16.487 1.783.958 11.644-21.811a92 92 0 0 0-10.765 6.175l-6.694 12.535 1.796.958-10.353 19.403a46 46 0 0 1 3.78-1.717zm-7.586 3.873 3.74-10.62 1.916.68 7.266-20.627a94 94 0 0 0-10.353 9.568l-3.127 8.876 1.916.679-4.897 13.893a49 49 0 0 1 3.526-2.436zm-9.328 7.599 1.65-7.719 1.983.426 3.327-15.543a93 93 0 0 0-9.249 14.266l1.477.32L36.31 90.63a48 48 0 0 1 3.846-4.524m-6.853 9.022v-10.22c-2.476 6.534-4.232 14.665-5.177 22.636a48.7 48.7 0 0 1 5.177-12.416m-5.11 37.567a91.8 91.8 0 0 0 5.043 19.602v-7.545a48.8 48.8 0 0 1-5.043-12.057m8.437 17.1 2.648 12.35-1.477.319a92 92 0 0 0 9.248 14.266l-3.327-15.543-1.982.426-1.677-7.812a47 47 0 0 1-3.433-4.019zm9.222 9.183 4.923 13.973-1.916.678 3.127 8.876a94 94 0 0 0 10.354 9.568l-7.266-20.626-1.917.678-3.752-10.672a54 54 0 0 1-3.54-2.449zm7.345 4.617 10.38 19.456-1.796.958 6.693 12.536a92 92 0 0 0 10.766 6.174l-11.644-21.811-1.796.959-8.823-16.528a49 49 0 0 1-3.793-1.73zm10.926 4.019 13.56 20.999-1.703 1.105 10.406 16.115a92 92 0 0 0 9.901 3.181l-14.785-22.889-1.703 1.104-12.243-18.949a50 50 0 0 1-3.447-.679zm9.688 1.278 17.193 20.839-1.57 1.291 16.461 19.948c3.047.453 6.148.759 9.289.905l-20.667-25.058-1.57 1.291-15.876-19.243c-.572.027-1.158.027-1.743.027-.506 0-1.025 0-1.53-.027zm11.404-.985 21.013 20.906-1.424 1.437 21.571 21.465a95 95 0 0 0 8.344-.998l-25.284-25.151-1.437 1.451-19.895-19.802c-.945.253-1.916.492-2.888.692m9.795-3.127 26.096 21.412-1.291 1.57 25.177 20.653a93 93 0 0 0 7.386-2.462l-28.398-23.288-1.291 1.57-25.178-20.653q-1.237.639-2.515 1.198zm7.398-4.072 30.9 19.655-1.091 1.716 30.301 19.27a93 93 0 0 0 6.415-3.726l-33.189-21.106-1.091 1.717-30.035-19.097a52 52 0 0 1-2.223 1.584zm8.517-7.24 33.735 17.58-.932 1.809 34.52 17.992a93 93 0 0 0 5.256-4.697l-36.728-19.15-.932 1.81-33.175-17.287a40 40 0 0 1-1.73 1.943zm5.337-6.813 38.006 14.359-.719 1.903 38.033 14.358a98 98 0 0 0 4.085-5.509l-39.789-15.024-.719 1.903-37.553-14.186a47 47 0 0 1-1.344 2.196m3.979-7.452 40.494 10.113-.492 1.97 41.439 10.353a90 90 0 0 0 2.848-6.081l-42.69-10.66-.493 1.97-40.175-10.034a75 75 0 0 1-.931 2.369m2.634-8.038 42.225 5.19-.253 2.023 43.755 5.389a96 96 0 0 0 1.504-6.454l-44.447-5.469-.253 2.022-42.025-5.176a50 50 0 0 1-.506 2.488z"/>
</svg>