<svg xmlns="http://www.w3.org/2000/svg" viewBox="0 0 564.33 564.14"><defs><style>.cls-1{fill:#8247e4;}.cls-2{fill:#fdfdfe;}</style></defs><g id="Layer_2" data-name="Layer 2"><g id="Layer_1-2" data-name="Layer 1"><path class="cls-1" d="M303.77,564.14H259.84a24.14,24.14,0,0,0-3.57-1.11c-10.67-1.67-21.44-2.81-32-5C73.9,527.39-25.22,377.2,5.63,227,38.15,68.75,192.74-29.7,349.45,8.07c111.39,26.85,196.3,120.78,212.09,234.59.83,6,1.85,12,2.79,18v43.93c-1.09,7-2.15,13.93-3.26,20.89C541.3,449,445.73,543,321.22,561.43,315.39,562.29,309.58,563.23,303.77,564.14ZM260,236.19c13.81-8,26.54-15.48,39.4-22.72,2.75-1.54,3.53-3.37,3.48-6.35-.16-9.82-.5-19.66,0-29.45.79-14.16-5.52-23.52-17.49-30.4-27.38-15.75-54.41-32.12-81.81-47.83-10.91-6.25-22.67-6.22-33.59,0-29.56,17-58.89,34.32-88.31,51.54-8.6,5-13,12.41-13,22.54.09,33.78.34,67.56-.11,101.33-.18,13.42,5.47,22.33,16.72,28.78q42.2,24.19,84.12,48.82c11.07,6.53,21.59,6.29,32.48-.05q80.18-46.67,160.41-93.24c10.21-5.95,20.25-5.53,30.24.22,14.85,8.54,29.59,17.25,44.45,25.77,9.85,5.65,14.67,14,14.63,25.37-.06,17.47-.16,34.95,0,52.41.12,11.8-4.87,20.35-14.95,26.27-14.05,8.25-28.1,16.51-42,25.06-10.93,6.73-21.62,6.43-32.47.11-13.36-7.79-26.47-16-40.15-23.22C309,384.26,303.19,374,303.93,359.27c.48-9.73.09-19.51.09-29.71a17.65,17.65,0,0,0-2.43.83c-12.53,7.22-25.11,14.36-37.49,21.84-1.52.92-2.65,3.69-2.71,5.63-.26,10.14,0,20.3-.16,30.45-.22,12.17,5.1,21,15.5,27q43.8,25.4,87.59,50.77c1.7,1,3.63,2.13,5.49,2.19,9.91.37,19.39.46,28.73-5.24,26.95-16.46,54.49-32,81.83-47.78,10.09-5.83,15.19-14.16,15.11-26.08q-.36-51.68,0-103.33c.07-11.78-5.15-20-15-25.68-28.46-16.55-57-32.88-85.37-49.65-11.61-6.88-22.5-6.3-33.82.34Q280.87,258,200.29,305c-9.86,5.76-19.75,5.36-29.35-.29-15.48-9.1-30.79-18.48-46.14-27.81-7.73-4.7-12.84-11.52-13-20.63-.44-19.94-.41-39.89-.15-59.84.12-9.73,5.24-17.07,13.48-22,15.29-9.09,30.73-17.94,46.11-26.87,10.22-5.93,20.39-5.22,30.28.66,14.72,8.75,29.24,17.83,44,26.56,10,5.88,14.84,14.27,14.64,25.88C259.88,212.1,260,223.55,260,236.19Z"/><path class="cls-2" d="M260,236.19c0-12.64-.16-24.09,0-35.53.2-11.61-4.69-20-14.64-25.88-14.74-8.73-29.26-17.81-44-26.56-9.89-5.88-20.06-6.59-30.28-.66-15.38,8.93-30.82,17.78-46.11,26.87-8.24,4.89-13.36,12.23-13.48,22-.26,20-.29,39.9.15,59.84.21,9.11,5.32,15.93,13,20.63,15.35,9.33,30.66,18.71,46.14,27.81,9.6,5.65,19.49,6.05,29.35.29q80.52-47,161-94.08c11.32-6.64,22.21-7.22,33.82-.34,28.32,16.77,56.91,33.1,85.37,49.65,9.81,5.71,15,13.9,15,25.68q-.35,51.66,0,103.33c.08,11.92-5,20.25-15.11,26.08C453,431.1,425.49,446.6,398.54,463.06c-9.34,5.7-18.82,5.61-28.73,5.24-1.86-.06-3.79-1.2-5.49-2.19q-43.81-25.33-87.59-50.77c-10.4-6-15.72-14.86-15.5-27,.18-10.15-.1-20.31.16-30.45.06-1.94,1.19-4.71,2.71-5.63,12.38-7.48,25-14.62,37.49-21.84a17.65,17.65,0,0,1,2.43-.83c0,10.2.39,20-.09,29.71-.74,14.75,5.09,25,18.31,31.92,13.68,7.18,26.79,15.43,40.15,23.22,10.85,6.32,21.54,6.62,32.47-.11,13.87-8.55,27.92-16.81,42-25.06,10.08-5.92,15.07-14.47,14.95-26.27-.2-17.46-.1-34.94,0-52.41,0-11.33-4.78-19.72-14.63-25.37-14.86-8.52-29.6-17.23-44.45-25.77-10-5.75-20-6.17-30.24-.22Q282.25,305.87,202,352.44c-10.89,6.34-21.41,6.58-32.48.05q-41.86-24.72-84.12-48.82c-11.25-6.45-16.9-15.36-16.72-28.78.45-33.77.2-67.55.11-101.33,0-10.13,4.36-17.51,13-22.54,29.42-17.22,58.75-34.58,88.31-51.54,10.92-6.26,22.68-6.29,33.59,0,27.4,15.71,54.43,32.08,81.81,47.83,12,6.88,18.28,16.24,17.49,30.4-.54,9.79-.2,19.63,0,29.45.05,3-.73,4.81-3.48,6.35C286.58,220.71,273.85,228.2,260,236.19Z"/></g></g></svg>