<svg xmlns="http://www.w3.org/2000/svg" viewBox="0 0 1077.36 942"><g id="Layer_2" data-name="Layer 2"><g id="Layer_1-2" data-name="Layer 1"><path d="M323.14,0q28,16.29,56.11,32.57c18.37,10.67,36.76,21.3,55.07,32.07C454,76.21,473.58,88,493.27,99.53s39.76,23.2,59.65,34.79c15.87,9.26,28.35,21.62,34.35,39.35,2,6,3.67,12.41,3.74,18.66.37,31.82.1,63.65.27,95.48,0,3.66-1.31,5.53-4.28,7.22q-30.43,17.36-60.72,35c-13.55,7.86-27,15.86-40.54,23.76a13,13,0,0,1-2.58.81V290.8c0-9.66-.1-19.33,0-29,.25-20-7.14-37-21.49-50.45-6.68-6.26-15.21-10.62-23.11-15.51q-27-16.74-54.28-33.15c-18.14-11-35.93-22.67-54.65-32.57-24.08-12.73-48.45-12.47-72.33,2-19.56,11.82-39.53,22.95-59.27,34.47-17.05,9.94-34.11,19.9-51,30.06-6.28,3.77-12.92,7.4-18.12,12.41-10,9.67-17.56,21.29-19.67,35.37a193,193,0,0,0-2,27.59q-.31,61.74,0,123.48c.08,11.62,2.06,23,7.41,33.71,6.57,13.1,16.49,22.6,28.95,30,24.93,14.89,49.66,30.13,74.49,45.21,14.38,8.73,28.27,18.46,43.28,25.93,25.55,12.72,50.78,11.84,75.42-4.21,19.31-12.58,39.54-23.76,59.33-35.61,13.46-8,26.85-16.24,40.33-24.28,17.1-10.22,34.11-20.6,51.42-30.45,26.55-15.11,53.38-29.73,80-44.75Q605.56,369.73,643,348c24.68-14.4,49.11-29.21,73.68-43.78,10.12-6,20.21-12,30.54-17.64,9.57-5.19,19.9-7.67,30.85-8.72,17-1.63,31.64,4.13,45.78,12.45,15.91,9.35,31.9,18.56,47.83,27.86,22,12.86,43.91,25.81,65.94,38.6,21.86,12.69,43.91,25.07,65.7,37.91,16.73,9.85,33.87,19.23,49.54,30.6,14.85,10.76,24.09,26.54,24.17,45.23q.65,141.46,0,282.95c0,12.53-6.07,23.41-13.34,33.56-8.56,11.94-21.2,18.28-33.33,25.38q-36.35,21.25-72.73,42.45c-24.3,14.09-48.72,28-73,42.09-21,12.2-41.88,24.67-63,36.79-5.59,3.21-11.67,5.56-17.53,8.3h-46c-10.6-6-21.24-11.9-31.79-18-15.7-9-31.32-18.2-47-27.28-13.71-7.93-27.45-15.8-41.16-23.73Q612.6,858.16,587,843.25c-14-8.1-28.08-16-41.93-24.34-12.16-7.31-24.9-14-35.82-22.91-12-9.78-19.4-23.37-21.89-39a90.57,90.57,0,0,1-1.1-13.77c-.09-28.66,0-57.33-.14-86,0-4,1.1-6.2,4.61-8.2,22.42-12.8,44.67-25.9,67-38.81,11.82-6.83,23.75-13.5,36.22-20.57.11,2.33.25,4.07.25,5.82,0,28.66-.63,57.34.12,86,.68,26.48,13.44,46.35,36.55,59.52q23.4,13.34,46.67,26.88c15.39,8.94,30.72,18,46.1,26.93,6.77,3.94,13.6,7.78,20.42,11.63,26.38,14.9,52.42,15,78.51-1.11,23.21-14.28,46.76-28,70.13-42,15.54-9.33,31.44-18.13,46.4-28.32,15.9-10.82,25-26.49,27.14-45.81a167.58,167.58,0,0,0,1-17.78c.08-44.17.53-88.34-.15-132.49-.4-26.42-13-46.43-36.17-59.62-15.89-9.06-31.64-18.36-47.47-27.53-17.23-10-34.4-20.06-51.75-29.82-9.64-5.42-19.18-11.42-29.5-15.12-20.52-7.38-40.48-5.59-59.64,6C719.07,427,695,440.21,671.32,454c-23.29,13.54-46.45,27.33-69.75,40.86-24.3,14.12-48.75,28-73.07,42.1-25.7,14.9-51.28,30-77,44.93-26,15.07-52,30-78,45.05-14.4,8.35-28.56,17.13-43.14,25.13A73.81,73.81,0,0,1,300.09,661c-17.45,1.28-32.67-4.2-47.3-13.49C237,637.47,220.24,628.79,204,619.38c-15.53-9-30.93-18.22-46.45-27.24-17.07-9.92-34.27-19.65-51.33-29.59-25.1-14.64-50.35-29-75.13-44.21C13.81,507.77,4.14,491.51.17,471.81a25.91,25.91,0,0,1-.09-5q0-137.24.07-274.48c0-19.88,9-36,25-47.12,13.49-9.38,28.22-17,42.43-25.35,14.36-8.42,28.79-16.75,43.16-25.15Q137,79.39,163.15,64c24.19-14.25,48.27-28.68,72.54-42.78C248.34,13.86,261.31,7.05,274.13,0Z"/></g></g></svg>