<svg xmlns="http://www.w3.org/2000/svg" xml:space="preserve" fill-rule="evenodd" stroke-linejoin="round" stroke-miterlimit="2" clip-rule="evenodd" viewBox="0 0 490 490"><circle cx="245" cy="245" r="245" fill="#f5f0fd" class="bg"/><path class="fg" fill="url(#a)" fill-rule="nonzero" d="m315.83 297.852 69.29-40.01c3.67-2.12 5.94-6.06 5.94-10.3v-80.01c0-4.23-2.28-8.18-5.94-10.3l-69.29-40.01c-3.67-2.12-8.22-2.11-11.89 0l-69.29 40.01c-3.67 2.12-5.94 6.07-5.94 10.3v142.99l-48.59 28.05-48.59-28.05v-56.11l48.59-28.05 32.05 18.5v-37.64l-26.11-15.07c-1.8-1.04-3.86-1.59-5.95-1.59-2.09 0-4.15.55-5.94 1.59l-69.29 40.01c-3.67 2.12-5.94 6.06-5.94 10.3v80.01c0 4.23 2.28 8.18 5.94 10.3l69.29 40.01c3.66 2.11 8.22 2.11 11.89 0l69.29-40c3.67-2.12 5.94-6.07 5.94-10.3v-142.99l.88-.5 47.71-27.55 48.59 28.05v56.11l-48.59 28.05-32-18.48v37.64l26.06 15.05c3.67 2.11 8.22 2.11 11.89 0v-.01Z"/><defs><linearGradient id="a" x1="0" x2="1" y1="0" y2="0" gradientTransform="matrix(251.08 -183.08 183.08 251.08 123.76 333.402)" gradientUnits="userSpaceOnUse"><stop offset="0" stop-color="#a726c1"/><stop offset=".88" stop-color="#803bdf"/><stop offset="1" stop-color="#7b3fe4"/></linearGradient></defs></svg>