<svg xmlns="http://www.w3.org/2000/svg" width="46" height="46" fill="none"><circle cx="23" cy="23" r="23" fill="#fff" class="bg"/><path fill="#1C122C" d="M16.943 5.889a3.69 3.69 0 0 0-2.706 1.18 9.52 9.52 0 0 1-6.981 3.042H5.059A22.15 22.15 0 0 1 23 1a22.15 22.15 0 0 1 17.94 9.11h-1.896a9.96 9.96 0 0 1-7.116-2.983 4.13 4.13 0 0 0-2.95-1.238zm26.595 8.889h-6.73a4.13 4.13 0 0 1-2.95-1.238 9.96 9.96 0 0 0-7.116-2.984H19.18a9.52 9.52 0 0 0-6.983 3.042 3.7 3.7 0 0 1-2.706 1.18H2.463A21.8 21.8 0 0 0 1 20.555h8.491a9.52 9.52 0 0 0 6.983-3.043 3.7 3.7 0 0 1 2.706-1.179h7.562a4.13 4.13 0 0 1 2.95 1.238 9.96 9.96 0 0 0 7.116 2.984H45a21.8 21.8 0 0 0-1.462-5.777M45 25.445h-8.192a9.96 9.96 0 0 0-7.115 2.984 4.13 4.13 0 0 1-2.951 1.238H19.18a3.69 3.69 0 0 1-2.706-1.18 9.52 9.52 0 0 0-6.983-3.042H1c.22 1.984.712 3.928 1.463 5.777H9.49c1.028 0 2.01.428 2.706 1.18a9.52 9.52 0 0 0 6.983 3.042h7.562a9.96 9.96 0 0 0 7.116-2.984 4.13 4.13 0 0 1 2.95-1.238h6.73A21.8 21.8 0 0 0 45 25.445m-4.06 10.444h-1.896a9.96 9.96 0 0 0-7.116 2.984 4.13 4.13 0 0 1-2.95 1.238H16.943a3.69 3.69 0 0 1-2.706-1.18 9.52 9.52 0 0 0-6.981-3.042H5.059A22.15 22.15 0 0 0 23 45a22.15 22.15 0 0 0 17.94-9.11M23 27.222c2.346 0 4.249-1.89 4.249-4.222s-1.903-4.222-4.249-4.222-4.248 1.89-4.248 4.222 1.902 4.222 4.248 4.222" class="fg"/></svg>