<svg width="32" height="32" viewBox="0 0 32 32" fill="none" xmlns="http://www.w3.org/2000/svg">
<circle class="bg" cx="16" cy="16" r="16" fill="black"/>
<path class="fg" d="M16 10C18.2091 10 20 8.43299 20 6.5C20 4.56701 18.2091 3 16 3C13.7908 3 12 4.56701 12 6.5C12 8.43299 13.7908 10 16 10Z" fill="#FF9100"/>
<path class="fg" d="M26.1737 17.7647C24.4259 16.7955 22.1883 17.3693 21.182 19.0527C20.8378 19.6265 20.6789 20.2643 20.6921 20.8892C20.7318 22.4451 19.2754 23.2484 17.8983 22.445C17.8454 22.4195 17.7924 22.3813 17.7262 22.3557C16.336 21.6033 16.336 20.0093 17.7262 19.2696C18.8649 18.6702 19.6461 17.5097 19.6461 16.1706C19.6461 16.1451 19.6461 16.1196 19.6461 16.0941C19.6064 14.5382 21.0628 13.7348 22.4399 14.5382C23.5388 15.1887 24.9689 15.2397 26.1604 14.5765C27.9082 13.6073 28.5041 11.452 27.4978 9.76857C26.4915 8.08517 24.2538 7.51129 22.506 8.48052C21.3145 9.14367 20.6524 10.368 20.6789 11.605C20.7186 13.1609 19.2621 13.9644 17.8983 13.1609C17.3423 12.8293 16.6934 12.638 15.9917 12.638C15.2899 12.638 14.6411 12.8293 14.085 13.1481C12.7081 13.9388 11.2648 13.1354 11.3046 11.5922C11.331 10.3425 10.669 9.13092 9.47735 8.46776C7.72959 7.49854 5.49193 8.08517 4.48565 9.76857C3.47936 11.452 4.08843 13.6073 5.83619 14.5765C7.02784 15.2397 8.45783 15.1758 9.5568 14.5382C10.9338 13.7348 12.377 14.5382 12.3373 16.0941C12.3373 16.1196 12.3373 16.1451 12.3373 16.1706C12.3373 17.5097 13.1053 18.6702 14.2572 19.2696C15.6474 20.022 15.6474 21.616 14.2572 22.3557C14.2042 22.3813 14.1512 22.4195 14.0983 22.445C12.7213 23.2357 11.2781 22.4323 11.3178 20.8892C11.331 20.2643 11.1721 19.6266 10.8279 19.04C9.82161 17.3566 7.58394 16.7828 5.83619 17.752C4.08843 18.7467 3.4926 20.9018 4.49889 22.5853C5.50517 24.2687 7.74284 24.8426 9.49059 23.8734C9.51707 23.8607 9.53031 23.8478 9.5568 23.835C10.9338 23.0316 12.377 23.835 12.3373 25.3909C12.3373 25.4164 12.3373 25.4419 12.3373 25.4802C12.3373 27.4186 13.9791 29 15.9917 29C18.0043 29 19.6461 27.4186 19.6461 25.4802C19.6461 25.4547 19.6461 25.4292 19.6461 25.4037C19.6064 23.8478 21.0628 23.0444 22.4399 23.8478C22.4663 23.8606 22.4928 23.8734 22.5193 23.899C24.2671 24.8681 26.5047 24.2943 27.511 22.6108C28.5173 20.8892 27.9215 18.734 26.1737 17.7647Z" fill="#FF9100"/>
</svg>
