<svg width="32" height="32" viewBox="0 0 32 32" fill="none" xmlns="http://www.w3.org/2000/svg">
<circle class="bg" cx="16" cy="16" r="16" fill="black"/>
<path class="fg" d="M16.0164 10.6481C17.8664 10.6481 19.3662 9.15985 19.3662 7.32404C19.3662 5.48823 17.8664 4 16.0164 4C14.1663 4 12.6665 5.48823 12.6665 7.32404C12.6665 9.15985 14.1663 10.6481 16.0164 10.6481Z" fill="#FF9100"/>
<path class="fg" d="M25.3259 17.5971C23.7238 16.6817 21.6726 17.2236 20.7502 18.8134C20.4346 19.3553 20.289 19.9576 20.3011 20.5477C20.3375 22.0171 19.0024 22.7757 17.7401 22.017C17.6916 21.9929 17.6431 21.9568 17.5824 21.9327C16.308 21.2221 16.308 19.7168 17.5824 19.0182C18.6262 18.4522 19.3423 17.3562 19.3423 16.0916C19.3423 16.0675 19.3423 16.0434 19.3423 16.0194C19.3058 14.55 20.6409 13.7913 21.9032 14.55C22.9106 15.1643 24.2214 15.2125 25.3137 14.5862C26.9159 13.6709 27.4621 11.6354 26.5397 10.0457C25.6172 8.45592 23.566 7.91396 21.9639 8.82928C20.8716 9.45555 20.2647 10.6117 20.289 11.78C20.3254 13.2493 18.9902 14.0081 17.7401 13.2493C17.2304 12.9362 16.6356 12.7555 15.9924 12.7555C15.3491 12.7555 14.7544 12.9362 14.2446 13.2373C12.9824 13.984 11.6594 13.2252 11.6958 11.7679C11.7201 10.5876 11.1133 9.4435 10.0209 8.81723C8.41879 7.90192 6.36761 8.45592 5.44518 10.0457C4.52275 11.6354 5.08106 13.6709 6.68317 14.5862C7.77552 15.2125 9.08634 15.1522 10.0937 14.55C11.356 13.7913 12.6789 14.55 12.6425 16.0194C12.6425 16.0434 12.6425 16.0675 12.6425 16.0916C12.6425 17.3562 13.3465 18.4522 14.4024 19.0182C15.6768 19.7288 15.6768 21.2341 14.4024 21.9327C14.3538 21.9568 14.3053 21.9929 14.2568 22.017C12.9945 22.7637 11.6716 22.005 11.708 20.5477C11.7201 19.9576 11.5745 19.3554 11.2589 18.8014C10.3365 17.2116 8.28528 16.6697 6.68317 17.585C5.08106 18.5244 4.53489 20.5597 5.45731 22.1495C6.37974 23.7393 8.43093 24.2813 10.033 23.3659C10.0573 23.3539 10.0695 23.3418 10.0937 23.3297C11.356 22.571 12.6789 23.3297 12.6425 24.7991C12.6425 24.8231 12.6425 24.8472 12.6425 24.8833C12.6425 26.714 14.1476 28.2074 15.9924 28.2074C17.8372 28.2074 19.3423 26.714 19.3423 24.8833C19.3423 24.8593 19.3423 24.8352 19.3423 24.8111C19.3058 23.3418 20.6409 22.5831 21.9032 23.3418C21.9275 23.3538 21.9518 23.3659 21.9761 23.3901C23.5781 24.3053 25.6293 23.7634 26.5518 22.1736C27.4742 20.5477 26.928 18.5124 25.3259 17.5971Z" fill="#FF9100"/>
</svg>
