<svg xmlns="http://www.w3.org/2000/svg" width="27" height="29" fill="none"><path fill="#FF9100" d="M13.19 7.96c2.216 0 4.012-1.782 4.012-3.98S15.406 0 13.19 0C10.975 0 9.18 1.782 9.18 3.98s1.796 3.98 4.01 3.98" class="bg"/><path fill="#FF9100" d="M24.338 16.281c-1.918-1.096-4.374-.447-5.479 1.457a3.96 3.96 0 0 0-.538 2.076c.044 1.76-1.555 2.668-3.066 1.76-.058-.03-.116-.073-.189-.102-1.526-.85-1.526-2.653 0-3.49 1.25-.677 2.107-1.99 2.107-3.503v-.087c-.043-1.76 1.555-2.668 3.067-1.76a4.02 4.02 0 0 0 4.084.044 3.965 3.965 0 0 0 1.467-5.437c-1.104-1.903-3.56-2.552-5.479-1.456a3.99 3.99 0 0 0-2.005 3.533c.044 1.76-1.555 2.668-3.052 1.76a3.97 3.97 0 0 0-2.093-.592 4.1 4.1 0 0 0-2.093.577c-1.511.894-3.095-.015-3.051-1.76a3.97 3.97 0 0 0-2.006-3.533A4.034 4.034 0 0 0 .533 7.24C-.57 9.143.097 11.58 2.015 12.676a4.05 4.05 0 0 0 4.084-.043c1.512-.909 3.096 0 3.052 1.759v.087c0 1.514.843 2.826 2.107 3.504 1.526.85 1.526 2.653 0 3.49-.058.028-.116.072-.174.1-1.511.895-3.096-.014-3.052-1.759a4.05 4.05 0 0 0-.538-2.09c-1.104-1.904-3.56-2.553-5.479-1.457C.097 17.392-.557 19.828.548 21.732s3.56 2.553 5.479 1.457c.029-.015.043-.03.072-.044 1.512-.908 3.096 0 3.052 1.76v.1c0 2.193 1.802 3.98 4.011 3.98s4.011-1.787 4.011-3.98v-.086c-.043-1.76 1.555-2.668 3.067-1.76a.3.3 0 0 1 .087.059c1.918 1.096 4.374.447 5.479-1.457 1.104-1.947.45-4.384-1.468-5.48" class="bg"/></svg>