<svg width="24" height="24" viewBox="0 0 24 24" fill="none" xmlns="http://www.w3.org/2000/svg">
<circle class="bg" cx="12" cy="12" r="12" fill="black"/>
<g clip-path="url(#clip0_44_1219)">
<path class="fg" d="M12.2775 8.39192C13.4997 8.39192 14.4905 7.40875 14.4905 6.19596C14.4905 4.98317 13.4997 4 12.2775 4C11.0552 4 10.0645 4.98317 10.0645 6.19596C10.0645 7.40875 11.0552 8.39192 12.2775 8.39192Z" fill="#FF9100"/>
<path class="fg" d="M18.4279 12.9827C17.3695 12.378 16.0144 12.7359 15.405 13.7862C15.1966 14.1442 15.1004 14.5421 15.1084 14.932C15.1324 15.9027 14.2504 16.4039 13.4165 15.9026C13.3844 15.8867 13.3524 15.8628 13.3123 15.8469C12.4704 15.3775 12.4704 14.383 13.3123 13.9215C14.0019 13.5476 14.4749 12.8236 14.4749 11.9881C14.4749 11.9722 14.4749 11.9563 14.4749 11.9404C14.4509 10.9697 15.3329 10.4685 16.1668 10.9697C16.8323 11.3755 17.6983 11.4073 18.4199 10.9936C19.4783 10.3889 19.8391 9.04424 19.2297 7.994C18.6204 6.94376 17.2653 6.58573 16.2068 7.19041C15.4852 7.60414 15.0843 8.36796 15.1004 9.13972C15.1244 10.1104 14.2424 10.6117 13.4165 10.1104C13.0798 9.90356 12.6868 9.78422 12.2619 9.78422C11.8369 9.78422 11.444 9.90356 11.1073 10.1025C10.2734 10.5958 9.39942 10.0945 9.42347 9.13176C9.43951 8.35204 9.0386 7.59619 8.31696 7.18246C7.25855 6.57777 5.90348 6.94376 5.2941 7.994C4.68471 9.04424 5.05355 10.3889 6.11196 10.9936C6.83359 11.4073 7.69956 11.3675 8.36507 10.9697C9.19896 10.4685 10.0729 10.9697 10.0489 11.9404C10.0489 11.9563 10.0489 11.9722 10.0489 11.9881C10.0489 12.8236 10.5139 13.5476 11.2115 13.9215C12.0534 14.391 12.0534 15.3854 11.2115 15.8469C11.1794 15.8628 11.1474 15.8867 11.1153 15.9026C10.2814 16.3959 9.40743 15.8947 9.43149 14.932C9.43951 14.5421 9.34329 14.1443 9.13481 13.7783C8.52543 12.7281 7.17036 12.37 6.11196 12.9747C5.05355 13.5953 4.69273 14.9399 5.30212 15.9901C5.9115 17.0404 7.26658 17.3985 8.32498 16.7938C8.34101 16.7858 8.34903 16.7778 8.36507 16.7698C9.19896 16.2686 10.0729 16.7698 10.0489 17.7405C10.0489 17.7564 10.0489 17.7724 10.0489 17.7962C10.0489 19.0056 11.0431 19.9922 12.2619 19.9922C13.4807 19.9922 14.4749 19.0056 14.4749 17.7962C14.4749 17.7803 14.4749 17.7644 14.4749 17.7485C14.4509 16.7778 15.3329 16.2766 16.1668 16.7778C16.1828 16.7858 16.1988 16.7938 16.2149 16.8097C17.2733 17.4143 18.6284 17.0563 19.2377 16.0061C19.8471 14.932 19.4863 13.5874 18.4279 12.9827Z" fill="#FF9100"/>
</g>
<defs>
<clipPath id="clip0_44_1219">
<rect width="14.8966" height="16" fill="white" transform="translate(5 4)"/>
</clipPath>
</defs>
</svg>