<svg xmlns="http://www.w3.org/2000/svg" width="48" height="48" viewBox="0 0 1270 1270" fill-rule="evenodd">
    <circle cx="635" cy="635" r="635" fill="#2a8f68" class="bg"/>
    <path fill="#fff" class="fg" d="M754.167 155.833c-65.834-66.666-173.334-66.666-239.167 0L155.833 515c-66.666 65.833-66.666 173.333 0 239.167L515 1113.333c65.833 66.667 173.333 66.667 239.167 0l359.166-359.166c66.667-65.834 66.667-173.334 0-239.167zm219.166 310c0-93.333-75.833-169.166-169.166-169.166H465c-93.333 0-169.167 75.833-169.167 169.166V805c0 93.333 75.834 169.167 169.167 169.167h339.167c93.333 0 169.166-75.834 169.166-169.167z"/>
    <path fill="#fff" class="fg" d="M586.667 347.5c26.666-25.833 69.166-25.833 95.833 0l239.167 240c26.666 26.667 26.666 69.167 0 95.833L682.5 922.5c-26.667 26.667-69.167 26.667-95.833 0L347.5 683.333c-26.667-26.666-26.667-69.166 0-95.833z"/>
</svg>