<svg xmlns="http://www.w3.org/2000/svg" fill-rule="evenodd" viewBox="-6 -6 60 60">
  <circle class="bg" fill="#000" cx="24" cy="24" r="30" />
  <path class="fg" fill="#fff" d="M29.437 2.252a7.689 7.689 0 0 0-10.874 0L2.252 18.563a7.689 7.689 0 0 0 0 10.874l16.311 16.311a7.689 7.689 0 0 0 10.874 0l16.311-16.311a7.689 7.689 0 0 0 0-10.874L29.437 2.252Zm9.941 14.093a7.689 7.689 0 0 0-7.689-7.689H16.311a7.689 7.689 0 0 0-7.689 7.689v15.378a7.69 7.69 0 0 0 7.689 7.69h15.378a7.69 7.69 0 0 0 7.689-7.69V16.345Z"/>
  <path class="fg" fill="#fff" d="M21.825 10.985a3.076 3.076 0 0 1 4.35 0l10.874 10.874a3.075 3.075 0 0 1 0 4.349L26.175 37.082a3.076 3.076 0 0 1-4.35 0L10.951 26.208a3.075 3.075 0 0 1 0-4.349l10.874-10.874Z"/>
</svg>