<svg xmlns="http://www.w3.org/2000/svg" width="130" height="130" fill="none"><path fill="url(#a)" fill-rule="evenodd" d="M64.964 129.695c19.216 0 36.479-8.357 48.354-21.636-5.524-4.801-13.848-5.093-19.73-.347l-1.123.906c-10.767 8.688-26.456 7.405-35.668-2.917-5.025-5.63-13.63-6.204-19.359-1.293l-12.953 11.105a64.58 64.58 0 0 0 40.48 14.182M85.99 98.294c10.255-8.276 24.67-7.979 34.534.014 5.896-9.769 9.288-21.219 9.288-33.46 0-13.603-4.188-26.228-11.346-36.655a15.36 15.36 0 0 0-13.412 3.53l-1.08.957c-10.355 9.176-26.087 8.618-35.766-1.268-5.279-5.391-13.901-5.568-19.397-.398L33.737 45.195l-8.292-8.814 15.074-14.18c10.295-9.687 26.447-9.355 36.336.745 5.167 5.278 13.565 5.575 19.093.677l1.08-.958a27.36 27.36 0 0 1 11.303-6.032C96.841 6.293 81.638 0 64.964 0 32.045 0 4.855 24.529.674 56.307c9.999-4.799 22.332-2.952 30.485 5.396a14.453 14.453 0 0 0 19.24 1.292l8.427-6.584c10.592-8.275 25.565-7.875 35.699.955l16.408 14.296-7.949 9.124L86.576 66.49a15.95 15.95 0 0 0-20.3-.543l-8.428 6.584c-10.665 8.333-25.891 7.31-35.347-2.373-5.499-5.63-14.492-5.827-20.23-.442L.445 71.428c1.365 13.544 6.898 25.858 15.296 35.64l13.82-11.847c10.73-9.2 26.85-8.124 36.263 2.422 4.918 5.51 13.293 6.195 19.041 1.557z" class="bg" clip-rule="evenodd"/><defs><linearGradient id="a" x1="65.02" x2="65.02" y1="129.148" y2="0" gradientUnits="userSpaceOnUse"><stop stop-color="#B52A2A"/><stop offset="1" stop-color="#780000"/></linearGradient></defs></svg>