<svg width="16" height="16" viewBox="0 0 16 16" fill="none" xmlns="http://www.w3.org/2000/svg">
<rect width="16" height="16" rx="3" fill="black"/>
<ellipse cx="8.00061" cy="8" rx="8" ry="8" fill="black"/>
<path d="M9.62132 9.94684C6.62484 10.8467 4.14611 12.1593 2.59411 13.6972L2.52563 13.7657C2.93843 14.1561 3.39091 14.5055 3.87987 14.8025L3.98483 14.6739C4.40851 14.1561 4.86291 13.6563 5.33587 13.1852C6.60563 11.9199 8.05843 10.8249 9.62259 9.94556L9.62068 9.94684H9.62132Z" fill="white"/>
<path d="M0.0756836 8.61377C0.195363 10.2183 0.791203 11.6896 1.72625 12.8864L1.76913 12.8435C2.72976 11.8957 3.98032 11.0342 5.4888 10.2835C6.81104 9.62497 8.32912 9.05985 9.9656 8.61377H0.0756836Z" fill="white"/>
<path d="M6.17426 2.01926C8.85522 4.69062 12.2293 6.45702 15.9304 7.1271C15.4837 3.16678 12.1128 0.0858154 8.01746 0.0858154C6.93586 0.0858154 5.90482 0.301495 4.96338 0.690615C5.34546 1.15078 5.75378 1.59878 6.17426 2.01926Z" fill="white"/>
<path d="M2.59409 2.34622C4.14609 3.88606 6.62481 5.19678 9.62129 6.09854C8.05713 5.2179 6.60433 4.12414 5.33457 2.85886C4.86289 2.3891 4.40913 1.88926 3.98353 1.37022L3.87857 1.24158C3.38961 1.53854 2.93713 1.88734 2.52625 2.27774L2.59473 2.34622H2.59409Z" fill="white"/>
<path d="M6.17426 14.0243C5.75186 14.4448 5.34418 14.8928 4.96338 15.3529C5.90354 15.742 6.93586 15.9577 8.01746 15.9577C12.1135 15.9577 15.4843 12.8768 15.9317 8.91516C12.2312 9.58524 8.85714 11.3516 6.17554 14.023L6.17426 14.0243Z" fill="white"/>
<path d="M5.4888 5.75998C3.98032 5.00926 2.72976 4.14718 1.76913 3.19998L1.72625 3.1571C0.791203 4.3539 0.195363 5.82526 0.0756836 7.42975H9.96368C8.32784 6.98365 6.81104 6.41853 5.48688 5.75805L5.48816 5.75998H5.4888Z" fill="white"/>
</svg>
