<svg xmlns="http://www.w3.org/2000/svg" viewBox="0 0 51.78 51.78">
    <path d="M26.73 51.78h-1.66l-.15-.03-.96-.06c-.37-.02-.73-.06-1.1-.1-.58-.06-1.15-.15-1.72-.26-1.51-.28-2.99-.69-4.43-1.24-1.62-.62-3.17-1.39-4.63-2.32-1.5-.95-2.88-2.04-4.16-3.26-.54-.52-1.05-1.06-1.54-1.63a25.816 25.816 0 0 1-4.24-6.71 25.79 25.79 0 0 1-1.62-5.14 27.962 27.962 0 0 1-.48-3.76c0-.16 0-.32-.05-.48.01-.61.01-1.23.01-1.85.01-.06.03-.12.03-.19.01-.21.02-.41.04-.62.04-.43.07-.86.12-1.29.08-.71.19-1.41.33-2.11.25-1.24.59-2.46 1.02-3.65.75-2.08 1.75-4.03 3.01-5.86C5.71 9.53 7.05 8 8.57 6.63c1.21-1.09 2.5-2.06 3.89-2.9A25.553 25.553 0 0 1 20.82.47c.51-.1 1.02-.19 1.53-.25.34-.04.67-.09 1.01-.12.17-.02.34-.03.52-.04.24-.01.48-.04.72-.04.03 0 .07-.01.1-.02h2.45c.03 0 .07.02.1.02.34 0 .68.04 1.01.07.27.03.54.05.81.08.5.06 1 .14 1.5.23a25.37 25.37 0 0 1 8.14 2.96c1.86 1.06 3.56 2.33 5.1 3.8.58.55 1.13 1.13 1.65 1.74a25.65 25.65 0 0 1 3.88 5.94c.77 1.64 1.37 3.34 1.78 5.1.2.84.35 1.69.46 2.54.04.33.07.66.11.99.03.33.07.65.06.98 0 .09 0 .18.02.27V27c-.02.08-.02.17-.02.26 0 .16 0 .32-.01.48-.02.31-.06.62-.09.93-.07.68-.17 1.35-.29 2.01-.32 1.69-.8 3.33-1.45 4.92-.64 1.59-1.44 3.1-2.38 4.52a25.66 25.66 0 0 1-3.99 4.71c-1.01.94-2.09 1.8-3.24 2.57-1.07.72-2.19 1.35-3.36 1.9a25.654 25.654 0 0 1-6.45 2.06c-.5.09-1.01.17-1.52.22-.25.03-.49.05-.74.08l-.77.06c-.21.01-.41.02-.62.04-.03 0-.07.01-.1.02ZM22.32 39h6.86c.37 0 .75-.02 1.12-.06.43-.04.85-.12 1.27-.23.98-.27 1.87-.7 2.68-1.31a7.868 7.868 0 0 0 2.47-3.07c.41-.9.64-1.84.67-2.83.01-.52 0-1.03-.07-1.55-.15-.96-.46-1.86-.95-2.7-.26-.45-.56-.86-.89-1.25-.1-.11-.09-.12 0-.23.01-.01.02-.03.03-.04.59-.69 1.05-1.45 1.38-2.3.3-.78.48-1.59.51-2.44.01-.53 0-1.06-.08-1.58a7.862 7.862 0 0 0-2.62-4.7c-.54-.47-1.13-.86-1.77-1.16-.76-.36-1.56-.61-2.4-.72-.41-.05-.82-.08-1.24-.08H15.68c-.11 0-.23.01-.34.01-.25 0-.5 0-.76.01h-.05c-.07.01-.1.04-.11.11v4.9c0 .19.02.21.21.21.34 0 .68.04 1.01.09.83.13 1.62.38 2.37.76.97.49 1.8 1.14 2.51 1.97a7.797 7.797 0 0 1 1.76 3.82 7.599 7.599 0 0 1-.02 2.61c-.14.82-.41 1.59-.8 2.32-.51.96-1.19 1.77-2.03 2.45-.7.56-1.48 1-2.32 1.3-.8.28-1.63.44-2.48.45h-.09c-.07 0-.1.04-.11.11v5.04c0 .07.05.1.12.09.14-.02.28-.02.41 0 .09 0 .18.01.28.01h7.09Z"/>
    <path d="M28.6 23.26h-.98c-.2 0-.21 0-.25-.2-.15-.65-.34-1.29-.58-1.91-.41-1.04-.94-2.02-1.6-2.92-.03-.04-.06-.08-.09-.13s-.02-.09.04-.1h4.45c.52 0 .99.18 1.42.48.66.47 1.04 1.11 1.12 1.92.06.56-.07 1.1-.37 1.58-.41.67-1.01 1.07-1.77 1.24-.17.04-.34.05-.51.05h-.86Zm-1.16 10.49h-2.17c-.06 0-.15.03-.18-.03-.04-.07.04-.12.08-.18a12.953 12.953 0 0 0 2.18-4.79c.01-.05.02-.1.04-.15.03-.1.05-.12.16-.12h1.91c.63 0 1.19.2 1.67.59.59.47.92 1.09.98 1.83.07.79-.19 1.48-.75 2.06-.43.45-.97.69-1.58.77-.09.01-.17 0-.26 0h-2.09Z"/>
    <path d="M14.42 33.75h12.97C24.63 36.94 20.25 39 15.31 39c-.3 0-.59 0-.89-.02v-5.23Zm15.69-5.25h-5.03v-5.25h5.03c.2.85.3 1.73.3 2.63s-.1 1.78-.3 2.63ZM27.39 18H14.42v-5.23c.29-.01.59-.02.89-.02 4.94 0 9.33 2.06 12.08 5.25Z" opacity=".12" style="isolation:isolate"/>
    <path d="M14.42 12.74c7.36 0 13.33 5.88 13.33 13.13S21.78 39 14.42 39v-5.25c4.42 0 8-3.53 8-7.88s-3.58-7.88-8-7.88v-5.25Z" style="filter:brightness(0.5)"/>
</svg>