<svg id="Layer_1" data-name="Layer 1" xmlns="http://www.w3.org/2000/svg" viewBox="0 0 51.78 51.78">
    <style>
      .cls-3 {
        isolation: isolate;
        opacity: .12;
      }
    </style>
  <g>
    <path fill="#d0d0da" d="m26.73,51.78h-1.66s-.1-.02-.15-.03c-.32-.02-.64-.04-.96-.06-.37-.02-.73-.06-1.1-.1-.58-.06-1.15-.15-1.72-.26-1.51-.28-2.99-.69-4.43-1.24-1.62-.62-3.17-1.39-4.63-2.32-1.5-.95-2.88-2.04-4.16-3.26-.54-.52-1.05-1.06-1.54-1.63-1.76-2.02-3.17-4.25-4.24-6.71-.72-1.66-1.26-3.37-1.62-5.14-.14-.72-.26-1.44-.34-2.16-.06-.53-.11-1.06-.14-1.6,0-.16,0-.32-.05-.48C0,26.18,0,25.56,0,24.94c.01-.06.03-.12.03-.19.01-.21.02-.41.04-.62.04-.43.07-.86.12-1.29.08-.71.19-1.41.33-2.11.25-1.24.59-2.46,1.02-3.65.75-2.08,1.75-4.03,3.01-5.86,1.16-1.69,2.5-3.22,4.02-4.59,1.21-1.09,2.5-2.06,3.89-2.9,1.54-.94,3.16-1.71,4.87-2.31,1.14-.4,2.3-.72,3.49-.95.51-.1,1.02-.19,1.53-.25.34-.04.67-.09,1.01-.12.17-.02.34-.03.52-.04.24-.01.48-.04.72-.04.03,0,.07-.01.1-.02.82,0,1.63,0,2.45,0,.03,0,.07.02.1.02.34,0,.68.04,1.01.07.27.03.54.05.81.08.5.06,1,.14,1.5.23,1.06.19,2.1.45,3.13.77,1.75.55,3.42,1.28,5.01,2.19,1.86,1.06,3.56,2.33,5.1,3.8.58.55,1.13,1.13,1.65,1.74,1.57,1.8,2.86,3.78,3.88,5.94.77,1.64,1.37,3.34,1.78,5.1.2.84.35,1.69.46,2.54.04.33.07.66.11.99.03.33.07.65.06.98,0,.09,0,.18.02.27v2.28c-.02.08-.02.17-.02.26,0,.16,0,.32-.01.48-.02.31-.06.62-.09.93-.07.68-.17,1.35-.29,2.01-.32,1.69-.8,3.33-1.45,4.92-.64,1.59-1.44,3.1-2.38,4.52-1.14,1.73-2.47,3.3-3.99,4.71-1.01.94-2.09,1.8-3.24,2.57-1.07.72-2.19,1.35-3.36,1.9-1.17.55-2.37,1.01-3.6,1.38-.94.28-1.89.51-2.85.68-.5.09-1.01.17-1.52.22-.25.03-.49.05-.74.08-.26.02-.52.04-.77.06-.21.01-.41.02-.62.04-.03,0-.07.01-.1.02Zm-4.41-12.78c2.29,0,4.58,0,6.86,0,.37,0,.75-.02,1.12-.06.43-.04.85-.12,1.27-.23.98-.27,1.87-.7,2.68-1.31,1.08-.81,1.91-1.84,2.47-3.07.41-.9.64-1.84.67-2.83.01-.52,0-1.03-.07-1.55-.15-.96-.46-1.86-.95-2.7-.26-.45-.56-.86-.89-1.25-.1-.11-.09-.12,0-.23.01-.01.02-.03.03-.04.59-.69,1.05-1.45,1.38-2.3.3-.78.48-1.59.51-2.44.01-.53,0-1.06-.08-1.58-.13-.8-.37-1.57-.74-2.29-.47-.92-1.09-1.73-1.88-2.41-.54-.47-1.13-.86-1.77-1.16-.76-.36-1.56-.61-2.4-.72-.41-.05-.82-.08-1.24-.08-4.54,0-9.07,0-13.61,0-.11,0-.23.01-.34.01-.25,0-.5,0-.76.01-.02,0-.03,0-.05,0-.07.01-.1.04-.11.11,0,.06,0,.13,0,.19,0,1.12,0,2.23,0,3.35,0,.45,0,.91,0,1.36,0,.19.02.21.21.21.34,0,.68.04,1.01.09.83.13,1.62.38,2.37.76.97.49,1.8,1.14,2.51,1.97.5.59.9,1.23,1.21,1.94.26.6.45,1.23.55,1.88.06.34.09.68.1,1.03.02.53-.03,1.06-.12,1.58-.14.82-.41,1.59-.8,2.32-.51.96-1.19,1.77-2.03,2.45-.7.56-1.48,1-2.32,1.3-.8.28-1.63.44-2.48.45-.03,0-.06,0-.09,0-.07,0-.1.04-.11.11,0,.05,0,.09,0,.14,0,1.59,0,3.17,0,4.76,0,.05,0,.09,0,.14,0,.07.05.1.12.09.14-.02.28-.02.41,0,.09,0,.18.01.28.01.25,0,.51,0,.76,0,2.11,0,4.22,0,6.33,0Z"/>
    <path fill="#d0d0da" d="m28.6,23.26c-.33,0-.66,0-.98,0-.2,0-.21,0-.25-.2-.15-.65-.34-1.29-.58-1.91-.41-1.04-.94-2.02-1.6-2.92-.03-.04-.06-.08-.09-.13-.03-.05-.02-.09.04-.1.04,0,.08,0,.12,0,1.44,0,2.88,0,4.33,0,.52,0,.99.18,1.42.48.66.47,1.04,1.11,1.12,1.92.06.56-.07,1.1-.37,1.58-.41.67-1.01,1.07-1.77,1.24-.17.04-.34.05-.51.05-.29,0-.57,0-.86,0h0Z"/>
    <path fill="#d0d0da" d="m27.44,33.75c-.72,0-1.45,0-2.17,0-.06,0-.15.03-.18-.03-.04-.07.04-.12.08-.18.75-1.02,1.33-2.13,1.76-3.33.17-.48.31-.96.42-1.46.01-.05.02-.1.04-.15.03-.1.05-.12.16-.12.06,0,.11,0,.17,0,.58,0,1.16,0,1.74,0,.63,0,1.19.2,1.67.59.59.47.92,1.09.98,1.83.07.79-.19,1.48-.75,2.06-.43.45-.97.69-1.58.77-.09.01-.17,0-.26,0-.7,0-1.39,0-2.09,0Z"/>
  </g>
  <path  class="cls-3" d="m14.42,33.75h12.97c-2.76,3.19-7.14,5.25-12.08,5.25-.3,0-.59,0-.89-.02v-5.23Zm15.69-5.25h-5.03v-5.25h5.03c.2.85.3,1.73.3,2.63s-.1,1.78-.3,2.63Zm-2.72-10.5h-12.97v-5.23c.29-.01.59-.02.89-.02,4.94,0,9.33,2.06,12.08,5.25Z"/>
  <path fill="#898989" d="m14.42,12.74c7.36,0,13.33,5.88,13.33,13.13s-5.97,13.13-13.33,13.13v-5.25c4.42,0,8-3.53,8-7.88s-3.58-7.88-8-7.88v-5.25Z"/>
</svg>