<svg xmlns="http://www.w3.org/2000/svg" viewBox="0 0 24 24"><path d="M12 .444C5.619.444.444 5.62.444 12 .444 18.38 5.62 23.555 12 23.555c6.381 0 11.556-5.174 11.556-11.555C23.556 5.619 18.38.444 12 .444Zm3.016 15.915s-.413-.468-.708-.876c1.428-.41 1.962-1.23 1.962-1.23-.468.295-.896.47-1.243.646-.533.235-1.067.35-1.6.468-2.527.41-3.945-.276-5.286-.82l-.458-.232s.534.82 1.905 1.23c-.36.41-.717.877-.717.877-2.44-.058-3.33-1.582-3.33-1.582 0-3.395 1.605-6.15 1.605-6.15 1.606-1.168 3.094-1.112 3.094-1.112l.12.118c-1.965.47-2.856 1.347-2.856 1.347s.239-.117.655-.295c2.646-1.04 5.536-.965 8.211.353 0 0-.892-.821-2.736-1.347l.163-.16c.255 0 1.604.048 3.047 1.104 0 0 1.615 2.759 1.615 6.15-.053-.066-1.002 1.458-3.443 1.511Z"/><path d="M13.988 13.788c.623 0 1.13-.526 1.13-1.174 0-.644-.504-1.17-1.13-1.17v.003c-.62 0-1.128.524-1.13 1.173 0 .643.508 1.168 1.13 1.168Zm-4.045 0c.623 0 1.13-.526 1.13-1.174 0-.644-.504-1.17-1.126-1.17l-.004.003c-.623 0-1.13.524-1.13 1.173 0 .643.507 1.168 1.13 1.168Z"/></svg>