<svg xmlns="http://www.w3.org/2000/svg" viewBox="0 0 24 24"><path d="M12 .926C5.616.926.444 6.01.444 12.28c0 5.018 3.311 9.273 7.902 10.774.577.107.79-.245.79-.546 0-.27-.01-.985-.015-1.931-3.215.685-3.893-1.523-3.893-1.523-.525-1.311-1.285-1.662-1.285-1.662-1.047-.704.08-.69.08-.69 1.161.08 1.77 1.17 1.77 1.17 1.031 1.737 2.706 1.235 3.366.946.104-.735.402-1.235.732-1.519-2.566-.284-5.263-1.26-5.263-5.611 0-1.24.447-2.253 1.189-3.047-.13-.287-.52-1.442.1-3.005 0 0 .969-.305 3.179 1.164a11.28 11.28 0 0 1 2.889-.383c.982.005 1.964.13 2.889.383 2.195-1.469 3.163-1.164 3.163-1.164.62 1.563.23 2.718.115 3.005.737.794 1.185 1.808 1.185 3.047 0 4.362-2.701 5.322-5.272 5.601.404.341.78 1.038.78 2.102 0 1.52-.015 2.74-.015 3.109 0 .298.202.653.795.54 4.623-1.491 7.93-5.75 7.93-10.76C23.556 6.011 18.383.926 12 .926Z"/></svg>