<svg xmlns="http://www.w3.org/2000/svg" viewBox="0 0 24 24"><path d="M12 0c6.623 0 12 5.377 12 12s-5.377 12-12 12S0 18.623 0 12 5.377 0 12 0m8 12c0-.968-.786-1.754-1.754-1.754-.477 0-.898.182-1.207.491-1.193-.856-2.849-1.418-4.674-1.488l.8-3.747 2.597.547a1.25 1.25 0 1 0 1.249-1.305c-.491 0-.912.281-1.109.702l-2.905-.618a.35.35 0 0 0-.239.042.34.34 0 0 0-.14.197l-.884 4.182c-1.867.056-3.537.604-4.744 1.488a1.77 1.77 0 0 0-1.207-.491c-.969 0-1.755.786-1.755 1.754 0 .716.421 1.319 1.039 1.6a3.3 3.3 0 0 0-.042.533c0 2.695 3.13 4.871 7.003 4.871s7.004-2.176 7.004-4.871c0-.182-.014-.35-.042-.519A1.82 1.82 0 0 0 20 12m-5.024 4.547c-.856.857-2.484.913-2.962.913-.477 0-2.119-.07-2.961-.913a.33.33 0 0 1 0-.463.33.33 0 0 1 .463 0c.533.534 1.684.73 2.512.73s1.965-.196 2.513-.73a.33.33 0 0 1 .463 0 .36.36 0 0 1-.028.463M8 13.249C8 12.561 8.562 12 9.249 12s1.25.561 1.25 1.249-.562 1.249-1.25 1.249A1.25 1.25 0 0 1 8 13.249m6.751 1.249a1.25 1.25 0 0 1-1.249-1.249c0-.688.561-1.249 1.249-1.249S16 12.561 16 13.249s-.561 1.249-1.249 1.249"/></svg>