<svg xmlns="http://www.w3.org/2000/svg" viewBox="0 0 24 24"><path d="M12 .926C5.616.926.444 6.01.444 12.28c0 5.018 3.311 9.273 7.902 10.774.577.107.79-.245.79-.546 0-.27-.01-.985-.015-1.931-3.215.685-3.893-1.523-3.893-1.523-.525-1.311-1.285-1.662-1.285-1.662-1.047-.704.08-.69.08-.69 1.161.08 1.77 1.17 1.77 1.17 1.031 1.737 2.706 1.235 3.366.946.104-.735.402-1.235.732-1.519-2.566-.284-5.263-1.26-5.263-5.611 0-1.24.447-2.253 1.189-3.047-.13-.287-.52-1.442.1-3.005 0 0 .969-.305 3.179 1.164a11.3 11.3 0 0 1 2.889-.383c.982.005 1.964.13 2.889.383 2.195-1.469 3.163-1.164 3.163-1.164.62 1.563.23 2.718.115 3.005.737.794 1.185 1.808 1.185 3.047 0 4.362-2.701 5.322-5.272 5.601.404.341.78 1.038.78 2.102 0 1.52-.015 2.74-.015 3.109 0 .298.202.653.795.54 4.623-1.491 7.93-5.75 7.93-10.76C23.556 6.011 18.383.926 12 .926"/><path d="M12 .444C5.619.444.444 5.62.444 12S5.62 23.555 12 23.555c6.381 0 11.556-5.174 11.556-11.555S18.38.444 12 .444m5.137 8.922q.008.17.008.342c0 3.503-2.666 7.542-7.542 7.542a7.5 7.5 0 0 1-4.063-1.19q.312.036.633.036a5.32 5.32 0 0 0 3.292-1.135 2.65 2.65 0 0 1-2.476-1.84 2.64 2.64 0 0 0 1.197-.046 2.65 2.65 0 0 1-2.126-2.632c.357.198.765.318 1.2.331a2.65 2.65 0 0 1-.82-3.539 7.53 7.53 0 0 0 5.463 2.77 2.651 2.651 0 0 1 4.517-2.417 5.3 5.3 0 0 0 1.683-.644 2.66 2.66 0 0 1-1.166 1.466 5.3 5.3 0 0 0 1.523-.417 5.4 5.4 0 0 1-1.323 1.373"/></svg>