<svg xmlns="http://www.w3.org/2000/svg" fill="none" viewBox="0 0 1024 1024">
    <g clip-path="url(#a)">
        <rect width="1024" height="1024" fill="#fff" rx="180"/>
        <path fill="#1c1e32" d="M0 0h1024v1024H0z"/>
        <g clip-path="url(#b)">
            <mask id="c" width="919" height="919" x="52" y="52" maskUnits="userSpaceOnUse" style="mask-type:luminance">
                <path fill="#fff" d="M52 52h919v919H52z"/>
            </mask>
            <g mask="url(#c)">
                <mask id="d" width="919" height="919" x="52" y="52" maskUnits="userSpaceOnUse" style="mask-type:luminance">
                    <path fill="#fff" d="M971 52H52v919h919z"/>
                </mask>
                <g fill="#fff" mask="url(#d)">
                    <path d="M511.5 101.037c55.435 0 109.186 10.849 159.761 32.24 24.314 10.281 47.766 23.015 69.709 37.835a413.7 413.7 0 0 1 60.784 50.148 414 414 0 0 1 50.151 60.781 410 410 0 0 1 37.832 69.703c21.389 50.574 32.235 104.319 32.235 159.753 0 55.435-10.846 109.18-32.235 159.754a410.5 410.5 0 0 1-37.832 69.703 413.6 413.6 0 0 1-50.151 60.779 413.7 413.7 0 0 1-60.784 50.149 410 410 0 0 1-69.709 37.836c-50.575 21.391-104.326 32.24-159.761 32.24s-109.186-10.849-159.761-32.24c-24.314-10.281-47.766-23.015-69.709-37.836a413.7 413.7 0 0 1-60.784-50.149 414 414 0 0 1-50.15-60.779 410 410 0 0 1-37.834-69.703c-21.387-50.574-32.234-104.319-32.234-159.754s10.847-109.179 32.234-159.753a410.5 410.5 0 0 1 37.834-69.703 413.6 413.6 0 0 1 50.15-60.781 413.7 413.7 0 0 1 60.784-50.148 410 410 0 0 1 69.709-37.835c50.575-21.391 104.326-32.24 159.761-32.24m0-49.037C257.723 52 52 257.723 52 511.503s205.723 459.502 459.5 459.502S971 765.282 971 511.503C971 257.723 765.277 52 511.5 52"/>
                    <path d="M372.067 335.431v-33.88c0-27.405 17.933-49.68 44.943-54.447 20.413-3.601 39.278.213 54.296 15.833 9.843 10.233 14.921 22.595 15.117 36.806.169 11.786.038 23.576.038 35.525h61.983c.043-.735.12-1.515.12-2.3v-32.146c.081-30.442 24.133-54.486 54.564-54.764 10.491-.11 20.7.932 30.043 5.993 19.17 10.401 29.199 26.59 29.738 48.395.284 11.513.05 23.042.05 34.946h80.559c15.062 0 25.015 10.027 26.383 25.021 1.17 12.832-2.13 24.519-6.374 36.261a119.9 119.9 0 0 1-18.664 33.65c-6.313 8.025-13.422 15.496-20.701 22.656-9.456 9.262-19.399 18.039-29.242 26.899-5.382 4.839-10.226 10.058-13.314 16.657-.889 1.896-1.634 4.075-1.634 6.129-.094 49.37.109 98.746-.137 148.115-.288 59.33-44.174 112.242-102.415 123.504-9 1.695-18.129 2.587-27.286 2.676-25.605.348-51.208.124-76.813.119-62.489 0-114.851-42.613-127.081-103.802a134.4 134.4 0 0 1-2.375-25.673c-.224-48.101-.098-96.2-.148-144.301a11.5 11.5 0 0 0-.958-4.359c-3.906-9.078-10.797-15.736-17.978-22.22a1703 1703 0 0 1-28.762-26.61c-11.065-10.456-20.99-21.952-28.182-35.417-8.1-15.141-14.974-30.855-14.969-48.541a51.3 51.3 0 0 1 1.308-11.851c2.723-11.213 12.66-18.819 24.307-18.836 30.142-.038 60.288-.038 90.43 0zm89.047 54.453h-98.542c-6.336 0-11.777 4.256-12.595 10.462a33.9 33.9 0 0 0 .152 10.821c2.18 11.028 6.968 21.015 14.649 29.21s16.037 15.485 23.839 23.428c5.894 5.994 9.637 13.127 9.626 21.916a79241 79241 0 0 0 0 161.708 78 78 0 0 0 .708 11.399c5.448 37.007 36.499 63.749 73.897 63.749q38.536-.002 77.073-.028a85 85 0 0 0 11.406-.653c36.668-5.041 63.999-36.359 64.049-73.377 0-8.985-.076-17.98.059-26.955 0-2.086-.588-2.942-2.582-3.557a230.3 230.3 0 0 1-53.887-24.47c-38.678-24.028-68.309-56.218-87.517-97.698-9.211-19.899-15.531-40.696-17.747-62.513-1.455-14.297-1.754-28.73-2.588-43.442m160.514 144.508c.163-13.49-10.639-24.556-24.129-24.714-13.487-.163-24.551 10.641-24.71 24.132-.163 13.49 10.64 24.556 24.128 24.714h.061c13.432.18 24.469-10.565 24.65-23.995z"/>
                    <path d="M470.716 534.196c-.049 13.491-11.026 24.394-24.514 24.345-13.489-.05-24.389-11.028-24.341-24.52.05-13.49 11.027-24.392 24.515-24.343h.087c13.434.043 24.296 10.967 24.253 24.409z"/>
                </g>
            </g>
        </g>
    </g>
    <defs>
        <clipPath id="a">
            <rect width="1024" height="1024" fill="#fff" rx="180"/>
        </clipPath>
        <clipPath id="b">
            <path fill="#fff" d="M52 52h919v919H52z"/>
        </clipPath>
    </defs>
</svg>
