<?xml version="1.0" encoding="UTF-8"?>
<svg id="Layer_2" data-name="Layer 2" xmlns="http://www.w3.org/2000/svg" xmlns:xlink="http://www.w3.org/1999/xlink" viewBox="0 0 798.48 820.62">
  <defs>
    <style>
      .cls-1 {
        fill: url(#linear-gradient);
      }

      .cls-2 {
        mask: url(#mask);
      }

      .cls-3 {
        fill: #fff;
      }

      .cls-4 {
        fill: url(#linear-gradient-3);
      }

      .cls-5 {
        fill: url(#linear-gradient-4);
      }

      .cls-6 {
        fill: url(#linear-gradient-2);
      }

      .cls-7 {
        fill: url(#linear-gradient-6);
      }

      .cls-8 {
        fill: url(#linear-gradient-5);
      }

      .cls-9 {
        opacity: .5;
      }

      .cls-10 {
        fill: #ff9d00;
        fill-rule: evenodd;
      }

      .cls-11 {
        mask: url(#mask-3);
      }

      .cls-12 {
        mask: url(#mask-2);
      }

      .cls-13 {
        mask: url(#mask-5);
      }

      .cls-14 {
        mask: url(#mask-4);
      }

      .cls-15 {
        mask: url(#mask-1);
      }
    </style>
    <linearGradient id="linear-gradient" x1="406.71" y1="16.96" x2="406.71" y2="808.07" gradientUnits="userSpaceOnUse">
      <stop offset="0" stop-color="#ffda01"/>
      <stop offset=".34" stop-color="#ffd501"/>
      <stop offset=".69" stop-color="#ffc901"/>
      <stop offset="1" stop-color="#ffb801"/>
    </linearGradient>
    <linearGradient id="linear-gradient-2" x1="-171.72" y1="1137.04" x2="672.49" y2="-122.54" gradientTransform="translate(801.41 -148.29) rotate(90) scale(.99)" gradientUnits="userSpaceOnUse">
      <stop offset="0" stop-color="#fff"/>
      <stop offset="1" stop-color="#000"/>
    </linearGradient>
    <mask id="mask" x="359.08" y="47.15" width="242.97" height="346.55" maskUnits="userSpaceOnUse">
      <rect class="cls-6" x="308.28" y="100.38" width="344.56" height="240.09" transform="translate(256.12 699.12) rotate(-89.52)"/>
    </mask>
    <mask id="mask-1" x="359.08" y="47.15" width="242.97" height="346.55" maskUnits="userSpaceOnUse">
      <rect class="cls-6" x="308.28" y="100.38" width="344.56" height="240.09" transform="translate(256.12 699.12) rotate(-89.52)"/>
    </mask>
    <linearGradient id="linear-gradient-3" x1="32.73" y1="1506.01" x2="612.68" y2="640.7" gradientTransform="translate(1063.24 44.07) rotate(90) scale(.99 .71)" xlink:href="#linear-gradient-2"/>
    <mask id="mask-2" x="272.01" y="331.4" width="230.54" height="232.48" maskUnits="userSpaceOnUse">
      <rect class="cls-4" x="301.65" y="364.99" width="171.24" height="165.31" transform="translate(-196.93 542.86) rotate(-58.39)"/>
    </mask>
    <linearGradient id="linear-gradient-4" x1="32.73" y1="1506.01" x2="612.68" y2="640.7" gradientTransform="translate(1063.24 44.07) rotate(90) scale(.99 .71)" xlink:href="#linear-gradient-2"/>
    <mask id="mask-3" x="272.01" y="331.4" width="230.54" height="232.48" maskUnits="userSpaceOnUse">
      <rect class="cls-5" x="301.65" y="364.99" width="171.24" height="165.31" transform="translate(-196.93 542.86) rotate(-58.39)"/>
    </mask>
    <linearGradient id="linear-gradient-5" x1="48.86" y1="1235.26" x2="893.06" y2="-24.32" gradientTransform="translate(-10.67 1251.92) rotate(-90)" xlink:href="#linear-gradient-2"/>
    <mask id="mask-4" x="249.62" y="463.15" width="319.79" height="395.67" maskUnits="userSpaceOnUse">
      <rect class="cls-8" x="236.17" y="540.21" width="346.7" height="241.56" transform="translate(-332.2 894.34) rotate(-75.68)"/>
    </mask>
    <linearGradient id="linear-gradient-6" x1="48.86" y1="1235.26" x2="893.06" y2="-24.32" gradientTransform="translate(-10.67 1251.92) rotate(-90)" xlink:href="#linear-gradient-2"/>
    <mask id="mask-5" x="249.62" y="463.15" width="319.79" height="395.67" maskUnits="userSpaceOnUse">
      <rect class="cls-7" x="236.17" y="540.21" width="346.7" height="241.56" transform="translate(-332.2 894.34) rotate(-75.68)"/>
    </mask>
  </defs>
  <g id="Beefy_Zap" data-name="Beefy Zap">
    <g id="Overlay">
      <g id="Main_layer" data-name="Main layer">
        <path id="Bolt" class="cls-1" d="M95.53,477.9c-4.6-.46-8.45-1.93-12.09-5.69s-6.4-8.85-6.48-14.07c-.12-7.64,2.3-13.74,7.96-18.67,6.63-5.77,13.29-11.52,19.94-17.26,9.55-8.25,19.12-16.5,28.67-24.75,7.98-6.89,15.98-13.78,23.95-20.69,13.17-11.4,26.33-22.82,39.5-34.23,3.02-2.62,6.07-5.2,9.1-7.81,13.2-11.37,26.39-22.74,39.59-34.12,11.38-9.81,22.74-19.64,34.12-29.45,13.68-11.78,27.4-23.52,41.07-35.33,13.06-11.28,26.06-22.64,39.11-33.94,11.84-10.26,23.69-20.49,35.55-30.73,11.49-9.92,23-19.82,34.5-29.74,11.86-10.23,23.7-20.48,35.56-30.71,11.73-10.13,23.47-20.26,35.2-30.39,15.48-13.37,30.96-26.75,46.45-40.12,6.05-5.22,12.12-10.41,18.18-15.63,6.77-5.83,14.48-9.51,23.51-6.63,8.31,2.66,14.58,10.43,15.35,19.11,.37,4.23-.25,8.27-2.21,12.09-3.72,7.25-7.39,14.53-11.11,21.78-13.35,26.01-26.72,52.02-40.09,78.02-9.57,18.61-19.15,37.22-28.74,55.82-10.47,20.31-20.94,40.61-31.41,60.92-9.45,18.32-18.9,36.63-28.33,54.96-3.8,7.39-7.54,14.81-11.34,22.19-.67,1.31-1.45,2.54-.4,3.99,1.22,1.18,2.74,.64,4.11,.64,34.79,0,69.58,.02,104.37,.02s69.93,0,104.89,0c17.06,0,34.11-.03,51.17-.1,11.12-.04,19.88,8.3,21.16,19.4,.69,5.97-1.36,11.39-5.26,15.94-1.97,2.29-4.26,4.34-6.55,6.32-12.45,10.78-24.95,21.5-37.41,32.26-12.83,11.07-25.64,22.17-38.46,33.25-13.07,11.29-26.15,22.56-39.22,33.84-9.93,8.56-19.85,17.13-29.78,25.68-8.96,7.72-17.94,15.42-26.89,23.15-9.8,8.47-19.57,16.97-29.36,25.44-11.12,9.63-22.26,19.23-33.38,28.86-8.58,7.43-17.14,14.89-25.73,22.3-9.56,8.25-19.17,16.45-28.73,24.7-10.66,9.18-21.28,18.4-31.93,27.59-12.83,11.07-25.68,22.12-38.5,33.2-13.67,11.81-27.3,23.67-40.97,35.48-9.32,8.05-18.69,16.03-28,24.08-10.04,8.67-20.03,17.4-30.07,26.08-6.89,5.96-13.81,11.89-20.77,17.77-4.74,4-10.56,5.72-16.74,5.25-14.46-1.09-23.86-16.58-18.36-29.92,1.15-2.8,2.54-5.51,3.93-8.21,7.25-14.07,14.55-28.11,21.79-42.18,9.36-18.19,18.67-36.4,28.03-54.59,9.65-18.76,19.35-37.49,29-56.25,9.06-17.63,18.07-35.28,27.13-52.91,9.93-19.33,19.89-38.65,29.85-57.97,3.8-7.39,7.64-14.76,11.42-22.16,.72-1.41,1.23-2.93,1.84-4.41,.06-1.05-.58-1.35-1.48-1.38-1.28-.05-2.56-.03-3.84-.03-34.72,0-69.45,0-104.17,0-34.9,0-69.8,0-104.69,0-16.41,0-32.81,.02-49.22,.09-1.48,0-2.89-.04-4.24-.18Z"/>
        <g id="Face" class="cls-9">
          <path id="UL" class="cls-3" d="M110.88,137.97c21.91,0,43.83,0,65.74,0,1.44,0,2.88,.04,4.32-.06,1.62-.12,2.36-.79,2.51-2.34,.15-1.59,.16-3.19,.16-4.79,.01-15.35,.05-30.7-.01-46.05-.03-6.59,.99-12.99,2.47-19.4,2.03-8.82,5.34-17.07,10.11-24.71,12.08-19.36,29.23-31.75,51.39-37.34,18.17-4.58,39.48-4.67,57.18,1.8,12.84,4.69,24.01,12.02,33.29,22.04,9.13,9.85,16.14,21,19.76,34.1,1.36,4.94,2.34,9.88,2.71,15.02,1.17,16.45,.64,32.92,.66,49.38,0,3.84,.08,7.68,.06,11.51-.03,6.71-2.2,12.52-7.28,17.09-.71,.64-1.4,1.32-2.12,1.94-8.24,7.09-16.48,14.17-24.73,21.25-8.61,7.39-17.26,14.73-25.84,22.15-6.04,5.22-11.98,10.57-18.01,15.81-5.42,4.71-10.91,9.35-16.36,14.04-6.05,5.21-12.07,10.47-18.13,15.67-5.94,5.1-11.92,10.16-17.86,15.26-5.58,4.79-11.12,9.63-16.68,14.44-11.78,10.18-23.57,20.35-35.33,30.56-11.43,9.92-22.45,20.7-34.43,29.95-5.2,4.02-10.95,7.49-17.38,9.1-17.92,4.48-35.76-5.12-48.82-16.7-31.69-28.08-59.2-64.32-72.01-105.02-8.2-26.05-13.18-67.69,17.66-81.1,2.1-.91,4.28-1.65,6.5-2.22,4.93-1.28,10.13-1.34,15.24-1.35,21.75-.03,43.51-.01,65.26-.01Z"/>
          <path id="LR" class="cls-3" d="M397.74,820.61c-33.58-.17-67.25-1.97-100.38-5.48-.61-.06-1.22-.37-1.76-.7-.61-.38-.84-1.05-.33-1.61,.85-.95,1.76-1.85,2.73-2.68,8.13-6.97,16.29-13.89,24.4-20.88,11.62-10.01,23.22-20.05,34.82-30.1,7.25-6.27,14.44-12.61,21.72-18.85,5.46-4.68,11.05-9.2,16.51-13.87,4.86-4.15,9.62-8.42,14.44-12.6,6.64-5.76,13.3-11.49,19.94-17.24,5.56-4.81,11.12-9.62,16.68-14.43,6.17-5.33,12.34-10.65,18.51-15.98,5.2-4.5,10.38-9.01,15.58-13.5,6.17-5.32,12.36-10.62,18.52-15.95,5.55-4.81,11.07-9.66,16.61-14.48,5.06-4.41,10.11-8.82,15.2-13.2,7.87-6.78,15.76-13.54,23.64-20.3,8.97-7.71,17.94-15.4,26.89-23.13,6.53-5.64,13-11.36,19.54-16.98,9.45-8.12,18.97-16.16,28.41-24.29,5.81-5.01,11.49-10.15,17.27-15.19,3.37-2.94,6.79-5.82,10.23-8.69,.45-.37,1.2-.75,1.69-.63,.93,.23,.84,1.23,.87,2.01,.04,1.12,.03,2.24,.03,3.36,0,23.98,.42,47.97-.13,71.94-.69,29.96,1.52,60.2-5.56,89.56-9.35,38.79-30.44,74.35-59.89,101.26-15.81,14.44-33.6,26.01-53.22,34.67-29.59,13.06-61.38,15.69-93.51,17.05-16.41,.7-32.92,1.01-49.45,.92Z"/>
          <path id="UR" class="cls-3" d="M603.21,142.06c2.15-1.44,4.53-2.57,7.19-3.3,18.35-5.04,38.86-2.05,57.64-1.67,22.78,.45,45.56,.91,68.34,1.36,15.87,.32,36.33-1.1,48.65,10.4,11.36,10.59,14.59,28.42,13.12,43.26-2.65,26.82-13.92,53.65-27.92,76.44-16.57,26.96-28.15,38.98-61.3,38.64-42.33-.43-84.99,.63-127.25-.82-13.92-.48-28.76-5.74-37.19-17.39-14.32-19.78,2-45.15,11.43-63.5,8.46-16.45,16.91-32.9,25.37-49.35,5.86-11.39,10.95-26.75,21.93-34.08Z"/>
          <path id="LL" class="cls-3" d="M219.07,518.88c23.34,0,46.69,0,70.03,0,1.12,0,2.24,0,3.36,0,5.29,.05,5.5,.4,3.17,4.91-7.12,13.76-14.23,27.52-21.34,41.29-8.5,16.46-17.02,32.92-25.5,49.4-3.66,7.1-7.21,14.25-10.87,21.35-2.56,4.97-5.25,9.86-7.81,14.83-3.51,6.81-6.92,13.68-10.42,20.5-3.94,7.67-7.95,15.3-11.88,22.98-5.24,10.23-10.41,20.5-15.64,30.73-2.76,5.41-5.56,10.79-8.35,16.18-.07,.14-.17,.27-.25,.41-.74,1.18-1.73,1.23-2.66,.04-4.54-5.8-8.65-11.89-12.41-18.21-8.58-14.4-15.4-29.85-20.19-45.92-7.13-23.95-8.98-49.16-8.88-74.03s.28-51.37,.29-77.06c0-1.75,.06-3.52,.26-5.26,.15-1.27,1.12-1.92,2.35-2,1.59-.11,3.19-.14,4.79-.14,23.98,0,47.96,0,71.95,0Z"/>
        </g>
      </g>
      <g class="cls-2">
        <polygon id="Curve_2x" data-name="Curve 2x" class="cls-10" points="602.04 49.16 359.08 391.69 471.73 301.85 602.04 49.16"/>
      </g>
      <g class="cls-15">
        <polygon id="Curve_3" data-name="Curve 3" class="cls-10" points="602.04 49.16 359.08 391.69 471.73 301.85 602.04 49.16"/>
      </g>
      <g class="cls-12">
        <polygon id="Curve_2x-2" data-name="Curve 2x" class="cls-10" points="505.02 418.79 274.49 477.99 360 478.01 505.02 418.79"/>
      </g>
      <g class="cls-11">
        <polygon id="Curve_2" data-name="Curve 2" class="cls-10" points="505.02 418.79 274.49 477.99 360 478.01 505.02 418.79"/>
      </g>
      <g class="cls-14">
        <polygon id="Curve_2x-3" data-name="Curve 2x" class="cls-10" points="249.62 799.08 569.42 522.89 442.47 585.55 249.62 799.08"/>
      </g>
      <g class="cls-13">
        <polygon id="Curve" class="cls-10" points="249.62 799.08 569.42 522.89 442.47 585.55 249.62 799.08"/>
      </g>
    </g>
  </g>
</svg>