<svg xmlns="http://www.w3.org/2000/svg" viewBox="0 0 1153 394" width="117" height="40" fill="#fff"><path d="M588.484 190.769c.784.868 1.836 1.426 2.991 1.612 14.565 4.485 25.478 16.658 28.366 31.643 3.549 15.46 1.238 29.907-9.262 42.39-4.766 5.519-10.687 9.901-17.371 12.815-10.211 4.733-21.331 7.213-32.595 7.275-29.335.227-58.671 0-88.006 0-.826 0-1.63-.103-2.394-.165-.99-3.597-1.237-173.428-.288-179.318 1.547-.517 3.177-.662 4.786-.414h79.61c14.09-.351 28.015 3.038 40.373 9.838 25.87 14.861 24.921 44.933 12.997 60.31-3.92 5.147-9.036 9.239-14.916 11.926l-4.291 2.088Zm-73.421 58.573c.515.228 1.072.373 1.629.455h36.185c23.25-.723 23.663-35.88.433-36.955h-34.348c-1.279 0-2.662-.351-3.837.765l-.062 35.735Zm0-71.491c.784.165 1.568.269 2.352.331h32.141c2.145-.042 4.27-.352 6.333-.889 8.314-1.654 14.028-9.363 13.203-17.816-.412-8.474-5.673-14.075-14.564-15.46-1.63-.248-3.281-.352-4.931-.331h-31.13c-1.094 0-2.332-.351-3.404.868v33.297Zm536.417-28.047c9.26 26.29 18.46 52.477 27.64 78.54.52 1.446 2.11 2.211 3.55 1.715h.04c.79-.269 1.43-.909 1.7-1.695 4.58-12.049 8.12-24.306 12-36.459 4.46-13.971 8.81-27.964 13.25-42.08.33-1.199 1.42-2.046 2.68-2.067h37.9c1.52 0 2.76 1.24 2.76 2.769v.042c0 .372-.06.723-.21 1.054-18.27 48.88-36.55 97.761-54.85 146.6-2.54 7.007-6 13.621-10.32 19.697-8.02 11.388-20.63 18.664-34.49 19.904-15.59 1.736-30.22-1.054-43.22-10.438l-2.78-2.067-1.94-1.467 16.87-29.246c.79-1.343 2.5-1.798 3.84-1.013l.39.269c.48.393.91.827 1.38 1.158 3.47 2.562 7.58 4.133 11.87 4.547 6.72.826 13.26-2.543 16.5-8.495.25-.413.43-.868.66-1.282 2.37-4.381 2.6-9.59.64-14.157-16.22-39.353-32.31-78.767-48.27-118.264-1.04-2.563-2.07-5.126-3.12-7.689-.23-.599-.41-1.426.12-1.777.25-.124.52-.186.79-.166h41.86c1.3-.02 2.43.848 2.76 2.088v-.021Zm-170.073 92.243 18.01 18.725c1.485 1.509 1.485 3.948 0 5.457-11.532 12.049-26.984 19.572-43.57 21.226-11.842 1.633-23.89.868-35.422-2.232-25.539-6.738-44.168-28.729-46.644-55.081-1.506-13.29-1.114-26.456 3.239-39.27 8.83-25.525 27.17-39.993 53.865-44.127 10.294-1.529 20.795-1.095 30.944 1.282 17.433 3.658 32.142 15.335 39.692 31.498 7.241 14.468 8.933 29.928 8.561 46.256-.041 2.087-1.732 3.761-3.816 3.782-3.961.103-7.819 0-11.676 0h-60.817c-3.528 0-7.035-.124-10.769 0-2.145.041-3.858 1.839-3.816 3.989 0 .475.103.93.268 1.364 1.63 4.258 4.25 8.061 7.674 11.058 9.614 8.412 20.63 8.928 32.162 5.58 5.694-1.715 10.954-4.65 15.41-8.619l1.362-1.157c1.568-1.343 3.92-1.219 5.343.269Zm-18.567-37.803c2.166 0 3.92-1.756 3.92-3.927v-.372c-.805-10.168-8.17-18.622-18.134-20.792-16.504-3.617-27.54 8.267-30.573 20.317-.495 2.067.763 4.154 2.847 4.671.309.062.639.062.949 0l40.991.103Zm-124.831 37.699 18.031 18.85c1.382 1.467 1.382 3.782 0 5.25-6.003 6.489-13.244 11.698-21.311 15.294-12.439 5.395-25.993 7.709-39.506 6.738-8.066-.248-16.05-1.778-23.641-4.547-22.508-8.474-35.793-24.988-40.332-48.364-3.239-15.129-2.248-30.858 2.847-45.47 9.407-25.691 28.119-39.559 54.937-42.949 10.336-1.343 20.836-.744 30.945 1.798 17.969 4.444 30.759 15.274 38.784 31.871 7.241 15.005 8.685 31.002 7.943 47.392-.145.62-.372 1.24-.681 1.798h-86.48c-2.084 0-3.776 1.674-3.796 3.762 0 .579.123 1.137.371 1.653.309.641.64 1.261.928 1.881 5.282 11.058 16.876 17.651 29.047 16.535 9.944-.661 19.372-4.774 26.633-11.616 1.506-1.405 3.858-1.343 5.281.124Zm-64.571-37.988c6.684 1.178 47.139.827 50.399-.372-.372-8.474-3.053-15.935-10.315-20.834-7.282-5.208-16.855-5.849-24.756-1.653-9.325 4.63-13.347 13.062-15.328 22.859Z"/><path d="M1012.1 101.667c-1.67 10.066-3.26 19.759-4.89 29.597-.25 1.468-1.63 2.481-3.1 2.253h-.24c-2.56-.661-4.873-1.26-7.184-1.922-.454-.124-.908-.248-1.362-.331-8.623-1.322-16.689 4.589-18.03 13.228-.144.868-.206 1.757-.186 2.646v4.319c.021 1.468 1.217 2.646 2.682 2.667h23.31c1.36 0 2.5 1.012 2.68 2.356.75 8.577.85 17.196.33 25.773-.1 1.385-1.23 2.46-2.62 2.501-7.732.186-15.572 0-23.782 0-1.465.041-2.62 1.24-2.641 2.708v96.128c0 1.488-1.217 2.687-2.702 2.687h-38.496c-1.485 0-2.682-1.199-2.682-2.687v-96.025c0-1.405-1.093-2.563-2.496-2.687-4.373-.393-8.582 0-12.811-.207-1.444-.103-2.537-1.343-2.496-2.79v-24.926c0-1.467 1.176-2.666 2.641-2.707 4.352-.31 8.582 0 12.728-.124 1.3-.083 2.373-1.096 2.496-2.398-.062-1.033-.062-2.046 0-3.079-.123-5.126.062-10.231.557-15.336 2.971-19.635 15.163-32.78 34.411-37.4927 14.193-3.4516 27.974-1.8808 42.083 2.8316 1.26.434 2 1.7151 1.8 3.0171ZM196.643 21.0197c23.725 0 46.727 4.6503 68.368 13.8271 10.397 4.4023 20.444 9.8588 29.83 16.2246 9.304 6.3038 18.051 13.5377 26.014 21.495 7.963 7.978 15.184 16.7414 21.455 26.0628 6.334 9.4038 11.801 19.4698 16.195 29.8868 9.159 21.681 13.801 44.726 13.801 68.494 0 23.769-4.642 46.814-13.801 68.495-4.394 10.417-9.841 20.482-16.195 29.886-6.292 9.322-13.512 18.085-21.455 26.063-7.963 7.978-16.71 15.212-26.014 21.495-9.386 6.366-19.433 11.823-29.83 16.225-21.641 9.177-44.643 13.827-68.368 13.827-23.724 0-46.726-4.65-68.367-13.827-10.397-4.402-20.444-9.859-29.8306-16.225-9.304-6.304-18.051-13.537-26.0141-21.495-7.9632-7.978-15.1836-16.741-21.455-26.063-6.3334-9.404-11.8003-19.469-16.1944-29.886-9.1597-21.681-13.8014-44.726-13.8014-68.495 0-23.768 4.6417-46.813 13.8014-68.494 4.3941-10.417 9.8404-20.483 16.1944-29.8868 6.292-9.3214 13.5125-18.0848 21.455-26.0628 7.9631-7.9779 16.7101-15.2118 26.0141-21.495 9.3866-6.3658 19.4336-11.8223 29.8306-16.2246 21.641-9.1768 44.643-13.8271 68.367-13.8271Zm0-21.0197C88.0274 0 0 88.1917 0 197.01c0 108.819 88.0274 197.011 196.643 197.011 108.616 0 196.644-88.192 196.644-197.011C393.287 88.1917 305.239 0 196.643 0Z"/><path d="M136.96 121.509v-14.53c0-11.7394 7.674-21.3089 19.227-23.3344 8.726-1.5501 16.813.0827 23.229 6.7792 4.209 4.3817 6.395 9.6932 6.478 15.7702.082 5.043 0 10.107 0 15.232h26.53c0-.31.041-.64.041-.992v-13.786c.041-13.0412 10.336-23.3547 23.353-23.4787 4.497-.0414 8.85.3927 12.852 2.5628 8.211 4.4644 12.502 11.4089 12.729 20.7509.124 4.94.021 9.88.021 14.985h34.472c6.437 0 10.707 4.299 11.285 10.726.495 5.498-.908 10.521-2.724 15.543-1.877 5.208-4.559 10.086-7.983 14.427-2.703 3.43-5.735 6.634-8.851 9.714-4.043 3.968-8.293 7.73-12.522 11.533-2.31 2.066-4.373 4.319-5.694 7.151-.371.806-.701 1.757-.701 2.625-.041 21.164.041 42.328-.062 63.493-.124 25.442-18.897 48.116-43.818 52.952-3.857.723-7.756 1.116-11.676 1.137-10.955.144-21.909.062-32.863.041-26.737 0-49.141-18.271-54.381-44.499-.68-3.637-1.031-7.316-1.01-11.016-.104-20.627-.042-41.254-.062-61.86 0-.641-.145-1.282-.413-1.86-1.671-3.886-4.621-6.738-7.695-9.529-4.146-3.761-8.252-7.564-12.316-11.408-4.7447-4.485-8.9738-9.405-12.0683-15.192-3.4658-6.49-6.4158-13.227-6.4158-20.813 0-1.715.1856-3.41.557-5.084 1.1552-4.816 5.4256-8.061 10.3974-8.081h40.0427l.041.041Zm38.103 23.355h-42.167c-2.703 0-5.034 1.819-5.384 4.485-.227 1.53-.207 3.1.061 4.63.929 4.733 2.992 9.011 6.272 12.525 3.28 3.513 6.87 6.634 10.191 10.045 2.517 2.563 4.126 5.621 4.126 9.404-.021 23.107-.021 46.214 0 69.321 0 1.633.083 3.266.309 4.878 2.332 15.873 15.617 27.323 31.626 27.323h32.987c1.63 0 3.26-.082 4.889-.289 15.7-2.17 27.397-15.584 27.417-31.457 0-3.844-.041-7.709.021-11.554 0-.888-.248-1.26-1.114-1.529-8.108-2.48-15.864-6.015-23.064-10.5-16.545-10.292-29.233-24.099-37.443-41.894-3.941-8.536-6.643-17.444-7.592-26.807-.619-6.139-.743-12.318-1.114-18.622l-.021.041Zm68.698 61.964c.061-5.787-4.56-10.52-10.315-10.603-5.777-.062-10.501 4.568-10.583 10.355-.062 5.787 4.559 10.52 10.314 10.603h.021c5.756.082 10.48-4.527 10.542-10.293v-.062h.021Z"/><path d="M179.187 206.724c-.021 5.788-4.724 10.459-10.48 10.438-5.776-.021-10.438-4.733-10.418-10.52.021-5.787 4.724-10.458 10.501-10.438h.041c5.756 0 10.397 4.713 10.377 10.458v.042l-.021.02Z"/></svg>