<svg width="926" height="273" viewBox="0 0 926 273" fill="none" xmlns="http://www.w3.org/2000/svg">
<path d="M294.314 60.2463C295.018 60.5332 295.549 60.7222 296.061 60.9569C302.13 63.7406 307.998 66.9057 313.751 70.2892C323.833 76.2217 333.423 82.8615 342.429 90.3293C352.742 98.8825 362.084 108.365 369.96 119.235C375.736 127.208 380.537 135.723 383.999 144.947C385.149 148.015 386.088 151.163 387.04 154.299C387.49 155.789 387.741 157.337 388.07 158.863C388.099 158.999 388.041 159.153 388.015 159.387C387.633 159.361 387.275 159.371 386.929 159.312C384.928 158.973 382.939 158.576 380.932 158.276C378.77 157.953 376.596 157.712 374.425 157.448C372.929 157.265 371.43 157.093 369.927 156.949C368.424 156.806 366.918 156.672 365.413 156.587C359.738 156.268 354.059 156.082 348.375 156.294C345.93 156.385 343.492 156.61 341.05 156.786C339.492 156.9 337.934 156.998 336.382 157.171C334.625 157.363 332.869 157.598 331.121 157.872C328.139 158.338 325.182 158.924 322.236 159.599C316.838 160.838 311.593 162.513 306.508 164.704C301.12 167.025 296.074 169.922 291.452 173.547C285.383 178.306 280.477 184.046 276.758 190.803C274.362 195.162 272.563 199.754 271.233 204.539C271.096 205.035 270.939 205.524 270.76 206.117C270.388 205.97 270.095 205.892 269.841 205.749C265.408 203.239 260.688 201.485 255.707 200.442C252.219 199.712 248.686 199.419 245.139 199.722C238.891 200.26 233.327 202.525 228.512 206.583C225.122 209.442 222.462 212.891 220.197 216.668C217.123 221.799 215.04 227.35 213.365 233.064C211.797 238.417 210.734 243.886 209.916 249.395C209.473 252.378 209.17 255.386 208.886 258.388C208.619 261.237 208.453 264.096 208.25 266.951C208.117 268.861 207.996 270.775 207.869 272.691C207.416 272.701 207.4 272.304 207.273 272.069C204.935 267.704 202.491 263.405 199.883 259.193C195.483 252.091 190.652 245.304 185 239.134C180.472 234.189 175.472 229.805 169.588 226.499C165.634 224.28 161.436 222.748 156.928 222.268C152.299 221.776 147.775 222.396 143.443 224.175C137.888 226.457 133.257 230.023 129.211 234.401C127.829 235.897 126.555 237.475 125.411 239.16C125.241 239.408 125.02 239.623 124.853 239.818C124.205 239.773 124.016 239.293 123.739 238.938C122.174 236.92 120.551 234.955 118.807 233.084C115.697 229.749 112.235 226.842 108.428 224.342C102.069 220.166 95.1257 217.48 87.6253 216.196C84.4895 215.661 81.344 215.335 78.1561 215.241C75.8059 215.172 73.4688 215.247 71.1317 215.339C68.8988 215.427 66.6627 215.681 64.4527 216.01C61.8809 216.395 59.3221 216.88 56.7829 217.431C54.3936 217.95 52.0173 218.546 49.6639 219.218C43.4934 220.981 37.4957 223.227 31.6317 225.828C24.5258 228.98 17.6252 232.54 11.0082 236.624C7.817 238.593 4.73666 240.741 1.60418 242.807C1.2228 243.058 0.83817 243.303 0.323151 243.638C0.244921 243.264 0.163431 243.029 0.153652 242.794C-0.0223672 237.168 -0.0842998 231.539 0.16995 225.916C0.306853 222.852 0.707785 219.801 0.975074 216.74C1.24562 213.627 1.7476 210.547 2.24632 207.463C3.11012 202.118 4.24772 196.827 5.58742 191.583C8.48196 180.259 12.3413 169.264 16.9537 158.527C19.5255 152.539 22.3353 146.665 25.37 140.902C29.4999 133.059 33.9851 125.425 39.0441 118.14C39.3407 117.713 39.6569 117.296 39.9796 116.889C40.0708 116.774 40.2208 116.709 40.4196 116.569C40.7293 116.827 41.0618 117.061 41.3486 117.342C44.8005 120.748 48.3991 123.995 52.1184 127.104C60.062 133.741 68.4686 139.693 77.7748 144.299C83.3487 147.056 89.128 149.273 95.2137 150.635C97.4987 151.147 99.8064 151.519 102.134 151.819C105.361 152.229 108.585 152.086 111.815 152.083C111.919 152.083 112.023 152.083 112.128 152.073C113.422 151.978 113.718 151.646 113.461 150.404C112.975 148.057 112.444 145.72 111.939 143.379C110.511 136.759 109.1 130.139 107.649 123.525C107.294 121.895 106.805 120.305 105.869 118.88C104.963 117.498 103.773 116.429 102.372 115.588C99.4642 113.847 96.5697 112.087 93.636 110.395C89.9787 108.286 86.266 106.275 82.6153 104.16C79.0916 102.116 75.8157 99.7365 72.7647 97.0115C69.0781 93.7193 65.8739 90.0457 63.2988 85.8506C61.581 83.0505 60.0881 80.1234 59.4101 76.854C59.1135 75.4231 58.8592 73.9888 58.9049 72.5187C58.9766 70.0838 59.7393 67.9748 61.5256 66.2016C63.0641 64.6729 64.8276 63.7015 66.9203 63.2419C77.5596 60.908 88.199 58.5676 98.8383 56.2272C100.061 55.9599 101.286 55.7024 102.499 55.3993C103.852 55.0603 104.135 54.63 103.848 53.2642C103.366 50.9695 102.815 48.691 102.323 46.3995C101.853 44.209 101.299 42.0284 100.996 39.8151C100.279 34.5736 101.032 29.5962 104.314 25.2772C107.45 21.1473 111.515 18.256 116.46 16.5904C120.14 15.3517 123.921 15.0486 127.732 15.4397C131.539 15.8309 134.981 17.3009 138.025 19.6446C139.306 20.6323 140.48 21.734 141.562 22.9466C143.779 25.4369 144.975 28.3967 145.685 31.5943C146.52 35.3559 147.41 39.1077 148.169 42.8889C148.525 44.6589 149.245 44.9424 150.777 44.5969C156.726 43.2507 162.681 41.9469 168.636 40.6235C169.807 40.3627 170.977 40.0987 172.147 39.8346C172.349 39.789 172.561 39.7662 172.76 39.7108C173.747 39.4272 174.041 38.9904 173.881 37.993C173.8 37.4779 173.682 36.9694 173.568 36.4609C172.972 33.8174 172.356 31.1804 171.782 28.5336C171.241 26.0367 170.84 23.5138 170.892 20.9485C171 15.6711 172.825 11.1109 176.534 7.29394C181.186 2.50884 186.903 0.282523 193.475 0.0380525C195.293 -0.0303993 197.116 -0.0369185 198.931 0.282523C203.328 1.05179 207.074 3.01408 210.297 6.10093C213.032 8.71514 214.695 11.89 215.565 15.5082C216.331 18.6993 217.006 21.91 217.723 25.1142C217.938 26.0791 218.137 27.0504 218.372 28.012C218.675 29.2605 219.141 29.5734 220.392 29.3094C222.381 28.8921 224.363 28.4293 226.348 27.9925C234.236 26.2551 242.124 24.5112 250.019 22.7901C251.036 22.5685 252.073 22.3892 253.109 22.3273C257.337 22.0665 260.763 23.9049 262.552 27.8686C263.397 29.7364 263.853 31.7052 264.075 33.7424C264.251 35.3494 264.44 36.9597 264.29 38.5732C264.058 41.0602 263.739 43.5376 263.286 45.9986C262.08 52.5699 259.364 58.5187 255.707 64.0307C252.741 68.4996 249.533 72.8089 246.43 77.1865C244.983 79.227 243.519 81.2545 242.088 83.3048C241.251 84.5076 240.596 85.8082 240.146 87.2098C239.559 89.0352 239.451 90.8964 239.797 92.7674C240.11 94.4559 240.511 96.1314 240.886 97.8068C242.46 104.821 244.038 111.833 245.612 118.848C245.658 119.05 245.707 119.255 245.755 119.457C246.14 121.041 246.3 121.142 247.91 120.595C253.484 118.701 258.595 115.934 263.299 112.403C268.684 108.365 273.231 103.524 277.188 98.1002C281.292 92.4741 284.587 86.3949 287.374 80.0289C289.926 74.1974 292.006 68.203 293.698 62.0684C293.848 61.5241 294.063 60.9993 294.324 60.2463H294.314ZM146.986 100.949C148.538 101.112 150.106 101.187 151.638 101.451C155.08 102.048 157.713 103.801 159.262 107.032C160.892 110.435 162.166 113.916 162.45 117.739C162.609 119.9 162.424 121.996 161.997 124.089C161.469 126.671 160.354 129.031 159.082 131.309C155.953 136.912 151.315 140.619 145.056 142.186C142.934 142.718 140.776 143.099 138.632 143.526C137.559 143.741 136.471 143.878 135.401 144.103C134.388 144.315 134.107 144.745 134.244 145.775C134.306 146.238 134.414 146.698 134.518 147.154C135.027 149.387 135.437 151.639 136.396 153.752C136.715 154.452 137.142 154.853 137.885 154.928C138.557 154.993 139.231 155.075 139.906 155.091C141.419 155.127 142.928 155.137 144.44 155.14C145.213 155.14 145.721 155.499 145.985 156.216C146.38 157.291 146.784 158.364 147.175 159.44C148.939 164.283 150.709 169.127 152.456 173.977C153.003 175.496 153.482 177.038 154.017 178.56C154.464 179.825 155.285 180.327 156.53 180.151C157.449 180.021 158.043 179.336 157.951 178.417C157.896 177.85 157.717 177.299 157.596 176.738C157.466 176.129 157.299 175.522 157.221 174.903C157.146 174.32 157.56 173.925 158.167 173.919C158.626 173.912 158.998 174.088 159.161 174.528C159.32 174.965 159.421 175.425 159.539 175.878C159.705 176.533 159.816 177.208 160.038 177.843C160.363 178.782 160.989 179.167 161.974 179.013C162.899 178.87 163.812 178.639 164.728 178.44C165.035 178.375 165.344 178.313 165.638 178.215C166.772 177.833 167.209 177.094 166.984 175.933C166.915 175.575 166.791 175.229 166.71 174.874C166.462 173.808 166.198 172.749 165.99 171.673C165.875 171.093 166.136 170.692 166.593 170.552C167.222 170.359 167.737 170.597 167.952 171.236C168.102 171.679 168.183 172.142 168.291 172.599C168.542 173.664 168.737 174.743 169.05 175.79C169.324 176.712 169.891 177.133 170.807 176.989C172.193 176.774 173.571 176.471 174.921 176.09C175.837 175.829 176.199 175.082 176.059 174.124C176.006 173.765 175.882 173.417 175.798 173.065C175.469 171.699 175.13 170.333 174.817 168.964C174.735 168.612 174.699 168.244 174.712 167.882C174.725 167.435 175.061 167.119 175.504 167.047C175.967 166.972 176.417 167.132 176.57 167.51C176.746 167.941 176.873 168.397 176.974 168.85C177.229 170.02 177.45 171.197 177.698 172.37C177.796 172.827 177.887 173.293 178.053 173.73C178.461 174.799 179.116 175.18 180.25 174.965C181.632 174.704 183.008 174.401 184.377 174.072C186.483 173.57 186.832 172.98 186.326 170.838C186.052 169.671 185.717 168.521 185.472 167.347C185.345 166.744 185.316 166.112 185.329 165.493C185.339 165.043 185.7 164.72 186.114 164.639C186.506 164.56 186.955 164.759 187.164 165.157C187.307 165.431 187.408 165.731 187.487 166.03C187.708 166.888 187.91 167.748 188.113 168.612C188.311 169.476 188.468 170.346 188.699 171.2C188.905 171.963 189.407 172.491 190.218 172.589C190.622 172.638 191.049 172.569 191.454 172.491C192.731 172.237 194.003 171.947 195.274 171.673C196.861 171.331 197.468 170.415 197.028 168.824C196.669 167.52 196.385 166.193 196.112 164.867C195.998 164.313 195.952 163.732 195.971 163.169C195.991 162.657 196.438 162.341 196.946 162.357C197.357 162.37 197.657 162.579 197.771 162.96C197.976 163.657 198.152 164.365 198.315 165.075C198.622 166.392 198.866 167.729 199.225 169.033C199.502 170.043 200.229 170.499 201.246 170.317C202.474 170.098 203.7 169.828 204.9 169.476C206.027 169.147 206.363 168.518 206.21 167.331C206.164 166.972 206.066 166.617 205.978 166.262C205.806 165.555 205.604 164.85 205.46 164.137C205.369 163.68 205.323 163.208 205.327 162.745C205.33 162.233 205.607 161.907 206.008 161.816C206.48 161.708 206.921 161.92 207.145 162.419C207.273 162.699 207.344 163.009 207.409 163.312C207.644 164.381 207.827 165.46 208.1 166.519C208.492 168.038 209.179 168.488 210.738 168.231C211.764 168.061 212.772 167.781 213.785 167.54C213.984 167.491 214.18 167.399 214.362 167.302C215.021 166.94 215.363 166.386 215.259 165.63C215.187 165.114 215.024 164.616 214.923 164.107C214.789 163.446 214.639 162.784 214.568 162.112C214.515 161.627 214.91 161.249 215.425 161.17C215.878 161.102 216.256 161.291 216.412 161.741C216.569 162.181 216.673 162.64 216.784 163.097C216.944 163.755 217.058 164.427 217.253 165.072C217.465 165.77 217.938 166.255 218.694 166.334C219.483 166.415 220.148 166.109 220.565 165.437C220.774 165.098 220.891 164.665 220.93 164.264C220.986 163.697 220.963 163.116 220.911 162.549C220.718 160.424 220.48 158.305 220.291 156.18C219.969 152.552 219.669 148.924 219.359 145.293C219.252 144.048 219.16 142.802 219.036 141.561C218.991 141.094 218.883 140.638 218.789 140.178C218.629 139.393 218.147 138.875 217.394 138.637C216.8 138.448 216.191 138.298 215.585 138.154C212.543 137.431 209.463 136.844 206.464 135.974C198.52 133.666 190.988 130.39 183.898 126.1C179.289 123.31 174.967 120.138 171 116.51C168.232 113.981 165.569 111.337 163.144 108.462C160.755 105.633 158.496 102.716 156.478 99.6061C153.082 94.3744 150.454 88.7809 148.453 82.8876C147.413 79.8301 146.484 76.7399 145.721 73.5977C145.317 71.9288 144.818 70.2827 144.333 68.6333C143.964 67.3816 143.567 67.1697 142.256 67.4207C142.204 67.4305 142.155 67.4403 142.103 67.4533C137.168 68.5485 132.236 69.647 127.298 70.7357C120.837 72.1634 114.374 73.5814 107.91 75.0091C106.586 75.3025 105.25 75.5469 103.949 75.9218C101.039 76.7628 99.562 79.1586 100.002 82.1411C100.201 83.4971 100.621 84.7781 101.189 86.0103C102.949 89.8338 105.491 92.9924 109.044 95.3165C111.577 96.9691 114.126 98.5859 116.799 100.004C118.686 101.004 120.541 102.074 122.2 103.436C122.881 103.997 123.517 104.619 124.162 105.222C125.156 106.155 125.551 106.226 126.819 105.676C126.913 105.633 127.008 105.584 127.099 105.539C128.595 104.786 130.173 104.241 131.8 103.85C134.841 103.123 137.882 102.393 140.939 101.744C142.925 101.321 144.936 100.988 146.996 100.952L146.986 100.949ZM187.721 199.885C188.474 199.852 189.576 199.891 190.658 199.745C195.052 199.151 199.163 197.714 202.97 195.439C206.872 193.105 210.49 190.399 213.906 187.391C216.298 185.282 218.466 182.971 220.595 180.611C221.507 179.6 222.058 178.44 222.042 177.081C222.029 175.832 221.924 174.584 221.804 173.338C221.758 172.885 221.605 172.419 221.396 172.012C221.168 171.572 220.728 171.363 220.213 171.402C219.708 171.441 219.226 171.836 219.095 172.357C219.02 172.657 219.03 172.977 219.001 173.286C218.975 173.544 218.975 173.811 218.906 174.059C218.818 174.382 218.577 174.587 218.241 174.642C217.912 174.694 217.599 174.623 217.41 174.336C217.24 174.078 217.143 173.775 216.996 173.498C216.51 172.586 215.933 172.211 214.982 172.387C213.857 172.595 212.732 172.859 211.65 173.218C210.575 173.576 210.187 174.241 210.229 175.372C210.249 175.891 210.376 176.403 210.412 176.921C210.451 177.511 210.112 177.941 209.567 178.065C209.039 178.186 208.642 177.921 208.436 177.263C208.267 176.715 208.169 176.148 207.993 175.604C207.742 174.825 207.194 174.401 206.357 174.408C206.047 174.408 205.727 174.424 205.424 174.483C204.554 174.655 203.687 174.828 202.826 175.043C201.138 175.467 200.776 176.034 201.102 177.723C201.268 178.593 201.5 179.45 201.65 180.321C201.751 180.901 201.412 181.36 200.877 181.507C200.343 181.65 199.925 181.403 199.697 180.77C199.469 180.135 199.319 179.463 199.042 178.85C198.374 177.371 196.979 176.533 195.385 176.745C194.202 176.901 193.025 177.178 191.877 177.511C190.763 177.833 190.368 178.502 190.525 179.639C190.616 180.308 190.841 180.956 190.955 181.621C191.033 182.077 191.066 182.55 191.04 183.013C191.014 183.456 190.649 183.733 190.186 183.769C189.654 183.812 189.266 183.619 189.087 183.091C188.856 182.403 188.66 181.693 188.546 180.979C188.214 178.919 187.347 178.518 185.342 178.896C184.113 179.128 182.894 179.411 181.681 179.711C180.048 180.115 179.641 180.754 179.928 182.423C180.042 183.091 180.221 183.746 180.342 184.411C180.407 184.767 180.446 185.135 180.423 185.49C180.387 185.979 179.905 186.289 179.4 186.207C178.94 186.136 178.637 185.855 178.506 185.432C178.34 184.884 178.233 184.32 178.093 183.766C177.952 183.212 177.845 182.641 177.646 182.11C177.333 181.279 176.828 180.911 175.954 181.061C174.729 181.272 173.503 181.556 172.32 181.947C171.251 182.299 170.918 182.987 170.993 184.141C171.026 184.659 171.091 185.181 171.068 185.696C171.042 186.247 170.69 186.559 170.175 186.602C169.647 186.644 169.262 186.4 169.116 185.881C169.018 185.533 168.988 185.164 168.904 184.809C168.552 183.355 167.463 182.775 166.234 183.108C165.429 183.326 164.604 183.463 163.796 183.655C163.444 183.74 163.092 183.851 162.756 183.991C162.127 184.255 161.762 184.728 161.739 185.432C161.729 185.745 161.739 186.057 161.697 186.367C161.635 186.85 161.345 187.133 160.905 187.202C160.465 187.27 160.152 187.11 159.894 186.651C159.715 186.335 159.594 185.983 159.386 185.686C158.991 185.122 158.31 184.943 157.726 185.197C157.211 185.425 156.947 185.973 157.062 186.638C157.107 186.892 157.195 187.14 157.286 187.384C157.736 188.606 158.193 189.826 158.646 191.045C159.069 192.186 159.858 192.971 160.973 193.434C165.647 195.367 170.364 197.176 175.319 198.294C179.292 199.19 183.295 199.839 187.725 199.875L187.721 199.885Z" fill="#F0851D"/>
<path d="M437.226 243.767V207.843C437.226 207.426 437.226 207.008 437.226 206.591C437.229 204.107 437.235 204.521 435.025 204.094C432.255 203.556 429.549 202.846 426.951 201.744C425.602 201.174 424.301 200.492 423.17 199.563C422.329 198.872 421.534 198.103 420.84 197.272C419.845 196.079 419.337 194.654 419.35 193.087C419.369 190.746 419.389 188.409 419.591 186.065C420.142 179.68 421.345 173.395 422.391 167.085C422.815 164.519 423.072 161.928 423.493 159.363C424.06 155.904 424.053 152.413 424.236 148.932C424.304 147.638 424.128 146.331 424.109 145.03C424.073 142.791 424.125 140.548 424.044 138.309C423.897 134.251 423.679 130.196 423.49 126.141C423.486 126.036 423.48 125.932 423.477 125.828C423.349 122.288 423.294 118.745 423.076 115.214C422.867 111.831 422.926 108.444 422.704 105.067C422.473 101.527 422.521 97.9874 422.512 94.4443C422.486 85.0142 422.534 75.5809 422.479 66.1508C422.466 63.8365 422.812 61.6004 423.261 59.3513C425.162 49.8593 427.721 40.5238 430.048 31.1328C431.322 25.9794 432.721 20.8585 434.051 15.7181C434.481 14.0557 435.593 13.0485 437.138 12.4585C437.848 12.188 438.233 12.452 438.282 13.2278C438.314 13.7461 438.304 14.2709 438.304 14.7892C438.304 27.9189 438.304 41.0486 438.304 54.1815C438.304 54.7031 438.331 55.2246 438.304 55.7429C438.252 56.8642 438.777 57.653 439.729 58.1452C440.7 58.6472 441.678 59.159 442.705 59.5143C445.557 60.5019 448.419 61.4668 451.307 62.3436C459.974 64.9676 468.72 67.3276 477.325 70.1602C483.017 72.0344 488.656 74.0456 494.06 76.65C496.599 77.8724 499.09 79.1893 501.293 80.9625C502.222 81.709 503.115 82.5304 503.891 83.4333C505.413 85.213 505.844 87.2633 505.26 89.5679C504.774 91.4878 503.832 93.1371 502.6 94.6398C501.003 96.5858 499.096 98.1993 497.03 99.6336C493.76 101.899 490.237 103.698 486.602 105.286C480.575 107.919 474.343 109.947 467.98 111.596C467.576 111.701 467.165 111.785 466.78 111.942C466.145 112.199 465.979 113.014 466.474 113.49C466.771 113.774 467.129 114.002 467.485 114.217C473.899 118.109 480.318 121.998 486.736 125.883C491.417 128.716 496.097 131.545 500.781 134.374C504.113 136.386 507.059 138.843 509.566 141.823C510.577 143.025 511.418 144.336 512.174 145.708C513.481 148.075 513.849 150.627 513.582 153.267C513.344 155.595 512.969 157.902 512.239 160.148C510.762 164.689 508.305 168.636 505.1 172.14C501.658 175.905 497.61 178.914 493.222 181.479C486.892 185.179 480.119 187.842 473.127 189.993C469.988 190.961 466.78 191.607 463.557 192.203C461.617 192.562 459.668 192.937 457.82 193.673C457.145 193.941 456.461 194.205 455.812 194.531C453.911 195.486 452.608 196.939 451.92 198.993C451.076 201.516 450.434 204.088 449.837 206.673C448.54 212.299 447.327 217.948 446.036 223.577C445.071 227.788 444.009 231.974 442.597 236.061C442.001 237.786 441.333 239.481 440.42 241.068C439.729 242.271 438.839 243.255 437.219 243.757L437.226 243.767ZM449.488 142.973C449.606 148.137 449.335 154.229 449.749 160.321C449.954 163.33 450.059 166.348 450.407 169.347C450.652 171.466 450.834 173.591 451.147 175.697C451.666 179.194 452.406 182.653 453.178 186.108C453.436 187.258 454.123 187.901 455.15 187.989C456.751 188.125 458.354 188.194 459.912 187.532C462.497 186.434 465.147 185.479 467.726 184.364C472.755 182.19 477.599 179.66 482.127 176.56C485.406 174.314 488.463 171.814 491.029 168.75C493.056 166.328 494.696 163.688 495.56 160.627C496.081 158.769 496.469 156.882 496.234 154.926C495.957 152.632 495.256 150.47 494.259 148.384C492.763 145.255 490.787 142.458 488.509 139.864C484.125 134.876 478.958 130.883 473.049 127.862C469.232 125.909 465.232 124.485 461.014 123.641C458.86 123.21 456.689 123.028 454.515 122.868C453.491 122.793 452.435 122.94 451.411 123.103C450.349 123.272 449.896 123.797 449.736 124.866C449.651 125.43 449.625 126.007 449.622 126.577C449.573 131.734 449.537 136.891 449.488 142.973ZM451.385 98.2058C451.385 99.6857 451.408 100.934 451.379 102.186C451.343 103.744 451.643 104.158 453.445 104.526C453.546 104.546 453.654 104.556 453.755 104.556C455.316 104.539 456.891 104.621 458.442 104.477C460.353 104.301 462.253 103.962 464.15 103.653C468.635 102.919 472.987 101.7 477.179 99.9432C479.728 98.8741 482.195 97.6387 484.356 95.8752C485.575 94.881 486.661 93.7728 487.388 92.3451C488.613 89.9427 488.388 87.8859 486.553 85.7085C485.986 85.037 485.321 84.4209 484.604 83.9157C483.545 83.1693 482.44 82.4587 481.279 81.8784C476.859 79.6684 472.136 78.4396 467.269 77.742C465.574 77.4975 463.857 77.3574 462.145 77.2824C459.492 77.1651 457.23 78.0647 455.554 80.1867C455.043 80.8354 454.599 81.5525 454.202 82.2826C453.243 84.0331 452.699 85.9367 452.314 87.8827C451.623 91.3672 451.327 94.8843 451.389 98.2058H451.385Z" fill="#F0851D"/>
<path d="M744.168 226.802C744.168 218.464 744.168 210.129 744.168 201.791C744.168 201.373 744.139 200.956 744.168 200.542C744.22 199.835 743.901 199.372 743.327 198.994C742.45 198.414 742.069 198.394 741.205 198.994C740.394 199.558 739.914 200.376 739.66 201.285C739.338 202.433 739.139 203.616 738.898 204.786C738.676 205.855 738.5 206.931 738.242 207.994C738.135 208.44 737.923 208.877 737.682 209.272C737.277 209.93 736.691 210.331 735.876 210.308C735.406 210.295 734.931 210.337 734.471 210.275C733.487 210.142 732.932 209.49 732.897 208.476C732.88 208.007 732.893 207.537 732.89 207.068C732.854 192.739 732.844 178.41 732.773 164.084C732.743 158.405 732.59 152.73 732.47 147.052C732.395 143.564 732.284 140.077 732.173 136.589C732.085 133.831 731.977 131.073 731.867 128.316C731.772 125.975 731.668 123.635 731.557 121.295C731.479 119.632 731.361 117.97 731.293 116.304C731.26 115.506 731.029 114.769 730.742 114.042C729.859 111.809 729.161 109.521 728.701 107.164C728.434 105.785 728.177 104.403 728.173 102.992C728.164 100.231 728.043 97.4669 728.16 94.7125C728.346 90.4163 730.918 86.6124 735.902 85.2531C737.248 84.888 738.666 84.712 740.061 84.6273C740.866 84.5784 741.707 84.8294 742.509 85.038C746.036 85.9474 749.56 86.8699 753.074 87.8282C762.057 90.286 771.034 92.7698 780.017 95.2406C785.888 96.8541 791.759 98.4578 797.632 100.062C798.636 100.335 799.66 100.537 800.654 100.841C801.348 101.052 802.033 101.326 802.672 101.662C803.552 102.125 804.129 102.91 804.233 103.882C804.412 105.538 804.517 107.21 803.995 108.84C803.148 111.493 801.397 113.106 798.64 113.739C796.684 114.189 794.806 113.892 792.919 113.527C790.139 112.989 787.56 111.855 784.985 110.72C781.84 109.335 778.743 107.845 775.474 106.747C772.693 105.811 769.834 105.296 766.93 104.997C766.568 104.957 766.2 104.967 765.835 104.961C764.254 104.935 763.019 105.596 762.093 106.858C761.376 107.832 760.874 108.921 760.496 110.062C759.906 111.845 759.515 113.674 759.228 115.528C758.273 121.728 758.23 127.974 758.315 134.226C758.325 134.904 758.315 135.582 758.37 136.256C758.442 137.143 758.67 137.381 759.521 137.384C760.352 137.384 761.187 137.335 762.015 137.257C765.183 136.954 768.267 136.194 771.344 135.422C774.3 134.682 777.279 134.294 780.321 134.591C783.342 134.884 786.279 135.565 789.053 136.823C789.659 137.097 790.23 137.508 790.722 137.958C791.534 138.698 791.517 139.402 790.65 140.047C789.989 140.536 789.242 140.934 788.486 141.266C785.999 142.355 783.378 143.056 780.751 143.708C776.005 144.881 771.246 146.006 766.497 147.173C765.486 147.42 764.505 147.779 763.504 148.063C762.037 148.48 761.239 149.666 760.375 150.768C760.228 150.954 760.193 151.254 760.176 151.505C760.144 152.023 760.157 152.545 760.157 153.066C760.157 171.825 760.14 190.581 760.176 209.34C760.18 211.449 759.873 213.483 759.384 215.51C757.836 221.938 756.082 228.308 754.283 234.667C752.611 240.577 750.893 246.473 748.905 252.289C748.585 253.224 748.246 254.156 747.848 255.059C747.343 256.21 746.235 256.386 745.335 255.519C744.504 254.72 744.142 253.798 744.149 252.598C744.191 244.003 744.172 235.404 744.172 226.805L744.168 226.802Z" fill="#F0851D"/>
<path d="M646.535 214.236C646.535 213.245 646.489 212.254 646.544 211.266C646.613 210.054 646.059 209.239 644.99 208.822C643.927 208.411 642.825 208.078 641.717 207.811C639.445 207.26 637.154 206.778 634.872 206.26C633.695 205.992 632.58 205.546 631.544 204.939C630.921 204.574 630.334 204.121 629.806 203.629C629.053 202.928 628.692 202.019 628.656 200.979C628.591 199.147 628.731 197.331 629.184 195.558C629.764 193.29 630.416 191.04 631.042 188.785C631.651 186.578 632.333 184.391 632.857 182.164C633.431 179.726 633.656 177.239 633.438 174.726C633.395 174.26 633.425 173.787 633.405 173.321C633.275 170.15 633.177 166.975 633.001 163.803C632.841 160.948 632.652 158.089 632.372 155.24C631.733 148.747 631.749 142.238 631.86 135.728C631.899 133.391 632.16 131.057 632.342 128.72C632.456 127.269 632.59 125.816 632.756 124.368C633.539 117.575 634.813 110.89 637.45 104.537C638.819 101.245 640.563 98.1774 643.171 95.6675C645.172 93.741 647.49 92.4241 650.238 91.9026C650.339 91.883 650.436 91.8341 650.541 91.8244C654.165 91.5375 657.731 91.6516 661.06 93.3727C664.86 95.3382 666.777 98.5685 667.236 102.721C667.445 104.596 667.383 104.602 669.209 105.199C671.591 105.978 674.046 106.421 676.523 106.757C677.501 106.89 678.482 107.014 679.463 107.125C681.272 107.327 683.082 107.51 684.894 107.708C686.445 107.878 687.994 108.06 689.545 108.233C690.683 108.36 691.821 108.497 692.961 108.595C696.439 108.892 699.888 109.384 703.281 110.202C704.693 110.544 706.098 110.978 707.441 111.529C708.389 111.92 709.312 112.481 710.094 113.142C711.473 114.312 711.962 115.802 711.411 117.631C710.384 121.034 707.333 123.638 703.829 123.964C703.467 123.997 703.099 123.997 702.737 123.961C699.412 123.638 696.139 123.038 692.968 121.979C689.017 120.659 685.08 119.296 681.132 117.97C677.824 116.858 674.466 115.923 671.014 115.369C668.54 114.971 666.043 114.876 663.537 114.938C662.794 114.958 662.399 115.323 662.148 115.968C661.565 117.481 661.223 119.052 660.988 120.652C660.685 122.722 660.681 124.805 660.691 126.888C660.698 128.606 660.675 130.327 660.698 132.045C660.73 134.274 662.758 136.338 664.958 136.406C665.427 136.422 665.897 136.413 666.366 136.413C675.073 136.413 683.779 136.435 692.485 136.393C694.402 136.383 696.205 136.712 697.962 137.433C700.185 138.346 702.359 139.353 704.344 140.712C704.986 141.152 705.586 141.661 706.146 142.198C706.391 142.433 706.544 142.805 706.632 143.144C706.727 143.509 706.626 143.9 706.254 144.089C705.798 144.324 705.325 144.601 704.833 144.679C703.858 144.829 702.864 144.868 701.876 144.93C700.318 145.031 698.76 145.119 697.199 145.204C696.729 145.23 696.26 145.22 695.794 145.249C694.493 145.328 693.196 145.422 691.899 145.5C691.38 145.533 690.859 145.533 690.337 145.559C688.776 145.644 687.218 145.742 685.657 145.823C685.083 145.852 684.509 145.856 683.939 145.865C681.491 145.908 679.036 145.768 676.601 146.156C676.142 146.227 675.663 146.162 675.197 146.191C674.157 146.257 673.12 146.354 672.084 146.42C671.252 146.472 670.418 146.504 669.587 146.517C668.361 146.54 667.217 146.794 666.197 147.521C665.646 147.912 665.049 148.242 664.466 148.587C663.843 148.952 663.468 149.493 663.289 150.175C663.159 150.677 663.012 151.185 662.953 151.7C662.8 153.095 662.64 154.494 662.575 155.895C662.435 158.809 662.35 161.723 662.249 164.638C662.23 165.211 662.207 165.785 662.236 166.355C662.295 167.649 662.957 168.569 664.185 168.869C664.984 169.064 665.838 169.165 666.66 169.126C669.583 168.992 672.436 168.419 675.226 167.522C676.611 167.076 678.016 166.688 679.418 166.287C681.882 165.586 684.379 165.182 686.957 165.153C689.93 165.117 692.899 165.042 695.869 165.201C697.179 165.273 698.447 165.547 699.696 165.915C700.185 166.059 700.661 166.323 701.075 166.626C701.88 167.216 701.87 167.979 701.065 168.536C700.595 168.859 700.084 169.136 699.559 169.357C697.544 170.205 695.517 171.026 693.489 171.845C688.805 173.729 684.095 175.557 679.434 177.497C676.259 178.817 673.198 180.401 670.255 182.184C667.976 183.563 665.819 185.108 663.912 186.985C662.288 188.586 661.134 190.463 660.355 192.612C657.849 199.512 655.293 206.39 652.761 213.281C652.259 214.65 651.717 216.006 651.284 217.394C650.965 218.421 650.182 218.877 649.309 219.233C648.523 219.552 647.076 218.992 646.707 218.252C646.577 217.988 646.561 217.649 646.554 217.342C646.538 216.299 646.548 215.259 646.548 214.216H646.544L646.535 214.236Z" fill="#F0851D"/>
<path d="M568.19 104.498C568.744 104.736 569.292 105.052 569.882 105.202C571.642 105.652 573.412 106.098 575.198 106.431C577.138 106.793 579.1 107.05 581.059 107.298C582.503 107.48 583.96 107.565 585.407 107.709C586.907 107.858 588.406 108.031 589.906 108.191C591.252 108.334 592.595 108.488 593.941 108.618C597.726 108.983 601.477 109.524 605.157 110.499C606.52 110.861 607.85 111.317 609.085 112.001C609.63 112.305 610.164 112.64 610.637 113.041C612.218 114.387 612.671 115.994 611.944 117.96C610.702 121.311 608.316 123.348 604.76 123.938C604.303 124.013 603.818 124.013 603.358 123.961C600.617 123.655 597.875 123.309 595.242 122.449C591.333 121.174 587.435 119.877 583.54 118.557C580.283 117.452 577.011 116.421 573.64 115.734C570.566 115.108 567.463 114.837 564.324 114.932C563.529 114.955 563.043 115.271 562.799 115.994C562.58 116.633 562.333 117.269 562.176 117.924C561.766 119.648 561.485 121.386 561.475 123.172C561.459 125.93 561.427 128.694 561.296 131.448C561.202 133.476 562.29 134.783 563.751 135.875C564.178 136.194 564.803 136.295 565.354 136.39C565.863 136.475 566.394 136.419 566.916 136.419C575.674 136.419 584.433 136.442 593.191 136.4C595.001 136.39 596.699 136.709 598.371 137.351C600.91 138.326 603.345 139.496 605.555 141.093C606.018 141.426 606.478 141.788 606.849 142.215C607.589 143.059 607.371 144.118 606.298 144.461C605.373 144.754 604.362 144.809 603.384 144.924C602.869 144.982 602.341 144.924 601.823 144.95C600.574 145.018 599.329 145.116 598.084 145.191C597.566 145.223 597.044 145.223 596.523 145.256C595.173 145.337 593.821 145.432 592.471 145.513C592.054 145.54 591.637 145.543 591.223 145.566C589.612 145.654 587.999 145.751 586.389 145.833C585.815 145.862 585.241 145.866 584.671 145.872C582.171 145.911 579.674 145.859 577.177 146.143C574.957 146.394 572.711 146.436 570.475 146.508C569.083 146.553 567.799 146.843 566.652 147.668C566.274 147.942 565.866 148.183 565.449 148.395C564.536 148.858 564.041 149.614 563.868 150.589C563.695 151.56 563.496 152.535 563.421 153.516C563.21 156.267 563.047 159.021 563.076 161.785C563.086 162.871 562.945 163.963 562.851 165.048C562.792 165.73 562.802 166.388 562.998 167.056C563.294 168.06 563.956 168.68 564.931 168.901C565.684 169.074 566.482 169.185 567.251 169.142C569.752 169.009 572.213 168.614 574.621 167.91C576.769 167.281 578.914 166.652 581.069 166.049C583.08 165.485 585.13 165.202 587.23 165.172C590.359 165.123 593.485 165.032 596.611 165.218C597.973 165.299 599.3 165.544 600.571 166.016C601.093 166.212 601.598 166.535 602.009 166.91C602.625 167.47 602.569 168.002 601.882 168.448C601.272 168.843 600.63 169.208 599.962 169.488C597.752 170.41 595.538 171.323 593.302 172.18C588.146 174.152 582.986 176.115 577.985 178.458C574.155 180.251 570.436 182.24 567.079 184.837C566.257 185.473 565.465 186.161 564.715 186.881C563.079 188.456 561.886 190.307 561.101 192.465C558.418 199.854 555.673 207.218 552.952 214.594C552.59 215.572 552.215 216.544 551.899 217.535C551.55 218.63 550.663 219.067 549.695 219.305C548.499 219.601 547.319 218.604 547.29 217.332C547.257 215.928 547.28 214.519 547.277 213.111C547.277 212.694 547.277 212.277 547.277 211.86C547.254 209.793 546.788 209.053 544.78 208.453C543.039 207.932 541.253 207.563 539.473 207.185C537.537 206.775 535.594 206.396 533.756 205.647C532.941 205.314 532.136 204.92 531.406 204.437C529.903 203.447 529.147 202.009 529.238 200.193C529.349 198.006 529.694 195.845 530.287 193.736C530.992 191.233 531.738 188.739 532.497 186.252C533.273 183.706 533.831 181.115 534.131 178.475C534.196 177.908 534.215 177.331 534.196 176.76C534.085 173.168 534 169.576 533.821 165.99C533.684 163.184 533.482 160.381 533.211 157.584C532.409 149.272 532.429 140.944 532.683 132.609C532.742 130.689 532.98 128.772 533.182 126.859C533.391 124.841 533.616 122.823 533.899 120.819C534.685 115.29 535.92 109.866 538.049 104.687C539.121 102.079 540.448 99.5954 542.244 97.3951C544.519 94.6049 547.296 92.6068 550.898 91.9027C551.051 91.8733 551.201 91.8049 551.354 91.7951C554.598 91.6126 557.812 91.6419 560.872 92.9718C564.777 94.6668 567.017 97.6494 567.776 101.792C567.926 102.611 568.034 103.435 568.197 104.501L568.19 104.498Z" fill="#F0851D"/>
<path d="M864.59 217.831C864.082 217.863 864.108 218.284 864.013 218.62C863.541 220.305 862.491 221.56 861.067 222.528C860.851 222.674 860.63 222.811 860.395 222.922C859.293 223.44 858.123 222.749 858.045 221.54C858.022 221.175 858.035 220.81 858.022 220.445C857.892 216.905 857.765 213.368 857.628 209.828C857.553 207.905 857.455 205.979 857.38 204.056C857.253 200.881 857.135 197.706 857.008 194.534C856.924 192.455 856.829 190.375 856.744 188.292C856.621 185.222 856.506 182.151 856.383 179.084C856.291 176.795 856.19 174.507 856.099 172.219C855.985 169.409 855.874 166.599 855.76 163.79C855.665 161.449 855.564 159.109 855.47 156.768C855.359 154.011 855.251 151.253 855.137 148.496C855.062 146.677 855.007 144.855 854.88 143.036C854.694 140.405 853.915 137.931 852.758 135.571C851.444 132.889 849.726 130.473 847.868 128.146C845.688 125.411 843.295 122.872 840.86 120.365C838.139 117.559 835.368 114.801 832.656 111.988C830.413 109.661 828.272 107.242 826.326 104.654C824.725 102.525 823.271 100.302 822.193 97.8575C821.176 95.5529 820.494 93.1669 820.484 90.6179C820.471 87.606 821.785 85.308 824.22 83.6293C825.977 82.42 827.965 81.8072 830.091 81.755C831.805 81.7126 833.51 81.6768 835.228 82.0027C839.185 82.7557 841.923 84.9983 843.579 88.5904C844.143 89.8128 844.609 91.1036 844.948 92.4074C845.548 94.7217 846.03 97.0687 846.539 99.4058C847.223 102.561 847.868 105.723 849.091 108.728C850.059 111.108 851.298 113.324 853.035 115.244C855.747 118.237 859.14 120.062 862.986 121.128C866.68 122.151 870.445 122.526 874.271 122.412C875.041 122.389 875.732 122.187 876.302 121.721C877.062 121.095 877.811 120.437 878.46 119.7C880.292 117.617 881.778 115.283 883.154 112.888C885.383 109.002 887.518 105.064 889.706 101.153C892.652 95.8789 895.557 90.5788 898.581 85.3504C900.984 81.2009 903.644 77.2079 906.639 73.4528C908.559 71.0439 910.619 68.7655 913.064 66.8619C914.801 65.5059 916.649 64.3682 918.824 63.8239C920.32 63.449 921.822 63.5305 923.325 63.6805C923.733 63.7196 924.13 63.8923 924.518 64.0455C925.32 64.365 925.463 64.6975 925.154 65.4896C924.906 66.1187 924.639 66.7412 924.368 67.3638C923.71 68.8926 923.071 70.4344 922.37 71.9468C921.956 72.84 921.493 73.7233 920.965 74.5545C917.448 80.0991 913.856 85.5916 910.394 91.1688C905.309 99.3569 900.537 107.731 896.215 116.349C892.359 124.035 888.861 131.878 886.179 140.063C884.816 144.222 883.682 148.443 882.942 152.756C882.485 155.422 882.12 158.105 882.176 160.827C882.218 162.91 882.137 164.999 882.228 167.079C882.345 169.781 882.577 172.48 882.763 175.179C882.886 176.942 883.014 178.709 883.144 180.472C883.32 182.858 883.499 185.248 883.675 187.634C883.708 188.1 883.747 188.569 883.747 189.035C883.766 195.287 883.77 201.539 883.799 207.791C883.802 208.697 883.6 209.525 883.268 210.363C881.638 214.477 879.78 218.489 877.912 222.498C876.419 225.709 874.949 228.933 873.466 232.147C873.248 232.62 873.007 233.082 872.769 233.542C872.335 234.383 871.572 234.846 870.735 235.162C869.594 235.596 868.186 234.81 867.984 233.61C867.661 231.713 867.407 229.807 867.126 227.903C866.862 226.1 866.605 224.301 866.341 222.498C866.302 222.241 866.2 221.983 866.217 221.729C866.308 220.279 865.545 219.144 864.858 217.984C864.812 217.906 864.691 217.873 864.603 217.814L864.59 217.831Z" fill="#F0851D"/>
<path d="M169.938 144.137C170.127 140.18 170.691 136.282 171.822 132.471C172.34 130.724 173.426 129.593 175.222 129.176C176.845 128.801 178.449 128.318 180.088 128.071C183.491 127.559 184.202 127.872 186.138 130.414C187.742 132.523 189.241 134.717 190.692 136.933C192.155 139.17 193.133 141.634 193.749 144.242C194.007 145.324 194.01 146.409 193.906 147.498C193.867 147.905 193.739 148.316 193.589 148.697C193.306 149.421 192.788 149.91 191.989 150.018C191.063 150.141 190.134 150.272 189.202 150.347C187.647 150.474 186.086 150.516 184.534 150.669C182.758 150.846 181.086 151.422 179.453 152.13C178.022 152.749 176.587 153.349 175.088 153.815C173.804 154.213 172.868 153.903 172.027 152.945C171.535 152.384 171.167 151.758 170.978 151.051C170.378 148.785 169.745 146.523 169.934 144.134L169.938 144.137Z" fill="#F0851D"/>
</svg>
