<svg xmlns="http://www.w3.org/2000/svg" width="40" height="40" fill="#fff" viewBox="0 0 394 395"><path d="M196.643 21.02c23.725 0 46.727 4.65 68.368 13.827a174.5 174.5 0 0 1 29.83 16.224 178.7 178.7 0 0 1 26.014 21.495A176.3 176.3 0 0 1 342.31 98.63a176.4 176.4 0 0 1 16.195 29.887c9.159 21.681 13.801 44.726 13.801 68.494s-4.642 46.814-13.801 68.495a175 175 0 0 1-16.195 29.886 179 179 0 0 1-21.455 26.063 176 176 0 0 1-26.014 21.495 174.5 174.5 0 0 1-29.83 16.225c-21.641 9.177-44.643 13.827-68.368 13.827s-46.726-4.65-68.367-13.827a174.5 174.5 0 0 1-29.83-16.225 178.7 178.7 0 0 1-26.015-21.495 176.2 176.2 0 0 1-21.455-26.063c-6.333-9.404-11.8-19.469-16.194-29.886-9.16-21.681-13.802-44.726-13.802-68.495 0-23.768 4.642-46.813 13.802-68.494a175 175 0 0 1 16.194-29.887 179 179 0 0 1 21.455-26.063 176 176 0 0 1 26.014-21.495 174.5 174.5 0 0 1 29.831-16.224c21.641-9.177 44.643-13.827 68.367-13.827m0-21.02C88.027 0 0 88.192 0 197.01c0 108.819 88.027 197.011 196.643 197.011s196.644-88.192 196.644-197.011C393.287 88.192 305.239 0 196.643 0"/><path d="M136.96 121.509v-14.53c0-11.74 7.674-21.309 19.227-23.334 8.726-1.55 16.813.082 23.229 6.779 4.209 4.381 6.395 9.693 6.478 15.77.082 5.043 0 10.107 0 15.232h26.53c0-.31.041-.64.041-.992v-13.786c.041-13.041 10.336-23.355 23.353-23.479 4.497-.041 8.85.393 12.852 2.563 8.211 4.464 12.502 11.409 12.729 20.751.124 4.94.021 9.88.021 14.985h34.472c6.437 0 10.707 4.299 11.285 10.726.495 5.498-.908 10.521-2.724 15.543a51.4 51.4 0 0 1-7.983 14.427c-2.703 3.43-5.735 6.634-8.851 9.714-4.043 3.968-8.293 7.73-12.522 11.533-2.31 2.066-4.373 4.319-5.694 7.151-.371.806-.701 1.757-.701 2.625-.041 21.164.041 42.328-.062 63.493-.124 25.442-18.897 48.116-43.818 52.952a65 65 0 0 1-11.676 1.137c-10.955.144-21.909.062-32.863.041-26.737 0-49.141-18.271-54.381-44.499a58 58 0 0 1-1.01-11.016c-.104-20.627-.042-41.254-.062-61.86 0-.641-.145-1.282-.413-1.86-1.671-3.886-4.621-6.738-7.695-9.529a806 806 0 0 1-12.316-11.408c-4.745-4.485-8.974-9.405-12.068-15.192-3.466-6.49-6.416-13.227-6.416-20.813q0-2.573.557-5.084c1.155-4.816 5.426-8.061 10.397-8.081h40.043zm38.103 23.355h-42.167c-2.703 0-5.034 1.819-5.384 4.485-.227 1.53-.207 3.1.061 4.63.929 4.733 2.992 9.011 6.272 12.525 3.28 3.513 6.87 6.634 10.191 10.045 2.517 2.563 4.126 5.621 4.126 9.404q-.031 34.66 0 69.321c0 1.633.083 3.266.309 4.878 2.332 15.873 15.617 27.323 31.626 27.323h32.987c1.63 0 3.26-.082 4.889-.289 15.7-2.17 27.397-15.584 27.417-31.457 0-3.844-.041-7.709.021-11.554 0-.888-.248-1.26-1.114-1.529a97.7 97.7 0 0 1-23.064-10.5c-16.545-10.292-29.233-24.099-37.443-41.894-3.941-8.536-6.643-17.444-7.592-26.807-.619-6.139-.743-12.318-1.114-18.622zm68.698 61.964c.061-5.787-4.56-10.52-10.315-10.603-5.777-.062-10.501 4.568-10.583 10.355-.062 5.787 4.559 10.52 10.314 10.603h.021c5.756.082 10.48-4.527 10.542-10.293v-.062z"/><path d="M179.187 206.724c-.021 5.788-4.724 10.459-10.48 10.438-5.776-.021-10.438-4.733-10.418-10.52s4.724-10.458 10.501-10.438h.041c5.756 0 10.397 4.713 10.377 10.458v.042z"/></svg>