<svg xmlns="http://www.w3.org/2000/svg" viewBox="0 0 394 395" width="40" height="40" fill="#fff"><path d="M196.643 21.0197c23.725 0 46.727 4.6503 68.368 13.8271 10.397 4.4023 20.444 9.8588 29.83 16.2246 9.304 6.3038 18.051 13.5377 26.014 21.495 7.963 7.978 15.184 16.7414 21.455 26.0628 6.334 9.4038 11.801 19.4698 16.195 29.8868 9.159 21.681 13.801 44.726 13.801 68.494 0 23.769-4.642 46.814-13.801 68.495-4.394 10.417-9.841 20.482-16.195 29.886-6.292 9.322-13.512 18.085-21.455 26.063-7.963 7.978-16.71 15.212-26.014 21.495-9.386 6.366-19.433 11.823-29.83 16.225-21.641 9.177-44.643 13.827-68.368 13.827-23.724 0-46.726-4.65-68.367-13.827-10.397-4.402-20.444-9.859-29.8306-16.225-9.304-6.304-18.051-13.537-26.0141-21.495-7.9632-7.978-15.1836-16.741-21.455-26.063-6.3334-9.404-11.8003-19.469-16.1944-29.886-9.1597-21.681-13.8014-44.726-13.8014-68.495 0-23.768 4.6417-46.813 13.8014-68.494 4.3941-10.417 9.8404-20.483 16.1944-29.8868 6.292-9.3214 13.5125-18.0848 21.455-26.0628 7.9631-7.9779 16.7101-15.2118 26.0141-21.495 9.3866-6.3658 19.4336-11.8223 29.8306-16.2246 21.641-9.1768 44.643-13.8271 68.367-13.8271Zm0-21.0197C88.0274 0 0 88.1917 0 197.01c0 108.819 88.0274 197.011 196.643 197.011 108.616 0 196.644-88.192 196.644-197.011C393.287 88.1917 305.239 0 196.643 0Z"/><path d="M136.96 121.509v-14.53c0-11.7394 7.674-21.3089 19.227-23.3344 8.726-1.5501 16.813.0827 23.229 6.7792 4.209 4.3817 6.395 9.6932 6.478 15.7702.082 5.043 0 10.107 0 15.232h26.53c0-.31.041-.64.041-.992v-13.786c.041-13.0412 10.336-23.3547 23.353-23.4787 4.497-.0414 8.85.3927 12.852 2.5628 8.211 4.4644 12.502 11.4089 12.729 20.7509.124 4.94.021 9.88.021 14.985h34.472c6.437 0 10.707 4.299 11.285 10.726.495 5.498-.908 10.521-2.724 15.543-1.877 5.208-4.559 10.086-7.983 14.427-2.703 3.43-5.735 6.634-8.851 9.714-4.043 3.968-8.293 7.73-12.522 11.533-2.31 2.066-4.373 4.319-5.694 7.151-.371.806-.701 1.757-.701 2.625-.041 21.164.041 42.328-.062 63.493-.124 25.442-18.897 48.116-43.818 52.952-3.857.723-7.756 1.116-11.676 1.137-10.955.144-21.909.062-32.863.041-26.737 0-49.141-18.271-54.381-44.499-.68-3.637-1.031-7.316-1.01-11.016-.104-20.627-.042-41.254-.062-61.86 0-.641-.145-1.282-.413-1.86-1.671-3.886-4.621-6.738-7.695-9.529-4.146-3.761-8.252-7.564-12.316-11.408-4.7447-4.485-8.9738-9.405-12.0683-15.192-3.4658-6.49-6.4158-13.227-6.4158-20.813 0-1.715.1856-3.41.557-5.084 1.1552-4.816 5.4256-8.061 10.3974-8.081h40.0427l.041.041Zm38.103 23.355h-42.167c-2.703 0-5.034 1.819-5.384 4.485-.227 1.53-.207 3.1.061 4.63.929 4.733 2.992 9.011 6.272 12.525 3.28 3.513 6.87 6.634 10.191 10.045 2.517 2.563 4.126 5.621 4.126 9.404-.021 23.107-.021 46.214 0 69.321 0 1.633.083 3.266.309 4.878 2.332 15.873 15.617 27.323 31.626 27.323h32.987c1.63 0 3.26-.082 4.889-.289 15.7-2.17 27.397-15.584 27.417-31.457 0-3.844-.041-7.709.021-11.554 0-.888-.248-1.26-1.114-1.529-8.108-2.48-15.864-6.015-23.064-10.5-16.545-10.292-29.233-24.099-37.443-41.894-3.941-8.536-6.643-17.444-7.592-26.807-.619-6.139-.743-12.318-1.114-18.622l-.021.041Zm68.698 61.964c.061-5.787-4.56-10.52-10.315-10.603-5.777-.062-10.501 4.568-10.583 10.355-.062 5.787 4.559 10.52 10.314 10.603h.021c5.756.082 10.48-4.527 10.542-10.293v-.062h.021Z"/><path d="M179.187 206.724c-.021 5.788-4.724 10.459-10.48 10.438-5.776-.021-10.438-4.733-10.418-10.52.021-5.787 4.724-10.458 10.501-10.438h.041c5.756 0 10.397 4.713 10.377 10.458v.042l-.021.02Z"/></svg>