<svg xmlns="http://www.w3.org/2000/svg" width="117" height="40" fill="#fff" viewBox="0 0 1153 394"><path d="M588.484 190.769a5.1 5.1 0 0 0 2.991 1.612c14.565 4.485 25.478 16.658 28.366 31.643 3.549 15.46 1.238 29.907-9.262 42.39a48.6 48.6 0 0 1-17.371 12.815 78.54 78.54 0 0 1-32.595 7.275c-29.335.227-58.671 0-88.006 0-.826 0-1.63-.103-2.394-.165-.99-3.597-1.237-173.428-.288-179.318a10.2 10.2 0 0 1 4.786-.414h79.61a79.6 79.6 0 0 1 40.373 9.838c25.87 14.861 24.921 44.933 12.997 60.31a39.24 39.24 0 0 1-14.916 11.926zm-73.421 58.573a6.3 6.3 0 0 0 1.629.455h36.185c23.25-.723 23.663-35.88.433-36.955h-34.348c-1.279 0-2.662-.351-3.837.765zm0-71.491c.784.165 1.568.269 2.352.331h32.141a27.3 27.3 0 0 0 6.333-.889c8.314-1.654 14.028-9.363 13.203-17.816-.412-8.474-5.673-14.075-14.564-15.46a30 30 0 0 0-4.931-.331h-31.13c-1.094 0-2.332-.351-3.404.868zm536.417-28.047c9.26 26.29 18.46 52.477 27.64 78.54.52 1.446 2.11 2.211 3.55 1.715h.04a2.76 2.76 0 0 0 1.7-1.695c4.58-12.049 8.12-24.306 12-36.459 4.46-13.971 8.81-27.964 13.25-42.08a2.83 2.83 0 0 1 2.68-2.067h37.9c1.52 0 2.76 1.24 2.76 2.769v.042c0 .372-.06.723-.21 1.054-18.27 48.88-36.55 97.761-54.85 146.6a82.4 82.4 0 0 1-10.32 19.697 47.34 47.34 0 0 1-34.49 19.904c-15.59 1.736-30.22-1.054-43.22-10.438l-2.78-2.067-1.94-1.467 16.87-29.246a2.804 2.804 0 0 1 3.84-1.013l.39.269c.48.393.91.827 1.38 1.158a23.86 23.86 0 0 0 11.87 4.547 16.5 16.5 0 0 0 16.5-8.495c.25-.413.43-.868.66-1.282 2.37-4.381 2.6-9.59.64-14.157a18428 18428 0 0 1-48.27-118.264c-1.04-2.563-2.07-5.126-3.12-7.689-.23-.599-.41-1.426.12-1.777.25-.124.52-.186.79-.166h41.86c1.3-.02 2.43.848 2.76 2.088zm-170.073 92.243 18.01 18.725a3.9 3.9 0 0 1 0 5.457 69.9 69.9 0 0 1-43.57 21.226 89.4 89.4 0 0 1-35.422-2.232c-25.539-6.738-44.168-28.729-46.644-55.081-1.506-13.29-1.114-26.456 3.239-39.27 8.83-25.525 27.17-39.993 53.865-44.127a82.5 82.5 0 0 1 30.944 1.282c17.433 3.658 32.142 15.335 39.692 31.498 7.241 14.468 8.933 29.928 8.561 46.256a3.856 3.856 0 0 1-3.816 3.782c-3.961.103-7.819 0-11.676 0h-60.817c-3.528 0-7.035-.124-10.769 0-2.145.041-3.858 1.839-3.816 3.989 0 .475.103.93.268 1.364 1.63 4.258 4.25 8.061 7.674 11.058 9.614 8.412 20.63 8.928 32.162 5.58a40.9 40.9 0 0 0 15.41-8.619l1.362-1.157a3.897 3.897 0 0 1 5.343.269m-18.567-37.803a3.92 3.92 0 0 0 3.92-3.927v-.372c-.805-10.168-8.17-18.622-18.134-20.792-16.504-3.617-27.54 8.267-30.573 20.317a3.88 3.88 0 0 0 2.847 4.671c.309.062.639.062.949 0zm-124.831 37.699 18.031 18.85a3.84 3.84 0 0 1 0 5.25 65.2 65.2 0 0 1-21.311 15.294 84.14 84.14 0 0 1-39.506 6.738 75.8 75.8 0 0 1-23.641-4.547c-22.508-8.474-35.793-24.988-40.332-48.364a84.4 84.4 0 0 1 2.847-45.47c9.407-25.691 28.119-39.559 54.937-42.949a83 83 0 0 1 30.945 1.798c17.969 4.444 30.759 15.274 38.784 31.871 7.241 15.005 8.685 31.002 7.943 47.392a7 7 0 0 1-.681 1.798h-86.48a3.793 3.793 0 0 0-3.796 3.762c0 .579.123 1.137.371 1.653.309.641.64 1.261.928 1.881 5.282 11.058 16.876 17.651 29.047 16.535a43.03 43.03 0 0 0 26.633-11.616 3.776 3.776 0 0 1 5.281.124m-64.571-37.988c6.684 1.178 47.139.827 50.399-.372-.372-8.474-3.053-15.935-10.315-20.834a23.54 23.54 0 0 0-24.756-1.653c-9.325 4.63-13.347 13.062-15.328 22.859"/><path d="M1012.1 101.667c-1.67 10.066-3.26 19.759-4.89 29.597-.25 1.468-1.63 2.481-3.1 2.253h-.24c-2.56-.661-4.873-1.26-7.184-1.922-.454-.124-.908-.248-1.362-.331-8.623-1.322-16.689 4.589-18.03 13.228a14.2 14.2 0 0 0-.186 2.646v4.319a2.716 2.716 0 0 0 2.682 2.667h23.31c1.36 0 2.5 1.012 2.68 2.356.75 8.577.85 17.196.33 25.773a2.697 2.697 0 0 1-2.62 2.501c-7.732.186-15.572 0-23.782 0-1.465.041-2.62 1.24-2.641 2.708v96.128a2.697 2.697 0 0 1-2.702 2.687h-38.496a2.68 2.68 0 0 1-2.682-2.687v-96.025c0-1.405-1.093-2.563-2.496-2.687-4.373-.393-8.582 0-12.811-.207-1.444-.103-2.537-1.343-2.496-2.79v-24.926a2.715 2.715 0 0 1 2.641-2.707c4.352-.31 8.582 0 12.728-.124 1.3-.083 2.373-1.096 2.496-2.398a26 26 0 0 1 0-3.079c-.123-5.126.062-10.231.557-15.336 2.971-19.635 15.163-32.78 34.411-37.493 14.193-3.451 27.974-1.88 42.083 2.832 1.26.434 2 1.715 1.8 3.017M196.643 21.02c23.725 0 46.727 4.65 68.368 13.827a174.5 174.5 0 0 1 29.83 16.224 178.7 178.7 0 0 1 26.014 21.495A176.3 176.3 0 0 1 342.31 98.63a176.4 176.4 0 0 1 16.195 29.887c9.159 21.681 13.801 44.726 13.801 68.494s-4.642 46.814-13.801 68.495a175 175 0 0 1-16.195 29.886 179 179 0 0 1-21.455 26.063 176 176 0 0 1-26.014 21.495 174.5 174.5 0 0 1-29.83 16.225c-21.641 9.177-44.643 13.827-68.368 13.827s-46.726-4.65-68.367-13.827a174.5 174.5 0 0 1-29.83-16.225 178.7 178.7 0 0 1-26.015-21.495 176.2 176.2 0 0 1-21.455-26.063c-6.333-9.404-11.8-19.469-16.194-29.886-9.16-21.681-13.801-44.726-13.801-68.495 0-23.768 4.641-46.813 13.8-68.494a175 175 0 0 1 16.195-29.887 179 179 0 0 1 21.455-26.063 176 176 0 0 1 26.014-21.495 174.5 174.5 0 0 1 29.831-16.224c21.641-9.177 44.643-13.827 68.367-13.827m0-21.02C88.027 0 0 88.192 0 197.01c0 108.819 88.027 197.011 196.643 197.011s196.644-88.192 196.644-197.011C393.287 88.192 305.239 0 196.643 0"/><path d="M136.96 121.509v-14.53c0-11.74 7.674-21.309 19.227-23.334 8.726-1.55 16.813.082 23.229 6.779 4.209 4.381 6.395 9.693 6.478 15.77.082 5.043 0 10.107 0 15.232h26.53c0-.31.041-.64.041-.992v-13.786c.041-13.041 10.336-23.355 23.353-23.479 4.497-.041 8.85.393 12.852 2.563 8.211 4.464 12.502 11.409 12.729 20.751.124 4.94.021 9.88.021 14.985h34.472c6.437 0 10.707 4.299 11.285 10.726.495 5.498-.908 10.521-2.724 15.543a51.4 51.4 0 0 1-7.983 14.427c-2.703 3.43-5.735 6.634-8.851 9.714-4.043 3.968-8.293 7.73-12.522 11.533-2.31 2.066-4.373 4.319-5.694 7.151-.371.806-.701 1.757-.701 2.625-.041 21.164.041 42.328-.062 63.493-.124 25.442-18.897 48.116-43.818 52.952a65 65 0 0 1-11.676 1.137c-10.955.144-21.909.062-32.863.041-26.737 0-49.141-18.271-54.381-44.499a58 58 0 0 1-1.01-11.016c-.104-20.627-.042-41.254-.062-61.86 0-.641-.145-1.282-.413-1.86-1.671-3.886-4.621-6.738-7.695-9.529a806 806 0 0 1-12.316-11.408c-4.745-4.485-8.974-9.405-12.068-15.192-3.466-6.49-6.416-13.227-6.416-20.813q0-2.573.557-5.084c1.155-4.816 5.426-8.061 10.397-8.081h40.043zm38.103 23.355h-42.167c-2.703 0-5.034 1.819-5.384 4.485-.227 1.53-.207 3.1.061 4.63.929 4.733 2.992 9.011 6.272 12.525 3.28 3.513 6.87 6.634 10.191 10.045 2.517 2.563 4.126 5.621 4.126 9.404q-.031 34.66 0 69.321c0 1.633.083 3.266.309 4.878 2.332 15.873 15.617 27.323 31.626 27.323h32.987c1.63 0 3.26-.082 4.889-.289 15.7-2.17 27.397-15.584 27.417-31.457 0-3.844-.041-7.709.021-11.554 0-.888-.248-1.26-1.114-1.529a97.7 97.7 0 0 1-23.064-10.5c-16.545-10.292-29.233-24.099-37.443-41.894-3.941-8.536-6.643-17.444-7.592-26.807-.619-6.139-.743-12.318-1.114-18.622zm68.698 61.964c.061-5.787-4.56-10.52-10.315-10.603-5.777-.062-10.501 4.568-10.583 10.355-.062 5.787 4.559 10.52 10.314 10.603h.021c5.756.082 10.48-4.527 10.542-10.293v-.062z"/><path d="M179.187 206.724c-.021 5.788-4.724 10.459-10.48 10.438-5.776-.021-10.438-4.733-10.418-10.52s4.724-10.458 10.501-10.438h.041c5.756 0 10.397 4.713 10.377 10.458v.042z"/></svg>