<svg xmlns="http://www.w3.org/2000/svg" viewBox="0 0 558.9 190.62" width="558.9" height="190.62" preserveAspectRatio="xMinYMin meet"><defs><style>.cls-1{fill:#c4baae;}.cls-2{fill:#f6eee4;}.cls-3{fill:#030202;}</style></defs><path class="cls-1" d="M0,97.63V93.35C.45,90.24.65,87.1.82,84c3-26.34,15.53-47.35,36-63.8A87.59,87.59,0,0,1,80,1.17c26.36-3.71,50.81,1.18,72.29,17.52C169.72,32,182,49,187.67,70.35a97.41,97.41,0,0,1,2.79,32.81c-1.16,15.1-5.33,29.25-13.55,42-14.49,22.49-34.38,37.9-60.86,43.17-37.71,7.51-69.47-3.43-94.49-32.87a88.55,88.55,0,0,1-20-43.21c-.3-1.74-.5-3.48-.74-5.23Zm180.25-2.5a61.73,61.73,0,0,0-1.07-15.5,81.45,81.45,0,0,0-9.55-26.19A91.26,91.26,0,0,0,147.42,28a79.42,79.42,0,0,0-28.15-14.48,70.8,70.8,0,0,0-18.58-3c-1.51,0-3-.5-4.51-.29a33.63,33.63,0,0,1-5.48.3,39.86,39.86,0,0,0-6.66.64,87.87,87.87,0,0,0-23.61,6.71A85.12,85.12,0,0,0,16.56,63.58a83.46,83.46,0,0,0-6,26.71,86.11,86.11,0,0,0,.8,17.19,82.31,82.31,0,0,0,6.42,22.72c6.26,13.86,15.86,25.08,27.92,34.14,14.38,10.8,30.86,15.66,48.73,16.07,2.71.06,5.4-.15,8.11-.36a84.2,84.2,0,0,0,10.17-1.34,79.1,79.1,0,0,0,23.72-8.7,89.41,89.41,0,0,0,29.06-26.28,77.29,77.29,0,0,0,10.85-21.53A75.27,75.27,0,0,0,180.25,95.13Z"/><path class="cls-2" d="M285.26,92.3a2.55,2.55,0,0,0,1.45.78,20,20,0,0,1,13.75,15.31c1.72,7.48.6,14.47-4.49,20.51a23.57,23.57,0,0,1-8.42,6.2,38.12,38.12,0,0,1-15.8,3.52c-14.22.11-28.44,0-42.66,0-.4,0-.79-.05-1.16-.08-.48-1.74-.6-83.91-.14-86.76a4.92,4.92,0,0,1,2.32-.2c12.86,0,25.73,0,38.59,0,6.88,0,13.51,1.29,19.57,4.76,12.54,7.19,12.08,21.74,6.3,29.18a19,19,0,0,1-7.23,5.77Zm-35.59,28.34a3.59,3.59,0,0,0,.79.22c5.75,0,11.49,0,17.23,0H268c11.27-.35,11.47-17.36.21-17.88l-.86,0c-5.26,0-10.53,0-15.79,0-.62,0-1.29-.17-1.86.37Zm0-34.59a9.13,9.13,0,0,0,1.14.16c5.2,0,10.39,0,15.58,0a13.85,13.85,0,0,0,3.07-.43,8,8,0,0,0,6.4-8.62c-.2-4.1-2.75-6.81-7.06-7.48a14.62,14.62,0,0,0-2.39-.16q-7.55,0-15.09,0c-.53,0-1.13-.17-1.65.42Z"/><path class="cls-2" d="M509.69,72.48q6.73,19.08,13.4,38a1.36,1.36,0,0,0,2.56,0c2.22-5.83,3.94-11.76,5.82-17.64,2.16-6.76,4.27-13.53,6.42-20.36a1.36,1.36,0,0,1,1.3-1h18.37a1.35,1.35,0,0,1,1.24,1.87q-13.29,35.47-26.59,70.93a39.94,39.94,0,0,1-5,9.53,23,23,0,0,1-16.72,9.63c-7.56.84-14.65-.51-20.95-5.05l-1.35-1-.94-.71,8.18-14.15a1.36,1.36,0,0,1,2.05-.36c.23.19.44.4.67.56a11.71,11.71,0,0,0,5.75,2.2,8,8,0,0,0,8-4.11c.12-.2.21-.42.32-.62a7.85,7.85,0,0,0,.31-6.85q-11.79-28.57-23.4-57.22c-.5-1.24-1-2.48-1.51-3.72-.11-.29-.2-.69.06-.86a.71.71,0,0,1,.38-.08c6.77,0,13.53,0,20.29,0A1.35,1.35,0,0,1,509.69,72.48Z"/><path class="cls-2" d="M427.25,117.11l8.73,9.06a1.89,1.89,0,0,1,0,2.64v0a34,34,0,0,1-21.12,10.27A43.55,43.55,0,0,1,397.69,138a30.54,30.54,0,0,1-22.61-26.65c-.73-6.43-.54-12.8,1.57-19C380.93,80,389.82,73,402.76,71a40.08,40.08,0,0,1,15,.62A27.46,27.46,0,0,1,437,86.86c3.51,7,4.33,14.48,4.15,22.38a1.88,1.88,0,0,1-1.85,1.83c-1.92.05-3.79,0-5.66,0-2.47,0-4.95,0-7.43,0H411.59c-2.48,0-4.95,0-7.43,0-1.71,0-3.41-.06-5.22,0a1.89,1.89,0,0,0-1.72,2.59,13.56,13.56,0,0,0,3.72,5.35c4.66,4.07,10,4.32,15.59,2.7a19.92,19.92,0,0,0,7.47-4.17l.66-.56A1.89,1.89,0,0,1,427.25,117.11Zm-9-18.29a1.9,1.9,0,0,0,1.89-2.08,11.2,11.2,0,0,0-8.79-10.06c-8-1.75-13.35,4-14.82,9.83a1.87,1.87,0,0,0,1.84,2.31Z"/><path class="cls-2" d="M357.74,117.06l8.74,9.12a1.86,1.86,0,0,1,0,2.54,31.61,31.61,0,0,1-10.33,7.4,40.88,40.88,0,0,1-19.11,3.26,37,37,0,0,1-11.46-2.2c-10.91-4.1-17.35-12.09-19.55-23.4a40.7,40.7,0,0,1,1.38-22C311.93,79.35,321,72.64,334,71a40.22,40.22,0,0,1,15,.87c8.71,2.15,14.91,7.39,18.8,15.42,3.51,7.26,4.21,15,3.85,22.93a3.87,3.87,0,0,1-.33.87H329.4a1.83,1.83,0,0,0-1.66,2.62c.15.31.31.61.45.91a14.2,14.2,0,0,0,14.08,8A20.93,20.93,0,0,0,355.18,117h0A1.83,1.83,0,0,1,357.74,117.06Zm-31.3-18.38c3.24.57,22.85.4,24.43-.18-.18-4.1-1.48-7.71-5-10.08a11.4,11.4,0,0,0-12-.8C329.35,89.86,327.4,93.94,326.44,98.68Z"/><path class="cls-2" d="M490.6,49.19c-.81,4.87-1.58,9.56-2.37,14.32a1.31,1.31,0,0,1-1.62,1.06c-1.24-.32-2.36-.61-3.48-.93a5.28,5.28,0,0,0-.66-.16,7.66,7.66,0,0,0-8.83,7.68c0,.68,0,1.37,0,2.09a1.31,1.31,0,0,0,1.3,1.29h11.3a1.31,1.31,0,0,1,1.3,1.14,84.81,84.81,0,0,1,.16,12.47,1.31,1.31,0,0,1-1.27,1.21c-3.75.09-7.55,0-11.53,0a1.31,1.31,0,0,0-1.28,1.31v46.51a1.31,1.31,0,0,1-1.31,1.3H453.65a1.3,1.3,0,0,1-1.3-1.3V90.75a1.32,1.32,0,0,0-1.21-1.3c-2.12-.19-4.16,0-6.21-.1A1.32,1.32,0,0,1,443.72,88V75.94A1.32,1.32,0,0,1,445,74.63c2.11-.15,4.16,0,6.17-.06a1.29,1.29,0,0,0,1.21-1.16c0-.5-.06-1,0-1.49a61.35,61.35,0,0,1,.27-7.42C454.09,55,460,48.64,469.33,46.36c6.88-1.67,13.56-.91,20.4,1.37A1.32,1.32,0,0,1,490.6,49.19Z"/><path class="cls-2" d="M180.25,95.13a75.27,75.27,0,0,1-3.92,27.07,77.29,77.29,0,0,1-10.85,21.53A89.41,89.41,0,0,1,136.42,170a79.1,79.1,0,0,1-23.72,8.7,84.2,84.2,0,0,1-10.17,1.34c-2.71.21-5.4.42-8.11.36-17.87-.41-34.35-5.27-48.73-16.07C33.63,155.28,24,144.06,17.77,130.2a82.31,82.31,0,0,1-6.42-22.72,86.11,86.11,0,0,1-.8-17.19,83.46,83.46,0,0,1,6-26.71A85.12,85.12,0,0,1,60.43,17.85,87.87,87.87,0,0,1,84,11.14a39.86,39.86,0,0,1,6.66-.64,33.63,33.63,0,0,0,5.48-.3c1.46-.21,3,.27,4.51.29a70.8,70.8,0,0,1,18.58,3A79.42,79.42,0,0,1,147.42,28a91.26,91.26,0,0,1,22.21,25.47,81.45,81.45,0,0,1,9.55,26.19A61.73,61.73,0,0,1,180.25,95.13ZM65.12,59.64H56.49c-3.36,0-6.72,0-10.07,0-4.21,0-6.18,2-6.3,6.14a16.68,16.68,0,0,0,1.28,6.77,29.57,29.57,0,0,0,7.29,10.86q3.75,3.53,7.55,7a8.72,8.72,0,0,1,3,7c-.15,9.11,0,18.23,0,27.35a31.77,31.77,0,0,0,.33,5.26,26.92,26.92,0,0,0,26.5,22.59c5.52.07,11,0,16.55,0a28.2,28.2,0,0,0,6.41-.73,26.88,26.88,0,0,0,20.85-26c.09-9.92.07-19.84,0-29.75a6.35,6.35,0,0,1,1.73-4.56c.81-.88,1.7-1.7,2.58-2.5a92.88,92.88,0,0,0,8.54-8.41,26.71,26.71,0,0,0,5.64-11,13.29,13.29,0,0,0,.29-5.47,5.14,5.14,0,0,0-4.16-4.39,11,11,0,0,0-2.62-.2c-4.56,0-9.11,0-13.67,0-.6,0-1.29.25-1.84-.43,0-1.77,0-3.61,0-5.45a18.58,18.58,0,0,0-.49-4.52c-1.39-5.13-6.18-8.45-12-8.36a11.62,11.62,0,0,0-11.28,8.71,18.55,18.55,0,0,0-.41,4.28A31.07,31.07,0,0,1,102,59.6c-2.19,0-4.26,0-6.32,0s-4.26.24-6.47-.21c0-2.53,0-4.92,0-7.31a10.7,10.7,0,0,0-3-7.39,12.43,12.43,0,0,0-13.88-3c-4.44,1.71-7.14,5.74-7.23,10.86C65.09,54.82,65.12,57.05,65.12,59.64Z"/><path class="cls-3" d="M65.12,59.64c0-2.59,0-4.82,0-7,.09-5.12,2.79-9.15,7.23-10.86a12.43,12.43,0,0,1,13.88,3,10.7,10.7,0,0,1,3,7.39c0,2.39,0,4.78,0,7.31,2.21.45,4.35.15,6.47.21s4.13,0,6.32,0a31.07,31.07,0,0,0,.18-5.76,18.55,18.55,0,0,1,.41-4.28,11.62,11.62,0,0,1,11.28-8.71c5.84-.09,10.63,3.23,12,8.36a18.58,18.58,0,0,1,.49,4.52c0,1.84,0,3.68,0,5.45.55.68,1.24.43,1.84.43,4.56,0,9.11,0,13.67,0a11,11,0,0,1,2.62.2,5.14,5.14,0,0,1,4.16,4.39,13.29,13.29,0,0,1-.29,5.47,26.71,26.71,0,0,1-5.64,11,92.88,92.88,0,0,1-8.54,8.41c-.88.8-1.77,1.62-2.58,2.5a6.35,6.35,0,0,0-1.73,4.56c.06,9.91.08,19.83,0,29.75a26.88,26.88,0,0,1-20.85,26,28.2,28.2,0,0,1-6.41.73c-5.52,0-11,.07-16.55,0A26.92,26.92,0,0,1,59.56,130a31.77,31.77,0,0,1-.33-5.26c0-9.12-.16-18.24,0-27.35a8.72,8.72,0,0,0-3-7q-3.8-3.51-7.55-7A29.57,29.57,0,0,1,41.4,72.55a16.68,16.68,0,0,1-1.28-6.77c.12-4.12,2.09-6.1,6.3-6.14,3.35,0,6.71,0,10.07,0ZM83.87,71.51a1.9,1.9,0,0,0-1.55-.39c-6.08,0-12.15,0-18.22,0-2.94,0-4.1,1.35-3.62,4.24a11.87,11.87,0,0,0,3.25,6.55c1.34,1.36,2.68,2.74,4.11,4a8,8,0,0,1,2.79,6.57c-.12,5.51,0,11,0,16.54,0,5.36,0,10.71,0,16.07a15.71,15.71,0,0,0,16.32,16.06c5.43-.2,10.86,0,16.3-.07a15.44,15.44,0,0,0,14.1-9.79c1.56-3.91,1.06-8,1-11.8C95.87,111.06,83.87,95.45,83.87,71.51Zm28.6,35.1a5.12,5.12,0,1,0,0-10.24,5.12,5.12,0,1,0,0,10.24Zm5.82-47c0-2.59.1-5,0-7.51-.1-1.94-1.47-3-3.57-3.13-2.42-.14-4.11.82-4.32,2.82a37.86,37.86,0,0,0,0,7.82Zm-37.41,0c.12-.23.25-.36.25-.5,0-1.9.09-3.81.09-5.71A7.51,7.51,0,0,0,81,51.49c-.49-1.82-2.07-2.75-4.28-2.57-2,.16-3.38,1.3-3.46,3.22-.11,2.45,0,4.9,0,7.45Z"/><path class="cls-2" d="M83.87,71.51c0,23.94,12,39.55,34.48,48,0,3.84.53,7.89-1,11.8a15.44,15.44,0,0,1-14.1,9.79c-5.44.08-10.87-.13-16.3.07A15.71,15.71,0,0,1,70.6,125.11c0-5.36,0-10.71,0-16.07,0-5.51-.08-11,0-16.54a8,8,0,0,0-2.79-6.57c-1.43-1.28-2.77-2.66-4.11-4a11.87,11.87,0,0,1-3.25-6.55c-.48-2.89.68-4.23,3.62-4.24,6.07,0,12.14,0,18.22,0A1.9,1.9,0,0,1,83.87,71.51Zm2,30.06a5.11,5.11,0,1,0-5.23,5A5,5,0,0,0,85.85,101.57Z"/><path class="cls-2" d="M112.47,106.61a5.12,5.12,0,1,1,0-10.24,5.12,5.12,0,1,1,0,10.24Z"/><path class="cls-2" d="M118.29,59.58h-7.9a37.86,37.86,0,0,1,0-7.82c.21-2,1.9-3,4.32-2.82,2.1.12,3.47,1.19,3.57,3.13C118.39,54.53,118.29,57,118.29,59.58Z"/><path class="cls-2" d="M80.88,59.59H73.23c0-2.55-.08-5,0-7.45.08-1.92,1.42-3.06,3.46-3.22,2.21-.18,3.79.75,4.28,2.57a7.51,7.51,0,0,1,.22,1.89c0,1.9,0,3.81-.09,5.71C81.13,59.23,81,59.36,80.88,59.59Z"/><path class="cls-3" d="M85.85,101.57a5.11,5.11,0,1,1-5.08-5.19A5,5,0,0,1,85.85,101.57Z"/></svg>