<svg width="531" height="562" viewBox="0 0 531 562" fill="none" xmlns="http://www.w3.org/2000/svg">
<g clip-path="url(#clip0_174_9)">
<path d="M1.00094 306.542C1.00094 300.382 1.00094 294.212 1.00094 288.052C3.23094 222.412 25.5809 164.942 70.7309 116.812C89.7309 96.5522 110.881 78.8422 134.951 64.8422C159.741 50.4322 186.261 40.6522 214.531 35.6722C217.361 35.1722 220.151 34.5222 223.041 34.5522C220.931 36.4522 218.841 38.3622 216.721 40.2522C208.891 47.2422 201.641 54.7722 195.121 63.0022C192.171 66.7322 189.131 70.3822 186.141 74.0622C185.361 74.2322 184.551 74.3022 183.811 74.5722C177.511 76.8822 171.261 79.3222 165.221 82.2422C108.931 109.442 68.9809 152.002 45.6009 209.982C36.0809 233.582 30.8709 258.192 29.7009 283.642C28.9309 300.472 29.9309 317.172 32.5109 333.822C35.2809 351.742 39.9409 369.112 46.7509 385.912C58.8709 415.822 76.7809 441.842 99.8009 464.372C117.951 482.142 137.981 497.382 160.791 508.772C191.321 524.012 223.841 531.182 257.751 532.642C272.171 533.262 286.491 531.962 300.771 530.112C318.431 527.822 335.551 523.382 352.111 516.852C384.291 504.152 412.071 484.892 436.031 460.092C460.341 434.922 478.771 406.082 489.951 372.732C498.211 348.082 502.241 322.842 501.471 296.852C501.451 296.052 501.461 295.252 501.501 294.452C502.201 280.012 500.881 265.742 498.201 251.532C492.131 219.352 479.921 189.782 461.101 162.962C451.801 149.702 441.371 137.422 429.751 126.132C428.331 124.752 426.991 123.342 424.851 124.842C420.841 125.292 416.811 125.842 413.881 122.042C413.691 121.792 413.431 121.592 413.191 121.382C412.321 120.632 411.461 120.722 410.641 121.462C410.051 122.002 409.491 122.572 408.901 123.102C407.291 124.542 405.471 125.142 403.241 125.142C400.291 125.142 397.521 124.892 395.111 123.032C392.911 121.332 392.231 118.942 391.921 116.312C391.761 114.932 390.951 114.522 389.471 114.972C388.401 115.302 387.391 115.782 386.241 115.722C384.511 115.622 382.701 116.052 381.131 114.932C379.291 113.622 377.621 112.122 376.391 110.242C375.031 108.162 374.511 105.882 375.471 103.412C375.811 102.532 375.981 101.572 376.081 100.632C376.151 99.9822 375.861 99.3822 375.111 99.2022C374.031 98.9422 372.901 98.8022 371.861 98.4122C369.211 97.4122 367.411 95.6522 366.461 92.8522C365.211 89.1822 365.191 85.7322 367.441 82.5322C366.141 81.1522 364.541 80.7422 363.111 80.0922C350.461 74.2622 337.251 70.0022 323.821 66.3722C326.341 61.5622 330.801 58.9522 335.451 56.9222C347.441 51.6822 359.861 51.2822 372.461 54.4522C373.211 54.6422 373.911 55.1322 374.711 54.6522C374.811 54.5222 374.971 54.4122 374.991 54.2722C375.071 53.8022 375.111 53.3322 375.151 52.8622C375.501 48.4622 378.001 45.5322 381.701 43.5222C383.581 42.5022 385.631 42.2122 387.691 43.1522C388.701 43.6122 389.711 44.0922 390.741 44.5222C391.551 44.8622 392.211 44.2322 392.211 43.2522C392.211 42.0922 391.861 41.0622 391.201 40.1322C392.161 39.7322 392.541 38.8122 393.081 38.0222C396.721 32.6822 403.981 31.6622 408.881 35.8122C409.491 36.3322 410.021 36.9422 410.661 37.4122C411.201 37.8022 411.861 37.8822 412.431 37.4122C413.301 36.7122 414.161 36.0022 414.981 35.2422C419.201 31.3522 427.571 33.4122 430.141 37.8622C430.381 38.2722 430.611 38.6922 430.811 39.1222C432.111 41.8322 433.891 43.1322 437.241 42.7022C441.631 42.1322 445.861 44.9922 447.611 48.9422C447.861 49.5122 448.051 50.1722 448.051 50.7822C448.041 52.5322 448.041 54.2922 447.801 56.0222C447.381 59.0722 447.291 59.1422 450.221 59.8722C454.221 60.8622 456.481 63.4122 457.351 67.3222C458.151 70.9322 457.931 74.1822 454.931 76.9622C452.711 79.0122 452.771 79.3122 455.001 81.5822C458.391 85.0222 458.251 88.8522 456.921 93.0622C456.341 94.9022 455.141 96.0722 453.691 97.0422C452.511 97.8322 451.151 98.3622 449.881 99.0322C447.871 100.082 447.341 102.462 448.791 104.252C449.591 105.232 450.581 106.072 451.491 106.962C472.631 127.532 490.131 150.792 503.341 177.202C514.771 200.062 522.551 224.122 526.881 249.322C530.111 268.152 531.311 287.102 530.501 306.152C529.251 335.862 524.181 364.862 513.411 392.722C509.201 403.612 504.321 414.192 498.431 424.272C482.081 452.202 462.161 477.242 437.741 498.582C406.701 525.702 371.071 543.842 330.891 553.062C301.411 559.832 271.591 562.582 241.411 560.482C207.521 558.122 175.431 549.152 145.321 533.302C117.891 518.862 94.0309 499.792 72.7509 477.362C57.1809 460.942 43.4309 443.182 32.4609 423.322C18.5909 398.202 9.30094 371.512 4.65094 343.192C2.94094 332.772 2.03094 322.272 1.10094 311.762C0.950937 310.022 1.00094 308.262 0.960938 306.512L1.00094 306.542Z" fill="white"/>
<path d="M391.219 40.1533C391.879 41.0933 392.219 42.1233 392.229 43.2733C392.229 44.2533 391.569 44.8733 390.759 44.5433C389.729 44.1133 388.729 43.6333 387.709 43.1733C385.649 42.2433 383.599 42.5233 381.719 43.5433C378.019 45.5533 375.529 48.4933 375.169 52.8833C375.129 53.3533 375.089 53.8233 375.009 54.2933C374.989 54.4333 374.829 54.5433 374.729 54.6733C373.929 55.1533 373.229 54.6633 372.479 54.4733C359.879 51.3033 347.459 51.7033 335.469 56.9433C330.819 58.9733 326.359 61.5833 323.849 66.3933C322.999 66.8933 322.459 67.6633 321.949 68.4833C317.649 75.4033 316.159 82.9333 317.149 90.9533C318.179 99.3433 321.449 106.903 326.029 113.953C330.929 121.493 336.929 128.093 343.219 134.463C348.149 139.463 353.209 144.343 358.009 149.473C366.769 158.843 374.239 169.143 380.069 180.623C382.759 185.923 384.379 191.593 386.399 197.133C386.519 197.923 386.629 198.713 386.769 199.503C387.209 201.853 387.959 204.143 387.889 206.573C387.869 207.333 387.469 207.723 386.729 207.713C386.259 207.713 385.779 207.593 385.309 207.513C380.579 206.623 376.459 207.743 373.039 211.203C372.709 211.543 372.289 211.803 371.499 211.523C371.809 204.323 368.979 198.993 361.549 196.903C354.249 194.853 349.379 198.323 345.439 204.563C344.369 202.163 344.129 199.883 342.879 198.043C341.689 196.293 340.279 194.813 338.429 193.773C336.439 192.663 334.299 192.023 332.029 191.993C324.749 191.893 320.619 196.023 318.199 203.023C315.729 196.673 312.039 192.443 305.219 192.273C302.809 192.213 300.509 192.683 298.319 193.883C294.449 196.013 292.799 199.723 291.149 204.063C289.599 201.983 288.939 199.953 287.439 198.503C286.019 197.133 284.409 196.113 282.609 195.483C280.669 194.803 278.709 194.213 276.539 194.753C274.519 195.243 272.499 195.533 270.779 196.863C269.249 198.053 267.749 199.283 266.829 200.983C265.909 202.683 265.279 204.533 264.369 206.673C263.539 205.163 263.019 204.003 262.319 202.963C258.639 197.453 251.849 195.413 245.889 198.163C242.409 199.773 239.989 202.483 238.899 206.233C238.719 206.863 238.589 207.463 237.509 207.253C236.369 203.393 234.109 200.153 230.359 198.273C226.769 196.473 223.049 196.363 219.259 197.953C215.419 199.573 213.419 202.893 211.209 206.913C209.169 199.953 205.659 195.423 198.539 195.063C197.579 195.013 196.619 195.023 195.669 195.113C194.879 195.183 194.089 195.333 193.339 195.603C192.439 195.923 191.549 196.313 190.749 196.823C189.949 197.333 189.229 197.993 188.559 198.673C187.889 199.353 187.269 200.093 186.719 200.873C186.269 201.523 185.989 202.293 185.559 202.963C185.129 203.633 185.449 204.743 184.479 205.253C179.659 196.473 175.949 194.053 168.339 195.183C161.509 196.193 158.619 201.113 157.269 207.313C155.779 206.993 155.529 205.523 154.709 204.613C151.169 200.703 146.829 199.373 141.719 200.463C140.489 200.723 139.299 201.153 138.089 201.503C136.839 200.203 138.129 198.773 137.889 197.423C137.859 197.263 137.869 197.103 137.869 196.943C140.469 179.433 144.569 162.263 150.199 145.483C154.259 133.403 159.139 121.633 164.879 110.243C170.619 98.8533 176.899 87.7733 184.279 77.3433C185.009 76.3133 185.539 75.1533 186.169 74.0533C189.169 70.3633 192.209 66.7133 195.149 62.9933C201.669 54.7533 208.919 47.2233 216.749 40.2433C218.869 38.3533 220.959 36.4433 223.069 34.5433C229.549 29.8933 235.819 24.9533 242.719 20.9033C253.779 14.4133 265.289 9.07327 277.729 5.71327C284.359 3.92327 291.029 2.30327 297.829 1.65327C307.049 0.773274 316.319 0.653274 325.549 1.95327C333.479 3.07327 341.219 4.93327 348.659 7.87327C364.399 14.1033 377.979 23.3333 388.419 36.8633C389.299 37.9933 390.289 39.0433 391.219 40.1333V40.1533Z" fill="#FF0061"/>
<path d="M386.393 197.14C389.913 197.12 393.423 197.12 396.943 197.07C399.043 197.04 401.093 197.36 403.093 197.94C409.043 199.67 412.583 203.65 413.573 209.74C414.463 215.17 414.143 220.58 412.613 225.88C412.073 227.75 411.843 229.24 413.433 231.07C416.483 234.59 416.383 238.96 415.303 243.3C415.113 244.06 414.703 244.78 414.593 245.55C414.083 249.03 414.503 249.64 417.743 251.57C421.493 253.8 424.123 256.82 423.973 261.53C423.923 263.12 423.893 264.72 423.803 266.31C423.503 271.85 420.113 274.85 415.293 276.72C413.713 277.33 411.543 276.86 410.603 278.55C409.753 280.09 411.513 281.5 411.513 283.1C411.513 283.9 411.463 284.71 411.593 285.49C412.353 290.19 410.203 293.4 406.503 295.99C403.593 298.03 400.783 299.97 396.953 299.81C394.793 299.72 392.863 299.3 391.093 298.1C390.303 297.56 389.523 297 388.703 296.51C387.243 295.66 386.453 295.84 385.623 297.43C384.433 299.7 383.243 301.94 381.353 303.74C380.423 304.63 379.543 305.53 378.213 305.82C372.943 306.95 367.773 307.51 363.403 303.3C363.093 303 362.683 302.81 362.053 302.4C361.303 303.69 361.573 304.96 361.573 306.14C361.573 324.68 361.593 343.22 361.593 361.76C361.593 368.15 361.613 374.55 361.503 380.94C361.203 398.45 355.923 414.25 344.803 427.87C331.763 443.85 314.853 452.88 294.383 455.3C290.563 455.75 286.743 455.89 282.903 455.89C268.363 455.88 253.813 455.96 239.273 455.85C229.263 455.77 219.543 453.93 210.413 449.76C185.273 438.28 170.323 418.93 165.823 391.58C165.173 387.61 165.053 383.63 165.053 379.64C165.033 355.18 165.023 330.73 165.003 306.27C165.003 305.49 165.003 304.71 165.003 303.86C163.463 303.04 161.993 303.46 160.653 303.53C155.853 303.79 152.373 301.68 149.753 297.86C149.393 297.33 149.113 296.75 148.733 296.24C148.063 295.34 147.013 295.18 146.283 295.93C145.503 296.72 144.773 297.58 144.073 298.45C140.923 302.35 136.813 303.34 132.043 302.55C128.493 301.96 125.253 300.92 122.973 297.89C121.393 295.79 120.603 293.37 120.283 290.83C120.023 288.79 119.083 288.16 117.013 288.84C114.893 289.53 112.723 290.04 110.433 289.94C109.103 289.88 107.893 289.61 106.793 288.94C102.523 286.33 99.6228 282.48 98.2428 277.82C97.4628 275.19 97.4728 272.18 99.3428 269.55C100.073 268.52 100.833 267.52 101.603 266.51C102.853 264.87 102.713 263.74 101.243 262.34C100.323 261.46 99.3428 260.64 98.4328 259.74C93.4928 254.86 94.4528 254.81 94.6028 249.58C94.7128 245.87 96.0828 242.46 98.8928 239.75C100.433 238.26 102.093 237.12 104.233 236.79C104.703 236.72 105.173 236.6 105.643 236.49C109.533 235.51 109.763 235.15 108.793 231.23C107.753 227.02 107.783 222.99 110.763 219.48C111.763 218.3 112.003 216.99 111.943 215.48C111.883 214.05 112.033 212.61 112.183 211.18C113.123 202.42 118.013 197.69 126.853 197.08C129.403 196.91 131.963 196.99 134.523 196.97C135.643 196.96 136.763 196.97 137.883 196.96C137.883 197.12 137.883 197.28 137.903 197.44C138.143 198.79 136.853 200.22 138.103 201.52C139.313 201.17 140.513 200.75 141.733 200.48C146.843 199.38 151.183 200.71 154.723 204.63C155.543 205.54 155.793 207.01 157.283 207.33C158.633 201.13 161.523 196.22 168.353 195.2C175.963 194.07 179.673 196.49 184.493 205.27C185.463 204.77 185.143 203.66 185.573 202.98C186.003 202.31 186.273 201.54 186.733 200.89C187.283 200.11 187.903 199.37 188.573 198.69C189.243 198.01 189.963 197.36 190.763 196.84C191.563 196.33 192.453 195.94 193.353 195.62C194.093 195.36 194.893 195.21 195.683 195.13C196.633 195.04 197.603 195.03 198.553 195.08C205.673 195.43 209.183 199.97 211.223 206.93C213.423 202.91 215.423 199.59 219.273 197.97C223.053 196.38 226.783 196.49 230.373 198.29C234.123 200.17 236.393 203.4 237.523 207.27C238.613 207.48 238.733 206.88 238.913 206.25C240.013 202.5 242.423 199.79 245.903 198.18C251.873 195.43 258.653 197.47 262.333 202.98C263.033 204.02 263.553 205.18 264.383 206.69C265.293 204.55 265.933 202.7 266.843 201C267.763 199.3 269.263 198.07 270.793 196.88C272.513 195.55 274.533 195.26 276.553 194.77C278.733 194.24 280.693 194.83 282.623 195.5C284.423 196.13 286.033 197.14 287.453 198.52C288.953 199.97 289.603 202 291.163 204.08C292.823 199.74 294.463 196.03 298.333 193.9C300.533 192.69 302.823 192.23 305.233 192.29C312.043 192.45 315.743 196.69 318.213 203.04C320.633 196.04 324.753 191.91 332.043 192.01C334.313 192.04 336.453 192.68 338.443 193.79C340.293 194.83 341.713 196.32 342.893 198.06C344.143 199.9 344.383 202.18 345.453 204.58C349.403 198.34 354.273 194.87 361.563 196.92C369.003 199.01 371.823 204.33 371.513 211.54C372.303 211.82 372.713 211.56 373.053 211.22C376.473 207.76 380.593 206.64 385.323 207.53C385.793 207.62 386.263 207.73 386.743 207.73C387.473 207.73 387.873 207.34 387.903 206.59C387.973 204.16 387.223 201.86 386.783 199.52C386.633 198.74 386.533 197.94 386.413 197.15L386.393 197.14ZM196.623 341.45C196.623 341.45 196.693 341.45 196.723 341.45C196.723 354.4 196.693 367.34 196.723 380.29C196.803 404.81 217.213 423.77 240.113 423.59C255.613 423.47 271.123 423.47 286.623 423.46C289.683 423.46 292.673 423.1 295.663 422.5C313.343 418.95 327.243 403.67 329.293 385.74C330.043 379.18 329.733 372.66 329.553 366.11C329.493 364 328.753 362.86 326.773 362.32C325.703 362.03 324.683 361.54 323.643 361.12C310.873 355.94 298.713 349.61 287.473 341.6C271.073 329.91 257.783 315.46 248.493 297.49C247.613 295.79 247.053 293.71 245.703 292.54C244.123 291.18 241.723 291.96 239.723 292.08C237.143 292.23 235.033 291.37 233.023 290C232.103 289.38 231.293 288.6 230.463 287.86C228.063 285.72 227.873 285.73 226.413 288.45C225.493 290.15 224.363 291.67 222.993 293.04C220.733 295.28 218.163 296.4 214.883 296.45C211.353 296.5 208.263 295.73 205.543 293.48C204.933 292.98 204.273 292.5 203.563 292.16C202.823 291.8 201.943 291.76 201.313 292.37C198.693 294.92 196.413 297.34 196.513 301.66C196.833 314.92 196.633 328.19 196.633 341.46L196.623 341.45ZM327.223 313.22C327.173 305.39 320.543 298.76 312.783 299.07C304.533 299.41 299.003 305.46 298.753 313.18C298.503 320.97 305.113 327.51 312.973 327.52C320.873 327.52 327.263 321.12 327.223 313.22Z" fill="white"/>
<path d="M238.99 313.085C239.04 321.115 232.82 327.475 224.89 327.525C217 327.565 210.39 321.115 210.57 313.275C210.75 305.255 216.64 299.195 225.01 299.095C232.79 298.995 238.94 305.285 238.99 313.095V313.085Z" fill="white"/>
</g>
<defs>
<clipPath id="clip0_174_9">
<rect width="531" height="562" fill="white"/>
</clipPath>
</defs>
</svg>
