<svg width="389" height="273" viewBox="0 0 389 273" fill="none" xmlns="http://www.w3.org/2000/svg">
<path d="M294.314 60.2463C295.018 60.5332 295.549 60.7222 296.061 60.9569C302.13 63.7406 307.998 66.9057 313.751 70.2892C323.833 76.2217 333.423 82.8615 342.429 90.3293C352.742 98.8825 362.084 108.365 369.96 119.235C375.736 127.208 380.537 135.723 383.999 144.947C385.149 148.015 386.088 151.163 387.04 154.299C387.49 155.789 387.741 157.337 388.07 158.863C388.099 158.999 388.041 159.153 388.015 159.387C387.633 159.361 387.275 159.371 386.929 159.312C384.928 158.973 382.939 158.576 380.932 158.276C378.77 157.953 376.596 157.712 374.425 157.448C372.929 157.265 371.43 157.093 369.927 156.949C368.424 156.806 366.918 156.672 365.413 156.587C359.738 156.268 354.059 156.082 348.375 156.294C345.93 156.385 343.492 156.61 341.05 156.786C339.492 156.9 337.934 156.998 336.382 157.171C334.625 157.363 332.869 157.598 331.121 157.872C328.139 158.338 325.182 158.924 322.236 159.599C316.838 160.838 311.593 162.513 306.508 164.704C301.12 167.025 296.074 169.922 291.452 173.547C285.383 178.306 280.477 184.046 276.758 190.803C274.362 195.162 272.563 199.754 271.233 204.539C271.096 205.035 270.939 205.524 270.76 206.117C270.388 205.97 270.095 205.892 269.841 205.749C265.408 203.239 260.688 201.485 255.707 200.442C252.219 199.712 248.686 199.419 245.139 199.722C238.891 200.26 233.327 202.525 228.512 206.583C225.122 209.442 222.462 212.891 220.197 216.668C217.123 221.799 215.04 227.35 213.365 233.064C211.797 238.417 210.734 243.886 209.916 249.395C209.473 252.378 209.17 255.386 208.886 258.388C208.619 261.237 208.453 264.096 208.25 266.951C208.117 268.861 207.996 270.775 207.869 272.691C207.416 272.701 207.4 272.304 207.273 272.069C204.935 267.704 202.491 263.405 199.883 259.193C195.483 252.091 190.652 245.304 185 239.134C180.472 234.189 175.472 229.805 169.588 226.499C165.634 224.28 161.436 222.748 156.928 222.268C152.299 221.776 147.775 222.396 143.443 224.175C137.888 226.457 133.257 230.023 129.211 234.401C127.829 235.897 126.555 237.475 125.411 239.16C125.241 239.408 125.02 239.623 124.853 239.818C124.205 239.773 124.016 239.293 123.739 238.938C122.174 236.92 120.551 234.955 118.807 233.084C115.697 229.749 112.235 226.842 108.428 224.342C102.069 220.166 95.1257 217.48 87.6253 216.196C84.4895 215.661 81.344 215.335 78.1561 215.241C75.8059 215.172 73.4688 215.247 71.1317 215.339C68.8988 215.427 66.6627 215.681 64.4527 216.01C61.8809 216.395 59.3221 216.88 56.7829 217.431C54.3936 217.95 52.0173 218.546 49.6639 219.218C43.4934 220.981 37.4957 223.227 31.6317 225.828C24.5258 228.98 17.6252 232.54 11.0082 236.624C7.817 238.593 4.73666 240.741 1.60418 242.807C1.2228 243.058 0.83817 243.303 0.323151 243.638C0.244921 243.264 0.163431 243.029 0.153652 242.794C-0.0223673 237.168 -0.0842999 231.539 0.16995 225.916C0.306853 222.852 0.707785 219.801 0.975074 216.74C1.24562 213.627 1.7476 210.547 2.24632 207.463C3.11012 202.118 4.24772 196.827 5.58742 191.583C8.48196 180.259 12.3413 169.264 16.9537 158.527C19.5255 152.539 22.3353 146.665 25.37 140.902C29.4999 133.059 33.9851 125.425 39.0441 118.14C39.3407 117.713 39.6569 117.296 39.9796 116.889C40.0708 116.774 40.2208 116.709 40.4196 116.569C40.7293 116.827 41.0618 117.061 41.3486 117.342C44.8005 120.748 48.3991 123.995 52.1184 127.104C60.062 133.741 68.4686 139.693 77.7748 144.299C83.3487 147.056 89.128 149.273 95.2137 150.635C97.4987 151.147 99.8064 151.519 102.134 151.819C105.361 152.229 108.585 152.086 111.815 152.083C111.919 152.083 112.023 152.083 112.128 152.073C113.422 151.978 113.718 151.646 113.461 150.404C112.975 148.057 112.444 145.72 111.939 143.379C110.511 136.759 109.1 130.139 107.649 123.525C107.294 121.895 106.805 120.305 105.869 118.88C104.963 117.498 103.773 116.429 102.372 115.588C99.4642 113.847 96.5697 112.087 93.636 110.395C89.9787 108.286 86.266 106.275 82.6153 104.16C79.0916 102.116 75.8157 99.7365 72.7647 97.0115C69.0781 93.7193 65.8739 90.0457 63.2988 85.8506C61.581 83.0505 60.0881 80.1234 59.4101 76.854C59.1135 75.4231 58.8592 73.9888 58.9049 72.5187C58.9766 70.0838 59.7393 67.9748 61.5256 66.2016C63.0641 64.6729 64.8276 63.7015 66.9203 63.2419C77.5596 60.908 88.199 58.5676 98.8383 56.2272C100.061 55.9599 101.286 55.7024 102.499 55.3993C103.852 55.0603 104.135 54.63 103.848 53.2642C103.366 50.9695 102.815 48.691 102.323 46.3995C101.853 44.209 101.299 42.0284 100.996 39.8151C100.279 34.5736 101.032 29.5962 104.314 25.2772C107.45 21.1473 111.515 18.256 116.46 16.5904C120.14 15.3517 123.921 15.0486 127.732 15.4397C131.539 15.8309 134.981 17.3009 138.025 19.6446C139.306 20.6323 140.48 21.734 141.562 22.9466C143.779 25.4369 144.975 28.3967 145.685 31.5943C146.52 35.3559 147.41 39.1077 148.169 42.8889C148.525 44.6589 149.245 44.9424 150.777 44.5969C156.726 43.2507 162.681 41.9469 168.636 40.6235C169.807 40.3627 170.977 40.0987 172.147 39.8346C172.349 39.789 172.561 39.7662 172.76 39.7108C173.747 39.4272 174.041 38.9904 173.881 37.993C173.8 37.4779 173.682 36.9694 173.568 36.4609C172.972 33.8174 172.356 31.1804 171.782 28.5336C171.241 26.0367 170.84 23.5138 170.892 20.9485C171 15.6711 172.825 11.1109 176.534 7.29394C181.186 2.50884 186.903 0.282523 193.475 0.0380525C195.293 -0.0303993 197.116 -0.0369185 198.931 0.282523C203.328 1.05179 207.074 3.01408 210.297 6.10093C213.032 8.71514 214.695 11.89 215.565 15.5082C216.331 18.6993 217.006 21.91 217.723 25.1142C217.938 26.0791 218.137 27.0504 218.372 28.012C218.675 29.2605 219.141 29.5734 220.392 29.3094C222.381 28.8921 224.363 28.4293 226.348 27.9925C234.236 26.2551 242.124 24.5112 250.019 22.7901C251.036 22.5685 252.073 22.3892 253.109 22.3273C257.337 22.0665 260.763 23.9049 262.552 27.8686C263.397 29.7364 263.853 31.7052 264.075 33.7424C264.251 35.3494 264.44 36.9597 264.29 38.5732C264.058 41.0602 263.739 43.5376 263.286 45.9986C262.08 52.5699 259.364 58.5187 255.707 64.0307C252.741 68.4996 249.533 72.8089 246.43 77.1865C244.983 79.227 243.519 81.2545 242.088 83.3048C241.251 84.5076 240.596 85.8082 240.146 87.2098C239.559 89.0352 239.451 90.8964 239.797 92.7674C240.11 94.4559 240.511 96.1314 240.886 97.8068C242.46 104.821 244.038 111.833 245.612 118.848C245.658 119.05 245.707 119.255 245.755 119.457C246.14 121.041 246.3 121.142 247.91 120.595C253.484 118.701 258.595 115.934 263.299 112.403C268.684 108.365 273.231 103.524 277.188 98.1002C281.292 92.4741 284.587 86.3949 287.374 80.0289C289.926 74.1974 292.006 68.203 293.698 62.0684C293.848 61.5241 294.063 60.9993 294.324 60.2463H294.314ZM146.986 100.949C148.538 101.112 150.106 101.187 151.638 101.451C155.08 102.048 157.713 103.801 159.262 107.032C160.892 110.435 162.166 113.916 162.45 117.739C162.609 119.9 162.424 121.996 161.997 124.089C161.469 126.671 160.354 129.031 159.082 131.309C155.953 136.912 151.315 140.619 145.056 142.186C142.934 142.718 140.776 143.099 138.632 143.526C137.559 143.741 136.471 143.878 135.401 144.103C134.388 144.315 134.107 144.745 134.244 145.775C134.306 146.238 134.414 146.698 134.518 147.154C135.027 149.387 135.437 151.639 136.396 153.752C136.715 154.452 137.142 154.853 137.885 154.928C138.557 154.993 139.231 155.075 139.906 155.091C141.419 155.127 142.928 155.137 144.44 155.14C145.213 155.14 145.721 155.499 145.985 156.216C146.38 157.291 146.784 158.364 147.175 159.44C148.939 164.283 150.709 169.127 152.456 173.977C153.003 175.496 153.482 177.038 154.017 178.56C154.464 179.825 155.285 180.327 156.53 180.151C157.449 180.021 158.043 179.336 157.951 178.417C157.896 177.85 157.717 177.299 157.596 176.738C157.466 176.129 157.299 175.522 157.221 174.903C157.146 174.32 157.56 173.925 158.167 173.919C158.626 173.912 158.998 174.088 159.161 174.528C159.32 174.965 159.421 175.425 159.539 175.878C159.705 176.533 159.816 177.208 160.038 177.843C160.363 178.782 160.989 179.167 161.974 179.013C162.899 178.87 163.812 178.639 164.728 178.44C165.035 178.375 165.344 178.313 165.638 178.215C166.772 177.833 167.209 177.094 166.984 175.933C166.915 175.575 166.791 175.229 166.71 174.874C166.462 173.808 166.198 172.749 165.99 171.673C165.875 171.093 166.136 170.692 166.593 170.552C167.222 170.359 167.737 170.597 167.952 171.236C168.102 171.679 168.183 172.142 168.291 172.599C168.542 173.664 168.737 174.743 169.05 175.79C169.324 176.712 169.891 177.133 170.807 176.989C172.193 176.774 173.571 176.471 174.921 176.09C175.837 175.829 176.199 175.082 176.059 174.124C176.006 173.765 175.882 173.417 175.798 173.065C175.469 171.699 175.13 170.333 174.817 168.964C174.735 168.612 174.699 168.244 174.712 167.882C174.725 167.435 175.061 167.119 175.504 167.047C175.967 166.972 176.417 167.132 176.57 167.51C176.746 167.941 176.873 168.397 176.974 168.85C177.229 170.02 177.45 171.197 177.698 172.37C177.796 172.827 177.887 173.293 178.053 173.73C178.461 174.799 179.116 175.18 180.25 174.965C181.632 174.704 183.008 174.401 184.377 174.072C186.483 173.57 186.832 172.98 186.326 170.838C186.052 169.671 185.717 168.521 185.472 167.347C185.345 166.744 185.316 166.112 185.329 165.493C185.339 165.043 185.7 164.72 186.114 164.639C186.506 164.56 186.955 164.759 187.164 165.157C187.307 165.431 187.408 165.731 187.487 166.03C187.708 166.888 187.91 167.748 188.113 168.612C188.311 169.476 188.468 170.346 188.699 171.2C188.905 171.963 189.407 172.491 190.218 172.589C190.622 172.638 191.049 172.569 191.454 172.491C192.731 172.237 194.003 171.947 195.274 171.673C196.861 171.331 197.468 170.415 197.028 168.824C196.669 167.52 196.385 166.193 196.112 164.867C195.998 164.313 195.952 163.732 195.971 163.169C195.991 162.657 196.438 162.341 196.946 162.357C197.357 162.37 197.657 162.579 197.771 162.96C197.976 163.657 198.152 164.365 198.315 165.075C198.622 166.392 198.866 167.729 199.225 169.033C199.502 170.043 200.229 170.499 201.246 170.317C202.474 170.098 203.7 169.828 204.9 169.476C206.027 169.147 206.363 168.518 206.21 167.331C206.164 166.972 206.066 166.617 205.978 166.262C205.806 165.555 205.604 164.85 205.46 164.137C205.369 163.68 205.323 163.208 205.327 162.745C205.33 162.233 205.607 161.907 206.008 161.816C206.48 161.708 206.921 161.92 207.145 162.419C207.273 162.699 207.344 163.009 207.409 163.312C207.644 164.381 207.827 165.46 208.1 166.519C208.492 168.038 209.179 168.488 210.738 168.231C211.764 168.061 212.772 167.781 213.785 167.54C213.984 167.491 214.18 167.399 214.362 167.302C215.021 166.94 215.363 166.386 215.259 165.63C215.187 165.114 215.024 164.616 214.923 164.107C214.789 163.446 214.639 162.784 214.568 162.112C214.515 161.627 214.91 161.249 215.425 161.17C215.878 161.102 216.256 161.291 216.412 161.741C216.569 162.181 216.673 162.64 216.784 163.097C216.944 163.755 217.058 164.427 217.253 165.072C217.465 165.77 217.938 166.255 218.694 166.334C219.483 166.415 220.148 166.109 220.565 165.437C220.774 165.098 220.891 164.665 220.93 164.264C220.986 163.697 220.963 163.116 220.911 162.549C220.718 160.424 220.48 158.305 220.291 156.18C219.969 152.552 219.669 148.924 219.359 145.293C219.252 144.048 219.16 142.802 219.036 141.561C218.991 141.094 218.883 140.638 218.789 140.178C218.629 139.393 218.147 138.875 217.394 138.637C216.8 138.448 216.191 138.298 215.585 138.154C212.543 137.431 209.463 136.844 206.464 135.974C198.52 133.666 190.988 130.39 183.898 126.1C179.289 123.31 174.967 120.138 171 116.51C168.232 113.981 165.569 111.337 163.144 108.462C160.755 105.633 158.496 102.716 156.478 99.6061C153.082 94.3744 150.454 88.7809 148.453 82.8876C147.413 79.8301 146.484 76.7399 145.721 73.5977C145.317 71.9288 144.818 70.2827 144.333 68.6333C143.964 67.3816 143.567 67.1697 142.256 67.4207C142.204 67.4305 142.155 67.4403 142.103 67.4533C137.168 68.5485 132.236 69.647 127.298 70.7357C120.837 72.1634 114.374 73.5814 107.91 75.0091C106.586 75.3025 105.25 75.5469 103.949 75.9218C101.039 76.7628 99.562 79.1586 100.002 82.1411C100.201 83.4971 100.621 84.7781 101.189 86.0103C102.949 89.8338 105.491 92.9924 109.044 95.3165C111.577 96.9691 114.126 98.5859 116.799 100.004C118.686 101.004 120.541 102.074 122.2 103.436C122.881 103.997 123.517 104.619 124.162 105.222C125.156 106.155 125.551 106.226 126.819 105.676C126.913 105.633 127.008 105.584 127.099 105.539C128.595 104.786 130.173 104.241 131.8 103.85C134.841 103.123 137.882 102.393 140.939 101.744C142.925 101.321 144.936 100.988 146.996 100.952L146.986 100.949ZM187.721 199.885C188.474 199.852 189.576 199.891 190.658 199.745C195.052 199.151 199.163 197.714 202.97 195.439C206.872 193.105 210.49 190.399 213.906 187.391C216.298 185.282 218.466 182.971 220.595 180.611C221.507 179.6 222.058 178.44 222.042 177.081C222.029 175.832 221.924 174.584 221.804 173.338C221.758 172.885 221.605 172.419 221.396 172.012C221.168 171.572 220.728 171.363 220.213 171.402C219.708 171.441 219.226 171.836 219.095 172.357C219.02 172.657 219.03 172.977 219.001 173.286C218.975 173.544 218.975 173.811 218.906 174.059C218.818 174.382 218.577 174.587 218.241 174.642C217.912 174.694 217.599 174.623 217.41 174.336C217.24 174.078 217.143 173.775 216.996 173.498C216.51 172.586 215.933 172.211 214.982 172.387C213.857 172.595 212.732 172.859 211.65 173.218C210.575 173.576 210.187 174.241 210.229 175.372C210.249 175.891 210.376 176.403 210.412 176.921C210.451 177.511 210.112 177.941 209.567 178.065C209.039 178.186 208.642 177.921 208.436 177.263C208.267 176.715 208.169 176.148 207.993 175.604C207.742 174.825 207.194 174.401 206.357 174.408C206.047 174.408 205.727 174.424 205.424 174.483C204.554 174.655 203.687 174.828 202.826 175.043C201.138 175.467 200.776 176.034 201.102 177.723C201.268 178.593 201.5 179.45 201.65 180.321C201.751 180.901 201.412 181.36 200.877 181.507C200.343 181.65 199.925 181.403 199.697 180.77C199.469 180.135 199.319 179.463 199.042 178.85C198.374 177.371 196.979 176.533 195.385 176.745C194.202 176.901 193.025 177.178 191.877 177.511C190.763 177.833 190.368 178.502 190.525 179.639C190.616 180.308 190.841 180.956 190.955 181.621C191.033 182.077 191.066 182.55 191.04 183.013C191.014 183.456 190.649 183.733 190.186 183.769C189.654 183.812 189.266 183.619 189.087 183.091C188.856 182.403 188.66 181.693 188.546 180.979C188.214 178.919 187.347 178.518 185.342 178.896C184.113 179.128 182.894 179.411 181.681 179.711C180.048 180.115 179.641 180.754 179.928 182.423C180.042 183.091 180.221 183.746 180.342 184.411C180.407 184.767 180.446 185.135 180.423 185.49C180.387 185.979 179.905 186.289 179.4 186.207C178.94 186.136 178.637 185.855 178.506 185.432C178.34 184.884 178.233 184.32 178.093 183.766C177.952 183.212 177.845 182.641 177.646 182.11C177.333 181.279 176.828 180.911 175.954 181.061C174.729 181.272 173.503 181.556 172.32 181.947C171.251 182.299 170.918 182.987 170.993 184.141C171.026 184.659 171.091 185.181 171.068 185.696C171.042 186.247 170.69 186.559 170.175 186.602C169.647 186.644 169.262 186.4 169.116 185.881C169.018 185.533 168.988 185.164 168.904 184.809C168.552 183.355 167.463 182.775 166.234 183.108C165.429 183.326 164.604 183.463 163.796 183.655C163.444 183.74 163.092 183.851 162.756 183.991C162.127 184.255 161.762 184.728 161.739 185.432C161.729 185.745 161.739 186.057 161.697 186.367C161.635 186.85 161.345 187.133 160.905 187.202C160.465 187.27 160.152 187.11 159.894 186.651C159.715 186.335 159.594 185.983 159.386 185.686C158.991 185.122 158.31 184.943 157.726 185.197C157.211 185.425 156.947 185.973 157.062 186.638C157.107 186.892 157.195 187.14 157.286 187.384C157.736 188.606 158.193 189.826 158.646 191.045C159.069 192.186 159.858 192.971 160.973 193.434C165.647 195.367 170.364 197.176 175.319 198.294C179.292 199.19 183.295 199.839 187.725 199.875L187.721 199.885Z" fill="#F0851D"/>
<path d="M169.938 144.137C170.127 140.18 170.691 136.282 171.822 132.471C172.34 130.724 173.426 129.593 175.222 129.176C176.845 128.801 178.449 128.318 180.088 128.071C183.491 127.559 184.202 127.872 186.138 130.414C187.742 132.523 189.241 134.717 190.692 136.933C192.155 139.17 193.133 141.634 193.749 144.242C194.007 145.324 194.01 146.409 193.906 147.498C193.867 147.905 193.739 148.316 193.589 148.697C193.306 149.421 192.788 149.91 191.989 150.018C191.063 150.141 190.134 150.272 189.202 150.347C187.647 150.474 186.086 150.516 184.534 150.669C182.758 150.846 181.086 151.422 179.453 152.13C178.022 152.749 176.587 153.349 175.088 153.815C173.804 154.213 172.868 153.903 172.027 152.945C171.535 152.384 171.167 151.758 170.978 151.051C170.378 148.785 169.745 146.523 169.934 144.134L169.938 144.137Z" fill="#F0851D"/>
</svg>
