<svg width="1428" height="561" viewBox="0 0 1428 561" fill="none" xmlns="http://www.w3.org/2000/svg">
<path d="M0.000937499 305.542C0.000937499 299.382 0.000937499 293.212 0.000937499 287.052C2.23094 221.412 24.5809 163.942 69.7309 115.812C88.7309 95.5522 109.881 77.8422 133.951 63.8422C158.741 49.4322 185.261 39.6522 213.531 34.6722C216.361 34.1722 219.151 33.5222 222.041 33.5522C219.931 35.4522 217.841 37.3622 215.721 39.2522C207.891 46.2422 200.641 53.7722 194.121 62.0022C191.171 65.7322 188.131 69.3822 185.141 73.0622C184.361 73.2322 183.551 73.3022 182.811 73.5722C176.511 75.8822 170.261 78.3222 164.221 81.2422C107.931 108.442 67.9809 151.002 44.6009 208.982C35.0809 232.582 29.8709 257.192 28.7009 282.642C27.9309 299.472 28.9309 316.172 31.5109 332.822C34.2809 350.742 38.9409 368.112 45.7509 384.912C57.8709 414.822 75.7809 440.842 98.8009 463.372C116.951 481.142 136.981 496.382 159.791 507.772C190.321 523.012 222.841 530.182 256.751 531.642C271.171 532.262 285.491 530.962 299.771 529.112C317.431 526.822 334.551 522.382 351.111 515.852C383.291 503.152 411.071 483.892 435.031 459.092C459.341 433.922 477.771 405.082 488.951 371.732C497.211 347.082 501.241 321.842 500.471 295.852C500.451 295.052 500.461 294.252 500.501 293.452C501.201 279.012 499.881 264.742 497.201 250.532C491.131 218.352 478.921 188.782 460.101 161.962C450.801 148.702 440.371 136.422 428.751 125.132C427.331 123.752 425.991 122.342 423.851 123.842C419.841 124.292 415.811 124.842 412.881 121.042C412.691 120.792 412.431 120.592 412.191 120.382C411.321 119.632 410.461 119.722 409.641 120.462C409.051 121.002 408.491 121.572 407.901 122.102C406.291 123.542 404.471 124.142 402.241 124.142C399.291 124.142 396.521 123.892 394.111 122.032C391.911 120.332 391.231 117.942 390.921 115.312C390.761 113.932 389.951 113.522 388.471 113.972C387.401 114.302 386.391 114.782 385.241 114.722C383.511 114.622 381.701 115.052 380.131 113.932C378.291 112.622 376.621 111.122 375.391 109.242C374.031 107.162 373.511 104.882 374.471 102.412C374.811 101.532 374.981 100.572 375.081 99.6322C375.151 98.9822 374.861 98.3822 374.111 98.2022C373.031 97.9422 371.901 97.8022 370.861 97.4122C368.211 96.4122 366.411 94.6522 365.461 91.8522C364.211 88.1822 364.191 84.7322 366.441 81.5322C365.141 80.1522 363.541 79.7422 362.111 79.0922C349.461 73.2622 336.251 69.0022 322.821 65.3722C325.341 60.5622 329.801 57.9522 334.451 55.9222C346.441 50.6822 358.861 50.2822 371.461 53.4522C372.211 53.6422 372.911 54.1322 373.711 53.6522C373.811 53.5222 373.971 53.4122 373.991 53.2722C374.071 52.8022 374.111 52.3322 374.151 51.8622C374.501 47.4622 377.001 44.5322 380.701 42.5222C382.581 41.5022 384.631 41.2122 386.691 42.1522C387.701 42.6122 388.711 43.0922 389.741 43.5222C390.551 43.8622 391.211 43.2322 391.211 42.2522C391.211 41.0922 390.861 40.0622 390.201 39.1322C391.161 38.7322 391.541 37.8122 392.081 37.0222C395.721 31.6822 402.981 30.6622 407.881 34.8122C408.491 35.3322 409.021 35.9422 409.661 36.4122C410.201 36.8022 410.861 36.8822 411.431 36.4122C412.301 35.7122 413.161 35.0022 413.981 34.2422C418.201 30.3522 426.571 32.4122 429.141 36.8622C429.381 37.2722 429.611 37.6922 429.811 38.1222C431.111 40.8322 432.891 42.1322 436.241 41.7022C440.631 41.1322 444.861 43.9922 446.611 47.9422C446.861 48.5122 447.051 49.1722 447.051 49.7822C447.041 51.5322 447.041 53.2922 446.801 55.0222C446.381 58.0722 446.291 58.1422 449.221 58.8722C453.221 59.8622 455.481 62.4122 456.351 66.3222C457.151 69.9322 456.931 73.1822 453.931 75.9622C451.711 78.0122 451.771 78.3122 454.001 80.5822C457.391 84.0222 457.251 87.8522 455.921 92.0622C455.341 93.9022 454.141 95.0722 452.691 96.0422C451.511 96.8322 450.151 97.3622 448.881 98.0322C446.871 99.0822 446.341 101.462 447.791 103.252C448.591 104.232 449.581 105.072 450.491 105.962C471.631 126.532 489.131 149.792 502.341 176.202C513.771 199.062 521.551 223.122 525.881 248.322C529.111 267.152 530.311 286.102 529.501 305.152C528.251 334.862 523.181 363.862 512.411 391.722C508.201 402.612 503.321 413.192 497.431 423.272C481.081 451.202 461.161 476.242 436.741 497.582C405.701 524.702 370.071 542.842 329.891 552.062C300.411 558.832 270.591 561.582 240.411 559.482C206.521 557.122 174.431 548.152 144.321 532.302C116.891 517.862 93.0309 498.792 71.7509 476.362C56.1809 459.942 42.4309 442.182 31.4609 422.322C17.5909 397.202 8.30094 370.512 3.65094 342.192C1.94094 331.772 1.03094 321.272 0.100938 310.762C-0.0490625 309.022 0.000937499 307.262 -0.0390625 305.512L0.000937499 305.542Z" fill="white"/>
<path d="M1192.72 167.827C1208.98 166.997 1224.95 168.447 1240.4 173.897C1242.5 174.637 1244.5 175.647 1246.53 176.577C1247.18 176.877 1247.39 177.507 1247.2 178.177C1246.94 179.097 1246.61 179.997 1246.3 180.897C1240.76 197.047 1235.23 213.207 1229.68 229.357C1229.42 230.097 1229.09 230.817 1228.84 231.447C1227.48 232.007 1226.54 231.287 1225.55 230.887C1222.28 229.567 1218.9 228.617 1215.42 228.057C1211.59 227.437 1207.78 227.507 1204.03 228.657C1200.22 229.827 1197.14 232.037 1195.05 235.427C1192.4 239.737 1191.35 244.457 1191.61 249.787C1193.59 249.847 1195.32 249.937 1197.05 249.937C1220.23 249.937 1243.4 249.917 1266.58 249.967C1272.96 249.977 1271.47 248.877 1273.89 255.127C1286.17 286.827 1298.35 318.567 1310.57 350.287C1310.91 351.177 1311.3 352.047 1311.76 353.147C1313 352.607 1313.18 351.547 1313.55 350.597C1320.2 333.657 1326.86 316.727 1333.5 299.787C1339.26 285.077 1344.99 270.357 1350.73 255.637C1351.14 254.597 1351.61 253.577 1351.93 252.507C1352.51 250.557 1353.6 249.877 1355.75 249.887C1378.77 249.987 1401.78 249.947 1424.8 249.947C1425.44 249.947 1426.08 249.947 1426.71 250.007C1427.54 250.077 1427.76 250.677 1427.56 251.337C1427.19 252.557 1426.72 253.747 1426.24 254.927C1406.31 304.367 1386.37 353.807 1366.42 403.237C1365.88 404.567 1365.26 405.857 1364.67 407.157C1358.65 406.527 1352.63 405.867 1346.6 405.277C1338.67 404.497 1330.73 403.827 1322.8 403.007C1312.18 401.907 1301.57 400.707 1290.95 399.557C1280.97 398.467 1270.97 397.497 1261.01 396.237C1257.39 395.777 1253.67 395.857 1250.15 394.667C1250.02 394.207 1249.94 393.727 1249.76 393.297C1241.43 373.127 1233.09 352.957 1224.75 332.797C1221.76 325.587 1218.69 318.407 1215.79 311.167C1215.14 309.537 1214.22 308.987 1212.59 309.007C1207.17 309.057 1201.74 309.007 1196.32 309.037C1194.23 309.047 1193.95 309.367 1193.93 311.627C1193.89 315.457 1193.92 319.287 1193.91 323.117C1193.89 344.657 1193.87 366.187 1193.84 387.727C1183.59 386.387 1173.32 385.097 1163.08 383.687C1152.83 382.277 1142.59 380.787 1132.36 379.267C1126.38 378.377 1120.42 377.347 1114.45 376.377C1114.45 358.977 1114.45 341.587 1114.45 324.187C1114.45 319.717 1114.42 315.257 1114.38 310.787C1114.37 309.567 1113.9 309.067 1112.64 309.047C1109.93 308.997 1107.2 309.187 1104.5 308.977C1100.83 308.677 1097.72 309.747 1094.58 311.627C1087.06 316.127 1079.38 320.347 1071.77 324.677C1071.68 323.087 1071.51 321.507 1071.5 319.917C1071.47 313.227 1071.49 306.527 1071.49 299.837C1071.49 282.147 1071.49 264.457 1071.5 246.767C1071.5 244.717 1071.16 242.597 1072.45 240.747C1077.23 243.007 1081.46 246.107 1085.64 249.297C1086.79 250.177 1087.88 250.897 1089.47 250.877C1097.11 250.807 1104.75 250.857 1112.39 250.827C1114.01 250.827 1114.38 250.467 1114.43 248.877C1114.59 243.787 1114.77 238.697 1115.5 233.647C1116.7 233.237 1117.89 232.777 1119.11 232.427C1135.85 227.517 1151.25 220.027 1164.56 208.607C1177.02 197.917 1186.82 185.337 1191.72 169.387C1191.89 168.827 1192.38 168.367 1192.72 167.857V167.827Z" fill="white"/>
<path d="M1072.45 240.712C1071.16 242.562 1071.5 244.692 1071.5 246.732C1071.48 264.422 1071.49 282.112 1071.49 299.802C1071.49 306.492 1071.47 313.192 1071.5 319.882C1071.5 321.472 1071.67 323.052 1071.77 324.642C1071.22 330.572 1071.43 336.502 1071.67 342.432C1071.61 350.712 1071.53 358.982 1071.51 367.262C1071.51 369.572 1071.76 369.852 1074.23 370.282C1078.15 370.962 1082.08 371.582 1086.01 372.172C1094.35 373.422 1102.69 374.632 1111.03 375.852C1112.1 376.472 1113.27 376.442 1114.45 376.342C1120.42 377.312 1126.38 378.342 1132.36 379.232C1142.59 380.762 1152.83 382.252 1163.08 383.652C1173.33 385.062 1183.59 386.352 1193.84 387.692C1198.56 388.392 1203.27 389.162 1207.99 389.792C1217.14 391.002 1226.28 392.242 1235.45 393.242C1240.34 393.782 1245.18 394.962 1250.15 394.642C1253.67 395.832 1257.39 395.752 1261.01 396.212C1270.97 397.472 1280.97 398.442 1290.95 399.532C1301.57 400.692 1312.18 401.882 1322.8 402.982C1330.73 403.802 1338.67 404.472 1346.6 405.252C1352.63 405.842 1358.65 406.502 1364.67 407.132C1364.05 408.912 1363.49 410.712 1362.8 412.472C1360.42 418.482 1358.02 424.482 1355.57 430.452C1355.04 431.742 1354.77 433.202 1353.67 434.212C1350.03 433.852 1346.39 433.482 1342.75 433.122C1331.52 432.032 1320.27 431.022 1309.05 429.842C1295.93 428.462 1282.83 426.902 1269.71 425.502C1267.52 425.272 1265.31 424.752 1263.08 425.242C1259.27 423.952 1255.24 424.052 1251.31 423.512C1241.54 422.172 1231.73 421.092 1221.93 419.872C1213.87 418.872 1205.83 417.812 1197.77 416.812C1196.51 416.652 1195.23 416.702 1193.96 416.652C1193.01 415.972 1191.89 415.912 1190.79 415.762C1182.75 414.722 1174.71 413.722 1166.69 412.582C1152.22 410.522 1137.77 408.312 1123.29 406.302C1120.32 405.892 1117.38 404.962 1114.31 405.272C1108.55 404.192 1102.81 403.002 1096.92 402.862C1095.55 401.902 1093.91 401.832 1092.36 401.572C1087.49 400.752 1082.6 400.012 1077.71 399.342C1075.84 399.082 1074.02 398.262 1072.07 398.682C1071.91 398.962 1071.62 399.232 1071.61 399.512C1071.5 406.042 1071.17 412.572 1071.79 419.092C1071.31 419.492 1070.89 420.002 1070.35 420.282C1062.08 424.602 1053.5 428.212 1044.58 430.982C1044.14 431.122 1043.65 431.052 1043.18 431.072C1043.18 420.222 1043.18 409.372 1043.18 398.522C1043.18 397.402 1043.16 396.292 1043.12 395.172C1043.09 394.272 1042.63 393.702 1041.73 393.512C1040.64 393.282 1039.55 393.012 1038.45 392.822C1033.73 392.042 1029 391.352 1024.29 390.512C1003.74 386.812 983.18 383.192 962.66 379.322C940.11 375.072 917.61 370.552 895.07 366.222C891.01 365.442 887.03 364.202 882.86 363.992C881.48 363.642 880.11 363.252 878.72 362.952C871.76 361.462 864.81 359.952 857.83 358.552C854.89 357.962 852.01 356.992 848.97 356.972C846.67 355.782 844.11 355.582 841.64 355.042C797.14 345.292 752.75 335.052 708.58 323.892C703.19 322.532 697.88 320.772 692.34 320.022C690.82 319.582 689.3 319.112 687.77 318.702C671.67 314.392 655.58 310.062 639.46 305.812C637.02 305.172 634.63 304.172 632.04 304.212C630.71 303.242 629.14 302.942 627.61 302.502C616.86 299.482 606.11 296.482 595.38 293.382C582.82 289.752 570.28 286.022 557.74 282.342C557.67 274.722 557.58 267.102 557.54 259.492C557.53 257.272 557.68 255.052 557.75 252.842C575.32 258.042 592.87 263.312 610.46 268.422C617.65 270.512 624.77 272.862 632.13 274.302C634.04 275.372 636.1 275.912 638.28 276.012C643.2 277.932 648.37 279.032 653.45 280.402C701.54 293.442 749.9 305.402 798.46 316.562C803.74 317.772 808.96 319.332 814.39 319.882C819.87 321.842 825.54 322.982 831.3 323.702C831.89 323.932 832.46 324.242 833.07 324.372C845 326.962 856.91 329.632 868.87 332.072C874.77 333.272 880.6 334.882 886.61 335.482C893.21 337.582 900 338.772 906.84 339.772C914.95 341.432 923.05 343.172 931.19 344.722C952.62 348.812 974.06 352.882 995.52 356.812C1000.99 357.812 1006.41 359.262 1012.03 359.422C1013.38 360.402 1015.03 360.442 1016.56 360.722C1022.97 361.872 1029.39 362.892 1035.81 363.972C1037.38 364.232 1038.93 364.582 1040.5 364.792C1042.66 365.082 1043.12 364.742 1043.15 362.652C1043.2 358.842 1043.23 355.022 1043.16 351.212C1043.1 348.042 1043.49 344.862 1042.85 341.712C1042.95 339.962 1043.15 338.222 1043.15 336.472C1043.17 304.442 1043.16 272.402 1043.16 240.372C1043.16 239.252 1043.13 238.142 1043.14 237.022C1043.15 235.972 1042.76 235.152 1041.78 234.722C1037.86 232.982 1033.93 231.262 1030 229.532C1028.41 228.482 1026.83 227.402 1025.22 226.382C1013.42 218.902 1003.63 209.442 996.54 197.312C991.46 188.622 988.28 179.332 987.82 169.222C987.41 160.002 989.32 151.402 995.23 144.052C1000.4 137.612 1007.23 134.072 1015.45 133.522C1028.69 132.642 1039.83 137.572 1049.38 146.432C1056.42 152.962 1061.24 161.032 1064.95 169.792C1066.25 172.852 1067.38 175.982 1068.7 179.372C1069.99 178.742 1070.26 177.652 1070.74 176.762C1075.85 167.332 1081.55 158.282 1088.19 149.842C1094.74 141.522 1102.01 133.912 1110.67 127.712C1119.63 121.292 1129.37 116.592 1140.32 114.922C1149.06 113.582 1157.81 113.612 1166.44 116.102C1188.28 122.392 1195.99 141.842 1193.93 158.342C1193.63 160.712 1193.11 163.062 1192.76 165.422C1192.64 166.192 1192.74 166.992 1192.72 167.782C1192.37 168.292 1191.88 168.752 1191.71 169.312C1186.8 185.262 1177.01 197.842 1164.55 208.532C1151.24 219.952 1135.83 227.432 1119.1 232.352C1117.88 232.712 1116.69 233.162 1115.49 233.572C1115.01 233.612 1114.52 233.592 1114.06 233.702C1105.81 235.712 1097.47 236.982 1088.99 237.612C1084.36 237.962 1079.74 238.082 1075.1 238.152C1073.19 238.182 1073.19 238.232 1072.44 240.672L1072.45 240.712ZM1128.32 200.762L1128.18 200.842C1128.79 200.712 1129.45 200.712 1129.99 200.442C1137.41 196.772 1144.25 192.222 1150.33 186.592C1154.05 183.152 1157.59 179.522 1160.09 175.032C1164.46 169.532 1167.23 163.292 1168.09 156.362C1169.34 146.322 1164.62 141.332 1155.49 140.302C1146.44 139.282 1138.05 141.232 1130.27 145.912C1124.34 149.472 1119.13 153.912 1114.48 159.012C1100.85 173.972 1091.56 191.552 1083.59 209.942C1082.96 211.392 1083.46 212.112 1084.98 211.992C1095.83 211.172 1106.53 209.542 1116.86 205.962C1120.47 204.712 1124.12 203.522 1127.44 201.562C1127.73 201.292 1128.03 201.022 1128.32 200.752V200.762ZM1013.78 167.862C1013.88 168.912 1013.91 170.362 1014.17 171.772C1014.46 173.332 1014.86 174.892 1015.37 176.392C1017.49 182.682 1020.96 188.192 1025.4 193.092C1031.25 199.562 1038.27 204.502 1046.07 208.332C1046.59 208.582 1047.39 208.712 1047.87 208.482C1048.47 208.202 1048.33 207.402 1048.23 206.772C1046.72 197.462 1044.71 188.302 1040.96 179.592C1039.31 175.772 1037.32 172.142 1034.79 168.832C1032.74 166.152 1030.34 163.822 1027.41 162.102C1024.62 160.472 1021.67 159.312 1018.36 159.412C1016.23 159.472 1015.16 160.252 1014.45 162.272C1013.86 163.952 1013.85 165.712 1013.79 167.852L1013.78 167.862Z" fill="#FF0061"/>
<path d="M882.88 364.015C887.04 364.235 891.03 365.465 895.09 366.245C917.63 370.575 940.13 375.095 962.68 379.345C983.2 383.215 1003.76 386.835 1024.31 390.535C1029.02 391.385 1033.75 392.065 1038.47 392.845C1039.57 393.025 1040.65 393.305 1041.75 393.535C1042.65 393.725 1043.11 394.295 1043.14 395.195C1043.18 396.315 1043.2 397.425 1043.2 398.545C1043.2 409.395 1043.2 420.245 1043.2 431.095C1038.41 432.945 1033.39 433.935 1028.36 434.755C1019.04 436.265 1009.67 436.935 1000.2 436.115C974.68 433.885 953.25 423.605 936.39 404.145C935.56 403.185 934.71 402.235 933.86 401.285C933.76 401.175 933.59 401.115 933.11 400.815C931.49 401.665 930.03 403.095 928.43 404.285C916.33 413.275 903.5 420.965 889.51 426.665C874.87 432.625 859.71 436.165 843.88 436.395C819.29 436.755 797.31 429.565 778.62 413.255C772.94 408.295 768.09 402.565 763.66 396.465C762.93 395.465 762.49 394.185 761.21 393.595C759.74 394.445 759.2 396.035 758.33 397.325C748.15 412.475 734.58 423.515 717.78 430.545C709.18 434.145 700.15 436.135 690.87 436.935C682.24 437.685 673.65 437.385 665.08 436.065C651.6 433.995 639.63 428.895 630.12 418.895C628.89 419.055 629.07 419.975 629.07 420.705C629.04 424.385 629.08 428.055 629.03 431.735C629 433.575 628.66 433.855 626.73 433.925C625.93 433.955 625.13 433.925 624.33 433.925C603.71 433.925 583.1 433.925 562.48 433.925C561.36 433.925 560.24 433.925 559.13 433.885C558.22 433.855 557.65 433.375 557.62 432.425C557.58 431.305 557.57 430.185 557.57 429.075C557.57 381.605 557.57 334.135 557.57 286.675C557.57 285.245 557.7 283.805 557.77 282.375C570.32 286.055 582.85 289.785 595.41 293.415C606.14 296.515 616.89 299.505 627.64 302.535C629.17 302.965 630.75 303.275 632.07 304.245C631.85 315.585 631.61 326.935 631.44 338.275C631.37 343.105 632.09 347.875 633.53 352.455C637.44 364.905 645.33 373.185 658.7 375.085C671.69 376.935 685.76 371.305 691.66 355.415C693.72 349.855 694.66 344.035 694.75 338.045C694.84 331.905 693.96 325.955 692.38 320.065C697.92 320.815 703.22 322.575 708.62 323.935C752.79 335.095 797.18 345.335 841.68 355.085C844.15 355.625 846.71 355.835 849.01 357.015C846.68 358.395 844.35 359.775 842.04 361.165C836.54 364.475 835.87 363.855 841.89 367.655C844.05 369.025 846.41 370.035 848.89 370.665C861.27 373.825 872.48 370.935 882.9 364.015H882.88Z" fill="white"/>
<path d="M390.219 39.1533C390.879 40.0933 391.219 41.1233 391.229 42.2733C391.229 43.2533 390.569 43.8733 389.759 43.5433C388.729 43.1133 387.729 42.6333 386.709 42.1733C384.649 41.2433 382.599 41.5233 380.719 42.5433C377.019 44.5533 374.529 47.4933 374.169 51.8833C374.129 52.3533 374.089 52.8233 374.009 53.2933C373.989 53.4333 373.829 53.5433 373.729 53.6733C372.929 54.1533 372.229 53.6633 371.479 53.4733C358.879 50.3033 346.459 50.7033 334.469 55.9433C329.819 57.9733 325.359 60.5833 322.849 65.3933C321.999 65.8933 321.459 66.6633 320.949 67.4833C316.649 74.4033 315.159 81.9333 316.149 89.9533C317.179 98.3433 320.449 105.903 325.029 112.953C329.929 120.493 335.929 127.093 342.219 133.463C347.149 138.463 352.209 143.343 357.009 148.473C365.769 157.843 373.239 168.143 379.069 179.623C381.759 184.923 383.379 190.593 385.399 196.133C385.519 196.923 385.629 197.713 385.769 198.503C386.209 200.853 386.959 203.143 386.889 205.573C386.869 206.333 386.469 206.723 385.729 206.713C385.259 206.713 384.779 206.593 384.309 206.513C379.579 205.623 375.459 206.743 372.039 210.203C371.709 210.543 371.289 210.803 370.499 210.523C370.809 203.323 367.979 197.993 360.549 195.903C353.249 193.853 348.379 197.323 344.439 203.563C343.369 201.163 343.129 198.883 341.879 197.043C340.689 195.293 339.279 193.813 337.429 192.773C335.439 191.663 333.299 191.023 331.029 190.993C323.749 190.893 319.619 195.023 317.199 202.023C314.729 195.673 311.039 191.443 304.219 191.273C301.809 191.213 299.509 191.683 297.319 192.883C293.449 195.013 291.799 198.723 290.149 203.063C288.599 200.983 287.939 198.953 286.439 197.503C285.019 196.133 283.409 195.113 281.609 194.483C279.669 193.803 277.709 193.213 275.539 193.753C273.519 194.243 271.499 194.533 269.779 195.863C268.249 197.053 266.749 198.283 265.829 199.983C264.909 201.683 264.279 203.533 263.369 205.673C262.539 204.163 262.019 203.003 261.319 201.963C257.639 196.453 250.849 194.413 244.889 197.163C241.409 198.773 238.989 201.483 237.899 205.233C237.719 205.863 237.589 206.463 236.509 206.253C235.369 202.393 233.109 199.153 229.359 197.273C225.769 195.473 222.049 195.363 218.259 196.953C214.419 198.573 212.419 201.893 210.209 205.913C208.169 198.953 204.659 194.423 197.539 194.063C196.579 194.013 195.619 194.023 194.669 194.113C193.879 194.183 193.089 194.333 192.339 194.603C191.439 194.923 190.549 195.313 189.749 195.823C188.949 196.333 188.229 196.993 187.559 197.673C186.889 198.353 186.269 199.093 185.719 199.873C185.269 200.523 184.989 201.293 184.559 201.963C184.129 202.633 184.449 203.743 183.479 204.253C178.659 195.473 174.949 193.053 167.339 194.183C160.509 195.193 157.619 200.113 156.269 206.313C154.779 205.993 154.529 204.523 153.709 203.613C150.169 199.703 145.829 198.373 140.719 199.463C139.489 199.723 138.299 200.153 137.089 200.503C135.839 199.203 137.129 197.773 136.889 196.423C136.859 196.263 136.869 196.103 136.869 195.943C139.469 178.433 143.569 161.263 149.199 144.483C153.259 132.403 158.139 120.633 163.879 109.243C169.619 97.8533 175.899 86.7733 183.279 76.3433C184.009 75.3133 184.539 74.1533 185.169 73.0533C188.169 69.3633 191.209 65.7133 194.149 61.9933C200.669 53.7533 207.919 46.2233 215.749 39.2433C217.869 37.3533 219.959 35.4433 222.069 33.5433C228.549 28.8933 234.819 23.9533 241.719 19.9033C252.779 13.4133 264.289 8.07327 276.729 4.71327C283.359 2.92327 290.029 1.30327 296.829 0.653274C306.049 -0.226726 315.319 -0.346726 324.549 0.953274C332.479 2.07327 340.219 3.93327 347.659 6.87327C363.399 13.1033 376.979 22.3333 387.419 35.8633C388.299 36.9933 389.289 38.0433 390.219 39.1333V39.1533Z" fill="#FF0061"/>
<path d="M886.631 335.505C880.611 334.905 874.791 333.295 868.891 332.095C856.931 329.655 845.011 326.985 833.091 324.395C832.481 324.265 831.911 323.955 831.321 323.725C832.261 322.565 833.631 322.055 834.861 321.345C845.611 315.085 856.381 308.865 867.111 302.585C868.301 301.895 869.811 301.555 870.421 300.085C862.361 290.015 851.231 287.395 842.041 289.005C826.401 291.745 815.171 304.145 814.411 319.905C808.991 319.355 803.761 317.805 798.481 316.585C749.921 305.425 701.561 293.465 653.471 280.425C648.391 279.045 643.231 277.945 638.301 276.035C638.421 268.855 638.541 261.665 638.661 254.475C638.681 253.195 638.711 251.915 638.691 250.645C638.661 249.225 639.311 248.345 640.491 247.535C647.351 242.885 654.941 240.045 663.011 238.545C679.631 235.465 696.111 236.205 712.191 241.555C732.481 248.315 748.371 260.825 759.841 278.915C760.611 280.125 761.351 281.355 762.071 282.515C763.681 282.815 764.001 281.455 764.601 280.665C780.721 259.425 801.551 244.725 826.631 235.995C842.401 230.505 858.611 228.475 875.221 230.725C892.581 233.085 907.981 239.965 921.371 251.295C927.501 256.485 932.851 262.375 937.651 268.805C939.211 270.895 939.321 270.895 941.241 268.915C951.121 258.735 962.471 250.555 974.981 243.925C988.661 236.675 1003.08 231.835 1018.58 230.475C1022.4 230.135 1026.22 229.855 1030.04 229.555C1033.97 231.285 1037.9 233.005 1041.83 234.745C1042.81 235.185 1043.2 235.995 1043.19 237.045C1043.18 238.165 1043.21 239.275 1043.21 240.395C1043.21 272.425 1043.21 304.465 1043.2 336.495C1043.2 338.245 1043.01 339.985 1042.9 341.735C1032.62 347.635 1022.35 353.545 1012.07 359.445C1006.46 359.295 1001.04 357.835 995.561 356.835C974.101 352.905 952.661 348.835 931.231 344.745C923.101 343.195 915.001 341.445 906.881 339.795C908.461 336.165 910.061 332.545 911.601 328.895C912.691 326.315 912.921 323.595 913.071 320.235C903.871 325.445 895.231 330.425 886.651 335.505H886.631ZM1037.22 300.095C1035.65 297.835 1033.52 296.165 1031.38 294.515C1024.66 289.365 1017.11 287.655 1008.81 289.055C1003.52 289.945 998.781 292.185 994.441 295.265C984.611 302.245 980.121 311.695 981.501 323.765C981.701 325.505 982.151 327.205 982.531 328.925C982.731 329.835 982.901 330.805 983.921 331.245C992.131 327.195 1033.95 302.775 1037.23 300.095H1037.22Z" fill="white"/>
<path d="M1263.08 425.26C1265.31 424.77 1267.52 425.28 1269.71 425.52C1282.83 426.92 1295.93 428.48 1309.05 429.86C1320.27 431.04 1331.52 432.05 1342.75 433.14C1346.39 433.49 1350.03 433.86 1353.67 434.23C1347.86 450.52 1341.18 466.38 1330.85 480.42C1321.26 493.46 1309.31 503.48 1294.04 509.31C1287.44 511.83 1280.63 513.52 1273.65 514.45C1259.1 516.39 1244.62 515.85 1230.29 512.63C1220.43 510.41 1210.91 507.24 1202.24 501.9C1200.51 500.84 1198.08 500.1 1197.61 498.06C1197.2 496.28 1198.91 494.59 1199.73 492.88C1206.89 477.89 1214.08 462.93 1221.3 447.97C1221.91 446.72 1222.17 445.19 1223.7 444.3C1224.97 445.09 1226.28 445.95 1227.63 446.75C1235.63 451.49 1244.17 454.34 1253.57 453.99C1258.42 453.81 1263.09 452.8 1267.21 450.05C1268.14 449.43 1269.01 448.72 1269.84 447.97C1271.59 446.38 1271.74 445.96 1270.84 443.81C1268.57 438.36 1266.23 432.94 1263.92 427.5C1263.61 426.77 1263.36 426 1263.08 425.26Z" fill="white"/>
<path d="M632.15 274.322C624.79 272.882 617.659 270.532 610.479 268.442C592.879 263.332 575.34 258.072 557.77 252.862C557.69 251.432 557.549 250.002 557.549 248.572C557.539 224.442 557.549 200.312 557.549 176.182C557.549 175.222 557.53 174.262 557.56 173.302C557.63 171.422 557.84 171.242 559.9 171.162C560.7 171.132 561.499 171.162 562.299 171.162C584.189 171.162 606.079 171.162 627.969 171.162C629.089 171.162 630.21 171.142 631.33 171.192C632.28 171.232 632.729 171.822 632.789 172.722C632.829 173.362 632.849 174.002 632.849 174.632C632.829 194.122 632.87 213.622 632.75 233.112C632.67 246.852 632.369 260.582 632.169 274.322H632.15Z" fill="white"/>
<path d="M1114.31 405.3C1117.37 404.98 1120.31 405.91 1123.29 406.33C1137.77 408.34 1152.22 410.55 1166.69 412.61C1174.71 413.75 1182.76 414.75 1190.79 415.79C1191.9 415.93 1193.01 416 1193.96 416.68C1193.94 421.47 1193.94 426.27 1193.89 431.06C1193.86 433.83 1193.78 433.87 1190.83 433.92C1190.19 433.93 1189.55 433.92 1188.91 433.92C1165.74 433.92 1142.57 433.92 1119.4 433.93C1118.76 433.93 1118.12 433.93 1117.48 433.93C1114.34 433.88 1114.29 433.87 1114.28 430.71C1114.26 422.24 1114.28 413.77 1114.29 405.3H1114.31Z" fill="white"/>
<path d="M1071.79 419.114C1071.17 412.594 1071.51 406.064 1071.61 399.534C1071.61 399.264 1071.9 398.994 1072.07 398.704C1074.02 398.284 1075.84 399.104 1077.71 399.364C1082.6 400.044 1087.49 400.774 1092.36 401.594C1093.91 401.854 1095.55 401.924 1096.92 402.884C1089.06 409.084 1080.73 414.564 1071.79 419.104V419.114Z" fill="white"/>
<path d="M1071.66 342.445C1073.8 339.995 1074.72 336.885 1076.22 334.095C1077.17 332.335 1077.29 332.245 1079.19 332.755C1089.2 335.475 1099.21 338.195 1109.21 340.945C1111.61 341.605 1111.74 341.745 1111.69 344.235C1111.49 354.775 1111.24 365.325 1111.01 375.865C1102.67 374.645 1094.33 373.435 1085.99 372.185C1082.06 371.595 1078.13 370.985 1074.21 370.295C1071.74 369.865 1071.49 369.585 1071.49 367.275C1071.51 358.995 1071.59 350.725 1071.65 342.445H1071.66Z" fill="white"/>
<path d="M1128.18 200.836C1128.28 200.386 1128.26 199.856 1128.51 199.506C1136.46 188.276 1146.81 180.106 1159.61 175.056C1159.75 175.006 1159.93 175.046 1160.09 175.046C1157.59 179.536 1154.04 183.156 1150.33 186.606C1144.25 192.236 1137.41 196.786 1129.99 200.456C1129.45 200.726 1128.79 200.726 1128.18 200.856V200.836Z" fill="white"/>
<path d="M1127.44 201.566C1127.56 201.116 1127.63 200.596 1128.32 200.756C1128.03 201.026 1127.73 201.296 1127.44 201.566Z" fill="#040504"/>
<path d="M385.393 196.14C388.913 196.12 392.423 196.12 395.943 196.07C398.043 196.04 400.093 196.36 402.093 196.94C408.043 198.67 411.583 202.65 412.573 208.74C413.463 214.17 413.143 219.58 411.613 224.88C411.073 226.75 410.843 228.24 412.433 230.07C415.483 233.59 415.383 237.96 414.303 242.3C414.113 243.06 413.703 243.78 413.593 244.55C413.083 248.03 413.503 248.64 416.743 250.57C420.493 252.8 423.123 255.82 422.973 260.53C422.923 262.12 422.893 263.72 422.803 265.31C422.503 270.85 419.113 273.85 414.293 275.72C412.713 276.33 410.543 275.86 409.603 277.55C408.753 279.09 410.513 280.5 410.513 282.1C410.513 282.9 410.463 283.71 410.593 284.49C411.353 289.19 409.203 292.4 405.503 294.99C402.593 297.03 399.783 298.97 395.953 298.81C393.793 298.72 391.863 298.3 390.093 297.1C389.303 296.56 388.523 296 387.703 295.51C386.243 294.66 385.453 294.84 384.623 296.43C383.433 298.7 382.243 300.94 380.353 302.74C379.423 303.63 378.543 304.53 377.213 304.82C371.943 305.95 366.773 306.51 362.403 302.3C362.093 302 361.683 301.81 361.053 301.4C360.303 302.69 360.573 303.96 360.573 305.14C360.573 323.68 360.593 342.22 360.593 360.76C360.593 367.15 360.613 373.55 360.503 379.94C360.203 397.45 354.923 413.25 343.803 426.87C330.763 442.85 313.853 451.88 293.383 454.3C289.563 454.75 285.743 454.89 281.903 454.89C267.363 454.88 252.813 454.96 238.273 454.85C228.263 454.77 218.543 452.93 209.413 448.76C184.273 437.28 169.323 417.93 164.823 390.58C164.173 386.61 164.053 382.63 164.053 378.64C164.033 354.18 164.023 329.73 164.003 305.27C164.003 304.49 164.003 303.71 164.003 302.86C162.463 302.04 160.993 302.46 159.653 302.53C154.853 302.79 151.373 300.68 148.753 296.86C148.393 296.33 148.113 295.75 147.733 295.24C147.063 294.34 146.013 294.18 145.283 294.93C144.503 295.72 143.773 296.58 143.073 297.45C139.923 301.35 135.813 302.34 131.043 301.55C127.493 300.96 124.253 299.92 121.973 296.89C120.393 294.79 119.603 292.37 119.283 289.83C119.023 287.79 118.083 287.16 116.013 287.84C113.893 288.53 111.723 289.04 109.433 288.94C108.103 288.88 106.893 288.61 105.793 287.94C101.523 285.33 98.6228 281.48 97.2428 276.82C96.4628 274.19 96.4728 271.18 98.3428 268.55C99.0728 267.52 99.8328 266.52 100.603 265.51C101.853 263.87 101.713 262.74 100.243 261.34C99.3228 260.46 98.3428 259.64 97.4328 258.74C92.4928 253.86 93.4528 253.81 93.6028 248.58C93.7128 244.87 95.0828 241.46 97.8928 238.75C99.4328 237.26 101.093 236.12 103.233 235.79C103.703 235.72 104.173 235.6 104.643 235.49C108.533 234.51 108.763 234.15 107.793 230.23C106.753 226.02 106.783 221.99 109.763 218.48C110.763 217.3 111.003 215.99 110.943 214.48C110.883 213.05 111.033 211.61 111.183 210.18C112.123 201.42 117.013 196.69 125.853 196.08C128.403 195.91 130.963 195.99 133.523 195.97C134.643 195.96 135.763 195.97 136.883 195.96C136.883 196.12 136.883 196.28 136.903 196.44C137.143 197.79 135.853 199.22 137.103 200.52C138.313 200.17 139.513 199.75 140.733 199.48C145.843 198.38 150.183 199.71 153.723 203.63C154.543 204.54 154.793 206.01 156.283 206.33C157.633 200.13 160.523 195.22 167.353 194.2C174.963 193.07 178.673 195.49 183.493 204.27C184.463 203.77 184.143 202.66 184.573 201.98C185.003 201.31 185.273 200.54 185.733 199.89C186.283 199.11 186.903 198.37 187.573 197.69C188.243 197.01 188.963 196.36 189.763 195.84C190.563 195.33 191.453 194.94 192.353 194.62C193.093 194.36 193.893 194.21 194.683 194.13C195.633 194.04 196.603 194.03 197.553 194.08C204.673 194.43 208.183 198.97 210.223 205.93C212.423 201.91 214.423 198.59 218.273 196.97C222.053 195.38 225.783 195.49 229.373 197.29C233.123 199.17 235.393 202.4 236.523 206.27C237.613 206.48 237.733 205.88 237.913 205.25C239.013 201.5 241.423 198.79 244.903 197.18C250.873 194.43 257.653 196.47 261.333 201.98C262.033 203.02 262.553 204.18 263.383 205.69C264.293 203.55 264.933 201.7 265.843 200C266.763 198.3 268.263 197.07 269.793 195.88C271.513 194.55 273.533 194.26 275.553 193.77C277.733 193.24 279.693 193.83 281.623 194.5C283.423 195.13 285.033 196.14 286.453 197.52C287.953 198.97 288.603 201 290.163 203.08C291.823 198.74 293.463 195.03 297.333 192.9C299.533 191.69 301.823 191.23 304.233 191.29C311.043 191.45 314.743 195.69 317.213 202.04C319.633 195.04 323.753 190.91 331.043 191.01C333.313 191.04 335.453 191.68 337.443 192.79C339.293 193.83 340.713 195.32 341.893 197.06C343.143 198.9 343.383 201.18 344.453 203.58C348.403 197.34 353.273 193.87 360.563 195.92C368.003 198.01 370.823 203.33 370.513 210.54C371.303 210.82 371.713 210.56 372.053 210.22C375.473 206.76 379.593 205.64 384.323 206.53C384.793 206.62 385.263 206.73 385.743 206.73C386.473 206.73 386.873 206.34 386.903 205.59C386.973 203.16 386.223 200.86 385.783 198.52C385.633 197.74 385.533 196.94 385.413 196.15L385.393 196.14ZM195.623 340.45C195.623 340.45 195.693 340.45 195.723 340.45C195.723 353.4 195.693 366.34 195.723 379.29C195.803 403.81 216.213 422.77 239.113 422.59C254.613 422.47 270.123 422.47 285.623 422.46C288.683 422.46 291.673 422.1 294.663 421.5C312.343 417.95 326.243 402.67 328.293 384.74C329.043 378.18 328.733 371.66 328.553 365.11C328.493 363 327.753 361.86 325.773 361.32C324.703 361.03 323.683 360.54 322.643 360.12C309.873 354.94 297.713 348.61 286.473 340.6C270.073 328.91 256.783 314.46 247.493 296.49C246.613 294.79 246.053 292.71 244.703 291.54C243.123 290.18 240.723 290.96 238.723 291.08C236.143 291.23 234.033 290.37 232.023 289C231.103 288.38 230.293 287.6 229.463 286.86C227.063 284.72 226.873 284.73 225.413 287.45C224.493 289.15 223.363 290.67 221.993 292.04C219.733 294.28 217.163 295.4 213.883 295.45C210.353 295.5 207.263 294.73 204.543 292.48C203.933 291.98 203.273 291.5 202.563 291.16C201.823 290.8 200.943 290.76 200.313 291.37C197.693 293.92 195.413 296.34 195.513 300.66C195.833 313.92 195.633 327.19 195.633 340.46L195.623 340.45ZM326.223 312.22C326.173 304.39 319.543 297.76 311.783 298.07C303.533 298.41 298.003 304.46 297.753 312.18C297.503 319.97 304.113 326.51 311.973 326.52C319.873 326.52 326.263 320.12 326.223 312.22Z" fill="white"/>
<path d="M237.99 312.085C238.04 320.115 231.82 326.475 223.89 326.525C216 326.565 209.39 320.115 209.57 312.275C209.75 304.255 215.64 298.195 224.01 298.095C231.79 297.995 237.94 304.285 237.99 312.095V312.085Z" fill="white"/>
</svg>
