<svg width="384" height="416" viewBox="0 0 384 416" fill="none" xmlns="http://www.w3.org/2000/svg">
<path d="M341.655 144.654H42.988C25.345 144.654 10.988 159.011 10.988 176.654V197.987C10.988 274.104 53.036 343.139 120.705 378.147C125.932 380.835 132.374 378.808 135.084 373.56C137.772 368.333 135.745 361.891 130.497 359.181C69.953 327.864 32.321 266.104 32.321 197.986V176.653C32.321 170.765 37.1 165.986 42.988 165.986H341.655C347.543 165.986 352.322 170.765 352.322 176.653V197.986C352.322 266.103 314.69 327.863 254.125 359.159C248.877 361.868 246.85 368.311 249.538 373.538C251.437 377.207 255.17 379.319 259.031 379.319C260.695 379.319 262.359 378.935 263.916 378.124C331.607 343.137 373.655 274.124 373.655 197.985V176.652C373.655 159.011 359.297 144.654 341.655 144.654Z" fill="#6B2B2B"/>
<path d="M382.576 371.148C381.276 368.033 378.244 366 374.878 366H8.33794C4.97269 366 1.94014 368.033 0.64059 371.148C-0.658963 374.264 0.0571971 377.846 2.43997 380.229L21.1171 398.922C32.1469 409.935 46.7747 416 62.353 416H320.83C336.409 416 351.054 409.936 362.1 398.922L380.777 380.229C383.159 377.846 383.875 374.264 382.576 371.148ZM350.304 387.143C342.44 395.006 331.96 399.339 320.848 399.339H62.353C51.2404 399.339 40.7604 395.006 32.8967 387.143L28.4318 382.678H354.769L350.304 387.143Z" fill="#6B2B2B"/>
<path d="M272.576 78.0832C284.113 63.666 284.113 41.0901 272.576 26.6729C270.121 23.6078 265.68 23.097 262.601 25.566C259.536 28.0211 259.039 32.4763 261.494 35.5413C268.802 44.6653 268.802 60.0902 261.48 69.2427C249.93 83.6599 249.93 106.236 261.48 120.653C262.885 122.412 264.942 123.321 267.028 123.321C268.575 123.321 270.15 122.81 271.456 121.76C274.521 119.305 275.018 114.835 272.562 111.785C265.24 102.66 265.24 87.2358 272.576 78.0832Z" fill="#6B2B2B"/>
<path d="M208.497 78.0805C220.048 63.6625 220.048 41.0852 208.497 26.6671C206.056 23.6019 201.586 23.105 198.521 25.5603C195.456 28.0155 194.959 32.4856 197.414 35.5362C204.737 44.6606 204.737 60.0864 197.4 69.2395C185.863 83.6575 185.863 106.235 197.4 120.653C198.805 122.412 200.863 123.321 202.949 123.321C204.495 123.321 206.056 122.81 207.376 121.76C210.441 119.305 210.938 114.849 208.483 111.784C201.175 102.659 201.175 87.2336 208.497 78.0805Z" fill="#6B2B2B"/>
<path d="M144.762 54.0909C156.3 39.6716 156.3 17.0925 144.762 2.67323C142.321 -0.39223 137.864 -0.903141 134.785 1.56626C131.733 4.00705 131.237 8.47751 133.678 11.529C140.987 20.6542 140.987 36.0813 133.664 45.2351C122.112 59.6543 122.112 82.2335 133.664 96.6527C135.069 98.4123 137.127 99.321 139.213 99.321C140.76 99.321 142.335 98.8101 143.641 97.7743C146.706 95.3189 147.203 90.8484 144.748 87.7976C137.425 78.6571 137.425 63.2447 144.762 54.0909Z" fill="#6B2B2B"/>
<path d="M75.9129 255.532C72.551 253.682 69.4728 251.329 66.7783 248.55C62.6123 244.384 59.6464 239.108 58.2098 233.309C56.2046 224.753 58.7971 215.744 65.0028 209.705C68.6774 205.568 74.0689 203.529 79.4638 204.235C86.1796 205.164 91.9948 210.315 96.0603 215.201L88.4697 226.565C86.5167 223.385 83.8962 220.699 80.8018 218.706C79.2319 217.797 77.3625 217.616 75.6563 218.208C73.9501 218.8 72.5663 220.109 71.8473 221.812C67.6789 229.937 73.6228 238.327 80.21 242.735L75.9129 255.532Z" fill="#C03A2B"/>
<path d="M176.908 265.41C170.732 270.269 161.88 273.189 150.584 272.578C142.376 272.127 137.667 270.215 134.966 267.321C127.556 259.436 135.223 244.46 127.349 233.574C121.242 225.56 111.61 221.291 101.772 222.237C99.5343 216.582 99.0194 212.094 100.563 209.466C100.563 209.439 100.563 209.439 100.589 209.413V209.386C100.783 209.08 101.008 208.795 101.258 208.536C107.793 201.792 132.624 216.502 156.76 241.38C164.054 248.854 170.789 256.886 176.908 265.41Z" fill="#BDC3C7"/>
<g filter="url(#filter0_d)">
<path d="M187.689 299.369C177.525 308.396 126.912 349.524 89.4217 310.839C72.5679 293.475 71.3585 273.348 75.9128 255.533C77.0348 251.162 78.4712 246.884 80.21 242.735C82.5697 237.14 85.3306 231.736 88.4697 226.565C91.1457 222.104 93.8217 218.228 96.0603 215.201C97.913 212.705 99.4567 210.767 100.563 209.466C99.0194 212.094 99.5343 216.582 101.772 222.237C106.25 233.627 117.649 249.85 133.088 265.781C133.654 266.365 134.219 266.923 134.786 267.507C157.378 290.341 180.201 304.041 187.689 299.369Z" fill="#F3F2F2"/>
</g>
<path d="M176.907 265.41C170.789 256.886 164.054 248.854 156.76 241.38C132.624 216.502 107.793 201.792 101.258 208.536C101.008 208.795 100.783 209.08 100.589 209.386V209.413C100.563 209.439 100.563 209.439 100.563 209.466C99.0194 212.094 99.5343 216.582 101.772 222.237C106.25 233.627 117.649 249.85 133.088 265.781C133.654 266.365 134.219 266.923 134.786 267.507C157.378 290.341 180.201 304.041 187.689 299.369L176.907 265.41Z" fill="#BDC3C7"/>
<path d="M174.929 207.6C177.943 204.49 176.314 197.766 171.29 192.583C166.267 187.399 159.751 185.718 156.737 188.828C153.723 191.938 155.352 198.662 160.375 203.846C165.399 209.029 171.915 210.71 174.929 207.6Z" fill="#4A2B17"/>
<path d="M122.152 299.634C114.973 307.068 105.092 309.166 98.7621 305.05C103.291 300.138 99.8428 296.422 104.603 291.536C109.441 286.517 113.068 290.261 117.932 285.27C122.666 280.358 119.218 276.667 123.773 271.755C124.498 272.237 125.171 272.798 125.78 273.428C131.775 279.641 130.18 291.376 122.152 299.634Z" fill="#640808"/>
<path d="M123.773 271.755C119.218 276.667 122.666 280.358 117.932 285.27C113.068 290.261 109.441 286.517 104.603 291.536C99.8428 296.422 103.291 300.138 98.7622 305.05C98.0371 304.569 97.3642 304.008 96.7551 303.378C90.734 297.165 92.3551 285.429 100.383 277.172C107.562 269.737 117.443 267.64 123.773 271.755Z" fill="#9C2222"/>
<path d="M134.966 267.321L134.786 267.507C134.219 266.923 133.654 266.365 133.088 265.781C117.649 249.85 106.25 233.627 101.772 222.237C111.61 221.291 121.242 225.56 127.349 233.574C135.223 244.46 127.556 259.436 134.966 267.321Z" fill="#4A2B17"/>
<path d="M176.907 265.41C170.789 256.886 164.054 248.854 156.76 241.38C132.624 216.502 107.793 201.792 101.258 208.536C101.008 208.795 100.783 209.08 100.589 209.386V209.413C100.563 209.439 100.563 209.439 100.563 209.466C99.0194 212.094 99.5343 216.582 101.772 222.237C106.25 233.627 117.649 249.85 133.088 265.781C133.654 266.365 134.219 266.923 134.786 267.507C157.378 290.341 180.201 304.041 187.689 299.369C190.337 297.391 186.479 290.634 186.479 290.634L176.907 265.41ZM138.388 263.71L136.715 262.037C134.889 260.152 133.139 258.267 131.389 256.356C120.453 244.221 111.653 231.769 107.408 222.343C107.099 221.626 106.791 220.936 106.533 220.246C105.379 217.866 104.804 215.232 104.86 212.572L105.22 212.254C105.442 212.217 105.666 212.2 105.89 212.201C113.3 212.201 132.367 223.75 153.132 245.151C160.038 252.239 166.435 259.835 172.276 267.879L172.43 268.33L180.716 294.43C173.614 292.438 161.34 284.872 147.42 272.313C144.461 269.684 141.45 266.79 138.388 263.71Z" fill="#ECF0F1"/>
<path d="M206.704 255.4C206.348 266.519 203.371 277.382 198.033 287.049C195.34 291.689 190.566 294.622 185.329 294.852H185.239C183.567 294.953 181.89 294.765 180.279 294.297C177.146 293.252 174.128 291.873 171.272 290.182C169.394 289.093 167.387 287.845 165.251 286.411C158.993 282.151 153.034 277.44 147.42 272.313C148.423 272.419 149.478 272.525 150.584 272.578C161.88 273.189 170.732 270.268 176.907 265.41C187.421 257.574 190.255 242.672 183.392 231.318C172.662 212.758 208.814 212.493 206.704 255.4Z" fill="#4A2B17"/>
<path d="M188.177 278.393C183.739 283.896 177.876 287.984 171.272 290.182C169.394 289.093 167.387 287.846 165.251 286.411C172.648 284.947 179.339 280.918 184.215 274.995C185.125 273.865 186.749 273.711 187.843 274.649C188.938 275.588 189.087 277.264 188.177 278.393Z" fill="#805333"/>
<g clip-path="url(#clip0)">
<path d="M253.001 326.267C291.808 326.267 323.267 294.808 323.267 256.001C323.267 217.193 291.808 185.734 253.001 185.734C214.193 185.734 182.734 217.193 182.734 256.001C182.734 294.808 214.193 326.267 253.001 326.267Z" fill="#010101"/>
<path fill-rule="evenodd" clip-rule="evenodd" d="M230.991 246.956L253 224.947L275.009 246.979L287.816 234.172L253 199.333L218.184 234.149L230.991 246.956ZM196.334 256L209.14 243.193L221.947 256L209.14 268.807L196.334 256ZM230.991 265.044L253 287.053L275.009 265.021L287.839 277.828L253 312.667L218.184 277.851L218.161 277.828L230.991 265.044ZM284.053 256L296.86 243.193L309.667 256L296.86 268.807L284.053 256Z" fill="#F3BA2F"/>
<path fill-rule="evenodd" clip-rule="evenodd" d="M267.281 256.001L253.001 241.676L242.438 252.261L241.214 253.485L238.698 256.001L238.675 256.024L238.698 256.046L252.978 270.326L267.281 256.024V256.001Z" fill="#F3BA2F"/>
</g>
<defs>
<filter id="filter0_d" x="69.6332" y="209.466" width="122.055" height="125.674" filterUnits="userSpaceOnUse" color-interpolation-filters="sRGB">
<feFlood flood-opacity="0" result="BackgroundImageFix"/>
<feColorMatrix in="SourceAlpha" type="matrix" values="0 0 0 0 0 0 0 0 0 0 0 0 0 0 0 0 0 0 127 0"/>
<feOffset dy="4"/>
<feGaussianBlur stdDeviation="2"/>
<feColorMatrix type="matrix" values="0 0 0 0 0 0 0 0 0 0 0 0 0 0 0 0 0 0 0.25 0"/>
<feBlend mode="normal" in2="BackgroundImageFix" result="effect1_dropShadow"/>
<feBlend mode="normal" in="SourceGraphic" in2="effect1_dropShadow" result="shape"/>
</filter>
<clipPath id="clip0">
<rect width="170" height="170" fill="white" transform="translate(168 171)"/>
</clipPath>
</defs>
</svg>
