<?xml version="1.0" encoding="utf-8"?>
<!-- Generator: Adobe Illustrator 24.0.2, SVG Export Plug-In . SVG Version: 6.00 Build 0)  -->
<svg version="1.1" id="Layer_1" xmlns:v="https://vecta.io/nano"
	 xmlns="http://www.w3.org/2000/svg" xmlns:xlink="http://www.w3.org/1999/xlink" x="0px" y="0px" viewBox="0 0 186 171"
	 style="enable-background:new 0 0 186 171;" xml:space="preserve">
<style type="text/css">
	.st0{fill:#FEC803;}
	.st1{fill:#F3BA2F;}
	.st2{opacity:0.1;fill:none;stroke:#191326;stroke-width:3;enable-background:new    ;}
	.st3{fill:#FFFFFF;}
	.st4{clip-path:url(#SVGID_2_);}
	.st5{fill:#F7C408;}
	.st6{fill:#030509;}
	.st7{opacity:0.1;fill:none;stroke:#565656;stroke-width:2.837;enable-background:new    ;}
</style>
<g>
	<path class="st0" d="M172.4,95c-1-7.8-6.2-14.9-13.3-18.2c-8.6-4-18.7-2.6-27.8-5.3c-11.8-3.5-20.4-13.3-30.9-19.8
		C88,44.1,73.2,41.4,58.8,38.8C49.2,37.1,39.1,35.5,30,39c-12.3,4.9-19.5,20-15.5,32.6c6.8,21.4,37,27.1,46.2,47.6
		c4.8,10.6,3.2,24.1,10.7,32.9c9,10.5,25.5,8.7,38.9,5.5c10.2-2.5,20.3-5.3,30.4-8.2c8.2-2.3,16.8-4.8,22.8-10.8
		c7.5-7.4,4.4-13.1,4.3-21.7C167.9,109.5,173.5,103.3,172.4,95z"/>
</g>
<circle class="st1" cx="70.2" cy="39.8" r="29"/>
<circle class="st2" cx="70.2" cy="39.8" r="27.5"/>
<g>
	<path class="st3" d="M63.9,37.2l6.3-6.3l6.3,6.3l3.7-3.7l-9.9-9.9l-9.9,9.9L63.9,37.2z M54,39.8l3.7-3.7l3.7,3.7l-3.7,3.7L54,39.8z
		 M63.9,42.4l6.3,6.3l6.3-6.3l3.7,3.7l-10,9.9l-9.9-10l0,0L63.9,42.4z M79.1,39.8l3.7-3.7l3.7,3.7l-3.7,3.7L79.1,39.8z M73.9,39.8
		L73.9,39.8L73.9,39.8l-3.7,3.7l-3.7-3.7l0,0l0,0l0.6-0.7l0.3-0.3l2.7-2.7L73.9,39.8L73.9,39.8z"/>
</g>
<g>
	<g>
		<defs>
			<rect id="SVGID_1_" x="76.2" y="39.8" width="87" height="87"/>
		</defs>
		<clipPath id="SVGID_2_">
			<use xlink:href="#SVGID_1_"  style="overflow:visible;"/>
		</clipPath>
		<g class="st4">
			<path class="st5" d="M119.8,127c24.1,0,43.6-19.5,43.6-43.6c0-24.1-19.5-43.6-43.6-43.6c-24.1,0-43.6,19.5-43.6,43.6
				C76.2,107.4,95.7,127,119.8,127z"/>
		</g>
	</g>
	<path class="st6" d="M139.8,74.4c1.3,0,2.3-1,2.3-2.3V60.3c0-1.3-1-2.3-2.3-2.3c-1.3,0-2.3,1-2.3,2.3v9.4h-5.3v-9.4
		c0-1.3-1-2.3-2.3-2.3c-1.3,0-2.3,1-2.3,2.3v9.4h-5.3v-9.4c0-1.3-1-2.3-2.3-2.3s-2.7,0.9-2.7,2.2v9.4H112v-9.4c0-1.3-1-2.3-2.3-2.3
		c-1.3,0-2.3,1-2.3,2.3v9.4h-5.3v-9.4c0-1.3-1-2.3-2.3-2.3c-1.3,0-2.3,1-2.3,2.3v30.2c0,12.3,10,22.5,22.5,22.5s22.5-10,22.5-22.5
		v-6.7c0-2.3-1.9-4.2-4.2-4.2h-21v28.4c-1.9-0.3-3.7-0.8-5.3-1.7V74.1h27.8V74.4z M122.1,84.3h15.4v6.2c0,9-6.7,16.5-15.4,17.6V84.3
		z M107.3,103c-3.2-3.2-5.3-7.7-5.3-12.6V74.4h5.3V103z"/>
</g>
<circle class="st7" cx="119.7" cy="83.3" r="42.1"/>
</svg>
