<?xml version="1.0" encoding="utf-8"?>
<!-- Generator: Adobe Illustrator 24.0.2, SVG Export Plug-In . SVG Version: 6.00 Build 0)  -->
<svg version="1.1" id="Layer_1" xmlns:v="https://vecta.io/nano"
	 xmlns="http://www.w3.org/2000/svg" xmlns:xlink="http://www.w3.org/1999/xlink" x="0px" y="0px" viewBox="0 0 186 171"
	 style="enable-background:new 0 0 186 171;" xml:space="preserve">
<style type="text/css">
	.st0{fill:#FEC803;}
	.st1{fill:#F3BA2F;}
	.st2{opacity:0.1;fill:none;stroke:#191326;stroke-width:3;enable-background:new    ;}
	.st3{fill:#040404;}
	.st4{opacity:0.1;fill:none;stroke:#565656;stroke-width:2.837;enable-background:new    ;}
	.st5{fill:#FFFFFF;}
</style>
<g>
	<path class="st0" d="M172.4,95c-1-7.8-6.2-14.9-13.3-18.2c-8.6-4-18.7-2.6-27.8-5.3c-11.8-3.5-20.4-13.3-30.9-19.8
		C88,44.1,73.2,41.4,58.8,38.8C49.2,37.1,39.1,35.5,30,39c-12.3,4.9-19.5,20-15.5,32.6c6.8,21.4,37,27.1,46.2,47.6
		c4.8,10.6,3.2,24.1,10.7,32.9c9,10.5,25.5,8.7,38.9,5.5c10.2-2.5,20.3-5.3,30.4-8.2c8.2-2.3,16.8-4.8,22.8-10.8
		c7.5-7.4,4.4-13.1,4.3-21.7C167.9,109.5,173.5,103.3,172.4,95z"/>
</g>
<circle class="st1" cx="70.2" cy="39.8" r="29"/>
<circle class="st2" cx="70.2" cy="39.8" r="27.5"/>
<circle class="st3" cx="119.7" cy="83.3" r="43.5"/>
<circle class="st4" cx="119.7" cy="83.3" r="42.1"/>
<g>
	<path class="st5" d="M63.9,37.2l6.3-6.3l6.3,6.3l3.7-3.7l-9.9-9.9l-9.9,9.9L63.9,37.2z M54,39.8l3.7-3.7l3.7,3.7l-3.7,3.7L54,39.8z
		 M63.9,42.4l6.3,6.3l6.3-6.3l3.7,3.7l-10,9.9l-9.9-10l0,0L63.9,42.4z M79.1,39.8l3.7-3.7l3.7,3.7l-3.7,3.7L79.1,39.8z M73.9,39.8
		L73.9,39.8L73.9,39.8l-3.7,3.7l-3.7-3.7l0,0l0,0l0.6-0.7l0.3-0.3l2.7-2.7L73.9,39.8L73.9,39.8z"/>
</g>
<g>
	<g>
		<path class="st0" d="M112.2,93.9l4.2-0.1l0.3-1.6c1.4-6.6,4.6-22.5,4.6-22.6c0-0.1-1.9-0.2-4.3-0.2s-4.3,0.1-4.3,0.3
			c0,0.1-1.1,5.5-2.4,11.8c-1.3,6.4-2.4,11.8-2.4,12C108,93.9,108.5,94,112.2,93.9z"/>
		<path class="st0" d="M132.1,77.7h11.2l1.8-8.3h-11.9l0,0.1c-0.6-0.1-1.7-0.1-3.8-0.1l-4.4,0l-1.2,5.6c-1.2,5.6-4.2,19.8-4.5,21
			l-0.2,0.7l-11.8,0.1l-11.8,0.1l-0.7,4c-0.4,2.2-0.7,4.2-0.7,4.4c0,0.3,3.3,0.4,15.8,0.4H126l0.2-0.7c0.1-0.4,0.5-2.3,0.9-4.2
			c0.4-2,0.9-4.4,1.2-5.3c0.1-0.6,0.4-1.6,0.6-2.8h8.7l1.8-8.3h-8.7c0.2-0.8,0.4-1.7,0.5-2.5C131.4,80.6,131.7,79.1,132.1,77.7z"/>
		<path class="st0" d="M100.8,93.9l4.4-0.1l1.6-7.6c0.9-4.2,1.6-8.1,1.7-8.7l0.2-1.1h-4.3h-4.3l-1.8,8.2c-1,4.5-1.8,8.5-1.8,8.7
			C96.4,93.9,96.8,94,100.8,93.9z"/>
		<polygon class="st0" points="135.8,61.1 126.9,61.1 125.7,67.6 134.6,67.6 		"/>
	</g>
</g>
</svg>
