<svg xmlns="http://www.w3.org/2000/svg" xmlns:xlink="http://www.w3.org/1999/xlink" viewBox="0 0 48 50"><defs><radialGradient id="a" cx="24" cy="8268.66" r="17.46" gradientTransform="translate(0 -4106.81) scale(1 0.5)" gradientUnits="userSpaceOnUse"><stop offset="0.15" stop-color="#fff"/><stop offset="0.26" stop-color="#fafafa"/><stop offset="0.39" stop-color="#eaeaea"/><stop offset="0.54" stop-color="#d0d1d1"/><stop offset="0.7" stop-color="#adadae"/><stop offset="0.86" stop-color="#7f8081"/><stop offset="1" stop-color="#545557"/></radialGradient><radialGradient id="b" cx="11.55" cy="33.36" r="4.08" gradientTransform="translate(-37.54 -49.6) scale(5.35 2.51)" gradientUnits="userSpaceOnUse"><stop offset="0" stop-color="#8c8c8c"/><stop offset="0.31" stop-color="#adadad"/><stop offset="0.97" stop-color="#fff"/></radialGradient><linearGradient id="c" x1="24" y1="10.31" x2="24" y2="37.91" gradientUnits="userSpaceOnUse"><stop offset="0.58" stop-color="#f68730"/><stop offset="0.7" stop-color="#f6832f"/><stop offset="0.82" stop-color="#f4782c"/><stop offset="0.94" stop-color="#f26527"/><stop offset="1" stop-color="#f05724"/></linearGradient><mask id="d" x="5.92" y="10.89" width="36.17" height="18.39" maskUnits="userSpaceOnUse"><path d="M42.08,20.08c0,5.08-8.09,9.19-18.08,9.19S5.92,25.16,5.92,20.08,14,10.89,24,10.89,42.08,15,42.08,20.08Z" fill="url(#a)"/></mask><radialGradient id="e" cx="17.84" cy="21.79" r="5.65" gradientUnits="userSpaceOnUse"><stop offset="0" stop-color="#fffef9"/><stop offset="1" stop-color="#e6daa7"/></radialGradient><radialGradient id="f" cx="21.39" cy="21.32" r="3.39" xlink:href="#e"/><radialGradient id="g" cx="26.2" cy="19.32" r="3.64" xlink:href="#e"/><radialGradient id="h" cx="32.87" cy="18.63" r="4.05" xlink:href="#e"/><radialGradient id="i" cx="32.11" cy="21.37" r="3.58" xlink:href="#e"/><radialGradient id="j" cx="21.86" cy="16.27" r="3.54" xlink:href="#e"/><radialGradient id="k" cx="30.85" cy="14.58" r="3.99" xlink:href="#e"/><radialGradient id="l" cx="14.65" cy="21.46" r="4.69" xlink:href="#e"/><radialGradient id="m" cx="29.13" cy="21.8" r="3.64" xlink:href="#e"/><radialGradient id="n" cx="18.39" cy="17.13" r="4.5" xlink:href="#e"/><radialGradient id="o" cx="29.94" cy="18.96" r="3.44" xlink:href="#e"/><radialGradient id="p" cx="28.01" cy="20.43" r="3.53" xlink:href="#e"/><radialGradient id="q" cx="30.47" cy="23.12" r="5.65" xlink:href="#e"/><radialGradient id="r" cx="26.91" cy="22.65" r="3.39" xlink:href="#e"/><radialGradient id="s" cx="21.28" cy="18.84" r="3.64" xlink:href="#e"/><radialGradient id="t" cx="17.83" cy="19.02" r="4.05" xlink:href="#e"/><radialGradient id="u" cx="19.96" cy="19.1" r="3.58" xlink:href="#e"/><radialGradient id="v" cx="27.75" cy="16.9" r="3.54" xlink:href="#e"/><radialGradient id="w" cx="17.46" cy="15.91" r="3.99" xlink:href="#e"/><radialGradient id="x" cx="33.66" cy="22.79" r="4.69" xlink:href="#e"/><radialGradient id="y" cx="15.32" cy="25.48" r="3.63" xlink:href="#e"/><radialGradient id="z" cx="31.22" cy="17.75" r="4.5" xlink:href="#e"/><radialGradient id="aa" cx="24.72" cy="20.97" r="3.44" xlink:href="#e"/><radialGradient id="ab" cx="20.3" cy="21.76" r="3.53" xlink:href="#e"/><radialGradient id="ac" cx="17.64" cy="19.11" r="5.65" xlink:href="#e"/><radialGradient id="ad" cx="22.67" cy="16.28" r="3.39" xlink:href="#e"/><radialGradient id="ae" cx="26" cy="19.75" r="3.64" xlink:href="#e"/><radialGradient id="af" cx="28.95" cy="18.79" r="4.05" xlink:href="#e"/><radialGradient id="ag" cx="31.91" cy="17.7" r="3.58" xlink:href="#e"/><radialGradient id="ah" cx="20.36" cy="21.01" r="3.54" xlink:href="#e"/><radialGradient id="ai" cx="30.65" cy="24.49" r="3.99" xlink:href="#e"/><radialGradient id="aj" cx="18.29" cy="16.98" r="4.69" xlink:href="#e"/><radialGradient id="ak" cx="28.94" cy="17.27" r="3.63" xlink:href="#e"/><radialGradient id="al" cx="16.89" cy="22.64" r="4.5" xlink:href="#e"/><radialGradient id="am" cx="22.01" cy="18.91" r="3.44" xlink:href="#e"/><radialGradient id="an" cx="27.82" cy="18.63" r="3.53" xlink:href="#e"/><radialGradient id="ao" cx="30.28" cy="15.95" r="5.65" xlink:href="#e"/><radialGradient id="ap" cx="24.12" cy="17.25" r="3.39" xlink:href="#e"/><radialGradient id="aq" cx="22.09" cy="19.53" r="3.64" xlink:href="#e"/><radialGradient id="ar" cx="13.46" cy="18.6" r="4.05" xlink:href="#e"/><radialGradient id="as" cx="20.11" cy="20.16" r="3.58" xlink:href="#e"/><radialGradient id="at" cx="27.56" cy="22.17" r="3.54" xlink:href="#e"/><radialGradient id="au" cx="17.27" cy="23.16" r="3.99" xlink:href="#e"/><radialGradient id="av" cx="28.96" cy="19.16" r="4.69" xlink:href="#e"/><radialGradient id="aw" cx="15.13" cy="13.59" r="3.63" xlink:href="#e"/><radialGradient id="ax" cx="26.51" cy="19.38" r="4.5" xlink:href="#e"/><radialGradient id="ay" cx="24.53" cy="18.1" r="3.44" xlink:href="#e"/><radialGradient id="az" cx="21.3" cy="17.05" r="3.53" xlink:href="#e"/><clipPath id="ba"><path d="M26,9.71c-.92,0-1.66,1.25-1.66,1.42s.74.31,1.66.31,1.67-.14,1.67-.31S26.89,9.71,26,9.71Z" fill="none"/></clipPath><clipPath id="bb"><path d="M26,12.16a1.76,1.76,0,0,1-1.66-1c0-.17.74.31,1.66.31s1.67-.48,1.67-.31A2,2,0,0,1,26,12.16Z" fill="none"/></clipPath><clipPath id="bc"><path d="M38,21.61c-.92,0-1.66,1.25-1.66,1.42s.74.31,1.66.31,1.67-.14,1.67-.31S38.9,21.61,38,21.61Z" fill="none"/></clipPath><clipPath id="bd"><path d="M38,24.06a1.76,1.76,0,0,1-1.66-1c0-.17.74.31,1.66.31s1.67-.48,1.67-.31A2,2,0,0,1,38,24.06Z" fill="none"/></clipPath><clipPath id="be"><path d="M28.07,26.81c-.92,0-1.67,1.25-1.67,1.42s.75.3,1.67.3,1.66-.13,1.66-.3S29,26.81,28.07,26.81Z" fill="none"/></clipPath><clipPath id="bf"><path d="M28.07,29.26a1.79,1.79,0,0,1-1.67-1c0-.17.75.3,1.67.3s1.66-.47,1.66-.3A2,2,0,0,1,28.07,29.26Z" fill="none"/></clipPath><clipPath id="bg"><path d="M30.12,13c-.92,0-1.66,1.24-1.66,1.41s.74.31,1.66.31,1.67-.14,1.67-.31S31,13,30.12,13Z" fill="none"/></clipPath><clipPath id="bh"><path d="M30.12,15.43a1.76,1.76,0,0,1-1.66-1c0-.17.74.31,1.66.31s1.67-.48,1.67-.31A2,2,0,0,1,30.12,15.43Z" fill="none"/></clipPath><clipPath id="bi"><path d="M11.27,20.92c-.92,0-1.66,1.25-1.66,1.42s.74.31,1.66.31,1.67-.14,1.67-.31S12.19,20.92,11.27,20.92Z" fill="none"/></clipPath><clipPath id="bj"><path d="M11.27,23.37a1.76,1.76,0,0,1-1.66-1c0-.17.74.31,1.66.31s1.67-.48,1.67-.31A2,2,0,0,1,11.27,23.37Z" fill="none"/></clipPath><clipPath id="bk"><path d="M11.73,12.6c-.92,0-1.67,1.25-1.67,1.42s.75.3,1.67.3,1.66-.13,1.66-.3S12.65,12.6,11.73,12.6Z" fill="none"/></clipPath><clipPath id="bl"><path d="M11.73,15.05a1.79,1.79,0,0,1-1.67-1c0-.17.75.3,1.67.3s1.66-.47,1.66-.3A2,2,0,0,1,11.73,15.05Z" fill="none"/></clipPath><clipPath id="bm"><path d="M27.31,10.93c-.92,0-1.67,1.25-1.67,1.42s.75.31,1.67.31S29,12.52,29,12.35,28.23,10.93,27.31,10.93Z" fill="none"/></clipPath><clipPath id="bn"><path d="M27.31,13.38c-.92,0-1.67-.72-1.67-1s.75.31,1.67.31S29,12.18,29,12.35A2,2,0,0,1,27.31,13.38Z" fill="none"/></clipPath><clipPath id="bo"><path d="M17.18,15.17c-.92,0-1.66,1.25-1.66,1.42s.74.31,1.66.31,1.66-.14,1.66-.31S18.1,15.17,17.18,15.17Z" fill="none"/></clipPath><clipPath id="bp"><path d="M17.18,17.62a1.76,1.76,0,0,1-1.66-1c0-.17.74.31,1.66.31s1.66-.48,1.66-.31A2,2,0,0,1,17.18,17.62Z" fill="none"/></clipPath></defs><title>Artboard 2 copy 2</title><path d="M46.14,34.15c0,5.65-9.77,10.24-21.83,10.24S2.47,39.8,2.47,34.15s9.78-10.24,21.84-10.24S46.14,28.49,46.14,34.15Z" fill="url(#b)"/><path d="M46.19,19c0,8.56-9.94,18.92-22.19,18.92S1.81,27.55,1.81,19,11.74,10.31,24,10.31,46.19,10.42,46.19,19Z" fill="url(#c)"/><path d="M46.19,18.28c0,7-9.94,12.66-22.19,12.66S1.81,25.27,1.81,18.28,11.74,5.61,24,5.61,46.19,11.28,46.19,18.28Z" fill="#fec775"/><path d="M43.7,18.66c0,6.07-8.82,11-19.7,11s-19.7-4.93-19.7-11,8.82-11,19.7-11S43.7,12.58,43.7,18.66Z" fill="#f05724"/><path d="M42.85,20.08c0,5.29-8.44,9.58-18.85,9.58S5.15,25.37,5.15,20.08,13.59,10.5,24,10.5,42.85,14.79,42.85,20.08Z" fill="#d8e13a"/><path d="M3.17,18.57a7.23,7.23,0,0,1,1-4.72,12.22,12.22,0,0,1,3.41-3.57A16.27,16.27,0,0,1,12,8a17.13,17.13,0,0,1,4.81-.86l0,.11c-1.5.66-3,1.2-4.43,1.82a32.27,32.27,0,0,0-4.25,2A11.41,11.41,0,0,0,4.7,14.16a7.1,7.1,0,0,0-1.42,4.39Z" fill="#fff"/><path d="M30.45,29.62A23.79,23.79,0,0,0,35.78,28a20.82,20.82,0,0,0,4.77-2.78,14.34,14.34,0,0,0,3.58-4.05,5.51,5.51,0,0,0,.75-2.48,3.89,3.89,0,0,0-.18-1.3,4.05,4.05,0,0,0-.59-1.22l0-.06a3.79,3.79,0,0,1,1.33,2.55,5.23,5.23,0,0,1-.6,2.91,9,9,0,0,1-1.74,2.34A18.33,18.33,0,0,1,41,25.74a21.51,21.51,0,0,1-5,2.64,24.12,24.12,0,0,1-5.47,1.32Z" fill="#fff"/><path d="M42.85,20.08c0,5.29-8.44,9.58-18.85,9.58S5.15,25.37,5.15,20.08,13.59,10.5,24,10.5,42.85,14.79,42.85,20.08Z" fill="#d8e13a"/><g opacity="0.25"><path d="M25.33,14.27a1,1,0,1,1-1-1A1,1,0,0,1,25.33,14.27Z" fill="#879f3b"/><path d="M25.3,14.26a1,1,0,1,1-1-1A1,1,0,0,1,25.3,14.26Z" fill="#8aa13c"/><path d="M25.28,14.25a.91.91,0,0,1-.94.89.93.93,0,0,1-.91-1,.93.93,0,0,1,1.85.06Z" fill="#8ca33e"/><path d="M25.26,14.24a.85.85,0,0,1-.91.82.88.88,0,0,1-.85-.91.87.87,0,0,1,.91-.83A.9.9,0,0,1,25.26,14.24Z" fill="#8ea53f"/><path d="M25.24,14.22a.81.81,0,0,1-.87.77.86.86,0,0,1-.8-.88.81.81,0,0,1,.88-.76A.83.83,0,0,1,25.24,14.22Z" fill="#90a740"/><path d="M25.22,14.21a.76.76,0,0,1-.84.7.8.8,0,0,1-.74-.84.76.76,0,0,1,.84-.7A.8.8,0,0,1,25.22,14.21Z" fill="#92a942"/><path d="M25.2,14.2a.7.7,0,0,1-.81.63.77.77,0,0,1-.68-.81.71.71,0,0,1,.81-.63A.76.76,0,0,1,25.2,14.2Z" fill="#95ab44"/><path d="M25.18,14.18a.65.65,0,0,1-.77.57.72.72,0,0,1-.63-.77.67.67,0,0,1,.77-.57A.72.72,0,0,1,25.18,14.18Z" fill="#97ad46"/><path d="M25.16,14.17a.62.62,0,0,1-.74.51.69.69,0,0,1-.57-.74.61.61,0,0,1,.74-.5A.67.67,0,0,1,25.16,14.17Z" fill="#99af47"/><path d="M25.14,14.16a.57.57,0,0,1-.7.44.64.64,0,0,1-.52-.7.56.56,0,0,1,.7-.44A.63.63,0,0,1,25.14,14.16Z" fill="#9bb149"/><path d="M25.12,14.15a.53.53,0,0,1-.67.37.59.59,0,0,1-.46-.66.53.53,0,0,1,.67-.38A.61.61,0,0,1,25.12,14.15Z" fill="#9eb34b"/><path d="M25.1,14.13a.48.48,0,0,1-.63.32.56.56,0,0,1-.41-.63.47.47,0,0,1,.63-.32A.56.56,0,0,1,25.1,14.13Z" fill="#a0b64d"/><path d="M25.08,14.12a.44.44,0,0,1-.6.25.51.51,0,0,1-.35-.6.45.45,0,0,1,.6-.25A.53.53,0,0,1,25.08,14.12Z" fill="#a2b84f"/><path d="M25.06,14.11a.4.4,0,0,1-.56.18.47.47,0,0,1-.3-.56.4.4,0,0,1,.56-.18A.47.47,0,0,1,25.06,14.11Z" fill="#a5ba51"/><path d="M25,14.09a.37.37,0,0,1-.53.13.44.44,0,0,1-.24-.53.37.37,0,0,1,.53-.12A.44.44,0,0,1,25,14.09Z" fill="#a8bd53"/><path d="M25,14.08a.34.34,0,0,1-.49.06.4.4,0,0,1-.18-.49.34.34,0,0,1,.49-.06A.38.38,0,0,1,25,14.08Z" fill="#aabf56"/><path d="M25,14.07a.32.32,0,0,1-.45,0,.35.35,0,0,1-.13-.45.32.32,0,0,1,.46,0A.35.35,0,0,1,25,14.07Z" fill="#adc258"/><path d="M24.9,13.64a.3.3,0,0,1,.07.42c-.09.09-.28.06-.42-.07s-.16-.33-.07-.42A.3.3,0,0,1,24.9,13.64Z" fill="#b0c55b"/></g><g opacity="0.25"><path d="M33.88,25.38a1,1,0,1,1-2,0,1,1,0,1,1,2,0Z" fill="#879f3b"/><path d="M33.86,25.34a1,1,0,1,1-1-1A1,1,0,0,1,33.86,25.34Z" fill="#8aa13c"/><path d="M33.83,25.3a.91.91,0,0,1-.89.95.94.94,0,0,1-.95-.91.93.93,0,0,1,.89-.95A.94.94,0,0,1,33.83,25.3Z" fill="#8ca33e"/><path d="M33.81,25.26a.87.87,0,0,1-.83.92.9.9,0,0,1-.91-.86.86.86,0,0,1,.82-.91A.91.91,0,0,1,33.81,25.26Z" fill="#8ea53f"/><path d="M33.78,25.23a.81.81,0,0,1-.76.87.84.84,0,0,1-.88-.79.81.81,0,0,1,.76-.88A.85.85,0,0,1,33.78,25.23Z" fill="#90a740"/><path d="M33.76,25.19a.77.77,0,0,1-.7.84.8.8,0,0,1-.84-.74.76.76,0,0,1,.69-.84A.81.81,0,0,1,33.76,25.19Z" fill="#92a942"/><path d="M33.73,25.15a.71.71,0,0,1-.63.81.78.78,0,0,1-.81-.69.7.7,0,0,1,.63-.8A.76.76,0,0,1,33.73,25.15Z" fill="#95ab44"/><path d="M33.71,25.11a.66.66,0,0,1-.57.77.72.72,0,0,1-.77-.62.66.66,0,0,1,.56-.78A.74.74,0,0,1,33.71,25.11Z" fill="#97ad46"/><path d="M33.68,25.07a.61.61,0,0,1-.5.74.67.67,0,0,1-.74-.57.62.62,0,0,1,.5-.74A.68.68,0,0,1,33.68,25.07Z" fill="#99af47"/><path d="M33.66,25a.57.57,0,0,1-.44.7.65.65,0,0,1-.71-.52.57.57,0,0,1,.44-.7A.65.65,0,0,1,33.66,25Z" fill="#9bb149"/><path d="M33.63,25a.53.53,0,0,1-.38.67.6.6,0,0,1-.66-.47.52.52,0,0,1,.37-.66A.6.6,0,0,1,33.63,25Z" fill="#9eb34b"/><path d="M33.61,25a.48.48,0,0,1-.32.63.55.55,0,0,1-.63-.4.47.47,0,0,1,.31-.63A.56.56,0,0,1,33.61,25Z" fill="#a0b64d"/><path d="M33.58,24.92a.44.44,0,0,1-.25.6.51.51,0,0,1-.59-.35.44.44,0,0,1,.24-.6A.52.52,0,0,1,33.58,24.92Z" fill="#a2b84f"/><path d="M33.56,24.89a.4.4,0,0,1-.19.56.48.48,0,0,1-.56-.3.41.41,0,0,1,.18-.56A.49.49,0,0,1,33.56,24.89Z" fill="#a5ba51"/><path d="M33.53,24.85a.36.36,0,0,1-.12.52.42.42,0,0,1-.52-.23.37.37,0,0,1,.11-.53A.44.44,0,0,1,33.53,24.85Z" fill="#a8bd53"/><path d="M33.51,24.81a.35.35,0,0,1-.06.49.39.39,0,0,1-.49-.18c-.12-.19-.1-.41,0-.49A.4.4,0,0,1,33.51,24.81Z" fill="#aabf56"/><path d="M33.48,24.77a.33.33,0,0,1,0,.46A.36.36,0,0,1,33,25.1c-.12-.16-.13-.36,0-.45A.34.34,0,0,1,33.48,24.77Z" fill="#adc258"/><path d="M33.46,24.74a.26.26,0,1,1-.35.35.31.31,0,0,1-.07-.43C33.13,24.57,33.32,24.6,33.46,24.74Z" fill="#b0c55b"/></g><g opacity="0.3"><path d="M22.29,27.77c-.18.71-1.59,1-3.13.56s-2.65-1.31-2.47-2c0-.09.17-.65.17-.65a5.88,5.88,0,0,1,3.08-.35,5.66,5.66,0,0,1,2.52,1.81Z" fill="#e75b2a"/><path d="M22.46,27.12c-.19.72-1.59,1-3.14.56s-2.64-1.31-2.46-2,1.59-1,3.14-.56S22.65,26.41,22.46,27.12Z" fill="#f47826"/><path d="M21.2,26.79c-.1.4-.87.53-1.72.31S18,26.38,18.12,26s.88-.53,1.73-.31S21.31,26.4,21.2,26.79Z" fill="#db6b27"/><path d="M20.85,26.7c-.08.3-.68.41-1.33.24s-1.12-.56-1.05-.86.68-.41,1.34-.24S20.93,26.4,20.85,26.7Z" fill="#f68b44"/></g><g mask="url(#d)"><path d="M21.76,26a18.46,18.46,0,0,1-2.2-.18,10.73,10.73,0,0,0-2.15-.15c-1.46.13-1.54-.67-1.64-1.77a11,11,0,0,0-.87-3.64c-.5-1.18-1.11-1.86-1.82-2a2.06,2.06,0,0,0-1.64.47l-.4-.45a2.69,2.69,0,0,1,2.16-.61c.92.21,1.67,1,2.25,2.38a11.88,11.88,0,0,1,.92,3.81c.1,1.13.12,1.31,1,1.23a11.85,11.85,0,0,1,2.28.15c1.91.25,3.9.49,4.42-1l.57.2C24.18,25.68,23.06,26,21.76,26Z" fill="url(#e)"/><path d="M17.31,23.61c0-.19-.41-1.92.4-2.73a1.54,1.54,0,0,1,1.51-.36,16.42,16.42,0,0,1,2,.57,2.29,2.29,0,0,0,1.85.17c.27-.11.32-.4.38-.86A1.48,1.48,0,0,1,24,19.22a2,2,0,0,1,1.61,0l-.16.57c-.69-.19-1-.13-1.12,0s-.22.43-.26.75a1.46,1.46,0,0,1-.74,1.35,2.87,2.87,0,0,1-2.27-.16,14.63,14.63,0,0,0-1.95-.55,1,1,0,0,0-1,.18c-.49.5-.34,1.75-.24,2.19Z" fill="url(#f)"/><path d="M26.1,22.31c-2.21,0-4-4.72-4.09-5.94l.6-.05c.09,1.09,1.85,5.5,3.54,5.39a2.67,2.67,0,0,0,1.72-.84,2.34,2.34,0,0,1,2.51-.69l-.17.58a1.75,1.75,0,0,0-1.95.57,3.32,3.32,0,0,1-2.07,1Z" fill="url(#g)"/><path d="M32.88,20.58c-.6,0-1.08-.54-1.62-1.16A7.83,7.83,0,0,0,29,17.5c-.48-.25-.74-.26-.83-.18s-.09,1,.14,1.66l-.56.21c-.11-.29-.6-1.77,0-2.32s1.24,0,1.49.09A8.3,8.3,0,0,1,31.71,19c.57.65.92,1,1.27.94l.6-.12c.9-.18,1.83-.37,2.68-.47a1.7,1.7,0,0,0,1.21-.7.91.91,0,0,0,.16-.73l.58-.16A1.46,1.46,0,0,1,38,19a2.32,2.32,0,0,1-1.63,1c-.82.09-1.74.28-2.63.46l-.61.12Z" fill="url(#h)"/><path d="M32.79,25.86A3.77,3.77,0,0,1,30.68,25c-.7-.47-1-.81-.91-1.17s.64-.66,1.5-.94a9.73,9.73,0,0,0,1-.34,2.1,2.1,0,0,0,1-1.31,6.77,6.77,0,0,0,.12-4.07l.52-.29a7,7,0,0,1-.07,4.56,2.58,2.58,0,0,1-1.39,1.67c-.36.14-.71.25-1,.36a3,3,0,0,0-1.1.46s0,.12.66.57c1.38.94,1.77.84,2.71.59l.59-.14.13.58-.57.14A4.1,4.1,0,0,1,32.79,25.86Z" fill="url(#i)"/><path d="M19.88,19.05a4.63,4.63,0,0,1-2.05-.58l-.13-.07.26-.53.14.06a3.2,3.2,0,0,0,2.71.36c.59-.21.42-1,.1-2.09a4.58,4.58,0,0,1-.29-1.64.88.88,0,0,1,.45-.67c1.09-.69,4.05-.35,4.95,0l-.2.56c-.91-.33-3.6-.56-4.43,0a.34.34,0,0,0-.18.22A4.72,4.72,0,0,0,21.48,16c.31,1.07.69,2.41-.46,2.82A3.27,3.27,0,0,1,19.88,19.05Z" fill="url(#j)"/><path d="M33,16.21a2.56,2.56,0,0,1-.57-.06,1.51,1.51,0,0,1-1.2-.89,3.37,3.37,0,0,0-2.55-1.69c-1.12-.19-2.56,1.29-2.63,1.65l-.59-.11c.13-.71,1.86-2.38,3.32-2.13a3.91,3.91,0,0,1,3,2.08,1,1,0,0,0,.75.5,1.52,1.52,0,0,0,1.27-.19,3.72,3.72,0,0,0,.34-.49c.36-.6.91-1.51,2.11-1l-.24.55c-.68-.3-.95.06-1.36.74a3.73,3.73,0,0,1-.41.58A1.71,1.71,0,0,1,33,16.21Z" fill="url(#k)"/><path d="M13.62,24.05h-.15a8.49,8.49,0,0,1-2-.94,10.76,10.76,0,0,0-3-1.36l.11-.59a11.54,11.54,0,0,1,3.16,1.43,8.67,8.67,0,0,0,1.77.87c.39.08,1.31-1.19,1.92-2a8,8,0,0,1,1.72-2A4.64,4.64,0,0,1,20.62,19h.13l-.07.6-.13,0a4.08,4.08,0,0,0-3,.36A7.68,7.68,0,0,0,16,21.76C15.12,23,14.35,24.05,13.62,24.05Z" fill="url(#l)"/><path d="M24.76,24l-.28-.53c.95-.49.77-1.06.55-1.78-.15-.48-.31-1,0-1.39.76-.89,6.89-.87,8.71-.16l-.22.56c-1.93-.76-7.6-.52-8,0-.12.14-.05.41.08.83A1.77,1.77,0,0,1,24.76,24Z" fill="url(#m)"/><path d="M18.33,20c-.82,0-1.93-1-3.52-2.63a10.4,10.4,0,0,0-2.12-1.84l.21-.57a9.91,9.91,0,0,1,2.33,2c1,1,2.46,2.46,3.1,2.46h0c1-.05,4.89-2.48,5.14-3.44,0-.06,0-.06,0-.08a7.91,7.91,0,0,0-3.8-.92.23.23,0,0,0,.07-.1l-.57-.19a.46.46,0,0,1,.3-.28,8.18,8.18,0,0,1,4.32,1,.64.64,0,0,1,.29.74c-.33,1.3-4.47,3.83-5.69,3.89Z" fill="url(#n)"/><path d="M28,23.29l-.29-.52c1.21-.67,3.71-4.08,3.85-5.52a.38.38,0,0,0,0-.31l-.13-.11c-.84-.7-1.22-1-1.09-2.2l.59.06c-.09.87.08,1,.88,1.68l.13.11a.91.91,0,0,1,.27.83C32,19,29.37,22.53,28,23.29Z" fill="url(#o)"/><path d="M25.76,24.86l-.05-.6a.29.29,0,0,0,.22-.12c.32-.38.21-1.56.12-2.51a6.44,6.44,0,0,1,0-1.73,8.09,8.09,0,0,1,3.16-3.65,1.38,1.38,0,0,1,1.14-.18l-.22.55a.91.91,0,0,0-.64.16A7.41,7.41,0,0,0,26.6,20a6.64,6.64,0,0,0,0,1.56c.11,1.16.22,2.37-.26,3A.93.93,0,0,1,25.76,24.86Z" fill="url(#p)"/><path d="M26.54,27.32c-1.29,0-2.42-.32-2.86-1.56l.56-.2c.53,1.47,2.51,1.22,4.43,1A11.06,11.06,0,0,1,31,26.39c.86.07.88-.1,1-1.23a11.9,11.9,0,0,1,.91-3.82C33.43,20,34.19,19.17,35.1,19a2.64,2.64,0,0,1,2.16.61l-.4.45a2,2,0,0,0-1.63-.47c-.71.16-1.32.84-1.83,2a11.27,11.27,0,0,0-.86,3.65c-.11,1.1-.19,1.89-1.65,1.77a10.69,10.69,0,0,0-2.15.14A16.47,16.47,0,0,1,26.54,27.32Z" fill="url(#q)"/><path d="M31,24.94l-.59-.13c.1-.44.25-1.69-.24-2.19a1,1,0,0,0-1-.18,14.2,14.2,0,0,0-1.95.55,2.83,2.83,0,0,1-2.27.15c-.61-.25-.68-.86-.74-1.34s-.08-.64-.26-.76-.43-.14-1.12.05l-.16-.58a1.91,1.91,0,0,1,1.61,0,1.46,1.46,0,0,1,.52,1.17c.06.47.11.76.38.87a2.35,2.35,0,0,0,1.84-.17,15,15,0,0,1,2-.57,1.56,1.56,0,0,1,1.51.35C31.4,23,31,24.75,31,24.94Z" fill="url(#r)"/><path d="M21.38,21.84h-.09a3.27,3.27,0,0,1-2.07-1,1.75,1.75,0,0,0-1.95-.57l-.17-.57a2.31,2.31,0,0,1,2.51.69,2.71,2.71,0,0,0,1.72.84c1.7.11,3.45-4.3,3.54-5.39l.6.05C25.36,17.11,23.58,21.84,21.38,21.84Z" fill="url(#s)"/><path d="M17.81,21l-.2,0L17,20.83c-.89-.18-1.81-.36-2.63-.46a2.27,2.27,0,0,1-1.63-1,1.45,1.45,0,0,1-.25-1.22l.58.15a.9.9,0,0,0,.16.74,1.72,1.72,0,0,0,1.21.69c.84.1,1.78.29,2.68.47l.6.13c.36.06.7-.3,1.27-.95a8.21,8.21,0,0,1,2.42-2.06c.25-.13,1-.52,1.5-.1s.13,2,0,2.32l-.56-.2c.23-.66.34-1.48.13-1.67s-.34-.07-.82.18a7.7,7.7,0,0,0-2.25,1.93C18.9,20.43,18.42,21,17.81,21Z" fill="url(#t)"/><path d="M19.27,23.59a4.1,4.1,0,0,1-1.09-.19l-.57-.14.13-.58.59.14c.94.25,1.33.35,2.72-.59.62-.42.65-.58.65-.59a4,4,0,0,0-1.09-.45c-.32-.1-.67-.21-1-.35a2.58,2.58,0,0,1-1.39-1.67,7,7,0,0,1-.07-4.56l.52.29A6.77,6.77,0,0,0,18.76,19a2.08,2.08,0,0,0,1,1.31c.35.14.69.25,1,.35.86.27,1.43.46,1.5.94s-.21.69-.91,1.16A3.77,3.77,0,0,1,19.27,23.59Z" fill="url(#u)"/><path d="M29.73,19.68a3.42,3.42,0,0,1-1.13-.2c-1.16-.42-.78-1.75-.47-2.82a4.72,4.72,0,0,0,.27-1.41c0-.05,0-.13-.18-.23-.82-.52-3.51-.29-4.43,0l-.2-.57c.9-.32,3.86-.67,4.95,0a.89.89,0,0,1,.46.67,5,5,0,0,1-.29,1.63c-.33,1.13-.49,1.88.09,2.09a3.26,3.26,0,0,0,2.72-.35l.13-.07.26.54-.13.06A4.45,4.45,0,0,1,29.73,19.68Z" fill="url(#v)"/><path d="M15.33,17.54a1.73,1.73,0,0,1-1.26-.44,3.43,3.43,0,0,1-.42-.59c-.4-.67-.67-1-1.35-.73l-.25-.55c1.2-.53,1.75.37,2.12,1a3,3,0,0,0,.33.49,1.53,1.53,0,0,0,1.27.2c.4-.09.68-.27.75-.5a3.9,3.9,0,0,1,3-2.09,3.66,3.66,0,0,1,3.32,2.13l-.58.11c-.07-.35-1.51-1.83-2.64-1.65a3.42,3.42,0,0,0-2.55,1.69,1.51,1.51,0,0,1-1.19.9A3.43,3.43,0,0,1,15.33,17.54Z" fill="url(#w)"/><path d="M34.69,25.38c-.73,0-1.5-1.07-2.38-2.29a8.26,8.26,0,0,0-1.54-1.83,4.16,4.16,0,0,0-3-.35h-.13l-.06-.59.12,0a4.69,4.69,0,0,1,3.39.44,7.84,7.84,0,0,1,1.73,2c.61.84,1.52,2.12,1.91,2a9.12,9.12,0,0,0,1.78-.88,11.57,11.57,0,0,1,3.16-1.43l.11.59a11.07,11.07,0,0,0-3,1.36,8.49,8.49,0,0,1-1.95.94A.39.39,0,0,1,34.69,25.38Z" fill="url(#x)"/><path d="M19.7,27.67a1.78,1.78,0,0,1-.85-2.49c.13-.42.2-.68.08-.83-.43-.5-6.1-.74-8,0l-.22-.56c1.82-.71,8-.74,8.72.16.34.4.19.9,0,1.39-.22.72-.39,1.29.55,1.78Z" fill="url(#y)"/><path d="M31.28,20.59h-.05C30,20.53,25.88,18,25.55,16.7a.64.64,0,0,1,.29-.75c1.07-.65,3.61-1.23,4.31-1a.46.46,0,0,1,.3.28l-.57.19a.17.17,0,0,0,.08.1,7.91,7.91,0,0,0-3.81.91s0,0,0,.09c.24.95,4.08,3.39,5.14,3.44h0c.63,0,2.05-1.42,3.09-2.45a10.11,10.11,0,0,1,2.33-2l.21.56A10.47,10.47,0,0,0,34.81,18C33.22,19.55,32.11,20.59,31.28,20.59Z" fill="url(#z)"/><path d="M26.66,25.3c-1.37-.76-4-4.35-4.16-6a.9.9,0,0,1,.26-.82l.14-.12c.8-.67,1-.81.88-1.67l.59-.07c.13,1.19-.25,1.51-1.09,2.2l-.13.12s-.07.15,0,.31c.13,1.43,2.64,4.84,3.85,5.51Z" fill="url(#aa)"/><path d="M22.54,26.18a.88.88,0,0,1-.63-.33c-.48-.58-.36-1.78-.25-3a6.55,6.55,0,0,0,.05-1.55,7.48,7.48,0,0,0-2.85-3.24.92.92,0,0,0-.64-.16L18,17.4a1.33,1.33,0,0,1,1.15.18,8,8,0,0,1,3.16,3.65,7.4,7.4,0,0,1,0,1.73c-.09.94-.21,2.12.12,2.51a.29.29,0,0,0,.22.12Z" fill="url(#ab)"/><path d="M12.55,23.31a2.78,2.78,0,0,1-1.7-.66l.4-.45a2,2,0,0,0,1.63.47c.71-.15,1.32-.84,1.83-2A11.13,11.13,0,0,0,15.57,17c.11-1.11.18-1.91,1.65-1.77a11.53,11.53,0,0,0,2.15-.15c2.05-.26,4.37-.55,5.06,1.37l-.56.2c-.53-1.47-2.51-1.22-4.43-1a11.06,11.06,0,0,1-2.28.15c-.87-.07-.88.1-1,1.23a11.9,11.9,0,0,1-.91,3.82c-.58,1.37-1.34,2.17-2.25,2.37A1.85,1.85,0,0,1,12.55,23.31Z" fill="url(#ac)"/><path d="M26,18.56a1.22,1.22,0,0,1-.69-.18,1.48,1.48,0,0,1-.52-1.18c-.06-.46-.11-.75-.38-.86a2.29,2.29,0,0,0-1.85.17,16.42,16.42,0,0,1-2,.57A1.54,1.54,0,0,1,19,16.72c-.81-.82-.45-2.54-.4-2.73l.58.13c-.1.44-.24,1.69.25,2.19a1,1,0,0,0,1,.18,14.63,14.63,0,0,0,1.95-.55,2.87,2.87,0,0,1,2.27-.16,1.46,1.46,0,0,1,.74,1.35c0,.33.08.63.26.75s.43.15,1.12,0l.16.57A3.49,3.49,0,0,1,26,18.56Z" fill="url(#ad)"/><path d="M22.42,22.75l-.6-.05c.1-1.24,1.95-6.06,4.18-5.95a3.22,3.22,0,0,1,2.06,1,1.76,1.76,0,0,0,2,.57l.18.57a2.33,2.33,0,0,1-2.52-.69A2.69,2.69,0,0,0,26,17.35C24.26,17.25,22.51,21.65,22.42,22.75Z" fill="url(#ae)"/><path d="M24.42,20.74a.8.8,0,0,1-.54-.19c-.63-.55-.14-2,0-2.32l.56.2c-.23.66-.35,1.48-.14,1.67s.35.06.83-.18A7.85,7.85,0,0,0,27.35,18c.6-.68,1.12-1.28,1.83-1.13l.6.12c.89.18,1.82.36,2.64.46a2.28,2.28,0,0,1,1.63,1,1.48,1.48,0,0,1,.25,1.22l-.58-.15a.91.91,0,0,0-.17-.74,1.73,1.73,0,0,0-1.2-.7c-.85-.09-1.78-.28-2.69-.47l-.6-.12c-.35-.07-.69.3-1.26.95a8.28,8.28,0,0,1-2.43,2.06A2.32,2.32,0,0,1,24.42,20.74Z" fill="url(#af)"/><path d="M33.75,22.19l-.53-.29a6.67,6.67,0,0,0-.11-4.07,2.12,2.12,0,0,0-1-1.32l-1-.34c-.87-.27-1.44-.46-1.5-.94s.21-.69.91-1.16c1.54-1.05,2.13-1,3.2-.68.17,0,.36.1.57.14l-.13.59L33.54,14c-.94-.24-1.33-.34-2.72.59-.62.42-.65.59-.65.6a4,4,0,0,0,1.09.44l1,.35a2.57,2.57,0,0,1,1.38,1.67A7.06,7.06,0,0,1,33.75,22.19Z" fill="url(#ag)"/><path d="M21.69,23.79a4.29,4.29,0,0,1-2.12-.4.89.89,0,0,1-.45-.67,4.76,4.76,0,0,1,.29-1.63c.32-1.13.49-1.89-.1-2.1a3.23,3.23,0,0,0-2.71.36l-.14.07-.26-.54.13-.07a3.88,3.88,0,0,1,3.19-.38c1.15.41.77,1.75.46,2.82a4.72,4.72,0,0,0-.27,1.41.36.36,0,0,0,.18.23c.83.52,3.51.29,4.43,0l.2.57A10.29,10.29,0,0,1,21.69,23.79Z" fill="url(#ah)"/><path d="M28.27,26.12a3.8,3.8,0,0,1-3-2.16l.59-.11c.06.35,1.5,1.84,2.63,1.65A3.39,3.39,0,0,0,31,23.81a1.51,1.51,0,0,1,1.19-.89,2.09,2.09,0,0,1,1.84.37,3.83,3.83,0,0,1,.41.59c.41.67.67,1,1.36.74l.24.54c-1.2.53-1.75-.37-2.11-1a3.72,3.72,0,0,0-.34-.49,1.53,1.53,0,0,0-1.27-.2,1,1,0,0,0-.75.5,3.9,3.9,0,0,1-3,2.09A1.53,1.53,0,0,1,28.27,26.12Z" fill="url(#ai)"/><path d="M22.84,19.57a3.58,3.58,0,0,1-2-.55,8,8,0,0,1-1.72-2c-.61-.85-1.53-2.12-1.92-2a9,9,0,0,0-1.78.87,11.28,11.28,0,0,1-3.16,1.43l-.1-.59a11.63,11.63,0,0,0,3-1.35,8,8,0,0,1,1.95-.95c.77-.16,1.58,1,2.52,2.28a7.92,7.92,0,0,0,1.55,1.82,4.08,4.08,0,0,0,3,.36l.13,0,.07.6h-.13A13.15,13.15,0,0,1,22.84,19.57Z" fill="url(#aj)"/><path d="M29.06,19.46c-1.94,0-3.79-.22-4.19-.68s-.18-.91,0-1.4c.22-.72.4-1.29-.55-1.77l.27-.53a1.76,1.76,0,0,1,.85,2.48c-.13.42-.2.69-.08.83.43.51,6.1.74,8,0l.22.56A15.36,15.36,0,0,1,29.06,19.46Z" fill="url(#ak)"/><path d="M18.45,25.48a1.34,1.34,0,0,1-.49-.07.46.46,0,0,1-.3-.28l.57-.19a.18.18,0,0,0-.07-.09,7.91,7.91,0,0,0,3.8-.92s0,0,0-.09c-.25-.95-4.09-3.38-5.14-3.44-.61,0-2.07,1.41-3.12,2.45a9.43,9.43,0,0,1-2.33,2l-.21-.56a10.4,10.4,0,0,0,2.12-1.84c1.62-1.62,2.75-2.67,3.57-2.63,1.22.07,5.36,2.6,5.69,3.9a.64.64,0,0,1-.29.74A9.4,9.4,0,0,1,18.45,25.48Z" fill="url(#al)"/><path d="M22.36,23.25c-.13-1.19.25-1.51,1.09-2.2l.13-.11a.38.38,0,0,0,.05-.31c-.13-1.44-2.64-4.85-3.84-5.52l.29-.53c1.37.77,4,4.35,4.15,6a.9.9,0,0,1-.26.83l-.14.11c-.8.67-1,.81-.87,1.67Z" fill="url(#am)"/><path d="M29.79,23.06a1.76,1.76,0,0,1-.81-.24,8,8,0,0,1-3.16-3.65,6.51,6.51,0,0,1,0-1.74c.09-.94.2-2.12-.12-2.51a.32.32,0,0,0-.23-.11l.06-.6a.91.91,0,0,1,.63.33c.48.58.37,1.78.26,2.95a6.75,6.75,0,0,0-.06,1.56,7.56,7.56,0,0,0,2.86,3.24.89.89,0,0,0,.64.15l.22.56A.88.88,0,0,1,29.79,23.06Z" fill="url(#an)"/><path d="M35.37,20.15a2.49,2.49,0,0,1-.46,0,3.56,3.56,0,0,1-2.25-2.38,11.8,11.8,0,0,1-.91-3.81c-.11-1.13-.12-1.31-1-1.23a11.75,11.75,0,0,1-2.27-.15c-1.92-.24-3.9-.5-4.43,1l-.56-.2c.69-1.93,3-1.64,5.06-1.38a10.78,10.78,0,0,0,2.15.15c1.46-.13,1.54.67,1.64,1.77a11.52,11.52,0,0,0,.87,3.64c.5,1.18,1.12,1.86,1.83,2A2,2,0,0,0,36.67,19l.4.45A2.82,2.82,0,0,1,35.37,20.15Z" fill="url(#ao)"/><path d="M20.84,19.54a3.49,3.49,0,0,1-.92-.15l.16-.58c.69.19,1,.13,1.12.05s.21-.43.26-.76c.06-.48.13-1.09.74-1.34a2.83,2.83,0,0,1,2.27.16,15.79,15.79,0,0,0,2,.55,1,1,0,0,0,1-.19c.49-.5.34-1.75.25-2.19l.58-.13c0,.2.4,1.92-.4,2.74a1.56,1.56,0,0,1-1.51.35,13.67,13.67,0,0,1-2-.57,2.35,2.35,0,0,0-1.84-.17c-.27.12-.32.41-.38.87a1.49,1.49,0,0,1-.52,1.18A1.22,1.22,0,0,1,20.84,19.54Z" fill="url(#ap)"/><path d="M25.68,22.53c-.09-1.09-1.88-5.5-3.55-5.39a2.69,2.69,0,0,0-1.71.84,2.32,2.32,0,0,1-2.52.69l.18-.57a1.76,1.76,0,0,0,2-.58,3.29,3.29,0,0,1,2.07-1c2.25-.12,4.07,4.71,4.17,5.94Z" fill="url(#aq)"/><path d="M18,20.55a2.13,2.13,0,0,1-.95-.29,8.14,8.14,0,0,1-2.43-2.06c-.57-.65-.91-1-1.27-.94l-.6.12c-.9.18-1.83.37-2.68.47a1.72,1.72,0,0,0-1.21.69.94.94,0,0,0-.16.74l-.58.15a1.45,1.45,0,0,1,.25-1.22,2.27,2.27,0,0,1,1.63-1c.82-.1,1.75-.28,2.64-.46l.6-.12c.71-.15,1.23.45,1.83,1.13a7.85,7.85,0,0,0,2.25,1.93c.48.25.74.25.83.18s.09-1-.14-1.67l.56-.2c.11.29.6,1.77,0,2.32A.8.8,0,0,1,18,20.55Z" fill="url(#ar)"/><path d="M18.28,24.66a7.05,7.05,0,0,1,.07-4.57,2.58,2.58,0,0,1,1.39-1.67c.36-.14.71-.26,1-.36a3.2,3.2,0,0,0,1.1-.46h0s-.05-.17-.66-.57c-1.38-.94-1.77-.84-2.71-.59l-.59.14L17.77,16l.57-.13c1.07-.28,1.66-.37,3.2.67.7.47,1,.81.91,1.17s-.64.66-1.5.94c-.31.09-.65.2-1,.34a2.06,2.06,0,0,0-1,1.31,6.77,6.77,0,0,0-.12,4.07Z" fill="url(#as)"/><path d="M26.23,25a10.41,10.41,0,0,1-2.83-.37l.2-.57c.92.33,3.6.56,4.43,0,.15-.09.17-.17.18-.22a4.72,4.72,0,0,0-.27-1.41c-.31-1.07-.69-2.41.46-2.82a3.84,3.84,0,0,1,3.19.38l.13.07-.26.53-.14-.06a3.19,3.19,0,0,0-2.71-.36c-.59.21-.42,1-.1,2.1a4.48,4.48,0,0,1,.29,1.62.88.88,0,0,1-.45.68A4.27,4.27,0,0,1,26.23,25Z" fill="url(#at)"/><path d="M19.65,24.79l-.3,0a3.93,3.93,0,0,1-3-2.1,1,1,0,0,0-.75-.49,1.53,1.53,0,0,0-1.27.19,3.72,3.72,0,0,0-.34.49c-.36.6-.91,1.51-2.11,1l.24-.55c.69.3,1-.06,1.36-.74a3.83,3.83,0,0,1,.41-.59,2.09,2.09,0,0,1,1.84-.37,1.51,1.51,0,0,1,1.19.89,3.39,3.39,0,0,0,2.55,1.69c1.13.19,2.57-1.29,2.63-1.65l.59.11A3.78,3.78,0,0,1,19.65,24.79Z" fill="url(#au)"/><path d="M24.41,21.74A13,13,0,0,1,23,21.63h-.13l.07-.6.13,0a4.08,4.08,0,0,0,3-.36,8.14,8.14,0,0,0,1.55-1.82c.94-1.31,1.75-2.44,2.52-2.28a8.49,8.49,0,0,1,2,.94,10.9,10.9,0,0,0,3,1.36l-.1.59a11.52,11.52,0,0,1-3.16-1.42A8.57,8.57,0,0,0,30,17.17c-.38-.07-1.31,1.19-1.92,2a8,8,0,0,1-1.72,2A3.57,3.57,0,0,1,24.41,21.74Z" fill="url(#av)"/><path d="M15,15.78a15.42,15.42,0,0,1-4.53-.52l.22-.56c1.94.75,7.61.52,8,0,.12-.14.05-.41-.08-.83a1.76,1.76,0,0,1,.85-2.48l.27.53c-1,.49-.77,1.05-.55,1.78.15.48.31,1,0,1.39S17,15.78,15,15.78Z" fill="url(#aw)"/><path d="M25,22.22a9.36,9.36,0,0,1-3.82-1,.62.62,0,0,1-.29-.74c.33-1.3,4.47-3.83,5.68-3.9.8,0,1.95,1,3.57,2.63A10.4,10.4,0,0,0,32.21,21l-.21.56a9.75,9.75,0,0,1-2.33-2c-1-1-2.46-2.46-3.09-2.46h0c-1.06.06-4.9,2.49-5.14,3.45,0,.06,0,.06,0,.08a7.82,7.82,0,0,0,3.8.92.25.25,0,0,0-.07.09l.57.2a.49.49,0,0,1-.3.28A1.54,1.54,0,0,1,25,22.22Z" fill="url(#ax)"/><path d="M24.18,22.43l-.6-.06c.1-.87-.07-1-.87-1.68l-.14-.11a.9.9,0,0,1-.26-.83c.16-1.63,2.78-5.22,4.15-6l.29.52c-1.2.67-3.71,4.09-3.84,5.52a.38.38,0,0,0,.05.31l.13.11C23.93,20.93,24.31,21.25,24.18,22.43Z" fill="url(#ay)"/><path d="M19.33,21.48a.88.88,0,0,1-.33-.06l.23-.56a.87.87,0,0,0,.63-.15,7.56,7.56,0,0,0,2.86-3.24,7.25,7.25,0,0,0,0-1.56c-.11-1.17-.23-2.37.25-2.95a.91.91,0,0,1,.63-.33l.06.6a.32.32,0,0,0-.23.11c-.32.39-.21,1.57-.12,2.51a6.51,6.51,0,0,1,0,1.74,8,8,0,0,1-3.16,3.65A1.76,1.76,0,0,1,19.33,21.48Z" fill="url(#az)"/></g><path d="M26.32,25c.44.34,1.46.07,1.46.07a5.93,5.93,0,0,1,0,1.33,1.47,1.47,0,0,1-1.1.35c-.38,0-1-.31-1.34-.35s-1.79.27-1.68-.37a2.38,2.38,0,0,0,0-1.07S25.84,24.57,26.32,25Z" fill="#dbad83"/><path d="M26.32,23.71c.44.34.42.48.79.62s.76.57.66.78a1.47,1.47,0,0,1-1.1.35c-.38,0-1-.31-1.34-.35s-2,.18-1.68-.37a1.74,1.74,0,0,1,.89-.76C24.88,23.77,25.84,23.32,26.32,23.71Z" fill="#d6a46f"/><path d="M14.66,19.44s0,1.38.21,1.38,1.1-.07,1.3.17a1.58,1.58,0,0,0,1,.45c.35,0,1.23-.45,1.23-.69A13.66,13.66,0,0,1,19,19.07s-1.83,1.05-2.15.71S14.66,19.44,14.66,19.44Z" fill="#dbad83"/><path d="M14.73,19.19c-.12.15-.1.76.14.76s1.1-.07,1.3.17a1.63,1.63,0,0,0,1,.45c.35,0,1.23-.45,1.23-.69s.86-.79.45-.93-1.72.69-2,.34S15.14,18.68,14.73,19.19Z" fill="#d6a46f"/><path d="M34,22.16s-.11,1.52.09,1.58a5.57,5.57,0,0,0,1,.18c.17,0,.14-.31.62-.31s.86-.18.84-.45,0-1.28,0-1.28Z" fill="#dbad83"/><path d="M34.1,21.67c-.1.41-.2.72,0,.79a5.51,5.51,0,0,0,1,.17c.17,0,.14-.31.62-.31s.86-.17.84-.44-.5-.45-.87-.48S34.17,21.43,34.1,21.67Z" fill="#d6a46f"/><path d="M33.13,14s.2,1.34.48,1.38a8.55,8.55,0,0,1,1.44,0c.48.1,1.17.1,1.17-.24s.53-1,.53-1Z" fill="#dbad83"/><path d="M33.61,13.69c-.18.13-.44.2-.48.34a.62.62,0,0,0,.48.62,11.39,11.39,0,0,1,1.44,0c.48.11,1.17.11,1.17-.24s.41.27.53-.21-.5-.44-.84-.51-.52.58-1,.34S34.09,13.35,33.61,13.69Z" fill="#d6a46f"/><path d="M10.27,17.43c.4-.08,1.18-.31,1.46-.34s1.42.12,2.08.07V17c0-.41,0-1.2,0-1.2l-4.17.58.07.94A1.15,1.15,0,0,0,10.27,17.43Z" fill="#be8953"/><path d="M11.69,17.6c.47-.07,1.68.24,1.94,0a.72.72,0,0,0,.18-.44c-.66.05-1.85-.1-2.08-.07s-1.06.26-1.46.34a1.15,1.15,0,0,1-.56-.09v.12C9.84,18.33,11.22,17.66,11.69,17.6Z" fill="#dbad83"/><path d="M9.72,16.26A13.21,13.21,0,0,1,12.59,15c1.47,0,1.32,1.17,1,1.44s-1.47-.07-1.94,0S9.25,17.09,9.72,16.26Z" fill="#b78443"/><path d="M23,23.12c0-.39,0-.87,0-.87H19.88s0,.71,0,1a.88.88,0,0,0,.34.16A11,11,0,0,0,23,23.12Z" fill="#be8953"/><path d="M20.13,23.74A3.94,3.94,0,0,0,21,24c.38,0,1.56-.21,1.56-.21s.47,0,.44-.41v-.22a11,11,0,0,1-2.72.28.88.88,0,0,1-.34-.16.56.56,0,0,1,0,.1C19.83,23.49,20.11,23.74,20.13,23.74Z" fill="#dbad83"/><path d="M20.38,21.92c-.11-.06-.45.18-.5.33a2.1,2.1,0,0,0,.25.8s.7,0,.93,0c.38,0,1.5-.22,1.5-.22a.64.64,0,0,0,.4-.58c0-.4-.55-.71-.8-.72S21.06,22.33,20.38,21.92Z" fill="#b78443"/><path d="M39.35,18.74c.4-.16.93-.29,1.3-.46a5.57,5.57,0,0,1,.85-.34,1.25,1.25,0,0,1,.13-.68l-2.7.39-1.23-.19a3,3,0,0,0,0,1.12A4.53,4.53,0,0,0,39.35,18.74Z" fill="#be8953"/><path d="M37.91,19c.17,0,.77.2.87.2s.7.17.93,0a4.11,4.11,0,0,1,1-.43c.33-.11,1.07,0,.83-.51a1.17,1.17,0,0,1-.08-.35,5.57,5.57,0,0,0-.85.34c-.37.17-.9.3-1.3.46a4.53,4.53,0,0,1-1.62-.16C37.77,18.82,37.84,19,37.91,19Z" fill="#dbad83"/><path d="M37.74,17c-.11.49,0,.71.17.74s.77.2.87.2.7.17.93,0a4.11,4.11,0,0,1,1-.43c.33-.11,1.07,0,.83-.51a.91.91,0,0,0-1-.56c-.3.06-1.77,0-1.64.23.27.47.5.43.1.47S37.81,16.74,37.74,17Z" fill="#b78443"/><path d="M32.11,13.2a1.19,1.19,0,0,1,.6-.46c.15,0,.89,0,1.35-.05a6.71,6.71,0,0,0,0-.79,15.29,15.29,0,0,1-2,0,2.5,2.5,0,0,0-1,.15s0,.61.08,1.09C31.49,13.23,32.05,13.31,32.11,13.2Z" fill="#be8953"/><path d="M31.24,13.72a2.72,2.72,0,0,0,.9,0c.16-.07.34-.43.6-.36s1.11,0,1.27-.31a.78.78,0,0,0,.05-.36c-.46.06-1.2,0-1.35.05a1.19,1.19,0,0,0-.6.46c-.06.11-.62,0-1.07-.06C31.08,13.46,31.15,13.72,31.24,13.72Z" fill="#dbad83"/><path d="M31,11.77c-.05.23.05.93.28.93a2.72,2.72,0,0,0,.9,0c.16-.08.34-.43.6-.37s1.11,0,1.27-.3-.13-.7-.51-.64a4.82,4.82,0,0,1-1.52,0C31.71,11.29,31.05,11.38,31,11.77Z" fill="#b78443"/><g opacity="0.3"><path d="M37,17.57c.16.73-1,1.59-2.53,1.95s-2.95.05-3.12-.67c0-.08-.14-.65-.14-.65a5.78,5.78,0,0,1,2.57-1.73,5.75,5.75,0,0,1,3.07.45Z" fill="#e75b2a"/><path d="M36.89,16.92c.16.72-1,1.59-2.53,1.95s-2.95.05-3.11-.67,1-1.59,2.52-1.94S36.73,16.2,36.89,16.92Z" fill="#f47826"/><path d="M35.62,17.21c.09.4-.53.88-1.39,1.07s-1.63,0-1.72-.36.54-.88,1.39-1.07S35.53,16.81,35.62,17.21Z" fill="#db6b27"/><path d="M35.27,17.29c.06.31-.42.68-1.08.83s-1.25,0-1.32-.29.41-.67,1.07-.82S35.19,17,35.27,17.29Z" fill="#f68b44"/></g><path d="M13.46,22.15c-1.53,0-2.81-.5-3.15-1.16v.08c0,.8,1.41,1.45,3.15,1.45s3.15-.65,3.15-1.45V21C16.28,21.65,15,22.15,13.46,22.15Z" fill="#e75b2a" opacity="0.4"/><path d="M13.46,22.15c1.54,0,2.82-.5,3.15-1.16v-.65c0,.8-1.41,1.45-3.15,1.45s-3.15-.65-3.15-1.45V21C10.65,21.65,11.93,22.15,13.46,22.15Z" fill="#e75b2a"/><path d="M13.46,18.89c-1.74,0-3.15.65-3.15,1.45s1.41,1.45,3.15,1.45,3.15-.65,3.15-1.45S15.2,18.89,13.46,18.89Zm0,2.25c-1,0-1.73-.36-1.73-.8s.77-.8,1.73-.8,1.73.36,1.73.8S14.42,21.14,13.46,21.14Z" fill="#f47826"/><path d="M11.73,20.34c0,.44.77.8,1.73.8s1.73-.36,1.73-.8-.77-.8-1.73-.8S11.73,19.9,11.73,20.34Zm3.07,0c0,.34-.6.62-1.34.62s-1.33-.28-1.33-.62.59-.62,1.33-.62S14.8,20,14.8,20.34Z" fill="#db6b27"/><path d="M12.13,20.34c0,.34.59.62,1.33.62s1.34-.28,1.34-.62-.6-.62-1.34-.62S12.13,20,12.13,20.34Z" fill="#f68b44"/><path d="M35.23,18.59l-.42-.6c.46.66-.33,2-1.75,3a6.75,6.75,0,0,1-.92.53h0l1.46,0C34.94,20.49,35.67,19.22,35.23,18.59Z" fill="#e75b2a"/><path d="M34.81,18c-.46-.66-2-.39-3.41.6a5.22,5.22,0,0,0-1.67,1.8l.37.17,2,1a6.75,6.75,0,0,0,.92-.53C34.48,20,35.27,18.65,34.81,18Zm-2.13,2.45c-.78.55-1.62.7-1.88.33s.18-1.09,1-1.64,1.63-.69,1.88-.33S33.47,19.9,32.68,20.44Z" fill="#f47826"/><path d="M31.77,19.13c-.79.55-1.22,1.28-1,1.64s1.1.22,1.88-.33,1.22-1.28,1-1.64S32.55,18.58,31.77,19.13Zm.81,1.16c-.61.43-1.25.54-1.45.26s.14-.85.74-1.27,1.26-.54,1.45-.26S33.19,19.87,32.58,20.29Z" fill="#db6b27"/><path d="M31.87,19.28c-.6.42-.93,1-.74,1.27s.84.17,1.45-.26.94-1,.74-1.27S32.48,18.86,31.87,19.28Z" fill="#f68b44"/><path d="M30.06,22.18l-.42-.6a1.18,1.18,0,0,1,.09-1.19l-.4-.19L28.68,22l2.05,1.8,3-1.32v-1H33.6l-.13.1C32.05,22.57,30.52,22.84,30.06,22.18Z" fill="none"/><g opacity="0.4"><path d="M32.14,21.51c-1.12.53-2.14.59-2.5.07l.42.6c.46.66,2,.39,3.41-.6l.13-.1-1.46,0Z" fill="#e75b2a"/><path d="M30.1,20.56l-.37-.17a1.18,1.18,0,0,0-.09,1.19c.36.52,1.38.46,2.5-.07Z" fill="#f47826"/></g><path d="M18.16,15.69c-.08-.08-.17-.15-.25-.24-1.18-1.27-1.66-2.74-1.07-3.29l-.53.49c-.56.52-.16,1.85.87,3.06h1Z" fill="#e75b2a"/><path d="M20,13.48c-1.18-1.28-2.61-1.87-3.2-1.32s-.11,2,1.07,3.29c.08.09.17.16.25.24l.74-.22a4.24,4.24,0,0,1-.51-.46c-.65-.7-.91-1.51-.59-1.82s1.12,0,1.77.73a3,3,0,0,1,.68,1.14l.4-.13.35-.1A5.71,5.71,0,0,0,20,13.48Z" fill="#f47826"/><path d="M18.53,14.89c-.51-.55-.71-1.17-.46-1.4s.86,0,1.36.56A1.87,1.87,0,0,1,20,15.14l.26-.08a3,3,0,0,0-.68-1.14c-.65-.7-1.44-1-1.77-.73s-.06,1.12.59,1.82a4.24,4.24,0,0,0,.51.46l.26-.08A2.51,2.51,0,0,1,18.53,14.89Z" fill="#db6b27"/><path d="M18.07,13.49c-.25.23-.05.85.46,1.4a2.51,2.51,0,0,0,.63.5l.83-.25a1.87,1.87,0,0,0-.56-1.09C18.93,13.51,18.32,13.25,18.07,13.49Z" fill="#f68b44"/><g opacity="0.4"><path d="M20.59,17.27l.53-.5c-.55.51-1.83,0-3-1.08h-1l.2.24C18.56,17.22,20,17.81,20.59,17.27Z" fill="#e75b2a"/><path d="M21,14.83l-.35.1-.4.13a.67.67,0,0,1-.09.68c-.24.22-.74.1-1.26-.27l-.74.22c1.13,1.1,2.41,1.59,3,1.08C21.5,16.42,21.43,15.66,21,14.83Z" fill="#f47826"/><path d="M20.16,15.74a.67.67,0,0,0,.09-.68l-.26.08a.4.4,0,0,1-.1.3c-.15.14-.42.11-.73,0l-.26.08C19.42,15.84,19.92,16,20.16,15.74Z" fill="#db6b27"/><path d="M19.89,15.44a.4.4,0,0,0,.1-.3l-.83.25C19.47,15.55,19.74,15.58,19.89,15.44Z" fill="#f68b44"/></g><g opacity="0.25"><path d="M23,12.85a1,1,0,1,1-1-1A1,1,0,0,1,23,12.85Z" fill="#879f3b"/><path d="M23,12.84a1,1,0,0,1-1.94,0,1,1,0,0,1,1-1A1,1,0,0,1,23,12.84Z" fill="#8aa13c"/><path d="M23,12.82a.93.93,0,1,1-.91-.94A.93.93,0,0,1,23,12.82Z" fill="#8ca33e"/><path d="M23,12.81a.87.87,0,0,1-.91.83.9.9,0,0,1-.85-.92.85.85,0,0,1,.91-.82A.9.9,0,0,1,23,12.81Z" fill="#8ea53f"/><path d="M23,12.8a.82.82,0,0,1-.88.76.84.84,0,0,1-.79-.88.81.81,0,0,1,.87-.76A.85.85,0,0,1,23,12.8Z" fill="#90a740"/><path d="M22.93,12.79a.76.76,0,0,1-.84.69.81.81,0,0,1-.75-.84.77.77,0,0,1,.85-.7A.82.82,0,0,1,22.93,12.79Z" fill="#92a942"/><path d="M22.91,12.77a.73.73,0,0,1-.81.64.78.78,0,0,1-.69-.81.73.73,0,0,1,.81-.64A.78.78,0,0,1,22.91,12.77Z" fill="#95ab44"/><path d="M22.89,12.76a.67.67,0,0,1-.78.57.74.74,0,0,1-.63-.77.67.67,0,0,1,.78-.57A.73.73,0,0,1,22.89,12.76Z" fill="#97ad46"/><path d="M22.86,12.75a.6.6,0,0,1-.73.5.69.69,0,0,1-.58-.73.62.62,0,0,1,.74-.51A.67.67,0,0,1,22.86,12.75Z" fill="#99af47"/><path d="M22.84,12.73a.55.55,0,0,1-.7.44.64.64,0,0,1-.52-.7.58.58,0,0,1,.71-.44A.64.64,0,0,1,22.84,12.73Z" fill="#9bb149"/><path d="M22.82,12.72a.51.51,0,0,1-.66.38.62.62,0,0,1-.47-.67.53.53,0,0,1,.67-.38A.6.6,0,0,1,22.82,12.72Z" fill="#9eb34b"/><path d="M22.8,12.71a.47.47,0,0,1-.63.31.56.56,0,0,1-.41-.63.49.49,0,0,1,.64-.31A.56.56,0,0,1,22.8,12.71Z" fill="#a0b64d"/><path d="M22.78,12.69a.43.43,0,0,1-.59.25.51.51,0,0,1-.36-.59.44.44,0,0,1,.6-.25A.51.51,0,0,1,22.78,12.69Z" fill="#a2b84f"/><path d="M22.76,12.68a.4.4,0,0,1-.56.19.48.48,0,0,1-.3-.56.41.41,0,0,1,.57-.19A.48.48,0,0,1,22.76,12.68Z" fill="#a5ba51"/><path d="M22.74,12.67a.36.36,0,0,1-.52.12.44.44,0,0,1-.25-.53.38.38,0,0,1,.53-.12A.44.44,0,0,1,22.74,12.67Z" fill="#a8bd53"/><path d="M22.72,12.66a.34.34,0,0,1-.49.05.4.4,0,0,1-.19-.49.36.36,0,0,1,.5-.06A.41.41,0,0,1,22.72,12.66Z" fill="#aabf56"/><path d="M22.7,12.64a.33.33,0,0,1-.46,0,.37.37,0,0,1-.13-.46.33.33,0,0,1,.46,0A.35.35,0,0,1,22.7,12.64Z" fill="#adc258"/><path d="M22.61,12.21a.32.32,0,0,1,.07.42.31.31,0,0,1-.42-.07.26.26,0,1,1,.35-.35Z" fill="#b0c55b"/></g><g opacity="0.25"><path d="M15.05,25.31a1,1,0,1,1-1-1A1,1,0,0,1,15.05,25.31Z" fill="#879f3b"/><path d="M15,25.3a1,1,0,0,1-1,.95,1,1,0,0,1-1-1,1,1,0,0,1,1-1A1,1,0,0,1,15,25.3Z" fill="#8aa13c"/><path d="M15,25.28a.91.91,0,0,1-.95.89.92.92,0,1,1,.95-.89Z" fill="#8ca33e"/><path d="M15,25.27a.87.87,0,0,1-.91.83.91.91,0,0,1-.86-.92.86.86,0,0,1,.92-.82A.9.9,0,0,1,15,25.27Z" fill="#8ea53f"/><path d="M15,25.26a.82.82,0,0,1-.88.76.86.86,0,0,1-.8-.88.82.82,0,0,1,.88-.76A.85.85,0,0,1,15,25.26Z" fill="#90a740"/><path d="M15,25.24a.77.77,0,0,1-.85.7.82.82,0,0,1-.74-.84.77.77,0,0,1,.85-.7A.82.82,0,0,1,15,25.24Z" fill="#92a942"/><path d="M14.93,25.23a.71.71,0,0,1-.81.63.76.76,0,0,1-.69-.8.73.73,0,0,1,.81-.64A.78.78,0,0,1,14.93,25.23Z" fill="#95ab44"/><path d="M14.9,25.22a.66.66,0,0,1-.77.57A.74.74,0,0,1,13.5,25a.68.68,0,0,1,.78-.58A.73.73,0,0,1,14.9,25.22Z" fill="#97ad46"/><path d="M14.88,25.2a.61.61,0,0,1-.73.51.69.69,0,0,1-.58-.74.61.61,0,0,1,.74-.5A.67.67,0,0,1,14.88,25.2Z" fill="#99af47"/><path d="M14.86,25.19a.55.55,0,0,1-.7.44.64.64,0,0,1-.52-.7.58.58,0,0,1,.71-.44A.64.64,0,0,1,14.86,25.19Z" fill="#9bb149"/><path d="M14.84,25.18a.51.51,0,0,1-.66.38.62.62,0,0,1-.47-.67.53.53,0,0,1,.67-.38A.6.6,0,0,1,14.84,25.18Z" fill="#9eb34b"/><path d="M14.82,25.17a.47.47,0,0,1-.63.31.56.56,0,0,1-.41-.63.5.5,0,0,1,.64-.32A.57.57,0,0,1,14.82,25.17Z" fill="#a0b64d"/><path d="M14.8,25.15a.43.43,0,0,1-.59.25.51.51,0,0,1-.36-.59.44.44,0,0,1,.6-.25A.51.51,0,0,1,14.8,25.15Z" fill="#a2b84f"/><path d="M14.78,25.14a.4.4,0,0,1-.56.19.48.48,0,0,1-.3-.56.41.41,0,0,1,.57-.19A.48.48,0,0,1,14.78,25.14Z" fill="#a5ba51"/><path d="M14.76,25.13a.37.37,0,0,1-.53.12.45.45,0,0,1-.24-.53.37.37,0,0,1,.53-.12A.44.44,0,0,1,14.76,25.13Z" fill="#a8bd53"/><path d="M14.74,25.11a.34.34,0,0,1-.49.06.4.4,0,0,1-.19-.49.35.35,0,0,1,.5-.06A.4.4,0,0,1,14.74,25.11Z" fill="#aabf56"/><path d="M14.72,25.1a.34.34,0,0,1-.46,0,.36.36,0,0,1-.13-.46.34.34,0,0,1,.46,0A.36.36,0,0,1,14.72,25.1Z" fill="#adc258"/><path d="M14.63,24.67a.26.26,0,1,1-.35.35c-.14-.14-.17-.33-.08-.42A.31.31,0,0,1,14.63,24.67Z" fill="#b0c55b"/></g><g opacity="0.25"><path d="M40.94,20.39a1,1,0,1,1-1-1A1,1,0,0,1,40.94,20.39Z" fill="#879f3b"/><path d="M40.91,20.35a1,1,0,0,1-.95,1,1,1,0,1,1,.95-1Z" fill="#8aa13c"/><path d="M40.89,20.31a.92.92,0,0,1-.89,1,.93.93,0,0,1-1-.91.92.92,0,0,1,.89-1A.94.94,0,0,1,40.89,20.31Z" fill="#8ca33e"/><path d="M40.86,20.27a.86.86,0,0,1-.82.92.91.91,0,0,1-.92-.85.87.87,0,0,1,.83-.92A.9.9,0,0,1,40.86,20.27Z" fill="#8ea53f"/><path d="M40.84,20.24a.81.81,0,0,1-.76.87.84.84,0,0,1-.88-.79.81.81,0,0,1,.76-.88A.87.87,0,0,1,40.84,20.24Z" fill="#90a740"/><path d="M40.81,20.2a.76.76,0,0,1-.7.84.8.8,0,0,1-.84-.74.76.76,0,0,1,.7-.84A.8.8,0,0,1,40.81,20.2Z" fill="#92a942"/><path d="M40.79,20.16a.73.73,0,0,1-.64.81.76.76,0,0,1-.8-.69.7.7,0,0,1,.63-.8A.76.76,0,0,1,40.79,20.16Z" fill="#95ab44"/><path d="M40.76,20.12a.67.67,0,0,1-.57.78.73.73,0,0,1-.77-.63.67.67,0,0,1,.57-.78A.73.73,0,0,1,40.76,20.12Z" fill="#97ad46"/><path d="M40.74,20.09a.61.61,0,0,1-.51.73.69.69,0,0,1-.74-.57.63.63,0,0,1,.51-.74A.7.7,0,0,1,40.74,20.09Z" fill="#99af47"/><path d="M40.71,20.05a.57.57,0,0,1-.44.7.64.64,0,0,1-.7-.52.57.57,0,0,1,.44-.7A.63.63,0,0,1,40.71,20.05Z" fill="#9bb149"/><path d="M40.69,20a.53.53,0,0,1-.38.67.61.61,0,0,1-.67-.46.53.53,0,0,1,.38-.67A.6.6,0,0,1,40.69,20Z" fill="#9eb34b"/><path d="M40.66,20a.47.47,0,0,1-.31.63.55.55,0,0,1-.63-.4.47.47,0,0,1,.31-.63A.55.55,0,0,1,40.66,20Z" fill="#a0b64d"/><path d="M40.64,19.94a.44.44,0,0,1-.25.59.52.52,0,0,1-.6-.35.44.44,0,0,1,.25-.59A.51.51,0,0,1,40.64,19.94Z" fill="#a2b84f"/><path d="M40.61,19.9a.41.41,0,0,1-.18.56.47.47,0,0,1-.56-.3.4.4,0,0,1,.18-.56A.47.47,0,0,1,40.61,19.9Z" fill="#a5ba51"/><path d="M40.59,19.86a.38.38,0,0,1-.12.53.44.44,0,0,1-.53-.24.37.37,0,0,1,.12-.53A.44.44,0,0,1,40.59,19.86Z" fill="#a8bd53"/><path d="M40.56,19.82c.12.19.1.41-.05.49a.38.38,0,0,1-.49-.18.34.34,0,0,1,0-.49A.39.39,0,0,1,40.56,19.82Z" fill="#aabf56"/><path d="M40.54,19.79c.12.16.13.36,0,.45a.35.35,0,0,1-.45-.13.32.32,0,0,1,0-.45A.36.36,0,0,1,40.54,19.79Z" fill="#adc258"/><path d="M40.51,19.75a.3.3,0,0,1,.07.42c-.09.09-.28.06-.42-.07s-.16-.33-.07-.42A.3.3,0,0,1,40.51,19.75Z" fill="#b0c55b"/></g><g opacity="0.25"><path d="M37,25.5a1,1,0,1,1-1-1A1,1,0,0,1,37,25.5Z" fill="#879f3b"/><path d="M37,25.48a1,1,0,1,1-1-1A1,1,0,0,1,37,25.48Z" fill="#8aa13c"/><path d="M36.93,25.47a.9.9,0,0,1-.94.89.94.94,0,0,1-.91-.95.93.93,0,0,1,1.85.06Z" fill="#8ca33e"/><path d="M36.91,25.46a.85.85,0,0,1-.91.82.89.89,0,0,1-.85-.91.87.87,0,0,1,.91-.83A.9.9,0,0,1,36.91,25.46Z" fill="#8ea53f"/><path d="M36.89,25.45a.81.81,0,0,1-.87.76.86.86,0,0,1-.8-.88.81.81,0,0,1,.88-.76A.84.84,0,0,1,36.89,25.45Z" fill="#90a740"/><path d="M36.87,25.43a.76.76,0,0,1-.84.7.8.8,0,0,1-.74-.84.76.76,0,0,1,.84-.7A.8.8,0,0,1,36.87,25.43Z" fill="#92a942"/><path d="M36.85,25.42a.7.7,0,0,1-.8.63.77.77,0,0,1-.69-.8.71.71,0,0,1,.81-.64A.76.76,0,0,1,36.85,25.42Z" fill="#95ab44"/><path d="M36.83,25.41a.66.66,0,0,1-.77.57.73.73,0,0,1-.63-.78.67.67,0,0,1,.77-.57A.73.73,0,0,1,36.83,25.41Z" fill="#97ad46"/><path d="M36.81,25.39a.62.62,0,0,1-.74.51.69.69,0,0,1-.57-.74.61.61,0,0,1,.74-.5A.67.67,0,0,1,36.81,25.39Z" fill="#99af47"/><path d="M36.79,25.38a.57.57,0,0,1-.7.44.64.64,0,0,1-.52-.7.57.57,0,0,1,.7-.44A.63.63,0,0,1,36.79,25.38Z" fill="#9bb149"/><path d="M36.77,25.37a.53.53,0,0,1-.67.37.6.6,0,0,1-.46-.66.53.53,0,0,1,.67-.38A.6.6,0,0,1,36.77,25.37Z" fill="#9eb34b"/><path d="M36.75,25.35a.49.49,0,0,1-.63.32.56.56,0,0,1-.41-.63.48.48,0,0,1,.63-.32A.56.56,0,0,1,36.75,25.35Z" fill="#a0b64d"/><path d="M36.73,25.34a.44.44,0,0,1-.6.25.51.51,0,0,1-.35-.59.45.45,0,0,1,.6-.26A.52.52,0,0,1,36.73,25.34Z" fill="#a2b84f"/><path d="M36.71,25.33a.4.4,0,0,1-.56.18.47.47,0,0,1-.3-.56.4.4,0,0,1,.56-.18A.47.47,0,0,1,36.71,25.33Z" fill="#a5ba51"/><path d="M36.69,25.32a.38.38,0,0,1-.53.12.44.44,0,0,1-.24-.53.37.37,0,0,1,.53-.12A.44.44,0,0,1,36.69,25.32Z" fill="#a8bd53"/><path d="M36.67,25.3a.34.34,0,0,1-.49.06.4.4,0,0,1-.19-.49.34.34,0,0,1,.49-.06A.4.4,0,0,1,36.67,25.3Z" fill="#aabf56"/><path d="M36.65,25.29a.33.33,0,0,1-.46,0,.35.35,0,0,1-.13-.45.33.33,0,0,1,.46,0A.36.36,0,0,1,36.65,25.29Z" fill="#adc258"/><path d="M36.55,24.86a.31.31,0,0,1,.08.42.34.34,0,0,1-.43-.07c-.13-.14-.16-.33-.07-.42A.3.3,0,0,1,36.55,24.86Z" fill="#b0c55b"/></g><g clip-path="url(#ba)"><path d="M27,11a1,1,0,1,1-1-1A1,1,0,0,1,27,11Z" fill="#879f3b"/><path d="M27,11a1,1,0,0,1-1,1,1,1,0,1,1,1-1Z" fill="#8aa13c"/><path d="M27,11a.92.92,0,0,1-.95.89.94.94,0,0,1-.91-.95.92.92,0,0,1,.95-.89A.94.94,0,0,1,27,11Z" fill="#8ca33e"/><path d="M26.93,11a.87.87,0,0,1-.91.83.9.9,0,0,1-.86-.91.87.87,0,0,1,.92-.83A.91.91,0,0,1,26.93,11Z" fill="#8ea53f"/><path d="M26.91,11a.82.82,0,0,1-.88.76.85.85,0,0,1-.8-.87.82.82,0,0,1,.88-.77A.87.87,0,0,1,26.91,11Z" fill="#90a740"/><path d="M26.89,11a.77.77,0,0,1-.85.7.82.82,0,0,1-.74-.85.76.76,0,0,1,.85-.69A.81.81,0,0,1,26.89,11Z" fill="#92a942"/><path d="M26.87,11a.72.72,0,0,1-.81.63.78.78,0,0,1-.69-.81.72.72,0,0,1,.81-.63A.78.78,0,0,1,26.87,11Z" fill="#95ab44"/><path d="M26.85,11a.67.67,0,0,1-.78.57.73.73,0,0,1-.63-.77.67.67,0,0,1,.78-.57A.74.74,0,0,1,26.85,11Z" fill="#97ad46"/><path d="M26.82,10.94a.61.61,0,0,1-.73.51.7.7,0,0,1-.58-.74.63.63,0,0,1,.74-.51A.69.69,0,0,1,26.82,10.94Z" fill="#99af47"/><path d="M26.8,10.93a.57.57,0,0,1-.7.44.65.65,0,0,1-.52-.7.56.56,0,0,1,.71-.44A.64.64,0,0,1,26.8,10.93Z" fill="#9bb149"/><path d="M26.78,10.91a.51.51,0,0,1-.66.38.62.62,0,0,1-.47-.67.53.53,0,0,1,.67-.37A.59.59,0,0,1,26.78,10.91Z" fill="#9eb34b"/><path d="M26.76,10.9a.47.47,0,0,1-.63.31.55.55,0,0,1-.41-.63.49.49,0,0,1,.64-.31A.56.56,0,0,1,26.76,10.9Z" fill="#a0b64d"/><path d="M26.74,10.89a.44.44,0,0,1-.59.25.53.53,0,0,1-.36-.6.45.45,0,0,1,.6-.25A.52.52,0,0,1,26.74,10.89Z" fill="#a2b84f"/><path d="M26.72,10.88a.4.4,0,0,1-.56.18.47.47,0,0,1-.3-.56.41.41,0,0,1,.57-.19A.49.49,0,0,1,26.72,10.88Z" fill="#a5ba51"/><path d="M26.7,10.86a.37.37,0,0,1-.53.12.44.44,0,0,1-.24-.52.37.37,0,0,1,.53-.12A.43.43,0,0,1,26.7,10.86Z" fill="#a8bd53"/><path d="M26.68,10.85a.34.34,0,0,1-.49.06.4.4,0,0,1-.19-.49.34.34,0,0,1,.5-.06A.4.4,0,0,1,26.68,10.85Z" fill="#aabf56"/><path d="M26.66,10.84a.33.33,0,0,1-.46,0,.36.36,0,0,1-.13-.46.33.33,0,0,1,.46,0A.36.36,0,0,1,26.66,10.84Z" fill="#adc258"/><path d="M26.57,10.4c.13.14.16.33.07.42a.3.3,0,0,1-.42-.07.31.31,0,0,1-.08-.42A.34.34,0,0,1,26.57,10.4Z" fill="#b0c55b"/></g><g opacity="0.3"><g clip-path="url(#bb)"><path d="M27,11a1,1,0,1,1-1-1A1,1,0,0,1,27,11Z" fill="#879f3b"/><path d="M27,11a1,1,0,0,1-1,1,1,1,0,1,1,1-1Z" fill="#8aa13c"/><path d="M27,11a.92.92,0,0,1-.95.89.94.94,0,0,1-.91-.95.92.92,0,0,1,.95-.89A.94.94,0,0,1,27,11Z" fill="#8ca33e"/><path d="M26.93,11a.87.87,0,0,1-.91.83.9.9,0,0,1-.86-.91.87.87,0,0,1,.92-.83A.91.91,0,0,1,26.93,11Z" fill="#8ea53f"/><path d="M26.91,11a.82.82,0,0,1-.88.76.85.85,0,0,1-.8-.87.82.82,0,0,1,.88-.77A.87.87,0,0,1,26.91,11Z" fill="#90a740"/><path d="M26.89,11a.77.77,0,0,1-.85.7.82.82,0,0,1-.74-.85.76.76,0,0,1,.85-.69A.81.81,0,0,1,26.89,11Z" fill="#92a942"/><path d="M26.87,11a.72.72,0,0,1-.81.63.78.78,0,0,1-.69-.81.72.72,0,0,1,.81-.63A.78.78,0,0,1,26.87,11Z" fill="#95ab44"/><path d="M26.85,11a.67.67,0,0,1-.78.57.73.73,0,0,1-.63-.77.67.67,0,0,1,.78-.57A.74.74,0,0,1,26.85,11Z" fill="#97ad46"/><path d="M26.82,10.94a.61.61,0,0,1-.73.51.7.7,0,0,1-.58-.74.63.63,0,0,1,.74-.51A.69.69,0,0,1,26.82,10.94Z" fill="#99af47"/><path d="M26.8,10.93a.57.57,0,0,1-.7.44.65.65,0,0,1-.52-.7.56.56,0,0,1,.71-.44A.64.64,0,0,1,26.8,10.93Z" fill="#9bb149"/><path d="M26.78,10.91a.51.51,0,0,1-.66.38.62.62,0,0,1-.47-.67.53.53,0,0,1,.67-.37A.59.59,0,0,1,26.78,10.91Z" fill="#9eb34b"/><path d="M26.76,10.9a.47.47,0,0,1-.63.31.55.55,0,0,1-.41-.63.49.49,0,0,1,.64-.31A.56.56,0,0,1,26.76,10.9Z" fill="#a0b64d"/><path d="M26.74,10.89a.44.44,0,0,1-.59.25.53.53,0,0,1-.36-.6.45.45,0,0,1,.6-.25A.52.52,0,0,1,26.74,10.89Z" fill="#a2b84f"/><path d="M26.72,10.88a.4.4,0,0,1-.56.18.47.47,0,0,1-.3-.56.41.41,0,0,1,.57-.19A.49.49,0,0,1,26.72,10.88Z" fill="#a5ba51"/><path d="M26.7,10.86a.37.37,0,0,1-.53.12.44.44,0,0,1-.24-.52.37.37,0,0,1,.53-.12A.43.43,0,0,1,26.7,10.86Z" fill="#a8bd53"/><path d="M26.68,10.85a.34.34,0,0,1-.49.06.4.4,0,0,1-.19-.49.34.34,0,0,1,.5-.06A.4.4,0,0,1,26.68,10.85Z" fill="#aabf56"/><path d="M26.66,10.84a.33.33,0,0,1-.46,0,.36.36,0,0,1-.13-.46.33.33,0,0,1,.46,0A.36.36,0,0,1,26.66,10.84Z" fill="#adc258"/><path d="M26.57,10.4c.13.14.16.33.07.42a.3.3,0,0,1-.42-.07.31.31,0,0,1-.08-.42A.34.34,0,0,1,26.57,10.4Z" fill="#b0c55b"/></g></g><g clip-path="url(#bc)"><path d="M39,23a1,1,0,1,1-1-1A1,1,0,0,1,39,23Z" fill="#879f3b"/><path d="M39,22.93a1,1,0,0,1-1,1,1,1,0,0,1-1-1A1,1,0,0,1,38,22,1,1,0,0,1,39,22.93Z" fill="#8aa13c"/><path d="M39,22.92a.91.91,0,0,1-1,.89.94.94,0,0,1-.91-.95.93.93,0,0,1,.95-.89A.94.94,0,0,1,39,22.92Z" fill="#8ca33e"/><path d="M38.94,22.91a.86.86,0,0,1-.92.82.9.9,0,0,1-.85-.91.86.86,0,0,1,.92-.82A.9.9,0,0,1,38.94,22.91Z" fill="#8ea53f"/><path d="M38.92,22.89a.82.82,0,0,1-.88.77.87.87,0,0,1-.8-.88.82.82,0,0,1,.88-.76A.85.85,0,0,1,38.92,22.89Z" fill="#90a740"/><path d="M38.9,22.88a.77.77,0,0,1-.85.7.82.82,0,0,1-.74-.84.77.77,0,0,1,.85-.7A.82.82,0,0,1,38.9,22.88Z" fill="#92a942"/><path d="M38.87,22.87a.7.7,0,0,1-.8.63.77.77,0,0,1-.69-.8.72.72,0,0,1,.81-.64A.76.76,0,0,1,38.87,22.87Z" fill="#95ab44"/><path d="M38.85,22.86a.66.66,0,0,1-.77.57.73.73,0,0,1-.63-.78.66.66,0,0,1,.78-.56A.72.72,0,0,1,38.85,22.86Z" fill="#97ad46"/><path d="M38.83,22.84a.61.61,0,0,1-.73.51.7.7,0,0,1-.58-.74.61.61,0,0,1,.74-.5A.67.67,0,0,1,38.83,22.84Z" fill="#99af47"/><path d="M38.81,22.83a.56.56,0,0,1-.7.44.64.64,0,0,1-.52-.7.57.57,0,0,1,.71-.44A.64.64,0,0,1,38.81,22.83Z" fill="#9bb149"/><path d="M38.79,22.82a.52.52,0,0,1-.66.38.61.61,0,0,1-.47-.67.53.53,0,0,1,.67-.38A.6.6,0,0,1,38.79,22.82Z" fill="#9eb34b"/><path d="M38.77,22.8a.47.47,0,0,1-.63.32.56.56,0,0,1-.41-.63.5.5,0,0,1,.64-.32A.56.56,0,0,1,38.77,22.8Z" fill="#a0b64d"/><path d="M38.75,22.79a.43.43,0,0,1-.59.25.51.51,0,0,1-.36-.59.44.44,0,0,1,.6-.25A.51.51,0,0,1,38.75,22.79Z" fill="#a2b84f"/><path d="M38.73,22.78a.4.4,0,0,1-.56.18.47.47,0,0,1-.3-.56.42.42,0,0,1,.57-.18A.48.48,0,0,1,38.73,22.78Z" fill="#a5ba51"/><path d="M38.71,22.76a.37.37,0,0,1-.53.13.44.44,0,0,1-.24-.53.37.37,0,0,1,.53-.12A.43.43,0,0,1,38.71,22.76Z" fill="#a8bd53"/><path d="M38.69,22.75a.34.34,0,0,1-.49.06.4.4,0,0,1-.19-.49.34.34,0,0,1,.49-.06A.4.4,0,0,1,38.69,22.75Z" fill="#aabf56"/><path d="M38.67,22.74a.33.33,0,0,1-.46,0,.35.35,0,0,1-.13-.45.32.32,0,0,1,.46,0A.35.35,0,0,1,38.67,22.74Z" fill="#adc258"/><path d="M38.57,22.31a.31.31,0,0,1,.08.42.32.32,0,0,1-.42-.07c-.14-.14-.17-.33-.08-.42A.3.3,0,0,1,38.57,22.31Z" fill="#b0c55b"/></g><g opacity="0.3"><g clip-path="url(#bd)"><path d="M39,23a1,1,0,1,1-1-1A1,1,0,0,1,39,23Z" fill="#879f3b"/><path d="M39,22.93a1,1,0,0,1-1,1,1,1,0,0,1-1-1A1,1,0,0,1,38,22,1,1,0,0,1,39,22.93Z" fill="#8aa13c"/><path d="M39,22.92a.91.91,0,0,1-1,.89.94.94,0,0,1-.91-.95.93.93,0,0,1,.95-.89A.94.94,0,0,1,39,22.92Z" fill="#8ca33e"/><path d="M38.94,22.91a.86.86,0,0,1-.92.82.9.9,0,0,1-.85-.91.86.86,0,0,1,.92-.82A.9.9,0,0,1,38.94,22.91Z" fill="#8ea53f"/><path d="M38.92,22.89a.82.82,0,0,1-.88.77.87.87,0,0,1-.8-.88.82.82,0,0,1,.88-.76A.85.85,0,0,1,38.92,22.89Z" fill="#90a740"/><path d="M38.9,22.88a.77.77,0,0,1-.85.7.82.82,0,0,1-.74-.84.77.77,0,0,1,.85-.7A.82.82,0,0,1,38.9,22.88Z" fill="#92a942"/><path d="M38.87,22.87a.7.7,0,0,1-.8.63.77.77,0,0,1-.69-.8.72.72,0,0,1,.81-.64A.76.76,0,0,1,38.87,22.87Z" fill="#95ab44"/><path d="M38.85,22.86a.66.66,0,0,1-.77.57.73.73,0,0,1-.63-.78.66.66,0,0,1,.78-.56A.72.72,0,0,1,38.85,22.86Z" fill="#97ad46"/><path d="M38.83,22.84a.61.61,0,0,1-.73.51.7.7,0,0,1-.58-.74.61.61,0,0,1,.74-.5A.67.67,0,0,1,38.83,22.84Z" fill="#99af47"/><path d="M38.81,22.83a.56.56,0,0,1-.7.44.64.64,0,0,1-.52-.7.57.57,0,0,1,.71-.44A.64.64,0,0,1,38.81,22.83Z" fill="#9bb149"/><path d="M38.79,22.82a.52.52,0,0,1-.66.38.61.61,0,0,1-.47-.67.53.53,0,0,1,.67-.38A.6.6,0,0,1,38.79,22.82Z" fill="#9eb34b"/><path d="M38.77,22.8a.47.47,0,0,1-.63.32.56.56,0,0,1-.41-.63.5.5,0,0,1,.64-.32A.56.56,0,0,1,38.77,22.8Z" fill="#a0b64d"/><path d="M38.75,22.79a.43.43,0,0,1-.59.25.51.51,0,0,1-.36-.59.44.44,0,0,1,.6-.25A.51.51,0,0,1,38.75,22.79Z" fill="#a2b84f"/><path d="M38.73,22.78a.4.4,0,0,1-.56.18.47.47,0,0,1-.3-.56.42.42,0,0,1,.57-.18A.48.48,0,0,1,38.73,22.78Z" fill="#a5ba51"/><path d="M38.71,22.76a.37.37,0,0,1-.53.13.44.44,0,0,1-.24-.53.37.37,0,0,1,.53-.12A.43.43,0,0,1,38.71,22.76Z" fill="#a8bd53"/><path d="M38.69,22.75a.34.34,0,0,1-.49.06.4.4,0,0,1-.19-.49.34.34,0,0,1,.49-.06A.4.4,0,0,1,38.69,22.75Z" fill="#aabf56"/><path d="M38.67,22.74a.33.33,0,0,1-.46,0,.35.35,0,0,1-.13-.45.32.32,0,0,1,.46,0A.35.35,0,0,1,38.67,22.74Z" fill="#adc258"/><path d="M38.57,22.31a.31.31,0,0,1,.08.42.32.32,0,0,1-.42-.07c-.14-.14-.17-.33-.08-.42A.3.3,0,0,1,38.57,22.31Z" fill="#b0c55b"/></g></g><g clip-path="url(#be)"><path d="M29.08,28.14a1,1,0,1,1-1-1A1,1,0,0,1,29.08,28.14Z" fill="#879f3b"/><path d="M29.06,28.13a1,1,0,1,1-1-1A1,1,0,0,1,29.06,28.13Z" fill="#8aa13c"/><path d="M29,28.12a.92.92,0,0,1-.95.89.93.93,0,0,1-.9-1,.91.91,0,0,1,.95-.89A.93.93,0,0,1,29,28.12Z" fill="#8ca33e"/><path d="M29,28.1a.87.87,0,0,1-.91.83.89.89,0,0,1-.85-.91.86.86,0,0,1,.91-.83A.88.88,0,0,1,29,28.1Z" fill="#8ea53f"/><path d="M29,28.09a.81.81,0,0,1-.88.76.84.84,0,0,1-.79-.88.81.81,0,0,1,.87-.76A.85.85,0,0,1,29,28.09Z" fill="#90a740"/><path d="M29,28.08a.76.76,0,0,1-.84.69.8.8,0,0,1-.74-.84.77.77,0,0,1,.84-.7A.81.81,0,0,1,29,28.08Z" fill="#92a942"/><path d="M29,28.06a.72.72,0,0,1-.81.64.76.76,0,0,1-.68-.81.7.7,0,0,1,.8-.63A.76.76,0,0,1,29,28.06Z" fill="#95ab44"/><path d="M28.94,28.05a.66.66,0,0,1-.77.57.72.72,0,0,1-.63-.77.66.66,0,0,1,.77-.57A.72.72,0,0,1,28.94,28.05Z" fill="#97ad46"/><path d="M28.92,28a.61.61,0,0,1-.74.5.67.67,0,0,1-.57-.73.61.61,0,0,1,.73-.51A.69.69,0,0,1,28.92,28Z" fill="#99af47"/><path d="M28.9,28a.57.57,0,0,1-.7.44.64.64,0,0,1-.52-.7.57.57,0,0,1,.7-.45A.65.65,0,0,1,28.9,28Z" fill="#9bb149"/><path d="M28.88,28a.53.53,0,0,1-.67.38.6.6,0,0,1-.46-.67.51.51,0,0,1,.66-.37A.6.6,0,0,1,28.88,28Z" fill="#9eb34b"/><path d="M28.86,28a.49.49,0,0,1-.64.31.56.56,0,0,1-.4-.63.47.47,0,0,1,.63-.31A.56.56,0,0,1,28.86,28Z" fill="#a0b64d"/><path d="M28.83,28a.44.44,0,0,1-.59.25.52.52,0,0,1-.35-.6.44.44,0,0,1,.59-.25A.51.51,0,0,1,28.83,28Z" fill="#a2b84f"/><path d="M28.81,28a.4.4,0,0,1-.56.19A.47.47,0,0,1,28,27.6a.4.4,0,0,1,.56-.19A.48.48,0,0,1,28.81,28Z" fill="#a5ba51"/><path d="M28.79,28a.36.36,0,0,1-.52.12.43.43,0,0,1-.24-.52.35.35,0,0,1,.52-.12A.43.43,0,0,1,28.79,28Z" fill="#a8bd53"/><path d="M28.77,28a.35.35,0,0,1-.49.06.4.4,0,0,1-.18-.5c.08-.15.3-.17.49-.05A.39.39,0,0,1,28.77,28Z" fill="#aabf56"/><path d="M28.75,27.94a.32.32,0,0,1-.45,0,.36.36,0,0,1-.13-.46.32.32,0,0,1,.45,0A.36.36,0,0,1,28.75,27.94Z" fill="#adc258"/><path d="M28.66,27.5c.13.14.17.32.07.42s-.28.07-.42-.07a.31.31,0,0,1-.07-.42C28.33,27.33,28.52,27.37,28.66,27.5Z" fill="#b0c55b"/></g><g opacity="0.3"><g clip-path="url(#bf)"><path d="M29.08,28.14a1,1,0,1,1-1-1A1,1,0,0,1,29.08,28.14Z" fill="#879f3b"/><path d="M29.06,28.13a1,1,0,1,1-1-1A1,1,0,0,1,29.06,28.13Z" fill="#8aa13c"/><path d="M29,28.12a.92.92,0,0,1-.95.89.93.93,0,0,1-.9-1,.91.91,0,0,1,.95-.89A.93.93,0,0,1,29,28.12Z" fill="#8ca33e"/><path d="M29,28.1a.87.87,0,0,1-.91.83.89.89,0,0,1-.85-.91.86.86,0,0,1,.91-.83A.88.88,0,0,1,29,28.1Z" fill="#8ea53f"/><path d="M29,28.09a.81.81,0,0,1-.88.76.84.84,0,0,1-.79-.88.81.81,0,0,1,.87-.76A.85.85,0,0,1,29,28.09Z" fill="#90a740"/><path d="M29,28.08a.76.76,0,0,1-.84.69.8.8,0,0,1-.74-.84.77.77,0,0,1,.84-.7A.81.81,0,0,1,29,28.08Z" fill="#92a942"/><path d="M29,28.06a.72.72,0,0,1-.81.64.76.76,0,0,1-.68-.81.7.7,0,0,1,.8-.63A.76.76,0,0,1,29,28.06Z" fill="#95ab44"/><path d="M28.94,28.05a.66.66,0,0,1-.77.57.72.72,0,0,1-.63-.77.66.66,0,0,1,.77-.57A.72.72,0,0,1,28.94,28.05Z" fill="#97ad46"/><path d="M28.92,28a.61.61,0,0,1-.74.5.67.67,0,0,1-.57-.73.61.61,0,0,1,.73-.51A.69.69,0,0,1,28.92,28Z" fill="#99af47"/><path d="M28.9,28a.57.57,0,0,1-.7.44.64.64,0,0,1-.52-.7.57.57,0,0,1,.7-.45A.65.65,0,0,1,28.9,28Z" fill="#9bb149"/><path d="M28.88,28a.53.53,0,0,1-.67.38.6.6,0,0,1-.46-.67.51.51,0,0,1,.66-.37A.6.6,0,0,1,28.88,28Z" fill="#9eb34b"/><path d="M28.86,28a.49.49,0,0,1-.64.31.56.56,0,0,1-.4-.63.47.47,0,0,1,.63-.31A.56.56,0,0,1,28.86,28Z" fill="#a0b64d"/><path d="M28.83,28a.44.44,0,0,1-.59.25.52.52,0,0,1-.35-.6.44.44,0,0,1,.59-.25A.51.51,0,0,1,28.83,28Z" fill="#a2b84f"/><path d="M28.81,28a.4.4,0,0,1-.56.19A.47.47,0,0,1,28,27.6a.4.4,0,0,1,.56-.19A.48.48,0,0,1,28.81,28Z" fill="#a5ba51"/><path d="M28.79,28a.36.36,0,0,1-.52.12.43.43,0,0,1-.24-.52.35.35,0,0,1,.52-.12A.43.43,0,0,1,28.79,28Z" fill="#a8bd53"/><path d="M28.77,28a.35.35,0,0,1-.49.06.4.4,0,0,1-.18-.5c.08-.15.3-.17.49-.05A.39.39,0,0,1,28.77,28Z" fill="#aabf56"/><path d="M28.75,27.94a.32.32,0,0,1-.45,0,.36.36,0,0,1-.13-.46.32.32,0,0,1,.45,0A.36.36,0,0,1,28.75,27.94Z" fill="#adc258"/><path d="M28.66,27.5c.13.14.17.32.07.42s-.28.07-.42-.07a.31.31,0,0,1-.07-.42C28.33,27.33,28.52,27.37,28.66,27.5Z" fill="#b0c55b"/></g></g><g clip-path="url(#bg)"><path d="M31.14,14.32a1,1,0,1,1-1-1A1,1,0,0,1,31.14,14.32Z" fill="#879f3b"/><path d="M31.12,14.31a1,1,0,0,1-1,.95,1,1,0,0,1-1-1,1,1,0,0,1,1-1A1,1,0,0,1,31.12,14.31Z" fill="#8aa13c"/><path d="M31.1,14.29a.91.91,0,0,1-1,.89.92.92,0,1,1,1-.89Z" fill="#8ca33e"/><path d="M31.08,14.28a.87.87,0,0,1-.92.83.91.91,0,0,1-.85-.92.86.86,0,0,1,.92-.82A.9.9,0,0,1,31.08,14.28Z" fill="#8ea53f"/><path d="M31.06,14.27a.82.82,0,0,1-.88.76.86.86,0,0,1-.8-.88.82.82,0,0,1,.88-.76A.85.85,0,0,1,31.06,14.27Z" fill="#90a740"/><path d="M31,14.25a.77.77,0,0,1-.85.7.81.81,0,0,1-.74-.84.77.77,0,0,1,.85-.7A.82.82,0,0,1,31,14.25Z" fill="#92a942"/><path d="M31,14.24a.71.71,0,0,1-.8.64.78.78,0,0,1-.69-.81.73.73,0,0,1,.81-.64A.76.76,0,0,1,31,14.24Z" fill="#95ab44"/><path d="M31,14.23a.66.66,0,0,1-.77.57.73.73,0,0,1-.63-.77.67.67,0,0,1,.78-.57A.72.72,0,0,1,31,14.23Z" fill="#97ad46"/><path d="M31,14.22a.6.6,0,0,1-.73.5.68.68,0,0,1-.58-.73.61.61,0,0,1,.74-.51A.67.67,0,0,1,31,14.22Z" fill="#99af47"/><path d="M31,14.2a.57.57,0,0,1-.7.45.65.65,0,0,1-.52-.71.57.57,0,0,1,.7-.44A.64.64,0,0,1,31,14.2Z" fill="#9bb149"/><path d="M30.93,14.19a.51.51,0,0,1-.66.38.61.61,0,0,1-.47-.67.53.53,0,0,1,.67-.38A.6.6,0,0,1,30.93,14.19Z" fill="#9eb34b"/><path d="M30.91,14.18a.47.47,0,0,1-.63.31.56.56,0,0,1-.41-.63.49.49,0,0,1,.63-.32A.57.57,0,0,1,30.91,14.18Z" fill="#a0b64d"/><path d="M30.89,14.16a.43.43,0,0,1-.6.25.52.52,0,0,1-.35-.59.44.44,0,0,1,.6-.25A.51.51,0,0,1,30.89,14.16Z" fill="#a2b84f"/><path d="M30.87,14.15a.4.4,0,0,1-.56.19.48.48,0,0,1-.3-.56.4.4,0,0,1,.56-.19A.47.47,0,0,1,30.87,14.15Z" fill="#a5ba51"/><path d="M30.85,14.14a.37.37,0,0,1-.53.12.43.43,0,0,1-.24-.52.37.37,0,0,1,.53-.13A.44.44,0,0,1,30.85,14.14Z" fill="#a8bd53"/><path d="M30.83,14.12a.33.33,0,0,1-.49.06.39.39,0,0,1-.19-.49.34.34,0,0,1,.49-.06A.4.4,0,0,1,30.83,14.12Z" fill="#aabf56"/><path d="M30.81,14.11a.33.33,0,0,1-.46,0,.36.36,0,0,1-.13-.46.33.33,0,0,1,.46,0A.35.35,0,0,1,30.81,14.11Z" fill="#adc258"/><path d="M30.71,13.68a.31.31,0,0,1,.08.42.31.31,0,0,1-.42-.07.32.32,0,0,1-.08-.42A.3.3,0,0,1,30.71,13.68Z" fill="#b0c55b"/></g><g opacity="0.3"><g clip-path="url(#bh)"><path d="M31.14,14.32a1,1,0,1,1-1-1A1,1,0,0,1,31.14,14.32Z" fill="#879f3b"/><path d="M31.12,14.31a1,1,0,0,1-1,.95,1,1,0,0,1-1-1,1,1,0,0,1,1-1A1,1,0,0,1,31.12,14.31Z" fill="#8aa13c"/><path d="M31.1,14.29a.91.91,0,0,1-1,.89.92.92,0,1,1,1-.89Z" fill="#8ca33e"/><path d="M31.08,14.28a.87.87,0,0,1-.92.83.91.91,0,0,1-.85-.92.86.86,0,0,1,.92-.82A.9.9,0,0,1,31.08,14.28Z" fill="#8ea53f"/><path d="M31.06,14.27a.82.82,0,0,1-.88.76.86.86,0,0,1-.8-.88.82.82,0,0,1,.88-.76A.85.85,0,0,1,31.06,14.27Z" fill="#90a740"/><path d="M31,14.25a.77.77,0,0,1-.85.7.81.81,0,0,1-.74-.84.77.77,0,0,1,.85-.7A.82.82,0,0,1,31,14.25Z" fill="#92a942"/><path d="M31,14.24a.71.71,0,0,1-.8.64.78.78,0,0,1-.69-.81.73.73,0,0,1,.81-.64A.76.76,0,0,1,31,14.24Z" fill="#95ab44"/><path d="M31,14.23a.66.66,0,0,1-.77.57.73.73,0,0,1-.63-.77.67.67,0,0,1,.78-.57A.72.72,0,0,1,31,14.23Z" fill="#97ad46"/><path d="M31,14.22a.6.6,0,0,1-.73.5.68.68,0,0,1-.58-.73.61.61,0,0,1,.74-.51A.67.67,0,0,1,31,14.22Z" fill="#99af47"/><path d="M31,14.2a.57.57,0,0,1-.7.45.65.65,0,0,1-.52-.71.57.57,0,0,1,.7-.44A.64.64,0,0,1,31,14.2Z" fill="#9bb149"/><path d="M30.93,14.19a.51.51,0,0,1-.66.38.61.61,0,0,1-.47-.67.53.53,0,0,1,.67-.38A.6.6,0,0,1,30.93,14.19Z" fill="#9eb34b"/><path d="M30.91,14.18a.47.47,0,0,1-.63.31.56.56,0,0,1-.41-.63.49.49,0,0,1,.63-.32A.57.57,0,0,1,30.91,14.18Z" fill="#a0b64d"/><path d="M30.89,14.16a.43.43,0,0,1-.6.25.52.52,0,0,1-.35-.59.44.44,0,0,1,.6-.25A.51.51,0,0,1,30.89,14.16Z" fill="#a2b84f"/><path d="M30.87,14.15a.4.4,0,0,1-.56.19.48.48,0,0,1-.3-.56.4.4,0,0,1,.56-.19A.47.47,0,0,1,30.87,14.15Z" fill="#a5ba51"/><path d="M30.85,14.14a.37.37,0,0,1-.53.12.43.43,0,0,1-.24-.52.37.37,0,0,1,.53-.13A.44.44,0,0,1,30.85,14.14Z" fill="#a8bd53"/><path d="M30.83,14.12a.33.33,0,0,1-.49.06.39.39,0,0,1-.19-.49.34.34,0,0,1,.49-.06A.4.4,0,0,1,30.83,14.12Z" fill="#aabf56"/><path d="M30.81,14.11a.33.33,0,0,1-.46,0,.36.36,0,0,1-.13-.46.33.33,0,0,1,.46,0A.35.35,0,0,1,30.81,14.11Z" fill="#adc258"/><path d="M30.71,13.68a.31.31,0,0,1,.08.42.31.31,0,0,1-.42-.07.32.32,0,0,1-.08-.42A.3.3,0,0,1,30.71,13.68Z" fill="#b0c55b"/></g></g><g clip-path="url(#bi)"><path d="M12.29,22.26a1,1,0,1,1-1-1A1,1,0,0,1,12.29,22.26Z" fill="#879f3b"/><path d="M12.27,22.24a1,1,0,0,1-1,1,1,1,0,0,1-1-1,1,1,0,0,1,1-.95A1,1,0,0,1,12.27,22.24Z" fill="#8aa13c"/><path d="M12.25,22.23a.91.91,0,0,1-.95.89.93.93,0,0,1-.9-.95.92.92,0,0,1,.94-.89A.93.93,0,0,1,12.25,22.23Z" fill="#8ca33e"/><path d="M12.23,22.22a.86.86,0,0,1-.91.82.88.88,0,0,1-.85-.91.86.86,0,0,1,.91-.83A.9.9,0,0,1,12.23,22.22Z" fill="#8ea53f"/><path d="M12.21,22.2a.82.82,0,0,1-.88.77.84.84,0,0,1-.79-.88.81.81,0,0,1,.87-.76A.85.85,0,0,1,12.21,22.2Z" fill="#90a740"/><path d="M12.19,22.19a.76.76,0,0,1-.84.7.8.8,0,0,1-.74-.84.75.75,0,0,1,.84-.7A.81.81,0,0,1,12.19,22.19Z" fill="#92a942"/><path d="M12.17,22.18a.71.71,0,0,1-.81.63.75.75,0,0,1-.68-.8.7.7,0,0,1,.8-.64A.78.78,0,0,1,12.17,22.18Z" fill="#95ab44"/><path d="M12.15,22.17a.67.67,0,0,1-.78.57.73.73,0,0,1-.62-.78.66.66,0,0,1,.77-.57A.74.74,0,0,1,12.15,22.17Z" fill="#97ad46"/><path d="M12.13,22.15a.62.62,0,0,1-.74.51.67.67,0,0,1-.57-.74.6.6,0,0,1,.73-.5A.69.69,0,0,1,12.13,22.15Z" fill="#99af47"/><path d="M12.11,22.14a.58.58,0,0,1-.71.44.64.64,0,0,1-.51-.7.57.57,0,0,1,.7-.44A.64.64,0,0,1,12.11,22.14Z" fill="#9bb149"/><path d="M12.08,22.13a.51.51,0,0,1-.66.38.6.6,0,0,1-.46-.67.51.51,0,0,1,.66-.38A.6.6,0,0,1,12.08,22.13Z" fill="#9eb34b"/><path d="M12.06,22.11a.47.47,0,0,1-.63.32.55.55,0,0,1-.4-.63.48.48,0,0,1,.63-.32A.55.55,0,0,1,12.06,22.11Z" fill="#a0b64d"/><path d="M12,22.1a.42.42,0,0,1-.59.25.51.51,0,0,1-.35-.6.43.43,0,0,1,.59-.24A.51.51,0,0,1,12,22.1Z" fill="#a2b84f"/><path d="M12,22.09a.39.39,0,0,1-.56.18.46.46,0,0,1-.29-.56.4.4,0,0,1,.56-.18A.47.47,0,0,1,12,22.09Z" fill="#a5ba51"/><path d="M12,22.08a.36.36,0,0,1-.52.12.43.43,0,0,1-.24-.53.36.36,0,0,1,.52-.12A.44.44,0,0,1,12,22.08Z" fill="#a8bd53"/><path d="M12,22.06a.34.34,0,0,1-.49.06.38.38,0,0,1-.18-.49.34.34,0,0,1,.49-.06A.39.39,0,0,1,12,22.06Z" fill="#aabf56"/><path d="M12,22.05a.33.33,0,0,1-.46,0,.34.34,0,0,1-.12-.45c.09-.13.29-.12.45,0A.36.36,0,0,1,12,22.05Z" fill="#adc258"/><path d="M11.87,21.62a.31.31,0,0,1,.07.42.32.32,0,0,1-.42-.07c-.14-.14-.17-.33-.07-.42S11.73,21.48,11.87,21.62Z" fill="#b0c55b"/></g><g opacity="0.3"><g clip-path="url(#bj)"><path d="M12.29,22.26a1,1,0,1,1-1-1A1,1,0,0,1,12.29,22.26Z" fill="#879f3b"/><path d="M12.27,22.24a1,1,0,0,1-1,1,1,1,0,0,1-1-1,1,1,0,0,1,1-.95A1,1,0,0,1,12.27,22.24Z" fill="#8aa13c"/><path d="M12.25,22.23a.91.91,0,0,1-.95.89.93.93,0,0,1-.9-.95.92.92,0,0,1,.94-.89A.93.93,0,0,1,12.25,22.23Z" fill="#8ca33e"/><path d="M12.23,22.22a.86.86,0,0,1-.91.82.88.88,0,0,1-.85-.91.86.86,0,0,1,.91-.83A.9.9,0,0,1,12.23,22.22Z" fill="#8ea53f"/><path d="M12.21,22.2a.82.82,0,0,1-.88.77.84.84,0,0,1-.79-.88.81.81,0,0,1,.87-.76A.85.85,0,0,1,12.21,22.2Z" fill="#90a740"/><path d="M12.19,22.19a.76.76,0,0,1-.84.7.8.8,0,0,1-.74-.84.75.75,0,0,1,.84-.7A.81.81,0,0,1,12.19,22.19Z" fill="#92a942"/><path d="M12.17,22.18a.71.71,0,0,1-.81.63.75.75,0,0,1-.68-.8.7.7,0,0,1,.8-.64A.78.78,0,0,1,12.17,22.18Z" fill="#95ab44"/><path d="M12.15,22.17a.67.67,0,0,1-.78.57.73.73,0,0,1-.62-.78.66.66,0,0,1,.77-.57A.74.74,0,0,1,12.15,22.17Z" fill="#97ad46"/><path d="M12.13,22.15a.62.62,0,0,1-.74.51.67.67,0,0,1-.57-.74.6.6,0,0,1,.73-.5A.69.69,0,0,1,12.13,22.15Z" fill="#99af47"/><path d="M12.11,22.14a.58.58,0,0,1-.71.44.64.64,0,0,1-.51-.7.57.57,0,0,1,.7-.44A.64.64,0,0,1,12.11,22.14Z" fill="#9bb149"/><path d="M12.08,22.13a.51.51,0,0,1-.66.38.6.6,0,0,1-.46-.67.51.51,0,0,1,.66-.38A.6.6,0,0,1,12.08,22.13Z" fill="#9eb34b"/><path d="M12.06,22.11a.47.47,0,0,1-.63.32.55.55,0,0,1-.4-.63.48.48,0,0,1,.63-.32A.55.55,0,0,1,12.06,22.11Z" fill="#a0b64d"/><path d="M12,22.1a.42.42,0,0,1-.59.25.51.51,0,0,1-.35-.6.43.43,0,0,1,.59-.24A.51.51,0,0,1,12,22.1Z" fill="#a2b84f"/><path d="M12,22.09a.39.39,0,0,1-.56.18.46.46,0,0,1-.29-.56.4.4,0,0,1,.56-.18A.47.47,0,0,1,12,22.09Z" fill="#a5ba51"/><path d="M12,22.08a.36.36,0,0,1-.52.12.43.43,0,0,1-.24-.53.36.36,0,0,1,.52-.12A.44.44,0,0,1,12,22.08Z" fill="#a8bd53"/><path d="M12,22.06a.34.34,0,0,1-.49.06.38.38,0,0,1-.18-.49.34.34,0,0,1,.49-.06A.39.39,0,0,1,12,22.06Z" fill="#aabf56"/><path d="M12,22.05a.33.33,0,0,1-.46,0,.34.34,0,0,1-.12-.45c.09-.13.29-.12.45,0A.36.36,0,0,1,12,22.05Z" fill="#adc258"/><path d="M11.87,21.62a.31.31,0,0,1,.07.42.32.32,0,0,1-.42-.07c-.14-.14-.17-.33-.07-.42S11.73,21.48,11.87,21.62Z" fill="#b0c55b"/></g></g><g clip-path="url(#bk)"><path d="M12.75,13.93a1,1,0,1,1-1-1A1,1,0,0,1,12.75,13.93Z" fill="#879f3b"/><path d="M12.73,13.92a1,1,0,1,1-1-1A1,1,0,0,1,12.73,13.92Z" fill="#8aa13c"/><path d="M12.71,13.91a.92.92,0,0,1-1,.89.94.94,0,0,1-.91-1,.91.91,0,0,1,1-.89A.94.94,0,0,1,12.71,13.91Z" fill="#8ca33e"/><path d="M12.68,13.9a.85.85,0,0,1-.91.82.88.88,0,0,1-.85-.91.87.87,0,0,1,.91-.83A.89.89,0,0,1,12.68,13.9Z" fill="#8ea53f"/><path d="M12.66,13.88a.79.79,0,0,1-.87.76.84.84,0,0,1-.8-.87.82.82,0,0,1,.88-.77A.85.85,0,0,1,12.66,13.88Z" fill="#90a740"/><path d="M12.64,13.87a.76.76,0,0,1-.84.7.8.8,0,0,1-.74-.84.76.76,0,0,1,.84-.7A.8.8,0,0,1,12.64,13.87Z" fill="#92a942"/><path d="M12.62,13.86a.7.7,0,0,1-.8.63.77.77,0,0,1-.69-.81.72.72,0,0,1,.81-.63A.76.76,0,0,1,12.62,13.86Z" fill="#95ab44"/><path d="M12.6,13.84a.66.66,0,0,1-.77.57.72.72,0,0,1-.63-.77.66.66,0,0,1,.77-.57A.72.72,0,0,1,12.6,13.84Z" fill="#97ad46"/><path d="M12.58,13.83a.62.62,0,0,1-.74.51.69.69,0,0,1-.57-.74.63.63,0,0,1,.74-.51A.69.69,0,0,1,12.58,13.83Z" fill="#99af47"/><path d="M12.56,13.82a.57.57,0,0,1-.7.44.64.64,0,0,1-.52-.7.56.56,0,0,1,.7-.44A.63.63,0,0,1,12.56,13.82Z" fill="#9bb149"/><path d="M12.54,13.8a.53.53,0,0,1-.67.38.59.59,0,0,1-.46-.66.53.53,0,0,1,.67-.38A.59.59,0,0,1,12.54,13.8Z" fill="#9eb34b"/><path d="M12.52,13.79a.49.49,0,0,1-.63.32.56.56,0,0,1-.41-.63.47.47,0,0,1,.63-.32A.56.56,0,0,1,12.52,13.79Z" fill="#a0b64d"/><path d="M12.5,13.78a.45.45,0,0,1-.6.25.52.52,0,0,1-.35-.6.45.45,0,0,1,.6-.25A.52.52,0,0,1,12.5,13.78Z" fill="#a2b84f"/><path d="M12.48,13.77a.41.41,0,0,1-.56.18.47.47,0,0,1-.3-.56.4.4,0,0,1,.56-.19A.49.49,0,0,1,12.48,13.77Z" fill="#a5ba51"/><path d="M12.46,13.75a.37.37,0,0,1-.53.13.44.44,0,0,1-.24-.53.37.37,0,0,1,.53-.12A.43.43,0,0,1,12.46,13.75Z" fill="#a8bd53"/><path d="M12.44,13.74a.34.34,0,0,1-.49.06.4.4,0,0,1-.19-.49.34.34,0,0,1,.49-.06A.4.4,0,0,1,12.44,13.74Z" fill="#aabf56"/><path d="M12.41,13.73a.32.32,0,0,1-.45,0,.35.35,0,0,1-.13-.45.32.32,0,0,1,.46,0A.34.34,0,0,1,12.41,13.73Z" fill="#adc258"/><path d="M12.32,13.29c.14.14.17.33.07.42s-.28.07-.42-.06-.16-.33-.07-.42A.31.31,0,0,1,12.32,13.29Z" fill="#b0c55b"/></g><g opacity="0.3"><g clip-path="url(#bl)"><path d="M12.75,13.93a1,1,0,1,1-1-1A1,1,0,0,1,12.75,13.93Z" fill="#879f3b"/><path d="M12.73,13.92a1,1,0,1,1-1-1A1,1,0,0,1,12.73,13.92Z" fill="#8aa13c"/><path d="M12.71,13.91a.92.92,0,0,1-1,.89.94.94,0,0,1-.91-1,.91.91,0,0,1,1-.89A.94.94,0,0,1,12.71,13.91Z" fill="#8ca33e"/><path d="M12.68,13.9a.85.85,0,0,1-.91.82.88.88,0,0,1-.85-.91.87.87,0,0,1,.91-.83A.89.89,0,0,1,12.68,13.9Z" fill="#8ea53f"/><path d="M12.66,13.88a.79.79,0,0,1-.87.76.84.84,0,0,1-.8-.87.82.82,0,0,1,.88-.77A.85.85,0,0,1,12.66,13.88Z" fill="#90a740"/><path d="M12.64,13.87a.76.76,0,0,1-.84.7.8.8,0,0,1-.74-.84.76.76,0,0,1,.84-.7A.8.8,0,0,1,12.64,13.87Z" fill="#92a942"/><path d="M12.62,13.86a.7.7,0,0,1-.8.63.77.77,0,0,1-.69-.81.72.72,0,0,1,.81-.63A.76.76,0,0,1,12.62,13.86Z" fill="#95ab44"/><path d="M12.6,13.84a.66.66,0,0,1-.77.57.72.72,0,0,1-.63-.77.66.66,0,0,1,.77-.57A.72.72,0,0,1,12.6,13.84Z" fill="#97ad46"/><path d="M12.58,13.83a.62.62,0,0,1-.74.51.69.69,0,0,1-.57-.74.63.63,0,0,1,.74-.51A.69.69,0,0,1,12.58,13.83Z" fill="#99af47"/><path d="M12.56,13.82a.57.57,0,0,1-.7.44.64.64,0,0,1-.52-.7.56.56,0,0,1,.7-.44A.63.63,0,0,1,12.56,13.82Z" fill="#9bb149"/><path d="M12.54,13.8a.53.53,0,0,1-.67.38.59.59,0,0,1-.46-.66.53.53,0,0,1,.67-.38A.59.59,0,0,1,12.54,13.8Z" fill="#9eb34b"/><path d="M12.52,13.79a.49.49,0,0,1-.63.32.56.56,0,0,1-.41-.63.47.47,0,0,1,.63-.32A.56.56,0,0,1,12.52,13.79Z" fill="#a0b64d"/><path d="M12.5,13.78a.45.45,0,0,1-.6.25.52.52,0,0,1-.35-.6.45.45,0,0,1,.6-.25A.52.52,0,0,1,12.5,13.78Z" fill="#a2b84f"/><path d="M12.48,13.77a.41.41,0,0,1-.56.18.47.47,0,0,1-.3-.56.4.4,0,0,1,.56-.19A.49.49,0,0,1,12.48,13.77Z" fill="#a5ba51"/><path d="M12.46,13.75a.37.37,0,0,1-.53.13.44.44,0,0,1-.24-.53.37.37,0,0,1,.53-.12A.43.43,0,0,1,12.46,13.75Z" fill="#a8bd53"/><path d="M12.44,13.74a.34.34,0,0,1-.49.06.4.4,0,0,1-.19-.49.34.34,0,0,1,.49-.06A.4.4,0,0,1,12.44,13.74Z" fill="#aabf56"/><path d="M12.41,13.73a.32.32,0,0,1-.45,0,.35.35,0,0,1-.13-.45.32.32,0,0,1,.46,0A.34.34,0,0,1,12.41,13.73Z" fill="#adc258"/><path d="M12.32,13.29c.14.14.17.33.07.42s-.28.07-.42-.06-.16-.33-.07-.42A.31.31,0,0,1,12.32,13.29Z" fill="#b0c55b"/></g></g><g clip-path="url(#bm)"><path d="M28.33,12.27a1,1,0,1,1-1-1A1,1,0,0,1,28.33,12.27Z" fill="#879f3b"/><path d="M28.31,12.25a1,1,0,1,1-1-1A1,1,0,0,1,28.31,12.25Z" fill="#8aa13c"/><path d="M28.28,12.24a.9.9,0,0,1-.94.89.92.92,0,1,1,.94-.89Z" fill="#8ca33e"/><path d="M28.26,12.23a.85.85,0,0,1-.91.82.88.88,0,0,1-.85-.91.86.86,0,0,1,.91-.82A.88.88,0,0,1,28.26,12.23Z" fill="#8ea53f"/><path d="M28.24,12.22a.81.81,0,0,1-.87.76.85.85,0,0,1-.8-.88.81.81,0,0,1,.88-.76A.84.84,0,0,1,28.24,12.22Z" fill="#90a740"/><path d="M28.22,12.2a.76.76,0,0,1-.84.7.8.8,0,0,1-.74-.84.76.76,0,0,1,.84-.7A.8.8,0,0,1,28.22,12.2Z" fill="#92a942"/><path d="M28.2,12.19a.7.7,0,0,1-.81.63.76.76,0,0,1-.68-.8.71.71,0,0,1,.81-.64A.76.76,0,0,1,28.2,12.19Z" fill="#95ab44"/><path d="M28.18,12.18a.66.66,0,0,1-.77.57.73.73,0,0,1-.63-.78.67.67,0,0,1,.77-.57A.73.73,0,0,1,28.18,12.18Z" fill="#97ad46"/><path d="M28.16,12.16a.62.62,0,0,1-.74.51.67.67,0,0,1-.57-.74.61.61,0,0,1,.74-.5A.67.67,0,0,1,28.16,12.16Z" fill="#99af47"/><path d="M28.14,12.15a.57.57,0,0,1-.7.44.63.63,0,0,1-.52-.7.57.57,0,0,1,.7-.44A.64.64,0,0,1,28.14,12.15Z" fill="#9bb149"/><path d="M28.12,12.14a.53.53,0,0,1-.67.38.6.6,0,0,1-.46-.67.53.53,0,0,1,.67-.38A.6.6,0,0,1,28.12,12.14Z" fill="#9eb34b"/><path d="M28.1,12.13a.48.48,0,0,1-.63.31.56.56,0,0,1-.41-.63.49.49,0,0,1,.63-.32A.56.56,0,0,1,28.1,12.13Z" fill="#a0b64d"/><path d="M28.08,12.11a.44.44,0,0,1-.6.25.51.51,0,0,1-.35-.59.44.44,0,0,1,.6-.25A.52.52,0,0,1,28.08,12.11Z" fill="#a2b84f"/><path d="M28.06,12.1a.4.4,0,0,1-.56.19.49.49,0,0,1-.3-.57.4.4,0,0,1,.56-.18A.47.47,0,0,1,28.06,12.1Z" fill="#a5ba51"/><path d="M28,12.09a.38.38,0,0,1-.53.12.44.44,0,0,1-.24-.53.37.37,0,0,1,.53-.12A.45.45,0,0,1,28,12.09Z" fill="#a8bd53"/><path d="M28,12.07a.34.34,0,0,1-.49.06.4.4,0,0,1-.18-.49.34.34,0,0,1,.49-.06A.38.38,0,0,1,28,12.07Z" fill="#aabf56"/><path d="M28,12.06a.32.32,0,0,1-.45,0,.35.35,0,0,1-.13-.45.32.32,0,0,1,.46,0A.34.34,0,0,1,28,12.06Z" fill="#adc258"/><path d="M27.9,11.63a.3.3,0,0,1,.07.42c-.09.09-.28.06-.42-.07s-.16-.33-.07-.42A.3.3,0,0,1,27.9,11.63Z" fill="#b0c55b"/></g><g opacity="0.3"><g clip-path="url(#bn)"><path d="M28.33,12.27a1,1,0,1,1-1-1A1,1,0,0,1,28.33,12.27Z" fill="#879f3b"/><path d="M28.31,12.25a1,1,0,1,1-1-1A1,1,0,0,1,28.31,12.25Z" fill="#8aa13c"/><path d="M28.28,12.24a.9.9,0,0,1-.94.89.92.92,0,1,1,.94-.89Z" fill="#8ca33e"/><path d="M28.26,12.23a.85.85,0,0,1-.91.82.88.88,0,0,1-.85-.91.86.86,0,0,1,.91-.82A.88.88,0,0,1,28.26,12.23Z" fill="#8ea53f"/><path d="M28.24,12.22a.81.81,0,0,1-.87.76.85.85,0,0,1-.8-.88.81.81,0,0,1,.88-.76A.84.84,0,0,1,28.24,12.22Z" fill="#90a740"/><path d="M28.22,12.2a.76.76,0,0,1-.84.7.8.8,0,0,1-.74-.84.76.76,0,0,1,.84-.7A.8.8,0,0,1,28.22,12.2Z" fill="#92a942"/><path d="M28.2,12.19a.7.7,0,0,1-.81.63.76.76,0,0,1-.68-.8.71.71,0,0,1,.81-.64A.76.76,0,0,1,28.2,12.19Z" fill="#95ab44"/><path d="M28.18,12.18a.66.66,0,0,1-.77.57.73.73,0,0,1-.63-.78.67.67,0,0,1,.77-.57A.73.73,0,0,1,28.18,12.18Z" fill="#97ad46"/><path d="M28.16,12.16a.62.62,0,0,1-.74.51.67.67,0,0,1-.57-.74.61.61,0,0,1,.74-.5A.67.67,0,0,1,28.16,12.16Z" fill="#99af47"/><path d="M28.14,12.15a.57.57,0,0,1-.7.44.63.63,0,0,1-.52-.7.57.57,0,0,1,.7-.44A.64.64,0,0,1,28.14,12.15Z" fill="#9bb149"/><path d="M28.12,12.14a.53.53,0,0,1-.67.38.6.6,0,0,1-.46-.67.53.53,0,0,1,.67-.38A.6.6,0,0,1,28.12,12.14Z" fill="#9eb34b"/><path d="M28.1,12.13a.48.48,0,0,1-.63.31.56.56,0,0,1-.41-.63.49.49,0,0,1,.63-.32A.56.56,0,0,1,28.1,12.13Z" fill="#a0b64d"/><path d="M28.08,12.11a.44.44,0,0,1-.6.25.51.51,0,0,1-.35-.59.44.44,0,0,1,.6-.25A.52.52,0,0,1,28.08,12.11Z" fill="#a2b84f"/><path d="M28.06,12.1a.4.4,0,0,1-.56.19.49.49,0,0,1-.3-.57.4.4,0,0,1,.56-.18A.47.47,0,0,1,28.06,12.1Z" fill="#a5ba51"/><path d="M28,12.09a.38.38,0,0,1-.53.12.44.44,0,0,1-.24-.53.37.37,0,0,1,.53-.12A.45.45,0,0,1,28,12.09Z" fill="#a8bd53"/><path d="M28,12.07a.34.34,0,0,1-.49.06.4.4,0,0,1-.18-.49.34.34,0,0,1,.49-.06A.38.38,0,0,1,28,12.07Z" fill="#aabf56"/><path d="M28,12.06a.32.32,0,0,1-.45,0,.35.35,0,0,1-.13-.45.32.32,0,0,1,.46,0A.34.34,0,0,1,28,12.06Z" fill="#adc258"/><path d="M27.9,11.63a.3.3,0,0,1,.07.42c-.09.09-.28.06-.42-.07s-.16-.33-.07-.42A.3.3,0,0,1,27.9,11.63Z" fill="#b0c55b"/></g></g><g clip-path="url(#bo)"><path d="M18.2,16.5a1,1,0,1,1-1-1A1,1,0,0,1,18.2,16.5Z" fill="#879f3b"/><path d="M18.18,16.49a1,1,0,0,1-1,1,1,1,0,0,1-1-1,1,1,0,0,1,1-1A1,1,0,0,1,18.18,16.49Z" fill="#8aa13c"/><path d="M18.16,16.48a.92.92,0,0,1-.95.89.94.94,0,0,1-.91-.95.92.92,0,0,1,.95-.89A.94.94,0,0,1,18.16,16.48Z" fill="#8ca33e"/><path d="M18.14,16.47a.86.86,0,0,1-.92.82.9.9,0,0,1-.85-.91.87.87,0,0,1,.92-.83A.91.91,0,0,1,18.14,16.47Z" fill="#8ea53f"/><path d="M18.12,16.45a.82.82,0,0,1-.88.77.87.87,0,0,1-.8-.88.81.81,0,0,1,.88-.76A.85.85,0,0,1,18.12,16.45Z" fill="#90a740"/><path d="M18.09,16.44a.75.75,0,0,1-.84.7.81.81,0,0,1-.74-.84.77.77,0,0,1,.85-.7A.8.8,0,0,1,18.09,16.44Z" fill="#92a942"/><path d="M18.07,16.43a.7.7,0,0,1-.8.63.78.78,0,0,1-.69-.81.72.72,0,0,1,.81-.63A.76.76,0,0,1,18.07,16.43Z" fill="#95ab44"/><path d="M18.05,16.41a.65.65,0,0,1-.77.57.72.72,0,0,1-.63-.77.67.67,0,0,1,.78-.57A.72.72,0,0,1,18.05,16.41Z" fill="#97ad46"/><path d="M18,16.4a.61.61,0,0,1-.73.51.69.69,0,0,1-.58-.74.61.61,0,0,1,.74-.5A.67.67,0,0,1,18,16.4Z" fill="#99af47"/><path d="M18,16.39a.56.56,0,0,1-.7.44.63.63,0,0,1-.52-.7.57.57,0,0,1,.7-.44A.63.63,0,0,1,18,16.39Z" fill="#9bb149"/><path d="M18,16.38a.51.51,0,0,1-.66.37.6.6,0,0,1-.47-.66.53.53,0,0,1,.67-.38A.6.6,0,0,1,18,16.38Z" fill="#9eb34b"/><path d="M18,16.36a.48.48,0,0,1-.63.32.56.56,0,0,1-.41-.63.48.48,0,0,1,.63-.32A.56.56,0,0,1,18,16.36Z" fill="#a0b64d"/><path d="M18,16.35a.44.44,0,0,1-.6.25A.51.51,0,0,1,17,16a.45.45,0,0,1,.6-.25A.52.52,0,0,1,18,16.35Z" fill="#a2b84f"/><path d="M17.93,16.34a.4.4,0,0,1-.56.18.47.47,0,0,1-.3-.56.4.4,0,0,1,.56-.18A.47.47,0,0,1,17.93,16.34Z" fill="#a5ba51"/><path d="M17.91,16.32a.37.37,0,0,1-.53.13.44.44,0,0,1-.24-.53.37.37,0,0,1,.53-.12A.43.43,0,0,1,17.91,16.32Z" fill="#a8bd53"/><path d="M17.89,16.31a.34.34,0,0,1-.49.06.4.4,0,0,1-.19-.49.34.34,0,0,1,.49-.06A.4.4,0,0,1,17.89,16.31Z" fill="#aabf56"/><path d="M17.87,16.3a.33.33,0,0,1-.46,0,.35.35,0,0,1-.13-.45.33.33,0,0,1,.46,0A.36.36,0,0,1,17.87,16.3Z" fill="#adc258"/><path d="M17.77,15.87a.31.31,0,0,1,.08.42.32.32,0,0,1-.42-.07c-.14-.14-.17-.33-.08-.42A.3.3,0,0,1,17.77,15.87Z" fill="#b0c55b"/></g><g opacity="0.3"><g clip-path="url(#bp)"><path d="M18.2,16.5a1,1,0,1,1-1-1A1,1,0,0,1,18.2,16.5Z" fill="#879f3b"/><path d="M18.18,16.49a1,1,0,0,1-1,1,1,1,0,0,1-1-1,1,1,0,0,1,1-1A1,1,0,0,1,18.18,16.49Z" fill="#8aa13c"/><path d="M18.16,16.48a.92.92,0,0,1-.95.89.94.94,0,0,1-.91-.95.92.92,0,0,1,.95-.89A.94.94,0,0,1,18.16,16.48Z" fill="#8ca33e"/><path d="M18.14,16.47a.86.86,0,0,1-.92.82.9.9,0,0,1-.85-.91.87.87,0,0,1,.92-.83A.91.91,0,0,1,18.14,16.47Z" fill="#8ea53f"/><path d="M18.12,16.45a.82.82,0,0,1-.88.77.87.87,0,0,1-.8-.88.81.81,0,0,1,.88-.76A.85.85,0,0,1,18.12,16.45Z" fill="#90a740"/><path d="M18.09,16.44a.75.75,0,0,1-.84.7.81.81,0,0,1-.74-.84.77.77,0,0,1,.85-.7A.8.8,0,0,1,18.09,16.44Z" fill="#92a942"/><path d="M18.07,16.43a.7.7,0,0,1-.8.63.78.78,0,0,1-.69-.81.72.72,0,0,1,.81-.63A.76.76,0,0,1,18.07,16.43Z" fill="#95ab44"/><path d="M18.05,16.41a.65.65,0,0,1-.77.57.72.72,0,0,1-.63-.77.67.67,0,0,1,.78-.57A.72.72,0,0,1,18.05,16.41Z" fill="#97ad46"/><path d="M18,16.4a.61.61,0,0,1-.73.51.69.69,0,0,1-.58-.74.61.61,0,0,1,.74-.5A.67.67,0,0,1,18,16.4Z" fill="#99af47"/><path d="M18,16.39a.56.56,0,0,1-.7.44.63.63,0,0,1-.52-.7.57.57,0,0,1,.7-.44A.63.63,0,0,1,18,16.39Z" fill="#9bb149"/><path d="M18,16.38a.51.51,0,0,1-.66.37.6.6,0,0,1-.47-.66.53.53,0,0,1,.67-.38A.6.6,0,0,1,18,16.38Z" fill="#9eb34b"/><path d="M18,16.36a.48.48,0,0,1-.63.32.56.56,0,0,1-.41-.63.48.48,0,0,1,.63-.32A.56.56,0,0,1,18,16.36Z" fill="#a0b64d"/><path d="M18,16.35a.44.44,0,0,1-.6.25A.51.51,0,0,1,17,16a.45.45,0,0,1,.6-.25A.52.52,0,0,1,18,16.35Z" fill="#a2b84f"/><path d="M17.93,16.34a.4.4,0,0,1-.56.18.47.47,0,0,1-.3-.56.4.4,0,0,1,.56-.18A.47.47,0,0,1,17.93,16.34Z" fill="#a5ba51"/><path d="M17.91,16.32a.37.37,0,0,1-.53.13.44.44,0,0,1-.24-.53.37.37,0,0,1,.53-.12A.43.43,0,0,1,17.91,16.32Z" fill="#a8bd53"/><path d="M17.89,16.31a.34.34,0,0,1-.49.06.4.4,0,0,1-.19-.49.34.34,0,0,1,.49-.06A.4.4,0,0,1,17.89,16.31Z" fill="#aabf56"/><path d="M17.87,16.3a.33.33,0,0,1-.46,0,.35.35,0,0,1-.13-.45.33.33,0,0,1,.46,0A.36.36,0,0,1,17.87,16.3Z" fill="#adc258"/><path d="M17.77,15.87a.31.31,0,0,1,.08.42.32.32,0,0,1-.42-.07c-.14-.14-.17-.33-.08-.42A.3.3,0,0,1,17.77,15.87Z" fill="#b0c55b"/></g></g><path d="M24,16.87a8.69,8.69,0,0,1-.37-1.43c0-.14.17.19.24.17s.17-.71.34-.69.3.24.42.22.08-.38.19-.39S25,15,25,15s.11-.36.22-.36.09.19.15.22c.22.1.81-.28,1-.1s-.16.47-.06.58.38-.08.41,0-.63.25-.61.43.53.05.54.19-.4.12-.47.23,0,.16,0,.21C25.94,16.89,24.38,17.05,24,16.87Z" fill="#4c813f"/><path d="M30.44,25.55s.88-1.38,1.29-1.2c.06,0-.06.22,0,.26s.47-.36.61-.26-.08.3,0,.34.31-.26.41-.2,0,.23,0,.26.25-.16.32-.11,0,.14,0,.17.47-.12.5,0-.76.14-.82.35.2.17.18.24-.88-.08-.93.15.46.14.43.26c-.13.44-1.85,0-1.85,0S30.23,25.74,30.44,25.55Z" fill="#719141"/><path d="M41.21,19.69s-.27,1.61-.71,1.6c-.07,0,0-.23-.1-.24s-.3.52-.46.49-.06-.31-.14-.32-.19.36-.3.35,0-.23-.1-.25-.17.26-.25.24,0-.15-.07-.16-.39.3-.46.19.65-.42.61-.64c0-.07-.25-.07-.25-.15,0-.23.84-.27.79-.5s-.48.05-.49-.07c-.06-.46,1.69-.73,1.69-.73S41.32,19.42,41.21,19.69Z" fill="#61883d"/><path d="M25.54,19.36a10.85,10.85,0,0,1-.2-1.61c.06-.18.32,0,.32,0l.15-.38h.43l.3-.53.17.44.5-.62v.5l.26.24-.2.61.2.12-.26.47.26.2A5.2,5.2,0,0,1,25.54,19.36Z" fill="#58763c"/><path d="M23.42,17.29c0-.42-.88-1.35-1-1.35s.14.58,0,.67-.67-.52-.94-.51-.51.21-.52.37.4.24.38.38-1,.16-1,.44.68.2.7.4-.79.4-.7.62.27-.07.32,0-.48.68-.32.85.49-.32.61-.21-.27.52-.15.62c.31.24,1-.69,1.41-.67s.63.53.88.49.23-.32.35-.38.22.08.26,0-.25-.54-.15-.67.82,0,.68-.18a5.89,5.89,0,0,0-.73-.44C23.37,17.69,23.38,17.66,23.42,17.29Z" fill="#508b40"/><path d="M24.38,20.64c0-.09-.18-.26,0-.41s.61-.17.61,0,.21.35.33.41.4.06.43.18-.25.18-.23.26.45.09.44.21-.39.08-.47.17,0,.43-.09.5-.48-.19-.65-.18-.33.2-.45.18-.19-.18-.27-.2-.4.14-.5,0,0-.36,0-.46-.39-.19-.38-.32.46-.28.63-.33S24.32,20.78,24.38,20.64Z" fill="#54823e"/><path d="M14.59,14.08c.05.09.3.06.31.27s-.22.52-.35.4a.58.58,0,0,0-.49-.06c-.1,0-.28.22-.38.16s0-.27-.07-.32-.32.23-.4.15.16-.3.13-.42S13,14,13,13.87s.42-.19.51-.3,0-.34.12-.41.25,0,.31,0,.13-.36.24-.36.24.27.35.31.37-.13.45,0-.05.48-.1.62S14.53,14,14.59,14.08Z" fill="#6d873b"/><path d="M14.41,22.81A4.93,4.93,0,0,1,16,21.87a2.63,2.63,0,0,0,1.37-.46c.08-.08.23-.29.18-.38s-.77,0-.82-.18.86-.38.82-.64-.38,0-.41-.15.31-.25.26-.35-.38.06-.49,0-.11-.23-.18-.23-.12.28-.21.29-.26-.33-.37-.29-.05.39-.15.44-.44-.28-.59-.24-.29.33-.32.47.22.74.21,1a2.15,2.15,0,0,1-.27.73C14.84,22.1,14.26,22.48,14.41,22.81Z" fill="#66863c"/><path d="M30,16.6c-.09,0-.32-.06-.32-.15v-.53c0-.08-.06-.26,0-.32s.12,0,.16,0,.19-.47.34-.47.15.26.23.32.25.08.29.15a.64.64,0,0,1,0,.47A1.37,1.37,0,0,1,30,16.6Z" fill="#54823e"/><path d="M22.86,21.16c0,.09-.08.32-.16.31l-.53,0c-.08,0-.27,0-.32,0s0-.12,0-.16-.46-.21-.46-.36.27-.14.34-.22.09-.24.16-.28a.61.61,0,0,1,.46,0A1.33,1.33,0,0,1,22.86,21.16Z" fill="#54823e"/><path d="M21.57,22.35c0,.09-.07.32-.16.32s-.41-.09-.52,0c-.45.23-.78.1-.33,0,0,0,0-.13,0-.17s-1-.14-1-.28.8-.22.86-.29.24-.25.16-.29.37,0,.47,0A1.25,1.25,0,0,1,21.57,22.35Z" fill="#54823e"/><path d="M29.77,19.09s.2-1.4.59-1.45c.12,0,.18.37.3.4s.47-.41.65-.36.12.38.23.43.63-.35.74-.2-.43.53-.44.74.21.23.17.31-.58,0-.65.15.27.3.22.41-.57,0-.72.07-.12.58-.29.59C30.24,20.21,29.77,19.09,29.77,19.09Z" fill="#54823e"/></svg>