<?xml version="1.0" encoding="utf-8"?>
<!-- Generator: Adobe Illustrator 24.0.2, SVG Export Plug-In . SVG Version: 6.00 Build 0)  -->
<svg version="1.1" id="Layer_1" xmlns:v="https://vecta.io/nano"
	 xmlns="http://www.w3.org/2000/svg" xmlns:xlink="http://www.w3.org/1999/xlink" x="0px" y="0px" viewBox="0 0 186 171"
	 style="enable-background:new 0 0 186 171;" xml:space="preserve">
<style type="text/css">
	.st0{fill:#FEC803;}
	.st1{fill:#EFB80B;}
	.st2{fill:#FFFFFF;}
	.st3{opacity:0.1;fill:none;stroke:#191326;stroke-width:3;enable-background:new    ;}
	.st4{fill:#F3BA2F;}
	.st5{opacity:0.1;fill:none;stroke:#565656;stroke-width:2.837;enable-background:new    ;}
</style>
<g>
	<path class="st0" d="M172.4,95c-1-7.8-6.2-14.9-13.3-18.2c-8.6-4-18.7-2.6-27.8-5.3c-11.8-3.5-20.4-13.3-30.9-19.8
		C88,44.1,73.2,41.4,58.8,38.8C49.2,37.1,39.1,35.5,30,39c-12.3,4.9-19.5,20-15.5,32.6c6.8,21.4,37,27.1,46.2,47.6
		c4.8,10.6,3.2,24.1,10.7,32.9c9,10.5,25.5,8.7,38.9,5.5c10.2-2.5,20.3-5.3,30.4-8.2c8.2-2.3,16.8-4.8,22.8-10.8
		c7.5-7.4,4.4-13.1,4.3-21.7C167.9,109.5,173.5,103.3,172.4,95z"/>
</g>
<circle class="st1" cx="70.2" cy="39.8" r="29"/>
<g>
	<path class="st2" d="M70.2,20.3c1.6,1.6,3.2,3.3,4.8,4.9c0.1,0.1,0.1,0.1,0,0.2c-4,4-8,8-12,12c-0.1,0.1-0.1,0.1-0.2,0
		c-1.6-1.6-3.2-3.2-4.7-4.7c-0.1-0.1-0.1-0.1,0-0.1c2-2,3.9-3.9,5.9-5.9c2-2.1,4.1-4.1,6.1-6.2C70.1,20.4,70.2,20.3,70.2,20.3
		L70.2,20.3z"/>
	<path class="st2" d="M63,52.1C62.9,52.1,62.9,52.1,63,52.1C62.9,52,62.9,52,63,52.1c-1.7-1.7-3.3-3.2-4.8-4.8
		c-0.1-0.1-0.1-0.1,0-0.2c2.1-2.2,4.3-4.3,6.4-6.5c2.2-2.2,4.4-4.4,6.6-6.7c2.1-2.1,4.2-4.2,6.3-6.3c0.1-0.1,0.1-0.1,0.2,0
		c1.6,1.6,3.1,3.2,4.7,4.8c0.1,0.1,0.1,0.1,0,0.2C75.9,39.1,69.5,45.6,63,52.1C63,52,63,52.1,63,52.1z"/>
	<path class="st2" d="M89.7,39.9L89.7,39.9C89.6,40,89.6,40,89.7,39.9c-6.5,6.5-12.9,12.9-19.4,19.4c-0.1,0.1-0.1,0.1-0.2,0
		c-1.6-1.6-3.2-3.2-4.7-4.7c-0.1-0.1-0.1-0.1,0-0.1c1.1-1.1,2.3-2.3,3.4-3.4c2.2-2.2,4.4-4.4,6.6-6.7c2.2-2.2,4.3-4.3,6.5-6.5
		c0.9-0.9,1.9-1.9,2.8-2.8c0.1-0.1,0.1-0.1,0.2,0C86.5,36.7,88,38.3,89.7,39.9C89.6,39.8,89.7,39.8,89.7,39.9z"/>
	<path class="st2" d="M55.6,44.8C55.6,44.8,55.6,44.7,55.6,44.8c-0.3-0.3-0.5-0.5-0.7-0.7c-1.4-1.4-2.8-2.8-4.2-4.2
		c-0.1-0.1-0.1-0.1,0-0.1c1.6-1.6,3.2-3.3,4.8-4.9c0.1-0.1,0.1,0,0.1,0c0.8,0.8,1.6,1.6,2.3,2.4c0.8,0.8,1.6,1.7,2.4,2.5
		c0.1,0.1,0.1,0.1,0,0.2C58.9,41.5,57.3,43.1,55.6,44.8C55.7,44.7,55.7,44.8,55.6,44.8z"/>
</g>
<circle class="st3" cx="70.2" cy="39.8" r="27.5"/>
<g>
	<circle class="st4" cx="119.7" cy="83.3" r="43.6"/>
	<g>
		<path class="st2" d="M110.2,79.4l9.5-9.5l9.5,9.5l5.6-5.6l-14.9-14.9L105,73.8L110.2,79.4z M95.3,83.3l5.6-5.6l5.6,5.6l-5.6,5.6
			L95.3,83.3z M110.2,87.2l9.5,9.5l9.5-9.5l5.6,5.6l-15,14.9l-14.9-15l0,0L110.2,87.2z M133.1,83.3l5.6-5.6l5.6,5.6l-5.6,5.6
			L133.1,83.3z M125.3,83.3L125.3,83.3L125.3,83.3l-5.6,5.6l-5.6-5.6l0,0l0,0l0.9-1.1l0.5-0.5l4.1-4.1L125.3,83.3L125.3,83.3z"/>
	</g>
</g>
<circle class="st5" cx="119.7" cy="83.3" r="42.1"/>
</svg>
