<?xml version="1.0" encoding="utf-8"?>
<!-- Generator: Adobe Illustrator 25.2.1, SVG Export Plug-In . SVG Version: 6.00 Build 0)  -->
<svg version="1.1" id="Layer_1" xmlns:v="https://vecta.io/nano"
	 xmlns="http://www.w3.org/2000/svg" xmlns:xlink="http://www.w3.org/1999/xlink" x="0px" y="0px" viewBox="0 0 186 171"
	 style="enable-background:new 0 0 186 171;" xml:space="preserve">
<style type="text/css">
	.st0{fill:#FEC803;}
	.st1{fill:#373737;}
	.st2{opacity:0.4;fill:none;stroke:#565656;stroke-width:2.837;enable-background:new    ;}
</style>
<g>
	<path class="st0" d="M172.4,95c-1-7.8-6.2-14.9-13.3-18.2c-8.6-4-18.7-2.6-27.8-5.3c-11.8-3.5-20.4-13.3-30.9-19.8
		C88,44.1,73.2,41.4,58.8,38.8c-9.6-1.7-19.7-3.3-28.8,0.2c-12.3,4.9-19.5,20-15.5,32.6c6.8,21.4,37,27.1,46.2,47.6
		c4.8,10.6,3.2,24.1,10.7,32.9c9,10.5,25.5,8.7,38.9,5.5c10.2-2.5,20.3-5.3,30.4-8.2c8.2-2.3,16.8-4.8,22.8-10.8
		c7.5-7.4,4.4-13.1,4.3-21.7C167.9,109.5,173.5,103.3,172.4,95z"/>
</g>
<circle class="st1" cx="93" cy="83.3" r="43.5"/>
<circle class="st2" cx="93" cy="83.3" r="42.1"/>
<g>
	<path class="st0" d="M79.7,74.2c-6.3-0.1-12.7,0-19.1,0c-0.9,0-1.2,0.4-1.1,1.2c0.1,2.4,1.9,4.4,4.3,5h13.4v0.8H66
		c0,0.1,0.1,0.1,0.1,0.2c0.6,2.8,2.2,4.5,4.7,5.3h6.4v0.8h-4.6c0,0,0,0.1,0.1,0.1c0.8,2.9,3.1,4.6,6.2,4.7c5.4,0.2,9.9-3.6,10-8.9
		C89.2,78.7,84.9,74.3,79.7,74.2z"/>
	<path class="st0" d="M125.5,74.2c-6.3,0-12.7-0.1-19.1,0c-5.3,0.1-9.6,4.4-9.3,9.3c0.3,5.3,4.7,9.1,10,8.9c3.1-0.1,5.4-1.8,6.2-4.7
		c0,0,0-0.1,0.1-0.1h-4.6v-0.8h6.5c2.5-0.8,4-2.5,4.7-5.3c0-0.1,0.1-0.1,0.1-0.2H109v-0.8h13.3c2.5-0.7,4.2-2.8,4.3-5
		C126.6,74.6,126.3,74.2,125.5,74.2z"/>
</g>
</svg>
