<svg xmlns="http://www.w3.org/2000/svg" viewBox="0 0 184.65 56.71"><g data-name="Layer 2"><path fill="#fff" d="M63.39 28a10 10 0 0 1 9.67-10.4h.41c5.1 0 8.11 3 9 6.51l-3.17 1.06a5.58 5.58 0 0 0-5.83-4.38c-3.3 0-6.61 2.41-6.61 7.27s3.23 7.18 6.65 7.18a6 6 0 0 0 5.95-4.41l3.11 1a9 9 0 0 1-9.1 6.63 9.91 9.91 0 0 1-10.09-9.72c-.01-.24 0-.49.01-.74Zm25.35 10h-3.28V17.54h3.28v8a4.85 4.85 0 0 1 3.9-1.72c3.39 0 5 2.43 5 5.46V38h-3.16v-8.14a2.67 2.67 0 0 0-2.24-3 2.89 2.89 0 0 0-.59 0 2.86 2.86 0 0 0-2.86 2.86 2.09 2.09 0 0 0 0 .25ZM105 30.12l3.52-.55c.8-.1 1-.51 1-1 0-1.16-.78-2.09-2.6-2.09a2.62 2.62 0 0 0-2.82 2.37V29l-3-.67c.25-2.38 2.41-4.5 5.79-4.5 4.24 0 5.85 2.4 5.85 5.2v6.83a13.62 13.62 0 0 0 .17 2.21h-3a8 8 0 0 1-.13-1.76 4.78 4.78 0 0 1-4.24 2.17 4.32 4.32 0 0 1-4.66-3.94v-.2c-.05-2.53 1.76-3.89 4.12-4.22Zm4.54 2.21v-.63l-3.59.54a1.89 1.89 0 0 0-1.83 1.87A1.82 1.82 0 0 0 106 35.9h.15a3.12 3.12 0 0 0 3.43-2.8 3.22 3.22 0 0 0-.05-.77Zm8.78-15.07a2.14 2.14 0 0 1 2.17 2.12 2.14 2.14 0 1 1-2.17-2.14Zm-1.6 20.8V24.24H120V38Zm10.75-.06h-3.27V24.24h3.19v1.83a4.55 4.55 0 0 1 4.07-2.23c3.36 0 5 2.43 5 5.46V38h-3.27v-8.14c0-1.69-.77-3.06-2.83-3.06a2.9 2.9 0 0 0-2.88 2.92v.33Zm12.95 0V17.54h3.28V38Zm9.13-20.74a2.13 2.13 0 1 1-2.12 2.12 2.14 2.14 0 0 1 2.12-2.12Zm-1.61 20.8V24.24h3.25V38Zm10.77-.06h-3.28V24.24h3.19v1.83a4.56 4.56 0 0 1 4.07-2.23c3.36 0 5 2.43 5 5.46V38h-3.28v-8.14a2.67 2.67 0 0 0-2.24-3 3 3 0 0 0-.6 0 2.9 2.9 0 0 0-2.87 2.9 2 2 0 0 0 0 .35Zm20.17-7.95 5.77 8h-4l-4-5.67-1.69 1.78V38h-3.25V17.54h3.25V29.8l5.28-5.56h4.35ZM24.56 12l14.18 8.14V36.5L24.6 44.69l-14.17-8.12V20.22L24.56 12m0-12-5.2 3L5.2 11.22l-5.2 3v28.37l5.2 3 14.18 8.14 5.2 3 5.2-3 14.13-8.2 5.2-3V14.12l-5.2-3L29.74 3l-5.2-3Z" data-name="Layer 1"/></g></svg>