<svg xmlns="http://www.w3.org/2000/svg" xml:space="preserve" fill-rule="evenodd" stroke-linejoin="round" stroke-miterlimit="2" clip-rule="evenodd" viewBox="0 0 450 82"><path fill="#fff" fill-rule="nonzero" d="M145.505 44.967v-2.775c0-8.005 2.695-12.952 9.292-12.952 5.551 0 8.165 3.459 8.165 8.849h10.66v-1.891c0-9.291-6.074-16.773-19.107-16.773-14.158 0-20.313 9.533-20.313 22.726v2.776c0 13.113 6.155 22.726 20.313 22.726 13.033 0 19.107-7.28 19.107-16.049v-1.81h-10.66c0 4.505-2.413 8.005-8.165 8.005-6.637.04-9.292-4.908-9.292-12.832Zm55.147 22.767c14.4 0 20.836-9.654 20.836-22.727v-2.775c0-13.194-6.436-22.727-20.836-22.727-14.4 0-20.836 9.533-20.836 22.727v2.775c0 13.073 6.436 22.727 20.836 22.727Zm0-9.895c-6.596 0-9.533-4.948-9.533-12.832v-2.775c0-8.005 2.937-12.952 9.533-12.952 6.597 0 9.533 4.947 9.533 12.952v2.775c0 7.884-2.936 12.832-9.533 12.832Zm68.381 8.769V35.112c0-8.326-4.063-15.647-14.159-15.647-7.28 0-12.067 3.057-14.923 7.2l-1.046-6.074h-9.975l.764 13.033v32.984h11.303V34.589c1.287-2.172 4.264-5.309 9.533-5.309 5.108 0 7.28 3.218 7.28 7.642v29.686h11.223Zm48.912 0V35.112c0-8.326-4.063-15.647-14.159-15.647-7.28 0-12.067 3.057-14.923 7.2l-1.046-6.074h-9.975l.764 13.033v32.984h11.303V34.589c1.287-2.172 4.264-5.309 9.533-5.309 5.108 0 7.281 3.218 7.281 7.642v29.686h11.222ZM367.3 47.743v-5.31c0-13.113-6.436-23.008-20.595-23.008-14.239 0-21.077 9.895-21.077 23.008v2.253c0 13.113 6.677 23.008 21.52 23.008 13.193 0 20.152-7.281 20.152-15.527v-.362h-10.66c0 3.459-3.218 7.12-9.372 7.12-6.436 0-9.895-3.661-10.337-11.182H367.3Zm-20.836-19.509c6.154 0 9.131 3.902 9.452 11.182H336.89c.483-7.28 3.5-11.182 9.574-11.182Zm25.703-7.643 12.509 22.486-12.509 23.531h12.831l8.689-17.699 8.768 17.699h12.832l-12.51-23.531 12.51-22.486h-13.113l-8.407 16.573-8.487-16.573h-13.113Zm65.122 0V7.559h-11.303v13.032H406.88v9.896h19.106v21.077c0 11.906 6.597 16.13 16.05 16.13 4.062 0 6.435-.765 7.119-1.127v-9.372c-.523.242-2.775.604-4.424.604-4.707 0-7.482-1.288-7.482-7.482V30.446H450v-9.855h-12.711ZM52.186 20.27 34.608 2.692l.081-.081c-2.615-2.614-6.356-4.062-9.976-.442-3.178 3.178-2.132 6.677-.241 9.05L4.883 30.647c-8.085 8.246-4.908 16.653.724 22.284l16.21 16.251c1.448 1.448 7.079 7.361 11.584 2.735 2.615-2.614 2.012-6.637.564-8.246L15.301 45.168c-3.339-3.338-1.73-6.355 1.609-9.533l15.888-15.928 9.976 9.975c3.459 3.459 7.803 4.787 11.423 1.167 3.62-3.621 1.448-7.08-2.011-10.579Zm42.838 7.682-16.21-16.049c-1.448-1.448-7.079-7.361-11.584-2.735-2.615 2.614-2.012 6.637-.563 8.246L85.33 35.917c3.339 3.338 1.73 6.355-1.609 9.533L67.793 61.378l-9.976-9.975c-3.459-3.459-7.803-4.787-11.423-1.167-3.62 3.621-1.448 7.08 2.011 10.579l17.578 17.578-.081.081c2.615 2.614 6.356 4.183 9.976.563 3.218-3.218 2.091-6.758.161-9.131l19.669-19.67c8.286-8.245 5.109-16.652-.684-22.284Z"/></svg>