<svg xmlns="http://www.w3.org/2000/svg" fill="none" viewBox="0 0 728 196"><path fill="#fff" d="M56.3409 1c-7.3045.03643-14.5305 1.51911-21.265 4.36363C28.3414 8.20814 22.2302 12.359 17.0912 17.5785c-5.1389 5.2194-9.20493 11.4056-11.96577 18.2051C2.36459 42.5832.96305 49.8629 1.00074 57.2072v18.5656H45.965V48.875c-.0005-1.2632.2465-2.5141.727-3.6813.4805-1.1672 1.185-2.2277 2.0734-3.121.8883-.8933 1.943-1.6016 3.1037-2.085 1.1608-.4833 2.4049-.7319 3.6613-.7317h1.621c1.2565-.0002 2.5007.2484 3.6616.7317 1.1608.4833 2.2156 1.1917 3.1041 2.085.8885.8933 1.5932 1.9538 2.0739 3.121.4807 1.1672.728 2.418.7278 3.6813v72.107c5.9048 0 11.7519-1.17 17.2073-3.441 5.4555-2.272 10.4124-5.602 14.5878-9.8 4.1751-4.198 7.4871-9.182 9.7471-14.6671 2.259-5.4851 3.422-11.3642 3.422-17.3011V57.2072c.032-14.8804-5.796-29.1686-16.21-39.7418-5.11-5.2175-11.2016-9.3604-17.92-12.18724C70.8347 2.45132 63.6239.996939 56.3409 1Z"/><path fill="#fff" d="M57.1536 157.489h-1.621c-1.2562.001-2.5002-.248-3.6608-.731-1.1607-.484-2.2153-1.192-3.1036-2.085-.8883-.893-1.5928-1.953-2.0734-3.12-.4806-1.167-.7279-2.418-.7277-3.681V75.7656c-5.9049-.0005-11.7521 1.1684-17.2077 3.4401-5.4555 2.2718-10.4124 5.6018-14.5879 9.7999-4.17538 4.1981-7.4875 9.1821-9.74698 14.6674-2.25949 5.485-3.42213 11.364-3.42162 17.301v18.307c-.074908 7.355 1.30121 14.652 4.04877 21.469 2.74756 6.817 6.81203 13.018 11.95833 18.246 5.1464 5.228 11.2724 9.377 18.0239 12.21 6.7516 2.832 13.9946 4.29 21.3101 4.29 7.3156 0 14.5586-1.458 21.3101-4.29 6.7515-2.833 12.8776-6.982 18.0239-12.21 5.146-5.228 9.211-11.429 11.958-18.246 2.748-6.817 4.124-14.114 4.049-21.469v-18.307H66.7209v26.898c0 1.263-.2475 2.514-.7283 3.681-.4808 1.167-1.1856 2.227-2.074 3.12-.8885.893-1.9432 1.601-3.104 2.085-1.1607.483-2.4047.732-3.661.731ZM188.549 58.0547H172.79v80.3823h46.254v-15.155h-30.493l-.002-65.2273Zm80.974 29.7361c-2.223-2.7774-5.069-4.9853-8.306-6.4424-3.236-1.4571-6.769-2.122-10.311-1.9401-3.7-.0293-7.363.74-10.742 2.2559-3.379 1.5158-6.395 3.7431-8.845 6.5312-5.259 5.9254-8.166 13.5896-8.166 21.5316s2.907 15.606 8.166 21.531c2.451 2.787 5.467 5.014 8.846 6.529 3.379 1.515 7.042 2.284 10.741 2.255 7.996 0 14.201-2.794 18.617-8.383v6.776h14.734V81.0203h-14.734v6.7705Zm-4.509 33.5902c-1.486 1.495-3.262 2.669-5.216 3.449-1.954.78-4.047 1.149-6.148 1.086-2.094.067-4.18-.3-6.125-1.081-1.946-.78-3.711-1.956-5.184-3.454-2.868-3.198-4.455-7.351-4.455-11.657s1.587-8.459 4.455-11.6566c1.474-1.4967 3.239-2.6719 5.184-3.452 1.946-.78 4.031-1.1481 6.125-1.0816 2.101-.0627 4.193.3073 6.147 1.0869 1.955.7796 3.73 1.9524 5.217 3.4467 2.9 3.1816 4.509 7.3406 4.509 11.6566 0 4.316-1.609 8.475-4.509 11.657Zm57.205-1.771-14.894-38.5905h-16.104L314.627 136.6c-.979 3.317-2.906 6.271-5.54 8.497-2.768 1.888-6.089 2.779-9.424 2.528v13.782c6.502.605 13.004-1.171 18.309-5 4.9-3.719 8.836-9.677 11.809-17.874L350.6 81.0233h-15.761l-12.62 38.5867Zm60.265-40.1974c-4.017-.142-8.019.5552-11.754 2.0479-3.734 1.4927-7.121 3.7485-9.944 6.6242-5.452 5.8927-8.473 13.6483-8.452 21.6963.02 8.048 3.082 15.787 8.564 21.651 5.712 5.74 13.288 8.611 22.729 8.612 10.961 0 19.261-4.095 24.897-12.284l-11.877-6.893c-1.51 1.928-3.463 3.457-5.692 4.457-2.228 1-4.664 1.441-7.1 1.285-8.757 0-14.126-3.597-16.105-10.792h43.059c.368-2.009.559-4.047.57-6.09.219-7.997-2.716-15.7568-8.165-21.5877-2.638-2.8541-5.853-5.1093-9.428-6.6142-3.575-1.505-7.428-2.2251-11.302-2.1125Zm-14.961 24.9194c.652-3.374 2.473-6.4055 5.138-8.557 2.835-2.1068 6.299-3.1801 9.821-3.0422 3.219-.0422 6.366.9658 8.968 2.8727 2.767 2.1425 4.624 5.2605 5.195 8.7245l-29.122.002Zm68.868-13.4337v-9.8782h-14.734v57.4169h14.734v-27.444c0-5.512 1.77-9.455 5.31-11.829 3.544-2.374 7.834-3.3548 12.051-2.7559V79.8767c-3.704-.0473-7.352.9043-10.566 2.7559-3.173 1.8515-5.584 4.7833-6.795 8.2657Zm89.196-20.4118V58.0547h-52.406v15.1587h32.437l-33.281 52.5636v12.658h53.886V123.28h-33.921l33.285-52.7935Zm35.418 8.9261c-4.017-.142-8.02.5552-11.755 2.0479-3.735 1.4927-7.121 3.7484-9.945 6.6243-5.453 5.8924-8.475 13.6482-8.453 21.6962.021 8.049 3.083 15.788 8.567 21.651 5.711 5.74 13.287 8.611 22.727 8.612 10.961 0 19.261-4.095 24.899-12.284l-11.879-6.893c-1.51 1.927-3.463 3.457-5.691 4.457-2.228 1-4.664 1.441-7.099 1.285-8.759 0-14.127-3.597-16.104-10.792h43.059c.366-2.009.557-4.047.569-6.09.218-7.997-2.717-15.7568-8.165-21.5876-2.639-2.8543-5.853-5.1094-9.428-6.6143-3.575-1.505-7.428-2.2252-11.302-2.1125Zm-14.961 24.9194c.652-3.374 2.473-6.4061 5.14-8.557 2.834-2.1075 6.298-3.1809 9.821-3.0422 3.219-.0432 6.366.9649 8.967 2.8727 2.768 2.1422 4.624 5.2605 5.194 8.7245l-29.122.002Zm68.871-13.4338V81.02h-14.734v57.417h14.734v-27.444c0-5.512 1.77-9.455 5.31-11.829 3.544-2.3739 7.833-3.3547 12.049-2.7559V79.8766c-3.703-.0468-7.35.9048-10.563 2.7559-3.174 1.8513-5.585 4.7832-6.796 8.2657Zm50.934-11.4842c-6.913.0766-13.586 2.5567-18.887 7.0188-5.301 4.4621-8.902 10.6314-10.193 17.4602-1.29 6.829-.19 13.896 3.114 20.002 3.303 6.106 8.607 10.873 15.011 13.494 6.403 2.62 13.511 2.932 20.116.881 6.606-2.05 12.302-6.336 16.122-12.13 3.819-5.794 5.527-12.738 4.832-19.654-.695-6.9153-3.749-13.3762-8.644-18.285-2.789-2.8651-6.134-5.1236-9.828-6.6351-3.693-1.5116-7.656-2.2439-11.643-2.1519Zm11.078 41.685c-1.445 1.466-3.173 2.62-5.078 3.389-1.906.769-3.947 1.138-6 1.084-2.045.058-4.08-.309-5.978-1.079-1.897-.77-3.616-1.925-5.048-3.394-2.828-3.104-4.396-7.16-4.396-11.369 0-4.21 1.568-8.266 4.396-11.3692 1.432-1.4689 3.151-2.6243 5.049-3.394 1.897-.7698 3.932-1.1375 5.977-1.0793 2.053-.0541 4.094.3152 5.999 1.0845 1.906.7693 3.634 1.9224 5.079 3.3888 2.863 3.0862 4.456 7.1482 4.456 11.3692 0 4.22-1.593 8.283-4.456 11.369ZM727 120.75h-17.932v17.685H727V120.75Z"/></svg>