<svg xmlns="http://www.w3.org/2000/svg" fill="none" viewBox="0 0 150 21"><path fill="#F8F8F8" d="M7.57408 20.1975c-2.22547 0-4.04886-.5236-5.47017-1.5709C.701303 17.5606 0 16.0458 0 14.0822c0-.4115.0467535-.9164.140261-1.5148.243118-1.3465.589094-2.96422 1.037929-4.85306C2.44989 2.57145 5.73199 0 11.0245 0c1.44 0 2.7304.243119 3.8712.729356 1.1408.467534 2.0384 1.178194 2.693 2.131964.6545.93507.9818 2.05716.9818 3.36626 0 .39273-.0467.88831-.1402 1.48676-.2806 1.66443-.6172 3.28206-1.0099 4.85306-.6546 2.5621-1.786 4.479-3.3943 5.7506-1.6084 1.253-3.759 1.8795-6.45202 1.8795Zm.39273-4.0395c1.04728 0 1.93559-.3085 2.66499-.9257.748-.6171 1.281-1.5616 1.5989-2.8333.4302-1.7579.7574-3.29141.9819-4.6005.0748-.39273.1122-.79482.1122-1.20625 0-1.70183-.8884-2.55274-2.665-2.55274-1.04727 0-1.94494.30857-2.69299.92572-.72936.61715-1.253 1.56157-1.57092 2.83327-.33663 1.25299-.67325 2.7865-1.00988 4.6005-.07481.3741-.11221.7668-.11221 1.1782 0 1.7206.89767 2.5808 2.69301 2.5808ZM21.417 19.917c-.2058 0-.3647-.0654-.4769-.1963-.0935-.1497-.1216-.318-.0842-.505L24.7271.981825c.0374-.205716.1403-.374028.3086-.504938.1683-.13091.346-.196366.533-.196366h7.4618c2.0759 0 3.7403.430133 4.9933 1.290399 1.2717.86027 1.9076 2.10391 1.9076 3.73093 0 .46754-.0561.95378-.1683 1.45872-.4676 2.15066-1.412 3.74033-2.8333 4.76883-1.4026 1.0286-3.3289 1.5429-5.7788 1.5429h-3.787l-1.2904 6.1434c-.0374.2057-.1402.374-.3086.505-.1683.1309-.3459.1963-.533.1963h-3.815Zm9.9304-10.7159c.7855 0 1.4681-.21507 2.0478-.6452.5985-.43013.9912-1.04728 1.1782-1.85144.0561-.31792.0842-.59844.0842-.84156 0-.54234-.159-.95378-.4769-1.2343-.3179-.29922-.8603-.44883-1.627-.44883h-3.3663l-1.066 5.02133h3.226ZM46.2519 19.917c-.2057 0-.3647-.0654-.4769-.1963-.1122-.1497-.1496-.318-.1122-.505l3.1138-14.53099h-4.9933c-.2057 0-.3647-.06546-.4769-.19637-.0935-.14961-.1215-.31792-.0841-.50494l.6452-3.001575c.0374-.205716.1402-.374028.3085-.504938.1683-.13091.346-.196366.533-.196366h15.0921c.2057 0 .3646.065456.4769.196366.0748.112208.1122.224416.1122.336625 0 .056104-.0094.112209-.0281.168313L59.7169 3.9834c-.0374.20572-.1402.37403-.3086.50494-.1496.13091-.3272.19637-.5329.19637h-4.9653L50.7963 19.2157c-.0374.2057-.1402.374-.3085.505-.1684.1309-.346.1963-.533.1963h-3.7029Zm14.8538 0c-.2057 0-.3646-.0654-.4768-.1963-.1123-.1497-.1497-.318-.1123-.505L64.4159.981825c.0374-.205716.1403-.374028.3086-.504938.1683-.13091.3459-.196366.533-.196366h3.787c.2057 0 .3647.065456.4769.196366.0748.112208.1122.224416.1122.336625 0 .056104-.0094.112209-.0281.168313L65.7343 19.2157c-.0374.2057-.1402.374-.3085.505-.1683.1309-.346.1963-.533.1963h-3.7871Zm10.6816 0c-.2057 0-.3647-.0654-.4769-.1963-.1122-.131-.1496-.2993-.1122-.505L75.0694.981825c.0374-.205716.1402-.374028.3085-.504938.1684-.13091.3554-.196366.5611-.196366h3.0296c.4489 0 .7387.205716.8696.617148l3.0577 8.836421L89.7126.897669c.0935-.149612.2244-.289872.3927-.420782.187-.13091.4114-.196366.6733-.196366h3.0577c.2057 0 .3646.065456.4768.196366.0748.112208.1123.224416.1123.336625 0 .056104-.0094.112209-.0281.168313L90.5261 19.2157c-.0374.2057-.1403.374-.3086.505-.1683.1309-.3459.1963-.533.1963h-3.3943c-.2057 0-.3646-.0654-.4769-.1963-.0935-.1497-.1215-.318-.0841-.505l2.1881-10.35122-4.292 5.69462c-.187.2057-.3647.3646-.533.4768-.1683.1123-.3647.1684-.5891.1684h-1.4587c-.3927 0-.6639-.2151-.8135-.6452l-1.9917-5.94709-2.2442 10.60369c-.0374.2057-.1403.374-.3086.505-.1683.1309-.346.1963-.533.1963h-3.3662Zm24.7611 0c-.2058 0-.3647-.0654-.4769-.1963-.1122-.1497-.1496-.318-.1122-.505L99.8585.981825c.0374-.205716.1403-.374028.3085-.504938.168-.13091.346-.196366.533-.196366h3.787c.206 0 .365.065456.477.196366.075.112208.112.224416.112.336625 0 .056104-.009.112209-.028.168313L101.177 19.2157c-.037.2057-.14.374-.309.505-.168.1309-.346.1963-.533.1963h-3.7866Zm17.6106.2805c-1.646 0-3.058-.2244-4.236-.6732-1.16-.4488-2.039-1.0473-2.637-1.7953-.58-.7481-.87-1.5803-.87-2.4967 0-.1496.019-.374.056-.6732.038-.1684.113-.3086.225-.4208.131-.1122.28-.1683.449-.1683h3.59c.225 0 .393.0374.505.1122.131.0748.262.2057.393.3927.131.4862.43.8883.898 1.2062.486.318 1.15.4769 1.991.4769 1.066 0 1.927-.1683 2.581-.5049.655-.3366 1.048-.7948 1.178-1.3746.019-.0748.028-.187.028-.3366 0-.4675-.289-.8322-.869-1.094-.58-.2805-1.646-.6078-3.198-.9818-1.814-.3928-3.189-.9819-4.124-1.7673-.935-.80419-1.402-1.85147-1.402-3.14187 0-.44883.056-.90702.168-1.37455.374-1.73924 1.3-3.10444 2.777-4.09562C113.158.495588 115.084 0 117.441 0c1.421 0 2.684.252469 3.787.757408 1.103.504942 1.954 1.150142 2.553 1.935602.617.76675.925 1.53351.925 2.30027 0 .22442-.009.38338-.028.47689-.037.16831-.121.30857-.252.42078-.112.11221-.253.16831-.421.16831h-3.759c-.411 0-.692-.15896-.841-.47688-.019-.43014-.244-.79481-.674-1.09404-.43-.29922-.991-.44883-1.683-.44883-.823 0-1.505.14961-2.048.44883-.523.29923-.851.73871-.981 1.31845-.019.09351-.029.21507-.029.36468 0 .44883.262.82286.786 1.12209.542.28052 1.487.57039 2.833.86961 2.095.41143 3.619 1.00053 4.573 1.76729.972.76674 1.458 1.78594 1.458 3.05764 0 .4302-.056.8977-.168 1.4026-.411 1.9076-1.412 3.357-3.002 4.3481-1.57.9725-3.674 1.4587-6.311 1.4587Zm13.203-.2805c-.206 0-.365-.0654-.477-.1963-.112-.131-.15-.2993-.112-.505L130.644.981825c.037-.205716.14-.374028.309-.504938.168-.13091.355-.196366.561-.196366h3.029c.449 0 .739.205716.87.617148l3.058 8.836421 6.816-8.836421c.094-.149612.225-.289872.393-.420782.187-.13091.411-.196366.673-.196366h3.058c.206 0 .365.065456.477.196366.075.112208.112.224416.112.336625 0 .056104-.009.112209-.028.168313L146.101 19.2157c-.038.2057-.141.374-.309.505-.168.1309-.346.1963-.533.1963h-3.394c-.206 0-.365-.0654-.477-.1963-.094-.1497-.122-.318-.084-.505l2.188-10.35122-4.292 5.69462c-.187.2057-.365.3646-.533.4768-.168.1123-.365.1684-.589.1684h-1.459c-.393 0-.664-.2151-.813-.6452l-1.992-5.94709-2.244 10.60369c-.038.2057-.141.374-.309.505-.168.1309-.346.1963-.533.1963h-3.366Z"/></svg>