<svg xmlns="http://www.w3.org/2000/svg" viewBox="0 0 172.03 166.11"><defs><style>.cls-1{fill:#a2868d;}.cls-2{fill:#d66e41;}.cls-3{fill:#c6866c;}.cls-4{fill:#ada79c;}.cls-5{fill:#6e4a47;}.cls-6{fill:#e25223;}.cls-7{fill:#c46c5c;}.cls-8{fill:#9b1c13;}.cls-9{fill:#da3719;}.cls-10{fill:#3c3123;}.cls-11{fill:#d43d28;}.cls-12{fill:#d41c16;}.cls-13{fill:#2b6def;}.cls-14{fill:#2891f9;}.cls-15{fill:#2bbdf7;}.cls-16{fill:#fff;fill-rule:evenodd;}</style></defs><g id="Layer_2" data-name="Layer 2"><g id="Layer_1-2" data-name="Layer 1"><path class="cls-1" d="M55,66.88l9.29-6.81-.07,0,2.17-1h1.8l-1,8-.09.08-.87.66-2.06.15Z"/><path class="cls-2" d="M66.26,30.26,70.33,28l5,9-4.26-2.8L68.15,36l-2.92-2C65.57,32.74,65.92,31.5,66.26,30.26Z"/><path class="cls-3" d="M67.23,67c.32-2.67.65-5.33,1-8,0-.36,0-.71,0-1.06l2-3c2.24,1.2,4.69,2.24,4,5.56Z"/><path class="cls-4" d="M66.27,67.77l.87-.66Z"/><path class="cls-5" d="M55.25,74l1.11.27c-.34.4-.69.8-1,1.21C55.3,75,55.28,74.46,55.25,74Z"/><path class="cls-6" d="M75.93,55a3.15,3.15,0,0,1-.27-.63c0-.07.16-.19.24-.28A.92.92,0,0,1,75.93,55Z"/><path class="cls-7" d="M58.38,51.15,59.21,50c-.05.4-.1.8-.16,1.2A5,5,0,0,1,58.38,51.15Z"/><path class="cls-8" d="M30.61,49.87c.14-.89.27-1.77.41-2.66.39-.43.78-.86,1.18-1.28l.49.06.49,0a3.12,3.12,0,0,1,.17.95l.84,3.44,3-1.28,2,.78.14,5.31c-.08.63-.16,1.25-.25,1.87l-7.76-6.3Z"/><path class="cls-9" d="M33.18,46l-.49,0-.49-.06-4-3L34.33,42,36.2,44Z"/><path class="cls-10" d="M54.51,44.1c.27-.57.53-1.14.8-1.7l1.56.15s.06.24.06.23c.88,1.69,4.57,3.24.26,5.2h0l-2.93-1.92-.14-.12Z"/><path class="cls-10" d="M57.19,48l-4.62,2.27,1.54-4.31.14.12L57.18,48Z"/><path class="cls-10" d="M38.1,45.07a5.08,5.08,0,0,1,.15,1l0,0L35.29,48h0l-1.93-1.06a3.12,3.12,0,0,0-.17-.95l3-2Z"/><path class="cls-11" d="M31.31,50.73l-1.07.2c.12-.35.24-.7.37-1.06Z"/><path class="cls-12" d="M33.35,46.91,35.28,48l1.92,1.1-3,1.28Z"/><path class="cls-10" d="M37.2,49.07,35.28,48h0l2.93-1.92,0,0,.93,3.83Z"/><path class="cls-5" d="M57.18,48l-2.93-1.92Z"/><path class="cls-13" d="M76,82.06l15.91-12,47.65,35.81V106c-1.25.83-2.43,1.81-3.65,2.7l-12.22,9.17h-.1L78,83.61c-.68-.48-1.32-1-2-1.46Zm63.86,0,15.9-11.94,15.89,11.94,0,.08L155.78,94l-12.25-9.2c-1.21-.94-2.46-1.77-3.64-2.78Z"/><path class="cls-14" d="M140.54,105.92V82.29c1.13,1,2.34,1.76,3.49,2.67l11.76,8.83v67.74c0,1.42,0,2.84,0,4.26l-16.19-12.16.95-23.75L139.59,106l.95-.07ZM76.64,81.75c.68.43,1.31,1,2,1.45l44.5,34.11.3.15c-.07.69,0,1.39,0,2.08V141.4l-15.69-11.93c-.8-.71-1.67-1.28-2.5-1.93l-12.67-9.62a5,5,0,0,0-.57-.37,5.46,5.46,0,0,0,0,.57v41.13c0,2-.05,4,0,6l0,.08h.28a.24.24,0,0,1,0-.09L76.63,153.34Z"/><path class="cls-15" d="M155.8,93.63,172,81.72v71.62l-16.17,11.92,0,.09h-.06l0,.32a6.45,6.45,0,0,0-.91-4.17l1-67.47Zm-19.94,14.76c1.25-.9,2.46-1.9,3.73-2.75V130l-12.2,9.16-4,3V119.87a18.71,18.71,0,0,1,0-2.12l12.44-9.36Zm-43.93,9.12a5.48,5.48,0,0,1,.6.38l13,9.79c.85.67,1.74,1.25,2.56,2V154L92,166.11c-.11-2,0-4.09,0-6.13V118.1c0-.2,0-.4,0-.59Z"/><circle class="cls-14" cx="50" cy="50" r="50"/><path class="cls-16" d="M46.33,70.46v.75l-4.43-.07s4.48,7.39,8.1,13.22l8.16-13.15H53.67V46.68c6.33,5.4,18.58,17,18.58,25.86a22.25,22.25,0,1,1-44.5,0c0-5.8,5.27-12.8,10.69-18.45,7.11,4,7.83,13.62,7.89,16.37Z"/><path class="cls-16" d="M53.67,29.54v-.75l4.43.07S53.62,21.47,50,15.64L41.84,28.79h4.49V53.32c-6.33-5.4-18.58-17-18.58-25.86a22.25,22.25,0,1,1,44.5,0c0,5.8-5.27,12.8-10.69,18.45-7.11-4-7.83-13.62-7.89-16.37Z"/><path class="cls-16" d="M52,31.59l-2-2.8-2,2.8V53.38h4Z"/><path class="cls-16" d="M52,68.41l-2,2.8-2-2.8V44h4Z"/></g></g></svg>