<svg width="612" height="387" viewBox="0 0 612 387" fill="none" xmlns="http://www.w3.org/2000/svg">
<g clip-path="url(#clip0_3198_4739)">
<path d="M453.184 222.002C454.988 224.686 456.995 227.253 458.564 230.072C465.515 242.531 465.336 255.027 458.275 267.394C454.218 274.517 448.524 280.198 442.054 285.135C431.059 293.519 418.66 299.177 405.597 303.412C391.434 307.912 376.798 310.763 361.981 311.907C348.637 313.034 335.219 312.977 321.886 311.734C304.796 310.128 288.107 306.65 272.101 300.34C271.198 299.909 270.199 299.719 269.2 299.787C268.202 299.855 267.237 300.179 266.401 300.728C221.625 326.582 176.845 352.406 132.061 378.198C126.657 381.43 120.706 383.645 114.504 384.736C106.612 386.078 98.7198 386.903 90.7353 385.671C80.4114 384.083 71.8729 379.719 66.6586 370.159C66.0594 369.254 65.3502 368.427 64.5471 367.697C63.0193 366.162 61.8157 364.335 61.0078 362.326C60.1998 360.317 59.804 358.166 59.8438 356.001C59.9176 347.93 60.0531 339.86 59.8438 331.796C59.6098 323.984 63.1127 318.481 69.5028 314.523C73.0918 312.301 76.7731 310.245 80.4176 308.121C105.338 293.655 130.266 279.181 155.202 264.698C164.787 259.158 174.397 253.618 183.958 247.991C185.644 247.006 186.968 246.822 188.772 247.936C193.518 250.866 198.431 253.525 203.374 256.345L220.106 247.308C216.621 242.227 214.099 236.55 212.664 230.558C212.018 227.801 211.642 224.986 211.543 222.156C211.371 216.258 211.426 210.349 211.543 204.452C211.65 202.294 211.882 200.144 212.239 198.013C212.396 197.563 212.634 197.146 212.941 196.782C213.556 199.447 213.987 202.162 214.788 204.784C218.377 216.4 225.93 225.197 235.164 232.67C246.307 241.682 259.05 247.745 272.544 252.294C289.394 257.976 306.803 260.74 324.508 261.559C334.621 262.055 344.758 261.744 354.821 260.629C363.202 259.719 371.517 258.28 379.717 256.32C396.461 252.233 412.239 245.923 426.374 235.865C433.564 230.755 439.844 224.747 444.762 217.397C445.299 216.726 445.899 216.108 446.554 215.55L448.314 216.843C446.03 220.13 444.35 223.473 441.826 225.954C438.286 229.432 434.845 233.051 430.782 236.025C423.74 241.214 416.184 245.665 408.232 249.309C393.771 255.774 378.456 260.127 362.756 262.236C359.174 262.741 355.585 263.171 351.891 263.652V288.964C353.418 288.853 354.778 288.804 356.126 288.644C366.19 287.501 376.146 285.552 385.897 282.815C399.964 278.776 413.372 273.224 425.297 264.674C439.77 254.319 451.029 241.774 452.242 222.814C452.297 222.55 452.87 222.285 453.184 222.002ZM161.063 264.52L137.805 278.062C116.053 290.698 94.3017 303.334 72.55 315.97C69.7182 317.613 67.1019 319.497 65.1627 322.187C61.9369 326.662 61.9553 331.421 65.2119 335.847C67.1895 338.427 69.7119 340.539 72.5993 342.033C77.6342 344.752 83.1661 346.427 88.8638 346.958C99.8894 348.121 110.373 346.638 120.143 340.931C148.051 324.618 176.014 308.369 204.033 292.184C204.858 291.71 205.633 291.156 206.741 290.435L161.063 264.52ZM114.19 347.112V372.184C124.945 365.979 135.38 360.143 145.586 353.846C155.793 347.549 166.376 341.99 176.755 335.994C187.134 329.999 197.624 323.867 207.917 317.884V293.119C207.222 293.507 206.809 293.735 206.397 293.969C197.651 299.041 188.907 304.118 180.165 309.198L137.688 333.883C135.73 335.022 133.754 336.117 131.797 337.25C129.95 338.333 128.103 339.46 126.213 340.543C124.323 341.627 121.972 342.458 120.396 343.972C118.659 345.653 116.326 345.554 114.547 346.816C114.423 346.908 114.303 347.006 114.19 347.112V347.112ZM231.772 276.025L186.445 249.783L171.171 258.665L216.985 284.6L231.772 276.025ZM206.107 258.031C212.381 261.663 218.13 265.043 223.96 268.287C224.355 268.422 224.773 268.471 225.188 268.432C225.603 268.392 226.005 268.265 226.367 268.059C231.846 264.981 237.282 261.823 242.699 258.647C245.162 257.188 245.359 256.64 244.423 253.864C244.14 253.034 243.746 252.245 243.254 251.519C240.594 247.597 236.482 246.446 232.129 245.695C230.475 245.405 228.77 245.713 227.321 246.563C223.197 248.847 218.998 251.002 214.843 253.236C212.048 254.72 209.309 256.246 206.077 258.031H206.107ZM232.985 278.53C228.46 281.153 224.57 283.504 220.574 285.671C219.912 285.96 219.359 286.454 218.998 287.08C218.637 287.705 218.486 288.431 218.567 289.149C218.66 295.736 218.598 302.322 218.617 308.909C218.669 309.709 218.764 310.507 218.9 311.297C219.712 310.953 220.254 310.762 220.747 310.509C224.582 308.62 227.839 305.757 231.791 304.07C232.887 303.603 232.973 302.636 232.967 301.608C232.967 298.758 232.967 295.902 232.967 293.052L232.985 278.53ZM163.525 263.091L209.358 289.038L214.492 286.016L168.721 260.1L163.525 263.091ZM348.019 263.886L339.468 264.329V289.937L348.019 289.321V263.886ZM210.54 316.345C211.5 315.766 212.49 315.24 213.507 314.769C215.489 314.03 215.926 312.639 215.89 310.62C215.76 304.132 215.853 297.644 215.84 291.156C215.84 290.435 215.693 289.709 215.612 288.933C210.823 290.669 210.546 291.045 210.54 295.409V316.339V316.345ZM325.112 264.397V289.734H329.729V264.397H325.112ZM111.598 348.115C107.098 348.318 107.006 348.41 106.994 352.578C106.994 358.865 106.983 365.15 106.963 371.433C106.963 372.276 107.061 373.12 107.123 374.209L111.598 372.978V348.115ZM101.133 350.042C97.3223 349.426 97.1438 349.58 97.1376 352.849C97.1376 359.44 97.1376 366.032 97.1376 372.627C97.1376 373.483 97.2361 374.345 97.2854 375.157C100.918 375.773 101.108 375.545 101.034 372.393C100.948 368.805 101.102 365.21 101.121 361.615C101.084 357.804 101.071 354 101.071 350.036L101.133 350.042Z" fill="#232323"/>
<path d="M356.779 125.356C362.738 117.834 368.705 110.318 374.681 102.808C375.411 101.907 376.295 101.142 377.291 100.548C381.994 97.7352 386.759 95.0081 391.789 92.0842C395.23 94.0171 398.801 96.0238 402.365 98.0368C405.776 99.9635 409.137 101.97 412.603 103.805C414.191 104.648 414.77 105.719 414.733 107.498C414.53 118.289 414.431 129.086 414.308 139.878C414.308 140.856 414.351 141.841 414.376 142.82C414.339 148.914 414.345 155.008 414.222 161.103C414.212 161.825 414.348 162.542 414.622 163.211C414.896 163.879 415.302 164.485 415.816 164.993C418.328 167.874 420.944 170.736 422.964 173.95C428.301 182.445 430.215 191.654 427.636 201.54C425.789 208.748 421.899 214.855 416.838 220.223C410.978 226.446 403.997 231.18 396.424 235.046C377.956 244.483 358.115 248.225 337.609 249.05C332.819 249.247 327.999 248.81 323.191 248.687C313.526 248.428 304.07 246.76 294.725 244.452C281.539 241.195 269.165 236.068 258.041 228.17C251.072 223.245 245.057 217.317 241.044 209.702C237.03 202.088 235.398 194.159 237.35 185.535C239.197 177.489 243.328 170.829 248.948 165.042C256.095 157.711 264.714 152.398 274.034 148.249C275.075 147.788 276.103 147.295 277.014 146.871L270.575 134.005C269.122 128.631 267.644 123.257 266.228 117.871C265.896 116.59 265.779 115.261 265.557 113.956L264.942 113.832C264.634 114.296 264.413 114.811 264.289 115.353C264.228 118.105 264.191 120.893 264.289 123.614C264.36 124.293 264.215 124.978 263.875 125.57C263.534 126.163 263.016 126.633 262.393 126.914C258.028 129.376 253.713 131.887 249.41 134.448C248.883 134.802 248.26 134.986 247.625 134.976C246.99 134.967 246.374 134.763 245.858 134.393C239.006 130.385 232.111 126.464 225.155 122.463V100.161C224.145 99.4957 223.203 98.8063 222.2 98.2276C211.925 92.2873 201.657 86.3285 191.333 80.4744C189.855 79.6372 189.24 78.7508 189.19 77.0395C189.061 72.8351 188.883 68.6122 188.341 64.4447C188.234 63.7339 188.29 63.0081 188.503 62.3217C188.716 61.6352 189.082 61.0058 189.572 60.4804C196.163 52.1701 202.742 43.864 209.309 35.5619C214.365 29.1763 219.431 22.8153 224.508 16.479C225.292 15.4811 226.242 14.6253 227.315 13.949C231.317 11.4805 235.442 9.23364 239.474 6.77133C241.056 5.81103 242.349 5.68792 244.06 6.70978C249.958 10.2186 255.923 13.6289 261.981 16.8668C264.006 17.9502 264.732 19.1937 264.708 21.4713C264.492 40.7389 264.4 60.0003 264.271 79.2678C264.223 80.2589 264.316 81.2517 264.548 82.2165C264.782 79.7049 265.04 77.1872 265.237 74.6695C265.668 69.0616 266.61 63.5891 269.196 58.5044C270.805 55.2275 273.384 52.5257 276.583 50.7666C280.892 48.3905 285.152 45.9651 289.302 43.3797C294.645 40.0002 300.204 39.9017 305.96 41.8715C312.735 44.2556 318.957 47.9872 324.25 52.8411C336.476 63.7984 342.878 77.8212 345.747 93.7216C347.255 102.087 346.911 110.533 346.978 118.96C346.978 120.807 347.028 122.697 347.052 124.562C347.009 126.606 346.861 128.656 346.96 130.718C347.058 132.78 346.424 134.873 347.372 137.311L356.779 125.356ZM328.676 160.801C331.237 159.361 333.823 157.957 336.347 156.461C338.249 155.341 339.142 153.543 338.452 151.45C337.837 149.517 338.643 148.262 339.683 146.932C340.354 146.089 340.915 145.153 341.678 144.377C342.735 143.345 343.362 141.951 343.432 140.475C343.66 136.861 344.35 133.26 344.362 129.653C344.393 118.856 344.83 108.046 343.414 97.2796C342.023 86.6979 338.785 76.7809 333.127 67.7319C326.946 57.8642 318.549 50.2742 307.807 45.5527C303.941 43.8537 299.841 42.4009 295.544 43.7614C293.328 44.457 291.265 45.6881 289.185 46.7715C287.953 47.3871 286.808 48.2612 285.491 49.0984C288.335 49.9787 290.834 50.5327 293.155 51.5053C303.768 55.9559 312.196 63.1213 318.759 72.5273C328.03 85.8114 331.508 100.844 331.976 116.738C332.185 123.817 332.13 130.896 331.976 137.988C331.888 142.11 331.537 146.222 330.923 150.299C330.388 153.771 329.292 157.151 328.461 160.573L328.171 160.936L328.676 160.801ZM329.353 127.905H329.156C329.156 124.365 329.156 120.825 329.156 117.28C329.182 110 328.213 102.751 326.275 95.7345C325.496 92.8934 324.563 90.0966 323.48 87.3565C322.381 84.622 321.106 81.9613 319.664 79.391C316.947 74.2951 313.412 69.6804 309.198 65.7313C307.262 63.7983 305.206 61.9891 303.042 60.3142C299.229 57.3524 294.964 55.0244 290.41 53.4198C289.234 53.0073 287.701 53.4198 286.661 52.8534C283.94 51.3637 281.366 52.0162 278.83 53.0012C277.358 53.5315 276.016 54.3711 274.896 55.4635C273.413 56.9148 272.214 58.631 271.363 60.5235C270.131 63.6014 268.974 66.8332 268.611 70.0957C267.976 75.8458 267.664 81.6269 267.675 87.4119C267.675 95.7653 267.977 104.119 268.235 112.466C268.235 113.383 268.992 114.257 269.109 115.187C269.282 116.498 269.066 117.846 269.233 119.157C269.449 120.612 269.757 122.051 270.156 123.466C270.546 124.993 270.983 126.503 271.467 127.997C271.917 129.4 272.428 130.785 272.969 132.152C273.511 133.519 274.084 134.879 274.705 136.215C275.327 137.551 275.832 139.293 276.872 140.364C277.913 141.435 278.017 142.765 278.799 143.823C280.431 146.039 281.877 148.416 283.687 150.472C288.36 155.784 293.291 160.819 300.124 163.399C302.334 165.689 305.338 166.347 308.195 167.326C310.657 168.169 313.194 168.102 315.674 167.819C319.448 167.382 322.175 165.116 324.133 162.001C325.5 159.822 327.045 157.631 326.651 154.805C328.559 152.638 328.405 149.881 328.572 147.308C328.984 140.875 329.126 134.387 329.353 127.905ZM396.455 217.914V214.553C396.455 209.834 396.455 205.114 396.455 200.395C396.421 199.707 396.434 199.019 396.492 198.333C396.695 196.886 397.416 196.449 398.733 196.997C399.345 197.308 399.939 197.654 400.512 198.031C402.174 198.961 403.843 199.878 405.893 201.011C405.893 195.803 405.893 191.161 405.893 186.569C405.917 186.13 405.808 185.693 405.58 185.317C405.351 184.941 405.014 184.644 404.612 184.464C402.556 183.313 400.568 182.032 398.487 180.924C397.817 180.625 397.259 180.123 396.89 179.489C396.521 178.855 396.36 178.121 396.431 177.391C396.517 168.539 396.498 159.687 396.511 150.835C396.511 139.816 396.511 128.797 396.572 117.784C396.572 115.999 396.08 114.885 394.467 114.029C390.822 112.09 387.27 109.985 383.669 107.96C381.471 106.729 379.255 105.535 376.737 104.149C376.399 104.71 376.226 105.079 375.986 105.381C371.882 110.634 367.753 115.882 363.6 121.127C356.434 130.225 349.252 139.317 342.053 148.403C341.659 148.836 341.359 149.347 341.172 149.902C340.986 150.457 340.917 151.046 340.97 151.629C341.321 155.132 341.776 158.634 341.955 162.143C342.041 163.873 342.805 164.759 344.214 165.566C354.717 171.555 365.145 177.643 375.672 183.602C377.199 184.47 377.654 185.449 377.63 187.117C377.55 193.02 377.63 198.924 377.55 204.821C377.519 206.668 378.165 207.64 379.735 208.514C384.211 210.977 388.582 213.63 393.008 216.178C393.993 216.751 395.07 217.212 396.455 217.914ZM255.843 114.325C255.843 109.025 255.886 104.328 255.781 99.6434C255.781 99.0279 255.049 98.2953 254.47 97.9075C252.787 96.7128 251.005 95.6625 249.145 94.7681C247.015 93.8324 246.424 92.472 246.436 90.182C246.541 70.8037 246.467 51.4007 246.572 32.0469C246.572 29.5846 245.956 28.1134 243.672 26.9561C239.215 24.6662 234.931 22.0315 230.56 19.6061C229.396 18.9536 228.19 18.375 226.971 17.7594C225.321 19.76 223.862 21.4528 222.464 23.2503C212.356 36.0666 202.244 48.8563 192.127 61.6192C191.705 62.0875 191.384 62.6371 191.183 63.2342C190.982 63.8313 190.905 64.4632 190.957 65.0911C191.197 67.9228 191.314 70.7667 191.61 73.5922C192.059 77.7781 192.127 77.7474 196.036 79.9819C205.67 85.5221 215.274 91.0623 224.933 96.5533C226.841 97.6367 227.734 98.8555 227.654 101.195C227.451 106.895 227.654 112.607 227.549 118.308C227.47 119.033 227.621 119.765 227.98 120.4C228.339 121.035 228.888 121.541 229.55 121.847C234.53 124.617 239.4 127.535 244.374 130.367C245.034 130.654 245.718 130.883 246.418 131.05V127.812C246.418 122.888 246.418 117.963 246.418 113.038C246.539 111.876 246.744 110.724 247.034 109.591L255.843 114.325ZM244.719 211.094C247.298 209.395 249.478 207.88 251.737 206.495C265.009 198.333 279.439 193.131 294.565 189.585C309.906 186.024 325.602 184.213 341.352 184.187C342.503 184.187 343.814 184.187 344.774 183.688C349.01 181.411 353.135 178.942 357.592 176.381C352.667 173.55 348.031 170.872 343.365 168.249C342.755 167.94 342.079 167.784 341.395 167.794C335.596 167.757 329.795 167.757 323.991 167.794C323.313 167.794 322.646 167.973 322.058 168.311C317.398 171.247 312.43 171.223 307.284 170.029C306.439 169.838 305.562 169.838 304.717 170.029C298.794 171.414 292.798 172.577 286.999 174.338C274.982 178.031 263.809 183.491 254.218 191.814C249.278 195.95 245.247 201.064 242.379 206.834C243.131 208.219 243.875 209.573 244.719 211.094V211.094ZM399.299 176.621L411.679 169.419V108.206L399.299 115.396V176.621ZM249.274 90.0035C252.765 87.9906 255.911 86.0392 259.192 84.3464C261.076 83.3737 261.771 82.1857 261.765 80.0373C261.704 61.6685 261.765 43.2997 261.808 24.9309V21.5452L249.274 28.809V90.0035ZM379.317 102.457C384.321 105.294 389.043 107.578 393.309 110.515C396.763 112.891 399.527 112.798 402.759 110.367C404.988 108.686 407.555 107.455 410.085 105.953C409.685 105.504 409.537 105.239 409.309 105.11C403.941 102.032 398.561 98.954 393.192 95.8761C392.827 95.6364 392.399 95.5088 391.961 95.5088C391.524 95.5088 391.096 95.6364 390.73 95.8761C387.079 97.9999 383.417 100.093 379.317 102.457V102.457ZM229.821 15.6233C230.16 16.1589 230.227 16.3866 230.369 16.4667C235.749 19.5138 241.142 22.5301 246.51 25.5957C247.006 25.9086 247.585 26.0627 248.17 26.0374C248.755 26.0121 249.319 25.8086 249.785 25.4541C252.629 23.7059 255.547 22.093 258.404 20.3941C259.024 19.9741 259.62 19.5199 260.189 19.0336C254.267 15.6787 248.665 12.4654 243.007 9.34445C242.676 9.16695 242.311 9.06247 241.936 9.03805C241.561 9.01362 241.186 9.06982 240.834 9.20286C237.171 11.2404 233.57 13.4134 229.821 15.6233ZM408.386 201.041C412.597 198.579 416.389 196.431 420.169 194.171C420.392 194.004 420.577 193.79 420.711 193.545C420.845 193.299 420.924 193.028 420.944 192.749C421 187.979 420.975 183.208 420.975 177.976C416.826 180.395 413.021 182.58 409.278 184.839C409.048 184.998 408.854 185.204 408.709 185.444C408.565 185.684 408.473 185.952 408.441 186.23C408.361 190.983 408.386 195.753 408.386 201.041ZM399.152 200.34V217.988C403.184 215.655 406.927 213.531 410.614 211.309C410.875 211.117 411.093 210.873 411.254 210.592C411.415 210.311 411.516 210 411.55 209.678C411.655 207.376 411.593 205.067 411.593 202.408C410.95 202.663 410.332 202.976 409.746 203.344C407.943 204.802 406.28 204.636 404.427 203.313C402.723 202.224 400.96 201.232 399.145 200.34H399.152ZM249.102 113.672V131.42C253.147 129.068 256.883 126.938 260.565 124.716C260.831 124.532 261.056 124.293 261.225 124.017C261.393 123.74 261.502 123.431 261.544 123.109C261.654 120.795 261.593 118.474 261.593 115.821C260.775 116.134 259.992 116.535 259.26 117.015C257.69 118.351 256.292 117.969 254.741 116.941C253.017 115.821 251.214 114.885 249.102 113.672ZM258.336 114.46L265.2 110.496C265.04 105.233 264.892 100.29 264.732 95.0081C262.75 96.147 261.088 97.1504 259.377 98.086C258.435 98.5908 258.318 99.3603 258.324 100.296C258.355 104.784 258.349 109.296 258.349 114.46H258.336ZM419.688 175.618C417.731 174.473 416.124 173.593 414.579 172.602C413.434 171.863 412.443 171.986 411.322 172.657C408.127 174.559 404.889 176.387 401.676 178.265C401.337 178.539 401.032 178.851 400.765 179.194C402.611 180.253 404.2 181.337 405.948 182.149C406.339 182.313 406.759 182.394 407.183 182.388C407.607 182.381 408.025 182.288 408.41 182.112C412.073 180.112 415.669 177.957 419.701 175.618H419.688ZM349.318 183.996L374.379 186.095L360.06 177.785L349.318 183.996ZM250.432 92.4412L257.173 96.2824C259.346 95.0512 261.414 93.9063 263.403 92.6505C264.05 92.273 264.533 91.667 264.757 90.9515C264.945 89.6883 264.945 88.4042 264.757 87.1411C264.548 85.4913 263.243 84.9127 261.747 85.7745C258.115 87.8675 254.507 90.0343 250.432 92.4412Z" fill="#232323"/>
<path d="M270.574 134.005L277.026 146.87C276.115 147.295 275.087 147.788 274.047 148.249C264.714 152.398 256.095 157.711 248.973 165.061C243.352 170.847 239.221 177.508 237.374 185.553C235.398 194.171 237.042 202.137 241.068 209.721C245.094 217.305 251.096 223.264 258.065 228.188C269.189 236.086 281.563 241.214 294.75 244.47C304.095 246.779 313.55 248.447 323.216 248.705C328.024 248.828 332.844 249.266 337.633 249.069C358.139 248.244 377.987 244.501 396.449 235.064C404.021 231.198 411.002 226.446 416.863 220.241C421.923 214.873 425.783 208.767 427.661 201.558C430.24 191.672 428.325 182.475 422.988 173.968C420.969 170.755 418.352 167.892 415.841 165.012C415.327 164.504 414.92 163.898 414.646 163.229C414.372 162.561 414.236 161.844 414.246 161.121C414.369 155.027 414.363 148.933 414.4 142.838C423.019 147.523 431.022 153.088 437.794 160.241C441.257 163.826 444.244 167.842 446.683 172.189C445.969 174.313 445.181 176.418 444.584 178.573C444.418 179.188 444.584 180.296 444.996 180.567C445.963 181.183 446.554 180.382 446.985 179.508C447.483 178.48 448.05 177.477 448.585 176.467C450.641 179.785 451.312 183.54 451.977 187.295C453.079 193.513 452.273 199.607 450.512 205.566C450.346 206.126 450.266 206.711 450.143 207.277C448.936 210.014 447.732 212.756 446.529 215.501C445.875 216.058 445.275 216.677 444.738 217.348C439.813 224.735 433.54 230.731 426.349 235.815C412.19 245.874 396.437 252.183 379.692 256.271C371.493 258.231 363.178 259.67 354.797 260.58C344.733 261.695 334.597 262.006 324.484 261.509C306.779 260.691 289.394 257.927 272.52 252.245C259.026 247.696 246.282 241.632 235.14 232.62C225.906 225.147 218.352 216.351 214.763 204.735C213.956 202.131 213.532 199.416 212.916 196.732C211.906 181.989 217.755 169.955 227.691 159.588C236.679 150.213 247.6 143.676 259.339 138.412C263.015 136.787 266.832 135.47 270.574 134.005Z" fill="#509558"/>
<path d="M605.69 314.203C605.611 316.168 605.635 318.137 605.764 320.1C605.998 322.101 605.148 323.178 603.462 324.009C602.064 324.705 600.753 325.572 599.201 326.471C599.546 327.148 599.866 327.813 600.211 328.453C603.055 333.704 602.778 338.832 599.552 343.794C597.312 347.247 594.19 349.789 590.712 351.901C585.038 355.274 578.803 357.597 572.305 358.758C557.845 361.528 543.525 361.091 529.563 356.099C526.083 354.768 522.728 353.132 519.535 351.211C517.602 350.035 515.832 348.609 514.271 346.97C509.722 342.445 506.958 336.025 511.28 327.819L502.661 322.692V314.24H496.8C496.074 311.981 495.865 276.006 496.505 271.679L502.292 271.26C502.292 269.352 502.384 267.419 502.292 265.492C502.193 263.922 502.759 262.987 504.138 262.205C510.364 258.68 516.555 255.087 522.711 251.426C523.099 251.134 523.566 250.969 524.051 250.952C524.536 250.936 525.014 251.069 525.42 251.334C527.027 252.282 528.8 252.984 530.271 254.098C532.734 255.945 535.196 256.326 538.17 254.713V247.462H569.566V254.812L572.028 255.563C572.715 255.816 573.452 255.897 574.178 255.801C574.903 255.704 575.593 255.433 576.19 255.009C578.037 253.735 580.087 252.744 582.007 251.568C582.521 251.197 583.138 250.997 583.771 250.997C584.404 250.997 585.022 251.197 585.535 251.568C591.519 255.118 597.548 258.606 603.622 262.033C605.099 262.864 605.715 263.83 605.585 265.523C605.438 267.37 605.548 269.216 605.548 271.445C606.884 271.445 608.011 271.445 609.168 271.445C611.815 271.525 612.037 271.722 612.043 274.338C612.043 282.698 612.043 291.057 612.043 299.417C612.043 303.547 612.043 307.678 612.043 311.808C612.043 314.024 611.871 314.147 609.716 314.209C608.479 314.234 607.297 314.203 605.69 314.203ZM552.366 250.035H540.626V257.243C538.539 257.767 536.717 258.142 534.95 258.702C534.394 258.888 533.803 258.94 533.224 258.852C532.645 258.764 532.095 258.54 531.619 258.198C529.699 257.003 527.667 255.994 525.771 254.769C525.303 254.419 524.735 254.228 524.151 254.222C523.566 254.217 522.995 254.397 522.521 254.738C517.873 257.496 513.188 260.186 508.534 262.931C508.003 263.328 507.516 263.78 507.081 264.28C509.273 265.541 511.236 266.656 513.176 267.813C514.173 268.428 514.973 269.173 514.148 270.435C512.566 272.854 511.009 275.218 507.426 274.517C506.004 274.233 504.483 274.449 503.006 274.473C501.67 274.473 500.334 274.578 499.072 274.627C498.506 278.216 498.616 285.942 499.275 288.225C502.15 288.225 505.111 288.422 508.029 288.17C510.627 287.948 512.24 288.86 513.57 291.039C514.899 293.218 514.949 293.667 512.622 295.145C510.935 296.222 508.928 296.837 507.401 298.783C512.819 301.91 518.051 304.981 523.358 307.924C524.156 308.21 525.031 308.197 525.82 307.887C526.721 307.494 527.577 307.007 528.375 306.434C533.589 303.356 533.577 303.418 539.315 304.772C540.589 305.08 541.161 305.659 541.161 306.97C541.118 308.712 541.161 310.454 541.161 312.104C544.516 312.769 564.832 312.67 567.091 312.036C567.146 311.697 567.233 311.322 567.27 310.94C567.454 309.124 566.999 306.779 567.971 305.628C568.944 304.477 571.376 304.52 573.112 303.886C573.669 303.692 574.264 303.632 574.848 303.712C575.432 303.793 575.989 304.01 576.473 304.347C578.32 305.419 580.265 306.422 582.094 307.573C582.643 307.985 583.312 308.208 583.999 308.208C584.686 308.208 585.354 307.985 585.904 307.573C587.462 306.557 589.136 305.726 590.743 304.76C594.116 302.778 597.478 300.789 601.208 298.604C600.193 297.89 599.522 297.373 598.807 296.93C597.638 296.209 596.413 295.582 595.255 294.831C593.445 293.667 593.501 293.175 594.584 291.279C595.963 288.878 597.786 287.801 600.599 288.201C602.266 288.336 603.941 288.349 605.61 288.238C606.749 288.238 607.888 288.158 609.217 288.115C609.217 285.603 609.285 283.449 609.217 281.3C609.15 279.152 609.599 276.825 608.848 274.689C608.508 274.607 608.162 274.548 607.814 274.51C605.351 274.51 602.889 274.313 600.427 274.51C597.767 274.744 596 273.895 594.646 271.543C593.415 269.389 593.322 268.822 595.379 267.524C597.164 266.391 599.011 265.344 601.239 264.015C595.366 260.617 589.967 257.459 584.507 254.412C583.996 254.122 582.986 254.35 582.377 254.67C580.382 255.723 578.486 256.96 576.504 258.05C575.753 258.468 574.823 259.035 574.078 258.899C571.794 258.505 569.566 257.804 567.307 257.219C567.19 254.584 567.091 252.294 566.986 249.961H554.754C554.754 252.731 554.822 255.366 554.693 258.001C554.646 258.352 554.513 258.687 554.307 258.975C554.101 259.264 553.828 259.498 553.511 259.657C552.427 259.89 552.378 258.862 552.372 258.068C552.353 255.464 552.366 252.793 552.366 250.035ZM541.285 315.489V335.883H567.183V315.489H541.285ZM505.253 300.937V321.054C511.046 324.397 516.851 327.739 523.105 331.347C523.105 324.661 523.056 318.586 523.136 312.516C523.136 311.119 522.299 310.669 521.369 310.122C517.204 307.725 513.04 305.332 508.879 302.944C507.832 302.322 506.736 301.744 505.265 300.937H505.253ZM602.951 321.036V300.919L585.449 311.076V331.18L602.951 321.036ZM576.104 307.407V327.61L582.494 331.217V311.076L576.104 307.407ZM498.936 291.113V311.482H502.716C502.716 308.958 502.716 306.613 502.716 304.274C502.753 302.125 502.162 299.577 503.116 297.933C504.071 296.29 506.582 295.557 508.405 294.418C508.731 294.215 509.02 293.963 509.408 293.673C509.359 292.818 509.316 291.98 509.266 291.113H498.936ZM605.653 311.537H609.113V291.168H599.146C598.413 292.928 598.912 294.049 600.544 294.788C601.43 295.188 602.193 295.896 603.092 296.228C605.321 297.041 605.819 298.592 605.702 300.814C605.524 304.317 605.653 307.832 605.653 311.537V311.537ZM505.24 266.483V271.734C507.253 271.162 509.722 272.885 510.879 269.727L505.24 266.483ZM602.717 266.483L597.145 269.727C598.438 272.904 600.777 271.236 602.741 271.574L602.717 266.483Z" fill="#252424"/>
<path d="M446.535 215.507C447.742 212.762 448.946 210.02 450.149 207.283C452.556 208.114 452.574 208.108 452.611 210.441C452.611 213.26 452.562 216.086 452.611 218.899C452.718 219.938 452.905 220.967 453.172 221.977C452.858 222.26 452.285 222.525 452.261 222.827C451.029 241.78 439.788 254.326 425.315 264.686C413.36 273.236 399.952 278.789 385.916 282.827C376.16 285.582 366.198 287.548 356.126 288.706C354.778 288.866 353.418 288.915 351.891 289.026V263.682C355.585 263.202 359.174 262.771 362.756 262.267C378.456 260.158 393.771 255.805 408.232 249.339C416.18 245.679 423.73 241.211 430.763 236.006C434.826 233.033 438.268 229.413 441.807 225.935C444.331 223.473 446.012 220.112 448.296 216.825L446.535 215.507Z" fill="#F8F6FC"/>
<path d="M0 85.6945C6.84562 81.7301 13.4573 77.8828 20.0875 74.0601C42.7708 60.9688 65.4623 47.8816 88.162 34.7986C88.7762 34.4878 89.3722 34.1426 89.9473 33.7644C91.277 32.7918 92.4467 33.0749 93.6841 33.9983C102.906 40.8517 112.14 47.6785 121.387 54.4786C122.747 55.4758 123.141 56.6269 123.117 58.2336C123.043 64.137 123.117 70.0403 123.117 75.9437C123.117 116.982 123.137 158.008 123.178 199.022C123.178 202.039 122.335 203.713 119.638 205.258C84.5853 225.367 49.5754 245.556 14.6085 265.825C10.7055 268.078 6.80253 270.343 2.86876 272.547C0.701799 273.778 0.092342 273.384 0.0123123 270.946C0.0123123 270.552 0.0123123 270.158 0.0123123 269.764V85.7068L0 85.6945ZM2.56711 269.549L120.272 201.614C120.272 154.998 120.272 108.504 120.272 62.1302C120.272 61.6377 120.211 61.1514 120.168 60.6651C120.144 60.5772 120.089 60.5008 120.014 60.4496C119.867 60.3789 119.715 60.3212 119.558 60.2773C115.348 64.2662 111.087 68.329 106.79 72.3426C105.957 73.1665 105.009 73.8672 103.977 74.4232C100.721 76.0237 97.4147 77.5011 94.0904 78.997C93.0723 79.3251 92.0281 79.566 90.9692 79.7172V36.5406C89.6641 37.2362 88.8084 37.661 87.9835 38.135C60.4861 53.9963 32.9887 69.868 5.49127 85.7499C2.03768 87.7443 2.59789 86.6609 2.59173 90.6745C2.59173 149.121 2.59173 207.568 2.59173 266.015L2.56711 269.549ZM95.5248 39.7293C95.5248 41.7423 103.934 67.615 105.43 69.8434L119.429 56.6331C109.265 48.3351 97.6179 40.1233 95.5001 39.7293H95.5248ZM94.9892 38.6459L94.8784 38.8183H95.0507L94.9892 38.6459Z" fill="#2B2929"/>
<path d="M548.044 100.844C546.813 100.05 546.197 99.6126 545.52 99.2125C543.279 97.8706 543.193 97.6859 544.529 95.3282C546.265 92.2504 548.068 89.2217 549.841 86.1684L553.437 79.9696C555.548 79.3171 556.619 81.2007 558.288 81.5085C559.568 81.0899 559.956 80.0619 559.974 78.8C560.057 77.6237 560.057 76.4429 559.974 75.2666C559.74 73.4198 560.658 72.3918 562.184 71.5731C565.453 69.7941 568.759 68.0459 571.868 66.0329C573.893 64.7033 575.599 64.5679 577.482 66.0329C577.929 66.3343 578.391 66.6117 578.868 66.864C579.68 65.879 580.462 64.9187 581.459 63.7122C584.113 65.1896 586.754 66.6177 589.351 68.1136C594.024 70.7975 598.672 73.5307 603.338 76.2392C605.936 77.7474 605.936 77.735 604.569 80.4867C604.501 80.6682 604.449 80.8557 604.416 81.0469C604.489 81.2192 604.52 81.5024 604.637 81.5455C608.263 82.832 608.786 85.5529 608.528 89.0063C608.251 92.8167 608.466 96.664 608.466 100.29C606.669 102.986 602.249 102.58 601.818 106.446C601.99 106.643 602.045 106.735 602.125 106.778C606.638 109.37 606.201 109.013 603.757 113.402C601.565 117.341 599.269 121.226 596.985 125.098C595.532 127.56 595.138 127.634 592.59 126.23C592.079 125.947 591.543 125.713 591.051 125.473C589.579 126.187 588.865 127.32 589.204 128.846C590.164 133.174 587.911 135.427 584.217 137.027C581.733 138.2 579.35 139.578 577.095 141.146C575.279 142.334 573.684 142.334 571.997 141.023C571.471 140.667 570.92 140.35 570.347 140.075C569.603 141.066 568.858 142.044 567.953 143.239C566.906 142.709 565.946 142.284 565.035 141.761C558.665 138.068 552.304 134.385 545.951 130.712C543.451 129.259 543.488 129.259 544.719 126.489C544.814 126.216 544.872 125.933 544.892 125.645C540.718 122.783 540.718 122.783 540.718 117.711C540.718 114.565 540.792 111.413 540.718 108.274C540.627 107.64 540.75 106.993 541.066 106.436C541.383 105.879 541.875 105.443 542.466 105.196C543.619 104.651 544.722 104.004 545.76 103.263C546.583 102.518 547.347 101.709 548.044 100.844ZM559.962 104.297C560.885 104.769 561.768 105.315 562.603 105.928C563.065 106.322 563.613 107.098 563.514 107.578C563.046 109.856 562.738 112.392 560.091 113.303C556.927 114.393 556.028 116.559 556.49 119.668C556.582 120.944 556.595 122.225 556.527 123.503C556.527 124.624 556.613 125.738 556.669 127.16C557.697 126.698 558.312 126.446 558.909 126.144C561.747 124.71 562.862 125.122 563.459 128.138C563.625 128.976 563.182 130.022 562.782 130.859C561.987 132.491 561.021 134.048 560.073 135.729L566.98 139.613C567.934 138.049 569.03 136.738 569.59 135.224C570.36 133.149 571.991 132.792 573.752 132.564C575.186 132.38 575.888 133.063 575.993 134.577C576.073 135.685 576.06 136.806 576.103 138.369C578.788 136.837 580.899 135.372 583.214 134.368C586.095 133.137 587.049 131.155 586.698 128.138C586.639 126.996 586.906 125.86 587.468 124.864C588.19 123.697 589.014 122.597 589.93 121.576L590.503 121.989L594.48 123.719C597.096 119.176 599.657 114.731 602.298 110.176C601.324 109.679 600.391 109.105 599.509 108.458C599.072 108.071 598.592 107.227 598.733 106.772C599.466 104.525 599.583 101.847 602.513 100.955C603.257 100.689 603.949 100.295 604.557 99.7912C604.988 99.4588 605.554 98.9294 605.567 98.4738C605.653 94.885 605.616 91.2962 605.616 87.6766C603.394 87.5227 602.212 90.1389 600.125 88.9632C598.475 85.5837 598.475 85.5837 600.236 82.3765C600.851 81.2685 601.467 80.1481 602.205 78.7384L595.237 74.8418C594.006 76.8609 593.051 78.5353 592.029 80.2158C591.414 81.1884 588.724 82.2411 587.659 81.8348C586.335 81.33 586.267 80.0681 586.187 78.88C586.138 78.1229 586.083 77.3657 586.009 76.1961C583.374 77.7166 581.084 79.2247 578.621 80.4066C576.602 81.3731 575.494 82.5612 575.95 84.9188C576.405 87.2765 575.5 89.2279 573.635 90.8899C571.954 92.3735 571.837 92.5581 569.843 91.6286C569.227 91.3516 568.667 91.013 567.879 90.6068C565.232 95.1682 562.671 99.6496 559.962 104.297ZM557.58 103.035L565.583 89.1355L554.889 82.9428L546.886 96.8179L557.58 103.035ZM585.005 73.6107C581.859 71.764 579.034 70.2127 576.288 68.5137C575.821 68.1679 575.256 67.9812 574.675 67.9812C574.094 67.9812 573.529 68.1679 573.062 68.5137C570.23 70.2558 567.319 71.8686 564.093 73.7338L574.404 79.7541L585.005 73.6107ZM553.831 127.424C553.831 123.331 553.831 119.742 553.831 116.153C553.807 115.918 553.733 115.69 553.614 115.485C553.495 115.28 553.334 115.103 553.141 114.965C550.063 113.118 546.985 111.333 543.691 109.425V121.576L553.831 127.424ZM560.602 108.92C560.565 108.305 560.652 107.88 560.516 107.8C557.13 105.787 553.787 103.688 549.878 101.724C550.759 103.712 555.77 106.938 560.59 108.92H560.602ZM572.145 88.9262C570.686 87.0364 568.618 86.3531 566.857 85.2943C562.437 82.635 562.412 82.6843 561.101 83.0967C563.933 85.5283 570.058 88.8524 572.133 88.9262H572.145Z" fill="#292828"/>
<path d="M577.402 178.77C581.792 178.93 586.082 179.496 590.053 181.343C592.109 182.265 594.003 183.512 595.661 185.036C598.74 187.96 598.672 191.678 595.711 194.676C594.489 195.955 593.043 196.998 591.444 197.754C582.161 201.878 572.798 201.878 563.496 197.797C562.156 197.171 560.923 196.341 559.839 195.335C556.102 192.011 556.096 187.751 559.79 184.378C562.714 181.712 566.327 180.432 570.114 179.681C572.521 179.201 574.983 179.059 577.402 178.77Z" fill="#232323"/>
<path d="M465.404 129.043C465.01 128.243 464.523 127.701 464.517 127.16C464.606 126.48 464.814 125.821 465.133 125.214C480.864 84.3196 496.607 43.4351 512.363 2.56077C512.763 1.52661 512.88 -0.51711 514.659 0.289296C516.284 1.02183 515.035 2.56077 514.616 3.64419C499.189 43.8044 483.741 83.9585 468.273 124.106C467.817 125.294 467.405 126.513 466.85 127.658C466.635 128.114 466.063 128.415 465.404 129.043Z" fill="#313030"/>
<path d="M186.826 103.417C186.531 103.762 186.211 104.42 185.817 104.5C185.549 104.51 185.283 104.455 185.041 104.34C184.799 104.226 184.588 104.055 184.426 103.842C183.988 103.076 183.635 102.265 183.373 101.422C171.709 71.1279 160.039 40.8251 148.363 10.5141C147.378 7.9471 146.387 5.3863 145.408 2.81934C145.147 2.29698 144.982 1.73189 144.922 1.15113C144.952 0.922281 145.036 0.703965 145.168 0.514417C145.3 0.324868 145.475 0.169592 145.679 0.0615573C145.9 -0.0072355 146.135 -0.0207603 146.362 0.0221678C146.59 0.065096 146.803 0.163167 146.984 0.307788C147.398 0.969432 147.727 1.68097 147.963 2.42537C160.665 35.3834 173.363 68.3414 186.057 101.299C186.303 101.94 186.531 102.592 186.826 103.417Z" fill="#313030"/>
<path d="M448.592 176.474C448.056 177.483 447.49 178.487 446.991 179.515C446.56 180.389 445.969 181.201 445.003 180.573C444.59 180.302 444.424 179.188 444.59 178.579C445.206 176.424 445.975 174.319 446.689 172.195C447.173 171.37 447.61 170.52 448.001 169.647C450.321 163.719 452.605 157.772 454.902 151.832C455.08 151.377 455.271 150.921 455.437 150.459C455.77 149.511 456.121 148.373 457.407 148.89C458.694 149.407 458.097 150.552 457.764 151.42C455 158.653 452.193 165.867 449.441 173.1C449.089 174.206 448.805 175.333 448.592 176.474Z" fill="#313030"/>
<path d="M204.593 149.585C204.39 149.911 204.224 150.546 203.904 150.626C203.643 150.692 203.371 150.701 203.107 150.653C202.843 150.606 202.591 150.502 202.371 150.349C202.002 149.893 201.741 149.361 201.607 148.791C199.145 142.401 196.697 136.004 194.263 129.597C193.875 128.576 192.847 127.197 194.368 126.52C196.011 125.812 196.153 127.597 196.541 128.588C199.034 134.971 201.466 141.367 203.928 147.763C204.144 148.354 204.341 148.914 204.593 149.585Z" fill="#313030"/>
<path d="M356.779 125.356L347.36 137.274C346.412 134.811 347.04 132.725 346.948 130.681C346.855 128.637 346.997 126.593 347.04 124.525L356.779 125.356Z" fill="#4F9557"/>
<path d="M128.712 235.434C128.471 235.861 128.154 236.241 127.777 236.554C125.862 237.73 123.923 238.881 121.916 239.897C121.628 240.002 121.319 240.034 121.016 239.99C120.713 239.946 120.426 239.827 120.18 239.644C119.595 238.936 119.971 238.161 120.765 237.705C122.71 236.579 124.643 235.427 126.632 234.381C126.829 234.25 127.058 234.174 127.294 234.161C127.531 234.147 127.767 234.196 127.978 234.303C128.189 234.41 128.369 234.571 128.498 234.769C128.627 234.968 128.701 235.197 128.712 235.434Z" fill="#313030"/>
<path d="M103.072 250.324C102.803 250.737 102.468 251.103 102.081 251.408C100.234 252.522 98.3875 253.556 96.5037 254.621C95.7465 255.058 94.8662 255.274 94.583 254.283C94.5516 253.936 94.6047 253.587 94.7376 253.265C94.8706 252.944 95.0794 252.659 95.3464 252.436C97.1349 251.258 98.9843 250.175 100.887 249.192C102.05 248.582 103.091 249.081 103.072 250.324Z" fill="#313030"/>
<path d="M69.0225 246.742C69.1074 247.802 69.0826 248.869 68.9486 249.924C68.8255 250.54 68.0806 250.977 67.6127 251.5C67.2064 251.026 66.4677 250.571 66.443 250.072C66.3168 247.735 66.3168 245.392 66.443 243.054C66.443 242.55 67.2064 242.088 67.6127 241.614C68.0806 242.143 68.8439 242.617 68.9424 243.214C69.0787 244.385 69.1055 245.566 69.0225 246.742Z" fill="#494949"/>
<path d="M82.5907 262.291C82.3958 262.279 82.2073 262.216 82.0437 262.109C81.8802 262.003 81.747 261.855 81.6571 261.682C81.5673 261.508 81.5239 261.315 81.531 261.119C81.5382 260.924 81.5958 260.734 81.6981 260.568C81.9825 260.176 82.3505 259.852 82.7754 259.62C84.6222 258.524 86.4691 257.397 88.4082 256.449C88.8269 256.246 89.6826 256.609 90.1381 256.966C90.3105 257.102 90.1012 258.198 89.7749 258.419C87.6203 259.774 85.3856 261.005 83.1694 262.236C82.9821 262.292 82.7854 262.311 82.5907 262.291V262.291Z" fill="#313030"/>
<path d="M66.4247 261.165C66.3464 259.997 66.367 258.826 66.4863 257.662C66.5725 257.176 67.2989 256.64 67.8345 256.48C68.0807 256.412 68.8995 257.182 68.9118 257.594C69.0103 260.126 69.0103 262.658 68.9118 265.191C68.9118 265.578 68.0069 266.311 67.7791 266.225C67.2435 266.022 66.5479 265.455 66.4863 264.957C66.3763 263.696 66.3557 262.429 66.4247 261.165V261.165Z" fill="#494949"/>
<path d="M165.723 211.826C166.148 212.116 166.757 212.319 166.831 212.645C166.894 212.904 166.897 213.174 166.839 213.434C166.782 213.695 166.665 213.938 166.499 214.147C165.052 215.132 163.495 215.963 161.974 216.843C161.436 217.264 160.833 217.595 160.189 217.822C159.641 217.92 159.013 217.557 158.428 217.403C158.631 216.788 158.656 215.987 159.044 215.68C160.248 214.846 161.502 214.087 162.799 213.408C163.753 212.879 164.695 212.374 165.723 211.826Z" fill="#313030"/>
<path d="M180.215 211.174C179.396 211.518 178.805 212.005 178.331 211.912C177.587 211.687 176.887 211.335 176.263 210.872C175.161 210.195 174.126 209.641 172.784 210.472C172.476 210.669 171.553 210.226 171.184 209.856C171.024 209.69 171.35 208.761 171.701 208.428C173.135 207.049 174.342 206.963 176.164 207.973C177.114 208.473 178.037 209.024 178.928 209.622C179.413 210.091 179.844 210.611 180.215 211.174V211.174Z" fill="#313030"/>
<path d="M552.322 195.692C552.265 194.529 552.281 193.363 552.372 192.202C552.449 191.95 552.589 191.723 552.778 191.541C552.968 191.359 553.201 191.228 553.455 191.161C553.874 191.161 554.637 191.777 554.686 192.109C554.791 194.633 554.785 197.169 554.686 199.693C554.686 200.075 553.966 200.432 553.578 200.807C553.166 200.364 552.47 199.97 552.402 199.484C552.298 198.223 552.279 196.956 552.347 195.692H552.322Z" fill="#313030"/>
<path d="M552.298 240.02C552.228 238.951 552.244 237.878 552.347 236.812C552.433 236.283 553.043 235.84 553.418 235.36C553.861 235.784 554.649 236.197 554.649 236.64C554.776 239.07 554.776 241.505 554.649 243.935C554.649 244.335 553.769 244.686 553.295 245.067C552.969 244.649 552.403 244.255 552.359 243.805C552.278 242.545 552.262 241.282 552.31 240.02H552.298Z" fill="#313030"/>
<path d="M134.074 233.101C133.459 232.676 133.022 232.522 132.923 232.239C132.782 231.839 132.738 231.069 132.923 230.94C135.318 229.493 137.731 228.053 140.237 226.809C140.92 226.471 141.843 227.911 141.259 228.336C138.956 230.035 136.481 231.531 134.074 233.101Z" fill="#313030"/>
<path d="M552.304 225.381C552.247 224.214 552.262 223.044 552.347 221.879C552.396 221.435 553.073 220.647 553.277 220.709C553.818 220.857 554.649 221.361 554.668 221.755C554.797 224.185 554.797 226.62 554.668 229.05C554.668 229.499 553.843 229.906 553.4 230.337C553.03 229.85 552.415 229.401 552.341 228.878C552.245 227.715 552.233 226.546 552.304 225.381V225.381Z" fill="#313030"/>
<path d="M504.058 160.438C504.49 160.519 504.913 160.642 505.32 160.807C507.266 161.921 509.236 163.005 511.107 164.242C511.513 164.513 511.538 165.356 511.723 165.935C511.107 166.095 510.393 166.551 509.987 166.366C507.894 165.313 505.862 164.131 503.88 162.888C503.676 162.703 503.513 162.478 503.401 162.227C503.289 161.976 503.23 161.704 503.227 161.429C503.227 161.109 503.763 160.77 504.058 160.438Z" fill="#313030"/>
<path d="M77.5675 264.92C77.3335 265.228 77.1365 265.714 76.7672 265.942C74.7664 267.173 72.7534 268.404 70.6664 269.45C70.2416 269.672 69.4968 269.253 68.9058 269.13C69.0658 268.545 69.0412 267.665 69.4229 267.419C71.479 266.108 73.6152 264.901 75.7822 263.769C76.681 263.307 77.2412 263.898 77.5675 264.92Z" fill="#313030"/>
<path d="M554.76 210.644C554.841 211.711 554.822 212.782 554.705 213.845C554.594 214.461 554.046 215.36 553.535 215.483C552.55 215.723 552.304 214.83 552.304 213.975C552.304 211.74 552.236 209.493 552.353 207.265C552.353 206.772 553.067 206.317 553.449 205.843C553.88 206.274 554.613 206.662 554.68 207.148C554.791 208.31 554.81 209.479 554.736 210.644H554.76Z" fill="#313030"/>
<path d="M154.297 220.654C154.076 220.937 153.829 221.515 153.399 221.78C151.472 222.956 149.526 224.101 147.513 225.123C147.223 225.232 146.911 225.27 146.603 225.233C146.296 225.195 146.001 225.083 145.746 224.907C145.038 224.162 145.599 223.436 146.331 222.999C148.264 221.835 150.203 220.672 152.198 219.619C152.393 219.478 152.623 219.393 152.863 219.373C153.102 219.352 153.343 219.398 153.559 219.504C153.775 219.611 153.958 219.774 154.088 219.976C154.218 220.179 154.29 220.413 154.297 220.654V220.654Z" fill="#313030"/>
<path d="M499.509 158.382C498.678 158.69 497.878 159.287 497.471 159.084C495.2 157.957 493.002 156.677 490.853 155.335C490.682 155.132 490.565 154.888 490.514 154.628C490.463 154.367 490.481 154.097 490.564 153.845C490.729 153.644 490.944 153.49 491.187 153.398C491.43 153.306 491.693 153.28 491.949 153.322C494.196 154.498 496.382 155.784 498.561 157.089C498.856 157.268 499.01 157.686 499.509 158.382Z" fill="#313030"/>
<path d="M115.877 242.95C115.678 243.298 115.417 243.606 115.108 243.861C113.193 245.03 111.241 246.145 109.284 247.253C108.545 247.671 107.739 247.807 107.252 246.908C106.766 246.009 107.375 245.443 108.096 245.024C109.943 243.941 111.789 242.821 113.692 241.823C114.886 241.202 115.932 241.7 115.877 242.95Z" fill="#313030"/>
<path d="M478.067 145.602C478.954 145.941 479.298 146.039 479.662 146.218C481.541 147.256 483.415 148.311 485.282 149.382C486.027 149.801 486.68 150.478 486.064 151.229C485.786 151.441 485.461 151.581 485.116 151.636C484.771 151.69 484.417 151.658 484.088 151.543C482.085 150.53 480.137 149.412 478.252 148.194C478.042 148.016 477.871 147.797 477.748 147.55C477.625 147.303 477.554 147.035 477.538 146.76C477.507 146.347 477.919 145.892 478.067 145.602Z" fill="#313030"/>
<path d="M550.359 187.203C550.18 188.354 549.497 188.816 548.672 188.397C546.419 187.246 544.215 185.99 542.066 184.661C541.895 184.453 541.779 184.205 541.73 183.94C541.682 183.675 541.702 183.401 541.789 183.146C541.957 182.942 542.176 182.786 542.423 182.692C542.67 182.598 542.938 182.57 543.199 182.611C545.44 183.781 547.625 185.073 549.798 186.366C550.119 186.52 550.248 186.988 550.359 187.203Z" fill="#313030"/>
<path d="M529.803 175.101C530.225 175.214 530.637 175.362 531.034 175.544C532.881 176.603 534.771 177.686 536.63 178.776C537.357 179.207 538.022 179.829 537.314 180.623C537.076 180.816 536.794 180.947 536.493 181.003C536.192 181.06 535.882 181.042 535.59 180.949C533.497 179.884 531.465 178.702 529.477 177.452C529.273 177.271 529.113 177.046 529.006 176.795C528.9 176.544 528.85 176.272 528.861 176C528.88 175.692 529.477 175.396 529.803 175.101Z" fill="#313030"/>
<path d="M184.992 213.193C185.429 213.384 185.706 213.476 185.958 213.618C187.904 214.738 189.88 215.803 191.764 217.028C192.188 217.305 192.281 218.111 192.521 218.671C191.905 218.844 191.191 219.336 190.791 219.139C188.624 218.031 186.513 216.8 184.45 215.501C184.272 215.304 184.141 215.068 184.069 214.811C183.996 214.555 183.983 214.286 184.032 214.024C184.069 213.685 184.684 213.439 184.992 213.193Z" fill="#313030"/>
<path d="M517.005 167.732C517.332 167.848 517.652 167.982 517.965 168.133C519.929 169.222 521.899 170.306 523.844 171.426C524.607 171.857 525.106 172.608 524.46 173.34C524.205 173.527 523.908 173.648 523.596 173.692C523.283 173.736 522.964 173.702 522.668 173.593C520.587 172.522 518.562 171.334 516.586 170.078C516.396 169.891 516.25 169.664 516.16 169.414C516.069 169.164 516.036 168.896 516.063 168.631C516.112 168.293 516.697 168.009 517.005 167.732Z" fill="#313030"/>
<path d="M203.374 225.757C200.659 225.523 198.985 223.91 197.119 222.783C196.818 222.599 196.762 221.706 196.904 221.238C197.057 221.069 197.25 220.942 197.465 220.869C197.681 220.796 197.911 220.779 198.135 220.82C199.877 221.687 201.562 222.662 203.183 223.738C203.491 223.953 203.306 224.901 203.374 225.757Z" fill="#313030"/>
<path d="M161.063 264.52L206.735 290.374C205.627 291.094 204.852 291.648 204.027 292.122C176.066 308.365 148.102 324.614 120.137 340.87C110.367 346.576 99.8834 348.06 88.8577 346.896C83.1601 346.366 77.6281 344.691 72.5932 341.972C69.7058 340.478 67.1834 338.365 65.2058 335.785C61.9492 331.334 61.9308 326.601 65.1566 322.125C67.1019 319.435 69.7183 317.552 72.544 315.908C94.2956 303.285 116.058 290.649 137.83 278.001L161.063 264.52ZM101.01 314.523C99.7356 314.609 98.449 314.609 97.187 314.806C93.6472 315.366 90.2798 316.425 87.6573 319.041C84.7208 321.978 84.6716 325.843 87.7004 328.681C89.0077 329.865 90.5037 330.822 92.1266 331.513C96.4913 333.433 101.096 333.55 105.726 332.775C108.77 332.363 111.63 331.08 113.962 329.081C117.465 325.942 117.49 321.694 113.932 318.617C112.798 317.681 111.543 316.903 110.201 316.302C107.305 315.043 104.167 314.435 101.01 314.523V314.523Z" fill="#F9F8FE"/>
<path d="M114.19 347.112C114.292 347.007 114.398 346.909 114.51 346.816C116.29 345.585 118.623 345.653 120.359 343.972C121.935 342.458 124.219 341.676 126.176 340.543C128.134 339.411 129.87 338.333 131.76 337.25C133.718 336.117 135.694 335.022 137.651 333.883L180.129 309.198C188.87 304.122 197.614 299.045 206.36 293.969C206.772 293.729 207.185 293.507 207.88 293.119V317.915C197.587 323.898 187.184 330.011 176.718 336.025C166.253 342.039 155.726 347.567 145.55 353.877C135.374 360.186 124.914 366.01 114.153 372.215L114.19 347.112Z" fill="#658B6B"/>
<path d="M231.742 276.025L216.967 284.6L171.171 258.665L186.414 249.783L231.742 276.025Z" fill="#F8F6FC"/>
<path d="M206.077 258.031C209.321 256.246 212.048 254.72 214.8 253.236C218.955 251.002 223.154 248.847 227.278 246.563C228.727 245.713 230.431 245.405 232.086 245.695C236.396 246.446 240.551 247.597 243.21 251.519C243.703 252.245 244.096 253.034 244.38 253.864C245.316 256.64 245.137 257.188 242.656 258.647C237.239 261.823 231.803 264.981 226.324 268.059C225.962 268.265 225.56 268.392 225.145 268.432C224.73 268.471 224.312 268.422 223.917 268.287C218.1 265.043 212.35 261.663 206.077 258.031Z" fill="#777878"/>
<path d="M232.954 278.53V293.045C232.954 295.896 232.954 298.752 232.954 301.602C232.954 302.636 232.874 303.603 231.779 304.064C227.826 305.751 224.57 308.613 220.734 310.503C220.223 310.756 219.682 310.946 218.888 311.291C218.752 310.5 218.657 309.703 218.604 308.903C218.604 302.316 218.648 295.729 218.555 289.143C218.474 288.425 218.625 287.699 218.986 287.073C219.347 286.447 219.9 285.954 220.562 285.665C224.539 283.504 228.43 281.153 232.954 278.53Z" fill="#658B6B"/>
<path d="M163.525 263.091L168.721 260.1L214.492 286.016L209.358 289.038L163.525 263.091Z" fill="#F2F2F8"/>
<path d="M348.019 263.886V289.321L339.468 289.937V264.329L348.019 263.886Z" fill="#F2F2F8"/>
<path d="M210.54 316.345V295.415C210.54 291.051 210.823 290.675 215.612 288.94C215.692 289.715 215.834 290.442 215.84 291.162C215.84 297.65 215.76 304.138 215.889 310.626C215.926 312.645 215.489 314.037 213.507 314.775C212.49 315.244 211.5 315.768 210.54 316.345V316.345Z" fill="#628567"/>
<path d="M325.081 264.396H329.698V289.734H325.081V264.396Z" fill="#F9F8FE"/>
<path d="M111.568 348.109V372.972L107.092 374.203C107.031 373.114 106.932 372.27 106.932 371.427C106.932 365.14 106.942 358.855 106.963 352.572C106.975 348.417 107.068 348.312 111.568 348.109Z" fill="#638969"/>
<path d="M101.072 350.036C101.072 354 101.072 357.804 101.072 361.608C101.072 365.203 100.899 368.798 100.985 372.387C101.059 375.539 100.868 375.773 97.2363 375.151C97.187 374.339 97.0885 373.477 97.0885 372.621C97.0885 366.026 97.0885 359.433 97.0885 352.843C97.0824 349.574 97.267 349.451 101.072 350.036Z" fill="#628567"/>
<path d="M329.353 127.905C329.101 134.387 328.959 140.875 328.547 147.344C328.381 149.905 328.547 152.675 326.626 154.842C327.02 157.668 325.475 159.859 324.108 162.038C322.151 165.153 319.424 167.418 315.65 167.856C313.187 168.139 310.626 168.206 308.17 167.363C305.314 166.384 302.31 165.726 300.1 163.436C293.266 160.838 288.335 155.803 283.663 150.509C281.853 148.453 280.406 146.076 278.775 143.86C277.993 142.802 277.87 141.453 276.848 140.401C275.826 139.348 275.346 137.68 274.681 136.252C274.016 134.824 273.486 133.562 272.945 132.189C272.403 130.816 271.917 129.419 271.486 128.04C270.997 126.542 270.56 125.032 270.174 123.509C269.776 122.094 269.467 120.655 269.251 119.2C269.085 117.889 269.3 116.541 269.128 115.23C269.011 114.3 268.285 113.426 268.254 112.509C267.995 104.162 267.675 95.8084 267.694 87.455C267.673 81.6643 267.978 75.877 268.605 70.1204C268.968 66.8578 270.131 63.626 271.356 60.5481C272.208 58.6557 273.407 56.9394 274.89 55.4881C276.01 54.3957 277.352 53.5561 278.824 53.0258C281.36 52.0409 283.933 51.3883 286.654 52.878C287.695 53.4444 289.228 53.0319 290.404 53.4444C294.95 55.047 299.209 57.3708 303.018 60.3265C305.181 62.0014 307.237 63.8106 309.174 65.7436C313.387 69.6927 316.923 74.3075 319.639 79.4033C321.081 81.9736 322.356 84.6343 323.456 87.3688C324.546 90.0984 325.487 92.8848 326.275 95.7161C328.213 102.733 329.182 109.982 329.156 117.261C329.156 120.807 329.156 124.347 329.156 127.886L329.353 127.905ZM310.313 116.085C310.313 109.985 310.393 103.885 310.313 97.7905C310.244 93.2574 309.426 88.7668 307.893 84.5002C306.102 79.5141 303.134 75.4697 298.29 73.0259C296.012 71.8747 293.654 71.29 291.253 72.6381C288.464 74.2016 287.978 77.3103 286.944 79.8711C286.217 81.6378 286.593 83.8785 286.574 85.9099C286.47 96.6271 286.334 107.344 286.341 118.055C286.249 122.772 286.741 127.482 287.806 132.078C288.698 135.636 289.973 139.022 292.25 141.927C294.29 144.726 297.143 146.828 300.42 147.948C303.658 148.97 306.28 147.917 307.899 144.95C308.447 144.016 308.838 142.999 309.057 141.94C309.662 138.86 310.073 135.745 310.288 132.614C310.473 127.11 310.337 121.595 310.337 116.085H310.313Z" fill="#FBF5FB"/>
<path d="M396.455 217.914C395.076 217.219 393.993 216.757 393.039 216.184C388.612 213.636 384.241 210.977 379.766 208.521C378.171 207.646 377.55 206.674 377.581 204.827C377.691 198.93 377.58 193.026 377.66 187.123C377.66 185.467 377.23 184.476 375.703 183.608C365.182 177.649 354.772 171.561 344.245 165.572C342.835 164.765 342.072 163.879 341.986 162.149C341.807 158.64 341.37 155.138 341.001 151.635C340.948 151.052 341.017 150.464 341.203 149.908C341.39 149.353 341.69 148.843 342.084 148.409C349.299 139.34 356.481 130.248 363.631 121.133C367.768 115.889 371.896 110.64 376.017 105.387C376.257 105.073 376.429 104.703 376.768 104.156C379.286 105.541 381.502 106.735 383.7 107.966C387.301 109.991 390.853 112.097 394.498 114.036C396.11 114.891 396.615 116.005 396.603 117.791C396.523 128.803 396.554 139.822 396.541 150.841C396.541 159.693 396.541 168.545 396.461 177.397C396.391 178.127 396.552 178.861 396.92 179.495C397.289 180.129 397.848 180.631 398.517 180.93C400.598 182.038 402.587 183.319 404.643 184.47C405.044 184.65 405.382 184.948 405.61 185.324C405.839 185.699 405.948 186.136 405.923 186.575C405.893 191.192 405.923 195.809 405.923 201.017C403.873 199.884 402.23 198.967 400.543 198.037C399.969 197.66 399.375 197.315 398.764 197.003C397.446 196.455 396.726 196.892 396.523 198.339C396.464 199.025 396.452 199.714 396.486 200.401C396.486 205.12 396.486 209.84 396.486 214.559L396.455 217.914ZM376.589 132.688C375.835 133.293 375.137 133.965 374.502 134.694C369.426 141.671 364.376 148.666 359.352 155.679C358.355 157.071 358.447 157.717 359.851 158.542C364.837 161.476 369.85 164.367 374.89 167.215C375.555 167.591 376.435 167.603 377.636 167.886C377.636 166.23 377.636 165.073 377.636 163.916C377.771 154.904 377.925 145.886 378.042 136.867C378.067 135.532 378.332 134.085 376.589 132.688Z" fill="#4F9557"/>
<path d="M255.843 114.325L247.046 109.61C246.757 110.742 246.551 111.894 246.43 113.057C246.381 117.982 246.43 122.906 246.43 127.831V131.069C245.73 130.901 245.046 130.672 244.386 130.385C239.461 127.554 234.537 124.636 229.562 121.866C228.9 121.56 228.351 121.053 227.992 120.418C227.633 119.783 227.483 119.051 227.562 118.326C227.648 112.626 227.463 106.913 227.666 101.213C227.746 98.874 226.854 97.6552 224.945 96.5717C215.286 91.0993 205.683 85.5221 196.048 80.0004C192.139 77.7659 192.071 77.7966 191.622 73.6107C191.327 70.7852 191.21 67.9413 190.97 65.1096C190.917 64.4817 190.994 63.8498 191.195 63.2527C191.396 62.6556 191.718 62.106 192.139 61.6377C202.276 48.8625 212.385 36.0687 222.464 23.2565C223.862 21.4898 225.321 19.7662 226.971 17.7656C228.202 18.3811 229.396 18.9536 230.56 19.6123C234.93 22.0746 239.215 24.6723 243.672 26.9623C245.925 28.1196 246.584 29.5908 246.572 32.0531C246.467 51.4315 246.572 70.8345 246.436 90.1882C246.436 92.4782 247.015 93.8386 249.145 94.7743C251.005 95.6687 252.787 96.719 254.47 97.9137C255.049 98.3015 255.769 99.0525 255.781 99.6496C255.886 104.328 255.843 109.025 255.843 114.325ZM225.93 46.1991L221.128 52.7981C217.316 58.0428 213.509 63.2875 209.709 68.5322C208.188 70.6313 208.293 71.1053 210.497 72.3919C215.249 75.162 220.01 77.9177 224.779 80.6591C226.86 81.8533 227.506 81.447 227.599 78.9662C227.599 78.2768 227.599 77.5873 227.599 76.9041C227.599 72.2811 227.568 67.6704 227.635 63.0351C227.703 58.3998 227.888 53.6229 228.011 48.9199C228.048 47.7688 227.808 46.7839 225.93 46.1991Z" fill="#4F9557"/>
<path d="M328.424 160.542C329.273 157.126 330.369 153.771 330.886 150.275C331.5 146.198 331.851 142.085 331.939 137.963C332.099 130.884 332.154 123.805 331.939 116.713C331.471 100.825 327.993 85.7868 318.722 72.5026C312.159 63.0966 303.731 55.9313 293.118 51.4807C290.797 50.5081 288.298 49.9541 285.454 49.0738C286.777 48.2366 287.916 47.3933 289.148 46.7469C291.228 45.6635 293.291 44.4323 295.507 43.7367C299.816 42.3763 303.904 43.8291 307.77 45.5281C318.518 50.2495 326.915 57.8396 333.121 67.7196C338.778 76.7563 342.016 86.6732 343.408 97.2673C344.824 108.034 344.387 118.843 344.356 129.641C344.356 133.248 343.654 136.849 343.426 140.462C343.355 141.938 342.729 143.333 341.672 144.365C340.927 145.141 340.348 146.076 339.677 146.92C338.612 148.249 337.781 149.505 338.446 151.438C339.135 153.531 338.243 155.329 336.34 156.449C333.816 157.945 331.231 159.348 328.67 160.789C328.596 160.709 328.51 160.629 328.424 160.542Z" fill="#658C6B"/>
<path d="M399.299 176.628V115.396L411.679 108.206V169.425L399.299 176.628Z" fill="#FCF6FC"/>
<path d="M249.274 90.0035V28.809L261.808 21.5452V24.9247C261.808 43.2935 261.704 61.6623 261.765 80.0312C261.765 82.198 261.076 83.3861 259.192 84.3402C255.911 86.0392 252.765 87.9906 249.274 90.0035Z" fill="#FCF6FC"/>
<path d="M379.316 102.457C383.416 100.093 387.079 97.9999 390.718 95.87C391.083 95.6303 391.511 95.5026 391.949 95.5026C392.386 95.5026 392.814 95.6303 393.18 95.87C398.548 98.9478 403.929 102.026 409.297 105.104C409.525 105.233 409.672 105.498 410.072 105.947C407.542 107.449 404.975 108.68 402.747 110.361C399.515 112.823 396.751 112.885 393.297 110.508C389.068 107.578 384.321 105.294 379.316 102.457Z" fill="#658B6B"/>
<path d="M229.821 15.6233C233.57 13.4134 237.171 11.2404 240.853 9.20288C241.204 9.06984 241.58 9.01364 241.955 9.03806C242.329 9.06249 242.695 9.16697 243.026 9.34446C248.683 12.4654 254.285 15.6788 260.207 19.0336C259.638 19.5199 259.042 19.9741 258.422 20.3941C255.547 22.0931 252.629 23.7059 249.804 25.4541C249.337 25.8086 248.774 26.0121 248.188 26.0374C247.603 26.0627 247.024 25.9086 246.529 25.5957C241.16 22.5178 235.768 19.5138 230.387 16.4667C230.239 16.3867 230.159 16.1589 229.821 15.6233Z" fill="#658B6B"/>
<path d="M408.386 201.041C408.386 195.754 408.386 190.983 408.423 186.206C408.455 185.928 408.546 185.66 408.691 185.42C408.835 185.18 409.029 184.973 409.26 184.815C413.021 182.556 416.826 180.37 420.957 177.951C420.957 183.208 420.957 187.979 420.926 192.725C420.906 193.004 420.826 193.275 420.692 193.52C420.559 193.765 420.374 193.979 420.15 194.147C416.407 196.431 412.597 198.604 408.386 201.041Z" fill="#F6F1F6"/>
<path d="M399.145 200.34C400.952 201.233 402.707 202.225 404.403 203.313C406.25 204.636 407.918 204.802 409.722 203.344C410.308 202.976 410.926 202.663 411.568 202.408C411.568 205.067 411.63 207.376 411.525 209.678C411.491 210 411.39 210.311 411.229 210.592C411.068 210.873 410.85 211.117 410.59 211.309C406.896 213.531 403.159 215.655 399.127 217.988L399.145 200.34Z" fill="#F3EEF4"/>
<path d="M249.102 113.672C251.213 114.904 253.042 115.821 254.741 116.941C256.292 117.969 257.69 118.351 259.259 117.015C259.992 116.535 260.774 116.134 261.593 115.821C261.593 118.474 261.654 120.795 261.543 123.109C261.502 123.431 261.393 123.74 261.225 124.016C261.056 124.293 260.831 124.532 260.565 124.716C256.871 126.938 253.146 129.068 249.102 131.42V113.672Z" fill="#F3EEF4"/>
<path d="M258.349 114.46C258.349 109.296 258.349 104.784 258.349 100.302C258.349 99.3664 258.459 98.597 259.401 98.0922C261.113 97.175 262.775 96.1716 264.757 95.0143C264.917 100.296 265.065 105.239 265.225 110.502L258.349 114.46Z" fill="#F6F1F6"/>
<path d="M419.701 175.618C415.668 177.957 412.073 180.112 408.404 182.112C408.018 182.288 407.601 182.381 407.177 182.388C406.753 182.394 406.333 182.313 405.942 182.149C404.193 181.337 402.574 180.253 400.758 179.194C401.024 178.851 401.327 178.539 401.663 178.265C404.877 176.418 408.115 174.571 411.31 172.657C412.43 171.992 413.421 171.863 414.567 172.602C416.155 173.593 417.743 174.473 419.701 175.618Z" fill="#638969"/>
<path d="M349.318 183.996L360.06 177.785L374.379 186.095L349.318 183.996Z" fill="#F2F2F8"/>
<path d="M250.432 92.4412C254.507 90.0343 258.115 87.8675 261.759 85.7745C263.255 84.9127 264.56 85.4913 264.769 87.1411C264.958 88.4042 264.958 89.6883 264.769 90.9515C264.546 91.667 264.063 92.273 263.415 92.6505C261.427 93.8816 259.358 95.0266 257.185 96.2824L250.432 92.4412Z" fill="#638969"/>
<path d="M328.674 160.8L328.135 160.911C328.233 160.788 328.331 160.671 328.423 160.549C328.511 160.628 328.595 160.712 328.674 160.8Z" fill="#658C6B"/>
<path d="M552.366 250.035C552.366 252.793 552.366 255.434 552.366 258.075C552.366 258.869 552.421 259.921 553.505 259.663C553.822 259.504 554.095 259.27 554.301 258.982C554.507 258.693 554.64 258.358 554.687 258.007C554.816 255.372 554.748 252.737 554.748 249.967H566.98C567.085 252.288 567.184 254.59 567.3 257.225C569.554 257.81 571.782 258.512 574.072 258.906C574.817 259.041 575.747 258.475 576.498 258.056C578.48 256.966 580.376 255.729 582.371 254.677C582.986 254.356 583.99 254.129 584.501 254.418C589.961 257.465 595.36 260.623 601.233 264.021C599.005 265.351 597.158 266.397 595.373 267.53C593.316 268.829 593.409 269.377 594.64 271.55C595.994 273.901 597.761 274.751 600.421 274.517C602.883 274.301 605.345 274.48 607.808 274.517C608.156 274.554 608.502 274.613 608.842 274.695C609.593 276.831 609.125 279.096 609.212 281.306C609.298 283.516 609.212 285.615 609.212 288.121C607.882 288.164 606.749 288.232 605.604 288.244C603.935 288.355 602.26 288.343 600.593 288.207C597.78 287.819 595.957 288.896 594.578 291.285C593.495 293.181 593.439 293.673 595.249 294.837C596.407 295.588 597.632 296.216 598.801 296.936C599.516 297.379 600.187 297.896 601.202 298.61C597.472 300.814 594.111 302.802 590.737 304.766C589.13 305.708 587.456 306.564 585.898 307.579C585.348 307.991 584.68 308.214 583.993 308.214C583.306 308.214 582.637 307.991 582.088 307.579C580.241 306.428 578.345 305.425 576.467 304.354C575.983 304.016 575.426 303.799 574.842 303.719C574.258 303.638 573.663 303.698 573.106 303.892C571.37 304.508 568.956 304.458 567.965 305.634C566.974 306.81 567.448 309.131 567.264 310.946C567.227 311.328 567.14 311.704 567.085 312.042C564.826 312.658 544.51 312.775 541.155 312.11C541.155 310.46 541.155 308.718 541.155 306.976C541.186 305.665 540.589 305.086 539.308 304.778C533.571 303.424 533.583 303.387 528.369 306.44C527.571 307.013 526.715 307.5 525.814 307.893C525.025 308.203 524.15 308.216 523.352 307.93C518.045 304.988 512.812 301.916 507.395 298.789C508.897 296.844 510.929 296.228 512.615 295.151C514.942 293.673 514.942 293.304 513.563 291.045C512.185 288.786 510.627 287.967 508.023 288.176C505.105 288.429 502.144 288.232 499.269 288.232C498.61 285.948 498.499 278.222 499.066 274.634C500.297 274.584 501.664 274.504 503 274.48C504.477 274.48 505.998 274.24 507.42 274.523C511.003 275.224 512.56 272.861 514.142 270.441C514.967 269.18 514.142 268.416 513.17 267.819C511.23 266.662 509.267 265.548 507.075 264.286C507.51 263.786 507.997 263.334 508.528 262.938C513.182 260.192 517.867 257.502 522.515 254.744C522.989 254.404 523.56 254.223 524.145 254.228C524.729 254.234 525.297 254.425 525.765 254.775C527.661 256.006 529.693 257.01 531.613 258.204C532.089 258.546 532.639 258.77 533.218 258.858C533.797 258.946 534.388 258.894 534.944 258.709C536.711 258.148 538.533 257.773 540.62 257.25V250.035H552.366ZM538.207 288.816C539.039 289.483 539.922 290.084 540.848 290.614C549.318 294.609 557.937 294.634 566.494 291.045C568.631 290.063 570.557 288.675 572.164 286.957C575.279 283.763 575.347 279.958 572.779 276.265C571.093 273.833 568.698 272.319 566.051 271.211C560.229 268.709 553.767 268.104 547.582 269.481C543.119 270.46 538.908 272.017 535.787 275.637C532.801 279.072 532.808 282.882 535.787 286.502L538.207 288.816Z" fill="#658C6B"/>
<path d="M541.297 315.489H567.196V335.884H541.297V315.489Z" fill="#FEF8FE"/>
<path d="M505.265 300.937C506.736 301.744 507.832 302.322 508.909 302.944C513.079 305.328 517.243 307.721 521.4 310.122C522.33 310.663 523.185 311.119 523.167 312.516C523.087 318.586 523.136 324.662 523.136 331.347C516.863 327.739 511.058 324.397 505.283 321.054L505.265 300.937Z" fill="#FBF5FB"/>
<path d="M602.963 321.036L585.448 331.18V311.076L602.969 300.919L602.963 321.036Z" fill="#FBF5FB"/>
<path d="M576.116 307.407L582.506 311.1V331.242L576.116 327.635V307.407Z" fill="#FCF6FC"/>
<path d="M498.936 291.113H509.272C509.322 291.98 509.365 292.818 509.414 293.673C509.026 293.963 508.737 294.215 508.411 294.418C506.564 295.557 504.071 296.265 503.122 297.933C502.174 299.601 502.759 302.125 502.722 304.274C502.722 306.613 502.722 308.958 502.722 311.482H498.942L498.936 291.113Z" fill="#F3EEF4"/>
<path d="M605.653 311.537C605.653 307.844 605.524 304.317 605.702 300.82C605.819 298.598 605.321 297.047 603.092 296.234C602.193 295.902 601.43 295.194 600.543 294.794C598.912 294.055 598.413 292.947 599.146 291.174H609.113V311.537H605.653Z" fill="#F9F3F9"/>
<path d="M505.24 266.483L510.879 269.727C509.722 272.885 507.253 271.162 505.24 271.734V266.483Z" fill="#F3EEF4"/>
<path d="M602.716 266.477V271.568C600.753 271.236 598.407 272.904 597.121 269.721L602.716 266.477Z" fill="#F3EEF4"/>
<path d="M2.56712 269.549V266.046C2.56712 207.595 2.56712 149.148 2.56712 90.7053C2.56712 86.6609 2.01306 87.7443 5.46666 85.7806C32.9641 69.8864 60.4615 54.0148 87.9589 38.1658C88.7838 37.6918 89.6395 37.267 90.9446 36.5714V79.7172C92.0035 79.566 93.0477 79.3251 94.0658 78.997C97.3901 77.5319 100.696 76.0237 103.953 74.4232C104.985 73.8672 105.932 73.1665 106.766 72.3426C111.075 68.329 115.323 64.2662 119.534 60.2773C119.69 60.3212 119.843 60.3789 119.989 60.4496C120.065 60.5008 120.119 60.5772 120.143 60.6651C120.186 61.1514 120.248 61.6377 120.248 62.1302C120.248 108.565 120.248 155.06 120.248 201.614L2.56712 269.549ZM71.3619 176.135C74.3477 174.399 76.8286 172.854 79.408 171.5C80.1251 171.194 80.7247 170.665 81.1182 169.993C81.5118 169.32 81.6784 168.538 81.5934 167.763C81.4606 163.926 82.2924 160.116 84.0128 156.683C85.9643 152.842 88.0758 149.074 90.2982 145.381C93.9426 139.33 97.6302 133.309 100.056 126.618C102.504 120.064 103.078 112.957 101.712 106.095C100.893 102.007 99.0707 98.5108 95.2539 96.3686C92.262 94.6819 89.2086 93.0999 86.3214 91.2531C82.8431 89.0247 79.1125 88.7477 75.2834 89.5849C64.1654 92.0472 55.1775 98.2707 47.2299 106.058C42.6863 110.564 39.0243 115.88 36.432 121.73C33.2308 128.809 31.5071 136.159 31.9873 144.113C34.9299 145.842 37.9095 147.541 40.8337 149.321C41.4736 149.772 42.239 150.011 43.022 150.004C43.8049 149.997 44.5661 149.745 45.1984 149.284C49.3845 146.735 53.6692 144.359 57.9293 141.897C58.5842 141.586 59.2563 141.312 59.9423 141.078C51.8778 154.51 51.0959 163.269 51.1883 174.744L58.2309 178.911C57.6255 179.317 57.0438 179.757 56.4887 180.229C52.4995 184.07 49.717 188.619 48.849 194.147C48.0733 199.176 48.9351 203.38 54.0817 205.677C56.4687 206.833 58.7634 208.17 60.9458 209.678C63.6421 211.414 66.3508 211.568 69.3489 210.478C76.8594 207.745 84.0805 199.244 84.4437 189.444C84.5792 185.898 83.3972 182.728 79.7774 180.943C77.0502 179.601 74.4893 177.939 71.3619 176.135Z" fill="#FEF8FE"/>
<path d="M95.5001 39.7293C97.6178 40.1233 109.265 48.3474 119.411 56.6331L105.405 69.8434C103.909 67.615 95.4693 41.7423 95.5001 39.7293Z" fill="#658B6B"/>
<path d="M94.9642 38.6459L95.0256 38.8422L94.8538 38.8177L94.9642 38.6459Z" fill="#658B6B"/>
<path d="M559.962 104.297C562.646 99.6496 565.232 95.1682 567.885 90.5883C568.673 91.0007 569.245 91.3332 569.849 91.6102C571.843 92.5397 571.96 92.355 573.641 90.8715C575.488 89.2217 576.423 87.3319 575.956 84.9004C575.488 82.4688 576.608 81.3546 578.627 80.3882C581.09 79.2063 583.361 77.6981 586.015 76.1776C586.089 77.3472 586.144 78.1044 586.193 78.8616C586.273 80.0496 586.341 81.3239 587.665 81.8163C588.73 82.2226 591.438 81.2008 592.035 80.1974C593.057 78.5353 594.042 76.8425 595.243 74.8234L602.212 78.72C601.454 80.1297 600.839 81.2562 600.223 82.358C598.462 85.5652 598.462 85.5652 600.112 88.9447C602.199 90.102 603.381 87.5043 605.604 87.6582C605.604 91.2777 605.641 94.8666 605.554 98.4554C605.554 98.9109 604.976 99.4403 604.545 99.7727C603.938 100.283 603.246 100.683 602.501 100.955C599.571 101.835 599.423 104.525 598.721 106.772C598.579 107.221 599.06 108.071 599.497 108.459C600.379 109.105 601.311 109.679 602.285 110.176C599.644 114.75 597.084 119.194 594.467 123.719L590.49 121.989L589.918 121.576C589.001 122.597 588.177 123.697 587.455 124.864C586.894 125.86 586.627 126.996 586.686 128.139C587.037 131.155 586.07 133.119 583.201 134.368C580.887 135.372 578.775 136.83 576.091 138.369C576.048 136.806 576.091 135.685 575.98 134.577C575.876 133.063 575.174 132.38 573.739 132.565C571.979 132.792 570.347 133.18 569.578 135.224C569.018 136.738 567.922 138.049 566.968 139.613L560.073 135.729C561.021 134.048 561.987 132.491 562.781 130.859C563.182 130.022 563.625 128.976 563.459 128.139C562.843 125.122 561.747 124.71 558.909 126.144C558.294 126.446 557.678 126.698 556.668 127.16C556.613 125.738 556.545 124.624 556.527 123.503C556.595 122.225 556.582 120.944 556.49 119.668C556.028 116.56 556.927 114.393 560.091 113.303C562.738 112.392 563.046 109.856 563.514 107.578C563.613 107.098 563.065 106.347 562.603 105.928C561.768 105.315 560.885 104.769 559.962 104.297V104.297ZM590.306 105.781C591.272 104.082 591.783 102.334 590.835 100.444C590.484 99.4465 590.127 98.4554 589.77 97.4582C589.154 96.7687 588.619 95.8823 587.849 95.4329C585.042 93.7893 581.829 94.5772 578.991 97.4397C578.296 97.6638 577.665 98.0497 577.149 98.5656C576.633 99.0815 576.247 99.7125 576.023 100.407C575.168 101.73 574.318 103.06 573.462 104.39C571.086 107.511 570.926 111.124 571.431 114.75C571.936 118.375 575.34 120.333 578.818 119.484C580.485 119.096 582.051 118.363 583.417 117.332C584.783 116.302 585.917 114.996 586.747 113.5C588.219 111.764 589.702 110.034 589.696 107.566L590.306 105.781Z" fill="#658C6B"/>
<path d="M557.58 103.035L546.893 96.8179L554.896 82.9428L565.589 89.1355L557.58 103.035Z" fill="#F9F3F9"/>
<path d="M585.005 73.6107L574.404 79.7665L564.093 73.7461C567.319 71.8994 570.249 70.2681 573.062 68.526C573.529 68.1802 574.094 67.9935 574.675 67.9935C575.256 67.9935 575.821 68.1802 576.288 68.526C579.034 70.2127 581.859 71.7824 585.005 73.6107Z" fill="#F9F3F9"/>
<path d="M553.831 127.424L543.661 121.576V109.437C546.93 111.333 550.038 113.131 553.11 114.977C553.303 115.115 553.464 115.292 553.583 115.497C553.702 115.702 553.776 115.93 553.8 116.166C553.849 119.742 553.831 123.331 553.831 127.424Z" fill="#FBF5FB"/>
<path d="M560.59 108.92C555.77 106.938 550.74 103.712 549.866 101.724C553.775 103.688 557.118 105.787 560.504 107.8C560.639 107.88 560.553 108.342 560.59 108.92Z" fill="#D2D4D9"/>
<path d="M572.133 88.9263C570.083 88.8524 563.933 85.5283 561.089 83.0968C562.4 82.6843 562.425 82.6351 566.845 85.2944C568.606 86.3532 570.674 87.0364 572.133 88.9263Z" fill="#D2D4D9"/>
<path d="M101.01 314.523C104.167 314.444 107.302 315.06 110.195 316.327C111.537 316.927 112.791 317.706 113.925 318.641C117.484 321.719 117.459 325.96 113.956 329.106C111.624 331.105 108.763 332.387 105.719 332.799C101.09 333.575 96.485 333.458 92.1203 331.537C90.4974 330.847 89.0014 329.89 87.6941 328.706C84.6653 325.868 84.7145 322.002 87.651 319.066C90.2735 316.45 93.6409 315.372 97.1807 314.831C98.4489 314.609 99.7293 314.609 101.01 314.523ZM100.874 317.059C97.3684 316.883 93.8902 317.762 90.8891 319.583C87.1031 321.91 87.0908 325.579 90.8029 328.029C94.8721 330.706 99.4215 331.107 104.1 330.491C106.834 330.122 109.518 329.457 111.734 327.653C115.003 324.982 114.886 322.193 111.389 319.774C108.348 317.687 104.931 317.022 100.874 317.059Z" fill="#2B2929"/>
<path d="M310.337 116.085C310.337 121.595 310.473 127.11 310.282 132.614C310.067 135.745 309.656 138.86 309.051 141.94C308.831 142.999 308.44 144.016 307.893 144.95C306.274 147.917 303.652 148.97 300.413 147.948C297.123 146.841 294.255 144.744 292.201 141.946C289.923 139.022 288.649 135.636 287.756 132.097C286.692 127.501 286.2 122.791 286.291 118.074C286.291 107.363 286.421 96.6456 286.525 85.9284C286.525 83.897 286.168 81.6563 286.895 79.8896C287.941 77.3288 288.427 74.2201 291.204 72.6565C293.605 71.3084 295.963 71.8932 298.24 73.0443C303.085 75.5067 306.052 79.5325 307.844 84.5187C309.377 88.7852 310.195 93.2759 310.263 97.809C310.368 103.903 310.263 110.004 310.263 116.104L310.337 116.085ZM301.435 97.4889C301.435 91.881 301.435 86.2731 301.435 80.6652C301.435 78.049 296.393 74.0477 293.863 74.6879C293.029 74.9614 292.295 75.4754 291.752 76.1653C291.201 76.8596 290.827 77.6771 290.662 78.5476C290.046 81.8163 289.135 85.1035 289.123 88.3968C289.092 100.678 289.339 112.958 289.542 125.239C289.685 129.074 290.595 132.842 292.22 136.32C293.755 139.878 296.465 142.803 299.896 144.605C303.011 146.255 304.938 145.535 306.052 142.192C307.388 138.259 308.189 134.454 305.591 130.404C302.205 125.134 301.799 118.899 301.491 112.817C301.232 107.726 301.435 102.604 301.435 97.4889V97.4889ZM304.951 84.2355L304.23 84.4079C304.23 93.8262 304.058 103.251 304.316 112.657C304.421 116.523 305.449 120.364 306.065 124.217C306.076 124.639 306.242 125.042 306.531 125.349C306.821 125.656 307.214 125.845 307.635 125.879C307.69 124.722 307.776 123.774 307.776 122.801C307.776 115.833 307.918 108.865 307.733 101.903C307.571 97.9156 307.185 93.9409 306.576 89.9973C306.305 88.0275 305.511 86.1808 304.951 84.2355Z" fill="#2A2929"/>
<path d="M376.59 132.688C378.332 134.085 378.067 135.532 378.049 136.867C377.932 145.886 377.778 154.904 377.642 163.916C377.642 165.073 377.642 166.23 377.642 167.886C376.442 167.603 375.561 167.591 374.897 167.215C369.853 164.371 364.84 161.48 359.857 158.542C358.454 157.717 358.361 157.071 359.359 155.679C364.382 148.666 369.432 141.671 374.509 134.694C375.141 133.965 375.838 133.294 376.59 132.688V132.688ZM362.769 157.138C367.22 159.693 370.901 162.063 375.081 164.039V150.01L362.769 157.138ZM375.291 138.886L374.724 138.788L365.201 152.048C368.279 150.818 371.224 149.28 373.992 147.455C374.331 147.193 374.614 146.865 374.825 146.492C375.037 146.119 375.172 145.708 375.223 145.282C375.401 143.14 375.291 141.01 375.291 138.886Z" fill="#262726"/>
<path d="M225.93 46.1991C227.82 46.7592 228.06 47.7688 228.029 48.9199C227.906 53.6229 227.728 58.3321 227.654 63.0351C227.58 67.7381 227.654 72.2688 227.617 76.9041C227.617 77.5873 227.617 78.2768 227.617 78.9662C227.525 81.4285 226.878 81.8533 224.797 80.6591C220.028 77.9177 215.268 75.162 210.515 72.3919C208.311 71.1053 208.207 70.6313 209.727 68.5322C213.519 63.2752 217.326 58.0305 221.147 52.798L225.93 46.1991ZM212.731 70.5082C216.991 72.9705 220.704 75.5067 225.185 77.4765C225.185 74.8111 225.216 72.6689 225.185 70.5267C225.155 68.3845 225.388 66.1438 224.933 63.5276L212.731 70.5082ZM225.271 52.3979L224.693 52.2194L215.089 65.5774C217.86 64.3939 220.546 63.022 223.129 61.4715C223.846 61.1381 224.442 60.5898 224.834 59.9027C225.225 59.2155 225.393 58.4235 225.315 57.6365C225.179 55.8944 225.259 54.1708 225.259 52.3979H225.271Z" fill="#262726"/>
<path d="M535.805 286.502C532.826 282.882 532.82 279.072 535.805 275.637C538.926 272.036 543.137 270.478 547.6 269.481C553.785 268.104 560.247 268.709 566.069 271.211C568.716 272.319 571.111 273.833 572.797 276.265C575.352 279.958 575.26 283.763 572.182 286.957C570.575 288.675 568.649 290.063 566.512 291.045C557.955 294.634 549.337 294.609 540.866 290.614C539.94 290.084 539.057 289.483 538.225 288.816L538.305 288.736C539.314 289.057 540.33 289.352 541.327 289.715C542.977 290.331 544.59 290.977 546.252 291.531C547.416 291.913 548.573 291.907 549.472 290.86L554.286 291.119C555.69 293.353 556.625 293.427 558.46 291.445C558.574 291.295 558.673 291.134 558.755 290.965C559.309 290.829 559.863 290.669 560.424 290.546C563.908 289.801 567.195 288.601 569.812 286.071C572.89 283.122 572.89 279.497 569.812 276.573C568.703 275.471 567.395 274.59 565.958 273.975C563.526 273.027 560.953 272.454 558.435 271.722C558.427 271.527 558.376 271.336 558.285 271.163C558.194 270.99 558.066 270.839 557.91 270.721C557.754 270.604 557.574 270.522 557.383 270.482C557.192 270.442 556.994 270.445 556.804 270.491C554.557 270.805 552.316 271.186 550.069 271.537C549.911 271.641 549.719 271.679 549.533 271.642C549.38 270.614 548.795 270.337 547.865 270.7C544.984 271.839 541.943 272.701 539.247 274.203C535.165 276.493 534.088 280.358 535.713 284.945C535.833 285.414 535.905 285.895 535.928 286.379L535.805 286.502Z" fill="#3E2514"/>
<path d="M538.194 288.835L535.806 286.502L535.91 286.397C536.519 286.45 537.089 286.715 537.521 287.146C537.954 287.577 538.22 288.147 538.274 288.755L538.194 288.835Z" fill="#3E2514"/>
<path d="M71.3619 176.135C74.4893 177.939 77.0502 179.601 79.7712 180.943C83.391 182.728 84.573 185.898 84.4376 189.444C84.0744 199.244 76.8532 207.745 69.3427 210.478C66.3447 211.568 63.636 211.414 60.9396 209.678C58.7593 208.171 56.4666 206.833 54.0817 205.677C48.9351 203.405 48.0733 199.176 48.8489 194.147C49.6985 188.607 52.4995 184.07 56.4887 180.229C57.0438 179.757 57.6255 179.317 58.2309 178.911L51.1883 174.744C51.0959 163.269 51.8778 154.51 59.9423 141.084C59.2563 141.319 58.5842 141.592 57.9292 141.903C53.6692 144.334 49.3845 146.723 45.1984 149.29C44.5661 149.752 43.8049 150.004 43.022 150.01C42.239 150.017 41.4736 149.778 40.8337 149.327C37.9095 147.548 34.9299 145.849 31.9873 144.119C31.4825 136.166 33.2185 128.816 36.432 121.736C39.0243 115.886 42.6863 110.57 47.2299 106.064C55.1775 98.2769 64.1654 92.0349 75.2834 89.5911C79.1125 88.7539 82.8431 89.0309 86.3213 91.2593C89.2086 93.106 92.262 94.688 95.2539 96.3747C99.0707 98.5169 100.893 102.013 101.712 106.101C103.078 112.963 102.504 120.07 100.056 126.624C97.6302 133.316 93.9426 139.336 90.2982 145.387C88.0758 149.08 85.9889 152.848 84.0128 156.689C82.2924 160.122 81.4606 163.932 81.5934 167.769C81.6775 168.543 81.5111 169.322 81.1188 169.994C80.7265 170.665 80.129 171.193 79.4142 171.5C76.8286 172.854 74.3477 174.399 71.3619 176.135ZM78.6139 168.668C78.8044 162.322 80.5936 156.127 83.8158 150.656C86.9924 145.35 90.249 140.081 93.2655 134.651C97.6917 126.747 100.776 118.431 99.3539 109.136C99.0071 106.819 98.3486 104.56 97.3962 102.42C96.5661 100.784 95.2533 99.4436 93.6357 98.5792C92.0181 97.7149 90.1739 97.3686 88.3529 97.5874C85.5441 98.029 82.7853 98.7445 80.116 99.7235C74.2492 101.872 69.078 105.264 64.2208 109.166C53.1398 118.055 46.5281 129.48 44.5643 143.577C44.5347 144.4 44.5717 145.223 44.6751 146.039C45.6601 145.584 46.3803 145.313 47.039 144.931C51.2929 142.469 55.4914 139.914 59.8069 137.545C61.6537 136.529 63.0081 135.482 62.8234 133.1C62.8519 132.116 63.0606 131.146 63.439 130.238C65.1196 124.839 68.1115 120.481 73.535 118.271C77.3211 116.732 80.1036 118.271 81.0886 122.241C82.1996 126.687 81.6181 131.386 79.4573 135.427C77.1856 139.884 74.8217 144.322 72.1315 148.539C67.7175 155.439 64.8734 162.857 64.0238 171.013C63.833 172.897 64.0238 174.818 64.0238 177.071L78.6139 168.668ZM41.677 146.569C42.5266 133.537 47.2976 122.623 55.75 113.439C64.2023 104.254 74.2615 97.809 86.5307 94.8912C82.837 91.5794 78.7 91.3762 74.3169 92.552C67.1635 94.4726 60.9581 98.2338 55.1651 102.709C47.2688 108.682 41.1933 116.738 37.6202 125.972C35.5779 131.198 34.5117 136.754 34.4744 142.364L41.677 146.569ZM61.506 202.439C61.4598 203.07 61.4598 203.703 61.506 204.335C61.8507 207.246 64.0054 208.748 66.9111 208.09C67.865 207.884 68.7924 207.57 69.6752 207.154C73.9845 205.055 76.9763 201.651 79.2356 197.52C80.7562 194.732 81.8089 191.814 81.5688 188.564C81.261 184.408 78.5892 182.636 74.6555 183.99C74.0143 184.219 73.396 184.507 72.8086 184.852C69.6527 186.662 66.9564 189.175 64.9288 192.195C62.928 195.138 61.2967 198.216 61.5121 202.426L61.506 202.439ZM61.0319 177.286C61.2166 166.667 63.556 156.972 69.2134 148.176L61.8261 144.033C56.1501 151.34 53.1152 164.538 54.174 173.31L61.0319 177.286ZM58.4833 204.987C58.4833 193.396 64.1777 185.904 74.1691 180.98L68.5547 177.748C68.1115 177.945 67.8468 178.068 67.5759 178.173C65.3166 179.102 63.5621 181.466 60.6503 180.573C60.404 180.499 59.9546 180.887 59.6653 181.14C54.7958 185.338 51.5022 190.373 51.3853 197.04C51.336 199.761 52.3025 201.78 54.8635 202.962C56.0208 203.497 57.0859 204.193 58.4833 204.987ZM62.7926 142.044L70.42 146.353C71.0357 145.245 71.5405 144.371 72.0884 143.399L64.6394 139.219C63.9807 140.204 63.4759 141.004 62.7926 142.044ZM67.6806 133.796C67.2743 134.559 67.0157 135.058 66.6463 135.747L74.1076 140.056L75.1541 138.074L70.2292 135.205C69.472 134.774 68.7086 134.362 67.7175 133.796H67.6806Z" fill="#2A2929"/>
<path d="M589.758 97.4705C590.115 98.4677 590.472 99.4588 590.823 100.456C590.644 102.235 590.472 104.014 590.293 105.793C590.09 106.409 589.887 106.987 589.678 107.584C589.295 107.964 588.958 108.388 588.674 108.846C588.51 109.232 588.217 109.548 587.845 109.74C587.473 109.932 587.046 109.988 586.637 109.899C584.667 108.563 582.746 107.153 580.715 105.928C579.256 105.048 577.636 104.408 576.11 103.663L575.98 100.425C576.746 100.361 577.464 100.028 578.007 99.4846C578.55 98.9415 578.883 98.2236 578.948 97.4581V97.4581C579.799 97.3234 580.637 97.1175 581.453 96.8426C582.771 96.2093 584.232 95.9339 585.69 96.0441C587.147 96.1543 588.55 96.6462 589.758 97.4705V97.4705Z" fill="#232323"/>
<path d="M586.766 113.494C585.936 114.99 584.802 116.296 583.436 117.326C582.07 118.357 580.503 119.09 578.837 119.477C575.334 120.327 571.924 118.289 571.449 114.744C570.975 111.198 571.105 107.504 573.481 104.383L573.721 104.574C573.475 106.064 573.198 107.56 573.813 109.031C573.758 110.385 573.586 111.746 573.66 113.094C573.869 116.787 576.325 118.314 579.662 116.72C581.028 116.073 582.161 114.934 583.399 114.017L586.692 113.402L586.766 113.494Z" fill="#3E2514"/>
<path d="M589.758 97.4705C588.556 96.6479 587.16 96.1548 585.708 96.0404C584.256 95.9259 582.8 96.194 581.484 96.818C580.668 97.0929 579.829 97.2988 578.979 97.4335C581.816 94.5711 585.03 93.7832 587.837 95.4268C588.594 95.8946 589.142 96.781 589.758 97.4705Z" fill="#3E2514"/>
<path d="M586.68 109.874C587.089 109.964 587.516 109.907 587.888 109.715C588.26 109.523 588.553 109.207 588.717 108.822C589.001 108.363 589.338 107.94 589.721 107.56C589.721 110.022 588.243 111.758 586.772 113.494L586.673 113.414C586.92 112.312 586.15 111.733 585.485 111.099L586.68 109.874Z" fill="#3E2514"/>
<path d="M576.017 100.401L576.146 103.639L575.568 104.611L573.721 104.574L573.481 104.383C574.312 103.054 575.162 101.724 576.017 100.401Z" fill="#3E2514"/>
<path d="M578.972 97.4397C578.908 98.2051 578.575 98.923 578.032 99.4662C577.489 100.009 576.771 100.343 576.005 100.407C576.229 99.7125 576.615 99.0815 577.131 98.5656C577.647 98.0497 578.278 97.6638 578.972 97.4397V97.4397Z" fill="#3E2514"/>
<path d="M590.281 105.793C590.46 104.014 590.632 102.235 590.81 100.456C591.759 102.346 591.248 104.094 590.281 105.793Z" fill="#3E2514"/>
<path d="M589.702 107.572C589.899 106.956 590.103 106.378 590.318 105.781L589.702 107.572Z" fill="#3E2514"/>
<path d="M100.874 317.059C104.931 317.059 108.366 317.675 111.389 319.774C114.886 322.193 115.003 324.982 111.734 327.653C109.518 329.457 106.809 330.116 104.1 330.491C99.4155 331.107 94.8661 330.706 90.803 328.029C87.1094 325.566 87.1094 321.91 90.8892 319.583C93.8903 317.762 97.3685 316.883 100.874 317.059V317.059Z" fill="#777878"/>
<path d="M301.435 97.4889C301.435 102.604 301.232 107.732 301.491 112.829C301.798 118.911 302.205 125.141 305.591 130.416C308.189 134.467 307.388 138.271 306.052 142.204C304.92 145.547 302.974 146.267 299.896 144.617C296.465 142.815 293.755 139.891 292.22 136.332C290.595 132.854 289.685 129.087 289.542 125.251C289.338 112.94 289.092 100.69 289.123 88.4091C289.123 85.1281 290.059 81.8409 290.662 78.5599C290.827 77.6894 291.201 76.8719 291.752 76.1776C292.294 75.4877 293.029 74.9737 293.863 74.7003C296.393 74.0847 301.417 78.0613 301.435 80.6775C301.472 86.2854 301.435 91.8933 301.435 97.5012V97.4889Z" fill="#658C6B"/>
<path d="M304.95 84.2355C305.511 86.1561 306.305 88.0398 306.576 89.9973C307.185 93.949 307.572 97.932 307.733 101.927C307.918 108.889 307.788 115.858 307.776 122.826C307.776 123.774 307.69 124.722 307.635 125.904C307.214 125.869 306.821 125.68 306.531 125.373C306.242 125.067 306.075 124.664 306.065 124.242C305.449 120.388 304.421 116.547 304.316 112.681C304.058 103.275 304.23 93.8509 304.23 84.4325L304.95 84.2355Z" fill="#F3EEF4"/>
<path d="M362.769 157.138L375.081 150.01V164.039C370.901 162.094 367.22 159.693 362.769 157.138Z" fill="#638969"/>
<path d="M375.29 138.886C375.29 141.01 375.401 143.14 375.235 145.252C375.184 145.677 375.049 146.088 374.837 146.462C374.626 146.835 374.343 147.162 374.004 147.425C371.234 149.26 368.284 150.809 365.2 152.048L374.724 138.819L375.29 138.886Z" fill="#F3EEF4"/>
<path d="M212.719 70.5082L224.908 63.5275C225.364 66.1437 225.124 68.3475 225.161 70.5267C225.198 72.7058 225.161 74.8357 225.161 77.4765C220.691 75.5067 216.979 72.952 212.719 70.5082Z" fill="#638969"/>
<path d="M225.259 52.3979C225.259 54.1461 225.179 55.8944 225.259 57.6365C225.339 58.4214 225.174 59.2119 224.786 59.8988C224.398 60.5858 223.806 61.1353 223.092 61.4715C220.509 63.022 217.823 64.3938 215.052 65.5774L224.699 52.2194L225.259 52.3979Z" fill="#F3EEF4"/>
<path d="M538.274 288.755C538.22 288.147 537.953 287.577 537.521 287.146C537.089 286.715 536.519 286.45 535.91 286.397C535.886 285.913 535.814 285.433 535.695 284.963C534.07 280.401 535.147 276.511 539.228 274.221C541.912 272.719 544.954 271.857 547.847 270.718C548.777 270.355 549.361 270.632 549.515 271.66C549.515 278.062 549.495 284.468 549.454 290.879C548.555 291.925 547.398 291.931 546.234 291.55C544.572 290.996 542.959 290.318 541.309 289.734C540.3 289.377 539.278 289.075 538.274 288.755Z" fill="#252424"/>
<path d="M558.405 271.74C560.923 272.473 563.496 273.045 565.927 273.993C567.365 274.608 568.672 275.49 569.781 276.591C572.859 279.515 572.859 283.141 569.781 286.089C567.165 288.619 563.877 289.82 560.393 290.565C559.833 290.688 559.279 290.848 558.725 290.983C558.54 290.445 558.418 289.887 558.362 289.321C558.362 283.461 558.362 277.625 558.405 271.74Z" fill="#FBF5FB"/>
<path d="M558.405 271.74C558.362 277.625 558.362 283.461 558.362 289.321C558.428 289.891 558.56 290.451 558.756 290.989C558.673 291.159 558.574 291.32 558.46 291.47C556.613 293.452 555.69 293.378 554.286 291.143V271.556H550.069C552.316 271.205 554.557 270.823 556.804 270.509C556.992 270.469 557.186 270.47 557.374 270.512C557.561 270.554 557.737 270.637 557.89 270.754C558.042 270.871 558.167 271.02 558.256 271.19C558.345 271.361 558.396 271.548 558.405 271.74V271.74Z" fill="#313030"/>
<path d="M550.039 271.556H554.256V291.168L549.441 290.909C549.441 284.503 549.462 278.097 549.503 271.691C549.597 271.705 549.692 271.7 549.784 271.677C549.876 271.653 549.963 271.612 550.039 271.556V271.556Z" fill="#FEF8FE"/>
<path d="M78.614 168.668L64.0239 177.071C64.0239 174.818 63.8639 172.897 64.0239 171.013C64.855 162.857 67.7176 155.439 72.1131 148.52C74.8033 144.304 77.1673 139.865 79.4389 135.408C81.5873 131.372 82.162 126.683 81.0518 122.247C80.0668 118.277 77.2842 116.707 73.4982 118.277C68.0747 120.487 65.0828 124.845 63.4022 130.244C63.0237 131.152 62.8151 132.122 62.7865 133.106C62.9712 135.489 61.6353 136.535 59.77 137.551C55.4607 139.908 51.2561 142.475 47.0022 144.938C46.3435 145.319 45.6232 145.59 44.6383 146.046C44.5349 145.229 44.4978 144.406 44.5274 143.583C46.4912 129.499 53.1091 118.062 64.184 109.173C69.0412 105.276 74.2123 101.878 80.0791 99.7296C82.7498 98.7632 85.5086 98.0601 88.316 97.6305C90.137 97.4117 91.9813 97.758 93.5989 98.6223C95.2165 99.4867 96.5293 100.827 97.3594 102.463C98.3118 104.603 98.9703 106.862 99.317 109.179C100.739 118.474 97.6549 126.79 93.2286 134.694C90.2121 140.099 86.9555 145.369 83.779 150.699C80.5767 156.161 78.8005 162.34 78.614 168.668V168.668Z" fill="#658C6B"/>
<path d="M41.6832 146.557L34.4744 142.365C34.52 136.748 35.5967 131.187 37.6509 125.959C41.224 116.726 47.2996 108.67 55.1959 102.697C60.9888 98.2215 67.1942 94.4603 74.3477 92.5397C78.7308 91.3639 82.8985 91.5671 86.5614 94.8789C74.2492 97.7967 64.1716 104.291 55.7808 113.426C47.3899 122.561 42.5327 133.525 41.6832 146.557Z" fill="#F9F3F9"/>
<path d="M61.5121 202.426C61.2966 198.24 62.928 195.126 64.9288 192.183C66.9564 189.162 69.6527 186.649 72.8086 184.839C73.3959 184.495 74.0143 184.206 74.6555 183.977C78.5892 182.623 81.261 184.396 81.5688 188.551C81.8089 191.801 80.7562 194.707 79.2356 197.508C76.9763 201.638 73.966 205.043 69.6751 207.142C68.7924 207.558 67.865 207.872 66.911 208.077C64.0053 208.736 61.8507 207.234 61.506 204.322C61.4619 203.691 61.4639 203.057 61.5121 202.426V202.426Z" fill="#658B6B"/>
<path d="M61.0319 177.286L54.174 173.31C53.1336 164.538 56.1686 151.34 61.8384 144.02L69.2257 148.163C63.5559 156.972 61.2166 166.655 61.0319 177.286Z" fill="#F9F3F9"/>
<path d="M58.4834 204.987C57.0674 204.193 56.0209 203.497 54.8635 202.974C52.3026 201.792 51.3361 199.773 51.3853 197.052C51.5023 190.361 54.7958 185.356 59.6653 181.152C59.9547 180.9 60.4041 180.536 60.6503 180.586C63.5622 181.478 65.3167 179.114 67.576 178.185C67.8468 178.08 68.1116 177.957 68.5548 177.76L74.1692 180.992C64.1963 185.904 58.5141 193.396 58.4834 204.987Z" fill="#F9F3F9"/>
<path d="M62.7925 142.044C63.4635 141.004 63.9683 140.198 64.5962 139.219L72.0882 143.393C71.5403 144.365 71.0417 145.239 70.4199 146.347L62.7925 142.044Z" fill="#F3EEF4"/>
<path d="M67.7175 133.796C68.7333 134.362 69.4966 134.774 70.2477 135.205L75.1726 138.074L74.126 140.056L66.6648 135.747C67.028 135.058 67.2866 134.559 67.7175 133.796Z" fill="#F3EEF4"/>
<path d="M575.599 104.611L576.178 103.639C577.717 104.383 579.323 105.024 580.782 105.904C582.814 107.135 584.735 108.539 586.704 109.874L585.51 111.105C582.678 109.474 579.828 107.88 577.033 106.181C576.484 105.727 576.002 105.199 575.599 104.611V104.611Z" fill="#F3EEF4"/>
<path d="M583.374 114.017C582.143 114.934 581.004 116.073 579.637 116.72C576.3 118.314 573.844 116.781 573.635 113.094C573.561 111.746 573.733 110.385 573.789 109.031C574.164 108.859 574.7 108.415 574.891 108.557C577.747 110.33 580.554 112.183 583.374 114.017Z" fill="#F6F1F6"/>
<path d="M583.374 114.017C580.555 112.17 577.747 110.324 574.891 108.557C574.7 108.434 574.164 108.859 573.789 109.031C573.173 107.56 573.45 106.064 573.697 104.574L575.543 104.611C575.946 105.199 576.429 105.727 576.978 106.181C579.773 107.874 582.623 109.468 585.455 111.105C586.12 111.721 586.889 112.337 586.643 113.42L583.374 114.017Z" fill="#2B2929"/>
</g>
<defs>
<clipPath id="clip0_3198_4739">
<rect width="612" height="386.262" fill="white"/>
</clipPath>
</defs>
</svg>
