<svg xmlns="http://www.w3.org/2000/svg" xml:space="preserve" fill-rule="evenodd" stroke-linejoin="round" stroke-miterlimit="2" clip-rule="evenodd" viewBox="0 0 9 7"><path fill="#f5f5ff" fill-rule="nonzero" d="M8.062 3.938a.563.563 0 1 0 0-1.125v1.125Zm-7.5-.563-.411-.384a.564.564 0 0 0 0 .768l.411-.384Zm2.214 3.196a.563.563 0 0 0 .823-.767l-.823.767ZM3.599.946a.563.563 0 0 0-.823-.767l.823.767Zm4.463 1.867h-7.5v1.125h7.5V2.813Zm-7.911.946 2.625 2.812.823-.767L.974 2.991l-.823.768Zm.823 0L3.599.946 2.776.179.151 2.991l.823.768Z"/></svg>