<svg xmlns="http://www.w3.org/2000/svg" viewBox="0 0 995.85 995.68"><defs><style>.cls-1{fill:#c3bbaf;}.cls-2{fill:#f6efe5;}.cls-3{fill:#030303;}</style></defs><g id="Layer_2" data-name="Layer 2"><g id="Layer_1-2" data-name="Layer 1"><path class="cls-1" d="M493.89,995.68C356.27,993.47,235.06,943.23,137.5,841,40.71,739.59-5.06,617.08.44,477.09c5.24-133.23,57-247.25,153.43-339.23C255.59,40.87,378.32-5.12,518.73.45c133.63,5.3,247.92,57.31,340,154.14C955.2,256.1,1001,378.48,995.4,518.35c-5.29,133.1-57.07,246.92-153.3,339C746.17,949.1,630.43,994.12,493.89,995.68ZM507.72,53.17c-95.31.65-174.67,23.1-247.11,68.89C194.25,164,142.53,219.83,105.47,289,72.34,350.77,54.63,417,53.53,487,51.62,609.92,92.68,717,178,805.58c84.08,87.3,188.12,133.18,309.35,136,122.93,2.87,230.15-39,318.73-124.19,87.42-84.12,133.33-188.2,136.09-309.47,2.79-122.87-39.1-230-124.48-318.47C730.75,99.41,623.11,55.29,507.72,53.17Z"/><path class="cls-2" d="M507.72,53.17c115.39,2.12,223,46.24,309.94,136.29C903,277.92,944.93,385.06,942.14,507.93,939.38,629.2,893.47,733.28,806.05,817.4c-88.58,85.24-195.8,127.06-318.73,124.19-121.23-2.83-225.27-48.71-309.35-136C92.68,717,51.62,609.92,53.53,487c1.1-70,18.81-136.26,51.94-198.06,37.06-69.14,88.78-125,155.14-166.91C333.05,76.27,412.41,53.82,507.72,53.17ZM339.36,311.65h-3.48q-49.67,0-99.33,0a27.13,27.13,0,0,0-26.7,20.68,56.42,56.42,0,0,0-1.43,13c0,19.42,7.54,36.68,16.44,53.31,7.89,14.76,18.8,27.39,30.95,38.87q15.65,14.77,31.59,29.22c7.88,7.12,15.46,14.44,19.75,24.4A12.72,12.72,0,0,1,308.2,496c.05,52.83-.09,105.65.16,158.47a148,148,0,0,0,2.61,28.2c13.43,67.19,70.94,114,139.58,114,28.12,0,56.25.25,84.37-.14a171.1,171.1,0,0,0,30-2.94c64-12.37,112.15-70.47,112.47-135.63.26-54.22,0-108.44.15-162.65a16.57,16.57,0,0,1,1.81-6.74c3.39-7.24,8.71-13,14.62-18.29,10.82-9.73,21.74-19.36,32.12-29.54a261.36,261.36,0,0,0,22.77-24.88A131.38,131.38,0,0,0,769.32,379c4.67-12.93,8.29-25.73,7-39.82-1.51-16.47-12.44-27.47-29-27.48H658.88c0-13.07.26-25.74-.06-38.38-.59-23.94-11.6-41.72-32.66-53.15-10.28-5.57-21.47-6.71-33-6.6-33.42.34-59.84,26.71-59.93,60.15,0,11.76,0,23.52,0,35.28,0,.86-.09,1.72-.13,2.52H465c0-13.12.15-26.07,0-39A57.68,57.68,0,0,0,448.36,232c-16.5-17.16-37.22-21.34-59.64-17.39-29.67,5.23-49.35,29.7-49.36,59.79C339.35,286.7,339.36,299,339.36,311.65Z"/><path d="M339.36,311.65c0-12.69,0-24.95,0-37.21,0-30.09,19.69-54.56,49.36-59.79,22.42-4,43.14.23,59.64,17.39A57.68,57.68,0,0,1,465,272.46c.19,12.94,0,25.89,0,39h68.09c0-.8.13-1.66.13-2.52,0-11.76,0-23.52,0-35.28.09-33.44,26.51-59.81,59.93-60.15,11.53-.11,22.72,1,33,6.6,21.06,11.43,32.07,29.21,32.66,53.15.32,12.64.06,25.31.06,38.38h88.46c16.55,0,27.48,11,29,27.48,1.28,14.09-2.34,26.89-7,39.82a131.38,131.38,0,0,1-20.49,36.88,261.36,261.36,0,0,1-22.77,24.88c-10.38,10.18-21.3,19.81-32.12,29.54-5.91,5.31-11.23,11.05-14.62,18.29a16.57,16.57,0,0,0-1.81,6.74c-.11,54.21.11,108.43-.15,162.65-.32,65.16-48.52,123.26-112.47,135.63a171.1,171.1,0,0,1-30,2.94c-28.12.39-56.25.14-84.37.14-68.64,0-126.15-46.81-139.58-114a148,148,0,0,1-2.61-28.2c-.25-52.82-.11-105.64-.16-158.47a12.72,12.72,0,0,0-1.05-4.81c-4.29-10-11.87-17.28-19.75-24.4q-16-14.43-31.59-29.22c-12.15-11.48-23.06-24.11-30.95-38.87-8.9-16.63-16.45-33.89-16.44-53.31a56.42,56.42,0,0,1,1.43-13,27.13,27.13,0,0,1,26.7-20.68q49.67-.06,99.33,0Zm97.8,59.8H328.93c-7,0-12.94,4.67-13.84,11.49a37.26,37.26,0,0,0,.17,11.88,64.47,64.47,0,0,0,16.09,32.08c8.36,8.92,17.62,17,26.18,25.75,6.48,6.6,10.59,14.41,10.58,24.07q-.09,88.78,0,177.58a85.75,85.75,0,0,0,.78,12.52,81.39,81.39,0,0,0,81.17,70q42.33,0,84.65,0a93.54,93.54,0,0,0,12.53-.72,81.44,81.44,0,0,0,70.35-80.58c0-9.86-.08-19.73.07-29.59,0-2.3-.65-3.24-2.84-3.92a252.66,252.66,0,0,1-59.19-26.87c-42.48-26.38-75-61.74-96.12-107.29C449.39,466,442.45,443.14,440,419.18,438.41,403.46,438.08,387.6,437.16,371.45ZM613.47,530.14a26.83,26.83,0,1,0-27.07,26.51A26.72,26.72,0,0,0,613.47,530.14ZM423.13,311.58c0-11.31-.55-22.39.13-33.39.91-14.68-7.58-23.83-23-22.89-11.27.69-19,7.72-19,19,0,11.66,0,23.31,0,35,0,.76.09,1.52.14,2.33Zm193.82,0c0-13.42.22-26.65-.09-39.86-.18-7.44-6.17-14.1-13.47-15.61a46.28,46.28,0,0,0-9.5-.62c-11.11,0-18.73,7.65-18.77,18.76,0,8.36,0,16.73,0,25.09v12.24Z"/><path class="cls-2" d="M437.16,371.45c.92,16.15,1.25,32,2.85,47.73,2.44,24,9.38,46.8,19.5,68.65,21.09,45.55,53.64,80.91,96.12,107.29A252.66,252.66,0,0,0,614.82,622c2.19.68,2.87,1.62,2.84,3.92-.15,9.86,0,19.73-.07,29.59a81.44,81.44,0,0,1-70.35,80.58,93.54,93.54,0,0,1-12.53.72q-42.32.09-84.65,0a81.39,81.39,0,0,1-81.17-70,85.75,85.75,0,0,1-.78-12.52q-.08-88.78,0-177.58c0-9.66-4.1-17.47-10.58-24.07-8.56-8.74-17.82-16.83-26.18-25.75a64.47,64.47,0,0,1-16.09-32.08,37.26,37.26,0,0,1-.17-11.88c.9-6.82,6.88-11.49,13.84-11.49H437.16Zm10.55,158.48a26.83,26.83,0,1,0-26.86,26.72A26.72,26.72,0,0,0,447.71,529.93Z"/><path class="cls-3" d="M447.71,529.93A26.83,26.83,0,1,1,421.07,503,26.73,26.73,0,0,1,447.71,529.93Z"/></g></g></svg>