<svg width="113" height="86" viewBox="0 0 113 86" fill="none" xmlns="http://www.w3.org/2000/svg">
<g clip-path="url(#clip0)">
<path d="M6.00291 15.5024C12.3064 15.5024 18.618 15.5024 24.9946 15.5024C24.9946 15.9388 24.9946 16.3257 24.9946 16.7127C25.0028 18.4169 24.9053 20.1211 25.0434 21.817C25.2952 24.9372 26.14 27.9258 27.4316 30.7743C28.6013 33.3594 30.1447 35.7058 32.1023 37.7228C34.5392 40.2338 37.3823 42.1603 40.7615 43.1565C41.0215 43.2306 41.2083 43.3376 41.2002 43.6257C41.1433 45.19 41.3789 46.7624 41.0377 48.3184C40.4691 50.8871 38.9663 52.6736 36.6188 53.7603C35.5465 54.2543 34.4093 54.4107 33.2477 54.4107C29.4136 54.4107 25.5795 54.4107 21.7373 54.419C19.934 54.4272 18.2363 54.0814 16.7579 52.9865C14.5321 51.3481 13.5086 49.0923 13.5086 46.3343C13.5086 38.8013 13.5086 31.26 13.5086 23.727C13.5086 23.513 13.5168 23.2989 13.5086 23.0849C13.4599 21.9899 12.8019 21.4218 11.8434 21.1255C9.19528 20.3104 7.39196 18.5157 6.13288 16.087C6.07602 15.9717 6.02728 15.8482 5.98667 15.7165C5.97042 15.6753 5.99479 15.6177 6.00291 15.5024ZM17.099 32.4044C17.0909 33.8369 18.09 34.899 19.471 34.9237C20.795 34.9483 21.9323 33.8287 21.9566 32.4703C21.981 31.0707 20.8681 29.9263 19.4872 29.9181C18.3175 29.9099 16.9691 30.9143 17.099 32.4044Z" fill="white"/>
<path d="M38.1297 32.4455C38.1134 33.6639 37.0493 34.7507 35.8715 34.7424C34.653 34.7424 33.5483 33.5981 33.5808 32.3796C33.6133 31.1612 34.6774 30.0744 35.8552 30.0909C37.0818 30.1073 38.2597 31.2599 38.1297 32.4455Z" fill="white"/>
<path d="M17.099 32.4043C16.9772 30.9142 18.3175 29.9098 19.4872 29.918C20.8681 29.9263 21.981 31.0788 21.9566 32.4702C21.9323 33.8286 20.795 34.9483 19.471 34.9236C18.0901 34.8989 17.0828 33.8368 17.099 32.4043Z" fill="black"/>
<path d="M109.824 58.313C109.816 58.313 109.832 58.313 109.873 58.313C109.881 58.313 109.897 58.313 109.905 58.3048C109.978 58.2883 110.059 58.2801 110.141 58.2718C110.263 58.2389 110.393 58.1895 110.506 58.1401C110.571 58.066 110.652 58.0166 110.742 57.9837C110.734 57.9755 110.734 57.9755 110.726 57.9672C111.79 57.2181 111.773 56.1478 111.773 55.061C111.765 50.0308 111.782 44.9923 111.757 39.9621C111.749 38.3402 111.579 36.7348 111.067 35.1706C109.263 29.6299 104.17 25.7193 98.2079 25.6617C91.7988 25.5958 85.3897 25.5793 78.9806 25.5629C68.0064 25.5299 57.024 25.5217 46.0416 25.497C45.9116 25.497 45.7735 25.5135 45.6517 25.497C45.4811 25.4723 45.3105 25.4311 45.1724 25.3982C44.9937 24.8631 45.1968 24.5832 45.6273 24.4103C45.7979 24.3444 45.9685 24.2703 46.131 24.188C49.1365 22.6402 51.216 20.2115 52.5726 17.1325C53.0599 16.021 53.5067 14.8684 53.5473 13.6171C53.5961 12.1763 52.8812 11.4354 51.4678 11.4271C48.7628 11.4024 46.0578 11.3942 43.3529 11.3695C43.1011 11.3695 42.8411 11.3448 42.5487 11.3283C42.5324 11.0319 42.5081 10.7932 42.5081 10.5627C42.5081 9.28659 42.5243 8.00227 42.4999 6.72618C42.4837 6.14989 42.4431 5.54889 42.2887 4.99729C41.6308 2.54391 39.0883 0.765623 36.2046 1.35015C34.1982 1.76179 32.4111 3.62241 32.2568 5.68061C32.143 7.26955 32.1674 8.86671 32.1349 10.4639C32.1268 10.7438 32.1024 11.0237 32.0862 11.3119H22.6147C22.6147 10.9743 22.6147 10.6862 22.6147 10.4063C22.6147 9.02314 22.6553 7.63179 22.6066 6.24868C22.4766 2.79913 19.203 0.370448 15.7182 1.53128C13.5981 2.2393 12.2334 4.33043 12.2578 6.62739C12.274 7.92817 12.2659 9.23719 12.2578 10.5462C12.2578 10.8014 12.2253 11.0566 12.209 11.3613C11.8679 11.3613 11.6079 11.3613 11.348 11.3613C8.643 11.3777 5.93802 11.3942 3.23304 11.4189C1.95772 11.4271 1.12916 12.2339 1.22664 13.5183C1.2835 14.3004 1.51095 15.0825 1.75464 15.8317C2.96498 19.5529 5.22319 22.4262 8.70798 24.188C9.42281 24.5502 9.60964 24.9372 9.60152 25.6946C9.57715 32.7501 9.56903 39.8056 9.60152 46.8694C9.60964 47.8409 9.699 48.8535 9.96706 49.7838C11.3317 54.386 14.3291 57.2345 19.008 58.1895C19.1299 58.2142 19.2274 58.2471 19.3086 58.2965C19.3492 58.3048 19.3817 58.3212 19.4223 58.3377C19.471 58.3459 19.5279 58.3706 19.5766 58.3871C19.6579 58.3953 19.731 58.4118 19.796 58.4447C19.8122 58.4447 19.8285 58.453 19.8447 58.453C19.9422 58.453 20.0234 58.4694 20.0965 58.4941C20.4539 58.5024 20.8032 58.5188 21.1525 58.5353C21.25 58.5353 21.3475 58.5353 21.445 58.5435C22.0379 58.5188 22.6309 58.5271 23.2158 58.5271C23.3864 58.5106 23.5488 58.5024 23.7194 58.5024H31.0627C31.0627 58.5106 31.0627 58.5188 31.0627 58.5271C31.1764 58.5271 31.282 58.5353 31.3957 58.5518C31.412 58.5518 31.4282 58.5518 31.4445 58.5518C32.3948 58.5847 33.0934 59.0046 33.5158 59.8937C33.7433 60.3712 34.0032 61.0216 34.0032 61.6061C34.0195 61.672 34.0357 61.7461 34.0357 61.8202C34.0357 62.2483 34.0438 62.6846 34.0763 63.1127C34.0844 63.1786 34.0763 63.2362 34.0682 63.2939C34.1332 64.9404 34.19 66.5952 34.255 68.2418C34.3444 70.7363 34.4581 73.2391 34.5312 75.7337C34.5881 77.619 34.5881 79.5125 34.6449 81.3978C34.7018 83.2749 36.0502 84.7403 37.7804 84.7568C41.7445 84.7815 45.7167 84.7815 49.6807 84.7568C51.086 84.7486 52.3045 83.7277 52.6294 82.3281C53.0274 80.591 53.3849 78.8539 53.7666 77.1085C54.1566 75.3467 54.5627 73.5849 54.9526 71.8231C55.1069 71.7737 55.1557 71.749 55.2126 71.749C63.3844 71.749 71.5562 71.749 79.728 71.7325C80.1991 71.7325 80.3778 71.9383 80.459 72.3664C80.6865 73.4861 80.9302 74.5975 81.1739 75.7172C81.6369 77.8495 82.1161 79.9736 82.5548 82.1059C82.8472 83.5548 84.155 84.7486 85.6009 84.7568C89.565 84.7733 93.5372 84.7733 97.5012 84.7568C99.0934 84.7486 100.499 83.3161 100.572 81.7024C100.669 79.6854 100.783 77.6684 100.889 75.6513C101.027 73.1321 101.165 70.6046 101.303 68.0854C101.384 66.6282 101.441 65.1627 101.522 63.7055C101.668 61.1286 101.831 58.56 101.969 55.9831C102.123 53.1428 102.245 50.3025 102.391 47.4539C102.513 45.0417 102.708 42.6213 102.741 40.209C102.789 36.7266 101.587 33.6557 99.4264 30.9718C99.3208 30.8401 99.2396 30.6837 99.1015 30.4696C99.2883 30.4532 99.3858 30.4285 99.4833 30.4449C103.748 31.0295 107.2 35.0306 107.208 39.4022C107.216 44.6712 107.225 49.9485 107.2 55.2175C107.192 56.2383 107.33 57.1687 108.077 57.9261C108.086 57.9343 108.086 57.9425 108.086 57.9508C108.67 58.2389 109.215 58.313 109.8 58.3295C109.816 58.3212 109.824 58.313 109.824 58.313ZM36.1152 6.4545C36.1233 5.81234 36.6757 5.29367 37.2687 5.24428C37.8048 5.20311 38.4547 5.66415 38.4709 6.26515C38.5196 7.92817 38.4872 9.5912 38.4872 11.3036H36.099C36.1071 9.63237 36.0827 8.04343 36.1152 6.4545ZM35.8634 30.0909C37.09 30.1074 38.2597 31.26 38.1379 32.4455C38.1216 33.664 37.0575 34.7507 35.8796 34.7425C34.6612 34.7425 33.5564 33.5981 33.5889 32.3796C33.6133 31.1612 34.6856 30.0745 35.8634 30.0909ZM16.2299 6.79205C16.2299 6.5039 16.2706 6.19928 16.3843 5.94407C16.5874 5.48303 17.1966 5.17841 17.6109 5.25251C18.1795 5.36777 18.6344 5.8535 18.6425 6.48743C18.6669 8.00227 18.6425 9.50887 18.6425 11.0237C18.6425 11.0978 18.6019 11.1719 18.5531 11.3366H16.3193C16.2868 11.1554 16.2381 11.0072 16.2381 10.8508C16.2218 9.49241 16.2218 8.14223 16.2299 6.79205ZM36.627 53.7603C35.5547 54.2542 34.4175 54.4107 33.2559 54.4107C29.4218 54.4107 25.5877 54.4107 21.7455 54.4189C19.9422 54.4271 18.2445 54.0813 16.7661 52.9864C14.5403 51.3481 13.5168 49.0923 13.5168 46.3343C13.5168 38.8012 13.5168 31.26 13.5168 23.7269C13.5168 23.5129 13.525 23.2988 13.5168 23.0848C13.4681 21.9898 12.8101 21.4218 11.8516 21.1254C9.20349 20.3103 7.40017 18.5156 6.14109 16.0869C6.08423 15.9716 6.03549 15.8481 5.99488 15.7164C5.97863 15.6753 6.003 15.6176 6.01113 15.5024H25.0029C25.0029 15.9387 25.0029 16.3256 25.0029 16.7126C25.011 18.4168 24.9135 20.121 25.0516 21.8169C25.3034 24.9372 26.1482 27.9257 27.4398 30.7742C28.6095 33.3593 30.1529 35.7057 32.1105 37.7227C34.5475 40.2337 37.3905 42.1602 40.7697 43.1564C41.0297 43.2305 41.2165 43.3375 41.2084 43.6257C41.1515 45.1899 41.3871 46.7624 41.0459 48.3184C40.4773 50.887 38.9745 52.6735 36.627 53.7603ZM98.2323 41.411C98.0699 43.9056 97.9643 46.4001 97.8343 48.8947C97.6718 52.0808 97.5012 55.2669 97.3388 58.453C97.1519 62.0919 96.957 65.7308 96.762 69.3615C96.6402 71.5596 96.5102 73.766 96.3803 75.9642C96.299 77.3391 96.2178 78.7139 96.1284 80.1711H86.9413C85.8853 75.8983 85.008 71.5596 83.9601 67.2127C83.7083 67.188 83.4808 67.1551 83.2534 67.1551C72.8721 67.1551 62.4989 67.1551 52.1177 67.1551C51.3622 67.1551 51.3297 67.2209 51.1591 67.9948C50.7286 69.9377 50.2737 71.8725 49.827 73.8154C49.4046 75.6513 48.9903 77.4955 48.5841 79.3314C48.3973 80.1876 48.4054 80.2041 47.5769 80.2041C45.0262 80.2041 42.4756 80.2041 39.9331 80.2041C39.137 80.2041 39.1045 80.1794 39.1045 79.3396C39.072 74.3588 39.0476 69.3862 39.0151 64.4053C38.9989 62.1989 38.9908 59.9843 38.9502 57.7779C38.942 57.2921 39.0883 57.0205 39.5025 56.7652C42.0451 55.2422 43.7996 53.044 44.6932 50.1955C44.9694 49.3228 45.0912 48.3678 45.0912 47.4457C45.1237 42.0367 45.1074 36.636 45.1074 31.227C45.1074 31.013 45.1156 30.7989 45.1074 30.5849C45.0993 30.2226 45.2618 30.0415 45.6192 30.0415C45.806 30.0415 45.9847 30.0415 46.1716 30.0415C49.4452 30.0415 52.7106 30.0415 55.9842 30.0415V30.0333H87.1443V30.1815C88.6958 30.1815 90.2473 30.1732 91.7989 30.1732C92.3268 30.1732 92.6843 30.3461 93.0173 30.7331C93.6753 31.4905 94.3576 32.2315 95.0562 32.9477C97.3469 35.3188 98.4516 38.1014 98.2323 41.411Z" fill="black"/>
<path d="M109.905 59.5565H109.889H109.873H109.767C109.142 59.5318 108.386 59.4578 107.566 59.0544L107.087 58.8156L107.013 58.5522C106.12 57.5066 105.998 56.2799 105.998 55.2014C106.022 50.5005 106.014 45.8078 106.006 41.1068V39.3862C106.006 36.6117 104.373 33.9937 102.042 32.6105C103.366 34.9734 104.016 37.5255 103.984 40.2177C103.959 41.8972 103.862 43.5767 103.764 45.215C103.715 45.9806 103.675 46.7463 103.634 47.5119L103.488 50.4758C103.399 52.3281 103.309 54.1888 103.212 56.0411C103.131 57.5148 103.041 58.9885 102.96 60.4622C102.895 61.5654 102.83 62.6603 102.765 63.7635C102.716 64.5621 102.684 65.3525 102.643 66.151C102.611 66.8179 102.578 67.4765 102.546 68.1434C102.473 69.6006 102.391 71.066 102.31 72.5232L102.058 77.1665C101.977 78.6979 101.896 80.2209 101.823 81.7522C101.717 84.0327 99.7514 85.9674 97.5339 85.9757C93.5617 85.9921 89.5895 85.9921 85.6254 85.9757C83.6353 85.9674 81.8157 84.4032 81.3933 82.345C81.1009 80.896 80.776 79.447 80.4592 77.9981L79.8662 75.273C79.6956 74.4991 79.5331 73.7252 79.3707 72.9513C73.319 72.9596 67.2835 72.9596 61.2481 72.9596H55.9762L55.8138 73.6923C55.5376 74.9108 55.2614 76.1292 54.9933 77.3559C54.8471 78.0228 54.7009 78.6979 54.5547 79.3647C54.3273 80.435 54.0917 81.5135 53.848 82.5837C53.3931 84.5349 51.6629 85.951 49.7215 85.9674C47.6095 85.9757 45.595 85.9839 43.6373 85.9839C41.639 85.9839 39.7057 85.9757 37.8049 85.9674C35.4411 85.951 33.5322 83.9504 33.4591 81.4147C33.4347 80.4761 33.4185 79.5458 33.4022 78.6073C33.386 77.6523 33.3697 76.7055 33.3454 75.7505C33.2966 74.0545 33.2235 72.3586 33.1585 70.6544L32.8742 63.1625L32.8905 63.1049C32.858 62.6686 32.8499 62.2569 32.8499 61.87L32.8174 61.7547V61.5736C32.8174 61.3925 32.7524 61.0467 32.4518 60.3963C32.2406 59.9517 31.9644 59.7788 31.4364 59.7541L31.3065 59.7459C31.2252 59.7377 31.144 59.7294 31.0628 59.7294L29.9499 59.7047H23.752C23.6058 59.7047 23.484 59.713 23.3702 59.7212L23.2484 59.7294H23.0372C22.5336 59.7294 22.0299 59.7294 21.5263 59.7459H21.4776H21.4288C21.3557 59.7459 21.2907 59.7377 21.2095 59.7377C20.7952 59.7212 20.4459 59.7047 20.0966 59.6965L19.2843 59.5648L18.7401 59.3343C13.7038 58.3216 10.349 55.2096 8.83807 50.1053C8.56189 49.1667 8.4238 48.0965 8.41567 46.8451C8.38318 40.0859 8.38318 32.9646 8.41567 25.6621C8.41567 25.4892 8.39943 25.4068 8.39943 25.3821C8.3913 25.3821 8.33444 25.341 8.19635 25.2669C4.53285 23.4145 1.9822 20.3601 0.625651 16.1943C0.365713 15.3875 0.105775 14.5066 0.0407903 13.5845C-0.0241942 12.6542 0.243867 11.798 0.812482 11.1723C1.39734 10.5301 2.26651 10.1679 3.25753 10.1597C5.26392 10.1432 7.27032 10.1267 9.28484 10.1185L11.08 10.1103V9.8715C11.0882 8.793 11.0882 7.71451 11.08 6.62777C11.0475 3.73806 12.7696 1.21058 15.3771 0.346135C17.3917 -0.320723 19.4955 -0.0325745 21.1608 1.13649C22.8016 2.28908 23.7845 4.13323 23.8657 6.1832C23.9064 7.16291 23.8901 8.15085 23.882 9.09762C23.882 9.4187 23.8739 9.73978 23.8739 10.0609H30.9491C30.9572 9.67392 30.9572 9.29521 30.9653 8.90826C30.9734 7.82153 30.9897 6.69364 31.0709 5.56574C31.2577 2.9971 33.3779 0.650749 35.9935 0.115616C39.3402 -0.567708 42.63 1.42463 43.4911 4.6519C43.6454 5.2282 43.7185 5.85389 43.7429 6.67717C43.7591 7.54162 43.7591 8.40606 43.7591 9.27051C43.7591 9.55042 43.7591 9.83857 43.7591 10.1185L46.6753 10.135C48.2918 10.1432 49.9002 10.1514 51.5167 10.1679C52.5645 10.1761 53.385 10.4972 53.9698 11.1147C54.5547 11.7321 54.8309 12.5801 54.7984 13.6421C54.7497 15.1487 54.2135 16.4825 53.718 17.6186C52.4833 20.4424 50.6962 22.6653 48.4055 24.2625L56.025 24.2789C63.6931 24.2872 71.3695 24.3036 79.0376 24.3201C86.1778 24.3366 92.1807 24.3613 98.273 24.4189C104.658 24.4765 110.287 28.6423 112.277 34.7758C112.773 36.3071 113.025 37.9948 113.033 39.946C113.049 43.0333 113.049 46.1288 113.041 49.2161C113.041 51.1591 113.041 53.102 113.041 55.045C113.041 55.8518 113.041 56.8233 112.586 57.7124L109.905 59.5565ZM35.2949 63.3437L35.563 70.5638C35.628 72.268 35.6929 73.9722 35.7498 75.6764C35.7823 76.6396 35.7904 77.6029 35.8067 78.5661C35.8229 79.4882 35.8392 80.4185 35.8635 81.3406C35.896 82.5673 36.7246 83.4893 37.7887 83.4976C41.5334 83.5223 45.4162 83.5223 49.6809 83.4976C50.5094 83.4893 51.2567 82.8719 51.4517 82.0239C51.6954 80.9701 51.9228 79.9081 52.1503 78.846C52.2965 78.171 52.4427 77.4959 52.5889 76.8208C52.857 75.5941 53.1413 74.3756 53.4175 73.1489L53.9455 70.8273L54.7253 70.5885C54.8309 70.5556 55.0015 70.4897 55.237 70.4897H61.24C67.4135 70.4897 73.5789 70.4897 79.7525 70.4815C79.7525 70.4815 79.7525 70.4815 79.7606 70.4815C80.776 70.4815 81.4745 71.0743 81.6857 72.1034C81.8645 72.9843 82.0513 73.857 82.2462 74.7379L82.8392 77.4547C83.1641 78.9119 83.4809 80.3773 83.7815 81.8346C83.9683 82.7484 84.805 83.4976 85.6417 83.4976C89.6057 83.5141 93.5698 83.5141 97.5339 83.4976C98.4599 83.4976 99.3453 82.6002 99.394 81.6205C99.4671 80.081 99.5484 78.5497 99.6296 77.0184L99.8814 72.3751C99.9627 70.9178 100.044 69.4606 100.117 68.0034C100.149 67.3448 100.182 66.6862 100.214 66.0275C100.255 65.2207 100.288 64.4221 100.336 63.6153C100.401 62.5121 100.466 61.4089 100.531 60.3057C100.621 58.8403 100.71 57.3666 100.783 55.9012C100.881 54.0488 100.97 52.1964 101.059 50.344L101.205 47.3802C101.246 46.6063 101.287 45.8325 101.335 45.0586C101.433 43.4532 101.53 41.7984 101.555 40.1765C101.595 37.1386 100.572 34.2983 98.5167 31.7296C98.4111 31.5979 98.3218 31.4662 98.2243 31.2933L96.9977 29.3668L99.1828 29.2104C99.3047 29.1939 99.4834 29.1775 99.6865 29.2022C104.52 29.869 108.459 34.4382 108.467 39.3779V41.0986C108.476 45.7995 108.476 50.5005 108.459 55.2014C108.459 56.0494 108.565 56.5351 108.866 56.9056C109.06 56.9797 109.247 57.0208 109.459 57.0455L109.832 57.0702C109.865 57.062 109.897 57.062 109.922 57.0538C109.946 57.0373 109.97 57.0208 109.995 57.0044L110.068 56.955C110.547 56.6174 110.596 56.2058 110.588 55.1273C110.588 53.1267 110.588 51.1838 110.588 49.2326C110.588 46.1453 110.588 43.058 110.58 39.9707C110.571 38.283 110.368 36.834 109.946 35.5579C108.281 30.4288 103.569 26.9464 98.2324 26.897C92.1483 26.8393 86.1534 26.8146 79.0133 26.7982C71.3451 26.7817 63.6688 26.7652 56.0006 26.757L46.0661 26.7405H45.9767C45.8224 26.7405 45.6681 26.7488 45.5137 26.7241C45.3513 26.6994 45.1888 26.6665 45.0426 26.6335L44.2628 26.4689L44.0353 25.8102C43.6617 24.707 44.1084 23.7109 45.1888 23.2745C45.3269 23.2169 45.465 23.1593 45.595 23.0934C48.235 21.735 50.1601 19.6192 51.4761 16.6306C51.8985 15.6674 52.3127 14.6383 52.3452 13.5845C52.3533 13.2305 52.2965 12.967 52.1909 12.8518C52.0853 12.7365 51.8172 12.6707 51.4761 12.6707C49.8677 12.6542 48.2512 12.646 46.6428 12.6377L43.3611 12.613C43.1743 12.613 42.9793 12.5966 42.7763 12.5883L41.4116 12.5142L41.3385 11.1394C41.3222 10.9335 41.3141 10.7524 41.3141 10.5713C41.3141 10.1432 41.3141 9.71508 41.3141 9.28697C41.3141 8.44723 41.3222 7.60748 41.2979 6.76773C41.2897 6.38079 41.2654 5.81273 41.1354 5.32699C40.6724 3.5981 38.8041 2.09149 36.4646 2.569C34.9294 2.88184 33.5972 4.32259 33.4916 5.77979C33.4185 6.82536 33.4022 7.8627 33.3941 8.96589C33.386 9.47633 33.386 9.995 33.3697 10.5054C33.3372 10.703 33.321 10.9171 33.3048 11.1311L33.2235 12.5472H21.3963V10.4066C21.3963 9.9703 21.4045 9.53396 21.4045 9.09762C21.4126 8.17554 21.4207 7.22054 21.3882 6.29846C21.3395 5.03061 20.7384 3.89448 19.7311 3.18646C18.6995 2.46197 17.3754 2.28908 16.092 2.70895C14.4999 3.23585 13.452 4.80832 13.4682 6.61131C13.4845 7.70627 13.4763 8.80124 13.4682 9.8962V10.5466C13.4682 10.7524 13.452 10.95 13.4357 11.1723L13.3383 12.5883L9.25235 12.6048C7.24595 12.6213 5.23955 12.6295 3.23316 12.646C2.9326 12.646 2.68891 12.7283 2.55894 12.8683C2.44522 13.0164 2.42897 13.2552 2.4371 13.4281C2.48583 14.0785 2.68891 14.7865 2.90823 15.4451C4.05359 18.9605 6.18995 21.5292 9.25235 23.0769C10.3408 23.6285 10.8282 24.4354 10.8201 25.695C10.7876 32.9893 10.7876 40.1024 10.8201 46.8533C10.8282 47.8742 10.9257 48.7139 11.1369 49.422C12.3879 53.6454 15.0441 56.1152 19.2518 56.9714C19.4387 57.0126 19.6255 57.0702 19.788 57.1526C19.8042 57.1608 19.8123 57.1608 19.8286 57.169C19.853 57.1773 19.8773 57.1855 19.9017 57.1937C19.9504 57.202 19.9992 57.2184 20.0479 57.2267C20.121 57.2349 20.1941 57.2431 20.2672 57.2596C20.584 57.2678 20.9008 57.2843 21.2176 57.2925C21.2664 57.2925 21.3638 57.2925 21.4613 57.2925C21.9812 57.2761 22.5011 57.2761 23.0209 57.2761H23.1753C23.3702 57.2596 23.5652 57.2514 23.7601 57.2514H32.2975V57.3996C33.3454 57.6465 34.1414 58.3052 34.6288 59.3343C34.8725 59.8529 35.1974 60.6268 35.2299 61.4336C35.2543 61.5571 35.2624 61.6806 35.2624 61.7959C35.2624 62.1828 35.2624 62.5862 35.303 62.9732C35.3111 63.1049 35.303 63.2284 35.2949 63.3437ZM19.3168 59.573C19.3412 59.5813 19.3656 59.5895 19.3818 59.5977L19.3168 59.573ZM39.9251 81.4558C38.4629 81.4558 37.8862 80.8713 37.878 79.3647L37.7887 63.5906C37.7806 61.6642 37.7643 59.7377 37.7318 57.8194C37.7156 56.8891 38.0892 56.1976 38.8853 55.7201C41.1679 54.3534 42.7356 52.3693 43.5398 49.8418C43.7591 49.1503 43.881 48.327 43.881 47.4625C43.9054 43.412 43.9054 39.3615 43.9054 35.3109V31.2521V31.0134C43.9054 30.8899 43.9054 30.7746 43.9054 30.6511C43.881 29.9843 44.1491 29.5726 44.3684 29.3339C44.5877 29.1034 44.9776 28.807 45.6437 28.8317H48.1456C50.4607 28.8317 52.7839 28.8317 55.0989 28.8317H55.9925H88.371V28.9799C89.5164 28.9799 90.6536 28.9716 91.799 28.9716C91.8071 28.9716 91.8071 28.9716 91.8152 28.9716C92.6681 28.9716 93.3667 29.2927 93.9353 29.9596C94.5446 30.6594 95.2107 31.3839 95.9255 32.1248C98.5005 34.7593 99.6783 37.9207 99.4428 41.5102C99.329 43.2473 99.2397 44.9845 99.1585 46.7216L98.5492 58.5357C98.3624 62.1746 98.1674 65.8135 97.9725 69.4524C97.875 71.2719 97.7694 73.0831 97.6638 74.9025L97.2739 81.4394H85.9828L85.7554 80.5091C85.1787 78.1874 84.6507 75.8081 84.1389 73.5112C83.7653 71.8235 83.3835 70.1275 82.9854 68.4233C72.7585 68.4233 62.5397 68.4151 52.3127 68.4233C52.0528 69.6088 51.7766 70.7943 51.5004 71.9799L50.9237 74.4744C50.5338 76.1951 50.1439 77.9157 49.7621 79.6364C49.4534 81.0524 48.9417 81.4723 47.5689 81.4723L39.9251 81.4558ZM40.1687 57.8194C40.2012 59.7788 40.2175 61.6806 40.2256 63.5742L40.315 78.986H47.4145C47.7882 77.2653 48.1781 75.5859 48.5599 73.8981L49.1366 71.3953C49.4209 70.1769 49.6971 68.9584 49.9652 67.74C50.2251 66.5709 50.6394 65.9288 52.1097 65.9288C62.4909 65.9288 72.8722 65.9288 83.2454 65.9288C83.4403 65.9288 83.6353 65.9452 83.8384 65.9699L84.9268 66.0687L85.138 66.9332C85.6173 68.942 86.0641 70.9508 86.5108 72.9431C86.9495 74.919 87.4044 76.9525 87.8837 78.9531H94.9751L95.2269 74.7461C95.3325 72.9349 95.4381 71.1237 95.5356 69.3042C95.7305 65.6653 95.9255 62.0346 96.1123 58.3957L96.7215 46.5899C96.8109 44.8363 96.8921 43.0827 97.0059 41.3373C97.2008 38.4394 96.2748 35.9942 94.1871 33.8537C93.4398 33.0881 92.7331 32.3224 92.0995 31.5814C91.9777 31.4415 91.9614 31.4415 91.799 31.4415C90.2475 31.4497 88.696 31.4497 87.1444 31.4497H85.926V31.3015L55.9844 31.3098C53.3687 31.3098 50.7531 31.3098 48.1375 31.3098H46.326V35.3109C46.326 39.3697 46.3342 43.4285 46.3017 47.4872C46.2935 48.5987 46.1311 49.6772 45.8386 50.5993C44.872 53.703 42.955 56.1317 40.1687 57.8194ZM45.6274 31.3015C45.6193 31.3015 45.6193 31.3015 45.6274 31.3015V31.3015ZM21.7131 55.6542C19.4306 55.6542 17.5704 55.1108 16.0514 53.9829C13.5657 52.1553 12.3066 49.5784 12.2985 46.3264C12.2985 41.0492 12.2985 35.7719 12.2985 30.5029V23.538C12.2985 23.4063 12.2985 23.2663 12.2985 23.1346C12.2823 22.797 12.2173 22.5253 11.4943 22.3031C8.71623 21.4468 6.54737 19.5451 5.06085 16.6553C4.97149 16.4825 4.89838 16.2931 4.8334 16.1037C4.7278 15.7827 4.77654 15.511 4.79279 15.3957L4.96337 14.3666L6.01125 14.2596H26.2214V16.7047C26.2214 17.2399 26.2133 17.775 26.2133 18.3101C26.1971 19.4874 26.1808 20.6071 26.2702 21.7185C26.4976 24.5588 27.2693 27.4321 28.5528 30.2642C29.6981 32.7917 31.1928 35.0145 32.988 36.8669C35.4736 39.4273 38.1299 41.0986 41.1191 41.9795C42.3863 42.3582 42.4432 43.3791 42.4351 43.6837C42.4188 44.1859 42.427 44.6799 42.4432 45.1821C42.4757 46.277 42.5001 47.4132 42.2401 48.5987C41.5903 51.5131 39.8763 53.6289 37.1307 54.8885C36.0097 55.4072 34.7831 55.646 33.256 55.646H29.0726C26.6357 55.646 24.1907 55.646 21.7538 55.6542C21.7375 55.6542 21.7294 55.6542 21.7131 55.6542ZM7.94453 16.7377C9.04927 18.3513 10.4546 19.4051 12.201 19.9485C14.313 20.5989 14.6948 22.1631 14.7273 23.044C14.7354 23.2169 14.7354 23.398 14.7354 23.5709V30.5194C14.7354 35.7966 14.7354 41.0657 14.7354 46.3429C14.7354 48.788 15.6371 50.6404 17.481 51.9988C18.5939 52.8221 19.9667 53.1926 21.7456 53.1926C24.1907 53.1844 26.6276 53.1844 29.0726 53.1844H33.256C34.4176 53.1844 35.3274 53.0115 36.1235 52.6492C38.1623 51.7107 39.3889 50.2041 39.8601 48.0553C40.055 47.1744 40.0307 46.2359 40.0063 45.2479C39.9982 44.9021 39.99 44.5564 39.99 44.2106C36.7977 43.1733 33.8652 41.2962 31.2496 38.5958C29.2595 36.5458 27.6024 34.0842 26.3433 31.2933C24.938 28.1978 24.1013 25.0446 23.8495 21.9161C23.752 20.6894 23.7683 19.4627 23.7845 18.2772C23.7926 17.7668 23.8008 17.2481 23.7926 16.7377H7.94453ZM35.8798 35.986H35.8716C34.9619 35.986 34.0521 35.5826 33.3779 34.8828C32.7118 34.1912 32.3381 33.2692 32.3625 32.3553C32.4112 30.4535 33.9952 28.8646 35.831 28.8646C35.8473 28.8646 35.8635 28.8646 35.8716 28.8646C36.8383 28.8811 37.8293 29.3504 38.5035 30.1242C39.1209 30.824 39.4133 31.6802 39.3402 32.5282C39.2996 34.4053 37.7237 35.986 35.8798 35.986ZM35.831 31.3262C35.3274 31.3262 34.8156 31.8696 34.7994 32.413C34.7913 32.6599 34.9131 32.9399 35.1243 33.1539C35.3355 33.3762 35.6198 33.5162 35.8798 33.5162C36.3834 33.5162 36.9033 32.9728 36.9114 32.4377L36.9195 32.3224C36.9358 32.1577 36.8464 31.9437 36.6839 31.7626C36.4565 31.5074 36.1316 31.3345 35.8391 31.3345C35.8391 31.3262 35.8392 31.3262 35.831 31.3262ZM19.463 12.5636H15.2959L15.0928 11.4275C15.0603 11.2793 15.0197 11.0817 15.0197 10.8512C15.0116 9.4928 15.0035 8.13438 15.0197 6.77596C15.0279 6.26553 15.1091 5.82096 15.2715 5.44225C15.6939 4.47901 16.8474 3.84508 17.8384 4.04267C19.0082 4.27319 19.8367 5.26936 19.853 6.47135C19.8692 7.64864 19.8611 8.83417 19.853 10.0115L19.8448 11.0241C19.8448 11.2793 19.7798 11.4769 19.7392 11.5922L19.463 12.5636ZM17.5135 6.47135C17.5135 6.47135 17.5054 6.47135 17.5054 6.47958C17.5135 6.47135 17.5216 6.47135 17.5135 6.47135C17.5216 6.47135 17.5216 6.47135 17.5135 6.47135ZM39.7139 12.5472H34.8888V9.87974C34.8888 8.71068 34.8806 7.57455 34.905 6.43842C34.9294 5.18703 35.9285 4.11677 37.1795 4.01797C37.7968 3.96857 38.4548 4.20733 38.9503 4.6519C39.4214 5.08001 39.6895 5.63984 39.7057 6.24083C39.7382 7.45106 39.7382 8.67775 39.7301 9.86327L39.7139 12.5472Z" fill="black"/>
<path d="M95.0643 32.9807C94.3657 32.2644 93.6833 31.5235 93.0254 30.7661C92.6842 30.3791 92.3349 30.198 91.8069 30.2062C90.7265 30.2145 89.6543 30.2145 88.5739 30.2145V30.0992H58.6323C58.3724 30.091 58.1043 30.0745 57.8444 30.0745C53.9534 30.0663 50.0625 30.0663 46.1796 30.0663C45.9928 30.0663 45.8141 30.0663 45.6273 30.0663C45.2698 30.0663 45.0993 30.2474 45.1155 30.6096C45.1236 30.8237 45.1155 31.0378 45.1155 31.2518C45.1155 36.6608 45.1318 42.0615 45.0993 47.4705C45.0911 48.3925 44.9693 49.3475 44.7012 50.2202C43.7996 53.0605 42.0531 55.2669 39.5106 56.79C39.0882 57.0452 38.9501 57.3169 38.9582 57.8026C38.9988 60.009 39.007 62.2237 39.0232 64.4301C39.0557 69.4109 39.0801 74.3835 39.1126 79.3644C39.1207 80.2041 39.1451 80.2288 39.9411 80.2288C42.4918 80.2288 45.0424 80.2288 47.5849 80.2288C48.4135 80.2288 48.4053 80.2124 48.5922 79.3562C48.9983 77.512 49.4126 75.6761 49.835 73.8402C50.2737 71.8972 50.7367 69.9625 51.1672 68.0196C51.3378 67.2457 51.3703 67.1798 52.1257 67.1798C62.507 67.1798 72.8802 67.1798 83.2614 67.1798C83.4889 67.1798 83.7163 67.2128 83.9681 67.2374C85.016 71.5926 85.8852 75.9231 86.9493 80.1959C90.0523 80.1959 93.0416 80.1959 96.1365 80.1959C96.2258 78.7387 96.3071 77.3638 96.3883 75.9889C96.5183 73.7908 96.6483 71.5844 96.7701 69.3862C96.965 65.7473 97.16 62.1084 97.3468 58.4777C97.5174 55.2916 97.6799 52.1055 97.8423 48.9194C97.9723 46.4249 98.0779 43.9303 98.2404 41.4358C98.4516 38.1015 97.3468 35.3188 95.0643 32.9807Z" fill="white"/>
<path d="M61.4348 43.741C65.9838 43.741 69.6716 40.0034 69.6716 35.3929C69.6716 30.7824 65.9838 27.0448 61.4348 27.0448C56.8857 27.0448 53.198 30.7824 53.198 35.3929C53.198 40.0034 56.8857 43.741 61.4348 43.741Z" fill="black"/>
<path d="M84.9104 60.2313C88.7372 60.2313 91.8394 57.0872 91.8394 53.2087C91.8394 49.3303 88.7372 46.1862 84.9104 46.1862C81.0837 46.1862 77.9814 49.3303 77.9814 53.2087C77.9814 57.0872 81.0837 60.2313 84.9104 60.2313Z" fill="black"/>
<path d="M61.6215 69.8143C65.4312 69.6908 69.176 70.2177 72.9288 70.7611C73.0263 70.7611 73.1238 70.7611 73.2131 70.7611C73.2944 70.2095 73.3431 69.6414 73.3431 69.0651C73.3431 62.907 68.4124 57.9097 62.3363 57.9097C56.2603 57.9097 51.3296 62.907 51.3296 69.0651C51.3296 70.1519 51.4839 71.1974 51.7682 72.1936C54.3432 69.5673 58.2748 69.9213 61.6215 69.8143Z" fill="black"/>
<path d="M66.7717 26.4767C66.5199 26.4767 66.2843 26.4438 66.0487 26.3779C65.0983 27.44 64.5378 28.716 64.5378 30.0827C64.5378 33.8039 68.6481 36.8254 73.725 36.8254C78.7938 36.8254 82.9122 33.8039 82.9122 30.0827C82.9122 28.7572 82.3923 27.5223 81.4907 26.4767H66.7717Z" fill="black"/>
<path d="M33.5889 32.4043C33.4671 30.9142 34.8074 29.9098 35.9771 29.918C37.358 29.9263 38.4709 31.0788 38.4465 32.4702C38.4221 33.8286 37.2849 34.9483 35.9609 34.9236C34.5799 34.8989 33.5808 33.8368 33.5889 32.4043Z" fill="white"/>
<path d="M18.8455 10.2333C17.7164 10.2333 16.636 10.2333 15.515 10.2333C15.4663 10.0028 15.3932 9.80524 15.3932 9.60765C15.385 7.87053 15.3769 8.38096 15.3932 6.64384C15.4013 6.28159 15.45 5.88642 15.6206 5.55711C15.9212 4.96434 16.8309 4.56917 17.4402 4.66796C18.2931 4.80792 18.9592 5.44185 18.9754 6.2569C19.0079 8.19984 18.9836 7.89523 18.9754 9.83817C18.9754 9.92873 18.9186 10.0275 18.8455 10.2333Z" fill="white"/>
<path d="M38.9583 10.2333C37.8292 10.2333 36.7488 10.2333 35.6278 10.2333C35.5791 10.0028 35.506 9.80524 35.506 9.60765C35.4978 7.87053 35.4897 8.38096 35.506 6.64384C35.5141 6.28159 35.5628 5.88642 35.7334 5.55711C36.034 4.96434 36.9437 4.56917 37.553 4.66796C38.4059 4.80792 39.072 5.44185 39.0882 6.2569C39.1207 8.19984 39.0964 7.89523 39.0882 9.83817C39.0882 9.92873 39.0314 10.0275 38.9583 10.2333Z" fill="white"/>
</g>
<defs>
<clipPath id="clip0">
<rect width="113" height="86" fill="white"/>
</clipPath>
</defs>
</svg>
