<svg width="41" height="32" viewBox="0 0 41 32" fill="none" xmlns="http://www.w3.org/2000/svg">
<g clip-path="url(#clip0)">
<path d="M3.80264 3.53094C3.91081 0.934906 5.59101 -0.0485273 7.21996 0.00226336C8.76288 0.0498796 10.2976 1.14505 10.3463 3.46872H10.7689C10.7448 2.35831 11.1105 1.40345 11.9797 0.683493C12.5351 0.223203 13.1936 0.00861218 13.9053 -0.00154594C14.8612 -0.0148785 15.6924 0.298754 16.3674 1.00538C17.0424 1.712 17.2189 2.57735 17.2587 3.53348C17.8249 3.53348 18.3715 3.51253 18.9162 3.53983C19.4317 3.56586 19.9378 3.65093 20.3509 4.01917C21.0189 4.61342 21.1682 5.36956 21.0392 6.2057C20.9229 6.90312 20.6767 7.57231 20.3136 8.17828C20.2725 8.24875 20.2446 8.32621 20.1871 8.45573H20.8443C25.0828 8.46525 29.3162 8.46842 33.5527 8.48811C34.6237 8.49318 35.6972 8.44112 36.7549 8.72809C38.3364 9.15664 39.5472 10.0664 40.4139 11.4422C41.0408 12.4371 41.3268 13.5259 41.3135 14.7093C41.2913 16.673 41.304 18.6373 41.309 20.6017C41.309 21.2537 41.1446 21.8035 40.524 22.1387C40.221 22.3025 39.9546 22.5501 39.644 22.6809C39.0304 22.9349 38.4528 22.6669 37.8538 22.4625C37.8348 22.7165 37.8107 22.9704 37.7981 23.2282C37.7639 23.9551 37.7412 24.6827 37.7013 25.4096C37.6229 26.8413 37.5691 28.2761 37.4419 29.704C37.3236 31.0595 36.2324 31.9965 34.878 31.9965C33.5818 31.9965 32.2843 31.9915 30.9894 31.9965C29.9703 32.0016 29.1548 31.6188 28.6627 30.709C28.4729 30.3566 28.378 29.9433 28.2831 29.5472C28.1167 28.8647 27.9833 28.1733 27.8346 27.48H21.2758C21.122 28.2057 20.9715 28.9243 20.8171 29.643C20.659 30.3776 20.4148 31.0569 19.7588 31.5191C19.3271 31.8258 18.8112 31.9904 18.2823 31.9902C16.9336 32.0042 15.5849 31.9965 14.2336 31.9946C12.8362 31.9946 11.7089 30.9369 11.6469 29.5376C11.5875 28.1771 11.5653 26.8153 11.5204 25.4541C11.4926 24.6008 11.4521 23.7481 11.416 22.8612C11.3078 22.8568 11.1978 22.8472 11.0871 22.8472C10.2229 22.8504 9.35626 22.9025 8.49339 22.8504C6.41276 22.7234 4.67753 21.9514 3.62235 20.036C3.15781 19.2042 2.91446 18.2665 2.91573 17.313C2.91573 15.1163 2.91573 12.92 2.91573 10.7242C2.92235 10.6428 2.90605 10.5612 2.86869 10.4887C2.83133 10.4162 2.77442 10.3556 2.70444 10.314C1.13116 9.21505 0.241084 7.68815 0.0139791 5.79493C-0.103052 4.81721 0.525755 3.856 1.48731 3.65284C1.79483 3.58826 2.10713 3.54918 2.42103 3.53602C2.88157 3.51634 3.34337 3.53094 3.80264 3.53094ZM36.6278 12.4783C36.6945 12.5034 36.7582 12.536 36.8176 12.5755C37.5134 13.152 37.9056 13.8706 37.9012 14.7976C37.8936 16.4343 37.8936 18.071 37.9012 19.7078C37.8997 20.0551 37.9198 20.4022 37.9613 20.7471C38.0777 21.6562 38.9197 22.0289 39.6586 21.5089C39.7623 21.4365 39.8635 21.3591 39.9749 21.2975C40.2229 21.1585 40.3045 20.9566 40.3032 20.6709C40.2931 18.5904 40.2887 16.5098 40.3032 14.43C40.3069 13.7842 40.1589 13.1467 39.8711 12.5691C38.9071 10.5966 37.3135 9.5382 35.1228 9.52169C29.8956 9.48043 24.6684 9.48614 19.4412 9.47344C18.9459 9.47344 18.4499 9.47344 17.954 9.47344C19.018 8.59794 19.6949 7.52372 20.0093 6.23935C20.2687 5.1791 19.8303 4.4966 18.7213 4.54358C18.059 4.57215 17.3929 4.54358 16.7299 4.53977C16.5768 4.53977 16.4231 4.53977 16.22 4.53977C16.22 4.04901 16.2472 3.60459 16.2143 3.16525C16.1118 1.77613 15.1642 0.950778 13.7718 1.00919C12.8368 1.05045 11.9177 1.91072 11.8392 2.83638C11.793 3.3792 11.776 3.9252 11.7412 4.47819H9.31198C9.31198 4.0198 9.3202 3.58935 9.31198 3.15636C9.28161 1.79073 8.00249 0.769837 6.66643 1.03966C5.54989 1.26441 4.85276 2.15198 4.84011 3.36778C4.83631 3.7449 4.84011 4.12265 4.84011 4.53469H4.49471C3.71471 4.5385 2.93534 4.53787 2.15408 4.54802C1.37281 4.55818 0.905317 5.05593 1.02488 5.81208C1.295 7.52181 2.15028 8.85951 3.67485 9.71787C3.86969 9.82834 3.92789 9.94516 3.92789 10.1623C3.92115 12.5486 3.92115 14.9353 3.92789 17.3225C3.92875 17.5638 3.94991 17.8047 3.99115 18.0425C4.40614 20.4766 6.26853 21.7781 8.57183 21.841C9.60361 21.8695 10.6367 21.841 11.6716 21.841C12.2409 21.841 12.3864 21.9679 12.4187 22.5393C12.4725 23.5088 12.4997 24.4795 12.5307 25.4496C12.5743 26.8 12.6028 28.1517 12.6572 29.5015C12.6723 29.9014 12.8422 30.2796 13.1308 30.5559C13.4194 30.8321 13.8039 30.9845 14.2026 30.9807C15.5729 30.9833 16.9435 30.9833 18.3146 30.9807C18.968 30.9807 19.5311 30.5738 19.6924 29.9351C19.9581 28.8856 20.2029 27.8298 20.4199 26.7696C20.4736 26.5067 20.5616 26.4521 20.7994 26.4521C23.2862 26.4553 25.7736 26.4477 28.2603 26.4432H28.6399C28.8638 27.5174 29.0827 28.5561 29.2972 29.5954C29.4832 30.4887 30.1626 31.0125 30.9508 30.9922C32.2672 30.9547 33.5856 30.9826 34.9027 30.982C35.7358 30.982 36.3962 30.3751 36.4494 29.5453C36.4854 28.9872 36.4854 28.4272 36.5177 27.8685C36.6341 25.8369 36.7619 23.8053 36.877 21.7737C36.9839 19.8773 37.0915 17.9809 37.1731 16.0838C37.2016 15.4325 37.2136 14.769 37.1206 14.1278C37.039 13.5665 36.7992 13.0288 36.6297 12.4802L36.6278 12.4783Z" fill="white"/>
<path d="M36.6283 12.4773C36.7979 13.0258 37.0376 13.5635 37.1192 14.1248C37.2122 14.766 37.2002 15.4295 37.1717 16.0808C37.0901 17.9779 36.9819 19.8743 36.8757 21.7707C36.7605 23.8023 36.6327 25.8339 36.5163 27.8655C36.4841 28.4242 36.4841 28.9842 36.448 29.5423C36.3949 30.3721 35.7345 30.9784 34.9013 30.979C33.5842 30.979 32.2659 30.9517 30.9494 30.9892C30.1612 31.012 29.4818 30.4882 29.2958 29.5924C29.0788 28.5531 28.8625 27.5145 28.6385 26.4402H28.259C25.7722 26.4447 23.2848 26.4523 20.7981 26.4491C20.5583 26.4491 20.4704 26.5012 20.4185 26.7666C20.2015 27.8268 19.9567 28.8826 19.691 29.9321C19.5297 30.574 18.9667 30.9822 18.3132 30.9822C16.9434 30.986 15.5728 30.986 14.2013 30.9822C13.8026 30.9859 13.4182 30.8336 13.1297 30.5575C12.8411 30.2814 12.6711 29.9034 12.6558 29.5035C12.604 28.1538 12.5755 26.8021 12.5293 25.4517C12.4983 24.4816 12.4711 23.5109 12.4173 22.5414C12.3851 21.97 12.2364 21.8475 11.6702 21.843C10.6372 21.8386 9.60416 21.8691 8.57049 21.843C6.26402 21.7796 4.4048 20.4787 3.98981 18.0445C3.94857 17.8068 3.92741 17.5659 3.92655 17.3246C3.92149 14.9374 3.92149 12.5507 3.92655 10.1644C3.92655 9.94852 3.86329 9.8317 3.67351 9.71996C2.15147 8.85906 1.29682 7.5239 1.0267 5.81416C0.907136 5.05611 1.38032 4.5609 2.15589 4.55011C2.93147 4.53931 3.71526 4.54058 4.49652 4.53677H4.84003C4.84003 4.12473 4.84003 3.74698 4.84003 3.36986C4.85268 2.15406 5.54981 1.26649 6.66509 1.04174C8.00114 0.771919 9.28027 1.79281 9.31063 3.15844C9.32012 3.59016 9.31063 4.02188 9.31063 4.48027H11.7398C11.7721 3.92729 11.7917 3.38129 11.8379 2.83846C11.9163 1.9128 12.8355 1.05254 13.7705 1.01127C15.1622 0.947781 16.1111 1.77313 16.213 3.16606C16.2459 3.6054 16.2187 4.04982 16.2187 4.54058C16.4217 4.54058 16.5754 4.54058 16.7285 4.54058C17.3928 4.54058 18.057 4.57296 18.72 4.54439C19.8289 4.49741 20.2673 5.17928 20.0079 6.24016C19.6916 7.52453 19.0167 8.59875 17.9526 9.47426C18.4486 9.47426 18.9445 9.47426 19.4399 9.47426C24.6671 9.48696 29.8943 9.48124 35.1215 9.52251C37.3122 9.53965 38.9057 10.598 39.8698 12.5699C40.1564 13.1474 40.3036 13.7844 40.2993 14.4295C40.2848 16.5094 40.2892 18.5899 40.2993 20.6704C40.2993 20.9561 40.219 21.158 39.971 21.297C39.8609 21.3605 39.7597 21.4361 39.6547 21.5085C38.9158 22.0272 38.0732 21.6545 37.9574 20.7466C37.9159 20.4018 37.8958 20.0546 37.8973 19.7073C37.8914 18.0706 37.8914 16.4338 37.8973 14.7971C37.9018 13.8727 37.507 13.154 36.8137 12.575C36.7543 12.5356 36.6906 12.503 36.6239 12.4779L36.579 12.4576L36.6283 12.4773ZM34.461 28.9645C34.4901 28.6471 34.5243 28.3665 34.5401 28.0833C34.5958 27.0827 34.6451 26.0822 34.6982 25.0809C34.794 23.2588 34.8891 21.4361 34.9836 19.6127C35.0563 18.2115 35.124 16.8097 35.1993 15.4079C35.2366 14.7216 35.1714 14.0372 34.7824 13.4689C34.351 12.8391 33.8335 12.2671 33.3325 11.6913C33.2458 11.5916 33.0516 11.556 32.9036 11.5446C32.5373 11.5173 32.1685 11.5154 31.8009 11.5129C31.162 11.5091 30.5224 11.5129 29.8873 11.5129C29.7608 12.6322 29.0605 13.2309 28.1129 13.594C27.1753 13.9534 26.2214 13.9299 25.2712 13.6239C24.8024 15.6161 23.3101 16.6459 21.6122 16.1551C20.8126 15.9234 20.206 15.4358 19.8409 14.6879C19.3045 13.5839 19.4437 12.5192 20.149 11.4894C19.0875 11.4894 18.0779 11.4989 17.0689 11.4837C16.7766 11.4792 16.6925 11.57 16.6944 11.8646C16.7051 13.7331 16.7096 15.6021 16.6874 17.4706C16.6832 17.8911 16.6147 18.3084 16.4843 18.708C16.1952 19.5803 15.6259 20.2527 14.8491 20.7606C14.7143 20.8488 14.5695 21.0488 14.5695 21.1974C14.5739 23.7096 14.6017 26.2218 14.6201 28.7341C14.6201 28.9048 14.6751 28.9912 14.8522 28.988C15.7796 28.988 16.707 28.9931 17.6357 28.9779C17.6916 28.9669 17.7439 28.9423 17.7881 28.9062C17.8322 28.8701 17.8668 28.8236 17.8887 28.7709C18.1171 27.8325 18.3208 26.8885 18.5416 25.9482C18.7592 25.0219 18.8908 24.0651 19.3564 23.2182C20.0301 21.9884 21.0808 21.2983 22.4783 21.2177C23.9288 21.1339 25.0877 21.7224 25.8791 22.9433C26.1695 23.3909 26.3384 23.9185 26.5801 24.4467H30.2359C30.58 25.9603 30.9216 27.4592 31.2632 28.9614L34.461 28.9645ZM14.9598 16.5138C10.7302 14.6016 9.17526 11.2164 9.26002 6.86362H3.77915C4.14416 7.37851 4.58635 7.72706 5.14811 7.92959C5.92937 8.21021 6.1318 8.5067 6.13244 9.3403C6.13244 11.9592 6.14192 14.5781 6.12864 17.1963C6.12231 18.4896 7.0554 19.5162 8.24659 19.5372C9.81545 19.5645 11.3868 19.5752 12.9538 19.5156C13.9343 19.4781 14.6972 18.7188 14.8649 17.7455C14.9376 17.322 14.9332 16.8878 14.9598 16.5138ZM14.3734 12.3236C14.3765 11.8303 14.0178 11.4532 13.5383 11.4443C13.4282 11.4404 13.3185 11.459 13.2157 11.4988C13.1129 11.5386 13.0192 11.5989 12.9403 11.676C12.8613 11.7531 12.7987 11.8455 12.7563 11.9475C12.7138 12.0495 12.6923 12.1591 12.6932 12.2696C12.7008 12.8214 13.0284 13.182 13.5225 13.1832C13.6352 13.1844 13.747 13.1628 13.8512 13.1198C13.9554 13.0768 14.05 13.0133 14.1293 12.9329C14.2087 12.8526 14.2711 12.7571 14.3131 12.6521C14.355 12.5471 14.3755 12.4348 14.3734 12.3217V12.3236ZM7.6045 3.76603C7.6045 3.61873 7.6045 3.47208 7.6045 3.32478C7.59818 2.89814 7.36728 2.63149 7.00353 2.62641C6.6284 2.6207 6.36207 2.89687 6.34752 3.32034C6.33803 3.58318 6.34373 3.84666 6.34752 4.1095C6.34752 4.57233 6.34752 4.57233 6.80553 4.57233C7.6045 4.57106 7.6045 4.57106 7.60387 3.76412L7.6045 3.76603ZM13.3568 3.77999C13.3568 3.94824 13.3669 4.11839 13.3568 4.2879C13.3403 4.50186 13.408 4.59709 13.6395 4.57741C13.8712 4.56049 14.1037 4.56049 14.3354 4.57741C14.5517 4.59074 14.6416 4.519 14.6321 4.29234C14.6175 3.95522 14.6321 3.61683 14.627 3.27653C14.6213 2.90639 14.3436 2.62451 13.9982 2.62832C13.637 2.63213 13.3776 2.89306 13.3656 3.27336C13.3485 3.44033 13.3561 3.60921 13.3561 3.77809L13.3568 3.77999Z" fill="#020101"/>
<path d="M34.4612 28.9647H31.2621C30.9205 27.4625 30.5789 25.9636 30.2348 24.45H26.579C26.3373 23.9218 26.1684 23.3942 25.878 22.9466C25.0866 21.7257 23.9277 21.1372 22.4772 21.221C21.0797 21.3016 20.029 21.9917 19.3553 23.2215C18.8897 24.0697 18.7581 25.0265 18.5405 25.9515C18.3197 26.8918 18.116 27.8358 17.8876 28.7742C17.8657 28.8269 17.8311 28.8734 17.787 28.9095C17.7428 28.9456 17.6905 28.9702 17.6346 28.9812C16.7078 28.9964 15.7804 28.9894 14.8511 28.9913C14.674 28.9913 14.6202 28.9056 14.619 28.7374C14.6006 26.2251 14.5728 23.7129 14.5684 21.2007C14.5684 21.0521 14.7132 20.8521 14.848 20.7639C15.6261 20.2528 16.1954 19.5805 16.4883 18.7037C16.6187 18.3041 16.6871 17.8868 16.6914 17.4663C16.7135 15.5978 16.7091 13.7288 16.6983 11.8603C16.6983 11.5663 16.7806 11.4756 17.0728 11.4794C18.0818 11.4946 19.0915 11.4851 20.153 11.4851C19.4476 12.5149 19.3085 13.5802 19.8449 14.6836C20.2086 15.4315 20.8153 15.9191 21.6162 16.1508C23.3141 16.6416 24.8064 15.6118 25.2752 13.6196C26.2241 13.9256 27.1793 13.9491 28.1168 13.5897C29.0657 13.2266 29.7616 12.6279 29.8913 11.5086C30.5239 11.5086 31.166 11.5086 31.8049 11.5086C32.1724 11.5086 32.5412 11.513 32.9075 11.5403C33.0555 11.5517 33.2498 11.5873 33.3364 11.687C33.8381 12.2653 34.3549 12.8374 34.7864 13.4646C35.1754 14.0329 35.2406 14.7173 35.2032 15.4036C35.128 16.8054 35.0603 18.2072 34.9875 19.6084C34.8926 21.4314 34.7967 23.2541 34.6997 25.0766C34.6465 26.0779 34.5972 27.0784 34.5415 28.079C34.5238 28.3666 34.4903 28.6485 34.4612 28.9647ZM32.9701 19.5728C33.0132 18.3253 31.9789 17.1228 30.5827 17.112C29.9401 17.1109 29.3233 17.3655 28.8675 17.8202C28.4117 18.2748 28.1543 18.8924 28.1516 19.5373C28.1459 20.9124 29.2144 22.0095 30.5606 22.0133C30.8791 22.0141 31.1946 21.9514 31.4887 21.8287C31.7829 21.7061 32.0498 21.526 32.274 21.2989C32.4982 21.0718 32.6752 20.8023 32.7947 20.506C32.9142 20.2097 32.9738 19.8925 32.9701 19.5728V19.5728Z" fill="#FDFDFD"/>
<path d="M14.9594 16.5139C14.9329 16.8879 14.9373 17.3221 14.8645 17.7437C14.6969 18.717 13.934 19.4763 12.9535 19.5138C11.3865 19.5734 9.81511 19.5626 8.24625 19.5353C7.05506 19.5144 6.12197 18.4878 6.1283 17.1945C6.14158 14.5763 6.13209 11.9574 6.13209 9.33849C6.13209 8.50489 5.92903 8.2084 5.14776 7.92778C4.58601 7.72526 4.14382 7.37671 3.77881 6.86182H9.25968C9.17302 11.2165 10.7299 14.6023 14.9594 16.5139ZM8.63341 12.3237C8.6372 11.8209 8.2646 11.4349 7.77686 11.4349C7.55879 11.4343 7.34924 11.5198 7.19339 11.6729C7.03754 11.826 6.94787 12.0344 6.94372 12.2532C6.9355 12.8037 7.28153 13.1878 7.78508 13.1859C7.89758 13.1868 8.00911 13.165 8.11307 13.1218C8.21702 13.0786 8.31128 13.015 8.39027 12.9346C8.46926 12.8542 8.53137 12.7587 8.57291 12.6537C8.61446 12.5488 8.6346 12.4366 8.63214 12.3237H8.63341Z" fill="#FDFDFD"/>
<path d="M14.3731 12.3219C14.3751 12.4349 14.3546 12.5472 14.3126 12.6521C14.2707 12.757 14.2082 12.8525 14.1288 12.9327C14.0495 13.013 13.955 13.0765 13.8508 13.1194C13.7466 13.1624 13.6349 13.1839 13.5222 13.1828C13.0282 13.1828 12.6999 12.8209 12.6929 12.2692C12.6921 12.1586 12.7135 12.0491 12.756 11.947C12.7985 11.845 12.8611 11.7527 12.94 11.6756C13.019 11.5985 13.1127 11.5382 13.2154 11.4984C13.3182 11.4585 13.428 11.44 13.5381 11.4439C14.0176 11.4515 14.3763 11.8286 14.3731 12.3219Z" fill="#FAFAFA"/>
<path d="M7.60392 3.76428C7.60456 4.57121 7.60456 4.57121 6.80115 4.57121C6.34504 4.57121 6.34441 4.57121 6.34314 4.10838C6.34314 3.84554 6.33682 3.58207 6.34314 3.31922C6.35769 2.89576 6.62402 2.62085 6.99915 2.6253C7.3629 2.63101 7.5938 2.89766 7.60013 3.32367C7.60582 3.47033 7.60392 3.61889 7.60392 3.76428Z" fill="#FAFAFA"/>
<path d="M13.3559 3.77823C13.3559 3.60935 13.3509 3.44047 13.3559 3.27032C13.3698 2.88939 13.6292 2.62909 13.9885 2.62528C14.3339 2.62147 14.6116 2.90336 14.6173 3.2735C14.6224 3.61062 14.6078 3.94901 14.6224 4.28931C14.6319 4.51596 14.5421 4.5877 14.3257 4.57437C14.0941 4.55745 13.8615 4.55745 13.6298 4.57437C13.3983 4.59405 13.3306 4.49882 13.3471 4.28487C13.3597 4.11726 13.3471 3.94711 13.3471 3.77696L13.3559 3.77823Z" fill="#FCFCFC"/>
<path d="M36.628 12.4775L36.5806 12.4597L36.6255 12.48L36.628 12.4775Z" fill="#FC0202"/>
<path d="M32.9698 19.5727C32.9731 19.8921 32.9133 20.209 32.7936 20.5049C32.674 20.8009 32.497 21.0701 32.2729 21.2969C32.0488 21.5237 31.7821 21.7036 31.4882 21.8261C31.1943 21.9486 30.8791 22.0114 30.5608 22.0107C29.2146 22.0107 28.1462 20.9123 28.1519 19.5346C28.1546 18.8898 28.4119 18.2724 28.8675 17.8178C29.3232 17.3631 29.9398 17.1084 30.5823 17.1094C31.9785 17.1227 33.0128 18.3252 32.9698 19.5727Z" fill="#020202"/>
<path d="M8.63241 12.3237C8.63453 12.4363 8.61413 12.5483 8.57243 12.6529C8.53073 12.7575 8.46857 12.8527 8.38962 12.9328C8.31066 13.013 8.21652 13.0764 8.11274 13.1194C8.00895 13.1624 7.89764 13.1842 7.78535 13.1833C7.27927 13.1833 6.93577 12.8024 6.94399 12.2506C6.9496 12.033 7.03974 11.8263 7.19516 11.6744C7.35058 11.5226 7.55897 11.4378 7.77587 11.438C8.2636 11.4361 8.63621 11.8208 8.63241 12.3237Z" fill="#050404"/>
</g>
<defs>
<clipPath id="clip0">
<rect width="41" height="32" fill="white"/>
</clipPath>
</defs>
</svg>
