<svg width="482" height="482" viewBox="0 0 482 482" fill="none" xmlns="http://www.w3.org/2000/svg">
<g opacity="0.5" clip-path="url(#clip0_2321:2)">
<path d="M86.3141 425.67C81.0903 420.973 75.7721 416.375 70.8181 411.385C54.0001 394.521 39.7379 375.289 28.4838 354.3C16.128 331.183 7.63194 306.204 3.33144 280.349C1.79847 271.215 1.02974 261.987 0.395872 252.741C-0.449284 240.232 0.166601 227.776 1.49727 215.366C5.62209 177.099 18.8541 140.377 40.0859 108.274C61.3177 76.1696 89.9315 49.6177 123.532 30.8401C142.325 20.2699 162.473 12.3138 183.417 7.19229C194.664 4.48848 206.077 2.53637 217.583 1.34888C228.777 0.189191 239.98 -0.372675 251.174 0.2701C270.594 1.38035 289.768 4.27059 308.482 9.79485C332.276 16.7751 354.858 27.3656 375.439 41.1964C390.862 51.5374 405.023 63.6466 417.633 77.2772C440.259 101.752 457.239 129.679 468.302 161.166C474.09 177.669 478.063 194.753 480.153 212.116C481.784 225.024 482.328 238.047 481.78 251.047C480.876 271.432 477.43 291.625 471.521 311.157C462.901 339.492 449.11 365.986 430.846 389.302C420.138 402.978 408 415.471 394.639 426.569C391.492 425.612 388.345 424.596 385.149 423.715C382.083 422.87 379.004 422.029 375.884 421.427C368.551 420.015 361.228 418.532 353.824 417.503C350.228 417.008 346.667 416.46 343.089 415.934C341.133 411.543 340.122 406.854 339.137 402.198C338.688 400.089 338.297 398.053 337.231 396.179C337.402 392.583 335.343 389.616 334.556 386.29C334.556 385.099 334.628 383.921 334.183 382.757C332.142 377.399 331.095 371.762 329.58 366.256C328.065 360.75 326.914 355.145 325.336 349.661C323.574 343.534 321.857 337.408 320.62 331.151C322.54 327.847 325.817 325.307 326.262 321.167C326.478 319.176 326.712 317.176 327.004 315.203C328.402 305.435 329.445 295.632 330.6 285.837C330.762 284.457 330.151 282.426 332.399 281.702C340.94 278.933 345.053 272.236 347.459 264.212C348.488 260.783 346.465 257.973 342.891 257.47C339.223 256.935 335.536 256.508 331.85 256.121C330.542 255.987 329.971 255.753 329.989 254.148C330.011 252.071 330.708 250.143 330.704 248.031C330.704 243.536 326.883 238.303 322.531 237.692C319.895 237.254 317.19 237.533 314.7 238.501C311.36 239.85 308.658 243.473 308.514 247.087C308.451 248.642 308.217 250.188 308.064 251.739C308.001 252.296 307.745 252.881 307.116 252.755C304.418 252.206 301.636 252.454 299.024 251.514C298.673 249.46 297.824 247.505 297.752 245.392C297.743 242.687 296.974 240.039 295.531 237.751C295.499 236.555 295.67 235.314 295.409 234.155C294.083 228.424 292.595 222.724 291.089 217.047C290.222 213.775 289.556 210.471 288.756 207.19C288.338 205.495 287.92 203.913 286.216 203.063C286.05 202.196 285.735 201.328 285.74 200.461C285.74 198.663 283.865 197.391 284.346 195.471C285.533 194.662 285.268 193.525 284.971 192.442C283.465 187.025 282.274 181.542 280.979 176.067C278.7 166.326 276.2 156.635 273.669 146.953C273.22 145.155 273.512 142.741 272.028 141.766C270.621 140.835 270.23 139.617 269.52 138.435L269.398 137.572C269.424 137.457 269.426 137.338 269.405 137.221C269.384 137.105 269.34 136.994 269.276 136.895C269.212 136.795 269.129 136.71 269.032 136.642C268.935 136.575 268.826 136.527 268.711 136.502C268.634 135.662 268.562 134.821 268.486 133.981C268.603 133.626 268.693 133.176 269.124 133.149C270.864 133.037 272.442 132.372 273.997 131.706C277.027 130.403 280.606 129.634 280.741 125.265C280.741 124.73 281.19 124.541 281.698 124.532C283.833 124.501 285.771 123.633 287.709 122.941C291.755 121.489 296.057 120.15 298.323 116.037C299.172 114.486 300.319 113.956 301.811 113.767C308.478 112.926 314.897 110.985 321.331 109.191C327.939 107.378 334.323 104.827 340.36 101.586C345.305 98.8888 349.931 95.8233 353.262 91.171C355.11 88.5909 356.647 85.5883 356.351 82.5048C355.901 77.8121 353.518 73.7397 349.904 70.6247C342.199 63.9812 332.951 60.2864 323.439 57.1399C319.717 55.8812 315.91 54.8883 312.047 54.1688C308.626 53.562 305.268 52.5956 301.878 51.7999C299.986 51.3505 298.03 51.301 296.933 49.103C296.313 47.8399 294.996 46.8555 293.629 46.1633C284.216 41.2638 274.177 38.9265 263.604 38.7467C261.074 37.9515 258.446 37.5113 255.795 37.4387C248.112 37.3847 240.425 37.4971 232.737 37.3847C228.772 37.3218 224.951 38.495 220.986 38.4905C219.88 38.4905 218.433 38.3107 217.39 39.2186C213.156 39.4273 208.97 40.2168 204.951 41.565C199.507 43.363 193.757 44.7744 190.003 49.7413C189.812 49.9735 189.567 50.1556 189.29 50.2715C189.013 50.3875 188.711 50.4338 188.412 50.4065C185.188 50.4065 182.163 51.6561 178.971 51.8584C178.472 51.8898 178.409 52.2539 178.755 52.627C178.755 53.2743 178.432 53.5665 177.784 53.4766C177.784 53.0271 178.135 52.3843 177.083 52.636C173.878 53.3956 170.636 54.007 167.427 54.7621C161.141 56.2836 155.001 58.3579 149.08 60.9606C142.49 63.8014 136.412 67.2535 131.579 72.6924C126.059 78.8999 126.279 86.0378 131.768 92.1644C136.641 97.5988 142.809 100.889 149.215 103.901C154.201 106.247 159.474 107.843 164.756 109.407C170.601 111.142 176.548 112.472 182.523 113.682C186.492 114.491 190.934 114.095 193.492 118.271C193.6 118.446 193.869 118.509 194.04 118.653C197.461 121.512 201.709 122.532 205.773 123.962C206.223 124.128 207.037 123.962 206.987 124.667C206.668 129.531 210.665 130.205 213.775 131.661C215.43 132.434 217.232 132.902 218.968 133.509L218.806 135.307C218.235 135.599 218.284 136.129 218.289 136.655C216.913 141.561 215.539 146.465 214.167 151.367C212.939 151.691 212.598 152.716 212.463 153.754C212.235 155.36 211.832 156.937 211.262 158.456C208.783 165.364 206.689 172.405 204.991 179.546C202.991 187.574 200.275 195.395 198.252 203.427C196.171 211.689 193.631 219.834 191.298 228.033C189.823 233.224 188.173 238.371 186.996 243.643C186.546 245.59 184.856 247.577 186.357 249.779L183.134 261.466C181.875 261.956 180.724 261.111 179.538 261.138C176.125 261.21 172.794 261.47 169.468 262.747C162.981 265.26 158.031 269.354 155.051 275.643C153.871 277.991 153.09 280.518 152.74 283.122C152.16 287.788 151.508 292.481 150.897 297.16C150.366 301.205 150.083 305.296 149.328 309.296C148.685 312.695 149.35 315.203 152.331 317.203C156.516 320.008 160.98 318.102 161.663 313.05C162.185 309.18 162.392 305.3 163.313 301.444C164.298 297.286 164.361 292.903 164.792 288.629C165.125 285.361 165.494 282.107 167.526 279.36C168.402 278.178 169.279 276.919 171.351 276.241C167.962 280.767 167.957 285.837 166.806 290.512C166.033 293.659 167.054 297.07 166.222 300.351C165.898 301.619 166.842 303.444 166.393 304.258C164.797 307.166 165.912 310.227 165.467 313.167C164.878 317.082 164.442 321.167 164.846 325.199C164.99 326.606 165.192 327.977 164.689 329.344C164.505 329.343 164.328 329.41 164.19 329.53C164.052 329.651 163.962 329.818 163.938 330C162.587 334.867 161.218 339.729 159.834 344.586C158.353 349.791 156.868 354.996 155.379 360.201C153.58 360.121 153.212 361.482 152.821 362.786C150.168 371.556 148.325 380.541 145.592 389.306C143.268 396.709 141.474 404.283 139.514 411.781C138.957 413.929 138.413 415.925 135.621 415.871C132.573 417.125 129.242 416.981 126.072 417.521C120.327 418.498 114.585 419.514 108.846 420.568C103.118 421.629 97.418 422.816 91.8616 424.641C90.1083 425.221 88.3281 426.353 86.3141 425.67ZM159.141 197.705C158.382 193.093 155.545 189.853 151.985 187.183C148.838 184.814 145.372 183.452 141.33 184.778C140.431 185.07 139.235 185.623 138.633 185.272C137.734 184.778 138.849 183.677 138.763 182.809C138.763 182.661 138.741 182.512 138.727 182.36C137.945 173.918 127.088 166.717 118.889 171.298C117.302 172.197 116.708 171.725 115.809 170.286C111.341 163.144 105.137 159.319 96.3706 160.325C88.899 161.18 79.2337 168.677 79.0449 178.17C79.0134 179.847 78.4245 179.901 77.1568 179.209C75.4575 178.283 73.7582 177.298 71.7891 177.033C61.3685 175.617 52.5798 186.059 52.6922 194.972C52.6922 196.141 52.7551 197.391 53.915 198.168C54.6118 198.829 55.4749 198.546 56.2661 198.546C63.2881 198.568 70.3146 198.546 77.3366 198.546C103.788 198.546 130.238 198.546 156.687 198.546C157.505 198.555 158.692 199.126 159.114 197.719L159.141 197.705ZM364.676 169.432C377.844 169.432 391.016 169.387 404.183 169.486C406.188 169.486 407.204 168.798 407.82 167.014C409.699 161.553 409.649 156.172 407.217 150.9C404.556 145.128 400.258 140.885 394.76 137.815C387.064 133.5 378.972 132.56 370.628 135.675C363.692 138.273 359.187 143.6 355.793 149.951C355.128 151.196 354.822 151.664 353.442 150.527C350.273 147.924 346.573 146.265 342.437 146.032C334.323 145.582 327.674 150.001 324.455 157.534C323.228 160.469 322.931 163.616 322.463 166.663C322.086 169.149 322.522 169.432 325.161 169.432H364.676ZM356.553 302.316C356.553 298.144 353.105 294.652 349.072 294.76C345.238 294.863 341.722 298.522 341.758 302.401C341.79 306.042 345.687 309.998 349.356 309.854C352.228 309.723 357.034 306.451 356.553 302.316ZM318.062 234.051C320.993 234.101 324.837 230.658 324.59 227.911C324.338 225.034 321.893 221.551 318.296 221.488C314.965 221.434 311.49 224.558 311.746 227.781C312.002 231.004 314.057 233.871 318.062 234.051ZM153.594 258.126C153.594 254.746 150.897 251.779 147.718 251.743C144.342 251.707 141.011 255.016 141.092 258.324C141.159 261.142 144.423 264.118 147.467 264.131C149.074 264.143 150.622 263.518 151.77 262.393C152.918 261.268 153.574 259.734 153.594 258.126V258.126ZM180.086 195.858C180.086 199.054 182.262 201.288 185.341 201.252C187.953 201.216 190.394 198.681 190.417 195.988C190.417 193.188 187.944 190.473 185.238 190.63C182.069 190.81 179.888 192.833 180.086 195.858V195.858ZM169.782 247.608C169.798 246.958 169.682 246.311 169.442 245.707C169.202 245.102 168.842 244.553 168.384 244.091C167.926 243.629 167.379 243.265 166.776 243.019C166.174 242.774 165.528 242.653 164.878 242.664C162.329 242.619 159.425 245.307 159.483 247.653C159.542 249.999 162.32 252.489 164.774 252.507C165.427 252.524 166.077 252.409 166.685 252.17C167.293 251.931 167.846 251.572 168.313 251.115C168.78 250.659 169.151 250.113 169.403 249.51C169.655 248.908 169.784 248.261 169.782 247.608V247.608ZM366.448 286.053C366.448 283.581 363.894 280.974 361.431 280.888C359.255 280.812 356.553 283.585 356.526 285.918C356.517 286.57 356.637 287.216 356.878 287.822C357.119 288.427 357.477 288.978 357.931 289.445C358.386 289.912 358.928 290.285 359.526 290.542C360.125 290.8 360.768 290.937 361.419 290.946C362.071 290.955 362.718 290.835 363.323 290.594C363.928 290.353 364.48 289.995 364.947 289.541C365.414 289.086 365.787 288.545 366.044 287.946C366.302 287.348 366.439 286.704 366.448 286.053V286.053ZM335.429 213.366C333.041 213.366 331.252 215.033 331.171 217.326C331.095 219.348 333.392 221.492 335.595 221.456C337.933 221.421 339.542 219.708 339.506 217.285C339.461 214.737 338.022 213.357 335.415 213.366H335.429ZM171.086 202.578C171.086 204.515 172.628 206.196 174.314 206.106C175.259 206.087 176.159 205.701 176.825 205.03C177.491 204.359 177.871 203.456 177.883 202.51C177.883 200.492 176.449 199.045 174.372 199.027C172.178 199.009 171.068 200.204 171.073 202.578H171.086ZM367.787 308.586C367.837 306.397 366.609 304.9 365.153 305.08C364.443 305.142 363.779 305.458 363.284 305.97C362.788 306.482 362.494 307.156 362.456 307.867C362.321 309.157 363.971 310.874 365.265 310.798C366.938 310.699 367.697 309.625 367.787 308.586ZM320.584 205.652C320.647 207.675 321.398 208.799 322.967 208.799C324.536 208.799 325.475 207.729 325.502 206.192C325.534 204.556 324.356 203.706 322.891 203.724C321.569 203.755 320.346 204.335 320.58 205.652H320.584ZM154.979 236.272C154.682 234.779 153.864 233.611 152.2 233.665C150.537 233.719 149.503 234.838 149.615 236.456C149.719 237.962 150.73 239.301 152.313 239.211C153.81 239.131 154.853 238.02 154.979 236.272Z" fill="#323441"/>
<path d="M343.089 415.912C346.686 416.438 350.242 416.986 353.825 417.481C361.229 418.51 368.552 419.993 375.884 421.405C379.004 422.007 382.083 422.848 385.149 423.693C388.332 424.592 391.474 425.59 394.639 426.547C397.786 428.035 401.234 428.691 404.372 430.237C408.575 432.314 412.864 434.202 416.236 437.622C420.731 442.189 419.153 446.954 414.986 450.455C409.038 455.458 401.841 457.908 394.648 460.236C388.355 462.282 381.948 464.21 375.421 465.486C366.277 467.284 357.102 468.891 347.895 470.305C341.071 471.366 334.197 472.022 327.359 472.737C321.178 473.384 314.952 474.027 308.712 474.355C304.086 474.598 299.384 474.643 294.861 475.982C294.506 475.16 293.809 475.303 293.14 475.375C285.142 476.211 277.118 476.418 269.093 476.724C258.533 477.11 247.964 477.034 237.409 476.967C228.081 476.913 218.752 477.16 209.429 476.665C203.769 476.369 198.113 476.018 192.454 475.838C190.876 475.789 189.208 475.092 187.666 476.081C183.301 475.182 178.864 474.966 174.449 474.512C171.563 474.211 168.672 474.288 165.777 473.901C160.05 473.137 154.264 472.759 148.505 472.175C141.713 471.492 134.938 470.633 128.181 469.703C123.196 469.015 118.233 468.035 113.27 467.114C106.544 465.87 99.891 464.342 93.3096 462.529C85.2176 460.313 77.2021 457.8 69.8205 453.687C67.271 452.267 64.989 450.413 63.0772 448.208C62.0515 447.077 61.44 445.631 61.3428 444.108C61.2456 442.584 61.6685 441.073 62.5423 439.82C64.7136 436.467 67.9144 434.332 71.358 432.462C75.8104 430.12 80.4771 428.21 85.2941 426.758C85.5649 426.726 85.8157 426.599 86.0024 426.4C86.189 426.201 86.2995 425.943 86.3145 425.67C88.351 426.34 90.1312 425.221 91.898 424.646C97.4544 422.816 103.137 421.634 108.882 420.573C114.627 419.512 120.364 418.501 126.109 417.526C129.256 416.986 132.609 417.13 135.657 415.876C136.39 416.775 137.793 415.75 138.454 416.851C138.319 417.494 138.206 418.146 138.04 418.78C136.88 423.134 135.713 427.479 134.538 431.815C134.088 433.384 134.484 434.152 136.251 433.694C139.344 435.146 142.464 436.62 145.799 437.357C154.718 439.339 163.745 440.576 172.84 441.578C181.565 442.544 190.327 443.043 199.062 443.551C208.323 444.091 217.628 444.486 226.934 444.545C238.173 444.612 249.439 444.76 260.7 444.266C267.771 443.956 274.865 443.394 281.964 443.704C282.413 443.74 282.864 443.74 283.312 443.704C292.029 442.724 300.8 442.445 309.521 441.537C316.476 440.814 323.358 439.767 330.223 438.517C335.176 437.551 340.026 436.116 344.708 434.233C346.65 435.213 346.749 434.049 346.425 432.665C345.975 430.795 345.409 428.961 344.892 427.109C345.512 426.075 345.004 425.378 344.177 424.785L344.002 423.517C344.676 422.911 344.204 422.726 343.651 422.573L343.152 420.371C343.71 419.346 343.202 418.649 342.424 418.038C342.383 417.773 342.348 417.508 342.307 417.242L343.089 415.912Z" fill="#333A50"/>
<path d="M187.666 476.072C189.208 475.083 190.876 475.78 192.454 475.829C198.114 476.009 203.769 476.359 209.429 476.656C218.752 477.151 228.081 476.903 237.409 476.957C247.973 477.025 258.538 477.101 269.093 476.715C277.118 476.418 285.142 476.211 293.14 475.366C293.81 475.294 294.488 475.15 294.862 475.973C289.292 477.555 283.542 478.193 277.851 479.083C263.097 481.428 248.153 482.353 233.224 481.848C219.813 481.378 206.463 479.811 193.308 477.164C191.415 476.786 189.406 477.115 187.666 476.072Z" fill="#262A3D"/>
<path d="M155.392 360.219C156.876 355.014 158.361 349.809 159.847 344.604C161.226 339.746 162.594 334.884 163.952 330.018C163.976 329.835 164.066 329.667 164.205 329.546C164.344 329.426 164.523 329.36 164.707 329.361C164.739 330.111 164.721 330.862 164.653 331.609C163.304 340.392 163.125 349.269 162.679 358.129C162.495 361.797 165.354 364.772 169.05 365.235C175.181 366.008 181.322 366.732 187.441 367.573C192.966 368.332 195.897 366.602 197.704 361.28C199.053 357.329 200.455 353.396 201.687 349.413C202.137 347.912 202.878 347.373 204.407 347.588C207.94 348.087 211.483 348.532 215.03 348.937C223.158 349.89 231.29 350.828 239.427 351.751C240.492 351.872 241.167 352.236 241.225 353.549C241.436 357.037 241.63 360.547 242.187 363.986C242.497 365.91 242.241 367.878 242.821 369.744C244.107 373.879 247.352 375.093 251.264 375.493C257.031 376.082 262.808 376.706 268.544 377.547C273.04 378.203 276.888 375.542 277.508 371.052C277.934 367.968 278.383 364.889 278.857 361.815C280.056 354.024 281.273 346.244 282.507 338.477C282.876 336.131 284.153 334.908 286.135 335.115C289.017 335.421 291.876 335.946 294.762 336.225C299.028 336.639 303.232 337.843 307.615 336.944C311.279 336.189 314.978 335.69 317.901 333.047C318.8 333.973 318.292 335.528 319.371 336.378C319.42 336.688 319.474 336.994 319.523 337.304C319.449 337.709 319.476 338.126 319.601 338.518C319.727 338.91 319.947 339.265 320.243 339.551C320.09 340.374 320.508 341.066 320.769 341.799C320.427 342.878 321.344 343.597 321.537 344.532L321.861 345.467C321.803 346.123 322.225 346.581 322.544 347.08C321.596 347.822 322.468 348.429 322.711 349.054L322.873 349.912C322.873 350.42 322.873 350.915 323.322 351.261C323.061 352.299 323.821 353.059 324.086 353.931C323.691 354.83 324.203 355.679 324.415 356.502C326.429 364.365 328.471 372.216 330.542 380.055C333.878 392.731 337.312 405.38 340.531 418.082C341.43 421.678 342.819 425.171 343.089 428.915C342.498 428.928 341.909 428.862 341.336 428.717C336.62 426.807 331.625 425.899 326.68 425C317.779 423.386 308.748 422.582 299.739 421.795C290.631 420.999 281.496 420.321 272.361 420.056C264.089 419.813 255.804 419.759 247.528 419.561C238.501 419.345 229.474 419.561 220.451 419.943C220.901 414.828 221.292 409.708 221.773 404.597C222.299 399.042 222.937 393.499 223.45 387.944C223.899 383.206 224.16 378.45 224.825 373.731C224.942 372.908 225.428 371.438 224.021 371.344C222.767 371.259 222.852 372.594 222.784 373.569C222.623 375.942 222.51 378.329 222.232 380.693C221.126 390.079 220.51 399.509 219.534 408.908C219.152 412.585 219.435 416.347 218.338 419.948C209.752 419.655 201.22 420.779 192.651 420.919C188.786 421.021 184.928 421.321 181.093 421.818C174.759 422.577 168.393 423.013 162.077 423.939C155.608 424.888 149.188 425.953 142.89 427.742C141.043 428.263 139.402 429.495 137.365 429.364C137.536 426.892 138.462 424.6 139.096 422.245C141.344 413.902 143.677 405.591 146.001 397.271C148.6 387.957 151.265 378.662 153.792 369.326C154.502 366.696 155.689 364.112 155.257 361.262C155.329 360.907 155.361 360.565 155.392 360.219ZM165.085 408.346C164.878 409.025 164.86 409.758 165.732 409.924C166.604 410.09 166.6 409.268 166.77 408.746C167.045 407.897 167.265 407.029 167.454 406.157C168.627 400.763 169.782 395.396 170.956 390.016C172.193 384.343 173.437 378.674 174.687 373.007C174.835 372.324 175.37 371.398 174.237 371.209C173.105 371.02 173.1 372.023 172.925 372.841C171.693 378.513 170.416 384.177 169.166 389.845C167.8 396.006 166.439 402.173 165.085 408.346ZM284.333 370.382C284.607 371.69 284.939 372.989 285.151 374.311C286.538 382.956 287.918 391.604 289.291 400.255C289.412 401.024 289.741 401.86 290.64 401.689C291.539 401.518 291.242 400.736 291.13 400.035C290.127 393.81 289.287 387.553 288.158 381.35C287.479 377.628 287.205 373.83 286.122 370.184C285.951 369.613 285.879 368.885 285.083 368.98C284.288 369.074 284.333 369.789 284.333 370.382Z" fill="#FEFFD3"/>
<path d="M317.932 333.075C315.01 335.718 311.311 336.221 307.647 336.972C303.264 337.871 299.06 336.666 294.794 336.253C291.908 335.974 289.049 335.448 286.167 335.143C284.185 334.936 282.908 336.158 282.539 338.505C281.308 346.296 280.091 354.075 278.889 361.843C278.412 364.917 277.963 367.996 277.54 371.08C276.92 375.574 273.045 378.231 268.576 377.575C262.84 376.734 257.063 376.109 251.295 375.521C247.384 375.121 244.139 373.907 242.853 369.772C242.273 367.906 242.529 365.937 242.219 364.014C241.662 360.575 241.468 357.064 241.257 353.576C241.176 352.277 240.502 351.913 239.459 351.778C231.325 350.843 223.193 349.905 215.062 348.965C211.515 348.546 207.972 348.101 204.439 347.616C202.91 347.4 202.191 347.94 201.719 349.441C200.487 353.423 199.08 357.357 197.736 361.308C195.938 366.607 192.998 368.338 187.473 367.601C181.354 366.76 175.213 366.036 169.082 365.263C165.386 364.814 162.527 361.825 162.711 358.157C163.161 349.306 163.323 340.429 164.685 331.637C164.753 330.889 164.771 330.139 164.739 329.389C165.238 328.041 165.036 326.652 164.892 325.245C164.487 321.199 164.923 317.127 165.512 313.212C165.962 310.272 164.842 307.211 166.438 304.303C166.888 303.489 165.944 301.664 166.267 300.397C167.099 297.116 166.079 293.686 166.852 290.557C168.003 285.883 168.007 280.812 171.397 276.286C169.324 276.965 168.448 278.223 167.571 279.406C165.539 282.152 165.17 285.406 164.838 288.674C164.388 292.958 164.343 297.331 163.359 301.489C162.437 305.346 162.23 309.225 161.709 313.095C161.026 318.143 156.562 320.053 152.376 317.248C149.396 315.248 148.73 312.753 149.373 309.342C150.128 305.337 150.412 301.251 150.942 297.205C151.554 292.526 152.205 287.834 152.785 283.168C153.136 280.564 153.917 278.036 155.096 275.688C158.077 269.395 163.026 265.305 169.513 262.792C172.817 261.516 176.171 261.255 179.583 261.183C180.756 261.156 181.907 262.001 183.179 261.511C183.629 261.758 184.079 262.167 184.528 262.226C188.875 262.743 193.227 263.197 197.565 263.678C203.697 264.352 209.833 265.026 215.961 265.727C222.974 266.546 229.982 267.409 236.991 268.267C242.669 268.964 248.342 269.701 254.024 270.393C256.933 270.753 259.868 271.058 263.083 271.423C258.614 266.617 256.254 261.174 255.256 255.097C254.532 250.714 257.845 246.557 261.635 247.393C265.425 248.229 269.345 247.95 273.121 248.827C274.124 249.056 274.69 248.827 274.892 247.532C275.288 245.051 275.207 242.448 276.174 240.102C278.588 234.258 284.953 231.692 290.851 234.052C291.382 234.267 291.935 234.874 292.488 234.438C293.041 234.002 292.488 233.31 292.384 232.78C291.31 227.979 290.182 223.192 289.067 218.396C289.104 218.314 289.125 218.226 289.127 218.136C289.13 218.047 289.115 217.957 289.083 217.874C289.05 217.79 289.002 217.713 288.94 217.649C288.877 217.584 288.803 217.532 288.721 217.497C288.649 217.047 288.577 216.598 288.509 216.148C288.597 215.746 288.58 215.328 288.459 214.935C288.339 214.541 288.119 214.185 287.822 213.901C287.759 213.451 287.691 213.002 287.628 212.552C287.902 211.959 287.547 211.689 287.075 211.478C286.976 210.636 286.874 209.797 286.77 208.961C286.822 208.557 286.786 208.147 286.663 207.759C286.541 207.37 286.334 207.014 286.059 206.714L285.924 205.815C286.779 204.044 287.147 205.442 287.273 206.111C289.449 216.059 292.326 225.839 294.223 235.85C294.38 236.695 294.515 237.481 295.504 237.724C296.955 240.01 297.734 242.658 297.752 245.365C296.606 246.476 297.303 248.031 296.853 249.245C295.891 251.793 297.303 251.717 299.02 251.492C301.641 252.431 304.441 252.184 307.112 252.733C307.741 252.858 308.011 252.283 308.06 251.717C308.231 250.166 308.465 248.62 308.51 247.065C308.654 243.469 311.356 239.837 314.696 238.479C317.186 237.511 319.891 237.232 322.527 237.67C326.879 238.272 330.691 243.514 330.7 248.008C330.7 250.121 330.007 252.054 329.985 254.126C329.985 255.731 330.538 255.964 331.846 256.099C335.532 256.477 339.219 256.904 342.887 257.448C346.461 257.969 348.484 260.779 347.455 264.19C345.049 272.214 340.941 278.911 332.395 281.68C330.147 282.404 330.776 284.435 330.596 285.815C329.432 295.61 328.389 305.413 327 315.181C326.717 317.154 326.474 319.154 326.258 321.145C325.809 325.299 322.536 327.825 320.621 331.129C319.722 331.07 319.722 331.771 319.587 332.36C318.989 332.473 318.211 332.176 317.932 333.075ZM252.352 280.552C253.552 283.878 254.465 286.791 253.885 290.162C252.77 296.626 247.101 301.957 240.457 302.186C233.812 302.415 227.55 297.327 226.332 290.782C226.058 289.303 226.332 287.353 223.635 287.829C219.84 288.499 216.168 287.712 212.778 285.995C208.606 283.887 205.338 280.943 205.077 275.823C205.019 274.618 204.223 274.627 203.382 274.533C200.348 274.196 197.3 273.926 194.279 273.463C191.37 273.014 188.516 272.452 186.407 275.302C186.326 275.419 186.16 275.468 186.043 275.558C182.222 278.475 179.093 281.887 177.825 286.701C177.034 289.699 177.187 292.76 176.985 295.808C176.27 306.595 175.474 317.383 174.701 328.171C174.117 336.343 173.465 344.51 172.966 352.686C172.768 355.923 172.925 355.833 176.306 356.107C179.422 356.295 182.524 356.676 185.594 357.249C187.441 357.626 188.107 357.118 188.677 355.451C190.664 349.738 192.867 344.101 194.8 338.37C195.394 336.617 196.342 336.253 197.947 336.46C201.777 336.95 205.612 337.381 209.442 337.862C213.272 338.343 213.295 338.343 215.205 334.895C218.77 328.454 225.9 323.95 234.788 325.281C241.778 326.324 248.072 332.149 249.668 339.399C251.219 346.456 251.466 353.684 252.294 360.84C252.784 365.097 252.644 365.227 256.789 365.942C260.008 366.495 263.285 366.715 266.535 367.079C267.601 367.2 268.131 366.904 268.221 365.654C268.369 363.587 268.81 361.541 269.08 359.483C270.338 349.953 271.561 340.42 272.851 330.895C273.031 329.546 272.739 328.647 271.651 327.807C269.489 326.148 267.969 323.959 266.643 321.581C263.555 316.062 264.89 310.281 265.515 304.555C266.171 298.581 267.079 292.63 267.686 286.651C268.091 282.669 267.96 282.538 264.09 281.932C260.219 281.325 256.443 281.024 252.352 280.552ZM332.952 267.827C330.74 267.57 328.969 267.377 327.202 267.157C321.461 266.442 315.712 265.808 309.989 264.95C307.669 264.608 306.437 264.802 306.658 267.647C306.697 268.983 306.546 270.318 306.208 271.611C302.342 288.692 293.378 301.449 275.886 306.82C275.072 307.067 274.447 307.27 274.214 308.312C272.352 316.453 275.859 322.575 284.652 323.487C290.263 324.067 295.891 324.719 301.438 325.654C307.952 326.746 313.23 324.162 315.28 318.296C316.013 316.201 315.968 313.913 316.229 311.702C316.89 306.101 317.703 300.518 318.387 294.918C319.07 289.317 319.573 283.68 320.356 278.107C320.926 274.061 322.361 272.829 326.51 271.814C329.037 271.229 331.302 269.828 332.952 267.827V267.827ZM279.325 287.995C279.325 290.45 281.123 292.333 283.461 292.301C285.304 292.275 287.233 290.148 287.314 288.049C287.39 286.148 285.246 284.004 283.295 284.004C281.272 283.999 279.334 285.955 279.325 287.995ZM289.161 246.193C289.238 242.597 288.712 241.823 286.698 241.662C284.594 241.495 283.771 242.403 283.452 245.199C283.344 246.157 283.191 247.114 283.025 248.067C282.719 249.865 283.331 250.616 285.25 250.656C288.365 250.719 288.37 250.831 288.963 247.734C289.103 247.006 289.152 246.26 289.161 246.188V246.193ZM316.629 252.818C316.444 254.117 316.952 254.589 317.955 254.665C318.849 254.673 319.741 254.767 320.616 254.949C321.848 255.295 322.289 254.71 322.455 253.686C322.754 252.225 322.964 250.748 323.084 249.263C323.156 247.559 322.509 246.116 320.603 245.819C318.697 245.523 317.753 246.314 317.294 248.233C316.907 249.838 317.353 251.541 316.629 252.814V252.818Z" fill="#1A1D2A"/>
<path d="M285.915 205.796L286.05 206.695C285.25 207.778 285.883 208.407 286.76 208.942C286.865 209.778 286.967 210.617 287.066 211.459C287.022 211.565 287.003 211.68 287.008 211.795C287.013 211.909 287.043 212.021 287.095 212.123C287.148 212.226 287.222 212.315 287.312 212.386C287.402 212.457 287.507 212.507 287.619 212.533C287.682 212.983 287.749 213.432 287.812 213.882C287.326 214.853 287.749 215.541 288.5 216.129C288.567 216.579 288.639 217.028 288.711 217.478C288.127 218.049 288.554 218.229 289.057 218.377C290.172 223.164 291.305 227.951 292.375 232.761C292.496 233.291 293.063 233.956 292.478 234.419C291.894 234.882 291.372 234.248 290.842 234.033C284.944 231.673 278.578 234.239 276.164 240.083C275.198 242.429 275.265 245.027 274.883 247.513C274.681 248.794 274.114 249.037 273.112 248.808C269.335 247.909 265.429 248.214 261.626 247.374C257.822 246.533 254.523 250.695 255.247 255.078C256.245 261.155 258.605 266.598 263.073 271.404C259.836 271.039 256.923 270.734 254.015 270.374C248.332 269.682 242.659 268.945 236.981 268.248C229.973 267.39 222.964 266.527 215.951 265.708C209.824 264.994 203.687 264.333 197.556 263.659C193.204 263.178 188.852 262.724 184.519 262.207C184.047 262.148 183.619 261.757 183.17 261.492C184.243 257.597 185.319 253.701 186.398 249.805C186.551 249.648 186.708 249.495 186.847 249.356C188.057 249.536 188.075 248.628 188.299 247.832C191.101 237.943 193.913 228.054 196.733 218.166C198.652 211.423 200.738 204.753 202.469 197.979C204.438 190.288 206.645 182.656 208.799 175.028C210.768 168.038 212.683 161.013 214.899 154.081C215.138 153.331 215.313 152.589 214.247 152.31L214.157 151.367C215.527 146.461 216.901 141.557 218.28 136.655C219.179 136.488 219.417 136.075 218.797 135.306C218.851 134.708 218.905 134.115 218.954 133.508C219.638 133.342 219.62 132.784 219.651 132.254C220.012 131.281 220.305 130.283 220.528 129.269C220.941 126.649 222.398 125.269 224.983 124.662C228.843 123.823 232.772 123.339 236.72 123.215C244.029 122.823 251.357 123.106 258.614 124.06C262.826 124.649 267.128 125.273 267.263 131.022C267.34 131.539 267.479 132.045 267.677 132.528C267.677 133.153 267.609 133.796 268.45 133.953C268.526 134.794 268.598 135.634 268.675 136.479C268.626 136.594 268.607 136.72 268.618 136.844C268.629 136.968 268.67 137.088 268.738 137.193C268.806 137.298 268.898 137.385 269.007 137.446C269.115 137.507 269.238 137.541 269.362 137.545L269.484 138.408C268.841 139.815 269.834 140.853 270.306 142.004C270.346 142.894 270.442 143.782 270.594 144.66C272.01 150.751 273.435 156.841 274.928 162.918C277.4 172.969 279.922 183.006 282.422 193.034C282.584 193.677 282.57 194.405 283.321 194.702C283.424 195.237 283.802 195.403 284.288 195.426C283.807 197.345 285.695 198.599 285.681 200.415C285.681 201.283 285.991 202.15 286.158 203.018C285.762 203.926 284.67 204.739 285.915 205.796ZM256.424 140.048C256.874 144.714 257.373 149.757 257.804 154.805C258.452 162.379 258.991 169.967 259.679 177.536C260.655 188.288 261.761 199.031 262.741 209.783C263.428 217.276 263.936 224.787 264.674 232.257C264.768 233.233 264.413 235.282 266.022 235.04C267.371 234.828 266.692 232.976 266.593 231.893C265.941 224.477 265.177 217.06 264.512 209.652C263.977 203.643 263.613 197.615 263.028 191.605C262.242 183.298 261.266 175.01 260.515 166.703C259.652 157.201 258.946 147.681 258.169 138.174C258.106 137.432 258.079 136.412 257.207 136.376C256.051 136.331 256.532 137.437 256.456 138.093C256.379 138.614 256.424 139.14 256.424 140.048ZM219.665 199.318C219.687 199.853 219.665 200.55 220.478 200.599C221.135 200.64 221.278 200.042 221.377 199.516C221.508 198.86 221.647 198.204 221.759 197.538C222.946 190.347 224.156 183.155 225.306 175.963C226.412 169.054 227.455 162.132 228.525 155.214C228.683 154.185 228.858 153.151 228.952 152.117C229.006 151.551 229.155 150.805 228.323 150.67C227.693 150.571 227.424 151.119 227.28 151.636C227.143 151.986 227.038 152.347 226.965 152.715C226.421 157.605 225.5 162.433 224.664 167.279C223.364 174.83 222.267 182.417 221.094 189.987C220.622 193.066 220.15 196.158 219.665 199.318ZM234.864 188.337C234.603 187.609 235.471 186.283 234.059 186.207C232.949 186.153 233.277 187.402 233.057 188.14C232.757 189.297 232.628 190.492 232.675 191.686C232.675 196.181 231.87 200.581 231.627 205.049C231.24 212.102 230.31 219.123 229.618 226.176C229.559 226.796 229.591 227.479 230.373 227.56C231.079 227.636 231.429 227.048 231.578 226.454C231.66 225.938 231.699 225.417 231.695 224.895C232.023 220.66 232.319 216.422 232.688 212.192C233.389 204.213 234.136 196.275 234.864 188.337ZM213.501 213.868C211.766 213.72 211.101 214.848 211.114 216.327C211.128 217.806 212.112 218.714 213.681 218.817C215.43 218.93 216.221 217.595 216.288 216.363C216.369 214.857 215.335 213.738 213.501 213.846V213.868ZM208.502 211.212C209.756 210.762 211.101 210.389 211.02 208.794C210.948 207.387 210.004 206.326 208.601 206.362C207.311 206.398 206.133 207.144 206.16 208.722C206.182 210.183 207.149 210.897 208.502 211.189V211.212Z" fill="#FEFFD3"/>
<path d="M53.8742 198.186C52.7144 197.409 52.6694 196.159 52.6515 194.991C52.5391 186.077 61.3278 175.635 71.7484 177.051C73.7174 177.317 75.4167 178.301 77.116 179.227C78.3838 179.919 78.9727 179.865 79.0042 178.189C79.193 168.695 88.8583 161.198 96.3299 160.344C105.096 159.337 111.3 163.162 115.768 170.304C116.668 171.743 117.261 172.201 118.848 171.316C127.048 166.735 137.904 173.936 138.687 182.378C138.687 182.526 138.709 182.674 138.723 182.827C138.808 183.695 137.707 184.796 138.592 185.291C139.208 185.641 140.39 185.088 141.289 184.796C145.335 183.47 148.779 184.832 151.944 187.201C155.54 189.871 158.341 193.112 159.101 197.723L55.7039 197.701C55.079 197.697 54.3597 197.53 53.8742 198.186Z" fill="#E8EBED"/>
<path d="M364.677 169.432H325.17C322.522 169.432 322.086 169.149 322.473 166.663C322.922 163.593 323.219 160.487 324.473 157.539C327.683 150.005 334.332 145.587 342.455 146.036C346.591 146.265 350.291 147.924 353.46 150.531C354.84 151.668 355.146 151.201 355.811 149.956C359.206 143.604 363.71 138.269 370.647 135.68C378.972 132.56 387.064 133.5 394.761 137.815C400.259 140.885 404.556 145.128 407.218 150.9C409.65 156.172 409.699 161.553 407.82 167.014C407.204 168.812 406.188 169.5 404.183 169.486C391.016 169.387 377.844 169.432 364.677 169.432Z" fill="#E8EBED"/>
<path d="M267.677 132.533C267.479 132.05 267.34 131.544 267.263 131.028C267.128 125.279 262.826 124.654 258.614 124.065C251.352 123.108 244.017 122.824 236.703 123.215C232.754 123.339 228.825 123.824 224.965 124.663C222.38 125.27 220.919 126.65 220.51 129.27C220.287 130.284 219.994 131.281 219.633 132.255C216.749 131.802 213.964 130.855 211.402 129.454C209.505 128.443 207.599 127.238 207.9 124.537C207.99 123.746 207.513 123.301 206.731 123.166C204.348 122.753 202.236 121.557 200.033 120.689C197.264 119.606 194.216 118.545 192.624 115.889C191.572 114.131 190.295 113.601 188.551 113.331C185.404 112.85 182.199 112.455 179.07 111.776C169.904 109.789 160.823 107.501 152.097 103.91C144.927 100.957 138.071 97.5494 132.699 91.7735C127.907 86.6088 127.43 80.1181 131.503 74.3826C133.425 71.7969 135.796 69.5771 138.503 67.829C146.383 62.471 155.226 59.3291 164.289 56.731C168.726 55.4634 173.15 54.1195 177.744 53.4902C178.391 53.5801 178.706 53.2879 178.715 52.6406L179.614 52.6901L179.659 54.1015L179.713 54.1509C179.624 54.1064 179.526 54.0804 179.427 54.0745C179.327 54.0686 179.227 54.0828 179.133 54.1164C179.039 54.15 178.953 54.2022 178.879 54.2699C178.806 54.3376 178.747 54.4195 178.706 54.5105L176.908 54.8476C176.44 54.6908 175.938 54.6714 175.46 54.7917C174.982 54.912 174.548 55.167 174.211 55.5264L172.884 55.7421C171.949 55.2162 171.306 55.8006 170.637 56.322L169.913 56.3804C167.31 56.7085 164.703 57.0232 162.518 58.6863L161.619 58.8616C161.066 58.3267 160.863 58.7133 160.719 59.2122C152.286 61.9856 143.974 65.0556 136.961 70.7102C133.108 73.8162 129.498 77.2369 130.163 82.9409C129.152 85.6379 133.535 92.3308 136.7 93.8546C137.505 94.2457 137.99 93.7917 138.291 93.1174C138.921 91.7105 139.995 90.6632 141.106 89.6653C144.635 86.5189 148.555 84.1321 153.482 84.1636C156.804 84.1636 158.71 86.384 157.977 89.3282C157.552 90.9251 156.731 92.3891 155.59 93.5849C153.046 96.3538 149.849 98.1742 146.073 99.8778C152.12 102.701 157.811 105.047 163.767 106.719C164.9 107.038 164.891 106.427 164.617 105.636C163.664 102.939 164.941 100.957 166.919 99.4014C169.281 97.5892 171.846 96.0567 174.561 94.8345C181.489 91.6206 188.736 89.3372 196.059 87.292C202.298 85.5904 208.654 84.351 215.075 83.5837C220.105 82.9454 225.145 82.6263 230.184 82.1813C236.293 81.699 242.428 81.6479 248.544 82.0285C255.521 82.4015 262.507 82.8286 269.47 83.5927C275.683 84.2759 281.883 85.0401 288.019 86.1368C293.588 87.1263 299.102 88.4015 304.54 89.9575C311.081 91.8319 317.518 93.9086 323.138 97.9315C325.008 99.28 326.734 100.79 326.811 103.254C326.869 104.957 327.71 104.669 328.658 104.265C331.805 102.916 334.952 101.568 338.099 100.219C338.447 100.084 338.753 99.8604 338.99 99.5714C339.226 99.2825 339.384 98.9375 339.448 98.5698C340.212 95.2525 340.796 94.6862 344.159 94.9019C346.159 95.0323 347.62 94.4524 348.852 92.9601C349.419 92.2724 350.165 91.724 350.731 91.0363C353.163 88.1056 354.638 84.8872 353.564 80.9632C353.06 78.1583 351.608 75.8884 349.657 73.8657C346.461 70.5484 342.626 68.1391 338.611 65.9636C338.4 65.1051 337.906 64.7005 336.998 64.9522L335.02 64.1746C334.885 63.5723 334.494 63.415 333.936 63.5363C332.835 63.4689 331.972 62.7632 330.969 62.4261C330.843 61.9092 330.681 61.4597 330.07 62.026L324.675 60.1741C324.54 59.6752 324.397 59.1987 323.776 59.7651L322.877 59.5718L322.428 58.3042C327.094 59.1358 331.392 61.0282 335.64 63.0104C341.259 65.6265 346.672 68.6066 350.902 73.3038C354.215 76.9807 356.171 81.1295 354.665 86.1683C353.613 89.6878 351.374 92.5016 348.591 94.8435C347.373 95.8683 346.186 97.4281 344.226 95.9043C343.963 95.7495 343.652 95.6988 343.353 95.762C343.054 95.8252 342.79 95.9978 342.612 96.2459C341.345 96.4347 340.985 97.3472 340.855 98.4439C340.922 99.5587 340.634 100.242 339.452 100.862C327.197 107.191 313.958 110.275 300.543 112.787C299.415 112.999 298.493 113.237 298.08 114.351C297.064 117.093 294.861 118.59 292.384 119.745C288.812 121.425 285.084 122.752 281.253 123.705C280.466 123.899 279.221 123.813 279.343 125.121C279.581 127.647 277.841 128.717 276.07 129.684C273.433 131.053 270.603 132.014 267.677 132.533V132.533ZM140.188 96.6415C140.262 96.9221 140.437 97.1657 140.679 97.3251C140.921 97.4845 141.214 97.5484 141.501 97.5045L142.733 98.0933C144.306 99.3384 146.676 98.826 148.788 96.7853L149.508 96.5471C150.101 96.6639 150.407 96.3628 150.524 95.8279C153.109 94.7176 154.88 92.7579 156.112 90.3036C157.6 87.346 156.381 85.2873 153.091 85.6064C147.184 86.1728 142.679 89.2024 139.375 94.1198C138.462 95.4773 139.002 96.0886 140.188 96.6415ZM242.336 83.1567C234.154 83.1567 227.905 83.296 221.656 84.0107C215.214 84.7434 208.826 85.7008 202.483 87.0088C194.211 88.7124 186.241 91.3914 178.396 94.4659C174.757 95.8579 171.309 97.7034 168.133 99.9587C164.923 102.265 164.424 105.91 168.739 107.672C171.936 108.976 175.298 109.609 178.585 110.54C179.551 110.814 180.383 110.49 180.513 109.286C180.689 107.937 181.592 107.011 182.545 106.139C184.905 104.056 187.643 102.445 190.61 101.393C203.899 96.5516 217.799 94.6502 231.798 94.1063C244.61 93.6209 257.463 93.5624 270.271 95.2435C279.68 96.4752 289.012 97.963 297.918 101.244C302.256 102.844 306.828 104.476 309.157 109.115C309.521 109.834 310.281 109.744 310.955 109.564C314.596 108.486 318.346 107.811 321.902 106.418C323.475 105.802 325.147 105.263 325.462 103.388C325.777 101.514 324.266 100.449 322.985 99.4283C316.799 94.5109 309.341 92.4387 301.933 90.5014C291.143 87.6696 280.084 86.0514 268.958 84.8872C259.486 83.8759 249.987 83.1162 242.336 83.1567ZM244.323 100.282C240.807 100.282 237.265 99.9857 233.785 100.341C226.03 101.132 218.226 101.563 210.588 103.339C205.261 104.575 200.046 106.036 195.461 109.182C191.721 111.722 191.68 114.334 195.366 116.882C199.543 119.768 204.33 121.229 209.145 122.609C209.396 122.683 209.66 122.705 209.92 122.673C210.179 122.642 210.43 122.557 210.656 122.424C217.615 118.568 225.365 117.561 233.039 117.057C240.713 116.554 248.566 116.419 256.317 117.309C263.581 118.145 270.792 119.188 277.32 122.824C277.766 123.109 278.305 123.212 278.826 123.112C284.22 121.867 289.556 120.442 294.209 117.269C297.977 114.711 297.905 112.037 294.245 109.412C288.352 105.182 281.42 103.833 274.559 102.629C264.587 100.816 254.455 100.034 244.323 100.296V100.282Z" fill="#1B1D2A"/>
<path d="M267.677 132.533C270.615 132.016 273.458 131.054 276.106 129.679C277.877 128.704 279.617 127.643 279.379 125.117C279.257 123.809 280.503 123.894 281.289 123.701C285.12 122.747 288.848 121.421 292.42 119.741C294.897 118.586 297.1 117.089 298.116 114.347C298.53 113.232 299.465 112.998 300.579 112.783C313.994 110.27 327.233 107.186 339.488 100.858C340.67 100.246 340.958 99.5541 340.891 98.4393C341.592 98.5382 342.176 98.2101 342.797 97.9494C344.595 97.1987 343.494 96.7403 342.649 96.2413C342.826 95.9932 343.091 95.8206 343.389 95.7574C343.688 95.6942 343.999 95.7449 344.262 95.8997C346.222 97.4235 347.409 95.8637 348.628 94.8389C351.41 92.497 353.649 89.6832 354.701 86.1637C356.207 81.1249 354.251 76.9761 350.938 73.2992C346.708 68.602 341.295 65.6219 335.676 63.0058C331.428 61.0236 327.134 59.1312 322.464 58.3041C322.365 57.7692 322.014 57.6344 321.515 57.6434L319.762 57.1939C316.575 56.1061 313.405 54.9464 309.989 54.8161C309.274 54.2003 308.433 54.425 307.619 54.4565L306.293 53.98C305.012 53.3642 303.596 53.2518 302.247 52.9776C301.712 52.5281 301.065 52.6495 300.449 52.636C299.1 52.4382 297.68 52.4068 296.961 51.0178C295.441 48.0872 292.748 46.6533 289.907 45.4666C281.501 41.9561 272.581 40.6391 263.631 39.4794C263.631 39.2277 263.631 38.9714 263.631 38.7197C274.204 38.8995 284.243 41.2369 293.656 46.1364C295.005 46.8511 296.354 47.813 296.961 49.076C298.053 51.292 300.009 51.3505 301.906 51.773C305.295 52.5686 308.649 53.535 312.075 54.1418C315.937 54.8613 319.744 55.8542 323.466 57.113C332.979 60.2324 342.226 63.9453 349.931 70.5978C353.528 73.7127 355.924 77.7896 356.378 82.4778C356.674 85.5614 355.137 88.564 353.289 91.1441C349.931 95.8143 345.328 98.8888 340.36 101.586C334.311 104.825 327.915 107.372 321.295 109.178C314.862 110.976 308.442 112.913 301.775 113.754C300.283 113.942 299.136 114.473 298.287 116.023C296.039 120.136 291.737 121.476 287.673 122.928C285.735 123.62 283.798 124.487 281.662 124.519C281.172 124.519 280.718 124.717 280.705 125.252C280.57 129.621 276.992 130.389 273.962 131.693C272.406 132.358 270.815 133.041 269.088 133.136C268.639 133.163 268.567 133.612 268.45 133.967C267.609 133.801 267.663 133.158 267.677 132.533Z" fill="#CCCCCC"/>
<path d="M177.757 53.4902C173.163 54.1195 168.739 55.4635 164.302 56.7311C155.239 59.3336 146.397 62.4801 138.516 67.8156C135.809 69.5637 133.439 71.7834 131.516 74.3692C127.443 80.1047 127.92 86.5954 132.712 91.76C138.107 97.554 144.94 100.961 152.11 103.896C160.823 107.492 169.904 109.776 179.083 111.762C182.23 112.441 185.4 112.837 188.564 113.318C190.309 113.587 191.585 114.118 192.637 115.875C194.229 118.532 197.277 119.593 200.046 120.676C202.258 121.543 204.362 122.739 206.744 123.153C207.527 123.287 208.003 123.732 207.913 124.524C207.612 127.221 209.518 128.43 211.415 129.441C213.977 130.84 216.762 131.786 219.646 132.237C219.615 132.767 219.646 133.325 218.95 133.491C217.219 132.884 215.416 132.417 213.762 131.644C210.651 130.187 206.654 129.513 206.974 124.649C207.023 123.948 206.227 124.11 205.76 123.944C201.714 122.514 197.448 121.494 194.027 118.635C193.856 118.491 193.577 118.428 193.478 118.253C190.92 114.077 186.479 114.473 182.509 113.664C176.534 112.455 170.591 111.124 164.743 109.389C159.461 107.825 154.187 106.243 149.202 103.883C142.796 100.871 136.614 97.59 131.755 92.1466C126.266 86.02 126.045 78.8821 131.566 72.6746C136.399 67.2402 142.476 63.7836 149.067 60.9428C154.988 58.3401 161.127 56.2658 167.413 54.7443C170.623 53.9892 173.864 53.3958 177.069 52.6182C178.108 52.3845 177.739 53.0407 177.757 53.4902Z" fill="#CCCCCC"/>
<path d="M214.14 151.341C214.167 151.655 214.198 151.97 214.23 152.285C212.71 153.494 212.926 155.368 212.467 156.968C208.991 169.147 205.544 181.332 202.128 193.526C197.857 208.66 193.546 223.786 189.356 238.924C188.407 242.35 186.892 245.667 186.834 249.299C186.677 249.452 186.519 249.604 186.384 249.748C184.878 247.546 186.587 245.559 187.018 243.613C188.196 238.349 189.846 233.193 191.32 228.002C193.654 219.803 196.194 211.658 198.275 203.397C200.298 195.364 203.013 187.543 204.987 179.488C206.685 172.347 208.779 165.306 211.258 158.398C211.818 156.888 212.213 155.322 212.436 153.728C212.571 152.676 212.912 151.664 214.14 151.341Z" fill="#CCCCCC"/>
<path d="M53.874 198.186C54.3595 197.53 55.0788 197.697 55.7307 197.697L159.127 197.719C158.678 199.103 157.518 198.555 156.659 198.555C130.208 198.582 103.758 198.582 77.3091 198.555C70.2871 198.555 63.2607 198.555 56.2387 198.555C55.434 198.564 54.5708 198.847 53.874 198.186Z" fill="#FDFDFD"/>
<path d="M155.393 360.219C155.361 360.565 155.33 360.907 155.303 361.253C154.404 361.208 154.215 361.774 154.04 362.503C153.626 364.233 153.14 365.946 152.691 367.663C148.645 382.298 144.63 396.943 140.513 411.56C140.005 413.358 140.063 415.462 138.445 416.864C137.784 415.763 136.381 416.797 135.648 415.889C138.44 415.943 138.984 413.947 139.542 411.799C141.502 404.288 143.295 396.714 145.62 389.324C148.366 380.572 150.196 371.587 152.848 362.804C153.226 361.5 153.59 360.138 155.393 360.219Z" fill="#CCCCCC"/>
<path d="M319.591 332.36C319.721 331.771 319.721 331.07 320.625 331.128C321.857 337.385 323.574 343.512 325.336 349.639C326.914 355.122 328.06 360.732 329.58 366.234C331.099 371.736 332.142 377.377 334.183 382.735C334.633 383.899 334.565 385.077 334.556 386.268H334.066C333.749 385.855 333.489 385.402 333.293 384.919C330.987 376.006 328.739 367.07 326.397 358.161C326.015 356.714 326.087 355.064 324.896 353.882C324.621 352.852 324.855 351.72 324.275 350.735L323.898 349.755L323.821 348.955L323.551 348.056C323.484 347.764 323.421 347.472 323.354 347.157C323.286 346.542 323.47 345.867 322.958 345.359L322.549 344.411C322.441 343.512 322.517 342.613 322.023 341.795C321.731 340.73 321.443 339.66 321.151 338.59L320.769 337.722C320.584 336.972 320.859 336.113 320.247 335.475L319.901 334.576C319.856 334.127 319.807 333.677 319.757 333.228C319.703 332.967 319.631 332.661 319.591 332.36Z" fill="#CCCCCC"/>
<path d="M284.31 195.449C283.824 195.426 283.447 195.26 283.343 194.725C284.323 194.392 284.18 193.763 283.968 192.927C282.678 187.888 281.464 182.836 280.21 177.788C277.42 166.479 274.613 155.162 271.79 143.838C271.579 142.975 271.588 141.977 270.306 141.99C269.857 140.84 268.841 139.801 269.484 138.395C270.199 139.577 270.585 140.795 271.992 141.725C273.476 142.701 273.17 145.132 273.633 146.912C276.164 156.594 278.664 166.286 280.943 176.026C282.224 181.501 283.429 186.985 284.935 192.401C285.232 193.502 285.497 194.631 284.31 195.449Z" fill="#CCCCCC"/>
<path d="M263.608 38.7293C263.608 38.981 263.608 39.2372 263.608 39.4889C261.023 39.3001 258.438 39.0394 255.849 38.9315C250.202 38.6708 244.552 38.0325 238.892 38.4146C231.699 38.9001 224.506 39.5294 217.345 40.0957V39.1967C218.401 38.2977 219.849 38.4686 220.941 38.4686C224.906 38.4686 228.727 37.2999 232.692 37.3628C240.38 37.4752 248.067 37.3628 255.75 37.4167C258.418 37.4863 261.063 37.9281 263.608 38.7293V38.7293Z" fill="#BCC2C7"/>
<path d="M217.362 39.2188V40.1177C212.835 41.2415 208.173 41.7719 203.723 43.2282C199.003 44.7745 194.098 46.0196 190.996 50.4201C190.854 50.6421 190.666 50.8306 190.444 50.9726C190.222 51.1146 189.971 51.2068 189.71 51.2427C186.339 51.6382 183.093 52.9058 179.631 52.6721L178.732 52.6226C178.386 52.2495 178.449 51.8854 178.948 51.854C182.14 51.6517 185.165 50.3796 188.389 50.4021C188.688 50.4294 188.99 50.3831 189.267 50.2671C189.544 50.1512 189.789 49.9691 189.98 49.7369C193.734 44.7925 199.484 43.3541 204.928 41.5606C208.946 40.2143 213.13 39.4263 217.362 39.2188V39.2188Z" fill="#CCCCCC"/>
<path d="M356.553 302.315C357.034 306.451 352.229 309.723 349.36 309.831C345.692 309.975 341.794 306.019 341.763 302.378C341.727 298.522 345.243 294.863 349.077 294.737C353.105 294.651 356.562 298.144 356.553 302.315ZM349.293 296.022C348.487 296.003 347.685 296.144 346.934 296.438C346.183 296.733 345.498 297.174 344.92 297.736C344.342 298.298 343.881 298.97 343.566 299.713C343.251 300.455 343.087 301.253 343.085 302.059C343.04 305.592 345.782 308.532 349.14 308.559C349.98 308.599 350.82 308.47 351.61 308.179C352.399 307.887 353.121 307.44 353.734 306.863C354.346 306.287 354.836 305.593 355.175 304.823C355.513 304.053 355.693 303.222 355.703 302.381C355.713 301.54 355.554 300.705 355.234 299.927C354.915 299.149 354.442 298.443 353.844 297.852C353.246 297.26 352.534 296.796 351.752 296.485C350.97 296.175 350.134 296.025 349.293 296.045V296.022Z" fill="#CCCCCC"/>
<path d="M285.916 205.796C284.688 204.74 285.781 203.927 286.199 203.041C287.903 203.891 288.321 205.473 288.739 207.167C289.539 210.449 290.204 213.752 291.072 217.025C292.578 222.702 294.066 228.401 295.392 234.132C295.653 235.27 295.482 236.51 295.514 237.728C294.525 237.486 294.39 236.699 294.232 235.854C292.335 225.844 289.458 216.076 287.282 206.116C287.12 205.419 286.752 204.025 285.916 205.796Z" fill="#CCCCCC"/>
<path d="M318.062 234.051C314.056 233.871 311.997 231.013 311.736 227.758C311.476 224.504 314.955 221.416 318.286 221.465C321.883 221.528 324.337 225.012 324.58 227.889C324.836 230.658 320.979 234.101 318.062 234.051ZM318.062 232.757C320.988 232.784 323.263 230.662 323.308 227.862C323.326 227.192 323.207 226.526 322.96 225.904C322.713 225.282 322.342 224.716 321.869 224.242C321.397 223.767 320.833 223.394 320.211 223.143C319.59 222.893 318.924 222.772 318.255 222.787C315.274 222.76 313.085 224.81 313.027 227.677C313.003 228.347 313.117 229.013 313.361 229.637C313.604 230.261 313.973 230.828 314.445 231.304C314.916 231.779 315.479 232.154 316.101 232.404C316.722 232.653 317.388 232.774 318.057 232.757H318.062Z" fill="#CCCCCC"/>
<path d="M153.594 258.126C153.574 259.736 152.916 261.272 151.765 262.398C150.614 263.524 149.063 264.147 147.453 264.131C144.41 264.131 141.16 261.142 141.079 258.324C140.998 255.016 144.329 251.707 147.705 251.743C150.879 251.779 153.612 254.746 153.594 258.126ZM142.746 257.87C142.746 261.017 144.41 262.814 147.413 262.859C148.082 262.891 148.751 262.788 149.379 262.556C150.008 262.324 150.583 261.968 151.071 261.508C151.558 261.049 151.948 260.496 152.217 259.882C152.486 259.269 152.629 258.607 152.637 257.937C152.682 255.501 150.106 252.957 147.57 252.939C144.684 252.912 142.764 254.863 142.746 257.87V257.87Z" fill="#CCCCCC"/>
<path d="M180.086 195.857C179.888 192.814 182.055 190.81 185.238 190.621C187.935 190.463 190.434 193.178 190.416 195.979C190.394 198.676 187.953 201.206 185.341 201.242C182.262 201.287 180.081 199.053 180.086 195.857ZM185.395 199.975C187.611 199.907 189.549 197.898 189.441 195.767C189.373 194.679 188.883 193.661 188.075 192.928C187.267 192.195 186.206 191.806 185.116 191.843C184.566 191.837 184.019 191.942 183.51 192.152C183.001 192.363 182.541 192.674 182.156 193.068C181.77 193.462 181.469 193.929 181.27 194.443C181.071 194.956 180.978 195.505 180.997 196.055C181.016 196.605 181.146 197.146 181.38 197.645C181.614 198.143 181.946 198.589 182.357 198.956C182.768 199.322 183.25 199.601 183.772 199.776C184.294 199.952 184.846 200.019 185.395 199.975V199.975Z" fill="#CCCCCC"/>
<path d="M169.782 247.608C169.782 248.259 169.652 248.903 169.4 249.503C169.148 250.103 168.778 250.646 168.313 251.102C167.848 251.557 167.296 251.914 166.691 252.153C166.085 252.392 165.438 252.508 164.787 252.494C162.333 252.494 159.564 249.941 159.496 247.639C159.429 245.338 162.328 242.605 164.891 242.65C165.541 242.641 166.187 242.764 166.789 243.011C167.39 243.258 167.936 243.624 168.393 244.087C168.85 244.55 169.208 245.101 169.447 245.706C169.686 246.311 169.8 246.958 169.782 247.608V247.608ZM164.931 243.895C162.472 243.864 160.818 245.369 160.849 247.594C160.861 248.653 161.292 249.664 162.049 250.404C162.806 251.145 163.825 251.555 164.884 251.543C165.943 251.532 166.954 251.1 167.694 250.344C168.435 249.587 168.845 248.568 168.833 247.509C168.82 245.306 167.323 243.922 164.931 243.895Z" fill="#CCCCCC"/>
<path d="M366.448 286.053C366.439 286.704 366.302 287.348 366.044 287.946C365.787 288.544 365.414 289.086 364.947 289.541C364.48 289.995 363.928 290.353 363.323 290.594C362.718 290.835 362.071 290.955 361.419 290.946C360.768 290.937 360.124 290.8 359.526 290.542C358.927 290.285 358.386 289.912 357.931 289.445C357.477 288.978 357.119 288.427 356.878 287.821C356.637 287.216 356.517 286.569 356.526 285.918C356.553 283.585 359.255 280.812 361.43 280.888C363.894 280.974 366.425 283.581 366.448 286.053ZM365.099 285.999C365.099 283.639 363.692 282.12 361.502 282.129C359.443 282.129 357.524 283.981 357.533 285.936C357.542 287.891 359.583 290.107 361.444 290.161C363.561 290.22 365.09 288.48 365.099 285.999Z" fill="#DEDDD2"/>
<path d="M343.089 415.912L342.266 417.26C341.048 415.188 340.751 412.824 340.189 410.558C338.993 405.767 337.402 401.069 336.741 396.147H337.231C338.297 398.022 338.688 400.058 339.137 402.166C340.122 406.832 341.133 411.52 343.089 415.912Z" fill="#CCCCCC"/>
<path d="M335.415 213.365C338.023 213.365 339.461 214.736 339.493 217.285C339.529 219.708 337.919 221.42 335.581 221.456C333.379 221.492 331.086 219.348 331.158 217.325C331.239 215.033 333.028 213.374 335.415 213.365ZM335.415 220.589C337.308 220.616 338.513 219.487 338.589 217.604C338.674 215.613 337.492 214.341 335.519 214.3C333.545 214.26 332.277 215.469 332.3 217.447C332.34 218.265 332.682 219.039 333.26 219.619C333.838 220.2 334.611 220.545 335.429 220.589H335.415Z" fill="#DEDDD2"/>
<path d="M171.072 202.578C171.072 200.205 172.178 199.009 174.359 199.032C176.435 199.032 177.892 200.497 177.87 202.515C177.857 203.46 177.478 204.364 176.812 205.034C176.146 205.705 175.245 206.091 174.3 206.111C172.628 206.196 171.072 204.52 171.072 202.578ZM174.57 204.893C175.199 204.878 175.797 204.615 176.234 204.163C176.672 203.71 176.914 203.104 176.907 202.475C176.997 200.78 175.721 200.092 174.35 200.002C172.731 199.904 172.025 201.018 171.998 202.578C171.971 204.138 172.749 204.888 174.57 204.893Z" fill="#DEDDD2"/>
<path d="M367.787 308.586C367.697 309.624 366.937 310.699 365.247 310.798C363.952 310.874 362.303 309.157 362.437 307.867C362.476 307.155 362.77 306.482 363.266 305.97C363.761 305.458 364.425 305.142 365.135 305.08C366.609 304.9 367.837 306.397 367.787 308.586ZM365.27 309.512C366.043 309.31 366.803 308.901 366.789 307.952C366.789 306.909 366.047 306.348 365.018 306.375C364.811 306.364 364.604 306.395 364.41 306.466C364.215 306.537 364.037 306.646 363.886 306.787C363.735 306.929 363.614 307.099 363.53 307.289C363.447 307.478 363.402 307.682 363.399 307.889C363.395 308.91 364.182 309.4 365.27 309.512V309.512Z" fill="#CCCCCC"/>
<path d="M320.58 205.652C320.346 204.335 321.569 203.755 322.886 203.737C324.351 203.737 325.529 204.569 325.498 206.205C325.471 207.742 324.482 208.817 322.962 208.812C321.443 208.808 320.643 207.666 320.58 205.652ZM322.886 207.558C323.722 207.5 324.468 207.109 324.504 206.178C324.513 205.765 324.357 205.366 324.071 205.067C323.786 204.769 323.393 204.596 322.98 204.587C322.797 204.557 322.609 204.569 322.43 204.621C322.252 204.673 322.088 204.765 321.949 204.889C321.811 205.013 321.702 205.167 321.631 205.339C321.559 205.51 321.527 205.696 321.537 205.881C321.497 206.803 321.78 207.464 322.886 207.558Z" fill="#DEDDD2"/>
<path d="M154.978 236.272C154.852 238.021 153.809 239.127 152.33 239.212C150.73 239.302 149.718 237.962 149.633 236.457C149.521 234.838 150.591 233.724 152.218 233.665C153.845 233.607 154.682 234.78 154.978 236.272ZM150.505 236.448C150.685 237.239 151.144 237.985 152.2 238.021C152.426 238.049 152.655 238.027 152.872 237.959C153.088 237.89 153.288 237.776 153.456 237.623C153.625 237.47 153.759 237.283 153.848 237.074C153.938 236.865 153.981 236.639 153.976 236.412C154.034 235.373 153.427 234.645 152.375 234.672C151.445 234.695 150.658 235.166 150.505 236.434V236.448Z" fill="#CCCCCC"/>
<path d="M337.232 396.156H336.746C335.322 393.035 334.411 389.705 334.049 386.294H334.539C335.366 389.593 337.402 392.573 337.232 396.156Z" fill="#BCC2C7"/>
<path d="M298.988 251.492C297.261 251.721 295.841 251.797 296.821 249.244C297.27 248.031 296.574 246.475 297.72 245.365C297.787 247.482 298.637 249.438 298.988 251.492Z" fill="#DEDDD2"/>
<path d="M218.779 135.298C219.399 136.048 219.152 136.462 218.262 136.646C218.257 136.12 218.208 135.59 218.779 135.298Z" fill="#CCCCCC"/>
<path d="M269.363 137.545C269.238 137.541 269.116 137.508 269.007 137.446C268.898 137.385 268.806 137.298 268.738 137.193C268.67 137.088 268.629 136.969 268.618 136.844C268.607 136.72 268.627 136.595 268.675 136.479C268.792 136.501 268.903 136.546 269.001 136.613C269.1 136.679 269.184 136.764 269.249 136.864C269.313 136.964 269.356 137.075 269.376 137.193C269.396 137.31 269.391 137.43 269.363 137.545Z" fill="#CCCCCC"/>
<path d="M220.483 419.926C229.505 419.548 238.532 419.328 247.559 419.544C255.836 419.742 264.121 419.796 272.393 420.038C281.527 420.304 290.662 420.982 299.77 421.778C308.761 422.564 317.811 423.369 326.712 424.983C331.657 425.882 336.651 426.781 341.367 428.7C341.94 428.845 342.53 428.911 343.121 428.898C343.013 430.089 344.105 430.903 344.11 432.044C343.147 432.741 343.867 432.817 344.442 432.943C344.514 433.393 344.591 433.806 344.667 434.238C339.985 436.121 335.135 437.555 330.182 438.521C323.318 439.771 316.435 440.818 309.481 441.542C300.759 442.441 291.989 442.729 283.272 443.709C282.823 443.745 282.372 443.745 281.923 443.709C274.825 443.398 267.731 443.96 260.659 444.27C249.398 444.765 238.141 444.617 226.893 444.549C217.601 444.491 208.296 444.1 199.021 443.556C190.287 443.048 181.525 442.549 172.799 441.583C163.705 440.58 154.678 439.335 145.758 437.362C142.423 436.625 139.303 435.15 136.21 433.698C136.273 432.152 137.01 430.79 137.392 429.329C139.429 429.46 141.07 428.228 142.917 427.707C149.211 425.909 155.635 424.852 162.104 423.904C168.42 422.978 174.786 422.555 181.12 421.782C184.955 421.285 188.813 420.985 192.678 420.883C201.247 420.744 209.761 419.62 218.365 419.912C218.24 421.549 218.109 423.185 218.001 424.821C217.961 425.504 217.916 426.286 218.842 426.376C219.768 426.466 219.925 425.738 219.939 425.028C219.943 423.313 220.126 421.603 220.483 419.926V419.926Z" fill="#FFF2CF" fill-opacity="0.64"/>
<path d="M344.667 434.251C344.591 433.802 344.514 433.388 344.443 432.957C344.484 432.791 344.475 432.616 344.415 432.456C344.356 432.295 344.249 432.157 344.11 432.058C344.11 430.902 343.013 430.089 343.121 428.911C342.851 425.167 341.471 421.67 340.563 418.078C337.344 405.376 333.91 392.727 330.574 380.051C328.506 372.206 326.464 364.355 324.447 356.498C324.235 355.675 323.723 354.848 324.118 353.927H324.896C326.087 355.109 326.015 356.759 326.398 358.206C328.74 367.115 330.988 376.051 333.294 384.964C333.489 385.447 333.749 385.9 334.067 386.313C334.429 389.724 335.34 393.054 336.764 396.175C337.421 401.097 339.012 405.794 340.208 410.585C340.77 412.833 341.066 415.215 342.285 417.287C342.325 417.552 342.361 417.818 342.402 418.083C342.326 418.502 342.353 418.932 342.479 419.339C342.606 419.745 342.829 420.114 343.13 420.416L343.629 422.618C343.569 422.792 343.571 422.981 343.635 423.153C343.699 423.325 343.821 423.47 343.98 423.562L344.155 424.83C344.085 425.667 344.341 426.5 344.87 427.154C345.387 429.006 345.967 430.839 346.403 432.709C346.708 434.067 346.605 435.231 344.667 434.251Z" fill="#989899"/>
<path d="M137.41 429.356C137.028 430.817 136.29 432.179 136.227 433.725C134.461 434.174 134.088 433.415 134.515 431.846C135.695 427.501 136.863 423.156 138.017 418.811C138.183 418.177 138.295 417.525 138.43 416.882C140.044 415.48 139.99 413.385 140.498 411.578C144.616 396.961 148.635 382.316 152.676 367.681C153.153 365.964 153.625 364.251 154.025 362.521C154.2 361.792 154.407 361.226 155.288 361.271C155.738 364.121 154.533 366.705 153.823 369.335C151.296 378.671 148.631 387.966 146.032 397.28C143.708 405.6 141.366 413.911 139.127 422.254C138.507 424.591 137.563 426.884 137.41 429.356Z" fill="#989899"/>
<path d="M343.111 420.389C342.811 420.087 342.587 419.718 342.461 419.312C342.334 418.905 342.307 418.474 342.383 418.056C343.161 418.667 343.669 419.377 343.111 420.389Z" fill="#CCCCCC"/>
<path d="M344.851 427.127C344.323 426.473 344.067 425.64 344.136 424.803C344.963 425.396 345.471 426.093 344.851 427.127Z" fill="#CCCCCC"/>
<path d="M343.961 423.535C343.802 423.443 343.68 423.298 343.616 423.126C343.552 422.954 343.55 422.764 343.61 422.591C344.163 422.744 344.635 422.928 343.961 423.535Z" fill="#CCCCCC"/>
<path d="M220.482 419.926C220.13 421.608 219.954 423.322 219.956 425.041C219.956 425.756 219.772 426.484 218.859 426.39C217.947 426.295 217.96 425.518 218.019 424.834C218.127 423.198 218.257 421.562 218.383 419.926C219.48 416.33 219.197 412.563 219.579 408.886C220.541 399.487 221.157 390.057 222.276 380.672C222.555 378.307 222.667 375.921 222.829 373.547C222.896 372.572 222.829 371.237 224.065 371.322C225.472 371.417 224.987 372.886 224.87 373.709C224.205 378.429 223.93 383.184 223.494 387.922C222.982 393.478 222.344 399.02 221.818 404.576C221.323 409.691 220.918 414.811 220.482 419.926Z" fill="#989899"/>
<path d="M165.084 408.346C166.442 402.173 167.799 396 169.157 389.827C170.407 384.159 171.684 378.495 172.915 372.823C173.091 372.005 173.055 370.98 174.228 371.191C175.401 371.402 174.835 372.324 174.678 372.989C173.437 378.659 172.193 384.328 170.946 389.998C169.773 395.392 168.618 400.759 167.444 406.139C167.255 407.011 167.035 407.879 166.761 408.728C166.59 409.25 166.586 410.077 165.722 409.906C164.859 409.735 164.877 409.038 165.084 408.346Z" fill="#989899"/>
<path d="M284.328 370.382C284.328 369.776 284.328 369.074 285.092 368.98C285.857 368.886 285.96 369.614 286.131 370.185C287.214 373.83 287.48 377.628 288.167 381.35C289.296 387.553 290.136 393.81 291.139 400.035C291.251 400.737 291.512 401.528 290.649 401.69C289.786 401.851 289.413 401.024 289.3 400.256C287.916 391.607 286.535 382.959 285.16 374.311C284.94 373.003 284.607 371.704 284.328 370.382Z" fill="#989899"/>
<path d="M319.901 334.612L320.247 335.511L319.402 336.41C318.323 335.56 318.84 334.005 317.932 333.079C318.21 332.18 318.988 332.499 319.59 332.387C319.644 332.688 319.703 332.994 319.757 333.286C319.15 333.789 319.091 334.248 319.901 334.612Z" fill="#989899"/>
<path d="M321.151 338.621C321.443 339.691 321.73 340.761 322.023 341.826L320.8 341.786C320.539 341.062 320.121 340.37 320.274 339.538L321.151 338.621Z" fill="#8C8C8C"/>
<path d="M320.8 341.786L322.023 341.827C322.517 342.636 322.441 343.557 322.549 344.443L321.569 344.519C321.376 343.593 320.458 342.865 320.8 341.786Z" fill="#989899"/>
<path d="M324.895 353.899H324.118C323.852 353 323.093 352.268 323.353 351.229L324.275 350.753C324.855 351.737 324.621 352.852 324.895 353.899Z" fill="#8C8C8C"/>
<path d="M321.151 338.621L320.252 339.547C319.956 339.261 319.735 338.906 319.609 338.514C319.483 338.122 319.455 337.705 319.528 337.3L320.746 337.749L321.151 338.621Z" fill="#989899"/>
<path d="M320.769 337.754L319.551 337.304C319.506 336.994 319.452 336.689 319.402 336.378L320.248 335.479C320.859 336.145 320.585 337.003 320.769 337.754Z" fill="#8C8C8C"/>
<path d="M323.556 348.078C323.642 348.379 323.732 348.68 323.821 348.977L322.738 349.031C322.5 348.388 321.628 347.799 322.576 347.058C322.683 347.092 322.786 347.139 322.882 347.197C322.9 347.651 323.039 348.011 323.556 348.078Z" fill="#989899"/>
<path d="M322.958 345.391C323.47 345.908 323.286 346.582 323.353 347.189H322.904C322.808 347.13 322.705 347.084 322.598 347.049C322.279 346.55 321.856 346.092 321.915 345.436L322.958 345.391Z" fill="#989899"/>
<path d="M324.275 350.767L323.354 351.243C322.904 350.901 322.904 350.407 322.904 349.895C323.255 350.025 323.619 350.313 323.898 349.782L324.275 350.767Z" fill="#989899"/>
<path d="M322.957 345.391L321.892 345.454L321.568 344.519L322.548 344.442C322.683 344.762 322.823 345.072 322.957 345.391Z" fill="#8C8C8C"/>
<path d="M323.898 349.786C323.619 350.317 323.255 350.029 322.904 349.899L322.742 349.04L323.821 348.986C323.848 349.256 323.871 349.521 323.898 349.786Z" fill="#8C8C8C"/>
<path d="M252.351 280.551C256.442 281.023 260.295 281.346 264.098 281.944C267.901 282.542 268.09 282.681 267.694 286.664C267.088 292.642 266.179 298.593 265.523 304.567C264.898 310.294 263.563 316.074 266.652 321.594C268 323.972 269.497 326.161 271.659 327.819C272.747 328.646 273.04 329.577 272.86 330.907C271.57 340.432 270.347 349.966 269.088 359.495C268.818 361.554 268.378 363.599 268.229 365.667C268.14 366.916 267.609 367.213 266.544 367.091C263.293 366.727 260.016 366.507 256.797 365.954C252.657 365.24 252.796 365.109 252.302 360.852C251.479 353.697 251.227 346.469 249.676 339.412C248.081 332.161 241.787 326.336 234.796 325.293C225.909 323.945 218.779 328.467 215.214 334.908C213.303 338.355 213.335 338.36 209.451 337.874C205.566 337.389 201.808 336.975 197.956 336.472C196.36 336.265 195.411 336.629 194.809 338.382C192.876 344.109 190.673 349.745 188.686 355.463C188.115 357.108 187.45 357.616 185.602 357.261C182.533 356.689 179.431 356.307 176.314 356.119C172.934 355.859 172.776 355.935 172.974 352.699C173.473 344.522 174.125 336.355 174.709 328.183C175.482 317.395 176.278 306.608 176.993 295.82C177.195 292.772 177.042 289.711 177.834 286.713C179.101 281.899 182.23 278.487 186.051 275.57C186.168 275.48 186.335 275.431 186.416 275.314C188.524 272.464 191.361 273.031 194.287 273.476C197.308 273.925 200.356 274.208 203.391 274.545C204.231 274.64 205.027 274.631 205.085 275.835C205.346 280.955 208.614 283.899 212.786 286.007C216.176 287.724 219.849 288.511 223.643 287.841C226.34 287.365 226.053 289.316 226.34 290.795C227.559 297.339 233.834 302.427 240.465 302.198C247.096 301.969 252.778 296.638 253.893 290.174C254.446 286.776 253.547 283.877 252.351 280.551ZM208.785 312.572C208.785 306.1 203.391 300.436 197.021 300.71C190.277 301.011 185.053 305.799 185.233 313.107C185.4 319.85 189.904 324.565 196.742 324.754C198.354 324.825 199.964 324.557 201.466 323.968C202.969 323.379 204.331 322.482 205.466 321.334C206.601 320.187 207.482 318.814 208.054 317.305C208.626 315.796 208.875 314.184 208.785 312.572Z" fill="#FDFDFD"/>
<path d="M332.952 267.826C331.307 269.832 329.048 271.239 326.523 271.831C322.374 272.834 320.94 274.047 320.369 278.124C319.586 283.707 319.087 289.334 318.4 294.935C317.712 300.536 316.903 306.119 316.242 311.719C315.981 313.931 316.026 316.214 315.293 318.313C313.243 324.157 307.965 326.764 301.451 325.671C295.89 324.737 290.276 324.085 284.665 323.505C275.872 322.606 272.365 316.47 274.227 308.33C274.46 307.296 275.085 307.085 275.899 306.838C293.391 301.444 302.355 288.728 306.221 271.629C306.559 270.335 306.71 269.001 306.671 267.664C306.45 264.815 307.682 264.621 310.002 264.967C315.725 265.812 321.474 266.46 327.215 267.174C328.969 267.377 330.74 267.57 332.952 267.826ZM310.959 287.154C308.532 287.096 306.513 289.146 306.464 291.73C306.415 293.641 308.626 295.911 310.631 296.009C313.108 296.131 315.203 293.955 315.208 291.258C315.199 289.222 313.131 287.226 310.959 287.168V287.154Z" fill="#FDFDFD"/>
<path d="M279.324 287.995C279.324 285.954 281.271 283.999 283.294 283.994C285.245 283.994 287.389 286.147 287.313 288.04C287.232 290.139 285.303 292.265 283.46 292.292C281.122 292.332 279.315 290.449 279.324 287.995Z" fill="#F9F9F9"/>
<path d="M289.16 246.188C289.16 246.259 289.102 247.006 288.963 247.729C288.369 250.826 288.365 250.714 285.249 250.651C283.33 250.611 282.718 249.842 283.024 248.062C283.19 247.109 283.343 246.152 283.451 245.194C283.77 242.398 284.593 241.49 286.697 241.657C288.724 241.827 289.237 242.614 289.16 246.188Z" fill="#F9F9F9"/>
<path d="M316.628 252.813C317.352 251.541 316.907 249.838 317.293 248.229C317.743 246.309 318.745 245.505 320.602 245.815C322.459 246.125 323.155 247.554 323.084 249.258C322.963 250.744 322.753 252.221 322.454 253.681C322.288 254.706 321.847 255.29 320.616 254.944C319.74 254.763 318.848 254.668 317.954 254.661C316.934 254.584 316.444 254.112 316.628 252.813Z" fill="#F9F9F9"/>
<path d="M286.742 208.943C285.843 208.39 285.231 207.761 286.032 206.695C286.307 206.995 286.513 207.352 286.636 207.74C286.758 208.129 286.795 208.539 286.742 208.943V208.943Z" fill="#CCCCCC"/>
<path d="M288.482 216.125C287.731 215.532 287.309 214.844 287.794 213.878C288.092 214.162 288.312 214.518 288.432 214.912C288.553 215.305 288.57 215.723 288.482 216.125V216.125Z" fill="#CCCCCC"/>
<path d="M289.062 218.373C288.558 218.215 288.131 218.035 288.716 217.474C288.798 217.509 288.873 217.561 288.935 217.626C288.997 217.69 289.045 217.767 289.078 217.85C289.11 217.934 289.125 218.023 289.122 218.113C289.12 218.203 289.099 218.291 289.062 218.373V218.373Z" fill="#CCCCCC"/>
<path d="M287.601 212.534C287.489 212.508 287.385 212.457 287.294 212.387C287.204 212.316 287.13 212.226 287.077 212.124C287.025 212.022 286.995 211.91 286.99 211.795C286.985 211.681 287.005 211.566 287.048 211.46C287.52 211.671 287.875 211.941 287.601 212.534Z" fill="#CCCCCC"/>
<path d="M256.424 140.049C256.424 139.15 256.379 138.615 256.424 138.098C256.5 137.442 256.019 136.336 257.175 136.381C258.047 136.413 258.074 137.433 258.137 138.179C258.914 147.686 259.62 157.206 260.483 166.708C261.234 175.015 262.21 183.304 262.996 191.61C263.563 197.62 263.945 203.648 264.48 209.657C265.145 217.074 265.909 224.491 266.561 231.898C266.66 233 267.348 234.852 265.99 235.045C264.399 235.288 264.754 233.247 264.642 232.262C263.904 224.774 263.396 217.263 262.709 209.788C261.729 199.036 260.623 188.293 259.647 177.541C258.959 169.972 258.42 162.384 257.773 154.81C257.372 149.758 256.864 144.737 256.424 140.049Z" fill="#989899"/>
<path d="M186.829 249.316C186.888 245.67 188.403 242.367 189.351 238.942C193.541 223.785 197.852 208.659 202.123 193.543C205.56 181.355 209.007 169.17 212.463 156.985C212.912 155.385 212.705 153.511 214.225 152.302C215.29 152.58 215.124 153.322 214.877 154.073C212.66 161.004 210.745 168.007 208.776 175.019C206.623 182.661 204.416 190.279 202.447 197.97C200.716 204.744 198.63 211.428 196.71 218.157C193.893 228.046 191.082 237.935 188.277 247.824C188.056 248.57 188.038 249.496 186.829 249.316Z" fill="#989899"/>
<path d="M219.664 199.319C220.15 196.173 220.622 193.067 221.103 189.974C222.276 182.405 223.373 174.818 224.672 167.266C225.508 162.421 226.43 157.593 226.974 152.703C227.046 152.334 227.152 151.973 227.288 151.624C227.45 151.098 227.702 150.558 228.331 150.657C229.163 150.792 229.015 151.556 228.961 152.105C228.866 153.139 228.691 154.172 228.534 155.202C227.464 162.119 226.421 169.042 225.315 175.95C224.164 183.142 222.955 190.334 221.768 197.526C221.656 198.191 221.516 198.847 221.386 199.504C221.278 200.03 221.134 200.627 220.487 200.587C219.669 200.551 219.687 199.854 219.664 199.319Z" fill="#989899"/>
<path d="M270.307 142.009C271.588 142.009 271.579 142.993 271.79 143.856C274.589 155.168 277.396 166.484 280.21 177.802C281.464 182.85 282.678 187.902 283.968 192.941C284.18 193.763 284.324 194.393 283.344 194.739C282.57 194.442 282.584 193.714 282.445 193.071C279.945 183.025 277.423 172.988 274.95 162.955C273.458 156.878 272.033 150.787 270.617 144.697C270.455 143.808 270.352 142.911 270.307 142.009Z" fill="#989899"/>
<path d="M234.864 188.338C234.136 196.298 233.389 204.236 232.688 212.161C232.319 216.39 232.023 220.629 231.695 224.863C231.699 225.386 231.66 225.907 231.578 226.423C231.429 227.016 231.079 227.605 230.373 227.529C229.591 227.448 229.559 226.765 229.618 226.144C230.31 219.11 231.241 212.089 231.627 205.018C231.87 200.55 232.661 196.132 232.675 191.655C232.629 190.46 232.757 189.266 233.057 188.108C233.277 187.371 232.949 186.122 234.059 186.176C235.471 186.261 234.603 187.587 234.864 188.338Z" fill="#989899"/>
<path d="M213.501 213.847C215.326 213.739 216.369 214.836 216.288 216.341C216.22 217.573 215.429 218.908 213.68 218.796C212.111 218.692 211.127 217.847 211.113 216.305C211.1 214.764 211.765 213.698 213.501 213.847Z" fill="#FDFDFD"/>
<path d="M208.502 211.19C207.153 210.898 206.182 210.183 206.16 208.7C206.133 207.122 207.31 206.376 208.601 206.34C210.003 206.304 210.947 207.365 211.019 208.772C211.1 210.363 209.756 210.754 208.502 211.19Z" fill="#F9F9F9"/>
<path d="M353.581 80.9588C354.655 84.8829 353.181 88.1013 350.749 91.032C350.182 91.7197 349.436 92.2681 348.87 92.9558C347.638 94.4571 346.172 95.0279 344.176 94.8976C340.818 94.6818 340.229 95.2482 339.465 98.5655C339.401 98.9331 339.243 99.2781 339.007 99.5671C338.771 99.856 338.464 100.079 338.116 100.215C334.97 101.564 331.823 102.935 328.676 104.261C327.709 104.665 326.878 104.953 326.828 103.249C326.743 100.786 325.03 99.2667 323.155 97.9272C317.536 93.8817 311.098 91.8276 304.557 89.9532C299.12 88.3972 293.605 87.1219 288.036 86.1325C281.9 85.0357 275.701 84.2716 269.488 83.5884C262.524 82.8242 255.552 82.3972 248.561 82.0241C242.445 81.6436 236.31 81.6947 230.202 82.177C225.162 82.6265 220.123 82.9411 215.092 83.5794C208.671 84.3466 202.315 85.5861 196.076 87.2877C188.753 89.3329 181.506 91.6163 174.579 94.8302C171.863 96.0524 169.299 97.5849 166.936 99.397C164.958 100.952 163.682 102.917 164.635 105.631C164.909 106.423 164.918 107.034 163.785 106.715C157.828 105.043 152.137 102.696 146.091 99.8735C149.867 98.1564 153.063 96.336 155.608 93.5806C156.748 92.3848 157.569 90.9208 157.995 89.3239C158.732 86.3797 156.826 84.1772 153.499 84.1592C148.554 84.1278 144.652 86.5011 141.123 89.661C140.013 90.6589 138.938 91.7062 138.309 93.1131C138.008 93.7873 137.522 94.2413 136.717 93.8503C133.571 92.3265 129.169 85.6425 130.181 82.9321C130.469 82.7119 130.887 82.5545 131.026 82.2624C133.242 77.5741 137.261 74.6929 141.51 72.2027C151.607 66.2784 162.639 62.8128 174.012 60.2957C181.915 58.5426 189.877 57.1762 197.91 56.0884C208.47 54.707 219.096 53.8892 229.743 53.6387C242.429 53.2731 255.116 53.5113 267.802 54.3534C276.645 54.9467 285.433 55.958 294.173 57.2751C300.258 58.2032 306.291 59.4516 312.245 61.0148C317.707 62.4352 323.227 63.6309 328.483 65.6986C335.068 68.2921 341.627 70.9262 347.337 75.3177C349.584 77.0393 351.459 79.1114 353.581 80.9588ZM281.226 75.1469C284.184 74.9221 286.993 74.6614 289.426 72.9758C292.019 71.1779 292.253 68.1258 289.754 66.2335C284.269 62.1206 278.155 61.352 271.799 63.6983C267.478 65.2895 267.02 69.0922 270.616 71.933C273.777 74.4187 277.562 74.7693 281.226 75.1469ZM228.687 72.4095C232.18 72.4095 235.628 71.5689 237.929 70.162C241.076 68.2697 241.355 65.5952 238.788 63.0376C236.221 60.4799 232.912 60.1338 229.671 60.0664C226.43 59.999 223.117 60.2822 220.172 62.0397C216.508 64.2242 216.346 67.955 219.916 70.189C222.586 71.8836 225.58 72.405 228.687 72.4095ZM185.53 67.4291C181.079 67.9775 176.467 68.7191 172.879 72.2387C171.571 73.5197 170.272 74.9806 170.82 76.9044C171.396 78.9136 173.181 79.8441 175.136 80.4104C179.24 81.6016 183.098 80.5408 186.883 79.0934C189.252 78.1945 191.509 77.0123 192.889 74.7019C193.968 72.9039 193.963 71.2453 192.399 69.6631C190.542 67.7977 188.16 67.7078 185.525 67.4246L185.53 67.4291ZM320.683 74.6884C319.932 74.6884 319.186 74.6525 318.435 74.6884C314.569 74.9177 312.64 78.3698 314.906 81.4578C318.88 86.8517 324.634 88.9238 331.126 88.8969C332.193 88.9068 333.237 88.5858 334.115 87.9781C334.992 87.3704 335.66 86.5058 336.026 85.5032C336.844 83.3411 335.46 81.7185 334.102 80.3655C332.357 78.571 330.27 77.1442 327.965 76.1691C325.659 75.1941 323.182 74.6906 320.678 74.6884H320.683Z" fill="#4C5466"/>
<path d="M242.336 83.156C249.978 83.1021 259.486 83.8617 268.998 84.8596C280.125 86.0238 291.166 87.642 301.973 90.4738C309.382 92.4111 316.84 94.4832 323.025 99.4007C324.307 100.421 325.826 101.45 325.503 103.361C325.179 105.271 323.515 105.775 321.942 106.39C318.386 107.779 314.637 108.453 310.995 109.537C310.317 109.735 309.557 109.824 309.197 109.087C306.846 104.448 302.274 102.817 297.958 101.217C289.053 97.9353 279.72 96.4475 270.311 95.2159C257.503 93.5348 244.651 93.5932 231.839 94.0787C217.839 94.6091 203.939 96.5239 190.651 101.365C187.682 102.423 184.944 104.04 182.586 106.13C181.633 106.984 180.729 107.901 180.554 109.276C180.401 110.481 179.592 110.804 178.625 110.53C175.339 109.6 171.976 108.966 168.78 107.662C164.464 105.9 164.963 102.268 168.173 99.9491C171.343 97.7001 174.784 95.8592 178.414 94.4698C186.258 91.3952 194.229 88.7162 202.501 87.0127C208.844 85.7046 215.232 84.7652 221.674 84.0146C227.923 83.3089 234.154 83.1785 242.336 83.156Z" fill="#4C5466"/>
<path d="M244.322 100.296C254.454 100.034 264.587 100.816 274.559 102.629C281.419 103.833 288.351 105.182 294.245 109.421C297.904 112.046 297.976 114.72 294.209 117.278C289.556 120.424 284.22 121.863 278.825 123.121C278.305 123.221 277.766 123.118 277.319 122.833C270.792 119.197 263.581 118.154 256.316 117.318C248.566 116.419 240.762 116.554 233.038 117.066C225.315 117.579 217.614 118.577 210.655 122.433C210.429 122.566 210.179 122.651 209.919 122.682C209.659 122.714 209.396 122.692 209.145 122.618C204.33 121.238 199.542 119.777 195.366 116.891C191.68 114.343 191.72 111.731 195.46 109.191C200.046 106.081 205.261 104.602 210.588 103.348C218.23 101.55 226.03 101.141 233.785 100.35C237.264 99.9993 240.807 100.296 244.322 100.296ZM226.574 106.53C225.369 106.917 223.706 106.787 222.078 107.007C217.691 107.614 213.254 108.122 209.185 110.077C207.733 110.778 206.344 111.641 206.991 113.596C207.639 115.552 208.839 116.028 211.316 115.156C213.914 114.257 216.513 113.358 219.26 113.003C222.006 112.648 224.848 112.248 227.648 111.915C229.37 111.704 230.346 110.621 230.134 109.07C229.923 107.519 228.786 106.445 226.574 106.53ZM239.471 111.879C241.926 111.879 243.648 110.787 243.684 109.182C243.733 107.304 242.173 106.157 239.557 106.144C239.108 106.119 238.657 106.119 238.208 106.144C237.534 106.192 236.893 106.459 236.384 106.904C235.875 107.35 235.526 107.949 235.389 108.612C235.025 110.086 236.14 110.886 237.287 111.542C237.979 111.924 238.712 111.893 239.467 111.893L239.471 111.879Z" fill="#4C5466"/>
<path d="M353.581 80.9585C351.459 79.12 349.585 77.0389 347.337 75.3083C341.628 70.9168 335.069 68.2828 328.483 65.6892C323.228 63.6215 317.694 62.4259 312.245 61.0055C306.291 59.4422 300.259 58.1939 294.173 57.2657C285.434 55.9487 276.641 54.9373 267.802 54.344C255.119 53.49 242.433 53.2517 229.743 53.6293C219.096 53.8799 208.47 54.6976 197.911 56.079C189.877 57.1668 181.916 58.5333 174.012 60.2863C162.652 62.8035 151.607 66.269 141.51 72.1934C137.262 74.6835 133.243 77.5648 131.026 82.253C130.887 82.5452 130.469 82.7025 130.181 82.9227C129.516 77.2232 133.126 73.8025 136.978 70.6965C143.991 65.0509 152.304 61.9719 160.737 59.1985C160.819 59.2376 160.908 59.2595 160.998 59.2629C161.088 59.2663 161.179 59.2511 161.263 59.2182C161.347 59.1853 161.424 59.1355 161.488 59.0718C161.552 59.0081 161.603 58.9319 161.636 58.8479L162.535 58.6726C165.075 58.1422 167.674 57.7961 169.931 56.3667L170.654 56.3083C171.553 56.7308 172.241 56.3083 172.902 55.7284L174.228 55.5127C175.276 55.8543 176.139 55.4632 176.926 54.8339L178.724 54.4968C179.277 54.9868 179.528 54.6272 179.731 54.1372L179.677 54.0878L182.725 53.7687C183.26 53.9844 183.745 53.9979 184.073 53.427L185.903 53.1484C186.245 53.4945 186.541 53.463 186.802 53.036L187.67 52.8876C188.2 53.0989 188.681 53.1034 189.019 52.573L190.79 52.3797C192.185 52.6347 193.626 52.3896 194.858 51.6875L196.634 51.5571C198.518 51.8763 200.293 51.4223 202.029 50.8065L203.804 50.7031C205.463 51.0897 207.059 50.5233 208.686 50.3975C219.925 49.5299 231.164 48.9321 242.452 49.0085C249.919 49.0535 257.368 49.4131 264.822 49.8221C269.358 50.0738 273.853 50.8919 278.416 50.7211L279.315 50.7705C281.344 51.4329 283.479 51.7103 285.609 51.5886L286.958 51.6695C288.207 52.2977 289.618 52.5328 291.004 52.3438L293.225 52.5595C294.169 53.3281 295.27 53.3147 296.371 53.1888L298.579 53.5259C298.619 53.6073 298.677 53.6791 298.748 53.7365C298.818 53.7939 298.9 53.8357 298.988 53.8591C299.076 53.8824 299.168 53.8869 299.258 53.8721C299.348 53.8572 299.433 53.8235 299.509 53.7731L300.341 53.899C301.555 54.1507 302.652 54.9733 303.982 54.6362L305.331 54.816C306.127 55.4677 306.994 55.8318 308.028 55.4947L309.377 55.7105C312.843 57.1623 316.511 57.8995 320.166 58.7221L321.065 58.8884C321.546 59.4502 322.104 59.7874 322.863 59.5536L323.763 59.7469C323.833 59.9163 323.965 60.0527 324.131 60.1286C324.298 60.2046 324.488 60.2143 324.662 60.1559L330.056 62.0079C330.137 62.168 330.271 62.2952 330.434 62.3681C330.598 62.4411 330.782 62.4551 330.955 62.4079C331.958 62.745 332.821 63.4507 333.922 63.5181C334.143 63.9676 334.421 64.3182 335.006 64.1564L336.984 64.9341C337.379 65.5004 337.748 66.1072 338.598 65.9454C342.612 68.121 346.447 70.5302 349.643 73.8475C351.626 75.8837 353.078 78.1536 353.581 80.9585Z" fill="#F9F9F9"/>
<path d="M196.661 51.5578L194.885 51.6882C193.362 50.933 192.04 51.369 190.817 52.3804L189.046 52.5737C188.439 52.0163 187.985 52.1466 187.697 52.8883L186.83 53.0366C186.474 52.6141 186.191 52.7265 185.93 53.149L184.101 53.4277C183.498 52.9288 183.049 53.0636 182.752 53.7693L179.704 54.0884C179.704 53.639 179.677 53.149 179.659 52.677C183.121 52.9108 186.366 51.6432 189.738 51.2477C189.998 51.21 190.247 51.1166 190.467 50.9738C190.687 50.8311 190.874 50.6423 191.015 50.4206C194.117 45.9976 199.021 44.7525 203.742 43.2287C208.192 41.7723 212.854 41.2419 217.381 40.1182C224.574 39.5519 231.74 38.9226 238.928 38.4371C244.588 38.0505 250.239 38.6933 255.885 38.954C258.475 39.0709 261.059 39.3226 263.644 39.5114C272.595 40.6711 281.514 41.9881 289.921 45.4986C292.762 46.6853 295.455 48.1192 296.974 51.0499C297.693 52.4388 299.136 52.4703 300.463 52.668L300.422 53.9356L299.59 53.8098C299.393 53.3018 299.141 52.9602 298.66 53.5625L296.453 53.2254C295.486 52.5871 294.542 51.8185 293.306 52.5961L291.085 52.3804C289.858 51.3915 288.536 50.96 287.039 51.7061L285.69 51.6252C283.694 50.5285 281.617 50.079 279.397 50.8071L278.498 50.7622C278.313 49.9711 277.679 50.0565 277.081 49.9846C268.814 48.9507 260.493 48.5147 252.185 48.2855C242.421 48.0158 232.634 47.9439 222.87 48.6451C217.606 49.0182 212.324 49.18 207.064 49.6475C206.043 49.7374 204.609 49.4272 203.885 50.7262L202.11 50.8341C200.123 49.9981 198.365 50.5779 196.661 51.5578Z" fill="#1A1D2A"/>
<path d="M149.507 96.5377L148.788 96.7759C146.742 97.0951 144.904 98.3716 142.732 98.0839L141.501 97.4951C141.406 96.686 140.804 96.6546 140.188 96.6321C139.001 96.0882 138.462 95.4769 139.374 94.1104C142.678 89.166 147.183 86.1634 153.09 85.597C156.381 85.2779 157.585 87.3366 156.111 90.2942C154.879 92.7485 153.108 94.7083 150.519 95.8185C150.404 95.7886 150.284 95.7841 150.168 95.8054C150.052 95.8267 149.941 95.8733 149.845 95.9419C149.748 96.0105 149.668 96.0993 149.61 96.2023C149.551 96.3052 149.516 96.4197 149.507 96.5377V96.5377Z" fill="#E5E8EA"/>
<path d="M169.93 56.3662C167.683 57.7956 165.075 58.1417 162.535 58.6721C164.715 57.009 167.323 56.6943 169.93 56.3662Z" fill="#A6A6A6"/>
<path d="M142.732 98.0844C144.904 98.3721 146.742 97.0955 148.788 96.7764C146.675 98.8171 144.306 99.3385 142.732 98.0844Z" fill="#CCCCCC"/>
<path d="M342.648 96.2412C343.494 96.7401 344.577 97.1986 342.797 97.9493C342.176 98.21 341.592 98.5381 340.891 98.4392C341.021 97.3425 341.381 96.43 342.648 96.2412Z" fill="#E5E8EA"/>
<path d="M322.922 59.5668C322.144 59.8185 321.574 59.4634 321.124 58.9015C321.259 58.4835 321.394 58.0655 321.533 57.6475C322.01 57.6475 322.383 57.7688 322.482 58.3037L322.922 59.5668Z" fill="#A2A2A2"/>
<path d="M176.926 54.8389C176.121 55.4682 175.258 55.8592 174.229 55.5176C174.566 55.1583 175 54.9033 175.478 54.783C175.956 54.6626 176.458 54.6821 176.926 54.8389V54.8389Z" fill="#A6A6A6"/>
<path d="M172.884 55.7372C172.237 56.3126 171.536 56.7396 170.637 56.3171C171.307 55.7867 171.949 55.2023 172.884 55.7372Z" fill="#A6A6A6"/>
<path d="M338.63 65.9593C337.78 66.1211 337.411 65.5098 337.016 64.9479C337.924 64.6962 338.418 65.1008 338.63 65.9593Z" fill="#A2A2A2"/>
<path d="M140.188 96.6416C140.804 96.6641 141.407 96.6955 141.501 97.5046C141.214 97.5485 140.921 97.4846 140.679 97.3252C140.437 97.1658 140.262 96.9223 140.188 96.6416V96.6416Z" fill="#CCCCCC"/>
<path d="M330.987 62.4208C330.814 62.468 330.63 62.4539 330.466 62.381C330.302 62.3081 330.169 62.1808 330.088 62.0207C330.699 61.4544 330.87 61.9038 330.987 62.4208Z" fill="#A2A2A2"/>
<path d="M324.703 60.1697C324.529 60.2281 324.34 60.2184 324.173 60.1424C324.006 60.0665 323.874 59.9301 323.804 59.7607C324.424 59.1943 324.577 59.6708 324.703 60.1697Z" fill="#A2A2A2"/>
<path d="M161.65 58.8477C161.616 58.9317 161.566 59.0079 161.502 59.0716C161.438 59.1353 161.361 59.1851 161.277 59.218C161.192 59.2508 161.102 59.2661 161.012 59.2627C160.921 59.2593 160.833 59.2374 160.751 59.1983C160.895 58.6993 161.097 58.3128 161.65 58.8477Z" fill="#A6A6A6"/>
<path d="M179.739 54.1373C179.537 54.6272 179.29 54.9868 178.732 54.4969C178.773 54.4058 178.832 54.324 178.906 54.2563C178.979 54.1886 179.065 54.1364 179.159 54.1028C179.253 54.0692 179.353 54.0549 179.453 54.0609C179.553 54.0668 179.65 54.0928 179.739 54.1373V54.1373Z" fill="#A6A6A6"/>
<path d="M149.508 96.5375C149.517 96.4196 149.552 96.3051 149.611 96.2021C149.669 96.0992 149.749 96.0103 149.846 95.9417C149.942 95.8731 150.052 95.8265 150.169 95.8052C150.285 95.7839 150.405 95.7884 150.519 95.8183C150.393 96.3532 150.101 96.6409 149.508 96.5375Z" fill="#CCCCCC"/>
<path d="M335.038 64.1705C334.453 64.3323 334.174 63.9862 333.954 63.5322C334.512 63.4108 334.916 63.5682 335.038 64.1705Z" fill="#A2A2A2"/>
<path d="M320.216 58.7358C316.575 57.9132 312.906 57.176 309.427 55.7242C309.607 55.423 309.791 55.1219 309.975 54.8252C313.392 54.9555 316.561 56.1152 319.748 57.1985C319.915 57.7109 320.081 58.2234 320.216 58.7358Z" fill="#A2A2A2"/>
<path d="M300.404 53.913L300.445 52.6454C301.065 52.6454 301.712 52.5151 302.243 52.987C302.045 54.4074 303.866 53.6388 304.041 54.6502C302.715 54.9873 301.618 54.1647 300.404 53.913Z" fill="#A2A2A2"/>
<path d="M304.046 54.6495C303.87 53.6381 302.05 54.4067 302.247 52.9863C303.596 53.2605 305.012 53.3729 306.293 53.9887L305.394 54.8293L304.046 54.6495Z" fill="#8C8C8C"/>
<path d="M305.39 54.8386L306.289 53.998L307.615 54.4745C307.777 54.8251 307.934 55.1712 308.096 55.5173C307.044 55.8455 306.185 55.4814 305.39 54.8386Z" fill="#A2A2A2"/>
<path d="M308.1 55.508C307.938 55.1619 307.781 54.8157 307.619 54.4651C308.433 54.4337 309.273 54.2089 309.988 54.8247C309.804 55.1214 309.62 55.4226 309.44 55.7237L308.1 55.508Z" fill="#8C8C8C"/>
<path d="M320.215 58.7355C320.062 58.2231 319.914 57.7107 319.766 57.1982L321.519 57.6477C321.38 58.0703 321.245 58.4883 321.11 58.9063L320.215 58.7355Z" fill="#8F8F8F"/>
<path d="M319.901 334.612C319.092 334.248 319.151 333.79 319.757 333.264C319.807 333.718 319.856 334.167 319.901 334.612Z" fill="#8C8C8C"/>
<path d="M322.882 347.207H323.331C323.399 347.499 323.462 347.791 323.529 348.106C323.039 348.012 322.9 347.652 322.882 347.207Z" fill="#8C8C8C"/>
<path d="M349.302 296.027C350.143 296.007 350.979 296.157 351.761 296.467C352.543 296.778 353.254 297.243 353.852 297.834C354.451 298.425 354.924 299.131 355.243 299.91C355.563 300.688 355.722 301.522 355.712 302.363C355.701 303.204 355.522 304.035 355.183 304.805C354.845 305.575 354.355 306.269 353.742 306.846C353.13 307.422 352.407 307.87 351.618 308.161C350.829 308.452 349.989 308.582 349.149 308.541C345.786 308.514 343.048 305.574 343.093 302.041C343.099 301.237 343.265 300.442 343.581 299.702C343.898 298.962 344.358 298.293 344.936 297.733C345.514 297.173 346.198 296.734 346.947 296.441C347.697 296.148 348.497 296.007 349.302 296.027V296.027Z" fill="#8C8C8C"/>
<path d="M318.058 232.757C317.388 232.775 316.721 232.655 316.1 232.405C315.478 232.156 314.914 231.782 314.442 231.306C313.97 230.83 313.601 230.262 313.357 229.639C313.113 229.015 312.999 228.347 313.023 227.678C313.081 224.81 315.27 222.76 318.251 222.787C318.92 222.773 319.586 222.894 320.207 223.144C320.828 223.394 321.392 223.768 321.865 224.242C322.337 224.717 322.709 225.282 322.956 225.904C323.203 226.527 323.322 227.193 323.304 227.862C323.259 230.662 320.98 232.784 318.058 232.757Z" fill="#8C8C8C"/>
<path d="M142.746 257.87C142.746 254.877 144.684 252.926 147.57 252.926C150.105 252.926 152.681 255.488 152.636 257.924C152.629 258.594 152.486 259.255 152.217 259.869C151.948 260.482 151.558 261.035 151.07 261.495C150.583 261.954 150.007 262.311 149.379 262.543C148.751 262.775 148.082 262.878 147.413 262.846C144.41 262.819 142.733 261.026 142.746 257.87Z" fill="#8F8F8F"/>
<path d="M185.395 199.975C184.846 200.019 184.293 199.951 183.771 199.776C183.249 199.601 182.768 199.322 182.357 198.955C181.946 198.589 181.613 198.143 181.38 197.645C181.146 197.146 181.015 196.605 180.997 196.055C180.978 195.505 181.071 194.956 181.27 194.443C181.469 193.929 181.77 193.462 182.155 193.068C182.54 192.674 183.001 192.363 183.51 192.152C184.019 191.942 184.565 191.837 185.116 191.843C186.206 191.806 187.267 192.195 188.075 192.928C188.882 193.661 189.372 194.679 189.441 195.767C189.548 197.898 187.611 199.907 185.395 199.975Z" fill="#8F8F8F"/>
<path d="M164.932 243.895C167.324 243.922 168.821 245.306 168.834 247.491C168.845 248.55 168.436 249.569 167.695 250.326C166.954 251.082 165.944 251.514 164.885 251.525C163.826 251.537 162.806 251.127 162.049 250.386C161.293 249.646 160.861 248.635 160.85 247.576C160.819 245.369 162.473 243.864 164.932 243.895Z" fill="#8F8F8F"/>
<path d="M365.099 285.999C365.099 288.48 363.562 290.22 361.431 290.161C359.569 290.108 357.529 287.914 357.52 285.936C357.511 283.958 359.43 282.138 361.489 282.129C363.687 282.12 365.108 283.63 365.099 285.999Z" fill="#BCC2C7"/>
<path d="M335.428 220.589C334.612 220.542 333.842 220.195 333.266 219.613C332.691 219.032 332.351 218.259 332.313 217.442C332.29 215.46 333.527 214.255 335.532 214.296C337.537 214.336 338.678 215.608 338.602 217.6C338.512 219.488 337.321 220.616 335.428 220.589Z" fill="#BCC2C7"/>
<path d="M174.57 204.893C172.75 204.893 171.967 204.137 171.999 202.578C172.03 201.018 172.732 199.903 174.35 200.002C175.721 200.092 176.998 200.78 176.908 202.474C176.914 203.104 176.672 203.71 176.235 204.163C175.798 204.615 175.2 204.877 174.57 204.893V204.893Z" fill="#BCC2C7"/>
<path d="M365.27 309.513C364.182 309.4 363.395 308.91 363.399 307.89C363.402 307.683 363.447 307.479 363.53 307.289C363.614 307.1 363.735 306.93 363.886 306.788C364.037 306.647 364.215 306.537 364.41 306.466C364.604 306.395 364.811 306.364 365.018 306.375C366.047 306.348 366.771 306.91 366.789 307.953C366.803 308.901 366.043 309.31 365.27 309.513Z" fill="#8C8C8C"/>
<path d="M322.886 207.559C321.78 207.464 321.496 206.803 321.537 205.882C321.527 205.696 321.559 205.511 321.63 205.339C321.702 205.167 321.81 205.014 321.949 204.89C322.087 204.765 322.252 204.674 322.43 204.622C322.609 204.569 322.796 204.558 322.98 204.587C323.393 204.597 323.785 204.77 324.071 205.068C324.357 205.366 324.512 205.766 324.504 206.179C324.468 207.1 323.722 207.5 322.886 207.559Z" fill="#BCC2C7"/>
<path d="M150.505 236.433C150.658 235.152 151.444 234.68 152.375 234.658C153.427 234.631 154.034 235.359 153.975 236.398C153.981 236.625 153.938 236.851 153.848 237.06C153.758 237.269 153.625 237.456 153.456 237.609C153.288 237.761 153.088 237.876 152.871 237.945C152.655 238.013 152.425 238.035 152.2 238.007C151.143 237.984 150.685 237.238 150.505 236.433Z" fill="#8F8F8F"/>
<path d="M344.109 432.058C344.249 432.157 344.355 432.295 344.414 432.456C344.474 432.616 344.483 432.791 344.442 432.957C343.866 432.831 343.147 432.754 344.109 432.058Z" fill="#DEDDD2"/>
<path d="M208.786 312.573C208.875 314.185 208.626 315.797 208.055 317.306C207.483 318.815 206.601 320.188 205.467 321.335C204.332 322.483 202.969 323.38 201.467 323.969C199.964 324.558 198.355 324.826 196.743 324.755C189.905 324.566 185.4 319.846 185.234 313.108C185.054 305.8 190.291 301.012 197.021 300.711C203.4 300.428 208.786 306.105 208.786 312.573Z" fill="#1A1D2A"/>
<path d="M310.959 287.168C313.13 287.218 315.198 289.222 315.194 291.272C315.194 293.969 313.094 296.145 310.617 296.023C308.612 295.924 306.401 293.654 306.45 291.744C306.513 289.159 308.531 287.11 310.959 287.168Z" fill="#1A1F32"/>
<path d="M281.226 75.1465C277.562 74.7689 273.759 74.4183 270.617 71.9506C267.02 69.1233 267.47 65.3071 271.799 63.7159C278.155 61.3695 284.269 62.1382 289.754 66.251C292.253 68.1254 292.002 71.1954 289.426 72.9934C286.994 74.661 284.184 74.9217 281.226 75.1465ZM278.497 64.3362C276.275 64.0782 274.026 64.4816 272.033 65.4959C269.335 66.8174 269.088 68.903 271.583 70.5751C276.461 73.8654 281.738 74.1306 287.187 72.2877C288.401 71.8787 289.565 71.1864 289.74 69.7346C289.916 68.2827 288.747 67.4152 287.699 66.7679C284.903 65.0419 281.869 64.017 278.497 64.3362Z" fill="#989899"/>
<path d="M228.687 72.4096C225.581 72.4096 222.587 71.8837 219.917 70.2116C216.347 67.9641 216.509 64.2468 220.173 62.0623C223.118 60.3048 226.435 60.0261 229.672 60.089C232.909 60.1519 236.235 60.516 238.789 63.0602C241.342 65.6043 241.068 68.2923 237.93 70.1846C235.629 71.5691 232.18 72.3961 228.687 72.4096ZM228.562 70.6521C231.094 70.8772 233.641 70.4111 235.93 69.3036C237.301 68.6429 238.753 67.8293 238.834 66.2156C238.919 64.5075 237.368 63.6625 236.015 63.1006C230.935 60.9925 225.86 61.0419 220.946 63.64C218.375 64.9885 218.325 67.3214 220.843 68.7867C223.153 70.2099 225.856 70.863 228.562 70.6521V70.6521Z" fill="#989899"/>
<path d="M185.526 67.4238C188.16 67.7025 190.543 67.7924 192.395 69.6713C193.959 71.2535 193.964 72.9076 192.885 74.7101C191.509 77.0115 189.262 78.1847 186.879 79.1106C183.094 80.558 179.237 81.6188 175.132 80.4277C173.177 79.8613 171.392 78.9309 170.816 76.9216C170.268 74.9978 171.567 73.5369 172.875 72.2559C176.463 68.7184 181.075 67.9767 185.526 67.4238ZM178.782 79.1961C183.278 78.7466 187.684 78.0543 190.952 74.4404C192.683 72.5211 192.3 71.0018 189.94 69.914C188.088 69.069 186.133 69.1049 184.213 69.2802C180.194 69.6443 176.427 70.7905 173.532 73.8066C171.675 75.735 172.111 77.5239 174.611 78.4499C175.934 78.991 177.358 79.2468 178.787 79.2005L178.782 79.1961Z" fill="#989899"/>
<path d="M320.679 74.6884C323.183 74.6918 325.66 75.1967 327.966 76.1733C330.272 77.1499 332.358 78.5784 334.102 80.3745C335.451 81.723 336.845 83.3502 336.026 85.5122C335.66 86.5148 334.993 87.3794 334.115 87.9871C333.238 88.5948 332.194 88.9158 331.126 88.9059C324.635 88.9329 318.881 86.8787 314.907 81.4668C312.659 78.3788 314.569 74.9267 318.436 74.6974C319.182 74.6525 319.928 74.6884 320.679 74.6884ZM329.512 87.2742C329.961 87.3059 330.412 87.3059 330.861 87.2742C332.291 87.063 333.752 86.7483 334.39 85.2785C334.997 83.8851 334.021 82.7973 333.203 81.8803C329.544 77.7809 324.797 76.1673 319.433 76.2482C317.959 76.2706 316.287 76.5403 315.756 78.2529C315.226 79.9655 316.408 81.0488 317.473 82.1275C320.782 85.4493 324.967 86.7798 329.521 87.2518L329.512 87.2742Z" fill="#989899"/>
<path d="M226.574 106.53C228.79 106.431 229.932 107.505 230.148 109.069C230.364 110.634 229.384 111.703 227.662 111.915C224.861 112.247 222.07 112.643 219.273 113.002C216.477 113.362 213.928 114.243 211.33 115.156C208.853 116.028 207.67 115.605 207.005 113.596C206.358 111.64 207.747 110.777 209.199 110.076C213.267 108.121 217.704 107.613 222.092 107.006C223.702 106.799 225.365 106.93 226.574 106.53Z" fill="#F9F9F9"/>
<path d="M239.467 111.892C238.726 111.892 237.979 111.942 237.291 111.546C236.145 110.89 235.044 110.09 235.394 108.615C235.531 107.953 235.88 107.354 236.389 106.908C236.898 106.463 237.538 106.196 238.213 106.148C238.662 106.123 239.112 106.123 239.562 106.148C242.178 106.148 243.738 107.307 243.689 109.186C243.657 110.8 241.922 111.924 239.467 111.892Z" fill="#F9F9F9"/>
<path d="M203.85 50.7036C204.573 49.4046 206.007 49.7147 207.028 49.6248C212.288 49.1753 217.57 48.9955 222.834 48.6224C232.598 47.9212 242.385 47.9932 252.149 48.2628C260.457 48.4921 268.783 48.9281 277.046 49.9619C277.643 50.0338 278.277 49.9619 278.462 50.7395C273.899 50.8924 269.403 50.0743 264.867 49.8406C257.414 49.4315 249.965 49.0719 242.498 49.027C231.218 48.9506 219.971 49.5484 208.732 50.4159C207.104 50.5238 205.508 51.0902 203.85 50.7036Z" fill="#A6A6A6"/>
<path d="M279.347 50.7928C281.594 50.0646 283.653 50.5141 285.64 51.6108C283.51 51.7326 281.375 51.4551 279.347 50.7928V50.7928Z" fill="#A6A6A6"/>
<path d="M196.661 51.5569C198.365 50.577 200.123 49.9971 202.056 50.8107C200.32 51.422 198.545 51.876 196.661 51.5569Z" fill="#A6A6A6"/>
<path d="M190.816 52.3804C192.039 51.3691 193.361 50.9331 194.885 51.6882C193.652 52.3903 192.212 52.6355 190.816 52.3804V52.3804Z" fill="#A6A6A6"/>
<path d="M286.98 51.6927C288.5 50.9465 289.822 51.3781 291.026 52.3669C289.641 52.556 288.23 52.3209 286.98 51.6927V51.6927Z" fill="#A6A6A6"/>
<path d="M293.27 52.5916C294.524 51.8139 295.468 52.5916 296.416 53.2209C295.315 53.3287 294.214 53.3422 293.27 52.5916Z" fill="#A6A6A6"/>
<path d="M182.734 53.7691C183.04 53.0634 183.49 52.9285 184.083 53.4274C183.755 53.9983 183.269 53.9848 182.734 53.7691Z" fill="#A6A6A6"/>
<path d="M187.675 52.8882C187.985 52.1465 188.439 52.0162 189.023 52.5735C188.686 53.1039 188.205 53.0995 187.675 52.8882Z" fill="#A6A6A6"/>
<path d="M298.642 53.5392C299.132 52.9368 299.374 53.2785 299.572 53.7864C299.496 53.8368 299.411 53.8705 299.321 53.8853C299.231 53.9001 299.139 53.8957 299.051 53.8723C298.963 53.8489 298.881 53.8072 298.811 53.7497C298.74 53.6923 298.682 53.6205 298.642 53.5392V53.5392Z" fill="#A2A2A2"/>
<path d="M185.921 53.1482C186.168 52.7256 186.451 52.6133 186.82 53.0358C186.564 53.4628 186.263 53.4898 185.921 53.1482Z" fill="#A6A6A6"/>
<path d="M278.497 64.3364C281.886 64.0172 284.903 65.0421 287.681 66.7681C288.729 67.4154 289.897 68.229 289.722 69.7348C289.547 71.2406 288.374 71.8788 287.169 72.2879C281.72 74.1308 276.442 73.8656 271.565 70.5753C269.088 68.9032 269.317 66.8176 272.014 65.496C274.013 64.4782 276.269 64.0747 278.497 64.3364V64.3364Z" fill="#E5E8EA"/>
<path d="M228.561 70.6518C225.858 70.8681 223.155 70.2213 220.842 68.8043C218.325 67.339 218.374 65.0196 220.946 63.6576C225.859 61.0596 230.935 61.0101 236.015 63.1183C237.363 63.6801 238.919 64.5252 238.834 66.2332C238.753 67.8469 237.301 68.6605 235.929 69.3213C233.639 70.4226 231.092 70.8824 228.561 70.6518V70.6518Z" fill="#E5E8EA"/>
<path d="M178.787 79.2008C177.359 79.2478 175.938 78.9935 174.615 78.4546C172.115 77.5287 171.679 75.7577 173.536 73.8114C176.431 70.7953 180.198 69.6491 184.217 69.285C186.137 69.1097 188.092 69.0737 189.945 69.9188C192.323 71.0065 192.687 72.5258 190.956 74.4452C187.688 78.0591 183.278 78.7423 178.787 79.2008Z" fill="#E5E8EA"/>
<path d="M329.522 87.2508C324.977 86.7789 320.791 85.4529 317.478 82.0951C316.413 81.0164 315.23 79.8747 315.761 78.2205C316.291 76.5664 317.964 76.2383 319.438 76.2158C324.801 76.1349 329.549 77.7485 333.208 81.8479C334.026 82.7469 335.006 83.8527 334.395 85.2461C333.757 86.7159 332.295 87.0441 330.866 87.2418C330.419 87.2763 329.969 87.2793 329.522 87.2508V87.2508Z" fill="#E5E8EA"/>
</g>
<defs>
<clipPath id="clip0_2321:2">
<rect width="482" height="482" fill="white"/>
</clipPath>
</defs>
</svg>
