<svg width="41" height="40" viewBox="0 0 41 40" fill="none" xmlns="http://www.w3.org/2000/svg">
<path d="M0 20.4875V19.5894C0.0944287 18.9368 0.136397 18.2779 0.17207 17.6274C0.801595 12.1001 3.43091 7.69136 7.72637 4.23947C10.3245 2.10455 13.4586 0.723327 16.7873 0.246184C22.3188 -0.532328 27.4494 0.493797 31.9568 3.92261C35.6143 6.7156 38.1912 10.2829 39.381 14.763C39.9654 17.0081 40.1634 19.3364 39.9664 21.6479C39.723 24.8165 38.848 27.7858 37.1231 30.4613C34.0825 35.1806 29.9087 38.4143 24.3521 39.5201C16.439 41.096 9.77442 38.8004 4.52418 32.6226C2.32365 30.0401 0.872229 26.9043 0.327353 23.5554C0.2644 23.1903 0.222432 22.8251 0.17207 22.4579L0 20.4875ZM37.8239 19.9629C37.8864 18.8736 37.8109 17.7808 37.5994 16.7104C37.2522 14.7769 36.5743 12.9177 35.5954 11.2146C34.3875 9.1607 32.807 7.35025 30.9348 5.87623C29.1897 4.47727 27.1808 3.44391 25.0278 2.83773C23.762 2.45531 22.4508 2.2436 21.1289 2.2082C20.8121 2.2082 20.4994 2.10328 20.1826 2.14735C19.8016 2.19963 19.417 2.22068 19.0326 2.2103C18.5638 2.21582 18.0963 2.26075 17.6351 2.3446C15.9259 2.57985 14.2582 3.05381 12.6807 3.75264C8.49263 5.64578 5.19548 9.08047 3.47498 13.3424C2.74966 15.1287 2.32425 17.0224 2.21593 18.9473C2.1513 20.1522 2.20754 21.3607 2.3838 22.5544C2.60142 24.2001 3.05515 25.8058 3.73098 27.322C5.04459 30.2304 7.05907 32.5849 9.58976 34.486C12.6073 36.7523 16.0655 37.7722 19.8153 37.8582C20.384 37.8708 20.9485 37.8267 21.5172 37.7826C22.2336 37.7324 22.9463 37.6385 23.6512 37.5015C25.3975 37.1635 27.0781 36.5471 28.6287 35.6758C31.0441 34.3111 33.1267 32.4276 34.7267 30.1612C35.7173 28.7836 36.4855 27.2591 37.0035 25.6433C37.6216 23.8158 37.8996 21.8906 37.8239 19.9629Z" fill="#C4BAAE"/>
<path d="M37.8236 19.9629C37.8986 21.8907 37.6198 23.8159 37.001 25.6433C36.483 27.2591 35.7148 28.7836 34.7242 30.1612C33.124 32.4269 31.0414 34.3095 28.6262 35.6737C27.0756 36.545 25.395 37.1614 23.6488 37.4993C22.9438 37.6363 22.2311 37.7302 21.5147 37.7805C20.946 37.8246 20.3815 37.8686 19.8128 37.8561C16.063 37.77 12.6048 36.7502 9.58727 34.4839C7.05658 32.5848 5.0358 30.2304 3.72849 27.322C3.05266 25.8058 2.59893 24.2001 2.38131 22.5544C2.20504 21.3606 2.14881 20.1522 2.21343 18.9472C2.32176 17.0224 2.74717 15.1286 3.47248 13.3424C5.19214 9.07768 8.49027 5.6405 12.6803 3.7463C14.2551 3.04823 15.92 2.57428 17.6263 2.33826C18.0876 2.25441 18.5551 2.20949 19.0238 2.20397C19.4082 2.21435 19.7928 2.19329 20.1738 2.14101C20.4801 2.09695 20.8033 2.19767 21.1202 2.20187C22.442 2.23727 23.7532 2.44898 25.019 2.83139C27.1754 3.43843 29.1873 4.47399 30.9345 5.87619C32.8072 7.35207 34.3878 9.1647 35.595 11.2209C36.5739 12.924 37.2518 14.7831 37.599 16.7166C37.81 17.785 37.8855 18.8756 37.8236 19.9629ZM13.6645 12.5156H11.8536C11.1485 12.5156 10.4434 12.5156 9.74045 12.5156C8.85702 12.5156 8.44363 12.9353 8.41845 13.804C8.40814 14.2911 8.49962 14.7749 8.68705 15.2246C9.02046 16.0889 9.54316 16.8676 10.2168 17.5035C10.7414 17.9973 11.2695 18.487 11.8011 18.9724C12.0103 19.1537 12.1757 19.3801 12.2847 19.6345C12.3937 19.8889 12.4436 20.1648 12.4306 20.4413C12.3991 22.353 12.4306 24.2667 12.4306 26.1805C12.4231 26.5497 12.4463 26.9189 12.4999 27.2842C12.7151 28.605 13.3922 29.8065 14.4106 30.6746C15.429 31.5427 16.7225 32.0211 18.0607 32.0246C19.219 32.0392 20.3689 32.0246 21.5335 32.0246C21.9863 32.0251 22.4376 31.9737 22.8786 31.8714C24.1153 31.5867 25.2199 30.8934 26.0138 29.9033C26.8077 28.9133 27.2446 27.6845 27.2538 26.4155C27.2727 24.3339 27.2685 22.2522 27.2538 20.1727C27.2483 19.9972 27.2775 19.8222 27.3398 19.658C27.4021 19.4938 27.4963 19.3435 27.6169 19.2158C27.7868 19.0312 27.9736 18.8591 28.1582 18.6912C28.793 18.1422 29.3916 17.5527 29.9503 16.9265C30.5199 16.2602 30.9252 15.4696 31.1338 14.6182C31.2336 14.244 31.2543 13.853 31.1947 13.4704C31.1652 13.2443 31.0649 13.0333 30.908 12.8678C30.7512 12.7023 30.5459 12.5907 30.3217 12.5492C30.1408 12.5133 29.9562 12.4992 29.7719 12.5072C28.8151 12.5072 27.8603 12.5072 26.9034 12.5072C26.7775 12.5072 26.6327 12.5596 26.5173 12.417C26.5173 12.0455 26.5173 11.6594 26.5173 11.2733C26.522 10.9541 26.4874 10.6356 26.4145 10.3248C26.1228 9.24835 25.1176 8.55167 23.8964 8.57056C23.3549 8.56915 22.8283 8.74801 22.3998 9.07895C21.9712 9.40988 21.665 9.87406 21.5294 10.3983C21.466 10.6933 21.4371 10.9947 21.4433 11.2964C21.4676 11.7004 21.4543 12.1057 21.4034 12.5072C20.9439 12.5072 20.5095 12.5072 20.0772 12.5072C19.645 12.5072 19.1833 12.5576 18.7196 12.4631C18.7196 11.9322 18.7196 11.4307 18.7196 10.9292C18.7174 10.3505 18.4919 9.79491 18.09 9.37845C17.7269 8.98864 17.2532 8.71936 16.7325 8.60682C16.2118 8.49428 15.6691 8.54387 15.1774 8.74892C14.2458 9.10775 13.6792 9.95342 13.6603 11.0278C13.6582 11.5041 13.6645 11.9721 13.6645 12.5156Z" fill="#F6EEE4"/>
<path d="M13.6648 12.5156C13.6648 11.9722 13.6648 11.5042 13.6648 11.0468C13.6837 9.97236 14.2503 9.1267 15.1819 8.76787C15.6736 8.56281 16.2163 8.51322 16.737 8.62577C17.2577 8.73831 17.7314 9.00759 18.0946 9.3974C18.4964 9.81386 18.7219 10.3694 18.7241 10.9481C18.7241 11.4496 18.7241 11.9512 18.7241 12.4821C19.1878 12.5765 19.6369 12.5135 20.0818 12.5261C20.5266 12.5387 20.9484 12.5261 21.4079 12.5261C21.458 12.1253 21.4706 11.7206 21.4457 11.3174C21.4395 11.0158 21.4684 10.7144 21.5318 10.4193C21.6674 9.8951 21.9736 9.43093 22.4022 9.09999C22.8308 8.76906 23.3573 8.5902 23.8988 8.59161C25.1242 8.57272 26.1294 9.26939 26.4169 10.3459C26.4898 10.6566 26.5244 10.9752 26.5197 11.2944C26.5197 11.6805 26.5197 12.0666 26.5197 12.438C26.6351 12.5807 26.7799 12.5282 26.9058 12.5282C27.8627 12.5282 28.8175 12.5282 29.7743 12.5282C29.9586 12.5202 30.1432 12.5343 30.3241 12.5702C30.5483 12.6118 30.7536 12.7233 30.9104 12.8888C31.0673 13.0543 31.1676 13.2653 31.1971 13.4914C31.2567 13.8741 31.236 14.265 31.1362 14.6392C30.9276 15.4906 30.5223 16.2812 29.9527 16.9475C29.394 17.5737 28.7954 18.1632 28.1607 18.7123C27.976 18.8801 27.7892 19.0522 27.6193 19.2369C27.4987 19.3646 27.4045 19.5148 27.3422 19.6791C27.2799 19.8433 27.2507 20.0182 27.2562 20.1937C27.2688 22.2733 27.273 24.3549 27.2562 26.4365C27.247 27.7055 26.8102 28.9344 26.0162 29.9244C25.2223 30.9144 24.1177 31.6078 22.881 31.8924C22.44 31.9948 21.9887 32.0462 21.536 32.0456C20.3776 32.0456 19.2277 32.0603 18.0631 32.0456C16.7205 32.0422 15.423 31.5607 14.4032 30.6874C13.3834 29.8141 12.708 28.6062 12.4981 27.2801C12.4445 26.9147 12.4213 26.5455 12.4288 26.1763C12.4288 24.2626 12.3953 22.3488 12.4288 20.4372C12.4418 20.1606 12.3919 19.8848 12.2829 19.6304C12.1739 19.3759 12.0085 19.1495 11.7993 18.9683C11.2677 18.4772 10.7396 17.9876 10.215 17.4994C9.54264 16.8645 9.0207 16.0873 8.68735 15.2247C8.49993 14.775 8.40844 14.2911 8.41875 13.8041C8.44393 12.9395 8.85732 12.524 9.74075 12.5156C10.4437 12.5156 11.1488 12.5156 11.8539 12.5156H13.6648ZM17.5993 15.0065C17.5543 14.97 17.5019 14.9438 17.4457 14.9297C17.3895 14.9155 17.331 14.9138 17.2741 14.9246C15.9982 14.9246 14.7245 14.9246 13.4508 14.9246C12.8338 14.9246 12.5904 15.2079 12.6911 15.8144C12.7682 16.3329 13.0068 16.8138 13.3731 17.1888C13.6543 17.4742 13.9355 17.7638 14.2356 18.0282C14.4332 18.197 14.589 18.4094 14.6906 18.6486C14.7922 18.8878 14.8368 19.1474 14.821 19.4068C14.7958 20.5631 14.821 21.7151 14.821 22.8776C14.821 24.0024 14.821 25.125 14.821 26.2498C14.8106 26.6998 14.8926 27.1472 15.0617 27.5644C15.2308 27.9816 15.4836 28.3597 15.8045 28.6754C16.1254 28.9912 16.5075 29.2379 16.9273 29.4003C17.3472 29.5627 17.7958 29.6374 18.2456 29.6198C19.3851 29.5779 20.5245 29.6198 21.6661 29.6051C22.3072 29.5939 22.9305 29.3927 23.4572 29.027C23.9839 28.6613 24.3903 28.1476 24.6248 27.5508C24.9522 26.7303 24.8473 25.8721 24.8347 25.0747C20.1174 23.3057 17.5993 20.0301 17.5993 15.0065ZM23.6008 22.3719C23.8857 22.3719 24.159 22.2587 24.3605 22.0572C24.562 21.8557 24.6752 21.5825 24.6752 21.2975C24.6752 21.0126 24.562 20.7393 24.3605 20.5378C24.159 20.3363 23.8857 20.2231 23.6008 20.2231C23.3158 20.2231 23.0426 20.3363 22.8411 20.5378C22.6396 20.7393 22.5264 21.0126 22.5264 21.2975C22.5264 21.5825 22.6396 21.8557 22.8411 22.0572C23.0426 22.2587 23.3158 22.3719 23.6008 22.3719V22.3719ZM24.8221 12.5093C24.8221 11.9659 24.8431 11.4601 24.8221 10.9334C24.8011 10.5263 24.5136 10.3039 24.0729 10.2766C23.5651 10.2473 23.2105 10.4487 23.1664 10.8684C23.1098 11.4139 23.1098 11.9638 23.1664 12.5093H24.8221ZM16.9719 12.5093C16.9971 12.4611 17.0244 12.4338 17.0244 12.4044C17.0244 12.0057 17.0432 11.6049 17.0432 11.2062C17.0451 11.0712 17.0296 10.9365 16.9971 10.8054C16.8943 10.4235 16.5627 10.2284 16.099 10.2661C15.6793 10.2997 15.3897 10.5389 15.3729 10.9418C15.3498 11.4559 15.3729 11.9701 15.3729 12.5052L16.9719 12.5093Z" fill="#030202"/>
<path d="M17.5986 15.0064C17.5986 20.03 20.1167 23.3057 24.834 25.0788C24.834 25.8846 24.9452 26.7345 24.6241 27.5549C24.3896 28.1517 23.9832 28.6655 23.4565 29.0312C22.9298 29.3969 22.3065 29.5981 21.6653 29.6093C20.5238 29.6261 19.3844 29.582 18.2449 29.624C17.7946 29.6425 17.3453 29.5684 16.9247 29.4064C16.5041 29.2444 16.1212 28.9978 15.7996 28.682C15.4781 28.3661 15.2247 27.9877 15.0552 27.5701C14.8857 27.1525 14.8036 26.7045 14.814 26.2539C14.814 25.1292 14.814 24.0065 14.814 22.8818C14.814 21.7255 14.7972 20.5735 14.814 19.411C14.8298 19.1516 14.7852 18.892 14.6836 18.6528C14.582 18.4135 14.4262 18.2011 14.2286 18.0323C13.9285 17.7637 13.6473 17.4742 13.3661 17.193C12.9998 16.818 12.7612 16.337 12.6841 15.8185C12.5834 15.2121 12.8268 14.9309 13.4438 14.9288C14.7175 14.9288 15.9912 14.9288 17.2671 14.9288C17.3246 14.9164 17.3842 14.917 17.4415 14.9304C17.4989 14.9438 17.5525 14.9698 17.5986 15.0064ZM18.0183 21.3143C18.0228 21.1023 17.9644 20.8938 17.8505 20.7151C17.7365 20.5364 17.5722 20.3954 17.3782 20.31C17.1841 20.2246 16.9692 20.1987 16.7604 20.2354C16.5517 20.2721 16.3585 20.3699 16.2053 20.5164C16.052 20.6629 15.9457 20.8515 15.8996 21.0584C15.8535 21.2653 15.8698 21.4812 15.9464 21.6788C16.0229 21.8765 16.1564 22.047 16.3298 22.1689C16.5033 22.2907 16.7089 22.3584 16.9208 22.3635C17.0623 22.3694 17.2035 22.3467 17.3359 22.2966C17.4683 22.2466 17.5892 22.1702 17.6914 22.0722C17.7935 21.9742 17.8748 21.8565 17.9302 21.7262C17.9857 21.596 18.0142 21.4558 18.0141 21.3143H18.0183Z" fill="#F6EEE4"/>
<path d="M23.6017 22.3719C23.3168 22.3719 23.0435 22.2587 22.842 22.0572C22.6405 21.8558 22.5273 21.5825 22.5273 21.2975C22.5273 21.0126 22.6405 20.7393 22.842 20.5378C23.0435 20.3363 23.3168 20.2231 23.6017 20.2231C23.8867 20.2231 24.1599 20.3363 24.3614 20.5378C24.5629 20.7393 24.6761 21.0126 24.6761 21.2975C24.6761 21.5825 24.5629 21.8558 24.3614 22.0572C24.1599 22.2587 23.8867 22.3719 23.6017 22.3719Z" fill="#F6EEE4"/>
<path d="M24.8213 12.5029H23.1636C23.1069 11.9574 23.1069 11.4075 23.1636 10.862C23.2076 10.4423 23.5623 10.2324 24.0701 10.2702C24.5108 10.2954 24.7982 10.5199 24.8192 10.927C24.8423 11.4432 24.8213 11.9615 24.8213 12.5029Z" fill="#F6EEE4"/>
<path d="M16.9721 12.5051H15.3668C15.3668 11.97 15.35 11.4559 15.3668 10.9418C15.3836 10.5389 15.6648 10.2997 16.0929 10.2661C16.5566 10.2283 16.8882 10.4235 16.991 10.8054C17.0232 10.9351 17.0387 11.0684 17.0372 11.202C17.0372 11.6007 17.0372 12.0015 17.0183 12.4002C17.0246 12.4296 16.9973 12.4568 16.9721 12.5051Z" fill="#F6EEE4"/>
<path d="M18.0155 21.3143C18.0122 21.5259 17.9464 21.7318 17.8263 21.9061C17.7062 22.0803 17.5372 22.2151 17.3406 22.2935C17.1441 22.3719 16.9287 22.3904 16.7216 22.3466C16.5146 22.3029 16.3251 22.1988 16.1771 22.0476C16.0291 21.8963 15.9291 21.7047 15.8898 21.4967C15.8504 21.2888 15.8735 21.0739 15.9561 20.879C16.0387 20.6842 16.1771 20.5181 16.3539 20.4018C16.5307 20.2855 16.7379 20.224 16.9495 20.2252C17.0922 20.2229 17.2338 20.2496 17.3657 20.3038C17.4976 20.3579 17.6171 20.4385 17.7169 20.5404C17.8167 20.6423 17.8946 20.7635 17.946 20.8966C17.9973 21.0297 18.021 21.1718 18.0155 21.3143V21.3143Z" fill="#030202"/>
</svg>
