<svg width="23" height="20" viewBox="0 0 23 20" fill="none" xmlns="http://www.w3.org/2000/svg">
<path d="M7.5166 10.518L8.31341 18.8845L11.3413 19.6282L14.3161 18.8845L14.927 10.332L12.1115 11.3679L10.757 11.2617L7.5166 10.518Z" fill="url(#paint0_linear_4291_29042)"/>
<path d="M7.729 10.332L8.31331 18.8845L6.56031 18.4861L5.3651 16.8659L4.91357 11.846L7.729 10.332Z" fill="url(#paint1_linear_4291_29042)"/>
<path d="M14.9268 10.332L14.3159 18.8845L16.0689 18.4861L17.2641 16.8659L17.7422 11.846L14.9268 10.332Z" fill="url(#paint2_linear_4291_29042)"/>
<path fill-rule="evenodd" clip-rule="evenodd" d="M4.18408 8.49933H18.474L17.6626 16.7538C17.6513 17.7799 16.8038 18.5912 15.6974 19.1239C14.5565 19.6733 13.0074 20 11.3148 20C9.67722 20 8.17815 19.7005 7.05047 19.1911C5.94741 18.6928 5.08896 17.9379 4.96979 16.9676L4.96683 16.9434V16.8579L4.18408 8.49933ZM5.059 9.29614L5.76364 16.8207V16.8926C5.84171 17.4299 6.36409 18.0067 7.37853 18.4649C8.38228 18.9184 9.76503 19.2032 11.3148 19.2032C12.9156 19.2032 14.3413 18.8925 15.3518 18.406C16.3893 17.9064 16.8659 17.2908 16.8659 16.7331V16.7136L17.595 9.29614H5.059Z" fill="#7333FF"/>
<path d="M18.3001 4.01059C17.6893 4.01059 17.105 4.14339 16.5737 4.40899C15.9097 2.09823 13.8115 0.424927 11.2882 0.424927C8.79153 0.424927 6.66672 2.09823 6.00268 4.40899C5.49803 4.16995 4.94027 4.03714 4.32938 4.03714C2.15142 4.03714 0.398438 5.79013 0.398438 7.96809C0.398438 10.146 2.15142 11.899 4.32938 11.899C5.71052 11.899 6.93228 11.1819 7.62284 10.0663C8.60559 10.9163 9.85396 11.4475 11.2617 11.4475C12.6693 11.4475 13.9708 10.9163 14.927 10.0398C15.6175 11.1553 16.8393 11.899 18.247 11.899C20.425 11.899 22.178 10.146 22.178 7.96809C22.178 5.79013 20.4781 4.01059 18.3001 4.01059Z" fill="url(#paint3_linear_4291_29042)"/>
<path d="M6.2151 7.67601C6.2151 7.67601 5.79013 8.73839 4.30275 8.95089C2.54976 9.18995 1.1155 8.36657 0.610849 6.77295C0.504608 7.14476 0.424927 7.51664 0.424927 7.94157C0.424927 10.1196 2.17791 11.8725 4.35587 11.8725C5.84325 11.8725 7.14472 11.0226 7.80872 9.80082C7.30409 9.56176 6.40103 8.15407 6.2151 7.67601Z" fill="#B5A1FF"/>
<path d="M16.5206 8.33996C16.5206 8.33996 17.2112 9.42896 18.3002 9.50865C20.5312 9.69459 21.753 8.3134 22.0452 6.74634C22.1514 7.11821 22.2311 7.49002 22.2311 7.91502C22.2311 10.093 20.4781 11.846 18.3002 11.846C16.8128 11.846 15.5113 10.996 14.8473 9.77427C15.352 9.56177 16.2815 8.79152 16.5206 8.33996Z" fill="#B5A1FF"/>
<path d="M15.9629 8.12748C15.3254 10.1195 13.4396 11.5803 11.2351 11.5803C8.49937 11.5803 6.26831 9.34923 6.26831 6.61354C6.26831 4.7543 7.30419 3.13412 8.79156 2.28418C8.31343 3.00131 8.04787 3.87781 8.04787 4.78086C8.04787 7.35723 10.1196 9.42891 12.6959 9.42891C13.9708 9.42891 15.1129 8.92429 15.9629 8.12748Z" fill="url(#paint4_linear_4291_29042)"/>
<path fill-rule="evenodd" clip-rule="evenodd" d="M11.2881 0.796812C8.48272 0.796812 6.21502 3.08604 6.21502 5.89641C6.21502 8.70425 8.50678 10.996 11.3147 10.996C13.2101 10.996 14.861 9.963 15.7496 8.40793C15.8588 8.21687 16.1022 8.1505 16.2932 8.25968C16.4842 8.36881 16.5506 8.61218 16.4414 8.80325C15.4177 10.5947 13.5095 11.7928 11.3147 11.7928C8.06672 11.7928 5.41821 9.14431 5.41821 5.89641C5.41821 2.65101 8.03766 0 11.2881 0C14.2223 0 16.6437 2.13679 17.0996 4.92916C17.135 5.14632 16.9877 5.3511 16.7706 5.38656C16.5534 5.42202 16.3487 5.27471 16.3132 5.05755C15.9192 2.64409 13.8253 0.796812 11.2881 0.796812Z" fill="#7333FF"/>
<path fill-rule="evenodd" clip-rule="evenodd" d="M6.21439 8.09425C6.40877 7.99113 6.64996 8.06519 6.75302 8.25957C7.61677 9.88832 9.31752 10.996 11.2881 10.996C13.2588 10.996 14.9596 9.88832 15.8233 8.25957C15.9264 8.06519 16.1675 7.99113 16.362 8.09425C16.5563 8.19732 16.6303 8.43844 16.5273 8.63288C15.5318 10.5101 13.5672 11.7928 11.2881 11.7928C9.00915 11.7928 7.04458 10.5101 6.04907 8.63288C5.94599 8.43844 6.02 8.19732 6.21439 8.09425Z" fill="#7333FF"/>
<path fill-rule="evenodd" clip-rule="evenodd" d="M5.75799 3.87827C6.59512 1.62102 8.76368 0.0265503 11.2882 0.0265503C13.836 0.0265503 15.9798 1.61852 16.8159 3.87102C17.2869 3.69801 17.7865 3.6122 18.3001 3.6122C20.7086 3.6122 22.5764 5.58078 22.5764 7.96812C22.5764 10.3661 20.645 12.2974 18.247 12.2974C16.859 12.2974 15.6359 11.6413 14.8496 10.6262C13.8634 11.3933 12.6066 11.8459 11.2616 11.8459C9.90968 11.8459 8.69643 11.3891 7.70575 10.6448C6.91818 11.6619 5.69378 12.2974 4.32935 12.2974C1.93136 12.2974 0 10.3661 0 7.96812C0 5.57013 1.93136 3.63877 4.32935 3.63877C4.8375 3.63877 5.31429 3.72272 5.75799 3.87827ZM11.2882 0.823362C8.9735 0.823362 7.00175 2.37483 6.38556 4.51905L6.256 4.96987L5.8321 4.76907C5.38014 4.55499 4.88056 4.43558 4.32935 4.43558C2.37142 4.43558 0.796812 6.01019 0.796812 7.96812C0.796812 9.92606 2.37142 11.5006 4.32935 11.5006C5.56899 11.5006 6.66425 10.8579 7.28406 9.85668L7.53006 9.45937L7.88343 9.76506C8.801 10.5586 9.95875 11.0491 11.2616 11.0491C12.5689 11.0491 13.7746 10.5557 14.6577 9.74612L15.0124 9.421L15.2657 9.83012C15.8876 10.8347 16.9846 11.5006 18.247 11.5006C20.2049 11.5006 21.7796 9.92606 21.7796 7.96812C21.7796 5.99954 20.2476 4.40902 18.3001 4.40902C17.7479 4.40902 17.2249 4.52884 16.7519 4.76536L16.3232 4.97972L16.1908 4.51905C15.5743 2.37371 13.6282 0.823362 11.2882 0.823362Z" fill="#7333FF"/>
<path fill-rule="evenodd" clip-rule="evenodd" d="M1.10065 5.70985C1.29169 5.81901 1.35807 6.06238 1.2489 6.25343C0.967141 6.7465 0.823303 7.31493 0.823303 7.91499C0.823303 9.87293 2.39792 11.4476 4.35584 11.4476C5.52241 11.4476 6.54793 10.8772 7.19468 9.99087C7.32443 9.81318 7.57361 9.77424 7.75136 9.90393C7.92911 10.0336 7.96805 10.2829 7.83836 10.4606C7.05086 11.5397 5.79219 12.2444 4.35584 12.2444C1.95785 12.2444 0.0264893 10.313 0.0264893 7.91499C0.0264893 7.187 0.201376 6.48056 0.557069 5.8581C0.666235 5.66705 0.909603 5.60068 1.10065 5.70985Z" fill="#7333FF"/>
<path fill-rule="evenodd" clip-rule="evenodd" d="M21.5552 5.70985C21.7463 5.60068 21.9897 5.66705 22.0988 5.8581C22.4545 6.48056 22.6294 7.187 22.6294 7.91499C22.6294 10.313 20.6981 12.2444 18.3001 12.2444C16.8637 12.2444 15.6051 11.5397 14.8176 10.4606C14.6879 10.2829 14.7268 10.0336 14.9045 9.90393C15.0823 9.77424 15.3315 9.81318 15.4612 9.99087C16.1079 10.8772 17.1335 11.4476 18.3001 11.4476C20.258 11.4476 21.8326 9.87293 21.8326 7.91499C21.8326 7.31493 21.6887 6.7465 21.407 6.25343C21.2978 6.06238 21.3642 5.81901 21.5552 5.70985Z" fill="#7333FF"/>
<path fill-rule="evenodd" clip-rule="evenodd" d="M11.6282 15.4738C11.7076 15.3976 11.8337 15.4003 11.9099 15.4796L12.5461 16.1423C12.9145 16.5124 12.914 17.1419 12.5445 17.5114C12.2182 17.8378 11.6889 17.8762 11.3147 17.6268C10.9405 17.8762 10.4112 17.8378 10.0849 17.5114C9.71487 17.1414 9.71487 16.5106 10.0849 16.1407L10.7489 15.4767C10.8267 15.3989 10.9528 15.3989 11.0306 15.4767C11.1084 15.5545 11.1084 15.6806 11.0306 15.7584L10.3666 16.4224C10.1522 16.6368 10.1522 17.0153 10.3666 17.2297C10.5809 17.4441 10.9594 17.4441 11.1738 17.2297L11.3147 17.0888L11.4556 17.2297C11.6699 17.4441 12.0484 17.4441 12.2628 17.2297C12.4772 17.0153 12.4772 16.6368 12.2628 16.4224L12.2614 16.421L11.6225 15.7555C11.5463 15.6761 11.5489 15.55 11.6282 15.4738Z" fill="#7333FF"/>
<path fill-rule="evenodd" clip-rule="evenodd" d="M11.3413 12.7318C11.7155 12.4823 12.2448 12.5208 12.5711 12.8472C12.9411 13.2172 12.9411 13.8479 12.5711 14.2178L11.9071 14.8819C11.8293 14.9597 11.7032 14.9597 11.6254 14.8819C11.5476 14.8041 11.5476 14.678 11.6254 14.6002L12.2894 13.9362C12.5038 13.7218 12.5038 13.3433 12.2894 13.1289C12.075 12.9145 11.6965 12.9145 11.4822 13.1289L11.3413 13.2697L11.2004 13.1289C10.986 12.9145 10.6075 12.9145 10.3932 13.1289C10.1788 13.3433 10.1788 13.7218 10.3932 13.9362L10.3946 13.9376L11.0335 14.6031C11.1097 14.6824 11.1071 14.8085 11.0277 14.8847C10.9483 14.9609 10.8222 14.9583 10.746 14.879L10.1099 14.2163C9.74147 13.8462 9.74203 13.2166 10.1115 12.8472C10.4378 12.5208 10.9671 12.4823 11.3413 12.7318Z" fill="#7333FF"/>
<path fill-rule="evenodd" clip-rule="evenodd" d="M10.365 13.9611L11.0277 14.5973C11.107 14.6735 11.1096 14.7996 11.0334 14.879C10.9572 14.9583 10.8311 14.9609 10.7517 14.8847L10.0863 14.2458L10.0848 14.2444C9.87047 14.03 9.49197 14.03 9.27759 14.2444C9.06322 14.4588 9.06322 14.8373 9.27759 15.0516L9.41841 15.1925L9.27759 15.3334C9.06322 15.5478 9.06322 15.9263 9.27759 16.1406C9.49197 16.355 9.87047 16.355 10.0848 16.1406L10.0863 16.1392L10.7517 15.5003C10.8311 15.4241 10.9572 15.4268 11.0334 15.5061C11.1096 15.5855 11.107 15.7116 11.0277 15.7878L10.365 16.4239C9.99484 16.7923 9.36528 16.7918 8.99584 16.4224C8.66953 16.096 8.63103 15.5667 8.88041 15.1925C8.63103 14.8183 8.66953 14.289 8.99584 13.9627C9.36528 13.5933 9.99484 13.5928 10.365 13.9611Z" fill="#7333FF"/>
<path fill-rule="evenodd" clip-rule="evenodd" d="M12.2909 13.9611C12.6611 13.5928 13.2906 13.5933 13.6601 13.9627C13.9865 14.289 14.0249 14.8183 13.7755 15.1925C14.0249 15.5667 13.9865 16.096 13.6601 16.4224C13.2901 16.7923 12.6593 16.7923 12.2894 16.4224L11.6254 15.7583C11.5476 15.6806 11.5476 15.5545 11.6254 15.4766C11.7032 15.3988 11.8293 15.3988 11.9071 15.4766L12.5711 16.1406C12.7855 16.355 13.164 16.355 13.3784 16.1406C13.5928 15.9263 13.5928 15.5478 13.3784 15.3334L13.2375 15.1925L13.3784 15.0516C13.5928 14.8373 13.5928 14.4588 13.3784 14.2444C13.164 14.03 12.7855 14.03 12.5711 14.2444L12.5696 14.2458L11.9042 14.8847C11.8248 14.9609 11.6987 14.9583 11.6225 14.879C11.5463 14.7996 11.5489 14.6735 11.6283 14.5973L12.2909 13.9611Z" fill="#7333FF"/>
<defs>
<linearGradient id="paint0_linear_4291_29042" x1="11.327" y1="23.6709" x2="11.1503" y2="1.74438" gradientUnits="userSpaceOnUse">
<stop offset="0.1817" stop-color="white"/>
<stop offset="0.4322" stop-color="#EBE6FF"/>
<stop offset="0.9627" stop-color="#B9A6FF"/>
<stop offset="1" stop-color="#B5A1FF"/>
</linearGradient>
<linearGradient id="paint1_linear_4291_29042" x1="7.02706" y1="19.8407" x2="6.25425" y2="10.39" gradientUnits="userSpaceOnUse">
<stop stop-color="white"/>
<stop offset="1" stop-color="#B5A1FF"/>
</linearGradient>
<linearGradient id="paint2_linear_4291_29042" x1="15.7773" y1="19.4828" x2="16.3294" y2="10.1867" gradientUnits="userSpaceOnUse">
<stop stop-color="white"/>
<stop offset="1" stop-color="#B5A1FF"/>
</linearGradient>
<linearGradient id="paint3_linear_4291_29042" x1="11.3295" y1="-1.3942" x2="11.3295" y2="15.4778" gradientUnits="userSpaceOnUse">
<stop offset="0.1161" stop-color="white"/>
<stop offset="0.2704" stop-color="#F8F7FF"/>
<stop offset="0.5145" stop-color="#E7E0FF"/>
<stop offset="0.8159" stop-color="#C9BBFF"/>
<stop offset="1" stop-color="#B5A1FF"/>
</linearGradient>
<linearGradient id="paint4_linear_4291_29042" x1="6.2555" y1="6.91823" x2="15.9501" y2="6.91823" gradientUnits="userSpaceOnUse">
<stop offset="0.6281" stop-color="#B5A1FF"/>
<stop offset="1" stop-color="#B5A1FF"/>
</linearGradient>
</defs>
</svg>
