<svg xmlns="http://www.w3.org/2000/svg" xmlns:ev="http://www.w3.org/2001/xml-events" xmlns:xlink="http://www.w3.org/1999/xlink" style="enable-background:new 0 0 318.6 318.6" id="Layer_1" x="0" y="0" version="1.1" viewBox="0 0 318.6 318.6" xml:space="preserve"><style type="text/css">.st0{fill:#e2761b;stroke:#e2761b;stroke-linecap:round;stroke-linejoin:round}.st1{fill:#e4761b;stroke:#e4761b}.st1,.st2,.st3,.st4,.st5,.st6,.st7,.st8,.st9{stroke-linecap:round;stroke-linejoin:round}.st2{fill:#d7c1b3;stroke:#d7c1b3}.st3{fill:#233447;stroke:#233447}.st4{fill:#cd6116;stroke:#cd6116}.st5{fill:#e4751f;stroke:#e4751f}.st6{fill:#f6851b;stroke:#f6851b}.st7{fill:#c0ad9e;stroke:#c0ad9e}.st8{fill:#161616;stroke:#161616}.st9{fill:#763d16;stroke:#763d16}</style><polygon points="274.1 35.5 174.6 109.4 193 65.8" class="st0"/><g><polygon points="44.4 35.5 143.1 110.1 125.6 65.8" class="st1"/><polygon points="238.3 206.8 211.8 247.4 268.5 263 284.8 207.7" class="st1"/><polygon points="33.9 207.7 50.1 263 106.8 247.4 80.3 206.8" class="st1"/><polygon points="103.6 138.2 87.8 162.1 144.1 164.6 142.1 104.1" class="st1"/><polygon points="214.9 138.2 175.9 103.4 174.6 164.6 230.8 162.1" class="st1"/><polygon points="106.8 247.4 140.6 230.9 111.4 208.1" class="st1"/><polygon points="177.9 230.9 211.8 247.4 207.1 208.1" class="st1"/></g><g><polygon points="211.8 247.4 177.9 230.9 180.6 253 180.3 262.3" class="st2"/><polygon points="106.8 247.4 138.3 262.3 138.1 253 140.6 230.9" class="st2"/></g><polygon points="138.8 193.5 110.6 185.2 130.5 176.1" class="st3"/><polygon points="179.7 193.5 188 176.1 208 185.2" class="st3"/><g><polygon points="106.8 247.4 111.6 206.8 80.3 207.7" class="st4"/><polygon points="207 206.8 211.8 247.4 238.3 207.7" class="st4"/><polygon points="230.8 162.1 174.6 164.6 179.8 193.5 188.1 176.1 208.1 185.2" class="st4"/><polygon points="110.6 185.2 130.6 176.1 138.8 193.5 144.1 164.6 87.8 162.1" class="st4"/></g><g><polygon points="87.8 162.1 111.4 208.1 110.6 185.2" class="st5"/><polygon points="208.1 185.2 207.1 208.1 230.8 162.1" class="st5"/><polygon points="144.1 164.6 138.8 193.5 145.4 227.6 146.9 182.7" class="st5"/><polygon points="174.6 164.6 171.9 182.6 173.1 227.6 179.8 193.5" class="st5"/></g><polygon points="179.8 193.5 173.1 227.6 177.9 230.9 207.1 208.1 208.1 185.2" class="st6"/><polygon points="110.6 185.2 111.4 208.1 140.6 230.9 145.4 227.6 138.8 193.5" class="st6"/><polygon points="180.3 262.3 180.6 253 178.1 250.8 140.4 250.8 138.1 253 138.3 262.3 106.8 247.4 117.8 256.4 140.1 271.9 178.4 271.9 200.8 256.4 211.8 247.4" class="st7"/><polygon points="177.9 230.9 173.1 227.6 145.4 227.6 140.6 230.9 138.1 253 140.4 250.8 178.1 250.8 180.6 253" class="st8"/><g><polygon points="278.3 114.2 286.8 73.4 274.1 35.5 177.9 106.9 214.9 138.2 267.2 153.5 278.8 140 273.8 136.4 281.8 129.1 275.6 124.3 283.6 118.2" class="st9"/><polygon points="31.8 73.4 40.3 114.2 34.9 118.2 42.9 124.3 36.8 129.1 44.8 136.4 39.8 140 51.3 153.5 103.6 138.2 140.6 106.9 44.4 35.5" class="st9"/></g><polygon points="267.2 153.5 214.9 138.2 230.8 162.1 207.1 208.1 238.3 207.7 284.8 207.7" class="st6"/><polygon points="103.6 138.2 51.3 153.5 33.9 207.7 80.3 207.7 111.4 208.1 87.8 162.1" class="st6"/><polygon points="174.6 164.6 177.9 106.9 193.1 65.8 125.6 65.8 140.6 106.9 144.1 164.6 145.3 182.8 145.4 227.6 173.1 227.6 173.3 182.8" class="st6"/></svg>