<svg xmlns="http://www.w3.org/2000/svg" xml:space="preserve" id="Layer_1" x="0" y="0" version="1.1" viewBox="0 0 1080 1080"><style>.st1{fill:#9590c5}.st2{fill:#635da8}.st3{fill:#e7e5ea}</style><circle cx="540" cy="540" r="537.5" fill="#fff"/><path d="m775.997 806.304-.074-.16a649.198 649.198 0 0 1-19.935 7.462 651.002 651.002 0 0 0 20.009-7.302zm-452.696 7.579c-9.417-3.437-15.96-6.176-19.279-7.622l-.133.285c4.515 1.846 11.046 4.394 19.412 7.337z" class="st1"/><path d="M540 25C255.573 25 25 255.573 25 540c0 157.802 70.973 299.028 182.74 393.496 20.668-59.052 66.435-113.401 92.574-141.187-.324-12.341 1.09-32.738 10.198-57.42 3.705 17.338 38.614 28.741 68.174 35.361 43.116 9.655 100.405 14.973 161.314 14.973s118.198-5.318 161.313-14.973c29.56-6.62 64.468-18.023 68.175-35.361 9.107 24.683 10.522 45.081 10.198 57.42 26.138 27.785 71.905 82.135 92.573 141.187C984.027 839.028 1055 697.802 1055 540c0-284.427-230.573-515-515-515zm323.024 522.376c-21.868 65.961-66.066 122.678-124.278 162.412 16.935 6.942 26.171 14.585 26.171 22.06 0 23.404-90.377 48.461-224.916 48.461s-224.916-25.057-224.916-48.461c0-7.475 9.235-15.118 26.171-22.06-58.213-39.734-102.411-96.451-124.278-162.412-53.412-4.562-95.344-49.356-95.344-103.949 0-57.039 45.771-103.38 102.587-104.317C273.001 220.095 395.978 135.624 540 135.624s266.999 84.471 315.782 203.485c56.816.937 102.587 47.278 102.587 104.317-.001 54.594-41.932 99.387-95.345 103.95z" class="st1"/><path d="M224.218 339.109c-56.816.937-102.587 47.278-102.587 104.317 0 54.594 41.931 99.387 95.344 103.949-9.885-29.816-15.21-61.516-15.21-94.385 0-40.139 7.963-78.53 22.453-113.881zm-55.045 150.835c-10.564 0-19.129-8.565-19.129-19.129 0-10.564 8.565-19.129 19.129-19.129s19.129 8.565 19.129 19.129c0 10.564-8.564 19.129-19.129 19.129zm0-54.779c-10.564 0-19.129-8.565-19.129-19.129 0-10.564 8.565-19.129 19.129-19.129s19.129 8.565 19.129 19.129c0 10.565-8.564 19.129-19.129 19.129z" class="st2"/><circle cx="169.221" cy="416.042" r="19.13" class="st3"/><circle cx="169.156" cy="470.735" r="19.126" class="st3"/><path d="M237.669 949.849a238.883 238.883 0 0 0-1.674 5.887 516.584 516.584 0 0 0 24.076 16.604c3.65-34.953 9.486-66.869 15.427-93.323-16.435 21.8-30.326 45.793-37.829 70.832zm540.825-144.713c-.858.342-1.715.672-2.572 1.008l.074.16a660.02 660.02 0 0 1-37.719 13.168c14.314 67.354 52.171 120.515 81.25 153.127l.401-.26c-3.65-34.953-9.486-66.869-15.427-93.323 16.435 21.801 30.326 45.793 37.83 70.833a238.883 238.883 0 0 1 1.674 5.887 517.852 517.852 0 0 0 28.254-22.239c-20.668-59.052-66.435-113.401-92.573-141.187-.214 8.184-1.192 12.826-1.192 12.826z" class="st3"/><path d="M804.502 879.017c5.943 26.454 11.779 58.37 15.427 93.323a517.116 517.116 0 0 0 24.076-16.604 243.361 243.361 0 0 0-1.674-5.887c-7.503-25.039-21.394-49.032-37.829-70.832z" class="st3"/><path d="M341.254 709.788c-16.935 6.942-26.171 14.585-26.171 22.06 0 23.404 90.377 48.461 224.916 48.461 134.54 0 224.916-25.057 224.916-48.461 0-7.475-9.235-15.118-26.171-22.06C682.95 747.872 614.279 770.356 540 770.356s-142.95-22.484-198.746-60.568z" class="st2"/><path d="M341.669 819.969a545.942 545.942 0 0 1-18.368-6.086c-8.366-2.943-14.896-5.491-19.41-7.337l.133-.285c-1.663-.725-2.518-1.125-2.518-1.125s-.977-4.642-1.192-12.826c-26.138 27.785-71.905 82.135-92.574 141.187a517.468 517.468 0 0 0 28.254 22.239c.528-1.944 1.08-3.902 1.674-5.887 7.503-25.04 21.395-49.033 37.83-70.833-5.943 26.454-11.779 58.37-15.427 93.323l.435.283a400.216 400.216 0 0 0 17.004-20.367c23.095-29.628 51.973-75.722 64.159-132.286zm48.78 13.058c-15.885 71.492-53.654 128.127-85.397 165.376C375.495 1034.58 455.363 1055 540 1055c84.655 0 164.537-20.427 234.991-56.62-31.775-37.29-69.582-94.001-85.432-165.588-120.843 28.052-227.506 16.424-299.11.235z" class="st3"/><path d="M755.989 813.608a652.809 652.809 0 0 0 19.935-7.462c.858-.337 1.714-.668 2.572-1.008 0 0 .977-4.642 1.192-12.826.324-12.341-1.09-32.738-10.198-57.42-3.705 17.339-38.615 28.741-68.175 35.361-43.116 9.655-100.404 14.973-161.313 14.973s-118.198-5.318-161.314-14.973c-29.56-6.62-64.468-18.023-68.174-35.361-9.107 24.683-10.522 45.08-10.198 57.42.215 8.184 1.192 12.826 1.192 12.826s.854.4 2.518 1.125c3.319 1.446 9.862 4.185 19.279 7.622a542.924 542.924 0 0 0 18.368 6.086c-12.186 56.564-41.064 102.658-64.16 132.285a399.34 399.34 0 0 1-17.004 20.367 514.597 514.597 0 0 0 44.547 25.781c31.743-37.249 69.513-93.884 85.397-165.376 71.605 16.188 178.268 27.818 299.11-.235 15.851 71.588 53.658 128.298 85.432 165.588a514.44 514.44 0 0 0 44.538-25.781c-29.081-32.612-66.937-85.773-81.25-153.127a664.762 664.762 0 0 0 17.706-5.865zm99.793-474.499c14.49 35.352 22.453 73.742 22.453 113.882 0 32.868-5.325 64.569-15.211 94.385 53.412-4.562 95.344-49.356 95.344-103.949 0-57.04-45.771-103.382-102.586-104.318zm55.045 57.8c10.564 0 19.129 8.565 19.129 19.129 0 10.564-8.565 19.129-19.129 19.129s-19.129-8.565-19.129-19.129c0-10.566 8.564-19.129 19.129-19.129zm0 93.035c-10.564 0-19.129-8.565-19.129-19.129 0-10.564 8.565-19.129 19.129-19.129s19.129 8.565 19.129 19.129c-.001 10.565-8.566 19.129-19.129 19.129z" class="st2"/><circle cx="910.788" cy="470.827" r="19.129" class="st3" transform="rotate(-45.001 910.787 470.84)"/><circle cx="910.907" cy="415.974" r="19.13" class="st3" transform="rotate(-67.5 910.885 415.964)"/><path d="M855.782 339.109C806.999 220.095 684.022 135.624 540 135.624s-266.999 84.471-315.782 203.485c-14.49 35.352-22.453 73.742-22.453 113.882 0 32.868 5.325 64.569 15.21 94.385 21.868 65.961 66.066 122.678 124.278 162.412 55.797 38.085 124.468 60.569 198.746 60.569s142.95-22.484 198.746-60.569c58.213-39.734 102.411-96.451 124.278-162.412 9.885-29.816 15.211-61.516 15.211-94.385.001-40.14-7.962-78.531-22.452-113.882zM540 685.946c-227.308 0-288.673-109.421-288.673-244.397S380.57 197.151 540 197.151s288.673 109.42 288.673 244.397S767.308 685.946 540 685.946z" class="st3"/><path d="M828.578 435.241c-3.074-102.714-81-189.681-189.324-223.26a324.078 324.078 0 0 0-8.124-2.389 326.916 326.916 0 0 0-17.705-4.453 328.014 328.014 0 0 0-8.234-1.73 332.59 332.59 0 0 0-7.016-1.293 331.962 331.962 0 0 0-7.955-1.271 334.862 334.862 0 0 0-28.012-2.98 343.944 343.944 0 0 0-22.211-.712 348.178 348.178 0 0 0-22.211.712 339.817 339.817 0 0 0-21.752 2.103c-138.562 17.926-244.708 119.259-244.708 241.581 0 134.976 61.365 244.397 288.673 244.397s288.673-109.42 288.673-244.397c.001-2.11-.031-4.212-.094-6.308z" class="st2"/><path fill="#635da8" d="M237.669 949.849a238.883 238.883 0 0 0-1.674 5.887 516.584 516.584 0 0 0 24.076 16.604c3.65-34.953 9.486-66.869 15.427-93.323-16.435 21.8-30.326 45.793-37.829 70.832zm566.833-70.832c5.943 26.454 11.779 58.37 15.427 93.323a517.116 517.116 0 0 0 24.076-16.604 243.361 243.361 0 0 0-1.674-5.887c-7.503-25.039-21.394-49.032-37.829-70.832z" opacity=".1"/></svg>