<svg width="16" height="16" viewBox="0 0 16 16" fill="none" xmlns="http://www.w3.org/2000/svg">
<circle cx="8" cy="8" r="8" fill="#484F7F"/>
<path d="M7.13805 9.7025C7.13805 9.14495 7.20575 8.7009 7.34115 8.37036C7.47656 8.03981 7.72347 7.71524 8.08189 7.39664C8.4443 7.07406 8.68524 6.81321 8.80471 6.61408C8.92419 6.41098 8.98392 6.19792 8.98392 5.9749C8.98392 5.30186 8.67329 4.96534 8.05202 4.96534C7.75732 4.96534 7.52036 5.05694 7.34115 5.24013C7.16592 5.41934 7.07433 5.66825 7.06636 5.98684H5.33398C5.34195 5.22619 5.58687 4.63081 6.06875 4.2007C6.55461 3.7706 7.2157 3.55554 8.05202 3.55554C8.89631 3.55554 9.55143 3.76064 10.0174 4.17083C10.4833 4.57705 10.7163 5.15252 10.7163 5.89724C10.7163 6.23575 10.6406 6.55634 10.4893 6.85901C10.338 7.15769 10.0731 7.49023 9.6948 7.85662L9.21093 8.31659C8.90826 8.60731 8.73502 8.94782 8.69121 9.3381L8.66732 9.7025H7.13805ZM6.96481 11.5364C6.96481 11.2696 7.05441 11.0506 7.23363 10.8793C7.41682 10.7041 7.64979 10.6165 7.93255 10.6165C8.21531 10.6165 8.44629 10.7041 8.6255 10.8793C8.8087 11.0506 8.90029 11.2696 8.90029 11.5364C8.90029 11.7993 8.81069 12.0163 8.63147 12.1876C8.45625 12.3588 8.22327 12.4444 7.93255 12.4444C7.64183 12.4444 7.40686 12.3588 7.22765 12.1876C7.05242 12.0163 6.96481 11.7993 6.96481 11.5364Z" fill="white"/>
</svg>
