<?xml version="1.0" encoding="utf-8"?>
<svg version="1.1" id="Layer_1" xmlns="http://www.w3.org/2000/svg" xmlns:xlink="http://www.w3.org/1999/xlink" x="0px" y="0px"
	 viewBox="0 0 35 35" style="enable-background:new 0 0 35 35;" xml:space="preserve">
<style type="text/css">
	.st0{fill-rule:evenodd;clip-rule:evenodd;fill:#1B1A1F;}
</style>
<g>
	<path id="logo2" class="st0" d="M21.6,14.2v4h-4.3v16.7l-1.1-0.4c-0.5-0.2-1.4-0.5-2.4-1l-0.5-0.2v-32L17.5,0l4.1,1.3v4.4l-4.1-1.3
		l-0.3,0.1v9.8H21.6z M2.4,18.3V4.7l9.6-3v4.3L6.4,7.8v6.5h5.5v18.7l-1.2-0.6c-3.8-2-8.3-5.3-8.3-9.9v-2.2h4v2.2c0,1,0.5,2,1.5,3
		v-7.1H2.4z M22.8,1.6l9.8,3v13.6h-5.8v5.9c0,0-1.3,1.7-4,3.1C22.8,26.2,22.8,1.6,22.8,1.6z M28.6,14.2V7.8l-1.7-0.5v7H28.6z
		 M28.6,22.7v-2.5h4v2.5c0,6.9-10,10.8-13,11.9L18.5,35v-4.3l0.5-0.2C23.8,28.7,28.6,25.6,28.6,22.7z"/>
</g>
</svg>
