<svg width="21" height="24" viewBox="0 0 21 24" fill="none" xmlns="http://www.w3.org/2000/svg">
<path fill-rule="evenodd" clip-rule="evenodd" d="M0.0664825 13.5491C0.114302 13.6763 0.199825 13.7859 0.311653 13.8634C0.423481 13.9408 0.556303 13.9824 0.692417 13.9826H8.74899L4.10178 22.9994C3.95598 23.2817 4.03226 23.6309 4.28263 23.8271C4.40021 23.9199 4.54577 23.9703 4.69569 23.9702C4.85563 23.97 5.01021 23.9126 5.13133 23.8084L10.0333 19.5836L19.81 11.1574C19.9129 11.0686 19.9861 10.9506 20.02 10.8191C20.0538 10.6877 20.0467 10.549 19.9995 10.4217C19.9518 10.2945 19.8665 10.1848 19.7548 10.1073C19.6431 10.0297 19.5103 9.98793 19.3743 9.98756H11.3177L15.9649 0.970788C16.1106 0.688404 16.0344 0.339273 15.784 0.143111C15.6664 0.0502875 15.5209 -0.000146848 15.371 3.2117e-07C15.2111 0.000121533 15.0564 0.0575357 14.9353 0.161819L10.0333 4.38655L0.256653 12.8128C0.153637 12.9016 0.0802402 13.0197 0.0462589 13.1513C0.0122795 13.2829 0.0193348 13.4217 0.0664825 13.5491Z" fill="#F3B04E"/>
</svg>
