<svg xmlns="http://www.w3.org/2000/svg" width="145" height="145"><defs><clipPath id="a"><circle cx="60.5" cy="60.5" r="60.5" fill="#fff" data-name="Ellipse 222" transform="translate(-24204 2187)"/></clipPath><clipPath id="b"><circle cx="31.444" cy="31.444" r="31.444" data-name="Ellipse 227"/></clipPath><clipPath id="c"><path d="M0 2.995V0h2.7v2.995ZM1.348.984V1.5H2.7V.984Z" data-name="Path 2426"/></clipPath></defs><g data-name="Group 4564"><g data-name="Group 4297"><circle cx="72.368" cy="72.368" r="72.368" fill="#fff" data-name="Ellipse 73"/><path fill="#009b3a" d="M72.5 6.042a66.458 66.458 0 1 0 46.993 19.465A66.46 66.46 0 0 0 72.5 6.042M72.5 0A72.5 72.5 0 1 1 0 72.5 72.5 72.5 0 0 1 72.5 0" data-name="Ellipse 73 - Outline"/></g><g clip-path="url(#a)" data-name="Mask Group 33" transform="translate(24216 -2175)"><g transform="translate(-24172.84 2226.962)"><path fill="#009b3a" d="M-60.5-42.35h179.68V83.426H-60.5z" data-name="Rectangle 872"/><path fill="#fedf00" d="M-45.227 20.538 29.34 68.153l74.567-47.615L29.34-27.077Z" data-name="Path 2412"/><circle cx="31.444" cy="31.444" r="31.444" fill="#002776" data-name="Ellipse 226" transform="translate(-2.104 -10.906)"/><g clip-path="url(#b)" data-name="Group 4301" transform="translate(-2.104 -10.906)"><path fill="#fff" d="M-62.888 94.332a76.364 76.364 0 1 1 152.728 0h-4.492a71.872 71.872 0 1 0-143.744 0Z" data-name="Path 2413"/></g><g data-name="Group 4307"><path fill="#009b3a" fill-rule="evenodd" d="M2.522 11.346a1.43 1.43 0 0 0 1.16-1.648 1.43 1.43 0 0 0-1.525-1.324 1.43 1.43 0 0 0-1.155 1.653 1.43 1.43 0 0 0 1.52 1.324m-.067-.551a.876.876 0 0 0 .67-1.034.876.876 0 0 0-.9-.84.876.876 0 0 0-.671 1.033.876.876 0 0 0 .9.838" data-name="Path 2414"/><g data-name="Group 4302"><path fill-rule="evenodd" d="m4.962 11.077.555-.04-.078-1.11 1.197-.083a.941.941 0 1 0-.133-1.877l-1.707.119ZM5.4 9.373l1.152-.08a.385.385 0 0 0-.053-.769l-1.153.08Z" data-name="Path 2415"/><path d="M7.502 10.9c-.03-.428-.096-1.367-.736-1.322l-.811.057c.938-.066 1.004.873 1.034 1.3" data-name="Path 2416"/></g><path fill="#009b3a" fill-rule="evenodd" d="m8.756 10.84 1.412-.024a1.283 1.283 0 0 0 1.266-1.306l-.007-.428a1.283 1.283 0 0 0-1.31-1.261l-1.412.024Zm.546-.565.813-.014a.813.813 0 0 0 .8-.827l-.005-.257a.813.813 0 0 0-.827-.8l-.813.015Z" data-name="Path 2417"/><path fill="#009b3a" d="m12.56 10.802 2.698.094.02-.555-2.186-.077.026-.77 1.711.06.018-.513-1.71-.06.02-.6 2.053.072.02-.554-2.566-.09Z" data-name="Path 2418"/><path fill="#009b3a" d="m16.359 10.965.511.044.179-2.046.419 2.098.469.04.777-1.992-.18 2.046.515.045.26-2.984-.75-.065-.776 1.993-.417-2.098-.746-.065Z" data-name="Path 2419"/><path fill="#009b3a" d="m22.564 11.67 2.214.379.088-.511-1.709-.293.115-.672 1.393.238.087-.508-1.392-.24.08-.463 1.656.283.086-.505-2.162-.371Z" data-name="Path 2420"/><path fill="#009b3a" fill-rule="evenodd" d="m28.25 12.78.538.14.28-1.078 1.16.3a.941.941 0 0 0 .47-1.822l-1.656-.428Zm.956-1.476 1.118.29a.385.385 0 1 0 .193-.746l-1.118-.29Z" data-name="Path 2421"/><g data-name="Group 4303"><path fill-rule="evenodd" d="m31.924 13.76.53.168.335-1.062 1.145.36a.941.941 0 0 0 .564-1.795l-1.632-.514Zm1.033-1.424 1.101.347a.385.385 0 1 0 .232-.734l-1.102-.348Z" data-name="Path 2422"/><path d="M34.353 14.526c.128-.408.411-1.306-.201-1.499l-.775-.244c.897.283.614 1.18.485 1.588" data-name="Path 2423"/></g><path fill="#009b3a" fill-rule="evenodd" d="M36.805 15.404a1.43 1.43 0 0 0 1.79-.926 1.43 1.43 0 0 0-.741-1.879 1.43 1.43 0 0 0-1.788.933 1.43 1.43 0 0 0 .737 1.877m.195-.52a.876.876 0 0 0 1.071-.608.876.876 0 0 0-.41-1.161.876.876 0 0 0-1.073.607.876.876 0 0 0 .412 1.158" data-name="Path 2424"/><g data-name="Group 4305"><g clip-path="url(#c)" data-name="Group 4304" transform="rotate(23.5 -12.414 103.618)"><path fill-rule="evenodd" d="M1.348 2.995A1.43 1.43 0 0 0 2.7 1.5 1.43 1.43 0 0 0 1.348 0 1.43 1.43 0 0 0 0 1.5 1.43 1.43 0 0 0 1.348 3m0-.556a.876.876 0 0 0 .791-.944.876.876 0 0 0-.791-.944.876.876 0 0 0-.792.944.876.876 0 0 0 .791.941" data-name="Path 2425"/></g><path d="m41.124 15.54 1.04.452-.171.392-1.04-.452z" data-name="Rectangle 873"/><path d="m41.77 15.82.393.171-.597 1.373-.393-.17z" data-name="Rectangle 874"/></g><g data-name="Group 4306"><path fill-rule="evenodd" d="m42.57 17.835.497.248.496-.997 1.074.536a.941.941 0 1 0 .838-1.686l-1.532-.763Zm1.241-1.246 1.034.515a.385.385 0 0 0 .343-.69l-1.033-.514Z" data-name="Path 2427"/><path d="M44.848 18.97c.19-.383.61-1.225.036-1.512l-.728-.362c.842.42.423 1.262.232 1.645" data-name="Path 2428"/></g><path fill="#009b3a" d="m45.958 19.556 2.35 1.33.274-.485-1.904-1.077.38-.67 1.49.843.253-.447-1.49-.843.295-.522 1.788 1.011.273-.483-2.234-1.264Z" data-name="Path 2429"/><path fill="#009b3a" d="M50.328 21.021c-.16.253.003.534.364.764s.606.222.71.059c.327-.514-1.565-1.264-.982-2.159.502-.77 1.363-.171 1.687.036s.846.74.44 1.357l-.55-.35c.173-.27-.017-.531-.305-.715s-.506-.258-.673.004c-.278.416 1.577 1.207 1.008 2.1-.42.658-1.149.37-1.636.06-.415-.265-1.032-.889-.631-1.517Z" data-name="Path 2430"/><path fill="#009b3a" d="M53.54 23.147c-.174.244-.025.533.323.782s.594.253.707.096c.354-.497-1.498-1.345-.868-2.209.542-.742 1.371-.1 1.684.125s.806.785.368 1.379l-.53-.379c.186-.26.01-.531-.268-.73s-.492-.285-.672-.032c-.3.4 1.511 1.29.896 2.151-.454.636-1.167.31-1.638-.026-.4-.286-.984-.942-.55-1.549Z" data-name="Path 2431"/><path fill="#009b3a" fill-rule="evenodd" d="M56.579 26.592a1.43 1.43 0 0 0 1.988-.328 1.43 1.43 0 0 0-.124-2.016 1.43 1.43 0 0 0-1.989.335 1.43 1.43 0 0 0 .121 2.013m.347-.435a.876.876 0 0 0 1.206-.247.876.876 0 0 0-.031-1.23.876.876 0 0 0-1.208.245.876.876 0 0 0 .034 1.229" data-name="Path 2432"/></g><g fill="#fff" data-name="Group 4312"><path d="m3.672 13.543-.417 1.282.641.208"/><path d="m3.671 13.543.417 1.282-.641.208" data-name="Path 2433"/><g data-name="Group 4308"><path d="M4.953 14.475H3.605v.674" data-name="t"/><path d="m4.953 14.474-1.09.792-.397-.545" data-name="Path 2434"/></g><g data-name="Group 4309"><path d="m2.39 14.474 1.09.793.397-.546" data-name="t"/><path d="M2.39 14.475h1.348v.674" data-name="Path 2435"/></g><g data-name="Group 4310"><path d="M4.463 15.98 4.047 14.7l-.641.208" data-name="t"/><path d="m4.464 15.98-1.09-.792.395-.545" data-name="Path 2436"/></g><g data-name="Group 4311"><path d="m2.88 15.981 1.09-.792-.396-.546" data-name="t"/><path d="m2.88 15.981.417-1.282.64.209" data-name="Path 2437"/></g></g><g fill="#fff" data-name="Group 4317"><g data-name="c"><path d="m6.452 26.763-.417 1.282.641.208" data-name="t"/><path d="m6.451 26.763.417 1.282-.641.208" data-name="Path 2438"/></g><g data-name="Group 4313"><path d="M7.733 27.695H6.385v.674" data-name="t"/><path d="m7.733 27.694-1.09.792-.397-.545" data-name="Path 2439"/></g><g data-name="Group 4314"><path d="m5.17 27.694 1.09.793.397-.546" data-name="t"/><path d="M5.17 27.695h1.348v.674" data-name="Path 2440"/></g><g data-name="Group 4315"><path d="m7.243 29.2-.416-1.281-.641.208" data-name="t"/><path d="m7.244 29.2-1.09-.792.395-.545" data-name="Path 2441"/></g><g data-name="Group 4316"><path d="m5.66 29.201 1.09-.792-.396-.546" data-name="t"/><path d="m5.66 29.201.417-1.282.64.209" data-name="Path 2442"/></g></g><g fill="#fff" data-name="Group 4322"><g data-name="c"><path d="m2.602 29.811-.347 1.068.534.174" data-name="t"/><path d="m2.602 29.811.347 1.068-.534.174" data-name="Path 2443"/></g><g data-name="Group 4318"><path d="M3.67 30.587H2.547v.562" data-name="t"/><path d="m3.67 30.587-.908.66-.33-.455" data-name="Path 2444"/></g><g data-name="Group 4319"><path d="m1.534 30.587.909.66.33-.454" data-name="t"/><path d="M1.534 30.587h1.123v.562" data-name="Path 2445"/></g><g data-name="Group 4320"><path d="m3.262 31.843-.347-1.068-.535.174" data-name="t"/><path d="m3.262 31.843-.909-.66.33-.455" data-name="Path 2446"/></g><g data-name="Group 4321"><path d="m1.942 31.842.909-.66-.33-.455" data-name="t"/><path d="m1.942 31.842.347-1.068.535.174" data-name="Path 2447"/></g></g><g fill="#fff" data-name="Group 4327"><g data-name="c"><path d="m9.532 25.543-.198.61.305.1" data-name="t"/><path d="m9.532 25.542.198.611-.305.1" data-name="Path 2448"/></g><g data-name="Group 4323"><path d="M10.143 25.986h-.642v.321" data-name="t"/><path d="m10.144 25.986-.52.377-.188-.26" data-name="Path 2449"/></g><g data-name="Group 4324"><path d="m8.922 25.987.52.377.188-.26" data-name="t"/><path d="M8.922 25.987h.642v.321" data-name="Path 2450"/></g><g data-name="Group 4325"><path d="m9.91 26.704-.198-.61-.306.099" data-name="t"/><path d="m9.91 26.705-.519-.378.189-.26" data-name="Path 2451"/></g><g data-name="Group 4326"><path d="m9.155 26.704.52-.378-.189-.26" data-name="t"/><path d="m9.155 26.704.199-.61.305.099" data-name="Path 2452"/></g></g><g fill="#fff" data-name="Group 4332"><g data-name="c"><path d="m12.997 30.11-.347 1.068.534.174" data-name="t"/><path d="m12.997 30.11.347 1.068-.534.174" data-name="Path 2453"/></g><g data-name="Group 4328"><path d="M14.065 30.886h-1.123v.562" data-name="t"/><path d="m14.065 30.886-.908.66-.33-.455" data-name="Path 2454"/></g><g data-name="Group 4329"><path d="m11.929 30.886.909.66.33-.454" data-name="t"/><path d="M11.929 30.886h1.123v.562" data-name="Path 2455"/></g><g data-name="Group 4330"><path d="m13.657 32.142-.347-1.068-.535.174" data-name="t"/><path d="m13.657 32.142-.909-.66.33-.455" data-name="Path 2456"/></g><g data-name="Group 4331"><path d="m12.337 32.141.909-.66-.33-.455" data-name="t"/><path d="m12.337 32.141.347-1.068.535.174" data-name="Path 2457"/></g></g><g fill="#fff" data-name="Group 4337"><g data-name="c"><path d="m12.056 33.458-.278.856.427.139" data-name="t"/><path d="m12.056 33.456.278.856-.427.139" data-name="Path 2458"/></g><g data-name="Group 4333"><path d="M12.911 34.078h-.9v.45" data-name="t"/><path d="m12.913 34.077-.728.53-.264-.364" data-name="Path 2459"/></g><g data-name="Group 4334"><path d="m11.202 34.079.728.529.264-.363" data-name="t"/><path d="M11.2 34.078h.9v.45" data-name="Path 2460"/></g><g data-name="Group 4335"><path d="m12.585 35.083-.279-.856-.427.139" data-name="t"/><path d="m12.586 35.085-.728-.53.263-.363" data-name="Path 2461"/></g><g data-name="Group 4336"><path d="m11.529 35.083.728-.529-.264-.363" data-name="t"/><path d="m11.528 35.085.278-.856.427.138" data-name="Path 2462"/></g></g><g fill="#fff" data-name="Group 4342"><g data-name="c"><path d="m39.094 9.436-.417 1.282.641.208" data-name="t"/><path d="m39.093 9.436.417 1.282-.641.208" data-name="Path 2463"/></g><g data-name="Group 4338"><path d="M40.375 10.368h-1.348v.674" data-name="t"/><path d="m40.375 10.367-1.09.792-.397-.545" data-name="Path 2464"/></g><g data-name="Group 4339"><path d="m37.812 10.367 1.09.793.397-.546" data-name="t"/><path d="M37.812 10.368h1.348v.674" data-name="Path 2465"/></g><g data-name="Group 4340"><path d="m39.885 11.874-.416-1.282-.641.208" data-name="t"/><path d="m39.886 11.874-1.09-.793.395-.545" data-name="Path 2466"/></g><g data-name="Group 4341"><path d="m38.301 11.874 1.091-.792-.396-.546" data-name="t"/><path d="m38.302 11.874.417-1.282.64.209" data-name="Path 2467"/></g></g><g fill="#fff" data-name="Group 4347"><g data-name="c"><path d="m51.372 30.228-.417 1.282.641.208" data-name="t"/><path d="m51.371 30.228.417 1.282-.641.208" data-name="Path 2468"/></g><g data-name="Group 4343"><path d="M52.653 31.16h-1.348v.674" data-name="t"/><path d="m52.653 31.16-1.09.791-.397-.545" data-name="Path 2469"/></g><g data-name="Group 4344"><path d="m50.09 31.16 1.09.792.397-.546" data-name="t"/><path d="M50.09 31.16h1.348v.674" data-name="Path 2470"/></g><g data-name="Group 4345"><path d="m52.163 32.666-.416-1.282-.641.208" data-name="t"/><path d="m52.164 32.666-1.09-.793.395-.545" data-name="Path 2471"/></g><g data-name="Group 4346"><path d="m50.58 32.666 1.09-.792-.396-.546" data-name="t"/><path d="m50.58 32.666.417-1.282.64.209" data-name="Path 2472"/></g></g><g fill="#fff" data-name="Group 4352"><g data-name="c"><path d="m55.735 30.976-.278.856.427.139" data-name="t"/><path d="m55.735 30.974.278.856-.427.139" data-name="Path 2473"/></g><g data-name="Group 4348"><path d="M56.59 31.596h-.9v.45" data-name="t"/><path d="m56.592 31.595-.728.53-.264-.364" data-name="Path 2474"/></g><g data-name="Group 4349"><path d="m54.881 31.597.728.529.264-.363" data-name="t"/><path d="M54.88 31.596h.9v.45" data-name="Path 2475"/></g><g data-name="Group 4350"><path d="m56.264 32.601-.279-.856-.427.139" data-name="t"/><path d="m56.265 32.603-.728-.53.263-.363" data-name="Path 2476"/></g><g data-name="Group 4351"><path d="m55.208 32.6.728-.528-.264-.363" data-name="t"/><path d="m55.207 32.603.278-.856.427.138" data-name="Path 2477"/></g></g><g fill="#fff" data-name="Group 4357"><g data-name="c"><path d="m52.655 33.233-.347 1.068.534.174" data-name="t"/><path d="m52.655 33.233.347 1.068-.534.174" data-name="Path 2478"/></g><g data-name="Group 4353"><path d="M53.723 34.009H52.6v.562" data-name="t"/><path d="m53.723 34.009-.908.66-.33-.455" data-name="Path 2479"/></g><g data-name="Group 4354"><path d="m51.587 34.01.909.66.33-.455" data-name="t"/><path d="M51.587 34.01h1.123v.561" data-name="Path 2480"/></g><g data-name="Group 4355"><path d="m53.315 35.265-.347-1.068-.535.174" data-name="t"/><path d="m53.315 35.265-.909-.66.33-.455" data-name="Path 2481"/></g><g data-name="Group 4356"><path d="m51.995 35.264.909-.66-.33-.455" data-name="t"/><path d="m51.995 35.264.347-1.068.535.174" data-name="Path 2482"/></g></g><g fill="#fff" data-name="Group 4362"><g data-name="c"><path d="m45.083 39.821-.347 1.068.534.174" data-name="t"/><path d="m45.083 39.821.347 1.068-.534.174" data-name="Path 2483"/></g><g data-name="Group 4358"><path d="M46.151 40.597h-1.123v.562" data-name="t"/><path d="m46.151 40.597-.908.66-.33-.455" data-name="Path 2484"/></g><g data-name="Group 4359"><path d="m44.015 40.597.909.66.33-.454" data-name="t"/><path d="M44.015 40.597h1.123v.562" data-name="Path 2485"/></g><g data-name="Group 4360"><path d="m45.743 41.853-.347-1.068-.535.174" data-name="t"/><path d="m45.743 41.853-.909-.66.33-.455" data-name="Path 2486"/></g><g data-name="Group 4361"><path d="m44.423 41.852.909-.66-.33-.455" data-name="t"/><path d="m44.423 41.852.347-1.068.535.174" data-name="Path 2487"/></g></g><g fill="#fff" data-name="Group 4367"><g data-name="c"><path d="m45.04 43.212-.278.856.427.139" data-name="t"/><path d="m45.04 43.21.278.856-.427.139" data-name="Path 2488"/></g><g data-name="Group 4363"><path d="M45.895 43.832h-.9v.45" data-name="t"/><path d="m45.897 43.831-.728.53-.264-.364" data-name="Path 2489"/></g><g data-name="Group 4364"><path d="m44.186 43.833.728.529.264-.363" data-name="t"/><path d="M44.184 43.832h.9v.45" data-name="Path 2490"/></g><g data-name="Group 4365"><path d="m45.569 44.837-.279-.856-.427.139" data-name="t"/><path d="m45.57 44.839-.728-.53.263-.363" data-name="Path 2491"/></g><g data-name="Group 4366"><path d="m44.513 44.837.728-.529-.264-.363" data-name="t"/><path d="m44.512 44.839.278-.856.427.138" data-name="Path 2492"/></g></g><g fill="#fff" data-name="Group 4372"><g data-name="c"><path d="m48.206 37.565-.278.856.427.139" data-name="t"/><path d="m48.206 37.563.278.856-.427.139" data-name="Path 2493"/></g><g data-name="Group 4368"><path d="M49.061 38.185h-.9v.45" data-name="t"/><path d="m49.063 38.184-.728.53-.264-.364" data-name="Path 2494"/></g><g data-name="Group 4369"><path d="m47.352 38.186.728.529.264-.363" data-name="t"/><path d="M47.35 38.185h.9v.45" data-name="Path 2495"/></g><g data-name="Group 4370"><path d="m48.735 39.19-.279-.856-.427.139" data-name="t"/><path d="m48.736 39.192-.728-.53.263-.363" data-name="Path 2496"/></g><g data-name="Group 4371"><path d="m47.679 39.19.728-.529-.264-.363" data-name="t"/><path d="m47.678 39.192.278-.856.427.138" data-name="Path 2497"/></g></g><g fill="#fff" data-name="Group 4377"><g data-name="c"><path d="m50.73 35.757-.347 1.068.534.174" data-name="t"/><path d="m50.73 35.757.347 1.068-.534.174" data-name="Path 2498"/></g><g data-name="Group 4373"><path d="M51.798 36.533h-1.123v.562" data-name="t"/><path d="m51.798 36.533-.908.66-.33-.455" data-name="Path 2499"/></g><g data-name="Group 4374"><path d="m49.662 36.533.909.66.33-.454" data-name="t"/><path d="M49.662 36.533h1.123v.562" data-name="Path 2500"/></g><g data-name="Group 4375"><path d="m51.39 37.789-.347-1.068-.535.174" data-name="t"/><path d="m51.39 37.789-.909-.66.33-.455" data-name="Path 2501"/></g><g data-name="Group 4376"><path d="m50.07 37.788.909-.66-.33-.455" data-name="t"/><path d="m50.07 37.788.347-1.068.535.174" data-name="Path 2502"/></g></g><g fill="#fff" data-name="Group 4382"><g data-name="c"><path d="m44.954 36.966-.278.856.427.139" data-name="t"/><path d="m44.954 36.964.278.856-.427.139" data-name="Path 2503"/></g><g data-name="Group 4378"><path d="M45.809 37.586h-.9v.45" data-name="t"/><path d="m45.81 37.585-.727.53-.264-.364" data-name="Path 2504"/></g><g data-name="Group 4379"><path d="m44.1 37.587.728.529.264-.363" data-name="t"/><path d="M44.098 37.586h.9v.45" data-name="Path 2505"/></g><g data-name="Group 4380"><path d="m45.483 38.591-.279-.856-.427.139" data-name="t"/><path d="m45.484 38.593-.728-.53.263-.363" data-name="Path 2506"/></g><g data-name="Group 4381"><path d="m44.427 38.59.728-.528-.264-.363" data-name="t"/><path d="m44.426 38.593.278-.856.427.138" data-name="Path 2507"/></g></g><g fill="#fff" data-name="Group 4387"><g data-name="c"><path d="m17.361 20.698-.347 1.068.534.174" data-name="t"/><path d="m17.361 20.698.347 1.068-.534.174" data-name="Path 2508"/></g><g data-name="Group 4383"><path d="M18.429 21.474h-1.123v.562" data-name="t"/><path d="m18.429 21.474-.908.66-.33-.455" data-name="Path 2509"/></g><g data-name="Group 4384"><path d="m16.293 21.474.909.66.33-.454" data-name="t"/><path d="M16.293 21.474h1.123v.562" data-name="Path 2510"/></g><g data-name="Group 4385"><path d="m18.021 22.73-.347-1.068-.535.174" data-name="t"/><path d="m18.021 22.73-.909-.66.33-.455" data-name="Path 2511"/></g><g data-name="Group 4386"><path d="m16.701 22.729.909-.66-.33-.455" data-name="t"/><path d="m16.701 22.73.347-1.069.535.174" data-name="Path 2512"/></g></g><g fill="#fff" data-name="Group 4392"><g data-name="c"><path d="m37.896 18.057-.278.856.427.139" data-name="t"/><path d="m37.896 18.055.278.856-.427.139" data-name="Path 2513"/></g><g data-name="Group 4388"><path d="M38.751 18.677h-.9v.45" data-name="t"/><path d="m38.753 18.676-.728.53-.264-.364" data-name="Path 2514"/></g><g data-name="Group 4389"><path d="m37.042 18.678.728.529.264-.363" data-name="t"/><path d="M37.04 18.677h.9v.45" data-name="Path 2515"/></g><g data-name="Group 4390"><path d="m38.425 19.682-.279-.856-.427.139" data-name="t"/><path d="m38.426 19.684-.728-.53.263-.363" data-name="Path 2516"/></g><g data-name="Group 4391"><path d="m37.369 19.682.728-.529-.264-.363" data-name="t"/><path d="m37.368 19.684.278-.856.427.138" data-name="Path 2517"/></g></g><g fill="#fff" data-name="Group 4397"><g data-name="c"><path d="m29.34 33.308-.417 1.282.641.208" data-name="t"/><path d="m29.34 33.308.416 1.282-.641.208" data-name="Path 2518"/></g><g data-name="Group 4393"><path d="M30.621 34.24h-1.348v.674" data-name="t"/><path d="m30.62 34.24-1.09.791-.396-.545" data-name="Path 2519"/></g><g data-name="Group 4394"><path d="m28.058 34.24 1.09.792.397-.546" data-name="t"/><path d="M28.058 34.24h1.348v.674" data-name="Path 2520"/></g><g data-name="Group 4395"><path d="m30.131 35.746-.416-1.282-.641.208" data-name="t"/><path d="m30.132 35.746-1.09-.793.395-.545" data-name="Path 2521"/></g><g data-name="Group 4396"><path d="m28.547 35.746 1.091-.792-.396-.546" data-name="t"/><path d="m28.548 35.746.417-1.282.64.209" data-name="Path 2522"/></g></g><g fill="#fff" data-name="Group 4402"><g data-name="c"><path d="m32.976 27.287-.347 1.068.534.174" data-name="t"/><path d="m32.976 27.287.347 1.068-.534.174" data-name="Path 2523"/></g><g data-name="Group 4398"><path d="M34.044 28.063h-1.123v.562" data-name="t"/><path d="m34.044 28.063-.908.66-.33-.455" data-name="Path 2524"/></g><g data-name="Group 4399"><path d="m31.908 28.063.909.66.33-.454" data-name="t"/><path d="M31.908 28.063h1.123v.562" data-name="Path 2525"/></g><g data-name="Group 4400"><path d="m33.636 29.319-.347-1.068-.535.174" data-name="t"/><path d="m33.636 29.319-.909-.66.33-.455" data-name="Path 2526"/></g><g data-name="Group 4401"><path d="m32.316 29.318.909-.66-.33-.455" data-name="t"/><path d="m32.316 29.318.347-1.068.535.174" data-name="Path 2527"/></g></g><g fill="#fff" data-name="Group 4407"><g data-name="c"><path d="m29.34 24.463-.347 1.068.534.174" data-name="t"/><path d="m29.34 24.463.347 1.068-.534.174" data-name="Path 2528"/></g><g data-name="Group 4403"><path d="M30.408 25.239h-1.123v.562" data-name="t"/><path d="m30.408 25.239-.908.66-.33-.455" data-name="Path 2529"/></g><g data-name="Group 4404"><path d="m28.272 25.24.909.66.33-.455" data-name="t"/><path d="M28.272 25.24h1.123v.561" data-name="Path 2530"/></g><g data-name="Group 4405"><path d="m30 26.495-.347-1.068-.535.174" data-name="t"/><path d="m30 26.495-.909-.66.33-.455" data-name="Path 2531"/></g><g data-name="Group 4406"><path d="m28.68 26.494.909-.66-.33-.455" data-name="t"/><path d="m28.68 26.494.347-1.068.535.174" data-name="Path 2532"/></g></g><g fill="#fff" data-name="Group 4412"><g data-name="c"><path d="m26.174 27.511-.278.856.427.139" data-name="t"/><path d="m26.174 27.509.278.856-.427.139" data-name="Path 2533"/></g><g data-name="Group 4408"><path d="M27.029 28.131h-.9v.45" data-name="t"/><path d="m27.03 28.13-.727.53-.264-.364" data-name="Path 2534"/></g><g data-name="Group 4409"><path d="m25.32 28.132.728.529.264-.363" data-name="t"/><path d="M25.318 28.131h.9v.45" data-name="Path 2535"/></g><g data-name="Group 4410"><path d="m26.703 29.136-.279-.856-.427.139" data-name="t"/><path d="m26.704 29.138-.728-.53.263-.363" data-name="Path 2536"/></g><g data-name="Group 4411"><path d="m25.647 29.136.728-.529-.264-.363" data-name="t"/><path d="m25.646 29.138.278-.856.427.138" data-name="Path 2537"/></g></g><g fill="#fff" data-name="Group 4417"><g data-name="c"><path d="m27.756 29.95-.198.61.305.1" data-name="t"/><path d="m27.756 29.95.198.61-.305.1" data-name="Path 2538"/></g><g data-name="Group 4413"><path d="M28.367 30.393h-.642v.321" data-name="t"/><path d="m28.368 30.393-.52.377-.188-.26" data-name="Path 2539"/></g><g data-name="Group 4414"><path d="m27.146 30.394.52.377.188-.26" data-name="t"/><path d="M27.146 30.394h.642v.321" data-name="Path 2540"/></g><g data-name="Group 4415"><path d="m28.134 31.111-.198-.61-.306.099" data-name="t"/><path d="m28.135 31.112-.52-.378.189-.26" data-name="Path 2541"/></g><g data-name="Group 4416"><path d="m27.38 31.11.519-.377-.189-.26" data-name="t"/><path d="m27.38 31.111.198-.61.305.099" data-name="Path 2542"/></g></g><g fill="#fff" data-name="Group 4422"><g data-name="c"><path d="m38.752 40.591-.347 1.068.534.174" data-name="t"/><path d="m38.752 40.591.347 1.068-.534.174" data-name="Path 2543"/></g><g data-name="Group 4418"><path d="M39.82 41.367h-1.123v.562" data-name="t"/><path d="m39.82 41.367-.908.66-.33-.455" data-name="Path 2544"/></g><g data-name="Group 4419"><path d="m37.684 41.367.909.66.33-.454" data-name="t"/><path d="M37.684 41.367h1.123v.562" data-name="Path 2545"/></g><g data-name="Group 4420"><path d="m39.412 42.623-.347-1.068-.535.174" data-name="t"/><path d="m39.412 42.623-.909-.66.33-.455" data-name="Path 2546"/></g><g data-name="Group 4421"><path d="m38.092 42.622.909-.66-.33-.455" data-name="t"/><path d="m38.092 42.622.347-1.068.535.174" data-name="Path 2547"/></g></g><g fill="#fff" data-name="Group 4427"><g data-name="c"><path d="m41.446 38.035-.278.856.427.139" data-name="t"/><path d="m41.446 38.033.278.856-.427.139" data-name="Path 2548"/></g><g data-name="Group 4423"><path d="M42.301 38.655h-.9v.45" data-name="t"/><path d="m42.303 38.654-.728.53-.264-.364" data-name="Path 2549"/></g><g data-name="Group 4424"><path d="m40.592 38.656.728.529.264-.363" data-name="t"/><path d="M40.59 38.655h.9v.45" data-name="Path 2550"/></g><g data-name="Group 4425"><path d="m41.975 39.66-.279-.856-.427.139" data-name="t"/><path d="m41.976 39.662-.728-.53.263-.363" data-name="Path 2551"/></g><g data-name="Group 4426"><path d="m40.919 39.66.728-.529-.264-.363" data-name="t"/><path d="m40.918 39.662.278-.856.427.138" data-name="Path 2552"/></g></g><g fill="#fff" data-name="Group 4432"><g data-name="c"><path d="m36.27 37.265-.278.856.427.139" data-name="t"/><path d="m36.27 37.263.278.856-.427.139" data-name="Path 2553"/></g><g data-name="Group 4428"><path d="M37.125 37.885h-.9v.45" data-name="t"/><path d="m37.127 37.884-.728.53-.264-.364" data-name="Path 2554"/></g><g data-name="Group 4429"><path d="m35.416 37.886.728.529.264-.363" data-name="t"/><path d="M35.414 37.885h.9v.45" data-name="Path 2555"/></g><g data-name="Group 4430"><path d="m36.799 38.89-.279-.856-.427.139" data-name="t"/><path d="m36.8 38.892-.728-.53.263-.363" data-name="Path 2556"/></g><g data-name="Group 4431"><path d="m35.743 38.89.728-.529-.264-.363" data-name="t"/><path d="m35.742 38.892.278-.856.427.138" data-name="Path 2557"/></g></g><g fill="#fff" data-name="Group 4437"><g data-name="c"><path d="m16.72 35.875-.417 1.282.641.208" data-name="t"/><path d="m16.72 35.875.416 1.282-.641.208" data-name="Path 2558"/></g><g data-name="Group 4433"><path d="M18.001 36.807h-1.348v.674" data-name="t"/><path d="m18 36.806-1.09.792-.396-.545" data-name="Path 2559"/></g><g data-name="Group 4434"><path d="m15.438 36.806 1.09.793.397-.546" data-name="t"/><path d="M15.438 36.807h1.348v.674" data-name="Path 2560"/></g><g data-name="Group 4435"><path d="m17.511 38.313-.416-1.282-.641.208" data-name="t"/><path d="m17.512 38.313-1.09-.793.395-.545" data-name="Path 2561"/></g><g data-name="Group 4436"><path d="m15.927 38.313 1.091-.792-.396-.546" data-name="t"/><path d="m15.928 38.313.417-1.282.64.209" data-name="Path 2562"/></g></g><g fill="#fff" data-name="Group 4442"><g data-name="c"><path d="m29.341 44.688-.139.427.214.07" data-name="t"/><path d="m29.34 44.688.139.427-.214.07" data-name="Path 2563"/></g><g data-name="Group 4438"><path d="M29.767 44.999h-.449v.225" data-name="t"/><path d="m29.767 44.998-.363.264-.133-.182" data-name="Path 2564"/></g><g data-name="Group 4439"><path d="m28.913 44.998.363.264.133-.182" data-name="t"/><path d="M28.913 45h.449v.224" data-name="Path 2565"/></g><g data-name="Group 4440"><path d="m29.604 45.5-.139-.426-.214.07" data-name="t"/><path d="m29.604 45.5-.363-.263.132-.183" data-name="Path 2566"/></g><g data-name="Group 4441"><path d="m29.076 45.5.363-.264-.132-.182" data-name="t"/><path d="m29.076 45.5.14-.426.213.07" data-name="Path 2567"/></g></g></g></g></g></svg>