<svg xmlns="http://www.w3.org/2000/svg" viewBox="0 0 145 145"><defs><clipPath id="a"><circle cx="-116.62" cy="72.5" r="60.5" class="a"/></clipPath><clipPath id="b"><circle cx="72.5" cy="72.37" r="60.5" class="a"/></clipPath><style>.a{fill:none}.d{fill:#fff}.e,.i{fill:red}.i{stroke:#000;stroke-miterlimit:10;stroke-width:1.4px}</style></defs><g style="clip-path:url(#a)"><path d="M-198.67 12h242v121h-242z" style="fill:#012169"/><path d="m9.72 48.23 1.66 5.18 5.09-1.93-3 4.54 4.68 2.77-5.42.48.75 5.39-3.76-3.95L6 64.66l.74-5.39-5.42-.48L6 56l-3-4.52 5.09 1.93Z" class="d"/></g><circle cx="72.37" cy="72.24" r="72.37" class="d"/><path d="M72.5 5.91a66.46 66.46 0 1 0 47 19.46 66.46 66.46 0 0 0-47-19.46m0-6A72.5 72.5 0 1 1 0 72.37 72.5 72.5 0 0 1 72.5-.13Z" class="e"/><g style="clip-path:url(#b)"><circle cx="72.5" cy="72.37" r="60.5" class="d"/><path d="M110.03 22.08h37.78v103.64h-37.78zM-2.81 22.08h37.78v103.64H-2.81z" class="e"/></g><path d="m40.53 63.45 10.79-10.43h42.3l10.59 10.6-31.74 37.07z" style="fill:red;stroke:#000;stroke-miterlimit:10;stroke-width:1.59px"/><path d="m45.9 64.21 7.73-7.65h37.68l7.52 7.69-26.44 30.71z" style="stroke:#000;stroke-miterlimit:10;stroke-width:1.59px;fill:#fff900"/><path d="M73.05 90c-.06-1.15-.11-2.25-.17-3.34s-.14-2.39-.19-3.58a.83.83 0 0 1 1-.89l4.75.85 2.14.37c-.28-.79-.55-1.51-.81-2.24s-.2-.73.32-1.15l7-5.65.38-.33-1.53-.72a.61.61 0 0 1-.38-.88l.77-2.36.67-2.14-4 .86c-.65.14-.82.06-1.07-.53l-.7-1.63-.12-.07a1.6 1.6 0 0 1-.16.28l-3.07 3.3a.63.63 0 0 1-.74.2c-.28-.12-.32-.37-.3-.65a2 2 0 0 1 0-.24c.39-2 .79-4 1.18-6 .13-.7.26-1.39.41-2.17l-2.25 1.3c-.73.43-.92.38-1.3-.36Q73.8 60.1 72.76 58c-.12-.23-.25-.46-.4-.73l-.78 1.5c-.6 1.18-1.19 2.37-1.8 3.55-.27.53-.54.6-1 .31l-.21-.12-2.17-1.25a3 3 0 0 0 0 .35c.2 1 .41 2 .6 3.07.32 1.63.63 3.26.94 4.9.06.3.06.61-.28.76a.67.67 0 0 1-.79-.25c-.65-.72-1.31-1.42-2-2.12l-1.31-1.4c-.26.63-.51 1.2-.75 1.76s-.4.6-.92.49-1.11-.24-1.67-.36L57.74 68c.49 1.5 1 2.94 1.42 4.38.18.56.1.74-.43 1l-1.45.62.32.28 6.92 5.6c.68.55.68.55.39 1.36s-.49 1.39-.76 2.13l6.74-1.19c.75-.14 1.19.23 1.15 1-.09 1.75-.2 3.5-.29 5.24v1.56Z" class="i"/><path d="M73.05 90h-1.3v-1.56c.09-1.74.2-3.49.29-5.24 0-.75-.4-1.12-1.15-1l-6.74 1.19c.27-.74.51-1.43.76-2.13s.29-.81-.39-1.36l-6.92-5.6-.32-.3 1.45-.68c.53-.26.61-.44.43-1-.46-1.44-.93-2.88-1.42-4.38l2.48.52c.56.12 1.11.25 1.67.36s.71 0 .92-.49.49-1.13.75-1.76L64.87 68l2 2.12a.67.67 0 0 0 .79.25c.34-.15.34-.46.28-.76-.31-1.64-.62-3.27-.94-4.9-.19-1-.4-2-.6-3.07a3 3 0 0 1 0-.35l2.17 1.25.21.12c.51.29.78.22 1-.31.61-1.18 1.2-2.37 1.8-3.55l.78-1.5c.15.27.28.5.4.73q1 2.09 2.11 4.17c.38.74.57.79 1.3.36l2.25-1.3c-.15.78-.28 1.47-.41 2.17-.39 2-.79 4-1.18 6a2 2 0 0 0 0 .24c0 .28 0 .53.3.65a.63.63 0 0 0 .74-.2l3.07-3.3a1.6 1.6 0 0 0 .16-.28l.12.07.7 1.63c.25.59.42.67 1.07.53l4-.86-.68 2.11-.77 2.36a.61.61 0 0 0 .38.88l1.53.72-.38.33-7 5.65c-.52.42-.55.52-.32 1.15s.53 1.45.81 2.24L78.44 83l-4.75-.85a.83.83 0 0 0-1 .89c0 1.19.13 2.38.19 3.58s.12 2.2.17 3.38Z" class="i"/></svg>