<svg xmlns="http://www.w3.org/2000/svg" viewBox="0 0 145 145"><defs><style>.b{fill:#bc002d}.e{stroke:#000;stroke-miterlimit:10;stroke-width:1.65px;fill:#fff900}</style></defs><circle cx="72.37" cy="72.37" r="72.37" style="fill:#fff"/><path d="M72.5 6a66.47 66.47 0 1 0 47 19.47A66.47 66.47 0 0 0 72.5 6m0-6A72.5 72.5 0 1 1 0 72.5 72.5 72.5 0 0 1 72.5 0" class="b"/><circle cx="72.5" cy="72.5" r="44.04" class="b"/><path d="M92.09 56.51h-3c-4 6.44-7.89 12.84-11.85 19.3h6.55v4.51H75v2.55h8.71v.32l16.17-18.73ZM72.26 73.45l.23.35.22-.35Q77.92 65 83.14 56.51H61.85ZM75 93.33l5.12-5.94H75ZM64.91 87.4l5 5.86V87.4Zm-19.8-23 16.11 18.7v-.23h8.72v-2.53h-8.71V76.2c0-.31.1-.39.39-.39h6.17c-3.97-6.44-7.9-12.81-11.87-19.3h-2.81Zm16.74-7.91-.27-.44a.53.53 0 0 0-.51-.3h-5.28a2 2 0 0 0-.3 0c.14.23.29.46.43.7" style="fill:none;stroke:#000;stroke-miterlimit:10;stroke-width:1.65px"/><path d="M94.48 52.84H50.72L39.55 63.63l33.05 38.54 32.85-38.37ZM70 87.4v5.86l-5-5.86Zm5 5.93v-5.94h5.12Zm14-36.82h3l7.79 7.95-16.05 18.73M61.85 56.51h21.29" style="stroke:#000;stroke-miterlimit:10;stroke-width:1.65px;fill:red"/><path d="M69.94 82.89h-8.72v.23l-16.11-18.7 8-7.91h2.81c4 6.45 7.9 12.86 11.85 19.27H61.6c-.29 0-.4.08-.39.39v4.14h8.71ZM64.91 87.4h5.05v5.86zM75.01 87.39h5.12l-5.12 5.94zM83.14 56.51Q77.92 65 72.71 73.45l-.22.35-.23-.35-10.41-16.94ZM83.74 83.19v-.32H75v-2.55h8.72v-4.51H77.2c4-6.46 7.89-12.86 11.85-19.3h3l7.79 7.95Z" class="e"/></svg>