<svg xmlns="http://www.w3.org/2000/svg" viewBox="0 0 145 145"><defs><style>.a{fill:#fff;}.b{fill:#bc002d;}.c{fill:none;}.c,.d,.e{stroke:#000;stroke-miterlimit:10;stroke-width:1.65px;}.d{fill:red;}.e{fill:#fff900;}</style></defs><title>SuperjJPY</title><circle class="a" cx="72.37" cy="72.37" r="72.37"/><path class="b" d="M72.5,6a66.47,66.47,0,1,0,47,19.47A66.47,66.47,0,0,0,72.5,6m0-6A72.5,72.5,0,1,1,0,72.5,72.5,72.5,0,0,1,72.5,0Z"/><circle class="b" cx="72.5" cy="72.5" r="44.04"/><path class="c" d="M92.09,56.51h-3c-4,6.44-7.89,12.84-11.85,19.3h6.55v4.51H75v2.55h8.71v.32L99.88,64.46ZM72.26,73.45l.23.35.22-.35Q77.92,65,83.14,56.51H61.85ZM75,93.33l5.12-5.94H75ZM64.91,87.4l5,5.86V87.4Zm-19.8-23,16.11,18.7v-.23h8.72V80.34H61.23c0-.13,0-.23,0-.32,0-1.27,0-2.54,0-3.82,0-.31.1-.39.39-.39,2,0,4,0,6.07,0,0,0,0,0,.1,0C63.82,69.37,59.89,63,55.92,56.51H53.11Zm16.74-7.91-.27-.44a.53.53,0,0,0-.51-.3H55.79a2.08,2.08,0,0,0-.3,0c.14.23.29.46.43.7"/><path class="d" d="M94.48,52.84H50.72L39.55,63.63,72.6,102.17,105.45,63.8ZM70,87.4v5.86l-5-5.86ZM75,93.33V87.39h5.12Zm14-36.82h3l7.79,7.95L83.74,83.19M61.85,56.51H83.14"/><path class="e" d="M69.94,82.89H61.22v.23L45.11,64.42l8-7.91h2.81c4,6.45,7.9,12.86,11.85,19.27-.06,0-.08,0-.1,0-2,0-4.05,0-6.07,0-.29,0-.4.08-.39.39,0,1.28,0,2.55,0,3.82,0,.09,0,.19,0,.32h8.71Z"/><polygon class="e" points="64.91 87.4 69.96 87.4 69.96 93.26 64.91 87.4"/><polygon class="e" points="75.01 87.39 80.13 87.39 75.01 93.33 75.01 87.39"/><path class="e" d="M83.14,56.51Q77.92,65,72.71,73.45l-.22.35-.23-.35L61.85,56.51Z"/><path class="e" d="M83.74,83.19v-.32H75V80.32h8.72V75.81H77.2c4-6.46,7.89-12.86,11.85-19.3h3l7.79,7.95Z"/></svg>