<svg xmlns="http://www.w3.org/2000/svg" width="24" height="24"><defs><clipPath id="b"><circle cx="10.014" cy="10.014" r="10.014" fill="none" data-name="Ellipse 16" transform="translate(1.986 1.986)"/></clipPath></defs><g clip-path="url(#clip-Zeichenfläche_22)" data-name="Zeichenfläche – 22"><g data-name="Gruppe 31"><circle cx="11.237" cy="11.237" r="11.237" fill="#fff" data-name="Ellipse 15" transform="translate(.599 .599)"/><path fill="#012169" d="M12 1a11 11 0 1 0 7.778 3.222A11 11 0 0 0 12 1m0-1A12 12 0 1 1 0 12 12 12 0 0 1 12 0" data-name="Ellipse 73 - Outline"/><g data-name="Gruppe 30"><g data-name="Gruppe 26"><g clip-path="url(#b)" data-name="Gruppe 25"><g data-name="Mask Group 53"><path fill="#012169" fill-rule="evenodd" d="M-1.325 1.986H29.5v20.552H-1.325Z"/><path fill="#fff" fill-rule="evenodd" d="m22.021 3.816.4 1.236h1.3l-1.052.761.4 1.234-1.049-.765-1.049.765.4-1.234-1.052-.761h1.3Z"/><path fill="none" d="m26.208 8.172.359 1.111h1.168l-.946.685.363 1.11-.944-.688-.943.688.363-1.11-.946-.685h1.168Z"/><path fill="#fff" fill-rule="evenodd" d="m26.208 8.172.359 1.111h1.168l-.946.685.363 1.11-.944-.688-.943.688.363-1.11-.946-.685h1.168ZM17.174 9.29l.4 1.236h1.3l-1.052.761.4 1.234-1.049-.765-1.049.765.4-1.234-1.048-.765h1.3ZM22 16.48l.439 1.361h1.43l-1.159.839.444 1.359L22 19.194l-1.156.843.445-1.359-1.159-.839h1.43Z"/><path fill="#c8102e" fill-rule="evenodd" d="M3.3 5.411h.514l-5.139-3.425v.685l4.11 2.74ZM9.979 8.837H8.951l5.138 3.425v-.685ZM8.438 5.411h.514l5.138-3.425h-1.028L7.924 5.411ZM-.811 12.262H-.3l5.141-3.425H3.813l-5.138 3.425Z"/><path fill="#fff" fill-rule="evenodd" d="m2.275 8.837-3.6 2.4v1.028l5.138-3.428h.856v.114L-.3 12.262h.517l4.452-2.968v2.969H8.1V9.294l4.453 2.969h1.541L8.951 8.837h1.024l4.11 2.74v-.342l-3.6-2.4h3.6V5.411h-3.6l3.6-2.4V1.986L8.951 5.411H8.1V5.3l4.967-3.311h-.514L8.1 4.955V1.986H4.669v2.969L.216 1.986h-1.541l5.138 3.425H2.785l-4.11-2.74v.343l3.6 2.4h-3.6v3.423Z"/><path fill="#c8102e" fill-rule="evenodd" d="M5.355 12.262v-4.11h-6.68V6.1h6.68V1.986H7.41V6.1h6.68v2.052H7.41v4.11ZM22 17.169l.282.873h.918l-.739.536.285.872-.746-.541-.741.541.281-.872-.74-.538h.917ZM17.174 9.978l.241.748h.785l-.637.461.244.747-.635-.463-.635.463.244-.747-.637-.461h.786ZM26.208 8.862l.2.623h.655l-.531.384.2.623-.529-.386-.529.386.2-.623-.531-.384H26ZM22.021 4.5l.242.748h.786l-.637.461.244.747L22.021 6l-.635.463.244-.747-.63-.465h.786Z"/></g></g></g><g stroke="#000" stroke-miterlimit="10" data-name="Gruppe 29"><g stroke-width=".325" data-name="Gruppe 27"><path fill="#f70000" d="M15.706 12.027a.9.9 0 0 1 .071.352.9.9 0 0 1-.554.834.9.9 0 0 1-.352.071h-.3v-1.811h.3a.9.9 0 0 1 .352.072.9.9 0 0 1 .289.194.9.9 0 0 1 .194.288Z" data-name="Pfad 206"/><path fill="#f70000" d="M16.376 12.487v-.108a1.5 1.5 0 0 0-.053-.4 1.5 1.5 0 0 0-.153-.36 1.6 1.6 0 0 0-.236-.3 1.5 1.5 0 0 0-.3-.237 1.5 1.5 0 0 0-.361-.152 1.5 1.5 0 0 0-.4-.054h-.91v3.02h.91a1.4 1.4 0 0 0 .33-.037L12 17.565l-3.28-3.812V11.9l1.164 1.989h.646v-3.02h-.6v1.989l-1.168-1.989h-.647v2.182L6.6 11.292l1.576-1.561h7.688L17.4 11.3Z" data-name="Pfad 207"/><path fill="#fff800" d="M15.706 12.027a.9.9 0 0 1 .071.352.9.9 0 0 1-.554.834.9.9 0 0 1-.352.071h-.3v-1.811h.3a.9.9 0 0 1 .352.072.9.9 0 0 1 .289.194.9.9 0 0 1 .194.288Z" data-name="Pfad 208"/><path fill="#fff800" d="M16.376 12.487v-.108a1.5 1.5 0 0 0-.053-.4 1.5 1.5 0 0 0-.153-.36 1.6 1.6 0 0 0-.236-.3 1.5 1.5 0 0 0-.3-.237 1.5 1.5 0 0 0-.361-.152 1.5 1.5 0 0 0-.4-.054h-.91v3.02h.91a1.4 1.4 0 0 0 .33-.037L12 17.565l-3.28-3.812V11.9l1.164 1.989h.646v-3.02h-.6v1.989l-1.168-1.989h-.647v2.182L6.6 11.292l1.576-1.561h7.688L17.4 11.3Z" data-name="Pfad 209"/></g><g fill="#f70000" stroke-width=".322" data-name="Gruppe 28"><path d="M13.415 13.881h-2.337l1.288-2.416h-1.288v-.6h2.337l-1.284 2.415h1.284Z" data-name="Pfad 210"/><path d="M16.335 9.008H7.7l-2.2 2.129 6.517 7.6L18.5 11.17Zm-1.112 4.2a.9.9 0 0 1-.352.071h-.3v-1.806h.3a.9.9 0 0 1 .352.072.9.9 0 0 1 .289.194.91.91 0 0 1 .194.993.9.9 0 0 1-.483.481Zm1.1-1.236a1.5 1.5 0 0 0-.153-.36 1.6 1.6 0 0 0-.236-.3 1.5 1.5 0 0 0-.3-.237 1.5 1.5 0 0 0-.361-.152 1.5 1.5 0 0 0-.4-.054h-.91v3.02h.91a1.4 1.4 0 0 0 .33-.037L12 17.565l-3.28-3.812V11.9l1.164 1.989h.646v-3.02h-.6v1.989l-1.168-1.989h-.647v2.182L6.6 11.292l1.576-1.561h7.688L17.4 11.3l-1.023 1.187v-.108a1.5 1.5 0 0 0-.05-.402Z" data-name="Pfad 211"/></g></g></g></g></g></svg>