<?xml version="1.0" encoding="UTF-8"?>
<svg version="1.1" xmlns="http://www.w3.org/2000/svg" width="1080" height="1080">
<path d="M0 0 C1.66516128 -0.00067655 3.33032245 -0.00164947 4.9954834 -0.00289917 C8.45777339 -0.00435965 11.9200373 -0.00227539 15.38232422 0.00244141 C19.77239815 0.00813765 24.1624109 0.0048497 28.5524826 -0.00113106 C31.98273156 -0.00478167 35.41296652 -0.00357766 38.84321594 -0.00100327 C40.45998645 -0.00034637 42.07675831 -0.00111791 43.69352722 -0.00348282 C54.22085144 -0.01551043 64.65736147 0.35040372 75.15625 1.1328125 C75.15625 1.7928125 75.15625 2.4528125 75.15625 3.1328125 C75.80207031 3.10960937 76.44789063 3.08640625 77.11328125 3.0625 C86.89162571 2.87522665 96.46203921 3.99708906 106.15625 5.1328125 C106.15625 5.7928125 106.15625 6.4528125 106.15625 7.1328125 C107.23003906 7.19339844 108.30382812 7.25398437 109.41015625 7.31640625 C110.84636315 7.40088901 112.28256058 7.48553304 113.71875 7.5703125 C114.42322266 7.60962891 115.12769531 7.64894531 115.85351562 7.68945312 C120.3361041 7.95799529 124.71918497 8.43897447 129.15625 9.1328125 C129.15625 9.7928125 129.15625 10.4528125 129.15625 11.1328125 C129.88328125 11.17019531 130.6103125 11.20757812 131.359375 11.24609375 C138.93076599 11.74114624 145.84674709 13.16756892 153.15625 15.1328125 C156.15052462 15.82935298 159.15164118 16.48181392 162.15625 17.1328125 C162.15625 17.7928125 162.15625 18.4528125 162.15625 19.1328125 C162.82011719 19.19339844 163.48398437 19.25398438 164.16796875 19.31640625 C172.93832381 20.14862972 172.93832381 20.14862972 177.15625 21.1328125 C177.15625 21.7928125 177.15625 22.4528125 177.15625 23.1328125 C178.39375 23.2771875 179.63125 23.4215625 180.90625 23.5703125 C183.72129499 23.91969752 186.4263997 24.33660616 189.15625 25.1328125 C189.15625 25.7928125 189.15625 26.4528125 189.15625 27.1328125 C190.39375 27.2771875 191.63125 27.4215625 192.90625 27.5703125 C195.72129499 27.91969752 198.4263997 28.33660616 201.15625 29.1328125 C201.15625 29.7928125 201.15625 30.4528125 201.15625 31.1328125 C202.414375 31.2771875 203.6725 31.4215625 204.96875 31.5703125 C207.58292123 31.87029936 209.63064892 32.29094547 212.15625 33.1328125 C212.15625 33.7928125 212.15625 34.4528125 212.15625 35.1328125 C213.105 35.2153125 214.05375 35.2978125 215.03125 35.3828125 C219.27604393 35.97188594 222.99303811 37.53592797 226.921875 39.1953125 C229.25912673 40.20902083 229.25912673 40.20902083 232.15625 41.1328125 C232.15625 41.7928125 232.15625 42.4528125 232.15625 43.1328125 C235.12625 43.7928125 238.09625 44.4528125 241.15625 45.1328125 C241.15625 45.7928125 241.15625 46.4528125 241.15625 47.1328125 C241.95546875 47.21144531 242.7546875 47.29007813 243.578125 47.37109375 C248.22828233 48.36102899 252.1476611 50.24773761 256.40625 52.3203125 C257.25380859 52.72741455 258.10136719 53.1345166 258.97460938 53.55395508 C264.11266892 56.0514035 269.07846979 58.6997391 273.91796875 61.7421875 C278.21351988 64.41097668 282.70236902 66.7413487 287.15625 69.1328125 C288.35167159 69.7771414 289.54697933 70.42168155 290.7421875 71.06640625 C293.87885972 72.75772016 297.01716048 74.44598856 300.15625 76.1328125 C300.15625 76.7928125 300.15625 77.4528125 300.15625 78.1328125 C301.0534375 78.349375 301.0534375 78.349375 301.96875 78.5703125 C303.71775404 79.0200564 305.44302023 79.56173591 307.15625 80.1328125 C307.48625 80.7928125 307.81625 81.4528125 308.15625 82.1328125 C309.97815269 83.22993331 311.83864155 84.26373217 313.71875 85.2578125 C314.73066406 85.79664062 315.74257813 86.33546875 316.78515625 86.890625 C317.56761719 87.30054687 318.35007812 87.71046875 319.15625 88.1328125 C319.15625 88.7928125 319.15625 89.4528125 319.15625 90.1328125 C319.836875 90.3803125 320.5175 90.6278125 321.21875 90.8828125 C330.50760135 94.8355152 330.50760135 94.8355152 332.15625 98.1328125 C334.17294827 99.26631784 334.17294827 99.26631784 336.15625 100.1328125 C336.15625 100.7928125 336.15625 101.4528125 336.15625 102.1328125 C337.125625 102.4215625 338.095 102.7103125 339.09375 103.0078125 C342.15625 104.1328125 342.15625 104.1328125 343.15625 106.1328125 C343.81625 106.4628125 344.47625 106.7928125 345.15625 107.1328125 C347.15625 108.1328125 347.15625 108.1328125 348.15625 110.1328125 C348.81625 110.5246875 349.47625 110.9165625 350.15625 111.3203125 C352.9077143 112.98265551 355.41051183 114.75346872 357.96875 116.6953125 C358.75894531 117.29472656 359.54914062 117.89414063 360.36328125 118.51171875 C360.95496094 119.04667969 361.54664063 119.58164063 362.15625 120.1328125 C362.15625 120.7928125 362.15625 121.4528125 362.15625 122.1328125 C364.63125 123.1228125 364.63125 123.1228125 367.15625 124.1328125 C367.15625 124.7928125 367.15625 125.4528125 367.15625 126.1328125 C367.71828125 126.37515625 368.2803125 126.6175 368.859375 126.8671875 C371.61014663 128.3829188 373.61413803 130.23669492 375.90625 132.3828125 C378.97039874 135.20363178 382.0132286 137.84354727 385.40625 140.2578125 C388.71696241 142.65774659 391.16198091 145.31286393 393.7265625 148.48046875 C395.30235422 150.3918669 395.30235422 150.3918669 398.15625 152.6328125 C401.0612241 155.05362425 403.26064698 157.55062552 405.65625 160.4453125 C407.29957242 162.37836567 407.29957242 162.37836567 410.15625 164.6328125 C413.55819 167.4677625 416.58578243 170.51410461 419.15625 174.1328125 C419.15625 174.7928125 419.15625 175.4528125 419.15625 176.1328125 C419.81625 176.1328125 420.47625 176.1328125 421.15625 176.1328125 C422.8125 177.8125 422.8125 177.8125 424.65625 180.0078125 C426.44558258 182.12316754 428.19644124 184.17300374 430.15625 186.1328125 C430.15625 187.1228125 430.15625 188.1128125 430.15625 189.1328125 C431.47625 189.7928125 432.79625 190.4528125 434.15625 191.1328125 C434.15625 191.7928125 434.15625 192.4528125 434.15625 193.1328125 C435.14625 193.4628125 436.13625 193.7928125 437.15625 194.1328125 C437.48625 195.1228125 437.81625 196.1128125 438.15625 197.1328125 C439.80113294 198.82098183 441.46962542 200.48634565 443.15625 202.1328125 C446.15625 205.75350216 446.15625 205.75350216 446.15625 208.1328125 C446.81625 208.1328125 447.47625 208.1328125 448.15625 208.1328125 C448.445 208.7721875 448.73375 209.4115625 449.03125 210.0703125 C449.98448451 212.28487329 449.98448451 212.28487329 452.15625 213.1328125 C453.18236949 214.78352646 454.17933143 216.45251256 455.15625 218.1328125 C455.713125 218.8546875 456.27 219.5765625 456.84375 220.3203125 C458.15625 222.1328125 458.15625 222.1328125 458.15625 224.1328125 C458.81625 224.1328125 459.47625 224.1328125 460.15625 224.1328125 C460.81625 226.1128125 461.47625 228.0928125 462.15625 230.1328125 C462.81625 230.1328125 463.47625 230.1328125 464.15625 230.1328125 C464.424375 231.1021875 464.6925 232.0715625 464.96875 233.0703125 C465.360625 234.0809375 465.7525 235.0915625 466.15625 236.1328125 C467.14625 236.4628125 468.13625 236.7928125 469.15625 237.1328125 C470.54296875 239.12890625 470.54296875 239.12890625 471.84375 241.5703125 C472.49923828 242.77494141 472.49923828 242.77494141 473.16796875 244.00390625 C474.15625 246.1328125 474.15625 246.1328125 474.15625 248.1328125 C474.81625 248.1328125 475.47625 248.1328125 476.15625 248.1328125 C476.81625 250.1128125 477.47625 252.0928125 478.15625 254.1328125 C478.81625 254.1328125 479.47625 254.1328125 480.15625 254.1328125 C481.6168785 256.78020166 482.15625 258.02729584 482.15625 261.1328125 C482.81625 261.1328125 483.47625 261.1328125 484.15625 261.1328125 C485.6168785 263.78020166 486.15625 265.02729584 486.15625 268.1328125 C486.81625 268.1328125 487.47625 268.1328125 488.15625 268.1328125 C488.59195313 268.94363281 489.02765625 269.75445312 489.4765625 270.58984375 C490.07210937 271.69714844 490.66765625 272.80445313 491.28125 273.9453125 C491.59747314 274.5333667 491.91369629 275.1214209 492.23950195 275.72729492 C494.25754399 279.47595323 496.29445896 283.21361116 498.34375 286.9453125 C505.15625 299.45620392 505.15625 299.45620392 505.15625 303.1328125 C505.81625 303.1328125 506.47625 303.1328125 507.15625 303.1328125 C507.59195312 304.20917969 508.02765625 305.28554688 508.4765625 306.39453125 C511.27652563 313.27256392 514.09249638 320.11064342 517.28125 326.8203125 C525.15625 343.60761089 525.15625 343.60761089 525.15625 350.1328125 C525.81625 350.1328125 526.47625 350.1328125 527.15625 350.1328125 C528.29389351 354.39897566 529.15625 357.69767561 529.15625 362.1328125 C529.81625 362.1328125 530.47625 362.1328125 531.15625 362.1328125 C532.29389351 366.39897566 533.15625 369.69767561 533.15625 374.1328125 C533.81625 374.1328125 534.47625 374.1328125 535.15625 374.1328125 C537.44196429 382.56138393 537.44196429 382.56138393 537.15625 387.1328125 C537.81625 387.1328125 538.47625 387.1328125 539.15625 387.1328125 C539.34960938 388.08542969 539.54296875 389.03804688 539.7421875 390.01953125 C540.00257812 391.27378906 540.26296875 392.52804687 540.53125 393.8203125 C540.78648438 395.06167969 541.04171875 396.30304688 541.3046875 397.58203125 C542.03097852 401.02023556 542.03097852 401.02023556 543.21875 403.6953125 C544.3557594 406.65153694 544.57326854 409.29092704 544.78125 412.4453125 C544.89339844 414.04826172 544.89339844 414.04826172 545.0078125 415.68359375 C545.05679687 416.49183594 545.10578125 417.30007813 545.15625 418.1328125 C545.81625 418.1328125 546.47625 418.1328125 547.15625 418.1328125 C548.32918889 424.5106677 549.45155838 430.63602812 549.15625 437.1328125 C549.81625 437.1328125 550.47625 437.1328125 551.15625 437.1328125 C551.24189209 437.85460693 551.32753418 438.57640137 551.41577148 439.32006836 C551.80398087 442.5706994 552.19877524 445.82049688 552.59375 449.0703125 C552.72845703 450.20662109 552.86316406 451.34292969 553.00195312 452.51367188 C553.13408203 453.59326172 553.26621094 454.67285156 553.40234375 455.78515625 C553.52279053 456.78538818 553.6432373 457.78562012 553.76733398 458.81616211 C553.91843286 461.08842151 553.91843286 461.08842151 555.15625 462.1328125 C555.68341042 465.2758495 555.92117478 468.46079312 556.21875 471.6328125 C556.35289307 473.0398645 556.35289307 473.0398645 556.48974609 474.4753418 C557.25041864 483.04486138 557.35901488 491.53783457 557.15625 500.1328125 C557.81625 500.1328125 558.47625 500.1328125 559.15625 500.1328125 C559.15625 525.5428125 559.15625 550.9528125 559.15625 577.1328125 C558.49625 577.1328125 557.83625 577.1328125 557.15625 577.1328125 C557.17945313 578.03257812 557.20265625 578.93234375 557.2265625 579.859375 C557.34527378 588.32179355 556.982209 596.63924904 556.21875 605.0703125 C556.08847412 606.53621826 556.08847412 606.53621826 555.95556641 608.03173828 C555.28682357 615.00223893 555.28682357 615.00223893 554.15625 616.1328125 C553.85820916 617.90814805 553.61756443 619.69320136 553.40234375 621.48046875 C553.20415039 623.09985352 553.20415039 623.09985352 553.00195312 624.75195312 C552.79989258 626.45641602 552.79989258 626.45641602 552.59375 628.1953125 C552.45517578 629.33548828 552.31660156 630.47566406 552.17382812 631.65039062 C551.83079899 634.47742386 551.49178857 637.30488203 551.15625 640.1328125 C550.49625 640.1328125 549.83625 640.1328125 549.15625 640.1328125 C549.06537109 641.43605469 549.06537109 641.43605469 548.97265625 642.765625 C548.88886719 643.91804687 548.80507812 645.07046875 548.71875 646.2578125 C548.63753906 647.39476562 548.55632812 648.53171875 548.47265625 649.703125 C548.17894035 652.8868603 547.72500687 655.98792157 547.15625 659.1328125 C546.49625 659.1328125 545.83625 659.1328125 545.15625 659.1328125 C545.10017578 660.27556641 545.10017578 660.27556641 545.04296875 661.44140625 C544.67003402 667.29867523 543.9786901 672.39179605 541.921875 677.88671875 C540.56521217 681.86672451 539.88963548 685.99996961 539.15625 690.1328125 C538.49625 690.1328125 537.83625 690.1328125 537.15625 690.1328125 C537.06537109 691.03773438 537.06537109 691.03773438 536.97265625 691.9609375 C536.84697266 693.15976563 536.84697266 693.15976563 536.71875 694.3828125 C536.63753906 695.17171875 536.55632812 695.960625 536.47265625 696.7734375 C536.17990007 698.95645889 535.73560581 701.0101307 535.15625 703.1328125 C534.49625 703.1328125 533.83625 703.1328125 533.15625 703.1328125 C533.011875 704.3703125 532.8675 705.6078125 532.71875 706.8828125 C532.36936498 709.69785749 531.95245634 712.4029622 531.15625 715.1328125 C530.49625 715.1328125 529.83625 715.1328125 529.15625 715.1328125 C529.07375 716.2259375 528.99125 717.3190625 528.90625 718.4453125 C528.20494216 723.99733293 526.18705901 728.94890529 524.15625 734.1328125 C523.7025 735.31875 523.24875 736.5046875 522.78125 737.7265625 C521.58046982 740.86496523 520.37152248 743.99999943 519.15625 747.1328125 C518.49625 747.1328125 517.83625 747.1328125 517.15625 747.1328125 C517.05828125 747.67808594 516.9603125 748.22335937 516.859375 748.78515625 C515.69625257 754.65090297 513.77085097 759.76399594 511.15625 765.1328125 C510.49625 765.1328125 509.83625 765.1328125 509.15625 765.1328125 C509.06601563 765.96554687 508.97578125 766.79828125 508.8828125 767.65625 C508.03380372 771.71871138 506.42747317 775.10640024 504.53125 778.7578125 C504.17732178 779.45350342 503.82339355 780.14919434 503.45874023 780.8659668 C500.66891497 786.29079975 497.66379637 791.55884641 494.50390625 796.77734375 C493.03754366 799.16119598 493.03754366 799.16119598 492.15625 802.1328125 C491.49625 802.1328125 490.83625 802.1328125 490.15625 802.1328125 C490.011875 802.7309375 489.8675 803.3290625 489.71875 803.9453125 C489.2690061 805.69431654 488.72732659 807.41958273 488.15625 809.1328125 C487.49625 809.1328125 486.83625 809.1328125 486.15625 809.1328125 C486.011875 809.9165625 485.8675 810.7003125 485.71875 811.5078125 C485.15625 814.1328125 485.15625 814.1328125 484.15625 816.1328125 C483.49625 816.1328125 482.83625 816.1328125 482.15625 816.1328125 C481.49625 818.1128125 480.83625 820.0928125 480.15625 822.1328125 C479.49625 822.1328125 478.83625 822.1328125 478.15625 822.1328125 C478.011875 822.7309375 477.8675 823.3290625 477.71875 823.9453125 C477.2690061 825.69431654 476.72732659 827.41958273 476.15625 829.1328125 C475.49625 829.1328125 474.83625 829.1328125 474.15625 829.1328125 C473.90875 829.8134375 473.66125 830.4940625 473.40625 831.1953125 C471.91427092 834.70146333 470.08789489 837.84901618 468.15625 841.1328125 C467.49625 841.1328125 466.83625 841.1328125 466.15625 841.1328125 C465.49625 842.7828125 464.83625 844.4328125 464.15625 846.1328125 C463.49625 846.1328125 462.83625 846.1328125 462.15625 846.1328125 C461.98416016 846.99132812 461.98416016 846.99132812 461.80859375 847.8671875 C461.09442644 850.34752906 460.08317128 852.19649947 458.71875 854.3828125 C458.28691406 855.08921875 457.85507812 855.795625 457.41015625 856.5234375 C456.78947266 857.32007813 456.78947266 857.32007813 456.15625 858.1328125 C455.49625 858.1328125 454.83625 858.1328125 454.15625 858.1328125 C453.888125 859.0815625 453.62 860.0303125 453.34375 861.0078125 C452.15625 864.1328125 452.15625 864.1328125 449.15625 866.1328125 C448.82625 867.1228125 448.49625 868.1128125 448.15625 869.1328125 C446.48958333 870.79947917 444.82291667 872.46614583 443.15625 874.1328125 C441.60681337 876.1011257 440.12573453 878.11176006 438.640625 880.12890625 C436.5794718 882.91146307 434.47397396 885.55756366 432.15625 888.1328125 C431.49625 888.1328125 430.83625 888.1328125 430.15625 888.1328125 C429.49625 889.7828125 428.83625 891.4328125 428.15625 893.1328125 C427.49625 893.1328125 426.83625 893.1328125 426.15625 893.1328125 C425.49625 894.4528125 424.83625 895.7728125 424.15625 897.1328125 C423.49625 897.1328125 422.83625 897.1328125 422.15625 897.1328125 C421.82625 898.4528125 421.49625 899.7728125 421.15625 901.1328125 C420.49625 901.1328125 419.83625 901.1328125 419.15625 901.1328125 C418.49625 902.4528125 417.83625 903.7728125 417.15625 905.1328125 C416.49625 905.1328125 415.83625 905.1328125 415.15625 905.1328125 C414.49625 906.4528125 413.83625 907.7728125 413.15625 909.1328125 C412.49625 909.1328125 411.83625 909.1328125 411.15625 909.1328125 C410.49625 910.4528125 409.83625 911.7728125 409.15625 913.1328125 C408.49625 913.1328125 407.83625 913.1328125 407.15625 913.1328125 C406.49625 914.4528125 405.83625 915.7728125 405.15625 917.1328125 C404.49625 917.1328125 403.83625 917.1328125 403.15625 917.1328125 C402.49625 918.4528125 401.83625 919.7728125 401.15625 921.1328125 C400.49625 921.1328125 399.83625 921.1328125 399.15625 921.1328125 C398.49625 922.4528125 397.83625 923.7728125 397.15625 925.1328125 C396.49625 925.1328125 395.83625 925.1328125 395.15625 925.1328125 C394.49625 926.4528125 393.83625 927.7728125 393.15625 929.1328125 C392.49625 929.1328125 391.83625 929.1328125 391.15625 929.1328125 C390.49625 930.4528125 389.83625 931.7728125 389.15625 933.1328125 C388.49625 933.1328125 387.83625 933.1328125 387.15625 933.1328125 C386.49625 934.4528125 385.83625 935.7728125 385.15625 937.1328125 C384.49625 937.1328125 383.83625 937.1328125 383.15625 937.1328125 C383.15625 937.7928125 383.15625 938.4528125 383.15625 939.1328125 C382.228125 939.2565625 382.228125 939.2565625 381.28125 939.3828125 C378.97187433 939.94539709 378.97187433 939.94539709 377.90625 942.1953125 C377.65875 942.8346875 377.41125 943.4740625 377.15625 944.1328125 C376.49625 944.1328125 375.83625 944.1328125 375.15625 944.1328125 C374.82625 945.1228125 374.49625 946.1128125 374.15625 947.1328125 C372.82291667 947.46614583 371.48958333 947.79947917 370.15625 948.1328125 C369.82625 949.1228125 369.49625 950.1128125 369.15625 951.1328125 C366.984375 953.03125 366.984375 953.03125 364.15625 955.1328125 C363.14046875 955.88820313 362.1246875 956.64359375 361.078125 957.421875 C358.95430047 958.98597238 356.8292891 960.54845941 354.703125 962.109375 C352.10690438 963.87973632 352.10690438 963.87973632 351.15625 966.1328125 C349.82291667 966.79947917 348.48958333 967.46614583 347.15625 968.1328125 C346.82625 968.7928125 346.49625 969.4528125 346.15625 970.1328125 C344.17736039 970.85975154 342.17670442 971.53097501 340.15625 972.1328125 C340.15625 972.7928125 340.15625 973.4528125 340.15625 974.1328125 C338.29296875 975.640625 338.29296875 975.640625 335.84375 977.2578125 C335.04324219 977.79664063 334.24273438 978.33546875 333.41796875 978.890625 C331.15625 980.1328125 331.15625 980.1328125 328.15625 980.1328125 C327.82625 981.1228125 327.49625 982.1128125 327.15625 983.1328125 C325.09375 983.8203125 325.09375 983.8203125 323.15625 984.1328125 C323.15625 984.7928125 323.15625 985.4528125 323.15625 986.1328125 C321.0390625 987.640625 321.0390625 987.640625 318.28125 989.2578125 C317.37632812 989.79664063 316.47140625 990.33546875 315.5390625 990.890625 C313.15625 992.1328125 313.15625 992.1328125 311.15625 992.1328125 C311.15625 992.7928125 311.15625 993.4528125 311.15625 994.1328125 C308.50886084 995.593441 307.26176666 996.1328125 304.15625 996.1328125 C304.15625 996.7928125 304.15625 997.4528125 304.15625 998.1328125 C302.17625 998.7928125 300.19625 999.4528125 298.15625 1000.1328125 C298.15625 1000.7928125 298.15625 1001.4528125 298.15625 1002.1328125 C295.50886084 1003.593441 294.26176666 1004.1328125 291.15625 1004.1328125 C291.15625 1004.7928125 291.15625 1005.4528125 291.15625 1006.1328125 C288.50886084 1007.593441 287.26176666 1008.1328125 284.15625 1008.1328125 C284.15625 1008.7928125 284.15625 1009.4528125 284.15625 1010.1328125 C283.18751953 1010.60847656 283.18751953 1010.60847656 282.19921875 1011.09375 C277.20444695 1013.56722112 272.24320197 1016.07258373 267.33984375 1018.72265625 C266.50493408 1019.17141113 265.67002441 1019.62016602 264.80981445 1020.08251953 C263.14694921 1020.97873598 261.48779352 1021.88187575 259.83276367 1022.79248047 C255.591891 1025.07132885 252.04172436 1026.7165261 247.15625 1027.1328125 C247.15625 1027.7928125 247.15625 1028.4528125 247.15625 1029.1328125 C244.72120491 1030.139178 242.28354136 1031.13807663 239.84375 1032.1328125 C239.15345703 1032.41898438 238.46316406 1032.70515625 237.75195312 1033 C234.74079326 1034.22191994 232.43738016 1035.1328125 229.15625 1035.1328125 C229.15625 1035.7928125 229.15625 1036.4528125 229.15625 1037.1328125 C228.05667969 1037.51953125 226.95710937 1037.90625 225.82421875 1038.3046875 C224.75723755 1038.68052979 224.75723755 1038.68052979 223.66870117 1039.06396484 C222.11311283 1039.61184296 220.557284 1040.1590387 219.0012207 1040.70556641 C213.75667927 1042.55221285 208.54260833 1044.46555324 203.35546875 1046.46875 C201.15625 1047.1328125 201.15625 1047.1328125 197.15625 1047.1328125 C197.15625 1047.7928125 197.15625 1048.4528125 197.15625 1049.1328125 C192.89008684 1050.27045601 189.59138689 1051.1328125 185.15625 1051.1328125 C185.15625 1051.7928125 185.15625 1052.4528125 185.15625 1053.1328125 C176.72767857 1055.41852679 176.72767857 1055.41852679 172.15625 1055.1328125 C172.15625 1055.7928125 172.15625 1056.4528125 172.15625 1057.1328125 C171.20363281 1057.32617188 170.25101563 1057.51953125 169.26953125 1057.71875 C168.01527344 1057.97914062 166.76101563 1058.23953125 165.46875 1058.5078125 C164.22738281 1058.76304688 162.98601563 1059.01828125 161.70703125 1059.28125 C158.26882694 1060.00754102 158.26882694 1060.00754102 155.59375 1061.1953125 C152.63752556 1062.3323219 149.99813546 1062.54983104 146.84375 1062.7578125 C145.77511719 1062.83257813 144.70648437 1062.90734375 143.60546875 1062.984375 C142.79722656 1063.03335937 141.98898437 1063.08234375 141.15625 1063.1328125 C141.15625 1063.7928125 141.15625 1064.4528125 141.15625 1065.1328125 C134.7783948 1066.30575139 128.65303438 1067.42812088 122.15625 1067.1328125 C122.15625 1067.7928125 122.15625 1068.4528125 122.15625 1069.1328125 C121.07355835 1069.26127563 121.07355835 1069.26127563 119.96899414 1069.39233398 C116.7183631 1069.78054337 113.46856562 1070.17533774 110.21875 1070.5703125 C108.51428711 1070.77237305 108.51428711 1070.77237305 106.77539062 1070.97851562 C105.69580078 1071.11064453 104.61621094 1071.24277344 103.50390625 1071.37890625 C102.50367432 1071.49935303 101.50344238 1071.6197998 100.47290039 1071.74389648 C98.20064099 1071.89499536 98.20064099 1071.89499536 97.15625 1073.1328125 C93.82445253 1073.65961483 90.452792 1073.89679253 87.09375 1074.1953125 C86.10616699 1074.28474121 85.11858398 1074.37416992 84.10107422 1074.46630859 C75.76069221 1075.17449241 67.52238127 1075.34855801 59.15625 1075.1328125 C59.15625 1075.7928125 59.15625 1076.4528125 59.15625 1077.1328125 C33.74625 1077.1328125 8.33625 1077.1328125 -17.84375 1077.1328125 C-17.84375 1076.4728125 -17.84375 1075.8128125 -17.84375 1075.1328125 C-19.31908203 1075.16761719 -19.31908203 1075.16761719 -20.82421875 1075.203125 C-29.38803519 1075.33798002 -37.81486752 1075.0084242 -46.34375 1074.1953125 C-47.73243286 1074.06503662 -47.73243286 1074.06503662 -49.14916992 1073.93212891 C-55.7108922 1073.2656703 -55.7108922 1073.2656703 -56.84375 1072.1328125 C-58.61908555 1071.83477166 -60.40413886 1071.59412693 -62.19140625 1071.37890625 C-63.81079102 1071.18071289 -63.81079102 1071.18071289 -65.46289062 1070.97851562 C-66.59919922 1070.84380859 -67.73550781 1070.70910156 -68.90625 1070.5703125 C-70.04642578 1070.43173828 -71.18660156 1070.29316406 -72.36132812 1070.15039062 C-75.18836136 1069.80736149 -78.01581953 1069.46835107 -80.84375 1069.1328125 C-80.84375 1068.4728125 -80.84375 1067.8128125 -80.84375 1067.1328125 C-81.79636719 1067.07222656 -82.74898438 1067.01164062 -83.73046875 1066.94921875 C-85.61185547 1066.82353516 -85.61185547 1066.82353516 -87.53125 1066.6953125 C-88.77261719 1066.61410156 -90.01398438 1066.53289062 -91.29296875 1066.44921875 C-94.22555337 1066.18789933 -96.97816617 1065.78482871 -99.84375 1065.1328125 C-99.84375 1064.4728125 -99.84375 1063.8128125 -99.84375 1063.1328125 C-100.96910156 1063.07673828 -100.96910156 1063.07673828 -102.1171875 1063.01953125 C-108.21130257 1062.62809565 -113.64534064 1061.81480279 -119.44140625 1059.8984375 C-123.18785966 1058.70444584 -126.99735864 1057.93931391 -130.84375 1057.1328125 C-130.84375 1056.4728125 -130.84375 1055.8128125 -130.84375 1055.1328125 C-131.74867188 1055.04193359 -131.74867188 1055.04193359 -132.671875 1054.94921875 C-133.87070312 1054.82353516 -133.87070312 1054.82353516 -135.09375 1054.6953125 C-135.88265625 1054.61410156 -136.6715625 1054.53289062 -137.484375 1054.44921875 C-139.66739639 1054.15646257 -141.7210682 1053.71216831 -143.84375 1053.1328125 C-143.84375 1052.4728125 -143.84375 1051.8128125 -143.84375 1051.1328125 C-145.08125 1050.9884375 -146.31875 1050.8440625 -147.59375 1050.6953125 C-150.40879499 1050.34592748 -153.1138997 1049.92901884 -155.84375 1049.1328125 C-155.84375 1048.4728125 -155.84375 1047.8128125 -155.84375 1047.1328125 C-157.08125 1046.9884375 -158.31875 1046.8440625 -159.59375 1046.6953125 C-162.40879499 1046.34592748 -165.1138997 1045.92901884 -167.84375 1045.1328125 C-167.84375 1044.4728125 -167.84375 1043.8128125 -167.84375 1043.1328125 C-168.43800781 1043.04644531 -169.03226562 1042.96007813 -169.64453125 1042.87109375 C-175.47107459 1041.88339045 -180.33940939 1040.1794407 -185.65234375 1037.625 C-189.54060658 1035.80698727 -193.49328701 1034.18642463 -197.46875 1032.5703125 C-203.30751828 1030.18803337 -209.10198193 1027.74270708 -214.84375 1025.1328125 C-214.84375 1024.4728125 -214.84375 1023.8128125 -214.84375 1023.1328125 C-216.1740625 1022.978125 -216.1740625 1022.978125 -217.53125 1022.8203125 C-220.98874289 1022.10271964 -222.87656236 1020.98786084 -225.84375 1019.1328125 C-227.50499176 1018.20635075 -229.17194435 1017.29007289 -230.84375 1016.3828125 C-231.78863281 1015.86976563 -232.73351562 1015.35671875 -233.70703125 1014.828125 C-239.08231107 1011.92293018 -244.4614779 1009.02503503 -249.84375 1006.1328125 C-249.84375 1005.4728125 -249.84375 1004.8128125 -249.84375 1004.1328125 C-250.6275 1003.9884375 -251.41125 1003.8440625 -252.21875 1003.6953125 C-254.84375 1003.1328125 -254.84375 1003.1328125 -256.84375 1002.1328125 C-256.84375 1001.4728125 -256.84375 1000.8128125 -256.84375 1000.1328125 C-257.6275 999.9884375 -258.41125 999.8440625 -259.21875 999.6953125 C-261.84375 999.1328125 -261.84375 999.1328125 -263.84375 998.1328125 C-263.84375 997.4728125 -263.84375 996.8128125 -263.84375 996.1328125 C-265.82375 995.4728125 -267.80375 994.8128125 -269.84375 994.1328125 C-269.84375 993.4728125 -269.84375 992.8128125 -269.84375 992.1328125 C-270.71 991.8853125 -271.57625 991.6378125 -272.46875 991.3828125 C-276.05435064 990.05481226 -278.80702987 988.44650402 -281.84375 986.1328125 C-281.84375 985.4728125 -281.84375 984.8128125 -281.84375 984.1328125 C-283.82375 983.4728125 -285.80375 982.8128125 -287.84375 982.1328125 C-287.84375 981.4728125 -287.84375 980.8128125 -287.84375 980.1328125 C-289.82375 979.4728125 -291.80375 978.8128125 -293.84375 978.1328125 C-293.84375 977.4728125 -293.84375 976.8128125 -293.84375 976.1328125 C-294.606875 975.8646875 -295.37 975.5965625 -296.15625 975.3203125 C-298.76688504 974.16677609 -299.91760089 973.14651385 -301.84375 971.1328125 C-302.83375 970.8028125 -303.82375 970.4728125 -304.84375 970.1328125 C-305.86394573 969.1534246 -306.86524805 968.15385801 -307.84375 967.1328125 C-308.50375 966.8028125 -309.16375 966.4728125 -309.84375 966.1328125 C-309.84375 965.4728125 -309.84375 964.8128125 -309.84375 964.1328125 C-310.565625 963.8853125 -311.2875 963.6378125 -312.03125 963.3828125 C-315.70772353 961.74882427 -319.00476709 959.81077831 -320.84375 956.1328125 C-322.86044827 954.99930716 -322.86044827 954.99930716 -324.84375 954.1328125 C-324.84375 953.4728125 -324.84375 952.8128125 -324.84375 952.1328125 C-326.16375 951.4728125 -327.48375 950.8128125 -328.84375 950.1328125 C-328.84375 949.4728125 -328.84375 948.8128125 -328.84375 948.1328125 C-329.42898438 948.04 -330.01421875 947.9471875 -330.6171875 947.8515625 C-333.3548653 946.96782089 -334.52053649 945.72692746 -336.46875 943.6328125 C-338.87985916 941.01474604 -338.87985916 941.01474604 -341.84375 939.1328125 C-341.84375 938.4728125 -341.84375 937.8128125 -341.84375 937.1328125 C-342.545 936.9471875 -343.24625 936.7615625 -343.96875 936.5703125 C-347.38180458 934.86378521 -348.94780457 932.85412588 -351.30859375 929.92578125 C-352.9648371 927.89026667 -352.9648371 927.89026667 -355.84375 925.6328125 C-358.1958648 923.67271683 -359.92130157 921.95577102 -361.84375 919.6328125 C-363.747439 917.33355176 -365.45058097 915.62927191 -367.78125 913.6953125 C-370.83618022 911.1391464 -373.27396182 908.47001377 -375.84765625 905.44921875 C-378.98652124 901.80666114 -382.25840413 898.28631486 -385.51171875 894.74609375 C-391.84375 887.65040044 -391.84375 887.65040044 -391.84375 885.1328125 C-392.83375 884.8028125 -393.82375 884.4728125 -394.84375 884.1328125 C-395.17708333 882.79947917 -395.51041667 881.46614583 -395.84375 880.1328125 C-396.83375 879.8028125 -397.82375 879.4728125 -398.84375 879.1328125 C-400.8515625 876.953125 -400.8515625 876.953125 -402.96875 874.2578125 C-404.02449219 872.93136719 -404.02449219 872.93136719 -405.1015625 871.578125 C-406.84375 869.1328125 -406.84375 869.1328125 -407.84375 866.1328125 C-408.83375 865.4728125 -409.82375 864.8128125 -410.84375 864.1328125 C-411.33875 862.6478125 -411.33875 862.6478125 -411.84375 861.1328125 C-412.58625 860.42125 -412.58625 860.42125 -413.34375 859.6953125 C-414.84375 858.1328125 -414.84375 858.1328125 -415.34375 856.0078125 C-415.50875 855.3890625 -415.67375 854.7703125 -415.84375 854.1328125 C-416.83375 853.8028125 -417.82375 853.4728125 -418.84375 853.1328125 C-419.33875 851.6478125 -419.33875 851.6478125 -419.84375 850.1328125 C-420.50375 849.8028125 -421.16375 849.4728125 -421.84375 849.1328125 C-424.24557199 845.22985176 -426.2739504 841.4497614 -427.84375 837.1328125 C-428.50375 837.1328125 -429.16375 837.1328125 -429.84375 837.1328125 C-430.25367188 836.35035156 -430.66359375 835.56789063 -431.0859375 834.76171875 C-431.62476563 833.74980469 -432.16359375 832.73789062 -432.71875 831.6953125 C-433.25242187 830.68597656 -433.78609375 829.67664063 -434.3359375 828.63671875 C-435.60029114 826.03140808 -435.60029114 826.03140808 -437.84375 825.1328125 C-439.41923683 822.50700112 -439.84375 821.26181463 -439.84375 818.1328125 C-440.50375 818.1328125 -441.16375 818.1328125 -441.84375 818.1328125 C-443.78395625 814.75936147 -445.72042709 811.38378048 -447.65625 808.0078125 C-448.20345703 807.05648437 -448.75066406 806.10515625 -449.31445312 805.125 C-451.95569402 800.51483407 -454.50387476 795.90483975 -456.84375 791.1328125 C-457.53421453 789.8359489 -458.22997461 788.54189718 -458.9296875 787.25 C-470.84375 765.2106646 -470.84375 765.2106646 -470.84375 759.1328125 C-471.50375 759.1328125 -472.16375 759.1328125 -472.84375 759.1328125 C-473.50375 756.1628125 -474.16375 753.1928125 -474.84375 750.1328125 C-475.50375 750.1328125 -476.16375 750.1328125 -476.84375 750.1328125 C-477.02550781 749.56433594 -477.20726562 748.99585938 -477.39453125 748.41015625 C-478.62492943 744.63062544 -479.87948468 740.93846512 -481.53125 737.3203125 C-482.84375 734.1328125 -482.84375 734.1328125 -482.84375 730.1328125 C-483.50375 730.1328125 -484.16375 730.1328125 -484.84375 730.1328125 C-486.03662411 726.25597163 -486.84375 723.21659327 -486.84375 719.1328125 C-487.50375 719.1328125 -488.16375 719.1328125 -488.84375 719.1328125 C-489.98139351 714.86664934 -490.84375 711.56794939 -490.84375 707.1328125 C-491.50375 707.1328125 -492.16375 707.1328125 -492.84375 707.1328125 C-493.98139351 702.86664934 -494.84375 699.56794939 -494.84375 695.1328125 C-495.50375 695.1328125 -496.16375 695.1328125 -496.84375 695.1328125 C-498.10680335 690.05804456 -499.11411084 685.40484896 -498.84375 680.1328125 C-499.50375 680.1328125 -500.16375 680.1328125 -500.84375 680.1328125 C-501.13378906 678.61300781 -501.13378906 678.61300781 -501.4296875 677.0625 C-501.69249923 675.71089682 -501.95553183 674.35933658 -502.21875 673.0078125 C-502.34507812 672.34265625 -502.47140625 671.6775 -502.6015625 670.9921875 C-503.20322245 667.92372176 -503.88986549 664.99853504 -504.90625 662.0390625 C-505.92342625 658.88581612 -506.24871838 656.05828677 -506.46875 652.7578125 C-506.54351562 651.69820312 -506.61828125 650.63859375 -506.6953125 649.546875 C-506.76878906 648.35191406 -506.76878906 648.35191406 -506.84375 647.1328125 C-507.50375 647.1328125 -508.16375 647.1328125 -508.84375 647.1328125 C-511.13987756 631.38793778 -511.13987756 631.38793778 -510.84375 624.1328125 C-511.50375 624.1328125 -512.16375 624.1328125 -512.84375 624.1328125 C-514.05687497 613.77792436 -515.21909623 603.57994925 -514.84375 593.1328125 C-515.50375 593.1328125 -516.16375 593.1328125 -516.84375 593.1328125 C-517.68555822 581.8368622 -517.99312807 570.61410473 -517.9765625 559.2890625 C-517.97723905 557.62390122 -517.97821197 555.95874005 -517.97946167 554.2935791 C-517.98092215 550.83128911 -517.97883789 547.3690252 -517.97412109 543.90673828 C-517.96842485 539.51666435 -517.9717128 535.1266516 -517.97769356 530.7365799 C-517.98134417 527.30633094 -517.98014016 523.87609598 -517.97756577 520.44584656 C-517.97690887 518.82907605 -517.97768041 517.21230419 -517.98004532 515.59553528 C-517.9920327 505.10341896 -517.94001004 494.57835161 -516.84375 484.1328125 C-516.51375 483.8028125 -516.18375 483.4728125 -515.84375 483.1328125 C-515.54346594 480.91885372 -515.30386459 478.69661198 -515.08984375 476.47265625 C-515.02467056 475.80818985 -514.95949738 475.14372345 -514.89234924 474.4591217 C-514.68447803 472.32989955 -514.48280126 470.2001413 -514.28125 468.0703125 C-514.14168262 466.62951785 -514.0017139 465.18876201 -513.86132812 463.74804688 C-513.51747157 460.21007456 -513.17916923 456.67159581 -512.84375 453.1328125 C-512.18375 453.1328125 -511.52375 453.1328125 -510.84375 453.1328125 C-510.78316406 452.05902344 -510.72257812 450.98523438 -510.66015625 449.87890625 C-510.57567349 448.44269935 -510.49102946 447.00650192 -510.40625 445.5703125 C-510.36693359 444.86583984 -510.32761719 444.16136719 -510.28710938 443.43554688 C-510.01856721 438.9529584 -509.53758803 434.56987753 -508.84375 430.1328125 C-508.18375 430.1328125 -507.52375 430.1328125 -506.84375 430.1328125 C-506.885 429.2046875 -506.92625 428.2765625 -506.96875 427.3203125 C-506.96875 420.01362782 -505.18290633 413.00408421 -502.84375 406.1328125 C-502.11019986 402.81173959 -501.4649215 399.47656547 -500.84375 396.1328125 C-500.18375 396.1328125 -499.52375 396.1328125 -498.84375 396.1328125 C-498.75287109 395.24529297 -498.75287109 395.24529297 -498.66015625 394.33984375 C-498.22362629 390.22303042 -497.75703654 386.17736717 -496.84375 382.1328125 C-496.18375 382.1328125 -495.52375 382.1328125 -494.84375 382.1328125 C-494.699375 380.8953125 -494.555 379.6578125 -494.40625 378.3828125 C-494.05686498 375.56776751 -493.63995634 372.8626628 -492.84375 370.1328125 C-492.18375 370.1328125 -491.52375 370.1328125 -490.84375 370.1328125 C-490.699375 368.8953125 -490.555 367.6578125 -490.40625 366.3828125 C-490.05686498 363.56776751 -489.63995634 360.8626628 -488.84375 358.1328125 C-488.18375 358.1328125 -487.52375 358.1328125 -486.84375 358.1328125 C-486.699375 356.8746875 -486.555 355.6165625 -486.40625 354.3203125 C-486.10626314 351.70614127 -485.68561703 349.65841358 -484.84375 347.1328125 C-484.18375 347.1328125 -483.52375 347.1328125 -482.84375 347.1328125 C-482.699375 346.0603125 -482.555 344.9878125 -482.40625 343.8828125 C-482.00625558 341.21618301 -481.56783076 338.71881521 -480.84375 336.1328125 C-480.18375 336.1328125 -479.52375 336.1328125 -478.84375 336.1328125 C-478.18375 333.1628125 -477.52375 330.1928125 -476.84375 327.1328125 C-476.18375 327.1328125 -475.52375 327.1328125 -474.84375 327.1328125 C-474.76125 326.1428125 -474.67875 325.1528125 -474.59375 324.1328125 C-474.18054358 321.23313104 -473.42051871 319.02371729 -472.0546875 316.4375 C-470.58547941 313.59238774 -469.17452928 310.73713903 -467.8359375 307.828125 C-463.57593613 298.61817854 -459.06239615 289.64770355 -454.03076172 280.83251953 C-453.62873535 280.12724121 -453.22670898 279.42196289 -452.8125 278.6953125 C-452.45607422 278.07785156 -452.09964844 277.46039063 -451.73242188 276.82421875 C-450.69931344 274.96834514 -450.69931344 274.96834514 -449.84375 272.1328125 C-449.18375 272.1328125 -448.52375 272.1328125 -447.84375 272.1328125 C-447.18375 269.8228125 -446.52375 267.5128125 -445.84375 265.1328125 C-445.18375 265.1328125 -444.52375 265.1328125 -443.84375 265.1328125 C-443.18375 262.8228125 -442.52375 260.5128125 -441.84375 258.1328125 C-441.18375 258.1328125 -440.52375 258.1328125 -439.84375 258.1328125 C-439.18375 256.1528125 -438.52375 254.1728125 -437.84375 252.1328125 C-437.18375 252.1328125 -436.52375 252.1328125 -435.84375 252.1328125 C-434.85375 249.1628125 -434.85375 249.1628125 -433.84375 246.1328125 C-433.18375 246.1328125 -432.52375 246.1328125 -431.84375 246.1328125 C-430.85375 243.1628125 -430.85375 243.1628125 -429.84375 240.1328125 C-429.18375 240.1328125 -428.52375 240.1328125 -427.84375 240.1328125 C-427.699375 239.5140625 -427.555 238.8953125 -427.40625 238.2578125 C-426.84375 236.1328125 -426.84375 236.1328125 -425.84375 234.1328125 C-425.18375 234.1328125 -424.52375 234.1328125 -423.84375 234.1328125 C-422.85375 231.1628125 -422.85375 231.1628125 -421.84375 228.1328125 C-421.18375 228.1328125 -420.52375 228.1328125 -419.84375 228.1328125 C-419.555 227.1634375 -419.26625 226.1940625 -418.96875 225.1953125 C-417.84375 222.1328125 -417.84375 222.1328125 -415.84375 221.1328125 C-414.71024466 219.11611423 -414.71024466 219.11611423 -413.84375 217.1328125 C-413.18375 217.1328125 -412.52375 217.1328125 -411.84375 217.1328125 C-411.18375 215.4828125 -410.52375 213.8328125 -409.84375 212.1328125 C-409.18375 212.1328125 -408.52375 212.1328125 -407.84375 212.1328125 C-407.575625 211.2046875 -407.3075 210.2765625 -407.03125 209.3203125 C-405.90914813 206.30835486 -405.1857538 205.16933754 -402.84375 203.1328125 C-402.51375 202.4728125 -402.18375 201.8128125 -401.84375 201.1328125 C-401.18375 201.1328125 -400.52375 201.1328125 -399.84375 201.1328125 C-399.61171875 200.59269531 -399.3796875 200.05257812 -399.140625 199.49609375 C-397.46247332 196.43801614 -395.34816012 193.9811996 -393.09375 191.3203125 C-392.64708984 190.79276367 -392.20042969 190.26521484 -391.74023438 189.72167969 C-390.44299388 188.19071062 -389.14342043 186.66171928 -387.84375 185.1328125 C-386.89242187 183.97458984 -386.89242187 183.97458984 -385.921875 182.79296875 C-384.60714253 181.20162178 -383.23227874 179.66019411 -381.84375 178.1328125 C-381.18375 178.1328125 -380.52375 178.1328125 -379.84375 178.1328125 C-379.8025 177.5759375 -379.76125 177.0190625 -379.71875 176.4453125 C-378.63327138 173.57654758 -376.89743065 172.39521396 -374.51953125 170.55078125 C-372.73550278 169.0412187 -371.3267406 167.43666123 -369.84375 165.6328125 C-367.14227543 162.36853072 -364.10152945 159.84762871 -360.84375 157.1328125 C-359.30087027 155.3970728 -357.82780981 153.61354277 -356.34765625 151.82421875 C-354.10167596 149.29822014 -351.44127432 147.28820502 -348.84375 145.1328125 C-347.9484287 144.06621235 -347.07297836 142.98259885 -346.21875 141.8828125 C-343.80833425 139.09180479 -343.24290841 138.73980507 -339.84375 138.1328125 C-339.51375 137.1428125 -339.18375 136.1528125 -338.84375 135.1328125 C-337.3828125 133.625 -337.3828125 133.625 -335.46875 132.0078125 C-334.75589844 131.40453125 -334.04304687 130.80125 -333.30859375 130.1796875 C-332.49519531 129.50421875 -331.68179688 128.82875 -330.84375 128.1328125 C-329.89628906 127.33359375 -328.94882812 126.534375 -327.97265625 125.7109375 C-320.24593833 119.26687528 -320.24593833 119.26687528 -316.84375 118.1328125 C-316.84375 117.4728125 -316.84375 116.8128125 -316.84375 116.1328125 C-316.245625 115.8646875 -315.6475 115.5965625 -315.03125 115.3203125 C-312.8137787 114.25984522 -312.8137787 114.25984522 -311.34375 112.5703125 C-309.84375 111.1328125 -309.84375 111.1328125 -307.71875 110.6328125 C-307.1 110.4678125 -306.48125 110.3028125 -305.84375 110.1328125 C-305.51375 109.1428125 -305.18375 108.1528125 -304.84375 107.1328125 C-303.51041667 106.79947917 -302.17708333 106.46614583 -300.84375 106.1328125 C-300.51375 105.1428125 -300.18375 104.1528125 -299.84375 103.1328125 C-298.85375 102.8028125 -297.86375 102.4728125 -296.84375 102.1328125 C-296.369375 101.6378125 -295.895 101.1428125 -295.40625 100.6328125 C-293.59181281 98.89095279 -292.28815923 98.55426237 -289.84375 98.1328125 C-289.84375 97.4728125 -289.84375 96.8128125 -289.84375 96.1328125 C-287.86375 95.4728125 -285.88375 94.8128125 -283.84375 94.1328125 C-283.84375 93.4728125 -283.84375 92.8128125 -283.84375 92.1328125 C-280.84375 90.1328125 -280.84375 90.1328125 -277.84375 90.1328125 C-277.84375 89.4728125 -277.84375 88.8128125 -277.84375 88.1328125 C-275.86375 87.4728125 -273.88375 86.8128125 -271.84375 86.1328125 C-271.84375 85.4728125 -271.84375 84.8128125 -271.84375 84.1328125 C-269.86375 83.4728125 -267.88375 82.8128125 -265.84375 82.1328125 C-265.84375 81.4728125 -265.84375 80.8128125 -265.84375 80.1328125 C-263.86375 79.4728125 -261.88375 78.8128125 -259.84375 78.1328125 C-259.84375 77.4728125 -259.84375 76.8128125 -259.84375 76.1328125 C-256.37875 75.1428125 -256.37875 75.1428125 -252.84375 74.1328125 C-252.84375 73.4728125 -252.84375 72.8128125 -252.84375 72.1328125 C-249.37875 71.1428125 -249.37875 71.1428125 -245.84375 70.1328125 C-245.84375 69.4728125 -245.84375 68.8128125 -245.84375 68.1328125 C-244.87501953 67.65714844 -244.87501953 67.65714844 -243.88671875 67.171875 C-238.99244889 64.74817365 -234.12434377 62.29482773 -229.30859375 59.71875 C-220.93789789 55.24261078 -212.61691196 50.97448029 -203.82421875 47.38671875 C-200.77485727 46.15553646 -200.77485727 46.15553646 -197.70703125 44.47265625 C-194.84375 43.1328125 -194.84375 43.1328125 -190.84375 43.1328125 C-190.84375 42.4728125 -190.84375 41.8128125 -190.84375 41.1328125 C-187.87375 40.4728125 -184.90375 39.8128125 -181.84375 39.1328125 C-181.84375 38.4728125 -181.84375 37.8128125 -181.84375 37.1328125 C-177.96690913 35.93993839 -174.92753077 35.1328125 -170.84375 35.1328125 C-170.84375 34.4728125 -170.84375 33.8128125 -170.84375 33.1328125 C-166.96690913 31.93993839 -163.92753077 31.1328125 -159.84375 31.1328125 C-159.84375 30.4728125 -159.84375 29.8128125 -159.84375 29.1328125 C-158.60625 28.8028125 -157.36875 28.4728125 -156.09375 28.1328125 C-155.39765625 27.9471875 -154.7015625 27.7615625 -153.984375 27.5703125 C-151.84375 27.1328125 -151.84375 27.1328125 -147.84375 27.1328125 C-147.84375 26.4728125 -147.84375 25.8128125 -147.84375 25.1328125 C-146.60625 24.8028125 -145.36875 24.4728125 -144.09375 24.1328125 C-143.39765625 23.9471875 -142.7015625 23.7615625 -141.984375 23.5703125 C-139.84375 23.1328125 -139.84375 23.1328125 -135.84375 23.1328125 C-135.84375 22.4728125 -135.84375 21.8128125 -135.84375 21.1328125 C-126.43372722 18.83668494 -126.43372722 18.83668494 -121.84375 19.1328125 C-121.84375 18.4728125 -121.84375 17.8128125 -121.84375 17.1328125 C-120.34134766 16.84277344 -120.34134766 16.84277344 -118.80859375 16.546875 C-117.46611492 16.28401201 -116.12366873 16.02098224 -114.78125 15.7578125 C-114.12447266 15.63148437 -113.46769531 15.50515625 -112.79101562 15.375 C-108.40046805 14.50986747 -104.13795059 13.40674098 -99.84375 12.1328125 C-95.79207075 11.11989269 -92.01586121 11.0510064 -87.84375 11.1328125 C-87.84375 10.4728125 -87.84375 9.8128125 -87.84375 9.1328125 C-72.09887528 6.83668494 -72.09887528 6.83668494 -64.84375 7.1328125 C-64.84375 6.4728125 -64.84375 5.8128125 -64.84375 5.1328125 C-63.94019775 5.04717041 -63.03664551 4.96152832 -62.10571289 4.87329102 C-58.763881 4.55441639 -55.42248236 4.23157656 -52.08129883 3.90600586 C-50.63321093 3.765732 -49.18496738 3.62705564 -47.73657227 3.48999023 C-45.65858974 3.29306887 -43.58122879 3.09046981 -41.50390625 2.88671875 C-39.62650757 2.70604858 -39.62650757 2.70604858 -37.71118164 2.52172852 C-34.95121047 2.44215793 -34.95121047 2.44215793 -33.84375 1.1328125 C-22.60615985 -0.04657335 -11.28554624 -0.0165078 0 0 Z " fill="#213826" transform="translate(518.84375,0.8671875)"/>
<path d="M0 0 C5.87204119 5.50814005 8.1079019 13.70452615 10.8059082 21.1003418 C12.40113847 25.46946761 14.14420893 29.73475644 16 34 C18.14482987 39.25245003 19.71689231 44.47276685 21 50 C21.66 50 22.32 50 23 50 C23.23783203 50.92619141 23.23783203 50.92619141 23.48046875 51.87109375 C24.70647444 56.32129119 26.02547116 60.32497155 28.375 64.3125 C32.08046798 70.60733114 34.3691504 77.4791332 36.83984375 84.328125 C38.05106595 87.6540757 39.38235025 90.76795837 41.0625 93.875 C43.40189334 98.37452282 44.22497715 103.02353748 45 108 C45.66 108 46.32 108 47 108 C49.61407872 113.36190101 51.49228528 118.03435204 52 124 C52.66 124 53.32 124 54 124 C54.31453125 124.83402344 54.6290625 125.66804688 54.953125 126.52734375 C56.92459959 131.7113718 58.88424575 136.85646984 61.25 141.875 C62.96615338 145.61870555 63.65142453 148.90423819 64 153 C64.66 153 65.32 153 66 153 C66.81974263 155.03876949 67.6304807 157.08116075 68.4375 159.125 C68.88996094 160.26195312 69.34242188 161.39890625 69.80859375 162.5703125 C70.91039927 165.74206741 71.56095774 168.67942748 72 172 C72.66 172 73.32 172 74 172 C74.66 175.3 75.32 178.6 76 182 C76.66 182 77.32 182 78 182 C80.68114045 188.86828319 83.30968288 195.75228915 85.8125 202.6875 C86.23144531 203.84636719 86.65039062 205.00523437 87.08203125 206.19921875 C88 209 88 209 88 211 C88.66 211 89.32 211 90 211 C90.23783203 211.92619141 90.23783203 211.92619141 90.48046875 212.87109375 C91.73069056 217.4091917 93.09523895 221.43878723 95.5 225.5 C97.83769201 229.45447901 99.10786606 233.30490004 100.3203125 237.71875 C101.20323948 240.68213711 102.54742237 243.27641695 104 246 C104.7335803 247.69042418 105.46623721 249.38137808 106.17578125 251.08203125 C106.7707522 252.46653711 107.39724764 253.83764204 108.04296875 255.19921875 C110.2439993 259.8793884 111.560743 263.8387303 112 269 C112.66 269 113.32 269 114 269 C116.61407872 274.36190101 118.49228528 279.03435204 119 285 C119.66 285 120.32 285 121 285 C121.81974263 287.03876949 122.6304807 289.08116075 123.4375 291.125 C123.88996094 292.26195312 124.34242188 293.39890625 124.80859375 294.5703125 C125.91039927 297.74206741 126.56095774 300.67942748 127 304 C127.66 304 128.32 304 129 304 C129.15855469 304.61746094 129.31710937 305.23492188 129.48046875 305.87109375 C130.70647444 310.32129119 132.02547116 314.32497155 134.375 318.3125 C138.29195837 324.97487935 141.01180796 332.29427985 143 339.75 C143.90506164 342.69145033 144.9374579 344.70069271 146.5 347.3125 C149.25504793 352.02615133 150.24927199 356.63285495 151 362 C151.66 362 152.32 362 153 362 C153.77127569 363.99982945 154.5419965 365.99987291 155.3125 368 C155.77140625 369.18980469 156.2303125 370.37960937 156.703125 371.60546875 C157.68175736 374.16700949 158.63216386 376.73340147 159.5625 379.3125 C160.57726886 381.91560272 161.59625949 384.23191066 162.875 386.6875 C165.74130559 392.25538097 167.80985934 398.14247615 170 404 C170.30164063 404.76957031 170.60328125 405.53914063 170.9140625 406.33203125 C172.67295579 410.83586406 173.90907749 415.3006415 175 420 C175.66 420 176.32 420 177 420 C177.15855469 420.61746094 177.31710937 421.23492188 177.48046875 421.87109375 C178.73832428 426.43690085 180.10521504 430.43602873 182.5625 434.5 C185.31378866 439.13244084 186.25943771 443.70553228 187 449 C187.66 449 188.32 449 189 449 C189.15855469 449.61746094 189.31710937 450.23492188 189.48046875 450.87109375 C190.97773838 456.30593435 192.8903614 460.86893795 195.7421875 465.71875 C197.48244847 468.87499971 198.7407971 472.15651068 200.0234375 475.51953125 C200.9851773 477.96235035 202.06722172 480.31396076 203.1875 482.6875 C204.91907813 486.50376239 205.64542349 489.83372598 206 494 C206.66 494 207.32 494 208 494 C208.31453125 494.83402344 208.6290625 495.66804688 208.953125 496.52734375 C210.92459959 501.7113718 212.88424575 506.85646984 215.25 511.875 C216.96615338 515.61870555 217.65142453 518.90423819 218 523 C218.66 523 219.32 523 220 523 C220.50512244 524.60256108 221.00391627 526.20711792 221.5 527.8125 C221.91765625 529.15248047 221.91765625 529.15248047 222.34375 530.51953125 C223 533 223 533 223 536 C223.66 536 224.32 536 225 536 C225.33 537.98 225.66 539.96 226 542 C226.66 542 227.32 542 228 542 C228.66 545.3 229.32 548.6 230 552 C230.66 552 231.32 552 232 552 C232.23783203 552.92619141 232.23783203 552.92619141 232.48046875 553.87109375 C234.00395253 559.40108738 235.98175423 564.04955931 238.875 568.9921875 C240.32365235 571.57762954 241.14891358 574.16304526 242 577 C243.05673712 579.77547688 244.11947097 582.54827385 245.1953125 585.31640625 C246.01385861 588.04621779 246.06096372 590.17288165 246 593 C233.03076351 593.0926089 220.06160545 593.16371889 207.09210587 593.20724869 C201.07007432 593.22813898 195.0482687 593.25648342 189.02636719 593.30175781 C183.21679203 593.3451634 177.40743442 593.36912624 171.59770966 593.37950897 C169.37927576 593.3869098 167.160854 593.40136157 164.94251251 593.42292023 C161.83934129 593.45188334 158.73707332 593.4559589 155.63378906 593.45410156 C154.71309631 593.46848267 153.79240356 593.48286377 152.84381104 593.49768066 C146.63725302 593.45738409 146.63725302 593.45738409 143.49334717 591.2008667 C141.34196149 588.03019534 140.21398051 584.5992903 139 581 C138.42260332 579.45950698 137.83778776 577.92177701 137.24609375 576.38671875 C136.94896484 575.61392578 136.65183594 574.84113281 136.34570312 574.04492188 C136.04599609 573.26697266 135.74628906 572.48902344 135.4375 571.6875 C135.13392578 570.89021484 134.83035156 570.09292969 134.51757812 569.27148438 C134.22173828 568.50513672 133.92589844 567.73878906 133.62109375 566.94921875 C133.3573999 566.26174561 133.09370605 565.57427246 132.82202148 564.8659668 C131.9462446 562.73283185 131.9462446 562.73283185 130 560 C130 559.01 130 558.02 130 557 C129.34 557 128.68 557 128 557 C127.75765625 556.13117187 127.5153125 555.26234375 127.265625 554.3671875 C125.46178537 548.1647543 123.64203347 543.34923666 120 538 C118.87188547 534.9285641 117.88246652 531.83702846 116.9296875 528.70703125 C116.0694247 525.82857727 116.0694247 525.82857727 114 523 C113.50362388 521.61723795 113.04830101 520.21935337 112.625 518.8125 C111.61830911 515.64347817 110.44975886 512.80199745 108.875 509.875 C106.94837704 506.21294566 106.34252793 503.11033519 106 499 C105.34 499 104.68 499 104 499 C99.10996696 486.32070485 99.10996696 486.32070485 97.5 481.9375 C94.98375752 475.213304 92.3650507 468.47363816 89 462.125 C85.83661436 455.99269915 82 447.93001559 82 441 C81.34 441 80.68 441 80 441 C79.81824219 440.34773438 79.63648438 439.69546875 79.44921875 439.0234375 C79.19785156 438.14945313 78.94648437 437.27546875 78.6875 436.375 C78.44386719 435.51648438 78.20023438 434.65796875 77.94921875 433.7734375 C77.04643142 430.93425559 77.04643142 430.93425559 75.57421875 428.1484375 C73.8029544 424.6059088 72.45930393 420.97074079 71.125 417.25 C68.80797112 410.93056751 66.17969266 404.94043933 63 399 C60.46285585 394.20660981 58.42323888 389.54102226 56.78515625 384.3671875 C55.09634055 379.27553419 52.9957732 374.31768815 50.87890625 369.390625 C50 367 50 367 50 364 C49.34 364 48.68 364 48 364 C47.80664062 363.31292969 47.61328125 362.62585938 47.4140625 361.91796875 C47.15367187 361.01691406 46.89328125 360.11585938 46.625 359.1875 C46.24214844 357.84751953 46.24214844 357.84751953 45.8515625 356.48046875 C45.04733339 353.79532104 45.04733339 353.79532104 43 351 C43 350.01 43 349.02 43 348 C42.34 348 41.68 348 41 348 C40.75765625 347.13117188 40.5153125 346.26234375 40.265625 345.3671875 C38.27799135 338.27590996 38.27799135 338.27590996 34.875 331.8125 C32.21347598 327.82021396 31.70420971 323.68855415 31 319 C30.34 319 29.68 319 29 319 C28.76925781 318.17757813 28.53851562 317.35515625 28.30078125 316.5078125 C26.4016749 310.00731409 24.21656379 304.14284081 21.0390625 298.16796875 C19.75476109 295.48831731 19.2332484 292.95447971 19 290 C18.34 290 17.68 290 17 290 C12.14141061 277.40223464 12.14141061 277.40223464 10.3125 272.5 C9.51784615 270.38092306 8.69281185 268.27244912 7.8125 266.1875 C7 264 7 264 7 261 C6.34 261 5.68 261 5 261 C4.34 257.7 3.68 254.4 3 251 C2.34 251 1.68 251 1 251 C0.82984375 250.38253906 0.6596875 249.76507813 0.484375 249.12890625 C-1.22609264 243.15136773 -3.35854949 237.62010746 -6 232 C-9.20044168 225.0691072 -12.22127438 218.11062538 -15 211 C-15.36738281 210.14148438 -15.73476563 209.28296875 -16.11328125 208.3984375 C-17 206 -17 206 -17 203 C-17.66 203 -18.32 203 -19 203 C-19.19335938 202.31292969 -19.38671875 201.62585938 -19.5859375 200.91796875 C-19.84632813 200.01691406 -20.10671875 199.11585938 -20.375 198.1875 C-20.63023437 197.29417969 -20.88546875 196.40085937 -21.1484375 195.48046875 C-21.95266661 192.79532104 -21.95266661 192.79532104 -24 190 C-24 189.01 -24 188.02 -24 187 C-24.66 187 -25.32 187 -26 187 C-26.99 182.545 -26.99 182.545 -28 178 C-28.99 178 -29.98 178 -31 178 C-31.1546875 179.5159375 -31.1546875 179.5159375 -31.3125 181.0625 C-32.01084306 185.06210117 -33.36630252 188.33197733 -35 192 C-35.495 193.17820312 -35.99 194.35640625 -36.5 195.5703125 C-36.995 196.74335938 -37.49 197.91640625 -38 199.125 C-38.495 200.30320312 -38.99 201.48140625 -39.5 202.6953125 C-41 206 -41 206 -42.66796875 208.73828125 C-44.2159597 211.00688257 -44.2159597 211.00688257 -44.3125 214.0625 C-45.18270442 219.04639806 -47.27662022 222.87975176 -49.625 227.328125 C-51.08279424 229.99351263 -51.08279424 229.99351263 -52 233 C-52.66 233 -53.32 233 -54 233 C-54.3403125 234.85625 -54.3403125 234.85625 -54.6875 236.75 C-56.36339548 244.29747256 -59.58039872 251.34369291 -63.125 258.1875 C-65.24735224 262.31287544 -66.6171213 266.58226318 -68 271 C-68.5385734 272.62602782 -69.08017596 274.25105587 -69.625 275.875 C-69.86476563 276.59429688 -70.10453125 277.31359375 -70.3515625 278.0546875 C-70.90104167 279.703125 -71.45052083 281.3515625 -72 283 C-72.66 283.33 -73.32 283.66 -74 284 C-76.96391072 289.83182433 -78.66693646 296.10207883 -80.09375 302.45703125 C-81.19333949 305.54251729 -82.94969561 307.45949 -85 310 C-86.3591334 312.88387311 -86.3591334 312.88387311 -87.4375 316 C-87.85902344 317.14082031 -88.28054688 318.28164063 -88.71484375 319.45703125 C-89.35099609 321.21080078 -89.35099609 321.21080078 -90 323 C-92.61331091 330.05838179 -95.35129449 336.85460935 -98.8125 343.5390625 C-100.49431403 347.02440078 -101.75466297 350.61993365 -103.03125 354.26953125 C-104.27138173 357.76490254 -105.65937491 361.19163761 -107.05078125 364.62890625 C-108.42621594 368.06466287 -109.71468019 371.52963652 -111 375 C-111.66 375 -112.32 375 -113 375 C-113.12117187 375.78246094 -113.24234375 376.56492187 -113.3671875 377.37109375 C-113.61855469 378.88896484 -113.61855469 378.88896484 -113.875 380.4375 C-114.11863281 381.95150391 -114.11863281 381.95150391 -114.3671875 383.49609375 C-114.57601562 384.32238281 -114.78484375 385.14867187 -115 386 C-115.66 386.33 -116.32 386.66 -117 387 C-117.73075648 389.3140622 -118.40138258 391.64828869 -119 394 C-119.66 394 -120.32 394 -121 394 C-121.226875 395.2375 -121.45375 396.475 -121.6875 397.75 C-123.35471781 405.25839225 -126.5185968 412.29355861 -130.125 419.0625 C-132.57793439 423.77891449 -133.75236382 428.85822667 -135 434 C-135.66 434 -136.32 434 -137 434 C-137.23783203 435.10794922 -137.23783203 435.10794922 -137.48046875 436.23828125 C-139.14041093 443.45581991 -141.08521472 450.63847392 -145 457 C-145.99 457.33 -146.98 457.66 -148 458 C-148.103125 458.94875 -148.20625 459.8975 -148.3125 460.875 C-148.9910919 465.73491554 -150.5085476 470.33803874 -152 475 C-152.66 475 -153.32 475 -154 475 C-154.11601562 475.72703125 -154.23203125 476.4540625 -154.3515625 477.203125 C-155.01427509 480.06157207 -155.98669638 482.17532784 -157.375 484.75 C-159.40344197 488.67901654 -160.93737341 492.51286575 -162.26171875 496.72265625 C-164.17933718 502.6378496 -166.57470342 508.26731223 -169.5 513.75 C-172.65327482 519.86130043 -174.29062943 526.37260795 -176 533 C-176.66 533 -177.32 533 -178 533 C-178.09796875 533.66386719 -178.1959375 534.32773437 -178.296875 535.01171875 C-179.25057975 540.64350971 -180.40468561 543.53309425 -184 548 C-184.89666753 550.7284312 -185.58676235 553.47351581 -186.2734375 556.26171875 C-187.18851007 559.71046001 -188.49362223 562.77204763 -190 566 C-190.66 566 -191.32 566 -192 566 C-192.15855469 566.59425781 -192.31710937 567.18851563 -192.48046875 567.80078125 C-194.1123289 573.59794189 -196.208349 578.93201599 -198.81640625 584.359375 C-200.07187843 587.16036244 -201.02934347 590.0880304 -202 593 C-216.52 593 -231.04 593 -246 593 C-245.16546672 587.99280034 -244.53494605 585.67171704 -242.25 581.4375 C-238.27766756 573.73874142 -235.31450497 565.77757928 -232.4609375 557.609375 C-232.06551758 556.47858521 -232.06551758 556.47858521 -231.66210938 555.32495117 C-231.15085178 553.85540273 -230.64407855 552.3842837 -230.14257812 550.91137695 C-228.70818637 546.75900932 -227.03219127 542.90719648 -225 539 C-224.505 537.824375 -224.01 536.64875 -223.5 535.4375 C-222 532 -222 532 -220.53125 529.72265625 C-218.74314934 526.5433038 -217.91239557 523.52792954 -217 520 C-215.84643961 515.53956649 -214.73129688 511.75553321 -212 508 C-211.34 508 -210.68 508 -210 508 C-209.89042969 507.28714844 -209.78085937 506.57429688 -209.66796875 505.83984375 C-208.71859234 500.10499273 -207.50971604 495.23766825 -205 490 C-204.67 489.01 -204.34 488.02 -204 487 C-203.34 487 -202.68 487 -202 487 C-201.896875 485.948125 -201.79375 484.89625 -201.6875 483.8125 C-200.99850966 479.99173536 -200.03940067 478.21597798 -198 475 C-197.27966127 473.13366783 -196.56319329 471.26548769 -195.88671875 469.3828125 C-194.43601796 465.48445354 -192.79637737 461.66553251 -191.18359375 457.83203125 C-190.0965432 455.2310027 -189.03951 452.62033166 -188 450 C-187.34 450 -186.68 450 -186 450 C-185.896875 449.175 -185.79375 448.35 -185.6875 447.5 C-184.89344279 443.45752695 -183.51461124 439.81115592 -182 436 C-181.12201152 433.75116447 -180.24720142 431.50108633 -179.375 429.25 C-178.94960938 428.16203125 -178.52421875 427.0740625 -178.0859375 425.953125 C-177.23198325 423.63086094 -176.52681608 421.41164696 -176 419 C-175.34 419 -174.68 419 -174 419 C-173.896875 418.13375 -173.79375 417.2675 -173.6875 416.375 C-172.95616865 412.7848279 -171.65038987 410.26101131 -170 407 C-169.09715518 404.80290366 -168.22213164 402.59417307 -167.375 400.375 C-166.94960938 399.26898437 -166.52421875 398.16296875 -166.0859375 397.0234375 C-165.243842 394.67889823 -164.53296443 392.42794909 -164 390 C-163.34 390 -162.68 390 -162 390 C-161.896875 389.113125 -161.79375 388.22625 -161.6875 387.3125 C-160.97546061 383.88176473 -159.8379749 381.94075984 -158 379 C-157.690625 378.05125 -157.38125 377.1025 -157.0625 376.125 C-156 373 -156 373 -154.0625 369.8125 C-152.32794644 366.91737242 -151.50428162 364.28477481 -150.75 361 C-149.55373794 356.20187786 -147.60547987 352.15555369 -145.1875 347.875 C-141.34551798 341.05287163 -138.68431381 334.09995003 -136.2265625 326.6796875 C-135.24419755 323.73259265 -134.19327198 320.86608317 -133 318 C-132.34 318 -131.68 318 -131 318 C-130.938125 316.865625 -130.87625 315.73125 -130.8125 314.5625 C-130.39075077 311.11620632 -129.47733521 308.77725771 -127.6875 305.8125 C-124.85716608 301.10615224 -123.42651653 296.28632854 -121.91015625 291.03125 C-120.85774037 287.52620826 -119.5176774 284.32443622 -118 281 C-117.67 280.01 -117.34 279.02 -117 278 C-116.34 278 -115.68 278 -115 278 C-114.9175 276.948125 -114.835 275.89625 -114.75 274.8125 C-114 271 -114 271 -112.125 268.6875 C-109.10029758 264.86214106 -108.19729018 260.67124576 -107 256 C-106.34 256 -105.68 256 -105 256 C-104.87044922 255.14341797 -104.87044922 255.14341797 -104.73828125 254.26953125 C-103.05604892 244.56197038 -99.40764944 235.76815824 -95 227 C-94.33223123 225.42579226 -93.68511324 223.84260726 -93.0625 222.25 C-92.55396484 220.96029297 -92.55396484 220.96029297 -92.03515625 219.64453125 C-91.69355469 218.77183594 -91.35195313 217.89914062 -91 217 C-88.76053175 211.30983359 -86.45406153 205.67144683 -83.9375 200.09765625 C-83.071654 198.16032582 -82.25029149 196.21001281 -81.4375 194.25 C-80 191 -80 191 -78.5 188.75 C-77.010319 186.01891817 -76.36800574 183.75541647 -75.625 180.75 C-74.427958 176.04373488 -72.66852757 172.38852372 -70.1875 168.24609375 C-68.92382509 165.85591917 -68.20671041 163.60599464 -67.5 161 C-66.30667893 156.61318903 -64.48039809 153.10651104 -62.1875 149.203125 C-60.65799061 146.36548258 -59.74805191 143.48815646 -58.796875 140.41796875 C-57.56187354 136.67058687 -55.99429565 133.07541928 -54.453125 129.4453125 C-53.38162071 126.9048104 -52.33032899 124.36057874 -51.296875 121.8046875 C-48.45220254 114.78326401 -45.54125143 107.91830895 -42.05078125 101.1875 C-40.66684876 98.30645096 -39.70636229 95.36375873 -38.7578125 92.31640625 C-37.38799874 88.12929512 -35.67496319 84.07262624 -34 80 C-33.34 80 -32.68 80 -32 80 C-32 78.68 -32 77.36 -32 76 C-31.34 76 -30.68 76 -30 76 C-29.91363281 75.42894531 -29.82726562 74.85789062 -29.73828125 74.26953125 C-28.61528746 67.78913588 -26.59287155 61.97057384 -24.12109375 55.8828125 C-22.96470659 53.14686034 -22.96470659 53.14686034 -22.53515625 50.7421875 C-22 49 -22 49 -19 47 C-17.89404754 43.97472014 -17.89404754 43.97472014 -17.0625 40.4375 C-15.49959379 34.62396252 -13.61049221 29.40400787 -11 24 C-10.20519278 22.25142412 -9.41372706 20.50132685 -8.625 18.75 C-5.7741801 12.48885349 -2.88861659 6.24377951 0 0 Z " fill="#FCFDFD" transform="translate(627,243)"/>
<path d="M0 0 C0.99 0.33 1.98 0.66 3 1 C3.99 5.95 3.99 5.95 5 11 C5.66 11 6.32 11 7 11 C7.18175781 11.64066406 7.36351562 12.28132812 7.55078125 12.94140625 C7.92783203 14.23884766 7.92783203 14.23884766 8.3125 15.5625 C8.55613281 16.40941406 8.79976562 17.25632812 9.05078125 18.12890625 C11.36519081 25.12928085 14.75747899 31.59202806 18.12695312 38.12695312 C21.47313172 44.71177717 23.55624281 49.5017392 22 57 C21.67 57.99 21.34 58.98 21 60 C20.34 60 19.68 60 19 60 C18.95875 60.9075 18.9175 61.815 18.875 62.75 C18.1950086 67.62819916 15.80390985 71.62834424 13.5546875 75.94921875 C9.79150567 83.33375395 7.23644531 91.03689927 5 99 C4.34 99 3.68 99 3 99 C2.85304688 99.99580078 2.85304688 99.99580078 2.703125 101.01171875 C1.75912567 106.58619757 0.69046899 109.63853664 -3 114 C-3.88889818 116.18414982 -4.58488013 118.38578877 -5.2734375 120.640625 C-6.35617471 124.15661035 -7.68801532 127.56384965 -9 131 C-9.66 131 -10.32 131 -11 131 C-11.10957031 131.56847656 -11.21914063 132.13695312 -11.33203125 132.72265625 C-12.37673541 137.81028059 -13.8411939 142.25062658 -16 147 C-17.82082652 151.61516425 -19.46646262 156.28142345 -21 161 C-21.66 161 -22.32 161 -23 161 C-23.17015625 161.6290625 -23.3403125 162.258125 -23.515625 162.90625 C-24.70845057 167.11920841 -25.91293251 171.07642514 -28 174.9375 C-30.54010981 179.69532106 -31.73448347 184.78453793 -33 190 C-33.66 190 -34.32 190 -35 190 C-35.15855469 190.73863281 -35.31710937 191.47726562 -35.48046875 192.23828125 C-37.19235534 199.68167765 -39.65228533 206.15789244 -43 213 C-44.32156667 215.74571748 -45.63195886 218.49662945 -46.9375 221.25 C-47.28095459 221.97413086 -47.62440918 222.69826172 -47.97827148 223.44433594 C-51.2992032 230.51455485 -54.17826345 237.71755417 -57 245 C-57.70577974 246.77185264 -58.41381601 248.54280959 -59.125 250.3125 C-60.0827343 252.69698252 -61.03204906 255.08306593 -61.95703125 257.48046875 C-63.65335589 261.83955001 -65.47956505 266.02875367 -67.625 270.1875 C-69.62665055 274.08609937 -70.98205043 277.74311997 -72 282 C-72.66 282 -73.32 282 -74 282 C-74.33 283.98 -74.66 285.96 -75 288 C-75.66 288 -76.32 288 -77 288 C-77.061875 288.9075 -77.12375 289.815 -77.1875 290.75 C-77.99650883 296.51858473 -80.66780961 301.71549922 -83 307 C-85.2284305 312.09270651 -87.25690398 317.2272742 -89.1875 322.4375 C-89.46013672 323.16904297 -89.73277344 323.90058594 -90.01367188 324.65429688 C-90.67730601 326.43563061 -91.3388716 328.21773476 -92 330 C-92.66 330 -93.32 330 -94 330 C-94.10957031 330.54527344 -94.21914063 331.09054687 -94.33203125 331.65234375 C-95.51075763 337.25848143 -97.10198304 342.59878604 -99 348 C-99.33 348.99 -99.66 349.98 -100 351 C-100.66 351.33 -101.32 351.66 -102 352 C-103.05959704 354.53240741 -104.02306795 357.04063535 -104.9375 359.625 C-105.44495492 361.03445281 -105.95405933 362.44331288 -106.46484375 363.8515625 C-106.7182251 364.55055664 -106.97160645 365.24955078 -107.23266602 365.96972656 C-107.9406392 367.84293845 -108.72870159 369.68535599 -109.5234375 371.5234375 C-110.84070807 374.62494757 -111.93822608 377.70359493 -112.9909668 380.8984375 C-115.45012179 388.31813822 -118.42848473 395.06762154 -122.2421875 401.88549805 C-124.42991508 405.82266573 -126.03926391 409.58340427 -127.29296875 413.89453125 C-128.1363948 416.40617014 -129.27961501 418.6492289 -130.5 421 C-132.49939253 424.86708855 -134.0137669 428.66556133 -135.30859375 432.81640625 C-136.40031423 436.26426924 -137.71020062 439.62195401 -139 443 C-139.66 443 -140.32 443 -141 443 C-141.10957031 443.56847656 -141.21914063 444.13695312 -141.33203125 444.72265625 C-142.37658542 449.80955012 -143.80220081 454.26627866 -146 459 C-146.73134512 460.64486647 -147.4604543 462.29072863 -148.1875 463.9375 C-148.79120246 465.29187368 -149.39520315 466.64611467 -150 468 C-150.66 468 -151.32 468 -152 468 C-152.0825 468.969375 -152.165 469.93875 -152.25 470.9375 C-152.79921994 474.85265354 -154.27885159 477.98883406 -155.95703125 481.5390625 C-157.45172489 485.06586771 -158.3252721 488.69824704 -159.2734375 492.40234375 C-160.21761303 495.77802507 -161.51944442 498.8273809 -163 502 C-163.66 502 -164.32 502 -165 502 C-165.18175781 502.61746094 -165.36351562 503.23492188 -165.55078125 503.87109375 C-166.35603786 506.58418911 -167.17735603 509.29213025 -168 512 C-168.2165625 512.74121094 -168.433125 513.48242188 -168.65625 514.24609375 C-170.03885223 518.73132121 -171.84220124 522.76575573 -174 526.9375 C-176.33210577 531.4527318 -177.90417843 535.738387 -179.21875 540.62890625 C-180.31955813 543.96985894 -182.0746945 546.80072625 -183.859375 549.81640625 C-185.58312816 553.11633096 -186.27219968 556.36099838 -187 560 C-187.66 560 -188.32 560 -189 560 C-189.17015625 560.84304688 -189.3403125 561.68609375 -189.515625 562.5546875 C-189.75796875 563.65039062 -190.0003125 564.74609375 -190.25 565.875 C-190.59804688 567.51082031 -190.59804688 567.51082031 -190.953125 569.1796875 C-192 572 -192 572 -194.07421875 573.1875 C-194.70972656 573.455625 -195.34523437 573.72375 -196 574 C-196.41755362 576.31974234 -196.7355646 578.65785793 -197 581 C-198.29933943 585.20328479 -200.03252584 589.06505169 -202 593 C-216.52 593 -231.04 593 -246 593 C-242.66666667 579.66666667 -242.66666667 579.66666667 -239.18359375 573.25390625 C-237.9420378 570.88962314 -236.95391873 568.49249732 -236 566 C-235.34 566 -234.68 566 -234 566 C-233.9175 565.21625 -233.835 564.4325 -233.75 563.625 C-232.26485601 556.44680407 -228.95077649 549.83922177 -225.94921875 543.18359375 C-224.49445769 539.83704464 -223.24686631 536.42888234 -222 533 C-221.34 533 -220.68 533 -220 533 C-219.92523438 532.46375 -219.85046875 531.9275 -219.7734375 531.375 C-218.34033331 522.832575 -215.16393474 515.01928114 -212 507 C-211.34 507 -210.68 507 -210 507 C-209.95875 506.0925 -209.9175 505.185 -209.875 504.25 C-209.19695472 499.33417173 -206.76419228 495.28583452 -204.4921875 490.9375 C-202.67403925 487.3583181 -201.32818081 483.78531532 -200 480 C-199.33933281 478.33094605 -198.67561748 476.6630584 -198 475 C-197.34 475 -196.68 475 -196 475 C-195.87882812 474.35933594 -195.75765625 473.71867187 -195.6328125 473.05859375 C-194.64320773 467.95071067 -193.51489049 462.97749731 -192 458 C-191.34 458 -190.68 458 -190 458 C-189.9071875 456.7934375 -189.9071875 456.7934375 -189.8125 455.5625 C-189.07386952 452.32388945 -188.27802494 450.54475388 -186.625 447.75 C-184.2638912 443.71983152 -182.91365611 439.84094262 -181.68359375 435.3515625 C-181.06515539 433.22413455 -180.33311908 431.27294061 -179.4375 429.25 C-178.091154 426.2060873 -177.00522143 423.17031373 -176 420 C-175.34 420 -174.68 420 -174 420 C-173.87882812 419.28328125 -173.75765625 418.5665625 -173.6328125 417.828125 C-172.985169 414.93371826 -172.04908924 412.4713989 -170.875 409.75 C-169.30304167 406.07298442 -167.74679948 402.39333117 -166.25390625 398.68359375 C-165.95307129 397.93948242 -165.65223633 397.19537109 -165.34228516 396.42871094 C-164.75385175 394.9711236 -164.16870861 393.51220217 -163.58740234 392.05175781 C-162.21020526 388.66111937 -160.75135905 385.47206082 -158.87890625 382.32421875 C-157.18112872 379.32045851 -156.26012897 376.9555651 -155.5 373.625 C-154.38374838 369.17219301 -152.86746991 365.22752222 -150.91796875 361.08203125 C-149.61148283 358.11881 -148.80024007 355.13427362 -148 352 C-147.34 352 -146.68 352 -146 352 C-145.87238281 351.43667969 -145.74476563 350.87335938 -145.61328125 350.29296875 C-143.85452544 343.71723843 -140.78754096 337.46458501 -137.99609375 331.2734375 C-136.96077955 328.91048509 -136.00554675 326.52617124 -135.0625 324.125 C-133.62737657 320.4863406 -132.07599926 316.92671696 -130.4375 313.375 C-128.71918396 309.6458886 -127.19112698 305.91893915 -125.80078125 302.05859375 C-124.87112143 299.66868778 -123.78526094 297.37999531 -122.6875 295.0625 C-120.49798354 290.33602883 -118.74430092 285.54679723 -117.0625 280.625 C-114.50688285 273.17091048 -111.41627914 266.10430775 -108 259 C-106.95817048 256.69929315 -105.93678992 254.39079998 -104.921875 252.078125 C-104.32269691 250.72743541 -103.70883754 249.38313038 -103.078125 248.046875 C-100.37361609 242.23883127 -98.26723108 236.25854815 -96.19384766 230.203125 C-94.64492305 225.70470765 -92.90067501 221.36132225 -91 217 C-90.67 216.01 -90.34 215.02 -90 214 C-89.34 214 -88.68 214 -88 214 C-87.938125 213.01 -87.87625 212.02 -87.8125 211 C-87.376286 207.83902898 -86.42705447 205.8692023 -84.625 203.25 C-81.93079705 199.25887414 -80.88606399 195.40289398 -79.75390625 190.7578125 C-78.42967326 185.91372707 -76.23886045 181.4777209 -74 177 C-73.34 177 -72.68 177 -72 177 C-72 175.68 -72 174.36 -72 173 C-71.34 173 -70.68 173 -70 173 C-69.87044922 172.14341797 -69.87044922 172.14341797 -69.73828125 171.26953125 C-68.61528746 164.78913588 -66.59287155 158.97057384 -64.12109375 152.8828125 C-63.22486056 150.57821288 -62.51814342 148.41024019 -62 146 C-61.34 146 -60.68 146 -60 146 C-59.8453125 144.700625 -59.8453125 144.700625 -59.6875 143.375 C-58.95584921 139.78325976 -57.7130434 137.22842795 -56 134 C-55.2575 132.2365625 -55.2575 132.2365625 -54.5 130.4375 C-53 127 -53 127 -51.4375 124.5 C-49.68163444 121.44632076 -48.86692341 118.40100723 -48 115 C-47.34 115 -46.68 115 -46 115 C-45.90203125 114.39414062 -45.8040625 113.78828125 -45.703125 113.1640625 C-43.92542214 103.20279649 -39.9734695 94.87877702 -35.39453125 85.91796875 C-33.53503688 82.02709399 -32.23803741 78.12679136 -31 74 C-30.34 74 -29.68 74 -29 74 C-28.938125 72.906875 -28.87625 71.81375 -28.8125 70.6875 C-28.22519734 65.98080686 -26.43437939 62.17809804 -24.3984375 57.9296875 C-20.69018564 50.16100343 -17.59735582 42.20217626 -15 34 C-14.34 34 -13.68 34 -13 34 C-12.67 31.69 -12.34 29.38 -12 27 C-11.01 26.67 -10.02 26.34 -9 26 C-8.87044922 24.98292969 -8.87044922 24.98292969 -8.73828125 23.9453125 C-7.80310758 17.75085939 -6.23225917 12.78320422 -3.21875 7.2890625 C-1.95442818 4.91440677 -0.95852616 2.51169355 0 0 Z " fill="#FBFBFB" transform="translate(450,243)"/>
<path d="M0 0 C0.99 0.33 1.98 0.66 3 1 C3.77307138 2.61336635 4.5296681 4.237979 5.17578125 5.90625 C6.06199794 8.15749241 7.08831743 10.31435876 8.125 12.5 C9.87220572 16.38786617 10.63949872 19.76410992 11 24 C11.66 24 12.32 24 13 24 C13.45439453 25.19882812 13.45439453 25.19882812 13.91796875 26.421875 C14.33691406 27.52015625 14.75585938 28.6184375 15.1875 29.75 C15.86232422 31.52697266 15.86232422 31.52697266 16.55078125 33.33984375 C17.88975005 36.72155201 19.36659924 40.00415885 20.875 43.3125 C23.41766086 49.42451128 23.62145255 52.98830275 21.09375 59.2421875 C20.41041885 60.77968258 19.70480623 62.30748091 18.9765625 63.82421875 C18.07109267 65.84160554 17.46923738 67.73453172 16.9375 69.875 C16 73 16 73 14.578125 74.24609375 C12.19832173 76.89097411 11.71903151 79.78019192 10.8125 83.1875 C10.29623047 85.09595703 10.29623047 85.09595703 9.76953125 87.04296875 C9.51558594 88.01878906 9.26164063 88.99460937 9 90 C8.34 90 7.68 90 7 90 C6.81824219 90.78503906 6.63648438 91.57007813 6.44921875 92.37890625 C4.52465707 100.4225871 2.23352318 106.91090918 -1.96484375 114.0625 C-4.39775056 118.61616708 -6.07503613 123.54823988 -7.89453125 128.37109375 C-9.81408129 133.34558726 -12.02599213 138.02353721 -14.5 142.75 C-18.02701585 149.6523321 -20.15892652 156.47561272 -22 164 C-22.66 164 -23.32 164 -24 164 C-24.17015625 164.6290625 -24.3403125 165.258125 -24.515625 165.90625 C-25.70845057 170.11920841 -26.91293251 174.07642514 -29 177.9375 C-31.54010981 182.69532106 -32.73448347 187.78453793 -34 193 C-34.66 193 -35.32 193 -36 193 C-36.99 196.96 -36.99 196.96 -38 201 C-38.66 201 -39.32 201 -40 201 C-40.10957031 201.56847656 -40.21914063 202.13695312 -40.33203125 202.72265625 C-40.49058594 203.49480469 -40.64914062 204.26695312 -40.8125 205.0625 C-40.96332031 205.81660156 -41.11414063 206.57070313 -41.26953125 207.34765625 C-42.01392117 210.05054798 -43.05304534 212.52349656 -44.1862793 215.08374023 C-45.63337582 218.49155919 -46.79782551 221.99991908 -48 225.5 C-49.8092491 230.76755336 -51.74726209 235.90452139 -54 241 C-54.66 241 -55.32 241 -56 241 C-56.15855469 241.73863281 -56.31710937 242.47726562 -56.48046875 243.23828125 C-58.6536563 252.6874448 -62.31625198 260.69249547 -66.69677734 269.29833984 C-67.00309082 269.9011377 -67.3094043 270.50393555 -67.625 271.125 C-68.08253662 272.023396 -68.08253662 272.023396 -68.54931641 272.93994141 C-70.51066725 276.85078226 -72.01118175 280.69766292 -73.26171875 284.87890625 C-74.10371038 287.29796157 -75.22696302 289.43100055 -76.4375 291.6875 C-79.63474485 297.82039694 -81.28118045 304.33597336 -83 311 C-83.66 311 -84.32 311 -85 311 C-85.14695312 311.99580078 -85.14695312 311.99580078 -85.296875 313.01171875 C-86.25057975 318.64350971 -87.40468561 321.53309425 -91 326 C-91.89666753 328.7284312 -92.58676235 331.47351581 -93.2734375 334.26171875 C-94.18851007 337.71046001 -95.49362223 340.77204763 -97 344 C-97.66 344 -98.32 344 -99 344 C-99.17015625 344.6290625 -99.3403125 345.258125 -99.515625 345.90625 C-100.92098766 350.86987129 -102.55121823 355.31837987 -104.9609375 359.87109375 C-107.02102363 364.09194692 -108.44386238 368.57493377 -110 373 C-110.98852666 375.67112524 -111.99442589 378.33522861 -113 381 C-113.66 381 -114.32 381 -115 381 C-115.10957031 381.54527344 -115.21914063 382.09054687 -115.33203125 382.65234375 C-116.51075763 388.25848143 -118.10198304 393.59878604 -120 399 C-120.33 399.99 -120.66 400.98 -121 402 C-121.66 402 -122.32 402 -123 402 C-123.268125 402.99 -123.53625 403.98 -123.8125 405 C-124.98197872 409.09317552 -126.47185089 413.02988396 -128 417 C-128.45375 418.2375 -128.9075 419.475 -129.375 420.75 C-133.37123873 431.39966236 -137.87417835 441.87893905 -143.0625 452 C-145.21290807 456.25218882 -146.9488077 460.40295608 -148.34375 464.953125 C-149.3435628 468.07158874 -150.66485266 471.0118131 -152 474 C-152.66 474 -153.32 474 -154 474 C-154.0825 474.94875 -154.165 475.8975 -154.25 476.875 C-154.83907344 481.11979393 -156.40311547 484.83678811 -158.0625 488.765625 C-159.07620833 491.10287673 -159.07620833 491.10287673 -160 494 C-160.66 494 -161.32 494 -162 494 C-162.10957031 494.56847656 -162.21914063 495.13695312 -162.33203125 495.72265625 C-163.37658542 500.80955012 -164.80220081 505.26627866 -167 510 C-167.73134512 511.64486647 -168.4604543 513.29072863 -169.1875 514.9375 C-169.79120246 516.29187368 -170.39520315 517.64611467 -171 519 C-171.66 519 -172.32 519 -173 519 C-173.0825 519.969375 -173.165 520.93875 -173.25 521.9375 C-173.79921994 525.85265354 -175.27885159 528.98883406 -176.95703125 532.5390625 C-178.45172489 536.06586771 -179.3252721 539.69824704 -180.2734375 543.40234375 C-181.21761303 546.77802507 -182.51944442 549.8273809 -184 553 C-184.66 553 -185.32 553 -186 553 C-186.66 555.64 -187.32 558.28 -188 561 C-188.66 561 -189.32 561 -190 561 C-190.06316406 561.63164063 -190.12632812 562.26328125 -190.19140625 562.9140625 C-191.19949429 570.27841093 -193.78669515 576.15518659 -197.24609375 582.640625 C-199.00448566 586.00859168 -200.5033585 589.5078365 -202 593 C-215.86 593 -229.72 593 -244 593 C-242.875 582.875 -242.875 582.875 -241 579 C-240.34 579 -239.68 579 -239 579 C-238.896875 578.175 -238.79375 577.35 -238.6875 576.5 C-238.06117824 573.31145286 -237.13629227 570.48174766 -235.94921875 567.46484375 C-234.7512265 564.3540079 -233.66326924 561.20900653 -232.5625 558.0625 C-230.60710673 552.57572486 -228.46368237 547.27396644 -226 542 C-225.18633472 540.20886223 -224.3739028 538.41716383 -223.5625 536.625 C-222.27470946 533.7918608 -220.9821276 530.96135555 -219.67578125 528.13671875 C-217.53259427 523.48349297 -215.49769283 518.84409607 -213.7421875 514.03125 C-211.57201991 508.09184398 -209.34494053 502.47653171 -206.07421875 497.046875 C-202.60044655 490.42775998 -200.32345044 483.08758964 -198 476 C-197.34 476 -196.68 476 -196 476 C-195.89042969 475.28714844 -195.78085937 474.57429688 -195.66796875 473.83984375 C-194.71859234 468.10499273 -193.50971604 463.23766825 -191 458 C-190.67 457.01 -190.34 456.02 -190 455 C-189.34 455 -188.68 455 -188 455 C-187.9175 454.21625 -187.835 453.4325 -187.75 452.625 C-186.15815337 444.93107461 -182.51086978 437.86414773 -179.23828125 430.76171875 C-177.35519356 426.56189858 -175.66569615 422.2898655 -174 418 C-173.34 418 -172.68 418 -172 418 C-171.896875 417.175 -171.79375 416.35 -171.6875 415.5 C-170.89593705 411.47022496 -169.46943593 407.81654017 -168 404 C-167.4634215 402.57345082 -166.92825584 401.14636939 -166.39453125 399.71875 C-164.9296875 395.8125 -163.46484375 391.90625 -162 388 C-161.34 388 -160.68 388 -160 388 C-159.896875 386.96875 -159.79375 385.9375 -159.6875 384.875 C-158.99396571 380.96598853 -157.78933052 378.50934072 -156 375 C-155.14146594 372.84319492 -154.30827953 370.67613719 -153.5 368.5 C-151.89501398 364.17888379 -150.08292073 360.1102969 -148 356 C-147.33223123 354.42579226 -146.68511324 352.84260726 -146.0625 351.25 C-145.72089844 350.38632812 -145.37929688 349.52265625 -145.02734375 348.6328125 C-144.36773857 346.94241746 -143.7136085 345.24986997 -143.06640625 343.5546875 C-141.26954112 338.91713518 -139.27296037 334.48849067 -137 330.0625 C-133.66524909 323.50192221 -131.23205623 316.81328429 -128.97265625 309.8203125 C-128.63105469 308.76585937 -128.28945313 307.71140625 -127.9375 306.625 C-127.63714844 305.66851563 -127.33679688 304.71203125 -127.02734375 303.7265625 C-125.95641206 300.88431794 -124.741802 298.48828857 -123 296 C-122.34 296 -121.68 296 -121 296 C-120.87044922 294.96552734 -120.87044922 294.96552734 -120.73828125 293.91015625 C-119.84177258 287.91424045 -118.43206492 283.47291325 -115.29296875 278.30859375 C-113.40477703 274.93723028 -112.22545865 271.3918209 -110.9609375 267.75 C-108.3566609 260.29711086 -105.19956761 253.03973294 -102.1484375 245.76171875 C-101.0761392 243.18309665 -100.03064033 240.59551165 -99 238 C-98.34 238 -97.68 238 -97 238 C-96.896875 237.175 -96.79375 236.35 -96.6875 235.5 C-95.88858406 231.43279157 -94.55778204 227.82769301 -93 224 C-92.505 222.783125 -92.01 221.56625 -91.5 220.3125 C-90 217 -90 217 -88.4375 214.5 C-86.68163444 211.44632076 -85.86692341 208.40100723 -85 205 C-84.34 205 -83.68 205 -83 205 C-82.89042969 204.35933594 -82.78085937 203.71867188 -82.66796875 203.05859375 C-81.47879095 196.57129046 -79.96477976 191.14364762 -76.4375 185.5 C-74.68163444 182.44632076 -73.86692341 179.40100723 -73 176 C-72.34 176 -71.68 176 -71 176 C-70.85304688 175.09121094 -70.85304688 175.09121094 -70.703125 174.1640625 C-69.11378694 165.2582889 -65.69050453 157.4800667 -62 149.27734375 C-59.87433552 144.43647503 -57.95687197 139.50475309 -56.0703125 134.56640625 C-54.25598813 129.88065116 -52.23310055 125.40966996 -49.9375 120.9375 C-47.43588606 116.04193651 -45.57847995 111.26159982 -44 106 C-43.34 106 -42.68 106 -42 106 C-41.8453125 104.7625 -41.8453125 104.7625 -41.6875 103.5 C-40.8898763 99.43937024 -39.5401447 95.82678811 -38 92 C-37.608125 91.01 -37.21625 90.02 -36.8125 89 C-36.544375 88.34 -36.27625 87.68 -36 87 C-35.34 87 -34.68 87 -34 87 C-33.34 83.37 -32.68 79.74 -32 76 C-31.34 76 -30.68 76 -30 76 C-29.8453125 75.01 -29.8453125 75.01 -29.6875 74 C-28.41988238 68.46857766 -26.13211809 63.24829068 -24 58 C-23.34 58 -22.68 58 -22 58 C-21.8453125 56.7625 -21.8453125 56.7625 -21.6875 55.5 C-20.89434711 51.46213076 -19.52862059 47.80126005 -18 44 C-17.68804688 43.21367187 -17.37609375 42.42734375 -17.0546875 41.6171875 C-16.38535965 39.93596244 -15.71208968 38.25630217 -15.03515625 36.578125 C-14.34648884 34.86295333 -13.66674533 33.14417089 -12.99609375 31.421875 C-11.16538764 26.74101074 -9.16397514 22.25800589 -6.8671875 17.7890625 C-5.64695617 15.27164832 -4.85205808 12.66268151 -4 10 C-2.6996089 6.65325701 -1.35383531 3.32544014 0 0 Z " fill="#FBFBFB" transform="translate(538,243)"/>
<path d="M0 0 C0.99 0.33 1.98 0.66 3 1 C6 7.11111111 6 7.11111111 6 10 C5.34 10 4.68 10 4 10 C3.67 8.35 3.34 6.7 3 5 C1.35 5.66 -0.3 6.32 -2 7 C-1.34 4.69 -0.68 2.38 0 0 Z " fill="#BAC1BB" transform="translate(538,243)"/>
<path d="M0 0 C1 2 1 2 0.3125 4.625 C-1.21674408 8.55734192 -3.04674911 12.26417062 -5 16 C-6 14 -6 14 -5.0390625 10.99609375 C-4.57242188 9.82175781 -4.10578125 8.64742187 -3.625 7.4375 C-3.16351562 6.26058594 -2.70203125 5.08367188 -2.2265625 3.87109375 C-1 1 -1 1 0 0 Z " fill="#828E84" transform="translate(530,581)"/>
<path d="M0 0 C1.33332095 2.6666419 0.67102033 4.16680303 0 7 C-0.66 7 -1.32 7 -2 7 C-2.12375 7.804375 -2.2475 8.60875 -2.375 9.4375 C-2.58125 10.283125 -2.7875 11.12875 -3 12 C-3.99 12.495 -3.99 12.495 -5 13 C-4.54554036 11.58208592 -4.08625056 10.16571954 -3.625 8.75 C-3.24214844 7.56664062 -3.24214844 7.56664062 -2.8515625 6.359375 C-2.04826333 4.13372042 -1.10288338 2.09068328 0 0 Z " fill="#808E83" transform="translate(498,658)"/>
<path d="M0 0 C1.33332095 2.6666419 0.67102033 4.16680303 0 7 C-0.66 7 -1.32 7 -2 7 C-2.12375 7.804375 -2.2475 8.60875 -2.375 9.4375 C-2.58125 10.283125 -2.7875 11.12875 -3 12 C-3.99 12.495 -3.99 12.495 -5 13 C-4.54554036 11.58208592 -4.08625056 10.16571954 -3.625 8.75 C-3.24214844 7.56664062 -3.24214844 7.56664062 -2.8515625 6.359375 C-2.04826333 4.13372042 -1.10288338 2.09068328 0 0 Z " fill="#838F85" transform="translate(565,497)"/>
<path d="M0 0 C1.33332095 2.6666419 0.67102033 4.16680303 0 7 C-0.66 7 -1.32 7 -2 7 C-2.12375 7.804375 -2.2475 8.60875 -2.375 9.4375 C-2.58125 10.283125 -2.7875 11.12875 -3 12 C-3.99 12.495 -3.99 12.495 -5 13 C-4.54554036 11.58208592 -4.08625056 10.16571954 -3.625 8.75 C-3.24214844 7.56664062 -3.24214844 7.56664062 -2.8515625 6.359375 C-2.04826333 4.13372042 -1.10288338 2.09068328 0 0 Z " fill="#7F8C82" transform="translate(423,414)"/>
<path d="M0 0 C1.33332095 2.6666419 0.67102033 4.16680303 0 7 C-0.66 7 -1.32 7 -2 7 C-2.66 8.98 -3.32 10.96 -4 13 C-5 11 -5 11 -4.2578125 8.65234375 C-3.88398438 7.75644531 -3.51015625 6.86054687 -3.125 5.9375 C-2.75632812 5.03902344 -2.38765625 4.14054688 -2.0078125 3.21484375 C-1 1 -1 1 0 0 Z " fill="#828F85" transform="translate(435,597)"/>
<path d="M0 0 C1.33332095 2.6666419 0.67102033 4.16680303 0 7 C-0.66 7 -1.32 7 -2 7 C-2.66 8.98 -3.32 10.96 -4 13 C-5 11 -5 11 -4.2578125 8.65234375 C-3.88398438 7.75644531 -3.51015625 6.86054687 -3.125 5.9375 C-2.75632812 5.03902344 -2.38765625 4.14054688 -2.0078125 3.21484375 C-1 1 -1 1 0 0 Z " fill="#859187" transform="translate(368,546)"/>
<path d="M0 0 C1.33332095 2.6666419 0.67102033 4.16680303 0 7 C-0.66 7 -1.32 7 -2 7 C-2.66 8.98 -3.32 10.96 -4 13 C-5 11 -5 11 -4.2578125 8.65234375 C-3.88398437 7.75644531 -3.51015625 6.86054688 -3.125 5.9375 C-2.75632812 5.03902344 -2.38765625 4.14054687 -2.0078125 3.21484375 C-1 1 -1 1 0 0 Z " fill="#89968C" transform="translate(522,388)"/>
<path d="M0 0 C1.10844919 3.32534757 0.84454356 5.62182575 0 9 C-0.66 9 -1.32 9 -2 9 C-2.33 9.66 -2.66 10.32 -3 11 C-3 9.35 -3 7.7 -3 6 C-2.34 6 -1.68 6 -1 6 C-0.67 4.02 -0.34 2.04 0 0 Z " fill="#869288" transform="translate(376,525)"/>
<path d="M0 0 C2.50037734 2.17424117 3.43628586 3.73045798 4 7 C3.34 7 2.68 7 2 7 C2 6.01 2 5.02 2 4 C0.02 4.99 0.02 4.99 -2 6 C-1.34 4.02 -0.68 2.04 0 0 Z " fill="#D1D6D2" transform="translate(627,243)"/>
<path d="M0 0 C0.99 0 1.98 0 3 0 C3.33 1.32 3.66 2.64 4 4 C3.34 4 2.68 4 2 4 C1.67 4.66 1.34 5.32 1 6 C0.34 6 -0.32 6 -1 6 C-0.67 4.02 -0.34 2.04 0 0 Z " fill="#607063" transform="translate(596,421)"/>
<path d="M0 0 C0.99 0.33 1.98 0.66 3 1 C3.33 2.65 3.66 4.3 4 6 C1.525 5.01 1.525 5.01 -1 4 C-0.67 2.68 -0.34 1.36 0 0 Z " fill="#C5CBC7" transform="translate(450,243)"/>
</svg>
