<?xml version="1.0" encoding="UTF-8"?> <svg xmlns="http://www.w3.org/2000/svg" viewBox="0 0 375 448.88"><g id="Layer_2" data-name="Layer 2"><g id="Layer_1-2" data-name="Layer 1"><path fill="#3a3a3a" d="M45.53,411.43c6.21,0,10.57,3.42,10.57,9.77h8.15c0-11.14-8.21-16.49-18.85-16.49-13.06,0-20.65,7.1-20.65,22.09,0,15.36,7.59,22.08,20.65,22.08,10.76,0,18.85-5.23,18.85-16.36H56.41c0,6.22-4.29,9.64-10.88,9.64-8.65,0-12.63-4.79-12.63-14.74v-1.24C32.9,416.41,36.94,411.43,45.53,411.43Z"></path><path fill="#3a3a3a" d="M85.79,405.46,69.18,448.13h8.21l3.42-9.26h19.54l3.48,9.26h8.59L95.81,405.46ZM83.3,432.15l4.36-11.7c.87-2.3,2.42-7.28,2.73-8.15h.32c.31.87,1.86,5.91,2.73,8.15l4.36,11.7Z"></path><path fill="#3a3a3a" d="M156.84,418.4c0-7.9-4.54-12.94-13.93-12.94H120.39v42.67h8V431.65H141.6l8.09,16.48h8.71l-9.15-17.72C154.29,428.41,156.84,424.19,156.84,418.4Zm-14.55,6.53H128.35V412.24h13.94c4.29,0,6.53,2.3,6.53,6.16C148.82,422.44,146.39,424.93,142.29,424.93Z"></path><path fill="#3a3a3a" d="M184.78,405.46H167.73v42.67h17.05c12.87,0,20.71-6.71,20.71-21.33S197.65,405.46,184.78,405.46Zm12.56,22c-.06,9.33-4.48,13.93-12.56,13.93H175.7V412.24h9.08c8.08,0,12.56,4.61,12.56,13.94Z"></path><path fill="#3a3a3a" d="M226.34,405.46l-16.61,42.67h8.21l3.42-9.26h19.53l3.49,9.26H253l-16.61-42.67Zm-2.49,26.69,4.35-11.7c.87-2.3,2.43-7.28,2.74-8.15h.31c.31.87,1.87,5.91,2.74,8.15l4.35,11.7Z"></path><path fill="#3a3a3a" d="M289.36,430.84c0,.81.13,3,.13,3.36l-.31.12c-.19-.24-1.43-2.42-2.12-3.42l-18.53-25.44h-7.59v42.67h7.65V422.57c0-1.06-.13-3.11-.13-3.42l.31-.19c.19.25,1.12,2.05,2.12,3.48l18.66,25.7H297V405.46h-7.66Z"></path><path fill="#3a3a3a" d="M328.73,404.71c-13.38,0-21.46,7.1-21.46,22.09s8.08,22.08,21.46,22.08,21.52-7.09,21.52-22.08S342.1,404.71,328.73,404.71Zm13.37,22.77c0,9.77-4.66,14.68-13.37,14.68s-13.31-4.91-13.31-14.68v-1.3c0-9.77,4.72-14.75,13.31-14.75s13.37,5,13.37,14.75Z"></path><path fill="#296fce" d="M102.76,172a25.31,25.31,0,0,0,23.78,26.65c.49,0,1,0,1.46,0A25.26,25.26,0,1,0,102.76,172Z"></path><path fill="#296fce" d="M8.62,165.5a8.16,8.16,0,1,0,7.69,8.61A8.15,8.15,0,0,0,8.62,165.5Z"></path><path fill="#296fce" d="M101.16,25.43a8.16,8.16,0,1,0-11-3.62A8.18,8.18,0,0,0,101.16,25.43Z"></path><path fill="#296fce" d="M126.78,70.1a12.61,12.61,0,1,0-16.94-5.59A12.62,12.62,0,0,0,126.78,70.1Z"></path><path fill="#296fce" d="M40.58,100.82a10.39,10.39,0,1,0-3-14.38A10.39,10.39,0,0,0,40.58,100.82Z"></path><path fill="#296fce" d="M55.93,161a12.62,12.62,0,1,0,11.88,13.31A12.62,12.62,0,0,0,55.93,161Z"></path><path fill="#296fce" d="M42,245.72a10.39,10.39,0,1,0,13.95,4.6A10.37,10.37,0,0,0,42,245.72Z"></path><path fill="#296fce" d="M91,134.89a14.84,14.84,0,1,0-4.27-20.55A14.83,14.83,0,0,0,91,134.89Z"></path><path fill="#296fce" d="M246.47,69.1a12.62,12.62,0,1,0-3.63-17.47A12.61,12.61,0,0,0,246.47,69.1Z"></path><path fill="#296fce" d="M272.35,24.57A8.17,8.17,0,1,0,270,13.26,8.16,8.16,0,0,0,272.35,24.57Z"></path><path fill="#296fce" d="M248.45,147.91a25.25,25.25,0,0,0-2.87,50.42c.49,0,1,0,1.45,0a25.25,25.25,0,0,0,1.42-50.46Z"></path><path fill="#296fce" d="M135.08,133.14a25.25,25.25,0,1,0,22.53-36.62,25.25,25.25,0,0,0-22.53,36.62Z"></path><path fill="#296fce" d="M333,100.79a10.39,10.39,0,1,0-14-4.6A10.4,10.4,0,0,0,333,100.79Z"></path><path fill="#296fce" d="M269,108.83a14.84,14.84,0,1,0,19.94,6.58A14.86,14.86,0,0,0,269,108.83Z"></path><path fill="#296fce" d="M186.55,20.76a10.39,10.39,0,1,0-9.79-11A10.38,10.38,0,0,0,186.55,20.76Z"></path><path fill="#296fce" d="M186.43,86.13a14.84,14.84,0,1,0-14-15.66A14.85,14.85,0,0,0,186.43,86.13Z"></path><path fill="#296fce" d="M106,237.67a14.84,14.84,0,1,0-19.93-6.57A14.84,14.84,0,0,0,106,237.67Z"></path><path fill="#296fce" d="M196,107.79a25.22,25.22,0,1,0,21.14-11.41A25.28,25.28,0,0,0,196,107.79Z"></path><path fill="#296fce" d="M239.92,213.37a25.26,25.26,0,1,0-11.18,33.91A25.11,25.11,0,0,0,239.92,213.37Z"></path><path fill="#296fce" d="M284,211.61a14.85,14.85,0,1,0,4.27,20.55A14.85,14.85,0,0,0,284,211.61Z"></path><path fill="#296fce" d="M332.38,173.68a12.62,12.62,0,1,0-13.31,11.88A12.62,12.62,0,0,0,332.38,173.68Z"></path><path fill="#296fce" d="M367.3,164.71a8.16,8.16,0,1,0,7.69,8.61A8.17,8.17,0,0,0,367.3,164.71Z"></path><path fill="#296fce" d="M334.42,245.68a10.39,10.39,0,1,0,3,14.39A10.4,10.4,0,0,0,334.42,245.68Z"></path><path fill="#296fce" d="M102.65,321.94a8.16,8.16,0,1,0,2.34,11.3A8.17,8.17,0,0,0,102.65,321.94Z"></path><path fill="#296fce" d="M273.83,321.08a8.17,8.17,0,1,0,11,3.62A8.16,8.16,0,0,0,273.83,321.08Z"></path><path fill="#296fce" d="M179,238.71a25.25,25.25,0,1,0-21.14,11.41A25.1,25.1,0,0,0,179,238.71Z"></path><path fill="#296fce" d="M128.53,277.41a12.62,12.62,0,1,0,3.63,17.47A12.62,12.62,0,0,0,128.53,277.41Z"></path><path fill="#296fce" d="M187.38,325.74a10.39,10.39,0,1,0,9.78,11A10.39,10.39,0,0,0,187.38,325.74Z"></path><path fill="#296fce" d="M187.49,260.37a14.84,14.84,0,1,0,14,15.67A14.85,14.85,0,0,0,187.49,260.37Z"></path><path fill="#296fce" d="M248.21,276.4a12.62,12.62,0,1,0,17,5.59A12.62,12.62,0,0,0,248.21,276.4Z"></path></g></g></svg> 