<svg xmlns="http://www.w3.org/2000/svg" width="96" height="96" fill="none"><circle cx="48" cy="48" r="48" fill="#fff"/><g clip-path="url(#prefix__clip0)"><path fill="#1B75BC" d="M34.154 70.67L48.4 56.425 62.645 70.67l8.47-8.47L56.87 47.957 71.115 33.71l-8.47-8.47L48.4 39.484 34.154 25.24l-8.47 8.47L39.93 47.957 25.685 62.2l8.47 8.47z"/><path fill="#3C3C3B" d="M43.454 15.946l-8.32 8.32 7.009 7.007 6.257-6.332 6.256 6.332 7.01-7.008-8.32-8.319L48.4 11l-4.946 4.946zM43.454 80.054l-8.32-8.319 7.009-7.008L48.4 71.06l6.256-6.332 7.01 7.008-8.32 8.319L48.4 85l-4.946-4.946z"/></g><defs><clipPath id="prefix__clip0"><path fill="#fff" transform="translate(11 11)" d="M0 0h74v74H0z"/></clipPath></defs></svg>
