<svg xmlns="http://www.w3.org/2000/svg" width="37" height="37" fill="none"><rect width="36" height="36" x=".5" y=".5" fill="#F2F2F2" rx="18"/><rect width="36" height="36" x=".5" y=".5" stroke="#DEDEDE" rx="18"/><g clip-path="url(#a)"><path stroke="#075A5A" stroke-width="2.176" d="M18.5 35.912c9.616 0 17.412-7.796 17.412-17.412S28.116 1.088 18.5 1.088 1.088 8.884 1.088 18.5 8.884 35.912 18.5 35.912Z"/><mask id="b" width="13" height="19" x="13" y="9" maskUnits="userSpaceOnUse" style="mask-type:alpha"><path fill="#D9D9D9" d="M19.523 21.967a.56.56 0 0 1-.549.021l-5.603-2.885a.5.5 0 0 1-.213-.7l5.164-8.877a.553.553 0 0 1 .922-.034l5.807 8.464a.5.5 0 0 1-.16.713z"/><path fill="#D9D9D9" d="M19.895 27.502a.555.555 0 0 1-.879.033l-4.544-5.641c-.353-.439.175-1.028.686-.766l3.859 1.984c.172.089.382.08.547-.02l3.7-2.27c.49-.3 1.06.248.741.712z"/></mask><g filter="url(#c)" mask="url(#b)"><path fill="url(#d)" d="M37.536 47.286C27.194 48.332 13.08 38.85 11.868 28.159S14.779 5.853 25.12 4.806 51.495 8.83 52.706 19.521c1.211 10.692-4.83 26.717-15.17 27.765"/><mask id="f" width="42" height="44" x="11" y="4" maskUnits="userSpaceOnUse" style="mask-type:alpha"><path fill="url(#e)" d="M37.536 47.286C27.194 48.332 13.08 38.85 11.868 28.159S14.779 5.853 25.12 4.806 51.495 8.83 52.706 19.521c1.211 10.692-4.83 26.717-15.17 27.765"/></mask><g mask="url(#f)"><path fill="#075A5A" stroke="url(#g)" stroke-width=".078" d="m10.976 46.16 6.941-3.89c2.534-1.42 2.75-4.966.407-6.705L11.21 30.28c-1.426-1.059-1.295-3.219.247-4.084l6.396-3.586c2.535-1.422 2.747-4.973.4-6.71l-6.775-5.011a2.72 2.72 0 0 1-1.105-2.176v-.205a.873.873 0 0 0-1.301-.753l-6.978 3.938c-2.535 1.43-2.732 4.99-.372 6.716l7.11 5.204c1.436 1.051 1.317 3.217-.226 4.09L2.14 31.36c-2.53 1.432-2.728 4.986-.371 6.713l6.794 4.98a2.72 2.72 0 0 1 1.115 2.183v.168a.873.873 0 0 0 1.299.755Zm15.228-6.164 6.941-3.889c2.534-1.419 2.75-4.966.407-6.705l-7.115-5.285c-1.426-1.059-1.296-3.218.247-4.084l6.396-3.586c2.535-1.422 2.746-4.972.4-6.71l-6.775-5.011A2.72 2.72 0 0 1 25.6 2.55v-.206a.873.873 0 0 0-1.301-.753L17.321 5.53c-2.535 1.431-2.732 4.99-.373 6.716l7.11 5.204c1.437 1.051 1.317 3.217-.225 4.09l-6.466 3.658c-2.53 1.431-2.728 4.985-.372 6.712l6.795 4.98a2.72 2.72 0 0 1 1.115 2.183v.169a.873.873 0 0 0 1.299.754Z"/><path fill="#2BB386" fill-rule="evenodd" d="M.385 25.349a2.77 2.77 0 0 1 1.677 2.094 3.14 3.14 0 0 1 3.416-.41 3.12 3.12 0 0 1 1.743 2.959 2.83 2.83 0 0 1 2.925-.647 2.83 2.83 0 0 1 1.875 2.335 3.76 3.76 0 0 1 3.823-.338 3.74 3.74 0 0 1 2.13 3.185 2.252 2.252 0 0 1 3.468.84 2.83 2.83 0 0 1 2.964-1.238 2.85 2.85 0 0 1 2.232 2.32 3.87 3.87 0 0 1 3.861-1.063 3.87 3.87 0 0 1 2.745 2.921 3.97 3.97 0 0 1 4.18-.627 3.96 3.96 0 0 1 2.384 3.483 3.15 3.15 0 0 1 3.393-1.933 3.174 3.174 0 0 1 2.7 2.837 2.135 2.135 0 0 1 2.143-1.221c.905.086 1.66.73 1.885 1.606a2.13 2.13 0 0 1 1.817-.881c.718.03 1.374.417 1.745 1.03a1.33 1.33 0 0 1 1.22-.653c.498.026.942.325 1.152.776a1.89 1.89 0 0 1 1.848-.92c.747.084 1.376.6 1.602 1.313l-18.567-.046Q2.601 37.375-2.277 27.237l-.005-1.588a2.77 2.77 0 0 1 2.668-.301" clip-rule="evenodd"/><path fill="#1F9970" fill-rule="evenodd" d="M-.412 27.069c.612.259 1.053.808 1.17 1.458a2.89 2.89 0 0 1 2.955.137 2.86 2.86 0 0 1 1.278 2.656 2.63 2.63 0 0 1 2.902-.308 2.61 2.61 0 0 1 1.398 2.555 3.585 3.585 0 0 1 3.941-1.108 3.585 3.585 0 0 1 2.424 3.3 2.082 2.082 0 0 1 3.275.82 2.58 2.58 0 0 1 2.691-.746c.97.3 1.675 1.136 1.8 2.136a2.88 2.88 0 0 1 2.762-1.14 2.9 2.9 0 0 1 2.305 1.914 4 4 0 0 1 4.08-1.128 4.01 4.01 0 0 1 2.823 3.157 1.93 1.93 0 0 1 1.511-.508c.556.055 1.061.345 1.388.796a3.08 3.08 0 0 1 3.085-1.123 3.09 3.09 0 0 1 2.36 2.294 2.5 2.5 0 0 1 2.282-1.056 2.53 2.53 0 0 1 2.062 1.453 2.257 2.257 0 0 1 3.287.473l-12.36-.03Q6.946 41.314-2.267 29.984l-.007-2.743a1.97 1.97 0 0 1 1.863-.172" clip-rule="evenodd"/><path fill="#0A4F38" fill-rule="evenodd" d="M10.824 31.206a11 11 0 0 0-.41-.619c-.484-.694-.848-1.434.075-3.093.535-.961 1.074-1.858-.137-3.038 2.977 2.263-.639 3.266 1.083 5.732.561.803 1.322 1.637 1.068 3.174-.186 1.127-.921 2.11-1.994 2.665l-1.097-.929c1.594-.677 2.285-2.434 1.412-3.892" clip-rule="evenodd"/><path fill="#2B9C76" fill-rule="evenodd" d="M19.821 21.552c.152-.023.265.106.254.286-.01.18-.142.346-.293.368s-.265-.106-.254-.287c.01-.18.142-.345.293-.367M20.244 21.218c.089-.013.156.063.15.169s-.084.202-.173.215c-.089.014-.156-.062-.15-.168s.084-.203.173-.216M19.492 22.28c.09-.012.156.063.15.17-.007.105-.084.202-.173.215s-.155-.062-.149-.168.084-.203.172-.216M19.875 22.288c.09-.013.156.063.15.168-.007.107-.084.203-.173.216-.089.014-.156-.062-.15-.168s.084-.203.173-.216M20.296 21.868c.071-.01.124.05.119.134s-.066.16-.137.171c-.07.01-.124-.05-.118-.133.005-.084.066-.16.136-.172M19.213 22.897c.068-.018.128.035.133.12.004.083-.048.167-.116.185-.069.019-.129-.034-.133-.119s.047-.167.116-.186" clip-rule="evenodd"/><path fill="#1C966D" fill-rule="evenodd" d="M15.886 26.408q-.506-.437-1.458.235l.321.336-.352.004a.4.4 0 0 0 .348.456l.129-.206q.131.495.37.29.84-.579.829-.921.18-.172-.187-.195M13.382 20.012q-.333-.426-1.201-.04l.204.319-.282-.053a.32.32 0 0 0 .014.252.33.33 0 0 0 .19.167l.136-.145q.027.415.25.29.762-.33.808-.605.17-.109-.119-.185M16.292 16.436q-.096-.34-.72-.322l.044.243-.158-.101a.21.21 0 0 0 .02.303l.117-.053q-.088.257.08.237.545-.011.642-.166.131-.023-.026-.141" clip-rule="evenodd"/><path fill="#fff" d="M16.041 23.482a.17.17 0 0 1 .17-.17.17.17 0 1 1 0 .34.17.17 0 0 1-.17-.17"/><path fill="#fff" d="M16.377 23.037a.66.66 0 0 1 .658.653.654.654 0 0 1-.654.65.66.66 0 0 1-.658-.653c0-.18.072-.343.19-.46a.65.65 0 0 1 .464-.19m-.393 1.043a.56.56 0 0 0 .791.002.55.55 0 0 0-.002-.786.56.56 0 0 0-.79-.002.55.55 0 0 0 .001.786"/><path fill="#fff" d="M16.05 23.652c.048 0 .087.04.087.087a.087.087 0 0 1-.174 0c0-.048.039-.087.087-.087M18.3 22.751c0-.053.043-.096.096-.096s.097.043.097.096a.096.096 0 0 1-.096.096.097.097 0 0 1-.097-.096M18.3 22.843a.05.05 0 0 1 .048.049.05.05 0 0 1-.049.048.05.05 0 0 1-.049-.049c0-.026.022-.048.05-.048"/><path fill="#fff" d="M18.485 22.496a.37.37 0 0 1 .37.367.367.367 0 0 1-.63.258.367.367 0 0 1 0-.519.37.37 0 0 1 .26-.106m-.221.587a.32.32 0 0 0 .445.001.31.31 0 0 0 0-.443.317.317 0 0 0-.447 0 .31.31 0 0 0 .002.442M14.087 24.897c0-.053.043-.096.096-.096s.097.044.097.097a.096.096 0 0 1-.096.095.097.097 0 0 1-.097-.096"/><path fill="#fff" d="M14.272 24.642a.37.37 0 0 1 .37.367.367.367 0 0 1-.368.366.37.37 0 0 1-.37-.368.363.363 0 0 1 .368-.365m-.221.587a.317.317 0 0 0 .445.001.313.313 0 0 0-.001-.443.317.317 0 0 0-.446 0 .313.313 0 0 0 .001.443"/><path fill="#fff" d="M14.086 24.99a.05.05 0 0 1 .05.048.05.05 0 0 1-.05.049.05.05 0 0 1-.049-.05c0-.026.022-.048.049-.048M18.498 21.073c.017 0 .03.014.03.03a.03.03 0 0 1-.03.031.03.03 0 0 1-.031-.03.03.03 0 0 1 .03-.031M18.5 21.01a.06.06 0 0 1 .062-.06c.033 0 .06.027.06.06a.06.06 0 0 1-.06.06.06.06 0 0 1-.061-.06"/><path fill="#fff" d="M18.62 20.855a.235.235 0 0 1 .235.233.233.233 0 0 1-.233.231.234.234 0 0 1-.235-.232.233.233 0 0 1 .233-.232m-.14.372a.2.2 0 0 0 .282 0 .197.197 0 0 0 0-.28.2.2 0 0 0-.282 0 .198.198 0 0 0 0 .28M19.74 19.844a.06.06 0 0 1 .06.06.06.06 0 0 1-.06.06.06.06 0 0 1-.06-.06.06.06 0 0 1 .06-.06M19.729 19.73c0-.064.053-.117.119-.117a.12.12 0 0 1 .12.119.12.12 0 0 1-.12.117.12.12 0 0 1-.119-.118"/><path fill="#fff" d="M19.967 19.424a.46.46 0 0 1 .456.453.452.452 0 0 1-.454.451.46.46 0 0 1-.456-.453.453.453 0 0 1 .454-.451m-.273.724a.39.39 0 0 0 .55.002.38.38 0 0 0-.002-.546.39.39 0 0 0-.55-.002.386.386 0 0 0 .002.546M20.292 18.124c.016 0 .03.013.03.029a.03.03 0 0 1-.03.028.03.03 0 0 1-.028-.029c0-.015.012-.028.028-.028M20.287 18.064a.057.057 0 0 1 .113 0 .056.056 0 0 1-.056.057.057.057 0 0 1-.057-.057"/><path fill="#fff" d="M20.401 17.92a.217.217 0 0 1 .217.216.214.214 0 0 1-.216.214.217.217 0 0 1-.217-.215.215.215 0 0 1 .216-.214m-.13.345a.186.186 0 0 0 .262.001.18.18 0 0 0-.001-.26.185.185 0 0 0-.315.13c0 .05.02.096.054.13M19.02 16.896c.032 0 .058.026.058.057a.06.06 0 0 1-.058.058.06.06 0 0 1-.058-.058c0-.032.026-.058.058-.058M19.015 16.785a.115.115 0 0 1 .23 0 .114.114 0 0 1-.115.114.115.115 0 0 1-.115-.114"/><path fill="#fff" d="M19.24 16.49a.44.44 0 0 1 .439.436.435.435 0 0 1-.437.434.44.44 0 0 1-.439-.436.436.436 0 0 1 .437-.434m-.263.697a.375.375 0 0 0 .53.001.367.367 0 0 0-.002-.525.376.376 0 0 0-.53-.002.37.37 0 0 0 .002.526M18.076 16.043c.015 0 .026.012.027.026a.026.026 0 0 1-.027.026.026.026 0 0 1-.026-.026c0-.014.012-.026.026-.026M18.072 16c0-.028.023-.051.051-.051a.05.05 0 1 1 0 .102.05.05 0 0 1-.051-.051"/><path fill="#fff" d="M18.173 15.862a.2.2 0 0 1 .197.196.196.196 0 0 1-.196.195.2.2 0 0 1-.197-.196.196.196 0 0 1 .196-.195m-.118.313a.17.17 0 0 0 .238 0 .166.166 0 0 0 0-.236.17.17 0 0 0-.239 0 .165.165 0 0 0 0 .236M16.996 14.865c.028 0 .051.023.051.051a.05.05 0 0 1-.05.051.05.05 0 0 1-.052-.051c0-.028.023-.051.05-.051M16.99 14.77a.1.1 0 0 1 .1-.1c.057 0 .102.045.102.1a.102.102 0 0 1-.203 0"/><path fill="#fff" d="M17.188 14.502a.39.39 0 0 1 .388.386.38.38 0 0 1-.386.384.39.39 0 0 1-.389-.386.386.386 0 0 1 .386-.384m-.233.617a.333.333 0 0 0 .468.002.329.329 0 0 0-.001-.465.333.333 0 0 0-.468-.002.328.328 0 0 0 .001.465M15.477 13.976c.013 0 .024.01.024.023a.024.024 0 0 1-.048 0q.002-.021.024-.023M15.471 13.929c0-.026.021-.047.048-.047a.047.047 0 1 1 0 .094.047.047 0 0 1-.048-.047"/><path fill="#fff" d="M15.566 13.802a.18.18 0 0 1 .181.18.18.18 0 0 1-.18.18.18.18 0 0 1-.181-.18c0-.05.02-.095.052-.127a.18.18 0 0 1 .128-.053m-.109.288a.155.155 0 0 0 .219 0 .15.15 0 0 0 0-.216.155.155 0 0 0-.22 0 .153.153 0 0 0 0 .217M14.704 13.044c.013 0 .024.01.024.024 0 .013-.011.024-.024.024a.024.024 0 0 1-.024-.024c0-.013.01-.024.024-.024M14.698 12.997c0-.026.021-.047.047-.047.027 0 .048.02.048.047a.047.047 0 0 1-.047.047.05.05 0 0 1-.048-.047"/><path fill="#fff" d="M14.793 12.87a.18.18 0 0 1 .18.18.18.18 0 0 1-.18.18.18.18 0 0 1-.18-.18.18.18 0 0 1 .18-.18m-.109.288a.156.156 0 0 0 .219 0 .15.15 0 0 0-.001-.217.155.155 0 0 0-.218 0 .15.15 0 0 0 0 .217M13.161 12.155c.043 0 .078.035.078.077a.077.077 0 0 1-.077.077.08.08 0 0 1-.078-.077c0-.042.034-.077.077-.077M13.15 12.003a.154.154 0 0 1 .306 0 .15.15 0 0 1-.153.152.154.154 0 0 1-.153-.152"/><path fill="#fff" d="M13.448 11.604a.59.59 0 0 1 .587.583.582.582 0 0 1-.584.58.59.59 0 0 1-.587-.583.583.583 0 0 1 .584-.58m-.35.932a.5.5 0 0 0 .707.002.49.49 0 0 0-.002-.703.503.503 0 0 0-.708-.002.496.496 0 0 0 .002.703"/><path fill="#075A5A" d="M-162.851 725.16c-165.692 16.78-391.858-135.147-411.267-306.468s46.638-357.42 212.329-374.199c165.691-16.78 422.612 64.47 442.021 235.791C99.642 451.606 2.84 708.381-162.85 725.16" style="mix-blend-mode:hue"/><path fill="#075A5A" d="M-162.851 725.16c-165.692 16.78-391.858-135.147-411.267-306.468s46.638-357.42 212.329-374.199c165.691-16.78 422.612 64.47 442.021 235.791C99.642 451.606 2.84 708.381-162.85 725.16" style="mix-blend-mode:saturation"/></g></g></g><circle cx="28.784" cy="28.784" r="7.784" fill="#000" stroke="#363232" stroke-width=".432"/><path fill="#075A5A" d="m30.438 23.275-1.709.967a.983.983 0 0 0-.104 1.643l1.745 1.302a.614.614 0 0 1-.065 1.027l-1.574.891a.983.983 0 0 0-.102 1.644l1.66 1.235a.68.68 0 0 1 .275.545v.05c0 .157.168.255.304.178l1.718-.98a.983.983 0 0 0 .096-1.645l-1.744-1.282a.614.614 0 0 1 .06-1.028l1.591-.91a.983.983 0 0 0 .095-1.644l-1.666-1.227a.68.68 0 0 1-.276-.547v-.041a.204.204 0 0 0-.304-.178"/><path fill="#075A5A" d="m26.69 24.81-1.708.967a.983.983 0 0 0-.104 1.643l1.745 1.302a.614.614 0 0 1-.065 1.027l-1.574.891a.983.983 0 0 0-.102 1.644l1.66 1.235a.68.68 0 0 1 .275.545v.05c0 .157.168.255.304.178l1.718-.98a.983.983 0 0 0 .096-1.644l-1.744-1.283a.614.614 0 0 1 .06-1.028l1.591-.909a.983.983 0 0 0 .096-1.645l-1.667-1.227a.68.68 0 0 1-.276-.547v-.041a.204.204 0 0 0-.304-.178"/><defs><linearGradient id="d" x1="49.689" x2="11.884" y1="24.008" y2="28.291" gradientUnits="userSpaceOnUse"><stop stop-color="#075A5A"/><stop offset="1" stop-color="#136969"/></linearGradient><linearGradient id="e" x1="49.689" x2="11.884" y1="24.008" y2="28.291" gradientUnits="userSpaceOnUse"><stop stop-color="#075A5A"/><stop offset="1" stop-color="#136969"/></linearGradient><linearGradient id="g" x1="15.915" x2="8.263" y1="10.238" y2="29.441" gradientUnits="userSpaceOnUse"><stop stop-color="#fff"/><stop offset="1" stop-color="#fff" stop-opacity="0"/></linearGradient><clipPath id="a"><path fill="#fff" d="M0 0h37v37H0z"/></clipPath><filter id="c" width="74.144" height="75.642" x="-4.81" y="-8.142" color-interpolation-filters="sRGB" filterUnits="userSpaceOnUse"><feFlood flood-opacity="0" result="BackgroundImageFix"/><feColorMatrix in="SourceAlpha" result="hardAlpha" values="0 0 0 0 0 0 0 0 0 0 0 0 0 0 0 0 0 0 127 0"/><feOffset dy="3.661"/><feGaussianBlur stdDeviation="8.237"/><feComposite in2="hardAlpha" operator="out"/><feColorMatrix values="0 0 0 0 0.566667 0 0 0 0 0.566667 0 0 0 0 0.566667 0 0 0 0.25 0"/><feBlend in2="BackgroundImageFix" result="effect1_dropShadow_4829_4544"/><feBlend in="SourceGraphic" in2="effect1_dropShadow_4829_4544" result="shape"/><feColorMatrix in="SourceAlpha" result="hardAlpha" values="0 0 0 0 0 0 0 0 0 0 0 0 0 0 0 0 0 0 127 0"/><feOffset dy="2.615"/><feGaussianBlur stdDeviation="1.569"/><feComposite in2="hardAlpha" k2="-1" k3="1" operator="arithmetic"/><feColorMatrix values="0 0 0 0 1 0 0 0 0 1 0 0 0 0 1 0 0 0 0.25 0"/><feBlend in2="shape" result="effect2_innerShadow_4829_4544"/></filter></defs></svg>