<svg width="37" height="37" viewBox="0 0 37 37" fill="none" xmlns="http://www.w3.org/2000/svg">
<rect x="0.5" y="0.5" width="36" height="36" rx="18" fill="#F2F2F2"/>
<rect x="0.5" y="0.5" width="36" height="36" rx="18" stroke="#DEDEDE"/>
<g clip-path="url(#clip0_4829_4544)">
<path d="M18.5 35.9119C28.1162 35.9119 35.9117 28.1164 35.9117 18.5001C35.9117 8.88388 28.1162 1.08838 18.5 1.08838C8.88376 1.08838 1.08826 8.88388 1.08826 18.5001C1.08826 28.1164 8.88376 35.9119 18.5 35.9119Z" stroke="#075A5A" stroke-width="2.17647"/>
<mask id="mask0_4829_4544" style="mask-type:alpha" maskUnits="userSpaceOnUse" x="13" y="9" width="13" height="19">
<path d="M19.5228 21.9673C19.3573 22.0691 19.147 22.077 18.9743 21.988L13.3709 19.103C13.108 18.9675 13.0121 18.6536 13.1575 18.4037L18.3218 9.52615C18.5189 9.18738 19.0227 9.16848 19.2443 9.49155L25.0511 17.9556C25.2145 18.1938 25.1423 18.5138 24.8904 18.6687L19.5228 21.9673Z" fill="#D9D9D9"/>
<path d="M19.8946 27.5023C19.6906 27.7983 19.2417 27.8152 19.0163 27.5353L14.4723 21.8937C14.119 21.4551 14.6468 20.8656 15.1578 21.1283L19.0166 23.1121C19.1891 23.2007 19.399 23.1928 19.5644 23.0913L23.2647 20.8227C23.7546 20.5223 24.3248 21.0703 24.0053 21.5344L19.8946 27.5023Z" fill="#D9D9D9"/>
</mask>
<g mask="url(#mask0_4829_4544)">
<g filter="url(#filter0_di_4829_4544)">
<path d="M37.5355 47.2855C27.195 48.3326 13.0804 38.8512 11.869 28.1593C10.6577 17.4674 14.7796 5.8533 25.1201 4.80613C35.4607 3.75896 51.4947 8.82964 52.706 19.5215C53.9173 30.2134 47.876 46.2383 37.5355 47.2855Z" fill="url(#paint0_linear_4829_4544)"/>
<mask id="mask1_4829_4544" style="mask-type:alpha" maskUnits="userSpaceOnUse" x="11" y="4" width="42" height="44">
<path d="M37.5355 47.2855C27.195 48.3326 13.0804 38.8512 11.869 28.1593C10.6577 17.4674 14.7796 5.8533 25.1201 4.80613C35.4607 3.75896 51.4947 8.82964 52.706 19.5215C53.9173 30.2134 47.876 46.2383 37.5355 47.2855Z" fill="url(#paint1_linear_4829_4544)"/>
</mask>
<g mask="url(#mask1_4829_4544)">
<path d="M10.9759 46.1591L17.9173 42.2702C20.451 40.8507 20.6663 37.304 18.3241 35.5646L11.2093 30.2803C9.78306 29.221 9.91358 27.0614 11.4563 26.1963L17.8517 22.6099C20.387 21.1882 20.5985 17.6374 18.2513 15.9006L11.4774 10.8885C10.7846 10.3758 10.3748 9.56928 10.3722 8.71348L10.3716 8.5079C10.3696 7.84543 9.64866 7.42848 9.07104 7.75451L2.09335 11.6929C-0.441649 13.1238 -0.639226 16.6823 1.72056 18.4093L8.8302 23.6127C10.2667 24.6641 10.1476 26.8299 8.60516 27.7025L2.13922 31.3604C-0.39182 32.7922 -0.588676 36.3462 1.76751 38.0732L8.56209 43.0534C9.26081 43.5655 9.67475 44.3756 9.67724 45.2357L9.6778 45.4043C9.67974 46.0656 10.3983 46.4827 10.9759 46.1591ZM26.2038 39.9963L33.1452 36.1075C35.6789 34.688 35.8942 31.1413 33.5521 29.4017L26.4372 24.1175C25.011 23.0582 25.1415 20.8987 26.6842 20.0335L33.0796 16.4471C35.6149 15.0254 35.8264 11.4747 33.4792 9.73791L26.7054 4.72573C26.0125 4.21307 25.6027 3.4065 25.6001 2.55073L25.5995 2.34515C25.5975 1.68266 24.8766 1.26573 24.299 1.59175L17.3213 5.53017C14.7863 6.961 14.5887 10.5194 16.9485 12.2465L24.0581 17.45C25.4947 18.5014 25.3755 20.6672 23.8331 21.5398L17.3671 25.1976C14.8361 26.6295 14.6392 30.1834 16.9955 31.9104L23.79 36.8906C24.4887 37.4027 24.9027 38.2128 24.9051 39.073L24.9057 39.2416C24.9076 39.9028 25.6262 40.3199 26.2038 39.9963Z" fill="#075A5A" stroke="url(#paint2_linear_4829_4544)" stroke-width="0.0784374"/>
<path fill-rule="evenodd" clip-rule="evenodd" d="M0.385385 25.3487C1.26955 25.7137 1.90357 26.5057 2.0618 27.4433C3.012 26.6403 4.35557 26.4789 5.47764 27.0331C6.60018 27.5872 7.28566 28.751 7.22127 29.9916C7.98805 29.2363 9.12377 28.9852 10.1458 29.3447C11.1679 29.7044 11.8959 30.6113 12.0209 31.6801C13.1321 30.877 14.6006 30.747 15.8444 31.3415C17.0882 31.9366 17.9064 33.1598 17.9745 34.5272C18.5153 34.0889 19.2328 33.9284 19.9137 34.0933C20.594 34.2583 21.1599 34.7295 21.4422 35.3671C22.0724 34.3814 23.2522 33.8887 24.406 34.1288C25.5599 34.369 26.448 35.292 26.6376 36.4483C27.6203 35.4048 29.1093 34.995 30.499 35.3856C31.8888 35.7767 32.947 36.9032 33.2439 38.307C34.3944 37.3135 36.0209 37.0693 37.4232 37.6796C38.8256 38.2899 39.7537 39.6451 39.8083 41.1628C40.349 39.8141 41.7519 39.0146 43.2008 39.2297C44.6496 39.4448 45.7662 40.6186 45.9003 42.0674C46.2796 41.2486 47.1384 40.7595 48.0439 40.8457C48.9489 40.932 49.7042 41.5756 49.929 42.4516C50.345 41.8717 51.0279 41.5406 51.7459 41.5706C52.4639 41.6005 53.1203 41.9879 53.4914 42.6008C53.7426 42.1738 54.2128 41.9223 54.7111 41.9484C55.2095 41.9744 55.6533 42.2735 55.8631 42.7241C56.2391 42.0797 56.9642 41.7187 57.7111 41.8036C58.458 41.8885 59.0866 42.4037 59.3134 43.1165L40.7461 43.0705C15.3162 39.2741 0.974865 33.9962 -2.27732 27.2368L-2.28162 25.649C-1.50709 25.0966 -0.497839 24.9826 0.386335 25.3476L0.385385 25.3487Z" fill="#2BB386"/>
<path fill-rule="evenodd" clip-rule="evenodd" d="M-0.411926 27.0685C0.20047 27.3279 0.640662 27.8765 0.758708 28.5266C1.69051 28.0262 2.82707 28.0791 3.71329 28.6642C4.5995 29.2493 5.09095 30.2708 4.99144 31.3203C5.80263 30.6406 6.94977 30.5188 7.8934 31.0119C8.83702 31.505 9.38949 32.5146 9.29089 33.5666C10.2368 32.4118 11.8108 31.9697 13.2325 32.4593C14.6542 32.9493 15.6221 34.2669 15.656 35.7593C16.1642 35.3286 16.8518 35.1689 17.5019 35.3319C18.152 35.4943 18.6847 35.9592 18.9315 36.579C19.5993 35.8249 20.6528 35.5325 21.6222 35.8329C22.5917 36.1327 23.2966 36.9689 23.4228 37.9689C24.0543 37.1054 25.1188 36.6655 26.1845 36.8281C27.2499 36.9907 28.1383 37.729 28.489 38.7429C29.5157 37.6212 31.0992 37.1836 32.5684 37.6154C34.0375 38.0472 35.1335 39.273 35.3923 40.7723C35.7978 40.3938 36.3484 40.2085 36.9035 40.2638C37.4587 40.3191 37.964 40.6092 38.2906 41.0601C39.0117 40.1243 40.2127 39.6872 41.3763 39.9374C42.5398 40.1876 43.4581 41.0801 43.7351 42.2305C44.2473 41.4955 45.1187 41.0924 46.0176 41.1748C46.9164 41.2573 47.7035 41.8121 48.08 42.6284C48.5652 42.2286 49.199 42.0521 49.8249 42.1424C50.4508 42.2323 51.0105 42.5808 51.3666 43.1015L39.0072 43.0708C17.6331 41.8998 3.87525 37.537 -2.26699 29.9836L-2.27441 27.2415C-1.72425 26.8743 -1.02337 26.8092 -0.410969 27.0685H-0.411926Z" fill="#1F9970"/>
<path fill-rule="evenodd" clip-rule="evenodd" d="M10.8239 31.2062C10.7052 31.0078 10.5662 30.805 10.4143 30.5874C9.93039 29.8935 9.56566 29.1531 10.489 27.4941C11.0241 26.533 11.5632 25.6358 10.352 24.4565C13.3291 26.7191 9.71311 27.7223 11.4347 30.1875C11.9963 30.9914 12.7567 31.8254 12.5029 33.3624C12.3171 34.4891 11.5817 35.4712 10.5088 36.0271C9.77767 35.408 9.41211 35.0982 9.41211 35.0982C11.0061 34.4209 11.6971 32.6639 10.8239 31.2062Z" fill="#0A4F38"/>
<path fill-rule="evenodd" clip-rule="evenodd" d="M19.8213 21.5519C19.9726 21.5293 20.0863 21.658 20.0753 21.8384C20.0643 22.0188 19.933 22.1838 19.7817 22.2058C19.6305 22.2283 19.5167 22.0996 19.5277 21.9192C19.5388 21.7387 19.67 21.5739 19.8213 21.5519Z" fill="#2B9C76"/>
<path fill-rule="evenodd" clip-rule="evenodd" d="M20.2438 21.2183C20.3327 21.2051 20.3997 21.2807 20.3933 21.3866C20.3868 21.4927 20.3098 21.5893 20.2209 21.6025C20.132 21.6157 20.065 21.54 20.0715 21.4341C20.0779 21.3281 20.155 21.2314 20.2438 21.2183Z" fill="#2B9C76"/>
<path fill-rule="evenodd" clip-rule="evenodd" d="M19.4923 22.2808C19.5812 22.2676 19.6482 22.3432 19.6418 22.4492C19.6353 22.5551 19.5583 22.6519 19.4694 22.665C19.3805 22.6782 19.3135 22.6026 19.32 22.4966C19.3264 22.3907 19.4035 22.2939 19.4923 22.2808Z" fill="#2B9C76"/>
<path fill-rule="evenodd" clip-rule="evenodd" d="M19.8752 22.2881C19.9641 22.275 20.0311 22.3505 20.0246 22.4565C20.0182 22.5625 19.9411 22.6592 19.8522 22.6724C19.7634 22.6855 19.6964 22.6099 19.7028 22.5039C19.7093 22.398 19.7863 22.3012 19.8752 22.2881Z" fill="#2B9C76"/>
<path fill-rule="evenodd" clip-rule="evenodd" d="M20.2964 21.8684C20.3671 21.858 20.4201 21.9178 20.415 22.0018C20.4099 22.0858 20.3487 22.1626 20.278 22.1733C20.2074 22.1837 20.1544 22.1239 20.1595 22.0398C20.1645 21.9559 20.2258 21.8792 20.2964 21.8684Z" fill="#2B9C76"/>
<path fill-rule="evenodd" clip-rule="evenodd" d="M19.2126 22.8972C19.2813 22.8787 19.341 22.9319 19.3455 23.0164C19.3501 23.1004 19.2984 23.1839 19.2298 23.2023C19.1611 23.2208 19.1014 23.1676 19.0968 23.0831C19.0922 22.9991 19.1439 22.9156 19.2126 22.8972Z" fill="#2B9C76"/>
<path fill-rule="evenodd" clip-rule="evenodd" d="M15.8855 26.4075C15.5489 26.1168 15.063 26.1953 14.4275 26.643C14.642 26.8673 14.7493 26.9794 14.7493 26.9794C14.5148 26.982 14.3974 26.9828 14.3974 26.9828C14.3821 27.089 14.4102 27.197 14.4754 27.2828C14.5406 27.3684 14.6376 27.4251 14.7448 27.4394C14.7448 27.4394 14.7878 27.3707 14.8736 27.2329C14.9616 27.563 15.0849 27.6599 15.2449 27.5237C15.8042 27.1375 16.0802 26.8304 16.0728 26.6016C16.1927 26.4873 16.1299 26.4231 15.8855 26.4075Z" fill="#1C966D"/>
<path fill-rule="evenodd" clip-rule="evenodd" d="M13.3823 20.0123C13.1601 19.7278 12.7593 19.7149 12.181 19.9722C12.3166 20.1845 12.3845 20.2906 12.3845 20.2906C12.1971 20.2558 12.1029 20.2383 12.1029 20.2383C12.0737 20.3204 12.0788 20.4111 12.1175 20.4895C12.1562 20.5679 12.2245 20.6282 12.3078 20.6566C12.3078 20.6566 12.3528 20.6085 12.4434 20.5123C12.4609 20.7892 12.5443 20.8853 12.6935 20.8017C13.2009 20.5815 13.4698 20.3797 13.5006 20.1965C13.6142 20.1242 13.5751 20.0629 13.3823 20.0123Z" fill="#1C966D"/>
<path fill-rule="evenodd" clip-rule="evenodd" d="M16.2915 16.4359C16.2279 16.2088 15.9879 16.1019 15.572 16.1142C15.601 16.2762 15.6156 16.357 15.6156 16.357C15.5102 16.2894 15.4577 16.2555 15.4577 16.2555C15.4193 16.298 15.4 16.354 15.4035 16.4111C15.407 16.4682 15.4335 16.5214 15.4771 16.5594C15.4771 16.5594 15.5167 16.5417 15.5953 16.5059C15.5366 16.6777 15.5633 16.7567 15.6745 16.7431C16.038 16.7356 16.2518 16.6801 16.3167 16.5767C16.4038 16.561 16.3959 16.5145 16.2915 16.4359Z" fill="#1C966D"/>
<path d="M16.041 23.482C16.0407 23.388 16.1174 23.3122 16.2116 23.3125C16.3058 23.3127 16.3829 23.3888 16.3831 23.4829C16.3834 23.5769 16.3067 23.6526 16.2125 23.6523C16.1183 23.6522 16.0412 23.5756 16.041 23.482Z" fill="white"/>
<path d="M16.3771 23.0366C16.5582 23.0371 16.7223 23.1105 16.8412 23.2287C16.9603 23.347 17.0342 23.5099 17.0347 23.6899C17.0352 23.8699 16.9621 24.0325 16.8437 24.1497C16.7254 24.2668 16.5617 24.3399 16.3806 24.3394C16.1994 24.339 16.0354 24.2656 15.9163 24.1474C15.7974 24.0291 15.7234 23.8662 15.7229 23.6866C15.7224 23.5072 15.7955 23.344 15.9138 23.2264C16.0322 23.1088 16.1959 23.0362 16.3771 23.0366ZM15.9844 24.0797C16.0861 24.1807 16.2261 24.2431 16.3803 24.2435C16.5346 24.2438 16.6742 24.1821 16.7754 24.0817C16.8765 23.9812 16.9385 23.8424 16.9382 23.6892C16.9377 23.5359 16.8749 23.3968 16.7732 23.2959C16.6716 23.1949 16.5315 23.1325 16.3773 23.1321C16.223 23.1317 16.0834 23.1934 15.9823 23.2939C15.8812 23.3944 15.8191 23.5332 15.8195 23.6864C15.8199 23.8396 15.8827 23.9787 15.9844 24.0797Z" fill="white"/>
<path d="M16.0499 23.6523C16.0979 23.6524 16.1369 23.6912 16.1371 23.7389C16.1372 23.7867 16.0984 23.8253 16.0504 23.8251C16.0023 23.825 15.9632 23.7863 15.9631 23.7386C15.963 23.6908 16.0018 23.6523 16.0499 23.6523Z" fill="white"/>
<path d="M18.2998 22.751C18.2997 22.698 18.3428 22.6552 18.3962 22.6553C18.4495 22.6555 18.4929 22.6985 18.493 22.7515C18.4931 22.8045 18.45 22.8474 18.3967 22.8472C18.3433 22.8471 18.3 22.804 18.2998 22.751Z" fill="white"/>
<path d="M18.2991 22.8428C18.326 22.8429 18.3482 22.8649 18.3483 22.8916C18.3484 22.9183 18.3263 22.9403 18.2994 22.9402C18.2724 22.9401 18.2503 22.9181 18.2502 22.8913C18.2502 22.8646 18.2722 22.8427 18.2991 22.8428Z" fill="white"/>
<path d="M18.485 22.4956C18.5868 22.4959 18.6792 22.5371 18.7461 22.6036C18.8131 22.6702 18.8547 22.762 18.855 22.8632C18.8553 22.9644 18.8142 23.056 18.7476 23.1221C18.681 23.1883 18.5888 23.2291 18.4869 23.2289C18.3851 23.2287 18.2927 23.1874 18.2257 23.1208C18.1588 23.0543 18.1172 22.9625 18.1169 22.8614C18.1167 22.7602 18.1577 22.6686 18.2243 22.6024C18.2909 22.5362 18.3831 22.4953 18.485 22.4956ZM18.2636 23.0833C18.3209 23.1401 18.3998 23.1752 18.4868 23.1755C18.5738 23.1757 18.6525 23.141 18.7095 23.0844C18.7666 23.0277 18.8014 22.9495 18.8012 22.863C18.801 22.7766 18.7656 22.6983 18.7083 22.6413C18.6509 22.5843 18.572 22.5493 18.4851 22.5491C18.3981 22.5489 18.3194 22.5836 18.2624 22.6402C18.2054 22.6969 18.1705 22.775 18.1707 22.8614C18.171 22.9479 18.2063 23.0263 18.2636 23.0833Z" fill="white"/>
<path d="M14.0867 24.897C14.0866 24.844 14.1297 24.8012 14.1831 24.8013C14.2363 24.8015 14.2797 24.8446 14.2799 24.8976C14.28 24.9506 14.2369 24.9934 14.1835 24.9932C14.1302 24.9931 14.0869 24.95 14.0867 24.897Z" fill="white"/>
<path d="M14.272 24.6416C14.3738 24.6419 14.4662 24.6831 14.5332 24.7497C14.6002 24.8162 14.6417 24.908 14.642 25.0092C14.6423 25.1104 14.6012 25.202 14.5346 25.2682C14.468 25.3343 14.3758 25.3752 14.2739 25.3749C14.1721 25.3747 14.0797 25.3334 14.0127 25.2669C13.9457 25.2003 13.9042 25.1085 13.9039 25.0073C13.9037 24.9062 13.9447 24.8146 14.0113 24.7484C14.0779 24.6822 14.1701 24.6414 14.272 24.6416ZM14.0506 25.2293C14.1079 25.2862 14.1868 25.3212 14.2738 25.3215C14.3608 25.3217 14.4395 25.287 14.4965 25.2304C14.5536 25.1737 14.5884 25.0955 14.5882 25.0091C14.588 24.9226 14.5526 24.8443 14.4953 24.7873C14.4379 24.7304 14.359 24.6953 14.2721 24.6951C14.1851 24.6949 14.1064 24.7296 14.0494 24.7862C13.9924 24.8429 13.9575 24.921 13.9578 25.0075C13.958 25.0939 13.9933 25.1723 14.0506 25.2293Z" fill="white"/>
<path d="M14.086 24.9893C14.1129 24.9894 14.1351 25.0114 14.1352 25.0381C14.1353 25.0648 14.1131 25.0868 14.0862 25.0867C14.0593 25.0866 14.0372 25.0646 14.0371 25.0378C14.037 25.0111 14.0591 24.9892 14.086 24.9893Z" fill="white"/>
<path d="M18.4978 21.0728C18.5148 21.0728 18.5289 21.0867 18.5289 21.1036C18.529 21.1206 18.515 21.1344 18.498 21.1344C18.481 21.1343 18.4669 21.1204 18.4669 21.1035C18.4668 21.0865 18.4808 21.0727 18.4978 21.0728Z" fill="white"/>
<path d="M18.5006 21.0098C18.5005 20.9762 18.5278 20.9491 18.5616 20.9492C18.5953 20.9493 18.6228 20.9765 18.6229 21.0101C18.623 21.0437 18.5957 21.0708 18.5619 21.0707C18.5282 21.0706 18.5007 21.0433 18.5006 21.0098Z" fill="white"/>
<path d="M18.6204 20.855C18.6848 20.8552 18.7433 20.8813 18.7857 20.9234C18.8281 20.9655 18.8544 21.0236 18.8546 21.0877C18.8548 21.1517 18.8288 21.2097 18.7866 21.2516C18.7444 21.2934 18.6861 21.3193 18.6217 21.3191C18.5571 21.319 18.4986 21.2929 18.4563 21.2508C18.4139 21.2086 18.3875 21.1506 18.3875 21.0865C18.3873 21.0224 18.4133 20.9645 18.4554 20.9226C18.4975 20.8807 18.5559 20.8549 18.6204 20.855ZM18.4802 21.2269C18.5166 21.263 18.5664 21.2852 18.6216 21.2853C18.6766 21.2855 18.7264 21.2636 18.7624 21.2277C18.7986 21.1918 18.8206 21.1423 18.8205 21.0876C18.8204 21.0329 18.7981 20.9833 18.7617 20.9472C18.7254 20.9112 18.6755 20.889 18.6205 20.8888C18.5654 20.8887 18.5156 20.9107 18.4795 20.9466C18.4434 20.9824 18.4213 21.0319 18.4215 21.0866C18.4216 21.1413 18.444 21.1909 18.4802 21.2269Z" fill="white"/>
<path d="M19.7402 19.8438C19.7735 19.8438 19.8007 19.8709 19.8008 19.904C19.8009 19.9369 19.7737 19.9639 19.7405 19.9638C19.7074 19.9637 19.68 19.9366 19.6799 19.9036C19.6798 19.8707 19.707 19.8437 19.7402 19.8438Z" fill="white"/>
<path d="M19.729 19.7308C19.7288 19.6655 19.782 19.6126 19.8478 19.6128C19.9136 19.613 19.9671 19.6661 19.9673 19.7315C19.9675 19.7968 19.9143 19.8497 19.8484 19.8495C19.7827 19.8493 19.7292 19.7962 19.729 19.7308Z" fill="white"/>
<path d="M19.9671 19.4238C20.0927 19.4241 20.2067 19.4751 20.2893 19.5571C20.3719 19.6392 20.4231 19.7523 20.4234 19.8771C20.4238 20.002 20.3731 20.1148 20.2909 20.1965C20.2088 20.2782 20.0952 20.3285 19.9695 20.3282C19.8439 20.3278 19.73 20.277 19.6474 20.1949C19.5648 20.1129 19.5136 19.9996 19.5132 19.8749C19.5128 19.7501 19.5635 19.6371 19.6456 19.5555C19.7278 19.4739 19.8415 19.4235 19.9671 19.4238ZM19.6941 20.1485C19.7648 20.2188 19.8621 20.262 19.9694 20.2622C20.0766 20.2625 20.1737 20.2197 20.244 20.1499C20.3143 20.0799 20.3573 19.9835 20.3571 19.877C20.3568 19.7704 20.3132 19.6737 20.2425 19.6035C20.1718 19.5333 20.0745 19.4901 19.9673 19.4898C19.86 19.4895 19.7629 19.5322 19.6926 19.6021C19.6222 19.672 19.5792 19.7685 19.5795 19.875C19.5799 19.9816 19.6234 20.0783 19.6941 20.1485Z" fill="white"/>
<path d="M20.2923 18.124C20.3081 18.124 20.3211 18.137 20.3211 18.1526C20.3212 18.1682 20.3083 18.1811 20.2925 18.1811C20.2767 18.181 20.2638 18.1681 20.2637 18.1525C20.2637 18.1368 20.2765 18.1239 20.2923 18.124Z" fill="white"/>
<path d="M20.2874 18.0644C20.2873 18.0334 20.3125 18.0082 20.3439 18.0083C20.3751 18.0084 20.4006 18.0336 20.4007 18.0647C20.4007 18.0958 20.3754 18.1209 20.3441 18.1209C20.3129 18.1208 20.2874 18.0955 20.2874 18.0644Z" fill="white"/>
<path d="M20.401 17.9209C20.4606 17.9211 20.5149 17.9452 20.5541 17.9843C20.5934 18.0233 20.6177 18.077 20.6179 18.1364C20.6181 18.1957 20.5939 18.2495 20.5549 18.2882C20.5159 18.3271 20.4619 18.351 20.4021 18.3508C20.3423 18.3507 20.2882 18.3265 20.249 18.2875C20.2097 18.2484 20.1854 18.1947 20.1852 18.1353C20.185 18.076 20.209 18.0223 20.2482 17.9835C20.2872 17.9447 20.3412 17.9208 20.401 17.9209ZM20.2711 18.2655C20.3048 18.2989 20.351 18.3194 20.402 18.3195C20.4531 18.3196 20.4991 18.2993 20.5326 18.2661C20.566 18.2328 20.5864 18.187 20.5864 18.1363C20.5862 18.0856 20.5655 18.0398 20.5319 18.0064C20.4983 17.973 20.452 17.9523 20.401 17.9523C20.35 17.9522 20.3039 17.9724 20.2705 18.0057C20.237 18.0389 20.2165 18.0847 20.2167 18.1354C20.2168 18.1861 20.2375 18.2321 20.2711 18.2655Z" fill="white"/>
<path d="M19.0199 16.8955C19.0518 16.8956 19.0782 16.9217 19.0783 16.9534C19.0784 16.9851 19.0522 17.0111 19.0203 17.011C18.9883 17.0109 18.962 16.9849 18.9619 16.9531C18.9618 16.9214 18.988 16.8954 19.0199 16.8955Z" fill="white"/>
<path d="M19.0154 16.785C19.0152 16.7221 19.0663 16.6713 19.1297 16.6714C19.193 16.6716 19.2444 16.7227 19.2446 16.7856C19.2448 16.8484 19.1936 16.8993 19.1303 16.8992C19.067 16.899 19.0156 16.8479 19.0154 16.785Z" fill="white"/>
<path d="M19.2399 16.4897C19.3608 16.4901 19.4704 16.539 19.5499 16.618C19.6293 16.6969 19.6787 16.8058 19.679 16.926C19.6794 17.046 19.6306 17.1547 19.5515 17.2333C19.4726 17.3118 19.3632 17.3603 19.2423 17.3599C19.1214 17.3596 19.0118 17.3106 18.9324 17.2317C18.8529 17.1528 18.8035 17.0439 18.8032 16.9238C18.8029 16.8037 18.8516 16.695 18.9307 16.6165C19.0097 16.5379 19.119 16.4895 19.2399 16.4897ZM18.9772 17.187C19.0453 17.2546 19.1389 17.2963 19.2421 17.2964C19.3454 17.2967 19.4387 17.2556 19.5064 17.1884C19.574 17.1212 19.6155 17.0283 19.6152 16.9258C19.6149 16.8232 19.573 16.7302 19.5049 16.6626C19.4369 16.5951 19.3433 16.5535 19.2401 16.5532C19.1369 16.553 19.0435 16.5941 18.9758 16.6613C18.9081 16.7286 18.8668 16.8214 18.867 16.9239C18.8673 17.0264 18.9092 17.1195 18.9772 17.187Z" fill="white"/>
<path d="M18.0764 16.043C18.0907 16.043 18.1025 16.0547 18.1026 16.069C18.1026 16.0832 18.0908 16.095 18.0765 16.0949C18.0621 16.0949 18.0503 16.0831 18.0503 16.0689C18.0502 16.0546 18.0619 16.0429 18.0764 16.043Z" fill="white"/>
<path d="M18.0719 15.9999C18.0718 15.9716 18.0948 15.9487 18.1232 15.9487C18.1517 15.9488 18.1749 15.9719 18.1749 16.0001C18.175 16.0284 18.152 16.0512 18.1235 16.0511C18.0951 16.0511 18.072 16.0281 18.0719 15.9999Z" fill="white"/>
<path d="M18.1731 15.8618C18.2274 15.862 18.2767 15.884 18.3124 15.9194C18.3481 15.955 18.3703 16.0039 18.3704 16.0579C18.3706 16.1118 18.3486 16.1607 18.3131 16.196C18.2776 16.2314 18.2284 16.2531 18.1741 16.253C18.1198 16.2528 18.0705 16.2308 18.0348 16.1954C17.999 16.1599 17.9769 16.1109 17.9767 16.0569C17.9765 16.003 17.9984 15.9541 18.034 15.9188C18.0696 15.8835 18.1187 15.8617 18.1731 15.8618ZM18.0549 16.1753C18.0856 16.2056 18.1276 16.2243 18.174 16.2245C18.2204 16.2246 18.2624 16.2061 18.2929 16.1759C18.3232 16.1456 18.3418 16.1039 18.3417 16.0578C18.3416 16.0118 18.3227 15.9699 18.2922 15.9395C18.2616 15.9092 18.2195 15.8905 18.1731 15.8903C18.1267 15.8902 18.0847 15.9087 18.0543 15.939C18.0239 15.9692 18.0053 16.0109 18.0054 16.057C18.0055 16.1031 18.0243 16.1449 18.0549 16.1753Z" fill="white"/>
<path d="M16.9959 14.8647C17.0241 14.8648 17.0474 14.8879 17.0474 14.916C17.0475 14.944 17.0244 14.9671 16.9962 14.967C16.9679 14.9669 16.9447 14.9438 16.9446 14.9157C16.9445 14.8877 16.9676 14.8647 16.9959 14.8647Z" fill="white"/>
<path d="M16.9895 14.7704C16.9893 14.7148 17.0346 14.6698 17.0906 14.6699C17.1466 14.6701 17.1922 14.7152 17.1923 14.7709C17.1924 14.8265 17.1471 14.8716 17.0912 14.8714C17.0352 14.8713 16.9896 14.8261 16.9895 14.7704Z" fill="white"/>
<path d="M17.1876 14.5024C17.2946 14.5027 17.3915 14.5461 17.4618 14.6159C17.5321 14.6858 17.5758 14.7821 17.5761 14.8884C17.5763 14.9945 17.5332 15.0906 17.4633 15.1602C17.3934 15.2297 17.2967 15.2725 17.1897 15.2722C17.0827 15.2719 16.9858 15.2287 16.9155 15.1588C16.8452 15.089 16.8015 14.9927 16.8013 14.8864C16.801 14.7801 16.8441 14.684 16.914 14.6146C16.984 14.5451 17.0807 14.5023 17.1876 14.5024ZM16.9553 15.1193C17.0154 15.1791 17.0983 15.2159 17.1896 15.2162C17.2809 15.2164 17.3635 15.18 17.4233 15.1205C17.4833 15.061 17.5198 14.9789 17.5196 14.8882C17.5193 14.7975 17.4823 14.7152 17.4221 14.6554C17.3619 14.5956 17.2791 14.5589 17.1878 14.5586C17.0965 14.5584 17.0138 14.5948 16.954 14.6542C16.8941 14.7137 16.8575 14.7959 16.8578 14.8866C16.8581 14.9772 16.8951 15.0596 16.9553 15.1193Z" fill="white"/>
<path d="M15.4771 13.9756C15.4902 13.9756 15.501 13.9864 15.5011 13.9995C15.5011 14.0126 15.4903 14.0233 15.4772 14.0233C15.464 14.0232 15.4531 14.0125 15.4531 13.9994C15.453 13.9863 15.4639 13.9756 15.4771 13.9756Z" fill="white"/>
<path d="M15.4713 13.9287C15.4713 13.9027 15.4924 13.8817 15.5186 13.8818C15.5447 13.8819 15.5659 13.903 15.566 13.9289C15.566 13.9549 15.5449 13.9759 15.5188 13.9758C15.4927 13.9758 15.4714 13.9547 15.4713 13.9287Z" fill="white"/>
<path d="M15.5658 13.8022C15.6156 13.8023 15.661 13.8226 15.6937 13.8552C15.7265 13.8878 15.7469 13.9327 15.7471 13.9823C15.7472 14.0318 15.7271 14.0767 15.6944 14.1092C15.6618 14.1416 15.6167 14.1616 15.5667 14.1614C15.5168 14.1613 15.4716 14.1411 15.4388 14.1085C15.4059 14.076 15.3856 14.031 15.3855 13.9814C15.3853 13.9318 15.4055 13.887 15.4381 13.8545C15.4707 13.8221 15.5158 13.8022 15.5658 13.8022ZM15.4574 14.0901C15.4854 14.1179 15.5241 14.1352 15.5667 14.1352C15.6093 14.1353 15.6478 14.1184 15.6758 14.0907C15.7037 14.0629 15.7208 14.0245 15.7207 13.9823C15.7205 13.9399 15.7032 13.9015 15.6752 13.8736C15.6471 13.8457 15.6084 13.8285 15.5659 13.8284C15.5232 13.8283 15.4847 13.8453 15.4567 13.8731C15.4288 13.9009 15.4118 13.9391 15.4119 13.9815C15.412 14.0238 15.4293 14.0622 15.4574 14.0901Z" fill="white"/>
<path d="M14.7036 13.0439C14.7169 13.0439 14.7277 13.0548 14.7277 13.0678C14.7278 13.0809 14.717 13.0917 14.7038 13.0917C14.6906 13.0916 14.6798 13.0809 14.6797 13.0677C14.6797 13.0547 14.6905 13.0439 14.7036 13.0439Z" fill="white"/>
<path d="M14.6982 12.9966C14.6981 12.9706 14.7193 12.9496 14.7454 12.9497C14.7716 12.9497 14.7928 12.9709 14.7929 12.9968C14.793 13.0228 14.7719 13.0438 14.7457 13.0437C14.7196 13.0437 14.6983 13.0225 14.6982 12.9966Z" fill="white"/>
<path d="M14.7927 12.8701C14.8425 12.8702 14.8878 12.8905 14.9206 12.923C14.9534 12.9556 14.9738 13.0005 14.9739 13.0501C14.9741 13.0997 14.9539 13.1446 14.9213 13.177C14.8887 13.2094 14.8436 13.2295 14.7936 13.2293C14.7437 13.2292 14.6984 13.2089 14.6657 13.1764C14.6328 13.1438 14.6125 13.0989 14.6123 13.0493C14.6122 12.9997 14.6324 12.9548 14.6649 12.9224C14.6976 12.89 14.7427 12.8699 14.7927 12.8701ZM14.6842 13.158C14.7123 13.1858 14.751 13.203 14.7935 13.2031C14.8362 13.2032 14.8747 13.1863 14.9027 13.1585C14.9306 13.1307 14.9476 13.0924 14.9475 13.0501C14.9474 13.0078 14.9301 12.9694 14.902 12.9414C14.874 12.9136 14.8353 12.8964 14.7927 12.8963C14.7501 12.8962 14.7116 12.9131 14.6836 12.9409C14.6557 12.9687 14.6386 13.007 14.6387 13.0493C14.6389 13.0917 14.6561 13.13 14.6842 13.158Z" fill="white"/>
<path d="M13.1611 12.1548C13.2039 12.1549 13.239 12.1898 13.2391 12.2322C13.2393 12.2747 13.2042 12.3094 13.1616 12.3094C13.1189 12.3092 13.0837 12.2743 13.0836 12.2318C13.0835 12.1895 13.1185 12.1547 13.1611 12.1548Z" fill="white"/>
<path d="M13.1499 12.0029C13.1496 11.9189 13.2181 11.8509 13.3026 11.8511C13.3873 11.8513 13.4561 11.9196 13.4563 12.0037C13.4565 12.0877 13.3881 12.1557 13.3035 12.1555C13.2189 12.1553 13.1501 12.0869 13.1499 12.0029Z" fill="white"/>
<path d="M13.4484 11.604C13.61 11.6044 13.7565 11.6699 13.8628 11.7754C13.969 11.881 14.0349 12.0265 14.0354 12.187C14.0357 12.3476 13.9706 12.4928 13.865 12.5978C13.7593 12.7028 13.6131 12.7677 13.4515 12.7672C13.2899 12.7668 13.1434 12.7013 13.0372 12.5958C12.9309 12.4902 12.865 12.3447 12.8645 12.1842C12.8641 12.0236 12.9293 11.8784 13.0349 11.7734C13.1406 11.6684 13.2868 11.6036 13.4484 11.604ZM13.0972 12.5361C13.1882 12.6265 13.3133 12.6821 13.4513 12.6824C13.5892 12.6827 13.7141 12.6278 13.8046 12.5379C13.895 12.448 13.9504 12.3239 13.95 12.1868C13.9496 12.0498 13.8937 11.9254 13.8026 11.8351C13.7117 11.7448 13.5866 11.6892 13.4486 11.6888C13.3106 11.6885 13.1858 11.7435 13.0953 11.8333C13.0048 11.9232 12.9495 12.0473 12.9499 12.1844C12.9503 12.3214 13.0063 12.4458 13.0972 12.5361Z" fill="white"/>
<g style="mix-blend-mode:hue">
<path d="M-162.851 725.16C-328.543 741.94 -554.709 590.013 -574.118 418.692C-593.527 247.371 -527.48 61.2723 -361.789 44.493C-196.098 27.7137 60.8229 108.963 80.2322 280.284C99.6418 451.606 2.83948 708.381 -162.851 725.16Z" fill="#075A5A"/>
</g>
<g style="mix-blend-mode:saturation">
<path d="M-162.851 725.16C-328.543 741.94 -554.709 590.013 -574.118 418.692C-593.527 247.371 -527.48 61.2723 -361.789 44.493C-196.098 27.7137 60.8229 108.963 80.2322 280.284C99.6418 451.606 2.83948 708.381 -162.851 725.16Z" fill="#075A5A"/>
</g>
</g>
</g>
</g>
</g>
<circle cx="28.7838" cy="28.7837" r="7.78377" fill="black" stroke="#363232" stroke-width="0.432432"/>
<path d="M30.4378 23.2752L28.729 24.242C28.1114 24.5914 28.0564 25.4603 28.6251 25.8848L30.3698 27.187C30.7251 27.4522 30.6909 27.9951 30.3051 28.2136L28.7308 29.1051C28.1127 29.4551 28.0587 30.325 28.6286 30.7488L30.2896 31.9839C30.462 32.112 30.5636 32.3142 30.5636 32.5289V32.5798C30.5636 32.7361 30.7324 32.8342 30.8682 32.7568L32.5859 31.7778C33.2039 31.4255 33.2545 30.5538 32.6815 30.1324L30.9381 28.8502C30.5802 28.587 30.6116 28.0425 30.9974 27.8222L32.5891 26.9128C33.2061 26.5604 33.2566 25.6898 32.6844 25.2684L31.0183 24.0412C30.8445 23.9132 30.7419 23.7102 30.7419 23.4943V23.4526C30.7419 23.2965 30.5736 23.1984 30.4378 23.2752Z" fill="#075A5A"/>
<path d="M26.6908 24.8104L24.9821 25.7771C24.3645 26.1266 24.3095 26.9955 24.8782 27.4199L26.6228 28.7221C26.9782 28.9873 26.944 29.5302 26.5581 29.7487L24.9838 30.6403C24.3658 30.9903 24.3117 31.8601 24.8817 32.2839L26.5427 33.519C26.715 33.6472 26.8166 33.8493 26.8166 34.0641V34.1149C26.8166 34.2713 26.9854 34.3694 27.1213 34.292L28.839 33.3129C29.4569 32.9607 29.5076 32.089 28.9346 31.6676L27.1912 30.3853C26.8333 30.1221 26.8646 29.5777 27.2504 29.3573L28.8421 28.448C29.4591 28.0955 29.5096 27.225 28.9375 26.8035L27.2713 25.5763C27.0975 25.4483 26.9949 25.2453 26.9949 25.0295V24.9878C26.9949 24.8317 26.8266 24.7336 26.6908 24.8104Z" fill="#075A5A"/>
<defs>
<filter id="filter0_di_4829_4544" x="-4.81016" y="-8.14181" width="74.1438" height="75.6416" filterUnits="userSpaceOnUse" color-interpolation-filters="sRGB">
<feFlood flood-opacity="0" result="BackgroundImageFix"/>
<feColorMatrix in="SourceAlpha" type="matrix" values="0 0 0 0 0 0 0 0 0 0 0 0 0 0 0 0 0 0 127 0" result="hardAlpha"/>
<feOffset dy="3.66091"/>
<feGaussianBlur stdDeviation="8.23705"/>
<feComposite in2="hardAlpha" operator="out"/>
<feColorMatrix type="matrix" values="0 0 0 0 0.566667 0 0 0 0 0.566667 0 0 0 0 0.566667 0 0 0 0.25 0"/>
<feBlend mode="normal" in2="BackgroundImageFix" result="effect1_dropShadow_4829_4544"/>
<feBlend mode="normal" in="SourceGraphic" in2="effect1_dropShadow_4829_4544" result="shape"/>
<feColorMatrix in="SourceAlpha" type="matrix" values="0 0 0 0 0 0 0 0 0 0 0 0 0 0 0 0 0 0 127 0" result="hardAlpha"/>
<feOffset dy="2.61494"/>
<feGaussianBlur stdDeviation="1.56897"/>
<feComposite in2="hardAlpha" operator="arithmetic" k2="-1" k3="1"/>
<feColorMatrix type="matrix" values="0 0 0 0 1 0 0 0 0 1 0 0 0 0 1 0 0 0 0.25 0"/>
<feBlend mode="normal" in2="shape" result="effect2_innerShadow_4829_4544"/>
</filter>
<linearGradient id="paint0_linear_4829_4544" x1="49.6893" y1="24.0077" x2="11.8839" y2="28.2908" gradientUnits="userSpaceOnUse">
<stop stop-color="#075A5A"/>
<stop offset="1" stop-color="#136969"/>
</linearGradient>
<linearGradient id="paint1_linear_4829_4544" x1="49.6893" y1="24.0077" x2="11.8839" y2="28.2908" gradientUnits="userSpaceOnUse">
<stop stop-color="#075A5A"/>
<stop offset="1" stop-color="#136969"/>
</linearGradient>
<linearGradient id="paint2_linear_4829_4544" x1="15.9154" y1="10.2381" x2="8.26343" y2="29.4407" gradientUnits="userSpaceOnUse">
<stop stop-color="white"/>
<stop offset="1" stop-color="white" stop-opacity="0"/>
</linearGradient>
<clipPath id="clip0_4829_4544">
<rect width="37" height="37" fill="white"/>
</clipPath>
</defs>
</svg>
