<svg xmlns="http://www.w3.org/2000/svg" xmlns:xlink="http://www.w3.org/1999/xlink" xml:space="preserve" id="Layer_1" x="0" y="0" version="1.1" viewBox="0 0 320 320"><style>.st1{fill:none;stroke-width:11.61;stroke-linecap:round;stroke-linejoin:round}.st1,.st2,.st4{stroke:#f5c09a}.st2{fill:none;stroke-width:6.77;stroke-linecap:round;stroke-linejoin:round}.st4{fill:#f5c09a;stroke-width:4.84;stroke-miterlimit:10}</style><circle cx="160.4" cy="160" r="147.6" style="fill:#10151b;stroke:#f5c09a;stroke-width:11.61;stroke-linecap:round;stroke-linejoin:round"/><path d="M160.4 12.4v31.1M160.4 277.1v30.5" class="st1"/><path d="m116.9 77.9 43.5-34.4L261 123.1M59.8 123.1l57.1-45.2M261 197.4v-74.3M59.8 123.1v74.3l100.6 79.7L261 197.4" class="st2"/><defs><path id="SVGID_1_" d="M261 123.1 160.4 43.5 61.9 124l-2.1 73.4 100.6 79.7L261 197.4z"/></defs><clipPath id="SVGID_00000146463407201013427420000014751115421928134803_"><use xlink:href="#SVGID_1_" style="overflow:visible"/></clipPath><g style="clip-path:url(#SVGID_00000146463407201013427420000014751115421928134803_)"><path d="M169 102.8c-1.2 3.5 1.1 5.3 4.8 6.5q3.75 1.35 7.2 3.3c6.7 3.7 10.3 9.7 12.3 16.9.3 1.4.2 2.9-.2 4.2-.2 1.2-1.3 2.1-2.5 2.1-3.1.4-6.3.6-9.4.5-1.5 0-2.8-.7-3.6-1.9-.6-.8-1.2-1.7-1.8-2.6-5.4-8.5-13-11.7-22.9-9.6-9.5 2-11.6 7.9-10.8 16.5.3 2.9 2.7 4.4 5 5.6 3.5 1.7 7.3 2.8 11.1 3.4 7.7 1.3 15.3 3.2 22.7 5.5 13.1 4.4 17.1 16.4 16.6 26.2-.3 6.5-2.2 12.7-6.6 17.6-5.1 6-11.9 10.2-19.6 12.1-1.1.2-1.9 1.1-2 2.3-.6 3.2-.1 6.6-.6 9.8-.7 4.2-1 4.7-5.2 5.5-3.2.5-6.4.4-9.6-.2-1.8-.2-3.3-1.7-3.5-3.6-.5-3.4-.8-6.8-.6-10.2 0-2.9 0-3-2.8-3.6-5.8-1.4-11.3-3.5-16-7.5-5.8-4.9-9.6-11.7-10.8-19.2-.4-2.4.2-3.8 2.5-4.8 3.9-1.6 8.2-1.8 12.2-.6.8.3 1.5.8 2 1.6 1.5 1.9 2.7 4 3.6 6.2 2.8 6.4 7.8 9.5 14.7 9.8 4 .3 7.9.1 11.8-.6 6-1.1 10.5-6 11.3-12 .3-1.7.3-3.3 0-5-.4-2.5-1.9-4.7-4.1-5.9-5.8-3.1-12.1-5.1-18.6-5.9-8.2-.9-16-3.5-23-7.9-5.9-3.7-8.8-9.7-9.7-16.5-2-14.9 6.7-28 21.2-32.2 1.9-.5 4.5-.3 5.4-1.9s.2-3.7.2-5.7c0-2.6.3-5.2.8-7.7.3-1.4 1.4-2.6 2.8-2.8q6-1.35 12 0c1.4.3 2.6 1.4 2.8 2.8.9 3.2 1.1 6.4.9 9.5z" class="st4"/><path d="M134.8 68.9c.4 4.3-1.5 7.3-5.2 9.3-4.4 2.4-9 4.5-13.2 7.2C94 99.9 79 119.7 75.5 146.6c-4.2 32.6 7.3 59.3 33.1 79.8 5.2 4 10.8 7.4 16.7 10.3 1.8.9 3.4 2.1 5.1 3 2.5 1.3 4.1 3.9 4.2 6.8.2 2.2.1 4.3-.3 6.5-.6 3.3-2.9 4.7-6.1 4-5.1-1.2-10-3.2-14.6-5.7-28.2-15.2-46.7-38.1-54.7-69.3-2.6-10.2-2.4-20.6-1.9-31 .2-8.9 1.9-17.6 5-25.9 7.2-18.5 17.8-34.7 33.5-47.1 9.3-7.3 19.8-12.6 30.7-17.2.6-.3 1.3-.5 1.9-.6 2.3-.8 4.9.4 5.7 2.7v.1c.7 1.8 1.1 3.9 1 5.9zM263.2 161.2c.2 45.4-30.2 78.3-58 91.5-4.2 2.1-8.6 3.8-13.1 5.1-3.8 1-5.7-.4-6.6-4.2-.4-2.3-.5-4.6-.1-6.8.2-2.3 1.5-4.4 3.4-5.6 3-2 6.2-3.7 9.3-5.4 15.6-8.5 28.2-20.2 37-35.6 6.6-11.4 8.7-25 9.1-38.2.5-17-2.3-32.1-11.3-46.5-8.7-14-21.1-25.3-35.8-32.6-2.4-1.2-4.7-2.7-7.1-4-4.9-2.8-5.4-6.3-4.7-12 .2-.9.5-1.8.9-2.6 1.5-3.2 3.3-4 6.7-2.9 4.5 1.7 8.9 3.7 13.1 6.1 10.2 5.5 20 11.4 27.9 20 13.6 14.8 23.4 31.7 27.6 51.5 1.6 7.1 1.8 14.4 1.7 22.2z" class="st4"/></g><path d="M261 123.1 160.4 43.5 61.9 124l-2.1 73.4 100.6 79.7L261 197.4z" style="fill:none;stroke:#f5c09a;stroke-width:11.61;stroke-miterlimit:10"/></svg>