<svg xmlns="http://www.w3.org/2000/svg" width="120" height="120" fill="none"><g clip-path="url(#a)"><path fill="#FFE81C" d="M52.126 2.09a15.87 15.87 0 0 1 15.747 0l38.8 22.2c4.871 2.787 7.873 7.938 7.873 13.513v44.398c0 5.575-3.002 10.727-7.873 13.514l-38.8 22.199a15.87 15.87 0 0 1-15.747 0l-38.8-22.2c-4.872-2.787-7.873-7.938-7.873-13.513V37.803c0-5.575 3.001-10.726 7.873-13.513z"/><path fill="#000" d="M46.23 54.343 60.001 40.57 73.78 54.348l8.013-8.012-21.79-21.79-21.784 21.783 8.013 8.013M24.547 60l8.013-8.014L40.572 60l-8.013 8.013zm21.683 5.66 13.771 13.77L73.78 65.653l8.017 8.008-.004.004-21.79 21.79-21.784-21.783-.011-.012 8.024-8.002zm33.2-5.656 8.013-8.013 8.013 8.012-8.013 8.013z"/><path fill="#000" d="M68.126 59.996h.004L60 51.866l-6.01 6.007-.69.69-1.424 1.425-.011.01.011.012L60 68.135l8.13-8.13.004-.005z"/></g><defs><clipPath id="a"><path fill="#fff" d="M0 0h120v120H0z"/></clipPath></defs></svg>