<svg xmlns="http://www.w3.org/2000/svg" width="120" height="120" fill="none"><g clip-path="url(#a)"><path fill="#FFE81C" d="M52.126 2.09a15.87 15.87 0 0 1 15.747 0l38.8 22.2c4.871 2.787 7.873 7.938 7.873 13.513v44.398c0 5.575-3.002 10.727-7.873 13.514l-38.8 22.199a15.87 15.87 0 0 1-15.747 0l-38.8-22.2c-4.872-2.787-7.873-7.938-7.873-13.513V37.803c0-5.575 3.001-10.726 7.873-13.513z"/><path stroke="#000" stroke-width="2" d="m40.666 39.674 19.124-9.253a2 2 0 0 1 1.742 0l19.125 9.253m-39.991 0L60.66 50.166M40.666 39.674v20.78m39.991-20.78L60.661 50.166m19.996-10.492v20.78M60.661 50.165 40.666 60.454M60.66 50.165l19.996 10.288M60.661 50.165v21.256M40.666 60.454v20.779L59.78 90.61a2 2 0 0 0 1.762 0l19.115-9.378v-20.78m-39.991 0 19.995 10.97m19.996-10.97-19.996 10.97M83.01 33.27s2.794 1.499 3.53 2.862c.734 1.362.734 4.496.734 4.496M32.726 80.551s.441 2.862 1.176 4.224 3.676 2.453 3.676 2.453"/></g><defs><clipPath id="a"><path fill="#fff" d="M0 0h120v120H0z"/></clipPath></defs></svg>