<svg xmlns="http://www.w3.org/2000/svg" id="Layer_1" data-name="Layer 1" viewBox="0 0 32 32"><defs><style>.cls-6{fill:#b12234}.cls-7{fill:#fefefe}.cls-8{fill:#fdfdfd}.cls-9{fill:#fdfdfe}</style></defs><g style="opacity:.98;isolation:isolate"><path d="M16 32a16 16 0 1 1 16-16 16 16 0 0 1-16 16" style="fill:#112451"/></g><path d="M16.65 18.25s-2.1 1.1-2 2.83 2.42 4.36 3.82 3.84 5.3-2.78 5.7-5-3.48-3.32-3.48-3.32Zm5.42-9.43a8.82 8.82 0 0 0-9.28-1.16l-2.27 3.24a2.29 2.29 0 0 0 1.54 1.54c1.3.43 6.93-1.74 6.93-1.74Z" style="fill:#2844ad"/><path d="M7.28 12s1.9-3.49 4.44-4.3 2.18 1.73 0 2.76S8.17 12.08 7.28 12m-.36 1.08S4 21.27 12 25c0 0 .62-3.27-.51-5.34A26 26 0 0 0 8.47 15a19 19 0 0 1-1.55-1.92M24.44 21s-2.09 4-5.11 4a.58.58 0 0 1-.36-.78c.19-.58 2.08-2.64 5.47-3.22m-2.3-12.12a8.4 8.4 0 0 1 2.65 3.43 10.5 10.5 0 0 1 .38 7c-.51 1.35-1.3 1-3 .64s-8.17-2.18-9.84-4.4-.38-4 1.78-5.15 6.6-2.4 8.03-1.52" style="fill:#5493f7"/><path d="M13.15 22.69 13 19.11l4.84-.29v3.53c0 .15 0 0 0 0l-4.7.28s.04.08.01.06" style="fill:#3c3b6e"/><path d="M25.42 24.54v.49c0 .16 0 0 0 0l-12.1.73v-.48h.08l12-.72s-.01-.04.02-.02" class="cls-6"/><path d="M25.42 24.54h-.05l-12.08.73v-.52h.08l12-.72a.12.12 0 0 1 .08 0ZM25.36 23v.52h-.06l-12 .73a.12.12 0 0 1-.08 0v-.52h.09l12-.73z" class="cls-7"/><path d="m25.36 23-12.1.73v-.51l12-.73h.09Z" class="cls-6"/><path d="M25.35 22.47h-.05l-12.09.73v-.52L18 22.4h.12l7.15-.43h.08Z" class="cls-7"/><path d="m13.21 24.24 12.09-.73v.51l-12.09.73Zm4.71-4.94v-.52l7.27-.44v.49h-.09l-7.1.47s-.06.02-.08 0" class="cls-6"/><path d="m17.92 19.3.88-.06 6.37-.38v.51l-7.17.45a.06.06 0 0 1-.08 0Zm.08 2.58v-.52h.08l7.14-.44h.08v.52l-7.16.43s-.14.03-.14.01" class="cls-7"/><path d="m25.29 20.92-7.29.44v-.52h.08l7.14-.43h.08Z" class="cls-6"/><path d="m25.27 20.4-1.46.09-5.81.35v-.51l7.17-.43h.07Z" class="cls-7"/><path d="m18 21.88 7.25-.44v.51l-7.23.43Zm7.26-2h-.05l-7.21.45v-.52l2.24-.13 5-.31Z" class="cls-6"/><path d="M16.66 21.56v-.17a.2.2 0 0 1-.08-.06h.11v-.12.09c0 .03 0 .05.07 0h.08l-.08.07a1 1 0 0 0 0 .11l-.1-.06Zm-2.5-.08h.14a.2.2 0 0 1 0-.1v.11c0 .04 0 0 0 0h.12s0 .05-.08.06 0 0 0 .08a.5.5 0 0 1 0 .09l-.09-.06a.3.3 0 0 1-.09.07.5.5 0 0 0 0-.11v-.05l-.09-.06Zm1.47-.95-.09-.06-.09.08a1 1 0 0 1 0-.12l-.09-.07h.11a1 1 0 0 1 0-.12v.09h.15l-.08.07a.06.06 0 0 0 0 .05.4.4 0 0 1 .09.08m-1.48-1v-.16l-.08-.06h.09s.05 0 .05-.05a.5.5 0 0 0 0-.09.5.5 0 0 1 0 .11h.1a.5.5 0 0 1-.07.07v.05a.5.5 0 0 0 0 .11l-.1-.06Zm2.72-.38-.07.05a.05.05 0 0 0 0 .08v.09l-.1-.06-.09.08v-.12l-.09-.07h.15a.4.4 0 0 1 0-.1v.06c0 .06 0 .07.09.06h.07Zm-3.16 1.27h.11v-.11a.5.5 0 0 1 0 .11h.11a.24.24 0 0 1-.08.06v.17l-.09-.06h-.05l-.09.07a.3.3 0 0 1 0-.1v-.07h-.07Zm2.79-.16-.09.07a.3.3 0 0 1 0 .11l-.09-.06h-.05a.4.4 0 0 1-.09.08v-.12c0-.03 0 0 0 0a.3.3 0 0 1-.08-.07h.1a.5.5 0 0 1 0-.11v.08c0 .06 0 .06.07.05h.08Z" class="cls-8"/><path d="M17.57 21.13a1 1 0 0 1 0 .11h.11l-.08.06v.06a.17.17 0 0 1 0 .1l-.09-.06a.2.2 0 0 1-.09.07v-.16a.2.2 0 0 1-.08-.06h.11Zm-2.57.3h.1a.5.5 0 0 1 0-.11v.1h.15l-.08.07v.05a1 1 0 0 1 0 .11l-.09-.06-.09.08v-.12a.06.06 0 0 0 0-.05h-.08Z" class="cls-9"/><path d="M13.44 19.21a1 1 0 0 0 0 .1h.1l-.07.06v.07a1 1 0 0 1 0 .1l-.1-.07-.09.06v-.1l-.1-.06h.16a.5.5 0 0 1 .1-.16m1.74.26-.09-.06-.09.08a1 1 0 0 1 0-.12l-.09-.07H15v-.1a.5.5 0 0 1 0 .11h.11l-.09.07v.05a.3.3 0 0 1 .16.04m.69-.41a1 1 0 0 1 0 .11h.11l-.09.08v.11l-.08-.06h-.07l-.07.06a.3.3 0 0 1 0-.1v-.06l-.09-.06h.12Zm1.74.26-.09-.06-.1.08a1 1 0 0 0 0-.12.3.3 0 0 1-.08-.07h.1a.3.3 0 0 1 0-.11.4.4 0 0 0 0 .11.2.2 0 0 1 .11 0l-.08.07a.4.4 0 0 1 0 .1Zm-1.76 2.27v-.1l-.1-.07h.11v-.11.11c0 .03 0 0 0 0h.12l-.09.08a1 1 0 0 0 0 .11l-.1-.06-.08.07Zm-2.15-.08-.09.07a.4.4 0 0 1 0 .12l-.08-.06h-.07l-.08.06a1 1 0 0 0 0-.11v-.05l-.1-.06h.12a1 1 0 0 0 0-.12v.12h.11Zm3.3-1.06a.3.3 0 0 1 0-.11v-.12h.11v-.12.11a.2.2 0 0 1 .11 0l-.08.07a1 1 0 0 0 0 .11l-.09-.06h-.06Zm-2.31-.23c0 .09 0 .09.13.09l-.08.07a.4.4 0 0 1 0 .11l-.09-.06h-.05l-.08.07a.4.4 0 0 1 0-.11l-.09-.07h.1Z" class="cls-8"/><path d="M15.16 22a1 1 0 0 1 0 .11h.11l-.07.07v.07a.5.5 0 0 1 0 .09l-.09-.06a.4.4 0 0 1-.09.08v-.12c0-.04 0 0 0 0l-.1-.07h.09a.07.07 0 0 0 .07-.06.4.4 0 0 1 .08-.11" class="cls-7"/><path d="M13.36 22.25h.12v-.12a1 1 0 0 0 0 .1h.11l-.09.08a1 1 0 0 0 0 .11l-.1-.06-.09.07v-.11Zm2.52.07v-.1c0-.03 0 0 0 0l-.1-.07h.12L16 22a.5.5 0 0 1 0 .11.17.17 0 0 1 .1 0l-.09.07a.5.5 0 0 1 0 .11l-.01-.04h-.05l-.08.06Zm1.72-.47v.12c0 .04 0 0 0 0h.12l-.09.08v.16l-.1-.07-.09.08v-.12l-.02-.1h.11a.7.7 0 0 1 .07-.15" class="cls-9"/><path d="M14.47 20a.4.4 0 0 0-.09.08.5.5 0 0 1 0 .11l-.1-.06-.1.08a1 1 0 0 0 0-.12l-.1-.07a.4.4 0 0 1 .11 0s0 0 .05-.05a.3.3 0 0 1 0-.09.2.2 0 0 1 0 .1Zm2.37.1-.1-.07-.09.08v-.12l-.1-.07h.08c.06 0 .06 0 .08-.07v-.08.12h.11l-.09.08ZM14 21.35v-.06h-.06l-.08.07v-.12c0-.04 0 0 0 0l-.09-.07h.11a.3.3 0 0 1 0-.12v.11H14l-.1.08a1 1 0 0 1 .1.11m3.71-1.54-.09.08a.5.5 0 0 1 0 .11h-.06l-.09.08v-.12l-.1-.06h.11a1 1 0 0 0 0-.11 1 1 0 0 1 0 .12ZM16.16 21h.12v-.12a1 1 0 0 1 0 .11h.11l-.09.08a1 1 0 0 0 0 .12l-.09-.07h-.05l-.09.07v-.16Zm-1.26-1h.1s.05 0 .06-.05v-.1.12c0 .04 0 0 0 0h.12l-.09.08a.5.5 0 0 1 0 .11L15 20.1a.4.4 0 0 1-.09.08v-.12c0-.04 0 0 0 0Z" class="cls-7"/><path d="M14.17 22.2h.1s.05 0 .06-.05a.4.4 0 0 1 0-.1 1 1 0 0 1 0 .11h.11l-.09.08a1 1 0 0 0 0 .11l-.1-.06-.09.08v-.17Zm2.74.07-.09-.07-.1.08v-.16l-.1-.07h.12a.23.23 0 0 1 0-.11v.07c0 .06 0 .06.09.06H17l-.09.08v.12" class="cls-9"/><path d="M14.54 21.09h.1v-.15.12c0 .04 0 0 0 0h.12l-.09.08a1 1 0 0 0 0 .11l-.1-.06a1 1 0 0 1-.09.07v-.11Zm.81-.09h.12v-.12.11h.11l-.09.08v.1l-.09-.05h-.06l-.08.07v-.12c0-.04 0 0 0 0Zm1.93.16-.09-.07h-.05l-.09.07a1 1 0 0 1 0-.11L17 21h.12v-.12.09s0 .06.06.05h.09l-.08.07v.06Zm-1.19-1.25L16 20v.12l-.09-.07h-.06l-.08.07a.4.4 0 0 1 0-.11v-.05l-.09-.06h.1v-.11.11Zm-2.72.39a.4.4 0 0 1 0-.11l-.1-.07h.09c.05 0 .05 0 .07-.07a.4.4 0 0 1 0-.08v.11h.12l-.1.08a.4.4 0 0 1 0 .11l-.09-.06h-.05a.3.3 0 0 1 .06.09m2.37 1.45s-.09.05-.1.09a1 1 0 0 0 0 .13l-.09-.07h-.05l-.09.07v-.12c0-.04 0 0 0 0l-.09-.06h.11v-.11a.4.4 0 0 1 0 .1s0 0 .05 0Zm-1.62-.99h.11v-.12a1 1 0 0 1 0 .12h.12l-.09.08a1 1 0 0 0 0 .12l-.09-.07h-.05l.08.11v-.12Zm2.74.06-.09-.06h-.05l-.09.07v-.16l-.09-.06h.12a1 1 0 0 1 0-.11v.1h.16l-.08.06v.07Zm-2.01-1.19-.08.07v.16l-.1-.07-.08.07v-.12l-.09-.06h.11v-.12.12c0 .04 0 0 0 0h.11Zm2.43-.14-.07.06v.06a.3.3 0 0 1 0 .1l-.09-.06h-.05l-.09.08a1 1 0 0 1 0-.12v-.05l-.08-.06h.1v-.11a.5.5 0 0 1 0 .11h.1ZM13.39 21v-.12c0-.04 0 0 0 0l-.09-.06h.11v-.12.11c0 .03 0 0 0 0h.1l-.05.06c-.05.06 0 0 0 .1v.08l-.1-.07Zm2.43-.12v-.16a.24.24 0 0 1-.09-.06h.1a1 1 0 0 0 0-.11v.12h.12l-.1.08v.12l.15-.07Zm1.18.79h.09v-.1.11c0 .04 0 0 0 0h.1a.13.13 0 0 1-.07.06s0 0 0 .07a1 1 0 0 1 0 .1l-.08-.05h-.08l-.07.06a.3.3 0 0 1 0-.1v-.06l.11-.08Zm-.45.03-.08.07v.05a1 1 0 0 0 0 .11l-.09-.06h-.06l-.08.07v-.12a.4.4 0 0 1-.09-.06h.11a1 1 0 0 1 0-.11.4.4 0 0 1 0 .1h.06Zm-1.61.09-.09.08v.05a.3.3 0 0 1 0 .11l-.06-.03h-.06l-.09.07v-.16l-.1-.06h.11a1 1 0 0 0 0-.11.5.5 0 0 1 0 .11s0 0 .05 0Zm-1.01-.08a1 1 0 0 1 0 .12h.11l-.09.08a1 1 0 0 1 0 .12L14 22a.4.4 0 0 1-.09.08v-.12c0-.04 0 0 0 0l-.1-.06h.12zm1.38-2.11h.11a1 1 0 0 1 0-.11.5.5 0 0 1 0 .11h.11l-.09.08v.05a1 1 0 0 0 0 .11l-.1-.07-.09.08v-.16l-.08-.05Zm.98-.21a1 1 0 0 1 0 .12h.11l-.08.07v.11l-.09-.06-.09.07a.3.3 0 0 1 0-.1v-.07l-.07-.05h.1s.11-.04.12-.09m-2.29.52-.08-.06h-.06l-.09.07v-.11c0-.03 0 0 0 0l-.09-.06h.11a1 1 0 0 1 0-.12v.11h.11l-.08.07v.07a.6.6 0 0 1 .18.03m.94.8h.11v-.12.08a.06.06 0 0 0 .08.05s0 0 .07 0l-.08.07a1 1 0 0 1 0 .11l-.1-.07-.09.08v-.12Zm2.79-.16-.08.06v.16l-.09-.06-.08.07a.4.4 0 0 1 0-.11.06.06 0 0 0 0-.05.24.24 0 0 1-.09-.06h.11a.3.3 0 0 1 0-.11v.1h.15Z" class="cls-7"/></svg>