<svg xmlns="http://www.w3.org/2000/svg" xmlns:xlink="http://www.w3.org/1999/xlink" viewBox="0 0 500 500"><defs><style>.cls-1{fill:url(#_21);}.cls-2{fill:#fff;}.cls-3{fill:#050f9e;}.cls-4{fill:none;}</style><linearGradient id="_21" x1="21.79" y1="253.72" x2="478.21" y2="253.72" gradientTransform="translate(-52.8 66.2) rotate(-13.7)" gradientUnits="userSpaceOnUse"><stop offset="0" stop-color="#2742ef"/><stop offset="0.14" stop-color="#2646ee"/><stop offset="0.29" stop-color="#2353ed"/><stop offset="0.78" stop-color="#06d5de"/><stop offset="0.94" stop-color="#04dcdd"/><stop offset="1" stop-color="#00efdb"/></linearGradient></defs><circle class="cls-1" cx="250" cy="253.7" r="228.2"/><path class="cls-2" d="M412.9,263.4c0,23.8-26.9,26.8-39,46.4-26.6,43-58.5,91.6-118.2,91.6-86.8,0-157.1-61.8-157.1-138s70.3-138,157.1-138S412.9,187.2,412.9,263.4Z"/><path class="cls-3" d="M247.4,14.8C115.3,14.8,8.3,121.9,8.3,253.9S115.3,493,247.4,493s239-107.1,239-239.1S379.4,14.8,247.4,14.8ZM204.8,451l-5.7-1.2-2.8-.6-2.8-.7-5.6-1.5-5.5-1.6-2.8-.9-2.7-1-5.4-1.9-5.4-2.2-2.7-1.1-2.6-1.1a211.1,211.1,0,0,1-20.6-10.7c-3.3-2-6.6-4-9.8-6.3l-9.4-6.7a200.1,200.1,0,0,1-52.4-60,21.7,21.7,0,0,1-8.1,1.6,21.3,21.3,0,0,1-9-40.7A204.6,204.6,0,0,1,64.9,160.7c.8-1.7,1.8-3.5,2.8-5.2l2.9-5.1,3.1-5a52.9,52.9,0,0,1,3.2-5c2.3-3.2,4.4-6.6,6.9-9.6l3.6-4.7,3.8-4.6c2.5-3,5.2-5.8,7.9-8.7s2.8-2.9,4.2-4.3l4.2-4.1a203.7,203.7,0,0,1,18.3-15.1A186.7,186.7,0,0,1,167.1,66c3.7-1.4,7.3-3,11.1-4.2l5.7-1.8,5.7-1.6a203.5,203.5,0,0,1,23.2-4.9l5.9-.7,5.9-.6,5.9-.4c2-.1,4-.3,6-.2h11.9l5.9.3,5.9.5,5.9.6,5.8.8c3.9.5,7.8,1.4,11.6,2.2,2,.3,3.9.9,5.8,1.3l5.7,1.5,5.6,1.7,5.6,1.9a192.6,192.6,0,0,1,42,20.6,187.6,187.6,0,0,1,35.3,30l-.8.9a229,229,0,0,0-37.5-25.8l-5-2.6-2.6-1.3a11.5,11.5,0,0,0-2.5-1.2c-3.5-1.6-6.8-3.3-10.4-4.6l-5.2-2.1-5.3-1.8c-3.5-1.3-7.1-2.3-10.7-3.4a201.9,201.9,0,0,0-187.7,42.4l-4.1,3.7a49.3,49.3,0,0,0-4,3.9c-2.6,2.7-5.3,5.2-7.7,8.1l-3.7,4.1-3.5,4.4c-2.4,2.8-4.5,5.9-6.7,8.9s-2.1,3.1-3.2,4.6l-3.1,4.7L77,160.7c-1,1.6-1.9,3.2-2.8,4.9A189.9,189.9,0,0,0,51,251.5a193.5,193.5,0,0,0,7.5,61h2A21.3,21.3,0,0,1,74,350.3a197.9,197.9,0,0,0,49.6,60c3,2.3,6,4.7,9.1,6.9l9.4,6.4a177.1,177.1,0,0,0,20,11l2.6,1.3,2.6,1.2,5.2,2.3,5.3,2,2.7,1,2.7,1,5.4,1.8,5.5,1.6,2.8.8,2.8.7,5.5,1.3ZM347.4,341.8H306.1L293.6,310H226.5l-1.4.2-7.3,1h-.1l-12,30.6H164.4l11-27.4h-1.7l-11.1-.2c-30.9-1.5-48.9-9.2-52.1-22.3s9.4-28,36.3-43.4c18-10.3,40.9-19.8,66.4-27.8h.2l19.5-48.5h46.3L291.6,203c20.9-2.9,40.5-4,57.3-3.2,30.9,1.5,48.9,9.2,52.1,22.2s-9.4,28.1-36.3,43.5a295.3,295.3,0,0,1-40.3,18.8Zm-2.5-207.1A182,182,0,0,0,295.4,112a168.5,168.5,0,0,0-52.9-6.1c-2.2.1-4.4.1-6.6.4l-3.3.3-3.3.4-6.6.8-6.5,1.2-6.5,1.4-1.6.4-1.6.4-3.2.9c-2.2.5-4.3,1.2-6.4,1.9l-3.1,1-3.1,1.2a147.1,147.1,0,0,0-46,26.6,155.5,155.5,0,0,0-52.2,92,158.3,158.3,0,0,0,19.1,105.6l-1.1.7a152.6,152.6,0,0,1-13.1-24.6,165.1,165.1,0,0,1-8.6-26.6A161,161,0,0,1,103,180a163.7,163.7,0,0,1,34.8-44.9,137.4,137.4,0,0,1,11-9.2l5.7-4.3,6-4A163,163,0,0,1,186,104.2l3.3-1.4,3.4-1.2c2.3-.8,4.5-1.7,6.9-2.3,4.6-1.4,9.3-2.6,14-3.6l7.1-1.2,7.2-.9,3.6-.3,3.6-.2c2.4-.2,4.8-.2,7.2-.2,38.4-.3,76.8,14.6,103.4,40.8ZM211.7,430.2A164.6,164.6,0,0,1,141,394.6l.8-1a187.1,187.1,0,0,0,71.7,27.7l4.7.7,4.8.5,2.4.3h2.3l4.8.4c3.2,0,6.4.3,9.5.2h4.8l4.7-.2a174.9,174.9,0,0,0,37.4-6.1l4.5-1.3,4.6-1.4,4.4-1.6,2.2-.8,2.2-.9,4.4-1.8a33,33,0,0,0,4.3-1.9l4.3-2,4.2-2.2a177.5,177.5,0,0,0,58-47.8c2.9-3.8,5.6-7.6,8.1-11.6a21.3,21.3,0,0,1,14.3-37.2,22.2,22.2,0,0,1,3.7.3c14.5-42.7,11.5-91.6-9.1-132.3a174.5,174.5,0,0,0-119-92l.3-1.3a178.5,178.5,0,0,1,37.8,11.2,174.6,174.6,0,0,1,34.4,19.6,178.2,178.2,0,0,1,64.8,198.8,21.4,21.4,0,0,1-12.9,38.4,21.2,21.2,0,0,1-4.4-.4c-2.7,4.6-5.7,9-8.8,13.3a181.5,181.5,0,0,1-27.4,30,169,169,0,0,1-71.6,37.4A175.2,175.2,0,0,1,211.7,430.2Zm248.9-136a172.9,172.9,0,0,1-3.9,19A200.9,200.9,0,0,1,443.8,350a167.3,167.3,0,0,1-9.2,17.2c-3.5,5.5-7.2,10.9-11.2,16s-8.4,10-12.9,14.6-9.5,8.9-14.5,13a155.7,155.7,0,0,1-15.7,11.3,146.8,146.8,0,0,1-16.9,9.3l-.5-.8c5.1-3.9,10.1-7.8,14.9-11.9s9.4-8.4,13.9-12.7A235,235,0,0,0,416,377.6l2.7-3.8,2.6-3.9,1.3-1.9,1.3-2,2.5-3.9,2.4-4,2.3-4,1.2-2,1.1-2.1,2.2-4.1c2.9-5.5,5.5-11.2,7.9-16.9s4.3-11.7,6.1-17.7,3.1-12.1,4.3-18.2a169.4,169.4,0,0,0,2.5-18.6,197.9,197.9,0,0,0-.1-37.7,203.1,203.1,0,0,0-7.1-37A210.7,210.7,0,0,0,435,164.6l.8-.5a199,199,0,0,1,26.8,110.8C462.2,281.4,461.5,287.8,460.6,294.2Z"/><path class="cls-3" d="M392.9,229.8a9.5,9.5,0,0,0-2.4-10.8c-7.5-9.6-28.4-12.1-45.9-12.3a335.6,335.6,0,0,0-50,3.7h0l-15.2,2.4c-7.1,1.2-14.4,2.6-22,4.3h0l-3.2.7-7.4,1.7c-12.9,3.1-25.3,6.6-37.3,10.5h0l-.5.2c-47,15-86.9,35.7-90.4,54a9.5,9.5,0,0,0-.4,5.8,10.3,10.3,0,0,0,3.3,5.2c6.9,8.3,24.7,11.8,47.9,11.8h9.2a314.9,314.9,0,0,0,33.3-2.9,431.3,431.3,0,0,0,52.9-9.6A452.2,452.2,0,0,0,318,278.3l3.4-1.2h-.1C359.5,263,389.6,245.5,392.9,229.8ZM263.2,287.5C231.9,295,203.9,299,181.4,300l24.8-61.7c12.9-4.2,27-8.3,42.2-12l2.7-.6L228.5,284h48.7Zm19.8-5.2-23-58.6c12.8-2.8,25.3-5.1,37.3-6.7l21.5,53.7C308,274.8,296,278.7,283,282.3Z"/><path class="cls-4" d="M393,229.8a9.5,9.5,0,0,0-2.5-10.8A12.7,12.7,0,0,1,393,229.8Z"/><path class="cls-4" d="M118.6,284.3a9.5,9.5,0,0,0-.4,5.8,10.3,10.3,0,0,0,3.3,5.2,12.7,12.7,0,0,1-2.8-5.4A11.8,11.8,0,0,1,118.6,284.3Z"/></svg>
