<svg xmlns="http://www.w3.org/2000/svg" viewBox="0 0 180 180"><defs><style>.cls-2avaxll{fill:#fff}</style></defs><g id="Layer_2" data-name="Layer 2"><g id="Layer_1-2" data-name="Layer 1"><circle cx="90" cy="90" r="90" style="fill:#d64f49"/><path d="M121.74 88.61c3.12-5.4 8.13-5.4 11.25 0l19.42 34.06c3.11 5.4.59 9.8-5.63 9.8h-39.16c-6.16 0-8.69-4.4-5.62-9.8ZM84.19 22.84c3.11-5.4 8.06-5.4 11.17 0l4.33 8 10.38 17.96a18.52 18.52 0 0 1 0 16.24l-34.4 59.29a17.86 17.86 0 0 1-13.84 8.24h-28.6c-6.23 0-8.79-4.32-5.67-9.79Z" class="cls-2avaxll"/><circle cx="119.73" cy="122.92" r="45.45" style="fill:#00f"/><path d="M143.88 105.7a2 2 0 0 0-.07-.31l-.31-.61c-1.41-1.74-4.49-3-9.18-3.83a66.6 66.6 0 0 0-9.56-.84 2.1 2.1 0 0 0-.24-2.41 20.34 20.34 0 0 0-31 26.34 2.06 2.06 0 0 0 1.42.75 2.1 2.1 0 0 0 1.53-.48l3.57-3.39-1.77 15.36a16.8 16.8 0 0 0 7.94 13.94 30.3 30.3 0 0 0 16.66 4.59 30.2 30.2 0 0 0 16.64-4.59 16.79 16.79 0 0 0 7.95-13.95Zm-45.55-7.43A17 17 0 0 1 121 99l-6 5.13a2 2 0 0 0-.42.53 1.6 1.6 0 0 0-.17.65 1.74 1.74 0 0 0 .41 1.24 1.72 1.72 0 0 0 2.41.14l3.73-3.17c7.76-.2 15 .73 18.36 2.35a21.6 21.6 0 0 1-4.84 1.39l-.73.13a71 71 0 0 1-12.55.69 56.3 56.3 0 0 1-10.2-1.15c-4-.88-5.07-1.94-5.32-2.25a1.81 1.81 0 0 0-2-.57 1.83 1.83 0 0 0-1.11 2.34 2 2 0 0 0 .35.6c1.17 1.37 3.39 2.47 6.62 3.25l.51.15 1.37.26.45.07a65 65 0 0 0 9.25.9 78 78 0 0 0 11.56-.49 34.5 34.5 0 0 0 8.22-1.89l2.77 23a31.6 31.6 0 0 0-7.24-2 81.6 81.6 0 0 0-13.43-1h-2.54a73 73 0 0 0-13.31 1.43 27.3 27.3 0 0 0-5 1.54l1.46-12.11c0-.43.1-.89.15-1.34a18 18 0 0 0 .19-1.93l.69-6.1a1.65 1.65 0 0 0-3.27-.37l-.57 5.15-5.46 5.16a17 17 0 0 1 3-22.47Zm39.33 39.33a73 73 0 0 1-12.8 1.3c-9.63.21-18.41-1-22.18-3.12a20 20 0 0 1 5.16-1.71 71.7 71.7 0 0 1 12.67-1.36c9.83-.24 18.77 1 22.58 3.12a21.2 21.2 0 0 1-5.43 1.77m-28.38 3.69a84.5 84.5 0 0 0 15.66 1 75 75 0 0 0 13.43-1.38 27.8 27.8 0 0 0 5.28-1.61 14 14 0 0 1-6 8.06 26.74 26.74 0 0 1-14.77 4 26.83 26.83 0 0 1-14.76-4 14 14 0 0 1-6-8.09 31 31 0 0 0 7.16 2.02" class="cls-2avaxll"/></g></g></svg>