<svg xmlns="http://www.w3.org/2000/svg" width="24" class="sc-bdnxRM izaTCC" color="text" viewBox="0 0 90 90"><circle cx="38.5" cy="38.5" r="38.5" fill="#FFF1D9"/><path fill="#482402" fill-rule="evenodd" d="M44.462 56.474c-3.787 6.56-12.175 8.807-18.734 5.02s-8.807-12.175-5.02-18.734 12.175-8.807 18.734-5.02 8.807 12.175 5.02 18.734M27.099 59.12c5.248 3.03 11.958 1.231 14.988-4.016 3.03-5.248 1.231-11.958-4.016-14.987-5.248-3.03-11.958-1.232-14.987 4.016-3.03 5.247-1.232 11.957 4.015 14.987" clip-rule="evenodd"/><path fill="#482402" fill-rule="evenodd" d="M39.949 53.869a8.503 8.503 0 1 1-14.728-8.503 8.503 8.503 0 0 1 14.728 8.503m-10.244.736a5.76 5.76 0 1 0 5.76-9.976 5.76 5.76 0 0 0-5.76 9.977" clip-rule="evenodd"/><path fill="#F6E6D2" fill-rule="evenodd" d="M36.339 43.117a7.507 7.507 0 1 0-7.507 13.001 7.507 7.507 0 0 0 7.507-13.001m-13.255 1.015c3.03-5.248 9.74-7.046 14.987-4.016 5.248 3.03 7.045 9.74 4.016 14.987-3.03 5.248-9.74 7.046-14.987 4.016-5.248-3.03-7.046-9.74-4.016-14.987" clip-rule="evenodd"/><path fill="#E89B37" d="M55.186 26.929a8.2 8.2 0 0 1-3.71 3.373c-1.167.53-1.886 2.488-1.115 3.511a19.27 19.27 0 0 1 3.758 13.683c-.085.768.432 1.482 1.154 1.756q.512.194 1.002.476a6.857 6.857 0 0 1-6.857 11.877L18.419 43.708a6.857 6.857 0 1 1 7.77-11.248c.599.489 1.476.58 2.098.122a19.27 19.27 0 0 1 13.729-3.587c1.272.156 2.607-1.445 2.484-2.72a8.2 8.2 0 0 1 1.066-4.9c2.272-3.936 5.933-2.909 9.868-.637 0 0 2.024 2.255-.248 6.191"/><path fill="url(#a)" d="M55.186 26.929a8.2 8.2 0 0 1-3.71 3.373c-1.167.53-1.886 2.488-1.115 3.511a19.27 19.27 0 0 1 3.758 13.683c-.085.768.432 1.482 1.154 1.756q.512.194 1.002.476a6.857 6.857 0 0 1-6.857 11.877L18.419 43.708a6.857 6.857 0 1 1 7.77-11.248c.599.489 1.476.58 2.098.122a19.27 19.27 0 0 1 13.729-3.587c1.272.156 2.607-1.445 2.484-2.72a8.2 8.2 0 0 1 1.066-4.9c2.272-3.936 5.933-2.909 9.868-.637 0 0 2.024 2.255-.248 6.191"/><path fill="#E28432" d="M52.1 46.33a19.27 19.27 0 0 0-3.758-13.682l-.75 1.299c1.134 5.405.213 5.507-.243 9.64-.084.768.433 1.482 1.155 1.757q.511.193 1.001.475a6.857 6.857 0 1 1-6.857 11.877l4.75 2.743a6.857 6.857 0 1 0 5.856-12.353c-.722-.274-1.239-.988-1.154-1.756"/><path fill="#482402" fill-rule="evenodd" d="M50.34 27.805a5.486 5.486 0 1 0-7.741-4.47c.155 1.613-.579 3.055-1.395 3.979-.798.903-2.273 1.96-4.155 1.729a16.53 16.53 0 0 0-11.77 3.075c-1.796 1.32-4.057.934-5.455-.207a4.114 4.114 0 1 0-4.665 6.747l35.63 20.571a4.114 4.114 0 1 0 3.51-7.413c-1.687-.64-3.15-2.406-2.906-4.62a16.53 16.53 0 0 0-3.222-11.732c-1.141-1.514-.963-3.32-.58-4.463.392-1.168 1.274-2.525 2.748-3.196m1.135 2.496A8.228 8.228 0 1 0 39.869 23.6c.123 1.276-1.212 2.878-2.484 2.722a19.27 19.27 0 0 0-13.729 3.587c-.622.457-1.5.366-2.098-.122a6.857 6.857 0 1 0-7.77 11.247l35.63 20.572a6.857 6.857 0 1 0 5.856-12.353c-.722-.274-1.239-.989-1.154-1.756a19.27 19.27 0 0 0-3.758-13.683c-.771-1.023-.052-2.98 1.114-3.512" clip-rule="evenodd"/><path fill="#482402" fill-rule="evenodd" d="M38.778 34.122a1.37 1.37 0 0 1-1.663.999c-.819-.204-2.321-.354-3.973-.06-1.635.292-3.34 1.004-4.692 2.447a1.371 1.371 0 1 1-2-1.877c1.852-1.975 4.148-2.902 6.211-3.27 2.047-.365 3.94-.195 5.118.099.735.183 1.182.927.999 1.662" clip-rule="evenodd"/><defs><linearGradient id="a" x1="18.134" x2="59.414" y1="30.483" y2="54.483" gradientUnits="userSpaceOnUse"><stop stop-color="#EFC443"/><stop offset="1" stop-color="#E69536"/></linearGradient></defs></svg>