<?xml version="1.0" encoding="UTF-8"?><svg id="Layer_2" xmlns="http://www.w3.org/2000/svg" viewBox="0 0 64 64"><defs><style>.cls-1{fill:#fff;}</style></defs><g id="Layer_4"><g><circle class="cls-1" cx="32" cy="32" r="32"/><g><path d="M32.22,46.6c-4.56,.02-9.08-.34-13.43-1.8-1.41-.47-2.74-1.21-4.05-1.93-.76-.42-1.36-1.08-1.58-1.98-.32-1.32,.29-2.27,1.28-3.05,1.71-1.35,3.72-2.04,5.78-2.58,1.22-.32,2.46-.55,3.7-.78,.34-.06,.71-.06,1.05,0,3.89,.7,7.79,.81,11.72,.37,1.01-.11,2.01-.39,3.02-.4,.87-.02,1.75,.18,2.62,.36,2.24,.46,4.44,1.06,6.43,2.22,.7,.41,1.35,.93,1.91,1.52,.89,.94,.87,2.34,.05,3.34-1.02,1.24-2.42,1.92-3.87,2.48-4.09,1.56-8.36,2.09-12.69,2.22-.64,.02-1.28,0-1.93,0Z"/><path d="M32.1,33.85c-3.71-.04-7.49-.33-11.09-1.65-1.14-.42-2.26-1.04-3.22-1.78-1.29-.99-1.23-2.3-.03-3.4,1.28-1.18,2.87-1.74,4.5-2.18,1.32-.35,2.68-.59,4.03-.83,.54-.09,1.11-.11,1.65-.05,2.72,.31,5.43,.33,8.15,.02,2.2-.25,4.32,.34,6.39,.97,1.15,.35,2.24,.92,3.34,1.43,.33,.15,.62,.43,.89,.69,1.09,1.03,1.1,2.26,0,3.3-1.12,1.07-2.52,1.61-3.97,2.07-3.44,1.08-6.98,1.38-10.65,1.41Z"/><path d="M32.78,23.24c-3.62-.1-6.63-.28-9.47-1.44-.65-.26-1.29-.62-1.83-1.05-1.08-.87-1.07-2.07,.11-2.81,1.06-.65,2.23-1.22,3.42-1.53,4.45-1.15,8.95-1.12,13.44-.25,1.46,.28,2.88,.71,4.13,1.58,1.47,1.02,1.47,2.28,0,3.29-1.62,1.1-3.48,1.53-5.37,1.8-1.66,.24-3.35,.32-4.43,.41Z"/></g></g></g></svg>