<svg xmlns="http://www.w3.org/2000/svg" width="32" height="32" fill="none"><g clip-path="url(#a)"><path fill="#F87171" d="M16 32c8.837 0 16-7.163 16-16S24.837 0 16 0 0 7.163 0 16s7.163 16 16 16"/><path fill="#000" d="M15.939 12.193c-.354-.315-1.056-.75-2.273-.744-1.217.005-1.018.62-1.018.62s-.025.5.77.516 1.647.047 2.339.3c.691.254.536-.378.182-.692M13.061 13.337c-.073.043-.092.165-.007.18.48.086 1.241.242 2.09.108.08-.013.068-.12.01-.176-.301-.288-1.11-.692-2.093-.112"/><path fill="#000" d="M23.064 21.396a.1.1 0 0 0-.1-.042.11.11 0 0 0-.084.068c-.494 1.44-.9 1.087-1.087.777a1.3 1.3 0 0 1-.144-.35c-.472-1.839-.04-3.532-.04-3.532.258.782.932 1.014 1.277 1.082a.11.11 0 0 0 .106-.04.1.1 0 0 0 .008-.11c-1.323-2.537-.54-3.612-.54-3.612.227.247.602.27.838.256a.1.1 0 0 0 .056-.019.1.1 0 0 0 .043-.101.1.1 0 0 0-.025-.052c-.96-1.036-1.032-1.387-1.07-3.142-.02-.972-.369-1.483-.693-1.75a2.66 2.66 0 0 1-.83-1.139c-1.293-3.558-3.713-4.028-5.96-3.895-2.787.166-4.272 2.254-4.976 3.294-.746 1.1-1.326 2.727-1.287 3.225s.508.42.508.995c0 .576-.908 1.054-.551 2.672.158.713.796 1.247.51 2.875-.515 2.927 1.777 6.483 2.348 7.013.07.064.191.012.179-.08-.09-.653.041-1.56.041-1.56 1.148 2.41 4.36 1.963 5.367 1.756a.1.1 0 0 0 .056-.03.102.102 0 0 0-.028-.163c-1.016-.528-1.248-1.6-1.248-1.6 1.01.468 1.658.39 1.97.289a.1.1 0 0 0 .049-.033.1.1 0 0 0 .014-.11.1.1 0 0 0-.04-.043c-.304-.187-.768-.96-1.12-1.716a1.78 1.78 0 0 1 .271-1.916c.41-.48.95-1.15 1.563-1.861.128-.15.306-.004.373.159.895 2.193 2.06 3.847 2.863 4.303.582.351 1.22.415 1.506.193.79-.61.163-1.661-.123-2.061m-9.69-2.041c-.961.056-.742-1.165-1.447-1.135-.756.033-.53.964-1.036 1.02-.507.058-.448-1.367-.092-1.532.56-.26 1.216-.322 1.742-.304.622.02 1.217-.003 1.496.583.33.691.296 1.312-.664 1.368m6.071-8.728c-1.276.742-1.352 1.11-1.535 2.415-.04.287-.081.623.053.813.303.428.88.745.721 1.469-.377 1.722-1.37 3.74-2.703 4.372-.16.076-.344-.078-.381-.248-.149-.683-.503-1.924-.598-2.329-.475-2.32-2.736-2.352-2.8-1.909-.018.132.458.306.76.403.279.09.288.478.012.57a.8.8 0 0 1-.225.035c-.559-.038-1.268.005-1.588.028a.44.44 0 0 1-.298-.088.42.42 0 0 1-.16-.262c-.125-.71.096-.965.364-1.64.132-.335.303-1.012.362-1.36.03-.186.018-.41-.002-.577a4 4 0 0 1-.029-.597c.02-.644.085-1.17.585-1.17.903 0 2.812.003 3.114-.431.318-.455-1.452-.014-3.354-.074a.16.16 0 0 1-.1-.04.15.15 0 0 1-.047-.096q0-.016-.004-.034a.23.23 0 0 1 .062-.18.24.24 0 0 1 .177-.077c1.015-.012 1.788-.081 1.991-.371.207-.296-.82-.164-1.983-.153-.149 0-.272-.002-.264-.148v-.004a.23.23 0 0 1 .07-.154.24.24 0 0 1 .155-.069c.685-.044.976-.095 1.005-.309s-.07-.193-.827-.15c-.165.01-.117-.113-.024-.246.236-.34 1.292-1.322 3.629-1.25 4.003.124 3.876 2.899 4 3.573a.27.27 0 0 1-.138.288"/></g><defs><clipPath id="a"><path fill="#fff" d="M0 0h32v32H0z"/></clipPath></defs></svg>