<svg xmlns="http://www.w3.org/2000/svg" xmlns:xlink="http://www.w3.org/1999/xlink" xml:space="preserve" enable-background="new 0 0 500 500" viewBox="0 0 500 500">
  <defs>
    <path id="a" fill="#fff" stroke="#aa7d50" stroke-miterlimit="10" stroke-width="2.5" d="M40.1 129.2v242.4L250 492.7l209.9-121.1V129.2L250 8z"/>
  </defs>
  <use xlink:href="#a" stroke-miterlimit="10" stroke-width="2.5"/>
  <defs>
    <filter id="b" width="422.2" height="487.5" x="38.9" y="6.6" filterUnits="userSpaceOnUse">
      <feFlood flood-color="#fff" flood-opacity="1" result="back"/>
      <feBlend in="SourceGraphic" in2="back"/>
    </filter>
  </defs>
  <mask id="c" width="422.2" height="487.5" x="38.9" y="6.6" maskUnits="userSpaceOnUse">
    <g filter="url(#b)">
      <path fill="none" stroke="#fff" stroke-miterlimit="10" stroke-width="2.5" d="M40.1 129.2v242.4L250 492.7l209.9-121.1V129.2L250 8z"/>
    </g>
  </mask>
  <use xlink:href="#a" stroke-miterlimit="10" stroke-width="2.5" mask="url(#c)"/>
  <path fill="#aa7d50" d="M195.1 123.1v62.8c9.6-5.1 18.9-10.3 27.8-15.5 9-5.3 17.9-10.5 26.8-15.5l29.5 16.2c9.8 5.4 19.6 11 29.5 16.8l19 11.4v89.5l-9.6 5.7-10 5.7a2974.5 2974.5 0 0 0-57.8 33.6 9219.7 9219.7 0 0 0-78-45v-92l.2-44.1c.1-14.7.1-28.8-.2-42.2v-.6c8.1 4.4 15.8 8.8 22.8 13.2zm55.2 57.8a934.5 934.5 0 0 0-27.6 15.7l-27.6 16.1v62.8l27.6 15.9c9.1 5.2 18.1 10.5 27 15.9 9.3-5.1 18.5-10.3 27.6-15.7l27.6-16.1v-62.8c-9.3-5.4-18.4-10.6-27.3-15.9-8.9-5.3-18-10.6-27.3-15.9z"/>
  <path d="M176 350.7v11.6l5.2-2.9 5-2.9 5.5 3 5.5 3.1 3.5 2.1v16.6l-1.8 1.1-1.9 1.1-5.4 3.1-5.4 3.2-7.2-4.2-7.2-4.2v-33.2c1.5.8 2.9 1.6 4.2 2.5zm10.2 10.7a132 132 0 0 0-5.1 2.9l-5.1 3v11.6l5.1 2.9 5 2.9a132 132 0 0 0 5.1-2.9l5.1-3v-11.6l-5.1-2.9-5-2.9zm32.6-5 7.2 4.2 7.2 4.2v16.5l-.3-.1-.3-.2-1.8-1.1-1.9-1.1v-11.6l-.2-.2-.4-.2-.4-.2-.3-.1-4.5-2.6-4.5-2.6-5 2.9-5.1 3v11.6l4.7 2.8 4.8 2.8.3.2.3.1.3-.1.4-.2 2.6-1.5 2.5-1.4 2.2 1.2 2.1 1.3-5 2.9-5 2.9-7.2-4.2-7.1-4.2v-16.6l7.1-4.1 7.3-4.3zm14.5 25a40 40 0 0 0 0 4.9l-4.4-2.4-4.2-2.5 2.1-1.2 2.1-1.2 2.1 1.2 2.3 1.2zm16.8-24.5 5.4 3.1 5.4 3.2 1.8 1 1.7 1.1-2.1 1.1-2 1.2a132 132 0 0 1-5.1-2.9l-5-2.9a132 132 0 0 0-5.1 2.9l-5.2 2.9.8.5.8.4 5.4 3.1a149 149 0 0 1 10 5.7 79.2 79.2 0 0 1 7.7 4.5l-7.1 4.1-7.1 4.1-7.2-4.1c-2.4-1.4-4.7-2.8-7.2-4.1l2.1-1.3 2.2-1.2 5 2.9 5.1 2.9 2.9-1.7 2.9-1.7-1.2-.8-1.2-.8-8.9-5.1-8.9-5.2v-4.9l7.2-4.2c2.1-1 4.5-2.4 6.9-3.8zm45.8 7.8-7.1 4.2-7.2 4.2-2-1.2-2.1-1.2 5-2.9 5-2.9-2.9-1.7-2.9-1.6a132 132 0 0 0-5.1 2.9l-5.1 3v11.6l5.1 2.9 5 2.9 5.1-2.9 5.1-2.9 4.2 2.5-7.1 4.2-7.2 4.1-7.1-4.1-7.2-4.1v-16.6l6.2-3.6 6.3-3.6.9-.6.9-.5c.2-.1.4 0 .6.1l.7.4 6.6 3.9c2 .9 4.2 2.2 6.3 3.5zm28.1-13.5 4.2-2.5v33.2l-7.2 4.2-7.2 4.2-5.4-3.2-5.4-3.1-1.9-1.1-1.8-1.1v-16.6l3.5-2.1 5.5-3.1 5.5-3 5 2.9 5.2 2.9v-11.6zm-10.2 10.7-5.1 2.9-5.1 2.9v11.6l5.1 3 5.1 2.9 5-2.9 5.1-2.9v-11.6l-5.1-3-5-2.9z"/>
</svg>
