<?xml version="1.0" encoding="UTF-8"?><svg xmlns="http://www.w3.org/2000/svg" viewBox="0 0 1077.1 1077.2"><defs><style>.h{fill:#f5eee4;}.i{fill:#c2bbaf;}.j{fill:#d4c7ba;}</style></defs><g id="a"/><g id="b"><g id="c"><g><g id="d"><g id="e"><circle class="h" cx="538.5" cy="538.7" r="529.7"/><g id="f"><g id="g"><path class="i" d="M538.3,1077.2C241.1,1077-.7,836,0,537.1,.7,240.8,241.2-.8,540.3,0c296.3,.9,537,241.2,536.8,539.1-.3,297.3-241.1,538.1-538.8,538.1ZM54.8,538.9c2.6,131.8,47.9,246.6,141.7,340.7,93.6,93.8,207.6,141.6,339.6,142.2,132.9,.6,248.1-46.5,342.8-140.6s142.4-208.7,142.6-341.4c.3-133-47.3-248-141.6-342.4-93.8-93.8-208.2-141.4-340.3-141.7-132.4-.3-247,46.8-341.3,140.5C103.4,290.2,57.6,405.4,54.8,538.9Z"/></g></g></g></g><g><path class="j" d="M424.14,203.39c-.02,.1-.01,.2,.01,.3h-10.1c.03-.1,.03-.2,.01-.3h10.07Z"/><path class="j" d="M653.13,203.68c.02-.1,.02-.19,.02-.29h9.74c-.01,.1,0,.2,.02,.29h-9.77Z"/><path d="M653.13,203.68h9.77c12.77,.64,24.99,3.45,36.43,9.29,15.89,8.11,27.54,20.43,35.71,36.16,5.14,9.9,8.42,20.44,10.41,31.39,1.89,10.38,2.62,20.86,2.34,31.4-.18,6.55-.86,13.06-1.81,19.54-3.57,24.5-9.91,48.36-16.77,72.1-3.07,10.63-6.35,21.19-9.78,31.71-.15,.47-.28,.95-.42,1.43,.49,.56,1.17,.72,1.76,1,21.07,9.96,40.76,22.12,58.8,36.89,18.93,15.5,35.25,33.34,48.28,54.11,12.67,20.2,21.34,41.99,26.02,65.36,3.35,16.71,4.42,33.59,3.7,50.59-1.11,26.05-6.44,51.18-16.63,75.23-11.53,27.23-28.24,50.85-49.62,71.21-19.03,18.13-40.6,32.57-64.11,44.19-19.64,9.71-40.12,17.16-61.25,22.89-15.06,4.09-30.31,7.25-45.73,9.64-9.45,1.47-18.94,2.61-28.46,3.53-19.23,1.85-38.51,2.59-57.83,2.46-11.47-.08-22.94-.48-34.38-1.28-9.88-.69-19.73-1.64-29.55-2.88-20.71-2.61-41.15-6.54-61.27-12.14-25.17-7-49.35-16.45-72.17-29.25-21.95-12.31-41.88-27.26-59.19-45.6-25.65-27.18-43.06-58.86-51.9-95.2-2.3-9.46-3.9-19.05-4.91-28.74-1.29-12.44-1.64-24.9-.85-37.38,2.64-41.77,17.05-79.03,43.09-111.78,15.85-19.93,34.74-36.51,55.86-50.63,12.15-8.12,24.87-15.23,38.08-21.46,.4-.19,.8-.37,1.13-.53,.27-.56,0-.96-.13-1.38-5.38-16.7-10.48-33.48-15.03-50.42-3.78-14.09-7.23-28.26-9.82-42.62-1.9-10.52-3.4-21.09-3.6-31.81-.14-7.28,.22-14.54,1.09-21.77,1.06-8.8,2.88-17.42,5.73-25.81,4.23-12.43,10.46-23.71,19.43-33.38,11.66-12.57,26.01-20.39,42.71-24.03,5.2-1.13,10.47-1.78,15.78-2.06h10.1c23.34,1.37,42.5,11.21,57.85,28.67,8.92,10.14,15.46,21.74,20.69,34.13,5.15,12.18,8.85,24.82,11.74,37.71,2.49,11.08,4.35,22.26,5.79,33.52,1.56,12.21,2.66,24.46,3.38,36.74,.42,7.04,.78,14.08,.97,21.12,.01,.38-.09,.79,.23,1.22h27.44c.36-.33,.2-.81,.22-1.23,.34-7.15,.58-14.31,1.02-21.46,.59-9.77,1.42-19.52,2.52-29.25,1.4-12.34,3.23-24.6,5.8-36.75,3.44-16.28,8.05-32.19,15.12-47.3,5.34-11.42,11.95-22,20.65-31.2,11.11-11.73,24.37-19.85,40.13-23.71,5.06-1.24,10.21-1.95,15.41-2.22Zm176.9,438.95c.2-.71,.15-1.45,.12-2.17-.11-2.34-.44-4.66-.37-7.01,.2-6.66-.11-13.31-.74-19.93-.56-5.89-1.43-11.74-2.59-17.55-2.65-13.27-6.83-26.04-12.61-38.27-4.21-8.92-9.17-17.41-14.87-25.47-4.4-6.22-9.15-12.15-14.26-17.79-4.02-4.44-8.23-8.69-12.64-12.75-3.74-3.45-7.58-6.8-11.54-9.99-7.81-6.28-15.99-12.04-24.51-17.32-12.91-8-26.35-14.97-40.49-20.53-6.22-2.45-10-9.29-7.58-16.27,5.22-15.05,9.98-30.25,14.44-45.54,4.42-15.18,8.53-30.44,11.86-45.89,1.81-8.4,3.42-16.84,4.47-25.39,.63-5.05,1.09-10.11,1.2-15.19,.1-4.25-.22-8.49-.55-12.72-.45-5.75-1.35-11.41-2.74-17.01-2.29-9.2-5.81-17.85-11.47-25.53-7.37-10-17.09-16.59-29.09-19.81-4-1.07-8.07-1.7-12.2-2.05-6-.51-11.96-.33-17.85,.88-12.52,2.56-22.52,9.28-30.69,18.89-6.77,7.96-11.64,17.06-15.62,26.67-3.84,9.26-6.69,18.84-9.03,28.58-1.73,7.17-3.11,14.4-4.3,21.68-.76,4.68-1.45,9.38-2.01,14.09-.55,4.65-1.05,9.32-1.5,13.99-.46,4.72-.77,9.46-1.19,14.18-.31,3.45-.5,6.91-.66,10.37-.27,5.86-.51,11.73-.69,17.59-.11,3.58-.05,7.16-.14,10.74-.05,2.12-.01,4.28-.42,6.34-1.1,5.54-5.71,9.13-11.46,9.14-19.81,.01-39.62,.01-59.43,0-6.77,0-11.76-4.99-11.86-11.73-.06-3.86-.06-7.71-.22-11.57-.19-4.63-.25-9.28-.45-13.91-.13-3.07-.17-6.15-.42-9.21-.16-1.9-.18-3.8-.32-5.69-.29-3.73-.6-7.46-.91-11.18-.25-3-.45-6.02-.78-9.01-.47-4.27-1.06-8.53-1.56-12.8-.72-6.16-1.7-12.27-2.84-18.36-1.8-9.67-3.98-19.24-6.89-28.65-3.15-10.18-7.06-20.04-12.45-29.26-4.17-7.14-9.13-13.64-15.43-19.09-9.08-7.86-19.63-12.09-31.56-12.83-7.23-.44-14.41,.17-21.45,2-11.16,2.89-20.56,8.63-27.9,17.58-4.84,5.9-8.33,12.55-10.9,19.72-3.44,9.61-5.01,19.57-5.54,29.7-.27,5.19-.25,10.39,.17,15.59,.41,5.13,1.04,10.22,1.85,15.29,1.46,9.1,3.36,18.11,5.49,27.07,5.47,23,12.21,45.65,19.48,68.14,1.6,4.95,3.28,9.86,4.89,14.81,1.24,3.8,.73,7.37-1.43,10.74-1.66,2.58-4.11,4.06-6.86,5.14-5.63,2.2-11.11,4.73-16.54,7.37-9.86,4.82-19.39,10.22-28.56,16.25-10.2,6.71-19.92,14.05-28.95,22.28-6.63,6.04-12.93,12.38-18.72,19.23-6.59,7.78-12.5,16.05-17.7,24.83-5.94,10.05-10.79,20.6-14.5,31.66-4.79,14.27-7.5,28.96-8.43,43.96-.38,6.08-.5,12.18-.38,18.28,.01,.56-.04,1.13,.3,1.62-.09,3.59,.32,7.15,.61,10.71,.7,8.37,2,16.65,3.86,24.83,7.41,32.56,22.73,60.9,45.63,85.15,13.26,14.04,28.33,25.84,44.81,35.87,20.17,12.28,41.71,21.46,64.23,28.43,20.39,6.3,41.2,10.65,62.34,13.54,11.86,1.62,23.77,2.75,35.71,3.53,8.88,.58,17.77,.83,26.67,.98,10.18,.17,20.36-.05,30.54-.46,9.84-.4,19.65-1.08,29.45-2.03,8.46-.82,16.89-1.87,25.29-3.18,13.92-2.17,27.71-5,41.32-8.65,23.24-6.24,45.63-14.66,66.79-26.18,16.48-8.98,31.78-19.62,45.58-32.37,15.8-14.59,28.92-31.26,38.94-50.32,12.64-24.04,19.25-49.72,20.74-76.77Z"/><path class="i" d="M586.78,800.53c3.82-.45,7.63-.97,11.44-1.49,3.7-.51,7.38-1.1,11.06-1.75,4.61-.81,9.21-1.67,13.79-2.6,8.64-1.75,17.2-3.79,25.72-6.07,10.14-2.71,20.16-5.82,30.08-9.27,8.6-2.99,17.08-6.3,25.46-9.87,8.85-3.77,17.52-7.93,26.03-12.41,7.42-3.9,14.66-8.12,21.73-12.63,6.7-4.27,13.17-8.85,19.46-13.68,3.72-2.86,7.32-5.86,10.83-8.98,3.68-3.27,7.3-6.6,10.72-10.14,8.75-9.02,16.54-18.79,22.83-29.69,5.16-8.95,9.18-18.39,11.61-28.46,.8-3.31,1.42-6.65,1.91-10.01,.06-.41,.05-.8,.59-.85-1.5,27.06-8.1,52.73-20.74,76.77-10.02,19.06-23.14,35.73-38.94,50.32-13.8,12.74-29.1,23.39-45.58,32.37-21.17,11.53-43.55,19.95-66.79,26.18-13.61,3.65-27.4,6.48-41.32,8.65-8.4,1.31-16.83,2.36-25.29,3.18-9.8,.95-19.62,1.64-29.45,2.03-10.18,.41-20.36,.63-30.54,.46-8.89-.15-17.79-.4-26.67-.98-11.94-.78-23.85-1.91-35.71-3.53-21.14-2.89-41.95-7.24-62.34-13.54-22.52-6.96-44.06-16.15-64.23-28.43-16.48-10.03-31.55-21.82-44.81-35.87-22.9-24.26-38.23-52.59-45.63-85.15-1.86-8.18-3.17-16.46-3.86-24.83-.3-3.57-.7-7.12-.61-10.71,.65,1.23,.43,2.61,.6,3.91,.69,5.04,1.82,9.98,3.23,14.85,2.17,7.5,5.36,14.58,9.06,21.42,3.49,6.45,7.61,12.5,12.14,18.26,2.62,3.34,5.38,6.56,8.24,9.7,2.34,2.56,4.78,5.02,7.25,7.46,5.25,5.19,10.86,9.98,16.65,14.55,6.53,5.17,13.34,9.96,20.36,14.44,6.27,4,12.67,7.77,19.21,11.31,5.71,3.09,11.49,6.01,17.35,8.78,8.74,4.14,17.65,7.86,26.68,11.31,5.43,2.07,10.9,4.02,16.41,5.86,12.66,4.23,25.51,7.77,38.5,10.83,7.05,1.66,14.15,3.11,21.28,4.39,5.21,.93,10.43,1.81,15.68,2.47,3.76,.48,7.5,1.09,11.25,1.56,2.65,.33,5.33,.51,7.99,.77,3.16,.3,6.32,.63,9.48,.92,1.72,.16,3.46,.25,5.18,.31,3.46,.12,6.92,.35,10.38,.49,7.21,.3,14.42,.34,21.63,.22,5.75-.09,11.5-.37,17.24-.68"/><path d="M393.24,601.34c.04-8.48,.98-16.84,3.75-24.9,2.1-6.1,5.12-11.68,9.75-16.26,4.67-4.61,10.23-7.52,16.82-8.31,10.58-1.27,19.35,2.19,26.36,10.15,5.16,5.86,8,12.86,9.78,20.35,.95,4.02,1.47,8.11,1.8,12.25,.28,3.64,.35,7.27,.18,10.9-.41,9.05-1.86,17.9-5.79,26.16-3.11,6.54-7.42,12.09-13.82,15.77-5.72,3.29-11.85,4.43-18.4,3.62-7.09-.88-12.95-4.1-17.79-9.22-3.94-4.16-6.63-9.12-8.57-14.48-1.77-4.91-2.87-9.97-3.44-15.16-.39-3.62-.68-7.23-.63-10.87Z"/><path d="M684.37,601.4c-.1,8.16-.93,16.08-3.37,23.77-2.06,6.48-5.11,12.42-9.93,17.3-4.65,4.71-10.22,7.71-16.87,8.56-10.1,1.3-18.65-1.8-25.66-9.1-3.8-3.96-6.46-8.68-8.38-13.82-2.31-6.17-3.52-12.55-4.04-19.1-.33-4.2-.4-8.39-.19-12.57,.48-9.39,2.18-18.53,6.63-26.96,3.53-6.71,8.4-12.13,15.42-15.31,5.05-2.29,10.34-3.02,15.87-2.33,9.03,1.14,15.77,5.9,20.94,13.13,4.11,5.74,6.41,12.25,7.85,19.09,1.21,5.76,1.65,11.6,1.72,17.34Z"/></g></g></g></g></svg>