<svg xmlns="http://www.w3.org/2000/svg" xmlns:xlink="http://www.w3.org/1999/xlink" fill="none" viewBox="0 0 410 410">
  <defs>
    <path id="b" fill="#fff" d="M410 0H0v410h410V0Z"/>
  </defs>
  <g clip-path="url(#a)">
    <mask id="c" width="410" height="410" x="0" y="0" maskUnits="userSpaceOnUse" style="mask-type:luminance">
      <use xlink:href="#b"/>
    </mask>
    <g mask="url(#c)">
      <mask id="d" width="410" height="410" x="0" y="0" maskUnits="userSpaceOnUse" style="mask-type:luminance">
        <use xlink:href="#b"/>
      </mask>
      <g mask="url(#d)">
        <mask id="e" width="410" height="410" x="0" y="0" maskUnits="userSpaceOnUse" style="mask-type:luminance">
          <path fill="#fff" d="M409.658 0H0v409.696h409.658V0Z"/>
        </mask>
        <g mask="url(#e)">
          <path fill="#F5EEE4" d="M204.813 406.348c111.263 0 201.462-90.199 201.462-201.464 0-111.264-90.199-201.462-201.462-201.462C93.548 3.422 3.35 93.62 3.35 204.884c0 111.265 90.198 201.464 201.463 201.464Z"/>
          <path fill="#C2BBAF" d="M204.735 409.696C91.699 409.619-.265 317.96.001 204.277.267 91.586 91.737-.303 205.495.001c112.692.342 204.239 91.736 204.163 205.038-.114 113.073-91.698 204.657-204.923 204.657ZM20.843 204.962c.989 50.128 18.218 93.791 53.893 129.581 35.599 35.675 78.958 53.853 129.162 54.082 50.546.229 94.36-17.684 130.378-53.474 36.017-35.789 54.16-79.376 54.235-129.845.114-50.586-17.989-94.324-53.854-130.227-35.676-35.676-79.186-53.78-129.428-53.894-50.357-.114-93.942 17.8-129.808 53.437-36.094 35.752-53.513 79.566-54.578 130.34Z"/>
        </g>
      </g>
    </g>
    <path stroke="#fff" stroke-linecap="round" stroke-linejoin="round" stroke-width="3.901" d="M317.986 154.82c0-.064 0-.141-.026-.205 0-.09-.012-.167-.025-.256 0-.064-.039-.115-.052-.179a2.17 2.17 0 0 0-.089-.269c0-.013 0-.039-.013-.051a.515.515 0 0 1-.064-.116c-.038-.076-.09-.153-.141-.23a.951.951 0 0 0-.141-.179.686.686 0 0 0-.089-.115l-64.769-70.44a2.416 2.416 0 0 0-1.779-.78h-91.597c-.09 0-.18.013-.282.026h-.051a2.414 2.414 0 0 0-1.459.755L93.383 152.4a2.407 2.407 0 0 0-1.05 1.241l-.039.077a.983.983 0 0 1-.077.128c0 .025 0 .038-.025.064a.916.916 0 0 0-.077.243c-.026.064-.038.128-.064.205a1.396 1.396 0 0 0-.025.23c0 .077-.026.154-.026.231v99.636c0 .064 0 .141.026.205 0 .089.012.166.025.256 0 .064.038.115.051.179.026.089.052.179.09.269 0 .013 0 .038.013.051 0 .025.025.038.038.064.077.166.18.333.308.473.025.026.038.052.063.077 0 0 0 .013.013.026l64.769 70.413s.038.026.051.039c.064.077.141.14.23.192.051.038.103.089.154.115.077.051.154.09.243.141.064.038.128.077.205.102.025 0 .038.026.051.026.077.025.167.051.243.064l.154.038c.153.026.32.051.474.051h91.584c.154 0 .32-.013.474-.051.051 0 .102-.025.153-.038.077-.026.167-.039.244-.064.025 0 .038-.026.051-.026.064-.025.128-.064.205-.102.076-.039.166-.09.243-.141l.154-.115.23-.192c.013-.013.038-.026.051-.039l64.026-69.607a2.408 2.408 0 0 0 1.05-1.241c.205-.359.333-.781.333-1.203V154.82h-.013Z" opacity=".48"/>
    <path fill="#040A14" d="M317.986 154.82c0-.064 0-.141-.026-.205 0-.09-.012-.167-.025-.256 0-.064-.039-.115-.052-.179a2.17 2.17 0 0 0-.089-.269c0-.013 0-.039-.013-.051a.515.515 0 0 1-.064-.116c-.038-.076-.09-.153-.141-.23a.951.951 0 0 0-.141-.179.686.686 0 0 0-.089-.115l-64.769-70.44a2.416 2.416 0 0 0-1.779-.78h-91.597c-.09 0-.18.013-.282.026h-.051a2.414 2.414 0 0 0-1.459.755L93.383 152.4a2.407 2.407 0 0 0-1.05 1.241l-.039.077a.983.983 0 0 1-.077.128c0 .025 0 .038-.025.064a.916.916 0 0 0-.077.243c-.026.064-.038.128-.064.205a1.396 1.396 0 0 0-.025.23c0 .077-.026.154-.026.231v99.636c0 .064 0 .141.026.205 0 .089.012.166.025.256 0 .064.038.115.051.179.026.089.052.179.09.269 0 .013 0 .038.013.051 0 .025.025.038.038.064.077.166.18.333.308.473.025.026.038.052.063.077 0 0 0 .013.013.026l64.769 70.413s.038.026.051.039c.064.077.141.14.23.192.051.038.103.089.154.115.077.051.154.09.243.141.064.038.128.077.205.102.025 0 .038.026.051.026.077.025.167.051.243.064l.154.038c.153.026.32.051.474.051h91.584c.154 0 .32-.013.474-.051.051 0 .102-.025.153-.038.077-.026.167-.039.244-.064.025 0 .038-.026.051-.026.064-.025.128-.064.205-.102.076-.039.166-.09.243-.141l.154-.115.23-.192c.013-.013.038-.026.051-.039l64.026-69.607a2.408 2.408 0 0 0 1.05-1.241c.205-.359.333-.781.333-1.203V154.82h-.013Z"/>
    <path fill="#FF1467" d="m251.67 320.316-8.486-22.272 59.815-33.536-51.329 55.808Zm-145.231-56.402 60.378 34.1-8.486 22.297-51.892-56.397ZM158.37 88.898l8.473 22.298-59.853 33.562 51.38-55.86Zm145.179 56.462-60.25-34.035 8.474-22.247 51.776 56.282Zm-16.129 55.834-33.127-16.102 33.127-14.912v31.014Zm-97.498 54.158h30.144L205 289.464l-15.078-34.112Zm30.144-101.44h-30.144l15.078-34.1 15.066 34.1Zm7.616 3.506 33.267-13.504-12.134 36.48-21.133-22.976Zm-66.51 22.976-12.135-36.48 33.268 13.504-21.133 22.976Zm-3.022 39.577-31.578-15.334 31.578-15.348v30.682Zm24.155 31.873-33.268 13.504 12.135-36.481 21.133 22.977Zm66.51-22.977 12.134 36.481-33.267-13.504 21.133-22.977Zm3.035-39.578 31.565 15.348-31.565 15.334v-30.682Zm2.252-9.435 11.903-35.776 19.777 21.517-31.68 14.259Zm-26.372-27.699 13.39-35.124 19.891 21.619-33.281 13.505Zm-4.237-2.483-15.411-34.867h28.698l-13.287 34.867Zm-36.912-.192-13.171-34.675h28.493l-15.322 34.675Zm-4.134 2.757-33.472-13.581 20.032-21.773 13.44 35.354Zm-38.466-8.159 11.93 35.866-31.731-14.323 19.801-21.543Zm11.637 41.053-33.05 16.064v-30.976l33.05 14.912Zm-33.05 22.947 33.127 16.09-33.127 14.925v-31.015Zm33.317 21.328-11.904 35.777-19.776-21.504 31.68-14.273Zm26.549 27.625-13.453 35.329-20.006-21.748 33.459-13.581Zm4.147 2.75 15.322 34.676h-28.532l13.21-34.676Zm36.823 0 13.222 34.675h-28.544l15.322-34.675Zm4.149-2.75 33.459 13.581-20.006 21.748-13.453-35.329Zm38.452 8.15-11.878-35.712 31.463 14.425-19.585 21.287Zm-11.753-40.987 33.165-16.116V239.4l-33.165-15.206Zm38.019-56.205 20.865-9.395v92.609l-20.865-9.575v-73.639Zm-1.831-4.49-38.221-41.561 57.894 32.704-19.673 8.857Zm-51.815-53.543h-25.408l33.805-22.042-8.397 22.042Zm-67.062.003-8.307-21.85 33.511 21.85h-25.204Zm-52.042 53.552L99.553 154.5l58.381-32.742-38.413 41.753Zm-1.805 4.504v73.254l-20.864 9.409v-92.084l20.864 9.421Zm1.831 77.758 38.221 41.55-57.895-32.692 19.674-8.858Zm51.967 53.532h25.254l-33.6 21.913 8.346-21.913Zm66.958 0 8.345 21.913-33.6-21.913h25.255Zm51.751-53.282 19.699 9.037-57.869 32.449 38.17-41.486ZM205 109.533l-34.791-22.681h69.569L205 109.533Zm0 190.194 34.778 22.694h-69.569L205 299.727Zm17.332-140.961h-34.675l-24.653 26.816v38.119l24.653 26.803h34.675l24.666-26.803v-38.119l-24.666-26.816Z"/>
    <path fill="#fff" d="m251.67 320.316-8.486-22.272 59.815-33.536-51.329 55.808Z" opacity=".28"/>
    <path fill="#fff" d="m106.439 263.914 60.378 34.1-8.486 22.297-51.892-56.397ZM158.37 88.898l8.473 22.298-59.853 33.562 51.38-55.86Z" opacity=".8"/>
    <path fill="#fff" d="m303.549 145.36-60.25-34.035 8.474-22.247 51.776 56.282Z" opacity=".28"/>
    <path fill="#fff" d="m287.42 201.194-33.127-16.102 33.127-14.912v31.014Z" opacity=".1"/>
    <path fill="#fff" d="M189.922 255.352h30.144L205 289.464l-15.078-34.112Zm30.144-101.44h-30.144l15.078-34.1 15.066 34.1Z" opacity=".72"/>
    <path fill="#fff" d="m227.682 157.418 33.267-13.504-12.134 36.48-21.133-22.976Zm-5.35 93.086h-34.675l-24.653-26.803v-38.119l24.653-26.816h34.739l24.602 26.816v38.119l-24.666 26.803Z" opacity=".6"/>
    <path fill="#fff" d="m161.172 180.394-12.135-36.48 33.268 13.504-21.133 22.976Zm-3.022 39.577-31.578-15.334 31.578-15.348v30.682Zm24.155 31.873-33.268 13.504 12.135-36.481 21.133 22.977Z" opacity=".8"/>
    <path fill="#fff" d="m248.815 228.867 12.134 36.481-33.267-13.504 21.133-22.977Z" opacity=".6"/>
    <path fill="#fff" d="m251.85 189.289 31.565 15.348-31.565 15.334v-30.682Zm2.252-9.435 11.903-35.776 19.777 21.517-31.68 14.259Z" opacity=".4"/>
    <path fill="#fff" d="m227.73 152.155 13.39-35.124 19.891 21.619-33.281 13.505Z" opacity=".28"/>
    <path fill="#fff" d="m223.493 149.672-15.411-34.867h28.698l-13.287 34.867Z" opacity=".6"/>
    <path fill="#fff" d="m186.581 149.48-13.171-34.675h28.493l-15.322 34.675Z" opacity=".4"/>
    <path fill="#fff" d="m182.447 152.237-33.472-13.581 20.032-21.773 13.44 35.354Z" opacity=".6"/>
    <path fill="#fff" d="m143.981 144.078 11.93 35.866-31.731-14.323 19.801-21.543Z" opacity=".28"/>
    <path fill="#fff" d="m155.618 185.131-33.05 16.064v-30.976l33.05 14.912Zm-33.05 22.947 33.127 16.09-33.127 14.925v-31.015Z" opacity=".6"/>
    <path fill="#fff" d="m155.885 229.406-11.904 35.777-19.776-21.504 31.68-14.273Z" opacity=".28"/>
    <path fill="#fff" d="m182.434 257.031-13.453 35.329-20.006-21.748 33.459-13.581Z" opacity=".6"/>
    <path fill="#fff" d="m186.581 259.781 15.322 34.676h-28.532l13.21-34.676Z" opacity=".4"/>
    <path fill="#fff" d="m223.404 259.781 13.222 34.675h-28.544l15.322-34.675Z" opacity=".6"/>
    <path fill="#fff" d="m227.553 257.031 33.459 13.581-20.006 21.748-13.453-35.329Z" opacity=".28"/>
    <path fill="#fff" d="m266.005 265.181-11.878-35.712 31.463 14.425-19.585 21.287Z" opacity=".4"/>
    <path fill="#fff" d="m254.252 224.194 33.165-16.116V239.4l-33.165-15.206Z" opacity=".1"/>
    <path fill="#fff" d="m292.271 167.989 20.865-9.395v92.609l-20.865-9.575v-73.639Z" opacity=".4"/>
    <path fill="#fff" d="m290.44 163.499-38.221-41.561 57.894 32.704-19.673 8.857Z" opacity=".28"/>
    <path fill="#fff" d="M238.625 109.956h-25.408l33.805-22.042-8.397 22.042Z" opacity=".4"/>
    <path fill="#fff" d="m171.563 109.959-8.307-21.85 33.511 21.85h-25.204Z" opacity=".6"/>
    <path fill="#fff" d="M119.521 163.511 99.553 154.5l58.381-32.742-38.413 41.753Z" opacity=".4"/>
    <path fill="#fff" d="M117.716 168.015v73.254l-20.864 9.409v-92.084l20.864 9.421Z" opacity=".8"/>
    <path fill="#fff" d="m119.547 245.773 38.221 41.55-57.895-32.692 19.674-8.858Z" opacity=".4"/>
    <path fill="#fff" d="M171.514 299.305h25.254l-33.6 21.913 8.346-21.913Z" opacity=".6"/>
    <path fill="#fff" d="m238.472 299.305 8.345 21.913-33.6-21.913h25.255Z" opacity=".4"/>
    <path fill="#fff" d="m290.223 246.023 19.699 9.037-57.869 32.449 38.17-41.486Z" opacity=".28"/>
    <path fill="#fff" d="m205 109.533-34.791-22.681h69.569L205 109.533Zm0 190.194 34.778 22.694h-69.569L205 299.727Z" opacity=".8"/>
    <path fill="#FF1467" d="m251.668 320.316-8.486-22.272 59.815-33.536-51.329 55.808Zm-145.229-56.402 60.378 34.1-8.486 22.297-51.892-56.397ZM158.37 88.898l8.473 22.298-59.853 33.562 51.38-55.86Zm145.177 56.462-60.25-34.035 8.474-22.247 51.776 56.282Zm-16.127 55.834-33.127-16.102 33.127-14.912v31.014Zm-97.498 54.158h30.144L205 289.464l-15.078-34.112Zm30.144-101.44h-30.144l15.078-34.1 15.066 34.1Zm7.616 3.506 33.267-13.504-12.134 36.48-21.133-22.976Zm-66.51 22.976-12.135-36.48 33.268 13.504-21.133 22.976Zm-3.022 39.577-31.578-15.334 31.578-15.348v30.682Zm24.155 31.873-33.268 13.504 12.135-36.481 21.133 22.977Zm66.51-22.977 12.134 36.481-33.267-13.504 21.133-22.977Zm3.033-39.578 31.565 15.348-31.565 15.334v-30.682Zm2.254-9.435 11.903-35.776 19.777 21.517-31.68 14.259Zm-26.372-27.699 13.39-35.124 19.891 21.619-33.281 13.505Zm-4.237-2.483-15.411-34.867h28.698l-13.287 34.867Zm-36.913-.192-13.172-34.675h28.493L186.58 149.48Zm-4.133 2.757-33.472-13.581 20.032-21.773 13.44 35.354Zm-38.466-8.159 11.93 35.866-31.731-14.323 19.801-21.543Zm11.635 41.053-33.05 16.064v-30.976l33.05 14.912Zm-33.05 22.947 33.127 16.09-33.127 14.925v-31.015Zm33.319 21.328-11.904 35.777-19.776-21.504 31.68-14.273Zm26.549 27.625-13.453 35.329-20.006-21.748 33.459-13.581Zm4.147 2.75 15.322 34.676h-28.532l13.21-34.676Zm36.823 0 13.222 34.675h-28.544l15.322-34.675Zm4.149-2.75 33.459 13.581-20.006 21.748-13.453-35.329Zm38.452 8.15-11.878-35.712 31.463 14.425-19.585 21.287Zm-11.753-40.987 33.165-16.116V239.4l-33.165-15.206Zm38.019-56.205 20.865-9.395v92.609l-20.865-9.575v-73.639Zm-1.831-4.49-38.221-41.561 57.894 32.704-19.673 8.857Zm-51.815-53.543h-25.408l33.805-22.042-8.397 22.042Zm-67.062.003-8.307-21.85 33.511 21.85h-25.204Zm-52.042 53.552L99.553 154.5l58.381-32.742-38.413 41.753Zm-1.805 4.504v73.254l-20.864 9.409v-92.084l20.864 9.421Zm1.831 77.758 38.221 41.55-57.895-32.692 19.674-8.858Zm51.967 53.532h25.254l-33.6 21.913 8.346-21.913Zm66.958 0 8.345 21.913-33.6-21.913h25.255Zm51.751-53.282 19.699 9.037-57.869 32.449 38.17-41.486ZM205 109.533l-34.791-22.681h69.569L205 109.533Zm0 190.194 34.778 22.694h-69.569L205 299.727Z" opacity=".4" style="mix-blend-mode:overlay"/>
  </g>
  <defs>
    <clipPath id="a">
      <path fill="#fff" d="M0 0h410v410H0z"/>
    </clipPath>
  </defs>
</svg>
