<svg xmlns="http://www.w3.org/2000/svg" xmlns:xlink="http://www.w3.org/1999/xlink" fill="none" viewBox="0 0 410 410">
  <defs>
    <path id="b" fill="#fff" d="M410 0H0v410h410V0Z"/>
    <path id="h" fill="#fff" d="M0 0h410v410H0z"/>
  </defs>
  <g clip-path="url(#a)">
    <mask id="c" width="410" height="410" x="0" y="0" maskUnits="userSpaceOnUse" style="mask-type:luminance">
      <use xlink:href="#b"/>
    </mask>
    <g mask="url(#c)">
      <path fill="#F5F5F5" d="M410 205C410 91.782 318.218 0 205 0S0 91.782 0 205s91.782 205 205 205 205-91.782 205-205Z"/>
      <path fill="#141416" d="M236.373 242.296c-58.118 17.436-106.196 42.866-136.29 72.663l-1.33 1.322c8.003 7.564 16.778 14.329 26.264 20.08l2.04-2.491a386.736 386.736 0 0 1 26.201-28.844c24.625-24.507 52.806-45.725 83.146-62.76l-.031.03ZM51.232 216.469c2.318 31.088 13.874 59.593 32.01 82.779l.835-.831c18.632-18.357 42.887-35.055 72.146-49.599 25.645-12.762 55.092-23.709 86.824-32.349H51.232Zm118.28-127.765c52.003 51.752 117.444 85.976 189.22 98.953-8.651-76.721-74.031-136.407-153.47-136.407-20.98 0-40.971 4.182-59.233 11.716a380.238 380.238 0 0 0 23.483 25.738Zm-69.429 6.331c30.094 29.827 78.172 55.227 136.29 72.693-30.34-17.066-58.521-38.253-83.146-62.761a388.11 388.11 0 0 1-26.201-28.843l-2.04-2.491c-9.485 5.75-18.26 12.515-26.232 20.08l1.329 1.322Zm69.429 226.262a364.474 364.474 0 0 0-23.483 25.737c18.231 7.534 38.253 11.716 59.233 11.716 79.439 0 144.819-59.686 153.5-136.438-71.775 12.977-137.216 47.202-189.219 98.954l-.031.031ZM156.223 161.18c-29.259-14.545-53.514-31.242-72.146-49.6l-.834-.83c-18.137 23.185-29.693 51.691-32.01 82.779h191.783c-31.732-8.641-61.148-19.588-86.823-32.38l.03.031Z"/>
      <g clip-path="url(#d)">
        <mask id="e" width="410" height="410" x="0" y="0" maskUnits="userSpaceOnUse" style="mask-type:luminance">
          <use xlink:href="#b"/>
        </mask>
        <g mask="url(#e)">
          <mask id="f" width="410" height="410" x="0" y="0" maskUnits="userSpaceOnUse" style="mask-type:luminance">
            <use xlink:href="#b"/>
          </mask>
          <g mask="url(#f)">
            <mask id="g" width="410" height="410" x="0" y="0" maskUnits="userSpaceOnUse" style="mask-type:luminance">
              <path fill="#fff" d="M409.658 0H0v409.696h409.658V0Z"/>
            </mask>
            <g mask="url(#g)">
              <path fill="#F5EEE4" d="M204.813 406.348c111.263 0 201.462-90.199 201.462-201.464 0-111.264-90.199-201.462-201.462-201.462C93.548 3.422 3.35 93.62 3.35 204.884c0 111.265 90.198 201.464 201.463 201.464Z"/>
              <path fill="#C2BBAF" d="M204.735 409.696C91.699 409.619-.265 317.96.001 204.277.267 91.586 91.737-.303 205.495.001c112.692.342 204.239 91.736 204.163 205.038-.114 113.073-91.698 204.657-204.923 204.657ZM20.843 204.962c.989 50.128 18.218 93.791 53.893 129.581 35.599 35.675 78.958 53.853 129.162 54.082 50.546.229 94.36-17.684 130.378-53.474 36.017-35.789 54.16-79.376 54.235-129.845.114-50.586-17.989-94.324-53.854-130.227-35.676-35.676-79.186-53.78-129.428-53.894-50.357-.114-93.942 17.8-129.808 53.437-36.094 35.752-53.513 79.566-54.578 130.34Z"/>
            </g>
          </g>
        </g>
        <path stroke="#fff" stroke-linecap="round" stroke-linejoin="round" stroke-width="3.901" d="m278.572 144.701-72.633-44.173-.06-.03c-.11-.06-.22-.11-.34-.15l-.11-.03a1.684 1.684 0 0 0-.899 0c-.04 0-.07.02-.11.03-.12.04-.23.09-.34.15-.02.01-.04.01-.06.03l-72.623 44.173s-.04.04-.06.05c-.09.06-.17.12-.24.2-.03.03-.07.06-.1.1-.02.02-.05.04-.07.07-.05.06-.08.13-.12.19l-.06.09c-.07.13-.12.26-.16.4 0 .02 0 .04-.01.07-.03.12-.04.24-.05.36v117.546c0 .12.02.23.04.34 0 .03 0 .06.02.08.04.14.09.27.16.4.02.03.04.049.05.08.04.069.08.14.14.209l.06.06c.04.04.08.081.13.121.07.059.14.119.22.179.02.02.04.04.06.05l72.633 44.174.06.03c.11.06.22.11.34.15l.11.03a1.682 1.682 0 0 0 .899 0c.04 0 .07-.02.11-.03.12-.04.23-.09.34-.15.02-.01.04-.01.06-.03l72.633-44.174c.55-.33.88-.929.88-1.569V146.271c0-.64-.34-1.24-.88-1.57h-.02Z" opacity=".48"/>
        <path fill="#040A14" d="m278.572 144.701-72.633-44.173-.06-.03c-.11-.06-.22-.11-.34-.15l-.11-.03a1.684 1.684 0 0 0-.899 0c-.04 0-.07.02-.11.03-.12.04-.23.09-.34.15-.02.01-.04.01-.06.03l-72.623 44.173s-.04.04-.06.05c-.09.06-.17.12-.24.2-.03.03-.07.06-.1.1-.02.02-.05.04-.07.07-.05.06-.08.13-.12.19l-.06.09c-.07.13-.12.26-.16.4 0 .02 0 .04-.01.07-.03.12-.04.24-.05.36v117.546c0 .12.02.23.04.34 0 .03 0 .06.02.08.04.14.09.27.16.4.02.03.04.049.05.08.04.069.08.14.14.209l.06.06c.04.04.08.081.13.121.07.059.14.119.22.179.02.02.04.04.06.05l72.633 44.174.06.03c.11.06.22.11.34.15l.11.03a1.682 1.682 0 0 0 .899 0c.04 0 .07-.02.11-.03.12-.04.23-.09.34-.15.02-.01.04-.01.06-.03l72.633-44.174c.55-.33.88-.929.88-1.569V146.271c0-.64-.34-1.24-.88-1.57h-.02Z"/>
        <path fill="#00A2FF" d="m275.784 198.003-16.794-34.027 16.794-13.335v47.362Zm-38.255-21.662-30.699-18.673v-22.332l46.613 28.349-15.914 12.656Zm-32.538 72.785-30.839-18.753v-50.761l30.839-18.753 30.838 18.753v50.761l-30.838 18.753Zm-1.841-91.458-30.689 18.663-15.764-12.736 46.453-28.259v22.332Zm-32.676 21.782v50.581l-15.124 12.415v-75.212l15.124 12.216Zm1.648 53.988 31.029 18.872v22.332l-46.653-28.379 15.624-12.825Zm34.708 18.874 30.679-18.664 15.594 12.846-46.273 28.149v-22.331Zm32.678-21.78v-51.071l15.114-12.016v75.532l-15.114-12.445Zm-29.11-97.322 30.759-5.538 12.205 31.668-42.964-26.13Zm-53.779 26.13 12.205-31.668 30.759 5.538-42.964 26.13Zm-4.948 79.729-16.814-34.078 16.814-34.077v68.155Zm47.912 37.702-30.759 5.538-12.205-31.668 42.964 26.13Zm53.779-26.13-12.205 31.668-30.759-5.538 42.964-26.13Zm4.949-11.572v-68.155l16.813 34.077-16.813 34.078Zm-.63-78.755-12.085-31.369 29.209 17.764-17.124 13.605Zm-50.851-30.206v-24.741l31.388 19.093-31.388 5.648Zm-3.678 0-31.388-5.648 31.388-19.093v24.741Zm-50.772 29.986-16.833-13.605 28.839-17.544-12.006 31.149Zm-1.289 3.694-16.894 34.217v-47.872l16.894 13.655Zm-.09 82.226-16.804 13.795v-47.832l16.804 34.037Zm1.31 3.689 12.076 31.329-28.86-17.554 16.784-13.775Zm50.841 30.172v24.731l-31.388-19.083 31.388-5.648Zm3.678 0 31.388 5.648-31.388 19.083v-24.731Zm50.681-29.766 16.534 13.615-28.449 17.304 11.915-30.919Zm1.28-3.705 16.994-34.427v48.412l-16.994-13.985Z"/>
        <path fill="#fff" d="m275.784 198.003-16.794-34.027 16.794-13.335v47.362Z" opacity=".1"/>
        <path fill="#fff" d="m237.529 176.341-30.699-18.673v-22.332l46.613 28.349-15.914 12.656Z" opacity=".4"/>
        <path fill="#fff" d="m204.991 249.126-30.839-18.753v-50.761l30.839-18.753 30.838 18.753v50.761l-30.838 18.753Zm-1.841-91.458-30.689 18.663-15.764-12.736 46.453-28.259v22.332Z" opacity=".6"/>
        <path fill="#fff" d="M170.474 179.45v50.581l-15.124 12.415v-75.212l15.124 12.216Z" opacity=".8"/>
        <path fill="#fff" d="m172.122 233.438 31.029 18.872v22.332l-46.653-28.379 15.624-12.825Z" opacity=".6"/>
        <path fill="#fff" d="m206.83 252.312 30.679-18.664 15.594 12.846-46.273 28.149v-22.331Z" opacity=".4"/>
        <path fill="#fff" d="M239.508 230.532v-51.071l15.114-12.016v75.532l-15.114-12.445Z" opacity=".1"/>
        <path fill="#fff" d="m210.398 133.21 30.759-5.538 12.205 31.668-42.964-26.13Z" opacity=".6"/>
        <path fill="#fff" d="m156.619 159.34 12.205-31.668 30.759 5.538-42.964 26.13Z" opacity=".8"/>
        <path fill="#fff" d="m151.671 239.069-16.814-34.078 16.814-34.077v68.155Z" opacity=".6"/>
        <path fill="#fff" d="m199.583 276.771-30.759 5.538-12.205-31.668 42.964 26.13Z" opacity=".8"/>
        <path fill="#fff" d="m253.362 250.641-12.205 31.668-30.759-5.538 42.964-26.13Zm4.949-11.572v-68.155l16.813 34.077-16.813 34.078Z" opacity=".6"/>
        <path fill="#fff" d="m257.681 160.314-12.085-31.369 29.209 17.764-17.124 13.605Zm-50.851-30.206v-24.741l31.388 19.093-31.388 5.648Z" opacity=".4"/>
        <path fill="#fff" d="m203.152 130.108-31.388-5.648 31.388-19.093v24.741Zm-50.772 29.986-16.833-13.605 28.839-17.544-12.006 31.149Z" opacity=".6"/>
        <path fill="#fff" d="m151.091 163.788-16.894 34.217v-47.872l16.894 13.655Zm-.09 82.226-16.804 13.795v-47.832l16.804 34.037Z" opacity=".8"/>
        <path fill="#fff" d="m152.311 249.703 12.076 31.329-28.86-17.554 16.784-13.775Zm50.841 30.172v24.731l-31.388-19.083 31.388-5.648Z" opacity=".6"/>
        <path fill="#fff" d="m206.83 279.875 31.388 5.648-31.388 19.083v-24.731Zm50.681-29.766 16.534 13.615-28.449 17.304 11.915-30.919Z" opacity=".4"/>
        <path fill="#fff" d="m258.791 246.404 16.994-34.427v48.412l-16.994-13.985Z" opacity=".1"/>
        <path fill="#00A2FF" d="m275.784 198.003-16.794-34.027 16.794-13.335v47.362Zm-38.255-21.662-30.699-18.673v-22.332l46.613 28.349-15.914 12.656Zm-34.379-18.673-30.689 18.663-15.764-12.736 46.453-28.259v22.332Zm-32.676 21.782v50.581l-15.124 12.415v-75.212l15.124 12.216Zm1.648 53.988 31.029 18.872v22.332l-46.653-28.379 15.624-12.825Zm34.708 18.874 30.679-18.664 15.594 12.846-46.273 28.149v-22.331Zm32.678-21.78v-51.071l15.114-12.016v75.532l-15.114-12.445ZM210.4 133.21l30.759-5.538 12.205 31.668-42.964-26.13Zm-53.781 26.13 12.205-31.668 30.759 5.538-42.964 26.13Zm-4.948 79.729-16.814-34.078 16.814-34.077v68.155Zm47.912 37.702-30.759 5.538-12.205-31.668 42.964 26.13Zm53.781-26.13-12.205 31.668-30.759-5.538 42.964-26.13Zm4.947-11.572v-68.155l16.813 34.077-16.813 34.078Zm-.63-78.755-12.085-31.369 29.209 17.764-17.124 13.605Zm-50.851-30.206v-24.741l31.388 19.093-31.388 5.648Zm-3.678 0-31.388-5.648 31.388-19.093v24.741Zm-50.772 29.986-16.833-13.605 28.839-17.544-12.006 31.149Zm-1.289 3.694-16.894 34.217v-47.872l16.894 13.655Zm-.09 82.226-16.804 13.795v-47.832l16.804 34.037Zm1.31 3.689 12.076 31.329-28.86-17.554 16.784-13.775Zm50.841 30.172v24.731l-31.388-19.083 31.388-5.648Zm3.678 0 31.388 5.648-31.388 19.083v-24.731Zm50.681-29.766 16.534 13.615-28.449 17.304 11.915-30.919Zm1.28-3.705 16.994-34.427v48.412l-16.994-13.985Z" opacity=".4" style="mix-blend-mode:overlay"/>
      </g>
    </g>
  </g>
  <defs>
    <clipPath id="a">
      <use xlink:href="#h"/>
    </clipPath>
    <clipPath id="d">
      <use xlink:href="#h"/>
    </clipPath>
  </defs>
</svg>
