<svg xmlns="http://www.w3.org/2000/svg" xmlns:xlink="http://www.w3.org/1999/xlink" fill="none" viewBox="0 0 410 410">
  <defs>
    <path id="b" fill="#fff" d="M410 0H0v410h410V0Z"/>
    <path id="h" fill="#C2BBAF" d="M204.735 409.696C91.699 409.619-.265 317.96.001 204.277.267 91.585 91.737-.303 205.495.001c112.692.342 204.238 91.736 204.163 205.038-.114 113.073-91.698 204.657-204.923 204.657ZM20.843 204.962c.989 50.128 18.218 93.791 53.893 129.581 35.599 35.675 78.958 53.853 129.162 54.082 50.546.229 94.36-17.684 130.378-53.474 36.017-35.789 54.16-79.376 54.235-129.845.114-50.586-17.989-94.324-53.854-130.227-35.676-35.676-79.186-53.78-129.428-53.894-50.357-.114-93.942 17.8-129.808 53.437-36.094 35.752-53.513 79.566-54.578 130.34Z"/>
    <path id="j" fill="#fff" d="M0 0h410v410H0z"/>
  </defs>
  <g clip-path="url(#a)">
    <mask id="c" width="410" height="410" x="0" y="0" maskUnits="userSpaceOnUse" style="mask-type:luminance">
      <use xlink:href="#b"/>
    </mask>
    <g mask="url(#c)">
      <path fill="#F5F5F5" d="M410 205C410 91.782 318.218 0 205 0S0 91.782 0 205s91.782 205 205 205 205-91.782 205-205Z"/>
      <path fill="#141416" d="M236.373 242.296c-58.118 17.436-106.196 42.866-136.29 72.663l-1.33 1.322c8.003 7.564 16.778 14.329 26.264 20.08l2.04-2.491a386.736 386.736 0 0 1 26.201-28.844c24.625-24.507 52.806-45.725 83.146-62.76l-.031.03ZM51.232 216.469c2.318 31.088 13.874 59.593 32.01 82.779l.835-.831c18.632-18.357 42.887-35.055 72.146-49.599 25.645-12.762 55.092-23.709 86.824-32.349H51.232Zm118.28-127.765c52.003 51.752 117.444 85.976 189.22 98.953-8.651-76.721-74.031-136.407-153.47-136.407-20.98 0-40.971 4.182-59.233 11.716a380.238 380.238 0 0 0 23.483 25.738Zm-69.429 6.331c30.094 29.827 78.172 55.227 136.29 72.693-30.34-17.066-58.521-38.253-83.146-62.761a388.11 388.11 0 0 1-26.201-28.843l-2.04-2.491c-9.485 5.75-18.26 12.515-26.232 20.08l1.329 1.322Zm69.429 226.262a364.474 364.474 0 0 0-23.483 25.737c18.231 7.534 38.253 11.716 59.233 11.716 79.439 0 144.819-59.686 153.5-136.438-71.775 12.977-137.216 47.202-189.219 98.954l-.031.031ZM156.223 161.18c-29.259-14.545-53.514-31.242-72.146-49.6l-.834-.83c-18.137 23.185-29.693 51.691-32.01 82.779h191.783c-31.732-8.641-61.148-19.588-86.823-32.38l.03.031Z"/>
      <g clip-path="url(#d)">
        <mask id="e" width="410" height="410" x="0" y="0" maskUnits="userSpaceOnUse" style="mask-type:luminance">
          <use xlink:href="#b"/>
        </mask>
        <g mask="url(#e)">
          <mask id="f" width="410" height="410" x="0" y="0" maskUnits="userSpaceOnUse" style="mask-type:luminance">
            <use xlink:href="#b"/>
          </mask>
          <g mask="url(#f)">
            <mask id="g" width="410" height="410" x="0" y="0" maskUnits="userSpaceOnUse" style="mask-type:luminance">
              <path fill="#fff" d="M409.658 0H0v409.696h409.658V0Z"/>
            </mask>
            <g mask="url(#g)">
              <path fill="#F5EEE4" d="M204.813 406.348c111.263 0 201.462-90.199 201.462-201.464 0-111.264-90.199-201.462-201.462-201.462C93.548 3.422 3.35 93.62 3.35 204.884c0 111.265 90.198 201.464 201.463 201.464Z"/>
              <use xlink:href="#h"/>
              <use xlink:href="#h"/>
            </g>
          </g>
        </g>
        <mask id="i" width="158" height="222" x="126" y="94" maskUnits="userSpaceOnUse" style="mask-type:luminance">
          <path fill="#fff" d="M283.214 94.54H126.785v220.927h156.429V94.539Z"/>
        </mask>
        <g mask="url(#i)">
          <path stroke="#fff" stroke-linecap="round" stroke-linejoin="round" stroke-width="3.901" d="M278.564 130.327a1.863 1.863 0 0 0-.473-1.128l-27.049-29.407s-.06-.05-.09-.08c-.051-.05-.101-.091-.152-.142-.05-.04-.1-.07-.151-.1-.04-.02-.07-.05-.1-.07l-.061-.031c-.05-.03-.111-.05-.161-.07-.061-.02-.131-.051-.192-.061l-.151-.03c-.07-.01-.141-.02-.222-.02h-89.428c-.514 0-1.018.221-1.36.594l-27.048 29.406s-.021.02-.021.031c0 0-.02.02-.03.02l-.06.09c-.04.061-.081.111-.121.172-.03.05-.051.101-.071.141-.03.06-.05.111-.07.171-.02.051-.03.111-.051.161-.01.061-.03.121-.04.182 0 .06-.01.111-.02.171v149.309a1.86 1.86 0 0 0 1.088 1.844l26.434 28.742c.352.382.846.594 1.36.594h89.378c.121 0 .252-.02.373-.041.04 0 .08-.03.121-.04.09-.03.191-.06.272-.101.02 0 .04-.009.05-.02.04-.02.071-.05.101-.07.05-.03.101-.061.151-.101.05-.04.101-.091.151-.141.031-.03.061-.05.091-.08l27.048-29.407.031-.03s.02-.01.02-.02l.06-.091c.04-.061.081-.111.121-.171.03-.051.05-.101.07-.141.031-.061.051-.111.071-.172.02-.05.03-.111.05-.161.011-.06.031-.121.041-.181 0-.061.01-.111.02-.172V130.448s0-.08-.01-.121h.03Z" opacity=".48"/>
          <path fill="#040A14" d="M278.564 130.327a1.863 1.863 0 0 0-.473-1.128l-27.049-29.407s-.06-.05-.09-.08c-.051-.05-.101-.091-.152-.142-.05-.04-.1-.07-.151-.1-.04-.02-.07-.05-.1-.07l-.061-.031c-.05-.03-.111-.05-.161-.07-.061-.02-.131-.051-.192-.061l-.151-.03c-.07-.01-.141-.02-.222-.02h-89.428c-.514 0-1.018.221-1.36.594l-27.048 29.406s-.021.02-.021.031c0 0-.02.02-.03.02l-.06.09c-.04.061-.081.111-.121.172-.03.05-.051.101-.071.141-.03.06-.05.111-.07.171-.02.051-.03.111-.051.161-.01.061-.03.121-.04.182 0 .06-.01.111-.02.171v149.309a1.86 1.86 0 0 0 1.088 1.844l26.434 28.742c.352.382.846.594 1.36.594h89.378c.121 0 .252-.02.373-.041.04 0 .08-.03.121-.04.09-.03.191-.06.272-.101.02 0 .04-.009.05-.02.04-.02.071-.05.101-.07.05-.03.101-.061.151-.101.05-.04.101-.091.151-.141.031-.03.061-.05.091-.08l27.048-29.407.031-.03s.02-.01.02-.02l.06-.091c.04-.061.081-.111.121-.171.03-.051.05-.101.07-.141.031-.061.051-.111.071-.172.02-.05.03-.111.05-.161.011-.06.031-.121.041-.181 0-.061.01-.111.02-.172V130.448s0-.08-.01-.121h.03Z"/>
          <path fill="#00C96B" d="m250.084 305.789-8.707-16.527 18.744-21.324 13.927 11.801-23.964 26.05Zm-114.943-30.066V134.445l12.818 10.864v119.278l-12.818 11.136Zm24.7-171.418 8.717 16.527-18.674 21.243-13.927-11.8 23.884-25.97Zm114.248 26.02-13.897 11.831-18.815-21.404 8.707-16.518 24.005 26.091Zm-122.421 18.128 14.098 11.942-14.098 36.481v-48.423Zm14.925 20.109v72.891l-14.099-36.44 14.099-36.451Zm1.581-10.985-15.459-13.101 17.686-20.124 9.554 18.129-11.781 15.096Zm75.24 10.985 14.089 36.451-14.089 36.44v-72.891Zm-1.481-10.861-11.962-15.308 9.553-18.12 17.847 20.297-15.438 13.131Zm-14.704-18.063-17.887-16.497h26.584l-8.697 16.497Zm-4.282 1.087h-35.886l17.938-16.537 17.948 16.537Zm-40.251-1.007-8.737-16.577h26.706l-17.969 16.577Zm-12.395 21.166 12.839-16.446h43.726l12.839 16.446v88.259l-12.839 16.437H183.14l-12.839-16.437v-88.259Zm52.806 108.405-18.109 16.548-18.1-16.548h36.209Zm-40.369 1.219 17.908 16.366h-26.343l8.435-16.366Zm44.551-.016 8.637 16.376h-26.565l17.928-16.376Zm2.682-2.86 11.861-15.187 15.459 13.091-17.767 20.216-9.553-18.12Zm14.269-18.021 14.099-36.47v48.422l-14.099-11.952Zm14.099-52.73-14.038-36.32 14.038-11.952v48.272Zm-20.458-77.445h-65.877l-8.707-16.538h83.301l-8.717 16.538Zm-86.213 93.705 13.957 36.097-13.957 12.123v-48.22Zm16.275 39.007 12.093 15.5-9.413 18.27-17.988-20.467 15.308-13.303Zm4.443 38.43h65.494l8.718 16.537h-82.727l8.515-16.537Zm89.661-25.867V145.453l12.819-10.914v141.025l-12.819-10.853Zm-125.99 15.136 13.776-11.972 18.966 21.586-8.587 16.648-24.155-26.262Z"/>
          <path fill="#fff" d="m250.086 305.789-8.707-16.528 18.744-21.323 13.927 11.8-23.964 26.051Z" opacity=".48"/>
          <path fill="#fff" d="M135.141 275.723V134.445l12.818 10.864v119.278l-12.818 11.136Z" opacity=".9"/>
          <path fill="#fff" d="m159.841 104.305 8.717 16.527-18.674 21.243-13.927-11.801 23.884-25.969Z" opacity=".6"/>
          <path fill="#fff" d="m274.091 130.325-13.897 11.831-18.815-21.404 8.707-16.518 24.005 26.091Z" opacity=".48"/>
          <path fill="#fff" d="m151.668 148.453 14.098 11.942-14.098 36.481v-48.423Z" opacity=".6"/>
          <path fill="#fff" d="M166.593 168.562v72.891l-14.099-36.44 14.099-36.451Zm1.583-10.985-15.459-13.101 17.686-20.124 9.553 18.129-11.78 15.096Z" opacity=".9"/>
          <path fill="#fff" d="m243.414 168.562 14.089 36.451-14.089 36.44v-72.891Z" opacity=".1"/>
          <path fill="#fff" d="m241.933 157.701-11.962-15.308 9.553-18.12 17.848 20.297-15.439 13.131Z" opacity=".3"/>
          <path fill="#fff" d="m227.229 139.638-17.887-16.497h26.584l-8.697 16.497Z" opacity=".5"/>
          <path fill="#fff" d="M222.947 140.725h-35.886l17.938-16.537 17.948 16.537Z" opacity=".4"/>
          <path fill="#fff" d="m182.696 139.718-8.737-16.577h26.706l-17.969 16.577Zm-12.395 21.166 12.838-16.446h43.727l12.839 16.446v88.259l-12.839 16.437h-43.727l-12.838-16.437v-88.259Z" opacity=".6"/>
          <path fill="#fff" d="m223.107 269.289-18.109 16.548-18.1-16.548h36.209Z" opacity=".4"/>
          <path fill="#fff" d="m182.736 270.508 17.908 16.366h-26.343l8.435-16.366Z" opacity=".6"/>
          <path fill="#fff" d="m227.289 270.492 8.637 16.376h-26.565l17.928-16.376Z" opacity=".5"/>
          <path fill="#fff" d="m229.971 267.632 11.861-15.187 15.459 13.091-17.767 20.216-9.553-18.12Z" opacity=".3"/>
          <path fill="#fff" d="m244.24 249.611 14.099-36.47v48.422l-14.099-11.952Zm14.099-52.73-14.038-36.32 14.038-11.952v48.272Z" opacity=".4"/>
          <path fill="#fff" d="M237.881 119.436h-65.877l-8.707-16.538h83.301l-8.717 16.538Z" opacity=".8"/>
          <path fill="#fff" d="m151.668 213.141 13.957 36.097-13.957 12.123v-48.22Z" opacity=".6"/>
          <path fill="#fff" d="m167.943 252.141 12.093 15.499-9.413 18.27-17.988-20.467 15.308-13.302Z" opacity=".9"/>
          <path fill="#fff" d="M172.387 290.578h65.494l8.717 16.537h-82.727l8.516-16.537Z" opacity=".8"/>
          <path fill="#fff" d="M262.047 264.711V145.453l12.819-10.914v141.025l-12.819-10.853Z" opacity=".1"/>
          <path fill="#fff" d="m136.057 279.847 13.776-11.972 18.966 21.586-8.587 16.648-24.155-26.262Z" opacity=".6"/>
          <path fill="#00C96B" d="m250.084 305.789-8.707-16.527 18.744-21.324 13.927 11.801-23.964 26.05ZM135.141 275.73V134.453l12.818 10.864v119.278l-12.818 11.135Zm24.7-171.418 8.717 16.528-18.674 21.243-13.927-11.801 23.884-25.97Zm114.248 26.021-13.897 11.831-18.815-21.405 8.707-16.517 24.005 26.091Zm-122.421 18.128 14.098 11.942-14.098 36.481v-48.423Zm14.925 20.101v72.891l-14.099-36.44 14.099-36.451Zm1.581-10.985-15.459-13.101 17.686-20.124 9.554 18.129-11.781 15.096Zm75.24 10.985 14.089 36.451-14.089 36.44v-72.891Zm-1.481-10.861-11.962-15.308 9.553-18.12 17.847 20.297-15.438 13.131Zm-14.704-18.063-17.887-16.497h26.584l-8.697 16.497Zm-4.282 1.095h-35.886l17.938-16.538 17.948 16.538Zm-40.251-1.015-8.737-16.577h26.706l-17.969 16.577Zm40.411 129.571-18.109 16.548-18.1-16.548h36.209Zm-40.369 1.219 17.908 16.366h-26.343l8.435-16.366Zm44.551-.008 8.637 16.376h-26.565l17.928-16.376Zm2.682-2.86 11.861-15.187 15.459 13.091-17.767 20.216-9.553-18.12Zm14.269-18.021 14.099-36.471v48.423l-14.099-11.952Zm14.099-52.738-14.038-36.32 14.038-11.952v48.272Zm-20.458-77.445h-65.877l-8.707-16.538h83.301l-8.717 16.538Zm-86.213 93.712 13.957 36.098-13.957 12.123v-48.221Zm16.275 39 12.093 15.5-9.413 18.27-17.988-20.467 15.308-13.303Zm4.443 38.438h65.494l8.718 16.537h-82.727l8.515-16.537Zm89.661-25.875V145.453l12.819-10.914v141.025l-12.819-10.853Zm-125.988 15.136 13.776-11.972 18.965 21.586-8.586 16.648-24.155-26.262Z" opacity=".4" style="mix-blend-mode:overlay"/>
        </g>
      </g>
    </g>
  </g>
  <defs>
    <clipPath id="a">
      <use xlink:href="#j"/>
    </clipPath>
    <clipPath id="d">
      <use xlink:href="#j"/>
    </clipPath>
  </defs>
</svg>
