<svg xmlns="http://www.w3.org/2000/svg" viewBox="0 0 1077.05 1077.13"><defs><style>.i{fill:#fff}.j{fill:#fdfdfd}.k{fill:#818181}.m{fill:#979797}.n{fill:#9f9f9f}.p{fill:#d6d6d6}.t{fill:#727272}.u{fill:#898989}.v{fill:#888}.w{fill:#626262}.x{fill:#2a2a2a}.y{fill:#262626}</style></defs><g id="b"><g id="c"><g id="d"><g id="e"><circle cx="538.53" cy="538.55" r="529.67" style="fill:#f5eee4"/><g id="f"><path id="g" d="M538.29 1077.13C241.08 1076.92-.72 835.93 0 537.06.72 240.81 241.22-.86 540.28 0c296.29.86 537 241.17 536.77 539.05-.23 297.28-241.05 538.05-538.76 538.08M54.83 538.76c2.59 131.84 47.87 246.57 141.72 340.67 93.56 93.8 207.64 141.57 339.63 142.18 132.94.61 248.14-46.55 342.76-140.64s142.37-208.68 142.63-341.44c.26-132.95-47.27-248-141.59-342.38-93.79-93.83-208.16-141.38-340.35-141.67-132.37-.29-247 46.85-341.34 140.46-94.86 94.17-140.73 209.33-143.46 342.82" style="fill:#c2bbaf"/></g></g></g><path d="m778.87 691.71.18 63.51-97.47 56.27-.18-63.51z" class="y"/><path d="M681.58 811.49 509.31 711.36l-.2-63.51L681.4 747.99l.18 63.51Z" style="fill:#1a1a1a"/><path d="M681.4 747.98 509.11 647.84l97.47-56.27L778.87 691.7l-97.47 56.27Z" class="x"/><path d="m667.16 755.72.18 63.51-97.45 56.27-.18-63.51z" class="y"/><path d="M569.89 875.5 397.6 775.37l-.18-63.51 172.29 100.13z"/><path d="M569.71 811.99 397.42 711.86l97.47-56.27 172.27 100.13z" class="x"/><path d="m775.74 582 .27 90.58-236.49 136.54-.24-90.6 236.47-136.51Z" class="k"/><path d="M539.52 809.12 304.6 672.58l-.27-90.58 234.94 136.51.25 90.6Z" class="w"/><path d="M539.27 718.52 304.33 582.01 540.8 445.47l234.94 136.54z" class="k"/><path d="m774.52 400.75.53 181.16-236.49 136.54-.51-181.16z" class="n"/><path d="M538.56 718.45 303.62 581.91l-.51-181.14 234.94 136.51.51 181.16Z" class="t"/><path d="M538.05 537.29 303.11 400.78 539.6 264.24l234.92 136.51z" class="m"/><path d="m656.56 515.67.11 36.22-31.53 18.22.09 36.22 31.56-18.2-63.07 36.4-.22-72.47 63.07-36.4Z" class="i"/><path d="m656.67 551.89.11 36.25-31.56 18.2-.09-36.22 31.53-18.22Z"/><path d="m749.32 462.11.11 36.25-31.53 18.2.09 36.22 31.53-18.2-63.05 36.4-.2-72.47z" class="i"/><path d="m749.43 498.36.09 36.22-31.53 18.2-.09-36.22z"/><path d="m396.95 763.02-.13 54.36-78.85-45.51.16-54.36z" class="t"/><path d="m396.95 763.02 78.31-45.51-.13 54.36-78.31 45.51z" class="n"/><path d="M318.13 717.51 396.44 672l78.82 45.51-78.31 45.51z" style="fill:#adadad"/><path d="m420.71 740.45-.09 36.24-23.67-13.67-78.82-45.51-23.64-13.65.11-36.24 126.11 72.82Z" class="w"/><path d="m420.71 740.45 78.31-45.51-.09 36.25-78.31 45.51z" style="fill:#747474"/><path d="m294.6 667.62 78.31-45.51 126.11 72.82-78.31 45.51zM774.65 319.71l.27 90.58-236.47 136.54-.27-90.58z" class="k"/><path d="M538.45 546.82 303.51 410.28l-.27-90.58 234.94 136.54z" class="w"/><path d="M538.18 456.24 303.24 319.7l236.49-136.54L774.64 319.7 538.17 456.24Z" class="m"/><path d="M731.61 479.05a233.2 233.2 0 0 1 63.09-25.76v36.22a232.2 232.2 0 0 0-63.07 25.78 356 356 0 0 0-63.02 47.02v-36.22a356.7 356.7 0 0 1 63-47.04" class="k"/><path d="m668.67 562.31-78.29-45.49-.11-36.24 78.31 45.51z" class="w"/><path d="m668.58 526.09-78.31-45.51a356.6 356.6 0 0 1 63.02-47.02c22.68-13.3 62.58-26.67 62.58-26.67l78.89 46.67s-40.48 12.18-63.16 25.49a357 357 0 0 0-63.02 47.04" class="m"/><path d="m742.83 654.53-15.64-9.11-4.16-2.98 15.67 9.09zM712.6 687.98l-15.67-9.11-8.2-7.27 15.67 9.09z" class="u"/><path d="m554.02 727.78-15.67-9.09-.02-5.82 15.67 9.11z" class="v"/><path d="m792.05 558.62.04 15.98.02 9.91.02 5.8-49.31 64.22-4.13-3-26.09 36.45-8.2-7.29-31.11 48.13L642 716.71l-8.13 16.73-26.22-6.24-4.13 7.76-49.49-7.18-.02-5.8-.07-25.87 238.12-137.49Z" class="p"/><path d="m554 721.98-15.67-9.11-.07-25.87 15.67 9.11z" class="v"/><path d="m553.94 696.12-15.67-9.11 238.11-137.47 15.67 9.09zM421.33 571.4l15.67-9.11 101.45 124.6-15.67 9.09z" class="j"/><path d="m522.78 695.98 15.67-9.09 15.76 9.09-15.65 9.09z" class="j"/><path d="m538.56 705.07 15.65-9.09-.09 31.78-15.65 9.11z" class="p"/><path d="m421.56 497.02-.22 74.38 101.45 124.58 15.78 9.09-.09 31.8-117.4-71.51-27.93-16.13-13.91-8.04.09-32.09 14.09-53.82.22-74.38 27.93 16.13Z" class="u"/><path d="m421.56 497.03 15.67-9.11-.22 74.38-15.67 9.11z" class="j"/><path d="m393.62 480.89 15.67-9.09 27.93 16.11-15.67 9.11z" style="fill:#dcdcdc"/></g></g></svg>