<?xml version="1.0" encoding="UTF-8"?><svg xmlns="http://www.w3.org/2000/svg" viewBox="0 0 1077.05 1077.13"><defs><style>.h{fill:#f5eee4;}.i{fill:#fff;}.j{fill:#fdfdfd;}.k{fill:#818181;}.l{fill:#747474;}.m{fill:#979797;}.n{fill:#9f9f9f;}.o{fill:#c2bbaf;}.p{fill:#d6d6d6;}.q{fill:#dcdcdc;}.r{fill:#adadad;}.s{fill:#1a1a1a;}.t{fill:#727272;}.u{fill:#898989;}.v{fill:#888;}.w{fill:#626262;}.x{fill:#2a2a2a;}.y{fill:#262626;}</style></defs><g id="a"/><g id="b"><g id="c"><g><g id="d"><g id="e"><circle class="h" cx="538.53" cy="538.55" r="529.67"/><g id="f"><g id="g"><path class="o" d="M538.29,1077.13C241.08,1076.92-.72,835.93,0,537.06,.72,240.81,241.22-.86,540.28,0c296.29,.86,537,241.17,536.77,539.05-.23,297.28-241.05,538.05-538.76,538.08ZM54.83,538.76c2.59,131.84,47.87,246.57,141.72,340.67,93.56,93.8,207.64,141.57,339.63,142.18,132.94,.61,248.14-46.55,342.76-140.64s142.37-208.68,142.63-341.44c.26-132.95-47.27-248-141.59-342.38-93.79-93.83-208.16-141.38-340.35-141.67-132.37-.29-247,46.85-341.34,140.46C103.43,290.11,57.56,405.27,54.83,538.76Z"/></g></g></g></g><g><path class="y" d="M778.87,691.71l.18,63.51-97.47,56.27-.18-63.51,97.47-56.27Z"/><path class="s" d="M681.58,811.49l-172.27-100.13-.2-63.51,172.29,100.14,.18,63.51Z"/><path class="x" d="M681.4,747.98l-172.29-100.14,97.47-56.27,172.29,100.13-97.47,56.27Z"/><path class="y" d="M667.16,755.72l.18,63.51-97.45,56.27-.18-63.51,97.45-56.27Z"/><path d="M569.89,875.5l-172.29-100.13-.18-63.51,172.29,100.13,.18,63.51Z"/><path class="x" d="M569.71,811.99l-172.29-100.13,97.47-56.27,172.27,100.13-97.45,56.27Z"/><path class="k" d="M775.74,582l.27,90.58-236.49,136.54-.24-90.6,236.47-136.51Z"/><path class="w" d="M539.52,809.12l-234.92-136.54-.27-90.58,234.94,136.51,.25,90.6Z"/><path class="k" d="M539.27,718.52l-234.94-136.51,236.47-136.54,234.94,136.54-236.47,136.51Z"/><path class="n" d="M774.52,400.75l.53,181.16-236.49,136.54-.51-181.16,236.47-136.54Z"/><path class="t" d="M538.56,718.45l-234.94-136.54-.51-181.14,234.94,136.51,.51,181.16Z"/><path class="m" d="M538.05,537.29l-234.94-136.51,236.49-136.54,234.92,136.51-236.47,136.54Z"/><path class="i" d="M656.56,515.67l.11,36.22-31.53,18.22,.09,36.22,31.56-18.2-63.07,36.4-.22-72.47,63.07-36.4Z"/><path d="M656.67,551.89l.11,36.25-31.56,18.2-.09-36.22,31.53-18.22Z"/><path class="i" d="M749.32,462.11l.11,36.25-31.53,18.2,.09,36.22,31.53-18.2-63.05,36.4-.2-72.47,63.05-36.4Z"/><path d="M749.43,498.36l.09,36.22-31.53,18.2-.09-36.22,31.53-18.2Z"/><path class="t" d="M396.95,763.02l-.13,54.36-78.85-45.51,.16-54.36,78.82,45.51Z"/><path class="n" d="M396.95,763.02l78.31-45.51-.13,54.36-78.31,45.51,.13-54.36Z"/><path class="r" d="M318.13,717.51l78.31-45.51,78.82,45.51-78.31,45.51-78.82-45.51Z"/><path class="w" d="M420.71,740.45l-.09,36.24-23.67-13.67-78.82-45.51-23.64-13.65,.11-36.24,126.11,72.82Z"/><path class="l" d="M420.71,740.45l78.31-45.51-.09,36.25-78.31,45.51,.09-36.25Z"/><path class="k" d="M294.6,667.62l78.31-45.51,126.11,72.82-78.31,45.51-126.11-72.82Z"/><path class="k" d="M774.65,319.71l.27,90.58-236.47,136.54-.27-90.58,236.47-136.54Z"/><path class="w" d="M538.45,546.82l-234.94-136.54-.27-90.58,234.94,136.54,.27,90.58Z"/><path class="m" d="M538.18,456.24l-234.94-136.54,236.49-136.54,234.91,136.54-236.47,136.54Z"/><path class="k" d="M731.61,479.05c19.66-11.63,40.91-20.31,63.09-25.76v36.22c-22.18,5.45-43.43,14.13-63.07,25.78-22.68,13.3-43.82,29.07-63.02,47.02v-36.22c19.2-17.95,40.33-33.73,63-47.04Z"/><path class="w" d="M668.67,562.31l-78.29-45.49-.11-36.24,78.31,45.51,.09,36.22Z"/><path class="m" d="M668.58,526.09l-78.31-45.51c19.21-17.95,40.35-33.72,63.02-47.02,22.68-13.3,62.58-26.67,62.58-26.67l78.89,46.67s-40.48,12.18-63.16,25.49c-22.68,13.31-43.81,29.09-63.02,47.04Z"/><path class="u" d="M742.83,654.53l-15.64-9.11-4.16-2.98,15.67,9.09,4.13,3Z"/><path class="u" d="M712.6,687.98l-15.67-9.11-8.2-7.27,15.67,9.09,8.2,7.29Z"/><path class="v" d="M554.02,727.78l-15.67-9.09-.02-5.82,15.67,9.11,.02,5.8Z"/><path class="p" d="M792.05,558.62l.04,15.98,.02,9.91,.02,5.8-49.31,64.22-4.13-3-26.09,36.45-8.2-7.29-31.11,48.13-31.29-12.11-8.13,16.73-26.22-6.24-4.13,7.76-49.49-7.18-.02-5.8-.07-25.87,238.12-137.49Z"/><path class="v" d="M554,721.98l-15.67-9.11-.07-25.87,15.67,9.11,.07,25.87Z"/><path class="j" d="M553.94,696.12l-15.67-9.11,238.11-137.47,15.67,9.09-238.11,137.49Z"/><path class="j" d="M421.33,571.4l15.67-9.11,101.45,124.6-15.67,9.09-101.45-124.58Z"/><path class="j" d="M522.78,695.98l15.67-9.09,15.76,9.09-15.65,9.09-15.78-9.09Z"/><path class="p" d="M538.56,705.07l15.65-9.09-.09,31.78-15.65,9.11,.09-31.8Z"/><path class="u" d="M421.56,497.02l-.22,74.38,101.45,124.58,15.78,9.09-.09,31.8-117.4-71.51-27.93-16.13-13.91-8.04,.09-32.09,14.09-53.82,.22-74.38,27.93,16.13Z"/><path class="j" d="M421.56,497.03l15.67-9.11-.22,74.38-15.67,9.11,.22-74.38Z"/><path class="q" d="M393.62,480.89l15.67-9.09,27.93,16.11-15.67,9.11-27.93-16.13Z"/></g></g></g></g></svg>