<svg xmlns="http://www.w3.org/2000/svg" viewBox="0 0 1077.1 1077.2"><defs><style>.cls-1{fill:#f5eee4;}.cls-2{fill:#c2bbaf;}</style></defs><g id="Layer_2" data-name="Layer 2"><g id="Layer_1-2" data-name="Layer 1"><g id="Layer_2-2" data-name="Layer 2"><g id="Layer_1-2-2" data-name="Layer 1-2"><circle class="cls-1" cx="538.5" cy="538.7" r="529.7"/><g id="Layer_2-2-2" data-name="Layer 2-2"><g id="Layer_1-2-2-2" data-name="Layer 1-2-2"><path class="cls-2" d="M538.3,1077.2C241.1,1077-.7,836,0,537.1.7,240.8,241.2-.8,540.3,0c296.3.9,537,241.2,536.8,539.1C1076.8,836.4,836,1077.2,538.3,1077.2ZM54.8,538.9c2.6,131.8,47.9,246.6,141.7,340.7,93.6,93.8,207.6,141.6,339.6,142.2,132.9.6,248.1-46.5,342.8-140.6s142.4-208.7,142.6-341.4c.3-133-47.3-248-141.6-342.4C786.1,103.6,671.7,56,539.6,55.7c-132.4-.3-247,46.8-341.3,140.5C103.4,290.2,57.6,405.4,54.8,538.9Z"/></g></g></g></g><path d="M546.23,414.94c-11.23-10-33.51-23.8-72.15-23.62S441.75,411,441.75,411,441,426.9,466.2,427.4s52.3,1.47,74.25,9.52S557.48,424.92,546.23,414.94Z"/><path d="M454.9,451.27c-2.33,1.37-2.92,5.23-.23,5.72,15.26,2.72,39.41,7.67,66.34,3.42,2.55-.41,2.17-3.81.32-5.58C511.78,445.69,486.12,432.86,454.9,451.27Z"/><path d="M772.45,707.13a3.26,3.26,0,0,0-1.4-1.11,3.38,3.38,0,0,0-1.78-.23,3.42,3.42,0,0,0-1.64.72,3.24,3.24,0,0,0-1,1.45c-15.7,45.7-28.56,34.5-34.51,24.68a41.47,41.47,0,0,1-4.57-11.12c-15-58.38-1.26-112.15-1.26-112.15,8.16,24.84,29.56,32.21,40.52,34.37a3.46,3.46,0,0,0,1.86-.15,3.33,3.33,0,0,0,1.5-1.11,3.21,3.21,0,0,0,.26-3.5c-42-80.57-17.17-114.71-17.17-114.71,7.23,7.87,19.14,8.57,26.65,8.16a3.38,3.38,0,0,0,1.76-.6,3.27,3.27,0,0,0,1.16-1.42,3.34,3.34,0,0,0,.21-1.82,3.24,3.24,0,0,0-.82-1.64c-30.43-32.88-32.75-44-33.93-99.73-.65-30.87-11.73-47.1-22-55.55-11.79-9.67-21.2-22-26.34-36.18C658.83,222.52,582,207.6,510.7,211.82c-88.51,5.26-135.64,71.56-158,104.59C329,351.34,310.58,403,311.83,418.79S328,432.12,328,450.39s-28.85,33.46-17.51,84.82c5,22.63,25.29,39.6,16.17,91.29-16.31,92.91,56.45,205.8,74.58,222.65,2.2,2,6.06.39,5.67-2.55-2.83-20.74,1.31-49.51,1.31-49.51,36.46,76.48,138.45,62.3,170.39,55.74a3.41,3.41,0,0,0,1.77-1,3.3,3.3,0,0,0,.88-1.79,3.28,3.28,0,0,0-1.76-3.36c-32.26-16.77-39.63-50.83-39.63-50.83,32.1,14.87,52.66,12.37,62.58,9.19a3.38,3.38,0,0,0,1.53-1,3.22,3.22,0,0,0,.73-1.69,3.12,3.12,0,0,0-.3-1.8,3.28,3.28,0,0,0-1.24-1.37c-9.66-5.94-24.4-30.46-35.55-54.46a56.6,56.6,0,0,1-4.68-31.64,57.17,57.17,0,0,1,13.26-29.22c13.05-15.23,30.16-36.49,49.61-59.08,4.07-4.76,9.72-.11,11.87,5.05C666.07,699.46,703,752,728.52,766.42c18.48,11.17,38.73,13.18,47.82,6.15C801.42,753.22,781.54,719.83,772.45,707.13ZM464.77,642.32c-30.48,1.8-23.54-37-45.93-36-24,1.05-16.8,30.62-32.89,32.42S371.74,595.29,383,590c17.79-8.24,38.62-10.22,55.3-9.65,19.77.66,38.65-.09,47.51,18.51C496.34,620.85,495.24,640.57,464.77,642.32Zm192.77-277.1c-40.52,23.57-42.91,35.23-48.71,76.68-1.29,9.11-2.59,19.77,1.67,25.8,9.62,13.6,27.91,23.67,22.89,46.65-12,54.67-43.5,118.77-85.82,138.8-5.09,2.41-10.93-2.46-12.11-7.87-4.72-21.67-16-61.06-19-73.93-15.07-73.67-86.87-74.69-88.89-60.6-.59,4.19,14.55,9.71,24.16,12.77,8.82,2.86,9.12,15.18.33,18.09a24.52,24.52,0,0,1-7.12,1.12c-17.75-1.18-40.26.17-50.42.89a13.93,13.93,0,0,1-9.46-2.8,13.39,13.39,0,0,1-5.07-8.3c-4-22.55,3.05-30.64,11.53-52,4.22-10.67,9.64-32.16,11.51-43.19,1-5.91.56-13-.07-18.34a129.2,129.2,0,0,1-.91-19c.6-20.44,2.68-37.13,18.58-37.13,28.65,0,89.26.09,98.86-13.7,10.07-14.43-46.11-.44-106.49-2.34a4.92,4.92,0,0,1-3.16-1.29,4.71,4.71,0,0,1-1.52-3,9.85,9.85,0,0,0-.1-1.08,7.35,7.35,0,0,1,.37-3.05,7.6,7.6,0,0,1,4.13-4.46,7.88,7.88,0,0,1,3.07-.67c32.24-.39,56.77-2.58,63.22-11.77,6.56-9.41-26-5.19-63-4.86-4.73,0-8.64-.07-8.4-4.68v-.15a7.4,7.4,0,0,1,2.21-4.87,7.71,7.71,0,0,1,4.95-2.2c21.73-1.4,31-3,31.91-9.81s-2.24-6.12-26.27-4.76c-5.22.28-3.72-3.59-.75-7.83,7.49-10.81,41-42,115.21-39.7,127.09,4,123.08,92.06,127,113.46a8.68,8.68,0,0,1-.72,5.24A8.85,8.85,0,0,1,657.54,365.22Z"/></g></g></svg>