<svg width="48" height="48" viewBox="0 0 48 48" fill="none" xmlns="http://www.w3.org/2000/svg">
<g clip-path="url(#clip0_345_362)">
<mask id="mask0_345_362" style="mask-type:luminance" maskUnits="userSpaceOnUse" x="0" y="0" width="48" height="48">
<path d="M48 0H0V48H48V0Z" fill="white"/>
</mask>
<g mask="url(#mask0_345_362)">
<mask id="mask1_345_362" style="mask-type:luminance" maskUnits="userSpaceOnUse" x="0" y="0" width="48" height="48">
<path d="M47.96 0H0V47.9644H47.96V0Z" fill="white"/>
</mask>
<g mask="url(#mask1_345_362)">
<path d="M23.978 47.5722C37.004 47.5722 47.5638 37.0124 47.5638 23.9862C47.5638 10.9602 37.004 0.400391 23.978 0.400391C10.9519 0.400391 0.39209 10.9602 0.39209 23.9862C0.39209 37.0124 10.9519 47.5722 23.978 47.5722Z" fill="#F5EEE4"/>
<path d="M23.969 47.9644C10.7355 47.9554 -0.0311014 37.2246 6.75042e-05 23.9154C0.0312364 10.7222 10.74 -0.0355334 24.058 8.82102e-05C37.2512 0.0401624 47.9688 10.74 47.96 24.0046C47.9466 37.2424 37.2246 47.9644 23.969 47.9644ZM2.44014 23.9956C2.55592 29.8642 4.573 34.976 8.74962 39.166C12.9173 43.3426 17.9934 45.4708 23.871 45.4976C29.7886 45.5244 34.918 43.4272 39.1348 39.2372C43.3514 35.0472 45.4754 29.9444 45.4842 24.0358C45.4976 18.1136 43.3782 12.993 39.1794 8.7897C35.0026 4.61308 29.9088 2.4936 24.0268 2.48024C18.1314 2.46688 13.0287 4.5641 8.82978 8.73626C4.60418 12.9218 2.56482 18.0513 2.44014 23.9956Z" fill="#C2BBAF"/>
<mask id="mask2_345_362" style="mask-type:luminance" maskUnits="userSpaceOnUse" x="2" y="2" width="44" height="44">
<path d="M45.6845 2.31543H2.35986V45.6402H45.6845V2.31543Z" fill="white"/>
</mask>
<g mask="url(#mask2_345_362)">
<mask id="mask3_345_362" style="mask-type:luminance" maskUnits="userSpaceOnUse" x="2" y="2" width="44" height="44">
<path d="M45.6845 2.31543H2.35986V45.6402H45.6845V2.31543Z" fill="white"/>
</mask>
<g mask="url(#mask3_345_362)">
<path d="M27.3376 27.9192C21.1964 29.7616 16.1159 32.4488 12.9358 35.5974L12.7954 35.7372C13.6411 36.5366 14.5683 37.2514 15.5707 37.859L15.7861 37.5958C16.6546 36.5366 17.5852 35.513 18.5548 34.548C21.157 31.9582 24.1348 29.7162 27.3408 27.916L27.3376 27.9192Z" fill="black"/>
<path d="M7.77393 25.1904C8.01879 28.4754 9.23993 31.4876 11.1565 33.9376L11.2446 33.85C13.2134 31.91 15.7764 30.1456 18.8683 28.6088C21.5781 27.2602 24.6899 26.1034 28.0429 25.1904H7.77393Z" fill="black"/>
<path d="M20.2724 11.6892C25.7676 17.1578 32.6826 20.7744 40.2672 22.1456C39.353 14.0384 32.4444 7.73145 24.05 7.73145C21.833 7.73145 19.7207 8.17339 17.791 8.96943C18.5746 9.91175 19.4105 10.8281 20.2724 11.6892Z" fill="black"/>
<path d="M12.9358 12.3582C16.1159 15.5101 21.1964 18.1941 27.3376 20.0398C24.1316 18.2363 21.1538 15.9975 18.5516 13.4078C17.5852 12.446 16.6546 11.4224 15.7829 10.3599L15.5674 10.0967C14.565 10.7043 13.6378 11.4192 12.7954 12.2185L12.9358 12.3582Z" fill="black"/>
<path d="M20.2724 36.2672C19.4073 37.1284 18.5714 38.0446 17.791 38.987C19.7175 39.783 21.833 40.225 24.05 40.225C32.4444 40.225 39.353 33.918 40.2704 25.8076C32.686 27.1788 25.7708 30.7954 20.2756 36.264L20.2724 36.2672Z" fill="black"/>
<path d="M18.8683 19.3475C15.7764 17.8106 13.2134 16.0462 11.2446 14.1063L11.1565 14.0186C9.23993 16.4686 8.01879 19.4807 7.77393 22.7658H28.0397C24.6865 21.8528 21.5781 20.696 18.865 19.3442L18.8683 19.3475Z" fill="black"/>
</g>
</g>
</g>
</g>
</g>
<defs>
<clipPath id="clip0_345_362">
<rect width="48" height="48" fill="white"/>
</clipPath>
</defs>
</svg>
