<?xml version="1.0" encoding="UTF-8"?>
<svg id="Layer_2" data-name="Layer 2" xmlns="http://www.w3.org/2000/svg" viewBox="0 0 699 699">
  <defs>
    <style>
      .cls-1 {
        fill: #c3bbaf;
      }

      .cls-2 {
        fill: #f6efe5;
      }
    </style>
  </defs>
  <g id="Layer_1-2" data-name="Layer 1">
    <g>
      <path class="cls-2" d="M349.5,680.35c-44.68,0-88-8.74-128.78-25.99-39.4-16.66-74.78-40.52-105.17-70.91-30.39-30.39-54.25-65.77-70.91-105.17-17.25-40.78-25.99-84.1-25.99-128.77s8.75-88,25.99-128.77c16.66-39.4,40.52-74.78,70.91-105.17,30.39-30.39,65.77-54.25,105.17-70.91,40.78-17.25,84.1-25.99,128.78-25.99s88,8.74,128.78,25.99c39.4,16.66,74.78,40.52,105.17,70.91,30.39,30.39,54.25,65.77,70.91,105.17,17.24,40.78,25.99,84.1,25.99,128.77s-8.75,88-25.99,128.77c-16.66,39.4-40.52,74.78-70.91,105.17-30.39,30.39-65.78,54.25-105.17,70.91-40.78,17.25-84.11,25.99-128.78,25.99h0Z"/>
      <path class="cls-1" d="M349.5,37.3c42.16,0,83.05,8.25,121.52,24.52,18.49,7.82,36.33,17.51,53.02,28.78,16.54,11.17,32.09,24.01,46.23,38.14,14.14,14.14,26.97,29.69,38.15,46.23,11.27,16.69,20.96,34.53,28.78,53.02,16.27,38.47,24.52,79.35,24.52,121.51s-8.25,83.04-24.52,121.51c-7.82,18.49-17.5,36.33-28.78,53.02-11.17,16.54-24.01,32.09-38.15,46.23-14.14,14.14-29.69,26.97-46.23,38.14-16.69,11.28-34.53,20.96-53.02,28.78-38.47,16.27-79.35,24.52-121.52,24.52s-83.05-8.25-121.52-24.52c-18.49-7.82-36.33-17.51-53.02-28.78-16.54-11.17-32.1-24.01-46.23-38.14-14.14-14.14-26.97-29.69-38.14-46.23-11.27-16.69-20.96-34.53-28.78-53.02-16.27-38.47-24.52-79.35-24.52-121.51s8.25-83.04,24.52-121.51c7.82-18.49,17.5-36.33,28.78-53.02,11.17-16.54,24.01-32.09,38.14-46.23,14.14-14.14,29.69-26.97,46.23-38.14,16.69-11.28,34.53-20.96,53.02-28.78,38.47-16.27,79.35-24.52,121.52-24.52h0ZM349.5,0C156.48,0,0,156.48,0,349.5s156.48,349.5,349.5,349.5,349.5-156.48,349.5-349.5S542.53,0,349.5,0Z"/>
      <path d="M235.45,507.86c3.35,5.8,9.53,9.38,16.23,9.38h35.92l-88.27-153.34c-5.18-9-5.18-20.08,0-29.07l64-111.04c.58-1,1.64-1.62,2.8-1.62h73.12c1.15,0,2.22.62,2.8,1.62l71.43,123.9c.58,1,.58,2.23,0,3.23l-48.9,84.83h47.02l44.22-76.77c3.46-6,3.45-13.39,0-19.39l-85.61-148.5c-3.46-6-9.86-9.7-16.78-9.7h-101.44c-6.92,0-13.32,3.7-16.78,9.7l-70.72,122.64c-12.69,22.01-12.69,49.13,0,71.14l70.97,123Z"/>
      <path d="M463.55,191.14c-3.35-5.8-9.53-9.38-16.23-9.38h-35.92l88.27,153.34c5.18,9,5.18,20.08,0,29.07l-64,111.04c-.58,1-1.64,1.62-2.8,1.62h-73.12c-1.15,0-2.22-.62-2.8-1.62l-71.43-123.9c-.58-1-.58-2.23,0-3.23l48.9-84.83h-47.02l-44.22,76.77c-3.46,6-3.45,13.39,0,19.39l85.61,148.5c3.46,6,9.86,9.7,16.78,9.7h101.44c6.92,0,13.32-3.7,16.78-9.7l70.72-122.64c12.69-22.01,12.69-49.13,0-71.14l-70.97-123Z"/>
    </g>
  </g>
</svg>