<svg xmlns="http://www.w3.org/2000/svg" width="96" height="96" fill="none"><path fill="#231F20" d="M48 96c26.51 0 48-21.49 48-48S74.51 0 48 0 0 21.49 0 48s21.49 48 48 48"/><path fill="url(#a)" d="M64.631 45.865c-.558-.157-.998.488-.637.945.934 1.19 1.437 2.455 1.437 3.767 0 6.944-14.07 12.574-31.43 12.574-4.974 0-9.675-.463-13.855-1.286-.521-.102-.798.584-.352.875 5.533 3.593 15.455 5.99 26.78 5.99 17.359 0 31.43-5.629 31.43-12.573-.003-4.259-5.285-8.02-13.373-10.292"/><path fill="url(#b)" d="M59.226 27.25c-.477-.134-.852.416-.547.808.797 1.018 1.23 2.1 1.23 3.224 0 5.94-12.04 10.757-26.894 10.757-4.256 0-8.279-.395-11.857-1.1-.445-.087-.68.501-.3.748 4.733 3.075 13.225 5.126 22.915 5.126 14.854 0 26.895-4.817 26.895-10.758 0-3.642-4.521-6.86-11.442-8.805"/><defs><linearGradient id="a" x1="19.569" x2="78.001" y1="57.282" y2="57.282" gradientUnits="userSpaceOnUse"><stop stop-color="#8077F2"/><stop offset="1" stop-color="#FFB29B"/></linearGradient><linearGradient id="b" x1="20.668" x2="70.668" y1="37.02" y2="37.02" gradientUnits="userSpaceOnUse"><stop stop-color="#8077F2"/><stop offset="1" stop-color="#FFB29B"/></linearGradient></defs></svg>