<svg xmlns="http://www.w3.org/2000/svg" width="556" height="556" fill="none"><path fill="url(#a)" d="M243.723 259.064c0 1.257-.124-1.051 0 0"/><path fill="url(#b)" d="M29.1 373.231a2 2 0 0 0-.145-.289 141 141 0 0 1-3.853-7.159c2.06 4.333 4.121 8.582 6.45 12.791-.845-1.774-1.607-3.507-2.452-5.343m209.78-105.439q-.015.278 0 .557v2.228c.248-.619.495-1.238.784-1.836.288-.599 0-1.713 0-2.538a17 17 0 0 0-.784 1.589"/><path fill="url(#c)" d="M239.724 266.264v2.537c-.288.598-.535 1.217-.783 1.836v-2.228a5 5 0 0 1 0-.557q.35-.815.783-1.588"/><path fill="#fff" d="M285.499 89.983c-100.469 0-175.178 81.075-166.687 181.089 5.627 66.675 64.28 120.725 131.033 120.725s116.463-54.05 111.042-120.725c-2.72-33.338-32.026-60.363-65.495-60.363-32.048 0-55.253 19.66-55.645 55.556v2.537l.536-1.072.577-1.032c.165-.33.371-.619.556-.928a27 27 0 0 1 2.061-2.847l.763-.867.783-.825.824-.804a27 27 0 0 1 1.669-1.444 33.3 33.3 0 0 1 5.895-3.693l1.051-.495 1.071-.454.887-.351q1.732-.66 3.524-1.135.559-.173 1.133-.288l.722-.165q.446-.126.906-.186a40 40 0 0 1 5.215-.66h1.113c13.663-.454 27.513 5.921 32.067 19.185 10.305 30.203-17.476 62.179-57.066 62.055-34.315-.103-64.466-27.788-67.331-62.055-5.729-68.532 45.341-124.088 114.216-124.088 68.876 0 129.075 55.556 134.599 124.088 8.243 102.799-68.361 186.143-171.2 186.143-102.84 0-193.294-83.344-201.97-186.143C40.704 133.677 143.028 22.586 280.78 22.586c102.242 0 194.962 61.146 240.426 148.699A270.16 270.16 0 0 0 400.303 33.572 269.74 269.74 0 0 0 219.425 4.78 269.93 269.93 0 0 0 61.812 98.163 270.42 270.42 0 0 0 0 270.74q0 13.163 1.237 25.994a257 257 0 0 0 23.742 68.904q.074.117.123.247a141 141 0 0 0 3.854 7.159q.085.138.145.288c45.484 82.272 133.959 139.293 230.678 139.293 133.3 0 232.719-108.121 222.064-241.369-7.997-100.199-95.915-181.274-196.344-181.274m-41.713 169.165c0 1.175-.123-1.135 0 0"/><path fill="url(#d)" d="M31.552 378.574c-2.267-4.126-4.41-8.459-6.45-12.791a141 141 0 0 0 3.854 7.159q.084.138.144.289c.845 1.836 1.607 3.569 2.452 5.343"/><path fill="url(#e)" d="M239.724 266.264v2.537c-.288.598-.535 1.217-.783 1.836v-2.228a5 5 0 0 1 0-.557q.35-.815.783-1.588"/><path fill="url(#f)" d="M238.882 267.792v-1.259c-.02.475 0 .908 0 1.259"/><path fill="url(#g)" d="M258.996 220.074a59 59 0 0 0-3.998 3.466 46 46 0 0 1 3.998-3.466"/><path fill="url(#h)" d="M521.207 171.182c-45.464-87.553-138.082-148.7-240.427-148.7-137.793 0-240.076 111.092-228.432 248.156 8.718 102.799 99.172 186.143 201.97 186.143 102.799 0 179.485-83.344 171.2-186.143-5.523-68.532-65.784-124.088-134.598-124.088s-119.945 55.556-114.216 124.088c2.865 34.267 32.975 61.89 67.33 62.055 39.59.124 67.413-31.852 57.067-62.055-4.555-13.264-18.404-19.639-32.068-19.185h-1.113c-1.75.105-3.492.326-5.214.66a6.4 6.4 0 0 0-.907.186l-.721.165-1.134.288q-1.791.475-3.524 1.135l-.886.351-1.072.454-1.051.495a33.4 33.4 0 0 0-5.894 3.692c-.556.475-1.133.949-1.669 1.445l-.825.804-.783.825-.762.867a27 27 0 0 0-2.061 2.847l-.557.928-.577 1.032-.535 1.072c-.289.599-.536 1.217-.784 1.836v-2.228a5 5 0 0 1 0-.557v-1.258 1.258a17 17 0 0 1 .845-1.588c.351-35.896 23.557-55.556 55.645-55.556 33.469 0 62.776 27.025 65.496 60.363 5.42 66.675-44.31 120.725-111.042 120.725-66.733 0-125.407-54.05-131.033-120.725C110.466 170.955 185.092 89.88 285.562 89.88c100.469 0 188.409 81.075 196.405 181.089 10.655 133.33-88.764 241.368-222.064 241.368-96.863 0-185.194-57.02-230.678-139.292a249 249 0 0 0 2.452 5.343c-2.267-4.126-4.41-8.458-6.45-12.791a1.4 1.4 0 0 0-.124-.247 256.9 256.9 0 0 1-23.742-68.904 270.4 270.4 0 0 0 35.18 108.999 270.16 270.16 0 0 0 77.125 84.621 269.8 269.8 0 0 0 105.213 45.041 269.7 269.7 0 0 0 114.402-2.63 269.9 269.9 0 0 0 103.036-49.83 270.2 270.2 0 0 0 73.162-88.076 270.46 270.46 0 0 0 30.142-110.501 270.5 270.5 0 0 0-18.29-113.074zm-266.209 52.359a46 46 0 0 1 3.998-3.466c-1.38 1.093-2.72 2.331-3.998 3.466"/><path fill="#FF8080" d="M31.552 378.574c-2.267-4.126-4.41-8.459-6.45-12.791a141 141 0 0 0 3.854 7.159q.084.138.144.289c.845 1.836 1.607 3.569 2.452 5.343M243.723 259.064c0 1.257-.124-1.051 0 0"/><defs><linearGradient id="a" x1="243.476" x2="243.888" y1="258.879" y2="259.373" gradientUnits="userSpaceOnUse"><stop stop-color="#C90202"/><stop offset=".37" stop-color="#C90202"/><stop offset="1" stop-color="#820202"/></linearGradient><linearGradient id="b" x1="354743" x2="356623" y1="56199.8" y2="60524.5" gradientUnits="userSpaceOnUse"><stop stop-color="#C90202"/><stop offset=".37" stop-color="#C90202"/><stop offset="1" stop-color="#820202"/></linearGradient><linearGradient id="c" x1="238.282" x2="240.366" y1="267.171" y2="269.686" gradientUnits="userSpaceOnUse"><stop stop-color="#B50202"/><stop offset=".98" stop-color="#780202"/></linearGradient><linearGradient id="d" x1="10415.3" x2="10472.4" y1="7203.61" y2="7238.27" gradientUnits="userSpaceOnUse"><stop stop-color="#B50202"/><stop offset=".98" stop-color="#780202"/></linearGradient><linearGradient id="e" x1="238.282" x2="240.366" y1="267.171" y2="269.686" gradientUnits="userSpaceOnUse"><stop stop-color="#B50202"/><stop offset=".98" stop-color="#780202"/></linearGradient><linearGradient id="f" x1="238.367" x2="239.461" y1="266.946" y2="268.141" gradientUnits="userSpaceOnUse"><stop stop-color="#F4EDEF"/><stop offset=".25" stop-color="#F1EAEC"/><stop offset=".47" stop-color="#E6E1E3"/><stop offset=".67" stop-color="#D4D1D3"/><stop offset=".87" stop-color="#BCBBBE"/><stop offset="1" stop-color="#A6A8AB"/></linearGradient><linearGradient id="g" x1="7148.66" x2="7148.87" y1="1830.52" y2="1830.79" gradientUnits="userSpaceOnUse"><stop stop-color="#F4EDEF"/><stop offset=".25" stop-color="#F1EAEC"/><stop offset=".47" stop-color="#E6E1E3"/><stop offset=".67" stop-color="#D4D1D3"/><stop offset=".87" stop-color="#BCBBBE"/><stop offset="1" stop-color="#A6A8AB"/></linearGradient><linearGradient id="h" x1="1.361" x2="538.821" y1="22.482" y2="28.775" gradientUnits="userSpaceOnUse"><stop stop-color="#6458ED"/><stop offset=".49" stop-color="#4E5CF4"/><stop offset="1" stop-color="#018EDD"/></linearGradient></defs></svg>