<svg xmlns="http://www.w3.org/2000/svg" viewBox="0 0 699 699"><path fill="#F6EFE5" d="M349.503 680.351c-44.676 0-88-8.745-128.78-25.993-39.397-16.664-74.782-40.523-105.171-70.912-30.392-30.39-54.25-65.774-70.911-105.169-17.246-40.776-25.993-84.104-25.993-128.775s8.747-87.999 25.993-128.775c16.66-39.395 40.519-74.779 70.911-105.168s65.774-54.249 105.171-70.913c40.776-17.248 84.104-25.993 128.78-25.993 44.675 0 87.999 8.745 128.78 25.993 39.396 16.664 74.782 40.523 105.17 70.913 30.393 30.389 54.247 65.773 70.912 105.168 17.245 40.776 25.992 84.104 25.992 128.775s-8.747 87.999-25.992 128.775c-16.661 39.395-40.519 74.779-70.912 105.169-30.393 30.389-65.778 54.248-105.17 70.912-40.777 17.248-84.105 25.993-128.78 25.993"/><path fill="#C3BBAF" d="M349.5 37.298c42.164 0 83.048 8.252 121.516 24.522a312.3 312.3 0 0 1 53.021 28.778 314.7 314.7 0 0 1 46.233 38.143 315 315 0 0 1 38.145 46.23 312 312 0 0 1 28.776 53.017c16.268 38.467 24.518 79.346 24.518 121.51s-8.25 83.043-24.518 121.51a312.3 312.3 0 0 1-28.776 53.017 314.6 314.6 0 0 1-38.145 46.229 314.7 314.7 0 0 1-46.233 38.144 312 312 0 0 1-53.021 28.778c-38.468 16.27-79.352 24.522-121.516 24.522s-83.048-8.252-121.516-24.522a312 312 0 0 1-53.021-28.778 314.7 314.7 0 0 1-46.233-38.144 315 315 0 0 1-38.145-46.229 312 312 0 0 1-28.776-53.017C45.54 432.541 37.29 391.662 37.29 349.498s8.25-83.043 24.518-121.51a312.3 312.3 0 0 1 28.776-53.017 314.7 314.7 0 0 1 38.145-46.23 314.7 314.7 0 0 1 46.233-38.143 312 312 0 0 1 53.021-28.778c38.468-16.27 79.352-24.522 121.516-24.522M349.5 0C156.475 0 0 156.475 0 349.502s156.475 349.502 349.5 349.502S699 542.529 699 349.502 542.525 0 349.5 0"/><path d="M243.446 215.58v-25.769c0-20.845 13.64-37.787 34.184-41.413 15.526-2.739 29.875.162 41.298 12.043 7.487 7.783 11.349 17.186 11.498 27.995.129 8.964.029 17.932.029 27.02H377.6c.033-.559.091-1.152.091-1.749v-24.451c.062-23.154 18.356-41.442 41.502-41.654 7.98-.083 15.745.709 22.851 4.559 14.581 7.911 22.209 20.224 22.619 36.809.216 8.757.038 17.526.038 26.581h61.274c11.456 0 19.027 7.626 20.067 19.031.89 9.76-1.62 18.649-4.848 27.58a91.2 91.2 0 0 1-14.196 25.595c-4.802 6.104-10.209 11.786-15.745 17.232-7.193 7.045-14.755 13.721-22.242 20.46-4.094 3.68-7.778 7.65-10.127 12.669-.676 1.442-1.243 3.1-1.243 4.662-.071 37.551.083 75.107-.104 112.658-.219 45.127-33.599 85.372-77.898 93.938a118.3 118.3 0 0 1-20.754 2.035c-19.475.265-38.949.095-58.424.091-47.53 0-87.357-32.412-96.659-78.953a102 102 0 0 1-1.807-19.527c-.17-36.586-.074-73.171-.112-109.757a8.8 8.8 0 0 0-.729-3.315c-2.971-6.905-8.212-11.969-13.674-16.901a1296 1296 0 0 1-21.877-20.24c-8.416-7.953-15.965-16.697-21.435-26.938-6.161-11.517-11.39-23.469-11.386-36.921a39 39 0 0 1 .995-9.014c2.071-8.529 9.629-14.314 18.488-14.327 22.926-.029 45.856-.029 68.782 0zm67.73 41.418h-74.952c-4.819 0-8.958 3.237-9.58 7.957a25.8 25.8 0 0 0 .116 8.231c1.658 8.388 5.3 15.984 11.142 22.217s12.198 11.778 18.132 17.82c4.483 4.559 7.33 9.984 7.322 16.669q-.063 61.499 0 122.997a59.4 59.4 0 0 0 .538 8.67c4.144 28.148 27.762 48.488 56.207 48.488q29.311-.002 58.622-.021c2.9.029 5.797-.137 8.676-.497 27.89-3.834 48.678-27.655 48.716-55.811 0-6.834-.058-13.676.045-20.502 0-1.587-.447-2.238-1.964-2.706a175.1 175.1 0 0 1-40.987-18.612c-29.419-18.276-51.956-42.76-66.566-74.31-7.006-15.135-11.813-30.954-13.499-47.548-1.106-10.874-1.334-21.852-1.968-33.042m122.088 109.914c.124-10.261-8.092-18.678-18.352-18.798-10.259-.124-18.674 8.094-18.795 18.355-.124 10.261 8.093 18.678 18.352 18.798h.046c10.217.137 18.612-8.036 18.749-18.251z"/><path d="M318.479 366.763c-.037 10.261-8.386 18.554-18.645 18.517-10.26-.038-18.551-8.388-18.514-18.65.038-10.261 8.387-18.553 18.646-18.516h.066c10.218.033 18.48 8.342 18.447 18.566z"/></svg>