<svg xmlns="http://www.w3.org/2000/svg" viewBox="0 0 1077.05 1077.13"><defs><style>.cls-2{fill:#f5eee4}.cls-3{fill:#020202}</style></defs><g id="Layer_2" data-name="Layer 2"><g id="Layer_1-2" data-name="Layer 1"><path d="M538.29 1077.13C241.08 1076.92-.72 835.93 0 537.06.72 240.81 241.22-.86 540.28 0c296.29.86 537 241.17 536.77 539.05-.23 297.28-241.05 538.05-538.76 538.08M54.83 538.76c2.59 131.84 47.87 246.57 141.72 340.67 93.56 93.8 207.64 141.57 339.63 142.18 132.94.61 248.14-46.55 342.76-140.64s142.37-208.68 142.63-341.44c.26-132.95-47.27-248-141.59-342.38-93.79-93.83-208.16-141.38-340.35-141.67-132.37-.29-247 46.85-341.34 140.46-94.86 94.17-140.73 209.33-143.46 342.82" style="fill:#c2bbaf"/><path d="M54.83 538.76c2.73-133.49 48.6-248.65 143.46-342.82 94.29-93.61 209-140.75 341.34-140.46 132.19.29 246.56 47.84 340.35 141.67 94.32 94.37 141.85 209.43 141.59 342.38C1021.31 672.29 973.42 787 878.94 881s-209.82 141.25-342.76 140.64c-132-.61-246.07-48.38-339.63-142.18C102.7 785.33 57.42 670.6 54.83 538.76m713.26-58.1c.4-20.86-.63-45.91-5.12-70.78a223.3 223.3 0 0 0-22.62-64.48 236 236 0 0 0-30.3-44c-16.1-18.7-34.86-34.2-55.13-48.07-5.52-3.78-11.76-6.1-17.33-9.64-10.8-6.84-22.57-11.6-34.58-15.56a294.5 294.5 0 0 0-44.54-11.1 229.5 229.5 0 0 0-38.09-3 241 241 0 0 0-36.11 2.75 256.6 256.6 0 0 0-55.14 14.85c-23.13 9.23-44.13 22.16-63.77 37.69-23.62 18.73-42.29 41.53-57.5 67.23-11.55 19.51-19.21 40.7-24.41 62.77a221.2 221.2 0 0 0-5.65 50.08q-.26 63.95 0 127.89c.08 13.06.28 26.15 2 39.17a327.6 327.6 0 0 0 11.85 54.12c6.88 22.19 17.28 42.75 29.46 62.47 9.33 15.11 20.47 28.81 32.52 41.78 10.85 11.67 23.19 21.6 35.93 31.19A226 226 0 0 0 415 822.53a290.5 290.5 0 0 0 79.17 30.75c16.31 3.93 33 6 49.67 7.76a257 257 0 0 0 44.7.78c11.6-.79 20-7.38 23.73-19.07 2.74-8.63 5.59-17.33 11.83-24.19 10.48-11.51 23.67-17.69 39.2-18.73 12.33-.83 24.71-1 36.41-5.88s21.28-11.54 27-23.26c6.93-14.22 8.36-29.63 10.42-44.92 1.49-11 4.45-21.83 10.8-30.8 9.35-13.19 23.58-19.17 39.16-21.64 15.85-2.52 31.25-6.05 45.54-13.77 12.31-6.65 22.43-15.29 27.9-28.46 4.94-11.9 2.3-22.2-7.35-30.67-6.38-5.6-14.5-7.54-22.23-10a82.6 82.6 0 0 1-29.64-16.64c-12.05-10.52-22.09-22.68-27.84-38-2.79-7.43-5.36-14.79-5.39-22.81-.01-9.35.01-18.67.01-32.32" class="cls-2"/><path d="M768.09 480.66v32.3c0 8 2.6 15.38 5.39 22.81 5.75 15.34 15.79 27.5 27.84 38A82.6 82.6 0 0 0 831 590.43c7.73 2.46 15.85 4.4 22.23 10 9.65 8.47 12.29 18.77 7.35 30.67-5.47 13.17-15.59 21.81-27.9 28.46-14.29 7.72-29.69 11.25-45.54 13.77-15.61 2.47-29.84 8.45-39.14 21.67-6.35 9-9.31 19.78-10.8 30.8-2.06 15.29-3.49 30.7-10.42 44.92-5.72 11.72-15.41 18.45-27 23.26s-24.08 5-36.41 5.88c-15.53 1-28.72 7.22-39.2 18.73-6.24 6.86-9.09 15.56-11.83 24.19-3.7 11.69-12.13 18.28-23.73 19.07a257 257 0 0 1-44.7-.78c-16.69-1.76-33.36-3.83-49.67-7.76A290.5 290.5 0 0 1 415 822.53 226 226 0 0 1 389.62 806c-12.74-9.59-25.08-19.52-35.93-31.19-12.05-13-23.19-26.67-32.52-41.78-12.18-19.72-22.58-40.28-29.46-62.47a327.6 327.6 0 0 1-11.85-54.12c-1.74-13-1.94-26.11-2-39.17q-.37-63.94 0-127.89a221.2 221.2 0 0 1 5.65-50.08c5.2-22.07 12.86-43.26 24.41-62.77 15.21-25.7 33.88-48.5 57.5-67.23 19.58-15.51 40.58-28.44 63.71-37.63a256.6 256.6 0 0 1 55.14-14.85 241 241 0 0 1 36.11-2.75 229.5 229.5 0 0 1 38.09 3A294.5 294.5 0 0 1 603 228.16c12 4 23.78 8.72 34.58 15.56 5.57 3.54 11.81 5.86 17.33 9.64 20.27 13.87 39 29.37 55.13 48.07a236 236 0 0 1 30.3 44A223.3 223.3 0 0 1 763 409.88c4.46 24.87 5.49 49.92 5.09 70.78m43.09 145.58a14.64 14.64 0 0 0-5.68-3.66c-12.06-5.58-23.32-12.58-33.07-21.67A144.8 144.8 0 0 1 737 550.48a120.2 120.2 0 0 1-9.12-42.9c-1.13-30.84 2.17-61.84-4.15-92.48a178.2 178.2 0 0 0-10.86-35.38A213.3 213.3 0 0 0 688.71 338a205 205 0 0 0-40.13-40.63c-13-10-27.41-18.11-42.44-25.1-18.41-8.54-37.77-13.67-57.61-16.44a199.2 199.2 0 0 0-57.94.63c-20.23 3.11-39.88 8.21-58.28 17-21.51 10.28-41.19 23.63-58 40.63a197.4 197.4 0 0 0-32.78 43.46 189.24 189.24 0 0 0-24.12 91.75c-.25 41.79 0 83.58-.17 125.37-.09 22.13 1.8 44 7.18 65.51 3.93 15.73 8.52 31.18 15.72 45.74A257 257 0 0 0 375 739.61c17.93 21 39.3 37.42 63.05 50.91 18.4 10.48 38.23 17.48 58.73 22.63a290.4 290.4 0 0 0 77.82 9c1.9 0 3.27-.3 4.15-2.58 5.89-15.24 14.79-28.29 27.92-38.36 15.5-11.89 32.8-19 52.27-20.8 6.44-.58 13-.48 19.33-1.45 5.42-.83 11.5-1.37 14-7.73s3.42-12.76 4.25-19.35c2.86-22.82 7.64-44.85 22.71-63.46a88.1 88.1 0 0 1 21-18.88c16.2-10.44 34.53-14.77 53.38-17.44a45.8 45.8 0 0 0 17.57-5.86" class="cls-3"/><path d="M811.18 626.24a45.8 45.8 0 0 1-17.61 5.88c-18.85 2.67-37.18 7-53.38 17.44a88.1 88.1 0 0 0-21 18.88c-15.07 18.61-19.85 40.64-22.71 63.46-.83 6.59-1.81 13.14-4.25 19.35s-8.59 6.9-14 7.73c-6.37 1-12.89.87-19.33 1.45-19.47 1.76-36.77 8.91-52.27 20.8-13.13 10.07-22 23.12-27.92 38.36-.88 2.28-2.25 2.53-4.15 2.58a290.4 290.4 0 0 1-77.82-9c-20.5-5.16-40.33-12.19-58.72-22.63-23.71-13.54-45.08-29.93-63.02-50.93A257 257 0 0 1 340.1 686c-7.2-14.56-11.79-30-15.72-45.74-5.38-21.55-7.27-43.38-7.18-65.51.17-41.79-.08-83.58.17-125.37a189.24 189.24 0 0 1 24.12-91.75 197.4 197.4 0 0 1 32.78-43.46c16.85-17 36.53-30.35 58-40.63 18.4-8.79 38.05-13.89 58.28-17a199.2 199.2 0 0 1 57.94-.63c19.84 2.77 39.2 7.9 57.61 16.44 15 7 29.4 15.05 42.44 25.1A205 205 0 0 1 688.71 338a213.3 213.3 0 0 1 24.15 41.69 178.2 178.2 0 0 1 10.86 35.38c6.32 30.64 3 61.64 4.15 92.48a120.2 120.2 0 0 0 9.12 42.9 144.8 144.8 0 0 0 35.44 50.43c9.75 9.08 21 16 33.07 21.67a14.64 14.64 0 0 1 5.68 3.69M618.66 476.9c39.39-.06 76.64-29.86 77.61-76.29.86-41-29.86-77.27-75.73-78.65-42.21-1.27-77.64 31.78-78.74 75.83-1.05 41.57 30.61 77.97 76.86 79.11M507 398.77c-1.09-44.08-34.88-76.41-76.66-76.84-44.85-.45-78.24 35.7-77.93 77.69.32 44.27 34.9 77.67 78.25 77.15 42.7-.51 76.08-34.51 76.34-78" class="cls-2"/><path d="M618.66 476.9c-46.25-1.14-77.91-37.54-76.86-79.11 1.1-44.05 36.53-77.1 78.74-75.83 45.87 1.38 76.59 37.69 75.73 78.65-.97 46.39-38.22 76.23-77.61 76.29m-.14-130.35c-30 .45-52.8 24.47-52.59 53.08.23 31.74 25.09 53.53 53.23 53 32.9-.58 52.57-24.38 53-52.11.51-31.4-23.97-53.83-53.64-53.97M507 398.77c-.21 43.49-33.59 77.49-76.34 78-43.35.52-77.93-32.88-78.25-77.15-.31-42 33.08-78.14 77.93-77.69 41.73.43 75.52 32.76 76.66 76.84m-78-52.22a53 53 0 0 0-52.57 53.07c.18 31.22 24.9 53.56 53.21 53.09 32.43-.55 52.77-23.73 53.16-52.37.44-30.99-23.69-53.73-53.8-53.79" class="cls-3"/><path d="M618.52 346.55c29.67.14 54.15 22.57 53.65 54-.44 27.73-20.11 51.53-53 52.11-28.14.5-53-21.29-53.23-53-.22-28.66 22.59-52.66 52.58-53.11m1.48 53.09h.18v-25.92c0-2.21-.14-4.09-3.11-3.83A29.55 29.55 0 0 0 589.61 402c1 12.71 11.72 24.79 25.25 27 3.84.64 5.22 0 5.15-4-.14-8.41-.01-16.89-.01-25.36M429 346.55c30.1.06 54.23 22.8 53.8 53.79-.39 28.64-20.73 51.82-53.16 52.37-28.31.47-53-21.87-53.21-53.09A53 53 0 0 1 429 346.55m1.5 52.76h.13v-25.47c0-2.15.07-4.13-3-3.91-17 1.23-29.38 16.15-27.23 32.55 1.88 14.42 10.56 23 24.7 26.35 4.05 1 5.52.24 5.43-4.05-.15-8.49-.02-16.98-.02-25.47Z" class="cls-2"/><path d="M620 399.64c0 8.47-.1 16.95 0 25.42.07 4-1.31 4.6-5.15 4-13.53-2.26-24.29-14.34-25.25-27a29.55 29.55 0 0 1 27.45-32.08c3-.26 3.12 1.62 3.11 3.83v25.92ZM430.51 399.31c0 8.49-.13 17 .06 25.47.09 4.29-1.38 5-5.43 4.05-14.14-3.38-22.82-11.93-24.7-26.35-2.15-16.4 10.21-31.32 27.23-32.55 3.06-.22 3 1.76 3 3.91v25.47Z" class="cls-3"/></g></g></svg>