<svg xmlns="http://www.w3.org/2000/svg" width="857" height="857" fill="none"><path fill="#333336" d="M428.15 856.3c236.461 0 428.15-191.689 428.15-428.15S664.611 0 428.15 0 0 191.689 0 428.15 191.689 856.3 428.15 856.3"/><path fill="#9750F1" d="M695.355 461.597c-12.122-18.183-30.305-29.093-46.064-33.941-6.061-2.425-7.273-12.122 0-14.547 37.578-16.971 55.761-54.549 55.761-112.735 0-53.337-10.909-93.339-33.941-118.796C649.291 156.122 612.925 144 564.437 144H268.659c-52.125 0-80.005 48.488-84.854 83.642 0 4.849 3.636 8.485 7.273 6.061 10.91-6.061 26.668-7.273 36.366-7.273 41.215 0 73.945 15.758 92.128 55.761 3.636 8.486 8.485 4.849 8.485 0 1.212-12.122 2.424-15.758 7.273-20.607q7.274-7.274 29.093-7.274h136.979c19.396 0 33.942 4.849 43.639 13.335 8.486 9.697 13.335 24.244 13.335 44.851 0 21.82-4.849 37.579-13.335 46.064-8.485 8.485-23.032 13.334-42.427 13.334H397.153c14.546 27.881 23.031 59.398 23.031 92.128v13.334h86.067c20.608 0 35.154 4.849 44.851 14.546q14.547 14.547 14.547 47.276t-14.547 47.276-47.275 14.547H371.696c-4.848 0-8.485 1.212-10.909 4.848-7.274 7.274-15.759 13.335-24.245 19.396-2.424 2.424-4.848 4.849-4.848 8.485-1.212 12.122-8.486 44.852-44.852 48.488-23.032 2.425-43.639-12.122-50.913-33.941-1.212-4.849-2.424-9.698-2.424-15.759 0-2.424-2.424-4.849-4.849-4.849-2.424 0-4.849 2.425-4.849 4.849 0 4.849-1.212 9.698-2.424 15.759-3.637 10.909-10.91 19.395-19.395 25.456-3.637 2.424-4.849 7.273-1.213 10.91 14.547 18.183 36.367 26.668 67.884 26.668H571.71c53.337 0 90.915-13.334 111.523-38.79 20.607-26.669 30.305-65.459 30.305-117.584 2.424-41.215-4.849-71.52-18.183-93.34"/><path fill="#fff" d="M366.838 371.894c-9.698-14.547-23.032-29.093-37.578-40.003-6.061-4.849-12.123-8.485-19.396-13.334-3.636-1.213-6.061-4.849-6.061-8.486-8.485-33.941-38.79-56.973-73.944-56.973-16.971 0-32.729 6.061-44.851 14.546-13.334 9.698-24.244 25.456-29.093 42.427-1.212 3.637-3.637 6.061-6.061 8.486C96.517 348.862 65 403.411 65 462.809c0 36.366 12.122 71.52 33.942 99.401l1.212 1.212c2.424 3.637 7.273 6.061 12.122 6.061 8.485 0 15.758-7.273 15.758-15.758V529.48c0-7.273 6.061-13.334 13.334-13.334 7.274 0 13.335 6.061 13.335 13.334v100.613c0 12.123 9.697 23.032 23.031 23.032 3.637 0 8.486-1.212 10.91-3.636 4.849-2.425 8.486-7.273 9.698-12.122 1.212-2.425 1.212-4.849 1.212-7.274 0-16.97 14.546-31.517 31.517-31.517s31.518 14.547 31.518 31.517c0 2.425 0 4.849 1.212 7.274 2.424 9.697 12.122 15.758 21.819 15.758 12.122 0 23.032-9.697 23.032-23.032V528.268c0-7.273 6.061-13.334 13.334-13.334 4.849 0 7.273 2.424 10.91 4.849 2.424 2.424 3.637 4.849 3.637 8.485v26.669c0 8.485 7.273 15.758 15.758 15.758 4.849 0 9.698-2.424 12.122-6.061l1.213-1.212q29.093-38.184 32.729-87.279v-13.334c-3.636-32.729-13.334-64.247-31.517-90.915m-136.979 56.973c-16.971 0-32.729-3.636-44.851-10.909-18.183-9.698-31.518-25.457-31.518-43.64s12.123-33.942 31.518-43.639c12.122-6.061 27.88-10.91 44.851-10.91 42.427 0 76.369 24.244 76.369 53.337s-35.154 55.761-76.369 55.761"/><path fill="#fff" d="M263.804 362.196c-7.273 0-13.334 6.061-13.334 13.334 0 7.274 6.061 13.335 13.334 13.335 7.274 0 13.335-6.061 13.335-13.335 0-7.273-6.061-13.334-13.335-13.334M194.693 362.196c-4.849 0-8.486 2.424-10.91 4.849-1.212 2.424-2.425 4.848-2.425 8.485s1.213 6.061 2.425 8.485c2.424 3.637 6.061 4.849 10.91 4.849 7.273 0 13.334-6.061 13.334-13.334s-6.061-13.334-13.334-13.334"/></svg>