<svg xmlns="http://www.w3.org/2000/svg" width="32" height="32" fill="none"><g clip-path="url(#a)"><path fill="#1A0FF4" d="M16 32c8.836 0 16-7.164 16-16S24.836 0 16 0 0 7.163 0 16s7.163 16 16 16"/><path fill="#F2F2F2" d="M22.863 23.217c-.55-.039-.995-.27-1.413-.567-1.825-1.303-3.722-2.496-5.493-3.87-.566-.44-.582-.43-.995.16-.956 1.363-1.852 2.765-2.897 4.062-.319.396-.632.803-1.056 1.094-.582.396-1.242.407-1.71.044s-.61-.995-.379-1.66c.182-.528.55-.93.89-1.353 1.045-1.292 2.09-2.59 3.124-3.892.462-.583.45-.594-.105-1.127-1.121-1.089-2.248-2.167-3.36-3.266-.455-.457-.884-.94-1.143-1.545-.17-.401-.181-.797.121-1.144.347-.401.836-.396 1.336.077 1.287 1.215 2.71 2.26 4.063 3.393 1.193.995 1.188.973 2.221-.149.666-.726 1.37-1.413 2.062-2.111.121-.121.253-.226.39-.324.556-.396.891-.435 1.182-.127.363.38.193.77-.033 1.116-.703 1.078-1.435 2.145-2.155 3.211-.544.808-.654.737.28 1.38 1.595 1.094 3.261 2.084 4.91 3.09.495.302.996.6 1.326 1.094.346.517.44 1.067.148 1.639-.275.522-.753.742-1.314.775"/><path fill="#F2F2F2" d="M21.343 8.684c-1.132.495-2.028.89-2.93 1.281-.34.148-.687.297-1.045.401-.599.176-1.028.006-1.21-.429-.164-.395.006-.78.49-1.1.083-.054.176-.104.27-.148 1.594-.753 3.177-1.544 4.827-2.177.16-.06.319-.12.484-.165 1.292-.363 2.023.292 1.726 1.606a23 23 0 0 1-1.154 3.584c-.143.347-.325.677-.6.94-.61.589-1.22.43-1.44-.379-.176-.643-.072-1.28.12-1.908.122-.417.253-.83.462-1.506"/></g><defs><clipPath id="a"><path fill="#fff" d="M0 0h32v32H0z"/></clipPath></defs></svg>