<svg width="96" height="96" viewBox="0 0 96 96" fill="none" xmlns="http://www.w3.org/2000/svg">
<g clip-path="url(#clip0_20873_26)">
<path d="M48 96C74.5097 96 96 74.5097 96 48C96 21.4903 74.5097 0 48 0C21.4903 0 0 21.4903 0 48C0 74.5097 21.4903 96 48 96Z" fill="#F0B90B"/>
<path d="M30.9034 25.9065L47.8124 16.0645L64.7204 25.9065L58.5044 29.5425L47.8124 23.3355L37.1204 29.5425L30.9034 25.9065ZM64.7204 38.3185L58.5034 34.6825L47.8114 40.8885L37.1194 34.6825L30.9034 38.3185V45.5905L41.5954 51.7965V64.2085L47.8114 67.8445L54.0274 64.2085V51.7965L64.7194 45.5905L64.7204 38.3185ZM64.7204 58.0025V50.7305L58.5034 54.3665V61.6385L64.7204 58.0025ZM69.1334 60.5725L58.4434 66.7785V74.0505L75.3514 64.2085V44.5245L69.1334 48.1605V60.5725ZM62.9174 32.1125L69.1334 35.7485V43.0205L75.3504 39.3845V32.1125L69.1344 28.4765L62.9174 32.1125ZM41.5964 69.4105V76.6825L47.8124 80.3185L54.0284 76.6825V69.4105L47.8124 73.0465L41.5964 69.4105ZM30.9034 58.0015L37.1194 61.6385V54.3665L30.9034 50.7305V58.0015ZM41.5954 32.1115L47.8114 35.7485L54.0274 32.1125L47.8114 28.4765L41.5954 32.1115ZM26.4894 35.7485L32.7054 32.1125L26.4894 28.4765L20.2734 32.1125V39.3845L26.4894 43.0205V35.7485ZM26.4894 48.1605L20.2734 44.5245V64.2085L37.1814 74.0505V66.7785L26.4894 60.5725V48.1605Z" fill="white"/>
</g>
<defs>
<clipPath id="clip0_20873_26">
<rect width="96" height="96" fill="white"/>
</clipPath>
</defs>
</svg>