<svg xmlns="http://www.w3.org/2000/svg" width="200" height="200" fill="none"><circle cx="100" cy="100" r="100" fill="url(#a)"/><path fill="#fff" fill-rule="evenodd" d="M93.07 39.597h15.341v.032c18.038.776 32.424 15.645 32.424 33.874 0 8.467-3.104 16.21-8.236 22.151 10.25 6.05 17.127 17.208 17.127 29.971 0 19.178-15.524 34.731-34.691 34.778H63.087V39.597zm-.522 22.271c0-1.953 1.31-3.6 3.1-4.108a4.23 4.23 0 0 1 4.302 1.031l11.51 11.51q.145.12.28.257a4.23 4.23 0 0 1 0 5.98L100.019 88.26a4.22 4.22 0 0 1-3.095 1.237l-.105.002a4.27 4.27 0 0 1-4.271-4.271zm20.396 75.392c0 1.953-1.312 3.6-3.102 4.109a4.23 4.23 0 0 1-4.3-1.032l-11.509-11.508a4.23 4.23 0 0 1-.282-6.239l11.721-11.722a4.22 4.22 0 0 1 3.094-1.237l.065-.001h.042a4.27 4.27 0 0 1 4.271 4.271z" clip-rule="evenodd"/><defs><linearGradient id="a" x1=".329" x2="245.23" y1="22.824" y2="141.405" gradientUnits="userSpaceOnUse"><stop offset=".054" stop-color="#6D5CFF"/><stop offset=".559" stop-color="#E86EFF"/><stop offset=".924" stop-color="#FFD66E"/></linearGradient></defs></svg>