<svg xmlns="http://www.w3.org/2000/svg" width="512" height="512" fill="none"><g clip-path="url(#a)"><circle cx="256" cy="256" r="256" fill="#0156F7"/><path fill="#fff" d="M333.388 221.688H512v91.927H333.388z"/><circle cx="256" cy="256" r="200" fill="#5DDEFE"/><path fill="#04374C" d="M341.846 363.675c-11.395 21.765-30.6 32.776-53.774 36.873-19.845 3.585-40.074 5.249-60.431 2.817-32.264-3.713-56.974-20.101-75.539-46.22-22.661-31.752-27.271-66.704-17.412-104.09 2.176-8.45 4.225-16.9 6.274-25.35 1.92-.128 2.176 1.28 2.56 2.689 0 8.834-3.201 17.156-4.737 25.734-1.921 10.627-3.969 21.253-3.969 32.264.128 36.361 15.62 65.296 42.635 88.598 11.523 9.987 24.838 16.388 39.818 19.461 17.54 3.201 35.08 2.177 52.749 1.408 15.492-.64 29.831-4.353 43.019-12.163 9.218-3.969 16.132-10.498 21.893-18.564 1.664-2.433 3.073-5.762 7.17-4.481v.512c0 .256-.128.384-.256.64z"/><path fill="#053C52" d="M142.244 230.65c-.513-.897-.897-1.793-1.409-2.689 0-2.561 0-4.865.768-7.426 2.433-8.578 1.665-16.132-4.225-24.198-15.364-21.381-15.236-49.548-.896-67.985 12.035-15.492 27.911-22.79 47.628-19.717 20.101 3.073 29.831 17.413 35.593 35.081 3.585 10.883 4.097 22.277 2.304 33.544-.768 4.866.513 4.737 4.482 3.841 19.332-4.225 38.921-7.298 58.638-8.194 7.426-1.024 14.98.256 22.406-1.024 3.201-.768 6.273.768 9.474.896 1.409.384 2.817 1.024 2.945 2.817-.384 1.152-1.152 1.92-2.177 2.304-7.682.897-15.235-.512-22.917-.512-24.839 0-49.165 4.738-73.363 9.347-1.408.256-2.816.896-4.353 1.152-1.664.256-3.713.768-4.737-.896-1.024-1.793.64-3.201 1.793-4.225 2.304-2.177 3.456-4.737 3.456-7.938.512-18.565-2.816-36.105-14.979-50.957-1.793-2.689-4.353-4.609-7.298-6.018-13.444-5.889-26.759-6.785-39.946.385-17.541 9.474-27.655 27.398-24.582 49.164 1.664 12.419 6.785 23.174 14.211 33.032 1.921 2.561 4.097 4.865 5.89 7.554.64 1.024 1.664 2.945.384 3.329-7.426 2.304-4.609 9.218-6.53 13.827-.768 2.049 0 4.866-3.201 5.634z"/><path fill="#251D42" d="M348.119 355.737c-1.409 1.664-4.225 1.536-4.994 3.841-4.225 3.201-9.602 2.305-14.211 4.097-9.859 2.945-20.229 3.585-30.344 3.841-22.149.64-44.299 1.792-66.32-2.433-13.7-2.56-26.887-6.529-39.178-13.187-12.803-6.786-22.406-16.9-29.063-29.703-3.329-6.274-5.634-13.444-1.025-20.486 1.793-.256 2.433 1.281 3.073 2.433 1.409 8.194 3.073 16.26 8.578 22.918 16.388 20.229 39.05 28.039 63.632 31.752 29.063 4.353 58.127 2.688 87.062-1.537 6.786-1.024 13.187-3.072 19.973-4.097 1.408.256 2.945.512 2.945 2.561z"/><path fill="#173943" d="M373.981 227.705c1.153 1.28 2.305 2.432 3.457 3.713 11.779 12.163 12.035 23.43.769 36.105-.641.768-1.153 1.664-1.793 2.56-.64 2.689-2.945 3.329-5.121 4.097-2.049.897-3.969 1.921-5.89 3.073-11.907 5.121-24.454 3.969-36.873 3.073-2.305-.128-4.481-1.152-5.889-3.329-.769-1.92.64-2.561 1.92-3.201 7.298-.64 14.34 1.409 21.638.897 9.346-.641 18.052-3.073 25.862-8.323 11.651-7.938 12.803-19.588 3.457-29.959-8.578-9.474-19.845-13.187-31.88-14.34-16.516-1.536-32.008 1.025-44.171 13.828-.64.64-1.409.896-2.305 1.152-1.792 0-2.304-1.152-2.56-2.561-.256-3.584 2.176-5.761 4.737-7.681 5.377-3.969 11.011-7.554 17.54-9.475 18.821-5.121 36.873-3.713 53.902 6.274 1.664.896 1.792 2.945 3.2 3.969z"/><path fill="#32234A" d="M348.119 355.737c-.64-1.025-1.793-1.153-2.817-1.409 0-1.792 1.28-2.688 2.561-3.328q19.972-11.139 13.827-33.033c.64-2.176.896-4.609 3.201-5.889 2.817-1.537 6.017-2.177 8.834-3.585 2.561-1.28 4.865-3.073 4.481-6.274-.512-3.457-3.201-4.865-6.273-5.377-3.841-.64-7.554-.384-11.395.768-6.53 1.921-13.315 2.689-20.101 2.689-22.15 0-44.171 0-66.321-.128-2.688 0-6.913 1.408-7.426-3.713 2.945-1.921 6.146-1.152 9.219-1.28 9.858-.513 19.845.896 29.703-.769 7.298-1.024 14.724-.384 22.15-.512 12.291 0 24.454-1.664 36.233-4.737 1.408-.256 2.688-.384 4.097-.512 1.536 0 2.432.896 3.201 2.048 6.017 2.433 13.187 4.226 12.931 12.548-.384 8.194-7.682 9.986-13.828 11.907-3.841 1.28-4.737 2.176-3.328 6.401 4.609 13.572-3.841 28.295-18.821 34.185z"/><path fill="#063B50" d="M318.672 176.876c.512-.512.896-1.024 1.408-1.536 2.048-1.921 4.353-1.153 6.53-.256 7.041 2.944 14.339 5.505 19.845 11.138 2.816 2.817 4.097 1.793 5.121-1.536 1.408-4.225 3.713-8.066 6.017-11.907 1.153-1.92 1.921-4.481 4.994-4.353 1.408.768 1.792 1.792.896 3.201-2.177 4.609-4.609 9.09-6.53 13.699-4.097 10.371-2.176 16.26 7.042 22.79 2.433 1.792 4.609 3.713 6.017 6.402.513 1.408-.256 1.792-1.408 2.176-.896-.128-1.664-.384-2.305-1.024-12.675-10.627-27.142-10.883-42.25-7.17-3.713.896-7.298 2.561-11.139 2.433-2.304-.641-2.56-1.921-1.28-3.841.896-1.025 2.048-1.665 3.201-2.305 11.138-5.377 22.917-6.401 35.464-5.377-1.024-3.073-2.688-4.737-4.737-6.274-2.816-2.689-6.145-4.481-9.474-6.529-3.201-2.049-6.146-4.61-10.115-4.738-2.816-1.152-6.273-1.408-7.169-5.121z"/><path fill="#053649" d="M308.429 173.163c-7.682 1.409-15.364 2.049-23.046-.384 3.841-8.706 6.786-17.796 12.675-25.606 9.987-13.187 21.894-23.302 39.69-23.558 5.634 0 11.011.896 15.748 4.225.384 1.921-1.024 2.305-2.304 2.689-8.194-1.537-16.132-3.201-24.454.128-16.517 6.529-25.863 19.461-32.905 34.824-1.152 2.689 0 4.097 2.817 4.226 2.177.128 4.225 0 6.402.256 2.304.256 4.865.128 5.505 3.2z"/><path fill="#0A4C63" d="M371.165 290.569c-.897-.384-1.665-.896-2.561-1.281-1.792-1.024-1.536-5.505-5.377-3.072-11.395 4.481-23.302 3.841-35.209 3.585-3.457 0-6.786-.257-9.475-2.689-.384-.64-.64-1.408-.512-2.177 1.409-3.072 4.353-2.432 6.786-2.816 11.139-.513 22.534 1.28 33.544-2.049 2.689-.768 5.25-1.536 7.682-2.817 1.921-1.28 4.481-1.92 4.994-4.865 1.408-1.408 4.097-.256 5.121-2.432-2.433 6.657-5.377 13.187-5.121 20.485z"/><path fill="#0B5068" d="M350.552 129.504c1.152-.256 2.304-.384 2.816-1.536 14.852 8.194 19.461 28.295 10.115 43.787-.128-1.025-.256-2.177-1.409-2.689-1.664-2.433 0-4.865.256-7.298 1.537-10.626.641-20.613-8.45-28.039-1.152-1.408-3.457-1.92-3.328-4.225"/><path fill="#186F8D" d="M328.786 362.138c4.609-1.92 9.475-1.92 14.34-2.432.64 1.664.256 3.073-1.281 4.097-3.84-.64-4.353 2.945-5.889 4.865-5.889 7.298-12.035 14.34-21.253 17.668-.256-3.328 2.176-4.865 4.225-6.401 4.225-2.945 6.913-7.17 10.242-10.883 2.177-2.432 2.305-4.737-.512-6.914z"/><path fill="#10536E" d="M368.732 216.31c.512-.512 1.024-1.152 1.408-1.664 3.457 3.713 4.097 8.322 3.841 13.187-.896-.768-1.792-1.664-2.688-2.433-1.409-1.28-1.665-3.072-2.305-4.737-.384-1.408-1.152-2.816-.128-4.353z"/><path fill="#05ACDC" d="M328.786 362.139c5.121.896 5.505 2.944 2.048 7.81-4.609 6.401-10.754 11.01-16.132 16.516-9.346 7.298-20.357 11.01-31.624 12.291-20.485 2.304-41.226 3.841-61.839.512-1.664-.256-3.329-.768-4.993-1.152-13.188-4.481-22.406-14.212-31.752-23.814-18.821-19.333-29.32-43.147-35.849-68.882-5.762-22.405-5.762-45.195-.64-67.728 2.432-10.499 5.889-20.742 9.73-30.984 1.024-2.689 2.433-4.993 4.993-6.402.513-.384 1.153-.64 1.793-.768 10.37-2.561 19.973-7.042 29.063-12.547-9.09 4.993-18.18 9.858-28.551 12.163-3.969.896-7.938 1.408-12.035.384-5.761-4.097-6.914-7.554-4.481-14.084.896-2.432 2.048-4.737 3.713-6.657 7.426-8.834 17.668-13.059 27.783-17.541 4.865-2.176 9.986-3.712 14.595-6.401 4.866-2.689 5.25-4.225 1.793-8.834-2.049-2.689-4.993-4.609-6.018-8.066-1.152-5.378 1.281-9.987 2.945-14.724 2.689-4.353 6.146-3.841 9.859-1.408 11.394 11.266 14.851 25.862 16.388 41.098.256 2.945.128 6.017.128 8.962q0 9.346-6.786 14.724c34.953-6.786 69.649-14.468 105.498-9.603 2.561 1.281 5.122 2.433 7.682 3.713q5.761 3.842 1.153 12.035c1.92-3.841 4.481-6.913 9.09-7.169 3.329 1.664 6.657 3.456 9.09 6.401 3.585 3.969.768 5.249-2.561 5.634-4.865.512-9.474 2.048-14.339 2.688-5.249-1.024-9.859-.256-13.956 3.841-2.56 2.689-6.657 2.433-9.73 4.353-2.817 1.665-5.634 3.329-1.408 6.914 2.432 2.049 2.432 5.121-.385 7.042-3.84 2.816-5.633 7.426-9.346 10.242-2.176 1.665-3.073 4.481-2.945 7.426 0 3.585.128 7.17 0 10.755-.384 5.121 1.409 8.706 6.53 10.242l1.536 1.153c2.817 3.329 4.097 7.682 8.323 9.986 2.944 1.537 2.56 4.481.64 7.042-.64.64-1.281 1.024-2.049 1.536-1.152 1.793-.384 3.073 1.409 3.073 4.097 0 7.553 2.561 11.522 2.817 3.073-.256 5.762 2.048 8.963 1.28 1.28 1.537 4.353 2.049 3.713 4.609-.769 2.689-3.457 1.793-5.506 1.921-19.845.896-39.818.384-59.663.64-11.907.768-23.686-1.152-35.593-1.664-7.426-1.921-15.107-.769-22.661-.897-6.53-.128-13.06-.512-19.589.384-8.962 1.153-17.413 3.713-24.582 9.347-3.585 6.913-1.281 13.315 1.792 19.461 9.218 18.052 24.582 28.935 43.275 35.464 30.215 10.627 61.455 10.627 92.695 8.451 9.09-.641 18.181-1.665 27.143-3.457z"/><path fill="#0B7898" d="M164.009 201.074c-6.53 5.762-7.426 14.34-9.602 21.766-2.561 8.706-5.506 17.54-6.53 26.886-1.792 15.748-1.792 31.24 1.024 46.86 3.457 19.205 9.987 37.385 19.845 54.03 8.834 14.979 20.741 27.783 34.697 38.665 4.225 3.201 8.45 6.274 12.931 8.963-25.606-5.25-44.427-20.358-59.791-40.459-17.668-23.173-25.222-49.292-23.174-78.099 1.025-14.852 5.122-29.191 8.194-43.787.385-1.664.513-3.329.769-4.993 2.304-5.378 1.92-11.139 3.2-16.772.897-3.713.385-8.323 7.042-1.921-6.529-8.194-12.035-14.852-16.132-22.534-10.37-20.229-12.035-47.243 8.322-65.552 13.572-12.291 29.448-16.516 47.244-9.346 1.793.768 3.969.128 5.249 1.92-.512 2.305-1.536 4.353-2.56 6.53 0 5.249-3.841 9.858-2.689 15.364-2.945.896-4.609-1.665-6.786-2.817-8.066-4.225-16.26-6.146-24.71-1.152-8.066 4.737-11.523 12.035-11.651 21.125 0 6.145-.256 12.291 2.433 18.052.768 2.945.64 5.762-1.024 8.579-1.153 1.92-1.793 4.225-2.305 6.529-1.536 6.786 2.049 11.523 9.218 11.779 2.177 0 4.61-1.536 6.53.768z"/><path fill="#05ABDC" d="M354.392 132.065c12.676 10.243 12.292 23.174 7.682 37.001-4.737 6.914-8.962 14.084-10.754 23.174-9.603-8.194-19.077-15.108-31.24-16.772-.384-1.152-1.537-1.152-2.561-1.409-13.699-3.2-11.139-2.432-7.426-13.059 4.866-13.827 15.876-22.277 28.295-28.807 4.994-2.689 10.627-2.177 16.004 0z"/><path fill="#0B7999" d="M354.393 132.065c-18.053-.768-38.538 13.956-43.403 31.368-.256 1.024-.256 2.177-.897 2.945-2.816 3.841-1.024 5.121 2.817 5.633 1.665.256 3.073 1.152 4.609 1.793-3.073.896-6.017-1.281-9.09-.769-4.353-2.688-9.09-1.28-13.699-1.536-3.329-.256-4.994-1.28-3.457-4.609 7.682-17.284 17.796-32.392 37.001-38.666 7.554-2.432 14.98-1.792 22.406 1.152 1.024 1.281 3.2.769 3.841 2.561z"/><path fill="#1C9ABB" d="M194.737 122.975c.256-2.433-1.537-5.634 2.56-6.53 2.305 1.536 4.738 2.689 6.146 5.249-2.945.384-6.274-1.664-8.834 1.281z"/><path fill="#DD3890" d="M266.05 297.099c10.755 1.792 21.638 1.28 32.393 1.408 18.436 0 37.001 1.792 55.437-1.28 5.762-1.025 11.395-3.329 17.541-2.561 4.737.512 8.578 2.304 9.602 6.914 1.28 4.993-2.817 7.169-6.529 8.962-3.457 1.536-7.17 2.56-10.755 3.713-5.378 3.073-11.651 2.817-17.156 2.304-6.274-.512-12.548-.384-18.821-1.408-6.402-1.664-13.059-1.28-19.589-1.92-21.765-2.049-43.531-3.329-65.296-5.122-7.554-.64-15.364 0-22.918-.128-8.066 0-16.132-.512-24.198.64-2.305.384-4.609.641-6.786 1.793-9.346 4.993-9.73 12.291 0 20.741 9.987 8.706 22.662 12.419 35.337 15.236 25.222 5.761 50.957 6.145 76.691 5.121 14.084-.512 27.783-2.945 40.458-9.858 6.786-3.713 9.603-8.963 8.834-16.773-.896-8.834 2.817-10.882 11.907-7.169 6.274 12.291 2.561 24.838-9.73 32.904-2.305 1.536-4.737 2.689-7.042 4.097-41.61 10.627-83.349 12.547-125.343 2.433-18.821-4.482-35.593-13.06-47.116-29.448-2.945-8.066-8.194-15.62-6.145-25.094 2.048-4.225 6.017-5.89 10.114-7.042 5.634-1.664 11.523-2.432 17.541-2.689 22.277-.896 44.299 1.665 66.576 2.561 1.921 0 3.841.256 5.121 1.921z"/><path fill="#251E3A" d="M266.051 297.098c-15.492.385-30.984-2.048-46.476-2.432-12.163-.256-24.198-1.024-36.233.896-5.889 1.024-11.651 2.561-15.62 7.554-.384.896-.896 1.664-2.048 1.664-1.153-.512-1.537-1.408-1.665-2.56 5.122-8.834 13.956-9.475 22.662-10.499 14.724-.64 29.447-.768 44.043 0 11.779-.256 23.43 2.305 35.209 1.537 2.048.896 4.353 0 6.401.896 9.347.512 18.821 0 28.167.256 1.921.128 3.841-.384 5.506 1.152-1.793 2.177-4.225 1.28-6.53 1.28-11.139 0-22.277 0-33.416.128z"/><path fill="#B64085" d="M165.545 304.78c.641-.512 1.409-1.024 2.049-1.664 0 6.145.384 12.163 4.225 17.54 1.408 2.049 1.024 4.481 1.152 6.786-5.249-6.658-8.578-13.956-7.426-22.662"/><path fill="#FAFBFB" d="M296.779 236.667c13.827-20.613 55.181-21.893 76.179-5.249 15.235 12.035 14.083 28.807-2.817 38.409-12.035 6.786-24.966 7.81-38.41 6.146-2.048-.256-4.225-.512-6.273-.768-13.444-1.152-23.174-8.322-30.216-19.333-4.225-6.658-3.457-13.827 1.408-19.077z"/><path fill="#15A5CB" d="M289.352 239.356c.384-4.225 1.793-7.298 5.762-9.73 3.457-2.177 4.097-7.426 8.45-9.603 2.048-1.024.256-4.097-2.049-4.737-4.865-1.28-3.328-3.329-1.152-5.633 1.536-1.665 3.201-3.329 5.634-3.841 4.481-.769 8.322-2.817 11.522-6.018 2.945-2.945 6.658-1.92 10.115-1.28 0 3.201-2.945 2.432-4.609 3.329-2.689 1.536-6.146 1.792-8.322 4.353-.768.512-1.665.896-2.433 1.408-1.664.64-2.433 2.177-3.969 3.329 1.536-.512 2.817-.256 4.225-.512 11.779-4.353 23.814-7.298 36.489-4.994 7.682 1.409 14.212 5.25 19.461 11.139.384 1.281.896 2.561 1.28 3.841 1.153 3.713-.896 2.945-2.944 2.049-3.841-1.793-7.554-3.841-11.267-5.634-8.194-4.097-16.644-4.609-25.35-2.176-4.738 1.408-9.859 2.176-14.212 4.737-5.889 2.305-11.267 5.633-16.388 9.346-1.921 1.409-4.353 2.817-4.225 5.89-1.152.896-1.28 2.304-2.177 3.329-1.152 1.152-2.176 2.688-4.225 1.792z"/><path fill="#1DA2C8" d="M307.148 279.302c1.281-3.457 1.025-6.146-3.2-7.81-3.841-1.409-4.097-5.762-5.89-8.963 1.024-.768 2.049-.512 2.817.257 5.377 5.889 12.419 9.09 19.717 11.907.768.256 1.28 1.024 1.792 1.664 14.724 4.865 29.191 3.713 43.659-1.28 2.817-1.153 3.329 0 2.689 2.56-8.45 5.634-18.053 6.658-27.783 6.658-5.249 0-10.499-.256-15.876-.384-3.713-1.28-7.682.128-11.267-1.024-2.433-.769-5.761-.256-6.658-3.713z"/><path fill="#147796" d="M316.239 219.127c11.395-7.938 26.887-10.883 39.306-4.609 3.969 1.92 8.194 3.457 11.395 6.657 1.152 1.153 2.689 1.409 3.073-1.024 1.792 1.409 1.024 3.329 1.152 5.121-17.54-9.09-35.849-11.266-54.926-6.145"/><path fill="#1D4960" d="M322.512 276.485c-9.602-2.049-17.284-7.426-24.326-13.956l-.128-.128c-8.45-7.169-10.242-16.9-4.865-25.606.256-1.536 1.28-2.177 2.561-2.561.384.769.768 1.537 1.152 2.433-4.609 14.852.256 25.222 15.876 33.16 4.097 2.049 8.578 3.457 12.803 5.25-1.152.256-2.433.256-3.073 1.536z"/><path fill="#387D91" d="M368.732 277.765c0-1.664-1.024-2.432-2.689-2.56l4.994-2.689c2.56 3.329-.768 3.841-2.433 5.121z"/><path fill="#4C0E2D" d="M362.075 317.455h-1.921q-8.322.256-7.682 8.707c.64 8.578-3.713 14.723-13.827 19.076-10.883 4.738-22.406 7.042-34.057 7.81-28.807 2.049-57.486.897-85.525-6.401-12.931-3.329-25.991-7.17-34.953-18.181-7.682-9.474-4.481-18.564 7.554-21.253 8.962-1.921 18.18-1.921 27.271-1.408 1.28 1.92-4.353 3.969.128 5.761 19.973 12.931 41.866 20.741 65.168 25.094 4.609 1.281 9.218.897 13.827.384.641-.256 1.153-.384 1.793-.64 2.689-.256 4.993-3.457 7.938-.768.384 1.024.384 1.92 0 2.945-7.426 6.401-16.132 5.377-24.838 4.737-7.81-1.664-15.876-2.561-23.558-4.993-14.852-4.481-29.448-9.987-41.355-20.357-8.194-7.17-17.156-6.914-26.374-4.61-7.042 1.793-7.682 8.451-1.921 14.212 16.26 12.419 35.849 15.236 55.182 18.181 12.803 1.92 25.735 3.328 38.794 2.688 14.852-.64 29.703-1.408 44.171-5.761 4.737-1.409 9.09-3.585 13.315-6.146 3.201-2.048 5.506-4.609 5.762-8.706-.64-7.042-2.049-8.578-8.706-8.962-2.305-.128-4.738.256-6.914-.384-4.993-1.153-8.962-1.537-10.371 5.249-.64 3.457-3.841 3.329-6.529 1.024-1.409-2.56-1.665-5.377-2.433-8.194-.256-2.304 0-4.225 2.945-4.097 4.353.256 8.706-.64 12.931.512 11.907.128 23.814 1.793 35.849.641 1.152 1.92.896 3.2-1.664 3.328z"/><path fill="#1AA2CC" d="M271.3 294.538c-1.793-.768-3.841.256-5.506-1.153 15.236 0 30.472-1.152 45.708.897 6.273.896 12.547-.256 18.821-1.537 0-2.176-3.201-2.432-2.689-4.737 12.547 0 25.094.768 37.129-3.713 5.634 1.152 2.561 3.969 1.281 6.53-17.413 5.633-35.337 4.993-53.134 4.737-2.304 0-4.737.128-7.042.256h-4.609c-7.682-1.152-15.235-.256-22.917-.512-2.305 0-4.738.512-6.914-.512z"/><path fill="#1D7793" d="M366.044 290.569c0-2.305 2.432-4.994-1.281-6.53 6.658-2.305 2.689 3.329 3.969 5.249-.512 1.024-1.408 1.409-2.56 1.281z"/><path fill="#147795" d="M314.831 206.196c.384-3.969 4.353-3.457 6.657-4.994 1.921-1.28 4.097-1.792 6.274-2.688 5.633 0 10.626-3.457 16.388-2.817 3.329.384 2.048-2.177 1.664-3.841 4.481 1.536 4.994 6.53 8.45 9.346-13.827-1.664-26.886 0-39.433 4.994"/><path fill="#05ABDC" d="M336.724 185.454c-2.433 2.689-6.914 3.329-7.042 8.322 0 1.793-2.304 2.561-4.097 1.537-2.561-1.537-1.408-3.457.256-4.609 4.609-3.201 4.481-6.53.512-10.115 4.225 0 7.17 2.689 10.371 4.865"/><path fill="#08597A" d="M312.654 210.165c-2.433 2.176-5.377 2.56-9.474 3.712 3.072-3.712 5.633-5.761 9.346-6.401-.256.896-1.28 1.92.256 2.689z"/><path fill="#0B759D" d="M307.149 279.302c5.633 2.817 12.291 2.048 18.052 4.737-2.176.64-4.993-.896-6.785 1.664-4.865 1.537-8.834-1.408-12.931-2.944-1.281-.512-2.177-2.049-.641-3.585.769 0 1.537.128 2.305.256z"/><path fill="#1AA2CC" d="M304.844 279.174c2.689 6.017 8.962 4.609 13.571 6.529.256.257.256.641.384 1.025-5.249 2.432-9.474-1.537-14.211-2.305-.64 0-4.609-3.713.256-5.121z"/><path fill="#154557" d="M268.867 230.266c12.419 13.187 11.267 26.118-3.457 36.489-1.408 1.024-2.945 1.792-4.097 2.944-19.717 19.973-43.147 21.126-68.369 13.7-.512-2.561 1.408-2.689 3.073-3.073 11.139 1.152 22.149 3.457 33.416.768 4.993-1.152 9.859-2.56 14.468-4.609.128 0 2.304-.512 0-.896h-1.281c-1.92-.256-3.969-.128-4.865-2.433 1.665-3.201 4.865-3.072 7.682-3.713 6.658-1.28 12.547-3.841 18.181-7.554 11.139-7.553 11.779-19.973 1.664-29.063-7.17-6.401-15.876-9.73-25.222-11.651-13.828-2.816-27.527-1.792-40.586 3.713-3.585 1.537-6.914 3.457-9.731 6.018-7.426 6.913-7.938 15.492-1.408 23.302 1.792 2.048 4.225 3.712 4.353 6.785-.256 1.153-.896 1.793-2.049 1.921-10.242-4.225-15.619-17.669-11.138-28.167a31 31 0 0 1 2.688-4.994c18.437-19.845 54.414-21.509 78.74-7.297.896.512 1.793 1.152 2.689 1.536 2.816 1.152 3.969 3.713 5.249 6.146z"/><path fill="#17A6D1" d="M263.874 225.272c-9.474-4.097-18.693-8.834-29.191-9.73-19.077-1.665-36.874.64-51.341 14.98-1.921 1.024-3.329.512-4.225-1.409 6.785-3.585 11.523-10.626 19.589-11.907 1.024-.128 1.792-1.152 1.536-2.432-.256-1.153-1.152-1.921-2.177-2.049-2.432-.256-5.121-.768-7.425.512-1.921 1.152-3.969 3.329-5.25-.64-1.152-3.457 0-5.249 3.841-5.249 2.305 1.408 4.481.384 6.658-.256 14.596-3.329 29.319-4.61 44.043-1.537 8.45 1.793 16.132 5.378 22.021 11.907 1.281 2.433 3.457 4.737 1.793 7.81z"/><path fill="#13A7CE" d="M179.245 229.113c1.408.513 2.817.897 4.225 1.409-6.914 14.083-4.737 23.302 7.298 31.88 5.249 1.28 9.346 4.865 14.339 6.657 7.426 2.689 15.108 4.481 22.918 4.225 5.377-.256 10.371 2.305 15.748.897h7.938c-18.309 10.882-35.977 11.779-54.414 7.297-7.297-.384-13.315-3.072-18.052-8.834 0-1.536 1.152-3.969 2.176-3.201 4.097 3.201 10.243 2.689 13.444 6.274 2.304 2.689 3.457 3.713 6.401 1.921 1.665-1.025 3.073-.769 4.61.384 1.28 1.024 2.816 1.536 3.584-.512.641-1.665-.64-3.201-2.048-3.329-8.706-.769-14.468-8.322-23.174-9.731-5.249-.896-4.865-7.298-5.889-11.139-1.665-6.273-1.281-13.059-1.793-19.588-.128-2.049.512-3.713 2.561-4.738z"/><path fill="#28254D" d="M150.053 174.06c-4.737-10.755-4.865-21.51.384-32.008 6.53-12.932 22.79-16.26 35.849-7.81 1.921 1.28 3.713 2.688 5.633 4.097 2.561 2.816 5.25 5.505 7.426 8.578 2.817 3.841 2.049 7.042-2.56 9.09-9.091 3.969-18.181 7.938-27.143 12.035-6.018 2.689-11.139 6.786-15.876 11.395-3.585-.128-1.793-3.969-3.713-5.377"/><path fill="#07415B" d="M261.185 218.871c-15.492-14.468-34.184-14.468-53.517-12.163-4.353.512-8.706 1.28-13.187 1.92-1.153.256-1.537-.384-1.281-1.408.769-2.305 2.945-3.073 4.994-3.585 17.028-4.097 34.056-6.53 50.828 1.152 3.585 1.665 6.274 4.097 9.347 6.402 1.664 1.792 3.456 3.457 5.121 5.249.512.64.768 1.409.256 2.177-.768.896-1.664.896-2.561 0z"/><path fill="#127898" d="M258.497 211.317c-8.323-6.018-18.053-8.194-27.783-9.474-11.907-1.537-23.558.896-34.825 4.609-.896.256-2.177.768-1.152 2.176-4.097 2.177-4.994 1.921-5.25-1.28.512-.384.897-.768 1.409-1.152 5.249-5.506 12.419-5.378 19.204-6.402 10.115-1.536 20.23-2.945 30.088.128 6.914 2.177 14.084 4.609 18.309 11.395"/><path fill="#0B6B8C" d="M153.638 198.386c13.828 1.024 25.479-5.378 37.386-11.139 2.432-1.152 4.737-2.689 7.681-2.177-10.37 7.042-21.125 13.188-33.672 15.876-2.048-.896-4.097-.256-6.146 0-2.048 0-4.609.897-5.249-2.432z"/><path fill="#0B4F6B" d="M153.639 198.385c3.2 3.329 8.066-.64 11.394 2.433-.384 0-.64.256-1.024.256-1.408.256-2.944.512-4.353.768-8.45 1.537-14.339-4.993-12.931-13.443.768-4.865 5.249-8.834 3.457-14.34 2.56.897 1.664 4.097 3.713 5.378-1.153 2.176-2.561 4.353-3.585 6.529-2.049 4.866-2.049 9.347 3.329 12.419"/><path fill="#17A6D1" d="M209.972 199.794c-6.401 2.176-12.803 4.225-19.204 6.401 2.688-10.37 3.713-10.882 13.699-7.425 1.792.64 3.713.64 5.505 1.024"/><path fill="#18A6C5" d="M293.065 236.795c-2.945 9.475-1.28 17.925 4.865 25.607-6.913-.897-9.73-4.737-8.834-11.779.512-3.713 0-7.554 0-11.395 1.28-.896 2.561-1.665 3.841-2.561z"/><path fill="#0C5375" d="M179.245 272.644c5.633 3.713 11.651 6.53 18.053 8.834-1.665.256-3.457 0-4.225 1.921-5.122-1.537-9.219-4.609-13.316-7.81-1.152-.896-1.92-1.665-.384-2.817z"/><path fill="#154557" d="M230.586 291.721h-44.043c7.682-2.433 15.492-1.281 23.302-1.281 6.914 0 13.955-.512 20.741 1.409z"/><path fill="#0A5177" d="M261.185 218.871c1.536 0 2.305-.769 2.433-2.177 4.225 3.585 4.609 8.706 5.249 13.699-1.664-1.664-3.329-3.328-4.993-4.865l-2.689-6.529z"/><path fill="#701442" d="M327.89 313.486c-3.713 0-7.554.385-11.267 0-3.713-.384-3.585 1.537-3.073 3.969-14.211-1.28-28.295-2.816-42.506-3.712-17.797-1.153-35.593-3.073-53.518-1.409-7.426-3.713.768-4.353 1.281-6.401 18.948-.769 37.641 1.536 56.462 2.816 15.62 1.025 31.239 2.433 46.859 3.713 1.793.128 3.841-.384 5.506 1.152z"/><path fill="#32234A" d="M271.3 294.538c9.986-.128 19.973-.256 29.831 1.024-9.986-.256-19.973 1.408-29.831-1.024"/><path fill="#060606" d="M335.316 228.857c15.492 0 24.966 6.146 26.118 14.98 1.153 8.578-6.145 17.028-17.796 20.357-8.45 2.433-16.9 2.433-24.71-2.433-9.091-5.633-10.627-15.363-3.457-23.301 6.017-6.786 13.955-9.475 19.845-9.603"/><path fill="#7E1A51" d="M282.951 341.781c8.45.897 16.772.769 24.326-3.841 2.817-3.072 6.146-5.761 8.834-9.09 3.201-3.969 7.682-6.145 13.572-4.993 6.145 1.28 12.675.768 18.436 3.841 2.433 6.402-2.56 8.706-6.401 11.267-10.243 6.657-22.022 8.706-33.673 10.114-23.302 2.817-46.475 1.793-69.649-2.176-11.907-2.049-23.686-4.225-34.953-8.963-5.505-2.304-9.986-6.145-15.108-9.09-2.816-6.145-2.304-8.066 3.841-9.602 6.658-1.793 13.7-2.433 20.101.128 12.675 5.249 25.095 11.011 37.898 16.004 10.37 4.097 21.509 6.145 32.776 6.273z"/><path fill="#DF3A92" d="M217.654 312.334c.384-3.585 3.201-2.817 5.249-2.817 21.254 0 42.379 1.793 63.504 3.329 6.274.512 12.675 1.281 18.949 1.665 3.073.256 5.761 1.024 8.066 2.944 1.408 2.433 1.024 5.122 1.408 7.682.897 1.409.384 2.305-.896 2.945-6.273-.512-11.907 2.177-17.796 3.713-.384 2.817 5.121 2.176 3.072 5.633v.512c-4.993 1.025-10.114.897-15.235 0-24.198-3.456-46.348-12.035-66.577-25.734z"/><path fill="#600F3C" d="M282.951 341.781c-8.322 1.921-16.26-.384-24.07-2.432-15.492-3.969-29.959-10.499-44.427-17.284-6.786-3.201-13.699-2.305-20.613-1.537-4.993.512-7.682 3.073-5.634 8.45-3.2-2.688-6.017-5.889-4.353-10.242 1.921-4.738 5.25-8.45 11.139-7.554 4.353.64 8.194-1.665 13.059-.384 9.859 2.56 15.236 11.01 23.942 14.979 15.236 7.042 30.344 13.572 47.244 14.724 1.28 0 2.561.128 3.457 1.28z"/><path fill="#5C0F3D" d="M313.55 327.57a24 24 0 0 0 1.409-2.433c3.585 1.281 5.377 0 4.993-3.841-.64-5.249 2.689-5.889 6.274-4.993 4.865 1.28 9.73.896 14.595 1.152 6.146.384 8.194 3.329 7.298 10.243-6.786.256-13.315-1.537-19.973-2.305-5.121-.64-8.834.64-11.267 4.994-2.176 3.84-4.993 6.913-9.602 7.553v-2.432c1.024-3.457 3.713-5.634 6.401-7.81z"/><path fill="#DE609E" d="M313.55 327.57c0 4.225-4.225 5.249-6.401 7.81-3.073-.897-4.481 4.097-7.81 2.048 0-.256 0-.384-.128-.64-1.537-2.689-7.554-1.152-6.402-5.377.64-2.561 5.25-2.049 7.938-2.433 4.225-.64 8.194-5.505 12.803-1.408"/><path fill="#7E1A51" d="M284.103 337.94h15.364c-5.121 1.921-10.243 2.049-15.364 0"/><path fill="#FAFBFB" d="M192.049 261.121c-.385-.512-.769-1.024-1.153-1.408-13.315-13.571-11.779-27.015 5.506-34.953 23.301-10.626 46.475-9.474 67.857 5.378 14.595 10.114 13.571 25.094-1.409 34.568-7.554 4.738-16.004 6.53-24.71 7.938-10.755 3.329-20.997.384-31.112-2.688-5.633-1.665-11.395-3.713-14.979-8.963z"/><path fill="#194F60" d="M192.048 261.121c13.955 9.218 29.575 12.163 46.091 11.523 1.537 1.92 3.713 1.024 5.634 1.536-19.205 3.073-37.257 1.025-53.005-11.651l1.408-1.408z"/><path fill="#DF3691" d="M149.797 158.824c0-13.059 6.658-23.174 16.132-25.35 10.755-2.561 26.119 5.121 31.24 15.363 1.793 3.585-.896 4.097-2.816 4.994-6.53 2.944-13.188 5.761-19.845 8.578-5.89 2.432-11.651 5.377-16.389 9.602-3.456 3.073-4.865 1.665-6.145-1.792-1.408-3.841-2.433-7.682-2.049-11.267z"/><path fill="#EBEAE9" d="M347.223 239.228c2.688 0 5.377.64 5.249 3.585-.128 3.712-3.329 4.737-6.401 4.865-2.433 0-5.25-.896-4.994-3.713.128-3.585 3.201-4.609 6.274-4.865z"/><path fill="#040404" d="M226.873 266.242c-7.81-.256-15.492-2.432-21.382-8.834-6.785-7.426-6.529-16.9.641-23.942 11.01-10.882 32.648-9.986 42.634 1.793 6.658 7.81 5.25 18.564-3.457 25.222-5.249 3.969-11.395 5.761-18.436 5.889z"/><path fill="#EBEAEA" d="M234.171 246.142c-3.457-.257-6.018-1.793-6.018-5.378 0-3.457 2.817-4.609 5.762-4.609 3.201 0 6.145 1.536 6.273 4.993.128 3.713-2.816 4.737-6.017 4.994"/></g><defs><clipPath id="a"><path fill="#fff" d="M0 0h512v512H0z"/></clipPath></defs></svg>