<svg xmlns="http://www.w3.org/2000/svg" width="128" height="128" fill="none"><circle cx="64" cy="64" r="64" fill="#000"/><path fill="#fff" d="m51.073 40.773-7.725-4.49L64.358 24l21.074 12.284-7.725 4.49-13.348-7.733zm39.859 7.732v9.041l7.724-4.49v-9.04l-7.724-4.552-7.725 4.49zm-5.5 3.242L64.359 39.465l-21.01 12.284v24.567l21.01 12.159 21.073-12.16zm5.5 27.748-13.287 7.732v9.041l21.073-12.284V59.48l-7.786 4.552zM56.634 90.469v9.042L64.36 104l7.725-4.49v-9.04l-7.725 4.489zM30 53.057l7.725 4.49v-9.042l7.724-4.49-7.663-4.551-7.724 4.49v9.103zm7.786 10.974-7.724-4.49v24.506L51.134 96.33v-9.042l-13.348-7.794z"/></svg>