<svg xmlns="http://www.w3.org/2000/svg" xmlns:xlink="http://www.w3.org/1999/xlink" xml:space="preserve" enable-background="new 0 0 500 500" viewBox="0 0 500 500">
  <defs>
    <path id="a" fill="#fff" stroke="#aa7d50" stroke-miterlimit="10" stroke-width="2.5" d="M40.1 129.2v242.4L250 492.7l209.9-121.1V129.2L250 8z"/>
  </defs>
  <use xlink:href="#a" stroke-miterlimit="10" stroke-width="2.5"/>
  <defs>
    <filter id="b" width="422.2" height="487.5" x="38.9" y="6.6" filterUnits="userSpaceOnUse">
      <feFlood flood-color="#fff" flood-opacity="1" result="back"/>
      <feBlend in="SourceGraphic" in2="back"/>
    </filter>
  </defs>
  <mask id="c" width="422.2" height="487.5" x="38.9" y="6.6" maskUnits="userSpaceOnUse">
    <g filter="url(#b)">
      <path fill="none" stroke="#fff" stroke-miterlimit="10" stroke-width="2.5" d="M40.1 129.2v242.4L250 492.7l209.9-121.1V129.2L250 8z"/>
    </g>
  </mask>
  <use xlink:href="#a" stroke-miterlimit="10" stroke-width="2.5" mask="url(#c)"/>
  <path d="M169.8 351.7V363l5-2.8 4.8-2.8 5.3 2.9 5.3 3 3.4 2.1v16.1l-1.7 1-1.8 1-5.2 3-5.2 3.1-7-4-7-4v-32.1c1.5.6 2.9 1.4 4.1 2.2zm9.9 10.3-5 2.8-5 2.9V379l5 2.8 4.8 2.8 5-2.8 5-2.9v-11.3l-4.9-2.8-4.9-2.8zm31.6-4.3 5.2 3 5.2 3.1 1.8 1 1.7 1.1-2 1.1-2 1.2-5-2.8-4.8-2.8-4.9 2.8-5 2.8.7.5.7.4 5.2 3 5.2 3 4.5 2.5 4.5 2.6 1.4.9 1.4.9-6.9 4-6.9 4-7-4-7-4c.6-.5 1.3-.9 2-1.2l2.1-1.2 4.8 2.8 5 2.8 2.8-1.7 2.8-1.7-1.2-.7-1.2-.7-8.6-4.9-8.6-5v-4.7l7-4.1 7.1-4zm20.7-6V363l.7-.3.6-.4 4.3-2.5 4.2-2.5 7 4 7 4v24.5l-.3-.1-.2-.1-1.9-1-1.8-1.1v-19.7c-.1-.2-.2-.3-.5-.4l-.7-.4-4.3-2.5-4.3-2.5-5 2.8-5 2.8v19.8l-2 1.2-2.1 1.2v-40.6l4.3 2.5zm41 5.5 7 4 7 4v16l-.3-.1-.3-.2-1.8-1-1.9-1v-11.3l-.2-.2-.3-.2-.4-.2-.3-.1-4.3-2.5-4.3-2.5-4.8 2.8-5 2.9V379l4.5 2.7 4.7 2.7.3.2.3.1.3-.1.4-.2 2.5-1.5 2.4-1.4 2.1 1.2 2 1.2-4.8 2.8-4.8 2.8-7-4-6.9-4v-16.1l6.9-4 7-4.2zm14 24.2v4.8l-4.2-2.3a90 90 0 0 1-4.1-2.5l2.1-1.1 2.1-1.1 2.1 1.1 2 1.1zm8.1-21.8v3.8l.7-.3.6-.4 4.3-2.5 4.2-2.5v4.7l-4.8 2.9-5 2.8v19.3l-2 1.2-2.1 1.2v-32.6l2.1 1.2 2 1.2zm39.2 5.6-6.9 4-7 4-2-1.2-2-1.2 4.8-2.8 4.8-2.8-2.8-1.7-2.8-1.5-5 2.8-5 2.9V379l5 2.8 4.8 2.8 4.9-2.8 4.9-2.8 4.1 2.4-6.9 4-7 4-6.9-4-7-4v-16.1l6-3.5 6.1-3.5.9-.6.9-.5c.2-.1.4 0 .6.1l.7.4 6.4 3.7 6.4 3.8z"/>
  <path fill="#a6a8ab" stroke="#929497" stroke-miterlimit="10" stroke-width=".6" d="M164.5 119.6V164c6.8-3.6 13.4-7.3 19.7-11l19-11a1396.6 1396.6 0 0 1 41.8 23.4l13.5 8.1v63.4l-6.8 4-7.1 4-20.4 11.7c-6.8 4-13.7 8-20.4 12.1l-27.6-16a2761 2761 0 0 1-27.6-16v-65.2l.1-31.2c.1-10.4 0-20.4-.1-29.9v-.4l15.9 9.6zm39.1 40.8c-6.6 3.6-13.1 7.3-19.6 11.1l-19.6 11.4v44.5a1194.2 1194.2 0 0 1 38.7 22.4c6.6-3.6 13.1-7.3 19.6-11.1l19.6-11.4v-44.5L223 171.6l-19.4-11.2z"/>
  <path fill="#ff912e" d="m297.3 195.6 20.4 11.7c6.8 4 13.7 8 20.4 12.1 2.3 1.4 4.6 2.7 7 3.9 2.3 1.2 4.5 2.6 6.5 4.2l-8 4.3-7.7 4.6-19.6-11-19.1-11c-6.6 3.6-13.1 7.3-19.4 11-6.3 3.7-12.9 7.4-19.7 11a29 29 0 0 0 2.9 1.9l2.9 1.6c6.8 4.1 13.6 8.1 20.4 11.9 6.8 3.8 13.7 7.8 20.4 11.9l17.6 10c5.8 3.2 11.8 6.7 17.9 10.3l5.6 3.4 5.6 3.4-27.2 15.7-27.2 15.7a1409 1409 0 0 1-27.4-15.7 1409 1409 0 0 0-27.4-15.7c2.5-1.8 5.1-3.4 7.9-4.9 2.8-1.4 5.5-3 8.2-4.6l19.1 11.2 19.6 11.2a176 176 0 0 1 11-6.5c3.7-2 7.4-4.2 11-6.5a50.1 50.1 0 0 0-4.7-2.9 1953 1953 0 0 0-38.6-22.3c-11.3-6.3-22.6-12.9-33.9-19.7l.1-9.4c.1-3.1.1-6.1-.1-9l27.6-16.1 27.9-15.7z"/>
</svg>
