<svg xmlns="http://www.w3.org/2000/svg" id="Layer_1" data-name="Layer 1" viewBox="0 0 1000 1000"><defs><style>.cls-2{fill:#20594c}</style></defs><circle cx="500" cy="500" r="500" style="fill:#30cb92"/><circle cx="500" cy="500" r="452.32"/><path d="M672.48 633.6s5.79 40.8 8.16 58.08 2.74 35.04-26.4 56.16c-31.14 22.57-98.56 24-132.32 24H491.9s93.94-8.16 101.14-51.36-154.8-97.92-154.8-97.92h84.24s-43.92-26.64-84.24-48.24 65.04-54.72 141.84-20.16c6.48-35.28-33.12-42.48-33.12-42.48s-10.08-158.4-10.08-178.56-13.68-32.52-33.6-32.52-31.92 21.72-31.92 21.72H367.68c0-9.36 12.24-48.96 132.32-48.96s123.04 54.48 123.04 54.48h15.84s-1.44-32.64-2.54-48.36c0 0 20.8.36 22.22 9.36s38.92 301.8 41.76 319.8-27.84 24.96-27.84 24.96" class="cls-2"/><path d="M638.88 327.84h-15.84s-2.96-54.48-123.04-54.48-132.32 39.6-132.32 48.96h103.68s12-21.72 31.92-21.72 33.6 12.36 33.6 32.52 10.08 178.56 10.08 178.56 39.6 7.2 33.12 42.48c-76.8-34.56-182.16-1.44-141.84 20.16s84.24 48.24 84.24 48.24h-84.24s162 54.72 154.8 97.92-101.14 51.36-101.14 51.36h-19.41c-33.76 0-93.23-7.67-124.38-30.24-29.14-21.12-38.85-38.4-36.48-55.68s7.11-54.72 7.11-54.72-21.47-.81-30.99-8.82h-.01c-3.17-2.67-5.01-6.13-4.3-10.62 2.84-18 55.79-316.44 57.21-325.44s17.41-6.84 17.41-6.84 2.85-21.72 2.37-32.28c-.47-10.56 34.27-18.24 136.77-18.24s137.25 7.68 136.78 18.24c-.48 10.56 2.36 32.28 2.36 32.28 1.1 15.72 2.54 48.36 2.54 48.36" style="fill:#44f2b3"/><path d="M358.05 279.55c-.23 3.12-9.29 102.68-14.25 157.25-5.04 55.44-21.82 169.06-25.06 194.4 0 0-21.47-.81-30.99-8.82.43.02 13.07.56 18.73-19.26 5.76-20.16 30.48-101.04 39.12-201.12 8.37-96.95 12.16-121.07 12.45-122.45" class="cls-2"/></svg>