<svg xmlns="http://www.w3.org/2000/svg" width="96" height="96" fill="none"><g clip-path="url(#a)"><path fill="#fff" d="M48 96c26.51 0 48-21.49 48-48S74.51 0 48 0 0 21.49 0 48s21.49 48 48 48"/><path fill="url(#b)" d="M85.18 18.059c-3.328.658-6.502 1.587-9.115 2.167-5.961 1.336-11.536 5.904-12.755 14.265-1.084 7.47 1.432 10.684.329 19.374-1.935 15.174-16.49 20.4-23.284 23.574-3.929 1.82-13.47 6-20.826 9.194C27.503 92.516 37.336 96 48 96c26.516 0 48-21.484 48-48 0-11.303-3.91-21.696-10.452-29.883-.116-.02-.232-.039-.367-.058"/><path fill="url(#c)" d="M42.6 40.955c3.697-7.994 2.361-8.013 5.168-15.523 3.542-9.522 14.554-6.813 17.593-6.406 5.013.677 6.33-1.103 16.897-2.807.522-.077 1.026-.155 1.53-.213C75 6.194 62.225 0 48 0 28.897 0 12.406 11.148 4.684 27.31 20.516 31.239 37.606 39.774 42.6 40.955M32.11 8.36c1.393.213 8.167 8.633 9.445 30.252 0 0-8.71-2.09-10.587-6.58-1.549-3.698.464-8.556 1.142-23.672m53.36 9.658c.02.039.059.058.078.097-.116-.02-.251-.02-.368-.039.097-.038.194-.038.29-.058M0 48c0-3.832.445-7.548 1.297-11.11 1.742 1.452 3.6 3.058 5.574 4.897C19.374 53.38 39.716 62.535 47.129 54.02c.02.02.039.02.039.039-1.355 1.78-6.523 7.413-16.394 5.67l-15.6 23.285C5.845 74.264 0 61.819 0 48"/></g><defs><linearGradient id="b" x1="76.826" x2="65.502" y1="30.63" y2="93.016" gradientUnits="userSpaceOnUse"><stop stop-color="#FF496A"/><stop offset="1" stop-color="#E42648"/></linearGradient><linearGradient id="c" x1="23.168" x2="48.206" y1="70.707" y2="0" gradientUnits="userSpaceOnUse"><stop offset=".002" stop-color="#1158F1"/><stop offset="1" stop-color="#119BED"/></linearGradient><clipPath id="a"><path fill="#fff" d="M0 0h96v96H0z"/></clipPath></defs></svg>