<svg xmlns="http://www.w3.org/2000/svg" xml:space="preserve" id="Capa_3" x="0" y="0" version="1.1" viewBox="0 0 800 800"><style>.st2{fill:#fff}</style><path d="M769 400c0 69.5-19.2 134.5-52.7 190-3.7 6.2-7.6 12.2-11.7 18.1a377 377 0 0 1-40.9 49.9c-67 68.5-160.4 111-263.8 111s-196.8-42.5-263.8-111c-15-15.4-28.8-32-40.9-49.9-4.1-5.9-8-12-11.7-18.1C50.2 534.5 31 469.5 31 400 31 196.2 196.2 31 400 31s369 165.2 369 369" style="fill:#2574d9"/><path d="M537.3 599.3C498.3 626.2 451 642 400 642s-98.3-15.8-137.3-42.7H89.4c1.9 3 3.9 6 5.9 8.9 12.1 17.9 25.9 34.5 40.9 49.9 67 68.5 160.4 111 263.8 111s196.8-42.5 263.8-111c15-15.4 28.7-32.1 40.9-49.9 2-2.9 4-5.9 5.9-8.9z" style="fill:#0e64a5"/><path d="m240.7 679.5.3.2c1-2.4 2.6-5.6 3.9-7.9l20.1-35 9.2 5.3-32.5 56.7-10.5-6 5.1-45.5c.5-3.8 1.5-8 1.7-8.9l-.4-.2c-.7 2-2 4.7-3.2 6.7L213 682.3l-9.2-5.3 32.5-56.7 11.5 6.6-5.1 43.2c-.7 4-1.5 7.5-2 9.4M304.7 653.7l12.4 4-1.3 68.2-10.6-3.4.6-17.3-19.7-6.3-9.6 14.4-10.6-3.4zm1.4 42c.3-13 1-23 2.1-31l-.4-.1c-3.9 7.2-9.2 15.7-16.5 26.4zM395.1 670.7l-1 9.5-19-2-5.7 55.5-11.3-1.2 5.7-55.5-19-2 1-9.5zM431.6 724.9l-4.9-47.4-15.1 1.6-.9-8.8 41.6-4.3.9 8.8-15.2 1.6 4.9 47.4 15.2-1.6.9 8.8-41.6 4.3-.9-8.8zM508.2 708.7l.4-.1c-.2-1.4-.7-4.8-1-7.3l-3.6-49.8 11.4-3.7 2.8 67.7-13.5 4.3-37.6-56.5 11.3-3.6 26.4 42.4c1.1 2.3 2.7 5.4 3.4 6.6M568.7 629.2l-24.3 14 9 15.6 23-13.2 4.5 7.9-23 13.2 9.7 17 24.9-14.3 4.6 8.1-34.7 19.9-32.5-56.7 34.2-19.6z" class="st2"/><path id="Layer_1-2_00000004545126176746765520000008592163484484495538_" d="M348.3 545.3c-16.2 5.7-33.5 9.1-51.7 9.1-85.1 0-154.4-69.3-154.4-154.4s69.3-154.4 154.4-154.4c18.2 0 35.5 3.4 51.7 9.1C288.5 276 245.6 332.8 245.6 400s42.9 124 102.7 145.3m155.1-299.7c-18.2 0-35.5 3.4-51.7 9.1C511.5 276 554.4 332.8 554.4 400s-42.9 124-102.7 145.3c16.2 5.7 33.5 9.1 51.7 9.1 85.1 0 154.4-69.3 154.4-154.4s-68.9-154.4-154.4-154.4" style="fill:#f2f2f2"/></svg>