<svg xmlns="http://www.w3.org/2000/svg" viewBox="0 0 2400 2400"><circle cx="1200" cy="1200" r="1200" fill="#FEB800"/><g fill="#823D00"><path d="M940 525.4c-17.7 4.2-31.7 14.2-40.6 28.7-7.3 12.1-9.4 21.6-15.9 72.4-3.1 23.6-6.3 48.2-7.1 54.5s-4.8 37.6-8.9 69.5-8.4 64.7-9.5 73c-1.1 8.2-4.8 36.1-8.1 62-13.3 104.7-22 171.8-23.9 186-1.1 8.2-4.9 37.7-8.5 65.5-3.5 27.8-7.4 57.7-8.5 66.5s-2.2 16.5-2.5 17.2c-.3.8-2.5 1.1-7.2.8-7.3-.4-79.9-1.7-104.8-1.9-13.1-.1-15.9.2-22.5 2.2-24.9 7.9-47.2 28-56.6 51.4-3 7.1-5.4 18.9-5.4 25.6 0 5.8 2.4 15.9 5 21.7 2.7 6 11.8 15.5 17.8 18.8 11.1 6 14.6 6.4 75.2 7.6 58.3 1.2 81.1 1.9 81.7 2.5.4.4-6.2 52.8-13.3 106-1.9 14.2-3.4 26.3-3.4 26.8 0 .6-24.9.7-62.7.2-69.3-.7-69-.7-82.8 5.5-23.1 10.5-40.7 29.8-48.6 53.1-2.9 8.8-3.1 10.1-2.7 21.5.3 12 .4 12.3 4.6 20.8 4.8 9.8 10 15 19.6 19.7 11.2 5.5 15 5.8 88.4 6.6l67.2.7v2.1c0 2-1.2 11.6-8.1 64.6-1.7 12.9-4.7 36.9-6.9 53.2-2.1 16.3-4.1 30.1-4.5 30.8-1 1.7-22.8 16-33.5 22-15.7 8.8-53.2 32.3-75 47-11.3 7.5-25.4 16.8-31.5 20.5-6 3.6-11.4 7-11.8 7.5-1.3 1.2 9.9 4.1 17.8 4.6 8.3.5 67 1.9 166 3.9 39.6.7 81 1.7 92 2s41.4 1 67.5 1.5 57.9 1.2 70.5 1.5c12.7.3 43 1 67.5 1.5 45.9 1 106.6 2.6 136.5 3.5 35.8 1.1 105.6 1.3 119 .4 25.8-1.8 56.1-4.9 66.9-7 12.5-2.3 39.4-9.9 58.1-16.2 101.3-34.5 189.3-93.8 254.1-171.4 16.5-19.7 39.3-52.4 49.4-70.8 28.5-52 45.1-99.9 52.5-151 3.6-25.1 3.9-30.8 3.9-60-.1-40.6-2.9-64.7-11.5-99.5-7.9-32-17.3-56.9-33.9-89.5-10.8-21.3-12.1-23.6-18-33.5-4.9-8.1-21.6-30.2-30.3-40.2-60.9-69.5-158.2-125-261.7-149.4-38.8-9.2-69.5-12.8-107.7-12.9h-28.2l.5-2.5c.2-1.4 3.3-25 6.9-52.5s7.2-54.7 8-60.5 2.8-20.9 4.5-33.5c3-23.7 26.6-202 29.7-224.8 2.1-16 1.2-23.4-4.6-35.2-7.4-15-15.2-22.5-32.6-31.3-17.9-8.9-9.2-8.2-114-9.2-201.6-1.9-267.6-2-273.5-.6m250.8 127.5c21 .1 38.2.6 38.2 1 0 .8-9.6 74-14.5 110.1-2.2 16.1-10.7 80.2-24.5 185.5-4 30.4-5.2 39.1-9.1 68-3 21.9-1.8 35.2 4.4 51.9 2.1 5.8 8.7 14.2 14.1 18.3 6.6 4.8 25.9 11.6 37.9 13.2 4.3.6 21.2 1.1 37.5 1.1 73.8.2 112.3 3.9 155.4 14.9 90.1 23.1 161.6 70.8 205.9 137.1 39.9 59.9 53.4 130.4 39.4 205-3.3 17.5-11.9 44.7-19.8 63-23.2 53.7-57.8 99.8-105.7 141.1-25.5 22-35 27.7-75.5 45.1-38.9 16.8-69.7 26.4-97.3 30.3-41.4 6-53.4 6.8-101.7 6.8-38.6.1-99.5-1-166.5-2.8-9.6-.2-31-.7-47.5-1-61.9-1.1-128.4-2.5-139.5-3-6.3-.3-20.3-.5-31-.6-10.8 0-20.1-.4-20.8-.8-.8-.5-.3-7.5 2.3-27.6 5.5-42.2 8.2-63 13.6-105 2.7-21.5 6.5-50.9 8.4-65.5s5.7-44.1 8.5-65.5c2.7-21.5 5.4-42.4 6-46.5s4.4-33.6 8.5-65.5 8.1-63.2 8.9-69.5c1.7-12.8 4.4-33.7 11-85.5 2.5-19.3 7.9-61.3 12.1-93.5s8.5-65.5 9.6-74 3.3-25.9 4.9-38.5c1.7-12.7 4.4-33.6 6-46.5 1.7-12.9 3.9-30.3 5-38.5 1-8.3 2.8-22.2 4-31 1.1-8.8 5.4-42.1 9.5-74s10-77.4 13-101c3.1-23.7 6-46 6.4-49.7.5-3.7 1.1-7 1.4-7.5.3-.4 32.6-.5 71.9-.2 39.2.4 88.5.7 109.6.8"/><path d="M1054.2 1226.9c-.6.3-1.6 4.5-2.2 9.1-3.2 25.2-5.1 41.6-8.5 74-.8 8-1.9 18.1-2.5 22.5-.5 4.4-1.1 11-1.4 14.7l-.5 6.8h7.2c6.2 0 43.9.9 158.7 3.5 14 .4 38.3 1 54 1.5s41.9.9 58.2.9c16.4.1 32 .6 34.8 1.1 12.8 2.4 20.6 10.8 25.6 27.5 2.7 9.1 2.5 28.4-.5 39.4-4.4 16.8-12.6 30.8-24.6 42.6-8.7 8.5-14.2 11.6-27.1 15.2s-2.3 3.6-251.5.7l-51.6-.6-1.2 12.3c-.6 6.8-1.6 17.1-2.2 22.9-.5 5.8-2.5 22.6-4.4 37.5-3.4 26.6-5.8 53.5-4.8 54.5.2.3 29.1.8 64.1 1.1 35 .4 87.8 1 117.2 1.5 73.1 1.2 137.9 1 151-.5 10.7-1.3 35.3-8.6 48.3-14.5 12.5-5.5 37-21.4 48.6-31.4 39.3-33.8 62.2-74.1 72.7-127.7 2.8-14.3 2.6-52.9-.3-69.2-8.7-47.9-35.9-90.1-75.1-116.7-9.4-6.4-22-12.9-30.2-15.8-14.7-5.1-42.4-7.2-107-8.2-33.2-.6-49.1-.9-99.5-2.1-11-.3-46.5-.9-79-1.5-32.4-.6-60.4-1.2-62.1-1.4s-3.6-.1-4.2.3"/></g></svg>
