<svg version="1.2" baseProfile="tiny-ps" xmlns="http://www.w3.org/2000/svg" viewBox="0 0 43 40" width="43" height="40">
	<title>Ternoa-logo-svg</title>
	<defs>
		<linearGradient id="grd1" gradientUnits="userSpaceOnUse"  x1="21.479" y1="0" x2="21.479" y2="40">
			<stop offset="0" stop-color="#f29fff"  />
			<stop offset="1" stop-color="#878cff"  />
		</linearGradient>
	</defs>
	<style>
		tspan { white-space:pre }
		.shp0 { fill: url(#grd1) } 
	</style>
	<path id="Layer" fill-rule="evenodd" class="shp0" d="M41 14.34C44.4 25.03 38.48 36.6 27.67 40C27.54 40 27.42 40 27.29 40C27.04 40 26.79 40 26.53 39.87L26.41 39.87C25.03 39.37 24.02 37.99 24.02 36.48L24.02 23.77L28.3 23.77C29.55 23.77 30.69 22.64 30.69 21.38C30.69 20.13 29.68 18.99 28.3 18.99L14.71 18.99C13.45 18.99 12.32 20.13 12.32 21.38C12.32 22.64 13.33 23.77 14.71 23.77L19.11 23.77L19.11 36.48C19.11 37.86 18.11 39.25 16.72 39.62L16.6 39.62L16.35 39.75C15.97 39.87 15.59 40 15.21 39.87C6.79 37.11 1 29.31 1 20.38C1 9.18 10.18 0 21.5 0C30.43 0.13 38.23 5.79 41 14.34ZM9.55 21.26C9.55 20 8.55 18.87 7.16 18.87C5.91 18.87 4.77 20 4.77 21.26C4.77 22.52 5.78 23.65 7.16 23.65C8.55 23.65 9.55 22.52 9.55 21.26ZM26.28 9.94C26.28 7.3 24.14 5.16 21.5 5.16C18.86 5.16 16.72 7.3 16.72 9.94C16.72 12.58 18.86 14.72 21.5 14.72C24.14 14.72 26.28 12.58 26.28 9.94ZM38.36 21.38C38.36 20.13 37.23 18.99 35.97 18.99C34.71 18.99 33.58 20.13 33.58 21.38C33.58 22.64 34.58 23.77 35.97 23.77C37.35 23.65 38.36 22.64 38.36 21.38Z" />
</svg>