<svg xmlns="http://www.w3.org/2000/svg" width="43" height="40" baseProfile="tiny-ps" version="1.2"><defs><linearGradient id="a" x1="21.479" x2="21.479" y1="0" y2="40" gradientUnits="userSpaceOnUse"><stop offset="0" stop-color="#f29fff"/><stop offset="1" stop-color="#878cff"/></linearGradient></defs><path fill-rule="evenodd" d="M41 14.34C44.4 25.03 38.48 36.6 27.67 40h-.38c-.25 0-.5 0-.76-.13h-.12c-1.38-.5-2.39-1.88-2.39-3.39V23.77h4.28c1.25 0 2.39-1.13 2.39-2.39 0-1.25-1.01-2.39-2.39-2.39H14.71c-1.26 0-2.39 1.14-2.39 2.39 0 1.26 1.01 2.39 2.39 2.39h4.4v12.71c0 1.38-1 2.77-2.39 3.14h-.12l-.25.13c-.38.12-.76.25-1.14.12C6.79 37.11 1 29.31 1 20.38 1 9.18 10.18 0 21.5 0 30.43.13 38.23 5.79 41 14.34M9.55 21.26c0-1.26-1-2.39-2.39-2.39-1.25 0-2.39 1.13-2.39 2.39s1.01 2.39 2.39 2.39c1.39 0 2.39-1.13 2.39-2.39M26.28 9.94a4.78 4.78 0 1 0-9.56 0 4.78 4.78 0 0 0 9.56 0m12.08 11.44c0-1.25-1.13-2.39-2.39-2.39s-2.39 1.14-2.39 2.39c0 1.26 1 2.39 2.39 2.39 1.38-.12 2.39-1.13 2.39-2.39" style="fill:url(#a)"/></svg>