<svg xmlns="http://www.w3.org/2000/svg" shape-rendering="crispEdges" viewBox="0 -0.5 30 30"><defs><radialGradient id="a" cx=".55" cy=".45" r=".5"><stop offset="0%" stop-color="#e63ad1"/><stop offset="100%" stop-color="#73c6f4"/></radialGradient></defs><path stroke="url(#a)" d="M8 4h14M8 5h14M6 6h18M6 7h18M4 8h22M4 9h22M4 10h22M4 11h22M4 12h22M4 13h22M4 14h22M4 15h22M4 16h22M4 17h22M4 18h22M4 19h22M4 20h22M4 21h22M6 22h18M6 23h18M8 24h14M8 25h14"/><path stroke="#e63ad1" d="M8 0h14M8 1h14M6 2h2m14 0h2M6 3h2m14 0h2M4 4h2m18 0h2M4 5h2m18 0h2M2 6h2m22 0h2M2 7h2m22 0h2M0 8h2m26 0h2M0 9h2m26 0h2M0 10h2m26 0h2M0 11h2m26 0h2M0 12h2m26 0h2M0 13h2m26 0h2M0 14h2m26 0h2M0 15h2m26 0h2M0 16h2m26 0h2M0 17h2m26 0h2M0 18h2m26 0h2M0 19h2m26 0h2M0 20h2m26 0h2M0 21h2m26 0h2M2 22h2m22 0h2M2 23h2m22 0h2M4 24h2m18 0h2M4 25h2m18 0h2M6 26h2m14 0h2M6 27h2m14 0h2M8 28h14M8 29h14"/><path stroke="#a684e2" d="M8 2h14M8 3h14M6 4h2m14 0h2M6 5h2m14 0h2M4 6h2m18 0h2M4 7h2m18 0h2M2 8h2m22 0h2M2 9h2m22 0h2M2 10h2m22 0h2M2 11h2m22 0h2M2 12h2m22 0h2M2 13h2m22 0h2M2 14h2m22 0h2M2 15h2m22 0h2M2 16h2m22 0h2M2 17h2m22 0h2M2 18h2m22 0h2M2 19h2m22 0h2M2 20h2m22 0h2M2 21h2m22 0h2M4 22h2m18 0h2M4 23h2m18 0h2M6 24h2m14 0h2M6 25h2m14 0h2M8 26h14M8 27h14"/><path stroke="#fefeff" d="M15 6h1m2 0h1m-3 1h1m1 0h1m-6 1h1m7 0h1m-9 1h2m5 0h1m-7 1h2m2 0h2m-6 1h6m2 0h2m-10 1h5m-7 1h7m3 0h1m-13 1h10m3 0h1m-9 1h6m-8 1h1m1 0h2m3 0h2m-10 1h1m2 0h2m-6 1h1m3 0h1m-6 1h1m4 0h1m-7 1h1m-2 1h1m-2 1h1"/><path stroke="rgba(255,255,255,0.25098039215686274)" d="M20 8h1m0 1h1m-10 3h1m-1 4h1m-2 1h1m1 0h1m3 0h1m-8 1h1m1 0h1m-4 1h1m1 0h1m-4 1h1m1 0h1m-4 1h1m1 0h1m-2 1h1"/><path stroke="rgba(254,254,254,0.7019607843137254)" d="M19 9h1m-7 1h1m3 0h1m2 0h1m-2 2h1m-9 1h1m7 3h1m-4 2h1"/><path stroke="rgba(255,255,255,0.7490196078431373)" d="M13 12h1m3 4h1"/></svg>