<svg width="96" height="96" fill="none" xmlns="http://www.w3.org/2000/svg"><circle cx="48" cy="48" r="48" fill="#fff"/><path fill-rule="evenodd" clip-rule="evenodd" d="M53.999 18.857a8.484 8.484 0 00-11.998 0l-23.11 23.11a8.484 8.484 0 000 11.998L42 77.075a8.484 8.484 0 0011.998 0l23.11-23.11a8.484 8.484 0 000-11.998L54 18.857zm20.11 26.11L62.495 33.35 47.865 47.979 62.48 62.595l11.63-11.63a4.242 4.242 0 000-5.998zM33.38 62.455L21.89 50.965a4.242 4.242 0 010-5.998L33.366 33.49l14.489 14.488-14.476 14.476z" fill="#000"/></svg>
