<svg xmlns="http://www.w3.org/2000/svg" width="96" height="96" fill="none"><circle cx="48" cy="48" r="48" fill="#fff"/><path fill="#000" fill-rule="evenodd" d="M53.999 18.857a8.484 8.484 0 0 0-11.998 0l-23.11 23.11a8.484 8.484 0 0 0 0 11.998L42 77.075a8.484 8.484 0 0 0 11.998 0l23.11-23.11a8.484 8.484 0 0 0 0-11.998zm20.11 26.11L62.495 33.35l-14.63 14.629L62.48 62.595l11.63-11.63a4.24 4.24 0 0 0 0-5.998zM33.38 62.455l-11.49-11.49a4.24 4.24 0 0 1 0-5.998L33.366 33.49l14.489 14.488z" clip-rule="evenodd"/></svg>