<?xml version="1.0" encoding="UTF-8"?>
<svg version="1.1" xmlns="http://www.w3.org/2000/svg" width="1080" height="1080">
<path d="M0 0 C356.4 0 712.8 0 1080 0 C1080 356.4 1080 712.8 1080 1080 C723.6 1080 367.2 1080 0 1080 C0 723.6 0 367.2 0 0 Z " fill="#1D1735" transform="translate(0,0)"/>
<path d="M0 0 C1.21809319 2.43618637 1.01808336 3.68523028 0.75 6.375 C0.68296875 7.14585937 0.6159375 7.91671875 0.546875 8.7109375 C0 11 0 11 -1.40161133 12.78515625 C-3.25562423 15.35421155 -4.11722109 17.72385392 -5.12109375 20.7265625 C-5.49943359 21.84160156 -5.87777344 22.95664062 -6.26757812 24.10546875 C-6.65365234 25.26691406 -7.03972656 26.42835938 -7.4375 27.625 C-9.83099749 34.75302119 -12.26425656 41.81778855 -15.10913086 48.77929688 C-18.46502218 57.14465382 -21.01917724 65.83320275 -23.33203125 74.53515625 C-25.06062198 80.91375712 -27.35105307 86.88089542 -30 92.9375 C-32.1811035 97.9329306 -34.02114269 102.85315265 -35.45703125 108.109375 C-36 110 -36 110 -37 112 C-37.04022391 114.3329866 -37.04320247 116.66706666 -37 119 C-32.35008875 118.51619421 -29.81059397 117.51097208 -26.25 114.5 C-25.38761719 113.77296875 -24.52523437 113.0459375 -23.63671875 112.296875 C-22.76660156 111.53890625 -21.89648438 110.7809375 -21 110 C-20.18144531 109.30390625 -19.36289062 108.6078125 -18.51953125 107.890625 C-6.96132404 97.82083557 2.93546965 86.44503712 10.875 73.3125 C11.57625 72.219375 12.2775 71.12625 13 70 C13.66 70 14.32 70 15 70 C15.04125 69.195625 15.0825 68.39125 15.125 67.5625 C16.79222947 60.77449429 21.549399 54.332529 27 50 C29.625 49.5 29.625 49.5 32 50 C33.8125 51.25 33.8125 51.25 35 53 C35 54.32 35 55.64 35 57 C35.66 57 36.32 57 37 57 C41.11329491 67.32317218 43.36507594 76.86518384 43 88 C43.66 88 44.32 88 45 88 C45.41328481 111.61127921 45.41328481 111.61127921 43 123 C42.83242188 123.83660156 42.66484375 124.67320312 42.4921875 125.53515625 C40.51912469 134.91503423 37.94677389 143.77182497 33 152 C32.11436033 153.84910827 31.23994708 155.7036225 30.375 157.5625 C25.28406757 167.80721588 15.99962553 183.40240371 5 188 C5 188.66 5 189.32 5 190 C3.07202794 191.51094989 1.15655815 192.89083915 -0.875 194.25 C-1.76203613 194.84953491 -1.76203613 194.84953491 -2.66699219 195.46118164 C-4.43855655 196.65027132 -6.21825132 197.8262438 -8 199 C-8.91523438 199.61230469 -9.83046875 200.22460938 -10.7734375 200.85546875 C-16.13603867 204.28110514 -20.71095977 205.98563867 -27 207 C-26.505 210.465 -26.505 210.465 -26 214 C-25.34 214 -24.68 214 -24 214 C-23.71801758 214.51385254 -23.43603516 215.02770508 -23.14550781 215.55712891 C-21.84976582 217.91461527 -20.54991698 220.26981334 -19.25 222.625 C-18.8065625 223.43324219 -18.363125 224.24148438 -17.90625 225.07421875 C-15.94195458 228.62728252 -13.97733021 232.11660432 -11.671875 235.4609375 C-10 238 -10 238 -10 240 C-9.01 240.33 -8.02 240.66 -7 241 C-6.06755249 242.43197297 -5.13847499 243.86636896 -4.234375 245.31640625 C-1.98156457 248.38906857 1.07342178 250.59626754 4 253 C6.4375 255.25 6.4375 255.25 8 257 C8 257.66 8 258.32 8 259 C11.58422698 260.86379803 15.28474304 262.41765602 19 264 C19.81082031 263.16597656 20.62164062 262.33195312 21.45703125 261.47265625 C28.3093953 254.48493172 35.24347926 247.98921221 43 242 C43.6496875 241.4946875 44.299375 240.989375 44.96875 240.46875 C46.95934048 238.95050302 48.97637373 237.47395616 51 236 C51.99257813 235.26136719 52.98515625 234.52273438 54.0078125 233.76171875 C87.62630595 209 87.62630595 209 100 209 C100 208.34 100 207.68 100 207 C100.60328125 206.86722656 101.2065625 206.73445312 101.828125 206.59765625 C103.02695312 206.33275391 103.02695312 206.33275391 104.25 206.0625 C105.03890625 205.88847656 105.8278125 205.71445312 106.640625 205.53515625 C108.76878703 205.052444 110.88532842 204.53836822 113 204 C113 203.34 113 202.68 113 202 C115.97 201.67 118.94 201.34 122 201 C121.67 190.11 121.34 179.22 121 168 C116.05 166.35 111.1 164.7 106 163 C99.02267821 159.06407489 93.19072471 154.1356084 88 148 C88 147.34 88 146.68 88 146 C87.34 146 86.68 146 86 146 C79.10889233 130.5228844 74.69197313 117.18039762 78 100 C78.66 100 79.32 100 80 100 C80.1546875 98.4840625 80.1546875 98.4840625 80.3125 96.9375 C82.35614014 85.23301559 90.56636036 75.89097895 100 69 C102.58650879 67.43394975 105.21334403 66.16789675 108 65 C108.67160156 64.71253906 109.34320313 64.42507813 110.03515625 64.12890625 C123.37056298 58.75877136 138.81924931 59.68695067 152 65 C164.25936723 71.29707419 175.50125503 80.74816273 180.0625 94.11328125 C180.57857544 96.02623396 181.05947445 97.94929722 181.4921875 99.8828125 C181.79838482 101.97261184 181.79838482 101.97261184 183 103 C184.64823278 120.11449814 183.01178699 134.67113302 172.17578125 148.52734375 C166.91382804 154.50726545 161.20563414 159.54129561 154 163 C153.01 163 152.02 163 151 163 C150.67 173.56 150.34 184.12 150 195 C155.99734657 194.0633542 155.99734657 194.0633542 161.99291992 193.11547852 C176.26194819 190.93169936 190.41600596 190.8729854 204.8125 190.9375 C206.77669156 190.94252683 208.74088438 190.94708763 210.70507812 190.95117188 C215.47008351 190.96207965 220.2350276 190.97927857 225 191 C225 191.66 225 192.32 225 193 C225.93199219 192.98839844 226.86398437 192.97679687 227.82421875 192.96484375 C236.272729 192.90504641 244.57961582 193.20482038 253 194 C253 194.66 253 195.32 253 196 C254.98 196 256.96 196 259 196 C258.98839844 195.36578125 258.97679687 194.7315625 258.96484375 194.078125 C258.86770123 184.03081267 259.44504639 174.02880453 260 164 C259.26523437 163.88785156 258.53046875 163.77570313 257.7734375 163.66015625 C250.47783003 161.92359616 245.11641975 156.47590535 240.5078125 150.83203125 C239.07724334 149.01566808 239.07724334 149.01566808 237.5546875 147.63671875 C229.05872625 138.69247814 226.25366995 125.37348904 226.47705078 113.37573242 C227.0406282 101.96394509 229.51202985 90.89949556 237 82 C237.63292969 81.22011719 238.26585937 80.44023437 238.91796875 79.63671875 C247.96741603 68.94191742 247.96741603 68.94191742 254.140625 67.5 C254.75421875 67.335 255.3678125 67.17 256 67 C256.33 66.34 256.66 65.68 257 65 C268.84172831 59.47562228 285.41471252 59.16608867 297.6875 63.4375 C310.60280633 69.00722586 321.27577234 78.27279754 327.2890625 91.0703125 C328.38454897 94.04377577 328.73731602 96.84779228 329 100 C329.66 100 330.32 100 331 100 C332.03418361 105.15423768 332.21707687 110.14022225 332.25 115.375 C332.2809375 116.59316406 332.2809375 116.59316406 332.3125 117.8359375 C332.34941001 123.59389902 331.2991757 127.71872512 329 133 C328.505 134.19625 328.01 135.3925 327.5 136.625 C326.08823415 139.80147315 324.58444746 142.90655496 323 146 C322.34 146 321.68 146 321 146 C320.773125 146.556875 320.54625 147.11375 320.3125 147.6875 C313.89234085 158.99920897 300.48982703 164.17005766 289 168 C288.34 179.22 287.68 190.44 287 202 C288.98 202.33 290.96 202.66 293 203 C294.66521106 203.57137072 296.31327268 204.19582553 297.9375 204.875 C299.12666016 205.36613281 299.12666016 205.36613281 300.33984375 205.8671875 C301.21769531 206.24101563 302.09554688 206.61484375 303 207 C304.06992187 207.43957031 305.13984375 207.87914062 306.2421875 208.33203125 C310.68828583 210.2415388 314.92363241 212.53127714 319.1875 214.8125 C326.40925568 218.64737074 333.65975893 222.39580977 341 226 C341 226.66 341 227.32 341 228 C341.53625 228.268125 342.0725 228.53625 342.625 228.8125 C345.41666667 230.20833333 348.20833333 231.60416667 351 233 C351 233.66 351 234.32 351 235 C351.99966797 235.30744141 351.99966797 235.30744141 353.01953125 235.62109375 C357.101144 237.50944146 360.24664279 240.19620332 363.6875 243.0625 C364.39503418 243.64523682 365.10256836 244.22797363 365.83154297 244.82836914 C372.60639265 250.43905708 379.29368064 256.132678 385.375 262.5 C387.93640349 264.9394319 388.7260635 265.38700763 392 266 C392.33 265.01 392.66 264.02 393 263 C394.55859375 261.71875 394.55859375 261.71875 396.4375 260.5 C399.13920842 258.74022333 400.1327142 257.8009287 402 255 C402.66 255 403.32 255 404 255 C404.33 254.01 404.66 253.02 405 252 C406.64806241 250.31493446 408.31780826 248.65099561 410 247 C416.83735551 238.79071182 422.57253911 230.1929798 428 221 C428.88751953 219.54787109 428.88751953 219.54787109 429.79296875 218.06640625 C432.79696683 213.22479721 432.79696683 213.22479721 435 208 C434.0925 207.731875 433.185 207.46375 432.25 207.1875 C429 206 429 206 427.125 204.5625 C424.88144058 202.75295655 424.88144058 202.75295655 421.25 201.6875 C416.29809906 199.94086327 410.4226177 196.8452354 408 192 C407.26136719 191.56171875 406.52273438 191.1234375 405.76171875 190.671875 C396.20071532 184.88388424 384.45641791 171.7564416 381.38134766 160.79467773 C381.19258057 159.90631226 381.19258057 159.90631226 381 159 C380.34 159 379.68 159 379 159 C377.78442701 156.10055952 376.57428712 153.19919577 375.375 150.29296875 C374.54532854 148.30599988 373.69671425 146.32658591 372.8125 144.36328125 C370.13619155 138.25303291 369.25298721 132.65356355 369 126 C368.34 126 367.68 126 367 126 C365.24815689 118.68318232 364.61378903 111.70238881 364.625 104.1875 C364.62588623 103.10597656 364.62677246 102.02445312 364.62768555 100.91015625 C364.84977473 85.50596052 367.49611294 69.32041909 374.625 55.5 C375.05039062 54.6646875 375.47578125 53.829375 375.9140625 52.96875 C377 51 377 51 378 50 C380.625 49.4375 380.625 49.4375 384 50 C390.30147279 55.20737092 393.94470315 62.70721931 397.41015625 69.9453125 C401.97064827 78.70773206 408.78414717 86.36838893 415 94 C415.65935547 94.84691406 415.65935547 94.84691406 416.33203125 95.7109375 C419.14164562 99.26289145 422.31179247 102.14301808 425.74609375 105.0625 C429.14334392 107.98283983 432.41492381 111.03992155 435.703125 114.08203125 C439.51352944 117.26384856 442.03089925 118.27606115 447 118 C446.45265798 111.59461903 444.85302806 106.13699308 442.625 100.125 C440.44810291 94.15698128 438.40090523 88.1974116 436.63256836 82.09399414 C435.89859597 79.66432173 434.95314676 77.35109533 434 75 C433.0955943 71.92502063 432.23069153 68.84100202 431.3828125 65.75 C429.76101027 60.06458094 427.66817454 54.73606865 425.33203125 49.30859375 C423.56089349 44.90931609 422.10442991 40.4277908 420.69970703 35.8996582 C419.77888647 33.00263866 419.18337735 31.18337735 417 29 C416.31935004 26.95519026 415.70315925 24.88861732 415.125 22.8125 C414.00124024 18.96383406 412.97759295 15.59138942 410.75 12.25 C408.47773304 8.03007565 408.61737507 4.68715544 409 0 C418.00033987 -5.29059791 430.557839 -1.20351413 440 1 C440.92425781 1.19335938 441.84851563 1.38671875 442.80078125 1.5859375 C456.61492695 4.81412936 469.20075544 12.38916132 481 20 C482.60340216 20.9596119 484.20745157 21.91814421 485.8125 22.875 C486.864375 23.57625 487.91625 24.2775 489 25 C489 25.66 489 26.32 489 27 C489.57878906 27.25136719 490.15757812 27.50273437 490.75390625 27.76171875 C493.28283677 29.15592914 494.9343046 30.73790358 496.9375 32.8125 C497.58589844 33.47894531 498.23429688 34.14539063 498.90234375 34.83203125 C499.59457031 35.54746094 500.28679688 36.26289063 501 37 C501.81597656 37.80308594 502.63195312 38.60617187 503.47265625 39.43359375 C510.15960669 46.22389737 515.75688654 53.47162295 520 62 C520.73863281 63.40572266 520.73863281 63.40572266 521.4921875 64.83984375 C526.65743257 74.82341445 530.44114413 85.05294204 533 96 C533.20753906 96.88042969 533.41507813 97.76085937 533.62890625 98.66796875 C538.44053016 123.60092899 533.83339738 146.73872024 525 170 C524.34 170 523.68 170 523 170 C522.773125 170.66 522.54625 171.32 522.3125 172 C515.27382584 188.08839809 499.62125968 202.49428964 484 210 C483.01 210 482.02 210 481 210 C480.88398437 211.01320313 480.76796875 212.02640625 480.6484375 213.0703125 C480.01159497 216.92973169 478.99319975 220.21817521 477.625 223.875 C475.65335093 229.22416964 473.77465666 234.58262703 472 240 C471.34 240 470.68 240 470 240 C469.7421875 240.8559375 469.484375 241.711875 469.21875 242.59375 C460.08589748 268.11890192 436.77812343 291.74289896 416 308 C415.20722656 308.62519531 414.41445313 309.25039063 413.59765625 309.89453125 C408.2807377 314 408.2807377 314 406 314 C406 319.94 406 325.88 406 332 C408.03800781 331.96519531 410.07601562 331.93039062 412.17578125 331.89453125 C414.18822116 331.87364087 416.20066395 331.85286866 418.21313477 331.83520508 C419.59308926 331.82028058 420.97299772 331.79993339 422.3527832 331.77368164 C433.85758358 331.56055239 443.1398728 333.09617992 453.6875 337.6875 C454.70199219 338.12449219 455.71648438 338.56148437 456.76171875 339.01171875 C457.50035156 339.33785156 458.23898437 339.66398437 459 340 C459 340.66 459 341.32 459 342 C459.73476563 342.26554687 460.46953125 342.53109375 461.2265625 342.8046875 C476.1254728 349.22590799 487.07834233 366.59689027 493 381 C496.28117767 390.22386789 497.3616172 398.86840943 497.4375 408.625 C497.44765137 409.56134277 497.45780273 410.49768555 497.46826172 411.46240234 C497.38198637 418.18580395 495.83913283 422.27096418 492.0625 427.875 C487.98274894 430.70584767 484.97745511 430.81816099 480.08203125 430.625 C473.4774479 429.28566751 468.64556539 424.49674033 465 419 C465 418.34 465 417.68 465 417 C464.34 417 463.68 417 463 417 C460.25609141 411.10825719 457.93624298 405.20477864 456 399 C455.34 399 454.68 399 454 399 C453.06958209 397.62160309 452.14488844 396.23906626 451.24609375 394.83984375 C446.31710459 387.56224533 440.31605298 382.74962804 433 378 C432.35289062 377.52433594 431.70578125 377.04867188 431.0390625 376.55859375 C419.33976618 368.29010373 403.6906875 369.33364945 390 369 C389.69964844 369.6180249 389.39929688 370.2360498 389.08984375 370.87280273 C387.92392295 373.14848999 386.55972218 375.03876047 385 377.0625 C383.24878722 379.34345464 381.59742149 381.60386777 380 384 C381.175625 384.185625 382.35125 384.37125 383.5625 384.5625 C390.82124705 386.13290201 397.37999284 389.73796748 404 393 C404 393.66 404 394.32 404 395 C404.72445312 395.2371875 405.44890625 395.474375 406.1953125 395.71875 C418.69909989 401.43078658 427.32417006 417.49082385 432.08105469 429.79663086 C434.80193378 437.8488051 435.65791847 445.24438476 435.57641602 453.73095703 C435.56240578 455.76366952 435.59694902 457.79188147 435.63476562 459.82421875 C435.61987328 469.92122963 433.75353755 476.2835669 426.75 483.5625 C423.37550214 486.16840291 420.52462989 486.94666273 416.27734375 486.65625 C410.80588866 485.07956997 407.19637683 480.68240491 404 476.1875 C403 474 403 474 403 472 C402.34 472 401.68 472 401 472 C400.67 469.69 400.34 467.38 400 465 C399.34 465 398.68 465 398 465 C397.86013672 464.43192627 397.72027344 463.86385254 397.57617188 463.27856445 C393.52550838 447.17196719 388.78763012 434.29230241 376 423 C375.401875 422.43539063 374.80375 421.87078125 374.1875 421.2890625 C370.41056635 417.83249376 366.86876742 415.77046088 362 414 C361.113125 413.608125 360.22625 413.21625 359.3125 412.8125 C349.81690788 410.4833925 342.84405779 411.90474718 334.30078125 416.4921875 C331.89332957 417.79420537 331.89332957 417.79420537 331 420 C332.2065625 420.309375 332.2065625 420.309375 333.4375 420.625 C345.16328291 425.15074077 351.38337391 433.84424608 356.34765625 445.0390625 C357.32419293 447.67534024 358.18018636 450.31116169 359 453 C359.25007813 453.63043213 359.50015625 454.26086426 359.7578125 454.91040039 C362.18240476 461.27995866 362.38907946 467.04541517 362.25 473.8125 C362.24484375 474.83537109 362.2396875 475.85824219 362.234375 476.91210938 C362.14925487 485.03576163 362.14925487 485.03576163 361 489 C360.34 489 359.68 489 359 489 C358.9175 489.53625 358.835 490.0725 358.75 490.625 C357.02350581 496.0922316 353.59457201 499.73543568 349 503 C346.13391871 504.43304064 344.18699217 504.30644155 341 504 C333.63670161 500.02381887 330.40938784 494.29976815 327 487 C326.195625 485.453125 326.195625 485.453125 325.375 483.875 C323.90234366 480.45688712 323.63625453 477.12335441 323.25 473.4375 C321.26798468 458.27427708 312.17649123 446.54113935 300.54296875 437.1171875 C295.93926934 433.78387603 291.52846357 433.59189216 286 434 C282.10894367 434.68066154 278.27875962 435.58246219 274.4375 436.5 C262.41762331 439.36003497 262.41762331 439.36003497 256 439 C256 439.66 256 440.32 256 441 C249.8635242 441.98052876 243.78658296 442.32750998 237.58398438 442.60546875 C236.82279297 442.64285156 236.06160156 442.68023438 235.27734375 442.71875 C234.59921631 442.74904297 233.92108887 442.77933594 233.22241211 442.81054688 C230.92873691 442.96471774 230.92873691 442.96471774 228.42553711 443.51147461 C223.58141964 444.2023077 218.80063735 444.12240763 213.9140625 444.09765625 C212.85714203 444.0962413 211.80022156 444.09482635 210.71127319 444.09336853 C207.34915284 444.0877894 203.98710009 444.07524069 200.625 444.0625 C198.33984471 444.05748231 196.05468838 444.05291987 193.76953125 444.04882812 C188.1796646 444.03782679 182.58983713 444.02110944 177 444 C177 443.34 177 442.68 177 442 C175.68644531 442.04769531 174.37289063 442.09539062 173.01953125 442.14453125 C166.20751812 442.14093526 159.57068915 441.08422932 152.8605957 440.02856445 C150.7033116 439.68998161 148.54434159 439.36462031 146.38476562 439.04101562 C138.76982703 437.8785618 131.31187753 436.48647992 123.84301758 434.56176758 C119.90422596 433.78347994 116.41864456 433.33455332 112.7265625 435.06640625 C110.45848261 436.68104305 108.21152544 438.30839025 106 440 C104.97326172 440.75990234 104.97326172 440.75990234 103.92578125 441.53515625 C97.90291404 446.35108347 93.91368261 452.41355853 90 459 C89.46375 459.89203125 88.9275 460.7840625 88.375 461.703125 C86.82329538 465.42368948 86.28123584 468.82098659 85.72094727 472.79321289 C84.25517925 483.17975195 82.51790804 490.3478436 75 498 C74.21109375 498.85271484 74.21109375 498.85271484 73.40625 499.72265625 C72.3161312 500.8603093 71.16587261 501.94011581 70 503 C69.67 503.33 69.34 503.66 69 504 C63.36477879 504.58295392 59.99044171 504.2110382 55.53125 500.61328125 C52.84620917 497.78439895 51.40859328 494.5990752 50 491 C49.47792969 489.82179688 48.95585937 488.64359375 48.41796875 487.4296875 C46.52119634 482.30935096 46.50593017 477.3480004 46.5625 471.9375 C46.57385986 470.41829956 46.57385986 470.41829956 46.58544922 468.8684082 C46.94821625 452.21157589 52.21793025 439.55236398 63.54296875 427.33984375 C67.35356746 423.71099061 71.55759267 420.80084972 76 418 C74.71802734 417.36771484 74.71802734 417.36771484 73.41015625 416.72265625 C72.30542969 416.17480469 71.20070313 415.62695312 70.0625 415.0625 C68.96035156 414.51722656 67.85820312 413.97195313 66.72265625 413.41015625 C64 412 64 412 63 411 C52.11792101 410.67446772 41.27762707 415.08906511 33.0625 422.05078125 C26.98649272 427.79306843 22.35550657 433.31029744 19 441 C18.34 441 17.68 441 17 441 C16.82984375 441.71542969 16.6596875 442.43085937 16.484375 443.16796875 C14.60959919 450.87648843 12.40208538 458.44013737 10 466 C9.34 466 8.68 466 8 466 C7.82984375 466.59167969 7.6596875 467.18335938 7.484375 467.79296875 C5.28732238 474.95676265 2.24941137 479.77822513 -4.00390625 484.0546875 C-8.51428527 486.19071827 -13.16835658 485.43800169 -17.875 484.3125 C-20.6247782 482.61410758 -21.65086964 480.9112813 -23 478 C-23 477.01 -23 476.02 -23 475 C-23.66 475 -24.32 475 -25 475 C-29.14752482 457.22729002 -27.94037302 433.61754007 -19.1328125 417.60546875 C-17.22577695 414.59650799 -15.20136138 411.79862997 -13 409 C-12.47921875 408.29875 -11.9584375 407.5975 -11.421875 406.875 C-3.87310341 397.41997295 8.15753892 387.94972162 19.75 384.25 C20.48734375 384.00765625 21.2246875 383.7653125 21.984375 383.515625 C24 383 24 383 27 383 C24.41605281 378.04970116 21.68708755 373.22069524 17 370 C4.11575159 366.18576887 -12.55437819 370.8513538 -24 377 C-34.3750847 383.03896639 -45.08273219 392.5110375 -48.7265625 404.36328125 C-48.81679688 404.90339844 -48.90703125 405.44351562 -49 406 C-49.66 406 -50.32 406 -51 406 C-51.2784375 407.9490625 -51.2784375 407.9490625 -51.5625 409.9375 C-53.60640402 419.02787033 -60.41176908 425.11562148 -68 430 C-71.96582194 431.98291097 -76.68727275 431.54299171 -81 431 C-85.34517711 428.01269074 -87.56597547 424.01740273 -89 419 C-89.42871339 415.09689154 -89.42824664 411.23571271 -89.375 407.3125 C-89.36412354 406.23758301 -89.35324707 405.16266602 -89.34204102 404.05517578 C-88.87223975 380.70693933 -76.88482063 363.310764 -60.75415039 347.40234375 C-46.94463701 334.18242254 -32.15037777 330.62613308 -13.4375 330.875 C-12.14263672 330.88402344 -10.84777344 330.89304687 -9.51367188 330.90234375 C-6.34225229 330.92574906 -3.17122627 330.95853772 0 331 C-0.495 329.515 -0.495 329.515 -1 328 C-1.08106686 326.44578271 -1.10756898 324.88832973 -1.09765625 323.33203125 C-1.09443359 322.43935547 -1.09121094 321.54667969 -1.08789062 320.62695312 C-1.07532227 319.23379883 -1.07532227 319.23379883 -1.0625 317.8125 C-1.05798828 316.87212891 -1.05347656 315.93175781 -1.04882812 314.96289062 C-1.03704626 312.64186288 -1.02059558 310.32096356 -1 308 C-1.88377319 307.82936035 -1.88377319 307.82936035 -2.78540039 307.65527344 C-5.18041299 306.94661796 -6.49868462 306.07499724 -8.43359375 304.515625 C-9.07643311 303.99887207 -9.71927246 303.48211914 -10.3815918 302.94970703 C-11.0600415 302.38880371 -11.73849121 301.82790039 -12.4375 301.25 C-13.14108643 300.67233887 -13.84467285 300.09467773 -14.56958008 299.49951172 C-19.29668639 295.5598122 -23.82273846 291.46225388 -28.1875 287.125 C-28.70304443 286.61485352 -29.21858887 286.10470703 -29.74975586 285.57910156 C-32.80274766 282.46822121 -35.38291318 279.22477764 -37.81762695 275.60888672 C-39.07809152 273.89373877 -40.47695815 272.48329491 -42 271 C-43.25105791 269.49712315 -44.47926898 267.9750183 -45.6875 266.4375 C-46.62142578 265.25994141 -46.62142578 265.25994141 -47.57421875 264.05859375 C-49 262 -49 262 -49 260 C-49.66 260 -50.32 260 -51 260 C-72.8610036 218.89703723 -72.8610036 218.89703723 -72 210 C-72.928125 209.814375 -73.85625 209.62875 -74.8125 209.4375 C-90.20620297 204.89357563 -101.5640631 190.18057247 -111 178 C-111.56203125 177.30390625 -112.1240625 176.6078125 -112.703125 175.890625 C-114.43945359 173.35935079 -114.65765925 171.01259859 -115 168 C-115.66 168 -116.32 168 -117 168 C-119.83133872 160.40293466 -122.49683195 152.98053155 -124 145 C-124.16693359 144.19602783 -124.33386719 143.39205566 -124.50585938 142.5637207 C-125.82364841 135.94721952 -126.35185626 129.61533854 -126.3125 122.875 C-126.30621582 121.38057373 -126.30621582 121.38057373 -126.29980469 119.85595703 C-126.09610817 106.34914416 -123.47499436 93.75373394 -119 81 C-118.6184375 79.90945313 -118.236875 78.81890625 -117.84375 77.6953125 C-111.90850848 61.525584 -102.88564409 47.43846474 -91 35 C-90.43410156 34.35933594 -89.86820313 33.71867187 -89.28515625 33.05859375 C-79.16967654 22.07148541 -65.38858778 13.41253116 -52 7 C-50.99259766 6.51660156 -50.99259766 6.51660156 -49.96484375 6.0234375 C-37.94687172 0.60303098 -11.91336826 -8.08407132 0 0 Z " fill="#F66A4A" transform="translate(334,310)"/>
<path d="M0 0 C8.50826001 7.00173843 13.65479648 15.29804432 16.05859375 26.0390625 C16.36479107 28.12886184 16.36479107 28.12886184 17.56640625 29.15625 C19.21304934 46.2542415 17.60006925 60.87140951 6.72265625 74.69140625 C-2.31291551 85.02011237 -14.5433078 92.81202878 -28.43359375 94.15625 C-43.12591589 94.92220044 -57.65637335 92.64734238 -68.93359375 82.59375 C-70.45203259 81.13351799 -71.95338892 79.65522554 -73.43359375 78.15625 C-74.18640625 77.44597656 -74.93921875 76.73570312 -75.71484375 76.00390625 C-77.43359375 74.15625 -77.43359375 74.15625 -77.43359375 72.15625 C-78.09359375 72.15625 -78.75359375 72.15625 -79.43359375 72.15625 C-86.32470142 56.6791344 -90.74162062 43.33664762 -87.43359375 26.15625 C-86.77359375 26.15625 -86.11359375 26.15625 -85.43359375 26.15625 C-85.27890625 24.6403125 -85.27890625 24.6403125 -85.12109375 23.09375 C-83.07745361 11.38926559 -74.86723339 2.04722895 -65.43359375 -4.84375 C-62.84708496 -6.40980025 -60.22024972 -7.67585325 -57.43359375 -8.84375 C-56.42619141 -9.27494141 -56.42619141 -9.27494141 -55.3984375 -9.71484375 C-35.93017541 -17.55466413 -16.06975073 -12.17483523 0 0 Z " fill="#F9E9CE" transform="translate(499.43359375,383.84375)"/>
<path d="M0 0 C6.59468629 6.77322264 11.20989634 14.51875605 12 24 C12.66 24 13.32 24 14 24 C15.03418361 29.15423768 15.21707687 34.14022225 15.25 39.375 C15.270625 40.18710937 15.29125 40.99921875 15.3125 41.8359375 C15.34941001 47.59389902 14.2991757 51.71872512 12 57 C11.505 58.19625 11.01 59.3925 10.5 60.625 C9.08823415 63.80147315 7.58444746 66.90655496 6 70 C5.34 70 4.68 70 4 70 C3.773125 70.556875 3.54625 71.11375 3.3125 71.6875 C-1.88192152 80.83957601 -12.94549163 87.29484119 -22.7265625 90.421875 C-37.4802766 94.17367859 -51.25286992 92.53734569 -64.69140625 85.61328125 C-69.42544291 82.68955302 -72.9831204 79.12936705 -76.4921875 74.83203125 C-77.92275666 73.01566808 -77.92275666 73.01566808 -79.4453125 71.63671875 C-87.94127375 62.69247814 -90.74633005 49.37348904 -90.52294922 37.37573242 C-89.9593718 25.96394509 -87.48797015 14.89949556 -80 6 C-79.36707031 5.22011719 -78.73414063 4.44023437 -78.08203125 3.63671875 C-69.03258397 -7.05808258 -69.03258397 -7.05808258 -62.859375 -8.5 C-61.93898438 -8.7475 -61.93898438 -8.7475 -61 -9 C-60.67 -9.66 -60.34 -10.32 -60 -11 C-39.29978678 -20.65701911 -16.49102121 -14.1283805 0 0 Z " fill="#FBEACF" transform="translate(651,386)"/>
<path d="M0 0 C2.8125 1.875 2.8125 1.875 5 4 C5 4.66 5 5.32 5 6 C5.66 6 6.32 6 7 6 C7.44627837 11.14354734 6.45528704 13.45678414 3.3125 17.5 C2.20841797 18.92892578 2.20841797 18.92892578 1.08203125 20.38671875 C0.39496094 21.24910156 -0.29210937 22.11148438 -1 23 C-1.44988281 23.60457031 -1.89976562 24.20914063 -2.36328125 24.83203125 C-9.64154887 34.31128701 -22.06535336 40.70041503 -33.79296875 42.40625 C-36.19493146 42.65017287 -38.59027317 42.8541084 -41 43 C-41 43.66 -41 44.32 -41 45 C-45.96214369 45.04980918 -50.92413861 45.08591147 -55.88647461 45.10986328 C-57.57107075 45.11985897 -59.25564981 45.13346004 -60.94018555 45.15087891 C-63.37553141 45.17541276 -65.81064592 45.18654758 -68.24609375 45.1953125 C-68.98709824 45.20563507 -69.72810272 45.21595764 -70.49156189 45.22659302 C-84.58243002 45.22954912 -101.2257734 39.5433259 -111.39160156 29.64501953 C-123.42151135 17.41421734 -123.42151135 17.41421734 -124.3984375 11.6484375 C-124.39070313 10.89820313 -124.38296875 10.14796875 -124.375 9.375 C-124.38273437 8.61960937 -124.39046875 7.86421875 -124.3984375 7.0859375 C-123.89506646 4.45064206 -123.12911429 3.60047316 -121 2 C-117.94250607 1.19803438 -116.05220093 0.72623389 -113 1 C-109.81390116 3.01569518 -107.83290079 4.9874125 -105.4609375 7.87109375 C-96.4729664 18.79722924 -85.67270898 22.93321944 -72 25 C-51.59154057 26.27651912 -32.74029196 25.55694054 -16.75 11.5625 C-13.17678182 8.23896322 -10.04310672 4.8038834 -7 1 C-4.39120333 -0.30439833 -2.90289827 -0.33754631 0 0 Z " fill="#231935" transform="translate(597,581)"/>
<path d="M0 0 C5.51685375 3.15124083 8.28802538 5.44285525 10.3125 11.5625 C12.3711916 19.28824924 11.61534712 24.49948809 8.5625 31.75 C7.9025 31.75 7.2425 31.75 6.5625 31.75 C6.315 32.348125 6.0675 32.94625 5.8125 33.5625 C4.38177475 36.06626919 2.9933418 37.23072388 0.5625 38.75 C-0.0975 38.75 -0.7575 38.75 -1.4375 38.75 C-1.7675 39.74 -2.0975 40.73 -2.4375 41.75 C-4.47886395 41.80451714 -6.52065856 41.84302485 -8.5625 41.875 C-10.26792969 41.90980469 -10.26792969 41.90980469 -12.0078125 41.9453125 C-15.49507767 41.74672109 -18.1928862 41.0024801 -21.4375 39.75 C-21.4375 39.09 -21.4375 38.43 -21.4375 37.75 C-22.015 37.523125 -22.5925 37.29625 -23.1875 37.0625 C-28.09592704 34.1992509 -30.96989235 29.14869958 -32.4375 23.75 C-33.43911914 17.18503978 -32.44738612 12.35090549 -28.9296875 6.7265625 C-21.7659809 -2.76253577 -10.64917937 -5.11979777 0 0 Z " fill="#221B36" transform="translate(622.4375,406.25)"/>
<path d="M0 0 C4.84186625 4.43903562 7.06522947 9.41976894 7.83203125 15.8828125 C6.86731364 23.187103 4.72119964 28.97058991 -0.60546875 34.1953125 C-2.80078125 34.921875 -2.80078125 34.921875 -4.60546875 35.1953125 C-4.60546875 35.8553125 -4.60546875 36.5153125 -4.60546875 37.1953125 C-8.10947947 38.26622042 -11.39001091 38.36169714 -15.04296875 38.3828125 C-16.71166016 38.40408203 -16.71166016 38.40408203 -18.4140625 38.42578125 C-24.55880998 37.98203572 -27.34385269 35.84155501 -31.35546875 31.2578125 C-32.1340625 30.38253906 -32.91265625 29.50726563 -33.71484375 28.60546875 C-37.89777302 23.27309817 -37.02908538 16.66146062 -36.60546875 10.1953125 C-34.88418563 4.72770731 -31.06184971 0.71399663 -26.60546875 -2.8046875 C-17.19562725 -6.96673278 -8.27444798 -5.84775007 0 0 Z " fill="#211A36" transform="translate(480.60546875,408.8046875)"/>
<path d="M0 0 C0.5625 1.9375 0.5625 1.9375 1 4 C-0.88975212 5.88975212 -4.18552759 5.19834621 -6.703125 5.24609375 C-8.08984961 5.27905138 -9.4765682 5.31226268 -10.86328125 5.34570312 C-13.05317764 5.39298999 -15.24305308 5.43737492 -17.43310547 5.47680664 C-19.54421509 5.51671555 -21.65480538 5.56823399 -23.765625 5.62109375 C-25.66489746 5.65867798 -25.66489746 5.65867798 -27.60253906 5.69702148 C-31.05210228 6.00464637 -34.45058515 6.45058515 -37 9 C-38.99958364 9.04080783 -41.00045254 9.04254356 -43 9 C-42 7 -42 7 -39.85546875 6.18359375 C-38.97503906 5.93738281 -38.09460938 5.69117188 -37.1875 5.4375 C-36.31480469 5.18871094 -35.44210937 4.93992187 -34.54296875 4.68359375 C-33.70378906 4.45800781 -32.86460937 4.23242188 -32 4 C-31.42193604 3.82291504 -30.84387207 3.64583008 -30.24829102 3.46337891 C-27.29326636 2.85434027 -24.5011922 2.88863094 -21.484375 2.90234375 C-20.23398437 2.90556641 -18.98359375 2.90878906 -17.6953125 2.91210938 C-15.74238281 2.92467773 -15.74238281 2.92467773 -13.75 2.9375 C-11.77386719 2.94426758 -11.77386719 2.94426758 -9.7578125 2.95117188 C-6.50516259 2.96295684 -3.25260416 2.97940989 0 3 C0 2.01 0 1.02 0 0 Z " fill="#C55D45" transform="translate(334,638)"/>
<path d="M0 0 C0 0.33 0 0.66 0 1 C-6.51731376 1.25066591 -6.51731376 1.25066591 -8.90869141 0.00878906 C-11.4831526 -1.23305937 -13.36030903 -1.25851493 -16.2109375 -1.265625 C-17.20867188 -1.26820313 -18.20640625 -1.27078125 -19.234375 -1.2734375 C-20.27078125 -1.26570313 -21.3071875 -1.25796875 -22.375 -1.25 C-23.91800781 -1.26160156 -23.91800781 -1.26160156 -25.4921875 -1.2734375 C-30.81503813 -1.25971881 -34.96127685 -0.84077192 -40 1 C-42.375 0.625 -42.375 0.625 -44 0 C-29.80718035 -5.33488966 -14.09041078 -5.8923536 0 0 Z " fill="#CBC6BB" transform="translate(635,375)"/>
<path d="M0 0 C0.33 0 0.66 0 1 0 C1.79822348 9.37912587 2.12873737 18.58786748 2 28 C2.66 28 3.32 28 4 28 C4 30.64 4 33.28 4 36 C-0.52130335 31.47869665 -0.11926964 22.9828346 -0.1953125 16.89453125 C-0.18227432 14.86709395 -0.15880829 12.83969733 -0.125 10.8125 C-0.11597656 9.76513672 -0.10695312 8.71777344 -0.09765625 7.63867188 C-0.07440075 5.09219486 -0.04172569 2.54622969 0 0 Z " fill="#C05D46" transform="translate(208,421)"/>
<path d="M0 0 C0.33 0 0.66 0 1 0 C0.67 8.91 0.34 17.82 0 27 C-0.66 27 -1.32 27 -2 27 C-2 19.08 -2 11.16 -2 3 C-1.34 3 -0.68 3 0 3 C0 2.01 0 1.02 0 0 Z " fill="#C46147" transform="translate(247,702)"/>
<path d="M0 0 C2.5583885 0.71066347 3.61646404 1.56158615 5.25 3.625 C4.92 4.285 4.59 4.945 4.25 5.625 C3.59 4.965 2.93 4.305 2.25 3.625 C-1.33995357 3.91986272 -2.94699841 5.54252846 -5.3125 8.125 C-7.58403472 10.59383952 -8.49320043 11.53940014 -11.75 12.625 C-10.20923441 6.97552618 -5.8490367 1.32932652 0 0 Z " fill="#CC6246" transform="translate(363.75,359.375)"/>
<path d="M0 0 C0 3 0 3 -2.40625 5.69921875 C-3.4299968 6.70302243 -4.4616054 7.69885649 -5.5 8.6875 C-6.02464844 9.19861328 -6.54929687 9.70972656 -7.08984375 10.23632812 C-8.38660904 11.49772708 -9.69246117 12.74977212 -11 14 C-11.73046875 12.2578125 -11.73046875 12.2578125 -12 10 C-10.48828125 7.9296875 -10.48828125 7.9296875 -8.3125 5.875 C-7.60738281 5.19179688 -6.90226562 4.50859375 -6.17578125 3.8046875 C-4.17401545 2.14433597 -2.37112087 1.03836896 0 0 Z " fill="#CE6247" transform="translate(405,732)"/>
<path d="M0 0 C0.99 0.33 1.98 0.66 3 1 C2.38125 1.2475 1.7625 1.495 1.125 1.75 C-1.1136241 2.80741327 -1.1136241 2.80741327 -1.92578125 4.8515625 C-4.24464737 9.48929474 -8.32490417 13.18027225 -12.9375 15.4375 C-13.9584375 15.7159375 -13.9584375 15.7159375 -15 16 C-14.04882866 14.8274869 -13.08882991 13.66212985 -12.125 12.5 C-11.59132813 11.8503125 -11.05765625 11.200625 -10.5078125 10.53125 C-9.76144531 9.77328125 -9.76144531 9.77328125 -9 9 C-8.34 9 -7.68 9 -7 9 C-6.67 8.01 -6.34 7.02 -6 6 C-4.37446717 4.29319053 -2.70884005 2.62339805 -1 1 C-0.67 0.67 -0.34 0.34 0 0 Z " fill="#CA6046" transform="translate(745,556)"/>
<path d="M0 0 C5.214829 5.214829 5.59142433 11.99785836 6 19 C3.5244152 16.5244152 3.07771836 14.30051247 2 11 C1.34 10.01 0.68 9.02 0 8 C-0.25760279 5.30547479 -0.08900053 2.71451625 0 0 Z " fill="#572E3B" transform="translate(652,767)"/>
<path d="M0 0 C0 0.66 0 1.32 0 2 C-2.12292296 2.52923572 -4.24842051 3.04815377 -6.375 3.5625 C-7.55835938 3.85253906 -8.74171875 4.14257812 -9.9609375 4.44140625 C-13 5 -13 5 -15 4 C-14.67 3.34 -14.34 2.68 -14 2 C-9.17574056 0.52819204 -5.07522852 -0.25376143 0 0 Z " fill="#2C1A36" transform="translate(397,720)"/>
<path d="M0 0 C1.32 0 2.64 0 4 0 C4 6.93 4 13.86 4 21 C3.67 21 3.34 21 3 21 C2.67 15.06 2.34 9.12 2 3 C0.35 3.33 -1.3 3.66 -3 4 C-1.75 2 -1.75 2 0 0 Z " fill="#EA7352" transform="translate(479,475)"/>
<path d="M0 0 C0.66 0.33 1.32 0.66 2 1 C-4.61059987 6.59204823 -10.59589453 6.57650114 -19 6 C-15.74073398 4.18580614 -12.55938553 3.29472446 -8.9375 2.4375 C-5.90205036 1.71334452 -2.96132351 0.98710784 0 0 Z " fill="#A95344" transform="translate(575,619)"/>
<path d="M0 0 C-8.18181818 5 -8.18181818 5 -11 5 C-11 8.3 -11 11.6 -11 15 C-11.33 15 -11.66 15 -12 15 C-12 11.04 -12 7.08 -12 3 C-2.25 -1.125 -2.25 -1.125 0 0 Z " fill="#563C45" transform="translate(634,475)"/>
<path d="M0 0 C0.33 0 0.66 0 1 0 C1.05845196 3.37492629 1.09374742 6.74972087 1.125 10.125 C1.15013672 11.55199219 1.15013672 11.55199219 1.17578125 13.0078125 C1.21104528 18.08583255 1.03333617 22.24487525 -1 27 C-1.33 27 -1.66 27 -2 27 C-2.07487578 23.10645965 -1.96391597 19.75347874 -1 16 C-0.77609683 13.24682026 -0.58606338 10.50694671 -0.4375 7.75 C-0.39431641 7.00492187 -0.35113281 6.25984375 -0.30664062 5.4921875 C-0.20103275 3.661651 -0.10005799 1.83084824 0 0 Z " fill="#17122B" transform="translate(667,415)"/>
<path d="M0 0 C3.125 0.375 3.125 0.375 6 1 C6 1.66 6 2.32 6 3 C11.94 2.505 11.94 2.505 18 2 C17.67 2.66 17.34 3.32 17 4 C14.95863605 4.05451714 12.91684144 4.09302485 10.875 4.125 C9.16957031 4.15980469 9.16957031 4.15980469 7.4296875 4.1953125 C3.94242233 3.99672109 1.2446138 3.2524801 -2 2 C-1.34 1.34 -0.68 0.68 0 0 Z " fill="#656165" transform="translate(603,444)"/>
<path d="M0 0 C0.66 0.99 1.32 1.98 2 3 C1.34 3 0.68 3 0 3 C0.12375 3.721875 0.2475 4.44375 0.375 5.1875 C-0.06001831 8.45013736 -0.55561151 8.8041996 -3 10.8125 C-3.99 11.534375 -4.98 12.25625 -6 13 C-6.33 12.01 -6.66 11.02 -7 10 C-5.79571754 8.47023579 -4.58186948 6.94483933 -3.28125 5.49609375 C-1.82380591 3.79426117 -0.87150632 2.05992402 0 0 Z " fill="#3D2138" transform="translate(767,783)"/>
<path d="M0 0 C0 0.66 0 1.32 0 2 C-0.99 2.33 -1.98 2.66 -3 3 C-3.61875 3.78375 -4.2375 4.5675 -4.875 5.375 C-7.06878254 8.08496666 -8.86385426 9.51445728 -12 11 C-12.66 10.67 -13.32 10.34 -14 10 C-12.37744772 8.51814875 -10.75188112 7.03959744 -9.125 5.5625 C-8.22007812 4.73878906 -7.31515625 3.91507812 -6.3828125 3.06640625 C-2.84688091 0 -2.84688091 0 0 0 Z " fill="#C6C1B8" transform="translate(588,378)"/>
<path d="M0 0 C10.16236162 0.84132841 10.16236162 0.84132841 14 3 C14.33 3.99 14.66 4.98 15 6 C13.24719267 5.57388649 11.49782565 5.13360733 9.75 4.6875 C8.77546875 4.44386719 7.8009375 4.20023437 6.796875 3.94921875 C4.01024335 3.00347644 2.22695632 1.89291287 0 0 Z " fill="#CECABF" transform="translate(438,471)"/>
<path d="M0 0 C0.33 0 0.66 0 1 0 C1.91010388 5.66286862 2.09058743 10.34877422 1 16 C0.34 16.33 -0.32 16.66 -1 17 C-1.02699725 14.72923158 -1.04639453 12.45837179 -1.0625 10.1875 C-1.07990234 8.29064453 -1.07990234 8.29064453 -1.09765625 6.35546875 C-1 3 -1 3 0 0 Z " fill="#332F3D" transform="translate(518,413)"/>
<path d="M0 0 C0.66 0.33 1.32 0.66 2 1 C1.67 1.66 1.34 2.32 1 3 C1.04125 4.11375 1.0825 5.2275 1.125 6.375 C0.98948198 10.30502264 0.42380591 11.11935109 -2 14 C-2.05389087 12.04196493 -2.09274217 10.08351091 -2.125 8.125 C-2.14820313 7.03445313 -2.17140625 5.94390625 -2.1953125 4.8203125 C-2 2 -2 2 0 0 Z " fill="#2E1B35" transform="translate(743,622)"/>
<path d="M0 0 C5.28 0.33 10.56 0.66 16 1 C16 1.33 16 1.66 16 2 C10.91913204 2.84681133 6.15171623 3.09038099 1 3 C0.67 2.01 0.34 1.02 0 0 Z " fill="#F0795D" transform="translate(455,477)"/>
<path d="M0 0 C0.66 0.33 1.32 0.66 2 1 C0.92807816 2.3218362 -0.15802695 3.63217927 -1.25 4.9375 C-1.85328125 5.66839844 -2.4565625 6.39929688 -3.078125 7.15234375 C-5.10741134 9.10326334 -6.254407 9.61731779 -9 10 C-8.06409496 8.8944811 -7.12620142 7.79064547 -6.1875 6.6875 C-5.66542969 6.07261719 -5.14335937 5.45773437 -4.60546875 4.82421875 C-3.12827531 3.14575321 -1.59960869 1.56117966 0 0 Z " fill="#C66047" transform="translate(251,337)"/>
<path d="M0 0 C1.3353615 2.670723 0.91845895 4.41661653 0.625 7.375 C0.53476562 8.33148437 0.44453125 9.28796875 0.3515625 10.2734375 C0.05243191 12.59336138 -0.37118144 14.75117429 -1 17 C-1.66 17 -2.32 17 -3 17 C-2.69268013 14.35346869 -2.37940678 11.707885 -2.0625 9.0625 C-1.97548828 8.30775391 -1.88847656 7.55300781 -1.79882812 6.77539062 C-1.11328125 1.11328125 -1.11328125 1.11328125 0 0 Z " fill="#532C39" transform="translate(421,774)"/>
<path d="M0 0 C0.66 0 1.32 0 2 0 C3.74685308 3.82745451 4.34886333 7.12442723 4.625 11.3125 C4.69976563 12.38113281 4.77453125 13.44976562 4.8515625 14.55078125 C4.90054688 15.35902344 4.94953125 16.16726563 5 17 C3.03470991 13.54792524 2.2253523 10.11523774 1.375 6.25 C1.11460937 5.07953125 0.85421875 3.9090625 0.5859375 2.703125 C0.39257812 1.81109375 0.19921875 0.9190625 0 0 Z " fill="#BF5D46" transform="translate(778,411)"/>
<path d="M0 0 C6.45892714 -0.40368295 11.06108578 0.4084738 17 3 C17 3.33 17 3.66 17 4 C10.375 4.125 10.375 4.125 7 3 C7 2.34 7 1.68 7 1 C4.69 1 2.38 1 0 1 C0 0.67 0 0.34 0 0 Z " fill="#BEB9B2" transform="translate(618,372)"/>
<path d="M0 0 C-0.56589844 0.20496094 -1.13179688 0.40992188 -1.71484375 0.62109375 C-2.44832031 0.89050781 -3.18179687 1.15992188 -3.9375 1.4375 C-4.66839844 1.70433594 -5.39929688 1.97117187 -6.15234375 2.24609375 C-7.98305678 2.85386948 -7.98305678 2.85386948 -9 4 C-10.99958364 4.04080783 -13.00045254 4.04254356 -15 4 C-14 2 -14 2 -11.85546875 1.11328125 C-10.97503906 0.84902344 -10.09460938 0.58476563 -9.1875 0.3125 C-8.31480469 0.04050781 -7.44210937 -0.23148438 -6.54296875 -0.51171875 C-3.93126166 -1.01319861 -2.48283616 -0.86233704 0 0 Z " fill="#B45844" transform="translate(306,643)"/>
<path d="M0 0 C0.91058531 3.07322544 1.08886184 5.80097361 1 9 C0.01 9.33 -0.98 9.66 -2 10 C-2 10.99 -2 11.98 -2 13 C-2.66 13 -3.32 13 -4 13 C-3.52343588 11.20763933 -3.04366502 9.41613103 -2.5625 7.625 C-2.29566406 6.62726563 -2.02882813 5.62953125 -1.75390625 4.6015625 C-1 2 -1 2 0 0 Z " fill="#3F2339" transform="translate(316,365)"/>
<path d="M0 0 C1.53690745 2.41040161 2.09752136 3.50082285 1.5390625 6.359375 C1.23742187 7.14828125 0.93578125 7.9371875 0.625 8.75 C0.32851563 9.54921875 0.03203125 10.3484375 -0.2734375 11.171875 C-0.51320313 11.77515625 -0.75296875 12.3784375 -1 13 C-1.33 13 -1.66 13 -2 13 C-2.16682272 8.07872966 -2.24828052 4.49656104 0 0 Z " fill="#361F36" transform="translate(310,735)"/>
<path d="M0 0 C1 2 1 2 0.25 4.5625 C-1 7 -1 7 -4 8 C-4.73323796 10.01508358 -4.73323796 10.01508358 -5 12 C-5.66 12 -6.32 12 -7 12 C-5.44298069 7.32894208 -2.91552627 3.91294315 0 0 Z " fill="#BD5B45" transform="translate(760,535)"/>
<path d="M0 0 C1 2 1 2 0.25 4.9375 C-0.89726872 7.74830836 -1.69701628 9.1157406 -4 11 C-4.66 10.67 -5.32 10.34 -6 10 C-4.02 6.7 -2.04 3.4 0 0 Z " fill="#BD5B46" transform="translate(767,523)"/>
<path d="M0 0 C0.66 0 1.32 0 2 0 C0.54347826 5.58333333 0.54347826 5.58333333 -1.875 7.4375 C-4.31555804 8.08353007 -5.64656559 7.84051229 -8 7 C-7.05125 6.401875 -6.1025 5.80375 -5.125 5.1875 C-1.86035803 3.18437474 -1.86035803 3.18437474 0 0 Z " fill="#C8C2B7" transform="translate(629,438)"/>
<path d="M0 0 C0.33 0.66 0.66 1.32 1 2 C0.71125 2.804375 0.4225 3.60875 0.125 4.4375 C-1.39231664 9.24233603 -1.66139275 13.99217705 -2 19 C-2.33 19 -2.66 19 -3 19 C-3.55353075 5.18223235 -3.55353075 5.18223235 0 0 Z " fill="#5F595F" transform="translate(447,413)"/>
<path d="M0 0 C-0.639375 0.20625 -1.27875 0.4125 -1.9375 0.625 C-4.34925077 1.89538209 -4.34925077 1.89538209 -4.75 5.125 C-4.8325 6.07375 -4.915 7.0225 -5 8 C-5.66 8 -6.32 8 -7 8 C-7.33 5.69 -7.66 3.38 -8 1 C-2.25 -1.125 -2.25 -1.125 0 0 Z " fill="#5B2F3A" transform="translate(315,516)"/>
<path d="M0 0 C1.18446753 2.36893505 1.00689755 3.4066826 0.6875 6 C0.60886719 6.70125 0.53023437 7.4025 0.44921875 8.125 C0 10 0 10 -2 12 C-2.66 12.99 -3.32 13.98 -4 15 C-3.43179252 9.54520815 -2.05362055 5.08940744 0 0 Z " fill="#CAC4B9" transform="translate(566,400)"/>
<path d="M0 0 C1.24620265 3.60014098 0.99118023 6.34025761 0 10 C-1.28965176 11.37562854 -2.61911872 12.71597412 -4 14 C-3.52188823 12.22888156 -3.0424722 10.45811517 -2.5625 8.6875 C-2.29566406 7.70136719 -2.02882813 6.71523438 -1.75390625 5.69921875 C-1.21920575 3.78482474 -0.62855462 1.88566385 0 0 Z " fill="#3D2338" transform="translate(813,527)"/>
<path d="M0 0 C0.66 0.33 1.32 0.66 2 1 C-0.89217759 5.69978858 -0.89217759 5.69978858 -4.046875 6.5546875 C-6.02330745 6.78597215 -8.01256369 6.90062818 -10 7 C-8.72070154 4.44140308 -7.55728932 4.13851266 -5 2.9375 C-2.30092276 1.75531476 -2.30092276 1.75531476 0 0 Z " fill="#562D3B" transform="translate(576,596)"/>
<path d="M0 0 C0 3.90838866 -1.50567876 5.11594107 -4 8 C-5.65 7.67 -7.3 7.34 -9 7 C-8.443125 6.773125 -7.88625 6.54625 -7.3125 6.3125 C-4.36753316 4.64103234 -2.31843456 2.44723648 0 0 Z " fill="#C25D46" transform="translate(359,568)"/>
<path d="M0 0 C4.95 0 9.9 0 15 0 C15 0.33 15 0.66 15 1 C14.26394531 1.06058594 13.52789063 1.12117188 12.76953125 1.18359375 C11.79371094 1.26738281 10.81789063 1.35117187 9.8125 1.4375 C8.84957031 1.51871094 7.88664063 1.59992188 6.89453125 1.68359375 C4.21350398 1.97666151 1.6337014 2.42703754 -1 3 C-0.67 2.01 -0.34 1.02 0 0 Z " fill="#D2CBBF" transform="translate(602,403)"/>
<path d="M0 0 C0.66 0 1.32 0 2 0 C4.13586678 3.20380017 4.23132175 4.01939967 4.125 7.6875 C4.10695313 8.49574219 4.08890625 9.30398438 4.0703125 10.13671875 C4.03550781 11.05904297 4.03550781 11.05904297 4 12 C1.90029019 8.0828943 1.00665438 4.31423304 0 0 Z " fill="#3C3845" transform="translate(660,398)"/>
<path d="M0 0 C0.33 1.32 0.66 2.64 1 4 C-0.1875 5.8125 -0.1875 5.8125 -2 7 C-3.32 6.67 -4.64 6.34 -6 6 C-4.02 4.02 -2.04 2.04 0 0 Z " fill="#392237" transform="translate(366,732)"/>
<path d="M0 0 C-0.66 1.65 -1.32 3.3 -2 5 C-4.31 5 -6.62 5 -9 5 C-2.87096774 0 -2.87096774 0 0 0 Z " fill="#532C39" transform="translate(677,722)"/>
<path d="M0 0 C0.433125 0.556875 0.86625 1.11375 1.3125 1.6875 C3.41239652 2.86324711 3.41239652 2.86324711 5.3125 3.6875 C4.3225 4.1825 4.3225 4.1825 3.3125 4.6875 C1.3125 3.6875 -0.6875 2.6875 -2.6875 1.6875 C-5.9241963 0.97991674 -5.9241963 0.97991674 -8.6875 0.6875 C-8.6875 0.3575 -8.6875 0.0275 -8.6875 -0.3125 C-2.14707447 -1.66994681 -2.14707447 -1.66994681 0 0 Z " fill="#67353D" transform="translate(781.6875,643.3125)"/>
<path d="M0 0 C0.33 1.32 0.66 2.64 1 4 C-1.25 6.75 -1.25 6.75 -4 9 C-4.99 9 -5.98 9 -7 9 C-4.69 6.03 -2.38 3.06 0 0 Z " fill="#C05E45" transform="translate(599,599)"/>
<path d="M0 0 C0.66 0.33 1.32 0.66 2 1 C0.9375 2.9375 0.9375 2.9375 -1 5 C-4.6875 5.75 -4.6875 5.75 -8 6 C-5.63404067 3.38499232 -3.13950774 1.61000397 0 0 Z " fill="#B45844" transform="translate(419,524)"/>
<path d="M0 0 C0.66 0.99 1.32 1.98 2 3 C1.34 3 0.68 3 0 3 C0 5.31 0 7.62 0 10 C-0.99 10.33 -1.98 10.66 -3 11 C-2.69078116 9.54096742 -2.37751201 8.08279278 -2.0625 6.625 C-1.88847656 5.81289063 -1.71445312 5.00078125 -1.53515625 4.1640625 C-1 2 -1 2 0 0 Z " fill="#321E37" transform="translate(329,329)"/>
<path d="M0 0 C0.75 1.625 0.75 1.625 1 4 C-0.8125 7.25 -0.8125 7.25 -3 10 C-3.66 10 -4.32 10 -5 10 C-4.67 8.68 -4.34 7.36 -4 6 C-3.34 6 -2.68 6 -2 6 C-1.855625 5.195625 -1.71125 4.39125 -1.5625 3.5625 C-1 1 -1 1 0 0 Z " fill="#412439" transform="translate(355,745)"/>
<path d="M0 0 C0.33 0.66 0.66 1.32 1 2 C3.11846285 2.68729254 3.11846285 2.68729254 5.5625 3.125 C6.80193359 3.37636719 6.80193359 3.37636719 8.06640625 3.6328125 C8.70449219 3.75398437 9.34257813 3.87515625 10 4 C10 4.33 10 4.66 10 5 C7.03 5 4.06 5 1 5 C0.67 3.35 0.34 1.7 0 0 Z " fill="#BF5B46" transform="translate(713,692)"/>
<path d="M0 0 C-0.33 0.66 -0.66 1.32 -1 2 C-5.95 1.67 -10.9 1.34 -16 1 C-16 0.67 -16 0.34 -16 0 C-13.89651926 -0.19504458 -11.79217415 -0.38078496 -9.6875 -0.5625 C-8.51574219 -0.66691406 -7.34398437 -0.77132813 -6.13671875 -0.87890625 C-3 -1 -3 -1 0 0 Z " fill="#F27C5E" transform="translate(623,478)"/>
<path d="M0 0 C0.99 0.33 1.98 0.66 3 1 C1.02 3.31 -0.96 5.62 -3 8 C-3.33 6.68 -3.66 5.36 -4 4 C-2.0625 1.75 -2.0625 1.75 0 0 Z " fill="#2C2838" transform="translate(576,383)"/>
<path d="M0 0 C0.99 0.33 1.98 0.66 3 1 C1.29374499 3.78388975 0.52373261 4.85384206 -2.6875 5.75 C-3.8321875 5.87375 -3.8321875 5.87375 -5 6 C-3.35 4.02 -1.7 2.04 0 0 Z " fill="#C6C0B6" transform="translate(429,383)"/>
<path d="M0 0 C1 2 1 2 0.9375 3.875 C-0.48885027 7.10806062 -3.03834436 8.23560941 -6 10 C-4.34832443 6.4213696 -2.21713508 3.25179812 0 0 Z " fill="#4E2A3A" transform="translate(432,756)"/>
<path d="M0 0 C0.66 0 1.32 0 2 0 C1.39009109 3.55780196 0.4216319 6.6828589 -1 10 C-1.33 10 -1.66 10 -2 10 C-1.125 2.25 -1.125 2.25 0 0 Z " fill="#D26649" transform="translate(810,531)"/>
<path d="M0 0 C1 2 1 2 0.3125 4.5625 C-1 7 -1 7 -3.125 7.8125 C-3.74375 7.874375 -4.3625 7.93625 -5 8 C-1.125 1.125 -1.125 1.125 0 0 Z " fill="#49454F" transform="translate(511,450)"/>
<path d="M0 0 C2.97903734 2.97903734 4 5.80285329 4 10 C2 8.9375 2 8.9375 0 7 C-0.25 3.3125 -0.25 3.3125 0 0 Z " fill="#4D4853" transform="translate(564,444)"/>
<path d="M0 0 C1.88391785 3.26545761 2.49287967 6.28111761 3 10 C2.01 10 1.02 10 0 10 C-0.95024979 6.30458414 -0.95024979 3.69541586 0 0 Z " fill="#363141" transform="translate(561,434)"/>
<path d="M0 0 C0.99 0.33 1.98 0.66 3 1 C-0.465 3.97 -0.465 3.97 -4 7 C-4 4 -4 4 -2 1.8125 C-1.34 1.214375 -0.68 0.61625 0 0 Z " fill="#2F1B37" transform="translate(320,411)"/>
<path d="M0 0 C0.33 0.66 0.66 1.32 1 2 C0.0625 4.125 0.0625 4.125 -1 6 C-1.66 6 -2.32 6 -3 6 C-3 6.99 -3 7.98 -3 9 C-3.66 9 -4.32 9 -5 9 C-3.90931332 5.22454612 -3.0916909 2.52956528 0 0 Z " fill="#C8C3B8" transform="translate(572,391)"/>
<path d="M0 0 C2.4375 0.8125 2.4375 0.8125 5 2 C5.33 2.99 5.66 3.98 6 5 C4.02 4.34 2.04 3.68 0 3 C0 2.01 0 1.02 0 0 Z " fill="#3D2239" transform="translate(489,611)"/>
<path d="M0 0 C2.25 0.25 2.25 0.25 4 1 C2.8125 2.5 2.8125 2.5 1 4 C-1.6875 4.1875 -1.6875 4.1875 -4 4 C-2.25 1.9375 -2.25 1.9375 0 0 Z " fill="#362038" transform="translate(826,514)"/>
<path d="M0 0 C0 0.99 0 1.98 0 3 C-3.83887763 4.48320272 -6.06204091 5.22419163 -10 4 C-8.71086513 3.32845067 -7.41859796 2.66291141 -6.125 2 C-5.40570313 1.62875 -4.68640625 1.2575 -3.9453125 0.875 C-2 0 -2 0 0 0 Z " fill="#55505B" transform="translate(495,469)"/>
<path d="M0 0 C1.04005702 3.38018531 1.08004482 6.4780279 1 10 C0.01 10.33 -0.98 10.66 -2 11 C-1.85892253 9.54119891 -1.71197585 8.08296449 -1.5625 6.625 C-1.48128906 5.81289063 -1.40007813 5.00078125 -1.31640625 4.1640625 C-1 2 -1 2 0 0 Z " fill="#4F2939" transform="translate(866,456)"/>
<path d="M0 0 C0 3 0 3 -2.5 5.6875 C-3.325 6.450625 -4.15 7.21375 -5 8 C-5.66 7.67 -6.32 7.34 -7 7 C-4.69 4.69 -2.38 2.38 0 0 Z " fill="#4F2B3D" transform="translate(585,588)"/>
<path d="M0 0 C6.64615385 1.47692308 6.64615385 1.47692308 8.4375 4.125 C8.7159375 5.053125 8.7159375 5.053125 9 6 C5.06326356 4.68775452 2.77280706 3.08089673 0 0 Z " fill="#C0BCB2" transform="translate(580,466)"/>
<path d="M0 0 C1.24675325 4.98701299 1.24675325 4.98701299 0 8 C-0.99 8.33 -1.98 8.66 -3 9 C-2.01 6.03 -1.02 3.06 0 0 Z " fill="#582F3A" transform="translate(368,458)"/>
<path d="M0 0 C1 2 1 2 0.3125 4.5625 C-0.120625 5.366875 -0.55375 6.17125 -1 7 C-2.32 7.33 -3.64 7.66 -5 8 C-3.35 5.36 -1.7 2.72 0 0 Z " fill="#C3BEB3" transform="translate(485,435)"/>
<path d="M0 0 C1.4540625 0.0309375 1.4540625 0.0309375 2.9375 0.0625 C2.9375 0.3925 2.9375 0.7225 2.9375 1.0625 C2.15375 1.124375 1.37 1.18625 0.5625 1.25 C-0.30375 1.518125 -1.17 1.78625 -2.0625 2.0625 C-3.43716625 4.53886012 -3.43716625 4.53886012 -4.0625 7.0625 C-4.7225 6.7325 -5.3825 6.4025 -6.0625 6.0625 C-3.76028481 0.07674051 -3.76028481 0.07674051 0 0 Z " fill="#AE5743" transform="translate(715.0625,359.9375)"/>
<path d="M0 0 C2.01822917 0.06510417 4.03645833 0.13020833 6.0546875 0.1953125 C4.4296875 1.7578125 4.4296875 1.7578125 2.0546875 3.1953125 C-1.1953125 2.8828125 -1.1953125 2.8828125 -3.9453125 2.1953125 C-1.9453125 0.1953125 -1.9453125 0.1953125 0 0 Z " fill="#AF5745" transform="translate(301.9453125,309.8046875)"/>
</svg>
