<svg xmlns="http://www.w3.org/2000/svg" width="600" height="600" fill="none"><circle cx="300" cy="300" r="300" fill="#fff"/><path fill="#03316C" fill-rule="evenodd" d="M115 191.731 300 85l185 106.731v213.461L300 511.923 115 405.192zm111.964-14.453h145.701l17.425 74.118H209.91zm37.073 173.437 4.82-46.324-15.942-41.506h94.168l-15.571 41.506 4.449 46.324h-71.924m108.999 77.825h-26.323L315.2 399.634V384.81l32.625-31.13v-49.289l42.636-27.794 48.567 36.688zm-119.008.37 31.513-29.277V384.81l-32.625-31.13v-49.289l-43.006-27.424-48.938 36.318 66.362 115.625z" clip-rule="evenodd"/></svg>