<svg xmlns="http://www.w3.org/2000/svg" width="512" height="512"><defs><linearGradient id="a" x1="82.81%" x2="12.431%" y1="42.654%" y2="56.593%"><stop offset="0%" stop-color="#50D546"/><stop offset="51.249%" stop-color="#FFEB17"/><stop offset="100%" stop-color="#FF8200"/></linearGradient><linearGradient id="b" x1="16.99%" x2="100%" y1="14.065%" y2="50%"><stop offset="0%" stop-color="#003DE9"/><stop offset="38.004%" stop-color="#FF0058"/><stop offset="100%" stop-color="#81BB47"/></linearGradient></defs><g fill="none" fill-rule="evenodd"><circle cx="256" cy="256" r="256" fill="#0D0C2B"/><path fill="url(#a)" d="m4.173 189.365 124.703 122.932q19.432 17.316 36.057 0l75.837-77.213.03-.03 32.494-.447h.081l-97.017 100.658q-30.873 24.196-58.375-.783L3.942 216.551zM339 225.745l-110.853 110.77H200.59l110.867-110.77z" transform="translate(88 82)"/><path fill="url(#b)" d="M156.761 4.818 34.642 124.64q-17.2 16.461 0 35.702l122.12 123.477-27.006.228-117.152-112.92q-24.813-27.23-.778-57.8l111.47-108.51Zm24.049 7.754q27.3-24.75 57.945-.775l96.303 99.743h-.013l-.068-.001-32.254-.442-.008-.008-.06-.06-75.242-76.473q-16.502-17.16-35.79 0L67.835 156.37l-.229-26.938zm40.974 50.34 51.798 48.436H247l-51.84-48.436z" transform="translate(88 82)"/></g></svg>