<?xml version="1.0" encoding="UTF-8"?>
<svg width="374px" height="225px" viewBox="0 0 374 225" version="1.1" xmlns="http://www.w3.org/2000/svg" xmlns:xlink="http://www.w3.org/1999/xlink">
    <title>Slice 1</title>
    <defs>
        <filter id="filter-1">
            <feColorMatrix in="SourceGraphic" type="matrix" values="0 0 0 0 0.729412 0 0 0 0 0.000000 0 0 0 0 0.498039 0 0 0 1.000000 0"></feColorMatrix>
        </filter>
    </defs>
    <g id="Page-1" stroke="none" stroke-width="1" fill="none" fill-rule="evenodd">
        <g filter="url(#filter-1)" id="00">
            <g transform="translate(0.000000, -0.000000)">
                <g id="Group" transform="translate(187.000000, 112.500000) scale(-1, 1) rotate(-180.000000) translate(-187.000000, -112.500000) translate(-0.000000, 0.000000)" fill="#000000" fill-rule="nonzero">
                    <path d="M50,212.5 L50,200 L75,200 L100,200 L100,187.5 L100,175 L75,175 L50,175 L50,125 L50,75 L25,75 L0,75 L0,50 L0,25 L12.5,25 L25,25 L25,37.5 L25,50 L37.5,50 L50,50 L50,37.5 L50,25 L62.5,25 L75,25 L75,12.5 L75,0 L87.5,0 L100,0 L100,25 L100,50 L125,50 L150,50 L150,37.5 L150,25 L137.5,25 L125,25 L125,12.5 L125,0 L137.5,0 L150,0 L150,12.5 L150,25 L187.5,25 L225,25 L225,12.5 L225,0 L237.5,0 L250,0 L250,12.5 L250,25 L237.5,25 L225,25 L225,37.5 L225,50 L250,50 L275,50 L275,25 L275,0 L287.5,0 L300,0 L300,12.5 L300,25 L312.5,25 L325,25 L325,37.5 L325,50 L337.5,50 L350,50 L350,37.5 L350,25 L362,25 L374,25 L374,50 L374,75 L349.5,75 L325,75 L325,125 L325,175 L300,175 L275,175 L275,187.5 L275,200 L300,200 L325,200 L325,212.5 L325,225 L300,225 L275,225 L275,212.5 L275,200 L262.5,200 L250,200 L250,187.5 L250,175 L237.5,175 L225,175 L225,162.5 L225,150 L187.5,150 L150,150 L150,162.5 L150,175 L137.5,175 L125,175 L125,187.5 L125,200 L112.5,200 L100,200 L100,212.5 L100,225 L75,225 L50,225 L50,212.5 Z M125,112.5 L125,100 L112.5,100 L100,100 L100,112.5 L100,125 L112.5,125 L125,125 L125,112.5 Z M275,112.5 L275,100 L262.5,100 L250,100 L250,112.5 L250,125 L262.5,125 L275,125 L275,112.5 Z" id="Shape"></path>
                </g>
            </g>
        </g>
    </g>
</svg>