<svg xmlns="http://www.w3.org/2000/svg" width="374" height="225"><defs><filter id="a"><feColorMatrix in="SourceGraphic" values="0 0 0 0 0.729412 0 0 0 0 0.000000 0 0 0 0 0.498039 0 0 0 1.000000 0"/></filter></defs><g fill="none" fill-rule="evenodd" filter="url(#a)"><path fill="#000" fill-rule="nonzero" d="M50 12.5V25h50v25H50v100H0v50h25v-25h25v25h25v25h25v-50h50v25h-25v25h25v-25h75v25h25v-25h-25v-25h50v50h25v-25h25v-25h25v25h24v-50h-49V50h-50V25h50V0h-50v25h-25v25h-25v25h-75V50h-25V25h-25V0H50zm75 100V125h-25v-25h25zm150 0V125h-25v-25h25z"/></g></svg>