<svg xmlns="http://www.w3.org/2000/svg" width="100" height="100" fill="none"><g clip-path="url(#a)"><path fill="#FAB425" d="M49.656 99.766c27.505 0 49.802-22.297 49.802-49.801S77.16.163 49.656.163-.146 22.46-.146 49.965s22.298 49.801 49.802 49.801"/><path fill="url(#b)" d="M75.703 74.922C53.62 79.383 32.046 65.07 27.558 43.116c-2.245-10.638.06-21.263 5.546-29.843C16.473 20.917 6.637 39.211 10.45 57.997 14.94 79.95 36.514 94.264 58.596 89.803c11.383-2.23 20.503-8.99 26.445-18.021-2.962 1.348-5.923 2.471-9.338 3.14"/><path fill="#fff" fill-rule="evenodd" d="m88.777 68.849 2.712 1.926c.611.434.548 1.36-.117 1.707l-8.78 4.575a1.003 1.003 0 0 1-1.464-.965l.773-10.262a1.003 1.003 0 0 1 1.58-.742l2.433 1.727c6.209-14.11 3.914-31.163-7.198-43.219C63.866 7.486 38.846 6.35 22.6 20.958a.51.51 0 0 1-.712-.03l-1.656-1.796a.5.5 0 0 1 .032-.708C37.91 2.526 65.11 3.752 81.25 21.261c12.244 13.283 14.628 32.144 7.528 47.588M10.45 31.686l-2.713-1.927a1.003 1.003 0 0 1 .118-1.706l8.78-4.575a1.003 1.003 0 0 1 1.463.964l-.773 10.263a1.003 1.003 0 0 1-1.58.742l-2.432-1.727C7.104 47.83 9.399 64.883 20.51 76.938c14.85 16.11 39.87 17.247 56.116 2.639a.51.51 0 0 1 .712.03l1.656 1.796a.5.5 0 0 1-.033.707c-17.645 15.898-44.845 14.673-60.985-2.836C5.734 65.99 3.35 47.13 10.45 31.686" clip-rule="evenodd"/><path fill="#fff" d="M25.034 63.044h-4.838l.03-3.572h4.808q1.8 0 3.038-.809 1.236-.825 1.861-2.396.642-1.572.642-3.8v-1.084q0-1.71-.367-3.007-.351-1.297-1.053-2.182a4.4 4.4 0 0 0-1.725-1.328q-1.022-.459-2.35-.458h-4.975V40.82h4.975q2.229 0 4.075.763a9.2 9.2 0 0 1 3.22 2.152q1.359 1.405 2.092 3.358.747 1.938.747 4.32v1.053q0 2.365-.747 4.319-.733 1.953-2.091 3.358a9.3 9.3 0 0 1-3.22 2.152q-1.863.747-4.122.748M22.791 40.82v22.223h-4.58V40.82zM46.264 44.622 40.22 63.044h-4.868l8.257-22.223h3.098zm5.022 18.422-6.06-18.422-.488-3.8h3.129l8.303 22.222zm-.275-8.273v3.587H39.274V54.77zM64.076 40.821v22.223h-4.564V40.82zM82.467 50.666v3.83H67.235v-3.83zm-5.525-6.03v16.18h-4.167v-16.18z"/></g><defs><linearGradient id="b" x1="7.463" x2="53.504" y1="99.378" y2="45.907" gradientUnits="userSpaceOnUse"><stop offset=".073" stop-color="#FFD923"/><stop offset=".477" stop-color="#F8E5C2"/><stop offset="1" stop-color="#FAB223"/></linearGradient><clipPath id="a"><path fill="#fff" d="M0 0h99.444v100H0z"/></clipPath></defs></svg>