<svg xmlns="http://www.w3.org/2000/svg" width="96" height="96" fill="none"><path fill="url(#a)" d="M48 96c26.51 0 48-21.49 48-48S74.51 0 48 0 0 21.49 0 48s21.49 48 48 48"/><path fill="#fff" fill-rule="evenodd" d="M47.908 15.938a32.16 32.16 0 0 1 32.158 32.157 33 33 0 0 1-.245 3.992S68.081 41.25 48 41.25c-19.706 0-31.983 11.011-31.983 11.011l-.026-.21a32.184 32.184 0 0 1 31.917-36.113" clip-rule="evenodd"/><path fill="#fff" fill-rule="evenodd" d="M48 47.813A45.63 45.63 0 0 1 88.79 72.97l.07.141s-1.715 2.993-4.965 6.678a46 46 0 0 1-6.716 6.245l-.024-.094C72.474 67.458 55.296 63 48 63c-7.057 0-24.614 3.892-29.331 22.826l-.031.126a51.6 51.6 0 0 1-6.67-6.22 47 47 0 0 1-4.85-6.572l.044-.088a45.63 45.63 0 0 1 40.839-25.26" clip-rule="evenodd"/><defs><linearGradient id="a" x1="48" x2="48" y1="0" y2="96" gradientUnits="userSpaceOnUse"><stop stop-color="#74247D"/><stop offset="1" stop-color="#1C0B2D"/></linearGradient></defs></svg>