<svg xmlns="http://www.w3.org/2000/svg" viewBox="0 0 48 48"><g data-name="Layer 2"><g data-name="Layer 1"><path fill="#fff" d="M39.88 14.8v18.39L24 42.38h-.15L8.12 33.19V14.8l15.74-9.17Z"/><path fill="#041a3a" d="M29.36 31.39h9L36.9 29.3l-6.25-8.83-6.65-9.4-6.65 9.4-6.25 8.83-1.47 2.09h9l-1.82-2.65h-2.08l2.42-3.42 4.29 6.07h5.12l4.29-6.07 2.42 3.42h-2.09Zm-4.17-2.65h-2.38l-4-5.71L24 15.64 29.23 23Z"/><path fill="#fff" d="M42.73 24.71v10.12l-8 4.63 1 1.75 9-5.21V24.71ZM13.19 6.19 3.25 12v10.69h2v-9.55l8.93-5.2ZM5.27 34.84V24.71h-2V36L13 41.64l1-1.75ZM33 40.47l-9 5.23-8.3-4.79-1 1.75L24 48l10-5.78Zm2.49-33.8-1 1.75 8.27 4.73v9.54h2V12ZM23.82 0l-8.88 5.17 1 1.75 7.88-4.59 8.88 5.08 1-1.75Z"/><path fill="#fff" d="M22.82 1.78h2.02v4.89h-2.02zM22.928 45.988l.065-4.68 2.02.028-.065 4.68zM4.573 14.01l1.013-1.748 3.746 2.171-1.013 1.748zM38.347 33.586l.967-1.774 5.048 2.754-.967 1.773zM38.122 14.681l4.507-2.613 1.013 1.747-4.507 2.614zM4.463 33.917l3.724-2.165 1.01 1.737-3.724 2.165z"/><path fill="none" d="M0 0h48v48H0z"/></g></g></svg>