<svg xmlns="http://www.w3.org/2000/svg" width="1361" height="1360" fill="none"><g clip-path="url(#a)"><circle cx="680.832" cy="680" r="680" fill="#A36EFD"/><path fill="#4C2897" d="M924.171 356.543c-58.629-6.734-97.724-10.102-241.916-10.102-123.709 0-184.003 4.482-241.916 10.102-27.072 2.624-48.665 23.223-46.677 50.463l32.02 436.189 256.55 91.938 256.573-91.938 32.02-436.189c2.011-27.24-19.651-47.351-46.677-50.463z"/><path fill="#4C2897" d="M1004.37 733.314s-54.675 32.836-74.465 40.361c-59.461 22.641-247.626 58.311-247.626 58.311s-188.187-35.646-247.626-58.311c-19.79-7.548-74.466-40.361-74.466-40.361-34.077-18.462-72.108 8.058-72.177 46.956-.116 62.956 49.058 127.608 115.386 168.363 74.79 45.957 186.431 65.027 278.883 65.027s204.093-19.07 278.883-65.027c66.328-40.755 115.498-105.43 115.388-168.363-.07-38.898-38.1-65.418-72.18-46.956"/><path fill="#BB96F9" d="M950.641 700.792c-42.122 11.89-107.803 44.936-268.386 44.936s-226.265-33.046-268.387-44.936c-7.075-1.997-13.987 3.576-13.594 10.961l5.71 104.014c.208 3.948 1.688 7.663 4.185 10.706 17.454 21.132 95.712 94.864 272.062 94.864s253.661-72.78 271.763-94.47c2.728-3.274 4.3-7.338 4.554-11.611l5.687-103.503c.417-7.361-6.519-12.958-13.594-10.961"/></g><defs><clipPath id="a"><path fill="#fff" d="M.832 0h1360v1360H.832z"/></clipPath></defs></svg>