<svg xmlns="http://www.w3.org/2000/svg" width="20" height="21" fill="none"><circle cx="10" cy="10.5" r="10" fill="#B090EF"/><path fill="#fff" d="m10.866 14.27 3.264-1.993c.182-.11.387.103.27.28l-3.155 5.095a1.197 1.197 0 0 1-1.993.01l-3.234-5.108c-.118-.177.084-.392.267-.284l3.357 2.005c.378.223.848.22 1.224-.005"/><path fill="#000" fill-rule="evenodd" d="M5.759 12.722c-.297-.449.218-.993.683-.719l.002.001L9.8 14.01c.28.164.627.163.906-.004l3.265-1.994c.463-.279.983.26.69.713l-3.153 5.092-.005.007a1.507 1.507 0 0 1-2.507.012l-.005-.008zm.766.052 2.987 4.718a.887.887 0 0 0 1.472-.007l2.912-4.702-2.87 1.752a1.51 1.51 0 0 1-1.541.007h-.002z" clip-rule="evenodd"/><path fill="#000" fill-rule="evenodd" d="m10.598 2.7 1.749 3.038c.303.527.966.706 1.573.706 1.32 0 2.42 1.01 2.42 2.295 0 .887-.526 1.643-1.285 2.026l-.029.021-4.16 2.498a1.2 1.2 0 0 1-1.224.006L5.39 10.786l-.02-.012c-.768-.38-1.301-1.142-1.301-2.035 0-1.285 1.1-2.295 2.42-2.295.63 0 1.323-.176 1.643-.72l1.777-3.027a.4.4 0 0 1 .69.003M7.262 7.203a1.9 1.9 0 0 0-.775-.16c-1.023 0-1.82.776-1.82 1.696 0 .596.335 1.132.85 1.435zm5.919-.015 1.717 2.982c.51-.304.843-.838.843-1.431 0-.92-.798-1.697-1.82-1.697-.266 0-.515.052-.74.146" clip-rule="evenodd"/><path fill="#fff" d="M16.04 8.739c0 1.102-.949 1.995-2.12 1.995-1.17 0-2.12-.893-2.12-1.995s.95-1.996 2.12-1.996 2.12.893 2.12 1.996"/><path fill="#000" fill-rule="evenodd" d="M13.92 7.042c-1.023 0-1.82.777-1.82 1.697s.797 1.696 1.82 1.696 1.821-.777 1.821-1.697-.798-1.696-1.82-1.696M11.5 8.74c0-1.285 1.101-2.295 2.42-2.295 1.32 0 2.42 1.01 2.42 2.295s-1.1 2.294-2.42 2.294-2.42-1.01-2.42-2.294" clip-rule="evenodd"/><path fill="#fff" d="M8.607 8.739c0 1.102-.949 1.995-2.12 1.995-1.17 0-2.12-.893-2.12-1.995s.95-1.996 2.12-1.996 2.12.893 2.12 1.996"/><path fill="#000" fill-rule="evenodd" d="M6.487 7.042c-1.023 0-1.82.777-1.82 1.697s.797 1.696 1.82 1.696 1.821-.777 1.821-1.697-.798-1.696-1.82-1.696M4.067 8.74c0-1.285 1.101-2.295 2.42-2.295 1.32 0 2.42 1.01 2.42 2.295s-1.1 2.294-2.42 2.294-2.42-1.01-2.42-2.294M13.129 8.89l.005-.003zm1.578-.003.004.003zm0-.297.004-.003zm-1.573 0-.005-.003zm-.016-.334c.218-.058.5-.09.802-.09s.585.032.802.09c.106.029.214.067.302.123.073.046.22.16.22.36s-.147.313-.22.36a1.1 1.1 0 0 1-.302.122c-.217.058-.5.09-.802.09a3.2 3.2 0 0 1-.802-.09 1.1 1.1 0 0 1-.302-.123c-.073-.046-.22-.16-.22-.36s.147-.313.22-.359c.088-.056.196-.094.302-.123" clip-rule="evenodd"/><path fill="#000" fill-rule="evenodd" d="m5.696 8.89.005-.003zm1.578-.003.005.003zm0-.297.005-.003zm-1.573 0-.005-.003zm-.015-.334c.217-.058.5-.09.801-.09s.585.032.802.09c.107.029.214.067.302.123.073.046.22.16.22.36s-.147.313-.22.36a1.1 1.1 0 0 1-.302.122c-.217.058-.5.09-.802.09a3.2 3.2 0 0 1-.801-.09 1.1 1.1 0 0 1-.303-.123c-.073-.046-.22-.16-.22-.36s.147-.313.22-.359c.089-.056.196-.094.303-.123" clip-rule="evenodd"/></svg>