<svg xmlns="http://www.w3.org/2000/svg" id="b" width="500" height="500" data-name="Design"><defs><style>.d{fill:#fff;stroke-width:0}</style></defs><circle cx="250" cy="250" r="250" style="stroke-width:0;fill:#6818ad"/><path id="c" d="M320.74 207.66c-2.143-23.128-22.35-30.972-47.899-33.299l.154-32.066-19.801-.09-.149 31.22c-5.205-.023-10.526.054-15.813.133l.154-31.428-19.79-.092-.162 32.056c-4.287.067-8.497.126-12.602.11l-.002-.1-27.31-.137-.095 20.846s14.623-.206 14.379.058c8.02.04 10.609 4.642 11.349 8.606l-.424 87.843c-.364 2.487-1.866 6.447-7.47 6.43.253.223-14.393-.07-14.393-.07l-4.046 23.291 25.767.12c4.796.027 9.513.13 14.145.18l-.147 32.431 19.78.096.152-32.089c5.43.136 10.686.203 15.817.223l-.162 31.94 19.801.09.162-32.373c33.297-1.728 56.636-9.886 59.677-40.687 2.455-24.802-9.333-35.929-28.208-40.49 11.508-5.709 18.734-15.828 17.137-32.752Zm-28.034 69.216c-.105 24.236-42.19 21.283-55.61 21.233l.211-42.97c13.423.066 55.522-3.542 55.399 21.737m-8.918-60.667c-.112 22.05-35.21 19.313-46.387 19.262l.188-38.971c11.177.051 46.306-3.29 46.199 19.71Z" class="d" data-name="symbol"/><path d="M427.255 350.053a47.25 47.25 0 0 0 6.296-23.591l.135-157.865c-7.519.12-30.176 13.717-30.227 34.66l.09 123.256a17.2 17.2 0 0 1-2.293 8.593 17.2 17.2 0 0 1-6.277 6.3l-106.614 61.853c-18.081 10.566-18.46 36.98-14.785 43.542l136.427-79.43a47.25 47.25 0 0 0 17.235-17.295M72.745 350.053a47.25 47.25 0 0 1-6.296-23.591l-.135-157.865c7.519.12 30.176 13.717 30.228 34.66l-.091 123.256a17.2 17.2 0 0 0 2.293 8.593 17.2 17.2 0 0 0 6.277 6.3l106.614 61.853c18.081 10.566 18.46 36.98 14.785 43.542L89.993 367.37a47.25 47.25 0 0 1-17.235-17.295M250.007 46.537a47.24 47.24 0 0 1 23.588 6.31l136.898 78.615c-3.854 6.458-26.94 19.314-45.117 8.914L258.588 78.824a17.2 17.2 0 0 0-8.592-2.297c-3.021.001-5.99.796-8.591 2.299l-106.784 61.56c-18.175 10.401-41.259-2.444-45.113-8.901L226.394 52.85a47.25 47.25 0 0 1 23.587-6.313" class="d"/></svg>