<svg xmlns="http://www.w3.org/2000/svg" xmlns:xlink="http://www.w3.org/1999/xlink" xml:space="preserve" width="1024" height="1024"><defs><path id="a" d="M1250 2500C559.6 2500 0 1940.4 0 1250S559.6 0 1250 0s1250 559.6 1250 1250-559.6 1250-1250 1250"/></defs><g transform="matrix(.4079 0 0 .40902 1.706 2.625)"><clipPath id="b"><use xlink:href="#a" style="overflow:visible"/></clipPath><g clip-path="url(#b)"><path d="m1250 1250-1768-10.9 1.6-65z" style="fill-rule:evenodd;clip-rule:evenodd;fill:#fefeff"/><path d="m1250 1250-1766.7-65.1 2.7-54.2z" style="fill-rule:evenodd;clip-rule:evenodd;fill:#fdfeff"/><path d="m1250 1250-1764.6-108.4 4-54.1z" style="fill-rule:evenodd;clip-rule:evenodd;fill:#fcfdff"/><path d="m1250 1250-1761.4-151.7 5.3-54z" style="fill-rule:evenodd;clip-rule:evenodd;fill:#fbfcff"/><path d="m1250 1250-1757.1-194.9 6.6-53.8z" style="fill-rule:evenodd;clip-rule:evenodd;fill:#fafcff"/><path d="m1250 1250-1751.8-237.9 7.9-53.7z" style="fill-rule:evenodd;clip-rule:evenodd;fill:#f9fbff"/><path d="M1250 1250-495.4 969.1l9.2-53.4z" style="fill-rule:evenodd;clip-rule:evenodd;fill:#f8faff"/><path d="M1250 1250-488 926.4l10.5-53.2z" style="fill-rule:evenodd;clip-rule:evenodd;fill:#f7faff"/><path d="M1250 1250-479.6 883.9l11.9-53z" style="fill-rule:evenodd;clip-rule:evenodd;fill:#f6f9ff"/><path d="M1250 1250-470.1 841.5l13.2-52.6z" style="fill-rule:evenodd;clip-rule:evenodd;fill:#f5f8ff"/><path d="M1250 1250-459.5 799.4l14.4-52.3z" style="fill-rule:evenodd;clip-rule:evenodd;fill:#f4f8ff"/><path d="M1250 1250-448 757.6l15.8-51.9z" style="fill-rule:evenodd;clip-rule:evenodd;fill:#f3f7ff"/><path d="M1250 1250-435.4 716.1l17.1-51.5z" style="fill-rule:evenodd;clip-rule:evenodd;fill:#f2f6ff"/><path d="M1250 1250-421.8 674.9l18.3-51.1z" style="fill-rule:evenodd;clip-rule:evenodd;fill:#f1f6ff"/><path d="M1250 1250-407.1 634l19.5-50.6z" style="fill-rule:evenodd;clip-rule:evenodd;fill:#f0f5ff"/><path d="M1250 1250-391.5 593.5l20.7-50.1z" style="fill-rule:evenodd;clip-rule:evenodd;fill:#eff4ff"/><path d="M1250 1250-374.9 553.4l22-49.5z" style="fill-rule:evenodd;clip-rule:evenodd;fill:#eef3ff"/><path d="M1250 1250-357.3 513.8l23.2-49z" style="fill-rule:evenodd;clip-rule:evenodd;fill:#edf3ff"/><path d="M1250 1250-338.8 474.6l24.4-48.5z" style="fill-rule:evenodd;clip-rule:evenodd;fill:#ecf2ff"/><path d="M1250 1250-319.3 435.8l25.6-47.8z" style="fill-rule:evenodd;clip-rule:evenodd;fill:#ebf1ff"/><path d="M1250 1250-298.8 397.6l26.7-47.3z" style="fill-rule:evenodd;clip-rule:evenodd;fill:#eaf1ff"/><path d="M1250 1250-277.4 359.8l27.9-46.5z" style="fill-rule:evenodd;clip-rule:evenodd;fill:#e9f0ff"/><path d="M1250 1250-255.1 322.6l29-45.9z" style="fill-rule:evenodd;clip-rule:evenodd;fill:#e8efff"/><path d="M1250 1250-231.9 285.9l30.2-45.1z" style="fill-rule:evenodd;clip-rule:evenodd;fill:#e7efff"/><path d="M1250 1250-207.8 249.8l31.2-44.3z" style="fill-rule:evenodd;clip-rule:evenodd;fill:#e6eeff"/><path d="M1250 1250-182.8 214.4l32.3-43.6z" style="fill-rule:evenodd;clip-rule:evenodd;fill:#e5edff"/><path d="M1250 1250-157 179.5l33.4-42.8z" style="fill-rule:evenodd;clip-rule:evenodd;fill:#e4edff"/><path d="M1250 1250-130.3 145.3l34.4-41.9z" style="fill-rule:evenodd;clip-rule:evenodd;fill:#e3ecff"/><path d="M1250 1250-102.7 111.8l35.4-41.1z" style="fill-rule:evenodd;clip-rule:evenodd;fill:#e2ebff"/><path d="M1250 1250-74.4 78.9-38 38.7z" style="fill-rule:evenodd;clip-rule:evenodd;fill:#e1ebff"/><path d="M1250 1250-45.3 46.8-7.9 7.5z" style="fill-rule:evenodd;clip-rule:evenodd;fill:#e0eaff"/><path d="M1250 1250-15.4 15.4 23-23z" style="fill-rule:evenodd;clip-rule:evenodd;fill:#dfe9ff"/><path d="M1250 1250 15.4-15.4l39.2-37.3z" style="fill-rule:evenodd;clip-rule:evenodd;fill:#dee9ff"/><path d="M1250 1250 46.8-45.3 87-81.7z" style="fill-rule:evenodd;clip-rule:evenodd;fill:#dde8ff"/><path d="M1250 1250 78.9-74.4l41.1-35.4z" style="fill-rule:evenodd;clip-rule:evenodd;fill:#dce7ff"/><path d="M1250 1250 111.8-102.7l41.9-34.4z" style="fill-rule:evenodd;clip-rule:evenodd;fill:#dbe7ff"/><path d="M1250 1250 145.3-130.3l42.8-33.3z" style="fill-rule:evenodd;clip-rule:evenodd;fill:#dae6ff"/><path d="M1250 1250 179.5-157l43.6-32.3z" style="fill-rule:evenodd;clip-rule:evenodd;fill:#d9e5ff"/><path d="M1250 1250 214.4-182.8l44.3-31.2z" style="fill-rule:evenodd;clip-rule:evenodd;fill:#d8e5ff"/><path d="M1250 1250 249.8-207.8l45.1-30.1z" style="fill-rule:evenodd;clip-rule:evenodd;fill:#d7e4ff"/><path d="M1250 1250 285.9-231.9l45.9-29z" style="fill-rule:evenodd;clip-rule:evenodd;fill:#d6e3ff"/><path d="M1250 1250 322.6-255.1l46.5-27.9z" style="fill-rule:evenodd;clip-rule:evenodd;fill:#d5e3ff"/><path d="M1250 1250 359.8-277.4l47.2-26.7z" style="fill-rule:evenodd;clip-rule:evenodd;fill:#d4e2ff"/><path d="M1250 1250 397.6-298.8l47.8-25.6z" style="fill-rule:evenodd;clip-rule:evenodd;fill:#d3e1ff"/><path d="M1250 1250 435.8-319.3l48.5-24.3z" style="fill-rule:evenodd;clip-rule:evenodd;fill:#d2e0ff"/><path d="M1250 1250 474.6-338.8l49-23.1z" style="fill-rule:evenodd;clip-rule:evenodd;fill:#d1e0ff"/><path d="M1250 1250 513.8-357.3l49.6-22z" style="fill-rule:evenodd;clip-rule:evenodd;fill:#d0dfff"/><path d="M1250 1250 553.4-374.9l50.2-20.8z" style="fill-rule:evenodd;clip-rule:evenodd;fill:#cfdeff"/><path d="M1250 1250 593.5-391.5l50.7-19.5z" style="fill-rule:evenodd;clip-rule:evenodd;fill:#cedeff"/><path d="M1250 1250 634-407.1l51.1-18.3z" style="fill-rule:evenodd;clip-rule:evenodd;fill:#cdddff"/><path d="M1250 1250 674.9-421.8l51.5-16.9z" style="fill-rule:evenodd;clip-rule:evenodd;fill:#ccdcff"/><path d="M1250 1250 716.1-435.4l51.9-15.7z" style="fill-rule:evenodd;clip-rule:evenodd;fill:#cbdcff"/><path d="M1250 1250 757.6-448l52.3-14.4z" style="fill-rule:evenodd;clip-rule:evenodd;fill:#cadbff"/><path d="M1250 1250 799.4-459.5l52.6-13.2z" style="fill-rule:evenodd;clip-rule:evenodd;fill:#c9daff"/><path d="M1250 1250 841.5-470.1l52.9-11.8z" style="fill-rule:evenodd;clip-rule:evenodd;fill:#c8daff"/><path d="M1250 1250 883.9-479.6l53.1-10.5z" style="fill-rule:evenodd;clip-rule:evenodd;fill:#c7d9ff"/><path d="M1250 1250 926.4-488l53.4-9.3z" style="fill-rule:evenodd;clip-rule:evenodd;fill:#c6d8ff"/><path d="M1250 1250 969.1-495.4l53.7-8z" style="fill-rule:evenodd;clip-rule:evenodd;fill:#c5d8ff"/><path d="M1250 1250 1012.1-501.8l53.8-6.6z" style="fill-rule:evenodd;clip-rule:evenodd;fill:#c4d7ff"/><path d="M1250 1250 1055.1-507.1l54-5.3z" style="fill-rule:evenodd;clip-rule:evenodd;fill:#c3d6ff"/><path d="M1250 1250 1098.3-511.4l54.1-4z" style="fill-rule:evenodd;clip-rule:evenodd;fill:#c2d6ff"/><path d="M1250 1250 1141.6-514.6l54.2-2.6z" style="fill-rule:evenodd;clip-rule:evenodd;fill:#c1d5ff"/><path d="m1250 1250-65.1-1766.7 54.2-1.3z" style="fill-rule:evenodd;clip-rule:evenodd;fill:#c0d4ff"/><path d="m1250 1250-21.7-1767.8h54.2z" style="fill-rule:evenodd;clip-rule:evenodd;fill:#bfd4ff"/><path d="m1250 1250 21.7-1767.8 54.2 1.4z" style="fill-rule:evenodd;clip-rule:evenodd;fill:#bed3ff"/><path d="m1250 1250 65.1-1766.7 54.1 2.7z" style="fill-rule:evenodd;clip-rule:evenodd;fill:#bdd2ff"/><path d="m1250 1250 108.4-1764.6 54.1 4z" style="fill-rule:evenodd;clip-rule:evenodd;fill:#bcd2ff"/><path d="m1250 1250 151.7-1761.4 54 5.3z" style="fill-rule:evenodd;clip-rule:evenodd;fill:#bbd1ff"/><path d="m1250 1250 194.8-1757.1 53.9 6.6z" style="fill-rule:evenodd;clip-rule:evenodd;fill:#bad0ff"/><path d="m1250 1250 237.9-1751.8 53.7 7.9z" style="fill-rule:evenodd;clip-rule:evenodd;fill:#b9d0ff"/><path d="m1250 1250 280.8-1745.4 53.5 9.2z" style="fill-rule:evenodd;clip-rule:evenodd;fill:#b8cfff"/><path d="m1250 1250 323.6-1738 53.2 10.5z" style="fill-rule:evenodd;clip-rule:evenodd;fill:#b7ceff"/><path d="m1250 1250 366.1-1729.6 53 11.9z" style="fill-rule:evenodd;clip-rule:evenodd;fill:#b6cdff"/><path d="m1250 1250 408.5-1720.1 52.6 13.2z" style="fill-rule:evenodd;clip-rule:evenodd;fill:#b5cdff"/><path d="m1250 1250 450.6-1709.5 52.2 14.4z" style="fill-rule:evenodd;clip-rule:evenodd;fill:#b4ccff"/><path d="m1250 1250 492.4-1698 51.9 15.8z" style="fill-rule:evenodd;clip-rule:evenodd;fill:#b3cbff"/><path d="m1250 1250 533.9-1685.4 51.5 17.1z" style="fill-rule:evenodd;clip-rule:evenodd;fill:#b2cbff"/><path d="m1250 1250 575.1-1671.8 51.1 18.3z" style="fill-rule:evenodd;clip-rule:evenodd;fill:#b1caff"/><path d="m1250 1250 616-1657.1 50.6 19.5z" style="fill-rule:evenodd;clip-rule:evenodd;fill:#b0c9ff"/><path d="m1250 1250 656.4-1641.5 50.2 20.7z" style="fill-rule:evenodd;clip-rule:evenodd;fill:#afc9ff"/><path d="m1250 1250 696.5-1624.9 49.6 22z" style="fill-rule:evenodd;clip-rule:evenodd;fill:#aec8ff"/><path d="m1250 1250 736.2-1607.3 49 23.2z" style="fill-rule:evenodd;clip-rule:evenodd;fill:#adc7ff"/><path d="m1250 1250 775.4-1588.8 48.5 24.4z" style="fill-rule:evenodd;clip-rule:evenodd;fill:#acc7ff"/><path d="m1250 1250 814.2-1569.3 47.8 25.6z" style="fill-rule:evenodd;clip-rule:evenodd;fill:#abc6ff"/><path d="m1250 1250 852.4-1548.8 47.3 26.7z" style="fill-rule:evenodd;clip-rule:evenodd;fill:#aac5ff"/><path d="m1250 1250 890.2-1527.4 46.5 27.9z" style="fill-rule:evenodd;clip-rule:evenodd;fill:#a9c5ff"/><path d="m1250 1250 927.4-1505.1 45.8 29z" style="fill-rule:evenodd;clip-rule:evenodd;fill:#a8c4ff"/><path d="m1250 1250 964.1-1481.9 45.1 30.2z" style="fill-rule:evenodd;clip-rule:evenodd;fill:#a7c3ff"/><path d="M1250 1250 2250.2-207.8l44.3 31.2z" style="fill-rule:evenodd;clip-rule:evenodd;fill:#a6c3ff"/><path d="M1250 1250 2285.6-182.8l43.6 32.3z" style="fill-rule:evenodd;clip-rule:evenodd;fill:#a5c2ff"/><path d="M1250 1250 2320.5-157l42.7 33.4z" style="fill-rule:evenodd;clip-rule:evenodd;fill:#a4c1ff"/><path d="M1250 1250 2354.7-130.3l41.9 34.4z" style="fill-rule:evenodd;clip-rule:evenodd;fill:#a3c1ff"/><path d="M1250 1250 2388.2-102.7l41.1 35.4z" style="fill-rule:evenodd;clip-rule:evenodd;fill:#a2c0ff"/><path d="M1250 1250 2421.1-74.4l40.2 36.4z" style="fill-rule:evenodd;clip-rule:evenodd;fill:#a1bfff"/><path d="M1250 1250 2453.2-45.3l39.3 37.4z" style="fill-rule:evenodd;clip-rule:evenodd;fill:#a0bfff"/><path d="M1250 1250 2484.6-15.4 2523 23z" style="fill-rule:evenodd;clip-rule:evenodd;fill:#9fbeff"/><path d="M1250 1250 2515.3 15.4l37.4 39.2z" style="fill-rule:evenodd;clip-rule:evenodd;fill:#9ebdff"/><path d="M1250 1250 2545.3 46.8l36.4 40.2z" style="fill-rule:evenodd;clip-rule:evenodd;fill:#9dbdff"/><path d="M1250 1250 2574.4 78.9l35.4 41.1z" style="fill-rule:evenodd;clip-rule:evenodd;fill:#9cbcff"/><path d="M1250 1250 2602.7 111.8l34.4 41.9z" style="fill-rule:evenodd;clip-rule:evenodd;fill:#9bbbff"/><path d="M1250 1250 2630.3 145.3l33.3 42.8z" style="fill-rule:evenodd;clip-rule:evenodd;fill:#9abaff"/><path d="M1250 1250 2657 179.5l32.3 43.6z" style="fill-rule:evenodd;clip-rule:evenodd;fill:#99baff"/><path d="M1250 1250 2682.8 214.4l31.2 44.3z" style="fill-rule:evenodd;clip-rule:evenodd;fill:#98b9ff"/><path d="M1250 1250 2707.8 249.8l30.1 45.1z" style="fill-rule:evenodd;clip-rule:evenodd;fill:#97b8ff"/><path d="m1250 1250 1481.9-964.1 29 45.9z" style="fill-rule:evenodd;clip-rule:evenodd;fill:#96b8ff"/><path d="m1250 1250 1505.1-927.4 27.9 46.5z" style="fill-rule:evenodd;clip-rule:evenodd;fill:#95b7ff"/><path d="m1250 1250 1527.4-890.2 26.7 47.2z" style="fill-rule:evenodd;clip-rule:evenodd;fill:#94b6ff"/><path d="m1250 1250 1548.8-852.4 25.5 47.8z" style="fill-rule:evenodd;clip-rule:evenodd;fill:#93b6ff"/><path d="m1250 1250 1569.2-814.2 24.4 48.5z" style="fill-rule:evenodd;clip-rule:evenodd;fill:#92b5ff"/><path d="m1250 1250 1588.8-775.4 23.1 49z" style="fill-rule:evenodd;clip-rule:evenodd;fill:#91b4ff"/><path d="m1250 1250 1607.3-736.2 22 49.6z" style="fill-rule:evenodd;clip-rule:evenodd;fill:#90b4ff"/><path d="m1250 1250 1624.9-696.6 20.7 50.2z" style="fill-rule:evenodd;clip-rule:evenodd;fill:#8fb3ff"/><path d="m1250 1250 1641.5-656.5 19.5 50.7z" style="fill-rule:evenodd;clip-rule:evenodd;fill:#8eb2ff"/><path d="m1250 1250 1657.1-616 18.3 51.1z" style="fill-rule:evenodd;clip-rule:evenodd;fill:#8db2ff"/><path d="m1250 1250 1671.7-575.1 17 51.5z" style="fill-rule:evenodd;clip-rule:evenodd;fill:#8cb1ff"/><path d="m1250 1250 1685.3-533.9 15.8 51.9z" style="fill-rule:evenodd;clip-rule:evenodd;fill:#8bb0ff"/><path d="m1250 1250 1697.9-492.4 14.5 52.3z" style="fill-rule:evenodd;clip-rule:evenodd;fill:#8ab0ff"/><path d="m1250 1250 1709.5-450.6 13.2 52.6z" style="fill-rule:evenodd;clip-rule:evenodd;fill:#89afff"/><path d="m1250 1250 1720.1-408.5 11.8 52.9z" style="fill-rule:evenodd;clip-rule:evenodd;fill:#88aeff"/><path d="m1250 1250 1729.5-366.1 10.6 53.1z" style="fill-rule:evenodd;clip-rule:evenodd;fill:#87aeff"/><path d="m1250 1250 1738-323.6 9.3 53.4z" style="fill-rule:evenodd;clip-rule:evenodd;fill:#86adff"/><path d="m1250 1250 1745.4-280.9 8 53.7z" style="fill-rule:evenodd;clip-rule:evenodd;fill:#85acff"/><path d="m1250 1250 1751.8-237.9 6.6 53.8z" style="fill-rule:evenodd;clip-rule:evenodd;fill:#84acff"/><path d="m1250 1250 1757.1-194.9 5.3 54z" style="fill-rule:evenodd;clip-rule:evenodd;fill:#83abff"/><path d="m1250 1250 1761.4-151.7 4 54.1z" style="fill-rule:evenodd;clip-rule:evenodd;fill:#82aaff"/><path d="m1250 1250 1764.6-108.4 2.6 54.2z" style="fill-rule:evenodd;clip-rule:evenodd;fill:#81aaff"/><path d="m1250 1250 1766.7-65.1 1.3 54.2z" style="fill-rule:evenodd;clip-rule:evenodd;fill:#80a9ff"/><path d="m1250 1250 1767.7-21.7v54.2z" style="fill-rule:evenodd;clip-rule:evenodd;fill:#7fa8ff"/><path d="m1250 1250 1767.7 21.7-1.3 54.2z" style="fill-rule:evenodd;clip-rule:evenodd;fill:#7ea7ff"/><path d="m1250 1250 1766.7 65.1-2.7 54.1z" style="fill-rule:evenodd;clip-rule:evenodd;fill:#7da7ff"/><path d="m1250 1250 1764.6 108.4-4 54.1z" style="fill-rule:evenodd;clip-rule:evenodd;fill:#7ca6ff"/><path d="m1250 1250 1761.4 151.7-5.3 54z" style="fill-rule:evenodd;clip-rule:evenodd;fill:#7ba5ff"/><path d="m1250 1250 1757.1 194.8-6.6 53.9z" style="fill-rule:evenodd;clip-rule:evenodd;fill:#7aa5ff"/><path d="m1250 1250 1751.8 237.9-8 53.7z" style="fill-rule:evenodd;clip-rule:evenodd;fill:#79a4ff"/><path d="m1250 1250 1745.4 280.8-9.2 53.5z" style="fill-rule:evenodd;clip-rule:evenodd;fill:#78a3ff"/><path d="m1250 1250 1738 323.6-10.6 53.2z" style="fill-rule:evenodd;clip-rule:evenodd;fill:#77a3ff"/><path d="m1250 1250 1729.5 366.1-11.8 53z" style="fill-rule:evenodd;clip-rule:evenodd;fill:#76a2ff"/><path d="m1250 1250 1720.1 408.5-13.2 52.6z" style="fill-rule:evenodd;clip-rule:evenodd;fill:#75a1ff"/><path d="m1250 1250 1709.5 450.6-14.4 52.2z" style="fill-rule:evenodd;clip-rule:evenodd;fill:#74a1ff"/><path d="m1250 1250 1697.9 492.4-15.7 51.9z" style="fill-rule:evenodd;clip-rule:evenodd;fill:#73a0ff"/><path d="m1250 1250 1685.3 533.9-17 51.5z" style="fill-rule:evenodd;clip-rule:evenodd;fill:#729fff"/><path d="m1250 1250 1671.7 575.1-18.2 51.1z" style="fill-rule:evenodd;clip-rule:evenodd;fill:#719fff"/><path d="m1250 1250 1657.1 616-19.5 50.6z" style="fill-rule:evenodd;clip-rule:evenodd;fill:#709eff"/><path d="m1250 1250 1641.5 656.4-20.8 50.2z" style="fill-rule:evenodd;clip-rule:evenodd;fill:#6f9dff"/><path d="m1250 1250 1624.9 696.5-22 49.6z" style="fill-rule:evenodd;clip-rule:evenodd;fill:#6e9dff"/><path d="m1250 1250 1607.3 736.2-23.2 49z" style="fill-rule:evenodd;clip-rule:evenodd;fill:#6d9cff"/><path d="m1250 1250 1588.8 775.4-24.4 48.5z" style="fill-rule:evenodd;clip-rule:evenodd;fill:#6c9bff"/><path d="m1250 1250 1569.2 814.2-25.5 47.8z" style="fill-rule:evenodd;clip-rule:evenodd;fill:#6b9bff"/><path d="m1250 1250 1548.8 852.4-26.7 47.3z" style="fill-rule:evenodd;clip-rule:evenodd;fill:#6a9aff"/><path d="m1250 1250 1527.4 890.2-27.9 46.5z" style="fill-rule:evenodd;clip-rule:evenodd;fill:#6999ff"/><path d="m1250 1250 1505.1 927.4-29 45.8z" style="fill-rule:evenodd;clip-rule:evenodd;fill:#6899ff"/><path d="m1250 1250 1481.9 964.1-30.2 45.1z" style="fill-rule:evenodd;clip-rule:evenodd;fill:#6798ff"/><path d="m1250 1250 1457.8 1000.2-31.2 44.3z" style="fill-rule:evenodd;clip-rule:evenodd;fill:#6697ff"/><path d="m1250 1250 1432.8 1035.6-32.3 43.6z" style="fill-rule:evenodd;clip-rule:evenodd;fill:#6597ff"/><path d="m1250 1250 1407 1070.5-33.4 42.7z" style="fill-rule:evenodd;clip-rule:evenodd;fill:#6496ff"/><path d="m1250 1250 1380.3 1104.7-34.4 41.9z" style="fill-rule:evenodd;clip-rule:evenodd;fill:#6395ff"/><path d="m1250 1250 1352.7 1138.2-35.4 41.1z" style="fill-rule:evenodd;clip-rule:evenodd;fill:#6294ff"/><path d="m1250 1250 1324.4 1171.1-36.4 40.2z" style="fill-rule:evenodd;clip-rule:evenodd;fill:#6194ff"/><path d="m1250 1250 1295.3 1203.2-37.4 39.3z" style="fill-rule:evenodd;clip-rule:evenodd;fill:#6093ff"/><path d="m1250 1250 1265.3 1234.6-38.3 38.4z" style="fill-rule:evenodd;clip-rule:evenodd;fill:#5f92ff"/><path d="m1250 1250 1234.6 1265.3-39.2 37.4z" style="fill-rule:evenodd;clip-rule:evenodd;fill:#5e92ff"/><path d="m1250 1250 1203.2 1295.3-40.2 36.4z" style="fill-rule:evenodd;clip-rule:evenodd;fill:#5d91ff"/><path d="m1250 1250 1171.1 1324.4-41.1 35.4z" style="fill-rule:evenodd;clip-rule:evenodd;fill:#5c90ff"/><path d="m1250 1250 1138.2 1352.7-41.9 34.4z" style="fill-rule:evenodd;clip-rule:evenodd;fill:#5b90ff"/><path d="m1250 1250 1104.7 1380.3-42.8 33.3z" style="fill-rule:evenodd;clip-rule:evenodd;fill:#5a8fff"/><path d="m1250 1250 1070.5 1407-43.6 32.3z" style="fill-rule:evenodd;clip-rule:evenodd;fill:#598eff"/><path d="m1250 1250 1035.6 1432.8-44.3 31.2z" style="fill-rule:evenodd;clip-rule:evenodd;fill:#588eff"/><path d="m1250 1250 1000.2 1457.8-45.2 30.1z" style="fill-rule:evenodd;clip-rule:evenodd;fill:#578dff"/><path d="m1250 1250 964.1 1481.9-45.9 29z" style="fill-rule:evenodd;clip-rule:evenodd;fill:#568cff"/><path d="m1250 1250 927.4 1505.1-46.5 27.9z" style="fill-rule:evenodd;clip-rule:evenodd;fill:#558cff"/><path d="m1250 1250 890.2 1527.4-47.2 26.7z" style="fill-rule:evenodd;clip-rule:evenodd;fill:#548bff"/><path d="m1250 1250 852.4 1548.8-47.8 25.5z" style="fill-rule:evenodd;clip-rule:evenodd;fill:#538aff"/><path d="m1250 1250 814.2 1569.2-48.5 24.4z" style="fill-rule:evenodd;clip-rule:evenodd;fill:#528aff"/><path d="m1250 1250 775.4 1588.8-49 23.1z" style="fill-rule:evenodd;clip-rule:evenodd;fill:#5189ff"/><path d="m1250 1250 736.2 1607.3-49.6 22z" style="fill-rule:evenodd;clip-rule:evenodd;fill:#5088ff"/><path d="m1250 1250 696.5 1624.9-50.1 20.7z" style="fill-rule:evenodd;clip-rule:evenodd;fill:#4f88ff"/><path d="m1250 1250 656.4 1641.5-50.6 19.5z" style="fill-rule:evenodd;clip-rule:evenodd;fill:#4e87ff"/><path d="m1250 1250 616 1657.1-51.1 18.3z" style="fill-rule:evenodd;clip-rule:evenodd;fill:#4d86ff"/><path d="m1250 1250 575.1 1671.7-51.5 17z" style="fill-rule:evenodd;clip-rule:evenodd;fill:#4c86ff"/><path d="m1250 1250 533.9 1685.3-51.9 15.8z" style="fill-rule:evenodd;clip-rule:evenodd;fill:#4b85ff"/><path d="m1250 1250 492.4 1697.9-52.3 14.5z" style="fill-rule:evenodd;clip-rule:evenodd;fill:#4a84ff"/><path d="m1250 1250 450.6 1709.5-52.7 13.2z" style="fill-rule:evenodd;clip-rule:evenodd;fill:#4984ff"/><path d="m1250 1250 408.5 1720.1-52.9 11.8z" style="fill-rule:evenodd;clip-rule:evenodd;fill:#4883ff"/><path d="m1250 1250 366.1 1729.5-53.2 10.6z" style="fill-rule:evenodd;clip-rule:evenodd;fill:#4782ff"/><path d="m1250 1250 323.6 1738-53.4 9.3z" style="fill-rule:evenodd;clip-rule:evenodd;fill:#4681ff"/><path d="m1250 1250 280.8 1745.4-53.6 8z" style="fill-rule:evenodd;clip-rule:evenodd;fill:#4581ff"/><path d="m1250 1250 237.9 1751.8-53.8 6.6z" style="fill-rule:evenodd;clip-rule:evenodd;fill:#4480ff"/><path d="m1250 1250 194.8 1757.1-53.9 5.3z" style="fill-rule:evenodd;clip-rule:evenodd;fill:#437fff"/><path d="m1250 1250 151.7 1761.4-54.1 4z" style="fill-rule:evenodd;clip-rule:evenodd;fill:#427fff"/><path d="m1250 1250 108.4 1764.6-54.2 2.6z" style="fill-rule:evenodd;clip-rule:evenodd;fill:#417eff"/><path d="m1250 1250 65.1 1766.7-54.3 1.3z" style="fill-rule:evenodd;clip-rule:evenodd;fill:#407dff"/><path d="m1250 1250 21.7 1767.7h-54.3z" style="fill-rule:evenodd;clip-rule:evenodd;fill:#3f7dff"/><path d="m1250 1250-21.7 1767.7-54.2-1.3z" style="fill-rule:evenodd;clip-rule:evenodd;fill:#3e7cff"/><path d="m1250 1250-65.1 1766.7-54.2-2.7z" style="fill-rule:evenodd;clip-rule:evenodd;fill:#3d7bff"/><path d="m1250 1250-108.4 1764.6-54.1-4z" style="fill-rule:evenodd;clip-rule:evenodd;fill:#3c7bff"/><path d="m1250 1250-151.7 1761.4-54-5.3z" style="fill-rule:evenodd;clip-rule:evenodd;fill:#3b7aff"/><path d="m1250 1250-194.9 1757.1-53.8-6.6z" style="fill-rule:evenodd;clip-rule:evenodd;fill:#3a79ff"/><path d="m1250 1250-237.9 1751.8-53.7-8z" style="fill-rule:evenodd;clip-rule:evenodd;fill:#3979ff"/><path d="M1250 1250 969.1 2995.4l-53.4-9.2z" style="fill-rule:evenodd;clip-rule:evenodd;fill:#3878ff"/><path d="M1250 1250 926.4 2988l-53.2-10.6z" style="fill-rule:evenodd;clip-rule:evenodd;fill:#3777ff"/><path d="M1250 1250 883.9 2979.5l-53-11.8z" style="fill-rule:evenodd;clip-rule:evenodd;fill:#3677ff"/><path d="M1250 1250 841.5 2970.1l-52.6-13.2z" style="fill-rule:evenodd;clip-rule:evenodd;fill:#3576ff"/><path d="M1250 1250 799.4 2959.5l-52.3-14.4z" style="fill-rule:evenodd;clip-rule:evenodd;fill:#3475ff"/><path d="M1250 1250 757.6 2947.9l-51.9-15.7z" style="fill-rule:evenodd;clip-rule:evenodd;fill:#3375ff"/><path d="M1250 1250 716.1 2935.3l-51.5-17z" style="fill-rule:evenodd;clip-rule:evenodd;fill:#3274ff"/><path d="M1250 1250 674.9 2921.7l-51.1-18.2z" style="fill-rule:evenodd;clip-rule:evenodd;fill:#3173ff"/><path d="M1250 1250 634 2907.1l-50.6-19.5z" style="fill-rule:evenodd;clip-rule:evenodd;fill:#3073ff"/><path d="M1250 1250 593.5 2891.5l-50.1-20.8z" style="fill-rule:evenodd;clip-rule:evenodd;fill:#2f72ff"/><path d="M1250 1250 553.4 2874.9l-49.5-22z" style="fill-rule:evenodd;clip-rule:evenodd;fill:#2e71ff"/><path d="M1250 1250 513.8 2857.3l-49-23.2z" style="fill-rule:evenodd;clip-rule:evenodd;fill:#2d71ff"/><path d="M1250 1250 474.6 2838.8l-48.5-24.4z" style="fill-rule:evenodd;clip-rule:evenodd;fill:#2c70ff"/><path d="M1250 1250 435.8 2819.2l-47.8-25.5z" style="fill-rule:evenodd;clip-rule:evenodd;fill:#2b6fff"/><path d="M1250 1250 397.6 2798.8l-47.3-26.7z" style="fill-rule:evenodd;clip-rule:evenodd;fill:#2a6eff"/><path d="M1250 1250 359.8 2777.4l-46.5-27.9z" style="fill-rule:evenodd;clip-rule:evenodd;fill:#296eff"/><path d="M1250 1250 322.6 2755.1l-45.9-29z" style="fill-rule:evenodd;clip-rule:evenodd;fill:#286dff"/><path d="M1250 1250 285.9 2731.9l-45.1-30.2z" style="fill-rule:evenodd;clip-rule:evenodd;fill:#276cff"/><path d="M1250 1250 249.8 2707.8l-44.3-31.2z" style="fill-rule:evenodd;clip-rule:evenodd;fill:#266cff"/><path d="M1250 1250 214.4 2682.8l-43.6-32.3z" style="fill-rule:evenodd;clip-rule:evenodd;fill:#256bff"/><path d="M1250 1250 179.5 2657l-42.8-33.4z" style="fill-rule:evenodd;clip-rule:evenodd;fill:#246aff"/><path d="M1250 1250 145.3 2630.3l-41.9-34.4z" style="fill-rule:evenodd;clip-rule:evenodd;fill:#236aff"/><path d="M1250 1250 111.8 2602.7l-41.1-35.4z" style="fill-rule:evenodd;clip-rule:evenodd;fill:#2269ff"/><path d="M1250 1250 78.9 2574.4 38.7 2538z" style="fill-rule:evenodd;clip-rule:evenodd;fill:#2168ff"/><path d="M1250 1250 46.8 2545.3l-39.3-37.4z" style="fill-rule:evenodd;clip-rule:evenodd;fill:#2068ff"/><path d="M1250 1250 15.4 2515.3-23 2477z" style="fill-rule:evenodd;clip-rule:evenodd;fill:#1f67ff"/><path d="M1250 1250-15.4 2484.6l-37.3-39.2z" style="fill-rule:evenodd;clip-rule:evenodd;fill:#1e66ff"/><path d="M1250 1250-45.3 2453.2l-36.4-40.2z" style="fill-rule:evenodd;clip-rule:evenodd;fill:#1d66ff"/><path d="M1250 1250-74.4 2421.1l-35.4-41.1z" style="fill-rule:evenodd;clip-rule:evenodd;fill:#1c65ff"/><path d="M1250 1250-102.7 2388.2l-34.4-41.9z" style="fill-rule:evenodd;clip-rule:evenodd;fill:#1b64ff"/><path d="M1250 1250-130.3 2354.7l-33.3-42.8z" style="fill-rule:evenodd;clip-rule:evenodd;fill:#1a64ff"/><path d="M1250 1250-157 2320.5l-32.3-43.6z" style="fill-rule:evenodd;clip-rule:evenodd;fill:#1963ff"/><path d="M1250 1250-182.8 2285.6l-31.2-44.3z" style="fill-rule:evenodd;clip-rule:evenodd;fill:#1862ff"/><path d="M1250 1250-207.8 2250.2l-30.1-45.2z" style="fill-rule:evenodd;clip-rule:evenodd;fill:#1762ff"/><path d="m1250 1250-1481.9 964.1-29-45.9z" style="fill-rule:evenodd;clip-rule:evenodd;fill:#1661ff"/><path d="m1250 1250-1505.1 927.4-27.9-46.5z" style="fill-rule:evenodd;clip-rule:evenodd;fill:#1560ff"/><path d="m1250 1250-1527.4 890.2-26.7-47.2z" style="fill-rule:evenodd;clip-rule:evenodd;fill:#1460ff"/><path d="m1250 1250-1548.8 852.4-25.6-47.8z" style="fill-rule:evenodd;clip-rule:evenodd;fill:#135fff"/><path d="m1250 1250-1569.3 814.2-24.3-48.5z" style="fill-rule:evenodd;clip-rule:evenodd;fill:#125eff"/><path d="m1250 1250-1588.8 775.4-23.1-49z" style="fill-rule:evenodd;clip-rule:evenodd;fill:#115eff"/><path d="m1250 1250-1607.3 736.2-22-49.6z" style="fill-rule:evenodd;clip-rule:evenodd;fill:#105dff"/><path d="m1250 1250-1624.9 696.5-20.8-50.1z" style="fill-rule:evenodd;clip-rule:evenodd;fill:#0f5cff"/><path d="m1250 1250-1641.5 656.4-19.5-50.6z" style="fill-rule:evenodd;clip-rule:evenodd;fill:#0e5bff"/><path d="m1250 1250-1657.1 616-18.3-51.1z" style="fill-rule:evenodd;clip-rule:evenodd;fill:#0d5bff"/><path d="m1250 1250-1671.8 575.1-16.9-51.5z" style="fill-rule:evenodd;clip-rule:evenodd;fill:#0c5aff"/><path d="m1250 1250-1685.4 533.9-15.7-51.9z" style="fill-rule:evenodd;clip-rule:evenodd;fill:#0b59ff"/><path d="m1250 1250-1698 492.4-14.4-52.3z" style="fill-rule:evenodd;clip-rule:evenodd;fill:#0a59ff"/><path d="m1250 1250-1709.5 450.6-13.2-52.7z" style="fill-rule:evenodd;clip-rule:evenodd;fill:#0958ff"/><path d="m1250 1250-1720.1 408.5-11.8-52.9z" style="fill-rule:evenodd;clip-rule:evenodd;fill:#0857ff"/><path d="m1250 1250-1729.6 366.1-10.5-53.2z" style="fill-rule:evenodd;clip-rule:evenodd;fill:#0757ff"/><path d="m1250 1250-1738 323.6-9.3-53.4z" style="fill-rule:evenodd;clip-rule:evenodd;fill:#0656ff"/><path d="m1250 1250-1745.4 280.8-8-53.6z" style="fill-rule:evenodd;clip-rule:evenodd;fill:#0555ff"/><path d="m1250 1250-1751.8 237.9-6.6-53.8z" style="fill-rule:evenodd;clip-rule:evenodd;fill:#0455ff"/><path d="m1250 1250-1757.1 194.8-5.3-53.9z" style="fill-rule:evenodd;clip-rule:evenodd;fill:#0354ff"/><path d="m1250 1250-1761.4 151.7-4-54.1z" style="fill-rule:evenodd;clip-rule:evenodd;fill:#0253ff"/><path d="m1250 1250-1764.6 108.4-2.6-54.2z" style="fill-rule:evenodd;clip-rule:evenodd;fill:#0153ff"/><path d="m1250 1250-1766.7 65.1-1.3-54.3z" style="fill-rule:evenodd;clip-rule:evenodd;fill:#0052ff"/><path d="m1250 1250-1767.8 21.7v-43.4z" style="fill-rule:evenodd;clip-rule:evenodd;fill:#fff"/></g></g><path d="M397.236 772.346c-5.48-2.701-5.637-8.775-.396-15.296 4.175-5.195 6.964-6.571 16.16-7.97 10.652-1.62 10.554-1.562 13.148-7.865 2.286-5.555 2.351-6.524 2.325-34.715-.02-23.233-.355-30.491-1.682-36.5-2.095-9.485-3.414-13.042-4.08-11-.27.825-1.72 5.445-3.223 10.266-1.553 4.976-4.65 11.758-7.164 15.689l-4.43 6.924 1.58 7.653c2.43 11.761.146 20.09-6.428 23.445-5.082 2.592-5.958 3.907-8.068 12.108-3.632 14.118-8.464 16.163-38.567 16.314-21.338.107-25.411-.633-25.411-4.618 0-4.989 6.936-12.538 14.657-15.953 2.342-1.036 7.847-2.16 12.234-2.5 7.949-.612 7.985-.628 10.908-4.721 8.742-12.241 11.206-22.16 11.185-45.017-.028-30.412-2.955-52.686-8.312-63.245-1.352-2.665-5.695-8.445-9.653-12.845-18.652-20.74-23.093-30.219-28.087-59.964-3.426-20.405-4.638-25.611-9.494-40.767-1.89-5.903-3.438-12.327-3.438-14.276v-3.544l-3.093 1.6c-1.701.879-3.2 1.453-3.33 1.275s-.796-2.908-1.477-6.067c-1.421-6.582-6.678-14.287-13.35-19.567-2.338-1.85-9.042-6.25-14.899-9.78-12.103-7.292-16.556-11.714-17.454-17.33-.433-2.705-1.516-4.53-3.601-6.073-3.454-2.553-6.742-9.144-6.774-13.576-.032-4.496 2.603-12.6 5.473-16.829 2.403-3.54 2.505-4.314 2.505-18.965 0-16.023.561-19.288 5.654-32.9l2.53-6.763-3.094-3.524c-4.447-5.066-7.34-11.315-11.549-24.95-2.037-6.6-6.414-18.075-9.727-25.5-7.486-16.778-9.772-25.404-10.52-39.702-.495-9.451-.326-11.601 1.083-13.75 3.025-4.617 7.276-2.966 24.123 9.371 12.583 9.215 15.786 11.203 27.604 17.132 5.718 2.87 12.895 6.913 15.949 8.986 8.251 5.602 16.63 15.099 18.305 20.749 1.069 3.604 1.839 4.665 3.27 4.507 23.145-2.565 48.665-1.444 59.719 2.622 1.184.436 3.335 1.078 4.78 1.427 2.547.615 2.64.474 3.062-4.604.909-10.948 6.083-18.338 23.38-33.39 5.953-5.18 7.915-7.759 12.41-16.309 6.035-11.478 10.402-15.915 18.73-19.031 13.073-4.892 14.768-2.618 18.256 24.492 1.062 8.25 3.144 19.05 4.628 24l5.044 16.835c5.84 19.499 5.726 33.997-.363 46.082-3.662 7.27-11.334 14.846-18.711 18.477-6.256 3.08-6.393 3.234-7.031 7.876-2.242 16.299 12.361 47.475 30.282 64.65 17.99 17.24 34.883 21.989 89.186 25.068 33.663 1.909 55.548 3.902 72 6.558 34.546 5.577 59.805 13.77 78.624 25.5 3.932 2.45 7.686 4.454 8.343 4.454 2.38 0 12.179-7.343 16.967-12.716 14.433-16.193 17.59-33.78 13.066-72.784-2.444-21.066-2.587-37.146-.398-44.569 2.35-7.97 5.398-10.856 5.398-5.113 0 4.66 2.742 12.458 8.405 23.901 14.178 28.65 18.726 43.447 18.836 61.281.08 12.997-1.814 24.52-6.363 38.722-5.285 16.5-14.42 34.177-22.961 44.434l-3.877 4.655 2.87 6.345c5.262 11.636 7.249 19.654 7.825 31.583.864 17.878-1.35 27.664-12.192 53.91-5.57 13.482-7.503 22.068-7.526 33.42-.02 10.285 1.607 16.24 7.68 28.103 5.75 11.236 5.992 16.227 1.416 29.274-1.742 4.966-3.584 12.88-4.14 17.79-.773 6.824-1.708 10.097-4.092 14.321-3.028 5.365-3.076 5.66-2.376 14.51.895 11.309.573 11.728-12.37 16.096-8.305 2.802-10.954 3.242-19.188 3.19-10.83-.07-18.4-2.077-21.904-5.808-3.117-3.317-2.121-8.838 2.503-13.886 4.255-4.644 8.898-6.659 15.345-6.659 3.825 0 5.632-.57 7.922-2.496 8.28-6.968 9.293-27.416 1.952-39.422C721.337 701.11 712.14 691 710.955 691c-.416 0-1.28 2.184-1.92 4.854-.688 2.867-3.554 8.365-7.004 13.435-7.457 10.96-10.119 17.966-10.907 28.711l-.624 8.5-5.495 1.822c-7.409 2.456-18.86 3.666-34.505 3.647-14.82-.02-19.701-.87-23.053-4.019-2.228-2.093-2.276-2.38-.847-5.143 2.673-5.169 8.403-10.643 12.965-12.385 3.66-1.397 6.27-1.572 14.884-.995 12.154.814 13.622.312 16.698-5.71 2.303-4.51 3.564-15.132 2.478-20.878-.357-1.892-3.474-7.022-7.193-11.839-19.286-24.981-27.4-42.363-30.414-65.15-2.279-17.23-5.744-23.291-14.74-25.79-11.087-3.079-22.982-.052-38.278 9.739-8.59 5.499-27.597 14.716-37.5 18.185-12.787 4.479-26.762 7.702-43.5 10.033-19.063 2.654-25.775 3.994-26.847 5.36-.485.617-1.148 6.523-1.473 13.123-.663 13.47-2.557 24.815-6.307 37.782-2.423 8.38-2.484 9.193-1.316 17.74 1.404 10.269.854 17.131-1.865 23.278-1.978 4.471-8.342 11.258-11.527 12.293-1.423.462-1.683 1.19-1.159 3.251 2.08 8.177 2.185 12.136.396 15.077-2.301 3.784-4.187 4.746-12.901 6.579-10.198 2.145-37.303 2.045-41.765-.155M442 770.564c9.256-2.512 10.705-5.589 8.507-18.07-.688-3.908-.581-4.105 4.317-8 9.418-7.49 11.683-14.716 9.927-31.668-1.066-10.287-1.01-10.993 1.535-19.5 3.295-11.015 5.398-23.895 6.288-38.524.378-6.216 1.108-11.833 1.622-12.483 1.207-1.525 7.612-2.87 25.682-5.396 37.239-5.204 51.226-10.2 87.579-31.286 9.916-5.752 16.298-7.643 25.697-7.615 10.784.032 17.989 3.927 20.75 11.217.571 1.506 1.962 8.245 3.092 14.975 4.494 26.776 10.71 40.218 30.417 65.769 7.85 10.178 9.365 15.214 7.564 25.144-2.422 13.355-7.674 18.21-17.297 15.988-13.118-3.027-22.5.404-28.762 10.522-4.553 7.357.09 8.718 27.65 8.107 16.233-.36 22.223-.864 26.682-2.244l5.75-1.779v-4.2c0-5.43 3.263-18.152 6.077-23.69 1.21-2.382 4.244-7.202 6.742-10.71s5.132-8.658 5.855-11.444c.722-2.785 1.73-5.48 2.237-5.988 1.236-1.236 10.165 7.182 13.96 13.16 7.996 12.595 8.119 32.535.255 41.336-2.399 2.685-3.886 3.279-11.068 4.422-9.24 1.47-12.236 2.998-15.102 7.697-6.054 9.93 1.286 15.696 19.982 15.696 8.118 0 11.12-.484 18.536-2.991 12.071-4.08 12.855-4.898 11.959-12.48-1.112-9.41-.705-12.386 2.466-18.004 2.182-3.866 3.129-7.157 3.635-12.627.376-4.069 2.21-12.073 4.075-17.787 4.7-14.398 4.56-18.335-1.037-29.203-6.194-12.029-7.862-18.45-7.761-29.884.103-11.74 2.37-20.909 9.16-37.05 7.003-16.65 10.014-27.644 10.725-39.162.936-15.143-1.054-24.42-9.745-45.431-1.232-2.979-1.107-3.34 2.776-8 12.486-14.985 24-41.271 27.882-63.657 2.132-12.291 1.452-30.217-1.562-41.19-2.482-9.038-7.806-21.946-15.197-36.849-5.977-12.05-8.85-19.856-8.85-24.042 0-4.457-1.625-2.187-3.448 4.817-2.113 8.113-1.95 19.227.604 41.357 2.921 25.307 2.915 40.247-.02 50.648-2.842 10.073-6.963 17.82-13.201 24.82-4.483 5.029-13.03 11.525-17.077 12.98-.992.356-4.555-1.23-9-4.005-23.366-14.593-55.658-23.904-99.358-28.647-13.31-1.444-23.692-2.191-65-4.677-38.517-2.317-57.683-8.027-74.097-22.074-19.996-17.114-36.416-52.547-32.778-70.736.525-2.624 1.639-3.623 6.972-6.248 7.39-3.639 15.014-11.202 18.78-18.634 5.578-11.007 5.655-25.911.227-44.026-1.272-4.245-3.531-11.768-5.02-16.718s-3.583-15.525-4.655-23.5c-2.588-19.25-2.799-20.257-5.003-23.882-2.233-3.672-3.923-3.84-11.217-1.11-8.328 3.116-12.695 7.553-18.73 19.031-4.494 8.55-6.457 11.13-12.409 16.309-17.307 15.06-22.122 21.916-23.281 33.149-.314 3.035-1.068 5.503-1.682 5.503-.612 0-4.144-.867-7.85-1.926-14.25-4.076-26.554-4.657-58.64-2.773-3.221.19-3.45-.028-4.77-4.516-1.661-5.648-10.025-15.134-18.294-20.748-3.054-2.073-10.23-6.117-15.948-8.986-11.887-5.963-14.915-7.851-28.235-17.599-5.297-3.876-11.739-8.15-14.316-9.5l-4.685-2.452-1.934 2.36c-2.226 2.717-2.512 9.317-.896 20.64 1.627 11.395 3.512 17.461 9.822 31.604 3.287 7.368 7.644 18.796 9.68 25.396 4.215 13.652 7.102 19.884 11.572 24.975 3.508 3.996 3.501 4.171-.607 15.525-3.112 8.6-4.948 24.949-4.172 37.146.47 7.389.373 7.816-2.884 12.653-6.867 10.196-6.688 19.42.51 26.273 2.43 2.315 3.995 4.875 4.445 7.272 1.049 5.59 5.533 9.856 18.788 17.872 17.524 10.597 25.778 19.666 27.488 30.202.656 4.045.983 4.206 4.105 2.02 2.58-1.807 2.707-1.602 3.726 5.977.363 2.703 1.906 8.328 3.428 12.5 3.649 10.001 6.486 22.162 9.586 41.085 1.397 8.525 3.237 17.948 4.09 20.94 3.35 11.751 10.813 23.647 23.879 38.06 12.246 13.51 15.644 25.18 17.569 60.34 1.655 30.245-.425 44.617-8.362 57.78-5.355 8.879-5.41 8.915-15.377 9.85-4.993.468-10.477 1.575-12.188 2.46-6.23 3.22-13.137 10.792-13.137 14.399 0 2.66 6.34 3.364 27.2 3.018 19.597-.325 21.662-.531 25.822-2.579 5.203-2.56 7.216-5.542 8.961-13.268 1.613-7.142 3.2-9.543 7.894-11.937 2.353-1.2 4.485-3.304 5.486-5.414 2.02-4.259 2.132-13.688.236-19.988l-1.401-4.656 4.042-6.252c4.977-7.698 7.285-12.987 9.668-22.163 1.069-4.116 2.376-7.09 3.116-7.09 1.766 0 3.77 6.279 5.587 17.5 1.053 6.501 1.589 17.55 1.698 35 .153 24.335.057 25.756-2.095 31.114-1.24 3.088-3.048 6.33-4.016 7.207s-5.121 2.086-9.229 2.69c-9.273 1.36-12.043 2.413-15.298 5.812-3.188 3.328-5.944 9.74-5.198 12.09.615 1.937 3.64 3.739 7.527 4.482 5.184.991 34.553-.353 40-1.831z" style="fill:#000;fill-opacity:1;fill-rule:nonzero;stroke:none;stroke-width:1;stroke-dasharray:none;stroke-opacity:1" transform="matrix(1.27836 0 0 1.22173 -153.008 -104.83)"/><path d="M399.066 770.824c-4.06-1.864-4.813-3.728-3.137-7.773 3.051-7.367 7.75-10.677 17.36-12.228 10.078-1.625 11.321-2.307 14.212-7.79l2.739-5.195-.083-30.41c-.074-27.379-.296-31.344-2.227-39.762-3.488-15.208-5.121-15.342-9.676-.793-1.516 4.84-4.96 12.468-7.656 16.95l-4.902 8.15 1.292 4.487c1.84 6.39 1.603 17.098-.448 20.227-.91 1.389-3.577 3.808-5.928 5.376-3.85 2.568-4.54 3.675-6.97 11.178-4.714 14.56-6.235 15.303-32.495 15.865-22.87.49-28.123-.051-28.123-2.896 0-2.972 8.552-11.539 13.304-13.327 2.28-.857 7.472-1.968 11.537-2.467 4.552-.558 8.383-1.645 9.97-2.828 3.228-2.402 10.163-15.867 11.927-23.152 3.24-13.385 2.231-54.766-1.817-74.524-2.361-11.526-6.181-18.848-15.99-30.649-10.516-12.651-15.742-20.442-19.062-28.416-2.59-6.22-3.547-10.43-9.296-40.9-1.397-7.403-4.282-19.069-6.412-25.924s-4.188-14.638-4.575-17.296c-.564-3.869-1.038-4.738-2.374-4.359-.918.26-2.276.64-3.017.844-.886.244-1.77-1.238-2.577-4.323-2.548-9.728-8.52-15.805-29.032-29.538-12.356-8.272-13.058-8.928-16.399-15.321-1.92-3.674-4.801-8.305-6.405-10.292-2.182-2.705-3.027-4.96-3.36-8.972-.398-4.806-.031-6.111 3.554-12.643l3.997-7.284-.042-12.461c-.048-13.987 1.37-23.966 4.87-34.253 3.02-8.882 2.98-10.051-.487-14.459-4.19-5.325-6.542-10.416-11.495-24.876-2.44-7.123-7.127-19.39-10.414-27.262-6.793-16.26-9.271-26.44-9.484-38.95-.121-7.139.17-9.002 1.634-10.468 1.711-1.715 1.946-1.69 5.982.626 2.311 1.326 9.815 6.339 16.675 11.139s17.854 11.6 24.429 15.11c6.575 3.512 13.973 7.657 16.441 9.213 6.93 4.369 15.492 13.822 18 19.87l2.215 5.346 24.541-.136c23.754-.132 24.89-.048 35.41 2.622 5.977 1.517 11.038 2.588 11.246 2.38.209-.21.8-2.96 1.313-6.114 1.593-9.788 4.376-14.02 18.376-27.94 10.29-10.233 13.875-14.537 17.024-20.44 5.457-10.232 12.525-17.237 19.664-19.487 3.05-.961 6.244-1.48 7.097-1.153 2.913 1.118 4.478 6.254 7.078 23.227 1.43 9.335 3.71 20.985 5.066 25.888 7.752 28.02 8.522 31.7 8.528 40.767.01 11.329-1.836 17.614-7.38 25.135-4.498 6.103-8 9.117-15.856 13.643-2.595 1.495-5.174 3.572-5.733 4.615-1.6 2.99-1.191 11.991.919 20.241 7.78 30.42 29.323 56.794 53.802 65.867 14.589 5.408 30.075 7.593 71.89 10.145 74.465 4.543 108.369 11.955 142.864 31.232 11.141 6.226 10.384 6.276 20.48-1.334 7.392-5.57 12.824-12.413 17.088-21.525 6.516-13.925 7.36-27.089 3.934-61.31-2.204-22.007-2.143-36.677.18-43.78 1.154-3.528 1.346-3.7 1.662-1.495.691 4.83 2.573 9.646 10.711 27.42 4.52 9.871 9.596 21.986 11.28 26.92 3.62 10.613 5.597 26.37 4.68 37.313-1.896 22.642-13.875 53.338-27.82 71.294-2.523 3.25-4.588 6.457-4.588 7.129s1.531 5.192 3.403 10.045c5.492 14.244 6.88 20.719 6.914 32.256.04 13.523-1.986 22.432-9.493 41.755-8.093 20.834-9.799 27.96-9.792 40.913.007 12.537.692 15.421 6.772 28.507 5.527 11.894 5.798 16.333 1.793 29.338-1.423 4.62-3.285 12.424-4.139 17.342-.853 4.919-2.648 11.107-3.989 13.752-2.097 4.14-2.437 6.188-2.437 14.692 0 7.157-.377 10.195-1.368 11.017-.752.624-4.678 2.355-8.724 3.847-6.537 2.41-8.746 2.713-19.82 2.726-10.018.011-13.17-.338-16.065-1.779-4.8-2.39-6.306-5.725-4.5-9.962 2.339-5.49 5.544-7.543 15.004-9.61 12.23-2.673 15.519-6.038 17.417-17.821 1.24-7.705-.125-17.795-3.367-24.877-2.717-5.935-12.86-17.199-15.487-17.199-1.173 0-2.365 1.798-3.8 5.733-1.15 3.153-4.546 9.6-7.545 14.325-6.433 10.138-9.485 18.613-10.282 28.554l-.579 7.233-5.09 1.564c-3.608 1.108-11.189 1.724-26.03 2.113-22.338.587-29.413-.236-29.413-3.421 0-2.924 5.213-9.288 9.819-11.987 4.9-2.871 11.02-3.426 21.09-1.91 4.878.734 5.87.567 8.974-1.513 4.267-2.86 7.892-12.343 7.931-20.75.033-7.007-2.583-12.554-11.699-24.805-15.743-21.157-21.301-33.521-26.12-58.106-1.65-8.416-3.927-17.14-5.06-19.388-3.027-6.002-8.353-8.651-18.463-9.182-11.226-.59-16.779 1.252-35.959 11.922-31.69 17.631-40.39 20.4-88.453 28.16-8.14 1.314-15.27 2.859-15.843 3.432-.574.574-1.662 7.464-2.418 15.312-1.462 15.183-3.315 25.886-6.439 37.2-1.652 5.985-1.833 8.84-1.268 20.023.86 17.025-.257 20.752-8.635 28.8l-5.964 5.728.65 7.781c.614 7.374.519 7.911-1.817 10.248-3.443 3.443-10.238 4.648-29.611 5.255-13.417.42-17.17.235-19.81-.977" style="fill:#fff;fill-opacity:1;fill-rule:nonzero;stroke:none;stroke-width:.997079;stroke-dasharray:none;stroke-opacity:1" transform="matrix(1.27836 0 0 1.22173 -153.008 -104.83)"/></svg>