<svg xmlns="http://www.w3.org/2000/svg" viewBox="0 0 267.65 267.65"><circle cx="133.83" cy="133.83" r="133.83" style="fill:#161e53"/><path d="m179.67 88.16 9.38-24.96h-15.41l-6.19 16.41a56.5 56.5 0 0 0-10.63-4.27l4.58-12.15h-15.41l-3.74 9.92c-.49 0-.98-.03-1.48-.03h-17.9a35.6 35.6 0 0 1-6.99-1.6c-.79-.26-1.56-.55-2.32-.86l-5.08 13.48-39.37 104.47h29.65l-5.99 15.89h15.41l6-15.89h12.24l-5.99 15.89h15.41l5.99-15.9c31.87-.54 57.26-26.82 56.72-58.69-.27-15.91-7.1-31-18.87-41.71Zm-89.73 85.99 32.66-86.63c1.47.14 2.94.2 4.41.2s3.01-.07 4.48-.21h5.36l-32.66 86.64zm29.65 0 32.16-85.25c3.71.98 7.27 2.44 10.6 4.35l-30.52 80.89h-12.24Zm51.84-12.7a42.9 42.9 0 0 1-24 12.19l26.61-70.57c14.39 17.2 13.25 42.53-2.61 58.38" style="fill:#ffbb51"/></svg>