<svg xmlns="http://www.w3.org/2000/svg" viewBox="0 0 128 128"><path fill="#1E1C29" d="M128 64c0 35.344-28.656 64-64 64S0 99.344 0 64 28.656 0 64 0s64 28.656 64 64"/><path fill="none" stroke="#fff" stroke-width="5.56" d="M14.248 64c0-27.492 22.264-49.756 49.752-49.756S113.744 36.512 113.744 64 91.48 113.744 64 113.744 14.248 91.48 14.248 64Z"/><path fill="none" stroke="#fff" stroke-width="5.56" d="M15.748 50.216c9.344-2.688 7.64-3.328 9.608-2.688 1.984.64 35.828 63.828 36.048 64.72"/><path fill="none" stroke="#fff" stroke-width="5.56" d="M25.388 48.028c1.172.252 14.236 8.296 15.672 10.14 1.44 1.844 3.408 7.78 4.968 8.968 1.56 1.172 3 .784 4.44.252 1.436-.52 6.264-6.968 7.576-7.892 1.296-.92 2.876-.404 3.656 1.048s25.092 45.12 26.048 46.888M58.792 59.92l-3.7 40.452m11.5-32.532c1.452-1.048 1.576-.516 2.372-1.44.784-.92 1.048-3.152 1.44-4.464.404-1.316 1.984-.92 3.032-.532 1.044.388 2.108.92 3.028 2.232s21.44 25.36 23.672 26.408c2.236 1.044 2.5.828 5.064 1.044"/></svg>
