<svg xmlns="http://www.w3.org/2000/svg" width="96" height="96" fill="none"><circle cx="48" cy="48" r="48" fill="#212630"/><path fill="#fff" fill-rule="evenodd" d="M78.877 37.76a.48.48 0 0 1 .055.567l-.183.29v.041h-.026L51.47 81.829a1 1 0 0 1-.037.07.46.46 0 0 1-.347.163H34.252a.4.4 0 0 1-.067-.013h-.026q-.005 0-.01-.005-.003-.004-.01-.005a.46.46 0 0 1-.228-.144l-.006-.008a.5.5 0 0 1-.094-.17v-.008a.3.3 0 0 1-.013-.057l-.043-.317v-.007l-.072-.535-8.62-63.913-.054-.409-.005-.064a.5.5 0 0 1 .039-.181.45.45 0 0 1 .15-.2l.014-.006a.4.4 0 0 1 .196-.074.3.3 0 0 1 .057-.004H42.3a.45.45 0 0 1 .255.102l36.078 21.362a.47.47 0 0 1 .245.354M41.246 69.203l6.315-9.985-4.247-31.503-8.33-4.953zm3.123-40.86 3.992 29.61 12.524-19.791zm17.533 10.315L48.603 59.725l1.156 8.561L68.5 38.658zM34.8 21.398l8.328 4.93-1.245-9.226H34.22zm13 39.595-6.311 10.001 1.15 8.542 6.315-9.985zm14.037-23.587a.5.5 0 0 1 .08.054h14.608L42.903 17.469l1.279 9.483zM34.139 82.04" clip-rule="evenodd"/></svg>