<svg xmlns="http://www.w3.org/2000/svg" width="37" height="37" fill="none"><path fill="#353535" d="M18.562 37C28.779 36.966 37.034 28.655 37 18.438S28.655-.034 18.438 0-.034 8.345 0 18.562 8.345 37.034 18.562 37"/><circle cx="13.825" cy="16.35" r="8.6" fill="#DEDEDE"/><circle cx="9.956" cy="24.519" r="4.731" fill="#1E4480"/><path fill="#152E51" fill-rule="evenodd" d="M10.49 8.42v11.397a4.73 4.73 0 0 1 4.182 5.092q-.418.042-.847.042a8.59 8.59 0 0 1-7.159-3.833 4.7 4.7 0 0 1 2.77-1.302V8.953q.507-.301 1.054-.533" clip-rule="evenodd"/><circle cx="23.774" cy="21.595" r="7.83" fill="#0F0"/><path fill="#000" fill-rule="evenodd" d="M28.29 21.582a4.516 4.516 0 1 1-9.032.026 4.516 4.516 0 0 1 9.032-.026m-4.506 3.539a3.526 3.526 0 0 0 .478-7.018v2.152a1.429 1.429 0 1 1-.99 0v-2.15a3.526 3.526 0 0 0 .512 7.016" clip-rule="evenodd"/></svg>