<svg xmlns="http://www.w3.org/2000/svg" width="96" height="96" fill="none"><g clip-path="url(#a)"><ellipse cx="48" cy="47.98" fill="#fff" rx="48" ry="47.98"/><path fill="#F0B90B" fill-rule="evenodd" d="M48.001 0C74.51 0 96 21.49 96 48S74.51 96 48.001 96 0 74.51 0 48 21.49 0 48.001 0m0 4.466c24.044 0 43.535 19.491 43.535 43.535S72.045 91.536 48.001 91.536 4.465 72.044 4.465 48 23.956 4.464 48 4.464z" clip-rule="evenodd"/><path fill="#F0B90B" fill-rule="evenodd" d="m19.538 37.09-4.631-8.169h9.238zm31.497 7.87L36.648 67.844l-15.4-26.153 6.997-12.769h52.968l-34.668 57.03-5.68-9.605 24.281-39.038H31.828l5.813 7.653z" clip-rule="evenodd"/></g><defs><clipPath id="a"><path fill="#fff" d="M0 0h96v96H0z"/></clipPath></defs></svg>