<svg xmlns="http://www.w3.org/2000/svg" width="810" height="810" fill="none"><g clip-path="url(#a)"><path fill="url(#b)" d="M0 0h810v810H0z"/><path fill="url(#c)" d="m704.581 440.792-22.713-88.537c-.651-2.604-2.748-4.629-5.352-5.28l-87.741-21.628a9.6 9.6 0 0 0-2.026-.217c-2.097-.217-4.267.434-5.859 2.025L432.823 475.223l-19.603-76.529c-.651-2.604-2.748-4.63-5.352-5.281l-75.372-18.59 147.995-147.995c.868-.868 1.374-1.953 1.736-3.038.651-1.447.868-3.11.434-4.702l-22.713-88.536c-.651-2.604-2.749-4.63-5.353-5.281l-87.741-21.628c-1.736-.434-3.472-.144-4.991.579h-.072c-.434.217-.796.506-1.23.796-.361.289-.868.434-1.157.795l-252.59 252.446s-.434.723-.723 1.085c-1.592 1.881-2.171 4.34-1.447 6.727l24.521 85.571c.723 2.459 2.604 4.34 4.991 4.991l82.171 23.581 23.581 82.099c.724 2.459 2.604 4.34 4.991 4.991l82.461 23.653 23.653 82.461c.723 2.459 2.604 4.34 4.991 4.991l85.933 24.666c.651.217 1.374.289 2.025.289.145 0 .29-.072.507-.072h.144a7.34 7.34 0 0 0 5.208-2.17l252.663-252.663c.868-.868 1.374-1.953 1.736-3.038.651-1.446.868-3.11.434-4.701zm-113.275 98.157-18.445-71.972 40.869-40.797 70.236 20.182-92.587 92.659zM448.013 682.243l-18.445-71.973 73.925-73.925 70.236 20.181zm56.999-168.105-17.649-61.483 63.436 15.624-45.787 45.787zm55.842-35.154 16.203 63.148-61.701-17.722 45.498-45.498zm2.097-22.785-71.899-17.722 92.37-92.37 19.964 69.657zm-89.766.072 19.964 69.658-73.563 73.564-71.9-17.722zm195.591-96.276 18.445 71.972-69.73-20.036-19.964-69.513zm-331.94 211.07-18.445-71.972 26.618-26.619 70.237 20.181zm9.692-120.797-17.649-61.484 63.437 15.624-45.788 45.787zm72.045 28.065-61.701-17.722 45.498-45.498 16.203 63.148zm-83.835-16.203-26.257 26.258-71.9-17.722 78.193-78.193zm-82.75-228.358 19.964 69.658-74.214 74.214-71.9-17.721zm109.586-109.586 19.964 69.658-39.784 39.783-71.9-17.721zm8.535 192.192-18.445-71.9 40.218-40.218 70.236 20.109zm-86.294-24.739-17.65-61.484 63.437 15.625-45.787 45.787zm55.842-35.154 16.202 63.148-61.628-17.722 45.498-45.498zm-57.289 57.288 70.236 20.109L226.237 460.25l-18.445-71.9zm164.56-175.554 18.445 71.972-69.73-20.036-19.964-69.513zM122.221 374.172l63.437 15.624-45.788 45.788-17.649-61.484zM150.214 446l45.498-45.498 16.203 63.147-61.628-17.721zm102.642 108.429-19.964-69.513 71.249 17.577 18.445 71.972zm91.213 41.592 63.437 15.624-45.787 45.787-17.65-61.484zm27.993 71.827 45.498-45.498 16.203 63.148-61.701-17.722z"/></g><defs><linearGradient id="b" x1="-113.063" x2="1358.19" y1="800.55" y2="-340.288" gradientUnits="userSpaceOnUse"><stop offset=".332" stop-color="#19163B"/><stop offset="1" stop-color="#4C09A2"/></linearGradient><linearGradient id="c" x1="145.946" x2="665.955" y1="497.574" y2="308.276" gradientUnits="userSpaceOnUse"><stop stop-color="#29BCFA"/><stop offset=".43" stop-color="#6464E4"/><stop offset="1" stop-color="#B45AFA"/></linearGradient><clipPath id="a"><rect width="810" height="810" fill="#fff" rx="405"/></clipPath></defs></svg>