<svg xmlns="http://www.w3.org/2000/svg" width="224" height="224" fill="none"><g clip-path="url(#a)"><path fill="#2775CA" fill-rule="evenodd" d="M111.788 0c61.739 0 111.788 50.05 111.788 111.788s-50.049 111.788-111.788 111.788S0 173.527 0 111.788 50.05 0 111.788 0" clip-rule="evenodd"/><path fill="#fff" fill-rule="evenodd" d="M137.331 33.074c-2.521-.806-4.582.69-4.582 3.337v6.509c0 1.774 1.337 3.794 3.003 4.404 26.757 9.8 45.904 35.519 45.904 65.629s-19.147 55.827-45.904 65.628c-1.827.669-3.003 2.459-3.003 4.405v6.508c0 2.647 2.061 4.143 4.582 3.338 33.813-10.804 58.298-42.482 58.298-79.879s-24.485-69.076-58.298-79.88M90.828 36.411c0-2.647-2.061-4.143-4.582-3.337-33.814 10.803-58.299 42.481-58.299 79.879s24.485 69.075 58.299 79.879c2.52.805 4.582-.691 4.582-3.338v-6.508c0-1.775-1.338-3.795-3.004-4.405-26.756-9.801-45.903-35.519-45.903-65.628s19.147-55.828 45.903-65.628c1.666-.611 3.004-2.63 3.004-4.405z" clip-rule="evenodd"/><path fill="#fff" d="m140.376 134.769-6.395-2.857a2.873 2.873 0 0 0-3.75 1.343c-3.018 6.125-8.034 10.029-14.661 10.029-5.999 0-10.811-2.938-14.499-8.875-1.442-2.297-2.587-4.861-3.46-7.67h17.173a2.89 2.89 0 0 0 2.575-1.585l4.097-5.53c.969-1.919-.425-4.185-2.574-4.185H95.68a65 65 0 0 1-.108-3.653 57 57 0 0 1 .086-3.649h19.126a2.89 2.89 0 0 0 2.575-1.584l4.097-5.53c.969-1.919-.425-4.185-2.574-4.185H97.591c3.114-10.153 9.615-16.805 17.979-16.674 6.374 0 11.322 3.49 14.496 9.204.711 1.281 2.312 1.772 3.652 1.18l6.428-2.837c1.538-.68 2.192-2.54 1.378-4.01-5.934-10.716-14.585-16.099-25.954-16.099-10.374 0-18.686 4.125-24.998 12.312-3.69 4.822-6.257 10.48-7.781 16.924h-9.338a2.88 2.88 0 0 0-2.575 1.584l-4.097 5.53c-.97 1.919.425 4.185 2.575 4.185h11.892a76 76 0 0 0-.113 3.649 66 66 0 0 0 .067 3.653h-7.749a2.89 2.89 0 0 0-2.575 1.584l-4.097 5.53c-.97 1.919.425 4.186 2.575 4.186h13.407c4.24 17.526 16.448 29.478 32.807 29.231 11.615 0 20.369-5.774 26.213-17.271.744-1.464.092-3.26-1.407-3.93"/></g><defs><clipPath id="a"><path fill="#fff" d="M0 0h223.576v223.576H0z"/></clipPath></defs></svg>