<svg xmlns="http://www.w3.org/2000/svg" width="64" height="64" fill="none"><g clip-path="url(#a)"><mask id="b" width="64" height="64" x="0" y="0" maskUnits="userSpaceOnUse" style="mask-type:alpha"><rect width="64" height="64" fill="#D9D9D9" rx="32"/></mask><g mask="url(#b)"><rect width="64" height="64" fill="#fff" rx="32"/><path fill="#000" fill-rule="evenodd" d="M55.625 32c0 13.048-10.577 23.625-23.625 23.625S8.375 45.048 8.375 32 18.952 8.375 32 8.375 55.625 18.952 55.625 32M60 32c0 15.464-12.536 28-28 28S4 47.464 4 32 16.536 4 32 4s28 12.536 28 28M34.188 15.632v-3.32h-4.376v3.224a11.75 11.75 0 0 0-6.216 3.132A11.85 11.85 0 0 0 20.47 23.8a11.9 11.9 0 0 0-.215 6.01 11.86 11.86 0 0 0 2.751 5.344 11.8 11.8 0 0 0 4.293 3.027 3.937 3.937 0 1 0 1.507-4.112 7.4 7.4 0 0 1-2.546-1.84 7.5 7.5 0 0 1-1.735-3.372 7.5 7.5 0 0 1 .136-3.8 7.5 7.5 0 0 1 1.971-3.238 7.4 7.4 0 0 1 3.29-1.838 7.34 7.34 0 0 1 3.757.029 7.4 7.4 0 0 1 3.262 1.887 7.5 7.5 0 0 1 1.923 3.267l4.21-1.193a11.86 11.86 0 0 0-3.05-5.178 11.76 11.76 0 0 0-5.837-3.16m-2.626 15.712a4.375 4.375 0 1 1 4.27-5.334 12 12 0 0 1 3.092 1.854 11.7 11.7 0 0 1 3.497 4.88c.716 1.9.914 3.949.572 5.947a11.54 11.54 0 0 1-2.514 5.436 12 12 0 0 1-4.909 3.508q-.891.342-1.82.542v3.51h-4.375v-3.365a12.16 12.16 0 0 1-5.443-2.231 11.73 11.73 0 0 1-3.774-4.676l3.997-1.778a7.36 7.36 0 0 0 2.37 2.93 7.8 7.8 0 0 0 3.597 1.441 7.9 7.9 0 0 0 3.877-.457 7.6 7.6 0 0 0 3.118-2.223 7.16 7.16 0 0 0 1.564-3.375c.21-1.23.09-2.492-.353-3.666a7.3 7.3 0 0 0-2.192-3.05 7.7 7.7 0 0 0-1.633-1.033 4.38 4.38 0 0 1-2.94 1.14" clip-rule="evenodd"/></g></g><defs><clipPath id="a"><path fill="#fff" d="M0 0h64v64H0z"/></clipPath></defs></svg>