<svg viewBox="0 0 29 29" xmlns="http://www.w3.org/2000/svg" xml:space="preserve" style="fill-rule:evenodd;clip-rule:evenodd;stroke-linejoin:round;stroke-miterlimit:2"><path d="M26.982 17.425c-1.753 7.031-8.875 11.31-15.908 9.557-7.03-1.753-11.31-8.875-9.556-15.906C3.27 4.044 10.393-.235 17.424 1.518c7.032 1.753 11.311 8.875 9.558 15.907Z" style="fill:#f7931a;fill-rule:nonzero"/><path d="M20.038 12.38c.261-1.747-1.068-2.686-2.887-3.312l.59-2.366-1.44-.359-.575 2.304c-.378-.094-.767-.183-1.154-.272l.579-2.319-1.44-.358-.59 2.365c-.314-.072-.621-.142-.92-.216l.002-.008-1.987-.496-.383 1.539s1.069.244 1.046.26c.584.145.689.531.672.837l-.672 2.696c.04.01.092.025.149.048l-.152-.038-.942 3.776c-.071.177-.252.443-.66.342.015.021-1.047-.261-1.047-.261l-.715 1.648 1.875.468c.348.087.69.179 1.026.265l-.596 2.393 1.439.359.59-2.368c.393.107.775.205 1.148.298l-.588 2.356 1.441.359.596-2.388c2.456.464 4.303.277 5.08-1.944.626-1.789-.031-2.821-1.323-3.493.941-.217 1.65-.836 1.839-2.115h-.001Zm-3.291 4.614c-.445 1.789-3.457.822-4.433.58l.791-3.171c.976.244 4.107.726 3.642 2.591Zm.446-4.64c-.406 1.627-2.913.8-3.726.598l.717-2.876c.813.203 3.432.581 3.009 2.278Z" style="fill:#fff;fill-rule:nonzero"/><path d="M14.25 27.253c7.181 0 13.003-5.822 13.003-13.003S21.431 1.247 14.25 1.247 1.247 7.069 1.247 14.25 7.069 27.253 14.25 27.253ZM28.5 14.25c0 7.87-6.38 14.25-14.25 14.25S0 22.12 0 14.25 6.38 0 14.25 0 28.5 6.38 28.5 14.25Z" style="fill:url(#a)"/><defs><linearGradient id="a" x1="0" y1="0" x2="1" y2="0" gradientUnits="userSpaceOnUse" gradientTransform="scale(-48.756) rotate(-45 -.354 .854)"><stop offset="0" style="stop-color:#1c33ff;stop-opacity:1"/><stop offset=".5" style="stop-color:#790be7;stop-opacity:1"/><stop offset="1" style="stop-color:#ff39c8;stop-opacity:1"/></linearGradient></defs></svg>