<svg xmlns="http://www.w3.org/2000/svg" xml:space="preserve" style="fill-rule:evenodd;clip-rule:evenodd;stroke-linejoin:round;stroke-miterlimit:2" viewBox="0 0 29 29"><circle cx="14.25" cy="14.25" r="13.125" style="fill:#e6e9f2"/><path d="M14.271 3.483 7.687 14.418l6.584 3.912 6.541-3.912zM7.687 15.722l6.584 3.869 6.541-3.869-6.541 9.295z" style="fill:#828384;fill-rule:nonzero"/><path d="M14.271 18.304V3.483l6.523 10.904zm6.502-2.568-6.502 9.281v-5.409z" style="fill:#2f3030;fill-rule:nonzero"/><path d="m14.271 11.474-6.584 2.944 6.584 3.912 6.541-3.912z" style="fill:#131313;fill-opacity:.8;fill-rule:nonzero"/><path d="M14.25 27.253c7.181 0 13.003-5.822 13.003-13.003S21.431 1.247 14.25 1.247 1.247 7.069 1.247 14.25 7.069 27.253 14.25 27.253M28.5 14.25c0 7.87-6.38 14.25-14.25 14.25S0 22.12 0 14.25 6.38 0 14.25 0 28.5 6.38 28.5 14.25" style="fill:url(#a)"/><defs><linearGradient id="a" x1="0" x2="1" y1="0" y2="0" gradientTransform="rotate(135 17.247 7.15)scale(48.756)" gradientUnits="userSpaceOnUse"><stop offset="0" style="stop-color:#1c33ff;stop-opacity:1"/><stop offset=".5" style="stop-color:#790be7;stop-opacity:1"/><stop offset="1" style="stop-color:#ff39c8;stop-opacity:1"/></linearGradient></defs></svg>