<svg viewBox="0 0 29 29" xmlns="http://www.w3.org/2000/svg" xml:space="preserve" style="fill-rule:evenodd;clip-rule:evenodd;stroke-linejoin:round;stroke-miterlimit:2"><path d="M14.25 27.375A13.094 13.094 0 0 0 27.375 14.25 13.094 13.094 0 0 0 14.25 1.125 13.094 13.094 0 0 0 1.125 14.25 13.094 13.094 0 0 0 14.25 27.375Z" style="fill:#2775ca;fill-rule:nonzero"/><path d="M17.859 16.328c0-1.914-1.148-2.57-3.445-2.844-1.641-.218-1.969-.656-1.969-1.422 0-.765.547-1.257 1.641-1.257.984 0 1.531.328 1.805 1.148a.41.41 0 0 0 .382.274h.875a.374.374 0 0 0 .383-.383v-.055a2.732 2.732 0 0 0-2.461-2.242V8.234c0-.218-.164-.382-.437-.437h-.82c-.219 0-.383.164-.438.437v1.258c-1.641.219-2.68 1.313-2.68 2.68 0 1.805 1.094 2.515 3.391 2.789 1.531.273 2.023.602 2.023 1.477 0 .875-.765 1.476-1.804 1.476-1.422 0-1.914-.602-2.078-1.422-.055-.219-.219-.328-.383-.328h-.93a.374.374 0 0 0-.383.383v.055c.219 1.367 1.094 2.351 2.899 2.625v1.312c0 .219.164.383.437.438h.82c.219 0 .383-.164.438-.438v-1.312c1.641-.274 2.734-1.422 2.734-2.899Z" style="fill:#fff;fill-rule:nonzero"/><path d="M11.461 22.07c-4.266-1.531-6.453-6.289-4.867-10.5.82-2.297 2.625-4.047 4.867-4.867.219-.109.328-.273.328-.547v-.765c0-.219-.109-.383-.328-.438-.055 0-.164 0-.219.055-5.195 1.64-8.039 7.164-6.398 12.359a9.839 9.839 0 0 0 6.398 6.399c.219.109.438 0 .492-.219.055-.055.055-.109.055-.219v-.766c0-.164-.164-.382-.328-.492Zm5.797-17.062c-.219-.11-.438 0-.492.219-.055.054-.055.109-.055.218v.766c0 .219.164.437.328.547 4.266 1.531 6.453 6.289 4.867 10.5-.82 2.297-2.625 4.047-4.867 4.867-.219.109-.328.273-.328.547v.766c0 .218.109.382.328.437.055 0 .164 0 .219-.055 5.195-1.64 8.039-7.164 6.398-12.359a9.916 9.916 0 0 0-6.398-6.453Z" style="fill:#fff;fill-rule:nonzero"/><path d="M14.25 27.253c7.181 0 13.003-5.822 13.003-13.003S21.431 1.247 14.25 1.247 1.247 7.069 1.247 14.25 7.069 27.253 14.25 27.253ZM28.5 14.25c0 7.87-6.38 14.25-14.25 14.25S0 22.12 0 14.25 6.38 0 14.25 0 28.5 6.38 28.5 14.25Z" style="fill:url(#a)"/><defs><linearGradient id="a" x1="0" y1="0" x2="1" y2="0" gradientUnits="userSpaceOnUse" gradientTransform="scale(-48.756) rotate(-45 -.354 .854)"><stop offset="0" style="stop-color:#1c33ff;stop-opacity:1"/><stop offset=".5" style="stop-color:#790be7;stop-opacity:1"/><stop offset="1" style="stop-color:#ff39c8;stop-opacity:1"/></linearGradient></defs></svg>