<svg xmlns="http://www.w3.org/2000/svg" xml:space="preserve" style="fill-rule:evenodd;clip-rule:evenodd;stroke-linejoin:round;stroke-miterlimit:2" viewBox="0 0 29 29"><circle cx="14.286" cy="14.214" r="13.089" style="fill:#26a17b"/><path d="M15.858 15.346v-.002a25 25 0 0 1-1.589.034c-.826 0-1.408-.024-1.612-.034v.002c-3.181-.139-5.555-.693-5.555-1.356 0-.662 2.374-1.216 5.555-1.358v2.163c.208.015.803.05 1.626.05a19 19 0 0 0 1.575-.049v-2.162c3.174.141 5.543.695 5.543 1.356 0 .663-2.369 1.215-5.543 1.356m0-2.937v-1.936h4.429V7.522H8.228v2.951h4.429v1.935c-3.6.165-6.307.879-6.307 1.733s2.707 1.566 6.307 1.732v6.203h3.201v-6.204c3.594-.166 6.294-.878 6.294-1.731s-2.7-1.566-6.294-1.732" style="fill:#fff"/><path d="M14.25 27.253c7.181 0 13.003-5.822 13.003-13.003S21.431 1.247 14.25 1.247 1.247 7.069 1.247 14.25 7.069 27.253 14.25 27.253M28.5 14.25c0 7.87-6.38 14.25-14.25 14.25S0 22.12 0 14.25 6.38 0 14.25 0 28.5 6.38 28.5 14.25" style="fill:url(#a)"/><defs><linearGradient id="a" x1="0" x2="1" y1="0" y2="0" gradientTransform="rotate(135 17.247 7.15)scale(48.756)" gradientUnits="userSpaceOnUse"><stop offset="0" style="stop-color:#1c33ff;stop-opacity:1"/><stop offset=".5" style="stop-color:#790be7;stop-opacity:1"/><stop offset="1" style="stop-color:#ff39c8;stop-opacity:1"/></linearGradient></defs></svg>