<svg xmlns="http://www.w3.org/2000/svg" width="24" height="24" fill="none"><g clip-path="url(#a)"><path fill="#33CC59" d="M21.036 19.895a11.96 11.96 0 0 0 2.936-8.702C23.526 4.581 17.805-.418 11.193.028a11.96 11.96 0 0 0-8.23 4.077l18.073 15.791z"/><path fill="#0095FF" d="M4.77 5.68q0 0-.002.003L2.963 4.105a11.97 11.97 0 0 0-2.935 8.702c.445 6.612 6.167 11.611 12.779 11.166a11.96 11.96 0 0 0 8.229-4.078z"/><path fill="#000" d="M21.9 11.33c-.368-5.467-5.1-9.602-10.567-9.234a9.9 9.9 0 0 0-6.805 3.372A9.9 9.9 0 0 0 2.1 12.664c.368 5.467 5.1 9.602 10.567 9.233a9.9 9.9 0 0 0 6.805-3.37A9.9 9.9 0 0 0 21.9 11.33"/><path fill="#fff" d="M7.067 7.698v1.435h.898v-.359h8.071v.36h.897V7.697zM8.592 11.237v1.525h.897v-.22H14.6v.22h.897v-1.525h-.896v.228H9.488v-.228zM16.036 14.873h.897v1.435H7.067v-1.435h.898v.359h8.071z"/></g><defs><clipPath id="a"><path fill="#fff" d="M0 0h24v24H0z"/></clipPath></defs></svg>