<svg id="Layer_1" data-name="Layer 1" xmlns="http://www.w3.org/2000/svg" xmlns:xlink="http://www.w3.org/1999/xlink" viewBox="0 0 300 300">
    <defs>
        <style>.cls-1,.cls-4{fill:none;}.cls-1,.cls-3,.cls-4{stroke-miterlimit:10;}.cls-1{stroke-width:6.62px;stroke:url(#linear-gradient);}.cls-2{fill:url(#linear-gradient-2);}.cls-3{stroke-width:5.82px;stroke:url(#linear-gradient-3);}.cls-4{stroke-width:4.07px;stroke:url(#linear-gradient-4);}</style>
        <linearGradient id="linear-gradient" x1="6936.88" y1="28.37" x2="7034.91" y2="297.69" gradientTransform="translate(6886.37 -1707.6) rotate(163.25)" gradientUnits="userSpaceOnUse">
            <stop offset="0.24" stop-color="#e9540e"/>
            <stop offset="0.54" stop-color="#fff"/>
            <stop offset="0.71" stop-color="#e9540e"/>
        </linearGradient>
        <linearGradient id="linear-gradient-2" x1="258.89" y1="87.13" x2="41.11" y2="212.87" gradientUnits="userSpaceOnUse">
            <stop offset="0" stop-color="#e9540e"/>
            <stop offset="0.39" stop-color="#fce6dc"/>
            <stop offset="0.46" stop-color="#fff"/>
            <stop offset="0.47" stop-color="#fefbf9"/>
            <stop offset="0.55" stop-color="#f9cfbb"/>
            <stop offset="0.64" stop-color="#f4aa87"/>
            <stop offset="0.72" stop-color="#f08b5b"/>
            <stop offset="0.8" stop-color="#ed733a"/>
            <stop offset="0.87" stop-color="#eb6222"/>
            <stop offset="0.94" stop-color="#e95813"/>
            <stop offset="1" stop-color="#e9540e"/>
        </linearGradient>
        <linearGradient id="linear-gradient-3" x1="83.36" y1="156.81" x2="230.27" y2="156.81" gradientUnits="userSpaceOnUse">
            <stop offset="0" stop-color="#231f20"/>
            <stop offset="0.16" stop-color="#fff"/>
            <stop offset="0.16" stop-color="#e5e5e5"/>
            <stop offset="0.16" stop-color="#bdbcbc"/>
            <stop offset="0.17" stop-color="#989697"/>
            <stop offset="0.17" stop-color="#787676"/>
            <stop offset="0.18" stop-color="#5d5a5b"/>
            <stop offset="0.19" stop-color="#484445"/>
            <stop offset="0.19" stop-color="#373334"/>
            <stop offset="0.2" stop-color="#2c2829"/>
            <stop offset="0.22" stop-color="#252122"/>
            <stop offset="0.25" stop-color="#231f20"/>
            <stop offset="0.26" stop-color="#242021"/>
            <stop offset="0.3" stop-color="#444244"/>
            <stop offset="0.35" stop-color="#5a5a5d"/>
            <stop offset="0.39" stop-color="#68696c"/>
            <stop offset="0.43" stop-color="#6d6e71"/>
            <stop offset="0.43" stop-color="#66676a"/>
            <stop offset="0.47" stop-color="#47484a"/>
            <stop offset="0.52" stop-color="#2d2d2f"/>
            <stop offset="0.56" stop-color="#19191a"/>
            <stop offset="0.61" stop-color="#0b0b0b"/>
            <stop offset="0.67" stop-color="#030303"/>
            <stop offset="0.77"/>
            <stop offset="1" stop-color="#231f20"/>
        </linearGradient>
        <linearGradient id="linear-gradient-4" x1="-885.98" y1="-4444.44" x2="-797.27" y2="-4200.71" gradientTransform="translate(-2311.4 3801.64) rotate(45)" gradientUnits="userSpaceOnUse">
            <stop offset="0" stop-color="#fff"/>
            <stop offset="0.24" stop-color="#e9540e"/>
            <stop offset="0.54" stop-color="#fff"/>
            <stop offset="0.71" stop-color="#e9540e"/>
            <stop offset="1" stop-color="#fff"/>
        </linearGradient>
    </defs>
    <ellipse cx="150" cy="150" rx="139.94" ry="139.96"/>
    <ellipse class="cls-1" cx="150" cy="150" rx="139.94" ry="139.96"/>
    <ellipse class="cls-2" cx="150" cy="150" rx="125.69" ry="125.71"/>
    <path class="cls-3" d="M227.33,85.61a13.66,13.66,0,0,1-1.21,6.51,18.11,18.11,0,0,1-9.15,9.25,15,15,0,0,1-6.39,1.44H137.84a18.32,18.32,0,0,0-8,1.65,17.77,17.77,0,0,0-5.73,4.3,19.17,19.17,0,0,0-3.53,5.84,17.05,17.05,0,0,0-1.21,6.06,17.62,17.62,0,0,0,1.21,6.29,19,19,0,0,0,9.26,10.25,17.39,17.39,0,0,0,8,1.76h48.49q9,0,13.56,5.29a17.36,17.36,0,0,1,0,23.37q-4.51,5.28-13.56,5.29H137.84a18.32,18.32,0,0,0-8,1.65,18.55,18.55,0,0,0-5.73,4.19,17.87,17.87,0,0,0-3.53,5.73,17.05,17.05,0,0,0-1.21,6.06v38.14a15.09,15.09,0,0,1-4.6,11,14.91,14.91,0,0,1-11,4.63h-2a14.91,14.91,0,0,1-10.95-4.63,15.09,15.09,0,0,1-4.6-11V190.54a36.86,36.86,0,0,1,1.54-10.8,46.63,46.63,0,0,1,4-9.37,55.53,55.53,0,0,1,5.4-7.93q3-3.65,5.62-6.51-2.64-2.87-5.62-6.61a58,58,0,0,1-5.4-8.16,48.14,48.14,0,0,1-4-9.59,37.91,37.91,0,0,1-1.54-10.91,53.93,53.93,0,0,1,4.27-22.15,46.88,46.88,0,0,1,27.83-25.9,57.72,57.72,0,0,1,19.47-3.31h72.74a15.73,15.73,0,0,1,11.68,5A16.69,16.69,0,0,1,227.33,85.61Z"/>
    <ellipse class="cls-4" cx="150" cy="150" rx="127.6" ry="127.61"/>
</svg>