<svg xmlns="http://www.w3.org/2000/svg" data-name="Layer 1" viewBox="0 0 300 300"><defs><linearGradient id="a" x1="6936.88" x2="7034.91" y1="28.37" y2="297.69" gradientTransform="rotate(163.25 3568.883 -346.89)" gradientUnits="userSpaceOnUse"><stop offset=".24" stop-color="#e9540e"/><stop offset=".54" stop-color="#fff"/><stop offset=".71" stop-color="#e9540e"/></linearGradient><linearGradient id="b" x1="258.89" x2="41.11" y1="87.13" y2="212.87" gradientUnits="userSpaceOnUse"><stop offset="0" stop-color="#e9540e"/><stop offset=".39" stop-color="#fce6dc"/><stop offset=".46" stop-color="#fff"/><stop offset=".47" stop-color="#fefbf9"/><stop offset=".55" stop-color="#f9cfbb"/><stop offset=".64" stop-color="#f4aa87"/><stop offset=".72" stop-color="#f08b5b"/><stop offset=".8" stop-color="#ed733a"/><stop offset=".87" stop-color="#eb6222"/><stop offset=".94" stop-color="#e95813"/><stop offset="1" stop-color="#e9540e"/></linearGradient><linearGradient id="c" x1="83.36" x2="230.27" y1="156.81" y2="156.81" gradientUnits="userSpaceOnUse"><stop offset="0" stop-color="#231f20"/><stop offset=".16" stop-color="#fff"/><stop offset=".16" stop-color="#e5e5e5"/><stop offset=".16" stop-color="#bdbcbc"/><stop offset=".17" stop-color="#989697"/><stop offset=".17" stop-color="#787676"/><stop offset=".18" stop-color="#5d5a5b"/><stop offset=".19" stop-color="#484445"/><stop offset=".19" stop-color="#373334"/><stop offset=".2" stop-color="#2c2829"/><stop offset=".22" stop-color="#252122"/><stop offset=".25" stop-color="#231f20"/><stop offset=".26" stop-color="#242021"/><stop offset=".3" stop-color="#444244"/><stop offset=".35" stop-color="#5a5a5d"/><stop offset=".39" stop-color="#68696c"/><stop offset=".43" stop-color="#6d6e71"/><stop offset=".43" stop-color="#66676a"/><stop offset=".47" stop-color="#47484a"/><stop offset=".52" stop-color="#2d2d2f"/><stop offset=".56" stop-color="#19191a"/><stop offset=".61" stop-color="#0b0b0b"/><stop offset=".67" stop-color="#030303"/><stop offset=".77"/><stop offset="1" stop-color="#231f20"/></linearGradient><linearGradient id="d" x1="-885.98" x2="-797.27" y1="-4444.44" y2="-4200.71" gradientTransform="rotate(45 -5744.685 -889.287)" gradientUnits="userSpaceOnUse"><stop offset="0" stop-color="#fff"/><stop offset=".24" stop-color="#e9540e"/><stop offset=".54" stop-color="#fff"/><stop offset=".71" stop-color="#e9540e"/><stop offset="1" stop-color="#fff"/></linearGradient></defs><ellipse cx="150" cy="150" rx="139.94" ry="139.96"/><ellipse cx="150" cy="150" rx="139.94" ry="139.96" style="fill:none;stroke-miterlimit:10;stroke-width:6.62px;stroke:url(#a)"/><ellipse cx="150" cy="150" rx="125.69" ry="125.71" style="fill:url(#b)"/><path d="M227.33 85.61a13.66 13.66 0 0 1-1.21 6.51 18.1 18.1 0 0 1-9.15 9.25 15 15 0 0 1-6.39 1.44h-72.74a18.3 18.3 0 0 0-8 1.65 17.8 17.8 0 0 0-5.73 4.3 19.2 19.2 0 0 0-3.53 5.84 17 17 0 0 0-1.21 6.06 17.6 17.6 0 0 0 1.21 6.29 19 19 0 0 0 9.26 10.25 17.4 17.4 0 0 0 8 1.76h48.49q9 0 13.56 5.29a17.36 17.36 0 0 1 0 23.37q-4.51 5.28-13.56 5.29h-48.49a18.3 18.3 0 0 0-8 1.65 18.6 18.6 0 0 0-5.73 4.19 17.9 17.9 0 0 0-3.53 5.73 17 17 0 0 0-1.21 6.06v38.14a15.1 15.1 0 0 1-4.6 11 14.9 14.9 0 0 1-11 4.63h-2a14.9 14.9 0 0 1-10.95-4.63 15.1 15.1 0 0 1-4.6-11v-38.14a36.9 36.9 0 0 1 1.54-10.8 46.6 46.6 0 0 1 4-9.37 55.5 55.5 0 0 1 5.4-7.93q3-3.65 5.62-6.51-2.64-2.87-5.62-6.61a58 58 0 0 1-5.4-8.16 48 48 0 0 1-4-9.59 38 38 0 0 1-1.54-10.91 53.9 53.9 0 0 1 4.27-22.15 46.88 46.88 0 0 1 27.83-25.9 57.7 57.7 0 0 1 19.47-3.31h72.74a15.73 15.73 0 0 1 11.68 5 16.7 16.7 0 0 1 5.12 11.31Z" style="stroke-miterlimit:10;stroke-width:5.82px;stroke:url(#c)"/><ellipse cx="150" cy="150" rx="127.6" ry="127.61" style="fill:none;stroke-miterlimit:10;stroke-width:4.07px;stroke:url(#d)"/></svg>