<svg xmlns="http://www.w3.org/2000/svg" xmlns:xlink="http://www.w3.org/1999/xlink" viewBox="0 0 44 44"><defs><linearGradient id="a" x1="6.65" x2="40.11" y1="28.01" y2="28.01" gradientUnits="userSpaceOnUse"><stop offset="0" stop-color="#1b75ba"/><stop offset=".17" stop-color="#2967b2"/><stop offset=".72" stop-color="#543d99"/><stop offset="1" stop-color="#652d8f"/></linearGradient><linearGradient xlink:href="#a" id="b" x1="3.89" x2="37.3" y1="15.96" y2="15.96"/></defs><circle cx="22" cy="22" r="22" style="fill:#fff"/><path d="M32.77 14.87c-2.82 0-5.34 1.11-7.22 4.43a.3.3 0 0 0 .26.44H31a.38.38 0 0 1 .37.38v3.76a.38.38 0 0 1-.37.38h-7a.71.71 0 0 0-.65.43c-3.06 7-8.48 8.52-11.59 8.77a15 15 0 0 1-4.86-.41.2.2 0 0 0-.21.32c3.73 4.89 8.58 7.78 16.22 7.78 9 0 17.2-8.28 17.2-17.12 0-6.15-3.49-9.16-7.34-9.16" style="fill:url(#a)"/><path d="M37.25 10.55c-3.72-4.84-8.57-7.7-16.16-7.7-9 0-17.2 8.28-17.2 17.12 0 6.15 3.49 9.1 7.34 9.1a7.75 7.75 0 0 0 7.22-4.37.3.3 0 0 0-.26-.44H13a.38.38 0 0 1-.37-.38v-3.76a.38.38 0 0 1 .37-.38h7a.71.71 0 0 0 .65-.43c3.06-7 8.48-8.52 11.59-8.77a15 15 0 0 1 4.76.38.23.23 0 0 0 .25-.37" style="fill:url(#b)"/></svg>