<svg xmlns="http://www.w3.org/2000/svg" width="78" height="78" fill="none"><g fill-rule="evenodd" clip-path="url(#a)" clip-rule="evenodd"><path fill="#222C3B" stroke="#00F3AB" stroke-opacity=".2" d="M39 1c20.987 0 38 17.013 38 38S59.987 77 39 77 1 59.987 1 39 18.013 1 39 1Z"/><path fill="url(#b)" d="M41.404 49.781q2.59.148 4.96.619l1.295 4.024.075-3.721.6.154q2.347.863 4.694 1.074L51.355 60h-6.72zm-5.465.043L32.883 60h-6.487l-1.6-8.01q2.672-.1 4.872-1.133a31 31 0 0 1 .707-.18l.21 3.747 1.114-4.036a35 35 0 0 1 4.242-.564M23.958 18l6.076 28.077q-.184.102-.366.209a13.5 13.5 0 0 1-5.786 1.139L18 18zm29.192 0 6.851.328-6.033 29.088q-2.506-.11-5.634-1.13l-.129-.075zM40.59 32.25l3.956 12.45q-2.27-.627-4.924-.692l-1.01-3.683-.985 3.713a19.7 19.7 0 0 0-4.31.699l3.695-12.487z"/></g><defs><linearGradient id="b" x1="21.5" x2="29.5" y1="18" y2="58" gradientUnits="userSpaceOnUse"><stop stop-color="#85E0A3"/><stop offset="1" stop-color="#80CAFF"/></linearGradient><clipPath id="a"><path fill="#fff" d="M0 0h78v78H0z"/></clipPath></defs></svg>