<svg xmlns="http://www.w3.org/2000/svg" width="153.333" height="238.667" viewBox="0 0 115 179" xmlns:v="https://vecta.io/nano"><path fill="#010101" d="M11.72.6c4.89-.21 9.74.64 14.56 1.33l21.98 2.86c4.08.4 6.94 3.59 10.04 5.91l22.09 16.92c2.3 1.7 4.33 3.72 6.09 5.96 3.95 4.91 10.3 6.89 14.69 11.28 2.32 2.81 3.87 6.14 5.74 9.24 2.49 4.56 5.85 8.69 7.31 13.75-6.56-.5-12.78-2.81-19.22-3.93.87 3.97 2.36 7.85 2.58 11.93-.6 3.22-2.43 6.03-3.78 8.97l-20.81 42.19c-.83 2.08-2.75 3.29-4.68 4.22-9.55 4.76-18.88 9.92-28.34 14.85.56 4.12 2.54 8.14 2.17 12.32-2.56 6.94-5.32 13.85-8.38 20.6h-.91c-4.13-10.14-5.56-21.14-9.75-31.26-3.38-.06-6.76-.22-10.14.01-4.19.28-8.23 2.05-12.47 1.52 3.02-4.19 7.13-7.38 10.63-11.14 1.35-1.26 2.55-2.81 4.3-3.53 4.62-.8 9.39-.38 14-1.32 3.94-3.67 7.03-8.17 10.68-12.14 2.72-2.65 2.13-6.7 2.29-10.15-.15-8.15.71-16.28.76-24.43-5.89 4.53-7.8 12.05-11.63 18.11l-2.11.19c-1.3-4.55-2.32-9.18-3.42-13.78-1.28-5.37-3.61-10.55-3.87-16.13.33-5.54 3.97-10.32 4.28-15.84-3.74-6.55-8.81-12.24-12.86-18.59-1.34-1.88-1.14-4.27-1.21-6.46.09-11.16-1.17-22.3-.61-33.46m2.19 1.53c.1 2.85-.15 5.74.3 8.57 1.65 4.33 3.64 8.54 5.17 12.92.61 1.83 1.69 3.66 3.58 4.4l24.17 12c5.17-.84 10.18-2.92 15.23-4.4-2.21-3.38-5.3-6.18-8.61-8.44-3.11-.38-6.45.24-9.26-1.49-1.58-2.14-3.41-4.14-4.39-6.65a190.53 190.53 0 0 1 7.56-.01c4.85 5.22 10.14 10.01 15 15.21 2.23-5.4 1.04-11.31 1.39-16.98-4.57-3.22-8.81-6.88-13.47-9.96-12.16-2.12-24.57-2.88-36.67-5.17m.17 12.28c-.18 7.33-.1 14.68-.01 22.02 2.48-2.49 3.49-5.99 5.71-8.7-2.09-4.36-3.36-9.08-5.7-13.32m52.08 4.43c-1.46 5.34-1.23 10.87-1.12 16.34 5.67-1.6 11.72-1.49 17.28-3.47-5.2-4.53-10.97-8.34-16.16-12.87M42.07 20c1.09 1.6 2.09 3.25 3.09 4.91 2.49 0 4.95.4 7.38.96-1.44-2.4-4.08-3.72-5.86-5.84L42.07 20m-21.78 8.71c-1.67 3.41-3.97 6.47-5.58 9.91 5.51 1.34 10.74 3.61 16.22 5.05-3.2-5.2-6.98-10.05-10.64-14.96m2.44.98c3.43 4.95 7.07 9.75 10.63 14.61 4.13-.75 8.17-2.05 12-3.74-7.66-3.37-14.85-7.78-22.63-10.87m42.12 6.33c3.83 6.47 7.72 12.92 11.94 19.14 4.65 5.01 9.67 9.67 14.83 14.16 1.63 1.22 2.29 3.54 4.42 4.07-.87-2.02-1.86-4.01-2.25-6.19l-9.15-32.57c-3.38 6.12-4.96 13.13-8.76 19.01 1.1-7.06 5.14-13.38 7.51-20.11-6.25.37-12.27 2.57-18.54 2.49m-26.37 8.4l-1.91 1.29c12.42 1.86 24.55 5.45 36.95 7.44-2.83-5.69-6.63-10.85-9.82-16.34-8.46 2.35-16.76 5.24-25.22 7.61m49.68-6.57c-.18 1.17-.97 2.38-.46 3.56 2.04 6.52 3.98 13.09 5.58 19.73 2.59-.83 5.23-1.49 7.82-2.3-4.51-6.5-9.87-12.64-13.04-19.92 5.36 4.94 8 12.23 13.04 17.48-.51-3.39-1.45-6.72-1.14-10.19-3.81-2.96-7.76-5.74-11.8-8.36m-72.58 2.18c8 12.1 17.05 23.57 24.94 35.78l1.56 1.42c-.12-3.68-2.06-6.92-2.93-10.44-1.54-6.22-4.05-12.15-5.53-18.39-.47-1.11-.69-2.63-2.07-2.98-5.36-1.68-10.65-3.58-15.97-5.39m18.96 6.12l22.58 35.24 17-26.25c-13.07-3.5-26.5-5.51-39.58-8.99m67.31 3.14c.16 3.16.17 6.33.16 9.49 2.84 1.71 5.55 3.62 8.31 5.47-2.03-5.36-5.72-9.94-8.47-14.96m-65.99 2.16L45.24 82h10.9L43.82 63.17c-2.64-3.91-4.63-8.33-7.96-11.72m39.45 4.36c-5.49 8.72-11.52 17.1-16.76 25.99 3.47-.7 6.91-1.6 10.44-1.83 8.85-1.05 17.43-4.09 26.4-4.11-1.22-2.98-4.06-4.79-6.14-7.11-4.62-4.34-8.72-9.29-13.94-12.94m20.56 5.64c4 2.07 8.65 2.25 12.92 3.57-2.11-1.91-4.59-3.35-6.76-5.19a42.3 42.3 0 0 1-6.16 1.62m-66.85.11l-.03 16.21c4.74 1.17 9.32 3.25 14.26 3.41L29.02 61.56m-5.11 12.39c.52 1.74 2.39 2.8 4.02 3.39.08-4.62.18-9.25-.02-13.87-1.88 3.24-2.96 6.89-4 10.48m-.02 1.82c1.9 6.18 2.71 12.71 4.99 18.74.48-5.08.07-10.18-1.11-15.14-1.07-1.42-2.48-2.53-3.88-3.6m18.24 1.36c.62.62.62.62 0 0m38.88 1.9c-7.76.99-15.36 3-23.1 4.08 4.7 6.86 8.56 14.29 13.3 21.13 2.87-4.71 7.65-7.78 10.68-12.36 4.49-5.03 8.68-10.27 13.47-15.03-4.88-.04-9.49 1.94-14.35 2.18m-50.28.82c1.98 3.57 4.08 7.09 6.54 10.34 2.29-2.09 4.54-4.3 5.89-7.14-3.92-1.83-8.33-1.94-12.43-3.2m-.71 1.74c.09 3.92-.48 7.95.63 11.77.63 2.67.2 5.43.4 8.13 2.13-3.18 3.22-6.98 5.68-9.95l-6.71-9.95m56.54 6.92c-2.15 3.11-5.38 5.28-7.51 8.41-1.94 2.83-4.56 5.09-7.03 7.44-.09 6.72-.09 13.44.03 20.16 3.08-5.28 5.6-10.87 8.07-16.45 4.19-8.93 8.84-17.64 13.02-26.57-2.4 2.12-4.76 4.35-6.58 7.01m-40.35-5.43l-1.13 1.13c-.3 6.29.15 12.6-.18 18.89-.7 3.77-1.26 7.59-.81 11.43l12.12-31.5c-3.33-.01-6.67-.18-10 .05m11.02 1.47c-4.72 10.72-8.28 21.9-12.53 32.8 8.66-3.7 16.95-8.25 25.38-12.47-4.66-6.54-8.02-13.92-12.85-20.33M46.27 118.4c-.14.31-.44.92-.58 1.23 8.23 2.08 16.06 5.47 24.26 7.65l-.02-20.59c-7.99 3.68-15.79 7.77-23.66 11.71m-8.04 7.81c-2.51 2.36-4.58 5.1-6.49 7.97 1.75-.45 3.46-1.07 5.27-1.19 10.05-1.25 19.95-3.59 30.07-4.27l-1.49-1.38-21.63-7.24c-2.66.85-3.77 4.2-5.73 6.11m-7.65 9.16c3.32 2.52 5.17 6.4 8.26 9.17 4.44-1.99 8.39-4.87 12.82-6.87 4.9-2.61 10.09-4.7 14.78-7.67-11.97 1.36-23.88 3.8-35.86 5.37m-11.32.92c-.1 1.47 3.56 1.36 3.49-.04-1.17-.63-2.34-.62-3.49.04m2.54 2.08c.23 2.23 1.42 4.15 2.53 6.04 1.43-2.81 2.86-5.61 4.13-8.49-2.16.95-4.35 1.89-6.66 2.45m3.26 7.8c4-1 8.07-1.42 12.19-1.17-2.32-3.11-5.55-5.85-6.67-9.63-2.15 3.43-3.87 7.11-5.52 10.8m-10.65-9.03c-3.34 3.24-6.7 6.47-9.76 9.98 2.07-.08 4.04-.72 5.96-1.45 2.83-2.57 6.19-4.53 8.64-7.51-1.56-.41-3.18-1.69-4.84-1.02m-1.79 8.83a238.11 238.11 0 0 0 10.69-.04c-.86-2.2-1.94-4.3-3.11-6.34-2.5 2.16-5.45 3.8-7.58 6.38M25.6 147c2.84 1.85 5.02 4.51 7.86 6.34 1.09-2.59 2.47-5.03 3.75-7.52-3.79 1.09-7.69 1.37-11.61 1.18m11.99.68c-.99 2.23-2.09 4.41-3.66 6.29 2.02.91 4.14 1.6 6.25 2.25-.76-2.86-.68-6.14-2.59-8.54m-11.8.95c1.98 6.34 3.97 12.7 5.35 19.21.27 1.35 1.09 2.51 1.77 3.68.2-5.38.06-10.78.06-16.17-2.43-2.21-4.58-4.71-7.18-6.72m8.26 7.15l.02 17.72c2.33-5.02 4.12-10.26 6.16-15.39-1.94-1.08-3.93-2.13-6.18-2.33z"/><g fill="#fff"><path d="M13.91 2.13c12.1 2.29 24.51 3.05 36.67 5.17 4.66 3.08 8.9 6.74 13.47 9.96-.35 5.67.84 11.58-1.39 16.98-4.86-5.2-10.15-9.99-15-15.21a190.53 190.53 0 0 0-7.56.01c.98 2.51 2.81 4.51 4.39 6.65 2.81 1.73 6.15 1.11 9.26 1.49 3.31 2.26 6.4 5.06 8.61 8.44-5.05 1.48-10.06 3.56-15.23 4.4l-24.17-12c-1.89-.74-2.97-2.57-3.58-4.4-1.53-4.38-3.52-8.59-5.17-12.92-.45-2.83-.2-5.72-.3-8.57zm.17 12.28c2.34 4.24 3.61 8.96 5.7 13.32-2.22 2.71-3.23 6.21-5.71 8.7l.01-22.02zm52.08 4.43c5.19 4.53 10.96 8.34 16.16 12.87-5.56 1.98-11.61 1.87-17.28 3.47-.11-5.47-.34-11 1.12-16.34zM42.07 20l4.61.03c1.78 2.12 4.42 3.44 5.86 5.84-2.43-.56-4.89-.96-7.38-.96L42.07 20zm-21.78 8.71c3.66 4.91 7.44 9.76 10.64 14.96-5.48-1.44-10.71-3.71-16.22-5.05 1.61-3.44 3.91-6.5 5.58-9.91zm2.44.98c7.78 3.09 14.97 7.5 22.63 10.87-3.83 1.69-7.87 2.99-12 3.74L22.73 29.69zm42.12 6.33c6.27.08 12.29-2.12 18.54-2.49-2.37 6.73-6.41 13.05-7.51 20.11 3.8-5.88 5.38-12.89 8.76-19.01 2.85 10.91 6.1 21.71 9.15 32.57.39 2.18 1.38 4.17 2.25 6.19-2.13-.53-2.79-2.85-4.42-4.07-5.16-4.49-10.18-9.15-14.83-14.16-4.22-6.22-8.11-12.67-11.94-19.14zm-26.37 8.4c8.46-2.37 16.76-5.26 25.22-7.61 3.19 5.49 6.99 10.65 9.82 16.34-12.4-1.99-24.53-5.58-36.95-7.44l1.91-1.29zm49.68-6.57c4.04 2.62 7.99 5.4 11.8 8.36-.31 3.47.63 6.8 1.14 10.19-5.04-5.25-7.68-12.54-13.04-17.48 3.17 7.28 8.53 13.42 13.04 19.92-2.59.81-5.23 1.47-7.82 2.3-1.6-6.64-3.54-13.21-5.58-19.73-.51-1.18.28-2.39.46-3.56zm-72.58 2.18l15.97 5.39c1.38.35 1.6 1.87 2.07 2.98 1.48 6.24 3.99 12.17 5.53 18.39.87 3.52 2.81 6.76 2.93 10.44l-1.56-1.42C32.63 63.6 23.58 52.13 15.58 40.03zm18.96 6.12c13.08 3.48 26.51 5.49 39.58 8.99l-17 26.25C49.33 69.82 42.21 57.8 34.54 46.15zm67.31 3.14c2.75 5.02 6.44 9.6 8.47 14.96-2.76-1.85-5.47-3.76-8.31-5.47.01-3.16 0-6.33-.16-9.49zm-65.99 2.16c3.33 3.39 5.32 7.81 7.96 11.72L56.14 82c-3.63 0-7.26-.01-10.9 0-2.85-10.26-6.38-20.34-9.38-30.55zm39.45 4.36c5.22 3.65 9.32 8.6 13.94 12.94 2.08 2.32 4.92 4.13 6.14 7.11-8.97.02-17.55 3.06-26.4 4.11-3.53.23-6.97 1.13-10.44 1.83 5.24-8.89 11.27-17.27 16.76-25.99zm20.56 5.64a42.3 42.3 0 0 0 6.16-1.62l6.76 5.19c-4.27-1.32-8.92-1.5-12.92-3.57zm-66.85.11l14.23 19.62c-4.94-.16-9.52-2.24-14.26-3.41l.03-16.21zm-5.11 12.39c1.04-3.59 2.12-7.24 4-10.48.2 4.62.1 9.25.02 13.87-1.63-.59-3.5-1.65-4.02-3.39zm-.02 1.82c1.4 1.07 2.81 2.18 3.88 3.6 1.18 4.96 1.59 10.06 1.11 15.14-2.28-6.03-3.09-12.56-4.99-18.74zm18.24 1.36c.62.62.62.62 0 0zm38.88 1.9c4.86-.24 9.47-2.22 14.35-2.18-4.79 4.76-8.98 10-13.47 15.03-3.03 4.58-7.81 7.65-10.68 12.36-4.74-6.84-8.6-14.27-13.3-21.13 7.74-1.08 15.34-3.09 23.1-4.08zm-50.28.82c4.1 1.26 8.51 1.37 12.43 3.2-1.35 2.84-3.6 5.05-5.89 7.14-2.46-3.25-4.56-6.77-6.54-10.34zm-.71 1.74c2.18 3.35 4.45 6.65 6.71 9.95-2.46 2.97-3.55 6.77-5.68 9.95-.2-2.7.23-5.46-.4-8.13-1.11-3.82-.54-7.85-.63-11.77zm56.54 6.92c1.82-2.66 4.18-4.89 6.58-7.01-4.18 8.93-8.83 17.64-13.02 26.57-2.47 5.58-4.99 11.17-8.07 16.45-.12-6.72-.12-13.44-.03-20.16 2.47-2.35 5.09-4.61 7.03-7.44 2.13-3.13 5.36-5.3 7.51-8.41zm-40.35-5.43c3.33-.23 6.67-.06 10-.05-3.74 10.61-7.95 21.06-12.12 31.5-.45-3.84.11-7.66.81-11.43.33-6.29-.12-12.6.18-18.89l1.13-1.13zm11.02 1.47c4.83 6.41 8.19 13.79 12.85 20.33-8.43 4.22-16.72 8.77-25.38 12.47 4.25-10.9 7.81-22.08 12.53-32.8zM46.27 118.4l23.66-11.71c.13 6.86.11 13.73.02 20.59-8.2-2.18-16.03-5.57-24.26-7.65.14-.31.44-.92.58-1.23zm-8.04 7.81c1.96-1.91 3.07-5.26 5.73-6.11l21.63 7.24 1.49 1.38c-10.12.68-20.02 3.02-30.07 4.27-1.81.12-3.52.74-5.27 1.19 1.91-2.87 3.98-5.61 6.49-7.97zm-7.65 9.16c11.98-1.57 23.89-4.01 35.86-5.37-4.69 2.97-9.88 5.06-14.78 7.67-4.43 2-8.38 4.88-12.82 6.87-3.09-2.77-4.94-6.65-8.26-9.17z"/><path d="M19.26 136.29c1.15-.66 2.32-.67 3.49-.04.07 1.4-3.59 1.51-3.49.04zm2.54 2.08c2.31-.56 4.5-1.5 6.66-2.45l-4.13 8.49c-1.11-1.89-2.3-3.81-2.53-6.04zm3.26 7.8c1.65-3.69 3.37-7.37 5.52-10.8 1.12 3.78 4.35 6.52 6.67 9.63-4.12-.25-8.19.17-12.19 1.17zm-10.65-9.03c1.66-.67 3.28.61 4.84 1.02-2.45 2.98-5.81 4.94-8.64 7.51-1.92.73-3.89 1.37-5.96 1.45 3.06-3.51 6.42-6.74 9.76-9.98zm-1.79 8.83c2.13-2.58 5.08-4.22 7.58-6.38 1.17 2.04 2.25 4.14 3.11 6.34a238.11 238.11 0 0 1-10.69.04zM25.6 147c3.92.19 7.82-.09 11.61-1.18-1.28 2.49-2.66 4.93-3.75 7.52-2.84-1.83-5.02-4.49-7.86-6.34zm11.99.68c1.91 2.4 1.83 5.68 2.59 8.54l-6.25-2.25c1.57-1.88 2.67-4.06 3.66-6.29zm-11.8.95c2.6 2.01 4.75 4.51 7.18 6.72 0 5.39.14 10.79-.06 16.17-.68-1.17-1.5-2.33-1.77-3.68-1.38-6.51-3.37-12.87-5.35-19.21zm8.26 7.15c2.25.2 4.24 1.25 6.18 2.33-2.04 5.13-3.83 10.37-6.16 15.39-.17-5.91-.05-11.82-.02-17.72z"/></g></svg>