<svg xmlns="http://www.w3.org/2000/svg" width="96" height="96" fill="none"><circle cx="48" cy="48" r="48" fill="#fff"/><path fill="#070618" d="M67.834 38.264a.59.59 0 0 0-.277-.506l-5.473-3.454a.53.53 0 0 0-.256-.084l-4.35-.34-5.277-7.848-4.35-13.62a.57.57 0 0 0-.578-.411.61.61 0 0 0-.545.446L43.43 26.69h-2.706c-.233 0-.441.14-.534.363l-2.81 6.9-6.504 1.387a.59.59 0 0 0-.393.295l-2.442 4.57a.7.7 0 0 0-.056.236v.167l3.9 19.578c.024.14.105.26.21.351l7.95 6.265 4.061 6.84 4.976 10.952a.58.58 0 0 0 .557.34.55.55 0 0 0 .429-.283l.023.012 6.203-9.8 7.67-11.976a.5.5 0 0 0 .081-.224v-.011l3.773-24.316h-.012c.015-.012.027-.036.027-.072m-10.274-1.42-3.888.81-3.702.786 3.228-3.725.474-.554.047-.048.093.06.926.658zm-1.563-3.091.417.622.289.423-.637-.459-.926-.658-1.019-.73-.557-1.997-.38-1.388zM47.39 14.76l3.737 11.694 1.864 6.723-.277.319-.474.554-.473.55-3.112 3.598-1.203-3.949-.184-.598-.185-.599-.798-2.608c0-.012-.012-.012-.024-.024-.012-.024-.012-.06-.024-.084L44.524 27.2zm-3.842 13.102.51.94-1.4-.94zm-5.32 7.11.264-.657.265-.658.706-1.728 1.54-3.784 2.89 1.938.799.542-3.448 2.504-1.168.846-1.167.846-.89.646zm3.492-.738 1.167-.845.834-.599 1.677-1.22.428 1.387.185.598.185.599 1.411 4.63h-7.554l-2.338-1.646zm-10.344 2.198 5.472-1.164-.67 1.655a.58.58 0 0 0 .209.706l3.171 2.221a.53.53 0 0 0 .325.107h8.516c.036 0 .08 0 .116-.011l10.589-2.222a.58.58 0 0 0 .417-.351.62.62 0 0 0-.057-.551l-1.146-1.703 3.275.259 4.535 2.855-5.854 3.398-18.167.977-12.658-2.54zm11.419 7.307 17.16-.917 1.424 9.484-8.168 19.087-5.38-5.887zm3.335 19.522L39 53.826l-9.093-12.468 11.675 2.35zM29.64 42.954l8.135 11.163-4.952 4.795zm3.704 17.065 5.124-4.958 7.73 10.238-5.541.506zm8.111 6.885 5-.447-1.969 5.548zm8.064 15.83-4.27-9.401 2.28-6.441 5.209 5.7zm5.821-8.508-3.805 6.03 2.373-7.486 6.351-6.206zm-.268-4.243 6.632-15.49 1.179 7.86zm8.424-11.259-2.418-16.205 1.736-1.01 3.693-2.137z"/></svg>