<svg xmlns="http://www.w3.org/2000/svg" xml:space="preserve" fill-rule="evenodd" stroke-miterlimit="11.3386" clip-rule="evenodd" viewBox="0 0 400 400"><circle cx="200" cy="200" r="200" stroke="#000" stroke-width=".87"/><path fill="#fff" fill-rule="nonzero" d="M89.67 88.756c-8.433 8.855-15.39 16.304-15.461 16.444-.07.211 7.52 7.66 16.866 16.515 9.347 8.924 17.498 16.725 18.061 17.217l1.054.984-1.898 3.162c-16.655 27.547-20.098 60.717-9.627 91.216 1.967 5.762 5.341 13.141 8.222 17.99 1.405 2.389 2.038 3.935 1.897 4.216-.14.281-8.643 9.277-18.903 20.028-10.26 10.682-18.623 19.607-18.764 19.747-.07.211 28.672 27.97 31.413 30.218l1.054.914 16.233-16.936c8.925-9.347 17.288-18.131 18.553-19.466l2.389-2.389 2.249 1.405c11.454 7.309 24.877 12.368 39.705 15.039 7.449 1.335 21.644 1.686 29.585.702 15.32-1.756 30.499-6.886 42.937-14.406l3.233-1.967 3.443 3.373c7.52 7.308 35.629 34.012 35.911 34.153.281.141 31.131-32.115 31.061-32.537-.071-.211-21.223-20.52-34.154-32.677l-4.286-4.076 1.967-3.233c16.515-27.477 19.958-60.787 9.277-91.497-1.546-4.497-6.255-14.617-8.996-19.255l-1.335-2.319 18.061-18.904c9.908-10.33 17.99-18.974 17.92-19.184-.281-.703-31.905-30.57-32.326-30.57-.282 0-8.223 8.082-17.71 18.061-9.487 9.908-17.357 18.06-17.568 18.131-.141.07-1.054-.352-1.897-.984-2.39-1.617-8.433-4.919-11.806-6.466-10.26-4.708-19.818-7.589-30.921-9.205-5.763-.844-23.05-.984-28.391-.211-12.79 1.827-23.261 4.989-33.942 10.33-3.092 1.476-6.676 3.443-8.082 4.287l-2.53 1.546-2.881-2.811c-1.546-1.546-8.573-8.152-15.53-14.828-6.957-6.606-14.055-13.352-15.742-15.039l-3.092-3.021L89.67 88.756Zm117.99 45.819c11.173 1.335 21.152 5.13 30.358 11.595 4.709 3.303 11.736 10.33 15.039 15.039 18.763 26.563 15.179 62.684-8.433 84.821-20.169 18.833-49.332 23.049-73.858 10.541-17.709-9.066-30.218-25.65-34.223-45.538-1.265-6.325-1.265-18.131 0-24.385 1.194-6.184 2.81-10.611 5.832-16.796 12.087-24.314 38.3-38.51 65.285-35.277Z"/><g fill-rule="nonzero"><path fill="#2775ca" d="M282.5 365c45.719 0 82.5-36.781 82.5-82.5S328.219 200 282.5 200 200 236.781 200 282.5s36.781 82.5 82.5 82.5Z"/><path fill="#fff" d="M305.188 295.562c0-12.031-7.219-16.156-21.657-17.874-10.312-1.375-12.375-4.125-12.375-8.938 0-4.813 3.438-7.906 10.313-7.906 6.187 0 9.625 2.062 11.344 7.219.344 1.031 1.375 1.718 2.406 1.718h5.499c1.376 0 2.407-1.031 2.407-2.406v-.344c-1.375-7.563-7.563-13.406-15.469-14.093v-8.25c0-1.376-1.031-2.407-2.749-2.751h-5.157c-1.375 0-2.406 1.031-2.75 2.751v7.906c-10.313 1.375-16.843 8.25-16.843 16.844 0 11.344 6.874 15.812 21.312 17.531 9.625 1.718 12.719 3.781 12.719 9.281 0 5.501-4.813 9.282-11.344 9.282-8.938 0-12.032-3.782-13.063-8.939-.343-1.374-1.374-2.062-2.406-2.062h-5.844c-1.374 0-2.406 1.031-2.406 2.406v.345c1.375 8.593 6.875 14.78 18.219 16.5v8.25c0 1.374 1.031 2.405 2.749 2.749h5.157c1.375 0 2.406-1.031 2.75-2.749v-8.25c10.313-1.72 17.188-8.939 17.188-18.22Z"/><path fill="#fff" d="M264.969 331.656c-26.813-9.624-40.563-39.531-30.594-66 5.157-14.438 16.5-25.437 30.594-30.594 1.375-.687 2.062-1.718 2.062-3.437v-4.813c0-1.375-.687-2.406-2.062-2.749-.344 0-1.031 0-1.376.343-32.656 10.312-50.531 45.032-40.218 77.688 6.187 19.249 20.969 34.031 40.218 40.219 1.376.687 2.751 0 3.094-1.376.344-.343.344-.687.344-1.374v-4.813c0-1.032-1.031-2.406-2.062-3.094Zm36.438-107.25c-1.376-.687-2.751 0-3.094 1.375-.344.344-.344.687-.344 1.376v4.812c0 1.375 1.031 2.749 2.062 3.438 26.813 9.624 40.563 39.53 30.594 66-5.157 14.437-16.5 25.437-30.594 30.593-1.375.687-2.062 1.718-2.062 3.438v4.812c0 1.375.687 2.407 2.062 2.75.344 0 1.031 0 1.376-.343 32.656-10.313 50.531-45.032 40.218-77.688-6.187-19.594-21.313-34.376-40.218-40.563Z"/></g></svg>