<svg xmlns="http://www.w3.org/2000/svg" xml:space="preserve" id="Layer_1" x="0" y="0" version="1.1" viewBox="0 0 283.46 283.46"><style>.st0{fill:#fff}</style><path d="M141.73 283.46c-19.13 0-37.69-3.75-55.17-11.14-16.88-7.14-32.03-17.36-45.05-30.37-13.01-13.01-23.23-28.17-30.37-45.05C3.75 179.42 0 160.86 0 141.73s3.75-37.69 11.14-55.17c7.14-16.88 17.36-32.03 30.37-45.05C54.53 28.5 69.68 18.28 86.56 11.14 104.04 3.75 122.6 0 141.73 0s37.69 3.75 55.17 11.14c16.88 7.14 32.03 17.36 45.05 30.37 13.01 13.01 23.23 28.17 30.37 45.05 7.39 17.48 11.14 36.04 11.14 55.17s-3.75 37.69-11.14 55.17c-7.14 16.88-17.36 32.03-30.37 45.05-13.01 13.01-28.17 23.23-45.05 30.37-17.48 7.4-36.04 11.14-55.17 11.14" class="st0"/><circle cx="141.73" cy="141.73" r="134.22"/><path d="M145.03 116.52v61.84l60.54-36.69zM145.03 109.54l59.99 24.93-14.34-23.38 30.49-30.49-18.22-18.23-26.12 26.13-31.8-51.84zM138.59 178.36v-61.84l-60.54 25.15zM78.6 134.47l59.99-24.93V36.66L106.8 88.5 80.67 62.37 62.45 80.6l30.49 30.48zM204.89 160.92l-59.86 36.28v48.05l24.63-34.71 25.71 25.71 18.22-18.22-28.8-28.8zM138.59 197.2l-59.86-36.28 20.1 28.31-28.8 28.8 18.22 18.22 25.71-25.7 24.63 34.69z" class="st0"/></svg>