<svg xmlns="http://www.w3.org/2000/svg" viewBox="0 0 492.33 492.25"><defs><style>.cls-1{fill:#07a4fe;}.cls-2{fill:#93d7fe;}.cls-3{fill:#9edbfe;}.cls-4{fill:#a1dcfe;}.cls-5{fill:#fafdfe;}.cls-6{fill:#f8fcfe;}.cls-7{fill:#08a4fe;}.cls-8{fill:#09a4fe;}.cls-9{fill:#0aa5fe;}</style></defs><g id="Layer_2" data-name="Layer 2"><g id="Layer_1-2" data-name="Layer 1"><path class="cls-1" d="M253.47,492.25H238.89l-13.22-.59-1.86-.12-7.73-.82-.71-.06a19.16,19.16,0,0,0-2.8-.78A236.55,236.55,0,0,1,176.09,482a243.47,243.47,0,0,1-82.54-43c-1.83-1.45-3.74-2.8-5.61-4.19l-.77-.64-6.06-5.31-.74-.66C77,424.83,73.6,421.38,70.2,418c-1.91-1.91-3.87-3.78-5.8-5.68l-.68-.73-3.42-3.84a.63.63,0,0,0-.21-.28L58,405a.63.63,0,0,0-.25-.26l-2.05-2.46a.61.61,0,0,0-.21-.29l-3.43-4.28a.67.67,0,0,0-.22-.28l-2.55-3.34-.6-.79c-.4-.72-.75-1.47-1.2-2.15C44,386,40.4,380.91,37.11,375.63A244.4,244.4,0,0,1,.7,259.31a15.9,15.9,0,0,0-.6-2.59,274.52,274.52,0,0,1,2.38-45.48,241.85,241.85,0,0,1,17-61.32c18.23-42.58,46.13-77.52,83.8-104.44S183,3.41,229.22.39c10.13-.67,20.34-.26,30.51-.34l7,.45,1.65.09,7.47.82.75.06c2.21.42,4.42.89,6.64,1.26a257,257,0,0,1,44.55,11.14,245.66,245.66,0,0,1,66.9,36.05l9.76,7.39.76.63L407.62,60l.75.66,3.82,3.43a1.18,1.18,0,0,0,.27.23c3.3,3.37,6.59,6.76,9.91,10.11,1.52,1.53,3.13,3,4.7,4.47l.68.74L431.59,84l.65.75,2.09,2.44a1.55,1.55,0,0,0,.24.27l2,2.47a1.46,1.46,0,0,0,.21.28q3.1,4,6.2,7.91a1.27,1.27,0,0,0,.25.27,16,16,0,0,0,1.15,2.17,244.64,244.64,0,0,1,46,117.85c.77,7,1.28,14.05,1.9,21.08v13.69c-.23,2.11-.59,4.21-.69,6.33a241.48,241.48,0,0,1-9.79,56.89,244.28,244.28,0,0,1-33.44,69.75c-1.63,2.36-3.18,4.77-4.77,7.16l-.6.79-2.55,3.34a.85.85,0,0,0-.22.28q-1.71,2.15-3.43,4.28a.86.86,0,0,0-.21.29c-.68.82-1.36,1.64-2,2.47a.88.88,0,0,0-.25.26l-2.09,2.45a.74.74,0,0,0-.21.28l-3.42,3.83c-.22.25-.45.49-.68.73-.52.42-1.08.8-1.55,1.26l-17,16.63c-1.39,1.36-2.8,2.7-4.2,4.05l-.76.64a18.1,18.1,0,0,0-1.88,1.19A244.34,244.34,0,0,1,285.87,489c-3,.48-5.92,1.13-8.88,1.69l-.72.07-7.93.86-1.2.06Zm97.64-246.18q0-55.09,0-110.19c0-1.69,0-3-2.32-2.86-.65,0-1.4-.72-2.05-1.19-2.26-1.63-4.34-3.62-6.78-4.92q-38.31-20.41-76.73-40.62c-11.08-5.84-22.3-5.86-33.39,0q-38.62,20.33-77.14,40.84c-2.3,1.23-4.24,3.13-6.36,4.71-.59.44-1.26,1.24-1.82,1.19-2.75-.27-2.58,1.44-2.58,3.3q0,109.74,0,219.48c0,.53-.18,1.17.05,1.57a4.93,4.93,0,0,0,1.53,1.68c.89.59,2,.88,2.85,1.49,2.1,1.48,3.95,3.37,6.19,4.57q38.92,20.72,78,41.22c10.53,5.5,21.41,5.53,31.95,0q39.08-20.43,78-41.24c2.36-1.26,4.33-3.26,6.49-4.9.53-.4,1.15-1.09,1.66-1,2.58.27,2.53-1.27,2.53-3.12Q351.1,301,351.11,246.07ZM118.24,347c-2.42,0-4.86.11-7.28,0-2-.11-2.54.71-2.39,2.54.21,2.42.17,4.86.42,7.28.82,8.12,3.38,15.56,9,21.71,4.66,5.14,10.64,8.5,16.42,12.14,1.48.94,2.2.66,3-.76,2.49-4.26,5-8.5,7.66-12.67.95-1.5.54-2.19-.82-3-3.36-2.07-6.69-4.2-9.9-6.48a12.87,12.87,0,0,1-5.49-8.37c-.57-3.36-1-6.76-1.24-10.15-.12-1.68-.67-2.27-2.33-2.2C123,347.05,120.6,347,118.24,347ZM373.45,141.75c2.51,0,5-.07,7.52,0,1.73.07,2.32-.65,2.18-2.29-.22-2.5-.29-5-.54-7.51-1-10.07-4.67-18.92-12.86-25.27-4.13-3.2-8.67-5.85-13-8.8-1.12-.75-1.69-.44-2.33.65-2.59,4.38-5.21,8.75-7.93,13.06-.87,1.37-.63,2.08.69,2.9,3.3,2,6.57,4.1,9.74,6.33a13.34,13.34,0,0,1,5.83,8.68c.59,3.35,1,6.76,1.25,10.16.13,1.53.55,2.17,2.16,2.09C368.59,141.67,371,141.76,373.45,141.75Z"/><path class="cls-2" d="M443.27,98.36c1.33,1.63,2.77,3.18,4,4.89a244.47,244.47,0,0,1,35.53,73,239.81,239.81,0,0,1,9,47.82,8.63,8.63,0,0,0,.51,1.69v13.69c-.62-7-1.13-14.07-1.9-21.08a244.64,244.64,0,0,0-46-117.85A16,16,0,0,1,443.27,98.36Z"/><path class="cls-3" d="M492.33,266.38c-.45,3.13-.83,6.27-1.38,9.38-1.82,10.22-3.21,20.55-5.66,30.62a240.36,240.36,0,0,1-39,83.91,36,36,0,0,1-2.68,3c1.59-2.39,3.14-4.8,4.77-7.16a244.28,244.28,0,0,0,33.44-69.75,241.48,241.48,0,0,0,9.79-56.89c.1-2.12.46-4.22.69-6.33Z"/><path class="cls-3" d="M267.14,491.64v.61H253.47Z"/><path class="cls-4" d="M225.67,492.25v-.59l13.22.59Z"/><path class="cls-5" d="M351.11,246.07q0,55,0,110c0,1.85.05,3.39-2.53,3.12-.51-.05-1.13.64-1.66,1-2.16,1.64-4.13,3.64-6.49,4.9q-38.93,20.75-78,41.24c-10.54,5.51-21.42,5.48-31.95,0q-39.08-20.42-78-41.22c-2.24-1.2-4.09-3.09-6.19-4.57-.87-.61-2-.9-2.85-1.49a4.93,4.93,0,0,1-1.53-1.68c-.23-.4-.05-1-.05-1.57q0-109.74,0-219.48c0-1.86-.17-3.57,2.58-3.3.56.05,1.23-.75,1.82-1.19,2.12-1.58,4.06-3.48,6.36-4.71q38.52-20.52,77.14-40.84c11.09-5.84,22.31-5.82,33.39,0q38.42,20.22,76.73,40.62c2.44,1.3,4.52,3.29,6.78,4.92.65.47,1.4,1.23,2.05,1.19,2.32-.15,2.32,1.17,2.32,2.86Q351.1,191,351.11,246.07ZM326.49,350.78c-.86-.58-1.38-1-1.94-1.29q-35.25-18.66-70.5-37.28a15.31,15.31,0,0,0-15.06,0q-35.25,18.61-70.5,37.27c-.57.3-1.09.7-2,1.26.93.57,1.53,1,2.17,1.31q35.15,18.6,70.29,37.18a15.31,15.31,0,0,0,15.06,0q35.16-18.57,70.29-37.19C325,351.77,325.56,351.35,326.49,350.78Zm.18-209.17c-1.07-.68-1.6-1.08-2.18-1.39Q289.26,121.59,254,103a15.3,15.3,0,0,0-15,.06q-35.24,18.6-70.47,37.24c-.57.3-1.1.7-2,1.26.93.56,1.53,1,2.16,1.3l70,37.07a15.74,15.74,0,0,0,15.66,0Q285.7,163.32,317,146.78C320.07,145.16,323.13,143.51,326.67,141.61ZM166.17,243.79l70.64,37.34v-74.7Zm160,.37,0-.77-69.84-36.93v74.66ZM225.76,297.67l.1-.74-64.58-34.16v69Zm106.07-34.9-65.24,34.5,65.24,34.49ZM161.26,224.82l60.8-32.17-60.8-32.15ZM271,192.66l60.75,32.11V160.53Z"/><path class="cls-6" d="M118.24,347c2.36,0,4.71.08,7.06,0,1.66-.07,2.21.52,2.33,2.2.25,3.39.67,6.79,1.24,10.15a12.87,12.87,0,0,0,5.49,8.37c3.21,2.28,6.54,4.41,9.9,6.48,1.36.84,1.77,1.53.82,3-2.64,4.17-5.17,8.41-7.66,12.67-.83,1.42-1.55,1.7-3,.76-5.78-3.64-11.76-7-16.42-12.14-5.6-6.15-8.16-13.59-9-21.71-.25-2.42-.21-4.86-.42-7.28-.15-1.83.41-2.65,2.39-2.54C113.38,347.08,115.82,347,118.24,347Z"/><path class="cls-6" d="M373.45,141.76c-2.43,0-4.86-.09-7.29,0-1.61.08-2-.56-2.16-2.09-.27-3.4-.66-6.81-1.25-10.16a13.34,13.34,0,0,0-5.83-8.68c-3.17-2.23-6.44-4.3-9.74-6.33-1.32-.82-1.56-1.53-.69-2.9,2.72-4.31,5.34-8.68,7.93-13.06.64-1.09,1.21-1.4,2.33-.65,4.33,3,8.87,5.6,13,8.8,8.19,6.35,11.82,15.2,12.86,25.27.25,2.5.32,5,.54,7.51.14,1.64-.45,2.36-2.18,2.29C378.47,141.68,376,141.75,373.45,141.76Z"/><path class="cls-4" d="M48.71,393.28c-1.56-1.92-3.25-3.75-4.66-5.77A245.83,245.83,0,0,1,7.67,309.27,228.77,228.77,0,0,1,.51,267.61C.24,264,.23,260.35.1,256.72a15.9,15.9,0,0,1,.6,2.59A244.4,244.4,0,0,0,37.11,375.63c3.29,5.28,6.93,10.34,10.4,15.5C48,391.81,48.31,392.56,48.71,393.28Z"/><path class="cls-2" d="M276.57,1.47c2.85.27,5.73.37,8.55.82a243.39,243.39,0,0,1,52.11,14.33,246.62,246.62,0,0,1,65.58,38.84,15.15,15.15,0,0,1,1.61,1.85l-9.76-7.39a245.66,245.66,0,0,0-66.9-36.05A257,257,0,0,0,283.21,2.73C281,2.36,278.78,1.89,276.57,1.47Z"/><path class="cls-4" d="M215.37,490.66c-2.93-.27-5.89-.35-8.78-.84A246.08,246.08,0,0,1,92.35,439c-1.58-1.25-2.95-2.77-4.41-4.17,1.87,1.39,3.78,2.74,5.61,4.19a243.47,243.47,0,0,0,82.54,43,236.55,236.55,0,0,0,36.48,7.86A19.16,19.16,0,0,1,215.37,490.66Z"/><path class="cls-3" d="M404.42,434.86c-1.47,1.4-2.84,2.92-4.41,4.17a246.39,246.39,0,0,1-65.33,37.54,233.86,233.86,0,0,1-51.17,13.5c-2.16.31-4.34.4-6.52.58,3-.56,5.91-1.21,8.88-1.69a244.34,244.34,0,0,0,116.67-52.91A18.1,18.1,0,0,1,404.42,434.86Z"/><path class="cls-3" d="M428,412.28a5.85,5.85,0,0,1-.84,1.54q-10.16,9.81-20.38,19.56a6.59,6.59,0,0,1-1.55.84c1.4-1.35,2.81-2.69,4.2-4.05l17-16.63C426.87,413.08,427.43,412.7,428,412.28Z"/><path class="cls-4" d="M80.37,428.26a6.3,6.3,0,0,1-1.54-.83q-6.83-6.76-13.6-13.62a6.06,6.06,0,0,1-.83-1.53c1.93,1.9,3.89,3.77,5.8,5.68C73.6,421.38,77,424.83,80.37,428.26Z"/><path class="cls-2" d="M412.46,64.34c.15,0,.35,0,.44.07q7.05,7,14.09,14.08c.09.08.05.29.08.43-1.57-1.48-3.18-2.94-4.7-4.47C419.05,71.1,415.76,67.71,412.46,64.34Z"/><path class="cls-2" d="M436.82,90.18q3.1,4,6.2,7.91Q439.93,94.13,436.82,90.18Z"/><path class="cls-4" d="M223.81,491.54l-7.73-.82Z"/><path class="cls-3" d="M276.27,490.72l-7.93.86Z"/><path class="cls-2" d="M268.35.59l7.47.82Z"/><path class="cls-4" d="M87.17,434.23l-6.06-5.31Z"/><path class="cls-2" d="M259.73.05l7,.45Z"/><path class="cls-4" d="M55.51,402l-3.43-4.28Z"/><path class="cls-3" d="M440.27,397.69q-1.71,2.15-3.43,4.28Q438.57,399.84,440.27,397.69Z"/><path class="cls-2" d="M427.75,79.66,431.59,84Z"/><path class="cls-4" d="M63.72,411.55l-3.42-3.84Z"/><path class="cls-2" d="M408.37,60.68l3.82,3.43Z"/><path class="cls-3" d="M432.05,407.72l-3.42,3.83Z"/><path class="cls-4" d="M51.86,397.41l-2.55-3.34Z"/><path class="cls-3" d="M443,394.07l-2.55,3.34Z"/><path class="cls-2" d="M434.57,87.43l2,2.47Z"/><path class="cls-2" d="M432.24,84.72l2.09,2.44Z"/><path class="cls-4" d="M57.77,404.72l-2.05-2.46Z"/><path class="cls-3" d="M436.63,402.26c-.68.82-1.36,1.64-2,2.47C435.27,403.9,436,403.08,436.63,402.26Z"/><path class="cls-4" d="M60.09,407.43,58,405Z"/><path class="cls-3" d="M434.35,405l-2.09,2.45Z"/><path class="cls-2" d="M405.18,57.94,407.62,60Z"/><path class="cls-7" d="M326.49,350.78c-.93.57-1.52,1-2.15,1.32q-35.14,18.61-70.29,37.19a15.31,15.31,0,0,1-15.06,0q-35.15-18.57-70.29-37.18c-.64-.33-1.24-.74-2.17-1.31.87-.56,1.39-1,2-1.26q35.25-18.64,70.5-37.27a15.31,15.31,0,0,1,15.06,0q35.26,18.62,70.5,37.28C325.11,349.79,325.63,350.2,326.49,350.78Z"/><path class="cls-7" d="M326.67,141.61c-3.54,1.9-6.6,3.55-9.67,5.17q-31.31,16.56-62.61,33.11a15.74,15.74,0,0,1-15.66,0l-70-37.07c-.63-.34-1.23-.74-2.16-1.3.88-.56,1.41-1,2-1.26Q203.74,121.65,239,103a15.3,15.3,0,0,1,15-.06q35.26,18.6,70.48,37.24C325.07,140.53,325.6,140.93,326.67,141.61Z"/><path class="cls-8" d="M166.17,243.79l70.64-37.36v74.7Z"/><path class="cls-8" d="M326.19,244.16l-69.87,37V206.46l69.84,36.93Z"/><path class="cls-9" d="M225.76,297.67l-64.48,34.08v-69l64.58,34.16Z"/><path class="cls-8" d="M331.83,262.77v69l-65.24-34.49Z"/><path class="cls-9" d="M161.26,224.82V160.5l60.8,32.15Z"/><path class="cls-8" d="M271,192.66l60.75-32.13v64.24Z"/></g></g></svg>