<svg xmlns="http://www.w3.org/2000/svg" width="180" height="180"><defs><style>.cls-2ftmlt2{fill:#fff}</style></defs><g id="Layer_2" data-name="Layer 2"><g id="Layer_1-2" data-name="Layer 1"><path d="M180 90A90 90 0 1 1 90 0a90 90 0 0 1 90 90" style="fill:#57b3e4"/><path d="M84.3 27.32a12.76 12.76 0 0 1 10.9 0l31.61 16.58a5.33 5.33 0 0 1 3.08 4v83.75a5.28 5.28 0 0 1-3.1 4.28L95.2 152.67a12.69 12.69 0 0 1-10.9 0l-31.61-16.73a5.17 5.17 0 0 1-3-4.38v.1-83.75a5.06 5.06 0 0 1 3-4ZM54.45 94.57v36.73L84.3 147a13 13 0 0 0 5.26 1.89h.19a11 11 0 0 0 4.68-1.47l.56-.27 30.12-16V94.9l-29.55 15.47a12.88 12.88 0 0 1-10.76.09l-.17-.09Zm-9.85 35.34c0 3.19.38 5.28 1.12 6.76A8.6 8.6 0 0 0 49 140l.1.07c.37.25.77.51 1.27.81l.59.35 1.8 1.08-2.59 4.22-2-1.2-.34-.21c-.58-.36-1.06-.66-1.51-1-4.81-3.21-6.6-6.71-6.64-14v-.22Zm47.8-57.55v34a5 5 0 0 0 .83-.33l31.68-16.59h.09-.07l-31.7-16.75a5 5 0 0 0-.83-.33m-4.8.06a6 6 0 0 0-.65.27L55.27 89.28h-.09.12L87 106a4 4 0 0 0 .65.27ZM54.45 53.7v30.42l29-15.19Zm70.66 0L96.38 68.75l28.73 15Zm-32.23-22a7.83 7.83 0 0 0-6.26 0L55 48.28a.3.3 0 0 0-.1 0h.08L86.62 65a7.92 7.92 0 0 0 6.26 0l31.61-16.59h.09-.07Zm37 1.82 2 1.2.34.21c.58.36 1.06.66 1.51 1 4.81 3.21 6.61 6.71 6.64 14v.22h-5c0-3.19-.38-5.28-1.12-6.76a8.6 8.6 0 0 0-3.2-3.39H131c-.37-.25-.77-.5-1.27-.81l-.59-.35-1.79-1.08Z" class="cls-2ftmlt2"/><path d="M0 0h180v180H0z" style="fill:none"/><circle cx="120.13" cy="122.71" r="45.45" style="fill:#00f"/><path d="M144.28 105.49a1.6 1.6 0 0 0-.07-.31l-.31-.62c-1.41-1.73-4.49-3-9.18-3.82a65 65 0 0 0-9.56-.84 2.08 2.08 0 0 0-.24-2.41 20.34 20.34 0 0 0-31 26.34 2.06 2.06 0 0 0 1.42.75 2.1 2.1 0 0 0 1.53-.49l3.57-3.38-1.77 15.35a16.78 16.78 0 0 0 7.96 13.94 30.2 30.2 0 0 0 16.66 4.59 30.1 30.1 0 0 0 16.64-4.59 16.77 16.77 0 0 0 7.95-13.94Zm-45.55-7.43a16.94 16.94 0 0 1 22.71.7l-6 5.13a1.8 1.8 0 0 0-.41.53 1.5 1.5 0 0 0-.18.64 1.77 1.77 0 0 0 .41 1.25 1.73 1.73 0 0 0 2.41.14l3.73-3.18c7.76-.19 15 .74 18.36 2.35a21 21 0 0 1-4.84 1.4l-.73.13a73 73 0 0 1-12.55.69 56.3 56.3 0 0 1-10.23-1.13c-4-.87-5.07-1.93-5.32-2.24a1.81 1.81 0 0 0-2-.57 1.82 1.82 0 0 0-.76 2.93c1.17 1.38 3.39 2.47 6.62 3.26l.51.15 1.37.26.45.07a65 65 0 0 0 9.26.9 78 78 0 0 0 11.55-.49 34 34 0 0 0 8.22-1.9l2.77 23a31 31 0 0 0-7.24-2 81.6 81.6 0 0 0-13.43-1h-2.54a73 73 0 0 0-13.31 1.43 26.5 26.5 0 0 0-5 1.54l1.44-12.11c0-.42.1-.89.15-1.33a18 18 0 0 0 .19-1.93l.69-6.11a1.64 1.64 0 0 0-3.26-.36l-.58 5.14-5.46 5.17a17 17 0 0 1 3-22.47Zm39.34 39.32a72 72 0 0 1-12.81 1.31c-9.63.21-18.41-1-22.18-3.12a19.6 19.6 0 0 1 5.16-1.71 70.7 70.7 0 0 1 12.67-1.36c9.83-.24 18.77 1 22.58 3.11a20.8 20.8 0 0 1-5.42 1.78Zm-28.39 3.7a85.5 85.5 0 0 0 15.66 1 73.4 73.4 0 0 0 13.43-1.38 27 27 0 0 0 5.28-1.6 14 14 0 0 1-6 8.06 26.74 26.74 0 0 1-14.77 4 26.77 26.77 0 0 1-14.75-4 14 14 0 0 1-6-8.1 30.5 30.5 0 0 0 7.15 2.02" class="cls-2ftmlt2"/></g></g></svg>