<svg xmlns="http://www.w3.org/2000/svg" height="180" width="180" viewBox="0 0 180 180"><defs><style>.cls-1ftmlt{fill:#57b3e4;}.cls-2ftmlt2{fill:#fff;}.cls-3ftmlt{fill:none;}.cls-4ftmlt{fill:blue;}</style></defs><g id="Layer_2" data-name="Layer 2"><g id="Layer_1-2" data-name="Layer 1"><path class="cls-1ftmlt" d="M180,90A90,90,0,1,1,90,0a90,90,0,0,1,90,90"></path><path class="cls-2ftmlt2" d="M84.3,27.32a12.76,12.76,0,0,1,10.9,0L126.81,43.9a5.33,5.33,0,0,1,3.08,4h0v83.75h0a5.28,5.28,0,0,1-3.1,4.28L95.2,152.67a12.69,12.69,0,0,1-10.9,0L52.69,135.94a5.17,5.17,0,0,1-3-4.38v.1h0V47.91h0a5.06,5.06,0,0,1,3-4ZM54.45,94.57V131.3L84.3,147a13,13,0,0,0,5.26,1.89h.19a11,11,0,0,0,4.68-1.47l.56-.27,30.12-16V94.9L95.56,110.37a12.88,12.88,0,0,1-10.76.09l-.17-.09ZM44.6,129.91c0,3.19.38,5.28,1.12,6.76A8.62,8.62,0,0,0,49,140l.1.07c.37.25.77.51,1.27.81l.59.35,1.8,1.08-2.59,4.22-2-1.2-.34-.21c-.58-.36-1.06-.66-1.51-1-4.81-3.21-6.6-6.71-6.64-14v-.22ZM92.4,72.36v34a4.79,4.79,0,0,0,.83-.33l31.68-16.59.09,0h0l0,0-.07,0L93.23,72.69a4.79,4.79,0,0,0-.83-.33m-4.8.06a5.51,5.51,0,0,0-.65.27L55.27,89.28l-.09,0,0,0,.05,0,.07,0L87,106a4.22,4.22,0,0,0,.65.27ZM54.45,53.7V84.12l29-15.19Zm70.66,0L96.38,68.75l28.73,15Zm-32.23-22a7.83,7.83,0,0,0-6.26,0L55,48.28a.31.31,0,0,0-.1,0h0l0,0,.08,0L86.62,65a7.92,7.92,0,0,0,6.26,0l31.61-16.59.09,0,0,0,0,0-.07,0Zm37,1.82,2,1.2.34.21c.58.36,1.06.66,1.51,1,4.81,3.21,6.61,6.71,6.64,14v.22h-5c0-3.19-.38-5.28-1.12-6.76A8.62,8.62,0,0,0,131.05,40L131,40c-.37-.25-.77-.5-1.27-.81l-.59-.35-1.79-1.08Z"></path><rect class="cls-3ftmlt" width="180" height="180"></rect><circle class="cls-4ftmlt" cx="120.13" cy="122.71" r="45.45"></circle><path class="cls-2ftmlt2" d="M144.28,105.49a1.55,1.55,0,0,0-.07-.31l-.31-.62c-1.41-1.73-4.49-3-9.18-3.82a65.05,65.05,0,0,0-9.56-.84,2.08,2.08,0,0,0-.24-2.41,20.34,20.34,0,0,0-31,26.34,2.06,2.06,0,0,0,1.42.75,2.09,2.09,0,0,0,1.53-.49l3.57-3.38-1.77,15.35A16.78,16.78,0,0,0,106.63,150a30.21,30.21,0,0,0,16.66,4.59A30.11,30.11,0,0,0,139.93,150a16.77,16.77,0,0,0,7.95-13.94ZM98.73,98.06a16.94,16.94,0,0,1,22.71.7l-6,5.13a1.76,1.76,0,0,0-.41.53,1.47,1.47,0,0,0-.18.64,1.77,1.77,0,0,0,.41,1.25,1.73,1.73,0,0,0,2.41.14l3.73-3.18c7.76-.19,15,.74,18.36,2.35a21,21,0,0,1-4.84,1.4l-.73.13a73.16,73.16,0,0,1-12.55.69,56.26,56.26,0,0,1-10.23-1.13c-4-.87-5.07-1.93-5.32-2.24a1.81,1.81,0,0,0-2-.57,1.82,1.82,0,0,0-.76,2.93c1.17,1.38,3.39,2.47,6.62,3.26l.51.15,1.37.26.45.07a65.25,65.25,0,0,0,9.26.9,78.27,78.27,0,0,0,11.55-.49,34,34,0,0,0,8.22-1.9l2.77,23a31.11,31.11,0,0,0-7.24-2,81.6,81.6,0,0,0-13.43-1c-.84,0-1.71,0-2.54,0a72.91,72.91,0,0,0-13.31,1.43,26.52,26.52,0,0,0-5,1.54L104,119.94c0-.42.1-.89.15-1.33a18.44,18.44,0,0,0,.19-1.93l.69-6.11a1.64,1.64,0,0,0-3.26-.36l-.58,5.14-5.46,5.17a17,17,0,0,1,3-22.47Zm39.34,39.32a72.06,72.06,0,0,1-12.81,1.31c-9.63.21-18.41-1-22.18-3.12a19.59,19.59,0,0,1,5.16-1.71,70.72,70.72,0,0,1,12.67-1.36c9.83-.24,18.77,1,22.58,3.11a20.77,20.77,0,0,1-5.42,1.78Zm-28.39,3.7a85.45,85.45,0,0,0,15.66,1,73.38,73.38,0,0,0,13.43-1.38,27,27,0,0,0,5.28-1.6,14,14,0,0,1-6,8.06,26.74,26.74,0,0,1-14.77,4,26.77,26.77,0,0,1-14.75-4,14,14,0,0,1-6-8.1A30.47,30.47,0,0,0,109.68,141.08Z"></path></g></g></svg>