<?xml version="1.0" encoding="UTF-8"?>
<svg version="1.1" xmlns="http://www.w3.org/2000/svg" width="1080" height="1080">
<path d="M0 0 C1.41176514 0.02682861 1.41176514 0.02682861 2.85205078 0.05419922 C45.21183452 0.97142545 89.01935375 5.29165393 129.60620117 17.96044922 C134.02821474 19.31495132 138.47923924 20.5514747 142.93457031 21.79101562 C156.82690403 25.6633607 170.45097184 30.06297861 184 35 C184 35.66 184 36.32 184 37 C184.88147705 37.12640869 185.7629541 37.25281738 186.67114258 37.38305664 C203.52450998 40.50652268 220.44378984 50.50114311 235.5625 58.3125 C236.68318375 58.89075027 236.68318375 58.89075027 237.82650757 59.48068237 C246.04826678 63.7376011 254.11517587 68.14109248 262 73 C263.66492931 73.99120533 265.33163206 74.97943722 267 75.96484375 C275.54648897 81.03811356 283.97592678 86.12155808 292 92 C293.58112817 93.10732208 295.16456093 94.21135904 296.75 95.3125 C297.57757812 95.89386719 298.40515625 96.47523437 299.2578125 97.07421875 C301.22770373 98.45763239 303.20222201 99.83446614 305.1796875 101.20703125 C313.84563588 107.26608881 322.05832451 113.78718955 330.20458984 120.52490234 C331.75533377 121.79898377 333.32339694 123.0519309 334.89453125 124.30078125 C341.29040352 129.39254763 347.24905301 134.87784346 353.16796875 140.50927734 C356.39411777 143.57688325 359.64620624 146.58589976 363.015625 149.49609375 C367.03231632 152.9829986 370.81625237 156.663542 374.5625 160.4375 C375.21943848 161.09709717 375.87637695 161.75669434 376.55322266 162.4362793 C380.30445468 166.22445315 383.96421822 170.0507583 387.40625 174.125 C389.34325871 176.40383378 391.35905625 178.60324657 393.375 180.8125 C397.19427001 185.04900119 400.84072819 189.39316221 404.421875 193.83203125 C406.36055848 196.23057045 408.33749055 198.59363465 410.328125 200.94921875 C416.44516726 208.21822588 422.24268387 215.49939462 427.38916016 223.4909668 C429.77829 227.19748096 432.27855939 230.75632306 434.94775391 234.26635742 C441.95342703 243.48652507 447.71229135 253.35630258 453.47851562 263.38427734 C455.00243483 266.00418594 456.5687571 268.59461063 458.14453125 271.18359375 C460.96166403 275.86011693 463.3914354 280.64981569 465.74609375 285.5703125 C467.89084107 289.9674932 470.27192117 294.15516271 472.76953125 298.36328125 C477.63288134 306.69654367 481.19985221 315.50960822 484.8125 324.4375 C485.47241286 326.04919464 486.1332166 327.66052481 486.79492188 329.27148438 C488.00530898 332.21970076 489.20978836 335.17019782 490.40942383 338.12280273 C491.43266173 340.63657318 492.48831088 343.12621638 493.56835938 345.6171875 C495.91350941 351.15852428 497.7807806 356.85869337 499.6875 362.5625 C499.90521057 363.21195587 500.12292114 363.86141174 500.347229 364.5305481 C504.85286025 378.03531336 508.57862316 391.68798699 512.09082031 405.48339844 C513.04921619 409.1903625 514.05984394 412.88114047 515.0703125 416.57421875 C516.86519654 423.29787692 518.30148106 430.02165545 519.5 436.875 C519.70794189 438.05771484 519.91588379 439.24042969 520.13012695 440.45898438 C521.71833186 449.7783937 523.02784149 459.11943224 524.1875 468.5 C524.3421875 469.72960449 524.496875 470.95920898 524.65625 472.22607422 C527.36255024 495.15020227 528.41339561 518.11406256 528.375 541.1875 C528.37418427 543.06130341 528.37418427 543.06130341 528.37335205 544.97296143 C528.29301846 585.46816129 525.97267987 631.19884562 512.6875 669.89453125 C511.2196464 674.20117988 509.96026392 678.55820596 508.73046875 682.9375 C508.52529129 683.66632889 508.32011383 684.39515778 508.10871887 685.14607239 C507.25537653 688.18241217 506.40430929 691.21935151 505.56030273 694.25830078 C501.81830428 707.70843827 497.87081598 721.17981503 491.96191406 733.86425781 C490.8223823 736.39436539 489.82937558 738.96375231 488.8359375 741.5546875 C483.52775556 755.26822018 477.50421177 768.38370354 470.75 781.4375 C470.36849792 782.17635437 469.98699585 782.91520874 469.59393311 783.67645264 C463.04273572 796.3249156 455.95246455 808.5855969 448.4375 820.6875 C447.89931641 821.55955078 447.36113281 822.43160156 446.80664062 823.33007812 C442.04456656 831.01472472 437.16064451 838.54804791 431.671875 845.734375 C429.67778351 848.43664852 427.81617647 851.21626771 425.9375 854 C420.88832234 861.40604332 415.21950894 868.27833344 409.50439453 875.17529297 C407.45667964 877.65900299 405.45148836 880.17641106 403.4375 882.6875 C399.22178677 887.83917892 394.73639192 892.7107414 390.1875 897.56640625 C387.6748537 900.25011941 385.22839184 902.98739017 382.78515625 905.734375 C377.84628693 911.23332762 372.67427819 916.47347392 367.4375 921.6875 C366.54353516 922.58533203 365.64957031 923.48316406 364.72851562 924.40820312 C359.64671216 929.48257162 354.4496038 934.32587741 349 939 C347.49676269 940.37146002 345.99628649 941.74595984 344.5 943.125 C329.43101972 956.69858529 313.24947974 970.19076005 295.63671875 980.31640625 C292.99770814 981.85538997 292.99770814 981.85538997 291.21166992 983.8659668 C288.65780861 986.33017937 286.01634127 987.99697738 282.9765625 989.828125 C282.39393646 990.18082458 281.81131042 990.53352417 281.21102905 990.89691162 C279.97710786 991.64246434 278.74152472 992.38527259 277.50439453 993.12548828 C275.66221076 994.22773541 273.82481701 995.33759223 271.98828125 996.44921875 C260.57335918 1003.34033509 249.11071382 1010.14040071 237.125 1016 C235.38779908 1016.85501835 233.65082217 1017.71049197 231.9140625 1018.56640625 C231.07520508 1018.97906738 230.23634766 1019.39172852 229.37207031 1019.81689453 C227.28132751 1020.85968371 225.21163177 1021.93137408 223.1484375 1023.02734375 C212.27841795 1028.7522304 200.89545183 1033.08901313 189.44140625 1037.484375 C185.65142796 1038.94292574 181.9117509 1040.44867597 178.21484375 1042.12890625 C173.89178471 1044.08769205 169.50223436 1045.69084567 165 1047.1875 C164.12843262 1047.47794189 163.25686523 1047.76838379 162.35888672 1048.06762695 C149.7002125 1052.18476857 136.8053664 1055.538322 123.94213867 1058.94873047 C121.32895488 1059.6422849 118.72036226 1060.35023298 116.11450195 1061.07080078 C108.10239498 1063.26540574 100.1223311 1065.08360334 91.9375 1066.5 C90.74850098 1066.70794189 89.55950195 1066.91588379 88.33447266 1067.13012695 C79.53592884 1068.63564023 70.71834822 1069.97387741 61.875 1071.1875 C60.77148193 1071.3421875 59.66796387 1071.496875 58.53100586 1071.65625 C36.09960701 1074.60796093 13.66646015 1075.37852428 -8.9375 1075.3125 C-10.2868855 1075.31027487 -11.63627108 1075.30809849 -12.98565674 1075.30596924 C-33.78954866 1075.26055428 -54.36050686 1074.76128478 -75 1072 C-75.78080933 1071.89582764 -76.56161865 1071.79165527 -77.36608887 1071.68432617 C-100.70000501 1068.53578043 -124.09870901 1065.09543937 -146.61279297 1058.04394531 C-151.06556195 1056.67159126 -155.54747619 1055.41610173 -160.03393555 1054.15917969 C-169.9787714 1051.37123529 -179.88385122 1048.50327287 -189.6875 1045.25 C-190.50476563 1044.98082764 -191.32203125 1044.71165527 -192.1640625 1044.43432617 C-196.7663616 1042.87837002 -201.18416019 1041.08448405 -205.60424805 1039.07128906 C-208.23774297 1037.89369039 -210.89565254 1036.79352551 -213.56640625 1035.703125 C-224.508791 1031.23214065 -235.23906281 1026.60993437 -245.72802734 1021.16162109 C-248.44629937 1019.7718147 -251.18474966 1018.42638639 -253.92578125 1017.08203125 C-254.97958984 1016.56302246 -256.03339844 1016.04401367 -257.11914062 1015.50927734 C-259.18224601 1014.49381309 -261.24722733 1013.48214731 -263.31445312 1012.47509766 C-270.1857217 1009.07274106 -276.59282397 1005.20369212 -283 1001 C-284.41697601 1000.09794755 -285.83605072 999.1991779 -287.2578125 998.3046875 C-287.89855713 997.9015332 -288.53930176 997.49837891 -289.19946289 997.08300781 C-289.83489014 996.68436523 -290.47031738 996.28572266 -291.125 995.875 C-291.80876709 995.44541992 -292.49253418 995.01583984 -293.19702148 994.57324219 C-296.76412665 992.34618305 -300.3448177 990.22005387 -304.0625 988.25 C-307.49995913 986.3985625 -310.19071472 984.19520275 -313.078125 981.5859375 C-315.31304306 979.74167585 -317.65758742 978.2689563 -320.125 976.75 C-326.76803723 972.61052918 -332.88686314 967.87003882 -339 963 C-339.64694824 962.48598633 -340.29389648 961.97197266 -340.96044922 961.44238281 C-348.73396865 955.24818 -356.33311837 948.94515937 -363.62890625 942.19140625 C-365.70173921 940.27565783 -367.80306059 938.40885556 -369.9375 936.5625 C-382.65555733 925.46638115 -395.38506477 913.92141552 -406.28125 900.99609375 C-408.0788485 898.90842822 -409.9510626 896.90004119 -411.8347168 894.89013672 C-417.29369122 889.04601126 -422.3055769 882.95899958 -427.18359375 876.625 C-429.07337063 874.17325445 -431.00195848 871.76216891 -432.97265625 869.375 C-438.96780996 862.08943132 -444.38079561 854.66420275 -449.34765625 846.63354492 C-451.09306519 843.83028205 -452.65241046 841.34286503 -455.01171875 839.015625 C-457.94061697 836.04644724 -459.7656379 832.54981935 -461.8125 828.9375 C-462.70024963 827.39752947 -463.58957367 825.85846548 -464.48046875 824.3203125 C-465.12701416 823.20317871 -465.12701416 823.20317871 -465.78662109 822.06347656 C-467.3322699 819.4349406 -468.96462575 816.86985804 -470.625 814.3125 C-478.24894374 802.44118434 -484.591404 790.0291455 -490.8125 777.38525391 C-491.87185848 775.25738952 -492.95721011 773.14722914 -494.0625 771.04296875 C-498.80882345 761.94752854 -502.68998158 752.60207931 -506.41210938 743.04223633 C-508.32242846 738.14098599 -510.28732398 733.31537617 -512.52734375 728.5546875 C-515.31702502 722.50305821 -517.37343168 716.2867776 -519.375 709.9375 C-519.76002686 708.72884277 -520.14505371 707.52018555 -520.54174805 706.27490234 C-523.83475614 695.80290514 -526.74174934 685.24566304 -529.51171875 674.625 C-530.60917354 670.41958077 -531.82373043 666.27247272 -533.125 662.125 C-554.07679087 589.24141981 -550.91274778 505.82929345 -537.5625 431.9375 C-537.4233316 431.15279327 -537.28416321 430.36808655 -537.14077759 429.55960083 C-535.4418354 420.06429203 -533.23615728 410.95065702 -530.22924805 401.78491211 C-528.35352502 396.00947336 -526.75822853 390.16006398 -525.125 384.3125 C-519.68814748 365.17094135 -513.39918108 347.00547124 -505.25537109 328.84326172 C-504.02505933 326.05675631 -502.84189303 323.25531715 -501.67578125 320.44140625 C-497.65841257 310.7645455 -493.30247229 301.60290325 -488.01953125 292.5546875 C-485.30665622 287.8746927 -483.10006244 282.98105262 -481 278 C-480.01 278 -479.02 278 -478 278 C-477.855625 276.80375 -477.71125 275.6075 -477.5625 274.375 C-476.07913438 267.68940846 -472.00843138 262.47177108 -468.2421875 256.89550781 C-466.18314728 253.75352898 -464.32555381 250.49641621 -462.4375 247.25 C-459.30043077 241.91664243 -455.86626961 237.12856959 -451.88671875 232.375 C-449.94181498 229.92675675 -448.31887053 227.4159927 -446.6875 224.75 C-442.33787249 217.73511099 -437.1816037 211.4078418 -432 205 C-431.21109375 204.01515625 -430.4221875 203.0303125 -429.609375 202.015625 C-424.60486073 195.82122621 -419.3570338 189.8897775 -414 184 C-410.19261539 179.75609996 -406.5563635 175.44417607 -403.0625 170.9375 C-400.0164938 167.09484603 -396.83820251 163.91608693 -393.078125 160.78515625 C-389.1639805 157.42281784 -385.6170067 153.67545026 -382 150 C-378.48524665 146.4396005 -374.88352346 142.9957448 -371.1875 139.625 C-370.38940918 138.89676025 -370.38940918 138.89676025 -369.57519531 138.15380859 C-368.05213223 136.76698068 -366.52661544 135.38291527 -365 134 C-364.34128906 133.401875 -363.68257812 132.80375 -363.00390625 132.1875 C-352.61496103 122.93231495 -341.6088135 114.36564195 -330.5 106 C-329.6759668 105.37738281 -328.85193359 104.75476563 -328.00292969 104.11328125 C-314.47285114 94 -314.47285114 94 -311 94 C-311 93.34 -311 92.68 -311 92 C-309.2265625 90.66015625 -309.2265625 90.66015625 -306.625 89.0625 C-305.61953125 88.44117187 -304.6140625 87.81984375 -303.578125 87.1796875 C-303.01029297 86.83389648 -302.44246094 86.48810547 -301.85742188 86.13183594 C-299.85331023 84.91061333 -297.85619143 83.67842457 -295.859375 82.4453125 C-292.02038992 80.07975715 -288.16882433 77.73562598 -284.31103516 75.40087891 C-282.81653978 74.49496147 -281.3238925 73.58598511 -279.83349609 72.67333984 C-271.08449743 67.32074837 -262.24742195 62.53445076 -252.92578125 58.24902344 C-248.17023795 56.0584627 -243.61565587 53.70879779 -239.0625 51.125 C-228.70757646 45.3546318 -217.37602157 41.51643944 -206.328125 37.29980469 C-203.14732503 36.05753803 -200.00499162 34.7477262 -196.86328125 33.41015625 C-191.12368551 30.99879633 -185.31015034 28.99663961 -179.375 27.125 C-178.31539063 26.78766846 -177.25578125 26.45033691 -176.1640625 26.1027832 C-167.09997867 23.2589535 -157.95982065 20.73843958 -148.76708984 18.34619141 C-144.34979117 17.19406578 -139.99785201 16.03636514 -135.703125 14.484375 C-129.23351192 12.27005564 -122.46679819 11.24753945 -115.75 10.0625 C-115.02990753 9.9337146 -114.30981506 9.8049292 -113.56790161 9.67224121 C-76.01770759 2.97033677 -38.17965922 -0.77886807 0 0 Z " fill="#010101" transform="translate(549,2)"/>
<path d="M0 0 C0.66 0 1.32 0 2 0 C3.71794317 2.40450469 5.30920977 4.81062763 6.875 7.3125 C7.35678711 8.06998535 7.83857422 8.8274707 8.33496094 9.60791016 C9.89696499 12.06758879 11.44872669 14.53354234 13 17 C14.04896193 18.65787946 15.09843876 20.31543325 16.1484375 21.97265625 C18.20257007 25.21714221 20.25164733 28.46473775 22.296875 31.71484375 C24.34547835 34.96830126 26.41659176 38.2061945 28.5 41.4375 C31.13862264 45.56474026 33.6490017 49.75980628 36.14892578 53.97167969 C41.08395421 62.28182277 46.19666721 70.40264826 51.6262207 78.39819336 C55.55426098 84.22333161 59.12133812 90.21197132 62.62670898 96.29833984 C65.03677491 100.4541681 67.58878577 104.30179219 70.58203125 108.06640625 C73.08477265 111.47923543 75.06566448 115.20900054 77.1640625 118.87890625 C79.54000098 122.91800167 82.13807124 126.78032157 84.7578125 130.6640625 C91.10520387 140.07849494 97.33276467 149.50252077 102.62890625 159.5546875 C104.01195219 162.02131644 105.53518985 164.26870473 107.1875 166.5625 C110.62654066 171.34322917 113.73433364 176.29535493 116.8125 181.3125 C117.29291748 182.08988525 117.77333496 182.86727051 118.26831055 183.66821289 C120.51730816 187.35749458 122.5821042 190.89383934 124 195 C124.66 195 125.32 195 126 195 C127.51438714 197.07471038 128.89360974 199.13728552 130.25 201.3125 C130.80494141 202.17584961 130.80494141 202.17584961 131.37109375 203.05664062 C133.69813667 206.7298739 135.80955216 210.47959009 137.85546875 214.31640625 C140.92319015 219.99623236 144.41803018 225.30241568 148.0625 230.625 C151.94901458 236.31462307 155.6773033 241.97756486 158.92431641 248.06030273 C159.9628474 249.93300558 161.09519423 251.67714148 162.3125 253.4375 C164 256 164 256 164 258 C164.99 258.33 165.98 258.66 167 259 C168.421875 260.8203125 168.421875 260.8203125 169.75 263.125 C170.19859375 263.87007812 170.6471875 264.61515625 171.109375 265.3828125 C172.32430103 268.95298987 171.76130475 271.32173692 171 275 C169.52880859 277.91503906 169.52880859 277.91503906 167.6484375 280.765625 C166.96136719 281.82136719 166.27429688 282.87710937 165.56640625 283.96484375 C164.84324219 285.04894531 164.12007812 286.13304687 163.375 287.25 C161.96608208 289.40099991 160.55722745 291.55204127 159.1484375 293.703125 C158.45540527 294.75218018 157.76237305 295.80123535 157.04833984 296.88208008 C153.97886638 301.55433819 150.987985 306.27538844 148 311 C144.26388951 316.88393769 140.51764216 322.76119377 136.75 328.625 C136.37488281 329.20902588 135.99976563 329.79305176 135.61328125 330.39477539 C133.54152043 333.6163115 131.46025533 336.83132504 129.3671875 340.0390625 C124.54529113 347.43880555 119.82231599 354.88049961 115.25 362.4375 C111.97317784 367.85296364 108.59357794 373.1004199 104.88671875 378.234375 C101.70479281 382.89856458 98.82128061 387.74793883 95.90625 392.58203125 C93.91032618 395.8893978 91.91180491 399.17043651 89.73046875 402.359375 C87.87751257 404.9416379 87.87751257 404.9416379 87 408 C86.34 408 85.68 408 85 408 C84.7525 408.68320312 84.505 409.36640625 84.25 410.0703125 C82.77769024 413.52103849 80.94280422 416.67607236 79 419.875 C78.60554687 420.52919922 78.21109375 421.18339844 77.8046875 421.85742188 C74.59944155 427.12390303 71.20220058 432.24543178 67.74780273 437.35058594 C62.61002773 444.98660029 57.84340358 452.88596479 53.37109375 460.9296875 C52.91863281 461.61289062 52.46617187 462.29609375 52 463 C51.34 463 50.68 463 50 463 C50 463.99 50 464.98 50 466 C49.34 466 48.68 466 48 466 C47.88986572 466.56589844 47.77973145 467.13179687 47.66625977 467.71484375 C46.90454682 470.32738797 45.78066333 472.25452709 44.33984375 474.5625 C43.79730957 475.43592041 43.25477539 476.30934082 42.69580078 477.20922852 C42.11556152 478.13018311 41.53532227 479.0511377 40.9375 480 C40.34694824 480.94609131 39.75639648 481.89218262 39.14794922 482.86694336 C35.45663694 488.75738901 31.6607809 494.55790932 27.76171875 500.3125 C25.25649729 504.13421256 22.9987136 508.08580936 20.72265625 512.046875 C17.18325415 518.11442145 13.4489984 524.07022085 9.3125 529.75 C7.61916274 532.12982534 6.2422296 534.32627766 4.875 536.875 C3 540 3 540 0 541 C-3.53428911 537.56004245 -6.74182423 534.00637078 -9.875 530.1875 C-12.68494736 526.7705293 -15.51934097 523.39524913 -18.5 520.125 C-23.48438469 514.44673345 -27.71419416 508.20879611 -32 502 C-32.52513184 501.24557617 -33.05026367 500.49115234 -33.59130859 499.71386719 C-43.34301383 485.64929144 -51.90623122 471.07401014 -60 456 C-60.42522949 455.21286621 -60.85045898 454.42573242 -61.28857422 453.61474609 C-67.75192911 441.56727308 -67.75192911 441.56727308 -67 437 C-65.70425338 434.61582621 -64.40268339 432.4729752 -62.875 430.25 C-62.49601563 429.68023438 -62.11703125 429.11046875 -61.7265625 428.5234375 C-60.49446692 426.67529413 -59.24847032 424.83711769 -58 423 C-53.72159319 416.70361497 -49.70063443 410.29428711 -45.8125 403.75 C-45.29236328 402.87859375 -44.77222656 402.0071875 -44.23632812 401.109375 C-43.73166016 400.26375 -43.22699219 399.418125 -42.70703125 398.546875 C-42.23217285 397.75345703 -41.75731445 396.96003906 -41.26806641 396.14257812 C-40.24066849 394.40664356 -39.2460397 392.65134292 -38.26171875 390.890625 C-37.84535156 390.26671875 -37.42898437 389.6428125 -37 389 C-36.34 389 -35.68 389 -35 389 C-34.74605469 388.30648438 -34.49210937 387.61296875 -34.23046875 386.8984375 C-29.32628353 375.34635677 -21.26392772 364.75038682 -14.39892578 354.30615234 C-10.48335759 348.33164705 -6.70724204 342.3335843 -3.19921875 336.109375 C-2.20609091 334.36250519 -1.11463786 332.67195679 0 331 C0.66 331 1.32 331 2 331 C2.10054688 330.27039063 2.20109375 329.54078125 2.3046875 328.7890625 C3.08140654 325.67345916 4.21288414 323.93877866 6.125 321.375 C8.81710094 317.66501792 11.40081244 313.92202812 13.875 310.0625 C14.44992187 309.16660156 15.02484375 308.27070312 15.6171875 307.34765625 C17.12388609 304.97667958 17.12388609 304.97667958 18 302 C18.66 302 19.32 302 20 302 C20 301.01 20 300.02 20 299 C20.66 299 21.32 299 22 299 C22.23976563 298.32839844 22.47953125 297.65679688 22.7265625 296.96484375 C24.30626339 293.28695118 26.29315319 289.9744156 28.375 286.5625 C28.76171875 285.91990234 29.1484375 285.27730469 29.546875 284.61523438 C31.37312952 281.59701172 33.2163525 278.70131541 35.2890625 275.83984375 C37.1521712 272.7474236 37.64370224 271.51816567 37 268 C35.6794974 265.2255616 35.6794974 265.2255616 33.75 262.375 C33.22079956 261.54790527 33.22079956 261.54790527 32.6809082 260.70410156 C31.89324214 259.4735097 31.10107335 258.24579195 30.30517578 257.02050781 C28.913298 254.86577895 27.54621497 252.69677899 26.18359375 250.5234375 C20.35221169 241.22591656 14.42657025 231.99186451 8.453125 222.78515625 C4.53973212 216.75225784 0.66698966 210.69450555 -3.12109375 204.58203125 C-8.13615362 196.49934387 -13.27407197 188.5107689 -18.5 180.5625 C-23.38249543 173.12957436 -28.06440025 165.63318424 -32.50610352 157.92993164 C-35.90745224 152.06478091 -39.61701058 146.4476206 -43.41796875 140.8359375 C-46.25832148 136.63943948 -49.0062577 132.38506998 -51.75 128.125 C-54.61105018 123.68383381 -57.48115654 119.25366488 -60.4375 114.875 C-61.29188962 113.5834808 -62.14607905 112.29182913 -63 111 C-63.4228125 110.3915625 -63.845625 109.783125 -64.28125 109.15625 C-66.20516744 106.19237719 -67.02016937 104.3818108 -66.83203125 100.8203125 C-65.85655877 96.34138253 -64.24663217 92.60337273 -62.25 88.5 C-61.91484375 87.77941406 -61.5796875 87.05882812 -61.234375 86.31640625 C-59.21257683 82.08135175 -56.92618362 78.32841936 -54.12939453 74.56396484 C-52.63804751 72.49877483 -51.47561883 70.3263622 -50.3125 68.0625 C-47.62464942 63.03769316 -44.7389162 58.1620447 -41.75 53.3125 C-41.31341064 52.59263916 -40.87682129 51.87277832 -40.42700195 51.13110352 C-39.34066266 49.38463507 -38.17677726 47.68685517 -37 46 C-36.34 46 -35.68 46 -35 46 C-34.75378906 45.30132812 -34.50757813 44.60265625 -34.25390625 43.8828125 C-27.25904377 27.80116605 -12.30340971 12.30340971 0 0 Z " fill="#FEFEFE" transform="translate(245,268)"/>
<path d="M0 0 C4.04303174 0.51903786 5.63738268 2.42547176 8.25 5.4375 C9.43335938 6.79875 9.43335938 6.79875 10.640625 8.1875 C13.47139616 11.56192919 16.24317909 14.97454696 18.96484375 18.4375 C21.11630579 21.1464426 23.33832651 23.78806152 25.5625 26.4375 C37 40.37695312 37 40.37695312 37 45 C37.66 45 38.32 45 39 45 C40.15405273 46.55029297 40.15405273 46.55029297 41.43359375 48.7421875 C41.91223877 49.55212158 42.39088379 50.36205566 42.8840332 51.1965332 C43.39667725 52.08042725 43.90932129 52.96432129 44.4375 53.875 C45.52244306 55.72063702 46.60840179 57.56567731 47.6953125 59.41015625 C48.24606445 60.34746582 48.79681641 61.28477539 49.36425781 62.25048828 C51.33368974 65.56089759 53.37379991 68.82299891 55.42089844 72.08569336 C70.13689478 95.63386926 70.13689478 95.63386926 69 103 C67.70703125 105.62890625 67.70703125 105.62890625 65.8125 108.5625 C65.46227783 109.11131836 65.11205566 109.66013672 64.7512207 110.22558594 C63.51264514 112.15827933 62.25652096 114.07892915 61 116 C59.98636511 117.56600896 58.97337784 119.13243724 57.9609375 120.69921875 C54.15184137 126.58239276 50.32076275 132.45117007 46.48486328 138.31689453 C41.35200075 146.1709176 36.32280733 154.05493044 31.54931641 162.1328125 C28.3815825 167.45271345 25.01869444 172.63452773 21.625 177.8125 C17.25510688 184.4831473 12.97019231 191.19479293 8.8125 198 C8.35504395 198.74741455 7.89758789 199.4948291 7.42626953 200.26489258 C5.48480792 203.46109309 3.64199012 206.63732275 2 210 C1.34 210 0.68 210 0 210 C-0.25523437 210.69996094 -0.51046875 211.39992188 -0.7734375 212.12109375 C-2.13420428 215.3149954 -3.79121475 218.11456236 -5.625 221.0625 C-5.98198975 221.63701904 -6.33897949 222.21153809 -6.70678711 222.8034668 C-8.92602308 226.35277951 -11.21790531 229.8443468 -13.5625 233.3125 C-19.81495285 242.58467457 -25.62540661 252.14680801 -31.52294922 261.64672852 C-32.6541187 263.4489339 -33.81971468 265.22957203 -35 267 C-35.7049301 271.67313215 -33.9405891 274.25874852 -31.4375 278.125 C-31.07978516 278.68614502 -30.72207031 279.24729004 -30.35351562 279.82543945 C-29.24667499 281.5576841 -28.12512926 283.27959029 -27 285 C-25.66373214 287.06059997 -24.33013442 289.12293553 -23 291.1875 C-22.4225 292.06792969 -21.845 292.94835937 -21.25 293.85546875 C-20 296 -20 296 -20 298 C-19.34 298 -18.68 298 -18 298 C-17.71809814 298.52932129 -17.43619629 299.05864258 -17.14575195 299.60400391 C-13.29235648 306.70313513 -8.8826148 313.3686697 -4.37695312 320.06640625 C-3.81298828 320.91847656 -3.24902344 321.77054688 -2.66796875 322.6484375 C-2.15516357 323.41333496 -1.6423584 324.17823242 -1.11401367 324.96630859 C0 327 0 327 0 330 C0.66 330 1.32 330 2 330 C5.5119902 334.28420492 8.17288426 339.24165853 10.75 344.125 C13.57433455 349.4187789 16.81619048 354.33451671 20.17553711 359.2956543 C23.68072038 364.48184772 26.9891941 369.75793734 30.23828125 375.109375 C31.79210159 377.65888067 33.38695793 380.17531122 35 382.6875 C37 386 37 386 37 388 C37.66 388 38.32 388 39 388 C40.6101553 390.51415553 42.10100263 393.02579846 43.5625 395.625 C44.46912867 397.20180254 45.37801739 398.77730757 46.2890625 400.3515625 C46.97403809 401.53540527 46.97403809 401.53540527 47.67285156 402.74316406 C49.51871087 405.88207566 51.46208093 408.94059645 53.4375 412 C53.79263672 412.55123535 54.14777344 413.1024707 54.51367188 413.67041016 C56.63911081 416.953555 58.81119788 420.20155225 61.0078125 423.4375 C61.51513916 424.19546875 62.02246582 424.9534375 62.54516602 425.734375 C63.53406119 427.21095541 64.53407292 428.68016966 65.54663086 430.140625 C68.24919898 434.19762252 69.89729349 436.97380714 69 442 C67.5390625 445.25390625 67.5390625 445.25390625 65.625 448.5625 C63.46796458 452.33065448 61.58251299 455.96186341 60 460 C59.32659947 461.16670556 58.61743562 462.31346286 57.875 463.4375 C55.55374567 467.04759031 53.45821363 470.74765413 51.375 474.5 C46.76487453 482.68973925 41.43294956 490.34052481 36 498 C35.31357422 498.96897217 35.31357422 498.96897217 34.61328125 499.95751953 C31.75732893 503.9826529 28.88117937 507.992899 26 512 C25.56139648 512.64565918 25.12279297 513.29131836 24.67089844 513.95654297 C23.49456886 515.67112723 22.25193924 517.33981971 21 519 C20.34 519 19.68 519 19 519 C18.73703125 519.57105469 18.4740625 520.14210938 18.203125 520.73046875 C16.01131917 524.86501157 12.92566281 528.36582595 10 532 C9.18208984 533.04220703 9.18208984 533.04220703 8.34765625 534.10546875 C7.84105469 534.73066406 7.33445312 535.35585938 6.8125 536 C6.36519531 536.556875 5.91789063 537.11375 5.45703125 537.6875 C3.69772599 539.27228973 2.28205605 539.50033509 0 540 C-2.35522708 536.39652528 -4.70898008 532.79208989 -7.0625 529.1875 C-7.71927734 528.18267578 -8.37605469 527.17785156 -9.05273438 526.14257812 C-21.44133106 507.1630039 -21.44133106 507.1630039 -24.3125 501.75 C-26.88169555 497.02167594 -29.89665057 492.61288927 -32.91186523 488.16357422 C-36.89001937 482.25472649 -40.59654012 476.19558325 -44.24462891 470.07836914 C-46.61040431 466.14172946 -49.10747857 462.57743137 -52 459 C-52.93678175 457.37712457 -53.83206954 455.72969029 -54.6875 454.0625 C-58.05719825 447.74643243 -61.90814651 441.78713136 -65.82226562 435.80273438 C-70.81060403 428.16718488 -75.73529927 420.4884674 -80.5625 412.75 C-81.22378906 411.69296875 -81.88507813 410.6359375 -82.56640625 409.546875 C-84 407 -84 407 -84 405 C-84.66 405 -85.32 405 -86 405 C-87.26171875 403.21850586 -87.26171875 403.21850586 -88.6875 400.71484375 C-89.21617676 399.79928711 -89.74485352 398.88373047 -90.28955078 397.94042969 C-90.85399902 396.94946289 -91.41844727 395.95849609 -92 394.9375 C-95.87308772 388.25180014 -99.76470255 381.6307495 -104.125 375.25 C-108.30150019 369.13456236 -112.19067297 362.87554382 -115.98291016 356.51464844 C-118.33867419 352.59467147 -120.80477831 348.80669079 -123.44921875 345.07421875 C-126.8909292 340.21360256 -130.03140038 335.21204672 -133.125 330.125 C-138.06854773 322.06444491 -143.14154134 314.1028762 -148.32128906 306.19238281 C-152.16584774 300.31205661 -155.91504466 294.38001455 -159.59204102 288.39355469 C-162.41606875 283.82764173 -165.47295577 279.51207167 -168.8203125 275.30859375 C-170.5352244 271.95259067 -170.45856707 269.73178721 -170 266 C-168.82024247 263.3145638 -167.28750308 260.97210952 -165.625 258.5625 C-165.2125 257.92634766 -164.8 257.29019531 -164.375 256.63476562 C-163.31568586 255.04408585 -162.16442227 253.51543043 -161 252 C-160.34 252 -159.68 252 -159 252 C-158.690625 250.80697266 -158.690625 250.80697266 -158.375 249.58984375 C-156.53753598 244.79260105 -153.84321316 240.82143107 -151 236.5625 C-150.41984131 235.68086182 -149.83968262 234.79922363 -149.24194336 233.89086914 C-146.56151269 229.82511354 -143.85484779 225.77754592 -141.12890625 221.7421875 C-140.27307322 220.47420413 -139.41758799 219.20598592 -138.5625 217.9375 C-137.95317627 217.03378662 -137.95317627 217.03378662 -137.33154297 216.11181641 C-134.35515079 211.64907683 -131.74634403 207.05981779 -129.2421875 202.3203125 C-127.66488802 199.37403612 -126.01721004 196.66559898 -124 194 C-123.34 194 -122.68 194 -122 194 C-121.885354 193.42507813 -121.77070801 192.85015625 -121.65258789 192.2578125 C-120.93949113 189.79065243 -119.94003698 188.03626208 -118.55859375 185.875 C-118.06166016 185.09261963 -117.56472656 184.31023926 -117.05273438 183.50415039 C-116.51970703 182.67778076 -115.98667969 181.85141113 -115.4375 181 C-114.89029297 180.14204834 -114.34308594 179.28409668 -113.77929688 178.40014648 C-110.90932092 173.91475267 -107.99025246 169.4688551 -105 165.0625 C-101.50555184 159.88607679 -98.31208656 154.55575206 -95.125 149.1875 C-89.49529078 139.70943298 -83.50026274 130.5485886 -77.2578125 121.46484375 C-73.43465664 115.84896455 -70.16722031 110.00873357 -67 104 C-66.34 104 -65.68 104 -65 104 C-65 103.01 -65 102.02 -65 101 C-64.34 101 -63.68 101 -63 101 C-62.72091797 100.26442871 -62.44183594 99.52885742 -62.15429688 98.77099609 C-61.10170153 96.2441439 -59.93442626 94.00884389 -58.53125 91.6640625 C-57.80566895 90.44988647 -57.80566895 90.44988647 -57.06542969 89.21118164 C-56.54883789 88.3577417 -56.03224609 87.50430176 -55.5 86.625 C-54.69804199 85.29359985 -54.69804199 85.29359985 -53.87988281 83.93530273 C-50.24175856 77.93779553 -46.45957955 72.06124965 -42.52514648 66.25488281 C-37.91376735 59.44140374 -33.55504012 52.45994281 -29.46484375 45.3203125 C-28 43 -28 43 -26.46484375 41.50390625 C-24.536799 39.52444697 -23.69927954 37.45541356 -22.5625 34.9375 C-18.25517372 26.07517617 -12.58585358 18.09398487 -7 10 C-6.59442871 9.4121875 -6.18885742 8.824375 -5.77099609 8.21875 C-3.86578737 5.46593845 -1.94457447 2.72514309 0 0 Z " fill="#FEFEFE" transform="translate(833,269)"/>
<path d="M0 0 C2.0004994 1.14850579 3.91745611 2.37917699 5.83813477 3.65649414 C6.88904297 4.33421875 6.88904297 4.33421875 7.96118164 5.02563477 C10.0339633 6.36773723 12.09437267 7.72674671 14.15063477 9.09399414 C15.18833008 9.78364258 16.22602539 10.47329102 17.29516602 11.18383789 C19.19521519 12.45486942 21.09366186 13.72829985 22.99047852 15.00415039 C26.86530871 17.56661535 30.78044328 20.05901277 34.71313477 22.53149414 C35.75050781 23.18794922 35.75050781 23.18794922 36.80883789 23.85766602 C39.56497511 25.58127611 42.05477282 27.06204016 45.15063477 28.09399414 C45.15063477 28.75399414 45.15063477 29.41399414 45.15063477 30.09399414 C45.8093457 30.32473633 46.46805664 30.55547852 47.14672852 30.79321289 C51.06675455 32.49070141 54.58559339 34.66113701 58.21313477 36.90649414 C58.99317871 37.38570312 59.77322266 37.86491211 60.5769043 38.35864258 C67.48648919 42.62862618 74.28482706 47.06358897 81.07714844 51.5168457 C86.55843296 55.09800196 92.10021965 58.48246056 97.78344727 61.73461914 C100.68892148 63.40310928 103.46934059 65.08302351 106.15063477 67.09399414 C106.15063477 67.75399414 106.15063477 68.41399414 106.15063477 69.09399414 C107.0230481 69.27490601 107.0230481 69.27490601 107.91308594 69.45947266 C110.23092919 70.11676394 111.90383305 70.98777931 113.95141602 72.24633789 C114.67353271 72.68800293 115.39564941 73.12966797 116.13964844 73.5847168 C116.90639893 74.06215332 117.67314941 74.53958984 118.46313477 75.03149414 C119.66256714 75.77085205 119.66256714 75.77085205 120.88623047 76.52514648 C126.55828327 80.04378966 132.12285802 83.70290474 137.64892578 87.4453125 C143.33868355 91.27659511 149.19765147 94.79610729 155.10375977 98.28149414 C157.1516171 99.49970671 159.16802084 100.77225153 161.15063477 102.09399414 C164.85545914 101.75383964 167.52561672 100.51866689 170.68969727 98.62524414 C171.93106445 97.89241211 171.93106445 97.89241211 173.19750977 97.14477539 C174.04829102 96.63301758 174.89907227 96.12125977 175.77563477 95.59399414 C177.47472475 94.58117324 179.17518851 93.57065245 180.87719727 92.56274414 C181.62565918 92.11350586 182.37412109 91.66426758 183.14526367 91.20141602 C185.15063477 90.09399414 185.15063477 90.09399414 188.15063477 89.09399414 C188.15063477 88.43399414 188.15063477 87.77399414 188.15063477 87.09399414 C191.15063477 85.09399414 191.15063477 85.09399414 194.15063477 85.09399414 C194.15063477 84.43399414 194.15063477 83.77399414 194.15063477 83.09399414 C194.73586914 82.80008789 195.32110352 82.50618164 195.92407227 82.20336914 C203.07903108 78.46474201 209.70257168 74.13648091 216.38793945 69.62475586 C221.81422311 65.96761725 227.30045066 62.47333536 232.89282227 59.07446289 C236.57755733 56.83446208 240.2424559 54.56453112 243.90063477 52.28149414 C244.56546875 51.86657715 245.23030273 51.45166016 245.9152832 51.02416992 C251.7187136 47.38903891 257.46220854 43.66428099 263.20068359 39.92773438 C267.71278916 36.99808831 272.28226542 34.19970627 276.92016602 31.47290039 C279.28914683 30.00836409 281.52166495 28.41701934 283.77563477 26.78149414 C288.07150154 23.7120499 292.53272684 21.13472774 297.15063477 18.59399414 C301.66199648 16.1108431 306.02923353 13.6114321 310.21313477 10.59399414 C314.34207314 7.62675707 318.53890267 4.80697416 322.83813477 2.09399414 C323.4563208 1.68342773 324.07450684 1.27286133 324.71142578 0.84985352 C327.80799386 -1.0679568 329.89074705 -1.90660262 333.55297852 -1.89819336 C337.95643668 -0.68377602 341.91701842 0.992608 346.02563477 2.96899414 C347.18192383 3.49686523 347.18192383 3.49686523 348.36157227 4.03540039 C349.09375977 4.3821582 349.82594727 4.72891602 350.58032227 5.08618164 C351.24273926 5.3992627 351.90515625 5.71234375 352.58764648 6.03491211 C354.15063477 7.09399414 354.15063477 7.09399414 355.15063477 10.09399414 C355.81063477 10.16618164 356.47063477 10.23836914 357.15063477 10.31274414 C361.26581354 11.38440528 364.52841073 13.4072516 368.15063477 15.59399414 C368.90175537 16.04178223 369.65287598 16.48957031 370.42675781 16.95092773 C376.14666487 20.39879267 381.64833708 24.07670002 387.09594727 27.94165039 C390.13521541 30.08312961 393.22485459 32.1245441 396.33813477 34.15649414 C406.3551191 40.8213896 415.33155325 48.75189823 424.42163086 56.6027832 C427.32517201 59.1069952 430.23804411 61.60031891 433.15063477 64.09399414 C432.55298998 67.65698424 432.29906644 67.98556944 429.15063477 70.28540039 C427.82433436 71.08751086 426.49038786 71.87706127 425.15063477 72.65649414 C423.6861483 73.53773843 422.22263842 74.4206073 420.76000977 75.30493164 C419.62015625 75.98894043 419.62015625 75.98894043 418.45727539 76.68676758 C414.71736737 78.96839647 411.06348121 81.37886599 407.40063477 83.78149414 C402.67331015 86.86559689 397.92910004 89.85639199 393.02563477 92.65649414 C387.08447015 96.0549381 381.44448796 99.8426967 375.77172852 103.66430664 C369.95726605 107.57944957 364.09862076 111.43233578 357.99047852 114.87524414 C353.11763346 117.64112623 348.42857802 120.69538237 343.71313477 123.71899414 C337.14713292 127.91389452 330.57700023 132.09989949 323.96313477 136.21899414 C311.5164582 143.9755723 299.12002391 151.80931243 286.79516602 159.75805664 C281.68763967 163.04156814 276.54292428 166.26646087 271.40429688 169.50097656 C265.97662062 172.92356563 260.58750111 176.40094431 255.21313477 179.90649414 C249.51416241 183.62241797 243.73231494 187.11583012 237.82641602 190.49633789 C234.39558997 192.54481651 231.18694641 194.84359485 227.93969727 197.16821289 C223.96445593 199.91302238 219.85853484 202.43093114 215.75073242 204.97119141 C209.20905192 209.02837177 202.76164624 213.22456972 196.32885742 217.4519043 C192.2571976 220.11724793 188.16010709 222.70258185 183.97094727 225.17993164 C178.79745646 228.2536116 174.05129807 231.73709517 169.22875977 235.33618164 C165.63921755 237.38604712 164.20442082 237.88547177 160.15063477 237.09399414 C157.22294854 235.47373002 154.61746714 233.4990056 151.96313477 231.46899414 C146.38548474 227.35883214 140.90368772 223.68566113 134.73657227 220.50024414 C130.79795867 218.35839989 127.15429732 215.8131252 123.44750977 213.29711914 C119.74563703 210.82335584 115.99158461 208.44838702 112.21313477 206.09399414 C111.54193604 205.67472656 110.8707373 205.25545898 110.17919922 204.82348633 C106.88270092 202.77077715 103.57439564 200.74164997 100.24047852 198.75024414 C99.63389404 198.38543945 99.02730957 198.02063477 98.40234375 197.64477539 C96.74912324 196.6530735 95.09066047 195.67012587 93.43188477 194.68774414 C92.67907227 194.16180664 91.92625977 193.63586914 91.15063477 193.09399414 C91.15063477 192.43399414 91.15063477 191.77399414 91.15063477 191.09399414 C90.47258789 190.85036133 89.79454102 190.60672852 89.09594727 190.35571289 C85.5469209 188.83537401 82.3122596 186.9144742 79.02563477 184.90649414 C78.36112305 184.50358154 77.69661133 184.10066895 77.01196289 183.68554688 C69.44943059 179.0847633 61.99449819 174.34220979 54.65161133 169.3984375 C48.39515892 165.18833357 42.10065766 161.19673939 35.54125977 157.46899414 C33.70355129 156.41201149 31.9145784 155.26995656 30.15063477 154.09399414 C30.15063477 153.43399414 30.15063477 152.77399414 30.15063477 152.09399414 C29.2744751 151.83134766 28.39831543 151.56870117 27.49560547 151.2980957 C24.19814233 150.11109561 21.58643244 148.69729848 18.63110352 146.82836914 C17.60823242 146.18512695 16.58536133 145.54188477 15.53149414 144.87915039 C14.47768555 144.20754883 13.42387695 143.53594727 12.33813477 142.84399414 C10.77482422 141.85979492 10.77482422 141.85979492 9.17993164 140.85571289 C4.52665942 137.9171116 -0.09821047 134.94549853 -4.66577148 131.87524414 C-8.3618447 129.39369617 -12.1324858 127.0907601 -15.97436523 124.84399414 C-21.11753135 121.79712858 -26.14506685 118.6263962 -31.09936523 115.28149414 C-36.97944626 111.31391636 -42.9203633 107.45391682 -48.91186523 103.65649414 C-49.70947266 103.14820068 -50.50708008 102.63990723 -51.32885742 102.11621094 C-55.41425132 99.53666797 -59.47910234 97.15675823 -63.84936523 95.09399414 C-63.84936523 94.43399414 -63.84936523 93.77399414 -63.84936523 93.09399414 C-64.58493652 92.81491211 -65.32050781 92.53583008 -66.07836914 92.24829102 C-68.60522133 91.19569567 -70.84052135 90.0284204 -73.18530273 88.62524414 C-73.99555908 88.14104004 -74.80581543 87.65683594 -75.640625 87.15795898 C-76.49325928 86.64185059 -77.34589355 86.12574219 -78.22436523 85.59399414 C-79.10471436 85.06370605 -79.98506348 84.53341797 -80.89208984 83.98706055 C-88.70177355 79.24933195 -96.30783885 74.24480536 -103.84936523 69.09399414 C-104.83936523 68.43399414 -105.82936523 67.77399414 -106.84936523 67.09399414 C-106.32583834 63.0772792 -104.47281755 61.50294575 -101.47436523 58.90649414 C-100.56686523 58.11887695 -99.65936523 57.33125977 -98.72436523 56.51977539 C-97.77561523 55.71926758 -96.82686523 54.91875977 -95.84936523 54.09399414 C-94.51905273 52.97057617 -94.51905273 52.97057617 -93.16186523 51.82446289 C-66.97874352 30.09399414 -66.97874352 30.09399414 -61.84936523 30.09399414 C-61.84936523 29.43399414 -61.84936523 28.77399414 -61.84936523 28.09399414 C-60.45092773 27.01586914 -60.45092773 27.01586914 -58.47436523 25.84399414 C-57.74483643 25.40555176 -57.01530762 24.96710938 -56.26367188 24.51538086 C-55.46695068 24.04632324 -54.67022949 23.57726562 -53.84936523 23.09399414 C-52.18073138 22.09771142 -50.51277464 21.10029385 -48.84545898 20.10180664 C-48.00225098 19.59810547 -47.15904297 19.0944043 -46.2902832 18.57543945 C-44.08800823 17.23883168 -41.9184964 15.86630513 -39.75952148 14.46118164 C-32.64308275 9.83446431 -25.4081793 5.65410111 -17.78686523 1.90649414 C-17.00126221 1.50736816 -16.21565918 1.10824219 -15.40625 0.69702148 C-9.88451814 -1.92753094 -5.79274005 -2.83786908 0 0 Z " fill="#FEFEFE" transform="translate(376.849365234375,178.906005859375)"/>
<path d="M0 0 C0.82113281 0.45632813 1.64226562 0.91265625 2.48828125 1.3828125 C3.92107422 2.12917969 3.92107422 2.12917969 5.3828125 2.890625 C6.34574219 3.42429687 7.30867188 3.95796875 8.30078125 4.5078125 C9.76451172 5.31605469 9.76451172 5.31605469 11.2578125 6.140625 C11.99386719 6.55054688 12.72992187 6.96046875 13.48828125 7.3828125 C13.48828125 8.0428125 13.48828125 8.7028125 13.48828125 9.3828125 C14.54789063 9.77146484 14.54789063 9.77146484 15.62890625 10.16796875 C18.71074545 11.4773294 21.39616689 13.04951327 24.23828125 14.8203125 C24.7912085 15.16449219 25.34413574 15.50867188 25.91381836 15.86328125 C35.75248698 22.01701975 45.48207453 28.34727369 55.11328125 34.8203125 C59.15994737 37.53097152 63.21993768 40.03940819 67.48828125 42.3828125 C68.80205757 43.13057452 70.11456908 43.88056328 71.42578125 44.6328125 C72.43640625 45.2103125 73.44703125 45.7878125 74.48828125 46.3828125 C74.48828125 47.0428125 74.48828125 47.7028125 74.48828125 48.3828125 C75.14054687 48.6096875 75.7928125 48.8365625 76.46484375 49.0703125 C80.49835084 50.82129232 84.12835154 53.07282889 87.86328125 55.3828125 C89.05812134 56.11649048 89.05812134 56.11649048 90.27709961 56.86499023 C95.89721583 60.33856152 101.39671232 63.96377749 106.86157227 67.67504883 C112.20822572 71.27253693 117.72459504 74.54086451 123.32836914 77.72094727 C128.00444144 80.40256785 132.37853444 83.38374585 136.77319336 86.50268555 C141.69155022 89.90851831 146.78242177 93.03940164 151.86328125 96.1953125 C153.46236328 97.19594727 153.46236328 97.19594727 155.09375 98.21679688 C161.16030116 102.032792 161.16030116 102.032792 167.48828125 105.3828125 C167.48828125 106.0428125 167.48828125 106.7028125 167.48828125 107.3828125 C168.17019531 107.62902344 168.85210938 107.87523437 169.5546875 108.12890625 C173.03261634 109.6154777 176.20461419 111.48079827 179.42578125 113.4453125 C180.08763428 113.84596924 180.7494873 114.24662598 181.43139648 114.65942383 C186.8355088 117.94773571 192.16553254 121.34672331 197.47265625 124.7890625 C203.48157145 128.6826898 209.53754101 132.50322185 215.58618164 136.3347168 C219.8661378 139.05206951 224.1207905 141.79435042 228.32421875 144.62890625 C231.40473833 146.694522 234.4978214 148.56155561 237.80078125 150.2578125 C242.99950238 153.02510928 247.82303354 156.20234785 252.6640625 159.55078125 C255.51831426 161.40229449 258.41994001 162.91889194 261.48828125 164.3828125 C261.48828125 165.0428125 261.48828125 165.7028125 261.48828125 166.3828125 C262.27203125 166.6303125 263.05578125 166.8778125 263.86328125 167.1328125 C266.81145233 168.53670349 267.39075895 169.38956987 268.48828125 172.3828125 C265.41792892 175.55220846 262.24157091 178.58858291 258.98828125 181.5703125 C258.25609375 182.24449219 257.52390625 182.91867187 256.76953125 183.61328125 C254.4182223 185.43715618 252.29022634 186.42087712 249.48828125 187.3828125 C249.48828125 188.0428125 249.48828125 188.7028125 249.48828125 189.3828125 C247.58984375 191.109375 247.58984375 191.109375 245.11328125 193.0078125 C243.89511719 193.95527344 243.89511719 193.95527344 242.65234375 194.921875 C240.48828125 196.3828125 240.48828125 196.3828125 238.48828125 196.3828125 C238.48828125 197.0428125 238.48828125 197.7028125 238.48828125 198.3828125 C236.6015625 199.8359375 236.6015625 199.8359375 233.80078125 201.6328125 C232.70378906 202.34308594 231.60679687 203.05335938 230.4765625 203.78515625 C229.84830566 204.1910498 229.22004883 204.59694336 228.57275391 205.01513672 C226.26797007 206.5273643 223.99283626 208.0787239 221.71875 209.63671875 C210.55150319 217.25383171 199.20926729 224.123969 187.21801758 230.36816406 C185.31800459 231.38499247 185.31800459 231.38499247 183.48828125 233.3828125 C181.75390625 234.12890625 181.75390625 234.12890625 179.73828125 234.8203125 C177.05003609 235.76824705 174.82552926 236.74667634 172.30078125 238.1328125 C168.94944901 239.6222935 167.95152814 239.37449113 164.48828125 238.3828125 C156.27749989 234.32703379 148.70735735 228.93206486 141.125 223.82421875 C137.85200864 221.62062916 134.55669136 219.45514172 131.23828125 217.3203125 C130.3875 216.77246094 129.53671875 216.22460938 128.66015625 215.66015625 C126.43237305 214.24842248 126.43237305 214.24842248 123.48828125 213.3828125 C123.07707031 212.95226562 122.66585938 212.52171875 122.2421875 212.078125 C119.65338612 209.57580919 116.54173205 208.01364931 113.42578125 206.2578125 C105.58643526 201.75347513 98.02820659 196.86857552 90.48828125 191.8828125 C81.66090616 186.04955612 72.766863 180.42777509 63.5859375 175.16796875 C61.51317763 173.97345266 59.47881306 172.70983371 57.48828125 171.3828125 C57.48828125 170.7228125 57.48828125 170.0628125 57.48828125 169.3828125 C56.85019531 169.16625 56.21210937 168.9496875 55.5546875 168.7265625 C51.25843571 166.84387382 47.39858766 164.36461408 43.42578125 161.8828125 C41.83164293 160.89175784 40.23662085 159.902123 38.640625 158.9140625 C37.93929443 158.47642578 37.23796387 158.03878906 36.51538086 157.58789062 C34.54646659 156.41740275 32.54963059 155.37980121 30.48828125 154.3828125 C30.48828125 153.7228125 30.48828125 153.0628125 30.48828125 152.3828125 C29.74835938 152.10953125 29.0084375 151.83625 28.24609375 151.5546875 C25.66229477 150.45675592 23.6463571 149.2474593 21.36328125 147.6328125 C17.05561828 144.68166652 12.59155791 142.19881456 7.96875 139.77734375 C5.48828125 138.3828125 5.48828125 138.3828125 3.5390625 136.70703125 C0.64860279 134.84062012 -1.12294128 134.9465074 -4.51171875 135.3828125 C-7.54153871 136.78564992 -7.54153871 136.78564992 -10.51171875 138.8203125 C-11.07511963 139.18302246 -11.63852051 139.54573242 -12.21899414 139.91943359 C-13.40511726 140.68481189 -14.58746 141.45607784 -15.76611328 142.23291016 C-18.47641133 144.01829531 -21.21547243 145.75860867 -23.94921875 147.5078125 C-25.10961859 148.25613282 -26.26976079 149.00485276 -27.4296875 149.75390625 C-32.52968808 153.04276442 -37.64488975 156.30771772 -42.76171875 159.5703125 C-43.67236084 160.15248535 -44.58300293 160.7346582 -45.52124023 161.33447266 C-50.01133488 164.19546834 -54.5177105 167.02881041 -59.05859375 169.80859375 C-59.86651367 170.30399658 -60.67443359 170.79939941 -61.50683594 171.30981445 C-63.51171875 172.3828125 -63.51171875 172.3828125 -65.51171875 172.3828125 C-65.51171875 173.0428125 -65.51171875 173.7028125 -65.51171875 174.3828125 C-67.50631484 175.70309016 -69.49547327 176.89402201 -71.57421875 178.0703125 C-78.43336347 182.05982359 -85.07719571 186.32492124 -91.69921875 190.6953125 C-99.04365091 195.53040204 -106.4440027 200.21752136 -114.01171875 204.6953125 C-121.77297409 209.28797845 -129.290917 214.14758544 -136.75585938 219.20361328 C-145.31170548 224.94954441 -154.07142188 230.385344 -162.8671875 235.75390625 C-164.77169848 236.92699499 -166.65058399 238.142056 -168.51171875 239.3828125 C-174.00514019 239.13014772 -178.53966497 236.69865499 -183.38671875 234.3203125 C-184.56234375 233.75473633 -184.56234375 233.75473633 -185.76171875 233.17773438 C-187.68166928 232.25288016 -189.59715775 231.31877272 -191.51171875 230.3828125 C-191.51171875 229.7228125 -191.51171875 229.0628125 -191.51171875 228.3828125 C-192.72988281 228.03476562 -192.72988281 228.03476562 -193.97265625 227.6796875 C-198.32238157 226.08574842 -202.14246416 223.96127761 -206.13671875 221.6328125 C-206.95849609 221.15545654 -207.78027344 220.67810059 -208.62695312 220.1862793 C-217.54226307 214.91284984 -225.97370048 208.98449478 -234.36914062 202.92773438 C-236.21705347 201.59528309 -238.07246145 200.27481097 -239.93359375 198.9609375 C-244.73084253 195.54190384 -249.23966225 191.97191427 -253.6171875 188.03125 C-255.51934944 186.37617301 -257.47954069 184.87439174 -259.51171875 183.3828125 C-263.72737251 180.28798732 -267.62466758 176.87702339 -271.51171875 173.3828125 C-271.14813369 170.71273468 -270.86395001 169.65761361 -268.69921875 167.96875 C-267.97734375 167.56914063 -267.25546875 167.16953125 -266.51171875 166.7578125 C-263.42005266 165.15053356 -263.42005266 165.15053356 -261.51171875 162.3828125 C-259.93732587 161.455309 -258.32560594 160.59078333 -256.69921875 159.7578125 C-251.32289859 156.90864283 -246.33724105 153.67413556 -241.3359375 150.21484375 C-233.88698527 145.3828125 -233.88698527 145.3828125 -230.51171875 145.3828125 C-230.18171875 144.3928125 -229.85171875 143.4028125 -229.51171875 142.3828125 C-226.84375 140.65625 -226.84375 140.65625 -223.32421875 138.7578125 C-217.78726139 135.70537822 -212.42813016 132.47724517 -207.12524414 129.02758789 C-206.54250732 128.64852295 -205.95977051 128.26945801 -205.359375 127.87890625 C-204.44696045 127.28505127 -204.44696045 127.28505127 -203.51611328 126.67919922 C-173.68121028 107.3828125 -173.68121028 107.3828125 -170.51171875 107.3828125 C-170.51171875 106.7228125 -170.51171875 106.0628125 -170.51171875 105.3828125 C-168.421875 103.83203125 -168.421875 103.83203125 -165.57421875 102.0703125 C-164.55972656 101.44125 -163.54523438 100.8121875 -162.5 100.1640625 C-160.11042695 98.73968955 -157.71314372 97.38273887 -155.26171875 96.0703125 C-149.74922368 93.0733232 -144.62231053 89.50695899 -139.421875 86.0078125 C-130.75652074 80.17788425 -122.07208123 74.60425795 -112.83203125 69.71484375 C-110.79487871 68.54536729 -109.14017682 67.3677632 -107.38671875 65.8203125 C-105.0554264 63.84378203 -103.26123436 62.63271888 -100.61328125 61.2421875 C-94.51551206 57.91171606 -88.79461009 54.03840544 -83.01171875 50.1953125 C-74.78006861 44.75290159 -66.49141062 39.48519697 -57.93505859 34.56323242 C-53.56231048 32.03739645 -49.43638018 29.31080417 -45.34375 26.34765625 C-40.61798235 23.06895124 -35.71617276 20.06748894 -30.84155273 17.01635742 C-24.95223766 13.32008845 -19.1432858 9.52295771 -13.4074707 5.5925293 C-3.79192266 -0.93176327 -3.79192266 -0.93176327 0 0 Z " fill="#FEFEFE" transform="translate(541.51171875,661.6171875)"/>
<path d="M0 0 C0.66 0.33 1.32 0.66 2 1 C-6.91 9.91 -15.82 18.82 -25 28 C-25.66 27.67 -26.32 27.34 -27 27 C-18 18 -9 9 0 0 Z " fill="#5B5B5B" transform="translate(175,144)"/>
</svg>
