<svg xmlns="http://www.w3.org/2000/svg" xml:space="preserve" id="Layer_1" x="0" y="0" version="1.1" viewBox="0 0 283.46 283.46"><style>.st0{fill:#fff}</style><path d="M141.73 283.46c-19.13 0-37.69-3.75-55.17-11.14-16.88-7.14-32.03-17.36-45.05-30.37-13.01-13.01-23.23-28.17-30.37-45.05C3.75 179.42 0 160.86 0 141.73s3.75-37.69 11.14-55.17c7.14-16.88 17.36-32.03 30.37-45.05C54.53 28.5 69.68 18.28 86.56 11.14 104.04 3.75 122.6 0 141.73 0s37.69 3.75 55.17 11.14c16.88 7.14 32.03 17.36 45.05 30.37 13.01 13.01 23.23 28.17 30.37 45.05 7.39 17.48 11.14 36.04 11.14 55.17s-3.75 37.69-11.14 55.17c-7.14 16.88-17.36 32.03-30.37 45.05-13.01 13.01-28.17 23.23-45.05 30.37-17.48 7.4-36.04 11.14-55.17 11.14" class="st0"/><circle cx="141.73" cy="141.73" r="134.22"/><path d="m216.39 107.39 19.93-19.93-15.94-15.94-19.93 19.93H83.02L63.09 71.51 47.15 87.46l19.93 19.93v68.69l-19.93 19.93 15.94 15.94 19.93-19.93h117.43l19.93 19.93 15.94-15.94-19.93-19.93zm-22.55 62.08H89.62v-55.48h104.22zm-69.23-27.74c0-9.45 7.66-17.12 17.12-17.12s17.12 7.66 17.12 17.12c0 9.45-7.66 17.12-17.12 17.12s-17.12-7.66-17.12-17.12" class="st0"/></svg>