<svg width="1096" height="1096" viewBox="0 0 1096 1096" fill="none" xmlns="http://www.w3.org/2000/svg">
<rect width="1096" height="1096" rx="548" fill="url(#paint0_linear_2701_30672)"/>
<path d="M932.341 327.013C926.783 317.408 914.396 314.245 904.912 320.011L395.528 629.385C382.547 605.135 375.191 577.425 375.191 548.001C375.191 452.466 452.729 375.02 548.378 375.02C589.448 375.02 627.153 389.336 656.842 413.191L548.477 487.491L830.095 325.085C836.165 321.593 838.243 313.833 834.73 307.787C831.035 301.395 822.673 299.501 816.57 303.685L747.609 350.967C696.791 299.698 626.312 267.936 548.378 267.936C393.516 267.936 267.98 393.323 267.98 548.001C267.98 597.804 281.01 644.558 303.821 685.085L161 771.823L307.632 691.642C356.602 773.356 446.082 828.067 548.378 828.067C703.24 828.067 828.776 702.68 828.776 548.001C828.776 539.27 828.776 540.759 828.776 514.558C828.776 488.358 839.421 454.837 877.136 434.657C880.369 432.927 881.54 428.875 879.709 425.695C877.911 422.598 873.953 421.527 870.852 423.323L536.469 616.156C573.795 600.308 602.328 590.671 640.151 583.081C718.94 567.273 720.945 604.789 690.518 647.108C670.144 675.443 624.118 720.95 548.411 720.95C486.674 720.95 432.508 688.693 401.829 640.127L924.705 354.245C934.453 348.924 937.9 336.618 932.341 327.013Z" fill="white"/>
<defs>
<linearGradient id="paint0_linear_2701_30672" x1="109.451" y1="1096" x2="807.019" y2="-1.28109e-05" gradientUnits="userSpaceOnUse">
<stop offset="0.0230088" stop-color="#E57536"/>
<stop offset="0.604747"/>
</linearGradient>
</defs>
</svg>
