<svg viewBox="0 0 128 128" xmlns="http://www.w3.org/2000/svg" xmlns:xlink="http://www.w3.org/1999/xlink"><linearGradient id="a" gradientUnits="userSpaceOnUse" x2="128" y1="64" y2="64"><stop offset="0" stop-color="#344652"/><stop offset="1" stop-color="#333336"/></linearGradient><circle cx="64" cy="64" fill="url(#a)" r="64"/><path d="m64 2.82a61.18 61.18 0 1 1 -61.18 61.18 61.24 61.24 0 0 1 61.18-61.18m0-2.82a64 64 0 1 0 64 64 64 64 0 0 0 -64-64z" fill="#818588"/><path d="m16.09 72 27.85-27.9a28.35 28.35 0 0 1 43.46 3.66c.08.08.17.15.25.24a10.18 10.18 0 0 0 18-6.53 12.56 12.56 0 0 0 -2.15-6.26 48.74 48.74 0 0 0 -75-4.44 48.33 48.33 0 0 0 -13 36.71c.17 1.52.34 3.01.59 4.52z" fill="#a7ff58"/><path d="m110 69.61a7.51 7.51 0 0 0 -6-2.93h-29.44-.2a7.6 7.6 0 0 0 -7.6 7.84c.11 3.93 3.87 7.37 8 7.37h2a4 4 0 0 1 2.8 6.76l-23.3 23.45c1.48.24 3 .42 4.47.52a48.84 48.84 0 0 0 50.63-36.3 7.71 7.71 0 0 0 -1.36-6.71z" fill="#a7ff58"/><path d="m63.9 41a21.22 21.22 0 0 0 -11.44 3.75l-.28.19a53.23 53.23 0 0 0 -8.18 6.67l-30.95 30.87c-1.39 1.38-.51 5.12 3.84 3.33l4.11-1.54c4.34-1.17 7.53-.88 9.91 2.25 2 2.68.72 7.06.72 7.06-.94 3.09 1.43 5.21 4 4.17l1.66-.61a8.12 8.12 0 0 1 10 4.14 7.2 7.2 0 0 1 .5 5.18 2.45 2.45 0 0 0 4.21 2.36l21.55-21.62c-6.55-.62-11.95-6.09-12.14-12.5a12.92 12.92 0 0 1 12.59-13.33 2.58 2.58 0 0 1 .39 0h12.66a23.06 23.06 0 0 0 -23.15-20.37zm-12.38 19.1c-1.16 3.19-3.55 5.25-5.33 4.6s-2.29-3.77-1.13-7 3.55-5.25 5.33-4.6 2.29 3.81 1.13 7zm12.09 0c-1.16 3.19-3.55 5.25-5.33 4.6s-2.29-3.77-1.13-7 3.55-5.25 5.33-4.6 2.3 3.81 1.13 7z" fill="#fff"/></svg>