<svg xmlns="http://www.w3.org/2000/svg" viewBox="0 0 128 128"><defs><linearGradient id="linear-gradient" x2="128" y1="64" y2="64" gradientUnits="userSpaceOnUse"><stop offset="0" stop-color="#344652"/><stop offset="1" stop-color="#333336"/></linearGradient><style>.cls-3{fill:#a7ff58}</style></defs><g id="Layer_2" data-name="Layer 2"><g id="Layer_1-2" data-name="Layer 1"><circle cx="64" cy="64" r="64" style="fill:url(#linear-gradient)"/><path d="M64 2.82A61.18 61.18 0 1 1 2.82 64 61.24 61.24 0 0 1 64 2.82M64 0a64 64 0 1 0 64 64A64 64 0 0 0 64 0" style="fill:#818588"/><path d="m16.09 72 27.85-27.9a28.35 28.35 0 0 1 43.46 3.66c.08.08.17.15.25.24a10.18 10.18 0 0 0 18-6.53 12.56 12.56 0 0 0-2.15-6.26 48.74 48.74 0 0 0-75-4.44 48.33 48.33 0 0 0-13 36.71c.17 1.52.34 3.01.59 4.52M110 69.61a7.51 7.51 0 0 0-6-2.93H74.36a7.6 7.6 0 0 0-7.6 7.84c.11 3.93 3.87 7.37 8 7.37h2a4 4 0 0 1 2.8 6.76l-23.3 23.45c1.48.24 3 .42 4.47.52a48.84 48.84 0 0 0 50.63-36.3 7.71 7.71 0 0 0-1.36-6.71" class="cls-3"/><path d="M63.9 41a21.2 21.2 0 0 0-11.44 3.75l-.28.19A53.2 53.2 0 0 0 44 51.61L13.05 82.48c-1.39 1.38-.51 5.12 3.84 3.33L21 84.27c4.34-1.17 7.53-.88 9.91 2.25 2 2.68.72 7.06.72 7.06-.94 3.09 1.43 5.21 4 4.17l1.66-.61a8.12 8.12 0 0 1 10 4.14 7.2 7.2 0 0 1 .5 5.18 2.45 2.45 0 0 0 4.21 2.36L73.55 87.2C67 86.58 61.6 81.11 61.41 74.7A12.92 12.92 0 0 1 74 61.37a2.6 2.6 0 0 1 .39 0h12.66A23.06 23.06 0 0 0 63.9 41M51.52 60.1c-1.16 3.19-3.55 5.25-5.33 4.6s-2.29-3.77-1.13-7 3.55-5.25 5.33-4.6 2.29 3.81 1.13 7m12.09 0c-1.16 3.19-3.55 5.25-5.33 4.6s-2.29-3.77-1.13-7 3.55-5.25 5.33-4.6 2.3 3.81 1.13 7" style="fill:#fff"/></g></g></svg>