<?xml version="1.0" encoding="UTF-8"?>
<svg version="1.1" xmlns="http://www.w3.org/2000/svg" width="250" height="250">
<path d="M0 0 C82.5 0 165 0 250 0 C250 82.5 250 165 250 250 C167.5 250 85 250 0 250 C0 167.5 0 85 0 0 Z " fill="#0B0127" transform="translate(0,0)"/>
<path d="M0 0 C30.36 0 60.72 0 92 0 C92.2475 7.5075 92.495 15.015 92.75 22.75 C92.91387207 26.26672363 92.91387207 26.26672363 93.08105469 29.85449219 C93.58588066 47.69865935 93.58588066 47.69865935 87.2109375 54.453125 C79.49209337 61.37250306 69.60042073 60.40943543 59.875 60 C56.35172309 59.90854445 52.82893416 59.85001707 49.3046875 59.8125 C48.47181717 59.80191559 47.63894684 59.79133118 46.78083801 59.78042603 C36.96702131 59.79367748 29.996143 63.00515761 22.8515625 69.6953125 C19.87604364 73.39901742 18.82341587 77.38129948 18 82 C17.34 82 16.68 82 16 82 C16.0435923 96.76109715 16.0435923 96.76109715 22 110 C22.680625 111.0725 23.36125 112.145 24.0625 113.25 C29.64979753 119.26708965 37.24098274 122.23483165 45.30664062 122.71484375 C54.64969572 122.86459886 62.53436773 120.79010469 69.73828125 114.4765625 C72.50508643 111.3914523 74.30267133 107.7519897 76 104 C80.29 104 84.58 104 89 104 C87.87276155 110.76343073 87.87276155 110.76343073 86.125 114.0625 C85.79757813 114.69285156 85.47015625 115.32320313 85.1328125 115.97265625 C83.80725599 118.34494532 82.39814688 120.66975521 81 123 C90.9 123 100.8 123 111 123 C111 112.11 111 101.22 111 90 C119.58 90 128.16 90 137 90 C137 105.51 137 121.02 137 137 C122.15 137 107.3 137 92 137 C92 151.85 92 166.7 92 182 C61.64 182 31.28 182 0 182 C0 167.15 0 152.3 0 137 C-14.85 137 -29.7 137 -45 137 C-45 106.64 -45 76.28 -45 45 C-30.15 45 -15.3 45 0 45 C0 30.15 0 15.3 0 0 Z " fill="#5826AE" transform="translate(79,34)"/>
<path d="M0 0 C5.69246586 -0.12419787 11.38413197 -0.2146204 17.07763672 -0.2746582 C19.01169587 -0.29970241 20.94566131 -0.33374811 22.87939453 -0.37719727 C25.66983231 -0.4382965 28.4590121 -0.46631051 31.25 -0.48828125 C32.10553467 -0.51408768 32.96106934 -0.5398941 33.8425293 -0.56648254 C41.5408984 -0.570027 46.4960058 2.48956959 52 7.6875 C54 10 54 10 54 12 C54.66 12 55.32 12 56 12 C54.18632198 15.84534619 51.85991406 19.20137355 49.4375 22.68359375 C47.96699267 25.05318844 46.95875204 27.38647882 46 30 C48.31 30 50.62 30 53 30 C53 30.99 53 31.98 53 33 C56.37503669 31.8141763 58.64722731 30.72426311 61 28 C60.34 30.64 59.68 33.28 59 36 C58.34 36 57.68 36 57 36 C56.96689188 49.66298553 56.96689188 49.66298553 61.94140625 62.15234375 C63 64 63 64 63 67 C61 69.1875 61 69.1875 59 71 C57.68 70.01 56.36 69.02 55 68 C54.67 68.66 54.34 69.32 54 70 C53.01 70 52.02 70 51 70 C51 69.01 51 68.02 51 67 C50.34 67 49.68 67 49 67 C49.928125 68.36125 49.928125 68.36125 50.875 69.75 C53 73 53 73 54 75.25 C55.307304 77.537782 56.64423993 77.85339112 59 79 C60.44924459 79.96169835 61.88629989 80.94194646 63.3125 81.9375 C71.87581452 87.69317041 79.72317508 89.1039014 89.8984375 89.31640625 C90.73339752 89.33718735 91.56835754 89.35796844 92.42861938 89.37937927 C95.0773349 89.44439469 97.72614359 89.50353491 100.375 89.5625 C102.17839478 89.60573096 103.98178038 89.64934666 105.78515625 89.69335938 C110.19001039 89.80002639 114.5949576 89.90142695 119 90 C121.00277585 96.00832755 119.39506248 102.67900034 119 109 C98.21 109 77.42 109 56 109 C55.505 96.13 55.505 96.13 55 83 C54.67 82.34 54.34 81.68 54 81 C52.02 81.99 50.04 82.98 48 84 C48 82.68 48 81.36 48 80 C43.19554605 77.55301103 38.46208294 77.56379939 33.1875 77.375 C32.30384766 77.33632812 31.42019531 77.29765625 30.50976562 77.2578125 C28.34017028 77.16399216 26.17011453 77.08092674 24 77 C23.26508859 66.87715897 22.74669199 56.77107781 22.4375 46.625 C22.40623016 45.61983337 22.40623016 45.61983337 22.37432861 44.59436035 C21.47824121 15.56527636 21.47824121 15.56527636 23 11 C22.319375 10.731875 21.63875 10.46375 20.9375 10.1875 C18.7994824 9.32319501 16.67614043 8.42231583 14.5625 7.5 C11.40237106 6.16941939 8.25696751 5.06205462 5 4 C3.32836805 3.34588315 1.65984798 2.68346682 0 2 C0 1.34 0 0.68 0 0 Z " fill="#3B199E" transform="translate(38,80)"/>
<path d="M0 0 C0.99 0 1.98 0 3 0 C3 0.66 3 1.32 3 2 C4.08861328 2.19142578 4.08861328 2.19142578 5.19921875 2.38671875 C7.89498967 2.97700611 10.25879643 3.77699177 12.8125 4.8125 C13.60269531 5.12832031 14.39289062 5.44414063 15.20703125 5.76953125 C18.8713531 7.38388283 22.43237485 9.18368376 26 11 C25.98839844 12.25167969 25.97679688 13.50335938 25.96484375 14.79296875 C25.88958266 27.10638844 26.17531954 39.37865528 26.64208984 51.68310547 C26.95617019 60.12925901 27.13136883 68.54860551 27 77 C28.30195312 76.96519531 29.60390625 76.93039063 30.9453125 76.89453125 C32.67186204 76.86638099 34.39842561 76.83908216 36.125 76.8125 C36.9809375 76.78736328 37.836875 76.76222656 38.71875 76.73632812 C43.94615526 76.67601191 47.43281324 77.14738007 52 80 C52 80.99 52 81.98 52 83 C53.65 82.01 55.3 81.02 57 80 C59.36008817 83.54013225 59.23463644 85.01121955 59.1953125 89.19921875 C59.18886719 90.40771484 59.18242188 91.61621094 59.17578125 92.86132812 C59.15902344 94.12396484 59.14226562 95.38660156 59.125 96.6875 C59.11597656 97.96173828 59.10695312 99.23597656 59.09765625 100.54882812 C59.07405641 103.69940627 59.04113194 106.84960983 59 110 C58.34 110 57.68 110 57 110 C56.85884766 111.51013672 56.85884766 111.51013672 56.71484375 113.05078125 C56.12751677 117.151748 54.50336695 120.56270368 52.5625 124.1875 C52.24990234 124.79013672 51.93730469 125.39277344 51.61523438 126.01367188 C50.75038331 127.67937869 49.87555023 129.33989206 49 131 C48.32904956 132.33118283 47.660025 133.66336646 47 135 C46.34 135 45.68 135 45 135 C45 120.15 45 105.3 45 90 C30.15 90 15.3 90 0 90 C0 60.3 0 30.6 0 0 Z " fill="#9436C3" transform="translate(35,80)"/>
<path d="M0 0 C8.25 0 16.5 0 25 0 C25.04601028 5.44454922 25.08580624 10.88841881 25.10986328 16.33300781 C25.11989631 18.18361706 25.13352586 20.03421055 25.15087891 21.88476562 C25.17524608 24.5508209 25.18651023 27.21666584 25.1953125 29.8828125 C25.20563507 30.70492218 25.21595764 31.52703186 25.22659302 32.37405396 C25.22674408 33.1544101 25.22689514 33.93476624 25.22705078 34.73876953 C25.231492 35.41827667 25.23593323 36.09778381 25.24050903 36.79788208 C24.92349009 39.70053024 23.98739847 42.26192018 23 45 C10.89937501 45.04642284 -1.20122866 45.08191973 -13.30192471 45.10362434 C-18.92128593 45.11404357 -24.54058605 45.12816877 -30.15991211 45.15087891 C-35.58694621 45.17267364 -41.01392167 45.18458262 -46.44099617 45.18975449 C-48.50734441 45.19343835 -50.57368959 45.20063192 -52.64001274 45.21146011 C-55.54319977 45.22606313 -58.44614715 45.22797426 -61.34936523 45.22705078 C-62.19597717 45.23424133 -63.04258911 45.24143188 -63.91485596 45.24884033 C-76.53249804 45.20565604 -87.94087787 41.05912213 -97 32 C-99.78129388 28.41024959 -102.42118758 24.73731445 -105 21 C-104.67 20.34 -104.34 19.68 -104 19 C-103.67 19.99 -103.34 20.98 -103 22 C-102.34 22 -101.68 22 -101 22 C-101 22.99 -101 23.98 -101 25 C-100.01 25 -99.02 25 -98 25 C-97.67 24.01 -97.34 23.02 -97 22 C-96.1028125 22.7734375 -96.1028125 22.7734375 -95.1875 23.5625 C-94.465625 24.036875 -93.74375 24.51125 -93 25 C-92.01 24.67 -91.02 24.34 -90 24 C-89.67 23.01 -89.34 22.02 -89 21 C-88.52691406 21.38671875 -88.05382812 21.7734375 -87.56640625 22.171875 C-77.90080683 29.78377006 -69.40269057 32.41802849 -57.06982422 31.32226562 C-50.52149077 30.30270911 -44.35989909 26.93117066 -39.9375 22 C-38.04977557 19.07707185 -36.43387919 16.16962768 -35 13 C-30.71 13 -26.42 13 -22 13 C-23.12723845 19.76343073 -23.12723845 19.76343073 -24.875 23.0625 C-25.20242187 23.69285156 -25.52984375 24.32320312 -25.8671875 24.97265625 C-27.19274401 27.34494532 -28.60185312 29.66975521 -30 32 C-20.1 32 -10.2 32 0 32 C0 21.44 0 10.88 0 0 Z " fill="#9E37C4" transform="translate(190,125)"/>
<path d="M0 0 C10.90040952 -0.0462956 21.80079573 -0.08185507 32.70128345 -0.10362434 C37.76256083 -0.11407133 42.82377105 -0.12824723 47.88500977 -0.15087891 C52.76737314 -0.17257465 57.64967184 -0.18456173 62.5320797 -0.18975449 C64.3968476 -0.19345612 66.26161187 -0.20068429 68.12635231 -0.21146011 C70.73380877 -0.2259316 73.34099631 -0.22797977 75.94848633 -0.22705078 C77.11050064 -0.23783661 77.11050064 -0.23783661 78.29598999 -0.24884033 C82.07844382 -0.23421237 83.77188702 -0.15207532 87 2 C86.74605469 2.61746094 86.49210937 3.23492187 86.23046875 3.87109375 C84.20190378 8.86273115 82.32366966 13.8504179 80.7109375 18.9921875 C80 21 80 21 78 25 C56.55 25 35.1 25 13 25 C13 31.93 13 38.86 13 46 C12.67 48.64 12.34 51.28 12 54 C10.125 53.6875 10.125 53.6875 8 53 C7.34 52.01 6.68 51.02 6 50 C4.34051852 48.98812105 2.67419438 47.9873454 1 47 C-0.1760003 44.6479994 -0.12084541 43.26265599 -0.11352539 40.64208984 C-0.11344986 39.74130707 -0.11337433 38.84052429 -0.11329651 37.91244507 C-0.10813522 36.93844757 -0.10297394 35.96445007 -0.09765625 34.9609375 C-0.0962413 33.96494537 -0.09482635 32.96895325 -0.09336853 31.94277954 C-0.08775936 28.75348947 -0.0752053 25.56426894 -0.0625 22.375 C-0.05748618 20.21614685 -0.05292307 18.05729259 -0.04882812 15.8984375 C-0.03778695 10.5989345 -0.02103988 5.29947222 0 0 Z " fill="#D74EDE" transform="translate(80,35)"/>
<path d="M0 0 C1.27472168 -0.00960754 2.54944336 -0.01921509 3.86279297 -0.02911377 C5.26008933 -0.03396049 6.65738777 -0.03823962 8.0546875 -0.04199219 C9.48193362 -0.04774259 10.90917972 -0.05350033 12.33642578 -0.05926514 C15.32910523 -0.06977305 18.32175782 -0.07561753 21.31445312 -0.07910156 C25.15490925 -0.08459549 28.99501246 -0.10864305 32.83535767 -0.13707352 C35.78296967 -0.15566504 38.73049592 -0.16090354 41.67816162 -0.16243744 C43.09440039 -0.16547084 44.51063742 -0.17352246 45.92681885 -0.18662262 C47.90426669 -0.20361353 49.88185964 -0.1999682 51.859375 -0.1953125 C52.98585449 -0.19895813 54.11233398 -0.20260376 55.27294922 -0.20635986 C56.58803467 -0.02445099 56.58803467 -0.02445099 57.9296875 0.16113281 C60.15378452 3.49727835 60.85513001 6.30536771 61.9296875 10.16113281 C62.45821411 11.60351579 62.99992108 13.04113735 63.5546875 14.47363281 C64.9296875 18.16113281 64.9296875 18.16113281 64.9296875 20.16113281 C65.9196875 20.16113281 66.9096875 20.16113281 67.9296875 20.16113281 C68.9196875 23.13113281 68.9196875 23.13113281 69.9296875 26.16113281 C40.8896875 26.16113281 11.8496875 26.16113281 -18.0703125 26.16113281 C-13.0703125 13.16113281 -13.0703125 13.16113281 -10.0703125 8.16113281 C-9.7196875 6.92363281 -9.3690625 5.68613281 -9.0078125 4.41113281 C-8.6984375 3.33863281 -8.3890625 2.26613281 -8.0703125 1.16113281 C-5.31571327 -0.2161668 -3.08289519 0.01868655 0 0 Z " fill="#8048D8" transform="translate(100.0703125,188.8388671875)"/>
<path d="M0 0 C21.78 0 43.56 0 66 0 C66 10.89 66 21.78 66 33 C56.1 33 46.2 33 36 33 C37 29 37 29 38.875 26.3125 C41.4525826 22.2945036 42.61817477 18.56002325 44 14 C39.71 14 35.42 14 31 14 C30.67 15.32 30.34 16.64 30 18 C25.96937006 25.41635909 19.07833806 30.564123 11 33 C8.06811105 33.37408851 5.20151285 33.37688728 2.25 33.3125 C1.11884766 33.31733398 1.11884766 33.31733398 -0.03515625 33.32226562 C-3.86655972 33.28483628 -5.74522036 33.1698531 -9 31 C-6.36 31 -3.72 31 -1 31 C-0.67 20.77 -0.34 10.54 0 0 Z " fill="#2B0D83" transform="translate(124,124)"/>
<path d="M0 0 C3.97805014 1.98902507 7.68613476 4.22635843 11.46484375 6.5625 C18.68824818 10.65835952 25.77085167 11.14666602 33.8984375 11.31640625 C34.73339752 11.33718735 35.56835754 11.35796844 36.42861938 11.37937927 C39.0773349 11.44439469 41.72614359 11.50353491 44.375 11.5625 C46.17839478 11.60573096 47.98178038 11.64934666 49.78515625 11.69335938 C54.19001039 11.80002639 58.5949576 11.90142695 63 12 C65.00277585 18.00832755 63.39506248 24.67900034 63 31 C42.21 31 21.42 31 0 31 C0 20.77 0 10.54 0 0 Z " fill="#3C198D" transform="translate(94,158)"/>
<path d="M0 0 C1.21229279 0.0028299 2.42458557 0.00565979 3.6736145 0.00857544 C7.53511539 0.01974583 11.39638203 0.04484513 15.2578125 0.0703125 C17.88020498 0.08034634 20.5026011 0.08947148 23.125 0.09765625 C29.54435039 0.11967492 35.9635647 0.15312152 42.3828125 0.1953125 C39.83018045 5.36613485 37.52513548 9.25246806 32.3828125 12.1953125 C25.91491539 13.59131842 19.08135285 13.09222695 12.5078125 12.9453125 C-6.39323281 12.18991274 -6.39323281 12.18991274 -22.4921875 21.0703125 C-23.22695312 21.75996094 -23.96171875 22.44960937 -24.71875 23.16015625 C-26.36651296 24.92658527 -27.62685988 26.57386866 -28.8671875 28.6328125 C-30.6171875 31.1953125 -30.6171875 31.1953125 -33.3671875 32.0703125 C-34.1096875 32.1115625 -34.8521875 32.1528125 -35.6171875 32.1953125 C-35.6171875 31.2053125 -35.6171875 30.2153125 -35.6171875 29.1953125 C-37.9271875 29.1953125 -40.2371875 29.1953125 -42.6171875 29.1953125 C-41.33275188 20.68219267 -35.13376908 13.54684708 -28.6171875 8.1953125 C-19.013159 1.56868552 -11.56850743 -0.10188358 0 0 Z " fill="#D242C9" transform="translate(126.6171875,80.8046875)"/>
<path d="M0 0 C30.36 0 60.72 0 92 0 C92 0.33 92 0.66 92 1 C61.97 1 31.94 1 1 1 C1.33 16.18 1.66 31.36 2 47 C-13.18 46.67 -28.36 46.34 -44 46 C-44 75.7 -44 105.4 -44 136 C-29.15 136 -14.3 136 1 136 C1 150.85 1 165.7 1 181 C30.7 181 60.4 181 91 181 C90.34 180.01 89.68 179.02 89 178 C89 177.01 89 176.02 89 175 C88.01 175 87.02 175 86 175 C83.65460688 169.29724212 81.46419037 163.59845988 79.61328125 157.71484375 C79.13526024 155.9926952 79.13526024 155.9926952 78 155 C78 148.73 78 142.46 78 136 C96.48 136 114.96 136 134 136 C134.86563722 130.8400385 134.86563722 130.8400385 135.20532227 125.73876953 C135.22526749 124.95841339 135.24521271 124.17805725 135.26576233 123.37405396 C135.28247482 122.55194427 135.29918732 121.72983459 135.31640625 120.8828125 C135.3475779 119.5970784 135.3475779 119.5970784 135.37937927 118.28536987 C135.44441261 115.56532286 135.50354341 112.84518483 135.5625 110.125 C135.60572924 108.27342834 135.6493449 106.42186566 135.69335938 104.5703125 C135.80076857 100.04696665 135.90018468 95.52354522 136 91 C127.75 91 119.5 91 111 91 C111 90.67 111 90.34 111 90 C119.58 90 128.16 90 137 90 C137 105.51 137 121.02 137 137 C122.15 137 107.3 137 92 137 C92 151.85 92 166.7 92 182 C61.64 182 31.28 182 0 182 C0 167.15 0 152.3 0 137 C-14.85 137 -29.7 137 -45 137 C-45 106.64 -45 76.28 -45 45 C-30.15 45 -15.3 45 0 45 C0 30.15 0 15.3 0 0 Z " fill="#5B2C84" transform="translate(79,34)"/>
<path d="M0 0 C8.25 0 16.5 0 25 0 C25.04597076 5.46285805 25.08577856 10.92504193 25.10986328 16.38793945 C25.11990615 18.24538449 25.13354304 20.10281379 25.15087891 21.96020508 C25.17520261 24.63366591 25.18650033 27.30691726 25.1953125 29.98046875 C25.20563507 30.80773972 25.21595764 31.63501068 25.22659302 32.48735046 C25.22742519 36.78659015 24.99986069 40.07985785 23 44 C20.85282106 42.94015492 18.70728249 41.8771762 16.5625 40.8125 C15.97017578 40.52052734 15.37785156 40.22855469 14.76757812 39.92773438 C9.74356136 37.42915919 4.92092137 34.7338452 0 32 C0 21.44 0 10.88 0 0 Z " fill="#662FC8" transform="translate(190,125)"/>
<path d="M0 0 C1.175625 0.68932617 1.175625 0.68932617 2.375 1.39257812 C6.62062893 3.91110888 6.62062893 3.91110888 8.125 4.9375 C8.125 5.2675 8.125 5.5975 8.125 5.9375 C-17.285 5.9375 -42.695 5.9375 -68.875 5.9375 C-66.45537117 3.51787117 -64.30795023 2.8055925 -61.125 1.5625 C-57.56220684 0.13653647 -54.84977695 -1.08116506 -51.75 -3.375 C-48.00761024 -5.57162007 -45.20491774 -5.34083626 -40.94921875 -5.10546875 C-40.26472656 -5.09128906 -39.58023438 -5.07710937 -38.875 -5.0625 C-38.545 -5.3925 -38.215 -5.7225 -37.875 -6.0625 C-34.16040791 -6.4759895 -30.42017555 -6.58002388 -26.6875 -6.75 C-25.64529297 -6.80994141 -24.60308594 -6.86988281 -23.52929688 -6.93164062 C-13.8999924 -7.37851871 -8.12918093 -4.87061942 0 0 Z " fill="#8830E8" transform="translate(204.875,164.0625)"/>
<path d="M0 0 C2.31 0 4.62 0 7 0 C7 15.18 7 30.36 7 46 C4.64561349 47.17719326 3.35233185 47.08905996 0.73388672 47.02172852 C-0.14687531 47.00163223 -1.02763733 46.98153595 -1.93508911 46.96083069 C-2.88721283 46.93379562 -3.83933655 46.90676056 -4.8203125 46.87890625 C-5.79410858 46.85529526 -6.76790466 46.83168427 -7.77120972 46.80735779 C-10.88928472 46.73062849 -14.00711712 46.646644 -17.125 46.5625 C-19.23566511 46.5092886 -21.34634215 46.45654814 -23.45703125 46.40429688 C-28.63817177 46.27500087 -33.81913132 46.13974366 -39 46 C-39 45.67 -39 45.34 -39 45 C-27.78 44.67 -16.56 44.34 -5 44 C-5.495 35.09 -5.495 35.09 -6 26 C-27.12 26 -48.24 26 -70 26 C-70 35.9 -70 45.8 -70 56 C-70.99 55.67 -71.98 55.34 -73 55 C-72.67 52.03 -72.34 49.06 -72 46 C-71.67 39.07 -71.34 32.14 -71 25 C-49.55 24.67 -28.1 24.34 -6 24 C-3.52236476 18.25824485 -3.52236476 18.25824485 -1.4375 12.4375 C-1.19257813 11.6846875 -0.94765625 10.931875 -0.6953125 10.15625 C-0.46585937 9.4446875 -0.23640625 8.733125 0 8 C0.66666667 6 1.33333333 4 2 2 C1.01 1.01 1.01 1.01 0 0 Z " fill="#603BD9" transform="translate(164,35)"/>
<path d="M0 0 C2.36008817 3.54013225 2.23463644 5.01121955 2.1953125 9.19921875 C2.18564453 11.01196289 2.18564453 11.01196289 2.17578125 12.86132812 C2.15902344 14.12396484 2.14226562 15.38660156 2.125 16.6875 C2.11597656 17.96173828 2.10695313 19.23597656 2.09765625 20.54882812 C2.07405641 23.69940627 2.04113194 26.84960983 2 30 C1.34 30 0.68 30 0 30 C-0.09410156 31.00675781 -0.18820313 32.01351562 -0.28515625 33.05078125 C-0.87248323 37.151748 -2.49663305 40.56270368 -4.4375 44.1875 C-4.90639648 45.09145508 -4.90639648 45.09145508 -5.38476562 46.01367188 C-6.24961669 47.67937869 -7.12444977 49.33989206 -8 51 C-8.67095044 52.33118283 -9.339975 53.66336646 -10 55 C-10.66 55 -11.32 55 -12 55 C-12.20346581 48.57762014 -12.34319311 42.15607558 -12.43945312 35.73120117 C-12.47959313 33.54761704 -12.53412007 31.36424672 -12.60351562 29.18139648 C-12.70098811 26.03575883 -12.74602021 22.89297006 -12.78125 19.74609375 C-12.82254028 18.7760289 -12.86383057 17.80596405 -12.90637207 16.8065033 C-12.90902018 12.77274574 -12.85537443 10.08705118 -10.30639648 6.84768677 C-7.11196627 3.97328304 -3.88826041 1.82485024 0 0 Z " fill="#F347C3" transform="translate(92,160)"/>
<path d="M0 0 C0.99 0.33 1.98 0.66 3 1 C3 1.66 3 2.32 3 3 C3.66 3 4.32 3 5 3 C5.48210937 4.10859375 5.96421875 5.2171875 6.4609375 6.359375 C7.09890222 7.82294113 7.73692616 9.28648144 8.375 10.75 C8.69210938 11.47960938 9.00921875 12.20921875 9.3359375 12.9609375 C9.6453125 13.66992188 9.9546875 14.37890625 10.2734375 15.109375 C10.55622559 15.75874023 10.83901367 16.40810547 11.13037109 17.07714844 C11.97850204 19.03331365 11.97850204 19.03331365 13.10717773 20.93554688 C14.19695085 23.45540508 14.15969687 25.18829661 14.01171875 27.921875 C13.94114258 29.33726563 13.94114258 29.33726563 13.86914062 30.78125 C13.80919922 31.7609375 13.74925781 32.740625 13.6875 33.75 C13.63916016 34.71421875 13.59082031 35.6784375 13.54101562 36.671875 C13.24671486 42.15555514 12.75401716 47.56076511 12 53 C10.125 52.6875 10.125 52.6875 8 52 C7.34 51.01 6.68 50.02 6 49 C4.34051852 47.98812105 2.67419438 46.9873454 1 46 C-0.1650499 43.6699002 -0.1209358 42.32752923 -0.11352539 39.73388672 C-0.11344986 38.85312469 -0.11337433 37.97236267 -0.11329651 37.06491089 C-0.10813522 36.11278717 -0.10297394 35.16066345 -0.09765625 34.1796875 C-0.0962413 33.20589142 -0.09482635 32.23209534 -0.09336853 31.22879028 C-0.08775973 28.11082927 -0.07520573 24.9929394 -0.0625 21.875 C-0.05748613 19.76432395 -0.05292303 17.65364678 -0.04882812 15.54296875 C-0.03778745 10.36195479 -0.02104073 5.18098248 0 0 Z " fill="#BE7DF7" transform="translate(80,36)"/>
<path d="M0 0 C0.33 0.66 0.66 1.32 1 2 C3.31 2 5.62 2 8 2 C8 2.99 8 3.98 8 5 C11.37503669 3.8141763 13.64722731 2.72426311 16 0 C15.34 2.64 14.68 5.28 14 8 C13.34 8 12.68 8 12 8 C11.96689188 21.66298553 11.96689188 21.66298553 16.94140625 34.15234375 C18 36 18 36 18 39 C16 41.1875 16 41.1875 14 43 C12.68 42.01 11.36 41.02 10 40 C9.67 40.66 9.34 41.32 9 42 C8.01 42 7.02 42 6 42 C6 41.01 6 40.02 6 39 C5.34 39 4.68 39 4 39 C-0.9865935 33.40897092 -1.18183332 29.25367856 -1.1875 22.125 C-1.19974609 21.32191406 -1.21199219 20.51882812 -1.22460938 19.69140625 C-1.23536801 15.33774351 -1.03066307 11.9650101 1 8 C0.67 7.67 0.34 7.34 0 7 C-0.04092937 4.66702567 -0.04241723 2.33294775 0 0 Z " fill="#3F1EB7" transform="translate(83,108)"/>
<path d="M0 0 C0.99 0.495 0.99 0.495 2 1 C2 1.66 2 2.32 2 3 C2.66 3 3.32 3 4 3 C4 3.99 4 4.98 4 6 C4.99 6 5.98 6 7 6 C7.33 5.01 7.66 4.02 8 3 C8.8971875 3.7734375 8.8971875 3.7734375 9.8125 4.5625 C10.534375 5.036875 11.25625 5.51125 12 6 C12.99 5.67 13.98 5.34 15 5 C15.33 4.01 15.66 3.02 16 2 C16.65742187 2.56267578 16.65742187 2.56267578 17.328125 3.13671875 C24.07660725 8.5821404 31.60315439 11.9007886 40 14 C40 17.96 40 21.92 40 26 C27.36808437 25.84595225 17.35376532 21.57428488 8 13 C5.6640625 10.17578125 5.6640625 10.17578125 3.625 7.3125 C2.93664062 6.35988281 2.24828125 5.40726563 1.5390625 4.42578125 C0 2 0 2 0 0 Z " fill="#8655EE" transform="translate(85,144)"/>
<path d="M0 0 C0.82435547 -0.01160156 1.64871094 -0.02320313 2.49804688 -0.03515625 C7.56903972 -0.01083494 11.00279737 0.65811573 15.4375 3.375 C14.02494768 7.86948466 12.14796941 10.45809744 8.4375 13.375 C5.34647234 14.05060216 2.35060693 13.95905534 -0.80078125 13.86328125 C-1.68154831 13.85620651 -2.56231537 13.84913177 -3.46977234 13.84184265 C-6.27239285 13.81393848 -9.07298735 13.75120943 -11.875 13.6875 C-13.77926794 13.6624119 -15.68356732 13.63959962 -17.58789062 13.61914062 C-22.24686984 13.56412503 -26.90434189 13.47788151 -31.5625 13.375 C-26.24414636 7.82998056 -26.24414636 7.82998056 -21.8125 7.25 C-19.50851054 6.99722887 -19.50851054 6.99722887 -17.5625 6.375 C-17.2325 5.385 -16.9025 4.395 -16.5625 3.375 C-11.03030767 0.26997505 -6.25910373 -0.08850265 0 0 Z " fill="#A960F3" transform="translate(71.5625,156.625)"/>
<path d="M0 0 C2.12890625 -0.328125 2.12890625 -0.328125 4.5625 -0.25 C5.36816406 -0.23453125 6.17382812 -0.2190625 7.00390625 -0.203125 C9 0 9 0 10 1 C10.08861992 3.8116338 10.11522355 6.59858255 10.09765625 9.41015625 C10.0962413 10.25219101 10.09482635 11.09422577 10.09336853 11.96177673 C10.08775263 14.66205335 10.07519748 17.36224828 10.0625 20.0625 C10.05748705 21.88867068 10.05292379 23.71484266 10.04882812 25.54101562 C10.03777804 30.02737542 10.02050279 34.51367384 10 39 C9.34 38.67 8.68 38.34 8 38 C8 37.01 8 36.02 8 35 C7.01 35 6.02 35 5 35 C3.63417387 31.6790319 2.31328357 28.34204779 1 25 C0.69191406 24.27039063 0.38382813 23.54078125 0.06640625 22.7890625 C-2.4300575 16.36275868 -2.72906184 9.83613833 -2 3 C-1.34 2.01 -0.68 1.02 0 0 Z " fill="#EC2FA6" transform="translate(160,174)"/>
<path d="M0 0 C7.92 0 15.84 0 24 0 C24 5.94 24 11.88 24 18 C23.34 16.68 22.68 15.36 22 14 C21.01 14.33 20.02 14.66 19 15 C18.608125 14.54109375 18.21625 14.0821875 17.8125 13.609375 C15.62572355 11.66766832 13.79773852 11.06600707 11 10.25 C9.700625 9.85554687 9.700625 9.85554687 8.375 9.453125 C5.86458592 8.77379543 5.86458592 8.77379543 3 10 C2.67 11.65 2.34 13.3 2 15 C1.34 14.67 0.68 14.34 0 14 C0 9.38 0 4.76 0 0 Z " fill="#B262D6" transform="translate(191,125)"/>
<path d="M0 0 C2.91270131 1.1367917 4.99404318 2.82230391 7.421875 4.78515625 C8.31390625 5.49542969 9.2059375 6.20570313 10.125 6.9375 C10.80046875 7.56785156 11.4759375 8.19820312 12.171875 8.84765625 C12.171875 9.50765625 12.171875 10.16765625 12.171875 10.84765625 C0.951875 10.84765625 -10.268125 10.84765625 -21.828125 10.84765625 C-19.40849617 8.42802742 -17.26107523 7.71574875 -14.078125 6.47265625 C-10.56253283 5.05969097 -7.37479099 3.73409905 -4.328125 1.47265625 C-1.828125 -0.15234375 -1.828125 -0.15234375 0 0 Z " fill="#DC6AF0" transform="translate(157.828125,159.15234375)"/>
<path d="M0 0 C0.33 0.99 0.66 1.98 1 3 C1.61875 2.505 2.2375 2.01 2.875 1.5 C5 0 5 0 7 0 C7 0.99 7 1.98 7 3 C9.31 3.33 11.62 3.66 14 4 C7.29540989 13.2850509 7.29540989 13.2850509 3 17 C2.01 17 1.02 17 0 17 C0 16.01 0 15.02 0 14 C-2.31 14 -4.62 14 -7 14 C-6.44010697 10.00987629 -5.24330232 7.4744948 -2.9375 4.1875 C-2.38964844 3.39730469 -1.84179688 2.60710937 -1.27734375 1.79296875 C-0.64505859 0.90544922 -0.64505859 0.90544922 0 0 Z " fill="#B23CC5" transform="translate(91,96)"/>
<path d="M0 0 C0.33 0 0.66 0 1 0 C3.19704041 37.9456926 3.19704041 37.9456926 3.1875 50 C3.18814453 50.75506836 3.18878906 51.51013672 3.18945312 52.28808594 C3.14831456 56.28413671 2.76591419 60.07851934 2 64 C3.093125 63.81566406 4.18625 63.63132813 5.3125 63.44140625 C10.62243896 62.77766388 15.70486018 63.34955689 21 63.9375 C22.44826172 64.08735352 22.44826172 64.08735352 23.92578125 64.24023438 C26.28482148 64.48548113 28.64267189 64.7388914 31 65 C31.495 64.01 31.495 64.01 32 63 C32 63.66 32 64.32 32 65 C32.99 65.495 32.99 65.495 34 66 C33.67 67.65 33.34 69.3 33 71 C32.01 70.01 32.01 70.01 31 69 C29.02 69.99 27.04 70.98 25 72 C25 70.68 25 69.36 25 68 C20.19554605 65.55301103 15.46208294 65.56379939 10.1875 65.375 C9.30384766 65.33632812 8.42019531 65.29765625 7.50976562 65.2578125 C5.34017028 65.16399216 3.17011453 65.08092674 1 65 C0.26508852 54.87715796 -0.25328862 44.77107796 -0.5625 34.625 C-0.58334656 33.95522125 -0.60419312 33.2854425 -0.62567139 32.59536743 C-1.53745599 3.07491199 -1.53745599 3.07491199 0 0 Z " fill="#5B22AE" transform="translate(61,92)"/>
<path d="M0 0 C21.78 0 43.56 0 66 0 C66 0.33 66 0.66 66 1 C44.55 1 23.1 1 1 1 C1.33 5.95 1.66 10.9 2 16 C2.05705997 18.64530002 2.08977603 21.29172524 2.0625 23.9375 C2.05347656 25.10152344 2.04445313 26.26554687 2.03515625 27.46484375 C2.02355469 28.30144531 2.01195313 29.13804687 2 30 C4.97 30 7.94 30 11 30 C11 30.99 11 31.98 11 33 C8.22890693 33.05392397 5.45886182 33.09363455 2.6875 33.125 C1.90181641 33.14175781 1.11613281 33.15851563 0.30664062 33.17578125 C-0.8293457 33.18544922 -0.8293457 33.18544922 -1.98828125 33.1953125 C-3.03302612 33.21102295 -3.03302612 33.21102295 -4.09887695 33.22705078 C-6 33 -6 33 -9 31 C-6.36 31 -3.72 31 -1 31 C-0.67 20.77 -0.34 10.54 0 0 Z " fill="#291166" transform="translate(124,124)"/>
<path d="M0 0 C0.66 0.33 1.32 0.66 2 1 C1.67128906 1.48210937 1.34257813 1.96421875 1.00390625 2.4609375 C-0.46580134 6.17809677 -0.17197944 9.67046997 -0.0625 13.625 C0.11993243 21.76013514 0.11993243 21.76013514 -1 24 C-0.34 24.33 0.32 24.66 1 25 C0.67 25.66 0.34 26.32 0 27 C0 28.32 0 29.64 0 31 C1.29409592 30.54857119 2.58521059 30.08858979 3.875 29.625 C4.59429687 29.36976563 5.31359375 29.11453125 6.0546875 28.8515625 C8.18157994 28.06122217 8.18157994 28.06122217 10 26 C11.76953125 25.25390625 11.76953125 25.25390625 13.8125 24.5625 C18.120169 23.01455361 21.73055708 21.26944292 25 18 C25 19.65 25 21.3 25 23 C23.865625 23.45375 22.73125 23.9075 21.5625 24.375 C17.95278308 25.57095806 17.95278308 25.57095806 17 28 C14.85546875 28.96484375 14.85546875 28.96484375 12.1875 29.9375 C9.41739533 30.94815857 7.28726693 31.76739746 4.98828125 33.62890625 C2.49341099 35.34933741 0.96786539 35.10705177 -2 35 C-2.04937279 30.33692986 -2.08570627 25.67401127 -2.10986328 21.01074219 C-2.11993188 19.42380117 -2.13358767 17.83687875 -2.15087891 16.25 C-2.17509001 13.97130753 -2.18647422 11.69285994 -2.1953125 9.4140625 C-2.20563507 8.70255035 -2.21595764 7.99103821 -2.22659302 7.25796509 C-2.22699422 5.50368335 -2.12202209 3.75003291 -2 2 C-1.34 1.34 -0.68 0.68 0 0 Z " fill="#D149C8" transform="translate(37,135)"/>
<path d="M0 0 C2.36008817 3.54013225 2.23463644 5.01121955 2.1953125 9.19921875 C2.18564453 11.01196289 2.18564453 11.01196289 2.17578125 12.86132812 C2.15902344 14.12396484 2.14226562 15.38660156 2.125 16.6875 C2.11597656 17.96173828 2.10695313 19.23597656 2.09765625 20.54882812 C2.07405641 23.69940627 2.04113194 26.84960983 2 30 C1.67 30 1.34 30 1 30 C0.67 22.08 0.34 14.16 0 6 C-0.99 7.32 -1.98 8.64 -3 10 C-3.66 9.34 -4.32 8.68 -5 8 C-8.58402256 11.35279529 -9.89152425 13.26812854 -10.20532227 18.27807617 C-10.24699677 19.61623707 -10.28372702 20.95455797 -10.31640625 22.29296875 C-10.33718735 22.99899734 -10.35796844 23.70502594 -10.37937927 24.43244934 C-10.44467491 26.68403551 -10.50366647 28.93573662 -10.5625 31.1875 C-10.60570425 32.7155066 -10.64931916 34.24350164 -10.69335938 35.77148438 C-10.80033574 39.51420562 -10.90165922 43.2570423 -11 47 C-11.33 47 -11.66 47 -12 47 C-12.19860929 41.71661101 -12.3433133 36.4354184 -12.43945312 31.14916992 C-12.47954648 29.35353732 -12.53403986 27.55816366 -12.60351562 25.76342773 C-13.16494238 10.88149056 -13.16494238 10.88149056 -10.32421875 6.29345703 C-8.27883154 4.46389801 -6.45632291 3.20697652 -4 2 C-2.87948242 1.43043579 -2.87948242 1.43043579 -1.73632812 0.84936523 C-1.16333984 0.56907471 -0.59035156 0.28878418 0 0 Z " fill="#B933AC" transform="translate(92,160)"/>
<path d="M0 0 C8.58 0 17.16 0 26 0 C26 15.51 26 31.02 26 47 C11.15 47 -3.7 47 -19 47 C-19 46.67 -19 46.34 -19 46 C-5.14 46 8.72 46 23 46 C23.86563722 40.8400385 23.86563722 40.8400385 24.20532227 35.73876953 C24.22526749 34.95841339 24.24521271 34.17805725 24.26576233 33.37405396 C24.29083107 32.14088943 24.29083107 32.14088943 24.31640625 30.8828125 C24.33718735 30.02565643 24.35796844 29.16850037 24.37937927 28.28536987 C24.44441261 25.56532286 24.50354341 22.84518483 24.5625 20.125 C24.60572924 18.27342834 24.6493449 16.42186566 24.69335938 14.5703125 C24.80076857 10.04696665 24.90018468 5.52354522 25 1 C16.75 1 8.5 1 0 1 C0 0.67 0 0.34 0 0 Z " fill="#5E2C96" transform="translate(190,124)"/>
<path d="M0 0 C7.59 0 15.18 0 23 0 C23 2.97 23 5.94 23 9 C22.195625 8.71125 21.39125 8.4225 20.5625 8.125 C17.88289917 7.27881026 15.36245833 6.62707113 12.625 6.0625 C8.20966053 5.12545852 4.18800584 3.67520234 0 2 C0 1.34 0 0.68 0 0 Z " fill="#CD6FCE" transform="translate(192,125)"/>
<path d="M0 0 C4.62 0 9.24 0 14 0 C14 14.85 14 29.7 14 45 C13.67 45 13.34 45 13 45 C12.67 31.8 12.34 18.6 12 5 C9.03 5 6.06 5 3 5 C1.64908472 7.70183055 1.66141942 10.11808206 1.4375 13.125 C1.35371094 14.22070312 1.26992187 15.31640625 1.18359375 16.4453125 C1.12300781 17.28835937 1.06242188 18.13140625 1 19 C0.67 19 0.34 19 0 19 C0 12.73 0 6.46 0 0 Z " fill="#891E80" transform="translate(157,170)"/>
<path d="M0 0 C1.21229279 0.0028299 2.42458557 0.00565979 3.6736145 0.00857544 C7.53511539 0.01974583 11.39638203 0.04484513 15.2578125 0.0703125 C17.88020498 0.08034634 20.5026011 0.08947148 23.125 0.09765625 C29.54435039 0.11967492 35.9635647 0.15312152 42.3828125 0.1953125 C40.86333751 3.56279762 39.86180408 4.80371587 36.3828125 6.1953125 C35.7228125 4.8753125 35.0628125 3.5553125 34.3828125 2.1953125 C28.44208463 2.120661 22.5016352 2.06647478 16.56054688 2.03051758 C14.54324583 2.01551366 12.52597694 1.99510395 10.50878906 1.96899414 C7.59431987 1.93223897 4.68028524 1.91550182 1.765625 1.90234375 C0.87666534 1.88685989 -0.01229431 1.87137604 -0.92819214 1.85542297 C-9.42630933 1.85318424 -16.36211865 3.79830108 -23.6171875 8.1953125 C-24.6071875 7.8653125 -25.5971875 7.5353125 -26.6171875 7.1953125 C-25.41428739 6.39541446 -24.20452455 5.60583426 -22.9921875 4.8203125 C-21.98285156 4.15902344 -21.98285156 4.15902344 -20.953125 3.484375 C-14.09294077 -0.3013454 -7.64886637 -0.06736339 0 0 Z " fill="#C94ED5" transform="translate(126.6171875,80.8046875)"/>
<path d="M0 0 C21.45 0 42.9 0 65 0 C65 0.33 65 0.66 65 1 C43.88 1 22.76 1 1 1 C1 10.9 1 20.8 1 31 C0.01 30.67 -0.98 30.34 -2 30 C-1.505 25.545 -1.505 25.545 -1 21 C-0.67 14.07 -0.34 7.14 0 0 Z " fill="#832FBF" transform="translate(93,60)"/>
<path d="M0 0 C0.33 0.66 0.66 1.32 1 2 C0.67 2.66 0.34 3.32 0 4 C0.7425 3.95875 1.485 3.9175 2.25 3.875 C5.11655953 4.00529816 6.53083422 4.63770164 9 6 C9.66 6 10.32 6 11 6 C9.75023244 9.65316671 9.32901247 10.78065836 6 13 C5.01 13 4.02 13 3 13 C3 12.01 3 11.02 3 10 C0.69 10 -1.62 10 -4 10 C-3.43454163 6.04179141 -2.19097652 3.3340947 0 0 Z " fill="#9236C3" transform="translate(88,100)"/>
<path d="M0 0 C1.98 0 3.96 0 6 0 C6 3.96 6 7.92 6 12 C5.34 11.34 4.68 10.68 4 10 C1.5492016 13.85125463 -0.21364585 17.80595112 -2 22 C-2.66 22.99 -3.32 23.98 -4 25 C-4.66 24.67 -5.32 24.34 -6 24 C-5.566875 23.030625 -5.13375 22.06125 -4.6875 21.0625 C-2.85519958 16.79289429 -1.42488767 12.41875277 0 8 C0.66666667 6 1.33333333 4 2 2 C1.34 1.34 0.68 0.68 0 0 Z " fill="#7A41E2" transform="translate(164,35)"/>
<path d="M0 0 C0.33 0 0.66 0 1 0 C1.83796731 4.65537393 2.0161692 8.37078475 1 13 C2.093125 12.81566406 3.18625 12.63132813 4.3125 12.44140625 C9.62243896 11.77766388 14.70486018 12.34955689 20 12.9375 C20.96550781 13.03740234 21.93101563 13.13730469 22.92578125 13.24023438 C25.28482148 13.48548113 27.64267189 13.7388914 30 14 C30.33 13.34 30.66 12.68 31 12 C31 12.66 31 13.32 31 14 C31.66 14.33 32.32 14.66 33 15 C32.505 17.475 32.505 17.475 32 20 C31.34 19.34 30.68 18.68 30 18 C28.02 18.99 26.04 19.98 24 21 C24 19.68 24 18.36 24 17 C19.19554605 14.55301103 14.46208294 14.56379939 9.1875 14.375 C8.30384766 14.33632812 7.42019531 14.29765625 6.50976562 14.2578125 C4.34017028 14.16399216 2.17011453 14.08092674 0 14 C0 9.38 0 4.76 0 0 Z " fill="#6E2FB3" transform="translate(62,143)"/>
<path d="M0 0 C0.495 0.99 0.495 0.99 1 2 C-0.32 4.64 -1.64 7.28 -3 10 C-24.45 10 -45.9 10 -68 10 C-68 9.67 -68 9.34 -68 9 C-67.28003342 8.98969254 -66.56006683 8.97938507 -65.81828308 8.96876526 C-59.03499673 8.87080865 -52.25179289 8.76829673 -45.46865368 8.66066074 C-41.9813316 8.60548424 -38.49400105 8.55207274 -35.0065918 8.50268555 C-30.99779153 8.44583745 -26.98914643 8.38132952 -22.98046875 8.31640625 C-21.72727341 8.29969376 -20.47407806 8.28298126 -19.1829071 8.26576233 C-17.44144157 8.2358445 -17.44144157 8.2358445 -15.66479492 8.20532227 C-14.64109299 8.18977798 -13.61739105 8.1742337 -12.56266785 8.15821838 C-9.87992024 8.10284378 -9.87992024 8.10284378 -7 7 C-7 7.66 -7 8.32 -7 9 C-6.01 9 -5.02 9 -4 9 C-3.896875 8.443125 -3.79375 7.88625 -3.6875 7.3125 C-2.86866423 4.55823422 -1.54146219 2.41272343 0 0 Z " fill="#BA42CD" transform="translate(161,50)"/>
<path d="M0 0 C8.30998987 -0.06942922 16.6198591 -0.12277489 24.93006706 -0.15543652 C28.78860575 -0.17111039 32.6469464 -0.19237955 36.50537109 -0.22631836 C40.22713296 -0.25885119 43.94870403 -0.27684004 47.67059708 -0.28463173 C49.0924289 -0.29018625 50.51424996 -0.30103261 51.93600082 -0.31719017 C53.92321387 -0.33888117 55.91061783 -0.34022469 57.89794922 -0.34057617 C59.03046112 -0.34723801 60.16297302 -0.35389984 61.32980347 -0.36076355 C62.21096832 -0.24171158 63.09213318 -0.12265961 64 0 C64.99 1.485 64.99 1.485 66 3 C65.67 3.99 65.34 4.98 65 6 C64.44411446 5.02688873 64.44411446 5.02688873 63.8769989 4.03411865 C62.14072725 1.74811066 62.14072725 1.74811066 59.28547668 1.48101807 C58.19071518 1.47213562 57.09595367 1.46325317 55.96801758 1.45410156 C54.10642754 1.42452362 54.10642754 1.42452362 52.20722961 1.39434814 C50.85299728 1.39268499 49.49876435 1.39145412 48.14453125 1.390625 C46.75874393 1.37564511 45.37297448 1.35891835 43.98722839 1.34051514 C40.34253119 1.29680677 36.6980748 1.27683523 33.05316162 1.26177979 C29.33282205 1.24222092 25.61274304 1.2002497 21.89257812 1.16015625 C14.59512207 1.08481669 7.29777524 1.03454839 0 1 C0 0.67 0 0.34 0 0 Z " fill="#7737BE" transform="translate(94,189)"/>
<path d="M0 0 C2.12890625 -0.328125 2.12890625 -0.328125 4.5625 -0.25 C5.36816406 -0.23453125 6.17382812 -0.2190625 7.00390625 -0.203125 C9 0 9 0 10 1 C10.07244053 3.01964199 10.08377188 5.04167124 10.0625 7.0625 C10.05347656 8.16722656 10.04445312 9.27195313 10.03515625 10.41015625 C10.02355469 11.26480469 10.01195312 12.11945313 10 13 C9.67 13 9.34 13 9 13 C9 10.36 9 7.72 9 5 C5.7 5.33 2.4 5.66 -1 6 C-1 9.3 -1 12.6 -1 16 C-1.33 16 -1.66 16 -2 16 C-2.05402274 13.89611431 -2.09280256 11.79183286 -2.125 9.6875 C-2.14820313 8.51574219 -2.17140625 7.34398437 -2.1953125 6.13671875 C-2 3 -2 3 0 0 Z " fill="#C02490" transform="translate(160,174)"/>
<path d="M0 0 C1 3 1 3 -0.36328125 6.21484375 C-1.00295653 7.46094715 -1.65314888 8.7016949 -2.3125 9.9375 C-2.79493164 10.86852539 -2.79493164 10.86852539 -3.28710938 11.81835938 C-4.18471447 13.54905997 -5.09205426 15.27470177 -6 17 C-6.67092309 18.33119661 -7.34004183 19.66333346 -8 21 C-8.66 21 -9.32 21 -10 21 C-10.08333357 16.1666528 -9.95261487 11.76307437 -9 7 C-8.01 7.99 -7.02 8.98 -6 10 C-4.0549 7.08235 -3.54723683 5.37462715 -3 2 C-2.01 2 -1.02 2 0 2 C0 1.34 0 0.68 0 0 Z " fill="#DE68E3" transform="translate(90,194)"/>
<path d="M0 0 C4.20626034 1.50223584 5.73900021 4.28550034 8 8 C8.66 7.01 9.32 6.02 10 5 C10 9.29 10 13.58 10 18 C9.34 17.67 8.68 17.34 8 17 C8 16.01 8 15.02 8 14 C7.01 14 6.02 14 5 14 C4.35089846 12.41800369 3.70585306 10.83434276 3.0625 9.25 C2.70285156 8.36828125 2.34320313 7.4865625 1.97265625 6.578125 C1.14643424 4.38813896 0.50630057 2.28101729 0 0 Z " fill="#C741C5" transform="translate(160,195)"/>
<path d="M0 0 C0.66 0.33 1.32 0.66 2 1 C1.67128906 1.48210937 1.34257813 1.96421875 1.00390625 2.4609375 C-0.46580134 6.17809677 -0.17197944 9.67046997 -0.0625 13.625 C0.11993243 21.76013514 0.11993243 21.76013514 -1 24 C-0.34 24.33 0.32 24.66 1 25 C0.67 25.66 0.34 26.32 0 27 C0 28.32 0 29.64 0 31 C1.98 30.67 3.96 30.34 6 30 C5.67 30.66 5.34 31.32 5 32 C3.35 32 1.7 32 0 32 C-0.33 32.99 -0.66 33.98 -1 35 C-1.33 35 -1.66 35 -2 35 C-2.04937279 30.33692986 -2.08570627 25.67401127 -2.10986328 21.01074219 C-2.11993188 19.42380117 -2.13358767 17.83687875 -2.15087891 16.25 C-2.17509001 13.97130753 -2.18647422 11.69285994 -2.1953125 9.4140625 C-2.20563507 8.70255035 -2.21595764 7.99103821 -2.22659302 7.25796509 C-2.22699422 5.50368335 -2.12202209 3.75003291 -2 2 C-1.34 1.34 -0.68 0.68 0 0 Z " fill="#CF42B2" transform="translate(37,135)"/>
<path d="M0 0 C0.99 0.495 0.99 0.495 2 1 C2 1.66 2 2.32 2 3 C2.66 3 3.32 3 4 3 C4 3.99 4 4.98 4 6 C4.99 6 5.98 6 7 6 C7.33 5.01 7.66 4.02 8 3 C9.32 3.99 10.64 4.98 12 6 C12.66 5.67 13.32 5.34 14 5 C13.46930939 8.82097239 12.50298434 11.06171403 10 14 C6.07511907 10.29939798 2.97784457 6.5093075 0 2 C0 1.34 0 0.68 0 0 Z " fill="#6A4EDD" transform="translate(85,144)"/>
<path d="M0 0 C0.66 0.33 1.32 0.66 2 1 C1.42437172 4.33864404 0.40936384 5.69102632 -2 8 C-3.15839043 11.47517129 -3.22801218 14.6727002 -3.31640625 18.29296875 C-3.33718735 18.99899734 -3.35796844 19.70502594 -3.37937927 20.43244934 C-3.44467491 22.68403551 -3.50366647 24.93573662 -3.5625 27.1875 C-3.60570425 28.7155066 -3.64931916 30.24350164 -3.69335938 31.77148438 C-3.80033574 35.51420562 -3.90165922 39.2570423 -4 43 C-4.33 43 -4.66 43 -5 43 C-5.12383064 37.67985484 -5.21444676 32.36055286 -5.2746582 27.03930664 C-5.2997639 25.23023868 -5.33385595 23.42127178 -5.37719727 21.61254883 C-5.43802579 19.00837249 -5.46624809 16.40553969 -5.48828125 13.80078125 C-5.51408768 12.99538406 -5.5398941 12.18998688 -5.56648254 11.36018372 C-5.56867381 6.94805286 -5.40568964 5.48898028 -2.46948242 1.94995117 C-1.65455322 1.30646729 -0.83962402 0.6629834 0 0 Z " fill="#C944B8" transform="translate(85,164)"/>
<path d="M0 0 C0.99 0.33 1.98 0.66 3 1 C3 1.66 3 2.32 3 3 C3.66 3 4.32 3 5 3 C5.48210937 4.10859375 5.96421875 5.2171875 6.4609375 6.359375 C7.09890222 7.82294113 7.73692616 9.28648144 8.375 10.75 C8.69210938 11.47960938 9.00921875 12.20921875 9.3359375 12.9609375 C9.6453125 13.66992188 9.9546875 14.37890625 10.2734375 15.109375 C10.55622559 15.75874023 10.83901367 16.40810547 11.13037109 17.07714844 C12.03588009 19.07933508 13.00518406 21.04086056 14 23 C13.34 23.33 12.68 23.66 12 24 C10.66042079 21.21128823 9.32941565 18.41856938 8 15.625 C7.6184375 14.8309375 7.236875 14.036875 6.84375 13.21875 C6.4828125 12.45820312 6.121875 11.69765625 5.75 10.9140625 C5.41484375 10.2123291 5.0796875 9.5105957 4.734375 8.78759766 C4 7 4 7 4 5 C3.01 5.495 3.01 5.495 2 6 C1.53045739 9.04581269 1.53045739 9.04581269 1.375 12.5625 C1.30023438 13.76003906 1.22546875 14.95757812 1.1484375 16.19140625 C1.09945312 17.11824219 1.05046875 18.04507813 1 19 C0.67 19 0.34 19 0 19 C0 12.73 0 6.46 0 0 Z " fill="#D96DDF" transform="translate(80,36)"/>
<path d="M0 0 C0.99 0.33 1.98 0.66 3 1 C2.814375 2.051875 2.62875 3.10375 2.4375 4.1875 C1.80479999 7.74669238 1.80479999 7.74669238 2.53125 10.15625 C3.21449677 14.30128043 2.58918038 18.16775441 2.0625 22.3125 C1.96259766 23.14845703 1.86269531 23.98441406 1.75976562 24.84570312 C1.51349177 26.89798523 1.25769102 28.94912019 1 31 C0.67 31 0.34 31 0 31 C0 20.77 0 10.54 0 0 Z " fill="#420D86" transform="translate(94,158)"/>
<path d="M0 0 C3.04221065 -0.08132642 6.0822238 -0.14065374 9.125 -0.1875 C9.9809375 -0.21263672 10.836875 -0.23777344 11.71875 -0.26367188 C16.94615526 -0.32398809 20.43281324 0.14738007 25 3 C23.7508258 6.45925163 22.32472205 9.14693203 20 12 C19.34 11.67 18.68 11.34 18 11 C18.99 8.69 19.98 6.38 21 4 C16.37025009 2.22598368 12.03955157 1.60358379 7.125 1.375 C6.43664062 1.33632812 5.74828125 1.29765625 5.0390625 1.2578125 C3.35976754 1.16451834 1.67992233 1.08121762 0 1 C0 0.67 0 0.34 0 0 Z " fill="#8E47D7" transform="translate(62,157)"/>
<path d="M0 0 C13.53 0 27.06 0 41 0 C36.64274428 2.17862786 34.81337816 2.17853297 30.046875 1.9765625 C29.38665344 1.95153656 28.72643188 1.92651062 28.04620361 1.90072632 C25.94692111 1.81885175 23.84862599 1.7221408 21.75 1.625 C20.32295641 1.56672689 18.89587283 1.50942434 17.46875 1.453125 C13.97863306 1.31332364 10.48924626 1.16021403 7 1 C7.66 2.32 8.32 3.64 9 5 C5.85262818 4.30058404 2.97411124 3.23921302 0 2 C0 1.34 0 0.68 0 0 Z " fill="#4927B6" transform="translate(38,80)"/>
<path d="M0 0 C10.55808656 -0.3690205 10.55808656 -0.3690205 15 2 C15 3.65 15 5.3 15 7 C13.7934375 6.566875 13.7934375 6.566875 12.5625 6.125 C8.41868933 4.81642821 4.25021337 3.88782235 0 3 C0 2.01 0 1.02 0 0 Z " fill="#C870D8" transform="translate(200,127)"/>
<path d="M0 0 C0.33 0 0.66 0 1 0 C1 2.31 1 4.62 1 7 C-13.52 7 -28.04 7 -43 7 C-43 6.67 -43 6.34 -43 6 C-29.47 5.67 -15.94 5.34 -2 5 C-1.34 3.35 -0.68 1.7 0 0 Z " fill="#1C0344" transform="translate(78,72)"/>
<path d="M0 0 C6.19169602 -0.37908343 10.47040278 0.12000145 16 3 C17 4 17 4 17.0625 7.0625 C17.041875 8.031875 17.02125 9.00125 17 10 C16.34 8.68 15.68 7.36 15 6 C14.01 6.33 13.02 6.66 12 7 C11.60167969 6.53980469 11.20335937 6.07960937 10.79296875 5.60546875 C8.70133484 3.7325678 6.98578008 3.12610698 4.3125 2.3125 C3.50425781 2.06113281 2.69601563 1.80976563 1.86328125 1.55078125 C1.24839844 1.36902344 0.63351563 1.18726563 0 1 C0 0.67 0 0.34 0 0 Z " fill="#9851D8" transform="translate(198,133)"/>
<path d="M0 0 C0.33 0.66 0.66 1.32 1 2 C3.31 2 5.62 2 8 2 C8 2.99 8 3.98 8 5 C9.98 4.34 11.96 3.68 14 3 C12.25 6.875 12.25 6.875 10 8 C10 7.34 10 6.68 10 6 C6.7 6.33 3.4 6.66 0 7 C0 4.69 0 2.38 0 0 Z " fill="#5B24B5" transform="translate(83,108)"/>
<path d="M0 0 C0.33 0.66 0.66 1.32 1 2 C10.9 2 20.8 2 31 2 C31 2.33 31 2.66 31 3 C30.32420898 3.02505615 29.64841797 3.0501123 28.95214844 3.07592773 C25.8845832 3.19210742 22.81730842 3.31473437 19.75 3.4375 C18.68652344 3.47681641 17.62304688 3.51613281 16.52734375 3.55664062 C15.50253906 3.59853516 14.47773438 3.64042969 13.421875 3.68359375 C12.00793457 3.73858032 12.00793457 3.73858032 10.56542969 3.79467773 C8.04457657 3.9247148 8.04457657 3.9247148 5.83300781 4.54711914 C3.35352387 5.15972472 1.44583735 4.61145934 -1 4 C-0.67 2.68 -0.34 1.36 0 0 Z " fill="#6C2CCC" transform="translate(159,155)"/>
<path d="M0 0 C0.33 0 0.66 0 1 0 C1 10.23 1 20.46 1 31 C0.01 30.67 -0.98 30.34 -2 30 C-1.76990234 28.11474609 -1.76990234 28.11474609 -1.53515625 26.19140625 C-0.93403051 20.78127458 -0.66828477 15.37418374 -0.4375 9.9375 C-0.39431641 8.97650391 -0.35113281 8.01550781 -0.30664062 7.02539062 C-0.20178868 4.68369723 -0.09962212 2.34192071 0 0 Z " fill="#8659DD" transform="translate(93,60)"/>
<path d="M0 0 C-0.66 0.66 -1.32 1.32 -2 2 C1.63 2.33 5.26 2.66 9 3 C9 3.33 9 3.66 9 4 C2.07 4 -4.86 4 -12 4 C-9.94577945 1.94577945 -8.66990976 1.31862408 -6 0.3125 C-5.29875 0.04050781 -4.5975 -0.23148438 -3.875 -0.51171875 C-2 -1 -2 -1 0 0 Z " fill="#BF5EE4" transform="translate(148,166)"/>
<path d="M0 0 C-1.32 0.99 -2.64 1.98 -4 3 C-0.7 3.33 2.6 3.66 6 4 C6 4.33 6 4.66 6 5 C0.39 5 -5.22 5 -11 5 C-4.5 -1.5 -4.5 -1.5 0 0 Z " fill="#AA76ED" transform="translate(51,165)"/>
<path d="M0 0 C0.99 0.33 1.98 0.66 3 1 C2.505 1.350625 2.01 1.70125 1.5 2.0625 C-0.80733502 5.04280774 -0.37909894 7.33537695 0 11 C1.37249963 13.67676547 1.37249963 13.67676547 3 16 C3.6875 18.3125 3.6875 18.3125 4 20 C-0.875 16.375 -0.875 16.375 -2 13 C-2.068991 10.93854893 -2.08467727 8.87498599 -2.0625 6.8125 C-2.05347656 5.72582031 -2.04445312 4.63914063 -2.03515625 3.51953125 C-2.02355469 2.68808594 -2.01195312 1.85664063 -2 1 C-1.34 0.67 -0.68 0.34 0 0 Z " fill="#DB2CAA" transform="translate(161,179)"/>
<path d="M0 0 C0 0.99 0 1.98 0 3 C-3.3 3.33 -6.6 3.66 -10 4 C-10 7.3 -10 10.6 -10 14 C-10.33 14 -10.66 14 -11 14 C-11 9.71 -11 5.42 -11 1 C-9.55625 0.835 -8.1125 0.67 -6.625 0.5 C-5.81289062 0.4071875 -5.00078125 0.314375 -4.1640625 0.21875 C-2 0 -2 0 0 0 Z " fill="#C8289B" transform="translate(169,176)"/>
<path d="M0 0 C-0.99 0.66 -1.98 1.32 -3 2 C-3 2.99 -3 3.98 -3 5 C-2.01 5.66 -1.02 6.32 0 7 C0 7.66 0 8.32 0 9 C-2.99220268 7.63629701 -5.29026529 6.05091917 -7.75 3.875 C-8.36359375 3.33617187 -8.9771875 2.79734375 -9.609375 2.2421875 C-10.06828125 1.83226562 -10.5271875 1.42234375 -11 1 C-10.38253906 0.84789062 -9.76507813 0.69578125 -9.12890625 0.5390625 C-7.72325215 0.18313541 -6.32520107 -0.20448452 -4.9375 -0.625 C-3 -1 -3 -1 0 0 Z " fill="#7B2BCD" transform="translate(170,159)"/>
<path d="M0 0 C4.29 0 8.58 0 13 0 C13 0.66 13 1.32 13 2 C11.54182203 2.16802051 10.0834516 2.33437143 8.625 2.5 C7.40683594 2.63921875 7.40683594 2.63921875 6.1640625 2.78125 C4 3 4 3 2 3 C0.37485532 4.45833358 0.37485532 4.45833358 -1 6 C-0.67 4.02 -0.34 2.04 0 0 Z " fill="#AA56D2" transform="translate(155,138)"/>
<path d="M0 0 C0.66 0.66 1.32 1.32 2 2 C3.68761858 2.60311615 5.40014476 3.13850237 7.125 3.625 C8.03507812 3.88539062 8.94515625 4.14578125 9.8828125 4.4140625 C10.58148438 4.60742188 11.28015625 4.80078125 12 5 C10.6875 6.5 10.6875 6.5 9 8 C8.01 8 7.02 8 6 8 C6 7.01 6 6.02 6 5 C3.69 5 1.38 5 -1 5 C-0.67 3.35 -0.34 1.7 0 0 Z " fill="#722DC0" transform="translate(85,105)"/>
<path d="M0 0 C0.33 0.99 0.66 1.98 1 3 C0.67 3.33 0.34 3.66 0 4 C2.475 4.99 2.475 4.99 5 6 C4.67 7.65 4.34 9.3 4 11 C3.34 10.34 2.68 9.68 2 9 C-0.57061311 8.35232207 -0.57061311 8.35232207 -3 8 C-1.125 1.125 -1.125 1.125 0 0 Z " fill="#A33EC8" transform="translate(91,96)"/>
<path d="M0 0 C1.98 0 3.96 0 6 0 C4.34292168 5.64913063 2.52237988 10.26300637 -1 15 C-2.23593891 11.29218328 -1.5678132 10.32489747 -0.0625 6.8125 C0.31777344 5.91144531 0.69804687 5.01039062 1.08984375 4.08203125 C1.39019531 3.39496094 1.69054687 2.70789062 2 2 C1.34 1.34 0.68 0.68 0 0 Z " fill="#A84EEB" transform="translate(164,35)"/>
<path d="M0 0 C0.33 0.66 0.66 1.32 1 2 C-0.11463924 4.78939871 -1.58628534 7.34393004 -3 10 C-6.96 10 -10.92 10 -15 10 C-15 9.67 -15 9.34 -15 9 C-12.36 8.34 -9.72 7.68 -7 7 C-7 7.66 -7 8.32 -7 9 C-6.01 9 -5.02 9 -4 9 C-3.896875 8.443125 -3.79375 7.88625 -3.6875 7.3125 C-2.86866423 4.55823422 -1.54146219 2.41272343 0 0 Z " fill="#B33FDC" transform="translate(161,50)"/>
<path d="M0 0 C3.50778211 4.20933853 7 9.4255442 7 15 C6.34 15 5.68 15 5 15 C3 12 3 12 3 8 C2.34 8 1.68 8 1 8 C0.67 5.36 0.34 2.72 0 0 Z " fill="#583AB4" transform="translate(94,132)"/>
<path d="M0 0 C1.890625 0.6171875 1.890625 0.6171875 4 2 C5.046875 4.8203125 5.046875 4.8203125 5.75 8.125 C5.99234375 9.22070312 6.2346875 10.31640625 6.484375 11.4453125 C6.65453125 12.28835937 6.8246875 13.13140625 7 14 C6.34 14 5.68 14 5 14 C4.35089846 12.41800369 3.70585306 10.83434276 3.0625 9.25 C2.70285156 8.36828125 2.34320313 7.4865625 1.97265625 6.578125 C1.14643424 4.38813896 0.50630057 2.28101729 0 0 Z " fill="#AB30BD" transform="translate(160,195)"/>
<path d="M0 0 C5.61 0 11.22 0 17 0 C12.69320929 2.15339535 10.80596889 2.12635446 6.21875 1.875 C3.69546462 2.01715692 2.16636013 2.73957229 0 4 C0 2.68 0 1.36 0 0 Z " fill="#38137E" transform="translate(120,170)"/>
<path d="M0 0 C0.99 0.495 0.99 0.495 2 1 C2 1.66 2 2.32 2 3 C2.66 3 3.32 3 4 3 C4 3.99 4 4.98 4 6 C4.99 6 5.98 6 7 6 C7.33 5.01 7.66 4.02 8 3 C8.66 4.32 9.32 5.64 10 7 C9.34 7 8.68 7 8 7 C8 7.66 8 8.32 8 9 C6.25 8.875 6.25 8.875 4 8 C0 2.77777778 0 2.77777778 0 0 Z " fill="#5B40CC" transform="translate(85,144)"/>
<path d="M0 0 C0.99 0.33 1.98 0.66 3 1 C3.6875 3.0625 3.6875 3.0625 4 5 C3.01 5.495 3.01 5.495 2 6 C1.53045739 9.04581269 1.53045739 9.04581269 1.375 12.5625 C1.30023438 13.76003906 1.22546875 14.95757812 1.1484375 16.19140625 C1.09945312 17.11824219 1.05046875 18.04507813 1 19 C0.67 19 0.34 19 0 19 C0 12.73 0 6.46 0 0 Z " fill="#E395ED" transform="translate(80,36)"/>
<path d="M0 0 C3.96 0 7.92 0 12 0 C12 0.33 12 0.66 12 1 C10.35 1 8.7 1 7 1 C7.66 2.32 8.32 3.64 9 5 C5.85262818 4.30058404 2.97411124 3.23921302 0 2 C0 1.34 0 0.68 0 0 Z " fill="#5238CC" transform="translate(38,80)"/>
<path d="M0 0 C4 3 8 6 12 9 C8.26512223 8.5020163 6.18762365 8.12508244 3 6 C3 5.34 3 4.68 3 4 C1.68 3.34 0.36 2.68 -1 2 C-0.67 1.34 -0.34 0.68 0 0 Z " fill="#7356CE" transform="translate(101,146)"/>
<path d="M0 0 C1.32 0.33 2.64 0.66 4 1 C1.525 5.455 1.525 5.455 -1 10 C-1.66 10 -2.32 10 -3 10 C-2.01 6.7 -1.02 3.4 0 0 Z " fill="#985EE0" transform="translate(92,190)"/>
<path d="M0 0 C0 0.99 0 1.98 0 3 C-1.11375 3.12375 -2.2275 3.2475 -3.375 3.375 C-7.03103677 3.6465813 -7.03103677 3.6465813 -9 6 C-9 4.68 -9 3.36 -9 2 C-10.65 2 -12.3 2 -14 2 C-14 1.67 -14 1.34 -14 1 C-9.38 0.67 -4.76 0.34 0 0 Z " fill="#7930B0" transform="translate(135,156)"/>
<path d="M0 0 C0 1.65 0 3.3 0 5 C-1.32 5.33 -2.64 5.66 -4 6 C-4 6.66 -4 7.32 -4 8 C-4.99 8 -5.98 8 -7 8 C-5.84316054 5.30070793 -3.38550714 0 0 0 Z " fill="#280951" transform="translate(106,100)"/>
<path d="M0 0 C0.33 0 0.66 0 1 0 C1 3.3 1 6.6 1 10 C0.34 9.34 -0.32 8.68 -1 8 C-1.99 8.99 -2.98 9.98 -4 11 C-3.21681311 7.08406554 -1.60820142 3.63593365 0 0 Z " fill="#7459F1" transform="translate(169,37)"/>
<path d="M0 0 C0.33 0 0.66 0 1 0 C1 3.63 1 7.26 1 11 C-0.32 10.67 -1.64 10.34 -3 10 C-2.05066101 6.64566891 -1.10251165 3.30753495 0 0 Z " fill="#60249F" transform="translate(156,178)"/>
<path d="M0 0 C1.8871875 0.061875 1.8871875 0.061875 3.8125 0.125 C3.4825 1.445 3.1525 2.765 2.8125 4.125 C-0.4875 3.465 -3.7875 2.805 -7.1875 2.125 C-4.09861478 0.06574319 -3.47814073 -0.1140374 0 0 Z " fill="#DB7DD4" transform="translate(211.1875,124.875)"/>
<path d="M0 0 C2.97 0.495 2.97 0.495 6 1 C5.67 1.99 5.34 2.98 5 4 C4.34 4 3.68 4 3 4 C2.67 5.65 2.34 7.3 2 9 C1.34 8.67 0.68 8.34 0 8 C0 5.36 0 2.72 0 0 Z " fill="#9451D4" transform="translate(191,131)"/>
<path d="M0 0 C0.33 0.99 0.66 1.98 1 3 C-0.98 4.98 -2.96 6.96 -5 9 C-5.99 8.67 -6.98 8.34 -8 8 C-5.36 5.36 -2.72 2.72 0 0 Z " fill="#31084A" transform="translate(167,84)"/>
<path d="M0 0 C0.99 1.485 0.99 1.485 2 3 C2.99 2.01 3.98 1.02 5 0 C4.1875 3.4375 4.1875 3.4375 3 7 C2.01 7.33 1.02 7.66 0 8 C0 5.36 0 2.72 0 0 Z " fill="#B870E7" transform="translate(80,207)"/>
<path d="M0 0 C0.515625 0.433125 1.03125 0.86625 1.5625 1.3125 C4.582386 3.40319031 7.5958835 4.62526065 11 6 C7.59068103 7.13643966 6.99664544 6.86747764 3.8125 5.5625 C3.09707031 5.27503906 2.38164063 4.98757812 1.64453125 4.69140625 C0.83048828 4.34916016 0.83048828 4.34916016 0 4 C0 2.68 0 1.36 0 0 Z " fill="#8532C3" transform="translate(86,103)"/>
<path d="M0 0 C0.33 0.66 0.66 1.32 1 2 C1.66 2.33 2.32 2.66 3 3 C2.34 4.98 1.68 6.96 1 9 C0.34 8.67 -0.32 8.34 -1 8 C-1.04241723 5.66705225 -1.04092937 3.33297433 -1 1 C-0.67 0.67 -0.34 0.34 0 0 Z " fill="#2B0F81" transform="translate(81,105)"/>
<path d="M0 0 C2.875 -0.125 2.875 -0.125 6 0 C6.66 0.66 7.32 1.32 8 2 C7.67 2.99 7.34 3.98 7 5 C4.69 4.01 2.38 3.02 0 2 C0 1.34 0 0.68 0 0 Z " fill="#AB5DDC" transform="translate(207,132)"/>
<path d="M0 0 C-2.31 1.65 -4.62 3.3 -7 5 C-7.66 4.34 -8.32 3.68 -9 3 C-8.34 3 -7.68 3 -7 3 C-7 2.01 -7 1.02 -7 0 C-2.25 -1.125 -2.25 -1.125 0 0 Z " fill="#622CA7" transform="translate(101,88)"/>
<path d="M0 0 C-2.25 2.0625 -2.25 2.0625 -5 4 C-7.3125 3.75 -7.3125 3.75 -9 3 C-8 1 -8 1 -5.0625 -0.1875 C-2 -1 -2 -1 0 0 Z " fill="#D65AD4" transform="translate(45,166)"/>
<path d="M0 0 C0.33 0.66 0.66 1.32 1 2 C1.66 2.33 2.32 2.66 3 3 C2.67 4.65 2.34 6.3 2 8 C0 6.6875 0 6.6875 -2 5 C-2 4.01 -2 3.02 -2 2 C-1.34 2 -0.68 2 0 2 C0 1.34 0 0.68 0 0 Z " fill="#72249B" transform="translate(92,155)"/>
<path d="M0 0 C2.64 0 5.28 0 8 0 C7.67 1.32 7.34 2.64 7 4 C4.69 3.01 2.38 2.02 0 1 C0 0.67 0 0.34 0 0 Z " fill="#BC69DC" transform="translate(207,130)"/>
<path d="M0 0 C0.99 0.33 1.98 0.66 3 1 C1.63016497 4.16115776 1.0109362 4.9927092 -2 7 C-1.125 1.125 -1.125 1.125 0 0 Z " fill="#381084" transform="translate(91,91)"/>
<path d="M0 0 C3.43927579 1.2419607 6.25207819 2.55740284 9 5 C9 5.66 9 6.32 9 7 C5.18315774 5.44499019 2.80804268 2.96404505 0 0 Z " fill="#9734D1" transform="translate(161,161)"/>
<path d="M0 0 C0.33 0.66 0.66 1.32 1 2 C2.32 2 3.64 2 5 2 C4.67 2.99 4.34 3.98 4 5 C2.35 4.67 0.7 4.34 -1 4 C-0.67 2.68 -0.34 1.36 0 0 Z " fill="#6823B5" transform="translate(159,155)"/>
</svg>
