<svg xmlns="http://www.w3.org/2000/svg" width="64" height="64" fill="none"><g clip-path="url(#a)"><path fill="url(#b)" d="M32 64c17.673 0 32-14.327 32-32S49.673 0 32 0 0 14.327 0 32s14.327 32 32 32"/><path fill="#000" d="M51.847 21.047a9.75 9.75 0 0 0-5.915-2.883 9.67 9.67 0 0 0-6.376 1.554 12.6 12.6 0 0 1 3.035 8.606 12.56 12.56 0 0 1-3.55 8.397l-5.954 6.08 1.998 2.04.817-.835 2.045 2.087-.818.835 1.636 1.67L51.847 35.24a10.15 10.15 0 0 0 2.878-7.096c0-2.662-1.035-5.215-2.879-7.097" opacity=".25"/><path fill="#000" d="M37.386 20.841a9.8 9.8 0 0 0-3.188-2.175 9.65 9.65 0 0 0-7.523 0 9.8 9.8 0 0 0-3.188 2.175L10.404 34.2l1.636 1.669.817-.835 2.045 2.087-.818.835 2.044 2.087.818-.834 2.453 2.504-.818.835 2.045 2.087.817-.834 2.044 2.086-.817.835 1.635 1.67 13.083-13.357a10.15 10.15 0 0 0 2.878-7.097c0-2.661-1.036-5.214-2.88-7.096" opacity=".25"/><path fill="#D7D7D7" d="M50.717 19.893a9.75 9.75 0 0 0-5.915-2.883 9.67 9.67 0 0 0-6.375 1.554 12.6 12.6 0 0 1 3.035 8.606 12.56 12.56 0 0 1-3.551 8.398l-5.954 6.079 1.998 2.04.818-.835 2.044 2.087-.818.835 1.636 1.67 13.082-13.358a10.14 10.14 0 0 0 2.879-7.096c0-2.662-1.036-5.214-2.88-7.097"/><path fill="#fff" d="M50.717 19.893a9.75 9.75 0 0 0-5.915-2.883 9.67 9.67 0 0 0-6.375 1.554 12.6 12.6 0 0 1 3.035 8.606 12.56 12.56 0 0 1-3.551 8.398l-5.954 6.079.868.886.817-.835 3.175 3.241-.818.835.505.515 13.083-13.357c3.838-3.92 4.968-9.12 1.13-13.039"/><path fill="#D7D7D7" d="M36.258 19.687a9.8 9.8 0 0 0-3.189-2.175 9.65 9.65 0 0 0-7.523 0 9.8 9.8 0 0 0-3.188 2.175L9.275 33.045l1.636 1.67.817-.835 2.044 2.087-.817.835 2.044 2.087.817-.835 2.454 2.505-.818.835 2.044 2.087.818-.835 2.044 2.087-.817.835 1.635 1.67 13.082-13.357a10.15 10.15 0 0 0 2.878-7.097c0-2.662-1.035-5.214-2.878-7.097"/><path fill="#fff" d="M36.258 19.687a9.8 9.8 0 0 0-3.189-2.175 9.65 9.65 0 0 0-7.523 0 9.8 9.8 0 0 0-3.188 2.175L9.275 33.045l.505.515.818-.834 3.174 3.24-.817.835.913.933.818-.834 3.583 3.658-.817.835.913.933.818-.835 3.174 3.241-.817.835.505.516 13.082-13.358c3.839-3.919 4.97-9.119 1.13-13.038"/></g><defs><linearGradient id="b" x1="22.82" x2="41.815" y1="3.129" y2="62.87" gradientUnits="userSpaceOnUse"><stop offset=".157" stop-color="#FF1DFF"/><stop offset="1" stop-color="#672EEB"/></linearGradient><clipPath id="a"><path fill="#fff" d="M0 0h64v64H0z"/></clipPath></defs></svg>