<svg xmlns="http://www.w3.org/2000/svg" fill="none" viewBox="0 0 160 160"><circle cx="80" cy="80" r="80" fill="#958FDC"/><path fill="#2B1D3C" d="M135.912 80.0686c0-30.5655-24.89-55.3426-55.5892-55.3426-30.6989 0-55.5956 24.7771-55.5956 55.3426 0 6.3192 1.0664 12.3886 3.0235 18.0458.0126.025.1192.3497.1192.3497.7904 2.5039-3.1301 3.4839-3.1301 4.9829 0 2.348 8.2675 2.029 8.2675 4.758 0 2.379-8.1797 3.116-8.1797 5.514 0 3.315 18.1095 2.16 18.3416 5.008.1756 2.198-6.2289 2.335-6.2665 4.683-.0627 3.753 24.7147 2.522 24.7147 5.02 0 1.892-11.2722 1.205-11.2722 3.441 0 2.235 14.8352 3.646 31.1883 3.646s27.6315-1.81 27.6315-3.765c0-1.954-10.5257-1.555-10.3061-3.316.3764-3.078 23.7421-1.504 23.7421-5.07 0-1.879-6.423-2.316-6.216-4.34.295-2.859 19.527-2.435 19.527-5.407 0-2.335-9.534-2.91-9.516-5.339.013-2.479 9.516-2.373 9.453-4.696-.05-1.785-4.252-1.742-2.935-5.5257 1.944-5.6386 3.011-11.6892 3.011-17.9897h-.013Zm-17.664 15.7168c-1.932 4.3526-6.273 3.478-6.762 5.3076-.508 1.892 5.351 2.167 5.351 4.146 0 2.404-17.8589 1.443-17.6833 4.615.1129 1.998 12.6833 2.335 12.4453 4.421-.345 3.022-19.4771 1.511-19.6653 4.408-.138 2.123 9.3403 2.198 9.3593 4.134.019 1.629-7.4398 2.516-21.7292 2.516-16.2715 0-24.1878-.874-23.2845-2.691.8405-1.699 15.2491-1.386 15.1048-4.059-.1442-2.666-25.5866-1.886-26.3519-4.477-.6398-2.154 8.3616-2.598 8.3052-4.646-.0565-2.085-11.5231-1.611-11.774-4.14-.1631-1.654 5.9905-1.555 5.727-3.64-.1945-1.517-2.7349-1.305-4.2404-4.4335-2.4276-5.2264-3.795-11.046-3.795-17.1841 0-22.5791 18.3918-40.8872 41.0741-40.8872 22.6819 0 41.0739 18.3081 41.0739 40.8872 0 5.5698-1.123 10.8774-3.149 15.7167l-.006.0063Z"/><path fill="#2B1D3C" fill-rule="evenodd" d="M27.7507 98.1144c-1.9571-5.6572-3.0235-11.7266-3.0235-18.0458 0-30.5655 24.8967-55.3426 55.5956-55.3426 30.6992 0 55.5892 24.7771 55.5892 55.3426h.013c0 .1491-.001.298-.002.4468-.049 6.1397-1.111 12.0377-3.009 17.5429-.817 2.3467.488 3.2207 1.61 3.9727.688.46 1.306.875 1.325 1.553.031 1.145-2.261 1.7-4.596 2.265-2.403.582-4.85 1.174-4.857 2.431-.009 1.227 2.42 1.981 4.826 2.728 2.356.731 4.69 1.455 4.69 2.611 0 1.505-4.933 2.139-9.841 2.77-4.783.615-9.54 1.226-9.686 2.637-.106 1.04 1.539 1.661 3.163 2.274 1.536.58 3.053 1.153 3.053 2.066 0 1.852-6.305 2.318-12.418 2.769-5.654.417-11.1433.822-11.3241 2.301-.1074.862 2.3561 1.206 4.9011 1.562 2.658.372 5.405.756 5.405 1.754 0 1.955-11.2784 3.765-27.6315 3.765-16.3531 0-31.1883-1.411-31.1883-3.646 0-1.165 3.0579-1.536 5.9883-1.892 2.6959-.328 5.2839-.642 5.2839-1.549 0-1.122-4.9981-1.491-10.4989-1.898-6.747-.5-14.2504-1.055-14.2158-3.122.0189-1.183 1.6535-1.805 3.2487-2.411 1.5716-.598 3.105-1.182 3.0178-2.272-.1114-1.367-4.34-1.811-8.7085-2.271-4.7344-.498-9.6331-1.013-9.6331-2.737 0-1.201 2.0529-1.986 4.1019-2.769 2.0409-.779 4.0778-1.558 4.0778-2.745 0-1.415-2.2251-2.011-4.3666-2.584-1.9864-.532-3.9009-1.044-3.9009-2.174 0-.612.6546-1.138 1.3749-1.717 1.0425-.837 2.2226-1.7851 1.7552-3.2659 0 0-.1066-.3247-.1192-.3497Zm-.3053.4869c.1563.4971.0813.9012-.122 1.2719-.2149.3918-.5772.7518-1.0099 1.1178-.1409.119-.2954.244-.4523.37-.2919.235-.5923.476-.8302.705-.3664.353-.7372.809-.7372 1.381 0 .442.2001.803.4895 1.086.2811.275.6593.492 1.0681.673.7503.332 1.7218.592 2.6653.844.0807.022.1612.043.2414.065 1.0427.28 2.0301.558 2.757.925.7446.375 1.0462.754 1.0462 1.165 0 .158-.0649.329-.2391.525-.1782.202-.4514.407-.8151.616-.7299.42-1.7153.797-2.7486 1.192l-.0133.005c-1.0079.385-2.0619.787-2.8625 1.25-.4034.234-.7693.497-1.0382.803-.2731.31-.4629.685-.4629 1.123 0 .652.453 1.115.9989 1.435.5537.326 1.3138.576 2.1778.78 1.7342.411 4.035.669 6.3063.909.1815.019.3629.038.5439.057 2.0999.221 4.14.435 5.7101.747.8552.17 1.5376.363 2.0037.586.4951.237.5943.432.6024.53.0226.286-.1497.576-.6906.913-.5308.33-1.2682.611-2.0731.917l-.0034.001c-.7806.297-1.624.619-2.2715 1.024-.6403.401-1.216.963-1.2293 1.784-.0126.753.6 1.258 1.2932 1.6.7255.356 1.7349.635 2.9026.863 2.3434.457 5.46.734 8.5499.971.6334.049 1.2656.095 1.8903.142 2.4374.18 4.7615.352 6.5981.585 1.1563.147 2.091.314 2.7286.515.3216.101.536.2.6614.29.0497.035.0745.06.0862.075-.0032.006-.0089.015-.0192.027-.0333.041-.1013.099-.2267.166-.2529.137-.6447.264-1.1623.38-.9457.211-2.1878.362-3.4849.52-.1152.014-.2308.028-.3466.042-1.4019.171-2.8429.357-3.9347.646-.5433.144-1.0373.322-1.4046.559-.3661.236-.6888.589-.6888 1.088 0 .542.4394.924.8927 1.185.4871.281 1.1738.532 2.0102.759 1.6798.456 4.0722.844 6.9561 1.161 5.7742.635 13.5885.988 21.7752.988 8.1902 0 15.1204-.453 20.0115-1.154 2.442-.35 4.394-.764 5.745-1.222.673-.228 1.222-.475 1.613-.746.372-.259.708-.617.708-1.09 0-.475-.326-.8-.662-1.01-.343-.215-.804-.38-1.309-.516-1.016-.274-2.355-.466-3.649-.647l-.155-.022c-1.257-.175-2.46-.344-3.351-.568-.467-.117-.8074-.241-1.0157-.367-.1027-.062-.1476-.11-.1639-.134-.0012-.001-.0021-.003-.0029-.004.0072-.043.0386-.12.1688-.228.1395-.115.36-.237.6747-.358.629-.241 1.535-.44 2.648-.609 2.051-.312 4.708-.508 7.427-.709.227-.017.455-.034.683-.051 2.938-.218 5.896-.453 8.121-.86 1.108-.203 2.069-.454 2.763-.784.662-.315 1.259-.791 1.259-1.519 0-.374-.163-.688-.389-.941-.222-.248-.519-.455-.839-.635-.596-.335-1.368-.627-2.102-.904l-.144-.054c-.8-.302-1.54-.591-2.069-.918-.553-.342-.699-.615-.675-.842.01-.101.131-.312.674-.575.506-.245 1.241-.466 2.154-.668 1.777-.394 4.113-.694 6.484-.999l.175-.022c2.415-.311 4.853-.628 6.688-1.057.914-.214 1.711-.463 2.289-.769.548-.289 1.065-.721 1.065-1.363 0-.46-.238-.834-.551-1.127-.31-.29-.731-.537-1.195-.755-.903-.425-2.089-.793-3.24-1.15l-.093-.029c-1.2-.373-2.355-.735-3.209-1.15-.428-.207-.75-.413-.959-.617-.205-.2-.27-.366-.269-.507v-.002c.001-.149.068-.307.268-.49.206-.189.524-.374.95-.553.852-.358 2.001-.642 3.196-.931l.12-.029c1.135-.275 2.303-.557 3.191-.915.459-.185.88-.404 1.19-.678.316-.279.551-.649.538-1.114-.018-.648-.421-1.09-.831-1.421-.208-.167-.442-.324-.665-.473l-.022-.016c-.221-.147-.434-.29-.637-.446-.418-.321-.746-.664-.913-1.107-.164-.4337-.196-1.0293.108-1.9036v-.0013c1.961-5.6843 3.036-11.7842 3.036-18.1355v-.4467h-.015c-.241-30.6091-25.24-55.3426-56.0332-55.3426-30.9426 0-56.0416 24.9744-56.0416 55.7893 0 6.3699 1.075 12.4887 3.0481 18.1921l.0097.028.0039.0078c.0027.0075.0062.0174.0104.0296.011.0317.0249.0729.0389.1146.0138.0414.0274.0822.0375.1128l.0121.0366.0029.0087m33.7319 29.8592s-.001-.001-.002-.005c.0015.003.002.005.002.005Zm57.0774-32.6789c2.026-4.8393 3.149-10.1469 3.149-15.7167 0-22.5791-18.392-40.8872-41.0739-40.8872-22.6823 0-41.0741 18.3081-41.0741 40.8872 0 6.1381 1.3674 11.9577 3.795 17.1841.8386 1.7425 1.9982 2.4486 2.8947 2.9945.713.434 1.2596.767 1.3457 1.439.1396 1.105-1.5226 1.596-3.092 2.061-1.3923.411-2.7117.801-2.635 1.579.1311 1.322 3.3259 1.823 6.3542 2.298 2.7659.434 5.3928.847 5.4198 1.842.0273.992-2.0694 1.607-4.1668 2.223-2.2338.656-4.4684 1.312-4.1384 2.423.3782 1.281 6.7849 1.738 13.1858 2.194 6.5496.468 13.0932.935 13.1661 2.283.0815 1.51-4.4811 2.067-8.6184 2.572-3.1865.389-6.1207.748-6.4864 1.487-.9033 1.817 7.013 2.691 23.2845 2.691 14.2894 0 21.7482-.887 21.7292-2.516-.009-.942-2.2564-1.443-4.5462-1.954-2.4181-.539-4.8839-1.09-4.8131-2.18.0932-1.435 4.8316-1.788 9.6333-2.147 4.896-.365 9.858-.736 10.032-2.261.121-1.063-3.081-1.672-6.267-2.277-3.069-.584-6.1229-1.164-6.1783-2.144-.094-1.698 4.9793-2.212 9.7153-2.691 4.111-.416 7.968-.807 7.968-1.924 0-.976-1.425-1.537-2.808-2.083-1.422-.56-2.801-1.104-2.543-2.063.197-.736 1.017-1.034 2.052-1.4114 1.539-.5604 3.555-1.2944 4.71-3.8962l.006-.0063Zm-.377-.2543c1.982-4.7639 3.08-9.9845 3.08-15.4624 0-22.3298-18.189-40.4405-40.6279-40.4405-22.4387 0-40.6281 18.1107-40.6281 40.4405 0 6.0698 1.3518 11.8243 3.752 16.9928.7005 1.4539 1.6313 2.1267 2.4442 2.6327.0853.0531.1723.106.2595.159.3161.1921.6354.3861.8871.5971.3441.289.6216.654.689 1.179l.0001.001c.1009.799-.4434 1.323-1.0267 1.659-.59.34-1.3805.588-2.1145.807-.0898.027-.1788.053-.2668.079-.6585.195-1.2588.373-1.7105.583-.2549.118-.4226.23-.5183.331-.0847.089-.0936.145-.0889.193.013.132.1013.299.3849.495.283.195.7017.376 1.2405.543 1.075.332 2.5009.571 3.96.801.1327.021.2656.042.3985.063 1.3103.205 2.62.411 3.6322.679.5554.148 1.0574.323 1.4313.547.363.218.7152.551.7286 1.044m0 0c.012.439-.2248.787-.5171 1.046-.2907.258-.6844.474-1.1133.662-.8016.353-1.8428.658-2.8472.953-.0715.021-.1429.042-.214.063-1.0923.321-2.1141.632-2.8245.987-.3572.178-.5908.347-.7167.499-.1094.131-.1199.222-.0907.321h.0002c-.0006-.002.0041.017.0385.053.0351.037.0931.084.1837.139.1833.11.4563.223.8247.334.7343.221 1.7631.41 3.0043.576 2.424.323 5.5772.548 8.7482.775l.2134.015c3.2321.23 6.467.465 8.9031.81 1.2149.172 2.2567.375 3.0078.627.3734.125.7035.272.9512.452.2438.178.4752.438.4947.799.0307.57-.3394.984-.7741 1.27-.4399.288-1.0471.517-1.7332.707-1.3791.383-3.2234.651-5.0651.885-.4851.061-.9701.121-1.4478.179-1.3518.165-2.6454.323-3.7198.507-.727.125-1.3311.258-1.7722.406-.2207.074-.3849.147-.4979.215-.1191.072-.1422.116-.1405.112l-.0004.001c-.0251.05-.023.074-.0223.079.0006.006.0042.03.0418.076.0874.107.2977.256.7114.416.8126.316 2.1775.591 4.1221.813 3.8735.443 9.8992.661 18.0323.661 7.1398 0 12.5562-.221 16.1785-.644 1.8153-.211 3.155-.471 4.0295-.768.4392-.149.7312-.298.9042-.433.171-.134.171-.209.171-.219v-.001c-.001-.038-.02-.136-.231-.29-.208-.153-.53-.306-.9606-.457-.8147-.286-1.8933-.527-3.018-.778l-.1801-.04c-1.1685-.261-2.376-.537-3.2825-.887-.4517-.174-.8653-.381-1.1678-.638-.3078-.261-.548-.62-.5183-1.077.0413-.635.5889-1.027 1.1484-1.276.5939-.266 1.4024-.463 2.325-.622 1.8116-.31 4.1915-.488 6.5569-.664l.155-.012c2.433-.182 4.837-.365 6.655-.689.912-.162 1.644-.355 2.149-.585.534-.243.664-.457.678-.582.001-.009.003-.028-.026-.071-.035-.052-.106-.125-.239-.213-.267-.177-.69-.354-1.252-.528-1.118-.347-2.643-.643-4.214-.942l-.188-.035c-1.495-.285-3.015-.574-4.182-.912-.605-.175-1.1458-.372-1.5471-.604-.3733-.216-.7715-.546-.7994-1.04l-.0001-.001c-.0358-.647.4033-1.106.9261-1.418.5305-.318 1.2675-.562 2.1045-.762 1.683-.402 3.929-.656 6.145-.884.315-.032.63-.064.942-.096 1.902-.193 3.727-.377 5.145-.63.828-.147 1.484-.312 1.923-.501.22-.095.357-.184.433-.257.036-.035.052-.059.058-.072.006-.011.006-.016.006-.019 0-.246-.179-.518-.696-.836-.492-.304-1.152-.564-1.853-.84l-.035-.014c-.686-.271-1.422-.562-1.949-.918-.266-.18-.514-.399-.674-.674-.168-.29-.224-.623-.129-.98.174-.65.688-1.0157 1.229-1.2759.274-.1319.581-.2487.894-.3634.07-.0257.14-.0514.211-.0772.251-.0914.507-.1847.772-.2903 1.334-.5329 2.78-1.3407 3.68-3.3664l.033-.0764.003-.0026" clip-rule="evenodd"/></svg>