<svg xmlns="http://www.w3.org/2000/svg" width="39.998" height="39.998"><linearGradient id="a" x1=".8" x2=".225" y1=".087" y2=".91" gradientUnits="objectBoundingBox"><stop offset="0" stop-color="#03d1cf" stop-opacity=".988"/><stop offset="1" stop-color="#4e09f8"/></linearGradient><path fill="url(#a)" d="m21344.178 753.068-.312-.6h5.238l.129.182a15.411 15.411 0 0 0 28.1-9.9l-9.352-.016 2.73 7.722-3.344 4.594-5.994-17.011 19.732.038.086.3a18 18 0 0 1 .525 2.286 19.4 19.4 0 0 1 .279 3.343 20.02 20.02 0 0 1-16.656 19.71 22 22 0 0 1-3.393.279 19.89 19.89 0 0 1-17.768-10.927m3.363-3.193h-4.684l-.08-.3a18 18 0 0 1-.494-2.254 20.006 20.006 0 0 1 37.525-12.45l.311.6h-5.27l-.129-.182a15.422 15.422 0 0 0-28.107 9.9l9.391.016-2.73-7.722 3.359-4.594 5.977 17.011z" transform="translate(-21342 -724.001)"/></svg>