<svg xmlns="http://www.w3.org/2000/svg" xml:space="preserve" id="Ebene_1" x="0" y="0" version="1.1" viewBox="0 0 1080 1080"><style>.st3{fill:#ffea9e}.st4{opacity:.49;fill:#e86f1d}.st7{display:inline}</style><linearGradient id="SVGID_1_" x1="540" x2="540" y1="28.622" y2="1035.143" gradientUnits="userSpaceOnUse"><stop offset="0" style="stop-color:#fadb8a"/><stop offset=".817" style="stop-color:#ebb036"/><stop offset="1" style="stop-color:#e8a623"/></linearGradient><circle cx="540" cy="540" r="510.1" style="fill:url(#SVGID_1_)"/><linearGradient id="SVGID_00000179608266587661530990000008125825962187868336_" x1="540" x2="540" y1="111.547" y2="966.417" gradientUnits="userSpaceOnUse"><stop offset="0" style="stop-color:#e8a623"/><stop offset=".183" style="stop-color:#ebb036"/><stop offset="1" style="stop-color:#fadb8a"/></linearGradient><circle cx="540" cy="540" r="426.7" style="fill:url(#SVGID_00000179608266587661530990000008125825962187868336_)"/><linearGradient id="SVGID_00000176024068502268356430000000976730448851727491_" x1="540" x2="540" y1="146.965" y2="931.167" gradientUnits="userSpaceOnUse"><stop offset="0" style="stop-color:#ffd026"/><stop offset=".427" style="stop-color:#f8bc23"/><stop offset="1" style="stop-color:#ed9a1d"/></linearGradient><circle cx="540" cy="540" r="391.4" style="fill:url(#SVGID_00000176024068502268356430000000976730448851727491_)"/><path d="M866.7 816.7c-161.6 207.5-486.5 211.5-650.7-1.2 178.3 192.5 473.3 191.5 650.7 1.2" class="st3"/><path d="M831.1 663.3c-7.8-78.1-35.1-154.6-81.9-221.6-2.7-3.9-2.3-9.3 1.1-12.7l2.2-2.2c3.9-3.9 3.9-10.1 0-14l-19.1-19.1 1.4-1.4c14.4-14.4 14.4-37.8 0-52.2s-37.8-14.4-52.2 0l-1.4 1.4-19.2-19.1c-3.9-3.9-10.1-3.9-14 0l-2.2 2.2c-3.4 3.4-8.7 3.9-12.7 1.1-67-46.9-143.5-74.2-221.6-82-14.8-1.5-20.3 19-6.7 25.2 42.9 19.5 101.2 53.4 169.6 112 4.4 3.8 4.6 10.4.5 14.5-3.9 3.9-3.9 10.1 0 14l19.1 19.1-311 311.1c-14.4 14.4-14.4 37.8 0 52.2s37.8 14.4 52.2 0l311.1-311.1 19.1 19.1c3.9 3.9 10.1 3.9 14 0 4.1-4.1 10.8-3.8 14.5.5 58.6 68.4 92.5 126.7 112 169.6 6.2 13.7 26.7 8.2 25.2-6.6" class="st4"/><linearGradient id="SVGID_00000031916754146845283890000009227978208673545633_" x1="551.695" x2="551.695" y1="228.187" y2="785.499" gradientUnits="userSpaceOnUse"><stop offset="0" style="stop-color:#ffeeb3"/><stop offset=".455" style="stop-color:#ffe279"/><stop offset=".987" style="stop-color:#ffd438"/></linearGradient><path d="M831.1 647.8c-7.8-78.1-35.1-154.6-81.9-221.6-2.7-3.9-2.3-9.3 1.1-12.7l2.2-2.2c3.9-3.9 3.9-10.1 0-14l-19.1-19.1 1.4-1.4c14.4-14.4 14.4-37.8 0-52.2s-37.8-14.4-52.2 0l-1.4 1.4-19.2-19.1c-3.9-3.9-10.1-3.9-14 0l-2.2 2.2c-3.4 3.4-8.7 3.9-12.7 1.1-67-46.9-143.5-74.2-221.6-82-14.8-1.5-20.3 19-6.7 25.2 42.9 19.5 101.2 53.4 169.6 112 4.4 3.8 4.6 10.4.5 14.5-3.9 3.9-3.9 10.1 0 14L594 413 283 724.1c-14.4 14.4-14.4 37.8 0 52.2s37.8 14.4 52.2 0l311.1-311.1 19.1 19.1c3.9 3.9 10.1 3.9 14 0 4.1-4.1 10.8-3.8 14.5.5 58.6 68.4 92.5 126.7 112 169.6 6.2 13.7 26.7 8.2 25.2-6.6" style="fill:url(#SVGID_00000031916754146845283890000009227978208673545633_)"/></svg>