<?xml version="1.0" encoding="utf-8"?>
<!-- Generator: Adobe Illustrator 26.0.0, SVG Export Plug-In . SVG Version: 6.00 Build 0)  -->
<svg version="1.1" id="Ebene_1" xmlns="http://www.w3.org/2000/svg" xmlns:xlink="http://www.w3.org/1999/xlink" x="0px" y="0px"
	 viewBox="0 0 1080 1080" style="enable-background:new 0 0 1080 1080;" xml:space="preserve">
<style type="text/css">
	.st0{fill:url(#SVGID_1_);}
	.st1{fill:url(#SVGID_00000094616646260283091190000008168841577395123135_);}
	.st2{fill:url(#SVGID_00000147197269825510627930000017762721086225765052_);}
	.st3{fill:#FFEA9E;}
	.st4{opacity:0.49;fill:#E86F1D;}
	.st5{fill:url(#SVGID_00000057137582306894034240000015202892256727585210_);}
	.st6{display:none;}
	.st7{display:inline;}
	.st8{fill:url(#SVGID_00000106859559809595470280000005615617361056765327_);}
	.st9{fill:url(#SVGID_00000160151459227939383890000012945613677586933917_);}
	.st10{fill:url(#SVGID_00000129197994453679917070000007590627275998439565_);}
	.st11{fill:url(#SVGID_00000035519999816599804220000016142561574441357485_);}
	.st12{fill:#FFFCEF;}
	.st13{fill:url(#SVGID_00000132804539309396113870000015371402552560621239_);}
	.st14{fill:url(#SVGID_00000013886188933313953400000006725504691303313317_);}
</style>
<g>
	<g>
		<linearGradient id="SVGID_1_" gradientUnits="userSpaceOnUse" x1="540" y1="28.6219" x2="540" y2="1035.1433">
			<stop  offset="0" style="stop-color:#FADB8A"/>
			<stop  offset="0.8167" style="stop-color:#EBB036"/>
			<stop  offset="1" style="stop-color:#E8A623"/>
		</linearGradient>
		<circle class="st0" cx="540" cy="540" r="510.1"/>
		
			<linearGradient id="SVGID_00000179608266587661530990000008125825962187868336_" gradientUnits="userSpaceOnUse" x1="540" y1="111.5468" x2="540" y2="966.4169">
			<stop  offset="0" style="stop-color:#E8A623"/>
			<stop  offset="0.1833" style="stop-color:#EBB036"/>
			<stop  offset="1" style="stop-color:#FADB8A"/>
		</linearGradient>
		<circle style="fill:url(#SVGID_00000179608266587661530990000008125825962187868336_);" cx="540" cy="540" r="426.7"/>
		
			<linearGradient id="SVGID_00000176024068502268356430000000976730448851727491_" gradientUnits="userSpaceOnUse" x1="540.0002" y1="146.9651" x2="540.0002" y2="931.1669">
			<stop  offset="0" style="stop-color:#FFD026"/>
			<stop  offset="0.4271" style="stop-color:#F8BC23"/>
			<stop  offset="1" style="stop-color:#ED9A1D"/>
		</linearGradient>
		<circle style="fill:url(#SVGID_00000176024068502268356430000000976730448851727491_);" cx="540" cy="540" r="391.4"/>
		<path class="st3" d="M866.7,816.7c-161.6,207.5-486.5,211.5-650.7-1.2C394.3,1008,689.3,1007,866.7,816.7z"/>
	</g>
	<g>
		<path class="st4" d="M831.1,663.3L831.1,663.3c-7.8-78.1-35.1-154.6-81.9-221.6c-2.7-3.9-2.3-9.3,1.1-12.7l2.2-2.2
			c3.9-3.9,3.9-10.1,0-14l-19.1-19.1l1.4-1.4c14.4-14.4,14.4-37.8,0-52.2l0,0c-14.4-14.4-37.8-14.4-52.2,0l-1.4,1.4L662,322.4
			c-3.9-3.9-10.1-3.9-14,0l-2.2,2.2c-3.4,3.4-8.7,3.9-12.7,1.1c-67-46.9-143.5-74.2-221.6-82c-14.8-1.5-20.3,19-6.7,25.2
			c42.9,19.5,101.2,53.4,169.6,112c4.4,3.8,4.6,10.4,0.5,14.5c-3.9,3.9-3.9,10.1,0,14l19.1,19.1L283,739.6
			c-14.4,14.4-14.4,37.8,0,52.2l0,0c14.4,14.4,37.8,14.4,52.2,0l311.1-311.1l19.1,19.1c3.9,3.9,10.1,3.9,14,0
			c4.1-4.1,10.8-3.8,14.5,0.5c58.6,68.4,92.5,126.7,112,169.6C812.1,683.6,832.6,678.1,831.1,663.3z"/>
		
			<linearGradient id="SVGID_00000031916754146845283890000009227978208673545633_" gradientUnits="userSpaceOnUse" x1="551.6951" y1="228.1867" x2="551.6951" y2="785.4993">
			<stop  offset="0" style="stop-color:#FFEEB3"/>
			<stop  offset="0.4554" style="stop-color:#FFE279"/>
			<stop  offset="0.9874" style="stop-color:#FFD438"/>
		</linearGradient>
		<path style="fill:url(#SVGID_00000031916754146845283890000009227978208673545633_);" d="M831.1,647.8L831.1,647.8
			c-7.8-78.1-35.1-154.6-81.9-221.6c-2.7-3.9-2.3-9.3,1.1-12.7l2.2-2.2c3.9-3.9,3.9-10.1,0-14l-19.1-19.1l1.4-1.4
			c14.4-14.4,14.4-37.8,0-52.2l0,0c-14.4-14.4-37.8-14.4-52.2,0l-1.4,1.4L662,306.9c-3.9-3.9-10.1-3.9-14,0l-2.2,2.2
			c-3.4,3.4-8.7,3.9-12.7,1.1c-67-46.9-143.5-74.2-221.6-82c-14.8-1.5-20.3,19-6.7,25.2c42.9,19.5,101.2,53.4,169.6,112
			c4.4,3.8,4.6,10.4,0.5,14.5c-3.9,3.9-3.9,10.1,0,14l19.1,19.1L283,724.1c-14.4,14.4-14.4,37.8,0,52.2h0
			c14.4,14.4,37.8,14.4,52.2,0l311.1-311.1l19.1,19.1c3.9,3.9,10.1,3.9,14,0c4.1-4.1,10.8-3.8,14.5,0.5
			c58.6,68.4,92.5,126.7,112,169.6C812.1,668.1,832.6,662.6,831.1,647.8z"/>
	</g>
</g>
<g class="st6">
	<g class="st7">
		
			<linearGradient id="SVGID_00000132053237152556839950000002603495662749160074_" gradientUnits="userSpaceOnUse" x1="-1420.6154" y1="-23.415" x2="-1420.6154" y2="1036.2084">
			<stop  offset="0" style="stop-color:#FFFFFF"/>
			<stop  offset="0.4715" style="stop-color:#E0B993"/>
			<stop  offset="1" style="stop-color:#BF6E1D"/>
		</linearGradient>
		<circle style="fill:url(#SVGID_00000132053237152556839950000002603495662749160074_);" cx="-1420.6" cy="507.7" r="528.9"/>
		
			<linearGradient id="SVGID_00000154395524549132659110000008247993212493957300_" gradientUnits="userSpaceOnUse" x1="-1420.6154" y1="-3.7194" x2="-1420.6154" y2="1002.8021">
			<stop  offset="0" style="stop-color:#FADB8A"/>
			<stop  offset="0.8167" style="stop-color:#EBB036"/>
			<stop  offset="1" style="stop-color:#E8A623"/>
		</linearGradient>
		<circle style="fill:url(#SVGID_00000154395524549132659110000008247993212493957300_);" cx="-1420.6" cy="507.7" r="510.1"/>
		
			<linearGradient id="SVGID_00000106860858805422418860000015074635596470560432_" gradientUnits="userSpaceOnUse" x1="-1558.1874" y1="88.6143" x2="-1284.0955" y2="88.6143">
			<stop  offset="0" style="stop-color:#F9D884"/>
			<stop  offset="0.503" style="stop-color:#FFFFFF"/>
			<stop  offset="0.6069" style="stop-color:#FDF3D8"/>
			<stop  offset="0.7203" style="stop-color:#FBE8B4"/>
			<stop  offset="0.827" style="stop-color:#FAE09B"/>
			<stop  offset="0.9233" style="stop-color:#F9DB8B"/>
			<stop  offset="1" style="stop-color:#F9D986"/>
		</linearGradient>
		<path style="fill:url(#SVGID_00000106860858805422418860000015074635596470560432_);" d="M-1545.3,179.7h249.3l16.8-162.2
			c-44.9-12.9-92.3-20-141.4-20c-49.1,0-96.5,7.1-141.4,20L-1545.3,179.7z"/>
		
			<linearGradient id="SVGID_00000008861935849085002910000018430878985849813680_" gradientUnits="userSpaceOnUse" x1="-1420.6154" y1="79.2055" x2="-1420.6154" y2="934.0756">
			<stop  offset="0" style="stop-color:#E8A623"/>
			<stop  offset="0.1833" style="stop-color:#EBB036"/>
			<stop  offset="1" style="stop-color:#FADB8A"/>
		</linearGradient>
		<circle style="fill:url(#SVGID_00000008861935849085002910000018430878985849813680_);" cx="-1420.6" cy="507.7" r="426.7"/>
		<path class="st12" d="M-1651.4,148.7c134.2-99.6,329.1-100.3,464.3,1.8C-1334.6,67.4-1504.5,67.4-1651.4,148.7z"/>
		
			<linearGradient id="SVGID_00000109011891910058002950000013824454949700446082_" gradientUnits="userSpaceOnUse" x1="-1420.6152" y1="114.6238" x2="-1420.6152" y2="898.8256">
			<stop  offset="0" style="stop-color:#FFD026"/>
			<stop  offset="0.4271" style="stop-color:#F8BC23"/>
			<stop  offset="1" style="stop-color:#ED9A1D"/>
		</linearGradient>
		<circle style="fill:url(#SVGID_00000109011891910058002950000013824454949700446082_);" cx="-1420.6" cy="507.7" r="391.4"/>
		<path class="st3" d="M-1093.9,784.4c-161.6,207.5-486.5,211.5-650.7-1.2C-1566.3,975.7-1271.4,974.7-1093.9,784.4z"/>
	</g>
	<g class="st7">
		<path class="st4" d="M-1129.5,630.9L-1129.5,630.9c-7.8-78.1-35.1-154.6-81.9-221.6c-2.7-3.9-2.3-9.3,1.1-12.7l2.2-2.2
			c3.9-3.9,3.9-10.1,0-14l-19.1-19.1l1.4-1.4c14.4-14.4,14.4-37.8,0-52.2l0,0c-14.4-14.4-37.8-14.4-52.2,0l-1.4,1.4l-19.1-19.1
			c-3.9-3.9-10.1-3.9-14,0l-2.2,2.2c-3.4,3.4-8.7,3.9-12.7,1.1c-67-46.9-143.5-74.2-221.6-82c-14.8-1.5-20.3,19-6.7,25.2
			c42.9,19.5,101.2,53.4,169.6,112c4.4,3.8,4.6,10.4,0.5,14.5c-3.9,3.9-3.9,10.1,0,14l19.1,19.1l-311.1,311.1
			c-14.4,14.4-14.4,37.8,0,52.2v0c14.4,14.4,37.8,14.4,52.2,0l311.1-311.1l19.1,19.1c3.9,3.9,10.1,3.9,14,0
			c4.1-4.1,10.8-3.8,14.5,0.5c58.6,68.4,92.5,126.7,112,169.6C-1148.5,651.3-1128.1,645.8-1129.5,630.9z"/>
		
			<linearGradient id="SVGID_00000173873493611225999120000010256159125781060276_" gradientUnits="userSpaceOnUse" x1="-1408.9203" y1="195.8454" x2="-1408.9203" y2="753.158">
			<stop  offset="0" style="stop-color:#FFEEB3"/>
			<stop  offset="0.4554" style="stop-color:#FFE279"/>
			<stop  offset="0.9874" style="stop-color:#FFD438"/>
		</linearGradient>
		<path style="fill:url(#SVGID_00000173873493611225999120000010256159125781060276_);" d="M-1129.5,615.4L-1129.5,615.4
			c-7.8-78.1-35.1-154.6-81.9-221.6c-2.7-3.9-2.3-9.3,1.1-12.7l2.2-2.2c3.9-3.9,3.9-10.1,0-14l-19.1-19.1l1.4-1.4
			c14.4-14.4,14.4-37.8,0-52.2l0,0c-14.4-14.4-37.8-14.4-52.2,0l-1.4,1.4l-19.1-19.1c-3.9-3.9-10.1-3.9-14,0l-2.2,2.2
			c-3.4,3.4-8.7,3.9-12.7,1.1c-67-46.9-143.5-74.2-221.6-82c-14.8-1.5-20.3,19-6.7,25.2c42.9,19.5,101.2,53.4,169.6,112
			c4.4,3.8,4.6,10.4,0.5,14.5c-3.9,3.9-3.9,10.1,0,14l19.1,19.1l-311.1,311.1c-14.4,14.4-14.4,37.8,0,52.2l0,0
			c14.4,14.4,37.8,14.4,52.2,0l311.1-311.1l19.1,19.1c3.9,3.9,10.1,3.9,14,0c4.1-4.1,10.8-3.8,14.5,0.5
			c58.6,68.4,92.5,126.7,112,169.6C-1148.5,635.7-1128.1,630.3-1129.5,615.4z"/>
	</g>
</g>
</svg>
