<svg xmlns="http://www.w3.org/2000/svg" width="30" height="30"><defs><linearGradient id="a" x1="0%" x2="90.823%" y1="23.898%" y2="30.053%"><stop offset="0%" stop-color="#2167EC"/><stop offset="100%" stop-color="#1457D8"/></linearGradient></defs><g fill="none" fill-rule="evenodd"><circle cx="15" cy="15" r="15" fill="url(#a)"/><path fill="#FFF" fill-rule="nonzero" d="M15 6.75c4.1 0 7.433 3.211 7.499 7.197l.001.122v7.93l-6.445 1.251v-3.473l.001-.075c.044-2.049 1.868-3.703 4.13-3.747l.092-.001v-1.912l-.414-.075a27 27 0 0 0-9.364-.063l-.273.048-.505.09v1.912h.088c2.232.042 4.04 1.653 4.13 3.664l.004.084v3.546L7.5 21.998v-7.93l.001-.12C7.567 9.96 10.899 6.75 15 6.75"/></g></svg>