<svg xmlns="http://www.w3.org/2000/svg" width="7119" height="7119" fill="none"><path fill="#fff" stroke="#37166E" stroke-miterlimit="10" stroke-width="2" d="M3559.5 6480.01c1612.95 0 2920.51-1307.56 2920.51-2920.51 0-1612.96-1307.56-2920.516-2920.51-2920.516-1612.96 0-2920.516 1307.556-2920.516 2920.516 0 1612.95 1307.556 2920.51 2920.516 2920.51Z"/><path fill="#000636" d="M2785.27 2134.52v-5.88c-3.92 3.92-3.92 3.92 0 5.88"/><path fill="url(#a)" d="M3079.28 2650.03s-525.3-82.33-625.26-527.26v2871.51c101.92-442.98 625.26-525.3 625.26-525.3 441.02-86.25 629.18 70.56 629.18 70.56V2579.46c0 1.96-188.16 158.77-629.18 70.57"/><path fill="url(#b)" d="M3941.71 2512.82s-605.66-96.04-721.3-607.62v3308.61c115.64-511.58 721.3-607.63 721.3-607.63 507.66-98 725.23 82.32 725.23 82.32v-2258s-219.53 180.32-725.23 82.32"/><defs><linearGradient id="a" x1="3721.31" x2="1967.23" y1="3559.5" y2="3559.5" gradientUnits="userSpaceOnUse"><stop stop-color="#030636"/><stop offset="1" stop-color="#6D02C2"/></linearGradient><linearGradient id="b" x1="4660.82" x2="2410.93" y1="3559.5" y2="3559.5" gradientUnits="userSpaceOnUse"><stop stop-color="#030636"/><stop offset="1" stop-color="#6D02C2"/></linearGradient></defs></svg>