<svg xmlns="http://www.w3.org/2000/svg" xml:space="preserve" style="fill-rule:evenodd;clip-rule:evenodd;stroke-linecap:square;stroke-miterlimit:1.5" viewBox="0 0 1900 1900"><path d="M0 0h1899.05v1899.05H0z" style="fill:none"/><circle cx="949.525" cy="949.525" r="926.936" style="fill:#121212;stroke:#bfb09e;stroke-width:6.25px"/><path d="M1253.74 746.297c61.353-19.858 106.239-78.914 106.239-146.38 0-83.126-67.513-150.355-150.64-150.355-47.925 0-126.809 47.672-194.192 86.934-61.355 35.751-113.729 63.421-113.729 63.421l-289.096 45.574c-18.441-15.62-18.409-35.202-18.583-46.353-.178-11.255 3.698-24.963 14.155-38.135 25.709-32.386 439.105-289.536 588.843-298.582 193.048-11.662 344.518 149.945 344.518 337.77 0 133.477-76.015 251.983-187.345 306.326z" style="fill:#b6a086"/><path d="M690.718 971.648c-83.129 0-151.274-70.358-151.274-153.485s67.514-150.356 150.64-150.356c47.925 0 126.809 47.671 194.192 86.933 61.355 35.752 113.728 63.423 113.728 63.423l307.68-.781c.178-11.254-3.698-24.962-14.155-38.135-25.709-32.384-439.105-289.536-588.843-298.582-193.048-11.662-344.518 149.945-344.518 337.772 0 150.459 96.592 281.886 231.475 323.856z" style="fill:#f9f5f2;stroke:#f9f5f2;stroke-width:16.67px;stroke-linecap:butt;stroke-linejoin:round;stroke-miterlimit:2"/><path d="M1114.14 1375.44c34.789 11.268 66.695 18.384 93.679 19.6 187.634 8.515 335.123-150.569 335.123-338.395s-148.435-348.526-341.482-336.863c-149.738 9.045-563.135 266.197-588.843 298.581-10.458 13.173-14.333 26.881-14.156 38.135.142 9.001.147 23.495 9.843 36.966 2.316 3.216 94.145-5.256 137.582-7.37l160.255-28.815s52.387-31.748 113.743-67.499c67.383-39.262 133.725-85.141 194.178-82.857 83.067 3.14 150.64 67.229 150.64 150.356s-68.146 153.485-151.274 153.485c-16.81 0-37.2-5.654-59.488-14.729z" style="fill:#5a5652;stroke:#5a5652;stroke-width:16.67px;stroke-linecap:butt;stroke-linejoin:round;stroke-miterlimit:2"/><path d="M1303.62 1298.35c.177-11.255-3.698-24.962-14.156-38.135-25.709-32.385-439.106-289.536-588.843-298.581-193.048-11.663-344.517 149.944-344.517 337.77s150.524 346.003 338.158 337.488c174.998-7.927 556.959-263.545 590.774-292.189 18.44-15.62 18.409-35.202 18.584-46.353m-307.68.78s-52.374-27.67-113.729-63.422c-67.383-39.262-146.268-86.934-194.192-86.934-83.126 0-150.641 67.23-150.641 150.356 0 83.128 68.147 153.486 151.274 153.486 48.422 0 126.544-46.91 194.146-87.36 60.226-36.036 113.142-66.126 113.142-66.126" style="fill:#b6a086"/></svg>