<svg xmlns="http://www.w3.org/2000/svg" xml:space="preserve" id="Layer_1" x="0" y="0" version="1.1" viewBox="0 0 2500 2500"><style>.st1{fill:#fff}</style><g id="Layer_x0020_1"><g id="_2188286487584"><path d="M1250 0c688 0 1250 563 1250 1250 0 688-563 1250-1250 1250C562 2500 0 1937 0 1250 0 562 563 0 1250 0" style="fill-rule:evenodd;clip-rule:evenodd;fill:#dc2626"/><path d="m1995 1226-225-76c-83-28-144-97-161-182l-95-466c-3-12-13-20-25-20s-23 9-25 20l-95 466c-17 85-79 154-161 182l-225 76c-10 3-17 13-17 24s7 21 17 24l225 76c83 28 144 97 161 182l95 466c3 12 13 20 25 20s23-9 25-20l95-466c17-85 79-154 161-182l225-76c10-3 17-13 17-24s-7-21-17-24M788 799l79 27c29 10 51 34 57 64l33 164c1 4 4 7 9 7 4 0 8-3 9-7l33-164c6-30 28-54 57-64l79-27c3-1 6-5 6-9s-3-7-6-9l-79-27c-29-10-51-34-57-64l-33-164c-1-4-4-7-9-7-4 0-8 3-9 7l-33 164c-6 30-28 54-57 64l-79 27c-3 1-6 5-6 9s3 7 6 9M973 1607l-106-36c-39-13-68-46-76-86l-45-220c-1-6-6-10-12-10s-11 4-12 10l-45 220c-8 40-37 73-76 86l-106 36c-5 2-8 6-8 11s3 10 8 11l106 36c39 13 68 46 76 86l45 220c1 6 6 9 12 9s11-4 12-9l45-220c8-40 37-73 76-86l106-36c5-2 8-6 8-11s-3-10-8-11" class="st1"/></g></g></svg>