<svg xmlns="http://www.w3.org/2000/svg" width="512" height="512" fill="none"><circle cx="256" cy="256" r="256" fill="#00226B"/><circle cx="255.999" cy="256.316" r="249.679" fill="url(#a)"/><circle cx="255.685" cy="255.998" r="237.037" fill="url(#b)"/><circle cx="256.001" cy="256.318" r="230.716" fill="#fff"/><path fill="#D9D9D9" fill-rule="evenodd" d="M371.201 228.821c-3.783 0-7.479-.437-11.056-1.272a62 62 0 0 0 11.056 1.272M151.858 227.549a48.6 48.6 0 0 1-11.057 1.272 62 62 0 0 0 11.057-1.272" clip-rule="evenodd"/><path fill="#36C2F1" d="M140.801 228.821c-31.506 0-57.047-30.351-57.047-67.792s25.541-67.793 57.047-67.793 57.047 30.352 57.047 67.793c0 32.945-19.776 60.402-45.99 66.52 43.157-8.988 71.449-63.883 53.891-134.313-5.871-23.102-11.088-35.202-22.439-55.95C91.506 67.738 25.285 154.295 25.285 256.318c0 10.995.77 21.81 2.257 32.395 38.04-43.931 82.128-52.465 113.259-59.892M428.248 161.029c0 37.441-25.541 67.792-57.047 67.792 31.131 7.427 75.22 15.961 113.26 59.892a233 233 0 0 0 2.256-32.395c0-102.023-66.221-188.58-158.024-219.032-11.352 20.748-16.568 32.848-22.44 55.95-17.557 70.43 10.734 125.325 53.892 134.313-26.215-6.118-45.991-33.575-45.991-66.52 0-37.441 25.541-67.793 57.047-67.793s57.047 30.352 57.047 67.793"/><path fill="#0D0D17" d="M83.754 161.029c0 37.441 25.541 67.792 57.047 67.792a62 62 0 0 0 11.057-1.272c26.214-6.118 45.99-33.575 45.99-66.52 0-37.441-25.541-67.793-57.047-67.793s-57.047 30.352-57.047 67.793M371.201 228.821c31.506 0 57.047-30.351 57.047-67.792s-25.541-67.793-57.047-67.793-57.047 30.352-57.047 67.793c0 32.945 19.776 60.402 45.991 66.52a62 62 0 0 0 11.056 1.272"/><ellipse cx="140.013" cy="128.316" fill="#fff" rx="33.185" ry="28.128"/><circle cx="100.665" cy="132.899" r="4.267" fill="#fff"/><ellipse cx="111.725" cy="154.232" fill="#fff" rx="3.002" ry="2.528"/><ellipse cx="177.148" cy="134.319" fill="#fff" rx="1.738" ry="1.58"/><circle cx="146.649" cy="196.266" r="10.114" fill="#fff"/><ellipse cx="122.157" cy="191.843" fill="#fff" rx="4.583" ry="4.425"/><ellipse cx="137.01" cy="211.91" fill="#fff" rx="7.111" ry="5.215"/><ellipse cx="371.677" cy="127.999" fill="#fff" rx="33.185" ry="28.128"/><circle cx="411.341" cy="133.212" r="4.267" fill="#fff"/><ellipse cx="399.963" cy="154.232" fill="#fff" rx="3.002" ry="2.528"/><ellipse cx="334.859" cy="134.319" fill="#fff" rx="1.738" ry="1.58"/><circle cx="379.895" cy="196.582" r="10.114" fill="#fff"/><ellipse cx="353.821" cy="191.843" fill="#fff" rx="4.583" ry="4.425"/><ellipse cx="371.517" cy="212.227" fill="#fff" rx="7.111" ry="5.215"/><path fill="#97C1D2" d="m112.199 286.182 7.585-7.111.949-1.106c-.258.613-.386.963-.23 1.824.072.389 1.02 1.18 4.338 3.707s29.235 16.435 50.884 20.859c18.103 2.621 26.78 2.128 41.087-.316 13.401-3.231 19.762-6.343 30.024-13.116.474-.632-.316-1.264.316-1.106l3.319.316v3.16l-2.213 12.642-8.533 9.324-18.015 8.375h-34.607l-30.499-6.005-18.331-7.901-15.96-11.22-7.901-9.007zM399.645 286.182l-7.586-7.111-.948-1.106c.258.613.386.963.23 1.824-.072.389-1.02 1.18-4.338 3.707s-29.235 16.435-50.884 20.859c-18.103 2.621-26.78 2.128-41.087-.316-13.401-3.231-19.763-6.343-30.024-13.116-.475-.632.316-1.264-.317-1.106l-3.318.316v3.16l2.212 12.642 8.534 9.324 18.014 8.375h34.608l30.499-6.005 18.33-7.901 15.961-11.22 7.901-9.007z"/><path fill="#D9D9D9" fill-opacity=".51" fill-rule="evenodd" d="M231.031 284.834a203 203 0 0 0 5.553 2.242 65 65 0 0 1-5.553-2.242M280.972 284.834a206 206 0 0 1-5.553 2.242 65 65 0 0 0 5.553-2.242" clip-rule="evenodd"/><path fill="#0D0D17" d="M103.668 292.819c4.425 15.328 15.96 40.296 22.439 53.096 24.654 51.311 68.036 109.332 125.457 109.353 3.427.143 5.396.187 8.859 0 57.418-.025 100.819-58.044 125.472-109.353 6.479-12.8 18.015-37.768 22.439-53.096l.038-.088c.438-1.026.488-1.142 2.333.088 3.424 2.277 10.596 7.427 12.8 7.111 1.747-.474 2.923-1.337 3.318-2.054.474-.86.633-2.529.486-3.635-.217-1.682-3.957-8.691-9.651-13.59-10.425-8.85-17.22-10.43-22.593-10.272-4.108 0-5.846 3.161-5.688 5.215.065.445.158.948.474 1.264 1.58 2.371 4.424 4.899 7.743 8.218.424.516.652.811.632 1.58-.085.564-.319 1.017-1.264 2.212a66 66 0 0 1-1.897 2.212c-3.787 4.024-6.124 6.293-11.693 10.43-6.803 4.69-10.789 6.874-18.015 10.114-9.181 3.951-14.629 5.496-24.652 7.743-13.295 2.129-21.037 2.91-35.714 2.686-19.595-1.58-27.022-5.056-33.501-10.113-5.531-4.583-7.743-12.168-8.375-19.911.12-.452.238-.699.79-1.107.872-.609 1.419-.936 3.16-1.264 2.806-.638 5.132-1.351 8.354-2.582a206 206 0 0 0 5.553-2.242c21.774-9.977 36.661-32.795 36.661-48.43 0-21.121-27.423-36.662-61.634-36.662a111 111 0 0 0-6.325.18c-31.203 1.785-55.305 16.681-55.305 36.482 0 15.635 14.888 38.453 36.662 48.43a203 203 0 0 0 5.553 2.242c3.221 1.231 5.548 1.944 8.353 2.582.966.182 1.564.363 2.054.593.394.185.718.4 1.106.671.552.408.671.655.791 1.107-.633 7.743-2.845 15.328-8.376 19.911-6.479 5.057-13.906 8.533-33.501 10.113-14.676.224-22.419-.557-35.714-2.686-10.023-2.247-15.47-3.792-24.651-7.743-7.227-3.24-11.212-5.424-18.015-10.114-5.57-4.137-7.907-6.406-11.694-10.43a65 65 0 0 1-1.896-2.212c-.946-1.195-1.18-1.648-1.265-2.212-.02-.769.208-1.064.633-1.58 2.108-2.109 4.025-3.899 5.548-5.531.874-.937 1.619-1.823 2.195-2.687.316-.316.409-.819.474-1.264.158-2.054-1.58-5.215-5.689-5.215-5.373-.158-12.168 1.422-22.593 10.272-5.693 4.899-9.433 11.908-9.65 13.59-.147 1.106.011 2.775.485 3.635.395.717 1.571 1.58 3.319 2.054 2.203.316 9.375-4.834 12.8-7.111 1.896-1.264 1.896-1.106 2.37 0"/><path fill="#F59393" d="M233.18 374.882c8.059.632 15.802 3.002 20.543 6.005.916.749 1.569 1.104 2.212 1.086v61.017c-22.755-.316-46.301-11.219-56.573-23.545-8.059-10.114-9.797-18.647-7.585-26.548 3.161-7.902 10.904-13.116 22.756-16.119 7.335-1.681 11.396-2.095 18.647-1.896M258.15 380.89c4.741-3.003 12.484-5.373 20.543-6.005 7.251-.199 11.312.215 18.647 1.896 11.852 3.003 19.595 8.217 22.756 16.119 2.212 7.901.474 16.434-7.586 26.548-10.271 12.326-33.817 23.229-56.572 23.546v-61.017c.643.017 1.296-.338 2.212-1.087"/><path fill="#0D0D17" d="M194.056 455.459c-.474 0-1.58.948-1.896 2.054 1.469 5.124 8.533 9.257 17.067 13.083 2.498 1.12 13.723 5.507 25.442 5.406 2.607.03 3.923-.301 6.163-1.264 1.58-.632 2.389-1.794 2.528-3.002.043-1.305-.198-1.859-1.422-2.529-18.894-2.702-28.713-5.281-41.403-12.01-3.49-1.364-5.149-1.919-6.479-1.738M317.951 455.459c.474 0 1.581.948 1.897 2.054-1.469 5.124-8.534 9.257-17.067 13.083-2.499 1.12-13.723 5.507-25.442 5.406-2.607.03-3.923-.301-6.163-1.264-1.58-.632-2.389-1.794-2.528-3.002-.043-1.305.198-1.859 1.422-2.529 18.894-2.702 28.713-5.281 41.402-12.01 3.491-1.364 5.15-1.919 6.479-1.738"/><path fill="#fff" d="M222.526 212.356c0-2.952 15.058-5.344 33.633-5.344s33.634 2.392 33.634 5.344c0 .458.315 1.328-1.264 1.444-8.334.614-17.053 3.01-18.474 3.299-10.983 1.716-17.031 1.726-27.791 0-1.421-.289-10.141-2.685-18.475-3.299-1.579-.116-1.263-.986-1.263-1.444M237.325 240.322c-1.061 2.957-5.872 3.936-10.744 2.187s-7.961-5.565-6.899-8.522 4.594.368 9.466 2.117c4.873 1.75 9.239 1.261 8.177 4.218M276.464 240.322c1.061 2.957 5.872 3.936 10.744 2.187s7.961-5.565 6.899-8.522-4.594.368-9.466 2.117-9.239 1.261-8.177 4.218"/><defs><linearGradient id="a" x1="255.999" x2="255.999" y1="6.637" y2="505.995" gradientUnits="userSpaceOnUse"><stop stop-color="#36C2F1"/><stop offset=".47" stop-color="#D9F5FF"/><stop offset="1" stop-color="#36C2F1"/></linearGradient><linearGradient id="b" x1="255.685" x2="255.685" y1="18.961" y2="493.035" gradientUnits="userSpaceOnUse"><stop stop-color="#01384A"/><stop offset=".495" stop-color="#00ABE6"/><stop offset="1" stop-color="#4F93AB"/></linearGradient></defs></svg>