<?xml version="1.0" encoding="UTF-8"?>
<!DOCTYPE svg PUBLIC "-//W3C//DTD SVG 1.1//EN" "http://www.w3.org/Graphics/SVG/1.1/DTD/svg11.dtd">
<svg xmlns="http://www.w3.org/2000/svg" version="1.1" width="200px" height="200px" style="shape-rendering:geometricPrecision; text-rendering:geometricPrecision; image-rendering:optimizeQuality; fill-rule:evenodd; clip-rule:evenodd" xmlns:xlink="http://www.w3.org/1999/xlink">
<g><path style="opacity:0.978" fill="#ffd389" d="M 87.5,-0.5 C 95.5,-0.5 103.5,-0.5 111.5,-0.5C 155.564,7.27057 184.064,32.6039 197,75.5C 197.189,79.7665 198.023,83.7665 199.5,87.5C 199.5,95.5 199.5,103.5 199.5,111.5C 191.737,155.563 166.403,184.063 123.5,197C 119.233,197.189 115.233,198.023 111.5,199.5C 103.5,199.5 95.5,199.5 87.5,199.5C 48.6767,193.421 21.51,172.421 6,136.5C 3.0636,128.221 0.89693,119.888 -0.5,111.5C -0.5,103.5 -0.5,95.5 -0.5,87.5C 5.57909,48.6697 26.5791,21.503 62.5,6C 70.7791,3.0636 79.1124,0.89693 87.5,-0.5 Z"/></g>
<g><path style="opacity:1" fill="#ff8968" d="M 140.5,24.5 C 125.221,17.8501 109.221,15.0167 92.5,16C 91.6159,17.7198 90.2825,18.8865 88.5,19.5C 80.342,20.4433 72.6753,22.7766 65.5,26.5C 65.84,24.321 66.84,22.4877 68.5,21C 64.3492,21.2267 61.0159,23.0601 58.5,26.5C 57.8333,25.1667 57.1667,23.8333 56.5,22.5C 56.5,22.1667 56.5,21.8333 56.5,21.5C 61.3265,20.0416 65.9932,18.0416 70.5,15.5C 70.9106,16.2624 71.0773,17.2624 71,18.5C 72.4907,16.9963 74.324,16.1629 76.5,16C 83.9139,14.3023 91.4139,13.1357 99,12.5C 109.252,13.1083 119.418,14.275 129.5,16C 132.305,17.9795 135.305,19.6461 138.5,21C 139.823,21.8159 140.489,22.9826 140.5,24.5 Z"/></g>
<g><path style="opacity:1" fill="#ffa379" d="M 140.5,24.5 C 140.5,25.1667 140.5,25.8333 140.5,26.5C 130.415,23.6066 120.082,21.4399 109.5,20C 103.167,19.3333 96.8333,19.3333 90.5,20C 89.9221,21.417 88.9221,22.2504 87.5,22.5C 87.5569,21.391 87.8902,20.391 88.5,19.5C 90.2825,18.8865 91.6159,17.7198 92.5,16C 109.221,15.0167 125.221,17.8501 140.5,24.5 Z"/></g>
<g><path style="opacity:1" fill="#ff9a79" d="M 88.5,19.5 C 87.8902,20.391 87.5569,21.391 87.5,22.5C 84.7547,28.325 81.7547,33.9916 78.5,39.5C 76.142,42.5459 74.142,45.8792 72.5,49.5C 65.4462,58.5836 59.1128,68.2503 53.5,78.5C 52.1767,74.5705 51.1767,70.5705 50.5,66.5C 48.8259,61.9649 47.9926,57.2983 48,52.5C 52.3584,46.4435 56.1918,40.1102 59.5,33.5C 61.4404,31.2178 63.4404,28.8845 65.5,26.5C 72.6753,22.7766 80.342,20.4433 88.5,19.5 Z"/></g>
<g><path style="opacity:1" fill="#ffaa6c" d="M 65.5,26.5 C 63.4404,28.8845 61.4404,31.2178 59.5,33.5C 58.6618,33.1583 58.3284,32.4916 58.5,31.5C 58.5,30.1667 58.5,28.8333 58.5,27.5C 58.5,27.1667 58.5,26.8333 58.5,26.5C 61.0159,23.0601 64.3492,21.2267 68.5,21C 66.84,22.4877 65.84,24.321 65.5,26.5 Z"/></g>
<g><path style="opacity:1" fill="#ffb88f" d="M 140.5,26.5 C 140.263,27.791 140.596,28.791 141.5,29.5C 141.517,31.5648 141.85,33.5648 142.5,35.5C 143.917,38.9981 144.583,42.6648 144.5,46.5C 145.024,48.3057 145.691,49.9724 146.5,51.5C 147.219,53.7638 147.552,56.0971 147.5,58.5C 134.026,45.6106 117.693,38.2773 98.5,36.5C 92.5737,37.44 86.7403,38.7733 81,40.5C 79.9302,40.472 79.0968,40.1386 78.5,39.5C 81.7547,33.9916 84.7547,28.325 87.5,22.5C 88.9221,22.2504 89.9221,21.417 90.5,20C 96.8333,19.3333 103.167,19.3333 109.5,20C 120.082,21.4399 130.415,23.6066 140.5,26.5 Z"/></g>
<g><path style="opacity:1" fill="#ffb084" d="M 58.5,27.5 C 58.5,28.8333 58.5,30.1667 58.5,31.5C 46.2972,37.8675 36.7972,47.2009 30,59.5C 20.7873,76.0248 17.454,93.6915 20,112.5C 20.8076,117.097 22.6409,117.93 25.5,115C 24.6634,113.989 24.33,112.822 24.5,111.5C 26.9115,111.863 28.4115,110.863 29,108.5C 29.5288,110.585 29.0288,112.418 27.5,114C 29.2585,118.172 31.0919,118.338 33,114.5C 33.1667,114.833 33.3333,115.167 33.5,115.5C 30.8688,118.896 28.7021,122.562 27,126.5C 26.3333,129.167 26.3333,131.833 27,134.5C 28.6171,133.149 29.7838,131.482 30.5,129.5C 30.8333,129.667 31.1667,129.833 31.5,130C 30.9186,130.893 30.5852,131.893 30.5,133C 31.0471,135.217 32.0471,137.217 33.5,139C 32.1088,141.838 32.6088,144.338 35,146.5C 35.3333,145.833 35.6667,145.167 36,144.5C 37.442,147.468 39.6087,148.635 42.5,148C 41.9781,148.561 41.6448,149.228 41.5,150C 43.0735,153.073 44.9068,153.573 47,151.5C 46.092,154.369 46.9253,156.702 49.5,158.5C 48.8333,159.5 48.1667,160.5 47.5,161.5C 46.5,161.5 45.5,161.5 44.5,161.5C 44.7704,158.143 44.1037,155.809 42.5,154.5C 40.0576,154.646 39.3909,153.813 40.5,152C 36.464,151.486 33.7973,149.32 32.5,145.5C 31.675,144.614 30.675,144.281 29.5,144.5C 27.7858,140.913 25.9525,137.247 24,133.5C 22.9695,129.227 22.3028,124.894 22,120.5C 21.6667,120.833 21.3333,121.167 21,121.5C 17.5839,114.754 16.0839,107.587 16.5,100C 16.6667,96.8333 16.8333,93.6667 17,90.5C 18.7059,82.3431 20.7059,74.3431 23,66.5C 25.2939,61.0576 28.6272,56.3909 33,52.5C 33.4935,50.8659 33.6602,49.1992 33.5,47.5C 33.5,46.5 33.5,45.5 33.5,44.5C 37.8358,44.8519 40.3358,42.8519 41,38.5C 46.2329,33.7451 52.0663,30.0785 58.5,27.5 Z"/></g>
<g><path style="opacity:1" fill="#ffbd92" d="M 58.5,31.5 C 58.3284,32.4916 58.6618,33.1583 59.5,33.5C 56.1918,40.1102 52.3584,46.4435 48,52.5C 47.9926,57.2983 48.8259,61.9649 50.5,66.5C 48.3994,69.248 46.5661,72.248 45,75.5C 44.1341,79.2643 42.9674,82.931 41.5,86.5C 42.5,86.5 43.5,86.5 44.5,86.5C 43.289,88.4219 41.9557,90.2552 40.5,92C 42.0581,92.21 43.3915,92.71 44.5,93.5C 41.6946,94.3195 38.6946,94.8195 35.5,95C 33.4407,96.1855 33.274,97.3521 35,98.5C 38.8408,97.7914 42.6742,97.1248 46.5,96.5C 46.9916,100.457 46.3249,104.123 44.5,107.5C 45.2472,107.736 46.0805,108.07 47,108.5C 47.3333,109.833 47.6667,111.167 48,112.5C 48.7175,111.549 49.5509,111.383 50.5,112C 48.4252,115.143 49.0919,117.976 52.5,120.5C 49.9941,123.777 49.9941,126.944 52.5,130C 51.9781,130.561 51.6448,131.228 51.5,132C 53.2758,133.706 54.9425,135.539 56.5,137.5C 56.1667,138.167 55.8333,138.833 55.5,139.5C 56.5244,140.852 57.5244,142.185 58.5,143.5C 58.1075,145.284 57.4408,146.95 56.5,148.5C 54.1667,151.833 51.8333,155.167 49.5,158.5C 46.9253,156.702 46.092,154.369 47,151.5C 44.9068,153.573 43.0735,153.073 41.5,150C 41.6448,149.228 41.9781,148.561 42.5,148C 39.6087,148.635 37.442,147.468 36,144.5C 35.6667,145.167 35.3333,145.833 35,146.5C 32.6088,144.338 32.1088,141.838 33.5,139C 32.0471,137.217 31.0471,135.217 30.5,133C 30.5852,131.893 30.9186,130.893 31.5,130C 31.1667,129.833 30.8333,129.667 30.5,129.5C 29.7838,131.482 28.6171,133.149 27,134.5C 26.3333,131.833 26.3333,129.167 27,126.5C 28.7021,122.562 30.8688,118.896 33.5,115.5C 33.3333,115.167 33.1667,114.833 33,114.5C 31.0919,118.338 29.2585,118.172 27.5,114C 29.0288,112.418 29.5288,110.585 29,108.5C 28.4115,110.863 26.9115,111.863 24.5,111.5C 24.33,112.822 24.6634,113.989 25.5,115C 22.6409,117.93 20.8076,117.097 20,112.5C 17.454,93.6915 20.7873,76.0248 30,59.5C 36.7972,47.2009 46.2972,37.8675 58.5,31.5 Z"/></g>
<g><path style="opacity:1" fill="#feb192" d="M 147.5,58.5 C 148.833,63.8333 150.167,69.1667 151.5,74.5C 147.53,69.6851 143.697,64.6851 140,59.5C 132.025,52.5533 122.859,47.72 112.5,45C 108.848,44.5014 105.182,44.3347 101.5,44.5C 100.5,43.8333 99.5,43.1667 98.5,42.5C 92.626,44.0795 86.626,45.2462 80.5,46C 77.7627,47.0764 75.096,48.243 72.5,49.5C 74.142,45.8792 76.142,42.5459 78.5,39.5C 79.0968,40.1386 79.9302,40.472 81,40.5C 86.7403,38.7733 92.5737,37.44 98.5,36.5C 117.693,38.2773 134.026,45.6106 147.5,58.5 Z"/></g>
<g><path style="opacity:1" fill="#ff6e60" d="M 153.5,26.5 C 152.475,26.8966 152.308,27.5632 153,28.5C 155.878,30.5892 158.545,32.9225 161,35.5C 164.118,39.4422 166.951,43.4422 169.5,47.5C 164.962,46.1405 162.129,43.1405 161,38.5C 159.075,37.1196 157.241,35.6196 155.5,34C 151.854,31.6976 148.187,29.3643 144.5,27C 143.207,26.51 141.873,26.3433 140.5,26.5C 140.5,25.8333 140.5,25.1667 140.5,24.5C 140.489,22.9826 139.823,21.8159 138.5,21C 135.305,19.6461 132.305,17.9795 129.5,16C 119.418,14.275 109.252,13.1083 99,12.5C 91.4139,13.1357 83.9139,14.3023 76.5,16C 74.324,16.1629 72.4907,16.9963 71,18.5C 71.0773,17.2624 70.9106,16.2624 70.5,15.5C 65.9932,18.0416 61.3265,20.0416 56.5,21.5C 56.5,20.8333 56.5,20.1667 56.5,19.5C 73.5103,9.93254 91.8436,6.43254 111.5,9C 127.126,11.2548 141.126,17.0881 153.5,26.5 Z"/></g>
<g><path style="opacity:1" fill="#fefdfe" d="M 98.5,42.5 C 99.5,43.1667 100.5,43.8333 101.5,44.5C 102.011,47.0215 103.011,49.3549 104.5,51.5C 108.154,57.4673 111.82,63.4673 115.5,69.5C 119.985,77.6439 124.652,85.6439 129.5,93.5C 130.608,95.7815 131.942,97.9481 133.5,100C 122.843,106.663 112.176,113.33 101.5,120C 99.6226,120.576 97.7892,120.409 96,119.5C 89.7816,114.819 83.2816,110.819 76.5,107.5C 74.4099,105.61 72.0765,103.943 69.5,102.5C 68.3112,101.571 66.9778,101.238 65.5,101.5C 66.8333,98.5 68.1667,95.5 69.5,92.5C 75.0019,84.168 80.0019,75.5014 84.5,66.5C 86.4364,63.5437 88.4364,60.5437 90.5,57.5C 91.5294,55.4832 92.5294,53.4832 93.5,51.5C 95.9445,48.9925 97.6112,45.9925 98.5,42.5 Z"/></g>
<g><path style="opacity:1" fill="#ffa68d" d="M 172.5,75.5 C 172.5,76.1667 172.5,76.8333 172.5,77.5C 167.774,83.2954 163.774,89.6287 160.5,96.5C 159.624,96.6309 158.957,96.2975 158.5,95.5C 162.118,91.1176 162.118,87.4509 158.5,84.5C 159.818,82.0878 159.651,79.7544 158,77.5C 155.016,79.7073 154.85,79.2073 157.5,76C 155.959,73.0844 154.293,70.2511 152.5,67.5C 151.848,60.8798 150.181,54.5465 147.5,48.5C 146.614,49.325 146.281,50.325 146.5,51.5C 145.691,49.9724 145.024,48.3057 144.5,46.5C 150.127,44.1837 154.627,45.517 158,50.5C 161.031,55.1873 164.031,59.8539 167,64.5C 168.399,65.2266 169.899,65.7266 171.5,66C 168.908,69.4172 169.241,72.5839 172.5,75.5 Z"/></g>
<g><path style="opacity:1" fill="#ffa792" d="M 98.5,42.5 C 97.6112,45.9925 95.9445,48.9925 93.5,51.5C 89.0903,53.5286 84.4236,54.6953 79.5,55C 76.8742,57.1457 73.8742,58.479 70.5,59C 68.5968,60.4473 66.9301,62.114 65.5,64C 67.0347,67.0063 67.5347,70.173 67,73.5C 63.3859,80.6839 59.2192,87.5172 54.5,94C 55.448,94.4828 56.448,94.6495 57.5,94.5C 58.0355,98.819 58.5355,103.152 59,107.5C 59.8113,106.04 60.6446,105.707 61.5,106.5C 57.6344,110.325 56.8011,114.658 59,119.5C 59.8113,118.04 60.6446,117.707 61.5,118.5C 58.6653,121.32 58.9987,123.653 62.5,125.5C 61.8902,126.391 61.5569,127.391 61.5,128.5C 56.8552,129.176 55.8552,127.509 58.5,123.5C 58.3333,123.167 58.1667,122.833 58,122.5C 55.5768,125.206 54.4102,124.539 54.5,120.5C 55.4908,114.384 54.8241,108.051 52.5,101.5C 52.4877,99.5879 52.821,97.5879 53.5,95.5C 53.3333,95.1667 53.1667,94.8333 53,94.5C 50.723,95.1172 48.5563,95.7839 46.5,96.5C 42.6742,97.1248 38.8408,97.7914 35,98.5C 33.274,97.3521 33.4407,96.1855 35.5,95C 38.6946,94.8195 41.6946,94.3195 44.5,93.5C 45.552,93.6495 46.552,93.4828 47.5,93C 50.2055,89.758 52.5388,86.258 54.5,82.5C 53.7542,81.2638 53.4208,79.9305 53.5,78.5C 59.1128,68.2503 65.4462,58.5836 72.5,49.5C 75.096,48.243 77.7627,47.0764 80.5,46C 86.626,45.2462 92.626,44.0795 98.5,42.5 Z"/></g>
<g><path style="opacity:1" fill="#ffa792" d="M 101.5,44.5 C 105.182,44.3347 108.848,44.5014 112.5,45C 122.859,47.72 132.025,52.5533 140,59.5C 143.697,64.6851 147.53,69.6851 151.5,74.5C 152.092,77.1272 152.425,79.7938 152.5,82.5C 150.052,83.4731 147.385,83.8064 144.5,83.5C 142.577,76.9406 139.244,71.1073 134.5,66C 125.983,58.2424 115.983,53.4091 104.5,51.5C 103.011,49.3549 102.011,47.0215 101.5,44.5 Z"/></g>
<g><path style="opacity:1" fill="#ff766e" d="M 56.5,19.5 C 56.5,20.1667 56.5,20.8333 56.5,21.5C 56.5,21.8333 56.5,22.1667 56.5,22.5C 55.5688,24.0217 54.4021,25.3551 53,26.5C 40.7233,31.2791 31.89,39.6125 26.5,51.5C 25.5,51.5 24.5,51.5 23.5,51.5C 20.1243,60.6318 16.291,69.6318 12,78.5C 11.5357,77.9056 11.369,77.2389 11.5,76.5C 18.1385,50.8852 33.1385,31.8852 56.5,19.5 Z"/></g>
<g><path style="opacity:1" fill="#ff9c81" d="M 142.5,35.5 C 146.409,37.6261 149.742,40.4594 152.5,44C 154.5,44.3333 156.5,44.6667 158.5,45C 166.207,52.8018 171.874,61.8018 175.5,72C 174.837,73.5185 173.837,74.6851 172.5,75.5C 169.241,72.5839 168.908,69.4172 171.5,66C 169.899,65.7266 168.399,65.2266 167,64.5C 164.031,59.8539 161.031,55.1873 158,50.5C 154.627,45.517 150.127,44.1837 144.5,46.5C 144.583,42.6648 143.917,38.9981 142.5,35.5 Z"/></g>
<g><path style="opacity:1" fill="#fe9a92" d="M 104.5,51.5 C 115.983,53.4091 125.983,58.2424 134.5,66C 139.244,71.1073 142.577,76.9406 144.5,83.5C 143.167,84.1667 141.833,84.8333 140.5,85.5C 138.181,86.167 135.847,86.3336 133.5,86C 130.978,80.4726 127.311,75.8059 122.5,72C 120.559,70.0972 118.226,69.2639 115.5,69.5C 111.82,63.4673 108.154,57.4673 104.5,51.5 Z"/></g>
<g><path style="opacity:1" fill="#ff856e" d="M 140.5,26.5 C 141.873,26.3433 143.207,26.51 144.5,27C 148.187,29.3643 151.854,31.6976 155.5,34C 157.241,35.6196 159.075,37.1196 161,38.5C 162.129,43.1405 164.962,46.1405 169.5,47.5C 169.5,47.8333 169.5,48.1667 169.5,48.5C 172.304,54.9059 175.304,61.2392 178.5,67.5C 178.291,68.086 177.957,68.586 177.5,69C 180.102,72.7977 181.935,76.9644 183,81.5C 183.172,87.6807 183.672,93.6807 184.5,99.5C 183.89,100.391 183.557,101.391 183.5,102.5C 182.167,103.167 181.167,104.167 180.5,105.5C 180.726,101.66 180.393,97.6599 179.5,93.5C 179.477,91.4004 180.144,89.5671 181.5,88C 179.309,79.2644 176.642,70.7644 173.5,62.5C 172.675,61.6143 171.675,61.281 170.5,61.5C 170.662,59.4727 170.495,57.4727 170,55.5C 167.916,52.9975 166.083,50.3308 164.5,47.5C 158.189,43.186 152.522,38.186 147.5,32.5C 145.711,30.9668 143.711,29.9668 141.5,29.5C 140.596,28.791 140.263,27.791 140.5,26.5 Z"/></g>
<g><path style="opacity:1" fill="#fe9594" d="M 90.5,57.5 C 88.4364,60.5437 86.4364,63.5437 84.5,66.5C 79.5609,69.4668 75.2276,73.1335 71.5,77.5C 70.2174,80.3182 70.2174,83.1516 71.5,86C 71.1377,87.2247 70.6377,88.3914 70,89.5C 69.3457,88.3044 68.8457,88.3044 68.5,89.5C 68.8627,90.1835 69.1961,90.8501 69.5,91.5C 67.0846,91.6265 64.7513,91.7932 62.5,92C 64.7879,89.2567 66.9545,86.4233 69,83.5C 69.336,79.9995 69.1693,76.4995 68.5,73C 68.3143,68.7047 69.981,65.3713 73.5,63C 78.6312,59.475 84.2978,57.6417 90.5,57.5 Z"/></g>
<g><path style="opacity:1" fill="#fd8d9b" d="M 84.5,66.5 C 80.0019,75.5014 75.0019,84.168 69.5,92.5C 69.5,92.1667 69.5,91.8333 69.5,91.5C 69.1961,90.8501 68.8627,90.1835 68.5,89.5C 68.8457,88.3044 69.3457,88.3044 70,89.5C 70.6377,88.3914 71.1377,87.2247 71.5,86C 70.2174,83.1516 70.2174,80.3182 71.5,77.5C 75.2276,73.1335 79.5609,69.4668 84.5,66.5 Z"/></g>
<g><path style="opacity:1" fill="#ff635e" d="M 153.5,26.5 C 175.34,42.622 187.673,64.2886 190.5,91.5C 189.206,92.2899 188.039,93.2899 187,94.5C 186.667,90.1667 186.333,85.8333 186,81.5C 183.265,69.1364 177.765,58.1364 169.5,48.5C 169.5,48.1667 169.5,47.8333 169.5,47.5C 166.951,43.4422 164.118,39.4422 161,35.5C 158.545,32.9225 155.878,30.5892 153,28.5C 152.308,27.5632 152.475,26.8966 153.5,26.5 Z"/></g>
<g><path style="opacity:1" fill="#ff9b7d" d="M 172.5,77.5 C 172.692,82.2701 173.525,86.9367 175,91.5C 175.654,90.3044 176.154,90.3044 176.5,91.5C 174.588,93.5415 174.421,95.5415 176,97.5C 176.66,95.6763 177.827,94.343 179.5,93.5C 180.393,97.6599 180.726,101.66 180.5,105.5C 179.752,107.332 178.752,108.999 177.5,110.5C 176.681,107.695 176.181,104.695 176,101.5C 175.259,102.641 174.425,102.641 173.5,101.5C 158.748,124.544 144.082,147.71 129.5,171C 129.63,172.059 130.13,172.892 131,173.5C 132.675,172.405 133.842,170.905 134.5,169C 137.362,168.07 139.695,166.403 141.5,164C 142.437,163.308 143.103,163.475 143.5,164.5C 143.5,164.833 143.5,165.167 143.5,165.5C 142.163,166.315 141.163,167.482 140.5,169C 141.5,169.667 142.5,169.667 143.5,169C 147.934,166.126 151.934,162.793 155.5,159C 156.448,158.517 157.448,158.351 158.5,158.5C 158.351,157.448 158.517,156.448 159,155.5C 162.667,151.5 166.333,147.5 170,143.5C 177.69,130.882 182.19,117.215 183.5,102.5C 183.557,101.391 183.89,100.391 184.5,99.5C 185.625,104.703 185.458,110.036 184,115.5C 180.529,125.926 176.696,136.093 172.5,146C 164.839,156.834 155.506,165.667 144.5,172.5C 142.064,172.317 139.897,172.984 138,174.5C 138.077,173.262 137.911,172.262 137.5,171.5C 133.739,173.576 130.072,175.576 126.5,177.5C 126.421,176.07 126.754,174.736 127.5,173.5C 126.066,172.77 124.9,171.77 124,170.5C 122.352,171.717 120.519,172.55 118.5,173C 117.299,173.903 116.465,175.069 116,176.5C 115.333,175.5 115.333,174.5 116,173.5C 119.324,171.307 119.157,169.974 115.5,169.5C 115.5,169.167 115.5,168.833 115.5,168.5C 117.157,165.187 118.823,161.853 120.5,158.5C 122.055,155.596 124.055,152.93 126.5,150.5C 128.584,148.17 131.251,147.003 134.5,147C 136.219,145.13 137.219,142.963 137.5,140.5C 138.873,140.657 140.207,140.49 141.5,140C 142.977,137.555 144.81,135.388 147,133.5C 147.333,134.5 147.667,135.5 148,136.5C 150.845,133.132 152.845,129.466 154,125.5C 153.189,126.96 152.355,127.293 151.5,126.5C 154.242,119.354 157.242,112.354 160.5,105.5C 158.995,104.158 158.328,102.492 158.5,100.5C 158.527,98.8007 159.194,97.4674 160.5,96.5C 163.774,89.6287 167.774,83.2954 172.5,77.5 Z"/></g>
<g><path style="opacity:1" fill="#ff9172" d="M 141.5,29.5 C 143.711,29.9668 145.711,30.9668 147.5,32.5C 152.522,38.186 158.189,43.186 164.5,47.5C 166.083,50.3308 167.916,52.9975 170,55.5C 170.495,57.4727 170.662,59.4727 170.5,61.5C 171.675,61.281 172.675,61.6143 173.5,62.5C 176.642,70.7644 179.309,79.2644 181.5,88C 180.144,89.5671 179.477,91.4004 179.5,93.5C 177.827,94.343 176.66,95.6763 176,97.5C 174.421,95.5415 174.588,93.5415 176.5,91.5C 176.154,90.3044 175.654,90.3044 175,91.5C 173.525,86.9367 172.692,82.2701 172.5,77.5C 172.5,76.8333 172.5,76.1667 172.5,75.5C 173.837,74.6851 174.837,73.5185 175.5,72C 171.874,61.8018 166.207,52.8018 158.5,45C 156.5,44.6667 154.5,44.3333 152.5,44C 149.742,40.4594 146.409,37.6261 142.5,35.5C 141.85,33.5648 141.517,31.5648 141.5,29.5 Z"/></g>
<g><path style="opacity:1" fill="#ffb695" d="M 50.5,66.5 C 51.1767,70.5705 52.1767,74.5705 53.5,78.5C 53.4208,79.9305 53.7542,81.2638 54.5,82.5C 52.5388,86.258 50.2055,89.758 47.5,93C 46.552,93.4828 45.552,93.6495 44.5,93.5C 43.3915,92.71 42.0581,92.21 40.5,92C 41.9557,90.2552 43.289,88.4219 44.5,86.5C 43.5,86.5 42.5,86.5 41.5,86.5C 42.9674,82.931 44.1341,79.2643 45,75.5C 46.5661,72.248 48.3994,69.248 50.5,66.5 Z"/></g>
<g><path style="opacity:1" fill="#ff9a8e" d="M 160.5,96.5 C 159.194,97.4674 158.527,98.8007 158.5,100.5C 156.149,103.239 153.816,105.905 151.5,108.5C 151.156,105.38 151.823,102.547 153.5,100C 151.22,96.7622 151.22,93.4288 153.5,90C 152.572,89.6121 151.905,88.9454 151.5,88C 152.112,85.9423 153.112,84.109 154.5,82.5C 154.03,81.537 153.363,81.537 152.5,82.5C 152.425,79.7938 152.092,77.1272 151.5,74.5C 150.167,69.1667 148.833,63.8333 147.5,58.5C 147.552,56.0971 147.219,53.7638 146.5,51.5C 146.281,50.325 146.614,49.325 147.5,48.5C 150.181,54.5465 151.848,60.8798 152.5,67.5C 154.293,70.2511 155.959,73.0844 157.5,76C 154.85,79.2073 155.016,79.7073 158,77.5C 159.651,79.7544 159.818,82.0878 158.5,84.5C 162.118,87.4509 162.118,91.1176 158.5,95.5C 158.957,96.2975 159.624,96.6309 160.5,96.5 Z"/></g>
<g><path style="opacity:1" fill="#ff9277" d="M 56.5,22.5 C 57.1667,23.8333 57.8333,25.1667 58.5,26.5C 58.5,26.8333 58.5,27.1667 58.5,27.5C 52.0663,30.0785 46.2329,33.7451 41,38.5C 40.3358,42.8519 37.8358,44.8519 33.5,44.5C 33.5,45.5 33.5,46.5 33.5,47.5C 32.5041,47.4142 31.6708,47.7476 31,48.5C 29.3983,52.5891 26.8983,55.9225 23.5,58.5C 21.1367,66.5389 18.6367,74.5389 16,82.5C 15.3333,92.1667 15.3333,101.833 16,111.5C 16.3512,115.556 17.6845,119.223 20,122.5C 21.4504,127.399 22.2837,132.399 22.5,137.5C 21.71,136.391 21.21,135.058 21,133.5C 20.6667,133.833 20.3333,134.167 20,134.5C 15.6807,128.924 13.0141,122.591 12,115.5C 11.8307,103.326 11.3307,91.3263 10.5,79.5C 10.2627,78.209 10.596,77.209 11.5,76.5C 11.369,77.2389 11.5357,77.9056 12,78.5C 16.291,69.6318 20.1243,60.6318 23.5,51.5C 24.5,51.5 25.5,51.5 26.5,51.5C 31.89,39.6125 40.7233,31.2791 53,26.5C 54.4021,25.3551 55.5688,24.0217 56.5,22.5 Z"/></g>
<g><path style="opacity:1" fill="#fe788a" d="M 117.5,130.5 C 120.666,124.838 124.333,119.505 128.5,114.5C 129.64,112.922 130.14,111.256 130,109.5C 119.995,116.11 109.829,122.444 99.5,128.5C 92.3278,124.415 85.3278,120.082 78.5,115.5C 77.7019,113.114 76.7019,110.78 75.5,108.5C 75.6236,107.893 75.9569,107.56 76.5,107.5C 83.2816,110.819 89.7816,114.819 96,119.5C 97.7892,120.409 99.6226,120.576 101.5,120C 112.176,113.33 122.843,106.663 133.5,100C 131.942,97.9481 130.608,95.7815 129.5,93.5C 132.728,92.4544 136.061,91.7878 139.5,91.5C 139.643,98.1797 138.31,104.513 135.5,110.5C 131.417,116.331 127.584,122.331 124,128.5C 121.913,129.397 119.746,130.064 117.5,130.5 Z"/></g>
<g><path style="opacity:1" fill="#ff918e" d="M 151.5,108.5 C 150.292,111.919 148.792,115.253 147,118.5C 146.329,119.252 145.496,119.586 144.5,119.5C 141.61,122.922 138.943,126.589 136.5,130.5C 133.833,132.5 131.167,134.5 128.5,136.5C 128.089,135.738 127.923,134.738 128,133.5C 126.173,136.16 124.006,138.494 121.5,140.5C 119.889,139.68 119.222,138.346 119.5,136.5C 119.685,134.804 120.519,133.471 122,132.5C 122.333,133.167 122.667,133.833 123,134.5C 127.298,133.525 129.631,130.858 130,126.5C 132.878,122.051 136.211,118.051 140,114.5C 140.346,110.652 141.846,107.319 144.5,104.5C 144.032,102.866 143.032,101.7 141.5,101C 144.866,98.0699 145.199,94.9032 142.5,91.5C 144.104,89.8211 144.771,87.8211 144.5,85.5C 143.167,85.5 141.833,85.5 140.5,85.5C 141.833,84.8333 143.167,84.1667 144.5,83.5C 147.385,83.8064 150.052,83.4731 152.5,82.5C 153.363,81.537 154.03,81.537 154.5,82.5C 153.112,84.109 152.112,85.9423 151.5,88C 151.905,88.9454 152.572,89.6121 153.5,90C 151.22,93.4288 151.22,96.7622 153.5,100C 151.823,102.547 151.156,105.38 151.5,108.5 Z"/></g>
<g><path style="opacity:1" fill="#fe878c" d="M 115.5,69.5 C 118.226,69.2639 120.559,70.0972 122.5,72C 127.311,75.8059 130.978,80.4726 133.5,86C 135.847,86.3336 138.181,86.167 140.5,85.5C 141.833,85.5 143.167,85.5 144.5,85.5C 144.771,87.8211 144.104,89.8211 142.5,91.5C 145.199,94.9032 144.866,98.0699 141.5,101C 143.032,101.7 144.032,102.866 144.5,104.5C 141.846,107.319 140.346,110.652 140,114.5C 136.211,118.051 132.878,122.051 130,126.5C 129.631,130.858 127.298,133.525 123,134.5C 122.667,133.833 122.333,133.167 122,132.5C 120.519,133.471 119.685,134.804 119.5,136.5C 117.801,136.34 116.134,136.506 114.5,137C 113.837,138.518 112.837,139.685 111.5,140.5C 111.351,139.448 111.517,138.448 112,137.5C 113.853,135.097 115.686,132.764 117.5,130.5C 119.746,130.064 121.913,129.397 124,128.5C 127.584,122.331 131.417,116.331 135.5,110.5C 138.31,104.513 139.643,98.1797 139.5,91.5C 136.061,91.7878 132.728,92.4544 129.5,93.5C 124.652,85.6439 119.985,77.6439 115.5,69.5 Z"/></g>
<g><path style="opacity:1" fill="#fd949b" d="M 65.5,101.5 C 66.9778,101.238 68.3112,101.571 69.5,102.5C 72.0765,103.943 74.4099,105.61 76.5,107.5C 75.9569,107.56 75.6236,107.893 75.5,108.5C 76.7019,110.78 77.7019,113.114 78.5,115.5C 74.9393,113.952 71.606,111.952 68.5,109.5C 68.1667,109.667 67.8333,109.833 67.5,110C 69.16,111.488 70.16,113.321 70.5,115.5C 67.8858,115.723 66.2191,114.556 65.5,112C 64.2269,108.704 64.2269,105.204 65.5,101.5 Z"/></g>
<g><path style="opacity:1" fill="#fefcfe" d="M 78.5,115.5 C 85.3278,120.082 92.3278,124.415 99.5,128.5C 109.829,122.444 119.995,116.11 130,109.5C 130.14,111.256 129.64,112.922 128.5,114.5C 124.333,119.505 120.666,124.838 117.5,130.5C 115.686,132.764 113.853,135.097 112,137.5C 111.517,138.448 111.351,139.448 111.5,140.5C 110.504,140.414 109.671,140.748 109,141.5C 106.074,146.114 103.241,150.781 100.5,155.5C 99.5041,155.586 98.6708,155.252 98,154.5C 95.5163,150.188 92.683,146.188 89.5,142.5C 85,134.836 80,127.502 74.5,120.5C 73.5129,118.449 72.1795,116.782 70.5,115.5C 70.16,113.321 69.16,111.488 67.5,110C 67.8333,109.833 68.1667,109.667 68.5,109.5C 71.606,111.952 74.9393,113.952 78.5,115.5 Z"/></g>
<g><path style="opacity:1" fill="#fea096" d="M 93.5,51.5 C 92.5294,53.4832 91.5294,55.4832 90.5,57.5C 84.2978,57.6417 78.6312,59.475 73.5,63C 69.981,65.3713 68.3143,68.7047 68.5,73C 69.1693,76.4995 69.336,79.9995 69,83.5C 66.9545,86.4233 64.7879,89.2567 62.5,92C 64.7513,91.7932 67.0846,91.6265 69.5,91.5C 69.5,91.8333 69.5,92.1667 69.5,92.5C 68.1667,95.5 66.8333,98.5 65.5,101.5C 64.2269,105.204 64.2269,108.704 65.5,112C 66.2191,114.556 67.8858,115.723 70.5,115.5C 72.1795,116.782 73.5129,118.449 74.5,120.5C 72.847,120.66 71.5137,121.326 70.5,122.5C 69.1266,122.657 67.7932,122.49 66.5,122C 67.4506,121.282 67.6172,120.449 67,119.5C 65.6366,121.684 64.1366,123.684 62.5,125.5C 58.9987,123.653 58.6653,121.32 61.5,118.5C 60.6446,117.707 59.8113,118.04 59,119.5C 56.8011,114.658 57.6344,110.325 61.5,106.5C 60.6446,105.707 59.8113,106.04 59,107.5C 58.5355,103.152 58.0355,98.819 57.5,94.5C 56.448,94.6495 55.448,94.4828 54.5,94C 59.2192,87.5172 63.3859,80.6839 67,73.5C 67.5347,70.173 67.0347,67.0063 65.5,64C 66.9301,62.114 68.5968,60.4473 70.5,59C 73.8742,58.479 76.8742,57.1457 79.5,55C 84.4236,54.6953 89.0903,53.5286 93.5,51.5 Z"/></g>
<g><path style="opacity:1" fill="#ffaf86" d="M 183.5,102.5 C 182.19,117.215 177.69,130.882 170,143.5C 166.333,147.5 162.667,151.5 159,155.5C 158.517,156.448 158.351,157.448 158.5,158.5C 157.448,158.351 156.448,158.517 155.5,159C 151.934,162.793 147.934,166.126 143.5,169C 142.5,169.667 141.5,169.667 140.5,169C 141.163,167.482 142.163,166.315 143.5,165.5C 162.709,153.308 174.376,135.808 178.5,113C 178.472,111.93 178.139,111.097 177.5,110.5C 178.752,108.999 179.752,107.332 180.5,105.5C 181.167,104.167 182.167,103.167 183.5,102.5 Z"/></g>
<g><path style="opacity:1" fill="#ffbb90" d="M 177.5,110.5 C 178.139,111.097 178.472,111.93 178.5,113C 174.376,135.808 162.709,153.308 143.5,165.5C 143.5,165.167 143.5,164.833 143.5,164.5C 154.404,146.256 165.737,128.256 177.5,110.5 Z"/></g>
<g><path style="opacity:1" fill="#ffab8d" d="M 177.5,110.5 C 165.737,128.256 154.404,146.256 143.5,164.5C 143.103,163.475 142.437,163.308 141.5,164C 139.695,166.403 137.362,168.07 134.5,169C 133.842,170.905 132.675,172.405 131,173.5C 130.13,172.892 129.63,172.059 129.5,171C 144.082,147.71 158.748,124.544 173.5,101.5C 174.425,102.641 175.259,102.641 176,101.5C 176.181,104.695 176.681,107.695 177.5,110.5 Z"/></g>
<g><path style="opacity:1" fill="#ffb194" d="M 61.5,128.5 C 63.1733,127.657 64.34,126.324 65,124.5C 66.8203,127.753 66.9869,131.087 65.5,134.5C 63.3901,135.95 62.0568,137.95 61.5,140.5C 60.2719,141.306 59.2719,142.306 58.5,143.5C 57.5244,142.185 56.5244,140.852 55.5,139.5C 55.8333,138.833 56.1667,138.167 56.5,137.5C 54.9425,135.539 53.2758,133.706 51.5,132C 51.6448,131.228 51.9781,130.561 52.5,130C 49.9941,126.944 49.9941,123.777 52.5,120.5C 49.0919,117.976 48.4252,115.143 50.5,112C 49.5509,111.383 48.7175,111.549 48,112.5C 47.6667,111.167 47.3333,109.833 47,108.5C 46.0805,108.07 45.2472,107.736 44.5,107.5C 46.3249,104.123 46.9916,100.457 46.5,96.5C 48.5563,95.7839 50.723,95.1172 53,94.5C 53.1667,94.8333 53.3333,95.1667 53.5,95.5C 52.821,97.5879 52.4877,99.5879 52.5,101.5C 54.8241,108.051 55.4908,114.384 54.5,120.5C 54.4102,124.539 55.5768,125.206 58,122.5C 58.1667,122.833 58.3333,123.167 58.5,123.5C 55.8552,127.509 56.8552,129.176 61.5,128.5 Z"/></g>
<g><path style="opacity:1" fill="#ff746c" d="M 10.5,79.5 C 11.3307,91.3263 11.8307,103.326 12,115.5C 13.0141,122.591 15.6807,128.924 20,134.5C 20.3333,134.167 20.6667,133.833 21,133.5C 21.21,135.058 21.71,136.391 22.5,137.5C 22.3379,139.527 22.5045,141.527 23,143.5C 23.3333,143.167 23.6667,142.833 24,142.5C 25.5601,146.411 27.5601,150.078 30,153.5C 31.0113,154.337 32.1779,154.67 33.5,154.5C 33.5,155.833 33.5,157.167 33.5,158.5C 34.5,158.5 35.5,158.5 36.5,158.5C 37.201,160.908 38.201,163.242 39.5,165.5C 41.261,166.035 42.5943,167.035 43.5,168.5C 43.1667,169.167 42.8333,169.833 42.5,170.5C 14.3087,146.539 3.64205,116.205 10.5,79.5 Z"/></g>
<g><path style="opacity:1" fill="#fe8e7f" d="M 74.5,120.5 C 80,127.502 85,134.836 89.5,142.5C 85.7195,141.513 82.2195,139.846 79,137.5C 78.5814,138.672 77.9147,139.672 77,140.5C 78.2823,136.865 77.1157,134.198 73.5,132.5C 73.9312,131.707 74.2645,130.873 74.5,130C 72.5009,127.737 71.1676,125.237 70.5,122.5C 71.5137,121.326 72.847,120.66 74.5,120.5 Z"/></g>
<g><path style="opacity:1" fill="#ff998b" d="M 144.5,119.5 C 143.292,122.919 141.792,126.253 140,129.5C 135.661,134.85 131.828,140.516 128.5,146.5C 128.631,145.761 128.464,145.094 128,144.5C 125.567,147.51 122.567,148.51 119,147.5C 117.203,149.156 115.036,150.156 112.5,150.5C 111.201,149.91 110.368,148.91 110,147.5C 106.671,149.998 103.504,152.664 100.5,155.5C 103.241,150.781 106.074,146.114 109,141.5C 109.671,140.748 110.504,140.414 111.5,140.5C 112.837,139.685 113.837,138.518 114.5,137C 116.134,136.506 117.801,136.34 119.5,136.5C 119.222,138.346 119.889,139.68 121.5,140.5C 124.006,138.494 126.173,136.16 128,133.5C 127.923,134.738 128.089,135.738 128.5,136.5C 131.167,134.5 133.833,132.5 136.5,130.5C 138.943,126.589 141.61,122.922 144.5,119.5 Z"/></g>
<g><path style="opacity:1" fill="#ff9f7b" d="M 33.5,47.5 C 33.6602,49.1992 33.4935,50.8659 33,52.5C 28.6272,56.3909 25.2939,61.0576 23,66.5C 20.7059,74.3431 18.7059,82.3431 17,90.5C 16.8333,93.6667 16.6667,96.8333 16.5,100C 16.0839,107.587 17.5839,114.754 21,121.5C 21.3333,121.167 21.6667,120.833 22,120.5C 22.3028,124.894 22.9695,129.227 24,133.5C 25.9525,137.247 27.7858,140.913 29.5,144.5C 30.675,144.281 31.675,144.614 32.5,145.5C 33.7973,149.32 36.464,151.486 40.5,152C 39.3909,153.813 40.0576,154.646 42.5,154.5C 44.1037,155.809 44.7704,158.143 44.5,161.5C 45.5,161.5 46.5,161.5 47.5,161.5C 47.1667,162.167 46.8333,162.833 46.5,163.5C 45.0582,164.82 44.3915,166.486 44.5,168.5C 44.1667,168.5 43.8333,168.5 43.5,168.5C 42.5943,167.035 41.261,166.035 39.5,165.5C 38.201,163.242 37.201,160.908 36.5,158.5C 35.5,158.5 34.5,158.5 33.5,158.5C 33.5,157.167 33.5,155.833 33.5,154.5C 32.1779,154.67 31.0113,154.337 30,153.5C 27.5601,150.078 25.5601,146.411 24,142.5C 23.6667,142.833 23.3333,143.167 23,143.5C 22.5045,141.527 22.3379,139.527 22.5,137.5C 22.2837,132.399 21.4504,127.399 20,122.5C 17.6845,119.223 16.3512,115.556 16,111.5C 15.3333,101.833 15.3333,92.1667 16,82.5C 18.6367,74.5389 21.1367,66.5389 23.5,58.5C 26.8983,55.9225 29.3983,52.5891 31,48.5C 31.6708,47.7476 32.5041,47.4142 33.5,47.5 Z"/></g>
<g><path style="opacity:1" fill="#ff937e" d="M 158.5,100.5 C 158.328,102.492 158.995,104.158 160.5,105.5C 157.242,112.354 154.242,119.354 151.5,126.5C 152.355,127.293 153.189,126.96 154,125.5C 152.845,129.466 150.845,133.132 148,136.5C 147.667,135.5 147.333,134.5 147,133.5C 144.81,135.388 142.977,137.555 141.5,140C 140.207,140.49 138.873,140.657 137.5,140.5C 137.219,142.963 136.219,145.13 134.5,147C 131.251,147.003 128.584,148.17 126.5,150.5C 126.733,148.938 127.4,147.605 128.5,146.5C 131.828,140.516 135.661,134.85 140,129.5C 141.792,126.253 143.292,122.919 144.5,119.5C 145.496,119.586 146.329,119.252 147,118.5C 148.792,115.253 150.292,111.919 151.5,108.5C 153.816,105.905 156.149,103.239 158.5,100.5 Z"/></g>
<g><path style="opacity:1" fill="#ff9e7b" d="M 70.5,122.5 C 71.1676,125.237 72.5009,127.737 74.5,130C 74.2645,130.873 73.9312,131.707 73.5,132.5C 77.1157,134.198 78.2823,136.865 77,140.5C 77.9147,139.672 78.5814,138.672 79,137.5C 82.2195,139.846 85.7195,141.513 89.5,142.5C 87.3908,144.496 85.7241,146.829 84.5,149.5C 82.8479,153.92 80.1813,154.587 76.5,151.5C 79.0848,147.249 77.9182,145.582 73,146.5C 71.5817,142.746 69.0817,139.913 65.5,138C 66.1712,137.014 66.1712,135.847 65.5,134.5C 66.9869,131.087 66.8203,127.753 65,124.5C 64.34,126.324 63.1733,127.657 61.5,128.5C 61.5569,127.391 61.8902,126.391 62.5,125.5C 64.1366,123.684 65.6366,121.684 67,119.5C 67.6172,120.449 67.4506,121.282 66.5,122C 67.7932,122.49 69.1266,122.657 70.5,122.5 Z"/></g>
<g><path style="opacity:1" fill="#ff8b75" d="M 140.5,176.5 C 141.37,174.726 142.703,173.393 144.5,172.5C 155.506,165.667 164.839,156.834 172.5,146C 176.696,136.093 180.529,125.926 184,115.5C 185.458,110.036 185.625,104.703 184.5,99.5C 184.783,98.7109 185.283,98.0442 186,97.5C 187.324,108.738 186.324,119.738 183,130.5C 179.573,137.689 175.907,144.689 172,151.5C 164.683,157.65 157.85,164.317 151.5,171.5C 149.038,172.794 146.705,174.294 144.5,176C 143.207,176.49 141.873,176.657 140.5,176.5 Z"/></g>
<g><path style="opacity:1" fill="#ffaf86" d="M 65.5,134.5 C 66.1712,135.847 66.1712,137.014 65.5,138C 69.0817,139.913 71.5817,142.746 73,146.5C 77.9182,145.582 79.0848,147.249 76.5,151.5C 80.1813,154.587 82.8479,153.92 84.5,149.5C 87.6276,151.154 90.9609,152.321 94.5,153C 93.1398,154.938 93.4732,156.604 95.5,158C 100.086,158.197 104.586,158.697 109,159.5C 112.55,157.724 116.384,157.391 120.5,158.5C 118.823,161.853 117.157,165.187 115.5,168.5C 113.242,168.225 112.908,167.225 114.5,165.5C 114,165.167 113.5,164.833 113,164.5C 107.948,166.827 103.281,166.494 99,163.5C 96.112,163.023 93.2787,162.356 90.5,161.5C 89.8333,161.833 89.1667,162.167 88.5,162.5C 84.0764,160.357 79.7431,158.024 75.5,155.5C 74.6667,156.5 73.8333,157.5 73,158.5C 72.6667,156.167 72.3333,153.833 72,151.5C 70.3547,151.307 68.5213,151.14 66.5,151C 65.8333,150.333 65.1667,149.667 64.5,149C 65.4506,148.282 65.6172,147.449 65,146.5C 62.7076,147.601 61.2076,146.768 60.5,144C 61.3366,142.989 61.67,141.822 61.5,140.5C 62.0568,137.95 63.3901,135.95 65.5,134.5 Z"/></g>
<g><path style="opacity:1" fill="#ff786e" d="M 169.5,48.5 C 177.765,58.1364 183.265,69.1364 186,81.5C 186.333,85.8333 186.667,90.1667 187,94.5C 188.039,93.2899 189.206,92.2899 190.5,91.5C 191.675,135.516 172.342,166.516 132.5,184.5C 132.629,182.784 132.962,181.117 133.5,179.5C 135.833,179.5 138.167,179.5 140.5,179.5C 140.5,178.5 140.5,177.5 140.5,176.5C 141.873,176.657 143.207,176.49 144.5,176C 146.705,174.294 149.038,172.794 151.5,171.5C 157.85,164.317 164.683,157.65 172,151.5C 175.907,144.689 179.573,137.689 183,130.5C 186.324,119.738 187.324,108.738 186,97.5C 185.283,98.0442 184.783,98.7109 184.5,99.5C 183.672,93.6807 183.172,87.6807 183,81.5C 181.935,76.9644 180.102,72.7977 177.5,69C 177.957,68.586 178.291,68.086 178.5,67.5C 175.304,61.2392 172.304,54.9059 169.5,48.5 Z"/></g>
<g><path style="opacity:1" fill="#fea78b" d="M 89.5,142.5 C 92.683,146.188 95.5163,150.188 98,154.5C 98.6708,155.252 99.5041,155.586 100.5,155.5C 103.504,152.664 106.671,149.998 110,147.5C 110.368,148.91 111.201,149.91 112.5,150.5C 115.036,150.156 117.203,149.156 119,147.5C 122.567,148.51 125.567,147.51 128,144.5C 128.464,145.094 128.631,145.761 128.5,146.5C 127.4,147.605 126.733,148.938 126.5,150.5C 124.055,152.93 122.055,155.596 120.5,158.5C 116.384,157.391 112.55,157.724 109,159.5C 104.586,158.697 100.086,158.197 95.5,158C 93.4732,156.604 93.1398,154.938 94.5,153C 90.9609,152.321 87.6276,151.154 84.5,149.5C 85.7241,146.829 87.3908,144.496 89.5,142.5 Z"/></g>
<g><path style="opacity:1" fill="#ffb379" d="M 56.5,148.5 C 56.3433,149.873 56.51,151.207 57,152.5C 57.3333,152.167 57.6667,151.833 58,151.5C 58.2213,154.943 59.2213,155.276 61,152.5C 60.4644,154.447 60.7978,156.447 62,158.5C 62.7412,159.641 63.5745,159.641 64.5,158.5C 65.3857,159.325 65.719,160.325 65.5,161.5C 67.2012,161.966 68.7012,161.966 70,161.5C 71.3484,163.681 73.1818,165.348 75.5,166.5C 74.0465,168.644 74.3799,170.477 76.5,172C 83.0204,173.422 89.5204,174.922 96,176.5C 97.605,175.899 98.9384,174.899 100,173.5C 100.108,175.483 99.9411,177.483 99.5,179.5C 89.3383,179.788 79.3383,178.788 69.5,176.5C 69.2471,174.173 69.9137,172.173 71.5,170.5C 67.7363,169.356 64.2363,170.022 61,172.5C 58.5495,171.357 56.0495,170.357 53.5,169.5C 52.6143,168.675 52.281,167.675 52.5,166.5C 49.911,166.539 47.911,165.539 46.5,163.5C 46.8333,162.833 47.1667,162.167 47.5,161.5C 48.1667,160.5 48.8333,159.5 49.5,158.5C 51.8333,155.167 54.1667,151.833 56.5,148.5 Z"/></g>
<g><path style="opacity:1" fill="#ffb684" d="M 61.5,140.5 C 61.67,141.822 61.3366,142.989 60.5,144C 61.2076,146.768 62.7076,147.601 65,146.5C 65.6172,147.449 65.4506,148.282 64.5,149C 65.1667,149.667 65.8333,150.333 66.5,151C 68.5213,151.14 70.3547,151.307 72,151.5C 72.3333,153.833 72.6667,156.167 73,158.5C 73.8333,157.5 74.6667,156.5 75.5,155.5C 79.7431,158.024 84.0764,160.357 88.5,162.5C 89.1667,162.167 89.8333,161.833 90.5,161.5C 93.2787,162.356 96.112,163.023 99,163.5C 103.281,166.494 107.948,166.827 113,164.5C 113.5,164.833 114,165.167 114.5,165.5C 112.908,167.225 113.242,168.225 115.5,168.5C 115.5,168.833 115.5,169.167 115.5,169.5C 113.926,169.937 112.759,170.937 112,172.5C 110.87,174.933 109.704,177.266 108.5,179.5C 108.167,179.5 107.833,179.5 107.5,179.5C 105.005,179.031 102.339,179.031 99.5,179.5C 99.9411,177.483 100.108,175.483 100,173.5C 98.9384,174.899 97.605,175.899 96,176.5C 89.5204,174.922 83.0204,173.422 76.5,172C 74.3799,170.477 74.0465,168.644 75.5,166.5C 73.1818,165.348 71.3484,163.681 70,161.5C 68.7012,161.966 67.2012,161.966 65.5,161.5C 65.719,160.325 65.3857,159.325 64.5,158.5C 63.5745,159.641 62.7412,159.641 62,158.5C 60.7978,156.447 60.4644,154.447 61,152.5C 59.2213,155.276 58.2213,154.943 58,151.5C 57.6667,151.833 57.3333,152.167 57,152.5C 56.51,151.207 56.3433,149.873 56.5,148.5C 57.4408,146.95 58.1075,145.284 58.5,143.5C 59.2719,142.306 60.2719,141.306 61.5,140.5 Z"/></g>
<g><path style="opacity:1" fill="#ff9473" d="M 115.5,169.5 C 119.157,169.974 119.324,171.307 116,173.5C 115.333,174.5 115.333,175.5 116,176.5C 116.465,175.069 117.299,173.903 118.5,173C 120.519,172.55 122.352,171.717 124,170.5C 124.9,171.77 126.066,172.77 127.5,173.5C 126.754,174.736 126.421,176.07 126.5,177.5C 130.072,175.576 133.739,173.576 137.5,171.5C 137.911,172.262 138.077,173.262 138,174.5C 139.897,172.984 142.064,172.317 144.5,172.5C 142.703,173.393 141.37,174.726 140.5,176.5C 140.5,177.5 140.5,178.5 140.5,179.5C 138.167,179.5 135.833,179.5 133.5,179.5C 132.167,179.5 130.833,179.5 129.5,179.5C 127.801,179.66 126.134,179.494 124.5,179C 125.902,177.658 125.569,176.824 123.5,176.5C 118.976,179.227 113.976,180.227 108.5,179.5C 109.704,177.266 110.87,174.933 112,172.5C 112.759,170.937 113.926,169.937 115.5,169.5 Z"/></g>
<g><path style="opacity:1" fill="#ff9669" d="M 46.5,163.5 C 47.911,165.539 49.911,166.539 52.5,166.5C 52.281,167.675 52.6143,168.675 53.5,169.5C 56.0495,170.357 58.5495,171.357 61,172.5C 64.2363,170.022 67.7363,169.356 71.5,170.5C 69.9137,172.173 69.2471,174.173 69.5,176.5C 79.3383,178.788 89.3383,179.788 99.5,179.5C 102.339,179.031 105.005,179.031 107.5,179.5C 106.972,180.721 106.305,181.887 105.5,183C 98.1742,183.5 90.8409,183.666 83.5,183.5C 80.1501,183.665 76.8168,183.498 73.5,183C 66.0785,181.578 59.7452,178.245 54.5,173C 51.2136,171.404 47.8803,169.904 44.5,168.5C 44.3915,166.486 45.0582,164.82 46.5,163.5 Z"/></g>
<g><path style="opacity:1" fill="#ff8266" d="M 129.5,179.5 C 129.063,181.074 128.063,182.241 126.5,183C 119.114,183.611 111.78,184.611 104.5,186C 98.8333,186.667 93.1667,186.667 87.5,186C 85.563,185.878 84.2297,185.045 83.5,183.5C 90.8409,183.666 98.1742,183.5 105.5,183C 106.305,181.887 106.972,180.721 107.5,179.5C 107.833,179.5 108.167,179.5 108.5,179.5C 113.976,180.227 118.976,179.227 123.5,176.5C 125.569,176.824 125.902,177.658 124.5,179C 126.134,179.494 127.801,179.66 129.5,179.5 Z"/></g>
<g><path style="opacity:1" fill="#ff6b5c" d="M 43.5,168.5 C 43.8333,168.5 44.1667,168.5 44.5,168.5C 47.8803,169.904 51.2136,171.404 54.5,173C 59.7452,178.245 66.0785,181.578 73.5,183C 76.8168,183.498 80.1501,183.665 83.5,183.5C 84.2297,185.045 85.563,185.878 87.5,186C 93.1667,186.667 98.8333,186.667 104.5,186C 111.78,184.611 119.114,183.611 126.5,183C 128.063,182.241 129.063,181.074 129.5,179.5C 130.833,179.5 132.167,179.5 133.5,179.5C 132.962,181.117 132.629,182.784 132.5,184.5C 99.7946,196.22 69.7946,191.553 42.5,170.5C 42.8333,169.833 43.1667,169.167 43.5,168.5 Z"/></g>
</svg>
