<svg xmlns="http://www.w3.org/2000/svg" width="200" height="200" style="shape-rendering:geometricPrecision;text-rendering:geometricPrecision;image-rendering:optimizeQuality;fill-rule:evenodd;clip-rule:evenodd"><path fill="#ffd389" d="M87.5-.5h24q66.096 11.656 85.5 76 .284 6.399 2.5 12v24q-11.645 66.094-76 85.5-6.4.284-12 2.5h-24q-58.235-9.119-81.5-63-4.404-12.418-6.5-25v-24Q8.62 29.255 62.5 6q12.419-4.404 25-6.5" style="opacity:.978"/><path fill="#ff8968" d="M140.5 24.5q-22.918-9.975-48-8.5-1.326 2.58-4 3.5-12.237 1.415-23 7 .51-3.268 3-5.5-6.226.34-10 5.5l-2-4v-1a69 69 0 0 0 14-6q.615 1.143.5 3 2.235-2.256 5.5-2.5A161 161 0 0 1 99 12.5a279 279 0 0 1 30.5 3.5 48 48 0 0 0 9 5q1.984 1.224 2 3.5" style="opacity:1"/><path fill="#ffa379" d="M140.5 24.5v2a220 220 0 0 0-31-6.5 90.5 90.5 0 0 0-19 0q-.867 2.125-3 2.5a5.73 5.73 0 0 1 1-3q2.674-.92 4-3.5 25.082-1.475 48 8.5" style="opacity:1"/><path fill="#ff9a79" d="M88.5 19.5a5.73 5.73 0 0 0-1 3 206 206 0 0 1-9 17 50 50 0 0 0-6 10 217.6 217.6 0 0 0-19 29 77 77 0 0 1-3-12 40 40 0 0 1-2.5-14 139 139 0 0 0 11.5-19q2.91-3.424 6-7 10.763-5.585 23-7" style="opacity:1"/><path fill="#ffaa6c" d="M65.5 26.5q-3.09 3.576-6 7-1.258-.513-1-2v-5q3.774-5.16 10-5.5-2.49 2.232-3 5.5" style="opacity:1"/><path fill="#ffb88f" d="M140.5 26.5q-.356 1.937 1 3 .025 3.097 1 6 2.125 5.247 2 11a26.3 26.3 0 0 0 2 5 21.4 21.4 0 0 1 1 7q-20.21-19.335-49-22-8.89 1.41-17.5 4-1.605-.042-2.5-1a206 206 0 0 0 9-17q2.133-.375 3-2.5a90.5 90.5 0 0 1 19 0 220 220 0 0 1 31 6.5" style="opacity:1"/><path fill="#ffb084" d="M58.5 27.5v4q-18.305 9.551-28.5 28-13.82 24.788-10 53 1.211 6.895 5.5 2.5-1.255-1.517-1-3.5 3.618.544 4.5-3 .794 3.127-1.5 5.5 2.638 6.257 5.5.5l.5 1a50.8 50.8 0 0 0-6.5 11 16.25 16.25 0 0 0 0 8 11.5 11.5 0 0 0 3.5-5l1 .5a6.3 6.3 0 0 0-1 3 15.1 15.1 0 0 0 3 6q-2.087 4.257 1.5 7.5l1-2q2.163 4.452 6.5 3.5a3.94 3.94 0 0 0-1 2q2.36 4.61 5.5 1.5-1.362 4.303 2.5 7l-2 3h-3q.406-5.036-2-7-3.664.22-2-2.5-6.054-.77-8-6.5-1.237-1.329-3-1a356 356 0 0 0-5.5-11 78.3 78.3 0 0 1-2-13l-1 1q-5.124-10.12-4.5-21.5l.5-9.5a316 316 0 0 1 6-24q3.44-8.164 10-14 .74-2.45.5-5v-3q6.504.528 7.5-6 7.85-7.133 17.5-11" style="opacity:1"/><path fill="#ffbd92" d="M58.5 31.5q-.258 1.487 1 2a139 139 0 0 1-11.5 19 40 40 0 0 0 2.5 14 51.7 51.7 0 0 0-5.5 9 70.4 70.4 0 0 1-3.5 11h3a51 51 0 0 1-4 5.5q2.338.315 4 1.5-4.207 1.23-9 1.5-3.09 1.779-.5 3.5 5.76-1.063 11.5-2 .738 5.935-2 11 1.12.355 2.5 1l1 4q1.076-1.426 2.5-.5-3.112 4.714 2 8.5-3.759 4.916 0 9.5a3.94 3.94 0 0 0-1 2 55 55 0 0 1 5 5.5l-1 2a495 495 0 0 1 3 4 16.3 16.3 0 0 1-2 5l-7 10q-3.862-2.697-2.5-7-3.14 3.11-5.5-1.5a3.94 3.94 0 0 1 1-2q-4.337.952-6.5-3.5l-1 2q-3.587-3.243-1.5-7.5a15.1 15.1 0 0 1-3-6 6.3 6.3 0 0 1 1-3l-1-.5a11.5 11.5 0 0 1-3.5 5 16.25 16.25 0 0 1 0-8 50.8 50.8 0 0 1 6.5-11l-.5-1q-2.862 5.757-5.5-.5 2.294-2.373 1.5-5.5-.882 3.544-4.5 3-.255 1.983 1 3.5-4.289 4.395-5.5-2.5-3.82-28.212 10-53 10.195-18.449 28.5-28" style="opacity:1"/><path fill="#feb192" d="m147.5 58.5 4 16a270 270 0 0 1-11.5-15Q128.038 49.08 112.5 45a61 61 0 0 0-11-.5l-3-2a131 131 0 0 1-18 3.5 115 115 0 0 0-8 3.5 50 50 0 0 1 6-10q.895.958 2.5 1a133 133 0 0 1 17.5-4q28.79 2.665 49 22" style="opacity:1"/><path fill="#ff6e60" d="M153.5 26.5q-1.538.595-.5 2a58.4 58.4 0 0 1 8 7 136 136 0 0 1 8.5 12q-6.807-2.04-8.5-9a56 56 0 0 1-5.5-4.5 1876 1876 0 0 1-11-7 8.44 8.44 0 0 0-4-.5v-2q-.016-2.276-2-3.5a48 48 0 0 1-9-5A279 279 0 0 0 99 12.5 161 161 0 0 0 76.5 16q-3.265.244-5.5 2.5.115-1.857-.5-3a69 69 0 0 1-14 6v-2Q82.016 5.15 111.5 9q23.439 3.382 42 17.5" style="opacity:1"/><path fill="#fefdfe" d="m98.5 42.5 3 2a18.7 18.7 0 0 0 3 7q5.48 8.95 11 18a561 561 0 0 0 14 24 38.7 38.7 0 0 0 4 6.5q-15.986 9.995-32 20-2.815.864-5.5-.5-9.327-7.022-19.5-12a38.3 38.3 0 0 0-7-5q-1.783-1.393-4-1l4-9a250 250 0 0 0 15-26 680 680 0 0 1 6-9q1.545-3.026 3-6 3.667-3.761 5-9" style="opacity:1"/><path fill="#ffa68d" d="M172.5 75.5v2q-7.089 8.693-12 19-1.314.195-2-1 5.427-6.574 0-11 1.977-3.619-.5-7-4.476 3.31-.5-1.5a108 108 0 0 0-5-8.5 61.4 61.4 0 0 0-5-19q-1.329 1.238-1 3a26.3 26.3 0 0 1-2-5q8.44-3.474 13.5 4a3091 3091 0 0 1 9 14 15.3 15.3 0 0 0 4.5 1.5q-3.888 5.126 1 9.5" style="opacity:1"/><path fill="#ffa792" d="M98.5 42.5q-1.333 5.239-5 9-6.614 3.043-14 3.5-3.939 3.219-9 4a26 26 0 0 0-5 5q2.302 4.51 1.5 9.5A147 147 0 0 1 54.5 94q1.422.725 3 .5a773 773 0 0 1 1.5 13q1.217-2.19 2.5-1-5.799 5.737-2.5 13 1.217-2.19 2.5-1-4.252 4.23 1 7a5.73 5.73 0 0 0-1 3q-6.968 1.014-3-5l-.5-1q-3.635 4.059-3.5-2 1.485-9.174-2-19-.018-2.868 1-6l-.5-1a97 97 0 0 0-6.5 2q-5.74.937-11.5 2-2.59-1.721.5-3.5 4.793-.27 9-1.5a4.93 4.93 0 0 0 3-.5 58.8 58.8 0 0 0 7-10.5 6.85 6.85 0 0 1-1-4 217.6 217.6 0 0 1 19-29 115 115 0 0 1 8-3.5 131 131 0 0 0 18-3.5M101.5 44.5a61 61 0 0 1 11 .5q15.538 4.08 27.5 14.5a270 270 0 0 0 11.5 15 41.5 41.5 0 0 1 1 8q-3.672 1.46-8 1-2.884-9.84-10-17.5-12.775-11.636-30-14.5a18.7 18.7 0 0 1-3-7" style="opacity:1"/><path fill="#ff766e" d="M56.5 19.5v3a15.7 15.7 0 0 1-3.5 4q-18.415 7.169-26.5 25h-3a304 304 0 0 1-11.5 27 2.43 2.43 0 0 1-.5-2q9.958-38.422 45-57" style="opacity:1"/><path fill="#ff9c81" d="M142.5 35.5q5.863 3.19 10 8.5l6 1q11.56 11.703 17 27-.995 2.278-3 3.5-4.888-4.374-1-9.5a15.3 15.3 0 0 1-4.5-1.5 3091 3091 0 0 0-9-14q-5.06-7.474-13.5-4 .125-5.753-2-11" style="opacity:1"/><path fill="#fe9a92" d="M104.5 51.5q17.225 2.864 30 14.5 7.116 7.66 10 17.5l-4 2a16.6 16.6 0 0 1-7 .5q-3.783-8.29-11-14-2.911-2.854-7-2.5-5.52-9.05-11-18" style="opacity:1"/><path fill="#ff856e" d="M140.5 26.5a8.44 8.44 0 0 1 4 .5 1876 1876 0 0 0 11 7 56 56 0 0 0 5.5 4.5q1.693 6.96 8.5 9v1a354 354 0 0 0 9 19 3.65 3.65 0 0 1-1 1.5q3.903 5.697 5.5 12.5.258 9.27 1.5 18a5.73 5.73 0 0 0-1 3 6.55 6.55 0 0 0-3 3q.34-5.76-1-12-.034-3.15 2-5.5a227 227 0 0 0-8-25.5q-1.237-1.329-3-1a18.5 18.5 0 0 0-.5-6 52.6 52.6 0 0 1-5.5-8 91.4 91.4 0 0 1-17-15q-2.683-2.3-6-3-1.356-1.063-1-3" style="opacity:1"/><path fill="#fe9594" d="M90.5 57.5a680 680 0 0 0-6 9 52.6 52.6 0 0 0-13 11q-1.924 4.228 0 8.5a16.2 16.2 0 0 1-1.5 3.5q-.981-1.794-1.5 0 .544 1.025 1 2-3.623.19-7 .5a127 127 0 0 0 6.5-8.5q.504-5.25-.5-10.5-.279-6.443 5-10 7.697-5.287 17-5.5" style="opacity:1"/><path fill="#fd8d9b" d="M84.5 66.5a250 250 0 0 1-15 26v-1a44 44 0 0 0-1-2q.519-1.794 1.5 0a16.2 16.2 0 0 0 1.5-3.5q-1.924-4.272 0-8.5a52.6 52.6 0 0 1 13-11" style="opacity:1"/><path fill="#ff635e" d="M153.5 26.5q32.76 24.183 37 65a14.7 14.7 0 0 0-3.5 3l-1-13q-4.103-18.546-16.5-33v-1a136 136 0 0 0-8.5-12 58.4 58.4 0 0 0-8-7q-1.038-1.405.5-2" style="opacity:1"/><path fill="#ff9b7d" d="M172.5 77.5a52.1 52.1 0 0 0 2.5 14q.981-1.794 1.5 0-2.868 3.061-.5 6 .99-2.736 3.5-4 1.34 6.24 1 12a19 19 0 0 1-3 5q-1.228-4.208-1.5-9-1.112 1.712-2.5 0a8195 8195 0 0 0-44 69.5q.195 1.588 1.5 2.5 2.513-1.642 3.5-4.5 4.293-1.395 7-5 1.405-1.038 2 .5v1q-2.005 1.223-3 3.5 1.5 1 3 0a64.7 64.7 0 0 0 12-10 4.93 4.93 0 0 1 3-.5 4.93 4.93 0 0 1 .5-3l11-12q11.535-18.927 13.5-41a5.73 5.73 0 0 1 1-3q1.687 7.804-.5 16a411 411 0 0 1-11.5 30.5q-11.491 16.25-28 26.5-3.654-.274-6.5 2 .116-1.857-.5-3a1219 1219 0 0 1-11 6 6.85 6.85 0 0 1 1-4q-2.15-1.095-3.5-3a14.4 14.4 0 0 1-5.5 2.5 6.98 6.98 0 0 0-2.5 3.5q-1-1.5 0-3 4.986-3.29-.5-4v-1l5-10q2.333-4.356 6-8 3.126-3.495 8-3.5 2.578-2.805 3-6.5a8.4 8.4 0 0 0 4-.5 26.9 26.9 0 0 1 5.5-6.5l1 3q4.267-5.051 6-11-1.217 2.19-2.5 1a295 295 0 0 1 9-21q-2.258-2.013-2-5 .04-2.55 2-4 4.911-10.307 12-19" style="opacity:1"/><path fill="#ff9172" d="M141.5 29.5q3.317.7 6 3a91.4 91.4 0 0 0 17 15 52.6 52.6 0 0 0 5.5 8q.743 2.96.5 6 1.763-.329 3 1a227 227 0 0 1 8 25.5q-2.034 2.35-2 5.5-2.51 1.264-3.5 4-2.368-2.939.5-6-.519-1.794-1.5 0a52.1 52.1 0 0 1-2.5-14v-2q2.005-1.222 3-3.5-5.44-15.297-17-27l-6-1q-4.137-5.31-10-8.5a19.2 19.2 0 0 1-1-6" style="opacity:1"/><path fill="#ffb695" d="M50.5 66.5a77 77 0 0 0 3 12 6.85 6.85 0 0 0 1 4 58.8 58.8 0 0 1-7 10.5 4.93 4.93 0 0 1-3 .5q-1.662-1.185-4-1.5a51 51 0 0 0 4-5.5h-3a70.4 70.4 0 0 0 3.5-11 51.7 51.7 0 0 1 5.5-9" style="opacity:1"/><path fill="#ff9a8e" d="M160.5 96.5q-1.96 1.45-2 4a550 550 0 0 1-7 8q-.516-4.68 2-8.5-3.42-4.857 0-10-1.392-.582-2-2a14.8 14.8 0 0 1 3-5.5q-.705-1.444-2 0a41.5 41.5 0 0 0-1-8l-4-16a21.4 21.4 0 0 0-1-7q-.329-1.762 1-3a61.4 61.4 0 0 1 5 19 108 108 0 0 1 5 8.5q-3.976 4.81.5 1.5 2.477 3.381.5 7 5.427 4.426 0 11 .686 1.195 2 1" style="opacity:1"/><path fill="#ff9277" d="m56.5 22.5 2 4v1q-9.65 3.867-17.5 11-.996 6.528-7.5 6v3q-1.495-.128-2.5 1-2.403 6.134-7.5 10a742 742 0 0 1-7.5 24 210.5 210.5 0 0 0 0 29q.527 6.084 4 11a62 62 0 0 1 2.5 15q-1.185-1.663-1.5-4l-1 1q-6.48-8.364-8-19a641 641 0 0 0-1.5-36q-.356-1.936 1-3a2.43 2.43 0 0 0 .5 2 304 304 0 0 0 11.5-27h3q8.085-17.831 26.5-25a15.7 15.7 0 0 0 3.5-4" style="opacity:1"/><path fill="#fe788a" d="M117.5 130.5a105 105 0 0 1 11-16q1.71-2.367 1.5-5a671 671 0 0 1-30.5 19 337 337 0 0 1-21-13 47 47 0 0 0-3-7q.186-.91 1-1 10.173 4.978 19.5 12 2.685 1.364 5.5.5 16.014-10.005 32-20a38.7 38.7 0 0 1-4-6.5 44.3 44.3 0 0 1 10-2q.215 10.02-4 19a253 253 0 0 0-11.5 18 31.7 31.7 0 0 1-6.5 2" style="opacity:1"/><path fill="#ff918e" d="M151.5 108.5a66.6 66.6 0 0 1-4.5 10q-1.006 1.128-2.5 1a95 95 0 0 0-8 11l-8 6q-.616-1.143-.5-3a32.5 32.5 0 0 1-6.5 7q-2.417-1.23-2-4 .278-2.544 2.5-4l1 2q6.447-1.463 7-8a64 64 0 0 1 10-12q.519-5.772 4.5-10-.702-2.45-3-3.5 5.049-4.395 1-9.5 2.406-2.519 2-6h-4l4-2q4.328.46 8-1 1.295-1.444 2 0a14.8 14.8 0 0 0-3 5.5q.608 1.418 2 2-3.42 5.143 0 10-2.516 3.82-2 8.5" style="opacity:1"/><path fill="#fe878c" d="M115.5 69.5q4.089-.354 7 2.5 7.217 5.71 11 14 3.521.5 7-.5h4q.406 3.481-2 6 4.049 5.105-1 9.5 2.298 1.05 3 3.5-3.981 4.228-4.5 10a64 64 0 0 0-10 12q-.553 6.537-7 8l-1-2q-2.222 1.456-2.5 4a12.9 12.9 0 0 0-5 .5q-.994 2.277-3 3.5a4.93 4.93 0 0 1 .5-3 478 478 0 0 1 5.5-7 31.7 31.7 0 0 0 6.5-2 253 253 0 0 1 11.5-18q4.215-8.98 4-19a44.3 44.3 0 0 0-10 2 561 561 0 0 1-14-24" style="opacity:1"/><path fill="#fd949b" d="M65.5 101.5q2.217-.393 4 1a38.3 38.3 0 0 1 7 5q-.814.09-1 1a47 47 0 0 1 3 7 45 45 0 0 1-10-6l-1 .5q2.49 2.232 3 5.5-3.92.334-5-3.5-1.91-4.944 0-10.5" style="opacity:1"/><path fill="#fefcfe" d="M78.5 115.5a337 337 0 0 0 21 13 671 671 0 0 0 30.5-19q.21 2.633-1.5 5a105 105 0 0 0-11 16 478 478 0 0 0-5.5 7 4.93 4.93 0 0 0-.5 3q-1.494-.129-2.5 1a421 421 0 0 0-8.5 14q-1.495.129-2.5-1a77.6 77.6 0 0 0-8.5-12q-6.75-11.496-15-22-1.48-3.077-4-5-.51-3.268-3-5.5l1-.5a45 45 0 0 0 10 6" style="opacity:1"/><path fill="#fea096" d="M93.5 51.5q-1.455 2.974-3 6-9.303.213-17 5.5-5.279 3.557-5 10 1.004 5.25.5 10.5a127 127 0 0 1-6.5 8.5q3.377-.31 7-.5v1l-4 9q-1.91 5.556 0 10.5 1.08 3.834 5 3.5 2.52 1.923 4 5-2.48.24-4 2a8.4 8.4 0 0 1-4-.5q1.425-1.077.5-2.5a43 43 0 0 1-4.5 6q-5.252-2.77-1-7-1.283-1.19-2.5 1-3.299-7.263 2.5-13-1.283-1.19-2.5 1a773 773 0 0 0-1.5-13 4.93 4.93 0 0 1-3-.5A147 147 0 0 0 67 73.5q.802-4.99-1.5-9.5a26 26 0 0 1 5-5q5.061-.781 9-4 7.386-.457 14-3.5" style="opacity:1"/><path fill="#ffaf86" d="M183.5 102.5q-1.965 22.073-13.5 41l-11 12a4.93 4.93 0 0 0-.5 3 4.93 4.93 0 0 0-3 .5 64.7 64.7 0 0 1-12 10q-1.5 1-3 0 .995-2.277 3-3.5 28.814-18.288 35-52.5-.042-1.605-1-2.5a19 19 0 0 0 3-5 6.55 6.55 0 0 1 3-3" style="opacity:1"/><path fill="#ffbb90" d="M177.5 110.5q.958.895 1 2.5-6.186 34.212-35 52.5v-1a1376 1376 0 0 1 34-54" style="opacity:1"/><path fill="#ffab8d" d="M177.5 110.5a1376 1376 0 0 0-34 54q-.595-1.538-2-.5-2.707 3.605-7 5-.987 2.858-3.5 4.5-1.305-.912-1.5-2.5a8195 8195 0 0 1 44-69.5q1.388 1.712 2.5 0 .272 4.792 1.5 9" style="opacity:1"/><path fill="#ffb194" d="M61.5 128.5q2.51-1.264 3.5-4 2.73 4.88.5 10-3.165 2.175-4 6a10.2 10.2 0 0 0-3 3 495 495 0 0 0-3-4l1-2a55 55 0 0 0-5-5.5 3.94 3.94 0 0 1 1-2q-3.759-4.584 0-9.5-5.112-3.786-2-8.5-1.424-.926-2.5.5l-1-4q-1.38-.645-2.5-1 2.738-5.065 2-11a97 97 0 0 1 6.5-2l.5 1q-1.018 3.132-1 6 3.485 9.826 2 19-.135 6.059 3.5 2l.5 1q-3.968 6.014 3 5" style="opacity:1"/><path fill="#ff746c" d="M10.5 79.5a641 641 0 0 1 1.5 36q1.52 10.636 8 19l1-1q.315 2.337 1.5 4a18.4 18.4 0 0 0 .5 6l1-1a52.2 52.2 0 0 0 6 11q1.517 1.255 3.5 1v4h3a32 32 0 0 0 3 7q2.641.803 4 3l-1 2q-42.287-35.942-32-91" style="opacity:1"/><path fill="#fe8e7f" d="M74.5 120.5q8.25 10.504 15 22-5.67-1.48-10.5-5a7.3 7.3 0 0 1-2 3q1.924-5.453-3.5-8a11.5 11.5 0 0 0 1-2.5q-2.999-3.394-4-7.5 1.52-1.76 4-2" style="opacity:1"/><path fill="#ff998b" d="M144.5 119.5a66.6 66.6 0 0 1-4.5 10 118 118 0 0 0-11.5 17 2.43 2.43 0 0 0-.5-2q-3.65 4.515-9 3-2.696 2.484-6.5 3-1.948-.885-2.5-3a110 110 0 0 0-9.5 8 421 421 0 0 1 8.5-14q1.006-1.129 2.5-1 2.006-1.223 3-3.5a12.9 12.9 0 0 1 5-.5q-.417 2.77 2 4a32.5 32.5 0 0 0 6.5-7q-.116 1.857.5 3l8-6a95 95 0 0 1 8-11" style="opacity:1"/><path fill="#ff9f7b" d="M33.5 47.5q.24 2.55-.5 5-6.56 5.836-10 14a316 316 0 0 0-6 24l-.5 9.5q-.624 11.38 4.5 21.5l1-1q.455 6.59 2 13a356 356 0 0 1 5.5 11q1.763-.329 3 1 1.946 5.73 8 6.5-1.664 2.72 2 2.5 2.406 1.964 2 7h3l-1 2q-2.162 1.98-2 5h-1q-1.359-2.197-4-3a32 32 0 0 1-3-7h-3v-4q-1.983.255-3.5-1a52.2 52.2 0 0 1-6-11l-1 1a18.4 18.4 0 0 1-.5-6 62 62 0 0 0-2.5-15q-3.473-4.916-4-11a210.5 210.5 0 0 1 0-29 742 742 0 0 0 7.5-24q5.097-3.866 7.5-10 1.005-1.128 2.5-1" style="opacity:1"/><path fill="#ff937e" d="M158.5 100.5q-.258 2.987 2 5a295 295 0 0 0-9 21q1.283 1.19 2.5-1-1.733 5.949-6 11l-1-3a26.9 26.9 0 0 0-5.5 6.5 8.4 8.4 0 0 1-4 .5q-.422 3.695-3 6.5-4.874.005-8 3.5.35-2.343 2-4a118 118 0 0 1 11.5-17 66.6 66.6 0 0 0 4.5-10q1.494.128 2.5-1a66.6 66.6 0 0 0 4.5-10 550 550 0 0 0 7-8" style="opacity:1"/><path fill="#ff9e7b" d="M70.5 122.5q1.001 4.106 4 7.5a11.5 11.5 0 0 1-1 2.5q5.424 2.547 3.5 8a7.3 7.3 0 0 0 2-3q4.83 3.52 10.5 5a22.4 22.4 0 0 0-5 7q-2.478 6.63-8 2 3.877-6.377-3.5-5-2.127-5.63-7.5-8.5 1.007-1.48 0-3.5 2.23-5.12-.5-10-.99 2.736-3.5 4a5.73 5.73 0 0 1 1-3 43 43 0 0 0 4.5-6q.925 1.423-.5 2.5a8.4 8.4 0 0 0 4 .5" style="opacity:1"/><path fill="#ff8b75" d="M140.5 176.5q1.305-2.66 4-4 16.509-10.25 28-26.5a411 411 0 0 0 11.5-30.5q2.187-8.196.5-16 .424-1.184 1.5-2 1.986 16.857-3 33a312 312 0 0 1-11 21 193.5 193.5 0 0 0-20.5 20 47.6 47.6 0 0 0-7 4.5 8.4 8.4 0 0 1-4 .5" style="opacity:1"/><path fill="#ffaf86" d="M65.5 134.5q1.007 2.02 0 3.5 5.373 2.87 7.5 8.5 7.377-1.377 3.5 5 5.522 4.63 8-2a35.6 35.6 0 0 0 10 3.5q-2.04 2.906 1 5 6.879.296 13.5 1.5 5.325-2.664 11.5-1l-5 10q-3.388-.413-1-3l-1.5-1q-7.578 3.49-14-1a65 65 0 0 1-8.5-2l-2 1a173 173 0 0 1-13-7l-2.5 3-1-7q-2.468-.29-5.5-.5l-2-2q1.425-1.077.5-2.5-3.438 1.652-4.5-2.5 1.255-1.517 1-3.5.835-3.825 4-6" style="opacity:1"/><path fill="#ff786e" d="M169.5 48.5q12.397 14.454 16.5 33l1 13a14.7 14.7 0 0 1 3.5-3q1.763 66.024-58 93a20.7 20.7 0 0 1 1-5h7v-3a8.4 8.4 0 0 0 4-.5 47.6 47.6 0 0 1 7-4.5 193.5 193.5 0 0 1 20.5-20 312 312 0 0 0 11-21q4.986-16.143 3-33-1.076.816-1.5 2a159 159 0 0 1-1.5-18q-1.597-6.803-5.5-12.5a3.65 3.65 0 0 0 1-1.5 354 354 0 0 1-9-19" style="opacity:1"/><path fill="#fea78b" d="M89.5 142.5a77.6 77.6 0 0 1 8.5 12q1.005 1.129 2.5 1a110 110 0 0 1 9.5-8q.552 2.115 2.5 3 3.804-.516 6.5-3 5.35 1.515 9-3 .696.891.5 2-1.65 1.657-2 4-3.667 3.644-6 8-6.175-1.664-11.5 1a99 99 0 0 0-13.5-1.5q-3.04-2.094-1-5a35.6 35.6 0 0 1-10-3.5 22.4 22.4 0 0 1 5-7" style="opacity:1"/><path fill="#ffb379" d="M56.5 148.5a8.44 8.44 0 0 0 .5 4l1-1q.331 5.164 3 1-.803 2.92 1 6 1.112 1.712 2.5 0 1.329 1.237 1 3 2.551.699 4.5 0 2.022 3.272 5.5 5-2.18 3.216 1 5.5a828 828 0 0 1 19.5 4.5q2.407-.901 4-3a22.3 22.3 0 0 1-.5 6 117.2 117.2 0 0 1-30-3q-.38-3.49 2-6-5.646-1.716-10.5 2a72 72 0 0 0-7.5-3q-1.329-1.237-1-3-3.883.058-6-3l1-2 2-3z" style="opacity:1"/><path fill="#ffb684" d="M61.5 140.5q.255 1.983-1 3.5 1.062 4.152 4.5 2.5.925 1.423-.5 2.5l2 2q3.032.21 5.5.5l1 7 2.5-3a173 173 0 0 0 13 7l2-1a65 65 0 0 0 8.5 2q6.422 4.49 14 1l1.5 1q-2.388 2.587 1 3v1q-2.361.656-3.5 3a132 132 0 0 1-3.5 7h-1q-3.742-.703-8 0 .662-3.025.5-6-1.593 2.099-4 3a828 828 0 0 0-19.5-4.5q-3.18-2.284-1-5.5-3.478-1.728-5.5-5-1.949.699-4.5 0 .329-1.763-1-3-1.388 1.712-2.5 0-1.803-3.08-1-6-2.668 4.164-3-1l-1 1a8.44 8.44 0 0 1-.5-4 16.3 16.3 0 0 0 2-5 10.2 10.2 0 0 1 3-3" style="opacity:1"/><path fill="#ff9473" d="M115.5 169.5q5.486.71.5 4-1 1.5 0 3a6.98 6.98 0 0 1 2.5-3.5 14.4 14.4 0 0 0 5.5-2.5q1.35 1.905 3.5 3a6.85 6.85 0 0 0-1 4q5.358-2.886 11-6 .616 1.143.5 3 2.846-2.274 6.5-2-2.695 1.34-4 4v3h-11a12.9 12.9 0 0 1-5-.5q2.103-2.014-1-2.5-6.786 4.09-15 3a132 132 0 0 0 3.5-7q1.139-2.344 3.5-3" style="opacity:1"/><path fill="#ff9669" d="M46.5 163.5q2.117 3.058 6 3-.329 1.763 1 3 3.825 1.286 7.5 3 4.854-3.716 10.5-2-2.38 2.51-2 6a117.2 117.2 0 0 0 30 3q4.258-.703 8 0a18.5 18.5 0 0 1-2 3.5q-10.99.75-22 .5a50.5 50.5 0 0 1-10-.5q-11.132-2.133-19-10a188 188 0 0 0-10-4.5q-.162-3.02 2-5" style="opacity:1"/><path fill="#ff8266" d="M129.5 179.5q-.656 2.361-3 3.5a209 209 0 0 0-22 3 72.5 72.5 0 0 1-17 0q-2.905-.183-4-2.5 11.01.25 22-.5a18.5 18.5 0 0 0 2-3.5h1q8.214 1.09 15-3 3.103.486 1 2.5a12.9 12.9 0 0 0 5 .5" style="opacity:1"/><path fill="#ff6b5c" d="M43.5 168.5h1a188 188 0 0 1 10 4.5q7.868 7.867 19 10 4.975.747 10 .5 1.095 2.317 4 2.5a72.5 72.5 0 0 0 17 0 209 209 0 0 1 22-3q2.344-1.139 3-3.5h4a20.7 20.7 0 0 0-1 5q-49.058 17.58-90-14z" style="opacity:1"/></svg>