<svg width="303px" height="263px" viewBox="0 0 303 263" version="1.1" xmlns="http://www.w3.org/2000/svg" xmlns:xlink="http://www.w3.org/1999/xlink">
    <title>Group</title>
    <g id="Page-1" stroke="none" stroke-width="1" fill="none" fill-rule="evenodd">
        <g id="Hummus" fill-rule="nonzero">
            <g id="Group" transform="translate(0.003805, 0.959833)">
                <path d="M289.596195,58.7801667 C311.596195,119.240167 300.816195,191.120167 191.336195,230.960167 C81.8561945,270.800167 27.4061945,222.680167 5.3961945,162.220167 C-6.0038055,130.940167 48.4061945,82.4301667 126.876195,53.8701667 C205.346195,25.3101667 278.206195,27.5101667 289.596195,58.7801667 Z" id="Path" fill="#C7676A"></path>
                <path d="M118.106195,249.450167 C98.1061945,249.450167 79.9561945,245.540167 63.8561945,237.710167 C35.9261945,224.140167 14.4461945,198.490167 1.7361945,163.560167 C-10.5738055,129.740167 43.8161945,79.9501667 125.546195,50.2001667 C163.996195,36.2201667 202.296195,29.0401667 233.516195,30.0401667 C265.946195,31.0401667 287.166195,40.7701667 293.256195,57.5001667 C305.976195,92.4401667 305.996195,125.890167 293.336195,154.240167 C277.826195,188.950167 243.956195,216.010167 192.676195,234.680167 C165.536195,244.510167 140.616195,249.450167 118.106195,249.450167 Z M227.996195,37.7101667 C198.746195,37.7101667 163.586195,44.7101667 128.256195,57.5301667 C53.1761945,84.8501667 -1.3838055,132.180167 9.0661945,160.890167 C21.0661945,193.890167 41.1961945,218.020167 67.2761945,230.700167 C99.4861945,246.360167 140.776195,245.210167 190.006195,227.300167 C310.446195,183.460167 301.806195,103.740167 285.926195,60.1201667 L285.926195,60.1201667 C281.076195,46.7901667 261.926195,38.6501667 233.276195,37.7801667 C231.526195,37.7301667 229.746195,37.7101667 227.996195,37.7101667 Z" id="Shape" fill="#3E064F"></path>
                <path d="M246.686195,168.040167 C256.746195,195.700167 262.176195,224.810167 197.686195,248.300167 C133.196195,271.790167 118.606195,246.000167 108.536195,218.300167 C103.326195,203.990167 121.946195,184.070167 168.196195,167.240167 C214.446195,150.410167 241.476195,153.730167 246.686195,168.040167 Z" id="Path" fill="#AAAAAA"></path>
                <path d="M154.846195,261.360167 C145.506195,261.360167 137.526195,259.550167 130.846195,255.930167 C116.196195,248.060167 109.756195,233.080167 104.846195,219.670167 C102.566195,213.390167 102.716195,203.300167 116.426195,190.860167 C127.156195,181.140167 144.596195,171.710167 166.846195,163.610167 C189.096195,155.510167 208.496195,151.530167 222.996195,152.040167 C241.486195,152.750167 248.096195,160.390167 250.376195,166.670167 L250.376195,166.670167 C255.266195,180.080167 259.956195,195.670167 253.796195,211.140167 C247.246195,227.550167 229.326195,240.890167 199.016195,251.920167 C181.766195,258.230167 167.126195,261.360167 154.846195,261.360167 Z M220.186195,159.820167 C208.056195,159.820167 191.186195,163.050167 169.496195,170.940167 C124.296195,187.390167 108.126195,205.940167 112.156195,217.000167 C122.406195,245.150167 135.806195,266.660167 196.316195,244.630167 C224.426195,234.400167 240.846195,222.510167 246.516195,208.290167 C251.666195,195.380167 247.406195,181.440167 243.016195,169.370167 C240.926195,163.610167 233.336195,159.820167 220.186195,159.820167 L220.186195,159.820167 Z" id="Shape" fill="#3E064F"></path>
                <path d="M238.676195,169.110167 C247.676195,193.800167 252.506195,219.790167 194.906195,240.760167 C137.306195,261.730167 124.306195,238.700167 115.316195,214.010167 C110.666195,201.240167 127.316195,183.460167 168.576195,168.430167 C209.836195,153.400167 233.996195,156.340167 238.676195,169.110167 Z" id="Path" fill="#8C8C8C"></path>
                <path d="M23.7061945,179.800167 C24.2661945,167.050167 32.5761945,151.920167 47.7061945,136.740167 C68.9961945,115.360167 100.866195,96.2501667 137.456195,82.9301667 C168.226195,71.7301667 199.076195,65.8101667 225.976195,65.8101667 C231.076195,65.8101667 236.019528,66.0235 240.806195,66.4501667 C262.146195,68.3701667 278.236195,74.6101667 286.866195,84.0201667 C289.736195,78.0201667 291.196195,72.3201667 291.076195,66.9401667 C260.996195,44.6901667 198.586195,44.0401667 132.126195,68.2701667 C65.6661945,92.5001667 18.2061945,133.040167 9.4961945,169.420167 C12.8661945,173.630167 17.6861945,177.090167 23.7061945,179.800167 Z" id="Path" fill="#3E064F"></path>
                <path d="M168.106195,167.140167 C233.396195,143.380167 281.996195,105.810167 289.996195,75.8401667 C264.426195,52.4101667 200.996195,51.1901667 134.736195,75.3201667 C68.4761945,99.4501667 20.6161945,141.130167 16.0961945,175.520167 C41.4361945,193.370167 102.826195,190.900167 168.106195,167.140167 Z" id="Path" fill="#FFEBB1"></path>
                <path d="M168.106195,167.140167 C230.206195,144.530167 277.216195,109.440167 288.496195,80.2801667 C265.586195,56.2801667 202.416195,54.9101667 136.046195,79.0601667 C69.6761945,103.210167 22.1761945,144.870167 20.0461945,177.980167 C47.4361945,193.040167 105.996195,189.740167 168.106195,167.140167 Z" id="Path" fill="#FFDA82"></path>
                <path d="M68.2661945,171.200167 C39.3161945,171.200167 21.1961945,163.450167 15.8461945,148.740167 C3.9961945,116.170167 63.8161945,74.4901667 126.136195,51.8101667 C159.356195,39.7201667 192.376195,32.9301667 219.136195,32.7101667 C248.936195,32.4601667 267.506195,40.2301667 272.936195,55.1701667 C284.796195,87.7401667 224.936195,129.420167 162.656195,152.100167 C129.426195,164.190167 96.4061945,170.970167 69.6561945,171.200167 L68.2661945,171.200167 Z M220.406195,47.7901667 L219.246195,47.7901667 C194.176195,48.0401667 162.996195,54.4701667 131.296195,66.0401667 C60.4361945,91.7801667 24.5561945,128.560167 29.9961945,143.580167 C32.8761945,151.490167 47.9961945,156.300167 69.4961945,156.110167 C94.5561945,155.900167 125.786195,149.440167 157.446195,137.920167 C228.296195,112.130167 264.176195,75.3501667 258.716195,60.3301667 C255.916195,52.5601667 241.276195,47.7901667 220.406195,47.7901667 Z" id="Shape" fill="#3E064F"></path>
                <ellipse id="Oval" fill="#FFDA82" transform="translate(139.498678, 88.531757) rotate(-20.000000) translate(-139.498678, -88.531757) " cx="139.498678" cy="88.5317567" rx="91.89" ry="32.39"></ellipse>
                <path d="M169.706195,111.130167 C171.266195,110.410167 172.802861,109.686833 174.316195,108.960167" id="Path" fill="#FFDA82"></path>
                <path d="M169.706195,115.04017 C167.869658,115.042631 166.280256,113.763458 165.890021,111.968858 C165.499785,110.174258 166.414472,108.350573 168.086195,107.590167 C169.612861,106.9235 171.122861,106.2135 172.616195,105.460167 C173.880222,104.736356 175.442256,104.777265 176.666664,105.566247 C177.891072,106.355229 178.573765,107.760773 178.436937,109.210926 C178.300109,110.66108 177.366567,111.914126 176.016195,112.460167 C174.486195,113.200167 172.916195,113.940167 171.336195,114.670167 C170.82578,114.90925 170.269809,115.035452 169.706195,115.04017 Z" id="Path" fill="#3E064F"></path>
                <path d="M68.4561945,167.400167 C41.4561945,167.400167 24.0461945,160.260167 19.3361945,147.310167 C14.5461945,134.150167 23.6361945,117.210167 44.9261945,99.6101667 C65.2161945,82.8401667 94.4761945,67.0401667 127.316195,55.0401667 C160.686195,42.9001667 193.676195,36.2101667 220.206195,36.2101667 C247.206195,36.2101667 264.616195,43.3401667 269.326195,56.3001667 C274.116195,69.4501667 265.026195,86.3901667 243.736195,103.990167 C223.436195,120.770167 194.176195,136.590167 161.346195,148.540167 C127.996195,160.710167 94.9961945,167.400167 68.4561945,167.400167 Z" id="Path" fill="#FFEBB1"></path>
                <path d="M220.206195,40.0401667 C244.436195,40.0401667 261.506195,45.8901667 265.776195,57.6401667 C274.466195,81.4901667 227.126195,120.640167 160.056195,145.040167 C126.056195,157.430167 93.4261945,163.650167 68.4561945,163.650167 C44.2261945,163.650167 27.1561945,157.790167 22.8861945,146.040167 C14.1961945,122.190167 61.5361945,83.0401667 128.606195,58.6401667 C162.606195,46.2501667 195.236195,40.0401667 220.206195,40.0401667 M220.206195,32.4801667 C193.206195,32.4801667 159.796195,39.2501667 126.026195,51.5401667 C92.7961945,63.6101667 63.1361945,79.6601667 42.5161945,96.7001667 C32.1161945,105.300167 24.4561945,113.800167 19.7561945,121.960167 C12.8361945,133.960167 13.7561945,143.080167 15.7561945,148.600167 C17.7561945,154.120167 22.7561945,161.530167 35.5161945,166.300167 C44.1561945,169.530167 55.2261945,171.170167 68.4361945,171.170167 C95.4361945,171.170167 128.836195,164.400167 162.616195,152.110167 C195.846195,140.010167 225.506195,123.970167 246.116195,106.920167 C256.526195,98.3201667 264.186195,89.8201667 268.886195,81.6701667 C275.806195,69.6701667 274.886195,60.5401667 272.886195,55.0201667 C270.886195,49.5001667 265.886195,42.0901667 253.136195,37.3201667 C244.496195,34.0901667 233.426195,32.4501667 220.216195,32.4501667 L220.206195,32.4801667 Z" id="Shape" fill="#3E064F"></path>
                <ellipse id="Oval" fill="#FFDA82" transform="translate(144.348475, 101.840268) rotate(-20.000000) translate(-144.348475, -101.840268) " cx="144.348475" cy="101.840268" rx="124.4" ry="41.77"></ellipse>
                <path d="M32.2861945,107.170288 C28.0345015,107.189233 24.0901397,104.957071 21.9174695,101.302381 C19.7447993,97.6476908 19.6682323,93.116171 21.7161945,89.3901667 L55.2361945,27.7301667 C57.2723398,23.9278313 61.1924685,21.5107445 65.5042165,21.3990733 C69.8159646,21.2874021 73.8559555,23.4983276 76.0861945,27.1901667 L112.726195,87.0401667 C115.001186,90.7108037 115.128419,95.3207476 113.059351,99.1112786 C110.990284,102.90181 107.044063,105.288253 102.726195,105.360167 L32.5661945,107.170288 L32.2861945,107.170288 Z" id="Path" fill="#C38D44"></path>
                <path d="M65.8161945,25.3397326 C68.6560051,25.3130939 71.2973046,26.7935918 72.7561945,29.2301667 L109.396195,89.0401667 C110.91057,91.5196124 110.988628,94.6182372 109.601014,97.1707873 C108.2134,99.7233373 105.570501,101.342799 102.666195,101.420167 L32.5061945,103.230167 L32.2861945,103.230167 C29.4257086,103.220831 26.7800523,101.710724 25.3173843,99.2524588 C23.8547163,96.7941933 23.7897254,93.7485905 25.1461945,91.2301667 L58.6661945,29.5901667 C60.0678371,26.9484666 62.8258408,25.3090938 65.8161945,25.3397326 M65.8161945,17.5300695 C59.9794771,17.5454124 54.6141605,20.7377758 51.8161945,25.8601667 L18.2961945,87.5201667 C15.6081266,92.4591159 15.7211667,98.448981 18.5936689,103.282992 C21.466171,108.117003 26.6731234,111.080167 32.2961945,111.080167 L32.7161945,111.080167 L102.876195,109.270167 C108.560554,109.119018 113.733321,105.949313 116.448881,100.953261 C119.16444,95.9572094 119.01097,89.8924755 116.046195,85.0401667 L79.4061945,25.1501667 C76.5262532,20.402369 71.3691458,17.5107458 65.8161945,17.5300695 Z" id="Shape" fill="#3E064F"></path>
                <path d="M67.8661945,76.6901667 C54.9961945,85.6401667 45.9961945,94.8801667 42.7161945,103.040167 L102.716195,101.490167 C105.633983,101.410055 108.285523,99.7738008 109.665547,97.201751 C111.045571,94.6297012 110.942798,91.5156305 109.396195,89.0401667 L85.7261945,50.4101667 C76.8061945,58.6001667 70.4861945,67.4501667 67.8661945,76.6901667 Z" id="Path" fill="#B27E38"></path>
                <path d="M187.256195,102.150167 C192.614007,99.106924 197.798659,95.7684492 202.786195,92.1501667 C220.066195,79.5401667 229.296195,66.5801667 225.846195,57.0901667 C223.846195,51.4801667 217.576195,47.8001667 208.436195,46.0201667 C204.027,39.5435464 197.803415,34.5131924 190.546195,31.5601667 C174.356195,24.9101667 186.996195,8.04016667 176.776195,4.22016667 C169.356195,1.42016667 155.956195,21.5501667 132.476195,33.2201667 C105.396195,46.5901667 84.3861945,63.9201667 78.9961945,82.9101667 C59.9361945,96.1401667 49.5161945,109.970167 53.1461945,119.960167 C59.2661945,136.770167 102.886195,136.330167 150.576195,118.960167" id="Path" fill="#FFDA82"></path>
                <path d="M85.1961945,136.180167 C65.6461945,136.180167 52.9861945,130.910167 49.4861945,121.290167 C45.3161945,109.830167 54.5961945,95.3701667 75.6461945,80.4901667 C82.9961945,57.4401667 109.556195,40.1801667 130.746195,29.6801667 C141.796195,24.2101667 150.586195,16.7301667 157.646195,10.6801667 C166.106195,3.48016667 172.206195,-1.71983333 178.156195,0.530166675 C185.156195,3.17016667 185.226195,9.93016667 185.276195,14.8601667 C185.346195,21.2701667 185.716195,25.3201667 192.036195,27.9201667 C199.48024,30.9733823 205.944599,36.0092871 210.726195,42.4801667 C223.246195,45.3001667 227.856195,51.1901667 229.506195,55.7301667 C233.506195,66.7901667 224.866195,80.8401667 205.086195,95.2701667 C199.980068,98.9724766 194.671861,102.387757 189.186195,105.500167 C187.975064,106.191476 186.487125,106.184141 185.282868,105.480926 C184.078612,104.777711 183.340994,103.48545 183.347868,102.090926 C183.354742,100.696402 184.105064,99.4114756 185.316195,98.7201667 C190.550682,95.781025 195.615378,92.5492348 200.486195,89.0401667 C216.486195,77.3701667 224.796195,65.6501667 222.176195,58.4701667 C220.316195,53.3401667 213.266195,50.9701667 207.686195,49.8901667 C206.68027,49.6934622 205.79263,49.1076916 205.216195,48.2601667 C201.246628,42.4020424 195.62521,37.856177 189.066195,35.2001667 C177.646195,30.5101667 177.546195,21.2001667 177.476195,15.0201667 C177.416195,9.67016667 177.086195,8.54016667 175.396195,7.90016667 C173.706195,7.26016667 167.106195,12.9001667 162.706195,16.6901667 C155.316195,22.9801667 146.116195,30.8101667 134.206195,36.6901667 C105.666195,50.8201667 87.3861945,67.6201667 82.7461945,83.9901667 C82.4964307,84.8577215 81.9563072,85.6131884 81.2161945,86.1301667 C63.3761945,98.5001667 53.9961945,110.950167 56.8161945,118.620167 C61.4261945,131.290167 100.516195,133.040167 149.246195,115.300167 C151.253273,114.626219 153.431475,115.676701 154.153708,117.666915 C154.875941,119.657128 153.878381,121.860069 151.906195,122.630167 C128.446195,131.180167 105.146195,135.990167 86.3161945,136.180167 L85.1961945,136.180167 Z" id="Path" fill="#3E064F"></path>
                <circle id="Oval" fill="#FFC466" cx="70.4061945" cy="113.270167" r="3.8"></circle>
                <circle id="Oval" fill="#FFC466" cx="120.236195" cy="145.190167" r="3.8"></circle>
                <circle id="Oval" fill="#E2A749" cx="66.4461945" cy="39.1001667" r="3.8"></circle>
                <circle id="Oval" fill="#E2A749" cx="78.5861945" cy="56.6101667" r="3.8"></circle>
                <circle id="Oval" fill="#E2A749" cx="60.4661945" cy="50.6501667" r="3.8"></circle>
                <circle id="Oval" fill="#E2A749" cx="37.7861945" cy="91.0001667" r="3.8"></circle>
                <circle id="Oval" fill="#FFC466" cx="82.7861945" cy="116.170167" r="3.8"></circle>
                <circle id="Oval" fill="#FFC466" cx="78.0261945" cy="103.090167" r="3.8"></circle>
                <circle id="Oval" fill="#FFC466" cx="36.2861945" cy="139.820167" r="3.8"></circle>
                <path d="M98.7661945,80.5801772 C97.4638436,80.5819417 96.2528068,79.9114129 95.5631103,78.8066778 C94.8734138,77.7019427 94.8027438,76.3194721 95.3761945,75.1501667 C101.526297,64.0025669 111.052833,55.0922276 122.586195,49.7001667 C123.815713,49.0721609 125.289815,49.164438 126.431418,49.9408732 C127.57302,50.7173084 128.200505,52.0543779 128.068223,53.4286448 C127.935941,54.8029116 127.064938,55.9957423 125.796195,56.5401667 C115.851319,61.2455735 107.59964,68.903607 102.166195,78.4701667 C101.528591,79.7648906 100.209398,80.5835661 98.7661945,80.5801772 L98.7661945,80.5801772 Z" id="Path" fill="#FFEBB1"></path>
                <path d="M177.806195,43.8101667 C177.149846,43.8100216 176.50503,43.637611 175.936195,43.3101667 C172.489895,41.3718689 169.798134,38.3277831 168.296195,34.6701667 C167.56994,32.7150787 168.566107,30.5414213 170.521195,29.8151669 C172.476283,29.0889125 174.64994,30.0850788 175.376195,32.0401667 C176.292535,34.0146563 177.79827,35.6566402 179.686195,36.7401667 C181.173009,37.5918343 181.900988,39.3370804 181.460077,40.9928435 C181.019165,42.6486067 179.519657,43.8006974 177.806195,43.8001667 L177.806195,43.8101667 Z" id="Path" fill="#FFEBB1"></path>
                <path d="M93.5561945,153.670167 C91.5541111,153.641295 89.9218649,152.056216 89.8343152,150.055839 C89.7467656,148.055462 91.2342889,146.333842 93.2261945,146.130167 C97.0661945,145.780167 104.416195,144.500167 108.616195,143.570167 C110.630472,143.175251 112.591803,144.459996 113.034491,146.464317 C113.47718,148.468637 112.239424,150.459955 110.246195,150.950167 C104.849737,152.131363 99.3957803,153.032568 93.9061945,153.650167 L93.5561945,153.670167 Z" id="Path" fill="#FFC466"></path>
                <path d="M244.086195,84.6801689 C242.588272,84.6801689 241.231736,83.7954031 240.627594,82.4247158 C240.023452,81.0540285 240.285691,79.4559037 241.296195,78.3501667 C248.186195,70.8301667 250.296195,66.3501667 248.626195,62.7501667 C247.833679,61.5666848 246.603453,60.7465345 245.206195,60.4701667 C243.851759,60.1910456 242.757856,59.1945758 242.353958,57.871976 C241.950059,56.5493761 242.300643,55.1117857 243.268069,54.1236096 C244.235494,53.1354335 245.665322,52.7544238 246.996195,53.1301667 C248.436195,53.4801667 253.326195,54.9801667 255.466195,59.5301667 C259.466195,67.9901667 253.356195,76.3701667 246.876195,83.4501667 C246.16088,84.234736 245.147902,84.6813177 244.086195,84.6801689 L244.086195,84.6801689 Z" id="Path" fill="#FFEBB1"></path>
                <path d="M150.476195,139.620167 C148.624248,139.608835 147.053239,138.257414 146.765291,136.427955 C146.477344,134.598496 147.557268,132.829831 149.316195,132.250167 C152.78839,131.192396 156.197283,129.937015 159.526195,128.490167 C160.752574,127.848861 162.231371,127.929017 163.381246,128.699125 C164.531121,129.469233 165.16822,130.80616 165.042087,132.184336 C164.915955,133.562512 164.046758,134.761581 162.776195,135.310167 C159.153527,136.911629 155.436639,138.290852 151.646195,139.440167 C151.26728,139.557863 150.872963,139.618527 150.476195,139.620167 Z" id="Path" fill="#FFEBB1"></path>
                <path d="M134.846195,144.970167 C132.976211,144.956424 131.397329,143.577396 131.132166,141.726257 C130.867003,139.875118 131.995265,138.10831 133.786195,137.570167 L136.126195,136.860167 C138.095661,136.316554 140.140654,137.43628 140.743594,139.388401 C141.346534,141.340521 140.289183,143.41845 138.356195,144.080167 L135.916195,144.820167 C135.568242,144.919697 135.208102,144.970167 134.846195,144.970167 L134.846195,144.970167 Z" id="Path" fill="#FFEBB1"></path>
                <path d="M174.176195,95.6601667 C172.435983,95.6597197 170.920932,94.4712445 170.506123,92.781194 C170.091314,91.0911434 170.883943,89.3362673 172.426195,88.5301667 C176.806195,86.2301667 180.876195,83.8901667 184.516195,81.5301667 C199.306195,72.0401667 203.386195,65.0501667 202.516195,62.6601667 C201.861578,60.7165056 202.876334,58.6054202 204.803077,57.9025662 C206.729819,57.1997122 208.865539,58.1615394 209.616195,60.0701667 C213.106195,69.6701667 200.116195,80.5001667 188.616195,87.8901667 C184.796195,90.3501667 180.526195,92.8101667 175.946195,95.2101667 C175.401549,95.5018236 174.794003,95.6562843 174.176195,95.6601667 L174.176195,95.6601667 Z" id="Path" fill="#FFEBB1"></path>
                <path d="M167.046195,112.100167 C168.606195,111.380167 170.142861,110.656833 171.656195,109.930167" id="Path" fill="#FFDA82"></path>
                <path d="M167.046195,116.040197 C165.207773,116.047374 163.613967,114.769719 163.221027,112.973767 C162.828087,111.177814 163.742732,109.351331 165.416195,108.590167 C166.956195,107.9235 168.469528,107.2135 169.956195,106.460167 C171.220222,105.736356 172.782256,105.777265 174.006664,106.566247 C175.231072,107.355229 175.913765,108.760773 175.776937,110.210926 C175.640109,111.66108 174.706567,112.914126 173.356195,113.460167 C171.816195,114.200167 170.256195,114.940167 168.676195,115.660167 C168.168082,115.907042 167.611097,116.036891 167.046195,116.040197 L167.046195,116.040197 Z" id="Path" fill="#3E064F"></path>
                <path d="M204.746195,137.660167 C200.16307,130.721438 191.362088,127.917283 183.609629,130.925668 C175.857171,133.934053 171.251408,141.940769 172.548363,150.154715 C173.845317,158.36866 180.693973,164.566762 188.996195,165.040167 C184.703798,172.588661 186.52861,182.136936 193.30208,187.570585 C200.07555,193.004234 209.792318,192.714565 216.23008,186.887074 C222.667843,181.059582 223.920628,171.419561 219.186195,164.140167 C227.8612,164.562271 235.558106,158.62081 237.346551,150.121671 C239.134995,141.622533 234.485272,133.083013 226.375827,129.973223 C218.266382,126.863433 209.099092,130.104438 204.746195,137.620167 L204.746195,137.660167 Z" id="Path" fill="#00B76A"></path>
                <path d="M204.326195,195.390193 C200.570289,195.392783 196.879907,194.406382 193.626195,192.530167 C185.106215,187.590451 180.996192,177.520895 183.626195,168.030167 C182.123457,167.563094 180.677774,166.92914 179.316195,166.140167 C172.157548,162.010877 167.985829,154.155933 168.573459,145.912636 C169.16109,137.66934 174.404857,130.485587 182.076858,127.413513 C189.74886,124.34144 198.501547,125.920641 204.616195,131.480167 C211.50101,124.429352 222.280091,122.920609 230.836195,127.810167 C238.510361,132.229694 242.705464,140.88912 241.416936,149.65067 C240.128408,158.412219 233.617834,165.497203 224.996195,167.520167 C226.987141,174.068851 225.754889,181.173683 221.674971,186.669445 C217.595053,192.165207 211.150829,195.4008 204.306195,195.390193 L204.326195,195.390193 Z M189.996195,133.650167 C188.773747,133.651435 187.55673,133.812808 186.376195,134.130167 C179.851303,135.893229 175.568248,142.128392 176.263902,148.851387 C176.959555,155.574382 182.428548,160.800464 189.176195,161.190167 C190.525652,161.261165 191.74158,162.027405 192.38795,163.214116 C193.03432,164.400827 193.018512,165.837961 192.346195,167.010167 C189.002686,172.894761 190.427612,180.336353 195.708487,184.569539 C200.989362,188.802724 208.562703,188.574205 213.578736,184.030317 C218.59477,179.48643 219.568424,171.972463 215.876195,166.300167 C215.091266,165.07472 215.053922,163.514187 215.779336,162.252598 C216.50475,160.991009 217.872235,160.238253 219.326195,160.300167 C226.088031,160.631434 232.088962,156.001828 233.484519,149.377283 C234.880076,142.752739 231.256849,136.095663 224.936042,133.670881 C218.615235,131.246099 211.469277,133.771911 208.076195,139.630167 C207.399247,140.79538 206.168724,141.528561 204.821756,141.569255 C203.474788,141.609949 202.202249,140.952389 201.456195,139.830167 C198.911637,135.981588 194.609891,133.661798 189.996195,133.650167 L189.996195,133.650167 Z" id="Shape" fill="#3E064F"></path>
                <path d="M235.296195,152.220167 C237.402073,143.681111 232.911273,134.892485 224.757603,131.59584 C216.603934,128.299194 207.266845,131.497006 202.846195,139.100167 C199.635579,134.249554 194.242234,131.291068 188.426195,131.190167 C188.426195,131.410167 188.426195,131.630167 188.376195,131.850167 C187.909555,141.616553 194.191984,150.432014 203.575906,153.178296 C212.959829,155.924578 223.003759,151.887161 227.876195,143.410167 C229.491288,146.973937 232.058954,150.022608 235.296195,152.220167 Z" id="Path" fill="#009F61"></path>
                <path d="M204.326195,195.390193 C200.570289,195.392783 196.879907,194.406382 193.626195,192.530167 C185.106215,187.590451 180.996192,177.520895 183.626195,168.030167 C182.123457,167.563094 180.677774,166.92914 179.316195,166.140167 C172.157548,162.010877 167.985829,154.155933 168.573459,145.912636 C169.16109,137.66934 174.404857,130.485587 182.076858,127.413513 C189.74886,124.34144 198.501547,125.920641 204.616195,131.480167 C211.50101,124.429352 222.280091,122.920609 230.836195,127.810167 C238.510361,132.229694 242.705464,140.88912 241.416936,149.65067 C240.128408,158.412219 233.617834,165.497203 224.996195,167.520167 C226.987141,174.068851 225.754889,181.173683 221.674971,186.669445 C217.595053,192.165207 211.150829,195.4008 204.306195,195.390193 L204.326195,195.390193 Z M189.996195,133.650167 C188.773747,133.651435 187.55673,133.812808 186.376195,134.130167 C179.851303,135.893229 175.568248,142.128392 176.263902,148.851387 C176.959555,155.574382 182.428548,160.800464 189.176195,161.190167 C190.525652,161.261165 191.74158,162.027405 192.38795,163.214116 C193.03432,164.400827 193.018512,165.837961 192.346195,167.010167 C189.002686,172.894761 190.427612,180.336353 195.708487,184.569539 C200.989362,188.802724 208.562703,188.574205 213.578736,184.030317 C218.59477,179.48643 219.568424,171.972463 215.876195,166.300167 C215.091266,165.07472 215.053922,163.514187 215.779336,162.252598 C216.50475,160.991009 217.872235,160.238253 219.326195,160.300167 C226.088031,160.631434 232.088962,156.001828 233.484519,149.377283 C234.880076,142.752739 231.256849,136.095663 224.936042,133.670881 C218.615235,131.246099 211.469277,133.771911 208.076195,139.630167 C207.399247,140.79538 206.168724,141.528561 204.821756,141.569255 C203.474788,141.609949 202.202249,140.952389 201.456195,139.830167 C198.911637,135.981588 194.609891,133.661798 189.996195,133.650167 L189.996195,133.650167 Z" id="Shape" fill="#3E064F"></path>
                <path d="M246.996195,112.930167 C251.073815,105.681219 249.547661,96.5703435 243.33038,91.045885 C237.113098,85.5214265 227.885967,85.0773087 221.166851,89.9791161 C214.447736,94.8809235 212.053619,103.80311 215.416195,111.410167 C206.749131,111.044285 199.098258,117.023966 197.359504,125.522707 C195.62075,134.021448 200.308408,142.525464 208.422764,145.592888 C216.537121,148.660311 225.678085,145.383849 229.996195,137.860167 C233.574418,145.76997 242.368569,149.908715 250.744249,147.624715 C259.119928,145.340715 264.595711,137.31064 263.663272,128.679347 C262.730833,120.048053 255.666421,113.372696 246.996195,112.930167 L246.996195,112.930167 Z" id="Path" fill="#00B76A"></path>
                <path d="M246.086195,152.160167 L245.026195,152.160167 C239.071333,151.877384 233.499664,149.140424 229.636195,144.600167 C223.030995,150.983742 213.108733,152.486374 204.909596,148.344774 C196.71046,144.203174 192.031719,135.325191 193.250024,126.220554 C194.468328,117.115916 201.316623,109.780383 210.316195,107.940167 C210.046964,106.392317 209.953038,104.819055 210.036195,103.250167 C210.432864,94.9838631 215.521961,87.6725102 223.136086,84.4299454 C230.750211,81.1873807 239.548049,82.5848188 245.782683,88.0271037 C252.017316,93.4693886 254.590444,101.9978 252.406195,109.980167 C262.627692,113.100728 269.022974,123.235578 267.440075,133.804937 C265.857176,144.374296 256.773421,152.190959 246.086195,152.180178 L246.086195,152.160167 Z M229.996195,133.960167 L230.186195,133.960167 C231.645468,134.028947 232.943177,134.909535 233.546195,136.240167 C236.331066,142.410389 243.185327,145.643975 249.718203,143.869522 C256.251079,142.095068 260.527541,135.838165 259.80813,129.106925 C259.088719,122.375684 253.586523,117.16389 246.826195,116.810167 C245.477478,116.745505 244.258766,115.986063 243.606483,114.803801 C242.9542,113.621538 242.961661,112.185587 243.626195,111.010167 C246.780629,105.363197 245.579477,98.281876 240.739353,93.9909643 C235.89923,89.7000525 228.724988,89.3563414 223.496827,93.1648911 C218.268666,96.9734409 216.39605,103.907501 218.996195,109.830167 C219.546496,111.064006 219.417216,112.495011 218.654696,113.610248 C217.892176,114.725485 216.605623,115.365229 215.256195,115.300167 C208.493782,115.003005 202.516852,119.661378 201.153601,126.291618 C199.790351,132.921858 203.444494,139.560485 209.775567,141.955488 C216.10664,144.350492 223.23976,141.792615 226.606195,135.920167 C227.302539,134.705776 228.596325,133.957746 229.996195,133.960167 L229.996195,133.960167 Z" id="Shape" fill="#3E064F"></path>
                <circle id="Oval" fill="#12C96A" cx="231.596195" cy="103.620167" r="7.26"></circle>
                <path d="M208.896195,134.650167 C207.272619,134.648248 205.831614,133.609758 205.316195,132.070167 C203.679605,127.310833 205.967249,122.091874 210.576195,120.070167 C212.466408,119.254901 214.661459,120.102039 215.513903,121.975781 C216.366346,123.849522 215.562732,126.060878 213.706195,126.950167 C213.15603,127.121545 212.706518,127.521892 212.472841,128.048624 C212.239163,128.575356 212.24403,129.177282 212.486195,129.700167 C213.145532,131.680062 212.075713,133.8197 210.096195,134.480167 C209.707642,134.599669 209.302651,134.657042 208.896195,134.650167 L208.896195,134.650167 Z" id="Path" fill="#12C96A"></path>
                <path d="M5.3961945,162.220167 C27.3961945,222.680167 81.8661945,270.810167 191.336195,230.960167 C300.806195,191.110167 311.596195,119.240167 289.596195,58.7801667 C300.996195,90.0401667 246.586195,138.570167 168.106195,167.140167 C89.6261945,195.710167 16.7861945,193.500167 5.3961945,162.220167 Z" id="Path" fill="#E6E6E6"></path>
                <path d="M31.3761945,184.190167 C45.9061945,224.090167 97.2561945,255.110167 188.096195,222.040167 C278.936195,188.970167 298.326195,132.200167 283.806195,92.3001667 L228.346195,140.820167 L161.686195,170.660167 L98.4061945,185.930167 L31.3761945,184.190167 Z" id="Path" fill="#C8C8C8"></path>
                <path d="M259.826195,116.040167 C263.322976,137.186512 258.797391,158.876511 247.136195,176.860167 C246.304845,178.100357 246.575744,179.7725 247.756133,180.686774 C248.936521,181.601048 250.623283,181.445219 251.616195,180.330167 C274.616195,155.130167 279.896195,127.650167 275.196195,102.050167 L259.826195,116.040167 Z" id="Path" fill="#FFFFFF"></path>
                <path d="M34.1961945,183.160167 C33.4409965,183.429972 32.8300021,183.998497 32.5065835,184.732336 C32.1831649,185.466174 32.1757919,186.300728 32.4861945,187.040167 C40.9961945,207.750167 59.7661945,225.650167 89.0561945,232.740167 C90.4693174,233.079255 91.9174546,232.331307 92.4589016,230.982703 C93.0003485,229.634099 92.4714725,228.092406 91.2161945,227.360167 C74.7961945,217.790167 62.2161945,203.090167 53.6361945,186.680167 L34.1961945,183.160167 Z" id="Path" fill="#B4B4B4"></path>
                <path d="M118.106195,249.450167 C98.1061945,249.450167 79.9561945,245.540167 63.8561945,237.710167 C35.9361945,224.140167 14.4561945,198.510167 1.7461945,163.590167 L1.7461945,163.590167 L1.7461945,163.590167 L9.0761945,160.920167 L9.0761945,160.920167 C19.5661945,189.600167 91.7661945,190.770167 166.776195,163.470167 C204.276195,149.820167 237.366195,131.210167 259.956195,111.070167 C281.306195,92.0701667 290.776195,73.4501667 285.956195,60.1201667 L285.956195,60.1201667 L293.286195,57.4501667 L293.286195,57.4501667 C305.996195,92.3801667 306.016195,125.820167 293.356195,154.160167 C277.846195,188.870167 243.976195,215.930167 192.696195,234.600167 C165.536195,244.510167 140.616195,249.450167 118.106195,249.450167 Z M18.1561945,181.380167 C30.2261945,203.970167 46.9961945,220.820167 67.2761945,230.700167 C99.4861945,246.360167 140.776195,245.210167 190.006195,227.300167 C292.546195,189.970167 301.516195,126.640167 292.126195,81.7201667 C287.816195,92.8301667 278.716195,104.780167 265.126195,116.890167 C241.816195,137.680167 207.826195,156.820167 169.426195,170.800167 C105.666195,194.040167 46.7961945,197.180167 18.1561945,181.380167 Z" id="Shape" fill="#3E064F"></path>
            </g>
        </g>
    </g>
</svg>
