<svg xmlns="http://www.w3.org/2000/svg" width="303" height="263"><g fill="none" fill-rule="nonzero" transform="translate(.004 .96)"><path fill="#C7676A" d="M289.596 58.78c22 60.46 11.22 132.34-98.26 172.18s-163.93-8.28-185.94-68.74c-11.4-31.28 43.01-79.79 121.48-108.35s151.33-26.36 162.72 4.91"/><path fill="#3E064F" d="M118.106 249.45c-20 0-38.15-3.91-54.25-11.74-27.93-13.57-49.41-39.22-62.12-74.15-12.31-33.82 42.08-83.61 123.81-113.36 38.45-13.98 76.75-21.16 107.97-20.16 32.43 1 53.65 10.73 59.74 27.46 12.72 34.94 12.74 68.39.08 96.74-15.51 34.71-49.38 61.77-100.66 80.44-27.14 9.83-52.06 14.77-74.57 14.77m109.89-211.74c-29.25 0-64.41 7-99.74 19.82-75.08 27.32-129.64 74.65-119.19 103.36 12 33 32.13 57.13 58.21 69.81 32.21 15.66 73.5 14.51 122.73-3.4 120.44-43.84 111.8-123.56 95.92-167.18-4.85-13.33-24-21.47-52.65-22.34-1.75-.05-3.53-.07-5.28-.07"/><path fill="#AAA" d="M246.686 168.04c10.06 27.66 15.49 56.77-49 80.26s-79.08-2.3-89.15-30c-5.21-14.31 13.41-34.23 59.66-51.06s73.28-13.51 78.49.8"/><path fill="#3E064F" d="M154.846 261.36c-9.34 0-17.32-1.81-24-5.43-14.65-7.87-21.09-22.85-26-36.26-2.28-6.28-2.13-16.37 11.58-28.81 10.73-9.72 28.17-19.15 50.42-27.25s41.65-12.08 56.15-11.57c18.49.71 25.1 8.35 27.38 14.63 4.89 13.41 9.58 29 3.42 44.47-6.55 16.41-24.47 29.75-54.78 40.78-17.25 6.31-31.89 9.44-44.17 9.44m65.34-101.54c-12.13 0-29 3.23-50.69 11.12-45.2 16.45-61.37 35-57.34 46.06 10.25 28.15 23.65 49.66 84.16 27.63 28.11-10.23 44.53-22.12 50.2-36.34 5.15-12.91.89-26.85-3.5-38.92-2.09-5.76-9.68-9.55-22.83-9.55"/><path fill="#8C8C8C" d="M238.676 169.11c9 24.69 13.83 50.68-43.77 71.65s-70.6-2.06-79.59-26.75c-4.65-12.77 12-30.55 53.26-45.58s65.42-12.09 70.1.68"/><path fill="#3E064F" d="M23.706 179.8c.56-12.75 8.87-27.88 24-43.06 21.29-21.38 53.16-40.49 89.75-53.81 30.77-11.2 61.62-17.12 88.52-17.12q7.65 0 14.83.64c21.34 1.92 37.43 8.16 46.06 17.57 2.87-6 4.33-11.7 4.21-17.08-30.08-22.25-92.49-22.9-158.95 1.33S18.206 133.04 9.496 169.42c3.37 4.21 8.19 7.67 14.21 10.38"/><path fill="#FFEBB1" d="M168.106 167.14c65.29-23.76 113.89-61.33 121.89-91.3-25.57-23.43-89-24.65-155.26-.52s-114.12 65.81-118.64 100.2c25.34 17.85 86.73 15.38 152.01-8.38"/><path fill="#FFDA82" d="M168.106 167.14c62.1-22.61 109.11-57.7 120.39-86.86-22.91-24-86.08-25.37-152.45-1.22s-113.87 65.81-116 98.92c27.39 15.06 85.95 11.76 148.06-10.84"/><path fill="#3E064F" d="M68.266 171.2c-28.95 0-47.07-7.75-52.42-22.46-11.85-32.57 47.97-74.25 110.29-96.93 33.22-12.09 66.24-18.88 93-19.1 29.8-.25 48.37 7.52 53.8 22.46 11.86 32.57-48 74.25-110.28 96.93-33.23 12.09-66.25 18.87-93 19.1zm152.14-123.41h-1.16c-25.07.25-56.25 6.68-87.95 18.25-70.86 25.74-106.74 62.52-101.3 77.54 2.88 7.91 18 12.72 39.5 12.53 25.06-.21 56.29-6.67 87.95-18.19 70.85-25.79 106.73-62.57 101.27-77.59-2.8-7.77-17.44-12.54-38.31-12.54"/><ellipse cx="139.499" cy="88.532" fill="#FFDA82" rx="91.89" ry="32.39" transform="rotate(-20 139.499 88.532)"/><path fill="#FFDA82" d="M169.706 111.13q2.34-1.08 4.61-2.17"/><path fill="#3E064F" d="M169.706 115.04a3.9 3.9 0 0 1-1.62-7.45 90 90 0 0 0 4.53-2.13 3.9 3.9 0 1 1 3.4 7c-1.53.74-3.1 1.48-4.68 2.21a3.9 3.9 0 0 1-1.63.37"/><path fill="#FFEBB1" d="M68.456 167.4c-27 0-44.41-7.14-49.12-20.09-4.79-13.16 4.3-30.1 25.59-47.7 20.29-16.77 49.55-32.57 82.39-44.57 33.37-12.14 66.36-18.83 92.89-18.83 27 0 44.41 7.13 49.12 20.09 4.79 13.15-4.3 30.09-25.59 47.69-20.3 16.78-49.56 32.6-82.39 44.55-33.35 12.17-66.35 18.86-92.89 18.86"/><path fill="#3E064F" d="M220.206 40.04c24.23 0 41.3 5.85 45.57 17.6 8.69 23.85-38.65 63-105.72 87.4-34 12.39-66.63 18.61-91.6 18.61-24.23 0-41.3-5.86-45.57-17.61-8.69-23.85 38.65-63 105.72-87.4 34-12.39 66.63-18.6 91.6-18.6m0-7.56c-27 0-60.41 6.77-94.18 19.06-33.23 12.07-62.89 28.12-83.51 45.16-10.4 8.6-18.06 17.1-22.76 25.26-6.92 12-6 21.12-4 26.64s7 12.93 19.76 17.7c8.64 3.23 19.71 4.87 32.92 4.87 27 0 60.4-6.77 94.18-19.06 33.23-12.1 62.89-28.14 83.5-45.19 10.41-8.6 18.07-17.1 22.77-25.25 6.92-12 6-21.13 4-26.65s-7-12.93-19.75-17.7c-8.64-3.23-19.71-4.87-32.92-4.87z"/><ellipse cx="144.348" cy="101.84" fill="#FFDA82" rx="124.4" ry="41.77" transform="rotate(-20 144.348 101.84)"/><path fill="#C38D44" d="M32.286 107.17a12 12 0 0 1-10.57-17.78l33.52-61.66a12 12 0 0 1 20.85-.54l36.64 59.85a12 12 0 0 1-10 18.32l-70.16 1.81z"/><path fill="#3E064F" d="M65.816 25.34a8 8 0 0 1 6.94 3.89l36.64 59.81a8.14 8.14 0 0 1-6.73 12.38l-70.16 1.81h-.22a8.14 8.14 0 0 1-7.14-12l33.52-61.64a8 8 0 0 1 7.15-4.25m0-7.81a16 16 0 0 0-14 8.33l-33.52 61.66a15.94 15.94 0 0 0 14 23.56h.42l70.16-1.81a15.93 15.93 0 0 0 13.17-24.23l-36.64-59.89a15.83 15.83 0 0 0-13.59-7.62"/><path fill="#B27E38" d="M67.866 76.69c-12.87 8.95-21.87 18.19-25.15 26.35l60-1.55a8.14 8.14 0 0 0 6.68-12.45l-23.67-38.63c-8.92 8.19-15.24 17.04-17.86 26.28"/><path fill="#FFDA82" d="M187.256 102.15a166 166 0 0 0 15.53-10c17.28-12.61 26.51-25.57 23.06-35.06-2-5.61-8.27-9.29-17.41-11.07a39.8 39.8 0 0 0-17.89-14.46c-16.19-6.65-3.55-23.52-13.77-27.34-7.42-2.8-20.82 17.33-44.3 29-27.08 13.37-48.09 30.7-53.48 49.69-19.06 13.23-29.48 27.06-25.85 37.05 6.12 16.81 49.74 16.37 97.43-1"/><path fill="#3E064F" d="M85.196 136.18c-19.55 0-32.21-5.27-35.71-14.89-4.17-11.46 5.11-25.92 26.16-40.8 7.35-23.05 33.91-40.31 55.1-50.81 11.05-5.47 19.84-12.95 26.9-19 8.46-7.2 14.56-12.4 20.51-10.15 7 2.64 7.07 9.4 7.12 14.33.07 6.41.44 10.46 6.76 13.06a44 44 0 0 1 18.69 14.56c12.52 2.82 17.13 8.71 18.78 13.25 4 11.06-4.64 25.11-24.42 39.54a170 170 0 0 1-15.9 10.23 3.903 3.903 0 0 1-3.87-6.78 160 160 0 0 0 15.17-9.68c16-11.67 24.31-23.39 21.69-30.57-1.86-5.13-8.91-7.5-14.49-8.58a3.9 3.9 0 0 1-2.47-1.63 35.7 35.7 0 0 0-16.15-13.06c-11.42-4.69-11.52-14-11.59-20.18-.06-5.35-.39-6.48-2.08-7.12s-8.29 5-12.69 8.79c-7.39 6.29-16.59 14.12-28.5 20-28.54 14.13-46.82 30.93-51.46 47.3a3.94 3.94 0 0 1-1.53 2.14c-17.84 12.37-27.22 24.82-24.4 32.49 4.61 12.67 43.7 14.42 92.43-3.32a3.9 3.9 0 0 1 2.66 7.33c-23.46 8.55-46.76 13.36-65.59 13.55z"/><circle cx="70.406" cy="113.27" r="3.8" fill="#FFC466"/><circle cx="120.236" cy="145.19" r="3.8" fill="#FFC466"/><circle cx="66.446" cy="39.1" r="3.8" fill="#E2A749"/><circle cx="78.586" cy="56.61" r="3.8" fill="#E2A749"/><circle cx="60.466" cy="50.65" r="3.8" fill="#E2A749"/><circle cx="37.786" cy="91" r="3.8" fill="#E2A749"/><circle cx="82.786" cy="116.17" r="3.8" fill="#FFC466"/><circle cx="78.026" cy="103.09" r="3.8" fill="#FFC466"/><circle cx="36.286" cy="139.82" r="3.8" fill="#FFC466"/><path fill="#FFEBB1" d="M98.766 80.58a3.77 3.77 0 0 1-3.39-5.43 60.2 60.2 0 0 1 27.21-25.45 3.78 3.78 0 1 1 3.21 6.84 53.5 53.5 0 0 0-23.63 21.93 3.78 3.78 0 0 1-3.4 2.11M177.806 43.81a3.75 3.75 0 0 1-1.87-.5 17.57 17.57 0 0 1-7.64-8.64 3.776 3.776 0 1 1 7.08-2.63 10.53 10.53 0 0 0 4.31 4.7 3.78 3.78 0 0 1-1.88 7.06z"/><path fill="#FFC466" d="M93.556 153.67a3.78 3.78 0 0 1-.33-7.54c3.84-.35 11.19-1.63 15.39-2.56a3.78 3.78 0 0 1 1.63 7.38 160 160 0 0 1-16.34 2.7z"/><path fill="#FFEBB1" d="M244.086 84.68a3.78 3.78 0 0 1-2.79-6.33c6.89-7.52 9-12 7.33-15.6a5.37 5.37 0 0 0-3.42-2.28 3.78 3.78 0 1 1 1.79-7.34c1.44.35 6.33 1.85 8.47 6.4 4 8.46-2.11 16.84-8.59 23.92a3.77 3.77 0 0 1-2.79 1.23M150.476 139.62a3.78 3.78 0 0 1-1.16-7.37 95 95 0 0 0 10.21-3.76 3.78 3.78 0 1 1 3.25 6.82 98 98 0 0 1-11.13 4.13 4 4 0 0 1-1.17.18M134.846 144.97a3.78 3.78 0 0 1-1.06-7.4l2.34-.71a3.78 3.78 0 0 1 2.23 7.22l-2.44.74c-.348.1-.708.15-1.07.15M174.176 95.66a3.78 3.78 0 0 1-1.75-7.13c4.38-2.3 8.45-4.64 12.09-7 14.79-9.49 18.87-16.48 18-18.87a3.78 3.78 0 0 1 7.1-2.59c3.49 9.6-9.5 20.43-21 27.82-3.82 2.46-8.09 4.92-12.67 7.32a3.8 3.8 0 0 1-1.77.45"/><path fill="#FFDA82" d="M167.046 112.1q2.34-1.08 4.61-2.17"/><path fill="#3E064F" d="M167.046 116.04a3.9 3.9 0 0 1-1.63-7.45 83 83 0 0 0 4.54-2.13 3.9 3.9 0 1 1 3.4 7c-1.54.74-3.1 1.48-4.68 2.2a3.8 3.8 0 0 1-1.63.38"/><path fill="#00B76A" d="M204.746 137.66a17.67 17.67 0 1 0-15.75 27.38 17.68 17.68 0 1 0 30.19-.9 17.68 17.68 0 1 0-14.44-26.52z"/><path fill="#3E064F" d="M204.326 195.39a21.4 21.4 0 0 1-10.7-2.86 21.64 21.64 0 0 1-10-24.5 21 21 0 0 1-4.31-1.89 21.58 21.58 0 1 1 25.3-34.66 21.64 21.64 0 0 1 26.22-3.67 21.58 21.58 0 0 1-5.84 39.71 21.59 21.59 0 0 1-20.69 27.87zm-14.33-61.74a14 14 0 0 0-3.62.48 13.78 13.78 0 0 0 2.8 27.06 3.89 3.89 0 0 1 3.17 5.82 13.78 13.78 0 1 0 23.53-.71 3.9 3.9 0 0 1 3.45-6 13.78 13.78 0 1 0-11.25-20.67 3.9 3.9 0 0 1-6.62.2 13.78 13.78 0 0 0-11.46-6.18"/><path fill="#009F61" d="M235.296 152.22c2.106-8.539-2.385-17.328-10.538-20.624-8.154-3.297-17.491-.099-21.912 7.504a17.66 17.66 0 0 0-14.42-7.91c0 .22 0 .44-.05.66a21.17 21.17 0 0 0 39.5 11.56 21.25 21.25 0 0 0 7.42 8.81"/><path fill="#3E064F" d="M204.326 195.39a21.4 21.4 0 0 1-10.7-2.86 21.64 21.64 0 0 1-10-24.5 21 21 0 0 1-4.31-1.89 21.58 21.58 0 1 1 25.3-34.66 21.64 21.64 0 0 1 26.22-3.67 21.58 21.58 0 0 1-5.84 39.71 21.59 21.59 0 0 1-20.69 27.87zm-14.33-61.74a14 14 0 0 0-3.62.48 13.78 13.78 0 0 0 2.8 27.06 3.89 3.89 0 0 1 3.17 5.82 13.78 13.78 0 1 0 23.53-.71 3.9 3.9 0 0 1 3.45-6 13.78 13.78 0 1 0-11.25-20.67 3.9 3.9 0 0 1-6.62.2 13.78 13.78 0 0 0-11.46-6.18"/><path fill="#00B76A" d="M246.996 112.93a17.68 17.68 0 1 0-31.58-1.52 17.67 17.67 0 1 0 14.58 26.45 17.67 17.67 0 1 0 17-24.93"/><path fill="#3E064F" d="M246.086 152.16h-1.06a21.55 21.55 0 0 1-15.39-7.56 21.58 21.58 0 1 1-19.32-36.66 21 21 0 0 1-.28-4.69 21.58 21.58 0 1 1 42.37 6.73c10.222 3.12 16.617 13.256 15.034 23.825-1.583 10.57-10.667 18.386-21.354 18.375zm-16.09-18.2h.19a3.89 3.89 0 0 1 3.36 2.28 13.78 13.78 0 1 0 13.28-19.43 3.89 3.89 0 0 1-3.2-5.8 13.77 13.77 0 1 0-24.63-1.18 3.89 3.89 0 0 1-3.74 5.47 13.78 13.78 0 1 0 11.35 20.62 3.9 3.9 0 0 1 3.39-1.96"/><circle cx="231.596" cy="103.62" r="7.26" fill="#12C96A"/><path fill="#12C96A" d="M208.896 134.65a3.78 3.78 0 0 1-3.58-2.58 9.67 9.67 0 0 1 5.26-12 3.78 3.78 0 0 1 3.13 6.88 2 2 0 0 0-1.22 2.75 3.78 3.78 0 0 1-2.39 4.78 3.9 3.9 0 0 1-1.2.17"/><path fill="#E6E6E6" d="M5.396 162.22c22 60.46 76.47 108.59 185.94 68.74s120.26-111.72 98.26-172.18c11.4 31.26-43.01 79.79-121.49 108.36s-151.32 26.36-162.71-4.92"/><path fill="#C8C8C8" d="M31.376 184.19c14.53 39.9 65.88 70.92 156.72 37.85s110.23-89.84 95.71-129.74l-55.46 48.52-66.66 29.84-63.28 15.27z"/><path fill="#FFF" d="M259.826 116.04a86 86 0 0 1-12.69 60.82 2.84 2.84 0 0 0 4.48 3.47c23-25.2 28.28-52.68 23.58-78.28z"/><path fill="#B4B4B4" d="M34.196 183.16a2.92 2.92 0 0 0-1.71 3.88c8.51 20.71 27.28 38.61 56.57 45.7a2.93 2.93 0 0 0 2.16-5.38c-16.42-9.57-29-24.27-37.58-40.68z"/><path fill="#3E064F" d="M118.106 249.45c-20 0-38.15-3.91-54.25-11.74-27.92-13.57-49.4-39.2-62.11-74.12l7.33-2.67c10.49 28.68 82.69 29.85 157.7 2.55 37.5-13.65 70.59-32.26 93.18-52.4 21.35-19 30.82-37.62 26-50.95l7.33-2.67c12.71 34.93 12.73 68.37.07 96.71-15.51 34.71-49.38 61.77-100.66 80.44-27.16 9.91-52.08 14.85-74.59 14.85m-99.95-68.07c12.07 22.59 28.84 39.44 49.12 49.32 32.21 15.66 73.5 14.51 122.73-3.4 102.54-37.33 111.51-100.66 102.12-145.58-4.31 11.11-13.41 23.06-27 35.17-23.31 20.79-57.3 39.93-95.7 53.91-63.76 23.24-122.63 26.38-151.27 10.58"/></g></svg>