<svg xmlns="http://www.w3.org/2000/svg" fill-rule="evenodd" stroke-linejoin="round" stroke-miterlimit="2" clip-rule="evenodd" viewBox="0 0 400 400" width="400" height="400"><circle cx="200" cy="200" r="195.6" fill="#f4ac04"/><path fill="#fcfbfb" d="M76.88 64.88c-.833.833-.682 131.357.153 131.677.912.35 69.481.288 70.005-.063 1.353-.908.879-7.263-1.395-18.694-2.879-14.472-2.944-16.168-.674-17.384 5.772-3.089 14.875 5.551 20.002 18.984 2.481 6.501 2.79 6.884 5.199 6.432 2.91-.546 8.275-7.321 16.911-21.358 1.446-2.351 4.069-6.614 5.83-9.474 1.76-2.86 4.459-7.27 5.998-9.8 9.678-15.91 12.154-18.343 16.065-15.781 3.705 2.429 2.074 8.243-10.263 36.581-5.354 12.299-5.934 14.4-3.972 14.4 1.197 0 5.146-4.488 14.433-16.403 4.714-6.048 9.883-12.641 11.486-14.651 8.194-10.274 13.74-13.574 16.982-10.104 2.827 3.027.908 8.226-8.031 21.758-11.161 16.896-17.696 28.685-16.215 29.253 1.475.566 3.13-.792 19.022-15.613 15.201-14.178 20.782-16.839 23.178-11.055 1.296 3.129.612 4.18-17.584 27.015-7.374 9.254-9.21 11.931-9.21 13.432 0 4.109 6.074 1.362 22.2-10.04 11.375-8.043 14.787-8.983 16.856-4.644.666 1.397-.355 5.772-1.514 6.488-1.338.827 2.264.964 25.294.964 23.173 0 25.21-.054 25.446-.669.612-1.596-1.938-19.018-3.914-26.731-9.725-37.964-38.604-70.803-74.575-84.8-15.664-6.094-26.257-7.983-44.793-7.984-23.368-.001-33.506 2.461-56.957 13.83-4.486 2.175-8.378 3.954-8.65 3.954-.858 0-.993-2.168-.993-16.007 0-11.948-.073-13.535-.633-13.75-1.305-.501-55.178-.272-55.687.237m.936 149.494c-1.086 1.757 2.971 18.036 7.191 28.85 27.299 69.958 108.535 99.816 174.156 64.009 5.082-2.773 6.999-3.595 7.303-3.133.036.055.171 7.108.3 15.672l.234 15.573 27.353-.105c15.044-.058 27.577-.192 27.851-.297.589-.226 1.132-57.327.922-96.943L323 214.2l-30.2-.111c-32.041-.119-39.684.119-42.009 1.307-4.534 2.316-14.951 12.959-22.712 23.204-14.553 19.211-21.665 23.704-36.869 23.291-22.431-.608-39.263-17.186-40.372-39.76-.289-5.887-.571-6.54-3.198-7.395-1.992-.649-69.431-.998-69.824-.362"/></svg>