<svg xmlns="http://www.w3.org/2000/svg" xml:space="preserve" width="1000" height="1000" viewBox="171.017 3677.265 1000 1000"><path fill="#FEA200" d="M1166.974 4177.265c0 273.911-222.047 495.957-495.957 495.957S175.06 4451.176 175.06 4177.265s222.047-495.957 495.957-495.957 495.957 222.047 495.957 495.957"/><path d="M422.453 4001.265h88.855v39.619h-88.855zm0 79.237h88.855v277.331h-88.855z"/><path fill="#FFF" d="M396.548 4001.265h69.918v39.619h-69.918zm0 79.237h69.918v277.331h-69.918z"/><path d="M870.546 4027.876v-41.742h-74.743v-72.097h-47.878v72.097h-48.954v-72.097h-47.878v72.088h-79.938v43.376h44.742v328.234h-44.742v43.376h44.742v.013h35.197v60.701h47.878v-60.701h212.642v-41.337h37.333v-166.158h-78.401v-41.337h41.337v-124.416zm-171.569 83.079v-41.742H803.43v83.079H698.977zm130.232 165.753v41.337H698.977v-82.674h130.232z"/><path d="M747.925 4401.125v60.701h47.878v-60.701h-13.747z"/><g fill="#FFF"><path d="M829.207 4027.876v-41.742h-74.743v-72.097h-47.878v72.097h-48.954v-72.097h-47.878v72.088h-79.938v43.376h44.742v328.234h-44.742v43.376h44.742v.013h35.197v60.701h47.878v-60.701h212.642v-41.337h37.333v-166.158h-78.401v-41.337h41.337v-124.416zm-171.569 83.079v-41.742h104.453v83.079H657.638zm130.232 165.753v41.337H657.638v-82.674H787.87z"/><path d="M706.587 4401.125v60.701h47.878v-60.701h-13.748z"/></g></svg>