<?xml version="1.0" encoding="utf-8"?>
<!-- Generator: Adobe Illustrator 17.0.0, SVG Export Plug-In . SVG Version: 6.00 Build 0)  -->
<!DOCTYPE svg PUBLIC "-//W3C//DTD SVG 1.1//EN" "http://www.w3.org/Graphics/SVG/1.1/DTD/svg11.dtd">
<svg version="1.1" xmlns="http://www.w3.org/2000/svg" xmlns:xlink="http://www.w3.org/1999/xlink" x="0px" y="0px" width="1000px"
	 height="1000px" viewBox="171.017 3677.265 1000 1000" enable-background="new 171.017 3677.265 1000 1000" xml:space="preserve">
<g id="Layer_1">
	<g id="Isolation_Mode_10_">
		<path fill="#FEA200" d="M1166.974,4177.265c0,273.911-222.047,495.957-495.957,495.957S175.06,4451.176,175.06,4177.265
			c0-273.91,222.047-495.957,495.957-495.957S1166.974,3903.355,1166.974,4177.265"/>
	</g>
	<g>
		<g>
			<path d="M422.453,4001.265h88.855v39.619h-88.855V4001.265z M422.453,4080.502h88.855v277.331h-88.855V4080.502z"/>
		</g>
		<g>
			<path fill="#FFFFFF" d="M396.548,4001.265h69.918v39.619h-69.918V4001.265z M396.548,4080.502h69.918v277.331h-69.918V4080.502z"
				/>
		</g>
	</g>
	<g>
		<g>
			<path d="M870.546,4027.876v-41.742h-41.337h-5.816h-27.59v-72.097h-47.878v72.097h-7.612h-41.337h-0.005v-72.097h-47.878v72.088
				h-79.938v43.376h44.742v39.712v41.742v41.337v41.337v41.742v41.337v41.337v39.69h-44.742v43.376h44.742v0.013h35.197v60.701
				h47.878v-60.701h0.005h41.337h41.742h41.337h5.816h82.405v-41.337h37.333v-41.742v-41.337v-41.337v-41.742h-78.401v-41.337
				h41.337v-41.337v-41.742v-41.337H870.546z M698.977,4110.955v-41.742h41.337h41.742h15.558h5.816v41.742v41.337h-5.816h-15.558
				h-41.742h-41.337V4110.955z M829.209,4276.708v41.337h-5.816h-41.337h-41.742h-41.337v-41.337v-41.337h41.337h41.742h41.337
				h5.816V4276.708z"/>
			<polygon points="747.925,4401.125 747.925,4461.826 795.803,4461.826 795.803,4401.125 782.056,4401.125 			"/>
		</g>
		<g>
			<path fill="#FFFFFF" d="M829.207,4027.876v-41.742H787.87h-5.816h-27.59v-72.097h-47.878v72.097h-7.612h-41.337h-0.005v-72.097
				h-47.878v72.088h-79.938v43.376h44.742v39.712v41.742v41.337v41.337v41.742v41.337v41.337v39.69h-44.742v43.376h44.742v0.013
				h35.197v60.701h47.878v-60.701h0.005h41.337h41.742h41.337h5.816h82.405v-41.337h37.333v-41.742v-41.337v-41.337v-41.742h-78.401
				v-41.337h41.337v-41.337v-41.742v-41.337H829.207z M657.638,4110.955v-41.742h41.337h41.742h15.558h5.816v41.742v41.337h-5.816
				h-15.558h-41.742h-41.337V4110.955z M787.87,4276.708v41.337h-5.816h-41.337h-41.742h-41.337v-41.337v-41.337h41.337h41.742
				h41.337h5.816V4276.708z"/>
			<polygon fill="#FFFFFF" points="706.587,4401.125 706.587,4461.826 754.465,4461.826 754.465,4401.125 740.717,4401.125 			"/>
		</g>
	</g>
</g>
<g id="Isolation_Mode">
</g>
</svg>
