<svg xmlns="http://www.w3.org/2000/svg" viewBox="0 0 128 128"><circle cx="64" cy="64" r="64"/><path fill="url(#a)" fill-rule="evenodd" d="M107.456 47.58a20.72 20.72 0 0 1-5.44 14.22 1.43 1.43 0 0 0-.36 1.2c2.332 13.104-1.104 23.88-8.176 31.56-7.428 8.06-18.324 12.072-28.896 12.292h-.38c-10.568-.22-21.464-4.236-28.896-12.296C28.24 86.88 24.804 76.104 27.132 63a1.44 1.44 0 0 0-.36-1.2 20.72 20.72 0 0 1-3.36-23.008c3.732-7.72 13.172-13.748 22.836-11.732q.48.1 1.168.3c1.436.424 2.76 1.148 3.92 2.08 2.584 2.06 7.328 3.44 12.752 3.44h.616c5.424 0 10.168-1.376 12.748-3.44 1.164-.928 2.488-1.656 3.92-2.08a16 16 0 0 1 1.172-.3c9.664-2.012 19.104 4.016 22.836 11.732a20.6 20.6 0 0 1 2.076 8.788m-63.424-7.812a10 10 0 0 1 3.488 1.368c1.78 1.12 1.38 3.568-.324 4.792l-8.72 6.236c-1.704 1.224-4.192.84-4.728-1.172a9.6 9.6 0 0 1-.252-3.68 9.1 9.1 0 0 1 1.168-3.428 8.5 8.5 0 0 1 2.412-2.632 9 9 0 0 1 3.288-1.44 9.2 9.2 0 0 1 3.668-.044m47.088 1.48a8.8 8.8 0 0 1 3.584 6.06 9.5 9.5 0 0 1-.252 3.68c-.54 2.016-3.024 2.4-4.732 1.176l-8.716-6.236c-1.708-1.224-2.108-3.672-.328-4.792a10 10 0 0 1 3.488-1.368 9.2 9.2 0 0 1 3.668.04 8.8 8.8 0 0 1 3.288 1.44M67.632 77.6a10.16 10.16 0 0 0-6.472 0c-1.16.396-2.168 1.008-2.104 1.928.116 1.412 2.36 3.828 3.98 4.328.992.3 1.616.28 2.72 0 1.624-.416 3.88-2.916 3.984-4.328.072-.92-.948-1.532-2.108-1.928m-13.248-6.428a7.2 7.2 0 0 1 2.128 1.884 7.5 7.5 0 0 1 1.264 2.604c.424 1.58-1.128 2.772-2.772 2.584l-4.18-.48-4.156-.464c-1.64-.188-2.864-1.7-2.096-3.144a7.6 7.6 0 0 1 1.836-2.248 7.2 7.2 0 0 1 2.508-1.36 6.92 6.92 0 0 1 5.468.624m27.86.588a7.3 7.3 0 0 0-2.508-1.36 6.92 6.92 0 0 0-5.468.624 7.2 7.2 0 0 0-2.128 1.888 7.6 7.6 0 0 0-1.264 2.604c-.424 1.576 1.124 2.768 2.76 2.584l4.184-.48 4.16-.464c1.648-.188 2.868-1.7 2.1-3.144a8 8 0 0 0-1.836-2.252" clip-rule="evenodd"/><defs><linearGradient id="a" x1="159.212" x2="-25.728" y1="67.356" y2="70.14" gradientUnits="userSpaceOnUse"><stop stop-color="#F8F29C"/><stop offset=".165" stop-color="#F6DB2A"/><stop offset=".333" stop-color="#F4A435"/><stop offset=".55" stop-color="#E85A46"/><stop offset=".699" stop-color="#B93483"/><stop offset=".867" stop-color="#502B6E"/><stop offset="1" stop-color="#2A2136"/></linearGradient></defs></svg>
