<svg xmlns="http://www.w3.org/2000/svg" viewBox="0 0 32 32"><circle cx="16" cy="16" r="16"/><path fill="url(#a)" d="M15.958 24.99a4.8 4.8 0 0 1-.655-.878c-.468-.736-1.252-2.464-1.254-4.364-1.655.966-3.564 1.154-4.442 1.116a4.8 4.8 0 0 1-.986-.104q.552 2.688 2.767 3.924 2.15 1.2 4.57.306m5.94-7.87a5.2 5.2 0 0 0 .981-2.042q.308-1.287.012-2.585l1.75-.496a1.02 1.02 0 0 0 .642-.492 1.02 1.02 0 0 0 .08-.804 1.02 1.02 0 0 0-.49-.643 1.02 1.02 0 0 0-.805-.08l-1.952.554q-.973-1.251-2.005-1.813-1.032-.561-2.382-.578l-.573-2.02a1.02 1.02 0 0 0-.491-.642 1.02 1.02 0 0 0-.805-.08 1.02 1.02 0 0 0-.642.49 1.02 1.02 0 0 0-.081.805l.496 1.75a5.4 5.4 0 0 0-2.183 1.402 5.6 5.6 0 0 0-1.144 1.76l5.84.72zM9.59 12.238a3.833 3.833 0 0 0 .029 7.666h.022c.892.042 3.061-.204 4.605-1.453l3.066-5.261zm5.476 6.713 3.013-5.17 4.707 6.037a3.833 3.833 0 0 1-6.656 3.805l-.011-.02c-.477-.743-1.334-2.71-1.053-4.652"/><defs><linearGradient id="a" x1="37.205" x2="-4.942" y1="15.596" y2="16.171" gradientUnits="userSpaceOnUse"><stop stop-color="#F8F29C"/><stop offset=".165" stop-color="#F6DB2A"/><stop offset=".333" stop-color="#F4A435"/><stop offset=".55" stop-color="#E85A46"/><stop offset=".699" stop-color="#B93483"/><stop offset=".867" stop-color="#502B6E"/><stop offset="1" stop-color="#2A2136"/></linearGradient></defs></svg>
