<svg xmlns="http://www.w3.org/2000/svg" xml:space="preserve" viewBox="0 0 500 500"><circle cx="250" cy="250" r="250" style="fill:#01041c"/><path d="M286 250c45.6-71 80.9-114.7 100.5-136.5C364.7 133.1 321 168.4 250 214c-71-45.6-114.7-80.9-136.5-100.5C133.1 135.3 168.4 179 214 250c-45.6 71-80.9 114.7-100.5 136.5C135.3 366.9 179 331.6 250 286c71 45.6 114.7 80.9 136.5 100.5C366.9 364.7 331.6 321 286 250m-36 20.5-98.2 77.7 77.7-98.2-77.7-98.2 98.2 77.7 98.2-77.7-77.7 98.2 77.7 98.2z" style="fill:#fff"/></svg>