<?xml version="1.0" encoding="utf-8"?>
<!-- Generator: Adobe Illustrator 24.0.1, SVG Export Plug-In . SVG Version: 6.00 Build 0)  -->
<svg version="1.1" id="ICA" xmlns="http://www.w3.org/2000/svg" xmlns:xlink="http://www.w3.org/1999/xlink" x="0px" y="0px"
	 viewBox="0 0 500 500" style="enable-background:new 0 0 500 500;" xml:space="preserve">
<style type="text/css">
	.st0{fill:#01041C;}
	.st1{fill:#FFFFFF;}
</style>
<circle id="baackground" class="st0" cx="250" cy="250" r="250"/>
<path id="icarus" class="st1" d="M286,250c45.6-71,80.9-114.7,100.5-136.5C364.7,133.1,321,168.4,250,214
	c-71-45.6-114.7-80.9-136.5-100.5C133.1,135.3,168.4,179,214,250c-45.6,71-80.9,114.7-100.5,136.5C135.3,366.9,179,331.6,250,286
	c71,45.6,114.7,80.9,136.5,100.5C366.9,364.7,331.6,321,286,250z M250,270.5l-98.2,77.7l77.7-98.2l-77.7-98.2l98.2,77.7l98.2-77.7
	L270.5,250l77.7,98.2L250,270.5z"/>
</svg>
