<svg xmlns="http://www.w3.org/2000/svg" width="96" height="96" fill="none"><path fill="#080A26" d="M48 96c26.51 0 48-21.49 48-48S74.51 0 48 0 0 21.49 0 48s21.49 48 48 48"/><path fill="#FF0EA9" d="M53.65 25.208 34.52 74.182s-.39 1.17-1.715 1.403c-1.169.234-2.026-.39-2.454-1.091C30 73.909 30 73.286 30 73.286V24.312a2.345 2.345 0 0 1 2.338-2.338l19.051-.038c1.715.038 2.845 1.714 2.26 3.272"/><path fill="#00DAFF" d="M59.922 29.767c.78-1.754 2.689-1.676 3.507-1.052.116.117.194.156.194.117C69.701 34.13 73.403 42 72.935 50.65c-.78 14.337-12.584 25.675-27.117 25.675h-.662c-1.597-.039-2.844-1.558-2.143-3.312z"/></svg>