<svg xmlns="http://www.w3.org/2000/svg" width="96" height="96" fill="none"><circle cx="48" cy="48" r="48" fill="#050A5A"/><path fill="#fff" d="M34.992 37.568a7.764 7.764 0 1 0 0-15.529 7.764 7.764 0 0 0 0 15.529"/><path fill="#00FFB9" d="M70.55 37.567H59.797a2.42 2.42 0 0 1-2.407-2.407V24.407A2.42 2.42 0 0 1 59.797 22h10.754a2.42 2.42 0 0 1 2.406 2.407V35.16a2.394 2.394 0 0 1-2.406 2.407z"/><path fill="#00DAFF" d="M42.755 44.904H30.487a3.297 3.297 0 0 0-3.3 3.3v24.497a3.297 3.297 0 0 0 3.3 3.299h8.968c1.825 0 3.3-1.475 3.3-3.3v-8.929c0-1.824 1.475-3.3 3.3-3.3h8.501c1.825 0 3.3-1.475 3.3-3.3v-8.967c0-1.825-1.475-3.3-3.3-3.3z"/></svg>