<svg width="96" height="96" fill="none" xmlns="http://www.w3.org/2000/svg"><circle cx="48" cy="48" r="48" fill="#050A5A"/><path d="M34.992 37.568a7.764 7.764 0 100-15.529 7.764 7.764 0 000 15.529z" fill="#fff"/><path d="M70.55 37.567H59.797a2.419 2.419 0 01-2.407-2.407V24.407A2.419 2.419 0 0159.797 22h10.754a2.419 2.419 0 012.406 2.407V35.16a2.394 2.394 0 01-2.406 2.407z" fill="#00FFB9"/><path d="M42.755 44.904H30.487a3.297 3.297 0 00-3.3 3.3v24.497c0 1.824 1.476 3.299 3.3 3.299h8.968c1.825 0 3.3-1.475 3.3-3.3v-8.929c0-1.824 1.475-3.3 3.3-3.3h8.501c1.825 0 3.3-1.475 3.3-3.3v-8.967c0-1.825-1.475-3.3-3.3-3.3H42.755z" fill="#00DAFF"/></svg>
