<svg xmlns="http://www.w3.org/2000/svg" width="500" height="500" fill="none"><g clip-path="url(#a)"><path fill="#fff" stroke="#ECEDEF" d="M499.5 250c0 137.795-111.705 249.5-249.5 249.5S.5 387.795.5 250 112.205.5 250 .5 499.5 112.205 499.5 250Z"/><path fill="#000" d="m224.281 294.519 94.61-1.896-51.342-73.046-88.846-7.891z" opacity=".6"/><path fill="#000" d="m310.999 306.258-94.561 1.813-33.899 58.715z" opacity=".8"/><path fill="#000" d="m216.453 308.079-45.627-82.75 11.727 141.465zM267.541 219.59l49.893-86.418-138.74 78.527 45.579 82.834z" opacity=".45"/><path fill="#000" d="m224.281 294.519 94.61-1.897-1.448-159.464z" opacity=".8"/><path fill="#000" fill-rule="evenodd" d="m243.035 175.282 17.691-10.013c-20.269-9.79-41.377-17.732-62.96-23.534-27.915-6.97-59.061-11.248-87.18-1.486-9.317 3.535-18.172 8.95-24.495 16.775-1.43 1.611-3.117 4.211-4.299 6.035-2.981 5.303-5.288 11.258-6.143 17.271-3.466 22.269 5.952 43.943 17.148 62.227 21.887 34.358 52.879 61.918 86.467 84.562l-2.763-33.333c-12.803-9.174-24.952-19.185-36.142-30.096-18.903-18.779-40.181-44.101-43.714-71.076-1.845-18.206 8.012-29.296 24.63-34.78 29.514-8.916 64.811-1.733 93.966 7.195a372 372 0 0 1 27.794 10.253m75.167 41.522c24.554 17.563 46.542 38.156 63.422 61.196 15.314 21.312 31.742 56.485 7.246 76.999-22.617 17.631-59.366 13.916-86.201 8.692l-1.374 6.259c33.633 7.927 90.343 13.016 106.725-25.85 14.336-38.088-21.975-83.664-47.461-109.064a383 383 0 0 0-42.514-35.581z" clip-rule="evenodd" opacity=".45"/></g><defs><clipPath id="a"><path fill="#fff" d="M0 0h500v500H0z"/></clipPath></defs></svg>