<svg xmlns="http://www.w3.org/2000/svg" viewBox="0 0 24 24"><defs><style>.a{fill:none;}.b,.f{fill:#fff;}.c,.e{fill:#012169;}.d{clip-path:url(#a);}.e,.f,.g{fill-rule:evenodd;}.g{fill:#c8102e;}</style><clipPath id="a"><circle class="a" cx="12" cy="12" r="10.01"/></clipPath></defs><title>jNZD-24px</title><circle class="b" cx="11.98" cy="11.98" r="11.98"/><path class="c" d="M12,1a11,11,0,1,0,7.78,3.22A11,11,0,0,0,12,1m0-1A12,12,0,1,1,0,12,12,12,0,0,1,12,0Z"/><g class="d"><path class="e" d="M-1.32,2H29.5V22.54H-1.32Z"/><path class="f" d="M22,3.82l.4,1.23h1.3l-1,.76.4,1.24L22,6.28,21,7.05l.4-1.24-1.05-.76h1.3Z"/><path class="f" d="M17.17,9.29l.4,1.24h1.3l-1.05.76.4,1.23-1-.76-1.05.76.4-1.23-1-.77h1.3Z"/><path class="f" d="M22,16.48l.44,1.36h1.43l-1.16.84L23.15,20,22,19.19,20.84,20l.45-1.36-1.16-.84h1.43Z"/><path class="g" d="M3.3,5.41h.51L-1.32,2v.68L2.79,5.41Z"/><path class="g" d="M10,8.84H9l5.14,3.42v-.68Z"/><path class="g" d="M8.44,5.41H9L14.09,2h-1L7.92,5.41Z"/><path class="g" d="M-.81,12.26H-.3L4.84,8.84h-1l-5.13,3.42Z"/><path class="f" d="M2.28,8.84l-3.6,2.4v1L3.81,8.84h.86V9l-5,3.31H.22l4.45-3v3H8.1v-3l4.45,3h1.54L9,8.84h1l4.11,2.74v-.34l-3.6-2.4h3.6V5.41h-3.6L14.09,3V2L9,5.41H8.1V5.3l5-3.31h-.51L8.1,5V2H4.67V5L.22,2H-1.32L3.81,5.41h-1L-1.32,2.67V3l3.6,2.4h-3.6V8.84Z"/><path class="g" d="M5.36,12.26V8.15H-1.32V6.1H5.36V2H7.41V6.1h6.68V8.15H7.41v4.11Z"/><path class="g" d="M22,17.17l.28.87h.92l-.74.54.29.87L22,18.91l-.74.54.28-.87L20.8,18h.92Z"/><path class="g" d="M17.17,10l.25.75h.78l-.64.46.25.74-.64-.46-.63.46.24-.74-.63-.46h.78Z"/><path class="g" d="M22,4.5l.24.75h.79l-.64.46.25.75L22,6l-.63.46.24-.75L21,5.25h.78Z"/></g></svg>