<svg xmlns="http://www.w3.org/2000/svg" viewBox="0 0 24 24"><defs><clipPath id="a"><circle cx="12" cy="12" r="10.01" style="fill:none"/></clipPath><style>.f,.g{fill:#fff;fill-rule:evenodd}.g{fill:#c8102e}</style></defs><circle cx="11.98" cy="11.98" r="11.98" style="fill:#fff"/><path d="M12 1a11 11 0 1 0 7.78 3.22A11 11 0 0 0 12 1m0-1A12 12 0 1 1 0 12 12 12 0 0 1 12 0" style="fill:#012169"/><g style="clip-path:url(#a)"><path d="M-1.32 2H29.5v20.54H-1.32Z" style="fill:#012169;fill-rule:evenodd"/><path d="m22 3.82.4 1.23h1.3l-1 .76.4 1.24-1.1-.77-1 .77.4-1.24-1.05-.76h1.3ZM17.17 9.29l.4 1.24h1.3l-1.05.76.4 1.23-1-.76-1.05.76.4-1.23-1-.77h1.3ZM22 16.48l.44 1.36h1.43l-1.16.84.44 1.32-1.15-.81-1.16.81.45-1.36-1.16-.84h1.43Z" class="f"/><path d="M3.3 5.41h.51L-1.32 2v.68l4.11 2.73ZM10 8.84H9l5.14 3.42v-.68ZM8.44 5.41H9L14.09 2h-1L7.92 5.41ZM-.81 12.26h.51l5.14-3.42h-1l-5.13 3.42Z" class="g"/><path d="m2.28 8.84-3.6 2.4v1l5.13-3.4h.86V9l-5 3.31h.55l4.45-3v3H8.1v-3l4.45 3h1.54L9 8.84h1l4.11 2.74v-.34l-3.6-2.4h3.6V5.41h-3.6L14.09 3V2L9 5.41h-.9V5.3l5-3.31h-.51L8.1 5V2H4.67v3L.22 2h-1.54l5.13 3.41h-1l-4.13-2.74V3l3.6 2.4h-3.6v3.44Z" class="f"/><path d="M5.36 12.26V8.15h-6.68V6.1h6.68V2h2.05v4.1h6.68v2.05H7.41v4.11ZM22 17.17l.28.87h.92l-.74.54.29.87-.75-.54-.74.54.28-.87-.74-.58h.92ZM17.17 10l.25.75h.78l-.64.46.25.74-.64-.46-.63.46.24-.74-.63-.46h.78ZM22 4.5l.24.75h.79l-.64.46.25.75L22 6l-.63.46.24-.75-.61-.46h.78Z" class="g"/></g></svg>