<svg xmlns="http://www.w3.org/2000/svg" width="1163" height="1163" fill="none"><circle cx="581.073" cy="581.17" r="581.045" fill="#121212"/><path fill="#FF4500" fill-rule="evenodd" d="M551.899 287.873v215.56c0 7.394 5.994 13.387 13.388 13.387s13.388-5.993 13.388-13.387v-215.56h265.961c16.422 0 29.734 13.312 29.734 29.734v256.168H658.494c-7.394 0-13.388 5.994-13.388 13.388s5.994 13.389 13.388 13.389H874.37v244.182c0 16.42-13.312 29.733-29.734 29.733H317.509c-16.421 0-29.733-13.313-29.733-29.733V317.607c0-16.422 13.312-29.734 29.733-29.734zm26.776 374.306c0-7.394-5.994-13.388-13.388-13.388s-13.388 5.994-13.388 13.388v212.28h26.776z" clip-rule="evenodd"/></svg>