<svg width="715" height="715" viewBox="0 0 715 715" fill="none" xmlns="http://www.w3.org/2000/svg">
<circle cx="357.464" cy="357.464" r="357.464" fill="#CCD7C0"/>
<path d="M234.396 504.798V210.129H198.46V504.798H234.396ZM476.15 504.798L346.729 342.074L329.891 355.698L448.506 504.798H476.15ZM535.457 533.307H434.685L307.525 373.61L262.793 409.687V533.307H170.062V181.621H262.793V372.853L501.029 181.621H546.515L369.095 324.162L452.276 428.734L535.457 533.307Z" fill="#20412F"/>
<circle cx="357.464" cy="357.464" r="357.464" fill="#CCD7C0"/>
<path d="M234.396 504.798V210.129H198.46V504.798H234.396ZM476.15 504.798L346.729 342.074L329.891 355.698L448.506 504.798H476.15ZM535.457 533.307H434.685L307.525 373.61L262.793 409.687V533.307H170.062V181.621H262.793V372.853L501.029 181.621H546.515L369.095 324.162L452.276 428.734L535.457 533.307Z" fill="#20412F"/>
</svg>
