<svg xmlns="http://www.w3.org/2000/svg" width="715" height="715" fill="none"><circle cx="357.464" cy="357.464" r="357.464" fill="#CCD7C0"/><path fill="#20412F" d="M234.396 504.798V210.129H198.46v294.669zm241.754 0L346.729 342.074l-16.838 13.624 118.615 149.1zm59.307 28.509H434.685L307.525 373.61l-44.732 36.077v123.62h-92.731V181.621h92.731v191.232l238.236-191.232h45.486l-177.42 142.541 83.181 104.572z"/><circle cx="357.464" cy="357.464" r="357.464" fill="#CCD7C0"/><path fill="#20412F" d="M234.396 504.798V210.129H198.46v294.669zm241.754 0L346.729 342.074l-16.838 13.624 118.615 149.1zm59.307 28.509H434.685L307.525 373.61l-44.732 36.077v123.62h-92.731V181.621h92.731v191.232l238.236-191.232h45.486l-177.42 142.541 83.181 104.572z"/></svg>