<svg xmlns="http://www.w3.org/2000/svg" width="365" height="365"><path fill="#44cdf7" d="M182 351v-.01Z"/><linearGradient id="a" x1="-28.456" x2="228.095" y1="94.289" y2="246.565" gradientUnits="userSpaceOnUse"><stop offset=".005" stop-color="#142e77"/><stop offset=".518" stop-color="#1f7cb6"/><stop offset="1" stop-color="#3cedfc"/></linearGradient><path fill="url(#a)" d="M162.83 211.75c-7.05 4-13.46 8.89-19.14 14.68-7.86 8-14.06 17.46-18.49 28.03-2.38 5.65-4.11 11.52-5.24 17.58-7.85-.11-15.84-1.68-23.98-4.75-2.12-.79-4.24-1.69-6.38-2.69-10.65-4.97-20.31-11.73-28.98-20.27-8.65-8.52-15.71-18.58-21.2-30.15q-8.19-17.385-8.19-37.17V64.28l29.3 18.11 29.8-18.4v113.02c0 4.68 1.19 9.14 3.59 13.41 2.38 4.24 5.22 7.98 8.52 11.11 3.27 3.16 6.59 5.62 9.97 7.46 3.41 1.84 6.19 2.76 8.38 2.76z"/><linearGradient id="b" x1="-25.829" x2="230.723" y1="89.862" y2="242.138" gradientUnits="userSpaceOnUse"><stop offset=".005" stop-color="#142e77"/><stop offset=".518" stop-color="#1f7cb6"/><stop offset="1" stop-color="#3cedfc"/></linearGradient><path fill="url(#b)" d="M194.19 277.6c-3 3.03-4.49 6.81-4.49 11.27 0 4.24 1.49 7.92 4.49 10.95 2.97 3.05 6.57 4.57 10.73 4.57h122.11l-59.12 60.34h-62.99c-10.14 0-19.76-2-28.79-5.95-9.08-3.97-16.98-9.38-23.74-16.3-6.79-6.89-12.11-14.98-15.98-24.22-3.89-9.25-5.84-19.03-5.84-29.39 0-10.57 1.95-20.47 5.84-29.71 3.87-9.25 9.19-17.33 15.98-24.22 6.76-6.89 14.65-12.33 23.74-16.3 9.03-3.95 18.65-5.95 28.79-5.95h54.04c4.19 0 7.76-1.51 10.76-4.57 2.97-3.03 4.46-6.7 4.46-10.95 0-4.46-1.49-8.25-4.46-11.27-3-3.05-6.57-4.57-10.76-4.57H121.45v-60.34h137.52c10.16 0 19.76 2 28.82 5.95 9.06 3.97 16.95 9.41 23.74 16.3 6.76 6.92 12.08 14.98 15.98 24.22 3.87 9.25 5.81 19.14 5.81 29.71 0 10.35-1.95 20.14-5.81 29.39-3.89 9.25-9.22 17.33-15.98 24.22-6.79 6.92-14.68 12.33-23.74 16.3-9.06 3.95-18.65 5.95-28.82 5.95h-54.04c-4.17 0-7.76 1.52-10.74 4.57"/><linearGradient id="c" x1="150.001" x2="111.311" y1="250.861" y2="229.55" gradientUnits="userSpaceOnUse"><stop offset="0" stop-color="#0a207a"/><stop offset="1" stop-color="#2865c3" stop-opacity="0"/></linearGradient><path fill="url(#c)" d="M162.83 211.75c-7.05 4-13.46 8.89-19.14 14.68-7.86 8-14.06 17.46-18.49 28.03-2.38 5.65-4.11 11.52-5.24 17.58-7.85-.11-15.84-1.68-23.98-4.75 3.44-14.65 11.44-39.15 28.56-55.54z"/><linearGradient id="d" x1="43.312" x2="115.018" y1="9.681" y2="52.242" gradientUnits="userSpaceOnUse"><stop offset=".005" stop-color="#142e77"/><stop offset=".518" stop-color="#1f7cb6"/><stop offset="1" stop-color="#3cedfc"/></linearGradient><path fill="url(#d)" d="M90.48 53.12 60.31 38.79V.76Z"/><linearGradient id="e" x1="77.455" x2="6.381" y1="9.953" y2="52.139" gradientUnits="userSpaceOnUse"><stop offset=".005" stop-color="#142e77"/><stop offset=".518" stop-color="#1f7cb6"/><stop offset="1" stop-color="#3cedfc"/></linearGradient><path fill="url(#e)" d="M60.53.98v38.03L30.69 52.98Z"/><linearGradient id="f" x1="48.411" x2="93.817" y1="46.169" y2="73.12" gradientUnits="userSpaceOnUse"><stop offset=".005" stop-color="#142e77"/><stop offset=".518" stop-color="#1f7cb6"/><stop offset="1" stop-color="#3cedfc"/></linearGradient><path fill="url(#f)" d="M60.53 38.24v33.15l29.95-18.27Z"/><linearGradient id="g" x1="72.758" x2="27.352" y1="46.036" y2="72.986" gradientUnits="userSpaceOnUse"><stop offset=".005" stop-color="#142e77"/><stop offset=".518" stop-color="#1f7cb6"/><stop offset="1" stop-color="#3cedfc"/></linearGradient><path fill="url(#g)" d="M60.64 38.1v33.15L30.69 52.98Z"/></svg>