<svg xmlns="http://www.w3.org/2000/svg" width="72" height="72" fill="none"><g clip-path="url(#a)"><path fill="url(#b)" d="M36 70.157c18.864 0 34.157-15.293 34.157-34.157S54.864 1.843 36 1.843C17.135 1.843 1.843 17.136 1.843 36S17.135 70.157 36 70.157"/><path fill="#7333FF" fill-rule="evenodd" d="M36 3.686C18.153 3.686 3.686 18.153 3.686 36S18.153 68.314 36 68.314c17.846 0 32.314-14.467 32.314-32.314S53.846 3.686 36 3.686M0 36C0 16.118 16.118 0 36 0s36 16.118 36 36-16.118 36-36 36S0 55.882 0 36" clip-rule="evenodd"/><path fill="url(#c)" d="M36 63.522c13.843 0 25.065-11.222 25.065-25.065S49.843 13.392 36 13.392 10.935 24.614 10.935 38.457 22.157 63.522 36 63.522"/><path fill="url(#d)" d="M36 61.065c13.843 0 25.065-11.222 25.065-25.065S49.843 10.935 36 10.935 10.935 22.157 10.935 36 22.157 61.065 36 61.065"/><path fill="#8457FF" d="M61.065 36c0 .86 0 1.72-.123 2.58C59.59 25.925 48.901 16.096 36 16.096S12.41 25.925 11.058 38.58c-.123-.86-.123-1.72-.123-2.58A25.013 25.013 0 0 1 36 10.935 25.013 25.013 0 0 1 61.065 36" opacity=".5"/><path fill="#7333FF" fill-rule="evenodd" d="M34.071 37.929c.36.36.36.943 0 1.303l-3.809 3.809c-1.36 1.36-1.36 3.725 0 5.086 1.36 1.36 3.726 1.36 5.086 0l.652-.652.651.651c1.36 1.36 3.726 1.36 5.086 0s1.36-3.725 0-5.085l-3.809-3.81a.922.922 0 0 1 1.303-1.303l3.81 3.81c2.08 2.08 2.08 5.612 0 7.692-1.877 1.876-4.934 2.06-7.041.552-2.108 1.508-5.165 1.324-7.041-.552-2.08-2.08-2.08-5.613 0-7.693l3.809-3.809a.92.92 0 0 1 1.303 0M36 22.018c-2.108-1.508-5.165-1.324-7.041.552-2.08 2.08-2.08 5.612 0 7.692l3.809 3.81a.921.921 0 1 0 1.303-1.304l-3.809-3.809c-1.36-1.36-1.36-3.725 0-5.086 1.36-1.36 3.726-1.36 5.086 0l.652.652.651-.652c1.36-1.36 3.726-1.36 5.086 0s1.36 3.726 0 5.086l-3.809 3.81a.922.922 0 0 0 1.303 1.302l3.81-3.809c2.08-2.08 2.08-5.612 0-7.692-1.877-1.876-4.934-2.06-7.041-.552" clip-rule="evenodd"/><path fill="#7333FF" fill-rule="evenodd" d="M22.57 28.96c2.08-2.08 5.612-2.08 7.692 0l3.81 3.808a.921.921 0 1 1-1.304 1.303l-3.809-3.809c-1.36-1.36-3.726-1.36-5.086 0s-1.36 3.726 0 5.086l.652.652-.652.651c-1.36 1.36-1.36 3.726 0 5.086s3.726 1.36 5.086 0l3.809-3.809a.922.922 0 0 1 1.303 1.304l-3.809 3.809c-2.08 2.08-5.612 2.08-7.692 0-1.876-1.876-2.06-4.933-.552-7.041-1.508-2.108-1.324-5.165.552-7.04M41.737 28.96c2.08-2.08 5.612-2.08 7.692 0 1.876 1.875 2.06 4.932.553 7.04 1.508 2.108 1.323 5.165-.553 7.04-2.08 2.08-5.612 2.08-7.692 0l-3.809-3.808a.922.922 0 0 1 1.304-1.303l3.808 3.808c1.36 1.36 3.726 1.36 5.086 0s1.36-3.725 0-5.086L47.475 36l.651-.652c1.36-1.36 1.36-3.725 0-5.086-1.36-1.36-3.725-1.36-5.086 0l-3.808 3.81a.922.922 0 0 1-1.304-1.304z" clip-rule="evenodd"/></g><defs><linearGradient id="b" x1="46.897" x2="25.65" y1="5.752" y2="64.588" gradientUnits="userSpaceOnUse"><stop offset=".116" stop-color="#fff"/><stop offset=".27" stop-color="#F8F7FF"/><stop offset=".514" stop-color="#E7E0FF"/><stop offset=".816" stop-color="#C9BBFF"/><stop offset="1" stop-color="#B5A1FF"/></linearGradient><linearGradient id="c" x1="10.933" x2="61.029" y1="38.438" y2="38.438" gradientUnits="userSpaceOnUse"><stop offset=".116" stop-color="#fff"/><stop offset=".27" stop-color="#F8F7FF"/><stop offset=".514" stop-color="#E7E0FF"/><stop offset=".816" stop-color="#C9BBFF"/><stop offset="1" stop-color="#B5A1FF"/></linearGradient><linearGradient id="d" x1="43.998" x2="28.393" y1="13.778" y2="56.993" gradientUnits="userSpaceOnUse"><stop offset=".628" stop-color="#B5A1FF"/><stop offset="1" stop-color="#B5A1FF"/></linearGradient><clipPath id="a"><path fill="#fff" d="M0 0h72v72H0z"/></clipPath></defs></svg>