<svg xmlns="http://www.w3.org/2000/svg" width="69" height="71" fill="none"><path fill="#24BC48" d="M13.13 33.763c-.816 1.328-2.206 2.095-4.138 2.275v1.166l-1.558.162v-1.298c-2.1-.112-3.584-.916-4.394-2.4-2.831-5.161 4.192-16.961 4.494-17.46l.703-1.171.648 1.202c3.011 5.592 6.72 13.496 4.246 17.524"/><path fill="#239942" d="M22.668 35.962c-.499.804-1.322 1.284-2.462 1.415v2.388l-.93.093v-1.296c-.105-.007-.211-.013-.317-.026v-1.134c-1.24-.093-2.12-.598-2.618-1.502-1.708-3.123 2.246-9.874 2.698-10.634l.568-.936.517.967c1.82 3.385 4.071 8.178 2.544 10.665"/><path fill="#0B6C96" d="M68.221 41.205q-.046.4-.112.803c-.15.997-.351 1.982-.592 2.949q-.1.439-.23.86c-.063.251-.137.492-.213.742a33 33 0 0 1-1.327 3.646l-1.69-.03-3.596-.07-4.058-.075-13.308-.25-4.064-.082-2.768-.05-4.737-3.011-1.403-.898-.717-.455-3.567-2.368.467-.593 5.596-7.01 3.115-4.363 4.987-4.364 3.115-1.246 1.247.623 3.74 4.363 1.87 3.115 1.246 1.87 1.87-2.493 2.494-2.493 1.87-.623 1.87.623 2.493 3.74 3.115 3.115 1.91 2.331z"/><path fill="#239942" d="M33.39 45.362 22.006 67.067l-.73 1.39a30 30 0 0 1-1.832-.816c-.35-.162-.698-.337-1.035-.517-.15-.082-.301-.157-.442-.238-9.02-4.88-15.615-13.689-17.479-24.11l-.237-1.547a47 47 0 0 1 1.521-.361 53 53 0 0 1 5.66-.925v-1.132l1.558-.032v1.016c3.08-.236 6.495-.2 9.967.38v-1.607l1.247-.025v1.87c1.898.382 3.755.944 5.547 1.677.337-.524.842-1.303 1.484-2.25l1.178 1.055c-.455.666-.867 1.29-1.222 1.839a27 27 0 0 1 3.91 2.284c.355-.252.717-.5 1.084-.736z"/><path fill="#24BC48" d="M67.286 45.817c-.062.251-.136.492-.212.742a33.4 33.4 0 0 1-2.592 6.277c-.138.268-.281.53-.437.791-.106.201-.224.393-.343.586a34 34 0 0 1-4.95 6.44C52.8 66.755 44.592 70.65 35.49 70.975q-.627.027-1.253.025c-.1 0-.206 0-.306-.006a33.8 33.8 0 0 1-7.51-.891q-.29-.067-.58-.144a33.5 33.5 0 0 1-6.396-2.319c-.35-.162-.698-.337-1.035-.517l.293-1.615.73-4.014 3.114-5.61 1.87-3.115 4.987-5.61 1.116-.636 1.47-.842 1.78-1.015 3.74-2.494 5.61-1.246 4.363-.624 8.104.624 6.233 1.87 3.74 1.87.362.243z"/><path fill="#239942" d="M64.045 53.628c-.106.2-.224.392-.343.586a34 34 0 0 1-4.95 6.439C52.8 66.755 44.592 70.65 35.49 70.975q-.627.027-1.253.025c-.1 0-.206 0-.306-.006a33.8 33.8 0 0 1-7.51-.891l.492-1.129.075-.343 1.171-5.267 2.494-6.233 4.987-4.364 3.115-1.87 4.986-1.87 5.612-1.246 4.363.623 4.987 1.247 3.115 2.493.93.617z"/><path fill="#24BC48" d="m35.016 70.22.624-4.363 3.116-4.986 4.987-3.74 6.233-1.247 4.987 1.87 2.494 1.247 1.246.623-3.74 3.74-6.233 3.74-6.857 2.494-4.987.623z"/><path fill="#131414" d="M56.608 10.767q-.01-.008-.012-.02c-.46-.392-.935-.778-1.415-1.155h-.006a2 2 0 0 0-.143-.118 6 6 0 0 1-.206-.156Q54.6 9.2 54.358 9.1a5.7 5.7 0 0 0-1.844-.424c-.119-.006-.238-.013-.356-.013a5.3 5.3 0 0 0-.947.082q1.459.885 2.817 1.92a4.2 4.2 0 0 1 1.421 1.147c.181.155.355.305.53.467a32 32 0 0 1 1.939 1.864c5.598 5.878 9.044 13.832 9.044 22.571q.001.84-.044 1.683v.006a32 32 0 0 1-.175 2.114 33 33 0 0 1-.61 3.522c-.063.293-.138.58-.212.867a23 23 0 0 1-.201.723 31 31 0 0 1-1.662 4.545 24 24 0 0 1-.816 1.684c-.163.305-.324.61-.493.904q-.13.234-.268.468a32.6 32.6 0 0 1-4.93 6.433c-5.654 5.74-13.403 9.412-21.998 9.747-.436.024-.873.03-1.316.03q-.12.001-.243-.006a32 32 0 0 1-6.514-.697 26.733 26.733 0 0 1-1.527-.362 32.5 32.5 0 0 1-7.25-2.866q-.25-.129-.491-.267C9.834 60.519 3.732 52.207 2.01 42.408a32 32 0 0 1-.237-1.54c-.542.12-1.055.244-1.521.362l.237 1.547c1.863 10.422 8.459 19.23 17.478 24.11.143.08.293.156.443.237.337.18.685.355 1.034.517.599.293 1.21.561 1.833.817a33 33 0 0 0 4.563 1.502q.29.076.58.144.479.11.966.211c2.154.439 4.346.666 6.544.679.1.006.206.006.306.006q.626.002 1.253-.025c9.1-.324 17.31-4.22 23.263-10.322q.544-.553 1.06-1.135a34 34 0 0 0 3.89-5.306c.117-.193.236-.386.342-.585q.234-.391.437-.792c.46-.854.885-1.733 1.265-2.63a34 34 0 0 0 1.326-3.646c.075-.251.15-.493.212-.742q.13-.42.23-.86a31 31 0 0 0 .593-2.948q.064-.402.112-.804c.062-.405.106-.81.144-1.222.105-1.078.155-2.16.155-3.265.002-10.362-4.617-19.668-11.91-25.951"/><path fill="#131414" d="M56.048 12.898a5 5 0 0 0-.07-.617 5.7 5.7 0 0 0-1.133-2.624 2 2 0 0 0-.119-.156c-.118-.137-.237-.274-.367-.399a5.6 5.6 0 0 0-1.347-.99c-.013-.02-.037-.026-.056-.038a5.74 5.74 0 0 0-3.615-.572 5.766 5.766 0 1 0 6.713 5.685q.002-.14-.006-.289m-5.76 4.495a4.208 4.208 0 0 1 0-8.415 4.1 4.1 0 0 1 1.87.442 4.205 4.205 0 0 1-1.87 7.972M32.41 46.004q-.663.458-1.306.955c-.43-.337-.873-.654-1.315-.955-6.63-4.476-14.452-5.161-20.798-4.654a51.29 51.29 0 0 0-6.98 1.055c-.543.125-1.056.251-1.522.368L.252 41.23c.468-.118.979-.243 1.521-.361a53 53 0 0 1 5.66-.925 32 32 0 0 1 1.558-.15c3.08-.237 6.495-.202 9.967.38q.337.057.673.124l.574.113c1.898.382 3.755.943 5.547 1.676.48.201.966.412 1.44.642a26.8 26.8 0 0 1 5.218 3.276"/><path fill="#131414" d="M68.365 39.983c-.038.41-.081.816-.144 1.221q-.046.402-.112.804c-.367-.406-.835-.91-1.365-1.49-2.599-2.823-6.67-7.312-8.34-9.395q-.628-.786-1.135-.786c-.386 0-.835.318-1.309.792s-.972 1.097-1.464 1.714c-.568.711-1.147 1.446-1.79 2.082-.236.237-.954.96-1.863.823-1.066-.156-1.652-1.259-2.537-2.924-.873-1.645-2.076-3.895-4.177-6.002-.411-.406-.891-.567-1.507-.499-3.859.442-10.51 9.126-14.206 14.568-.455.666-.867 1.29-1.222 1.839q-.252.393-.467.741l-.886-.553-.436-.274a110.117 110.117 0 0 1 1.832-2.803c3.373-4.974 10.41-14.518 15.21-15.06 1.079-.125 2.045.206 2.78.948 2.276 2.268 3.535 4.637 4.457 6.37.462.867 1.098 2.063 1.39 2.113 0 0 .156-.006.537-.38.573-.58 1.128-1.278 1.664-1.951 1.265-1.596 2.462-3.098 3.99-3.098h.005c.83 0 1.628.461 2.357 1.371 1.421 1.783 4.75 5.467 7.292 8.247v.006c.523.572 1.016 1.102 1.446 1.576"/><path fill="#131414" d="m32.254 42.268-1.33-.817c.208-.337 5.125-8.29 8.366-10.234l.804 1.337c-2.425 1.453-6.484 7.504-7.84 9.714M37.085 11.788l-.007 1.558 6.233.028.008-1.558zM43.752 15.211l-5.932 1.915.479 1.483 5.931-1.914zM38.59 6.007l-.756 1.363 5.453 3.021.755-1.363zM42.69 2.17l-1.208.983 3.933 4.836 1.209-.984zM48.762.018l-1.544.214.857 6.174 1.543-.214zM52.8 0l-1.543 6.04 1.51.385 1.542-6.04zM57.73 2.106l-3.673 5.036 1.26.918 3.673-5.035zM63.241 51.857a22.4 22.4 0 0 0-2.78-1.752 23.5 23.5 0 0 0-21.43-.405c-7.113 3.485-12.218 10.46-13.078 18.676a22 22 0 0 0-.113 1.583q.29.077.58.143.479.111.966.212.02-.794.094-1.577c.86-9.013 7.185-16.45 15.615-18.956a21.93 21.93 0 0 1 20.607 4.432c.119-.193.237-.386.343-.586q.234-.39.437-.791a21 21 0 0 0-1.24-.979"/><path fill="#131414" d="M58.622 58.52a15.33 15.33 0 0 0-9.269-3.102c-8.035 0-14.648 6.172-15.36 14.018q-.07.702-.068 1.407 0 .075.006.15c.1.007.206.007.306.007q.626.002 1.253-.025a1 1 0 0 1-.006-.13q.001-.732.068-1.434c.721-6.976 6.639-12.435 13.801-12.435 2.95-.004 5.822.938 8.197 2.686q.63.46 1.203.992.544-.553 1.06-1.135-.57-.53-1.19-.998"/><path fill="#131414" d="M66.133 44.04a31.57 31.57 0 0 0-36.01 1.702l-.337.262c-5.953 4.7-10.179 11.482-11.575 19.237q-.14.812-.243 1.645c.143.08.293.156.442.237.337.18.686.355 1.035.517.056-.542.131-1.09.225-1.627 1.246-7.737 5.46-14.486 11.432-19.055.143-.106.28-.212.424-.318.293-.218.585-.43.884-.636a30.01 30.01 0 0 1 33.311-.374q.692.44 1.353.929c.076-.252.151-.493.212-.742q.13-.42.23-.86a29 29 0 0 0-1.383-.916M8.99 30.327V41.35a52 52 0 0 0-1.557.15V30.328z"/><path fill="#131414" d="m8.886 16.24-.649-1.203-.703 1.171c-.302.499-7.325 12.299-4.495 17.46.81 1.484 2.294 2.288 4.395 2.4q.129.01.268.012.157.009.305.007.495.004.985-.05c1.933-.18 3.323-.948 4.14-2.276 2.473-4.026-1.236-11.93-4.246-17.522m2.918 16.705c-.536.866-1.457 1.378-2.813 1.527a9 9 0 0 1-1.253.05q-.157-.001-.306-.012c-1.502-.1-2.493-.617-3.023-1.59-1.783-3.247 1.646-10.834 3.765-14.699 3.847 7.431 5.069 12.38 3.63 14.724M20.206 33.818h-1.247v7.106h1.247z"/><path fill="#131414" d="m20.125 25.297-.518-.967-.567.936c-.453.76-4.407 7.511-2.7 10.634.5.904 1.379 1.407 2.62 1.502q.154.027.31.025h.188q.376.004.748-.05c1.14-.131 1.963-.611 2.462-1.415 1.527-2.487-.723-7.28-2.543-10.665m1.477 10.01c-.274.437-.73.718-1.396.824q-.45.07-.905.05l-.342-.02c-.748-.08-1.247-.366-1.522-.86-1.005-1.82.854-6.052 2.12-8.408 2.176 4.258 2.868 7.08 2.045 8.415M55.183 9.596S53.63 8.362 53.05 8.124c-.58-.237-.58 1.01-.58 1.01l1.87.623z"/><path fill="#E07103" d="M50.288 17.86a4.675 4.675 0 1 0 0-9.35 4.675 4.675 0 0 0 0 9.35"/></svg>