<svg width="69" height="71" viewBox="0 0 69 71" fill="none" xmlns="http://www.w3.org/2000/svg">
<path d="M13.1308 33.7629C12.3143 35.0909 10.9241 35.8576 8.9917 36.038V37.2036L7.43413 37.3659V36.0676C5.33343 35.9556 3.85023 35.1517 3.0398 33.668C0.208549 28.5069 7.23215 16.7066 7.53362 16.2082L8.23703 15.0365L8.88518 16.2393C11.8963 21.831 15.6053 29.7349 13.1308 33.7629Z" fill="#24BC48"/>
<path d="M22.6676 35.9624C22.1692 36.7663 21.3462 37.2462 20.2057 37.3773V39.7649L19.2767 39.8578V38.5615C19.1706 38.555 19.0646 38.549 18.9591 38.5364V37.4019C17.7186 37.3085 16.8398 36.804 16.3409 35.8996C14.6331 32.777 18.5873 26.0257 19.0395 25.2655L19.6068 24.3304L20.1243 25.2966C21.9446 28.6816 24.195 33.4748 22.6676 35.9624Z" fill="#239942"/>
<path d="M68.2213 41.2045C68.1902 41.4725 68.1528 41.7404 68.1093 42.0084C67.9585 43.0053 67.7576 43.9905 67.5169 44.9567C67.4486 45.2497 67.3737 45.536 67.2863 45.8169C67.224 46.0681 67.1496 46.3093 67.0742 46.5585C66.7027 47.7987 66.2595 49.0164 65.7468 50.2052L64.0576 50.1741L60.4611 50.1052L56.4029 50.0304L43.0948 49.7792L39.0306 49.6983L36.2626 49.648L31.5256 46.6369L30.1228 45.7395L29.4058 45.2843L25.8385 42.9158L26.3063 42.3234L31.902 35.3139L35.0171 30.9497L40.0038 26.586L43.1189 25.3395L44.366 25.963L48.1056 30.3262L49.9757 33.4413L51.2223 35.3114L53.0923 32.8183L55.586 30.3247L57.456 29.7017L59.3261 30.3247L61.8192 34.0648L64.9343 37.18L66.8436 39.5113L68.2213 41.2045Z" fill="#0B6C96"/>
<path d="M33.3892 45.3619L22.0069 67.0673L21.2779 68.457C20.6544 68.2018 20.0434 67.9335 19.445 67.6406C19.0958 67.4788 18.7471 67.3039 18.4105 67.1235C18.2597 67.0422 18.109 66.9673 17.9678 66.8864C8.94801 62.0052 2.35299 53.1974 0.48944 42.7753L0.252289 41.2293C0.72006 41.1107 1.23104 40.9861 1.77317 40.8676C3.64159 40.4566 5.53107 40.1479 7.43316 39.9431V38.8106L8.99072 38.7794V39.7954C12.0702 39.5587 15.4858 39.5944 18.9581 40.1757V38.5679L20.2047 38.5433V40.4134C22.1028 40.7951 23.9603 41.3566 25.7521 42.09C26.0887 41.5665 26.5937 40.7872 27.2358 39.8396L28.414 40.8947C27.9588 41.5614 27.5473 42.185 27.1921 42.7336C28.5573 43.3835 29.8651 44.1476 31.1016 45.0177C31.4568 44.7665 31.8186 44.5188 32.1863 44.2821L33.3892 45.3619Z" fill="#239942"/>
<path d="M67.2863 45.8171C67.224 46.0683 67.1496 46.3095 67.0743 46.5587C66.4255 48.7336 65.5568 50.8368 64.4817 52.8357C64.3445 53.104 64.2008 53.3657 64.045 53.6275C63.939 53.8285 63.8205 54.0199 63.7024 54.2134C62.5806 56.1034 61.2778 57.88 59.8125 59.5181C59.4698 59.9045 59.1146 60.2848 58.7528 60.6526C52.7999 66.7548 44.5906 70.6512 35.4899 70.9747C35.0724 70.9938 34.6543 70.9999 34.2368 70.9999C34.1363 70.9999 34.0313 70.9999 33.9313 70.9938C31.7328 70.9804 29.5409 70.7527 27.3865 70.314C27.0625 70.2457 26.7384 70.1769 26.4204 70.1025C26.2269 70.0588 26.034 70.0086 25.8405 69.9588C23.6356 69.4046 21.4928 68.6277 19.445 67.64C19.0958 67.4783 18.7471 67.3034 18.4105 67.123L18.7034 65.5082L19.4324 61.4942L22.5475 55.884L24.4171 52.7688L29.4038 47.1586L30.5198 46.523L31.9909 45.6814L33.7695 44.666L37.5097 42.1724L43.1194 40.9258L47.4831 40.3023L55.5865 40.9258L61.8197 42.7959L65.5599 44.666L65.9217 44.9092L67.2863 45.8171Z" fill="#24BC48"/>
<path d="M64.0451 53.6276C63.939 53.8286 63.8205 54.02 63.7024 54.2135C62.5806 56.1035 61.2778 57.8801 59.8125 59.5182C59.4698 59.9046 59.1146 60.285 58.7529 60.6528C52.8 66.7549 44.5906 70.6513 35.4899 70.9749C35.0724 70.994 34.6543 71 34.2368 71C34.1363 71 34.0313 71 33.9313 70.994C31.7328 70.9805 29.5409 70.7529 27.3866 70.3142C27.0625 70.2458 26.7384 70.177 26.4204 70.1026L26.9128 68.9742L26.9876 68.6315L28.1593 63.3639L30.6529 57.1306L35.6396 52.7675L38.7548 50.8974L43.7415 49.0273L49.3532 47.7812L53.7164 48.4043L58.7031 49.6513L61.8182 52.1444L62.7473 52.7614L64.0451 53.6276Z" fill="#239942"/>
<path d="M35.0161 70.2206L35.6396 65.8574L38.7563 60.8707L43.743 57.1305L49.9762 55.884L54.9629 57.7541L57.4566 59.0006L58.7031 59.6241L54.9629 63.3638L48.7297 67.1039L41.8729 69.5976L36.8862 70.2206H35.0161Z" fill="#24BC48"/>
<path d="M56.6084 10.767C56.6024 10.7605 56.5964 10.7545 56.5964 10.7479C56.1351 10.3555 55.6613 9.96866 55.181 9.59233H55.175C55.1297 9.54999 55.0818 9.51039 55.0318 9.47376C54.9629 9.42351 54.8946 9.37327 54.8258 9.318C54.6751 9.23711 54.5203 9.16727 54.3585 9.09994C53.7714 8.85695 53.1479 8.71363 52.5136 8.67588C52.395 8.66985 52.2764 8.66332 52.1578 8.66332C51.8403 8.66193 51.5233 8.68917 51.2107 8.74471C52.1828 9.33483 53.1232 9.97566 54.0279 10.6645C54.5796 10.9388 55.0647 11.3303 55.4493 11.8116C55.6302 11.9674 55.8045 12.1171 55.9789 12.2789C56.6521 12.8713 57.2943 13.4943 57.9178 14.1429C63.5155 20.0215 66.9617 27.9746 66.9617 36.714C66.9617 37.2747 66.9492 37.836 66.918 38.3967V38.4032C66.8994 38.777 66.8748 39.1448 66.8436 39.5126C66.8125 39.8492 66.7808 40.1859 66.7431 40.5175C66.6041 41.7016 66.4001 42.8773 66.1322 44.0391C66.0699 44.332 65.995 44.6189 65.9207 44.9058C65.8578 45.1485 65.7895 45.3917 65.7197 45.6288C65.2855 47.1851 64.73 48.705 64.0581 50.1744C63.8069 50.7477 63.5346 51.3089 63.2416 51.8576C63.0794 52.1625 62.9176 52.468 62.7493 52.7619C62.6618 52.9182 62.5744 53.074 62.481 53.2297C61.3759 55.1189 60.0833 56.8919 58.6227 58.5219C58.2796 58.9083 57.9193 59.2886 57.5505 59.6625C51.8966 65.4033 44.1484 69.0752 35.5527 69.4098C35.1166 69.4344 34.68 69.4409 34.2373 69.4409C34.1564 69.4409 34.0755 69.4409 33.9941 69.4344C31.8048 69.4249 29.6223 69.1914 27.4805 68.7375C27.3182 68.7064 27.1499 68.6687 26.9881 68.6315C26.6364 68.5506 26.2963 68.4692 25.9531 68.3758C24.6113 68.0242 23.2933 67.587 22.0074 67.0669C21.2161 66.7489 20.4303 66.3936 19.6701 66.0118C19.346 65.85 19.0219 65.6817 18.7039 65.5093C18.5356 65.4224 18.3733 65.335 18.2115 65.2415C9.83381 60.5186 3.73118 52.2073 2.01083 42.4082C1.91738 41.8972 1.84251 41.3862 1.77368 40.8687C1.23154 40.9873 0.718554 41.1119 0.252792 41.2305L0.489944 42.7765C2.35349 53.1986 8.94852 62.0063 17.9683 66.887C18.1115 66.9679 18.2612 67.0428 18.411 67.1242C18.7476 67.3046 19.0963 67.4794 19.4455 67.6412C20.0439 67.9341 20.6549 68.2024 21.2784 68.4577C22.7612 69.0675 24.286 69.5696 25.841 69.96C26.0345 70.0102 26.2274 70.0604 26.4209 70.1037C26.7389 70.178 27.063 70.2468 27.387 70.3152C29.5412 70.7535 31.733 70.9809 33.9313 70.994C34.0318 71 34.1373 71 34.2368 71C34.6543 71 35.0724 70.994 35.4899 70.9749C44.5906 70.6508 52.7999 66.7544 58.7529 60.6528C59.1146 60.285 59.4698 59.9046 59.8125 59.5183C61.2779 57.8798 62.5806 56.1029 63.7024 54.2125C63.8205 54.0191 63.939 53.8261 64.0451 53.6266C64.2008 53.3649 64.3465 53.1031 64.4817 52.8348C64.9429 51.9807 65.3665 51.1019 65.7468 50.2045C66.2589 49.016 66.7017 47.7987 67.0728 46.5588C67.1481 46.3076 67.2235 46.0664 67.2848 45.8172C67.3722 45.5364 67.4471 45.25 67.5154 44.9571C67.7586 43.9909 67.958 43.0056 68.1078 42.0087C68.1513 41.7408 68.1887 41.4728 68.2198 41.2048C68.2821 40.7999 68.3258 40.3944 68.3635 39.9834C68.469 38.9047 68.5193 37.8229 68.5193 36.7175C68.5208 26.3562 63.9019 17.05 56.6084 10.767Z" fill="#131414"/>
<path d="M56.0477 12.8983C56.0379 12.6914 56.0149 12.4853 55.9789 12.2813C55.8302 11.3243 55.4399 10.4211 54.8449 9.65706C54.8132 9.61335 54.776 9.56361 54.7389 9.51989C54.7323 9.51386 54.7263 9.50733 54.7263 9.5013C54.6077 9.36414 54.4891 9.22697 54.3585 9.10237C53.9652 8.70971 53.5156 8.37782 53.0245 8.11758C53.0213 8.11392 53.0168 8.11159 53.012 8.11105C52.9994 8.09246 52.9748 8.08643 52.9557 8.07387C52.1324 7.64342 51.2168 7.41927 50.2877 7.4207C49.9703 7.41938 49.6533 7.44645 49.3406 7.50159C48.2559 7.68245 47.2455 8.16982 46.4286 8.90617C45.6118 9.64253 45.0227 10.5972 44.7307 11.6574C44.4387 12.7177 44.456 13.8394 44.7807 14.8901C45.1054 15.9408 45.7238 16.8767 46.5631 17.5875C47.4023 18.2982 48.4273 18.754 49.5171 18.9012C50.607 19.0484 51.7162 18.8808 52.7139 18.4182C53.7116 17.9555 54.5562 17.2172 55.1479 16.2903C55.7397 15.3633 56.054 14.2864 56.0537 13.1867C56.0537 13.0917 56.0537 12.9983 56.0477 12.8983ZM50.2877 17.3926C49.1719 17.3926 48.1017 16.9493 47.3126 16.1603C46.5236 15.3712 46.0803 14.3011 46.0803 13.1852C46.0803 12.0693 46.5236 10.9991 47.3126 10.2101C48.1017 9.42104 49.1719 8.97776 50.2877 8.97776C50.9374 8.97472 51.5785 9.12646 52.1578 9.42041C52.7096 9.69438 53.1947 10.0857 53.5792 10.567C54.0726 11.1861 54.3813 11.9319 54.4696 12.7186C54.5579 13.5054 54.4223 14.3011 54.0784 15.0141C53.7346 15.7272 53.1964 16.3288 52.5258 16.7495C51.8552 17.1703 51.0794 17.3932 50.2877 17.3926Z" fill="#131414"/>
<path d="M32.4104 46.0039C31.9676 46.3094 31.5322 46.6276 31.1041 46.9586C30.674 46.6219 30.2314 46.3054 29.7887 46.0039C23.1595 41.5282 15.337 40.8429 8.99072 41.3498C8.46064 41.3936 7.9356 41.4438 7.43316 41.5006C5.61068 41.7049 3.80047 42.0068 2.01032 42.405C1.46769 42.5301 0.955202 42.6562 0.48944 42.7733L0.252289 41.2293C0.72006 41.1107 1.23104 40.9861 1.77317 40.8675C3.64159 40.4565 5.53107 40.1479 7.43316 39.943C7.93811 39.8807 8.46165 39.831 8.99072 39.7923C12.0702 39.5556 15.4858 39.5913 18.9581 40.1726C19.1822 40.2098 19.4068 40.2535 19.6314 40.2972L20.2047 40.4098C22.1028 40.7916 23.9603 41.353 25.7521 42.0864C26.2324 42.2874 26.7183 42.4979 27.1921 42.7285C28.5575 43.38 29.8653 44.1458 31.1016 45.0176C31.5442 45.3307 31.9803 45.6613 32.4104 46.0039Z" fill="#131414"/>
<path d="M68.365 39.9827C68.3273 40.3937 68.2836 40.7991 68.2213 41.2041C68.1902 41.4721 68.1528 41.74 68.1093 42.008C67.7415 41.6025 67.2742 41.0976 66.7441 40.5183C64.145 37.6946 60.0743 33.2063 58.4037 31.1227C57.9861 30.5991 57.6058 30.3373 57.2691 30.3373C56.8828 30.3373 56.4341 30.6554 55.9603 31.1292C55.4865 31.603 54.9881 32.226 54.4957 32.843C53.9284 33.554 53.3486 34.289 52.7065 34.9251C52.4698 35.1623 51.7519 35.8853 50.8429 35.7481C49.7768 35.5919 49.1909 34.489 48.3056 32.8244C47.4329 31.1789 46.23 28.9285 44.1293 26.8218C43.7178 26.4163 43.238 26.2545 42.622 26.3234C38.7633 26.7655 32.1125 35.4487 28.416 40.8906C27.9608 41.5573 27.5493 42.1809 27.1941 42.7295C27.0258 42.9913 26.87 43.2405 26.7268 43.4711L25.8415 42.9184L25.4054 42.6441C25.4798 42.5195 25.5984 42.3326 25.7541 42.0914C26.0908 41.5679 26.5957 40.7886 27.2378 39.841C30.6102 34.8668 37.6479 25.3235 42.4472 24.7814C43.5259 24.6563 44.4921 24.9869 45.2277 25.729C47.5027 27.9975 48.7618 30.3665 49.6843 32.0989C50.1456 32.9656 50.7816 34.1624 51.0746 34.2122C51.0746 34.2122 51.2303 34.2061 51.6107 33.8323C52.184 33.2525 52.7386 32.5541 53.2747 31.8808C54.5404 30.2851 55.7367 28.7833 57.2641 28.7833H57.2701C58.0997 28.7833 58.8976 29.2445 59.6266 30.1545C61.048 31.9371 64.3767 35.621 66.9195 38.401V38.4075C67.4425 38.9788 67.9349 39.5089 68.365 39.9827Z" fill="#131414"/>
<path d="M32.2537 42.2676L30.9242 41.4506C31.1317 41.1135 36.0491 33.1603 39.2904 31.2174L40.0943 32.5539C37.669 34.0075 33.6103 40.0583 32.2537 42.2676Z" fill="#131414"/>
<path d="M37.0853 11.7875L37.0782 13.346L43.3114 13.3743L43.3185 11.8157L37.0853 11.7875Z" fill="#131414"/>
<path d="M43.7516 15.2114L37.8198 17.1262L38.2986 18.6094L44.2304 16.6946L43.7516 15.2114Z" fill="#131414"/>
<path d="M38.5898 6.00683L37.8345 7.37012L43.2867 10.3911L44.0421 9.02783L38.5898 6.00683Z" fill="#131414"/>
<path d="M42.6909 2.16934L41.4817 3.15271L45.4146 7.98864L46.6237 7.00527L42.6909 2.16934Z" fill="#131414"/>
<path d="M48.7617 0.0178393L47.2179 0.232056L48.0746 6.40616L49.6184 6.19195L48.7617 0.0178393Z" fill="#131414"/>
<path d="M52.7992 -1.57647e-05L51.2565 6.03931L52.7665 6.42506L54.3093 0.38574L52.7992 -1.57647e-05Z" fill="#131414"/>
<path d="M57.7305 2.10607L54.057 7.14185L55.3162 8.06037L58.9897 3.02459L57.7305 2.10607Z" fill="#131414"/>
<path d="M63.2411 51.8573C62.3585 51.2062 61.4294 50.6206 60.4611 50.1053C57.1771 48.3431 53.521 47.3874 49.7947 47.3169C46.0684 47.2465 42.3789 48.0635 39.0306 49.7003C31.918 53.1847 26.8133 60.1596 25.9526 68.3755C25.8968 68.899 25.8591 69.4306 25.8405 69.9587C26.034 70.0089 26.2269 70.0592 26.4204 70.1024C26.7384 70.1767 27.0625 70.2456 27.3865 70.3139C27.3991 69.7843 27.4303 69.2588 27.48 68.7372C28.3402 59.7235 34.6649 52.2874 43.0948 49.7812C46.3711 48.8047 49.8304 48.6078 53.1964 49.2064C56.5623 49.8049 59.7417 51.1823 62.4804 53.2284C62.898 53.54 63.3095 53.8706 63.7024 54.2132C63.8205 54.0198 63.939 53.8269 64.045 53.6274C64.2008 53.3656 64.3465 53.1038 64.4817 52.8355C64.0827 52.4929 63.6647 52.1688 63.2411 51.8573Z" fill="#131414"/>
<path d="M58.6222 58.5208C55.9539 56.5029 52.6986 55.4133 49.3532 55.4182C41.3182 55.4182 34.7046 61.5897 33.9936 69.4363C33.946 69.9037 33.9232 70.3733 33.9253 70.8431C33.9243 70.8934 33.9263 70.9438 33.9313 70.9939C34.0318 70.9999 34.1373 70.9999 34.2368 70.9999C34.6543 70.9999 35.0724 70.9939 35.4899 70.9748C35.4849 70.9314 35.4828 70.8878 35.4839 70.8441C35.4839 70.3578 35.5085 69.8779 35.5522 69.4107C36.2732 62.4353 42.1909 56.9758 49.3532 56.9758C52.3024 56.972 55.1752 57.9135 57.55 59.6623C57.9703 59.9685 58.372 60.2996 58.7528 60.6536C59.1146 60.2859 59.4698 59.9055 59.8125 59.5191C59.4332 59.1661 59.0359 58.8328 58.6222 58.5208Z" fill="#131414"/>
<path d="M66.1332 44.0405C61.0394 40.8431 55.1383 39.1673 49.1243 39.2104C43.1103 39.2535 37.2338 41.0136 32.1863 44.2837C31.8186 44.5204 31.4568 44.7696 31.1016 45.0193C30.771 45.2559 30.4409 45.4991 30.1228 45.7423L29.7862 46.0041C23.8333 50.7039 19.6073 57.4858 18.211 65.2405C18.1175 65.7824 18.0365 66.3309 17.9678 66.886C18.111 66.9669 18.2607 67.0417 18.4105 67.1231C18.7471 67.3035 19.0958 67.4783 19.445 67.6401C19.5012 67.098 19.5761 66.5493 19.6696 66.0132C20.9161 58.2757 25.1301 51.5269 31.1016 46.9577C31.2448 46.8517 31.3819 46.7457 31.5256 46.6397C31.8186 46.4216 32.1115 46.2096 32.4104 46.0041C32.735 45.786 33.0591 45.5679 33.3892 45.3619C38.2418 42.3154 43.8652 40.7217 49.5947 40.7692C55.3242 40.8167 60.9203 42.5035 65.7217 45.6302C66.1829 45.9232 66.6321 46.2332 67.0742 46.5588C67.1496 46.3075 67.225 46.0664 67.2863 45.8172C67.3737 45.5363 67.4486 45.2499 67.5169 44.957C67.0622 44.6389 66.607 44.3335 66.1332 44.0405Z" fill="#131414"/>
<path d="M8.99071 30.3269V41.3499C8.46064 41.3936 7.93559 41.4439 7.43315 41.5007V30.3269H8.99071Z" fill="#131414"/>
<path d="M8.88569 16.2393L8.23704 15.0365L7.53363 16.2082C7.23216 16.7066 0.20906 28.5069 3.0393 33.668C3.84974 35.1517 5.33294 35.9556 7.43364 36.0676C7.52106 36.0742 7.60849 36.0802 7.70194 36.0802C7.80796 36.0867 7.90744 36.0867 8.00743 36.0867C8.33639 36.0896 8.66524 36.0728 8.99221 36.0365C10.9246 35.8561 12.3148 35.0894 13.1313 33.7614C15.6053 29.7349 11.8963 21.831 8.88569 16.2393ZM11.8044 32.945C11.2683 33.8112 10.3473 34.3226 8.9907 34.4719C8.5747 34.518 8.15597 34.5348 7.73762 34.5221C7.6316 34.5221 7.53212 34.5156 7.43213 34.5096C5.93034 34.4091 4.93903 33.8926 4.40895 32.9198C2.6263 29.6726 6.05495 22.0862 8.17424 18.2215C12.0209 25.652 13.2428 30.6011 11.8044 32.945Z" fill="#131414"/>
<path d="M20.2057 33.8181H18.9591V40.9241H20.2057V33.8181Z" fill="#131414"/>
<path d="M20.1248 25.2966L19.6073 24.3304L19.0395 25.2655C18.5873 26.0257 14.6331 32.777 16.3409 35.8996C16.8398 36.804 17.7186 37.3065 18.9591 37.4019C19.062 37.4198 19.1662 37.4282 19.2706 37.427H19.4575C19.7078 37.4296 19.958 37.4128 20.2057 37.3768C21.3462 37.2457 22.1692 36.7658 22.6676 35.9619C24.195 33.4748 21.9446 28.6816 20.1248 25.2966ZM21.6019 35.3077C21.3276 35.7439 20.8724 36.0247 20.2057 36.1307C19.9066 36.177 19.6037 36.1938 19.3013 36.181C19.1827 36.1745 19.0641 36.1684 18.9586 36.1619C18.2105 36.081 17.7116 35.7946 17.4372 35.3017C16.4323 33.4819 18.2914 29.2493 19.557 26.8929C21.7326 31.1506 22.4249 33.9738 21.6019 35.3077Z" fill="#131414"/>
<path d="M55.183 9.59587C55.183 9.59587 53.63 8.36188 53.0497 8.12423C52.4693 7.88658 52.4698 9.13363 52.4698 9.13363L54.3399 9.75716L55.183 9.59587Z" fill="#131414"/>
<path d="M50.2878 17.8606C52.8698 17.8606 54.963 15.7674 54.963 13.1854C54.963 10.6034 52.8698 8.51019 50.2878 8.51019C47.7057 8.51019 45.6126 10.6034 45.6126 13.1854C45.6126 15.7674 47.7057 17.8606 50.2878 17.8606Z" fill="#E07103"/>
</svg>
