<svg width="37" height="37" viewBox="0 0 37 37" fill="none" xmlns="http://www.w3.org/2000/svg">
<rect width="37" height="37" rx="18.5" fill="#162E2F"/>
<mask id="mask0_4994_3695" style="mask-type:alpha" maskUnits="userSpaceOnUse" x="0" y="0" width="38" height="38">
<circle cx="19.0714" cy="18.5195" r="18.5" fill="#D9D9D9"/>
</mask>
<g mask="url(#mask0_4994_3695)">
<path d="M-6.92896 8.5083L19.4019 8.5083L19.4437 11.269L21.6929 12.3527L23.2161 14.0297V21.28V23.1665L21.6929 24.9309L19.4019 26.3538V28.5303H-6.92896V8.5083Z" fill="url(#paint0_linear_4994_3695)"/>
<rect x="0.0500488" y="11.6079" width="16.2827" height="13.8047" fill="url(#paint1_linear_4994_3695)"/>
</g>
<path fill-rule="evenodd" clip-rule="evenodd" d="M20.536 10.1702C23.3682 10.4214 25.6106 11.3009 25.8595 13.9214L25.8608 13.9206C26.0462 15.8386 25.2508 16.9873 23.9788 17.6431C26.0722 18.1534 27.3832 19.4074 27.1232 22.2201C26.8026 25.7122 24.2201 26.6482 20.5322 26.8601V28.5097H18.3387V26.9092C17.7702 26.91 17.1875 26.9047 16.5866 26.8915V28.5092H14.3951V26.8523C13.8826 26.849 11.5181 26.8386 10.9868 26.8386L11.003 24.916H12.8324V12.1353L11.0023 12.1249L11.0089 10.1748C11.0089 10.1748 13.9256 10.1773 14.4002 10.1682V8.49023H16.5919V10.0968C17.1779 10.0856 17.7669 10.0745 18.3433 10.0745V8.4915H20.536V10.1702ZM17.0637 24.2199C18.8604 24.2457 22.7868 24.3024 22.7868 21.7812H22.7848C22.7842 19.2023 19.0073 19.2919 17.168 19.3355C16.9642 19.3403 16.7839 19.3446 16.6355 19.3446V24.2153C16.758 24.2153 16.9021 24.2174 17.0637 24.2199ZM17.0009 17.1195C18.5008 17.1445 21.769 17.1995 21.769 14.9085C21.7703 12.5655 18.6284 12.6478 17.091 12.6884C16.9176 12.6929 16.7644 12.6967 16.6388 12.6967V17.1151C16.7421 17.1151 16.8641 17.1172 17.0009 17.1195Z" fill="#C3FCF1"/>
<defs>
<linearGradient id="paint0_linear_4994_3695" x1="23.2161" y1="18.8677" x2="0.501701" y2="18.5193" gradientUnits="userSpaceOnUse">
<stop stop-color="#498E85"/>
<stop offset="1" stop-color="#32645F"/>
</linearGradient>
<linearGradient id="paint1_linear_4994_3695" x1="0.050049" y1="19.2182" x2="22.2926" y2="19.6766" gradientUnits="userSpaceOnUse">
<stop stop-color="#2F5D59"/>
<stop offset="1" stop-color="#3F8078"/>
</linearGradient>
</defs>
</svg>
