<svg width="113" height="113" viewBox="0 0 113 113" fill="none" xmlns="http://www.w3.org/2000/svg">
<rect x="0.5" y="0.5" width="112" height="112" rx="56" fill="#9E77ED"/>
<g clip-path="url(#clip0_1124_12869)">
<path fill-rule="evenodd" clip-rule="evenodd" d="M35.7734 24.3961L52.3359 14.5028L68.9436 24.3961H68.9436L85.5512 34.2894L68.9436 44.1361L52.3359 34.2894H52.3359L35.7734 24.3961ZM77.2266 88.6097L93.8342 78.7632V58.9763L77.2266 68.8697V88.6097ZM44.0566 68.869V88.6089L60.6621 98.5011V98.5024L60.6632 98.5017L60.6643 98.5024V98.5011L77.2246 88.6089V68.869L60.6632 78.7618L44.0566 68.869ZM85.5549 54.0295L68.9473 63.9228V44.1361L85.5549 34.2894V54.0295ZM19.168 44.1366V63.9215V63.9232V83.7081L35.7756 93.5548V73.8166V73.8149V54.0299L19.168 44.1366ZM52.3381 44.1361L35.7756 34.2894L19.168 44.1361L35.7756 54.0295L52.3381 44.1361Z" fill="#42307D"/>
</g>
<defs>
<clipPath id="clip0_1124_12869">
<rect width="84" height="84" fill="white" transform="translate(14.5 14.5013)"/>
</clipPath>
</defs>
</svg>
