<svg xmlns="http://www.w3.org/2000/svg" width="113" height="113" fill="none"><rect width="112" height="112" x=".5" y=".5" fill="#9E77ED" rx="56"/><g clip-path="url(#a)"><path fill="#42307D" fill-rule="evenodd" d="m35.773 24.396 16.563-9.893 16.608 9.893L85.55 34.29l-16.607 9.847-16.608-9.847zM77.227 88.61l16.607-9.847V58.976L77.227 68.87zm-33.17-19.741v19.74L60.662 98.5v.001h.002l16.56-9.893v-19.74l-16.56 9.893zm41.498-14.84-16.608 9.894V44.136l16.608-9.847zm-66.387-9.892v39.571l16.608 9.847V54.03zm33.17 0-16.562-9.848-16.608 9.847 16.608 9.893z" clip-rule="evenodd"/></g><defs><clipPath id="a"><path fill="#fff" d="M14.5 14.501h84v84h-84z"/></clipPath></defs></svg>