<svg xmlns="http://www.w3.org/2000/svg" viewBox="0 0 397.58 374.03"><defs><style>.cls-1{fill:none;}.cls-2{fill:#fbe709;}</style></defs><g id="Layer_2" data-name="Layer 2"><g id="Layer_2-2" data-name="Layer 2"><path class="cls-1" d="M232.46,5.76l-9-.47c-2-.06-4.18-.19-6.61-.19-1.22,0-2.49-.06-3.82,0l-4.15.05c-5.75.14-12.38.5-19.8,1.3a272.72,272.72,0,0,0-53,11.4,265.76,265.76,0,0,0-31.47,12.26c-5.4,2.52-10.85,5.31-16.24,8.45A125,125,0,0,0,72.65,49.19,106.23,106.23,0,0,0,58.48,62.82a120.38,120.38,0,0,0-12,16.76c-7.23,12.1-12.76,25.94-16.9,40.82a322.36,322.36,0,0,0-8.93,47.38c-2,16.59-3.24,33.85-4.38,51.66-.58,9-1.22,17.83-1.23,26.64a113,113,0,0,0,2.61,25.8A62.28,62.28,0,0,0,28.12,294.7,87.73,87.73,0,0,0,47.18,313a172.92,172.92,0,0,0,24.2,14.37A290.15,290.15,0,0,0,98,339.16a290.78,290.78,0,0,0,57.34,15.45,258.63,258.63,0,0,0,59.09,2.86,221.48,221.48,0,0,0,56.07-11L277,344l3.27-1.22c1.07-.45,2.12-.93,3.18-1.39l6.34-2.78,6.13-3.11L299,334c1-.55,2-1.15,2.95-1.72l5.87-3.44c1.89-1.23,3.74-2.52,5.61-3.76l2.79-1.88c.94-.62,1.79-1.35,2.68-2a152.93,152.93,0,0,0,19.87-17.53,163,163,0,0,0,16.39-20.1c2.45-3.51,4.72-7.12,6.85-10.77,1.08-1.81,2.08-3.67,3.07-5.52l2.77-5.62,1.39-2.79c.46-.93.81-1.91,1.22-2.86.79-1.91,1.59-3.82,2.38-5.72l.59-1.42.5-1.46,1-2.91c.65-1.94,1.35-3.85,2-5.79A177.78,177.78,0,0,0,384.3,192,180.56,180.56,0,0,0,380,147.86a173.85,173.85,0,0,0-13.59-38.64,180,180,0,0,0-19.95-31.6l-2.76-3.46-1.36-1.71-1.44-1.61-5.69-6.36-5.84-5.85-1.43-1.44-1.49-1.34-2.95-2.66c-1-.88-2-1.75-2.9-2.62s-2-1.63-3-2.44l-5.81-4.7L306,39.2l-2.83-2.05-2.87-1.86-5.56-3.62c-1.85-1.12-3.7-2.15-5.48-3.19l-2.64-1.54c-.87-.51-1.73-1-2.61-1.44l-5.11-2.61c-3.28-1.79-6.54-3.13-9.54-4.51-1.52-.66-2.95-1.4-4.4-1.94l-4.17-1.64c-5.31-2.24-10-3.63-13.71-5-.93-.35-1.82-.63-2.65-.88l-2.33-.72c-1.44-.46-2.64-.87-3.6-1.22-1.93-.71-2.9-1.21-2.84-1.48C235.58,5.76,234.5,5.85,232.46,5.76ZM91.2,87.84c1.41-.91,4.81,1.65,9.42,6.22,2.14,2.14,4.58,4.72,7.2,7.58,1.61-1.94,3.24-3.75,4.85-5.39s3.09-3,4.62-4.29a50.61,50.61,0,0,1,4.33-3.38c5.52-3.87,9.64-5.23,10.67-4s-1,4.91-4.73,10l-3,4.14-3.48,4.68c-1.64,2.24-3.39,4.64-5.18,7.14l1.65,1.87c6.44,7.26,12.22,13.9,16.2,19s6.11,8.82,5,10.11-5.16-.18-10.78-3.87a102,102,0,0,1-19.11-17l-3,4.44-3.18,4.88c-1,1.54-2,3-2.84,4.28-3.52,5.24-6.18,8.48-7.77,7.92s-1.68-4.87,0-11.39c.44-1.63,1-3.39,1.67-5.24s1.51-3.79,2.42-5.81a89.93,89.93,0,0,1,4.83-8.83,88.71,88.71,0,0,1-7.34-12C90.75,93,89.83,88.73,91.2,87.84ZM313.14,209c2-4.15,3.8-8.08,5.35-11.86s2.81-7.39,3.84-10.8a84,84,0,0,0,2.27-9.63,59.64,59.64,0,0,0,.76-8.23,52.67,52.67,0,0,0-.5-8.44c-5.14-1.29-9.77-2.53-13.35-3.76-4.43-1.51-7.27-3.07-7.21-4.75s3.07-3.08,8-3.69a55.48,55.48,0,0,1,19.18,1.49,62.86,62.86,0,0,1,10.07,3.37c1.5.64,2.89,1.34,4.17,2q1,.53,1.83,1.05a18.11,18.11,0,0,1,1.92,1.26,13.27,13.27,0,0,1,3,3.05,7.24,7.24,0,0,1,1.32,3.5,3.39,3.39,0,0,1-.64,2.4,1.36,1.36,0,0,1-1.25.51,3,3,0,0,1-1.17-.54,4.31,4.31,0,0,0-1.24-.56c-.45-.12-.91-.2-1.53-.33s-1.38-.29-2.29-.43l-1.47-.22c-.63-.1-1.27-.22-1.94-.35-1.33-.25-2.72-.56-4.19-.87-2.94-.65-6.13-1.41-9.46-2.22l-.2-.05a41.39,41.39,0,0,1,1.51,7.31,54.2,54.2,0,0,1,.25,9.07,77.65,77.65,0,0,1-1.45,10.63,113.28,113.28,0,0,1-3.19,11.8c-1.35,4.08-3,8.33-4.78,12.68q-2.55,6.19-5.6,12.85a33.56,33.56,0,0,1,12,1.32,36.32,36.32,0,0,1,10.8,5.18,35.18,35.18,0,0,1,5.17,4.4,37,37,0,0,1,4.54,5.6,40.11,40.11,0,0,1,6,14.27,37.74,37.74,0,0,1,.79,8.29,30.66,30.66,0,0,1-1.39,8.88,24.51,24.51,0,0,1-4.54,8.47,19.72,19.72,0,0,1-3.82,3.45,17.71,17.71,0,0,1-4.69,2.28,17.48,17.48,0,0,1-4.92.85,20.61,20.61,0,0,1-4.58-.32,30.23,30.23,0,0,1-7.56-2.47,54.45,54.45,0,0,1-6-3.26c-1.78-1.09-3.49-2.19-5.11-3.27-3.25-2.18-6.19-4.34-8.79-6.4a102.08,102.08,0,0,1-8.88-7.88c-1.29,2.11-2.6,4.23-4,6.36-1.69,2.64-3.37,5.25-5.25,8a76.3,76.3,0,0,1-6.32,8.09,42.38,42.38,0,0,1-8.47,7.36,31.78,31.78,0,0,1-5.38,2.79,30.35,30.35,0,0,1-6,1.67,52.85,52.85,0,0,1-11.38.2,50.52,50.52,0,0,0-9.18-.06,26.77,26.77,0,0,0-8.16,2.6c-2.93,1.34-6,3.07-9.62,4.65a57.29,57.29,0,0,1-5.64,2.08,27.12,27.12,0,0,1-2.91.77c-1,.21-2,.47-2.93.63l-2.95.39-1.47.19-1.48.06-2.93.1c-1,0-1.95-.08-2.92-.12a60.35,60.35,0,0,1-11.3-1.76c-1.79-.56-3.61-1-5.34-1.68s-3.48-1.27-5.12-2.1a70.44,70.44,0,0,1-17.85-11.77c-1.29-1.18-2.51-2.43-3.75-3.65s-2.32-2.59-3.4-3.89c-2.11-2.6-4-5.16-5.79-7.58-3.61-4.83-7.1-9.12-11-11.79a18.83,18.83,0,0,0-6.16-2.82,30.89,30.89,0,0,0-7.13-.85c-5.07-.13-10.58.38-16.29-.34a37.65,37.65,0,0,1-8.2-2,43.59,43.59,0,0,1-7.18-3.42,52.07,52.07,0,0,1-6-4.33,53.76,53.76,0,0,1-5-4.83,58.72,58.72,0,0,1-7.4-10.14,86.79,86.79,0,0,1-7.68-18,107.78,107.78,0,0,1-2.94-11.76c-.06-.35-.11-.67-.16-1h0l-8.61,4c-2.64,1.26-5.08,2.38-7.19,3.3-4.23,1.83-7.31,2.72-8.46,1.48s0-4.39,3.37-8.27a40.16,40.16,0,0,1,6.58-6,52.08,52.08,0,0,1,19.79-8.82,41,41,0,0,1,8.85-.89c5.12.12,8.25,1.41,8.4,3s-2.57,3.38-6.75,5.3c-2.1.95-4.56,2-7.27,3.14l-6.77,2.91.53,1.05c1.23,2.47,2.83,6.19,5,10.85a105.23,105.23,0,0,0,8.95,16.05A55.77,55.77,0,0,0,83,242.3a47.43,47.43,0,0,0,4.56,3.84,44.82,44.82,0,0,0,5.23,3.29,37.59,37.59,0,0,0,5.85,2.4A29.58,29.58,0,0,0,105,253c4.42.37,9.5-.28,15.36-.4a40.82,40.82,0,0,1,9.43.81,28.92,28.92,0,0,1,9.57,4,41.91,41.91,0,0,1,7.73,6.51c2.27,2.38,4.29,4.87,6.23,7.33s3.8,4.88,5.71,7.13c1,1.11,1.95,2.13,2.92,3.21s2.1,2,3.2,3a60.53,60.53,0,0,0,15.07,9.61c1.36.68,2.81,1.13,4.23,1.68s2.91.88,4.37,1.33a48.39,48.39,0,0,0,9,1.34c.75,0,1.52.09,2.27.09l2.28-.1,1.13,0,1.13-.16,2.25-.29c.75-.13,1.47-.34,2.22-.5a16.42,16.42,0,0,0,2.19-.58c1.43-.51,2.87-.91,4.32-1.59,2.92-1.28,6-3,9.44-4.56a50.17,50.17,0,0,1,5.51-2.18,31.53,31.53,0,0,1,6.2-1.37,61,61,0,0,1,11.37.07,42,42,0,0,0,8.84,0c4.88-.67,9.38-3.76,13.3-8s7.32-9.33,10.76-14.38A447.44,447.44,0,0,0,313.14,209ZM237.29,79.45c.74.71,1.54,1.41,2.34,2.17,1.57,1.53,3.34,3.07,5.13,4.74l.9.79c1.36-2.22,2.75-4.31,4.15-6.24s2.69-3.56,4.05-5.08a56.41,56.41,0,0,1,3.87-4.12c5-4.83,8.93-6.92,10.15-5.85s-.35,5.12-3.36,10.93c-.76,1.44-1.59,3-2.49,4.71s-1.86,3.45-2.88,5.32c-1.36,2.57-2.81,5.3-4.3,8.15.68.56,1.35,1.11,2,1.67,4.44,3.47,8.79,6.62,12.81,9.43,2,1.36,4,2.72,5.8,3.9.92.6,1.79,1.22,2.65,1.77s1.7,1.08,2.48,1.61c6.31,4.13,10.33,7,9.77,8.61s-5.65,1.46-13.37-.93c-1-.31-2-.64-3-1s-2.09-.82-3.19-1.27c-2.2-.87-4.47-2-6.85-3.22a101.27,101.27,0,0,1-14.54-9.49l-.14-.11c-.91,1.87-1.79,3.7-2.64,5.44-.91,1.92-1.78,3.75-2.6,5.46s-1.62,3.33-2.33,4.79c-2.91,5.86-5.2,9.53-6.85,9.16s-2.21-4.76-1.26-11.64a56.1,56.1,0,0,1,1-5.56c.43-2,1-4.07,1.72-6.26a96.34,96.34,0,0,1,3.74-9.71c-1.14-1.18-2.24-2.35-3.27-3.51-1.72-2-3.35-4-4.72-5.92-.69-1-1.37-1.88-2-2.81s-1.15-1.82-1.67-2.69c-4.11-7-5.35-11.93-4-12.78s5.16,2.32,10.64,7.5C235.85,78.06,236.56,78.74,237.29,79.45Z"/><path class="cls-1" d="M311.71,241.84a30.22,30.22,0,0,1,6.7,3.73,29.17,29.17,0,0,1,5.5,5.34,21.84,21.84,0,0,1,3.17,5.44c1.32,3.41,1.07,6-.31,6.84s-3.67,0-6.32-1.54c-1.32-.8-2.78-1.77-4.31-2.87s-3.18-2.3-4.89-3.58-3.35-2.48-4.83-3.65c-1.14-.87-2.19-1.72-3.14-2.54q-2.86,5.24-6,10.6c2.89,1.56,6.44,3.58,10.57,5.86,2.78,1.54,5.84,3.19,9.14,4.9,1.66.85,3.37,1.72,5.14,2.59a52.25,52.25,0,0,0,5.2,2.32,21.3,21.3,0,0,0,5,1.32,10.17,10.17,0,0,0,2.19,0,6.4,6.4,0,0,0,1.87-.41,7.07,7.07,0,0,0,3-2.23,13.52,13.52,0,0,0,2.24-4.41,20.37,20.37,0,0,0,.91-5.52,28.55,28.55,0,0,0-.42-5.86,32.2,32.2,0,0,0-17.89-23.69,41.24,41.24,0,0,0-11.69-3.59q-2.3,4.78-4.85,9.75A25.07,25.07,0,0,1,311.71,241.84Z"/><path class="cls-2" d="M376.48,104.09A187,187,0,0,0,354.33,71.2l-3-3.55-1.5-1.75-1.58-1.65L342,57.78q-3.24-3-6.35-5.92l-1.56-1.44-1.62-1.36-3.19-2.66c-1.06-.87-2.11-1.74-3.14-2.61S324,42.17,323,41.37l-6.27-4.64-6.26-4.13-3-2-3.07-1.79-5.95-3.45c-2-1.06-3.95-2-5.85-3l-2.82-1.43c-.93-.47-1.84-.94-2.78-1.33l-5.43-2.37c-3.49-1.62-6.94-2.78-10.12-4-1.6-.56-3.12-1.2-4.65-1.64l-4.4-1.33c-5.62-1.81-10.54-2.73-14.45-3.63-1-.23-1.91-.39-2.79-.51l-2.46-.35c-1.51-.2-2.78-.35-3.81-.44-2.06-.19-3.13-.15-3.18.12s.91.77,2.84,1.48c1,.35,2.16.76,3.6,1.22l2.33.72c.83.25,1.72.53,2.65.88,3.72,1.38,8.4,2.77,13.71,5l4.17,1.64c1.45.54,2.88,1.28,4.4,1.94,3,1.38,6.26,2.72,9.54,4.51L284,25.5c.88.43,1.74.93,2.61,1.44l2.64,1.54c1.78,1,3.63,2.07,5.48,3.19l5.56,3.62,2.87,1.86L306,39.2l5.83,4.23,5.81,4.7c1,.81,2,1.57,3,2.44s1.92,1.74,2.9,2.62l2.95,2.66,1.49,1.34,1.43,1.44,5.84,5.85,5.69,6.36,1.44,1.61,1.36,1.71,2.76,3.46a180,180,0,0,1,19.95,31.6A173.85,173.85,0,0,1,380,147.86,180.56,180.56,0,0,1,384.3,192a177.78,177.78,0,0,1-7.4,46.69c-.62,1.94-1.32,3.85-2,5.79l-1,2.91-.5,1.46-.59,1.42c-.79,1.9-1.59,3.81-2.38,5.72-.41,1-.76,1.93-1.22,2.86l-1.39,2.79-2.77,5.62c-1,1.85-2,3.71-3.07,5.52-2.13,3.65-4.4,7.26-6.85,10.77a163,163,0,0,1-16.39,20.1,152.93,152.93,0,0,1-19.87,17.53c-.89.67-1.74,1.4-2.68,2l-2.79,1.88c-1.87,1.24-3.72,2.53-5.61,3.76L302,332.26c-1,.57-1.95,1.17-2.95,1.72L296,335.54l-6.13,3.11-6.34,2.78c-1.06.46-2.11.94-3.18,1.39L277,344l-6.55,2.44a221.48,221.48,0,0,1-56.07,11,258.63,258.63,0,0,1-59.09-2.86A290.78,290.78,0,0,1,98,339.16a290.15,290.15,0,0,1-26.61-11.78A172.92,172.92,0,0,1,47.18,313,87.73,87.73,0,0,1,28.12,294.7a62.28,62.28,0,0,1-10.48-22.82A113,113,0,0,1,15,246.08c0-8.81.65-17.66,1.23-26.64,1.14-17.81,2.37-35.07,4.38-51.66a322.36,322.36,0,0,1,8.93-47.38c4.14-14.88,9.67-28.72,16.9-40.82a120.38,120.38,0,0,1,12-16.76A106.23,106.23,0,0,1,72.65,49.19,125,125,0,0,1,88.33,38.52c5.39-3.14,10.84-5.93,16.24-8.45A265.76,265.76,0,0,1,136,17.81a272.72,272.72,0,0,1,53-11.4c7.42-.8,14.05-1.16,19.8-1.3L213,5.06c1.33,0,2.6,0,3.82,0,2.43,0,4.63.13,6.61.19l9,.47c2,.09,3.12,0,3.18-.27s-.93-.72-2.91-1.34a73.09,73.09,0,0,0-8.93-2.07c-2-.31-4.21-.72-6.69-1C215.87,1,214.58.8,213.22.68L209,.35A190.8,190.8,0,0,0,188.6.2a251.6,251.6,0,0,0-55.11,9,261.76,261.76,0,0,0-33.08,11.54C94.69,23.23,88.88,26,83.05,29.15A133.24,133.24,0,0,0,65.7,40.26,116.68,116.68,0,0,0,49.61,55,131,131,0,0,0,36,73.13c-8.22,13.09-14.46,27.92-19.13,43.59A328.5,328.5,0,0,0,6.69,166c-2.32,17-3.79,34.57-5.14,52.43C.89,227.27.11,236.49,0,246a125.75,125.75,0,0,0,2.76,29.38,82,82,0,0,0,4.91,14.77,76.43,76.43,0,0,0,7.94,13.71,102.93,102.93,0,0,0,22.31,21.81,187.34,187.34,0,0,0,26.3,15.82,300.39,300.39,0,0,0,88.54,28.91,270.94,270.94,0,0,0,62.76,3,235,235,0,0,0,60.08-12.05c2.37-.87,4.72-1.79,7.07-2.68l3.53-1.35c1.16-.49,2.3-1,3.45-1.52l6.85-3.06,6.66-3.44,3.3-1.71c1.09-.61,2.14-1.27,3.21-1.9l6.37-3.81c2.07-1.35,4.08-2.77,6.12-4.16l3-2.08c1-.69,1.94-1.5,2.92-2.24A166.37,166.37,0,0,0,349.69,314a177.73,177.73,0,0,0,17.66-22.13c2.62-3.85,5-7.81,7.32-11.81,1.14-2,2.22-4,3.27-6.06s2-4.12,3-6.17l1.46-3.08c.49-1,.86-2.09,1.3-3.13q1.26-3.13,2.5-6.26l.62-1.56.53-1.59c.34-1.06.69-2.12,1-3.18.69-2.11,1.41-4.21,2-6.32a189.46,189.46,0,0,0-13.9-138.59Z"/><path class="cls-2" d="M101.06,111a89.93,89.93,0,0,0-4.83,8.83c-.91,2-1.76,4-2.42,5.81s-1.23,3.61-1.67,5.24c-1.71,6.52-1.56,10.85,0,11.39s4.25-2.68,7.77-7.92c.87-1.3,1.82-2.74,2.84-4.28l3.18-4.88,3-4.44a102,102,0,0,0,19.11,17c5.62,3.69,9.73,5.12,10.78,3.87s-1.05-5-5-10.11-9.76-11.77-16.2-19l-1.65-1.87c1.79-2.5,3.54-4.9,5.18-7.14l3.48-4.68,3-4.14c3.69-5.13,5.81-8.74,4.73-10s-5.15.11-10.67,4A50.61,50.61,0,0,0,117.29,92c-1.53,1.26-3,2.73-4.62,4.29s-3.24,3.45-4.85,5.39c-2.62-2.86-5.06-5.44-7.2-7.58-4.61-4.57-8-7.13-9.42-6.22S90.75,93,93.72,99A88.71,88.71,0,0,0,101.06,111Z"/><path class="cls-2" d="M224.51,69.91c-1.35.85-.11,5.83,4,12.78.52.87,1.08,1.76,1.67,2.69s1.28,1.84,2,2.81c1.37,1.94,3,3.88,4.72,5.92,1,1.16,2.13,2.33,3.27,3.51a96.34,96.34,0,0,0-3.74,9.71c-.67,2.19-1.29,4.27-1.72,6.26a56.1,56.1,0,0,0-1,5.56c-.95,6.88-.32,11.29,1.26,11.64s3.94-3.3,6.85-9.16c.71-1.46,1.5-3.07,2.33-4.79s1.69-3.54,2.6-5.46c.85-1.74,1.73-3.57,2.64-5.44l.14.11A101.27,101.27,0,0,0,264,115.54c2.38,1.21,4.65,2.35,6.85,3.22,1.1.45,2.15.9,3.19,1.27s2,.69,3,1c7.72,2.39,12.85,2.44,13.37.93s-3.46-4.48-9.77-8.61c-.78-.53-1.61-1.06-2.48-1.61s-1.73-1.17-2.65-1.77c-1.85-1.18-3.76-2.54-5.8-3.9-4-2.81-8.37-6-12.81-9.43-.7-.56-1.37-1.11-2-1.67,1.49-2.85,2.94-5.58,4.3-8.15,1-1.87,2-3.65,2.88-5.32s1.73-3.27,2.49-4.71c3-5.81,4.63-9.81,3.36-10.93s-5.16,1-10.15,5.85a56.41,56.41,0,0,0-3.87,4.12c-1.36,1.52-2.67,3.25-4.05,5.08s-2.79,4-4.15,6.24l-.9-.79c-1.79-1.67-3.56-3.21-5.13-4.74-.8-.76-1.6-1.46-2.34-2.17s-1.44-1.39-2.14-2C229.67,72.23,226,69,224.51,69.91Z"/><path class="cls-2" d="M270.32,279.38c-3.92,4.22-8.42,7.31-13.3,8a42,42,0,0,1-8.84,0,61,61,0,0,0-11.37-.07,31.53,31.53,0,0,0-6.2,1.37,50.17,50.17,0,0,0-5.51,2.18c-3.45,1.59-6.52,3.28-9.44,4.56-1.45.68-2.89,1.08-4.32,1.59a16.42,16.42,0,0,1-2.19.58c-.75.16-1.47.37-2.22.5l-2.25.29-1.13.16-1.13,0-2.28.1c-.75,0-1.52-.07-2.27-.09a48.39,48.39,0,0,1-9-1.34c-1.46-.45-2.94-.8-4.37-1.33s-2.87-1-4.23-1.68a60.53,60.53,0,0,1-15.07-9.61c-1.1-1-2.14-2-3.2-3s-2-2.1-2.92-3.21c-1.91-2.25-3.77-4.68-5.71-7.13s-4-4.95-6.23-7.33a41.91,41.91,0,0,0-7.73-6.51,28.92,28.92,0,0,0-9.57-4,40.82,40.82,0,0,0-9.43-.81c-5.86.12-10.94.77-15.36.4a29.58,29.58,0,0,1-6.35-1.19,37.59,37.59,0,0,1-5.85-2.4,44.82,44.82,0,0,1-5.23-3.29A47.43,47.43,0,0,1,83,242.3a55.77,55.77,0,0,1-7.22-8.43,105.23,105.23,0,0,1-8.95-16.05c-2.16-4.66-3.76-8.38-5-10.85l-.53-1.05L68.12,203c2.71-1.13,5.17-2.19,7.27-3.14,4.18-1.92,6.91-3.62,6.75-5.3s-3.28-2.91-8.4-3a41,41,0,0,0-8.85.89,52.08,52.08,0,0,0-19.79,8.82,40.16,40.16,0,0,0-6.58,6c-3.34,3.88-4.47,7.08-3.37,8.27s4.23.35,8.46-1.48c2.11-.92,4.55-2,7.19-3.3l8.61-4h0c.05.3.1.62.16,1a107.78,107.78,0,0,0,2.94,11.76,86.79,86.79,0,0,0,7.68,18,58.72,58.72,0,0,0,7.4,10.14,53.76,53.76,0,0,0,5,4.83,52.07,52.07,0,0,0,6,4.33,43.59,43.59,0,0,0,7.18,3.42,37.65,37.65,0,0,0,8.2,2c5.71.72,11.22.21,16.29.34a30.89,30.89,0,0,1,7.13.85,18.83,18.83,0,0,1,6.16,2.82c3.92,2.67,7.41,7,11,11.79,1.81,2.42,3.68,5,5.79,7.58,1.08,1.3,2.26,2.59,3.4,3.89s2.46,2.47,3.75,3.65a70.44,70.44,0,0,0,17.85,11.77c1.64.83,3.4,1.42,5.12,2.1s3.55,1.12,5.34,1.68a60.35,60.35,0,0,0,11.3,1.76c1,0,1.94.12,2.92.12l2.93-.1,1.48-.06,1.47-.19,2.95-.39c1-.16,1.95-.42,2.93-.63a27.12,27.12,0,0,0,2.91-.77,57.29,57.29,0,0,0,5.64-2.08c3.58-1.58,6.69-3.31,9.62-4.65a26.77,26.77,0,0,1,8.16-2.6,50.52,50.52,0,0,1,9.18.06,52.85,52.85,0,0,0,11.38-.2,30.35,30.35,0,0,0,6-1.67,31.78,31.78,0,0,0,5.38-2.79,42.38,42.38,0,0,0,8.47-7.36A76.3,76.3,0,0,0,285,279c1.88-2.72,3.56-5.33,5.25-8,1.37-2.13,2.68-4.25,4-6.36a102.08,102.08,0,0,0,8.88,7.88c2.6,2.06,5.54,4.22,8.79,6.4,1.62,1.08,3.33,2.18,5.11,3.27a54.45,54.45,0,0,0,6,3.26,30.23,30.23,0,0,0,7.56,2.47,20.61,20.61,0,0,0,4.58.32,17.48,17.48,0,0,0,4.92-.85,17.71,17.71,0,0,0,4.69-2.28,19.72,19.72,0,0,0,3.82-3.45,24.51,24.51,0,0,0,4.54-8.47,30.66,30.66,0,0,0,1.39-8.88,37.74,37.74,0,0,0-.79-8.29,40.11,40.11,0,0,0-6-14.27,37,37,0,0,0-4.54-5.6,35.18,35.18,0,0,0-5.17-4.4,36.32,36.32,0,0,0-10.8-5.18,33.56,33.56,0,0,0-12-1.32q3-6.64,5.6-12.85c1.8-4.35,3.43-8.6,4.78-12.68a113.28,113.28,0,0,0,3.19-11.8,77.65,77.65,0,0,0,1.45-10.63,54.2,54.2,0,0,0-.25-9.07,41.39,41.39,0,0,0-1.51-7.31l.2.05c3.33.81,6.52,1.57,9.46,2.22,1.47.31,2.86.62,4.19.87.67.13,1.31.25,1.94.35l1.47.22c.91.14,1.67.3,2.29.43s1.08.21,1.53.33a4.31,4.31,0,0,1,1.24.56,3,3,0,0,0,1.17.54,1.36,1.36,0,0,0,1.25-.51,3.39,3.39,0,0,0,.64-2.4,7.24,7.24,0,0,0-1.32-3.5,13.27,13.27,0,0,0-3-3.05,18.11,18.11,0,0,0-1.92-1.26q-.87-.53-1.83-1.05c-1.28-.7-2.67-1.4-4.17-2a62.86,62.86,0,0,0-10.07-3.37,55.48,55.48,0,0,0-19.18-1.49c-5,.61-8,2.06-8,3.69s2.78,3.24,7.21,4.75c3.58,1.23,8.21,2.47,13.35,3.76a52.67,52.67,0,0,1,.5,8.44,59.64,59.64,0,0,1-.76,8.23,84,84,0,0,1-2.27,9.63c-1,3.41-2.3,7-3.84,10.8s-3.34,7.71-5.35,11.86a447.44,447.44,0,0,1-32.06,56C277.64,270.05,274.26,275.21,270.32,279.38Zm53.93-44.85a32.2,32.2,0,0,1,17.89,23.69,28.55,28.55,0,0,1,.42,5.86,20.37,20.37,0,0,1-.91,5.52,13.52,13.52,0,0,1-2.24,4.41,7.07,7.07,0,0,1-3,2.23,6.4,6.4,0,0,1-1.87.41,10.17,10.17,0,0,1-2.19,0,21.3,21.3,0,0,1-5-1.32,52.25,52.25,0,0,1-5.2-2.32c-1.77-.87-3.48-1.74-5.14-2.59-3.3-1.71-6.36-3.36-9.14-4.9-4.13-2.28-7.68-4.3-10.57-5.86q3.17-5.35,6-10.6c1,.82,2,1.67,3.14,2.54,1.48,1.17,3.12,2.38,4.83,3.65s3.34,2.49,4.89,3.58,3,2.07,4.31,2.87c2.65,1.58,4.89,2.43,6.32,1.54s1.63-3.43.31-6.84a21.84,21.84,0,0,0-3.17-5.44,29.17,29.17,0,0,0-5.5-5.34,30.22,30.22,0,0,0-6.7-3.73,25.07,25.07,0,0,0-4-1.15q2.57-5,4.85-9.75A41.24,41.24,0,0,1,324.25,234.53Z"/></g></g></svg>