<?xml version="1.0" encoding="UTF-8"?>
<svg id="Layer_2" data-name="Layer 2" xmlns="http://www.w3.org/2000/svg" viewBox="0 0 200 200">
  <defs>
    <style>
      .cls-1 {
        fill: #2976ca;
      }

      .cls-1, .cls-2, .cls-3 {
        stroke-width: 0px;
      }

      .cls-2 {
        fill: #000;
      }

      .cls-3 {
        fill: #fff;
      }
    </style>
  </defs>
  <g id="Layer_1-2" data-name="Layer 1">
    <g>
      <circle class="cls-1" cx="100" cy="100" r="100"/>
      <circle class="cls-3" cx="100" cy="100" r="92.86"/>
      <circle class="cls-1" cx="100" cy="100" r="85.71"/>
      <g>
        <path class="cls-3" d="M95.32,74.5c0-2-.04-3.85,0-5.7.06-2.38.65-2.97,2.96-3.05,1.02-.03,2.05-.04,3.07,0,2.01.09,2.68.7,2.75,2.68.07,2.03.02,4.07.02,5.99,1.17.92,2.44.95,3.55,1.36,4.7,1.76,7.74,5.02,9.11,9.83.71,2.5-.04,3.5-2.59,3.6-.46.02-.94-.04-1.39.01-2.5.31-4.39-.28-5.06-3.06-.16-.68-.69-1.32-1.17-1.87-3.11-3.57-11.6-3.7-14.82-.24-2.84,3.04-1.9,8.05,1.86,9.86,2.64,1.27,5.54,1.56,8.38,2.01,2.39.38,4.76.84,7.06,1.61,10.48,3.53,13.36,16.21,5.44,24.01-2.1,2.07-4.62,3.4-7.41,4.3-.88.28-1.86.23-2.79.94-.34,1.8-.09,3.75-.16,5.68-.09,2.49-.66,3.08-3.18,3.14-.93.03-1.86.04-2.79,0-2.1-.11-2.76-.77-2.82-2.94-.06-1.94-.01-3.89-.01-5.64-.92-.94-1.92-.79-2.8-1.02-6.02-1.57-10.3-5.02-12.1-11.15-.21-.71-.4-1.44-.46-2.18-.12-1.37.42-2.24,1.77-2.38,1.75-.17,3.53-.11,5.29-.04,1.01.04,1.71.67,2.03,1.66.17.53.31,1.07.48,1.6.94,2.88,2.88,4.73,5.8,5.5,3.03.79,6.08.92,9.07-.12,2.62-.91,4.45-2.65,5.13-5.43.87-3.6-.56-6.49-4.01-7.88-2.43-.98-5.01-1.4-7.59-1.77-2.95-.43-5.86-1.04-8.63-2.19-8.72-3.64-11.08-14.84-4.59-21.77,2.02-2.16,4.49-3.59,7.3-4.45.97-.3,1.96-.54,3.32-.9Z"/>
        <path class="cls-3" d="M143.32,97.21c-.9-15.06-9.32-28.51-26.04-36.45-4.48-2.13-4.87-2.55-4.52-7.32.19-2.56,1.19-3.27,3.71-2.44,6.81,2.25,12.91,5.79,18.21,10.61,29.53,26.83,20.14,74.43-17,88.28-.52.2-1.05.39-1.59.54-2.18.6-3.12-.07-3.33-2.36-.04-.46-.01-.93-.02-1.4-.02-4.06.08-4.22,3.8-5.79,16.34-6.91,26.79-22.67,26.77-43.67Z"/>
        <path class="cls-3" d="M47.3,103.47c-.05-24.63,13.8-44.51,34.31-52.03,4.02-1.48,5.3-.83,5.12,3.61-.14,3.47-.31,3.89-3.47,5.22-17.46,7.35-28.3,24.07-27.01,42.94,1.2,17.46,10.25,29.92,26.07,37.42.76.36,1.55.64,2.32.96,1.24.52,1.92,1.5,2,2.79.09,1.39.13,2.8-.02,4.18-.19,1.75-1.23,2.43-2.95,1.95-2.43-.68-4.77-1.62-6.99-2.79-18.89-9.96-28.46-25.76-29.39-44.26Z"/>
      </g>
      <circle class="cls-2" cx="142" cy="141.46" r="40"/>
      <path class="cls-3" d="M148.24,147.69c3.18,0,6.36,0,9.53,0,.71,7.23-.07,14.17-7.82,18.55-8.68,4.9-19.98-.16-21.85-9.96-.66-3.49-.66-7.25-.18-10.78.74-5.36,4.22-8.62,9.49-9.93.11-.03.23-.04.34-.07.03,0,.04-.06.14-.2-3.44,0-6.79,0-10.17,0-.39-5.58-.31-10.94,3.72-15.3,4.04-4.37,9.05-6.14,14.84-4.72,5.87,1.44,9.64,5.31,11.14,11.17.93,3.65.86,7.45.23,11.12-.85,4.93-3.91,8.15-8.72,9.64-.25.08-.5.14-.74.21.02.09.04.18.06.26ZM139.91,141.44h.01c0,4.35,0,8.7,0,13.05,0,.42,0,.86.12,1.25.38,1.37,1.64,2.13,3.13,1.95,1.53-.19,2.45-1.27,2.45-2.97.01-8.74.01-17.47,0-26.21,0-2.09-1.03-3.19-2.93-3.18-1.82,0-2.79,1.1-2.79,3.19,0,4.31,0,8.62,0,12.93Z"/>
    </g>
  </g>
</svg>