<svg xmlns="http://www.w3.org/2000/svg" xml:space="preserve" fill-rule="evenodd" stroke-linejoin="round" stroke-miterlimit="2" clip-rule="evenodd" viewBox="0 0 400 400"><circle cx="200" cy="200" r="200" fill="url(#a)"/><path fill="#0c0c24" d="M189.2 10.23c-10.411.553-23.409 2.472-34 5.022-6.945 1.672-16.86 4.654-18.495 5.562-.382.212-.969.386-1.305.386-.336 0-.923.159-1.305.353-.843.429-2.223.994-4.095 1.677-.77.281-2.48.991-3.8 1.579-1.32.587-3.21 1.406-4.2 1.82-10.935 4.575-27.459 14.559-38.914 23.514-9.975 7.797-22.359 19.761-29.092 28.106-4.144 5.136-5.725 7.215-9.391 12.347-2.355 3.298-4.56 6.538-4.9 7.2-.34.662-1.313 2.229-2.161 3.482-.848 1.253-1.542 2.364-1.542 2.469 0 .104-.92 1.779-2.043 3.721-2.42 4.181-6.589 12.713-8.958 18.332-.278.66-.887 2.053-1.352 3.096-.466 1.042-.847 2.137-.847 2.433 0 .296-.119.657-.265.803-.423.423-3.668 9.835-4.92 14.268-.279.99-.656 2.25-.838 2.8-1.926 5.835-4.811 21.215-6.04 32.2-.825 7.376-.706 31.608.191 38.8 1.456 11.677 4.006 25.018 5.849 30.6.182.55.557 1.81.833 2.8.652 2.329 2.734 8.767 3.171 9.8.186.44.555 1.43.819 2.2.552 1.609.908 2.55 1.546 4.1.25.605.616 1.505.813 2 2.66 6.664 9.825 21.088 12.103 24.362.406.584.738 1.177.738 1.318 0 .141.855 1.558 1.9 3.149 1.045 1.592 2.08 3.179 2.3 3.527 7.406 11.732 22.712 29.381 33.613 38.757 5.996 5.157 10.947 9.062 15.587 12.294 1.32.919 3.171 2.216 4.114 2.882.943.666 1.806 1.211 1.918 1.211.112 0 1.538.9 3.168 2 1.63 1.1 3.044 2 3.141 2 .098 0 1.393.739 2.879 1.641 1.486.903 5.509 3.042 8.941 4.754 7.426 3.705 10.976 5.318 15.739 7.151.495.191 1.35.533 1.9.76.55.227 1.63.63 2.4.894s1.76.631 2.2.814c4.742 1.976 17.132 5.364 26.2 7.164 5.343 1.061 8.292 1.515 18.8 2.897 6.047.795 31.581.656 38.6-.21 11.567-1.428 24.994-3.991 30.6-5.842.55-.182 1.81-.557 2.8-.833 2.329-.652 8.767-2.734 9.8-3.171.44-.186 1.43-.555 2.2-.819 1.398-.48 2.226-.799 4.3-1.654.605-.249 1.46-.591 1.9-.759.965-.368 2.905-1.195 5.6-2.387 3.897-1.722 14.455-7.103 17.149-8.74 1.503-.913 2.814-1.66 2.914-1.66.099 0 1.241-.72 2.537-1.6 1.296-.88 2.475-1.6 2.621-1.6.351 0 10.542-7.205 13.514-9.554 17.557-13.88 34.677-32.695 44.665-49.087 6.636-10.891 11.624-20.598 15.241-29.659.665-1.666 1.157-2.895 1.522-3.8.829-2.058 1.76-4.655 2.613-7.294 1.646-5.092 2.303-7.191 2.632-8.406 3.29-12.16 4.869-20.477 6.458-34 .698-5.943.696-30.918-.003-36.6-1.767-14.366-3.238-22.061-6.46-33.8-.909-3.31-2.93-9.62-3.589-11.2-.183-.44-.55-1.43-.814-2.2-.264-.77-.667-1.85-.894-2.4-.539-1.305-1.137-2.801-1.519-3.8-2.166-5.669-9.779-20.999-12.049-24.262-.406-.584-.738-1.177-.738-1.318 0-.141-.9-1.59-2-3.22-1.1-1.63-2-3.056-2-3.169 0-.309-6.642-9.698-8.752-12.372-5.942-7.529-8.159-9.994-16.436-18.272-7.584-7.584-9.539-9.367-15.206-13.868-.333-.265-1.776-1.412-3.206-2.548-5.513-4.381-16.033-11.271-23.8-15.588-4.038-2.245-16.644-8.383-17.214-8.383-.107 0-1.048-.378-2.09-.84-2.385-1.056-2.942-1.279-5.896-2.36-1.32-.483-2.76-1.029-3.2-1.213-7.492-3.134-26.495-7.643-38.6-9.158-1.87-.234-4.93-.612-6.8-.84-3.422-.417-23.961-.815-28.8-.559m36.526 23.82c.481.247 1.277.817 1.77 1.265.831.758 1.015.777 2.581.259 2.458-.811 4.347-.628 6.49.628 1.715 1.005 2.031 1.065 3.408.653 3.264-.978 6.36.019 8.317 2.679l.891 1.211 2.226-.782c5.557-1.953 11.342-.419 14.192 3.765l.999 1.467 3.526.002c4.525.004 8.242 1.572 11.823 4.987l2.34 2.232 2.756-.252c5.831-.532 11 1.418 14.832 5.596 1.278 1.393 3.283 3.05 4.456 3.682 1.4.756 2.851 2.045 4.226 3.754 3.82 4.75 4.241 5.55 4.241 8.055 0 1.989.153 2.428 1.259 3.607 1.793 1.912 2.393 3.433 3.759 9.542.942 4.208.798 5.747-.649 6.964-.781.658-1.007 1.036-.62 1.036.336 0 1.113.675 1.728 1.5s1.233 1.59 1.374 1.7c1.088.853 4.828 8.632 5.481 11.4 1.723 7.314.706 16.194-1.934 16.885-1.034.27-1.014.455.35 3.203 1.002 2.018 1.209 3.074 1.634 8.312.935 11.538 1.719 16.71 4.395 29 .455 2.09 1.098 5.15 1.429 6.8.331 1.65.78 3.675.998 4.5.218.825.597 2.265.842 3.2.246.935.584 2.15.752 2.7.168.55.706 2.35 1.195 4 .489 1.65 1.051 3.313 1.248 3.695.197.382.359.969.359 1.305 0 .336.162.923.361 1.305.199.382.587 1.46.864 2.395.401 1.356.688 1.7 1.415 1.7 2.979 0 .223 5.742-3.624 7.55-1.5.706-2.556.85-6.212.85-4.832 0-5.26.256-3.379 2.023 2.736 2.571 3.375 4.814 1.778 6.237-.681.607-1.798 2.083-2.483 3.281-1.338 2.338-1.339 2.336.731 3.586 3.843 2.322 3.013 7.402-1.382 8.456-4.33 1.039-4.657 3.204-1.356 8.974 4.435 7.752 4.533 8.533 1.741 13.946-5.277 10.233-17.97 16.693-30.03 15.284-9.016-1.053-8.057-2.053 4.776-4.979 2.827-.644 9.839-3.221 14.322-5.263 5.392-2.457 6.707-8.739 3.674-17.557-2.429-7.062-2.076-9.831 1.749-13.711 2.407-2.441 2.295-3.85-.359-4.516-.526-.132-1.066-.583-1.199-1.001-.243-.767-.808-1.014-1.054-.46-.322.724-4.575 3.908-7.808 5.843l-3.525 2.111-.2 2.44c-.224 2.738-.413 3.083-1.499 2.738-2.208-.701-3.268-5.178-2.326-9.826.403-1.99.562-3.95.406-4.994-.605-4.031 2.458-1.959 3.775 2.554l.516 1.766 1.655-1.966c5.624-6.68 8.167-8.533 12.197-8.884 1.932-.168 2.145-.105 2.355.7.157.599.329.728.532.401.165-.267-.13-1.458-.656-2.646-.579-1.309-.955-2.924-.955-4.1 0-2.109.154-1.974-3.628-3.181-2.008-.641-2.682-.571-2.96.307-.397 1.251-3.678 2.588-6.412 2.613-3.008.028-4.56-.967-5.874-3.767-1.131-2.409-.743-2.578-4.567 1.987-5.549 6.626-6.17 3.974-1.425-6.088 1.696-3.595 2.499-5.43 5.041-11.508 3.218-7.697 4.625-8.599 4.625-2.967v2.947l1.026-.39c3.071-1.167 4.389-.104 2.819 2.274-3.813 5.776-2.083 14.136 2.924 14.136 1.659 0 1.98-.291 1.191-1.08-1.649-1.649 3.231-2.654 8.473-1.744 8.587 1.49 8.729 1.489 12.461-.1 1.753-.747 1.657-1.314-1.055-6.222-4.225-7.647-5.434-10.678-7.038-17.654-.177-.77-.529-2.3-.781-3.4-.253-1.1-.64-2.72-.861-3.6-.438-1.74-.957-4.036-1.515-6.7-.196-.935-.574-2.69-.841-3.9-.266-1.21-.639-2.92-.83-3.8-1.799-8.324-2.43-26.178-.981-27.786.74-.822.746-.905.1-1.267-.381-.213-.692-.759-.692-1.214 0-.455-.54-1.443-1.201-2.195-1.679-1.913-2.89-4.472-4.379-9.255-1.457-4.679-1.018-4.487-5.53-2.428-1.381.63-2.598 1.145-2.705 1.145-.321 0-17.929 6.803-18.68 7.217-.382.211-.879.383-1.104.383-.225 0-1.263.381-2.305.847-1.043.465-2.471 1.099-3.173 1.408-1.671.734-2.582 1.942-3.952 5.238-2.151 5.179-4.104 7.561-9.371 11.428-15.435 11.333-17.811 16.434-11.921 25.59 7.834 12.177 8.408 17.838 2.905 28.651-1.201 2.36-2.184 4.583-2.184 4.941 0 .357-.18.761-.4.897-1.351.835.046 10.126 2.233 14.851 1.154 2.495 3.586 6.002 6.724 9.7 12.814 15.099 15.856 20.81 18.225 34.216.926 5.244.543 14.147-.782 18.168-.66 2.003-1.2 3.945-1.2 4.315 0 .371-.626 2.61-1.391 4.976-3.575 11.058-2.359 21.974 2.447 21.974 2.772 0 2.694-2.745-.256-8.967-3.697-7.798-3.186-8.576 2.057-3.133 6.878 7.141 8.673 11.926 6.4 17.065-.472 1.065-.857 1.99-.857 2.054 0 .065.54.236 1.2.381 1.923.422 1.435 1.343-1.391 2.625-3.079 1.396-5.156 1.491-8.209.375-1.204-.44-2.769-.8-3.479-.8-3.491 0-8.271-3.19-9.902-6.608-3.194-6.69-2.984-14.28.837-30.337 2.014-8.462 2.014-8.444-.265-9.057-3.891-1.048-10.65 5.937-13.95 14.417-.724 1.862-1.468 3.745-1.653 4.185-.184.44-.71 1.97-1.168 3.4-.458 1.43-1.02 3.14-1.25 3.8-.674 1.936-.874 9.929-.41 16.4.869 12.143 1.271 20.266 1.552 31.381l.288 11.38 1.8 1.346c.99.739 2.07 1.561 2.4 1.825.33.263 1.23.915 2 1.447 9.279 6.413 9.105 6.924-1.433 4.208-9.193-2.37-16.753-4.6-19.567-5.773-.44-.183-1.43-.55-2.2-.814-.77-.264-1.76-.624-2.2-.8-.44-.176-1.43-.536-2.2-.8-.77-.264-1.76-.634-2.2-.822-4.923-2.103-14.654-4.432-23.4-5.601-1.87-.25-4.276-.62-5.347-.822-2.037-.384-9.268-.817-26.053-1.562-28.198-1.251-36.849-2.316-34.871-4.293.345-.345 1.672-.786 2.949-.979 6.283-.951 7.773-1.159 10.922-1.531 3.924-.463 11.153-.995 21.404-1.574 3.958-.224 10.706-.611 14.996-.859 11.917-.691 24.269.407 32.2 2.863 6.859 2.123 10.072 3.356 15.313 5.872 2.454 1.178 2.825 1.032 1.974-.778-2.905-6.177-10.307-25.6-11.096-29.114-.172-.77-.574-2.39-.893-3.6-.318-1.21-.806-3.28-1.084-4.6-.278-1.32-.647-2.94-.82-3.6-.173-.66-.524-2.37-.781-3.8-.256-1.43-.625-3.32-.819-4.2-.194-.88-.56-2.86-.813-4.4-.971-5.92-.824-5.605-2.599-5.562-.87.02-2.572.311-3.782.647-26.494 7.341-52.186-18.082-45.844-45.365.833-3.585.876-3.473-2.081-5.428-4.746-3.138-5.418-2.984-4.023.922.469 1.312.994 2.926 1.168 3.586.174.66.621 2.341.993 3.735.962 3.603.524 3.884-3.025 1.943-3.285-1.797-8.43-3.97-8.717-3.682-.112.111.187 1.821.663 3.799.476 1.979.866 4.759.866 6.178 0 1.419.156 2.676.346 2.794.559.345.857 3.08.424 3.889-.529.988-2.01.943-3.337-.102-.591-.465-1.117-.78-1.168-.7-.05.08-.323.866-.605 1.746-.716 2.233-.892 2.644-3.271 7.6l-2.111 4.4.082 15c.143 25.921-1.244 36.689-6.36 49.4-.177.44-.717 1.88-1.2 3.2-2.017 5.513-2.755 7-3.475 7-1.145 0-.126-13.587 2.297-30.6.398-2.794.867-7.009 1.58-14.2 1.585-15.987 1.476-18.595-.995-23.8-.94-1.98-2.384-5.13-3.209-7-4.831-10.952-10.677-17.2-16.093-17.2-3.823 0-3.832-3.298-.018-6.174 2.727-2.057 3.109-2.539 2.213-2.793-.275-.078-1.308-.362-2.295-.632-2.408-.657-4.405-2.762-4.405-4.642 0-1.863.747-2.066 3.742-1.014 3.732 1.311 5.28.964 13.158-2.947 6.497-3.225 7.468-4.556 4.096-5.617-3.729-1.173-6.713-5.383-3.585-5.057 6.523.678 6.633.661 9.989-1.557.88-.582 2.41-1.468 3.4-1.97 1.921-.974 1.901-.951 5.107-5.545l2.106-3.018-2.306-1.048c-6.932-3.15-8.919-14.43-2.532-14.373 2.646.023 3.896 2.379 1.949 3.671-1.157.769-.468 2.609 1.623 4.333 2.631 2.169 5.801.821 7.502-3.189 2.165-5.108 3.135-6.62 4.779-7.451l1.628-.822-2.628-1.281c-3.055-1.488-3.404-1.549-2.842-.5.853 1.593.191 5.107-1.038 5.512-.249.082-.566-.304-.705-.858-1.031-4.106-11.283-7.076-16.019-4.64-6.806 3.5-8.427 10.054-3.322 13.432 7.768 5.141 6.836 13.78-1.486 13.78-7.1 0-13.264-7.708-10.192-12.746 1.862-3.055.186-4.474-3.224-2.73-4.229 2.163-5.623 7.094-3.262 11.535 1.553 2.921 2.883 5.26 3.264 5.741 4.028 5.078 3.528 10.35-1.202 12.687-9.096 4.495-16.469-5.746-8.783-12.199l1.507-1.265-.98-1.933c-.84-1.658-1.104-1.893-1.856-1.654-2.295.728-4.989 3.221-6.658 6.16-1.438 2.533-.567 8.804 1.222 8.804.632 0 .744.278.69 1.711-.069 1.815.672 3.276 3.7 7.294 5.94 7.884-.844 12.975-9.283 6.965-3.244-2.309-4.249-6.721-2.422-10.631l.937-2.004-.837-2.71c-.986-3.193-1.083-7.028-.237-9.425.869-2.463.788-2.707-1.2-3.642-2.492-1.171-5.277-4.397-7.351-8.515-2.374-4.711-4.943-5.836-8.817-3.86-.844.431-2.655.964-4.024 1.185-5.113.823-7.84 7.376-5.581 13.412 1.955 5.226 10.953 10.496 12.42 7.275 1.373-3.011-1.641-5.935-6.447-6.255l-3-.2-.124-1.28c-.211-2.178 1.997-4.194 4.854-4.431 7.352-.609 13.111 8.681 9.553 15.411-.495.935-.761 1.703-.591 1.707 2.922.066 8.108 1.883 8.108 2.842 0 .694-.371.751-4.9.748-10.742-.005-13.915 1.383-13.891 6.077.031 6.199 9.362 13.098 15.04 11.119 2.363-.824 2.509-2.412.431-4.693-.747-.821-1.178-.9-4.901-.9-4.719 0-5.435-.366-4.44-2.271 2.833-5.426 12.268-4.813 15.206.987 5.545 10.947-6.89 17.391-18.473 9.573-1.858-1.254-2.394-1.238-1.704.05 1.723 3.221-.709 8.123-4.598 9.266-9.299 2.735-21.004-5.291-21.698-14.876l-.165-2.285-1.719 2.278c-6.114 8.103-17.638 8.702-13.345.694 1.588-2.964 1.948-4.976 1.953-10.916.004-6.088-.061-6.256-1.934-4.973-5.141 3.523-10.714 1.046-8.136-3.615.913-1.65 2.474-10.848 2.474-14.575 0-1.294-.086-1.405-.9-1.169-7.746 2.249-13.657-1.153-9.971-5.739 1.724-2.146 2.871-4.927 2.871-6.962 0-1.408.481-4.069 1.466-8.108.112-.462.883-1.737 1.712-2.833l1.508-1.992-.69-1.367c-1.717-3.401-1.904-9.985-.334-11.747.186-.209.342-.659.348-1 .034-2.118 4.864-6.424 8.127-7.246 1.89-.476 2.653-1.66 2.661-4.128.027-9.247 8.838-14.062 17.389-9.504 3.58 1.908 4.012 1.98 4.657.775.394-.736.356-.952-.23-1.3-7.585-4.505-7.557-13.266.056-17.739l1.902-1.117-.122-6.884c-.238-13.38 4.406-23.94 15.012-34.14 2.305-2.217 13.185-9.386 15.721-10.359 1.779-.683 1.783-.69 2.42-3.631 1.151-5.319 4.985-8.683 8.216-7.211 1.269.578 2.181.596 2.181.042 0-1.998 5.967-8.353 11.2-11.93 6.209-4.244 19.488-11.022 32.7-16.69.715-.307 1.885-.809 2.6-1.115.715-.306 2.34-1.026 3.612-1.6 1.271-.574 2.489-1.043 2.705-1.043.217 0 .706-.158 1.088-.351 4.693-2.371 13.686-.88 13.697 2.271.002.416.241.214.616-.52 3.753-7.35 22.83-11.153 32.187-6.416l2.604 1.318 1.959-1.774c3.965-3.589 9.659-5.468 12.358-4.078m2.291 7.65c-3.891 7.386-10.082 19.968-9.911 20.139.196.197 6.199-5.831 9.553-9.591 5.756-6.453 7.136-13.048 2.732-13.048-.89 0-1.266.396-2.374 2.5m11.683-1.835c-.319.129-.5 1.037-.5 2.509 0 4.337-1.86 8.559-6.115 13.877-3.102 3.878-15.041 16.091-18.496 18.92-2.24 1.835-3.389 4.044-3.389 6.516 0 1.139.017 1.131 3.3-1.494 4.137-3.309 4.038-3.232 6.909-5.392 1.315-.989 2.481-1.9 2.591-2.023.11-.122 1.084-.89 2.164-1.705 9.542-7.203 17.68-16.826 19.259-22.773 1.254-4.722-2.224-9.847-5.723-8.435m-23.73 2.919c-4.175 3.136-6.107 5.43-5.813 6.903.134.667.246 3.126.25 5.463l.007 4.25 3.697-7.4c2.034-4.07 4.191-8.161 4.793-9.092 1.867-2.882.797-2.928-2.934-.124m-25.187.997c-2.981.529-10.304 2.791-10.881 3.361-.165.162.074 1.007.529 1.876.915 1.749.923 1.45-.339 12.382-.567 4.917-.689 9.501-.675 25.4.017 19.72.117 21.612 1.802 33.8.895 6.474 1.125 7.839 2.835 16.8.209 1.1.546 2.63.747 3.4.201.77.928 3.74 1.615 6.6 1.977 8.231 1.771 7.798 3.715 7.815 1.765.015 6.346.854 7.633 1.397.665.281.728.197.483-.645-.155-.532-.46-2.047-.678-3.367-.219-1.32-.588-3.48-.82-4.8-1.866-10.587-2.132-16.554-1.582-35.459.258-8.878.63-17.671.826-19.541.196-1.87.547-5.11.78-7.2.234-2.09.599-5.51.811-7.6.618-6.072 1.83-16.842 2.205-19.6.638-4.681 1.227-6.854 2.696-9.953 1.263-2.664 1.479-3.425 1.052-3.699-1.966-1.264-8.352-1.748-12.754-.967m59.857 1.974c.729 7.117-4.464 16.162-14.515 25.283-2.159 1.959-4.015 3.666-4.125 3.794-.11.127-3.35 2.722-7.2 5.765-15.865 12.542-16.986 13.724-17.631 18.603-.189 1.43-.53 3.77-.759 5.2-.229 1.43-.517 3.95-.64 5.6l-.225 3 .883-1.4c5.667-8.987 7.859-11.481 15.372-17.486 2.86-2.287 5.47-4.376 5.8-4.643.33-.266 3.39-2.521 6.8-5.01 15.52-11.329 26.4-22.956 26.4-28.212 0-.331.18-.713.4-.849.66-.408.487-6.704-.224-8.129-1.291-2.586-4.222-4.071-8.036-4.071h-2.562l.262 2.555m-84.24 4.393c-2.75.94-5.81 2.081-6.8 2.535-.99.454-2.7 1.223-3.8 1.709-9.552 4.219-25.767 12.38-29.891 15.044-.821.53-1.594.964-1.718.964-1.379 0-10.191 7.295-10.191 8.437 0 1.085.307.977 3-1.061 2.17-1.642 10.814-6.941 19.2-11.77C146.974 59.802 168.196 50 170.854 50c.862 0 1.843-.321 2.402-.787l.944-.786-1.4.006c-.77.004-3.65.776-6.4 1.715M268 51.54c0 1.727-.159 3.662-.353 4.3-.195.638-.593 1.97-.885 2.96-.619 2.097-2.732 6.229-4.494 8.791-4.677 6.8-12.978 14.254-28.068 25.203-10.301 7.474-14.062 10.612-20.648 17.228-7.839 7.875-8.752 9.88-8.752 19.226v3.59l1.7-1.147c6.201-4.183 10.55-4.1 19.3.368 6.055 3.092 6.422 3.133 13.2 1.472 2.754-.675 6.131-1.073 14.6-1.722 4.51-.346 8.83-.83 9.6-1.076 1.688-.538 4.8-2.607 4.8-3.19 0-.763-9.184.678-17.127 2.689-13.586 3.439-15.199 3.37-21.165-.911-4.156-2.982-5.27-3.321-10.899-3.321-4.628 0-6.806.395-8.04 1.457-1.224 1.052-2.097.69-1.824-.757.254-1.353 3.069-4.3 4.106-4.3.302 0 .549-.147.549-.327 0-.655 5.114-1.318 9.511-1.232 5.043.099 4.053.525 8.689-3.735 4.657-4.279 23.829-17.906 25.192-17.906.145 0 1.049-.54 2.008-1.2.959-.66 1.864-1.2 2.01-1.2.147 0 .744-.339 1.328-.754.584-.415 1.917-1.225 2.962-1.8 1.764-.971 2.615-1.443 7.5-4.158 13.087-7.274 23.413-15.324 25.585-19.945 2.427-5.163-1.508-11.003-9.185-13.632-4.132-1.415-4.482-1.323-4.161 1.098 1.425 10.746-13.659 28.552-36.151 42.673-1.856 1.165-3.457 2.118-3.559 2.118-.102 0-.97.54-1.929 1.2-.959.66-1.832 1.2-1.94 1.2-.108 0-1.785.959-3.728 2.132-1.943 1.172-6.052 3.634-9.132 5.471-6.317 3.767-12.733 7.966-12.933 8.465-.148.368-2.467.466-2.467.104 0-.987 6.246-8.783 8.64-10.784 4.576-3.824 3.749-3.28 24.535-16.155 15.866-9.827 30.89-25.556 31.837-33.331.634-5.205-.812-7.76-6.133-10.842-3.825-2.215-4.079-2.11-4.079 1.68m-99.4 6.038c-.44.178-2.06.726-3.6 1.219-5.045 1.612-21.362 9.457-30.77 14.793-16.447 9.329-17.636 10.529-15.251 15.403 1.683 3.44 1.436 3.53 12.575-4.549 19.506-14.148 33.051-22.024 37.899-22.038 2.213-.006 2.529-.363 2.542-2.873.011-2.243-1.101-2.883-3.395-1.955m136.994 10.633c-.007 3.332-1.448 7.592-2.95 8.724-.25.188-.008.218.556.067.55-.146 1.45-.356 2-.464 4.178-.827 4.865-2.566 2.743-6.944-2.18-4.497-2.342-4.593-2.349-1.383M168.8 69.19c-.555.318-1.938.938-4.406 1.977-2.628 1.106-22.787 14.139-36.891 23.851-2.722 1.875-3.01 2.641-2.092 5.561 1.099 3.494 2.309 3.088 9.655-3.234.477-.41 1.2-1.015 1.606-1.345 2.784-2.258 5.211-4.275 5.685-4.727 2.425-2.308 13.988-10.73 18.234-13.28 2.875-1.727 6.174-3.046 8.514-3.404 2.085-.319 2.467-.96 2.199-3.689-.215-2.19-.876-2.641-2.504-1.71m-63.769 11.088c-1.373 1.373-1.197 11.878.213 12.749.196.121.356.572.356 1.002 0 .43.169 1.094.376 1.476.207.382.702 1.499 1.1 2.481 3.661 9.035 12.873 24.796 16.141 27.614.128.11 3.084 3.62 6.569 7.8 9.189 11.021 20.837 22.529 33.014 32.617 9.021 7.473 8.188 7.01 8.779 4.883.586-2.111.592-2.1-1.146-2.1-3.694 0-6.449-2.201-7.667-6.127-.543-1.751-.976-2.308-2.793-3.587-2.351-1.656-3.455-3.133-4.373-5.855-.446-1.321-.96-1.971-2-2.524-1.995-1.063-3.439-2.883-4-5.041-.267-1.026-.568-2.181-.67-2.566-.101-.385-.38-.7-.619-.7-2.314 0-6.311-6.129-6.311-9.677 0-1.344-.085-1.434-1.569-1.672-4.147-.663-5.795-4.562-4.755-11.251.11-.71-.154-.823-2.347-1-4.247-.344-6.8-3.44-6.66-8.075.066-2.188.025-2.285-1.05-2.521-2.259-.496-4.481-4.202-4.75-7.922-.16-2.206-.256-2.401-1.42-2.887-3.457-1.445-4.827-3.737-4.827-8.077 0-1.752.194-3.094.489-3.389.943-.943.583-1.648-.711-1.389-2.367.473-6-1.428-6-3.141 0-1.812-2.009-2.481-3.369-1.121m205.415.343c-1.874 1.473-3.009 1.732-3.527.805-.317-.565-.96-.347-7.519 2.552-2.253.996-16.747 8.204-19 9.449-5.792 3.201-11.96 6.835-14.682 8.651-1.585 1.057-2.986 1.922-3.113 1.922-.622 0-21.539 14.802-22.605 15.997-.11.123-1.01.847-2 1.61-.99.762-2.149 1.702-2.575 2.089-.427.387-.922.704-1.1.704-.179 0-.325.24-.325.532 0 1.493 4.612 2.119 8.485 1.152 4.35-1.086 7.784-1.816 16.144-3.433 2.625-.508 3.483-.984 11.893-6.599 4.986-3.329 9.168-6.052 9.293-6.052.126 0 1.254-.688 2.507-1.529 7.065-4.742 17.333-9.601 24.678-11.677 3.221-.91 7.736-2.093 8.894-2.329 1.301-.266 2.906-2.512 2.906-4.067 0-1.169-3.494-9.338-4.394-10.273-1.185-1.231-1.874-1.145-3.96.496m-141.69.564c-2.021.612-14.457 8.606-22.956 14.756-17.01 12.309-16.282 11.573-14.844 15.015 1.827 4.374 3.048 4.1 12.701-2.845 15.298-11.006 21.908-15.436 24.985-16.744l2.558-1.087v-4.107c0-5.538-.081-5.704-2.444-4.988M96.17 90.7c-.619.825-3.846 4.2-7.17 7.5-12.688 12.593-18.229 25.18-15.762 35.8 1.422 6.124.519 10.023-2.503 10.803-.844.219-2.231.577-3.081.797-2.022.523-3.657 1.838-3.641 2.929.052 3.58 16.757 12.07 32.787 16.663 3.923 1.125 4.637 1.331 5.6 1.617.55.164 1.72.496 2.6.738.88.242 5.65 1.585 10.6 2.985 4.95 1.4 10.71 2.941 12.8 3.425 3.658.846 4.972 1.144 9.1 2.068 1.045.234 2.575.594 3.4.8.825.206 2.22.555 3.1.775 2.6.65 4.931 1.272 6 1.6.55.169 1.72.497 2.6.73 4.034 1.065 12.061 3.788 15.363 5.212 2.388 1.029 3.637 1.393 3.637 1.059 0-.659-1.006-1.272-5.4-3.29-1.98-.909-5.49-2.543-7.8-3.629-2.31-1.087-5.01-2.34-6-2.784-5.193-2.329-8.036-3.564-9.4-4.085-.44-.168-1.295-.51-1.9-.759-.605-.25-1.55-.634-2.1-.854-.55-.22-1.405-.562-1.9-.761-.495-.199-1.98-.756-3.3-1.239-1.32-.483-2.76-1.028-3.2-1.212-.44-.184-2.33-.872-4.2-1.528-1.87-.657-5.29-1.857-7.6-2.668-3.899-1.369-11.419-4.167-13.5-5.022-.495-.203-1.35-.55-1.9-.77l-2-.8c-.55-.22-1.405-.562-1.9-.759-6.316-2.521-14.378-6.464-14.602-7.141-.408-1.237 9.746-.008 16.302 1.973 2.327.703 15.787 5.478 17.8 6.314.44.183 1.43.549 2.2.813.77.264 1.76.624 2.2.8.44.176 1.43.536 2.2.8.77.264 1.76.624 2.2.8.44.176 1.43.536 2.2.8 2.249.772 3.485 1.263 6.8 2.701.99.429 2.61 1.121 3.6 1.537.99.415 4.41 2.054 7.6 3.641 5.235 2.605 7.319 3.718 12.1 6.46 2.543 1.46 4.237 2.425 5.8 3.308.825.466 1.95 1.156 2.5 1.535 2.042 1.405 2.4 1.346 2.4-.395 0-1.544-.235-1.788-1.548-1.606-1.078.15-3.099-.971-6.052-3.356-1.65-1.332-3.338-2.693-3.75-3.024-10.356-8.3-25.526-22.991-33.458-32.401-1.206-1.43-2.293-2.69-2.416-2.8-1.918-1.709-12.786-16.311-13.696-18.4-.144-.33-.81-1.5-1.479-2.6-3.296-5.412-7.263-14.35-8.79-19.8-.277-.99-.663-2.322-.858-2.96-.194-.638-.353-1.763-.353-2.5 0-1.793-.809-1.735-2.23.16m74.332 6.538c-.494.184-3.348 2.006-6.342 4.048-2.994 2.043-5.726 3.894-6.07 4.114-.345.22-.911.621-1.258.892-.348.27-4.207 2.914-8.577 5.875-9.514 6.448-9.658 6.635-8.419 10.896 1.295 4.455 2.923 3.896 11.776-4.039 2.562-2.296 6.739-5.914 8.388-7.265.77-.63 1.49-1.243 1.6-1.361 1.185-1.275 6.259-4.747 8.268-5.658l2.557-1.159-.259-2.091c-.527-4.259-.669-4.624-1.664-4.252m142.098.972c-.66.308-2.1.946-3.2 1.419-2.038.877-4.511 1.972-8.797 3.895-5.221 2.344-24.001 11.961-28.964 14.833-1.011.585-2.685 1.504-3.719 2.042-2.275 1.184-1.883 1.586 1.554 1.595 2.953.007 4.062-.37 6.264-2.133.914-.732 2.562-1.832 3.662-2.446 1.1-.613 3.08-1.724 4.4-2.468 9.122-5.142 15.449-7.012 25.665-7.584 6.25-.35 5.842.043 5.503-5.302-.3-4.744-.333-4.799-2.368-3.851m6.2 6.057c0 4.57 1.449 11.957 3.066 15.633.744 1.693 1.106 1.64 1.671-.246 1.124-3.752-.213-10.869-2.968-15.798-1.362-2.436-1.769-2.341-1.769.411m-146.861 4.854c-.076.194-1.279 1.216-2.672 2.27-2.909 2.201-3.29 2.837-2.169 3.622.939.658 2.502 3.8 2.502 5.029 0 .774.14.725 1.545-.545.85-.768 1.875-1.58 2.277-1.805.671-.376.692-.622.255-2.997-.262-1.423-.477-3.129-.477-3.792 0-1.151-.971-2.523-1.261-1.782m-11.836 9.921c-4.346 2.196-5.307 5.24-2.459 7.792 2.365 2.118 2.798 2.235 4.524 1.222 5.014-2.943 3.033-11.591-2.065-9.014m12.779 5.304-1.699 1.124.76.967c1.439 1.829 2.396 3.882 2.674 5.735.243 1.623.448 1.928 1.631 2.422 1.356.567 1.699 1.145.952 1.606-.65.402-.464 1.8.24 1.8.697 0 .639-1.757-.165-5-.421-1.698-1.112-4.68-1.624-7.01-.609-2.764-.856-2.911-2.769-1.644m102.86 1.354c-1.63 1.744-2.945 3.703-2.929 4.362.016.635 3.068-2.655 4.11-4.43.942-1.607.353-1.573-1.181.068m-127.612 4.302c-.479.192-1.285.911-1.792 1.597-.601.812-1.168 1.182-1.63 1.061-1.636-.428-.152 2.012 2.418 3.974 2.721 2.078 5.25 1.392 7.307-1.98 2.179-3.574-1.762-6.483-6.303-4.652m17.87.351c-1.21.881-3.378 1.647-4.66 1.647-1.586 0-1.284 1.825.394 2.378 1.544.51 3.077 2.025 4.071 4.022.901 1.81.792 1.737 1.795 1.2 1.963-1.051 2.581-5.282 1.211-8.3-.85-1.872-1.321-2.031-2.811-.947m144.121 1.444c3.827.733 4.767 1.197 4.603 2.272-.253 1.66-5.561 3.531-10.018 3.531-1.714 0-2.79.166-8.106 1.251-4.982 1.016-11.478 3.989-21 9.612-7.417 4.379-7.893 4.604-8.49 4.007-.551-.551 1.389-2.588 8.08-8.483 1.865-1.643 3.647-3.227 3.961-3.519 7.697-7.181 20.307-10.711 30.97-8.671M209.8 135.164c-1.578.392-4.221 1.618-5.1 2.365-.547.465-1.05 2.872-.6 2.871.055 0 1.047-.36 2.204-.8 2.424-.921 11.264-1.141 14.861-.37 3.931.843 4.091.295.435-1.482-5.033-2.446-8.925-3.298-11.8-2.584m-52.53 4.383c-.951 1.036-2.301 2.117-3 2.402-3.404 1.388-3.421 1.411-2.463 3.264 1.218 2.356 5.977 3.43 7.818 1.764 2.461-2.227 2.701-6.459.504-8.862-.699-.764-.965-.631-2.859 1.432m102.064-.704c-.624.683-1.547 1.673-2.052 2.2-1.315 1.37-.539 1.181 1.118-.274.77-.675 1.805-1.506 2.3-1.845.495-.339.9-.775.9-.97 0-.76-1.187-.294-2.266.889m-11.134.036c-7.245 1.335-9.801 1.869-12.2 2.553l-1.8.512 1.48.028c.814.015 2.433.232 3.598.482 3.468.744 8.398-.621 12.419-3.437 1.064-.745.02-.786-3.497-.138m-75.35 2.123c-.842.761-2.017 1.636-2.61 1.943-.899.467-.992.653-.559 1.123.547.593 1.138 1.561 2.463 4.032 1.642 3.063 4.256 1.014 4.256-3.336 0-4.755-1.127-5.95-3.55-3.762m127.038.212c.832.448 2.433 1.817 3.559 3.043l2.046 2.228 1.954-1.084c1.074-.597 2.133-1.227 2.353-1.4.401-.317 2.745-1.672 4.579-2.647 2.987-1.589 1.855 2.003-1.858 5.895-2.139 2.243-7.048 5.151-8.695 5.151-.603 0-.674.232-.46 1.5.139.825.359 2.67.488 4.1.133 1.475.503 2.904.854 3.302.705.799.716.781-.926 1.615-4.27 2.169-16.539 2.487-19.736.512-1.107-.684 3.44-1.801 7.436-1.826.316-.002.522-.932.6-2.703.161-3.675 1.268-3.998 3.177-.928 1.81 2.912 2.341 2.586 2.341-1.436v-2.2l-1.3.257c-.715.141-1.75.405-2.3.586-.55.18-1.81.55-2.8.821-7.184 1.967-11.885 4.566-13.829 7.647-1.039 1.644-1.772 1.74-1.77.229.003-1.686 2.159-4.44 5.399-6.895 2.88-2.183 7.723-4.371 15.4-6.961 5.038-1.699 4.981-1.554 1.873-4.774-4.005-4.148-3.047-6.542 1.615-4.032m-47.084 4.181c-.688.83-5.781 3.327-7.407 3.632-5.171.97-3.863 10.338 2.528 18.104 5.719 6.951 6.348 11.198 3.106 20.974-3.459 10.428-3.513 13.821-.342 21.354 1.251 2.972 3.902 7.648 5.384 9.498.51.637 3.627 4.484 6.927 8.55 3.3 4.065 6.357 7.865 6.793 8.442.437.578 1.131 1.411 1.542 1.851 1.671 1.785 5.458 7.858 7.438 11.928 2.038 4.188 2.953 5.337 2.073 2.602-1.514-4.703-2.246-6.719-2.955-8.13-1.726-3.435-10.425-15.808-13.826-19.663-10.383-11.772-12.177-21.334-6.348-33.84 2.332-5.005 2.48-5.548 2.465-9.097-.018-4.224-1.4-7.403-5.738-13.2-5.782-7.727-6.126-15.571-.994-22.7.712-.99.145-1.258-.646-.305m-46.947 1.016c-2.145.643-2.657 1.464-2.657 4.257v2.543l1.5-.99c3.446-2.274 6.803-2.702 12.7-1.616 10.575 1.947 18.972 1.705 20.389-.587.297-.481.211-.5-8.989-2.01-11.51-1.89-19.995-2.48-22.943-1.597m-25.375 2.381c-.626 1.363-1.477 2.379-2.698 3.219-2.061 1.418-2.138 1.665-.798 2.543 3.221 2.111 6.843-2.252 5.334-6.426-.629-1.738-.758-1.692-1.838.664m-16.071-.006c-1.444 1.824-2.684 2.575-4.911 2.979-1.73.313-1.858.615-.6 1.415 6.02 3.825 9.899 2.182 8.047-3.409-.916-2.765-1.077-2.827-2.536-.985m8.389 6.742c0 1.342-4.375 4.872-6.038 4.872-2.298 0-.352 2.401 2.541 3.135 4.434 1.126 6.898-2.421 4.689-6.751-.775-1.518-1.192-1.958-1.192-1.256m65.309 1.612c-2.27.663-3.211 3.748-1.658 5.44.192.209.349.679.349 1.045 0 .365.744 2.084 1.654 3.82 2.66 5.073 2.988 5.834 3.532 8.204.52 2.263.407 5.255-.332 8.751-.356 1.688-.916 4.486-1.64 8.2-2.152 11.042-1.999 13.551 1.276 20.9 1.49 3.344 7.115 10.873 11.728 15.7 1.576 1.65 3.568 3.81 4.424 4.8.857.99 1.661 1.89 1.787 2 1.537 1.344 10.226 11.811 11.952 14.398 7.176 10.757 7.995 16.388 4.392 30.202-.459 1.76-1.018 4.01-1.243 5-.225.99-.577 2.52-.783 3.4-2.072 8.868-1.031 18.268 2.386 21.537 2.135 2.043 2.556 1.284 1.185-2.137-3.409-8.511-2.831-20.743 1.275-27 .145-.22.494-1.21.777-2.2.282-.99.675-2.213.872-2.719.197-.505.358-2.792.358-5.081 0-2.289-.161-4.576-.358-5.081-.197-.506-.595-1.729-.884-2.719-.517-1.774-1.919-5.457-2.969-7.8-.295-.66-1.078-2.415-1.738-3.901-1.909-4.292-5.002-8.697-13.826-19.693-11.802-14.705-14.336-18.848-16.466-26.926-.625-2.368-.753-9.144-.201-10.561.197-.506.584-1.729.859-2.719.275-.99 1.194-3.897 2.042-6.459 2.359-7.132 2.088-9.851-1.462-14.648-4.022-5.434-5.797-9.308-5.797-12.655 0-1.497-.035-1.523-1.491-1.098m-30.709.536c-4.659 1.719-4.835 2.047-2.444 4.542 1.672 1.746 1.899 1.86 2.928 1.479.614-.228 3.636-.628 6.716-.889s6.185-.64 6.9-.841c.715-.202 1.975-.559 2.8-.793 2.141-.609 3.3-1.236 3.3-1.785 0-.308-1.164-.57-3.3-.741-1.815-.146-4.38-.441-5.7-.656-3.898-.634-9.879-.803-11.2-.316m25.4 3.088c0 .809-3.38 4.568-5.072 5.641-2.98 1.889-8.919 3.195-14.535 3.195-3.231 0-3.069-.403-1.989 4.939 1.037 5.131.947 10.244-.202 11.392-.359.359-1.385-1.088-1.651-2.331-.621-2.891-5.032-10.186-6.983-11.548-.828-.579-1.585-1.338-1.683-1.687-.463-1.668-6.827-5.472-9.259-5.535-2.782-.072-7.858 3.743-9.748 7.327-2.581 4.894-.513 16.49 4.384 24.584.846 1.397 1.538 2.626 1.538 2.729 0 .104 2.205 3.449 4.9 7.433 8.385 12.398 11.894 15.322 16.231 13.526 1.929-.799 1.524-1.259-1.031-1.17-5.6.197-8.353-4.876-3.931-7.243 1.884-1.008 13.827-.781 14.977.284.534.495 1.217.9 1.518.9.301 0 .859.159 1.241.353.382.195 1.145.537 1.695.76 15.473 6.295 23.983 18.739 24.239 35.444.076 4.957.245 6.897.632 7.28.72.711 5.747 3.444 7.942 4.318.983.391 2.417.984 3.187 1.319.77.334 1.805.769 2.3.967.495.197 1.305.522 1.8.721 6.738 2.709 9.908 3.667 9.892 2.988-.144-6-7.157-17.403-17.19-27.95-7.555-7.941-10.585-11.293-12.478-13.8-10.355-13.715-11.604-20.059-7.442-37.8 2.32-9.891 2.322-9.962.317-15.2-2.078-5.43-2.799-8.114-2.799-10.42 0-.979-.18-1.78-.4-1.78-.22 0-.4.164-.4.364m-164.211 1.271c-.97 3.056 3.916 9.209 8.237 10.372 2.223.599 2.501.3 2.192-2.355-.509-4.359-.581-4.452-5.224-6.761-4.775-2.375-4.845-2.392-5.205-1.256m-18.099.551c-2.414 2.031-3.353 9.871-1.586 13.244 1.599 3.052 7.661 7.521 8.457 6.233.285-.46-.839-1.94-3.945-5.194-3.23-3.383-3.202-3.447 1.585-3.582 5.905-.167 9.799 2.921 9.799 7.768 0 .714.18 1.409.4 1.545.22.136.4.058.4-.174 0-.232.819-1.252 1.819-2.267 2.17-2.2 2.259-1.816-1.263-5.436-3.291-3.382-4.305-5.164-4.975-8.745-.265-1.418-.531-2.768-.59-3.001-.359-1.419-8.505-1.734-10.101-.391m34.71 6.291c0 .31.163.734.361.943.199.209.627 1.179.952 2.155l.589 1.774.623-1.203c.342-.663.904-1.438 1.249-1.724.916-.761.791-.976-.874-1.497-.825-.258-1.815-.592-2.2-.74-.463-.179-.7-.08-.7.292m10.11 4.149c-2.892 2.279-2.571 4.981.982 8.271 1.05.972 2.718 2.515 3.708 3.431 2.069 1.913 1.892 2.284-1.3 2.717-1.66.225-1.9.378-1.9 1.207 0 1.218.348 1.194 2.698-.192 2.9-1.71 5.578-2.215 10.157-1.914l3.923.257.658-1.302c1.757-3.477 3.645-4.489 8.264-4.431 4.234.054 4.246.031.6-1.059-3.606-1.079-12.559-3.847-15.5-4.793-1.21-.389-3.55-1.112-5.2-1.606-1.65-.495-3.413-1.06-3.919-1.256-1.364-.529-1.755-.446-3.171.67m102.147 2.223c3.422 2.334 5.587 5.561 8.153 12.151.513 1.32 1.594 3.39 2.402 4.6 5.598 8.393 3.671 19.161-3.054 17.064-4.31-1.344-9.758-6.264-9.758-8.812 0-.333-.18-.716-.4-.852-.48-.296-.542-7.477-.07-8.02.182-.209.572-1.148.866-2.086.967-3.078 2.799-3.173 2.809-.145.011 3.447 1.981 8.412 4.242 10.695 2.002 2.021 2.416.787.722-2.153-2.647-4.593-3.367-6.116-4.581-9.689-2.738-8.053-5.887-10.906-9.039-8.189-1.868 1.611-2.788-.145-1.5-2.86 1.612-3.397 5.633-4.141 9.208-1.704m-159.476.851c-5.659 4.375-5.619 12.982.074 15.788 4.287 2.113 4.745 1.849 4.745-2.731 0-4.843 1.805-4.745 5.6.304.558.742.795.768 3.377.367l2.777-.43-2.774-1.399c-4.842-2.442-10.58-9.252-10.58-12.556 0-1.035-1.4-.75-3.219.657m90.288 6.066c-.125.324-1.001.81-1.948 1.079-.946.269-1.892.64-2.101.822-.209.183-.698.333-1.087.333-3.192 0-4.483 4.91-1.944 7.389 1.797 1.755 3.211 4.454 3.211 6.128 0 1.036.166 1.159 2.096 1.554 2.525.518 3.104.346 3.104-.919 0-.53.165-1.275.366-1.657.202-.382.681-1.415 1.065-2.295 1.21-2.77 5.141-6.292 8.481-7.598 3.73-1.457 4.098-1.193-5.312-3.82-2.42-.675-4.694-1.313-5.053-1.417-.359-.104-.754.076-.878.401m-54.577 3.274c-2.255 1.777-3.378 6.43-2.139 8.865.195.382.598 1.235.897 1.895.913 2.013 3.605 4.565 5.132 4.863l1.383.27-1.269-1.358c-2.069-2.213-4.72-8.127-4.223-9.42.545-1.421 6.708 1.063 9.819 3.957 2.305 2.145 3.244 3.595 3.909 6.037.462 1.697.742 2.044 2.165 2.684l1.634.735.097-1.284c.197-2.587 1.098-5.746 2.357-8.262 1.445-2.888 1.374-3.357-.759-4.966-5.74-4.328-15.886-6.472-19.003-4.016m-11.112 2.535c-.209.206-.909.648-1.555.981l-1.175.607 1.101.418c1.871.712 2.249.547 2.249-.981 0-1.515-.046-1.591-.62-1.025m-12.329 6.876c-6.811 2.303-9.644 6.466-8.83 12.976.748 5.992 7.8 11.416 12.727 9.79 4.106-1.355 2.622-5.173-2.716-6.986-3.787-1.285-4.149-1.789-2.379-3.31 4.327-3.718 12.412 1.501 12.3 7.94-.038 2.184.08 2.757.6 2.914.969.293 6.137 1.074 6.224.941.042-.064.269-1.521.505-3.237.273-1.985.882-4.042 1.674-5.649 1.536-3.121 1.54-2.994-.149-4.341-2.23-1.779-6.207-8.254-6.207-10.105 0-1.869-9.144-2.49-13.749-.933m57.749-.534c-5.638.768-8 3.44-8 9.05 0 7.894 5.206 14.032 7.106 8.377.476-1.418-.069-2.087-4.19-5.14-3.415-2.53-2.898-3.406 2.01-3.402 4.676.004 8.316 2.108 8.926 5.16.311 1.553.948 2.031.948.71 0-2.196 2.635-6.457 4.776-7.721 1.654-.977 1.541-1.521-.476-2.292-.935-.357-2.157-1.057-2.716-1.554-.558-.498-1.405-1.241-1.882-1.651-.948-.816-4.913-1.753-6.502-1.537m59.933 3.025c.159 1.999-.494 4.14-2.594 8.504-1.961 4.077-5.803 9.809-13.999 20.888-1.573 2.126-2.796 3.934-2.716 4.016.134.141 3.997-3.171 8.173-7.006.992-.911 2.433-2.157 3.203-2.77 5.577-4.441 12.242-14.417 15.101-22.602.664-1.902.635-2.073-.275-1.586-1.222.654-3.519.485-5.226-.386-.862-.44-1.622-.8-1.687-.8-.065 0-.056.784.02 1.742M32.707 196.9c-.729 1.12-1.304 3.655-2.097 9.234-.438 3.078-.906 4.828-1.613 6.036-1.33 2.269-1.288 2.379.81 2.091 2.048-.281 3.391-.93 5.352-2.588l1.359-1.149.101-4.362c.064-2.766.335-5.002.741-6.112.847-2.317.843-2.338-.66-3.254-1.744-1.063-3.26-1.024-3.993.104m146.189 7.184c-.846 1.02-3.242 6.391-3.055 6.851.104.256 1.408 1.054 2.899 1.774 1.549.747 3.927 2.418 5.55 3.9 3.074 2.806 3.189 2.86 4.311 2.04.717-.524.671-.644-.931-2.464-1.431-1.626-4.335-5.98-7.542-11.306-.628-1.043-.887-1.21-1.232-.795m-46.659 7.057c-.345.557 1.314 2.841 2.659 3.661 1.467.895 3.263 1.075 3.006.303-.236-.708-5.431-4.343-5.665-3.964m39.963 4.699c-.88 1.229-2.008 2.713-2.506 3.297-1.483 1.74-.297 2.813 4.506 4.078.66.174 2.244.601 3.52.95 4.735 1.296 5.035.432 1.598-4.614-4.533-6.657-4.88-6.838-7.118-3.711m-133.975.86c-.145.825-.41 4.56-.589 8.3-.18 3.74-.462 7.205-.628 7.7-.435 1.3.221 1.122 2.236-.607 1.643-1.41 2.873-2.144 4.395-2.621.351-.11 1.057-1.251 1.568-2.536.511-1.285 1.27-2.83 1.687-3.433.923-1.339.773-1.614-1.5-2.749-.983-.491-2.904-1.942-4.268-3.223-2.939-2.763-2.581-2.66-2.901-.831m177.972 4.508c-.141.444-.885 1.632-1.654 2.64-1.646 2.155-1.717 1.888 1.595 5.952 5.343 6.557 11.815 12.743 20.148 19.257 4.653 3.637 4.463 3.662 4.242-.557-.348-6.621-3.519-14.311-7.919-19.206-1.703-1.893-6.276-5.694-6.852-5.694-.128 0-.711-.327-1.295-.727-3.252-2.228-7.795-3.143-8.265-1.665m-25.317 2.312c-.997.997-1.767 2.305-2.238 3.803-1.009 3.207-1.764 4.025-3.651 3.954-2.835-.107-6.059 5.78-7.612 13.9-2.603 13.603 5.824 28.577 19.121 33.976.605.246 1.505.614 2 .819 1.851.766 8.626 2.03 10.82 2.02 1.643-.008 6.122-.755 9.25-1.543 7.393-1.865 16.641-9.889 19.588-16.998.929-2.242.857-2.435-1.458-3.87-12.762-7.916-17.839-12.155-23.912-19.967-.763-.982-1.706-2.144-2.094-2.582-.973-1.097-3.891-7.119-3.907-8.062-.019-1.162-.959-2.169-2.031-2.176-1.84-.011-6.277-1.813-9.028-3.667-2.211-1.49-3.032-1.423-4.848.393M54 223.661c-4.314 2.511-6.529 9.007-4.164 12.214 3.439 4.663 16.564 5.586 16.564 1.164 0-1.911-3.088-2.315-7.259-.95-3.23 1.057-3.558-.594-.751-3.783 6.164-7.003 17.035 1.119 11.803 8.819l-.953 1.401 2.657 1.337c3.203 1.612 2.902 1.608 2.909.037.012-2.551 1.52-5.61 3.721-7.545 1.106-.974 1.207-1.955.2-1.955-1.944 0-6.892-4.968-8.96-8.997L68.533 223l-6.566-.077c-5.964-.07-6.696-.002-7.967.738m110.306 1.039c-3.932 3.476-5.074 4.628-4.888 4.93.405.655 2.75 1.57 4.024 1.57 1.987 0 5.306.793 7.658 1.83 2.333 1.029 2.391.958 1.527-1.889-1.003-3.305-1.922-4.687-4.558-6.849-1.692-1.389-1.737-1.384-3.763.408m-45.701 2.749c-.801 1.917-.773 2.093.366 2.379 2.403.604 3.244-.641 1.802-2.666-1.077-1.513-1.435-1.466-2.168.287m57.937.743c.142.37.258.749.258.841 0 .092.283.167.629.167.89 0 .544-1.356-.392-1.536-.567-.109-.69.021-.495.528m-23.268 6.227c-4.424 3.725-4.11 3.996 5.826 5.035 2.822.295 2.794.338 1.716-2.611-.959-2.623-3.032-4.843-4.522-4.843-.08 0-1.439 1.089-3.02 2.419M45.121 239.8c.374 4.337.352 12.201-.037 13.267-1.038 2.842 4.482-2.248 6.275-5.787 1.51-2.978 1.395-3.693-.776-4.845-2.418-1.283-5.281-3.841-5.534-4.946-.112-.489-.08.551.072 2.311m99.476.863c-1.098.584-2.717 1.485-3.597 2.003-2.803 1.647-9.486 4.804-13 6.141-4.189 1.594-4.457 1.822-2.53 2.164 6.104 1.082 13.973 10.526 17.853 21.429.118.33.225-1.65.24-4.4.026-5.094-.221-6.376-1.965-10.205-3.556-7.805-4.259-11.3-1.988-9.882.706.441.79.39.79-.486 0-1.618.817-1.644 2.153-.07 1.262 1.488 3.687 2.535 8.94 3.862 2.628.664 2.723.551 2.124-2.493-.645-3.28-1.976-5.835-3.987-7.651-1.946-1.759-2.429-1.798-5.033-.412m-87.733 5.156c-.754 1.656-.534 1.925.536.654 1.137-1.351 1.226-1.673.464-1.673-.294 0-.744.458-1 1.019m8.536.341c-6.438 2.036-7.654 6.33-3.434 12.135 3.68 5.063 15.009 7.88 15.28 3.8.242-3.655-2.652-4.894-8.141-3.485-1.493.384-1.793-.542-.917-2.834 1.133-2.967 4.45-3.849 8.156-2.167 1.732.786 3.085 1.079 2.237.485-.672-.471-1.996-2.576-2.576-4.094-1.399-3.664-5.951-5.312-10.605-3.84m81.195 11.495c.171 1.18.424 3.527.562 5.216.273 3.341.668 4.279 1.042 2.476.13-.631.394-1.777.586-2.547 1.12-4.502.879-5.451-1.742-6.878-.716-.389-.741-.294-.448 1.733m97.172 9.211c-4.093 8.128-10.821 15.101-17.367 17.998-1.471.651-1.505 1.31-.245 4.738 1.78 4.842 5.501 14.98 6.901 18.798 2.017 5.502 2.979 8.092 3.343 9 .176.44.537 1.43.801 2.2.264.77.624 1.76.8 2.2.176.44.536 1.43.8 2.2.264.77.635 1.76.823 2.2.662 1.548 4.323 12.857 5.763 17.8 1.991 6.835 2.131 7.135 3.942 8.447 2.356 1.707 2.75 1.565 2.068-.747-.308-1.045-.854-2.98-1.213-4.3-.359-1.32-.817-2.985-1.018-3.7-.855-3.045-1.23-4.37-1.556-5.5-.19-.66-.637-2.37-.993-3.8-.357-1.43-.813-3.23-1.014-4-1.775-6.782-2.752-26.745-1.561-31.894 1.008-4.361 1.612-6.459 2.449-8.506 2.137-5.228 7.74-13.762 11.483-17.491 1.555-1.548 2.826-2.971 2.824-3.162-.002-.191-3.287-1.406-7.3-2.701-4.013-1.294-7.512-2.435-7.775-2.534-.277-.105-1.097 1.05-1.955 2.754m42.733 45.399c-.275.111-.5.379-.5.596 0 .563 1.704.239 1.902-.361.166-.503-.473-.61-1.402-.235"/><defs><linearGradient id="a" x1="0" x2="1" y1="0" y2="0" gradientTransform="matrix(318.608 240 -240 318.608 36.3919 85)" gradientUnits="userSpaceOnUse"><stop offset="0" stop-color="#0efbfc"/><stop offset=".25" stop-color="#59adfd"/><stop offset=".58" stop-color="#f0f"/><stop offset="1" stop-color="#c000fe"/></linearGradient></defs></svg>