<svg xmlns="http://www.w3.org/2000/svg" width="43" height="43" fill="none"><path fill="url(#a)" fill-rule="evenodd" d="M9.996 36.92c-4.694-3.508-7.733-9.11-7.733-15.42 0-10.624 8.613-19.237 19.237-19.237 8.768 0 18.344 5.24 20.66 13.265C39.572 6.561 31.304 0 21.5 0 9.626 0 0 9.626 0 21.5S9.626 43 21.5 43 43 33.374 43 21.5v-1.132h-1.181q-.053 0-.158-.002a38.541 38.541 0 0 1-2.595-.135c-1.613-.14-3.453-.414-4.706-.914-2.016-.806-3.154-1.873-4.454-3.122l-.075-.072c-1.303-1.251-2.767-2.657-5.303-3.85-2.499-1.177-5.262-.988-7.292-.57a18.5 18.5 0 0 0-3.283 1.008c-1.022.43-2.014.939-3.017 1.411 0 0 1.968.54 2.94.841q.054.015.163.053a11.379 11.379 0 0 1 2.464 1.177c1.05.675 1.92 1.523 2.277 2.566-2.228.293-4.318 1.27-5.88 2.19a24 24 0 0 0-2.936 2.041c-.127.105-2.14 1.878-2.14 1.878s2.596.276 3.877.535c.852.171 2 .448 3.199.866 1.204.42 2.42.97 3.429 1.674 1.011.706 1.752 1.522 2.117 2.456 1.065 2.72.02 5.37-2.077 6.86-2.072 1.474-5.222 1.824-8.373-.34m7.336 3.364a8.7 8.7 0 0 0 2.348-1.18c2.854-2.028 4.355-5.743 2.874-9.53-.582-1.487-1.695-2.625-2.93-3.487-1.237-.863-2.66-1.495-3.978-1.955a26 26 0 0 0-2.437-.713q.39-.256.838-.52c1.741-1.024 3.935-1.965 6.038-1.965 3.171 0 5.533.973 7.787 2.017l.618.289c2.014.945 4.13 1.938 6.589 1.938 2.384 0 4.241-.674 5.521-1.372-1.14 9.537-9.256 16.93-19.1 16.93-1.431 0-2.826-.155-4.168-.452m20.823-17.868a9.5 9.5 0 0 1-3.076.498c-1.929 0-3.586-.772-5.69-1.753l-.566-.264c-2.106-.975-4.543-2.009-7.715-2.196-.426-2.1-2.018-3.535-3.381-4.412q-.228-.147-.454-.277.204-.048.419-.093c1.832-.377 4.02-.47 5.872.4 2.199 1.036 3.44 2.227 4.73 3.466l.044.043c1.328 1.275 2.732 2.612 5.183 3.59 1.361.544 3.123.836 4.634.998" class="bg" clip-rule="evenodd"/><defs><linearGradient id="a" x1="0" x2="43.771" y1="43" y2="42.2" gradientUnits="userSpaceOnUse"><stop stop-color="#29CCB9"/><stop offset=".495" stop-color="#0091FF"/><stop offset="1" stop-color="#FF66B7"/></linearGradient></defs></svg>