<svg xmlns="http://www.w3.org/2000/svg" id="Layer_2" data-name="Layer 2" viewBox="0 0 222.28 222.28"><defs><style>.cls-1{fill:#fafeff}</style></defs><g id="Layer_8" data-name="Layer 8"><circle cx="111.14" cy="111.14" r="111.14" style="fill:#3085e5"/><path d="M63.08 48.46c36.95-24.03 77.77-14.77 102.01 7.2l6.92-4.63a86 86 0 0 0-11.97-9.97c-13.68-9.42-30.26-14.93-48.13-14.93-47.03 0-85.58 39.04-85 86.07.08 6.91.99 8.24 1.01 1.45.08-27.68 12.89-50.7 35.17-65.19Z" class="cls-1"/><path d="M69.13 79.51c32.64-13.18 54.98 7.06 61.56 15.65 11.99 15.66 17.41 27.5 17.41 27.5 2.06 4.13 8.09 5.42 12.49 3.26l6.29-3.1-9.26-59.08c-2.35-2.14-10.16-9.57-24.97-15.07-22.57-8.39-45.87-7.62-67.68 5.43-21.72 13-32.79 32.99-32.91 59.43-.04 9.33 1.36 17.86 2.88 24.32-.81-16.84 2.82-45.67 34.2-58.34Z" class="cls-1"/><path d="M195.02 108.28c-.67 3.9-11.54 34.05-38.23 34.05-35.32 0-32.5-53.88-77.18-53.88 0 0 36.98 15.87 30.33 50.12-5.24 26.95-44.82 39.87-49.84 41.38 10.12 7.36 22.03 12.59 35.19 14.91 46.23 8.15 90.32-22.72 98.47-68.95a85 85 0 0 0 1.26-17.63" class="cls-1"/><path d="M100.64 136.76c10.49-28.84-24.06-46.07-24.06-46.07 41 50.26-24.76 68.16-36.17 69.21 2.24 3.24 6.66 9.02 9.95 12.38 9.14-2.97 42.38-13.68 50.27-35.52Z" class="cls-1"/></g></svg>