<svg width="96" height="96" fill="none" xmlns="http://www.w3.org/2000/svg"><path d="M48 96c26.51 0 48-21.49 48-48S74.51 0 48 0 0 21.49 0 48s21.49 48 48 48z" fill="#1C68F3"/><path fill-rule="evenodd" clip-rule="evenodd" d="M76.8 36.8v16H26.735c2.186 9.709 10.86 16.96 21.229 16.96 8.572 0 15.986-4.956 19.533-12.16H76.8v13.44a5.76 5.76 0 01-5.76 5.76H24.96a5.76 5.76 0 01-5.76-5.76V36.8h57.6zM61.972 57.6c-3.054 4.466-8.189 7.397-14.008 7.397-5.82 0-10.954-2.93-14.009-7.397h28.017zM35.68 40.64a8.962 8.962 0 00-8.87 7.68h4.91a4.162 4.162 0 017.92 0h4.91a8.962 8.962 0 00-8.87-7.68zm24.64 0a8.962 8.962 0 00-8.87 7.68h4.91a4.162 4.162 0 017.92 0h4.91a8.962 8.962 0 00-8.87-7.68zM71.04 19.2a5.76 5.76 0 015.76 5.76V32H19.2v-7.04a5.76 5.76 0 015.76-5.76h46.08z" fill="#fff"/></svg>
