<svg width="584" height="584" viewBox="0 0 584 584" fill="none" xmlns="http://www.w3.org/2000/svg">
<rect width="584" height="584" rx="292" fill="black"/>
<path d="M78.3359 165.659L419.34 506.663L507 419.004L165.995 77.9999L78.3359 165.659Z" fill="white"/>
<path d="M165.996 506.664L507 165.66L419.341 78.0005L78.3368 419.005L165.996 506.664Z" fill="white"/>
<rect x="108" y="108" width="368" height="368" rx="184" fill="black"/>
<path d="M361.236 245.99C356.316 243.18 349.99 243.18 344.366 245.99L305.003 269.171L278.292 283.922L239.632 307.103C234.711 309.913 228.385 309.913 222.762 307.103L192.536 288.839C187.616 286.029 184.101 280.41 184.101 274.088V238.965C184.101 233.346 186.913 227.726 192.536 224.214L222.762 206.653C227.682 203.843 234.008 203.843 239.632 206.653L269.857 224.916C274.778 227.726 278.292 233.346 278.292 239.668V262.849L305.003 247.395V223.512C305.003 217.892 302.191 212.272 296.568 208.76L240.335 175.745C235.414 172.935 229.088 172.935 223.465 175.745L165.826 209.463C160.202 212.272 157.391 217.892 157.391 223.512V289.542C157.391 295.161 160.202 300.781 165.826 304.293L222.762 337.308C227.682 340.118 234.008 340.118 239.632 337.308L278.292 314.83L305.003 299.376L343.663 276.898C348.584 274.088 354.91 274.088 360.533 276.898L390.759 294.459C395.679 297.269 399.194 302.888 399.194 309.21V344.333C399.194 349.952 396.382 355.572 390.759 359.084L361.236 376.645C356.316 379.455 349.99 379.455 344.366 376.645L314.141 359.084C309.22 356.274 305.706 350.655 305.706 344.333V321.854L278.995 337.308V360.489C278.995 366.109 281.807 371.728 287.43 375.24L344.366 408.255C349.287 411.065 355.613 411.065 361.236 408.255L418.172 375.24C423.093 372.431 426.607 366.811 426.607 360.489V293.756C426.607 288.137 423.796 282.517 418.172 279.005L361.236 245.99Z" fill="#8247E5"/>
</svg>
