<svg width="37" height="37" viewBox="0 0 37 37" fill="none" xmlns="http://www.w3.org/2000/svg">
<path d="M18.5 37C28.7521 37 37 28.7521 37 18.5C37 8.24786 28.7521 0 18.5 0C8.24786 0 0 8.24786 0 18.5C0 28.7521 8.24786 37 18.5 37Z" fill="#2775CA"/>
<path d="M23.3291 21.025C23.3291 18.3271 21.7104 17.4021 18.4729 17.0168C16.1604 16.7084 15.6979 16.0918 15.6979 15.0125C15.6979 13.9332 16.4688 13.2396 18.0104 13.2396C19.3979 13.2396 20.1688 13.7021 20.5541 14.8584C20.6313 15.0896 20.8625 15.2438 21.0938 15.2438H22.327C22.6354 15.2438 22.8666 15.0125 22.8666 14.7043V14.6271C22.5582 12.9313 21.1707 11.6209 19.3979 11.4668V9.61679C19.3979 9.30839 19.1666 9.07715 18.7813 9H17.625C17.3166 9 17.0854 9.23125 17.0082 9.61679V11.3896C14.6957 11.698 13.2312 13.2396 13.2312 15.1668C13.2312 17.7105 14.7729 18.7125 18.0104 19.098C20.1688 19.4834 20.8625 19.9459 20.8625 21.1793C20.8625 22.4127 19.7832 23.2605 18.3188 23.2605C16.3145 23.2605 15.6207 22.4125 15.3895 21.2563C15.3125 20.948 15.0813 20.7937 14.85 20.7937H13.5395C13.2313 20.7937 13 21.025 13 21.3334V21.4105C13.3082 23.3375 14.5416 24.725 17.0854 25.1105V26.9605C17.0854 27.2688 17.3166 27.5 17.702 27.5771H18.8582C19.1666 27.5771 19.3979 27.3459 19.475 26.9605V25.1105C21.7875 24.725 23.3291 23.1062 23.3291 21.025Z" fill="white"/>
<path d="M14.9814 29.127C8.96889 26.9687 5.88549 20.2625 8.12103 14.327C9.27728 11.0895 11.821 8.62285 14.9814 7.4666C15.2898 7.3125 15.4439 7.08125 15.4439 6.69571V5.6166C15.4439 5.30821 15.2898 5.07696 14.9814 5C14.9042 5 14.7501 5 14.673 5.07696C7.35014 7.38946 3.34174 15.175 5.65424 22.4979C7.04174 26.8145 10.3564 30.1291 14.673 31.5166C14.9814 31.6707 15.2898 31.5166 15.3667 31.2082C15.4439 31.1312 15.4439 31.0541 15.4439 30.9V29.8207C15.4439 29.5895 15.2126 29.2812 14.9814 29.127ZM23.1523 5.07696C22.8439 4.92285 22.5355 5.07696 22.4585 5.38535C22.3814 5.4625 22.3814 5.53946 22.3814 5.69375V6.77285C22.3814 7.08125 22.6126 7.38946 22.8439 7.54375C28.8564 9.70196 31.9398 16.4082 29.7042 22.3437C28.548 25.5812 26.0042 28.0479 22.8439 29.2041C22.5355 29.3582 22.3814 29.5895 22.3814 29.975V31.0541C22.3814 31.3625 22.5355 31.5937 22.8439 31.6707C22.921 31.6707 23.0751 31.6707 23.1523 31.5937C30.4751 29.2812 34.4835 21.4957 32.171 14.1729C30.7835 9.7791 27.3917 6.46446 23.1523 5.07696Z" fill="white"/>
<g clip-path="url(#clip0_6586_9095)">
<path d="M37 29C37 24.5817 33.4183 21 29 21C24.5817 21 21 24.5817 21 29C21 33.4183 24.5817 37 29 37C33.4183 37 37 33.4183 37 29Z" fill="url(#paint0_radial_6586_9095)"/>
<path fill-rule="evenodd" clip-rule="evenodd" d="M30.1712 25.6312C30.111 25.6942 30.0599 25.846 30.0304 26.0487C29.9588 26.5417 30.0087 26.8475 30.231 27.278C30.3983 27.6019 30.439 27.6753 30.5144 27.7891C30.5573 27.8539 30.612 27.9445 30.6358 27.9903C30.7184 28.1489 30.8507 28.3665 31.0735 28.7099C31.1197 28.7811 31.1909 28.8996 31.2316 28.9731C31.2723 29.0467 31.313 29.1199 31.3219 29.1358C31.3308 29.1517 31.3717 29.2093 31.4127 29.2636C31.4878 29.363 31.5809 29.5052 31.611 29.5662C31.6257 29.596 31.6767 29.6807 31.8011 29.8817C31.8257 29.9215 31.8529 29.9656 31.8616 29.9796C31.8702 29.9937 31.9061 30.0464 31.9413 30.0969C31.9765 30.1473 32.0345 30.238 32.0702 30.2984C32.1058 30.3587 32.171 30.451 32.2151 30.5033C32.3808 30.6999 32.4207 30.7995 32.3849 30.9271C32.3702 30.9795 32.2495 31.124 32.2337 31.1082C32.2261 31.1007 32.2205 31.1253 32.2245 31.1484C32.2256 31.1543 32.2152 31.1556 32.2014 31.1513C32.1854 31.1462 32.1735 31.1506 32.1686 31.1634C32.1643 31.1745 32.1669 31.1835 32.1744 31.1835C32.1818 31.1835 32.1842 31.1895 32.1797 31.1967C32.1753 31.2039 32.1601 31.2098 32.1461 31.2098C32.132 31.2098 32.1206 31.2158 32.1206 31.223C32.1206 31.2302 32.1354 31.2361 32.1534 31.2361C32.1739 31.2361 32.1863 31.2436 32.1863 31.2559C32.1863 31.2712 32.2039 31.2756 32.2652 31.2756C32.309 31.2756 32.3441 31.2815 32.3441 31.2887C32.3441 31.296 32.3556 31.3019 32.3696 31.3019C32.3837 31.3019 32.3986 31.3074 32.4028 31.3142C32.4119 31.3289 32.4867 31.3675 32.5072 31.368C32.5217 31.3684 32.6071 31.4406 32.6071 31.4525C32.6071 31.4691 32.7218 31.5643 32.7423 31.5646C32.7552 31.5647 32.7691 31.5737 32.7733 31.5846C32.778 31.5968 32.798 31.6043 32.8255 31.6043C32.85 31.6043 32.8701 31.6103 32.8701 31.6175C32.8701 31.6247 32.8783 31.6306 32.8883 31.6306C32.8983 31.6306 32.9235 31.6395 32.9442 31.6503C32.9882 31.6732 33.02 31.6761 33.0076 31.6561C33.0018 31.6465 33.0151 31.645 33.0496 31.6513C33.1138 31.6629 33.1216 31.6697 33.0728 31.6716L33.0345 31.6732L33.0739 31.6832C33.1334 31.6984 33.2148 31.6985 33.2055 31.6834C33.2009 31.6759 33.2062 31.6737 33.2178 31.6782C33.229 31.6825 33.2347 31.6915 33.2305 31.6983C33.214 31.7251 33.517 31.7092 33.5761 31.6801C33.6888 31.6247 33.6809 31.4838 33.5537 31.2822C33.54 31.2605 33.5211 31.2301 33.5118 31.2147C33.4899 31.1786 33.3672 30.9301 33.3374 30.8614C33.301 30.7772 33.2499 30.6789 33.2316 30.6575C33.2223 30.6467 33.1676 30.5461 33.1102 30.4341C33.0526 30.3219 32.982 30.1917 32.9532 30.1447C32.9244 30.0977 32.865 29.9912 32.8212 29.908C32.7535 29.7796 32.6742 29.6364 32.4168 29.1783C32.3964 29.1421 32.3697 29.0977 32.3573 29.0796C32.345 29.0615 32.2888 28.958 32.2326 28.8495C32.1763 28.741 32.1094 28.6197 32.084 28.5799C31.9736 28.4078 31.7248 27.9857 31.6736 27.8836C31.6149 27.7665 31.5425 27.6432 31.4301 27.4688C31.3928 27.4109 31.3369 27.3163 31.3058 27.2584C31.2748 27.2005 31.2096 27.0852 31.1608 27.002C31.112 26.9189 31.0189 26.7591 30.954 26.6469C30.8891 26.5349 30.8044 26.3929 30.7659 26.3314C30.7274 26.2699 30.6777 26.1881 30.6554 26.1495C30.6332 26.1109 30.609 26.0695 30.6018 26.0575C30.5946 26.0454 30.5447 25.9586 30.491 25.8646C30.3416 25.6028 30.257 25.5411 30.1712 25.6312ZM27.7303 25.8007C27.6338 25.8362 27.3473 26.1885 27.3473 26.2718C27.3473 26.2749 27.2722 26.4184 27.1805 26.5905C27.0888 26.7626 26.992 26.9537 26.9654 27.0152C26.9389 27.0766 26.8898 27.1713 26.8565 27.2255C26.7402 27.4149 26.6164 27.7087 26.5912 27.8553C26.5871 27.8797 26.5788 27.9093 26.5728 27.921C26.5668 27.9327 26.5631 27.9555 26.5645 27.9718C26.5659 27.9881 26.5636 28.0013 26.5594 28.0013C26.5408 28.0013 26.5608 28.2713 26.5812 28.2939C26.6133 28.3297 26.6241 28.3211 26.6023 28.2773C26.5742 28.2209 26.5853 28.2061 26.6268 28.2445C26.6464 28.2627 26.6708 28.2775 26.6811 28.2775C26.6914 28.2775 26.7071 28.2864 26.7161 28.2972C26.7301 28.3141 26.7264 28.3169 26.6914 28.3169C26.6688 28.3169 26.6504 28.3229 26.6504 28.3301C26.6504 28.3373 26.6615 28.3433 26.675 28.3433C26.6886 28.3433 26.7071 28.3521 26.7161 28.363C26.7398 28.3916 26.8578 28.3894 26.8912 28.3597C26.9165 28.3373 26.9168 28.3375 26.9011 28.3674C26.8841 28.3997 26.894 28.4271 26.9121 28.3979C26.9179 28.3886 26.9321 28.3796 26.9436 28.3779C26.9552 28.3762 26.9778 28.3632 26.9939 28.3492C27.0116 28.3336 27.0187 28.3313 27.0119 28.3433C27.0057 28.3541 27.0258 28.3381 27.0566 28.3077C27.0874 28.2773 27.124 28.2488 27.1379 28.2443C27.1518 28.2399 27.1632 28.2299 27.1632 28.2222C27.1632 28.2145 27.1773 28.1951 27.1946 28.1791C27.2118 28.1632 27.2481 28.1181 27.2753 28.079C27.374 27.937 27.4195 27.8752 27.4727 27.8107C27.5026 27.7745 27.5556 27.7018 27.5905 27.649C27.7356 27.4299 27.8745 27.4051 28.0251 27.5716C28.0646 27.6151 28.0968 27.6559 28.0968 27.6623C28.0968 27.6685 28.1081 27.6897 28.1219 27.7093C28.1785 27.7897 28.38 28.1054 28.4215 28.1789C28.4858 28.2926 28.4888 28.2973 28.5826 28.4419C28.659 28.5595 28.7307 28.6624 28.7676 28.7076C28.7748 28.7163 28.7806 28.7265 28.7806 28.7303C28.7806 28.7368 28.9342 28.9657 28.9766 29.0222C28.9881 29.0377 29.0064 29.0635 29.0173 29.0797C29.0281 29.0958 29.0532 29.1305 29.073 29.1568C29.0927 29.1831 29.132 29.2371 29.1602 29.2769C29.1884 29.3167 29.2263 29.3651 29.2445 29.3846C29.2627 29.4041 29.2937 29.4529 29.3134 29.4931C29.333 29.5333 29.3553 29.5662 29.3629 29.5662C29.3705 29.5662 29.373 29.5698 29.3685 29.5743C29.3594 29.5835 29.4134 29.6602 29.4647 29.7108C29.483 29.7289 29.5116 29.7614 29.5282 29.7831C29.5448 29.8048 29.5538 29.8137 29.5483 29.8029C29.5394 29.7855 29.5411 29.7854 29.5618 29.8023C29.5748 29.8128 29.5942 29.8227 29.6049 29.8243C29.6156 29.8259 29.6358 29.8374 29.6496 29.8499C29.6635 29.8625 29.6748 29.8661 29.6748 29.8579C29.6748 29.8405 29.7113 29.8513 29.7425 29.878C29.7571 29.8905 29.767 29.8921 29.7728 29.8826C29.789 29.8565 29.8457 29.8661 29.8457 29.8949C29.8457 29.9116 29.8545 29.9212 29.8697 29.9212C29.8829 29.9212 29.9076 29.936 29.9246 29.9541C29.9416 29.9721 29.9623 29.9869 29.9706 29.9869C29.979 29.9869 29.9997 30.0017 30.0166 30.0198C30.0401 30.0448 30.0609 30.0527 30.1028 30.0527C30.1369 30.0527 30.1646 30.0605 30.1751 30.0733C30.1906 30.0919 30.1934 30.0917 30.2042 30.0723C30.2153 30.0525 30.2183 30.0526 30.2414 30.0735C30.2552 30.086 30.2667 30.0909 30.2669 30.0843C30.2672 30.0778 30.276 30.0839 30.2866 30.0979C30.3053 30.1226 30.3059 30.1224 30.3061 30.0913C30.3063 30.0658 30.3089 30.0633 30.3191 30.079C30.3304 30.0965 30.3319 30.0965 30.3322 30.079C30.3326 30.0615 30.334 30.0615 30.3455 30.079C30.3553 30.0941 30.3576 30.0902 30.3555 30.0626C30.354 30.0427 30.3494 30.0264 30.3453 30.0264C30.3412 30.0264 30.337 30.0154 30.336 30.0021C30.3312 29.9384 30.26 29.758 30.2238 29.7182C30.2111 29.7042 30.2008 29.6888 30.2008 29.684C30.2008 29.6793 30.189 29.6611 30.1747 29.6438C30.1343 29.5947 30.1287 29.5862 30.1241 29.5658C30.1217 29.5553 30.1151 29.5437 30.1094 29.54C30.1037 29.5363 30.0682 29.4593 30.0306 29.3689C29.9333 29.1353 29.8554 28.9798 29.6749 28.6589C29.6404 28.5974 29.5837 28.4909 29.5491 28.4221C29.5145 28.3535 29.4534 28.2469 29.4134 28.1855C29.3734 28.124 29.2977 27.9879 29.2453 27.883C29.1347 27.662 29.0688 27.5403 28.9471 27.3323C28.8989 27.25 28.8595 27.18 28.8595 27.1767C28.8595 27.1735 28.8396 27.1403 28.8152 27.1029C28.7568 27.0131 28.6754 26.8715 28.6754 26.8596C28.6754 26.8447 28.5048 26.5479 28.4171 26.4103C28.3733 26.3415 28.3006 26.2129 28.2556 26.1243C28.1085 25.8352 27.9321 25.7266 27.7303 25.8007ZM30.3456 30.1295C30.3462 30.1555 30.3713 30.1765 30.3717 30.1513C30.372 30.1291 30.3743 30.1281 30.386 30.1447C30.397 30.1602 30.3989 30.1604 30.395 30.1459C30.39 30.1275 30.3452 30.1126 30.3456 30.1295Z" fill="white"/>
<path fill-rule="evenodd" clip-rule="evenodd" d="M30.16 25.572C30.0217 25.7101 29.9566 26.0066 29.9678 26.4472C29.9792 26.8971 30.0379 27.0679 30.3891 27.6726C30.6366 28.0987 30.9512 28.632 31.0442 28.7829C31.2192 29.0667 31.3602 29.3074 31.4405 29.4594C31.484 29.5417 31.5824 29.7144 31.659 29.8432C31.8182 30.1105 31.9644 30.3584 32.065 30.5316C32.2696 30.8837 32.2237 30.9271 31.6472 30.9271H31.2593L31.1861 30.8928C31.0835 30.8447 30.9626 30.675 30.6907 30.1973C30.6475 30.1214 30.5528 29.9613 30.4803 29.8416C30.4078 29.7219 30.2773 29.4971 30.1903 29.342C30.1033 29.1869 29.9657 28.9504 29.8845 28.8167C29.7347 28.5698 29.6396 28.4085 29.4614 28.0993C29.407 28.0048 29.3229 27.8634 29.2744 27.7851C29.226 27.7067 29.1375 27.5561 29.0778 27.4505C28.947 27.2193 28.6021 26.6254 28.5325 26.5116C28.505 26.4667 28.4424 26.359 28.3933 26.2722C28.1582 25.8567 28.0286 25.7263 27.8507 25.7266C27.6931 25.7269 27.5674 25.8225 27.446 26.0346C27.3789 26.1517 27.3377 26.2197 27.0937 26.6167C27.0172 26.741 26.8771 26.9777 26.7822 27.1426C26.6874 27.3075 26.5607 27.5253 26.5008 27.6266C26.4408 27.7279 26.3414 27.8965 26.2799 28.0013C26.2184 28.1063 26.1179 28.2749 26.0566 28.3761C25.9953 28.4774 25.9105 28.6253 25.8682 28.7049C25.8259 28.7844 25.7636 28.8939 25.7299 28.9481C25.6962 29.0024 25.6348 29.1079 25.5936 29.1826C25.5523 29.2573 25.4646 29.4047 25.3988 29.5102C25.3329 29.6157 25.2394 29.7706 25.1912 29.8543C25.1429 29.9381 25.0353 30.125 24.9521 30.2697C24.8689 30.4143 24.7623 30.5977 24.7153 30.6773C24.1907 31.5645 24.1883 31.5704 24.2778 31.7498C24.3296 31.8534 24.4239 31.9251 24.561 31.965C24.6479 31.9902 28.8324 32.0063 28.9575 31.9819C29.4411 31.8875 28.5389 31.0987 27.7944 30.965C27.6892 30.9461 27.5408 30.9413 26.8542 30.9348C25.9542 30.9262 25.9648 30.9272 25.9215 30.8433C25.8843 30.7715 25.9088 30.6927 26.0288 30.4987C26.0574 30.4523 26.139 30.3137 26.2101 30.1908C26.2812 30.0678 26.3761 29.9051 26.4211 29.8291C26.4661 29.7532 26.537 29.6289 26.5787 29.553C26.6204 29.4771 26.6775 29.381 26.7055 29.3395C26.7624 29.2551 27.0518 28.7683 27.1296 28.626C27.1573 28.5753 27.2257 28.457 27.2817 28.363C27.3377 28.269 27.4518 28.0763 27.5353 27.9348C27.781 27.5185 27.8707 27.4819 28.0287 27.7334C28.191 27.9916 28.4082 28.3548 28.5884 28.6692C28.6993 28.8627 28.8386 29.1004 28.8981 29.1973C28.9575 29.2942 29.0445 29.4439 29.0914 29.5299C29.1383 29.6159 29.2314 29.7761 29.2984 29.8859C29.3654 29.9957 29.4606 30.1595 29.51 30.2499C29.5594 30.3403 29.6544 30.5031 29.721 30.6115C29.7877 30.72 29.8736 30.865 29.9119 30.9337C29.9502 31.0024 29.9975 31.0823 30.017 31.1112C30.0364 31.1401 30.0779 31.2111 30.1092 31.269C30.3631 31.7384 30.4981 31.904 30.6742 31.9618C30.7728 31.9942 33.3416 32.0025 33.5013 31.971C33.731 31.9257 33.8625 31.7386 33.8174 31.5215C33.7978 31.4267 33.7321 31.2999 33.4994 30.9074C33.3944 30.7302 33.2769 30.529 33.2384 30.4603C33.1998 30.3916 33.1329 30.2763 33.0896 30.2039C33.0464 30.1316 32.9626 29.9896 32.9034 29.8883C32.5791 29.3331 32.3672 28.9719 32.2593 28.7903C32.1927 28.6782 32.1146 28.5451 32.0858 28.4945C31.9536 28.2621 31.7815 27.971 31.7116 27.8617C31.6694 27.7958 31.5924 27.6626 31.5404 27.5659C31.4884 27.4691 31.4125 27.3367 31.3717 27.2716C31.3309 27.2065 31.2776 27.1177 31.2532 27.0743C31.2102 26.9981 30.7736 26.2555 30.5344 25.8519C30.3448 25.532 30.262 25.4701 30.16 25.572ZM30.3426 25.6443C30.3706 25.6715 30.4374 25.7706 30.4911 25.8646C30.5448 25.9586 30.5946 26.0454 30.6018 26.0575C30.6091 26.0695 30.6332 26.1109 30.6554 26.1495C30.6777 26.1881 30.7274 26.2699 30.766 26.3314C30.8045 26.3929 30.8891 26.5349 30.954 26.6469C31.019 26.7591 31.112 26.9189 31.1608 27.002C31.2096 27.0852 31.2749 27.2005 31.3059 27.2584C31.337 27.3163 31.3928 27.4109 31.4301 27.4688C31.5426 27.6432 31.6149 27.7665 31.6737 27.8836C31.7249 27.9857 31.9736 28.4078 32.084 28.5799C32.1095 28.6197 32.1764 28.741 32.2326 28.8495C32.2889 28.958 32.345 29.0615 32.3574 29.0796C32.3697 29.0977 32.3964 29.1421 32.4168 29.1783C32.6742 29.6364 32.7536 29.7796 32.8212 29.908C32.865 29.9912 32.9244 30.0977 32.9532 30.1447C32.9821 30.1917 33.0527 30.3219 33.1102 30.4341C33.1677 30.5461 33.2223 30.6467 33.2316 30.6575C33.2499 30.6789 33.301 30.7772 33.3375 30.8614C33.3673 30.9301 33.4899 31.1786 33.5118 31.2147C33.5212 31.2301 33.54 31.2605 33.5538 31.2822C33.6809 31.4838 33.6888 31.6247 33.5761 31.6801C33.517 31.7092 33.214 31.7251 33.2306 31.6983C33.2348 31.6915 33.229 31.6825 33.2178 31.6782C33.2062 31.6737 33.2009 31.6759 33.2056 31.6834C33.2148 31.6985 33.1334 31.6984 33.074 31.6832L33.0345 31.6732L33.0729 31.6716C33.1216 31.6697 33.1139 31.6629 33.0496 31.6513C33.0152 31.645 33.0018 31.6465 33.0077 31.6561C33.02 31.6761 32.9882 31.6732 32.9442 31.6503C32.9235 31.6395 32.8984 31.6306 32.8884 31.6306C32.8783 31.6306 32.8702 31.6247 32.8702 31.6175C32.8702 31.6103 32.85 31.6043 32.8255 31.6043C32.798 31.6043 32.778 31.5968 32.7734 31.5846C32.7692 31.5737 32.7552 31.5647 32.7424 31.5646C32.7218 31.5643 32.6071 31.4691 32.6071 31.4525C32.6071 31.4406 32.5217 31.3684 32.5072 31.368C32.4868 31.3675 32.4119 31.3289 32.4028 31.3142C32.3986 31.3074 32.3837 31.3019 32.3697 31.3019C32.3556 31.3019 32.3441 31.296 32.3441 31.2887C32.3441 31.2815 32.3091 31.2756 32.2652 31.2756C32.2039 31.2756 32.1864 31.2712 32.1864 31.2559C32.1864 31.2436 32.1739 31.2361 32.1535 31.2361C32.1354 31.2361 32.1206 31.2302 32.1206 31.223C32.1206 31.2158 32.1321 31.2098 32.1462 31.2098C32.1602 31.2098 32.1753 31.2039 32.1798 31.1967C32.1843 31.1895 32.1818 31.1835 32.1744 31.1835C32.167 31.1835 32.1644 31.1745 32.1686 31.1634C32.1735 31.1506 32.1854 31.1462 32.2014 31.1513C32.2152 31.1556 32.2256 31.1543 32.2246 31.1484C32.2206 31.1253 32.2262 31.1007 32.2337 31.1082C32.2496 31.124 32.3702 30.9795 32.3849 30.9271C32.4207 30.7995 32.3808 30.6999 32.2152 30.5033C32.1711 30.451 32.1058 30.3587 32.0702 30.2984C32.0345 30.238 31.9766 30.1473 31.9414 30.0969C31.9062 30.0464 31.8702 29.9937 31.8616 29.9796C31.853 29.9656 31.8257 29.9215 31.8011 29.8817C31.6768 29.6807 31.6258 29.596 31.611 29.5662C31.581 29.5052 31.4878 29.363 31.4128 29.2636C31.3718 29.2093 31.3309 29.1517 31.3219 29.1358C31.313 29.1199 31.2724 29.0467 31.2316 28.9731C31.1909 28.8996 31.1198 28.7811 31.0736 28.7099C30.8508 28.3665 30.7184 28.1489 30.6358 27.9903C30.612 27.9445 30.5573 27.8539 30.5144 27.7891C30.3394 27.5248 30.1215 27.0786 30.0557 26.8498C30.0057 26.6757 29.987 26.4077 30.0104 26.1999C30.0681 25.688 30.1853 25.4919 30.3426 25.6443ZM28.0112 25.8257C28.1134 25.8856 28.1684 25.9528 28.2556 26.1243C28.3007 26.2129 28.3734 26.3415 28.4172 26.4103C28.5049 26.5479 28.6754 26.8447 28.6754 26.8596C28.6754 26.8715 28.7568 27.0131 28.8152 27.1029C28.8396 27.1403 28.8596 27.1735 28.8596 27.1767C28.8596 27.18 28.899 27.25 28.9471 27.3323C29.0688 27.5403 29.1348 27.662 29.2453 27.883C29.2978 27.9879 29.3734 28.124 29.4134 28.1855C29.4534 28.2469 29.5145 28.3535 29.5492 28.4221C29.5838 28.4909 29.6404 28.5974 29.675 28.6589C29.8555 28.9798 29.9333 29.1353 30.0306 29.3689C30.0683 29.4593 30.1038 29.5363 30.1094 29.54C30.1151 29.5437 30.1217 29.5553 30.1241 29.5658C30.1288 29.5862 30.1343 29.5947 30.1747 29.6438C30.1891 29.6611 30.2008 29.6793 30.2008 29.684C30.2008 29.6888 30.2112 29.7042 30.2239 29.7182C30.26 29.758 30.3312 29.9384 30.336 30.0021C30.337 30.0154 30.3412 30.0264 30.3454 30.0264C30.3495 30.0264 30.354 30.0427 30.3556 30.0626C30.3577 30.0902 30.3553 30.0941 30.3455 30.079C30.3341 30.0615 30.3326 30.0615 30.3323 30.079C30.3319 30.0965 30.3304 30.0965 30.3191 30.079C30.309 30.0633 30.3063 30.0658 30.3062 30.0913C30.306 30.1224 30.3054 30.1226 30.2866 30.0979C30.2761 30.0839 30.2672 30.0778 30.267 30.0843C30.2667 30.0909 30.2552 30.086 30.2414 30.0735C30.2183 30.0526 30.2153 30.0525 30.2043 30.0723C30.1934 30.0917 30.1906 30.0919 30.1752 30.0733C30.1646 30.0605 30.1369 30.0527 30.1028 30.0527C30.0609 30.0527 30.0402 30.0448 30.0167 30.0198C29.9997 30.0017 29.979 29.9869 29.9707 29.9869C29.9624 29.9869 29.9416 29.9721 29.9246 29.9541C29.9077 29.936 29.8829 29.9212 29.8697 29.9212C29.8545 29.9212 29.8458 29.9116 29.8458 29.8949C29.8458 29.8661 29.789 29.8565 29.7729 29.8826C29.767 29.8921 29.7572 29.8905 29.7425 29.878C29.7114 29.8513 29.6748 29.8405 29.6748 29.8579C29.6748 29.8661 29.6635 29.8625 29.6496 29.8499C29.6358 29.8374 29.6157 29.8259 29.605 29.8243C29.5942 29.8227 29.5748 29.8128 29.5618 29.8023C29.5411 29.7854 29.5394 29.7855 29.5483 29.8029C29.5539 29.8137 29.5448 29.8048 29.5282 29.7831C29.5116 29.7614 29.483 29.7289 29.4647 29.7108C29.4135 29.6602 29.3594 29.5835 29.3686 29.5743C29.373 29.5698 29.3705 29.5662 29.363 29.5662C29.3554 29.5662 29.3331 29.5333 29.3134 29.4931C29.2937 29.4529 29.2627 29.4041 29.2446 29.3846C29.2264 29.3651 29.1884 29.3167 29.1602 29.2769C29.132 29.2371 29.0928 29.1831 29.073 29.1568C29.0532 29.1305 29.0282 29.0958 29.0173 29.0797C29.0065 29.0635 28.9881 29.0377 28.9766 29.0222C28.9343 28.9657 28.7806 28.7368 28.7806 28.7303C28.7806 28.7265 28.7748 28.7163 28.7676 28.7076C28.7307 28.6624 28.6591 28.5595 28.5827 28.4419C28.4888 28.2973 28.4859 28.2926 28.4216 28.1789C28.38 28.1054 28.1785 27.7897 28.122 27.7093C28.1082 27.6897 28.0969 27.6685 28.0969 27.6623C28.0969 27.6559 28.0646 27.6151 28.0252 27.5716C27.8745 27.4051 27.7357 27.4299 27.5906 27.649C27.5556 27.7018 27.5026 27.7745 27.4728 27.8107C27.4196 27.8752 27.3741 27.937 27.2753 28.079C27.2482 28.1181 27.2118 28.1632 27.1946 28.1791C27.1773 28.1951 27.1632 28.2145 27.1632 28.2222C27.1632 28.2299 27.1518 28.2399 27.1379 28.2443C27.124 28.2488 27.0874 28.2773 27.0566 28.3077C27.0259 28.3381 27.0058 28.3541 27.0119 28.3433C27.0188 28.3313 27.0117 28.3336 26.9939 28.3492C26.9779 28.3632 26.9553 28.3762 26.9437 28.3779C26.9321 28.3796 26.9179 28.3886 26.9121 28.3979C26.8941 28.4271 26.8842 28.3997 26.9011 28.3674C26.9168 28.3375 26.9165 28.3373 26.8913 28.3597C26.8578 28.3894 26.7399 28.3916 26.7162 28.363C26.7072 28.3521 26.6887 28.3433 26.6751 28.3433C26.6615 28.3433 26.6504 28.3373 26.6504 28.3301C26.6504 28.3229 26.6689 28.3169 26.6915 28.3169C26.7265 28.3169 26.7301 28.3141 26.7162 28.2972C26.7072 28.2864 26.6914 28.2775 26.6811 28.2775C26.6708 28.2775 26.6464 28.2627 26.6269 28.2445C26.5854 28.2061 26.5742 28.2209 26.6024 28.2773C26.6242 28.3211 26.6133 28.3297 26.5812 28.2939C26.5608 28.2713 26.5408 28.0013 26.5594 28.0013C26.5637 28.0013 26.566 27.9881 26.5646 27.9718C26.5632 27.9555 26.5668 27.9327 26.5728 27.921C26.5788 27.9093 26.5871 27.8797 26.5913 27.8553C26.6164 27.7087 26.7402 27.4149 26.8566 27.2255C26.8899 27.1713 26.9389 27.0766 26.9655 27.0152C26.992 26.9537 27.0888 26.7626 27.1806 26.5905C27.2723 26.4184 27.3474 26.2749 27.3474 26.2718C27.3474 26.2417 27.5365 25.9581 27.5967 25.8979C27.7229 25.7717 27.8742 25.7454 28.0112 25.8257ZM30.395 30.1459C30.399 30.1604 30.397 30.1602 30.3861 30.1447C30.3743 30.1281 30.3721 30.1291 30.3717 30.1513C30.3714 30.1765 30.3462 30.1555 30.3456 30.1295C30.3452 30.1126 30.3901 30.1275 30.395 30.1459Z" fill="white"/>
<path d="M30.5144 27.7891C30.4391 27.6753 30.3984 27.6019 30.231 27.278C30.0087 26.8475 29.9588 26.5417 30.0305 26.0487C30.0599 25.846 30.1111 25.6942 30.1712 25.6312C30.2571 25.5411 30.3416 25.6028 30.4911 25.8646M30.5144 27.7891C30.5573 27.8539 30.612 27.9445 30.6358 27.9903C30.7184 28.1489 30.8508 28.3665 31.0736 28.7099C31.1198 28.7811 31.1909 28.8996 31.2316 28.9731C31.2724 29.0467 31.313 29.1199 31.3219 29.1358C31.3309 29.1517 31.3718 29.2093 31.4128 29.2636C31.4878 29.363 31.581 29.5052 31.611 29.5662C31.6258 29.596 31.6768 29.6807 31.8011 29.8817C31.8257 29.9215 31.853 29.9656 31.8616 29.9796C31.8702 29.9937 31.9062 30.0464 31.9414 30.0969C31.9766 30.1473 32.0345 30.238 32.0702 30.2984C32.1058 30.3587 32.1711 30.451 32.2152 30.5033C32.3808 30.6999 32.4207 30.7995 32.3849 30.9271C32.3702 30.9795 32.2496 31.124 32.2337 31.1082C32.2262 31.1007 32.2206 31.1253 32.2246 31.1484C32.2256 31.1543 32.2152 31.1556 32.2014 31.1513C32.1854 31.1462 32.1735 31.1506 32.1686 31.1634C32.1644 31.1745 32.167 31.1835 32.1744 31.1835C32.1818 31.1835 32.1843 31.1895 32.1798 31.1967C32.1753 31.2039 32.1602 31.2098 32.1462 31.2098C32.1321 31.2098 32.1206 31.2158 32.1206 31.223C32.1206 31.2302 32.1354 31.2361 32.1535 31.2361C32.1739 31.2361 32.1864 31.2436 32.1864 31.2559C32.1864 31.2712 32.2039 31.2756 32.2652 31.2756C32.3091 31.2756 32.3441 31.2815 32.3441 31.2887C32.3441 31.296 32.3556 31.3019 32.3697 31.3019C32.3837 31.3019 32.3986 31.3074 32.4028 31.3142C32.4119 31.3289 32.4868 31.3675 32.5072 31.368C32.5217 31.3684 32.6071 31.4406 32.6071 31.4525C32.6071 31.4691 32.7218 31.5643 32.7424 31.5646C32.7552 31.5647 32.7692 31.5737 32.7734 31.5846C32.778 31.5968 32.798 31.6043 32.8255 31.6043C32.85 31.6043 32.8702 31.6103 32.8702 31.6175C32.8702 31.6247 32.8783 31.6306 32.8884 31.6306C32.8984 31.6306 32.9235 31.6395 32.9442 31.6503C32.9882 31.6732 33.02 31.6761 33.0077 31.6561C33.0018 31.6465 33.0152 31.645 33.0496 31.6513C33.1139 31.6629 33.1216 31.6697 33.0729 31.6716L33.0345 31.6732L33.074 31.6832C33.1334 31.6984 33.2148 31.6985 33.2056 31.6834C33.2009 31.6759 33.2062 31.6737 33.2178 31.6782C33.229 31.6825 33.2348 31.6915 33.2306 31.6983C33.214 31.7251 33.517 31.7092 33.5761 31.6801C33.6888 31.6247 33.6809 31.4838 33.5538 31.2822C33.54 31.2605 33.5212 31.2301 33.5118 31.2147C33.4899 31.1786 33.3673 30.9301 33.3375 30.8614C33.301 30.7772 33.2499 30.6789 33.2316 30.6575C33.2223 30.6467 33.1677 30.5461 33.1102 30.4341C33.0527 30.3219 32.9821 30.1917 32.9532 30.1447C32.9244 30.0977 32.865 29.9912 32.8212 29.908C32.7536 29.7796 32.6742 29.6364 32.4168 29.1783C32.3964 29.1421 32.3697 29.0977 32.3574 29.0796C32.345 29.0615 32.2889 28.958 32.2326 28.8495C32.1764 28.741 32.1095 28.6197 32.084 28.5799C31.9736 28.4078 31.7249 27.9857 31.6737 27.8836C31.6149 27.7665 31.5426 27.6432 31.4301 27.4688C31.3928 27.411 31.337 27.3163 31.3059 27.2584C31.2749 27.2005 31.2096 27.0852 31.1608 27.002C31.112 26.9189 31.019 26.7591 30.954 26.6469C30.8891 26.5349 30.8045 26.3929 30.766 26.3314C30.7274 26.2699 30.6777 26.1881 30.6554 26.1495C30.6332 26.1109 30.6091 26.0695 30.6018 26.0575C30.5946 26.0454 30.5448 25.9586 30.4911 25.8646M30.5144 27.7891C30.3394 27.5248 30.1215 27.0786 30.0557 26.8498C30.0057 26.6757 29.987 26.4077 30.0104 26.1999C30.0681 25.688 30.1853 25.4919 30.3426 25.6443C30.3706 25.6715 30.4374 25.7706 30.4911 25.8646M27.3474 26.2718C27.3474 26.1885 27.6338 25.8362 27.7303 25.8007C27.9322 25.7266 28.1086 25.8352 28.2556 26.1243M27.3474 26.2718C27.3474 26.2749 27.2723 26.4184 27.1806 26.5905C27.0888 26.7626 26.992 26.9537 26.9655 27.0152C26.9389 27.0766 26.8899 27.1713 26.8566 27.2255C26.7402 27.4149 26.6164 27.7087 26.5913 27.8553C26.5871 27.8797 26.5788 27.9093 26.5728 27.921C26.5668 27.9327 26.5632 27.9555 26.5646 27.9718C26.566 27.9881 26.5637 28.0013 26.5594 28.0013C26.5408 28.0013 26.5608 28.2713 26.5812 28.2939C26.6133 28.3297 26.6242 28.3211 26.6024 28.2773C26.5742 28.2209 26.5854 28.2061 26.6269 28.2445C26.6464 28.2627 26.6708 28.2775 26.6811 28.2775C26.6914 28.2775 26.7072 28.2864 26.7162 28.2972C26.7301 28.3141 26.7265 28.3169 26.6915 28.3169C26.6689 28.3169 26.6504 28.3229 26.6504 28.3301C26.6504 28.3373 26.6615 28.3433 26.6751 28.3433C26.6887 28.3433 26.7072 28.3521 26.7162 28.363C26.7399 28.3916 26.8578 28.3894 26.8913 28.3597C26.9165 28.3373 26.9168 28.3375 26.9011 28.3674C26.8842 28.3997 26.8941 28.4271 26.9121 28.3979C26.9179 28.3886 26.9321 28.3796 26.9437 28.3779C26.9553 28.3762 26.9779 28.3632 26.9939 28.3492C27.0117 28.3336 27.0188 28.3313 27.0119 28.3433C27.0058 28.3541 27.0259 28.3381 27.0566 28.3077C27.0874 28.2773 27.124 28.2488 27.1379 28.2443C27.1518 28.2399 27.1632 28.2299 27.1632 28.2222C27.1632 28.2145 27.1773 28.1951 27.1946 28.1791C27.2118 28.1632 27.2482 28.1181 27.2753 28.079C27.3741 27.937 27.4196 27.8752 27.4728 27.8107C27.5026 27.7745 27.5556 27.7018 27.5906 27.649C27.7357 27.4299 27.8745 27.4051 28.0252 27.5716C28.0646 27.6151 28.0969 27.6559 28.0969 27.6623C28.0969 27.6685 28.1082 27.6897 28.122 27.7093C28.1785 27.7897 28.38 28.1054 28.4216 28.1789C28.4859 28.2926 28.4888 28.2973 28.5827 28.4419C28.6591 28.5595 28.7307 28.6624 28.7676 28.7076C28.7748 28.7163 28.7806 28.7265 28.7806 28.7303C28.7806 28.7368 28.9343 28.9657 28.9766 29.0222C28.9881 29.0377 29.0065 29.0635 29.0173 29.0797C29.0282 29.0958 29.0532 29.1305 29.073 29.1568C29.0928 29.1831 29.132 29.2371 29.1602 29.2769C29.1884 29.3167 29.2264 29.3651 29.2446 29.3846C29.2627 29.4041 29.2937 29.4529 29.3134 29.4931C29.3331 29.5333 29.3554 29.5662 29.363 29.5662C29.3705 29.5662 29.373 29.5698 29.3686 29.5743C29.3594 29.5835 29.4135 29.6602 29.4647 29.7108C29.483 29.7289 29.5116 29.7614 29.5282 29.7831C29.5448 29.8048 29.5539 29.8137 29.5483 29.8029C29.5394 29.7855 29.5411 29.7854 29.5618 29.8023C29.5748 29.8128 29.5942 29.8227 29.605 29.8243C29.6157 29.8259 29.6358 29.8374 29.6496 29.8499C29.6635 29.8625 29.6748 29.8661 29.6748 29.8579C29.6748 29.8405 29.7114 29.8513 29.7425 29.878C29.7572 29.8905 29.767 29.8921 29.7729 29.8826C29.789 29.8565 29.8458 29.8661 29.8458 29.8949C29.8458 29.9116 29.8545 29.9212 29.8697 29.9212C29.8829 29.9212 29.9077 29.936 29.9246 29.9541C29.9416 29.9721 29.9624 29.9869 29.9707 29.9869C29.979 29.9869 29.9997 30.0017 30.0167 30.0198C30.0402 30.0448 30.0609 30.0527 30.1028 30.0527C30.1369 30.0527 30.1646 30.0605 30.1752 30.0733C30.1906 30.0919 30.1934 30.0917 30.2043 30.0723C30.2153 30.0525 30.2183 30.0526 30.2414 30.0735C30.2552 30.086 30.2667 30.0909 30.267 30.0843C30.2672 30.0778 30.2761 30.0839 30.2866 30.0979C30.3054 30.1226 30.306 30.1224 30.3062 30.0913C30.3063 30.0658 30.309 30.0633 30.3191 30.079C30.3304 30.0965 30.3319 30.0965 30.3323 30.079C30.3326 30.0615 30.3341 30.0615 30.3455 30.079C30.3553 30.0941 30.3577 30.0902 30.3556 30.0626C30.354 30.0427 30.3495 30.0264 30.3454 30.0264C30.3412 30.0264 30.337 30.0154 30.336 30.0021C30.3312 29.9384 30.26 29.758 30.2239 29.7182C30.2112 29.7042 30.2008 29.6888 30.2008 29.684C30.2008 29.6793 30.1891 29.6611 30.1747 29.6438C30.1343 29.5947 30.1288 29.5862 30.1241 29.5658C30.1217 29.5553 30.1151 29.5437 30.1094 29.54C30.1038 29.5363 30.0683 29.4593 30.0306 29.3689C29.9333 29.1353 29.8555 28.9798 29.675 28.6589C29.6404 28.5974 29.5838 28.4909 29.5492 28.4221C29.5145 28.3535 29.4534 28.2469 29.4134 28.1855C29.3734 28.124 29.2978 27.9879 29.2453 27.883C29.1348 27.662 29.0688 27.5403 28.9471 27.3323C28.899 27.25 28.8596 27.18 28.8596 27.1767C28.8596 27.1735 28.8396 27.1403 28.8152 27.1029C28.7568 27.0131 28.6754 26.8715 28.6754 26.8596C28.6754 26.8447 28.5049 26.5479 28.4172 26.4103C28.3734 26.3415 28.3007 26.2129 28.2556 26.1243M27.3474 26.2718C27.3474 26.2417 27.5365 25.9581 27.5967 25.8979C27.7229 25.7717 27.8742 25.7454 28.0112 25.8257C28.1134 25.8856 28.1684 25.9528 28.2556 26.1243M30.3456 30.1295C30.3462 30.1555 30.3714 30.1765 30.3717 30.1513C30.3721 30.1291 30.3743 30.1281 30.3861 30.1447C30.397 30.1602 30.399 30.1604 30.395 30.1459C30.3901 30.1275 30.3452 30.1126 30.3456 30.1295ZM30.16 25.572C30.0217 25.7101 29.9566 26.0066 29.9678 26.4472C29.9792 26.8971 30.0379 27.0679 30.3891 27.6726C30.6366 28.0987 30.9512 28.632 31.0442 28.7829C31.2192 29.0667 31.3602 29.3074 31.4405 29.4594C31.484 29.5417 31.5824 29.7144 31.659 29.8432C31.8182 30.1105 31.9644 30.3584 32.065 30.5316C32.2696 30.8837 32.2237 30.9271 31.6472 30.9271H31.2593L31.1861 30.8928C31.0835 30.8447 30.9626 30.675 30.6907 30.1973C30.6475 30.1214 30.5528 29.9613 30.4803 29.8416C30.4078 29.7219 30.2773 29.4971 30.1903 29.342C30.1033 29.1869 29.9657 28.9504 29.8845 28.8167C29.7347 28.5698 29.6396 28.4085 29.4614 28.0993C29.407 28.0048 29.3229 27.8634 29.2744 27.7851C29.226 27.7067 29.1375 27.5561 29.0778 27.4505C28.947 27.2193 28.6021 26.6254 28.5325 26.5116C28.505 26.4667 28.4424 26.359 28.3933 26.2722C28.1582 25.8567 28.0286 25.7263 27.8507 25.7266C27.6931 25.7269 27.5674 25.8225 27.446 26.0346C27.3789 26.1517 27.3377 26.2197 27.0937 26.6167C27.0172 26.741 26.8771 26.9777 26.7822 27.1426C26.6874 27.3075 26.5607 27.5253 26.5008 27.6266C26.4408 27.7279 26.3414 27.8965 26.2799 28.0013C26.2184 28.1063 26.1179 28.2749 26.0566 28.3761C25.9953 28.4774 25.9105 28.6253 25.8682 28.7049C25.8259 28.7844 25.7636 28.8939 25.7299 28.9481C25.6962 29.0024 25.6348 29.1079 25.5936 29.1826C25.5523 29.2573 25.4646 29.4047 25.3988 29.5102C25.3329 29.6157 25.2394 29.7706 25.1912 29.8543C25.1429 29.9381 25.0353 30.125 24.9521 30.2697C24.8689 30.4143 24.7623 30.5977 24.7153 30.6773C24.1907 31.5645 24.1883 31.5704 24.2778 31.7498C24.3296 31.8534 24.4239 31.9251 24.561 31.965C24.6479 31.9902 28.8324 32.0063 28.9575 31.9819C29.4411 31.8875 28.5389 31.0987 27.7944 30.965C27.6892 30.9461 27.5408 30.9413 26.8542 30.9348C25.9542 30.9262 25.9648 30.9272 25.9215 30.8433C25.8843 30.7715 25.9088 30.6927 26.0288 30.4987C26.0574 30.4523 26.139 30.3137 26.2101 30.1908C26.2812 30.0678 26.3761 29.9051 26.4211 29.8291C26.4661 29.7532 26.537 29.6289 26.5787 29.553C26.6204 29.4771 26.6775 29.381 26.7055 29.3395C26.7624 29.2551 27.0518 28.7683 27.1296 28.626C27.1573 28.5753 27.2257 28.457 27.2817 28.363C27.3377 28.269 27.4518 28.0763 27.5353 27.9348C27.781 27.5185 27.8707 27.4819 28.0287 27.7334C28.191 27.9916 28.4082 28.3548 28.5884 28.6692C28.6993 28.8627 28.8386 29.1004 28.8981 29.1973C28.9575 29.2942 29.0445 29.4439 29.0914 29.5299C29.1383 29.6159 29.2314 29.7761 29.2984 29.8859C29.3654 29.9957 29.4606 30.1595 29.51 30.2499C29.5594 30.3403 29.6544 30.5031 29.721 30.6115C29.7877 30.72 29.8736 30.865 29.9119 30.9337C29.9502 31.0024 29.9975 31.0823 30.017 31.1112C30.0364 31.1401 30.0779 31.2111 30.1092 31.269C30.3631 31.7384 30.4981 31.904 30.6742 31.9618C30.7728 31.9942 33.3416 32.0025 33.5013 31.971C33.731 31.9257 33.8625 31.7386 33.8174 31.5215C33.7978 31.4267 33.7321 31.2999 33.4994 30.9074C33.3944 30.7302 33.2769 30.529 33.2384 30.4603C33.1998 30.3916 33.1329 30.2763 33.0896 30.2039C33.0464 30.1316 32.9626 29.9896 32.9034 29.8883C32.5791 29.3331 32.3672 28.9719 32.2593 28.7903C32.1927 28.6782 32.1146 28.5451 32.0858 28.4945C31.9536 28.2621 31.7815 27.971 31.7116 27.8617C31.6694 27.7958 31.5924 27.6626 31.5404 27.5659C31.4884 27.4691 31.4125 27.3367 31.3717 27.2716C31.3309 27.2065 31.2776 27.1177 31.2532 27.0743C31.2102 26.9981 30.7736 26.2555 30.5344 25.8519C30.3448 25.532 30.262 25.4701 30.16 25.572Z" stroke="white" stroke-width="0.808381"/>
</g>
<defs>
<radialGradient id="paint0_radial_6586_9095" cx="0" cy="0" r="1" gradientUnits="userSpaceOnUse" gradientTransform="translate(29 21) rotate(90) scale(10.4)">
<stop stop-color="#00B8E5"/>
<stop offset="1" stop-color="#0071F4"/>
</radialGradient>
<clipPath id="clip0_6586_9095">
<rect width="16" height="16" fill="white" transform="translate(21 21)"/>
</clipPath>
</defs>
</svg>
