<svg xmlns="http://www.w3.org/2000/svg" width="128" height="128" fill="none"><g clip-path="url(#a)"><path fill="#fff" d="M128 64c0 35.347-28.653 64-64 64S0 99.347 0 64 28.653 0 64 0s64 28.653 64 64"/><path fill="#39CDFF" d="m36.954 42.074 4.492 3.555-7.545 15.507L45.61 48.922l2.953-3.085 15.555-16.224 15.52 16.198 6.186 6.448 7.38 7.7-3.274-10.705 4.192-3.072 23.638 16.282c.938.646 2.224-.06 2.17-1.2C118.502 31.606 94.006 8 63.994 8 33.98 8 9.584 31.52 8.074 61.104c-.061 1.168 1.286 1.869 2.217 1.162z"/><path fill="#070F1E" d="M64 72.688c-20.25 0-38.02 3.248-50.835 6.54-1.555.4-2.455 2.055-1.917 3.569C18.973 104.477 39.668 120 64 120s45.027-15.523 52.752-37.203c.541-1.514-.362-3.165-1.917-3.565-12.816-3.293-30.585-6.54-50.838-6.54"/></g><defs><clipPath id="a"><path fill="#fff" d="M0 0h128v128H0z"/></clipPath></defs></svg>