<svg xmlns="http://www.w3.org/2000/svg" width="96" height="114" fill="none"><path fill="#FF596E" d="m23.054 45.632 24.947-12.223V0zM48 33.41v26.62l24.947-14.398z"/><path fill="#800010" d="M48 33.41v26.62L23.055 45.631zM72.947 45.632 48 33.409V0z"/><path fill="#FF596E" d="M47.997 70.306v28.372L22.57 55.63z"/><path fill="#800010" d="M48 70.306v28.372L73.426 55.63zM77.625 62.132l5.76 17.074L96 56.947z"/><path fill="#FF596E" d="m83.383 79.206 12.615-3.948v-18.31z"/><path fill="#800010" d="m95.994 75.258-18.375 32.43L63.66 114l19.718-34.794z"/><path fill="#FF596E" d="m0 75.258 18.375 32.43L32.333 114 12.615 79.206z"/><path fill="#800010" d="M48 114 18.377 62.132l-5.76 17.074L32.335 114z"/><path fill="#FF596E" d="m18.375 62.132-5.76 17.074L0 56.947z"/><path fill="#800010" d="M12.615 79.206 0 75.258v-18.31z"/><path fill="#FF596E" d="m48 114 29.623-51.868 5.76 17.074L63.665 114z"/></svg>