<?xml version="1.0" encoding="utf-8"?>
<!-- Generator: Adobe Illustrator 25.2.1, SVG Export Plug-In . SVG Version: 6.00 Build 0)  -->
<svg version="1.0" xmlns="http://www.w3.org/2000/svg" xmlns:xlink="http://www.w3.org/1999/xlink" x="0px" y="0px"
	 viewBox="0 0 490 470" style="enable-background:new 0 0 490 470;" xml:space="preserve">
<style type="text/css">
	.st0{fill:#00D8C1;}
	.st1{fill:#002033;}
	.st2{fill:#7F7F7F;}
	.st3{fill:#00DACC;}
	.st4{fill:#FFFFFF;}
	.st5{fill:#FAFAFA;}
	.st6{fill:#221F20;}
</style>
<g id="BG">
</g>
<g id="Logo">
	<path class="st3" d="M245,16.9c-122.5,0-221.7,99.3-221.7,221.7c0,88.3,51.6,164.5,126.2,200.2c2.8-4.5,5.4-8.2,7.7-10.7
		c13.3-14.4,24.6-46.6,28.1-57.5c0.2-0.1,0.3-0.3,0.3-0.5c0.2-0.8,0.4-1.6,0.6-2.4c0.2-0.5,0.3-0.8,0.3-0.8s0,0,0,0
		c2.6-10.4,5.4-20.6,8.7-30.6c3.5,4,18.7,0.7,21.7,0.1c9.9-2,25.6-7.5,31.8-16.1c5.8-8.1-2.9-9.1-9.4-8
		c-14.3,2.6-28.3,10.8-41.2,17.7c0-0.4-0.1-0.8-0.4-1.2c3.7-10.5,7.8-20.8,12.5-30.9c20.4,2.6,42.9,0.8,58.4-14.2
		c1.5-1.4-0.3-3.8-2-3.6c-17.7,2.1-36.2,5.1-53.1,11.2c3.4-6.8,7.1-13.5,11.2-20.1c2.6-4.3,5.4-8.5,8.2-12.6
		c22.9,2.5,46-4.5,64.2-18.6c1.8-1.4,0.5-3.8-1.5-3.8c-19.4-0.2-38.6,3.8-55.7,12.8c8.1-10.7,16.9-20.7,26.3-30.3
		c21,4.2,44-1.7,61.7-13.3c2.2-1.4,0.5-4.3-1.7-4.3c-17-0.1-34.8,2.4-50.9,8.6c5.7-5.4,31.4-19.7,37.3-23.1
		c11.9-6.8,23.3-14.2,33.3-23.7c1.7-1.7,0.6-4.2-2.2-3.9c-29.6,3.1-66.3,41.2-71.9,46.2c12.3-15.9,22.7-33.8,25.8-53.8
		c0.3-2.2-2.3-3-3.7-1.6c-17.2,17.3-31.7,40.7-34.7,65.3c-0.1,0.6,0.2,1.1,0.6,1.5c-8.1,8.3-15.8,17.2-22.9,26.7
		c7-18.1,9.2-37.6,6.6-57.1c-0.2-1.5-2.1-2.6-3.4-1.5c-8.8,7.4-10.7,17.6-11.7,28.6c-1.2,12.9-1.1,25.8,0.1,38.7
		c0.1,0.7,0.4,1.2,0.8,1.6c-0.1,0.2-0.2,0.4-0.3,0.6c-0.2,0.4-0.5,0.7-0.7,1.1c-0.4,0.2-0.7,0.7-0.8,1.1c-5.4,8-10.4,16.4-14.9,24.9
		c1-10.1,0.6-20.4-0.9-30.4c-0.6-3.9-1.8-23.5-9-22.5c-7.6,1.1-4.9,19-4.7,23.5c0.5,14.6,2.6,29,6.3,43.1c0.2,0.6,0.5,1,0.9,1.3
		c-4.1,8.9-7.7,17.9-10.7,27.1c-1.1-9.4-5.9-19.4-10-26.9c-2.2-4.2-8.5-18.7-15.3-16.9c-7.6,2.1,0.3,18.2,2,22
		c4.5,10.7,11.5,22,21,29c-3.6,11.9-6.3,23.9-8,35.9c-4.7-1-16.5-4.4-28.9-14.3c-15-2.6-22.9-10.7-28.8-27.8
		c-2-5.7-4.5-11.3-7.2-16.7c-0.8-1.6-7.2-0.6-6.8-4.7c-0.6,5.3-3.9,0.4-7-6.6c-2.2-5-3.5-9.6-3.8-14c-0.5-6-3-9.7-8.7-12.1
		c-11.4-4.8-16.3-14-17.5-25.5c-0.3-2.5-0.6-5-0.9-7.5c-0.8,0.1-1.5,0.1-2.3,0.2c0,6.4-5.4-3.2,1.7-13.9c1.7-2.6,2.6-5.8,3.9-8.7
		c-0.7-0.5-1.4-1.1-2.1-1.6c-3.6,1.7-3.4-1.4,0.9-4.4c-5.6-19.2,6.9-30.9,21.2-42.3c-2.8-1.1-4.4-1.8-7.3-2.9c4.2-1,6.9-1.8,9.7-2.4
		c0.7-0.1,1.4-0.1,2.2-0.1c0.5-3,2.1-6.5,5.7-10.7c2.8-3.4,6.4-4.2,10.5-3.9c0.7-4.3,2-8.4,8-8.5c10.4-0.2,15.8-6.8,21.9-13.4
		c5.4-5.9,11.4-11.3,17.4-16.6c3.1-2.7,7.5-3.9,10.3-6.7C190.4,87.4,209,82,227.5,79c12.4-2.1,26.1,1.8,39,4.2
		c1.9,0.4,3.7,0.9,5.4,1.4c29,1.6,66.1,6.5,76.1,20.9c17.2,24.7,14.7,29.3,14.7,29.3l22.3,38c0,0-8.3,19.6-4.9,26.6
		c3.4,7,17.4,20.6,17.4,20.6s20.6,15.1,20.6,15.9c0,0.9,0.9,4.5-4.3,8.7c-5.1,4.3-14.7,9.4-14.7,9.4s0.4,3.2,1.7,5.7
		c1.3,2.6,4.5,6.4,3.4,9.8c-1.1,3.4-8.1,6-6.2,9.8c1.9,3.8,6.8,5.1,5.3,8.5c-1.5,3.4-8.5,9.1-7.9,11.7c0.6,2.6,5.7,26.1-7.2,30
		c-13,3.8-55.7,4.7-55.7,4.7s-8.7,6-11.5,22.5c-2.8,16.6-20,54.4-20,54.4s-12.3,23.6-10.4,28.9c1.9,5.3,5.5,8.1,9.8,11.9
		c0.4,0.4,0.8,0.7,1.3,1.1c94.9-25.1,164.9-111.6,164.9-214.4C466.7,116.2,367.5,16.9,245,16.9z"/>
</g>
</svg>
