<svg xmlns="http://www.w3.org/2000/svg" width="100" height="96" fill="none"><path fill="url(#a)" fill-rule="evenodd" d="M73.747 3.996a.69.69 0 0 0-.58.68v81.226c0 .422.376.745.793.68l25.459-3.989a.69.69 0 0 0 .58-.679V.687a.687.687 0 0 0-.793-.679zM.061 14.816C0 14.95 0 15.118 0 15.452V85.1c0 .442 0 .664.09.822.08.139.204.246.354.302.17.065.388.03.826-.038l24.634-3.859c.33-.051.495-.077.619-.158a.7.7 0 0 0 .25-.292c.06-.135.06-.302.06-.636V11.593c0-.443 0-.664-.09-.822a.7.7 0 0 0-.353-.303c-.17-.064-.39-.03-.826.039L.928 14.366c-.33.051-.494.077-.618.158a.7.7 0 0 0-.25.292m36.424 12.83c-.061.136-.061.302-.061.636v66.27c0 .443 0 .664.09.822.08.139.204.246.353.303.17.064.39.03.827-.039l24.634-3.859c.33-.051.495-.077.619-.158a.7.7 0 0 0 .25-.292c.06-.135.06-.302.06-.636v-66.27c0-.442 0-.663-.09-.821a.7.7 0 0 0-.353-.303c-.17-.064-.39-.03-.827.038l-24.634 3.86c-.33.05-.495.077-.618.158a.7.7 0 0 0-.25.291" clip-rule="evenodd"/><defs><radialGradient id="a" cx="0" cy="0" r="1" gradientTransform="matrix(-166.61304 144.79877 -144.06671 -165.7707 89.75 1.915)" gradientUnits="userSpaceOnUse"><stop stop-color="#32C5FF"/><stop offset=".513" stop-color="#B620E0"/><stop offset="1" stop-color="#F7B500"/></radialGradient></defs></svg>