<svg xmlns="http://www.w3.org/2000/svg" xmlns:xlink="http://www.w3.org/1999/xlink" xml:space="preserve" fill-rule="evenodd" stroke-linejoin="round" stroke-miterlimit="2" clip-rule="evenodd" viewBox="0 0 48 48"><circle cx="24" cy="24" r="22" fill="#da5932"/><use xlink:href="#a" width="24" height="36" x="13.472" y="7.618"/><path fill="#fff" fill-rule="nonzero" d="M22.045 32.261a48 48 0 0 1-.022-1.16q0-2.278.645-3.932.473-1.246 1.525-2.514.774-.923 2.783-2.696 2.009-1.772 2.61-2.825a4.56 4.56 0 0 0 .602-2.299q0-2.256-1.762-3.964t-4.319-1.708q-2.47 0-4.125 1.547t-2.169 4.834l-3.975-.473q.537-4.404 3.19-6.746t7.015-2.342q4.619 0 7.369 2.514t2.75 6.08q0 2.063-.967 3.803-.966 1.74-3.781 4.232-1.89 1.676-2.471 2.471a5.5 5.5 0 0 0-.859 1.826q-.28 1.032-.322 3.352zm-.236 7.756v-4.405h4.404v4.405z"/></svg>