<svg xmlns="http://www.w3.org/2000/svg" xmlns:xlink="http://www.w3.org/1999/xlink" xml:space="preserve" fill-rule="evenodd" stroke-linejoin="round" stroke-miterlimit="2" clip-rule="evenodd" viewBox="0 0 48 48"><circle cx="24" cy="24" r="22" fill="#da5932"/><use xlink:href="#a" width="24" height="36" x="13.472" y="7.618"/><path fill="#fff" fill-rule="nonzero" d="M22.045 32.261c-.014-.516-.022-.903-.022-1.16 0-1.519.215-2.829.645-3.932.315-.831.824-1.669 1.525-2.514.516-.616 1.443-1.514 2.783-2.696 1.339-1.182 2.209-2.123 2.61-2.825.401-.702.602-1.468.602-2.299 0-1.504-.588-2.825-1.762-3.964-1.175-1.139-2.614-1.708-4.319-1.708-1.647 0-3.022.516-4.125 1.547-1.102 1.031-1.826 2.643-2.169 4.834l-3.975-.473c.358-2.936 1.421-5.185 3.19-6.746 1.769-1.561 4.107-2.342 7.015-2.342 3.079 0 5.536.838 7.369 2.514 1.833 1.676 2.75 3.703 2.75 6.08 0 1.375-.322 2.643-.967 3.803-.644 1.16-1.905 2.571-3.781 4.232-1.26 1.117-2.084 1.941-2.471 2.471-.386.53-.673 1.139-.859 1.826-.186.688-.294 1.805-.322 3.352h-3.717Zm-.236 7.756v-4.405h4.404v4.405h-4.404Z"/></svg>