<svg xmlns="http://www.w3.org/2000/svg" width="22" height="22" fill="none"><circle cx="11" cy="11" r="10.75" fill="#fff" stroke="#316EFF" stroke-width=".5"/><path fill="#316EFF" d="m18.16 14.829-6.311 3.741c-.335.168-.726.168-1.005 0l-6.311-3.685c-.112-.056-.168-.224-.112-.335l1.117-1.9a.27.27 0 0 1 .335-.11l4.915 2.903c.335.168.726.168 1.005 0l4.914-2.904c.112-.056.28-.056.335.112l1.117 1.843c.168.111.112.28 0 .335"/><path fill="#316EFF" d="m16.038 11.309-4.188 2.457c-.335.167-.726.167-1.006 0l-4.188-2.457a.27.27 0 0 1-.112-.335l1.117-1.9a.27.27 0 0 1 .335-.11l2.793 1.674c.335.168.726.168 1.06 0l2.793-1.675c.112-.056.28-.056.335.112l1.117 1.843c.111.167.056.335-.056.39"/><path fill="#316EFF" d="m13.972 7.794-2.067 1.229a1.18 1.18 0 0 1-1.06 0L8.777 7.794c-.112-.055-.167-.279-.112-.39L10.9 3.55c.168-.335.614-.335.838 0l2.29 3.853c.111.168.055.336-.056.391"/></svg>