<svg width="37" height="37" viewBox="0 0 37 37" fill="none" xmlns="http://www.w3.org/2000/svg">
<path d="M18.5 37C28.7521 37 37 28.7521 37 18.5C37 8.24786 28.7521 0 18.5 0C8.24786 0 0 8.24786 0 18.5C0 28.7521 8.24786 37 18.5 37Z" fill="#2775CA"/>
<path d="M23.3291 21.025C23.3291 18.3271 21.7104 17.4021 18.4729 17.0168C16.1604 16.7084 15.6979 16.0918 15.6979 15.0125C15.6979 13.9332 16.4688 13.2396 18.0104 13.2396C19.3979 13.2396 20.1688 13.7021 20.5541 14.8584C20.6313 15.0896 20.8625 15.2438 21.0938 15.2438H22.327C22.6354 15.2438 22.8666 15.0125 22.8666 14.7043V14.6271C22.5582 12.9313 21.1707 11.6209 19.3979 11.4668V9.61679C19.3979 9.30839 19.1666 9.07715 18.7813 9H17.625C17.3166 9 17.0854 9.23125 17.0082 9.61679V11.3896C14.6957 11.698 13.2312 13.2396 13.2312 15.1668C13.2312 17.7105 14.7729 18.7125 18.0104 19.098C20.1688 19.4834 20.8625 19.9459 20.8625 21.1793C20.8625 22.4127 19.7832 23.2605 18.3188 23.2605C16.3145 23.2605 15.6207 22.4125 15.3895 21.2563C15.3125 20.948 15.0813 20.7937 14.85 20.7937H13.5395C13.2313 20.7937 13 21.025 13 21.3334V21.4105C13.3082 23.3375 14.5416 24.725 17.0854 25.1105V26.9605C17.0854 27.2688 17.3166 27.5 17.702 27.5771H18.8582C19.1666 27.5771 19.3979 27.3459 19.475 26.9605V25.1105C21.7875 24.725 23.3291 23.1062 23.3291 21.025Z" fill="white"/>
<path d="M14.9814 29.127C8.96889 26.9687 5.88549 20.2625 8.12103 14.327C9.27728 11.0895 11.821 8.62285 14.9814 7.4666C15.2898 7.3125 15.4439 7.08125 15.4439 6.69571V5.6166C15.4439 5.30821 15.2898 5.07696 14.9814 5C14.9042 5 14.7501 5 14.673 5.07696C7.35014 7.38946 3.34174 15.175 5.65424 22.4979C7.04174 26.8145 10.3564 30.1291 14.673 31.5166C14.9814 31.6707 15.2898 31.5166 15.3667 31.2082C15.4439 31.1312 15.4439 31.0541 15.4439 30.9V29.8207C15.4439 29.5895 15.2126 29.2812 14.9814 29.127ZM23.1523 5.07696C22.8439 4.92285 22.5355 5.07696 22.4585 5.38535C22.3814 5.4625 22.3814 5.53946 22.3814 5.69375V6.77285C22.3814 7.08125 22.6126 7.38946 22.8439 7.54375C28.8564 9.70196 31.9398 16.4082 29.7042 22.3437C28.548 25.5812 26.0042 28.0479 22.8439 29.2041C22.5355 29.3582 22.3814 29.5895 22.3814 29.975V31.0541C22.3814 31.3625 22.5355 31.5937 22.8439 31.6707C22.921 31.6707 23.0751 31.6707 23.1523 31.5937C30.4751 29.2812 34.4835 21.4957 32.171 14.1729C30.7835 9.7791 27.3917 6.46446 23.1523 5.07696Z" fill="white"/>
<g clip-path="url(#clip0_6586_9079)">
<path d="M36.8048 29C36.8048 24.5817 33.3105 21 28.9999 21C24.6894 21 21.1951 24.5817 21.1951 29C21.1951 33.4183 24.6894 37 28.9999 37C33.3105 37 36.8048 33.4183 36.8048 29Z" fill="url(#paint0_radial_6586_9079)"/>
<path d="M36.8048 29C36.8048 24.5817 33.3105 21 28.9999 21C24.6894 21 21.1951 24.5817 21.1951 29C21.1951 33.4183 24.6894 37 28.9999 37C33.3105 37 36.8048 33.4183 36.8048 29Z" fill="url(#paint1_radial_6586_9079)"/>
<path d="M36.8048 29C36.8048 24.5817 33.3105 21 28.9999 21C24.6894 21 21.1951 24.5817 21.1951 29C21.1951 33.4183 24.6894 37 28.9999 37C33.3105 37 36.8048 33.4183 36.8048 29Z" fill="url(#paint2_radial_6586_9079)"/>
<path fill-rule="evenodd" clip-rule="evenodd" d="M26.5233 25.2549C26.4695 25.264 26.4273 25.3044 26.4133 25.3604C26.3985 25.4194 26.3987 26.3864 26.4135 26.4387C26.4251 26.4798 26.4499 26.5078 26.495 26.5313L26.5261 26.5475H28.0036H29.4811L29.5179 26.5294C29.5626 26.5077 29.5706 26.4988 29.5911 26.4484L29.6071 26.4092V25.8982C29.6071 25.3394 29.6095 25.3831 29.5745 25.3122C29.5647 25.2923 29.5101 25.2584 29.4796 25.2532C29.4485 25.248 26.5548 25.2496 26.5233 25.2549ZM26.5041 28.4139C26.4628 28.4235 26.4264 28.461 26.4139 28.507C26.3966 28.5709 26.3982 32.6834 26.4156 32.7421C26.4294 32.7884 26.4431 32.8056 26.4872 32.8314L26.5188 32.85H29.1368H31.7547L31.7769 32.8364C31.8637 32.7833 31.8592 32.8194 31.8579 32.1856C31.8568 31.5763 31.8625 31.622 31.7807 31.5732L31.75 31.5548L29.7099 31.5517C27.9054 31.5489 27.6691 31.5474 27.664 31.5391C27.6603 31.5332 27.6587 31.1886 27.6596 30.6259L27.661 29.7222L27.6784 29.7089L27.6957 29.6956L29.1697 29.6924C30.5298 29.6895 30.6449 29.6885 30.6589 29.6788C30.6947 29.654 30.7127 29.6306 30.7224 29.5964C30.7388 29.5386 30.7374 28.5497 30.7208 28.5004C30.7088 28.4646 30.6804 28.4299 30.6529 28.4172C30.6328 28.4079 26.5441 28.4047 26.5041 28.4139Z" fill="#F9F9F9" stroke="white" stroke-width="0.5"/>
</g>
<defs>
<radialGradient id="paint0_radial_6586_9079" cx="0" cy="0" r="1" gradientUnits="userSpaceOnUse" gradientTransform="translate(27.9268 19.55) rotate(82.3878) scale(18.4123 17.9791)">
<stop stop-color="#D9326F"/>
<stop offset="1" stop-color="#3A34DD"/>
</radialGradient>
<radialGradient id="paint1_radial_6586_9079" cx="0" cy="0" r="1" gradientUnits="userSpaceOnUse" gradientTransform="translate(28.9999 14.9) rotate(86.9677) scale(22.131 21.5943)">
<stop stop-color="#FE4D8B"/>
<stop offset="1" stop-color="#483FFC"/>
</radialGradient>
<radialGradient id="paint2_radial_6586_9079" cx="0" cy="0" r="1" gradientUnits="userSpaceOnUse" gradientTransform="translate(28.9999 21) rotate(90) scale(10.4 10.1463)">
<stop stop-color="#628CBF"/>
<stop offset="1" stop-color="#1D507D"/>
</radialGradient>
<clipPath id="clip0_6586_9079">
<rect width="16" height="16" fill="white" transform="translate(21 21)"/>
</clipPath>
</defs>
</svg>
