<svg xmlns="http://www.w3.org/2000/svg" width="100" height="100" fill="none"><path fill="#0C0C1F" d="M100 50c0-27.614-22.386-50-50-50S0 22.386 0 50s22.386 50 50 50 50-22.386 50-50"/><path fill="#F1F1FD" fill-rule="evenodd" d="M60.46 30.677c.308.1.593.261.84.473a1.1 1.1 0 0 1 .367.803l-.031 3.947q-.075 8.535-.142 17.089l-.085 10.704a1.12 1.12 0 0 1-.387.801 2.43 2.43 0 0 1-1.625.579h-.16l-18.803-1.11c-1.304-.07-2.1-.61-2.1-1.386l.012-3.686q.02-7.964.046-15.933l.03-10.017c0-.649.497-1.116 1.337-1.296l.046-.046H40q.261-.047.526-.061l18.978-.974a2.5 2.5 0 0 1 .956.113m-3.147 11.971.072-9.21-14.699.769v2.412l-.072 24.719 14.54.858.017-2.459q.075-8.535.142-17.089M61 68.876c.194.22.342.476.437.754.139.5.08 1.034-.164 1.491a2 2 0 0 1-1.147.961c-.28.1-.576.148-.873.14a5 5 0 0 1-.261-.008q-.122-.008-.235-.009h-.11c-.602-.031-1.188-.093-1.785-.156l-.08-.008c-3.416-.37-6.872-.879-10.214-1.371l-.03-.004-.29-.042c-2.297-.34-4.34-.65-6.229-.943a1.68 1.68 0 0 1-1.133-.746 2.24 2.24 0 0 1-.324-1.693c.137-.5.46-.928.904-1.194a2 2 0 0 1 1.475-.236l2.243.347q2.266.344 4.528.677 1.325.195 2.636.382l1.394.195 1.14.158h.067l.096.022c1.194.2 2.436.326 3.644.45l.07.006.552.055c.505.05.996.099 1.492.12l.3.012c.401-.112.83-.072 1.205.111.263.13.498.309.692.529m-1.859-.009a1 1 0 0 1-.08.018c.018 0 .058-.006.131-.017l.05-.007.155-.022h-.072l-.077.01-.005.001a1 1 0 0 1-.102.017" clip-rule="evenodd"/></svg>