<svg width="256" height="256" viewBox="0 0 256 256" fill="none" xmlns="http://www.w3.org/2000/svg">
<g clip-path="url(#clip0_5046_3675)">
<rect x="1.49805" y="1.5" width="253.002" height="252.999" rx="126.5" fill="white"/>
<rect x="1.49805" y="1.5" width="253.002" height="252.999" rx="126.5" stroke="#8E55FF" stroke-width="3"/>
<path d="M85.3316 160.001H74.6648V170.668H63.998V192.001H95.9984V170.668H85.3316V160.001Z" fill="#E8DDFF"/>
<path d="M181.332 160.001V170.668H170.665V160.001H159.998V192.001H191.998V160.001H181.332Z" fill="#E8DDFF"/>
<path d="M117.332 85.323V95.9898H106.665V106.657H95.9984V95.9898H85.3316V106.657H63.998V74.6562H74.6648V85.323H95.9984V74.6562H106.665V85.323H117.332Z" fill="#8E55FF"/>
<path d="M181.333 85.323V74.6562H170.666V85.323H160V74.6562H149.333V85.323H138.666V95.9898H149.333V106.657H160V95.9898H181.333V106.657H192V85.323H181.333Z" fill="#8E55FF"/>
<path d="M138.656 96H117.322V106.667H138.656V96Z" fill="#8E55FF"/>
<path d="M95.9984 64V85.3335H74.6648V74.6668H63.998V64H95.9984Z" fill="#6A2DE0"/>
<path d="M159.998 64V85.3335H170.665V74.6668H181.332V85.3335H191.998V64H159.998Z" fill="#6A2DE0"/>
<path d="M191.999 106.667V128H181.333V117.334H170.666V128H159.999V117.334H149.332V128H127.999V117.334H117.332V128H106.665V117.334H95.9984V128H74.6648V117.334H63.998V106.667H85.3316V96H95.9984V106.667H106.665V96H117.332V106.667H138.665V96H149.332V106.667H159.999V96H181.333V106.667H191.999Z" fill="#A577FF"/>
<path d="M106.665 117.345H95.998V128.011H106.665V117.345Z" fill="#BB99FF"/>
<path d="M128.019 128.011V117.345H117.352V128.011H106.686V138.678H117.352V149.345H138.686V138.678H149.353V128.011H128.019Z" fill="#BB99FF"/>
<path d="M181.332 128.011V117.345H170.665V128.011H159.998V149.345H170.665V138.678H181.332V149.345H191.998V128.011H181.332Z" fill="#BB99FF"/>
<path d="M159.977 117.345H149.311V128.011H159.977V117.345Z" fill="#BB99FF"/>
<path d="M74.6648 128.011V117.345H63.998V149.345H85.3316V138.678H95.9984V128.011H74.6648Z" fill="#BB99FF"/>
<path d="M181.332 149.324V138.657H170.665V149.324H159.998V159.991H170.665V170.658H181.332V159.991H191.998V149.324H181.332Z" fill="#D2BBFF"/>
<path d="M85.3316 149.324H63.998V159.991V170.658H74.6648V159.991H85.3316V170.658H95.9984V159.991V149.324V138.657H85.3316V149.324Z" fill="#D2BBFF"/>
</g>
<defs>
<clipPath id="clip0_5046_3675">
<rect width="256" height="256" fill="white"/>
</clipPath>
</defs>
</svg>
