<svg xmlns="http://www.w3.org/2000/svg" width="411" height="411" style="shape-rendering:geometricPrecision;text-rendering:geometricPrecision;image-rendering:optimizeQuality;fill-rule:evenodd;clip-rule:evenodd"><path fill="#5a86eb" d="M213.5.5q-1.144 1.152-3 1.5a4.45 4.45 0 0 1 2 1.5q-2.318 1.428-5 1 .558 3.783-2.5 6l-1-2-1 4q-1.524-1.7-2 1l-1-2q-.861 2.988-3.5 4.5 1.606 2.739-2 3.5a3.65 3.65 0 0 1-1.5-1q-.684 1.866 1.5 2.5-3.078 1.395-4.5 4.5l-1-1a64.4 64.4 0 0 0-9 10 3.94 3.94 0 0 1-2-1l-1 5q-2.043 2.137-4.5 2.5l1 3q-2.882.54-5 2.5a3.65 3.65 0 0 1-1.5-1q-.684 1.866 1.5 2.5-2.023 1.159-2.5 3.5l-2-2a12.8 12.8 0 0 1-3 6l-1-1a10.9 10.9 0 0 1-4.5 5 4.46 4.46 0 0 1-1.5-2l-1 4h-3q-.091 3.553-3 7-.634-2.184-2.5-1.5l1 1q-2.301 3.36-3.5 7.5a7.3 7.3 0 0 0-2-3q.926 2.392-1 4l-2-2q.644 2.44.5 4.5a34 34 0 0 1-6 3l1 1q-2.41 1.574-2 4.5-4.647.132-1-1.5-7.33-.49-2 3-9.376 6.49-16 14l1 1a11.53 11.53 0 0 0-4.5 3.5q-1.574-1.526-3.5-.5l3 3q-4.236.663-6.5 5.5l-1-1q-2.171 5.982-8.5 7.5 2 1 0 2-3.711.17-6 3l2 2q-4.307.196-7 3.5 3.522 2.04.5 5a7.3 7.3 0 0 1-2-3q-4.5 5.067-9.5 9.5l2 2q-3.86.291-8 2 5.535.637.5 2.5l-1-1q-.684 1.866 1.5 2.5-3.903 1.522-5.5 5.5l-3-2q-.925 1.423.5 2.5-2.175 1.676-5 2 5.625 1.142.5 3.5-4.665-1.76-.5 1.5-1.314 2.377-4 3l1 1q-1.573.738-3-.5l-6 5q1.654.747 3 1-4.61 1.045-6 5.5l-7 3a4.46 4.46 0 0 1 2 1.5 32 32 0 0 0-4 2.5l1 1a16.2 16.2 0 0 0-5 4.5 4.45 4.45 0 0 1-1.5-2q-.476 2.342-2.5 3.5 1.137 2.046-1.5 3.5l-1-1q-.074 4.374-3.5 3-1.355 3.536-5 4.5l3 1a11.3 11.3 0 0 0-3.5 1.5q-2.5-1.26-.5 1.5-1.424.926-2.5-.5-2.052 2.24-.5 4.5-1.873 2.736-3.5-.5-1.026 1.926.5 3.5a2.43 2.43 0 0 1-2 .5v-30q1.491-7.857 3-16 .925.166 1.5 1l1-4 1 1q2.455-2 2.5-4 2.57 1.663 2-2 7.617.244 2-3.5 1.925-1.026 3.5.5a6.98 6.98 0 0 1 3.5-2.5q-1.425-1.077-.5-2.5 5.061-1.573 8.5-5.5-3.501-2.28.5-4.5 2.805 1.752 4.5-1.5l-2-1q5.707.038 6-5.5 1.935-1.917 6-2-.354-4.089 2.5-7l1 2a7.25 7.25 0 0 1 2.5-2q1.847-1.726 0-3.5 1.608-1.926 4-1 2-3 5-5l-1-1 4-2-1-1a35.7 35.7 0 0 0 8-7.5 23.7 23.7 0 0 1 6-2.5 6.8 6.8 0 0 1-3-1.5q7.233-1.235 10-8a3.65 3.65 0 0 0-1-1.5l6-2-2-1a59 59 0 0 0 7-4l-2-3q1.866-.684 2.5 1.5l3-6 1 3q1.68-1.578 1.5-3.5 6.528-.628 1-2 1.75-.75 2.5-2.5 1.436 3.315 3.5-.5-2.184-.634-1.5-2.5 1.37 1.73 2.5-.5l-1-1q2.377-.127 4-.5-1.639-1.996-4-2.5 2.853-.299 4.5-2.5 2 4 4 0l1 1q.901-4.059 4.5-6a6.8 6.8 0 0 0-3-1.5 81.7 81.7 0 0 1 13-7.5q-.24-2.55.5-5l1 1a7.3 7.3 0 0 1 2-3q5.211 2.142 1.5-1.5 1.423-.925 2.5.5 5.067-3.94 8.5-11a4.46 4.46 0 0 1 1.5 2l3.5-5.5q-1.73-1.37.5-2.5l1 1 4-5 1 1q4.379-2.715 4-7a15.3 15.3 0 0 1 4.5-1.5l-2-1q4.3-1.63 8.5-5.5 1.038-1.405-.5-2 7.158-2.056 15-2.5 14.492-.75 29-.5" style="opacity:.996"/><path fill="#5b8ceb" d="M213.5.5q18.502.31 36 5-1.356 1.063-1 3h-3v3q-3.324-.338-5 2.5 2 1 0 2l2 1a29 29 0 0 0-4 1.5q-1.381-4.427-4 1a4.45 4.45 0 0 0 2 1.5l-4 1 1 1q-3.472 1.665-4.5 5.5-4.665-1.76-.5 1.5a23 23 0 0 0-5 2l1 1-3 1 1 1q-2.75.75-3.5 3.5-1.37-1.73-2.5.5 1.17 1.61-.5 3.5l-1-2q-.663 3.267-3 2a29.5 29.5 0 0 1-4.5 2.5q1.686.375 3 1.5-2.426.255-5 1 1.966 1.137 1.5 3a95 95 0 0 0-7.5 7.5q-2.244.76-3.5-1.5-1.999 6.987-8 11l-1-1a4.93 4.93 0 0 0-.5 3q-8.08.157-2 4.5-1.237 2.532-3 .5-1.794.519 0 1.5l-3 1.5q-2.355-.291-4.5 0a15.3 15.3 0 0 1-1.5 4.5l2 1a10.26 10.26 0 0 0-4 1.5q1.238 1.426.5 3-2.337-1.267-3 2l-1-3q-1.008 6.065-6.5 4.5a6.54 6.54 0 0 0 3 3q-4.771 1.203-8 5 5.535.637.5 2.5-1.574-1.526-3.5-.5 2 2.76-.5 1.5-4.101 1.293-.5 2.5a132 132 0 0 0-7 3.5q.013 2.712-1.5 5-1.524-1.701-2 1-1.37-1.73-2.5.5.686.621 1 1.5a26 26 0 0 1-3.5 5q-1.088-2.487-3.5-1.5l2 2a48 48 0 0 0-5 2.5q1.954 3.134-1.5 5 .116-1.857-.5-3a10.3 10.3 0 0 0-1.5 4q-4.548 2.388-7.5 6.5l1 1q-1.926 1.026-3.5-.5-.926 1.423.5 2.5-2.719-.07-5 .5 2.03 1.536 2 4-4.5.5-5 5a4.93 4.93 0 0 0-3 .5q2 2.76-.5 1.5l-4.5 3.5 2 1a44.4 44.4 0 0 1-10 5 15.3 15.3 0 0 0-1.5 4.5q-.634-2.184-2.5-1.5 1.7 1.524-1 2a4.46 4.46 0 0 1 2 1.5q-.519 1.794-1.5 0a23 23 0 0 0-2 5q-1.25-3.75-3.5-.5l2 1q-6.004 1.755-8.5 7.5-1.112-1.712-2.5 0-1.816 1.16 0 2.5-3.575.097-2 2.5a4.45 4.45 0 0 1-1.5 2q-.634-2.184-2.5-1.5l1 1a11.4 11.4 0 0 0-1.5 3.5l-1-1q-1.67 1.89-.5 3.5-1.424.926-2.5-.5c-1 3-3 5-6 6l-1 3-1-1a6.98 6.98 0 0 1-3.5 2.5l1 1q-4.908.655-5 5.5-5.923.29 0 1.5-2.418 1.08-4.5-.5-.925 1.423.5 2.5a22.2 22.2 0 0 0-7 4l1 3q-3.176.39-5 3 1.26 2.5-1.5.5-2.637 1.454-1.5 3.5a9.5 9.5 0 0 0-1.5 2.5q-.634-2.184-2.5-1.5 1.7 1.524-1 2 3.75 1.25.5 3.5l-1-2q-1.482 4.588-5.5 3.5.277 4.227-3.5 7.5-1.462-3.567-2 1-2.348-.841-4 2-.739 1.574.5 3-1.497 3.792-2.5 0-1.062 1.321-2.5 2a198 198 0 0 1-5-25v-10a2.43 2.43 0 0 0 2-.5q-1.526-1.574-.5-3.5 1.627 3.236 3.5.5-1.552-2.26.5-4.5 1.076 1.426 2.5.5-2-2.76.5-1.5a11.3 11.3 0 0 1 3.5-1.5l-3-1q3.645-.964 5-4.5 3.426 1.374 3.5-3l1 1q2.637-1.454 1.5-3.5 2.024-1.158 2.5-3.5a4.45 4.45 0 0 0 1.5 2 16.2 16.2 0 0 1 5-4.5l-1-1a32 32 0 0 1 4-2.5 4.46 4.46 0 0 0-2-1.5l7-3q1.39-4.455 6-5.5-1.346-.253-3-1l6-5q1.427 1.238 3 .5l-1-1q2.686-.623 4-3-4.165-3.26.5-1.5 5.125-2.358-.5-3.5 2.825-.324 5-2-1.425-1.077-.5-2.5l3 2q1.597-3.978 5.5-5.5-2.184-.634-1.5-2.5l1 1q5.035-1.863-.5-2.5 4.14-1.709 8-2l-2-2q5-4.433 9.5-9.5a7.3 7.3 0 0 0 2 3q3.022-2.96-.5-5 2.693-3.304 7-3.5l-2-2q2.289-2.83 6-3 2-1 0-2 6.329-1.518 8.5-7.5l1 1q2.264-4.837 6.5-5.5l-3-3q1.926-1.026 3.5.5a11.53 11.53 0 0 1 4.5-3.5l-1-1q6.624-7.51 16-14-5.33-3.49 2-3-3.647 1.632 1 1.5-.41-2.926 2-4.5l-1-1a34 34 0 0 0 6-3q.144-2.06-.5-4.5l2 2q1.926-1.608 1-4a7.3 7.3 0 0 1 2 3q1.199-4.14 3.5-7.5l-1-1q1.866-.684 2.5 1.5 2.909-3.447 3-7h3l1-4a4.46 4.46 0 0 0 1.5 2 10.9 10.9 0 0 0 4.5-5l1 1a12.8 12.8 0 0 0 3-6l2 2q.477-2.341 2.5-3.5-2.184-.634-1.5-2.5.621.685 1.5 1 2.118-1.96 5-2.5l-1-3q2.457-.363 4.5-2.5l1-5a3.94 3.94 0 0 0 2 1 64.4 64.4 0 0 1 9-10l1 1q1.422-3.105 4.5-4.5-2.184-.634-1.5-2.5.621.685 1.5 1 3.606-.761 2-3.5 2.639-1.512 3.5-4.5l1 2q.476-2.7 2-1l1-4 1 2q3.058-2.217 2.5-6 2.682.428 5-1a4.45 4.45 0 0 0-2-1.5q1.856-.348 3-1.5" style="opacity:.997"/><path fill="#5a80eb" d="M169.5 3.5q1.538.595.5 2-4.2 3.87-8.5 5.5l2 1a15.3 15.3 0 0 0-4.5 1.5q.379 4.285-4 7l-1-1-4 5-1-1q-2.23 1.13-.5 2.5l-3.5 5.5a4.46 4.46 0 0 0-1.5-2q-3.433 7.06-8.5 11-1.077-1.425-2.5-.5 3.711 3.642-1.5 1.5a7.3 7.3 0 0 0-2 3l-1-1a12.9 12.9 0 0 0-.5 5 81.7 81.7 0 0 0-13 7.5q1.686.375 3 1.5-3.599 1.941-4.5 6l-1-1q-2 4-4 0-1.647 2.201-4.5 2.5 2.361.504 4 2.5-1.623.373-4 .5l1 1q-1.13 2.23-2.5.5-.684 1.866 1.5 2.5-2.064 3.815-3.5.5-.75 1.75-2.5 2.5 5.528 1.372-1 2 .18 1.922-1.5 3.5l-1-3-3 6q-.634-2.184-2.5-1.5l2 3a59 59 0 0 1-7 4l2 1-6 2q.685.621 1 1.5-2.767 6.765-10 8a6.8 6.8 0 0 0 3 1.5 23.7 23.7 0 0 0-6 2.5 35.7 35.7 0 0 1-8 7.5l1 1-4 2 1 1q-3 2-5 5-2.392-.926-4 1 1.847 1.774 0 3.5a7.25 7.25 0 0 0-2.5 2l-1-2q-2.854 2.911-2.5 7-4.065.083-6 2-.293 5.538-6 5.5l2 1q-1.695 3.252-4.5 1.5-4.001 2.22-.5 4.5-3.44 3.927-8.5 5.5-.925 1.423.5 2.5a6.98 6.98 0 0 0-3.5 2.5q-1.575-1.526-3.5-.5 5.617 3.744-2 3.5.57 3.663-2 2-.045 2-2.5 4l-1-1-1 4q-.575-.834-1.5-1 8.688-50.346 40-90h3q.6-5.206 4.5-1 1.965-2.448 1.5-5 2.025-2.175 5-2a4.93 4.93 0 0 1 .5-3q5.712-4.266 9.5-8.5l-1-1a12.4 12.4 0 0 0 4-2.5q-1.44-1.968.5-4l1 3 3.5-5q1.762 2.032 3-.5l-1-1a6.98 6.98 0 0 0 2.5-3.5q1.946 1.926 3.5-.5a18.5 18.5 0 0 1-2-3.5q39.598-30.038 89-38" style="opacity:.989"/><path fill="#5b92eb" d="M249.5 5.5a165 165 0 0 1 31 9q.114 4.9-4 4-1.817 1.16 0 2.5-1.684 1.566-4 2-2 1 0 2l-3 1-1 3a23 23 0 0 1-5 2 7.3 7.3 0 0 1 3 2q-4.687 1.47-7.5 5.5-2.5-1.26-.5 1.5-1.873 2.736-3.5-.5v4a141 141 0 0 1-8.5 6.5q2 1 0 2-1.423.925-2.5-.5a23 23 0 0 1-2 5l-1-1a11.5 11.5 0 0 1-4.5 3.5l1 1q-4.04.514-6 4l2 1q-2.25 1.25-3.5 3.5-.677-3.644-2.5-.5l1 1a24 24 0 0 1-5 3.5 273 273 0 0 0-12-19q-1.24-1.408-2 1a6920 6920 0 0 0-59 95 9.2 9.2 0 0 0-4.5 2l-1-1a4.93 4.93 0 0 0-.5 3 4.93 4.93 0 0 0-3 .5q-1.59 4.326-4.5 5.5l-1-4q-.477 2.342-2.5 3.5 2.674 1.6 1.5 4.5-3.282.569-6.5 3.5 3.75 1.25.5 3.5l-1-1a11.3 11.3 0 0 1-3.5 1.5q2.487 1.088 1.5 3.5-1.24-2.858-3.5-1 3.372 1.236.5 3-1.676-.247-3.5-1l-1 4a7.25 7.25 0 0 0-2.5 2q-1.077-1.426-2.5-.5l1 3a36 36 0 0 0-4.5 3.5 3.65 3.65 0 0 0-1.5-1 19.9 19.9 0 0 1-4 3.5q3.103.486 1 2.5-3.06 3.975-7 4.5l2 1a22.5 22.5 0 0 1-7 2q2 1.5 0 3 4 1 0 2l1 1a21.5 21.5 0 0 1-6.5 3.5q-.637-5.535-2.5-.5l2 2a34 34 0 0 1-6 3q1.816 1.67 0 3.5-1.16 1.817-2.5 0-.332 5.164-3 1-.925 1.423.5 2.5l-3 1q1.7 1.524-1 2 1.73 1.37-.5 2.5-2.082-1.58-4.5-.5a4.46 4.46 0 0 1 2 1.5q-2.429 2.308-5 2.5l.5 1.5q4.546-1.089-.5 2-1.427-1.238-3-.5 1.267 2.337-2 3 3.7 1.395-.5 2.5-3.549-2.157-1.5 1.5a11.5 11.5 0 0 1-5 3.5q-.967 1.848-.5 4a15.3 15.3 0 0 1-4.5 1.5q1.73 1.37-.5 2.5a3.65 3.65 0 0 0-1.5-1 22.1 22.1 0 0 0-3 6q-2.044-2.069-3 .5 1.983 3.78-2 1.5a4.45 4.45 0 0 0-1.5 2l-1-1a4.93 4.93 0 0 0-.5 3h-3q1.638 6.681-6 7.5l1 1a39 39 0 0 0-4.5 4.5 3.65 3.65 0 0 0-1.5-1q-1.816 1.16 0 2.5l-5 3 1 1q-1.616.705-3-.5-6.33-14.293-9-30 1.438-.679 2.5-2 1.003 3.792 2.5 0-1.239-1.426-.5-3 1.652-2.841 4-2 .538-4.567 2-1 3.777-3.273 3.5-7.5 4.018 1.088 5.5-3.5l1 2q3.25-2.25-.5-3.5 2.7-.476 1-2 1.866-.684 2.5 1.5a9.5 9.5 0 0 1 1.5-2.5q-1.137-2.046 1.5-3.5 2.76 2 1.5-.5 1.824-2.61 5-3l-1-3a22.2 22.2 0 0 1 7-4q-1.425-1.077-.5-2.5 2.082 1.58 4.5.5-5.923-1.21 0-1.5.092-4.845 5-5.5l-1-1a6.98 6.98 0 0 0 3.5-2.5l1 1 1-3c3-1 5-3 6-6q1.076 1.426 2.5.5-1.17-1.61.5-3.5l1 1q.465-1.9 1.5-3.5l-1-1q1.866-.684 2.5 1.5a4.45 4.45 0 0 0 1.5-2q-1.575-2.403 2-2.5-1.816-1.34 0-2.5 1.388-1.712 2.5 0 2.496-5.745 8.5-7.5l-2-1q2.25-3.25 3.5.5a23 23 0 0 1 2-5q.981 1.794 1.5 0a4.46 4.46 0 0 0-2-1.5q2.7-.476 1-2 1.866-.684 2.5 1.5a15.3 15.3 0 0 1 1.5-4.5 44.4 44.4 0 0 0 10-5l-2-1 4.5-3.5q2.5 1.26.5-1.5a4.93 4.93 0 0 1 3-.5q.5-4.5 5-5 .03-2.464-2-4 2.281-.57 5-.5-1.426-1.077-.5-2.5 1.574 1.526 3.5.5l-1-1q2.952-4.112 7.5-6.5a10.3 10.3 0 0 1 1.5-4q.616 1.143.5 3 3.454-1.866 1.5-5a48 48 0 0 1 5-2.5l-2-2q2.412-.987 3.5 1.5a26 26 0 0 0 3.5-5 3.65 3.65 0 0 0-1-1.5q1.13-2.23 2.5-.5.476-2.701 2-1 1.513-2.288 1.5-5a132 132 0 0 1 7-3.5q-3.601-1.207.5-2.5 2.5 1.26.5-1.5 1.926-1.026 3.5.5 5.035-1.863-.5-2.5 3.229-3.797 8-5a6.54 6.54 0 0 1-3-3q5.492 1.565 6.5-4.5l1 3q.663-3.267 3-2 .738-1.574-.5-3a10.26 10.26 0 0 1 4-1.5l-2-1a15.3 15.3 0 0 0 1.5-4.5q2.145-.291 4.5 0l3-1.5q-1.794-.981 0-1.5 1.763 2.032 3-.5-6.08-4.343 2-4.5a4.93 4.93 0 0 1 .5-3l1 1q6.001-4.013 8-11 1.256 2.26 3.5 1.5a95 95 0 0 1 7.5-7.5q.466-1.863-1.5-3a28.7 28.7 0 0 1 5-1 6.8 6.8 0 0 0-3-1.5 29.5 29.5 0 0 0 4.5-2.5q2.337 1.267 3-2l1 2q1.67-1.89.5-3.5 1.13-2.23 2.5-.5.75-2.75 3.5-3.5l-1-1 3-1-1-1a23 23 0 0 1 5-2q-4.165-3.26.5-1.5 1.028-3.835 4.5-5.5l-1-1 4-1a4.45 4.45 0 0 1-2-1.5q2.619-5.427 4-1a29 29 0 0 1 4-1.5l-2-1q2-1 0-2 1.676-2.838 5-2.5v-3h3q-.356-1.937 1-3" style="opacity:.997"/><path fill="#5c99ea" d="M280.5 14.5q16.634 6.066 31 16-.129 1.494 1 2.5-4.098.597-5.5 4.5-.634-2.184-2.5-1.5 2.054 3.36-1.5 5.5l-1-2a6.98 6.98 0 0 1-2.5 3.5l1 1q-5.528 1.371 1 2l-6 1 1 1a15.5 15.5 0 0 1-5 3l3 1q-2.418 1.08-4.5-.5l-2 8q-3.597-.653-7 2l-1-1q-.684 1.866 1.5 2.5-1.9.465-3.5 1.5l-1-1q-1.94 2.032-.5 4a39.4 39.4 0 0 1-6 4.5q2.184.634 1.5 2.5l-1-1a18.6 18.6 0 0 1-6.5 3.5q1.422.725 3 .5.226 5.14-3.5 1-.75 1.75-2.5 2.5 1.75 4.25-2.5 2.5-.926 1.424.5 2.5-3.579.426-2 3l-1 .5a6.8 6.8 0 0 1-1.5-3q-2.426 1.554-.5 3.5-1.457 1.806-3 1.5 2.18 2.645-1 4a4.46 4.46 0 0 1-1.5-2l-3 7-1-2a18.5 18.5 0 0 1-3.5 2 401 401 0 0 1-18-28 24 24 0 0 0 5-3.5l-1-1q1.823-3.144 2.5.5 1.25-2.25 3.5-3.5l-2-1q1.96-3.486 6-4l-1-1a11.5 11.5 0 0 0 4.5-3.5l1 1a23 23 0 0 0 2-5q1.077 1.425 2.5.5 2-1 0-2a141 141 0 0 0 8.5-6.5v-4q1.627 3.236 3.5.5-2-2.76.5-1.5 2.813-4.03 7.5-5.5a7.3 7.3 0 0 0-3-2 23 23 0 0 0 5-2l1-3 3-1q-2-1 0-2 2.316-.434 4-2-1.817-1.34 0-2.5 4.114.9 4-4" style="opacity:.996"/><path fill="#5c9fea" d="M311.5 30.5a151.7 151.7 0 0 1 24 17q-1.647 1.345 0 2.5-2.392-.926-4 1 4.165 3.26-.5 1.5a10.3 10.3 0 0 1-1.5 4q-1.763-2.032-3 .5l1 1q-3.177.39-5 3l2 1a7.3 7.3 0 0 0-3 2q2 1 0 2-3.492 3.168-7.5 2.5a6.98 6.98 0 0 1-2.5 3.5 7.3 7.3 0 0 1 3 2q-4.57.966-7.5 4.5l-1-1-1 4a3.65 3.65 0 0 0-1.5-1q-2.28 2.025-2 4-3.044-1.695-1 1.5a23 23 0 0 1-5 2l1 1q-3.335.978-3.5 4.5-4.665-1.76-.5 1.5a23 23 0 0 1-5 2q.179 1.922-1.5 3.5-1-4-2 0-1.37-1.73-2.5.5a4.46 4.46 0 0 1 2 1.5 19.4 19.4 0 0 0-4.5 7q-1.622-3.4-4.5-.5 2.701.476 1 2l-6 2a4.93 4.93 0 0 0 3 .5q.13 4.647-1.5 1-.486 3.103-2.5 1a10.8 10.8 0 0 1-3 2.5l2 1-4 3 1 1q-4.396-1.805-6 3 2.487 1.088 1.5 3.5-.625-1.884-2.5-2a544 544 0 0 1-16-27 18.5 18.5 0 0 0 3.5-2l1 2 3-7a4.46 4.46 0 0 0 1.5 2q3.18-1.355 1-4 1.543.306 3-1.5-1.926-1.946.5-3.5a6.8 6.8 0 0 0 1.5 3l1-.5q-1.579-2.574 2-3-1.426-1.076-.5-2.5 4.25 1.75 2.5-2.5 1.75-.75 2.5-2.5 3.726 4.14 3.5-1a4.93 4.93 0 0 1-3-.5 18.6 18.6 0 0 0 6.5-3.5l1 1q.684-1.866-1.5-2.5a39.4 39.4 0 0 0 6-4.5q-1.44-1.968.5-4l1 1a11.4 11.4 0 0 1 3.5-1.5q-2.184-.634-1.5-2.5l1 1q3.403-2.653 7-2l2-8q2.082 1.58 4.5.5l-3-1a15.5 15.5 0 0 0 5-3l-1-1 6-1q-6.528-.629-1-2l-1-1a6.98 6.98 0 0 0 2.5-3.5l1 2q3.554-2.14 1.5-5.5 1.866-.684 2.5 1.5 1.402-3.903 5.5-4.5-1.129-1.006-1-2.5" style="opacity:.997"/><path fill="#5a7ceb" d="M80.5 41.5a18.5 18.5 0 0 0 2 3.5q-1.554 2.426-3.5.5a6.98 6.98 0 0 1-2.5 3.5l1 1q-1.238 2.532-3 .5l-3.5 5-1-3q-1.94 2.032-.5 4a12.4 12.4 0 0 1-4 2.5l1 1q-3.788 4.234-9.5 8.5a4.93 4.93 0 0 0-.5 3q-2.975-.175-5 2 .465 2.552-1.5 5-3.9-4.206-4.5 1h-3q16.5-21.5 38-38" style="opacity:.948"/><path fill="#5ca5ea" d="M335.5 47.5a179 179 0 0 1 23 22q-2.977.538-2 2.5-1.5 1-3 0 .775-3.05-2 0 1.701 1.524-1 2 1.17 1.61-.5 3.5-4.59-1.653-2.5 3a22.2 22.2 0 0 1-6 2.5q1.268 2.337-2 3 3.567 1.462-1 2 1.817 1.34 0 2.5a3.65 3.65 0 0 1-1.5-1 6.98 6.98 0 0 1-2.5 3.5l1 1a15.3 15.3 0 0 0-4.5 1.5l-1-1q-2.902 8.403-11.5 10.5l3 3q-2.342.477-3.5 2.5-2.76-2-1.5.5-3.142 4.954-8.5 7.5-.486-3.103-2.5-1a7.5 7.5 0 0 0-.5 5l-1-1q-2.067 3.912-6.5 4.5 1.314 2.377 4 3a32.5 32.5 0 0 0-7 3q-2 1.5 0 3a26 26 0 0 0-5 3.5q-1.763-2.032-3 .5l1 1a99 99 0 0 1-10 5 4.46 4.46 0 0 1 2 1.5q-.519 1.794-1.5 0-.435 2.316-2 4l-1-1q-.739 1.574.5 3-.686 1.197-2 1l-12-19-4-7q1.875.116 2.5 2 .987-2.412-1.5-3.5 1.604-4.805 6-3l-1-1 4-3-2-1a10.8 10.8 0 0 0 3-2.5q2.014 2.103 2.5-1 1.63 3.647 1.5-1a4.93 4.93 0 0 1-3-.5l6-2q1.701-1.524-1-2 2.878-2.9 4.5.5a19.4 19.4 0 0 1 4.5-7 4.46 4.46 0 0 0-2-1.5q1.13-2.23 2.5-.5 1-4 2 0 1.679-1.578 1.5-3.5a23 23 0 0 0 5-2q-4.165-3.26.5-1.5.165-3.522 3.5-4.5l-1-1a23 23 0 0 0 5-2q-2.044-3.195 1-1.5-.28-1.975 2-4 .879.315 1.5 1l1-4 1 1q2.93-3.534 7.5-4.5a7.3 7.3 0 0 0-3-2 6.98 6.98 0 0 0 2.5-3.5q4.008.668 7.5-2.5 2-1 0-2a7.3 7.3 0 0 1 3-2l-2-1q1.823-2.61 5-3l-1-1q1.237-2.532 3-.5a10.3 10.3 0 0 0 1.5-4q4.665 1.76.5-1.5 1.608-1.926 4-1-1.647-1.155 0-2.5" style="opacity:.998"/><path fill="#d6e5fa" d="M211.5 53.5v112h-1q.497-55.755-1-111 .76-2.408 2-1" style="opacity:1"/><path fill="#fefefe" d="M209.5 54.5q1.497 55.245 1 111a6007 6007 0 0 1-95 42 54338 54338 0 0 0 35-58 6920 6920 0 0 1 59-95" style="opacity:1"/><path fill="#5dabea" d="M358.5 69.5a95.9 95.9 0 0 1 17 23q-5.446.65-4 5.5-1.423.925-2.5-.5-6.067 7.983-12 14-3.844-.357-7 3-1.026 1.926.5 3.5-1.423.926-2.5-.5-.862 4.231-4 7-2.611 2.314-5.5 2.5l3 1a10.3 10.3 0 0 0-4 1.5q-1.458 4.58-5.5 7l-1-1a29.5 29.5 0 0 1-4.5 2.5q3.054 2.729.5 5.5-1.036-3.587-3 0l-1-1q-.75 1.75-2.5 2.5 1.817 1.34 0 2.5a3.65 3.65 0 0 1-1.5-1 20.5 20.5 0 0 1-5.5 7 3.65 3.65 0 0 1-1.5-1q-.684 1.866 1.5 2.5-4.152 1.062-2.5 4.5-1.61-1.17-3.5.5 1.817 1.34 0 2.5-2 2-4 0-1.355 3.536-5 4.5 1.701 1.524-1 2 2 1.5 0 3-2.418 1.08-4.5-.5.926 2.392-1 4-2.09-2.853-5.5-1a330 330 0 0 1-13-21q1.314.197 2-1-1.239-1.426-.5-3l1 1q1.565-1.684 2-4 .981 1.794 1.5 0a4.46 4.46 0 0 0-2-1.5 99 99 0 0 0 10-5l-1-1q1.237-2.532 3-.5a26 26 0 0 1 5-3.5q-2-1.5 0-3a32.5 32.5 0 0 1 7-3q-2.686-.623-4-3 4.433-.588 6.5-4.5l1 1a7.5 7.5 0 0 1 .5-5q2.014-2.103 2.5 1 5.358-2.546 8.5-7.5-1.26-2.5 1.5-.5 1.158-2.023 3.5-2.5l-3-3q8.598-2.097 11.5-10.5l1 1a15.3 15.3 0 0 1 4.5-1.5l-1-1a6.98 6.98 0 0 0 2.5-3.5q.621.685 1.5 1 1.817-1.16 0-2.5 4.567-.538 1-2 3.268-.663 2-3a22.2 22.2 0 0 0 6-2.5q-2.09-4.653 2.5-3 1.67-1.89.5-3.5 2.701-.476 1-2 2.775-3.05 2 0 1.5 1 3 0-.977-1.962 2-2.5" style="opacity:.997"/><path fill="#bdd7f6" d="M211.5 53.5a273 273 0 0 1 12 19 401 401 0 0 0 18 28 544 544 0 0 0 16 27l4 7q-3.825.091-4.5 4-3.204-.795-5.5 2.5l1 1-3 1 1 1q-2.023 1.158-2.5 3.5a3.94 3.94 0 0 0-2-1q.087 2.22-3.5 2.5l1 1q-6 2 0 4-4.078 2.318-7.5.5l-3.5 4.5q.502 2.254 0 4-1.866.684-2.5-1.5-1.855 2.71-1 6a7.3 7.3 0 0 0-2-3q-.75 2.75-3.5 3.5 1.255 1.517 1 3.5l-12-5q0-1-1-1z" style="opacity:1"/><path fill="#5db1ea" d="M375.5 92.5q8.61 11.7 15 25-4.039-.306-8 2.5 6.08 2.912-1 2.5a8.4 8.4 0 0 1-.5 4q-1.524-1.701-2 1-3.601-5.188-7.5.5 2.157.328 4 1.5a28 28 0 0 0-1.5 5 7.3 7.3 0 0 0-2-3q-2.349-.841-4 2-2.532-3.522-5.5-.5.368 2.867 0 6 3.414 2.811-1 5a17.34 17.34 0 0 0 7 3.5 33 33 0 0 1-5 4.5q-3.742.236-7 .5a26.9 26.9 0 0 0-3.5 6q-1.088-2.487-3.5-1.5 3.103.486 1 2.5 4.269 4.44-2 5.5 6.683 2.277 1 5.5a3.65 3.65 0 0 0 1 1.5q-1.863.466-3-1.5a4.46 4.46 0 0 0-1.5 2l-1-1-1 3q-1.517-1.255-3.5-1a2.43 2.43 0 0 1-2-.5 7.3 7.3 0 0 0 3-2q-3-1-6 0 1.817 1.34 0 2.5a25.5 25.5 0 0 1-4.5-4l-3.5 3.5 4 4-3 3q2.914 1.79-.5 4.5-.75-1.75-2.5-2.5 3.736-.939 0-2.5 2.032-1.763-.5-3-2.475 2.087-1.5 4.5-1.244 2.724-2.5 5.5a6.98 6.98 0 0 0-2.5-3.5q1.526-1.574.5-3.5-1 2-2 0-5.094 5.115 2.5 6.5a4.93 4.93 0 0 1-3 .5v5a4.93 4.93 0 0 0-3 .5q1.58 2.082.5 4.5-1-2-2 0a55 55 0 0 0-2 7q-1.313-3.02-4 0-1.006-1.129-2.5-1l-17-28q3.41-1.853 5.5 1 1.926-1.608 1-4 2.082 1.58 4.5.5 2-1.5 0-3 2.701-.476 1-2 3.645-.964 5-4.5 2 2 4 0 1.817-1.16 0-2.5 1.89-1.67 3.5-.5-1.652-3.438 2.5-4.5-2.184-.634-1.5-2.5.621.686 1.5 1a20.5 20.5 0 0 0 5.5-7q.621.686 1.5 1 1.817-1.16 0-2.5 1.75-.75 2.5-2.5l1 1q1.964-3.587 3 0 2.554-2.771-.5-5.5a29.5 29.5 0 0 0 4.5-2.5l1 1q4.042-2.42 5.5-7a10.3 10.3 0 0 1 4-1.5l-3-1q2.889-.186 5.5-2.5 3.138-2.769 4-7 1.077 1.426 2.5.5-1.526-1.574-.5-3.5 3.156-3.357 7-3 5.933-6.017 12-14 1.077 1.425 2.5.5-1.446-4.85 4-5.5" style="opacity:.997"/><path fill="#5db4ea" d="M390.5 117.5q3.005 7.007 6 14-1.437.679-2.5 2-1.651-2.841-4-2l-1-3q-1 2-2 0a36 36 0 0 1-6 8q-1.461-3.567-2 1a15.5 15.5 0 0 1-5.5 3.5l4 1a15.3 15.3 0 0 0-1.5 4.5q-.332-5.164-3-1-3.642-3.711-1.5 1.5-1.904-.163-3 .5a17.34 17.34 0 0 1-7-3.5q4.414-2.189 1-5 .368-3.133 0-6 2.968-3.022 5.5.5 1.651-2.841 4-2a7.3 7.3 0 0 1 2 3 28 28 0 0 1 1.5-5 10.3 10.3 0 0 0-4-1.5q3.899-5.688 7.5-.5.476-2.701 2-1a8.4 8.4 0 0 0 .5-4q7.08.412 1-2.5 3.961-2.806 8-2.5" style="opacity:1"/><path fill="#5eb9ea" d="M396.5 131.5a161 161 0 0 1 7 24q-1.811 1.033-4 .5 1.17 1.61-.5 3.5l-1-3q-1.737 5.139-7.5 8.5 1.426 1.077.5 2.5-3.062 3.342-7.5 4.5-1.523 3.398-3.5 5.5-2.26-1.552-4.5.5 6.017.25 1.5 2.5l-1-1-3 5q-.634-2.184-2.5-1.5 1.17 1.61-.5 3.5-1.34-1.817-2.5 0 5.716 1.856 0 2-1.995 2.81-6 6.5a8.4 8.4 0 0 1-4 .5q.197 4.243-3 4a6.8 6.8 0 0 0 3 1.5q-1.89 1.67-3.5.5l-4.5 3.5 1 1q-2.21 1.065-2 3.5h-3q.571 3.663-2 2-1.376 3.509-5 4.5.686.621 1 1.5a48 48 0 0 1-5 2.5q1.426 1.077.5 2.5-2.21-.552-4.5 1.5a4.46 4.46 0 0 1 2 1.5q-2.45 3.004-6 4-.29 5.923-1.5 0-2.988 3.292-3.5 7-2.928 1.97-5.5 2-.051 2.52-.5 4.5l-7 3 1 1-9.5 10.5q-2.005-1.897-4.5-1.5a7.3 7.3 0 0 0 3 2q-4.886.682-7 5l1 1a14.8 14.8 0 0 0-4 3.5 4.46 4.46 0 0 0 2 1.5 97 97 0 0 1-8 2.5q.828 2.254 0 5a132 132 0 0 1-7 3.5l-1 1q5.829.868 0 2.5-1.969-1.44-4 .5l1 1q-3.533 2.965-6-.5a1286 1286 0 0 1 39.5-55q1-1 0-2-1.006 1.129-2.5 1 2.221-2.62 6-3.5-4.533-7.275 1-12.5 1.817 1.16 0 2.5 3.228 3.124 2-.5 2.436-2.695 1.5-6-3.16 3.647-6.5 0v-1q7.917 2.772 6.5-6 2 4 4 0l1 5 1.5-1.5v-4l-3-1 3-3q-1.426-1.077-.5-2.5 2.233 2.748 5.5 2.5a7.3 7.3 0 0 0-3-2q3.54-3.907 7.5-7.5.5 2.32-1.5 4 4.66 2.939 1 6.5l1.5 1.5q.75-2.75 3.5-3.5a6.55 6.55 0 0 0-3-3l3-3-3-1q.343-3.053 2.5-6.5a11.3 11.3 0 0 0 3.5 1.5q-1.321 2.69 2 2-1.469-2.668 1-5l-2-2q2-1.5 0-3 1.926-1.026 3.5.5.705-1.615-.5-3 1.983-.255 3.5 1l1-3 1 1a4.46 4.46 0 0 1 1.5-2q1.137 1.966 3 1.5a3.65 3.65 0 0 1-1-1.5q5.683-3.223-1-5.5 6.269-1.06 2-5.5 2.103-2.014-1-2.5 2.412-.987 3.5 1.5a26.9 26.9 0 0 1 3.5-6q3.258-.264 7-.5a33 33 0 0 0 5-4.5q1.096-.663 3-.5-2.142-5.211 1.5-1.5 2.668-4.164 3 1a15.3 15.3 0 0 1 1.5-4.5l-4-1a15.5 15.5 0 0 0 5.5-3.5q.539-4.567 2-1a36 36 0 0 0 6-8q1 2 2 0l1 3q2.349-.841 4 2 1.063-1.321 2.5-2" style="opacity:.998"/><path fill="#bddcf6" d="m261.5 134.5 12 19a330 330 0 0 0 13 21l17 28 2 4q-.09.814-1 1a47 47 0 0 0-12-5 545 545 0 0 0-40-18 369 369 0 0 0-28-13q.255-1.983-1-3.5 2.75-.75 3.5-3.5a7.3 7.3 0 0 1 2 3q-.855-3.29 1-6 .634 2.184 2.5 1.5.502-1.746 0-4l3.5-4.5q3.422 1.818 7.5-.5-6-2 0-4l-1-1q3.587-.28 3.5-2.5a3.94 3.94 0 0 1 2 1q.477-2.342 2.5-3.5l-1-1 3-1-1-1q2.296-3.295 5.5-2.5.675-3.909 4.5-4" style="opacity:1"/><path fill="#5c98eb" d="M150.5 149.5a54338 54338 0 0 1-35 58q-1.857.465 0 1.5a143 143 0 0 1 14 8.5q-1.53 2.18-3.5 1-1.5 2.5-4 4l-1-1q-1.512 2.639-4.5 3.5 1.857 1.035 0 1.5h-1q-1.209 2.052-3 4a3.65 3.65 0 0 0 1 1.5 22.8 22.8 0 0 1-5 4l1 1a20.6 20.6 0 0 1-6 2q-.722 1.512-.5 3.5l-1-1q-1.268 4.368-5 3-1.748 3.582-4.5 8-2.346-1.029-5 .5a4.93 4.93 0 0 0 3 .5q-1.614 1.319-2.5 5-1.517-1.255-3.5-1-.957 2.94 0 5.5l-1.5 1.5q-2.097-.826-4-1-.84 4.185-4 7-.634-2.184-2.5-1.5.685.621 1 1.5-1.545-.306-3 1.5l2 1q-1.75.75-2.5 2.5-1.775-1.846-3.5 0 3.837 3.403-1.5 5l-1-2-3 4q-2.05-1.536-2.5 1.5 2.157 3.549-1.5 1.5-1.67 1.89-.5 3.5-4.098.597-5.5 4.5-.634-2.184-2.5-1.5 2.055 3.359-1.5 5.5l-1-2a6.98 6.98 0 0 1-2.5 3.5l1 1q-5.528 1.371 1 2l-6 1 1 1a15.5 15.5 0 0 1-5 3l3 1q-2.418 1.08-4.5-.5-.385 4.314-2.5 8-11.721-15.937-18-35 1.384 1.205 3 .5l-1-1 5-3q-1.816-1.34 0-2.5a3.65 3.65 0 0 1 1.5 1 39 39 0 0 1 4.5-4.5l-1-1q7.638-.819 6-7.5h3a4.93 4.93 0 0 1 .5-3l1 1a4.45 4.45 0 0 1 1.5-2q3.983 2.28 2-1.5.956-2.569 3-.5a22.1 22.1 0 0 1 3-6 3.65 3.65 0 0 1 1.5 1q2.23-1.13.5-2.5a15.3 15.3 0 0 0 4.5-1.5q-.467-2.152.5-4a11.5 11.5 0 0 0 5-3.5q-2.049-3.657 1.5-1.5 4.2-1.105.5-2.5 3.267-.663 2-3 1.573-.738 3 .5 5.046-3.089.5-2l-.5-1.5q2.571-.192 5-2.5a4.46 4.46 0 0 0-2-1.5q2.418-1.08 4.5.5 2.23-1.13.5-2.5 2.7-.476 1-2l3-1q-1.425-1.077-.5-2.5 2.668 4.164 3-1 1.34 1.817 2.5 0 1.816-1.83 0-3.5a34 34 0 0 0 6-3l-2-2q1.863-5.035 2.5.5a21.5 21.5 0 0 0 6.5-3.5l-1-1q4-1 0-2 2-1.5 0-3a22.5 22.5 0 0 0 7-2l-2-1q3.94-.525 7-4.5 2.103-2.014-1-2.5a19.9 19.9 0 0 0 4-3.5 3.65 3.65 0 0 1 1.5 1 36 36 0 0 1 4.5-3.5l-1-3q1.423-.926 2.5.5a7.25 7.25 0 0 1 2.5-2l1-4q1.824.753 3.5 1 2.872-1.764-.5-3 2.26-1.858 3.5 1 .987-2.412-1.5-3.5a11.3 11.3 0 0 0 3.5-1.5l1 1q3.25-2.25-.5-3.5 3.218-2.931 6.5-3.5 1.174-2.9-1.5-4.5 2.023-1.158 2.5-3.5l1 4q2.91-1.174 4.5-5.5a4.93 4.93 0 0 1 3-.5 4.93 4.93 0 0 1 .5-3l1 1a9.2 9.2 0 0 1 4.5-2" style="opacity:.997"/><path fill="#5ebeea" d="M403.5 155.5a190.4 190.4 0 0 1 6 33q-3.303 1.939-5 5.5-4.666-.892-5.5 4.5a17.8 17.8 0 0 1-5.5 4.5l1 1-4 2q1.73 1.37-.5 2.5-.677-3.644-2.5-.5 3.664 3.837-1.5 2.5-3.814 2.064-.5 3.5-2.412.987-3.5-1.5-2.052 2.24-.5 4.5-2.064 3.814-3.5.5-1.158 2.023-3.5 2.5l2 3q-1.866.684-2.5-1.5-.75 1.75-2.5 2.5 1.426 1.077.5 2.5-2.76-2-1.5.5-.723 2.19-3.5 4.5h-4q-1.187 3.156-4.5 4 1.543-.306 3 1.5-4.656 5.939-11 9.5l-2 3a3.65 3.65 0 0 1-1.5-1q-3.508 2.46-2.5 6a19 19 0 0 0-5 3q-2.197-1.663-3 1.5.686.621 1 1.5-1.16 1.817-2.5 0-.165 3.522-3.5 4.5l1 1a9.5 9.5 0 0 0-2.5 1.5q-.634-2.184-2.5-1.5 2 2.76-.5 1.5-.926 1.423.5 2.5l-3 2.5a3.65 3.65 0 0 0 1 1.5q-3.01.348-4-1-3.096 1.527-1 4-1.133 4.696-5 4-3.713 6.202-10.5 9.5-1.543 6.669-8.5 7.5 3.618 3.053-2 3-2.09 1.756-2.5 4.5l-2-2q-.52 3.522-3.5 5.5 1.426 1.077.5 2.5-2.974.89-5.5 3.5 3.601 1.207-.5 2.5l-1-1q-1.631 3.378-5.5 4 1.694 3.044-1.5 1-2.23 1.13-.5 2.5-5.528 1.371 1 2-1.684 1.565-4 2a11.3 11.3 0 0 0-1.5 3.5q-1.036-3.587-3 0l-1-1q-1.026 1.926.5 3.5-3.688 1.086-3 4-4.329.909-6.5 4.5-2.335-1.058-3.5 2 1.693 3.044-1.5 1-2.698 2.457-3.5 5.5l-4 1q4 1 0 2l1 1a23.7 23.7 0 0 0-3 3.5q-1.663-1.635-3 0a4.46 4.46 0 0 0 2 1.5q-4.015.374-7 3l2 1q-2.988.861-4.5 3.5l-1-1q1.518 4.261-3.5 4 .571 3.663-2 2a10.5 10.5 0 0 1-5 3.5q6 1 0 2a29.5 29.5 0 0 0-2.5 4.5l-1-1q-1.512 2.639-4.5 3.5.555 2.415-2 4.5l-6 4q2.032 1.763-.5 3-2.06.144-4.5-.5a7.3 7.3 0 0 0 3 2q-3.597 4.286-8 5l2 3q-1.866.684-2.5-1.5a18.1 18.1 0 0 1-5.5 4.5q3.804.279 7 1.5h-9a447 447 0 0 1-32-6q3.767-4.748 6.5-9l1 2q1-2 2 0 .738-1.573-.5-3a15.7 15.7 0 0 0 2.5-4l1 2q1.422-3.105 4.5-4.5-3.31-4.475 1.5-.5a26 26 0 0 1 3.5-5q1.388-1.712 2.5 0a11.3 11.3 0 0 1 1.5-3.5l-2-1q4.289-1.394 7-5-1.26-2.5 1.5-.5 1.268-4.368 5-3 .778-3.784 4-6 .621.686 1.5 1 1.102-3.472 4-5.5-1.199-3.342 3-4l-3-1a39 39 0 0 0 5-2.5 16.64 16.64 0 0 1 5 6q1 2 2 0l54-73q2.467 3.465 6 .5l-1-1q2.031-1.94 4-.5 5.829-1.632 0-2.5l1-1a132 132 0 0 0 7-3.5q.828-2.746 0-5a97 97 0 0 0 8-2.5 4.46 4.46 0 0 1-2-1.5 14.8 14.8 0 0 1 4-3.5l-1-1q2.114-4.318 7-5a7.3 7.3 0 0 1-3-2q2.495-.397 4.5 1.5l9.5-10.5-1-1 7-3q.449-1.98.5-4.5 2.572-.03 5.5-2 .512-3.708 3.5-7 1.21 5.923 1.5 0 3.55-.996 6-4a4.46 4.46 0 0 0-2-1.5q2.29-2.052 4.5-1.5.926-1.423-.5-2.5a48 48 0 0 0 5-2.5 3.65 3.65 0 0 0-1-1.5q3.624-.991 5-4.5 2.571 1.663 2-2h3q-.21-2.435 2-3.5l-1-1 4.5-3.5q1.61 1.17 3.5-.5a6.8 6.8 0 0 1-3-1.5q3.197.243 3-4a8.4 8.4 0 0 0 4-.5q4.005-3.69 6-6.5 5.716-.144 0-2 1.16-1.817 2.5 0 1.67-1.89.5-3.5 1.866-.684 2.5 1.5l3-5 1 1q4.517-2.25-1.5-2.5 2.24-2.052 4.5-.5 1.977-2.102 3.5-5.5 4.438-1.158 7.5-4.5.926-1.423-.5-2.5 5.763-3.361 7.5-8.5l1 3q1.67-1.89.5-3.5 2.189.533 4-.5" style="opacity:.997"/><path fill="#bdd8f7" d="M210.5 165.5v18q-2.18 1.53-1 3.5-5.18 2.037-8.5 6.5l-1-1v4q-1.28-2.437-3-1 1.469 2.668-1 5l-1-2a8.9 8.9 0 0 0-3 4l-1-3a22.5 22.5 0 0 1-2 7l-1-1q-.434 2.316-2 4-.476-2.701-2-1-.684 1.866 1.5 2.5l-2 1q2 1 0 2a9.5 9.5 0 0 0-2.5 1.5 4.46 4.46 0 0 0-1.5-2q.243 3.197-4 3a4.93 4.93 0 0 1-.5 3q-3.193-2.044-1.5 1-2.118 1.96-5 2.5l4 1q-4.821-.345-9 3l2 2q-3.004 2.728-4 6.5a59 59 0 0 0-9-5 248 248 0 0 0-23-13 143 143 0 0 0-14-8.5q-1.857-1.035 0-1.5a6007 6007 0 0 0 95-42" style="opacity:1"/><path fill="#7db9ee" d="m212.5 166.5 12 5a369 369 0 0 1 28 13q.129 1.494-1 2.5 3.603 2.207-.5 4.5-1.974-3.792-3.5 0 .519 1.794 1.5 0 1 1.5 0 3-2.396-.21-4.5 0-1.312 4.741-5.5 9-4.286-.597-6.5 4 2.032 1.763-.5 3l-1-1q-2.808 1.986-2.5 4.5-2.72.921-1-1l-1.5-1.5-2 4q-1.38.645-2.5 1 1.966 1.137 1.5 3-1.077-1.426-2.5-.5-1.222 4.571-5.5 8.5-1.61.449-3.5 0a931 931 0 0 1 1-61" style="opacity:.999"/><path fill="#bddbf6" d="M210.5 183.5v80l-8-4-22-13a268 268 0 0 1-19-11q.996-3.772 4-6.5l-2-2q4.179-3.345 9-3l-4-1q2.882-.54 5-2.5-1.693-3.044 1.5-1a4.93 4.93 0 0 0 .5-3q4.243.197 4-3a4.46 4.46 0 0 1 1.5 2 9.5 9.5 0 0 1 2.5-1.5q2-1 0-2l2-1q-2.184-.634-1.5-2.5 1.524-1.701 2 1 1.566-1.684 2-4l1 1a22.5 22.5 0 0 0 2-7l1 3a8.9 8.9 0 0 1 3-4l1 2q2.469-2.332 1-5 1.72-1.437 3 1v-4l1 1q3.32-4.463 8.5-6.5-1.18-1.97 1-3.5" style="opacity:1"/><path fill="#7dbeee" d="M252.5 184.5a545 545 0 0 1 40 18 174 174 0 0 1-4 3 4.46 4.46 0 0 0 2 1.5l-4 1 1 1a7.3 7.3 0 0 0-3 2q-1.702 1.124-3-.5 2.032-1.763-.5-3-2.167 3.167.5 6.5-2.657 3.17-4.5-.5-1 4-2 0-.539 4.567-2 1-1.25 2.25-3.5 3.5l3 5a4.46 4.46 0 0 1-2 1.5q-5.023-1.995-1 1.5-1.293 4.101-2.5.5-.868 2.143.5 4l-5 4a1909 1909 0 0 0-51 29v-36q1.89.449 3.5 0 4.278-3.929 5.5-8.5 1.423-.926 2.5.5.466-1.863-1.5-3a21 21 0 0 0 2.5-1l2-4 1.5 1.5q-1.72 1.921 1 1-.308-2.514 2.5-4.5l1 1q2.532-1.237.5-3 2.214-4.597 6.5-4 4.188-4.259 5.5-9 2.104-.21 4.5 0 1-1.5 0-3-.981 1.794-1.5 0 1.526-3.792 3.5 0 4.103-2.293.5-4.5 1.129-1.006 1-2.5" style="opacity:.999"/><path fill="#5ec4e9" d="M409.5 188.5a598 598 0 0 1-1 44q-3.64.034-7 1.5 5.024.134 1.5 3.5l-1-2a6.98 6.98 0 0 1-3.5 2.5l1 1q-3.58 1.464-3.5 5.5-.435-2.316-2-4a21.4 21.4 0 0 1 0 5q-6.408 1.346-7 8l-2-2a15.4 15.4 0 0 1-3 6q-1-4-2 0-.639-1.218-1.5-.5a64 64 0 0 1-1 5.5q-1.83 1.817-3.5 0a36.2 36.2 0 0 0-4 7l-1-1q-4.929 2.54-7.5 5.5l2 1a15.5 15.5 0 0 0-5 3q-1.7 5.45-7 7.5-2.197-1.663-3 1.5 3.792 3.112-.5 2.5a7.3 7.3 0 0 0-2 3l-1-2q-1.25 3.25-4.5 4.5l2 2a11.53 11.53 0 0 0-4.5 3.5l-1-2q-2.81 2.835-2.5 6-1.635 2.254-3.5 1a4.93 4.93 0 0 0-.5 3q-5.247-.033-4 4.5-1.823 3.144-2.5-.5-2.23 1.13-.5 2.5-1.293 4.101-2.5.5-.75 1.75-2.5 2.5 2.184.634 1.5 2.5-3.835-1.719-4 3-.677-3.644-2.5-.5 1.17 1.61-.5 3.5-2.06.144-4.5-.5 1.701 1.524-1 2 3.508 3.404-2 4.5l-1.5 3q-1.112-1.712-2.5 0l-5 7.5q-4.839-1.404-3 3.5-.803 2.656-2.5 1-1.647 2.201-4.5 2.5.686.621 1 1.5-1.16 1.817-2.5 0l-2.5 2.5q2.184.634 1.5 2.5-2.947-2.077-5.5.5 3.738 3.479-1 2.5-1.817 1.16 0 2.5l-6 3 1 1q-3.936.865-2 4-1.554 2.426-3.5.5-.926 1.423.5 2.5-3.936 3.538-2-1l-1.5-1.5q-.181 3.34-2.5 5.5.686.621 1 1.5a37.7 37.7 0 0 1-8 3.5q3.02 1.313 0 4l-4 1q1.84 2.381-1 4-2.71 1.855-6 1 3.172.636 2.5 3.5-1 2-2 0-.762 3.606-3.5 2-2.656.803-1 2.5a12.4 12.4 0 0 0-4 2.5 3.65 3.65 0 0 0 1 1.5q-6.002 1.18-5 6.5-3.839-.452-7 1h-31q-3.196-1.221-7-1.5a18.1 18.1 0 0 0 5.5-4.5q.634 2.184 2.5 1.5l-2-3q4.403-.714 8-5a7.3 7.3 0 0 1-3-2q2.44.644 4.5.5 2.532-1.237.5-3l6-4q2.555-2.085 2-4.5 2.988-.861 4.5-3.5l1 1a29.5 29.5 0 0 1 2.5-4.5q6-1 0-2a10.5 10.5 0 0 0 5-3.5q2.571 1.663 2-2 5.018.261 3.5-4l1 1q1.512-2.639 4.5-3.5l-2-1q2.985-2.626 7-3a4.46 4.46 0 0 1-2-1.5q1.337-1.635 3 0a23.7 23.7 0 0 1 3-3.5l-1-1q4-1 0-2l4-1q.802-3.043 3.5-5.5 3.193 2.044 1.5-1 1.165-3.058 3.5-2 2.171-3.591 6.5-4.5-.688-2.914 3-4-1.526-1.574-.5-3.5l1 1q1.964-3.587 3 0a11.3 11.3 0 0 1 1.5-3.5q2.316-.435 4-2-6.528-.629-1-2-1.73-1.37.5-2.5 3.194 2.044 1.5-1 3.869-.622 5.5-4l1 1q4.101-1.293.5-2.5 2.526-2.61 5.5-3.5.926-1.423-.5-2.5 2.98-1.978 3.5-5.5l2 2q.41-2.744 2.5-4.5 5.618.053 2-3 6.957-.831 8.5-7.5 6.787-3.298 10.5-9.5 3.867.696 5-4-2.096-2.473 1-4 .99 1.348 4 1a3.65 3.65 0 0 1-1-1.5l3-2.5q-1.426-1.077-.5-2.5 2.5 1.26.5-1.5 1.866-.684 2.5 1.5a9.5 9.5 0 0 1 2.5-1.5l-1-1q3.335-.978 3.5-4.5 1.34 1.817 2.5 0a3.65 3.65 0 0 0-1-1.5q.803-3.163 3-1.5a19 19 0 0 1 5-3q-1.008-3.54 2.5-6 .621.686 1.5 1l2-3q6.344-3.561 11-9.5-1.457-1.806-3-1.5 3.313-.844 4.5-4h4q2.777-2.31 3.5-4.5-1.26-2.5 1.5-.5.926-1.423-.5-2.5 1.75-.75 2.5-2.5.634 2.184 2.5 1.5l-2-3q2.342-.477 3.5-2.5 1.436 3.314 3.5-.5-1.552-2.26.5-4.5 1.088 2.487 3.5 1.5-3.314-1.436.5-3.5 5.164 1.337 1.5-2.5 1.823-3.144 2.5.5 2.23-1.13.5-2.5l4-2-1-1a17.8 17.8 0 0 0 5.5-4.5q.834-5.392 5.5-4.5 1.697-3.561 5-5.5" style="opacity:.996"/><path fill="#5db5ea" d="M340.5 173.5q1.205 1.385.5 3-1.574-1.526-3.5-.5 2 1.5 0 3l2 2q-2.469 2.332-1 5-3.321.69-2-2a11.3 11.3 0 0 1-3.5-1.5q-2.157 3.447-2.5 6.5l3 1-3 3a6.55 6.55 0 0 1 3 3q-2.75.75-3.5 3.5l-1.5-1.5q3.66-3.561-1-6.5 2-1.68 1.5-4a108 108 0 0 0-7.5 7.5 7.3 7.3 0 0 1 3 2q-3.267.248-5.5-2.5-.926 1.423.5 2.5l-3 3 3 1v4l-1.5 1.5-1-5q-2 4-4 0 1.417 8.772-6.5 6 0-1-1-1l-2-4q1.494-.129 2.5 1 2.687-3.02 4 0a55 55 0 0 1 2-7q1-2 2 0 1.08-2.418-.5-4.5a4.93 4.93 0 0 1 3-.5v-5a4.93 4.93 0 0 0 3-.5q-7.594-1.385-2.5-6.5 1 2 2 0 1.026 1.926-.5 3.5a6.98 6.98 0 0 1 2.5 3.5q1.256-2.776 2.5-5.5-.975-2.413 1.5-4.5 2.532 1.237.5 3 3.736 1.561 0 2.5 1.75.75 2.5 2.5 3.414-2.71.5-4.5l3-3-4-4 3.5-3.5a25.5 25.5 0 0 0 4.5 4q1.817-1.16 0-2.5 3-1 6 0a7.3 7.3 0 0 1-3 2 2.43 2.43 0 0 0 2 .5" style="opacity:.999"/><path fill="#7dc2ee" d="M292.5 202.5a47 47 0 0 1 12 5q.91-.186 1-1 1 0 1 1v1a1123 1123 0 0 1-39 22q-1.368-1.857-.5-4 1.207 3.601 2.5-.5-4.023-3.495 1-1.5a4.46 4.46 0 0 0 2-1.5l-3-5q2.25-1.25 3.5-3.5 1.461 3.567 2-1 1 4 2 0 1.843 3.67 4.5.5-2.667-3.333-.5-6.5 2.532 1.237.5 3 1.298 1.624 3 .5a7.3 7.3 0 0 1 3-2l-1-1 4-1a4.46 4.46 0 0 1-2-1.5 174 174 0 0 0 4-3" style="opacity:.999"/><path fill="#5ea0eb" d="M129.5 217.5a248 248 0 0 1 23 13 31 31 0 0 0-5.5 9l-1-3q-.918 3.922-4.5 5a310 310 0 0 1-25-15q1.857-.465 0-1.5 2.988-.861 4.5-3.5l1 1q2.5-1.5 4-4 1.97 1.18 3.5-1" style="opacity:.999"/><path fill="#5eb5ea" d="M306.5 208.5q3.34 3.647 6.5 0 .936 3.305-1.5 6 1.228 3.624-2 .5 1.817-1.34 0-2.5-5.533 5.225-1 12.5-3.779.88-6 3.5a1349 1349 0 0 1-43 25v-3q1.763.329 3-1-2.46.52-5-1.5 2.482-3.37 1-7l5-1q.169-2.62-1-5.5l5-4a1123 1123 0 0 0 39-22" style="opacity:.999"/><path fill="#5c9fea" d="M115.5 226.5a492 492 0 0 1 17 25 99 99 0 0 0-6.5 9l-1-2a25.9 25.9 0 0 1-5.5 6.5q2.184.634 1.5 2.5a3.65 3.65 0 0 0-1.5-1 216 216 0 0 0-13 11.5l2 1a20.6 20.6 0 0 1-6 2q1.268 2.337-2 3 1.426 1.077.5 2.5l-3-1a21.6 21.6 0 0 1-5.5 5.5q4.165 3.26-.5 1.5-1.665 3.472-5.5 4.5 2 2 0 4a32.5 32.5 0 0 1-7 3q-2 1 0 2-2.392-.926-4 1 4.165 3.26-.5 1.5a10.26 10.26 0 0 1-1.5 4q-1.762-2.032-3 .5l1 1q-3.177.39-5 3l2 1a7.3 7.3 0 0 0-3 2q2 1 0 2-3.492 3.167-7.5 2.5a6.98 6.98 0 0 1-2.5 3.5 7.3 7.3 0 0 1 3 2q-4.57.966-7.5 4.5l-1-1-1 4q-1.005-1.129-2.5-1a78.2 78.2 0 0 1-15-21q2.115-3.686 2.5-8 2.082 1.58 4.5.5l-3-1a15.5 15.5 0 0 0 5-3l-1-1 6-1q-6.528-.629-1-2l-1-1a6.98 6.98 0 0 0 2.5-3.5l1 2q3.555-2.141 1.5-5.5 1.866-.684 2.5 1.5 1.402-3.903 5.5-4.5-1.17-1.61.5-3.5 3.657 2.049 1.5-1.5.45-3.036 2.5-1.5l3-4 1 2q5.337-1.597 1.5-5 1.725-1.846 3.5 0 .75-1.75 2.5-2.5l-2-1q1.455-1.806 3-1.5a3.65 3.65 0 0 0-1-1.5q1.866-.684 2.5 1.5 3.16-2.815 4-7 1.903.174 4 1l1.5-1.5q-.957-2.56 0-5.5 1.983-.255 3.5 1 .886-3.681 2.5-5a4.93 4.93 0 0 1-3-.5q2.654-1.529 5-.5 2.752-4.418 4.5-8 3.732 1.368 5-3l1 1q-.222-1.988.5-3.5a20.6 20.6 0 0 0 6-2l-1-1a22.8 22.8 0 0 0 5-4 3.65 3.65 0 0 1-1-1.5q1.791-1.948 3-4" style="opacity:.997"/><path fill="#95c7f1" d="M210.5 165.5h1q1 0 1 1a931 931 0 0 0-1 61v36h-1v-98" style="opacity:.999"/><path fill="#fdfefe" d="M115.5 226.5h1a310 310 0 0 0 25 15 152.3 152.3 0 0 0 25 14 310 310 0 0 0 25 15 263 263 0 0 0 19 11v1q.497 37.758-1 75a16.64 16.64 0 0 0-5-6 79.8 79.8 0 0 0-12-17 40.6 40.6 0 0 0-7-10 503 503 0 0 0-18-25 281 281 0 0 0-19-26 265 265 0 0 0-16-22 492 492 0 0 0-17-25" style="opacity:1"/><path fill="#bde2f6" d="m265.5 284.5-54 73q.497-37.758-1-75v-1a1762 1762 0 0 0 49-28 1349 1349 0 0 0 43-25q1.494.129 2.5-1 1 1 0 2a1286 1286 0 0 0-39.5 55" style="opacity:1"/><path fill="#5fa6ea" d="M152.5 230.5a59 59 0 0 1 9 5 268 268 0 0 0 19 11q-1.453 1.214-2.5 3-1.61-1.17-3.5.5a4.46 4.46 0 0 1 2 1.5q-3.4 1.156-5.5 4-2.183-1.62-4.5 0a152.3 152.3 0 0 1-25-14q3.582-1.078 4.5-5l1 3a31 31 0 0 1 5.5-9" style="opacity:.999"/><path fill="#5ecae9" d="M408.5 232.5q-5.112 34.833-21 66-1.875.116-2.5 2l-1-1a12.9 12.9 0 0 0-.5 5 81.7 81.7 0 0 0-13 7.5 6.8 6.8 0 0 1 3 1.5l-.5 1q-2.082-1.58-4.5-.5l1 1q-3.49 2.321-3.5 5.5l-2-2q-1.647 2.201-4.5 2.5 2.362.504 4 2.5-1.623.373-4 .5 1.73 1.37-.5 2.5l-1-1q-.684 1.866 1.5 2.5-2.064 3.814-3.5.5-.75 1.75-2.5 2.5 5.528 1.371-1 2 .178 1.922-1.5 3.5l-1-3-3 6q-.634-2.184-2.5-1.5l2 3a59 59 0 0 1-7 4l2 1-6 2q.686.621 1 1.5-2.767 6.765-10 8a6.8 6.8 0 0 0 3 1.5 23.7 23.7 0 0 0-6 2.5 35.7 35.7 0 0 1-8 7.5q1.73 1.37-.5 2.5-2.046-1.137-3.5 1.5l1 1q-1.75.75-2.5 2.5l-3-1a6.98 6.98 0 0 1-2.5 3.5 3.94 3.94 0 0 1 1 2 24.3 24.3 0 0 1-3.5 3.5l-1-2q-2.338 2.575-2.5 6-31.778 15.822-67 21-1.002-5.32 5-6.5a3.65 3.65 0 0 1-1-1.5 12.4 12.4 0 0 1 4-2.5q-1.656-1.697 1-2.5 2.738 1.606 3.5-2 1 2 2 0 .672-2.864-2.5-3.5 3.29.855 6-1 2.84-1.619 1-4l4-1q3.02-2.687 0-4a37.7 37.7 0 0 0 8-3.5 3.65 3.65 0 0 0-1-1.5q2.319-2.16 2.5-5.5l1.5 1.5q-1.936 4.538 2 1-1.426-1.077-.5-2.5 1.946 1.926 3.5-.5-1.936-3.135 2-4l-1-1 6-3q-1.817-1.34 0-2.5 4.738.979 1-2.5 2.553-2.577 5.5-.5.684-1.866-1.5-2.5l2.5-2.5q1.34 1.817 2.5 0a3.65 3.65 0 0 0-1-1.5q2.853-.299 4.5-2.5 1.697 1.656 2.5-1-1.839-4.904 3-3.5l5-7.5q1.388-1.712 2.5 0l1.5-3q5.508-1.096 2-4.5 2.701-.476 1-2 2.44.644 4.5.5 1.67-1.89.5-3.5 1.823-3.144 2.5.5.165-4.719 4-3 .684-1.866-1.5-2.5 1.75-.75 2.5-2.5 1.207 3.601 2.5-.5-1.73-1.37.5-2.5.677 3.644 2.5.5-1.247-4.533 4-4.5a4.93 4.93 0 0 1 .5-3q1.865 1.254 3.5-1-.31-3.165 2.5-6l1 2a11.53 11.53 0 0 1 4.5-3.5l-2-2q3.25-1.25 4.5-4.5l1 2a7.3 7.3 0 0 1 2-3q4.292.612.5-2.5.803-3.163 3-1.5 5.3-2.05 7-7.5a15.5 15.5 0 0 1 5-3l-2-1q2.571-2.96 7.5-5.5l1 1a36.2 36.2 0 0 1 4-7q1.67 1.817 3.5 0a64 64 0 0 0 1-5.5q.861-.718 1.5.5 1-4 2 0a15.4 15.4 0 0 0 3-6l2 2q.592-6.654 7-8a21.4 21.4 0 0 0 0-5q1.565 1.684 2 4-.08-4.036 3.5-5.5l-1-1a6.98 6.98 0 0 0 3.5-2.5l1 2q3.524-3.366-1.5-3.5a17.8 17.8 0 0 1 7-1.5" style="opacity:.993"/><path fill="#5eb2ea" d="M262.5 234.5q1.169 2.88 1 5.5l-5 1q1.482 3.63-1 7 2.54 2.02 5 1.5-1.237 1.329-3 1v3a1762 1762 0 0 1-49 28 263 263 0 0 1-19-11 14.7 14.7 0 0 0 3.5-3q2.381 1.84 4-1 3.147.472 6 0-.475-3.318-2.5-7l8 4h1a1909 1909 0 0 1 51-29" style="opacity:.999"/><path fill="#5facea" d="m180.5 246.5 22 13q2.025 3.682 2.5 7-2.853.472-6 0-1.619 2.84-4 1a14.7 14.7 0 0 1-3.5 3 310 310 0 0 1-25-15q2.317-1.62 4.5 0 2.1-2.844 5.5-4a4.46 4.46 0 0 0-2-1.5q1.89-1.67 3.5-.5 1.047-1.786 2.5-3" style="opacity:.999"/><path fill="#5ca5ea" d="M132.5 251.5a265 265 0 0 1 16 22q-2.34 2.444 1 3.5-4.811 1.702-4 6a11.53 11.53 0 0 0-3.5 4.5q-1.256-2.26-3.5-1.5l1 1-6 4q.174 1.902 1 4a21.4 21.4 0 0 1-5 0q1.526 1.574.5 3.5l-1-2q-1.45 1.767-1.5 4-1.16 1.817-2.5 0a4.93 4.93 0 0 0-.5 3q-2.926.41-4.5-2-.299 2.853-2.5 4.5l2 1a20.23 20.23 0 0 0-7.5 7.5l-1-2q-1.08 2.418.5 4.5-2.332 2.469-5 1-1.469 3.604-4.5 2.5a21.4 21.4 0 0 1 0 5 9.5 9.5 0 0 1-2.5 1.5l1 1q-1.5 1-3 0 .774-3.05-2 0 1.7 1.524-1 2 1.17 1.61-.5 3.5-4.59-1.653-2.5 3a22.2 22.2 0 0 1-6 2.5q1.267 2.337-2 3 3.567 1.461-1 2 1.816 1.34 0 2.5a3.65 3.65 0 0 1-1.5-1 6.98 6.98 0 0 1-2.5 3.5l1 1a15.3 15.3 0 0 0-4.5 1.5l-1-1-4.5 7q-1.54-1.937-3 0a148.8 148.8 0 0 1-20-21q1.495-.129 2.5 1l1-4 1 1q2.93-3.534 7.5-4.5a7.3 7.3 0 0 0-3-2 6.98 6.98 0 0 0 2.5-3.5q4.008.667 7.5-2.5 2-1 0-2a7.3 7.3 0 0 1 3-2l-2-1q1.823-2.61 5-3l-1-1q1.238-2.532 3-.5a10.26 10.26 0 0 0 1.5-4q4.665 1.76.5-1.5 1.608-1.926 4-1-2-1 0-2a32.5 32.5 0 0 0 7-3q2-2 0-4 3.835-1.028 5.5-4.5 4.665 1.76.5-1.5 3.25-2.25 5.5-5.5l3 1q.926-1.423-.5-2.5 3.268-.663 2-3a20.6 20.6 0 0 0 6-2l-2-1a216 216 0 0 1 13-11.5 3.65 3.65 0 0 1 1.5 1q.684-1.866-1.5-2.5a25.9 25.9 0 0 0 5.5-6.5l1 2a99 99 0 0 1 6.5-9" style="opacity:.997"/><path fill="#5dabea" d="M148.5 273.5a281 281 0 0 1 19 26 25 25 0 0 1-3.5 5l-1-2a146 146 0 0 0-4 8l-1-4a36 36 0 0 1-5.5 8.5l1 1a20.6 20.6 0 0 1-6 2l1 1q-3.824 1.127-5 5l1 1q-3.291 3.262-8 4-2 1.5 0 3-3.726 2.48-6 6.5-3.165 2.191-6 2.5 4 1 0 2 2 1 0 2a9.5 9.5 0 0 0-2.5 1.5q-.803-2.656-2.5-1a3.65 3.65 0 0 0 1 1.5q-3.906 1.406-6 5 2.157 3.549-1.5 1.5-6.067 7.983-12 14-3.843-.357-7 3-1.026 1.926.5 3.5-1.424.926-2.5-.5a4.93 4.93 0 0 0-.5 3 115.5 115.5 0 0 1-25-19q1.46-1.937 3 0l4.5-7 1 1a15.3 15.3 0 0 1 4.5-1.5l-1-1a6.98 6.98 0 0 0 2.5-3.5q.621.686 1.5 1 1.816-1.16 0-2.5 4.567-.539 1-2 3.267-.663 2-3a22.2 22.2 0 0 0 6-2.5q-2.09-4.653 2.5-3 1.67-1.89.5-3.5 2.7-.476 1-2 2.774-3.05 2 0 1.5 1 3 0l-1-1a9.5 9.5 0 0 0 2.5-1.5 21.4 21.4 0 0 0 0-5q3.031 1.104 4.5-2.5 2.668 1.469 5-1-1.58-2.082-.5-4.5l1 2a20.23 20.23 0 0 1 7.5-7.5l-2-1q2.201-1.647 2.5-4.5 1.574 2.41 4.5 2a4.93 4.93 0 0 1 .5-3q1.34 1.817 2.5 0 .05-2.233 1.5-4l1 2q1.026-1.926-.5-3.5 2.44.293 5 0-.826-2.098-1-4l6-4-1-1q2.244-.76 3.5 1.5a11.53 11.53 0 0 1 3.5-4.5q-.811-4.298 4-6-3.34-1.056-1-3.5" style="opacity:.997"/><path fill="#d6ecf9" d="M210.5 282.5a1407 1407 0 0 1 1 75q-1 2-2 0a1407 1407 0 0 0 1-75" style="opacity:1"/><path fill="#5fcfe9" d="M387.5 298.5q-30.388 58.889-89 90 .162-3.425 2.5-6l1 2a24.3 24.3 0 0 0 3.5-3.5 3.94 3.94 0 0 0-1-2 6.98 6.98 0 0 0 2.5-3.5l3 1q.75-1.75 2.5-2.5l-1-1q1.454-2.637 3.5-1.5 2.23-1.13.5-2.5a35.7 35.7 0 0 0 8-7.5 23.7 23.7 0 0 1 6-2.5 6.8 6.8 0 0 1-3-1.5q7.233-1.235 10-8a3.65 3.65 0 0 0-1-1.5l6-2-2-1a59 59 0 0 0 7-4l-2-3q1.866-.684 2.5 1.5l3-6 1 3q1.678-1.578 1.5-3.5 6.528-.629 1-2 1.75-.75 2.5-2.5 1.436 3.314 3.5-.5-2.184-.634-1.5-2.5l1 1q2.23-1.13.5-2.5 2.377-.127 4-.5-1.638-1.996-4-2.5 2.853-.299 4.5-2.5l2 2q.01-3.179 3.5-5.5l-1-1q2.418-1.08 4.5.5l.5-1a6.8 6.8 0 0 0-3-1.5 81.7 81.7 0 0 1 13-7.5 12.9 12.9 0 0 1 .5-5l1 1q.625-1.884 2.5-2" style="opacity:.965"/><path fill="#5db1ea" d="M167.5 299.5a503 503 0 0 1 18 25q-.467 1.467-2 2-3.721-1.488-4.5 3-.677-3.644-2.5-.5 1.823 2.61 5 3-2.418 1.08-4.5-.5-3.163.803-1.5 3-4.03.897-6.5 4-.892 2.098.5 4a23.7 23.7 0 0 0-3.5 3q-1.34-1.817-2.5 0 5.716 1.856 0 2a4.93 4.93 0 0 1-.5 3q-4.304-6.206-4 2-2.454-5.266-3.5-1-3.266-1.507-1 2l-1.5 3-1-1q-2.258 2.697-.5 5.5l-1.5 1.5-2.5-6q-2.403 1.575-2.5-2-2.235 3.841-5.5 6.5 2.701.476 1 2 3.798 3.984-1.5 6.5-.634-2.184-2.5-1.5.883 2.81-2 5 1.554 2.426 3.5.5l1.5 3q-1.243 1.248-2.5-1l-1 2q-3.67-6.942-9.5-1.5 6.08 2.912-1 2.5a8.4 8.4 0 0 1-.5 4q-1.524-1.701-2 1-3.601-5.188-7.5.5 2.157.328 4 1.5a28 28 0 0 0-1.5 5q-.663-3.268-3-2-2.205-3.566-4.5 0-10.315-4.896-19-12a4.93 4.93 0 0 1 .5-3q1.076 1.426 2.5.5-1.526-1.574-.5-3.5 3.157-3.357 7-3 5.933-6.017 12-14 3.657 2.049 1.5-1.5 2.094-3.594 6-5a3.65 3.65 0 0 1-1-1.5q1.697-1.656 2.5 1a9.5 9.5 0 0 1 2.5-1.5q2-1 0-2 4-1 0-2 2.835-.309 6-2.5 2.274-4.02 6-6.5-2-1.5 0-3 4.709-.738 8-4l-1-1q1.176-3.873 5-5l-1-1a20.6 20.6 0 0 0 6-2l-1-1a36 36 0 0 0 5.5-8.5l1 4a146 146 0 0 1 4-8l1 2a25 25 0 0 0 3.5-5" style="opacity:.997"/><path fill="#5db8ea" d="M192.5 334.5a79.8 79.8 0 0 1 12 17 39 39 0 0 1-5 2.5l3 1q-4.199.658-3 4-2.898 2.028-4 5.5a3.65 3.65 0 0 1-1.5-1q-3.222 2.216-4 6-3.732-1.368-5 3-2.76-2-1.5.5-2.711 3.606-7 5l2 1a11.3 11.3 0 0 0-1.5 3.5q-1.112-1.712-2.5 0a26 26 0 0 0-3.5 5q-4.81-3.975-1.5.5-3.078 1.395-4.5 4.5l-1-2a15.7 15.7 0 0 1-2.5 4q1.238 1.427.5 3-1-2-2 0l-1-2q-2.733 4.252-6.5 9a228.4 228.4 0 0 1-42-16q2.295-3.566 4.5 0 2.337-1.268 3 2a28 28 0 0 1 1.5-5 10.3 10.3 0 0 0-4-1.5q3.899-5.688 7.5-.5.476-2.701 2-1a8.4 8.4 0 0 0 .5-4q7.08.412 1-2.5 5.83-5.442 9.5 1.5l1-2q1.257 2.248 2.5 1 1.345-1.647 2.5 0 .926-1.423-.5-2.5 2.392.926 4-1-.674-3.344 0-5 3.612.102 6.5-3.5l3 1q.926-1.423-.5-2.5 2.5-1.5 4-4l-1-1q2.5-1 5 0-3.567 1.461 1 2-1.794.981 0 1.5 1.77-3.897 6-5-1.497-3.792-2.5 0-2.687-3.02-4 0-1-1.5 0-3a8.9 8.9 0 0 0 3-4l1 1q1.402-3.903 5.5-4.5-5.528-1.371 1-2-1.137-2.046 1.5-3.5a20.5 20.5 0 0 1 2.5 3.5q-2.298 1.05-3 3.5 1.12.355 2.5 1 .926-1.423-.5-2.5a7.3 7.3 0 0 0 3-2q-1.031-3.348-1-6.5 1.622-3.425 5-3.5-3.403 3.048 2 4-1.794.981 0 1.5 2.028-1.527 3-4l2 2q.616-1.143.5-3 1.035 1.857 1.5 0" style="opacity:.996"/><path fill="#5db5ea" d="M185.5 324.5a40.6 40.6 0 0 1 7 10q-.465 1.857-1.5 0 .116 1.857-.5 3l-2-2q-.972 2.473-3 4-1.794-.519 0-1.5-5.403-.952-2-4-3.378.075-5 3.5-.031 3.152 1 6.5a7.3 7.3 0 0 1-3 2q1.426 1.077.5 2.5a21 21 0 0 0-2.5-1q.702-2.45 3-3.5a20.5 20.5 0 0 0-2.5-3.5q-2.637 1.454-1.5 3.5-6.528.629-1 2-4.098.597-5.5 4.5l-1-1a8.9 8.9 0 0 1-3 4q-1 1.5 0 3 1.313-3.02 4 0 1.003-3.792 2.5 0-4.23 1.103-6 5-1.794-.519 0-1.5-4.567-.539-1-2-2.5-1-5 0l1 1q-1.5 2.5-4 4 1.426 1.077.5 2.5l-3-1q-2.888 3.602-6.5 3.5-.674 1.656 0 5-1.608 1.926-4 1 1.426 1.077.5 2.5-1.155-1.647-2.5 0l-1.5-3q-1.946 1.926-3.5-.5 2.883-2.19 2-5 1.866-.684 2.5 1.5 5.298-2.516 1.5-6.5 1.701-1.524-1-2 3.265-2.659 5.5-6.5.097 3.575 2.5 2l2.5 6 1.5-1.5q-1.758-2.803.5-5.5l1 1 1.5-3q-2.266-3.507 1-2 1.046-4.266 3.5 1-.304-8.206 4-2a4.93 4.93 0 0 0 .5-3q5.716-.144 0-2 1.16-1.817 2.5 0a23.7 23.7 0 0 1 3.5-3q-1.392-1.902-.5-4 2.47-3.103 6.5-4-1.663-2.197 1.5-3 2.082 1.58 4.5.5-3.177-.39-5-3 1.823-3.144 2.5.5.779-4.488 4.5-3 1.533-.533 2-2" style="opacity:1"/></svg>