<svg xmlns="http://www.w3.org/2000/svg" width="24" height="24" fill="none"><g clip-path="url(#a)"><path fill="url(#b)" d="M12 24c6.627 0 12-5.373 12-12S18.627 0 12 0 0 5.373 0 12s5.373 12 12 12"/><path fill="#fff" d="M8.5 15.187q-1.072 0-1.757-.504c-.451-.34-.677-.83-.677-1.46 0-.134.015-.292.044-.484q.115-.646.33-1.56.615-2.477 3.164-2.477c.46 0 .878.077 1.243.235q.547.226.864.687.317.453.317 1.08 0 .187-.043.475a20 20 0 0 1-.327 1.56c-.21.82-.57 1.44-1.09 1.848-.513.403-1.204.6-2.068.6m.13-1.296q.503 0 .854-.298.361-.294.514-.912c.139-.566.244-1.056.316-1.478q.037-.188.039-.389.002-.82-.855-.82-.504 0-.864.297-.353.295-.504.912c-.11.403-.216.893-.326 1.478q-.037.179-.038.38c-.005.556.288.83.864.83M12.446 15.101c-.067 0-.115-.02-.154-.062q-.043-.071-.029-.163l1.244-5.856a.24.24 0 0 1 .1-.164.26.26 0 0 1 .173-.062h2.395q1 .002 1.604.413.613.416.614 1.2-.002.224-.053.47-.222 1.036-.912 1.531-.677.496-1.857.495h-1.215l-.413 1.973a.26.26 0 0 1-.1.163.26.26 0 0 1-.173.062zm3.187-3.442c.254 0 .47-.067.658-.206a1 1 0 0 0 .379-.595q.029-.152.029-.269-.001-.26-.154-.398c-.1-.096-.278-.144-.523-.144h-1.08l-.341 1.612z"/></g><defs><linearGradient id="b" x1="0" x2="24" y1="0" y2="24" gradientUnits="userSpaceOnUse"><stop stop-color="#596AEC"/><stop offset="1" stop-color="#60E2E9"/></linearGradient><clipPath id="a"><path fill="#fff" d="M0 0h24v24H0z"/></clipPath></defs></svg>