<?xml version="1.0" encoding="UTF-8"?>
<svg version="1.1" xmlns="http://www.w3.org/2000/svg" width="512" height="512">
<path d="M0 0 C168.96 0 337.92 0 512 0 C512 168.96 512 337.92 512 512 C343.04 512 174.08 512 0 512 C0 343.04 0 174.08 0 0 Z " fill="#F9650E" transform="translate(0,0)"/>
<path d="M0 0 C14.19 0 28.38 0 43 0 C43 13.2 43 26.4 43 40 C52.24 40 61.48 40 71 40 C71 26.8 71 13.6 71 0 C85.19 0 99.38 0 114 0 C114 14.52 114 29.04 114 44 C115.65 44.33 117.3 44.66 119 45 C127.775987 47.92952001 134.7809484 52.28589727 142 58 C142.87785156 58.63035156 142.87785156 58.63035156 143.7734375 59.2734375 C156.68424143 68.9053071 161.89945084 86.89216708 164.57885742 102.02099609 C165.2530723 106.79013808 165.3406555 111.50198929 165.3125 116.3125 C165.30512817 117.81744019 165.30512817 117.81744019 165.29760742 119.3527832 C164.98659956 139.1472377 158.13453618 156.92245792 144 171 C135.90874525 178 135.90874525 178 133 178 C133 178.66 133 179.32 133 180 C134.670625 180.1546875 134.670625 180.1546875 136.375 180.3125 C153.68739353 182.6087337 169.43617042 191.99161501 180.12109375 205.7265625 C192.6911902 224.48709355 195.90743087 247.96539915 191.96972656 269.99633789 C189.11317873 283.70153176 182.61516212 296.02261601 174 307 C173.48179687 307.68191406 172.96359375 308.36382812 172.4296875 309.06640625 C159.86423858 324.57593379 140.33329075 332.98289508 121 336 C118.69 336 116.38 336 114 336 C114 350.85 114 365.7 114 381 C99.81 381 85.62 381 71 381 C71 366.81 71 352.62 71 338 C61.76 338 52.52 338 43 338 C43 351.86 43 365.72 43 380 C28.81 380 14.62 380 0 380 C0 366.14 0 352.28 0 338 C-11.22 338 -22.44 338 -34 338 C-34 239.66 -34 141.32 -34 40 C-22.78 40 -11.56 40 0 40 C0 26.8 0 13.6 0 0 Z " fill="#000000" transform="translate(188,66)"/>
<path d="M0 0 C51.97817124 -0.77004698 51.97817124 -0.77004698 64 10 C71.50957589 19.0424584 71.75925546 27.45136824 71.22216797 38.78369141 C70.59403768 45.04980868 67.18523367 49.08483332 62.8125 53.3125 C45.82276749 66.37042605 19.10190412 63 0 63 C0 42.21 0 21.42 0 0 Z " fill="#F8650E" transform="translate(231,281)"/>
<path d="M0 0 C34.75 0 34.75 0 48.8125 8.75 C55.11020328 15.22763766 57.98762632 23.53222879 58.25 32.4375 C58.02146247 40.75055266 56.14337153 49.327917 50.5 55.69140625 C36.55067753 68.57515548 18.04197526 66 0 66 C0 44.22 0 22.44 0 0 Z " fill="#F8650E" transform="translate(231,158)"/>
</svg>
