<svg xmlns="http://www.w3.org/2000/svg" width="40" height="40" fill="none"><g clip-path="url(#a)"><path fill="url(#b)" d="M20 40A20 20 0 1 0 0 20a19.95 19.95 0 0 0 20 20"/><path fill="#fff" d="M25.5 23.167c0-2.909-1.75-3.918-5.25-4.334-2.501-.333-3-1-3-2.166s.834-1.918 2.499-1.918c1.502 0 2.335.5 2.75 1.751a.63.63 0 0 0 .592.41h1.332a.57.57 0 0 0 .584-.584v-.082a4.165 4.165 0 0 0-3.749-3.418v-2c0-.333-.25-.582-.667-.666H19.34c-.333 0-.582.25-.666.666v1.923c-2.507.342-4.09 2-4.09 4.084 0 2.75 1.667 3.834 5.167 4.25 2.332.417 3.09.91 3.09 2.25s-1.165 2.25-2.748 2.25c-2.168 0-2.91-.908-3.168-2.166a.61.61 0 0 0-.592-.508h-1.424a.57.57 0 0 0-.584.584v.084c.335 2.083 1.668 3.583 4.419 4v2c0 .332.249.583.665.667h1.25c.334 0 .585-.251.666-.668v-2c2.5-.416 4.168-2.167 4.168-4.416z"/></g><defs><linearGradient id="b" x1="0" x2="40" y1="0" y2="40" gradientUnits="userSpaceOnUse"><stop stop-color="#596AEC"/><stop offset="1" stop-color="#60E2E9"/></linearGradient><clipPath id="a"><path fill="#fff" d="M0 0h40v40H0z"/></clipPath></defs></svg>