<svg xmlns="http://www.w3.org/2000/svg" width="16" height="16" fill="none"><path fill="#0D101A" d="M8.003 15.326a7.33 7.33 0 1 0 0-14.662 7.33 7.33 0 0 0 0 14.662"/><path fill="#fff" d="M8.926 4.54H7.062v3.03h1.864zM11.715 4.54H9.852v6.053h1.863z"/><path fill="#fff" d="M11.723 10.14H4.28v1.864h7.442zM6.145 4.54H4.281v3.03h1.864z"/><path fill="#9C3F38" d="m11.838 1.953-.104-.062v2.657h2.54a1 1 0 0 1-.055-.103h-2.381zM4.29 1.883l-.104.062v2.492H1.797a1 1 0 0 0-.055.103H4.29zM2.086 12.016c.02.034.048.069.069.103h2.023v1.926l.103.062v-2.091zM11.718 14.114l.103-.062v-1.933h2.023a1 1 0 0 0 .069-.103h-2.202v2.098z"/><path fill="#FF3F38" d="M8.003 15.5C3.87 15.5.5 12.131.5 7.997S3.869.5 8.003.5A7.503 7.503 0 0 1 15.5 7.997c0 4.134-3.362 7.503-7.497 7.503m0-14.662C4.055.838.845 4.055.845 7.997s3.21 7.158 7.158 7.158 7.152-3.21 7.152-7.158S11.945.838 8.003.838"/></svg>