<svg width="100%" height="100%" viewBox="0 0 500 500" fill="none" xmlns="http://www.w3.org/2000/svg">
<g clip-path="url(#clip0_13558_43220)">
<circle cx="250" cy="250" r="250" fill="#001C5C"/>
<path d="M352.343 400.403L403 275.115L294.225 236.655L241.922 216.506H241.969C208.36 201.963 165.208 179.882 161.818 160.797C154.796 97.6944 273.642 76 273.642 76C273.642 76 102.104 82.5228 116.827 176.935C122.396 212.158 175.96 235.447 232.09 256.948C292.193 279.947 349.484 300.385 349.484 300.385L324.688 367.257L198.528 366.773C198.528 366.773 114.308 363.053 115.664 288.692C74.8862 369.093 140.558 400.449 199.594 400.449C259.051 400.449 291.522 400.403 352.343 400.403Z" fill="white"/>
<path d="M333.837 178.362C298.386 208.366 262.159 206.82 262.159 206.82C321.971 267.024 414.038 172.998 326.911 136.809C337.712 142.945 353.885 162.948 333.837 178.362Z" fill="white"/>
</g>
<defs>
<clipPath id="clip0_13558_43220">
<rect width="500" height="500" fill="white"/>
</clipPath>
</defs>
</svg>
