<svg width="34" height="32" viewBox="0 0 34 32" fill="none" xmlns="http://www.w3.org/2000/svg">
<path d="M27.3442 32H16.2536C15.9493 32 15.6635 31.8387 15.509 31.5801C15.3545 31.3215 15.3515 30.9974 15.4998 30.7358L17.3951 27.3979H12.1803C11.9223 27.3979 11.6829 27.261 11.5562 27.0404C11.5547 27.0358 11.5516 27.0328 11.55 27.0283C11.5053 26.9841 11.4666 26.9339 11.4342 26.8791L9.39525 23.5063L7.42116 26.8624C7.27443 27.1134 7.00102 27.2686 6.70756 27.2686C6.706 27.2686 6.70444 27.2686 6.70288 27.2686C6.40787 27.2671 6.13295 27.1074 5.98928 26.8548L0.105655 16.5705C-0.0379989 16.3195 -0.0349115 16.0076 0.113376 15.7596L5.99702 5.88304C6.14375 5.63659 6.41405 5.48293 6.70444 5.48139C6.706 5.48139 6.70756 5.48139 6.70907 5.48139C6.9964 5.48139 7.26669 5.63205 7.41654 5.87392L9.31339 8.97136L11.4358 5.45861C11.4589 5.42053 11.4852 5.38405 11.5145 5.34907L11.7478 4.94286L12.1602 4.93829H17.514L15.1769 0.687653L15.5816 0.00608667L15.9863 0H27.8339L28.044 0.349913L33.8936 10.3908C34.0357 10.6357 34.0357 10.9385 33.8921 11.1834C33.7484 11.4284 33.4812 11.579 33.1954 11.579H29.0433L31.4855 15.6197C31.5843 15.7825 31.6198 15.9696 31.5936 16.1522C31.6276 16.3393 31.5952 16.534 31.4963 16.7029L29.1129 20.7557H33.0935C33.4024 20.7557 33.6897 20.9201 33.8426 21.1847C33.9956 21.4495 33.9925 21.7765 33.8349 22.0382L28.0857 31.5831C27.9312 31.8403 27.647 32 27.3442 32ZM17.1541 30.6308H27.0446L32.1682 22.125H28.3081L25.4196 27.0343C25.2867 27.258 25.0396 27.3979 24.7755 27.3979H18.9892L17.1541 30.6308ZM12.7642 27.0267L12.7611 27.0313C12.7626 27.0298 12.7626 27.0282 12.7642 27.0267ZM19.7677 26.0272H24.4047L26.7001 22.1234H21.9827L19.7677 26.0272ZM13.3666 26.0272H18.1736L20.9215 21.1893C21.0744 20.9215 21.3618 20.7542 21.6738 20.7542H27.5049L29.8003 16.8505H18.9104L13.3666 26.0272ZM10.1954 22.1478L12.1448 25.3746L17.7086 16.1674L12.1448 6.96016L10.1274 10.2995L13.4654 15.749C13.6215 16.003 13.6245 16.3195 13.4732 16.5766L10.1954 22.1478ZM1.47423 16.1749L6.71374 25.3334L8.58119 22.1584L5.21231 16.5842C5.05784 16.3271 5.05784 16.0091 5.21231 15.752L8.50396 10.3041L6.71525 7.38005L1.47423 16.1749ZM6.58088 16.1674L9.38133 20.7998L12.103 16.1734L9.32113 11.6322L6.58088 16.1674ZM18.9119 15.4827H29.7848L27.4261 11.579H21.1733L20.9648 11.2184L18.2663 6.30597H13.3666L18.9119 15.4827ZM28.217 10.2098H32.1868L27.0368 1.36921H17.134L19.0942 4.93829H24.5252C24.8372 4.93829 25.1292 5.1026 25.2883 5.36581L28.217 10.2098ZM21.9905 10.2098H26.5997L24.241 6.30597H19.848L21.9905 10.2098ZM12.7503 5.28516L12.7518 5.28668C12.7503 5.28668 12.7503 5.28668 12.7503 5.28516Z" fill="#67E1E9"/>
</svg>
