<svg xmlns="http://www.w3.org/2000/svg" width="60" height="60" fill="none"><g clip-path="url(#clip0_3485_9762)"><g clip-path="url(#clip1_3485_9762)"><circle cx="30" cy="30" r="30" fill="url(#paint0_linear_3485_9762)"/><path fill="url(#paint1_linear_3485_9762)" d="M57.073 30c0 14.952-12.121 27.073-27.073 27.073S2.927 44.953 2.927 30C2.927 15.048 15.047 2.927 30 2.927c14.952 0 27.073 12.12 27.073 27.073z"/><path fill="url(#paint2_linear_3485_9762)" fill-rule="evenodd" d="M30 56.585c14.683 0 26.585-11.902 26.585-26.585C56.585 15.317 44.683 3.415 30 3.415 15.317 3.415 3.415 15.317 3.415 30c0 14.683 11.902 26.585 26.585 26.585zm0 .488c14.952 0 27.073-12.12 27.073-27.073C57.073 15.048 44.952 2.927 30 2.927S2.927 15.047 2.927 30c0 14.952 12.12 27.073 27.073 27.073z" clip-rule="evenodd"/><path fill="url(#paint3_linear_3485_9762)" fill-rule="evenodd" d="M50.394 16.2l1.415.52-1.415.52-.52 1.416-.52-1.415-1.416-.52 1.416-.52.52-1.416.52 1.416zm3.725 10.477l1.415.52-1.415.52-.52 1.416-.52-1.416-1.416-.52 1.416-.52.52-1.415.52 1.415zm-.155 11.528l-1.415-.52-.52-1.416-.52 1.416-1.416.52 1.415.52.52 1.415.52-1.415 1.416-.52zm-7.92 9.537l-.52 1.415-.52-1.415-1.416-.52 1.416-.52.52-1.416.52 1.416 1.415.52-1.415.52z" clip-rule="evenodd"/><path fill="url(#paint4_linear_3485_9762)" fill-rule="evenodd" d="M14.2 47.1l-1.415-.52 1.415-.52.52-1.415.52 1.415 1.415.52-1.415.52-.52 1.416-.52-1.416zm-6.124-9.28L6.66 37.3l1.415-.52.52-1.416.52 1.416 1.416.52-1.415.52-.52 1.415-.52-1.415zM5.55 26.236l1.416.52.52 1.416.52-1.416 1.415-.52-1.415-.52-.52-1.415-.52 1.415-1.416.52zm5.214-9.602l-1.416-.52 1.416-.52.52-1.416.52 1.415 1.415.52-1.415.52-.52 1.416-.52-1.415z" clip-rule="evenodd"/><path fill="url(#paint5_linear_3485_9762)" d="M21.097 58.049l27.317-27.683-8.658-8.903-9.146 9.513-9.513-9.513-4.268 4.39-4.39-4.39-5 6.586-6.708 8.78c-.62.308 2.177 5.359 8.867 13.986 6.689 8.627 7.37 8.158 11.5 7.234z" opacity=".6"/><path fill="url(#paint6_linear_3485_9762)" d="M30.487 48.586l18.085-18.262V21.45L30.487 39.71v8.876z"/><path fill="url(#paint7_linear_3485_9762)" d="M30.488 48.586L12.402 30.324V21.45L30.488 39.71v8.876z"/><path fill="url(#paint8_linear_3485_9762)" d="M30.487 48.586l18.085-18.262V21.45L30.487 39.71v8.876z"/><path fill="url(#paint9_linear_3485_9762)" d="M48.573 30.295l-8.95-9.015v-8.864l8.95 9.014v8.865z"/><path fill="url(#paint10_linear_3485_9762)" d="M30.488 48.586L12.402 30.324V21.45L30.488 39.71v8.876z"/><path fill="url(#paint11_linear_3485_9762)" d="M30.524 21.565L21.352 30.8v8.869l9.172-9.236v-8.868z"/><path fill="url(#paint12_linear_3485_9762)" d="M30.488 21.565l9.135 9.235v8.869l-9.135-9.236v-8.868z"/><path fill="url(#paint13_linear_3485_9762)" d="M12.402 30.295l8.95-9.015v-8.864l-8.95 9.014v8.865z"/><path fill="#D28A1C" d="M30.45 30.52l9.173-9.236v-8.868L30.45 21.65v8.869z"/><path fill="#FFAA27" d="M30.488 30.52l-9.136-9.236v-8.868l9.136 9.235v8.869z"/><g style="mix-blend-mode:overlay"><path fill="url(#paint14_linear_3485_9762)" fill-rule="evenodd" d="M21.15 11.951l9.344 9.345 9.345-9.345v9.484l-4.398 4.607 4.398 4.816v9.482l-9.345-9.345-9.345 9.345v-9.483l4.502-4.815-4.502-4.606v-9.485zm.387.936v8.391l4.65 4.758-4.65 4.974v8.394l8.957-8.957 8.957 8.957v-8.395l-4.54-4.973 4.54-4.757v-8.392l-8.957 8.957-8.957-8.957z" clip-rule="evenodd"/></g></g></g><defs><linearGradient id="paint0_linear_3485_9762" x1="67.317" x2="30" y1="-10.61" y2="66.463" gradientUnits="userSpaceOnUse"><stop offset=".141" stop-color="#FDEBEE"/><stop offset=".504" stop-color="#4D259B"/><stop offset=".715" stop-color="#291D99"/><stop offset="1" stop-color="#120C40"/></linearGradient><linearGradient id="paint1_linear_3485_9762" x1="51.451" x2="6.181" y1="6.477" y2="50.86" gradientUnits="userSpaceOnUse"><stop stop-color="#CABFFF"/><stop offset=".504" stop-color="#4D259B"/><stop offset=".715" stop-color="#291D99"/><stop offset="1" stop-color="#120C40"/></linearGradient><linearGradient id="paint2_linear_3485_9762" x1="46.463" x2="5.244" y1="2.927" y2="53.658" gradientUnits="userSpaceOnUse"><stop stop-color="#7D51A3"/><stop offset="1" stop-color="#3A28EE"/></linearGradient><linearGradient id="paint3_linear_3485_9762" x1="49.024" x2="44.878" y1="16.341" y2="50.854" gradientUnits="userSpaceOnUse"><stop stop-color="#fff"/><stop offset="1" stop-color="#8447FF"/></linearGradient><linearGradient id="paint4_linear_3485_9762" x1="14.756" x2="8.292" y1="48.781" y2="6.585" gradientUnits="userSpaceOnUse"><stop stop-color="#5C4CF2"/><stop offset="1" stop-color="#8647FF"/></linearGradient><linearGradient id="paint5_linear_3485_9762" x1="30.657" x2="13.736" y1="27.398" y2="50.282" gradientUnits="userSpaceOnUse"><stop stop-opacity=".71"/><stop offset=".979" stop-opacity="0"/></linearGradient><linearGradient id="paint6_linear_3485_9762" x1="30.487" x2="48.572" y1="35.017" y2="35.017" gradientUnits="userSpaceOnUse"><stop stop-color="#A5ABB2"/><stop offset=".21" stop-color="#9FA5AC"/><stop offset=".49" stop-color="#8C939A"/><stop offset=".83" stop-color="#6F767E"/><stop offset="1" stop-color="#5D656D"/></linearGradient><linearGradient id="paint7_linear_3485_9762" x1="12.402" x2="30.488" y1="35.017" y2="35.017" gradientUnits="userSpaceOnUse"><stop stop-color="#3E4147"/><stop offset=".3" stop-color="#44474D"/><stop offset=".71" stop-color="#56585F"/><stop offset="1" stop-color="#67686F"/></linearGradient><linearGradient id="paint8_linear_3485_9762" x1="74.503" x2="24.552" y1="8.16" y2="55.553" gradientUnits="userSpaceOnUse"><stop stop-color="#FFAA27"/><stop offset=".21" stop-color="#FFAA27"/><stop offset=".49" stop-color="#FFAA27"/><stop offset=".855" stop-color="#5547BF"/><stop offset="1" stop-color="#180D65"/></linearGradient><linearGradient id="paint9_linear_3485_9762" x1="39.375" x2="48.542" y1="17.001" y2="24.124" gradientUnits="userSpaceOnUse"><stop stop-color="#fff"/><stop offset="1" stop-color="#FFC772" stop-opacity=".47"/></linearGradient><linearGradient id="paint10_linear_3485_9762" x1="-5.151" x2="29.465" y1="3.905" y2="44.162" gradientUnits="userSpaceOnUse"><stop stop-color="#FFAA27"/><stop offset=".21" stop-color="#FFAA27"/><stop offset=".49" stop-color="#FFAA27"/><stop offset="1" stop-color="#8679E8"/></linearGradient><linearGradient id="paint11_linear_3485_9762" x1="21.136" x2="28.026" y1="36.573" y2="30.425" gradientUnits="userSpaceOnUse"><stop stop-color="#fff"/><stop offset="1" stop-color="#FFC772" stop-opacity=".63"/></linearGradient><linearGradient id="paint12_linear_3485_9762" x1="41.126" x2="33.5" y1="35.288" y2="28.559" gradientUnits="userSpaceOnUse"><stop stop-color="#fff"/><stop offset="1" stop-color="#FFC772" stop-opacity=".63"/></linearGradient><linearGradient id="paint13_linear_3485_9762" x1="21.563" x2="10.866" y1="15.472" y2="24.631" gradientUnits="userSpaceOnUse"><stop stop-color="#fff"/><stop offset="1" stop-color="#FFC772" stop-opacity=".63"/></linearGradient><linearGradient id="paint14_linear_3485_9762" x1="30.494" x2="30.494" y1="12.419" y2="39.872" gradientUnits="userSpaceOnUse"><stop stop-color="#fff"/><stop offset="1" stop-color="#B2A3FF"/></linearGradient><clipPath id="clip0_3485_9762"><path fill="#fff" d="M0 0h60v60H0z"/></clipPath><clipPath id="clip1_3485_9762"><path fill="#fff" d="M0 0h60v60H0z"/></clipPath></defs></svg>