<svg xmlns="http://www.w3.org/2000/svg" viewBox="0 0 128 128"><path d="M64 128c35.346 0 64-28.654 64-64S99.346 0 64 0 0 28.654 0 64s28.654 64 64 64"/><path fill="#31CECE" d="M48.134 48.056c-2.047-.868-3.706-.019-4.327.388-.617.406-2.062 1.593-2.062 3.805v25.976a9.1 9.1 0 0 1-.798 3.725 9.1 9.1 0 0 1-2.26 3.074l-9.983 8.868a.424.424 0 0 1-.704-.319V52.649c0-5.637 2.419-11.092 6.848-14.616a18.34 18.34 0 0 1 8.985-3.862 18.4 18.4 0 0 1 9.699 1.3l27.911 11.854a.425.425 0 0 1 .133.694c-2.023 1.98-10.643 9.716-18.78 6.26zM66.196 73.72C58.06 70.264 49.442 78 47.419 79.98a.428.428 0 0 0 .131.695l27.913 11.852a18.38 18.38 0 0 0 18.69-2.556C98.575 86.449 101 80.994 101 75.357v-40.93a.427.427 0 0 0-.71-.319l-9.982 8.868a9.1 9.1 0 0 0-2.26 3.074 9.1 9.1 0 0 0-.8 3.724v25.977c0 2.212-1.438 3.4-2.06 3.806s-2.281 1.256-4.329.387z"/></svg>
