<svg xmlns="http://www.w3.org/2000/svg" width="24" height="24" data-name="Group 21126"><defs><linearGradient id="a" x1=".5" x2=".5" y2="1" gradientUnits="objectBoundingBox"><stop offset="0" stop-color="#2464f4"/><stop offset="1" stop-color="#1db2d5"/></linearGradient></defs><circle cx="12" cy="12" r="12" data-name="Ellipse 528" style="fill:#fff"/><path d="M766.125 725.606" data-name="Path 11312" style="fill:url(#a);opacity:.3" transform="translate(-753.615 -721.683)"/><path d="M765.979 725.607" data-name="Path 11314" style="opacity:.4;fill:url(#a)" transform="translate(-753.483 -721.683)"/><g data-name="Group 15189"><path d="M587.236 578.9a9.8 9.8 0 0 0-2.9-2.021 2.7 2.7 0 0 0 .273-.943l-.047-.021a8 8 0 0 1-.514.844 11 11 0 0 1-.673.873l.555.006a5.03 5.03 0 0 1-2.705 2.119c-.005.456-.7 1.262-.7 1.262a7.3 7.3 0 0 0 2.228-1.085c4.791.22 5.96 3.026 6.288 3.556.047.076.01.146 0 .134a4.4 4.4 0 0 0-2.727-2.105l.507.625a11.4 11.4 0 0 0-4.034-1.089 9.2 9.2 0 0 1 5.148 2.963 9.06 9.06 0 0 1 1.767 4.044q.017.12.021.186a9.8 9.8 0 0 0 .328-2.457 9.65 9.65 0 0 0-2.815-6.891m-5.2-2.734-.139-.024-.12-.019h-.017l-.214-.03h-.014l-.118-.014-.231-.023h-.028l-.087-.007q-.137-.011-.276-.018c-.08 0-.161-.007-.241-.009h-.382q-.186 0-.371.012l-.122.007a9.76 9.76 0 0 0-8.8 7.183 9.9 9.9 0 0 0-.325 2.535 4 4 0 0 0 .03.562 2 2 0 0 0 .056.245l.008.027a6.7 6.7 0 0 0 .661 1.413 8 8 0 0 0 .552.836 4 4 0 0 0 .271.331l.029.033.036.039.1.109.022.023a6.2 6.2 0 0 0 1.713 1.22 8.3 8.3 0 0 0 3.119.813 7.5 7.5 0 0 0 1.13-.008h.056a4.6 4.6 0 0 0 1.19-.251 2.8 2.8 0 0 0 .894-.465 3.5 3.5 0 0 0 .856-.912 3.26 3.26 0 0 0 .54-1.716 3.605 3.605 0 0 0-3.45-3.2 4 4 0 0 0-.2-.014h-.378l-.111.005-.095.007-.083.008a3 3 0 0 0-.166.02q-.213.029-.431.078c-1.335.306-.871 1.376-.855 1.412a4.4 4.4 0 0 1-.928-.187h-.014l-.059-.021a2.5 2.5 0 0 1-.872-.514l-.024-.023a2.4 2.4 0 0 1-.418-.552 6 6 0 0 0-.534.376 7 7 0 0 1-.079-2.077c.162-.784 1.411-1.728 1.411-1.728s-.156.805.56.813 1.551-1.119 1.583-1.021.685.106.685.106-.294 0-.549-.528.538-1.3 1.851-1.77a6.74 6.74 0 0 0 2.34-1.6c.326.037.414.95.414.95a10 10 0 0 0 2.313-1.942 9.7 9.7 0 0 0-1.688-.492zm-3.392 4.14c-.668.26-.584.72-.584.72a1.8 1.8 0 0 0 1.09-.216 2.1 2.1 0 0 0 .819-1.126 13 13 0 0 1-1.324.616zm-4.289 2.553c-.2-.067-.462.168-.584.527a1 1 0 0 0-.054.473 1 1 0 0 1 .051-.21c.123-.359.384-.595.584-.527a.34.34 0 0 1 .195.3c.042-.276-.031-.51-.191-.564zm4.288-2.553c-.668.26-.584.72-.584.72a1.8 1.8 0 0 0 1.09-.216 2.1 2.1 0 0 0 .819-1.126 13 13 0 0 1-1.323.616zm-4.288 2.553c-.2-.067-.462.168-.584.527a1 1 0 0 0-.054.473 1 1 0 0 1 .051-.21c.123-.359.384-.595.584-.527a.34.34 0 0 1 .195.3c.042-.276-.031-.51-.191-.564zm4.288-2.553c-.668.26-.584.72-.584.72a1.8 1.8 0 0 0 1.09-.216 2.1 2.1 0 0 0 .819-1.126 13 13 0 0 1-1.323.616zm-4.289 2.553c-.2-.067-.462.168-.584.527a1 1 0 0 0-.054.473 1 1 0 0 1 .051-.21c.123-.359.384-.595.584-.527a.34.34 0 0 1 .195.3c.043-.276-.03-.51-.19-.564z" data-name="Path 11311" style="fill:#8045ff" transform="translate(-568.301 -573.665)"/><g data-name="Group 15188"><path d="M586.881 735.552a6.06 6.06 0 0 1-3.519 2.241q-.369.078-.743.124l-.1.012-.1.01h-.029a11.35 11.35 0 0 1-5.116-.708 8.4 8.4 0 0 1-1.623-.837 10 10 0 0 1-1.509-1.249 10.84 10.84 0 0 1-2.788-6.261 2 2 0 0 0 .056.245 6.6 6.6 0 0 0 .669 1.44 8 8 0 0 0 .551.836 4 4 0 0 0 .271.331l.029.032.036.04.1.109.022.023a6.2 6.2 0 0 0 1.713 1.219 8.3 8.3 0 0 0 3.118.814 7.5 7.5 0 0 0 1.13-.008h.056a4.7 4.7 0 0 0 1.19-.251 2.8 2.8 0 0 0 .894-.465 3.5 3.5 0 0 0 .856-.912 3.26 3.26 0 0 0 .54-1.716c.018-1.519-1.61-3.245-3.893-3.223h-.264l-.107.009c-.059 0-.118.011-.177.019h-.013q-.223.03-.454.082c-.78.179-.946.619-.946.961a1.2 1.2 0 0 0 .091.453h-.007a4.4 4.4 0 0 1-.928-.187h-.014l-.059-.021a2.5 2.5 0 0 1-.871-.514l-.024-.023a2 2 0 0 1-.24-.274 3 3 0 0 1-.178-.278 8.2 8.2 0 0 1 4.075-1.259l.148-.006q.3-.01.611 0 .482.015.967.077a8 8 0 0 1 1.442.3h.005a3.3 3.3 0 0 0-.418-.587c-.2-.231-.72-.838-1.065-.832l.1-.006q.317-.015.639 0a7.34 7.34 0 0 1 5.426 2.63l.026.028.032.041a7.8 7.8 0 0 1 .952 1.644 9.3 9.3 0 0 1 .482 2.149 5.22 5.22 0 0 1-1.042 3.748" data-name="Path 11313" style="fill:#522f9e" transform="translate(-569.072 -716.243)"/><path d="M652.45 735.552a6.06 6.06 0 0 1-3.519 2.241q-.369.078-.743.124l-.1.012-.1.01h-.029l-.2.018a11 11 0 0 1-1.988-.027 8.6 8.6 0 0 1-2.926-.7l-.076-.04c.124-.006.253 0 .379 0a6.77 6.77 0 0 0 4.5-1.778 6.1 6.1 0 0 0 2.142-4.448q0-.261-.024-.522l-.008-.08-.033.074a3.42 3.42 0 0 1-2.107 1.894l-.022.007a3 3 0 0 0 .42-.886 3.3 3.3 0 0 0 .135-.837 3.63 3.63 0 0 0-3.585-3.214h-.567l-.107.009q-.088.007-.177.019h-.013c-.151.02-.3.047-.46.083-1.334.305-.87 1.376-.855 1.412a2.64 2.64 0 0 1-2.325-1.306 8.2 8.2 0 0 1 4.081-1.259l.149-.006q.3-.01.611 0 .479.016.961.077a8 8 0 0 1 1.447.3 3.4 3.4 0 0 0-.418-.587c-.2-.229-.714-.83-1.059-.832h-.009l.108-.006q.318-.015.639 0a7.34 7.34 0 0 1 5.42 2.63l.026.028.038.041a4.9 4.9 0 0 1 .952 1.644 9.3 9.3 0 0 1 .482 2.149 5.22 5.22 0 0 1-1.04 3.756" data-name="Path 11315" style="fill:#391a7d;opacity:.7" transform="translate(-634.641 -716.243)"/></g></g></svg>