<svg xmlns="http://www.w3.org/2000/svg" width="100" height="100" fill="none"><path fill="#295B7D" d="M100 50c0 27.614-22.386 50-50 50S0 77.614 0 50 22.386 0 50 0s50 22.386 50 50"/><path fill="#1F282F" fill-rule="evenodd" d="M50 95.313c25.025 0 45.313-20.288 45.313-45.313S75.025 4.688 50 4.688 4.688 24.975 4.688 50 24.975 95.313 50 95.313M50 100c27.614 0 50-22.386 50-50S77.614 0 50 0 0 22.386 0 50s22.386 50 50 50" clip-rule="evenodd"/><path fill="#B7EEFA" d="m49.936 29-5.952 6.056 5.951 6.056 5.952-6.056z"/><path fill="#B7EEFA" d="m30.058 41.55-6.34-6.167V65.81h7.5V52.689a89 89 0 0 0 17.149 10.83A88 88 0 0 0 71.855 71l.845-5.19h3.519V42.882h-7.5v19.716A80.6 80.6 0 0 1 51.57 56.61h-.002a76 76 0 0 1-2.681-1.354l-.003-.002-.003-.001A81.8 81.8 0 0 1 30.058 41.55"/></svg>