<svg xmlns="http://www.w3.org/2000/svg" id="Layer_2" data-name="Layer 2" viewBox="0 0 159 159"><defs><style>.cls-1{fill:#161616}</style></defs><g id="Layer_1-2" data-name="Layer 1"><circle cx="79.5" cy="79.5" r="78" style="fill:#06fc99;stroke:#06fc99;stroke-width:3px"/><path d="M51.85 40.01h9.87v9.87h-9.87zM61.73 51.85h9.87v15.8h-9.87zM71.6 65.68h9.87v15.8H71.6zM95.3 69.63h9.87v3.95H95.3zM105.17 65.68h9.87v3.95h-9.87zM115.04 61.73h9.87v3.95h-9.87zM85.42 73.58h9.87v3.95h-9.87z" class="cls-1"/><path d="M75.55 77.53h9.87v3.95h-9.87z" class="cls-1"/><path d="M65.68 81.47h9.87v3.95h-9.87zM55.8 85.42h9.87v3.95H55.8zM45.93 89.37h9.87v3.95h-9.87zM36.06 93.32h9.87v3.95h-9.87zM81.47 75.55h9.87v15.8h-9.87zM91.35 89.37h9.87v15.8h-9.87zM101.22 89.37h9.87v9.87h-9.87zM101.22 40.01h9.87v9.87h-9.87zM51.85 49.88h9.87v9.87h-9.87zM101.22 49.88h9.87v9.87h-9.87zM51.85 59.75h9.87v9.87h-9.87zM101.22 59.75h9.87v9.87h-9.87zM51.85 69.63h9.87v9.87h-9.87zM101.22 69.63h9.87v9.87h-9.87z" class="cls-1"/><path d="M51.85 79.5h9.87v9.87h-9.87zM101.22 79.5h9.87v9.87h-9.87zM51.85 89.37h9.87v9.87h-9.87zM101.22 89.37h9.87v9.87h-9.87zM51.85 99.25h9.87v9.87h-9.87zM101.22 99.25h9.87v9.87h-9.87zM51.85 109.12h9.87v9.87h-9.87zM101.22 109.12h9.87v9.87h-9.87z" class="cls-1"/></g></svg>