<?xml version="1.0" encoding="UTF-8"?>
<svg id="Layer_2" data-name="Layer 2" xmlns="http://www.w3.org/2000/svg" viewBox="0 0 159 159">
  <defs>
    <style>
      .cls-1 {
        fill: #161616;
      }

      .cls-2 {
        fill: #06fc99;
        stroke: #06fc99;
        stroke-width: 3px;
      }
    </style>
  </defs>
  <g id="Layer_1-2" data-name="Layer 1">
    <g>
      <circle class="cls-2" cx="79.5" cy="79.5" r="78"/>
      <rect class="cls-1" x="51.85" y="40.01" width="9.87" height="9.87"/>
      <rect class="cls-1" x="61.73" y="51.85" width="9.87" height="15.8"/>
      <rect class="cls-1" x="71.6" y="65.68" width="9.87" height="15.8"/>
      <rect class="cls-1" x="95.3" y="69.63" width="9.87" height="3.95"/>
      <rect class="cls-1" x="105.17" y="65.68" width="9.87" height="3.95"/>
      <rect class="cls-1" x="115.04" y="61.73" width="9.87" height="3.95"/>
      <rect class="cls-1" x="85.42" y="73.58" width="9.87" height="3.95"/>
      <rect class="cls-1" x="75.55" y="77.53" width="9.87" height="3.95"/>
      <rect class="cls-1" x="65.68" y="81.47" width="9.87" height="3.95"/>
      <rect class="cls-1" x="55.8" y="85.42" width="9.87" height="3.95"/>
      <rect class="cls-1" x="45.93" y="89.37" width="9.87" height="3.95"/>
      <rect class="cls-1" x="36.06" y="93.32" width="9.87" height="3.95"/>
      <rect class="cls-1" x="81.47" y="75.55" width="9.87" height="15.8"/>
      <rect class="cls-1" x="91.35" y="89.37" width="9.87" height="15.8"/>
      <rect class="cls-1" x="101.22" y="89.37" width="9.87" height="9.87"/>
      <rect class="cls-1" x="101.22" y="40.01" width="9.87" height="9.87"/>
      <rect class="cls-1" x="51.85" y="49.88" width="9.87" height="9.87"/>
      <rect class="cls-1" x="101.22" y="49.88" width="9.87" height="9.87"/>
      <rect class="cls-1" x="51.85" y="59.75" width="9.87" height="9.87"/>
      <rect class="cls-1" x="101.22" y="59.75" width="9.87" height="9.87"/>
      <rect class="cls-1" x="51.85" y="69.63" width="9.87" height="9.87"/>
      <rect class="cls-1" x="101.22" y="69.63" width="9.87" height="9.87"/>
      <rect class="cls-1" x="51.85" y="79.5" width="9.87" height="9.87"/>
      <rect class="cls-1" x="101.22" y="79.5" width="9.87" height="9.87"/>
      <rect class="cls-1" x="51.85" y="89.37" width="9.87" height="9.87"/>
      <rect class="cls-1" x="101.22" y="89.37" width="9.87" height="9.87"/>
      <rect class="cls-1" x="51.85" y="99.25" width="9.87" height="9.87"/>
      <rect class="cls-1" x="101.22" y="99.25" width="9.87" height="9.87"/>
      <rect class="cls-1" x="51.85" y="109.12" width="9.87" height="9.87"/>
      <rect class="cls-1" x="101.22" y="109.12" width="9.87" height="9.87"/>
    </g>
  </g>
</svg>