<svg xmlns="http://www.w3.org/2000/svg" id="uuid-2d8fdbea-3d94-425b-b50e-ef4d3d9b421f" data-name="Layer 2" viewBox="0 0 442.29 442.29"><defs><radialGradient id="uuid-81d2c9eb-944e-488f-afc2-54c5a9e90d66" cx="220.674" cy="221.135" r="147.499" fx="252.441" fy="181.696" gradientUnits="userSpaceOnUse"><stop offset=".497" stop-color="#97e8ff"/><stop offset=".64" stop-color="#94e6ff"/><stop offset=".74" stop-color="#8be2ff"/><stop offset=".828" stop-color="#7bdaff"/><stop offset=".907" stop-color="#65d0ff"/><stop offset=".981" stop-color="#49c3ff"/><stop offset="1" stop-color="#41bfff"/></radialGradient><style>.uuid-1bb49c13-ee6d-48c5-b467-9a5c59f99728,.uuid-2c610afb-03b3-41ae-a4e4-5cfe9ac16931,.uuid-89b6b89f-dc68-48e0-bec2-83bc3b733c32,.uuid-94b9eb11-408e-4df7-9f54-a3ae4e7ac1af{stroke:#000;stroke-miterlimit:10}.uuid-2c610afb-03b3-41ae-a4e4-5cfe9ac16931,.uuid-89b6b89f-dc68-48e0-bec2-83bc3b733c32,.uuid-94b9eb11-408e-4df7-9f54-a3ae4e7ac1af{stroke-width:2px}.uuid-7d863121-9277-44d2-b3b2-2f183a59356b,.uuid-94b9eb11-408e-4df7-9f54-a3ae4e7ac1af{fill:#fff}.uuid-1bb49c13-ee6d-48c5-b467-9a5c59f99728,.uuid-2c610afb-03b3-41ae-a4e4-5cfe9ac16931{fill:none;stroke-linecap:round}.uuid-4333c504-0133-4aa3-bb2a-098e9dda1d7d,.uuid-7d863121-9277-44d2-b3b2-2f183a59356b{stroke-width:0}</style></defs><circle cx="221.145" cy="221.145" r="220.145" class="uuid-94b9eb11-408e-4df7-9f54-a3ae4e7ac1af"/><path d="M422.13 221.145c0 111.001-89.984 200.985-200.985 200.985S20.16 332.146 20.16 221.145" class="uuid-94b9eb11-408e-4df7-9f54-a3ae4e7ac1af"/><path d="M20.16 221.145c0-111.001 89.984-200.985 200.985-200.985S422.13 110.144 422.13 221.145" class="uuid-89b6b89f-dc68-48e0-bec2-83bc3b733c32"/><path d="m100.006 119.775-20.424-17.967 2.429-2.761 20.423 17.965-2.429 2.763ZM107.284 99.225l2.52-2.402q1.47 1.437 2.991 1.893 1.521.457 3.504-.101 1.984-.557 3.832-2.041 1.641-1.318 2.514-2.804t.818-2.811-.844-2.308q-.802-.998-1.992-1.269t-2.956.315q-1.139.369-4.688 2.063-3.55 1.697-5.247 2.036-2.19.449-3.899-.119-1.708-.568-2.881-2.029-1.29-1.605-1.479-3.749-.19-2.146 1.018-4.304 1.208-2.16 3.395-3.916 2.41-1.935 4.86-2.653t4.625-.037 3.748 2.487l-2.587 2.41q-1.837-1.833-3.94-1.833c-2.103 0-2.936.668-4.602 2.004q-2.602 2.09-3.042 3.978t.616 3.205q.918 1.144 2.353 1.204 1.42.074 5.538-1.959t5.883-2.499q2.578-.665 4.531-.08t3.323 2.293q1.36 1.692 1.571 3.985c.211 2.293-.184 3.067-.975 4.614q-1.188 2.321-3.508 4.186-2.943 2.36-5.604 3.118-2.663.757-5.146-.02-2.484-.78-4.251-2.858ZM136.08 57.11l3.214-1.788 7.641 13.733q1.993 3.585 2.338 6.152.344 2.569-1.083 5.093-1.426 2.525-4.938 4.479-3.412 1.9-6.223 1.956t-4.952-1.61q-2.14-1.663-4.243-5.442l-7.641-13.733 3.214-1.788 7.632 13.717q1.723 3.095 3.128 4.237 1.404 1.139 3.279 1.137t3.945-1.156q3.545-1.972 4.178-4.383t-1.857-6.887zM157.156 76.838l-9.644-25.434 9.802-3.717q2.589-.981 4.045-1.256 2.033-.415 3.659-.028t3.014 1.665c1.388 1.279 1.626 1.91 2.104 3.17q1.23 3.244-.027 6.291-1.258 3.048-6.771 5.137l-6.665 2.527 3.921 10.34zm-1.621-14.646 6.718-2.548q3.333-1.264 4.272-3.009t.104-3.949q-.605-1.596-1.86-2.42a4.13 4.13 0 0 0-2.74-.677q-.955.103-3.294.991l-6.647 2.52zM180.655 68.341l-5.646-26.609 10.255-2.176q2.707-.574 4.189-.624 2.071-.098 3.621.531 1.548.63 2.724 2.105 1.175 1.477 1.595 3.456.72 3.394-.988 6.213t-7.476 4.042l-6.973 1.479 2.296 10.817-3.598.764Zm.635-14.72 7.028-1.493q3.487-.74 4.682-2.32 1.195-1.582.706-3.887-.354-1.67-1.469-2.677a4.12 4.12 0 0 0-2.604-1.087q-.96-.042-3.407.476l-6.954 1.476zM203.391 50.214q-.285-6.766 3.266-10.75 3.55-3.986 9.422-4.234 3.845-.163 7.008 1.506 3.163 1.667 4.919 4.815t1.928 7.227q.174 4.133-1.393 7.469-1.567 3.334-4.621 5.145t-6.672 1.961q-3.921.166-7.086-1.557-3.166-1.724-4.893-4.863a15.1 15.1 0 0 1-1.878-6.719m3.791-.103q.208 4.912 3.025 7.625 2.818 2.713 6.891 2.542 4.147-.176 6.708-3.144 2.559-2.968 2.338-8.213-.141-3.32-1.391-5.745-1.251-2.427-3.515-3.696-2.263-1.268-5.01-1.154-3.901.166-6.604 2.907-2.702 2.742-2.442 8.879ZM234.263 62.702l3.562-26.967 12.216 1.613q3.683.487 5.505 1.466 1.82.982 2.725 2.971.904 1.991.608 4.216-.378 2.87-2.537 4.587-2.157 1.719-6.193 1.729 1.356.871 2.021 1.632 1.407 1.646 2.552 3.986l3.823 7.974-4.586-.606-2.904-6.092q-1.277-2.639-2.141-4.062-.863-1.425-1.613-2.048a5.6 5.6 0 0 0-1.568-.937q-.603-.21-2.013-.396l-4.229-.559-1.582 11.974zm5.636-14.585 7.837 1.035q2.5.331 3.976.01 1.477-.318 2.356-1.335a4.35 4.35 0 0 0 1.053-2.321q.253-1.914-1.004-3.333-1.256-1.42-4.319-1.824l-8.72-1.152zM267.15 68.617l6.685-23.041-8.794-2.551.895-3.083 21.156 6.138-.895 3.083-8.83-2.562-6.686 23.041zM296.845 80.183 308 58.943l-8.106-4.257 1.493-2.842 19.502 10.244-1.493 2.841-8.14-4.274L300.1 81.893l-3.255-1.709ZM310.73 87.752l16.317-21.762 2.942 2.206-6.701 8.937 11.558 8.665 6.701-8.937 2.942 2.207-16.318 21.763-2.942-2.206 7.691-10.258-11.557-8.666-7.691 10.258-2.942-2.206ZM332.014 104.363l19.735-18.721 13.829 14.58-2.329 2.208-11.298-11.911-6.045 5.733 10.581 11.154-2.316 2.196-10.58-11.155-6.717 6.372 11.741 12.379-2.329 2.208-14.272-15.046Z" class="uuid-7d863121-9277-44d2-b3b2-2f183a59356b"/><path d="m101.527 353.589 1.911 3.184q-3.931 2.345-7.657 1.922t-6.739-3.421q-3.118-3.1-3.808-6.314t.685-6.634q1.376-3.421 4.124-6.184 2.997-3.012 6.379-4.109c3.382-1.097 4.477-.781 6.665-.148q3.282.95 5.834 3.488 2.893 2.88 3.401 6.315.507 3.436-1.374 6.878l-3.101-1.907q1.423-2.773 1.103-5.002-.32-2.23-2.254-4.153-2.223-2.212-4.776-2.632t-4.944.773a16.2 16.2 0 0 0-4.289 3.101q-2.448 2.46-3.556 5.008t-.499 4.961a8.8 8.8 0 0 0 2.372 4.166q2.144 2.133 4.86 2.376 2.716.241 5.664-1.668ZM133.318 355.804l2.924 2.1-9.168 12.765q-2.392 3.332-4.553 4.749c-2.161 1.417-3.11 1.356-5.009 1.233q-2.849-.184-6.044-2.479-3.104-2.23-4.31-4.718t-.594-5.121q.61-2.634 3.134-6.145l9.167-12.765 2.924 2.1-9.157 12.75q-2.067 2.878-2.512 4.626t.329 3.423 2.657 3.028q3.225 2.316 5.646 1.839t5.409-4.636zM127.948 384.571l12.124-24.35 10.796 5.375q3.255 1.621 4.623 3.121c1.368 1.5 1.429 2.222 1.554 3.665q.186 2.165-.814 4.175-1.29 2.591-3.853 3.533-2.562.942-6.307-.321.972 1.252 1.34 2.181.767 1.998 1.062 4.57l.936 8.736-4.053-2.019-.7-6.67q-.32-2.896-.655-4.513-.336-1.618-.826-2.442a5.4 5.4 0 0 0-1.147-1.38q-.49-.39-1.736-1.01l-3.737-1.86-5.384 10.812-3.222-1.604Zm9.995-11.999 6.926 3.449q2.21 1.099 3.682 1.263 1.473.164 2.622-.519a4.4 4.4 0 0 0 1.735-1.861q.86-1.728.16-3.465-.7-1.738-3.408-3.085l-7.707-3.838zM155.356 397.422l8.033-25.987 11.523 3.562q3.474 1.074 5.066 2.333t2.125 3.366-.129 4.252q-.855 2.766-3.231 4.109-2.377 1.344-6.276.701 1.163 1.078 1.674 1.935 1.078 1.848 1.785 4.34l2.334 8.47-4.325-1.337-1.768-6.47q-.783-2.805-1.375-4.348t-1.209-2.277a5.5 5.5 0 0 0-1.355-1.177q-.547-.304-1.876-.716l-3.989-1.232-3.567 11.54-3.439-1.063Zm7.928-13.455 7.392 2.285q2.357.729 3.838.652c1.481-.077 1.821-.362 2.503-.936a4.4 4.4 0 0 0 1.412-2.117q.57-1.843-.401-3.445-.972-1.6-3.861-2.494l-8.225-2.543zM184.365 405.592l3.908-26.919 19.464 2.825-.461 3.177-15.902-2.309-1.197 8.245 14.892 2.162-.458 3.158-14.892-2.162-1.33 9.163 16.526 2.398-.461 3.177zM212.179 409.106l-.441-27.197 3.692-.061 14.631 21.122-.346-21.354 3.45-.056.441 27.197-3.692.061-14.631-21.141.346 21.372-3.451.056ZM248.885 406.912l-3.735-23.698-8.853 1.396-.5-3.171 21.298-3.357.499 3.171-8.889 1.401 3.735 23.698-3.556.561ZM292.72 384.681l3.688-.434q.524 4.548-1.395 7.771c-1.919 3.223-3.241 3.729-5.888 4.738q-4.109 1.567-7.321.877-3.212-.691-5.767-3.352-2.554-2.659-3.942-6.3-1.515-3.97-1.125-7.505.389-3.533 2.604-6.137 2.215-2.601 5.577-3.886 3.815-1.455 7.155-.505c3.34.95 4.13 1.992 5.707 4.078l-3.014 2.044q-1.943-2.437-4.106-3.061-2.165-.624-4.713.348-2.93 1.118-4.362 3.272-1.431 2.156-1.326 4.826c.105 2.67.425 3.509 1.064 5.184q1.236 3.243 3.104 5.3t4.317 2.494q2.451.435 4.773-.451 2.825-1.078 4.163-3.455 1.337-2.376.807-5.849ZM298.459 378.215q-3.438-5.835-2.249-10.982 1.188-5.146 6.144-8.067 3.246-1.911 6.765-1.896 3.52.016 6.521 1.984 3.001 1.969 5.073 5.485 2.1 3.564 2.319 7.226t-1.566 6.662q-1.786 3.001-4.839 4.8-3.31 1.95-6.856 1.887-3.548-.063-6.521-2.038c-2.973-1.975-3.578-3.003-4.79-5.06Zm3.226-1.836q2.496 4.236 6.211 5.332 3.714 1.096 7.151-.929 3.5-2.064 4.312-5.857.812-3.795-1.854-8.319-1.686-2.861-3.91-4.426c-2.224-1.565-3.076-1.59-4.779-1.642s-3.327.377-4.873 1.288q-3.293 1.94-4.334 5.601c-1.041 3.661-.002 5.425 2.076 8.952M333.278 371.811l-16.457-21.657 2.866-2.178 16.457 21.657zM342.767 364.645l-18.756-19.701 2.675-2.546 25.073 5.617-14.726-15.468 2.5-2.379 18.755 19.701-2.674 2.546-25.087-5.63 14.738 15.481-2.499 2.379Z" class="uuid-4333c504-0133-4aa3-bb2a-098e9dda1d7d"/><circle cx="220.674" cy="221.135" r="147.499" style="stroke:#000;stroke-miterlimit:10;stroke-width:2px;fill:url(#uuid-81d2c9eb-944e-488f-afc2-54c5a9e90d66)"/><path d="M279.32 301.332c3.125-4.916 7.501-8.906 10.165-16.081.522-1.404 4.723-8.508 5.227-10.044.613-1.866 5.125-10.249 9.863-20.654 5.249-11.525 4.029-26.012 3.857-27.495-.556-4.793-4.852-7.589-3.608-15.925s1.342-18.745-1.446-24.694-5.095-6.366-5.653-14.917-5.314-16.87-7.545-20.03-18.403-25.095-48.145-32.902c-26.795-7.034-48.763-.036-52.852 1.42-.408.145-.804.309-1.197.492-10.253 4.766-20.385 9.805-23.858 11.544-.837.419-1.653.873-2.411 1.421-17.684 12.777-19.621 45.587-19.29 65.602.338 20.441 7.433 31.928 8.784 35.138.963 2.288 5.617 10.84 8.211 15.565a14.24 14.24 0 0 1 1.756 6.854v17.28c-.362 24.521-11.349 38.418-17.58 44.347-2.159 2.054-4.903 3.336-7.847 3.798-4.387.689-11.356 3.972-16.187 6.464 26.404 24.872 61.975 40.121 101.112 40.121 37.294 0 71.349-13.848 97.322-36.673-7.917-3.631-26.587-11.342-39.957-10.093-17.386 1.625-19.257-3.967-19.823-5.525-.932-2.563-.044-7.431-.044-7.431 4.62-.607 18.634-3.624 21.149-7.581Z" style="stroke:#000;stroke-miterlimit:10;stroke-width:2px;fill:#adadad"/><path d="m262.152 219.129 13.914 40.606a.34.34 0 0 1-.32.449l-34.934.067" class="uuid-2c610afb-03b3-41ae-a4e4-5cfe9ac16931"/><circle cx="283.429" cy="213.579" r="5.795" class="uuid-89b6b89f-dc68-48e0-bec2-83bc3b733c32"/><path d="M232.379 279.324h45.966M180.955 232.861s-1.365 16.246 3.14 26.622 25.74 26.579 34.131 35.496c9.606 10.208 20.166 13.575 28.022 14.386 3.254.336 6.954.126 9.354-.142 1.55-.173 2.569-.31 2.569-.31" class="uuid-2c610afb-03b3-41ae-a4e4-5cfe9ac16931"/><path d="M185.21 306.292s-8.705.925-10.55 8.749c-1.756 7.446-6.457 7.07-9.638 7.07M147.062 321.292s-2.032.366-10.248.873M185.21 269.624s3.424 11.64-2.396 21.008M236.045 313.202s.971 3.412 1.845 4.968c2.587 4.606 4.826 3.945 4.826 3.945" class="uuid-1bb49c13-ee6d-48c5-b467-9a5c59f99728"/><circle cx="224.661" cy="213.579" r="5.795" class="uuid-89b6b89f-dc68-48e0-bec2-83bc3b733c32"/><path d="M202.847 331.822s10.728-.575 13.321 5.278c.793 1.79 3.063 2.451 5.021 2.435 2.467-.02 3.827-.943 4.658-2.411 1.258-2.221 4.092-5.04 10.237-4.101" class="uuid-1bb49c13-ee6d-48c5-b467-9a5c59f99728"/></svg>