<?xml version="1.0" encoding="utf-8"?>
<!-- Generator: Adobe Illustrator 25.2.3, SVG Export Plug-In . SVG Version: 6.00 Build 0)  -->
<svg version="1.1" id="Ebene_1" xmlns="http://www.w3.org/2000/svg" xmlns:xlink="http://www.w3.org/1999/xlink" x="0px" y="0px"
	 viewBox="0 0 500 500" style="enable-background:new 0 0 500 500;" xml:space="preserve">
<style type="text/css">
	.st0{fill:#F5DA9B;}
	.st1{fill:#C58A2B;}
	.st2{fill:#F7B727;}
	.st3{fill:#F2C529;}
	.st4{fill:#F6EE23;}
	.st5{fill:#E4B041;}
</style>
<g id="nugget">
	<circle class="st0" cx="250" cy="250" r="249"/>
	<g>
		<g>
			<polygon class="st1" points="369.7,187.9 347.9,267.9 440.1,320.4 424.1,177 			"/>
			<polygon class="st2" points="369,125.2 369,189.2 424.1,177 			"/>
			<polygon class="st2" points="257,148.2 369,189.2 369,125.2 235.9,89.4 			"/>
			<polygon class="st3" points="161,165.5 235.9,89.4 146.3,108.6 			"/>
			<polygon class="st2" points="191.1,242.3 161,165.5 235.9,89.4 218,155.9 255.8,217.4 			"/>
			<polygon class="st4" points="154,228.9 191.1,242.3 161,165.5 146.3,108.6 99.6,162.3 90.6,204.6 56.1,272.4 132.9,257.7 			"/>
			<polygon class="st1" points="108.6,294.2 137.4,282.6 154,294.2 191.1,242.3 154,228.9 132.9,257.7 56.1,272.4 84.9,307 			"/>
			<polygon class="st2" points="132.9,326.8 154,294.2 137.4,282.6 108.6,294.2 84.9,307 84.9,374.8 141.8,401.7 			"/>
			<polygon class="st4" points="302.5,310.2 255.8,217.4 218,155.9 235.9,89.4 257,148.2 369,189.2 347.9,267.9 335.1,292.2 
				348.6,342.2 341.5,368.4 291,356.2 			"/>
			<polygon class="st3" points="251.3,357.5 291,356.2 302.5,310.2 255.8,217.4 191.1,242.3 154,294.2 132.9,326.8 141.8,401.7 			
				"/>
			<polygon class="st1" points="341.5,368.4 337.7,401.7 141.8,401.7 251.3,357.5 291,356.2 			"/>
			<polygon class="st5" points="388.2,361.4 337.7,401.7 341.5,368.4 348.6,342.2 335.1,292.2 347.9,267.9 440.1,320.4 			"/>
		</g>
	</g>
</g>
</svg>
