<svg xmlns="http://www.w3.org/2000/svg" xml:space="preserve" id="Ebene_1" x="0" y="0" version="1.1" viewBox="0 0 500 500"><style>.st1{fill:#c58a2b}.st2{fill:#f7b727}.st3{fill:#f2c529}.st4{fill:#f6ee23}</style><g id="nugget"><circle cx="250" cy="250" r="249" style="fill:#f5da9b"/><path d="m369.7 187.9-21.8 80 92.2 52.5-16-143.4z" class="st1"/><path d="M369 125.2v64l55.1-12.2zM257 148.2l112 41v-64L235.9 89.4z" class="st2"/><path d="m161 165.5 74.9-76.1-89.6 19.2z" class="st3"/><path d="M191.1 242.3 161 165.5l74.9-76.1-17.9 66.5 37.8 61.5z" class="st2"/><path d="m154 228.9 37.1 13.4-30.1-76.8-14.7-56.9-46.7 53.7-9 42.3-34.5 67.8 76.8-14.7z" class="st4"/><path d="m108.6 294.2 28.8-11.6 16.6 11.6 37.1-51.9-37.1-13.4-21.1 28.8-76.8 14.7L84.9 307z" class="st1"/><path d="m132.9 326.8 21.1-32.6-16.6-11.6-28.8 11.6L84.9 307v67.8l56.9 26.9z" class="st2"/><path d="m302.5 310.2-46.7-92.8-37.8-61.5 17.9-66.5 21.1 58.8 112 41-21.1 78.7-12.8 24.3 13.5 50-7.1 26.2-50.5-12.2z" class="st4"/><path d="m251.3 357.5 39.7-1.3 11.5-46-46.7-92.8-64.7 24.9-37.1 51.9-21.1 32.6 8.9 74.9z" class="st3"/><path d="m341.5 368.4-3.8 33.3H141.8l109.5-44.2 39.7-1.3z" class="st1"/><path d="m388.2 361.4-50.5 40.3 3.8-33.3 7.1-26.2-13.5-50 12.8-24.3 92.2 52.5z" style="fill:#e4b041"/></g></svg>