<svg xmlns="http://www.w3.org/2000/svg" fill="none" stroke="currentColor" class="h-6 w-6" viewBox="0 0 24 24"><radialGradient id="a" cx="30%" cy="30%" gradientTransform="matrix(.97172 0 0 .9754 5.344 5.365)" gradientUnits="userSpaceOnUse"><stop offset="0%" stop-color="#00a2e9"/><stop offset="0%" stop-color="#f0f"/><stop offset="100%" stop-color="#734ce2"/></radialGradient><path stroke="url(#a)" stroke-linecap="round" stroke-linejoin="round" stroke-width="1.618" d="M12 8c-1.657 0-3 .895-3 2s1.343 2 3 2 3 .895 3 2-1.343 2-3 2m0-8c1.11 0 2.08.402 2.599 1M12 8V7m0 1v8m0 0v1m0-1c-1.11 0-2.08-.402-2.599-1M21 12a9 9 0 1 1-18 0 9 9 0 0 1 18 0"/></svg>