<svg xmlns="http://www.w3.org/2000/svg" class="h-6 w-6" fill="none" viewBox="0 0 24 24" stroke="currentColor"><radialGradient id="a" cy="30%" cx="30%" gradientUnits="userSpaceOnUse" gradientTransform="matrix(.97172 0 0 .9754 5.344 5.365)"><stop stop-color="#00a2e9" offset="0%"/><stop stop-color="#f0f" offset="0%"/><stop stop-color="#734ce2" offset="100%"/></radialGradient><path stroke-linecap="round" stroke-linejoin="round" stroke-width="1.618" stroke="url(#a)" d="M12 8c-1.657 0-3 .895-3 2s1.343 2 3 2 3 .895 3 2-1.343 2-3 2m0-8c1.11 0 2.08.402 2.599 1M12 8V7m0 1v8m0 0v1m0-1c-1.11 0-2.08-.402-2.599-1M21 12a9 9 0 1 1-18 0 9 9 0 0 1 18 0z"/></svg>