<svg xmlns="http://www.w3.org/2000/svg" width="286" height="288" overflow="hidden"><defs><clipPath id="a"><path d="M480 216h286v288H480z"/></clipPath><clipPath id="b"><path d="M480 216h286v287H480z"/></clipPath></defs><g clip-path="url(#a)" transform="translate(-480 -216)"><g clip-path="url(#b)"><path fill="#E2AD78" d="M544.879 394.323h119.888v33.819h17.205v-16.873h17.24v34.218h-17.24v17.054H562.12v-17.054h-17.388z"/><path fill="#76403D" d="M596.348 275.015h68.492v17.054h34.227v17.019h17.095l-.255 34.471-16.986-.036v16.728h-17.424l-.255-16.692H664.84l-.292 16.692h-16.986v17.018H544.879v-17.091h-17.132v-51.054h17.277v-17.055h34.228v-17.054Z"/><path fill="#BB6F50" d="M596.312 257.997h51.286v17.054h-51.286Z"/><path fill="#211E1F" d="M647.562 365.657v-5.406h16.986v-16.728h16.95v16.728h17.423v-16.728h16.986v-34.399h19.903v102.109h-70.97v-33.964h-17.278zM527.893 292.106h17.131v17.054h-17.131ZM545.024 445.487h17.133v17.054h-17.133ZM562.12 411.233h17.132v17.054h-17.131Z"/><path fill="#F2727A" d="M562.12 428.432h17.132v17.055h-17.131ZM613.48 428.432h17.132v17.055H613.48Z"/><path fill="#211E1F" d="M562.12 394.323h17.132v17.055h-17.131Z"/><path fill="#C48058" d="M544.879 377.269h119.96v17.054H544.88Z"/><path fill="#BB6F50" d="M562.12 326.106h51.36v17.054h-51.36Z"/><path fill="#BB6F50" d="M579.179 309.124h51.36v17.054h-51.36ZM613.48 292.069h34.227v17.055H613.48Z"/><path fill="#211E1F" d="M613.48 411.233h17.132v17.054H613.48Z"/><path fill="#211E1F" d="M613.48 394.323h17.132v17.055H613.48ZM562.12 462.505h119.961v17.054h-119.96ZM544.988 275.015h17.133v17.054h-17.133Z"/><path fill="#211E1F" d="M562.12 275.015h17.132v17.054h-17.131ZM579.252 275.015h17.132v17.054h-17.132Z"/><path fill="#211E1F" d="M579.252 257.997h17.132v17.054h-17.132ZM579.252 240.942h17.132v17.055h-17.132Z"/><path fill="#211E1F" d="M596.348 240.942h17.132v17.055h-17.132ZM613.48 257.997h17.132v17.054H613.48ZM630.576 240.942h17.131v17.055h-17.131ZM647.707 240.942h17.133v17.055h-17.133ZM647.707 257.997h17.133v17.054h-17.133ZM664.84 275.015h17.132v17.054H664.84Z"/><path fill="#211E1F" d="M681.935 275.015h17.132v17.054h-17.132ZM699.067 292.069H716.2v17.055h-17.133ZM682.081 445.487h17.132v17.054H682.08Z"/><path fill="#C48058" d="M647.562 445.487h34.373v17.054h-34.373Z"/><path fill="#211E1F" d="M664.84 411.088h17.132v17.054H664.84ZM699.213 411.233h17.132v34.217h-17.132ZM510.724 309.124h17.023v68h-17.023ZM527.747 360.178h17.022v85.272h-17.022Z"/></g></g></svg>