<svg width="286" height="288" xmlns="http://www.w3.org/2000/svg" xmlns:xlink="http://www.w3.org/1999/xlink" overflow="hidden"><defs><clipPath id="clip0"><rect x="480" y="216" width="286" height="288"/></clipPath><clipPath id="clip1"><rect x="480" y="216" width="286" height="287"/></clipPath></defs><g clip-path="url(#clip0)" transform="translate(-480 -216)"><g clip-path="url(#clip1)"><path d="M161.001 260.86C162.235 260.86 280.346 260.86 280.346 260.86L280.346 294.679 297.473 294.679 297.473 277.806 314.636 277.806 314.636 312.024 297.473 312.024 297.473 329.078 178.165 329.078 178.165 312.024 160.856 312.024 161.001 260.86Z" fill="#E2AD78" fill-rule="nonzero" fill-opacity="1" transform="matrix(1.00455 0 0 1 383.145 133.463)"/><path d="M212.237 141.552 280.419 141.552 280.419 158.606 314.491 158.606 314.491 175.625 331.509 175.625 331.255 210.096 314.346 210.06 314.346 226.788 297.001 226.788 296.747 210.096 280.419 210.096 280.128 226.788 263.219 226.788 263.219 243.806 161.001 243.806 161.001 226.715 143.947 226.715 143.947 175.661 161.146 175.661 161.146 158.606 178.165 158.606 195.219 158.606 195.219 141.552Z" fill="#76403D" fill-rule="nonzero" fill-opacity="1" transform="matrix(1.00455 0 0 1 383.145 133.463)"/><path d="M212.201 124.534 263.255 124.534 263.255 141.588 212.201 141.588Z" fill="#BB6F50" fill-rule="nonzero" fill-opacity="1" transform="matrix(1.00455 0 0 1 383.145 133.463)"/><path d="M263.219 232.194 263.219 226.788 280.128 226.788 280.128 210.06 297.001 210.06 297.001 226.788 314.346 226.788 314.346 210.06 331.255 210.06 331.255 175.661 351.068 175.661 351.068 277.77 280.419 277.77 280.419 243.806 263.219 243.806 263.219 232.194" fill="#211E1F" fill-rule="nonzero" fill-opacity="1" transform="matrix(1.00455 0 0 1 383.145 133.463)"/><path d="M144.092 158.643 161.146 158.643 161.146 175.697 144.092 175.697Z" fill="#211E1F" fill-rule="nonzero" fill-opacity="1" transform="matrix(1.00455 0 0 1 383.145 133.463)"/><path d="M161.146 312.024 178.201 312.024 178.201 329.078 161.146 329.078Z" fill="#211E1F" fill-rule="nonzero" fill-opacity="1" transform="matrix(1.00455 0 0 1 383.145 133.463)"/><path d="M178.165 277.77 195.219 277.77 195.219 294.824 178.165 294.824Z" fill="#211E1F" fill-rule="nonzero" fill-opacity="1" transform="matrix(1.00455 0 0 1 383.145 133.463)"/><path d="M178.165 294.969 195.219 294.969 195.219 312.024 178.165 312.024Z" fill="#F2727A" fill-rule="nonzero" fill-opacity="1" transform="matrix(1.00455 0 0 1 383.145 133.463)"/><path d="M229.292 294.969 246.346 294.969 246.346 312.024 229.292 312.024Z" fill="#F2727A" fill-rule="nonzero" fill-opacity="1" transform="matrix(1.00455 0 0 1 383.145 133.463)"/><path d="M178.165 260.86 195.219 260.86 195.219 277.915 178.165 277.915Z" fill="#211E1F" fill-rule="nonzero" fill-opacity="1" transform="matrix(1.00455 0 0 1 383.145 133.463)"/><path d="M161.001 243.806 280.419 243.806 280.419 260.86 161.001 260.86Z" fill="#C48058" fill-rule="nonzero" fill-opacity="1" transform="matrix(1.00455 0 0 1 383.145 133.463)"/><path d="M178.165 192.643 229.292 192.643 229.292 209.697 178.165 209.697Z" fill="#BB6F50" fill-rule="nonzero" fill-opacity="1" transform="matrix(1.00455 0 0 1 383.145 133.463)"/><path d="M195.146 175.661 246.273 175.661 246.273 192.715 195.146 192.715Z" fill="#BB6F50" fill-rule="nonzero" fill-opacity="1" transform="matrix(1.00455 0 0 1 383.145 133.463)"/><path d="M229.292 158.606 263.364 158.606 263.364 175.661 229.292 175.661Z" fill="#BB6F50" fill-rule="nonzero" fill-opacity="1" transform="matrix(1.00455 0 0 1 383.145 133.463)"/><path d="M229.292 277.77 246.346 277.77 246.346 294.824 229.292 294.824Z" fill="#211E1F" fill-rule="nonzero" fill-opacity="1" transform="matrix(1.00455 0 0 1 383.145 133.463)"/><path d="M229.292 260.86 246.346 260.86 246.346 277.915 229.292 277.915Z" fill="#211E1F" fill-rule="nonzero" fill-opacity="1" transform="matrix(1.00455 0 0 1 383.145 133.463)"/><path d="M178.165 329.042 297.582 329.042 297.582 346.096 178.165 346.096Z" fill="#211E1F" fill-rule="nonzero" fill-opacity="1" transform="matrix(1.00455 0 0 1 383.145 133.463)"/><path d="M161.11 141.552 178.165 141.552 178.165 158.606 161.11 158.606Z" fill="#211E1F" fill-rule="nonzero" fill-opacity="1" transform="matrix(1.00455 0 0 1 383.145 133.463)"/><path d="M178.165 141.552 195.219 141.552 195.219 158.606 178.165 158.606Z" fill="#211E1F" fill-rule="nonzero" fill-opacity="1" transform="matrix(1.00455 0 0 1 383.145 133.463)"/><path d="M195.219 141.552 212.273 141.552 212.273 158.606 195.219 158.606Z" fill="#211E1F" fill-rule="nonzero" fill-opacity="1" transform="matrix(1.00455 0 0 1 383.145 133.463)"/><path d="M195.219 124.534 212.273 124.534 212.273 141.588 195.219 141.588Z" fill="#211E1F" fill-rule="nonzero" fill-opacity="1" transform="matrix(1.00455 0 0 1 383.145 133.463)"/><path d="M195.219 107.479 212.273 107.479 212.273 124.534 195.219 124.534Z" fill="#211E1F" fill-rule="nonzero" fill-opacity="1" transform="matrix(1.00455 0 0 1 383.145 133.463)"/><path d="M212.237 107.479 229.292 107.479 229.292 124.534 212.237 124.534Z" fill="#211E1F" fill-rule="nonzero" fill-opacity="1" transform="matrix(1.00455 0 0 1 383.145 133.463)"/><path d="M229.292 124.534 246.346 124.534 246.346 141.588 229.292 141.588Z" fill="#211E1F" fill-rule="nonzero" fill-opacity="1" transform="matrix(1.00455 0 0 1 383.145 133.463)"/><path d="M246.31 107.479 263.364 107.479 263.364 124.534 246.31 124.534Z" fill="#211E1F" fill-rule="nonzero" fill-opacity="1" transform="matrix(1.00455 0 0 1 383.145 133.463)"/><path d="M263.364 107.479 280.419 107.479 280.419 124.534 263.364 124.534Z" fill="#211E1F" fill-rule="nonzero" fill-opacity="1" transform="matrix(1.00455 0 0 1 383.145 133.463)"/><path d="M263.364 124.534 280.419 124.534 280.419 141.588 263.364 141.588Z" fill="#211E1F" fill-rule="nonzero" fill-opacity="1" transform="matrix(1.00455 0 0 1 383.145 133.463)"/><path d="M280.419 141.552 297.473 141.552 297.473 158.606 280.419 158.606Z" fill="#211E1F" fill-rule="nonzero" fill-opacity="1" transform="matrix(1.00455 0 0 1 383.145 133.463)"/><path d="M297.437 141.552 314.491 141.552 314.491 158.606 297.437 158.606Z" fill="#211E1F" fill-rule="nonzero" fill-opacity="1" transform="matrix(1.00455 0 0 1 383.145 133.463)"/><path d="M314.491 158.606 331.546 158.606 331.546 175.661 314.491 175.661Z" fill="#211E1F" fill-rule="nonzero" fill-opacity="1" transform="matrix(1.00455 0 0 1 383.145 133.463)"/><path d="M297.582 312.024 314.636 312.024 314.636 329.078 297.582 329.078Z" fill="#211E1F" fill-rule="nonzero" fill-opacity="1" transform="matrix(1.00455 0 0 1 383.145 133.463)"/><path d="M263.219 312.024 297.437 312.024 297.437 329.078 263.219 329.078Z" fill="#C48058" fill-rule="nonzero" fill-opacity="1" transform="matrix(1.00455 0 0 1 383.145 133.463)"/><path d="M280.419 277.625 297.473 277.625 297.473 294.679 280.419 294.679Z" fill="#211E1F" fill-rule="nonzero" fill-opacity="1" transform="matrix(1.00455 0 0 1 383.145 133.463)"/><path d="M314.636 277.77 331.691 277.77 331.691 311.987 314.636 311.987Z" fill="#211E1F" fill-rule="nonzero" fill-opacity="1" transform="matrix(1.00455 0 0 1 383.145 133.463)"/><path d="M127.001 175.661 143.947 175.661 143.947 243.661 127.001 243.661Z" fill="#211E1F" fill-rule="nonzero" fill-opacity="1" transform="matrix(1.00455 0 0 1 383.145 133.463)"/><path d="M143.947 226.715 160.892 226.715 160.892 311.987 143.947 311.987Z" fill="#211E1F" fill-rule="nonzero" fill-opacity="1" transform="matrix(1.00455 0 0 1 383.145 133.463)"/></g></g></svg>