<svg width="96" height="96" fill="none" xmlns="http://www.w3.org/2000/svg"><circle cx="48" cy="48" r="48" fill="#fff"/><path d="M65.625 17a13.35 13.35 0 00-9.447 3.91 13.423 13.423 0 00-3.931 9.46v14.824a62.654 62.654 0 01-4.247.152c-1.46 0-2.862.059-4.247.142V30.37a13.432 13.432 0 00-3.993-9.346 13.36 13.36 0 00-9.383-3.854 13.36 13.36 0 00-9.384 3.854A13.432 13.432 0 0017 30.37V65.8a13.432 13.432 0 003.993 9.347A13.36 13.36 0 0030.377 79a13.36 13.36 0 009.383-3.853 13.432 13.432 0 003.993-9.347V50.976A62.588 62.588 0 0148 50.824c1.46 0 2.862-.059 4.247-.142V65.8a13.432 13.432 0 003.993 9.347A13.36 13.36 0 0065.624 79a13.36 13.36 0 009.383-3.853A13.432 13.432 0 0079 65.8V30.37a13.423 13.423 0 00-3.93-9.459A13.35 13.35 0 0065.625 17zm-35.25 5.478c2.09-.001 4.095.83 5.575 2.309a7.923 7.923 0 012.32 5.583v15.698a44.906 44.906 0 00-11.367 3.223 20.652 20.652 0 00-4.41 2.638V30.37a7.924 7.924 0 012.316-5.578 7.88 7.88 0 015.566-2.314zM38.269 65.8c0 2.1-.831 4.113-2.312 5.598a7.884 7.884 0 01-11.165 0A7.928 7.928 0 0122.48 65.8v-3.554c0-3.14 2.48-6.113 6.638-7.965a38.843 38.843 0 019.151-2.683V65.8zm27.356 7.892a7.88 7.88 0 01-5.575-2.309 7.923 7.923 0 01-2.32-5.583V50.102a44.906 44.906 0 0011.367-3.222 20.657 20.657 0 004.41-2.639v21.56a7.924 7.924 0 01-2.316 5.578 7.88 7.88 0 01-5.566 2.313zm1.257-31.824a38.84 38.84 0 01-9.151 2.684V30.37c0-2.1.831-4.113 2.312-5.598a7.884 7.884 0 015.582-2.318c2.094 0 4.102.834 5.583 2.318a7.927 7.927 0 012.312 5.598v3.554c0 3.126-2.48 6.1-6.638 7.944z" fill="url(#prefix__paint0_linear)"/><defs><linearGradient id="prefix__paint0_linear" x1="20.916" y1="75.243" x2="75.232" y2="21.076" gradientUnits="userSpaceOnUse"><stop stop-color="#00AEE9"/><stop offset="1" stop-color="#69FABD"/></linearGradient></defs></svg>
