<svg xmlns="http://www.w3.org/2000/svg" width="96" height="96" fill="none"><circle cx="48" cy="48" r="48" fill="#fff"/><path fill="url(#a)" d="M65.625 17a13.35 13.35 0 0 0-9.447 3.91 13.42 13.42 0 0 0-3.931 9.46v14.824a63 63 0 0 1-4.247.152c-1.46 0-2.862.059-4.247.142V30.37a13.43 13.43 0 0 0-3.993-9.346 13.36 13.36 0 0 0-9.383-3.854 13.36 13.36 0 0 0-9.384 3.854A13.43 13.43 0 0 0 17 30.37V65.8a13.43 13.43 0 0 0 3.993 9.347A13.36 13.36 0 0 0 30.377 79a13.36 13.36 0 0 0 9.383-3.853 13.43 13.43 0 0 0 3.993-9.347V50.976A63 63 0 0 1 48 50.824c1.46 0 2.862-.059 4.247-.142V65.8a13.43 13.43 0 0 0 3.993 9.347A13.36 13.36 0 0 0 65.624 79a13.36 13.36 0 0 0 9.383-3.853A13.43 13.43 0 0 0 79 65.8V30.37a13.42 13.42 0 0 0-3.93-9.459A13.35 13.35 0 0 0 65.625 17m-35.25 5.478a7.88 7.88 0 0 1 5.575 2.309 7.92 7.92 0 0 1 2.32 5.583v15.698a45 45 0 0 0-11.367 3.223 20.7 20.7 0 0 0-4.41 2.638V30.37a7.92 7.92 0 0 1 2.316-5.578 7.88 7.88 0 0 1 5.566-2.314M38.269 65.8c0 2.1-.831 4.113-2.312 5.598a7.884 7.884 0 0 1-11.165 0A7.93 7.93 0 0 1 22.48 65.8v-3.554c0-3.14 2.48-6.113 6.638-7.965a38.8 38.8 0 0 1 9.151-2.683zm27.356 7.892a7.88 7.88 0 0 1-5.575-2.309 7.92 7.92 0 0 1-2.32-5.583V50.102a45 45 0 0 0 11.367-3.222 20.7 20.7 0 0 0 4.41-2.639v21.56a7.92 7.92 0 0 1-2.316 5.578 7.88 7.88 0 0 1-5.566 2.313m1.257-31.824a38.8 38.8 0 0 1-9.151 2.684V30.37c0-2.1.831-4.113 2.312-5.598a7.88 7.88 0 0 1 5.582-2.318c2.094 0 4.102.834 5.583 2.318a7.93 7.93 0 0 1 2.312 5.598v3.554c0 3.126-2.48 6.1-6.638 7.944"/><defs><linearGradient id="a" x1="20.916" x2="75.232" y1="75.243" y2="21.076" gradientUnits="userSpaceOnUse"><stop stop-color="#00AEE9"/><stop offset="1" stop-color="#69FABD"/></linearGradient></defs></svg>