<svg xmlns="http://www.w3.org/2000/svg" width="26" height="26" fill="none"><circle cx="13" cy="13" r="13" fill="#111"/><path fill="#fff" fill-rule="evenodd" d="m19.323 13.128-.003.065a.15.15 0 0 1-.14.113l-.072-.016q-.244-.052-.503-.12c-2.448-.647-3.865-.267-4.346-.083l-.011.004a.3.3 0 0 0-.178.22v1.512a.307.307 0 0 0 .36.24l.012-.003c.723-.19 2.406-.498 4.163.111l.067.023.012.004.01.003a.15.15 0 0 1 .088.137q-.002.015-.006.028-.017.038-.037.077a6.14 6.14 0 0 1-5.547 3.509 6.144 6.144 0 1 1 5.512-8.855q.006.019.007.039a.154.154 0 0 1-.153.153q-.02-.002-.04-.008-.012-.002-.022-.006c-2.318-.59-3.693-.255-4.2-.07l-.065.026a.3.3 0 0 0-.16.21v1.522c.027.14.151.246.3.246l.013-.001.124-.033c.756-.19 2.391-.463 4.098.129l.078.026q.274.09.543.152l.017.004c.047.02.079.064.087.116l.002.044q.002.08.003.162c0 .107-.008.213-.013.32m3.497-2.686a.3.3 0 0 0-.06.006l-.06.018c-.314.092-.803.19-1.474.197h-.024a.15.15 0 0 1-.126-.085q-.006-.014-.01-.032a8.195 8.195 0 0 0-8.44-5.911c-4.042.271-7.317 3.532-7.605 7.573a8.193 8.193 0 0 0 15.86 3.427l.011-.027a.15.15 0 0 1 .123-.081l.02-.001a7.7 7.7 0 0 0 1.834-.274l.079-.023a.31.31 0 0 0 .18-.262v-1.401a.31.31 0 0 0-.365-.252l-.056.017c-.263.078-.652.16-1.172.19l-.031.001a.15.15 0 0 1-.14-.146v-.014q.019-.275.02-.554v-.043a.15.15 0 0 1 .11-.133l.057-.005a7.6 7.6 0 0 0 1.405-.268.31.31 0 0 0 .172-.249v-1.367a.31.31 0 0 0-.308-.301" clip-rule="evenodd"/></svg>