<svg xmlns="http://www.w3.org/2000/svg" viewBox="0 0 128 128"><circle cx="64" cy="64" r="64" fill="#F5C142"/><path fill="#654F36" d="m87.092 41.318-.241-.337a31 31 0 0 0-5.626-5.977s.426-7.416 2.405-8.922c2.441-1.859 9.78 9.409 8.96 11.333 0 0 .054 1.065-5.498 3.903M79.88 90.214l-1.695-.528c-.423-.132-.848.198-.848.658v10.222c0 .545.317 1.035.802 1.24l1.455.613c.533.225 1.117-.183 1.117-.782V91.376c0-.536-.337-1.007-.831-1.16zM40.6 41.953a34.7 34.7 0 0 1 6.08-6.476l.216-.177s-.122-7.05-2.123-8.58c-2.47-1.887-9.892 9.554-9.064 11.51 0 0-.726.843 4.89 3.724zm45.268 15.424H41.836a.973.973 0 0 0-.947 1.2c.616 2.57 2.736 8.396 9.354 8.643 6.178.23 9.06-3.15 10.39-6.012h6.431c1.204 2.688 3.637 5.832 8.462 6.012 8.346.312 10.677-5.97 11.293-8.654a.973.973 0 0 0-.95-1.189m-24.891 3.016q.26-.68.448-1.385h4.857q.19.703.446 1.385zm-13.785 29.82 1.584-.527c.395-.132.792.198.792.658v10.222c0 .545-.296 1.035-.75 1.24l-1.36.613c-.498.225-1.042-.183-1.042-.782V91.376c0-.536.316-1.007.776-1.16zM53.704 52l-.484.883c-.4.73.04 1.61.909 1.817l5.236 1.245c.788.187 1.608-.178 1.93-.859l.329-.695c.303-.643-.035-1.39-.753-1.647-1.522-.547-4.032-1.38-5.585-1.53-.657-.064-1.286.25-1.58.788zm20.364-.388.43.883c.356.73-.035 1.61-.808 1.817l-4.666 1.245a1.46 1.46 0 0 1-1.72-.859l-.29-.695c-.27-.643.031-1.39.67-1.647 1.356-.547 3.592-1.379 4.977-1.53a1.4 1.4 0 0 1 1.407.788zm-5.522 26.77-3.87-2.111v-4.699l3.248-2.347a.79.79 0 0 0 .29-.889.78.78 0 0 0-.756-.55h-7.212a.78.78 0 0 0-.756.55.78.78 0 0 0 .291.89l3.247 2.346v4.674l-3.86 1.896a.815.815 0 0 0-.46.791.823.823 0 0 0 .877.77.8.8 0 0 0 .31-.083l3.939-1.935 3.945 2.153a.828.828 0 0 0 1.194-.518.84.84 0 0 0-.425-.94z"/><path fill="#654F36" d="M100.465 86.868c-.065-4.522-.425-10.17-.892-11.409a4.5 4.5 0 0 0-.95-1.486 3.38 3.38 0 0 0-2.621-1.057c2.277-6.44.273-12.982-1.302-16.602-2.647-6.088-3.384-8.645-3.587-9.644 2.73-1.312 4.878-2.638 6.393-3.945 1.815-1.566 2.427-3.96 1.635-6.404-2.785-8.606-7.113-13.138-10.25-15.426-2.707-1.972-6.635-3.592-8.903-2.878-3.183 1.005-3.84 7.081-4.262 13.162l-.286.236c-3.562-.459-10.3-.508-11.896-.513-1.49.005-7.749.054-11.18.5l-.306-.253c-.4-6.064-1.028-12.114-4.07-13.125-1.344-.448-3.594.004-5.871 1.178-3.173 1.635-9.005 6.035-12.414 17.139-.745 2.423-.164 4.802 1.552 6.363 1.44 1.309 3.481 2.636 6.073 3.95-.187.988-.878 3.542-3.412 9.682-1.478 3.58-3.32 9.926-1.344 16.222l-.053-.007a3.17 3.17 0 0 0-2.732 1.039c-.409.455-.714.95-.904 1.47-.448 1.228-.849 6.861-.962 11.378-.116 4.657-.028 10.627 1.055 12.608 1.44 2.635 8.465 5.719 14.104 7.843a4.5 4.5 0 0 0 1.552.289 4.5 4.5 0 0 0 1.848-.39l4.293-1.912a4.48 4.48 0 0 0 2.657-4.093v-1.11l19.731.119-.014 1.109c-.023 1.782 1.067 3.406 2.774 4.139l4.57 1.963a4.93 4.93 0 0 0 3.529.14c6.047-2.05 13.585-5.041 15.155-7.65 1.188-1.976 1.359-7.955 1.29-12.623zM36.353 57.34c4.519-10.948 3.8-11.79 3.325-12.345l-.179-.21-.247-.12c-2.735-1.33-4.828-2.645-6.221-3.913-1.358-1.233-1.016-2.956-.806-3.639 3.127-10.18 8.297-14.124 11.102-15.569 1.705-.878 2.917-1.053 3.49-1.053.174 0 .289.016.342.034.009.004.85.32 1.522 3.846.44 2.32.62 5.009.74 6.79.149 2.21.175 2.609.856 3.007h.003a1.3 1.3 0 0 0 1.23.06c.783-.314 5.61-.668 12.038-.69 6.834.023 11.936.382 12.735.695l.012.006a1.34 1.34 0 0 0 1.22-.076c.674-.402.706-.85.858-2.998.125-1.778.314-4.466.78-6.781.706-3.522 1.596-3.841 1.632-3.852.561-.176 3.261.093 6.557 2.496 2.824 2.056 6.729 6.172 9.295 14.107.218.673.571 2.372-.85 3.597-1.475 1.272-3.686 2.593-6.575 3.924l-.247.113-.181.201c-.507.563-1.272 1.415 3.502 12.395 1.628 3.746 3.792 10.977-.016 17.322-2.95 4.915-8.857 8.395-17.618 10.396-7.718 1.762-15.763 1.676-23.384-.462-7.104-1.99-12.017-5.174-14.666-9.52-3.931-6.446-1.843-13.893-.247-17.76zm13.5 45.473-4.292 1.912a2.2 2.2 0 0 1-.815.19l.087-14.488a1.127 1.127 0 0 0-1.124-1.136 1.13 1.13 0 0 0-1.136 1.124l-.082 13.83c-6.307-2.469-10.773-4.89-11.533-6.28-.492-.9-.955-4.383-.78-11.457.137-5.414.586-10.006.826-10.668 0 0 .94-1.716 2.744-.425q.282.542.6 1.064c2.234 3.663 9.271 8.093 16.379 10.336.27.432.44.961.44 1.365v12.607a2.22 2.22 0 0 1-1.317 2.029zm23.342-4.943-19.765-.12v-9.578c0-.215-.02-.698-.056-.906 6.783 1.607 13.839 1.331 19.994.157-.037.19-.06.66-.064.867l-.11 9.577zm24.045.456c-.84 1.395-5.72 3.792-12.585 6.205l.083-13.87a1.129 1.129 0 1 0-2.26-.012l-.086 14.488a2.7 2.7 0 0 1-1.007-.211l-4.57-1.963c-.865-.372-1.417-1.171-1.407-2.035l.157-12.607c.007-.515.296-.98.74-1.268q.54-.133 1.068-.273c7.837-2.106 14.772-6.762 17.156-10.737.175-.282 1.111-.827 1.478-.864a1 1 0 0 1 .14-.007c.324.002.62.125.83.347.228.244.392.49.483.736.247.672.67 5.27.748 10.67.1 7.052-.434 10.514-.968 11.401"/></svg>
