<?xml version="1.0" encoding="UTF-8"?><svg id="Layer_2" xmlns="http://www.w3.org/2000/svg" viewBox="0 0 500 500"><defs><style>.cls-1{fill:#fff;}.cls-2{fill:#ff0420;}</style></defs><g id="Layer_1-2"><circle class="cls-2 bg" cx="250" cy="250" r="250"/><path class="cls-1 fg" d="M177.13,316.45c-14.89,0-27.08-3.5-36.59-10.51-9.38-7.13-14.07-17.26-14.07-30.4,0-2.75,.31-6.13,.94-10.13,1.63-9.01,3.94-19.83,6.94-32.46,8.51-34.4,30.46-51.6,65.86-51.6,9.63,0,18.26,1.63,25.89,4.88,7.63,3.13,13.64,7.88,18.01,14.26,4.38,6.25,6.57,13.76,6.57,22.52,0,2.63-.31,5.94-.94,9.95-1.88,11.13-4.13,21.95-6.75,32.46-4.38,17.14-11.95,29.96-22.7,38.47-10.76,8.38-25.14,12.57-43.16,12.57Zm2.63-27.02c7.01,0,12.95-2.06,17.83-6.19,5-4.13,8.57-10.45,10.7-18.95,2.88-11.76,5.07-22.02,6.57-30.77,.5-2.63,.75-5.32,.75-8.07,0-11.38-5.94-17.07-17.82-17.07-7.01,0-13.01,2.06-18.01,6.19-4.88,4.13-8.38,10.45-10.51,18.95-2.25,8.38-4.5,18.64-6.76,30.77-.5,2.5-.75,5.13-.75,7.88,0,11.51,6.01,17.26,18.01,17.26Z"/><path class="cls-1 fg" d="M259.3,314.57c-1.38,0-2.44-.44-3.19-1.31-.63-1-.81-2.13-.56-3.38l25.89-121.96c.25-1.38,.94-2.5,2.06-3.38,1.13-.88,2.31-1.31,3.57-1.31h49.91c13.89,0,25.02,2.88,33.4,8.63,8.51,5.75,12.76,14.07,12.76,24.96,0,3.13-.38,6.38-1.13,9.76-3.13,14.39-9.44,25.02-18.95,31.9-9.38,6.88-22.27,10.32-38.65,10.32h-25.33l-8.63,41.09c-.25,1.38-.94,2.5-2.06,3.38-1.13,.88-2.32,1.31-3.57,1.31h-25.52Zm66.42-71.68c5.25,0,9.82-1.44,13.7-4.32,4-2.88,6.63-7.01,7.88-12.38,.38-2.13,.56-4,.56-5.63,0-3.63-1.06-6.38-3.19-8.26-2.13-2-5.75-3-10.88-3h-22.52l-7.13,33.59h21.58Z"/></g></svg>