<svg xmlns="http://www.w3.org/2000/svg" width="48" height="48" fill="none"><g clip-path="url(#a)"><path fill="url(#b)" d="M24 48c13.255 0 24-10.745 24-24S37.255 0 24 0 0 10.745 0 24s10.745 24 24 24"/><path fill="url(#c)" fill-rule="evenodd" d="M28.726 6.571a12.302 12.302 0 1 0-.005 24.605 12.302 12.302 0 0 0 .005-24.605m0 19.803a7.502 7.502 0 1 1 7.5-7.5 7.51 7.51 0 0 1-7.5 7.5m-13.346 12.4a6.922 6.922 0 1 0-4.013-13.248 6.922 6.922 0 0 0 4.012 13.249m11.572-3.06a12 12 0 0 0 4.826-2.807h-.002a14 14 0 0 0 4.08-1.76 14.16 14.16 0 0 1-15.629 6.845 9.2 9.2 0 0 0 1.15-1.965c1.857.336 3.767.228 5.575-.314" clip-rule="evenodd" opacity=".95"/></g><defs><linearGradient id="b" x1="21.187" x2="21.187" y1="0" y2="47.575" gradientUnits="userSpaceOnUse"><stop stop-color="#E75241"/><stop offset="1" stop-color="#D13735"/></linearGradient><linearGradient id="c" x1="28.042" x2="28.042" y1="38.403" y2="6.48" gradientUnits="userSpaceOnUse"><stop stop-color="#fff"/><stop offset="1" stop-color="#fff" stop-opacity=".9"/></linearGradient><clipPath id="a"><path fill="#fff" d="M0 0h48v48H0z"/></clipPath></defs></svg>