<svg width="48" height="48" viewBox="0 0 48 48" fill="none" xmlns="http://www.w3.org/2000/svg">
<g clip-path="url(#clip0_77_12536)">
<path d="M24 48C37.2548 48 48 37.2548 48 24C48 10.7452 37.2548 0 24 0C10.7452 0 0 10.7452 0 24C0 37.2548 10.7452 48 24 48Z" fill="url(#paint0_linear_77_12536)"/>
<path opacity="0.95" fill-rule="evenodd" clip-rule="evenodd" d="M28.7256 6.57129C26.2924 6.57081 23.9136 7.29193 21.8901 8.64345C19.8667 9.99497 18.2895 11.9162 17.358 14.1641C16.4265 16.412 16.1825 18.8857 16.6569 21.2723C17.1313 23.6589 18.3028 25.8512 20.0233 27.572C21.7437 29.2927 23.9358 30.4646 26.3223 30.9395C28.7088 31.4144 31.1825 31.1709 33.4306 30.2399C35.6787 29.3088 37.6002 27.732 38.9521 25.7088C40.3041 23.6856 41.0256 21.307 41.0256 18.8737C41.0256 15.6113 39.7298 12.4825 37.4232 10.1754C35.1166 7.86835 31.988 6.57193 28.7256 6.57129ZM28.7256 26.3737C27.2416 26.3742 25.7908 25.9345 24.5566 25.1103C23.3225 24.2861 22.3605 23.1144 21.7924 21.7434C21.2242 20.3725 21.0755 18.8638 21.3649 17.4082C21.6543 15.9527 22.3689 14.6157 23.4182 13.5663C24.4676 12.5169 25.8046 11.8023 27.2602 11.5129C28.7157 11.2235 30.2244 11.3723 31.5954 11.9404C32.9664 12.5086 34.1381 13.4705 34.9623 14.7047C35.7864 15.9388 36.2261 17.3897 36.2256 18.8737C36.2231 20.862 35.4321 22.7682 34.0261 24.1742C32.6202 25.5802 30.714 26.3712 28.7256 26.3737ZM15.3796 38.7749C19.0382 37.6668 21.1058 33.8027 19.9977 30.1441C18.8896 26.4855 15.0255 24.4179 11.3669 25.526C7.70834 26.6341 5.64075 30.4982 6.74882 34.1568C7.8569 37.8153 11.721 39.8829 15.3796 38.7749ZM26.9516 35.7132C28.7592 35.171 30.4131 34.2093 31.7785 32.9065H31.7761C33.2206 32.5399 34.5978 31.9461 35.8561 31.1473C34.3493 33.8322 32.0085 35.9528 29.1883 37.1879C26.3682 38.4231 23.2223 38.7054 20.2273 37.9921C20.6905 37.3871 21.0766 36.7268 21.3769 36.0265C23.2338 36.3628 25.144 36.2554 26.9516 35.7132Z" fill="url(#paint1_linear_77_12536)"/>
</g>
<defs>
<linearGradient id="paint0_linear_77_12536" x1="21.1872" y1="0" x2="21.1872" y2="47.5752" gradientUnits="userSpaceOnUse">
<stop stop-color="#E75241"/>
<stop offset="1" stop-color="#D13735"/>
</linearGradient>
<linearGradient id="paint1_linear_77_12536" x1="28.0416" y1="38.4025" x2="28.0416" y2="6.48009" gradientUnits="userSpaceOnUse">
<stop stop-color="white"/>
<stop offset="1" stop-color="white" stop-opacity="0.9"/>
</linearGradient>
<clipPath id="clip0_77_12536">
<rect width="48" height="48" fill="white"/>
</clipPath>
</defs>
</svg>
