<svg xmlns="http://www.w3.org/2000/svg" width="96" height="96" fill="none"><circle cx="48" cy="48" r="48" fill="#fff"/><g clip-path="url(#a)"><path fill="#3F4971" d="M33.523 57.494a.765.765 0 0 1-1.38.403L21.134 47.565a.835.835 0 0 1 .302-1.493l15.407-6.21c.717-.287 1.147.095.956.85z"/><path fill="#546095" d="M24.428 67.316c-.59.531-1.179.298-1.317-.473L20.093 50.05c-.138-.764.213-.956.776-.424l10.476 9.833a1.248 1.248 0 0 1-.037 1.891zM37.062 36.52a.95.95 0 0 1-.388 1.593L21.32 44.281c-.718.292-1.063-.069-.818-.802l6.305-17.037a.764.764 0 0 1 1.414-.255zM20.975 64.469c.138.765-.09.86-.531.207l-5.913-9.239a2.19 2.19 0 0 1 .075-2.321l2.656-3.586c.462-.627.95-.532 1.089.26zM19.105 42.443c-.27.733-.696.723-.94 0l-2.04-6.13a2.36 2.36 0 0 1 .595-2.296l7.262-6.635c.574-.531.823-.356.531.377zM17.188 44.813a3.05 3.05 0 0 1-.394 2.48l-2.082 2.832c-.468.627-.781.531-.701-.27l.998-9.776c.08-.775.346-.807.59-.063zM25.374 22.861c.255.303 0 .978-.574 1.498l-3.267 2.98c-.574.532-.664.436-.202-.185l2.73-3.72c.463-.605 1.053-.87 1.313-.573M45.955 74.738a.824.824 0 0 1-1.509.058L35.92 62.312A.77.77 0 0 1 36.524 61l17.133-1.78c.77-.08 1.063.404.69 1.063zM42.385 74.754c.435.637.196.962-.532.712l-16.065-5.493c-.733-.25-.855-.871-.265-1.382l6.906-5.965a1.24 1.24 0 0 1 1.865.244z"/><path fill="#15F9FF" d="M54.014 56.32c.531.59.287 1.136-.484 1.216l-17.387 1.806a.919.919 0 0 1-1.063-1.227l4.367-17.021c.191-.755.765-.887 1.27-.298z"/><path fill="#546095" d="M66.509 70.913a.77.77 0 0 1-.447 1.365l-17.695 3.719c-.755.164-1.063-.255-.665-.93l8.336-14.317a.94.94 0 0 1 1.625-.154zM38.05 80.491a2.17 2.17 0 0 1-2.3-.265l-8.208-7.3c-.585-.53-.457-.728.276-.478l14.057 4.781c.733.255.775.76.09 1.127zM57.132 81.187a2.34 2.34 0 0 1-2.343.255l-5.727-2.932c-.69-.356-.637-.776.123-.936l15.241-3.23c.754-.159.887.117.287.606zM41.168 81.548c-.776-.037-.845-.366-.165-.738l3.066-1.652a3.01 3.01 0 0 1 2.497-.032l4.483 2.295c.691.35.622.61-.154.574zM69.356 74.239c.26.302-.09.85-.775 1.216l-4.038 2.168c-.685.366-.754.265-.154-.229l3.41-2.805c.6-.494 1.302-.653 1.557-.35"/><path fill="#3F4971" d="M59.156 56.139c-.717.287-1.147-.09-.956-.845l4.287-16.787a.765.765 0 0 1 1.381-.404l11.008 10.333a.834.834 0 0 1-.276 1.492z"/><path fill="#546095" d="M75.907 45.949c.138.765-.213.962-.776.43l-10.482-9.838a1.255 1.255 0 0 1 .038-1.892l6.906-5.96c.59-.532 1.18-.298 1.317.467zM69.192 69.558a.765.765 0 0 1-1.413.255L58.932 59.48a.95.95 0 0 1 .388-1.594l15.358-6.167c.718-.293 1.063.069.819.802zM81.469 40.59a2.2 2.2 0 0 1-.075 2.32l-2.656 3.587c-.462.627-.95.53-1.062-.255l-2.657-14.7c-.133-.765.096-.86.532-.207zM79.875 59.714a2.38 2.38 0 0 1-.595 2.295l-7.252 6.609c-.573.531-.823.356-.53-.377l5.429-14.684c.27-.733.695-.722.94 0zM80.99 55.921c-.08.776-.345.802-.59.064l-1.593-4.781a3.05 3.05 0 0 1 .393-2.481l2.083-2.805c.462-.627.78-.5.701.27zM71.933 72.55c-.462.626-1.063.892-1.307.589s0-.977.574-1.498l3.262-2.975c.573-.531.669-.441.207.186z"/><path fill="#3F4971" d="M60.08 33.688a.776.776 0 0 1-.605 1.317L42.342 36.78c-.77.085-1.062-.404-.69-1.063l8.393-14.444a.824.824 0 0 1 1.509-.053z"/><path fill="#546095" d="M63.598 33.375a1.237 1.237 0 0 1-1.865-.25l-8.118-11.873c-.44-.643-.196-.967.532-.712l16.06 5.488c.732.25.855.87.265 1.38zM56.553 54.906c-.191.755-.765.893-1.27.298l-13.28-15.529c-.532-.595-.293-1.142.483-1.222l17.382-1.806a.923.923 0 0 1 1.063 1.227zM39.962 35.25a.94.94 0 0 1-1.626.149l-8.845-10.312a.77.77 0 0 1 .446-1.365l17.696-3.719c.755-.16 1.063.26.664.93zM54.125 18.75c-.733-.25-.775-.76-.09-1.127l3.915-2.125a2.18 2.18 0 0 1 2.3.266l8.209 7.3c.584.53.456.727-.277.477zM31.58 21.656c-.76.159-.888-.112-.288-.606l7.576-6.237a2.34 2.34 0 0 1 2.343-.255l5.727 2.933c.69.355.637.775-.123.935zM51.926 16.848a3.02 3.02 0 0 1-2.492 0l-4.484-2.269c-.669-.35-.621-.61.15-.579l9.732.457c.775.032.85.367.164.733zM28.2 21.438c-.6.494-1.301.653-1.556.35s.106-.882.77-1.238l4.043-2.172c.685-.367.754-.266.154.228zM23.031 70.764c.298-.26.967 0 1.488.58l2.959 3.282c.531.574.435.67-.186.202l-3.676-2.746c-.638-.468-.903-1.058-.585-1.318M74.08 26.516c.297-.26.844.09 1.205.776l2.157 4.064c.367.69.266.76-.228.154l-2.79-3.427c-.488-.605-.642-1.333-.345-1.567M72.4 23.919c.622.467.887 1.062.585 1.317s-.967 0-1.488-.579l-2.959-3.283c-.531-.574-.435-.67.186-.202zM21.57 67.916c.494.606.648 1.313.351 1.594s-.845-.096-1.206-.78l-2.162-4.086c-.361-.707-.26-.76.228-.175z"/></g><defs><clipPath id="a"><path fill="#fff" d="M14 14h68v68H14z"/></clipPath></defs></svg>