<svg xmlns="http://www.w3.org/2000/svg" width="80" height="80" fill="none"><rect width="80" height="80" fill="url(#a)" rx="40"/><path fill="url(#b)" fill-rule="evenodd" d="M56.678 23.322H26.576V16h30.102A7.32 7.32 0 0 1 64 23.32h-7.32v.002zm.002 2.44h-.002V56.68h.002V64A7.32 7.32 0 0 0 64 56.678V26.575h-7.32zm-2.443 30.916v.002h-.812V64H23.322A7.32 7.32 0 0 1 16 56.678h38.237M23.322 16v37.424H16V23.322A7.32 7.32 0 0 1 23.322 16" clip-rule="evenodd"/><path fill="url(#c)" fill-rule="evenodd" d="M38.669 30.645a.7.7 0 0 0-.7.7v5.807H32.16a.7.7 0 0 0-.7.7v3.482a.7.7 0 0 0 .7.7h5.808v5.809a.7.7 0 0 0 .7.7h3.481a.7.7 0 0 0 .7-.7v-5.81h5.81a.7.7 0 0 0 .7-.7v-3.48a.7.7 0 0 0-.7-.7h-5.81v-5.808a.7.7 0 0 0-.7-.7z" clip-rule="evenodd"/><defs><linearGradient id="a" x1="0" x2="85.726" y1="0" y2="52.337" gradientUnits="userSpaceOnUse"><stop offset=".163" stop-color="#062C76"/><stop offset="1" stop-color="#15141D"/></linearGradient><linearGradient id="b" x1="16" x2="65.03" y1="16" y2="17.076" gradientUnits="userSpaceOnUse"><stop stop-color="#3EB1FE"/><stop offset="1" stop-color="#0678C4" stop-opacity=".992"/></linearGradient><linearGradient id="c" x1="31.461" x2="49.743" y1="30.645" y2="31.046" gradientUnits="userSpaceOnUse"><stop stop-color="#3EB1FE"/><stop offset="1" stop-color="#0678C4" stop-opacity=".992"/></linearGradient></defs></svg>