<svg xmlns="http://www.w3.org/2000/svg" width="101" height="101" fill-rule="evenodd"><circle fill="#ffd8c1" cx="50.5" cy="50.5" r="50.5"/><path d="M50.5 21.5c6.307 0 12.021.795 16.193 2.068 2.26.69 4.084 1.529 5.355 2.446 1.621 1.169 2.387 2.502 2.448 3.812h0L74.5 71c0 1.331-.713 2.682-2.303 3.876-1.248.937-3.069 1.799-5.341 2.506C62.67 78.684 56.888 79.5 50.5 79.5c-6.307 0-12.021-.795-16.193-2.068-2.26-.69-4.084-1.529-5.355-2.446-1.621-1.169-2.387-2.502-2.448-3.812h0L26.5 29.961c.062-1.341.827-2.686 2.418-3.866 1.265-.938 3.081-1.793 5.333-2.493 4.178-1.3 9.915-2.102 16.249-2.102z" stroke="#472d1d" stroke-width="3" fill="#d59361"/><ellipse fill="#ffc69b" cx="50.5" cy="30" rx="22.5" ry="7"/><g fill="#4f2c13"><ellipse cx="44" cy="48" rx="2" ry="4"/><ellipse cx="57" cy="48" rx="2" ry="4"/></g><g fill="#ffb2b2"><circle opacity=".962" cx="39" cy="58" r="3"/><circle opacity=".962" cx="62" cy="58" r="3"/></g></svg>
