<svg xmlns="http://www.w3.org/2000/svg" xmlns:xlink="http://www.w3.org/1999/xlink" viewBox="0 0 741 741"><defs><style>.cls-1{fill:url(#linear-gradient);}.cls-2{fill:#fff;}.cls-3{fill:url(#New_Gradient_Swatch_1);}.cls-4{fill:url(#New_Gradient_Swatch_1-2);}</style><linearGradient id="linear-gradient" x1="120.07" y1="4100.35" x2="-507.09" y2="3738.27" gradientTransform="matrix(1, 0, 0, -1, 564, 4289.8)" gradientUnits="userSpaceOnUse"><stop offset="0" stop-color="#fff"/><stop offset="1" stop-color="#999"/></linearGradient><radialGradient id="New_Gradient_Swatch_1" cx="289.01" cy="3572.44" r="198.86" gradientTransform="matrix(1, 0, 0, -1, 0, 3901.42)" gradientUnits="userSpaceOnUse"><stop offset="0" stop-color="#dd3c3c"/><stop offset="0.82" stop-color="#b11b17"/><stop offset="1" stop-color="#b11b17"/></radialGradient><radialGradient id="New_Gradient_Swatch_1-2" cx="529.15" cy="3443.98" r="100.22" xlink:href="#New_Gradient_Swatch_1"/></defs><g id="Layer_2" data-name="Layer 2"><g id="Layer_1-2" data-name="Layer 1"><g id="Layer_2-2" data-name="Layer 2"><g id="Layer_1-2-2" data-name="Layer 1-2"><g id="Layer_2-2-2" data-name="Layer 2-2"><g id="Layer_1-2-2-2" data-name="Layer 1-2-2"><g id="Layer_2-2-2-2" data-name="Layer 2-2-2"><g id="Layer_1-2-2-2-2" data-name="Layer 1-2-2-2"><path class="cls-1" d="M370.5,732.5c-200-.13-362-162.36-361.86-362.34a362.13,362.13,0,0,1,221-333.22c184.47-77.23,396.62,9.71,473.84,194.18,76.88,183.63-8.9,394.89-192,472.94A359.89,359.89,0,0,1,370.5,732.5Z"/><path class="cls-2" d="M370.5,17c195.29.13,353.5,158.56,353.36,353.84A353.61,353.61,0,0,1,508.09,696.23c-180.19,75.28-387.3-9.77-462.58-190C-29.36,327.08,54.31,121,232.91,44.77A351.17,351.17,0,0,1,370.5,17m0-17C165.88,0,0,165.88,0,370.5S165.88,741,370.5,741,741,575.12,741,370.5,575.12,0,370.5,0Z"/></g></g></g></g></g></g><g id="Layer_2-3" data-name="Layer 2-3"><g id="Layer_1-2-3" data-name="Layer 1-2-3"><path class="cls-3" d="M207.1,551.62c-21.33,0-42.67.06-64,0-9.8-.06-18.75-1.93-23.7-12-3.67-7.39-2.13-14.3,1.6-21,10.37-18.64,20.75-37.28,31.3-55.83q94.6-166.3,189.29-332.54c2.38-4.19,4.81-8.37,7.48-12.36,10.4-15.44,26.7-15.62,36.8.1,8.18,12.73,15.44,26.05,23,39.2,14.11,24.7,28.09,49.48,42.2,74.19,12.85,22.48,12.89,44.87,0,67.38Q388.52,408.44,326,518.25c-13,22.86-32.95,33.59-59,33.47C247,551.53,227.06,551.62,207.1,551.62Z"/><path class="cls-4" d="M528.73,551.64H451.66a68.45,68.45,0,0,1-11.62-1c-12.88-2.34-20-14.78-15.32-27a98.1,98.1,0,0,1,7.15-14.09q36.57-63.21,73.31-126.22a108.62,108.62,0,0,1,7.11-11c9-12,24.25-12.17,33.18-.25a164.83,164.83,0,0,1,10,15.66q35.61,60.9,71.08,121.89a97.47,97.47,0,0,1,7.07,14.12c4.64,12.23-2.54,24.77-15.52,26.79-6.53,1-13.24,1-19.87,1.07-23.17.11-46.33,0-69.49,0Z"/></g></g></g></g></svg>