<?xml version="1.0" encoding="UTF-8"?><svg xmlns="http://www.w3.org/2000/svg" xmlns:xlink="http://www.w3.org/1999/xlink" viewBox="0 0 742.3 744.4"><defs><style>.an{fill:url(#p);}.ao{fill:url(#q);}.ap{fill:url(#r);}.aq{fill:url(#l);}.ar{fill:url(#aa);}.as{fill:url(#ai);}.at{fill:url(#aj);}.au{fill:url(#al);}.av{fill:url(#am);}.aw{fill:url(#ac);}.ax{fill:url(#ak);}.ay{fill:#fff;}</style><linearGradient id="l" x1="-157.26" y1="-1757.3" x2="-784.42" y2="-1395.22" gradientTransform="translate(842.64 1950.19)" gradientUnits="userSpaceOnUse"><stop offset="0" stop-color="#fff"/><stop offset="1" stop-color="#999"/></linearGradient><linearGradient id="p" x1="-242.73" y1="-841.95" x2="-310.18" y2="-923.51" gradientTransform="translate(555.64 1457.74)" gradientUnits="userSpaceOnUse"><stop offset="0" stop-color="#00c8f9"/><stop offset="1" stop-color="#0068c9"/></linearGradient><linearGradient id="q" x1="83.19" y1="-1117.33" x2="-344.57" y2="-1139.45" gradientTransform="translate(555.64 1457.74)" gradientUnits="userSpaceOnUse"><stop offset="0" stop-color="#00c2fe"/><stop offset="1" stop-color="#0068c9"/></linearGradient><linearGradient id="r" x1="-368.45" y1="-1013.93" x2="2.12" y2="-1010.41" gradientTransform="translate(555.64 1457.74)" gradientUnits="userSpaceOnUse"><stop offset="0" stop-color="#0084d7"/><stop offset="1" stop-color="#00c8f9"/></linearGradient><linearGradient id="aa" x1="128.44" y1="6784.67" x2="-498.72" y2="6422.59" gradientTransform="translate(555.64 6974.13) scale(1 -1)" xlink:href="#l"/><linearGradient id="ac" x1="-244.62" y1="-1460.16" x2="-319.49" y2="-1552.62" gradientTransform="translate(555.64 2065.75)" gradientUnits="userSpaceOnUse"><stop offset="0" stop-color="#3bdcdd"/><stop offset="1" stop-color="#009195"/></linearGradient><linearGradient id="ai" x1="-324.37" y1="6206.39" x2="-244.07" y2="5985.78" gradientTransform="translate(555.64 6627.36) scale(1 -1)" gradientUnits="userSpaceOnUse"><stop offset="0" stop-color="#ffc700"/><stop offset=".19" stop-color="#fac300"/><stop offset=".39" stop-color="#ecb800"/><stop offset=".61" stop-color="#d6a700"/><stop offset=".84" stop-color="#b78e00"/><stop offset="1" stop-color="#9c7900"/></linearGradient><linearGradient id="aj" x1="-232.49" y1="6231.69" x2="-294.2" y2="6499" xlink:href="#ai"/><linearGradient id="ak" x1="-210.32" y1="6473.37" x2="-64.88" y2="6363.78" xlink:href="#ai"/><linearGradient id="al" x1="-203.78" y1="6021.89" x2="-2.24" y2="6185.1" xlink:href="#ai"/><linearGradient id="am" x1="47.93" y1="6272.96" x2="-372.47" y2="6272.96" xlink:href="#ai"/></defs><g id="a"/><g id="b"><g id="c"><g id="d"><g id="e"><g><g><g id="f"><g id="g"><g id="h"><g id="i"><g id="j"><g id="k"><path class="aq" d="M371.8,735.9c-200-.1-362-162.4-361.9-362.3,.1-145.4,87.1-276.6,221-333.2,184.5-77.2,396.6,9.7,473.8,194.2,76.9,183.6-8.9,394.9-192,473-44.5,18.7-92.5,28.4-140.9,28.3h0Z"/><path class="ay" d="M371.8,20.4c195.3,.1,353.5,158.5,353.4,353.8-.1,141.9-85.1,270.1-215.8,325.4-180.2,75.3-387.3-9.8-462.6-190C-28.1,330.4,55.6,124.4,234.2,48.1c43.5-18.4,90.3-27.8,137.6-27.7m0-17c-204.6,0-370.5,165.9-370.5,370.5s165.9,370.5,370.5,370.5,370.5-165.9,370.5-370.5S576.4,3.4,371.8,3.4Z"/></g></g></g></g><g id="m"><g id="n"><g id="o"><path class="an" d="M195.6,602.5h130.6v-99.2h-31.4c-54.8-.1-99.2,44.4-99.2,99.2h0Z"/><path class="ao" d="M609.5,329.2c.5,94.1-74.1,171.3-168.1,174.1,59.5-2.1,106-52.1,103.9-111.7-2.1-58-49.7-104-107.8-104h-111.2c-72.1,0-130.6-58.5-130.6-130.6h238.8c95.5,0,174.5,76.6,175,172.2Z"/><path class="ap" d="M437.5,287.6c22.8,.6,41,19,41.4,41.8,.4,23.8-19.6,43.3-43.4,43.3h-109.3c-72.1,0-130.6,58.5-130.6,130.6h0v99.2c0-53.6,42.6-97.5,96.2-99.2,0,0,149,0,149.6-.1,59.5-2.1,106-52.1,103.9-111.7-2.1-57.9-49.8-103.9-107.8-103.9Z"/></g></g></g></g></g><g id="s"><g id="t"><g id="u"><g id="v"><g id="w"><g id="x"><g id="y"><g id="a`"><path class="ar" d="M370.5,732.5c-200-.1-362-162.4-361.9-362.3,.1-145.4,87.1-276.6,221-333.2,184.5-77.2,396.6,9.7,473.8,194.2,76.9,183.6-8.9,394.9-192,472.9-44.5,18.8-92.5,28.5-140.9,28.4h0Z"/><path class="ay" d="M370.5,17c195.3,.1,353.5,158.6,353.4,353.8-.1,141.9-85.1,270.1-215.8,325.4-180.2,75.3-387.3-9.8-462.6-190C-29.4,327.1,54.3,121,232.9,44.7c43.5-18.4,90.3-27.8,137.6-27.7m0-17C165.9,0,0,165.9,0,370.5s165.9,370.5,370.5,370.5,370.5-165.9,370.5-370.5S575.1,0,370.5,0Z"/><g id="ab"><path class="aw" d="M195.6,593.3h130.6v-99.2h-31.4c-54.8,0-99.2,44.4-99.2,99.2h0Z"/></g></g></g></g></g></g></g></g></g></g><g id="ad"><g id="ae"><g id="af"><g id="ag"><g id="ah"><path class="as" d="M183.27,515.8v31.7c0,34.6,28.1,62.7,62.7,62.7h151.8c-42.4,0-75.8-17.8-75.8-73.9v-135.6c.1,.1-138.7-5-138.7,115.1h0Z"/><path class="at" d="M295.67,385.9c15.9-8.1,26.4-27.4,26.4-48.9v-98.4c0-69.9,33.4-101.1,75.8-101.1H225.77c-23.4,0-42.4,23.7-42.4,52.8v174.1c0,37.5,30.5,63.1,58.4,48.9l53.9-27.4h0Z"/><path class="ax" d="M456.17,139.8c-7.9-1.5-26-2.3-54.5-2.3h-3.9c-42.4,0-75.8,25-75.8,81.1v7.9h59.4c16.2,0,30.1,12.3,31.2,28.4,1.3,16.9-11.4,31.7-28.4,32.9-.8,.1-1.5,.1-2.3,.1h30.7c119.4,0,134.4-123.9,43.6-148.1h0Z"/><path class="au" d="M562.57,568.9c48.5-53.1,18.4-135.9-57.6-135.9h-76.8c17,0,30.7,13.7,30.7,30.7,0,.8,0,1.5-.1,2.3-1.2,16.1-15.1,28.4-31.2,28.4h-105.5v41.9c0,56.1,33.4,73.9,75.8,73.9h65.5c38.5,0,71.6-13.7,99.2-41.3h0Z"/><path class="av" d="M183.27,515.8c0-67.4,47.3-82.8,118.7-82.8h202.9c76,0,106.1,82.8,57.6,135.9,27.4-27.7,41.1-61,41.1-99.9,0-29.2-8.3-56.5-24.9-81.7-16.6-25.2-38.4-43.4-65.4-54.5h0c23.2-22.3,34.9-49.5,34.8-81.7,0-27.4-8.8-51.6-26.3-72.7-17.4-20.8-39.3-33.6-65.8-38.5h0c90.8,24.2,75.8,148.1-43.3,148.1h-110.8c-78.4,0-118.7,23.1-118.7,94.6v133.2h.1Z"/></g></g></g></g></g></g></g></g></g></g></svg>