<?xml version="1.0" encoding="UTF-8"?><svg id="Layer_2" xmlns="http://www.w3.org/2000/svg" xmlns:xlink="http://www.w3.org/1999/xlink" viewBox="0 0 741 741"><defs><style>.cls-1{fill:url(#New_Gradient_Swatch_2);fill-rule:evenodd;}.cls-2{fill:url(#linear-gradient);}.cls-3{fill:#fff;}</style><linearGradient id="linear-gradient" x1="120.08" y1="-4185.82" x2="-507.08" y2="-3823.74" gradientTransform="translate(564 4375.27)" gradientUnits="userSpaceOnUse"><stop offset="0" stop-color="#fff"/><stop offset="1" stop-color="#989898"/></linearGradient><linearGradient id="New_Gradient_Swatch_2" x1="141.79" y1="374.06" x2="602.78" y2="374.06" gradientTransform="matrix(1, 0, 0, 1, 0, 0)" gradientUnits="userSpaceOnUse"><stop offset="0" stop-color="#415986"/><stop offset=".99" stop-color="#03316c"/></linearGradient></defs><g id="Layer_2-2"><g><path class="cls-2" d="M370.5,732.5c-200-.1-362-162.4-361.9-362.3,.1-145.4,87.1-276.6,221-333.2,184.5-77.2,396.6,9.7,473.8,194.2,76.9,183.6-8.9,394.9-192,472.9-44.5,18.8-92.5,28.5-140.9,28.4h0Z"/><path class="cls-3" d="M370.5,17c195.3,.1,353.5,158.6,353.4,353.8-.1,141.9-85.1,270.1-215.8,325.4-180.2,75.3-387.3-9.8-462.6-190C-29.4,327.1,54.3,121,232.9,44.7c43.5-18.4,90.3-27.8,137.6-27.7m0-17C165.9,0,0,165.9,0,370.5s165.9,370.5,370.5,370.5,370.5-165.9,370.5-370.5S575.1,0,370.5,0Z"/><path class="cls-1" d="M141.79,241.09L372.28,108.11l230.49,132.98V507.04l-230.49,132.98-230.49-132.98V241.09Zm139.5-18.01h181.53l21.71,92.34h-224.49l21.25-92.34Zm46.19,216.09l6.01-57.72-19.86-51.71h117.33l-19.4,51.71,5.54,57.72h-89.61Zm135.8,96.96h-32.8l-39.26-36.01v-18.47l40.65-38.79v-61.41l53.12-34.63,60.51,45.71-82.22,143.6Zm-148.27,.46l39.26-36.48v-18.47l-40.65-38.79v-61.41l-53.58-34.17-60.97,45.25,82.68,144.06h33.26Z"/></g></g></svg>