<svg xmlns="http://www.w3.org/2000/svg" viewBox="0 0 741 741"><defs><linearGradient id="a" x1="120.08" x2="-507.08" y1="-4185.82" y2="-3823.74" gradientTransform="translate(564 4375.27)" gradientUnits="userSpaceOnUse"><stop offset="0" stop-color="#fff"/><stop offset="1" stop-color="#989898"/></linearGradient><linearGradient id="b" x1="141.79" x2="602.78" y1="374.06" y2="374.06" gradientUnits="userSpaceOnUse"><stop offset="0" stop-color="#415986"/><stop offset=".99" stop-color="#03316c"/></linearGradient></defs><path d="M370.5 732.5c-200-.1-362-162.4-361.9-362.3.1-145.4 87.1-276.6 221-333.2 184.5-77.2 396.6 9.7 473.8 194.2 76.9 183.6-8.9 394.9-192 472.9-44.5 18.8-92.5 28.5-140.9 28.4" style="fill:url(#a)"/><path d="M370.5 17c195.3.1 353.5 158.6 353.4 353.8-.1 141.9-85.1 270.1-215.8 325.4-180.2 75.3-387.3-9.8-462.6-190C-29.4 327.1 54.3 121 232.9 44.7c43.5-18.4 90.3-27.8 137.6-27.7m0-17C165.9 0 0 165.9 0 370.5S165.9 741 370.5 741 741 575.1 741 370.5 575.1 0 370.5 0" style="fill:#fff"/><path d="m141.79 241.09 230.49-132.98 230.49 132.98v265.95L372.28 640.02 141.79 507.04zm139.5-18.01h181.53l21.71 92.34H260.04zm46.19 216.09 6.01-57.72-19.86-51.71h117.33l-19.4 51.71 5.54 57.72h-89.61Zm135.8 96.96h-32.8l-39.26-36.01v-18.47l40.65-38.79v-61.41l53.12-34.63 60.51 45.71zm-148.27.46 39.26-36.48v-18.47l-40.65-38.79v-61.41l-53.58-34.17-60.97 45.25 82.68 144.06h33.26Z" style="fill:url(#b);fill-rule:evenodd"/></svg>