<svg xmlns="http://www.w3.org/2000/svg" data-name="Group 27021" viewBox="0 0 400 400"><g><circle cx="199.6" cy="201" r="198" style="fill: rgb(130, 71, 229);"></circle><polygon points="130.69 34.65 165.58 47.08 186.13 69.54 191.38 99.64 163.19 92.95 144.55 71.93 130.69 34.65" style="fill: rgb(255, 255, 255);"></polygon><g><path d="M302,253.33l-4.77-7.65-15.13-24.25c-3-4.84-6.66-9.67-9.39-14.75q-14.87,16.2-29.75,32.38L225.2,258.37c-.69.75-1.53,1.9-2.46,3.08l1.06.68,4.88-.55Z" style="fill: rgb(255, 255, 255);"></path><path d="M203.26,200.43c-1.44-.08-3.25,0-4.94,0a1.66,1.66,0,0,1,.06.16q9.41,28.66,18.79,57.33l2.57,1.64c8.36-10,18-19.23,26.77-28.77l24.34-26.48L243,202.69Z" style="fill: rgb(255, 255, 255);"></path><path d="M214.24,265.89c-2.12-.22-4.39-.75-6.06-.9L185.44,263l-85-7.31L133,280.94l40.75,31.52c.48.37,1,.74,1.51,1.11l28.07-34.15C206.94,275.06,210.32,270.05,214.24,265.89Z" style="fill: rgb(255, 255, 255);"></path><path d="M195.05,196c.48-1.63,1.23-3.32,1.63-4.69q2.53-8.65,5.06-17.31,3.39-11.58,6.76-23.15c-5.31.17-10.8,1.18-16,1.68L139,157.61l22.28,15.25,31.78,21.76C193.74,195.07,194.39,195.55,195.05,196Z" style="fill: rgb(255, 255, 255);"></path><path d="M137,162.52q-1.78,13.6-3.56,27.21c-.45,3.43-.42,7.75-1.19,11.49l28.69-1.88c10.09-.67,20.32-1.85,30.45-2.14-.57-.46-1.13-.89-1.66-1.26L137.3,160.05C137.2,160.88,137.1,161.7,137,162.52Z" style="fill: rgb(255, 255, 255);"></path><path d="M140.25,153.27c-.25.42-.5.86-.75,1.29l20.06-1.9,37-3.51c3-.28,6-.77,9.1-1.05l-45.32-28-.33.46-5.52,9.12Z" style="fill: rgb(255, 255, 255);"></path><path d="M307.34,327.47c.87-1.13,1.73-2.57,2.69-3.85l-36.62-1.75L209,318.78c-9.4-.45-18.95-1.38-28.4-1.58,4.24,2.71,8.89,5.42,13.21,8.1l77.91,48.37a51.27,51.27,0,0,1,3.46-4.23Z" style="fill: rgb(255, 255, 255);"></path><path d="M213.1,255.27c-.14-.54-.29-1.07-.45-1.56q-5.72-17.43-11.42-34.85l-4.73-14.43c-.43-1.31-1.24-2.92-1.63-4.43a16.21,16.21,0,0,1-1.74.22l-59.79,3.92,19.17,12.29Z" style="fill: rgb(255, 255, 255);"></path><path d="M309.22,301l-3.7-28.38L304,261.06c-.2-1.49-.67-3.25-.8-4.87l-8.05.91-67.4,7.58,25.05,16.05,58.39,37.43C310.18,312.53,309.94,306.54,309.22,301Z" style="fill: rgb(255, 255, 255);"></path><path d="M160.1,120l-.13-.08C159.37,120.05,159.66,120.09,160.1,120Z" style="fill: rgb(255, 255, 255);"></path><path d="M309.47,320.59l-18.29-11.72-68.12-43.66-4.49.51a23.4,23.4,0,0,1-2.22,2.59L201.6,286.26l-23,28c12.5.2,25.08,1.28,37.56,1.88Z" style="fill: rgb(255, 255, 255);"></path><path d="M107.74,346.46,123.68,368c1,1.37,2.36,2.8,3.4,4.29L157.6,335.1l14.66-17.84c-13.79.4-27.73,2.23-41.45,3.25L91,323.5c.61,1,1.17,1.95,1.45,2.32Z" style="fill: rgb(255, 255, 255);"></path><path d="M173.92,385.36l22.64,5.89,1,.23q-11.33-36.36-22.67-72.72l-45.13,54.92c5.37.9,10.94,3,16.12,4.39Z" style="fill: rgb(255, 255, 255);"></path><path d="M202.38,391.71l49.21-12.63c5.38-1.39,10.8-3.07,16.25-4.32l-31.53-19.57L187,324.59c-3-1.89-6-3.74-8.93-5.65q11.4,36.54,22.79,73.09C201.38,391.9,201.93,391.83,202.38,391.71Z" style="fill: rgb(255, 255, 255);"></path><path d="M96.3,270.08l-6.93,50.54,49.84-3.73c10.59-.8,21.43-2.3,32.11-2.63-.82-.6-1.64-1.21-2.45-1.83l-71.08-55C97,261.57,96.85,266,96.3,270.08Z" style="fill: rgb(255, 255, 255);"></path><path d="M246.73,131.29l-6-9L213.9,148.15c16,1.24,32,3.7,48,5.69h0Z" style="fill: rgb(255, 255, 255);"></path><path d="M265.13,164.1c-.24-1.6-.38-3.29-.64-4.94l-22.07,13.28L207,193.74c-2,1.23-3.94,2.57-5.89,3.71,2.17.1,4.36.11,6.47.23l63,3.57c-.69-3.18-.8-6.71-1.26-9.69Z" style="fill: rgb(255, 255, 255);"></path><path d="M211.62,150.88l-8.37,28.68-4.59,15.7,11.15-6.71,52.57-31.62L237.73,154C229.18,153,220.26,151.15,211.62,150.88Z" style="fill: rgb(255, 255, 255);"></path><path d="M200.29,107.61l-16.27,5c-6.48,2-13.17,4.71-19.85,6.38l46.14,28.47,27.54-26.58c-7-1.79-14-5.08-20.72-7.41Z" style="fill: rgb(255, 255, 255);"></path><path d="M105.93,243.35q-2.88,4.4-5.74,8.8l-.36.53,33.42,2.87,57.39,4.94,20.67,1.77c1.22.11,2.66.06,4,.21a20,20,0,0,1-1.05-2.92l-23.37-15-60.32-38.67c-2.4,4.69-6.17,9.17-9,13.49Z" style="fill: rgb(255, 255, 255);"></path></g><path d="M199,99.82c3.57.87,7.08-.29,10.62-.31.52-7.81,1-15.61,1.59-23.41A6,6,0,0,1,212.39,73q11.18-15.5,22.22-31.08A8.93,8.93,0,0,1,239,38.55c6.82-2.61,13.57-5.41,20.38-8,1.41-.54,1.78-1.24,1.2-2.56-1.27-2.87-2.54-5.73-3.77-8.61-.61-1.42-1.5-1.53-2.74-.82-8.89,5-17.79,10-26.66,15.12a6.33,6.33,0,0,0-1.66,1.82Q215.6,49.39,205.49,63.33A9.53,9.53,0,0,0,204,66.71c-1.69,6.8-3.61,13.54-5.4,20.31-.57,2.17.08,4.36.08,6.55S198.89,97.73,199,99.82Z" style="fill: rgb(255, 255, 255);"></path></g></svg>