<svg xmlns="http://www.w3.org/2000/svg" viewBox="0 0 741 741"><defs><linearGradient id="a" x1="684.06" x2="56.9" y1="1148.94" y2="786.86" gradientTransform="matrix(1 0 0 -1 0 1338.37)" gradientUnits="userSpaceOnUse"><stop offset="0" stop-color="#fff"/><stop offset="1" stop-color="#999"/></linearGradient><linearGradient id="b" x1="181.14" x2="562.11" y1="370.33" y2="370.33" gradientUnits="userSpaceOnUse"><stop offset="0" stop-color="#0068c9"/><stop offset=".33" stop-color="#0086d8"/><stop offset="1" stop-color="#00c8f9"/></linearGradient></defs><g data-name="Layer 2"><g data-name="Layer 1"><g data-name="Layer 2"><g data-name="Layer 1-2"><path d="M370.5 732.5c-200-.13-362-162.36-361.86-362.34a362.11 362.11 0 0 1 221-333.22c184.47-77.23 396.62 9.71 473.84 194.18 76.88 183.63-8.9 394.89-192 472.94A359.9 359.9 0 0 1 370.5 732.5" style="fill:url(#a)"/><path d="M370.5 17c195.29.13 353.5 158.56 353.36 353.84a353.61 353.61 0 0 1-215.77 325.39c-180.19 75.28-387.3-9.77-462.58-190-74.87-179.15 8.8-385.23 187.4-461.46A351.2 351.2 0 0 1 370.5 17m0-17C165.88 0 0 165.88 0 370.5S165.88 741 370.5 741 741 575.12 741 370.5 575.12 0 370.5 0" style="fill:#fff"/></g></g><path d="M350.71 133.54c11.73-6.16 29.59-6.16 41.32 0l119.74 62.93c7.07 3.71 11 9.25 11.65 15h.11v316.25c-.15 6.23-4.07 12.42-11.76 16.46L392 607.11c-11.73 6.17-29.59 6.17-41.32 0L231 544.18c-7.66-4-11.33-10.25-11.51-16.46V211.46c.54-5.78 4.24-11.17 11.46-15Zm154 254.35L392 447.09c-11.73 6.16-29.59 6.16-41.32 0L238.3 388v139.1l112.41 58.75c6.35 3.38 12.93 6.67 19.37 7.09h1.29c6.71 0 13.23-3.37 19.84-6.58l113.47-59.81ZM200 520.85c0 12.11 1.42 20.08 4.23 25.69 2.33 4.65 5.82 8.21 12.21 12.53l.36.25c1.4.94 2.95 1.92 4.82 3.07l2.22 1.36 6.8 4.08-9.76 16-7.61-4.58-1.28-.78c-2.2-1.35-4-2.51-5.72-3.65-18.19-12.21-25-25.51-25.11-53.18v-.84Zm162-217.74a17 17 0 0 0-2.43 1l-119.8 62.96-.36.2-.1.05.19.11.27.15 119.74 62.92a17 17 0 0 0 2.43 1Zm18.86 0v128.43a16 16 0 0 0 2.43-1L503 367.58l.36-.2.1-.06-.19-.1-.27-.15-119.77-62.92a16 16 0 0 0-2.43-1.04Zm123.88-69.24-107.47 56.44 107.41 56.45ZM238.3 234v112.63l107.17-56.32Zm144.93-83.88c-6.23-3.27-17.49-3.27-23.72 0l-119.74 62.93-.36.2-.1.05.19.11.27.15 119.74 62.92c6.23 3.28 17.49 3.28 23.72 0L503 213.56l.36-.2.1-.06-.19-.1-.27-.15ZM522.38 157l7.62 4.6 1.28.78c2.2 1.35 4 2.51 5.73 3.66 18.19 12.2 25 25.5 25.1 53.17v.85h-18.85c0-12.12-1.42-20.09-4.23-25.7-2.33-4.65-5.82-8.21-12.2-12.53l-.37-.25c-1.4-.94-2.94-1.92-4.82-3.08l-2.21-1.35-6.81-4.08Z" style="fill:url(#b)"/></g></g></svg>