<svg xmlns="http://www.w3.org/2000/svg" xmlns:xlink="http://www.w3.org/1999/xlink" viewBox="0 0 741 741"><defs><style>.cls-1{fill:url(#linear-gradient);}.cls-2{fill:#fff;}.cls-3{fill:url(#linear-gradient-2);}</style><linearGradient id="linear-gradient" x1="684.06" y1="1148.94" x2="56.9" y2="786.86" gradientTransform="matrix(1, 0, 0, -1, 0, 1338.37)" gradientUnits="userSpaceOnUse"><stop offset="0" stop-color="#fff"/><stop offset="1" stop-color="#999"/></linearGradient><linearGradient id="linear-gradient-2" x1="181.14" y1="370.33" x2="562.11" y2="370.33" gradientUnits="userSpaceOnUse"><stop offset="0" stop-color="#0068c9"/><stop offset="0.33" stop-color="#0086d8"/><stop offset="1" stop-color="#00c8f9"/></linearGradient></defs><g id="Layer_2" data-name="Layer 2"><g id="Layer_1-2" data-name="Layer 1"><g id="Layer_2-2" data-name="Layer 2"><g id="Layer_1-2-2" data-name="Layer 1-2"><path class="cls-1" d="M370.5,732.5c-200-.13-362-162.36-361.86-362.34a362.11,362.11,0,0,1,221-333.22c184.47-77.23,396.62,9.71,473.84,194.18,76.88,183.63-8.9,394.89-192,472.94A359.9,359.9,0,0,1,370.5,732.5Z"/><path class="cls-2" d="M370.5,17C565.79,17.13,724,175.56,723.86,370.84A353.61,353.61,0,0,1,508.09,696.23c-180.19,75.28-387.3-9.77-462.58-190C-29.36,327.08,54.31,121,232.91,44.77A351.17,351.17,0,0,1,370.5,17m0-17C165.88,0,0,165.88,0,370.5S165.88,741,370.5,741,741,575.12,741,370.5,575.12,0,370.5,0Z"/></g></g><path class="cls-3" d="M350.71,133.54c11.73-6.16,29.59-6.16,41.32,0l119.74,62.93c7.07,3.71,11,9.25,11.65,15h.11V527.72c-.15,6.23-4.07,12.42-11.76,16.46L392,607.11c-11.73,6.17-29.59,6.17-41.32,0L231,544.18c-7.66-4-11.33-10.25-11.51-16.46,0-.61,0-1.12,0-1.54V213.46c0-.34,0-.68,0-1v-1h0c.54-5.78,4.24-11.17,11.46-15Zm154,254.35L392,447.09c-11.73,6.16-29.59,6.16-41.32,0L238.3,388V527.1l112.41,58.75c6.35,3.38,12.93,6.67,19.37,7.09l1.29,0c6.71,0,13.23-3.37,19.84-6.58l113.47-59.81ZM200,520.85c0,12.11,1.42,20.08,4.23,25.69,2.33,4.65,5.82,8.21,12.21,12.53l.36.25c1.4.94,2.95,1.92,4.82,3.07l2.22,1.36,6.8,4.08-9.76,16-7.61-4.58-1.28-.78c-2.2-1.35-4-2.51-5.72-3.65-18.19-12.21-25-25.51-25.11-53.18v-.84Zm162-217.74a16.76,16.76,0,0,0-2.43,1L239.77,367.07l-.36.2-.1.05.19.11.27.15L359.51,430.5a16.76,16.76,0,0,0,2.43,1Zm18.86,0V431.54a16.29,16.29,0,0,0,2.43-1L503,367.58l.36-.2.1-.06-.19-.1-.27-.15L383.23,304.15A16.29,16.29,0,0,0,380.8,303.11Zm123.88-69.24L397.27,290.31l107.41,56.45ZM238.3,234V346.63l107.17-56.32Zm144.93-83.88c-6.23-3.27-17.49-3.27-23.72,0L239.77,213.05l-.36.2-.1.05.19.11.27.15,119.74,62.92c6.23,3.28,17.49,3.28,23.72,0L503,213.56l.36-.2.1-.06-.19-.1-.27-.15ZM522.38,157,530,161.6l1.28.78c2.2,1.35,4,2.51,5.73,3.66,18.19,12.2,25,25.5,25.1,53.17v.85H543.26c0-12.12-1.42-20.09-4.23-25.7-2.33-4.65-5.82-8.21-12.2-12.53l-.37-.25c-1.4-.94-2.94-1.92-4.82-3.08l-2.21-1.35-6.81-4.08Z"/></g></g></svg>