<svg xmlns="http://www.w3.org/2000/svg" width="32" height="32" fill="none"><circle cx="16" cy="16" r="15" fill="#0E0F10" stroke="#202022" stroke-width="2"/><path fill="#CA2929" d="m15.003 7.545.224-.37.102-.175h.12000000000000001q.22.008.439.008A15 15 0 0 0 16.334 7h.113l.102.175.224.37-.194 5.08.451.585-.605 7.77h-.163v.015q0 .005-.007.005h-.734q-.006 0-.006-.005v-.015h-.165l-.604-7.77.45-.585zM12.573 10.36l.849 3.337-.001.003-1.014 1.083v.004l.948 6.207.258.003.192.001.005.002h.609l.002-.001v-.001l.002-.002v-.003l-.862-12.135q0-.002-.002-.004l-.003-.002h-.004l-.004.003-.973 1.501zM12.63 20.992l-1.712-8.026-.002-.003-.004-.002h-.004l-.004.003-.651.993-.002.003v.003l.685 2.113v.004l-.752 1.04v.003l1.134 3.872.003.003.005.002h1.2999999999999998l.003-.003.001-.002zM8.605 18.367l-.536-.939s0-.014.005-.02l.59-.897.004-.002h.004l.003.001q.002 0 .003.003l1.64 4.478v.004l-.001.002-.003.002-.004.001H8.978l-.01-.003-.007-.008-.918-1.49a.05.05 0 0 1-.002-.033c.02-.065.139-.262.262-.467.14-.233.286-.477.305-.553.007-.027-.003-.08-.003-.08M7.3 20.003l.447.989v.002h-.454L7.273 21s-.5-.008-.82-.005L6 21l.882-.678-.001-.005q0-.003.004-.004l.401-.311.002-.001h.002L7.292 20h.006zM18.354 13.697l.849-3.337-.001-.004-.974-1.501-.004-.003a.01.01 0 0 0-.007.002l-.002.004-.863 12.135v.003l.002.001v.001l.002.001.003.001h.609l.002-.001h.001c0-.001.092-.002.192-.002.122 0 .258-.002.258-.003l.948-6.207v-.003L18.355 13.7zM19.146 20.992l1.712-8.026q0 0 .002-.003l.004-.002h.004q.003 0 .004.003l.651.993.002.003v.003l-.685 2.113v.004l.752 1.04v.003l-1.134 3.872-.003.003-.005.002h-1.2999999999999998l-.003-.003-.001-.002zM23.17 18.367l.537-.939s0-.014-.005-.02l-.59-.897-.004-.002h-.004l-.003.001-.003.003-1.64 4.478v.003q0 .002.002.003l.002.002.004.001h1.332l.01-.003.007-.008.918-1.49a.05.05 0 0 0 .002-.033c-.02-.065-.139-.262-.262-.467-.14-.233-.286-.477-.305-.553a.3.3 0 0 1 .003-.08M24.7 20.003l-.447.989v.002h.454c.009 0 .019.006.019.006s.5-.008.82-.005L26 21l-.882-.678.001-.005-.004-.004-.401-.311-.002-.001h-.002L24.706 20h-.004z"/></svg>