<svg width="394" height="388" xmlns="http://www.w3.org/2000/svg" xmlns:xlink="http://www.w3.org/1999/xlink" xml:space="preserve" overflow="hidden"><defs><clipPath id="clip0"><path d="M401 426C401 318.857 488.976 232 597.5 232 706.024 232 794 318.857 794 426 794 533.143 706.024 620 597.5 620 488.976 620 401 533.143 401 426Z" fill-rule="evenodd" clip-rule="evenodd"/></clipPath></defs><g transform="translate(-400 -232)"><g><g clip-path="url(#clip0)"><g><g><g><path d="M393 0 0 0 0 386.954 393 386.954 393 0Z" fill="#162F29" fill-rule="nonzero" fill-opacity="1" transform="matrix(1 0 0 1.0027 401 232)"/><path d="M253.938 133.015 133.015 133.015 133.015 253.938 253.938 253.938 253.938 133.015Z" fill="#50AF95" fill-rule="nonzero" fill-opacity="1" transform="matrix(1 0 0 1.0027 401 232)"/><path d="M201.473 197.6C201.026 197.632 198.719 197.764 193.572 197.764 189.478 197.764 186.571 197.646 185.551 197.6 169.73 196.931 157.921 194.286 157.921 191.119 157.921 187.953 169.73 185.311 185.551 184.632L185.551 194.965C186.586 195.037 189.549 195.205 193.643 195.205 198.555 195.205 201.015 195.008 201.458 194.969L201.458 184.639C217.246 185.315 229.029 187.96 229.029 191.119 229.029 194.279 217.25 196.924 201.458 197.596L201.473 197.6ZM201.473 183.57 201.473 174.324 223.506 174.324 223.506 160.223 163.519 160.223 163.519 174.324 185.548 174.324 185.548 183.567C167.642 184.357 154.177 187.763 154.177 191.845 154.177 195.927 167.642 199.329 185.548 200.123L185.548 229.754 201.469 229.754 201.469 200.112C219.334 199.322 232.777 195.92 232.777 191.841 232.777 187.763 219.345 184.36 201.469 183.567L201.473 183.57Z" fill="#FFFFFF" fill-rule="evenodd" fill-opacity="1" transform="matrix(1 0 0 1.0027 401 232)"/><path d="M90.6923 356.723 30.2308 356.723 30.2308 386.954 90.6923 386.954 90.6923 356.723Z" fill="#295B4F" fill-rule="nonzero" fill-opacity="1" transform="matrix(1 0 0 1.0027 401 232)"/><path d="M90.6923 102.785 30.2308 102.785 30.2308 133.015 90.6923 133.015 90.6923 102.785Z" fill="#295B4F" fill-rule="nonzero" fill-opacity="1" transform="matrix(1 0 0 1.0027 401 232)"/><path d="M253.938 356.723 133.015 356.723 133.015 386.954 253.938 386.954 253.938 356.723Z" fill="#295B4F" fill-rule="nonzero" fill-opacity="1" transform="matrix(1 0 0 1.0027 401 232)"/><path d="M253.938 102.785 133.015 102.785 133.015 133.015 253.938 133.015 253.938 102.785Z" fill="#295B4F" fill-rule="nonzero" fill-opacity="1" transform="matrix(1 0 0 1.0027 401 232)"/><path d="M393 356.723 332.538 356.723 332.538 386.954 393 386.954 393 356.723Z" fill="#295B4F" fill-rule="nonzero" fill-opacity="1" transform="matrix(1 0 0 1.0027 401 232)"/><path d="M393 102.785 332.538 102.785 332.538 133.015 393 133.015 393 102.785Z" fill="#295B4F" fill-rule="nonzero" fill-opacity="1" transform="matrix(1 0 0 1.0027 401 232)"/><path d="M133.015 326.492 90.6923 326.492 90.6923 356.723 133.015 356.723 133.015 326.492Z" fill="#295B4F" fill-rule="nonzero" fill-opacity="1" transform="matrix(1 0 0 1.0027 401 232)"/><path d="M133.015 72.5538 90.6923 72.5538 90.6923 102.785 133.015 102.785 133.015 72.5538Z" fill="#295B4F" fill-rule="nonzero" fill-opacity="1" transform="matrix(1 0 0 1.0027 401 232)"/><path d="M332.538 326.492 253.938 326.492 253.938 356.723 332.538 356.723 332.538 326.492Z" fill="#295B4F" fill-rule="nonzero" fill-opacity="1" transform="matrix(1 0 0 1.0027 401 232)"/><path d="M332.538 72.5538 253.938 72.5538 253.938 102.785 332.538 102.785 332.538 72.5538Z" fill="#295B4F" fill-rule="nonzero" fill-opacity="1" transform="matrix(1 0 0 1.0027 401 232)"/><path d="M30.2308 326.492 0 326.492 0 356.723 30.2308 356.723 30.2308 326.492Z" fill="#295B4F" fill-rule="nonzero" fill-opacity="1" transform="matrix(1 0 0 1.0027 401 232)"/><path d="M30.2308 72.5538 0 72.5538 0 102.785 30.2308 102.785 30.2308 72.5538Z" fill="#295B4F" fill-rule="nonzero" fill-opacity="1" transform="matrix(1 0 0 1.0027 401 232)"/><path d="M90.6923 253.938 30.2308 253.938 30.2308 326.492 90.6923 326.492 90.6923 253.938Z" fill="#295B4F" fill-rule="nonzero" fill-opacity="1" transform="matrix(1 0 0 1.0027 401 232)"/><path d="M90.6923 0 30.2308 0 30.2308 72.5538 90.6923 72.5538 90.6923 0Z" fill="#295B4F" fill-rule="nonzero" fill-opacity="1" transform="matrix(1 0 0 1.0027 401 232)"/><path d="M133.015 133.015 90.6923 133.015 90.6923 253.938 133.015 253.938 133.015 133.015Z" fill="#295B4F" fill-rule="nonzero" fill-opacity="1" transform="matrix(1 0 0 1.0027 401 232)"/><path d="M30.2308 133.015 0 133.015 0 253.938 30.2308 253.938 30.2308 133.015Z" fill="#295B4F" fill-rule="nonzero" fill-opacity="1" transform="matrix(1 0 0 1.0027 401 232)"/><path d="M253.938 253.938 133.015 253.938 133.015 326.492 253.938 326.492 253.938 253.938Z" fill="#295B4F" fill-rule="nonzero" fill-opacity="1" transform="matrix(1 0 0 1.0027 401 232)"/><path d="M253.938 0 133.015 0 133.015 72.5538 253.938 72.5538 253.938 0Z" fill="#295B4F" fill-rule="nonzero" fill-opacity="1" transform="matrix(1 0 0 1.0027 401 232)"/><path d="M393 253.938 332.538 253.938 332.538 326.492 393 326.492 393 253.938Z" fill="#295B4F" fill-rule="nonzero" fill-opacity="1" transform="matrix(1 0 0 1.0027 401 232)"/><path d="M393 0 332.538 0 332.538 72.5538 393 72.5538 393 0Z" fill="#295B4F" fill-rule="nonzero" fill-opacity="1" transform="matrix(1 0 0 1.0027 401 232)"/><path d="M332.538 133.015 253.938 133.015 253.938 253.938 332.538 253.938 332.538 133.015Z" fill="#295B4F" fill-rule="nonzero" fill-opacity="1" transform="matrix(1 0 0 1.0027 401 232)"/></g></g></g></g></g></g></svg>