<?xml version="1.0" encoding="utf-8"?>
<!-- Generator: Adobe Illustrator 27.0.0, SVG Export Plug-In . SVG Version: 6.00 Build 0)  -->
<svg version="1.1" id="图层_1" xmlns="http://www.w3.org/2000/svg" xmlns:xlink="http://www.w3.org/1999/xlink" x="0px" y="0px"
	 viewBox="0 0 32 32" style="enable-background:new 0 0 32 32;" xml:space="preserve">
<style type="text/css">
	.st0{fill:#12122C;}
</style>
<path class="st0" d="M16.1,20c1.5,0,2.7-0.8,3.5-1.9c7.2-2.5,12.4-5.7,12-7.2c-0.3-1-3-1.2-7-0.6c0.1,0.2,0.3,0.5,0.4,0.7
	c0.1,0.2,0.3,0.3,0.5,0.3c0.9,0.1,1.7,0.2,1.8,0.6c0.2,0.5-0.6,1.3-2,2.1c-0.1-0.2-0.1-0.5-0.2-0.7c-1.5-5-6.7-7.8-11.7-6.3
	c-4,1.2-6.6,4.9-6.7,8.9c0,0.8,0.6,1.5,1.4,1.7c0.7,0.1,1.4,0.2,2.1,0.2c-0.2-0.6-0.3-1.2-0.3-1.9c0-3.4,2.7-6.1,6.1-6.1
	s5.9,2.5,6.1,5.7c-0.6,0.3-1.3,0.5-2,0.8c0-0.1,0-0.3,0-0.4c0-0.5-0.1-0.9-0.2-1.4c-0.3,0.6-1,1.1-1.7,1.1c-1,0-1.9-0.9-1.9-1.9
	c0-0.8,0.4-1.4,1.1-1.7c-0.4-0.1-0.9-0.2-1.3-0.2c-2.3,0-4.1,1.8-4.1,4.1c0,1,0.4,1.9,0.9,2.6c-1.2,0.3-2.4,0.5-3.6,0.6
	c-1.2,0.1-2.4,0.2-3.6,0.2c-0.6,0-1.7-0.1-2-0.7c0,0,0-0.1,0-0.1c-0.1-0.4,0.1-0.9,0.7-1.4c0.1-0.1,0-0.2-0.1-0.2
	c-2.6,1.3-4,2.5-3.8,3.4c0.3,1.1,3.3,1.3,7.6,0.7c2.2,3.5,6.5,5.3,10.6,4c2.8-0.8,4.9-2.8,5.9-5.3c0.4-0.9-0.4-1.9-1.4-1.6
	c-0.5,0.1-1.1,0.2-1.6,0.3c-0.9,2.1-3.1,3.6-5.6,3.6c-1.7,0-3.2-0.7-4.2-1.7c0.8-0.2,1.7-0.4,2.6-0.6C15,19.9,15.5,20,16.1,20
	L16.1,20z"/>
</svg>
