<svg width="40" height="40" viewBox="0 0 40 40" fill="none" xmlns="http://www.w3.org/2000/svg">
<path d="M0.0019455 19.96C0.0019455 30.9836 8.93831 39.9199 19.9619 39.9199C30.9855 39.9199 39.9219 30.9836 39.9219 19.96C39.9219 8.9364 30.9855 0 19.9619 0C8.93831 0 0.0019455 8.9364 0.0019455 19.96Z" fill="#F3945F"/>
<path d="M31.3613 21.728L29.3998 12.7792L21.8004 8.02979C21.4398 10.3232 20.1602 18.484 19.8828 20.2514L26.9017 22.5151C26.9495 22.5161 26.9973 22.5209 27.0451 22.5314C27.0557 22.5343 27.0671 22.5362 27.0786 22.54L31.3613 21.728Z" fill="white"/>
<path d="M21.2068 21.5228L19.3113 20.9117C19.1229 20.8514 19.0072 20.6621 19.0378 20.467L21.0003 7.95654L16.9806 9.29643C16.927 9.3146 16.8696 9.32034 16.8132 9.3146L11.9969 8.83354L10.3223 15.533C11.2997 16.7916 17.9178 25.3158 17.9178 25.3158L21.2068 21.5228Z" fill="white"/>
<path d="M26.1269 23.1106L22.0374 21.7917L18.2042 26.2121C18.1248 26.3039 18.0091 26.3546 17.8886 26.3508C17.769 26.3479 17.6562 26.2905 17.5825 26.1959L9.84064 16.2256L8.02734 17.9748L15.6248 26.1949C15.6401 26.2092 15.6554 26.2236 15.6698 26.2389L20.8285 31.9638L26.1269 23.1106Z" fill="white"/>
<path d="M31.0599 24.9702L30.7672 25.2207C30.6419 25.3298 30.4621 25.3489 30.3158 25.2705L27.6953 23.8684L28.426 30.2618L29.6645 31.8676L31.0599 24.9702Z" fill="white"/>
<path d="M33.0042 22.2363L31.0599 24.9697L30.3359 25.8782L27.7211 24.0946L27.6953 23.2042L33.0042 22.2363Z" fill="white"/>
<path d="M32.9331 30.8556L29.8344 30.802L29.668 31.8684H32.2416L32.9331 30.8556Z" fill="white"/>
<path d="M15.1878 25.7215C13.1612 22.5033 10.8955 19.7059 8.02734 17.9749L9.35193 31.6109L15.1878 25.7215Z" fill="white"/>
<path d="M8.33832 20.6943L6.92383 19.6155L8.54394 22.5391L8.33832 20.6943Z" fill="white"/>
</svg>
