<svg xmlns="http://www.w3.org/2000/svg" width="40" height="40" fill="none"><path fill="#F3945F" d="M.002 19.96c0 11.024 8.936 19.96 19.96 19.96 11.023 0 19.96-8.936 19.96-19.96S30.986 0 19.962 0 .002 8.936.002 19.96"/><path fill="#fff" d="M31.361 21.728 29.4 12.779l-7.6-4.75-1.917 12.222 7.019 2.264a1 1 0 0 1 .143.016l.034.009z"/><path fill="#fff" d="m21.207 21.523-1.896-.611a.4.4 0 0 1-.273-.445L21 7.957l-4.02 1.34q-.08.026-.167.018l-4.816-.481-1.675 6.699 7.596 9.783z"/><path fill="#fff" d="m26.127 23.11-4.09-1.318-3.833 4.42a.4.4 0 0 1-.622-.016l-7.741-9.97-1.814 1.749 7.598 8.22.045.044 5.158 5.725zM31.06 24.97l-.293.25a.4.4 0 0 1-.451.05l-2.62-1.402.73 6.394 1.239 1.606z"/><path fill="#fff" d="M33.004 22.236 31.06 24.97l-.724.908-2.615-1.783-.026-.89zM32.933 30.856l-3.099-.054-.166 1.066h2.574zM15.188 25.722c-2.027-3.219-4.292-6.016-7.16-7.747L9.351 31.61z"/><path fill="#fff" d="m8.338 20.694-1.414-1.078 1.62 2.923z"/></svg>