<svg xmlns="http://www.w3.org/2000/svg" width="256" height="256" fill="none"><g clip-path="url(#a)"><circle cx="128" cy="128" r="128" fill="#7E46F2"/><g filter="url(#b)"><path fill="#fff" d="M133.664 41.057c27.105 0 49.078 22.378 49.078 49.984v28.741c0 27.605-21.973 49.984-49.078 49.984a48.4 48.4 0 0 1-12.328-1.59l.001 3.392c0 20.195-16.152 36.604-36.2 36.93l-.609.005V98.538l.057-.001.001-7.496c0-27.606 21.973-49.984 49.078-49.984m0 37.488c-6.776 0-12.269 5.594-12.269 12.496v28.741c0 6.901 5.493 12.496 12.269 12.496s12.27-5.595 12.27-12.496V91.041c0-6.902-5.494-12.496-12.27-12.496"/></g></g><defs><clipPath id="a"><path fill="#fff" d="M0 0h256v256H0z"/></clipPath><filter id="b" width="108.214" height="177.447" x="84.528" y="41.057" color-interpolation-filters="sRGB" filterUnits="userSpaceOnUse"><feFlood flood-opacity="0" result="BackgroundImageFix"/><feColorMatrix in="SourceAlpha" result="hardAlpha" values="0 0 0 0 0 0 0 0 0 0 0 0 0 0 0 0 0 0 127 0"/><feOffset dx="10" dy="10"/><feComposite in2="hardAlpha" operator="out"/><feColorMatrix values="0 0 0 0 0 0 0 0 0 0 0 0 0 0 0 0 0 0 0.15 0"/><feBlend in2="BackgroundImageFix" result="effect1_dropShadow_1273_2"/><feBlend in="SourceGraphic" in2="effect1_dropShadow_1273_2" result="shape"/></filter></defs></svg>