<svg xmlns="http://www.w3.org/2000/svg" viewBox="168 168 164 164"><circle cx="250" cy="250" r="82" style="stroke:#000;stroke-width:0;fill:#fff"/><g data-name="Layer 2"><g data-name="Layer 1"><path d="M0 0h164v164H0z" class="cls-1" style="fill:none" transform="translate(168 168)"/><path d="m81.993 37.084.014.015-.014.014z" class="cls-2" style="fill:#fc306b" transform="translate(168 168)"/><path d="M92.49 30.743 82.007 37.8l-.014-22.88c0-.507-.391-.797-.71-.565a.97.97 0 0 1 1.637.26Z" class="cls-2" style="fill:#fc306b" transform="translate(168 168)"/><path d="M82.717 149.465a1.08 1.08 0 0 1-1.636-.26L59.349 118.12l22.658 12.56v18.22c0 .493.391.782.71.565" class="cls-3" style="fill:#4f28dd" transform="translate(168 168)"/><path d="M81.993 86.27v27.42L39.47 88.38a2.06 2.06 0 0 1-.912-1.448c0-.058-.015-.116-.015-.174a1.88 1.88 0 0 1 .319-1.114l10.627-17.693Z" class="cls-4" style="fill:#0bb875" transform="translate(168 168)"/><path d="M81.993 112.56v19.357L59.349 118.12 39.47 89.148a5.9 5.9 0 0 1-.912-2.215 2.06 2.06 0 0 0 .912 1.448Z" class="cls-5" style="fill:#1a78d7" transform="translate(168 168)"/><path d="M82.007 37.8 71.51 30.728s9.73-16.346 9.773-16.375c.319-.232.71.058.71.564Z" class="cls-6" style="fill:#e91224" transform="translate(168 168)"/><path d="m82.007 37.099-.014 11.93v12.919L61.043 48.45h-.015L71.51 30.729l10.483 6.355z" class="cls-7" style="fill:#f86e30" transform="translate(168 168)"/><path d="m104.651 118.134-21.731 31.07a.26.26 0 0 1-.073.102.45.45 0 0 1-.13.16c-.319.216-.71-.073-.71-.566v-18.22Z" class="cls-8" style="fill:#827ff4" transform="translate(168 168)"/><path d="M125.457 86.76c0 .057-.015.115-.015.173a2.1 2.1 0 0 1-.912 1.463l-42.523 25.293-.014-27.419 32.518-18.303 10.627 17.678a1.88 1.88 0 0 1 .319 1.115" class="cls-9" style="fill:#74ca38" transform="translate(168 168)"/><path d="M125.442 86.933a5.9 5.9 0 0 1-.912 2.215l-19.879 28.986-22.644 13.798V112.31l42.523-23.915a2.1 2.1 0 0 0 .912-1.463" class="cls-10" style="fill:#53aef9" transform="translate(168 168)"/><path d="m92.483 30.737 10.482 17.714-20.972 13.497.005-24.84Z" class="cls-11" style="fill:#f78f31" transform="translate(168 168)"/><path d="M82.002 60.947v26.22L49.484 67.954l11.554-19.508Z" class="cls-12" style="fill:#feb92f" transform="translate(168 168)"/><path d="m102.962 48.451 11.554 19.508L81.998 87.17V60.951Z" class="cls-13" style="fill:#ffc866" transform="translate(168 168)"/></g></g></svg>