<?xml version="1.0" encoding="utf-8"?>
<svg viewBox="168 168 164 164" xmlns="http://www.w3.org/2000/svg">
  <ellipse style="stroke: rgb(0, 0, 0); stroke-width: 0px; fill: rgb(255, 255, 255);" cx="250" cy="250" rx="82" ry="82"/>
  <g id="Layer_2" data-name="Layer 2" transform="matrix(1, 0, 0, 1, 168, 168)">
    <g id="Layer_1-2" data-name="Layer 1">
      <g id="prisma-icon-colour">
        <rect class="cls-1" width="164" height="164" style="fill: none;"/>
        <polygon class="cls-2" points="81.993 37.084 82.007 37.099 81.993 37.113 81.993 37.084" style="fill: rgb(252, 48, 107);"/>
        <path class="cls-2" d="M92.4895,30.74306,82.00723,37.79921l-.01449-22.881c0-.50671-.39077-.7962-.70942-.56468a.97063.97063,0,0,1,1.63623.26069Z" style="fill: rgb(252, 48, 107);"/>
        <path class="cls-3" d="M82.71665,149.46509a1.07926,1.07926,0,0,1-1.63587-.26069L59.34884,118.11954l22.65839,12.56074v18.22013C82.00723,149.39262,82.39817,149.68212,82.71665,149.46509Z" style="fill: rgb(79, 40, 221);"/>
        <path class="cls-4" d="M81.99274,86.27042v27.41885L39.47017,88.38107a2.06156,2.06156,0,0,1-.91232-1.44783c0-.0578-.01449-.11577-.01449-.17374a1.87742,1.87742,0,0,1,.31866-1.11485L49.489,67.95221Z" style="fill: rgb(11, 184, 117);"/>
        <path class="cls-5" d="M81.99274,112.56027v19.35695l-22.6439-13.79768L39.47017,89.14846a5.85849,5.85849,0,0,1-.91232-2.21522,2.06156,2.06156,0,0,0,.91232,1.44783Z" style="fill: rgb(26, 120, 215);"/>
        <path class="cls-6" d="M82.00723,37.79921,71.51047,30.72857s9.72955-16.34605,9.77285-16.375c.31865-.23152.70942.058.70942.56468Z" style="fill: rgb(233, 18, 36);"/>
        <polygon class="cls-7" points="82.007 37.099 81.993 49.029 81.993 61.948 61.043 48.45 61.028 48.45 71.51 30.729 81.993 37.084 82.007 37.099" style="fill: rgb(248, 110, 48);"/>
        <path class="cls-8" d="M104.65148,118.134,82.91955,149.2044a.25816.25816,0,0,1-.07246.10127.45313.45313,0,0,1-.13044.15942c-.31848.217-.70942-.07247-.70942-.56468V130.68028Z" style="fill: rgb(130, 127, 244);"/>
        <path class="cls-9" d="M125.45661,86.7595c0,.058-.01449.11594-.01449.17374a2.0892,2.0892,0,0,1-.912,1.46232L82.00723,113.68927l-.01449-27.41885L114.51111,67.9667l10.627,17.67795A1.8761,1.8761,0,0,1,125.45661,86.7595Z" style="fill: rgb(116, 202, 56);"/>
        <path class="cls-10" d="M125.44212,86.93324a5.85731,5.85731,0,0,1-.912,2.21522L104.65148,118.134,82.00723,131.93171v-19.621l42.52292-23.91512A2.0892,2.0892,0,0,0,125.44212,86.93324Z" style="fill: rgb(83, 174, 249);"/>
        <path class="cls-11" d="M92.483,30.73659l10.48178,17.71483-20.972,13.49609.0057-24.83892Z" style="fill: rgb(247, 143, 49);"/>
        <path class="cls-12" d="M82.00177,60.94718v26.219L49.48394,67.95482,61.03835,48.44734Z" style="fill: rgb(254, 185, 47);"/>
        <path class="cls-13" d="M102.96185,48.45127l11.55442,19.50748L81.99844,87.17015v-26.219Z" style="fill: rgb(255, 200, 102);"/>
      </g>
    </g>
  </g>
</svg>