<svg xmlns="http://www.w3.org/2000/svg" viewBox="0 0 741 741"><defs><linearGradient id="a" x1="171.06" x2="-456.1" y1="-2473.16" y2="-2111.08" gradientTransform="translate(513 2662.58)" gradientUnits="userSpaceOnUse"><stop offset="0" stop-color="#fff"/><stop offset="1" stop-color="#999"/></linearGradient><linearGradient id="b" x1="-297.07" x2=".78" y1="-3308.53" y2="-3606.38" gradientTransform="matrix(1 0 0 -1 513 -3089.02)" gradientUnits="userSpaceOnUse"><stop offset="0" stop-color="#8197ee"/><stop offset=".16" stop-color="#748dec"/><stop offset=".79" stop-color="#6681ea"/><stop offset=".9" stop-color="#6681ea"/><stop offset=".99" stop-color="#627eea"/></linearGradient><linearGradient id="c" x1="6097.71" x2="6294.68" y1="-2056.78" y2="-2253.73" gradientTransform="scale(-1 1)rotate(-5.14 32661.476 72209.123)" gradientUnits="userSpaceOnUse"><stop offset="0" stop-color="#8197ee"/><stop offset=".24" stop-color="#748dec"/><stop offset=".43" stop-color="#6681ea"/><stop offset=".99" stop-color="#627eea"/></linearGradient><linearGradient id="d" x1="382.46" x2="579.43" y1="-3701.41" y2="-3898.37" gradientTransform="scale(1 -1)rotate(-5.14 40042.029 -1004.932)" gradientUnits="userSpaceOnUse"><stop offset="0" stop-color="#8197ee"/><stop offset=".24" stop-color="#748dec"/><stop offset=".45" stop-color="#6681ea"/><stop offset=".99" stop-color="#627eea"/></linearGradient></defs><path d="M370.5 732.5C170.52 732.37 8.51 570.14 8.64 370.16 8.74 224.81 95.74 93.6 229.6 36.94c184.47-77.23 396.62 9.71 473.84 194.18 76.88 183.64-8.9 394.89-192.04 472.94a359.9 359.9 0 0 1-140.9 28.44" style="fill:url(#a)"/><path d="M370.5 17c195.29.13 353.49 158.56 353.36 353.84-.1 141.94-85.06 270.06-215.77 325.39-180.19 75.28-387.3-9.77-462.58-189.96-74.87-179.19 8.8-385.23 187.4-461.5A351.2 351.2 0 0 1 370.5 17m0-17C165.88 0 0 165.88 0 370.5S165.88 741 370.5 741 741 575.12 741 370.5 575.12 0 370.5 0" style="fill:#fff"/><path d="m523.11 330-33.92-62.85-13.05-2.6-64.79-90.22s-64.56 5.52-125 21.25c-37.45-1.68-69 10.32-90.81 34.82C149 282.7 156.65 363 211.89 412l33.92 62.91 13 2.6 64.73 90.22s64.58-5.5 125-21.25c37.45 1.68 69-10.33 90.81-34.82 46.7-52.34 39.01-132.59-16.24-181.66" style="fill:url(#b)"/><path d="M539.44 511.58c-39.58 33.05-98.46 27.76-131.51-11.82L344.72 424c-33.35-39.98-92.8-45.35-132.78-12h-.05c-39.41 33-43.75 91.95-10.62 131.62 81.98 98.32 222.93 81.38 338.17-32.04" style="fill:url(#c)"/><path d="M195.56 230.52c39.59-33.06 98.48-27.77 131.54 11.82L390.3 318c33.33 39.99 92.77 45.39 132.76 12.06h.05c39.41-33 43.75-92 10.64-131.62-82.08-98.36-222.91-81.44-338.19 32.08" style="fill:url(#d)"/></svg>