<svg id="Layer_2" xmlns="http://www.w3.org/2000/svg" xmlns:xlink="http://www.w3.org/1999/xlink" viewBox="0 0 741 741"><defs><style>.cls-1{fill:url(#linear-gradient);}.cls-2{fill:#fff;}.cls-3{fill:url(#linear-gradient-3);}.cls-4{fill:url(#linear-gradient-4);}.cls-5{fill:url(#linear-gradient-2);}</style><linearGradient id="linear-gradient" x1="171.06" y1="-2473.16" x2="-456.1" y2="-2111.08" gradientTransform="translate(513 2662.58)" gradientUnits="userSpaceOnUse"><stop offset="0" stop-color="#fff"/><stop offset="1" stop-color="#999"/></linearGradient><linearGradient id="linear-gradient-2" x1="-297.07" y1="-3308.53" x2=".78" y2="-3606.38" gradientTransform="translate(513 -3089.02) scale(1 -1)" gradientUnits="userSpaceOnUse"><stop offset="0" stop-color="#8197ee"/><stop offset=".16" stop-color="#748dec"/><stop offset=".79" stop-color="#6681ea"/><stop offset=".9" stop-color="#6681ea"/><stop offset=".99" stop-color="#627eea"/></linearGradient><linearGradient id="linear-gradient-3" x1="6097.71" y1="-2056.78" x2="6294.68" y2="-2253.73" gradientTransform="translate(6337.85 3216.5) rotate(-174.86) scale(1 -1)" gradientUnits="userSpaceOnUse"><stop offset="0" stop-color="#8197ee"/><stop offset=".24" stop-color="#748dec"/><stop offset=".43" stop-color="#6681ea"/><stop offset=".99" stop-color="#627eea"/></linearGradient><linearGradient id="linear-gradient-4" x1="382.46" y1="-3701.41" x2="579.43" y2="-3898.37" gradientTransform="translate(251.05 -3583.31) rotate(5.14) scale(1 -1)" gradientUnits="userSpaceOnUse"><stop offset="0" stop-color="#8197ee"/><stop offset=".24" stop-color="#748dec"/><stop offset=".45" stop-color="#6681ea"/><stop offset=".99" stop-color="#627eea"/></linearGradient></defs><g id="Layer_2-2"><g id="Layer_2-2"><g id="Layer_2-3"><g id="Layer_1-2"><path class="cls-1" d="M370.5,732.5c-199.98-.13-361.99-162.36-361.86-362.34,.1-145.35,87.1-276.56,220.96-333.22,184.47-77.23,396.62,9.71,473.84,194.18,76.88,183.64-8.9,394.89-192.04,472.94-44.58,18.86-92.5,28.53-140.9,28.44h0Z"/><path class="cls-2" d="M370.5,17c195.29,.13,353.49,158.56,353.36,353.84-.1,141.94-85.06,270.06-215.77,325.39-180.19,75.28-387.3-9.77-462.58-189.96C-29.36,327.08,54.31,121.04,232.91,44.77c43.53-18.42,90.33-27.87,137.59-27.77m0-17C165.88,0,0,165.88,0,370.5s165.88,370.5,370.5,370.5,370.5-165.88,370.5-370.5S575.12,0,370.5,0Z"/><g id="Layer_2-2-2"><g id="graphics"><path class="cls-5" d="M523.11,330l-33.92-62.85-13.05-2.6-64.79-90.22s-64.56,5.52-125,21.25c-37.45-1.68-69,10.32-90.81,34.82-46.54,52.3-38.89,132.6,16.35,181.6h0l33.92,62.91,13,2.6,64.73,90.22s64.58-5.5,125-21.25c37.45,1.68,69-10.33,90.81-34.82,46.7-52.34,39.01-132.59-16.24-181.66h0Z"/><path class="cls-3" d="M539.44,511.58c-39.58,33.05-98.46,27.76-131.51-11.82h0l-63.21-75.76c-33.35-39.98-92.8-45.35-132.78-12h-.05c-39.41,33-43.75,91.95-10.62,131.62,81.98,98.32,222.93,81.38,338.17-32.04Z"/><path class="cls-4" d="M195.56,230.52c39.59-33.06,98.48-27.77,131.54,11.82l63.2,75.66c33.33,39.99,92.77,45.39,132.76,12.06h.05c39.41-33,43.75-92,10.64-131.62-82.08-98.36-222.91-81.44-338.19,32.08Z"/></g></g></g></g></g></g></svg>