<svg xmlns="http://www.w3.org/2000/svg" viewBox="0 0 433 433" version="1.1" width="433px" height="433px" style="shape-rendering:geometricPrecision; text-rendering:geometricPrecision; image-rendering:optimizeQuality; fill-rule:evenodd; clip-rule:evenodd" xmlns:xlink="http://www.w3.org/1999/xlink">
<g><circle cx="15" cy="15" r="15" /></g>
<g><path style="opacity:0.956" fill="#042520" d="M 359.5,378.5 C 359.056,370.666 356.889,363.333 353,356.5C 349.22,351.143 344.72,350.309 339.5,354C 344.147,356.106 347.314,359.606 349,364.5C 350.496,371.148 351.662,377.815 352.5,384.5C 342.397,393.061 331.397,400.394 319.5,406.5C 285.962,409.882 253.962,418.549 223.5,432.5C 214.167,432.5 204.833,432.5 195.5,432.5C 177.197,430.26 159.197,426.093 141.5,420C 136.604,418.101 131.937,415.935 127.5,413.5C 122.415,398.391 126.749,387.224 140.5,380C 134.05,377.703 128.883,379.536 125,385.5C 120.902,393.308 119.402,401.642 120.5,410.5C 118.83,410.249 117.33,409.582 116,408.5C 114.029,396.655 117.195,386.489 125.5,378C 115.928,375.065 106.428,371.898 97,368.5C 93.7455,371.891 91.4122,375.891 90,380.5C 87.7711,383.156 85.9378,382.823 84.5,379.5C 86.3627,374.941 88.3627,370.441 90.5,366C 84.2836,362.458 78.6169,358.125 73.5,353C 72.0922,352.685 70.7589,353.018 69.5,354C 65.6438,357.357 61.6438,360.524 57.5,363.5C 55.0544,362.573 54.2211,360.906 55,358.5C 59.3549,354.644 63.8549,350.977 68.5,347.5C 64.7789,342.393 62.4455,336.726 61.5,330.5C 62.843,328.216 62.1764,327.383 59.5,328C 54.5647,330.053 49.7313,332.22 45,334.5C 43.0287,334.719 41.8621,333.885 41.5,332C 42.34,330.233 43.6734,328.899 45.5,328C 49.1756,326.162 52.8422,324.329 56.5,322.5C 52.6588,317.311 50.3254,311.477 49.5,305C 53.3502,294.447 56.1835,283.613 58,272.5C 58.9921,258.93 60.4921,245.43 62.5,232C 39.9907,181.86 37.4907,130.693 55,78.5C 57.8211,71.3406 62.8211,66.674 70,64.5C 73.2334,64.7002 76.0667,65.8668 78.5,68C 105.178,86.6744 128.678,108.841 149,134.5C 149.893,135.081 150.893,135.415 152,135.5C 181.092,127.654 210.592,123.321 240.5,122.5C 247.744,107.668 256.244,93.6677 266,80.5C 279.133,65.6989 292.633,51.1989 306.5,37C 314.355,31.7618 321.522,32.5951 328,39.5C 350.585,74.5943 362.752,113.094 364.5,155C 364.096,162.793 363.096,170.46 361.5,178C 371.895,198.181 379.728,219.348 385,241.5C 389.077,250.653 393.41,259.653 398,268.5C 404.06,267.05 410.227,266.55 416.5,267C 417.833,268.667 417.833,270.333 416.5,272C 409.772,272.384 403.105,273.218 396.5,274.5C 394.339,279.492 391.672,284.159 388.5,288.5C 390.578,290.39 391.911,292.724 392.5,295.5C 400.813,296.332 409.147,296.832 417.5,297C 416.833,298.333 416.167,299.667 415.5,301C 407.479,301.168 399.479,301.668 391.5,302.5C 388.882,309.571 384.882,315.737 379.5,321C 386.36,322.762 393.027,325.096 399.5,328C 400.946,330.493 400.279,332.327 397.5,333.5C 390.086,330.529 382.586,327.862 375,325.5C 367.77,334.03 359.603,341.53 350.5,348C 359.283,354.994 363.449,364.161 363,375.5C 361.961,376.71 360.794,377.71 359.5,378.5 Z"/></g>
<g><path style="opacity:1" fill="#f8f9f9" d="M 365.5,199.5 C 365.155,202.198 363.822,204.198 361.5,205.5C 359.302,198.741 356.802,192.074 354,185.5C 350.311,179.001 346.478,172.667 342.5,166.5C 344.628,168.403 346.961,170.069 349.5,171.5C 351.069,170.286 351.902,168.619 352,166.5C 351.846,133.094 345.846,100.76 334,69.5C 332.311,65.4401 330.144,61.7734 327.5,58.5C 327.5,57.8333 327.5,57.1667 327.5,56.5C 326.206,49.8874 322.54,45.2207 316.5,42.5C 315.062,42.7189 313.729,43.2189 312.5,44C 306.59,49.2392 301.423,55.0725 297,61.5C 287.682,82.9705 277.182,103.804 265.5,124C 258.842,124.5 252.175,124.666 245.5,124.5C 254.726,104.776 266.56,86.776 281,70.5C 290.864,60.9705 300.364,51.1371 309.5,41C 313.258,38.1312 317.258,37.7979 321.5,40C 328.964,48.4133 334.797,57.9133 339,68.5C 355.921,104.43 362.254,142.097 358,181.5C 361.192,187.252 363.692,193.252 365.5,199.5 Z"/></g>
<g><path style="opacity:1" fill="#0a2925" d="M 319.5,51.5 C 310.83,56.6701 303.997,63.6701 299,72.5C 291.513,88.6322 285.013,105.132 279.5,122C 283.458,121.245 287.458,120.245 291.5,119C 305.298,116.734 308.298,121.568 300.5,133.5C 306.884,134.127 313.217,134.96 319.5,136C 320.753,139.1 320.42,142.1 318.5,145C 319.356,147.354 321.023,148.854 323.5,149.5C 324.429,150.689 324.762,152.022 324.5,153.5C 315.531,152.218 312.865,147.552 316.5,139.5C 307.871,138.579 299.371,138.579 291,139.5C 290.333,138.833 290.333,138.167 291,137.5C 295.705,133.412 298.872,128.412 300.5,122.5C 292.127,122.927 284.127,124.927 276.5,128.5C 275.28,128.113 274.613,127.28 274.5,126C 279.834,105.665 287.334,86.1651 297,67.5C 302.061,59.4385 308.727,53.1052 317,48.5C 318.749,48.7483 319.582,49.7483 319.5,51.5 Z"/></g>
<g><path style="opacity:1" fill="#da799e" d="M 319.5,51.5 C 322.681,52.3485 325.348,54.0152 327.5,56.5C 327.5,57.1667 327.5,57.8333 327.5,58.5C 326.263,87.0551 328.097,115.388 333,143.5C 334.707,149.997 336.874,156.33 339.5,162.5C 339.376,163.107 339.043,163.44 338.5,163.5C 333.531,160.522 328.865,157.189 324.5,153.5C 324.762,152.022 324.429,150.689 323.5,149.5C 321.023,148.854 319.356,147.354 318.5,145C 320.42,142.1 320.753,139.1 319.5,136C 313.217,134.96 306.884,134.127 300.5,133.5C 308.298,121.568 305.298,116.734 291.5,119C 287.458,120.245 283.458,121.245 279.5,122C 285.013,105.132 291.513,88.6322 299,72.5C 303.997,63.6701 310.83,56.6701 319.5,51.5 Z"/></g>
<g><path style="opacity:1" fill="#f7b1cc" d="M 327.5,58.5 C 330.144,61.7734 332.311,65.4401 334,69.5C 345.846,100.76 351.846,133.094 352,166.5C 351.902,168.619 351.069,170.286 349.5,171.5C 346.961,170.069 344.628,168.403 342.5,166.5C 341.128,165.488 339.795,164.488 338.5,163.5C 339.043,163.44 339.376,163.107 339.5,162.5C 336.874,156.33 334.707,149.997 333,143.5C 328.097,115.388 326.263,87.0551 327.5,58.5 Z"/></g>
<g><path style="opacity:1" fill="#fdfefe" d="M 142.5,141.5 C 128.985,125.478 114.485,110.145 99,95.5C 108.769,117.394 117.769,139.727 126,162.5C 133.22,157.307 141.053,153.307 149.5,150.5C 149.833,150.5 150.167,150.5 150.5,150.5C 152.27,161.647 156.103,171.98 162,181.5C 163.044,180.377 163.71,179.044 164,177.5C 164.911,166.85 165.411,156.184 165.5,145.5C 168.763,144.518 172.097,143.851 175.5,143.5C 176.583,161.003 179.083,178.336 183,195.5C 183.673,199.02 184.84,202.353 186.5,205.5C 187.79,203.343 188.624,201.01 189,198.5C 192.271,178.765 195.771,159.099 199.5,139.5C 200.167,139.5 200.5,139.167 200.5,138.5C 204.833,138.5 209.167,138.5 213.5,138.5C 213.334,144.176 213.501,149.843 214,155.5C 214.049,160.032 214.882,164.366 216.5,168.5C 221.086,158.744 225.086,148.744 228.5,138.5C 289.66,139.056 326.993,169.056 340.5,228.5C 334.505,234.64 327.505,239.474 319.5,243C 318.663,244.011 318.33,245.178 318.5,246.5C 327.241,246.673 335.907,246.006 344.5,244.5C 345.802,253.826 345.802,263.16 344.5,272.5C 344.5,272.833 344.5,273.167 344.5,273.5C 336.447,273.225 328.447,273.725 320.5,275C 316.675,276.768 316.675,278.768 320.5,281C 327.27,283.942 334.27,286.109 341.5,287.5C 333.571,310.6 318.905,328.1 297.5,340C 278.537,350.148 258.537,357.481 237.5,362C 221.914,364.875 206.247,367.209 190.5,369C 166.644,370.634 142.977,369.301 119.5,365C 113.701,363.477 108.034,361.644 102.5,359.5C 103.871,357.133 105.871,355.467 108.5,354.5C 109.429,353.311 109.762,351.978 109.5,350.5C 108.127,350.343 106.793,350.51 105.5,351C 102.669,353.001 100.003,355.167 97.5,357.5C 90.6848,354.927 84.3515,351.594 78.5,347.5C 84.0731,344.365 90.0731,342.532 96.5,342C 97.3366,340.989 97.67,339.822 97.5,338.5C 88.9266,338.302 81.0933,340.635 74,345.5C 73.6012,345.272 73.4346,344.938 73.5,344.5C 78.9212,337.987 83.5878,330.987 87.5,323.5C 88.1667,323.5 88.5,323.167 88.5,322.5C 89.6006,321.152 90.6006,319.652 91.5,318C 91.1667,317.667 90.8333,317.333 90.5,317C 86.2734,316.542 82.2734,317.042 78.5,318.5C 73.63,318.84 68.7966,319.507 64,320.5C 61.7448,320.39 60.0781,319.39 59,317.5C 56.6568,313.814 55.1568,309.814 54.5,305.5C 56.7146,298.86 58.7146,292.193 60.5,285.5C 69.8143,285.356 78.8143,283.69 87.5,280.5C 88.6139,279.277 88.7805,277.944 88,276.5C 80.3637,269.865 73.0304,262.865 66,255.5C 65.5012,251.514 65.3345,247.514 65.5,243.5C 67.3351,223.841 74.1685,206.174 86,190.5C 86.765,188.934 86.5983,187.601 85.5,186.5C 87.5,182.833 89.5,179.167 91.5,175.5C 93.9118,175.306 94.9118,173.973 94.5,171.5C 91.1934,171.937 88.1934,171.27 85.5,169.5C 87.4161,167.683 89.7494,166.516 92.5,166C 96.4882,165.718 100.321,164.885 104,163.5C 104.315,162.092 103.982,160.759 103,159.5C 101.167,158.333 99.3333,157.167 97.5,156C 102.788,156.272 108.122,156.439 113.5,156.5C 106.255,129.846 94.5886,105.346 78.5,83C 71.6699,77.3518 66.6699,78.5185 63.5,86.5C 63.5427,87.4164 63.8761,88.0831 64.5,88.5C 54.1691,126.738 53.8358,165.072 63.5,203.5C 61.7028,204.73 59.7028,205.396 57.5,205.5C 48.9458,179.533 46.1125,152.867 49,125.5C 50.8688,108.942 54.8688,92.9422 61,77.5C 62.7932,74.7047 64.9598,72.2047 67.5,70C 70.5505,69.1433 73.2172,69.81 75.5,72C 98.8456,89.3399 120.346,108.84 140,130.5C 141.697,132.699 143.197,135.032 144.5,137.5C 143.147,138.524 142.48,139.857 142.5,141.5 Z"/></g>
<g><path style="opacity:1" fill="#0e2a26" d="M 91.5,175.5 C 86.8759,175.684 83.2092,174.018 80.5,170.5C 80.3915,168.486 81.0582,166.82 82.5,165.5C 87.1333,162.923 92.1333,161.423 97.5,161C 95.0829,159.374 92.5829,157.874 90,156.5C 89.2797,154.888 89.4464,153.388 90.5,152C 96.5206,151.67 102.521,151.67 108.5,152C 101.5,132.499 92.9998,113.666 83,95.5C 80.2865,91.9084 77.4532,88.4084 74.5,85C 70.9318,82.5774 68.5984,83.4107 67.5,87.5C 66.791,88.404 65.791,88.7373 64.5,88.5C 63.8761,88.0831 63.5427,87.4164 63.5,86.5C 66.6699,78.5185 71.6699,77.3518 78.5,83C 94.5886,105.346 106.255,129.846 113.5,156.5C 108.122,156.439 102.788,156.272 97.5,156C 99.3333,157.167 101.167,158.333 103,159.5C 103.982,160.759 104.315,162.092 104,163.5C 100.321,164.885 96.4882,165.718 92.5,166C 89.7494,166.516 87.4161,167.683 85.5,169.5C 88.1934,171.27 91.1934,171.937 94.5,171.5C 94.9118,173.973 93.9118,175.306 91.5,175.5 Z"/></g>
<g><path style="opacity:1" fill="#d6789c" d="M 82.5,165.5 C 84.5236,156.215 86.3569,146.882 88,137.5C 90.0762,124.733 87.4096,113.066 80,102.5C 76.3455,97.0176 72.1789,92.0176 67.5,87.5C 68.5984,83.4107 70.9318,82.5774 74.5,85C 77.4532,88.4084 80.2865,91.9084 83,95.5C 92.9998,113.666 101.5,132.499 108.5,152C 102.521,151.67 96.5206,151.67 90.5,152C 89.4464,153.388 89.2797,154.888 90,156.5C 92.5829,157.874 95.0829,159.374 97.5,161C 92.1333,161.423 87.1333,162.923 82.5,165.5 Z"/></g>
<g><path style="opacity:1" fill="#f7b0cb" d="M 67.5,87.5 C 72.1789,92.0176 76.3455,97.0176 80,102.5C 87.4096,113.066 90.0762,124.733 88,137.5C 86.3569,146.882 84.5236,156.215 82.5,165.5C 81.0582,166.82 80.3915,168.486 80.5,170.5C 77.0112,182.476 71.6779,193.476 64.5,203.5C 64.1667,203.5 63.8333,203.5 63.5,203.5C 53.8358,165.072 54.1691,126.738 64.5,88.5C 65.791,88.7373 66.791,88.404 67.5,87.5 Z"/></g>
<g><path style="opacity:1" fill="#88d4ee" d="M 327.5,56.5 C 325.348,54.0152 322.681,52.3485 319.5,51.5C 319.582,49.7483 318.749,48.7483 317,48.5C 308.727,53.1052 302.061,59.4385 297,67.5C 287.334,86.1651 279.834,105.665 274.5,126C 274.613,127.28 275.28,128.113 276.5,128.5C 284.127,124.927 292.127,122.927 300.5,122.5C 298.872,128.412 295.705,133.412 291,137.5C 290.333,138.167 290.333,138.833 291,139.5C 299.371,138.579 307.871,138.579 316.5,139.5C 312.865,147.552 315.531,152.218 324.5,153.5C 328.865,157.189 333.531,160.522 338.5,163.5C 339.795,164.488 341.128,165.488 342.5,166.5C 346.478,172.667 350.311,179.001 354,185.5C 356.802,192.074 359.302,198.741 361.5,205.5C 361.5,205.833 361.5,206.167 361.5,206.5C 355.913,214.757 349.246,222.09 341.5,228.5C 341.167,228.5 340.833,228.5 340.5,228.5C 326.993,169.056 289.66,139.056 228.5,138.5C 228.5,138.167 228.5,137.833 228.5,137.5C 229.719,134.709 231.052,131.876 232.5,129C 236.356,128.823 240.023,128.323 243.5,127.5C 243.932,126.29 244.599,125.29 245.5,124.5C 252.175,124.666 258.842,124.5 265.5,124C 277.182,103.804 287.682,82.9705 297,61.5C 301.423,55.0725 306.59,49.2392 312.5,44C 313.729,43.2189 315.062,42.7189 316.5,42.5C 322.54,45.2207 326.206,49.8874 327.5,56.5 Z"/></g>
<g><path style="opacity:1" fill="#89d5ef" d="M 142.5,141.5 C 144.451,142.641 146.451,142.641 148.5,141.5C 149.477,144.287 149.81,147.287 149.5,150.5C 141.053,153.307 133.22,157.307 126,162.5C 117.769,139.727 108.769,117.394 99,95.5C 114.485,110.145 128.985,125.478 142.5,141.5 Z"/></g>
<g><path style="opacity:1" fill="#375766" d="M 243.5,127.5 C 240.023,128.323 236.356,128.823 232.5,129C 231.052,131.876 229.719,134.709 228.5,137.5C 223.833,137.5 219.167,137.5 214.5,137.5C 214.5,134.5 214.5,131.5 214.5,128.5C 224.134,127.608 233.801,127.275 243.5,127.5 Z"/></g>
<g><path style="opacity:1" fill="#87d0ea" d="M 210.5,129.5 C 211.5,129.5 212.5,129.5 213.5,129.5C 213.5,132.5 213.5,135.5 213.5,138.5C 209.167,138.5 204.833,138.5 200.5,138.5C 200.5,135.833 200.5,133.167 200.5,130.5C 203.764,129.676 207.098,129.342 210.5,129.5 Z"/></g>
<g><path style="opacity:1" fill="#3a5868" d="M 200.5,130.5 C 200.5,133.167 200.5,135.833 200.5,138.5C 200.5,139.167 200.167,139.5 199.5,139.5C 191.4,139.72 183.4,140.72 175.5,142.5C 175.802,139.941 175.468,137.607 174.5,135.5C 182.996,133.602 191.663,131.935 200.5,130.5 Z"/></g>
<g><path style="opacity:1" fill="#85d0ea" d="M 174.5,135.5 C 175.468,137.607 175.802,139.941 175.5,142.5C 175.5,142.833 175.5,143.167 175.5,143.5C 172.097,143.851 168.763,144.518 165.5,145.5C 165.5,142.833 165.5,140.167 165.5,137.5C 168.37,136.366 171.37,135.7 174.5,135.5 Z"/></g>
<g><path style="opacity:1" fill="#3b5a6a" d="M 165.5,137.5 C 165.5,140.167 165.5,142.833 165.5,145.5C 160.426,146.969 155.426,148.636 150.5,150.5C 150.167,150.5 149.833,150.5 149.5,150.5C 149.81,147.287 149.477,144.287 148.5,141.5C 153.998,139.93 159.665,138.597 165.5,137.5 Z"/></g>
<g><path style="opacity:1" fill="#a2aaaf" d="M 210.5,129.5 C 211.568,128.566 212.901,128.232 214.5,128.5C 214.5,131.5 214.5,134.5 214.5,137.5C 219.167,137.5 223.833,137.5 228.5,137.5C 228.5,137.833 228.5,138.167 228.5,138.5C 225.086,148.744 221.086,158.744 216.5,168.5C 214.882,164.366 214.049,160.032 214,155.5C 213.501,149.843 213.334,144.176 213.5,138.5C 213.5,135.5 213.5,132.5 213.5,129.5C 212.5,129.5 211.5,129.5 210.5,129.5 Z"/></g>
<g><path style="opacity:1" fill="#a4abaf" d="M 199.5,139.5 C 195.771,159.099 192.271,178.765 189,198.5C 188.624,201.01 187.79,203.343 186.5,205.5C 184.84,202.353 183.673,199.02 183,195.5C 179.083,178.336 176.583,161.003 175.5,143.5C 175.5,143.167 175.5,142.833 175.5,142.5C 183.4,140.72 191.4,139.72 199.5,139.5 Z"/></g>
<g><path style="opacity:1" fill="#a6adb1" d="M 165.5,145.5 C 165.411,156.184 164.911,166.85 164,177.5C 163.71,179.044 163.044,180.377 162,181.5C 156.103,171.98 152.27,161.647 150.5,150.5C 155.426,148.636 160.426,146.969 165.5,145.5 Z"/></g>
<g><path style="opacity:1" fill="#d87a9e" d="M 80.5,170.5 C 83.2092,174.018 86.8759,175.684 91.5,175.5C 89.5,179.167 87.5,182.833 85.5,186.5C 83.629,186.859 82.129,187.859 81,189.5C 75.9483,197.608 71.4483,205.941 67.5,214.5C 66.2967,210.89 65.2967,207.223 64.5,203.5C 71.6779,193.476 77.0112,182.476 80.5,170.5 Z"/></g>
<g><path style="opacity:1" fill="#9ea6aa" d="M 365.5,199.5 C 371.477,211.1 375.477,223.433 377.5,236.5C 375.5,237.167 373.5,237.833 371.5,238.5C 371.167,238.5 370.833,238.5 370.5,238.5C 368.097,227.541 365.097,216.874 361.5,206.5C 361.5,206.167 361.5,205.833 361.5,205.5C 363.822,204.198 365.155,202.198 365.5,199.5 Z"/></g>
<g><path style="opacity:1" fill="#87cee8" d="M 63.5,203.5 C 63.8333,203.5 64.1667,203.5 64.5,203.5C 65.2967,207.223 66.2967,210.89 67.5,214.5C 67.1014,217.696 66.1014,220.696 64.5,223.5C 61.3783,217.801 59.045,211.801 57.5,205.5C 59.7028,205.396 61.7028,204.73 63.5,203.5 Z"/></g>
<g><path style="opacity:1" fill="#3b596a" d="M 361.5,206.5 C 365.097,216.874 368.097,227.541 370.5,238.5C 362.082,241.102 353.415,243.102 344.5,244.5C 343.715,239.124 342.715,233.791 341.5,228.5C 349.246,222.09 355.913,214.757 361.5,206.5 Z"/></g>
<g><path style="opacity:1" fill="#a4abaf" d="M 340.5,228.5 C 340.833,228.5 341.167,228.5 341.5,228.5C 342.715,233.791 343.715,239.124 344.5,244.5C 335.907,246.006 327.241,246.673 318.5,246.5C 318.33,245.178 318.663,244.011 319.5,243C 327.505,239.474 334.505,234.64 340.5,228.5 Z"/></g>
<g><path style="opacity:1" fill="#f8f9f9" d="M 377.5,236.5 C 380.763,244.596 384.43,252.596 388.5,260.5C 388.586,261.496 388.252,262.329 387.5,263C 385.359,263.573 383.359,264.406 381.5,265.5C 381.167,265.5 380.833,265.5 380.5,265.5C 376.103,256.977 373.103,247.977 371.5,238.5C 373.5,237.833 375.5,237.167 377.5,236.5 Z"/></g>
<g><path style="opacity:1" fill="#042520" d="M 276.5,237.5 C 286.803,236.968 294.303,241.301 299,250.5C 305.432,263.497 304.932,276.163 297.5,288.5C 291.132,294.071 284.132,294.905 276.5,291C 264.358,279.562 260.525,265.729 265,249.5C 267.691,244.311 271.524,240.311 276.5,237.5 Z"/></g>
<g><path style="opacity:1" fill="#88d4ee" d="M 370.5,238.5 C 370.833,238.5 371.167,238.5 371.5,238.5C 373.103,247.977 376.103,256.977 380.5,265.5C 368.828,269.335 356.828,271.668 344.5,272.5C 345.802,263.16 345.802,253.826 344.5,244.5C 353.415,243.102 362.082,241.102 370.5,238.5 Z"/></g>
<g><path style="opacity:1" fill="#f6f7f7" d="M 280.5,246.5 C 289.491,244.993 293.325,248.66 292,257.5C 286.67,264.311 281.67,263.977 277,256.5C 276.333,254.5 276.333,252.5 277,250.5C 278.376,249.295 279.542,247.962 280.5,246.5 Z"/></g>
<g><path style="opacity:1" fill="#a2aaad" d="M 65.5,243.5 C 65.3345,247.514 65.5012,251.514 66,255.5C 73.0304,262.865 80.3637,269.865 88,276.5C 88.7805,277.944 88.6139,279.277 87.5,280.5C 78.8143,283.69 69.8143,285.356 60.5,285.5C 62.8369,271.438 64.5036,257.438 65.5,243.5 Z"/></g>
<g><path style="opacity:1" fill="#052621" d="M 119.5,261.5 C 131.794,261.277 139.294,267.277 142,279.5C 145.22,291.45 142.72,301.95 134.5,311C 126.159,315.266 119.326,313.433 114,305.5C 108.422,295.029 107.089,284.029 110,272.5C 111.798,267.518 114.965,263.851 119.5,261.5 Z"/></g>
<g><path style="opacity:1" fill="#a3aaae" d="M 388.5,260.5 C 390.868,262.956 391.868,265.956 391.5,269.5C 389.784,269.629 388.117,269.962 386.5,270.5C 383.856,269.856 382.189,268.189 381.5,265.5C 383.359,264.406 385.359,263.573 387.5,263C 388.252,262.329 388.586,261.496 388.5,260.5 Z"/></g>
<g><path style="opacity:1" fill="#3b5a6a" d="M 380.5,265.5 C 380.833,265.5 381.167,265.5 381.5,265.5C 382.189,268.189 383.856,269.856 386.5,270.5C 375.504,272.504 365.171,276.504 355.5,282.5C 354.571,283.689 354.238,285.022 354.5,286.5C 364.036,281.74 374.036,278.073 384.5,275.5C 382.539,282.089 379.539,288.089 375.5,293.5C 375.167,293.5 374.833,293.5 374.5,293.5C 363.256,292.61 352.256,290.61 341.5,287.5C 342.815,282.905 343.815,278.239 344.5,273.5C 344.5,273.167 344.5,272.833 344.5,272.5C 356.828,271.668 368.828,269.335 380.5,265.5 Z"/></g>
<g><path style="opacity:1" fill="#f5f6f6" d="M 125.5,269.5 C 133.33,268.495 136.496,271.828 135,279.5C 130.155,285.079 125.822,284.746 122,278.5C 121.043,274.639 122.21,271.639 125.5,269.5 Z"/></g>
<g><path style="opacity:1" fill="#a7adb1" d="M 344.5,273.5 C 343.815,278.239 342.815,282.905 341.5,287.5C 334.27,286.109 327.27,283.942 320.5,281C 316.675,278.768 316.675,276.768 320.5,275C 328.447,273.725 336.447,273.225 344.5,273.5 Z"/></g>
<g><path style="opacity:1" fill="#9aa3a7" d="M 386.5,294.5 C 382.802,294.448 379.135,294.114 375.5,293.5C 379.539,288.089 382.539,282.089 384.5,275.5C 386.599,274.769 388.599,274.769 390.5,275.5C 387.817,280.204 385.15,284.871 382.5,289.5C 383.823,291.165 385.156,292.832 386.5,294.5 Z"/></g>
<g><path style="opacity:1" fill="#88d4ee" d="M 341.5,287.5 C 352.256,290.61 363.256,292.61 374.5,293.5C 374.5,295.167 374.5,296.833 374.5,298.5C 369.466,299.675 364.466,301.009 359.5,302.5C 359.5,303.833 359.5,305.167 359.5,306.5C 364.167,305.5 368.833,304.5 373.5,303.5C 373.009,309.3 371.343,314.633 368.5,319.5C 364.154,319.334 359.821,319.501 355.5,320C 354.209,321.292 354.209,322.458 355.5,323.5C 358.625,324.479 361.958,324.813 365.5,324.5C 364.37,326.315 363.704,328.315 363.5,330.5C 353.723,340.42 342.39,348.254 329.5,354C 304.044,364.092 277.711,370.758 250.5,374C 249.663,375.011 249.33,376.178 249.5,377.5C 265.879,374.263 267.212,376.596 253.5,384.5C 241.007,383.34 228.34,383.173 215.5,384C 201.036,385.695 186.703,387.195 172.5,388.5C 169.978,386.828 167.312,385.328 164.5,384C 171.477,384.397 178.477,384.397 185.5,384C 186.833,382.667 186.833,381.333 185.5,380C 156.644,379.762 128.644,374.762 101.5,365C 98.0402,363.116 98.3735,361.282 102.5,359.5C 108.034,361.644 113.701,363.477 119.5,365C 142.977,369.301 166.644,370.634 190.5,369C 206.247,367.209 221.914,364.875 237.5,362C 258.537,357.481 278.537,350.148 297.5,340C 318.905,328.1 333.571,310.6 341.5,287.5 Z"/></g>
<g><path style="opacity:1" fill="#0a2a26" d="M 202.5,295.5 C 199.971,299.189 196.638,302.022 192.5,304C 193.044,304.717 193.711,305.217 194.5,305.5C 200.829,310.483 207.829,311.649 215.5,309C 218.07,306.933 220.07,304.433 221.5,301.5C 222.689,300.571 224.022,300.238 225.5,300.5C 223.359,309.962 217.359,314.628 207.5,314.5C 203.183,314.669 199.183,313.669 195.5,311.5C 194.166,310.348 192.666,309.348 191,308.5C 188.689,311.645 186.189,314.645 183.5,317.5C 174.333,322.543 166.5,320.876 160,312.5C 159.699,309.909 160.866,309.075 163.5,310C 173.557,318.573 181.557,316.906 187.5,305C 181.553,305.034 177.219,302.534 174.5,297.5C 174.529,295.971 175.196,294.804 176.5,294C 184.867,290.086 193.367,289.586 202,292.5C 202.483,293.448 202.649,294.448 202.5,295.5 Z"/></g>
<g><path style="opacity:1" fill="#e9eded" d="M 374.5,293.5 C 374.833,293.5 375.167,293.5 375.5,293.5C 379.135,294.114 382.802,294.448 386.5,294.5C 387.404,295.209 387.737,296.209 387.5,297.5C 383.131,297.467 378.798,297.8 374.5,298.5C 374.5,296.833 374.5,295.167 374.5,293.5 Z"/></g>
<g><path style="opacity:1" fill="#89cbe0" d="M 202.5,295.5 C 202.392,297.783 201.559,299.783 200,301.5C 197.985,302.697 196.151,304.03 194.5,305.5C 193.711,305.217 193.044,304.717 192.5,304C 196.638,302.022 199.971,299.189 202.5,295.5 Z"/></g>
<g><path style="opacity:1" fill="#f1f4f4" d="M 368.5,319.5 C 371.343,314.633 373.009,309.3 373.5,303.5C 377.575,301.783 381.908,301.283 386.5,302C 383.358,308.817 379.024,314.817 373.5,320C 371.613,320.78 369.946,320.613 368.5,319.5 Z"/></g>
<g><path style="opacity:1" fill="#8bcde3" d="M 195.5,311.5 C 193.801,311.34 192.134,311.506 190.5,312C 188.559,314.454 186.225,316.287 183.5,317.5C 186.189,314.645 188.689,311.645 191,308.5C 192.666,309.348 194.166,310.348 195.5,311.5 Z"/></g>
<g><path style="opacity:1" fill="#abb2b5" d="M 88.5,322.5 C 88.6399,320.876 87.9733,319.71 86.5,319C 83.854,318.503 81.1873,318.336 78.5,318.5C 82.2734,317.042 86.2734,316.542 90.5,317C 90.8333,317.333 91.1667,317.667 91.5,318C 90.6006,319.652 89.6006,321.152 88.5,322.5 Z"/></g>
<g><path style="opacity:1" fill="#a1a9ad" d="M 87.5,323.5 C 83.5878,330.987 78.9212,337.987 73.5,344.5C 67.675,339.022 65.675,332.355 67.5,324.5C 74.1228,323.62 80.7895,323.287 87.5,323.5 Z"/></g>
<g><path style="opacity:1" fill="#5e909b" d="M 355.5,323.5 C 360.214,323.173 364.88,323.507 369.5,324.5C 369.376,325.107 369.043,325.44 368.5,325.5C 367.791,324.596 366.791,324.263 365.5,324.5C 361.958,324.813 358.625,324.479 355.5,323.5 Z"/></g>
<g><path style="opacity:1" fill="#d6dedf" d="M 365.5,324.5 C 366.791,324.263 367.791,324.596 368.5,325.5C 367.167,327.5 365.5,329.167 363.5,330.5C 363.704,328.315 364.37,326.315 365.5,324.5 Z"/></g>
<g><path style="opacity:1" fill="#84cce4" d="M 78.5,347.5 C 84.3515,351.594 90.6848,354.927 97.5,357.5C 96.1628,361.348 93.8295,362.182 90.5,360C 85.1074,357.298 80.4408,353.631 76.5,349C 77.0442,348.283 77.7109,347.783 78.5,347.5 Z"/></g>
<g><path style="opacity:0.987" fill="#324747" d="M 359.5,378.5 C 357.393,380.727 355.06,382.727 352.5,384.5C 351.662,377.815 350.496,371.148 349,364.5C 347.314,359.606 344.147,356.106 339.5,354C 344.72,350.309 349.22,351.143 353,356.5C 356.889,363.333 359.056,370.666 359.5,378.5 Z"/></g>
<g><path style="opacity:1" fill="#344949" d="M 297.5,378.5 C 301.182,378.335 304.848,378.501 308.5,379C 311.167,381 311.167,383 308.5,385C 283.187,399.44 256.521,410.773 228.5,419C 226.098,419.814 223.765,419.647 221.5,418.5C 231.73,407.768 242.73,397.935 254.5,389C 259.678,386.607 265.012,384.607 270.5,383C 279.78,382.342 288.78,380.842 297.5,378.5 Z"/></g>
<g><path style="opacity:0.977" fill="#324847" d="M 127.5,413.5 C 124.759,413.293 122.426,412.293 120.5,410.5C 119.402,401.642 120.902,393.308 125,385.5C 128.883,379.536 134.05,377.703 140.5,380C 126.749,387.224 122.415,398.391 127.5,413.5 Z"/></g>
<g><path style="opacity:1" fill="#fbfcfc" d="M 253.5,384.5 C 237.901,396.098 223.901,409.431 211.5,424.5C 199.733,411.063 186.733,399.063 172.5,388.5C 186.703,387.195 201.036,385.695 215.5,384C 228.34,383.173 241.007,383.34 253.5,384.5 Z"/></g>
<g><path style="opacity:1" fill="#334949" d="M 142.5,388.5 C 147.179,388.334 151.845,388.501 156.5,389C 175.973,395.405 191.973,406.739 204.5,423C 183.77,418.814 164.103,411.481 145.5,401C 142.154,398.988 139.488,396.321 137.5,393C 138.761,391.038 140.428,389.538 142.5,388.5 Z"/></g>
<g><path style="opacity:0.97" fill="#344848" d="M 319.5,406.5 C 293.58,420.807 265.914,429.474 236.5,432.5C 232.167,432.5 227.833,432.5 223.5,432.5C 253.962,418.549 285.962,409.882 319.5,406.5 Z"/></g>
</svg>
