<svg xmlns="http://www.w3.org/2000/svg" width="96" height="96" fill="none"><circle cx="48" cy="48" r="48" fill="#FFC800"/><path fill="#fff" fill-rule="evenodd" d="M50.139 69.666q-1.056.102-2.14.103c-12.022 0-21.768-9.746-21.768-21.769S35.977 26.23 48 26.23 69.77 35.978 69.77 48c0 4.47-1.348 8.626-3.66 12.083A9.96 9.96 0 0 0 60 58c-5.522 0-10 4.477-10 10q.001.852.139 1.665m3.231 5.82A28 28 0 0 1 48 76c-15.464 0-28-12.536-28-28s12.536-28 28-28 28 12.536 28 28a27.88 27.88 0 0 1-6.274 17.664c.18.75.275 1.532.275 2.336 0 5.523-4.477 10-10 10a9.96 9.96 0 0 1-6.631-2.514" clip-rule="evenodd"/></svg>