<svg xmlns="http://www.w3.org/2000/svg" width="500" height="500" fill="none"><path fill="#F87171" d="M250 500c138.072 0 250-111.928 250-250C500 111.929 388.072 0 250 0 111.929 0 0 111.929 0 250c0 138.072 111.929 250 250 250"/><path fill="#000" d="M249.04 190.51c-5.529-4.925-16.49-11.714-35.51-11.625-19.019.089-15.911 9.685-15.911 9.685s-.389 7.829 12.033 8.073c12.423.243 25.741.725 36.545 4.685s8.378-5.904 2.843-10.818M204.09 208.393c-1.144.675-1.436 2.572-.111 2.812 7.512 1.34 19.394 3.776 32.648 1.683 1.255-.198 1.067-1.874.159-2.743-4.702-4.502-17.33-10.814-32.696-1.752"/><path fill="#000" d="M360.372 334.312a1.642 1.642 0 0 0-1.564-.659 1.65 1.65 0 0 0-.808.353 1.6 1.6 0 0 0-.5.713c-7.731 22.49-14.06 16.981-16.985 12.145a20.3 20.3 0 0 1-2.25-5.473c-7.378-28.73-.622-55.193-.622-55.193 4.016 12.228 14.547 15.854 19.942 16.914a1.67 1.67 0 0 0 1.653-.616 1.59 1.59 0 0 0 .128-1.727c-20.671-39.647-8.45-56.449-8.45-56.449 3.559 3.87 9.423 4.217 13.117 4.015.312-.017.612-.12.866-.296.254-.177.452-.421.57-.702a1.59 1.59 0 0 0-.297-1.699c-14.978-16.185-16.118-21.675-16.701-49.084-.32-15.19-5.774-23.178-10.843-27.339-5.801-4.755-10.431-10.813-12.964-17.804-20.209-55.596-58.023-62.943-93.112-60.862-43.561 2.586-66.754 35.215-77.764 51.473-11.647 17.19-20.724 42.608-20.111 50.386.613 7.776 7.947 6.559 7.947 15.549 0 8.993-14.199 16.469-8.617 41.746 2.465 11.138 12.446 19.487 7.956 44.929-8.028 45.725 27.784 101.283 36.707 109.571 1.082.997 2.982.192 2.786-1.251-1.393-10.206.646-24.365.646-24.365 17.942 37.638 68.138 30.657 83.859 27.429a1.67 1.67 0 0 0 .87-.477 1.59 1.59 0 0 0 .266-1.841 1.63 1.63 0 0 0-.7-.694c-15.874-8.252-19.502-25.016-19.502-25.016 15.797 7.318 25.917 6.091 30.795 4.522.296-.097.558-.274.755-.512a1.59 1.59 0 0 0 .214-1.715 1.6 1.6 0 0 0-.611-.674c-4.758-2.923-12.009-14.993-17.496-26.805a27.8 27.8 0 0 1-2.304-15.569 28.07 28.07 0 0 1 6.527-14.378c6.419-7.497 14.839-17.96 24.413-29.078 2.002-2.343 4.787-.056 5.841 2.483 13.986 34.273 32.182 60.108 44.725 67.23 9.095 5.496 19.056 6.485 23.533 3.027 12.341-9.525 2.556-25.957-1.915-32.207m-151.425-31.897c-15.002.885-11.583-18.198-22.603-17.731-11.805.516-8.267 15.068-16.185 15.954-7.918.885-6.994-21.369-1.436-23.952 8.755-4.056 19.009-5.031 27.219-4.75 9.726.328 19.019-.043 23.379 9.112 5.165 10.801 4.624 20.504-10.374 21.367m94.874-136.372c-19.945 11.601-21.12 17.336-23.976 37.736-.632 4.483-1.274 9.731.823 12.698 4.735 6.694 13.739 11.651 11.268 22.957-5.888 26.907-21.413 58.454-42.237 68.312-2.507 1.186-5.379-1.213-5.963-3.876-2.322-10.663-7.847-30.05-9.339-36.38-7.417-36.259-42.754-36.761-43.745-29.827-.292 2.062 7.158 4.779 11.887 6.287 4.341 1.407 4.49 7.469.166 8.903a12.3 12.3 0 0 1-3.504.552c-8.735-.585-19.817.08-24.815.436a6.85 6.85 0 0 1-4.654-1.378 6.58 6.58 0 0 1-2.498-4.085c-1.953-11.099 1.499-15.078 5.673-25.618 2.077-5.248 4.744-15.828 5.668-21.254.478-2.909.273-6.405-.039-9.023a63.4 63.4 0 0 1-.445-9.334c.297-10.059 1.317-18.272 9.143-18.272 14.099 0 43.93.042 48.655-6.742 4.956-7.104-22.695-.216-52.408-1.153a2.42 2.42 0 0 1-1.559-.634 2.33 2.33 0 0 1-.743-1.484c0-.178-.034-.351-.053-.529a3.6 3.6 0 0 1 .184-1.502c.167-.483.433-.927.782-1.305s.775-.681 1.25-.891a3.9 3.9 0 0 1 1.509-.327c15.868-.192 27.941-1.27 31.116-5.796 3.227-4.629-12.81-2.553-30.987-2.389-2.327 0-4.251-.033-4.131-2.305v-.075a3.64 3.64 0 0 1 1.084-2.396 3.8 3.8 0 0 1 2.439-1.081c10.694-.689 15.252-1.485 15.701-4.831.45-3.345-1.1-3.008-12.925-2.342-2.57.14-1.833-1.766-.373-3.852 3.691-5.317 20.192-20.657 56.702-19.537 62.548 1.949 60.571 45.307 62.486 55.839a4.3 4.3 0 0 1-.351 2.577 4.4 4.4 0 0 1-1.791 1.921"/></svg>