<svg xmlns="http://www.w3.org/2000/svg" width="96" height="96" fill="none"><path fill="#4D1D00" d="M48 96c26.51 0 48-21.49 48-48S74.51 0 48 0 0 21.49 0 48s21.49 48 48 48"/><path fill="#F9F3D2" d="M48 93.552c25.158 0 45.552-20.395 45.552-45.552C93.552 22.842 73.158 2.448 48 2.448S2.448 22.842 2.448 48c0 25.157 20.394 45.552 45.552 45.552"/><path fill="#fff" d="M45.696 41.904c-10.608 0-16.416 9.6-17.568 15.6-.672 3.408 0 6.528 1.968 9.216 3.456 4.704 10.032 7.104 13.44 7.488 9.888 1.2 16.944-.576 20.976-5.28 5.76-6.72 2.064-15.168.864-17.952-1.248-2.496-7.488-9.552-19.68-9.072"/><path fill="#551D0D" d="M49.104 76.512c-1.824 0-3.792-.144-5.856-.384-3.696-.432-10.944-3.072-14.736-8.256-2.304-3.12-3.072-6.72-2.304-10.704 1.344-7.104 5.28-11.184 8.352-13.392 3.312-2.352 7.488-3.792 11.088-3.792 15.744-.624 21.36 10.08 21.408 10.224 3.6 8.208 3.216 14.928-1.152 20.016-3.552 4.176-9.216 6.288-16.8 6.288m-3.408-34.608c-10.608 0-16.416 9.6-17.568 15.6-.672 3.408 0 6.528 1.968 9.216 3.456 4.704 10.032 7.104 13.44 7.488 9.888 1.2 16.944-.576 20.976-5.28 5.76-6.72 2.064-15.168.864-17.952-1.248-2.496-7.488-9.552-19.68-9.072"/><path fill="#551D0D" d="M47.76 81.12c-3.552 0-7.44-.384-11.664-1.296-19.92-4.32-18.72-21.312-17.28-28.368.912-4.56 4.368-9.36 10.32-14.304-3.312-12.96-3.744-15.792-3.744-16.752 0-2.736 1.488-4.896 3.888-5.616 2.832-.816 5.088.048 6.48 2.592 1.008 1.776 2.208 6.336 3.36 10.752.432 1.584.816 3.12 1.2 4.416 3.984-1.104 8.688-1.248 14.016-.384 1.92-11.184 4.272-16.8 7.536-17.712 1.248-.336 3.072-.048 4.464.768 1.296.768 2.16 1.824 2.496 3.168.96 3.744-.576 9.408-2.016 14.88q-.576 2.088-1.008 3.888c4.992 4.176 10.848 10.944 11.424 20.064.432 6.576-2.112 12.48-4.656 15.216-3.408 3.648-12 8.688-24.816 8.688M29.856 16.56c-1.584.48-2.544 1.872-2.544 3.792 0 .96.672 4.656 3.792 16.896l.144.576-.48.384c-5.808 4.848-9.216 9.408-10.032 13.632-3.84 18.912 8.256 24.48 15.84 26.112 23.184 5.04 34.272-6.384 34.704-6.912 1.632-1.728 4.608-6.816 4.128-13.776-.48-6.912-4.32-13.488-11.184-19.104l-.48-.384.144-.576c.336-1.44.72-2.928 1.152-4.512 1.344-4.992 2.832-10.608 2.016-13.872-.24-1.008-1.008-1.632-1.584-1.968-1.056-.624-2.352-.768-2.976-.576-1.392.384-4.032 3.12-6.288 17.136l-.144.96-.96-.192c-5.856-1.056-10.896-.912-15.024.432l-.96.288-.288-.96c-.432-1.488-.96-3.408-1.488-5.424-1.104-4.032-2.304-8.64-3.216-10.224-.96-1.776-2.304-2.304-4.272-1.728"/><path fill="#551D0D" d="M69.408 60.048 68.352 60c-15.024-.528-18.816-7.296-20.064-10.704C45.312 55.2 36.24 61.2 26.88 58.272l-.816-.24.144-.816c1.344-7.104 5.28-11.184 8.352-13.392 3.312-2.352 7.488-3.792 11.088-3.792 13.92-.528 22.992 6.72 23.664 19.008zM48.384 46.08c.864.048 1.104.768 1.344 1.536 2.976 9.168 12.816 10.176 17.616 10.416-1.056-10.464-9.264-16.608-21.6-16.128h-.048c-5.472 0-14.88 4.032-17.376 14.736 8.976 2.304 16.704-4.32 18.528-8.832.384-.912.72-1.728 1.536-1.728"/><path fill="#27A6E1" fill-rule="evenodd" d="M39.888 64.752c1.344 0 2.4-1.296 2.4-2.832 0-1.584-1.056-2.832-2.4-2.832s-2.4 1.296-2.4 2.832 1.056 2.832 2.4 2.832" clip-rule="evenodd"/><path fill="#E52D22" fill-rule="evenodd" d="M47.808 66.912c.624 0 1.104-.48 1.104-1.104s-.48-1.104-1.104-1.104-1.104.48-1.104 1.104.48 1.104 1.104 1.104" clip-rule="evenodd"/><path fill="#27A6E1" fill-rule="evenodd" d="M55.248 64.752c1.344 0 2.4-1.296 2.4-2.832 0-1.584-1.056-2.832-2.4-2.832s-2.4 1.296-2.4 2.832 1.056 2.832 2.4 2.832" clip-rule="evenodd"/><path fill="#E29478" fill-rule="evenodd" d="M35.952 68.688c1.824 0 3.312-.48 3.312-1.104s-1.488-1.104-3.312-1.104-3.312.48-3.312 1.104 1.488 1.104 3.312 1.104M60.96 68.688c1.824 0 3.312-.48 3.312-1.104s-1.488-1.104-3.312-1.104-3.312.48-3.312 1.104 1.488 1.104 3.312 1.104M31.056 20.064c-.816.288-1.92 1.344-1.296 3.168.432 1.248 1.392 5.424 2.88 12.48l4.128-.864q-2.376-10.8-3.168-12.96c-.816-2.112-1.728-2.112-2.544-1.824" clip-rule="evenodd"/><path fill="#FFDF02" d="M48.384 46.08c.864.048 1.104.768 1.344 1.536 2.976 9.168 12.816 10.176 17.616 10.416-1.056-10.464-9.264-16.608-21.6-16.128h-.048c-5.472 0-14.88 4.032-17.376 14.736 8.976 2.304 16.704-4.32 18.528-8.832.384-.912.72-1.728 1.536-1.728"/><path fill="#E29478" fill-rule="evenodd" d="M64.272 19.152c.816.288 1.92 1.344 1.296 3.168-.432 1.248-1.392 5.424-2.88 12.48l-4.128-.864q2.376-10.8 3.168-12.96c.816-2.064 1.728-2.112 2.544-1.824" clip-rule="evenodd"/><path fill="#551D0D" d="M48.096 69.168c-1.008 0-2.112-.288-3.312-.816a.826.826 0 0 1-.432-1.104.826.826 0 0 1 1.104-.432c1.92.864 3.36.912 4.416.096.384-.288.864-.192 1.152.144.288.384.192.864-.144 1.152-.816.624-1.728.96-2.784.96"/></svg>