<svg xmlns="http://www.w3.org/2000/svg" width="96" height="96" fill="none"><circle cx="48" cy="48" r="48" fill="#332C2B"/><path fill="#FCC33C" d="M58.22 33.834a20.95 20.95 0 0 0-9.396 3.352 20.66 20.66 0 0 0-6.73 7.313 20.4 20.4 0 0 0-2.501 9.574 20.5 20.5 0 0 0 1.51 7.897 20.6 20.6 0 0 0 4.47 6.717 19.4 19.4 0 0 0 4.101.52 15.04 15.04 0 0 1-2.983-10.31 15.1 15.1 0 0 1 4.66-9.687 15.4 15.4 0 0 1 9.966-4.203 15.32 15.32 0 0 1 10.272 3.39c0-5.23-1.333-9.078-2.59-11.567a21 21 0 0 0-.927-1.625 20.85 20.85 0 0 0-9.853-1.371"/><path fill="#FCC33C" d="M53.357 69.983c.012 0 .038-.013.05-.013.153-.038.305-.076.458-.127-.039 0-.077.013-.128.013 9.447-2.844 16.672-9.624 17.637-17.598 0-.089.012-.178.025-.28a12.96 12.96 0 0 0-8.761-2.716 12.96 12.96 0 0 0-8.367 3.745 12.678 12.678 0 0 0-.965 16.9c-1.003.114-1.994.19-2.997.178a22.16 22.16 0 0 1-14.957-6.019 21.8 21.8 0 0 1-6.818-14.5 21.75 21.75 0 0 1 4.977-15.223 22.14 22.14 0 0 1 14.106-7.784c-.38 0-.787-.025-1.206-.025-5.434-.05-13.18.724-19.375 4.685a25.12 25.12 0 0 0-10.03 12.329 23 23 0 0 0-.991 3.682c0 .241 0 .483-.013.711a33.84 33.84 0 0 0 5.46 18.792c2.361 1.396 9.002 4.43 22.13 4.583a34 34 0 0 0 9.765-1.333"/><path fill="#FCC33C" d="M20.32 36.717a25.2 25.2 0 0 1 6.462-5.866 24.5 24.5 0 0 1 2.895-1.575c5.066-2.488 10.627-3.136 15.3-3.161 2.298-.051 4.596.063 6.894.317 1.689.153 2.933.28 3.48.203 3.364-.444 6.17-2.666 6.195-6.03.026-3.213-2.958-5.752-5.675-6.235a30 30 0 0 0-4.66-.368c-5.104-.051-13.23.94-20.67 6.285-12.038 8.647-14.069 20.378-14.412 24.429.356-1.118.787-2.21 1.295-3.263a22 22 0 0 1 2.895-4.736M77.963 43.42a22.16 22.16 0 0 0-7.173-6.894c1.74 3.581 3.136 8.85 2.285 15.935-.673 5.6-4.088 10.805-9.611 14.665s-12.532 5.93-19.808 5.866h-.114c-9.955-.114-16.303-1.841-19.998-3.352 6.907 8.951 20.836 15.147 33.838 12.138 24.175-5.625 27.146-28.263 20.581-38.357"/></svg>