<svg xmlns="http://www.w3.org/2000/svg" viewBox="0 0 128 128"><path fill="#D8382B" d="M64 128c35.346 0 64-28.654 64-64S99.346 0 64 0 0 28.654 0 64s28.654 64 64 64"/><path fill="#EADED1" d="M67.765 68.885h-2.378V15.104c2.954 2.325 9.77 8.3 12.736 15.307-1.483.629-2.88 1.429-4.139 2.432-3.488 2.752-5.515 6.688-6.091 11.701-.096.875-.128 2.603-.128 2.603zm2.752-22.25v22.25h2.752c.683-11.253 13.728-21.152 25.942-14.741 4.714-8.651 4.01-21.227 4.01-21.227-8.032-2.325-20.896-3.242-27.52 2.059-3.584 2.837-5.184 7.296-5.184 11.648zm-10.272 22.25h2.379V15.104c-2.955 2.325-9.771 8.3-12.736 15.307 1.483.629 2.88 1.429 4.14 2.432 3.487 2.752 5.513 6.688 6.089 11.701.096.875.128 2.603.128 2.603zm-7.946-33.898c-6.614-5.291-19.488-4.374-27.52-2.059 0 0-.704 12.576 4.01 21.227 12.203-6.422 25.259 3.477 25.942 14.741h2.752V46.645c0-4.352-1.6-8.81-5.184-11.648zm60.597 40.373c-2.688-6.517-8.469-15.371-15.136-18.848-10.197-5.323-20.992 3.168-21.696 12.384h9.248c-1.1 6.763-5.387 12.48-11.253 15.563-1.824.949-3.051 2.773-3.051 4.832v.928H57.024v-.928c0-2.048-1.227-3.872-3.051-4.832-5.866-3.083-10.154-8.8-11.253-15.563h9.248c-.704-9.216-11.509-17.707-21.696-12.384-6.667 3.477-12.46 12.331-15.136 18.848 5.152 4.608 14.389 10.187 21.824 10.4-1.44 7.36 1.9 17.483 5.312 23.637 6.795-1.216 17.291-5.173 21.749-10.592 4.459 5.419 14.955 9.387 21.75 10.592 3.413-6.144 6.752-16.266 5.312-23.637 7.434-.213 16.672-5.792 21.824-10.4z"/></svg>
