<svg xmlns="http://www.w3.org/2000/svg" viewBox="0 0 115.792 106.582"><circle cx="53.291" cy="53.291" r="53.291" fill="#fff"/><circle cx="53.291" cy="53.291" r="46.64" fill="#ff9931"/><path fill="#006e3c" d="M108.877 23.747c-2.457-1.056-6.043-2.243-9.943-2.383-3.204-.118-6.095.502-8.584 1.84q-.762.413-1.444.891c-3.989 2.795-6.027 7.208-7.047 10.583l-.437 1.445 1.327-.708 7.012-3.753a2.803 2.803 0 0 1 3.78 1.091c.006.01.015.017.017.027l.039.07q.067.13.12.264l16.165-8.953c-.148-.068-.849-.345-1.005-.414"/><path fill="#06b23c" d="M106.316 34.581c-8.009 13.236-22.276 6.643-22.276 6.643l5.147-2.761c.43-.256 3.237-1.735 3.237-1.735 2.467-1.564 1.061-4.004 1.173-3.767l16.285-8.8s-.318 5.052-3.566 10.42"/><path fill="#fff" d="M114.272 20.006c-.706-.413-7.22-4.117-15.124-4.404-4.205-.152-8.067.699-11.455 2.527a20.4 20.4 0 0 0-3.105 2.057c-7.135 5.707-8.982 14.953-9.457 19.017l-.039.324-.286.16-2.095 1.115c-2-2.052-4.986-3.555-7.273-4.184l-.405-.11 2.092-8.329-4.969-1.285-2.075 8.266q-1.942-.524-3.744-1.003l2.068-8.233-4.969-1.284-2.061 8.207c-6.03-1.578-9.891-2.539-9.891-2.539s-.832 4.175-1.192 5.177c0 0 1.023.248 2.127.57.724.213 4.276.593 3.09 4.996-.665 2.471-4.542 19.041-4.845 20.174-.352 1.317-.712 2.058-2.346 1.694l-3.966-.884-2.487 5.931c.904.311 4.025 1.033 9.946 2.532l-2.055 8.185 4.968 1.285 2.059-8.195c1.172.304 2.424.632 3.748.982l-2.055 8.183 4.969 1.285 2.088-8.317c5.779 1.074 9.11.734 9.9.587 4.823-.893 6.875-4.604 7.765-8.147 2.506-9.98-5.71-10.859-4.671-11.069 4.6-.93 6.798-5.326 6.548-9.23l2.349-1.255.29-.159.283.157c3.076 1.6 7.892 3.549 13.361 3.749 3.477.124 6.738-.5 9.713-1.853q.63-.286 1.24-.615c11.719-6.3 13.234-21.647 13.366-23.373l.115-1.783zM63.351 64.278c-1.367 5.44-10.59 2.696-10.59 2.696l-4.381-1.132 2.732-10.88 5.232 1.353s8.542 1.85 7.007 7.963m1.642-16.215c-1.253 4.99-8.933 2.676-8.933 2.676l-3.65-.944 2.506-9.98 4.36 1.127s7.125 1.513 5.717 7.121m44.716-23.475-.007.061c-.81 4.521-3.191 12.659-10.053 16.346a5 5 0 0 1-.183.094c-2.355 1.225-5.023 1.794-7.935 1.685-1.946-.067-3.98-.44-6.064-1.095l-1.427-.455 1.319-.71 7.065-3.786a2.87 2.87 0 0 0 1.379-1.691c.071-.25.108-.492.114-.746a2.87 2.87 0 0 0-.32-1.44l-.039-.07q-.004-.013-.018-.028a2.803 2.803 0 0 0-3.78-1.091l-7.01 3.753-1.328.708.437-1.445c1.02-3.375 3.058-7.788 7.047-10.583q.682-.479 1.444-.891c2.489-1.338 5.38-1.958 8.584-1.84 3.9.14 7.486 1.327 9.943 2.383.157.07.31.134.458.201l.437.213z"/></svg>