<svg xmlns="http://www.w3.org/2000/svg" viewBox="0 0 148 148"><g data-name="Layer 2"><path d="M74 0A74 74 0 1 1 0 74 74 74 0 0 1 74 0m8.84 28.57h-9.73l-3 8h-30.6a4 4 0 0 0-3.37 1.91l-7.63 13.44h57.07A15.1 15.1 0 0 1 91.12 53c3.37 1.4 7.31 4.52 6.36 11.58-1.66 11.84-13.74 32.77-39.9 33.09l13.49-35.19a2.21 2.21 0 0 0-2-3H50.9L29 113.32a109 109 0 0 0 11.39.51l-2.16 5.66h10a2 2 0 0 0 1.85-1.2l1.9-4.9c1.47-.13 3-.26 4.52-.45l-2.5 6.55h9.86a2 2 0 0 0 1.84-1.2l2.87-7.45c16.35-3.69 34-11.83 44.47-29 20.87-34.49-1.08-43.46-16.28-45L99.32 30a1.07 1.07 0 0 0-.95-1.46h-9.74l-3 8h-4.38L83.8 30a1.08 1.08 0 0 0-.96-1.43" data-name="Layer 1" style="fill:#87888c"/></g></svg>