<svg xmlns="http://www.w3.org/2000/svg" width="95" height="94" fill="none"><path fill="#F0E7D8" stroke="#4A4A4A" stroke-width="1.018" d="m45.917 54.81-.003-.006-.004-.007-3.074-5.728-.172-.321-.36.06-.31.05-.426.071v13.569H28.836V27.057h22.93c8.153 0 13.397 4.603 13.397 10.689 0 2.81-1.067 5.328-3.028 7.147-1.962 1.82-4.852 2.97-8.547 2.97q-1.913 0-3.499-.302l-.357-.069-.18.316-.209.366-.21.368.325.273c3.029 2.551 5.172 3.4 7.828 3.4 2.787 0 5.536-.996 7.289-2.632l1.537 12.341c-1.673.742-4.128 1.36-5.698 1.36-3.457 0-6.17-.415-8.462-1.657-2.285-1.238-4.215-3.333-6.034-6.815zm7.623-13.378h.034v-.509c0-1.242-.495-2.251-1.366-2.939-.857-.676-2.034-1.007-3.362-1.007h-7.281v6.201l.297.136c2.536 1.163 4.435 1.712 6.67 1.712 2.465 0 4.716-1.316 5.008-3.594Z"/><path fill="#686868" stroke="#4A4A4A" stroke-width="1.018" d="m48.886 57.035-.004-.007-.003-.006-3.074-5.729-.172-.32-.36.059-.311.051-.426.07v13.57H31.804V29.28h22.93c8.154 0 13.397 4.603 13.397 10.69 0 2.809-1.067 5.327-3.027 7.147-1.962 1.82-4.853 2.97-8.547 2.97q-1.914 0-3.5-.303l-.357-.068-.18.316-.208.365-.21.368.324.273c3.03 2.552 5.173 3.4 7.828 3.4 2.788 0 5.536-.995 7.289-2.631l1.538 12.34c-1.674.743-4.128 1.36-5.699 1.36-3.456 0-6.169-.414-8.462-1.657-2.284-1.238-4.214-3.333-6.034-6.815zm7.622-13.379h.035v-.509c0-1.241-.495-2.251-1.366-2.938-.858-.677-2.035-1.008-3.363-1.008h-7.281v6.201l.297.136c2.537 1.163 4.435 1.713 6.67 1.713 2.465 0 4.716-1.317 5.008-3.595Z"/><path fill="#F0E7D8" stroke="#4A4A4A" stroke-width="1.018" d="m45.917 54.81-.003-.006-.004-.007-3.074-5.728-.172-.321-.36.06-.31.05-.426.071v13.569H28.836V27.057h22.93c8.153 0 13.397 4.603 13.397 10.689 0 2.81-1.067 5.328-3.028 7.147-1.962 1.82-4.852 2.97-8.547 2.97q-1.913 0-3.499-.302l-.357-.069-.18.316-.209.366-.21.368.325.273c3.029 2.551 5.172 3.4 7.828 3.4 2.787 0 5.536-.996 7.289-2.632l1.537 12.341c-1.673.742-4.128 1.36-5.698 1.36-3.457 0-6.17-.415-8.462-1.657-2.285-1.238-4.215-3.333-6.034-6.815zm7.623-13.378h.034v-.509c0-1.242-.495-2.251-1.366-2.939-.857-.676-2.034-1.007-3.362-1.007h-7.281v6.201l.297.136c2.536 1.163 4.435 1.712 6.67 1.712 2.465 0 4.716-1.316 5.008-3.594Z"/><path fill="#F0E7D8" stroke="#4A4A4A" stroke-width="1.018" d="m45.462 55.038-3.075-5.729-.311.052v13.646h-13.75V26.548h23.439c8.334 0 13.906 4.74 13.906 11.198 0 5.886-4.48 10.626-12.083 10.626q-1.953 0-3.595-.312l-.208.366c2.969 2.5 5 3.28 7.5 3.28 3.126 0 6.146-1.303 7.658-3.28l1.72 13.803c-1.72.835-4.48 1.563-6.25 1.563-6.98 0-11.249-1.666-14.949-8.749zm7.603-14.115c0-2.189-1.72-3.437-4.22-3.437h-6.772v5.366c2.5 1.145 4.324 1.665 6.458 1.665 2.5 0 4.532-1.405 4.532-3.594z"/><mask id="a" width="92" height="92" x="2.617" y="2.135" fill="#000" maskUnits="userSpaceOnUse"><path fill="#fff" d="M2.617 2.135h92v92h-92z"/><path d="M49.023 5.706c-23.657 0-42.835 19.178-42.835 42.835s19.178 42.835 42.835 42.835S91.858 72.198 91.858 48.54 72.68 5.706 49.023 5.706m0 75.932c-18.28 0-33.098-14.818-33.098-33.097s14.818-33.098 33.098-33.098c18.279 0 33.097 14.818 33.097 33.098S67.302 81.638 49.023 81.638"/><path fill-rule="evenodd" d="M51.125 5.757a44 44 0 0 0-4.205 0l-.076-1.57a45 45 0 0 1 4.357 0zm-8.39.407-.229-1.554q-2.174.32-4.276.846l.38 1.524q2.027-.506 4.125-.816M34.587 8.2l-.529-1.48a44 44 0 0 0-4.026 1.67l.672 1.42a43 43 0 0 1 3.883-1.61m-7.589 3.595-.809-1.347a45 45 0 0 0-3.621 2.425l.937 1.261a43 43 0 0 1 3.493-2.339m-6.742 5.008-1.055-1.164a45 45 0 0 0-3.081 3.081l1.164 1.056a43 43 0 0 1 2.973-2.973m-5.641 6.221-1.261-.937a45 45 0 0 0-2.425 3.622l1.347.808a43 43 0 0 1 2.339-3.493m-4.324 7.2-1.42-.673a44 44 0 0 0-1.67 4.026l1.48.53a43 43 0 0 1 1.61-3.884m-2.83 7.906-1.523-.38q-.526 2.1-.846 4.276l1.554.228a43 43 0 0 1 .816-4.124m-1.223 8.31-1.569-.077a45 45 0 0 0 0 4.357l1.57-.076a44 44 0 0 1 0-4.205m.408 8.39-1.554.228q.32 2.175.846 4.276l1.524-.38a43 43 0 0 1-.816-4.125m2.035 8.147-1.48.53a44 44 0 0 0 1.67 4.026l1.42-.673a43 43 0 0 1-1.61-3.883m3.595 7.59-1.347.808a45 45 0 0 0 2.425 3.621l1.26-.937a43 43 0 0 1-2.338-3.493m5.008 6.74-1.164 1.056a45 45 0 0 0 3.081 3.082l1.055-1.164a43 43 0 0 1-2.972-2.973m6.22 5.642-.936 1.262a45 45 0 0 0 3.621 2.424l.81-1.347a43 43 0 0 1-3.494-2.339m7.2 4.324-.672 1.42a44 44 0 0 0 4.026 1.67l.53-1.48a43 43 0 0 1-3.884-1.61m7.907 2.83-.38 1.524q2.1.526 4.275.846l.23-1.555a43 43 0 0 1-4.125-.816m8.309 1.223-.076 1.57a45 45 0 0 0 4.357 0l-.076-1.57a44 44 0 0 1-4.205 0m8.39-.408.229 1.555a44 44 0 0 0 4.276-.846l-.38-1.525q-2.027.507-4.125.816m8.148-2.035.53 1.48a44 44 0 0 0 4.026-1.67l-.673-1.42a43 43 0 0 1-3.883 1.61m7.589-3.595.809 1.347a45 45 0 0 0 3.621-2.424l-.937-1.261a43 43 0 0 1-3.493 2.338m6.742-5.007 1.055 1.163a45 45 0 0 0 3.081-3.08l-1.163-1.056a43 43 0 0 1-2.973 2.973m5.641-6.222 1.262.937a45 45 0 0 0 2.424-3.621l-1.347-.809a43 43 0 0 1-2.339 3.493m4.324-7.199 1.42.673a44 44 0 0 0 1.67-4.027l-1.48-.53a43 43 0 0 1-1.61 3.884m2.83-7.906 1.524.38q.525-2.101.846-4.276l-1.555-.229a43 43 0 0 1-.816 4.124m1.223-8.31 1.569.076a45 45 0 0 0 0-4.357l-1.57.076a44 44 0 0 1 0 4.205m-.408-8.39 1.555-.228a44 44 0 0 0-.846-4.277l-1.525.381q.507 2.026.816 4.124m-2.035-8.147 1.48-.53a44 44 0 0 0-1.67-4.026l-1.42.672a43 43 0 0 1 1.61 3.884m-3.595-7.59 1.347-.808a45 45 0 0 0-2.424-3.622l-1.262.937a43 43 0 0 1 2.34 3.493m-5.008-6.741 1.164-1.056a45 45 0 0 0-3.08-3.081l-1.056 1.164a43 43 0 0 1 2.972 2.973m-6.22-5.642.936-1.261a45 45 0 0 0-3.621-2.425l-.81 1.347a43 43 0 0 1 3.494 2.339m-7.2-4.324.673-1.42a44 44 0 0 0-4.027-1.67l-.53 1.48a43 43 0 0 1 3.884 1.61M59.434 6.98l.381-1.524q-2.101-.526-4.276-.846l-.229 1.554a43 43 0 0 1 4.124.816M51.19 81.57a34 34 0 0 1-4.333 0L46.957 80a32 32 0 0 0 4.131 0zm-8.626-.56.305-1.542a31 31 0 0 1-3.983-1.065l-.505 1.488q2.037.692 4.183 1.118m-8.182-2.777.696-1.409a31.5 31.5 0 0 1-3.57-2.065l-.874 1.306a33 33 0 0 0 3.748 2.168M27.2 73.425l1.036-1.18a32 32 0 0 1-2.917-2.918l-1.18 1.037a33 33 0 0 0 3.06 3.061m-5.7-6.495 1.305-.874a31.5 31.5 0 0 1-2.065-3.57l-1.408.697A33 33 0 0 0 21.5 66.93m-3.827-7.747 1.488-.504a31 31 0 0 1-1.065-3.984l-1.54.305c.282 1.43.657 2.827 1.117 4.184m-1.678-8.475 1.568-.102a32 32 0 0 1 0-4.13l-1.568-.102a34 34 0 0 0 0 4.334m.56-8.627 1.541.305q.407-2.043 1.065-3.983l-1.488-.505a33 33 0 0 0-1.118 4.183m2.777-8.182 1.408.696a31.5 31.5 0 0 1 2.065-3.57l-1.305-.874a33 33 0 0 0-2.168 3.748m4.806-7.181 1.18 1.036a32 32 0 0 1 2.918-2.917l-1.036-1.18a33 33 0 0 0-3.062 3.06m6.495-5.7.874 1.305a31.5 31.5 0 0 1 3.57-2.065l-.696-1.408a33 33 0 0 0-3.748 2.168m7.747-3.826.505 1.487a31 31 0 0 1 3.983-1.065l-.305-1.54q-2.146.425-4.183 1.117m8.476-1.679a34 34 0 0 1 4.333 0l-.101 1.568a32 32 0 0 0-4.13 0zm8.626.56-.305 1.541q2.043.406 3.983 1.065l.505-1.487a33 33 0 0 0-4.183-1.119m8.182 2.777-.696 1.408a31.5 31.5 0 0 1 3.57 2.066l.874-1.306a33 33 0 0 0-3.748-2.168m7.182 4.806-1.037 1.181a32 32 0 0 1 2.917 2.917l1.181-1.036a33 33 0 0 0-3.061-3.062m5.7 6.495-1.306.874a31.5 31.5 0 0 1 2.065 3.57l1.409-.696a33 33 0 0 0-2.169-3.748m3.826 7.747-1.488.505a31 31 0 0 1 1.065 3.983l1.541-.305a33 33 0 0 0-1.118-4.183m1.678 8.476-1.567.101a32 32 0 0 1 0 4.131l1.567.102a34 34 0 0 0 0-4.334M81.49 55l-1.541-.305a31 31 0 0 1-1.065 3.984l1.488.505q.692-2.037 1.118-4.184m-2.776 8.183-1.409-.696a31.5 31.5 0 0 1-2.065 3.57l1.305.873a33 33 0 0 0 2.169-3.747m-4.807 7.18-1.18-1.036a32 32 0 0 1-2.918 2.918l1.037 1.18a33 33 0 0 0 3.061-3.061m-6.495 5.7-.874-1.305a31.5 31.5 0 0 1-3.57 2.065l.696 1.409a33 33 0 0 0 3.748-2.168m-7.747 3.827-.505-1.488a31 31 0 0 1-3.983 1.065l.305 1.541a33 33 0 0 0 4.183-1.118" clip-rule="evenodd"/></mask><path fill="#676767" d="M49.023 5.706c-23.657 0-42.835 19.178-42.835 42.835s19.178 42.835 42.835 42.835S91.858 72.198 91.858 48.54 72.68 5.706 49.023 5.706m0 75.932c-18.28 0-33.098-14.818-33.098-33.097s14.818-33.098 33.098-33.098c18.279 0 33.097 14.818 33.097 33.098S67.302 81.638 49.023 81.638"/><path fill="#676767" fill-rule="evenodd" d="M51.125 5.757a44 44 0 0 0-4.205 0l-.076-1.57a45 45 0 0 1 4.357 0zm-8.39.407-.229-1.554q-2.174.32-4.276.846l.38 1.524q2.027-.506 4.125-.816M34.587 8.2l-.529-1.48a44 44 0 0 0-4.026 1.67l.672 1.42a43 43 0 0 1 3.883-1.61m-7.589 3.595-.809-1.347a45 45 0 0 0-3.621 2.425l.937 1.261a43 43 0 0 1 3.493-2.339m-6.742 5.008-1.055-1.164a45 45 0 0 0-3.081 3.081l1.164 1.056a43 43 0 0 1 2.973-2.973m-5.641 6.221-1.261-.937a45 45 0 0 0-2.425 3.622l1.347.808a43 43 0 0 1 2.339-3.493m-4.324 7.2-1.42-.673a44 44 0 0 0-1.67 4.026l1.48.53a43 43 0 0 1 1.61-3.884m-2.83 7.906-1.523-.38q-.526 2.1-.846 4.276l1.554.228a43 43 0 0 1 .816-4.124m-1.223 8.31-1.569-.077a45 45 0 0 0 0 4.357l1.57-.076a44 44 0 0 1 0-4.205m.408 8.39-1.554.228q.32 2.175.846 4.276l1.524-.38a43 43 0 0 1-.816-4.125m2.035 8.147-1.48.53a44 44 0 0 0 1.67 4.026l1.42-.673a43 43 0 0 1-1.61-3.883m3.595 7.59-1.347.808a45 45 0 0 0 2.425 3.621l1.26-.937a43 43 0 0 1-2.338-3.493m5.008 6.74-1.164 1.056a45 45 0 0 0 3.081 3.082l1.055-1.164a43 43 0 0 1-2.972-2.973m6.22 5.642-.936 1.262a45 45 0 0 0 3.621 2.424l.81-1.347a43 43 0 0 1-3.494-2.339m7.2 4.324-.672 1.42a44 44 0 0 0 4.026 1.67l.53-1.48a43 43 0 0 1-3.884-1.61m7.907 2.83-.38 1.524q2.1.526 4.275.846l.23-1.555a43 43 0 0 1-4.125-.816m8.309 1.223-.076 1.57a45 45 0 0 0 4.357 0l-.076-1.57a44 44 0 0 1-4.205 0m8.39-.408.229 1.555a44 44 0 0 0 4.276-.846l-.38-1.525q-2.027.507-4.125.816m8.148-2.035.53 1.48a44 44 0 0 0 4.026-1.67l-.673-1.42a43 43 0 0 1-3.883 1.61m7.589-3.595.809 1.347a45 45 0 0 0 3.621-2.424l-.937-1.261a43 43 0 0 1-3.493 2.338m6.742-5.007 1.055 1.163a45 45 0 0 0 3.081-3.08l-1.163-1.056a43 43 0 0 1-2.973 2.973m5.641-6.222 1.262.937a45 45 0 0 0 2.424-3.621l-1.347-.809a43 43 0 0 1-2.339 3.493m4.324-7.199 1.42.673a44 44 0 0 0 1.67-4.027l-1.48-.53a43 43 0 0 1-1.61 3.884m2.83-7.906 1.524.38q.525-2.101.846-4.276l-1.555-.229a43 43 0 0 1-.816 4.124m1.223-8.31 1.569.076a45 45 0 0 0 0-4.357l-1.57.076a44 44 0 0 1 0 4.205m-.408-8.39 1.555-.228a44 44 0 0 0-.846-4.277l-1.525.381q.507 2.026.816 4.124m-2.035-8.147 1.48-.53a44 44 0 0 0-1.67-4.026l-1.42.672a43 43 0 0 1 1.61 3.884m-3.595-7.59 1.347-.808a45 45 0 0 0-2.424-3.622l-1.262.937a43 43 0 0 1 2.34 3.493m-5.008-6.741 1.164-1.056a45 45 0 0 0-3.08-3.081l-1.056 1.164a43 43 0 0 1 2.972 2.973m-6.22-5.642.936-1.261a45 45 0 0 0-3.621-2.425l-.81 1.347a43 43 0 0 1 3.494 2.339m-7.2-4.324.673-1.42a44 44 0 0 0-4.027-1.67l-.53 1.48a43 43 0 0 1 3.884 1.61M59.434 6.98l.381-1.524q-2.101-.526-4.276-.846l-.229 1.554a43 43 0 0 1 4.124.816M51.19 81.57a34 34 0 0 1-4.333 0L46.957 80a32 32 0 0 0 4.131 0zm-8.626-.56.305-1.542a31 31 0 0 1-3.983-1.065l-.505 1.488q2.037.692 4.183 1.118m-8.182-2.777.696-1.409a31.5 31.5 0 0 1-3.57-2.065l-.874 1.306a33 33 0 0 0 3.748 2.168M27.2 73.425l1.036-1.18a32 32 0 0 1-2.917-2.918l-1.18 1.037a33 33 0 0 0 3.06 3.061m-5.7-6.495 1.305-.874a31.5 31.5 0 0 1-2.065-3.57l-1.408.697A33 33 0 0 0 21.5 66.93m-3.827-7.747 1.488-.504a31 31 0 0 1-1.065-3.984l-1.54.305c.282 1.43.657 2.827 1.117 4.184m-1.678-8.475 1.568-.102a32 32 0 0 1 0-4.13l-1.568-.102a34 34 0 0 0 0 4.334m.56-8.627 1.541.305q.407-2.043 1.065-3.983l-1.488-.505a33 33 0 0 0-1.118 4.183m2.777-8.182 1.408.696a31.5 31.5 0 0 1 2.065-3.57l-1.305-.874a33 33 0 0 0-2.168 3.748m4.806-7.181 1.18 1.036a32 32 0 0 1 2.918-2.917l-1.036-1.18a33 33 0 0 0-3.062 3.06m6.495-5.7.874 1.305a31.5 31.5 0 0 1 3.57-2.065l-.696-1.408a33 33 0 0 0-3.748 2.168m7.747-3.826.505 1.487a31 31 0 0 1 3.983-1.065l-.305-1.54q-2.146.425-4.183 1.117m8.476-1.679a34 34 0 0 1 4.333 0l-.101 1.568a32 32 0 0 0-4.13 0zm8.626.56-.305 1.541q2.043.406 3.983 1.065l.505-1.487a33 33 0 0 0-4.183-1.119m8.182 2.777-.696 1.408a31.5 31.5 0 0 1 3.57 2.066l.874-1.306a33 33 0 0 0-3.748-2.168m7.182 4.806-1.037 1.181a32 32 0 0 1 2.917 2.917l1.181-1.036a33 33 0 0 0-3.061-3.062m5.7 6.495-1.306.874a31.5 31.5 0 0 1 2.065 3.57l1.409-.696a33 33 0 0 0-2.169-3.748m3.826 7.747-1.488.505a31 31 0 0 1 1.065 3.983l1.541-.305a33 33 0 0 0-1.118-4.183m1.678 8.476-1.567.101a32 32 0 0 1 0 4.131l1.567.102a34 34 0 0 0 0-4.334M81.49 55l-1.541-.305a31 31 0 0 1-1.065 3.984l1.488.505q.692-2.037 1.118-4.184m-2.776 8.183-1.409-.696a31.5 31.5 0 0 1-2.065 3.57l1.305.873a33 33 0 0 0 2.169-3.747m-4.807 7.18-1.18-1.036a32 32 0 0 1-2.918 2.918l1.037 1.18a33 33 0 0 0 3.061-3.061m-6.495 5.7-.874-1.305a31.5 31.5 0 0 1-3.57 2.065l.696 1.409a33 33 0 0 0 3.748-2.168m-7.747 3.827-.505-1.488a31 31 0 0 1-3.983 1.065l.305 1.541a33 33 0 0 0 4.183-1.118" clip-rule="evenodd"/><path fill="#4A4A4A" d="m51.125 5.757-.049 1.016 1.017.05.049-1.017zm-4.205 0-1.016.049.049 1.016 1.016-.05zm-.076-1.57-.05-1.016-1.015.05.049 1.015zm4.357 0 1.017.05.049-1.017-1.017-.049zm-8.466 1.977.148 1.007 1.007-.148-.148-1.007zm-.229-1.554 1.007-.148-.148-1.007-1.007.148zm-4.276.846-.246-.987-.988.246.247.987zm.38 1.524-.986.247.246.987.987-.247zM34.588 8.2l.343.957.958-.343-.343-.958zm-.529-1.48.958-.343-.343-.958-.958.343zm-4.026 1.67-.436-.92-.92.436.436.92zm.672 1.42-.92.435.436.92.92-.436zm-3.706 1.984.524.872.873-.523-.524-.873zm-.809-1.347.873-.524-.524-.872-.873.524zm-3.621 2.425-.607-.817-.817.607.607.817zm.937 1.261-.817.607.607.817.817-.607zm-3.248 2.669.683.754.754-.684-.684-.754zM19.2 15.638l.754-.684-.684-.753-.754.683zm-3.081 3.081-.754-.683-.683.753.753.684zm1.164 1.056-.684.753.754.684.683-.754zm-2.67 3.248.818.607.606-.817-.816-.607zm-1.26-.937.606-.817-.816-.606-.607.816zm-2.425 3.622-.872-.524-.524.872.872.524zm1.347.808-.524.873.872.524.524-.873zm-1.985 3.706.92.436.435-.92-.92-.435zm-1.42-.672.436-.92-.92-.436-.435.92zm-1.67 4.026-.957-.343-.343.959.958.342zm1.48.53-.343.958.958.343.343-.958zm-1.22 4.023.988.247.247-.988-.988-.246zm-1.523-.38.246-.988-.987-.246-.247.987zm-.846 4.276-1.007-.148-.148 1.006 1.006.148zm1.554.228-.148 1.007 1.007.148.148-1.007zm-.408 4.185 1.017.05.049-1.017-1.016-.05zm-1.569-.076.05-1.016-1.017-.05-.05 1.017zm0 4.357-1.016.05.049 1.016 1.016-.05zm1.57-.076.049 1.017 1.016-.05-.05-1.016zm.407 4.185 1.007-.148-.148-1.007-1.007.149zm-1.554.229-.149-1.007-1.006.148.148 1.007zm.846 4.276-.988.247.247.987.987-.247zm1.524-.38.246.987.988-.247-.247-.987zm1.219 4.023.958-.343-.343-.958-.958.343zm-1.48.53-.342-.959-.958.343.343.958zm1.67 4.026-.92.436.437.92.92-.437zm1.42-.673.436.92.92-.436-.436-.92zm1.985 3.706.872-.524-.524-.872-.872.524zm-1.347.809-.524-.872-.872.524.524.872zm2.425 3.621-.817.607.607.817.816-.607zm1.26-.937.608.817.816-.606-.606-.817zm2.67 3.249.753-.684-.683-.753-.754.683zm-1.164 1.055-.684-.753-.753.683.683.754zm3.081 3.082-.684.753.754.684.684-.754zm1.055-1.164.754.683.684-.753-.754-.684zm3.249 2.668.607-.816-.817-.607-.607.817zm-.937 1.262-.817-.607-.607.817.817.607zm3.621 2.424-.524.872.873.524.524-.872zm.81-1.347.872.524.524-.872-.873-.524zm3.705 1.985.436-.92-.92-.435-.435.92zm-.672 1.42-.92-.436-.436.92.92.436zm4.026 1.67-.343.958.958.343.343-.959zm.53-1.48.957.343.343-.958-.958-.343zm4.023 1.22.246-.988-.987-.246-.246.987zm-.38 1.524-.988-.247-.247.987.988.247zm4.275.846-.148 1.007 1.007.148.148-1.007zm.23-1.555 1.006.148.148-1.006-1.007-.148zm4.184.408.049-1.016-1.016-.05-.05 1.017zm-.076 1.57-1.016-.05-.05 1.016 1.017.05zm4.357 0 .05 1.016 1.016-.05-.05-1.016zm-.076-1.57 1.017-.05-.05-1.016-1.016.05zm4.185-.408-.148-1.006-1.007.148.148 1.007zm.229 1.555-1.007.148.148 1.007 1.007-.148zm4.276-.846.247.987.987-.247-.247-.987zm-.38-1.525.987-.246-.247-.987-.987.246zm4.023-1.219-.343-.958-.958.343.343.958zm.53 1.48-.959.343.343.958.958-.343zm4.026-1.67.435.92.92-.436-.436-.92zm-.673-1.42.92-.436-.436-.92-.92.437zm3.706-1.985-.524-.872-.872.524.524.872zm.809 1.347-.872.524.523.872.873-.524zm3.621-2.424.607.817.817-.607-.607-.817zm-.937-1.261.817-.607-.607-.817-.816.607zm3.249-2.67-.684-.753-.754.684.684.753zm1.055 1.165-.754.683.684.754.754-.684zm3.081-3.082.754.684.684-.754-.754-.683zm-1.163-1.055.683-.754-.754-.683-.683.753zm2.668-3.249-.816-.606-.607.817.817.606zm1.262.937-.607.817.817.607.606-.817zm2.424-3.621.872.524.524-.872-.872-.524zm-1.347-.809.524-.872-.872-.524-.524.872zm1.985-3.706-.92-.435-.435.919.92.436zm1.42.673-.436.92.92.435.435-.92zm1.67-4.027.958.343.342-.958-.958-.343zm-1.48-.53.343-.957-.958-.343-.343.958zm1.22-4.023-.988-.246-.246.987.987.247zm1.524.381-.247.987.987.247.247-.987zm.846-4.276 1.006.148.148-1.007-1.006-.148zm-1.555-.229.148-1.006-1.006-.149-.148 1.007zm.408-4.185-1.017-.049-.049 1.017 1.017.049zm1.569.076-.05 1.017 1.017.049.05-1.017zm0-4.357 1.016-.049-.049-1.016-1.016.049zm-1.57.076-.048-1.016-1.017.049.05 1.016zm-.407-4.185-1.007.148.149 1.007 1.006-.148zm1.555-.228.148 1.006 1.006-.148-.148-1.007zm-.846-4.277.987-.246-.247-.987-.987.246zm-1.525.381-.246-.987-.987.246.246.988zm-1.219-4.023-.958.343.343.958.958-.343zm1.48-.53.342.958.958-.343-.342-.958zm-1.67-4.026.92-.436-.436-.92-.92.436zm-1.42.672-.436-.92-.92.436.436.92zm-1.985-3.706-.872.524.524.873.872-.524zm1.347-.808.524.872.872-.524-.524-.873zm-2.424-3.622.816-.607-.606-.816-.817.606zm-1.262.937-.606-.817-.817.607.607.817zm-2.669-3.248-.753.683.683.754.754-.684zm1.164-1.056.684.754.754-.684-.684-.753zm-3.08-3.081.683-.754-.754-.683-.684.753zm-1.056 1.164-.754-.684-.684.754.754.684zm-3.249-2.669-.606.817.816.607.607-.817zm.937-1.261.817.607.607-.817-.817-.607zm-3.621-2.425.524-.872-.873-.524-.523.872zm-.81 1.347-.871-.524-.524.873.872.523zM67.342 9.81l-.436.92.92.436.436-.92zm.673-1.42.92.436.435-.92-.92-.435zm-4.027-1.67.343-.957-.958-.343-.343.958zm-.53 1.48-.957-.343-.343.958.958.343zM59.435 6.98l-.246.987.987.247.247-.987zm.381-1.524.987.246.247-.987-.987-.246zm-4.276-.846.148-1.007-1.007-.148-.148 1.007zm-.229 1.554-1.007-.148-.148 1.007 1.007.148zM51.19 81.57l.065 1.015 1.015-.066-.065-1.015zm-4.334 0-1.016-.066-.065 1.015 1.015.066zM46.957 80l.066-1.016-1.016-.065-.065 1.015zm4.131 0 1.015-.066-.065-1.015-1.016.065zm-8.525 1.007-.197.999.998.197.197-.998zm.305-1.54.998.197.198-.999-.998-.197zm-3.983-1.066.327-.963-.964-.327-.327.963zm-.505 1.488-.964-.327-.327.963.964.328zm-4-1.658-.45.912.912.45.451-.912zm.697-1.409.912.45.45-.911-.912-.451zm-3.57-2.065.566-.846-.845-.566-.567.846zm-.874 1.306-.845-.566-.567.845.846.566zM27.2 73.425l-.671.765.764.671.671-.764zm1.036-1.18.765.67.671-.764-.765-.671zm-2.917-2.918.765-.67-.672-.766-.764.672zm-1.18 1.037-.672-.765-.765.671.671.765zm-2.64-3.434-.845.566.566.846.846-.566zm1.306-.874.566.846.846-.566-.566-.846zm-2.065-3.57.912-.45-.45-.912-.913.45zm-1.408.697-.451-.913-.912.451.45.912zm-1.659-4-.963.328.327.963.963-.327zm1.488-.504.327.963.964-.327-.327-.963zm-1.065-3.984.999-.197-.198-.998-.998.197zm-1.54.305-.198-.998-.999.197.198.999zm-.561-4.292-1.015.065.065 1.015 1.016-.065zm1.568-.102.065 1.016 1.016-.066-.066-1.015zm0-4.13 1.015.065.066-1.015-1.016-.066zm-1.568-.102.066-1.015-1.016-.066-.066 1.015zm.56-4.293-.998-.197-.198.998.999.198zm1.541.305-.197.999.998.197.198-.998zm1.065-3.983.964.327.327-.964-.964-.327zm-1.488-.505.327-.964-.963-.327-.327.964zm1.659-4-.913-.45-.45.912.912.451zm1.408.697-.45.912.912.45.45-.911zm2.065-3.57.846.566.566-.845-.846-.566zm-1.305-.874.566-.845-.846-.566-.566.845zm2.638-3.433-.765-.671-.67.764.764.672zm1.18 1.036-.67.765.764.671.672-.765zm2.918-2.917.671.765.765-.671-.671-.765zm-1.036-1.18.764-.672-.67-.765-.765.672zm3.433-2.639-.566-.846-.846.566.567.846zm.874 1.305-.846.567.567.845.845-.566zm3.57-2.065.45.913.913-.451-.451-.912zm-.696-1.408.912-.45-.45-.913-.913.45zm3.999-1.658-.327-.964-.964.327.327.963zm.505 1.487-.964.327.327.964.964-.327zm3.983-1.065.198.999.998-.198-.198-.998zm-.305-1.54.998-.198-.197-.998-.998.197zm4.293-.561-.066-1.015-1.015.065.065 1.016zm4.333 0 1.016.066.065-1.016-1.015-.065zm-.101 1.568-.066 1.015 1.016.066.066-1.015zm-4.13 0-1.016.066.065 1.015 1.016-.066zm8.524-1.008.197-.998-.998-.197-.197.998zm-.305 1.541-.998-.197-.198.998.999.198zm3.983 1.065-.327.964.964.327.327-.964zm.505-1.487.964.326.327-.963-.964-.327zm4 1.658.45-.913-.912-.45-.45.912zm-.697 1.408-.912-.45-.45.912.912.45zm3.57 2.066-.566.845.846.566.566-.845zm.874-1.306.846.566.566-.846-.846-.566zm3.433 2.638.672-.764-.765-.672-.671.765zm-1.036 1.181-.765-.671-.67.765.764.67zm2.917 2.917-.764.671.67.765.765-.671zm1.181-1.036.671.765.765-.672-.671-.764zm2.638 3.433.846-.566-.566-.845-.846.566zm-1.305.874-.566-.845-.846.566.566.845zm2.065 3.57-.912.45.45.913.913-.45zm1.409-.696.45.912.912-.45-.45-.913zm1.658 3.999.963-.327-.327-.964-.963.327zm-1.488.505-.327-.964-.963.327.327.964zm1.065 3.983-.998.198.197.998.998-.197zm1.541-.305.198.999.998-.198-.198-.998zm.56 4.293 1.016-.066L83 45.293l-1.015.066zm-1.567.101-.066-1.015-1.016.066.066 1.015zm0 4.131-1.016-.065-.066 1.015 1.016.066zm1.567.102-.065 1.015 1.015.066.066-1.016zM81.49 55l.998.198.198-.999-.998-.197zm-1.541-.305.197-.998-.998-.197-.197.998zm-1.065 3.984-.963-.327-.328.963.964.327zm1.488.505-.327.963.963.327.327-.963zm-1.658 3.999.912.45.45-.912-.912-.45zm-1.409-.696.45-.913-.911-.45-.451.912zm-2.065 3.57-.846-.567-.566.846.846.566zm1.305.873-.566.846.846.566.566-.846zm-2.638 3.434.765.67.671-.764-.765-.671zm-1.18-1.037.67-.764-.764-.672-.671.765zm-2.918 2.918-.671-.765-.765.67.671.766zm1.037 1.18-.765.672.671.764.765-.67zm-3.434 2.639.566.845.846-.566-.566-.846zm-.874-1.306.846-.566-.566-.846-.846.566zm-3.57 2.065-.45-.912-.913.45.451.913zm.696 1.409-.912.45.45.913.913-.451zm-3.999 1.658.327.964.964-.328-.327-.963zm-.505-1.488.964-.327-.327-.963-.964.327zm-3.983 1.065-.197-.998-.999.197.198.999zm.305 1.541-.998.198.197.998.998-.197zm-6.46-76.32C24.805 4.688 5.17 24.322 5.17 48.541h2.035c0-23.095 18.723-41.818 41.818-41.818zM5.17 48.541c0 24.219 19.634 43.852 43.853 43.852v-2.035c-23.095 0-41.818-18.722-41.818-41.817zm43.853 43.852c24.219 0 43.852-19.633 43.852-43.852H90.84c0 23.095-18.722 41.817-41.817 41.817zm43.852-43.852c0-24.22-19.633-43.853-43.852-43.853v2.035c23.095 0 41.817 18.723 41.817 41.818zM49.023 80.62c-17.718 0-32.08-14.363-32.08-32.08h-2.035c0 18.841 15.273 34.115 34.115 34.115zm-32.08-32.08c0-17.718 14.362-32.08 32.08-32.08v-2.035c-18.842 0-34.115 15.273-34.115 34.115zm32.08-32.08c17.717 0 32.08 14.362 32.08 32.08h2.035c0-18.842-15.274-34.115-34.115-34.115zm32.08 32.08c0 17.717-14.363 32.08-32.08 32.08v2.035c18.841 0 34.115-15.274 34.115-34.115zM51.174 4.74a45 45 0 0 0-2.151-.053v2.035q1.032 0 2.053.05zm-2.151-.053q-1.084 0-2.152.052l.098 2.033q1.02-.05 2.054-.05zm0-1.57q-1.12 0-2.228.053l.098 2.033a44 44 0 0 1 2.13-.052zm2.227.053a46 46 0 0 0-2.227-.054v2.035q1.07 0 2.129.052zm-8.892.432a45 45 0 0 0-4.374.866l.493 1.974a43 43 0 0 1 4.178-.827zm.229 1.554q-2.148.316-4.223.836l.493 1.974a42 42 0 0 1 4.026-.796zm-8.872.605a45 45 0 0 0-4.12 1.708l.872 1.84a43 43 0 0 1 3.934-1.632zm.53 1.479a44 44 0 0 0-3.976 1.649l.87 1.839a42 42 0 0 1 3.791-1.572zm-8.58 2.334a46 46 0 0 0-3.704 2.48l1.214 1.634a44 44 0 0 1 3.538-2.37zm.81 1.347a44 44 0 0 0-3.577 2.394l1.214 1.634a42 42 0 0 1 3.41-2.283zm-7.958 3.962a46 46 0 0 0-3.15 3.152l1.507 1.367a44 44 0 0 1 3.01-3.011zm1.056 1.164a44 44 0 0 0-3.043 3.043l1.507 1.367a42 42 0 0 1 2.903-2.902zm-7.036 5.431a46 46 0 0 0-2.48 3.704l1.745 1.048a44 44 0 0 1 2.368-3.538zm1.261.937a44 44 0 0 0-2.394 3.576l1.744 1.048a42 42 0 0 1 2.284-3.41zm-5.846 6.698a45 45 0 0 0-1.708 4.12l1.916.685a43 43 0 0 1 1.631-3.934zm1.42.673a44 44 0 0 0-1.65 3.976l1.917.686a42 42 0 0 1 1.572-3.791zM4.95 37.502a45 45 0 0 0-.865 4.374l2.013.297q.314-2.125.827-4.178zm1.525.38a44 44 0 0 0-.836 4.223l2.014.296q.301-2.047.796-4.026zm-2.822 8.431a46 46 0 0 0-.054 2.228h2.035q0-1.071.052-2.13zm-.054 2.228q0 1.121.054 2.227l2.033-.098a44 44 0 0 1-.052-2.13zm1.571 0q0 1.082.052 2.152l2.033-.099q-.05-1.02-.05-2.053zm.052-2.152a45 45 0 0 0-.052 2.152h2.035q0-1.033.05-2.054zm-1.137 8.816q.328 2.225.865 4.375l1.975-.493a43 43 0 0 1-.827-4.178zm1.554-.229q.316 2.148.836 4.223l1.974-.493a42 42 0 0 1-.796-4.026zm.605 8.872a45 45 0 0 0 1.708 4.12l1.839-.872a43 43 0 0 1-1.631-3.934zm1.479-.53a44 44 0 0 0 1.649 3.977l1.839-.871a42 42 0 0 1-1.572-3.791zm2.334 8.58a46 46 0 0 0 2.48 3.704l1.633-1.213a44 44 0 0 1-2.368-3.539zm1.347-.809a44 44 0 0 0 2.394 3.576l1.634-1.213a42 42 0 0 1-2.284-3.41zm3.962 7.957a46 46 0 0 0 3.151 3.151l1.368-1.507a44 44 0 0 1-3.011-3.011zm1.164-1.056a44 44 0 0 0 3.043 3.043l1.367-1.507a42 42 0 0 1-2.903-2.903zm5.431 7.037a46 46 0 0 0 3.704 2.48l1.048-1.745a44 44 0 0 1-3.538-2.37zm.937-1.262a44 44 0 0 0 3.576 2.395l1.048-1.745a42 42 0 0 1-3.41-2.283zm6.698 5.847a45 45 0 0 0 4.12 1.708l.685-1.916a43 43 0 0 1-3.934-1.632zm.672-1.42a44 44 0 0 0 3.977 1.649l.685-1.917a42 42 0 0 1-3.79-1.571zm7.716 4.42q2.15.538 4.374.867l.297-2.014a43 43 0 0 1-4.178-.827zm.38-1.523q2.076.519 4.223.835l.296-2.013a42 42 0 0 1-4.026-.797zm8.43 2.822q1.11.053 2.229.053V91.93q-1.071 0-2.13-.051zm2.229.053q1.12 0 2.227-.053l-.098-2.033a44 44 0 0 1-2.13.051zm0-1.57q1.082 0 2.151-.053l-.098-2.032q-1.02.049-2.053.05zm-2.152-.053q1.07.052 2.152.052v-2.035q-1.034 0-2.054-.05zm8.816 1.138a45 45 0 0 0 4.375-.866l-.494-1.975a43 43 0 0 1-4.177.827zm-.229-1.555q2.147-.316 4.223-.835l-.493-1.975a42 42 0 0 1-4.026.797zm8.872-.604a45 45 0 0 0 4.12-1.708l-.872-1.84a43 43 0 0 1-3.934 1.632zm-.53-1.48a44 44 0 0 0 3.977-1.648l-.872-1.84a42 42 0 0 1-3.79 1.572zm8.58-2.334a46 46 0 0 0 3.704-2.48l-1.213-1.633a44 44 0 0 1-3.54 2.369zm-.81-1.346a44 44 0 0 0 3.577-2.395l-1.213-1.633a42 42 0 0 1-3.411 2.283zm7.958-3.963a46 46 0 0 0 3.151-3.151l-1.507-1.367a44 44 0 0 1-3.011 3.01zm-1.056-1.164a44 44 0 0 0 3.043-3.043l-1.507-1.367a42 42 0 0 1-2.903 2.903zm7.036-5.43a46 46 0 0 0 2.48-3.705l-1.744-1.048a43 43 0 0 1-2.37 3.539zm-1.26-.938a44 44 0 0 0 2.393-3.576l-1.744-1.048a42 42 0 0 1-2.283 3.41zm5.845-6.697a45 45 0 0 0 1.709-4.12l-1.917-.686a43 43 0 0 1-1.63 3.934zm-1.42-.673a44 44 0 0 0 1.65-3.976l-1.917-.686a42 42 0 0 1-1.572 3.79zm4.422-7.715q.538-2.15.865-4.375l-2.013-.296a43 43 0 0 1-.827 4.178zm-1.525-.381a44 44 0 0 0 .836-4.223l-2.014-.296a42 42 0 0 1-.796 4.026zm2.822-8.43q.054-1.108.054-2.228h-2.035q0 1.071-.051 2.13zm.054-2.228q0-1.12-.054-2.228l-2.032.098q.051 1.059.051 2.13zm-1.571 0q0-1.083-.052-2.152l-2.033.098q.05 1.02.05 2.054zm-.052 2.152q.052-1.07.052-2.152H90.84q0 1.033-.05 2.053zm1.137-8.816a45 45 0 0 0-.865-4.375l-1.975.493a43 43 0 0 1 .827 4.178zm-1.554.228a44 44 0 0 0-.836-4.222l-1.974.492a42 42 0 0 1 .796 4.026zm-.604-8.872a45 45 0 0 0-1.709-4.119l-1.839.871a43 43 0 0 1 1.631 3.934zm-1.48.53a44 44 0 0 0-1.648-3.976l-1.84.871a42 42 0 0 1 1.572 3.79zm-2.334-8.58a46 46 0 0 0-2.48-3.704l-1.633 1.214a43 43 0 0 1 2.369 3.538zm-1.347.81a44 44 0 0 0-2.394-3.577l-1.633 1.214a42 42 0 0 1 2.283 3.41zm-3.962-7.957a46 46 0 0 0-3.151-3.152l-1.367 1.508a44 44 0 0 1 3.01 3.01zm-1.164 1.055a44 44 0 0 0-3.043-3.043l-1.367 1.508a42 42 0 0 1 2.903 2.902zm-5.431-7.036a46 46 0 0 0-3.704-2.48l-1.048 1.745q1.83 1.099 3.539 2.369zm-.937 1.261a44 44 0 0 0-3.576-2.394l-1.048 1.744a42 42 0 0 1 3.41 2.284zM68.45 7.47a45 45 0 0 0-4.12-1.708l-.685 1.916a43 43 0 0 1 3.934 1.631zm-.672 1.42A44 44 0 0 0 63.8 7.24l-.686 1.916q1.942.695 3.79 1.572zm-7.715-4.421a45 45 0 0 0-4.375-.866l-.296 2.013q2.125.314 4.178.827zm-.381 1.524a44 44 0 0 0-4.223-.836l-.296 2.014q2.048.301 4.026.796zm-8.557 74.56q-1.042.068-2.101.068v2.035q1.125 0 2.232-.072zm-2.101.068q-1.06 0-2.102-.068l-.13 2.03q1.106.073 2.232.073zm0-1.571q-1.01 0-2-.065l-.132 2.031q1.058.069 2.132.069zm2-.065q-.992.065-2 .065v2.035q1.074 0 2.13-.069zm-7.957-.516a30 30 0 0 1-3.854-1.03l-.654 1.927q2.002.68 4.113 1.1zm-.305 1.541a32 32 0 0 1-4.054-1.084l-.654 1.928q2.1.712 4.313 1.153zm-7.234-4.1a30.5 30.5 0 0 1-3.454-1.998l-1.132 1.692c1.176.787 2.407 1.5 3.685 2.131zm-.696 1.41a32 32 0 0 1-3.632-2.102l-1.132 1.691a34 34 0 0 0 3.863 2.235zm-5.924-5.84a31 31 0 0 1-2.823-2.824L24.554 70a33 33 0 0 0 3.01 3.01zm-1.036 1.18a32 32 0 0 1-2.968-2.968l-1.53 1.343a34 34 0 0 0 3.156 3.155zm-4.22-7.17a30.5 30.5 0 0 1-1.999-3.454l-1.824.901a32.5 32.5 0 0 0 2.132 3.685zm-1.306.874a32 32 0 0 1-2.101-3.632l-1.825.901a34 34 0 0 0 2.235 3.863zm-2.22-8.012a30 30 0 0 1-1.03-3.854l-1.997.395a32 32 0 0 0 1.1 4.113zm-1.488.505a32 32 0 0 1-1.084-4.054l-1.996.395a34 34 0 0 0 1.153 4.313zm-.059-8.316a31 31 0 0 1-.064-2h-2.035q0 1.074.068 2.13zm-.064-2q0-1.009.064-2l-2.03-.131a33 33 0 0 0-.07 2.13zm-1.571 0q0-1.06.067-2.101l-2.03-.132a35 35 0 0 0-.072 2.233zm.067 2.1a33 33 0 0 1-.067-2.1h-2.035q0 1.125.072 2.232zm2.084-8.057q.393-1.978 1.03-3.854l-1.926-.654a32 32 0 0 0-1.1 4.113zm-1.54-.305a32 32 0 0 1 1.083-4.054l-1.927-.654a34 34 0 0 0-1.153 4.313zm4.098-7.233a30.5 30.5 0 0 1 1.999-3.455L21.96 30.46a32.5 32.5 0 0 0-2.132 3.685zm-1.408-.696a32 32 0 0 1 2.101-3.633l-1.69-1.132a34 34 0 0 0-2.236 3.863zm5.84-5.925a31 31 0 0 1 2.823-2.823l-1.342-1.53a33 33 0 0 0-3.01 3.011zm-1.181-1.036a32 32 0 0 1 2.968-2.968l-1.342-1.53a34 34 0 0 0-3.156 3.156zm7.17-4.22a30.5 30.5 0 0 1 3.454-1.998l-.901-1.825a32.5 32.5 0 0 0-3.685 2.132zm-.874-1.306a32 32 0 0 1 3.632-2.1l-.901-1.826c-1.34.662-2.63 1.41-3.863 2.235zm8.013-2.22q1.876-.638 3.854-1.03l-.395-1.997a32 32 0 0 0-4.113 1.1zm-.505-1.488a32 32 0 0 1 4.054-1.084l-.395-1.996a34 34 0 0 0-4.313 1.153zm8.215-1.626a33 33 0 0 1 2.1-.068v-2.035q-1.125 0-2.232.072zm2.1-.068q1.06 0 2.102.068l.131-2.031a35 35 0 0 0-2.232-.072zm0 1.57q1.01.001 2 .065l.132-2.03a33 33 0 0 0-2.131-.07zm-2 .065q.993-.064 2-.064v-2.035q-1.073 0-2.13.068zm7.958.517c1.317.26 2.603.606 3.853 1.03l.654-1.927a32 32 0 0 0-4.112-1.1zm.305-1.542a32 32 0 0 1 4.053 1.084l.654-1.927a34 34 0 0 0-4.313-1.153zm7.233 4.1a30.5 30.5 0 0 1 3.454 1.998l1.132-1.691a32.5 32.5 0 0 0-3.685-2.132zm.696-1.409a32 32 0 0 1 3.632 2.101l1.132-1.69a34 34 0 0 0-3.863-2.235zm5.924 5.84a31 31 0 0 1 2.823 2.823l1.53-1.342a33 33 0 0 0-3.01-3.01zm1.036-1.181a32 32 0 0 1 2.968 2.968l1.53-1.342a34 34 0 0 0-3.155-3.155zm4.22 7.17a30.5 30.5 0 0 1 1.999 3.454l1.824-.9a32.5 32.5 0 0 0-2.132-3.686zm1.306-.874A32 32 0 0 1 77.8 34.35l1.825-.902a34 34 0 0 0-2.235-3.863zm2.22 8.013q.639 1.877 1.03 3.854l1.997-.395a32 32 0 0 0-1.1-4.113zm1.488-.505a32 32 0 0 1 1.084 4.054l1.996-.395a34 34 0 0 0-1.153-4.313zm.06 8.316q.063.991.063 2h2.035q0-1.074-.068-2.131zm.063 2q0 1.008-.064 2l2.03.13q.07-1.056.07-2.13zm1.572 0q0 1.059-.068 2.1l2.03.132q.073-1.107.073-2.232zm-.068-2.101q.068 1.042.068 2.1h2.035q0-1.124-.072-2.232zm-2.084 8.058a30 30 0 0 1-1.03 3.854l1.927.654a32 32 0 0 0 1.1-4.113zm1.54.305a32 32 0 0 1-1.083 4.053l1.927.654q.714-2.1 1.153-4.312zm-4.098 7.233a30.5 30.5 0 0 1-1.999 3.454l1.691 1.132a32.5 32.5 0 0 0 2.132-3.685zm1.408.696a32 32 0 0 1-2.101 3.632l1.69 1.132a34 34 0 0 0 2.236-3.863zm-5.84 5.924a31 31 0 0 1-2.823 2.824l1.342 1.53a33 33 0 0 0 3.011-3.011zm1.181 1.036a32 32 0 0 1-2.968 2.969l1.343 1.53a34 34 0 0 0 3.155-3.156zm-7.17 4.22a30.5 30.5 0 0 1-3.454 1.999l.901 1.824a32.5 32.5 0 0 0 3.685-2.131zm.874 1.306a32 32 0 0 1-3.632 2.102l.901 1.824c1.34-.662 2.63-1.41 3.863-2.235zm-8.013 2.22q-1.876.639-3.853 1.03l.395 1.997a32 32 0 0 0 4.112-1.1zm.505 1.488a32 32 0 0 1-4.053 1.084l.394 1.996a34 34 0 0 0 4.313-1.152zm-7.196-73.12.075-1.57-2.032-.098-.076 1.57zm-6.314-1.57.076 1.57 2.032-.099-.076-1.569zm-2.086 1.78-.229-1.554-2.013.296.228 1.554zm-6.499-.314.38 1.525 1.975-.493-.38-1.525zm-1.698 2.154-.529-1.479-1.916.686.53 1.479zm-6.433.97.673 1.419 1.839-.871-.673-1.42zM27.87 11.27l-.81-1.347-1.744 1.048.809 1.347zm-6.12 2.209.937 1.26 1.634-1.213-.937-1.261zm-.74 2.64-1.056-1.165-1.508 1.368 1.056 1.163zm-5.575 3.354 1.164 1.055 1.367-1.507-1.164-1.056zm-.214 2.733-1.262-.937-1.213 1.634 1.261.937zm-4.817 4.374 1.347.809 1.048-1.745-1.347-.809zm.322 2.723-1.42-.673-.871 1.84 1.42.672zm-3.868 5.231 1.48.53.685-1.916-1.48-.53zm.85 2.608-1.525-.38-.493 1.974 1.524.38zm-2.766 5.89 1.555.228.296-2.014-1.554-.228zm1.345 2.39-1.57-.076-.098 2.033 1.57.075zm-1.57 6.314 1.57-.076-.099-2.033-1.569.076zm1.78 2.086-1.555.228.297 2.014 1.554-.229zm-.314 6.498 1.524-.38-.493-1.975-1.524.38zm2.154 1.698-1.48.53.687 1.915 1.479-.53zm.97 6.433 1.419-.672-.871-1.84-1.42.673zm2.444 1.242-1.347.809 1.048 1.744 1.347-.809zm2.208 6.12 1.262-.938-1.214-1.633-1.261.937zm2.64.74-1.164 1.056 1.367 1.507 1.164-1.055zm3.355 5.574 1.055-1.164-1.507-1.367-1.056 1.164zm2.733.215-.937 1.261 1.634 1.214.937-1.262zm4.374 4.816.809-1.347-1.745-1.048-.809 1.347zm2.723-.322-.673 1.42 1.839.872.673-1.42zm5.231 3.868.53-1.479-1.917-.685-.529 1.479zm2.608-.85-.381 1.525 1.974.493.381-1.524zm5.89 2.766.228-1.555-2.014-.296-.228 1.555zm2.39-1.344-.076 1.57 2.032.097.076-1.569zm6.313 1.57-.075-1.57-2.033.098.076 1.57zm2.086-1.78.23 1.554 2.012-.296-.228-1.555zm6.5.313-.381-1.524-1.975.493.38 1.524zm1.697-2.154.529 1.48 1.916-.686-.53-1.48zm6.433-.969-.672-1.42-1.84.872.673 1.42zm1.242-2.445.809 1.347 1.744-1.048-.809-1.347zm6.12-2.208-.938-1.261-1.633 1.213.936 1.261zm.74-2.64 1.055 1.164 1.508-1.367-1.055-1.164zm5.574-3.354-1.164-1.056-1.367 1.508 1.164 1.055zm.215-2.734 1.26.937 1.214-1.633-1.26-.937zm4.816-4.373-1.347-.81-1.048 1.745 1.347.81zm-.322-2.723 1.42.672.871-1.839-1.42-.672zm3.868-5.232-1.479-.53-.686 1.917 1.48.53zm-.85-2.607 1.525.38.493-1.974-1.524-.38zm2.766-5.89-1.555-.228-.296 2.013 1.554.229zm-1.344-2.39 1.569.076.098-2.033-1.57-.076zm1.569-6.314-1.57.076.099 2.032 1.57-.075zm-1.78-2.086 1.555-.229-.297-2.013-1.554.228zm.314-6.499-1.524.38.493 1.975 1.524-.38zm-2.154-1.697 1.48-.53-.686-1.916-1.48.53zm-.969-6.434-1.42.673.872 1.839 1.42-.673zm-2.445-1.241 1.347-.81-1.048-1.744-1.347.81zm-2.208-6.12-1.261.937 1.213 1.634 1.261-.937zm-2.64-.74 1.164-1.056-1.367-1.508-1.164 1.056zm-3.355-5.574-1.055 1.163 1.508 1.367 1.055-1.163zm-2.733-.215.937-1.261-1.634-1.214-.936 1.261zm-4.373-4.817-.81 1.347 1.745 1.048.81-1.347zm-2.723.322.672-1.42-1.839-.871-.672 1.42zm-5.232-3.868-.53 1.48 1.917.685.53-1.48zm-2.607.85.38-1.525-1.974-.493-.38 1.525zm-5.89-2.765-.229 1.554 2.014.296.228-1.554zm-2.327 77.04-.102-1.567-2.03.131.1 1.568zm-6.263-1.567-.102 1.568 2.031.131.102-1.568zm-2.38 1.27.304-1.54-1.996-.395-.305 1.54zm-5.64-3.13-.506 1.488 1.927.654.505-1.488zm-2.629.607.696-1.408-1.825-.902-.696 1.409zm-4.631-4.49-.874 1.306 1.69 1.132.875-1.306zm-2.698-.095 1.037-1.181-1.53-1.343-1.036 1.181zm-3.316-5.534-1.181 1.036 1.342 1.53 1.181-1.037zm-2.582-.787 1.305-.874-1.132-1.691-1.305.874zm-1.776-6.202-1.41.696.902 1.825 1.409-.696zM18 60.147l1.488-.505-.654-1.927-1.488.505zm-.101-6.45-1.541.305.395 1.996 1.54-.305zm-1.838-1.974 1.567-.101-.13-2.031-1.569.101zm1.567-6.263-1.567-.101-.132 2.03 1.568.102zm-1.27-2.38 1.54.305.396-1.997-1.541-.305zm3.13-5.64L18 36.933l-.654 1.928 1.488.505zm-.607-2.629 1.409.696.9-1.824-1.408-.696zm4.49-4.631-1.305-.874-1.132 1.69 1.305.875zm.096-2.697 1.18 1.036 1.343-1.53-1.18-1.036zM29 24.166l-1.037-1.181-1.53 1.342 1.037 1.181zm.787-2.582.874 1.306 1.69-1.133-.873-1.305zm6.2-1.776-.695-1.409-1.825.901.696 1.41zm1.428-2.29.505 1.488 1.927-.654-.505-1.488zm6.45-.101-.305-1.541-1.996.395.305 1.54zm8.237-.27.102-1.568-2.031-.132-.101 1.568zm-6.263-1.568.102 1.567 2.03-.13-.1-1.569zm8.644.297-.305 1.541 1.996.395.305-1.541zm5.64 3.13.505-1.488-1.927-.654-.505 1.488zm2.628-.607-.696 1.409 1.825.901.696-1.408zm4.632 4.49.874-1.305-1.691-1.132-.874 1.305zm2.697.096-1.037 1.18 1.53 1.343 1.036-1.18zm3.316 5.534 1.181-1.036-1.342-1.53-1.18 1.036zm2.582.787-1.305.874 1.132 1.69 1.306-.873zm1.777 6.201 1.408-.696-.901-1.824-1.409.696zm2.289 1.427-1.488.505.654 1.928 1.488-.505zm.101 6.45 1.542-.304-.395-1.997-1.542.305zm1.839 1.975-1.568.1.131 2.032 1.568-.102zm-1.568 6.263 1.568.1.13-2.03-1.567-.101zm1.27 2.38-1.54-.305-.396 1.996 1.542.305zm-3.13 5.64 1.488.505.654-1.927-1.488-.505zm.607 2.628-1.408-.696-.902 1.825 1.409.696zm-4.49 4.632 1.305.874 1.133-1.691-1.306-.874zm-.096 2.697-1.18-1.036-1.343 1.53 1.18 1.035zm-5.534 3.317 1.037 1.18 1.53-1.342-1.037-1.18zm-.786 2.582-.874-1.306-1.691 1.132.874 1.306zm-6.202 1.776.696 1.408 1.825-.901-.696-1.409zm-1.427 2.289-.505-1.488-1.927.654.505 1.488zm-6.45.102.305 1.54 1.996-.394-.305-1.541z" mask="url(#a)"/><mask id="b" width="92" height="92" x="-.439" y="-.158" fill="#000" maskUnits="userSpaceOnUse"><path fill="#fff" d="M-.439-.158h92v92h-92z"/><path d="M45.967 3.413c-23.657 0-42.835 19.178-42.835 42.835S22.31 89.083 45.967 89.083s42.835-19.178 42.835-42.835S69.624 3.413 45.967 3.413m0 75.933c-18.28 0-33.098-14.818-33.098-33.098s14.818-33.097 33.098-33.097 33.097 14.818 33.097 33.097-14.818 33.098-33.097 33.098"/><path fill-rule="evenodd" d="M48.07 3.464a44 44 0 0 0-4.206 0l-.076-1.57a45 45 0 0 1 4.357 0zm-8.39.407-.23-1.554q-2.174.32-4.276.846l.381 1.524a43 43 0 0 1 4.124-.816m-8.148 2.035-.53-1.479a44 44 0 0 0-4.026 1.67l.672 1.42a43 43 0 0 1 3.884-1.61m-7.59 3.596-.808-1.347a45 45 0 0 0-3.622 2.424l.937 1.261a43 43 0 0 1 3.493-2.338m-6.741 5.007-1.056-1.164a45 45 0 0 0-3.081 3.082l1.164 1.055a43 43 0 0 1 2.973-2.973m-5.642 6.221-1.261-.937a45 45 0 0 0-2.425 3.622l1.347.809a43 43 0 0 1 2.339-3.494m-4.324 7.2-1.42-.673a44 44 0 0 0-1.67 4.027l1.48.529a43 43 0 0 1 1.61-3.883m-2.829 7.906-1.524-.38q-.526 2.101-.846 4.276l1.554.229q.31-2.098.816-4.125m-1.223 8.31-1.57-.077a45 45 0 0 0 0 4.358l1.57-.076a44 44 0 0 1 0-4.206m.407 8.39-1.554.228q.32 2.175.846 4.276l1.524-.38a43 43 0 0 1-.816-4.124m2.035 8.147-1.48.53a44 44 0 0 0 1.67 4.026l1.42-.672a43 43 0 0 1-1.61-3.884m3.595 7.59-1.347.808a45 45 0 0 0 2.425 3.622l1.261-.937a43 43 0 0 1-2.339-3.494m5.008 6.741-1.164 1.056a45 45 0 0 0 3.081 3.08l1.056-1.163a43 43 0 0 1-2.973-2.973m6.221 5.642-.937 1.261a45 45 0 0 0 3.622 2.424l.808-1.346a43 43 0 0 1-3.493-2.34m7.2 4.323-.673 1.42a44 44 0 0 0 4.026 1.67l.53-1.48a43 43 0 0 1-3.884-1.61m7.906 2.83-.38 1.524q2.1.526 4.276.846l.228-1.554a43 43 0 0 1-4.124-.816m8.31 1.223-.077 1.57a45 45 0 0 0 4.357 0l-.076-1.57a44 44 0 0 1-4.205 0m8.39-.407.228 1.554a44 44 0 0 0 4.276-.846l-.38-1.524q-2.027.506-4.125.816m8.147-2.035.53 1.479a44 44 0 0 0 4.026-1.67l-.673-1.42a43 43 0 0 1-3.883 1.61m7.59-3.595.808 1.346a45 45 0 0 0 3.621-2.424l-.937-1.261a43 43 0 0 1-3.493 2.339m6.74-5.008 1.056 1.164a45 45 0 0 0 3.082-3.081l-1.164-1.056a43 43 0 0 1-2.973 2.973m5.642-6.221 1.262.937a45 45 0 0 0 2.424-3.622l-1.347-.809a43 43 0 0 1-2.338 3.494m4.324-7.2 1.42.673a44 44 0 0 0 1.67-4.027l-1.48-.529a43 43 0 0 1-1.61 3.884m2.83-7.906 1.524.38q.526-2.101.846-4.276l-1.555-.228a43 43 0 0 1-.816 4.124m1.223-8.31 1.57.077a45 45 0 0 0 0-4.358l-1.57.076a44 44 0 0 1 0 4.206m-.408-8.39 1.555-.228a44 44 0 0 0-.846-4.276l-1.525.38q.507 2.026.816 4.125m-2.035-8.147 1.48-.53a44 44 0 0 0-1.67-4.026l-1.42.673a43 43 0 0 1 1.61 3.883m-3.595-7.59 1.347-.808a45 45 0 0 0-2.424-3.622l-1.261.937a43 43 0 0 1 2.338 3.494m-5.007-6.741 1.163-1.055a45 45 0 0 0-3.08-3.082l-1.056 1.164a43 43 0 0 1 2.973 2.973m-6.222-5.642.937-1.26A45 45 0 0 0 68.8 8.154l-.809 1.347a43 43 0 0 1 3.493 2.338m-7.199-4.323.673-1.42a44 44 0 0 0-4.027-1.67l-.53 1.48a43 43 0 0 1 3.884 1.61m-7.906-2.83.38-1.524q-2.101-.526-4.276-.846l-.229 1.554q2.098.31 4.125.816m-8.245 74.589a34 34 0 0 1-4.334 0l.101-1.568a32 32 0 0 0 4.131 0zm-8.627-.56.305-1.542a31 31 0 0 1-3.983-1.064l-.505 1.487c1.357.46 2.754.836 4.183 1.119m-8.182-2.777.696-1.408a31.5 31.5 0 0 1-3.57-2.066l-.874 1.306c1.197.8 2.448 1.526 3.748 2.168m-7.181-4.806 1.036-1.181a32 32 0 0 1-2.917-2.917l-1.18 1.036a33 33 0 0 0 3.06 3.062m-5.7-6.495 1.306-.874a31.5 31.5 0 0 1-2.066-3.57l-1.408.696a33 33 0 0 0 2.168 3.748m-3.826-7.747 1.487-.505a31 31 0 0 1-1.065-3.983l-1.54.304a33 33 0 0 0 1.117 4.184m-1.679-8.476 1.568-.102a32 32 0 0 1 0-4.13l-1.568-.102a34 34 0 0 0 0 4.334m.56-8.626 1.541.305q.406-2.044 1.065-3.984l-1.488-.505A33 33 0 0 0 13.5 39.79m2.777-8.183 1.408.696a31.5 31.5 0 0 1 2.066-3.57l-1.306-.873a33 33 0 0 0-2.168 3.747m4.806-7.18 1.181 1.036a32 32 0 0 1 2.917-2.918l-1.036-1.18a33 33 0 0 0-3.062 3.061m6.495-5.7.874 1.305a31.5 31.5 0 0 1 3.57-2.065l-.696-1.409a33 33 0 0 0-3.748 2.168m7.747-3.827.505 1.488a31 31 0 0 1 3.983-1.065l-.305-1.541q-2.146.425-4.183 1.118M43.8 13.22a34 34 0 0 1 4.334 0l-.102 1.568a32 32 0 0 0-4.13 0zm8.626.56-.305 1.542q2.044.406 3.984 1.065l.505-1.488a33 33 0 0 0-4.184-1.118m8.183 2.777-.696 1.409a31.5 31.5 0 0 1 3.57 2.065l.873-1.306a33 33 0 0 0-3.747-2.168m7.18 4.807-1.036 1.18a32 32 0 0 1 2.918 2.918l1.18-1.037a33 33 0 0 0-3.061-3.062m5.7 6.494-1.305.875a31.5 31.5 0 0 1 2.065 3.57l1.409-.697a33 33 0 0 0-2.168-3.748m3.827 7.747-1.488.505a31 31 0 0 1 1.065 3.984l1.541-.305a33 33 0 0 0-1.118-4.184m1.678 8.476-1.567.102a32 32 0 0 1 0 4.13l1.567.102a34 34 0 0 0 0-4.334m-.56 8.626-1.54-.304a31 31 0 0 1-1.066 3.983l1.488.505a33 33 0 0 0 1.118-4.184m-2.776 8.183-1.409-.696a31.5 31.5 0 0 1-2.065 3.57l1.306.874a33 33 0 0 0 2.168-3.748M70.85 68.07l-1.18-1.036a32 32 0 0 1-2.918 2.917l1.037 1.18a33 33 0 0 0 3.061-3.061m-6.495 5.7-.874-1.306a31.5 31.5 0 0 1-3.57 2.066l.697 1.408a33 33 0 0 0 3.747-2.168m-7.746 3.826-.505-1.487a31 31 0 0 1-3.984 1.064l.305 1.542a33 33 0 0 0 4.183-1.119" clip-rule="evenodd"/></mask><path fill="#F0E7D8" d="M45.967 3.413c-23.657 0-42.835 19.178-42.835 42.835S22.31 89.083 45.967 89.083s42.835-19.178 42.835-42.835S69.624 3.413 45.967 3.413m0 75.933c-18.28 0-33.098-14.818-33.098-33.098s14.818-33.097 33.098-33.097 33.097 14.818 33.097 33.097-14.818 33.098-33.097 33.098"/><path fill="#F0E7D8" fill-rule="evenodd" d="M48.07 3.464a44 44 0 0 0-4.206 0l-.076-1.57a45 45 0 0 1 4.357 0zm-8.39.407-.23-1.554q-2.174.32-4.276.846l.381 1.524a43 43 0 0 1 4.124-.816m-8.148 2.035-.53-1.479a44 44 0 0 0-4.026 1.67l.672 1.42a43 43 0 0 1 3.884-1.61m-7.59 3.596-.808-1.347a45 45 0 0 0-3.622 2.424l.937 1.261a43 43 0 0 1 3.493-2.338m-6.741 5.007-1.056-1.164a45 45 0 0 0-3.081 3.082l1.164 1.055a43 43 0 0 1 2.973-2.973m-5.642 6.221-1.261-.937a45 45 0 0 0-2.425 3.622l1.347.809a43 43 0 0 1 2.339-3.494m-4.324 7.2-1.42-.673a44 44 0 0 0-1.67 4.027l1.48.529a43 43 0 0 1 1.61-3.883m-2.829 7.906-1.524-.38q-.526 2.101-.846 4.276l1.554.229q.31-2.098.816-4.125m-1.223 8.31-1.57-.077a45 45 0 0 0 0 4.358l1.57-.076a44 44 0 0 1 0-4.206m.407 8.39-1.554.228q.32 2.175.846 4.276l1.524-.38a43 43 0 0 1-.816-4.124m2.035 8.147-1.48.53a44 44 0 0 0 1.67 4.026l1.42-.672a43 43 0 0 1-1.61-3.884m3.595 7.59-1.347.808a45 45 0 0 0 2.425 3.622l1.261-.937a43 43 0 0 1-2.339-3.494m5.008 6.741-1.164 1.056a45 45 0 0 0 3.081 3.08l1.056-1.163a43 43 0 0 1-2.973-2.973m6.221 5.642-.937 1.261a45 45 0 0 0 3.622 2.424l.808-1.346a43 43 0 0 1-3.493-2.34m7.2 4.323-.673 1.42a44 44 0 0 0 4.026 1.67l.53-1.48a43 43 0 0 1-3.884-1.61m7.906 2.83-.38 1.524q2.1.526 4.276.846l.228-1.554a43 43 0 0 1-4.124-.816m8.31 1.223-.077 1.57a45 45 0 0 0 4.357 0l-.076-1.57a44 44 0 0 1-4.205 0m8.39-.407.228 1.554a44 44 0 0 0 4.276-.846l-.38-1.524q-2.027.506-4.125.816m8.147-2.035.53 1.479a44 44 0 0 0 4.026-1.67l-.673-1.42a43 43 0 0 1-3.883 1.61m7.59-3.595.808 1.346a45 45 0 0 0 3.621-2.424l-.937-1.261a43 43 0 0 1-3.493 2.339m6.74-5.008 1.056 1.164a45 45 0 0 0 3.082-3.081l-1.164-1.056a43 43 0 0 1-2.973 2.973m5.642-6.221 1.262.937a45 45 0 0 0 2.424-3.622l-1.347-.809a43 43 0 0 1-2.338 3.494m4.324-7.2 1.42.673a44 44 0 0 0 1.67-4.027l-1.48-.529a43 43 0 0 1-1.61 3.884m2.83-7.906 1.524.38q.526-2.101.846-4.276l-1.555-.228a43 43 0 0 1-.816 4.124m1.223-8.31 1.57.077a45 45 0 0 0 0-4.358l-1.57.076a44 44 0 0 1 0 4.206m-.408-8.39 1.555-.228a44 44 0 0 0-.846-4.276l-1.525.38q.507 2.026.816 4.125m-2.035-8.147 1.48-.53a44 44 0 0 0-1.67-4.026l-1.42.673a43 43 0 0 1 1.61 3.883m-3.595-7.59 1.347-.808a45 45 0 0 0-2.424-3.622l-1.261.937a43 43 0 0 1 2.338 3.494m-5.007-6.741 1.163-1.055a45 45 0 0 0-3.08-3.082l-1.056 1.164a43 43 0 0 1 2.973 2.973m-6.222-5.642.937-1.26A45 45 0 0 0 68.8 8.154l-.809 1.347a43 43 0 0 1 3.493 2.338m-7.199-4.323.673-1.42a44 44 0 0 0-4.027-1.67l-.53 1.48a43 43 0 0 1 3.884 1.61m-7.906-2.83.38-1.524q-2.101-.526-4.276-.846l-.229 1.554q2.098.31 4.125.816m-8.245 74.589a34 34 0 0 1-4.334 0l.101-1.568a32 32 0 0 0 4.131 0zm-8.627-.56.305-1.542a31 31 0 0 1-3.983-1.064l-.505 1.487c1.357.46 2.754.836 4.183 1.119m-8.182-2.777.696-1.408a31.5 31.5 0 0 1-3.57-2.066l-.874 1.306c1.197.8 2.448 1.526 3.748 2.168m-7.181-4.806 1.036-1.181a32 32 0 0 1-2.917-2.917l-1.18 1.036a33 33 0 0 0 3.06 3.062m-5.7-6.495 1.306-.874a31.5 31.5 0 0 1-2.066-3.57l-1.408.696a33 33 0 0 0 2.168 3.748m-3.826-7.747 1.487-.505a31 31 0 0 1-1.065-3.983l-1.54.304a33 33 0 0 0 1.117 4.184m-1.679-8.476 1.568-.102a32 32 0 0 1 0-4.13l-1.568-.102a34 34 0 0 0 0 4.334m.56-8.626 1.541.305q.406-2.044 1.065-3.984l-1.488-.505A33 33 0 0 0 13.5 39.79m2.777-8.183 1.408.696a31.5 31.5 0 0 1 2.066-3.57l-1.306-.873a33 33 0 0 0-2.168 3.747m4.806-7.18 1.181 1.036a32 32 0 0 1 2.917-2.918l-1.036-1.18a33 33 0 0 0-3.062 3.061m6.495-5.7.874 1.305a31.5 31.5 0 0 1 3.57-2.065l-.696-1.409a33 33 0 0 0-3.748 2.168m7.747-3.827.505 1.488a31 31 0 0 1 3.983-1.065l-.305-1.541q-2.146.425-4.183 1.118M43.8 13.22a34 34 0 0 1 4.334 0l-.102 1.568a32 32 0 0 0-4.13 0zm8.626.56-.305 1.542q2.044.406 3.984 1.065l.505-1.488a33 33 0 0 0-4.184-1.118m8.183 2.777-.696 1.409a31.5 31.5 0 0 1 3.57 2.065l.873-1.306a33 33 0 0 0-3.747-2.168m7.18 4.807-1.036 1.18a32 32 0 0 1 2.918 2.918l1.18-1.037a33 33 0 0 0-3.061-3.062m5.7 6.494-1.305.875a31.5 31.5 0 0 1 2.065 3.57l1.409-.697a33 33 0 0 0-2.168-3.748m3.827 7.747-1.488.505a31 31 0 0 1 1.065 3.984l1.541-.305a33 33 0 0 0-1.118-4.184m1.678 8.476-1.567.102a32 32 0 0 1 0 4.13l1.567.102a34 34 0 0 0 0-4.334m-.56 8.626-1.54-.304a31 31 0 0 1-1.066 3.983l1.488.505a33 33 0 0 0 1.118-4.184m-2.776 8.183-1.409-.696a31.5 31.5 0 0 1-2.065 3.57l1.306.874a33 33 0 0 0 2.168-3.748M70.85 68.07l-1.18-1.036a32 32 0 0 1-2.918 2.917l1.037 1.18a33 33 0 0 0 3.061-3.061m-6.495 5.7-.874-1.306a31.5 31.5 0 0 1-3.57 2.066l.697 1.408a33 33 0 0 0 3.747-2.168m-7.746 3.826-.505-1.487a31 31 0 0 1-3.984 1.064l.305 1.542a33 33 0 0 0 4.183-1.119" clip-rule="evenodd"/><path fill="#4A4A4A" d="m48.07 3.464-.05 1.016 1.017.05.049-1.017zm-4.206 0-1.016.049.049 1.016 1.016-.049zm-.076-1.57L43.74.879l-1.016.05.049 1.016zm4.357 0 1.017.05.049-1.017-1.017-.049zM39.68 3.872l.148 1.007 1.007-.148-.148-1.007zm-.228-1.554 1.006-.148-.148-1.007-1.006.148zm-4.277.846-.246-.987-.987.246.246.988zm.381 1.524-.987.247.246.987.987-.246zm-4.023 1.22.343.957.958-.342-.343-.958zm-.53-1.48.958-.343-.343-.958-.958.343zm-4.026 1.67-.436-.92-.92.436.436.92zm.672 1.42-.92.435.436.92.92-.436zm-3.706 1.985.524.872.873-.524-.524-.872zm-.808-1.347.872-.524-.524-.873-.872.524zm-3.622 2.424-.607-.817-.817.607.607.817zm.937 1.261-.817.607.607.817.817-.607zm-3.248 2.67.683.753.754-.684-.684-.753zm-1.056-1.165.754-.683-.684-.754-.753.684zm-3.081 3.082-.754-.684-.683.754.753.683zm1.164 1.055-.684.754.754.683.684-.753zm-2.669 3.248.817.607.607-.817-.817-.607zm-1.261-.937.607-.816-.817-.607-.607.817zm-2.425 3.622-.872-.524-.524.872.872.524zm1.347.809-.524.872.873.524.523-.872zM7.235 27.93l.92.435.436-.92-.92-.435zm-1.42-.673.436-.92-.92-.435-.435.92zm-1.67 4.027-.957-.343-.343.958.958.343zm1.48.529-.343.958.958.343.343-.958zm-1.219 4.023.987.247.247-.987-.987-.247zm-1.524-.38.246-.988-.987-.246-.246.987zm-.846 4.276-1.007-.148-.148 1.006 1.007.149zm1.554.229-.148 1.006 1.007.148.148-1.006zm-.407 4.184 1.016.05.05-1.017-1.017-.049zm-1.57-.076.05-1.016-1.017-.049-.049 1.016zm0 4.358-1.016.049.05 1.016 1.015-.049zm1.57-.076.049 1.016 1.016-.049-.05-1.016zm.407 4.185 1.007-.148-.148-1.007-1.007.148zm-1.554.228-.148-1.007-1.007.149.148 1.006zm.846 4.276-.987.247.246.987.987-.246zm1.524-.38.247.987.987-.246-.247-.988zm1.22 4.023.957-.343-.343-.958-.958.343zm-1.48.53-.343-.959-.958.343.343.958zm1.67 4.026-.92.436.436.92.92-.436zm1.42-.672.435.919.92-.436-.436-.92zm1.984 3.705.872-.524-.523-.872-.873.524zm-1.347.81-.524-.873-.872.524.524.872zm2.425 3.62-.817.608.607.816.817-.606zm1.261-.936.607.817.817-.607-.607-.817zm2.669 3.248.754-.683-.684-.754-.754.683zm-1.164 1.056-.684-.754-.753.683.683.754zm3.081 3.08-.683.754.753.684.684-.754zm1.056-1.163.753.684.684-.754-.754-.684zm3.248 2.669.607-.817-.817-.607-.607.817zm-.937 1.261-.817-.607-.607.817.817.607zm3.622 2.424-.524.873.872.524.524-.873zm.808-1.346.873.523.524-.872-.873-.524zm3.706 1.984.436-.92-.92-.435-.435.92zm-.672 1.42-.92-.435-.436.92.92.435zm4.026 1.67-.343.958.959.343.342-.958zm.53-1.48.958.344.343-.958-.958-.343zm4.023 1.22.246-.987-.987-.247-.246.987zm-.38 1.524-.988-.246-.246.987.987.246zm4.276.846-.148 1.007 1.006.148.148-1.007zm.228-1.554 1.007.148.148-1.007-1.007-.148zm4.185.407.05-1.016-1.017-.05-.05 1.017zm-.076 1.57-1.016-.05-.05 1.017 1.017.049zm4.357 0 .05 1.016 1.016-.05-.05-1.016zm-.076-1.57 1.017-.049-.05-1.016-1.016.049zm4.185-.407-.148-1.007-1.007.148.149 1.007zm.229 1.554-1.007.148.148 1.007 1.007-.148zm4.276-.846.247.987.987-.246-.247-.987zm-.38-1.524.987-.247-.247-.987-.987.246zm4.023-1.22-.343-.957-.958.343.343.958zm.53 1.48-.959.343.343.958.958-.343zm4.026-1.67.436.92.92-.436-.437-.92zm-.673-1.42.92-.435-.436-.92-.92.436zm3.706-1.984-.524-.873-.872.524.524.873zm.809 1.346-.872.524.524.873.872-.524zm3.621-2.424.607.817.817-.607-.607-.817zm-.937-1.261.817-.607-.606-.817-.817.607zm3.249-2.669-.684-.754-.753.684.683.754zm1.055 1.164-.753.683.683.754.754-.683zm3.082-3.081.753.683.684-.754-.754-.683zm-1.164-1.056.683-.754-.754-.683-.683.754zm2.668-3.248-.816-.607-.607.817.817.607zm1.262.937-.607.816.817.607.607-.817zm2.424-3.622.872.524.524-.872-.872-.524zm-1.347-.809.524-.872-.872-.524-.524.872zm1.985-3.706-.92-.435-.435.92.92.435zm1.42.673-.436.92.92.435.435-.92zm1.67-4.027.958.343.343-.958-.959-.343zm-1.48-.529.343-.958-.958-.343-.343.958zm1.22-4.023-.988-.247-.246.988.987.246zm1.524.38-.247.988.987.246.247-.987zm.846-4.276 1.007.148.148-1.006-1.007-.148zm-1.555-.228.148-1.007-1.006-.148-.148 1.007zm.408-4.185-1.017-.05-.049 1.017 1.017.05zm1.57.076-.05 1.016 1.016.05.05-1.017zm0-4.358 1.016-.049-.05-1.016-1.016.05zm-1.57.076-.05-1.016-1.016.05.05 1.015zm-.408-4.184-1.006.148.148 1.006 1.007-.148zm1.555-.23.148 1.008 1.007-.148-.148-1.007zm-.846-4.275.987-.247-.247-.987-.987.246zm-1.525.38-.246-.987-.987.247.246.987zm-1.219-4.023-.958.343.343.958.958-.343zm1.48-.53.343.959.958-.343-.343-.958zm-1.67-4.026.92-.436-.436-.92-.92.436zm-1.42.673-.435-.92-.92.436.436.92zm-1.985-3.706-.872.524.524.872.872-.524zm1.347-.81.524.873.872-.524-.524-.872zm-2.424-3.62.817-.607-.607-.817-.817.607zm-1.261.936-.607-.817-.817.607.607.817zm-2.67-3.248-.753.684.683.753.754-.683zm1.165-1.055.683.753.754-.683-.684-.754zm-3.082-3.082.684-.753-.754-.684-.683.754zm-1.055 1.164-.754-.683-.683.753.753.684zm-3.249-2.669-.606.817.817.607.606-.817zm.937-1.26.817.606.607-.817-.817-.607zM68.8 8.154l.524-.873-.872-.524-.524.873zm-.809 1.347-.872-.524-.524.872.872.524zm-3.706-1.985-.435.92.919.435.436-.92zm.673-1.42.92.436.435-.92-.92-.436zm-4.027-1.67.343-.958-.958-.343-.343.958zm-.53 1.48-.957-.343-.343.958.958.342zm-4.023-1.22-.246.988.987.246.247-.987zm.381-1.524.987.247.247-.988-.987-.246zm-4.276-.846.148-1.007-1.007-.148-.148 1.007zm-.229 1.554-1.006-.148L51.1 4.73l1.006.148zm-4.12 75.405.065 1.015 1.016-.065-.066-1.016zm-4.334 0-1.015-.066-.066 1.016 1.015.065zm.101-1.568.066-1.016-1.015-.065-.066 1.015zm4.131 0 1.016-.066-.066-1.015-1.015.066zm-8.525 1.008-.197.998.998.197.198-.998zm.305-1.542.998.198.198-.998-.998-.198zM35.83 76.11l.327-.964-.964-.327-.327.963zm-.505 1.487-.964-.327-.327.964.964.327zm-4-1.658-.45.912.912.451.451-.912zm.697-1.408.912.45.45-.912-.912-.45zm-3.57-2.066.566-.845-.845-.566-.566.845zm-.874 1.306-.845-.566-.566.845.845.566zm-3.433-2.638-.671.764.764.672.672-.765zm1.036-1.181.765.671.671-.765-.765-.671zm-2.917-2.917.765-.672-.671-.764-.765.67zm-1.18 1.036-.672-.765-.765.671.671.765zm-2.64-3.433-.845.566.567.845.845-.566zm1.306-.874.567.845.845-.566-.566-.846zm-2.065-3.57.913-.45-.451-.913-.912.45zm-1.408.696-.45-.912-.913.45.45.913zm-1.658-4-.964.328.327.963.963-.327zm1.487-.504.327.963.964-.326-.327-.964zm-1.065-3.983.999-.198-.198-.998-.998.197zm-1.54.304-.198-.998-.998.198.197.998zm-.561-4.292-1.015.065.065 1.016 1.016-.066zm1.568-.102.066 1.016 1.015-.066-.066-1.015zm0-4.13 1.015.065.066-1.015-1.015-.066zm-1.568-.102.066-1.015L11.989 43l-.065 1.016zm.56-4.292-.998-.198-.197.998.998.198zm1.541.305-.197.998.998.197.198-.998zm1.065-3.984.964.327.327-.963-.964-.327zm-1.488-.505.327-.963-.963-.327-.327.963zm1.659-3.999-.912-.45-.451.912.912.45zm1.408.696-.45.912.912.451.45-.912zm2.066-3.57.845.567.566-.846-.846-.566zm-1.306-.873.566-.846-.846-.566-.566.845zm2.638-3.434-.765-.671-.67.765.764.67zm1.181 1.037-.671.764.765.672.67-.765zm2.917-2.918.671.765.765-.671-.671-.765zm-1.036-1.18.765-.672-.672-.764-.764.67zm3.433-2.639-.566-.845-.845.566.566.845zm.874 1.306-.845.566.566.845.845-.566zm3.57-2.065.45.912.913-.45-.45-.913zm-.696-1.409.912-.45-.45-.913-.913.45zm3.999-1.658-.327-.964-.964.327.327.964zm.505 1.488-.964.327.327.963.964-.327zm3.983-1.065.198.998.998-.198-.198-.998zm-.305-1.541.999-.198-.198-.998-.998.197zm4.293-.56-.066-1.016-1.015.066.066 1.015zm4.334 0 1.015.065.066-1.015-1.016-.066zm-.102 1.567-.065 1.016 1.015.065.066-1.015zm-4.13 0-1.016.066.066 1.015 1.015-.065zm8.524-1.008.198-.998-.999-.197-.197.998zm-.305 1.542-.998-.198-.197.998.998.198zm3.984 1.065-.327.963.963.327.327-.963zm.505-1.488.963.327.327-.964-.963-.327zm3.999 1.658.45-.912-.912-.45-.45.911zm-.696 1.409L59 17.515l-.45.912.912.45zm3.57 2.065-.567.845.846.566.566-.845zm.873-1.306.846.566.566-.845-.846-.566zm3.434 2.638.67-.764-.764-.671-.671.764zm-1.037 1.181-.764-.67-.672.764.765.671zm2.918 2.918-.765.67.67.765.766-.67zm1.18-1.037.671.765.765-.671-.671-.765zm2.639 3.433.845-.566-.566-.845-.846.566zm-1.306.875-.566-.846-.846.566.566.846zm2.065 3.57-.912.45.45.912.913-.45zm1.409-.697.45.913.913-.451-.451-.912zm1.658 4 .963-.328-.326-.963-.964.327zm-1.488.504-.327-.963-.963.327.327.963zm1.065 3.984-.998.197.197.998.999-.197zm1.541-.305.198.998.998-.198-.197-.998zm.56 4.292 1.016-.065L79.944 43l-1.015.066zm-1.567.102-.066-1.016-1.015.066.065 1.015zm0 4.13-1.016-.065-.065 1.015 1.015.066zm1.567.102-.065 1.015 1.015.066.066-1.016zm-.56 4.292.999.198.197-.998-.998-.198zm-1.54-.304.197-.999-.999-.197-.197.998zm-1.066 3.983-.963-.327-.327.964.963.326zm1.488.505-.327.963.963.327.328-.963zm-1.658 3.999.912.45.45-.912-.912-.45zm-1.409-.696.45-.912-.911-.451-.451.912zm-2.065 3.57-.846-.567-.566.846.846.566zm1.306.874-.566.845.845.566.566-.845zM70.85 68.07l.765.671.671-.765-.765-.67zm-1.18-1.036.67-.765-.764-.671-.671.764zm-2.918 2.917-.67-.765-.766.671.672.765zm1.037 1.18-.765.672.671.765.765-.672zm-3.434 2.639.566.845.846-.566-.566-.845zm-.874-1.306.846-.566-.566-.845-.846.566zm-3.57 2.066-.45-.913-.912.45.45.913zm.697 1.408-.913.45.451.913.912-.45zm-4 1.658.328.964.963-.327-.327-.964zm-.504-1.487.963-.328-.327-.963-.963.327zm-3.984 1.064-.197-.998-.998.198.197.998zm.305 1.542-.998.197.197.998.999-.197zm-6.46-76.32c-24.218 0-43.852 19.633-43.852 43.852H4.15c0-23.095 18.723-41.817 41.818-41.817zM2.115 46.248c0 24.219 19.634 43.853 43.853 43.853v-2.036c-23.095 0-41.818-18.722-41.818-41.817zm43.853 43.853c24.219 0 43.852-19.634 43.852-43.853h-2.035c0 23.095-18.722 41.817-41.817 41.817zm43.852-43.853c0-24.219-19.633-43.852-43.852-43.852V4.43c23.095 0 41.817 18.722 41.817 41.817zm-43.852 32.08c-17.718 0-32.08-14.363-32.08-32.08h-2.035c0 18.842 15.273 34.115 34.115 34.115zm-32.08-32.08c0-17.717 14.362-32.08 32.08-32.08v-2.035c-18.842 0-34.115 15.274-34.115 34.115zm32.08-32.08c17.717 0 32.08 14.363 32.08 32.08h2.035c0-18.841-15.274-34.115-34.115-34.115zm32.08 32.08c0 17.718-14.363 32.08-32.08 32.08v2.035c18.841 0 34.115-15.273 34.115-34.115zm-29.928-43.8a45 45 0 0 0-2.152-.052V4.43q1.033 0 2.053.05zm-2.152-.052q-1.084 0-2.152.052l.098 2.032q1.02-.05 2.054-.05zm0-1.571q-1.12 0-2.228.053l.098 2.033a44 44 0 0 1 2.13-.051zm2.227.053a46 46 0 0 0-2.227-.053V2.86q1.071 0 2.13.051zm-8.891.432a45 45 0 0 0-4.375.866l.493 1.974a43 43 0 0 1 4.178-.826zm.228 1.555q-2.148.316-4.222.835l.492 1.975a42 42 0 0 1 4.026-.797zm-8.872.604a45 45 0 0 0-4.119 1.708l.871 1.84a43 43 0 0 1 3.934-1.632zm.53 1.48a44 44 0 0 0-3.976 1.648l.871 1.84a42 42 0 0 1 3.79-1.573zm-8.58 2.333a46 46 0 0 0-3.704 2.48l1.214 1.634a44 44 0 0 1 3.538-2.369zm.81 1.347a44 44 0 0 0-3.577 2.395l1.214 1.633a42 42 0 0 1 3.41-2.283zm-7.957 3.963a46 46 0 0 0-3.152 3.15l1.508 1.368a44 44 0 0 1 3.01-3.01zm1.055 1.163a44 44 0 0 0-3.043 3.043l1.508 1.368a42 42 0 0 1 2.902-2.903zm-7.036 5.432A46 46 0 0 0 7 22.89l1.745 1.048q1.099-1.83 2.369-3.539zm1.261.936A44 44 0 0 0 8.348 23.7l1.744 1.048a42 42 0 0 1 2.284-3.41zm-5.846 6.698a45 45 0 0 0-1.708 4.12l1.916.685a43 43 0 0 1 1.631-3.933zm1.42.673a44 44 0 0 0-1.649 3.976l1.916.686a42 42 0 0 1 1.572-3.79zm-4.421 7.715a45 45 0 0 0-.866 4.375l2.013.296q.314-2.125.827-4.178zm1.524.38a44 44 0 0 0-.836 4.223l2.014.297q.301-2.048.796-4.026zM.597 44.02a46 46 0 0 0-.054 2.228h2.035q0-1.071.052-2.13zm-.054 2.228q0 1.12.054 2.228l2.033-.099a44 44 0 0 1-.052-2.129zm1.571 0q0 1.082.052 2.152l2.033-.098q-.05-1.02-.05-2.054zm.052-2.152a45 45 0 0 0-.052 2.152H4.15q0-1.033.05-2.053zM1.03 52.912q.328 2.225.866 4.375l1.974-.493a43 43 0 0 1-.827-4.178zm1.554-.228q.316 2.147.836 4.222l1.974-.493a42 42 0 0 1-.796-4.025zm.605 8.871a45 45 0 0 0 1.708 4.12l1.84-.871a43 43 0 0 1-1.632-3.934zm1.479-.529a44 44 0 0 0 1.649 3.976l1.839-.871a42 42 0 0 1-1.572-3.79zm2.334 8.58a46 46 0 0 0 2.48 3.704l1.634-1.214a44 44 0 0 1-2.37-3.539zm1.347-.81a44 44 0 0 0 2.394 3.577l1.634-1.214a42 42 0 0 1-2.283-3.41zm3.962 7.957a46 46 0 0 0 3.152 3.151l1.367-1.507a44 44 0 0 1-3.011-3.01zm1.164-1.055a44 44 0 0 0 3.043 3.043l1.367-1.508a42 42 0 0 1-2.902-2.902zm5.431 7.036a46 46 0 0 0 3.704 2.48l1.048-1.745A43 43 0 0 1 20.12 81.1zm.937-1.261a44 44 0 0 0 3.577 2.394l1.047-1.745a42 42 0 0 1-3.41-2.283zm6.698 5.846a45 45 0 0 0 4.12 1.708l.685-1.916a43 43 0 0 1-3.934-1.631zm.673-1.42a44 44 0 0 0 3.976 1.649l.686-1.916a42 42 0 0 1-3.791-1.572zm7.715 4.421q2.15.538 4.375.866l.296-2.014a43 43 0 0 1-4.178-.826zm.38-1.524q2.076.519 4.223.835l.296-2.013a42 42 0 0 1-4.026-.796zm8.431 2.822q1.107.053 2.228.054v-2.035a44 44 0 0 1-2.13-.052zm2.228.054q1.12 0 2.227-.054l-.098-2.033q-1.057.051-2.13.052zm0-1.572q1.082 0 2.152-.051l-.099-2.033q-1.02.05-2.053.05zm-2.152-.051q1.07.051 2.152.051v-2.035q-1.033 0-2.054-.05zm8.816 1.137a45 45 0 0 0 4.375-.866l-.493-1.974a43 43 0 0 1-4.178.826zm-.229-1.555q2.148-.316 4.223-.835l-.493-1.975a42 42 0 0 1-4.026.797zm8.872-.604a45 45 0 0 0 4.12-1.708l-.872-1.84a43 43 0 0 1-3.934 1.632zm-.53-1.48a44 44 0 0 0 3.977-1.648l-.872-1.84a42 42 0 0 1-3.79 1.573zm8.58-2.333a46 46 0 0 0 3.704-2.48L71.815 81.1a43 43 0 0 1-3.539 2.37zm-.809-1.347a44 44 0 0 0 3.576-2.394l-1.213-1.634a42 42 0 0 1-3.41 2.283zm7.957-3.963a46 46 0 0 0 3.151-3.15l-1.507-1.368a44 44 0 0 1-3.011 3.011zm-1.056-1.163a44 44 0 0 0 3.043-3.043l-1.507-1.367a42 42 0 0 1-2.903 2.902zm7.037-5.431a46 46 0 0 0 2.48-3.705l-1.745-1.048a44 44 0 0 1-2.37 3.539zm-1.262-.937a44 44 0 0 0 2.395-3.577l-1.745-1.048a42 42 0 0 1-2.283 3.411zm5.846-6.698a45 45 0 0 0 1.709-4.12l-1.916-.685a43 43 0 0 1-1.632 3.934zm-1.42-.673a44 44 0 0 0 1.65-3.976l-1.917-.686a42 42 0 0 1-1.571 3.79zm4.422-7.715q.538-2.15.865-4.375l-2.013-.296a43 43 0 0 1-.827 4.178zm-1.524-.38a44 44 0 0 0 .835-4.223l-2.013-.296a42 42 0 0 1-.797 4.025zm2.822-8.431q.053-1.108.053-2.228h-2.035q0 1.071-.051 2.13zm.053-2.228q0-1.12-.053-2.228l-2.033.099q.051 1.057.051 2.13zm-1.57 0q0-1.082-.053-2.152l-2.032.099q.049 1.02.05 2.053zm-.053 2.152q.052-1.07.052-2.152h-2.035q0 1.033-.05 2.054zm1.138-8.816a45 45 0 0 0-.866-4.375l-1.975.493a43 43 0 0 1 .827 4.178zm-1.555.228c-.21-1.43-.49-2.84-.835-4.222l-1.975.493q.495 1.978.797 4.026zm-.604-8.871a45 45 0 0 0-1.709-4.12l-1.839.872a43 43 0 0 1 1.632 3.933zm-1.48.53a44 44 0 0 0-1.648-3.977l-1.84.871a42 42 0 0 1 1.572 3.79zm-2.334-8.58a46 46 0 0 0-2.48-3.704L80.82 20.4a44 44 0 0 1 2.369 3.539zm-1.346.809a44 44 0 0 0-2.395-3.576l-1.633 1.213a42 42 0 0 1 2.283 3.41zm-3.963-7.957a46 46 0 0 0-3.151-3.151l-1.367 1.507a44 44 0 0 1 3.01 3.011zm-1.164 1.055a44 44 0 0 0-3.043-3.043l-1.367 1.508a42 42 0 0 1 2.903 2.903zm-5.43-7.036a46 46 0 0 0-3.705-2.48l-1.048 1.745q1.83 1.1 3.539 2.369zm-.938 1.261a44 44 0 0 0-3.576-2.394l-1.048 1.745a42 42 0 0 1 3.41 2.283zm-6.697-5.846a45 45 0 0 0-4.12-1.708l-.686 1.916a43 43 0 0 1 3.934 1.631zm-.673 1.42a44 44 0 0 0-3.976-1.649l-.686 1.916q1.942.697 3.79 1.572zm-7.715-4.421a45 45 0 0 0-4.375-.866l-.296 2.014q2.125.313 4.178.826zM56.625 3.7a44 44 0 0 0-4.223-.835l-.296 2.013q2.048.301 4.026.797zm-8.557 74.56q-1.042.068-2.101.068v2.035q1.125 0 2.232-.072zm-2.101.068q-1.06 0-2.101-.068l-.132 2.031q1.108.072 2.233.072zm0-1.571q-1.009 0-2-.065l-.131 2.031q1.057.069 2.13.069zm2-.065a31 31 0 0 1-2 .065v2.035q1.074 0 2.13-.069zm-7.957-.516a30 30 0 0 1-3.854-1.03l-.654 1.927q2.002.681 4.113 1.1zm-.305 1.541a32 32 0 0 1-4.054-1.083l-.654 1.927q2.101.714 4.313 1.153zm-7.233-4.099a30.5 30.5 0 0 1-3.455-1.998l-1.132 1.69a32.5 32.5 0 0 0 3.685 2.133zm-.696 1.409a32 32 0 0 1-3.633-2.102l-1.132 1.691a34 34 0 0 0 3.863 2.235zm-5.925-5.84a31 31 0 0 1-2.823-2.824l-1.53 1.343a33 33 0 0 0 3.011 3.01zm-1.036 1.18a32 32 0 0 1-2.968-2.967l-1.53 1.342a34 34 0 0 0 3.156 3.155zm-4.22-7.17a30.5 30.5 0 0 1-1.998-3.454l-1.825.902a32.5 32.5 0 0 0 2.132 3.685zm-1.305.874a32 32 0 0 1-2.102-3.632l-1.824.902q.995 2.012 2.234 3.863zm-2.221-8.012a30 30 0 0 1-1.03-3.854l-1.997.395a32 32 0 0 0 1.1 4.113zm-1.488.505a32 32 0 0 1-1.084-4.054l-1.996.395a34 34 0 0 0 1.153 4.313zm-.059-8.316a31 31 0 0 1-.064-2h-2.035q0 1.075.068 2.131zm-.064-2q0-1.008.064-2l-2.03-.131a33 33 0 0 0-.07 2.131zm-1.571 0q0-1.06.067-2.101l-2.03-.131a35 35 0 0 0-.072 2.232zm.067 2.101a33 33 0 0 1-.067-2.1h-2.035q0 1.124.072 2.231zm2.085-8.058q.392-1.977 1.03-3.854l-1.927-.654a32 32 0 0 0-1.1 4.113zm-1.542-.305a32 32 0 0 1 1.084-4.054l-1.927-.654a34 34 0 0 0-1.153 4.313zm4.1-7.233a30.5 30.5 0 0 1 1.998-3.454l-1.691-1.133a32.5 32.5 0 0 0-2.132 3.685zm-1.409-.696a32 32 0 0 1 2.102-3.632l-1.692-1.133a34 34 0 0 0-2.234 3.863zm5.84-5.924a31 31 0 0 1 2.823-2.824l-1.342-1.53a33 33 0 0 0-3.01 3.011zm-1.181-1.037a32 32 0 0 1 2.968-2.968l-1.342-1.53a34 34 0 0 0-3.155 3.156zm7.17-4.22a30.5 30.5 0 0 1 3.454-1.998l-.9-1.825a32.5 32.5 0 0 0-3.686 2.132zm-.874-1.305a32 32 0 0 1 3.633-2.102l-.902-1.824c-1.34.662-2.63 1.41-3.863 2.235zm8.013-2.22q1.877-.639 3.854-1.031l-.395-1.996a32 32 0 0 0-4.113 1.099zm-.505-1.489a32 32 0 0 1 4.054-1.083l-.395-1.997a34 34 0 0 0-4.313 1.153zm8.215-1.626a33 33 0 0 1 2.1-.068v-2.035q-1.125 0-2.232.072zm2.1-.068q1.06 0 2.102.068l.131-2.031a35 35 0 0 0-2.232-.072zm0 1.571q1.01 0 2 .065l.132-2.031a33 33 0 0 0-2.131-.069zm-2 .065q.992-.065 2-.065v-2.035q-1.073 0-2.13.069zm7.958.516q1.977.392 3.854 1.03l.654-1.927a32 32 0 0 0-4.113-1.1zm.305-1.541c1.385.274 2.739.637 4.053 1.083l.655-1.927a34 34 0 0 0-4.313-1.153zm7.233 4.099a30.5 30.5 0 0 1 3.454 1.998l1.132-1.69a32.5 32.5 0 0 0-3.685-2.133zm.696-1.409a32 32 0 0 1 3.632 2.102l1.132-1.691a34 34 0 0 0-3.863-2.235zm5.924 5.84a31 31 0 0 1 2.824 2.824l1.53-1.343a33 33 0 0 0-3.012-3.01zm1.037-1.18a32 32 0 0 1 2.968 2.967l1.529-1.342a34 34 0 0 0-3.155-3.155zm4.22 7.17a30.5 30.5 0 0 1 1.998 3.454l1.824-.902a32.5 32.5 0 0 0-2.131-3.684zm1.305-.874a32 32 0 0 1 2.101 3.632l1.825-.902a34 34 0 0 0-2.235-3.863zm2.22 8.012q.639 1.877 1.03 3.854l1.997-.395a32 32 0 0 0-1.1-4.113zm1.488-.505q.672 1.974 1.084 4.054l1.996-.395a34 34 0 0 0-1.153-4.313zm.06 8.316q.064.992.064 2h2.035q0-1.075-.069-2.131zm.064 2q0 1.009-.065 2l2.031.131q.069-1.057.069-2.13zm1.57 0q0 1.06-.067 2.101l2.03.131q.073-1.107.073-2.232zm-.067-2.101q.068 1.042.068 2.101h2.035q0-1.125-.072-2.232zm-2.084 8.058a30 30 0 0 1-1.03 3.854l1.927.654a32 32 0 0 0 1.1-4.113zm1.541.305a32 32 0 0 1-1.084 4.054l1.927.654q.714-2.102 1.154-4.313zm-4.1 7.233a30.5 30.5 0 0 1-1.998 3.454l1.692 1.133a32.5 32.5 0 0 0 2.131-3.685zm1.41.696a32 32 0 0 1-2.102 3.633l1.691 1.132a34 34 0 0 0 2.235-3.863zm-5.84 5.924a31 31 0 0 1-2.824 2.824l1.343 1.53a33 33 0 0 0 3.01-3.011zm1.18 1.037a32 32 0 0 1-2.968 2.968l1.343 1.53a34 34 0 0 0 3.155-3.156zm-7.17 4.22a30.5 30.5 0 0 1-3.454 1.998l.901 1.825a32.5 32.5 0 0 0 3.685-2.132zm.874 1.305a32 32 0 0 1-3.632 2.102l.901 1.824c1.34-.662 2.63-1.41 3.863-2.235zm-8.012 2.221q-1.877.638-3.854 1.03l.395 1.997a32 32 0 0 0 4.113-1.1zm.505 1.488c-1.315.446-2.669.81-4.054 1.083l.395 1.997a34 34 0 0 0 4.313-1.153zM49.085 3.513l.076-1.57-2.033-.097-.076 1.569zm-6.314-1.57.076 1.57 2.032-.098-.075-1.57zm-2.086 1.78-.229-1.554-2.013.296.228 1.554zm-6.499-.313.38 1.524 1.975-.493-.38-1.524zM32.49 5.564l-.53-1.48-1.916.686.53 1.48zm-6.434.969.673 1.42 1.839-.872-.673-1.42zm-1.241 2.445-.81-1.347-1.744 1.048.81 1.346zm-6.12 2.208.937 1.261 1.634-1.213-.937-1.262zm-.74 2.64-1.056-1.164-1.508 1.367 1.056 1.164zM12.38 17.18l1.163 1.056 1.367-1.508-1.163-1.055zm-.215 2.733-1.261-.936L9.69 20.61l1.261.937zm-4.817 4.374 1.347.809 1.048-1.744-1.347-.81zm.322 2.723-1.42-.673-.871 1.84 1.42.672zm-3.868 5.232 1.48.529.685-1.916-1.48-.53zm.85 2.607-1.525-.38-.493 1.974 1.525.38zm-2.765 5.89 1.554.228.296-2.013-1.554-.229zm1.344 2.39-1.57-.076-.098 2.033 1.57.076zm-1.57 6.314 1.57-.076-.099-2.033-1.569.076zm1.78 2.086-1.554.228.296 2.014 1.554-.229zm-.314 6.499 1.525-.381-.493-1.974-1.525.38zm2.154 1.697-1.479.53.686 1.916 1.479-.53zm.97 6.434 1.419-.673-.871-1.84-1.42.674zM8.695 67.4l-1.347.81 1.048 1.744 1.347-.81zm2.209 6.12 1.26-.937-1.213-1.634-1.261.937zm2.64.74-1.165 1.056 1.368 1.507 1.163-1.055zm3.354 5.574 1.055-1.163-1.507-1.368-1.056 1.164zm2.733.215-.937 1.261 1.634 1.214.937-1.261zm4.374 4.816.809-1.346-1.745-1.048-.809 1.346zm2.723-.321-.673 1.42 1.84.87.672-1.419zm5.231 3.868.53-1.48-1.916-.685-.53 1.48zm2.608-.85-.38 1.525 1.974.492.38-1.524zm5.89 2.765.228-1.554-2.014-.296-.228 1.554zm2.39-1.344-.076 1.57 2.032.098.076-1.57zm6.314 1.57-.076-1.57-2.033.098.076 1.57zm2.086-1.78.228 1.554 2.014-.296-.229-1.554zm6.498.314-.38-1.525-1.975.493.38 1.524zm1.698-2.154.53 1.479 1.915-.686-.53-1.48zm6.433-.97-.672-1.42-1.84.872.673 1.42zm1.242-2.444.809 1.346 1.744-1.047-.809-1.347zm6.12-2.209-.938-1.26-1.633 1.213.937 1.26zm.74-2.64 1.056 1.164 1.507-1.367-1.055-1.164zm5.574-3.354-1.164-1.056-1.367 1.508 1.164 1.055zm.215-2.733 1.261.936 1.214-1.633-1.262-.937zm4.816-4.374-1.347-.809-1.048 1.745 1.347.809zm-.322-2.723 1.42.673.872-1.84-1.42-.672zm3.868-5.232-1.479-.529-.685 1.916 1.479.53zm-.85-2.607 1.525.38.493-1.974-1.524-.38zm2.766-5.89-1.555-.228-.296 2.013 1.555.229zm-1.344-2.39 1.569.076.098-2.033-1.569-.076zm1.569-6.314-1.57.076.099 2.033 1.57-.076zm-1.78-2.086 1.555-.228-.296-2.014-1.555.229zm.314-6.498-1.524.38.493 1.975 1.524-.381zm-2.154-1.698 1.48-.53-.686-1.915-1.48.529zm-.969-6.434-1.42.673.872 1.84 1.42-.674zm-2.445-1.241 1.347-.809-1.048-1.744-1.347.809zm-2.208-6.12-1.261.938 1.213 1.633 1.262-.937zm-2.64-.74 1.164-1.056-1.367-1.507-1.164 1.055zm-3.354-5.574-1.056 1.164 1.508 1.367 1.055-1.164zm-2.734-.215.937-1.261-1.633-1.214-.937 1.261zm-4.373-4.816-.81 1.347 1.745 1.047.81-1.346zm-2.723.321.672-1.42-1.839-.87-.672 1.419zm-5.232-3.868-.53 1.48 1.917.685.53-1.479zm-2.607.85.38-1.524-1.974-.493-.38 1.524zm-5.89-2.765-.228 1.554 2.013.296.229-1.554zM49.15 79.21l-.101-1.568-2.031.132.101 1.567zm-6.263-1.568-.101 1.568 2.03.131.102-1.567zm-2.38 1.271.304-1.541-1.996-.395-.305 1.541zm-5.64-3.13-.506 1.487 1.928.654.505-1.487zm-2.629.607.696-1.409-1.825-.901-.695 1.408zm-4.631-4.49-.874 1.305 1.69 1.132.875-1.306zm-2.697-.096 1.036-1.181-1.53-1.342-1.036 1.18zm-3.317-5.534-1.181 1.036 1.342 1.53 1.181-1.037zm-2.582-.787 1.306-.874-1.133-1.691-1.305.874zm-1.776-6.201-1.409.696.902 1.824 1.408-.696zm-2.29-1.428 1.488-.505-.654-1.927-1.488.505zm-.101-6.45-1.541.305.395 1.997 1.54-.305zm-1.838-1.974 1.567-.101-.13-2.03-1.569.1zm1.567-6.263-1.567-.101-.132 2.03 1.568.102zm-1.27-2.38 1.541.305.395-1.997-1.541-.304zm3.13-5.64-1.487-.505-.655 1.927 1.488.505zm-.607-2.628 1.409.695.901-1.824-1.408-.696zm4.49-4.632-1.305-.874-1.132 1.691 1.305.874zm.096-2.697 1.18 1.036 1.343-1.53-1.18-1.036zm5.534-3.317-1.036-1.18-1.53 1.342 1.036 1.18zm.787-2.582.874 1.306 1.69-1.132-.873-1.306zm6.201-1.776-.696-1.409-1.824.902.695 1.408zm1.427-2.29.505 1.489 1.927-.654-.505-1.488zm6.45-.1-.304-1.542-1.997.395.305 1.541zm8.238-.271.1-1.568-2.03-.131-.101 1.568zm-6.263-1.568.1 1.568 2.032-.131-.102-1.568zm8.643.297-.305 1.541 1.996.395.305-1.541zm5.64 3.13.505-1.487-1.927-.654-.505 1.488zm2.628-.607L59 17.515l1.825.901.696-1.408zm4.632 4.49.874-1.305-1.691-1.132-.874 1.306zm2.697.096-1.036 1.181 1.53 1.343 1.035-1.181zm3.317 5.534 1.18-1.036-1.342-1.53L69 24.697zm2.582.787-1.306.874 1.132 1.691 1.306-.874zm1.776 6.201 1.408-.695-.901-1.825-1.409.696zm2.289 1.428-1.488.505.654 1.927 1.488-.505zm.102 6.45 1.54-.305-.394-1.996-1.541.304zm1.838 1.974-1.568.101.131 2.031 1.568-.101zm-1.568 6.263 1.568.101.131-2.03-1.568-.102zm1.27 2.38-1.54-.305-.395 1.997 1.54.305zm-3.13 5.64 1.488.505.654-1.927-1.488-.505zm.607 2.629-1.408-.696-.902 1.824 1.409.696zm-4.49 4.631 1.306.874 1.132-1.69-1.306-.875zm-.096 2.697-1.18-1.036-1.343 1.53 1.181 1.036zm-5.534 3.317 1.037 1.18 1.53-1.342-1.037-1.18zm-.786 2.582-.874-1.306-1.691 1.132.874 1.306zM59 74.98l.696 1.409 1.825-.902-.696-1.408zm-1.427 2.29-.505-1.489-1.927.655.505 1.487zm-6.45.1.305 1.542 1.996-.395-.305-1.541z" mask="url(#b)"/></svg>