<svg width="80" height="80" viewBox="0 0 80 80" fill="none" xmlns="http://www.w3.org/2000/svg">
<path d="M80 40C80 62.0914 62.0914 80 40 80C17.9086 80 0 62.0914 0 40C0 17.9086 17.9086 0 40 0C62.0914 0 80 17.9086 80 40Z" fill="#BE95FF"/>
<path fill-rule="evenodd" clip-rule="evenodd" d="M51.4649 33.4359C49.0624 33.4359 47.4295 34.7679 46.9628 36.9815H55.967C55.5783 34.6696 53.929 33.4359 51.4649 33.4359ZM51.3005 27.6923C58.4528 27.6923 62.9886 32.8263 62.9886 39.2342L62.9877 41.623L46.962 41.6025C47.1074 43.4124 49.1455 45.2155 52.7628 45.2155C55.5714 45.2155 57.6259 44.4452 58.6164 43.6629L61.4172 49.1056C59.7566 50.0888 56.2372 51.4071 52.1039 51.4071C43.5932 51.4071 39.2408 45.9713 39.2408 39.2342C39.2408 32.8622 43.9681 27.6923 51.3005 27.6923ZM29.3837 34.2221C28.5848 34.1133 26.7921 33.9666 26.7921 38.8535L26.7217 51.4071H18.4615V28.1545L26.0431 28.128V31.0773C27.8483 27.5753 33.1829 26.9995 36.2724 28.3968V38.3017C35.9375 38.3795 35.3239 38.4927 35.0149 38.5361C30.9333 39.1092 29.3285 36.7117 29.3837 34.2221Z" fill="black"/>
</svg>
