<svg width="37" height="37" viewBox="0 0 37 37" fill="none" xmlns="http://www.w3.org/2000/svg">
<g clip-path="url(#clip0_7057_10630)">
<path d="M37 18.5C37 28.7173 28.7173 37 18.5 37C8.28273 37 0 28.7173 0 18.5C0 8.28273 8.28273 0 18.5 0C28.7173 0 37 8.28273 37 18.5Z" fill="#AFFBDF"/>
<path fill-rule="evenodd" clip-rule="evenodd" d="M23.8025 15.464C22.6914 15.464 21.9362 16.0801 21.7203 17.1039H25.8847C25.705 16.0346 24.9422 15.464 23.8025 15.464ZM23.7265 12.8076C27.0344 12.8076 29.1322 15.1821 29.1322 18.1457L29.1318 19.2506L21.7199 19.2411C21.7872 20.0782 22.7298 20.9121 24.4028 20.9121C25.7018 20.9121 26.652 20.5558 27.1101 20.194L28.4055 22.7113C27.6374 23.166 26.0097 23.7757 24.0981 23.7757C20.1619 23.7757 18.1489 21.2617 18.1489 18.1457C18.1489 15.1987 20.3353 12.8076 23.7265 12.8076ZM13.59 15.8276C13.2205 15.7773 12.3914 15.7095 12.3914 17.9697L12.3588 23.7757H8.53845V13.0214L12.0449 13.0091V14.3732C12.8798 12.7535 15.3471 12.4872 16.776 13.1334V17.7145C16.6211 17.7504 16.3373 17.8028 16.1944 17.8229C14.3067 18.0879 13.5644 16.9791 13.59 15.8276Z" fill="black"/>
</g>
<defs>
<clipPath id="clip0_7057_10630">
<rect width="37" height="37" fill="white"/>
</clipPath>
</defs>
</svg>
