<svg xmlns="http://www.w3.org/2000/svg" width="96" height="96" fill="none"><path fill="#fff" d="M48 95.53c26.51 0 48-21.28 48-47.53S74.51.47 48 .47 0 21.75 0 48s21.49 47.53 48 47.53"/><path fill="#000" d="M6.726 65.284a3.5 3.5 0 0 1-.344.649c-.85 1.343-1.125 2.776-1.217 3.761 1.102 2.194 2.41 4.299 3.857 6.314.068-.717.23-1.5.528-2.306.459-1.254.114-2.508-.023-2.91a41.6 41.6 0 0 1-2.801-5.508M3.236 36.515c1.217-.47 1.883-1.545 2.112-1.948a45 45 0 0 1 2.273-5.843c-.23.09-.482.134-.758.18-1.56.268-2.823 1.007-3.604 1.589a46.3 46.3 0 0 0-2.157 7.186 11.7 11.7 0 0 1 2.134-1.164M35.558 3.358c1.056.851 2.388.873 2.755.851a47 47 0 0 1 6.152-.918 4 4 0 0 1-.597-.627c-.895-1.097-1.997-1.79-2.87-2.194-2.501.358-4.98.94-7.368 1.68.62.313 1.285.693 1.928 1.208M26.56 6.94c1.17.582 2.41.359 2.823.269a43 43 0 0 1 5.854-2.194 6 6 0 0 1-.689-.47C33.423 3.649 32.161 3.2 31.22 3a48.7 48.7 0 0 0-6.864 3.18c.734.133 1.47.38 2.204.76M6.589 27.426c1.285-.224 2.157-1.12 2.456-1.456 1.033-1.813 2.18-3.582 3.466-5.239a5 5 0 0 1-.826.023c-1.538-.067-2.893.38-3.765.783a48 48 0 0 0-3.673 6.627 10.6 10.6 0 0 1 2.342-.739M18.525 12.314c1.332.336 2.548-.202 2.87-.358a43 43 0 0 1 5.233-3.359c-.252-.09-.505-.179-.78-.313-1.309-.65-2.64-.828-3.604-.828a46.6 46.6 0 0 0-6.038 4.567c.735 0 1.516.067 2.319.29M11.777 19.231c1.446.067 2.594-.828 2.777-.985a37 37 0 0 1 1.837-1.948 43 43 0 0 1 2.57-2.373 5.3 5.3 0 0 1-.826-.134c-1.446-.38-2.8-.247-3.742-.045l-.39.38a49 49 0 0 0-4.614 5.351 9 9 0 0 1 2.388-.246M1.836 46.12c1.171-.762 1.584-2.083 1.676-2.419.184-2.06.528-4.097 1.01-6.09a3.3 3.3 0 0 1-.688.337c-1.493.582-2.548 1.59-3.191 2.328a50 50 0 0 0-.62 7.455 9 9 0 0 1 1.813-1.612M77.475 83.687c-1.331-.336-2.548.201-2.87.358a44.5 44.5 0 0 1-5.21 3.358c.252.09.505.18.78.313 1.309.65 2.64.829 3.604.829a46.6 46.6 0 0 0 6.037-4.567c-.757 0-1.538-.068-2.341-.291M94.164 49.88c-1.17.762-1.584 2.083-1.676 2.418a42 42 0 0 1-1.01 6.09q.31-.201.689-.336c1.469-.582 2.548-1.59 3.19-2.328q.585-3.66.62-7.455a9 9 0 0 1-1.813 1.611M60.442 92.642c-1.056-.85-2.388-.873-2.755-.85a47 47 0 0 1-6.152.917c.207.18.413.38.597.627.895 1.097 1.997 1.791 2.87 2.194a48 48 0 0 0 7.368-1.679c-.62-.313-1.285-.694-1.928-1.209M41.274 93.873c-.643-1.209-1.836-1.79-2.18-1.925a44.5 44.5 0 0 1-5.923-1.634c.115.246.206.492.275.76.39 1.389 1.125 2.486 1.768 3.225 2.387.649 4.844 1.119 7.346 1.41a8 8 0 0 1-1.286-1.836"/><path fill="#000" d="m89.16 60.963.114-.023c.895-2.843 1.882-5.798 1.882-8.843 0-1.343.092-2.664.092-4.052 0-1.68-.206-3.38-.39-4.948h.092v-.067c-.46-3.045-1.056-6.022-2.02-8.843h-.023l-.023-.023C83.122 17.037 66.96 4.68 48 4.68c-19.282 0-35.673 12.784-41.16 30.358l-.022.023a42.9 42.9 0 0 0-1.974 12.918c0 1.679.092 3.604.275 4.947h.184v.068c.459 3.044.941 6.022 1.905 8.843h-.046v.022c5.762 17.105 21.9 29.463 40.861 29.463 19.26 0 35.65-12.784 41.136-30.358M11.73 48c0-20.171 16.276-36.582 36.27-36.582S84.27 27.828 84.27 48 67.994 84.582 48 84.582 11.73 68.172 11.73 48"/><path fill="#000" d="M31.931 91.478c-.344-1.276-1.354-2.06-1.722-2.306a47 47 0 0 1-5.486-2.866c.046.246.092.515.115.806.092 1.478.62 2.732 1.079 3.56a47 47 0 0 0 6.864 2.91c-.322-.627-.643-1.32-.85-2.104M23.277 87.18c-.092-1.389-.987-2.419-1.24-2.687a43 43 0 0 1-4.728-3.918c0 .268-.023.537-.046.806-.23 1.477.046 2.82.344 3.76a47 47 0 0 0 6.106 4.277 8.3 8.3 0 0 1-.436-2.239M64.07 4.522c.343 1.277 1.354 2.06 1.72 2.306a47 47 0 0 1 5.487 2.866 8 8 0 0 1-.115-.806c-.092-1.477-.62-2.731-1.079-3.56a47 47 0 0 0-6.863-2.91c.321.627.642 1.32.85 2.104M92.763 59.485c-1.193.47-1.882 1.545-2.112 1.948a45 45 0 0 1-2.272 5.843c.23-.067.482-.134.757-.18 1.561-.268 2.824-1.007 3.605-1.611a45.6 45.6 0 0 0 2.157-7.187c-.597.426-1.308.851-2.135 1.187M84.224 76.769c-1.447-.067-2.594.806-2.778.985a37 37 0 0 1-1.836 1.948 43 43 0 0 1-2.571 2.373q.412.033.826.134c1.446.38 2.8.246 3.742.045l.39-.38a49 49 0 0 0 4.614-5.352 9 9 0 0 1-2.387.247M80.299 14.82c-.207 1.456.55 2.71.688 2.933a47 47 0 0 1 3.788 4.77q.069-.37.207-.74c.528-1.433.528-2.843.436-3.828a54 54 0 0 0-3.42-3.828c-.552-.538-1.103-1.075-1.653-1.59a9.6 9.6 0 0 1-.046 2.284M89.412 68.575c-1.263.224-2.158 1.12-2.457 1.455-1.032 1.813-2.18 3.582-3.466 5.239a5 5 0 0 1 .827-.023c1.538.068 2.892-.38 3.764-.783a48 48 0 0 0 3.673-6.627 10.6 10.6 0 0 1-2.341.739M45.062 1.724c.987 1.209 2.525 1.41 2.616 1.433h.299c1.951 0 3.88.134 5.762.38-.161-.224-.322-.447-.46-.716C52.638 1.567 51.697.67 50.94.09A44 44 0 0 0 47.953 0c-1.538 0-3.053.067-4.545.224.596.38 1.148.895 1.653 1.5M50.938 94.276c-.987-1.186-2.502-1.41-2.617-1.432h-.298c-1.951 0-3.88-.135-5.785-.381.161.224.322.448.46.716.642 1.254 1.583 2.15 2.34 2.732.988.067 1.975.09 2.985.09 1.538 0 3.053-.068 4.545-.225-.574-.38-1.125-.895-1.63-1.5M2.456 55.79c.987-1.007 1.125-2.372 1.148-2.73A46 46 0 0 1 3.329 48c0-.358 0-.739.022-1.097q-.275.269-.62.47c-1.33.873-2.18 2.082-2.662 2.955.115 2.508.436 4.993.941 7.41.344-.649.826-1.32 1.446-1.947M15.702 81.179c.23-1.455-.551-2.709-.689-2.933a47 47 0 0 1-3.788-4.768 4.4 4.4 0 0 1-.206.738c-.528 1.433-.551 2.844-.436 3.829 1.079 1.32 2.203 2.62 3.443 3.828.55.537 1.102 1.075 1.653 1.59a8.5 8.5 0 0 1 .023-2.284M72.723 8.82c.092 1.389.987 2.419 1.24 2.687a43 43 0 0 1 4.729 3.918c0-.268.023-.537.046-.806.23-1.477-.046-2.843-.345-3.76a47 47 0 0 0-6.106-4.277c.23.672.39 1.41.436 2.239M54.703 2.127c.643 1.209 1.836 1.768 2.18 1.925a44.5 44.5 0 0 1 5.923 1.635 4.3 4.3 0 0 1-.275-.762c-.39-1.388-1.148-2.485-1.768-3.224a50 50 0 0 0-7.346-1.41c.505.515.942 1.12 1.286 1.836M5.05 65.127c.689-1.097.62-2.373.574-2.821a45 45 0 0 1-1.56-6.045 4 4 0 0 1-.483.582c-1.125 1.142-1.699 2.508-1.997 3.448.643 2.418 1.446 4.769 2.456 7.03.23-.694.551-1.455 1.01-2.194M93.291 48.627c1.332-.873 2.181-2.105 2.663-2.955a47 47 0 0 0-.941-7.41c-.367.648-.85 1.32-1.446 1.947-.987 1.008-1.125 2.373-1.148 2.731.184 1.68.275 3.359.275 5.06 0 .358 0 .739-.023 1.097.184-.157.39-.336.62-.47M89.274 30.717c.092-.224.207-.448.344-.65.85-1.343 1.148-2.776 1.24-3.761a50 50 0 0 0-3.857-6.336c-.068.717-.23 1.5-.528 2.306-.459 1.254-.114 2.508.023 2.91a46 46 0 0 1 2.778 5.53M90.95 30.873c-.689 1.097-.62 2.373-.574 2.821a45 45 0 0 1 1.56 6.045 4 4 0 0 1 .483-.582c1.125-1.142 1.699-2.508 1.997-3.448-.643-2.418-1.446-4.769-2.456-7.03-.23.694-.551 1.455-1.01 2.194M69.44 89.06c-1.17-.582-2.41-.358-2.823-.269a43 43 0 0 1-5.854 2.194q.345.202.689.47c1.125.896 2.387 1.344 3.328 1.545a46.4 46.4 0 0 0 6.864-3.201 7.1 7.1 0 0 1-2.204-.74"/><path fill="red" d="m66.135 62.888-8.448-11.172a13.2 13.2 0 0 0 3.81-2.26c2.044-1.77 4.5-5.105 4.5-10.949 0-4.88-2.158-7.858-3.948-9.492-4.178-3.739-9.688-3.627-11.455-3.627H33.767c-2.685 0-4.843 2.15-4.843 4.769 0 .112.023.246.023.358v4.276h23.667c2.112 0 3.88 1.814 3.88 3.873v.896c0 2.06-1.768 3.738-3.88 3.738h-3.742a4.84 4.84 0 0 0-4.315 2.597 4.58 4.58 0 0 0 .436 4.926l13.36 17.664c.941 1.254 2.41 1.925 3.902 1.925.987 0 1.997-.29 2.87-.917a4.66 4.66 0 0 0 1.01-6.605"/><path fill="#000" d="M28.947 43.299v22.164h.046c.344 2.91 2.8 5.015 5.762 5.015 2.96 0 5.417-2.172 5.761-4.993l.07-22.186z"/></svg>