<svg xmlns="http://www.w3.org/2000/svg" width="1000" height="1000" fill="none"><path fill="#014F59" d="M1000 500c0 276.142-223.858 500-500 500S0 776.142 0 500 223.858 0 500 0s500 223.858 500 500"/><path fill="#00FF9C" d="M295.571 637.216c14.892 71.451 77.287 128.377 157.468 144.737v78.902h93.955v-78.709c92.663-18.508 161.812-91.134 161.812-177.91 0-46.862-8.259-75.488-33.93-104.052-30.095-38.513-76.816-62.283-127.407-71.3v54.953L420.631 395.48l32.882-22.832 93.956-65.232v55.85c.004-.009.941-.482 157.468-.482-14.89-71.451-77.287-128.376-157.468-144.739v-78.899h-93.956v78.709c-92.662 18.506-161.81 91.134-161.81 177.91 0 46.862 8.26 75.488 33.928 104.052 30.098 38.511 76.818 62.282 127.408 71.3v-54.954l126.838 88.357-32.883 22.831-93.955 65.233v-55.849c-.004.008-.94.481-157.468.481"/><circle cx="502.424" cy="501.58" r="430.958" stroke="#00FF9C" stroke-width="62.134"/></svg>