<svg xmlns="http://www.w3.org/2000/svg" xml:space="preserve" viewBox="0 0 496 496"><path d="M366.308 205.658c10.988 9.754 20.132 20.486 25.166 34.127 8.811 23.876 4.925 47.396-15.229 66.66-15.808 15.112-34.83 24.344-55.521 30.482-20.84 6.182-42.251 9.694-63.902 9.184-32.233-.761-63.897-5.607-93.777-18.707-14.18-6.216-26.775-14.737-37.823-25.657-23.732-23.458-25.104-49.985-8.752-78.249 13.703-23.686 34.718-39.154 60.161-48.723 25.912-9.745 52.71-11.68 80.08-9.301 22.14 1.924 43.784 5.807 64.505 14.101 16.18 6.478 31.417 14.57 45.092 26.083"/></svg>