<svg xmlns="http://www.w3.org/2000/svg" width="37" height="37" fill="none"><circle cx="18.5" cy="18.5" r="18" fill="url(#a)" stroke="#312751"/><mask id="c" width="37" height="37" x="0" y="0" maskUnits="userSpaceOnUse" style="mask-type:alpha"><circle cx="18.5" cy="18.5" r="18" fill="url(#b)" stroke="#312751"/></mask><g mask="url(#c)"><mask id="d" width="37" height="39" x="0" y="-1" maskUnits="userSpaceOnUse" style="mask-type:alpha"><path fill="#D9D9D9" d="M37 15.98c0 10.696-5.05 21.886-15.745 21.886S0 30.298 0 19.602 6.151-.866 16.847-.866C27.542-.866 37 5.285 37 15.981"/></mask><g filter="url(#e)" mask="url(#d)"><path fill="url(#f)" d="M18.033-2.317C6.604-1.819-2.257 7.85-1.759 19.28S8.407 39.57 19.836 39.072c11.43-.498 20.29-10.167 19.793-21.596C39.13 6.047 29.462-2.814 18.033-2.317"/><path stroke="#D3ECEC" stroke-width=".31" d="M19.387 24.096a.97.97 0 0 1-.99-.005l-8.395-5.018a.97.97 0 0 1-.332-1.34l8.48-13.926a.972.972 0 0 1 1.666.008l8.347 14.002a.97.97 0 0 1-.343 1.337z"/><path stroke="#D3ECEC" stroke-width=".31" d="M19.4 20.98a.97.97 0 0 1-.99-.004l-5.632-3.367a.97.97 0 0 1-.332-1.34l5.69-9.343a.972.972 0 0 1 1.666.008l5.6 9.394a.97.97 0 0 1-.344 1.337z"/><path stroke="#D3ECEC" stroke-width=".31" d="M19.415 17.26a.97.97 0 0 1-.99-.005l-2.338-1.397a.97.97 0 0 1-.331-1.34l2.361-3.877a.972.972 0 0 1 1.665.008l2.325 3.898a.97.97 0 0 1-.344 1.337zM19.646 33.226a.972.972 0 0 1-1.585-.007l-5.95-8.462c-.604-.858.392-1.932 1.293-1.394l4.83 2.882c.4.24.9.242 1.303.006l4.855-2.838c.906-.53 1.893.553 1.281 1.405z"/><path stroke="#D3ECEC" stroke-width=".31" d="M19.722 30.65a.972.972 0 0 1-1.585-.007l-1.078-1.533c-.582-.828.38-1.864 1.249-1.345.39.233.877.235 1.27.006.874-.511 1.825.534 1.236 1.357z"/></g></g><defs><linearGradient id="a" x1="5.712" x2="31.128" y1="30.919" y2="5.648" gradientUnits="userSpaceOnUse"><stop stop-color="#1C1636"/><stop offset="1" stop-color="#201D58"/></linearGradient><linearGradient id="b" x1="5.712" x2="31.128" y1="30.919" y2="5.648" gradientUnits="userSpaceOnUse"><stop stop-color="#1C1636"/><stop offset="1" stop-color="#201D58"/></linearGradient><linearGradient id="f" x1="18.033" x2="19.836" y1="-2.317" y2="39.072" gradientUnits="userSpaceOnUse"><stop stop-color="#075A5A"/><stop offset="1" stop-color="#093535"/></linearGradient><filter id="e" width="41.428" height="42.589" x="-1.779" y="-2.336" color-interpolation-filters="sRGB" filterUnits="userSpaceOnUse"><feFlood flood-opacity="0" result="BackgroundImageFix"/><feBlend in="SourceGraphic" in2="BackgroundImageFix" result="shape"/><feColorMatrix in="SourceAlpha" result="hardAlpha" values="0 0 0 0 0 0 0 0 0 0 0 0 0 0 0 0 0 0 127 0"/><feOffset dy="1.161"/><feGaussianBlur stdDeviation="3.068"/><feComposite in2="hardAlpha" k2="-1" k3="1" operator="arithmetic"/><feColorMatrix values="0 0 0 0 0.122917 0 0 0 0 0.5 0 0 0 0 0.5 0 0 0 1 0"/><feBlend in2="shape" result="effect1_innerShadow_3647_2169"/></filter></defs></svg>