<svg xmlns="http://www.w3.org/2000/svg" xml:space="preserve" viewBox="0 0 2000 2000"><path d="M1016 1959.5c550.8 0 1000-449.2 1000-1000 0-550.7-449.2-1000-1000-1000-550.7 0-1000 449.3-1000 1000-.1 550.8 449.2 1000 1000 1000" style="fill-rule:evenodd;clip-rule:evenodd" transform="translate(-15.95 40.474)"/><path d="M759.5 441.2h144c5.5 0 9.9 4.5 9.9 10v210.4c0 5.6 4.5 10 10 10h184.9c5.5 0 10-4.4 10-10V451.2c0-5.5 4.4-10 10-10h143.9c5.5 0 10 4.5 10 10v210.4c0 5.6 4.4 10 10 10h176c5.6 0 10 4.5 10 10v143.6c0 5.6-4.4 10-10 10h-176c-5.6 0-10 4.5-10 10v223.5c0 5.5 4.4 10 10 10h176c5.6 0 10 4.4 10 10v143.6c0 5.5-4.4 10-10 10h-176c-5.6 0-10 4.5-10 10v210.4c0 5.5-4.5 10-10 10h-143.9c-5.6 0-10-4.5-10-10v-210.4c0-5.6-4.5-10-10-10H923.5c-5.5 0-10 4.5-10 10v210.4c0 5.5-4.4 10-9.9 10h-144c-5.5 0-10-4.5-10-10v-210.4c0-5.6-4.4-10-10-10h-176c-5.6 0-10-4.5-10-10v-143.6c0-5.6 4.4-10 10-10h176c5.6 0 10-4.5 10-10V845.2c0-5.5-4.4-10-10-10h-176c-5.6 0-10-4.4-10-10V681.6c0-5.5 4.4-10 10-10h176c5.6 0 10-4.4 10-10V451.2c-.2-5.5 4.4-10 9.9-10m358.9 627.6V845.2c0-5.5-4.5-10-10-10H923.5c-5.5 0-10 4.5-10 10v223.5c0 5.5 4.5 10 10 10h184.9c5.5.1 10-4.5 10-9.9" style="fill-rule:evenodd;clip-rule:evenodd;fill:#fff" transform="translate(-15.95 40.474)"/></svg>