<svg width="65" height="64" viewBox="0 0 65 64" fill="none" xmlns="http://www.w3.org/2000/svg">
<g clip-path="url(#clip0_52_4738)">
<circle cx="32.582" cy="32" r="32" fill="#865FEE"/>
<path d="M57.582 27.27C57.582 25.03 55.882 23.27 53.702 23.27H47.002C46.622 22.17 45.742 21.29 44.642 20.91V19.39C44.642 17.25 42.902 15.53 40.782 15.53H39.922C38.422 15.53 37.102 16.39 36.462 17.67C35.822 16.41 34.522 15.53 33.002 15.53H32.162C30.122 15.53 28.462 17.11 28.302 19.09H16.962C14.822 19.09 13.082 20.83 13.082 22.97V23.41C11.762 23.75 10.722 24.75 10.322 26.05C8.72201 26.53 7.56201 28.01 7.56201 29.75V31.25C7.56201 32.93 8.64201 34.37 10.142 34.91V44.67C10.142 46.81 11.882 48.55 14.022 48.55H17.442C18.922 48.55 20.202 47.73 20.862 46.51C21.162 46.59 21.462 46.61 21.782 46.61H25.202C25.502 46.61 25.782 46.57 26.042 46.51C26.702 47.69 27.962 48.49 29.422 48.49H32.862C33.682 48.49 34.422 48.23 35.042 47.81C35.682 48.27 36.442 48.53 37.282 48.53H40.702C42.842 48.53 44.582 46.79 44.582 44.65V42.35C44.582 42.35 44.582 42.25 44.582 42.19H53.702C55.842 42.19 57.582 40.45 57.582 38.33V31.87C57.582 31.25 57.402 30.65 57.102 30.15C57.402 29.65 57.582 29.05 57.582 28.43V27.27Z" fill="#111629"/>
<path d="M40.7419 41.47H37.3019C36.8219 41.47 36.4219 41.85 36.4219 42.35V44.65C36.4219 45.13 36.8019 45.53 37.3019 45.53H40.7419C41.2219 45.53 41.6219 45.15 41.6219 44.65V42.35C41.6219 41.87 41.2419 41.47 40.7419 41.47Z" fill="white"/>
<path d="M54.142 28.85C54.382 28.85 54.582 28.67 54.582 28.43V27.27C54.582 26.65 54.202 26.27 53.702 26.27H45.122C44.622 26.27 44.222 25.87 44.222 25.37V24.55C44.222 24.07 43.822 23.69 43.342 23.69H42.502C42.022 23.69 41.622 23.31 41.622 22.81V19.35C41.622 18.87 41.242 18.49 40.762 18.49H39.902C39.422 18.49 39.022 18.87 39.022 19.37V20.21C39.022 20.69 38.642 21.09 38.142 21.09H34.702C34.222 21.09 33.822 20.71 33.822 20.21V19.37C33.822 18.89 33.442 18.49 32.942 18.49H32.102C31.622 18.49 31.222 18.87 31.222 19.37V21.19C31.222 21.67 30.842 22.07 30.342 22.07H16.962C16.482 22.07 16.082 22.45 16.082 22.95V25.41C16.082 25.89 15.702 26.29 15.202 26.29H14.022C13.542 26.29 13.142 26.67 13.142 27.17V28.01C13.142 28.49 12.762 28.89 12.262 28.89H11.422C10.942 28.89 10.542 29.27 10.542 29.77V31.27C10.542 31.75 10.922 32.15 11.422 32.15H12.262C12.742 32.15 13.142 32.53 13.142 33.03V44.71C13.142 45.19 13.522 45.59 14.022 45.59H17.442C17.922 45.59 18.322 45.19 18.322 44.71V40.09C18.322 39.59 18.742 39.17 19.242 39.17H19.982C20.482 39.17 20.902 39.57 20.902 40.09V42.77C20.902 43.25 21.282 43.65 21.782 43.65H25.202C25.682 43.65 26.082 43.27 26.082 42.77V40.09C26.082 39.59 26.502 39.17 27.002 39.17H27.702C28.182 39.17 28.562 39.57 28.562 40.05V44.67C28.562 45.15 28.942 45.55 29.442 45.55H32.882C33.362 45.55 33.762 45.17 33.762 44.67V39.73C33.762 39.35 33.462 39.05 33.082 39.05H32.162C31.682 39.05 31.282 38.67 31.282 38.19V27.13C31.282 26.65 31.662 26.25 32.142 26.25H32.982C33.462 26.25 33.862 26.63 33.862 27.13V35.73C33.862 36.21 34.242 36.61 34.742 36.61H35.562C36.042 36.61 36.442 36.99 36.442 37.49V38.33C36.442 38.81 36.822 39.21 37.302 39.21H53.702C54.182 39.21 54.582 38.83 54.582 38.35V31.89C54.582 31.65 54.382 31.47 54.142 31.47C53.662 31.47 53.282 31.07 53.282 30.59V29.75C53.282 29.27 53.662 28.89 54.142 28.87V28.85ZM47.842 29.73C47.842 29.25 48.242 28.85 48.722 28.85H49.562C50.042 28.85 50.442 29.25 50.442 29.73V30.57C50.442 31.05 50.042 31.45 49.562 31.45H48.722C48.242 31.45 47.842 31.05 47.842 30.57V29.73ZM39.042 27.13C39.042 26.65 39.442 26.25 39.922 26.25H40.762C41.242 26.25 41.642 26.65 41.642 27.13V27.97C41.642 28.45 41.262 28.85 40.762 28.85H39.922C39.442 28.85 39.042 28.45 39.042 27.97V27.13Z" fill="white"/>
</g>
<defs>
<clipPath id="clip0_52_4738">
<rect x="0.582031" width="64" height="64" rx="32" fill="white"/>
</clipPath>
</defs>
</svg>
