<?xml version="1.0" encoding="utf-8"?>
<!-- Generator: Adobe Illustrator 19.0.0, SVG Export Plug-In . SVG Version: 6.00 Build 0)  -->
<svg version="1.1" id="Layer_1" xmlns="http://www.w3.org/2000/svg" xmlns:xlink="http://www.w3.org/1999/xlink" x="0px" y="0px"
	 viewBox="0 0 960 960" enable-background="new 0 0 960 960" xml:space="preserve">
<g id="XMLID_280_">
	<circle id="XMLID_115_" fill="#0D285A" cx="480" cy="480" r="480"/>
	<g id="XMLID_118_">
		<g id="XMLID_123_">
			<g id="XMLID_124_">
				<g id="XMLID_130_">
					<polygon id="XMLID_131_" fill="#FFFFFF" points="581,540.7 478,601.3 375,540.7 375,419.3 478,358.7 581,419.3 					"/>
				</g>
				<path id="XMLID_125_" fill="#FFFFFF" d="M479.5,88.5L142,284.4v391.2l337.5,195.9L817,675.6V284.4L479.5,88.5z M314,574.8V384.1
					l163.5-95.2L641,384.1v190.7L477.5,670L314,574.8z M314,684.7v-66.2l222.4,128.8L479,780.1L314,684.7z M738,630.2l-163.3,95.5
					l-61.3-34.2L674,596V362.9L476,246.1L278,362.9v8.4V596v67.2l-57-33V329.8l258.5-149.9L738,329.8V630.2z"/>
			</g>
		</g>
	</g>
</g>
</svg>
