<svg xmlns="http://www.w3.org/2000/svg" viewBox="0 0 1000 1000"><defs><linearGradient id="b" x1="-14.94" x2="1159.05" y1="914.64" y2="-86.81" gradientUnits="userSpaceOnUse"><stop offset="0" stop-color="#12ff80"/><stop offset=".13" stop-color="#15fd85"/><stop offset=".29" stop-color="#1ff896"/><stop offset=".49" stop-color="#30f1b2"/><stop offset=".69" stop-color="#48e7d9"/><stop offset=".87" stop-color="#5fddff"/></linearGradient><clipPath id="a"><circle cx="500" cy="500" r="500" fill="none"/></clipPath></defs><g clip-path="url(#a)"><path fill="url(#b)" d="M-48-81.5h1050v1153H-48z"/></g><path d="M780.07 499.81h-68.31c-20.4 0-36.93 16.54-36.93 36.93v99.14c0 20.4-16.54 36.93-36.93 36.93H366.13c-20.4 0-36.93 16.54-36.93 36.93v68.31c0 20.4 16.54 36.93 36.93 36.93h287.5c20.4 0 36.71-16.54 36.71-36.93v-54.8c0-20.4 16.54-34.88 36.93-34.88h52.8c20.4 0 36.93-16.54 36.93-36.93V536.3c0-20.4-16.54-36.5-36.93-36.5Zm-450.89-135.7c0-20.4 16.54-36.93 36.93-36.93h271.6c20.4 0 36.93-16.54 36.93-36.93v-68.31c0-20.4-16.54-36.93-36.93-36.93H350.37c-20.4 0-36.93 16.54-36.93 36.93v52.63c0 20.4-16.54 36.93-36.93 36.93h-52.57c-20.4 0-36.93 16.54-36.93 36.93v115.26c0 20.4 16.6 36.1 37 36.1h68.31c20.4 0 36.93-16.54 36.93-36.93l-.06-98.74Zm140.67 63.9h65.62c21.38 0 38.74 17.36 38.74 38.74v65.62c0 21.38-17.36 38.74-38.74 38.74h-65.62c-21.38 0-38.74-17.36-38.74-38.74v-65.62c0-21.38 17.36-38.74 38.74-38.74Z" class="cls-4"/></svg>