<svg width="487" height="420" viewBox="0 0 487 420" fill="none" xmlns="http://www.w3.org/2000/svg">
<g clip-path="url(#clip0)">
<path d="M88.4677 228.869C89.3164 228.586 90.1652 228.397 91.0139 228.02C96.7665 225.474 102.896 223.776 109.12 222.645C117.042 221.23 124.964 221.419 132.697 224.531C141.184 227.926 148.446 233.207 155.047 239.336C157.97 242.071 157.97 242.166 161.648 240.28C164.383 238.865 167.212 238.016 170.419 237.639C169.947 234.621 169.098 231.981 169.57 229.057C170.324 224.059 173.342 220.758 177.775 218.778C179.095 218.212 179.661 217.835 179.378 216.326C179.189 215.383 179.472 214.44 179.566 213.497C179.755 210.668 180.038 207.839 179.944 205.009C179.661 200.011 179.566 194.919 180.321 189.921C181.169 184.168 180.887 178.415 180.226 172.663C179.755 168.796 179.566 164.93 180.415 161.063C181.17 157.574 180.887 154.179 180.698 150.69C180.321 144.654 180.604 138.713 181.641 132.772C182.113 129.848 182.395 126.925 181.924 124.001C180.887 117.872 181.452 111.836 182.395 105.801C183.339 100.237 183.339 94.6726 183.15 89.1086C182.867 80.9041 182.773 72.6995 185.036 64.6836C185.225 63.9292 185.319 63.3634 184.847 62.6089C181.83 57.988 179.661 53.0841 177.775 47.8973C174.851 39.6928 171.833 31.4883 170.702 22.8122C170.419 20.7375 170.23 18.6628 170.324 16.4937C170.607 11.307 174.097 8.76073 178.906 10.3639C183.81 11.9671 188.242 14.6077 192.109 18.0969C197.956 23.2837 202.954 29.1306 207.764 35.1662C208.801 36.4864 209.65 36.3921 210.876 36.1092C220.023 34.0345 229.265 34.506 238.507 35.4491C242.279 37.2409 244.448 35.8263 246.994 32.6199C252.653 25.547 259.631 19.6058 266.987 14.1361C270.099 11.8728 273.494 9.98672 277.455 9.23228C282.17 8.38353 284.339 9.79811 284.622 14.5134C284.905 19.1343 283.962 23.6609 282.359 28.0933C279.247 36.675 274.909 44.6909 270.854 52.8955C269.816 55.0645 268.59 57.1392 267.364 59.2139C266.798 60.2513 266.516 61.1 267.081 62.1374C268.496 64.6836 268.685 67.6071 268.779 70.4362C268.967 77.0376 269.439 83.6389 268.59 90.3346C267.93 95.6157 268.779 100.802 269.156 106.084C269.533 111.27 270.099 116.457 269.156 121.455C268.496 125.039 268.496 128.528 268.402 132.112C268.307 134.752 268.59 137.393 269.156 139.939C269.91 143.334 270.005 146.823 269.25 150.218C268.307 155.028 268.307 159.837 268.59 164.647C268.873 170.494 269.345 176.341 268.967 182.282C268.59 187.846 269.722 193.316 270.193 198.785C270.948 199.068 271.419 198.691 271.797 198.502C277.455 195.485 282.83 192.09 288.017 188.317C293.392 184.545 299.051 181.15 304.709 177.661C306.312 176.718 307.821 175.492 309.33 174.455C314.517 170.871 320.269 168.325 326.211 166.25C333.283 163.798 340.356 161.063 347.618 159.083C353.748 157.385 359.783 155.216 365.913 153.425C366.196 153.33 366.479 153.142 366.762 153.142C371.571 153.047 374.495 149.935 377.418 146.729C379.21 144.749 381.285 143.24 383.925 142.485C386.283 141.825 388.546 141.542 390.715 142.674C393.167 143.9 395.43 143.334 397.505 142.014C401.089 139.75 404.955 138.147 408.633 136.261C410.048 135.507 411.368 134.658 412.688 133.903C415.895 132.017 417.781 132.489 420.421 135.224C424.099 139.09 427.588 143.145 432.681 145.409C439.094 148.238 445.506 150.973 452.391 152.764C458.898 154.462 465.405 156.254 471.44 159.272C475.495 161.252 479.079 163.987 482.663 166.816C483.417 167.382 483.794 168.325 484.077 169.174C484.549 170.494 484.171 171.343 482.757 171.814C476.344 173.889 470.592 177.284 464.556 180.302C452.957 186.054 441.263 191.712 429.003 196.239C425.702 197.465 422.402 198.974 418.912 199.634C417.592 199.917 417.026 200.294 417.026 201.897C417.026 211.611 417.498 221.23 418.535 230.849C419.667 242.071 420.138 253.294 420.044 264.516C420.044 265.553 419.855 266.308 419.101 267.062C418.252 267.911 417.592 269.043 416.838 270.08C415.706 271.589 414.292 273.003 412.311 273.192C409.105 273.569 406.747 275.55 404.201 276.964C398.448 280.265 392.601 283.188 386.472 285.64C383.925 286.678 381.568 288.092 379.116 289.13C372.231 292.147 365.347 295.259 358.463 298.371C356.2 299.409 353.936 300.54 351.673 301.766C343.091 306.387 333.944 309.877 324.985 313.649C322.25 314.781 320.081 316.855 317.063 317.421C316.12 317.61 315.743 318.647 315.46 319.59C313.951 324.211 312.819 328.832 312.253 333.736C311.593 339.771 310.273 345.807 309.519 351.842C308.293 362.499 306.784 373.061 305.841 383.717C304.898 394.185 304.143 404.653 303.106 415.121C302.634 419.648 302.634 424.174 302.351 428.701C301.88 436.151 300.748 443.507 300.465 451.051C300.088 459.916 298.674 468.592 297.165 477.268C295.561 486.416 293.77 495.657 293.204 504.994C292.827 511.312 291.884 517.725 291.223 524.138C290.941 526.59 290.658 528.853 292.072 531.116C293.015 532.531 292.355 533.945 291.506 535.454C289.809 538.472 286.98 539.226 284.151 540.169C278.209 542.244 272.174 542.244 266.044 541.678C262.649 541.395 260.008 539.415 257.274 537.623C256.331 536.963 255.576 535.831 255.576 534.7C255.388 530.173 253.596 525.929 252.936 521.403C251.615 512.35 249.824 503.391 249.258 494.243C248.786 487.076 247.56 480.097 246.334 473.024C244.542 462.651 241.996 452.466 239.639 442.281C239.356 440.961 238.79 440.583 237.564 440.583C233.603 440.772 229.548 440.772 225.587 441.055C222.569 441.244 221.343 442.281 220.778 445.299C220.589 446.336 220.212 447.279 219.835 448.316C216.534 456.144 215.214 464.443 214.271 472.741C213.799 477.362 212.856 481.889 212.007 486.416C210.498 493.96 209.933 501.599 208.801 509.143C207.858 515.273 207.292 521.403 205.877 527.533C205.123 530.456 202.954 532.248 201.351 534.511C201.162 534.794 200.691 535.077 200.219 535.077C195.881 535.549 192.109 537.906 187.771 538.189C184.376 538.378 181.075 538.283 177.68 537.812C175.417 537.435 173.531 536.303 171.739 534.983C170.89 534.417 170.324 533.474 170.23 532.342C170.042 531.022 169.759 529.607 169.759 528.287C170.042 521.026 169.098 513.858 168.344 506.597C167.59 498.864 166.929 491.131 166.647 483.304C166.364 473.213 165.421 463.122 164.949 453.032C164.478 441.715 163.912 430.304 163.157 418.988C162.497 408.237 161.554 397.392 160.328 386.641C159.008 374.381 157.876 362.122 158.253 349.862C158.442 343.638 158.914 337.508 158.253 331.284C158.159 330.152 157.876 329.021 157.782 327.889C157.593 325.248 156.084 324.022 153.632 323.551C147.314 322.419 141.278 320.156 135.149 318.364C126.756 315.818 118.362 313.177 109.969 310.442C105.725 309.028 101.482 307.33 97.3323 305.633C88.1848 301.955 79.0372 298.466 69.9839 294.411C62.8167 291.204 55.6495 287.904 49.2368 283.377C48.4823 282.811 47.6336 282.34 46.7849 282.057C42.5411 280.548 40.7493 277.247 39.9949 273.098C38.2974 264.233 39.1462 255.368 39.8063 246.409C40.655 236.79 42.2582 227.265 43.0127 217.552C43.5785 210.668 44.8988 204.066 46.0304 197.276C47.5393 188.317 49.2368 179.264 50.84 170.305C51.4058 166.91 52.6318 163.61 53.5748 160.309C54.1407 158.517 55.4609 157.008 56.6869 155.688C60.4591 151.916 64.7028 148.615 68.7579 145.22C73.6618 141.071 81.772 141.637 86.2044 146.54C87.9962 148.521 89.9766 150.124 91.674 152.104C95.9178 157.197 97.9925 162.949 97.0494 169.551C96.9551 170.4 96.6722 171.154 96.1064 171.814C94.2203 174.172 92.5228 176.718 91.4854 179.547C90.9196 180.962 89.7879 181.716 88.3734 181.999C86.2987 182.565 85.7328 183.885 85.6385 185.866C85.2613 192.184 85.167 198.502 85.7328 204.727C86.2987 211.988 86.9588 219.155 87.6189 226.417C87.8075 227.454 87.7132 228.209 88.4677 228.869Z" fill="#010101"/>
<path d="M87.8076 177.001C87.5246 175.021 87.7133 173.512 87.1474 172.097C86.8645 171.437 86.4873 170.965 85.8272 170.965C84.9784 170.965 84.6012 171.626 84.6012 172.474C84.6012 173.512 84.6955 174.549 84.6012 175.586C84.5069 178.038 83.3752 179.453 81.0176 180.113C79.886 180.396 78.7543 180.585 77.6226 180.679C76.5853 180.773 75.5479 180.49 74.322 180.962C76.7739 183.131 79.603 182.093 82.3379 182.659C81.2062 189.261 80.9233 195.862 81.3948 202.463C81.9607 210.008 82.3379 217.552 83.4696 225.097C83.8468 227.36 84.0354 229.623 83.4696 231.981C82.8094 234.527 84.3183 235.753 86.6759 234.716C89.3165 233.49 92.0513 232.924 94.7862 232.075C100.822 230.189 106.669 228.02 112.987 227.171C120.437 226.228 127.416 227.266 134.206 230.378C141.656 233.773 147.88 238.865 154.293 244.052C153.444 245.466 151.935 246.127 150.992 247.352C150.332 248.296 149.483 249.239 150.237 250.465C151.181 251.785 152.407 251.502 153.632 250.842C156.084 249.427 158.536 247.918 160.894 246.504C163.534 244.995 166.269 243.769 169.098 243.109C169.853 243.863 169.664 244.618 169.664 245.372C169.853 249.05 171.928 251.596 174.38 253.954C179.849 259.329 186.734 261.781 194.184 262.63C203.614 263.762 213.045 263.856 222.475 262.441C224.738 262.064 226.813 261.781 229.265 262.63C231.623 263.573 234.358 263.667 236.904 262.347C238.224 261.687 239.922 261.687 241.525 261.498C249.069 260.367 256.614 258.858 264.158 257.443C268.307 256.594 272.268 255.557 276.229 254.142C279.247 253.011 281.604 251.03 284.056 249.05C286.32 247.258 288.017 244.995 288.96 242.26C289.337 241.317 289.809 241.223 290.658 241.317C292.544 241.411 294.43 241.883 296.222 242.543C300.937 244.24 305.464 246.504 309.613 249.427C310.556 250.087 311.499 250.653 312.725 250.747C313.574 250.747 314.517 250.842 314.894 249.899C315.177 249.05 315.177 248.201 314.517 247.541C313.291 246.315 312.348 244.712 310.179 243.769C314.14 240.751 317.629 237.828 321.307 235.187C323.664 233.49 326.211 231.981 328.851 230.661C337.433 226.323 346.298 225.097 355.728 227.266C362.801 228.869 369.497 231.698 376.57 233.395C377.23 233.584 377.89 234.056 378.55 234.433C380.153 235.093 381.285 234.527 381.473 232.83C381.473 232.641 381.568 232.358 381.473 232.169C380.247 226.983 382.134 221.984 382.228 216.798C382.416 206.236 384.303 195.579 382.511 185.017C382.416 184.545 382.322 183.98 382.794 183.319C384.963 183.98 387.415 184.168 389.772 183.98C390.527 183.885 391.375 183.791 391.564 183.036C391.753 182.188 390.81 181.811 390.149 181.528C387.886 180.679 385.623 179.924 383.359 179.17C381.756 178.604 380.436 178.038 380.719 175.869C380.813 175.303 380.719 174.455 379.87 174.549C379.304 174.549 379.116 175.209 378.927 175.681C378.833 176.152 378.739 176.718 378.644 177.284C378.173 177.095 377.513 177.095 377.418 176.812C375.344 173.512 372.137 170.871 372.232 166.439C372.232 160.875 374.495 156.442 378.173 152.387C380.625 149.653 383.548 148.238 386.849 147.012C387.98 146.635 388.735 146.729 389.772 147.295C393.544 149.558 397.222 152.01 400.806 154.462C402.881 155.877 404.672 157.668 406.936 158.8C407.784 159.177 407.973 159.932 408.162 160.78C411.274 177.85 412.688 195.108 413.726 212.46C414.386 223.682 414.857 234.904 415.423 246.127C415.706 250.842 416.272 255.557 416.555 260.272C416.932 264.799 414.197 267.534 410.897 269.326C403.918 273.192 396.751 276.493 389.301 279.416C386.754 280.359 384.397 281.68 381.945 283C375.438 286.395 368.554 289.035 361.858 291.959C359.123 293.09 356.483 294.316 353.842 295.637C347.146 298.937 340.356 301.766 333.566 304.879C328.097 307.33 322.533 309.311 317.535 312.706C312.819 315.912 310.085 320.156 309.33 325.814C308.859 329.021 308.01 332.227 307.538 335.433C305.652 348.447 303.577 361.367 303.012 374.57C302.729 381.831 301.408 388.999 300.937 396.26C300.182 408.048 298.674 419.648 297.731 431.436C296.882 441.526 296.787 451.617 295.467 461.613C294.807 466.8 293.958 471.987 292.732 477.079C290.941 484.907 289.998 492.828 289.149 500.75C288.866 503.673 288.394 506.597 288.017 509.52C287.64 511.784 287.263 514.047 287.357 516.405C287.546 519.517 286.98 522.44 286.508 525.458C286.131 527.816 286.225 529.985 287.263 532.248C288.111 534.134 287.64 534.983 285.565 535.36C278.021 536.869 270.476 538.283 262.838 536.209C261.046 535.737 259.82 534.888 259.537 533.002C258.5 525.175 256.048 517.631 255.482 509.709C255.105 503.485 253.501 497.261 252.936 490.942C252.181 483.115 250.484 475.382 249.258 467.649C249.163 467.272 249.163 466.8 249.069 466.423C247.277 458.879 245.391 451.334 243.505 443.79C243.034 441.904 242.185 440.3 244.92 439.263C246.146 438.792 245.863 437.188 244.542 436.623C243.694 436.245 242.751 436.151 241.713 436.245C234.923 436.528 228.039 436.623 221.249 437.754C219.74 438.037 218.797 438.697 218.231 440.112C215.308 446.619 213.139 453.409 211.63 460.387C210.97 463.217 210.876 466.234 210.593 469.158C209.272 480.663 206.632 491.98 205.595 503.485C204.84 511.595 203.143 519.422 201.917 527.438C201.634 529.324 200.691 530.739 198.71 531.399C191.449 533.757 184.187 534.511 176.643 532.719C173.531 531.965 173.342 531.965 173.531 528.759C174.191 516.216 172.211 503.768 171.456 491.32C170.89 482.549 170.23 473.684 169.853 464.914C169.193 447.939 168.533 430.87 166.929 413.895C166.552 410.123 166.458 406.351 166.364 402.579C166.081 394.657 164.855 386.924 164.1 379.002C163.44 372.024 163.063 364.951 162.874 357.878C162.686 351.748 162.874 345.713 162.874 339.583C162.874 335.056 162.591 330.624 161.931 326.097C161.46 322.891 158.631 321.099 155.896 320.627C154.198 320.345 152.595 319.967 150.992 319.402C140.241 315.724 129.585 311.857 118.834 308.556C108.838 305.444 99.0299 301.672 89.3164 297.9C80.9233 294.599 72.6245 291.016 64.5142 287.055C59.1389 284.414 54.1407 281.114 48.4824 279.133C47.6336 278.85 47.1621 278.19 46.6906 277.436C44.2387 273.475 43.8614 269.137 43.6728 264.705C43.2956 255.463 44.0501 246.221 45.1817 236.979C46.502 226.228 47.9165 215.477 49.614 204.821C50.5571 199.163 51.9717 193.504 52.6318 187.752C53.3862 180.396 55.5553 173.323 56.3097 166.062C56.6869 162.478 58.1958 159.743 61.5908 157.668C66.306 154.934 70.5498 151.539 74.9821 148.332C76.0195 147.578 76.8682 147.578 78.1885 147.861C86.8645 149.747 93.4659 160.403 92.9001 167.665C92.8058 169.174 92.4285 170.4 91.5798 171.72C90.3538 173.229 89.1278 174.832 87.8076 177.001Z" fill="white"/>
<path d="M187.205 91.4661C188.148 91.5604 188.62 92.2206 189.186 92.7864C193.241 97.313 201.728 96.1814 205.123 89.7686C205.312 89.3914 205.595 89.0142 205.689 88.637C206.161 87.411 206.632 86.3736 208.33 86.7509C209.084 86.9395 209.933 86.5623 210.027 85.7135C210.122 84.8648 209.461 84.3933 208.707 84.2046C206.727 83.7331 204.84 83.1673 202.86 82.9787C197.862 82.4128 193.147 80.4324 188.148 79.7723C187.205 79.678 187.017 79.1122 187.111 78.2634C187.394 70.4361 188.997 62.8917 193.147 56.0075C195.033 52.8954 197.39 49.9719 199.654 47.1428C202.011 44.3136 201.917 43.7478 199.654 41.0129C196.542 37.335 193.524 33.5629 190.412 29.9793C188.337 27.6216 186.168 25.3583 183.339 23.7551C182.396 23.2836 181.453 22.6235 180.415 23.2836C179.284 24.038 179.284 25.1697 179.472 26.3957C179.755 29.0362 180.604 31.4881 181.453 33.9401C183.528 39.5984 185.697 45.1624 188.62 50.3492C190.223 53.084 189.752 55.0644 188.148 57.3277C187.866 57.7049 187.488 58.1765 187.017 58.8366C185.508 56.479 184.376 54.1213 183.245 51.6694C181.264 47.2371 179.661 42.7104 178.246 38.0895C176.172 31.5825 175.134 24.7925 174.286 18.0025C174.286 17.8139 174.286 17.6253 174.286 17.3424C174.286 13.6645 175.606 12.7214 178.907 14.136C184.188 16.305 188.62 19.8886 192.675 23.7551C196.73 27.6216 200.125 31.9597 203.897 36.0148C204.652 36.8635 205.312 37.618 205.218 39.0326C205.123 40.9187 205.878 41.3902 207.764 40.9187C209.839 40.4471 211.819 39.5984 213.894 39.3155C223.419 37.9952 232.943 37.618 242.28 40.73C244.354 41.3902 244.826 41.2016 245.675 39.3155C246.052 38.6553 246.429 38.0895 246.995 37.618C253.785 30.3565 261.046 23.4722 268.779 17.1538C271.514 14.8905 274.626 13.0044 278.304 12.5328C280.662 12.1556 281.416 12.5328 281.51 14.9848C281.605 18.5684 281.133 22.0576 280.002 25.5469C278.398 30.0736 276.324 34.5059 274.249 38.8439C271.42 44.6908 268.591 50.5378 265.007 55.9131C261.989 52.6125 261.895 52.5182 264.064 48.746C267.082 43.4649 269.062 37.9009 270.477 32.054C270.76 30.9223 270.948 29.7907 271.043 28.659C271.137 27.5273 270.948 26.2071 269.722 25.6412C268.496 25.0754 267.176 25.264 266.139 26.0184C264.724 27.0558 263.31 28.1875 262.084 29.5077C258.5 33.1856 255.199 37.1464 252.276 41.2959C251.993 41.7674 251.71 42.1446 251.333 42.6161C249.635 44.5022 249.635 44.5022 251.239 46.1054C252.087 46.9542 252.936 47.7086 253.785 48.4631C260.763 54.4986 264.158 62.2316 264.724 71.3792C264.818 73.171 264.818 74.9628 265.007 76.7546C265.101 78.0748 264.536 78.7349 263.31 78.8292C257.84 79.4894 252.747 81.5641 247.372 82.6014C246.618 82.7901 245.957 82.8844 245.297 83.3559C243.883 84.299 243.883 85.6192 245.486 86.0907C246.618 86.468 246.806 86.9395 246.995 87.9768C248.409 95.6155 256.52 96.9358 261.235 94.8611C262.367 94.3896 263.215 93.1636 264.536 92.0319C264.724 94.5782 265.007 96.8415 265.101 99.1048C265.384 106.744 266.044 114.477 265.856 122.115C265.761 126.17 265.29 130.225 264.724 134.281C264.536 135.789 264.441 137.204 264.724 138.713C265.856 144.183 265.573 149.558 265.101 155.028C264.724 158.8 264.63 162.572 265.007 166.344C265.384 171.154 265.761 175.963 265.384 180.867C265.196 183.696 265.196 186.526 265.856 189.355C266.422 191.901 266.422 194.541 266.422 197.182C266.327 200.577 266.327 203.878 267.176 207.178C267.742 209.347 267.553 211.611 267.365 213.78C267.27 216.232 266.987 218.684 267.836 220.947C268.308 222.267 267.553 222.927 266.893 223.682C264.253 226.322 261.895 229.34 259.066 231.792C255.105 235.281 251.333 238.959 247.466 242.448C244.92 244.806 241.902 246.504 239.073 248.578C238.507 248.956 238.036 249.238 237.376 248.767C234.358 246.692 231.434 247.729 228.794 249.238C227.285 250.087 226.153 250.087 224.739 249.427C217.949 246.598 211.63 242.826 205.501 238.865C201.634 236.413 197.862 233.772 194.09 231.132C191.166 229.057 188.526 226.7 186.074 224.059C183.433 221.23 183.056 217.552 183.716 213.968C184.471 210.008 184.659 206.047 184.376 202.086C183.999 197.276 184.659 192.467 185.319 187.657C185.979 182.659 185.508 177.755 184.848 172.851C184.188 168.23 183.999 163.609 184.942 158.989C185.319 157.102 185.225 155.216 185.131 153.33C184.942 145.503 184.754 137.77 186.262 130.037C186.734 127.491 186.734 124.756 186.262 122.21C185.319 116.74 186.074 111.27 186.64 105.895C187.017 101.651 187.583 97.313 187.3 93.0693C186.828 92.6921 186.734 92.1262 187.205 91.4661Z" fill="white"/>
<path d="M289.337 233.961C288.017 232.075 286.98 230.189 285.377 228.868C284.528 228.208 284.622 227.454 284.811 226.605C286.037 218.966 280.473 213.025 274.343 212.271C273.683 212.176 273.117 211.894 272.457 211.894C271.514 211.799 271.231 211.328 271.137 210.479C271.042 208.499 270.854 206.518 270.571 204.538C270.288 203.123 270.948 202.652 272.08 202.274C278.87 199.728 284.905 195.673 290.846 191.429C296.127 187.657 301.786 184.451 307.255 180.962C309.519 179.453 311.876 178.038 314.045 176.529C319.704 172.663 326.116 170.399 332.623 168.23C338.282 166.344 344.129 164.93 349.881 163.232C356.105 161.346 362.33 159.366 368.365 157.102C368.648 157.008 368.931 157.102 369.591 157.008C368.365 159.46 367.328 161.818 367.139 164.364C366.856 167.287 367.233 169.739 369.025 172.38C370.534 174.549 372.514 176.529 372.986 179.453C373.269 181.15 375.061 181.622 376.381 181.905C378.267 182.47 378.739 183.508 378.833 185.3C379.21 190.675 379.304 196.05 379.304 201.331C379.304 202.652 378.833 203.218 377.513 203.689C368.742 206.707 359.689 208.499 350.447 209.442C347.901 209.725 345.355 210.573 342.808 211.139C337.339 212.365 331.963 213.685 326.588 215.006C319.892 216.703 313.48 218.872 307.538 222.173C301.126 225.473 294.901 228.963 289.337 233.961Z" fill="#31C77F"/>
<path d="M397.882 146.163C399.014 144.937 400.334 144.466 401.56 143.9C405.804 141.825 410.048 139.845 414.291 137.77C415.517 137.204 416.178 137.298 417.121 138.524C419.761 141.919 422.59 145.126 426.174 147.578C429.286 149.652 432.681 150.878 436.076 152.387C442.96 155.405 450.41 157.008 457.672 159.083C465.028 161.158 472.289 163.798 478.042 169.174C477.759 169.928 477.099 170.022 476.533 170.211C472.478 171.437 468.611 173.04 464.933 175.02C455.22 180.302 445.035 184.357 434.85 188.6C431.549 190.015 428.343 191.524 425.136 192.938C422.779 193.976 420.233 194.73 417.403 195.202C416.838 193.693 417.215 192.09 417.026 190.581C415.895 181.905 415.517 173.229 414.103 164.553C413.254 159.366 410.991 155.311 406.653 152.387C403.635 150.501 400.806 148.332 397.882 146.163Z" fill="#31C77F"/>
<path d="M180.509 221.513C180.981 226.228 184.282 228.68 187.299 231.226C192.58 235.847 198.522 239.619 204.463 243.297C210.027 246.692 215.685 249.804 221.721 252.162C223.324 252.822 224.644 253.388 223.984 255.462C223.701 256.406 224.833 257.349 224.173 258.103C223.418 259.046 222.004 258.857 220.872 258.952C210.498 259.895 200.125 260.649 189.846 258.292C185.696 257.349 181.83 256.028 178.435 253.293C174.757 250.37 172.022 246.975 172.965 241.6C175.511 242.637 177.114 244.617 179.189 245.938C180.698 246.786 182.113 247.447 183.81 247.918C184.564 248.107 185.319 248.295 185.79 247.541C186.356 246.692 185.79 245.938 185.13 245.372C184.659 244.995 184.093 244.712 183.621 244.335C180.981 242.26 178.34 240.279 176.077 237.733C170.985 232.169 173.436 224.53 180.509 221.513Z" fill="#31C77F"/>
<path d="M283.113 231.698C288.017 236.13 285.753 242.449 282.264 246.127C278.209 250.276 272.928 252.162 267.458 253.294C260.102 254.803 252.652 256.406 245.108 257.255C243.693 257.443 242.279 258.198 240.581 257.726C240.487 256.689 241.147 255.557 240.676 254.425C239.921 252.822 240.676 251.974 241.996 251.219C246.617 248.673 250.672 245.372 254.444 241.694C258.782 237.639 263.497 233.773 267.175 229.057C268.307 227.643 269.439 226.228 270.476 224.908C271.419 223.682 271.608 222.267 271.419 220.759C271.23 219.061 271.136 217.458 271.513 215.572C275.474 215.76 278.492 217.552 280.284 220.853C282.076 224.248 281.604 227.831 279.152 230.849C278.398 231.792 277.643 232.547 277.172 233.678C276.983 234.244 276.794 234.904 277.266 235.47C277.926 236.13 278.586 235.942 279.341 235.659C280.095 235.282 280.85 234.904 281.321 234.15C281.887 233.301 282.453 232.547 283.113 231.698Z" fill="#31C77F"/>
<path d="M293.393 235.942C297.165 233.112 300.748 230.472 304.426 227.926C307.444 225.851 310.462 223.776 314.045 222.645C324.89 219.155 336.018 216.326 347.241 214.251C354.125 212.931 361.292 212.837 368.082 211.045C371.383 210.196 374.778 209.348 378.173 208.405C378.55 211.045 378.079 213.497 377.89 215.949C377.607 219.438 377.135 222.833 376.664 226.322C376.381 228.492 376.287 228.586 374.306 227.643C368.742 225.097 362.895 223.399 356.954 222.267C345.543 220.098 334.698 221.23 324.513 227.548C318.666 231.132 313.197 235.187 308.387 239.997C307.067 241.317 306.029 241.411 304.521 240.563C301.126 238.676 297.448 237.168 293.393 235.942Z" fill="white"/>
<path d="M191.072 51.4808C186.922 43.2762 182.113 35.3546 181.075 25.5469C183.339 26.4899 184.659 28.0931 186.168 29.5077C190.411 33.4685 193.806 38.0895 197.861 42.2389C198.616 43.0876 199.182 43.8421 197.673 44.5965C195.41 45.8225 194.278 48.1801 192.58 50.0662C192.203 50.5377 192.015 51.2921 191.072 51.4808Z" fill="#FDFDFD"/>
<path d="M268.025 28.376C267.176 36.2976 263.875 43.2762 260.197 50.2548C257.745 48.2743 255.765 45.8224 253.125 44.1249C257.463 38.1837 261.423 32.0539 268.025 28.376Z" fill="#FDFDFD"/>
<path d="M233.226 259.706C230.585 259.706 227.379 257.349 227.285 255.463C227.285 253.765 230.68 251.03 232.754 250.936C234.829 250.842 237.658 253.482 237.658 255.463C237.753 257.915 235.772 259.706 233.226 259.706Z" fill="#31C77F"/>
<path d="M194.844 85.0535C194.938 86.0908 193.807 87.3168 192.958 87.2225C192.015 87.1282 191.355 86.4681 191.26 85.6193C191.166 84.6763 191.543 83.6389 192.769 83.6389C193.807 83.7332 194.655 84.0161 194.844 85.0535Z" fill="#D9D9D9"/>
<path d="M255.01 85.9965C255.01 87.2225 253.595 88.7314 252.841 88.5428C251.898 88.2598 251.804 87.3168 251.804 86.468C251.804 85.4307 252.558 85.0535 253.501 85.0535C254.161 85.1478 254.916 85.2421 255.01 85.9965Z" fill="#D6D6D6"/>
<path d="M353.371 239.053C352.993 241.034 351.39 241.411 350.258 242.166C347.146 244.335 344.317 247.069 340.828 248.861C337.433 250.559 335.075 249.05 333.095 246.881C332.812 246.598 332.718 246.126 333.095 245.749C333.472 245.372 333.944 245.372 334.227 245.655C336.773 248.201 339.036 246.881 341.488 245.183C344.317 243.203 346.958 240.94 350.07 239.525C351.107 239.242 352.05 238.488 353.371 239.053Z" fill="#0A0A0A"/>
<path d="M104.405 246.409C107.8 247.447 112.138 246.975 115.533 250.276C117.231 251.973 119.588 253.105 121.946 254.142C122.889 254.614 125.058 255.18 124.209 256.689C123.549 257.82 122.229 256.217 121.286 255.746C118.268 254.142 115.062 252.822 112.515 250.37C111.478 249.427 110.064 249.239 108.743 248.861C107.046 248.484 105.254 248.013 103.557 247.635C102.991 247.541 102.519 247.258 102.708 246.598C102.896 246.315 103.462 246.315 104.405 246.409Z" fill="#111111"/>
<path d="M124.586 241.6C122.606 243.109 120.06 242.826 117.702 243.109C115.722 243.391 113.741 243.674 111.855 244.24C108.932 244.995 106.008 244.523 103.273 243.203C102.896 243.014 102.613 242.731 102.613 242.26C102.802 242.165 102.991 241.977 103.179 242.071C107.517 243.769 111.761 242.637 116.099 241.788C118.834 241.222 121.663 241.128 124.398 240.845C124.586 241.034 124.586 241.317 124.586 241.6Z" fill="#151515"/>
<path d="M351.296 244.712C351.579 246.221 350.73 246.786 350.07 247.352C348.655 248.578 347.146 249.71 345.732 250.936C343.751 252.539 342.337 254.331 342.714 257.066C342.808 257.914 343.091 258.857 342.337 259.706C340.073 257.16 340.356 253.105 342.808 250.841C345.354 248.484 348.184 246.598 351.296 244.712Z" fill="#141414"/>
<path d="M123.738 253.011C122.323 251.879 120.72 250.936 119.4 249.616C118.268 248.484 118.645 247.07 120.06 246.692C121.474 246.315 123.078 245.655 124.681 246.504C124.021 248.201 122.135 247.258 121.192 248.484C121.852 250.087 123.926 250.747 123.738 253.011Z" fill="#171717"/>
<path d="M332.906 252.634C334.603 250.936 335.924 251.596 336.961 252.445C338.187 253.482 338.847 254.991 338.658 256.689C338.658 256.877 338.281 257.16 337.998 257.254C337.527 257.443 336.961 257.16 336.961 256.783C336.867 254.52 335.263 253.388 332.906 252.634Z" fill="#1E1E1E"/>
<path d="M239.921 96.8416C239.921 97.1245 239.921 97.596 239.827 98.1619C239.356 99.9537 239.827 101.085 241.43 102.406C245.768 105.895 245.014 113.062 240.11 115.608C238.601 116.363 237.941 117.117 238.035 118.909C238.318 124.756 237.186 130.414 236.338 136.072C235.961 138.996 234.64 141.731 233.131 144.183C231.528 146.918 228.228 147.2 225.964 144.937C225.021 143.994 224.267 142.862 223.701 141.636C221.06 136.072 220.589 130.131 220.023 124.19C219.929 123.341 219.834 122.493 219.929 121.644C220.306 118.155 219.08 115.891 215.779 114.382C213.044 113.156 212.29 109.007 213.61 105.989C214.365 104.386 215.213 102.689 216.817 101.84C217.948 101.18 218.137 100.614 217.854 99.3879C217.477 97.7847 217.1 96.1815 217.382 94.3897C218.326 89.6744 222.946 86.9396 227.379 88.8257C228.793 89.3915 229.831 89.5801 231.34 89.1086C235.866 87.7883 239.921 91.3719 239.921 96.8416Z" fill="#010101"/>
<path d="M239.261 138.713C239.921 139.939 239.45 140.976 239.167 141.919C238.413 144.466 236.904 146.635 235.3 148.709C233.226 151.256 229.171 152.859 225.398 150.313C221.438 147.672 219.174 144.089 218.514 139.185C220.117 139.468 220.306 140.505 220.683 141.448C221.626 144.089 223.324 146.163 225.398 147.955C227.19 149.464 229.171 149.558 231.34 149.181C232.283 148.992 232.943 148.427 233.509 147.578C234.829 145.409 236.338 143.428 237.187 141.071C237.658 140.128 237.847 139.09 239.261 138.713Z" fill="#0B0B0B"/>
<path d="M236.715 113.345C234.074 113.439 232.471 111.931 230.774 110.516C228.888 108.913 228.699 108.819 227.096 110.705C225.964 112.025 224.644 112.968 222.946 113.439C220.494 114.194 217.571 113.062 216.345 110.893C215.496 109.384 215.968 106.838 217.665 105.141C218.42 104.292 219.457 103.726 220.4 103.066C221.626 102.217 222.192 101.463 221.155 100.048C220.494 99.0108 220.212 97.7848 219.929 96.5589C219.551 94.7671 219.929 93.1639 221.437 92.1265C223.135 90.9949 224.927 90.6176 226.719 92.0322C228.133 93.1639 229.265 93.5411 230.774 92.1265C232.377 90.712 235.3 91.4664 236.338 93.5411C237.186 95.3329 238.035 97.219 236.809 99.1994C236.432 99.8595 236.243 100.52 236.055 101.274C235.772 102.217 236.055 102.972 237.186 103.066C238.884 103.066 239.827 104.292 240.676 105.424C241.902 107.027 242.185 109.007 241.053 110.799C240.11 112.402 238.79 113.911 236.715 113.345Z" fill="#FEFEFE"/>
<path d="M224.267 136.356C224.55 132.583 224.644 128.906 226.719 125.699C228.134 123.53 229.454 123.342 231.057 125.322C233.32 128.057 234.263 131.169 233.792 134.658C233.603 135.79 233.037 136.45 231.717 136.45C229.265 136.45 226.813 136.733 224.267 136.356Z" fill="#FCFCFC"/>
<path d="M228.888 144.089C226.436 142.863 225.493 140.882 226.53 138.525C226.907 137.581 227.756 137.676 228.511 138.43C229.454 140.316 229.737 142.202 228.888 144.089Z" fill="#F4F4F4"/>
<path d="M229.642 137.959C230.396 137.864 231.245 137.393 231.434 138.807C231.622 140.599 231.717 142.297 230.208 143.523C228.039 141.825 228.982 139.845 229.642 137.959Z" fill="#EBEBEB"/>
<path d="M229.642 137.959C229.925 139.845 228.982 141.731 230.208 143.523C229.925 144.183 229.548 144.371 228.888 144.183C228.416 142.297 228.227 140.505 228.416 138.619C228.888 138.336 229.265 138.147 229.642 137.959Z" fill="#4C4C4C"/>
<path d="M226.436 98.2562C226.436 99.0106 225.964 99.3878 225.304 99.4821C224.173 99.5764 222.569 97.7846 222.758 96.4644C222.852 95.7099 223.324 95.427 224.078 95.427C225.116 95.5213 226.436 97.0302 226.436 98.2562Z" fill="#1C1C1C"/>
<path d="M234.169 96.1814C234.075 97.596 233.98 98.6334 232.943 99.1992C232.566 99.3878 232.094 99.2935 231.811 98.9163C231.057 97.9733 231.34 96.9359 231.623 95.9928C231.811 95.2384 232.377 94.5783 233.132 94.6726C234.075 94.8612 234.169 95.7099 234.169 96.1814Z" fill="#111111"/>
</g>
<defs>
<clipPath id="clip0">
<rect width="487" height="420" fill="white"/>
</clipPath>
</defs>
</svg>
