<svg xmlns="http://www.w3.org/2000/svg" width="487" height="420" fill="none"><g clip-path="url(#a)"><path fill="#010101" d="M88.468 228.869c.848-.283 1.697-.472 2.546-.849 5.752-2.546 11.882-4.244 18.106-5.375 7.922-1.415 15.844-1.226 23.577 1.886 8.487 3.395 15.749 8.676 22.35 14.805 2.923 2.735 2.923 2.83 6.601.944 2.735-1.415 5.564-2.264 8.771-2.641-.472-3.018-1.321-5.658-.849-8.582.754-4.998 3.772-8.299 8.205-10.279 1.32-.566 1.886-.943 1.603-2.452-.189-.943.094-1.886.188-2.829.189-2.829.472-5.658.378-8.488-.283-4.998-.378-10.09.377-15.088.848-5.753.566-11.506-.095-17.258-.471-3.867-.66-7.733.189-11.6.755-3.489.472-6.884.283-10.373-.377-6.036-.094-11.977.943-17.918.472-2.924.754-5.847.283-8.771-1.037-6.129-.472-12.165.471-18.2.944-5.564.944-11.128.755-16.692-.283-8.205-.377-16.41 1.886-24.425.189-.755.283-1.32-.189-2.075-3.017-4.621-5.186-9.525-7.072-14.712-2.924-8.204-5.942-16.409-7.073-25.085-.283-2.075-.472-4.15-.378-6.318.283-5.187 3.773-7.733 8.582-6.13 4.904 1.603 9.336 4.244 13.203 7.733 5.847 5.187 10.845 11.034 15.655 17.07 1.037 1.32 1.886 1.225 3.112.942 9.147-2.075 18.389-1.603 27.631-.66 3.772 1.792 5.941.377 8.487-2.83 5.659-7.072 12.637-13.013 19.993-18.483 3.112-2.263 6.507-4.15 10.468-4.904 4.715-.848 6.884.566 7.167 5.281.283 4.621-.66 9.148-2.263 13.58-3.112 8.582-7.45 16.598-11.505 24.803-1.038 2.169-2.264 4.243-3.49 6.318-.566 1.037-.848 1.886-.283 2.923 1.415 2.547 1.604 5.47 1.698 8.3.188 6.6.66 13.202-.189 19.898-.66 5.28.189 10.467.566 15.749.377 5.186.943 10.373 0 15.371-.66 3.584-.66 7.073-.754 10.657-.095 2.64.188 5.281.754 7.827.754 3.395.849 6.884.094 10.279-.943 4.81-.943 9.619-.66 14.429.283 5.847.755 11.694.377 17.635-.377 5.564.755 11.034 1.226 16.503.755.283 1.226-.094 1.604-.283 5.658-3.017 11.033-6.412 16.22-10.185 5.375-3.772 11.034-7.167 16.692-10.656 1.603-.943 3.112-2.169 4.621-3.206 5.187-3.584 10.939-6.13 16.881-8.205 7.072-2.452 14.145-5.187 21.407-7.167 6.13-1.698 12.165-3.867 18.295-5.658.283-.095.566-.283.849-.283 4.809-.095 7.733-3.207 10.656-6.413 1.792-1.98 3.867-3.489 6.507-4.244 2.358-.66 4.621-.943 6.79.189 2.452 1.226 4.715.66 6.79-.66 3.584-2.264 7.45-3.867 11.128-5.753 1.415-.754 2.735-1.603 4.055-2.358 3.207-1.886 5.093-1.414 7.733 1.321 3.678 3.866 7.167 7.921 12.26 10.185 6.413 2.829 12.825 5.564 19.71 7.355 6.507 1.698 13.014 3.49 19.049 6.508 4.055 1.98 7.639 4.715 11.223 7.544.754.566 1.131 1.509 1.414 2.358.472 1.32.094 2.169-1.32 2.64-6.413 2.075-12.165 5.47-18.201 8.488-11.599 5.752-23.293 11.41-35.553 15.937-3.301 1.226-6.601 2.735-10.091 3.395-1.32.283-1.886.66-1.886 2.263 0 9.714.472 19.333 1.509 28.952 1.132 11.222 1.603 22.445 1.509 33.667 0 1.037-.189 1.792-.943 2.546-.849.849-1.509 1.981-2.263 3.018-1.132 1.509-2.546 2.923-4.527 3.112-3.206.377-5.564 2.358-8.11 3.772-5.753 3.301-11.6 6.224-17.729 8.676-2.547 1.038-4.904 2.452-7.356 3.49-6.885 3.017-13.769 6.129-20.653 9.241a114 114 0 0 0-6.79 3.395c-8.582 4.621-17.729 8.111-26.688 11.883-2.735 1.132-4.904 3.206-7.922 3.772-.943.189-1.32 1.226-1.603 2.169-1.509 4.621-2.641 9.242-3.207 14.146-.66 6.035-1.98 12.071-2.734 18.106-1.226 10.657-2.735 21.219-3.678 31.875-.943 10.468-1.698 20.936-2.735 31.404-.472 4.527-.472 9.053-.755 13.58-.471 7.45-1.603 14.806-1.886 22.35-.377 8.865-1.791 17.541-3.3 26.217-1.604 9.148-3.395 18.389-3.961 27.726-.377 6.318-1.32 12.731-1.981 19.144-.282 2.452-.565 4.715.849 6.978.943 1.415.283 2.829-.566 4.338-1.697 3.018-4.526 3.772-7.355 4.715-5.942 2.075-11.977 2.075-18.107 1.509-3.395-.283-6.036-2.263-8.77-4.055-.943-.66-1.698-1.792-1.698-2.923-.188-4.527-1.98-8.771-2.64-13.297-1.321-9.053-3.112-18.012-3.678-27.16-.472-7.167-1.698-14.146-2.924-21.219-1.792-10.373-4.338-20.558-6.695-30.743-.283-1.32-.849-1.698-2.075-1.698-3.961.189-8.016.189-11.977.472-3.018.189-4.244 1.226-4.809 4.244-.189 1.037-.566 1.98-.943 3.017-3.301 7.828-4.621 16.127-5.564 24.425-.472 4.621-1.415 9.148-2.264 13.675-1.509 7.544-2.074 15.183-3.206 22.727-.943 6.13-1.509 12.26-2.924 18.39-.754 2.923-2.923 4.715-4.526 6.978-.189.283-.66.566-1.132.566-4.338.472-8.11 2.829-12.448 3.112-3.395.189-6.696.094-10.091-.377-2.263-.377-4.149-1.509-5.941-2.829-.849-.566-1.415-1.509-1.509-2.641-.188-1.32-.471-2.735-.471-4.055.283-7.261-.661-14.429-1.415-21.69-.754-7.733-1.415-15.466-1.697-23.293-.283-10.091-1.226-20.182-1.698-30.272-.471-11.317-1.037-22.728-1.792-34.044a623 623 0 0 0-2.829-32.347c-1.32-12.26-2.452-24.519-2.075-36.779.189-6.224.661-12.354 0-18.578-.094-1.132-.377-2.263-.471-3.395-.189-2.641-1.698-3.867-4.15-4.338-6.318-1.132-12.354-3.395-18.483-5.187a1288 1288 0 0 1-25.18-7.922c-4.244-1.414-8.487-3.112-12.637-4.809-9.147-3.678-18.295-7.167-27.348-11.222-7.167-3.207-14.334-6.507-20.747-11.034-.755-.566-1.603-1.037-2.452-1.32-4.244-1.509-6.036-4.81-6.79-8.959-1.698-8.865-.849-17.73-.189-26.689.849-9.619 2.452-19.144 3.207-28.857.566-6.884 1.886-13.486 3.017-20.276 1.51-8.959 3.207-18.012 4.81-26.971.566-3.395 1.792-6.695 2.735-9.996.566-1.792 1.886-3.301 3.112-4.621 3.772-3.772 8.016-7.073 12.07-10.468 4.905-4.149 13.015-3.583 17.447 1.32 1.792 1.981 3.773 3.584 5.47 5.564 4.244 5.093 6.319 10.845 5.375 17.447-.094.849-.377 1.603-.943 2.263-1.886 2.358-3.583 4.904-4.62 7.733-.566 1.415-1.698 2.169-3.113 2.452-2.074.566-2.64 1.886-2.735 3.867-.377 6.318-.471 12.636.095 18.861.566 7.261 1.226 14.428 1.886 21.69.189 1.037.094 1.792.849 2.452"/><path fill="#fff" d="M87.808 177.001c-.283-1.98-.095-3.489-.66-4.904-.283-.66-.66-1.132-1.32-1.132-.85 0-1.227.661-1.227 1.509 0 1.038.094 2.075 0 3.112-.094 2.452-1.226 3.867-3.583 4.527a21 21 0 0 1-3.395.566c-1.038.094-2.075-.189-3.301.283 2.452 2.169 5.281 1.131 8.016 1.697-1.132 6.602-1.415 13.203-.943 19.804.566 7.545.943 15.089 2.075 22.634.377 2.263.565 4.526 0 6.884-.66 2.546.848 3.772 3.206 2.735 2.64-1.226 5.375-1.792 8.11-2.641 6.036-1.886 11.883-4.055 18.201-4.904 7.45-.943 14.429.095 21.219 3.207 7.45 3.395 13.674 8.487 20.087 13.674-.849 1.414-2.358 2.075-3.301 3.3-.66.944-1.509 1.887-.755 3.113.944 1.32 2.17 1.037 3.395.377 2.452-1.415 4.904-2.924 7.262-4.338 2.64-1.509 5.375-2.735 8.204-3.395.755.754.566 1.509.566 2.263.189 3.678 2.264 6.224 4.716 8.582 5.469 5.375 12.354 7.827 19.804 8.676 9.43 1.132 18.861 1.226 28.291-.189 2.263-.377 4.338-.66 6.79.189 2.358.943 5.093 1.037 7.639-.283 1.32-.66 3.018-.66 4.621-.849 7.544-1.131 15.089-2.64 22.633-4.055 4.149-.849 8.11-1.886 12.071-3.301 3.018-1.131 5.375-3.112 7.827-5.092 2.264-1.792 3.961-4.055 4.904-6.79.377-.943.849-1.037 1.698-.943 1.886.094 3.772.566 5.564 1.226 4.715 1.697 9.242 3.961 13.391 6.884.943.66 1.886 1.226 3.112 1.32.849 0 1.792.095 2.169-.848.283-.849.283-1.698-.377-2.358-1.226-1.226-2.169-2.829-4.338-3.772 3.961-3.018 7.45-5.941 11.128-8.582 2.357-1.697 4.904-3.206 7.544-4.526 8.582-4.338 17.447-5.564 26.877-3.395 7.073 1.603 13.769 4.432 20.842 6.129.66.189 1.32.661 1.98 1.038 1.603.66 2.735.094 2.923-1.603 0-.189.095-.472 0-.661-1.226-5.186.661-10.185.755-15.371.188-10.562 2.075-21.219.283-31.781-.095-.472-.189-1.037.283-1.698 2.169.661 4.621.849 6.978.661.755-.095 1.603-.189 1.792-.944.189-.848-.754-1.225-1.415-1.508-2.263-.849-4.526-1.604-6.79-2.358-1.603-.566-2.923-1.132-2.64-3.301.094-.566 0-1.414-.849-1.32-.566 0-.754.66-.943 1.132-.094.471-.188 1.037-.283 1.603-.471-.189-1.131-.189-1.226-.472-2.074-3.3-5.281-5.941-5.186-10.373 0-5.564 2.263-9.997 5.941-14.052 2.452-2.734 5.375-4.149 8.676-5.375 1.131-.377 1.886-.283 2.923.283 3.772 2.263 7.45 4.715 11.034 7.167 2.075 1.415 3.866 3.206 6.13 4.338.848.377 1.037 1.132 1.226 1.98 3.112 17.07 4.526 34.328 5.564 51.68.66 11.222 1.131 22.444 1.697 33.667.283 4.715.849 9.43 1.132 14.145.377 4.527-2.358 7.262-5.658 9.054-6.979 3.866-14.146 7.167-21.596 10.09-2.547.943-4.904 2.264-7.356 3.584-6.507 3.395-13.391 6.035-20.087 8.959a122 122 0 0 0-8.016 3.678c-6.696 3.3-13.486 6.129-20.276 9.242-5.469 2.451-11.033 4.432-16.031 7.827-4.716 3.206-7.45 7.45-8.205 13.108-.471 3.207-1.32 6.413-1.792 9.619-1.886 13.014-3.961 25.934-4.526 39.137-.283 7.261-1.604 14.429-2.075 21.69-.755 11.788-2.263 23.388-3.206 35.176-.849 10.09-.944 20.181-2.264 30.177-.66 5.187-1.509 10.374-2.735 15.466-1.791 7.828-2.734 15.749-3.583 23.671-.283 2.923-.755 5.847-1.132 8.77-.377 2.264-.754 4.527-.66 6.885.189 3.112-.377 6.035-.849 9.053-.377 2.358-.283 4.527.755 6.79.848 1.886.377 2.735-1.698 3.112-7.544 1.509-15.089 2.923-22.727.849-1.792-.472-3.018-1.321-3.301-3.207-1.037-7.827-3.489-15.371-4.055-23.293-.377-6.224-1.981-12.448-2.546-18.767-.755-7.827-2.452-15.56-3.678-23.293-.095-.377-.095-.849-.189-1.226-1.792-7.544-3.678-15.089-5.564-22.633-.471-1.886-1.32-3.49 1.415-4.527 1.226-.471.943-2.075-.378-2.64-.848-.378-1.791-.472-2.829-.378-6.79.283-13.674.378-20.464 1.509-1.509.283-2.452.943-3.018 2.358-2.923 6.507-5.092 13.297-6.601 20.275-.66 2.83-.754 5.847-1.037 8.771-1.321 11.505-3.961 22.822-4.998 34.327-.755 8.11-2.452 15.937-3.678 23.953-.283 1.886-1.226 3.301-3.207 3.961-7.261 2.358-14.523 3.112-22.067 1.32-3.112-.754-3.301-.754-3.112-3.96.66-12.543-1.32-24.991-2.075-37.439-.566-8.771-1.226-17.636-1.603-26.406-.66-16.975-1.32-34.044-2.924-51.019-.377-3.772-.471-7.544-.565-11.316-.283-7.922-1.509-15.655-2.264-23.577-.66-6.978-1.037-14.051-1.226-21.124-.188-6.13 0-12.165 0-18.295 0-4.527-.283-8.959-.943-13.486-.471-3.206-3.3-4.998-6.035-5.47-1.698-.282-3.301-.66-4.904-1.225-10.751-3.678-21.407-7.545-32.158-10.846-9.996-3.112-19.804-6.884-29.518-10.656-8.393-3.301-16.692-6.884-24.802-10.845-5.375-2.641-10.373-5.941-16.032-7.922-.848-.283-1.32-.943-1.791-1.697-2.452-3.961-2.83-8.299-3.018-12.731-.377-9.242.377-18.484 1.509-27.726 1.32-10.751 2.734-21.502 4.432-32.158.943-5.658 2.358-11.317 3.018-17.069.754-7.356 2.923-14.429 3.678-21.69.377-3.584 1.886-6.319 5.28-8.394 4.716-2.734 8.96-6.129 13.392-9.336 1.037-.754 1.886-.754 3.207-.471 8.676 1.886 15.277 12.542 14.711 19.804-.094 1.509-.472 2.735-1.32 4.055-1.226 1.509-2.452 3.112-3.772 5.281"/><path fill="#fff" d="M187.205 91.466c.943.094 1.415.755 1.981 1.32 4.055 4.527 12.542 3.395 15.937-3.017.189-.378.472-.755.566-1.132.472-1.226.943-2.263 2.641-1.886.754.188 1.603-.189 1.697-1.038.095-.848-.566-1.32-1.32-1.508-1.98-.472-3.867-1.038-5.847-1.226-4.998-.566-9.713-2.547-14.712-3.207-.943-.094-1.131-.66-1.037-1.509.283-7.827 1.886-15.371 6.036-22.256 1.886-3.112 4.243-6.035 6.507-8.864 2.357-2.83 2.263-3.395 0-6.13-3.112-3.678-6.13-7.45-9.242-11.034-2.075-2.357-4.244-4.62-7.073-6.224-.943-.471-1.886-1.131-2.924-.471-1.131.754-1.131 1.886-.943 3.112.283 2.64 1.132 5.092 1.981 7.544 2.075 5.658 4.244 11.222 7.167 16.41 1.603 2.734 1.132 4.714-.472 6.978-.282.377-.66.848-1.131 1.509-1.509-2.358-2.641-4.716-3.772-7.168-1.981-4.432-3.584-8.959-4.999-13.58-2.074-6.506-3.112-13.296-3.96-20.086v-.66c0-3.678 1.32-4.622 4.621-3.207 5.281 2.169 9.713 5.753 13.768 9.62s7.45 8.204 11.222 12.259c.755.849 1.415 1.603 1.321 3.018-.095 1.886.66 2.357 2.546 1.886 2.075-.472 4.055-1.32 6.13-1.603 9.525-1.32 19.049-1.698 28.386 1.414 2.074.66 2.546.472 3.395-1.414.377-.66.754-1.227 1.32-1.698 6.79-7.262 14.051-14.146 21.784-20.464 2.735-2.264 5.847-4.15 9.525-4.621 2.358-.377 3.112 0 3.206 2.452.095 3.583-.377 7.073-1.508 10.562-1.604 4.527-3.678 8.959-5.753 13.297-2.829 5.847-5.658 11.694-9.242 17.07-3.018-3.302-3.112-3.396-.943-7.168 3.018-5.281 4.998-10.845 6.413-16.692q.424-1.697.566-3.395c.094-1.132-.095-2.452-1.321-3.018s-2.546-.377-3.583.377c-1.415 1.038-2.829 2.17-4.055 3.49a97 97 0 0 0-9.808 11.788c-.283.471-.566.849-.943 1.32-1.698 1.886-1.698 1.886-.094 3.49.848.848 1.697 1.603 2.546 2.357 6.978 6.036 10.373 13.769 10.939 22.916.094 1.792.094 3.584.283 5.376.094 1.32-.471 1.98-1.697 2.074-5.47.66-10.563 2.735-15.938 3.772-.754.19-1.415.283-2.075.755-1.414.943-1.414 2.263.189 2.735 1.132.377 1.32.849 1.509 1.886 1.414 7.638 9.525 8.959 14.24 6.884 1.132-.471 1.98-1.697 3.301-2.83.188 2.547.471 4.81.565 7.074.283 7.639.943 15.372.755 23.01-.095 4.055-.566 8.11-1.132 12.166-.188 1.508-.283 2.923 0 4.432 1.132 5.47.849 10.845.377 16.315-.377 3.772-.471 7.544-.094 11.316.377 4.81.754 9.619.377 14.523-.188 2.829-.188 5.659.472 8.488.566 2.546.566 5.186.566 7.827-.095 3.395-.095 6.696.754 9.996.566 2.169.377 4.433.189 6.602-.095 2.452-.378 4.904.471 7.167.472 1.32-.283 1.98-.943 2.735-2.64 2.64-4.998 5.658-7.827 8.11-3.961 3.489-7.733 7.167-11.6 10.656-2.546 2.358-5.564 4.056-8.393 6.13-.566.378-1.037.66-1.697.189-3.018-2.075-5.942-1.038-8.582.471-1.509.849-2.641.849-4.055.189-6.79-2.829-13.109-6.601-19.238-10.562-3.867-2.452-7.639-5.093-11.411-7.733-2.924-2.075-5.564-4.432-8.016-7.073-2.641-2.829-3.018-6.507-2.358-10.091.755-3.96.943-7.921.66-11.882-.377-4.81.283-9.619.943-14.429.66-4.998.189-9.902-.471-14.806-.66-4.621-.849-9.242.094-13.862.377-1.887.283-3.773.189-5.659-.189-7.827-.377-15.56 1.131-23.293a21.8 21.8 0 0 0 0-7.827c-.943-5.47-.188-10.94.378-16.315.377-4.244.943-8.582.66-12.826-.472-.377-.566-.943-.095-1.603"/><path fill="#31C77F" d="M289.337 233.961c-1.32-1.886-2.357-3.772-3.96-5.093-.849-.66-.755-1.414-.566-2.263 1.226-7.639-4.338-13.58-10.468-14.334-.66-.095-1.226-.377-1.886-.377-.943-.095-1.226-.566-1.32-1.415a64 64 0 0 0-.566-5.941c-.283-1.415.377-1.886 1.509-2.264 6.79-2.546 12.825-6.601 18.766-10.845 5.281-3.772 10.94-6.978 16.409-10.467 2.264-1.509 4.621-2.924 6.79-4.433 5.659-3.866 12.071-6.13 18.578-8.299 5.659-1.886 11.506-3.3 17.258-4.998 6.224-1.886 12.449-3.866 18.484-6.13.283-.094.566 0 1.226-.094-1.226 2.452-2.263 4.81-2.452 7.356-.283 2.923.094 5.375 1.886 8.016 1.509 2.169 3.489 4.149 3.961 7.073.283 1.697 2.075 2.169 3.395 2.452 1.886.565 2.358 1.603 2.452 3.395.377 5.375.471 10.75.471 16.031 0 1.321-.471 1.887-1.791 2.358-8.771 3.018-17.824 4.81-27.066 5.753-2.546.283-5.092 1.131-7.639 1.697-5.469 1.226-10.845 2.546-16.22 3.867-6.696 1.697-13.108 3.866-19.05 7.167-6.412 3.3-12.637 6.79-18.201 11.788M397.882 146.163c1.132-1.226 2.452-1.697 3.678-2.263 4.244-2.075 8.488-4.055 12.731-6.13 1.226-.566 1.887-.472 2.83.754 2.64 3.395 5.469 6.602 9.053 9.054 3.112 2.074 6.507 3.3 9.902 4.809 6.884 3.018 14.334 4.621 21.596 6.696 7.356 2.075 14.617 4.715 20.37 10.091-.283.754-.943.848-1.509 1.037a62.7 62.7 0 0 0-11.6 4.809c-9.713 5.282-19.898 9.337-30.083 13.58-3.301 1.415-6.507 2.924-9.714 4.338-2.357 1.038-4.903 1.792-7.733 2.264-.565-1.509-.188-3.112-.377-4.621-1.131-8.676-1.509-17.352-2.923-26.028-.849-5.187-3.112-9.242-7.45-12.166-3.018-1.886-5.847-4.055-8.771-6.224M180.509 221.513c.472 4.715 3.773 7.167 6.79 9.713 5.281 4.621 11.223 8.393 17.164 12.071 5.564 3.395 11.222 6.507 17.258 8.865 1.603.66 2.923 1.226 2.263 3.3-.283.944.849 1.887.189 2.641-.755.943-2.169.754-3.301.849-10.374.943-20.747 1.697-31.026-.66-4.15-.943-8.016-2.264-11.411-4.999-3.678-2.923-6.413-6.318-5.47-11.693 2.546 1.037 4.149 3.017 6.224 4.338 1.509.848 2.924 1.509 4.621 1.98.754.189 1.509.377 1.98-.377.566-.849 0-1.603-.66-2.169-.471-.377-1.037-.66-1.509-1.037-2.64-2.075-5.281-4.056-7.544-6.602-5.092-5.564-2.641-13.203 4.432-16.22"/><path fill="#31C77F" d="M283.113 231.698c4.904 4.432 2.64 10.751-.849 14.429-4.055 4.149-9.336 6.035-14.806 7.167-7.356 1.509-14.806 3.112-22.35 3.961-1.415.188-2.829.943-4.527.471-.094-1.037.566-2.169.095-3.301-.755-1.603 0-2.451 1.32-3.206 4.621-2.546 8.676-5.847 12.448-9.525 4.338-4.055 9.053-7.921 12.731-12.637a592 592 0 0 0 3.301-4.149c.943-1.226 1.132-2.641.943-4.149-.189-1.698-.283-3.301.094-5.187 3.961.188 6.979 1.98 8.771 5.281 1.792 3.395 1.32 6.978-1.132 9.996-.754.943-1.509 1.698-1.98 2.829-.189.566-.378 1.226.094 1.792.66.66 1.32.472 2.075.189.754-.377 1.509-.755 1.98-1.509a41 41 0 0 1 1.792-2.452"/><path fill="#fff" d="M293.393 235.942c3.772-2.83 7.355-5.47 11.033-8.016 3.018-2.075 6.036-4.15 9.619-5.281a267 267 0 0 1 33.196-8.394c6.884-1.32 14.051-1.414 20.841-3.206 3.301-.849 6.696-1.697 10.091-2.64.377 2.64-.094 5.092-.283 7.544-.283 3.489-.755 6.884-1.226 10.373-.283 2.17-.377 2.264-2.358 1.321-5.564-2.546-11.411-4.244-17.352-5.376-11.411-2.169-22.256-1.037-32.441 5.281-5.847 3.584-11.316 7.639-16.126 12.449-1.32 1.32-2.358 1.414-3.866.566-3.395-1.887-7.073-3.395-11.128-4.621"/><path fill="#FDFDFD" d="M191.072 51.48c-4.15-8.204-8.959-16.125-9.997-25.933 2.264.943 3.584 2.546 5.093 3.96 4.243 3.961 7.638 8.583 11.693 12.732.755.849 1.321 1.603-.188 2.358-2.263 1.225-3.395 3.583-5.093 5.47-.377.47-.565 1.225-1.508 1.414M268.025 28.376c-.849 7.922-4.15 14.9-7.828 21.879-2.452-1.98-4.432-4.433-7.072-6.13 4.338-5.941 8.298-12.071 14.9-15.749"/><path fill="#31C77F" d="M233.226 259.706c-2.641 0-5.847-2.357-5.941-4.243 0-1.698 3.395-4.433 5.469-4.527s4.904 2.546 4.904 4.527c.095 2.452-1.886 4.243-4.432 4.243"/><path fill="#D9D9D9" d="M194.844 85.054c.094 1.037-1.037 2.263-1.886 2.168-.943-.094-1.603-.754-1.698-1.603-.094-.943.283-1.98 1.509-1.98 1.038.094 1.886.377 2.075 1.415"/><path fill="#D6D6D6" d="M255.01 85.997c0 1.225-1.415 2.734-2.169 2.546-.943-.283-1.037-1.226-1.037-2.075 0-1.037.754-1.415 1.697-1.415.66.095 1.415.19 1.509.944"/><path fill="#0A0A0A" d="M353.371 239.053c-.378 1.981-1.981 2.358-3.113 3.113-3.112 2.169-5.941 4.903-9.43 6.695-3.395 1.698-5.753.189-7.733-1.98-.283-.283-.377-.755 0-1.132s.849-.377 1.132-.094c2.546 2.546 4.809 1.226 7.261-.472 2.829-1.98 5.47-4.243 8.582-5.658 1.037-.283 1.98-1.037 3.301-.472"/><path fill="#111" d="M104.405 246.409c3.395 1.038 7.733.566 11.128 3.867 1.698 1.697 4.055 2.829 6.413 3.866.943.472 3.112 1.038 2.263 2.547-.66 1.131-1.98-.472-2.923-.943-3.018-1.604-6.224-2.924-8.771-5.376-1.037-.943-2.451-1.131-3.772-1.509-1.697-.377-3.489-.848-5.186-1.226-.566-.094-1.038-.377-.849-1.037.188-.283.754-.283 1.697-.189"/><path fill="#151515" d="M124.586 241.6c-1.98 1.509-4.526 1.226-6.884 1.509-1.98.282-3.961.565-5.847 1.131-2.923.755-5.847.283-8.582-1.037-.377-.189-.66-.472-.66-.943.189-.095.378-.283.566-.189 4.338 1.698 8.582.566 12.92-.283 2.735-.566 5.564-.66 8.299-.943.188.189.188.472.188.755"/><path fill="#141414" d="M351.296 244.712c.283 1.509-.566 2.074-1.226 2.64-1.415 1.226-2.924 2.358-4.338 3.584-1.981 1.603-3.395 3.395-3.018 6.13.094.848.377 1.791-.377 2.64-2.264-2.546-1.981-6.601.471-8.865 2.546-2.357 5.376-4.243 8.488-6.129"/><path fill="#171717" d="M123.738 253.011c-1.415-1.132-3.018-2.075-4.338-3.395-1.132-1.132-.755-2.546.66-2.924 1.414-.377 3.018-1.037 4.621-.188-.66 1.697-2.546.754-3.489 1.98.66 1.603 2.734 2.263 2.546 4.527"/><path fill="#1E1E1E" d="M332.906 252.634c1.697-1.698 3.018-1.038 4.055-.189 1.226 1.037 1.886 2.546 1.697 4.244 0 .188-.377.471-.66.565-.471.189-1.037-.094-1.037-.471-.094-2.263-1.698-3.395-4.055-4.149"/><path fill="#010101" d="M239.921 96.842c0 .282 0 .754-.094 1.32-.471 1.792 0 2.923 1.603 4.244 4.338 3.489 3.584 10.656-1.32 13.202-1.509.755-2.169 1.509-2.075 3.301.283 5.847-.849 11.505-1.697 17.163-.377 2.924-1.698 5.659-3.207 8.111-1.603 2.735-4.903 3.017-7.167.754-.943-.943-1.697-2.075-2.263-3.301-2.641-5.564-3.112-11.505-3.678-17.446-.094-.849-.189-1.697-.094-2.546.377-3.489-.849-5.753-4.15-7.262-2.735-1.226-3.489-5.375-2.169-8.393.755-1.603 1.603-3.3 3.207-4.149 1.131-.66 1.32-1.226 1.037-2.452-.377-1.603-.754-3.207-.472-4.998.944-4.716 5.564-7.45 9.997-5.564 1.414.566 2.452.754 3.961.283 4.526-1.32 8.581 2.263 8.581 7.733"/><path fill="#0B0B0B" d="M239.261 138.713c.66 1.226.189 2.263-.094 3.206-.754 2.547-2.263 4.716-3.867 6.79-2.074 2.547-6.129 4.15-9.902 1.604-3.96-2.641-6.224-6.224-6.884-11.128 1.603.283 1.792 1.32 2.169 2.263.943 2.641 2.641 4.715 4.715 6.507 1.792 1.509 3.773 1.603 5.942 1.226.943-.189 1.603-.754 2.169-1.603 1.32-2.169 2.829-4.15 3.678-6.507.471-.943.66-1.981 2.074-2.358"/><path fill="#FEFEFE" d="M236.715 113.345c-2.641.094-4.244-1.414-5.941-2.829-1.886-1.603-2.075-1.697-3.678.189-1.132 1.32-2.452 2.263-4.15 2.734-2.452.755-5.375-.377-6.601-2.546-.849-1.509-.377-4.055 1.32-5.752.755-.849 1.792-1.415 2.735-2.075 1.226-.849 1.792-1.603.755-3.018-.661-1.037-.943-2.263-1.226-3.49-.378-1.79 0-3.394 1.508-4.432 1.698-1.131 3.49-1.508 5.282-.094 1.414 1.132 2.546 1.51 4.055.094 1.603-1.414 4.526-.66 5.564 1.415.848 1.792 1.697 3.678.471 5.658-.377.66-.566 1.321-.754 2.075-.283.943 0 1.698 1.131 1.792 1.698 0 2.641 1.226 3.49 2.358 1.226 1.603 1.509 3.583.377 5.375-.943 1.603-2.263 3.112-4.338 2.546"/><path fill="#FCFCFC" d="M224.267 136.356c.283-3.773.377-7.45 2.452-10.657 1.415-2.169 2.735-2.357 4.338-.377 2.263 2.735 3.206 5.847 2.735 9.336-.189 1.132-.755 1.792-2.075 1.792-2.452 0-4.904.283-7.45-.094"/><path fill="#F4F4F4" d="M228.888 144.089c-2.452-1.226-3.395-3.207-2.358-5.564.377-.944 1.226-.849 1.981-.095.943 1.886 1.226 3.772.377 5.659"/><path fill="#EBEBEB" d="M229.642 137.959c.754-.095 1.603-.566 1.792.848.188 1.792.283 3.49-1.226 4.716-2.169-1.698-1.226-3.678-.566-5.564"/><path fill="#4C4C4C" d="M229.642 137.959c.283 1.886-.66 3.772.566 5.564-.283.66-.66.848-1.32.66-.472-1.886-.661-3.678-.472-5.564a17 17 0 0 1 1.226-.66"/><path fill="#1C1C1C" d="M226.436 98.256c0 .755-.472 1.132-1.132 1.226-1.131.094-2.735-1.697-2.546-3.018.094-.754.566-1.037 1.32-1.037 1.038.094 2.358 1.603 2.358 2.83"/><path fill="#111" d="M234.169 96.181c-.094 1.415-.189 2.452-1.226 3.018a.9.9 0 0 1-1.132-.283c-.754-.943-.471-1.98-.188-2.923.188-.755.754-1.415 1.509-1.32.943.188 1.037 1.037 1.037 1.508"/></g><defs><clipPath id="a"><path fill="#fff" d="M0 0h487v420H0z"/></clipPath></defs></svg>