<svg width="834" height="835" xmlns="http://www.w3.org/2000/svg" xmlns:xlink="http://www.w3.org/1999/xlink" xml:space="preserve" overflow="hidden"><defs><clipPath id="clip0"><rect x="-957" y="682" width="834" height="835"/></clipPath><clipPath id="clip1"><rect x="-800" y="722" width="510" height="751"/></clipPath><clipPath id="clip2"><rect x="-800" y="722" width="510" height="751"/></clipPath></defs><g clip-path="url(#clip0)" transform="translate(957 -682)"><path d="M-952.5 1102C-952.5 874.183-767.818 689.5-540 689.5-312.183 689.5-127.5 874.183-127.5 1102-127.5 1329.82-312.183 1514.5-540 1514.5-767.818 1514.5-952.5 1329.82-952.5 1102Z" stroke="#000000" stroke-width="4.58333" stroke-linecap="butt" stroke-linejoin="miter" stroke-miterlimit="8" stroke-opacity="1" fill="#000000" fill-rule="evenodd" fill-opacity="1"/><g clip-path="url(#clip1)"><g clip-path="url(#clip2)"><path d="M437.932 752.069 437.786 698.901 569.402 620.086 568.945 461.89 616.345 436.533 618.234 647.787 437.932 752.069Z" fill="#FDB900" fill-rule="nonzero" fill-opacity="1" transform="matrix(1 0 0 1 -979.117 663.006)"/><path d="M617.827 434.01C618.687 434.524 619.218 435.452 619.227 436.457L621.115 647.712C621.125 648.75 620.576 649.713 619.681 650.231L439.379 754.508C438.494 755.017 437.405 755.017 436.521 754.508 435.637 753.998 435.091 753.052 435.088 752.025L434.943 698.86C434.94 697.843 435.471 696.901 436.34 696.381L566.554 618.405 566.102 461.849C566.099 460.783 566.683 459.803 567.619 459.302L615.019 433.944C615.902 433.472 616.967 433.496 617.827 434.01ZM571.832 463.565 572.284 620.028C572.286 621.044 571.755 621.987 570.887 622.508L440.672 700.484 440.8 747.046 615.375 646.083 613.545 441.25 571.832 463.565Z" fill="#FFFFFF" fill-rule="evenodd" fill-opacity="1" transform="matrix(1 0 0 1 -979.117 663.006)"/><path d="M476.361 361.114 530.257 330.065 662.454 414.299 663.18 668.948 618.25 647.732 616.361 436.477 476.361 361.114Z" fill="#FDB900" fill-rule="nonzero" fill-opacity="1" transform="matrix(1 0 0 1 -979.117 663.006)"/><path d="M528.852 327.587C529.773 327.056 530.912 327.081 531.809 327.653L664.006 411.888C664.831 412.413 665.332 413.326 665.335 414.308L666.062 668.957C666.065 669.943 665.564 670.862 664.737 671.391 663.91 671.921 662.87 671.988 661.982 671.568L617.051 650.353C616.056 649.882 615.416 648.881 615.407 647.776L613.533 438.225 475.029 363.667C474.112 363.173 473.533 362.218 473.518 361.173 473.503 360.128 474.054 359.156 474.957 358.636L528.852 327.587ZM482.284 361.046 617.732 433.959C618.654 434.455 619.233 435.417 619.243 436.469L621.115 645.915 660.323 664.429 659.614 415.901 530.201 333.441 482.284 361.046Z" fill="#FFFFFF" fill-rule="evenodd" fill-opacity="1" transform="matrix(1 0 0 1 -979.117 663.006)"/><path d="M435.915 68.8839 661.832 199.755 661.998 254.258 436.144 125.961 435.915 68.8839Z" fill="#FDB900" fill-rule="nonzero" fill-opacity="1" transform="matrix(1 0 0 1 -979.117 663.006)"/><path d="M434.497 66.363C435.383 65.8463 436.477 65.8447 437.364 66.3588L663.282 197.23C664.165 197.741 664.711 198.688 664.714 199.713L664.88 254.216C664.883 255.24 664.344 256.189 663.464 256.707 662.584 257.225 661.497 257.233 660.609 256.728L434.754 128.432C433.859 127.923 433.304 126.972 433.3 125.939L433.072 68.8623C433.068 67.8329 433.611 66.8798 434.497 66.363ZM438.817 73.8406 439.019 124.246 659.14 249.286 658.994 201.386 438.817 73.8406Z" fill="#FFFFFF" fill-rule="evenodd" fill-opacity="1" transform="matrix(1 0 0 1 -979.117 663.006)"/><path d="M211.642 468.254 210.875 202.391 435.899 68.8839 436.128 125.961 253.127 230.134 252.422 437.603 211.642 468.254Z" fill="#FDB900" fill-rule="nonzero" fill-opacity="1" transform="matrix(1 0 0 1 -979.117 663.006)"/><path d="M437.333 66.3499C438.224 66.859 438.777 67.8086 438.781 68.8391L439.009 125.916C439.013 126.956 438.458 127.918 437.558 128.43L256.003 231.78 255.304 437.579C255.301 438.482 254.876 439.332 254.156 439.872L213.376 470.524C212.51 471.175 211.352 471.28 210.383 470.794 209.415 470.309 208.802 469.316 208.799 468.229L208.031 202.366C208.028 201.345 208.564 200.4 209.438 199.881L434.463 66.3739C435.346 65.8499 436.441 65.8407 437.333 66.3499ZM213.761 203.997 214.507 462.489 249.584 436.125 250.284 230.091C250.288 229.059 250.842 228.107 251.735 227.598L433.277 124.255 433.076 73.8777 213.761 203.997Z" fill="#FFFFFF" fill-rule="evenodd" fill-opacity="1" transform="matrix(1 0 0 1 -979.117 663.006)"/><path d="M344.224 542.422 211.654 468.21 252.434 437.558 479.575 569.6 344.556 647.097 299.314 672.707 437.944 752.025 618.246 647.746 663.177 668.962 436.824 805.187 212.256 675.552 391.25 568.743 344.224 542.422Z" fill="#FDB900" fill-rule="nonzero" fill-opacity="1" transform="matrix(1 0 0 1 -979.117 663.006)"/><path d="M250.737 435.305C251.655 434.616 252.894 434.542 253.886 435.119L481.028 567.161C481.914 567.677 482.46 568.629 482.457 569.659 482.454 570.689 481.904 571.638 481.014 572.149L345.995 649.646 345.98 649.655 305.142 672.771 437.956 748.764 616.838 645.304C617.649 644.835 618.636 644.793 619.483 645.194L664.414 666.409C665.371 666.861 666.002 667.806 666.055 668.868 666.108 669.929 665.574 670.934 664.667 671.48L438.314 807.705C437.424 808.244 436.316 808.251 435.417 807.734L210.849 678.097C209.966 677.588 209.42 676.646 209.412 675.624 209.404 674.601 209.938 673.652 210.813 673.13L385.529 568.873 342.85 544.985 210.279 470.773C209.432 470.299 208.882 469.425 208.816 468.453 208.751 467.48 209.181 466.541 209.958 465.957L250.737 435.305ZM252.654 441.049 216.923 467.907 345.636 539.96 392.662 566.28C393.557 566.781 394.117 567.724 394.132 568.754 394.146 569.782 393.612 570.741 392.731 571.267L217.95 675.562 436.813 801.904 657.115 669.319 618.4 651.038 439.391 754.566C438.512 755.075 437.429 755.083 436.547 754.573L297.917 675.257C297.021 674.744 296.469 673.787 296.471 672.751 296.473 671.715 297.03 670.76 297.928 670.252L343.155 644.651 343.17 644.642 473.85 569.635 252.654 441.049Z" fill="#FFFFFF" fill-rule="evenodd" fill-opacity="1" transform="matrix(1 0 0 1 -979.117 663.006)"/><path d="M253.152 230.133 436.152 125.959 662.007 254.257 530.267 330.122 476.371 361.171 616.371 436.534 568.971 461.893 389.271 358.661 568.369 251.85 525.639 227.037 436.297 175.148 303.271 252.625 253.152 230.133Z" fill="#FDB900" fill-rule="nonzero" fill-opacity="1" transform="matrix(1 0 0 1 -979.117 663.006)"/><path d="M434.754 123.424C435.629 122.927 436.699 122.926 437.574 123.423L663.429 251.72C664.325 252.229 664.88 253.182 664.883 254.216 664.886 255.25 664.336 256.206 663.444 256.72L531.704 332.585 482.288 361.053 617.736 433.966C618.668 434.467 619.249 435.444 619.247 436.506 619.246 437.567 618.663 438.542 617.729 439.04L570.33 464.399C569.462 464.863 568.417 464.847 567.564 464.357L387.863 361.125C386.979 360.617 386.43 359.675 386.421 358.651 386.413 357.628 386.947 356.677 387.823 356.154L562.718 251.851 524.22 229.494 436.313 178.439 304.719 255.081C303.924 255.544 302.955 255.595 302.116 255.219L251.997 232.727C251.012 232.284 250.357 231.322 250.306 230.238 250.254 229.153 250.815 228.133 251.754 227.598L434.754 123.424ZM436.167 129.232 259.507 229.796 303.115 249.366 434.875 172.628C435.762 172.111 436.856 172.11 437.743 172.625L569.815 249.327C570.695 249.838 571.239 250.78 571.245 251.802 571.251 252.822 570.718 253.77 569.844 254.291L394.971 358.581 569.034 458.575 610.308 436.494 475.033 363.674C474.115 363.181 473.537 362.225 473.522 361.18 473.508 360.135 474.058 359.163 474.96 358.643L528.856 327.594 656.234 254.241 436.167 129.232Z" fill="#FFFFFF" fill-rule="evenodd" fill-opacity="1" transform="matrix(1 0 0 1 -979.117 663.006)"/><path d="M299.319 672.702 346.225 646.238 437.804 698.855 437.949 752.018 299.319 672.702Z" fill="#FDB900" fill-rule="nonzero" fill-opacity="1" transform="matrix(1 0 0 1 -979.117 663.006)"/><path d="M344.843 643.747C345.72 643.252 346.792 643.256 347.665 643.758L439.243 696.376C440.133 696.886 440.683 697.835 440.685 698.865L440.83 752.025C440.833 753.052 440.292 754.005 439.41 754.522 438.528 755.039 437.439 755.046 436.552 754.537L297.922 675.219C297.025 674.706 296.472 673.747 296.475 672.711 296.479 671.674 297.036 670.719 297.936 670.212L344.843 643.747ZM305.154 672.737 435.092 747.083 434.965 700.544 346.232 649.561 305.154 672.737Z" fill="#FFFFFF" fill-rule="evenodd" fill-opacity="1" transform="matrix(1 0 0 1 -979.117 663.006)"/><path d="M212.252 675.608 212.086 618.489 344.22 542.478 391.247 568.798 212.252 675.608Z" fill="#FDB900" fill-rule="nonzero" fill-opacity="1" transform="matrix(1 0 0 1 -979.117 663.006)"/><path d="M342.811 539.932C343.682 539.431 344.75 539.425 345.626 539.915L392.653 566.236C393.548 566.737 394.108 567.68 394.122 568.709 394.136 569.738 393.602 570.697 392.722 571.222L213.727 678.032C212.843 678.559 211.747 678.57 210.853 678.06 209.959 677.551 209.406 676.599 209.403 675.567L209.237 618.449C209.233 617.414 209.784 616.458 210.677 615.944L342.811 539.932ZM344.253 545.731 214.967 620.105 215.113 670.514 385.52 568.829 344.253 545.731Z" fill="#FFFFFF" fill-rule="evenodd" fill-opacity="1" transform="matrix(1 0 0 1 -979.117 663.006)"/><path d="M389.281 358.619 389.822 304.199 525.65 226.995 568.38 251.809 389.281 358.619Z" fill="#FDB900" fill-rule="nonzero" fill-opacity="1" transform="matrix(1 0 0 1 -979.117 663.006)"/><path d="M524.22 224.508C525.102 224.007 526.183 224.012 527.061 224.522L569.792 249.336C570.672 249.847 571.216 250.788 571.222 251.81 571.228 252.831 570.694 253.779 569.821 254.3L390.722 361.11C389.833 361.64 388.728 361.647 387.832 361.128 386.936 360.61 386.389 359.646 386.399 358.608L386.938 304.188C386.948 303.161 387.502 302.219 388.391 301.713L524.22 224.508ZM392.647 305.903 392.174 353.554 562.696 251.859 525.614 230.325 392.647 305.903Z" fill="#FFFFFF" fill-rule="evenodd" fill-opacity="1" transform="matrix(1 0 0 1 -979.117 663.006)"/><path d="M252.447 437.523 253.152 230.055 303.271 252.547 303.727 415.345 479.422 513.933 479.588 569.566 252.447 437.523Z" fill="#FDB900" fill-rule="nonzero" fill-opacity="1" transform="matrix(1 0 0 1 -979.117 663.006)"/><path d="M251.578 227.708C252.391 227.18 253.415 227.101 254.299 227.497L304.417 249.989C305.446 250.451 306.109 251.476 306.112 252.608L306.564 413.723 480.797 511.49C481.7 511.996 482.261 512.953 482.264 513.992L482.43 569.626C482.433 570.655 481.888 571.608 481.002 572.123 480.114 572.64 479.021 572.64 478.134 572.124L250.992 440.081C250.105 439.566 249.56 438.612 249.563 437.582L250.269 230.114C250.272 229.141 250.764 228.236 251.578 227.708ZM255.979 234.552 255.294 435.936 476.69 564.639 476.544 515.692 302.311 417.925C301.408 417.418 300.846 416.462 300.844 415.422L300.392 254.483 255.979 234.552Z" fill="#FFFFFF" fill-rule="evenodd" fill-opacity="1" transform="matrix(1 0 0 1 -979.117 663.006)"/></g></g></g></svg>