<svg width="400" height="400" viewBox="0 0 400 400" fill="none" xmlns="http://www.w3.org/2000/svg">
<g clip-path="url(#clip0_433_74)">
<g clip-path="url(#clip1_433_74)">
<path d="M200 401C310.457 401 400 311.457 400 201C400 90.5431 310.457 1 200 1C89.5431 1 0 90.5431 0 201C0 311.457 89.5431 401 200 401Z" fill="white"/>
<path d="M174.614 278.579C162.812 278.579 152.808 275.821 144.614 270.297C136.416 264.773 130.643 257.244 127.3 247.712C123.953 238.179 123.645 227.438 126.374 215.48C129.102 203.527 134.079 192.823 141.313 183.362C148.538 173.905 157.174 166.415 167.212 160.891C177.245 155.367 187.793 152.609 198.841 152.609C207.768 152.609 215.591 154.461 222.315 158.171C229.031 161.88 234.239 166.908 237.932 173.266L251.923 111.981C252.719 108.503 254.454 105.703 257.132 103.581C259.805 101.463 262.812 100.402 266.142 100.402C269.473 100.402 272.18 101.463 273.814 103.581C275.448 105.703 275.869 108.503 275.073 111.981L251.439 215.484C248.711 227.442 243.494 238.183 235.797 247.716C228.092 257.249 218.921 264.777 208.281 270.301C197.637 275.826 186.416 278.583 174.614 278.583V278.579ZM179.279 258.154C186.997 258.154 194.302 256.306 201.203 252.592C208.1 248.887 214.033 243.779 219.001 237.27C223.965 230.764 227.363 223.506 229.195 215.48C231.06 207.312 230.98 200.049 228.951 193.691C226.921 187.337 223.3 182.306 218.1 178.596C212.892 174.891 206.429 173.034 198.715 173.034C191.001 173.034 183.881 174.887 176.904 178.596C169.928 182.306 163.936 187.337 158.93 193.691C153.919 200.049 150.488 207.312 148.618 215.48C146.787 223.506 146.904 230.769 148.976 237.27C151.043 243.775 154.723 248.887 160.003 252.592C165.283 256.301 171.704 258.154 179.275 258.154H179.279Z" fill="#9900FF"/>
<path fill-rule="evenodd" clip-rule="evenodd" d="M200 363.5C289.746 363.5 362.5 290.746 362.5 201C362.5 111.254 289.746 38.5 200 38.5C110.254 38.5 37.5 111.254 37.5 201C37.5 290.746 110.254 363.5 200 363.5ZM200 376C296.65 376 375 297.65 375 201C375 104.35 296.65 26 200 26C103.35 26 25 104.35 25 201C25 297.65 103.35 376 200 376Z" fill="#9900FF"/>
</g>
</g>
<defs>
<clipPath id="clip0_433_74">
<rect width="400" height="400" fill="white"/>
</clipPath>
<clipPath id="clip1_433_74">
<rect width="400" height="400" fill="white" transform="translate(0 1)"/>
</clipPath>
</defs>
</svg>
