<svg xmlns="http://www.w3.org/2000/svg" width="480" height="480" fill="none"><mask id="b" width="480" height="480" x="0" y="0" mask-type="alpha" maskUnits="userSpaceOnUse"><circle cx="240" cy="240" r="240" fill="url(#a)"/></mask><g mask="url(#b)"><circle cx="240" cy="240" r="240" fill="#31D8A4"/><circle cx="240" cy="240" r="208" fill="#fff"/></g><circle cx="240" cy="240" r="184" fill="#0E052F"/><path fill="#627EEA" d="M240 424c101.62 0 184-82.38 184-184S341.62 56 240 56 56 138.38 56 240s82.38 184 184 184"/><path fill="#fff" fill-opacity=".602" d="M245.728 102v102.005l86.216 38.525z"/><path fill="#fff" d="M245.727 102 159.5 242.53l86.227-38.525z"/><path fill="#fff" fill-opacity=".602" d="M245.728 308.631v69.311l86.273-119.359z"/><path fill="#fff" d="M245.727 377.942V308.62L159.5 258.583z"/><path fill="#fff" fill-opacity=".2" d="m245.728 292.59 86.216-50.06-86.216-38.502z"/><path fill="#fff" fill-opacity=".602" d="m159.5 242.53 86.227 50.06v-88.562z"/><defs><linearGradient id="a" x1="240" x2="240" y1="0" y2="701.818" gradientUnits="userSpaceOnUse"><stop stop-color="#08021E"/><stop offset="1" stop-color="#1F0777"/></linearGradient></defs></svg>