<svg xmlns="http://www.w3.org/2000/svg" xmlns:xlink="http://www.w3.org/1999/xlink" viewBox="0 0 741 741"><defs><linearGradient id="b" x1="-85.44" x2="-712.6" y1="6629.75" y2="6267.67" gradientTransform="matrix(1 0 0 -1 769.5 6819.18)" gradientUnits="userSpaceOnUse"><stop offset="0" stop-color="#fff"/><stop offset="1" stop-color="#999"/></linearGradient><linearGradient id="c" x1="-553.57" x2="-255.72" y1="4922.53" y2="5220.38" gradientTransform="translate(769.5 -4703.02)" gradientUnits="userSpaceOnUse"><stop offset="0" stop-color="#be0420"/><stop offset=".16" stop-color="#ca0420"/><stop offset=".71" stop-color="#f00420"/><stop offset="1" stop-color="#ff0420"/></linearGradient><linearGradient id="a" x1="6579.34" x2="6776.31" y1="6180.25" y2="6377.2" gradientTransform="rotate(-174.86 3389.384 3538.553)" gradientUnits="userSpaceOnUse"><stop offset="0" stop-color="#e80420"/><stop offset="1" stop-color="#ff0420"/></linearGradient><linearGradient xlink:href="#a" id="d" x1="13.32" x2="210.29" y1="5348.54" y2="5545.5" gradientTransform="rotate(5.14 58205.816 5940.537)"/></defs><path d="M370.5 732.5C170.52 732.37 8.51 570.14 8.64 370.16 8.74 224.81 95.74 93.6 229.6 36.94c184.47-77.23 396.62 9.71 473.84 194.18 76.88 183.64-8.9 394.89-192.04 472.94a359.9 359.9 0 0 1-140.9 28.44" style="fill:url(#b)"/><path d="M370.5 17c195.29.13 353.49 158.56 353.36 353.84-.1 141.94-85.06 270.06-215.77 325.39-180.19 75.28-387.3-9.77-462.58-189.96-74.87-179.19 8.8-385.23 187.4-461.5A351.2 351.2 0 0 1 370.5 17m0-17C165.88 0 0 165.88 0 370.5S165.88 741 370.5 741 741 575.12 741 370.5 575.12 0 370.5 0" style="fill:#fff"/><path d="m523.11 330-33.92-62.85-13.05-2.6-64.79-90.22s-64.56 5.52-125 21.25c-37.45-1.68-69 10.32-90.81 34.82C149 282.7 156.65 363 211.89 412l33.92 62.91 13 2.6 64.73 90.22s64.58-5.5 125-21.25c37.45 1.68 69-10.33 90.81-34.82 46.7-52.34 39.01-132.59-16.24-181.66" style="fill:url(#c)"/><path d="M539.44 511.58c-39.58 33.05-98.46 27.76-131.51-11.82L344.72 424c-33.35-39.98-92.8-45.35-132.78-12h-.05c-39.41 33-43.75 91.95-10.62 131.62 81.98 98.32 222.93 81.38 338.17-32.04" style="fill:url(#a)"/><path d="M195.56 230.52c39.59-33.06 98.48-27.77 131.54 11.82L390.3 318c33.33 39.99 92.77 45.39 132.76 12.06h.05c39.41-33 43.75-92 10.64-131.62-82.08-98.36-222.91-81.44-338.19 32.08" style="fill:url(#d)"/></svg>