<svg version="1.1" id="Layer_1" xmlns="http://www.w3.org/2000/svg" xmlns:xlink="http://www.w3.org/1999/xlink" x="0px" y="0px"
	 width="100%" viewBox="0 0 2000 2000" enable-background="new 0 0 2000 2000" xml:space="preserve">
<path fill="#000000" opacity="1.000000" stroke="none" 
	d="
M1.000000,737.000000 
	C1.000000,491.333344 1.000000,246.166672 1.000000,1.000000 
	C667.666687,1.000000 1334.333374,1.000000 2001.000000,1.000000 
	C2001.000000,667.666687 2001.000000,1334.333374 2001.000000,2001.000000 
	C1334.333374,2001.000000 667.666687,2001.000000 1.000000,2001.000000 
	C1.000000,1579.833374 1.000000,1158.666626 1.000000,737.000000 
M188.013199,1571.525024 
	C191.071472,1575.911133 193.933899,1580.450317 197.222198,1584.656738 
	C210.887436,1602.137451 224.347565,1619.795044 238.523193,1636.855713 
	C252.279068,1653.411377 266.291199,1669.818726 281.135437,1685.390625 
	C303.877045,1709.247070 327.466858,1732.290771 352.875336,1753.372681 
	C366.605103,1764.764404 379.781647,1776.916138 394.179840,1787.388550 
	C419.760437,1805.994385 445.679596,1824.202026 472.218353,1841.401733 
	C493.397400,1855.127686 515.451660,1867.576050 537.602356,1879.705933 
	C553.798218,1888.575317 570.698547,1896.184082 587.440491,1904.022217 
	C600.762634,1910.259399 614.132263,1916.470703 627.810608,1921.855835 
	C659.960999,1934.513306 692.513977,1946.028687 725.801025,1955.448975 
	C758.072144,1964.581909 790.569214,1972.639648 823.690308,1978.002808 
	C845.055298,1981.462158 866.413879,1985.024170 887.863708,1987.874634 
	C902.648010,1989.839355 917.569092,1990.869385 932.456238,1991.937866 
	C945.788086,1992.894897 959.162354,1993.977905 972.508667,1993.868652 
	C1001.531067,1993.631348 1030.554565,1992.879639 1059.563232,1991.908325 
	C1072.858643,1991.463135 1086.151367,1990.303345 1099.389160,1988.926758 
	C1115.462402,1987.255371 1131.533569,1985.383667 1147.501343,1982.922363 
	C1166.434326,1980.004028 1185.429565,1977.123901 1204.086304,1972.863770 
	C1233.384766,1966.173584 1262.578857,1958.900513 1291.514771,1950.795044 
	C1310.293701,1945.534668 1328.786987,1938.998535 1346.957031,1931.881958 
	C1373.263794,1921.578491 1399.469849,1910.905518 1425.157471,1899.162354 
	C1457.899902,1884.193848 1489.640259,1867.133789 1520.086548,1847.879761 
	C1541.731812,1834.191772 1563.275391,1820.244019 1583.977173,1805.191895 
	C1604.157104,1790.519775 1623.474243,1774.615601 1642.672729,1758.653931 
	C1657.975586,1745.931152 1672.958740,1732.755005 1687.321655,1718.985107 
	C1712.650146,1694.701904 1736.977051,1669.420532 1759.260010,1642.251587 
	C1768.701904,1630.739258 1778.853516,1619.742432 1787.527832,1607.680664 
	C1805.997681,1581.998291 1824.375610,1556.201050 1841.527222,1529.635010 
	C1855.386230,1508.169189 1867.819580,1485.740601 1880.084717,1463.301758 
	C1889.338501,1446.372314 1897.555786,1428.859253 1905.798706,1411.400391 
	C1911.521484,1399.279785 1917.131226,1387.037231 1921.692993,1374.451050 
	C1932.468994,1344.719360 1943.020386,1314.890259 1952.802124,1284.820679 
	C1958.141357,1268.407715 1961.707520,1251.419189 1966.107300,1234.699219 
	C1973.675049,1205.939209 1979.126465,1176.773438 1983.047363,1147.304688 
	C1984.939453,1133.085327 1987.244995,1118.917358 1988.924316,1104.674438 
	C1990.288086,1093.106934 1991.213013,1081.476074 1991.941528,1069.848755 
	C1992.839844,1055.510498 1993.807495,1041.149658 1993.887573,1026.793701 
	C1994.001465,1006.370178 1993.611938,985.932861 1992.915283,965.519287 
	C1992.336426,948.560303 1991.219360,931.610596 1989.934204,914.687683 
	C1988.955322,901.797302 1987.613647,888.919495 1985.936035,876.101135 
	C1983.908691,860.609802 1981.750000,845.115173 1978.938477,829.751892 
	C1974.882812,807.590881 1971.325928,785.241455 1965.497192,763.525146 
	C1956.965454,731.738464 1946.901733,700.348755 1936.949585,668.961426 
	C1927.023193,637.655518 1913.930786,607.541687 1899.814453,577.954773 
	C1888.995361,555.278198 1877.448853,532.866272 1864.807617,511.162659 
	C1849.654541,485.146271 1833.873413,459.398590 1816.735107,434.663422 
	C1800.240234,410.856812 1782.180176,388.071167 1763.847534,365.621155 
	C1748.663452,347.026886 1732.539185,329.139618 1716.007568,311.721130 
	C1692.769409,287.236237 1668.223755,264.060272 1642.107666,242.607498 
	C1630.602661,233.156769 1619.576904,223.043259 1607.520630,214.359360 
	C1581.719360,195.775238 1555.815186,177.267609 1529.138916,159.985703 
	C1508.097900,146.354523 1486.065552,134.188782 1464.044556,122.157219 
	C1448.548706,113.690735 1432.420654,106.354836 1416.412476,98.860878 
	C1402.502197,92.348991 1388.615356,85.659775 1374.270996,80.230278 
	C1349.223877,70.749672 1323.950195,61.826744 1298.544800,53.349045 
	C1282.320801,47.935120 1265.871826,42.931137 1249.200317,39.180523 
	C1219.642212,32.530731 1189.886230,26.721186 1160.117065,21.065336 
	C1144.771484,18.149830 1129.259766,15.987848 1113.748535,14.098898 
	C1099.101929,12.315239 1084.377930,11.003948 1069.650513,10.089322 
	C1052.821411,9.044188 1035.947876,8.058032 1019.098877,8.140470 
	C993.410583,8.266157 967.723328,9.221993 942.043152,10.057494 
	C933.012634,10.351299 923.987244,11.153487 914.989685,12.032330 
	C899.356323,13.559326 883.714966,15.078831 868.135437,17.061697 
	C852.146057,19.096737 836.135498,21.194613 820.300354,24.153866 
	C801.202209,27.722885 782.139526,31.680111 763.316223,36.470085 
	C741.260864,42.082523 719.354309,48.366859 697.608704,55.089272 
	C664.569763,65.302887 632.218994,77.527100 600.757019,91.860291 
	C577.613220,102.403961 554.713379,113.579865 532.267334,125.530670 
	C510.554901,137.090912 489.112305,149.294357 468.351624,162.475937 
	C431.382019,185.949005 396.017120,211.756058 362.564362,240.061493 
	C347.367889,252.919693 332.352539,266.041840 317.945312,279.768799 
	C303.757446,293.286743 290.234467,307.525360 276.807709,321.812378 
	C265.081757,334.289612 253.717377,347.120209 242.525101,360.081238 
	C232.905167,371.221497 223.101181,382.297607 214.530106,394.229279 
	C196.073776,419.922028 177.699203,445.721405 160.545547,472.287109 
	C146.505249,494.031158 133.606232,516.588989 121.449043,539.449646 
	C110.123276,560.746887 99.809288,582.644653 90.215851,604.783264 
	C80.401787,627.431091 71.444008,650.492249 63.125214,673.735291 
	C52.126987,704.464844 42.519802,735.679077 35.763451,767.659424 
	C29.934118,795.251892 24.068062,822.854736 19.190022,850.623657 
	C15.916782,869.257080 14.086433,888.161499 12.089130,906.995422 
	C10.650592,920.560486 9.751424,934.196777 9.070665,947.824158 
	C8.409109,961.067383 8.035781,974.340515 8.070491,987.599121 
	C8.118731,1006.025940 8.611224,1024.452637 9.022137,1042.877075 
	C9.221281,1051.806152 9.613681,1060.732422 10.024202,1069.655151 
	C10.235775,1074.253540 10.552112,1078.854858 11.041755,1083.431274 
	C12.294329,1095.138550 13.639077,1106.836304 15.006417,1118.530884 
	C16.315422,1129.726685 17.351515,1140.969482 19.137280,1152.090576 
	C21.426378,1166.346191 24.003651,1180.575073 27.069118,1194.682373 
	C32.222462,1218.398071 36.896633,1242.283203 43.541817,1265.592529 
	C51.367905,1293.044434 60.249546,1320.267334 70.203667,1347.020142 
	C80.163200,1373.787598 91.048523,1400.309814 103.300018,1426.097656 
	C115.740891,1452.283936 129.628113,1477.859985 144.214020,1502.928101 
	C157.726471,1526.151123 172.999557,1548.349731 188.013199,1571.525024 
z"/>
<path fill="#EDCC6E" opacity="1.000000" stroke="none" 
	d="
M187.755280,1571.262207 
	C172.999557,1548.349731 157.726471,1526.151123 144.214020,1502.928101 
	C129.628113,1477.859985 115.740891,1452.283936 103.300018,1426.097656 
	C91.048523,1400.309814 80.163200,1373.787598 70.203667,1347.020142 
	C60.249546,1320.267334 51.367905,1293.044434 43.541817,1265.592529 
	C36.896633,1242.283203 32.222462,1218.398071 27.069118,1194.682373 
	C24.003651,1180.575073 21.426378,1166.346191 19.137280,1152.090576 
	C17.351515,1140.969482 16.315422,1129.726685 15.006417,1118.530884 
	C13.639077,1106.836304 12.294329,1095.138550 11.041755,1083.431274 
	C10.552112,1078.854858 10.235775,1074.253540 10.024202,1069.655151 
	C9.613681,1060.732422 9.221281,1051.806152 9.022137,1042.877075 
	C8.611224,1024.452637 8.118731,1006.025940 8.070491,987.599121 
	C8.035781,974.340515 8.409109,961.067383 9.070665,947.824158 
	C9.751424,934.196777 10.650592,920.560486 12.089130,906.995422 
	C14.086433,888.161499 15.916782,869.257080 19.190022,850.623657 
	C24.068062,822.854736 29.934118,795.251892 35.763451,767.659424 
	C42.519802,735.679077 52.126987,704.464844 63.125214,673.735291 
	C71.444008,650.492249 80.401787,627.431091 90.215851,604.783264 
	C99.809288,582.644653 110.123276,560.746887 121.449043,539.449646 
	C133.606232,516.588989 146.505249,494.031158 160.545547,472.287109 
	C177.699203,445.721405 196.073776,419.922028 214.530106,394.229279 
	C223.101181,382.297607 232.905167,371.221497 242.525101,360.081238 
	C253.717377,347.120209 265.081757,334.289612 276.807709,321.812378 
	C290.234467,307.525360 303.757446,293.286743 317.945312,279.768799 
	C332.352539,266.041840 347.367889,252.919693 362.564362,240.061493 
	C396.017120,211.756058 431.382019,185.949005 468.351624,162.475937 
	C489.112305,149.294357 510.554901,137.090912 532.267334,125.530670 
	C554.713379,113.579865 577.613220,102.403961 600.757019,91.860291 
	C632.218994,77.527100 664.569763,65.302887 697.608704,55.089272 
	C719.354309,48.366859 741.260864,42.082523 763.316223,36.470085 
	C782.139526,31.680111 801.202209,27.722885 820.300354,24.153866 
	C836.135498,21.194613 852.146057,19.096737 868.135437,17.061697 
	C883.714966,15.078831 899.356323,13.559326 914.989685,12.032330 
	C923.987244,11.153487 933.012634,10.351299 942.043152,10.057494 
	C967.723328,9.221993 993.410583,8.266157 1019.098877,8.140470 
	C1035.947876,8.058032 1052.821411,9.044188 1069.650513,10.089322 
	C1084.377930,11.003948 1099.101929,12.315239 1113.748535,14.098898 
	C1129.259766,15.987848 1144.771484,18.149830 1160.117065,21.065336 
	C1189.886230,26.721186 1219.642212,32.530731 1249.200317,39.180523 
	C1265.871826,42.931137 1282.320801,47.935120 1298.544800,53.349045 
	C1323.950195,61.826744 1349.223877,70.749672 1374.270996,80.230278 
	C1388.615356,85.659775 1402.502197,92.348991 1416.412476,98.860878 
	C1432.420654,106.354836 1448.548706,113.690735 1464.044556,122.157219 
	C1486.065552,134.188782 1508.097900,146.354523 1529.138916,159.985703 
	C1555.815186,177.267609 1581.719360,195.775238 1607.520630,214.359360 
	C1619.576904,223.043259 1630.602661,233.156769 1642.107666,242.607498 
	C1668.223755,264.060272 1692.769409,287.236237 1716.007568,311.721130 
	C1732.539185,329.139618 1748.663452,347.026886 1763.847534,365.621155 
	C1782.180176,388.071167 1800.240234,410.856812 1816.735107,434.663422 
	C1833.873413,459.398590 1849.654541,485.146271 1864.807617,511.162659 
	C1877.448853,532.866272 1888.995361,555.278198 1899.814453,577.954773 
	C1913.930786,607.541687 1927.023193,637.655518 1936.949585,668.961426 
	C1946.901733,700.348755 1956.965454,731.738464 1965.497192,763.525146 
	C1971.325928,785.241455 1974.882812,807.590881 1978.938477,829.751892 
	C1981.750000,845.115173 1983.908691,860.609802 1985.936035,876.101135 
	C1987.613647,888.919495 1988.955322,901.797302 1989.934204,914.687683 
	C1991.219360,931.610596 1992.336426,948.560303 1992.915283,965.519287 
	C1993.611938,985.932861 1994.001465,1006.370178 1993.887573,1026.793701 
	C1993.807495,1041.149658 1992.839844,1055.510498 1991.941528,1069.848755 
	C1991.213013,1081.476074 1990.288086,1093.106934 1988.924316,1104.674438 
	C1987.244995,1118.917358 1984.939453,1133.085327 1983.047363,1147.304688 
	C1979.126465,1176.773438 1973.675049,1205.939209 1966.107300,1234.699219 
	C1961.707520,1251.419189 1958.141357,1268.407715 1952.802124,1284.820679 
	C1943.020386,1314.890259 1932.468994,1344.719360 1921.692993,1374.451050 
	C1917.131226,1387.037231 1911.521484,1399.279785 1905.798706,1411.400391 
	C1897.555786,1428.859253 1889.338501,1446.372314 1880.084717,1463.301758 
	C1867.819580,1485.740601 1855.386230,1508.169189 1841.527222,1529.635010 
	C1824.375610,1556.201050 1805.997681,1581.998291 1787.527832,1607.680664 
	C1778.853516,1619.742432 1768.701904,1630.739258 1759.260010,1642.251587 
	C1736.977051,1669.420532 1712.650146,1694.701904 1687.321655,1718.985107 
	C1672.958740,1732.755005 1657.975586,1745.931152 1642.672729,1758.653931 
	C1623.474243,1774.615601 1604.157104,1790.519775 1583.977173,1805.191895 
	C1563.275391,1820.244019 1541.731812,1834.191772 1520.086548,1847.879761 
	C1489.640259,1867.133789 1457.899902,1884.193848 1425.157471,1899.162354 
	C1399.469849,1910.905518 1373.263794,1921.578491 1346.957031,1931.881958 
	C1328.786987,1938.998535 1310.293701,1945.534668 1291.514771,1950.795044 
	C1262.578857,1958.900513 1233.384766,1966.173584 1204.086304,1972.863770 
	C1185.429565,1977.123901 1166.434326,1980.004028 1147.501343,1982.922363 
	C1131.533569,1985.383667 1115.462402,1987.255371 1099.389160,1988.926758 
	C1086.151367,1990.303345 1072.858643,1991.463135 1059.563232,1991.908325 
	C1030.554565,1992.879639 1001.531067,1993.631348 972.508667,1993.868652 
	C959.162354,1993.977905 945.788086,1992.894897 932.456238,1991.937866 
	C917.569092,1990.869385 902.648010,1989.839355 887.863708,1987.874634 
	C866.413879,1985.024170 845.055298,1981.462158 823.690308,1978.002808 
	C790.569214,1972.639648 758.072144,1964.581909 725.801025,1955.448975 
	C692.513977,1946.028687 659.960999,1934.513306 627.810608,1921.855835 
	C614.132263,1916.470703 600.762634,1910.259399 587.440491,1904.022217 
	C570.698547,1896.184082 553.798218,1888.575317 537.602356,1879.705933 
	C515.451660,1867.576050 493.397400,1855.127686 472.218353,1841.401733 
	C445.679596,1824.202026 419.760437,1805.994385 394.179840,1787.388550 
	C379.781647,1776.916138 366.605103,1764.764404 352.875336,1753.372681 
	C327.466858,1732.290771 303.877045,1709.247070 281.135437,1685.390625 
	C266.291199,1669.818726 252.279068,1653.411377 238.523193,1636.855713 
	C224.347565,1619.795044 210.887436,1602.137451 197.222198,1584.656738 
	C193.933899,1580.450317 191.071472,1575.911133 187.755280,1571.262207 
M1944.388672,870.139038 
	C1941.195190,850.946899 1938.558960,831.642273 1934.712646,812.581909 
	C1917.313354,726.361328 1888.598022,644.073792 1848.289062,565.838562 
	C1798.636475,469.468323 1734.417480,384.022400 1655.779419,309.489899 
	C1584.590332,242.017471 1504.846680,186.773087 1416.559937,143.915833 
	C1296.649414,85.707504 1169.988159,54.385410 1036.914551,49.284115 
	C967.831482,46.635857 899.172668,51.429913 831.059387,63.781799 
	C743.300903,79.696213 659.419128,107.249069 579.507690,146.808060 
	C474.692902,198.695053 382.531403,267.608887 302.920929,353.266632 
	C237.055038,424.135712 183.164566,503.218719 141.429733,590.499390 
	C84.840446,708.845337 54.343140,833.726379 49.272305,964.729370 
	C46.630447,1032.980469 51.156029,1100.860840 63.207859,1168.143677 
	C80.003654,1261.911011 109.969116,1351.252686 153.631180,1435.975708 
	C200.778244,1527.461548 261.106995,1609.187378 334.605194,1681.223511 
	C410.779022,1755.881714 496.998901,1816.169312 593.342102,1861.893066 
	C711.081848,1917.771362 835.233521,1947.817505 965.381958,1952.724609 
	C1030.436768,1955.177490 1095.153564,1951.056396 1159.431396,1940.220703 
	C1251.907104,1924.631348 1340.172241,1896.147339 1424.113525,1854.392700 
	C1528.053711,1802.690063 1619.565430,1734.257568 1698.593262,1649.218018 
	C1781.674927,1559.815552 1845.378418,1458.221313 1889.520386,1344.420654 
	C1927.891113,1245.498535 1948.735352,1142.903320 1952.729858,1036.948730 
	C1954.822144,981.442505 1952.237305,926.078735 1944.388672,870.139038 
z"/>
<path fill="#000000" opacity="1.000000" stroke="none" 
	d="
M1944.492310,870.572632 
	C1952.237305,926.078735 1954.822144,981.442505 1952.729858,1036.948730 
	C1948.735352,1142.903320 1927.891113,1245.498535 1889.520386,1344.420654 
	C1845.378418,1458.221313 1781.674927,1559.815552 1698.593262,1649.218018 
	C1619.565430,1734.257568 1528.053711,1802.690063 1424.113525,1854.392700 
	C1340.172241,1896.147339 1251.907104,1924.631348 1159.431396,1940.220703 
	C1095.153564,1951.056396 1030.436768,1955.177490 965.381958,1952.724609 
	C835.233521,1947.817505 711.081848,1917.771362 593.342102,1861.893066 
	C496.998901,1816.169312 410.779022,1755.881714 334.605194,1681.223511 
	C261.106995,1609.187378 200.778244,1527.461548 153.631180,1435.975708 
	C109.969116,1351.252686 80.003654,1261.911011 63.207859,1168.143677 
	C51.156029,1100.860840 46.630447,1032.980469 49.272305,964.729370 
	C54.343140,833.726379 84.840446,708.845337 141.429733,590.499390 
	C183.164566,503.218719 237.055038,424.135712 302.920929,353.266632 
	C382.531403,267.608887 474.692902,198.695053 579.507690,146.808060 
	C659.419128,107.249069 743.300903,79.696213 831.059387,63.781799 
	C899.172668,51.429913 967.831482,46.635857 1036.914551,49.284115 
	C1169.988159,54.385410 1296.649414,85.707504 1416.559937,143.915833 
	C1504.846680,186.773087 1584.590332,242.017471 1655.779419,309.489899 
	C1734.417480,384.022400 1798.636475,469.468323 1848.289062,565.838562 
	C1888.598022,644.073792 1917.313354,726.361328 1934.712646,812.581909 
	C1938.558960,831.642273 1941.195190,850.946899 1944.492310,870.572632 
M1187.877563,219.846695 
	C1138.724365,261.627838 1107.326050,314.326080 1090.498413,376.483337 
	C1108.241089,376.483337 1124.984253,376.483337 1141.848755,376.483337 
	C1147.565796,338.716187 1156.794189,302.161957 1170.122070,266.719055 
	C1176.022217,251.028763 1182.794067,235.666260 1189.654541,219.944946 
	C1189.679321,219.530518 1189.704102,219.116089 1189.728760,218.701691 
	C1189.302368,218.971649 1188.875854,219.241608 1187.877563,219.846695 
M1027.133911,1782.175781 
	C1076.054565,1739.817627 1108.850220,1687.463501 1125.553467,1624.475830 
	C1108.061523,1624.475830 1091.341553,1624.475830 1074.667236,1624.475830 
	C1074.409424,1625.236084 1074.185913,1625.687744 1074.104858,1626.163574 
	C1068.399536,1659.657104 1060.356567,1692.586426 1048.766479,1724.522949 
	C1041.750366,1743.856445 1033.509155,1762.745361 1025.346680,1782.047485 
	C1025.326416,1782.454834 1025.306152,1782.862183 1025.285767,1783.269409 
	C1025.718750,1783.028687 1026.151611,1782.787842 1027.133911,1782.175781 
M977.029358,215.901047 
	C925.251892,258.483185 892.430298,312.906250 875.138062,377.604797 
	C893.467773,377.604797 910.903625,377.604797 928.530334,377.604797 
	C928.729370,376.632019 928.923401,375.852875 929.045410,375.062592 
	C935.050232,336.164764 944.890991,298.262329 959.113098,261.563416 
	C965.043701,246.259918 971.770630,231.265015 978.646973,215.923477 
	C978.630127,215.663498 978.613281,215.403503 978.596436,215.143494 
	C978.287354,215.324936 977.978271,215.506378 977.029358,215.901047 
M809.969543,1786.098877 
	C861.517334,1742.941162 895.700562,1688.894165 912.892212,1623.163452 
	C895.269470,1623.163452 878.640137,1623.090332 862.015564,1623.337524 
	C860.972168,1623.353027 859.308533,1625.753784 859.038513,1627.244873 
	C852.096802,1665.581055 842.441162,1703.177002 828.203491,1739.486450 
	C822.089661,1755.078247 815.331299,1770.417358 808.353882,1786.076050 
	C808.370422,1786.335938 808.386963,1786.595825 808.403503,1786.855713 
	C808.712097,1786.674072 809.020691,1786.492554 809.969543,1786.098877 
M1413.239746,1067.227417 
	C1434.733521,1081.109375 1454.294678,1097.306396 1471.107178,1116.620361 
	C1488.647949,1136.771240 1502.216797,1159.409790 1511.995483,1184.295044 
	C1519.453247,1203.273804 1525.255615,1222.809570 1527.723633,1243.003174 
	C1529.586670,1258.246704 1530.251587,1273.781860 1529.734497,1289.129517 
	C1529.227539,1304.178467 1527.551025,1319.353394 1524.605713,1334.117676 
	C1519.696045,1358.730103 1510.240601,1381.843262 1497.651245,1403.600220 
	C1482.201904,1430.299927 1463.499756,1454.405151 1439.283813,1473.715332 
	C1392.242920,1511.225952 1338.391968,1530.050659 1278.282715,1530.102539 
	C1087.293579,1530.267334 896.304138,1530.146240 705.314819,1530.185791 
	C681.759338,1530.190674 658.195129,1530.192871 634.819153,1526.963745 
	C610.880310,1523.656860 586.867126,1520.588501 563.150452,1516.039551 
	C522.809021,1508.301880 484.237793,1494.812378 447.040649,1477.401855 
	C443.655273,1475.817383 440.231750,1474.314331 436.825989,1472.773438 
	C437.429108,1474.931274 438.441803,1476.437012 439.704987,1477.690552 
	C450.331696,1488.235596 460.397278,1499.449463 471.778046,1509.111938 
	C504.901306,1537.234619 541.516113,1559.583130 583.239929,1572.714844 
	C607.983521,1580.502563 633.486023,1584.396362 659.356750,1584.875977 
	C688.506287,1585.416382 717.673462,1585.000366 746.833008,1585.000366 
	C923.489807,1585.000366 1100.146729,1585.069824 1276.803223,1584.877441 
	C1291.996948,1584.860962 1307.313721,1584.033569 1322.359009,1581.998535 
	C1375.325806,1574.834106 1423.177734,1554.815308 1465.394531,1522.023682 
	C1477.027466,1512.987915 1487.727905,1502.631592 1498.112427,1492.144897 
	C1506.993164,1483.176514 1515.121826,1473.404663 1523.031006,1463.545044 
	C1539.907227,1442.507446 1552.025879,1418.709839 1562.597290,1394.019653 
	C1578.010376,1358.021729 1585.333374,1320.388062 1585.943970,1281.362183 
	C1586.023560,1276.270752 1585.511719,1271.148193 1584.967651,1266.072998 
	C1583.432495,1251.754395 1582.184082,1237.384521 1580.010742,1223.159058 
	C1575.793091,1195.552246 1566.715332,1169.371704 1554.217285,1144.508667 
	C1541.032715,1118.280396 1524.885742,1093.921997 1504.253174,1072.844727 
	C1493.987671,1062.358154 1483.788452,1051.682495 1472.554932,1042.294067 
	C1450.853027,1024.156616 1426.308838,1010.441040 1400.467041,999.036194 
	C1364.537476,983.179260 1326.687500,975.791321 1287.675171,974.109924 
	C1270.885376,973.386353 1254.042969,973.832458 1237.224487,973.841492 
	C1183.896118,973.870117 1130.567749,973.986389 1077.239380,973.987122 
	C1025.577393,973.987793 973.915466,973.860779 922.253540,973.838196 
	C857.923828,973.810059 793.593750,973.929993 729.264587,973.745544 
	C716.919189,973.710144 704.499573,973.211243 692.254517,971.749756 
	C679.318970,970.205872 666.221741,968.374878 653.772400,964.708801 
	C616.954407,953.866943 583.745361,935.880371 555.012085,910.321777 
	C540.579407,897.483582 527.540771,883.173157 516.692322,867.057190 
	C500.105255,842.415955 486.889709,816.155457 480.115295,787.088135 
	C477.101196,774.155212 475.019928,760.973694 473.157898,747.814148 
	C471.870239,738.714111 471.161713,729.458679 471.156219,720.272156 
	C471.151093,711.760254 472.213196,703.223389 473.189575,694.741699 
	C474.268768,685.366699 474.984894,675.841309 477.270691,666.735718 
	C482.633911,645.371338 490.043335,624.726990 500.835571,605.348083 
	C511.805176,585.650635 524.455872,567.265320 539.961975,550.844604 
	C577.139526,511.474121 622.284302,486.694885 675.741577,478.133331 
	C694.311707,475.159210 713.325439,473.728546 732.140076,473.697296 
	C921.462341,473.382507 1110.785400,473.583221 1300.107910,473.405731 
	C1323.331543,473.383942 1346.454590,473.733551 1369.628540,475.752625 
	C1395.289062,477.988373 1420.600952,481.968567 1445.667847,487.595764 
	C1484.753784,496.370026 1522.247070,509.863190 1558.582031,526.652649 
	C1560.359619,527.474060 1562.211060,528.136292 1564.028198,528.872559 
	C1564.007324,526.933044 1563.543701,525.883789 1562.802246,525.096436 
	C1555.726318,517.584290 1548.946045,509.751953 1541.439453,502.693695 
	C1480.969116,445.834747 1409.033203,417.275818 1326.141113,416.561157 
	C1274.486572,416.115784 1222.827026,416.167786 1171.169678,416.185699 
	C1055.182617,416.225952 939.195679,416.390015 823.208679,416.490479 
	C791.877075,416.517609 760.542114,416.226440 729.215454,416.620026 
	C714.831421,416.800751 700.377014,417.572632 686.105835,419.315582 
	C651.309143,423.565247 618.291199,434.097717 586.874146,449.587494 
	C543.158325,471.140991 506.926941,501.649536 477.770447,540.708679 
	C463.346283,560.031738 451.240417,580.619263 441.488770,602.668213 
	C433.412476,620.929199 427.391846,639.866882 423.419861,659.343201 
	C420.469330,673.810852 418.017273,688.547852 417.297150,703.260498 
	C416.383789,721.920654 415.651031,740.738342 418.981262,759.347290 
	C421.171570,771.586304 422.598358,784.013794 425.623108,796.040955 
	C432.142578,821.963867 441.754395,846.754150 454.943787,870.113770 
	C467.421173,892.212341 481.795013,913.037476 499.248871,931.368774 
	C511.058960,943.772583 524.158447,955.113525 537.613831,965.750122 
	C562.579529,985.485962 590.161499,1000.763428 620.369324,1011.192810 
	C655.411926,1023.291443 691.448059,1028.868408 728.466187,1028.858154 
	C903.289734,1028.809692 1078.113281,1028.811646 1252.936890,1028.886597 
	C1266.052124,1028.892212 1279.222534,1028.991211 1292.267700,1030.159790 
	C1307.599731,1031.533203 1323.033325,1033.149780 1338.046753,1036.398926 
	C1364.584106,1042.142090 1389.514282,1052.398193 1413.239746,1067.227417 
M865.999817,1253.500000 
	C865.999817,1332.932007 865.999817,1412.364014 865.999817,1491.790039 
	C884.781860,1491.790039 903.158691,1491.790039 921.610474,1491.790039 
	C921.610474,1350.007080 921.610474,1208.602173 921.610474,1067.194580 
	C902.827576,1067.194580 884.436768,1067.194580 865.999817,1067.194580 
	C865.999817,1129.204590 865.999817,1190.852295 865.999817,1253.500000 
M1079.832642,726.499939 
	C1079.832642,796.226379 1079.832642,865.952820 1079.832642,935.642578 
	C1098.811279,935.642578 1117.190796,935.642578 1135.395020,935.642578 
	C1135.395020,794.091614 1135.395020,652.898010 1135.395020,511.441345 
	C1116.728271,511.441345 1098.502075,511.441345 1079.832642,511.441345 
	C1079.832642,582.977966 1079.832642,654.238892 1079.832642,726.499939 
M921.835022,918.758850 
	C921.723145,914.932983 921.514038,911.107117 921.513489,907.281250 
	C921.496582,777.505859 921.499451,647.730469 921.499451,517.955078 
	C921.499451,515.847717 921.499451,513.740295 921.499451,511.479309 
	C902.628235,511.479309 884.403442,511.479309 866.185181,511.479309 
	C866.185181,653.119141 866.185181,794.444275 866.185181,935.588684 
	C884.916443,935.588684 903.292236,935.588684 921.835205,935.588684 
	C921.835205,930.022766 921.835205,924.867310 921.835022,918.758850 
M1135.000000,1358.500000 
	C1135.000000,1261.732910 1135.000000,1164.965820 1135.000000,1068.194092 
	C1116.495728,1068.194092 1098.771606,1068.194092 1081.116333,1068.194092 
	C1081.116333,1209.301392 1081.116333,1350.047119 1081.116333,1490.790894 
	C1099.113037,1490.790894 1116.823242,1490.790894 1135.000000,1490.790894 
	C1135.000000,1446.776855 1135.000000,1403.138428 1135.000000,1358.500000 
M1564.094482,529.587524 
	C1564.641602,529.444641 1565.188721,529.301697 1565.735840,529.158752 
	C1565.114014,528.516541 1564.492188,527.874329 1563.870361,527.232178 
	C1563.727173,527.770813 1563.583984,528.309509 1564.094482,529.587524 
M435.491028,1472.462769 
	C435.491028,1472.462769 435.731995,1472.596313 435.731995,1472.596313 
	C435.731995,1472.596313 435.696869,1472.347412 435.491028,1472.462769 
z"/>
<path fill="#EDCD6E" opacity="1.000000" stroke="none" 
	d="
M1412.893555,1067.102905 
	C1389.514282,1052.398193 1364.584106,1042.142090 1338.046753,1036.398926 
	C1323.033325,1033.149780 1307.599731,1031.533203 1292.267700,1030.159790 
	C1279.222534,1028.991211 1266.052124,1028.892212 1252.936890,1028.886597 
	C1078.113281,1028.811646 903.289734,1028.809692 728.466187,1028.858154 
	C691.448059,1028.868408 655.411926,1023.291443 620.369324,1011.192810 
	C590.161499,1000.763428 562.579529,985.485962 537.613831,965.750122 
	C524.158447,955.113525 511.058960,943.772583 499.248871,931.368774 
	C481.795013,913.037476 467.421173,892.212341 454.943787,870.113770 
	C441.754395,846.754150 432.142578,821.963867 425.623108,796.040955 
	C422.598358,784.013794 421.171570,771.586304 418.981262,759.347290 
	C415.651031,740.738342 416.383789,721.920654 417.297150,703.260498 
	C418.017273,688.547852 420.469330,673.810852 423.419861,659.343201 
	C427.391846,639.866882 433.412476,620.929199 441.488770,602.668213 
	C451.240417,580.619263 463.346283,560.031738 477.770447,540.708679 
	C506.926941,501.649536 543.158325,471.140991 586.874146,449.587494 
	C618.291199,434.097717 651.309143,423.565247 686.105835,419.315582 
	C700.377014,417.572632 714.831421,416.800751 729.215454,416.620026 
	C760.542114,416.226440 791.877075,416.517609 823.208679,416.490479 
	C939.195679,416.390015 1055.182617,416.225952 1171.169678,416.185699 
	C1222.827026,416.167786 1274.486572,416.115784 1326.141113,416.561157 
	C1409.033203,417.275818 1480.969116,445.834747 1541.439453,502.693695 
	C1548.946045,509.751953 1555.726318,517.584290 1562.802246,525.096436 
	C1563.543701,525.883789 1564.007324,526.933044 1564.028198,528.872559 
	C1562.211060,528.136292 1560.359619,527.474060 1558.582031,526.652649 
	C1522.247070,509.863190 1484.753784,496.370026 1445.667847,487.595764 
	C1420.600952,481.968567 1395.289062,477.988373 1369.628540,475.752625 
	C1346.454590,473.733551 1323.331543,473.383942 1300.107910,473.405731 
	C1110.785400,473.583221 921.462341,473.382507 732.140076,473.697296 
	C713.325439,473.728546 694.311707,475.159210 675.741577,478.133331 
	C622.284302,486.694885 577.139526,511.474121 539.961975,550.844604 
	C524.455872,567.265320 511.805176,585.650635 500.835571,605.348083 
	C490.043335,624.726990 482.633911,645.371338 477.270691,666.735718 
	C474.984894,675.841309 474.268768,685.366699 473.189575,694.741699 
	C472.213196,703.223389 471.151093,711.760254 471.156219,720.272156 
	C471.161713,729.458679 471.870239,738.714111 473.157898,747.814148 
	C475.019928,760.973694 477.101196,774.155212 480.115295,787.088135 
	C486.889709,816.155457 500.105255,842.415955 516.692322,867.057190 
	C527.540771,883.173157 540.579407,897.483582 555.012085,910.321777 
	C583.745361,935.880371 616.954407,953.866943 653.772400,964.708801 
	C666.221741,968.374878 679.318970,970.205872 692.254517,971.749756 
	C704.499573,973.211243 716.919189,973.710144 729.264587,973.745544 
	C793.593750,973.929993 857.923828,973.810059 922.253540,973.838196 
	C973.915466,973.860779 1025.577393,973.987793 1077.239380,973.987122 
	C1130.567749,973.986389 1183.896118,973.870117 1237.224487,973.841492 
	C1254.042969,973.832458 1270.885376,973.386353 1287.675171,974.109924 
	C1326.687500,975.791321 1364.537476,983.179260 1400.467041,999.036194 
	C1426.308838,1010.441040 1450.853027,1024.156616 1472.554932,1042.294067 
	C1483.788452,1051.682495 1493.987671,1062.358154 1504.253174,1072.844727 
	C1524.885742,1093.921997 1541.032715,1118.280396 1554.217285,1144.508667 
	C1566.715332,1169.371704 1575.793091,1195.552246 1580.010742,1223.159058 
	C1582.184082,1237.384521 1583.432495,1251.754395 1584.967651,1266.072998 
	C1585.511719,1271.148193 1586.023560,1276.270752 1585.943970,1281.362183 
	C1585.333374,1320.388062 1578.010376,1358.021729 1562.597290,1394.019653 
	C1552.025879,1418.709839 1539.907227,1442.507446 1523.031006,1463.545044 
	C1515.121826,1473.404663 1506.993164,1483.176514 1498.112427,1492.144897 
	C1487.727905,1502.631592 1477.027466,1512.987915 1465.394531,1522.023682 
	C1423.177734,1554.815308 1375.325806,1574.834106 1322.359009,1581.998535 
	C1307.313721,1584.033569 1291.996948,1584.860962 1276.803223,1584.877441 
	C1100.146729,1585.069824 923.489807,1585.000366 746.833008,1585.000366 
	C717.673462,1585.000366 688.506287,1585.416382 659.356750,1584.875977 
	C633.486023,1584.396362 607.983521,1580.502563 583.239929,1572.714844 
	C541.516113,1559.583130 504.901306,1537.234619 471.778046,1509.111938 
	C460.397278,1499.449463 450.331696,1488.235596 439.704987,1477.690552 
	C438.441803,1476.437012 437.429108,1474.931274 436.825989,1472.773438 
	C440.231750,1474.314331 443.655273,1475.817383 447.040649,1477.401855 
	C484.237793,1494.812378 522.809021,1508.301880 563.150452,1516.039551 
	C586.867126,1520.588501 610.880310,1523.656860 634.819153,1526.963745 
	C658.195129,1530.192871 681.759338,1530.190674 705.314819,1530.185791 
	C896.304138,1530.146240 1087.293579,1530.267334 1278.282715,1530.102539 
	C1338.391968,1530.050659 1392.242920,1511.225952 1439.283813,1473.715332 
	C1463.499756,1454.405151 1482.201904,1430.299927 1497.651245,1403.600220 
	C1510.240601,1381.843262 1519.696045,1358.730103 1524.605713,1334.117676 
	C1527.551025,1319.353394 1529.227539,1304.178467 1529.734497,1289.129517 
	C1530.251587,1273.781860 1529.586670,1258.246704 1527.723633,1243.003174 
	C1525.255615,1222.809570 1519.453247,1203.273804 1511.995483,1184.295044 
	C1502.216797,1159.409790 1488.647949,1136.771240 1471.107178,1116.620361 
	C1454.294678,1097.306396 1434.733521,1081.109375 1412.893555,1067.102905 
z"/>
<path fill="#EECD6E" opacity="1.000000" stroke="none" 
	d="
M865.999817,1253.000000 
	C865.999817,1190.852295 865.999817,1129.204590 865.999817,1067.194580 
	C884.436768,1067.194580 902.827576,1067.194580 921.610474,1067.194580 
	C921.610474,1208.602173 921.610474,1350.007080 921.610474,1491.790039 
	C903.158691,1491.790039 884.781860,1491.790039 865.999817,1491.790039 
	C865.999817,1412.364014 865.999817,1332.932007 865.999817,1253.000000 
z"/>
<path fill="#EECD6E" opacity="1.000000" stroke="none" 
	d="
M1079.832642,725.999878 
	C1079.832642,654.238892 1079.832642,582.977966 1079.832642,511.441345 
	C1098.502075,511.441345 1116.728271,511.441345 1135.395020,511.441345 
	C1135.395020,652.898010 1135.395020,794.091614 1135.395020,935.642578 
	C1117.190796,935.642578 1098.811279,935.642578 1079.832642,935.642578 
	C1079.832642,865.952820 1079.832642,796.226379 1079.832642,725.999878 
z"/>
<path fill="#EECD6E" opacity="1.000000" stroke="none" 
	d="
M921.835083,919.235352 
	C921.835205,924.867310 921.835205,930.022766 921.835205,935.588684 
	C903.292236,935.588684 884.916443,935.588684 866.185181,935.588684 
	C866.185181,794.444275 866.185181,653.119141 866.185181,511.479309 
	C884.403442,511.479309 902.628235,511.479309 921.499451,511.479309 
	C921.499451,513.740295 921.499451,515.847717 921.499451,517.955078 
	C921.499451,647.730469 921.496582,777.505859 921.513489,907.281250 
	C921.514038,911.107117 921.723145,914.932983 921.835083,919.235352 
z"/>
<path fill="#EECD6E" opacity="1.000000" stroke="none" 
	d="
M1135.000000,1359.000000 
	C1135.000000,1403.138428 1135.000000,1446.776855 1135.000000,1490.790894 
	C1116.823242,1490.790894 1099.113037,1490.790894 1081.116333,1490.790894 
	C1081.116333,1350.047119 1081.116333,1209.301392 1081.116333,1068.194092 
	C1098.771606,1068.194092 1116.495728,1068.194092 1135.000000,1068.194092 
	C1135.000000,1164.965820 1135.000000,1261.732910 1135.000000,1359.000000 
z"/>
<path fill="#ECCB6D" opacity="1.000000" stroke="none" 
	d="
M808.865845,1785.871216 
	C815.331299,1770.417358 822.089661,1755.078247 828.203491,1739.486450 
	C842.441162,1703.177002 852.096802,1665.581055 859.038513,1627.244873 
	C859.308533,1625.753784 860.972168,1623.353027 862.015564,1623.337524 
	C878.640137,1623.090332 895.269470,1623.163452 912.892212,1623.163452 
	C895.700562,1688.894165 861.517334,1742.941162 809.533081,1786.095459 
	C809.096680,1786.092041 808.865784,1785.871216 808.865845,1785.871216 
z"/>
<path fill="#ECCB6D" opacity="1.000000" stroke="none" 
	d="
M978.135498,216.129807 
	C971.770630,231.265015 965.043701,246.259918 959.113098,261.563416 
	C944.890991,298.262329 935.050232,336.164764 929.045410,375.062592 
	C928.923401,375.852875 928.729370,376.632019 928.530334,377.604797 
	C910.903625,377.604797 893.467773,377.604797 875.138062,377.604797 
	C892.430298,312.906250 925.251892,258.483185 977.466187,215.904541 
	C977.903076,215.908035 978.135498,216.129807 978.135498,216.129807 
z"/>
<path fill="#ECCB6D" opacity="1.000000" stroke="none" 
	d="
M1025.818359,1781.834106 
	C1033.509155,1762.745361 1041.750366,1743.856445 1048.766479,1724.522949 
	C1060.356567,1692.586426 1068.399536,1659.657104 1074.104858,1626.163574 
	C1074.185913,1625.687744 1074.409424,1625.236084 1074.667236,1624.475830 
	C1091.341553,1624.475830 1108.061523,1624.475830 1125.553467,1624.475830 
	C1108.850220,1687.463501 1076.054565,1739.817627 1026.668457,1782.182373 
	C1026.074707,1782.070801 1025.946533,1781.952393 1025.818359,1781.834106 
z"/>
<path fill="#ECCB6D" opacity="1.000000" stroke="none" 
	d="
M1189.170166,220.154968 
	C1182.794067,235.666260 1176.022217,251.028763 1170.122070,266.719055 
	C1156.794189,302.161957 1147.565796,338.716187 1141.848755,376.483337 
	C1124.984253,376.483337 1108.241089,376.483337 1090.498413,376.483337 
	C1107.326050,314.326080 1138.724365,261.627838 1188.343140,219.840607 
	C1188.808716,219.834503 1189.170288,220.154984 1189.170166,220.154968 
z"/>
<path fill="#EDCC6E" opacity="1.000000" stroke="none" 
	d="
M1563.767578,529.217834 
	C1563.583984,528.309509 1563.727173,527.770813 1563.870361,527.232178 
	C1564.492188,527.874329 1565.114014,528.516541 1565.735840,529.158813 
	C1565.188721,529.301697 1564.641602,529.444641 1563.767578,529.217834 
z"/>
<path fill="#ECCB6D" opacity="1.000000" stroke="none" 
	d="
M1188.629028,219.673035 
	C1188.875854,219.241608 1189.302368,218.971649 1189.728760,218.701660 
	C1189.704102,219.116089 1189.679321,219.530518 1189.412354,220.049957 
	C1189.170288,220.154984 1188.808716,219.834503 1188.629028,219.673035 
z"/>
<path fill="#ECCB6D" opacity="1.000000" stroke="none" 
	d="
M1026.393677,1782.368164 
	C1026.151611,1782.787842 1025.718750,1783.028687 1025.285889,1783.269531 
	C1025.306152,1782.862183 1025.326416,1782.454834 1025.582520,1781.940796 
	C1025.946533,1781.952393 1026.074707,1782.070801 1026.393677,1782.368164 
z"/>
<path fill="#ECCB6D" opacity="1.000000" stroke="none" 
	d="
M977.786133,215.797928 
	C977.978271,215.506378 978.287354,215.324936 978.596436,215.143494 
	C978.613281,215.403503 978.630127,215.663498 978.391235,216.026642 
	C978.135498,216.129807 977.903076,215.908035 977.786133,215.797928 
z"/>
<path fill="#EDCD6E" opacity="1.000000" stroke="none" 
	d="
M435.593933,1472.405029 
	C435.696869,1472.347412 435.731995,1472.596313 435.731995,1472.596313 
	C435.731995,1472.596313 435.491028,1472.462769 435.593933,1472.405029 
z"/>
<path fill="#ECCB6D" opacity="1.000000" stroke="none" 
	d="
M809.213013,1786.201538 
	C809.020691,1786.492554 808.712097,1786.674072 808.403503,1786.855713 
	C808.386963,1786.595825 808.370422,1786.335938 808.609863,1785.973633 
	C808.865784,1785.871216 809.096680,1786.092041 809.213013,1786.201538 
z"/>
</svg>