<svg xmlns="http://www.w3.org/2000/svg" xml:space="preserve" viewBox="0 0 20 20"><circle cx="10" cy="10" r="9.702"/><linearGradient id="a" x1="10" x2="10" y1="19.887" y2=".113" gradientUnits="userSpaceOnUse"><stop offset="0" style="stop-color:#ae8625"/><stop offset=".45" style="stop-color:#f7ef8a"/><stop offset=".55" style="stop-color:#d2ac47"/><stop offset="1" style="stop-color:#edc967"/></linearGradient><path d="M10 .511c5.232 0 9.489 4.257 9.489 9.489S15.232 19.489 10 19.489.511 15.232.511 10 4.768.511 10 .511m0-.398C4.539.113.113 4.54.113 10S4.539 19.887 10 19.887 19.887 15.46 19.887 10 15.461.113 10 .113" style="fill:url(#a)"/><path d="M15.652 13.739a3.08 3.08 0 0 1-1.366 1.668c-.361.205-.75.334-1.156.382-.13.014-5.938.016-6.486.014a2.7 2.7 0 0 1-1.337-.352 3.7 3.7 0 0 1-.707-.516 2 2 0 0 1-.201-.215q.147.071.295.132c.338.14.689.245 1.042.312.42.079.853.12 1.286.12h5.713c.538 0 1.031-.148 1.467-.439.3-.2.552-.475.75-.817q.248-.429.309-.891a2.57 2.57 0 0 0-.262-1.542 2.3 2.3 0 0 0-.386-.537 2.7 2.7 0 0 0-.548-.438 2.4 2.4 0 0 0-.657-.269 3.2 3.2 0 0 0-.762-.087l-5.337.001c-.3 0-.585-.034-.847-.1a2.9 2.9 0 0 1-.777-.324 3 3 0 0 1-.769-.65 3.4 3.4 0 0 1-.402-.608 3 3 0 0 1-.323-1.37q.003-.344.085-.692c.105-.444.306-.842.614-1.218a3 3 0 0 1 1.441-.968c.31-.099.63-.147.979-.147h.002l5.912.001q.581.002 1.093.191a3.15 3.15 0 0 1 1.286.904 5.69 5.69 0 0 0-2.179-.549c-.053-.003-6.154 0-6.154 0q-.224 0-.422.028a2.5 2.5 0 0 0-.652.18A2.47 2.47 0 0 0 5.02 6.031a2.35 2.35 0 0 0-.294.967c-.038.479.045.929.246 1.339.29.59.76 1.012 1.396 1.254.262.1.554.148.891.149l5.403-.001c.418 0 .777.055 1.097.167a3 3 0 0 1 1.142.702q.374.374.596.816c.149.297.248.621.294.964.062.465.015.919-.139 1.351M8.601 16.211h.505a3 3 0 0 1-.656 1.251q-.157.183-.347.34.115-.24.215-.514c.104-.283.186-.578.251-.901q.018-.089.032-.176"/><path d="M8.665 10.665H9.2v4.218h-.535zM8.663 5.133h.534v4.209h-.534zM9.269 3.779h-.508q.072-.283.2-.552a3 3 0 0 1 .794-1.028c-.219.46-.373.938-.459 1.423zM10.733 16.211h.505a3 3 0 0 1-.656 1.251q-.157.183-.347.34.115-.24.215-.514c.104-.283.186-.578.251-.901q.018-.089.032-.176M10.797 10.665h.535v4.218h-.535zM10.795 5.133h.534v4.209h-.534zM11.402 3.779h-.508q.072-.283.2-.552a3 3 0 0 1 .793-1.029 5.6 5.6 0 0 0-.459 1.423q-.014.08-.026.158"/><linearGradient id="b" x1="10.004" x2="10.004" y1="17.801" y2="2.199" gradientUnits="userSpaceOnUse"><stop offset="0" style="stop-color:#ae8625"/><stop offset=".45" style="stop-color:#f7ef8a"/><stop offset=".55" style="stop-color:#d2ac47"/><stop offset="1" style="stop-color:#edc967"/></linearGradient><path d="M15.652 13.739a3.08 3.08 0 0 1-1.366 1.668c-.361.205-.75.334-1.156.382-.13.014-5.938.016-6.486.014a2.7 2.7 0 0 1-1.337-.352 3.7 3.7 0 0 1-.707-.516 2 2 0 0 1-.201-.215q.147.071.295.132c.338.14.689.245 1.042.312.42.079.853.12 1.286.12h5.713c.538 0 1.031-.148 1.467-.439.3-.2.552-.475.75-.817q.248-.429.309-.891a2.57 2.57 0 0 0-.262-1.542 2.3 2.3 0 0 0-.386-.537 2.7 2.7 0 0 0-.548-.438 2.4 2.4 0 0 0-.657-.269 3.2 3.2 0 0 0-.762-.087l-5.337.001c-.3 0-.585-.034-.847-.1a2.9 2.9 0 0 1-.777-.324 3 3 0 0 1-.769-.65 3.4 3.4 0 0 1-.402-.608 3 3 0 0 1-.323-1.37q.003-.344.085-.692c.105-.444.306-.842.614-1.218a3 3 0 0 1 1.441-.968c.31-.099.63-.147.979-.147h.002l5.912.001q.581.002 1.093.191a3.15 3.15 0 0 1 1.286.904 5.69 5.69 0 0 0-2.179-.549c-.053-.003-6.154 0-6.154 0q-.224 0-.422.028a2.5 2.5 0 0 0-.652.18A2.47 2.47 0 0 0 5.02 6.031a2.35 2.35 0 0 0-.294.967c-.038.479.045.929.246 1.339.29.59.76 1.012 1.396 1.254.262.1.554.148.891.149l5.403-.001c.418 0 .777.055 1.097.167a3 3 0 0 1 1.142.702q.374.374.596.816c.149.297.248.621.294.964.062.465.015.919-.139 1.351" style="fill:url(#b)"/><linearGradient id="c" x1="10.004" x2="10.004" y1="17.801" y2="2.199" gradientUnits="userSpaceOnUse"><stop offset="0" style="stop-color:#ae8625"/><stop offset=".45" style="stop-color:#f7ef8a"/><stop offset=".55" style="stop-color:#d2ac47"/><stop offset="1" style="stop-color:#edc967"/></linearGradient><path d="M7.312 4.188H7.31a3.16 3.16 0 0 0-1.772.526q-.362.243-.647.589a3 3 0 0 0-.614 1.218 2.938 2.938 0 0 0-.009 1.382q.082.354.247.679.161.317.402.608c.205.248.456.461.769.65q.36.218.777.324c.262.066.547.1.847.1h.357l4.98-.001c.277 0 .526.028.762.087q.35.086.657.269.293.175.548.438.231.239.386.537.144.279.223.613c.069.293.082.606.039.929a2.4 2.4 0 0 1-.309.891c-.197.342-.45.617-.75.817a2.6 2.6 0 0 1-1.467.439H7.024c-.433 0-.866-.04-1.286-.12a5.3 5.3 0 0 1-1.042-.312 4 4 0 0 1-.296-.131q.096.116.201.215c.209.197.44.365.707.516.408.232.858.35 1.337.352l1.02.001c1.823 0 5.364-.004 5.465-.015a3.026 3.026 0 0 0 1.974-1.072c.23-.27.409-.59.548-.978.155-.431.201-.886.139-1.351a3 3 0 0 0-.294-.964 3.2 3.2 0 0 0-.596-.816 3 3 0 0 0-1.142-.702 3.3 3.3 0 0 0-1.097-.167H7.259a2.5 2.5 0 0 1-.891-.149 2.48 2.48 0 0 1-1.396-1.253 2.54 2.54 0 0 1-.246-1.339c.027-.341.126-.666.294-.967.282-.504.678-.87 1.176-1.088.203-.089.416-.148.652-.18.134-.019.272-.028.423-.028l4.41-.001 1.744.001c.507.03.957.107 1.376.237q.422.131.803.312a3.13 3.13 0 0 0-1.286-.904 3.2 3.2 0 0 0-1.093-.191z" style="fill:url(#c)"/><linearGradient id="d" x1="10.004" x2="10.004" y1="17.801" y2="2.199" gradientUnits="userSpaceOnUse"><stop offset="0" style="stop-color:#ae8625"/><stop offset=".45" style="stop-color:#f7ef8a"/><stop offset=".55" style="stop-color:#d2ac47"/><stop offset="1" style="stop-color:#edc967"/></linearGradient><path d="M8.601 16.211h.505a3 3 0 0 1-.656 1.251q-.157.183-.347.34.115-.24.215-.514c.104-.283.186-.578.251-.901q.018-.089.032-.176" style="fill:url(#d)"/><linearGradient id="e" x1="10.004" x2="10.004" y1="17.801" y2="2.199" gradientUnits="userSpaceOnUse"><stop offset="0" style="stop-color:#ae8625"/><stop offset=".45" style="stop-color:#f7ef8a"/><stop offset=".55" style="stop-color:#d2ac47"/><stop offset="1" style="stop-color:#edc967"/></linearGradient><path d="M8.601 16.211q-.014.087-.032.175a6 6 0 0 1-.466 1.415 3.112 3.112 0 0 0 .908-1.282q.056-.151.095-.309z" style="fill:url(#e)"/><linearGradient id="f" x1="10.004" x2="10.004" y1="17.801" y2="2.199" gradientUnits="userSpaceOnUse"><stop offset="0" style="stop-color:#ae8625"/><stop offset=".45" style="stop-color:#f7ef8a"/><stop offset=".55" style="stop-color:#d2ac47"/><stop offset="1" style="stop-color:#edc967"/></linearGradient><path d="M8.665 10.665H9.2v4.218h-.535z" style="fill:url(#f)"/><linearGradient id="g" x1="10.004" x2="10.004" y1="17.801" y2="2.199" gradientUnits="userSpaceOnUse"><stop offset="0" style="stop-color:#ae8625"/><stop offset=".45" style="stop-color:#f7ef8a"/><stop offset=".55" style="stop-color:#d2ac47"/><stop offset="1" style="stop-color:#edc967"/></linearGradient><path d="M8.665 10.665v4.219h.534l.001-4.219z" style="fill:url(#g)"/><linearGradient id="h" x1="10.004" x2="10.004" y1="17.801" y2="2.199" gradientUnits="userSpaceOnUse"><stop offset="0" style="stop-color:#ae8625"/><stop offset=".45" style="stop-color:#f7ef8a"/><stop offset=".55" style="stop-color:#d2ac47"/><stop offset="1" style="stop-color:#edc967"/></linearGradient><path d="M8.663 5.133h.534v4.209h-.534z" style="fill:url(#h)"/><linearGradient id="i" x1="10.004" x2="10.004" y1="17.801" y2="2.199" gradientUnits="userSpaceOnUse"><stop offset="0" style="stop-color:#ae8625"/><stop offset=".45" style="stop-color:#f7ef8a"/><stop offset=".55" style="stop-color:#d2ac47"/><stop offset="1" style="stop-color:#edc967"/></linearGradient><path d="M9.196 5.133h-.533l.001 4.208h.535z" style="fill:url(#i)"/><linearGradient id="j" x1="10.004" x2="10.004" y1="17.801" y2="2.199" gradientUnits="userSpaceOnUse"><stop offset="0" style="stop-color:#ae8625"/><stop offset=".45" style="stop-color:#f7ef8a"/><stop offset=".55" style="stop-color:#d2ac47"/><stop offset="1" style="stop-color:#edc967"/></linearGradient><path d="M9.269 3.779h-.508q.072-.283.2-.552a3 3 0 0 1 .794-1.028c-.219.46-.373.938-.459 1.423z" style="fill:url(#j)"/><linearGradient id="k" x1="10.004" x2="10.004" y1="17.801" y2="2.199" gradientUnits="userSpaceOnUse"><stop offset="0" style="stop-color:#ae8625"/><stop offset=".45" style="stop-color:#f7ef8a"/><stop offset=".55" style="stop-color:#d2ac47"/><stop offset="1" style="stop-color:#edc967"/></linearGradient><path d="M9.755 2.199a2.994 2.994 0 0 0-.794 1.028q-.127.27-.2.552h.508l.026-.157c.087-.485.241-.963.46-1.423" style="fill:url(#k)"/><linearGradient id="l" x1="10.004" x2="10.004" y1="17.801" y2="2.199" gradientUnits="userSpaceOnUse"><stop offset="0" style="stop-color:#ae8625"/><stop offset=".45" style="stop-color:#f7ef8a"/><stop offset=".55" style="stop-color:#d2ac47"/><stop offset="1" style="stop-color:#edc967"/></linearGradient><path d="M10.733 16.211h.505a3 3 0 0 1-.656 1.251q-.157.183-.347.34.115-.24.215-.514c.104-.283.186-.578.251-.901q.018-.089.032-.176" style="fill:url(#l)"/><linearGradient id="m" x1="10.004" x2="10.004" y1="17.801" y2="2.199" gradientUnits="userSpaceOnUse"><stop offset="0" style="stop-color:#ae8625"/><stop offset=".45" style="stop-color:#f7ef8a"/><stop offset=".55" style="stop-color:#d2ac47"/><stop offset="1" style="stop-color:#edc967"/></linearGradient><path d="M10.733 16.211q-.014.087-.032.175a6 6 0 0 1-.466 1.415 3.112 3.112 0 0 0 .908-1.282q.056-.151.095-.309z" style="fill:url(#m)"/><linearGradient id="n" x1="10.004" x2="10.004" y1="17.801" y2="2.199" gradientUnits="userSpaceOnUse"><stop offset="0" style="stop-color:#ae8625"/><stop offset=".45" style="stop-color:#f7ef8a"/><stop offset=".55" style="stop-color:#d2ac47"/><stop offset="1" style="stop-color:#edc967"/></linearGradient><path d="M10.797 10.665h.535v4.218h-.535z" style="fill:url(#n)"/><linearGradient id="o" x1="10.004" x2="10.004" y1="17.801" y2="2.199" gradientUnits="userSpaceOnUse"><stop offset="0" style="stop-color:#ae8625"/><stop offset=".45" style="stop-color:#f7ef8a"/><stop offset=".55" style="stop-color:#d2ac47"/><stop offset="1" style="stop-color:#edc967"/></linearGradient><path d="M10.797 10.665v4.219h.534l.001-4.219z" style="fill:url(#o)"/><linearGradient id="p" x1="10.004" x2="10.004" y1="17.801" y2="2.199" gradientUnits="userSpaceOnUse"><stop offset="0" style="stop-color:#ae8625"/><stop offset=".45" style="stop-color:#f7ef8a"/><stop offset=".55" style="stop-color:#d2ac47"/><stop offset="1" style="stop-color:#edc967"/></linearGradient><path d="M10.795 5.133h.534v4.209h-.534z" style="fill:url(#p)"/><linearGradient id="q" x1="10.004" x2="10.004" y1="17.801" y2="2.199" gradientUnits="userSpaceOnUse"><stop offset="0" style="stop-color:#ae8625"/><stop offset=".45" style="stop-color:#f7ef8a"/><stop offset=".55" style="stop-color:#d2ac47"/><stop offset="1" style="stop-color:#edc967"/></linearGradient><path d="M11.328 5.133h-.533l.001 4.208h.535z" style="fill:url(#q)"/><linearGradient id="r" x1="10.004" x2="10.004" y1="17.801" y2="2.199" gradientUnits="userSpaceOnUse"><stop offset="0" style="stop-color:#ae8625"/><stop offset=".45" style="stop-color:#f7ef8a"/><stop offset=".55" style="stop-color:#d2ac47"/><stop offset="1" style="stop-color:#edc967"/></linearGradient><path d="M11.402 3.779h-.508q.072-.283.2-.552a3 3 0 0 1 .793-1.029 5.6 5.6 0 0 0-.459 1.423q-.014.08-.026.158" style="fill:url(#r)"/><linearGradient id="s" x1="10.004" x2="10.004" y1="17.801" y2="2.199" gradientUnits="userSpaceOnUse"><stop offset="0" style="stop-color:#ae8625"/><stop offset=".45" style="stop-color:#f7ef8a"/><stop offset=".55" style="stop-color:#d2ac47"/><stop offset="1" style="stop-color:#edc967"/></linearGradient><path d="M11.887 2.199a2.957 2.957 0 0 0-.793 1.029q-.127.27-.2.552h.508l.026-.157a5.6 5.6 0 0 1 .459-1.424" style="fill:url(#s)"/></svg>