<?xml version="1.0" encoding="utf-8"?>
<!-- Generator: Adobe Illustrator 28.0.0, SVG Export Plug-In . SVG Version: 6.00 Build 0)  -->
<svg version="1.1" id="Layer_1" xmlns="http://www.w3.org/2000/svg" x="0px" y="0px"
     viewBox="0 0 20 20" style="enable-background:new 0 0 20 20;" xml:space="preserve">
<style type="text/css">
	.st0{fill:url(#SVGID_1_);}
	.st1{fill:url(#SVGID_00000015355345372983805410000008563381521314066602_);}
	.st2{fill:url(#SVGID_00000042697051908343924810000005704454830822485676_);}
	.st3{fill:url(#SVGID_00000065753574981321888470000003174328528823356546_);}
	.st4{fill:url(#SVGID_00000023265770289892773480000006737494420647969427_);}
	.st5{fill:url(#SVGID_00000112608587946494142420000003721922170189069753_);}
	.st6{fill:url(#SVGID_00000001657333068612135220000016131884759491280018_);}
	.st7{fill:url(#SVGID_00000122689525296660461250000011895503977318159535_);}
	.st8{fill:url(#SVGID_00000083768222788938445200000010420569724704360356_);}
	.st9{fill:url(#SVGID_00000010300424458086320210000006912274063049361333_);}
	.st10{fill:url(#SVGID_00000098200058887580473650000001619922328222080929_);}
	.st11{fill:url(#SVGID_00000119105321406517451880000014533434462656702601_);}
	.st12{fill:url(#SVGID_00000013892445557691626190000008496618234990884514_);}
	.st13{fill:url(#SVGID_00000165234313996943036490000017661805451854280613_);}
	.st14{fill:url(#SVGID_00000042001776744022315400000002064232517153656704_);}
	.st15{fill:url(#SVGID_00000107562715707239335980000005506979894523378105_);}
	.st16{fill:url(#SVGID_00000155834978943964583110000015533501975759397767_);}
	.st17{fill:url(#SVGID_00000160162196072071319060000016298624485974789255_);}
	.st18{fill:url(#SVGID_00000074415987438678077330000017599918625282757564_);}
</style>
<circle cx="10" cy="10" r="9.702"/>
<linearGradient id="SVGID_1_" gradientUnits="userSpaceOnUse" x1="10" y1="19.8873" x2="10" y2="0.1127">
	<stop  offset="0" style="stop-color:#AE8625"/>
	<stop  offset="0.45" style="stop-color:#F7EF8A"/>
	<stop  offset="0.55" style="stop-color:#D2AC47"/>
	<stop  offset="1" style="stop-color:#EDC967"/>
</linearGradient>
<path class="st0" d="M10,0.511c5.232,0,9.489,4.257,9.489,9.489S15.232,19.489,10,19.489S0.511,15.232,0.511,10
	S4.768,0.511,10,0.511 M10,0.113c-5.461,0-9.887,4.427-9.887,9.887S4.539,19.887,10,19.887s9.887-4.427,9.887-9.887
	S15.461,0.113,10,0.113L10,0.113z"/>
<g>
	<g>
		<g>
			<path d="M15.652,13.739c-0.139,0.388-0.318,0.708-0.548,0.978c-0.247,0.291-0.515,0.517-0.818,0.69
				c-0.361,0.205-0.75,0.334-1.156,0.382C13,15.803,7.192,15.805,6.644,15.803c-0.479-0.002-0.929-0.12-1.337-0.352
				C5.041,15.3,4.81,15.132,4.6,14.935c-0.07-0.066-0.137-0.137-0.201-0.215c0.098,0.047,0.196,0.092,0.295,0.132
				c0.338,0.14,0.689,0.245,1.042,0.312c0.42,0.079,0.853,0.12,1.286,0.12c0,0,5.322,0,5.71,0h0.003
				c0.538,0,1.031-0.148,1.467-0.439c0.3-0.2,0.552-0.475,0.75-0.817c0.165-0.285,0.269-0.584,0.309-0.891
				c0.043-0.324,0.03-0.637-0.039-0.929c-0.052-0.222-0.127-0.428-0.223-0.613c-0.103-0.198-0.233-0.379-0.386-0.537
				c-0.169-0.175-0.354-0.322-0.548-0.438c-0.204-0.121-0.425-0.212-0.657-0.269c-0.236-0.058-0.485-0.087-0.762-0.087
				c0,0-4.933,0.001-5.337,0.001c-0.3,0-0.585-0.034-0.847-0.1c-0.276-0.07-0.538-0.179-0.777-0.324
				c-0.312-0.19-0.564-0.402-0.769-0.65c-0.16-0.194-0.295-0.398-0.402-0.608C4.405,8.366,4.322,8.138,4.268,7.903
				c-0.053-0.228-0.078-0.46-0.077-0.69c0.002-0.228,0.03-0.461,0.085-0.692c0.105-0.444,0.306-0.842,0.614-1.218
				c0.189-0.23,0.406-0.428,0.647-0.589c0.237-0.159,0.504-0.286,0.794-0.379C6.641,4.236,6.961,4.188,7.31,4.188h0.002
				c0.24,0,5.416,0,5.912,0.001c0.386,0.001,0.753,0.065,1.093,0.191c0.34,0.126,0.661,0.317,0.954,0.568
				c0.119,0.102,0.23,0.214,0.332,0.336c-0.254-0.121-0.522-0.225-0.803-0.312c-0.419-0.13-0.869-0.208-1.376-0.237
				c-0.053-0.003-6.154,0-6.154,0c-0.15,0-0.289,0.009-0.422,0.028c-0.236,0.033-0.449,0.092-0.652,0.18
				C5.698,5.161,5.302,5.527,5.02,6.031C4.852,6.332,4.753,6.657,4.726,6.998C4.688,7.477,4.771,7.927,4.972,8.337
				c0.29,0.59,0.76,1.012,1.396,1.254c0.262,0.1,0.554,0.148,0.891,0.149l5.403-0.001c0.418,0,0.777,0.055,1.097,0.167
				c0.45,0.158,0.834,0.394,1.142,0.702c0.248,0.248,0.449,0.522,0.596,0.816c0.149,0.297,0.248,0.621,0.294,0.964
				C15.853,12.853,15.806,13.307,15.652,13.739z"/>
		</g>
		<g>
			<path d="M8.601,16.211c0.168,0,0.337,0,0.505,0c-0.026,0.105-0.058,0.208-0.095,0.309c-0.125,0.336-0.313,0.653-0.561,0.942
				c-0.105,0.122-0.22,0.235-0.347,0.34c0.077-0.161,0.148-0.331,0.215-0.514c0.104-0.283,0.186-0.578,0.251-0.901
				C8.581,16.328,8.591,16.269,8.601,16.211z"/>
		</g>
		<g>
			<rect x="8.665" y="10.665" width="0.535" height="4.218"/>
		</g>
		<g>
			<rect x="8.663" y="5.133" width="0.534" height="4.209"/>
		</g>
		<g>
			<path d="M9.269,3.779c-0.169,0-0.339,0-0.508,0c0.048-0.189,0.115-0.372,0.2-0.552C9.11,2.912,9.306,2.63,9.544,2.391
				C9.61,2.324,9.681,2.26,9.755,2.199C9.536,2.659,9.382,3.137,9.296,3.622C9.286,3.675,9.278,3.727,9.269,3.779z"/>
		</g>
		<g>
			<path d="M10.733,16.211c0.168,0,0.337,0,0.505,0c-0.026,0.105-0.058,0.208-0.095,0.309c-0.125,0.336-0.313,0.653-0.561,0.942
				c-0.105,0.122-0.22,0.235-0.347,0.34c0.077-0.161,0.148-0.331,0.215-0.514c0.104-0.283,0.186-0.578,0.251-0.901
				C10.713,16.328,10.723,16.269,10.733,16.211z"/>
		</g>
		<g>
			<rect x="10.797" y="10.665" width="0.535" height="4.218"/>
		</g>
		<g>
			<rect x="10.795" y="5.133" width="0.534" height="4.209"/>
		</g>
		<g>
			<path d="M11.402,3.779c-0.169,0-0.339,0-0.508,0c0.048-0.189,0.115-0.372,0.2-0.552c0.149-0.315,0.345-0.597,0.582-0.836
				c0.067-0.067,0.137-0.131,0.211-0.193c-0.219,0.461-0.373,0.939-0.459,1.423C11.418,3.675,11.41,3.727,11.402,3.779z"/>
		</g>
	</g>
	<g>
		<g>
			
				<linearGradient id="SVGID_00000143586702736278944410000013439656146245710778_" gradientUnits="userSpaceOnUse" x1="10.0043" y1="17.8014" x2="10.0043" y2="2.1986">
				<stop  offset="0" style="stop-color:#AE8625"/>
				<stop  offset="0.45" style="stop-color:#F7EF8A"/>
				<stop  offset="0.55" style="stop-color:#D2AC47"/>
				<stop  offset="1" style="stop-color:#EDC967"/>
			</linearGradient>
			<path style="fill:url(#SVGID_00000143586702736278944410000013439656146245710778_);" d="M15.652,13.739
				c-0.139,0.388-0.318,0.708-0.548,0.978c-0.247,0.291-0.515,0.517-0.818,0.69c-0.361,0.205-0.75,0.334-1.156,0.382
				C13,15.803,7.192,15.805,6.644,15.803c-0.479-0.002-0.929-0.12-1.337-0.352C5.041,15.3,4.81,15.132,4.6,14.935
				c-0.07-0.066-0.137-0.137-0.201-0.215c0.098,0.047,0.196,0.092,0.295,0.132c0.338,0.14,0.689,0.245,1.042,0.312
				c0.42,0.079,0.853,0.12,1.286,0.12c0,0,5.322,0,5.71,0h0.003c0.538,0,1.031-0.148,1.467-0.439c0.3-0.2,0.552-0.475,0.75-0.817
				c0.165-0.285,0.269-0.584,0.309-0.891c0.043-0.324,0.03-0.637-0.039-0.929c-0.052-0.222-0.127-0.428-0.223-0.613
				c-0.103-0.198-0.233-0.379-0.386-0.537c-0.169-0.175-0.354-0.322-0.548-0.438c-0.204-0.121-0.425-0.212-0.657-0.269
				c-0.236-0.058-0.485-0.087-0.762-0.087c0,0-4.933,0.001-5.337,0.001c-0.3,0-0.585-0.034-0.847-0.1
				c-0.276-0.07-0.538-0.179-0.777-0.324c-0.312-0.19-0.564-0.402-0.769-0.65c-0.16-0.194-0.295-0.398-0.402-0.608
				C4.405,8.366,4.322,8.138,4.268,7.903c-0.053-0.228-0.078-0.46-0.077-0.69c0.002-0.228,0.03-0.461,0.085-0.692
				c0.105-0.444,0.306-0.842,0.614-1.218c0.189-0.23,0.406-0.428,0.647-0.589c0.237-0.159,0.504-0.286,0.794-0.379
				C6.641,4.236,6.961,4.188,7.31,4.188h0.002c0.24,0,5.416,0,5.912,0.001c0.386,0.001,0.753,0.065,1.093,0.191
				c0.34,0.126,0.661,0.317,0.954,0.568c0.119,0.102,0.23,0.214,0.332,0.336c-0.254-0.121-0.522-0.225-0.803-0.312
				c-0.419-0.13-0.869-0.208-1.376-0.237c-0.053-0.003-6.154,0-6.154,0c-0.15,0-0.289,0.009-0.422,0.028
				c-0.236,0.033-0.449,0.092-0.652,0.18C5.698,5.161,5.302,5.527,5.02,6.031C4.852,6.332,4.753,6.657,4.726,6.998
				C4.688,7.477,4.771,7.927,4.972,8.337c0.29,0.59,0.76,1.012,1.396,1.254c0.262,0.1,0.554,0.148,0.891,0.149l5.403-0.001
				c0.418,0,0.777,0.055,1.097,0.167c0.45,0.158,0.834,0.394,1.142,0.702c0.248,0.248,0.449,0.522,0.596,0.816
				c0.149,0.297,0.248,0.621,0.294,0.964C15.853,12.853,15.806,13.307,15.652,13.739z"/>
			
				<linearGradient id="SVGID_00000042717991195406910400000007101624503581824695_" gradientUnits="userSpaceOnUse" x1="10.0043" y1="17.8014" x2="10.0043" y2="2.1986">
				<stop  offset="0" style="stop-color:#AE8625"/>
				<stop  offset="0.45" style="stop-color:#F7EF8A"/>
				<stop  offset="0.55" style="stop-color:#D2AC47"/>
				<stop  offset="1" style="stop-color:#EDC967"/>
			</linearGradient>
			<path style="fill:url(#SVGID_00000042717991195406910400000007101624503581824695_);" d="M7.312,4.188H7.31
				c-0.349,0-0.669,0.048-0.978,0.147c-0.29,0.093-0.557,0.22-0.794,0.379C5.298,4.875,5.08,5.073,4.891,5.303
				C4.583,5.679,4.382,6.077,4.277,6.521C4.222,6.752,4.193,6.985,4.191,7.213c-0.002,0.23,0.024,0.462,0.077,0.69
				c0.054,0.235,0.137,0.464,0.247,0.679c0.107,0.21,0.242,0.415,0.402,0.608c0.205,0.248,0.456,0.461,0.769,0.65
				c0.239,0.145,0.5,0.254,0.777,0.324c0.262,0.066,0.547,0.1,0.847,0.1c0.052,0,0.177,0,0.357,0c1.228,0,4.98-0.001,4.98-0.001
				c0.277,0,0.526,0.028,0.762,0.087c0.232,0.057,0.453,0.148,0.657,0.269c0.194,0.116,0.379,0.263,0.548,0.438
				c0.154,0.158,0.283,0.339,0.386,0.537c0.096,0.185,0.171,0.391,0.223,0.613c0.069,0.293,0.082,0.606,0.039,0.929
				c-0.041,0.306-0.145,0.606-0.309,0.891c-0.197,0.342-0.45,0.617-0.75,0.817c-0.436,0.291-0.929,0.439-1.467,0.439h-0.003
				c-0.155,0-1.1,0-2.177,0c-1.616,0-3.532,0-3.532,0c-0.433,0-0.866-0.04-1.286-0.12c-0.354-0.067-0.705-0.172-1.042-0.312
				C4.596,14.812,4.497,14.768,4.4,14.72c0.064,0.077,0.131,0.149,0.201,0.215c0.209,0.197,0.44,0.365,0.707,0.516
				c0.408,0.232,0.858,0.35,1.337,0.352c0.121,0,0.501,0.001,1.02,0.001c1.823,0,5.364-0.004,5.465-0.015
				c0.406-0.048,0.795-0.176,1.156-0.382c0.303-0.173,0.571-0.398,0.818-0.69c0.23-0.27,0.409-0.59,0.548-0.978
				c0.155-0.431,0.201-0.886,0.139-1.351c-0.046-0.343-0.145-0.667-0.294-0.964c-0.148-0.294-0.348-0.569-0.596-0.816
				c-0.308-0.308-0.692-0.544-1.142-0.702c-0.321-0.113-0.679-0.167-1.097-0.167L7.259,9.739c-0.337,0-0.628-0.049-0.891-0.149
				C5.732,9.349,5.262,8.927,4.972,8.337c-0.201-0.409-0.284-0.86-0.246-1.339C4.753,6.657,4.852,6.332,5.02,6.031
				c0.282-0.504,0.678-0.87,1.176-1.088c0.203-0.089,0.416-0.148,0.652-0.18C6.982,4.744,7.12,4.735,7.271,4.735
				c0,0,2.591-0.001,4.41-0.001c0.973,0,1.725,0,1.744,0.001c0.507,0.03,0.957,0.107,1.376,0.237
				c0.281,0.087,0.549,0.192,0.803,0.312c-0.103-0.122-0.213-0.234-0.332-0.336c-0.293-0.251-0.614-0.443-0.954-0.568
				c-0.339-0.126-0.707-0.19-1.093-0.191C12.728,4.188,7.553,4.188,7.312,4.188L7.312,4.188z"/>
		</g>
		<g>
			
				<linearGradient id="SVGID_00000138553002140971817210000004481614767507047859_" gradientUnits="userSpaceOnUse" x1="10.0043" y1="17.8014" x2="10.0043" y2="2.1986">
				<stop  offset="0" style="stop-color:#AE8625"/>
				<stop  offset="0.45" style="stop-color:#F7EF8A"/>
				<stop  offset="0.55" style="stop-color:#D2AC47"/>
				<stop  offset="1" style="stop-color:#EDC967"/>
			</linearGradient>
			<path style="fill:url(#SVGID_00000138553002140971817210000004481614767507047859_);" d="M8.601,16.211c0.168,0,0.337,0,0.505,0
				c-0.026,0.105-0.058,0.208-0.095,0.309c-0.125,0.336-0.313,0.653-0.561,0.942c-0.105,0.122-0.22,0.235-0.347,0.34
				c0.077-0.161,0.148-0.331,0.215-0.514c0.104-0.283,0.186-0.578,0.251-0.901C8.581,16.328,8.591,16.269,8.601,16.211z"/>
			
				<linearGradient id="SVGID_00000115496932326087410070000011158557487857927855_" gradientUnits="userSpaceOnUse" x1="10.0043" y1="17.8014" x2="10.0043" y2="2.1986">
				<stop  offset="0" style="stop-color:#AE8625"/>
				<stop  offset="0.45" style="stop-color:#F7EF8A"/>
				<stop  offset="0.55" style="stop-color:#D2AC47"/>
				<stop  offset="1" style="stop-color:#EDC967"/>
			</linearGradient>
			<path style="fill:url(#SVGID_00000115496932326087410070000011158557487857927855_);" d="M8.601,16.211
				c-0.009,0.058-0.02,0.117-0.032,0.175c-0.065,0.323-0.147,0.618-0.251,0.901c-0.067,0.183-0.138,0.353-0.215,0.514
				c0.126-0.104,0.242-0.218,0.347-0.34c0.248-0.289,0.436-0.606,0.561-0.942c0.037-0.101,0.069-0.204,0.095-0.309
				C8.937,16.211,8.769,16.211,8.601,16.211L8.601,16.211z"/>
		</g>
		<g>
			
				<linearGradient id="SVGID_00000160895245998849463650000000510811148093683635_" gradientUnits="userSpaceOnUse" x1="10.0043" y1="17.8014" x2="10.0043" y2="2.1986">
				<stop  offset="0" style="stop-color:#AE8625"/>
				<stop  offset="0.45" style="stop-color:#F7EF8A"/>
				<stop  offset="0.55" style="stop-color:#D2AC47"/>
				<stop  offset="1" style="stop-color:#EDC967"/>
			</linearGradient>
			
				<rect x="8.665" y="10.665" style="fill:url(#SVGID_00000160895245998849463650000000510811148093683635_);" width="0.535" height="4.218"/>
			
				<linearGradient id="SVGID_00000113351597502770005530000008723579810090195074_" gradientUnits="userSpaceOnUse" x1="10.0043" y1="17.8014" x2="10.0043" y2="2.1986">
				<stop  offset="0" style="stop-color:#AE8625"/>
				<stop  offset="0.45" style="stop-color:#F7EF8A"/>
				<stop  offset="0.55" style="stop-color:#D2AC47"/>
				<stop  offset="1" style="stop-color:#EDC967"/>
			</linearGradient>
			<polygon style="fill:url(#SVGID_00000113351597502770005530000008723579810090195074_);" points="8.665,10.665 8.665,14.884 
				9.199,14.884 9.2,10.665 8.665,10.665 			"/>
		</g>
		<g>
			
				<linearGradient id="SVGID_00000047021034989384440330000007491919455587099071_" gradientUnits="userSpaceOnUse" x1="10.0043" y1="17.8014" x2="10.0043" y2="2.1986">
				<stop  offset="0" style="stop-color:#AE8625"/>
				<stop  offset="0.45" style="stop-color:#F7EF8A"/>
				<stop  offset="0.55" style="stop-color:#D2AC47"/>
				<stop  offset="1" style="stop-color:#EDC967"/>
			</linearGradient>
			
				<rect x="8.663" y="5.133" style="fill:url(#SVGID_00000047021034989384440330000007491919455587099071_);" width="0.534" height="4.209"/>
			
				<linearGradient id="SVGID_00000080203081071704554440000010362895811065978293_" gradientUnits="userSpaceOnUse" x1="10.0043" y1="17.8014" x2="10.0043" y2="2.1986">
				<stop  offset="0" style="stop-color:#AE8625"/>
				<stop  offset="0.45" style="stop-color:#F7EF8A"/>
				<stop  offset="0.55" style="stop-color:#D2AC47"/>
				<stop  offset="1" style="stop-color:#EDC967"/>
			</linearGradient>
			<polygon style="fill:url(#SVGID_00000080203081071704554440000010362895811065978293_);" points="9.196,5.133 8.663,5.133 
				8.664,9.341 9.199,9.341 9.196,5.133 			"/>
		</g>
		<g>
			
				<linearGradient id="SVGID_00000062902901474634156560000008431734541156850356_" gradientUnits="userSpaceOnUse" x1="10.0043" y1="17.8014" x2="10.0043" y2="2.1986">
				<stop  offset="0" style="stop-color:#AE8625"/>
				<stop  offset="0.45" style="stop-color:#F7EF8A"/>
				<stop  offset="0.55" style="stop-color:#D2AC47"/>
				<stop  offset="1" style="stop-color:#EDC967"/>
			</linearGradient>
			<path style="fill:url(#SVGID_00000062902901474634156560000008431734541156850356_);" d="M9.269,3.779c-0.169,0-0.339,0-0.508,0
				c0.048-0.189,0.115-0.372,0.2-0.552C9.11,2.912,9.306,2.63,9.544,2.391C9.61,2.324,9.681,2.26,9.755,2.199
				C9.536,2.659,9.382,3.137,9.296,3.622C9.286,3.675,9.278,3.727,9.269,3.779z"/>
			
				<linearGradient id="SVGID_00000157302862804678245820000012985324849180274081_" gradientUnits="userSpaceOnUse" x1="10.0043" y1="17.8014" x2="10.0043" y2="2.1986">
				<stop  offset="0" style="stop-color:#AE8625"/>
				<stop  offset="0.45" style="stop-color:#F7EF8A"/>
				<stop  offset="0.55" style="stop-color:#D2AC47"/>
				<stop  offset="1" style="stop-color:#EDC967"/>
			</linearGradient>
			<path style="fill:url(#SVGID_00000157302862804678245820000012985324849180274081_);" d="M9.755,2.199
				C9.681,2.26,9.61,2.324,9.544,2.391C9.306,2.63,9.11,2.912,8.961,3.227c-0.085,0.18-0.151,0.364-0.2,0.552
				c0.169,0,0.339,0,0.508,0c0.008-0.052,0.017-0.104,0.026-0.157C9.382,3.137,9.536,2.659,9.755,2.199L9.755,2.199z"/>
		</g>
		<g>
			
				<linearGradient id="SVGID_00000142172748852550888700000002564658209834966147_" gradientUnits="userSpaceOnUse" x1="10.0043" y1="17.8014" x2="10.0043" y2="2.1986">
				<stop  offset="0" style="stop-color:#AE8625"/>
				<stop  offset="0.45" style="stop-color:#F7EF8A"/>
				<stop  offset="0.55" style="stop-color:#D2AC47"/>
				<stop  offset="1" style="stop-color:#EDC967"/>
			</linearGradient>
			<path style="fill:url(#SVGID_00000142172748852550888700000002564658209834966147_);" d="M10.733,16.211c0.168,0,0.337,0,0.505,0
				c-0.026,0.105-0.058,0.208-0.095,0.309c-0.125,0.336-0.313,0.653-0.561,0.942c-0.105,0.122-0.22,0.235-0.347,0.34
				c0.077-0.161,0.148-0.331,0.215-0.514c0.104-0.283,0.186-0.578,0.251-0.901C10.713,16.328,10.723,16.269,10.733,16.211z"/>
			
				<linearGradient id="SVGID_00000079484321471263554650000007266479978629706880_" gradientUnits="userSpaceOnUse" x1="10.0043" y1="17.8014" x2="10.0043" y2="2.1986">
				<stop  offset="0" style="stop-color:#AE8625"/>
				<stop  offset="0.45" style="stop-color:#F7EF8A"/>
				<stop  offset="0.55" style="stop-color:#D2AC47"/>
				<stop  offset="1" style="stop-color:#EDC967"/>
			</linearGradient>
			<path style="fill:url(#SVGID_00000079484321471263554650000007266479978629706880_);" d="M10.733,16.211
				c-0.009,0.058-0.02,0.117-0.032,0.175c-0.065,0.323-0.147,0.618-0.251,0.901c-0.067,0.183-0.138,0.353-0.215,0.514
				c0.126-0.104,0.242-0.218,0.347-0.34c0.248-0.289,0.436-0.606,0.561-0.942c0.037-0.101,0.069-0.204,0.095-0.309
				C11.069,16.211,10.901,16.211,10.733,16.211L10.733,16.211z"/>
		</g>
		<g>
			
				<linearGradient id="SVGID_00000168117443490413130830000016741290509956888220_" gradientUnits="userSpaceOnUse" x1="10.0043" y1="17.8014" x2="10.0043" y2="2.1986">
				<stop  offset="0" style="stop-color:#AE8625"/>
				<stop  offset="0.45" style="stop-color:#F7EF8A"/>
				<stop  offset="0.55" style="stop-color:#D2AC47"/>
				<stop  offset="1" style="stop-color:#EDC967"/>
			</linearGradient>
			
				<rect x="10.797" y="10.665" style="fill:url(#SVGID_00000168117443490413130830000016741290509956888220_);" width="0.535" height="4.218"/>
			
				<linearGradient id="SVGID_00000065035575151233976660000015686572853489281711_" gradientUnits="userSpaceOnUse" x1="10.0043" y1="17.8014" x2="10.0043" y2="2.1986">
				<stop  offset="0" style="stop-color:#AE8625"/>
				<stop  offset="0.45" style="stop-color:#F7EF8A"/>
				<stop  offset="0.55" style="stop-color:#D2AC47"/>
				<stop  offset="1" style="stop-color:#EDC967"/>
			</linearGradient>
			<polygon style="fill:url(#SVGID_00000065035575151233976660000015686572853489281711_);" points="10.797,10.665 10.797,14.884 
				11.331,14.884 11.332,10.665 10.797,10.665 			"/>
		</g>
		<g>
			
				<linearGradient id="SVGID_00000065774027216213903350000004313095486270663571_" gradientUnits="userSpaceOnUse" x1="10.0043" y1="17.8014" x2="10.0043" y2="2.1986">
				<stop  offset="0" style="stop-color:#AE8625"/>
				<stop  offset="0.45" style="stop-color:#F7EF8A"/>
				<stop  offset="0.55" style="stop-color:#D2AC47"/>
				<stop  offset="1" style="stop-color:#EDC967"/>
			</linearGradient>
			
				<rect x="10.795" y="5.133" style="fill:url(#SVGID_00000065774027216213903350000004313095486270663571_);" width="0.534" height="4.209"/>
			
				<linearGradient id="SVGID_00000022531594151054306980000011491943668817218464_" gradientUnits="userSpaceOnUse" x1="10.0043" y1="17.8014" x2="10.0043" y2="2.1986">
				<stop  offset="0" style="stop-color:#AE8625"/>
				<stop  offset="0.45" style="stop-color:#F7EF8A"/>
				<stop  offset="0.55" style="stop-color:#D2AC47"/>
				<stop  offset="1" style="stop-color:#EDC967"/>
			</linearGradient>
			<polygon style="fill:url(#SVGID_00000022531594151054306980000011491943668817218464_);" points="11.328,5.133 10.795,5.133 
				10.796,9.341 11.331,9.341 11.328,5.133 			"/>
		</g>
		<g>
			
				<linearGradient id="SVGID_00000098934953476604884410000012868727194163340729_" gradientUnits="userSpaceOnUse" x1="10.0043" y1="17.8014" x2="10.0043" y2="2.1986">
				<stop  offset="0" style="stop-color:#AE8625"/>
				<stop  offset="0.45" style="stop-color:#F7EF8A"/>
				<stop  offset="0.55" style="stop-color:#D2AC47"/>
				<stop  offset="1" style="stop-color:#EDC967"/>
			</linearGradient>
			<path style="fill:url(#SVGID_00000098934953476604884410000012868727194163340729_);" d="M11.402,3.779c-0.169,0-0.339,0-0.508,0
				c0.048-0.189,0.115-0.372,0.2-0.552c0.149-0.315,0.345-0.597,0.582-0.836c0.067-0.067,0.137-0.131,0.211-0.193
				c-0.219,0.461-0.373,0.939-0.459,1.423C11.418,3.675,11.41,3.727,11.402,3.779z"/>
			
				<linearGradient id="SVGID_00000116221945907200363660000011304621037640535972_" gradientUnits="userSpaceOnUse" x1="10.0043" y1="17.8014" x2="10.0043" y2="2.1986">
				<stop  offset="0" style="stop-color:#AE8625"/>
				<stop  offset="0.45" style="stop-color:#F7EF8A"/>
				<stop  offset="0.55" style="stop-color:#D2AC47"/>
				<stop  offset="1" style="stop-color:#EDC967"/>
			</linearGradient>
			<path style="fill:url(#SVGID_00000116221945907200363660000011304621037640535972_);" d="M11.887,2.199
				c-0.074,0.061-0.145,0.126-0.211,0.193c-0.238,0.239-0.434,0.52-0.582,0.836c-0.085,0.18-0.151,0.364-0.2,0.552
				c0.169,0,0.339,0,0.508,0c0.008-0.052,0.017-0.104,0.026-0.157C11.514,3.137,11.668,2.659,11.887,2.199L11.887,2.199z"/>
		</g>
	</g>
</g>
</svg>
