<svg version="1.1" id="Layer_1" xmlns="http://www.w3.org/2000/svg" xmlns:xlink="http://www.w3.org/1999/xlink" x="0px" y="0px"
	 width="100%" viewBox="0 0 2000 2000" enable-background="new 0 0 2000 2000" xml:space="preserve">
<path fill="#000000" opacity="1.000000" stroke="none" 
	d="
M2001.000000,737.000000 
	C2001.000000,1158.666626 2001.000000,1579.833374 2001.000000,2001.000000 
	C1334.333374,2001.000000 667.666687,2001.000000 1.000000,2001.000000 
	C1.000000,1334.333374 1.000000,667.666687 1.000000,1.000000 
	C667.666687,1.000000 1334.333374,1.000000 2001.000000,1.000000 
	C2001.000000,246.166672 2001.000000,491.333344 2001.000000,737.000000 
M389.032928,218.469208 
	C382.169220,224.002014 375.126831,229.329239 368.476746,235.107864 
	C351.470886,249.885071 334.249817,264.449249 317.856476,279.886261 
	C303.593445,293.317230 290.075562,307.574951 276.723145,321.927551 
	C263.391357,336.258026 250.415039,350.940796 237.764816,365.877289 
	C226.565903,379.100159 215.442749,392.462280 205.336792,406.518280 
	C189.815659,428.106140 174.573853,449.948700 160.370605,472.414703 
	C146.798080,493.883026 134.322708,516.076721 122.092148,538.350708 
	C113.746696,553.549133 106.434509,569.332092 99.060623,585.041565 
	C92.466484,599.089966 85.768715,613.148621 80.277084,627.642395 
	C70.731186,652.836426 61.743858,678.256653 53.176151,703.801331 
	C47.839836,719.711548 42.875744,735.839050 39.211308,752.197571 
	C32.552917,781.921448 26.739916,811.843262 21.069231,841.776245 
	C18.161751,857.123474 15.989479,872.632629 14.099575,888.143494 
	C12.315061,902.789490 11.049242,917.514648 10.081018,932.239624 
	C9.062117,947.735291 8.222367,963.268677 8.111399,978.791382 
	C7.973759,998.044800 8.503651,1017.308777 9.056005,1036.559204 
	C9.415450,1049.086426 10.116483,1061.613770 11.049162,1074.112183 
	C12.147335,1088.828369 13.537588,1103.526245 15.035172,1118.208130 
	C16.178736,1129.419312 17.265535,1140.664185 19.128847,1151.767822 
	C22.081739,1169.364502 25.045937,1187.000366 29.116535,1204.359131 
	C35.866833,1233.145264 42.953667,1261.877930 50.951050,1290.337402 
	C56.361473,1309.590820 62.886959,1328.605835 70.150391,1347.245605 
	C80.355316,1373.433838 90.946800,1399.527344 102.757545,1425.020020 
	C118.367760,1458.713501 135.722626,1491.575806 156.005096,1522.763794 
	C169.434662,1543.414185 182.644623,1564.247925 197.028915,1584.224731 
	C210.074402,1602.342285 224.247620,1619.684448 238.529556,1636.864746 
	C252.289230,1653.416504 266.237122,1669.890625 281.172668,1685.365601 
	C298.559570,1703.380615 316.838928,1720.566162 335.244049,1737.555786 
	C348.858429,1750.122925 362.970123,1762.205811 377.444824,1773.772827 
	C395.507263,1788.207031 413.703918,1802.560547 432.675995,1815.750122 
	C466.069092,1838.965088 500.390625,1860.875610 536.783997,1879.116577 
	C566.594482,1894.058105 596.748352,1908.448608 627.432556,1921.475952 
	C659.230591,1934.976074 692.076416,1945.806641 725.373718,1955.265991 
	C757.799866,1964.477661 790.446777,1972.549927 823.712280,1977.997192 
	C845.070068,1981.494507 866.433350,1985.024658 887.882568,1987.874756 
	C902.666443,1989.839111 917.586975,1990.869629 932.473572,1991.938232 
	C945.804993,1992.895142 959.171387,1993.828125 972.526245,1993.887451 
	C993.616272,1993.981079 1014.718811,1993.613647 1035.798584,1992.915039 
	C1053.090088,1992.342041 1070.373047,1991.225220 1087.628174,1989.928955 
	C1100.352783,1988.973145 1113.067139,1987.640991 1125.713135,1985.935303 
	C1143.291626,1983.564697 1160.875366,1981.093140 1178.321777,1977.920776 
	C1198.564453,1974.240356 1218.941650,1970.785034 1238.756592,1965.383179 
	C1270.513062,1956.726074 1302.253052,1947.672241 1333.259766,1936.694702 
	C1364.118286,1925.769653 1394.350342,1912.914062 1424.309570,1899.666626 
	C1444.154785,1890.891357 1463.516113,1880.753296 1482.236328,1869.764160 
	C1511.001099,1852.878540 1539.744141,1835.772705 1567.162231,1816.829346 
	C1593.127319,1798.890015 1617.784668,1778.965454 1642.240723,1758.964600 
	C1659.951416,1744.480347 1676.743652,1728.812134 1693.316895,1713.012451 
	C1716.666748,1690.752808 1738.715942,1667.215088 1759.229980,1642.279175 
	C1768.688965,1630.781372 1778.830811,1619.776978 1787.504150,1607.715454 
	C1805.972290,1582.033203 1824.344971,1556.233521 1841.495728,1529.667847 
	C1855.353638,1508.202515 1868.020264,1485.892944 1880.006714,1463.316040 
	C1891.471802,1441.720703 1902.030396,1419.581421 1911.785889,1397.158325 
	C1921.631958,1374.526855 1930.555542,1351.450684 1938.851440,1328.201172 
	C1946.169312,1307.692261 1952.507202,1286.801270 1958.453735,1265.845215 
	C1963.571655,1247.809814 1967.963623,1229.537476 1971.868164,1211.197754 
	C1975.487427,1194.197754 1978.261108,1177.005493 1980.994873,1159.832397 
	C1983.914429,1141.492798 1986.585571,1123.105957 1988.912842,1104.682617 
	C1990.372192,1093.130737 1991.208618,1081.486816 1991.942993,1069.860229 
	C1992.838257,1055.689209 1993.811768,1041.495239 1993.887695,1027.306641 
	C1993.997803,1006.717102 1993.390015,986.122253 1992.972900,965.531982 
	C1992.818848,957.935730 1992.518677,950.332947 1991.968018,942.756165 
	C1990.753662,926.046753 1989.548340,909.331604 1987.939575,892.657410 
	C1986.575073,878.512878 1985.110596,864.348328 1982.856445,850.326782 
	C1980.024780,832.712769 1976.843506,815.122192 1972.909424,797.725952 
	C1967.169067,772.342651 1961.344116,746.935974 1954.209106,721.923218 
	C1947.751709,699.285950 1940.248901,676.872559 1931.828369,654.888550 
	C1921.724976,628.511292 1910.744385,602.427673 1899.039307,576.719727 
	C1890.111084,557.110718 1879.856934,538.068115 1869.464966,519.173889 
	C1859.871338,501.731445 1849.750244,484.541687 1839.081421,467.735901 
	C1817.196167,433.261841 1793.243774,400.217529 1767.137817,368.819153 
	C1752.527710,351.247375 1737.368896,334.087372 1721.706299,317.448883 
	C1708.391846,303.304962 1694.250977,289.905853 1680.017090,276.670258 
	C1665.683350,263.341797 1651.004639,250.361115 1636.067017,237.712341 
	C1622.843018,226.514847 1609.474854,215.399582 1595.419067,205.292877 
	C1573.832275,189.771042 1551.983643,174.541870 1529.534058,160.311966 
	C1508.212280,146.797043 1486.208252,134.301132 1464.062012,122.163727 
	C1448.578857,113.678017 1432.438354,106.364548 1416.430054,98.872253 
	C1402.519775,92.361740 1388.634033,85.671608 1374.290649,80.240845 
	C1349.094849,70.701073 1323.675171,61.711807 1298.120972,53.175236 
	C1282.051392,47.807098 1265.745483,42.884872 1249.228027,39.177425 
	C1219.667480,32.542362 1189.915283,26.722420 1160.147217,21.066717 
	C1144.802002,18.151222 1129.291016,15.988161 1113.780273,14.098955 
	C1099.134155,12.315066 1084.406006,11.113527 1069.684692,10.066744 
	C1056.020752,9.095149 1042.320679,8.177789 1028.632324,8.112271 
	C1007.709106,8.012125 986.777954,8.502248 965.858643,9.058208 
	C952.998230,9.399991 940.136658,10.104490 927.306152,11.057994 
	C912.921387,12.127007 898.525269,13.294693 884.217224,15.083957 
	C865.961365,17.366915 847.707886,19.861851 829.601013,23.092823 
	C807.427429,27.049423 785.237793,31.165810 763.359924,36.470303 
	C731.343811,44.232937 699.552673,53.056385 668.823792,65.070221 
	C638.306641,77.001282 607.710999,88.857475 577.852905,102.307594 
	C554.969116,112.616051 532.717957,124.561951 511.022125,137.214432 
	C485.016174,152.380447 459.636047,168.671692 434.494629,185.248749 
	C419.047363,195.433929 404.554260,207.066177 389.032928,218.469208 
z"/>
<path fill="#EDCC6E" opacity="1.000000" stroke="none" 
	d="
M389.332825,218.258926 
	C404.554260,207.066177 419.047363,195.433929 434.494629,185.248749 
	C459.636047,168.671692 485.016174,152.380447 511.022125,137.214432 
	C532.717957,124.561951 554.969116,112.616051 577.852905,102.307594 
	C607.710999,88.857475 638.306641,77.001282 668.823792,65.070221 
	C699.552673,53.056385 731.343811,44.232937 763.359924,36.470303 
	C785.237793,31.165810 807.427429,27.049423 829.601013,23.092823 
	C847.707886,19.861851 865.961365,17.366915 884.217224,15.083957 
	C898.525269,13.294693 912.921387,12.127007 927.306152,11.057994 
	C940.136658,10.104490 952.998230,9.399991 965.858643,9.058208 
	C986.777954,8.502248 1007.709106,8.012125 1028.632324,8.112271 
	C1042.320679,8.177789 1056.020752,9.095149 1069.684692,10.066744 
	C1084.406006,11.113527 1099.134155,12.315066 1113.780273,14.098955 
	C1129.291016,15.988161 1144.802002,18.151222 1160.147217,21.066717 
	C1189.915283,26.722420 1219.667480,32.542362 1249.228027,39.177425 
	C1265.745483,42.884872 1282.051392,47.807098 1298.120972,53.175236 
	C1323.675171,61.711807 1349.094849,70.701073 1374.290649,80.240845 
	C1388.634033,85.671608 1402.519775,92.361740 1416.430054,98.872253 
	C1432.438354,106.364548 1448.578857,113.678017 1464.062012,122.163727 
	C1486.208252,134.301132 1508.212280,146.797043 1529.534058,160.311966 
	C1551.983643,174.541870 1573.832275,189.771042 1595.419067,205.292877 
	C1609.474854,215.399582 1622.843018,226.514847 1636.067017,237.712341 
	C1651.004639,250.361115 1665.683350,263.341797 1680.017090,276.670258 
	C1694.250977,289.905853 1708.391846,303.304962 1721.706299,317.448883 
	C1737.368896,334.087372 1752.527710,351.247375 1767.137817,368.819153 
	C1793.243774,400.217529 1817.196167,433.261841 1839.081421,467.735901 
	C1849.750244,484.541687 1859.871338,501.731445 1869.464966,519.173889 
	C1879.856934,538.068115 1890.111084,557.110718 1899.039307,576.719727 
	C1910.744385,602.427673 1921.724976,628.511292 1931.828369,654.888550 
	C1940.248901,676.872559 1947.751709,699.285950 1954.209106,721.923218 
	C1961.344116,746.935974 1967.169067,772.342651 1972.909424,797.725952 
	C1976.843506,815.122192 1980.024780,832.712769 1982.856445,850.326782 
	C1985.110596,864.348328 1986.575073,878.512878 1987.939575,892.657410 
	C1989.548340,909.331604 1990.753662,926.046753 1991.968018,942.756165 
	C1992.518677,950.332947 1992.818848,957.935730 1992.972900,965.531982 
	C1993.390015,986.122253 1993.997803,1006.717102 1993.887695,1027.306641 
	C1993.811768,1041.495239 1992.838257,1055.689209 1991.942993,1069.860229 
	C1991.208618,1081.486816 1990.372192,1093.130737 1988.912842,1104.682617 
	C1986.585571,1123.105957 1983.914429,1141.492798 1980.994873,1159.832397 
	C1978.261108,1177.005493 1975.487427,1194.197754 1971.868164,1211.197754 
	C1967.963623,1229.537476 1963.571655,1247.809814 1958.453735,1265.845215 
	C1952.507202,1286.801270 1946.169312,1307.692261 1938.851440,1328.201172 
	C1930.555542,1351.450684 1921.631958,1374.526855 1911.785889,1397.158325 
	C1902.030396,1419.581421 1891.471802,1441.720703 1880.006714,1463.316040 
	C1868.020264,1485.892944 1855.353638,1508.202515 1841.495728,1529.667847 
	C1824.344971,1556.233521 1805.972290,1582.033203 1787.504150,1607.715454 
	C1778.830811,1619.776978 1768.688965,1630.781372 1759.229980,1642.279175 
	C1738.715942,1667.215088 1716.666748,1690.752808 1693.316895,1713.012451 
	C1676.743652,1728.812134 1659.951416,1744.480347 1642.240723,1758.964600 
	C1617.784668,1778.965454 1593.127319,1798.890015 1567.162231,1816.829346 
	C1539.744141,1835.772705 1511.001099,1852.878540 1482.236328,1869.764160 
	C1463.516113,1880.753296 1444.154785,1890.891357 1424.309570,1899.666626 
	C1394.350342,1912.914062 1364.118286,1925.769653 1333.259766,1936.694702 
	C1302.253052,1947.672241 1270.513062,1956.726074 1238.756592,1965.383179 
	C1218.941650,1970.785034 1198.564453,1974.240356 1178.321777,1977.920776 
	C1160.875366,1981.093140 1143.291626,1983.564697 1125.713135,1985.935303 
	C1113.067139,1987.640991 1100.352783,1988.973145 1087.628174,1989.928955 
	C1070.373047,1991.225220 1053.090088,1992.342041 1035.798584,1992.915039 
	C1014.718811,1993.613647 993.616272,1993.981079 972.526245,1993.887451 
	C959.171387,1993.828125 945.804993,1992.895142 932.473572,1991.938232 
	C917.586975,1990.869629 902.666443,1989.839111 887.882568,1987.874756 
	C866.433350,1985.024658 845.070068,1981.494507 823.712280,1977.997192 
	C790.446777,1972.549927 757.799866,1964.477661 725.373718,1955.265991 
	C692.076416,1945.806641 659.230591,1934.976074 627.432556,1921.475952 
	C596.748352,1908.448608 566.594482,1894.058105 536.783997,1879.116577 
	C500.390625,1860.875610 466.069092,1838.965088 432.675995,1815.750122 
	C413.703918,1802.560547 395.507263,1788.207031 377.444824,1773.772827 
	C362.970123,1762.205811 348.858429,1750.122925 335.244049,1737.555786 
	C316.838928,1720.566162 298.559570,1703.380615 281.172668,1685.365601 
	C266.237122,1669.890625 252.289230,1653.416504 238.529556,1636.864746 
	C224.247620,1619.684448 210.074402,1602.342285 197.028915,1584.224731 
	C182.644623,1564.247925 169.434662,1543.414185 156.005096,1522.763794 
	C135.722626,1491.575806 118.367760,1458.713501 102.757545,1425.020020 
	C90.946800,1399.527344 80.355316,1373.433838 70.150391,1347.245605 
	C62.886959,1328.605835 56.361473,1309.590820 50.951050,1290.337402 
	C42.953667,1261.877930 35.866833,1233.145264 29.116535,1204.359131 
	C25.045937,1187.000366 22.081739,1169.364502 19.128847,1151.767822 
	C17.265535,1140.664185 16.178736,1129.419312 15.035172,1118.208130 
	C13.537588,1103.526245 12.147335,1088.828369 11.049162,1074.112183 
	C10.116483,1061.613770 9.415450,1049.086426 9.056005,1036.559204 
	C8.503651,1017.308777 7.973759,998.044800 8.111399,978.791382 
	C8.222367,963.268677 9.062117,947.735291 10.081018,932.239624 
	C11.049242,917.514648 12.315061,902.789490 14.099575,888.143494 
	C15.989479,872.632629 18.161751,857.123474 21.069231,841.776245 
	C26.739916,811.843262 32.552917,781.921448 39.211308,752.197571 
	C42.875744,735.839050 47.839836,719.711548 53.176151,703.801331 
	C61.743858,678.256653 70.731186,652.836426 80.277084,627.642395 
	C85.768715,613.148621 92.466484,599.089966 99.060623,585.041565 
	C106.434509,569.332092 113.746696,553.549133 122.092148,538.350708 
	C134.322708,516.076721 146.798080,493.883026 160.370605,472.414703 
	C174.573853,449.948700 189.815659,428.106140 205.336792,406.518280 
	C215.442749,392.462280 226.565903,379.100159 237.764816,365.877289 
	C250.415039,350.940796 263.391357,336.258026 276.723145,321.927551 
	C290.075562,307.574951 303.593445,293.317230 317.856476,279.886261 
	C334.249817,264.449249 351.470886,249.885071 368.476746,235.107864 
	C375.126831,229.329239 382.169220,224.002014 389.332825,218.258926 
M49.001392,1029.501709 
	C49.334785,1037.253296 49.566536,1045.010986 50.026550,1052.755127 
	C50.642250,1063.119995 51.269684,1073.488770 52.182392,1083.830444 
	C54.924534,1114.901001 59.038609,1145.780273 64.781830,1176.456909 
	C81.754829,1267.116211 111.197983,1353.493652 153.381958,1435.508667 
	C204.364822,1534.630615 270.646912,1622.207764 352.285278,1698.096558 
	C457.407196,1795.815308 578.434998,1866.321777 715.237671,1909.764526 
	C753.574768,1921.938599 792.677673,1931.067749 832.090454,1938.827881 
	C847.992737,1941.958862 864.178528,1943.698608 880.270020,1945.805908 
	C894.909546,1947.723022 909.561707,1949.721802 924.271790,1950.872925 
	C939.424927,1952.058716 954.653259,1952.740845 969.851501,1952.791870 
	C995.764160,1952.878784 1021.692261,1952.703613 1047.588379,1951.857910 
	C1064.705933,1951.298706 1081.777710,1949.360962 1098.871948,1948.065186 
	C1129.020508,1945.779663 1158.794189,1940.836548 1188.392578,1934.916504 
	C1278.814575,1916.831299 1364.845093,1886.291504 1446.287842,1843.001831 
	C1563.145996,1780.888062 1662.924561,1698.090576 1745.557983,1594.752808 
	C1814.881958,1508.059204 1867.403320,1412.087158 1903.107910,1306.950562 
	C1922.998535,1248.380005 1937.460205,1188.488281 1944.846191,1127.077515 
	C1948.583862,1095.999634 1951.437622,1064.711548 1952.489990,1033.444580 
	C1953.487915,1003.796204 1951.847168,974.043701 1950.903687,944.351685 
	C1950.410400,928.823669 1949.582031,913.248047 1947.730347,897.835083 
	C1944.918335,874.427490 1941.790649,851.013794 1937.560303,827.828308 
	C1920.795166,735.944153 1890.895142,648.477783 1848.079712,565.433655 
	C1798.481812,469.234283 1734.324829,383.942902 1655.818115,309.521942 
	C1582.410156,239.934677 1499.949219,183.413101 1408.537598,140.021317 
	C1335.199219,105.208687 1258.605713,80.341339 1178.865601,65.237122 
	C1161.792969,62.003246 1144.621948,58.937420 1127.355957,57.151909 
	C1096.370117,53.947601 1065.318726,50.865120 1034.216797,49.454182 
	C1009.174072,48.318127 984.011902,49.528622 958.911072,50.077644 
	C945.028564,50.381294 931.060974,50.646671 917.310425,52.361691 
	C884.872803,56.407452 852.330566,60.163719 820.208252,66.085205 
	C727.159973,83.237877 638.976624,114.746109 555.451416,159.147995 
	C439.213989,220.939636 339.836884,303.217590 257.527985,405.940857 
	C172.601944,511.930328 113.011879,630.714600 78.880051,762.216492 
	C67.391312,806.479858 59.006496,851.326538 54.257797,896.811462 
	C52.148300,917.017029 49.953426,937.266174 49.204689,957.547485 
	C48.332634,981.169006 49.001186,1004.847412 49.001392,1029.501709 
z"/>
<path fill="#000000" opacity="1.000000" stroke="none" 
	d="
M49.001289,1029.001465 
	C49.001186,1004.847412 48.332634,981.169006 49.204689,957.547485 
	C49.953426,937.266174 52.148300,917.017029 54.257797,896.811462 
	C59.006496,851.326538 67.391312,806.479858 78.880051,762.216492 
	C113.011879,630.714600 172.601944,511.930328 257.527985,405.940857 
	C339.836884,303.217590 439.213989,220.939636 555.451416,159.147995 
	C638.976624,114.746109 727.159973,83.237877 820.208252,66.085205 
	C852.330566,60.163719 884.872803,56.407452 917.310425,52.361691 
	C931.060974,50.646671 945.028564,50.381294 958.911072,50.077644 
	C984.011902,49.528622 1009.174072,48.318127 1034.216797,49.454182 
	C1065.318726,50.865120 1096.370117,53.947601 1127.355957,57.151909 
	C1144.621948,58.937420 1161.792969,62.003246 1178.865601,65.237122 
	C1258.605713,80.341339 1335.199219,105.208687 1408.537598,140.021317 
	C1499.949219,183.413101 1582.410156,239.934677 1655.818115,309.521942 
	C1734.324829,383.942902 1798.481812,469.234283 1848.079712,565.433655 
	C1890.895142,648.477783 1920.795166,735.944153 1937.560303,827.828308 
	C1941.790649,851.013794 1944.918335,874.427490 1947.730347,897.835083 
	C1949.582031,913.248047 1950.410400,928.823669 1950.903687,944.351685 
	C1951.847168,974.043701 1953.487915,1003.796204 1952.489990,1033.444580 
	C1951.437622,1064.711548 1948.583862,1095.999634 1944.846191,1127.077515 
	C1937.460205,1188.488281 1922.998535,1248.380005 1903.107910,1306.950562 
	C1867.403320,1412.087158 1814.881958,1508.059204 1745.557983,1594.752808 
	C1662.924561,1698.090576 1563.145996,1780.888062 1446.287842,1843.001831 
	C1364.845093,1886.291504 1278.814575,1916.831299 1188.392578,1934.916504 
	C1158.794189,1940.836548 1129.020508,1945.779663 1098.871948,1948.065186 
	C1081.777710,1949.360962 1064.705933,1951.298706 1047.588379,1951.857910 
	C1021.692261,1952.703613 995.764160,1952.878784 969.851501,1952.791870 
	C954.653259,1952.740845 939.424927,1952.058716 924.271790,1950.872925 
	C909.561707,1949.721802 894.909546,1947.723022 880.270020,1945.805908 
	C864.178528,1943.698608 847.992737,1941.958862 832.090454,1938.827881 
	C792.677673,1931.067749 753.574768,1921.938599 715.237671,1909.764526 
	C578.434998,1866.321777 457.407196,1795.815308 352.285278,1698.096558 
	C270.646912,1622.207764 204.364822,1534.630615 153.381958,1435.508667 
	C111.197983,1353.493652 81.754829,1267.116211 64.781830,1176.456909 
	C59.038609,1145.780273 54.924534,1114.901001 52.182392,1083.830444 
	C51.269684,1073.488770 50.642250,1063.119995 50.026550,1052.755127 
	C49.566536,1045.010986 49.334785,1037.253296 49.001289,1029.001465 
M1420.210205,1195.007568 
	C1282.106689,1281.279053 1143.990234,1367.530151 1005.964722,1453.926270 
	C1002.092957,1456.349854 999.593811,1456.138916 995.876160,1453.811523 
	C875.331482,1378.350586 754.716980,1303.001099 634.093811,1227.665405 
	C616.477173,1216.662842 598.764771,1205.813599 580.807556,1194.375488 
	C580.509583,1194.367676 580.211548,1194.359863 579.913574,1194.352051 
	C580.025208,1194.739502 580.136902,1195.126831 580.560852,1196.137939 
	C719.824280,1397.309814 859.087219,1598.481934 998.361877,1799.646118 
	C999.162048,1800.801880 1000.125061,1801.844971 1001.158875,1803.122070 
	C1002.567383,1801.116821 1003.719116,1799.497681 1004.850159,1797.864014 
	C1119.688721,1632.012939 1234.532227,1466.165405 1349.357544,1300.305054 
	C1373.520874,1265.402466 1397.617188,1230.453491 1422.104492,1195.041382 
	C1422.063965,1194.796021 1422.023438,1194.550659 1421.982910,1194.305420 
	C1421.622314,1194.501953 1421.261719,1194.698364 1420.210205,1195.007568 
M1370.293579,843.181274 
	C1247.314087,633.341980 1124.334473,423.502686 1001.012085,213.078308 
	C844.230164,480.556793 687.998840,747.096008 531.704163,1013.743347 
	C533.880859,1015.176331 535.529114,1016.288086 537.203125,1017.359741 
	C690.233948,1115.315918 843.274658,1213.256592 996.246887,1311.303955 
	C999.594116,1313.449463 1001.804932,1313.884033 1005.390564,1311.585083 
	C1154.008667,1216.299561 1302.708740,1121.141357 1451.395386,1025.962646 
	C1457.674438,1021.943237 1463.925781,1017.880371 1470.300781,1013.766418 
	C1436.949707,956.850952 1403.824463,900.320923 1370.293579,843.181274 
z"/>
<path fill="#EDCC6D" opacity="1.000000" stroke="none" 
	d="
M1370.496460,843.486084 
	C1403.824463,900.320923 1436.949707,956.850952 1470.300781,1013.766418 
	C1463.925781,1017.880371 1457.674438,1021.943237 1451.395386,1025.962646 
	C1302.708740,1121.141357 1154.008667,1216.299561 1005.390564,1311.585083 
	C1001.804932,1313.884033 999.594116,1313.449463 996.246887,1311.303955 
	C843.274658,1213.256592 690.233948,1115.315918 537.203125,1017.359741 
	C535.529114,1016.288086 533.880859,1015.176331 531.704163,1013.743347 
	C687.998840,747.096008 844.230164,480.556793 1001.012085,213.078308 
	C1124.334473,423.502686 1247.314087,633.341980 1370.496460,843.486084 
M980.997925,678.500000 
	C980.997925,559.981445 980.997925,441.462952 980.997925,322.944397 
	C980.686584,322.893768 980.375183,322.843140 980.063843,322.792511 
	C846.973267,550.843018 713.882690,778.893555 580.641418,1007.202209 
	C714.086548,1090.664795 847.166382,1173.899048 980.997925,1257.603394 
	C980.997925,1064.312012 980.997925,871.906006 980.997925,678.500000 
M1385.970825,946.550110 
	C1264.609863,738.608032 1143.248779,530.665955 1021.260376,321.648865 
	C1021.260376,634.351562 1021.260376,945.540100 1021.260376,1257.443970 
	C1154.929932,1173.839355 1288.092163,1090.552124 1421.370483,1007.192200 
	C1409.456177,986.811218 1397.879150,967.007263 1385.970825,946.550110 
z"/>
<path fill="#EDCC6D" opacity="1.000000" stroke="none" 
	d="
M581.096680,1194.893311 
	C598.764771,1205.813599 616.477173,1216.662842 634.093811,1227.665405 
	C754.716980,1303.001099 875.331482,1378.350586 995.876160,1453.811523 
	C999.593811,1456.138916 1002.092957,1456.349854 1005.964722,1453.926270 
	C1143.990234,1367.530151 1282.106689,1281.279053 1420.763672,1195.112793 
	C1421.459595,1195.320435 1421.601929,1195.423096 1421.744385,1195.525879 
	C1397.617188,1230.453491 1373.520874,1265.402466 1349.357544,1300.305054 
	C1234.532227,1466.165405 1119.688721,1632.012939 1004.850159,1797.864014 
	C1003.719116,1799.497681 1002.567383,1801.116821 1001.158875,1803.122070 
	C1000.125061,1801.844971 999.162048,1800.801880 998.361877,1799.646118 
	C859.087219,1598.481934 719.824280,1397.309814 580.619690,1195.674927 
	C580.817932,1195.105713 580.957336,1194.999512 581.096680,1194.893311 
M1283.117188,1325.934570 
	C1196.731323,1380.124878 1110.355469,1434.331055 1023.912476,1488.429810 
	C1021.311401,1490.057739 1020.963501,1491.892944 1020.965210,1494.525513 
	C1021.011108,1563.845215 1021.000244,1633.164917 1021.012695,1702.484619 
	C1021.012878,1703.688721 1021.178589,1704.892822 1021.325439,1706.891846 
	C1022.723694,1704.946045 1023.601196,1703.763184 1024.439331,1702.553101 
	C1082.433838,1618.818237 1140.434082,1535.086914 1198.413452,1451.341431 
	C1227.210449,1409.746948 1255.968872,1368.125732 1285.120850,1326.003418 
	C1284.995605,1325.697021 1284.870239,1325.390625 1284.744873,1325.084229 
	C1284.429443,1325.321777 1284.114014,1325.559204 1283.117188,1325.934570 
M717.865601,1325.261963 
	C717.660522,1325.677490 717.455383,1326.093140 717.562622,1327.129150 
	C805.087341,1453.512939 892.612061,1579.896729 980.136780,1706.280640 
	C980.424011,1706.113525 980.711182,1705.946533 980.998413,1705.779541 
	C980.998413,1704.117310 980.998352,1702.454956 980.998352,1700.792725 
	C980.998352,1632.472168 980.949707,1564.151367 981.115234,1495.831177 
	C981.125549,1491.577393 979.720337,1489.405273 976.250427,1487.235229 
	C908.546021,1444.895020 840.934204,1402.406860 773.274658,1359.994995 
	C754.964905,1348.517822 736.560791,1337.191284 717.865601,1325.261963 
z"/>
<path fill="#EDCC6D" opacity="1.000000" stroke="none" 
	d="
M580.463501,1195.363037 
	C580.136902,1195.126831 580.025208,1194.739502 579.913574,1194.352051 
	C580.211548,1194.359863 580.509583,1194.367676 580.952148,1194.634399 
	C580.957336,1194.999512 580.817932,1195.105713 580.463501,1195.363037 
z"/>
<path fill="#EDCC6D" opacity="1.000000" stroke="none" 
	d="
M1421.109131,1195.056396 
	C1421.261719,1194.698364 1421.622314,1194.501953 1421.982910,1194.305420 
	C1422.023438,1194.550659 1422.063965,1194.796021 1421.924438,1195.283691 
	C1421.601929,1195.423096 1421.459595,1195.320435 1421.109131,1195.056396 
z"/>
<path fill="#000000" opacity="1.000000" stroke="none" 
	d="
M980.997925,679.000000 
	C980.997925,871.906006 980.997925,1064.312012 980.997925,1257.603394 
	C847.166382,1173.899048 714.086548,1090.664795 580.641418,1007.202209 
	C713.882690,778.893555 846.973267,550.843018 980.063843,322.792511 
	C980.375183,322.843140 980.686584,322.893768 980.997925,322.944397 
	C980.997925,441.462952 980.997925,559.981445 980.997925,679.000000 
M723.745117,968.205139 
	C794.668396,928.468445 865.602112,888.750366 936.446289,848.873169 
	C937.991821,848.003113 939.335022,845.329712 939.376587,843.466431 
	C939.640259,831.643372 939.521179,819.811646 939.495239,807.982788 
	C939.492493,806.729004 939.275818,805.475708 939.127136,803.889648 
	C937.826660,804.535034 936.930359,804.932434 936.078430,805.409119 
	C843.078613,857.441650 750.080933,909.478088 657.096924,961.538818 
	C655.818787,962.254395 654.288513,963.027710 653.595032,964.199646 
	C647.951721,973.736877 642.480042,983.375793 636.866211,993.140076 
	C642.644775,996.733276 648.136963,999.872437 653.307007,1003.474121 
	C656.098145,1005.418579 658.175293,1005.125488 660.950256,1003.551025 
	C681.628174,991.818787 702.390686,980.235718 723.745117,968.205139 
z"/>
<path fill="#000000" opacity="1.000000" stroke="none" 
	d="
M1386.136475,946.876709 
	C1397.879150,967.007263 1409.456177,986.811218 1421.370483,1007.192200 
	C1288.092163,1090.552124 1154.929932,1173.839355 1021.260376,1257.443970 
	C1021.260376,945.540100 1021.260376,634.351562 1021.260376,321.648865 
	C1143.248779,530.665955 1264.609863,738.608032 1386.136475,946.876709 
M1284.002686,971.461487 
	C1303.137695,982.204712 1322.251831,992.985840 1341.448242,1003.618164 
	C1342.961182,1004.456116 1345.519775,1005.107300 1346.786499,1004.400635 
	C1352.980103,1000.945679 1358.900269,997.000427 1365.142212,993.087463 
	C1360.030884,984.243713 1355.294434,975.676758 1350.146240,967.364929 
	C1348.582153,964.839722 1346.224365,962.407654 1343.651489,960.963501 
	C1255.942993,911.730103 1168.165771,862.619507 1080.394775,813.497559 
	C1074.679199,810.298828 1068.935059,807.151123 1062.500732,803.590332 
	C1062.500732,818.116211 1062.411621,831.733948 1062.645874,845.346130 
	C1062.667969,846.631104 1064.482422,848.308167 1065.867310,849.086243 
	C1138.339966,889.803101 1210.856079,930.442383 1284.002686,971.461487 
z"/>
<path fill="#010100" opacity="1.000000" stroke="none" 
	d="
M718.200073,1325.795654 
	C736.560791,1337.191284 754.964905,1348.517822 773.274658,1359.994995 
	C840.934204,1402.406860 908.546021,1444.895020 976.250427,1487.235229 
	C979.720337,1489.405273 981.125549,1491.577393 981.115234,1495.831177 
	C980.949707,1564.151367 980.998352,1632.472168 980.998352,1700.792725 
	C980.998352,1702.454956 980.998413,1704.117310 980.998413,1705.779541 
	C980.711182,1705.946533 980.424011,1706.113525 980.136780,1706.280640 
	C892.612061,1579.896729 805.087341,1453.512939 717.646484,1326.644043 
	C717.886902,1326.037720 718.043518,1325.916626 718.200073,1325.795654 
z"/>
<path fill="#010100" opacity="1.000000" stroke="none" 
	d="
M1284.744873,1326.516602 
	C1255.968872,1368.125732 1227.210449,1409.746948 1198.413452,1451.341431 
	C1140.434082,1535.086914 1082.433838,1618.818237 1024.439331,1702.553101 
	C1023.601196,1703.763184 1022.723694,1704.946045 1021.325439,1706.891846 
	C1021.178589,1704.892822 1021.012878,1703.688721 1021.012695,1702.484619 
	C1021.000244,1633.164917 1021.011108,1563.845215 1020.965210,1494.525513 
	C1020.963501,1491.892944 1021.311401,1490.057739 1023.912476,1488.429810 
	C1110.355469,1434.331055 1196.731323,1380.124878 1283.692017,1326.048828 
	C1284.426147,1326.280884 1284.585571,1326.398682 1284.744873,1326.516602 
z"/>
<path fill="#010100" opacity="1.000000" stroke="none" 
	d="
M717.490234,1326.333740 
	C717.455383,1326.093140 717.660522,1325.677490 718.032837,1325.528809 
	C718.043518,1325.916626 717.886902,1326.037720 717.490234,1326.333740 
z"/>
<path fill="#010100" opacity="1.000000" stroke="none" 
	d="
M1284.032715,1325.979980 
	C1284.114014,1325.559204 1284.429443,1325.321777 1284.744873,1325.084229 
	C1284.870239,1325.390625 1284.995605,1325.697021 1284.932861,1326.260010 
	C1284.585571,1326.398682 1284.426147,1326.280884 1284.032715,1325.979980 
z"/>
<path fill="#ECCB6D" opacity="1.000000" stroke="none" 
	d="
M723.435913,968.405518 
	C702.390686,980.235718 681.628174,991.818787 660.950256,1003.551025 
	C658.175293,1005.125488 656.098145,1005.418579 653.307007,1003.474121 
	C648.136963,999.872437 642.644775,996.733276 636.866211,993.140076 
	C642.480042,983.375793 647.951721,973.736877 653.595032,964.199646 
	C654.288513,963.027710 655.818787,962.254395 657.096924,961.538818 
	C750.080933,909.478088 843.078613,857.441650 936.078430,805.409119 
	C936.930359,804.932434 937.826660,804.535034 939.127136,803.889648 
	C939.275818,805.475708 939.492493,806.729004 939.495239,807.982788 
	C939.521179,819.811646 939.640259,831.643372 939.376587,843.466431 
	C939.335022,845.329712 937.991821,848.003113 936.446289,848.873169 
	C865.602112,888.750366 794.668396,928.468445 723.435913,968.405518 
z"/>
<path fill="#ECCB6D" opacity="1.000000" stroke="none" 
	d="
M1283.685181,971.275696 
	C1210.856079,930.442383 1138.339966,889.803101 1065.867310,849.086243 
	C1064.482422,848.308167 1062.667969,846.631104 1062.645874,845.346130 
	C1062.411621,831.733948 1062.500732,818.116211 1062.500732,803.590332 
	C1068.935059,807.151123 1074.679199,810.298828 1080.394775,813.497559 
	C1168.165771,862.619507 1255.942993,911.730103 1343.651489,960.963501 
	C1346.224365,962.407654 1348.582153,964.839722 1350.146240,967.364929 
	C1355.294434,975.676758 1360.030884,984.243713 1365.142212,993.087463 
	C1358.900269,997.000427 1352.980103,1000.945679 1346.786499,1004.400635 
	C1345.519775,1005.107300 1342.961182,1004.456116 1341.448242,1003.618164 
	C1322.251831,992.985840 1303.137695,982.204712 1283.685181,971.275696 
z"/>
</svg>