<svg xmlns="http://www.w3.org/2000/svg" xml:space="preserve" viewBox="0 0 67.6 68.2"><linearGradient id="a" x1="48.07" x2="19.555" y1="66.31" y2="16.921" gradientUnits="userSpaceOnUse"><stop offset="0" style="stop-color:#14a8dd"/><stop offset=".2" style="stop-color:#333290"/><stop offset=".4" style="stop-color:#e81788"/><stop offset=".6" style="stop-color:#e92d2e"/><stop offset=".8" style="stop-color:#fce82c"/><stop offset="1" style="stop-color:#1e9d53"/></linearGradient><path d="M38.9 15.2c-15.1-1.9-26.8 5-32.1 10.5-.4.4-2 2.6-.8 3.3 1.8 1.1 5.6-.4 9.7 1 10.7 3.8 8.9 9.9-2.9 10.3-7 .3-12.7-3-12.8.8C-.4 56 14.6 68.2 33.6 68.2s34.2-12.2 34-27.1c-.1-13.2-12.7-23.9-28.7-25.9m2.9 10.9c0 2.5-2.9 6.1-8 6.1s-8.6-3.6-8.4-6.1c.5-6.3 16.4-9.8 16.4 0M10.7 53.2c-3.2-1.1-5.2-3.4-4.6-5s3.7-2 6.8-.9 5.2 3.4 4.6 5-3.7 2-6.8.9m17.5 7.2c-.5 1.5-3.5 2.1-6.6 1.3-3.2-.8-5.3-2.7-4.8-4.2s3.5-2.1 6.6-1.3 5.3 2.7 4.8 4.2m9.9 2.6c-3.2.4-5.9-.7-6-2.3-.1-1.7 2.4-3.3 5.6-3.7s5.9.6 6 2.3c.2 1.6-2.4 3.3-5.6 3.7m12.4-6.1c-3.2.1-5.8-1.3-5.8-3s2.7-3.1 5.9-3.2 5.8 1.3 5.8 3c-.1 1.7-2.7 3.1-5.9 3.2m7.9-9.3c-3.2.2-5.8-1-5.9-2.7 0-1.7 2.5-3.3 5.7-3.5s5.8 1 5.9 2.7c0 1.7-2.5 3.3-5.7 3.5" style="fill:url(#a)"/><linearGradient id="b" x1="25.51" x2="7.873" y1="44.013" y2="13.465" gradientUnits="userSpaceOnUse"><stop offset="0" style="stop-color:#14a8dd"/><stop offset=".2" style="stop-color:#333290"/><stop offset=".4" style="stop-color:#e81788"/><stop offset=".6" style="stop-color:#e92d2e"/><stop offset=".8" style="stop-color:#fce82c"/><stop offset="1" style="stop-color:#1e9d53"/></linearGradient><path d="M.6 57.9s4 1.9 18.4-23.1c-2.2-1.3-6.6-3.8-7.7-4.4C-3.1 55.4.6 57.9.6 57.9m11.7-29 7.7 4.4 5.6-13.2-4.6-2.7zM33.1 0c-1.5-.1-7.4 2.1-9.7 6.1-2.7 4.4-1.8 10.7-1.8 10.7l4 2.3s9.8.7 8.5-13.6c-.2-1.6-.5-3.4-1-5.5m-1.8 13.6c-2.7 2.5-4.2 2.9-4.2 2.9s2.4-2.8 3-3.7c1.3-1.9.7-10.4.7-10.4s3 8.4.5 11.2" style="fill:url(#b)"/></svg>