<?xml version="1.0" encoding="utf-8"?>
<!-- Generator: Adobe Illustrator 24.1.2, SVG Export Plug-In . SVG Version: 6.00 Build 0)  -->
<svg version="1.1" id="Layer_1" xmlns="http://www.w3.org/2000/svg" xmlns:xlink="http://www.w3.org/1999/xlink" x="0px" y="0px"
	 viewBox="0 0 67.6 68.2" style="enable-background:new 0 0 67.6 68.2;" xml:space="preserve">
<style type="text/css">
	.st0{fill:url(#SVGID_1_);}
	.st1{fill:url(#mop_x5F_brush_2_);}
</style>
<g>
	<linearGradient id="SVGID_1_" gradientUnits="userSpaceOnUse" x1="48.0701" y1="66.3101" x2="19.555" y2="16.9205">
		<stop  offset="0" style="stop-color:#14A8DD"/>
		<stop  offset="0.2" style="stop-color:#333290"/>
		<stop  offset="0.4" style="stop-color:#E81788"/>
		<stop  offset="0.6" style="stop-color:#E92D2E"/>
		<stop  offset="0.8" style="stop-color:#FCE82C"/>
		<stop  offset="1" style="stop-color:#1E9D53"/>
	</linearGradient>
	<path class="st0" d="M38.9,15.2c-15.1-1.9-26.8,5-32.1,10.5c-0.4,0.4-2,2.6-0.8,3.3c1.8,1.1,5.6-0.4,9.7,1
		c10.7,3.8,8.9,9.9-2.9,10.3c-7,0.3-12.7-3-12.8,0.8C-0.4,56,14.6,68.2,33.6,68.2s34.2-12.2,34-27.1C67.5,27.9,54.9,17.2,38.9,15.2z
		 M41.8,26.1c0,2.5-2.9,6.1-8,6.1c-5.1,0-8.6-3.6-8.4-6.1C25.9,19.8,41.8,16.3,41.8,26.1z M10.7,53.2c-3.2-1.1-5.2-3.4-4.6-5
		c0.6-1.6,3.7-2,6.8-0.9c3.1,1.1,5.2,3.4,4.6,5C16.9,53.9,13.8,54.3,10.7,53.2z M28.2,60.4c-0.5,1.5-3.5,2.1-6.6,1.3
		c-3.2-0.8-5.3-2.7-4.8-4.2c0.5-1.5,3.5-2.1,6.6-1.3C26.5,57,28.7,58.9,28.2,60.4z M38.1,63c-3.2,0.4-5.9-0.7-6-2.3
		c-0.1-1.7,2.4-3.3,5.6-3.7c3.2-0.4,5.9,0.6,6,2.3C43.9,60.9,41.3,62.6,38.1,63z M50.5,56.9c-3.2,0.1-5.8-1.3-5.8-3
		c0-1.7,2.7-3.1,5.9-3.2c3.2-0.1,5.8,1.3,5.8,3C56.3,55.4,53.7,56.8,50.5,56.9z M58.4,47.6c-3.2,0.2-5.8-1-5.9-2.7
		c0-1.7,2.5-3.3,5.7-3.5c3.2-0.2,5.8,1,5.9,2.7C64.1,45.8,61.6,47.4,58.4,47.6z"/>
	<linearGradient id="mop_x5F_brush_2_" gradientUnits="userSpaceOnUse" x1="25.5097" y1="44.0128" x2="7.8731" y2="13.4653">
		<stop  offset="0" style="stop-color:#14A8DD"/>
		<stop  offset="0.2" style="stop-color:#333290"/>
		<stop  offset="0.4" style="stop-color:#E81788"/>
		<stop  offset="0.6" style="stop-color:#E92D2E"/>
		<stop  offset="0.8" style="stop-color:#FCE82C"/>
		<stop  offset="1" style="stop-color:#1E9D53"/>
	</linearGradient>
	<path id="mop_x5F_brush_1_" class="st1" d="M0.6,57.9c0,0,4,1.9,18.4-23.1c-2.2-1.3-6.6-3.8-7.7-4.4C-3.1,55.4,0.6,57.9,0.6,57.9z
		 M12.3,28.9l7.7,4.4l5.6-13.2l-4.6-2.7L12.3,28.9z M33.1,0c-1.5-0.1-7.4,2.1-9.7,6.1c-2.7,4.4-1.8,10.7-1.8,10.7l4,2.3
		c0,0,9.8,0.7,8.5-13.6C33.9,3.9,33.6,2.1,33.1,0z M31.3,13.6c-2.7,2.5-4.2,2.9-4.2,2.9s2.4-2.8,3-3.7c1.3-1.9,0.7-10.4,0.7-10.4
		S33.8,10.8,31.3,13.6z"/>
</g>
</svg>
