<svg xmlns="http://www.w3.org/2000/svg" viewBox="0 0 41.49 48"><g id="Layer_2" data-name="Layer 2"><g id="Layer_1-2" data-name="Layer 1"><path d="M36.63,14.8V33.19l-15.9,9.19-.1,0-.06,0L4.86,33.19V14.8L20.6,5.63Z" fill="#119afa"/><path d="M26.1,31.39h9L33.64,29.3h0L27.4,20.47h0l-6.65-9.4-6.66,9.4h0L7.84,29.3h0L6.37,31.39h9l-1.83-2.65H11.48l2.42-3.42h0l4.29,6.07H23.3l4.29-6.07L30,28.74H27.93Zm-4.17-2.65H19.56l-4-5.71,5.23-7.39L26,23Z" fill="#fff"/><path d="M20.57,2.54,39.29,13.25V34.72L20.68,45.48,2.2,34.73V13.24L20.57,2.54m0-2.54L0,12V36L20.56,48l.16,0L41.49,36V12L20.56,0Z" fill="#119afa"/></g></g></svg>