<svg width="600" height="600" viewBox="0 0 600 600" fill="none" xmlns="http://www.w3.org/2000/svg">
<circle cx="300" cy="300" r="300" fill="#4DCAFF"/>
<path d="M202.166 436.539C205.037 441.516 210.342 444.582 216.084 444.582H246.896L171.179 313.044C166.737 305.326 166.739 295.823 171.186 288.107L226.087 192.857C226.581 191.998 227.496 191.469 228.486 191.469H291.205C292.195 191.469 293.109 191.998 293.604 192.856L354.88 299.137C355.374 299.995 355.374 301.052 354.88 301.91L312.93 374.682H353.263L391.193 308.825C394.157 303.679 394.156 297.341 391.19 292.196L317.756 164.811C314.788 159.661 309.3 156.488 303.361 156.488H216.341C210.403 156.488 204.916 159.66 201.947 164.808L141.281 270.008C130.392 288.889 130.395 312.152 141.288 331.03L202.166 436.539Z" fill="white"/>
<path d="M397.834 164.856C394.963 159.879 389.657 156.813 383.916 156.813L353.104 156.813L428.821 288.351C433.263 296.069 433.261 305.572 428.814 313.288L373.913 408.539C373.419 409.397 372.504 409.926 371.514 409.926H308.795C307.805 409.926 306.89 409.397 306.396 408.539L245.12 302.258C244.626 301.4 244.626 300.343 245.12 299.485L287.07 226.713L246.737 226.713L208.807 292.57C205.843 297.716 205.844 304.054 208.81 309.199L282.244 436.585C285.212 441.734 290.7 444.907 296.639 444.907L383.658 444.907C389.597 444.907 395.084 441.735 398.053 436.587L458.719 331.387C469.608 312.506 469.605 289.244 458.712 270.365L397.834 164.856Z" fill="white"/>
</svg>
