<svg xmlns="http://www.w3.org/2000/svg" viewBox="0 0 128 128"><path fill="url(#a)" d="M126.084 79.482c-8.549 34.286-43.278 55.152-77.572 46.602-34.28-8.548-55.148-43.276-46.595-77.56C10.462 14.236 45.192-6.632 79.475 1.916c34.292 8.548 55.158 43.28 46.609 77.567"/><path fill="#fff" fill-rule="evenodd" d="M74.781 29.41a4 4 0 1 1 7.729 2.07l-1.695 6.324 1.051.282c7.567 2.027 12.057 9.805 10.03 17.372l-.094.35c-1.581 5.9-6.75 9.88-12.53 10.223l-.001.005h-.092l-.007.001-.028.001c-.421.035-.5.64-.08.771v.002c7.282 2.884 11.405 10.834 9.329 18.582-2.236 8.343-10.811 13.294-19.154 11.058l-2.456-.658-1.694 6.323a4 4 0 1 1-7.728-2.071l1.694-6.322-7.027-1.883-1.694 6.322a4 4 0 1 1-7.728-2.07l1.694-6.323-7.029-1.883-3.863-1.036a4.364 4.364 0 1 1 2.26-8.43l3.863 1.034 10.919-40.75-3.51-.94a4.364 4.364 0 1 1 2.26-8.432l3.512.941v.001l5.62 1.506 1.694-6.324a4 4 0 1 1 7.729 2.07l-1.695 6.325 7.027 1.882zM55.807 56.413a5.143 5.143 0 0 1 3.637-6.298l14.39-3.856a5.142 5.142 0 1 1 2.661 9.934l-14.39 3.856a5.14 5.14 0 0 1-6.298-3.636m-6.58 23.269a5.14 5.14 0 0 1 3.636-6.298l14.39-3.856a5.142 5.142 0 1 1 2.662 9.935l-14.39 3.855a5.14 5.14 0 0 1-6.298-3.636"/><defs><linearGradient id="a" x1="64" x2="64" y1="0" y2="128" gradientUnits="userSpaceOnUse"><stop stop-color="#FEDF70"/><stop offset="1" stop-color="#D88528"/></linearGradient></defs></svg>
