<svg xmlns="http://www.w3.org/2000/svg" width="96" height="96" fill="none"><path fill="#000" d="M48 94.08a46.08 46.08 0 1 1 32.584-13.495A45.79 45.79 0 0 1 48 94.08"/><path fill="url(#a)" d="M79.226 16.774A44.171 44.171 0 0 1 31.38 88.926 44.172 44.172 0 0 1 64.624 7.08a43.9 43.9 0 0 1 14.602 9.695m2.715-2.715c-18.745-18.745-49.137-18.745-67.882 0s-18.745 49.137 0 67.882 49.137 18.745 67.882 0 18.745-49.137 0-67.882"/><path fill="#fff" d="M41.868 60.854 36.11 71.808l-.305.58H48l-6.096-11.6zM29.94 54.336l-.23-.71-.294.902-4.39 13.517a9.26 9.26 0 0 0 7.854 4.34h2.926l-.138-.429zM54.133 60.854l-.037-.067L48 72.387h12.194l-.305-.58zM66.29 53.618l-.23.71-5.728 17.632-.138.428h2.926a9.26 9.26 0 0 0 7.855-4.349l-4.391-13.51zM41.868 35.146l.036.067L48 23.613H35.806l.305.58zM54.133 35.146l5.756-10.954.305-.58H48l6.096 11.601zM29.71 42.382l.23-.71 5.728-17.631.138-.429H32.88a9.26 9.26 0 0 0-7.855 4.35l4.391 13.51zM66.06 41.664l.23.71.294-.904 4.39-13.516a9.26 9.26 0 0 0-7.854-4.338h-2.926l.138.428z"/><defs><linearGradient id="a" x1="81.941" x2="14.059" y1="14.059" y2="81.941" gradientUnits="userSpaceOnUse"><stop stop-color="#FF6A01"/><stop offset="1" stop-color="#FFCF01"/></linearGradient></defs></svg>