<svg xmlns="http://www.w3.org/2000/svg" xml:space="preserve" width="3023.627" height="3023.627"><defs><clipPath id="a" clipPathUnits="userSpaceOnUse"><path d="M0 2267.716h2267.716V0H0Z"/></clipPath></defs><g clip-path="url(#a)" transform="matrix(1.33333 0 0 -1.33333 0 3023.627)"><path d="M0 0h2267.716v2267.716H0Z" style="fill:none;stroke:#fff;stroke-width:.216;stroke-linecap:butt;stroke-linejoin:miter;stroke-miterlimit:22.926;stroke-dasharray:none;stroke-opacity:1"/><path d="M0 0q-.21-.004-.422-.004c-8.379 0-15.71 4.496-19.715 11.205l-152.12 309.639-.001.017a22.9 22.9 0 0 0-1.966 9.302c0 1.989.255 3.917.731 5.758l31.432 103.735 120.137 396.463c3.309 8.604 11.653 14.713 21.422 14.713q.251 0 .502-.006z" style="fill:#e3bb5f;fill-opacity:1;fill-rule:evenodd;stroke:none" transform="translate(1133.857 1005.686)"/><path d="M0 0c4.122-6.113 11.111-10.134 19.037-10.134q.465 0 .926.02v-233.785h-.027c-2.871 0-5.618-.528-8.151-1.492l-408.278-184.548a22.9 22.9 0 0 0-8.804-1.754c-12.669 0-22.944 10.275-22.944 22.944 0 1.166.088 2.312.256 3.431l213.767 705.399c3.398 8.422 11.649 14.368 21.286 14.368 8.341 0 15.641-4.455 19.657-11.114z" style="fill:#e3bb5f;fill-opacity:1;fill-rule:evenodd;stroke:none" transform="translate(1113.894 842.894)"/><path d="M0 0q.21-.004.422-.004c8.379 0 15.71 4.496 19.715 11.205l152.12 309.639.002.017a22.9 22.9 0 0 1 1.965 9.302c0 1.989-.255 3.917-.731 5.758l-31.431 103.735L21.924 836.115c-3.309 8.604-11.653 14.713-21.421 14.713q-.252 0-.503-.006z" style="fill:#dba628;fill-opacity:1;fill-rule:evenodd;stroke:none" transform="translate(1133.859 1005.686)"/><path d="M0 0c-4.122-6.113-11.111-10.134-19.037-10.134q-.466 0-.926.02v-233.785h.027c2.871 0 5.618-.528 8.151-1.492l408.277-184.548a22.9 22.9 0 0 1 8.805-1.754c12.669 0 22.944 10.275 22.944 22.944 0 1.166-.088 2.312-.256 3.431L214.219 300.081c-3.399 8.422-11.65 14.368-21.287 14.368-8.341 0-15.641-4.455-19.658-11.114z" style="fill:#dba628;fill-opacity:1;fill-rule:evenodd;stroke:none" transform="translate(1153.822 842.894)"/><path d="m0 0-438.637-63.72c-9.329-2.912-16.105-11.62-16.105-21.905a22.86 22.86 0 0 1 6.003-15.469l315.875-307.903a22.85 22.85 0 0 1 15.096-5.671c9.927 0 18.384 6.31 21.58 15.136l.019.004L24.093-29.359l-.012.008c.609 2.061.935 4.243.935 6.501C25.016-10.181 14.742.094 2.072.094Q1.024.094 0 0" style="fill:#e3bb5f;fill-opacity:1;fill-rule:evenodd;stroke:none" transform="translate(824.08 1338.231)"/><path d="m0 0 438.637-63.72c9.329-2.912 16.105-11.62 16.105-21.905a22.86 22.86 0 0 0-6.003-15.469L132.864-408.997a22.85 22.85 0 0 0-15.096-5.671c-9.927 0-18.384 6.31-21.58 15.136l-.019.004L-24.093-29.359l.012.008a23 23 0 0 0-.935 6.501C-25.016-10.181-14.741.094-2.072.094Q-1.023.094 0 0" style="fill:#dba628;fill-opacity:1;fill-rule:evenodd;stroke:none" transform="translate(1443.635 1338.231)"/></g></svg>