<?xml version="1.0" encoding="UTF-8" standalone="no"?>
<svg
   xmlns:dc="http://purl.org/dc/elements/1.1/"
   xmlns:cc="http://creativecommons.org/ns#"
   xmlns:rdf="http://www.w3.org/1999/02/22-rdf-syntax-ns#"
   xmlns:svg="http://www.w3.org/2000/svg"
   xmlns="http://www.w3.org/2000/svg"
   xmlns:sodipodi="http://sodipodi.sourceforge.net/DTD/sodipodi-0.dtd"
   xmlns:inkscape="http://www.inkscape.org/namespaces/inkscape"
   version="1.1"
   id="svg2"
   xml:space="preserve"
   width="3023.6267"
   height="3023.6267"
   viewBox="0 0 3023.6267 3023.6267"
   sodipodi:docname="STARS LOGO AI.ai"><metadata
     id="metadata8"><rdf:RDF><cc:Work
         rdf:about=""><dc:format>image/svg+xml</dc:format><dc:type
           rdf:resource="http://purl.org/dc/dcmitype/StillImage" /></cc:Work></rdf:RDF></metadata><defs
     id="defs6"><clipPath
       clipPathUnits="userSpaceOnUse"
       id="clipPath18"><path
         d="M 0,2267.716 H 2267.716 V 0 H 0 Z"
         id="path16" /></clipPath></defs><sodipodi:namedview
     pagecolor="#ffffff"
     bordercolor="#666666"
     borderopacity="1"
     objecttolerance="10"
     gridtolerance="10"
     guidetolerance="10"
     inkscape:pageopacity="0"
     inkscape:pageshadow="2"
     inkscape:window-width="640"
     inkscape:window-height="480"
     id="namedview4" /><g
     id="g10"
     inkscape:groupmode="layer"
     inkscape:label="STARS LOGO AI"
     transform="matrix(1.3333333,0,0,-1.3333333,0,3023.6267)"><g
       id="g12"><g
         id="g14"
         clip-path="url(#clipPath18)"><path
           d="M 0,0 H 2267.716 V 2267.716 H 0 Z"
           style="fill:none;stroke:#ffffff;stroke-width:0.216;stroke-linecap:butt;stroke-linejoin:miter;stroke-miterlimit:22.926;stroke-dasharray:none;stroke-opacity:1"
           id="path20" /><g
           id="g22"
           transform="translate(1133.8571,1005.6864)"><path
             d="m 0,0 c -0.14,-0.003 -0.281,-0.004 -0.422,-0.004 -8.379,0 -15.71,4.496 -19.715,11.205 l -152.12,309.639 -0.001,0.017 c -1.263,2.844 -1.966,5.99 -1.966,9.302 0,1.989 0.255,3.917 0.731,5.758 l 31.432,103.735 120.137,396.463 c 3.309,8.604 11.653,14.713 21.422,14.713 0.167,0 0.335,-0.003 0.502,-0.006 z"
             style="fill:#e3bb5f;fill-opacity:1;fill-rule:evenodd;stroke:none"
             id="path24" /></g><g
           id="g26"
           transform="translate(1113.8944,842.8944)"><path
             d="m 0,0 c 4.122,-6.113 11.111,-10.134 19.037,-10.134 0.31,0 0.619,0.007 0.926,0.02 v -233.785 h -0.027 c -2.871,0 -5.618,-0.528 -8.151,-1.492 l -408.278,-184.548 c -2.711,-1.128 -5.685,-1.754 -8.804,-1.754 -12.669,0 -22.944,10.275 -22.944,22.944 0,1.166 0.088,2.312 0.256,3.431 l 213.767,705.399 c 3.398,8.422 11.649,14.368 21.286,14.368 8.341,0 15.641,-4.455 19.657,-11.114 z"
             style="fill:#e3bb5f;fill-opacity:1;fill-rule:evenodd;stroke:none"
             id="path28" /></g><g
           id="g30"
           transform="translate(1133.8589,1005.6864)"><path
             d="m 0,0 c 0.14,-0.003 0.281,-0.004 0.422,-0.004 8.379,0 15.71,4.496 19.715,11.205 l 152.12,309.639 0.002,0.017 c 1.262,2.844 1.965,5.99 1.965,9.302 0,1.989 -0.255,3.917 -0.731,5.758 L 142.062,439.652 21.924,836.115 c -3.309,8.604 -11.653,14.713 -21.421,14.713 -0.168,0 -0.336,-0.003 -0.503,-0.006 z"
             style="fill:#dba628;fill-opacity:1;fill-rule:evenodd;stroke:none"
             id="path32" /></g><g
           id="g34"
           transform="translate(1153.8218,842.8944)"><path
             d="m 0,0 c -4.122,-6.113 -11.111,-10.134 -19.037,-10.134 -0.311,0 -0.619,0.007 -0.926,0.02 v -233.785 h 0.027 c 2.871,0 5.618,-0.528 8.151,-1.492 l 408.277,-184.548 c 2.712,-1.128 5.686,-1.754 8.805,-1.754 12.669,0 22.944,10.275 22.944,22.944 0,1.166 -0.088,2.312 -0.256,3.431 L 214.219,300.081 c -3.399,8.422 -11.65,14.368 -21.287,14.368 -8.341,0 -15.641,-4.455 -19.658,-11.114 z"
             style="fill:#dba628;fill-opacity:1;fill-rule:evenodd;stroke:none"
             id="path36" /></g><g
           id="g38"
           transform="translate(824.0808,1338.2314)"><path
             d="m 0,0 -438.637,-63.72 c -9.329,-2.912 -16.105,-11.62 -16.105,-21.905 0,-5.961 2.276,-11.389 6.003,-15.469 l 315.875,-307.903 c 4.035,-3.53 9.315,-5.671 15.096,-5.671 9.927,0 18.384,6.31 21.58,15.136 l 0.019,0.004 120.262,370.169 -0.012,0.008 c 0.609,2.061 0.935,4.243 0.935,6.501 0,12.669 -10.274,22.944 -22.944,22.944 C 1.373,0.094 0.683,0.062 0,0"
             style="fill:#e3bb5f;fill-opacity:1;fill-rule:evenodd;stroke:none"
             id="path40" /></g><g
           id="g42"
           transform="translate(1443.6351,1338.2314)"><path
             d="m 0,0 438.637,-63.72 c 9.329,-2.912 16.105,-11.62 16.105,-21.905 0,-5.961 -2.276,-11.389 -6.003,-15.469 L 132.864,-408.997 c -4.035,-3.53 -9.315,-5.671 -15.096,-5.671 -9.927,0 -18.384,6.31 -21.58,15.136 l -0.019,0.004 -120.262,370.169 0.012,0.008 c -0.608,2.061 -0.935,4.243 -0.935,6.501 0,12.669 10.275,22.944 22.944,22.944 C -1.373,0.094 -0.682,0.062 0,0"
             style="fill:#dba628;fill-opacity:1;fill-rule:evenodd;stroke:none"
             id="path44" /></g></g></g></g></svg>
