<svg xmlns="http://www.w3.org/2000/svg" width="500" height="500" fill="none"><mask id="a" width="500" height="500" x="0" y="0" maskUnits="userSpaceOnUse" style="mask-type:alpha"><path fill="#D9D9D9" d="M250 500c138.071 0 250-111.929 250-250S388.071 0 250 0 0 111.929 0 250s111.929 250 250 250"/></mask><g mask="url(#a)"><path fill="#E50571" d="M500 0H0v500h500z"/><path fill="#fff" d="M252.176 92.028c-19.409 0-35.148 70.402-35.148 157.248 0 86.844 15.739 157.246 35.148 157.246 19.411 0 35.15-70.402 35.15-157.246 0-86.846-15.739-157.248-35.15-157.248m2.428 305.62c-2.219 2.961-4.439.739-4.439.739-8.939-10.357-13.408-29.598-13.408-29.598-15.637-50.319-11.916-158.356-11.916-158.356 7.348-85.772 20.716-106.033 25.266-110.532a2.77 2.77 0 0 1 3.558-.287c6.6 4.676 12.135 24.235 12.135 24.235 16.346 60.678 14.865 117.658 14.865 117.658 1.481 49.578-8.191 105.076-8.191 105.076-7.444 42.178-17.87 51.065-17.87 51.065"/><path fill="#fff" d="M388.572 171.016c-9.666-16.842-78.557 4.543-153.924 47.76-75.366 43.215-128.528 91.904-118.871 108.741 9.657 16.835 78.557-4.543 153.923-47.761 75.365-43.215 128.528-91.905 118.872-108.74m-263.879 154.19c-3.7-.465-2.864-3.506-2.864-3.506 4.538-12.907 18.981-26.359 18.981-26.359 35.882-38.604 131.451-89.139 131.451-89.139 78.045-36.311 102.289-34.779 108.439-33.086a2.779 2.779 0 0 1 2.013 2.961c-.739 8.056-14.985 22.585-14.985 22.585-44.467 44.392-94.63 71.468-94.63 71.468-42.27 25.965-95.221 45.183-95.221 45.183-40.292 14.517-53.182 9.893-53.182 9.893z"/><path fill="#fff" d="M388.231 328.082c9.739-16.797-43.29-65.708-118.392-109.25-75.1-43.542-143.984-65.192-153.714-48.365-9.731 16.826 43.289 65.711 118.434 109.252 75.143 43.542 143.941 65.192 153.672 48.363M122.578 176.957c-1.439-3.411 1.598-4.232 1.598-4.232 13.445-2.539 32.33 3.247 32.33 3.247 51.377 11.699 142.99 69.084 142.99 69.084 70.535 49.359 81.352 71.098 82.974 77.27a2.774 2.774 0 0 1-1.539 3.226c-7.357 3.367-27.055-1.65-27.055-1.65-60.715-16.278-109.274-46.107-109.274-46.107-43.629-23.532-86.77-59.739-86.77-59.739-32.781-27.601-35.244-41.061-35.244-41.061z"/><path fill="#fff" d="M251.809 267.4c10.215 0 18.497-8.283 18.497-18.5s-8.282-18.5-18.497-18.5c-10.218 0-18.5 8.283-18.5 18.5s8.282 18.5 18.5 18.5M327.654 188.96c5.926 0 10.731-4.969 10.731-11.1s-4.805-11.099-10.731-11.099-10.728 4.969-10.728 11.099c0 6.131 4.802 11.1 10.728 11.1M151.54 226.698c5.926 0 10.73-4.97 10.73-11.1s-4.804-11.1-10.73-11.1-10.73 4.97-10.73 11.1 4.804 11.1 10.73 11.1M229.978 362.856c5.926 0 10.731-4.969 10.731-11.1s-4.805-11.1-10.731-11.1-10.73 4.97-10.73 11.1c0 6.131 4.804 11.1 10.73 11.1"/></g></svg>