<svg width="37" height="37" viewBox="0 0 37 37" fill="none" xmlns="http://www.w3.org/2000/svg">
<g clip-path="url(#clip0_7469_11301)">
<mask id="mask0_7469_11301" style="mask-type:luminance" maskUnits="userSpaceOnUse" x="0" y="0" width="37" height="37">
<path d="M0 0H37V37H0V0Z" fill="white"/>
</mask>
<g mask="url(#mask0_7469_11301)">
<path d="M18.4999 36.8069C28.6104 36.8069 36.8068 28.6106 36.8068 18.5001C36.8068 8.38953 28.6104 0.193359 18.4999 0.193359C8.38941 0.193359 0.193237 8.38953 0.193237 18.5001C0.193237 28.6106 8.38941 36.8069 18.4999 36.8069Z" fill="#D1F019" stroke="#D1F019" stroke-width="0.386561"/>
<path d="M15.5962 3.62402V5.01828L15.5467 5.05496C12.1732 5.76789 9.15868 7.80513 7.19221 10.6175C4.05406 15.1065 3.89627 21.0903 6.80162 25.7378C8.74849 28.8513 11.9344 31.129 15.5467 31.8871L15.5962 31.9246V33.3189C11.8193 32.6214 8.39886 30.3931 6.16889 27.2916C2.25896 21.8535 2.40395 14.4277 6.539 9.15931C8.77407 6.31277 12.018 4.28578 15.597 3.62489L15.5962 3.62402ZM21.3763 33.318V31.8811C24.9459 31.1417 28.1336 28.8794 30.0736 25.8137C33.1623 20.9307 32.8621 14.6024 29.3129 10.0504C27.3507 7.53388 24.5178 5.72346 21.3822 5.05659L21.3771 3.62478C25.1983 4.37439 28.6358 6.61628 30.8615 9.79625C34.5574 15.0749 34.4977 22.1349 30.7174 27.3495C28.4866 30.4263 25.1173 32.5829 21.3763 33.3197V33.318Z" fill="#292929"/>
<g filter="url(#filter0_d_7469_11301)">
<path d="M19.5844 17.452C21.8578 17.8688 23.8659 18.5507 23.8469 21.2219C23.828 23.4195 22.2367 24.9919 19.717 25.3329V27.3221H17.3679V25.314C14.7725 24.8972 13.2001 23.268 13.1812 20.9378L15.966 20.9757C16.0607 22.2639 17.0837 23.1543 18.713 23.1543C20.0201 23.1543 20.9863 22.5859 20.9863 21.544C20.9863 20.4263 19.9065 20.1989 17.6899 19.7632C15.4545 19.3464 13.4843 18.6266 13.4843 15.9364C13.4843 13.8715 14.9809 12.3369 17.3679 11.9959V9.98779H19.717V12.0149C22.0851 12.4127 23.5438 13.9093 23.5817 16.088H20.7968C20.6642 14.9702 19.8118 14.1935 18.4288 14.1935C17.2163 14.1935 16.3449 14.705 16.3449 15.728C16.3449 16.8079 17.3868 17.0352 19.5844 17.452Z" fill="#292929"/>
</g>
</g>
</g>
<defs>
<filter id="filter0_d_7469_11301" x="12.9373" y="9.98779" width="11.1535" height="17.8221" filterUnits="userSpaceOnUse" color-interpolation-filters="sRGB">
<feFlood flood-opacity="0" result="BackgroundImageFix"/>
<feColorMatrix in="SourceAlpha" type="matrix" values="0 0 0 0 0 0 0 0 0 0 0 0 0 0 0 0 0 0 127 0" result="hardAlpha"/>
<feOffset dy="0.243816"/>
<feGaussianBlur stdDeviation="0.121908"/>
<feComposite in2="hardAlpha" operator="out"/>
<feColorMatrix type="matrix" values="0 0 0 0 0 0 0 0 0 0 0 0 0 0 0 0 0 0 0.25 0"/>
<feBlend mode="normal" in2="BackgroundImageFix" result="effect1_dropShadow_7469_11301"/>
<feBlend mode="normal" in="SourceGraphic" in2="effect1_dropShadow_7469_11301" result="shape"/>
</filter>
<clipPath id="clip0_7469_11301">
<rect width="37" height="37" fill="white"/>
</clipPath>
</defs>
</svg>
