<svg xmlns="http://www.w3.org/2000/svg" width="60" height="60" fill="none"><path fill="#fff" d="M30 0c16.568 0 30 13.432 30 30S46.567 60 30 60 0 46.571 0 30 13.43 0 30 0"/><path fill="url(#a)" d="M36.771 15.992c0 2.101-2.928 3.804-6.541 3.804s-6.541-1.703-6.541-3.804 2.928-3.805 6.541-3.805 6.541 1.704 6.541 3.805"/><path fill="url(#b)" d="M36.771 44.657c0 2.102-2.928 3.805-6.541 3.805s-6.541-1.703-6.541-3.805c0-2.1 2.928-3.804 6.541-3.804s6.541 1.703 6.541 3.804"/><path fill="url(#c)" d="M21.115 25.063c1.806-3.129 1.794-6.517-.026-7.569s-4.762.633-6.568 3.762-1.795 6.517.026 7.568 4.761-.633 6.568-3.761"/><path fill="url(#d)" d="M45.914 31.827c1.82 1.05 1.83 4.438.023 7.567-1.806 3.128-4.745 4.813-6.565 3.762s-1.83-4.438-.024-7.567c1.807-3.128 4.746-4.813 6.566-3.762"/><path fill="url(#e)" d="M21.09 43.155c1.82-1.05 1.832-4.44.025-7.568-1.806-3.129-4.746-4.813-6.567-3.761s-1.833 4.44-.026 7.568c1.806 3.129 4.746 4.813 6.567 3.761"/><path fill="url(#f)" d="M45.939 21.258c1.806 3.128 1.795 6.516-.024 7.567-1.82 1.05-4.76-.634-6.565-3.763-1.807-3.129-1.796-6.516.023-7.567 1.82-1.05 4.76.634 6.566 3.763"/><defs><linearGradient id="a" x1="47.286" x2="6.375" y1="12.186" y2="37.32" gradientUnits="userSpaceOnUse"><stop stop-color="#00A3FF"/><stop offset="1" stop-color="#3ADCFF"/></linearGradient><linearGradient id="b" x1="47.286" x2="6.375" y1="12.186" y2="37.32" gradientUnits="userSpaceOnUse"><stop stop-color="#00A3FF"/><stop offset="1" stop-color="#3ADCFF"/></linearGradient><linearGradient id="c" x1="47.286" x2="6.375" y1="12.186" y2="37.32" gradientUnits="userSpaceOnUse"><stop stop-color="#00A3FF"/><stop offset="1" stop-color="#3ADCFF"/></linearGradient><linearGradient id="d" x1="47.286" x2="6.375" y1="12.186" y2="37.32" gradientUnits="userSpaceOnUse"><stop stop-color="#00A3FF"/><stop offset="1" stop-color="#3ADCFF"/></linearGradient><linearGradient id="e" x1="47.286" x2="6.375" y1="12.186" y2="37.32" gradientUnits="userSpaceOnUse"><stop stop-color="#00A3FF"/><stop offset="1" stop-color="#3ADCFF"/></linearGradient><linearGradient id="f" x1="47.286" x2="6.375" y1="12.186" y2="37.32" gradientUnits="userSpaceOnUse"><stop stop-color="#00A3FF"/><stop offset="1" stop-color="#3ADCFF"/></linearGradient></defs></svg>