<svg xmlns="http://www.w3.org/2000/svg" width="512" height="512" fill="none"><path fill="#fff" d="M256 512c141.385 0 256-114.615 256-256S397.385 0 256 0 0 114.615 0 256s114.615 256 256 256"/><path fill="#00A3FF" d="m150.988 237.812-2.866 4.397c-32.326 49.589-25.106 114.533 17.358 156.139 24.981 24.478 57.722 36.718 90.464 36.721z"/><path fill="#00A3FF" d="m255.914 297.764-104.956-59.952 104.956 197.257zM361.012 237.812l2.866 4.397c32.326 49.589 25.106 114.533-17.358 156.139-24.981 24.478-57.722 36.718-90.464 36.721z" opacity=".6"/><path fill="#00A3FF" d="M256.044 297.764 361 237.812 256.044 435.069zM256.083 163.833v103.4l90.408-51.666z" opacity=".2"/><path fill="#00A3FF" d="m256.056 163.833-90.473 51.732 90.473 51.668z" opacity=".6"/><path fill="#00A3FF" d="m256.056 76.875-90.473 138.724 90.473-51.877z"/><path fill="#00A3FF" d="m256.083 163.706 90.477 51.879-90.477-138.793z" opacity=".6"/></svg>