<svg width="128" height="128" viewBox="0 0 346 346" fill="none" xmlns="http://www.w3.org/2000/svg">
  <path d="M172.616 345.379C267.686 345.379 344.755 268.31 344.755 173.24C344.755 78.17 267.686 1.10059 172.616 1.10059C77.546 1.10059 0.476562 78.17 0.476562 173.24C0.476562 268.31 77.546 345.379 172.616 345.379Z" fill="url(#paint0_radial_2042_446)"/>
  <path d="M106.769 218.491H82.272C84.2717 256.735 116.267 289.982 173.009 289.982C229.502 289.982 265.498 258.985 265.498 218.99C265.498 143.001 150.763 147.25 150.763 103.256C150.763 91.0079 160.012 76.5098 181.509 76.5098C205.506 76.5098 233.752 95.2573 235.752 119.254H259.998C257.499 80.5091 219.754 53.5127 171.76 53.5127C122.017 53.5127 84.5217 82.5089 84.5217 123.504C84.5217 201.744 199.257 191.495 199.257 239.738C199.257 254.737 190.008 267.234 166.761 267.234C137.765 267.234 108.518 246.987 106.769 218.491ZM127.266 109.005C127.266 168.498 241.001 156.749 241.001 220.24C241.001 239.239 228.503 255.987 213.505 260.235C218.753 255.236 222.754 244.238 222.754 233.739C222.754 174.997 108.769 182.996 108.769 122.754C108.769 102.506 121.767 86.2584 138.015 81.2591C131.765 88.758 127.266 98.5068 127.266 109.005Z" fill="white"/>
  <defs>
    <radialGradient id="paint0_radial_2042_446" cx="0" cy="0" r="1" gradientUnits="userSpaceOnUse" gradientTransform="translate(172.616 537.316) rotate(-90) scale(536.216)">
      <stop stop-color="#FDC079"/>
      <stop offset="1" stop-color="#EC63DA"/>
    </radialGradient>
  </defs>
</svg>
