<svg xmlns="http://www.w3.org/2000/svg" width="40" height="40" fill="none"><g clip-path="url(#a)"><path fill="url(#b)" d="M20.067 39.933c11.009-.037 19.903-8.991 19.866-20S30.942.03 19.933.067.03 9.057.067 20.067s8.991 19.903 20 19.866"/><path fill="#fff" d="M32.46 32.38c6.834-6.88 6.8-18.005-.08-24.84C25.5.706 14.375.74 7.54 7.62z" opacity=".2"/><path fill="#fff" d="M19.186 12.127q.401-.04.814-.041a7.911 7.911 0 0 1 2.737 15.336l-2.684 3.775c6.16-.028 11.147-5.032 11.147-11.2 0-5.792-4.396-10.557-10.034-11.14z"/><path fill="#fff" d="M19.746 8.8C13.677 8.935 8.8 13.896 8.8 19.997c0 5.707 4.269 10.418 9.788 11.112l2.312-3.252a7.911 7.911 0 0 1-3.385-15.373z"/><path fill="url(#c)" d="M22.737 27.422a7.91 7.91 0 0 0 5.174-7.425H31.2c0 6.168-4.986 11.172-11.147 11.2z"/><path fill="url(#d)" d="M19.746 8.8C13.677 8.935 8.8 13.896 8.8 19.997c0 0 3.289.047 3.289 0a7.915 7.915 0 0 1 5.426-7.513z"/><path fill="#fff" d="m19.98 29.153 5.624-7.92-5.624 3.32-5.62-3.32z"/><path fill="#4C52F9" d="m19.98 29.153 5.623-7.92-5.623 3.32z" opacity=".1"/><path fill="url(#e)" d="m19.963 23.501 5.651-3.325-5.651-9.334-5.652 9.334z"/><path fill="#fff" d="m19.963 23.501 5.651-3.325-5.651-9.334-5.652 9.334z"/><path fill="#4C52F9" d="m19.962 23.501-5.651-3.325 5.651-9.334z" opacity=".1"/><path fill="#4C52F9" d="M19.963 23.501v-5.974l-5.652 2.65zM19.963 23.501v-5.974l5.651 2.65z" opacity=".1"/></g><defs><linearGradient id="b" x1=".067" x2="39.933" y1="20.067" y2="19.933" gradientUnits="userSpaceOnUse"><stop offset=".25" stop-color="#1A82FF"/><stop offset=".5" stop-color="#7A26F3"/><stop offset=".74" stop-color="#D6453B"/></linearGradient><linearGradient id="c" x1="12.626" x2="24.961" y1="34.03" y2="25.951" gradientUnits="userSpaceOnUse"><stop stop-color="#4C52F9" stop-opacity=".5"/><stop offset="1" stop-color="#fff"/></linearGradient><linearGradient id="d" x1="26.044" x2="14.242" y1="3.644" y2="12.172" gradientUnits="userSpaceOnUse"><stop stop-color="#4C52F9" stop-opacity=".5"/><stop offset="1" stop-color="#fff"/></linearGradient><linearGradient id="e" x1="7.939" x2="17.84" y1="14.222" y2="20.264" gradientUnits="userSpaceOnUse"><stop stop-color="#1C313F"/><stop offset="1" stop-color="#fff"/></linearGradient><clipPath id="a"><path fill="#fff" d="M0 0h40v40H0z"/></clipPath></defs></svg>