<svg width="398" height="398" viewBox="0 0 398 398" fill="none" xmlns="http://www.w3.org/2000/svg">
<path d="M198.996 7.52681H199.004C304.751 7.52681 390.476 93.2521 390.476 199V199.007C390.476 304.754 304.751 390.48 199.004 390.48H198.996C93.2489 390.48 7.52364 304.754 7.52364 199.007V199C7.52364 93.2521 93.2489 7.52681 198.996 7.52681Z" fill="white" stroke="#111111" stroke-width="7.05362"/>
<path d="M199.004 4H198.996C91.3011 4 3.99683 91.3043 3.99683 199V199.007C3.99683 306.702 91.3011 394.006 198.996 394.006H199.004C306.699 394.006 394.003 306.702 394.003 199.007V199C394.003 91.3043 306.699 4 199.004 4Z" fill="url(#paint0_radial_2039_7246)" fill-opacity="0.7"/>
<path d="M199.004 4H198.996C91.3011 4 3.99683 91.3043 3.99683 199V199.007C3.99683 306.702 91.3011 394.006 198.996 394.006H199.004C306.699 394.006 394.003 306.702 394.003 199.007V199C394.003 91.3043 306.699 4 199.004 4Z" stroke="url(#paint1_linear_2039_7246)" stroke-width="7.14291"/>
<path fill-rule="evenodd" clip-rule="evenodd" d="M167.798 38.5593C92.4902 53.065 35.6045 119.32 35.6045 198.862C35.6045 278.404 92.4902 344.66 167.798 359.165V343.865C100.827 329.589 50.5972 270.092 50.5972 198.862C50.5972 127.633 100.827 68.1357 167.798 53.8597V38.5593ZM230.199 53.9197V38.6135C305.368 53.2293 362.113 119.419 362.113 198.862C362.113 278.306 305.368 344.495 230.199 359.111V343.805C297.03 329.423 347.12 269.992 347.12 198.862C347.12 127.732 297.03 68.3017 230.199 53.9197Z" fill="black"/>
<path d="M222.119 193.407C234.575 195.781 244.237 200.359 251.104 207.142C257.971 213.755 261.404 222.233 261.404 232.577V248.856C261.404 261.234 256.933 271.239 247.99 278.869C239.047 286.33 227.309 290.061 212.777 290.061H207.746V316.005H190.499V290.061H185.229C175.648 290.061 167.184 287.941 159.838 283.702C152.492 279.293 146.743 273.189 142.591 265.388C138.598 257.419 136.602 248.262 136.602 237.918H153.849C153.849 248.432 156.724 256.995 162.473 263.608C168.381 270.052 176.127 273.273 185.708 273.273H212.298C221.72 273.273 229.305 271.069 235.054 266.66C240.803 262.082 243.678 256.147 243.678 248.856V232.577C243.678 226.812 241.522 221.894 237.21 217.825C233.058 213.755 227.309 211.127 219.963 209.94L176.845 202.309C164.708 200.105 155.286 195.526 148.579 188.574C141.872 181.622 138.518 172.889 138.518 162.376V148.641C138.518 136.262 142.83 126.428 151.454 119.136C160.237 111.675 171.815 107.945 186.187 107.945H190.499V82.0007H207.746V107.945H213.256C226.83 107.945 237.769 112.353 246.073 121.171C254.377 129.819 258.53 141.265 258.53 155.508H241.282C241.282 146.182 238.727 138.721 233.617 133.125C228.507 127.53 221.72 124.732 213.256 124.732H186.187C177.085 124.732 169.819 126.936 164.389 131.345C158.959 135.584 156.245 141.35 156.245 148.641V162.376C156.245 168.311 158.241 173.313 162.233 177.383C166.385 181.452 172.054 184.165 179.241 185.522L222.119 193.407Z" fill="black"/>
<defs>
<radialGradient id="paint0_radial_2039_7246" cx="0" cy="0" r="1" gradientUnits="userSpaceOnUse" gradientTransform="translate(199.419 60.9459) rotate(90) scale(411.151 289.409)">
<stop offset="0.03125" stop-color="#FAFAFA"/>
<stop offset="1" stop-color="#E3E3E3"/>
</radialGradient>
<linearGradient id="paint1_linear_2039_7246" x1="199" y1="0.32066" x2="199" y2="397.686" gradientUnits="userSpaceOnUse">
<stop stop-color="#F4F4F4"/>
<stop offset="1" stop-color="#BEBEBE"/>
</linearGradient>
</defs>
</svg>
