<svg width="37" height="37" viewBox="0 0 37 37" fill="none" xmlns="http://www.w3.org/2000/svg">
<g clip-path="url(#clip0_6496_8887)">
<mask id="mask0_6496_8887" style="mask-type:luminance" maskUnits="userSpaceOnUse" x="0" y="0" width="37" height="37">
<path d="M37 0H0V37H37V0Z" fill="white"/>
</mask>
<g mask="url(#mask0_6496_8887)">
<path d="M18.5 37C28.7173 37 37 28.7173 37 18.5C37 8.28275 28.7173 0 18.5 0C8.28275 0 0 8.28275 0 18.5C0 28.7173 8.28275 37 18.5 37Z" fill="#1D1D1F"/>
<path d="M27.3217 31.3306C26.3342 31.3306 25.53 30.5271 25.53 29.5403C25.53 28.5535 26.3342 27.75 27.3217 27.75C28.3092 27.75 29.1134 28.5535 29.1134 29.5403C29.1134 30.5271 28.3092 31.3306 27.3217 31.3306Z" fill="#F96D30"/>
<path d="M24.4769 21.4616C24.1892 20.6481 23.7143 19.923 23.0381 19.2829C22.3618 18.6428 21.6009 18.0417 20.7411 17.4759C20.5585 17.3691 20.3937 17.2517 20.2252 17.1485L21.3818 12.5909C21.3818 12.5909 21.4099 12.598 21.4063 12.6123C21.7322 12.9216 21.9555 13.2806 22.0906 13.6927C22.1668 13.9236 22.2112 14.1615 22.1958 14.3994C22.1905 14.7154 22.4178 14.9998 22.7273 15.0784L25.3724 15.7496C25.7945 15.8567 26.2295 15.5591 26.2672 15.1153C26.3424 14.2881 26.2552 13.5103 25.9917 12.7785C25.6379 11.8122 25.0402 10.9804 24.1952 10.2975C23.6342 9.85287 22.9775 9.48975 22.2289 9.19397L22.9604 6.31174C23.0432 5.98518 22.8444 5.64759 22.5208 5.56545L21.4374 5.29055C21.1138 5.20841 20.778 5.41031 20.6951 5.73688L19.9745 8.57652C19.1228 8.45105 18.3126 8.45701 17.5298 8.59083C16.4509 8.7704 15.5326 9.2023 14.7926 9.87592C14.0385 10.546 13.5225 11.4578 13.2307 12.6078C12.9388 13.7579 12.9944 15.1321 13.5628 16.1378C14.1277 17.1577 15.0911 18.0822 16.4459 18.9399C16.7021 19.1107 16.9618 19.2673 17.204 19.4345L15.8852 24.631C15.7834 24.5599 15.6957 24.4923 15.6117 24.4105C15.2263 24.0407 14.947 23.6071 14.8018 23.1169C14.7014 22.8043 14.6645 22.4775 14.6771 22.1331C14.6896 21.7887 14.4695 21.4759 14.1459 21.3938L11.5852 20.744C11.1631 20.6369 10.7458 20.9239 10.694 21.3641C10.5828 22.3333 10.6693 23.2318 10.9816 24.0666C11.3736 25.1183 12.0308 26.0104 12.9812 26.7503C13.6054 27.2412 14.3183 27.6186 15.1055 27.9393L14.4641 30.4666C14.3812 30.7931 14.5801 31.1307 14.9037 31.2129L15.9871 31.4878C16.3107 31.5699 16.6465 31.368 16.7293 31.0414L17.3563 28.5709C18.4191 28.75 19.3808 28.7372 20.2591 28.5218C21.3773 28.2464 22.2959 27.7541 23.0187 27.0308C23.7414 26.3074 24.2288 25.4488 24.4846 24.4407C24.7405 23.4327 24.7856 22.3107 24.4979 21.4971L24.4769 21.4616ZM18.0011 15.5262C17.6612 15.2132 17.4306 14.8827 17.2952 14.531C17.1599 14.1793 17.141 13.7816 17.2563 13.3272C17.3716 12.8729 17.5779 12.5323 17.8646 12.2877C18.1513 12.0431 18.5044 11.8909 18.9062 11.8418C18.9978 11.8348 19.0931 11.8136 19.1952 11.8244L18.2115 15.7005C18.1519 15.64 18.0747 15.5902 18.0152 15.5298L18.0011 15.5262ZM19.805 24.7644C19.497 25.0338 19.1121 25.1931 18.6713 25.2776C18.5126 25.3129 18.333 25.3127 18.1533 25.3124L19.2811 20.8684C19.3793 20.9538 19.4774 21.0391 19.5615 21.1209C19.9469 21.4907 20.2229 21.8782 20.3861 22.2974C20.5493 22.7166 20.5678 23.1747 20.4417 23.6716C20.3156 24.1686 20.1093 24.5092 19.7909 24.7608L19.805 24.7644Z" fill="#F1F1F1"/>
</g>
</g>
<defs>
<clipPath id="clip0_6496_8887">
<rect width="37" height="37" fill="white"/>
</clipPath>
</defs>
</svg>
