<svg xmlns="http://www.w3.org/2000/svg" width="37" height="37" fill="none"><g clip-path="url(#a)"><path fill="url(#b)" d="M18.447 36.972c10.188 0 18.446-8.26 18.446-18.447C36.893 8.337 28.634.078 18.447.078S0 8.337 0 18.525s8.259 18.447 18.447 18.447"/><path fill="#fff" d="M11.392 23.374H8.767c.214 4.099 3.643 7.661 9.723 7.661 6.054 0 9.911-3.321 9.911-7.607 0-8.144-12.295-7.688-12.295-12.403 0-1.312.991-2.866 3.295-2.866 2.572 0 5.598 2.01 5.813 4.58h2.598c-.268-4.151-4.313-7.044-9.456-7.044-5.33 0-9.348 3.107-9.348 7.5 0 8.384 12.295 7.286 12.295 12.456 0 1.607-.991 2.947-3.483 2.947-3.107 0-6.24-2.17-6.428-5.224m2.196-11.732c0 6.375 12.188 5.116 12.188 11.92 0 2.035-1.34 3.83-2.946 4.285.562-.535.99-1.714.99-2.839 0-6.295-12.214-5.438-12.214-11.893 0-2.17 1.393-3.911 3.134-4.447-.67.804-1.152 1.849-1.152 2.974"/></g><defs><radialGradient id="b" cx="0" cy="0" r="1" gradientTransform="rotate(-90 37.993 19.547)scale(57.4616)" gradientUnits="userSpaceOnUse"><stop stop-color="#FFEF79"/><stop offset="1" stop-color="#00C2A1"/></radialGradient><clipPath id="a"><path fill="#fff" d="M0 0h36.893v37H0z"/></clipPath></defs></svg>