<svg xmlns="http://www.w3.org/2000/svg" width="35" height="35"><defs><style>.b{fill:#fb8681}.c{fill:#15181a}.d{fill:#f8b1ae}.e{fill:#de5852}.g{fill:#afcc47}.k{fill:#16191b}.l{fill:#f4ffb3}</style></defs><g transform="translate(-2472 -40)"><circle cx="17.5" cy="17.5" r="17.5" style="fill:#ccf66c" transform="translate(2472 40)"/><path d="M2484.985 54.819a9.7 9.7 0 0 1-3.717-1.08c-1.448-.693-3.1-1.773-3.4-2.728a.9.9 0 0 1 .061-.743 1.26 1.26 0 0 1 1.194-.522q.095-.001.2.006a1.25 1.25 0 0 1 .041-1.4.97.97 0 0 1 .761-.308 2.1 2.1 0 0 1 .591.1 1.36 1.36 0 0 1 .358-1.4.9.9 0 0 1 .524-.166c1.008 0 2.369 1.6 3.307 3.09.838 1.334 1.716 3.232 1.475 4.249a.9.9 0 0 1-.218.5.86.86 0 0 1-.33.229 1.7 1.7 0 0 1-.847.173" class="b"/><path d="M2481.597 47.092c.615 0 1.81 1.166 2.864 2.846 1.028 1.638 1.586 3.23 1.4 3.88a.4.4 0 0 1-.093.246.37.37 0 0 1-.166.1 1.16 1.16 0 0 1-.616.129 9.3 9.3 0 0 1-3.492-1.029c-2.028-.97-3.423-2.2-3.113-2.742.1-.174.362-.258.741-.258a5.2 5.2 0 0 1 1.224.185c-.592-.806-.843-1.475-.595-1.754a.48.48 0 0 1 .37-.132 3.2 3.2 0 0 1 1.388.495c-.355-.953-.428-1.684-.13-1.9a.34.34 0 0 1 .215-.067m0-1.043a1.4 1.4 0 0 0-.833.267 1.55 1.55 0 0 0-.605 1.205h-.034a1.448 1.448 0 0 0-1.488 1.741 1.56 1.56 0 0 0-1.16.746 1.44 1.44 0 0 0-.1 1.156c.439 1.4 2.924 2.684 3.674 3.043a10.2 10.2 0 0 0 3.942 1.131 2.2 2.2 0 0 0 1.071-.231 1.4 1.4 0 0 0 .49-.352 1.43 1.43 0 0 0 .343-.758c.322-1.479-1.1-3.9-1.547-4.617-.629-1-2.255-3.332-3.748-3.332Z" class="c"/><path d="M2483.879 49.614a9.2 9.2 0 0 0-2.655-2.2.44.44 0 0 1 .152-.247c.5-.37 1.883.875 3.079 2.78a13.5 13.5 0 0 1 .889 1.654 12.6 12.6 0 0 0-1.465-1.987" class="d"/><path d="M2478.38 50.526c.186-.328.946-.333 1.965-.073-.592-.807-.843-1.475-.595-1.754a.4.4 0 0 1 .126-.088l5.962 5.317a.35.35 0 0 1-.073.137.37.37 0 0 1-.166.1c-.535.346-2.266-.019-4.108-.9-2.027-.967-3.421-2.194-3.111-2.739" class="e"/><path d="M692.234 2797.823a8.4 8.4 0 0 0-3.064-2.449 8.33 8.33 0 0 0-8.33.757 8.7 8.7 0 0 0-2.769 3.65 19 19 0 0 0-1.37 6.948 37 37 0 0 0 .586 7.786 4 4 0 0 0 .943 2.172 1.39 1.39 0 0 0 1.062.428c1.011-.1.969-1.41.991-2.152a2.6 2.6 0 0 1 .358-1.625.62.62 0 0 1 .692-.2.85.85 0 0 1 .419.368c.406.672.151 1.488.178 2.219a14 14 0 0 0 .08 1.556 1.84 1.84 0 0 0 .307.842 1.225 1.225 0 0 0 1.852.063 3.06 3.06 0 0 0 .474-1.842 8 8 0 0 1 .15-1.38 1.18 1.18 0 0 1 .8-.913 1.09 1.09 0 0 1 1.118.536 2.9 2.9 0 0 1 .31 1.161 2.4 2.4 0 0 0 .48 1.4 1.24 1.24 0 0 0 1.215.366c1.225-.323.9-1.636 1.189-2.551a.623.623 0 0 1 1.115-.236 2.6 2.6 0 0 1 .456 1.254 1.33 1.33 0 0 0 .521 1.016 1.16 1.16 0 0 0 .865.115c.952-.25 1.292-1.452 1.458-2.3a31.8 31.8 0 0 0 .443-10.459 13.9 13.9 0 0 0-2.529-6.53" style="fill:#cded6a" transform="translate(1803.101 -2748.793)"/><path d="M2486.363 70.303h-.08a1.68 1.68 0 0 1-1.282-.661 2.3 2.3 0 0 1-.405-1.077 9 9 0 0 1-.075-1.2q-.001-.208-.01-.413a7 7 0 0 1 .027-.728 2.1 2.1 0 0 0-.131-1.242.35.35 0 0 0-.155-.15.11.11 0 0 0-.114.045 1.94 1.94 0 0 0-.235 1.143v.319c-.017.769-.053 2.37-1.457 2.5a1.89 1.89 0 0 1-1.473-.573 4.5 4.5 0 0 1-1.09-2.443 37.3 37.3 0 0 1-.6-7.9 19.3 19.3 0 0 1 1.412-7.14 9.2 9.2 0 0 1 2.943-3.866 8.84 8.84 0 0 1 12.108 1.792 14.15 14.15 0 0 1 2.633 6.773 32.9 32.9 0 0 1-.446 10.64c-.113.579-.458 2.34-1.836 2.7a1.67 1.67 0 0 1-1.26-.17 1.83 1.83 0 0 1-.77-1.377 2.16 2.16 0 0 0-.345-1.01c-.042-.051-.086-.078-.119-.071s-.075.043-.1.13a4 4 0 0 0-.124.739c-.086.775-.2 1.837-1.428 2.159a1.77 1.77 0 0 1-1.733-.522 2.88 2.88 0 0 1-.608-1.684 2.5 2.5 0 0 0-.24-.956.58.58 0 0 0-.585-.292c-.143.024-.313.26-.387.537a4.6 4.6 0 0 0-.109.9q-.01.198-.026.388-.012.135-.021.273a2.94 2.94 0 0 1-.584 1.872 1.72 1.72 0 0 1-1.295.565m-2.132-6.514a1.1 1.1 0 0 1 .379.067 1.37 1.37 0 0 1 .685.587 2.97 2.97 0 0 1 .277 1.857 6 6 0 0 0-.025.612q.007.215.01.432a8 8 0 0 0 .064 1.066 1.3 1.3 0 0 0 .209.608.65.65 0 0 0 .5.247.7.7 0 0 0 .554-.22 2.14 2.14 0 0 0 .321-1.252l.022-.29q.014-.173.024-.356a5.5 5.5 0 0 1 .143-1.114 1.67 1.67 0 0 1 1.213-1.289 1.6 1.6 0 0 1 1.65.782 3.3 3.3 0 0 1 .38 1.367 1.94 1.94 0 0 0 .352 1.115.72.72 0 0 0 .7.21c.49-.129.571-.451.662-1.27a5 5 0 0 1 .164-.933 1.18 1.18 0 0 1 .891-.84 1.15 1.15 0 0 1 1.119.428 3.1 3.1 0 0 1 .568 1.5c.059.349.123.568.273.656a.64.64 0 0 0 .473.06c.5-.132.856-.752 1.08-1.9a31 31 0 0 0 .439-10.281 13.16 13.16 0 0 0-2.42-6.287 7.8 7.8 0 0 0-10.689-1.6 8.15 8.15 0 0 0-2.6 3.435 18.2 18.2 0 0 0-1.329 6.76 36 36 0 0 0 .576 7.672 3.6 3.6 0 0 0 .8 1.9.88.88 0 0 0 .653.282c.4-.038.5-.576.517-1.492v-.318a2.75 2.75 0 0 1 .472-1.782 1.16 1.16 0 0 1 .893-.419" class="c"/><circle cx="4.078" cy="4.078" r="4.078" class="g" transform="translate(2482.358 50.816)"/><g transform="translate(2482.098 50.704)"><circle cx="3.404" cy="3.404" r="3.404" style="fill:#f3f38b" transform="translate(.626 .626)"/><path d="M4.03 8.06a4.03 4.03 0 1 1 4.03-4.03 4.034 4.034 0 0 1-4.03 4.03m0-6.808A2.778 2.778 0 1 0 6.808 4.03 2.78 2.78 0 0 0 4.03 1.252" class="c"/></g><path d="M725.539 2853.8a2.74 2.74 0 0 0-1.471.427 2.767 2.767 0 0 1 2.664 4.84 2.768 2.768 0 0 0-1.193-5.266Z" style="fill:#fff" transform="translate(1760.618 -2801.861)"/><path d="M714.381 2873.162a3.006 3.006 0 0 1-3.006-3.006 3 3 0 0 1 .053-.565 2.772 2.772 0 0 0 4.368 3.218 3 3 0 0 1-1.415.353" style="fill:#efd567" transform="translate(1772.17 -2816.01)"/><path d="M2486.052 56.517a.69.69 0 0 1-.691-.691v-2.042a.69.69 0 0 1 .691-.691.69.69 0 0 1 .691.691v2.042a.69.69 0 0 1-.691.691" class="c"/><path d="M2482.744 60.672a1.14 1.14 0 0 1 .209-.651l.021-.039v.007a1.5 1.5 0 0 1 .361-.348.7.7 0 0 0-.128-.479c-.03-.077-.17-.184-.239-.131-.478.362-.447 1.229-.421 1.889.012.312.07.726-.123.955-.083.1-.125.126-.2.03a3.5 3.5 0 0 1-.154-1.3q-.015-.42-.011-.84c0-.1 0-.21.005-.315v-.145c.012-.161.017-.575-.129-.642s-.214.2-.227.365a15 15 0 0 0-.016 1.706 6 6 0 0 0 .278 1.961c.245.576.62.231.792-.254a3.4 3.4 0 0 0 .135-1.188 1.13 1.13 0 0 1-.153-.581" class="g"/><path d="M2484.324 60.58c-.3.166-.418.282-.551-.083a5 5 0 0 0-.278-.739c-.047-.083-.132-.181-.24-.123-.755.395-.706 1.337-.665 2.057.019.339.11.79-.194 1.038-.132.107-.2.138-.31.032-.267-.248-.226-1.083-.243-1.411q-.024-.457-.017-.914c0-.114 0-.229.009-.342q-.001-.059.005-.117v-.042c.019-.176.027-.626-.2-.7s-.337.219-.358.4a11 11 0 0 0-.025 1.856 4.6 4.6 0 0 0 .439 2.134c.387.627.979.251 1.251-.277a2.74 2.74 0 0 0 .208-1.41c-.023-.4-.184-.949.1-1.27a2.8 2.8 0 0 0 .343.827c.29.356.655.136.882-.172.099-.125.151-.916-.156-.744" class="k"/><path d="M2482.187 64.005a.63.63 0 0 1-.534-.352 4.37 4.37 0 0 1-.441-2.041l-.006-.117a11 11 0 0 1 .025-1.865.59.59 0 0 1 .2-.413.26.26 0 0 1 .222-.027c.3.095.247.687.24.754v.154c0 .114-.008.228-.009.341 0 .309 0 .615.017.911q-.001.087.006.212c.006.364.017.973.221 1.163.08.075.112.071.241-.035.24-.2.211-.54.186-.844 0-.052-.008-.1-.011-.151-.04-.715-.1-1.694.693-2.106.11-.058.226 0 .31.144a2.7 2.7 0 0 1 .205.519q.035.114.076.228.065.179.13.2c.065.021.145-.031.267-.1l.079-.045a.164.164 0 0 1 .222.024.98.98 0 0 1 .006.8.8.8 0 0 1-.575.376.48.48 0 0 1-.389-.2 1.7 1.7 0 0 1-.268-.588l-.051-.163a1.4 1.4 0 0 0-.064.869c.013.1.024.2.03.289a2.8 2.8 0 0 1-.214 1.437 1.05 1.05 0 0 1-.789.632Zm-.617-4.726a.14.14 0 0 0-.078.024.5.5 0 0 0-.156.338 11 11 0 0 0-.024 1.848l.006.117a4.3 4.3 0 0 0 .425 1.992.53.53 0 0 0 .461.3.96.96 0 0 0 .7-.575 2.7 2.7 0 0 0 .2-1.383q-.01-.131-.029-.282a1.28 1.28 0 0 1 .145-1.026l.057-.064.031.08q.048.13.086.261a1.6 1.6 0 0 0 .249.553.37.37 0 0 0 .305.164.7.7 0 0 0 .494-.334.93.93 0 0 0 0-.667c-.011-.012-.032-.036-.093 0l-.078.045c-.147.085-.253.146-.355.109-.078-.029-.135-.107-.192-.264a5 5 0 0 1-.077-.232 2.6 2.6 0 0 0-.2-.5c-.038-.067-.1-.14-.17-.1-.73.381-.677 1.321-.638 2.008 0 .047.007.1.011.148a1.02 1.02 0 0 1-.224.933c-.129.1-.231.168-.378.03-.237-.22-.247-.833-.254-1.238q.001-.123-.006-.208a13 13 0 0 1-.017-.917c0-.114 0-.229.009-.344q-.001-.058.005-.118v-.044c.025-.229 0-.59-.167-.643a.2.2 0 0 0-.048-.01Z" class="c"/><path d="M2488.092 46.392a7.7 7.7 0 0 0-3.815 1.4 8.2 8.2 0 0 0-2.614 3.452 15.7 15.7 0 0 0-1.027 3.54c1.185-4.247 4.084-7.441 7.456-8.392" class="l"/><path d="M2497.41 55.657a13.1 13.1 0 0 0-2.436-6.282 7.8 7.8 0 0 0-5.779-3.007c3.7.632 6.587 5.792 6.587 12.063a17.9 17.9 0 0 1-1.364 7.038 1.3 1.3 0 0 1 .141.144 3.1 3.1 0 0 1 .571 1.5c.059.348.123.567.275.656a.65.65 0 0 0 .476.06c.506-.132.862-.752 1.087-1.9a30.8 30.8 0 0 0 .442-10.272" class="g"/><path d="M2495.046 53.929a3.05 3.05 0 0 1-2.006-.488.9.9 0 0 1-.268-.3.9.9 0 0 1-.1-.538c0-1.044 1.3-2.687 2.421-3.791s2.667-2.269 3.669-2.269a.92.92 0 0 1 .735.313 1.36 1.36 0 0 1 .023 1.447h.149a1.14 1.14 0 0 1 1.116.523 1.25 1.25 0 0 1-.285 1.373q1.05.188 1.235.824a.9.9 0 0 1-.113.737c-.512.859-2.372 1.526-3.941 1.865a13 13 0 0 1-2.635.304" class="b"/><path d="M2498.765 47.065a.42.42 0 0 1 .337.129c.239.281 0 .974-.568 1.82a4.4 4.4 0 0 1 1.137-.192c.334 0 .566.079.656.248.177.329-.223.921-.985 1.568h.126c.983 0 1.666.181 1.768.528.174.6-1.465 1.472-3.663 1.946a12.3 12.3 0 0 1-2.528.3 2.6 2.6 0 0 1-1.677-.375.37.37 0 0 1-.138-.139.4.4 0 0 1-.033-.261c-.028-.675.884-2.094 2.263-3.45 1.314-1.288 2.642-2.119 3.3-2.119m0-1.043c-1.458 0-3.456 1.85-4.034 2.418-.606.595-2.547 2.619-2.576 4.132a1.43 1.43 0 0 0 .158.817 1.4 1.4 0 0 0 .4.458 3.5 3.5 0 0 0 2.335.6 13.4 13.4 0 0 0 2.749-.32c.814-.175 3.527-.845 4.28-2.108a1.44 1.44 0 0 0 .166-1.15 1.55 1.55 0 0 0-.955-1 1.45 1.45 0 0 0-1.077-2.045 1.54 1.54 0 0 0-.31-1.314 1.46 1.46 0 0 0-1.133-.5Z" class="c"/><path d="M2496.1 49.007a9.1 9.1 0 0 1 3.092-1.521.43.43 0 0 0-.091-.275c-.4-.477-2.035.414-3.64 1.99a13.5 13.5 0 0 0-1.248 1.4 12.5 12.5 0 0 1 1.887-1.594" class="d"/><path d="M2501.237 51.165c-.105-.362-.844-.543-1.894-.527.762-.647 1.161-1.239.985-1.568a.4.4 0 0 0-.1-.116l-7.033 3.79a.4.4 0 0 0 .039.15.37.37 0 0 0 .138.139c.44.461 2.209.507 4.205.077 2.195-.472 3.838-1.344 3.66-1.945" class="e"/><path d="M2492.552 56.118a.51.51 0 1 1-.521-.5.51.51 0 0 1 .521.5M2488.272 63.912a.51.51 0 1 1-.521-.5.51.51 0 0 1 .521.5" class="g"/><path d="M2486.777 64.599a.337.337 0 1 1-.344-.33.337.337 0 0 1 .344.33" class="l"/><circle cx=".766" cy=".766" r=".766" class="g" transform="translate(2492.964 55.938)"/><path d="M2493.826 55.078a.382.382 0 1 1-.39-.375.38.38 0 0 1 .39.375" class="g"/><path d="M2492.229 47.935a.383.383 0 1 1-.39-.375.383.383 0 0 1 .39.375" class="l"/><path d="M2495.325 61.539c-.005-.135-.036-.466-.233-.466s-.225.339-.233.466a1.8 1.8 0 0 1-.152.819c-.218.3-.582-.032-.712-.262-.354-.626-.317-1.376-.825-1.934-.2-.222-.337.147-.363.3-.032.18-.056.583-.293.608-.207.022-.245-.169-.28-.282a10 10 0 0 1-.176-1.2c-.08-.457-.321-1.671-1.03-1.177-.268.187-.14 1.109.127.921.368-.26.4.293.447.558.074.451.093.912.19 1.358.078.361.339.918.8.84.306-.052.473-.375.57-.714.354.751.27 1.918 1.231 2.141.923.214.953-1.422.932-1.976" class="g"/><path d="M2495.297 62.556c-.005-.136-.036-.467-.233-.467s-.225.339-.233.467a1.8 1.8 0 0 1-.152.819c-.218.3-.582-.032-.712-.262-.354-.626-.317-1.377-.825-1.934-.2-.222-.337.147-.363.3-.032.181-.056.583-.293.608-.207.022-.245-.169-.28-.282a10 10 0 0 1-.176-1.2c-.08-.457-.321-1.67-1.03-1.177-.268.187-.14 1.109.127.921.368-.26.4.293.447.558.074.451.093.912.19 1.359.078.361.339.918.8.84.306-.052.473-.375.57-.714.354.751.27 1.918 1.231 2.141.924.213.959-1.423.932-1.977" class="k"/><path d="M2494.524 64.604a.8.8 0 0 1-.17-.02c-.706-.164-.872-.81-1.032-1.435a5 5 0 0 0-.181-.607q-.196.551-.568.616c-.51.086-.781-.513-.861-.88a8 8 0 0 1-.118-.8c-.021-.184-.042-.375-.073-.561 0-.027-.009-.058-.014-.09-.025-.174-.064-.437-.174-.485-.044-.019-.1 0-.178.051a.15.15 0 0 1-.162.021c-.118-.055-.176-.262-.192-.438a.68.68 0 0 1 .166-.589.51.51 0 0 1 .5-.094c.414.172.564 1.025.613 1.3.026.15.042.309.056.462a3.7 3.7 0 0 0 .118.729l.008.027c.04.137.078.231.216.218.165-.017.207-.3.234-.481 0-.031.009-.06.013-.084.017-.1.094-.357.246-.4a.2.2 0 0 1 .207.08 2.64 2.64 0 0 1 .531 1.133 3.6 3.6 0 0 0 .3.81c.08.142.27.347.442.356a.2.2 0 0 0 .182-.1 1.46 1.46 0 0 0 .138-.69q-.001-.056.005-.1.03-.514.285-.515c.255-.001.272.183.285.517.014.35.022 1.522-.455 1.917a.56.56 0 0 1-.367.132m-1.4-2.36.059.125a4.3 4.3 0 0 1 .242.753c.159.622.31 1.21.954 1.359a.49.49 0 0 0 .45-.092 2.62 2.62 0 0 0 .417-1.833c0-.1-.028-.416-.18-.416-.1 0-.165.148-.181.417v.1a1.5 1.5 0 0 1-.157.746.31.31 0 0 1-.272.142.8.8 0 0 1-.527-.409 3.7 3.7 0 0 1-.31-.833 2.5 2.5 0 0 0-.508-1.091q-.057-.063-.1-.05c-.079.023-.152.2-.172.319 0 .024-.008.052-.013.081-.032.217-.081.544-.326.57s-.295-.181-.327-.292l-.008-.026a4 4 0 0 1-.122-.749c-.015-.152-.03-.308-.055-.454-.126-.714-.311-1.127-.55-1.227a.41.41 0 0 0-.4.083.6.6 0 0 0-.122.495c.017.2.079.328.132.353.011.005.029.009.057-.011a.28.28 0 0 1 .279-.061c.164.07.2.345.236.566 0 .032.009.061.013.088.031.188.053.38.074.566a8 8 0 0 0 .116.79c.067.309.307.873.742.8q.352-.062.528-.677Z" class="c"/><path d="M2496.952 56.858c-.039-.521-.31-.29-.317.12a3.6 3.6 0 0 1-.012.98c-.136.3-.286-.089-.326-.3-.138-.744-.019-1.537-.128-2.286-.091-.626-.392-.2-.327.254.077.534.036 1.109.064 1.652a3.33 3.33 0 0 0 .344 1.615c.283.39.574.1.673-.352a6 6 0 0 0 .029-1.683" class="g"/><path d="M2497.174 57.796c-.055-.522-.436-.29-.446.12-.005.246.115.771-.017.98-.191.3-.4-.089-.458-.3-.194-.744-.027-1.537-.18-2.286-.128-.626-.551-.2-.46.253a13 13 0 0 1 .09 1.652 2.56 2.56 0 0 0 .483 1.615c.4.391.807.1.946-.351a4.3 4.3 0 0 0 .042-1.683" class="k"/><path d="M2482.828 66.991c-.935.124-1.949-1.672-2.308-4.046.1.942.229 1.842.392 2.663a3.57 3.57 0 0 0 .8 1.9.88.88 0 0 0 .654.282c.289-.027.418-.309.476-.8Z" class="l"/></g></svg>