<svg xmlns="http://www.w3.org/2000/svg" width="35" height="35" viewBox="0 0 35 35"><defs><style>.a{fill:#ccf66c;}.b{fill:#fb8681;}.c{fill:#15181a;}.d{fill:#f8b1ae;}.e{fill:#de5852;}.f{fill:#cded6a;}.g{fill:#afcc47;}.h{fill:#f3f38b;}.i{fill:#fff;}.j{fill:#efd567;}.k{fill:#16191b;}.l{fill:#f4ffb3;}</style></defs><g transform="translate(-2472 -40)"><circle class="a" cx="17.5" cy="17.5" r="17.5" transform="translate(2472 40)"/><g transform="translate(2477.294 45.292)"><g transform="translate(0 0.757)"><g transform="translate(0 0)"><g transform="translate(0.521 0.523)"><path class="b" d="M664.96,2810.188a9.733,9.733,0,0,1-3.717-1.08c-1.448-.693-3.1-1.773-3.4-2.728a.907.907,0,0,1,.061-.743,1.257,1.257,0,0,1,1.194-.522c.064,0,.13,0,.2.006a1.251,1.251,0,0,1,.041-1.4.973.973,0,0,1,.761-.308,2.131,2.131,0,0,1,.591.1,1.355,1.355,0,0,1,.358-1.4.882.882,0,0,1,.524-.166c1.008,0,2.369,1.6,3.307,3.09.838,1.334,1.716,3.232,1.475,4.249a.911.911,0,0,1-.218.5.862.862,0,0,1-.33.229A1.715,1.715,0,0,1,664.96,2810.188Z" transform="translate(-657.79 -2801.941)"/></g><path class="c" d="M657.1,2797.974c.615,0,1.81,1.166,2.864,2.846,1.028,1.638,1.586,3.23,1.4,3.88a.4.4,0,0,1-.093.246.366.366,0,0,1-.166.1,1.161,1.161,0,0,1-.616.129,9.3,9.3,0,0,1-3.492-1.029c-2.028-.97-3.423-2.2-3.113-2.742.1-.174.362-.258.741-.258a5.179,5.179,0,0,1,1.224.185c-.592-.806-.843-1.475-.595-1.754a.476.476,0,0,1,.37-.132,3.227,3.227,0,0,1,1.388.495c-.355-.953-.428-1.684-.13-1.9a.339.339,0,0,1,.215-.067m0-1.043h0a1.4,1.4,0,0,0-.833.267,1.545,1.545,0,0,0-.605,1.205h-.034a1.448,1.448,0,0,0-1.488,1.741,1.556,1.556,0,0,0-1.16.746,1.44,1.44,0,0,0-.1,1.156c.439,1.4,2.924,2.684,3.674,3.043a10.239,10.239,0,0,0,3.942,1.131,2.22,2.22,0,0,0,1.071-.231,1.388,1.388,0,0,0,.49-.352,1.427,1.427,0,0,0,.343-.758c.322-1.479-1.1-3.9-1.547-4.617-.629-1-2.255-3.332-3.748-3.332Z" transform="translate(-652.797 -2796.931)"/></g><g transform="translate(3.93 1.061)"><path class="d" d="M693.113,2809.6a9.156,9.156,0,0,0-2.655-2.2.438.438,0,0,1,.152-.247c.5-.37,1.883.875,3.079,2.78a13.524,13.524,0,0,1,.889,1.654A12.615,12.615,0,0,0,693.113,2809.6Z" transform="translate(-690.458 -2807.096)"/></g><g transform="translate(1.043 2.561)"><path class="e" d="M662.838,2823.387c.186-.328.946-.333,1.965-.073-.592-.807-.843-1.475-.595-1.754a.378.378,0,0,1,.126-.088l5.962,5.317a.346.346,0,0,1-.073.137.368.368,0,0,1-.166.1c-.535.346-2.266-.019-4.108-.9C663.922,2825.159,662.528,2823.932,662.838,2823.387Z" transform="translate(-662.795 -2821.471)"/></g></g><g transform="translate(1.971)"><path class="f" d="M692.234,2797.823a8.425,8.425,0,0,0-3.064-2.449,8.333,8.333,0,0,0-8.33.757,8.674,8.674,0,0,0-2.769,3.65,18.955,18.955,0,0,0-1.37,6.948,36.849,36.849,0,0,0,.586,7.786,4.014,4.014,0,0,0,.943,2.172,1.387,1.387,0,0,0,1.062.428c1.011-.1.969-1.41.991-2.152a2.6,2.6,0,0,1,.358-1.625.621.621,0,0,1,.692-.2.849.849,0,0,1,.419.368c.406.672.151,1.488.178,2.219a13.925,13.925,0,0,0,.08,1.556,1.843,1.843,0,0,0,.307.842,1.225,1.225,0,0,0,1.852.063,3.059,3.059,0,0,0,.474-1.842,7.988,7.988,0,0,1,.15-1.38,1.182,1.182,0,0,1,.8-.913,1.094,1.094,0,0,1,1.118.536,2.877,2.877,0,0,1,.31,1.161,2.4,2.4,0,0,0,.48,1.4,1.241,1.241,0,0,0,1.215.366c1.225-.323.9-1.636,1.189-2.551a.623.623,0,0,1,1.115-.236,2.6,2.6,0,0,1,.456,1.254,1.326,1.326,0,0,0,.521,1.016,1.157,1.157,0,0,0,.865.115c.952-.25,1.292-1.452,1.458-2.3a31.783,31.783,0,0,0,.443-10.459A13.9,13.9,0,0,0,692.234,2797.823Z" transform="translate(-676.164 -2794.085)"/><path class="c" d="M678.782,2814.688l-.08,0a1.679,1.679,0,0,1-1.282-.661,2.3,2.3,0,0,1-.405-1.077,9.1,9.1,0,0,1-.075-1.2c0-.138-.005-.277-.01-.413a6.512,6.512,0,0,1,.027-.728,2.1,2.1,0,0,0-.131-1.242.348.348,0,0,0-.155-.15.111.111,0,0,0-.114.045,1.942,1.942,0,0,0-.235,1.143q0,.084,0,.167t0,.152c-.017.769-.053,2.37-1.457,2.5a1.886,1.886,0,0,1-1.473-.573,4.493,4.493,0,0,1-1.09-2.443,37.26,37.26,0,0,1-.6-7.9,19.249,19.249,0,0,1,1.412-7.14,9.181,9.181,0,0,1,2.943-3.866,8.838,8.838,0,0,1,12.108,1.792h0a14.15,14.15,0,0,1,2.633,6.773,32.872,32.872,0,0,1-.446,10.64c-.113.579-.458,2.34-1.836,2.7a1.671,1.671,0,0,1-1.26-.17,1.826,1.826,0,0,1-.77-1.377,2.158,2.158,0,0,0-.345-1.01c-.042-.051-.086-.078-.119-.071s-.075.043-.1.13a4.173,4.173,0,0,0-.124.739c-.086.775-.2,1.837-1.428,2.159a1.77,1.77,0,0,1-1.733-.522,2.878,2.878,0,0,1-.608-1.684,2.455,2.455,0,0,0-.24-.956.576.576,0,0,0-.585-.292c-.143.024-.313.26-.387.537a4.609,4.609,0,0,0-.109.9c-.008.132-.015.262-.026.388-.008.09-.015.181-.021.273a2.941,2.941,0,0,1-.584,1.872A1.72,1.72,0,0,1,678.782,2814.688Zm-2.132-6.514a1.1,1.1,0,0,1,.379.067,1.368,1.368,0,0,1,.685.587,2.969,2.969,0,0,1,.277,1.857,5.628,5.628,0,0,0-.025.612c.005.143.008.287.01.432a8.2,8.2,0,0,0,.064,1.066,1.331,1.331,0,0,0,.209.608.65.65,0,0,0,.5.247.7.7,0,0,0,.554-.22,2.139,2.139,0,0,0,.321-1.252c.007-.1.014-.195.022-.29.01-.115.017-.234.024-.356a5.462,5.462,0,0,1,.143-1.114,1.668,1.668,0,0,1,1.213-1.289,1.6,1.6,0,0,1,1.65.782,3.311,3.311,0,0,1,.38,1.367,1.936,1.936,0,0,0,.352,1.115.72.72,0,0,0,.7.21c.49-.129.571-.451.662-1.27a5,5,0,0,1,.164-.933,1.181,1.181,0,0,1,.891-.84,1.153,1.153,0,0,1,1.119.428,3.1,3.1,0,0,1,.568,1.5c.059.349.123.568.273.656a.641.641,0,0,0,.473.06c.5-.132.856-.752,1.08-1.9a31.019,31.019,0,0,0,.439-10.281,13.164,13.164,0,0,0-2.42-6.287h0a7.8,7.8,0,0,0-10.689-1.6,8.15,8.15,0,0,0-2.6,3.435,18.235,18.235,0,0,0-1.329,6.76,36.162,36.162,0,0,0,.576,7.672,3.582,3.582,0,0,0,.8,1.9.88.88,0,0,0,.653.282c.4-.038.5-.576.517-1.492q0-.083,0-.159c0-.052,0-.1,0-.159a2.751,2.751,0,0,1,.472-1.782A1.161,1.161,0,0,1,676.65,2808.174Z" transform="translate(-671.684 -2789.677)"/></g><g transform="translate(5.064 5.524)"><circle class="g" cx="4.078" cy="4.078" r="4.078" transform="translate(0 0)"/></g><g transform="translate(4.804 5.412)"><circle class="h" cx="3.404" cy="3.404" r="3.404" transform="translate(0.626 0.626)"/><path class="c" d="M703.208,2849.991a4.03,4.03,0,1,1,4.03-4.03A4.034,4.034,0,0,1,703.208,2849.991Zm0-6.808a2.778,2.778,0,1,0,2.778,2.778A2.781,2.781,0,0,0,703.208,2843.183Z" transform="translate(-699.178 -2841.931)"/></g><g transform="translate(7.392 6.648)"><path class="i" d="M725.539,2853.8a2.743,2.743,0,0,0-1.471.427,2.767,2.767,0,0,1,2.664,4.84,2.768,2.768,0,0,0-1.193-5.266Z" transform="translate(-724.068 -2853.801)"/></g><g transform="translate(6.054 8.289)"><path class="j" d="M714.381,2873.162a3.006,3.006,0,0,1-3.006-3.006,3.05,3.05,0,0,1,.053-.565,2.772,2.772,0,0,0,4.368,3.218A3,3,0,0,1,714.381,2873.162Z" transform="translate(-711.178 -2869.591)"/></g><g transform="translate(8.067 7.801)"><path class="c" d="M731.209,2868.295h0a.691.691,0,0,1-.691-.691v-2.042a.691.691,0,0,1,.691-.691h0a.691.691,0,0,1,.691.691v2.042A.69.69,0,0,1,731.209,2868.295Z" transform="translate(-730.518 -2864.871)"/></g><g transform="translate(4.395 13.366)"><path class="g" d="M696.2,2920.567a1.144,1.144,0,0,1,.209-.651c.007-.013.013-.026.021-.039l0,.007a1.527,1.527,0,0,1,.361-.348.7.7,0,0,0-.128-.479c-.03-.077-.17-.184-.239-.131-.478.362-.447,1.229-.421,1.889.012.312.07.726-.123.955-.083.1-.125.126-.2.03a3.461,3.461,0,0,1-.154-1.3q-.015-.42-.011-.84c0-.1,0-.21.005-.315,0-.035,0-.072,0-.107,0-.008,0-.02,0-.038.012-.161.017-.575-.129-.642s-.214.2-.227.365a14.588,14.588,0,0,0-.016,1.706,5.934,5.934,0,0,0,.278,1.961c.245.576.62.231.792-.254a3.349,3.349,0,0,0,.135-1.188A1.13,1.13,0,0,1,696.2,2920.567Z" transform="translate(-695.145 -2918.553)"/></g><g transform="translate(3.885 13.884)"><path class="k" d="M693.839,2925.422c-.3.166-.418.282-.551-.083a4.794,4.794,0,0,0-.278-.739c-.047-.083-.132-.181-.24-.123-.755.395-.706,1.337-.665,2.057.019.339.11.79-.194,1.038-.132.107-.2.138-.31.032-.267-.248-.226-1.083-.243-1.411q-.024-.457-.017-.914c0-.114,0-.229.009-.342,0-.039,0-.078.005-.117,0-.008,0-.022,0-.042.019-.176.027-.626-.2-.7s-.337.219-.358.4a10.965,10.965,0,0,0-.025,1.856,4.628,4.628,0,0,0,.439,2.134c.387.627.979.251,1.251-.277a2.735,2.735,0,0,0,.208-1.41c-.023-.4-.184-.949.1-1.27a2.8,2.8,0,0,0,.343.827c.29.356.655.136.882-.172C694.094,2926.041,694.146,2925.25,693.839,2925.422Z" transform="translate(-690.694 -2924.018)"/><path class="c" d="M691.253,2928.4a.626.626,0,0,1-.534-.352,4.365,4.365,0,0,1-.441-2.041l-.006-.117a11.065,11.065,0,0,1,.025-1.865.587.587,0,0,1,.2-.413.256.256,0,0,1,.222-.027c.3.095.247.687.24.754l0,.043c0,.034,0,.073,0,.111,0,.114-.008.228-.009.341,0,.309,0,.615.017.911,0,.057,0,.13.006.212.006.364.017.973.221,1.163.08.075.112.071.241-.035.24-.2.211-.54.186-.844,0-.052-.008-.1-.011-.151-.04-.715-.1-1.694.693-2.106.11-.058.226,0,.31.144a2.733,2.733,0,0,1,.205.519c.024.076.048.152.076.228.044.12.086.185.13.2s.145-.031.267-.1l.079-.045a.164.164,0,0,1,.222.024.979.979,0,0,1,.006.8.805.805,0,0,1-.575.376.476.476,0,0,1-.389-.2,1.653,1.653,0,0,1-.268-.588c-.016-.054-.033-.109-.051-.163a1.4,1.4,0,0,0-.064.869c.013.1.024.2.03.289a2.822,2.822,0,0,1-.214,1.437,1.05,1.05,0,0,1-.789.632Zm-.617-4.726a.14.14,0,0,0-.078.024.5.5,0,0,0-.156.338,10.978,10.978,0,0,0-.024,1.848l.006.117a4.293,4.293,0,0,0,.425,1.992.527.527,0,0,0,.461.3.961.961,0,0,0,.7-.575,2.682,2.682,0,0,0,.2-1.383c-.005-.087-.017-.182-.029-.282a1.276,1.276,0,0,1,.145-1.026l.057-.064.031.08c.033.086.06.175.086.261a1.548,1.548,0,0,0,.249.553.372.372,0,0,0,.305.164.706.706,0,0,0,.494-.334.934.934,0,0,0,0-.667c-.011-.012-.032-.036-.093,0h0l-.078.045c-.147.085-.253.146-.355.109-.078-.029-.135-.107-.192-.264-.028-.077-.053-.154-.077-.232a2.607,2.607,0,0,0-.2-.5c-.038-.067-.1-.14-.17-.1-.73.381-.677,1.321-.638,2.008,0,.047.007.1.011.148a1.021,1.021,0,0,1-.224.933c-.129.1-.231.168-.378.03-.237-.22-.247-.833-.254-1.238,0-.081,0-.152-.006-.208-.016-.3-.022-.607-.017-.917,0-.114,0-.229.009-.344,0-.038,0-.079.005-.118l0-.044c.025-.229,0-.59-.167-.643A.192.192,0,0,0,690.636,2923.675Z" transform="translate(-690.245 -2923.571)"/></g><g transform="translate(3.342 1.098)"><g transform="translate(0)"><path class="l" d="M692.28,2800.2a7.681,7.681,0,0,0-3.815,1.4,8.2,8.2,0,0,0-2.614,3.452,15.705,15.705,0,0,0-1.027,3.54C686.009,2804.345,688.908,2801.151,692.28,2800.2Z" transform="translate(-684.824 -2800.198)"/></g></g><g transform="translate(11.901 1.076)"><g transform="translate(0 0)"><path class="g" d="M775.937,2809.277a13.093,13.093,0,0,0-2.436-6.282,7.8,7.8,0,0,0-5.779-3.007c3.7.632,6.587,5.792,6.587,12.063a17.9,17.9,0,0,1-1.364,7.038,1.338,1.338,0,0,1,.141.144,3.088,3.088,0,0,1,.571,1.5c.059.348.123.567.275.656a.653.653,0,0,0,.476.06c.506-.132.862-.752,1.087-1.9A30.77,30.77,0,0,0,775.937,2809.277Z" transform="translate(-767.722 -2799.988)"/></g></g><g transform="translate(14.854 0.73)"><g transform="translate(0 0)"><g transform="translate(0.521 0.521)"><path class="b" d="M803.731,2809.047a3.052,3.052,0,0,1-2.006-.488.868.868,0,0,1-.268-.3.908.908,0,0,1-.1-.538c0-1.044,1.3-2.687,2.421-3.791s2.667-2.269,3.669-2.269a.918.918,0,0,1,.735.313,1.355,1.355,0,0,1,.023,1.447c.051,0,.1,0,.149,0a1.144,1.144,0,0,1,1.116.523,1.251,1.251,0,0,1-.285,1.373c.7.126,1.112.4,1.235.824a.909.909,0,0,1-.113.737c-.512.859-2.372,1.526-3.941,1.865A12.848,12.848,0,0,1,803.731,2809.047Z" transform="translate(-801.354 -2801.661)"/></g><path class="c" d="M802.976,2797.714a.421.421,0,0,1,.337.129c.239.281,0,.974-.568,1.82a4.346,4.346,0,0,1,1.137-.192c.334,0,.566.079.656.248.177.329-.223.921-.985,1.568h.126c.983,0,1.666.181,1.768.528.174.6-1.465,1.472-3.663,1.946a12.341,12.341,0,0,1-2.528.3,2.6,2.6,0,0,1-1.677-.375.366.366,0,0,1-.138-.139.4.4,0,0,1-.033-.261c-.028-.675.884-2.094,2.263-3.45,1.314-1.288,2.642-2.119,3.3-2.119m0-1.043c-1.458,0-3.456,1.85-4.034,2.418-.606.595-2.547,2.619-2.576,4.132a1.428,1.428,0,0,0,.158.817,1.4,1.4,0,0,0,.4.458,3.508,3.508,0,0,0,2.335.6,13.368,13.368,0,0,0,2.749-.32c.814-.175,3.527-.845,4.28-2.108a1.444,1.444,0,0,0,.166-1.15,1.554,1.554,0,0,0-.955-1,1.45,1.45,0,0,0-1.077-2.045,1.544,1.544,0,0,0-.31-1.314,1.456,1.456,0,0,0-1.133-.5Z" transform="translate(-796.359 -2796.671)"/></g><g transform="translate(2.065 1.061)"><path class="d" d="M818.035,2808.764a9.142,9.142,0,0,1,3.092-1.521.43.43,0,0,0-.091-.275c-.4-.477-2.035.414-3.64,1.99a13.472,13.472,0,0,0-1.248,1.4A12.52,12.52,0,0,1,818.035,2808.764Z" transform="translate(-816.148 -2806.84)"/></g><g transform="translate(1.045 2.932)"><path class="e" d="M814.422,2826.982c-.105-.362-.844-.543-1.894-.527.762-.647,1.161-1.239.985-1.568a.372.372,0,0,0-.1-.116l-7.033,3.79a.359.359,0,0,0,.039.15.366.366,0,0,0,.138.139c.44.461,2.209.507,4.205.077C812.957,2828.455,814.6,2827.583,814.422,2826.982Z" transform="translate(-806.378 -2824.771)"/></g></g><g transform="translate(14.238 10.327)"><path class="g" d="M790.985,2889.665a.51.51,0,1,1-.521-.5A.51.51,0,0,1,790.985,2889.665Z" transform="translate(-789.965 -2889.166)"/></g><g transform="translate(9.958 18.12)"><path class="g" d="M749.754,2964.742a.51.51,0,1,1-.521-.5A.51.51,0,0,1,749.754,2964.742Z" transform="translate(-748.734 -2964.242)"/></g><g transform="translate(8.809 18.977)"><path class="l" d="M738.331,2972.818a.337.337,0,1,1-.344-.33A.337.337,0,0,1,738.331,2972.818Z" transform="translate(-737.657 -2972.488)"/></g><g transform="translate(15.67 10.646)"><circle class="g" cx="0.766" cy="0.766" r="0.766" transform="translate(0 0)"/></g><g transform="translate(15.767 9.411)"><path class="g" d="M805.45,2880.71a.382.382,0,1,1-.39-.375A.382.382,0,0,1,805.45,2880.71Z" transform="translate(-804.685 -2880.335)"/></g><g transform="translate(14.17 2.268)"><path class="l" d="M790.065,2811.787a.383.383,0,1,1-.39-.375A.383.383,0,0,1,790.065,2811.787Z" transform="translate(-789.3 -2811.412)"/></g><g transform="translate(13.585 13.003)"><path class="g" d="M788.231,2918.337c-.005-.135-.036-.466-.233-.466s-.225.339-.233.466a1.774,1.774,0,0,1-.152.819c-.218.3-.582-.032-.712-.262-.354-.626-.317-1.376-.825-1.934-.2-.222-.337.147-.363.3-.032.18-.056.583-.293.608-.207.022-.245-.169-.28-.282a9.947,9.947,0,0,1-.176-1.2c-.08-.457-.321-1.671-1.03-1.177-.268.187-.14,1.109.127.921.368-.26.4.293.447.558.074.451.093.912.19,1.358.078.361.339.918.8.84.306-.052.473-.375.57-.714.354.751.27,1.918,1.231,2.141C788.222,2920.527,788.252,2918.891,788.231,2918.337Z" transform="translate(-783.785 -2915.093)"/></g><g transform="translate(13.506 13.967)"><path class="k" d="M787.973,2928.132c-.005-.136-.036-.467-.233-.467s-.225.339-.233.467a1.773,1.773,0,0,1-.152.819c-.218.3-.582-.032-.712-.262-.354-.626-.317-1.377-.825-1.934-.2-.222-.337.147-.363.3-.032.181-.056.583-.293.608-.207.022-.245-.169-.28-.282a9.95,9.95,0,0,1-.176-1.2c-.08-.457-.321-1.67-1.03-1.177-.268.187-.14,1.109.127.921.368-.26.4.293.447.558.074.451.093.912.19,1.359.078.361.339.918.8.84.306-.052.473-.375.57-.714.354.751.27,1.918,1.231,2.141C787.965,2930.322,788,2928.686,787.973,2928.132Z" transform="translate(-783.476 -2924.835)"/><path class="c" d="M786.752,2929.732a.748.748,0,0,1-.17-.02c-.706-.164-.872-.81-1.032-1.435a5.389,5.389,0,0,0-.181-.607c-.13.367-.321.573-.568.616-.51.086-.781-.513-.861-.88a7.944,7.944,0,0,1-.118-.8c-.021-.184-.042-.375-.073-.561,0-.027-.009-.058-.014-.09-.025-.174-.064-.437-.174-.485-.044-.019-.1,0-.178.051a.154.154,0,0,1-.162.021c-.118-.055-.176-.262-.192-.438a.681.681,0,0,1,.166-.589.508.508,0,0,1,.5-.094c.414.172.564,1.025.613,1.3.026.15.042.309.056.462a3.743,3.743,0,0,0,.118.729l.008.027c.04.137.078.231.216.218.165-.017.207-.3.234-.481,0-.031.009-.06.013-.084.017-.1.094-.357.246-.4a.2.2,0,0,1,.207.08,2.642,2.642,0,0,1,.531,1.133,3.622,3.622,0,0,0,.3.81c.08.142.27.347.442.356a.2.2,0,0,0,.182-.1,1.455,1.455,0,0,0,.138-.69c0-.037,0-.071.005-.1.02-.342.115-.515.285-.515s.272.183.285.517h0c.014.35.022,1.522-.455,1.917A.564.564,0,0,1,786.752,2929.732Zm-1.4-2.36.059.125a4.317,4.317,0,0,1,.242.753c.159.622.31,1.21.954,1.359a.489.489,0,0,0,.45-.092,2.62,2.62,0,0,0,.417-1.833h0c0-.1-.028-.416-.18-.416-.1,0-.165.148-.181.417,0,.031,0,.064,0,.1a1.517,1.517,0,0,1-.157.746.308.308,0,0,1-.272.142.8.8,0,0,1-.527-.409,3.7,3.7,0,0,1-.31-.833,2.525,2.525,0,0,0-.508-1.091c-.038-.042-.072-.059-.1-.05-.079.023-.152.2-.172.319,0,.024-.008.052-.013.081-.032.217-.081.544-.326.57s-.295-.181-.327-.292l-.008-.026a3.827,3.827,0,0,1-.122-.749c-.015-.152-.03-.308-.055-.454-.126-.714-.311-1.127-.55-1.227a.408.408,0,0,0-.4.083.6.6,0,0,0-.122.495c.017.2.079.328.132.353.011.005.029.009.057-.011a.285.285,0,0,1,.279-.061c.164.07.2.345.236.566,0,.032.009.061.013.088.031.188.053.38.074.566a7.883,7.883,0,0,0,.116.79c.067.309.307.873.742.8.234-.04.411-.268.528-.677Z" transform="translate(-783.028 -2924.387)"/></g><g transform="translate(18.539 9.763)"><path class="g" d="M832.529,2885.606c-.039-.521-.31-.29-.317.12a3.564,3.564,0,0,1-.012.98c-.136.3-.286-.089-.326-.3-.138-.744-.019-1.537-.128-2.286-.091-.626-.392-.2-.327.254.077.534.036,1.109.064,1.652a3.334,3.334,0,0,0,.344,1.615c.283.39.574.1.673-.352A5.949,5.949,0,0,0,832.529,2885.606Z" transform="translate(-831.41 -2883.803)"/></g><g transform="translate(18.307 10.696)"><path class="k" d="M830.76,2894.6c-.055-.522-.436-.29-.446.12-.005.246.115.771-.017.98-.191.3-.4-.089-.458-.3-.194-.744-.027-1.537-.18-2.286-.128-.626-.551-.2-.46.253a13.417,13.417,0,0,1,.09,1.652,2.557,2.557,0,0,0,.483,1.615c.4.391.807.1.946-.351A4.255,4.255,0,0,0,830.76,2894.6Z" transform="translate(-829.187 -2892.792)"/></g><g transform="translate(3.226 17.653)"><g transform="translate(0 0)"><path class="l" d="M686.022,2964.111c-.935.124-1.949-1.672-2.308-4.046.1.942.229,1.842.392,2.663a3.567,3.567,0,0,0,.8,1.9.881.881,0,0,0,.654.282c.289-.027.418-.309.476-.8Z" transform="translate(-683.714 -2960.065)"/></g></g></g></g></svg>