<?xml version="1.0" encoding="utf-8"?>
<!-- Generator: Adobe Illustrator 28.0.0, SVG Export Plug-In . SVG Version: 6.00 Build 0)  -->
<svg version="1.1" id="Layer_1" xmlns="http://www.w3.org/2000/svg" xmlns:xlink="http://www.w3.org/1999/xlink" x="0px" y="0px"
	 viewBox="0 0 16 16" style="enable-background:new 0 0 16 16;" xml:space="preserve">
<style type="text/css">
	.st0{fill:#2B2B2B;}
	.st1{fill:url(#SVGID_1_);}
</style>
<circle class="st0" cx="8" cy="8" r="8"/>
<linearGradient id="SVGID_1_" gradientUnits="userSpaceOnUse" x1="2.9697" y1="9.9" x2="13.0487" y2="9.9" gradientTransform="matrix(1 0 0 -1 0 18)">
	<stop  offset="0" style="stop-color:#BCFF2F"/>
	<stop  offset="1" style="stop-color:#00FF87"/>
</linearGradient>
<path class="st1" d="M6.6,8C5.4,6.5,4.2,5.1,3,3.6c0.1,0,0.2,0,0.3,0c0.8,0,1.6,0,2.4,0c0.1,0,0.2,0,0.3,0.2C7.1,5.2,8.2,6.6,9.3,8
	c0.1,0.1,0.1,0.2,0,0.3C8.2,9.6,7.1,11,6,12.4c-0.1,0.1-0.2,0.2-0.3,0.2c-0.9,0-1.7,0-2.7,0C4.2,11,5.4,9.5,6.6,8z M10.1,10.1
	c0.1,0.1,0.2,0.2,0.3,0.2c0.8,0,1.6,0,2.4,0c0.1,0,0.1,0,0.2,0c-0.9-1.1-1.8-2.2-2.7-3.4c0.9-1.1,1.8-2.2,2.7-3.3
	c-0.1,0-0.2,0-0.3,0c-0.7,0-1.4,0-2.1,0C10.2,3.6,10,3.7,9.8,4C9.4,4.5,8.9,5,8.5,5.6C9.2,6.4,9.8,7.2,10.4,8
	c-0.3,0.4-0.6,0.8-1,1.2C9.7,9.6,9.9,9.8,10.1,10.1z"/>
</svg>
