<svg xmlns="http://www.w3.org/2000/svg" xml:space="preserve" style="fill-rule:nonzero;clip-rule:evenodd;stroke-linecap:round;stroke-linejoin:round" viewBox="0 0 378 436"><defs><radialGradient id="a" cx="189" cy="218" r="194.5" gradientTransform="matrix(.97172 0 0 .9754 5.344 5.365)" gradientUnits="userSpaceOnUse"><stop offset="0" stop-color="#00a2e9"/><stop offset="0" stop-color="#f0f"/><stop offset="1" stop-color="#734ce2"/></radialGradient></defs><path fill="url(#a)" d="M188.514 0c-10.733 0-19.434 8.734-19.434 19.508s8.701 19.508 19.434 19.508 19.435-8.734 19.435-19.508S199.247 0 188.514 0"/><path fill="url(#a)" d="M188.514 10.73c4.83 0 8.746 3.93 8.746 8.778s-3.916 8.778-8.746 8.778-8.745-3.93-8.745-8.778 3.915-8.779 8.745-8.779M104.946 51.696c-10.733 0-19.434 8.734-19.434 19.508s8.7 19.507 19.434 19.507c10.733 0 19.434-8.734 19.434-19.507s-8.701-19.508-19.434-19.508M274.026 52.671c-10.734 0-19.435 8.734-19.435 19.508s8.701 19.508 19.435 19.508 19.434-8.734 19.434-19.508-8.701-19.508-19.434-19.508"/><path fill="url(#a)" d="M104.946 62.425c4.83 0 8.746 3.93 8.746 8.779 0 4.848-3.916 8.778-8.746 8.778s-8.745-3.93-8.745-8.778 3.915-8.779 8.745-8.779M274.026 63.4c4.83 0 8.745 3.93 8.745 8.779 0 4.848-3.915 8.778-8.745 8.778s-8.746-3.93-8.746-8.778 3.916-8.779 8.746-8.779M188.514 96.564c-12.343 0-22.349 10.044-22.349 22.434s10.006 22.434 22.349 22.434 22.35-10.044 22.35-22.434-10.006-22.434-22.35-22.434M19.434 99.49C8.701 99.49 0 108.224 0 118.998s8.701 19.508 19.434 19.508 19.435-8.734 19.435-19.508S30.168 99.49 19.434 99.49M358.566 99.49c-10.734 0-19.435 8.734-19.435 19.508s8.701 19.508 19.435 19.508S378 129.772 378 118.998s-8.701-19.508-19.434-19.508"/><path fill="url(#a)" d="M188.514 107.293c6.44 0 11.661 5.24 11.661 11.705s-5.221 11.704-11.661 11.704-11.661-5.24-11.661-11.704 5.221-11.705 11.661-11.705M19.434 110.219c4.83 0 8.746 3.931 8.746 8.779s-3.916 8.778-8.746 8.778-8.745-3.93-8.745-8.778 3.915-8.779 8.745-8.779M358.566 110.219c4.829 0 8.745 3.931 8.745 8.779s-3.916 8.778-8.745 8.778c-4.83 0-8.746-3.93-8.746-8.778s3.916-8.779 8.746-8.779M102.031 145.333c-12.344 0-22.35 10.044-22.35 22.434s10.007 22.434 22.35 22.434 22.349-10.044 22.349-22.434-10.006-22.434-22.349-22.434M274.026 145.333c-12.344 0-22.35 10.044-22.35 22.434s10.006 22.434 22.35 22.434c12.343 0 22.349-10.044 22.349-22.434s-10.006-22.434-22.349-22.434"/><path fill="url(#a)" d="M102.031 156.063c6.44 0 11.661 5.24 11.661 11.704s-5.221 11.705-11.661 11.705-11.66-5.24-11.66-11.705 5.22-11.704 11.66-11.704M274.026 156.063c6.44 0 11.66 5.24 11.66 11.704s-5.22 11.705-11.66 11.705-11.661-5.24-11.661-11.705 5.221-11.704 11.661-11.704"/><path fill="none" d="M189.486 190.201c-15.026 0-27.208 12.228-27.208 27.311s12.182 27.311 27.208 27.311 27.208-12.228 27.208-27.311-12.182-27.311-27.208-27.311"/><path fill="url(#a)" d="M19.434 198.004C8.701 198.004 0 206.739 0 217.512s8.701 19.508 19.434 19.508 19.435-8.734 19.435-19.508-8.701-19.508-19.435-19.508M358.566 198.004c-10.734 0-19.435 8.735-19.435 19.508s8.701 19.508 19.435 19.508S378 228.286 378 217.512s-8.701-19.508-19.434-19.508M189.486 200.931c9.123 0 16.519 7.424 16.519 16.581s-7.396 16.582-16.519 16.582-16.519-7.424-16.519-16.582c0-9.157 7.396-16.581 16.519-16.581"/><path fill="url(#a)" d="M19.434 208.734c4.83 0 8.746 3.93 8.746 8.778s-3.916 8.779-8.746 8.779-8.745-3.931-8.745-8.779 3.915-8.778 8.745-8.778M358.566 208.734c4.829 0 8.745 3.93 8.745 8.778s-3.916 8.779-8.745 8.779c-4.83 0-8.746-3.931-8.746-8.779s3.916-8.778 8.746-8.778M104.946 243.848c-12.343 0-22.35 10.044-22.35 22.434s10.007 22.434 22.35 22.434 22.35-10.044 22.35-22.434-10.007-22.434-22.35-22.434M274.026 243.848c-12.344 0-22.35 10.044-22.35 22.434s10.006 22.434 22.35 22.434c12.343 0 22.349-10.044 22.349-22.434s-10.006-22.434-22.349-22.434"/><path fill="url(#a)" d="M104.946 254.577c6.44 0 11.661 5.241 11.661 11.705s-5.221 11.705-11.661 11.705-11.66-5.241-11.66-11.705 5.22-11.705 11.66-11.705M274.026 254.577c6.44 0 11.66 5.241 11.66 11.705s-5.22 11.705-11.66 11.705-11.661-5.241-11.661-11.705 5.221-11.705 11.661-11.705M188.514 292.617c-12.343 0-22.349 10.044-22.349 22.434s10.006 22.434 22.349 22.434 22.35-10.044 22.35-22.434-10.006-22.434-22.35-22.434M19.434 296.519C8.701 296.519 0 305.253 0 316.027s8.701 19.508 19.434 19.508 19.435-8.734 19.435-19.508-8.701-19.508-19.435-19.508M358.566 296.519c-10.734 0-19.435 8.734-19.435 19.508s8.701 19.508 19.435 19.508S378 326.801 378 316.027s-8.701-19.508-19.434-19.508"/><path fill="url(#a)" d="M188.514 303.347c6.44 0 11.661 5.24 11.661 11.704s-5.221 11.705-11.661 11.705-11.661-5.24-11.661-11.705 5.221-11.704 11.661-11.704M19.434 307.248c4.83 0 8.746 3.931 8.746 8.779s-3.916 8.778-8.746 8.778-8.745-3.93-8.745-8.778 3.915-8.779 8.745-8.779M358.566 307.248c4.829 0 8.745 3.931 8.745 8.779s-3.916 8.778-8.745 8.778c-4.83 0-8.746-3.93-8.746-8.778s3.916-8.779 8.746-8.779M104.946 345.289c-10.733 0-19.434 8.734-19.434 19.507s8.7 19.508 19.434 19.508c10.733 0 19.434-8.734 19.434-19.508s-8.701-19.507-19.434-19.507M274.026 346.264c-10.734 0-19.435 8.734-19.435 19.508s8.701 19.508 19.435 19.508 19.434-8.734 19.434-19.508-8.701-19.508-19.434-19.508"/><path fill="url(#a)" d="M104.946 356.018c4.83 0 8.746 3.93 8.746 8.778s-3.916 8.779-8.746 8.779-8.745-3.93-8.745-8.779c0-4.848 3.915-8.778 8.745-8.778M274.026 356.993c4.83 0 8.745 3.931 8.745 8.779s-3.915 8.778-8.745 8.778-8.746-3.93-8.746-8.778 3.916-8.779 8.746-8.779M188.514 396.984c-10.733 0-19.434 8.734-19.434 19.508S177.781 436 188.514 436s19.435-8.734 19.435-19.508-8.702-19.508-19.435-19.508"/><path fill="url(#a)" d="M188.514 407.714c4.83 0 8.746 3.93 8.746 8.778s-3.916 8.779-8.746 8.779-8.745-3.931-8.745-8.779 3.915-8.778 8.745-8.778M266.252 164.643l-68.992 41.942 5.557 9.175 68.992-41.942zM110.473 163.683l-5.74 9.053 69.964 44.868 5.74-9.053zM91.767 168.468l-64.134 39.991 5.649 9.114 64.133-39.991zM352.28 215.226l-68.993 41.942 5.557 9.175 68.993-41.942zM177.37 219.128l-68.993 41.942 5.557 9.174 68.993-41.941zM201.845 217.863l-5.739 9.053 69.964 44.868 5.739-9.053z"/><path fill="url(#a)" d="m285.292 165.207-5.74 9.053 69.964 44.868 5.74-9.053zM27.451 216.324l-5.74 9.052 69.965 44.868 5.74-9.052z"/></svg>