<svg xmlns="http://www.w3.org/2000/svg" width="37" height="37" fill="none"><path fill="#FC8340" stroke="#fff" stroke-width="2" d="M36 18.5C36 28.2 28.2 36 18.5 36S1 28.2 1 18.5 8.8 1 18.5 1 36 8.8 36 18.5Z"/><path fill="#fff" d="M22.588 20.574c0-2.246-1.347-3.015-4.041-3.336-1.925-.256-2.31-.77-2.31-1.668s.642-1.475 1.925-1.475c1.154 0 1.796.385 2.117 1.347.064.192.256.32.449.32h1.026a.44.44 0 0 0 .449-.448v-.064a3.204 3.204 0 0 0-2.887-2.63v-1.54c0-.256-.192-.449-.513-.513h-.962c-.256 0-.449.193-.513.514v1.475c-1.924.256-3.143 1.54-3.143 3.143 0 2.116 1.283 2.95 3.977 3.271 1.796.32 2.373.706 2.373 1.732s-.898 1.732-2.116 1.732c-1.668 0-2.246-.706-2.438-1.668-.064-.257-.256-.385-.449-.385h-1.09a.44.44 0 0 0-.45.45v.063c.257 1.604 1.283 2.758 3.4 3.08v1.538c0 .257.193.45.513.514h.962c.257 0 .45-.193.514-.514v-1.539c1.924-.32 3.207-1.668 3.207-3.4"/><path fill="#fff" d="M15.641 27.315C10.638 25.52 8.073 19.94 9.933 15c.962-2.694 3.079-4.747 5.708-5.709.257-.128.385-.32.385-.641v-.898c0-.257-.128-.45-.385-.513-.064 0-.192 0-.256.064-6.094 1.924-9.43 8.403-7.505 14.496a11.54 11.54 0 0 0 7.505 7.505c.256.128.513 0 .577-.257.064-.064.064-.128.064-.256v-.899c0-.192-.192-.448-.385-.577m6.8-20.012c-.257-.128-.514 0-.578.256-.064.065-.064.129-.064.257v.898c0 .257.192.513.385.641 5.003 1.796 7.569 7.377 5.708 12.316-.962 2.694-3.078 4.746-5.708 5.708-.257.129-.385.321-.385.642v.898c0 .256.128.449.385.513.064 0 .192 0 .256-.064 6.094-1.924 9.43-8.403 7.505-14.496a11.63 11.63 0 0 0-7.504-7.57"/></svg>