<svg id="e2e38f9b-cf47-47bd-9987-adf5beaa522d" data-name="Capa 1" xmlns="http://www.w3.org/2000/svg" viewBox="0 0 250 250"><defs><style>.e68bdede-7f9c-4d02-a7df-335b09ea623a{fill:#22303b;}.a35ada4b-a27d-4a39-b509-d8de73d82f59{fill:#fff;}.ec407d4b-6ec9-4f81-acf1-35f774876aff{fill:#cb1f59;}</style></defs><path class="e68bdede-7f9c-4d02-a7df-335b09ea623a" d="M105.16,249.15h0c-38.26-3.3-70-24.3-82.45-52.68A66.18,66.18,0,0,1,17,169.69c0-28.93,19-54.27,47.46-68.31l1.29-.61a13.31,13.31,0,1,1,2.69-26.48c14.25-55.69,93.06-55.73,107.32,0a13.31,13.31,0,1,1,0,26.43c-.39,1.6-.85,3.16-1.39,4.7a55.3,55.3,0,0,1-34.46,34.39,14.07,14.07,0,0,0-7.54,6.23c-4.86,8.32-12.91,25.88-6.46,42.9,5.3-8.78,12.39-17.2,21.28-22.53,17.05-10.37,42.88-7.11,43.44,17a51,51,0,0,1-13.28,35.91,110.94,110.94,0,0,0,34.53-31.34c46.61-65.75,6-170-87.83-172.67A109.52,109.52,0,0,0,18,90.71,7.94,7.94,0,0,1,2.91,85.8c45.86-132.69,239.21-105,244.57,37.14C249,204.3,175.75,258.09,105.16,249.15Z"/><path class="a35ada4b-a27d-4a39-b509-d8de73d82f59" d="M123.59,72.07a1.56,1.56,0,0,1-3,0C113,50.77,78.7,53.39,77.64,80a22.31,22.31,0,0,0,17.85,21.82,8.84,8.84,0,0,1,7,8.73v4.06a15.2,15.2,0,0,0,15.2,15.19h8.91a15.19,15.19,0,0,0,15.19-15.19v-4.06a8.85,8.85,0,0,1,7-8.73A22.33,22.33,0,0,0,166.59,80C165.54,53.41,131.24,50.75,123.59,72.07ZM109.68,89.31h0c-.29.08-.58.13-.87.18l-.22,0a7.9,7.9,0,0,1-.83.12c-.29,0-.58.06-.88.09s-.82.05-1.23.05a17.59,17.59,0,0,1-10.18-3.24A16.74,16.74,0,0,1,93,84.46a15,15,0,0,1-1.68-2A16.61,16.61,0,0,1,90,80.27a5.16,5.16,0,0,1-.17-4.4,5.28,5.28,0,0,1,1.12-1.71,5.18,5.18,0,0,1,4.5-1.56,17.72,17.72,0,0,1,7.74,3.07,18.15,18.15,0,0,1,2.22,1.87c.22.21.44.44.65.68a4.77,4.77,0,0,1,.51.6,16.24,16.24,0,0,1,1.26,1.73,6,6,0,0,1,.38.64.46.46,0,0,1,.07.1c.13.22.25.45.36.68a1,1,0,0,1,.09.17c.12.22.22.44.32.67,0,.08.06.15.09.21a5,5,0,0,1,.29.73,8.64,8.64,0,0,1,.31.85,17.2,17.2,0,0,1,.61,2.55c0,.16,0,.34.08.5s0,.35.06.54A1.08,1.08,0,0,1,109.68,89.31Zm17.66,23.14-.3,0a.57.57,0,0,1-.16,0c-.14,0-.3,0-.5.08l-.45.13a5.38,5.38,0,0,0-1,.38,2.65,2.65,0,0,0-.4.22l-.46.31a4.26,4.26,0,0,0-.43.34l0,0a4.15,4.15,0,0,0-.4.43,1.27,1.27,0,0,1-.34.38.31.31,0,0,1-.17.13,1.06,1.06,0,0,1-.91.15,1.14,1.14,0,0,1-.35-.17s-.08,0-.12-.09a.75.75,0,0,1-.15-.16.48.48,0,0,1-.13-.16,5.08,5.08,0,0,0-.5-.54,5.32,5.32,0,0,0-.92-.68l-.32-.17a3.56,3.56,0,0,0-.58-.24,2.3,2.3,0,0,0-.39-.14,4.74,4.74,0,0,0-.5-.15c-.2,0-.37-.07-.51-.08a.76.76,0,0,1-.16,0l-.29,0c0-.33,0-.65,0-1,0-.49,0-1,0-1.47V110c0-.44,0-.87.09-1.3a1.37,1.37,0,0,1,0-.19c0-.43.08-.83.14-1.24.1-.81.22-1.58.38-2.32,0-.26.1-.49.16-.74.15-.69.32-1.35.52-2,.07-.28.16-.55.24-.81.2-.63.41-1.23.63-1.79.13-.34.27-.67.4-1s.16-.39.25-.57c.23-.54.48-1,.71-1.47.3-.59.59-1.1.84-1.5h0a.47.47,0,0,1,.06-.09.87.87,0,0,1,1.58.09,29.68,29.68,0,0,1,2.11,4.3c.1.25.2.52.3.79s.23.66.35,1a9,9,0,0,1,.33,1.08c.11.37.23.75.32,1.14s.21.9.31,1.37.15.73.22,1.12h0c.08.43.14.87.2,1.33s.11.91.15,1.37v0c0,.46.08,1,.1,1.45s0,1,0,1.47C127.35,111.82,127.35,112.13,127.34,112.45Zm26.89-32.18a17.05,17.05,0,0,1-2.15,3.22c-.28.33-.58.65-.89,1a15.82,15.82,0,0,1-2.43,2.09,17.43,17.43,0,0,1-10.14,3.24c-.42,0-.83,0-1.25-.05s-.62,0-.94-.1-.47,0-.7-.1-.26,0-.39-.06a6.53,6.53,0,0,1-.71-.16h-.08l0,0a1,1,0,0,1-.76-1v-.1a.22.22,0,0,1,0-.08c0-.32.08-.64.13-1a16,16,0,0,1,.42-1.89c.08-.29.17-.59.27-.88a.76.76,0,0,1,.06-.18c.09-.25.19-.52.3-.78a8.25,8.25,0,0,1,.37-.86.13.13,0,0,1,0-.08c.13-.28.28-.56.42-.83A17.32,17.32,0,0,1,138,78.4a8.33,8.33,0,0,1,.65-.69,1.25,1.25,0,0,1,.16-.17A17.43,17.43,0,0,1,141,75.67a17.63,17.63,0,0,1,7.73-3.07,5.21,5.21,0,0,1,4.52,1.56,5.79,5.79,0,0,1,1.11,1.71A5.13,5.13,0,0,1,154.23,80.27Z"/><path class="ec407d4b-6ec9-4f81-acf1-35f774876aff" d="M110.47,88.19a1.08,1.08,0,0,1-.79,1.12h0q-.44.1-.87.18l-.22,0a7.9,7.9,0,0,1-.83.12c-.29,0-.58.06-.88.09s-.82.05-1.23.05a17.59,17.59,0,0,1-10.18-3.24A16.74,16.74,0,0,1,93,84.46a15,15,0,0,1-1.68-2A16.61,16.61,0,0,1,90,80.27a5.16,5.16,0,0,1-.17-4.4,5.28,5.28,0,0,1,1.12-1.71,5.18,5.18,0,0,1,4.5-1.56,17.72,17.72,0,0,1,7.74,3.07,18.15,18.15,0,0,1,2.22,1.87c.22.22.44.44.65.68s.35.39.51.6a16.24,16.24,0,0,1,1.26,1.73,6,6,0,0,1,.38.64.46.46,0,0,1,.07.1c.13.22.25.45.36.68a1,1,0,0,1,.09.17c.11.23.22.45.32.67s.06.15.09.21a7.38,7.38,0,0,1,.29.73c.11.28.21.56.31.85a17.2,17.2,0,0,1,.61,2.55c0,.16,0,.34.08.5S110.46,88,110.47,88.19Z"/><path class="ec407d4b-6ec9-4f81-acf1-35f774876aff" d="M154.22,80.27a18.19,18.19,0,0,1-2.14,3.22c-.28.33-.58.65-.89,1a15.82,15.82,0,0,1-2.43,2.09,17.43,17.43,0,0,1-10.14,3.24c-.42,0-.83,0-1.25-.05s-.62,0-.94-.1-.47,0-.7-.1-.26,0-.39-.06l-.71-.16h-.08l0,0a1,1,0,0,1-.76-1v-.1a.22.22,0,0,1,0-.08c0-.32.08-.64.13-1a16,16,0,0,1,.42-1.89c.08-.29.17-.59.27-.88a.76.76,0,0,1,.06-.18c.09-.25.19-.52.3-.78a8.25,8.25,0,0,1,.37-.86.13.13,0,0,1,0-.08c.13-.28.28-.56.42-.83A17.32,17.32,0,0,1,138,78.4c.21-.23.43-.47.65-.69a1.25,1.25,0,0,1,.16-.17A17.43,17.43,0,0,1,141,75.67a17.63,17.63,0,0,1,7.73-3.07,5.21,5.21,0,0,1,4.52,1.56,5.79,5.79,0,0,1,1.11,1.71A5.16,5.16,0,0,1,154.22,80.27Z"/><path class="e68bdede-7f9c-4d02-a7df-335b09ea623a" d="M127.35,111.5c0,.32,0,.63,0,1l-.3,0a.57.57,0,0,1-.16,0c-.14,0-.3,0-.5.08l-.45.13a5.38,5.38,0,0,0-1,.38,2.65,2.65,0,0,0-.4.22,3.1,3.1,0,0,0-.46.31,4.26,4.26,0,0,0-.43.34l0,0a2.35,2.35,0,0,0-.4.43,1.27,1.27,0,0,1-.34.38,1.17,1.17,0,0,1-1.08.28,1.14,1.14,0,0,1-.35-.17s-.08,0-.12-.09a.75.75,0,0,1-.15-.16.48.48,0,0,1-.13-.16,5,5,0,0,0-1.42-1.22l-.32-.17a3.56,3.56,0,0,0-.58-.24,2.58,2.58,0,0,0-.39-.14,4.74,4.74,0,0,0-.5-.15c-.2,0-.37-.07-.51-.08a.76.76,0,0,1-.16,0l-.29,0c0-.82,0-1.63,0-2.44V110c0-.44,0-.87.09-1.3a1.37,1.37,0,0,1,0-.19c0-.41.08-.83.14-1.24a27.12,27.12,0,0,1,.54-3.06c.15-.69.32-1.35.52-2A29.34,29.34,0,0,1,119.74,98c.23-.54.48-1,.71-1.47.3-.59.59-1.1.84-1.5h0a.47.47,0,0,1,.06-.09c1.41-2.07,3.19,3.36,4,5.18.12.32.23.66.35,1s.24.71.33,1.08.21.75.32,1.14c.19.81.38,1.64.53,2.49h0c.15.88.27,1.8.35,2.7v0C127.31,109.55,127.35,110.51,127.35,111.5Z"/><path class="a35ada4b-a27d-4a39-b509-d8de73d82f59" d="M177.48,95.25a.5.5,0,0,1-.58-.57,56.56,56.56,0,0,0,.46-7.17,55.23,55.23,0,0,0-.47-7.2.49.49,0,0,1,.58-.56,7.92,7.92,0,0,1,0,15.5Z"/><path class="a35ada4b-a27d-4a39-b509-d8de73d82f59" d="M66.86,87.51a53,53,0,0,0,.43,6.82.75.75,0,0,1-.93.83,7.92,7.92,0,0,1,0-15.32.76.76,0,0,1,.94.83A53.23,53.23,0,0,0,66.86,87.51Z"/></svg>