<svg xmlns="http://www.w3.org/2000/svg" width="146" height="146" fill="none"><path fill="#CCB175" d="M72.96 145.92c40.295 0 72.96-32.665 72.96-72.96S113.255 0 72.96 0 0 32.665 0 72.96s32.665 72.96 72.96 72.96"/><path fill="#fff" d="m118.678 84.963 6.474-3.237c1.079-.54 1.348-2.023.539-2.967l-8.092-19.824c-1.213-2.967-1.888-5.934-2.157-9.171-2.158-27.242-25.085-48.55-53.001-48.146-28.051.405-50.978 23.197-51.517 51.383-.405 24.95 16.588 45.988 39.65 51.652l-2.698 1.483-17.667 39.65h48.146l11.867-26.029c1.35-2.967 4.451-4.72 7.688-4.585l10.923.944c3.642.27 6.609-2.562 6.474-6.204l-.135-3.506c0-2.428.674-4.72 2.023-6.743v-.674c0-1.35-1.079-2.563-2.428-2.833-4.72-.809-7.417-3.101-7.417-3.101 3.237 0 7.148-.405 9.71-.81 1.484-.134 2.562-1.618 2.293-3.101z"/><path fill="#0000AE" d="m64.194 106.136 20.769-43.425c15.374-2.428 24.949-32.232 24.005-33.985-2.562-4.855-4.855-7.418-7.282-10.115C91.841 7.417 78.085 1.349 62.576 1.618c-28.456.27-51.652 23.736-51.652 52.327 0 14.16 5.664 27.107 14.835 36.412-14.7 1.08-26.164 13.352-25.76 28.321.405 14.7 12.273 26.703 26.973 27.108 11.329.269 21.173-6.069 25.759-15.51 0-.134.135-.269.135-.404z"/><path fill="#fff" d="M79.03 14.97c-3.238 12.812-9.98 24.814-19.016 34.524l18.071-9.035C69.993 58.395 56.912 72.42 40.998 77.68l15.779-.54C44.37 89.684 27.782 93.056 12.407 87.66c0 0-.134 0-.134-.135-5.934-2.157-7.013-11.058-2.023-15.24z"/><path fill="#0000AE" d="M107.89 67.161c1.787 0 3.236-2.415 3.236-5.394s-1.449-5.395-3.236-5.395-3.237 2.415-3.237 5.395 1.449 5.394 3.237 5.394"/></svg>