<svg fill="none" height="222" viewBox="0 0 222 222" width="222" xmlns="http://www.w3.org/2000/svg"><circle cx="111" cy="111" fill="#1b184e" r="111"/><circle cx="111" cy="68" fill="#04a8f0" r="26"/><path clip-rule="evenodd" d="m111 109c-26.5096 0-48-21.4899-48-47.9995 1.0797-12.9952-9.9931-12.9998-12.9972-9.4735-.2291.2084-.4479.4453-.6549.7122-10.2471 13.2126-16.3479 29.8073-16.3479 47.8278 0 15.85 15.0169 25.954 30.8662 25.954h94.2678c15.849 0 30.866-10.104 30.866-25.954 0-18.0205-6.101-34.6152-16.348-47.8278-.211-.2726-.435-.514-.67-.7258-3.025-3.5088-14.06-3.4827-12.982 9.491-.002 26.5078-21.492 47.9956-48 47.9956z" fill="#686df1" fill-rule="evenodd"/><path d="m119.212 187.183 21.873-31.476c4.608-6.631-.137-15.707-8.212-15.707h-21.873-21.8734c-8.0746 0-12.8197 9.076-8.2119 15.707l21.8733 31.476c3.978 5.724 12.446 5.724 16.424 0z" fill="#04a8f0"/></svg>