<svg xmlns="http://www.w3.org/2000/svg" width="222" height="222" fill="none"><circle cx="111" cy="111" r="111" fill="#1B184E"/><circle cx="111" cy="68" r="26" fill="#04A8F0"/><path fill="#686DF1" fill-rule="evenodd" d="M111 109c-26.51 0-48-21.49-48-48 1.08-12.995-9.993-13-12.997-9.473q-.345.312-.655.712C39.1 65.452 33 82.046 33 100.067c0 15.85 15.017 25.954 30.866 25.954h94.268c15.849 0 30.866-10.104 30.866-25.954 0-18.02-6.101-34.615-16.348-47.828a5.5 5.5 0 0 0-.67-.726c-3.025-3.508-14.06-3.482-12.982 9.491C158.998 87.512 137.508 109 111 109" clip-rule="evenodd"/><path fill="#04A8F0" d="m119.212 187.183 21.873-31.476c4.608-6.631-.137-15.707-8.212-15.707H89.127c-8.075 0-12.82 9.076-8.212 15.707l21.873 31.476c3.978 5.724 12.446 5.724 16.424 0"/></svg>