<svg xmlns="http://www.w3.org/2000/svg" width="144" height="144" fill="none"><path fill="#BD00FF" d="M71.85 143.7c39.682 0 71.85-32.168 71.85-71.85S111.532 0 71.85 0 0 32.168 0 71.85s32.168 71.85 71.85 71.85"/><path fill="#fff" d="M88.76 35H79.95v7.181l-.3.118q-5.647 2.268-8.889 6.31-3.208 4.042-3.177 9.45-.03 6.601 4.782 10.498t13.125 5.728l7.156 1.629q3.594.785 6.065 1.745 2.503.96 3.787 2.326 1.316 1.366 1.316 3.373 0 2.152-1.444 3.81-1.444 1.656-4.076 2.587-2.6.93-6.13.93-3.593 0-6.45-.988-2.823-1.018-4.524-2.995-1.67-2.006-1.893-5.001H65.85q.16 6.426 3.433 10.788 3.306 4.333 9.178 6.542.727.273 1.487.511v6.73h8.811v-5.148q1.728.117 3.565.117 1.335 0 2.603-.06v5.091h8.811v-6.448a28 28 0 0 0 2.289-.763q5.712-2.21 8.729-6.194 3.048-4.012 3.08-9.48-.032-3.721-1.508-6.6-1.444-2.88-4.075-5.002-2.632-2.123-6.226-3.577-3.594-1.455-7.894-2.326l-5.905-1.28a37 37 0 0 1-4.043-1.047q-1.894-.639-3.338-1.483-1.444-.872-2.278-2.064-.802-1.192-.738-2.792 0-1.919 1.22-3.43 1.25-1.513 3.593-2.356 2.343-.873 5.745-.873 5.006 0 7.926 1.949 2.92 1.947 3.305 5.466h13.318q-.096-5.32-3.145-9.363-3.048-4.041-8.536-6.31a26 26 0 0 0-1.519-.575V35h-8.811v5.097a44 44 0 0 0-6.168.095z"/><path fill="#fff" fill-rule="evenodd" d="M47.59 53.307H34.92v12.67H22.248v12.671h12.67V91.32h12.67V78.65h12.672V65.977H47.59zm0 12.67v12.671H34.92v-12.67z" clip-rule="evenodd"/></svg>