<svg xmlns="http://www.w3.org/2000/svg" width="96" height="96" fill="none"><path fill="url(#a)" d="M48 96c26.51 0 48-21.49 48-48S74.51 0 48 0 0 21.49 0 48s21.49 48 48 48"/><g filter="url(#b)"><path fill="url(#c)" d="M48 96c26.51 0 48-21.49 48-48S74.51 0 48 0 0 21.49 0 48s21.49 48 48 48"/></g><path stroke="url(#d)" stroke-opacity=".12" d="M48 95.5c26.234 0 47.5-21.266 47.5-47.5C95.5 21.767 74.234.5 48 .5 21.767.5.5 21.767.5 48 .5 74.234 21.767 95.5 48 95.5Z"/><g filter="url(#e)"><path stroke="#fff" stroke-width="4.632" d="M65.844 24.87a.842.842 0 0 0-.73-1.142l-9.547-.633a.84.84 0 0 0-.748.36l-2.53 3.644a.84.84 0 0 1-.696.362H36c-.825-.005-2.835.193-3.455.737l-4.663 4.093a3.37 3.37 0 0 0-.95 3.662l2.22 6.232c.012.032-.014.095-.014.095a10.45 10.45 0 0 0-2.084 5.725l-.038.706a38.7 38.7 0 0 0 1.534 13.046l2.936 9.93a2.52 2.52 0 0 0 3.011 1.74l11.479-2.76a30.3 30.3 0 0 0 9.436-4.067l1.81-1.178a10.45 10.45 0 0 0 3.915-4.667.1.1 0 0 1 .075-.06l6.508-1.193a3.37 3.37 0 0 0 2.696-2.654l1.213-6.085a3.37 3.37 0 0 0-.397-2.36l-7.894-13.49a3.37 3.37 0 0 1-.237-2.91z" clip-rule="evenodd"/></g><defs><linearGradient id="a" x1="48" x2="48" y1="0" y2="96" gradientUnits="userSpaceOnUse"><stop stop-color="#130C3F"/><stop offset="1" stop-color="#15197B"/></linearGradient><linearGradient id="c" x1="0" x2="96" y1="48" y2="48" gradientUnits="userSpaceOnUse"><stop stop-color="#AE73FA"/><stop offset="1" stop-color="#AE73FA" stop-opacity="0"/></linearGradient><linearGradient id="d" x1="96" x2="0" y1="48" y2="48" gradientUnits="userSpaceOnUse"><stop stop-color="#AE73FA"/><stop offset="1" stop-color="#AE73FA" stop-opacity="0"/></linearGradient><filter id="b" width="104" height="96" x="-8" y="0" color-interpolation-filters="sRGB" filterUnits="userSpaceOnUse"><feFlood flood-opacity="0" result="BackgroundImageFix"/><feBlend in="SourceGraphic" in2="BackgroundImageFix" result="shape"/><feColorMatrix in="SourceAlpha" result="hardAlpha" values="0 0 0 0 0 0 0 0 0 0 0 0 0 0 0 0 0 0 127 0"/><feOffset dx="-12"/><feGaussianBlur stdDeviation="4"/><feComposite in2="hardAlpha" k2="-1" k3="1" operator="arithmetic"/><feColorMatrix values="0 0 0 0 0.682353 0 0 0 0 0.45098 0 0 0 0 0.980392 0 0 0 0.56 0"/><feBlend in2="shape" result="effect1_innerShadow"/></filter><filter id="e" width="51.208" height="56.655" x="23.611" y="20.372" color-interpolation-filters="sRGB" filterUnits="userSpaceOnUse"><feFlood flood-opacity="0" result="BackgroundImageFix"/><feColorMatrix in="SourceAlpha" result="hardAlpha" values="0 0 0 0 0 0 0 0 0 0 0 0 0 0 0 0 0 0 127 0"/><feOffset dy=".405"/><feGaussianBlur stdDeviation=".405"/><feColorMatrix values="0 0 0 0 0 0 0 0 0 0 0 0 0 0 0 0 0 0 0.12 0"/><feBlend in2="BackgroundImageFix" result="effect1_dropShadow"/><feBlend in="SourceGraphic" in2="effect1_dropShadow" result="shape"/><feColorMatrix in="SourceAlpha" result="hardAlpha" values="0 0 0 0 0 0 0 0 0 0 0 0 0 0 0 0 0 0 127 0"/><feOffset dy=".405"/><feGaussianBlur stdDeviation=".405"/><feComposite in2="hardAlpha" k2="-1" k3="1" operator="arithmetic"/><feColorMatrix values="0 0 0 0 0 0 0 0 0 0 0 0 0 0 0 0 0 0 0.12 0"/><feBlend in2="shape" result="effect2_innerShadow"/></filter></defs></svg>