<svg xmlns="http://www.w3.org/2000/svg" width="24" height="24" fill="none"><circle cx="12" cy="12" r="12" fill="#04111D"/><path fill="#fff" fill-rule="evenodd" d="M14.041 12.212a6.6 6.6 0 0 1-1.51 2.952c-.194.217-.19.555.042.73q.156.116.317.223c.01.007.024.007.032-.003l.003-.004a7.55 7.55 0 0 0 2.21-5.347 7.6 7.6 0 0 0-3.093-6.11l-.01-.008a.05.05 0 0 0-.07 0l-.01.008a7.6 7.6 0 0 0-3.092 6.11c0 .257.266.418.507.33q.124-.045.25-.085a.26.26 0 0 0 .175-.245c0-1.843.777-3.62 2.132-4.874a.11.11 0 0 1 .146 0 6.66 6.66 0 0 1 1.971 6.323m-7.08.572a7.56 7.56 0 0 0-2.46 4.82c-.004.03.012.06.04.074l.006.003a7.5 7.5 0 0 0 3.048.645 7.5 7.5 0 0 0 3.676-.956c.27-.151.28-.527.047-.73a.49.49 0 0 0-.556-.06 6.57 6.57 0 0 1-5.074.528l-.096-.029-.009-.002a.06.06 0 0 1-.042-.071l.022-.098a6.6 6.6 0 0 1 4.466-4.826 6.646 6.646 0 0 1 3.302-.165c.285.059.576-.113.61-.403a.456.456 0 0 0-.358-.5 7.5 7.5 0 0 0-3.644.119 7.5 7.5 0 0 0-2.978 1.651m12.493 4.9a7.5 7.5 0 0 1-3.05.646 7.48 7.48 0 0 1-5.254-2.138l-.02-.021-.04-.039-.018-.018a7.57 7.57 0 0 1-1.85-3.033.454.454 0 0 1 .252-.557c.27-.116.566.051.659.33a6.6 6.6 0 0 0 1.794 2.78 6.56 6.56 0 0 0 4.478 1.76c.67 0 1.334-.1 1.97-.3a.11.11 0 0 0 .074-.129 6.6 6.6 0 0 0-3.01-4.212.48.48 0 0 1-.226-.503c.059-.304.388-.488.653-.329q.627.375 1.173.868a7.56 7.56 0 0 1 2.46 4.819v.005a.07.07 0 0 1-.04.068z" clip-rule="evenodd"/></svg>