<svg xmlns="http://www.w3.org/2000/svg" xml:space="preserve" fill-rule="evenodd" stroke-linejoin="round" stroke-miterlimit="2" clip-rule="evenodd" viewBox="0 0 100 100"><circle cx="50" cy="50" r="50" fill="#f4f499"/><path d="m96.894 67.2-.513 1.4H91.7c-.5 0-1.1.2-1.5.6-.4.4-.6.9-.6 1.5v9.729l-1.024 1.368-.276.304V70.7c0-1 .3-1.8 1-2.5.7-.6 1.6-1 2.5-1h5.094Z"/><path d="m93.962 73.825.66-1.371-.722.446c-.7.7-1 1.6-1 2.5v.171l1.062-1.746Zm-8.614-59.173-.948-.862V29.3c0 .2 0 .3.1.5.1.1.2.3.3.4.1.1.2.2.4.3.1.1.3.1.5.1h10.388l-.02-.054-.648-1.346H85.7V15.038l-.352-.386Z"/><path d="m88.576 18.203-.276-.304V25.3c0 .4.2.7.4 1 .3.3.6.4 1 .4h4.515l-.253-.525-.472-.775H89.6v-5.829l-1.024-1.368ZM39.8 98.95l-1.3-.334V40.6H.914l.103-.671.161-.629H39.8v59.65Z"/><path d="M1.667 62.6H13.7c.5 0 .9.1 1.3.3.4.2.7.4 1 .7.3.3.5.6.7 1 .1.4.2.8.2 1.2v21.592l-1.4-1.272V65.7c0-.5-.2-1-.5-1.3-.3-.3-.8-.5-1.3-.5H2.002l-.335-1.3Z"/><path d="M3.106 67.2H8.8c1 0 1.9.4 2.5 1 .6.7 1 1.6 1 2.5v12.061l-.876-.964-.524-.7V70.7c0-.5-.2-1.1-.6-1.5-.4-.4-.9-.6-1.5-.6H3.619l-.513-1.4Z"/><path d="m5.212 72.11.826 1.715L7.7 76.559V75.4c0-.9-.4-1.8-1-2.5-.431-.369-.938-.663-1.488-.79ZM20.8 35H2.3l.476-1.3H19.5V10.453l1.3-.972V35Z"/><path d="M16.343 13.114 14.9 14.426V29.2H4.58l-.626 1.3H15.1c.3 0 .6-.1.9-.4.2-.2.4-.5.4-.9l-.057-16.086Z"/><path d="m12.228 17.318-.804.885-.424.566V25.4H6.51l-.472.775-.253.525H10.8c.2 0 .4 0 .5-.1.2-.1.3-.2.5-.3.1-.1.2-.3.3-.5.1-.2.1-.4.1-.5l.028-7.982ZM25.1 6.692V16.3h50.4V7.057l1.3.79V17.6h-53V7.482l1.3-.79Z"/><path d="M29 4.677V13h42.7V5.014l1.5.723V13.1c0 .4-.2.7-.4.9-.3.3-.6.4-.9.4h-43c-.4 0-.7-.2-.9-.4-.3-.3-.4-.6-.4-.9V5.352l1.4-.675Z"/><path d="M33.1 2.996V9.7h34.6V3.289l1.229.451L68.9 9.6c0 .4-.1.7-.4 1-.3.3-.6.4-1 .4H33c-.1 0-.3 0-.5-.1s-.4-.2-.5-.3c-.1-.2-.2-.3-.3-.5-.1-.1-.1-.3-.1-.5V3.546l1.5-.55Z"/><path d="M37 1.77V4.9c0 .1 0 .2.1.4 0 .2.1.3.2.4.1.1.3.1.4.2.1.1.3.1.4.1h24.4c.3 0 .6-.2.8-.3.2-.2.3-.5.3-.8V1.925l1.262.324L65 2.3v2.6c0 .6-.3 1.2-.8 1.7-.4.4-1.1.7-1.7.7H38.1c-.6 0-1.2-.2-1.7-.7-.4-.4-.7-1.1-.7-1.7V2.105L37 1.77Z"/><path d="M40.7.899V1.1c0 .3.1.6.4.9.2.3.5.4.9.4h16.7c.2 0 .3 0 .5-.1.1-.1.3-.2.4-.3.1-.1.2-.2.3-.4.1-.2.1-.3.1-.5v-.094l.071.011 1.183.304c-.02.626-.307 1.232-.754 1.679-.5.5-1.2.8-1.9.8H42c-.7 0-1.4-.3-1.9-.8-.482-.482-.778-1.15-.785-1.826l.614-.157.771-.118ZM43.1 39.3h14.7v39.9H43.1zm-19.3-19h34.1V35H23.8zm38.3 0h14.7V35H62.1zm36.883 19.629.103.671H62.1v57.861l-1.3.335V39.3h38.022l.161.629Z"/><path d="m99.742 44.891-.152-.991H66.6c-.2 0-.3 0-.5.1-.1.1-.3.1-.4.3-.1.1-.2.2-.3.4-.1.1-.1.3-.1.5v52.39l1.4-.513V45.3h33.062l-.02-.409Z"/><path d="M99.929 48.6H71.4c-.4 0-.7.2-1 .4-.3.3-.4.6-.4 1v45.805l1.3-.626V49.9h28.695l-.066-1.3Z"/><path d="m99.833 53.3-.066 1.3H77c-.3 0-.6.1-.8.3-.2.2-.3.5-.3.8v37l-1.3.79V55.7c0-.6.2-1.2.7-1.7.4-.4 1.1-.7 1.7-.7h22.833Z"/><path d="m99.315 57.9-.214 1.4H81.8c-.3 0-.7.1-.9.4-.3.2-.4.5-.4.9v28.947l-1.4 1.047V60.6c0-.7.3-1.4.8-1.9s1.2-.8 1.9-.8h17.515Z"/><path d="m98.333 62.6-.361 1.4H86.9c-.5 0-1 .2-1.3.5-.3.3-.5.8-.5 1.3v19.774l-1.3 1.182V65.7c0-.8.3-1.6.9-2.2.6-.6 1.4-.9 2.2-.9h11.433ZM79.8 9.93l1.3.972V33.7h16.124L97.7 35H79.8V9.93ZM.41 43.9l-.152.991-.02.409H33.9v51.997l1.238.454.062.015V45.2c0-.3-.1-.6-.4-.9-.1-.2-.4-.4-.8-.4H.41Z"/><path d="m.071 48.6-.066 1.3H29.2l.073 45.555 1.273.613.054.02V50c0-.4-.2-.7-.4-1-.2-.2-.6-.4-1-.4H.071Z"/><path d="M.167 53.3H23.7c.6 0 1.2.2 1.7.7.4.4.7 1.1.7 1.7v38.216l-1.3-.79V55.7c0-.3-.1-.6-.3-.8-.2-.2-.5-.3-.8-.3H.233l-.066-1.3Z"/><path d="M.685 57.9H18.8c.7 0 1.4.3 1.9.8s.8 1.2.8 1.9v30.443l-1.4-1.048V60.6c0-.3-.2-.6-.4-.9-.2-.3-.5-.4-.9-.4H.899l-.214-1.4ZM57.8 99.33l-1.3.199V84H44.4v15.667l-1.3-.199V82.7h14.7v16.63Z"/><path d="M47 99.848V88.1c0-.3.2-.6.4-.8.3-.3.6-.4.9-.4H53c.2.1.3.2.4.3.2.1.2.3.3.4.1.2.1.3.1.5v11.708l-1.3.066V88.2h-4.1v11.719l-1.4-.071Z"/></svg>