<svg xmlns="http://www.w3.org/2000/svg" xml:space="preserve" style="height:45px;width:45px;margin-right:10px" viewBox="0 0 320 321"><path d="M0 5.537c-5.168 0-9.371-4.204-9.371-9.371 0-.533.055-1.053.14-1.561l-10.095-5.024 7.456 47.426-46.207-31.068-39.266 22.157 44.17 14.11-15.829 11.882a9.3 9.3 0 0 1 .835 3.846c0 5.167-4.204 9.371-9.372 9.371-5.167 0-9.371-4.204-9.371-9.371s4.204-9.371 9.371-9.371c2.123 0 4.077.717 5.65 1.912l8.779-6.59-45.732-14.609 48.73-27.496 5.889-44.974-37.802 26.855v-20.526c-4.052-1.033-7.06-4.702-7.06-9.07 0-5.168 4.204-9.372 9.371-9.372s9.372 4.204 9.372 9.372c0 4.368-3.009 8.037-7.06 9.07v11.571l39.138-27.804-7.229 55.204 37.411 25.154-7.201-45.808 17.929 8.923c1.718-2.176 4.373-3.58 7.354-3.58 5.168 0 9.372 4.203 9.372 9.371 0 5.167-4.204 9.371-9.372 9.371m-55.318-81.604c-43.54 0-78.835 35.296-78.835 78.836s35.295 78.835 78.835 78.835S23.517 46.308 23.517 2.769c0-43.54-35.296-78.836-78.835-78.836" style="fill:#be7c40;fill-rule:nonzero" transform="translate(269.464 154.523)scale(1.97882)"/><path d="M-4.749-4.749A4.755 4.755 0 0 1 0 0a4.756 4.756 0 0 1-4.749 4.749A4.755 4.755 0 0 1-9.497 0a4.754 4.754 0 0 1 4.748-4.749" style="fill:#be7c40;fill-rule:nonzero" transform="matrix(0 -1.97882 -1.97882 0 91.936 54.229)"/><path d="M0-9.496a4.753 4.753 0 0 1 4.748 4.748A4.753 4.753 0 0 1 0 0a4.753 4.753 0 0 1-4.748-4.748A4.753 4.753 0 0 1 0-9.496" style="fill:#be7c40;fill-rule:nonzero" transform="matrix(-1.97882 0 0 1.97882 269.464 156.33)"/><path d="M0-9.496a4.753 4.753 0 0 1 4.748 4.748A4.753 4.753 0 0 1 0 0a4.753 4.753 0 0 1-4.748-4.748A4.753 4.753 0 0 1 0-9.496" style="fill:#be7c40;fill-rule:nonzero" transform="matrix(-1.97882 0 0 1.97882 116.028 278.56)"/></svg>