<?xml version="1.0" encoding="UTF-8"?>
<svg version="1.1" xmlns="http://www.w3.org/2000/svg" width="1000" height="1000">
<path d="M0 0 C0.7944861 -0.00407553 1.58897221 -0.00815105 2.40753365 -0.01235008 C6.63765309 -0.03312582 10.86774121 -0.04744709 15.09790039 -0.05688477 C18.5115007 -0.06561623 21.92467669 -0.08619014 25.33813477 -0.1184082 C95.73902386 -0.76764662 166.04623647 13.94136688 229.86376953 44.06835938 C232.52717281 45.32283436 235.20081881 46.55383862 237.875 47.78515625 C290.90031077 72.42158685 337.87627663 107.76685923 379.16015625 148.92578125 C379.660383 149.42332916 380.16060974 149.92087708 380.67599487 150.4335022 C396.74845995 166.44069236 396.74845995 166.44069236 398.34765625 171.23828125 C399.00765625 171.23828125 399.66765625 171.23828125 400.34765625 171.23828125 C404.34765625 175.70886949 404.34765625 175.70886949 404.34765625 178.23828125 C405.00765625 178.23828125 405.66765625 178.23828125 406.34765625 178.23828125 C407.72265625 179.75 407.72265625 179.75 409.34765625 181.92578125 C409.97414063 182.7559375 410.600625 183.58609375 411.24609375 184.44140625 C411.93960938 185.364375 412.633125 186.28734375 413.34765625 187.23828125 C414.88900402 189.21769628 416.43069346 191.19684529 417.97265625 193.17578125 C438.03536234 219.26193258 455.33300364 246.96999267 470.34765625 276.23828125 C470.90195312 277.31722656 471.45625 278.39617187 472.02734375 279.5078125 C473.49406627 282.4055805 474.92396678 285.31915138 476.34765625 288.23828125 C476.92644531 289.38941406 477.50523437 290.54054688 478.1015625 291.7265625 C506.34457609 348.85959823 522.21379488 417.2639526 522.5859375 481.046875 C522.5908231 481.73204634 522.59570869 482.41721767 522.60074234 483.12315178 C522.63726033 488.30735605 522.6538343 493.49145774 522.66015625 498.67578125 C522.66115955 499.43843544 522.66216286 500.20108963 522.66319656 500.98685455 C522.6825198 524.94254783 522.18054926 548.54187527 518.34765625 572.23828125 C518.22414795 573.01357178 518.10063965 573.7888623 517.97338867 574.58764648 C510.60770262 620.55045105 498.99697042 668.65500509 477.34765625 710.23828125 C476.73684672 711.46478678 476.1287749 712.6926595 475.5234375 713.921875 C471.55186408 721.9317265 467.470167 729.87061652 463.22973633 737.74194336 C461.72527508 740.54962365 460.35713819 743.20983542 459.34765625 746.23828125 C458.68765625 746.23828125 458.02765625 746.23828125 457.34765625 746.23828125 C457.08065918 747.1202417 456.81366211 748.00220215 456.53857422 748.91088867 C455.39973088 752.09278614 454.07978812 754.6198312 452.29296875 757.4765625 C451.68428955 758.45302734 451.07561035 759.42949219 450.44848633 760.43554688 C449.7964624 761.46357422 449.14443848 762.49160156 448.47265625 763.55078125 C447.46271606 765.15276367 447.46271606 765.15276367 446.43237305 766.78710938 C440.69399254 775.82307442 434.6829883 784.61271179 428.34765625 793.23828125 C427.85168945 793.91826172 427.35572266 794.59824219 426.84472656 795.29882812 C421.16395632 803.07020938 415.31477651 810.62550875 409.01953125 817.90991211 C406.61520658 820.69880424 404.36402118 823.51150503 402.28515625 826.55078125 C401.64578125 827.43765625 401.00640625 828.32453125 400.34765625 829.23828125 C399.68765625 829.23828125 399.02765625 829.23828125 398.34765625 829.23828125 C398.10015625 829.79515625 397.85265625 830.35203125 397.59765625 830.92578125 C394.98649859 835.75642292 391.21384201 839.40200728 387.34765625 843.23828125 C386.37378373 844.21582845 385.40075173 845.19421359 384.4284668 846.17333984 C381.57949777 849.04018657 378.72741925 851.90391778 375.87426758 854.76660156 C374.65265789 855.99323845 373.43194744 857.22077157 372.2121582 858.44921875 C365.77019396 864.93555033 359.3525459 871.35285809 352.34765625 877.23828125 C351.21727187 878.22226285 350.08833816 879.2079137 348.9609375 880.1953125 C321.31636182 904.17958754 290.76303238 924.48313758 258.66259766 941.9765625 C257.13964855 942.80661956 255.61843388 943.6398682 254.09912109 944.4765625 C232.10194823 956.56134027 209.01617278 965.96312187 185.34765625 974.23828125 C184.25710938 974.62226074 183.1665625 975.00624023 182.04296875 975.40185547 C155.1260894 984.77241397 127.4187657 991.23455111 99.28515625 995.67578125 C98.53075256 995.79561371 97.77634888 995.91544617 96.99908447 996.03890991 C91.7917558 996.8545681 86.57593843 997.57119446 81.34765625 998.23828125 C80.6163147 998.33612915 79.88497314 998.43397705 79.13146973 998.53479004 C62.09087713 1000.74935509 44.93984927 1000.61314425 27.78808594 1000.60888672 C24.43597548 1000.6087254 21.08441878 1000.62244515 17.73242188 1000.64990234 C-60.01118945 1001.27611988 -135.25751776 982.02877919 -204.65234375 947.23828125 C-205.56177734 946.78485352 -206.47121094 946.33142578 -207.40820312 945.86425781 C-227.3829191 935.84763284 -246.51278011 924.28864104 -264.65234375 911.23828125 C-265.39935547 910.70235352 -266.14636719 910.16642578 -266.91601562 909.61425781 C-283.1474342 897.92416875 -298.57815626 885.377269 -313.65234375 872.23828125 C-314.43158203 871.56394043 -314.43158203 871.56394043 -315.2265625 870.87597656 C-316.66579044 869.62821404 -318.09682179 868.37101544 -319.52734375 867.11328125 C-320.32914063 866.40945313 -321.1309375 865.705625 -321.95703125 864.98046875 C-323.65234375 863.23828125 -323.65234375 863.23828125 -323.65234375 861.23828125 C-324.20277344 861.01398437 -324.75320313 860.7896875 -325.3203125 860.55859375 C-328.37817523 858.82734149 -330.50056201 856.615904 -332.96484375 854.11328125 C-333.69876343 853.36860596 -333.69876343 853.36860596 -334.44750977 852.60888672 C-337.65040849 849.33457737 -340.71810324 845.97709361 -343.68359375 842.48828125 C-345.33860845 840.59683588 -347.02577575 838.75722027 -348.74609375 836.92578125 C-349.57089233 836.04575439 -349.57089233 836.04575439 -350.41235352 835.14794922 C-351.51826923 833.97137465 -352.62805591 832.79842492 -353.74194336 831.62939453 C-357.65234375 827.45904883 -357.65234375 827.45904883 -357.65234375 825.23828125 C-358.31234375 825.23828125 -358.97234375 825.23828125 -359.65234375 825.23828125 C-361.32024737 823.31710338 -362.86735221 821.38760751 -364.40234375 819.36328125 C-365.40335862 818.0609771 -366.40467471 816.75890444 -367.40625 815.45703125 C-367.93621582 814.76480469 -368.46618164 814.07257812 -369.01220703 813.359375 C-370.62882317 811.26869905 -372.27369117 809.20410619 -373.9296875 807.14453125 C-393.11615112 783.15451017 -408.81612472 756.8078657 -423.28564453 729.77490234 C-424.5236503 727.47713887 -425.78353968 725.19360095 -427.0546875 722.9140625 C-433.57916978 711.10408481 -438.69177653 698.77336727 -443.65234375 686.23828125 C-444.03922363 685.2647168 -444.42610352 684.29115234 -444.82470703 683.28808594 C-455.09528241 657.24124047 -462.87164071 630.62524255 -468.65234375 603.23828125 C-468.88937012 602.11776367 -469.12639648 600.99724609 -469.37060547 599.84277344 C-475.87184394 568.48276662 -478.33669669 537.60290905 -478.17382812 505.65234375 C-478.15104001 501.14192446 -478.16461982 496.6324499 -478.18758869 492.12206268 C-478.28640656 469.21239294 -477.0548901 446.90110557 -473.65234375 424.23828125 C-473.50758606 423.26697266 -473.36282837 422.29566406 -473.21368408 421.29492188 C-472.41647184 416.08395892 -471.49064064 410.9086974 -470.46484375 405.73828125 C-470.31994507 404.99131989 -470.17504639 404.24435852 -470.02575684 403.47476196 C-461.82011099 361.35745767 -448.79849979 319.57012206 -428.82324219 281.48583984 C-427.42658628 278.80493612 -426.05966186 276.10956921 -424.69140625 273.4140625 C-407.8125397 240.32638855 -387.59185845 209.4404385 -363.734375 180.953125 C-360.65328839 177.26870952 -357.72742586 173.48240093 -354.88671875 169.609375 C-354.479375 169.15691406 -354.07203125 168.70445312 -353.65234375 168.23828125 C-352.99234375 168.23828125 -352.33234375 168.23828125 -351.65234375 168.23828125 C-351.38035156 167.64917969 -351.10835938 167.06007812 -350.828125 166.453125 C-349.67680625 164.28436178 -348.452507 162.6432171 -346.83984375 160.80078125 C-346.35902344 160.24519531 -345.87820313 159.68960938 -345.3828125 159.1171875 C-343.20617675 156.75384259 -340.93080955 154.50380123 -338.65234375 152.23828125 C-337.49108732 151.0557669 -336.33100517 149.87209864 -335.171875 148.6875 C-333.93627539 147.4335174 -332.70059702 146.17961242 -331.46484375 144.92578125 C-330.83642578 144.28060547 -330.20800781 143.63542969 -329.56054688 142.97070312 C-328.95791016 142.36162109 -328.35527344 141.75253906 -327.734375 141.125 C-327.19014893 140.57030029 -326.64592285 140.01560059 -326.08520508 139.4440918 C-324.65234375 138.23828125 -324.65234375 138.23828125 -322.65234375 138.23828125 C-322.40355469 137.65433594 -322.15476562 137.07039062 -321.8984375 136.46875 C-320.47738938 133.92511841 -318.9204146 132.44420427 -316.71484375 130.55078125 C-316.02519531 129.94878906 -315.33554687 129.34679687 -314.625 128.7265625 C-312.65234375 127.23828125 -312.65234375 127.23828125 -309.65234375 126.23828125 C-309.65234375 125.57828125 -309.65234375 124.91828125 -309.65234375 124.23828125 C-307.84375 122.56640625 -307.84375 122.56640625 -305.21484375 120.48828125 C-304.21195313 119.68777344 -303.2090625 118.88726562 -302.17578125 118.0625 C-301.33418457 117.39226807 -301.33418457 117.39226807 -300.47558594 116.70849609 C-298.50778406 115.12171209 -296.56678975 113.50598519 -294.62890625 111.8828125 C-285.90213161 104.58065313 -277.06875653 97.63237711 -267.65234375 91.23828125 C-266.76063477 90.63193848 -265.86892578 90.0255957 -264.95019531 89.40087891 C-253.05427104 81.33825919 -241.13363424 73.36949247 -228.65234375 66.23828125 C-227.68578857 65.67995605 -227.68578857 65.67995605 -226.69970703 65.11035156 C-165.35201812 29.78229176 -97.92403237 8.8986921 -27.65234375 1.23828125 C-26.89500443 1.15133499 -26.1376651 1.06438873 -25.3573761 0.97480774 C-16.9125304 0.09252523 -8.48043861 0.03745958 0 0 Z " fill="#FEFEFE" transform="translate(477.65234375,-0.23828125)"/>
<path d="M0 0 C143.55 0 287.1 0 435 0 C433.515 17.82 433.515 17.82 432 36 C431.690625 40.57875 431.38125 45.1575 431.0625 49.875 C430.25297365 61.57940175 429.0657485 73.21569056 427.79714966 84.87658691 C426.52359875 96.61520044 425.41888219 108.35337835 424.5 120.125 C423.4547872 133.46612109 422.33811011 146.79800024 421.125 160.125 C421.04233887 161.03374878 420.95967773 161.94249756 420.87451172 162.87878418 C419.39172142 179.12448036 417.79172766 195.3580557 416.18081665 211.59146118 C414.35329943 230.03783713 412.68249772 248.49477436 411.1184082 266.96528625 C410.97051566 268.69390126 410.81953187 270.4222549 410.6652832 272.15031433 C410.25659501 276.75903481 409.91099693 281.36312254 409.640625 285.98217773 C409.57332687 286.97460983 409.50602875 287.96704193 409.43669128 288.98954773 C409.308197 290.88858116 409.19911427 292.78906874 409.11323547 294.69050598 C408.7186923 300.1129495 407.74244278 303.24109516 403.88389587 307.14251709 C401.37503269 309.29570406 398.73487605 311.13972898 396 313 C394.68902594 314.12369205 393.39459808 315.26726177 392.125 316.4375 C389.69038418 318.55323682 387.23968727 320.64963783 384.78515625 322.7421875 C383.58578591 323.76544735 382.38657183 324.78889037 381.1875 325.8125 C380.58139893 326.32973633 379.97529785 326.84697266 379.35083008 327.37988281 C375.60948459 330.5848938 371.9389307 333.85201503 368.3125 337.1875 C364.83863691 340.37736844 361.30089975 343.42048894 357.625 346.375 C352.82779065 350.24283546 348.32795793 354.35109495 343.83422852 358.56030273 C340.50880245 361.65750846 337.11298325 364.59607067 333.5625 367.4375 C329.18748028 370.94643139 325.07979091 374.65844505 321 378.5 C316.08691885 383.1261859 311.04878279 387.47270687 305.77734375 391.69140625 C302.5755733 394.3527935 299.5376359 397.15460827 296.5 400 C292.62527236 403.62950608 288.71100257 407.11747959 284.5625 410.4375 C280.18748028 413.94643139 276.07979091 417.65844505 272 421.5 C267.08691885 426.1261859 262.04878279 430.47270687 256.77734375 434.69140625 C253.57556942 437.35279673 250.53768068 440.15465085 247.5 443 C242.72786805 447.46891662 237.82399312 451.67441104 232.70703125 455.75 C230.72937107 457.3937695 228.86678815 459.0408517 227.01171875 460.8125 C226.51816895 461.28091309 226.02461914 461.74932617 225.51611328 462.23193359 C224.13748159 463.55314159 222.77336823 464.88945031 221.41015625 466.2265625 C219 468 219 468 216.98828125 468.0078125 C208.76844609 463.84137346 201.86848693 456.08253168 195.19604492 449.80200195 C190.87981556 445.75837655 186.3958726 442.00477323 181.77734375 438.30859375 C178.57557201 435.64720542 175.53765082 432.84537754 172.5 430 C168.60423719 426.35111551 164.66665716 422.84301562 160.5 419.5 C155.09563218 415.16072656 150.05044877 410.49603585 144.984375 405.7734375 C140.36646239 401.46894486 135.59238393 397.35687595 130.7890625 393.26171875 C129.58837959 392.23716908 128.38786379 391.21242354 127.1875 390.1875 C126.58131836 389.67018311 125.97513672 389.15286621 125.35058594 388.61987305 C121.6092918 385.41497771 117.93884617 382.14790722 114.3125 378.8125 C110.85984304 375.64169258 107.34469034 372.61964969 103.6875 369.6875 C98.63163433 365.61251555 93.91812777 361.24768006 89.19433594 356.79980469 C84.87808563 352.75760202 80.39514634 349.004192 75.77734375 345.30859375 C72.57557201 342.64720542 69.53765082 339.84537754 66.5 337 C62.60423719 333.35111551 58.66665716 329.84301562 54.5 326.5 C49.68510788 322.63402823 45.14608604 318.53806347 40.64916992 314.31176758 C37.06726009 310.94930174 33.39466623 307.77922023 29.48828125 304.79296875 C25.69977654 300.22886465 25.57317835 293.38260901 25.10546875 287.6953125 C25.03318558 286.88426056 24.9609024 286.07320862 24.88642883 285.23757935 C24.64706105 282.53390551 24.4173792 279.82949577 24.1875 277.125 C24.01757388 275.1884197 23.8469838 273.25189756 23.67578125 271.31542969 C23.20852768 266.01058591 22.74965678 260.70504943 22.29290771 255.39929199 C21.47446266 245.90096337 20.64689407 236.40342189 19.81863403 226.90594482 C19.60605832 224.46689249 19.39388034 222.02780546 19.18209839 219.58868408 C17.6809902 202.31647761 16.0788432 185.05877911 14.25585938 167.81738281 C13.3497987 159.16006739 12.69087305 150.52223077 12.21923828 141.83056641 C11.94389859 137.01978719 11.53763663 132.23206054 11.0625 127.4375 C10.98837891 126.64666016 10.91425781 125.85582031 10.83789062 125.04101562 C10.33482537 119.84267461 9.70065923 114.67073411 9.0234375 109.4921875 C7.98006153 101.37974644 7.33165483 93.25552411 6.73849487 85.09954834 C5.86713317 73.15734509 4.87041473 61.26529748 3.4375 49.375 C1.67448527 32.9712977 0.91515391 16.47277036 0 0 Z " fill="#231F20" transform="translate(282,400)"/>
<path d="M0 0 C31.02 0 62.04 0 94 0 C95.98 9.61125 97.96 19.2225 100 29.125 C100.62648438 32.15059082 101.25296875 35.17618164 101.8984375 38.29345703 C102.39109174 40.69814661 102.8833089 43.1029258 103.375 45.5078125 C103.63410156 46.75103271 103.89320313 47.99425293 104.16015625 49.27514648 C104.40378906 50.47228271 104.64742188 51.66941895 104.8984375 52.90283203 C105.21820557 54.45503952 105.21820557 54.45503952 105.54443359 56.03860474 C106 59 106 59 106 65 C133.39 65 160.78 65 189 65 C189.66 60.71 190.32 56.42 191 52 C191.44471982 49.60764231 191.90747478 47.2184269 192.40234375 44.8359375 C192.65153564 43.62010986 192.90072754 42.40428223 193.1574707 41.15161133 C193.54358521 39.28218872 193.54358521 39.28218872 193.9375 37.375 C195.89957851 27.78074465 197.73760526 18.18831426 199.15014648 8.49560547 C199.58156082 5.54194453 200.05319684 2.84040949 201 0 C227.4 0 253.8 0 281 0 C281.99 5.61 282.98 11.22 284 17 C284.73810675 20.804053 285.48563009 24.60243084 286.26171875 28.3984375 C286.66214494 30.38020115 287.06253461 32.36197217 287.46289062 34.34375 C288.0808826 37.38983319 288.69985381 40.43571449 289.31958008 43.48144531 C289.92771923 46.47412388 290.53238969 49.4674876 291.13671875 52.4609375 C291.3241716 53.37644379 291.51162445 54.29195007 291.70475769 55.23519897 C291.87526138 56.08103546 292.04576508 56.92687195 292.22143555 57.79833984 C292.37227097 58.53982269 292.52310638 59.28130554 292.67851257 60.04525757 C293 62 293 62 293 65 C324.02 65 355.04 65 387 65 C387.33 61.37 387.66 57.74 388 54 C388.33105089 51.92401255 388.69785508 49.85290819 389.12329102 47.79418945 C389.34650024 46.69917114 389.56970947 45.60415283 389.79968262 44.47595215 C390.14827332 42.81143005 390.14827332 42.81143005 390.50390625 41.11328125 C390.82675598 39.53758362 390.82675598 39.53758362 391.15612793 37.93005371 C391.95167687 34.05617971 392.75768231 30.18445898 393.5625 26.3125 C395.356875 17.629375 397.15125 8.94625 399 0 C425.07 0 451.14 0 478 0 C476.85316265 20.64307231 476.85316265 20.64307231 475.73046875 30.93359375 C475.60955368 32.07883011 475.48863861 33.22406647 475.36405945 34.40400696 C475.10752327 36.83190679 474.84916186 39.2596144 474.58905029 41.68713379 C473.89947252 48.1275952 473.22480233 54.56961331 472.55078125 61.01171875 C472.41623535 62.29615875 472.28168945 63.58059875 472.14306641 64.90396118 C470.96835095 76.17847636 469.89815228 87.46085001 468.875 98.75 C467.4949096 113.97053285 465.97597891 129.17068635 464.30615234 144.36230469 C464.22603409 145.10134033 464.14591583 145.84037598 464.06336975 146.60180664 C463.85038291 148.56520225 463.63397094 150.5282255 463.41723633 152.49121094 C462.81644642 158.98353866 462.43370837 165.49437438 462 172 C315.15 172 168.3 172 17 172 C16.24731985 168.9892794 15.82640496 166.64207261 15.640625 163.609375 C15.57963623 162.69889404 15.51864746 161.78841309 15.45581055 160.8503418 C15.35393433 159.31567261 15.35393433 159.31567261 15.25 157.75 C14.33795443 145.03177662 13.03704211 132.36572033 11.6875 119.6875 C9.81166238 102.05227693 8.07150592 84.40925808 6.4375 66.75 C4.85601089 49.6589798 3.16006576 32.59035566 1.16772461 15.54199219 C1.08818542 14.85466003 1.00864624 14.16732788 0.92669678 13.45916748 C0.71658063 11.64953017 0.50239428 9.8403667 0.2878418 8.03125 C0 5 0 5 0 0 Z " fill="#231F20" transform="translate(260,195)"/>
<path d="M0 0 C38.61 0 77.22 0 117 0 C117 96.36 117 192.72 117 292 C113.62041696 290.31020848 111.87088081 289.14484179 109.2421875 286.62109375 C108.53924561 285.95166748 107.83630371 285.28224121 107.11206055 284.5925293 C106.37383057 283.88136963 105.63560059 283.17020996 104.875 282.4375 C103.33799343 280.97316667 101.80023767 279.50961929 100.26171875 278.046875 C99.52356934 277.34369141 98.78541992 276.64050781 98.02490234 275.91601562 C94.86673299 272.92767307 91.63211545 270.02947472 88.38671875 267.13671875 C85.56948251 264.61457763 82.78358557 262.05910993 80 259.5 C76.35082237 256.14696739 72.68830286 252.81001538 69 249.5 C64.79315673 245.72462783 60.62325147 241.91019552 56.4609375 238.0859375 C53.32332914 235.20577393 50.16979059 232.34468386 47 229.5 C42.80049302 225.73121168 38.63740524 221.92391717 34.48291016 218.10571289 C30.33650283 214.29867926 26.15578041 210.5309815 21.9609375 206.77734375 C18.84188095 203.95031043 17.75727622 202.82473926 17.34570312 198.63989258 C17.20545715 197.27994926 17.20545715 197.27994926 17.06237793 195.89253235 C16.96960571 194.90319199 16.8768335 193.91385162 16.78125 192.89453125 C16.67784302 191.86430344 16.57443604 190.83407562 16.46789551 189.77262878 C16.13695902 186.45334765 15.81848627 183.1329964 15.5 179.8125 C15.28593755 177.65552128 15.07110189 175.49861914 14.85546875 173.34179688 C12.96460147 154.291309 11.20446282 135.23216014 10 116.125 C9.5024141 108.55458593 8.96523673 101.02583016 8 93.5 C7.03474337 85.97401474 6.50006976 78.44532441 6 70.875 C4.77686792 52.41671732 3.23811253 34.05026516 0.96508789 15.6887207 C0.83996826 14.65706787 0.71484863 13.62541504 0.5859375 12.5625 C0.4729834 11.65628906 0.3600293 10.75007813 0.24365234 9.81640625 C-0.0384594 6.55544329 0 3.27314321 0 0 Z " fill="#FCFCFC" transform="translate(341,467)"/>
<path d="M0 0 C36.96 0 73.92 0 112 0 C108.54142748 51.8785878 108.54142748 51.8785878 107.02734375 68.921875 C106.85673577 70.87946796 106.68646364 72.83709022 106.51649475 74.79473877 C106.16902588 78.78594003 105.81862457 82.77686663 105.46557617 86.76757812 C105.01802948 91.82774818 104.5770558 96.88846644 104.13803768 101.94938278 C103.79087629 105.94596107 103.44105946 109.94230343 103.09039497 113.93857574 C102.92673102 115.80566123 102.76368288 117.67280082 102.60133171 119.54000092 C101.76297819 129.15861771 100.85892501 138.75785593 99.66692257 148.33993149 C98.84339803 155.00319342 98.41331566 161.67632419 98 168.375 C97.81680956 170.89456061 97.63321543 173.41409189 97.44921875 175.93359375 C97.15248011 180.1653693 96.96092478 184.35604162 96.95703125 188.59765625 C96.80682292 196.83973263 95.90273574 201.94781257 89.90454102 207.92456055 C86.724945 210.78439928 83.39564564 213.40432631 80 216 C78.61316906 217.19473612 77.23500954 218.39981899 75.875 219.625 C75.27945313 220.13804687 74.68390625 220.65109375 74.0703125 221.1796875 C69.52189588 225.17886135 65.11405609 229.33766708 60.67138672 233.45361328 C53.68364164 239.9187575 46.64755401 246.3291182 39.5625 252.6875 C36.69399591 255.27615003 33.8452335 257.88585146 31 260.5 C26.55674919 264.58237764 22.08677797 268.63306087 17.58984375 272.65625 C15.64944786 274.41226438 13.72764231 276.18150145 11.81640625 277.96875 C11.27564453 278.47212891 10.73488281 278.97550781 10.17773438 279.49414062 C9.12193299 280.47844881 8.06968278 281.46658361 7.02148438 282.45898438 C4.67403487 284.64258506 3.08389457 285.97203514 0 287 C0 192.29 0 97.58 0 0 Z " fill="#FEFEFE" transform="translate(545,468)"/>
<path d="M0 0 C0.33 0 0.66 0 1 0 C1.33 2.31 1.66 4.62 2 7 C1.34 7 0.68 7 0 7 C0.33 8.65 0.66 10.3 1 12 C0.34 12 -0.32 12 -1 12 C-1.33 12.66 -1.66 13.32 -2 14 C-1.03644647 4.58997722 -1.03644647 4.58997722 0 0 Z " fill="#625F60" transform="translate(658,199)"/>
<path d="M0 0 C3.91402949 1.26941497 5.79072873 2.51167694 8 6 C5 6 5 6 3.61328125 4.6875 C2.40885417 3.125 1.20442708 1.5625 0 0 Z " fill="#322E2F" transform="translate(432,738)"/>
</svg>
