<svg xmlns="http://www.w3.org/2000/svg" width="269" height="391" fill="none"><path fill="#fff" stroke="#000" stroke-miterlimit="10" stroke-width=".5" d="M32.766 135.135c-.505-14.723-1.715-29.647-.303-44.269 1.412-14.723 5.748-29.546 15.126-41.042 5.143-6.353 11.697-11.395 18.151-16.437 10.084-7.764 20.37-15.53 32.37-20.168 30.454-11.697 66.353.807 89.142 24.101 4.841 4.941 9.177 10.386 12.706 16.336 13.614 22.992 13.21 51.328 12.404 78.05-1.715 60.101-3.126 120.202-4.337 180.302-43.462 2.219-87.024 1.916-130.386-1.008-13.714-.908-27.529-2.017-40.84-5.748-2.823-.807-4.336-.908-4.639-3.933l-.907-10.588a375 375 0 0 1-.908-21.277c-.302-14.319 0-28.639.505-42.958.504-14.319 1.21-28.639 1.714-43.059s.806-28.739.403-43.159c-.1-1.614-.201-3.328-.201-5.143Z"/><path fill="#E0E3BD" stroke="#000" stroke-miterlimit="10" stroke-width=".5" d="M7.353 370.496c68.874 7.664 138.151 10.185 207.328 12.706.1-15.731-1.009-31.563-3.429-47.194-18.05 2.521-36.302 1.513-54.454.505-15.025-.908-30.05-1.715-45.075-2.521-9.681-.505-19.462-1.11-29.143-1.614l-29.344-1.512c-9.782-.505-19.664-.908-29.446-1.21-4.94-.202-9.781-.303-14.722-.404-1.715 0-3.227-.201-3.53 1.714-.302 2.118.101 4.538.202 6.656.504 9.781.908 19.462 1.412 29.244 0 1.21.1 2.42.201 3.63Z"/><path fill="#E0E3BD" stroke="#000" stroke-miterlimit="10" stroke-width=".5" d="M21.874 312.412c2.017-1.916 4.134-3.933 6.857-4.841 2.32-.806 4.84-.706 7.361-.706 47.698 1.513 95.395 3.126 142.992 4.841 6.756.201 13.512.504 20.168 1.311 1.815.201 3.63.504 5.042 1.714 1.109 1.008 1.815 2.42 2.319 3.933 2.823 7.26 4.538 14.823 5.244 22.588-15.126-6.353-32.471-2.219-48.807-3.429-7.261-.504-14.319-2.117-21.58-3.025-16.538-2.118-33.277-.504-50.016-.403-17.85.101-35.698-1.614-53.547-3.227-7.36-.706-14.722-1.412-21.983-2.017-1.714-.202-7.966.202-8.269-2.218-.201-2.219 4.034-5.042 5.345-6.253a9461 9461 0 0 1 8.874-8.268Z"/><path fill="#847F88" stroke="#000" stroke-miterlimit="10" stroke-width=".5" d="M211.655 117.387c.706-10.387 1.513-20.773-.101-31.059-2.722-16.941-11.899-32.269-23.294-44.975-11.395-12.705-25.311-23.092-38.924-33.277 31.563-3.126 66.353 6.252 85.008 31.866 17.647 24.1 17.345 56.47 16.437 86.319-1.815 57.176-3.63 114.251-5.445 171.428a125.7 125.7 0 0 1-30.857 12.302c-2.421.605-5.849 1.21-7.563-1.008-1.412-1.815-1.009-3.832-.807-5.95.605-6.353 0-13.109 0-19.563 0-13.512.101-26.924.302-40.336.202-13.411.505-26.823 1.009-40.235.403-13.412 1.008-26.924 1.714-40.336s1.412-26.823 2.319-40.134c0-1.815.101-3.429.202-5.042ZM217.404 378.26a295.5 295.5 0 0 0 42.353-19.059c.806-.403 1.613-.907 2.117-1.714.404-.706.505-1.512.605-2.319 1.412-11.899 2.824-24 1.715-35.899-.101-1.311-.404-2.824-1.614-3.227-.807-.303-1.815 0-2.622.403-13.109 5.446-26.218 10.891-39.327 16.437-2.622 1.109-5.546 2.42-7.462 4.639-1.614 1.916-.807 5.143-.807 7.563 0 7.159.706 14.42 2.117 21.479.807 3.832 1.816 7.764 2.925 11.697Z"/><path fill="#847F88" stroke="#000" stroke-miterlimit="10" stroke-width=".5" d="M212.16 335.302c.504.807 1.109 1.513 2.017 1.715.806.201 1.714-.303 2.42-.706 15.327-8.572 30.655-17.042 45.983-25.614-5.748-3.932-11.395-7.966-17.143-11.899-.605-.403-1.311-.907-2.017-1.008-1.008-.202-1.916.101-2.924.504-9.882 3.429-19.664 6.857-29.546 10.286-2.622.907-5.546 2.016-6.857 4.537-.202.404 1.512 1.311 1.714 1.614.302.605.202 1.613.202 2.319.1 2.118.504 4.336 1.008 6.353 1.008 4.336 2.723 8.37 5.143 11.899Z"/><path fill="#272F49" d="M86.613 215.605c1.714-6.05-1.513-11.496-6.152-16.941-7.16-8.37-13.714-17.143-15.226-28.84-3.328-26.42 11.394-52.235 35.697-61.613 25.512-9.883 53.748-1.009 68.975 21.579 6.756 9.984 10.184 20.975 10.184 33.076 0 11.092-3.529 20.672-11.294 28.638-3.731 3.732-6.857 8.068-10.79 11.597-4.134 3.63-5.647 7.765-5.344 13.008.202 4.135-.303 8.269-.202 12.404v.806c0 .404-.101.706-.101 1.009 0 .202 0 2.118.101 2.118-.706 0-1.412 0-2.017.1-.806 0-1.613.101-2.42 0-1.512-.201-2.924-.201-4.437-.302-.302 0-.605 0-1.008-.101-.605 0-1.109-.101-1.714-.101-.202 0-.404-.101-.706-.101h-4.437c0-.605-.101-1.21-.101-1.815-.101-1.21-.101-2.42-.101-3.63 0-2.319-.101-4.639-.101-6.958 0-.101 0-.202-.101-.303-.1-.1-.201-.1-.302-.1-2.42-.202-4.84 0-7.261.302 0 1.412 0 2.824-.1 4.336v1.21c0 .605 0 1.11-.101 1.715 0 .201-.101.302-.101.403-.101.202-.101.504-.101.706-.101 1.109-.101 2.319.101 3.428h-2.219c-.907 0-1.916 0-2.823-.201-1.109-.202-2.319-.101-3.429-.202-.403 0-.907 0-1.311-.101-1.109 0-2.218-.201-3.327-.201h-1.715c-.1 0-1.613.1-1.714.201 0-1.008.101-2.117.101-3.126 0-.504 0-1.008.101-1.613 0-.504.101-1.009.101-1.513 0-2.017 0-4.033-.101-6.151-2.622-.504-5.345-.706-8.067-.706-.101 2.319-.202 4.639-.404 6.958-.101 1.109-.101 2.319-.201 3.529v.908c0 .202 0 .403-.101.504-.101.202-.605.202-.807.202-1.412.101-2.924 0-4.336-.101-.605 0-1.311-.101-1.916-.101-1.614-.101-3.227-.101-4.84-.202-.505 0-1.11-.1-1.614-.1-.302-.101-.605-.202-1.008-.202-.101 0-1.715-.101-1.715-.101v-3.832c0-.504-.1-1.008.101-1.512.101-.202 0-.404 0-.605v-1.513c0-1.311.101-2.521.101-3.832.202 0 .202-.403.303-2.017m32.672-18.554c.907.101 1.815.101 2.723.201 1.411.101 2.924.202 4.336.404-.505-1.513-1.009-3.025-1.614-4.437-.201-.605-.504-1.109-.706-1.614-.201-.504-.504-.907-.706-1.411-.1-.101-.1-.303-.1-.404-.101-.504-.303-.907-.404-1.412-.504-1.21-.907-2.521-1.412-3.831a12 12 0 0 0-.705-1.715c0 .101-.202.404-.202.404-.101.201-.303.403-.403.605-1.311 1.815-2.521 3.63-3.631 5.546-.605.907-1.109 1.916-1.714 2.924-.303.504-.504 1.009-.807 1.412l-.302.605c-.101.403-.504.807-.807 1.21-.403.504-.807 1.008-1.109 1.614h1.714c.605 0 1.109 0 1.714-.101.202 0 .505-.101.706-.101.303 0 .605 0 .908.101.605 0 1.109.101 1.714.101.303-.202.605-.202.807-.101"/><path fill="#4300BF" stroke="#000" stroke-miterlimit="10" stroke-width=".5" d="M84.293 212.781c1.613-5.949-1.513-11.294-6.05-16.638-7.06-8.269-13.513-16.841-14.925-28.236-3.227-25.915 11.194-51.125 34.992-60.302 25.008-9.68 52.638-1.008 67.663 21.177 6.555 9.781 9.984 20.571 10.084 32.369 0 10.891-3.428 20.269-11.092 28.034-3.63 3.731-6.655 7.966-10.588 11.294-4.034 3.529-5.546 7.563-5.244 12.807.202 4.033-.302 8.067-.202 12.1v.807c0 .303-.1.706-.1 1.008 0 .202 0 2.017.1 2.017h-2.016c-.807 0-1.614.101-2.421 0-1.411-.201-2.924-.201-4.336-.302-.302 0-.605 0-.907-.101-.605 0-1.109-.101-1.714-.101-.202 0-.404-.101-.606-.101h-4.336c0-.605-.101-1.109-.101-1.714-.1-1.21-.1-2.319-.1-3.529 0-2.32-.101-4.538-.101-6.858 0-.1 0-.201-.101-.302s-.202-.101-.303-.101c-2.319-.202-4.739 0-7.058.303 0 1.411 0 2.823-.101 4.235v1.21c0 .504 0 1.109-.101 1.714 0 .202-.101.303-.101.404-.101.201-.101.504-.101.705-.101 1.11-.101 2.219.101 3.328h-2.118c-.907 0-1.815 0-2.722-.202-1.109-.201-2.219-.1-3.429-.201-.403 0-.907 0-1.311-.101-1.109 0-2.117-.202-3.227-.202h-1.714c-.101 0-1.613.101-1.613.202 0-1.008.101-2.017.101-3.126 0-.504 0-1.008.1-1.513 0-.504.101-1.008.101-1.512 0-2.017 0-4.034-.101-6.051-2.621-.403-5.243-.706-7.865-.706-.101 2.32-.202 4.538-.303 6.858-.1 1.109-.1 2.319-.201 3.428v.908c0 .201 0 .403-.101.504-.101.202-.605.202-.807.202-1.412.1-2.823 0-4.235-.101-.605 0-1.311-.101-1.916-.101-1.614-.101-3.227-.101-4.74-.202-.504 0-1.008-.101-1.613-.101-.303 0-.605-.201-1.008-.201-.101 0-1.614-.101-1.614-.101v-3.731c0-.504-.1-1.009.1-1.412.102-.202 0-.403 0-.605v-1.513c0-1.21.102-2.521.102-3.731-.202 0-.202-.302-.101-1.916Zm32.067-18.252c.908.101 1.815.101 2.622.202 1.412.101 2.823.202 4.235.403-.504-1.411-.907-2.924-1.512-4.437-.202-.605-.505-1.109-.706-1.613-.202-.504-.504-.908-.706-1.412-.101-.101-.101-.302-.101-.403-.101-.504-.303-.908-.403-1.412-.505-1.21-.908-2.521-1.412-3.731a12 12 0 0 0-.706-1.714c0 .1-.202.302-.202.403-.101.202-.302.403-.403.605-1.21 1.815-2.42 3.63-3.529 5.445-.605.908-1.11 1.916-1.614 2.824-.302.504-.504.908-.807 1.412l-.302.605c-.101.403-.504.806-.807 1.109-.403.504-.706 1.008-1.109 1.513h1.714c.605 0 1.109 0 1.714-.101.202 0 .505-.101.706-.101.303 0 .605 0 .908.101.605 0 1.109.101 1.714.101.202.201.504.201.706.201Z"/><path fill="#E0E3BD" d="M155.386 113.454c-18.454-14.723-39.328-17.143-60.907-7.462-34.589 15.529-43.866 61.512-23.093 84.403 2.925 3.227 5.143 6.958 8.168 10.185 2.723 2.924 3.63 6.05 3.429 9.983-.303 5.445-.807 10.992 0 16.941l17.748.807.302-12.605 6.857.202v11.697c0 .302-.101.605-.101 1.008h1.715c1.21 0 2.319.101 3.529.101 1.412.101 2.925.101 4.437.202 1.311.101 2.723.101 4.034.202.806 0 1.613.1 2.521.1h.302c.202 0 .303 0 .504-.1 0-.303.101-.706.101-1.009v-.101c0-.101 0-.302.101-.403 0-.303.101-.605.101-.807v-9.781l6.857.201-.302 12.505c1.109 0 18.655.806 18.655.806v-16.134c0-.504 0-1.008-.101-1.412 0-1.21 0-2.42.202-3.529.201-1.21.605-2.521 1.412-3.53.201-.201.403-.504.605-.706l.806-.806c.505-.504 1.009-1.11 1.513-1.614 1.008-1.109 2.017-2.117 3.025-3.227s1.916-2.117 2.924-3.226c1.009-1.11 1.916-2.118 2.824-3.227.908-1.11 1.916-2.118 2.824-3.227s1.815-2.118 2.722-3.227c.504-.504.908-1.109 1.412-1.614 3.429-4.235 5.849-8.974 6.655-14.42 3.631-23.294-3.529-42.655-21.781-57.176M98.21 212.378H97.2v1.513c0 1.008-.1 2.117-.1 3.126-.101 2.117-.202 4.336-.202 6.454l-8.975-.404c0-.907.1-1.815.1-2.723.102-2.016.203-4.033.203-6.151.1-2.117.201-4.336.201-6.454 0-.806.101-1.613.101-2.42 0-.403-.1-.806-.1-1.109 0-.403-.102-.807-.102-1.21 0-.202-.1-.303-.1-.504-.101-.101-.101-.303-.202-.404-.101-.302-.202-.605-.404-.907l-.907-1.815c-.303-.605-.706-1.11-1.11-1.715a7 7 0 0 0-.806-1.008c-4.235-5.143-8.269-10.487-12.303-15.832-5.747-7.865-6.756-17.042-5.647-26.319 2.521-20.874 13.412-36 32.874-43.765 19.261-7.664 37.513-4.437 52.84 9.378 15.631 14.017 21.379 31.866 16.337 52.74-1.211 5.344-4.639 9.176-8.068 13.008-4.235 4.74-8.571 9.378-12.907 14.017-.202.202-.404.302-.504.504 0 .101 0 .101-.101.202s-.101.201-.202.302c-.101.202-.302.404-.403.605-.101.101-.101.202-.202.303s-.101.101-.101.202l-.605 1.21c-.403.907-.605 1.916-.807 2.924-.1.504-.1 1.008-.1 1.513v17.747c-.101.101-.202 0-.202 0h-.403c-.505 0-1.11 0-1.614-.1l-6.655-.303c.101-1.916.101-3.832.201-5.647 0-.605.101-1.311.101-1.916v-3.126l-1.311-.202c-.504-.1-1.008-.201-1.512-.201-1.11-.101-2.118-.202-3.227-.303s-2.219-.101-3.328-.101h-6.151l-.404 11.597-8.974-.403.403-11.395c-.504-.101-1.109-.202-1.613-.303-1.11-.202-2.118-.302-3.227-.403s-2.219-.101-3.328-.202c-1.109 0-2.218 0-3.328-.101h-1.613"/><path fill="#E0E3BD" d="M120.597 178.697c-.101-.1-.101-.302-.202-.403-.202-.303-.303-.706-.504-1.008l-.303-.605c-.101-.202-.201-.303-.302-.505-.404-.605-.706-1.311-1.109-1.916-.202-.302-.303-.605-.505-1.008 0-.101-.101-.202-.101-.202 0-.101-.1-.201-.1-.201-.101 0-.101 0-.101.1 0 .101-.101.101-.101.202s-.101.202-.101.303c-.101.201-.202.403-.302.504a19 19 0 0 0-1.11 1.916 19 19 0 0 0-1.109 1.916c-.504.807-.907 1.613-1.412 2.521-.201.302-.302.605-.504.807-.202.302-.403.605-.504.907a9 9 0 0 0-.605 1.008c-.202.303-.403.706-.605 1.009-.202.403-.404.706-.605 1.109-.202.403-.404.706-.605 1.109-.202.404-.404.807-.605 1.11-.202.403-.404.806-.605 1.109-.202.403-.404.706-.605 1.109-.202.403-.404.706-.605 1.109-.202.404-.404.706-.605 1.11-.202.302-.404.705-.605 1.008-.202.302-.404.605-.505.908-.201.302-.302.605-.504.907-.101.303-.302.504-.403.807-.101.201-.303.403-.404.706l-.302.605c-.101.101-.202.302-.202.403-.101.101-.101.202-.201.303l-.101.1h.101c.605 0 1.109 0 1.714.101h20.47l3.631.101h.1c-.201-.605-.504-1.109-.705-1.714-.606-1.412-1.211-2.723-1.816-4.135-.806-1.714-1.512-3.529-2.319-5.243-.706-1.614-1.412-3.328-2.118-4.941-.504-1.11-.907-2.219-1.411-3.227-.404.605-.505.403-.605.201q0 .151 0 0m-10.387 15.227c2.42-4.134 4.639-7.865 7.16-12.201 1.714 4.638 3.126 8.268 4.84 12.705-4.134-.201-7.563-.403-12-.504"/><path fill="#4300BF" stroke="#fff" stroke-miterlimit="10" stroke-width="2" d="M250.579 294.966c5.748 5.446 11.597 10.992 17.345 16.336.403 16.336-.908 31.967-1.21 47.496-1.009 1.916-2.622 2.723-4.236 3.63-14.722 8.269-29.344 16.538-44.067 24.807-2.42 1.412-4.739 2.118-7.462 1.916-18.454-1.21-37.008-2.219-55.462-3.429-17.345-1.109-34.689-2.42-51.933-3.529-28.336-1.916-56.773-3.832-85.109-5.748-3.832-.202-7.563-.302-11.395-.403s-5.95-2.118-5.95-5.849C1 355.168 1 340.042 1 325.017c0-2.723 1.714-4.437 3.832-6.051 7.26-5.546 14.32-11.193 22.487-17.546 0-18.353-.201-37.21 0-56.067.605-50.319 1.412-100.638 2.32-150.958.706-37.21 25.815-71.193 61.411-82.588 23.395-7.462 47.395-12.1 72.202-10.487 31.663 2.219 58.991 13.11 77.747 40.235 10.084 14.622 15.53 30.958 15.631 48.807.1 32.47-1.513 64.84-2.521 97.31l-3.328 102.252c-.202 1.412-.202 2.723-.202 5.042Zm-214.184 6.051c54.655 2.622 109.008 5.243 163.058 7.764 1.109-1.815.807-3.327.807-4.739.706-22.286 1.412-44.672 2.118-67.059 1.21-42.05 2.521-84.1 3.63-126.05.202-8.269.706-16.638-.303-24.807-2.924-23.697-15.932-41.646-34.588-55.562-24.201-17.95-50.924-17.849-77.95-8.572-32.57 11.093-53.041 40.135-53.646 74.723-1.11 62.722-2.118 125.445-3.126 188.167zm203.898-7.967c.101-1.714.303-2.823.303-3.932.706-22.387 1.412-44.673 2.218-67.059 1.211-36.706 2.521-73.512 3.732-110.218.403-12.605.907-25.21-2.219-37.513-8.773-34.487-32.067-53.546-65.949-60.907-2.421-.504-4.941-.807-7.362-1.11-2.319-.302-4.537-.705-6.857-.806-2.218-.1-4.538 0-6.857 0 11.092 4.639 20.773 10.689 29.244 18.756 19.664 18.857 31.159 41.042 30.05 69.076-1.21 30.252-1.613 60.604-2.42 90.856-.807 26.32-1.916 52.639-2.521 78.958-.303 12.303-.101 24.706-.101 37.311 9.076-4.336 18.756-8.773 28.739-13.412Zm-32.571 86.017v-35.395c-65.647-3.328-130.991-6.655-196.436-9.983v32.269c65.546 4.336 130.789 8.773 196.436 13.109Zm-6.252-59.899c-5.849-1.109-11.798-.605-17.647-.908-49.714-2.42-99.53-4.84-149.243-7.26-1.11 0-2.521-.202-3.328.403-5.042 3.63-10.286 6.958-14.924 12.404 63.428 3.226 126.151 6.453 189.377 9.579-1.411-4.84-2.722-9.176-4.235-14.218Zm16.84 23.496v33.075c13.21-7.462 25.815-14.521 38.32-21.58.403-10.89 1.411-21.479.907-32.672a24350 24350 0 0 1-39.227 21.177Zm35.093-30.454c-2.824-3.731-5.95-6.655-9.278-9.782-10.588 4.942-21.176 9.782-31.865 14.824 1.311 5.143 2.42 9.882 4.538 14.723 12.403-6.757 24.403-13.21 36.605-19.765Z"/><path fill="#fff" stroke="#000" stroke-miterlimit="10" stroke-width=".5" d="M134.915 159.337c-2.42 3.63-2.622 8.571-.908 12.605.505 1.21 1.211 2.319 2.32 3.025 2.218 1.311 5.042.101 7.361-1.109 3.025-1.614 6.151-3.53 7.361-6.757.908-2.319.505-5.042-.605-7.26-.605-1.412-1.512-2.622-2.521-3.731-.706-.706-1.311-1.614-2.42-1.715-2.521-.403-5.243.404-7.361 1.715-1.311.907-2.42 2.016-3.227 3.227ZM89.033 160.042c-.806 1.412-1.412 2.924-1.512 4.538-.202 2.723 1.109 5.244 2.319 7.664.202.504.504 1.008.908 1.311.403.302.907.403 1.411.504 5.042.706 10.286-1.311 13.513-5.244.605-.807 1.109-1.613 1.412-2.521.403-1.412.403-2.823.302-4.235-.101-2.017-.302-4.336-1.815-5.748-.706-.706-1.613-1.21-2.521-1.613-1.109-.605-2.42-1.311-3.63-1.715-.908-.201-2.017.101-2.824.404-2.117.706-3.933 2.117-5.445 3.731-.403.504-.807.907-1.21 1.411-.202.303-.404.505-.504.807-.101.101-.202.504-.404.706Z"/><path fill="#272F49" d="M139.049 175.874c-1.009-.101-2.017-.303-3.026-.504a15 15 0 0 1-1.008-1.715c-.303-.605-.403-1.109-.706-1.714-.605-1.21-.908-2.42-1.109-3.731-.404-2.924.101-5.95 1.613-8.37s3.933-4.437 6.656-5.344c1.109-.404 2.42-.605 3.63-.202.807.202 1.412.706 2.017 1.311.302.303.605.605.806.908.202.302.505.605.706.907-.302 0-.605-.101-.907-.101s-.706-.101-1.009-.101c-5.949 0-10.89 4.841-10.89 10.891 0 2.925 1.21 5.748 3.227 7.765M91.05 174.059c-.102 0-.404-.605-.404-.706-.101-.202-.303-.504-.404-.807-.201-.504-.504-1.109-.605-1.613-.201-.605-.201-1.109-.403-1.715l-.605-2.117c-.403-1.412-.605-2.824-.403-4.336.201-2.42 1.512-4.74 3.327-6.454s4.135-2.824 6.555-3.328c.807-.201 1.613-.302 2.521-.101 1.008.202 1.916.807 2.622 1.614.403.403.706.807 1.008 1.21.101.202.303.403.101.605-.101.101-.202.101-.303.101-.302 0-.705-.101-1.008-.101-.302 0-.706-.101-1.008-.101-5.95 0-10.891 4.84-10.891 10.891 0 2.924 1.11 5.546 3.025 7.563-.1 0-3.126-.605-3.126-.605"/><path fill="#E0E3BD" d="M95.486 176.883c-7.664 0-13.916-6.252-13.916-13.916s6.252-13.916 13.916-13.916 13.916 6.252 13.916 13.916-6.252 13.916-13.916 13.916m0-23.799c-5.445 0-9.882 4.437-9.882 9.883s4.437 9.882 9.882 9.882c5.446 0 9.883-4.437 9.883-9.882 0-5.446-4.437-9.883-9.883-9.883M140.26 177.891c-7.664 0-13.916-6.252-13.916-13.915 0-7.664 6.252-13.916 13.916-13.916s13.916 6.252 13.916 13.916c0 7.663-6.252 13.915-13.916 13.915m0-23.798c-5.446 0-9.883 4.437-9.883 9.883s4.437 9.882 9.883 9.882 9.882-4.437 9.882-9.882c0-5.446-4.437-9.883-9.882-9.883"/><path fill="#E0E3BD" d="M89.032 171.942a12.53 12.53 0 0 1-2.118-6.958c0-7.16 5.748-12.908 12.908-12.908h.403c.807.807 1.613 1.513 2.218 2.319a11.7 11.7 0 0 0-2.621-.302c-5.95 0-10.891 4.84-10.891 10.891 0 2.924 1.11 5.546 3.025 7.563zM137.033 173.756c-1.009-.101-2.017-.302-3.025-.504a13.1 13.1 0 0 1-2.219-7.26c0-6.858 5.445-12.505 12.202-12.908l2.622 2.118c-.605-.101-1.311-.202-2.017-.202-5.95 0-10.891 4.84-10.891 10.891.101 3.126 1.311 5.848 3.328 7.865"/></svg>