<svg width="269" height="391" viewBox="0 0 269 391" fill="none" xmlns="http://www.w3.org/2000/svg">
<path d="M32.7655 135.135C32.2613 120.412 31.0512 105.488 32.463 90.8661C33.8747 76.1434 38.2108 61.3199 47.589 49.8242C52.7318 43.4713 59.2864 38.4293 65.7402 33.3872C75.8242 25.6226 86.1099 17.8579 98.1098 13.2192C128.564 1.52179 164.463 14.026 187.252 37.32C192.093 42.2612 196.429 47.7065 199.958 53.6561C213.572 76.6476 213.168 104.984 212.362 131.706C210.647 191.807 209.236 251.908 208.025 312.008C164.563 314.227 121.001 313.924 77.6393 311C63.9251 310.092 50.11 308.983 36.7991 305.252C33.9756 304.445 32.463 304.344 32.1604 301.319C31.8579 297.79 31.5554 294.26 31.2529 290.731C30.7487 283.672 30.4461 276.513 30.3453 269.454C30.0428 255.135 30.3453 240.815 30.8495 226.496C31.3537 212.177 32.0596 197.857 32.5638 183.437C33.068 169.017 33.3705 154.698 32.9672 140.278C32.8663 138.664 32.7655 136.95 32.7655 135.135Z" fill="white" stroke="black" stroke-width="0.5" stroke-miterlimit="10"/>
<path d="M7.35342 370.496C76.2272 378.16 145.504 380.681 214.681 383.202C214.781 367.471 213.672 351.639 211.252 336.008C193.202 338.529 174.95 337.521 156.798 336.513C141.773 335.605 126.748 334.798 111.723 333.992C102.042 333.487 92.2607 332.882 82.5801 332.378C72.7986 331.874 63.0171 331.37 53.2356 330.866C43.4542 330.361 33.5718 329.958 23.7903 329.656C18.8492 329.454 14.0089 329.353 9.0677 329.252C7.35341 329.252 5.84081 329.051 5.53829 330.966C5.23577 333.084 5.63914 335.504 5.73998 337.622C6.24418 347.403 6.64753 357.084 7.15173 366.866C7.15173 368.076 7.25258 369.286 7.35342 370.496Z" fill="#E0E3BD" stroke="black" stroke-width="0.5" stroke-miterlimit="10.0004"/>
<path d="M21.8739 312.412C23.8907 310.496 26.0083 308.479 28.731 307.571C31.0503 306.765 33.5713 306.865 36.0923 306.865C83.7896 308.378 131.487 309.991 179.084 311.706C185.84 311.907 192.596 312.21 199.252 313.017C201.067 313.218 202.882 313.521 204.294 314.731C205.403 315.739 206.109 317.151 206.613 318.664C209.436 325.924 211.151 333.487 211.857 341.252C196.731 334.899 179.386 339.033 163.05 337.823C155.789 337.319 148.731 335.706 141.47 334.798C124.932 332.68 108.193 334.294 91.4535 334.395C73.6048 334.496 55.7561 332.781 37.9074 331.168C30.5461 330.462 23.1848 329.756 15.9243 329.151C14.21 328.949 7.95792 329.353 7.6554 326.933C7.45372 324.714 11.689 321.891 12.9999 320.68C16.0251 317.857 18.9495 315.134 21.8739 312.412Z" fill="#E0E3BD" stroke="black" stroke-width="0.5" stroke-miterlimit="10.0004"/>
<path d="M211.655 117.387C212.361 107 213.168 96.6137 211.554 86.328C208.832 69.3869 199.655 54.0592 188.26 41.3533C176.865 28.6475 162.949 18.261 149.336 8.07611C180.899 4.95007 215.689 14.3282 234.344 39.9416C251.991 64.0423 251.689 96.412 250.781 126.261C248.966 183.437 247.151 240.512 245.336 297.689C235.655 303.134 225.268 307.269 214.479 309.991C212.058 310.596 208.63 311.201 206.916 308.983C205.504 307.168 205.907 305.151 206.109 303.033C206.714 296.68 206.109 289.924 206.109 283.47C206.109 269.958 206.21 256.546 206.411 243.134C206.613 229.723 206.916 216.311 207.42 202.899C207.823 189.487 208.428 175.975 209.134 162.563C209.84 149.151 210.546 135.74 211.453 122.429C211.453 120.614 211.554 119 211.655 117.387Z" fill="#847F88" stroke="black" stroke-width="0.5" stroke-miterlimit="10.0004"/>
<path d="M217.404 378.26C232.026 373.016 246.143 366.664 259.757 359.201C260.563 358.798 261.37 358.294 261.874 357.487C262.278 356.781 262.379 355.975 262.479 355.168C263.891 343.269 265.303 331.168 264.194 319.269C264.093 317.958 263.79 316.445 262.58 316.042C261.773 315.739 260.765 316.042 259.958 316.445C246.849 321.891 233.74 327.336 220.631 332.882C218.009 333.991 215.085 335.302 213.169 337.521C211.555 339.437 212.362 342.664 212.362 345.084C212.362 352.243 213.068 359.504 214.479 366.563C215.286 370.395 216.295 374.327 217.404 378.26Z" fill="#847F88" stroke="black" stroke-width="0.5" stroke-miterlimit="10.0004"/>
<path d="M212.16 335.302C212.664 336.109 213.269 336.815 214.177 337.017C214.983 337.218 215.891 336.714 216.597 336.311C231.924 327.739 247.252 319.269 262.58 310.697C256.832 306.765 251.185 302.731 245.437 298.798C244.832 298.395 244.126 297.891 243.42 297.79C242.412 297.588 241.504 297.891 240.496 298.294C230.614 301.723 220.832 305.151 210.95 308.58C208.328 309.487 205.404 310.596 204.093 313.117C203.891 313.521 205.605 314.428 205.807 314.731C206.109 315.336 206.009 316.344 206.009 317.05C206.109 319.168 206.513 321.386 207.017 323.403C208.025 327.739 209.74 331.773 212.16 335.302Z" fill="#847F88" stroke="black" stroke-width="0.5" stroke-miterlimit="10.0004"/>
<path d="M86.6126 215.605C88.3269 209.555 85.1 204.109 80.4614 198.664C73.3018 190.294 66.7472 181.521 65.2346 169.824C61.9068 143.404 76.6295 117.589 100.932 108.211C126.444 98.3283 154.68 107.202 169.907 129.79C176.663 139.774 180.091 150.765 180.091 162.866C180.091 173.958 176.562 183.538 168.797 191.504C165.066 195.236 161.94 199.572 158.007 203.101C153.873 206.731 152.36 210.866 152.663 216.109C152.865 220.244 152.36 224.378 152.461 228.513C152.461 228.815 152.461 229.118 152.461 229.319C152.461 229.723 152.36 230.025 152.36 230.328C152.36 230.53 152.36 232.446 152.461 232.446C151.755 232.446 151.049 232.446 150.444 232.546C149.638 232.546 148.831 232.647 148.024 232.546C146.512 232.345 145.1 232.345 143.587 232.244C143.285 232.244 142.982 232.244 142.579 232.143C141.974 232.143 141.47 232.042 140.865 232.042C140.663 232.042 140.461 231.941 140.159 231.941C139.856 231.941 139.554 231.941 139.251 231.941C138.142 231.941 136.932 231.941 135.722 231.941C135.722 231.336 135.621 230.731 135.621 230.126C135.52 228.916 135.52 227.706 135.52 226.496C135.52 224.177 135.419 221.857 135.419 219.538C135.419 219.437 135.419 219.336 135.318 219.235C135.218 219.135 135.117 219.135 135.016 219.135C132.596 218.933 130.176 219.135 127.755 219.437C127.755 220.849 127.755 222.261 127.655 223.773C127.655 224.177 127.655 224.58 127.655 224.983C127.655 225.588 127.655 226.093 127.554 226.698C127.554 226.899 127.453 227 127.453 227.101C127.352 227.303 127.352 227.605 127.352 227.807C127.251 228.916 127.251 230.126 127.453 231.235C126.747 231.235 126.041 231.235 125.234 231.235C124.327 231.235 123.318 231.235 122.411 231.034C121.302 230.832 120.092 230.933 118.982 230.832C118.579 230.832 118.075 230.832 117.671 230.731C116.562 230.731 115.453 230.53 114.344 230.53C113.739 230.53 113.234 230.53 112.629 230.53C112.529 230.53 111.016 230.63 110.915 230.731C110.915 229.723 111.016 228.614 111.016 227.605C111.016 227.101 111.016 226.597 111.117 225.992C111.117 225.488 111.218 224.983 111.218 224.479C111.218 222.462 111.218 220.446 111.117 218.328C108.495 217.824 105.772 217.622 103.05 217.622C102.949 219.941 102.848 222.261 102.646 224.58C102.545 225.689 102.545 226.899 102.445 228.109C102.445 228.412 102.445 228.714 102.445 229.017C102.445 229.219 102.445 229.42 102.344 229.521C102.243 229.723 101.739 229.723 101.537 229.723C100.125 229.824 98.6126 229.723 97.2009 229.622C96.5958 229.622 95.8899 229.521 95.2849 229.521C93.6715 229.42 92.058 229.42 90.4446 229.319C89.9404 229.319 89.3353 229.219 88.8311 229.219C88.5286 229.118 88.2261 229.017 87.8227 229.017C87.7219 229.017 86.1084 228.916 86.1084 228.916C86.1084 228.815 86.1084 228.714 86.1084 228.614C86.1084 227.504 86.1084 226.294 86.1084 225.084C86.1084 224.58 86.0076 224.076 86.2093 223.572C86.3101 223.37 86.2093 223.168 86.2093 222.967C86.2093 222.462 86.2093 221.958 86.2093 221.454C86.2093 220.143 86.3101 218.933 86.3101 217.622C86.5118 217.622 86.5118 217.219 86.6126 215.605ZM119.285 197.051C120.192 197.152 121.1 197.152 122.008 197.252C123.419 197.353 124.932 197.454 126.344 197.656C125.839 196.143 125.335 194.631 124.73 193.219C124.529 192.614 124.226 192.11 124.024 191.605C123.823 191.101 123.52 190.698 123.318 190.194C123.218 190.093 123.218 189.891 123.218 189.79C123.117 189.286 122.915 188.883 122.814 188.378C122.31 187.168 121.907 185.857 121.402 184.547C121.201 183.941 120.999 183.437 120.697 182.832C120.697 182.933 120.495 183.236 120.495 183.236C120.394 183.437 120.192 183.639 120.092 183.841C118.781 185.656 117.571 187.471 116.461 189.387C115.856 190.294 115.352 191.303 114.747 192.311C114.444 192.815 114.243 193.32 113.94 193.723C113.839 193.925 113.739 194.126 113.638 194.328C113.537 194.731 113.134 195.135 112.831 195.538C112.428 196.042 112.024 196.546 111.722 197.152C111.722 197.152 112.024 197.152 112.125 197.152C112.226 197.152 112.428 197.152 112.529 197.152C112.831 197.152 113.134 197.152 113.436 197.152C114.041 197.152 114.545 197.152 115.15 197.051C115.352 197.051 115.655 196.95 115.856 196.95C116.159 196.95 116.461 196.95 116.764 197.051C117.369 197.051 117.873 197.152 118.478 197.152C118.781 196.95 119.083 196.95 119.285 197.051Z" fill="#272F49"/>
<path d="M84.2929 212.781C85.9064 206.832 82.7803 201.487 78.2425 196.143C71.1837 187.874 64.73 179.302 63.3182 167.907C60.0913 141.992 74.5115 116.782 98.3097 107.605C123.318 97.9245 150.948 106.597 165.973 128.782C172.528 138.563 175.957 149.353 176.057 161.151C176.057 172.042 172.629 181.42 164.965 189.185C161.335 192.916 158.31 197.151 154.377 200.479C150.343 204.008 148.831 208.042 149.133 213.286C149.335 217.319 148.831 221.353 148.931 225.386C148.931 225.689 148.931 225.891 148.931 226.193C148.931 226.496 148.831 226.899 148.831 227.201C148.831 227.403 148.831 229.218 148.931 229.218C148.226 229.218 147.62 229.218 146.915 229.218C146.108 229.218 145.301 229.319 144.494 229.218C143.083 229.017 141.57 229.017 140.158 228.916C139.856 228.916 139.553 228.916 139.251 228.815C138.646 228.815 138.142 228.714 137.537 228.714C137.335 228.714 137.133 228.613 136.931 228.613C136.629 228.613 136.326 228.613 136.024 228.613C134.915 228.613 133.705 228.613 132.595 228.613C132.595 228.008 132.494 227.504 132.494 226.899C132.394 225.689 132.394 224.58 132.394 223.37C132.394 221.05 132.293 218.832 132.293 216.512C132.293 216.412 132.293 216.311 132.192 216.21C132.091 216.109 131.99 216.109 131.889 216.109C129.57 215.907 127.15 216.109 124.831 216.412C124.831 217.823 124.831 219.235 124.73 220.647C124.73 221.05 124.73 221.454 124.73 221.857C124.73 222.361 124.73 222.966 124.629 223.571C124.629 223.773 124.528 223.874 124.528 223.975C124.427 224.176 124.427 224.479 124.427 224.68C124.326 225.79 124.326 226.899 124.528 228.008C123.822 228.008 123.116 228.008 122.41 228.008C121.503 228.008 120.595 228.008 119.688 227.806C118.579 227.605 117.469 227.706 116.259 227.605C115.856 227.605 115.352 227.605 114.948 227.504C113.839 227.504 112.831 227.302 111.721 227.302C111.116 227.302 110.612 227.302 110.007 227.302C109.906 227.302 108.394 227.403 108.394 227.504C108.394 226.496 108.495 225.487 108.495 224.378C108.495 223.874 108.495 223.37 108.595 222.865C108.595 222.361 108.696 221.857 108.696 221.353C108.696 219.336 108.696 217.319 108.595 215.302C105.974 214.899 103.352 214.596 100.73 214.596C100.629 216.916 100.528 219.134 100.427 221.454C100.327 222.563 100.327 223.773 100.226 224.882C100.226 225.185 100.226 225.487 100.226 225.79C100.226 225.991 100.226 226.193 100.125 226.294C100.024 226.496 99.5198 226.496 99.3181 226.496C97.9064 226.596 96.4946 226.496 95.0828 226.395C94.4778 226.395 93.7719 226.294 93.1669 226.294C91.5534 226.193 89.94 226.193 88.4274 226.092C87.9232 226.092 87.419 225.991 86.814 225.991C86.5114 225.991 86.2089 225.79 85.8056 225.79C85.7047 225.79 84.1921 225.689 84.1921 225.689C84.1921 225.588 84.1921 225.487 84.1921 225.386C84.1921 224.277 84.1921 223.067 84.1921 221.958C84.1921 221.454 84.0913 220.949 84.2929 220.546C84.3938 220.344 84.2929 220.143 84.2929 219.941C84.2929 219.437 84.2929 218.933 84.2929 218.428C84.2929 217.218 84.3938 215.907 84.3938 214.697C84.1921 214.697 84.1921 214.395 84.2929 212.781ZM116.36 194.529C117.268 194.63 118.175 194.63 118.982 194.731C120.394 194.832 121.805 194.933 123.217 195.134C122.713 193.723 122.31 192.21 121.705 190.697C121.503 190.092 121.2 189.588 120.999 189.084C120.797 188.58 120.495 188.176 120.293 187.672C120.192 187.571 120.192 187.37 120.192 187.269C120.091 186.765 119.889 186.361 119.789 185.857C119.284 184.647 118.881 183.336 118.377 182.126C118.175 181.521 117.974 181.017 117.671 180.412C117.671 180.512 117.469 180.714 117.469 180.815C117.368 181.017 117.167 181.218 117.066 181.42C115.856 183.235 114.646 185.05 113.537 186.865C112.932 187.773 112.427 188.781 111.923 189.689C111.621 190.193 111.419 190.597 111.116 191.101C111.016 191.302 110.915 191.504 110.814 191.706C110.713 192.109 110.31 192.512 110.007 192.815C109.604 193.319 109.301 193.823 108.898 194.328C108.898 194.328 109.2 194.328 109.301 194.328C109.402 194.328 109.604 194.328 109.705 194.328C110.007 194.328 110.31 194.328 110.612 194.328C111.217 194.328 111.721 194.328 112.326 194.227C112.528 194.227 112.831 194.126 113.032 194.126C113.335 194.126 113.637 194.126 113.94 194.227C114.545 194.227 115.049 194.328 115.654 194.328C115.856 194.529 116.158 194.529 116.36 194.529Z" fill="#4300BF" stroke="black" stroke-width="0.5" stroke-miterlimit="10.0004"/>
<path d="M155.386 113.454C136.932 98.7313 116.058 96.3112 94.4786 105.992C59.8904 121.521 50.6131 167.504 71.3862 190.395C74.3106 193.622 76.529 197.353 79.5542 200.58C82.2769 203.504 83.1845 206.63 82.9828 210.563C82.6803 216.008 82.1761 221.555 82.9828 227.504L100.731 228.311L101.033 215.706L107.89 215.908V216.008C107.89 216.109 107.89 216.21 107.89 216.311C107.89 216.412 107.89 216.613 107.89 216.714C107.89 216.916 107.89 217.118 107.89 217.218C107.89 217.42 107.89 217.622 107.89 217.823C107.89 218.025 107.89 218.328 107.89 218.529C107.89 218.832 107.89 219.034 107.89 219.336C107.89 219.639 107.89 219.941 107.89 220.244C107.89 220.546 107.89 220.849 107.89 221.151C107.89 221.454 107.89 221.756 107.89 222.059C107.89 222.361 107.89 222.664 107.89 222.966C107.89 223.269 107.89 223.571 107.89 223.874C107.89 224.176 107.89 224.378 107.89 224.681C107.89 224.882 107.89 225.185 107.89 225.487C107.89 225.689 107.89 225.991 107.89 226.193C107.89 226.395 107.89 226.597 107.89 226.798C107.89 226.899 107.89 227.101 107.89 227.302C107.89 227.403 107.89 227.504 107.89 227.605C107.89 227.907 107.789 228.21 107.789 228.613C107.89 228.613 107.89 228.613 107.991 228.613H108.092H108.193C108.294 228.613 108.495 228.613 108.596 228.613C108.899 228.613 109.201 228.613 109.504 228.613C110.714 228.613 111.823 228.714 113.033 228.714C114.445 228.815 115.958 228.815 117.47 228.916C118.781 229.017 120.193 229.017 121.504 229.118C122.31 229.118 123.117 229.218 124.025 229.218C124.126 229.218 124.226 229.218 124.327 229.218C124.529 229.218 124.63 229.218 124.831 229.118C124.831 228.815 124.932 228.412 124.932 228.109V228.008C124.932 227.907 124.932 227.706 125.033 227.605C125.033 227.302 125.134 227 125.134 226.798C125.134 226.597 125.134 226.395 125.134 226.193C125.134 225.991 125.134 225.79 125.134 225.689C125.134 225.487 125.134 225.386 125.134 225.185C125.134 224.983 125.134 224.781 125.134 224.58C125.134 224.378 125.134 224.076 125.134 223.773C125.134 223.47 125.134 223.168 125.134 222.966C125.134 222.664 125.134 222.361 125.134 222.059C125.134 221.756 125.134 221.454 125.134 221.151C125.134 220.849 125.134 220.546 125.134 220.244C125.134 219.941 125.134 219.639 125.134 219.336C125.134 219.134 125.134 218.832 125.134 218.529C125.134 218.328 125.134 218.126 125.134 217.924C125.134 217.723 125.134 217.622 125.134 217.42C125.134 217.319 125.134 217.218 125.134 217.118V217.017L131.991 217.218L131.689 229.723C132.798 229.723 150.344 230.529 150.344 230.529C150.344 226.899 150.344 223.269 150.344 219.538C150.344 217.823 150.344 216.109 150.344 214.395C150.344 213.891 150.344 213.387 150.243 212.983C150.243 211.773 150.243 210.563 150.445 209.454C150.646 208.244 151.05 206.933 151.857 205.924C152.058 205.723 152.26 205.42 152.462 205.218C152.764 204.916 152.966 204.714 153.268 204.412C153.773 203.908 154.277 203.302 154.781 202.798C155.789 201.689 156.798 200.681 157.806 199.571C158.815 198.462 159.722 197.454 160.73 196.345C161.739 195.235 162.646 194.227 163.554 193.118C164.462 192.008 165.47 191 166.378 189.891C167.285 188.782 168.193 187.773 169.1 186.664C169.604 186.16 170.008 185.555 170.512 185.05C173.941 180.815 176.361 176.076 177.167 170.63C180.798 147.336 173.638 127.975 155.386 113.454ZM98.2097 212.378C98.008 212.378 97.8063 212.378 97.5038 212.378C97.4029 212.378 97.3021 212.378 97.2013 212.378C97.2013 212.882 97.2013 213.386 97.2013 213.891C97.2013 214.899 97.1004 216.008 97.1004 217.017C96.9996 219.134 96.8987 221.353 96.8987 223.471L87.924 223.067C87.924 222.16 88.0248 221.252 88.0248 220.344C88.1256 218.328 88.2265 216.311 88.2265 214.193C88.3273 212.076 88.4282 209.857 88.4282 207.739C88.4282 206.933 88.529 206.126 88.529 205.319C88.529 204.916 88.4282 204.513 88.4282 204.21C88.4282 203.807 88.3273 203.403 88.3273 203C88.3273 202.798 88.2265 202.697 88.2265 202.496C88.1257 202.395 88.1256 202.193 88.0248 202.092C87.924 201.79 87.8231 201.487 87.6215 201.185C87.3189 200.58 87.0164 199.975 86.7139 199.37C86.4114 198.765 86.008 198.26 85.6046 197.655C85.403 197.353 85.1004 196.95 84.7979 196.647C80.5626 191.504 76.529 186.16 72.4954 180.815C66.7476 172.95 65.7392 163.773 66.8484 154.496C69.3694 133.622 80.2601 118.496 99.7223 110.731C118.983 103.067 137.235 106.294 152.562 120.109C168.193 134.126 173.941 151.975 168.899 172.849C167.688 178.193 164.26 182.025 160.831 185.857C156.596 190.597 152.26 195.235 147.924 199.874C147.722 200.076 147.52 200.176 147.42 200.378C147.42 200.479 147.42 200.479 147.319 200.58C147.218 200.681 147.218 200.781 147.117 200.882C147.016 201.084 146.815 201.286 146.714 201.487C146.613 201.588 146.613 201.689 146.512 201.79C146.411 201.891 146.411 201.891 146.411 201.992C146.21 202.395 146.008 202.798 145.806 203.202C145.403 204.109 145.201 205.118 144.999 206.126C144.899 206.63 144.899 207.134 144.899 207.639C144.899 207.84 144.899 208.143 144.899 208.344C144.899 208.445 144.899 208.546 144.899 208.748C144.899 208.95 144.899 209.151 144.899 209.353C144.899 209.655 144.899 210.059 144.899 210.361C144.899 210.966 144.899 211.471 144.899 212.076C144.899 213.185 144.899 214.395 144.899 215.504C144.899 216.613 144.899 217.823 144.899 218.933C144.899 220.042 144.899 221.252 144.899 222.361C144.899 222.966 144.899 223.471 144.899 224.076C144.899 224.378 144.899 224.681 144.899 224.983C144.899 225.084 144.899 225.185 144.899 225.286V225.386C144.798 225.487 144.697 225.386 144.697 225.386C144.596 225.386 144.394 225.386 144.294 225.386C143.789 225.386 143.184 225.386 142.68 225.286C140.462 225.185 138.243 225.084 136.025 224.983C136.126 223.067 136.126 221.151 136.226 219.336C136.226 218.731 136.327 218.025 136.327 217.42C136.327 216.613 136.327 215.907 136.327 215.101C136.327 214.798 136.327 214.597 136.327 214.294L135.016 214.092C134.512 213.992 134.008 213.891 133.504 213.891C132.394 213.79 131.386 213.689 130.277 213.588C129.168 213.487 128.058 213.487 126.949 213.487C125.84 213.487 124.731 213.487 123.621 213.487C122.714 213.487 121.705 213.487 120.798 213.487L120.394 225.084L111.42 224.681L111.823 213.286C111.319 213.185 110.714 213.084 110.21 212.983C109.1 212.781 108.092 212.681 106.983 212.58C105.874 212.479 104.764 212.479 103.655 212.378C102.546 212.378 101.437 212.378 100.327 212.277C99.8231 212.277 99.2181 212.277 98.7139 212.277" fill="#E0E3BD"/>
<path d="M120.597 178.697C120.496 178.597 120.496 178.395 120.395 178.294C120.193 177.991 120.092 177.588 119.891 177.286C119.79 177.084 119.689 176.882 119.588 176.681C119.487 176.479 119.387 176.378 119.286 176.176C118.882 175.571 118.58 174.865 118.177 174.26C117.975 173.958 117.874 173.655 117.672 173.252C117.672 173.151 117.571 173.05 117.571 173.05C117.571 172.949 117.471 172.849 117.471 172.849C117.37 172.849 117.37 172.849 117.37 172.949C117.37 173.05 117.269 173.05 117.269 173.151C117.269 173.252 117.168 173.353 117.168 173.454C117.067 173.655 116.966 173.857 116.866 173.958C116.462 174.563 116.059 175.269 115.756 175.874C115.353 176.479 114.95 177.185 114.647 177.79C114.143 178.597 113.74 179.403 113.235 180.311C113.034 180.613 112.933 180.916 112.731 181.118C112.529 181.42 112.328 181.723 112.227 182.025C112.025 182.328 111.824 182.63 111.622 183.033C111.42 183.336 111.219 183.739 111.017 184.042C110.815 184.445 110.613 184.748 110.412 185.151C110.21 185.554 110.008 185.857 109.807 186.26C109.605 186.664 109.403 187.067 109.202 187.37C109 187.773 108.798 188.176 108.597 188.479C108.395 188.882 108.193 189.185 107.992 189.588C107.79 189.991 107.588 190.294 107.387 190.697C107.185 191.101 106.983 191.403 106.782 191.807C106.58 192.109 106.378 192.512 106.177 192.815C105.975 193.117 105.773 193.42 105.672 193.723C105.471 194.025 105.37 194.328 105.168 194.63C105.067 194.933 104.866 195.134 104.765 195.437C104.664 195.638 104.462 195.84 104.361 196.143C104.261 196.344 104.16 196.546 104.059 196.748C103.958 196.849 103.857 197.05 103.857 197.151C103.756 197.252 103.756 197.353 103.656 197.454L103.555 197.554H103.656C104.261 197.554 104.765 197.554 105.37 197.655C105.471 197.655 105.571 197.655 105.773 197.655C105.874 197.655 106.076 197.655 106.177 197.655C106.277 197.655 106.277 197.655 106.378 197.655C106.479 197.655 106.58 197.655 106.681 197.655C106.782 197.655 106.882 197.655 107.084 197.655C107.185 197.655 107.387 197.655 107.487 197.655C107.689 197.655 107.891 197.655 107.992 197.655C108.193 197.655 108.395 197.655 108.597 197.655C108.798 197.655 109 197.655 109.202 197.655C109.403 197.655 109.706 197.655 109.908 197.655C110.109 197.655 110.412 197.655 110.613 197.655C110.916 197.655 111.118 197.655 111.42 197.655C111.723 197.655 111.924 197.655 112.227 197.655C112.529 197.655 112.832 197.655 113.034 197.655C113.336 197.655 113.639 197.655 113.941 197.655C114.244 197.655 114.546 197.655 114.849 197.655C115.151 197.655 115.454 197.655 115.756 197.655C116.059 197.655 116.361 197.655 116.664 197.655C116.966 197.655 117.269 197.655 117.571 197.655C117.874 197.655 118.177 197.655 118.479 197.655C118.782 197.655 119.084 197.655 119.387 197.655C119.689 197.655 119.992 197.655 120.294 197.655C120.597 197.655 120.899 197.655 121.101 197.655C121.403 197.655 121.605 197.655 121.908 197.655C122.21 197.655 122.412 197.655 122.714 197.655C122.916 197.655 123.219 197.655 123.42 197.655C123.622 197.655 123.924 197.655 124.126 197.655C124.328 197.655 124.529 197.655 124.731 197.655C124.933 197.655 125.134 197.655 125.336 197.655C125.538 197.655 125.639 197.655 125.84 197.655L129.471 197.756C129.571 197.756 129.571 197.756 129.571 197.756C129.37 197.151 129.067 196.647 128.866 196.042C128.26 194.63 127.655 193.319 127.05 191.907C126.244 190.193 125.538 188.378 124.731 186.664C124.025 185.05 123.319 183.336 122.613 181.723C122.109 180.613 121.706 179.504 121.202 178.496C120.798 179.101 120.697 178.899 120.597 178.697C120.597 178.798 120.597 178.798 120.597 178.697ZM110.21 193.924C112.63 189.79 114.849 186.059 117.37 181.723C119.084 186.361 120.496 189.991 122.21 194.428C118.076 194.227 114.647 194.025 110.21 193.924Z" fill="#E0E3BD"/>
<path d="M250.579 294.966C256.327 300.412 262.176 305.958 267.924 311.302C268.327 327.638 267.016 343.269 266.714 358.798C265.705 360.714 264.092 361.521 262.478 362.428C247.756 370.697 233.134 378.966 218.411 387.235C215.991 388.647 213.672 389.353 210.949 389.151C192.495 387.941 173.941 386.932 155.487 385.722C138.142 384.613 120.798 383.302 103.554 382.193C75.2183 380.277 46.7814 378.361 18.4453 376.445C14.6134 376.243 10.8823 376.143 7.0504 376.042C3.21848 375.941 1.10084 373.924 1.10084 370.193C0.999998 355.168 1 340.042 1 325.017C1 322.294 2.71428 320.58 4.83193 318.966C12.0924 313.42 19.1512 307.773 27.3193 301.42C27.3193 283.067 27.1176 264.21 27.3193 245.353C27.9243 195.034 28.731 144.715 29.6386 94.3954C30.3445 57.1855 55.4536 23.2024 91.0502 11.8074C114.445 4.34526 138.445 -0.293375 163.252 1.32007C194.915 3.53855 222.243 14.4293 240.999 41.5552C251.083 56.1771 256.529 72.5132 256.63 90.3618C256.73 122.832 255.117 155.202 254.109 187.672C252.999 221.756 251.89 255.84 250.781 289.924C250.579 291.336 250.579 292.647 250.579 294.966ZM36.3949 301.017C91.0502 303.639 145.403 306.26 199.453 308.781C200.562 306.966 200.26 305.454 200.26 304.042C200.966 281.756 201.672 259.37 202.378 236.983C203.588 194.933 204.899 152.883 206.008 110.933C206.21 102.664 206.714 94.2946 205.705 86.1265C202.781 62.4291 189.773 44.4796 171.117 30.5637C146.916 12.6142 120.193 12.715 93.1678 21.9923C60.5965 33.0847 40.1259 62.1266 39.5209 96.7148C38.4117 159.437 37.4033 222.16 36.3949 284.882C36.3949 290.126 36.3949 295.269 36.3949 301.017ZM240.293 293.05C240.394 291.336 240.596 290.227 240.596 289.118C241.302 266.731 242.008 244.445 242.814 222.059C244.025 185.353 245.335 148.547 246.546 111.841C246.949 99.2358 247.453 86.6308 244.327 74.3283C235.554 39.841 212.26 20.7822 178.378 13.4209C175.957 12.9167 173.437 12.6141 171.016 12.3116C168.697 12.0091 166.479 11.6058 164.159 11.5049C161.941 11.4041 159.621 11.5049 157.302 11.5049C168.394 16.1436 178.075 22.194 186.546 30.2612C206.21 49.1183 217.705 71.3031 216.596 99.3366C215.386 129.589 214.983 159.941 214.176 190.193C213.369 216.513 212.26 242.832 211.655 269.151C211.352 281.454 211.554 293.857 211.554 306.462C220.63 302.126 230.31 297.689 240.293 293.05ZM207.722 379.067C207.722 366.966 207.722 355.47 207.722 343.672C142.075 340.344 76.7309 337.017 11.2857 333.689C11.2857 344.58 11.2857 355.067 11.2857 365.958C76.8317 370.294 142.075 374.731 207.722 379.067ZM201.47 319.168C195.621 318.059 189.672 318.563 183.823 318.26C134.109 315.84 84.2939 313.42 34.5797 311C33.4705 311 32.0587 310.798 31.252 311.403C26.21 315.033 20.9663 318.361 16.3277 323.807C79.7561 327.033 142.479 330.26 205.705 333.386C204.294 328.546 202.983 324.21 201.47 319.168ZM218.31 342.664C218.31 353.554 218.31 364.243 218.31 375.739C231.52 368.277 244.125 361.218 256.63 354.159C257.033 343.269 258.041 332.68 257.537 321.487C244.125 328.748 231.218 335.706 218.31 342.664ZM253.403 312.21C250.579 308.479 247.453 305.555 244.125 302.428C233.537 307.37 222.949 312.21 212.26 317.252C213.571 322.395 214.68 327.134 216.798 331.975C229.201 325.218 241.201 318.765 253.403 312.21Z" fill="#4300BF" stroke="white" stroke-width="2" stroke-miterlimit="10.0004"/>
<path d="M134.915 159.337C132.495 162.967 132.293 167.908 134.007 171.942C134.512 173.152 135.218 174.261 136.327 174.967C138.545 176.278 141.369 175.068 143.688 173.858C146.713 172.244 149.839 170.328 151.049 167.101C151.957 164.782 151.554 162.059 150.444 159.841C149.839 158.429 148.932 157.219 147.923 156.11C147.217 155.404 146.612 154.496 145.503 154.395C142.982 153.992 140.26 154.799 138.142 156.11C136.831 157.017 135.722 158.126 134.915 159.337Z" fill="white" stroke="black" stroke-width="0.5" stroke-miterlimit="10"/>
<path d="M89.0333 160.042C88.2266 161.454 87.6215 162.966 87.5207 164.58C87.319 167.303 88.6299 169.824 89.84 172.244C90.0417 172.748 90.3442 173.252 90.7476 173.555C91.1509 173.857 91.6551 173.958 92.1593 174.059C97.2013 174.765 102.445 172.748 105.672 168.815C106.277 168.008 106.781 167.202 107.084 166.294C107.487 164.882 107.487 163.471 107.386 162.059C107.285 160.042 107.084 157.723 105.571 156.311C104.865 155.605 103.958 155.101 103.05 154.698C101.941 154.093 100.63 153.387 99.4198 152.983C98.5122 152.782 97.403 153.084 96.5963 153.387C94.4786 154.093 92.6635 155.504 91.1509 157.118C90.7476 157.622 90.3442 158.025 89.9408 158.529C89.7392 158.832 89.5375 159.034 89.4366 159.336C89.3358 159.437 89.235 159.84 89.0333 160.042Z" fill="white" stroke="black" stroke-width="0.5" stroke-miterlimit="10"/>
<path d="M139.049 175.874C138.04 175.773 137.032 175.571 136.023 175.37C135.62 174.765 135.317 174.26 135.015 173.655C134.712 173.05 134.612 172.546 134.309 171.941C133.704 170.731 133.401 169.521 133.2 168.21C132.796 165.286 133.301 162.26 134.813 159.84C136.326 157.42 138.746 155.403 141.469 154.496C142.578 154.092 143.889 153.891 145.099 154.294C145.906 154.496 146.511 155 147.116 155.605C147.418 155.908 147.721 156.21 147.922 156.513C148.124 156.815 148.427 157.118 148.628 157.42C148.326 157.42 148.023 157.319 147.721 157.319C147.418 157.319 147.015 157.218 146.712 157.218C140.763 157.218 135.822 162.059 135.822 168.109C135.822 171.034 137.032 173.857 139.049 175.874Z" fill="#272F49"/>
<path d="M91.0491 174.059C90.9483 174.059 90.6458 173.454 90.6458 173.353C90.5449 173.151 90.3432 172.849 90.2424 172.546C90.0407 172.042 89.7382 171.437 89.6374 170.933C89.4357 170.328 89.4357 169.824 89.234 169.218C89.0323 168.513 88.8306 167.807 88.629 167.101C88.2256 165.689 88.0239 164.277 88.2256 162.765C88.4273 160.345 89.7382 158.025 91.5533 156.311C93.3684 154.597 95.6878 153.487 98.1079 152.983C98.9146 152.782 99.7214 152.681 100.629 152.882C101.637 153.084 102.545 153.689 103.251 154.496C103.654 154.899 103.957 155.303 104.259 155.706C104.36 155.908 104.562 156.109 104.36 156.311C104.259 156.412 104.158 156.412 104.057 156.412C103.755 156.412 103.352 156.311 103.049 156.311C102.747 156.311 102.343 156.21 102.041 156.21C96.0911 156.21 91.15 161.05 91.15 167.101C91.15 170.025 92.2592 172.647 94.1752 174.664C94.0743 174.664 91.0491 174.059 91.0491 174.059Z" fill="#272F49"/>
<path d="M95.4862 176.883C87.8224 176.883 81.5703 170.631 81.5703 162.967C81.5703 155.303 87.8224 149.051 95.4862 149.051C103.15 149.051 109.402 155.303 109.402 162.967C109.402 170.631 103.15 176.883 95.4862 176.883ZM95.4862 153.084C90.0409 153.084 85.6039 157.521 85.6039 162.967C85.6039 168.412 90.0409 172.849 95.4862 172.849C100.932 172.849 105.369 168.412 105.369 162.967C105.369 157.521 100.932 153.084 95.4862 153.084Z" fill="#E0E3BD"/>
<path d="M140.26 177.891C132.596 177.891 126.344 171.639 126.344 163.976C126.344 156.312 132.596 150.06 140.26 150.06C147.924 150.06 154.176 156.312 154.176 163.976C154.176 171.639 147.924 177.891 140.26 177.891ZM140.26 154.093C134.814 154.093 130.377 158.53 130.377 163.976C130.377 169.421 134.814 173.858 140.26 173.858C145.705 173.858 150.142 169.421 150.142 163.976C150.142 158.53 145.705 154.093 140.26 154.093Z" fill="#E0E3BD"/>
<path d="M89.0317 171.942C87.6199 169.824 86.9141 167.404 86.9141 164.984C86.9141 157.824 92.6619 152.076 99.8216 152.076C99.9224 152.076 100.124 152.076 100.225 152.076C101.032 152.883 101.838 153.589 102.443 154.395C101.536 154.194 100.729 154.093 99.8216 154.093C93.872 154.093 88.9309 158.933 88.9309 164.984C88.9309 167.908 90.0401 170.53 91.9561 172.547L89.0317 171.942Z" fill="#E0E3BD"/>
<path d="M137.033 173.756C136.024 173.655 135.016 173.454 134.008 173.252C132.596 171.134 131.789 168.613 131.789 165.992C131.789 159.134 137.234 153.487 143.991 153.084L146.613 155.202C146.008 155.101 145.302 155 144.596 155C138.646 155 133.705 159.84 133.705 165.891C133.806 169.017 135.016 171.739 137.033 173.756Z" fill="#E0E3BD"/>
</svg>
