<svg width="56" height="56" viewBox="0 0 56 56" fill="none" xmlns="http://www.w3.org/2000/svg">
<path d="M27.5641 7V22.1007C27.5641 22.1648 27.5 22.2289 27.4359 22.2289C26.9872 22.4249 26.6026 22.619 26.1538 22.8132C25.5769 23.0714 24.9359 23.3315 24.359 23.6557L22.2436 24.6264L20.5128 25.4048L18.3974 26.3773C17.8205 26.6374 17.2436 26.8956 16.6026 27.2198C16.1538 27.4139 15.641 27.674 15.1923 27.8681C15.1282 27.8681 15.1282 27.9322 15.0641 27.8681H15C15.1923 27.544 15.3846 27.2839 15.5769 26.9615C16.6026 25.2106 17.6923 23.4615 18.7179 21.7106C19.8077 19.8333 20.9615 17.9524 22.0513 16.0733C23.0769 14.3242 24.1026 12.5751 25.1282 10.8901C25.8974 9.59158 26.6667 8.36264 27.3718 7.0641C27.5 7.0641 27.5 7 27.5641 7C27.5641 7 27.5 7 27.5641 7Z" fill="#8C8C8C"/>
<path d="M39.9999 27.8682C39.0383 28.5165 38.0127 29.099 37.0512 29.6814C33.9101 31.5623 30.8332 33.3773 27.6922 35.2565C27.6281 35.2565 27.6281 35.3206 27.564 35.3206C27.4999 35.3206 27.4999 35.2565 27.4999 35.2565V22.229C27.4999 22.1649 27.564 22.1649 27.6281 22.1649C27.8845 22.2931 28.1409 22.425 28.4614 22.5532C29.2306 22.9433 30.064 23.2675 30.8332 23.6557C31.5383 23.9799 32.1794 24.3041 32.8845 24.5623C33.5896 24.8865 34.2306 25.2107 34.9358 25.5348C35.5127 25.7949 36.1537 26.0532 36.7306 26.3773C37.3076 26.6374 37.9486 26.8957 38.5255 27.2198C38.9742 27.414 39.423 27.674 39.9358 27.8682C39.9358 27.8041 39.9358 27.8682 39.9999 27.8682Z" fill="#02231E"/>
<path d="M27.564 48.0238C27.4999 48.0238 27.564 48.0238 27.564 48.0238C27.4999 48.0238 27.4999 48.0239 27.4358 47.9579C26.1537 46.1447 24.9358 44.3938 23.6537 42.5788L19.8076 37.1356C18.5896 35.3865 17.3076 33.6374 16.0896 31.8206L15.1281 30.4597C15.1281 30.3956 15.064 30.3956 15.064 30.3315C15.1281 30.3315 15.1281 30.3956 15.1922 30.3956C16.9229 31.4323 18.7178 32.4689 20.4486 33.5055C22.4358 34.7381 24.487 35.9048 26.4742 37.1356C26.7947 37.3297 27.1794 37.5239 27.4999 37.718C27.564 37.718 27.564 37.7839 27.564 37.848V48.0238Z" fill="#8C8C8C"/>
<path d="M15 27.1898C15 27.1257 15 27.1257 15 27.1898C15.641 26.8657 16.2821 26.6074 16.9231 26.2832L19.4231 25.1166C20.0641 24.7924 20.7051 24.5342 21.3462 24.21C22.2436 23.7558 23.2051 23.3675 24.1026 22.9133C24.7436 22.6532 25.3846 22.329 26.0256 22.0708C26.4744 21.8767 26.9231 21.6825 27.3718 21.4224C27.4359 21.4224 27.4359 21.3583 27.5 21.3583V34.5781C27.4359 34.6441 27.4359 34.5781 27.3718 34.5781C27.1795 34.4499 26.9872 34.384 26.859 34.2539L15.1282 27.2558C15.0641 27.1898 15 27.1898 15 27.1898ZM39.8077 29.5891C39.8077 29.6532 39.8077 29.6532 39.7436 29.7173C36.0256 35.0323 32.3077 40.2814 28.5897 45.5964C28.2051 46.1788 27.8205 46.6972 27.4359 47.2814V36.9756C28.2692 36.4572 29.1026 35.9389 29.9359 35.4865L39.7436 29.6532C39.7436 29.5891 39.8077 29.5891 39.8077 29.5891Z" fill="#072723"/>
<path d="M27.5643 22.1648V7.06775L39.872 27.6758C39.9361 27.7399 40.0002 27.804 40.0002 27.8699C39.7438 27.7417 39.4873 27.6099 39.1668 27.4817C38.8463 27.3516 38.5258 27.1575 38.2053 27.0275C38.013 26.9634 37.8207 26.8333 37.5643 26.7674C37.2438 26.6392 36.8591 26.4432 36.5386 26.315C36.3463 26.2491 36.154 26.1209 35.9617 26.0549L34.6156 25.4725C34.3591 25.3425 34.1668 25.2784 33.9104 25.1483C33.5899 25.0183 33.2694 24.8242 32.9489 24.6941C32.7566 24.63 32.5643 24.5 32.372 24.4359L31.0258 23.8516C30.7694 23.7234 30.5771 23.6575 30.3207 23.5275C30.0002 23.3993 29.6797 23.2033 29.3591 23.0732C29.1668 22.945 28.9104 22.8791 28.7181 22.7509L27.5643 22.1667V22.1648Z" fill="#072723"/>
</svg>
