<svg width="54" height="55" viewBox="0 0 54 55" fill="none" xmlns="http://www.w3.org/2000/svg">
<circle cx="26.9282" cy="27.4885" r="26.9282" fill="white"/>
<path d="M42.2389 38.3133L26.9252 44.2412L11.6172 38.3133L19.5556 35.2402L26.9309 38.164L34.3064 35.2402L42.2389 38.3133Z" fill="#4F28DD"/>
<path d="M26.925 27.0491L18.7741 23.752L14.0063 30.8804L22.3123 34.1717L26.9278 36.0029V27.0479L26.925 27.0491Z" fill="#4F28DD"/>
<path d="M35.0814 23.752L26.9277 27.0479V36.0029L26.9305 36.0041L31.5488 34.1717L39.8492 30.8861L35.0814 23.752Z" fill="#794DEC"/>
<path d="M20.021 21.8104L26.9254 24.4699L26.9282 24.4688V10.7404L20.021 21.8104Z" fill="#4F28DD"/>
<path d="M26.9305 10.7358L26.9277 10.7404V24.4689L33.835 21.8105L26.9305 10.7358Z" fill="#827FF4"/>
</svg>
