<svg xmlns="http://www.w3.org/2000/svg" width="37" height="37" fill="none"><path fill="url(#a)" d="M18.5 0C8.283 0 0 8.283 0 18.5S8.283 37 18.5 37 37 28.717 37 18.5 28.717 0 18.5 0"/><path fill="#9FF7EC" d="m18.496 15.22 7.016-2.524-7.016-7.01z"/><path fill="#BADEFF" d="M18.496 31.314 9.57 23.646v-9.053"/><path fill="#C5C5FF" d="m18.496 15.22-7.015-2.53 2.538-2.563 4.477-4.441z"/><path fill="#9077ED" d="M18.496 31.314v-7.71s6.42-6.43 8.933-9.01z"/><path fill="#5E9EFC" d="m9.571 14.593 8.925 9.01v7.711z"/><path fill="#A181F7" d="m25.512 12.695-7.016 7.071V15.22z"/><path fill="#61A9FF" d="m11.481 12.69 7.015 7.076V15.22z"/><path fill="#BCCFFF" d="m27.428 14.593-8.932 16.721 8.932-7.696z"/><defs><linearGradient id="a" x1="0" x2="37" y1="18.5" y2="18.5" gradientUnits="userSpaceOnUse"><stop stop-color="#465160"/><stop offset="1" stop-color="#172536"/></linearGradient></defs></svg>