<svg xmlns="http://www.w3.org/2000/svg" width="1000" height="1000" fill="none"><g clip-path="url(#a)"><circle cx="500" cy="500" r="500" fill="#20A928"/><path fill="#fff" d="M282.105 586.278c2.078-13.496 4.083-27.043 6.107-40.568.243-1.623 3.349-.276 4.469.041 18.009 5.103 35.987 10.357 53.991 15.474 15.244 4.333 30.531 8.513 45.739 12.967 1.288.377 3.142 2.462 2.991 3.5-.794 5.459-1.823 10.933-3.374 16.224-3.413 11.636-3.304 23.41-1.538 35.168 2.224 14.807 6.945 28.73 18.68 38.893 6.35 5.501 13.099 10.8 20.398 14.883 10.526 5.887 22.148 9.419 34.188 10.649 16.778 1.713 32.517-1.542 47.472-9.89 10.681-5.962 19.579-13.644 25.897-23.762 8.584-13.746 13.926-28.939 16.166-45.095 1.659-11.971.902-23.505-2.824-35.311-5.386-17.069-16.91-28.443-31.192-37.481-7.31-4.625-15.551-7.876-23.588-11.227-8.156-3.401-16.573-6.177-24.887-9.195-6.207-2.252-12.431-4.456-18.493-6.626 6.496-23.91 12.795-47.017 19.04-70.138 1.652-6.119 3.168-7.203 10.061-5.396 6.047 1.585 12.028 3.569 18.169 4.613 9.876 1.681 19.912 2.432 29.785 4.13 14.034 2.413 27.592.138 39.699-6.344 17.953-9.613 27.05-26.607 32.529-45.543 4.052-14.008 4.977-28.188 1.182-42.56-3.426-12.973-9.892-23.816-20.577-31.992-13.764-10.532-29.577-15.986-46.628-17.559-11.138-1.027-22.429-.694-32.501 5.134-5.844 3.382-11.488 7.261-16.7 11.551-11.454 9.429-18.469 21.937-23.482 35.707-2.205 6.059-4.61 12.045-6.918 18.049l-100.763-28.241c3.638-9.821 6.763-19.543 10.828-28.855 3.749-8.587 8.476-16.751 12.828-25.072 12.91-24.687 31.531-40.597 53.495-57.019 6.019-4.501 12.396-8.928 19.277-11.786 13.977-5.805 28.353-10.697 43.48-12.836 20.299-2.87 43.731-1.029 63.943 2.998 24.878 4.957 50.728 14.112 72.954 26.06 14.417 7.75 27.758 16.851 39.814 28.154 10.631 9.968 19.956 20.782 27.532 33.09 27.778 45.125 27.181 103.602.289 149.154-8.353 14.149-18.868 25.92-31.618 35.913-4.101 3.214-8.423 6.269-13.012 8.703-5.819 3.086-11.938 5.65-18.067 8.089-4.955 1.971-10.116 3.423-15.527 5.218 1.899 1.446 3.29 2.458 4.632 3.531 8.045 6.433 13.967 14.613 19.914 22.949 9.14 12.81 16.36 26.513 20.095 41.686 2.581 10.484 4.197 21.378 4.692 32.161a127.7 127.7 0 0 1-4.638 40.536c-.869 3.087-1.637 6.203-2.455 9.305-3.823 14.493-8.697 28.61-16.735 41.343-5.725 9.07-11.696 18.044-18.303 26.478-5.426 6.925-11.424 13.61-18.116 19.283-8.686 7.363-18.033 14.049-27.617 20.218-8.399 5.406-17.105 10.847-26.424 14.18-76.18 27.241-160.294-2.078-223.203-46.803-11.73-8.339-20.415-19.627-28.057-31.504-5.564-8.648-9.89-18.172-14.065-27.616-11.456-25.911-13.303-59.884-9.034-87.613"/><path fill="#fff" d="M547.153 159.982a2.666 2.666 0 0 1 3.262-1.892l86.173 22.86a2.665 2.665 0 0 1 1.894 3.259l-26.253 98.831a2.666 2.666 0 0 1-3.262 1.892l-86.173-22.86a2.665 2.665 0 0 1-1.893-3.26zM404.598 696.648a2.666 2.666 0 0 1 3.261-1.892l86.174 22.86a2.665 2.665 0 0 1 1.893 3.26l-31.913 120.142a2.666 2.666 0 0 1-3.262 1.892l-86.174-22.86a2.665 2.665 0 0 1-1.893-3.26z"/></g><defs><clipPath id="a"><path fill="#fff" d="M0 0h1000v1000H0z"/></clipPath></defs></svg>