<svg xmlns="http://www.w3.org/2000/svg" width="195" height="195" fill="none"><g clip-path="url(#a)"><path fill="url(#b)" d="M193.844 96.86c0 53.459-43.336 96.795-96.794 96.795S.256 150.319.256 96.861 43.592.066 97.05.066s96.794 43.337 96.794 96.795z"/><path fill="#fff" d="M149.85 83.531 96.98 29.543 44.104 83.531l26.436 26.992 26.44-26.992 26.435 26.992z"/><path fill="#1F2333" d="M61.684 159.868q-3.93 0-6.765-1.417-2.788-1.463-4.297-4.114-1.463-2.697-1.463-6.354V127.23h6.034v20.936q0 2.925 1.646 4.617 1.691 1.69 4.845 1.691 3.155 0 4.8-1.691 1.691-1.692 1.691-4.617V127.23h6.034v20.753q0 3.657-1.508 6.354-1.463 2.651-4.297 4.114-2.788 1.417-6.72 1.417"/><path fill="#1F2333" fill-rule="evenodd" d="M54.549 159.156c-1.99-1.044-3.536-2.521-4.62-4.426l-.008-.014c-1.05-1.935-1.559-4.189-1.559-6.734v-21.55h7.629v21.733c0 1.792.499 3.112 1.416 4.057.935.932 2.319 1.454 4.277 1.454 1.963 0 3.327-.524 4.229-1.45l.007-.008c.946-.946 1.458-2.264 1.458-4.053v-21.733h7.629v21.55c0 2.548-.527 4.804-1.61 6.741-1.055 1.912-2.606 3.392-4.627 4.435-1.996 1.014-4.37 1.506-7.086 1.506-2.715 0-5.098-.489-7.121-1.501zm2.29-6.373q-1.646-1.692-1.646-4.617V127.23H49.16v20.753q0 3.657 1.463 6.354 1.509 2.651 4.297 4.114 2.835 1.417 6.765 1.417 3.932 0 6.72-1.417 2.835-1.463 4.297-4.114 1.508-2.697 1.508-6.354V127.23h-6.034v20.936q0 2.925-1.691 4.617-1.645 1.69-4.8 1.691-3.154 0-4.845-1.691z" clip-rule="evenodd"/><path fill="#1F2333" d="M97.537 159.868q-3.702 0-6.537-1.326t-4.433-3.794q-1.6-2.468-1.6-5.942v-1.28h5.942v1.28q0 2.879 1.783 4.342 1.782 1.417 4.845 1.417 3.108 0 4.617-1.234 1.554-1.234 1.554-3.154 0-1.326-.777-2.148-.731-.824-2.194-1.326-1.417-.549-3.474-1.006l-1.051-.228q-3.292-.731-5.669-1.829-2.331-1.143-3.61-2.971-1.236-1.829-1.235-4.754t1.371-4.983q1.417-2.102 3.931-3.199 2.56-1.143 5.989-1.143t6.079 1.188q2.697 1.143 4.206 3.474 1.554 2.286 1.554 5.76v1.371h-5.943v-1.371q0-1.828-.731-2.925-.685-1.143-2.011-1.646-1.326-.549-3.154-.549-2.743 0-4.069 1.052-1.28 1.005-1.28 2.788 0 1.189.595 2.011.64.823 1.874 1.372 1.234.547 3.154.96l1.051.228q3.429.732 5.943 1.874 2.56 1.143 3.977 3.017 1.417 1.875 1.417 4.8t-1.509 5.165q-1.463 2.194-4.205 3.475-2.697 1.233-6.4 1.234"/><path fill="#1F2333" fill-rule="evenodd" d="M84.17 146.735h7.537v2.077c0 1.743.53 2.935 1.486 3.722 1.006.797 2.424 1.24 4.345 1.24 1.99 0 3.312-.399 4.112-1.054l.009-.007c.853-.678 1.253-1.503 1.253-2.53 0-.717-.205-1.225-.56-1.601l-.016-.017c-.367-.413-.962-.794-1.858-1.102l-.028-.01c-.896-.347-2.012-.672-3.358-.971l-1.05-.228c-2.234-.497-4.184-1.123-5.832-1.884l-.017-.008c-1.655-.811-2.971-1.884-3.913-3.23l-.008-.011c-.937-1.387-1.37-3.142-1.37-5.2 0-2.078.488-3.9 1.504-5.425 1.036-1.536 2.471-2.7 4.273-3.487 1.828-.815 3.938-1.21 6.31-1.21 2.375 0 4.513.411 6.398 1.255 1.93.819 3.456 2.074 4.552 3.764 1.143 1.685 1.687 3.769 1.687 6.2v2.169h-7.537v-2.169c0-1.12-.225-1.924-.598-2.483l-.021-.032c-.359-.598-.882-1.035-1.61-1.311l-.022-.008c-.764-.316-1.707-.488-2.849-.488-1.752 0-2.894.34-3.573.879-.64.503-.978 1.193-.978 2.163 0 .648.158 1.145.435 1.533.326.415.83.797 1.56 1.121.756.336 1.75.642 2.997.909l1.051.229c2.326.496 4.364 1.136 6.104 1.927 1.804.806 3.245 1.888 4.285 3.263 1.073 1.419 1.578 3.2 1.578 5.28 0 2.095-.542 3.975-1.644 5.611-1.067 1.6-2.59 2.846-4.53 3.751-1.924.881-4.181 1.309-6.736 1.309-2.564 0-4.862-.459-6.875-1.401-2.015-.942-3.612-2.303-4.765-4.082-1.164-1.797-1.728-3.935-1.728-6.376zm23.973 8.431q1.508-2.24 1.508-5.166 0-2.925-1.417-4.799-1.416-1.875-3.977-3.017-2.514-1.143-5.942-1.875l-1.052-.228q-1.919-.411-3.154-.96-1.233-.549-1.874-1.371-.594-.823-.594-2.012 0-1.782 1.28-2.788 1.326-1.051 4.068-1.051 1.829 0 3.154.548 1.326.503 2.012 1.646.73 1.096.731 2.925v1.372h5.942v-1.372q0-3.474-1.554-5.759-1.508-2.333-4.205-3.474-2.651-1.19-6.08-1.189-3.427 0-5.988 1.143-2.514 1.097-3.931 3.2-1.371 2.057-1.371 4.982-.001 2.926 1.234 4.754 1.28 1.829 3.61 2.971 2.378 1.097 5.67 1.829l1.05.228q2.058.457 3.475 1.006 1.462.502 2.194 1.326.777.822.777 2.148 0 1.92-1.554 3.154-1.509 1.234-4.617 1.234-3.063 0-4.846-1.417-1.782-1.462-1.782-4.342v-1.28h-5.943v1.28q0 3.474 1.6 5.942 1.6 2.47 4.434 3.794 2.834 1.326 6.537 1.326t6.399-1.234q2.743-1.281 4.206-3.474" clip-rule="evenodd"/><path fill="#1F2333" d="M120.409 159.227v-5.302h4.205v-21.393h-4.205v-5.303h13.165q6.444 0 9.782 3.292 3.382 3.245 3.382 9.691v6.033q0 6.446-3.382 9.737-3.338 3.246-9.782 3.245zm10.239-5.485h3.017q3.657 0 5.348-1.92 1.692-1.92 1.692-5.394v-6.399q0-3.52-1.692-5.394-1.69-1.92-5.348-1.92h-3.017z"/><path fill="#1F2333" fill-rule="evenodd" d="M119.612 160.024v-6.897h4.206v-19.798h-4.206v-6.897h13.962c4.424 0 7.916 1.13 10.338 3.517 2.461 2.363 3.624 5.834 3.624 10.262v6.034c0 4.431-1.165 7.915-3.624 10.308-2.423 2.356-5.914 3.471-10.338 3.471zm5.003-27.493v21.393h-4.206v5.303h13.165q6.446 0 9.782-3.246 3.383-3.29 3.383-9.736v-6.034q0-6.445-3.383-9.691-3.336-3.291-9.782-3.291h-13.165v5.302zm13.801 2.63c-.921-1.045-2.44-1.65-4.75-1.65h-2.22v19.433h2.22c2.31 0 3.829-.605 4.75-1.649.959-1.09 1.492-2.675 1.492-4.867v-6.4c0-2.227-.535-3.806-1.486-4.86zm-4.75 18.58q3.656 0 5.348-1.919 1.69-1.92 1.691-5.394v-6.4q0-3.519-1.691-5.394-1.691-1.92-5.348-1.92h-3.017v21.027z" clip-rule="evenodd"/></g><defs><linearGradient id="b" x1="31.645" x2="139.765" y1="155.52" y2="59.358" gradientUnits="userSpaceOnUse"><stop offset=".073" stop-color="#C3EEE4"/><stop offset="1" stop-color="#2AC8A5"/></linearGradient><clipPath id="a"><path fill="#fff" d="M.273.082h194.279v194.279H.273z"/></clipPath></defs></svg>