<svg xmlns="http://www.w3.org/2000/svg" viewBox="0 0 128 128"><path fill="#FFFFFE" d="M64 128c35.346 0 64-28.654 64-64S99.346 0 64 0 0 28.654 0 64s28.654 64 64 64"/><path fill="#F4AA1C" d="M58.08 116.842c-1.36-.4-3.28-1.242-4.24-1.882-19.402-12.842-19.402-12.842-25.76-19.12-8.762-8.602-12.48-14.042-12.48-18.202 0-.841.762-4.96 1.642-9.081 1.561-7.04 1.68-8.122 1.961-15.962.32-10.921.64-12 4.8-16.361 1.642-1.722 4.442-4.282 6.202-5.642 1.76-1.402 4.56-4 6.24-5.84 2.921-3.2 3.28-3.44 7.2-5.12 2.281-.96 6.761-3.162 9.961-4.842 9.52-5.081 9.28-5.001 14.842-4.521 5.402.48 6.122.8 13.76 6.041 2.442 1.68 5.28 3.642 6.32 4.362 1.082.72 3.882 1.92 6.4 2.682 5.04 1.6 6.922 2.601 11.28 6.041 3.642 2.842 5.562 5.322 6.24 7.962.602 2.48.24 8.441-.842 13.2-1.001 4.56-1.001 8.88 0 14.841 1.162 6.88 1.082 13.68-.201 18.602-.56 2.08-1.482 4.602-2.08 5.6-1.482 2.602-10.602 11.402-13.12 12.602-1.12.56-4.202 1.561-6.8 2.201-2.64.682-5.322 1.402-5.92 1.68-.64.24-2.8 2.442-4.88 4.922-4.96 5.961-5.76 6.361-12.8 6.48-4.042.08-5.76-.08-7.722-.64zm17.12-26.08c0-.48-.282-.762-.8-.762-.88 0-1.162 1.402-.282 1.722q1.081.36 1.082-.96M63.878 62.72c-.16-.4-.521-.72-.761-.72-.522 0-.202 12.48.361 13.84.202.442.4-2 .522-5.84.122-3.642.08-6.922-.122-7.28m10.32 11.962C75.2 73.722 76 72.64 76 72.282c0-.362-.08-.682-.202-.682-.24 0-3.961 4-4.121 4.442-.32.88.841.24 2.521-1.36M46.157 72.16c1.04-.8 1.84-1.52 1.721-1.6-.281-.282-3.6 1.04-4.361 1.722-.762.681-.64 1.321.24 1.321.281 0 1.36-.64 2.4-1.44zm-16.16-4.762c0-.681-1.44-.8-1.802-.201-.16.24-.16.72-.041 1.04.16.48.4.521 1.04.16.441-.24.8-.682.8-1.002zm5.76-6.56c.361-.56-.16-1.641-.762-1.641-.681 0-1.52 1.081-1.2 1.6.32.48 1.68.521 1.962.041m-8.122-7.321c.842-1.52.96-2.32 1.082-6.522.041-2.64.201-5.2.281-5.68.122-.521 2.682-2.841 6.282-5.801 3.36-2.682 7.6-6.202 9.402-7.802 3.92-3.52 4.8-3.92 7.36-3.322 2.201.522 2.72.32 4.72-1.76 2.24-2.32 1.481-2.361-5.722-.16-2.4.72-3.322 1.322-6.96 4.48-2.282 2-5.92 5.04-8.042 6.762-5.721 4.682-9.76 8.282-10.441 9.322-.48.8-.48 1.561-.08 5.28.281 2.361.48 4.88.48 5.6 0 1.721.48 1.6 1.641-.4zm37.242-11.52c-.08-.122-.4.16-.72.56-.762 1.04-.8 10.08-.042 10.361.362.122.522-1.2.682-5.28.121-3.001.16-5.52.08-5.641m-14.522 1.68c1.36-1.402 5.04-3.962 7.562-5.242.921-.48 1.68-.96 1.68-1.081 0-.442-3.44.361-5.562 1.321-4.441 1.92-6.281 4.24-6.681 8.24l-.202 2.08 1.04-2.041c.56-1.12 1.52-2.602 2.16-3.28zm15.642-10.282c.281-.8.88-1.6 1.481-1.881 2.202-1.082 1.322-2.24-1.28-1.76l-1.401.281v2.602c0 2.8.441 3.081 1.2.761zm27.52-1.92c.121-.64-.122-.72-1.76-.601-1.92.121-2.842.88-1.482 1.241 1.52.4 3.12.08 3.242-.64m-38.56-1.44c.281-.4-1.082-.841-2.64-.841-1.082 0-1.722.48-1.242.96.4.361 3.642.281 3.882-.122z"/><path fill="#100F12" d="M58.08 116.842c-1.36-.4-3.28-1.242-4.24-1.882-19.402-12.842-19.402-12.842-25.76-19.12-8.762-8.602-12.48-14.042-12.48-18.202 0-.841.762-4.96 1.642-9.081 1.561-7.04 1.68-8.122 1.961-15.962.32-10.921.64-12 4.8-16.361 1.642-1.722 4.442-4.282 6.202-5.642 1.76-1.402 4.56-4 6.24-5.84 2.921-3.2 3.28-3.44 7.2-5.12 2.281-.96 6.761-3.162 9.961-4.842 9.52-5.081 9.28-5.001 14.842-4.521 5.402.48 6.122.8 13.76 6.041 2.442 1.68 5.28 3.642 6.32 4.362 1.082.72 3.882 1.92 6.4 2.682 5.04 1.6 6.922 2.601 11.28 6.041 3.642 2.842 5.562 5.322 6.24 7.962.602 2.48.24 8.441-.842 13.2-1.001 4.56-1.001 8.88 0 14.841 1.162 6.88 1.082 13.68-.201 18.602-.56 2.08-1.482 4.602-2.08 5.6-1.482 2.602-10.602 11.402-13.12 12.602-1.12.56-4.202 1.561-6.8 2.201-2.64.682-5.322 1.402-5.92 1.68-.64.24-2.8 2.442-4.88 4.922-4.96 5.961-5.76 6.361-12.8 6.48-4.042.08-5.76-.08-7.722-.64zm4.08-9.68c.56-.442 1.36-1.402 1.722-2.08.361-.72.841-1.402 1.081-1.562.32-.24.282-.442-.08-.682-.761-.48.282-2.16 1.12-1.84.48.202.522.16.122-.24-.8-.8-.602-1.2.4-.96.521.16 1.721-.121 2.8-.601 2.761-1.242 3.161-.8.72.761-1.12.762-1.962 1.44-1.84 1.562.361.362 8.601-3.962 8.601-4.522 0-.281-.4-.8-.88-1.161-.921-.682-.921-.682.362-.48 1.322.201 2.202-.4 1.322-.96-.32-.202-.122-.96.761-2.762 1.322-2.56 2.88-3.881 5.76-4.88 1.002-.361 1.482-.761 1.482-1.28 0-.64.121-.681.601-.281.362.281.602.32.602.08 0-.202 1.482-.96 3.242-1.68 3.6-1.482 3.641-1.52 4.96-6.522.681-2.56.681-2.8.041-4.16l-.681-1.44-1.28 1.162-1.242 1.161 1.082-1.481 1.12-1.52-.96-1.28c-.602-.8-1.082-2.16-1.242-3.44-.24-1.92-.202-2.122.4-2 .4.08 2.56 2.281 4.842 4.921 5.641 6.522 6.521 6.682 3.721.72-.88-1.881-1.6-4-1.6-4.72 0-1.92.8-5.84 1.482-7.12.48-1.001.521-1.44.08-2.921-.32-.96-.682-1.76-.8-1.76-.16 0-.842-.48-1.52-1.04-1.04-.842-1.162-1.2-.96-2.282.4-2.122.88-2.8 1.561-2.24.362.282.522.842.4 1.322-.24.96 1.36 4.72 1.962 4.521.202-.08.72-1.68 1.082-3.52.4-1.84 1.161-4.841 1.721-6.601 1.402-4.56 1.36-4.96-.96-7.28-2.201-2.202-4.441-3.92-4.441-3.402 0 .202.72 1.2 1.6 2.282 1.52 1.84 1.801 2.841.64 2.4-.64-.24-2.042 1.801-1.562 2.24.16.16.64.4 1.04.48 1.2.201.96.921-.362 1.04-1.84.201-3.2-1.082-3.481-3.322-.522-3.562-1.76-4.48-6.56-4.842-5.882-.4-6.4-.64-11.722-5.84-1.04-1.04-2.64-2.24-3.52-2.681-1.68-.88-2.08-1.482-2.08-3.242 0-.8-.48-1.561-1.801-2.761-1.642-1.52-1.962-1.642-4-1.642-1.722 0-2.202.122-2.202.64 0 .682-2.762 4.88-3.722 5.68-.441.4-.521.8-.281 1.6.761 2.56.4 2.4 5.76 2.202 3.92-.202 5.001-.122 5.44.361.32.32.88.682 1.28.8.361.16.88.762 1.2 1.402.441.96 1.2 1.36 5.44 2.761 7.44 2.48 8.361 3.162 10.08 7.2.96 2.202 1.04 3.882.201 4.56-.32.282-.601.72-.601.96-.042.24-.8 1.44-1.722 2.64-2 2.56-4.88 4.16-8.16 4.56l-2.08.282-1.001-1.92c-.522-1.04-1.52-2.442-2.16-3.04l-1.2-1.162-.24 2.96c-.16 1.6-.362 3.36-.442 3.92-.122.922.282 1.2 5.44 3.76 6.282 3.12 7.76 4.442 9.2 8.202.64 1.642.88 3.2.88 5.84.042 3.12-.122 3.92-1.04 5.962-2.4 5.161-6.282 8.32-12.202 9.881l-3.641.922-.48 1.721a4.9 4.9 0 0 1-1.802 2.72c-1.12.88-1.721 1.002-4.24 1.002-3.001-.042-6.16-.48-6.64-.96-.121-.16-.361-1.2-.48-2.32l-.201-2.08-2.88-.682c-5.12-1.28-9.68-4.24-12.08-7.801-1.36-2.08-2.842-6.32-2.842-8.24 0-1.04.24-1.28 2.602-2.362 1.44-.64 3.84-1.44 5.321-1.76 1.482-.361 3.082-.72 3.6-.841.762-.16 1.52.4 4.16 3.081 2 2 3.36 3.082 3.562 2.88.24-.24.361-1.961.281-3.881l-.121-3.482-3.2-1.28c-4.442-1.802-6.64-3.162-8.56-5.322-4.922-5.6-4.682-15.321.521-20.64.842-.841 2-1.801 2.602-2.121 1.722-.88 6.842-2.202 8.56-2.202 1.242 0 1.562-.16 1.882-1.04.24-.56.4-1.76.4-2.64 0-1.561-.042-1.6-1.082-1.36-.64.16-1.642.4-2.32.522-.64.121-2.08 1.04-3.162 2-2.681 2.4-3.481 2.521-6.441.921-2.32-1.241-2.522-1.28-4-.8-3.242 1.04-6.042 2.842-9.76 6.24-.08.08.041.4.32.72.361.442.24.8-.56 1.76-.602.682-1.28 1.162-1.6 1.04-.88-.361-1.322 1.082-1.962 6.48-.4 3.44-1.12 6.72-2.08 9.76-1.28 4.042-1.641 4.8-3.12 6.202-2.521 2.32-3.2 4.522-2.921 9.12.24 4.24.361 4.762 1.6 5.28.48.24 1.241 1.12 1.721 2 .442.88 1.242 1.802 1.802 2.042 4.32 2 5.081 2.681 3.92 3.401-.762.442-.522.64 4.601 3.76 3.562 2.202 4.56 2.64 5.52 2.442 1.12-.202 1.162-.16 1.04.921-.08 1.002.442 1.76 3.562 5.12 6.122 6.602 8.32 8.602 10.56 9.76 2.602 1.36 3.92 1.44 5.322.32zM73.722 85.12c4.921-1.082 10.681-7.28 10.681-11.52 0-1.76-1.04-1.562-1.401.282-.16.841-.522 1.961-.8 2.56-.682 1.241-3.482 4-5.52 5.401-1.68 1.12-5.36 2.16-7.76 2.16-1.76 0-2.282.362-1.92 1.28.281.64 3.401.602 6.72-.16zm23.961-1.36c3.04-1.52 3.162-2.682.24-1.76-3.561 1.04-5.92 2.08-5.92 2.56 0 .8 3.44.32 5.68-.8m-74.88-4.122c0-.24-.16-.48-.361-.64-.48-.281-1.44-3.321-2.042-6.361-.282-1.28-.602-2.16-.762-2-.64.761-1.321 4.921-1.04 6.4.442 2.521.842 2.96 2.602 2.96.88 0 1.6-.16 1.6-.362zm24.8-.8c-.201-.441-.601-.921-.8-1.04-.24-.16-.761-.96-1.2-1.84-.441-.841-1.081-1.561-1.401-1.561-1.2 0-.56 1.52 1.401 3.36 2.122 2 2.682 2.281 2 1.081m16.48-15.92c-.32-1.001-6.921-4-10.361-4.72-1.482-.281-4.522-2.361-5.68-3.881-.48-.602-1.242-1.84-1.68-2.8-.8-1.642-.8-1.68-.602-.4.362 2.201 1.44 4 3.28 5.641 1.882 1.642 7.04 4.32 10.522 5.482l2.121.682-.281 5.641c-.16 3.12-.362 6-.442 6.442-.122.8-.122.8.442.041.32-.441.601-1.28.601-1.881 0-.602.282-1.162.602-1.322.48-.16.601.16.601 1.52 0 1.002.122 2.122.32 2.522.282.72.842-12 .56-12.96zm10.122 11.76c1.001-.96 1.801-2.041 1.801-2.4 0-.361-.08-.681-.201-.681-.24 0-3.962 4-4.122 4.441-.32.88.842.24 2.522-1.36m-31.402-.56c-.441-.681-.441-.681-.24 0 .122.4.282 1.04.282 1.402.041.602.08.602.24 0 .08-.4-.042-1.002-.282-1.402m3.36-1.92c1.002-.8 1.84-1.68 1.84-2 0-.72-1.2-.32-1.881.56-.24.362-.56.522-.72.362s-.762.16-1.322.72c-.602.522-1.242.96-1.482.96-.521 0 .682.8 1.242.8.24 0 1.28-.64 2.32-1.402zm25.642-.64c.201-.64-.48-2.64-.762-2.281-.08.041-.24.88-.4 1.801-.201 1.402-.16 1.642.362 1.482.32-.122.681-.56.8-1.002m-44.16-18.041c.841-1.52.96-2.32 1.081-6.522.042-2.64.202-5.2.282-5.68.122-.521 2.64-2.841 6.282-5.76 3.36-2.72 7.561-6.24 9.36-7.801 3.881-3.52 4.841-3.962 7.401-3.36 2.202.521 2.72.32 4.72-1.76 2.24-2.32 1.482-2.362-5.721-.16-2.48.761-3.322 1.321-8.64 5.881-3.242 2.762-7.562 6.442-9.642 8.122s-4.64 3.92-5.722 4.96l-1.961 1.881.281 3.04c.122 1.68.362 4.362.522 5.962.122 1.562.362 2.88.522 2.88.121 0 .681-.762 1.241-1.68zm37.241-11.52c-.08-.122-.4.16-.72.56-.761 1.04-.8 10.08-.041 10.361.361.122.521-1.2.681-5.28.122-3.001.16-5.52.08-5.641m-14.521 1.68c1.36-1.402 5.04-3.962 7.561-5.242.922-.48 1.68-.96 1.68-1.081 0-.442-3.44.361-5.561 1.321-4.442 1.92-6.282 4.24-6.682 8.24l-.201 2.08 1.04-2.041c.56-1.12 1.52-2.602 2.16-3.28zm35.36 1.52c1.76-2.362 1.721-2.48-1.402-5.44-2.24-2.122-4.16-3.04-10.121-4.762l-3.2-.921-.122-1.642c-.08-1.082-.32-1.642-.682-1.642-.72 0-1.081 1.402-.921 3.44.121 1.44.24 1.562 1.721 1.882 2.442.522 6.64 1.92 8.24 2.72 1.76.88 4.32 3.44 4.602 4.682.16.48.042 1.161-.24 1.481-.48.56-.202 2.202.362 2.202.121 0 .96-.922 1.76-2zM66.003 33.395c.282-.8.88-1.6 1.482-1.881 2.201-1.082 1.321-2.24-1.28-1.76l-1.402.281v2.602c0 2.8.442 3.081 1.2.761zm27.482-1.801c.281-1.002.521-1.002 2.48.041.921.442 1.84.762 2.121.682.522-.202-5.36-3.52-6.16-3.52-.32 0-.24.201.202.441 1.2.682.8 1.52-.8 1.642-1.562.122-2.24.922-1.04 1.242 1.802.48 3.002.281 3.2-.522zm-38.522-1.562c.282-.4-1.081-.842-2.64-.842-1.081 0-1.721.48-1.241.96.4.362 3.641.282 3.881-.121zm15.962-.88c-.24-.24-.762-.362-1.162-.24-.64.16-.601.202.16.24.48 0 .88.24.88.522 0 .24.122.32.282.201.16-.16.08-.48-.16-.72zm10.281-6.16c-1.2-1.2-2.361-2.202-2.601-2.202-.56 0-2.72-2.201-2.602-2.681.08-.602-2.361-.842-2.8-.32-.32.4-.16 1.001.682 2.361 1.44 2.282 3.92 4.202 5.52 4.24.681 0 1.481.202 1.801.4.32.202.96.4 1.402.4.602 0 .282-.48-1.402-2.201z"/><path fill="#100F12" d="M27.242 75.322c-.282-.122.88-.762 2.56-1.44l3.161-1.2.922 1.081c1.321 1.52 1.161 2.202-.24.88l-1.12-1.081-2.32 1.001c-1.28.602-2.32 1.04-2.362 1.002 0 0-.281-.122-.601-.24zm3.238-9.402c-.56-.72-2.08-4.32-2.08-4.922 0-.32.602-.921 1.36-1.36 1.6-1.001 2.202-2.201 3.562-6.88 1.2-4.121 2.4-6.56 3.52-7.161.441-.24.96-.88 1.161-1.44.48-1.242 1.002-.96 1.322.64.4 1.801-1.002 5.081-3.12 7.401-2.202 2.362-2.522 3.44-1.642 5.28.64 1.322.64 1.402-.201 2.08-.922.762-.762 1.642.281 1.642.522 0 .522.08-.041.64-.8.8-.08 1.84 1.161 1.68 1.002-.16 1.28-1.2.56-1.962-.56-.601-.8-1.961-.361-1.961.48 0 2.441 3.321 2.201 3.68-.281.441-6.08 3.12-6.761 3.12-.282 0-.682-.24-.922-.48z"/><path fill="#FEC616" d="M59.882 114.4c-3.002-.522-6.682-2.682-12.442-7.322-5.92-4.761-6.8-6-6.8-9.961 0-3.68.362-3.52 7.882 3.961 3.76 3.76 7.481 7.162 8.201 7.562.682.4 1.28.88 1.28 1.082 0 .48 2.64 0 4-.72.56-.282 1.44-1.002 2-1.6l1.002-1.12-1.802 1.12c-2.56 1.6-4.72 1.76-6.88.48-1.001-.56-4.121-3.6-7.12-6.96-6.08-6.762-7.76-8.8-4.08-4.96 7.92 8.24 9.6 9.801 11.76 10.88 1.28.64 2.72 1.161 3.242 1.161 1.241 0 2.921-1.321 3.76-2.921.361-.72.841-1.402 1.081-1.562.32-.24.282-.442-.08-.682-.48-.281-.48-.48 0-1.2.72-1.161 1.28-.841 1.52.762l.202 1.36.48-1.082c.282-.601.762-1.081 1.082-1.081.361 0 2.361-.88 4.521-2 2.16-1.082 3.962-2 4-2 .442 0 0 4.4-.521 5.12-.362.521-.56 1.001-.442 1.12.56.56 2.282-3.642 2.282-5.642 0-1.12.441-1.721 3.2-4.201 3.2-2.88 4.56-4.842 1.721-2.4-.841.681-1.961 1.6-2.441 2.041-.522.4-1.162.64-1.36.48-.24-.121-.32-.08-.202.122.122.24-.122.64-.602.921-.56.362-.72.362-.521.042a.58.58 0 0 0-.202-.8c-.681-.4 1.642-4.88 3.082-5.92 1.161-.8 3.92-2.08 4.56-2.08.201 0 .361.56.361 1.242v1.2l1.52-1.12c2.282-1.722 2.64-2.48.762-1.76-.56.201-1.082.281-1.2.16-.602-.56.48-1.36 3.402-2.56 3.561-1.44 3.6-1.482 4.921-6.48.682-2.56.682-2.8.042-4.16-.362-.762-.602-1.482-.522-1.562.08-.122-.4-.8-1.12-1.52-1.001-1.04-1.321-1.84-1.52-3.482-.16-1.161-.201-2.201-.08-2.281.442-.48 1.642.64 5.44 5.081C99.533 71.84 101.613 74 101.853 74c.281 0 .601.32.681.72.122.362.202-.16.24-1.162.042-1.161-.48-3.321-1.401-6-1.68-4.72-1.882-7.44-.8-9.52.601-1.161.64-1.52.201-3.081-.32-.96-.681-1.76-.8-1.76-.16 0-.841-.48-1.52-1.04-1.04-.842-1.161-1.2-.96-2.282.4-2.121.88-2.8 1.562-2.24.362.282.522.842.4 1.322-.24.96 1.36 4.72 1.962 4.521.201-.08.72-1.68 1.081-3.52.4-1.84 1.162-4.841 1.722-6.601 1.401-4.56 1.36-4.96-.96-7.28-2.202-2.202-4.442-3.92-4.442-3.402 0 .202.72 1.2 1.6 2.282 1.52 1.84 1.802 2.841.64 2.4-.64-.24-2.041 1.801-1.561 2.24.16.16.64.4 1.04.48 1.2.201.96.921-.362 1.04-1.84.201-3.2-1.082-3.482-3.322-.521-3.561-1.76-4.48-6.56-4.841-5.881-.4-6.4-.64-11.721-5.84-1.04-1.04-2.64-2.24-3.52-2.682-1.68-.88-2.08-1.482-2.08-3.242 0-.8-.48-1.561-1.802-2.761-1.641-1.52-1.961-1.642-4-1.642-2.08 0-2.4.202-2.24 1.28 0 .16-.201.202-.48.08-.72-.24-2.08 1.402-2.681 3.28-.282.88-.64 1.76-.8 1.962-.202.24-.08 1.12.24 2s.64 1.76.681 1.961c.08.362-1.321.842-3.92 1.322-.64.122-2.08 1.04-3.161 2-2.682 2.4-3.482 2.522-6.442.922-2.32-1.242-2.522-1.28-4-.8-3.242 1.04-6.042 2.841-9.76 6.24-.08.08.042.4.32.72.362.441.24.8-.56 1.76-.602.681-1.28 1.161-1.6 1.04-.88-.362-1.322 1.081-1.962 6.48-.4 3.44-1.12 6.72-2.08 9.76-1.28 4.041-1.641 4.8-3.12 6.201-2.521 2.32-3.2 4.522-2.921 9.12.24 4.24.361 4.762 1.6 5.28.48.24 1.241 1.12 1.721 2 .442.88 1.242 1.802 1.802 2.042 4.362 2.041 5.082 2.64 3.92 3.401-.72.48-.24.842 4.762 3.84 2.041 1.242 3.6 2.32 3.52 2.442-.24.202-4.64-1.882-6.64-3.162-1.92-1.241-1.12-.48 2 1.92 1.44 1.082 3.2 2.202 3.92 2.522 1.12.442 1.28.682 1.04 1.36-.16.48-.362 2.16-.442 3.76-.122 1.562-.362 2.88-.602 2.88-.681 0-8.441-6.08-10.921-8.602-2.8-2.8-5.642-6.4-7.36-9.36-.682-1.12-1.242-2.16-1.242-2.24 0-.121.72-.201 1.642-.201.88 0 1.561-.122 1.481-.282a23.8 23.8 0 0 1-2.121-6.16c-.32-1.561-.72-3.001-.842-3.2-.121-.201.282-1.481.88-2.841 3.962-9.36 3.882-9.082 3.6-12.32-.841-9.68-.8-11.12.16-12.48 1.082-1.52 5.12-5.162 11.402-10.16 2.441-1.92 5.881-4.842 7.721-6.442 3.44-3.04 4.282-3.52 12.282-6.922 4.88-2.08 8.32-4 9.402-5.28.441-.521 1.321-.761 3.401-.8 2.762-.121 2.922-.08 5.6 1.68 1.562.96 5.082 3.6 7.882 5.882 5.401 4.362 5.92 4.682 13.28 7.562 5.12 2 9.161 4.601 11.641 7.44 1.322 1.6 1.402 1.801 1.402 4.761 0 1.92-.48 5.482-1.28 9.44l-1.322 6.32.122 14.042.122 14-1.68 2.121c-2.08 2.602-10.32 9.84-14.16 12.362-1.52 1.04-4.24 2.4-6 3.04-3.76 1.36-4.682 2-10.4 7.36-2.4 2.282-5.082 4.522-5.882 4.922-1.6.8-4.522.921-8.042.361zm40.64-30c3.36-2.32 4.64-4.842 3.28-6.64-.522-.72-.56-.602-.602 1.12v1.92l-4.4 3.642c-2.4 2-4.4 3.68-4.4 3.76 0 .16 3.28-1.882 6.122-3.802m-2.842-.64c3.04-1.52 3.162-2.682.24-1.76-3.562 1.04-5.92 2.08-5.92 2.56 0 .8 3.44.32 5.68-.8m6.4-23.242c-.442-.64-.96-1.84-1.12-2.72-.24-1.321-.32-1.44-.602-.8-.16.442-.32 1.642-.32 2.682-.041 1.482.08 1.84.522 1.68.32-.122.922-.042 1.322.16 1.04.602 1.12.282.201-1.002zm-76.442-7.001c.842-1.52.96-2.32 1.082-6.522.042-2.64.202-5.2.282-5.68.121-.521 2.64-2.841 6.281-5.76 3.36-2.72 7.562-6.24 9.36-7.801 3.882-3.52 4.842-3.962 7.402-3.36 2.201.521 2.72.32 4.72-1.76 2.24-2.32 1.481-2.362-5.722-.16-2.48.761-3.321 1.321-8.64 5.881-3.241 2.762-7.561 6.442-9.641 8.122s-4.64 3.92-5.722 4.96l-1.962 1.881.282 3.04c.122 1.68.362 4.362.522 5.962.121 1.562.361 2.88.521 2.88.122 0 .682-.762 1.242-1.68zm77.52-7.482c.282-.921.4-1.801.32-1.881-.121-.122-.56 1.28-1.081 3.04-.64 2.441-.762 3.68-.56 4.921.32 1.6.361 1.562.601-1.321.122-1.642.442-3.802.72-4.762zm-11.68-14.441c.282-1.002.522-1.002 2.48.041.922.442 1.84.762 2.122.682.24-.08-1.12-1.04-3.04-2.08s-3.6-1.84-3.722-1.722c-.08.122.202.4.64.682 1.36.681 1.04 1.52-.64 1.68-1.561.121-2.24.921-1.04 1.241 1.802.48 3.002.282 3.2-.521zm-38.521-1.562c.281-.4-1.082-.842-2.64-.842-1.082 0-1.722.48-1.242.96.4.362 3.642.282 3.882-.121zm32.8-2.64a25 25 0 0 1-2.602-1.002c-.72-.361-.841-.4-.521 0 .521.522 3.28 1.562 4.16 1.562.32-.042-.16-.282-1.04-.56zm-6.56-4.4c-1.2-1.2-2.362-2.202-2.602-2.202-.56 0-2.72-2.201-2.601-2.681.08-.602-2.362-.842-2.8-.32-.32.4-.16 1.001.681 2.361 1.44 2.282 3.92 4.202 5.52 4.24.682 0 1.482.202 1.802.4.32.202.96.4 1.401.4.602 0 .282-.48-1.401-2.201z"/><path fill="#FEC616" d="M53.722 96.922c-1.322-.24-1.12-.682.48-1.28 1.68-.602 3.081-.24 2.921.681-.121.682-1.641.96-3.401.602zm9.158-6.042c-2.282-.122-2.56-.202-2.922-1.12-.201-.56-.281-1.162-.16-1.36.122-.16.08-.842-.041-1.52-.24-1.12-.4-1.2-2.522-1.44-6.48-.762-11.44-3.482-13.44-7.44-.56-1.12-.841-2-.64-2 .202 0 .48.362.64.8.4 1.242 3.322 3.52 5.44 4.202 2.56.841 3.44.56 1.082-.32-1.84-.72-3.6-2.522-4.88-4.96-.64-1.322-1.642-1.722-1.92-.88-.08.24-.362-.042-.64-.602-.442-1.002-.4-1.04.441-.842.64.16 1.44-.16 2.8-1.2 1.04-.8 1.882-1.68 1.882-2s.64-.64 1.6-.8c1.562-.281 1.68-.201 4.122 2.282 1.52 1.562 3.321 2.922 4.64 3.52l2.121.96.762-.922c.4-.521.761-1.44.761-2.041 0-.64.282-1.2.602-1.36.48-.16.602.16.602 1.68 0 1.04.16 2.121.361 2.441.362.56.842-11.92.522-13.04-.282-1.001-6.922-4-10.362-4.72-1.481-.281-4.521-2.361-5.68-3.881-2.761-3.482-3.2-7.84-1.2-11.882.682-1.321 1.802-2.88 2.522-3.44 2.521-1.92 6.361-3.401 10.281-3.92l3.76-.521.24-2.682c.122-1.482.32-2.762.442-2.922.48-.48 4.602-.64 4.88-.201.16.24.64.441 1.082.441.48 0 .761.282.761.8 0 .442-.281.8-.601.8-.72 0-1.082 1.36-.922 3.44.122 1.44.24 1.562 1.722 1.882 2.441.522 6.64 1.92 8.24 2.72 1.76.88 4.32 3.44 4.601 4.682.16.48.042 1.161-.24 1.481-.4.48-.4.842-.08 1.6.4.88.32 1.082-.841 1.962-.72.521-1.92 1.081-2.682 1.241-1.36.24-1.482.16-2.762-1.84-1.081-1.6-1.801-2.24-3.52-3.001-3.961-1.76-4-1.68-4.361 5.641l-.24 4.8 4.32 2.202c7.04 3.562 10 7.162 10.841 13.04.202 1.402.122 1.76-.4 1.76-.361 0-.681.56-.88 1.482-.4 2.16-1.12 3.401-3.12 5.28-3.481 3.321-5.561 4.32-10.201 4.761-2.4.282-2.682.362-2.602 1.12.122 1.28-.88 5.92-1.321 5.962a85 85 0 0 1-2.88-.122zm11.322-16.202c1.001-.96 1.801-2.041 1.801-2.4 0-.361-.08-.681-.201-.681-.24 0-3.962 4-4.122 4.441-.32.88.842.24 2.522-1.36m-2.682.122c.72-.442 1.6-1.402 1.962-2.16.601-1.28.601-1.44-.16-2.88-.8-1.562-2.122-2.72-3.562-3.12-.8-.24-.842-.08-1.2 4.202-.202 2.441-.282 4.48-.202 4.601.4.4 1.962.08 3.162-.64zm-9.002-26.48c.16-2.682.202-4.922.122-5.002-.32-.361-3.84 1.44-4.842 2.442-1.44 1.44-1.401 3.722.122 5.12 1.562 1.44 2.96 2.32 3.722 2.32.521 0 .681-.762.88-4.88zM64.88 42c-.08-.122-.4.16-.72.56-.762 1.04-.8 10.08-.042 10.362.362.121.522-1.2.682-5.28.122-3.002.16-5.52.08-5.642m-14.522 1.68c1.36-1.402 5.04-3.962 7.562-5.242.922-.48 1.68-.96 1.68-1.081 0-.442-3.44.361-5.562 1.321-4.441 1.92-6.281 4.24-6.681 8.24l-.202 2.08 1.04-2.041c.56-1.12 1.52-2.602 2.16-3.28zM66 33.398c.282-.8.88-1.6 1.482-1.881 2.201-1.082 1.321-2.24-1.28-1.76l-1.402.281v2.602c0 2.8.442 3.082 1.2.762zm7.482 56.362c-.362-.4.08-.96.761-.96.32 0 .56.282.56.602 0 .601-.841.841-1.321.361zm-31.44-5.36c-.64-.362-.24-1.2.601-1.2.602 0 .8 1.002.24 1.36-.16.08-.56.042-.841-.16"/><path fill="#FEC616" d="M42.4 72.4c0-.202.202-.4.442-.4s.681-.282 1.04-.602c.32-.361.72-.56.841-.441.202.24-1.52 1.801-2 1.84-.201 0-.32-.16-.32-.4zM28 66.64c0-.32.282-.64.602-.8.361-.122.601 0 .601.32s-.281.64-.601.8c-.362.122-.602 0-.602-.32m2.48-.72c-.56-.72-2.08-4.32-2.08-4.922 0-.281.522-.841 1.162-1.28 2.441-1.561 3.84-4.16 6.041-11.36.442-1.481 1.082-2.8 1.402-2.921.361-.122.8-.682 1.001-1.242.48-1.28 1.002-1.04 1.322.602.4 1.801-1.002 5.081-3.12 7.401-2.202 2.362-2.522 3.44-1.642 5.28.64 1.322.64 1.402-.201 2.08-.922.762-.762 1.642.281 1.642.522 0 .522.08-.041.64-.8.8-.08 1.84 1.161 1.68 1.002-.16 1.28-1.2.56-1.962-.56-.601-.8-1.961-.361-1.961.48 0 2.441 3.321 2.201 3.68-.281.441-6.08 3.12-6.761 3.12-.282 0-.682-.24-.922-.48zM88.202 55.2a.725.725 0 0 1 .121-.88c.56-.56 1.802-.08 1.6.602-.24.64-1.36.841-1.721.281z"/><path fill="#A15525" d="M59.882 114.4c-3.002-.522-6.682-2.682-12.442-7.322-5.92-4.761-6.8-6-6.8-9.961 0-3.68.362-3.52 7.882 3.961 3.76 3.76 7.481 7.162 8.201 7.562.682.4 1.28.88 1.28 1.082 0 .48 2.64 0 4-.72.56-.282 1.44-1.002 2-1.6l1.002-1.12-1.802 1.12c-2.56 1.6-4.72 1.76-6.88.48-1.001-.56-4.121-3.6-7.12-6.96-6.08-6.762-7.76-8.8-4.08-4.96 7.92 8.24 9.6 9.801 11.76 10.88 3.722 1.881 4.32 1.68 8.08-3.04 1.002-1.242 1.242-1.36 1.44-.8.202.56.32.521.72-.362.24-.56.72-1.04 1.04-1.04.362 0 2.362-.88 4.522-2 2.16-1.082 3.961-2 4-2 .441 0 0 4.4-.522 5.12-.361.522-.56 1.002-.441 1.12.56.56 2.281-3.642 2.281-5.642 0-1.12.442-1.721 3.2-4.201 1.76-1.6 3.2-3.082 3.2-3.322s-.521.042-1.12.64c-.601.602-1.241 1.082-1.401 1.082-.4 0 3.561-3.562 5.321-4.8.762-.522 1.722-1.36 2.08-1.84.682-.842 2.72-1.562 2.72-.96 0 .16.842.201 1.92.08 1.802-.16 4.4-1.2 5.68-2.282 1.162-.921 3.722-2.361 3.44-1.881-.16.24-2.16 2-4.441 3.92-2.32 1.881-4.202 3.52-4.202 3.641 0 .16.32-.041.72-.361.362-.32 2.08-1.44 3.76-2.48 5.082-3.082 6.24-5.082 4.762-8.042-.522-1.04-.842-2.442-.842-3.722s-.442-3.28-1.162-5.28c-1.881-5.161-2.201-7.161-1.401-9.241.72-1.882.841-3.28.361-4.602-.201-.64-.08-.88.48-1.04.602-.16.922-.96 1.44-3.68.4-1.881 1.12-4.841 1.68-6.56 1.402-4.4 1.36-4.88-1.001-7.241-1.082-1.12-2.762-2.522-3.68-3.162-3.002-2-7.882-4.56-8.32-4.282-.202.122-.4.042-.4-.24 0-.24-.32-.361-.8-.24-.442.122-.8.042-.8-.201 0-.24-.362-.32-.8-.202-.442.122-.72.042-.56-.16.201-.32-.72-.521-2.122-.48-.281.042-.4-.121-.281-.32.121-.201 0-.361-.24-.361s-2.96-2.4-6.042-5.36c-6.522-6.32-8-7.162-11.76-6.96-2.042.08-2.48 0-2.08-.362.282-.282 1.76-.56 3.322-.602 2.72-.121 2.88-.08 5.561 1.68 1.562.96 5.082 3.6 7.882 5.882 5.401 4.362 5.92 4.682 13.28 7.562 5.12 2 9.161 4.601 11.641 7.44 1.322 1.6 1.402 1.801 1.402 4.761 0 1.92-.48 5.482-1.28 9.44l-1.322 6.32.122 14.042.122 14-1.68 2.121c-2.08 2.602-10.32 9.84-14.16 12.362-1.52 1.04-4.24 2.4-6 3.04-3.76 1.36-4.682 2-10.4 7.36-2.4 2.282-5.082 4.522-5.882 4.922-1.6.8-4.522.921-8.042.361zm44.201-53.882c-.441-.64-.96-1.84-1.12-2.72-.24-1.321-.32-1.44-.601-.8-.16.442-.32 1.642-.32 2.682-.042 1.482.08 1.84.521 1.68.32-.122.922-.042 1.322.16 1.04.602 1.12.282.201-1.002zm1.082-14.48c.281-.921.4-1.801.32-1.881-.122-.122-.56 1.28-1.082 3.04-.64 2.441-.761 3.68-.56 4.921.32 1.6.362 1.562.602-1.321.121-1.642.441-3.802.72-4.762zM34 96.8c-4.682-3.642-7.082-6-10.202-10.042-1.561-2-4.201-6.121-4.201-6.56 0-.121.72-.201 1.6-.201 1.28 0 2.24.441 4.521 1.961 3.36 2.282 9.642 6.24 12.4 7.84 1.04.602 1.84 1.2 1.722 1.28-.24.24-4.602-1.84-6.64-3.12-1.92-1.241-1.12-.48 2 1.92 1.44 1.082 3.2 2.202 3.92 2.522 1.12.442 1.28.682 1.04 1.36-.16.48-.362 2.16-.442 3.76-.121 1.84-.361 2.88-.64 2.88-.281-.042-2.56-1.642-5.081-3.6z"/><path fill="#A15525" d="M77.882 95.162c.48-.602 2.921-2.122 2.921-1.84 0 .08-.761.681-1.68 1.28-.96.64-1.52.88-1.241.56m-8.96-4.202c.4-2.122 1.04-3.36 1.721-3.36.72 0 .56 1.242-.361 3.162-.72 1.481-1.642 1.641-1.36.201zm-6.042-.08c-2.282-.122-2.56-.202-2.922-1.12-.201-.56-.281-1.162-.16-1.36.122-.16.08-.842-.041-1.52-.24-1.12-.4-1.2-2.522-1.44-6.48-.762-11.44-3.482-13.44-7.44-.56-1.12-.841-2-.64-2 .202 0 .48.362.64.8.64 2.08 5.36 4.72 8.442 4.72.681.042 1.961.4 2.841.88.88.442 2.88 1.082 4.362 1.36 2.96.522 2.96.56 2.32 3.162-.4 1.641.4 2.281 2.72 2.281 1.802 0 1.962.08 1.84.88-.16 1.002-.16 1.002-3.44.8zm14.122-4.838c.121-.24.48-.442.72-.442.841 0 4.601-3.882 6.24-6.4.841-1.322 1.881-3.562 2.281-5.04.602-2.32.64-3.04.24-5.44-.56-3.322-1.961-6.16-4.16-8.56-1.84-2-1.76-2.16.48-.762 3.482 2.202 5.36 6.32 5.36 11.802 0 2.842-.201 3.802-1.081 5.722-1.36 3.001-3.002 5.081-5.44 6.841-2.042 1.52-5.12 3.002-4.64 2.282zM31.2 81.802c-.282-.32-.64-.522-.8-.4-.16.121-.282-.24-.282-.8s.122-.88.32-.762c.202.122.362.4.362.64s.282.8.682 1.2c.361.4.56.72.441.72-.121 0-.441-.282-.72-.602zm36.682-4.88c-.362-.32-.362-6.282-.042-10.24l.282-3.04 1.241.24c3.562.681 5.802 2.8 6.122 5.881.201 1.722.121 1.882-1.84 3.962-1.12 1.2-2.042 2.361-2.042 2.56 0 .8-3.081 1.321-3.721.64zm3.641-2.122c.72-.442 1.6-1.402 1.962-2.16.601-1.28.601-1.44-.16-2.88-.8-1.562-2.122-2.72-3.562-3.12-.8-.24-.841-.08-1.2 4.202-.201 2.441-.281 4.48-.201 4.601.4.4 1.961.08 3.161-.64zM68.56 51.12c.16-2.042.362-4.96.522-6.442l.24-2.72 1.2.282c2.521.56 6.121 2.522 7.881 4.32 1.882 1.962 2.88 2.24 4.32 1.2 1.482-1.04 1.482-.362 0 .762-.72.56-1.961 1.12-2.72 1.28-1.36.24-1.481.16-2.761-1.84-1.082-1.6-1.802-2.24-3.52-3.002-3.92-1.76-4-1.642-4.4 5.36-.122 2.48-.4 4.48-.64 4.48s-.282-1.402-.122-3.68"/><path fill="#A15525" d="M71.322 53.36c-.24-.64.16-7.002.48-7.28.08-.122.441-.08.8.08.56.202.64.682.4 3.36-.16 1.68-.362 3.402-.442 3.802-.282.841-.922.88-1.242.041zm10.518-2.08c.682-.362 1.68-1.04 2.202-1.482 1.721-1.401 5.161-5.92 5.161-6.8 0-1.161-1.961-4.16-3.641-5.561-1.562-1.36-4.042-2.48-8.64-4-1.84-.602-3.402-1.242-3.482-1.36-.08-.16-.282-1.162-.442-2.24-.32-2.202.32-2.4 1.402-.4.56 1.001 1.36 1.401 5.562 2.8 7.401 2.521 8.32 3.161 10.041 7.2.96 2.201 1.04 3.881.202 4.56-.32.281-.602.72-.602.96-.041 1.2-3.561 4.88-5.6 5.92-2.361 1.2-4.201 1.52-2.16.4zm-25.478-.56c-.8-1.482-.682-4.122.281-5.402 1.162-1.561 3.28-2.921 4.602-2.921 1.801 0 1.68.64-.24 1.36-2.72 1.04-4.202 2.64-4.202 4.48 0 1.001.282 1.84.88 2.441l.842.922h-.842c-.48 0-1.081-.4-1.321-.88m-10.72-4.758c-.042-1.562 2.24-5.84 3.721-6.96 2.522-1.92 6.362-3.402 10.362-3.92 4.361-.64 5.36-.24 1.2.4-5.322.841-10.602 3.52-12.64 6.361-.72.96-1.6 2.522-1.962 3.482-.56 1.401-.681 1.52-.681.64z"/><path fill="#783E1B" d="M59.92 114.4c-2.4-.4-5.882-2.16-8.88-4.4-1.92-1.482-2.202-1.802-1.6-2.042.442-.121 1.562.042 2.522.442 1.721.682 1.84.682 3.2-.16.841-.48 1.241-.602 1.04-.24-.24.4-.16.48.361.282.362-.16.602-.122.48.041-.361.64 1.402 1.76 2.362 1.52.521-.121 1.92-.041 3.081.24 2.762.602 4.922.56 6.202-.121 1.2-.64 3.92-3.242 3.802-3.642-.042-.16.361-.64.921-1.04.522-.442.842-.88.72-1.04-.121-.122.202-.24.762-.24 1.2 0 2-1.04 2.72-3.52.681-2.16 2.4-4.202 4.441-5.2 1.722-.842 2.762-.8 2.762.16 0 .32.16.56.362.56.72 0 3.6-1.76 3.401-2.08-.121-.16 0-.32.24-.32s.32-.202.202-.4c-.122-.24.041-.522.361-.64.362-.122.56-.4.442-.56-.122-.16.48-.922 1.322-1.642.8-.72 1.44-1.481 1.401-1.641-.08-.16.202-.362.602-.4 1.52-.122.96.16 6.96-3.6 1.84-1.162 3.2-2.522 4.16-4.16.72-1.242 1.76-.042 1.76 2.041 0 2.282-1.882 4.602-8.122 10.042-6.16 5.36-9.68 7.722-13.68 9.12-3.76 1.36-4.681 2-10.4 7.36-2.4 2.282-5.081 4.522-5.881 4.922-1.6.8-4.522.921-8 .361zM36.602 98.8c-1.082-.842-2.042-1.722-2.122-1.962s.602-.361 1.6-.281c.96.08 2.122.16 2.64.16.762.08.88.281.88 1.881 0 2.24-.362 2.24-3.002.202zm2.678-4.64c-.282-.32-.4-.56-.24-.56.122 0-.16-.362-.682-.8-1.081-.88-.521-1.04 1.04-.32 1.002.442 1.2.96.682 1.76-.202.362-.442.32-.8-.08"/><path fill="#783E1B" d="M94.602 86.842c0-.8.441-1.28 2.201-2.32 1.2-.72 2.32-1.322 2.48-1.322.8 0 .122.8-2.201 2.682-2.442 1.961-2.522 2-2.48.96m8.918-22.72c-1.082-2.8-1.002-3.322.48-2.522.762.4.8.362.56-.56-.16-.762-.08-1.04.362-1.04.48 0 .601.682.64 3.402.08 4.281-.56 4.48-2.042.72m-.88-9.6c-.96-.96-1.002-1.082-.442-1.722.522-.56.56-.762.122-.96-.282-.122-.08-.16.48-.122.72.042 1.04.362 1.12 1.002.08.48.32.8.522.64.201-.122.32.32.281 1.002-.121 1.52-.681 1.561-2.08.16zM68.762 53.52c-.122-.88-.042-1.36.16-1.162.201.202.281.842.201 1.482-.121 1.082-.16 1.04-.361-.32m36.678-16.4c-.362-.202-.64-.602-.64-.922s-1.12-1.68-2.442-3.001c-1.36-1.36-2.361-2.522-2.24-2.64.48-.522 6.682 4.361 7.482 5.881.32.522.202.72-.56.842-.522.122-1.242.042-1.6-.16"/></svg>
