<?xml version="1.0" encoding="UTF-8"?>
<svg id="Layer_2" xmlns="http://www.w3.org/2000/svg" width="326.13" height="326.13"
    viewBox="0 0 326.13 326.13">
    <defs>
        <style>
            .cls-1,.cls-2{stroke-width:0px;}.cls-1,.cls-3{fill:#0019fc;}.cls-2{fill:#fff;}.cls-3{stroke:#1d1d1b;stroke-miterlimit:10;stroke-width:.25px;}</style>
    </defs>
    <g id="Livello_1">
        <circle class="cls-2" cx="163.06" cy="162.2" r="138.25" />
        <path class="cls-3"
            d="m173.88,110.41v48.13h46.15v20.75h-46.15v48.58h-21.64v-48.58h-46.15v-20.75h46.15v-48.13h21.64Z" />
        <path class="cls-1"
            d="m163.06,0C73.01,0,0,73.01,0,163.06s73.01,163.08,163.06,163.08,163.08-73.01,163.08-163.08S253.12,0,163.06,0Zm99.53,199.55c-29.48,15.66-48.1,33.54-62.98,63.64-.15.26-.27.51-.42.77v.02c-7.02,12.7-20.47,20.91-35.38,21.11-.64.04-1.32.02-1.96-.02-.26,0-.49-.02-.75-.02-15.08-.68-28.04-9.47-34.58-22.15-15.66-29.48-33.54-48.12-63.64-62.98-.26-.13-.51-.27-.77-.42h-.02c-28.75-15.86-27.74-57.79,1.33-72.92,29.48-15.68,48.12-33.55,62.98-63.64.15-.26.27-.51.42-.77v-.02c6.71-12.03,18.88-20.01,33.02-20.98.79-.07,1.57-.11,2.36-.13.64-.05,1.32,0,1.96.02.26.02.51.02.75.02,15.08.68,28.04,9.47,34.58,22.15,15.68,29.48,33.55,48.1,63.64,62.98.26.15.51.27.77.42h.02c12.85,7.2,21.09,20.49,21.13,35.84.02,15.42-8.79,30.12-22.46,37.08Z" />
    </g>
</svg>