<svg xmlns="http://www.w3.org/2000/svg" width="398" height="398" fill="none"><path fill="#111" stroke="#111" stroke-width="7.054" d="M198.996 7.527h.008c105.747 0 191.472 85.725 191.472 191.473v.007c0 105.747-85.725 191.473-191.472 191.473h-.008c-105.747 0-191.472-85.726-191.472-191.473V199C7.524 93.252 93.249 7.527 198.996 7.527Z"/><path fill="url(#a)" fill-opacity=".7" d="M199.004 4h-.008c-107.695 0-195 87.304-195 195v.007c0 107.695 87.305 194.999 195 194.999h.008c107.695 0 194.999-87.304 194.999-194.999V199c0-107.696-87.304-195-194.999-195"/><path stroke="url(#b)" stroke-width="7.143" d="M199.004 4h-.008c-107.695 0-195 87.304-195 195v.007c0 107.695 87.305 194.999 195 194.999h.008c107.695 0 194.999-87.304 194.999-194.999V199c0-107.696-87.304-195-194.999-195Z"/><path fill="#fff" fill-rule="evenodd" d="M167.8 38.56C92.492 53.064 35.606 119.32 35.606 198.861S92.492 344.659 167.8 359.165v-15.3c-66.971-14.276-117.2-73.774-117.2-145.003S100.828 68.136 167.8 53.859zm62.401 15.36V38.612C305.37 53.23 362.115 119.42 362.115 198.862S305.37 344.495 230.201 359.111v-15.306c66.831-14.382 116.921-73.813 116.921-144.943s-50.09-130.56-116.921-144.943" clip-rule="evenodd"/><path fill="#fff" d="M222.119 193.407q18.685 3.56 28.985 13.735 10.3 9.92 10.301 25.435v16.279q0 18.567-13.415 30.013-13.414 11.192-35.213 11.192h-5.03v25.944H190.5v-25.944h-5.27q-14.373 0-25.392-6.359-11.019-6.613-17.247-18.314-5.988-11.954-5.988-27.47h17.247q0 15.77 8.623 25.69 8.863 9.666 23.236 9.665h26.589q14.133 0 22.757-6.613 8.623-6.867 8.623-17.804v-16.279q0-8.648-6.467-14.752-6.228-6.105-17.247-7.885l-43.118-7.631q-18.206-3.306-28.266-13.735-10.061-10.428-10.061-26.198v-13.735q0-18.568 12.935-29.505 13.174-11.191 34.734-11.191h4.312V82.001h17.247v25.944h5.509q20.362 0 32.818 13.226 12.456 12.972 12.456 34.337h-17.247q0-13.989-7.665-22.383-7.666-8.393-20.362-8.393h-27.068q-13.655 0-21.798 6.613-8.145 6.359-8.145 17.296v13.735q0 8.902 5.989 15.007 6.228 6.103 17.007 8.139z"/><defs><radialGradient id="a" cx="0" cy="0" r="1" gradientTransform="matrix(0 411.151 -289.409 0 199.419 60.946)" gradientUnits="userSpaceOnUse"><stop offset=".031" stop-color="#3A3A3A"/><stop offset="1" stop-color="#1C1C1C"/></radialGradient><linearGradient id="b" x1="199" x2="199" y1=".321" y2="397.686" gradientUnits="userSpaceOnUse"><stop stop-color="#fff"/><stop offset="1" stop-color="#111"/></linearGradient></defs></svg>