<svg xmlns="http://www.w3.org/2000/svg" width="162" height="162" fill="none"><path fill="#00F" d="M81.27 161.43c44.437 0 80.46-36.023 80.46-80.46S125.707.51 81.27.51.81 36.533.81 80.97s36.023 80.46 80.46 80.46"/><path fill="#fff" d="M126.84 32.51a66.37 66.37 0 0 0-43.28-16h-.23l-2.88.11-2.64.12a67.2 67.2 0 0 0-41.44 19.22 66.37 66.37 0 0 0-19.23 41.49l-.23 2.65-.11 2.88a67.22 67.22 0 0 0 16 43.51c.338.406.77.722 1.26.92.47.22.981.336 1.5.34h.12a4 4 0 0 0 2.76-1.15l88.4-88.4c.399-.393.716-.862.93-1.38.197-.516.276-1.07.23-1.62a3.2 3.2 0 0 0-.35-1.49 3.3 3.3 0 0 0-.81-1.15zm-6 3.22L83.77 72.68v-50a61 61 0 0 1 37.07 13zM73.07 77.17h-49.6a60.25 60.25 0 0 1 15.2-34.42zm0 6.22-37.05 37.06a60.83 60.83 0 0 1-12.89-37.06zm4.49-60.32v49.61L43.14 38.26a60.52 60.52 0 0 1 34.42-15.19"/></svg>