<svg xmlns="http://www.w3.org/2000/svg" width="50" height="50" fill="none"><circle cx="25" cy="25" r="25" fill="url(#a)"/><path fill="#fff" d="M15.398 31.531H11.84c.29 5.555 4.937 10.383 13.178 10.383 8.204 0 13.432-4.502 13.432-10.31 0-4.139-3.013-8.677-10.201-11.145-4.683-1.598-6.462-3.63-6.462-5.663 0-1.888 1.524-3.885 4.647-3.885 3.485 0 7.405 2.723 7.696 6.208h3.521c-.363-5.627-5.845-9.548-12.815-9.548-7.224 0-12.67 4.211-12.67 10.165 0 4.393 2.905 8.459 9.875 10.89 4.792 1.562 6.789 3.522 6.789 5.99 0 2.18-1.561 3.994-4.938 3.994-4.21 0-8.24-2.94-8.494-7.079m11.108-8.06c7.224 2.433 8.386 6.064 8.386 8.314 0 2.76-1.815 5.192-3.993 5.809.762-.726 1.343-2.324 1.343-3.848 0-2.614-1.742-5.773-8.204-8.023-7.442-2.541-8.35-6.027-8.35-8.096 0-2.94 1.888-5.3 4.247-6.026-.907 1.053-1.56 2.577-1.56 4.03 0 2.686 2.214 5.88 8.131 7.84"/><defs><radialGradient id="a" cx="0" cy="0" r="1" gradientTransform="rotate(-90 41.498 16.456)scale(80.1336)" gradientUnits="userSpaceOnUse"><stop stop-color="#FFD232"/><stop offset="1" stop-color="#FF6D6D"/></radialGradient></defs></svg>