<svg width="38" height="38" viewBox="0 0 38 38" fill="none" xmlns="http://www.w3.org/2000/svg">
<g clip-path="url(#clip0_5768_4234)">
<path d="M37.5 19C37.5 23.9672 35.543 28.476 32.357 31.7994C32.2658 31.8945 32.1733 31.9883 32.0808 32.0808C31.9883 32.1733 31.8998 32.2592 31.8086 32.3477C31.1571 32.9728 30.4608 33.5503 29.7247 34.0749C29.3441 34.3471 28.9517 34.6047 28.5486 34.8479C25.7617 36.5314 22.4939 37.5 19 37.5C15.5061 37.5 12.2475 36.534 9.46193 34.8532C9.05889 34.6114 8.66511 34.3537 8.28321 34.0801C7.54718 33.5569 6.85079 32.9807 6.20064 32.357C6.01432 32.1786 5.83196 31.9963 5.65357 31.8099C2.461 28.4865 0.5 23.9725 0.5 19C0.5 14.0275 2.57068 9.26636 5.91918 5.91918C9.26636 2.57068 13.8914 0.5 19 0.5C24.1086 0.5 28.7336 2.57068 32.0808 5.91918C35.4293 9.26636 37.5 13.8914 37.5 19Z" fill="#4281A4"/>
<mask id="mask0_5768_4234" style="mask-type:luminance" maskUnits="userSpaceOnUse" x="0" y="0" width="38" height="38">
<path d="M37.5 19C37.5 23.9672 35.543 28.476 32.357 31.7994C32.2658 31.8945 32.1733 31.9883 32.0808 32.0808C31.9883 32.1733 31.8998 32.2592 31.8086 32.3477C31.1571 32.9728 30.4608 33.5503 29.7247 34.0749C29.3441 34.3471 28.9517 34.6047 28.5486 34.8479C25.7617 36.5314 22.4939 37.5 19 37.5C15.5061 37.5 12.2475 36.534 9.46193 34.8532C9.05889 34.6114 8.66511 34.3537 8.28321 34.0801C7.54718 33.5569 6.85079 32.9807 6.20064 32.357C6.01432 32.1786 5.83196 31.9963 5.65357 31.8099C2.461 28.4865 0.5 23.9725 0.5 19C0.5 14.0275 2.57068 9.26636 5.91918 5.91918C9.26636 2.57068 13.8914 0.5 19 0.5C24.1086 0.5 28.7336 2.57068 32.0808 5.91918C35.4293 9.26636 37.5 13.8914 37.5 19Z" fill="white"/>
</mask>
<g mask="url(#mask0_5768_4234)">
<g opacity="0.2">
<path d="M4.81982 33.1937L32.9927 5.01953" stroke="#F6E8D7" stroke-width="0.792857" stroke-linecap="round" stroke-linejoin="round"/>
<path d="M4.48291 4.47656L33.8715 33.8651" stroke="#F6E8D7" stroke-width="0.792857" stroke-linecap="round" stroke-linejoin="round"/>
<path d="M19.0001 -0.425781V41.1358" stroke="#F6E8D7" stroke-width="0.792857" stroke-linecap="round" stroke-linejoin="round"/>
<path d="M0.178955 13.1475L29.5675 42.5374" stroke="#F6E8D7" stroke-width="0.792857" stroke-linecap="round" stroke-linejoin="round"/>
<path d="M-2.17847 19.001H39.3844" stroke="#F6E8D7" stroke-width="0.792857" stroke-linecap="round" stroke-linejoin="round"/>
<path d="M19 31.9813C26.1689 31.9813 31.9804 26.1698 31.9804 19.0009C31.9804 11.832 26.1689 6.02051 19 6.02051C11.8312 6.02051 6.01965 11.832 6.01965 19.0009C6.01965 26.1698 11.8312 31.9813 19 31.9813Z" stroke="#F6E8D7" stroke-width="0.792857" stroke-linecap="round" stroke-linejoin="round"/>
</g>
<path d="M19.0026 31.9803L6.02356 31.9883L12.5171 25.4961L19.0026 31.9803Z" stroke="#F6E8D7" stroke-width="0.792857" stroke-linecap="round" stroke-linejoin="round"/>
<path d="M31.987 18.9961C31.987 22.5824 30.5374 25.8265 28.1866 28.1774L19.0013 18.9961V6.01172C26.1754 6.01172 31.9883 11.826 31.9883 18.9961H31.987Z" stroke="#F6E8D7" stroke-width="0.792857" stroke-linecap="round" stroke-linejoin="round"/>
<path d="M19.0001 6.01172C11.8273 6.01172 6.01306 11.8247 6.01306 18.9961H19.0001V6.01172Z" stroke="#F6E8D7" stroke-width="0.792857" stroke-linecap="round" stroke-linejoin="round"/>
<path d="M6.01306 18.9961L19.0027 31.9805H31.9818L31.9871 31.9765L19.0001 18.9961H6.01306Z" stroke="#F6E8D7" stroke-width="0.792857" stroke-linecap="round" stroke-linejoin="round"/>
</g>
</g>
<defs>
<clipPath id="clip0_5768_4234">
<rect width="37" height="37" fill="white" transform="translate(0.5 0.5)"/>
</clipPath>
</defs>
</svg>
