<svg xmlns="http://www.w3.org/2000/svg" width="32" height="32"><g fill="none" fill-rule="evenodd"><circle cx="16" cy="16" r="16" fill="#FFAA1D"/><circle cx="16" cy="16" r="13.538" fill="#242A47"/><circle cx="16" cy="16" r="11.077" fill="#FFF"/><path fill="#242A47" fill-rule="nonzero" d="M16.932 23.749H15.39v-1.752c-1.064-.126-2.256-.602-3.082-1.359l1.009-1.541c.854.672 1.681 1.065 2.578 1.065 1.093 0 1.597-.49 1.597-1.374 0-2.101-4.75-1.92-4.75-5.184 0-1.696 1.009-2.873 2.648-3.181V8.615h1.542v1.78c1.12.154 1.92.715 2.592 1.415l-1.149 1.317c-.644-.588-1.205-.924-2.004-.924-.924 0-1.429.434-1.429 1.289 0 1.933 4.75 1.64 4.75 5.128-.014 1.71-.967 2.985-2.76 3.321z"/></g></svg>