<svg xmlns="http://www.w3.org/2000/svg" width="25" height="24" fill="none"><path fill="#F6F3EC" d="M12.44 24c6.627 0 12-5.373 12-12s-5.373-12-12-12-12 5.373-12 12 5.373 12 12 12"/><path fill="url(#a)" d="M12.43 0a12 12 0 1 0 0 24 12 12 0 0 0 0-24m0 23.05A11 11 0 0 1 1.43 12a11 11 0 0 1 22 0 11 11 0 0 1-11 11.05"/><path stroke="#000" stroke-miterlimit="10" stroke-width=".3" d="M12.44 23.04c6.097 0 11.04-4.943 11.04-11.04S18.537.96 12.44.96 1.4 5.903 1.4 12s4.943 11.04 11.04 11.04Z"/><path fill="#090C13" d="M22.28 12.1v.7q-.015.256-.06.51a9.8 9.8 0 0 1-6.86 8.16q.49.48 1.2 1.11c.28.25 0 .69-.52.69a8 8 0 0 1-4.13-1.4 9.78 9.78 0 0 1-9.16-9.64v-.13A9.72 9.72 0 0 1 5.2 5.51a3.23 3.23 0 0 1 2.56-1.4c2.16 0 4.16 3.09 4.59 6.49a4.13 4.13 0 0 0 2 3.2 4.37 4.37 0 0 0 5.346-.644 4.35 4.35 0 0 0 .884-4.876 3.6 3.6 0 0 1-.27.71 3 3 0 0 1-.36.53c-.22.262-.48.488-.77.67-.474.3-1.02.47-1.58.49a3.15 3.15 0 0 1 1.5-2.82 3.1 3.1 0 0 1 1-.41 4 4 0 0 1 .57-.08 3 3 0 0 1-.67 0 3.2 3.2 0 0 1-.91-.32 3.14 3.14 0 0 1-1.18-1.08v-.05a3.15 3.15 0 0 1-.48-1.58 3.24 3.24 0 0 1 1.61.37c.491.27.907.658 1.21 1.13.269.44.43.936.47 1.45l.06-.35a9.76 9.76 0 0 1 1.5 5.16"/><path stroke="#F6F3EC" stroke-miterlimit="10" stroke-width=".26" d="M6.63 5.11a2.7 2.7 0 0 0-1.45.4 3.23 3.23 0 0 1 2.56-1.4c2.16 0 4.16 3.09 4.59 6.49a4.13 4.13 0 0 0 2 3.2 4.37 4.37 0 0 0 5.346-.644 4.35 4.35 0 0 0 .884-4.876 3 3 0 0 0 .1-.91.6.6 0 0 0 0-.13l.06-.35a9.76 9.76 0 0 1 1.5 5.21v.7a5.35 5.35 0 0 1-5.34 5 5.13 5.13 0 0 1-4.89-2.8 10.6 10.6 0 0 1-.8-3.33c-.75-4-2.57-6.52-4.6-6.52a2.7 2.7 0 0 0-1.45.4 9.74 9.74 0 0 0-2.46 6.59.5.5 0 0 0 0 .13 9.77 9.77 0 0 0 16.277 7.175 9.78 9.78 0 0 0 3.203-6.185"/><path fill="#090C13" stroke="#F6F3EC" stroke-miterlimit="10" stroke-width=".26" d="M20.73 7.37a3 3 0 0 1-.67 0 3.2 3.2 0 0 1-.91-.32 3.14 3.14 0 0 1-1.18-1.08v-.05a3.15 3.15 0 0 1-.48-1.58 3.24 3.24 0 0 1 1.61.37c.491.27.907.658 1.21 1.13.269.44.43.936.47 1.45a1 1 0 0 1-.05.08Z"/><path fill="#090C13" stroke="#F6F3EC" stroke-miterlimit="10" stroke-width=".26" d="M20.73 7.37c.014.307-.02.613-.1.91-.058.244-.15.48-.27.7a3.4 3.4 0 0 1-.36.54c-.22.262-.48.488-.77.67-.474.3-1.02.47-1.58.49a3.15 3.15 0 0 1 1.5-2.82 3.1 3.1 0 0 1 1-.41q.282-.062.57-.08z"/><path fill="#F6F3EC" d="M11.73 10.87a.51.51 0 0 1-.48.51h-.07c-.07-.33-.14-.64-.22-.94a.43.43 0 0 1 .25-.07.5.5 0 0 1 .52.5"/><path fill="#090C13" d="M14.54 19.39h-.11c-.73-.07-1.46 0 2.11 3.2.28.25 0 .69-.52.69a8.92 8.92 0 0 1-5.08-2.06 10.5 10.5 0 0 1-1.68-1.56"/><path stroke="#F6F3EC" stroke-linecap="round" stroke-miterlimit="10" stroke-width=".26" d="M14.54 19.39h-.11c-.73-.07-1.46 0 2.11 3.2.28.25 0 .69-.52.69a8.92 8.92 0 0 1-5.08-2.06 10.5 10.5 0 0 1-1.68-1.56"/><defs><linearGradient id="a" x1=".44" x2="24.44" y1="12" y2="12" gradientUnits="userSpaceOnUse"><stop stop-color="#D1DAF1"/><stop offset=".17" stop-color="#D5D3E8"/><stop offset=".47" stop-color="#E1C1CE"/><stop offset=".83" stop-color="#F5A3A5"/><stop offset=".99" stop-color="#FE9591"/></linearGradient></defs></svg>