<svg xmlns="http://www.w3.org/2000/svg" width="512" height="512" fill="none"><path fill="url(#a)" fill-rule="evenodd" d="M312.485 263.363c24.565-8.572 47.715-23.197 65.409-39.077l.013.027a3.804 3.804 0 0 0 .434-5.082 3.834 3.834 0 0 0-5.027-.966c-17.749 10.611-37.337 19.012-57.417 24.14.6-7.637.473-15.321-.514-22.963-2.27-16.967-8.032-33.921-20.013-46.834-13.27-14.679-35.056-20.165-53.861-14.291-22.592 6.717-41.423 27.07-42.148 51.357-.913 31.981 28.878 58.047 59.193 60.978 3.536.387 7.104.575 10.691.58-5.59 12.216-12.844 23.886-20.605 34.692-23.835-39.316-59.566-71.518-102.038-89.131a176.6 176.6 0 0 0-30.638-9.782c-3.573-.736-6.971-1.392-10.745-1.806a3.86 3.86 0 0 0-2.586.685 3.836 3.836 0 0 0-1.23 4.847 3.84 3.84 0 0 0 1.949 1.827 256.5 256.5 0 0 1 64.471 45.389 245.6 245.6 0 0 1 56.991 83.846c5.708 13.609 23.613 18.587 35.594 9.836a30.6 30.6 0 0 0 5.01-4.644 221 221 0 0 0 28.206-38.056c8.182-13.953 14.922-29.452 18.861-45.572m-53.156 62.331.004.008.309.629a13 13 0 0 0-.313-.637m18.287-78.451c1.876-8.013 2.808-16.16 2.509-24.362-.792-14.719-6.46-35.513-23.962-35.835-15.07-.174-28.931 14.064-24.62 29.185 6.382 22.068 25.44 30.116 46.073 31.012" clip-rule="evenodd"/><path fill="url(#b)" d="M389.539 209.273c1.545 7.199 3.922 11.762 10.866 10.838 5.964-.789 10.88-6.771 10.88-12.752s-4.943-9.849-10.88-8.912c-7.535 1.191-12.128 4.978-10.866 10.826"/><defs><linearGradient id="a" x1="101" x2="411" y1="156" y2="356" gradientUnits="userSpaceOnUse"><stop stop-color="#44BCC3"/><stop offset="1" stop-color="#236D66"/></linearGradient><linearGradient id="b" x1="101" x2="411" y1="156" y2="356" gradientUnits="userSpaceOnUse"><stop stop-color="#44BCC3"/><stop offset="1" stop-color="#236D66"/></linearGradient></defs></svg>