<svg width="497" height="513" fill="none" xmlns="http://www.w3.org/2000/svg"><g filter="url(#a)"><circle cx="240.5" cy="244.5" r="240.5" fill="#fff"/></g><g filter="url(#b)"><circle cx="240.5" cy="244.5" r="204.303" fill="url(#c)"/></g><g filter="url(#d)"><path fill-rule="evenodd" clip-rule="evenodd" d="M215.297 196.145c-1.615 0-2.934-1.312-2.838-2.924 1.512-25.556 22.716-45.813 48.651-45.813h96.766c1.615 0 2.933 1.312 2.838 2.925-1.513 25.555-22.717 45.812-48.652 45.812h-96.765Zm-22.783 157.871c-1.061 2.173-4.157 2.172-5.217-.001L88.72 151.868c-.947-1.941.465-4.203 2.624-4.206l20.411-.028a46.52 46.52 0 0 1 41.881 26.134l33.658 69.034c1.069 2.192 4.193 2.19 5.259-.002l5.727-11.779a2.925 2.925 0 0 1 2.63-1.646h114.475c34.87 0 63.137 28.268 63.137 63.137 0 34.87-28.267 63.137-63.137 63.137H215.297c-1.615 0-2.934-1.312-2.838-2.924 1.512-25.556 22.716-45.813 48.651-45.813H315.385c7.953 0 14.4-6.447 14.4-14.4 0-7.952-6.447-14.399-14.4-14.399H231.389a2.925 2.925 0 0 0-2.628 1.641l-36.247 74.262Z" fill="#fff"/></g><defs><filter id="a" x="-16" y="0" width="513" height="513" filterUnits="userSpaceOnUse" color-interpolation-filters="sRGB"><feFlood flood-opacity="0" result="BackgroundImageFix"/><feColorMatrix in="SourceAlpha" values="0 0 0 0 0 0 0 0 0 0 0 0 0 0 0 0 0 0 127 0" result="hardAlpha"/><feOffset dy="12"/><feGaussianBlur stdDeviation="8"/><feComposite in2="hardAlpha" operator="out"/><feColorMatrix values="0 0 0 0 0.215686 0 0 0 0 0.690196 0 0 0 0 0.4 0 0 0 0.15 0"/><feBlend in2="BackgroundImageFix" result="effect1_dropShadow_45_3197"/><feBlend in="SourceGraphic" in2="effect1_dropShadow_45_3197" result="shape"/><feColorMatrix in="SourceAlpha" values="0 0 0 0 0 0 0 0 0 0 0 0 0 0 0 0 0 0 127 0" result="hardAlpha"/><feOffset dy="6"/><feGaussianBlur stdDeviation="4"/><feComposite in2="hardAlpha" operator="arithmetic" k2="-1" k3="1"/><feColorMatrix values="0 0 0 0 1 0 0 0 0 1 0 0 0 0 1 0 0 0 0.25 0"/><feBlend in2="shape" result="effect2_innerShadow_45_3197"/><feColorMatrix in="SourceAlpha" values="0 0 0 0 0 0 0 0 0 0 0 0 0 0 0 0 0 0 127 0" result="hardAlpha"/><feOffset dy="-4"/><feGaussianBlur stdDeviation="5.5"/><feComposite in2="hardAlpha" operator="arithmetic" k2="-1" k3="1"/><feColorMatrix values="0 0 0 0 0.492917 0 0 0 0 0.704167 0 0 0 0 0.677442 0 0 0 0.25 0"/><feBlend in2="effect2_innerShadow_45_3197" result="effect3_innerShadow_45_3197"/></filter><filter id="b" x="20.197" y="36.197" width="440.606" height="440.606" filterUnits="userSpaceOnUse" color-interpolation-filters="sRGB"><feFlood flood-opacity="0" result="BackgroundImageFix"/><feColorMatrix in="SourceAlpha" values="0 0 0 0 0 0 0 0 0 0 0 0 0 0 0 0 0 0 127 0" result="hardAlpha"/><feOffset dy="12"/><feGaussianBlur stdDeviation="8"/><feComposite in2="hardAlpha" operator="out"/><feColorMatrix values="0 0 0 0 0.215686 0 0 0 0 0.690196 0 0 0 0 0.4 0 0 0 0.15 0"/><feBlend in2="BackgroundImageFix" result="effect1_dropShadow_45_3197"/><feColorMatrix in="SourceAlpha" values="0 0 0 0 0 0 0 0 0 0 0 0 0 0 0 0 0 0 127 0" result="hardAlpha"/><feOffset dy="4"/><feGaussianBlur stdDeviation="4"/><feComposite in2="hardAlpha" operator="out"/><feColorMatrix values="0 0 0 0 0.0860764 0 0 0 0 0.558333 0 0 0 0 0.388321 0 0 0 0.2 0"/><feBlend in2="effect1_dropShadow_45_3197" result="effect2_dropShadow_45_3197"/><feBlend in="SourceGraphic" in2="effect2_dropShadow_45_3197" result="shape"/><feColorMatrix in="SourceAlpha" values="0 0 0 0 0 0 0 0 0 0 0 0 0 0 0 0 0 0 127 0" result="hardAlpha"/><feOffset dy="6"/><feGaussianBlur stdDeviation="4"/><feComposite in2="hardAlpha" operator="arithmetic" k2="-1" k3="1"/><feColorMatrix values="0 0 0 0 1 0 0 0 0 1 0 0 0 0 1 0 0 0 0.25 0"/><feBlend in2="shape" result="effect3_innerShadow_45_3197"/></filter><filter id="d" x="88.42" y="143.408" width="290.102" height="216.241" filterUnits="userSpaceOnUse" color-interpolation-filters="sRGB"><feFlood flood-opacity="0" result="BackgroundImageFix"/><feBlend in="SourceGraphic" in2="BackgroundImageFix" result="shape"/><feColorMatrix in="SourceAlpha" values="0 0 0 0 0 0 0 0 0 0 0 0 0 0 0 0 0 0 127 0" result="hardAlpha"/><feOffset dy="-4"/><feGaussianBlur stdDeviation="4.5"/><feComposite in2="hardAlpha" operator="arithmetic" k2="-1" k3="1"/><feColorMatrix values="0 0 0 0 0.0656945 0 0 0 0 0.716667 0 0 0 0 0.634439 0 0 0 0.52 0"/><feBlend in2="shape" result="effect1_innerShadow_45_3197"/><feColorMatrix in="SourceAlpha" values="0 0 0 0 0 0 0 0 0 0 0 0 0 0 0 0 0 0 127 0" result="hardAlpha"/><feOffset dy="4"/><feGaussianBlur stdDeviation="4.5"/><feComposite in2="hardAlpha" operator="arithmetic" k2="-1" k3="1"/><feColorMatrix values="0 0 0 0 1 0 0 0 0 1 0 0 0 0 1 0 0 0 1 0"/><feBlend in2="effect1_innerShadow_45_3197" result="effect2_innerShadow_45_3197"/></filter><radialGradient id="c" cx="0" cy="0" r="1" gradientUnits="userSpaceOnUse" gradientTransform="rotate(56.725 9.397 173.492) scale(406.577)"><stop stop-color="#23C562"/><stop offset=".554" stop-color="#77D21C"/><stop offset="1" stop-color="#17DCD0"/></radialGradient></defs></svg>