<svg xmlns="http://www.w3.org/2000/svg" width="200" height="200" fill="none"><path fill="#F8F9F0" d="M100 0C44.77 0 0 44.77 0 100s44.77 100 100 100c55.224 0 100-44.771 100-100S155.224 0 100 0"/><path fill="#011023" d="M100 20c-44.182 0-80 35.818-80 80s35.818 80 80 80 80-35.818 80-80-35.818-80-80-80"/><path fill="#F8F9F0" d="M82.565 131.664c3.214 3.424 7.203 5.606 11.971 6.533v-32.532a30 30 0 0 0-2.099-.702 32 32 0 0 0-2.873-.696 126 126 0 0 1-11.349-3.664c-3.732-1.398-7.077-3.272-10.03-5.606q-4.435-3.502-7.066-8.716-2.645-5.214-2.643-13.002 0-7.948 3.03-14.003c2.021-4.046 4.686-7.448 8.004-10.196 3.308-2.754 7.145-4.884 11.5-6.381 4.35-1.508 8.862-2.408 13.526-2.727V28h9.166v11.987c4.664.518 9.045 1.534 13.139 3.03 4.093 1.508 7.7 3.587 10.804 6.23q4.656 3.974 7.616 9.888 2.953 5.92 3.418 14.008H116.61c-.11-4.151-1.397-7.68-3.889-10.59-2.486-2.905-5.491-4.365-9.008-4.365v27.549c1.245.314 2.512.623 3.81.937 1.298.309 2.67.675 4.12 1.088 7.674 2.073 13.573 4.649 17.719 7.706 4.14 3.057 7.202 6.26 9.165 9.574q2.952 4.971 3.502 9.966c.361 3.324.539 6.271.539 8.867 0 2.288-.565 5.156-1.706 8.637s-3.188 6.868-6.14 10.192c-2.958 3.324-6.915 6.287-11.893 8.878-4.973 2.596-11.348 4.145-19.116 4.669v13.227h-9.166v-13.227c-11.605-.827-20.676-4.408-27.199-10.736q-9.8-9.492-11.348-27.863h21.922c-.115 5.92 1.44 10.578 4.643 14.012m6.847-72.691a13.7 13.7 0 0 0-4.507 2.408 11.8 11.8 0 0 0-3.183 4.046c-.774 1.612-1.167 3.502-1.167 5.674 0 3.434 1.084 6.072 3.266 7.94 2.173 1.864 5.748 3.372 10.726 4.513V58.187c-1.775 0-3.481.262-5.135.786m20.132 77.905c2.02-.681 3.837-1.639 5.438-2.879a15.3 15.3 0 0 0 3.958-4.601c1.031-1.806 1.56-3.963 1.56-6.46 0-4.046-1.272-7.077-3.811-9.102q-3.808-3.032-12.976-5.523v29.884c1.858-.204 3.81-.644 5.831-1.319"/><path fill="#011023" d="M104.478 38.806v.738l.743-.738zM107.063 38.806l-2.585 2.58v1.519l4.103-4.099zM110.466 38.806l-5.988 5.983v1.518l7.506-7.501zM113.868 38.806l-9.39 9.385v1.518l10.908-10.903zM117.271 38.806l-12.793 12.788v1.523l14.311-14.311zM120.673 38.806l-16.195 16.19v1.523l17.713-17.713zM124.076 38.806l-19.598 19.598v1.518l21.121-21.116zM127.478 38.806l-23 23v1.518l24.523-24.518zM130.886 38.806l-26.408 26.403v1.518l27.926-27.921zM134.288 38.806l-29.81 29.805v1.518l31.328-31.323zM137.69 38.806l-33.212 33.208v1.518l34.73-34.726zM141.093 38.806l-36.615 36.61v1.518l38.133-38.128zM144.495 38.806l-40.017 40.013v1.517l41.535-41.53zM148.699 38.806h-.801l-43.42 43.415v.806h.717l43.504-43.504zM148.699 41.401l-41.62 41.625h1.518l40.102-40.101zM148.699 44.81l-38.218 38.217h1.524l36.694-36.7zM148.698 48.212l-34.814 34.815h1.523l33.291-33.297zM148.699 51.614l-31.407 31.413h1.518l29.889-29.895zM148.698 55.017l-28.004 28.01h1.518l26.486-26.492zM148.699 58.419l-24.602 24.607h1.518l23.084-23.09zM148.699 61.822l-21.2 21.205h1.518l19.682-19.687zM148.699 68.626l-14.395 14.4h1.518l12.877-12.877zM148.699 72.03l-10.993 10.997h1.518l9.475-9.474zM148.698 75.437l-7.59 7.59h1.524l6.066-6.073zM148.699 78.84l-4.188 4.187h1.523l2.665-2.67z"/></svg>