<svg xmlns="http://www.w3.org/2000/svg" width="64" height="64" fill="none"><circle cx="32" cy="32" r="32" fill="#1F2028"/><mask id="a" width="64" height="64" x="0" y="0" maskUnits="userSpaceOnUse" style="mask-type:alpha"><circle cx="32" cy="32" r="31.5" fill="#1F2028" stroke="#fff"/></mask><g mask="url(#a)"><path fill="#fff" fill-rule="evenodd" d="M32 72.212.96 8.983l8.08-3.966L32 51.788 54.96 5.017l8.08 3.966z" clip-rule="evenodd" opacity=".8"/></g><circle cx="32" cy="32" r="28" fill="url(#b)" opacity=".8"/><circle cx="32" cy="32" r="24" fill="#1F2028"/><path fill="#fff" d="M42.153 21H21.838v4.904h7.705v7.209h4.904v-7.209h7.706z"/><path fill="#fff" d="M32.04 33.88c-6.373 0-11.541-1.008-11.541-2.253 0-1.244 5.167-2.253 11.542-2.253 6.374 0 11.541 1.01 11.541 2.254s-5.167 2.253-11.541 2.253M45 32.004c0-1.605-5.802-2.905-12.96-2.905-7.156 0-12.959 1.3-12.959 2.905 0 1.413 4.5 2.59 10.461 2.852v10.348h4.904V34.859C40.454 34.606 45 33.424 45 32.003"/><defs><linearGradient id="b" x1="59.284" x2="-9.421" y1="48.315" y2="6.99" gradientUnits="userSpaceOnUse"><stop stop-color="#5433FF"/><stop offset=".5" stop-color="#20BDFF"/><stop offset="1" stop-color="#5CFFA2"/></linearGradient></defs></svg>