<?xml version="1.0" encoding="utf-8"?>
<!-- Generator: Adobe Illustrator 25.0.1, SVG Export Plug-In . SVG Version: 6.00 Build 0)  -->
<svg version="1.1" id="Layer_1" xmlns="http://www.w3.org/2000/svg" xmlns:xlink="http://www.w3.org/1999/xlink" x="0px" y="0px"
	 viewBox="0 0 600 600" style="enable-background:new 0 0 600 600;" xml:space="preserve">
<style type="text/css">
	.st0{fill:#2C3851;}
	.st1{fill:#FFFFFF;}
</style>
<circle class="st0" cx="300" cy="300.05" r="300"/>
<g>
	<path class="st1" d="M300,474.12c-28.06,0-54.44-10.93-74.28-30.77l-77.62-77.61c-40.96-40.96-40.96-107.6,0-148.55l38.81-38.81
		c19.84-19.84,46.22-30.77,74.28-30.77h77.62c28.06,0,54.44,10.93,74.28,30.77l38.81,38.81c40.95,40.96,40.95,107.6,0,148.55
		l-77.62,77.61C354.44,463.2,328.06,474.12,300,474.12z M261.19,189.3c-16.92,0-32.83,6.59-44.8,18.56l-38.81,38.81
		c-24.7,24.7-24.7,64.89,0,89.6l77.62,77.61c11.97,11.97,27.88,18.56,44.8,18.56c16.92,0,32.83-6.59,44.8-18.56l77.62-77.61
		c24.7-24.7,24.7-64.89,0-89.6l-38.81-38.81c-11.97-11.97-27.88-18.56-44.8-18.56H261.19z"/>
	<path class="st1" d="M300,418.28c-16.12,0-31.27-6.28-42.67-17.68l-64.62-64.62c-11.38-11.38-17.65-26.53-17.65-42.66
		s6.27-31.28,17.65-42.66l32.31-32.31c11.4-11.4,26.55-17.67,42.66-17.67h64.62c16.12,0,31.27,6.28,42.66,17.67l32.31,32.31
		c11.38,11.38,17.65,26.54,17.65,42.66s-6.27,31.28-17.65,42.66l-64.62,64.62C331.27,412,316.12,418.28,300,418.28z M267.69,241.95
		c-5.17,0-9.83,1.93-13.48,5.58l-32.31,32.31c-3.59,3.59-5.57,8.38-5.57,13.48c0,5.1,1.98,9.89,5.56,13.48l64.62,64.62
		c7.31,7.31,19.66,7.31,26.96,0l64.62-64.63c3.59-3.59,5.57-8.38,5.57-13.48c0-5.11-1.98-9.89-5.57-13.48l-32.31-32.31
		c-3.65-3.65-8.31-5.58-13.48-5.58H267.69z"/>
	<polygon class="st1" points="300,367.04 229.23,296.27 273.63,251.87 326.38,251.87 370.78,296.27 	"/>
</g>
</svg>
