<svg width="571" height="571" viewBox="0 0 571 571" fill="none" xmlns="http://www.w3.org/2000/svg">
<circle cx="285.5" cy="285.5" r="285.5" fill="#FAFAFA"/>
<path fill-rule="evenodd" clip-rule="evenodd" d="M224.125 353.889C217.706 349.116 209.957 345.117 201.389 342.688C192.821 340.259 183.433 339.401 174.253 340.419C165.074 341.437 156.102 344.332 148.275 348.58C140.447 352.828 133.764 358.428 128.546 364.492C123.314 370.543 118.756 377.976 115.703 386.342C112.65 394.707 111.102 404.007 111.442 413.237C111.782 422.467 114.01 431.627 117.67 439.745C121.331 447.865 126.424 454.942 132.087 460.592C137.737 466.255 144.814 471.348 152.933 475.009C161.051 478.668 170.212 480.896 179.442 481.237C188.671 481.576 197.971 480.028 206.337 476.975C214.703 473.923 222.136 469.364 228.187 464.133C234.251 458.914 239.851 452.231 244.099 444.404C248.346 436.577 251.242 427.604 252.26 418.425C253.278 409.245 252.42 399.857 249.99 391.29C247.561 382.721 243.563 374.973 238.79 368.554L254.554 352.789L266.029 364.264H272.547L280.412 356.398V349.881L268.938 338.406L285.598 321.746L302.257 338.406L290.782 349.881V356.398L298.647 364.264H305.165L316.64 352.789L332.404 368.554C327.632 374.973 323.633 382.721 321.204 391.29C318.776 399.857 317.916 409.245 318.934 418.425C319.952 427.604 322.848 436.577 327.096 444.404C331.343 452.231 336.943 458.914 343.007 464.133C349.058 469.364 356.491 473.923 364.857 476.975C373.224 480.028 382.523 481.576 391.753 481.237C400.982 480.896 410.142 478.668 418.261 475.009C426.38 471.348 433.457 466.255 439.107 460.592C444.771 454.942 449.863 447.865 453.524 439.745C457.184 431.627 459.412 422.467 459.752 413.237C460.091 404.007 458.545 394.707 455.491 386.342C452.438 377.976 447.879 370.543 442.647 364.492C437.43 358.428 430.747 352.828 422.919 348.58C415.092 344.332 406.121 341.437 396.941 340.419C387.762 339.401 378.373 340.259 369.805 342.688C361.237 345.117 353.488 349.116 347.069 353.889L331.597 338.392L343.066 326.924V320.406L334.919 312.259H328.402L316.927 323.735L300.262 307.081L387.633 219.711L423 255.078V218.279H459.8L424.432 182.911L459.8 147.543V141.026L451.653 132.879H445.135L285.598 292.417L126.059 132.879H119.541L111.395 141.026V147.543L146.762 182.911L111.395 218.279H148.194V255.078L183.562 219.711L270.933 307.081L254.267 323.735L242.792 312.259H236.275L228.128 320.406V326.924L239.597 338.392L224.125 353.889ZM365.905 434.825C362.308 442.205 363.055 452.431 367.687 459.208C371.943 466.229 380.945 471.138 389.151 470.915C397.358 471.138 406.36 466.229 410.615 459.208C415.247 452.431 415.994 442.205 412.397 434.825L413.293 433.859C420.672 437.477 430.914 436.745 437.703 432.114C444.734 427.862 449.655 418.851 449.43 410.635C449.655 402.421 444.734 393.41 437.703 389.158C430.914 384.527 420.672 383.794 413.293 387.411L412.397 386.447C415.994 379.067 415.247 368.841 410.615 362.063C406.36 355.043 397.358 350.133 389.151 350.356C380.945 350.133 371.943 355.043 367.687 362.063C363.055 368.841 362.308 379.067 365.905 386.447L365.009 387.411C357.631 383.794 347.389 384.527 340.6 389.158C333.569 393.41 328.647 402.421 328.873 410.635C328.647 418.851 333.569 427.862 340.6 432.114C347.389 436.745 357.631 437.477 365.009 433.859L365.905 434.825ZM203.504 459.208C208.136 452.431 208.883 442.205 205.285 434.825L206.181 433.859C213.56 437.477 223.802 436.745 230.59 432.114C237.623 427.862 242.543 418.851 242.319 410.635C242.543 402.421 237.623 393.41 230.59 389.158C223.802 384.527 213.56 383.794 206.181 387.411L205.285 386.447C208.883 379.067 208.136 368.841 203.504 362.063C199.248 355.043 190.246 350.133 182.039 350.356C173.833 350.133 164.831 355.043 160.575 362.063C155.943 368.841 155.196 379.067 158.794 386.447L157.898 387.411C150.519 383.794 140.277 384.527 133.488 389.158C126.456 393.41 121.536 402.421 121.76 410.635C121.536 418.851 126.456 427.862 133.488 432.114C140.277 436.745 150.519 437.477 157.898 433.859L158.794 434.825C155.196 442.205 155.943 452.431 160.575 459.208C164.831 466.229 173.833 471.138 182.039 470.915C190.246 471.138 199.248 466.229 203.504 459.208Z" fill="#DD3300"/>
<path fill-rule="evenodd" clip-rule="evenodd" d="M285.481 132.88L327.36 91L348.099 111.738V181.644L290.665 239.078H280.296L222.863 181.644V111.738L243.601 91L285.481 132.88ZM243.601 105.664L280.297 142.36V209.749L243.601 173.054V105.664ZM290.668 142.36L327.363 105.664V173.054L290.668 209.749V142.36Z" fill="#DD3300"/>
</svg>