<svg xmlns="http://www.w3.org/2000/svg" width="96" height="96" fill="none"><g clip-path="url(#a)"><path fill="#17252A" d="M48 96c26.51 0 48-21.49 48-48S74.51 0 48 0 0 21.49 0 48s21.49 48 48 48"/><path fill="url(#b)" d="M58.298 75.562a.41.41 0 1 1-.817 0L35.302 26.038h7.594a8.19 8.19 0 0 1 7.513 4.905l7.513 17.108 6.41-13.516a8.2 8.2 0 0 1 7.39-4.702h7.103z"/><path fill="#DEF1F3" d="m42.57 45.635-1.43 3.349-.438-1.022-.043.042-7.807-17.107A8.55 8.55 0 0 0 25.178 26h-8.004l23.069 49.482a.42.42 0 0 0 .571.244.37.37 0 0 0 .245-.245l7.634-16.33z"/></g><defs><linearGradient id="b" x1="35.302" x2="78.826" y1="51.019" y2="51.019" gradientUnits="userSpaceOnUse"><stop offset=".23" stop-color="#277F7A"/><stop offset=".75" stop-color="#3BADA7"/></linearGradient><clipPath id="a"><path fill="#fff" d="M0 0h96v96H0z"/></clipPath></defs></svg>