<svg xmlns="http://www.w3.org/2000/svg" viewBox="0 0 64 64"><path fill="#fff" d="M32 64c17.6731 0 32-14.3269 32-32C64 14.3269 49.6731 0 32 0 14.3269 0 0 14.3269 0 32c0 17.6731 14.3269 32 32 32Z"/><path fill="#78350F" fill-rule="evenodd" d="M23.7609 20.5679c-.5374-.3371-1.1276-.5705-1.7441-.6846-.6165-.1141-1.2329-.1089-1.8336.0207-.5955.1297-1.154.3735-1.644.721-.4901.3475-.9011.7987-1.2067 1.3174-.3056.5187-.5058 1.0996-.5849 1.7116-.079.612-.0368 1.2344.1265 1.8412.2687 1.0063 1.5123 1.1982 2.3659.5861l2.1762-1.556 2.1814-1.5611c.8536-.6121 1.0538-1.8361.1633-2.3963Zm23.0057 1.3745c-.3056-.5187-.7166-.9647-1.2066-1.3174-.4901-.3475-1.0486-.5965-1.644-.721-.5955-.1296-1.2225-.1348-1.8337-.0207-.6165.1141-1.2067.3475-1.7441.6846-.8905.5602-.6903 1.7842.1633 2.3963l2.1815 1.5611 2.1761 1.556c.8537.6121 2.0972.4202 2.3659-.5861.1634-.6068.2055-1.2344.1265-1.8412-.0791-.612-.2793-1.1878-.5849-1.7116ZM33.8149 38.7985c-1.0433-.3527-2.192-.3527-3.2353 0-.5796.197-1.0854.5031-1.0538.9647.058.7054 1.1803 1.9138 1.9918 2.1628.4953.1504.8061.14 1.3594 0 .8115-.2075 1.9391-1.4574 1.9918-2.1628.0369-.4616-.4743-.7677-1.0539-.9647Zm-5.5588-2.2716c-.2898-.3838-.6534-.7053-1.0644-.9439-.411-.2386-.8642-.389-1.3331-.4409-.469-.0519-.9485-.0104-1.4016.1297-.4532.14-.88.3682-1.2541.6794s-.685.695-.9168 1.1255c-.3847.721.2265 1.4782 1.0485 1.5716l2.0761.2334 2.0919.2386c.822.0933 1.5965-.5031 1.3858-1.2915-.1265-.4772-.3425-.918-.6323-1.3019Zm12.8675-.6487c-.3741-.3112-.8009-.5394-1.2541-.6794-.4531-.1401-.9326-.1816-1.4016-.1297-.4689.0519-.9221.2023-1.3331.4409-.411.2386-.7745.5601-1.0644.9439-.2898.3839-.5058.8247-.6323 1.3019-.2107.7884.5638 1.3848 1.3806 1.2915l2.0918-.2386 2.0814-.2334c.822-.0934 1.4332-.8506 1.0485-1.5716-.2318-.4305-.5479-.8143-.9168-1.1255Z" clip-rule="evenodd"/><path fill="#78350F" fill-rule="evenodd" d="M51.0087 30.9c1.7125-1.8828 2.7506-4.3775 2.7189-7.1109-.0158-1.5145-.3688-3.0186-1.038-4.3931-1.8653-3.8588-6.5865-6.8723-11.4183-5.8661-.1586.0337-.3568.0851-.5839.1515-.7187.2111-1.3789.5741-1.9612 1.0389-1.2904 1.0306-3.6621 1.7209-6.3752 1.7209-.0516 0-.1027-.0005-.1538-.001h-.1539c-2.7126 0-5.0848-.6909-6.3752-1.721-.5822-.4652-1.2425-.8278-1.9612-1.0389-.2271-.0669-.4252-.1177-.5838-.1514-4.8313-1.0062-9.5525 2.0072-11.4178 5.8661-.6692 1.3744-1.0223 2.8786-1.0381 4.3931-.0316 2.7333 1.0064 5.2281 2.7189 7.1109.1476.1659.2161.389.1792.6016-1.1645 6.5507.5533 11.9396 4.0889 15.7778 3.7148 4.03 9.1631 6.0372 14.4481 6.1461h.0949c.0052.0005.0105.0005.0158.0005h.079c5.285-.1089 10.7334-2.1161 14.4482-6.1461 3.5356-3.8381 5.2534-9.2271 4.0889-15.7778-.0369-.2126.0321-.4352.1796-.6011Zm-3.093-1.1359c-.2634.2127-.3794.555-.3003.8817 2.7452 11.4366-4.3102 18.1118-12.4143 19.5433h-.0052c-.7799.14-1.5702.2282-2.3659.2697-.0474 0-.1001.0052-.1475.0052-.1476.0104-.3004.0104-.4479.0156h-.0369c-.0037-.0006-.0079-.0006-.0105-.0006h-.0264c-.1475-.0051-.3003-.0051-.4479-.0155-.0474 0-.1001-.0052-.1475-.0052-.7957-.0415-1.586-.1297-2.3659-.2697h-.0052c-8.1041-1.4315-15.1595-8.1067-12.4143-19.5433.0791-.3267-.0369-.6691-.3003-.8817-1.7494-1.4004-2.8559-3.5477-2.8296-5.9491.0106-1.0892.2688-2.168.743-3.1535 1.3805-2.8578 4.8529-4.9376 8.1145-4.2582.3821.0783 1.4064.4108 2.4044.8786.362.1696.7018.3818 1.0201.6219 1.3073.9875 3.6247 1.6447 6.2661 1.6473 2.6415-.0016 4.9589-.6587 6.2662-1.6468.3182-.2401.6576-.4522 1.0201-.6219.9974-.4678 2.0218-.7997 2.4043-.8786 3.2616-.6794 6.734 1.4004 8.1146 4.2583.4742.9854.7324 2.0642.7429 3.1534.0264 2.4015-1.0802 4.5487-2.8295 5.9491h-.0011Z" clip-rule="evenodd"/></svg>