<svg xmlns="http://www.w3.org/2000/svg" width="32" height="32" fill="none"><path fill="#00F" d="M16 32C7.163 32 0 24.855 0 16.04v-.08C0 7.147 7.163 0 16 0s16 7.145 16 15.96v.08C32 24.855 24.837 32 16 32"/><path fill="#212121" d="M18.714 23.905q.009-.017.017-.03c.063-.17.224-.209.368-.258.41-.14.762-.377 1.087-.661q.161-.127.297-.28c.214-.235.324-.492.274-.826-.118-.763-.238-1.524-.328-2.29-.09-.75-.178-1.5-.232-2.254a56 56 0 0 1-.124-2.066c-.02-.503-.029-1.007-.058-1.51-.025-.437-.03-.876-.101-1.31-.04-.248-.08-.273-.32-.184-.35.126-.671.305-.977.513-.4.271-.743.605-1.059.967q-.014.02-.029.036l-.014.016q-.031.03-.06.06l-.036.047q-.01.017-.024.03-.025.03-.049.06c-.043.066-.098.125-.14.192l-.04.065a.7.7 0 0 0-.08.129c-.022.037-.05.074-.07.113-.027.051-.06.098-.088.147q-.029.05-.053.103-.007.019-.018.036a2 2 0 0 0-.206.41l-.028.058q-.022.053-.043.107a8 8 0 0 0-.616 2.378c-.055.56-.093 1.123-.056 1.689.03.471.049.945.07 1.419.006.131.042.26.033.392 0 .175-.013.352.013.527.014.105.023.243-.084.284-.116.046-.165-.088-.214-.171-.21-.357-.335-.743-.425-1.143a8.5 8.5 0 0 1-.196-2.147c.005-.16.042-.32.029-.483-.005-.11.034-.217.03-.327q0-.025.002-.05 0-.026.004-.051c.075-.562.174-1.119.337-1.663.094-.282.178-.567.305-.839.212-.497.46-.976.763-1.424q.36-.538.831-.978c.105-.097.136-.197.094-.336-.092-.305-.166-.613-.41-.846a1.23 1.23 0 0 0-.653-.325c-.216-.038-.386.045-.526.202-.137.156-.248.33-.357.506s-.217.353-.373.494c-.236.211-.5.293-.812.21-.152-.04-.299-.1-.438-.169-.346-.17-.669-.014-.897.235-.281.308-.308.678-.261 1.065.009.07.03.137.036.208.002.04-.002.081.018.119.013.018.02-.018.006-.004q-.002.002-.011-.009c-.011-.016-.011-.036-.011-.056.062-.511.467-.89.986-.92.101-.005.203-.01.302.008.084.014.154.052.185.137.03.083-.018.145-.072.2-.113.12-.254.198-.392.284-.192.123-.357.27-.379.516-.012.146.02.29.02.435 0 .087.076.076.136.081.301.027.604.038.903.087q.33.054.645.167c.101.034.2.072.29.128.047.029.1.061.085.128-.013.063-.067.09-.121.1a4 4 0 0 1-.526.052c-.703.025-1.408.036-2.11.117-.327.026-.65.084-.972.15-.073.015-.12.058-.122.134-.001.226-.032.456.073.669.069.132.188.154.319.141.06-.007.117-.024.177-.033.29-.061.577-.104.856.053a.83.83 0 0 1 .382.432q.135.341.134.708c-.005.494.004.987.063 1.477.03.239.11.461.23.667.03.049.059.125.127.109.06-.015.055-.093.06-.143.035-.282-.003-.562-.038-.843-.04-.332.004-.643.21-.918.145-.115.218-.088.283.107-.002.38.076.752.11 1.128.03.313.044.625-.066.927a.65.65 0 0 1-.196.3c-.243.197-.538.177-.794-.067-.306-.29-.446-.669-.525-1.07a6 6 0 0 1-.096-1.218c0-.253-.01-.504-.066-.752-.052-.228-.116-.27-.35-.262-.112.003-.22.025-.33.041-.925.134-1.239-.592-1.155-1.17.009-.059.058-.136.007-.17-.056-.039-.12.03-.176.057a.7.7 0 0 0-.219.184c-.087.102-.062.217-.047.331.024.167.087.32.138.477.127.375.317.72.513 1.061 1 1.741 2.1 3.422 3.18 5.114.11.173.244.334.36.504.228.336.558.463.946.483.203.01.402-.026.603-.045.366-.037.732-.08 1.102-.074.125.001.254.01.355.1a.1.1 0 0 1 .03.026c.043.038.021.074-.006.105a.7.7 0 0 1-.24.182c-.452.192-.913.358-1.4.429-.4.06-.797.018-1.181-.116a1.5 1.5 0 0 1-.61-.41 5.5 5.5 0 0 1-.434-.562 30 30 0 0 1-1.042-1.598 85 85 0 0 0-1.232-1.961c-.479-.743-.932-1.5-1.336-2.287a5 5 0 0 1-.445-1.139c-.073-.309-.107-.618.036-.918.022-.045.009-.076-.027-.105q-.036-.028-.067-.061a4.7 4.7 0 0 1-1.19-1.733c-.2-.51-.264-1.034-.108-1.571.055-.192.14-.367.265-.524a.99.99 0 0 1 1.156-.324q.04.016.092.034c.02-.06-.018-.1-.034-.142-.18-.45-.334-.91-.432-1.385a2.3 2.3 0 0 1-.048-.647c.03-.361.2-.633.54-.777.375-.16.77-.244 1.174-.286.134-.014.257.036.384.07q.25.068.486.17c.26.115.393.317.425.595.03.252.03.503.035.756.003.18.014.363.021.544.002.043.008.076.066.08.161.005.322.021.483.023.194.002.281-.067.341-.257.062-.193.078-.396.112-.594.039-.22.102-.432.222-.624.237-.38.587-.519 1.021-.484q.09.01.182.02c.003 0 .007-.006.022-.015-.011-.15-.002-.304.041-.454.062-.208.165-.388.337-.526a.75.75 0 0 1 .915-.036c.096.065.181.145.265.226q.075.075.152.148c.102.094.214.103.335.038.107-.058.201-.135.294-.213.15-.128.297-.258.46-.37.21-.147.435-.257.689-.3a.92.92 0 0 1 .603.09c.323.177.473.511.404.902a3 3 0 0 1-.125.452c-.038.11-.072.22-.092.334a.7.7 0 0 0 0 .255.36.36 0 0 0 .219.287c.12.055.24.107.359.165.643.316.944 1.021.728 1.704a.8.8 0 0 1-.161.306c-.033.036-.05.067-.022.119.14.26.169.548.198.833.05.508.07 1.016.085 1.526q.042 1.573.163 3.143c.074.94.185 1.878.315 2.81.076.545.152 1.089.24 1.633.088.548-.062 1.017-.441 1.419-.46.486-.986.88-1.614 1.124q-.107.04-.218.065a.55.55 0 0 1-.328-.022c-.187-.068-.25-.195-.2-.394.006.004.012-.005.013-.014"/><path fill="#C89D5D" d="M17.838 24.148c-.379-.116-.763-.04-1.143-.018-.252.014-.502.052-.754.076a1.7 1.7 0 0 1-.453-.037.99.99 0 0 1-.638-.4c-.121-.167-.246-.332-.364-.502-.504-.72-.95-1.476-1.415-2.223-.384-.616-.783-1.225-1.165-1.843-.386-.628-.76-1.264-1.068-1.934-.036-.078-.076-.154-.092-.239-.004-.163-.09-.305-.113-.466a.9.9 0 0 1 .011-.387c.12-.18.317-.237.493-.327.045.047.018.085.011.12a1.4 1.4 0 0 0-.02.57c.083.441.39.71.84.729.148.005.29-.018.436-.042q.134-.023.272-.025c.116-.002.19.056.233.159a1.3 1.3 0 0 1 .076.323c.03.232.03.463.035.694.009.358.02.716.087 1.069.065.341.176.661.391.94.087.113.19.21.321.27.241.114.49.048.638-.173.114-.168.15-.361.165-.558a3.6 3.6 0 0 0-.042-.769c-.04-.294-.085-.589-.078-.887.02-.065.03-.137.089-.18.045-.033.049-.057-.005-.08.1-.073.215-.1.335-.121.128.092.165.151.197.321.008-.054-.045-.13.05-.152-.003.085.003.172-.004.257a8 8 0 0 0 .01 1.36 6.7 6.7 0 0 0 .303 1.523c.082.246.188.479.326.698.03.045.056.115.118.103.069-.015.049-.094.05-.143.004-.141-.005-.282-.007-.423v-.226c.084.022.068.092.068.147 0 .328.148.612.286.896.036.076.098.141.141.215.261.456.685.595 1.176.607.415.011.826-.025 1.236-.08.161-.023.322-.012.484-.008.03 0 .074.002.085.025.058.141.152.065.235.043a5 5 0 0 1 .37-.077c.049-.01.1-.025.141.02-.306.273-.641.499-1.032.632-.16.055-.308.12-.426.242-.035-.025-.067-.001-.1.008l-.756.24q-.018.018-.034.033M18.713 23.906q.008.021-.015.026-.01-.026.015-.026M17.873 24.174q-.028.001-.03-.025c.02-.004.026.01.03.025"/><path fill="#DEB982" d="M20.189 22.999c-.25.027-.493.096-.734.163-.023.007-.045.02-.07 0 .001-.053.083-.042.077-.1-.01-.018-.025-.032-.047-.032-.195.002-.391-.015-.589.014q-.202.028-.404.047c-.282.027-.563.03-.846.025a1.7 1.7 0 0 1-.672-.153.76.76 0 0 1-.314-.253c-.069-.105-.148-.203-.224-.304-.183-.242-.258-.531-.36-.81-.024-.072-.006-.15-.014-.226-.005-.054.018-.112-.027-.159a33 33 0 0 1-.112-1.944c-.038-1.333.129-2.632.65-3.872.018-.042.027-.087.06-.12.038-.016.038-.056.05-.088l.01-.036-.002.002c.07-.125.12-.26.203-.378.011-.024.033-.042.034-.07a1 1 0 0 0 .037-.07.8.8 0 0 0 .088-.148.7.7 0 0 0 .09-.146c.025-.029.041-.063.06-.096.034-.025.044-.063.066-.096.035-.056.08-.104.112-.162a.14.14 0 0 1 .033-.045.13.13 0 0 0 .036-.062l-.001.002c.018-.01.025-.029.04-.042.025-.021.041-.05.057-.077l-.001.001a.07.07 0 0 0 .032-.045 5 5 0 0 1 1.185-1.072c.25-.162.511-.309.79-.417.095-.036.19-.069.292-.082.101-.014.11-.008.14.09.047.156.063.317.077.478.051.604.073 1.21.091 1.813q.045 1.559.18 3.11a54 54 0 0 0 .485 3.856c.024.145.04.29.058.436a.8.8 0 0 1-.134.575c-.132.19-.29.357-.482.493"/><path fill="#934948" d="M12.778 14a1.6 1.6 0 0 1-.031-.82c.089-.38.317-.645.687-.782a.6.6 0 0 1 .456.025c.172.07.34.153.524.195.275.062.51-.014.716-.19.164-.139.275-.322.384-.502q.143-.241.315-.463c.181-.231.406-.33.707-.25.433.118.726.38.88.798.06.16.1.327.145.493.022.078.002.132-.056.188-.226.217-.44.443-.636.689-.259.325-.476.676-.674 1.04a8 8 0 0 0-.351.733c-.134-.114-.296-.123-.459-.105-.09.01-.18.01-.27.013a4 4 0 0 0-.703-.166c-.13-.017-.259-.04-.39-.042-.172-.004-.34-.043-.512-.033-.042.002-.087 0-.09-.056 0-.16-.023-.321-.023-.482 0-.232.136-.394.32-.519q.163-.11.33-.213a.8.8 0 0 0 .171-.149c.078-.086.06-.166-.043-.218a.3.3 0 0 0-.07-.025c-.367-.033-.706.028-.98.3a1 1 0 0 0-.286.603c-.063.018-.036-.047-.061-.061"/><path fill="#81B375" d="M19.962 11.399c-.01.029-.034.032-.061.032-.31-.003-.595.1-.872.223-.268.119-.52.265-.763.428l-.114.072c-.044-.002-.067-.032-.094-.06q-.062-.16-.123-.321c-.267-.66-.754-1.041-1.456-1.153-.083-.013-.168-.011-.262-.017.069-.397-.05-.753-.201-1.102a1.46 1.46 0 0 0-.457-.573c-.047-.036-.083-.067-.078-.134.014-.22.06-.428.19-.61a.5.5 0 0 1 .143-.133.23.23 0 0 1 .27 0q.07.045.13.103.1.094.195.192a.83.83 0 0 0 .589.27c.127.086.262.11.415.09.333-.046.623-.19.9-.371.181-.12.265-.081.314.134a.7.7 0 0 1-.011.314c-.038.152-.078.302-.107.456-.065.35.17.806.496.956.13.06.218.003.216-.143 0-.043-.02-.09.014-.13.167.08.338.155.5.24.115.062.225.134.267.27-.194.047-.225.083-.236.296-.009.244.075.463.196.67M14.778 9.247c.271-.013.458.135.607.336.132.177.194.387.24.6.037.168.073.336.153.488.025.047.027.08-.026.112-.215.134-.364.333-.505.537-.109.157-.207.322-.313.48-.178.266-.28.295-.571.17-.149-.062-.294-.137-.451-.175-.403-.095-.765.004-1.088.243-.395.292-.637.681-.692 1.176-.014.132-.018.127-.147.161-.4.105-.748.295-1.003.635-.24.316-.289.668-.227 1.046.005.03.007.062.018.089.027.067 0 .1-.062.126a2 2 0 0 0-.402.239c-.052.041-.085.034-.121-.018-.352-.512-.7-1.027-.917-1.614-.05-.136-.105-.273-.107-.421.087.01.082.09.102.146.137.356.293.705.478 1.04.034.063.069.173.145.147.08-.027.05-.137.043-.216-.007-.089-.056-.174-.023-.266.052-.049.103-.006.154.004.034.007.072.014.096-.02.023-.033.01-.07-.007-.1-.071-.116-.138-.233-.252-.312-.053-.037-.113-.07-.133-.138-.11-.427-.244-.848-.299-1.287-.009-.076-.056-.139-.067-.215.12-.127.261-.116.403-.056.112.047.2.134.288.219.166.16.313.341.493.49.18.15.38.26.618.3.395.066.737-.129.871-.506.067-.188.082-.384.089-.58.005-.203.03-.4.094-.593.087-.264.243-.38.52-.353q.173.018.346.025c.24.013.46-.036.656-.18.248.077.464-.004.634-.25.185-.267.26-.575.292-.893.017-.164.044-.329.035-.495a.16.16 0 0 1 .038-.121"/><path fill="#F2B476" d="M15.113 15.06q.33-.114.663-.012c.053.016.069.054.067.105q-.142.34-.254.692c-.012.043-.032.083-.05.125-.087.18-.127.381-.221.558-.024.044-.04.112-.096.102-.07-.013-.056-.087-.056-.14-.002-.155.001-.312-.035-.466-.009-.038-.01-.089-.063-.09-.04-.002-.06.038-.07.07-.1.333-.217.665-.097 1.018.04.114.009.182-.096.231-.116.053-.214.134-.312.213-.186.154-.185.21.015.35-.006.08-.018.164.081.204l.08.016-.165.231-.014-.043c-.055-.136-.078-.141-.207-.049-.074.036-.08-.034-.107-.07-.023-.031-.029-.089-.078-.08-.054.009-.054.067-.063.11-.047.239-.056.48-.067.721-.004.085-.002.172-.033.253-.01.028-.02.064-.056.064-.029 0-.04-.03-.049-.05-.05-.136-.112-.268-.05-.422.07-.177.05-.369.041-.555a4.8 4.8 0 0 0-.118-.958 1.22 1.22 0 0 0-.572-.782c-.183-.11-.372-.201-.56-.3-.281-.149-.288-.234-.07-.458a.47.47 0 0 1 .235-.128c.183-.042.37-.047.554-.058a56 56 0 0 1 1.464-.065c.181-.007.363-.025.542-.038.02-.002.042-.002.06-.01.047-.017.127 0 .132-.071.004-.055-.062-.075-.105-.096-.085-.042-.178-.08-.27-.121"/><path fill="#ECD189" d="M10.145 9.62c.001-.291.068-.389.304-.466q.382-.126.78-.18c.115-.014.122-.01.131.104.019.22.03.443.042.663.027.54.107 1.072.276 1.589a.3.3 0 0 1-.002.163c-.053.2-.076.405-.084.612q-.004.152-.036.3c-.043.192-.138.24-.322.165a.42.42 0 0 1-.27-.28c-.13-.403-.316-.785-.446-1.188-.129-.392-.261-.784-.334-1.193-.021-.108-.03-.22-.04-.289"/><path fill="#E69543" d="M12.74 15.518a1.1 1.1 0 0 0-.347.327c-.035.045-.026.07.013.1.11.079.22.156.351.203.241.087.448.235.638.398.226.193.326.466.382.754.075.392.098.786.093 1.184a.9.9 0 0 1-.056.264c-.028.074-.035.14.007.215.03.056.041.12.065.191a.8.8 0 0 0 .045-.269c0-.246.028-.492.062-.734a.6.6 0 0 1 .047-.157c.03-.07.082-.076.121-.011a1 1 0 0 1 .071.15q.014.039.054.045c-.192.282-.235.593-.19.926.033.24.06.48.046.723a1.1 1.1 0 0 1-.055.296q-.027.08-.089.024a.8.8 0 0 1-.163-.217c-.156-.286-.217-.595-.239-.915-.029-.417-.014-.837-.03-1.256a1.9 1.9 0 0 0-.124-.635.8.8 0 0 0-.6-.506 1 1 0 0 0-.393 0l-.223.038c-.18 0-.362.018-.513-.112a.55.55 0 0 1-.085-.298c-.007-.15 0-.3 0-.45 0-.061.02-.107.087-.121.34-.069.68-.138 1.026-.157"/><path fill="#DDD8AB" d="M19.234 9.92q.012.052.024.103c.02.085.005.161-.067.217-.078.06-.158.03-.225-.014a1.2 1.2 0 0 1-.254-.215c-.197-.239-.319-.501-.237-.82q.055-.228.109-.456a.55.55 0 0 0-.017-.328q-.007-.022-.016-.041c-.043-.092-.063-.1-.148-.047-.095.058-.187.12-.281.177a2 2 0 0 1-.8.264.56.56 0 0 1-.264-.053c-.04-.016-.07-.041-.065-.09a1 1 0 0 0 .53-.199c.133-.092.254-.199.376-.305.125-.11.264-.2.406-.291a.8.8 0 0 1 .398-.134c.232-.01.375.146.336.356-.028.145-.073.282-.118.421-.058.177-.11.356-.116.544-.013.378.103.694.43.911"/><path fill="#E69543" d="M14.504 17.838c-.062-.038-.147-.02-.176-.132-.023-.092-.014-.148.05-.193.144-.107.271-.24.445-.308.072-.027.083-.067.05-.14a.86.86 0 0 1-.045-.516c.022-.123.04-.247.073-.369.014-.057.036-.113.054-.171.02-.07.058-.152.133-.143.08.009.074.101.09.172.042.188.018.381.03.569.05.01.05-.025.06-.052.062-.149.122-.299.19-.445.02-.049.035-.107.086-.14-.054.23-.112.458-.163.688q-.097.433-.149.874c-.005.046-.018.089-.027.132-.018.02-.034.042-.06.055-.05.02-.085.068-.14.08-.13-.05-.253-.019-.378.02-.04.012-.076.057-.123.019"/><path fill="#DCD8AA" d="M9.926 14.297c.015.083.024.17.044.251.021.093.009.181-.017.268-.02.07-.049.078-.107.029a.8.8 0 0 1-.174-.246 8 8 0 0 1-.482-1.108c-.003-.013-.018-.024-.027-.036-.074-.3-.067-.597.031-.89a.64.64 0 0 1 .207-.325c.096.05.103.15.114.235.047.396.161.776.268 1.157a.5.5 0 0 1 .018.134c-.18.11-.188.233-.033.376.055.05.14.068.158.155"/><path fill="#934948" d="M12.146 13.883c.066.188.107.383.196.566q.075.147.16.29c.016.031.045.055.04.107-.445.053-.892.101-1.338.242-.014-.44.132-.782.497-1.015a1.8 1.8 0 0 1 .38-.183.08.08 0 0 0 .065-.007"/><path fill="#DDD8AB" d="M14.778 9.245c.005.368-.013.735-.122 1.09-.063.213-.15.417-.317.576a.63.63 0 0 1-.375.177c-.07.007-.156.018-.183-.081.225-.184.312-.437.36-.712q.044-.253.091-.505c.022-.108.064-.211.115-.31.09-.174.23-.26.43-.235"/><path fill="#DCD7AA" d="M19.96 11.398c-.032-.004-.059-.016-.075-.045-.121-.242-.207-.492-.138-.768.05-.197.067-.208.252-.156.136.213.15.443.089.68a1.1 1.1 0 0 1-.129.289"/><path fill="#C0A55E" d="M12.012 9.045c.092.029.114.105.125.188q.026.21.027.423-.002.415.002.831c-.08-.005-.069-.076-.089-.123-.002-.048-.032-.086-.038-.133-.01-.024-.003-.051-.02-.075-.052-.354-.061-.712-.078-1.068q0-.018.015-.032c.018-.007.038-.004.056-.011"/><path fill="#D9B47F" d="M15.01 17.789c.014-.069.072-.082.124-.1l.018.004a.08.08 0 0 1 .042.034c.009.113-.016.22-.026.331-.056.05-.008.125-.043.188-.058-.125-.112-.246-.203-.345-.004-.063.038-.09.089-.112"/><path fill="#C4A06C" d="M10.647 16.176c-.009.253.022.5.11.739.015.04.023.078-.008.114a2 2 0 0 1-.154-.542c-.013-.107-.037-.22.052-.311"/><path fill="#DB9B65" d="M11.71 16.545c.168.06.343.076.514.112-.084.02-.167.042-.254.035-.107-.008-.212-.027-.26-.147"/><path fill="#ECEAE7" d="M12.102 10.34c.024.047.027.105.066.147q.014.095.025.194c.004.027-.015.047-.04.056-.036.01-.042-.015-.047-.04-.015-.073-.04-.145-.034-.221.003-.047-.048-.107.03-.136"/><path fill="#C4BEA9" d="M16.84 14.76c-.072.13-.116.277-.219.389a1.5 1.5 0 0 1 .214-.43q.027.016.005.041"/><path fill="#BBC2B8" d="M17.332 13.972a.4.4 0 0 1-.12.183q-.018.016-.036-.002a.8.8 0 0 1 .15-.213l.015.016z"/><path fill="#E4DFCD" d="M12.104 10.34c-.042.037-.019.09-.031.135-.031-.051-.026-.107-.031-.162-.011-.03-.02-.061.007-.09.04.029.038.078.055.117"/><path fill="#C6C6B7" d="M16.993 14.49c-.013.06-.035.115-.091.151q-.021-.018-.004-.04a.5.5 0 0 1 .091-.152q.024.018.004.04"/><path fill="#CFCEBE" d="m16.994 14.492-.006-.042a.3.3 0 0 1 .067-.114q.016-.02.033 0c-.015.063-.038.12-.094.155"/><path fill="#CFCBC8" d="M18.055 12.098c.04.005.078.016.094.06-.02.018-.038.043-.07.028l-.019-.025z"/><path fill="#BAC1B6" d="M17.087 14.338h-.032a.3.3 0 0 1 .085-.131q.026.02.005.043a.1.1 0 0 1-.058.088"/><path fill="#6B3A39" d="m12.778 14 .058.06c0 .023.01.049-.014.069-.04-.035-.047-.08-.044-.129"/><path fill="#B0A795" d="M12.048 10.223q-.004.046-.007.09c-.03-.048-.028-.102-.022-.157.023.017.027.042.029.067"/><path fill="#CACBBC" d="m17.146 14.248-.005-.043c.003-.024.016-.038.034-.053l.036.002a.13.13 0 0 1-.065.094"/><path fill="#D8C9AB" d="M16.632 15.185c-.01.04-.002.09-.066.09a.16.16 0 0 1 .039-.088q.01-.018.027-.002"/><path fill="#DCD6BF" d="M17.48 13.758q.002.065-.058.092-.015-.007-.01-.018t.009-.009c.012-.027.029-.053.06-.065"/><path fill="#B4BBB0" d="m16.9 14.6.004.04c-.002.023-.008.043-.03.057q-.014.022-.03.002a.18.18 0 0 1 .056-.1"/><path fill="#899E9D" d="m11.96 9.062-.015.027c-.014-.025-.027-.054.004-.076.018-.013.036 0 .045.02-.004.018-.022.02-.034.029"/><path fill="#BCC1B1" d="M17.382 13.875q.013.042-.023.065-.01.012-.026.01l-.009-.012c.013-.027.027-.052.058-.063"/><path fill="#B1CBCA" d="M12.143 13.883c-.018.036-.041.023-.065.007z"/><path fill="#E0D5BE" d="M16.848 14.7q.015 0 .03-.003c-.001.026-.009.05-.032.064l-.006-.042q-.002-.015.008-.02"/><path fill="#D9B47F" d="M15.137 17.69c.016-.02.04-.026.063-.028l-.003.03c-.017.02-.035.019-.055.005z"/><path fill="#F7EEE0" d="m15.145 17.697.054-.004-.002.035c-.022-.004-.047-.002-.052-.031"/><path fill="#BCC1B1" d="M17.42 13.822q.004.014.003.027c-.01.017-.02.026-.04.028q.001-.04.038-.055"/><path fill="#F0E9D9" d="m11.96 9.06.034-.029.021.015c-.014.01-.03.023-.054.014"/><path fill="#C4BEA9" d="M16.63 15.185h-.028q-.005-.028.023-.037z"/><path fill="#B7C2B2" d="M17.51 13.715q-.005.03-.033.045c0-.022.014-.036.032-.045"/><path fill="#81B375" d="M18.06 12.158q.018.006.018.026-.025-.002-.018-.026"/><path fill="#272523" d="M15.013 17.789c-.015.049-.06.074-.09.112a1.2 1.2 0 0 1-.334.122c-.015-.002-.03 0-.044-.004-.114-.025-.121-.042-.067-.147q.011-.018.024-.036c.114-.085.248-.094.382-.107a.14.14 0 0 1 .129.06"/><path fill="#D6B077" d="M15.274 22.854c.02.005.036.02.04.04.003.018-.01.028-.024.018s-.023-.03-.036-.044z"/><path fill="#E3DFCD" d="M17.334 13.95q.011-.007.025-.009l-.03.031q-.001-.01.005-.021"/><path fill="#232222" d="M14.899 13.426a.5.5 0 0 1-.252-.066c-.062-.036-.095-.09-.082-.165.013-.067.07-.088.123-.096.178-.027.341.02.484.129.08.062.07.118-.029.152a.6.6 0 0 1-.244.045"/><path fill="#222" d="M18.263 10.102c.101-.004.165.06.137.143-.069.211-.184.392-.393.49-.112.052-.228-.01-.254-.13a.25.25 0 0 1 .02-.176c.11-.197.301-.27.49-.327M17.383 10.024c.01-.15.029-.293.098-.427a.32.32 0 0 1 .175-.159c.13-.047.229.025.214.161a.85.85 0 0 1-.304.555c-.033.03-.076.056-.123.036-.057-.023-.06-.076-.06-.126z"/><path fill="#212221" d="M9.915 13.206q-.002-.037 0-.076c.003-.05.005-.105.065-.124.054-.02.105.001.14.038.237.245.391.536.444.874.016.109-.06.152-.153.089-.286-.19-.485-.44-.496-.8"/><path fill="#222" d="M9.924 14.297c-.067-.045-.136-.087-.198-.135a.27.27 0 0 1-.112-.206c-.007-.125.052-.185.188-.188q.24.141.372.386c.016.031.034.064.042.096.02.082-.024.13-.11.112-.063-.012-.122-.043-.182-.065"/><path fill="#F7E4AA" d="M10.925 11.477c0 .07.002.14-.002.211 0 .024-.01.05-.042.055-.023.001-.034-.018-.043-.037a2.3 2.3 0 0 1-.209-.516q-.13-.435-.248-.868c-.05-.188-.101-.378-.09-.577l.001-.06c.004-.055.017-.117.07-.142.057-.027.102.023.142.06.11.097.169.229.207.363.063.226.109.457.129.692.018.199.058.396.081.595.01.074.002.15.002.226q.001-.003.002-.002"/></svg>