<svg xmlns="http://www.w3.org/2000/svg" viewBox="0 0 35 35"><g fill="none" fill-rule="evenodd"><path fill="#FFF" d="M17.5 0C27.164 0 35 7.835 35 17.5S27.163 35 17.5 35C7.835 35 0 27.163 0 17.5 0 7.835 7.835 0 17.5 0"/><path fill="#5A5564" d="m28.538 7.345-.96.961a13.606 13.606 0 0 1 0 18.363l.96.96c5.289-5.736 5.289-14.57 0-20.306zM8.325 7.429c5.198-4.753 13.164-4.753 18.363 0l.96-.96c-5.736-5.291-14.571-5.291-20.306 0zM7.429 26.677c-4.748-5.196-4.748-13.155 0-18.352l-.96-.96c-5.291 5.736-5.291 14.57 0 20.304zM26.677 27.564a13.6 13.6 0 0 1-18.36 0l-.963.963c5.736 5.288 14.572 5.288 20.307 0z"/><path fill="#F09242" d="M20.412 15.053c0 1.921-3.005 1.689-3.96 1.689v-3.387c.955 0 3.96-.3 3.96 1.698m.784 5.257c0 2.1-3.6 1.86-4.748 1.86v-3.727c1.148.001 4.748-.328 4.748 1.867m2.371-6.017c-.192-2.005-1.921-2.677-4.11-2.884V8.646h-1.69v2.71c-.447 0-.9 0-1.354.015V8.646h-1.681v2.78h-3.427v1.81s1.25-.022 1.23 0a.877.877 0 0 1 .961.744v7.614a.6.6 0 0 1-.203.415.62.62 0 0 1-.437.147c.02.018-1.23 0-1.23 0l-.337 2.02h3.414v2.826h1.693v-2.784h1.35v2.77h1.695v-2.791c2.858-.175 4.85-.879 5.1-3.555.202-2.152-.81-3.113-2.428-3.501.984-.5 1.601-1.381 1.454-2.848"/><path fill="#282138" d="M17.497 1.365C8.593 1.37 1.379 8.59 1.38 17.495c.002 8.903 7.22 16.12 16.124 16.12 8.904.002 16.125-7.215 16.128-16.119-.012-8.904-7.23-16.12-16.137-16.123zm0 33.635C7.833 34.998-.002 27.163 0 17.5 0 7.834 7.835 0 17.498 0 27.162 0 34.998 7.833 35 17.496 34.99 27.16 27.158 34.99 17.497 35"/></g></svg>