<svg version="1.2" xmlns="http://www.w3.org/2000/svg" viewBox="0 0 48 48" width="48" height="48"><style>.a{fill:#f7931a}.b{fill:#fff}</style><path fill-rule="evenodd" class="a" d="m30.4 23.6c2.3 0.5 3.7 1.8 3.4 4.8-0.4 3.7-3.1 4.7-7 4.9v3.9h-2.4v-3.9h-1.8v3.9h-2.4v-3.9h-4.7l0.5-2.8c0 0 1.7 0 1.7 0q0.1 0 0.3-0.1 0.2 0 0.3-0.1 0.1-0.1 0.2-0.3 0-0.1 0.1-0.3v-10.5c-0.1-0.3-0.3-0.6-0.5-0.8-0.2-0.2-0.6-0.3-0.9-0.2 0.1-0.1-1.7 0-1.7 0v-2.5h4.8v-3.9h2.3v3.8q0.9 0 1.9 0v-3.8h2.3v3.8c3 0.3 5.4 1.3 5.6 4 0.2 2.1-0.6 3.3-2 4zm-1.2 4.3q0 0 0 0 0 0 0 0.1zm0 0c0-3.1-5-2.6-6.6-2.6v5.1c1.6 0 6.6 0.4 6.6-2.5zm-6.6-9.7v4.7c1.3 0 5.5 0.3 5.5-2.3 0-2.8-4.2-2.4-5.5-2.4z"/><path class="b" d="m11.3 10c2.4-2.2 5.3-3.7 8.4-4.4 3.1-0.7 6.3-0.6 9.4 0.2l0.3 0.1q0.2 0.1 0.4 0.1 0.2 0.1 0.5 0.2l0.2 0.1q0.4 0.1 0.7 0.3h0.1c1.9 0.9 3.8 2 5.4 3.4l1-1.1q-0.2-0.2-0.4-0.4c-3.6-3.1-8.1-4.9-12.8-5q-0.3 0-0.7 0h-0.1q-2.3 0-4.5 0.6h-0.3l-0.3 0.1q-2.2 0.6-4.2 1.7-2.3 1.2-4 3z"/><path class="b" d="m10 11.3l-1.1-1c-7.6 8-6.5 21 0 27.2l1.2-0.8c-3.2-3.5-5-8-5-12.7 0-4.7 1.8-9.3 5-12.7z"/><path class="b" d="m39.6 10.8q-0.3-0.3-0.6-0.6l-1 1.1c5.8 6.6 7.1 17.1 0.2 25.1l1 1.2c3.3-3.7 5.1-8.4 5.2-13.4 0.1-4.9-1.7-9.7-4.8-13.4z"/><path class="b" d="m36.8 38q-1 0.7-2 1.3c-2.5 1.7-5.2 2.8-8.2 3.3q-2.2 0.3-4.5 0.1c-3.8-0.4-7.4-1.9-10.3-4.4q-0.2-0.1-0.4-0.3l-1.1 0.9c3.7 3.7 8.8 5.5 13.8 5.5q0.2 0 0.3 0h0.1c4.7-0.1 9.1-1.9 12.7-4.9q0.2-0.2 0.5-0.4z"/><path class="b" d="m24 0c-4.8 0-9.4 1.4-13.3 4-4 2.7-7.1 6.4-8.9 10.8-1.8 4.4-2.3 9.2-1.3 13.9 0.9 4.6 3.2 8.9 6.5 12.3 3.4 3.3 7.7 5.6 12.3 6.5 4.7 1 9.5 0.5 13.9-1.3 4.4-1.8 8.1-4.9 10.8-8.9 2.6-3.9 4-8.6 4-13.3 0-3.2-0.6-6.3-1.8-9.2-1.2-2.9-3-5.5-5.2-7.8-2.3-2.2-4.9-4-7.8-5.2-2.9-1.2-6.1-1.8-9.2-1.8zm0 1.6c4.4 0 8.7 1.3 12.4 3.8 3.7 2.4 6.6 5.9 8.3 10 1.7 4.1 2.1 8.6 1.3 13-0.9 4.3-3 8.3-6.2 11.4-3.1 3.2-7.1 5.3-11.4 6.2-4.4 0.8-8.9 0.4-13-1.3-4.1-1.7-7.6-4.6-10-8.3-2.5-3.7-3.8-8-3.8-12.4 0-5.9 2.4-11.6 6.6-15.8 4.2-4.2 9.9-6.6 15.8-6.6z"/></svg>