<svg xmlns="http://www.w3.org/2000/svg" width="37" height="37" fill="none"><circle cx="18.5" cy="18.5" r="18.5" fill="#0E0B31"/><path stroke="#ACE730" stroke-linejoin="round" stroke-width=".7" d="M18.5 5 10 10m8.5-5L14 12.147M18.5 5l8.5 5m-8.5-5 4.5 7.147M10 18.5l8.032 4.252a1 1 0 0 0 .936 0L27 18.5m-17 0V10m0 8.5 4-6.353M10 21l8.032 4.252a1 1 0 0 0 .936 0L27 21m-17 0v6m0-6 3.261 4.22M10 27l8.5 5M10 27l3.261-1.78M18.5 32l-5.239-6.78M18.5 32l8.5-5m-8.5 5 5.239-6.78M10 10l4 2.147M27 18.5V10m0 8.5-4-6.353M27 21v6m0-6-3.261 4.22M27 27l-3.261-1.78M27 10l-4 2.147"/><circle cx="18.5" cy="18.5" r="17.15" stroke="url(#a)" stroke-width=".7"/><path fill="#C0FC5C" d="M28.784 20.784a8 8 0 0 0 0 16 8 8 0 1 0 0-16"/><path stroke="#000" stroke-width="1.099" d="M33.757 24.922h-8.532v2.719m8.04 2.776h-8.04v-2.776m8.04 2.776v2.719h-8.59m8.59-2.719v-2.776h-8.04"/><defs><linearGradient id="a" x1="18.5" x2="18.5" y1="1" y2="36" gradientUnits="userSpaceOnUse"><stop stop-color="#B45AFA"/><stop offset="1" stop-color="#29BCFA"/></linearGradient></defs></svg>