<svg xmlns="http://www.w3.org/2000/svg" width="37" height="37" fill="none"><path stroke="#DF5E00" stroke-linejoin="round" stroke-width=".7" d="M18.5 5 10 10m8.5-5L14 12.147M18.5 5l8.5 5m-8.5-5 4.5 7.147M10 18.5l8.032 4.252a1 1 0 0 0 .936 0L27 18.5m-17 0V10m0 8.5 4-6.353M10 21l8.032 4.252a1 1 0 0 0 .936 0L27 21m-17 0v6m0-6 3.261 4.22M10 27l8.5 5M10 27l3.261-1.78M18.5 32l-5.239-6.78M18.5 32l8.5-5m-8.5 5 5.239-6.78M10 10l4 2.147M27 18.5V10m0 8.5-4-6.353M27 21v6m0-6-3.261 4.22M27 27l-3.261-1.78M27 10l-4 2.147"/><circle cx="18.5" cy="18.5" r="17.15" stroke="url(#a)" stroke-width=".7"/><path fill="#CF6627" stroke="#5B5555" stroke-width=".423" d="M28.784 20.995a7.788 7.788 0 0 1 0 15.577 7.788 7.788 0 0 1 0-15.577Z"/><path fill="#fff" d="M29.516 24.024c.208.203.223.54.09.785a.02.02 0 0 0 0 .017c.202.461.373.864.61 1.199.297.418.6.81.859 1.275.046.083.046.15.036.24q-.002.01.005.017c.134.166.294.164.499.147q.459-.04.64-.033c.782.027 1.431.57 1.474 1.372.023.407-.036.785-.25 1.127a2.33 2.33 0 0 1-.926.848q-.13.067-.26.132c-.366.184-.538.73-.443 1.108q.04.156.237.695.027.075.022.117c-.016.138-.228.2-.346.21l-.008.004-.005.008c-.056.324-.223.67-.499.862a1.3 1.3 0 0 1-.341.154q-.6.195-1.227.211c-.675.02-1.317-.025-1.947-.248-.312-.11-.533-.383-.644-.687-.2-.546-.128-1.13.118-1.646.086-.18.187-.378.252-.544a3.54 3.54 0 0 0 .164-1.948c-.142-.76-.753-1.348-1.482-1.567-.555-.165-1.147-.13-1.71-.075-.206.02-.21-.088-.08-.2.342-.297.792-.443 1.242-.491.546-.058 1.06.01 1.539.277.193.107.306.233.47.41a.2.2 0 0 0 .079.056h.005l.005-.002.004-.005v-.005a3 3 0 0 0-.05-.389c-.015-.074.036-.143.07-.208.256-.473.612-.904.94-1.381a1 1 0 0 0 .055-.093q.232-.468.444-.944a.02.02 0 0 0 0-.018c-.135-.247-.123-.582.09-.786a.013.013 0 0 0 .003-.015.45.45 0 0 1-.045-.336c.023-.096.127-.256.238-.176.16.115.157.353.071.51q-.004.009.002.016m3.852 5.295c-.033-.464-.322-.9-.775-1.05-.556-.185-1.261.177-1.65.56a.02.02 0 0 0-.008.016 10 10 0 0 0-.016.821c.015.677.206 1.37.493 1.982q.004.01.01 0a2.4 2.4 0 0 1 .84-.853c.142-.09.353-.179.484-.257a1.3 1.3 0 0 0 .374-.364 1.27 1.27 0 0 0 .248-.855"/><defs><linearGradient id="a" x1="18.5" x2="18.5" y1="1" y2="36" gradientUnits="userSpaceOnUse"><stop stop-color="#B45AFA"/><stop offset="1" stop-color="#29BCFA"/></linearGradient></defs></svg>