<svg xmlns="http://www.w3.org/2000/svg" width="96" height="96" fill="none"><g clip-path="url(#a)"><path fill="#17252A" d="M48 96c26.51 0 48-21.49 48-48S74.51 0 48 0 0 21.49 0 48s21.49 48 48 48"/><path fill="url(#b)" d="M58.062 75.72a.41.41 0 0 1-.226.396.41.41 0 0 1-.593-.34v-.056l-22.25-49.682h7.618a8.21 8.21 0 0 1 7.54 4.92l7.536 17.163 6.43-13.559a8.23 8.23 0 0 1 7.413-4.716h7.127z"/><path fill="#DEF1F3" d="m42.284 45.697-1.432 3.359-.442-1.024-.043.042-7.831-17.163a8.58 8.58 0 0 0-7.7-4.911h-8.029L39.95 75.639a.423.423 0 0 0 .573.246.37.37 0 0 0 .246-.246l7.658-16.383zM72.343 47.786l-1.476-.49c-1.065-.369-2.212-.656-3.276-1.107-1.474-.615-2.38-1.803-2.95-3.276-.943-2.458-1.105-5.284-.857-7.865h-.043c-3.81 1.353-6.594 4.423-6.594 9.134 0 5.448 3.399 8.312 8.19 9.917l2.131.736 1.761.615c2.172.737 3.235 1.388 3.235 2.828 0 1.842-1.555 2.622-4.177 2.622a8.4 8.4 0 0 1-3.318-.657l-3.07 6.84a21.3 21.3 0 0 0 6.799 1.108c8.727 0 12.495-4.384 12.495-10.405-.04-4.633-2.251-7.788-8.85-10M79.271 38.694a11.7 11.7 0 0 0-3.4-2.746l-3.032 6.8q.752.549 1.388 1.23z"/></g><defs><linearGradient id="b" x1="34.993" x2="78.656" y1="51.098" y2="51.098" gradientUnits="userSpaceOnUse"><stop offset=".23" stop-color="#277F7A"/><stop offset=".75" stop-color="#3BADA7"/></linearGradient><clipPath id="a"><path fill="#fff" d="M0 0h96v96H0z"/></clipPath></defs></svg>