<svg xmlns="http://www.w3.org/2000/svg" viewBox="0 0 48 48" width="48" height="48">
    <path fill="#fff"
          d="M24 48a23.94 23.94 0 0 1-16.971-7.029A23.917 23.917 0 0 1 0 24 23.94 23.94 0 0 1 7.029 7.029 23.94 23.94 0 0 1 24 0a23.94 23.94 0 0 1 16.971 7.029A23.917 23.917 0 0 1 48 24a23.94 23.94 0 0 1-7.029 16.971 23.917 23.917 0 0 1-7.629 5.143A23.83 23.83 0 0 1 24 48Z"/>
    <circle fill="#000" cx="24" cy="24" r="22.728"/>
    <path fill="#fff"
          d="M35.972 24a11.9 11.9 0 0 0-1.985-6.594l3.717-3.717-3.342-3.343-3.707 3.707a11.9 11.9 0 0 0-6.653-2.025 11.9 11.9 0 0 0-6.594 1.985l-3.719-3.717-3.343 3.342 3.707 3.707a11.9 11.9 0 0 0-2.025 6.653 11.9 11.9 0 0 0 1.985 6.594l-3.717 3.719 3.342 3.343 3.707-3.707a11.9 11.9 0 0 0 6.653 2.025 11.9 11.9 0 0 0 6.594-1.985l3.719 3.719 3.343-3.343-3.707-3.706A11.92 11.92 0 0 0 35.972 24Zm-19.215 0c0-3.995 3.25-7.244 7.245-7.244 3.994 0 7.244 3.249 7.244 7.244 0 3.995-3.25 7.244-7.244 7.244-3.995 0-7.245-3.249-7.245-7.244Z"/>
</svg>