<svg xmlns="http://www.w3.org/2000/svg" fill="none" viewBox="0 0 201 201"><rect width="201" height="201" fill="#071927" rx="100.5"/><mask id="a" width="113" height="42" x="44" y="115" maskUnits="userSpaceOnUse" style="mask-type:alpha"><path fill="#fff" d="M44 115.59h112.459v40.645H44V115.59Z"/></mask><g mask="url(#a)"><path fill="url(#b)" fill-rule="evenodd" d="M100.121 136.277c-3.9629 0-7.6452-.786-10.6509-2.274l-32.3656-16.021-9.6984 5.518c-4.6099 2.622-4.5294 6.641.1796 8.972l44.7646 22.159c2.1742 1.076 4.9538 1.605 7.7707 1.605 3.289 0 6.626-.72 9.11-2.133l43.823-24.932c4.61-2.623 4.529-6.643-.18-8.972l-9.306-4.609-31.136 17.715c-3.37 1.916-7.742 2.972-12.311 2.972Z" clip-rule="evenodd"/></g><path fill="url(#c)" fill-rule="evenodd" d="m153.162 93.6686-7.771-3.9035-18.096 10.4459-3.107 1.793-3.105 1.793-8.471 4.89c-3.378 1.952-7.763 3.025-12.343 3.025-3.9731 0-7.6652-.8-10.6788-2.312l-9.7053-4.876-3.2124-1.612-3.2123-1.613-17.8829-8.984-8.1621 4.7123c-4.6221 2.6686-4.5429 6.7557.1786 9.1277l9.3327 4.687 3.2123 1.613 3.2108 1.614 29.1285 14.63c2.1783 1.093 4.9668 1.631 7.7909 1.631 3.296 0 6.644-.732 9.132-2.169l28.005-16.166 3.107-1.793 3.105-1.792 9.724-5.614c4.622-2.667 4.541-6.7557-.18-9.1274Z" clip-rule="evenodd"/><path fill="url(#d)" fill-rule="evenodd" d="m153.162 69.7542-44.885-22.15C106.099 46.5279 103.312 46 100.486 46c-3.2958 0-6.6432.7204-9.132 2.1322L47.4152 73.056c-4.6221 2.6207-4.5429 6.6371.1786 8.9676l7.7708 3.8356 3.2123 1.5852 3.2124 1.5853 17.8829 8.8262 3.2123 1.5838 3.2124 1.5863 6.3812 3.151c2.1783 1.074 4.9668 1.602 7.7909 1.602 3.296 0 6.644-.72 9.132-2.132l5.258-2.982 3.106-1.762 3.106-1.7618 18.095-10.2641 3.107-1.7617 3.105-1.7617 8.164-4.6304c4.622-2.6207 4.541-6.6386-.18-8.9691Z" clip-rule="evenodd"/><defs><linearGradient id="b" x1="100.23" x2="100.23" y1="49.5439" y2="156.236" gradientUnits="userSpaceOnUse"><stop stop-color="#B3F9BA"/><stop offset="1" stop-color="#F6FB8C"/></linearGradient><linearGradient id="c" x1="100.378" x2="100.378" y1="49.626" y2="153.781" gradientUnits="userSpaceOnUse"><stop stop-color="#B1FFBF"/><stop offset="1" stop-color="#FFF16D"/></linearGradient><linearGradient id="d" x1="100.378" x2="100.378" y1="46" y2="154.083" gradientUnits="userSpaceOnUse"><stop stop-color="#B3F9BA"/><stop offset="1" stop-color="#F6FB8C"/></linearGradient></defs></svg>