<svg xmlns="http://www.w3.org/2000/svg" width="484" height="483" fill="none"><circle cx="242.057" cy="241.159" r="241.159" fill="#FFF"/><path fill="#010101" d="m184.543 100.393 55.127-31.835a5.1 5.1 0 0 1 5.087 0l145.289 83.883a5.12 5.12 0 0 1 2.551 4.393l.196 57.692a5.08 5.08 0 0 1-2.551 4.423l-55.051 31.79c-3.381 1.963-7.623-.483-7.638-4.392l-.181-51.776a5.09 5.09 0 0 0-2.551-4.393l-140.278-80.969c-3.396-1.962-3.396-6.853 0-8.816M148.924 361.714l-55.111-31.82a5.06 5.06 0 0 1-2.551-4.407V157.721c0-1.811.966-3.487 2.536-4.408l49.873-29.027a5.06 5.06 0 0 1 5.103 0l55.051 31.79c3.381 1.962 3.396 6.838.015 8.815l-44.742 26.039a5.08 5.08 0 0 0-2.535 4.408v161.984c0 3.924-4.242 6.37-7.639 4.408zM392.841 261.829v63.641a5.06 5.06 0 0 1-2.551 4.408L245.001 413.76a5.07 5.07 0 0 1-5.072 0l-50.07-28.68a5.1 5.1 0 0 1-2.566-4.423v-63.565c0-3.91 4.227-6.355 7.623-4.423l44.923 25.737a5.11 5.11 0 0 0 5.071 0l140.278-80.999c3.396-1.963 7.638.483 7.638 4.407z"/></svg>