<?xml version="1.0" encoding="utf-8"?>
<!-- Generator: Adobe Illustrator 24.0.1, SVG Export Plug-In . SVG Version: 6.00 Build 0)  -->
<svg version="1.1" id="Layer_1" xmlns="http://www.w3.org/2000/svg" xmlns:xlink="http://www.w3.org/1999/xlink" x="0px" y="0px"
	 viewBox="0 0 96 96" style="enable-background:new 0 0 96 96;" xml:space="preserve">
<style type="text/css">
	.st0{fill:#374EF5;}
	.st1{fill:#FFFFFF;}
</style>
<circle class="st0" cx="48" cy="48" r="48"/>
<path class="st1" d="M69.9,48h5.4V20.4H48v5.4h18C55.5,36.9,39.3,41.4,24.6,36.9L21.9,36l-1.5,5.4l2.7,0.9
	c16.8,5.1,34.8,0,46.8-12.6V48z"/>
<path class="st1" d="M26.1,48h-5.7v27.3H48v-5.4H30c10.5-11.1,26.7-15.6,41.4-11.1l2.7,0.9l1.5-5.4l-2.7-0.9
	c-16.8-5.1-34.8,0-46.8,12.6C26.1,66,26.1,48,26.1,48z"/>
</svg>
