<svg xmlns="http://www.w3.org/2000/svg" xml:space="preserve" fill-rule="evenodd" stroke-linejoin="round" stroke-miterlimit="2" clip-rule="evenodd" viewBox="0 0 490 490"><g fill-rule="nonzero"><circle cx="245" cy="245" r="245" fill="url(#a)"/><path fill="#fff" d="m315.825 297.846 69.285-40.007c3.67-2.12 5.94-6.059 5.94-10.299v-80.005c0-4.229-2.28-8.179-5.94-10.299l-69.285-40.007c-3.67-2.12-8.219-2.11-11.889 0l-69.286 40.007c-3.67 2.12-5.939 6.07-5.939 10.299v142.98l-48.587 28.048-48.587-28.048v-56.106l48.587-28.048 32.048 18.499v-37.637l-26.108-15.069c-1.8-1.04-3.86-1.59-5.95-1.59-2.09 0-4.15.55-5.94 1.59l-69.285 40.007c-3.669 2.12-5.939 6.06-5.939 10.299v80.005c0 4.229 2.28 8.179 5.939 10.299l69.285 40.007c3.66 2.11 8.22 2.11 11.89 0l69.285-39.997c3.67-2.12 5.94-6.07 5.94-10.299v-142.98l.88-.5 47.706-27.548 48.587 28.048v56.106l-48.587 28.048-31.997-18.479v37.637l26.058 15.049c3.67 2.11 8.219 2.11 11.889 0v-.01Z"/></g><defs><linearGradient id="a" x1="0" x2="1" y1="0" y2="0" gradientTransform="rotate(31.465 -97.9843213 -203.666881) scale(648.3)" gradientUnits="userSpaceOnUse"><stop offset="0" stop-color="#a229c5"/><stop offset="1" stop-color="#7b3fe4"/></linearGradient></defs></svg>