<svg width="100%" height="100%" viewBox="0 0 500 500" fill="none" xmlns="http://www.w3.org/2000/svg">
<circle cx="250" cy="250" r="250" fill="#263147"/>
<path d="M224.375 104.331C223.134 90.2066 221.593 76.4823 220.993 73.8215C220.313 70.9006 220.773 69 222.154 69C223.414 69 231.358 73.7215 239.801 79.5033C248.265 85.285 258.21 94.0478 261.911 99.0093C265.633 103.971 269.455 111.173 270.415 115.014C271.396 118.855 272.476 124.197 272.816 126.878C273.396 131.239 275.177 132.1 290.464 135.401C299.828 137.421 313.334 141.823 320.478 145.204C327.621 148.585 336.865 154.867 340.987 159.188C346.929 165.41 348.49 168.591 348.47 174.533C348.47 178.654 346.889 184.456 344.969 187.417C343.048 190.378 338.346 195.159 334.484 198.08C330.622 200.981 323.199 205.542 317.976 208.203C312.754 210.864 307.572 213.045 306.471 213.045C305.191 213.045 305.291 210.684 306.751 206.543C308.012 202.962 308.632 196.439 308.132 192.038C307.632 187.637 305.031 180.535 302.349 176.233C299.668 171.952 293.866 166.37 289.464 163.869C285.062 161.349 279.219 158.728 276.458 158.048C271.476 156.807 271.436 156.907 268.955 176.913C267.574 187.977 266.413 202.661 266.313 222.047L287.903 231.75C299.768 237.072 315.775 245.115 323.479 249.616C331.182 254.097 342.708 262.8 349.11 268.922C355.493 275.044 362.637 284.127 364.978 289.068C367.639 294.69 369.279 302.192 369.34 309.074C369.4 315.136 367.839 324.139 365.898 329.081C363.617 334.882 359.875 339.684 355.413 342.585C351.612 345.066 348.49 346.866 348.49 346.586C348.49 346.306 350.291 341.364 352.492 335.583C354.693 329.801 356.494 320.798 356.474 315.576C356.454 309.635 354.593 302.152 351.471 295.57C348.73 289.788 342.427 281.006 337.485 276.064C332.543 271.123 322.398 263.14 314.975 258.339C307.552 253.537 285.722 241.413 266.453 231.43C247.205 221.427 226.936 210.044 221.433 206.143C215.931 202.241 212.109 199.04 212.929 199.04C213.75 199.04 219.832 201.741 226.435 205.042C233.038 208.343 238.421 210.824 238.421 210.544C238.401 210.264 236.68 204.642 234.599 198.04C232.518 191.438 230.037 180.395 229.117 173.512C228.196 166.61 227.216 160.989 226.936 161.009C226.656 161.009 222.614 163.589 217.932 166.73C213.25 169.871 206.947 175.273 203.925 178.734C199.743 183.535 198.443 187.057 198.483 193.539C198.543 200.721 199.703 203.142 205.986 209.083C210.328 213.185 232.618 225.889 259.45 239.553C284.762 252.457 310.653 267.061 316.976 272.043C323.299 277.004 331.222 284.887 334.584 289.568C337.925 294.25 341.627 301.672 342.788 306.073C343.968 310.475 344.468 318.137 343.908 323.079C343.328 328.02 341.027 336.143 338.766 341.084C336.505 346.026 330.802 354.468 326.06 359.81C320.338 366.292 312.807 371.787 303.47 376.295C294.986 380.397 283.541 383.958 274.457 385.338C266.213 386.578 258.55 387.799 257.449 388.059C256.349 388.319 254.208 393.841 252.687 400.323C251.147 406.805 248.225 415.928 246.184 420.609C244.123 425.29 241.542 429.552 240.442 430.112C239.161 430.752 238.441 423.11 238.441 387.099L226.936 385.838C220.613 385.158 207.767 382.397 198.423 379.696C189.079 377.015 175.172 371.494 167.549 367.452C159.946 363.411 150.041 356.869 145.539 352.948C141.057 349.007 135.755 341.805 133.734 336.943C131.513 331.541 130.532 325.74 131.213 322.078C131.853 318.777 134.934 312.936 138.076 309.074C141.217 305.213 149.541 298.991 156.604 295.23C163.647 291.469 175.713 286.287 183.416 283.707C191.12 281.126 199.904 279.025 202.925 279.045C205.946 279.045 209.028 280.185 209.748 281.566C210.528 283.026 208.808 285.727 205.646 288.068C202.665 290.269 196.062 295.67 191 300.072C185.897 304.513 180.055 312.075 177.894 317.077C175.293 323.079 174.392 328.247 175.192 332.582C175.873 336.163 178.894 341.144 181.915 343.665C184.937 346.186 191.92 349.827 197.422 351.728C202.925 353.628 214.61 355.389 239.441 356.089L240.962 318.077C241.802 297.171 242.263 275.684 241.442 260.599L222.434 253.757C211.989 249.996 195.762 243.174 186.418 238.593C174.152 232.571 165.728 226.609 156.184 217.146C145.739 206.803 142.138 201.621 139.176 192.618C137.095 186.336 136.055 180.475 136.875 179.614C137.696 178.734 139.957 179.594 141.878 181.475C143.818 183.375 146.079 184.956 146.9 184.976C147.72 185.016 154.923 178.474 162.907 170.451C170.891 162.429 181.475 153.066 186.418 149.645C191.36 146.224 200.144 141.542 205.926 139.222C211.709 136.921 218.232 135.02 220.433 135.02C222.634 135.02 224.935 133.9 225.555 132.52C226.155 131.139 225.635 118.455 224.375 104.331Z" fill="#94A4B8"/>
<path d="M260.951 328.941C261.791 315.256 262.452 296.19 262.452 286.567C262.452 276.224 263.272 269.062 264.452 269.062C265.553 269.062 272.536 272.123 279.959 275.884C287.383 279.625 296.247 285.707 299.668 289.388C303.07 293.069 307.352 298.331 309.192 301.072C311.193 304.113 312.474 309.995 312.434 316.077C312.374 325.179 311.614 326.8 303.91 334.182C298.988 338.904 290.444 344.185 283.461 346.846C276.858 349.347 268.754 351.948 259.45 353.808L260.951 328.941Z" fill="#263147"/>
</svg>
