<svg xmlns="http://www.w3.org/2000/svg" width="96" height="96" fill="none"><path fill="#212630" d="M48 96c26.51 0 48-21.49 48-48S74.51 0 48 0 0 21.49 0 48s21.49 48 48 48"/><path fill="#fff" d="M80.915 24.613h-11L64.84 42.038h10.855zM61.166 54.653l-5.424-13.475c-1.235-3.406-4.343-5.657-7.81-5.657-3.433 0-6.517 2.206-7.777 5.564l-5.642 13.568-8.597-30.04h-10.83l12.862 43.996c.488 1.653 1.943 2.78 3.589 2.78h6.216c1.538 0 2.92-.985 3.49-2.487l6.66-17.284 6.779 17.306c.576 1.49 1.952 2.465 3.482 2.465h6.119c1.64 0 3.09-1.119 3.584-2.763l6.108-20.845H63.169z"/></svg>