<svg width="37" height="37" viewBox="0 0 37 37" fill="none" xmlns="http://www.w3.org/2000/svg">
<g clip-path="url(#clip0_6201_6879)">
<mask id="mask0_6201_6879" style="mask-type:luminance" maskUnits="userSpaceOnUse" x="0" y="0" width="37" height="37">
<path d="M37 0H0V37H37V0Z" fill="white"/>
</mask>
<g mask="url(#mask0_6201_6879)">
<path d="M18.5 37C28.7173 37 37 28.7173 37 18.5C37 8.28273 28.7173 0 18.5 0C8.28273 0 0 8.28273 0 18.5C0 28.7173 8.28273 37 18.5 37Z" fill="#1A82FF"/>
<path d="M18.548 34.7711C15.0948 34.7711 11.6553 33.6464 8.86495 31.6041L9.72267 30.4361C12.2663 32.2976 15.4008 33.323 18.548 33.323C20.0137 33.323 21.4676 33.1052 22.8697 32.6761L23.2954 34.0608C21.7556 34.5323 20.1587 34.7711 18.5491 34.7711H18.548ZM24.977 33.4434L24.403 32.1137C24.4878 32.0777 24.5714 32.0407 24.6551 32.0027C28.8644 30.0999 31.8962 26.4234 32.9732 21.9172L34.3837 22.2533C33.2029 27.1983 29.8747 31.232 25.2523 33.3219C25.1602 33.3631 25.0681 33.4044 24.977 33.4434ZM7.47875 30.4678C5.86384 28.9868 4.5825 27.2183 3.6718 25.211C2.70815 23.0873 2.21997 20.8358 2.21997 18.5187C2.21997 17.9468 2.25068 17.3675 2.3121 16.7978L3.75439 16.9511C3.69933 17.4701 3.67074 17.9975 3.67074 18.5187C3.67074 20.6286 4.11551 22.6793 4.99338 24.6137C5.8236 26.4425 6.98952 28.0534 8.46041 29.4012L7.47875 30.4678ZM34.7035 20.4922L33.2644 20.3126C33.3406 19.7037 33.3798 19.0853 33.3798 18.4722C33.3798 16.3622 32.935 14.3116 32.0572 12.3771C31.2661 10.635 30.168 9.08748 28.7913 7.77672L29.7921 6.72919C31.3042 8.1679 32.5104 9.86765 33.3788 11.7799C34.3424 13.9035 34.8306 16.1551 34.8306 18.4722C34.8306 19.1445 34.7882 19.8242 34.7045 20.4922H34.7035ZM4.01596 15.3422L2.59908 15.0325C3.13173 12.6065 4.22775 10.2989 5.77066 8.35918C7.38871 6.32433 9.41562 4.74718 11.7972 3.67003C11.9804 3.58652 12.1668 3.50724 12.351 3.43218L12.9006 4.77149C12.7322 4.8402 12.5628 4.91314 12.3955 4.98925C10.2267 5.97021 8.37991 7.40679 6.90692 9.25983C5.50168 11.0272 4.50203 13.1308 4.01596 15.3432V15.3422ZM27.5471 6.71862C24.9611 4.75141 21.7482 3.66792 18.5014 3.66792C17.129 3.66792 15.763 3.85925 14.4435 4.23662L14.0443 2.84446C15.494 2.43008 16.9935 2.21973 18.5014 2.21973C22.0638 2.21973 25.588 3.40893 28.426 5.56641L27.5471 6.71756V6.71862Z" fill="white"/>
<path d="M16.4974 11.102C16.6055 11.2302 16.7146 11.3562 16.8247 11.4811C17.3573 11.3583 17.9111 11.2906 18.4809 11.2906C21.8346 11.2906 24.661 13.5419 25.5346 16.616C25.7019 16.652 25.8682 16.688 26.0366 16.7187C27.3655 16.9634 28.2021 17.1085 28.7242 17.1963C28.0285 12.161 23.7079 8.28418 18.4809 8.28418C17.1975 8.28418 15.968 8.51818 14.8339 8.94599C15.3178 9.60259 16.0188 10.5027 16.4964 11.102H16.4974Z" fill="white"/>
<path d="M25.8449 19.4892C27.4143 19.2012 28.3091 19.0465 28.8163 18.965C28.8195 18.8527 28.8227 18.7395 28.8227 18.6262C28.8227 18.5129 28.8206 18.3985 28.8163 18.2852C28.3091 18.2026 27.4143 18.049 25.8449 17.761C25.8174 17.7557 25.7888 17.7504 25.7612 17.7451C25.7962 18.0342 25.8163 18.3275 25.8163 18.6262C25.8163 18.9248 25.7962 19.217 25.7623 19.5062C25.7898 19.5009 25.8185 19.4955 25.846 19.4903L25.8449 19.4892Z" fill="white"/>
<path d="M15.6768 25.4779C15.6927 25.4588 15.7086 25.4408 15.7244 25.4228C13.04 24.3331 11.1466 21.7016 11.1466 18.6265C11.1466 15.5512 13.04 12.9186 15.7244 11.829C15.7086 11.8099 15.6916 11.7908 15.6757 11.7729C15.6757 11.7729 14.5247 10.3263 13.8406 9.38281C10.4593 11.0834 8.13916 14.5843 8.13916 18.6275C8.13916 22.6706 10.4593 26.1705 13.8406 27.8711C14.5247 26.9265 15.6768 25.48 15.6768 25.48V25.4779Z" fill="white"/>
<path d="M26.0366 20.5313C25.8693 20.562 25.702 20.5969 25.5358 20.634C24.6621 23.7082 21.8358 25.9606 18.4821 25.9606C17.9112 25.9606 17.3574 25.8928 16.8248 25.77C16.7147 25.8939 16.6055 26.0199 16.4986 26.148C16.021 26.7485 15.32 27.6485 14.835 28.3051C15.9691 28.733 17.1986 28.967 18.4821 28.967C23.709 28.967 28.0296 25.089 28.7254 20.0537C28.2032 20.1406 27.3667 20.2867 26.0377 20.5313H26.0366Z" fill="white"/>
<path d="M13.3979 23.977C14.8583 22.5272 17.1911 21.2904 20.0101 20.4422C20.0112 20.4422 20.0122 20.4411 20.0143 20.4401H20.0132C20.0132 20.4401 20.0122 20.4422 20.0112 20.4422C18.5403 21.2713 17.1731 22.3028 15.9797 23.4941C15.5339 23.9389 15.1071 24.4101 14.7079 24.8972L14.6538 24.9639C14.98 25.162 15.3221 25.3335 15.6779 25.4797C16.022 25.0667 16.3884 24.6642 16.7686 24.2851H16.7697C19.2678 21.7913 22.4055 20.1361 25.847 19.4901C25.8798 19.2064 25.8989 18.9183 25.8989 18.6261C25.8989 18.3338 25.8798 18.0447 25.847 17.7609C22.4055 17.1149 19.2667 15.4597 16.7686 12.967C16.3906 12.5879 16.0241 12.1865 15.6779 11.7725C15.321 11.9186 14.9779 12.0912 14.6528 12.2892L14.7068 12.3549C15.1071 12.8442 15.5349 13.3154 15.9786 13.758C17.1741 14.9504 18.5413 15.9819 20.0143 16.812C17.1932 15.9617 14.8603 14.7259 13.4001 13.2741L13.3863 13.2603C13.1162 13.5177 12.8652 13.7951 12.6355 14.0905C13.5377 14.979 14.711 15.788 16.1247 16.4923H16.1237C17.3701 17.1128 18.7975 17.6455 20.3373 18.0669H11.1074C11.0936 18.2512 11.0841 18.4376 11.0841 18.625C11.0841 18.8124 11.0936 18.9988 11.1074 19.1831H20.3394C18.7997 19.6035 17.3701 20.1361 16.1258 20.7578C14.7121 21.462 13.5398 22.271 12.6365 23.1594C12.8652 23.4549 13.1162 23.7323 13.3874 23.9897L13.4011 23.9759L13.3979 23.977Z" fill="white"/>
<path opacity="0.2" d="M30.0638 29.9865C36.407 23.5999 36.3731 13.2804 29.9865 6.93724C23.6 0.594079 13.2804 0.627965 6.93726 7.01454L30.0638 29.9865Z" fill="white"/>
<path d="M22.8555 12.7395C24.1315 13.6905 25.0877 15.0459 25.5346 16.6174C25.7019 16.6534 25.8682 16.6894 26.0365 16.7201C27.3656 16.9647 28.2021 17.1099 28.7242 17.1977C28.3334 14.3682 26.7969 11.9051 24.5995 10.2891L22.8555 12.7406V12.7395Z" fill="url(#paint0_linear_6201_6879)"/>
<path d="M22.8566 24.5109C24.1326 23.56 25.0889 22.2046 25.5357 20.6331C25.703 20.597 25.8693 20.5611 26.0377 20.5303C27.3667 20.2857 28.2033 20.1407 28.7253 20.0527C28.3346 22.8823 26.798 25.3455 24.6007 26.9614L22.8566 24.5099V24.5109Z" fill="url(#paint1_linear_6201_6879)"/>
</g>
</g>
<defs>
<linearGradient id="paint0_linear_6201_6879" x1="27.0912" y1="21.1053" x2="25.3864" y2="12.9862" gradientUnits="userSpaceOnUse">
<stop stop-color="#1A82FF" stop-opacity="0.5"/>
<stop offset="1" stop-color="white"/>
</linearGradient>
<linearGradient id="paint1_linear_6201_6879" x1="27.0913" y1="16.1452" x2="25.3864" y2="24.2642" gradientUnits="userSpaceOnUse">
<stop stop-color="#1A82FF" stop-opacity="0.5"/>
<stop offset="1" stop-color="white"/>
</linearGradient>
<clipPath id="clip0_6201_6879">
<rect width="37" height="37" fill="white"/>
</clipPath>
</defs>
</svg>
