<?xml version="1.0" encoding="UTF-8"?><svg xmlns="http://www.w3.org/2000/svg" viewBox="0 0 103.46 103.46"><defs><style>.f{fill:#fff;}.g{fill:#0192f6;fill-rule:evenodd;}</style></defs><g id="a"/><g id="b"><g id="c"><g id="d"><g id="e"><circle class="f" cx="51.73" cy="51.73" r="51.73"/></g></g><path class="g" d="M81.46,29.21c-5.65-7.22-13.93-11.8-23.1-11.8-17.73,0-30.7,16.47-30.7,34.32,0,12.44,8.26,21.75,17.44,21.75,.86,0,1.71-.08,2.55-.23-6.15-4.49-10.09-12.66-10.09-21.52,0-14.11,9.54-25.11,20.79-25.11,12.27,0,20.8,12.18,20.8,25.11-.03,9.54-3.43,19.03-9.42,26.03-5.23,6.11-11.99,9.99-19.44,11.22,0,0,.62,.05,1.43,.05,20.6,0,37.3-16.7,37.3-37.3,0-8.46-2.82-16.26-7.57-22.52Zm-5.66,22.52c0-12.44-8.26-21.75-17.44-21.75-.86,0-1.71,.08-2.55,.23,6.15,4.49,10.09,12.66,10.09,21.52,0,14.11-9.54,25.11-20.79,25.11-12.27,0-20.8-12.18-20.8-25.11,.03-9.54,3.43-19.03,9.42-26.03,5.23-6.11,12-9.99,19.44-11.22,0,0-.62-.05-1.43-.05C31.13,14.43,14.43,31.13,14.43,51.73c0,8.46,2.82,16.26,7.57,22.52,5.65,7.22,13.93,11.8,23.1,11.8,17.73,0,30.69-16.47,30.69-34.32Z"/></g></g></svg>