<svg id="Layer_1" data-name="Layer 1" xmlns="http://www.w3.org/2000/svg" xmlns:xlink="http://www.w3.org/1999/xlink" viewBox="0 0 297.19 297.19"><defs><style>.cls-1{fill:#17252a;}.cls-2{fill:url(#linear-gradient);}.cls-3{fill:#e0f2f5;}.cls-4{fill:url(#linear-gradient-2);}</style><linearGradient id="linear-gradient" x1="120.15" y1="1210.64" x2="256.66" y2="1176.6" gradientTransform="translate(0 -1055.36)" gradientUnits="userSpaceOnUse"><stop offset="0.23" stop-color="#287e7a"/><stop offset="0.75" stop-color="#3caea8"/></linearGradient><linearGradient id="linear-gradient-2" x1="195.39" y1="186.26" x2="238.38" y2="186.26" gradientTransform="matrix(1, 0, 0, 1, 0, 0)" xlink:href="#linear-gradient"/></defs><title>wusd circle svg</title><circle class="cls-1" cx="148.6" cy="148.6" r="148.6"/><path class="cls-2" d="M176,236.18a1.4,1.4,0,0,1-2.72,0L97.71,65.29h25.76A27.9,27.9,0,0,1,149,82.15l25.65,59,21.8-46.66a27.92,27.92,0,0,1,25.25-16.18H246Z"/><path class="cls-3" d="M117.86,144.48,122.7,133l20.8,46.6-25.87,56.63a1.47,1.47,0,0,1-1.87.93h0a1.59,1.59,0,0,1-.91-.92L36.5,65.61H63.65a29,29,0,0,1,26,16.76l26.65,58.72Z"/><circle class="cls-3" cx="216.89" cy="186.26" r="50.97"/><path class="cls-4" d="M195.39,202.45l10.07-7.57a13.83,13.83,0,0,0,9.36,6.09V190.59l-3.59-1.17c-8.11-2.73-13.26-7.25-13.26-15.76,0-10,8.59-14.74,16.85-15.36v-6.72h5.7v6.87c7.18.86,11.62,4.06,14.12,7.34l-8,8.11a10.7,10.7,0,0,0-6.16-3.9v9.28l2.57.86c11.7,4.06,15.29,9.21,15.29,17.17,0,8.81-6.63,14.35-17.86,15.21v8.42h-5.7V212.6C205.07,212,198.67,207.06,195.39,202.45Zm15.69-29c0,1.95,1.09,2.81,3.74,3.82v-7.33C212.32,170.39,211.08,171.56,211.08,173.43ZM225,196.84c0-2-1.26-3.12-4.45-4.3v8.35C223.49,200.35,225,199,225,196.84Z"/></svg>