<svg xmlns="http://www.w3.org/2000/svg" width="96" height="96" fill="none"><ellipse cx="48" cy="47.98" fill="#FF5C0D" rx="48" ry="47.98"/><mask id="a" width="96" height="96" x="0" y="0" maskUnits="userSpaceOnUse" style="mask-type:alpha"><ellipse cx="48" cy="47.98" fill="#fff" rx="48" ry="47.98"/></mask><g fill-rule="evenodd" clip-rule="evenodd" mask="url(#a)"><path fill="#FAD986" d="M57.563 40.096c1.465-.277 2.614.798 2.823 1.98.26 1.472-.78 2.611-1.98 2.83-1.459.266-2.627-.79-2.837-1.973-.265-1.506.77-2.604 1.994-2.837m-19.595 0c1.464-.277 2.613.798 2.822 1.98.26 1.472-.78 2.611-1.98 2.83-1.458.266-2.628-.79-2.836-1.973-.266-1.506.77-2.604 1.994-2.837m14.471-7.646c.106.571.336 1.257.486 1.861 1.17 4.68 1.574 10.235 1.28 15.013-.021.353-.331 3.022-.295 3.158l.34.879c1.136 3.502-1.021 7.565-5.385 8.121-.1.457.287 1.248.473 1.541.271.425.627.76 1.073 1.027.7.42 1.727.486 2.441-.04.724-.533 1.118.588-.645.94-1.627.326-3.106-.766-3.717-2.236l-.118-.208-.106.178c-1.518 3.437-4.921 2.205-4.994 1.514-.04-.38.362-.376.57-.224 1.753 1.268 4.06-.586 4.055-2.47-4.238-.407-6.66-4.246-5.613-8.01.366-1.32.398-.44.217-1.899a43 43 0 0 1-.215-2.186c-.336-4.675.125-10.46 1.266-15.063l.503-1.928a32 32 0 0 0-3.577.482c-.567.108-2.28.486-2.855.702-.173.066-.182.134-.338.17-1.061.248-.984.219-1.225.797-2.258 5.436-4.063 11.519-4.905 17.475-.6 4.237-.935 11.164 1.713 13.728 1.227 1.188 2.113.804 3.112.814 6.723.063 13.578-.007 20.325.02q2.036.01 4.074.01c1.244 0 2.109.244 3.196-.802 2.707-2.608 2.368-9.367 1.768-13.693-.803-5.792-2.66-12.13-4.879-17.46-.43-1.031-.209-.608-1.166-.895-.124-.038-.151-.096-.32-.15-.133-.041-.269-.075-.4-.11l-2.524-.564c-1.134-.206-2.437-.42-3.614-.492"/><path fill="#000" d="M52.41 106.616c.24.023.727.294 1.01.39.374.126.71.234 1.094.318 2.095.459 4.571.215 6.31-1.081.253-.188.182-.102.326-.39.477.156.471.292 1.295.403.6.081.98.035 1.546-.106.79-.198 1.75-.969 2.136-1.379.531-.567 1.122-1.099 1.99-1.48.882-.387 1.635-.813 2.798-.691 1.413.148 2.536.879 3.226 1.998.805 1.303.469 3.151.265 4.547-.097.671-.177.841-.61 1.152-.414.298-1.758 1.03-2.269 1.207-.808.282-1.36.317-2.118.494-.53.123-1.954.085-2.51.047-1.108-.075-2.31-.038-3.434-.032-.333.001-.493.078-.77.083-1.048.017-1.562.127-2.487.181-1.517.089-5.314.335-6.44-.385-.684-.437-1.157-1.05-1.333-2.144-.17-1.061-.382-2.086-.025-3.132M56.757 113c.195-.011.356-.034.532-.042.67-.031 1.555-.004 1.966-.02 1.341-.052 2.61-.281 3.997-.281.77 0 1.195-.043 2.015-.043 1.436 0 2.805.07 4.202.001.676-.033 1.913-.375 2.555-.618.558-.211 1.202-.626 1.72-.938.666-.402.99-.715 1.19-1.512.338-1.352.51-2.949.114-4.269-.043-.146-.068-.287-.121-.436-.111-.31-.162-.449-.347-.725-.67-1.003-1.354-1.445-2.428-1.861-1.128-.436-2.434-.384-3.553.099-.486.209-.983.418-1.429.714-.223.149-.414.293-.623.449-.324.242-.826.729-1.12 1.024-.927.936-2.16 1.358-3.481 1.016-.212-.055-.241-.108-.41-.148.046-.173.2-.249.301-.385.514-.688.875-1.466 1.32-2.196.184-.301.337-.614.482-.934.208-.461.46-.927.636-1.422.07-.196.148-.311.215-.514l.375-1.04c.124-.371.22-.696.343-1.072.373-1.133.85-3.516.915-4.702.05-.906.127-1.77.13-2.701l-.125-1.975c-.022-.26-.047-.408-.047-.682.03.034.022.018.053.076.035.067.02.043.051.12l.741 1.574c.075.164.15.259.227.416.539 1.096 1.352 2.172 2.34 2.891.17.124.232.142.402.241.197.114.657.377.945.384.011.523.303.869.581 1.22.111.14.184.173.309.292.216.205.438.338.755.446.407.138.53.144 1.056.144.24.5.314 2.573 1.758 2.574.525 0 .776-.322.973-.744.105-.226.132-.474.228-.672.619.414.972 2.176 1.072 2.787.063.393.16.667.379.907.23.252.536.402.908.383.735-.039 1.024-1.442 1.2-2.019l.396-1.575c.276-1.302.584-1.543.235-3.387-.061-.325-.147-.7-.229-1.057-.155-.68-.332-1.34-.598-1.974-.073-.174-.131-.294-.185-.458s-.143-.365-.177-.51c.543-.287 1.165-1.255.844-2.215-.218-.653-.88-1.621-1.7-1.43-.164-.702-.455-1.316-.801-1.943-.165-.3-.349-.574-.529-.844-1.599-2.398-3.489-3.762-5.935-5.213l-.925-.49a33 33 0 0 1-2.599-1.56c-.15-.1-.276-.167-.416-.271-.118-.088-.319-.232-.46-.27.016-.185.197-.407.293-.566a8.9 8.9 0 0 0 1.184-3.233c.05-.332.107-.336.336-.564a31 31 0 0 0 2.104-2.355 23 23 0 0 0 1.806-2.61c.398-.66.74-1.316 1.068-2.02l.399-.93c.085-.254.167-.412.24-.661.064-.224.15-.435.214-.686.119-.465.219-.91.316-1.443.054-.296.076-.475.111-.788.026-.23.08-.56.08-.821-.002-.582.051-.978.043-1.632-.004-.283-.047-.511-.044-.857.002-.331-.044-.505-.044-.857.153.103.319.367.461.526.311.348.558.771.825 1.147.106.15.34.452.665.323.357-.142.442-.999.545-1.43.332-1.399.688-3.9.678-5.325l.045-1.417c-.004-.231-.04-.252-.046-.468-.02-.661-.016-1.295-.102-1.914-.256-1.846-.57-4.032-1.19-5.757-.457-1.277-.706-2.323-1.366-3.65-.214-.432-.4-.91-.65-1.322l-.547-.955c-.091-.147-.16-.16-.175-.34.289.138 1.153.224 1.55.337.743.213.948-.066.58-.795-.149-.295-.287-.574-.457-.83-.331-.498-.633-1.054-.993-1.536l-.801-1.128c-.365-.467-.723-.968-1.133-1.397l-.902-1.028c-.38-.454-.863-.872-1.284-1.289l-1.723-1.492c-.118-.093-.285-.167-.325-.318.234-.063.688-.51.84-.704 1.108-1.418 1.122-3.178-.012-4.584a3.46 3.46 0 0 0-2.671-1.274c-.315 0-.514.043-.773.043-.072-.15-.133-.464-.197-.66a9 9 0 0 0-.674-1.513c-.369-.665-.813-1.262-1.278-1.852-.151-.19-.29-.297-.43-.471-.111-.14-.101-.11-.21-.22-.075-.075-.116-.15-.205-.222l-1.447-1.212c-1.046-.79-2.214-1.4-3.43-1.887-1.189-.475-3.03-.967-4.347-.97-1.56-.002-2.588.055-3.855.566l-.625.275c-.218.105-.393.186-.591.31-1.029.644-.094.304-2.252-.561a6 6 0 0 0-.674-.227c-2.43-.692-5.2-.35-7.528.582l-1.816.842c-.223.118-.362.204-.572.33l-2.035 1.48c-.174.139-.286.3-.466.435-.38.288-.948 1.022-1.257 1.402a9.3 9.3 0 0 0-1.58 2.88c-.058.175-.135.54-.208.692-.868 0-1.486-.192-2.576.469-.19.115-.27.191-.439.333-1.149.966-1.533 2.54-1.043 3.985.178.524.897 1.585 1.442 1.731-.04.15-.987.88-1.164 1.023-.686.553-1.54 1.397-2.127 2.032-.617.667-1.232 1.357-1.774 2.084l-.539.705c-.094.116-.189.259-.27.373-.09.127-.168.26-.258.386l-.383.56c-.049.075-.081.138-.13.212-.087.13-.177.255-.256.387l-.703 1.227c-.137.273-.37.685.013.876.22.11.805-.108 1.039-.167a9 9 0 0 1 .53-.113c.177-.032.409-.05.534-.11-.015.17-.064.162-.159.314-.076.123-.13.191-.199.315l-.686 1.286c-.575 1.148-1.04 2.341-1.45 3.568a31 31 0 0 0-1.195 4.765 24 24 0 0 0-.34 3.647l-.046.942c-.002.927.11 1.931.17 2.83.022.319.061.568.107.88.047.327.07.594.122.908.088.524.188 1.118.314 1.658.102.44.197 1.323.553 1.464.531.211 1.003-.915 1.47-1.448.136-.156.337-.452.48-.547l-.04 1.244c-.006.212-.04.215-.046.426-.033 1.09.05 2.224.228 3.249.195 1.126.426 1.773.765 2.794.075.226.166.418.257.642l.28.622c.38.793.843 1.517 1.287 2.271.22.374.467.696.708 1.05.12.177.252.361.377.523.579.752 1.192 1.46 1.834 2.154.097.104.111.153.213.258l.647.64c.155.171.267 1.205.485 1.787.243.646.533 1.24.865 1.837.067.119.089.17.158.27.068.1.137.17.172.3-.094.128-.629.447-.806.566-.796.534-1.736 1.073-2.579 1.537-.292.161-.6.298-.895.477-1.98 1.204-3.888 2.473-5.3 4.348-.804 1.066-1.604 2.296-1.912 3.62-.806-.188-1.47.753-1.69 1.398-.33.972.269 1.949.833 2.247-.153.652-.49 1.226-.692 1.881-.193.623-.35 1.386-.491 2.082-.125.614-.216 1.743-.062 2.342l.275 1.011c.118.526.219 1.07.392 1.58.059.175.101.348.14.504.17.695.645 1.952 1.554 1.494.302-.152.523-.345.67-.659.185-.39.245-1.16.347-1.583.09-.37.26-.846.436-1.15.11-.19.242-.471.43-.598.182.378.215.86.546 1.17.537.5 1.418.167 1.741-.384l.292-.566c.147-.409.199-1.001.38-1.378.717 0 1.314-.115 1.81-.59.126-.118.199-.151.31-.292.277-.351.57-.696.58-1.22.677-.015 1.94-1.01 2.366-1.536.2-.249.396-.48.577-.752.185-.278.325-.505.496-.79l.476-.854c.076-.165.132-.28.203-.44l.642-1.33-.092 1.28c-.116 1.082-.03 1.734-.036 2.708-.007 1.186.23 2.608.434 3.769.063.36.167.786.26 1.154.095.372.18.748.297 1.118l.504 1.555c.543 1.651 1.91 4.279 2.86 5.63.091.129.064.079.165.178.083.081.122.116.153.232-.164.038-.185.087-.375.138-.437.119-.904.18-1.376.112-1.664-.239-2.251-1.394-3.235-2.125-.988-.736-1.648-1.069-2.855-1.433-.854-.257-1.97-.15-2.744.14-1.182.443-1.958 1.005-2.632 2.128-.076.127-.093.26-.149.408-.089.235-.18.583-.232.84-.204 1.025-.144 1.908.003 2.966l.179.893c.195.658.256.89.827 1.317.42.316 1.514.964 2.039 1.177.529.214 1.1.36 1.67.474.684.137.757.147 1.42.166.216.007.237.044.468.046 1.068.013 2.107-.045 3.175-.045 1.027 0 3.151.026 4.049.154.66.093 1.292.1 1.98.164.16.015.242-.005.353.008.512.063 1.077.009 1.595.016.285.003.431.035.714.044h.294c.435-.016 1.654-.128 1.886-.192 1.345-.373 2.325-1.285 2.625-2.691.067-.314.098-.596.147-.926l.076-.907c.043-.791.033-1.748-.4-2.256-.185-.215-.152.011-.219-.339-.896-4.71.828-5.759.921-6.11.386 0 .928.169 1.359.228.177.024.551.054.744.07.356.03 1.838-.1 2.272-.125.502-.027.931-.176 1.413-.216.098.184.093.145.225.29.074.081.156.194.223.292.502.735.646 1.547.747 2.468.058.525.008 1.608-.06 2.072-.06.404-.072.768-.191 1.137-.058.177-.252.277-.343.473-.26.565-.267 1.062-.258 1.889.007.616.094 1.279.204 1.853.205 1.064.828 2.031 1.807 2.481.906.416 1.708.455 2.703.509h.419zm-21.077-7.148c.168.337.28.382.733.669 2.016 1.274 4.754 1.237 6.963.495.284-.095.81-.378 1.043-.401.356 1.043.146 2.04-.02 3.093-.176 1.123-.638 1.734-1.339 2.183-1.125.72-4.921.473-6.44.384-.819-.048-1.505-.181-2.401-.181-.327 0-.473-.08-.812-.083-1.135-.008-2.36-.044-3.478.032-1.418.097-1.891.072-3.19-.181-1.376-.267-1.462-.331-2.597-.919a10 10 0 0 1-1.085-.63c-.42-.295-.536-.466-.629-1.129-.188-1.34-.544-3.295.243-4.561 1.008-1.622 2.875-2.395 4.768-1.864.539.151.781.312 1.241.517.8.356 1.416.847 2.022 1.494.376.401 1.336 1.172 2.101 1.371.759.196 1.478.212 2.248-.031.243-.075.432-.194.628-.258m38.452-10.39c.235-.159 1.088-.32 1.629-1.04.077-.102.282-.45.396-.5.49.002.858-.078 1.244-.26.824-.392 1.421-1.217 1.669-2.104.049-.179.08-.48.131-.625.433.534 1.154 4.027.957 4.933-.078.356-.207.76-.304 1.153-.098.4-.173.83-.277 1.218-.094.347-.232.813-.342 1.16-.06.187-.138.331-.227.501-.093.18-.157.378-.433.222-.607-.34-.263-1.696-1.187-3.275-.132-.226-.498-.703-.762-.75-1.09-.198-.585 1.658-1.523 1.408-.59-.156-.91-1.553-.971-2.041m-56.505-4.529c.099.277.048.552.324 1.159.905 1.99 2.737 1.826 2.763 1.838.102.103.262.371.354.493.541.72 1.383.873 1.628 1.04-.122.663-.373 1.85-.938 2.032-.976.314-.454-1.598-1.556-1.399-.538.097-1.04 1.263-1.208 1.761-.35 1.035-.265 1.999-.74 2.266-.259.144-.322-.008-.42-.194-.325-.623-.37-.958-.574-1.657-.106-.363-.183-.832-.279-1.218-.096-.384-.233-.826-.312-1.187-.195-.907.526-4.4.958-4.934m30.35-3.742-.795-.772c-.18.077-.316.162-.5.236-.18.071-.342.13-.502.183-1.758.599-4.153.385-5.84-.325-1.259-.53-2.362-1.164-3.343-2.146l-.493-.535c-.726-.815-1.294-1.788-1.571-2.888-.313-1.244.035-1.578-.356-1.703-.178-.057-.318-.116-.571-.116-.056.238-.339.701-.458.958-1.427 3.08-2.373 6.669-2.373 10.105 0 .914-.029 1.923.074 2.713.031.238.038.444.059.67.146 1.58.629 3.553 1.137 5.08l1.683 3.892c.257.472.977 1.756 1.303 2.128.115.131.303.569.603.812.361.294.14.184.319.367.474.488 2.183 1.034 3.016 1.1.913.073 1.77.068 2.595-.1 1.375-.28 1.78-.599 2.076-.668 0-.354-.088-.599-.142-.931-.235-1.445-.276-3.297.3-4.656.124-.29.206-.459.365-.708.224-.35.372-.405.378-.652l-1.058-.486c-.338-.168-.717-.29-.915-.585.042-.08.104-.19.2-.222.282-.093 1.895 1.402 4.735 1.334.566.013 1.74-.03 2.245-.106.162-.025.273-.041.412-.06 1.12-.152 1.555-.285 2.481-.82.104-.06.2-.097.31-.162.102-.06.214-.123.343-.122.053.001.1.013.146.046.114.078-.006-.01.066.064l.039.048c-.127.237-.426.292-.941.602-.23.138-.757.443-1.075.47 0 .302.14.33.368.703.412.673.676 1.549.746 2.384.193 2.277-.256 3.113-.256 3.859l1.012.403c1.872.616 4.346.606 6.092-.373.087-.049.15-.073.227-.117.1-.058.326-.199.395-.291.237-.315-.059-.013.326-.361.251-.227.432-.634.599-.815.478-.521 1.63-2.815 1.998-3.576.58-1.199 1.107-2.818 1.443-4.089.262-.988.434-1.865.57-2.903l.141-1.23c.06-.408.06-.915.06-1.355 0-2.3-.005-2.894-.373-5.158-.297-1.828-.905-3.637-1.604-5.341-.14-.343-.841-1.762-.852-1.893-.28 0-.38.064-.594.134-.067.022-.204.053-.267.077-.132.051-.12.028-.155.188-.064.296.066.475-.116 1.299-.925 4.16-5.986 7.047-10.291 6.34-.505-.083-1.183-.26-1.626-.476-.194-.094-.262-.145-.477-.208-.077.093-.19.178-.296.262-.113.092-.172.163-.292.264-.262.22-.332.417-.73.228m23.479 6.438c1.267-.044 1.784-.25 2.795-.717 1.95-.899 3.515-2.547 4.228-4.563.225-.637.188-.888.229-1.573.52-.1 1.046.701 1.083 1.234.053.755-.385 1.241-.902 1.435-.605.227-.073.727-.413 1.946-.249.892-.867 1.624-1.706 1.849-.297.08-.96.001-1.085.119-.129.12-.244.817-1.148 1.254-.544.262-1.273.486-1.925.235-.46-.176-1.043-.73-1.156-1.219m-53.334-6.852c.079 1.324.107 1.492.772 2.744.787 1.48 2.117 2.66 3.654 3.378.416.195.804.355 1.254.504.63.209.875.202 1.57.226-.111.483-.683 1.028-1.123 1.207-.885.36-2.306-.14-2.866-1.03-.067-.107-.14-.316-.2-.401-.23-.322-.867.198-1.866-.534-.72-.528-1.106-1.506-1.092-2.468.006-.398.13-.799-.253-.946-1.713-.658-.71-2.847.15-2.68m47.96 1.01H30.748zm-32.745-8.492c-.087.275-.293.639-.423.922-.14.307-.295.634-.396.942-.418.856-.83 2.24-1.086 3.237-.165.641-.34 1.022-.59 1.598-.198.459-.447 1.081-.683 1.497l-.88 1.873c-.236.455-.842 1.578-1.135 1.812-.258.43-1.305 1.456-1.986 1.585-.29.236-.996.296-1.433.234-1.18-.167-2.697-.998-3.527-1.66-.877-.698-2.539-2.634-2.45-4.496.023-.548.174-.943.358-1.39.13-.315.421-.953.615-1.143.104-.325 1.088-1.648 1.299-1.828.132-.262 1.343-1.466 1.621-1.595.169-.182.429-.358.642-.519 1.39-1.052 2.219-1.42 3.667-2.25l1.504-.874 1.643-1.054.638.758c.378.31.655.657 1.26 1.107.769.57.958.554 1.5.904zm33.343-3.138c.269.114.587.373.845.539.248.159.663.376.852.544l3.021 1.714c.478.285 1.008.596 1.453.905.297.207 1.131.8 1.339 1.023.278.13 1.489 1.334 1.621 1.595.21.18 1.195 1.503 1.299 1.828.194.19.484.829.614 1.143.185.448.336.842.358 1.39.089 1.846-1.558 3.78-2.424 4.478-.84.676-2.326 1.485-3.515 1.673-.438.07-1.17.016-1.47-.228-.68-.129-1.728-1.155-1.987-1.585-.292-.234-.898-1.357-1.135-1.812l-.879-1.873c-.233-.408-.477-1.023-.67-1.466-.242-.553-.433-.969-.594-1.594-.263-1.016-.67-2.4-1.096-3.272-.1-.307-.254-.634-.395-.94-.13-.284-.336-.647-.424-.923l-.212-.38c.155-.145 1.025-.535 1.816-1.247.485-.437.729-.643 1.148-1.167.096-.121.243-.326.352-.408zM28.892 72.34c.131.064.055.023.164.119l.425.387c.592.555 1.694 1.397 2.342 1.989 1.34 1.222 1.111-.757 1.222-1.263.168.43.727 1.226 1.027 1.586.765.918 2.447 2.65 3.31 3.335.698.555 2.628 2.525 3.449 3.285.46.426 1.129 1.23 1.599.923.464-.305.426-1.572.486-2.214.103.103.138.248.198.383.057.132.117.25.194.405.652 1.345 1.866 3.015 2.876 4.112.104.112.174.211.278.323.131.14.205.147.287.319-.676.5-2.517.675-3.43.614a9.7 9.7 0 0 1-3.263-.829c-2.278-1.011-4.319-3.05-4.7-5.502-.202-1.3.032-1.43-.508-1.555-1.126-.259-1.994-.805-2.724-1.392a9.3 9.3 0 0 1-1.958-2.157c-.37-.563-1.18-2.054-1.274-2.868M49.74 86.029l1.132-1.273c2.048-2.514 2.59-4.285 2.766-4.521.062.606.055 1.957.373 2.342.457.556 1.062-.177 1.62-.696l2.043-1.987c.24-.229.487-.428.714-.658l1.749-1.597c.909-.794 2.959-2.948 3.39-4.067.115.52-.06 1.622.54 1.65.297.013 1.043-.677 1.287-.898.45-.41 1.417-1.165 1.76-1.499.116-.115.441-.436.585-.516-.108.848-.853 2.261-1.24 2.864-.52.806-1.281 1.68-1.938 2.178-2.661 2.02-3.179 1.051-3.183 1.945-.004.804-.271 1.855-.578 2.57-.727 1.693-2.502 3.221-4.272 4.005-1.562.692-3.432 1.044-5.184.698-.434-.086-1.295-.307-1.564-.54M47.808 49.69c1.636-.202 3.308.586 4.144 1.369 3.8 3.554 1.334 9.424-3.15 9.72-5.365.353-7.786-5.744-4.675-9.226.86-.963 1.897-1.643 3.68-1.863m-3.116-17.347c2.278-.074 4.853-.212 7.106.052.044.422.288 1.118.401 1.564 1.284 5.032 1.959 12.428 1.168 17.583-.085-.057-.353-.41-.441-.511-1.861-2.134-5.111-2.715-7.738-1.244-1.106.619-1.292 1.009-1.925 1.716l-.139.114c-.525-4.292-.397-8.544.206-12.82.159-1.12.362-2.222.596-3.308zm16.612 2.772c-.052-.229-.484-1.143-.46-1.252.011-.057.084-.16.122-.335.316-1.487 1.64-2.526 2.527-2.026 1.008.568.521 2.704-.766 3.447-.709.409-.783.11-1.423.166m-27.99-3.69c.934-.287 1.791.778 2.069 1.3.092.174.175.408.229.625.089.357.123.392-.016.71l-.372.915c-.084.156-.06.117-.267.163-1.914.432-3.293-3.205-1.643-3.713M52.44 32.45c1.178.072 2.48.286 3.613.49l2.525.564q.197.05.4.11c.168.054.195.112.32.15.957.287.736-.137 1.166.895 2.218 5.33 4.076 11.668 4.878 17.46.6 4.326.94 11.085-1.768 13.692-1.087 1.047-1.952.802-3.196.803a802 802 0 0 1-4.074-.01c-6.746-.027-13.601.043-20.325-.02-.998-.01-1.884.374-3.112-.814-2.647-2.564-2.312-9.491-1.713-13.728.843-5.956 2.646-12.04 4.906-17.475.24-.578.163-.549 1.225-.797.155-.036.165-.105.338-.17.573-.218 2.288-.595 2.854-.702a32 32 0 0 1 3.577-.483l-.502 1.929c-1.142 4.603-1.603 10.387-1.267 15.063q.08 1.096.216 2.186c.18 1.46.149.578-.218 1.899-1.046 3.764 1.375 7.602 5.613 8.01.006 1.884-2.302 3.737-4.055 2.47-.209-.152-.609-.157-.57.224.073.69 3.477 1.923 4.995-1.514l.105-.178.118.208c.612 1.47 2.09 2.562 3.717 2.236 1.764-.352 1.369-1.473.646-.94-.715.527-1.74.461-2.442.04a3.2 3.2 0 0 1-1.072-1.027c-.187-.293-.574-1.084-.473-1.54 4.363-.557 6.52-4.62 5.384-8.122l-.34-.88c-.035-.134.274-2.804.296-3.157.293-4.779-.111-10.333-1.28-15.013-.15-.602-.38-1.288-.485-1.859m7.228.735c.232-.738-.212-.057.042-1.295.628-3.049 4.198-3.99 5.855-1.817 1.477 1.938.621 4.868-1.394 5.764-1.55.688-1.894-.052-2.378.406-.088-.11-.149-.31-.198-.463.732-.017.98 0 1.525-.35 1.174-.752 1.964-2.574 1.295-3.82-.919-1.713-3.6-.626-4.052 1.774zm-24.89 2.949c-.611-.133-1.334.23-2.449-.354a3.74 3.74 0 0 1-1.453-1.376c-.826-1.422-.755-3.158.193-4.355 1.992-2.52 6.201-.745 5.893 3.114l-.682.24c-.112-.178-.115-.642-.56-1.313-.93-1.4-2.714-1.85-3.49-.535-.715 1.215.041 3.039 1.213 3.84.492.337.747.358 1.443.4zm31.708-16.556c1.709-.27 3.157 1.116 3.321 2.604a2.995 2.995 0 0 1-2.624 3.322c-1.748.198-3.147-1.113-3.31-2.598-.191-1.719.917-3.06 2.613-3.328m-37.091-.001c1.727-.263 3.15 1.15 3.307 2.613a2.995 2.995 0 0 1-2.606 3.314 3 3 0 0 1-3.328-2.594c-.112-.96.24-1.788.683-2.311.446-.525 1.042-.885 1.944-1.022m8.381-.795c.42-.043 1.556.129 1.97.232.098.326.365 1.222.34 1.575.212.335.155 2.64.141 3.093-.002.06 0 .167-.005.217l-.051.177c.115.874-.879 4.68-1.27 5.29-.06.22-.227.64-.345.806-.12.345-.792 1.574-.99 1.807-.053-.1-.19-.739-.271-.95-.101-.26-.358-.671-.394-.83l-.184-.222c-.439-.647-1.214-1.108-1.288-1.207-.286-.045-1.092-.677-2.5-.464a3.67 3.67 0 0 0-1.638.679c-.097.072-.29.26-.401.295l-.444.576c-.812 1.136-.617 1.928-.79 2.178.114.76-.048 1.037.37 2.063.241.593.577 1.067.962 1.44.892.86 1.824 1.356 3.54 1.164l-.959 2.754c-.842 2.51-1.921 6.166-2.377 8.708-.134.828-.318 1.636-.455 2.476-.664 4.077-1.669 13.551 2.38 16.128q.117.077.244.14c.039.02.079.035.117.056.147.08.051.005.134.092.172.009.486.134.706.176.863.162 1.11-.017 1.703-.028.313-.006.632 0 .945 0l22.383.028c.613 0 1.164-.003 1.762.047.794.066 1.014-.09 1.659-.197l.058-.035c.675-.35.943-.437 1.604-1.231 2.668-3.203 1.995-10.974 1.354-14.948-.137-.845-.315-1.657-.448-2.488-.256-1.582-1.058-4.422-1.506-6.022a60 60 0 0 0-.904-2.87l-.984-2.822c2.203.387 3.914-.814 4.633-2.537.41-.985.272-1.27.384-2.057-.081-.117-.108-.64-.157-.835-.174-.704-.482-1.225-.935-1.764-.033-.04-.028-.034-.061-.078l-.04-.06c-.1-.046-.285-.229-.418-.33-1.989-1.502-3.954-.264-4.164-.235-.048.067-.524.395-.823.689-.38.373-.355.359-.623.754-.004.006-.016.035-.02.028-.002-.007-.011.019-.018.027-.55.883-.545 1.453-.64 1.657-.035.077-.014.04-.06.09-.232-.531-.757-1.197-.987-1.84l-.356-.84c-.384-.598-1.373-4.386-1.257-5.256-.026-.044-.014.004-.04-.1-.099-.384-.037-3.36.166-3.646-.013-.317.211-1.025.299-1.317.362-.09 1.352-.273 1.707-.202.13-.083.535-.077.687-.076l2.076.004c-.028.973-.866 2.078-.74 2.715.093.077.308.111.403.192.517-.036 2.023.723 2.33.96.11 1.718 1.128 2.905 2.52 3.32.417.125.838.188 1.299.151.716-.056.933-.315 1.19-.156.554.343 2.585 2.256 3.075 2.76 1.06 1.094 1.738 1.968 2.657 3.176.408.536.76 1.133 1.149 1.708l.362.595c.093.154.277.462.325.637-.679-.088-2.092-.561-2.337-.279-.21.243.018.49.105.672.26.235.949 1.521 1.18 2.014 1.947 4.163 3.003 8.411 2.93 13.107-.028 1.682-.266 4.144-.682 5.671l-.22.972c-.137-.12-.42-.591-.554-.77-.404-.537-1.843-2.588-1.763-.777.068 2.425.282 3.715-.376 6.264-.765 2.96-2.73 5.902-4.737 8.133l-1.246 1.328c-.328.31-2.403 2.239-2.708 2.415-.124.17-1.245 1.047-1.3 1.072-.076-.586-.042-1.866-.3-1.983-.273-.084-.413.129-.518.274l-.353.523c-.096.535-1.313 1.906-1.61 2.23-.82.889-1.567 1.58-2.46 2.386l-1.52 1.396c-.35.328-.631.638-.971.958-.321.303-.696.641-.992.962-.043.056-.886.822-1.015.862-.214-.305-.258-2.137-.323-2.778-.029-.28-.025-.781-.072-1.012-.178-.15-.398-.189-.481.12-.257.945-.132.883-.645 2.05-.728 1.653-1.716 3.01-2.852 4.306-.271.31-1.527 1.647-1.852 1.756-1.047-1.077-1.36-1.226-2.428-2.58a21 21 0 0 1-.735-.98 16.4 16.4 0 0 1-1.261-2.083c-.794-1.572-.58-2.262-.756-2.62-.531-.066-.453.21-.498.666-.07.715-.152 2.858-.36 3.156-.181-.055-1.134-.951-1.246-1.127-.102-.02-.143-.098-.233-.197l-.748-.71c-.332-.312-.635-.642-.974-.956l-1.518-1.397c-.799-.704-1.24-1.153-1.974-1.884-.17-.17-.298-.345-.467-.521a9 9 0 0 1-.87-1.06c-.17-.243-.633-.962-.711-1.243-.174-.153-.371-.646-.7-.497-.257.118-.224 1.398-.298 1.983-.161-.073-.655-.505-.81-.64l-.793-.678c-.533-.395-1.218-1.082-1.722-1.522-.718-.627-1.093-1.135-1.622-1.638-.863-.822-2.238-2.707-2.862-3.697-1.398-2.218-2.376-4.451-2.603-7.213-.093-1.124.012-2.109-.007-3.193.005-.337.183-1.2-.113-1.32-.602-.244-1.826 1.96-2.166 2.24l-.286-1.314c-1.123-5.876-.655-10.977 1.462-16.471.268-.695 1.68-3.864 2.178-4.17.31-1.066-1.158-.363-2.367-.206.053-.191.685-1.32.837-1.427.098-.3.924-1.403 1.143-1.713.834-1.174 1.7-2.087 2.64-3.108.345-.376 2.782-2.632 3.073-2.683.047-.008.94.212 1.234.22 1.857.047 3.51-1.305 3.65-3.48.286-.22 1.688-.926 2.166-.94.217-.123.323-.01.568-.212.125-.637-.713-1.742-.74-2.715.395-.028 2.256-.046 2.498.041m19.3-.373c.077-.16.135-.314.215-.472.53-1.058 1.574-2.187 2.83-2.187.939 0 1.147.063 2 .486.874.433 1.604 1.143 2.232 1.886l.663.88c.079.107.172.216.207.35a3.6 3.6 0 0 0-1.238 1.035c-.568.76-.586 1.362-.692 1.581-.444-.235-1.596-.845-2.187-.858.055-.236.329-.761.446-1.098.717-2.057.053-1.817-1.346-1.817-.597 0-1.778.023-2.377.11-.255.035-.534.085-.753.104m-22.34.257c0 1.086.613 1.942.73 2.444-.59.013-1.742.622-2.187.858-.08-.169-.08-.435-.272-.844a4 4 0 0 0-.42-.737 3.6 3.6 0 0 0-1.238-1.035c.04-.151.299-.48.404-.625.676-.94 1.626-1.96 2.669-2.477.871-.431 1.067-.5 2.03-.5.854 0 1.774.635 2.248 1.266.528.705.478.73.795 1.391-.457-.038-.937-.156-1.5-.172l-2.66-.042c-.308.001-.598.164-.598.473m13.695-6.523c.324-.18.604-.446.996-.655 4.168-2.221 10.275-.04 13.268 2.974.938.944 2.243 2.53 2.6 3.9-.588-.575-.649-1.035-2.014-2.084-.708-.543-1.748-1.122-2.946-1.122-2.306-.002-3.597 2.063-4.15 4.03-.899 3.204-.309 7.384.978 10.457.206.492.417.948.648 1.407l.736 1.305c-.389-.052-.805-.166-1.198-.24-2.988-.577-6.009-.754-9.065-.81-1.898.03-3.677.05-5.54.255-1.312.143-2.478.317-3.737.64-.336.085-.788.262-1.099.318.082-.19.282-.465.406-.67.407-.672.715-1.304 1.033-2.054.405-.957.755-2.021 1.003-3.116.533-2.352.693-5.067.066-7.392-1.067-3.947-4.088-5.339-7.123-3.009-1.364 1.046-1.418 1.497-2.015 2.084.357-1.364 1.705-3.03 2.664-3.964 2.858-2.786 8.188-4.786 12.251-3.332.402.144.815.332 1.143.532.62.38.62.559 1.095.546"/><path fill="#D99440" d="M33.413 73.134c.079.28.542 1 .712 1.243.266.38.561.74.87 1.06.169.174.297.35.466.52.734.732 1.176 1.18 1.975 1.884l1.517 1.397c.34.315.643.644.974.956l.749.71c.088.099.131.176.233.197.198.122.046.044.103-.003-.504-2.971-.09-6.758.73-9.677.13-.462.275-.92.423-1.373.15-.462.244-1.082.847-.948.31.322.155 1.54.131 2.093-.033.765-.067 1.5-.077 2.272-.022 1.53-.131 3.072-.126 4.588.169.107.33-.028.435.28.436 1.283.958 2.058 1.812 3.118.422.523.873 1.056 1.32 1.467.26.24.436.4.78.636.969.663.86.656 1.8.017 1.212-.823 2.483-2.496 3.282-3.75.19-.3.323-.603.467-.95.318-.766.102-.66.506-.777.092-.026.059-.005.117-.043.006-1.515-.104-3.058-.125-4.588-.01-.758-.041-1.48-.075-2.228-.026-.558-.184-1.812.128-2.136.604-.135.697.486.847.947 1.073 3.282 1.51 6.183 1.309 9.677-.033.566-.159 1.235-.171 1.432-.022.34-.04.124.06.21.296-.321.671-.66.991-.962.34-.321.623-.63.972-.959l1.52-1.396c.892-.807 1.64-1.497 2.459-2.386.298-.323 1.515-1.694 1.61-2.23.043-1.007-.063-2.153-.08-3.184l-.05-2.401c-.004-.172.061-.685-.086-.768-.644.107-.865.262-1.659.196-.597-.05-1.149-.046-1.762-.047L36.965 67.2c-.314 0-.633-.006-.946 0-.592.01-.84.19-1.702.028-.22-.041-.534-.167-.707-.177-.095.142-.19 5.437-.197 6.081M65.338 48.378c.174.142.565 1.012.652 1.206.2.442.362.867.538 1.352 1.116 3.086 1.376 6.698 1.262 10.01-.145 4.185-.546 8.097-2.14 11.959l-.198.495c-.067.216-.046.082.006.147.305-.176 2.38-2.104 2.708-2.415l1.245-1.328c2.008-2.23 3.973-5.174 4.737-8.132.659-2.55.444-3.84.376-6.265l-.017-.04c-.287-.733-.719-1.434-1.14-2.094-.434-.679-.847-1.317-1.26-1.958a30 30 0 0 0-1.337-1.879 47 47 0 0 0-2.182-2.663c-.82-.92-2.257-2.649-3.045-3.43-.142-.141-.243-.293-.385-.43-.17-.166-.228-.239-.367-.405-.129-.154-.8-.683-.479-.999.273-.267.833.273 1.023.412.635.461 1.227.95 1.837 1.422l2.173 1.858c.781.786 2.078 2.015 2.749 2.868l1.455 1.804c.85 1.102 2.483 3.686 3.05 5.01.071.167.401 1.043.462 1.099.415-1.528.654-3.99.68-5.672.075-4.695-.982-8.944-2.928-13.106-.23-.493-.92-1.78-1.18-2.015l-.062-.037-.057-.037q-.045-.031-.1-.073l-.547-.352a16 16 0 0 0-.775-.47c-.844-.48-4.826-2.264-5.133-2.15-.112.785.027 1.071-.384 2.056-.719 1.723-2.43 2.923-4.633 2.537l.984 2.823c.315.939.632 1.898.904 2.87.45 1.6 1.252 4.44 1.508 6.021M23.073 35.002c-.5.307-1.91 3.476-2.178 4.17-2.118 5.495-2.586 10.596-1.462 16.472.096-.02.082-.041.153-.243.038-.107.064-.167.11-.276 1.07-2.488 3.14-5.383 4.833-7.304a38 38 0 0 1 1.571-1.687c.278-.28.567-.519.833-.797l3.498-2.933c.29-.224.585-.463.903-.683.125-.086.36-.285.531-.288.258-.005.38.239.263.48-.083.17-1.363 1.514-1.538 1.722l-.754.832c-.128.163-.251.268-.381.433l-3.36 3.931c-1.284 1.6-2.85 4.019-3.868 5.821-.162.285-.114.311-.141.677l-.088.709c.019 1.084-.086 2.069.007 3.193.227 2.762 1.203 4.994 2.603 7.213.624.99 1.998 2.876 2.862 3.697.528.503.903 1.01 1.621 1.638.504.441 1.19 1.128 1.723 1.522.058-.055.153.102-.036-.336-.056-.128-.088-.21-.14-.338-.092-.233-.161-.436-.251-.685-1.333-3.696-1.703-7.368-1.785-11.342-.075-3.63.185-6.577 1.364-9.916.095-.271.933-2.31 1.226-2.523.456-2.542 1.536-6.199 2.377-8.708l.96-2.754c-1.717.192-2.649-.303-3.541-1.165a4.2 4.2 0 0 1-.962-1.439c-.418-1.026-.256-1.303-.369-2.063-.054-.112-.008-.09-.183-.027q-.105.04-.22.087l-1.313.486c-.601.22-1.127.449-1.711.69-.806.334-2.513 1.211-3.157 1.734"/><path fill="#FF338B" d="M47.977 87.19v1.236c1.284-.12 2.279.732 2.254 1.977-.023 1.166-1.006 2.048-2.275 1.885l-.002 1.076c1.302-.166 2.327.765 2.276 2.013a1.99 1.99 0 0 1-.718 1.44c-.491.41-.87.428-1.605.405l-.002 2.054c.567.013 1.74-.03 2.245-.107.162-.024.273-.041.412-.06 1.12-.151 1.555-.284 2.481-.82.104-.06.2-.097.31-.162.102-.059.214-.123.344-.121a.25.25 0 0 1 .146.045c.114.078-.007-.01.065.064l.039.048c-.127.237-.426.292-.94.602-.231.139-.758.443-1.075.47 0 .302.14.331.368.704.411.672.675 1.548.746 2.384.192 2.276-.257 3.112-.257 3.858l1.012.403c1.872.616 4.346.606 6.092-.373.087-.049.15-.072.227-.117.1-.057.326-.199.395-.291.237-.315-.059-.013.326-.36.252-.228.432-.634.6-.816.477-.52 1.629-2.815 1.998-3.576.58-1.198 1.106-2.818 1.442-4.089a22 22 0 0 0 .57-2.902l.141-1.231c.06-.408.061-.914.061-1.355 0-2.3-.005-2.894-.373-5.158-.298-1.828-.906-3.637-1.605-5.341-.14-.342-.841-1.761-.852-1.893-.28 0-.38.064-.594.135-.066.022-.204.052-.266.076-.133.051-.12.028-.156.188-.064.296.067.476-.116 1.3-.925 4.159-5.985 7.046-10.291 6.339-.505-.083-1.182-.26-1.626-.475-.194-.095-.261-.146-.477-.209-.076.093-.19.178-.295.263-.114.09-.173.162-.293.264-.264.22-.334.417-.732.228"/><path fill="#3686FE" d="m47.905 99.275.002-2.053c-.39-.176-.726-.21-1.086-.681-.839-1.094-.532-2.758 1.132-3.178l.002-1.076c-.878-.21-1.598-.901-1.577-1.972.02-1.067.69-1.67 1.6-1.89V87.19l-.796-.771c-.18.076-.315.16-.5.235-.18.071-.342.13-.502.184-1.758.598-4.153.384-5.84-.326-1.259-.53-2.362-1.164-3.342-2.146l-.494-.535c-.725-.815-1.294-1.788-1.571-2.888-.313-1.244.035-1.577-.356-1.703-.178-.057-.318-.115-.571-.115-.056.237-.338.7-.458.957-1.427 3.08-2.372 6.669-2.372 10.105 0 .914-.03 1.924.073 2.714.032.237.038.443.059.67.147 1.578.629 3.552 1.138 5.08l1.682 3.891c.258.473.977 1.756 1.303 2.128.116.132.303.569.603.812.361.294.14.184.319.367.474.488 2.183 1.034 3.016 1.1.913.073 1.77.068 2.595-.1 1.375-.279 1.78-.599 2.076-.668 0-.354-.087-.598-.141-.931-.235-1.445-.276-3.297.3-4.656.123-.29.205-.459.364-.708.224-.35.372-.404.378-.652l-1.058-.485c-.338-.17-.717-.292-.914-.586.041-.08.103-.19.2-.221.282-.094 1.895 1.401 4.736 1.333"/><path fill="#FF338B" d="m48.284 31.305.147-19.163c-.476.013-.475-.165-1.096-.545-.328-.2-.74-.389-1.142-.532-4.064-1.454-9.393.546-12.252 3.332-.959.935-2.307 2.6-2.664 3.963.597-.586.651-1.037 2.015-2.083 3.035-2.33 6.057-.94 7.123 3.009.628 2.324.468 5.04-.066 7.392a18.7 18.7 0 0 1-1.003 3.116c-.317.75-.626 1.381-1.033 2.054-.123.205-.323.48-.405.67.31-.057.762-.234 1.098-.32 1.26-.32 2.425-.495 3.737-.639 1.864-.203 3.643-.223 5.54-.254"/><path fill="#3686FE" d="m48.431 12.143-.147 19.162c3.056.057 6.076.233 9.065.81.392.075.808.188 1.198.24l-.736-1.304a22 22 0 0 1-.648-1.407c-1.288-3.073-1.878-7.253-.977-10.458.551-1.967 1.843-4.031 4.15-4.03 1.197.001 2.236.579 2.944 1.123 1.367 1.05 1.427 1.508 2.015 2.083-.357-1.368-1.662-2.954-2.6-3.9-2.993-3.014-9.1-5.195-13.268-2.973-.392.208-.672.475-.996.654"/><path fill="#D9A156" d="m44.693 32.344-.767 3.146a48 48 0 0 0-.596 3.308c-.602 4.276-.73 8.528-.206 12.82l.139-.114c.633-.708.819-1.097 1.925-1.716 2.627-1.471 5.878-.89 7.738 1.244.088.1.356.454.442.51.79-5.154.115-12.55-1.168-17.582-.114-.446-.358-1.142-.402-1.564-2.254-.264-4.829-.126-7.105-.052"/><path fill="#D99440" d="M56.4 24.076c-.115.87.874 4.658 1.258 5.255 1.194-.366 2.206-.465 3.527-.564.21-.028 2.174-1.266 4.164.236.133.1.318.283.417.329.733.109 1.965.549 2.653.8 1.647.598 3.212 1.277 4.705 2.159.504.298 1.342.826 1.808 1.194.242.192.195.134.247.08-.389-.577-.74-1.173-1.149-1.71-.919-1.207-1.596-2.081-2.657-3.174-.49-.504-2.52-2.418-3.074-2.761-.257-.16-.474.1-1.191.156a3.5 3.5 0 0 1-1.3-.15c-1.39-.416-2.408-1.602-2.52-3.321-.306-.237-1.811-.996-2.33-.96-.705.107-1.768.657-2.373.973-.346.18-2.043 1.009-2.207 1.151zM21.542 33.37c.071.041-.017.035.073-.003l.895-.6c1.664-1.093 3.825-2.077 5.723-2.724.615-.21 2.02-.713 2.657-.764.112-.036.304-.223.402-.295a3.66 3.66 0 0 1 1.638-.679c1.407-.213 2.214.418 2.5.464.626.076 1.2.097 1.821.208.285.05.582.11.848.173.248.058.605.198.804.216.392-.612 1.386-4.417 1.27-5.29l-.005-.26c-.83-.357-4.009-2.201-4.718-2.149-.478.014-1.88.719-2.165.94-.14 2.175-1.794 3.527-3.65 3.479-.294-.008-1.187-.228-1.235-.22-.29.052-2.727 2.307-3.074 2.684-.939 1.02-1.805 1.933-2.639 3.107-.22.31-1.047 1.414-1.145 1.713"/><path fill="#F12004" d="M47.915 49.874c1.8-.33 3.262.992 3.51 2.485.297 1.79-.98 3.26-2.47 3.507a3.035 3.035 0 0 1-3.536-2.516c-.287-1.85.99-3.2 2.496-3.476m-.107-.183c-1.785.22-2.82.9-3.68 1.864-3.112 3.482-.69 9.58 4.674 9.226 4.485-.296 6.95-6.166 3.15-9.72-.836-.784-2.508-1.571-4.144-1.37"/><path fill="#F5F1F0" d="M49.74 86.028c.27.234 1.13.454 1.564.54 1.753.345 3.622-.007 5.185-.699 1.77-.783 3.544-2.311 4.271-4.005.307-.714.574-1.765.579-2.57.005-.893.522.075 3.183-1.944.656-.498 1.418-1.372 1.937-2.179.387-.601 1.133-2.016 1.241-2.863-.144.08-.47.402-.586.516-.342.334-1.31 1.09-1.76 1.499-.243.221-.99.91-1.287.897-.6-.027-.425-1.13-.539-1.65-.432 1.119-2.481 3.274-3.39 4.068l-1.75 1.596c-.226.23-.474.43-.714.659l-2.043 1.987c-.557.519-1.162 1.251-1.62.696-.317-.385-.31-1.736-.372-2.342-.177.236-.719 2.007-2.766 4.52zM29.055 72.459c-.108-.096-.032-.055-.164-.12.095.815.904 2.306 1.273 2.87a9.3 9.3 0 0 0 1.959 2.156c.73.587 1.598 1.133 2.724 1.392.54.125.306.255.508 1.555.38 2.452 2.422 4.491 4.7 5.502.963.427 2.082.75 3.263.829.913.06 2.754-.113 3.43-.615-.082-.17-.156-.177-.288-.318-.105-.112-.174-.21-.277-.323-1.01-1.097-2.224-2.767-2.877-4.112-.076-.157-.136-.273-.194-.405-.058-.136-.094-.28-.198-.383-.06.642-.022 1.91-.486 2.214-.469.309-1.138-.497-1.599-.923-.82-.76-2.75-2.73-3.448-3.285-.863-.686-2.545-2.417-3.31-3.335-.3-.36-.86-1.156-1.028-1.586-.11.506.117 2.485-1.221 1.263-.649-.592-1.75-1.434-2.342-1.989z"/><path fill="#9D571B" d="M40.91 81.1c.111.177 1.065 1.073 1.244 1.128.209-.298.29-2.441.361-3.156.045-.454-.032-.732.498-.666.176.36-.038 1.049.756 2.62.39.773.805 1.434 1.261 2.083.256.364.478.653.736.98 1.066 1.354 1.38 1.504 2.427 2.58.325-.108 1.58-1.446 1.852-1.756 1.136-1.297 2.124-2.653 2.852-4.307.513-1.166.388-1.104.645-2.05.084-.308.303-.27.481-.118.047.23.043.73.072 1.01.064.642.11 2.474.323 2.779.13-.04.972-.806 1.015-.862-.1-.086-.081.132-.06-.21.013-.196.14-.866.171-1.432.2-3.493-.236-6.394-1.309-9.676-.15-.462-.242-1.082-.847-.948-.312.324-.154 1.578-.128 2.136.034.75.064 1.472.075 2.23.021 1.53.13 3.071.126 4.587-.06.037-.026.016-.118.042-.405.117-.188.011-.506.778-.144.346-.276.65-.467.949-.798 1.255-2.07 2.927-3.281 3.751-.941.64-.832.646-1.802-.017a6 6 0 0 1-.78-.636c-.446-.412-.897-.944-1.319-1.467-.854-1.06-1.375-1.835-1.812-3.119-.105-.308-.267-.173-.435-.28-.005-1.515.104-3.057.126-4.587.01-.773.044-1.507.077-2.272.025-.553.179-1.772-.13-2.093-.604-.135-.697.487-.848.947-.147.452-.292.912-.422 1.374-.821 2.918-1.235 6.705-.731 9.676-.057.047.094.125-.104.003"/><path fill="#F52004" d="M64.311 81.16c.426.87.834 2.255 1.096 3.27.16.626.352 1.041.594 1.594.193.444.438 1.058.67 1.466.095-.066.25-.069.36-.085 1.68-.25 3.175-1.132 4.423-2.178 1.203-1.01 2.414-2.749 2.735-4.345-.207-.223-1.041-.816-1.338-1.023-.445-.309-.975-.618-1.454-.904l-3.02-1.715c-.106.254-.661.952-.841 1.154-.35.392-.624.665-.96 1.012-.47.484-1.78 1.567-2.264 1.753M22.64 80.882c.501 2.496 2.742 4.732 4.811 5.743a9 9 0 0 0 1.236.518l1.471.347c.237-.415.485-1.037.684-1.496.25-.576.424-.957.59-1.599.256-.996.668-2.38 1.086-3.237-.843-.321-2.605-2.054-3.245-2.787-.178-.203-.716-.88-.82-1.131l-1.504.874c-1.448.83-2.278 1.198-3.667 2.25-.212.16-.473.337-.642.518"/><path fill="#9C571B" d="m30.813 73.301.794.678c.154.135.648.568.809.64.074-.584.04-1.865.299-1.983.327-.15.525.344.698.498.008-.644.102-5.94.199-6.08-.083-.086.013-.012-.134-.091q-.059-.028-.117-.056a3 3 0 0 1-.244-.14c-4.049-2.577-3.044-12.051-2.38-16.128.137-.84.321-1.648.455-2.476-.293.214-1.131 2.252-1.227 2.523-1.178 3.34-1.438 6.286-1.363 9.916.082 3.974.452 7.646 1.785 11.342.09.248.159.451.252.685.05.128.083.21.139.338.188.437.093.28.035.334M62.769 67.08c.147.083.082.596.085.768l.05 2.402c.017 1.032.124 2.177.081 3.184l.353-.523c.106-.147.246-.359.519-.274.258.118.224 1.397.299 1.983.054-.025 1.176-.902 1.3-1.072-.051-.066-.072.068-.005-.148l.198-.495c1.594-3.861 1.995-7.773 2.14-11.958.115-3.312-.146-6.925-1.262-10.01-.176-.485-.339-.91-.538-1.352-.087-.195-.478-1.065-.652-1.207.133.831.311 1.642.448 2.488.642 3.973 1.314 11.745-1.354 14.947-.662.794-.93.88-1.604 1.232z"/><path fill="#9D571B" d="m19.432 55.643.286 1.314c.34-.28 1.564-2.483 2.166-2.24.295.121.117.983.113 1.32l.088-.709c.027-.365-.021-.391.14-.676 1.02-1.803 2.586-4.222 3.87-5.821l3.359-3.931c.129-.166.253-.27.38-.434l.755-.832c.175-.207 1.456-1.552 1.538-1.722.118-.241-.004-.484-.263-.48-.17.003-.407.203-.53.288-.32.22-.615.46-.904.683l-3.498 2.933c-.267.279-.555.518-.833.797-.536.54-1.05 1.096-1.571 1.688-1.692 1.92-3.763 4.816-4.832 7.304-.047.108-.073.169-.11.276-.071.202-.058.223-.154.242M74.524 55.408c-.08-1.811 1.359.24 1.762.777.134.178.419.65.555.77l.22-.972c-.06-.055-.39-.933-.462-1.1-.568-1.323-2.2-3.907-3.05-5.008l-1.455-1.805c-.67-.852-1.968-2.082-2.749-2.868l-2.173-1.857c-.61-.472-1.202-.962-1.837-1.423-.19-.138-.75-.678-1.022-.411-.322.316.349.844.478.998.14.166.198.24.367.404.142.138.243.29.385.43.788.783 2.225 2.512 3.045 3.431a47 47 0 0 1 2.182 2.663c.441.581.914 1.222 1.337 1.88.413.64.826 1.279 1.26 1.957.421.66.852 1.362 1.14 2.094.004.01.01.027.017.04"/><path fill="#FFA194" d="M47.915 49.874c-1.505.276-2.782 1.626-2.496 3.474a3.035 3.035 0 0 0 3.537 2.517c1.488-.246 2.767-1.717 2.47-3.507-.248-1.492-1.712-2.815-3.51-2.484"/><path fill="#FF338B" d="M66.486 19.578c-1.696.268-2.805 1.61-2.614 3.329.164 1.485 1.563 2.796 3.311 2.598a2.995 2.995 0 0 0 2.624-3.322c-.164-1.49-1.612-2.876-3.321-2.605"/><path fill="#3686FE" d="M29.395 19.577c-.902.137-1.498.497-1.944 1.022a3.06 3.06 0 0 0-.684 2.312 3 3 0 0 0 3.329 2.594 2.994 2.994 0 0 0 2.606-3.315c-.156-1.463-1.58-2.876-3.307-2.613"/><path fill="#F5F1F0" d="M17.627 90.934c-.432.533-1.154 4.026-.956 4.932.078.36.216.803.312 1.187.095.386.172.855.279 1.218.204.7.25 1.034.574 1.656.096.186.161.339.419.194.475-.266.39-1.23.74-2.265.17-.498.67-1.664 1.208-1.761 1.103-.2.58 1.713 1.557 1.398.565-.182.816-1.369.938-2.032-.246-.166-1.087-.32-1.629-1.04-.091-.12-.25-.39-.353-.493-.027-.012-1.859.153-2.764-1.838-.277-.605-.226-.88-.325-1.156M74.132 95.462c.06.488.382 1.884.972 2.041.936.25.432-1.606 1.523-1.408.264.048.629.524.762.75.924 1.58.58 2.936 1.186 3.276.277.155.34-.043.433-.222.09-.171.168-.315.227-.502.11-.347.249-.812.342-1.16.105-.388.18-.817.278-1.218.096-.394.226-.797.303-1.153.197-.905-.524-4.398-.956-4.932-.052.145-.082.446-.132.624-.247.889-.845 1.713-1.668 2.104-.387.184-.754.263-1.244.261-.114.049-.32.398-.397.5-.541.72-1.394.88-1.63 1.039"/><path fill="#F52004" d="M19.72 84.306c.599 1.155.515 1.264 1.413 2.42.279.358.57.715.87 1.016l1.003.926c1.268 1.163 3.333 2.177 5.138 2.507.293-.234.899-1.358 1.135-1.812-.819-.083-2.2-.633-2.823-.973L24.2 86.874c-.315-.28-.718-.611-.997-.931-.832-.953-1.853-2.256-2.184-3.465-.21.179-1.194 1.502-1.298 1.828M67.55 89.363c.237.455.843 1.578 1.136 1.812 3.251-.594 6.082-2.81 7.778-5.567.255-.415.409-.846.645-1.302-.104-.325-1.088-1.648-1.298-1.828-.196.714-.951 1.98-1.35 2.455l-.854 1.033c-.322.345-1.113 1.057-1.53 1.344-.108.074-.159.135-.265.205-1.174.774-2.797 1.7-4.261 1.848"/><path fill="#F1ECEC" d="m66.671 87.49.88 1.874c1.465-.149 3.087-1.073 4.26-1.85.107-.07.158-.13.266-.204.417-.287 1.208-.999 1.53-1.344l.854-1.034c.399-.475 1.154-1.74 1.35-2.454-.133-.263-1.344-1.466-1.622-1.596-.321 1.596-1.532 3.336-2.735 4.345-1.248 1.046-2.743 1.927-4.422 2.178-.11.016-.266.02-.36.086M21.019 82.477c.33 1.21 1.352 2.513 2.184 3.465.28.32.682.652.998.932l2.256 1.515c.623.34 2.004.89 2.823.973l.879-1.873-1.472-.348a9 9 0 0 1-1.235-.517c-2.069-1.012-4.31-3.247-4.812-5.743-.277.13-1.489 1.334-1.621 1.596M18.748 86.838c.209.26.575.92 1.02 1.423.856.969 1.94 2.097 3.062 2.812.949.605 1.61 1.025 2.71 1.457.157.062.462.15.617.23.68-.129 1.728-1.155 1.987-1.585-1.805-.33-3.87-1.343-5.138-2.506l-1.003-.926c-.3-.302-.592-.66-.87-1.017-.898-1.156-.814-1.266-1.413-2.42-.194.189-.484.828-.614 1.143-.184.447-.336.841-.358 1.39M68.686 91.175c.258.43 1.305 1.457 1.986 1.585.475-.244 1.208-.38 2.272-1.027 1.682-1.022 3.31-2.317 4.458-3.901l.68-.993c-.023-.548-.173-.943-.358-1.39-.13-.315-.42-.953-.615-1.143-.236.456-.39.888-.645 1.302-1.696 2.757-4.526 4.973-7.778 5.567"/><path fill="#F9D985" d="m59.668 33.185.694.2c.453-2.4 3.134-3.488 4.053-1.775.67 1.247-.121 3.068-1.295 3.82-.546.35-.793.333-1.526.35.05.154.11.353.199.464.483-.457.827.282 2.378-.407 2.016-.895 2.872-3.824 1.394-5.764-1.657-2.174-5.227-1.232-5.855 1.817-.255 1.238.19.558-.042 1.295M34.778 36.134l.108-.338c-.696-.042-.95-.063-1.443-.4-1.172-.803-1.928-2.626-1.212-3.84.775-1.316 2.56-.865 3.489.534.445.67.448 1.135.56 1.313l.682-.24c.31-3.86-3.9-5.633-5.893-3.114-.947 1.197-1.019 2.932-.193 4.355a3.75 3.75 0 0 0 1.453 1.376c1.115.584 1.839.222 2.449.354"/><path fill="#9D571B" d="M21.542 33.37c-.152.107-.784 1.236-.836 1.427 1.209-.157 2.677-.86 2.367.206.644-.524 2.351-1.401 3.156-1.733.586-.24 1.11-.469 1.711-.69l1.313-.485c.079-.03.15-.063.221-.088.174-.062.129-.084.183.028.172-.25-.023-1.042.79-2.18l.442-.575c-.636.051-2.042.554-2.657.764-1.898.648-4.059 1.63-5.723 2.724l-.895.6c-.089.036-.001.042-.072.002M66.96 32.07c.307-.113 4.289 1.672 5.133 2.151.273.156.511.3.775.47l.546.352c.038.026.073.053.1.072l.058.038.061.037c-.085-.182-.315-.429-.105-.672.245-.282 1.659.191 2.338.28-.048-.176-.233-.483-.325-.638l-.362-.594c-.052.054-.006.112-.248-.08-.466-.368-1.303-.897-1.808-1.194-1.493-.882-3.057-1.561-4.704-2.16-.689-.25-1.92-.69-2.653-.799l.04.06c.034.044.028.038.062.078.453.539.761 1.06.935 1.764.049.195.075.718.157.835"/><path fill="#000" d="M57.382 40.78c.683-.208.9.852.188 1.016-.332.077-.634-.122-.677-.407-.063-.412.184-.516.49-.609m.181-.684c-1.225.233-2.259 1.331-1.994 2.837.209 1.183 1.378 2.238 2.837 1.972 1.2-.219 2.24-1.357 1.98-2.828-.209-1.183-1.357-2.258-2.823-1.98M37.787 40.78c.682-.208.9.852.187 1.016-.332.077-.634-.122-.677-.407-.062-.412.184-.516.49-.609m.18-.684c-1.224.233-2.259 1.331-1.993 2.837.208 1.183 1.378 2.238 2.836 1.972 1.2-.219 2.24-1.357 1.98-2.828-.209-1.183-1.357-2.258-2.822-1.98"/><path fill="#F52004" d="M71.456 93.63c.113.488.696 1.042 1.155 1.22.652.25 1.381.025 1.925-.236.903-.436 1.02-1.134 1.148-1.255.126-.117.787-.038 1.085-.118.84-.225 1.458-.957 1.707-1.85.34-1.219-.193-1.718.412-1.945.518-.194.956-.68.902-1.435-.037-.533-.563-1.334-1.083-1.234-.041.684-.004.936-.229 1.573-.713 2.016-2.277 3.664-4.227 4.563-1.01.466-1.528.672-2.795.716M18.122 86.777c-.86-.166-1.864 2.022-.15 2.68.383.147.26.548.254.946-.014.962.373 1.94 1.092 2.468.998.732 1.634.213 1.865.534.061.085.134.295.201.401.559.892 1.98 1.391 2.865 1.03.44-.18 1.013-.725 1.124-1.207-.696-.024-.941-.017-1.57-.226-.45-.149-.839-.31-1.254-.504-1.537-.718-2.868-1.898-3.654-3.378-.665-1.253-.694-1.42-.773-2.744"/><path fill="#9C571B" d="M35.448 21.666c.71-.052 3.888 1.793 4.719 2.15l.004.259.051-.178c.006-.05.004-.157.006-.216.013-.453.07-2.758-.142-3.094l-.023.079c-.464-.334-.927-.63-1.435-.96l-1.13-.673c-.181-.1-.216-.094-.36-.234l-.028-.03.667.011c-.242-.087-2.104-.069-2.501-.042.028.972.866 2.078.74 2.715-.245.202-.352.09-.568.213M56.528 20.33c-.202.287-.265 3.262-.166 3.646.026.104.014.056.04.1l-.023-.306c.165-.141 1.862-.97 2.207-1.151.605-.316 1.667-.866 2.374-.973-.094-.08-.309-.115-.403-.192-.126-.637.712-1.742.74-2.715l-2.076-.004c-.152 0-.558-.007-.687.076l.758-.048-.084.094-.083.059c-.621.392-1.12.628-1.922 1.162-.209.14-.473.338-.695.443z"/><path fill="#F1ECEC" d="M63.493 79.295c.087.275.293.639.423.922.14.307.295.634.396.942.485-.185 1.794-1.27 2.264-1.753.336-.346.61-.62.96-1.012.18-.202.735-.9.84-1.155-.19-.168-.604-.385-.851-.543-.259-.166-.576-.425-.845-.539-.247.335-.412.597-.682.913-.253.298-.498.57-.762.825-.51.494-1.073.977-1.743 1.4M28.453 77.24c.104.251.642.928.82 1.13.64.734 2.401 2.466 3.245 2.788.102-.308.255-.635.396-.942.13-.283.336-.646.423-.922-.92-.58-2.02-1.563-2.602-2.352l-.638-.757z"/><path fill="#D99440" d="M61.304 35.116c.64-.057.714.243 1.422-.166 1.288-.744 1.774-2.88.766-3.447-.886-.5-2.21.539-2.527 2.026-.037.174-.11.278-.122.335-.022.11.409 1.024.461 1.252M33.314 31.425c-1.65.508-.27 4.146 1.644 3.714.205-.046.182-.007.267-.163l.371-.916c.14-.317.106-.353.017-.709a3 3 0 0 0-.23-.625c-.278-.523-1.135-1.588-2.07-1.3"/><path fill="#F52004" d="M70.672 92.76c.3.244 1.032.298 1.47.228 1.19-.187 2.676-.997 3.515-1.673.866-.698 2.513-2.632 2.425-4.477l-.68.992c-1.148 1.585-2.776 2.88-4.459 3.902-1.064.648-1.796.784-2.271 1.028M26.158 92.76c-.155-.08-.46-.168-.617-.23-1.1-.432-1.762-.852-2.71-1.457-1.122-.715-2.206-1.843-3.062-2.812-.445-.503-.812-1.162-1.02-1.423-.09 1.861 1.572 3.798 2.449 4.497.83.662 2.347 1.492 3.527 1.66.437.061 1.142.001 1.433-.235"/><path fill="#000" d="M48.055 89.047c.78-.159 1.426.418 1.536 1.074.129.779-.39 1.428-1.023 1.55-1.728.336-2.203-2.28-.513-2.625m-.1 3.241c1.27.164 2.252-.718 2.275-1.885.025-1.246-.97-2.096-2.254-1.976-.908.218-1.58.821-1.6 1.89-.02 1.07.7 1.763 1.58 1.971M48.056 93.978c.78-.158 1.425.418 1.535 1.074.13.779-.39 1.428-1.023 1.55-1.727.335-2.203-2.28-.512-2.624m-.15 3.245c.735.023 1.114.003 1.605-.407.333-.277.69-.768.718-1.438.051-1.249-.974-2.18-2.276-2.014-1.665.419-1.972 2.084-1.132 3.178.361.47.696.504 1.086.68"/><path fill="#F5EFF1" d="M48.055 89.046c-1.69.344-1.215 2.96.512 2.625.633-.122 1.153-.772 1.023-1.55-.109-.656-.755-1.233-1.535-1.075M48.055 93.978c-1.69.344-1.215 2.96.512 2.625.633-.123 1.153-.772 1.023-1.55-.109-.657-.755-1.234-1.535-1.075"/><path fill="#9D571B" d="m57.658 29.331.356.84c-.009-.113-.089-.112.39-.098.152.004.3.006.45.02.204.018.76-.003.846.173.007-.01.016-.035.02-.028.002.007.014-.021.018-.027.268-.395.244-.382.623-.755.3-.294.775-.62.824-.688-1.32.098-2.333.197-3.527.563M36.9 30.198c.171-.115 1.303-.15 1.486-.126.247.032.133-.04.17.1.119-.167.285-.587.345-.806-.2-.018-.556-.157-.804-.216a15 15 0 0 0-.848-.173c-.621-.11-1.195-.132-1.821-.208.074.1.848.56 1.288 1.208z"/><path fill="#D99440" d="M40.086 20.588c.025-.353-.242-1.249-.34-1.575-.414-.103-1.552-.275-1.97-.232l-.667-.012c.008.01.02.023.028.03.145.141.179.135.36.235l1.13.672c.51.33.972.627 1.436.96zM56.528 20.33l-.02.191c.221-.105.486-.303.695-.443.802-.533 1.3-.77 1.922-1.162.003-.002.077-.053.083-.059l.083-.093-.757.048c-.355-.071-1.345.111-1.707.202-.088.29-.312.998-.3 1.316M58.015 30.17c.23.645.754 1.31.986 1.842.046-.051.026-.014.061-.09.095-.204.09-.775.64-1.658-.087-.175-.643-.154-.847-.172-.15-.014-.298-.016-.449-.02-.48-.014-.4-.014-.39.099M36.9 30.198c.037.158.294.57.395.83.082.211.218.85.271.95.199-.233.87-1.462.99-1.807-.037-.14.077-.067-.17-.099-.183-.023-1.315.01-1.485.126"/><path fill="#F42004" d="M63.493 79.295a10.7 10.7 0 0 0 1.744-1.4c.264-.255.509-.527.762-.824.27-.316.434-.579.681-.913l-.084-.064c-.109.081-.255.286-.352.407-.419.524-.663.73-1.148 1.168-.79.711-1.66 1.102-1.816 1.247z"/><path fill="#ECE7E7" d="M57.383 40.78c-.306.093-.552.197-.49.61.043.285.345.483.677.407.713-.165.496-1.225-.187-1.017M37.787 40.78c-.306.093-.552.197-.49.61.043.285.345.483.677.407.713-.165.496-1.225-.187-1.017"/><path fill="#F42004" d="m33.337 79.295.157-.342c-.542-.349-.731-.334-1.498-.904-.607-.45-.883-.798-1.261-1.107.58.79 1.681 1.773 2.602 2.353"/><path fill="#FEFEFE" d="M57.081 92.196a.48.48 0 0 1-.35-.148.48.48 0 0 1-.144-.355v-2.476q0-.211.144-.355a.48.48 0 0 1 .35-.149h2.342v.607h-2.117v2.27h2.117v.606zM56.082 91.908l-1.207-1.212q-.381-.384-.768-.765c-.057-.055-.056-.084 0-.14q.519-.511 1.03-1.03a.19.19 0 0 1 .148-.058c.12.003.241.006.362-.001.095-.006.155.04.232.091.295.2.187.496.202.763.001.036-.031.054-.054.076-.15.151-.303.3-.45.453-.048.05-.08.065-.13.004-.067-.08-.192-.148-.199-.228-.007-.084.126-.15.198-.226q.14-.148.29-.288c.047-.044.047-.074-.001-.114-.085-.072-.148-.212-.245-.216-.09-.004-.157.133-.234.207-.183.18-.36.366-.546.543-.073.069-.086.105-.005.183.437.427.864.861 1.297 1.29a.24.24 0 0 1 .082.2c-.006.145-.002.288-.002.468M52.613 89.016q.085.097.175.192.873.879 1.754 1.752c.068.068.065.102-.002.168q-.515.505-1.024 1.018c-.04.04-.079.06-.136.056-.092-.004-.185-.011-.277.001-.158.021-.266-.042-.376-.153-.108-.108-.138-.217-.153-.365-.026-.27.055-.47.269-.63.092-.07.168-.16.248-.246.04-.042.063-.05.111-.006.247.229.248.228.012.464q-.145.146-.29.288c-.04.038-.048.065-.002.106q.1.087.187.187c.051.06.082.046.13-.005q.362-.37.732-.731c.059-.057.056-.084 0-.14-.442-.437-.879-.88-1.32-1.317a.2.2 0 0 1-.071-.167c.004-.149.001-.297.001-.445q.015-.015.032-.027M55.744 92.2l-.48.001a.14.14 0 0 1-.115-.05q-.239-.245-.484-.484c-.044-.043-.05-.072-.002-.114.08-.072.152-.196.237-.206.067-.007.15.126.224.198l.639.628zM52.88 88.704h.538c.042-.002.066.022.092.048q.244.248.492.492c.04.037.052.06.003.103q-.098.086-.187.185c-.036.04-.06.049-.104.005-.267-.27-.537-.537-.833-.833M59.77 88.71h1.034l.846 2.604h.011l.852-2.604h1.034l-1.301 3.474h-1.175z"/></g></svg>