<svg xmlns="http://www.w3.org/2000/svg" xmlns:xlink="http://www.w3.org/1999/xlink" viewBox="0 0 44 44"><defs><linearGradient id="a" x1="3.35" x2="37.74" y1="13.37" y2="13.37" gradientUnits="userSpaceOnUse"><stop offset="0" stop-color="#d81c5c"/><stop offset="1" stop-color="#ed4036"/></linearGradient><linearGradient xlink:href="#a" id="b" x1="6.28" x2="40.64" y1="30.64" y2="30.64"/></defs><circle cx="22" cy="22" r="22" style="fill:#fff"/><path d="M34.65 22.13c-2.32 1.5-5 1.93-8.29.2a.29.29 0 0 1 0-.5l4.24-2.74a.37.37 0 0 0 .11-.51l-2-3.1a.37.37 0 0 0-.51-.11l-5.72 3.71a.71.71 0 0 1-.77 0c-6.27-4.14-11.54-2.5-14.24-1.08a14.9 14.9 0 0 0-3.77 3 .21.21 0 0 1-.35-.15c.47-6 2.92-11 9.2-15C20 1 31.12 3.42 35.82 10.69c3.27 5.06 2 9.39-1.17 11.44" style="fill:url(#a)"/><path d="M40.64 23.3c-.48 6-3 10.9-9.19 14.94-7.39 4.76-18.56 2.34-23.27-4.93-3.27-5.06-2-9.35 1.2-11.4a7.6 7.6 0 0 1 8.26-.24.29.29 0 0 1 0 .5l-4.24 2.75a.37.37 0 0 0-.11.51l2 3.1a.36.36 0 0 0 .51.1l5.74-3.71a.7.7 0 0 1 .76 0c6.24 4.13 11.51 2.49 14.21 1.05a14.6 14.6 0 0 0 3.7-2.85.24.24 0 0 1 .43.18" style="fill:url(#b)"/></svg>