<?xml version="1.0" encoding="utf-8"?>
<!-- Generator: Adobe Illustrator 25.1.0, SVG Export Plug-In . SVG Version: 6.00 Build 0)  -->
<svg version="1.1" id="Layer_1" xmlns="http://www.w3.org/2000/svg" xmlns:xlink="http://www.w3.org/1999/xlink" x="0px" y="0px"
	 viewBox="0 0 500 500" style="enable-background:new 0 0 500 500;" xml:space="preserve">
<style type="text/css">
	.st0{fill:#FFFFFF;}
	.st1{fill:#FFAF1D;}
	.st2{fill:#121212;}
</style>
<circle class="st2" cx="250" cy="250" r="250"/>
<path class="st1" d="M262.5,296.8v17.5c0,2.4,1.4,4.8,3.6,5.8l49.5,24.6c2.1,1,3.3,3.1,3.3,5.3v6.2c0,2.2-1.2,4.3-3.3,5.3
	l-60.8,30.2c-3.1,1.6-6.7,1.6-9.8,0l-60.8-30.2c-2.1-1-3.3-3.1-3.3-5.3v-6.2c0-2.2,1.2-4.3,3.3-5.3l49.5-24.6c2.2-1,3.6-3.4,3.6-5.8
	v-17.5c0-2.2-1.7-4.3-4-4.5c-7.2-0.9-13.1-2.1-17.5-3.6c-9.1-2.9-16.1-10.5-18.6-19.9l-36.1-136.1l-0.9-3.1
	c0-12.6,40.2-22.7,89.7-22.7c49.5,0,89.7,10.1,89.7,22.7l-0.9,3.1l-36.1,136.1c-2.4,9.3-9.4,16.8-18.6,19.9
	c-4.5,1.6-10.3,2.8-17.5,3.6C264.3,292.5,262.5,294.6,262.5,296.8z"/>
</svg>
