<svg xmlns="http://www.w3.org/2000/svg" xml:space="preserve" viewBox="0 0 500 500"><circle cx="250" cy="250" r="250" style="fill:#121212"/><path d="M262.5 296.8v17.5c0 2.4 1.4 4.8 3.6 5.8l49.5 24.6c2.1 1 3.3 3.1 3.3 5.3v6.2c0 2.2-1.2 4.3-3.3 5.3l-60.8 30.2c-3.1 1.6-6.7 1.6-9.8 0l-60.8-30.2c-2.1-1-3.3-3.1-3.3-5.3V350c0-2.2 1.2-4.3 3.3-5.3l49.5-24.6c2.2-1 3.6-3.4 3.6-5.8v-17.5c0-2.2-1.7-4.3-4-4.5-7.2-.9-13.1-2.1-17.5-3.6-9.1-2.9-16.1-10.5-18.6-19.9l-36.1-136.1-.9-3.1c0-12.6 40.2-22.7 89.7-22.7s89.7 10.1 89.7 22.7l-.9 3.1-36.1 136.1c-2.4 9.3-9.4 16.8-18.6 19.9-4.5 1.6-10.3 2.8-17.5 3.6-2.2.2-4 2.3-4 4.5" style="fill:#ffaf1d"/></svg>