<svg width="352" height="352" viewBox="0 0 352 352" fill="none" xmlns="http://www.w3.org/2000/svg">
<path d="M88.0006 87.9994L87.9994 88.0006C39.3987 136.601 39.3987 215.399 87.9994 263.999L88.0006 264.001C136.601 312.601 215.399 312.601 263.999 264.001L264.001 263.999C312.601 215.399 312.601 136.601 264.001 88.0006L263.999 87.9994C215.399 39.3987 136.601 39.3987 88.0006 87.9994Z" fill="#071927"/>
<path d="M175.998 81.7851C188.154 81.7797 200.196 84.1222 211.463 88.6841C225.992 94.5716 238.819 103.996 248.779 116.101C258.739 128.206 265.517 142.608 268.497 157.998C271.981 175.95 270.184 194.526 263.325 211.478C257.437 226.006 248.012 238.832 235.907 248.792C223.802 258.752 209.401 265.53 194.011 268.51C176.059 271.993 157.482 270.197 140.531 263.337C126.003 257.45 113.176 248.026 103.216 235.921C93.2559 223.817 86.4782 209.415 83.4989 194.025C80.0147 176.074 81.8115 157.498 88.6714 140.547C94.5572 126.017 103.981 113.188 116.086 103.226C128.191 93.2636 142.594 86.4845 157.985 83.5046C163.921 82.3597 169.953 81.7839 175.998 81.7851ZM175.998 64.2749C147.402 64.2749 118.806 75.1837 96.9887 97.0014C53.3534 140.637 53.3534 211.385 96.9887 255.02C118.806 276.838 147.402 287.746 175.998 287.746C204.594 287.746 233.19 276.838 255.006 255.02C298.641 211.385 298.641 140.637 255.006 97.0014C233.19 75.1767 204.594 64.2749 175.998 64.2749Z" fill="url(#paint0_linear_6264_253)"/>
<path d="M134.744 163.137C132.517 164.847 135.514 179.533 137.619 181.633C139.724 183.732 158.003 200.081 158.003 200.081L163.553 192.027C163.553 192.027 137.628 161.009 134.744 163.137Z" fill="url(#paint1_linear_6264_253)"/>
<path d="M94.6162 293.467L217.574 208.237C219.653 206.794 221.288 192.127 218.788 190.403C216.287 188.678 94.6162 293.467 94.6162 293.467Z" fill="url(#paint2_linear_6264_253)"/>
<path d="M252.011 57.1206L186.724 163.558L191.688 167.813L252.011 57.1206Z" fill="url(#paint3_linear_6264_253)"/>
<path d="M249.428 55.6422L134.737 163.13C134.56 163.295 134.42 163.495 134.325 163.716C134.23 163.938 134.181 164.177 134.183 164.419C134.184 164.66 134.236 164.899 134.334 165.119C134.432 165.34 134.574 165.538 134.752 165.701L163.553 192.027L92.4181 291.388C91.385 292.831 93.2359 294.577 94.6157 293.462L218.763 193.1C218.964 192.938 219.126 192.733 219.239 192.5C219.351 192.268 219.411 192.013 219.413 191.754C219.415 191.496 219.36 191.24 219.252 191.005C219.144 190.771 218.985 190.563 218.787 190.397L186.969 163.682L251.771 57.5473C252.697 56.0379 250.724 54.427 249.428 55.6422Z" fill="#FFB600"/>
<path d="M208.029 93.2249L228.724 73.8289" stroke="#071927" stroke-width="2" stroke-miterlimit="10"/>
<path d="M118.571 277.904L141.9 261.755" stroke="#071927" stroke-width="2" stroke-miterlimit="10"/>
<path d="M126 165L80.5 107.5L70.5 120L58.5 173.5L74.5 237L126 180.5V165Z" fill="#071927"/>
<path d="M81.8777 142.768L91.1804 159.867L100.743 142.768H116.698L100.795 170.261L117.425 199H101.418L91.2843 180.914L81.1501 199H65.1433L81.7738 170.261L65.8709 142.768H81.8777Z" fill="url(#paint4_linear_6264_253)"/>
<defs>
<linearGradient id="paint0_linear_6264_253" x1="106.575" y1="263.568" x2="245.421" y2="88.4389" gradientUnits="userSpaceOnUse">
<stop stop-color="#FF5400"/>
<stop offset="1" stop-color="#FFB600"/>
</linearGradient>
<linearGradient id="paint1_linear_6264_253" x1="148.756" y1="163.032" x2="148.756" y2="200.081" gradientUnits="userSpaceOnUse">
<stop stop-color="#FF4800"/>
<stop offset="1" stop-color="#892700"/>
</linearGradient>
<linearGradient id="paint2_linear_6264_253" x1="228.5" y1="186.5" x2="90.5" y2="297" gradientUnits="userSpaceOnUse">
<stop stop-color="#FF4800"/>
<stop offset="1" stop-color="#892700"/>
</linearGradient>
<linearGradient id="paint3_linear_6264_253" x1="219.368" y1="57.1206" x2="219.368" y2="167.813" gradientUnits="userSpaceOnUse">
<stop offset="0.432292" stop-color="#FF4800"/>
<stop offset="1" stop-color="#892700"/>
</linearGradient>
<linearGradient id="paint4_linear_6264_253" x1="74.4141" y1="211.476" x2="142.104" y2="173.909" gradientUnits="userSpaceOnUse">
<stop stop-color="#FF5400"/>
<stop offset="1" stop-color="#FFB600"/>
</linearGradient>
</defs>
</svg>