<svg xmlns="http://www.w3.org/2000/svg" width="352" height="352" fill="none"><path fill="#071927" d="M88 88C39.398 136.602 39.398 215.4 88 264v.002c48.601 48.6 127.399 48.6 175.999 0l.002-.002c48.6-48.6 48.6-127.398 0-175.998l-.002-.002c-48.6-48.6-127.398-48.6-175.998 0"/><path fill="url(#a)" d="M175.998 81.785a94.4 94.4 0 0 1 35.465 6.9 94.08 94.08 0 0 1 57.034 69.313 94.55 94.55 0 0 1-5.172 53.48 94.09 94.09 0 0 1-69.314 57.032 94.55 94.55 0 0 1-53.48-5.173 94.08 94.08 0 0 1-57.032-69.312 94.54 94.54 0 0 1 5.172-53.478 94.08 94.08 0 0 1 69.314-57.042 95 95 0 0 1 18.013-1.72m0-17.51c-28.596 0-57.192 10.909-79.01 32.726-43.635 43.636-43.635 114.384 0 158.019 21.818 21.818 50.414 32.726 79.01 32.726s57.192-10.908 79.008-32.726c43.635-43.635 43.635-114.383 0-158.019-21.816-21.824-50.412-32.726-79.008-32.726"/><path fill="url(#b)" d="M134.744 163.137c-2.227 1.71.77 16.396 2.875 18.496s20.384 18.448 20.384 18.448l5.55-8.054s-25.925-31.018-28.809-28.89"/><path fill="url(#c)" d="m94.616 293.467 122.958-85.23c2.079-1.443 3.714-16.11 1.214-17.834S94.616 293.467 94.616 293.467"/><path fill="url(#d)" d="m252.011 57.12-65.287 106.438 4.964 4.255z"/><path fill="#FFB600" d="M249.428 55.642 134.737 163.13a1.74 1.74 0 0 0-.554 1.289 1.75 1.75 0 0 0 .569 1.282l28.801 26.326-71.135 99.361c-1.033 1.443.818 3.189 2.198 2.074L218.763 193.1a1.75 1.75 0 0 0 .024-2.703l-31.818-26.715 64.802-106.135c.926-1.51-1.047-3.12-2.343-1.905"/><path stroke="#071927" stroke-miterlimit="10" stroke-width="2" d="m208.029 93.225 20.695-19.396M118.571 277.904l23.329-16.149"/><path fill="#071927" d="m126 165-45.5-57.5-10 12.5-12 53.5 16 63.5 51.5-56.5z"/><path fill="url(#e)" d="m81.878 142.768 9.302 17.099 9.563-17.099h15.955l-15.903 27.493L117.425 199h-16.007l-10.134-18.086L81.15 199H65.143l16.63-28.739-15.902-27.493z"/><defs><linearGradient id="a" x1="106.575" x2="245.421" y1="263.568" y2="88.439" gradientUnits="userSpaceOnUse"><stop stop-color="#FF5400"/><stop offset="1" stop-color="#FFB600"/></linearGradient><linearGradient id="b" x1="148.756" x2="148.756" y1="163.032" y2="200.081" gradientUnits="userSpaceOnUse"><stop stop-color="#FF4800"/><stop offset="1" stop-color="#892700"/></linearGradient><linearGradient id="c" x1="228.5" x2="90.5" y1="186.5" y2="297" gradientUnits="userSpaceOnUse"><stop stop-color="#FF4800"/><stop offset="1" stop-color="#892700"/></linearGradient><linearGradient id="d" x1="219.368" x2="219.368" y1="57.121" y2="167.813" gradientUnits="userSpaceOnUse"><stop offset=".432" stop-color="#FF4800"/><stop offset="1" stop-color="#892700"/></linearGradient><linearGradient id="e" x1="74.414" x2="142.104" y1="211.476" y2="173.909" gradientUnits="userSpaceOnUse"><stop stop-color="#FF5400"/><stop offset="1" stop-color="#FFB600"/></linearGradient></defs></svg>