<?xml version="1.0" encoding="UTF-8" standalone="no"?><!DOCTYPE svg PUBLIC "-//W3C//DTD SVG 1.1//EN" "http://www.w3.org/Graphics/SVG/1.1/DTD/svg11.dtd"><svg width="100%" height="100%" viewBox="0 0 64 64" version="1.1" xmlns="http://www.w3.org/2000/svg" xmlns:xlink="http://www.w3.org/1999/xlink" xml:space="preserve" xmlns:serif="http://www.serif.com/" style="fill-rule:evenodd;clip-rule:evenodd;stroke-linejoin:round;stroke-miterlimit:2;"><rect id="Artboard21" x="0" y="0" width="64" height="64" style="fill:none;"/><g><circle cx="32" cy="32" r="32" style="fill:#2891f9;"/><g><g><path d="M29.649,45.096l0,0.478l-2.834,-0.045c0,0 2.871,4.73 5.185,8.459l5.221,-8.414l-2.87,0l0,-15.698c4.046,3.456 11.892,10.888 11.892,16.55c0,7.861 -6.382,14.243 -14.243,14.243c-7.861,0 -14.243,-6.382 -14.243,-14.243c0,-3.715 3.378,-8.193 6.845,-11.81c4.552,2.537 5.011,8.716 5.047,10.48Z" style="fill:#fff;"/><path d="M34.351,18.904l0,-0.478l2.834,0.045c0,0 -2.871,-4.73 -5.185,-8.459l-5.221,8.414l2.87,0l0,15.698c-4.046,-3.456 -11.892,-10.888 -11.892,-16.55c0,-7.861 6.382,-14.243 14.243,-14.243c7.861,0 14.243,6.382 14.243,14.243c0,3.715 -3.378,8.193 -6.845,11.81c-4.552,-2.537 -5.011,-8.716 -5.047,-10.48Z" style="fill:#fff;"/></g><g><path d="M33.28,20.22l-1.28,-1.795l-1.28,1.795l0,13.941l2.56,0l0,-13.941Z" style="fill:#fff;"/><path d="M33.28,43.78l-1.28,1.795l-1.28,-1.795l0,-15.618l2.56,0l0,15.618Z" style="fill:#fff;"/></g></g></g></svg>