<svg xmlns="http://www.w3.org/2000/svg" xml:space="preserve" style="fill-rule:evenodd;clip-rule:evenodd;stroke-linejoin:round;stroke-miterlimit:2" viewBox="0 0 64 64"><path d="M0 0h64v64H0z" style="fill:none"/><circle cx="32" cy="32" r="32" style="fill:#2891f9"/><path d="M29.649 45.096v.478l-2.834-.045s2.871 4.73 5.185 8.459l5.221-8.414h-2.87V29.876c4.046 3.456 11.892 10.888 11.892 16.55 0 7.861-6.382 14.243-14.243 14.243s-14.243-6.382-14.243-14.243c0-3.715 3.378-8.193 6.845-11.81 4.552 2.537 5.011 8.716 5.047 10.48" style="fill:#fff"/><path d="M34.351 18.904v-.478l2.834.045s-2.871-4.73-5.185-8.459l-5.221 8.414h2.87v15.698c-4.046-3.456-11.892-10.888-11.892-16.55 0-7.861 6.382-14.243 14.243-14.243s14.243 6.382 14.243 14.243c0 3.715-3.378 8.193-6.845 11.81-4.552-2.537-5.011-8.716-5.047-10.48" style="fill:#fff"/><path d="M33.28 20.22 32 18.425l-1.28 1.795v13.941h2.56z" style="fill:#fff"/><path d="M33.28 43.78 32 45.575l-1.28-1.795V28.162h2.56z" style="fill:#fff"/></svg>