<svg xmlns="http://www.w3.org/2000/svg" width="32.013" height="41.448"><g data-name="Group 700"><path fill="#f2b877" d="M26.984 32.055a2.93 2.93 0 0 1-1.342-1.976l-.024-.113c-.795-4.255-4.576-8.1-9.829-9.44-4.822-1.228-9.565 0-12.427 2.8a2.74 2.74 0 0 1-2.182 1.008c-1.278.058-1.184 4.955-.086 8.079 1.2 3.8 4.764 7.1 9.55 8.318a13.4 13.4 0 0 0 11.866-2.29c2.257-1.784 5.598-5.84 4.474-6.386" data-name="Path 851"/><path fill="#fff" d="M21.308 30.868c-1.705 2.537-6.733 2.689-8.785 1.835 0-1.013.391-1.262.822-2.223.9-2-3.171-3.057-4.679-2.37-1.309.6-1.394 2.486-.505 3.9a5.38 5.38 0 0 1-4.186-3.141c-.838-2.666.333-5.426-.906-5.25a2.65 2.65 0 0 1-1.888.719c-1.278.058-1.184 4.955-.086 8.079 1.2 3.8 4.764 7.1 9.55 8.318a13.4 13.4 0 0 0 11.866-2.29c2.258-1.784 5.6-5.839 4.475-6.386a2.93 2.93 0 0 1-1.342-1.976c-.407-.691-2.707-1.631-4.336.785" data-name="Path 852"/><g data-name="Group 314"><g data-name="Group 310"><path fill="#141414" d="M25.737 33.918a.25.25 0 0 1-.144-.453 2.55 2.55 0 0 0 1.144-1.447.25.25 0 0 1 .283-.209.25.25 0 0 1 .211.279 2.94 2.94 0 0 1-1.349 1.784.25.25 0 0 1-.145.046" data-name="Path 853"/></g><g data-name="Group 311"><path fill="#141414" d="M25.737 32.56a.25.25 0 0 1-.091-.482 1.14 1.14 0 0 0 .6-.5.25.25 0 0 1 .332-.116.25.25 0 0 1 .119.329 1.64 1.64 0 0 1-.867.747.3.3 0 0 1-.093.022" data-name="Path 854"/></g><g data-name="Group 312"><path fill="#141414" d="M1.038 26.613a.25.25 0 0 1-.229-.15 2.76 2.76 0 0 1-.163-2.109.25.25 0 0 1 .457.2 2.3 2.3 0 0 0 .163 1.71.25.25 0 0 1-.129.329.3.3 0 0 1-.099.02" data-name="Path 855"/></g><g data-name="Group 313"><path fill="#141414" d="M1.729 25.573a.25.25 0 0 1-.208-.111 1.64 1.64 0 0 1-.156-1.237.25.25 0 0 1 .481.135 1.15 1.15 0 0 0 .09.825.249.249 0 0 1-.207.388" data-name="Path 856"/></g></g><g data-name="Group 315"><path fill="#141414" d="M14.361 41.447a15.3 15.3 0 0 1-3.78-.476c-4.727-1.2-8.454-4.454-9.726-8.484-.973-2.767-1.152-6.8-.352-7.986a.84.84 0 0 1 .664-.418 2.37 2.37 0 0 0 1.861-.782 2 2 0 0 1 .173-.168c3.026-2.967 7.878-4.064 12.648-2.85 5.157 1.313 9.181 5.186 10.013 9.636l.023.107a2.7 2.7 0 0 0 1.206 1.8.64.64 0 0 1 .36.532c.142 1.309-2.807 4.709-4.789 6.274a12.92 12.92 0 0 1-8.301 2.815m-2.348-21.153a12.03 12.03 0 0 0-8.477 3.208 2 2 0 0 0-.147.144 2.88 2.88 0 0 1-2.2.936c-.036 0-.144.007-.274.2-.716 1.061-.5 4.941.411 7.549 1.223 3.874 4.815 7 9.376 8.159a13.24 13.24 0 0 0 11.644-2.239c2.022-1.6 4.717-4.832 4.608-5.834-.01-.094-.047-.12-.082-.136a3.16 3.16 0 0 1-1.479-2.159l-.022-.1c-.8-4.269-4.674-7.984-9.647-9.25a15 15 0 0 0-3.711-.477Z" data-name="Path 857"/></g><g data-name="Group 316" transform="translate(3.788 22.968)"><ellipse cx="2.609" cy="1.791" fill="#141414" data-name="Ellipse 37" rx="2.609" ry="1.791" transform="rotate(-74.05 3.325 2.508)"/><circle cx=".509" cy=".509" r=".509" fill="#fff" data-name="Ellipse 38" transform="translate(2.747 1.486)"/></g><g data-name="Group 317" transform="translate(15.019 25.116)"><ellipse cx="2.911" cy="1.999" fill="#141414" data-name="Ellipse 39" rx="2.911" ry="1.999" transform="rotate(-74.05 3.71 2.798)"/><circle cx=".567" cy=".567" r=".567" fill="#fff" data-name="Ellipse 40" transform="translate(3.064 1.657)"/></g><g data-name="Group 320"><g data-name="Group 318"><path fill="#fff" d="M10.037 35.27a4.7 4.7 0 0 1-1.573.047c.262 2.084 3.025 2.615 3.346.674a4.6 4.6 0 0 1-1.766-.723Z" data-name="Path 858"/><path fill="#141414" d="M10.449 37.451h-.039a2.336 2.336 0 0 1-2.2-2.1.255.255 0 0 1 .282-.283 4.4 4.4 0 0 0 1.487-.042.25.25 0 0 1 .206.044 4.3 4.3 0 0 0 1.669.678.24.24 0 0 1 .1.044.25.25 0 0 1 .1.242 1.57 1.57 0 0 1-1.605 1.417m-1.68-1.854a1.81 1.81 0 0 0 1.651 1.355 1.06 1.06 0 0 0 1.086-.771 3.24 3.24 0 0 0-2.737-.584" data-name="Path 859"/></g><g data-name="Group 319"><path fill="#141414" d="M10.038 36.485a.25.25 0 0 1-.25-.25v-.965a.25.25 0 1 1 .5 0v.965a.25.25 0 0 1-.25.25" data-name="Path 860"/></g></g><g data-name="Group 323"><g data-name="Group 321"><path fill="#141414" d="M13.905 36.451a7 7 0 0 1-4.017-.981.25.25 0 0 1-.088-.121 10.9 10.9 0 0 1 .034-4.777.25.25 0 0 1 .487.11 10.8 10.8 0 0 0-.071 4.434c1.128.789 3.477 1.051 5.892.643 2.674-.449 4.784-1.557 5.789-3.04a.25.25 0 0 1 .413.279c-1.081 1.6-3.311 2.781-6.119 3.253a14 14 0 0 1-2.32.2" data-name="Path 861"/></g><g data-name="Group 322"><path fill="#141414" d="M9.145 35.612a7.6 7.6 0 0 1-4.168-1.356 6 6 0 0 1-2.651-4.179.25.25 0 0 1 .214-.281.253.253 0 0 1 .281.214 5.52 5.52 0 0 0 2.44 3.834 6.6 6.6 0 0 0 4.72 1.183.25.25 0 0 1 .114.486 4.2 4.2 0 0 1-.95.099" data-name="Path 862"/></g></g><g data-name="Group 326"><path fill="#f2b877" d="M8.37.297a3.38 3.38 0 0 0-3.094.922c-1.336 1.425-1.6 4.371-.774 8.519A33.6 33.6 0 0 0 8.55 20.361l.063.1.3.46a13.7 13.7 0 0 1 3.992-.374l.046-.469.015-.159c.153-1.633.507-5.806.5-9.27C13.457 7.057 12.37.831 8.37.297" data-name="Path 863"/><g data-name="Group 324"><path fill="#ffc5c5" d="M9.728 19.427S6.543 10.765 6.806 7.42c.291-3.688 3.233-2.8 4.125.9 1.027 4.265.724 10.747.724 10.747a7.2 7.2 0 0 0-1.927.36" data-name="Path 864"/><path fill="#141414" d="M9.729 19.676a.3.3 0 0 1-.1-.022.25.25 0 0 1-.132-.141c-.131-.356-3.2-8.753-2.936-12.114.176-2.229 1.223-2.551 1.664-2.586 1.207-.085 2.447 1.356 2.951 3.451 1.024 4.25.734 10.753.731 10.818a.25.25 0 0 1-.24.238 7 7 0 0 0-1.846.339.3.3 0 0 1-.092.017m-1.4-14.368H8.26c-.654.051-1.105.846-1.206 2.127-.233 2.952 2.325 10.277 2.824 11.672a7.5 7.5 0 0 1 1.535-.274 46.5 46.5 0 0 0-.726-10.454c-.484-2.018-1.558-3.07-2.356-3.07Z" data-name="Path 865"/></g><g data-name="Group 325"><path fill="#141414" d="M8.914 21.174a.25.25 0 0 1-.2-.106A32.7 32.7 0 0 1 4.265 9.786c-.846-4.23-.557-7.252.837-8.738a3.63 3.63 0 0 1 3.309-1c3.9.521 5.3 6.037 5.309 10.6.01 4.356-.556 9.869-.561 9.924a.251.251 0 0 1-.5-.052c.006-.055.569-5.542.559-9.871-.008-3.514-1.043-9.6-4.876-10.108a3.15 3.15 0 0 0-2.878.844c-1.279 1.364-1.525 4.234-.712 8.3A32.1 32.1 0 0 0 9.12 20.777a.25.25 0 0 1-.2.393Z" data-name="Path 866"/></g></g><g data-name="Group 330"><path fill="#f2b877" d="M15.577 19.957a2 2 0 0 0-.016-.164 1.77 1.77 0 0 0-.653-1.161c-.387-.319-.625-.223-.734-.136-.317.255-.32.959-.006 1.569l.016.026c.025.033.045.065.068.1a2.1 2.1 0 0 0-1.313-.87c-.445-.1-.737-.008-.8.256a.92.92 0 0 0 .239.715 3.25 3.25 0 0 0 1.333.88l.85-.239a3.8 3.8 0 0 0 .958-.071 6 6 0 0 0 .063-.776q-.003-.064-.005-.129" data-name="Path 867"/><g data-name="Group 329"><g data-name="Group 327"><path fill="#141414" d="M13.7 21.392a.2.2 0 0 1-.067-.009c-1.181-.327-1.892-1.257-1.739-1.868.038-.153.228-.634 1.1-.439a2.29 2.29 0 0 1 1.809 1.748.25.25 0 0 1-.2.288.246.246 0 0 1-.288-.2 1.8 1.8 0 0 0-1.427-1.345c-.212-.048-.474-.058-.507.073-.071.283.415 1 1.389 1.266a.249.249 0 0 1-.067.49Z" data-name="Path 868"/></g><g data-name="Group 328"><path fill="#141414" d="M15.473 20.992a.3.3 0 0 1-.086-.016.25.25 0 0 1-.147-.32 1.68 1.68 0 0 0-.488-1.832c-.088-.072-.3-.23-.418-.134a1.21 1.21 0 0 0 .059 1.26.25.25 0 0 1-.443.229 1.6 1.6 0 0 1 .071-1.878c.136-.109.506-.31 1.049.138a2.155 2.155 0 0 1 .638 2.389.25.25 0 0 1-.235.164" data-name="Path 869"/></g></g></g><g data-name="Group 334"><path fill="#f2b877" d="M31.335 8.706a5.71 5.71 0 0 0-4.308-3.5 6.6 6.6 0 0 0-5.661 1.454 7.74 7.74 0 0 0-2.836 5.937 4.03 4.03 0 0 0 2.5 3.729 5.5 5.5 0 0 0 1.687.45l-.038.113a17.1 17.1 0 0 1-2.927 5.064l-.123.149-.375.431a15 15 0 0 1 2.606 2.142l.62-.391.113-.077a28.1 28.1 0 0 0 6.975-7.052c2.072-2.969 2.716-6.043 1.767-8.449" data-name="Path 870"/><g data-name="Group 331"><path fill="#141414" d="M19.255 22.781a.25.25 0 0 1-.186-.417 16.7 16.7 0 0 0 3.41-5.664.25.25 0 1 1 .478.142 16.8 16.8 0 0 1-3.517 5.856.25.25 0 0 1-.185.083" data-name="Path 871"/></g><g data-name="Group 332"><path fill="#ffc5c5" d="M21.307 21.949a4.5 4.5 0 0 1 1.192 1.081c.887-.721 5.23-6.15 5.486-9.8a6.53 6.53 0 0 1-1.807 2.625 4.05 4.05 0 0 1-1.93.852v.009a21.2 21.2 0 0 1-2.941 5.233" data-name="Path 872"/><path fill="#141414" d="M22.498 23.28a.3.3 0 0 1-.05-.005.25.25 0 0 1-.17-.127 4.2 4.2 0 0 0-1.108-.989.25.25 0 0 1-.111-.173.25.25 0 0 1 .056-.2 21 21 0 0 0 2.892-5.154.27.27 0 0 1 .193-.166 3.8 3.8 0 0 0 1.812-.8 6.25 6.25 0 0 0 1.736-2.526.25.25 0 0 1 .14-.141.26.26 0 0 1 .242.03.25.25 0 0 1 .1.218c-.263 3.762-4.735 9.288-5.577 9.973a.25.25 0 0 1-.155.06m-.826-1.383a5 5 0 0 1 .866.757 24.6 24.6 0 0 0 4.852-7.771 6.2 6.2 0 0 1-1.054 1.168 4.2 4.2 0 0 1-1.91.881 21.4 21.4 0 0 1-2.753 4.965Z" data-name="Path 873"/></g><g data-name="Group 333"><path fill="#141414" d="M21.861 24.923a.25.25 0 0 1-.122-.467 26.4 26.4 0 0 0 7.625-7.445c2.023-2.893 2.657-5.886 1.739-8.213a5.47 5.47 0 0 0-4.128-3.348 6.36 6.36 0 0 0-5.451 1.4 7.49 7.49 0 0 0-2.745 5.74 3.79 3.79 0 0 0 2.355 3.505 4.82 4.82 0 0 0 4.879-.426 7.46 7.46 0 0 0 2.279-4.928.25.25 0 0 1 .249-.242h.007a.25.25 0 0 1 .242.257 7.85 7.85 0 0 1-2.454 5.293 5.33 5.33 0 0 1-5.407.5 4.3 4.3 0 0 1-2.65-3.951 8 8 0 0 1 2.927-6.134 6.85 6.85 0 0 1 5.872-1.506 6.03 6.03 0 0 1 4.488 3.654c.981 2.485.327 5.65-1.793 8.683a26.9 26.9 0 0 1-7.79 7.595.25.25 0 0 1-.122.033" data-name="Path 874"/></g></g><g data-name="Group 335" transform="translate(8.318 28.864)"><path fill="#141414" d="M1.719 2.237a2.04 2.04 0 0 0 2.1-1.068.51.51 0 0 0-.374-.743L.577.006a.51.51 0 0 0-.571.6 2.04 2.04 0 0 0 1.713 1.631" data-name="Path 875"/><ellipse cx=".206" cy=".959" fill="#fff" data-name="Ellipse 41" rx=".206" ry=".959" transform="rotate(-81.663 .945 -.153)"/></g></g></svg>