<svg width="210" height="210" viewBox="0 0 210 210" fill="none" xmlns="http://www.w3.org/2000/svg">
<g clip-path="url(#clip0_14825_99)">
<path d="M105 210C162.989 210 209.999 162.99 209.999 105C209.999 47.0102 162.989 0 105 0C47.0099 0 0 47.0102 0 105C0 162.99 47.0099 210 105 210Z" fill="#49C4C9"/>
<path d="M161.04 41.262C163.167 39.1358 166.613 39.1358 168.739 41.262C170.866 43.3881 170.866 46.8346 168.739 48.9607L48.96 168.738C46.8338 170.865 43.3874 170.865 41.2612 168.738C39.1349 166.612 39.1349 163.166 41.2612 161.04L95.3106 106.991C97.6429 104.659 98.8091 103.493 98.8879 102.491C98.9563 101.623 98.6046 100.774 97.942 100.208C97.1783 99.5555 95.5291 99.5555 92.2308 99.5555H48.3771C45.3278 99.5555 43.8032 99.5555 42.6386 98.9621C41.6141 98.4401 40.7812 97.6073 40.2592 96.5828C39.6658 95.4182 39.6658 93.8936 39.6658 90.8444V48.3778C39.6658 45.3286 39.6658 43.804 40.2592 42.6394C40.7812 41.6149 41.6141 40.782 42.6386 40.2601C43.8032 39.6667 45.3278 39.6667 48.3771 39.6667H90.8443C93.8935 39.6667 95.4181 39.6667 96.5827 40.2601C97.6072 40.782 98.4401 41.6149 98.9621 42.6394C99.5555 43.804 99.5555 45.3286 99.5555 48.3778V69.6111C99.5555 81.8387 114.339 87.9624 122.986 79.3161L161.04 41.262Z" fill="#061314"/>
<path d="M50.5549 164.889C50.5549 167.896 48.1173 170.333 45.1103 170.333C42.1034 170.333 39.6658 167.896 39.6658 164.889C39.6658 161.882 42.1034 159.444 45.1103 159.444C48.1173 159.444 50.5549 161.882 50.5549 164.889Z" fill="#061314"/>
<path d="M170.334 45.1111C170.334 48.118 167.897 50.5555 164.89 50.5555C161.883 50.5555 159.445 48.118 159.445 45.1111C159.445 42.1042 161.883 39.6667 164.89 39.6667C167.897 39.6667 170.334 42.1042 170.334 45.1111Z" fill="#061314"/>
<path d="M48.96 168.738C46.8338 170.865 43.3874 170.865 41.2612 168.738C39.1349 166.612 39.1349 163.166 41.2612 161.04L161.04 41.262C163.167 39.1358 166.613 39.1358 168.739 41.262C170.866 43.3881 170.866 46.8346 168.739 48.9607L114.687 103.009C112.355 105.341 111.189 106.507 111.11 107.508C111.042 108.377 111.393 109.226 112.056 109.792C112.82 110.444 114.469 110.444 117.767 110.444L161.621 110.444C164.67 110.444 166.195 110.444 167.359 111.037C168.384 111.559 169.217 112.392 169.739 113.417C170.332 114.581 170.332 116.106 170.332 119.155V161.622C170.332 164.671 170.332 166.195 169.739 167.36C169.217 168.385 168.384 169.217 167.359 169.739C166.195 170.333 164.67 170.333 161.621 170.333H119.154C116.104 170.333 114.58 170.333 113.415 169.739C112.391 169.217 111.558 168.384 111.036 167.36C110.442 166.195 110.442 164.671 110.442 161.622V140.388C110.442 128.161 95.6585 122.037 87.0122 130.683L48.96 168.738Z" fill="#061314"/>
<path d="M159.445 45.1111C159.445 42.1042 161.883 39.6667 164.89 39.6667C167.897 39.6667 170.334 42.1042 170.334 45.1111C170.334 48.118 167.897 50.5555 164.89 50.5555C161.883 50.5555 159.445 48.118 159.445 45.1111Z" fill="#061314"/>
<path d="M39.6658 164.889C39.6658 161.882 42.1034 159.444 45.1103 159.444C48.1173 159.444 50.5549 161.882 50.5549 164.889C50.5549 167.896 48.1173 170.333 45.1103 170.333C42.1034 170.333 39.6658 167.896 39.6658 164.889Z" fill="#061314"/>
</g>
<defs>
<clipPath id="clip0_14825_99">
<path d="M0 105C0 47.0101 47.0101 0 105 0C162.99 0 210 47.0101 210 105C210 162.99 162.99 210 105 210C47.0101 210 0 162.99 0 105Z" fill="white"/>
</clipPath>
</defs>
</svg>
