<svg xmlns="http://www.w3.org/2000/svg" width="32" height="32" fill="none"><circle cx="16" cy="16" r="16" fill="#0158FF"/><circle cx="16" cy="16" r="14" fill="#94FE63"/><circle cx="16" cy="16" r="12" fill="#F4F605"/><circle cx="16" cy="16" r="10" fill="#FB9F01"/><circle cx="16" cy="16" r="8" fill="#FF2001"/><circle cx="16" cy="16" r="6" fill="#FF2001"/><circle cx="16" cy="16" r="4" fill="#FF2001"/><path fill="#fff" fill-rule="evenodd" d="m12.293 10.7-.7.7 1.707 1.706 1.707 1.707v3.178h1.988v-3.178l1.703-1.703 1.703-1.702-.704-.704-.704-.703-1.487 1.483a89 89 0 0 1-1.505 1.483c-.01 0-.688-.668-1.507-1.484A233 233 0 0 0 13 10c-.004 0-.322.315-.706.7m-.789 4.1a5.025 5.025 0 0 0 .597 5.332c.147.185.58.619.765.765a5 5 0 0 0 2.826 1.092 4.9 4.9 0 0 0 1.885-.247 5 5 0 0 0 3.37-4.013c.108-.721.05-1.492-.166-2.203-.086-.283-.26-.706-.35-.854l-.036-.056-.756.756c-.61.61-.755.763-.747.79.062.218.095.446.104.716a2.9 2.9 0 0 1-.272 1.391c-.401.86-1.184 1.475-2.142 1.68-.166.035-.227.04-.59.039-.355 0-.425-.005-.581-.039a3 3 0 0 1-2.117-1.646 2.76 2.76 0 0 1-.29-1.21c-.008-.333.01-.534.074-.796l.04-.169-.754-.754a42 42 0 0 0-.764-.755c-.005 0-.049.082-.096.181" clip-rule="evenodd"/></svg>