<svg xmlns="http://www.w3.org/2000/svg" width="98" height="107" fill="none"><circle cx="49" cy="49" r="49" fill="url(#a)"/><path fill="url(#b)" d="M11 101a4 4 0 0 1 4-4h68a4 4 0 0 1 4 4v5a1 1 0 0 1-1 1H12a1 1 0 0 1-1-1z"/><path fill="url(#c)" d="M11 101a4 4 0 0 1 4-4h68a4 4 0 0 1 4 4v5a1 1 0 0 1-1 1H12a1 1 0 0 1-1-1z" style="mix-blend-mode:hard-light"/><path fill="url(#d)" d="M42 63h14v34H42z"/><path fill="#fff" fill-rule="evenodd" d="M26.268 19h5.417a1.194 1.194 0 0 1 1.193 1.192v13.05l6.026 5.971a1.191 1.191 0 1 1-1.68 1.693L30.86 34.6l-6.96-6.415v5.24c0 .658-.533 1.192-1.192 1.192h-6.515a1.192 1.192 0 1 1 0-2.384h5.322v-6.77a1.192 1.192 0 0 1 2.002-.876l6.975 6.43v-9.633h-4.224a1.193 1.193 0 1 1 0-2.384m39.203.35c.224-.224.528-.35.844-.35h5.417a1.192 1.192 0 1 1 0 2.385h-4.224v9.632l6.975-6.43a1.193 1.193 0 0 1 2.002.876v6.77h5.322a1.193 1.193 0 1 1 0 2.384h-6.515a1.19 1.19 0 0 1-1.193-1.192v-5.24L67.14 34.6l-6.363 6.306a1.194 1.194 0 0 1-1.68-1.693l6.026-5.971v-13.05c0-.316.126-.62.35-.843zM38.911 57.1a1.19 1.19 0 0 1-.007 1.686l-6.026 5.971v13.05A1.19 1.19 0 0 1 31.685 79h-5.417a1.192 1.192 0 1 1 0-2.385h4.224v-9.632l-6.975 6.43a1.193 1.193 0 0 1-2.002-.876v-6.77h-5.322a1.193 1.193 0 1 1 0-2.384h6.515c.659 0 1.193.534 1.193 1.192v5.24l6.96-6.415 6.363-6.306a1.194 1.194 0 0 1 1.687.007zm20.178 0a1.194 1.194 0 0 1 1.687-.007l6.363 6.306 6.96 6.415v-5.24c0-.658.534-1.192 1.193-1.192h6.515a1.192 1.192 0 1 1 0 2.384h-5.322v6.77a1.192 1.192 0 0 1-2.002.876l-6.975-6.43v9.633h4.224a1.193 1.193 0 1 1 0 2.383L66.315 79a1.194 1.194 0 0 1-1.193-1.192v-13.05l-6.026-5.971a1.19 1.19 0 0 1-.007-1.686z" clip-rule="evenodd"/><circle cx="49" cy="49" r="16" fill="#AF70FF"/><circle cx="49" cy="49" r="16" fill="url(#e)"/><circle cx="49" cy="49" r="49" fill="url(#f)"/><defs><radialGradient id="a" cx="0" cy="0" r="1" gradientTransform="matrix(65.5 65.5 -65.5 65.5 28 28)" gradientUnits="userSpaceOnUse"><stop stop-color="#fff"/><stop offset=".434" stop-color="#D662FF"/><stop offset=".699" stop-color="#813DD7"/><stop offset=".949" stop-color="#491C6E"/></radialGradient><radialGradient id="b" cx="0" cy="0" r="1" gradientTransform="matrix(0 22 -38 0 49 93)" gradientUnits="userSpaceOnUse"><stop stop-color="#530688"/><stop offset="1" stop-color="#9434DC"/></radialGradient><radialGradient id="e" cx="0" cy="0" r="1" gradientTransform="rotate(90 0 49)scale(33.4204)" gradientUnits="userSpaceOnUse"><stop offset=".135" stop-color="#fff" stop-opacity="0"/><stop offset=".253" stop-color="#fff"/><stop offset=".36" stop-color="#fff" stop-opacity="0"/><stop offset=".502" stop-color="#fff"/><stop offset=".64" stop-color="#fff" stop-opacity="0"/><stop offset=".752" stop-color="#fff" stop-opacity=".6"/><stop offset=".865" stop-color="#fff" stop-opacity="0"/><stop offset="1" stop-color="#fff" stop-opacity=".6"/></radialGradient><radialGradient id="f" cx="0" cy="0" r="1" gradientTransform="rotate(45 -31.82 76.82)scale(74.9533)" gradientUnits="userSpaceOnUse"><stop offset=".404" stop-color="#C31AFF" stop-opacity="0"/><stop offset=".708" stop-color="#560A94"/></radialGradient><linearGradient id="c" x1="49" x2="49" y1="97" y2="107" gradientUnits="userSpaceOnUse"><stop stop-opacity="0"/><stop offset="1" stop-opacity=".3"/></linearGradient><linearGradient id="d" x1="49" x2="49" y1="55" y2="84" gradientUnits="userSpaceOnUse"><stop stop-color="#250074"/><stop offset="1" stop-color="#9B70FF" stop-opacity="0"/></linearGradient></defs></svg>