<svg width="98" height="107" fill="none" xmlns="http://www.w3.org/2000/svg"><circle cx="49" cy="49" r="49" fill="url(#prefix__paint0_radial)"/><path d="M11 101a4 4 0 014-4h68a4 4 0 014 4v5a1 1 0 01-1 1H12a1 1 0 01-1-1v-5z" fill="url(#prefix__paint1_radial)"/><path d="M11 101a4 4 0 014-4h68a4 4 0 014 4v5a1 1 0 01-1 1H12a1 1 0 01-1-1v-5z" fill="url(#prefix__paint2_linear)" style="mix-blend-mode:hard-light"/><path fill="url(#prefix__paint3_linear)" d="M42 63h14v34H42z"/><path fill-rule="evenodd" clip-rule="evenodd" d="M26.268 19h5.417a1.194 1.194 0 011.193 1.192v13.05l6.026 5.971a1.191 1.191 0 11-1.68 1.693L30.86 34.6l-6.96-6.415v5.24c0 .658-.533 1.192-1.192 1.192h-6.515a1.192 1.192 0 110-2.384h5.322v-6.77a1.192 1.192 0 012.002-.876l6.975 6.43v-9.633h-4.224a1.193 1.193 0 110-2.384zm39.203.35c.224-.224.528-.35.844-.35h5.417a1.192 1.192 0 110 2.385h-4.224v9.632l6.975-6.43a1.193 1.193 0 012.002.876v6.77h5.322a1.193 1.193 0 110 2.384h-6.515a1.192 1.192 0 01-1.193-1.192v-5.24L67.14 34.6l-6.363 6.306a1.194 1.194 0 01-1.68-1.693l6.026-5.971v-13.05c0-.316.126-.62.35-.843zM38.911 57.1c.464.468.461 1.222-.007 1.686l-6.026 5.971v13.05A1.192 1.192 0 0131.685 79h-5.417a1.192 1.192 0 110-2.385h4.224v-9.632l-6.975 6.43a1.193 1.193 0 01-2.002-.876v-6.77h-5.322a1.193 1.193 0 110-2.384h6.515c.659 0 1.193.534 1.193 1.192v5.24l6.96-6.415 6.363-6.306a1.194 1.194 0 011.687.007zm20.178 0a1.194 1.194 0 011.687-.007l6.363 6.306 6.96 6.415v-5.24c0-.658.534-1.192 1.193-1.192h6.515a1.192 1.192 0 110 2.384h-5.322v6.77a1.192 1.192 0 01-2.002.876l-6.975-6.43v9.633h4.224a1.193 1.193 0 110 2.383L66.315 79a1.194 1.194 0 01-1.193-1.192v-13.05l-6.026-5.971a1.191 1.191 0 01-.007-1.686z" fill="#fff"/><circle cx="49" cy="49" r="16" fill="#AF70FF"/><circle cx="49" cy="49" r="16" fill="url(#prefix__paint4_angular)"/><circle cx="49" cy="49" r="49" fill="url(#prefix__paint5_radial)"/><defs><radialGradient id="prefix__paint0_radial" cx="0" cy="0" r="1" gradientUnits="userSpaceOnUse" gradientTransform="matrix(65.5 65.5 -65.5 65.5 28 28)"><stop stop-color="#fff"/><stop offset=".434" stop-color="#D662FF"/><stop offset=".699" stop-color="#813DD7"/><stop offset=".949" stop-color="#491C6E"/></radialGradient><radialGradient id="prefix__paint1_radial" cx="0" cy="0" r="1" gradientUnits="userSpaceOnUse" gradientTransform="matrix(0 22 -38 0 49 93)"><stop stop-color="#530688"/><stop offset="1" stop-color="#9434DC"/></radialGradient><radialGradient id="prefix__paint4_angular" cx="0" cy="0" r="1" gradientUnits="userSpaceOnUse" gradientTransform="rotate(90 0 49) scale(33.4204)"><stop offset=".135" stop-color="#fff" stop-opacity="0"/><stop offset=".253" stop-color="#fff"/><stop offset=".36" stop-color="#fff" stop-opacity="0"/><stop offset=".502" stop-color="#fff"/><stop offset=".64" stop-color="#fff" stop-opacity="0"/><stop offset=".752" stop-color="#fff" stop-opacity=".6"/><stop offset=".865" stop-color="#fff" stop-opacity="0"/><stop offset="1" stop-color="#fff" stop-opacity=".6"/></radialGradient><radialGradient id="prefix__paint5_radial" cx="0" cy="0" r="1" gradientUnits="userSpaceOnUse" gradientTransform="rotate(45 -31.82 76.82) scale(74.9533)"><stop offset=".404" stop-color="#C31AFF" stop-opacity="0"/><stop offset=".708" stop-color="#560A94"/></radialGradient><linearGradient id="prefix__paint2_linear" x1="49" y1="97" x2="49" y2="107" gradientUnits="userSpaceOnUse"><stop stop-opacity="0"/><stop offset="1" stop-opacity=".3"/></linearGradient><linearGradient id="prefix__paint3_linear" x1="49" y1="55" x2="49" y2="84" gradientUnits="userSpaceOnUse"><stop stop-color="#250074"/><stop offset="1" stop-color="#9B70FF" stop-opacity="0"/></linearGradient></defs></svg>
