<?xml version="1.0" encoding="UTF-8"?><svg id="Layer_1" xmlns="http://www.w3.org/2000/svg" viewBox="0 0 514.47 514.47"><defs><style>.cls-1{fill:#fff;}.cls-2{fill:#0657f9;}</style></defs><circle class="cls-2" cx="257.24" cy="257.24" r="257.24"/><g><path class="cls-1" d="M392.3,215.35l-46.65,45.56c2.56,8.33,3.89,17.07,3.89,26.01,0,24.01-9.57,46.59-26.96,63.57-17.38,16.98-40.5,26.33-65.08,26.33s-47.7-9.35-65.08-26.33c-17.38-16.98-26.96-39.55-26.96-63.57,0-8.94,1.33-17.68,3.89-26.01l-46.65-45.56c-11.86,21.27-18.6,45.65-18.6,71.57,0,82.75,68.68,149.83,153.4,149.83s153.4-67.08,153.4-149.83c0-25.92-6.74-50.31-18.6-71.57Z"/><polygon class="cls-1" points="226.82 316.89 288.18 316.89 288.18 221.53 392.64 119.47 349.24 77.1 257.53 166.7 165.77 77.07 122.38 119.45 226.82 221.47 226.82 316.89"/></g></svg>