<svg width="37" height="37" viewBox="0 0 37 37" fill="none" xmlns="http://www.w3.org/2000/svg">
<rect width="37" height="37" rx="18.5" fill="white"/>
<circle cx="18.5" cy="18.5" r="18.5" fill="#0576F8"/>
<path d="M20.2408 15.29C17.8746 16.6788 16.2849 19.2485 16.2848 22.1904C16.2848 25.1323 17.8747 27.702 20.2408 29.0908V30.4395H13.7819V23.4951L3.42346 13.1357L7.99084 8.56836L13.7819 14.3604V5.38574H20.2408V15.29ZM24.2819 14.1943C28.6983 14.1943 32.2787 17.774 32.2789 22.1904C32.2789 26.607 28.6985 30.1875 24.2819 30.1875C22.8073 30.1875 21.4269 29.787 20.2408 29.0908V15.29C21.4268 14.594 22.8074 14.1944 24.2819 14.1943Z" fill="white"/>
</svg>
