<svg xmlns="http://www.w3.org/2000/svg" width="47" height="47"><g data-name="组 28" transform="translate(-5114.032 -1147.801)"><circle cx="22.983" cy="22.983" r="22.983" data-name="椭圆 1" transform="translate(5114.549 1148.318)"/><g fill="#fff" data-name="组 27"><path d="M5114.032 1171.872v-1.146c0-.042.012-.084.014-.125a23.44 23.44 0 0 1 3.858-12.225.2.2 0 0 1 .192-.108h27.929c.039 0 .079 0 .131.007-.247.43-.484.846-.728 1.257a.19.19 0 0 1-.14.052q-.987.006-1.974 0a.2.2 0 0 0-.207.121q-1.928 3.352-3.861 6.7l-9.507 16.484c-.019.035-.035.072-.065.132h2.205l-.076.143c-.349.606-.692 1.217-1.052 1.816-.182.3-.1.367.206.367q12.621-.006 25.242 0h.176l-.091.125a24 24 0 0 1-2.385 2.695 23.43 23.43 0 0 1-17.314 6.615 22.5 22.5 0 0 1-4.121-.529 23.47 23.47 0 0 1-18.385-21.557zm23.152-6.095-9.962 17.241h1.138a.19.19 0 0 0 .19-.109q.939-1.638 1.885-3.274l11.484-19.911c.022-.039.04-.08.063-.127h-14.158v6.178Zm5.673-6.187a4 4 0 0 1-.381 0 .234.234 0 0 0-.256.15q-3.483 6.051-6.973 12.1l-6.38 11.062c-.02.033-.035.07-.06.121.151 0 .283-.008.413 0a.2.2 0 0 0 .208-.123q2.615-4.547 5.239-9.09l8.14-14.114c.016-.031.028-.061.05-.106" data-name="路径 10"/><path d="M5145.714 1159.59c.167 0 .306-.006.444 0a.16.16 0 0 0 .17-.1q.435-.763.875-1.522l.254-.441h-28.814a1 1 0 0 0-.1 0 .1.1 0 0 0-.067.025c-.1.138-.2.279-.317.443h28.114a1 1 0 0 1 .114 0 .135.135 0 0 1 .118.216q-.06.113-.127.221c-.217.382-.432.757-.664 1.158m-14.7 25.488h25.376a1 1 0 0 0 .127 0 .12.12 0 0 0 .077-.032l.315-.44h-24.734c-.238 0-.287-.08-.169-.284l.685-1.19c.018-.031.032-.064.056-.113-.159 0-.3.005-.438 0a.16.16 0 0 0-.169.1c-.34.6-.684 1.191-1.027 1.786Z" data-name="路径 11"/><path d="m5138.1 1147.8.825.047a23.516 23.516 0 0 1 21.555 18.374 22.7 22.7 0 0 1 .531 4.146 23.4 23.4 0 0 1-2.285 11.1 22.6 22.6 0 0 1-1.584 2.784c-.026.04-.09.057-.14.078a.2.2 0 0 1-.076 0h-24.6c.02-.041.03-.067.045-.092q.327-.566.653-1.136a.14.14 0 0 1 .15-.087 1 1 0 0 0 .114 0h13.645v-6.152h-9.049l9.962-17.271h-1.255c.032-.061.051-.1.073-.14l1.087-1.884c.137-.239.1-.308-.175-.308h-28.879c.043-.062.07-.1.1-.139a23.5 23.5 0 0 1 12.725-8.542 23.2 23.2 0 0 1 4.7-.741l.735-.04Z" data-name="路径 12"/><path d="M5145.714 1159.59c.232-.4.447-.776.663-1.15q.066-.108.127-.221a.135.135 0 0 0-.118-.216 1 1 0 0 0-.114 0h-28.112l.317-.443a.1.1 0 0 1 .067-.025 1 1 0 0 1 .1 0h28.814l-.254.441q-.44.76-.875 1.522a.16.16 0 0 1-.17.1c-.139-.014-.278-.008-.445-.008" data-name="路径 13"/><path d="m5131.017 1185.078.1-.175q.516-.892 1.027-1.786a.16.16 0 0 1 .169-.1c.139.007.279 0 .438 0-.024.049-.038.082-.056.113l-.685 1.19c-.118.2-.069.284.169.284h24.734c-.114.161-.212.3-.315.44a.12.12 0 0 1-.077.032 1 1 0 0 1-.127 0h-25.376Z" data-name="路径 14"/></g></g></svg>