<svg xmlns="http://www.w3.org/2000/svg" width="47" height="47" viewBox="0 0 47 47">
  <g id="组_28" data-name="组 28" transform="translate(-5114.032 -1147.801)">
    <circle id="椭圆_1" data-name="椭圆 1" cx="22.983" cy="22.983" r="22.983" transform="translate(5114.549 1148.318)"/>
    <g id="组_27" data-name="组 27">
      <path id="路径_10" data-name="路径 10" d="M5114.032,1171.872v-1.146c0-.042.012-.084.014-.125a23.443,23.443,0,0,1,3.858-12.225.2.2,0,0,1,.192-.108q13.964,0,27.929,0c.039,0,.079,0,.131.007-.247.43-.484.846-.728,1.257a.186.186,0,0,1-.14.052q-.987.006-1.974,0a.2.2,0,0,0-.207.121q-1.928,3.352-3.861,6.7-4.753,8.242-9.507,16.484c-.019.035-.035.072-.065.132h2.205c-.033.063-.053.1-.076.143-.349.606-.692,1.217-1.052,1.816-.182.3-.1.367.206.367q12.621-.006,25.242,0h.176c-.042.057-.066.092-.091.125a23.816,23.816,0,0,1-2.385,2.695,23.43,23.43,0,0,1-17.314,6.615,22.51,22.51,0,0,1-4.121-.529,23.473,23.473,0,0,1-18.385-21.557C5114.063,1172.422,5114.048,1172.147,5114.032,1171.872Zm23.152-6.095-9.962,17.241c.4,0,.769,0,1.138,0a.188.188,0,0,0,.19-.109q.939-1.638,1.885-3.274l11.484-19.911c.022-.039.04-.08.063-.127h-14.158v6.178Zm5.673-6.187a3.7,3.7,0,0,1-.381,0,.234.234,0,0,0-.256.15q-3.483,6.051-6.973,12.1-3.19,5.532-6.38,11.062c-.02.033-.035.07-.06.121.151,0,.283-.008.413,0a.2.2,0,0,0,.208-.123q2.615-4.547,5.239-9.09,4.069-7.057,8.14-14.114C5142.823,1159.665,5142.835,1159.635,5142.857,1159.59Z" fill="#fff"/>
      <path id="路径_11" data-name="路径 11" d="M5145.714,1159.59c.167,0,.306-.006.444,0a.163.163,0,0,0,.17-.1c.289-.509.583-1.015.875-1.522l.254-.441h-28.814a.87.87,0,0,0-.1,0,.106.106,0,0,0-.067.025c-.1.138-.2.279-.317.443h.185q4.529,0,9.055,0h18.874a1.082,1.082,0,0,1,.114,0,.135.135,0,0,1,.118.216c-.039.076-.084.148-.127.221C5146.161,1158.814,5145.946,1159.189,5145.714,1159.59Zm-14.7,25.488h25.376a1.074,1.074,0,0,0,.127,0,.122.122,0,0,0,.077-.032c.1-.138.2-.279.315-.44h-24.734c-.238,0-.287-.08-.169-.284l.685-1.19c.018-.031.032-.064.056-.113-.159,0-.3.005-.438,0a.163.163,0,0,0-.169.1c-.34.6-.684,1.191-1.027,1.786Z" fill="#fff"/>
      <path id="路径_12" data-name="路径 12" d="M5138.1,1147.8l.825.047a23.516,23.516,0,0,1,21.555,18.374,22.7,22.7,0,0,1,.531,4.146,23.389,23.389,0,0,1-2.285,11.1,22.579,22.579,0,0,1-1.584,2.784c-.026.04-.09.057-.14.078a.211.211,0,0,1-.076,0h-24.6c.02-.041.03-.067.045-.092.217-.378.437-.756.653-1.136a.141.141,0,0,1,.15-.087,1.081,1.081,0,0,0,.114,0h13.645v-6.152h-9.049l9.962-17.271h-1.255c.032-.061.051-.1.073-.14l1.087-1.884c.137-.239.1-.308-.175-.308h-28.879c.043-.062.07-.1.1-.139a23.515,23.515,0,0,1,12.725-8.542,23.244,23.244,0,0,1,4.7-.741l.735-.04Z" fill="#fff"/>
      <path id="路径_13" data-name="路径 13" d="M5145.714,1159.59c.232-.4.447-.776.663-1.15.043-.073.088-.145.127-.221a.135.135,0,0,0-.118-.216,1.082,1.082,0,0,0-.114,0H5127.4q-4.527,0-9.055,0h-.185c.117-.164.215-.3.317-.443a.106.106,0,0,1,.067-.025.87.87,0,0,1,.1,0h28.814l-.254.441c-.292.507-.586,1.013-.875,1.522a.163.163,0,0,1-.17.1C5146.02,1159.584,5145.881,1159.59,5145.714,1159.59Z" fill="#fff"/>
      <path id="路径_14" data-name="路径 14" d="M5131.017,1185.078l.1-.175c.343-.595.687-1.19,1.027-1.786a.163.163,0,0,1,.169-.1c.139.007.279,0,.438,0-.024.049-.038.082-.056.113l-.685,1.19c-.118.2-.069.284.169.284h24.734c-.114.161-.212.3-.315.44a.122.122,0,0,1-.077.032,1.074,1.074,0,0,1-.127,0h-25.376Z" fill="#fff"/>
    </g>
  </g>
</svg>
