<svg xmlns="http://www.w3.org/2000/svg" xml:space="preserve" id="Z" x="0" y="0" version="1.1" viewBox="0 0 500 500"><style>.st1{fill:#01041c}</style><g id="Z_x5F_coin"><circle id="white_x5F_background" cx="250" cy="250" r="250" style="fill:#fff"/><g id="Z_1_"><path d="M0 256.1v-12.2c0-.4.1-.9.1-1.3.5-14.9 2.2-29.6 5.2-44.2 6.5-30.9 18.5-59.5 35.8-85.9.5-.8 1-1.1 2-1.1h297.1c.4 0 .8 0 1.4.1-2.6 4.6-5.2 9-7.8 13.4-.2.4-1 .6-1.5.6h-21c-1.1 0-1.7.3-2.2 1.3-13.7 23.8-27.4 47.5-41.1 71.3-33.7 58.5-67.4 116.9-101.1 175.4l-.7 1.4h23.5c-.4.7-.6 1.1-.8 1.5-3.7 6.4-7.4 12.9-11.2 19.3-1.9 3.2-1 3.9 2.2 3.9h270.4c-.4.6-.7 1-1 1.3-7.7 10.2-16.2 19.8-25.4 28.7-19.5 18.9-41.4 34.3-65.9 46-37.4 17.9-76.9 25.9-118.3 24.4-14.8-.6-29.4-2.4-43.8-5.6-48-10.8-89.4-33.7-124-68.6-20.5-20.6-36.8-44.2-49-70.6C9.8 326.4 2.3 296.3.5 264.8c-.2-2.9-.3-5.8-.5-8.7m246.3-64.9c-35.4 61.3-70.6 122.2-106 183.4h12.1c1 0 1.5-.3 2-1.2l20.1-34.8c40.7-70.6 81.4-141.2 122.2-211.8.2-.4.4-.8.7-1.3H146.8v65.7zm60.3-65.8c-1.5 0-2.8.1-4.1 0-1.4-.2-2.1.4-2.7 1.6-24.7 42.9-49.4 85.8-74.2 128.7-22.6 39.2-45.2 78.4-67.9 117.7-.2.4-.4.7-.6 1.3 1.6 0 3-.1 4.4 0 1.1.1 1.7-.4 2.2-1.3 18.6-32.2 37.2-64.5 55.7-96.7 28.9-50 57.7-100.1 86.6-150.1.3-.4.4-.7.6-1.2" class="st1"/><path d="M337 125.4c1.8 0 3.3-.1 4.7 0 .9 0 1.4-.3 1.8-1l9.3-16.2c.9-1.5 1.7-3 2.7-4.7H47.9c-.2 0-.6.1-.7.3-1.1 1.5-2.1 3-3.4 4.7h300.3c1.4.1 1.9 1.1 1.2 2.3-.4.8-.9 1.6-1.3 2.3-2.2 4.1-4.5 8-7 12.3M180.7 396.6h271.4c.3 0 .7-.1.8-.3 1.1-1.5 2.1-3 3.3-4.7H193.1c-2.5 0-3.1-.9-1.8-3 2.4-4.2 4.9-8.4 7.3-12.7.2-.3.3-.7.6-1.2-1.7 0-3.2.1-4.7 0-.9 0-1.4.3-1.8 1.1-3.6 6.3-7.3 12.7-10.9 19-.4.4-.7 1-1.1 1.8" class="st1"/><path d="M256.1 0c2.9.2 5.8.3 8.8.5 31.5 1.8 61.5 9.3 90.1 22.6 26.3 12.2 49.8 28.4 70.4 48.8 35 34.7 57.9 76 68.8 124.1 3.3 14.5 5.1 29.2 5.7 44.1 1.5 41.3-6.5 80.7-24.3 118.1-4.9 10.3-10.5 20.1-16.8 29.6-.3.4-1 .6-1.5.8-.2.1-.5 0-.8 0H194.7c.2-.4.3-.7.5-1 2.3-4 4.7-8 6.9-12.1.4-.7.8-1 1.6-.9H350v-65.4h-96.3c35.4-61.4 70.6-122.4 106-183.7h-13.4c.3-.6.5-1.1.8-1.5 3.9-6.7 7.7-13.4 11.6-20 1.5-2.5 1-3.3-1.9-3.3H49.5c.5-.7.7-1.1 1-1.5 16.1-21.3 35.2-39.6 57.2-54.8 24-16.6 50-28.6 78.2-36.1C202.3 4 219 1.4 235.9.4c2.6-.1 5.2-.3 7.8-.4z" class="st1"/><path d="M337 125.4c2.5-4.3 4.8-8.2 7.1-12.2.5-.8.9-1.5 1.3-2.3.6-1.2.1-2.2-1.2-2.3H43.9c1.2-1.8 2.3-3.2 3.4-4.7.1-.2.5-.2.7-.3h307.6c-1 1.7-1.8 3.2-2.7 4.7l-9.3 16.2c-.4.8-.9 1.1-1.8 1-1.5-.1-3-.1-4.8-.1M180.7 396.6c.4-.8.7-1.3 1.1-1.9 3.6-6.3 7.3-12.7 10.9-19 .4-.8.9-1.1 1.8-1.1 1.5.1 3 0 4.7 0-.3.5-.4.9-.6 1.2-2.4 4.2-4.9 8.4-7.3 12.7-1.2 2.2-.7 3 1.8 3h263.1c-1.2 1.7-2.3 3.2-3.3 4.7-.2.2-.5.3-.8.3-.4.1-.9 0-1.4 0H182.8c-.6.1-1.2.1-2.1.1" class="st1"/></g></g></svg>