<?xml version="1.0" encoding="utf-8"?>
<!-- Generator: Adobe Illustrator 24.0.1, SVG Export Plug-In . SVG Version: 6.00 Build 0)  -->
<svg version="1.1" id="Z" xmlns="http://www.w3.org/2000/svg" xmlns:xlink="http://www.w3.org/1999/xlink" x="0px" y="0px"
	 viewBox="0 0 500 500" style="enable-background:new 0 0 500 500;" xml:space="preserve">
<style type="text/css">
	.st0{fill:#FFFFFF;}
	.st1{fill:#01041C;}
</style>
<g id="Z_x5F_coin">
	<circle id="white_x5F_background" class="st0" cx="250" cy="250" r="250"/>
	<g id="Z_1_">
		<g>
			<path class="st1" d="M0,256.1c0-4.1,0-8.1,0-12.2c0-0.4,0.1-0.9,0.1-1.3c0.5-14.9,2.2-29.6,5.2-44.2
				c6.5-30.9,18.5-59.5,35.8-85.9c0.5-0.8,1-1.1,2-1.1c99,0,198.1,0,297.1,0c0.4,0,0.8,0,1.4,0.1c-2.6,4.6-5.2,9-7.8,13.4
				c-0.2,0.4-1,0.6-1.5,0.6c-7,0-14,0-21,0c-1.1,0-1.7,0.3-2.2,1.3c-13.7,23.8-27.4,47.5-41.1,71.3
				c-33.7,58.5-67.4,116.9-101.1,175.4c-0.2,0.4-0.4,0.8-0.7,1.4c7.9,0,15.6,0,23.5,0c-0.4,0.7-0.6,1.1-0.8,1.5
				c-3.7,6.4-7.4,12.9-11.2,19.3c-1.9,3.2-1,3.9,2.2,3.9c89.5,0,179,0,268.5,0c0.6,0,1.1,0,1.9,0c-0.4,0.6-0.7,1-1,1.3
				c-7.7,10.2-16.2,19.8-25.4,28.7c-19.5,18.9-41.4,34.3-65.9,46c-37.4,17.9-76.9,25.9-118.3,24.4c-14.8-0.6-29.4-2.4-43.8-5.6
				c-48-10.8-89.4-33.7-124-68.6c-20.5-20.6-36.8-44.2-49-70.6C9.8,326.4,2.3,296.3,0.5,264.8C0.3,261.9,0.2,259,0,256.1z
				 M246.3,191.2c-35.4,61.3-70.6,122.2-106,183.4c4.3,0,8.2,0,12.1,0c1,0,1.5-0.3,2-1.2c6.7-11.6,13.4-23.2,20.1-34.8
				c40.7-70.6,81.4-141.2,122.2-211.8c0.2-0.4,0.4-0.8,0.7-1.3c-50.3,0-100.4,0-150.6,0c0,21.9,0,43.8,0,65.7
				C179.9,191.2,212.9,191.2,246.3,191.2z M306.6,125.4c-1.5,0-2.8,0.1-4.1,0c-1.4-0.2-2.1,0.4-2.7,1.6
				c-24.7,42.9-49.4,85.8-74.2,128.7c-22.6,39.2-45.2,78.4-67.9,117.7c-0.2,0.4-0.4,0.7-0.6,1.3c1.6,0,3-0.1,4.4,0
				c1.1,0.1,1.7-0.4,2.2-1.3c18.6-32.2,37.2-64.5,55.7-96.7c28.9-50,57.7-100.1,86.6-150.1C306.3,126.2,306.4,125.9,306.6,125.4z"/>
		</g>
		<g>
			<path class="st1" d="M337,125.4c1.8,0,3.3-0.1,4.7,0c0.9,0,1.4-0.3,1.8-1c3.1-5.4,6.2-10.8,9.3-16.2c0.9-1.5,1.7-3,2.7-4.7
				c-0.8,0-1.3,0-1.8,0c-101.6,0-203.1,0-304.7,0c-0.4,0-0.7,0-1.1,0c-0.2,0-0.6,0.1-0.7,0.3c-1.1,1.5-2.1,3-3.4,4.7
				c0.9,0,1.4,0,2,0c32.1,0,64.2,0,96.3,0c66.9,0,133.9,0,200.8,0c0.4,0,0.8,0,1.2,0c1.4,0.1,1.9,1.1,1.2,2.3
				c-0.4,0.8-0.9,1.6-1.3,2.3C341.8,117.2,339.5,121.1,337,125.4z M180.7,396.6c0.9,0,1.5,0,2.1,0c89.3,0,178.6,0,267.9,0
				c0.5,0,0.9,0,1.4,0c0.3,0,0.7-0.1,0.8-0.3c1.1-1.5,2.1-3,3.3-4.7c-0.9,0-1.5,0-2,0c-87,0-174.1,0-261.1,0c-2.5,0-3.1-0.9-1.8-3
				c2.4-4.2,4.9-8.4,7.3-12.7c0.2-0.3,0.3-0.7,0.6-1.2c-1.7,0-3.2,0.1-4.7,0c-0.9,0-1.4,0.3-1.8,1.1c-3.6,6.3-7.3,12.7-10.9,19
				C181.4,395.2,181.1,395.8,180.7,396.6z"/>
		</g>
		<g>
			<path class="st1" d="M256.1,0c2.9,0.2,5.8,0.3,8.8,0.5c31.5,1.8,61.5,9.3,90.1,22.6c26.3,12.2,49.8,28.4,70.4,48.8
				c35,34.7,57.9,76,68.8,124.1c3.3,14.5,5.1,29.2,5.7,44.1c1.5,41.3-6.5,80.7-24.3,118.1c-4.9,10.3-10.5,20.1-16.8,29.6
				c-0.3,0.4-1,0.6-1.5,0.8c-0.2,0.1-0.5,0-0.8,0c-86.6,0-173.2,0-259.9,0c-0.6,0-1.1,0-1.9,0c0.2-0.4,0.3-0.7,0.5-1
				c2.3-4,4.7-8,6.9-12.1c0.4-0.7,0.8-1,1.6-0.9c0.4,0,0.8,0,1.2,0c47.7,0,95.5,0,143.2,0c0.6,0,1.2,0,1.9,0c0-21.9,0-43.6,0-65.4
				c-32,0-64,0-96.3,0c35.4-61.4,70.6-122.4,106-183.7c-4.5,0-8.8,0-13.4,0c0.3-0.6,0.5-1.1,0.8-1.5c3.9-6.7,7.7-13.4,11.6-20
				c1.5-2.5,1-3.3-1.9-3.3c-101.6,0-203.2,0-304.9,0c-0.7,0-1.3,0-2.4,0c0.5-0.7,0.7-1.1,1-1.5c16.1-21.3,35.2-39.6,57.2-54.8
				c24-16.6,50-28.6,78.2-36.1c16.4-4.3,33.1-6.9,50-7.9c2.6-0.1,5.2-0.3,7.8-0.4C247.9,0,252,0,256.1,0z"/>
		</g>
		<g>
			<path class="st1" d="M337,125.4c2.5-4.3,4.8-8.2,7.1-12.2c0.5-0.8,0.9-1.5,1.3-2.3c0.6-1.2,0.1-2.2-1.2-2.3c-0.4,0-0.8,0-1.2,0
				c-66.9,0-133.9,0-200.8,0c-32.1,0-64.2,0-96.3,0c-0.5,0-1.1,0-2,0c1.2-1.8,2.3-3.2,3.4-4.7c0.1-0.2,0.5-0.2,0.7-0.3
				c0.4,0,0.7,0,1.1,0c101.6,0,203.1,0,304.7,0c0.5,0,1.1,0,1.8,0c-1,1.7-1.8,3.2-2.7,4.7c-3.1,5.4-6.2,10.8-9.3,16.2
				c-0.4,0.8-0.9,1.1-1.8,1C340.3,125.4,338.8,125.4,337,125.4z"/>
		</g>
		<g>
			<path class="st1" d="M180.7,396.6c0.4-0.8,0.7-1.3,1.1-1.9c3.6-6.3,7.3-12.7,10.9-19c0.4-0.8,0.9-1.1,1.8-1.1c1.5,0.1,3,0,4.7,0
				c-0.3,0.5-0.4,0.9-0.6,1.2c-2.4,4.2-4.9,8.4-7.3,12.7c-1.2,2.2-0.7,3,1.8,3c87,0,174.1,0,261.1,0c0.6,0,1.1,0,2,0
				c-1.2,1.7-2.3,3.2-3.3,4.7c-0.2,0.2-0.5,0.3-0.8,0.3c-0.4,0.1-0.9,0-1.4,0c-89.3,0-178.6,0-267.9,0
				C182.2,396.6,181.6,396.6,180.7,396.6z"/>
		</g>
	</g>
</g>
</svg>
