<svg  viewBox="0 0 20 20" fill="none" xmlns="http://www.w3.org/2000/svg">
<rect width="20" height="20" rx="10" fill="#0A0A0A"/>
<path d="M12.2231 11.046C13.1143 10.5294 13.7135 9.56468 13.7135 8.45968V7.19211C13.7135 5.14138 12.0514 3.47852 10.0007 3.47852C7.94997 3.47852 6.28711 5.14138 6.28711 7.19211V8.55046H8.55075V8.63876C8.27595 8.70726 8.01599 8.81371 7.7775 8.95318C6.88624 9.46978 6.28711 10.4345 6.28711 11.5395V12.8071C6.28711 14.8578 7.94915 16.5207 9.99988 16.5207C12.0506 16.5207 13.7135 14.8578 13.7135 12.8071V11.4487H11.4498V11.3604C11.7246 11.2919 11.9846 11.1855 12.2231 11.046ZM10.7253 13.2601C10.7253 13.6604 10.4009 13.9847 10.0007 13.9847C9.60046 13.9847 9.27614 13.6604 9.27614 13.2601V6.73905C9.27614 6.33881 9.60046 6.01449 10.0007 6.01449C10.4009 6.01449 10.7253 6.33881 10.7253 6.73905V13.2601Z" fill="#F2F2F2"/>
</svg>
