<svg xmlns="http://www.w3.org/2000/svg" viewBox="0 0 1080 1079.18"><defs><style>.cls-1{fill:#8585A6;}.cls-2{fill:#54995C;}</style></defs><g id="Layer_2" data-name="Layer 2"><g id="Layer_1-2" data-name="Layer 1"><path class="cls-1" d="M1080,497.69v86.92a13.49,13.49,0,0,0-1,3A526.84,526.84,0,0,1,1060.43,688q-53,181.46-206.56,292c-74.65,53.61-158.06,85.45-249.41,96.34-7.16.85-14.31,1.88-21.46,2.82H497a12.72,12.72,0,0,0-2.57-1c-22.53-3.37-45.33-5.44-67.54-10.25-118.25-25.63-217.25-84.44-296.14-176-76.64-88.89-119.34-192.39-129-309.4C1.36,578.27.58,574,0,569.63V510.68a16.54,16.54,0,0,0,1-3c3.11-24.23,4.8-48.74,9.5-72.65C29.24,339.6,70.76,255,135.73,182.63Q280.5,21.31,497,2A519.47,519.47,0,0,1,714.47,28.89C843.13,73.53,941.67,155.16,1010,272.76c36.7,63.15,58.76,131.38,67.18,204C1078,483.73,1079.06,490.7,1080,497.69Zm-474.8,528a79.36,79.36,0,0,0,8.88-1q36.72-8.27,73.39-16.71c41-13.24,79.88-31,116.18-54.23l27.14-18.85,17.61-13.59c1.09-.76,2.25-1.44,3.26-2.29,113.12-95.83,173.51-217.65,179-365.81,2.71-72.86-11.74-142.82-40.8-209.77C919.77,181.87,762.8,68.29,587.19,52.25A494.05,494.05,0,0,0,396.6,71.55C155,145.1,8.4,392.77,60.3,640.27c20,95.46,65,177.69,133.88,246.79A461.94,461.94,0,0,0,283,957l38.67,21.42c27.6,14.54,56.69,25.29,86.72,33.59,7.68,2,15.27,4.6,23.07,6,18.6,3.38,37.26,6.53,56,9.15a275.58,275.58,0,0,0,34.52,2.83c17.43.22,34.88-.25,52.29-1.06C584.6,1028.51,594.88,1026.82,605.2,1025.67Z"/><path class="cls-1" d="M283,957c-.31-14.3-1-28.61-.85-42.91.33-25.77.79-51.56,1.93-77.31,1.3-29,4.14-57.85,11.93-86.07,5.63-20.41,16.23-37.9,28.83-54.48C341,675,362.47,660,384,644.89c10.1-7.08,19.45-15,25.59-26.54-6.42-4.08-12.58-8.19-18.92-12-29.82-17.88-49.6-44.09-63.19-75.51-13-30.11-23.37-61.07-29.74-93.89h-7.39c-32.38,0-58.87-12.65-80.22-36.82a129.2,129.2,0,0,1-29.71-59.68A101.42,101.42,0,0,1,186,279.26a61.79,61.79,0,0,1,9.88-15.4c4.82-5.78,10.89-6.82,17.52-3.16,17.16,9.49,36,11.07,54.94,12.26,18.39,1.15,36.77,2.51,55.17,3.56a7.43,7.43,0,0,0,5.11-2.24c3.25-3.52,6.08-7.43,9-11-11.21-19.81-18.44-41.05-18.21-64.05.18-17.89,6-34,21-45.28,11.41-8.56,24.68-9.38,35.15-1.51,4,3,7.27,7.75,9.5,12.36,5.48,11.32,4,23.7,4.33,35.79.12,4.19,1.35,8.42,2.61,12.46.65,2.08,2.48,3.79,3.45,5.21l51.66-19.51c-.16-.58-.45-1.79-.81-3-4.71-15.64-4.51-31.1,1.72-46.31,2.48-6.06,8.56-8.54,14.28-6A11.16,11.16,0,0,1,467.78,158c-4.86,10.5-4.93,21.12-1.26,32,1.1,3.27,2.49,5.14,6.39,4.16s7.78-1.37,12-2.07a49.26,49.26,0,0,1,4.14-27.88c2-4.45,5.27-6.73,10.16-6.54,5.12.19,8.69,2.94,9.93,7.65.7,2.65-.15,5.8-.65,8.66-.88,5.06-2,10.08-3,14.94h77.06c.48-3.14,1.48-6.95,1.58-10.77.24-9.65-.44-19.35.28-29a48.7,48.7,0,0,1,4.44-17.61c7.68-15.63,28.21-16.45,39.61-1.81,6.66,8.55,10.21,18.64,12.52,29.07,2.71,12.2,3.81,24.57,2,37-.61,4.25,1,6.37,5.14,8.09,10.41,4.27,20.5,9.31,30.39,13.89,4-6.33,7.55-13.34,12.39-19.3,13.74-16.91,31.71-22.74,53-18.12,8.74,1.9,17.25,4.93,26,6.45,19.54,3.37,38.37.41,56.37-7.88,10.72-4.93,19.74.57,20.64,12.43.39,5.11,1.42,10.21,1.41,15.31-.07,32.25-11,59.9-34.93,82.14a105.21,105.21,0,0,1-57.79,27.78c-6.17.9-6.78,1.51-6.44,7.93Q751,359.4,753,394.18c.8,13.93,9.07,23,20.61,29C796,435,814,451.14,826.77,472.92c10.24,17.4,15.94,36.15,15.29,56.46-.7,22-6.64,42-23.42,57.41-12.68,11.67-28,17.51-44.85,19.93-3.11.45-6.42.18-9.35,1.13-1.78.57-3.55,2.59-4.42,4.39-6.81,14.14-16.88,25.13-31.36,31.36-6.91,3-14.45,4.49-22.84,7,10,6.5,19.56,12.82,29.21,19,18.42,11.88,33,27.56,46,45,21.94,29.54,34.2,63.38,44.36,98.21a820.64,820.64,0,0,1,22.75,104.91c.17,1.14.17,2.32.26,3.48l-17.61,13.58c-.26-1.11-.6-2.22-.79-3.35-2.59-15.22-5.13-30.45-7.78-45.67-.24-1.32-.86-3.17-1.86-3.68-8.07-4.07-16.26-7.87-24.53-11.8.17,1.62.38,3.58.58,5.54,1.62,16.53,3.29,33.06,4.85,49.6.88,9.4,1.6,18.81,2.39,28.22-36.3,23.27-75.19,41-116.18,54.23-4.62-4.16-9.79-7.87-13.75-12.59-9-10.71-13.5-23.19-11.39-37.29,2.36-15.76,12.65-25,26.74-30.77a51.05,51.05,0,0,0,20-14.39c15.17-17.66,34-27.85,58.11-25.37,3.93.41,7.72,2.31,11.75,3.58-.32-3.31-.49-6.92-1-10.48-4-25.76-7.44-51.62-12.21-77.23-4.84-26-11.69-51.56-23.71-75.39-13.64-27-30.9-51.19-56-68.92-4.21-3-9.14-6.86-13.82-7-20.77-.54-40.71-3.61-59.2-13.65A34.58,34.58,0,0,0,608,636.7c-2.77,14.21-2.77,14.21-8.64,22.36V597.6h5.92c18.32,0,36.64.07,55,0,10.9-.05,16.66-5.79,16.72-16.65.09-16.64.13-33.28,0-49.91-.09-11.48-5.89-17-17.38-17.18l-21.46-.22c2.25-3.08,4.61-6.08,6.72-9.25,3.41-5.09,5.55-10.71,4.69-16.88C647.27,471.23,628.58,462,612.7,473c-5.35,3.72-8.92,10-13.31,15.13-.07-12.12-.17-24.25-.21-36.37,0-12.65-2.91-16.26-15.36-19.2.29-4.11-2.65-1.73-4-1.78-8.42-.26-17.22,1.24-25.2-.71-14.54-3.55-24.49-22.37-21.29-38.48,4-20,19.43-31.1,35.89-26.9a7.79,7.79,0,0,0,2.19-.33c-1.26-1-1.85-1.59-2.51-2-19.23-13.46-46.28-13.14-66.75.77-17.64,12-25.92,35.68-20.47,58.57C487,443.9,498,454.81,517.83,457.52v19.17c-17.64-1.52-32.56-8.34-42.68-23.28-11.52-17-16.1-35.8-13.36-56.37,2.58-19.43,11.16-35.51,26.69-47.3,20.89-15.85,44.38-20.1,69.81-13.49a23.71,23.71,0,0,0,3.51.38c.49-.66,1-1.31,1.49-2-1.65-1.06-3.4-2-4.94-3.18-7.59-5.93-15.16-11.87-22.67-17.89-12.31-9.89-23.11-21-29.26-35.92-8.05-19.55-8.76-40-8.15-60.71.06-2,.51-4,.79-6.18-40.21,2.13-103.94,24.5-117.64,41.19.63.71,1.26,1.46,1.93,2.17,13,14,17.66,30.38,15,49.18-2,14.15-8.57,26.14-17.15,37.11-7.88,10.08-12.37,20.85-11.42,34a229.45,229.45,0,0,1,.06,32.22c-1.12,16.38-10.42,28.71-22.1,39.3-7.07,6.4-16.47,7.35-26.33,9.22,5.36,16.2,10.11,32.29,16,48,10.21,27.21,22.16,53.6,45.2,72.85,16.27,13.59,33.75,25.62,54,32.42,26.29,8.85,53.86,9.68,81.28,11q.09,20.48.17,40.94c0,12.81,5.42,18.2,18.21,18.24s25.32.1,38,.16c-1.12.69-2.2,1.46-3.36,2-26.49,13.48-54.27,18-83.51,11.78s-57.35-15.12-77.86-39c-.65-.77-3.42-.72-4.46,0-8.42,5.9-16.58,12.16-25,18.12-17.45,12.41-33,26.78-45.51,44.22-2.75,3.81-4.44,6.77-.08,11.26,3.4,3.51,4.24,9.35,7.24,13.4a97.68,97.68,0,0,1,16.58,35.4c7.06,28.86,10.17,58,8.14,87.8-1.42,20.68-4.76,40.92-12.33,60.23-4,10.33-9.74,20-13.95,30.29a55.08,55.08,0,0,1-18.46,24.23ZM242.33,314.45c-7.25,0-11.58,3.55-11.82,9.27A36.18,36.18,0,0,0,231.84,335c4,14,13.67,23.5,26.1,30,9.52,5,19.76,8.56,29.61,12.92,6.73,3,13.15,3.65,20.08.1,3.52-1.8,5.12-3.56,4.73-7.52A101.55,101.55,0,0,1,315,334.42c2-7.64-1.78-11.66-9.53-10.43a97.67,97.67,0,0,1-56.05-7.31A52.66,52.66,0,0,0,242.33,314.45Zm477,78.16-.88-1.21c-3.63,0-7.32.42-10.88-.08-11.4-1.6-22.07-13.33-24.59-26.58-4.57-24,10.68-37.42,34.07-30.11a5.63,5.63,0,0,0,1.59,0c.21-.47.42-.93.62-1.4-4-2.5-7.72-5.59-12-7.38-14-5.88-27.81-3.15-41.18,2.49-9.17,3.87-14.67,11.09-17.35,20.63-5,17.76,1.85,40,16.38,51.3,3,2.31,7.24,4.52,10.75,4.29a168.35,168.35,0,0,0,29-4.22C710,399.11,714.5,395.27,719.31,392.61Zm31.07-164.74c-6.77.39-13.61.39-20.34,1.27a175,175,0,0,0-23.3,4.44c-4.58,1.24-4.61,3.31-1.2,6.58,13.19,12.64,23.89,27.09,31.15,43.9,1.6,3.7,3.25,4.28,6.77,2.56a84.76,84.76,0,0,0,36.41-32.87c6.2-10.27.19-23.72-11.07-24.72C762.69,228.49,756.55,228.25,750.38,227.87Zm-5.66,215.65c-9.42-.13-15.49,2.14-20.47,7.07-5.38,5.33-6.25,11.26-1.1,16.78,4.79,5.13,10.26,10.16,16.4,13.38,9.21,4.84,19.05,4.42,27.79-2.08,6-4.48,7.69-10.67,4.45-16.66C765.49,450.35,754.9,445.26,744.72,443.52Zm16.49,277.63-1.2.79c11.11,23,18,47.46,23.6,73.33,3-5,5.61-8.81,7.56-12.94.91-1.93,1.37-4.91.52-6.69-5.72-12-11.57-23.89-17.94-35.52C770.12,733.5,765.43,727.45,761.21,721.15ZM607.75,424.71l27.89-9.61-27.89-18.47Z"/><path class="cls-1" d="M408.39,1012.05c3.89-5.27,4-11.3,3.92-17.54-.15-27.45-.61-54.91.13-82.33.57-21.06,2.49-42.09,4.34-63.09,1.7-19.34,4.07-38.62,6.26-57.91a24.4,24.4,0,0,1,1.95-8.13,9,9,0,0,1,10.74-4.17,9.58,9.58,0,0,1,6.32,10.19c-1.29,11.71-3,23.38-4.14,35.1-1.57,16.2-2.71,32.44-4.18,48.65-3.44,38-2.71,76.09-2.73,114.17v6.87c10.07-1,19.43-2.1,28.83-2.64,10.61-.62,21.25-1.07,31.87-.92,30.92.42,61.08,5.94,90.52,15.07,10.33,3.21,19.38,9,23,20.3-10.32,1.15-20.6,2.84-31,3.32-17.41.81-34.86,1.28-52.29,1.06a275.58,275.58,0,0,1-34.52-2.83c-18.72-2.62-37.38-5.77-56-9.15C423.66,1016.65,416.07,1014.09,408.39,1012.05Z"/><path class="cls-2" d="M517.83,501.7V457.52c.06-2,.16-4,.16-6,0-13.68,5.2-18.79,19-18.82,15.6,0,31.21-.11,46.82-.16,12.45,2.94,15.32,6.55,15.36,19.2,0,12.12.14,24.25.21,36.37v25.47h38.73l21.46.22c11.49.13,17.29,5.7,17.38,17.18.15,16.63.11,33.27,0,49.91-.06,10.86-5.82,16.6-16.72,16.65-18.31.09-36.63,0-55,0h-5.92v61.46a62.41,62.41,0,0,1-.57,6.86c-1.45,7.84-6.72,12.16-15.26,12.59-3.12.16-6.25.13-9.37.19q-19-.09-38-.16c-12.79,0-18.18-5.43-18.21-18.24q-.07-20.47-.17-40.94V597.6H498.75c-14,0-28,.06-41.95,0-10.32-.05-16.71-5.41-16.87-15q-.44-26.94,0-53.88c.19-9.72,6.6-14.86,17.45-14.9,16.82-.05,33.63,0,50.44,0,1.83,0,3.65-.14,5.48-.21h4.5ZM539,453.87v5.35q0,32.47,0,64.94c0,8.19-2.5,10.64-10.76,10.65q-30.75,0-61.5,0h-5.57v41.81h64.25c12.33,0,13.58,1.27,13.58,13.8V657.3h39.15V589.75c0-11.39,1.78-13.13,13.41-13.13h64.15V534.81h-5.18q-30.49,0-61,0c-9.11,0-11.38-2.32-11.39-11.6V453.87Z"/><path class="cls-1" d="M548.74,766.34c10.63,0,21.28-.38,31.89.09,15.91.7,31.6,2.94,44.75,13,17.58,13.46,25,31.4,20.13,53.05-4.48,20.11-17.85,32.44-37.78,37.58a28.21,28.21,0,0,1-6.41.81c-10.34.19-19.28,4.21-27.89,9.52-13.22,8.16-27.53,13.74-43.13,14-20.11.33-37.5-6.19-49.91-23.12-2.61-3.57-6.06-6.51-8.82-10-16.48-20.76-16.35-47.23,0-68.4C483.2,777.81,499,770.8,517.39,769c10.41-1,20.88-1.42,31.32-2.1Z"/></g></g></svg>