<svg xmlns="http://www.w3.org/2000/svg" viewBox="0 0 2498.08 289.25"><defs><style>.cls-1{fill:#fff;}.cls-2{fill:#fcfcfc;}</style></defs><g id="Layer_2" data-name="Layer 2"><g id="Layer_1-2" data-name="Layer 1"><path class="cls-1" d="M1034.49,206.28c-10.31,0-20,.61-29.57-.11-29.64-2.23-48-22.17-48.16-51.91q-.18-27.49,0-55A8.17,8.17,0,0,0,953,91.81c-12.59-9.17-19.85-21.7-22.41-37-2.11-12.65,5-21.62,18.24-22.6,5.12-.37,10.3-.06,15.68-.06.63-3.46,1.05-6.56,1.78-9.57C970.05,7.26,981.93-1.07,998.22.11c13.76,1,24.55,11.93,26.16,26.43.24,2.15-.82,5.58,3.91,4.38.35-9.38,3.1-17.85,10.61-24.21A27.38,27.38,0,0,1,1056.71,0c18-.28,26.81,8.44,31.56,32,4.3,0,8.74.15,13.17,0,15.24-.6,24.22,10.58,20.32,26.66-1.42,5.87-4.07,11.45-6.37,17.72h5.22c43.3.18,86.61.1,129.91.64,27.48.35,48.77,16.68,55.08,41.46a63.43,63.43,0,0,1,1.69,14.81c.18,17.17.06,34.33,0,51.49,0,14.8-13,24.19-27.27,19.82-1.22-.37-2.46-.7-4.27-1.21-.47,8.86-.91,17.3-1.38,25.74-.72,12.81-1.37,25.62-2.21,38.42s-10.22,21.54-23,21.67q-18.75.19-37.48,0c-11.06-.11-18.59-5.64-21.74-16.36-2.33-7.94-4-16.08-6-24.25h-59.48c-1.4,6.36-2.83,12.82-4.24,19.29-3.33,15.33-10.79,21.36-26.52,21.37-11,0-22,.06-33,0-14.41-.09-24-9.56-24.44-24C1035.79,245.87,1035.15,226.57,1034.49,206.28ZM974.38,41.1c-8.38,0-16.33-.06-24.27,0s-12,4.77-10.53,12.57c2.66,13.8,9.19,25.24,21.54,32.58,3.65,2.16,4.92,4.68,4.88,8.82q-.25,29.73,0,59.48c.19,24.69,14.76,40.63,39.36,42.58,10.1.81,20.29.42,30.44.58,6.77.1,7.44.78,7.65,7.39q1,30.21,2.06,60.42c.32,8.9,6.16,14.54,14.91,14.56q18.48.06,37,0c6.74,0,11.3-3.57,12.91-10.14,2.13-8.68,4.11-17.39,6-26.11.69-3.13,1.87-4.84,5.59-4.81q33,.24,65.95,0c2.85,0,4,.73,4.56,3.7,1.44,8.14,3.26,16.22,5,24.31s7,13,14.13,13q19,.14,38,0A13.76,13.76,0,0,0,1263.17,267c.75-12.46,1.32-24.94,2-37.41,1.21-21.6,2.67-43.2,3.63-64.81.54-12.11.66-24.27.25-36.38-.16-4.8-2.24-9.53-3.63-15,7.85,5.9,10.75,13.32,10.77,22.08,0,15.66,0,31.32.07,47a26.78,26.78,0,0,0,.48,5.94c1.28,5.61,5.44,8.93,10.12,8.35,6.07-.76,11.34-5.83,11.34-11q0-27,0-54c0-24.73-20.42-45.41-45.19-45.58q-75.93-.5-151.87-.81h-6.28c1.69-1.59,2.5-2.34,3.29-3.1a51.93,51.93,0,0,0,14.64-25c2.55-10-.92-16.79-12-16.21-7.4.39-14.85.07-22.54.07,0-5,.21-9.31,0-13.61-.6-10.57-9-18.25-19.78-18.37-11.21-.12-19.23,6.84-20.23,17.55q-.62,6.63-1.21,13.27h-21.69c0-3.72,0-7.19,0-10.66-.1-11.49-8.77-20.2-20.11-20.24-11.85,0-20.6,8.39-20.84,20.14C974.31,33,974.38,36.74,974.38,41.1Z"/><path class="cls-2" d="M1382.61,238.91v-118c13.51,0,26.8-.15,40.07,0,9.64.15,19.33.21,28.87,1.33a34.37,34.37,0,0,1,21,10.57c11.1,11.5,8.68,31.52-4.82,40-1.79,1.13-3.72,2.05-5.54,3,.14.46.15.89.31.94,14.5,5.42,21.44,15.84,20.63,31-.76,14.37-10.5,25.48-25.83,29.09a62.13,62.13,0,0,1-13.31,1.91C1423.68,239,1403.38,238.91,1382.61,238.91ZM1412.77,215c8.48,0,16.46.17,24.43-.09a23.57,23.57,0,0,0,8.16-2,11.29,11.29,0,0,0,6.77-11.7c-.61-5.23-3.83-9.25-8.71-9.59-10.15-.71-20.39-.21-30.65-.21Zm0-47.83c9.32,0,18.28.5,27.14-.19,5.68-.43,8.63-5.22,8.5-11.07s-3-9.91-8.74-10.24c-8.86-.53-17.77-.14-26.9-.14Z"/><path class="cls-2" d="M1906.35,238.7h-30V121.4h84.91v23.8h-54.51v26.17h50v25h-50.35Z"/><path class="cls-2" d="M1739.15,152.25V147.8c8.95,0,17.92-.17,26.85.19,1.38.06,3.27,2.41,3.88,4.08,6.11,16.68,12,33.44,18,50.17.33.91.72,1.8,1.54,3.87,1.43-4.27,2.55-7.52,3.59-10.79,4.56-14.41,9.2-28.79,13.58-43.24,1-3.31,2.52-4.48,6-4.37,8,.25,15.92.08,24.69.08-3.18,8.4-6.14,16.22-9.11,24-9.69,25.61-19.23,51.29-29.14,76.81-8.68,22.37-30.6,30.86-52.22,20.51-2.93-1.41-5.55-3.47-8.56-5.39L1750,243.57c3.6,1.41,6.74,2.83,10,3.87,4.31,1.37,7.86-.33,10.71-3.52s4.39-6.62,2.6-10.95q-16.53-40-33-80.08c-.16-.38-.83-.54-1.27-.81Z"/><path class="cls-2" d="M2250.38,148.25v13.43c1.4-1.61,2.15-2.49,2.92-3.35,9.29-10.35,20.89-13.94,34.31-11,12,2.59,19.46,10.32,22.67,22.07a37.4,37.4,0,0,1,1.3,9.36c.17,19.32.17,38.65.22,58,0,.63-.15,1.26-.24,2.07h-28.84c0-14.85,0-29.47,0-44.09a52.91,52.91,0,0,0-.52-8.45c-1.28-7.59-5.45-11.54-12.79-12.49-6.56-.85-13.43,2.51-15.95,8.66a34.74,34.74,0,0,0-2.59,12c-.35,13-.18,26-.2,39,0,1.63,0,3.25,0,5.16h-29.1V148.25Z"/><path class="cls-2" d="M2020.15,148.2H2049V160l1.12.61a42.52,42.52,0,0,1,3-3.8,34.53,34.53,0,0,1,37.66-8c13.52,5.55,19,16.6,19.24,30.46.32,18.64.1,37.29.09,55.94,0,1.12-.14,2.24-.23,3.52H2081c0-1.7,0-3.45,0-5.19,0-14.82.1-29.64-.1-44.46-.1-8.06-4.32-13.61-10.7-15-8.36-1.8-15.44,1.28-18.52,8.81a35,35,0,0,0-2.54,12c-.34,11.82-.14,23.65-.15,35.47,0,2.65,0,5.29,0,8.25h-28.78Z"/><path class="cls-2" d="M2205,238.75h-28.16c-.13-2.77-.27-5.54-.44-9.23-7.24,7.54-15.69,10.61-25.24,11.06-14.87.69-27-7-30.64-19.72-5.38-18.54,5.38-34.52,24.55-35.69,10.1-.62,20.26-.11,30.19-.11,1.52-8.57-3.11-14.12-11.31-15-8.68-.9-16.86,1-24.83,4.26-1.84.74-3.66,1.52-6,2.49l-8.11-20.3c18.61-8.4,37.44-13.41,57.64-7.67,14.27,4.06,22.08,14.13,22.27,28.88C2205.13,197.9,2205,218.06,2205,238.75ZM2176.05,201c-6.91,0-13.52-.14-20.12,0-5.72.16-8.27,2.47-8.85,7.4a9.65,9.65,0,0,0,7,10.7C2163.92,222.14,2177.54,216.77,2176.05,201Z"/><path class="cls-2" d="M1580.12,201.79h-61c2.85,16.69,20.9,19.92,39.42,7.22l16,14.33c-8.6,10.87-20.1,15.52-33,16.54a64.39,64.39,0,0,1-19.29-1.32c-23.63-5.49-34.06-22.89-33.3-47.16,1.12-35.34,34.94-55.43,67.18-40.56,14.48,6.68,20.66,19.09,23,33.92C1579.87,190.1,1579.76,195.59,1580.12,201.79Zm-29.19-16.92c-.09-9.8-5.89-16.43-14.6-16.81-9.54-.42-17,6.46-18,16.81Z"/><path class="cls-2" d="M1653.76,208.8l16.12,14.81c-13.06,14.33-29.3,18.46-47.36,16-16.76-2.31-29.82-10.41-35.4-27.36-6.12-18.6-4.69-36.58,8.7-51.52s31.23-16.7,49.64-11.83c17.54,4.64,25.66,17.9,28.54,34.83,1,5.66.92,11.49,1.38,17.84h-61.16C1617.27,218.72,1635.94,222.1,1653.76,208.8Zm-7.69-23.88c.2-9.45-5.61-16.25-14.15-16.84-9.65-.68-17.47,6.37-18.48,16.84Z"/><path class="cls-2" d="M2476.42,208.69l16.15,14.71c-8.58,10.82-20.23,15.21-33,16.49a57,57,0,0,1-19.26-1.44c-27.8-7.06-41.06-35.89-30.05-64.07,6.23-15.94,17.93-25,34.66-27a64.28,64.28,0,0,1,19.82.65c18.27,3.61,29.87,16.87,32,35.49.64,5.77.92,11.58,1.4,17.91h-61.47c1.76,6.48,4.57,11.25,10.28,13.71C2458.06,220,2467.63,216.5,2476.42,208.69Zm-7.51-23.84c0-10.17-6-16.69-15.27-16.81a17,17,0,0,0-17,16.81Z"/><path class="cls-1" d="M165.43,147a16,16,0,0,1,2.09-.37c5.63,0,12.74-2.12,16.48.54s4.11,10,5.81,15.38c4.47,14,8.85,28.1,13.69,43.52,6.28-20.69,12.19-40.15,18.11-59.63h18.95c6,19.37,12,38.94,18.42,59.69,5.83-19.16,11.43-37,16.6-55,1.16-4,2.9-5.27,6.89-4.93,4.28.37,8.63.08,13.84.08-9.38,27-18.57,53.37-27.8,79.87H249c-5.88-17.95-11.75-35.91-17.86-54.57a27.43,27.43,0,0,0-1.57,3.2c-5.09,15.63-10.22,31.26-15.12,47-1,3.3-2.32,5.07-6.16,4.65-4.91-.52-11,1.22-14.48-1.15-3.23-2.22-3.7-8.51-5.3-13C180.87,190.6,173.24,169,165.43,147Z"/><path class="cls-1" d="M667.32,214.9c-.2,4.43-.34,7.65-.5,11.12H648.18V116H667v42.45c7.54-9.35,16.17-12.87,26.6-12.56,15,.45,25.7,7.56,31.56,21.2,5.25,12.25,5.22,25,.74,37.53C716.46,231,682,233.88,667.32,214.9Zm42.31-28.65c0-11.55-6-20.57-15.28-23.12-11.66-3.19-22.62,2.86-26.25,14.5-4.22,13.56,1.82,27.71,13.45,31.5C696.42,214,709.61,203.22,709.63,186.25Z"/><path class="cls-1" d="M575.32,158.21V115.85h18.83v110h-18.6v-10c-.75,0-1.18-.13-1.32,0-19.69,20.39-50.94,12.76-59.1-14.68-3.73-12.51-3.19-25.09,2.75-37,11.4-22.79,43.1-23.87,55.19-8.18A25.72,25.72,0,0,0,575.32,158.21Zm0,30.77c.15-17.09-10.43-28.06-23.61-26.39-9.7,1.23-16.25,7-18.78,16.66-2.73,10.4.66,22,8.26,27.5,6.95,5,14.54,5.56,22.09,1.75C571.92,204.14,575,196.29,575.34,189Z"/><path class="cls-2" d="M1739,152.08V172h-19.33v66.57h-29.13v-66.3h-11.7v-20h11.54c-.93-14.78,1-28.05,15.31-35.48,12.19-6.32,24.63-5.05,37.36-.72-1.3,7.72-2.53,15-3.76,22.32-18.22-1.3-22.3,1.63-18.81,13.89h18.69Z"/><path class="cls-2" d="M2406.08,168.64l-19.37,11.63c-5.51-3-9.91-6.81-14.91-7.92-12.23-2.73-21.22,6.45-21.58,20.89-.37,15.14,9.61,25.11,22.58,21.62,4.77-1.28,8.81-5.27,14-8.55l19.53,11.57c-7.45,17.08-28.83,25.71-51.5,21.12-20.36-4.12-33.48-20.84-34-43.35-.57-24.27,11.56-42,32.35-47.27C2375.29,142.77,2397.25,151,2406.08,168.64Z"/><path class="cls-1" d="M0,122.22c16.51,0,32.85-1,49,.24,22.31,1.69,34.6,18.91,31.39,41.73-2.8,19.87-16.06,31.12-37.18,31.43-7.94.11-15.88,0-24.13,0V225.9H0ZM19.21,140v37.2c9.36,0,18.51.75,27.49-.19,10.48-1.1,15.78-8.4,15.51-19-.26-10.32-5.86-17-16.3-17.83C37.19,139.46,28.37,140,19.21,140Z"/><path class="cls-1" d="M506.9,193.32H451c2.67,18.9,22.17,23.13,42.21,9.26l9.65,10.51c-9.41,12-28.34,17.19-44.76,12.42-15-4.36-24.88-16.45-26.56-32.17-1.15-10.72.27-20.8,5.81-30.29,13.54-23.18,54.05-22.82,64.67-.39C506.54,172.32,507.46,182.34,506.9,193.32ZM489.52,180c-.31-12-8.63-19.52-20.49-18.86-10.33.57-18.89,9.44-18.13,18.86Z"/><path class="cls-1" d="M370.58,193.24h-56.5c1.67,16.22,23.1,26.07,42.12,9.21l10,10.85c-10.91,12-24.46,15.54-39.52,13.31-20.75-3.07-33.7-19.91-32.49-41.15s12-35.56,30.74-38.76c25.32-4.33,42.23,7.19,44.85,32.59C370.2,183.7,370.29,188.16,370.58,193.24Zm-18.13-13.32c.41-10.55-7-18.29-17.72-18.8-11.4-.54-20.3,7.31-21.08,18.8Z"/><path class="cls-1" d="M166.7,186.69c0,24.3-16.06,40.42-40.25,40.42-24.47,0-40.69-16.16-40.73-40.59,0-24.6,16.21-40.63,41.16-40.59C151,146,166.71,162.08,166.7,186.69Zm-19,0c0-12.44-6.83-21.88-17.14-23.68-11.9-2.07-22.09,4.54-24.88,16.14-3.36,14,2.5,26.84,13.89,30.49C134.45,214.43,147.68,203.63,147.7,186.7Z"/><path class="cls-1" d="M726.72,146.26c5.4,0,10.24.25,15-.08,3.4-.23,4.87.92,6,4.13,6,16.54,12.35,33,18.57,49.45.41,1.07.87,2.11,1.63,4,6-17.5,12-34.15,17.34-51,1.66-5.23,4-7.24,9.37-6.54,3.74.49,7.6.09,12.13.09-2.89,7.58-5.59,14.67-8.31,21.75-9,23.42-17.8,46.9-27,70.22-7.49,19-28.92,24.16-44.5,10.58,2.57-4.78,5.2-9.67,7.84-14.56,2.23,1.13,4.09,2.25,6.08,3,4.47,1.73,8.88,1.13,11.84-2.59s6.49-7.63,3.93-13.75c-9.52-22.84-18.61-45.85-27.85-68.81C728.13,150.33,727.52,148.48,726.72,146.26Z"/><path class="cls-2" d="M1972.33,148.14h28.26v90.53h-28.26Z"/><path class="cls-1" d="M383.3,146.36h18.58v12.3c7-8,15-13,26-12.87v18.56l-4.64.42c-13,1.23-20.85,9.51-21,22.68-.17,11.81,0,23.63-.05,35.45,0,1-.11,1.94-.19,3.15H383.3Z"/><path class="cls-2" d="M1986,105.85c9.16,0,15.54,6.45,15.65,15.82s-6.62,16.5-15.71,16.37-15.26-6.71-15.25-16.2S1976.83,105.86,1986,105.85Z"/><path class="cls-2" d="M1862.17,225.41c.08,9-5.24,14.84-13.62,15-8.68.14-14.48-5.79-14.46-14.76,0-8.52,5.5-14.27,13.74-14.44C1856.42,211,1862.1,216.64,1862.17,225.41Z"/><path d="M974.38,41.1c0-4.36-.07-8.15,0-11.94.24-11.75,9-20.18,20.84-20.14,11.34,0,20,8.75,20.11,20.24,0,3.47,0,6.94,0,10.66H1037q.6-6.64,1.21-13.27c1-10.71,9-17.67,20.23-17.55,10.79.12,19.18,7.8,19.78,18.37.25,4.3,0,8.62,0,13.61,7.69,0,15.14.32,22.54-.07,11.07-.58,14.54,6.19,12,16.21a51.93,51.93,0,0,1-14.64,25c-.79.76-1.6,1.51-3.29,3.1h6.28q75.93.39,151.87.81c24.77.17,45.18,20.85,45.19,45.58q0,27,0,54c0,5.19-5.27,10.26-11.34,11-4.68.58-8.84-2.74-10.12-8.35a26.78,26.78,0,0,1-.48-5.94c0-15.67,0-31.33-.07-47,0-8.76-2.92-16.18-10.77-22.08,1.39,5.47,3.47,10.2,3.63,15,.41,12.11.29,24.27-.25,36.38-1,21.61-2.42,43.21-3.63,64.81-.7,12.47-1.27,24.95-2,37.41a13.76,13.76,0,0,1-13.69,13.11q-19,.17-38,0c-7.1,0-12.44-5.05-14.13-13s-3.54-16.17-5-24.31c-.52-3-1.71-3.71-4.56-3.7q-33,.17-65.95,0c-3.72,0-4.9,1.68-5.59,4.81-1.92,8.72-3.9,17.43-6,26.11-1.61,6.57-6.17,10.11-12.91,10.14q-18.48.09-37,0c-8.75,0-14.59-5.66-14.91-14.56q-1.11-30.21-2.06-60.42c-.21-6.61-.88-7.29-7.65-7.39-10.15-.16-20.34.23-30.44-.58-24.6-1.95-39.17-17.89-39.36-42.58q-.24-29.75,0-59.48c0-4.14-1.23-6.66-4.88-8.82-12.35-7.34-18.88-18.78-21.54-32.58-1.5-7.8,2.52-12.49,10.53-12.57S966,41.1,974.38,41.1ZM1244.8,261.71c.18-1.81.41-3.42.5-5q1.21-21.45,2.37-42.91c1.34-25.46,2.86-50.9,3.78-76.37a29.09,29.09,0,0,0-3.38-14.72c-3.41-6-8.45-11.08-13-16.37a6.57,6.57,0,0,0-4.35-2c-9.11-.18-18.23-.09-27.57-.09-1.47,9.78-7.61,15.32-16.28,18.6s-17.17,2.82-25.71.41c-6.9,19.68-19.12,27.45-34.63,22.35a24.91,24.91,0,0,1-14.89-12.48c-5.19-9.93-3.72-19.52,2.42-29.29-9.2,0-17.51.21-25.81-.09-4.37-.16-5.82,1.27-5.77,5.66.19,15-.23,30,.11,45,.31,13.94-4.67,24.87-16.12,33a8.1,8.1,0,0,0-3.06,5.69c-.12,21.66.09,43.32.13,65,0,2.87.82,4.25,4,4.16q10.74-.3,21.48-.06c3.15.07,4.52-1.32,5.14-4.14,1.36-6.17,2.63-12.37,4.26-18.47,2.56-9.6,4.33-19.61,8.34-28.59,5.91-13.21,17.22-19.3,31.81-19,14.09.27,23.79,7.25,30,19.57a42.39,42.39,0,0,1,2.79,6.38c.84,2.7,2.44,3.36,5.16,3.31,9.81-.17,19.63-.06,29.65-.06,3.19,13.72,6.33,27.23,9.44,40.63ZM1013.58,62.32h-48l-.73,1.33c3.89,2.57,7.48,5.92,11.73,7.53,7.2,2.74,9.8,7.35,9.72,14.84-.27,23.16-.17,46.33-.07,69.5.06,12.48,8,20.79,20.45,21,14,.25,28,0,42-.28a17.49,17.49,0,0,0,16.49-13c.86-3,.77-6.26,1.36-9.35.68-3.5-.64-5.25-3.87-6.81-21.93-10.58-37.51-27-43.73-50.89C1016.12,85.36,1015.35,74,1013.58,62.32Zm47.83,49.23a7.74,7.74,0,0,0-7.51-8.22,7.48,7.48,0,0,0-7.71,7.4c-.15,4.83,2.75,8.24,7.16,8.4A7.59,7.59,0,0,0,1061.41,111.55Zm-9.16-70.87c11.49,1.73,11.5,1.73,11.38-8.72,0-.83,0-1.67,0-2.5-.22-3.55-2.07-5.64-5.66-5.63s-5.55,2-5.66,5.61S1052.25,36.75,1052.25,40.68Zm-63.94-.1c10.73,1.87,11.42,1.31,11.27-8.71,0-1,0-2-.12-3-.34-3.31-2.18-5.14-5.53-5.08s-5.36,1.89-5.57,5.13C988.11,32.85,988.31,36.77,988.31,40.58Z"/><path class="cls-1" d="M1244.8,261.71h-29.19c-3.11-13.4-6.25-26.91-9.44-40.63-10,0-19.84-.11-29.65.06-2.72.05-4.32-.61-5.16-3.31a42.39,42.39,0,0,0-2.79-6.38c-6.22-12.32-15.92-19.3-30-19.57-14.59-.28-25.9,5.81-31.81,19-4,9-5.78,19-8.34,28.59-1.63,6.1-2.9,12.3-4.26,18.47-.62,2.82-2,4.21-5.14,4.14q-10.74-.25-21.48.06c-3.18.09-4-1.29-4-4.16,0-21.66-.25-43.32-.13-65a8.1,8.1,0,0,1,3.06-5.69c11.45-8.1,16.43-19,16.12-33-.34-15,.08-30-.11-45,0-4.39,1.4-5.82,5.77-5.66,8.3.3,16.61.09,25.81.09-6.14,9.77-7.61,19.36-2.42,29.29a24.91,24.91,0,0,0,14.89,12.48c15.51,5.1,27.73-2.67,34.63-22.35,8.54,2.41,17.18,2.81,25.71-.41s14.81-8.82,16.28-18.6c9.34,0,18.46-.09,27.57.09a6.57,6.57,0,0,1,4.35,2c4.56,5.29,9.6,10.38,13,16.37a29.09,29.09,0,0,1,3.38,14.72c-.92,25.47-2.44,50.91-3.78,76.37q-1.12,21.45-2.37,42.91C1245.21,258.29,1245,259.9,1244.8,261.71ZM1187.26,177a21.78,21.78,0,0,0,22,22.14c12.57,0,22-9.75,22-22.66a22.34,22.34,0,0,0-21.78-22.08C1197.3,154.15,1187.22,164.39,1187.26,177Z"/><path class="cls-1" d="M1013.58,62.32c1.77,11.64,2.54,23,5.37,33.9,6.22,23.85,21.8,40.31,43.73,50.89,3.23,1.56,4.55,3.31,3.87,6.81-.59,3.09-.5,6.35-1.36,9.35a17.49,17.49,0,0,1-16.49,13c-14,.31-28,.53-42,.28-12.48-.21-20.39-8.52-20.45-21-.1-23.17-.2-46.34.07-69.5.08-7.49-2.52-12.1-9.72-14.84-4.25-1.61-7.84-5-11.73-7.53l.73-1.33Zm-12.66,56.81c4.75.14,8.33-3.16,8.38-7.72a8.24,8.24,0,0,0-7.58-8.26,8,8,0,0,0-8.31,7.93C993.39,115.65,996.52,119,1000.92,119.13Z"/><path class="cls-1" d="M1061.41,111.55a7.59,7.59,0,0,1-8.06,7.58c-4.41-.16-7.31-3.57-7.16-8.4a7.48,7.48,0,0,1,7.71-7.4A7.74,7.74,0,0,1,1061.41,111.55Z"/><path class="cls-1" d="M1052.25,40.68c0-3.93-.09-7.59,0-11.24s2.09-5.61,5.66-5.61,5.44,2.08,5.66,5.63c.05.83,0,1.67,0,2.5C1063.75,42.41,1063.74,42.41,1052.25,40.68Z"/><path class="cls-1" d="M988.31,40.58c0-3.81-.2-7.73.05-11.63.21-3.24,2.29-5.08,5.57-5.13s5.19,1.77,5.53,5.08c.1,1,.1,2,.12,3C999.73,41.89,999,42.45,988.31,40.58Z"/><path d="M1187.26,177c0-12.56,10-22.8,22.23-22.6a22.34,22.34,0,0,1,21.78,22.08c0,12.91-9.43,22.67-22,22.66A21.78,21.78,0,0,1,1187.26,177Z"/><path d="M1000.92,119.13c-4.4-.12-7.53-3.48-7.51-8a8,8,0,0,1,8.31-7.93,8.24,8.24,0,0,1,7.58,8.26C1009.25,116,1005.67,119.27,1000.92,119.13Z"/></g></g></svg>