<svg xmlns="http://www.w3.org/2000/svg" viewBox="0 0 2714.71 504.03"><defs><style>.cls-1{fill:#fff;}.cls-2{fill:#020101;}.cls-3{fill:#fdfdfd;}.cls-4{fill:#fafafa;}.cls-5{fill:#fcfcfc;}.cls-6{fill:#fc0202;}.cls-7{fill:#020202;}.cls-8{fill:#050404;}</style></defs><g id="Layer_2" data-name="Layer 2"><g id="Layer_1-2" data-name="Layer 1"><path class="cls-1" d="M60.11,55.64C61.82,14.75,88.38-.74,114.13.06c24.39.75,48.65,18,49.42,54.6h6.68c-.38-17.49,5.4-32.53,19.14-43.87C198.15,3.54,208.56.16,219.81,0c15.11-.21,28.25,4.73,38.92,15.86s13.46,24.76,14.09,39.82c8.95,0,17.59-.33,26.2.1,8.15.41,16.15,1.75,22.68,7.55,10.56,9.36,12.92,21.27,10.88,34.44a88.7,88.7,0,0,1-11.47,31.07c-.65,1.11-1.09,2.33-2,4.37H329.5c67,.15,133.92.2,200.89.51,16.93.08,33.9-.74,50.62,3.78,25,6.75,44.14,21.08,57.84,42.75,9.91,15.67,14.43,32.82,14.22,51.46-.35,30.93-.15,61.87-.07,92.81,0,10.27-2.6,18.93-12.41,24.21-4.79,2.58-9,6.48-13.91,8.54-9.7,4-18.83-.22-28.3-3.44-.3,4-.68,8-.88,12.06-.54,11.45-.9,22.91-1.53,34.36-1.24,22.55-2.09,45.15-4.1,67.64C590,489.24,572.75,504,551.34,504c-20.49,0-41-.08-61.47,0-16.11.08-29-5.95-36.78-20.28-3-5.55-4.5-12.06-6-18.3-2.63-10.75-4.74-21.64-7.09-32.56H336.32c-2.43,11.43-4.81,22.75-7.25,34.07-2.5,11.57-6.36,22.27-16.73,29.55A40.38,40.38,0,0,1,289,503.9c-21.32.22-42.64.1-64,.07-22.09,0-39.91-16.66-40.89-38.7-.94-21.43-1.29-42.88-2-64.32-.44-13.44-1.08-26.87-1.65-40.84-1.71-.07-3.45-.22-5.2-.22-13.66.05-27.36.87-41,.05-32.89-2-60.32-14.16-77-44.33a87.48,87.48,0,0,1-11.17-42.89q0-51.9,0-103.78a6.86,6.86,0,0,0-3.34-6.46C17.88,145.17,3.81,121.12.22,91.3-1.63,75.9,8.31,60.76,23.51,57.56a90.51,90.51,0,0,1,14.76-1.84C45.55,55.41,52.85,55.64,60.11,55.64ZM579,196.57a14.93,14.93,0,0,1,3,1.53c11,9.08,17.2,20.4,17.13,35q-.18,38.67,0,77.34a131.59,131.59,0,0,0,.95,16.37c1.84,14.32,15.15,20.19,26.83,12,1.64-1.14,3.24-2.36,5-3.33,3.92-2.19,5.21-5.37,5.19-9.87-.16-32.77-.23-65.54,0-98.3A64.71,64.71,0,0,0,630.27,198c-15.24-31.07-40.43-47.74-75.06-48-82.63-.65-165.26-.56-247.89-.76-7.83,0-15.67,0-23.51,0,16.82-13.79,27.52-30.71,32.49-50.94,4.1-16.7-2.83-27.45-20.36-26.71-10.47.45-21,0-31.48-.06-2.42,0-4.85,0-8.06,0,0-7.73.43-14.73-.09-21.65C254.69,28,239.71,15,217.7,15.92c-14.78.65-29.31,14.2-30.55,28.78-.73,8.55-1,17.15-1.55,25.86H147.2c0-7.22.13-14,0-20.82-.48-21.51-20.7-37.59-41.82-33.34C87.73,19.94,76.71,33.92,76.51,53.07c-.06,5.94,0,11.89,0,18.38H71.05c-12.33.06-24.65.05-37,.21s-19.74,8-17.85,19.91c4.27,26.93,17.79,48,41.89,61.52,3.08,1.74,4,3.58,4,7q-.16,56.38,0,112.78a67.53,67.53,0,0,0,1,11.34c6.56,38.34,36,58.84,72.41,59.83,16.31.45,32.64,0,49,0,9,0,11.3,2,11.81,11,.85,15.27,1.28,30.56,1.77,45.84.69,21.27,1.14,42.56,2,63.82A24.22,24.22,0,0,0,224.51,488q32.49.06,65,0c10.33,0,19.23-6.41,21.78-16.47,4.2-16.53,8.07-33.16,11.5-49.86.85-4.14,2.24-5,6-5,39.31.05,78.63-.07,117.94-.14h6c3.54,16.92,7,33.28,10.39,49.65,2.94,14.07,13.68,22.32,26.14,22,20.81-.59,41.65-.15,62.47-.16,13.17,0,23.61-9.56,24.45-22.63.57-8.79.57-17.61,1.08-26.41,1.84-32,3.86-64,5.68-96,1.69-29.87,3.39-59.74,4.68-89.62.45-10.26.64-20.71-.83-30.81-1.29-8.84-5.08-17.31-7.76-25.95Z"/><path class="cls-1" d="M783.12,416.49V210.58h5.42c31,0,62-.14,92.93.06,15.31.09,30.15,2.87,43.75,10.35,18.06,9.94,27.25,25.1,25.56,45.84-1.54,19-11.69,32-29.45,39.11a21.25,21.25,0,0,0-2.14,1.2,9.54,9.54,0,0,0,1.8,1c24.63,6.59,38.52,29.39,36.29,55.05-2.36,27-20.25,45.09-49.64,50.73a138.07,138.07,0,0,1-24.76,2.44c-31.31.28-62.62.12-93.93.12Zm52.21-84.14v42.23c13.33,0,26.44,0,39.55,0a44.84,44.84,0,0,0,8-.54c8.74-1.63,16.33-5.21,19.68-14.14,4.9-13.06-3.6-26.16-19.1-27.28C867.55,331.46,851.54,332.35,835.33,332.35Zm0-39.88c12.44,0,24.42,0,36.4,0a49.44,49.44,0,0,0,9.43-.71c10.7-2.17,16.72-9.59,16.49-20s-6.27-17.76-17.28-18.42c-14.88-.9-29.86-.22-45-.22Z"/><path class="cls-1" d="M1785.75,211v42.53H1690.3v45.55h87.89v43.22h-88v73.84H1638V211Z"/><path class="cls-1" d="M1399.28,257.53c16.93,0,33.08.08,49.22-.07,3.34,0,3.62,2.11,4.39,4.29q15.83,44.87,31.68,89.73c.86,2.41,1.77,4.81,3.19,8.68,4.64-14.72,8.81-27.91,13-41.11,6-19.17,12.13-38.32,18-57.53.94-3.1,2.31-4.11,5.54-4.07,15.14.17,30.28.08,45.79.08a21.78,21.78,0,0,1-.63,3.05q-32.45,86.26-65,172.5c-5.66,14.93-14.29,27.73-28.76,35.79-22.48,12.52-59,7.94-76.18-9.85l20.31-35c5.65,2.6,10.65,5.76,16.11,7.24,9.62,2.6,17.55-1.68,22.67-10.27,3.2-5.39,3.61-10,1.07-16.14-19.65-47.22-38.86-94.64-58.21-142Z"/><path class="cls-1" d="M1937.16,416.24h-50.45V257.86h50.35v23.31c4.94-5,9-10,13.92-14,20-16.67,66-19.49,84.62,15.32a67.2,67.2,0,0,1,7.59,31.69c.22,33.41.08,66.83.07,100.25a13.63,13.63,0,0,1-.25,1.77h-50.23v-4.93c0-26.27.08-52.54-.07-78.81a43.75,43.75,0,0,0-1.7-12.76c-3.28-10.39-10.72-16.36-21.62-17.11-11.8-.82-21.53,3.81-27,14.31a44.57,44.57,0,0,0-5,18.92c-.56,25.09-.23,50.21-.23,75.31Z"/><path class="cls-1" d="M2392.29,416.24H2342v-5.49c0-26.11,0-52.22,0-78.34a46.88,46.88,0,0,0-1-10.38c-2.62-11.26-10.32-17.95-21.88-19.45-10.93-1.42-23.07,4.55-28.05,15.18a47.45,47.45,0,0,0-4.56,18.59c-.51,24.77-.21,49.56-.21,74.34v5.36H2235.7V257.79H2286v22.95l1.63,1.26a13.62,13.62,0,0,1,1.29-3.08c15.07-20.39,40.53-28.51,65.92-21.08,21.31,6.24,36.31,26.2,37.07,51.55.79,26.42.31,52.88.37,79.32C2392.31,397.67,2392.29,406.64,2392.29,416.24Z"/><path class="cls-1" d="M2082.76,307.7l-13.69-34.8a175,175,0,0,1,37.49-13.55c17.67-4.12,35.56-5.57,53.49-2.18,30.58,5.78,47,24.48,47.52,55.52.59,34.08.13,68.17.11,102.26a6,6,0,0,1-.32,1.23h-49.1V400.63l-1.26-.83c-1.07,1.32-2,2.74-3.23,3.94-18.05,18.14-55.49,21-75.77,5.36-17.66-13.59-21.44-32.36-16.94-52.84s19.62-30.63,39.08-33.36c14.57-2,29.53-1.3,44.32-1.73,4.31-.12,8.61,0,12.86,0,2-13.08-6.72-23.32-21.19-24.93-16.41-1.82-31.64,2.7-46.48,9.07-2,.85-3.93,1.76-5.9,2.62C2083.63,308,2083.43,307.85,2082.76,307.7Zm75.08,42.22c-12.71,0-25.19-.81-37.5.26-9.82.85-13.81,7.28-13.14,17.1.58,8.55,7,14.66,16.48,15.68C2145.64,385.32,2159.63,371.76,2157.84,349.92Z"/><path class="cls-1" d="M2714.05,351.22H2608.22c3.34,11.8,9.35,20.91,20.68,24.95,19.17,6.83,35.11,0,48.59-12.46l27.94,25.64c-6.18,7.76-12.8,13.55-20.65,17.59-29.42,15.13-59.37,16-89.26,1.63-15-7.19-25.57-19.17-31.55-34.63-10.34-26.75-9.94-53.5,3.16-79.2,11.9-23.33,32.26-35.11,57.83-38.29,13.16-1.63,26.3-1,39.05,2.91,26.46,8.16,41.34,27.09,47.22,53.18,2.45,10.91,2.45,22.38,3.45,33.6C2714.82,347.71,2714.3,349.33,2714.05,351.22Zm-49-28.67c.68-16.59-10.41-29.08-26.24-29.88s-30.07,12.75-31.26,29.88Z"/><path class="cls-1" d="M1289,351.26H1183.32c3.25,11.87,9.41,20.91,20.71,24.93,19.15,6.82,35.11-.05,48.57-12.45l28,25.77c-8.32,9.93-17.67,16.94-28.76,21.44-24.32,9.89-49,10.45-73.55,1.18-21-7.95-35-23.24-41.65-44.74-7.1-23.06-6.52-46,3.36-68.18,11.52-25.82,32.45-39.24,60-42.76a93.2,93.2,0,0,1,38.1,2.62c26.16,7.64,40.92,26,47.91,51.49C1289.42,322.87,1290.7,341.14,1289,351.26Zm-49.08-28.68c1.85-15.23-9.89-28.82-25.56-29.9-16.14-1.1-31.57,13.42-31.6,29.9Z"/><path class="cls-1" d="M1124.51,351.27h-106c3.23,11.61,9.14,20.58,20.24,24.71,19.35,7.2,35.38.16,48.85-12.07l28.16,25.45c-10.07,12.17-21.89,20-35.76,24.34-20.71,6.49-41.75,6.86-62.41,0-22.38-7.39-38.15-22.29-45.28-45-8.2-26.11-7.26-51.9,6.29-76.25,12.07-21.69,31.54-32.69,55.65-36a92.82,92.82,0,0,1,39.56,2.68c27.17,8.17,41.69,27.71,48.11,54.24C1124.87,325.68,1125.31,338.08,1124.51,351.27Zm-49-28.72c-1-18.34-11.1-29.35-26.86-29.88s-29,12.15-31,29.88Z"/><path class="cls-1" d="M1316.27,299.82h-20.45v-34.6h20.5c0-4.6.14-8.69,0-12.76-1.4-35.82,24.49-55.46,55.15-56.27a87.63,87.63,0,0,1,35.89,6.25c-2.2,13.32-4.36,26.36-6.51,39.44-28.17-6.46-37.54,0-33.52,23.17h32.91v34.73H1366.9V416.12h-50.63Z"/><path class="cls-1" d="M2556.11,293.56l-36.58,22.11c-1.37-1.66-2.68-3.3-4-4.9-11.77-13.93-33.76-15.54-45.74-3.35-14.49,14.73-14.49,45.71,0,60.42,11.39,11.57,33.57,10.46,44.3-2.28,1.91-2.26,3.54-4.76,5.57-7.52,6.16,3.63,12.27,7.23,18.37,10.85s12.21,7.3,18.57,11.11a63.21,63.21,0,0,1-20.93,24.61c-25.95,18.59-75.4,19.95-102.57-4.91a72.5,72.5,0,0,1-22.21-38.17c-4.57-19.9-4-39.63,3.5-58.77,8.6-22,24.25-36.94,47-43.31,25.26-7.08,49.78-5.09,72.37,9.49C2543.13,275,2550.32,283.18,2556.11,293.56Z"/><path class="cls-1" d="M1853.83,416.23h-49.89V257.8h49.89Z"/><path class="cls-1" d="M1855.16,212.31c0,16.45-11,28.12-26.53,28.15-16,0-27-11.55-27-28.19.06-16.46,11.09-28,26.78-27.91S1855.14,195.87,1855.16,212.31Z"/><path class="cls-1" d="M1589.61,368.1c14.66,0,24.31,10,24.3,25.06,0,15.47-9.73,25.81-24.27,25.82s-24.39-10.56-24.33-25.84S1574.94,368.09,1589.61,368.1Z"/><path class="cls-2" d="M579,196.53c2.68,8.64,6.47,17.11,7.76,25.95,1.47,10.1,1.28,20.55.83,30.81-1.29,29.88-3,59.75-4.68,89.62-1.82,32-3.84,64-5.68,96-.51,8.8-.51,17.62-1.08,26.41-.84,13.07-11.28,22.62-24.45,22.63-20.82,0-41.66-.43-62.47.16-12.46.36-23.2-7.89-26.14-22-3.43-16.37-6.85-32.73-10.39-49.65h-6c-39.31.07-78.63.19-117.94.14-3.79,0-5.18.82-6,5-3.43,16.7-7.3,33.33-11.5,49.86C308.71,481.57,299.81,488,289.48,488q-32.48.09-65,0a24.22,24.22,0,0,1-24.43-23.29c-.82-21.26-1.27-42.55-2-63.82-.49-15.28-.92-30.57-1.77-45.84-.51-9-2.86-10.93-11.81-11-16.33-.07-32.66.41-49,0-36.46-1-65.85-21.49-72.41-59.83a67.53,67.53,0,0,1-1-11.34q-.12-56.4,0-112.78c0-3.4-1-5.24-4-7C34,139.54,20.49,118.51,16.22,91.58c-1.89-11.94,5.59-19.74,17.85-19.91s24.65-.15,37-.21H76.5c0-6.49,0-12.44,0-18.38.2-19.15,11.22-33.13,28.85-36.67,21.12-4.25,41.34,11.83,41.82,33.34.15,6.8,0,13.6,0,20.82h38.4c.51-8.71.82-17.31,1.55-25.86,1.24-14.58,15.77-28.13,30.55-28.78,22-1,37,12,38.61,33.94.52,6.92.09,13.92.09,21.65,3.21,0,5.64,0,8.06,0,10.5,0,21,.51,31.48.06,17.53-.74,24.46,10,20.36,26.71-5,20.23-15.67,37.15-32.49,50.94,7.84,0,15.68,0,23.51,0,82.63.2,165.26.11,247.89.76,34.63.27,59.82,16.94,75.06,48a64.71,64.71,0,0,1,6.79,29.29c-.23,32.76-.16,65.53,0,98.3,0,4.5-1.27,7.68-5.19,9.87-1.74,1-3.34,2.19-5,3.33-11.68,8.17-25,2.3-26.83-12a131.59,131.59,0,0,1-.95-16.37q-.14-38.67,0-77.34c.07-14.56-6.17-25.88-17.13-35a14.93,14.93,0,0,0-3-1.53l-.71-.32ZM544.74,456.22c.46-5,1-9.42,1.25-13.88.88-15.76,1.66-31.52,2.5-47.29Q550.76,352,553,308.92c1.15-22.07,2.22-44.15,3.41-66.23.59-10.81-.44-21.59-6.59-30.54-6.82-9.92-15-18.93-22.92-28-1.37-1.57-4.44-2.13-6.78-2.31-5.79-.43-11.62-.46-17.43-.5-10.1-.06-20.21,0-30.25,0-2,17.63-13.07,27.06-28.05,32.78-14.82,5.66-29.9,5.29-44.92.47-7.41,31.38-31,47.6-57.84,39.87-12.64-3.65-22.23-11.33-28-23.11-8.48-17.39-6.28-34.16,4.87-50.38-16.78,0-32.74.15-48.69-.09-4.62-.07-5.95,1.36-5.92,6,.17,29.43.24,58.87-.11,88.3a64.75,64.75,0,0,1-3.21,19.49C256,308.41,247,319,234.72,327c-2.13,1.39-4.42,4.54-4.42,6.88.07,39.57.51,79.14.8,118.71,0,2.69.87,4.05,3.67,4,14.66,0,29.32.08,44-.16a5.47,5.47,0,0,0,4-3.26c3.61-14.78,6.83-29.65,10.32-44.46,3.44-14.59,5.52-29.66,12.88-43,10.65-19.37,27.26-30.24,49.35-31.51,22.93-1.32,41.25,7.95,53.76,27.18,4.59,7.05,7.26,15.36,11.08,23.68h57.79c5.44,23.84,10.84,47.45,16.24,71.11ZM236.47,260.11c-66.86-30.12-91.44-83.44-90.1-152H59.73c5.77,8.11,12.76,13.6,21.64,16.79,12.35,4.42,15.55,9.09,15.56,22.22,0,41.25.15,82.5-.06,123.74-.1,20.37,14.65,36.54,33.48,36.87,24.8.43,49.64.6,74.41-.34,15.5-.59,27.56-12.55,30.21-27.88C236.12,272.84,236.05,266,236.47,260.11Zm-9.27-66c.05-7.77-5.62-13.71-13.2-13.85a12.91,12.91,0,0,0-13.36,13c.12,8.69,5.3,14.37,13.11,14.39A13.32,13.32,0,0,0,227.2,194.08Zm-107-134.79c0-2.32,0-4.63,0-6.95-.1-6.72-3.75-10.92-9.5-11-5.93-.09-10.14,4.26-10.37,10.93-.15,4.14-.06,8.29,0,12.43,0,7.29,0,7.29,7.24,7.29C120.2,72,120.2,72,120.19,59.29Zm90.93.22h0c0,2.65.16,5.33,0,8-.26,3.37.81,4.87,4.47,4.56a75.78,75.78,0,0,1,11,0c3.42.21,4.84-.92,4.69-4.49-.23-5.31,0-10.64-.08-16-.09-5.83-4.48-10.27-9.94-10.21-5.71.06-9.81,4.17-10,10.16C211,54.19,211.12,56.85,211.12,59.51Z"/><path class="cls-3" d="M544.74,456.22H494.17c-5.4-23.66-10.8-47.27-16.24-71.11H420.14c-3.82-8.32-6.49-16.63-11.08-23.68-12.51-19.23-30.83-28.5-53.76-27.18-22.09,1.27-38.7,12.14-49.35,31.51-7.36,13.36-9.44,28.43-12.88,43-3.49,14.81-6.71,29.68-10.32,44.46a5.47,5.47,0,0,1-4,3.26c-14.65.24-29.31.13-44,.16-2.8,0-3.65-1.35-3.67-4-.29-39.57-.73-79.14-.8-118.71,0-2.34,2.29-5.49,4.42-6.88C247,319,256,308.41,260.63,294.6a64.75,64.75,0,0,0,3.21-19.49c.35-29.43.28-58.87.11-88.3,0-4.63,1.3-6.06,5.92-6,15.95.24,31.91.09,48.69.09-11.15,16.22-13.35,33-4.87,50.38,5.75,11.78,15.34,19.46,28,23.11,26.84,7.73,50.43-8.49,57.84-39.87,15,4.82,30.1,5.19,44.92-.47,15-5.72,26-15.15,28.05-32.78,10,0,20.15,0,30.25,0,5.81,0,11.64.07,17.43.5,2.34.18,5.41.74,6.78,2.31,7.93,9.11,16.1,18.12,22.92,28,6.15,8.95,7.18,19.73,6.59,30.54-1.19,22.08-2.26,44.16-3.41,66.23q-2.25,43.07-4.55,86.13c-.84,15.77-1.62,31.53-2.5,47.29C545.73,446.8,545.2,451.24,544.74,456.22ZM521.17,308.29c.68-19.65-15.67-38.59-37.74-38.76A38.36,38.36,0,0,0,445,307.73c-.09,21.66,16.8,38.94,38.08,39A38,38,0,0,0,521.17,308.29Z"/><path class="cls-3" d="M236.47,260.11c-.42,5.89-.35,12.73-1.5,19.37-2.65,15.33-14.71,27.29-30.21,27.88-24.77.94-49.61.77-74.41.34-18.83-.33-33.58-16.5-33.48-36.87.21-41.24.06-82.49.06-123.74,0-13.13-3.21-17.8-15.56-22.22-8.88-3.19-15.87-8.68-21.64-16.79h86.64C145,176.67,169.61,230,236.47,260.11Zm-100-66c.06-7.92-5.83-14-13.54-14A13.14,13.14,0,0,0,109.76,193c-.13,8.67,5.34,14.72,13.3,14.69A13.29,13.29,0,0,0,136.45,194.11Z"/><path class="cls-4" d="M227.2,194.08a13.32,13.32,0,0,1-13.45,13.56c-7.81,0-13-5.7-13.11-14.39a12.91,12.91,0,0,1,13.36-13C221.58,180.37,227.25,186.31,227.2,194.08Z"/><path class="cls-4" d="M120.19,59.29C120.2,72,120.2,72,107.5,72c-7.21,0-7.22,0-7.24-7.29,0-4.14-.1-8.29,0-12.43.23-6.67,4.44-11,10.37-10.93,5.75.09,9.4,4.29,9.5,11C120.22,54.66,120.19,57,120.19,59.29Z"/><path class="cls-5" d="M211.12,59.51c0-2.66-.08-5.32,0-8,.22-6,4.32-10.1,10-10.16,5.46-.06,9.85,4.38,9.94,10.21.08,5.31-.15,10.64.08,16,.15,3.57-1.27,4.7-4.69,4.49a75.78,75.78,0,0,0-11,0c-3.66.31-4.73-1.19-4.47-4.56.2-2.64,0-5.32,0-8Z"/><path class="cls-6" d="M579,196.53l-.75-.28.71.32Z"/><path class="cls-7" d="M521.17,308.29a38,38,0,0,1-38.08,38.4c-21.28,0-38.17-17.3-38.08-39a38.36,38.36,0,0,1,38.42-38.2C505.5,269.7,521.85,288.64,521.17,308.29Z"/><path class="cls-8" d="M136.45,194.11a13.29,13.29,0,0,1-13.39,13.54c-8,0-13.43-6-13.3-14.69a13.14,13.14,0,0,1,13.15-12.8C130.62,180.13,136.51,186.19,136.45,194.11Z"/></g></g></svg>