<svg width="48" height="49" viewBox="0 0 48 49" fill="none" xmlns="http://www.w3.org/2000/svg">
<path d="M23.9895 48.0036C10.744 47.9942 -0.0320925 37.2542 -4.81965e-06 23.9347C0.0320828 10.732 10.7502 -0.0383241 24.0782 2.79373e-06C37.2827 0.0383297 48.0102 10.748 48 24.0234C47.9897 37.2721 37.2573 48.0023 23.9895 48.0036ZM2.44356 24.0105C2.55898 29.8861 4.57694 34.9992 8.75947 39.1929C12.9291 43.3732 18.0132 45.5021 23.8955 45.5293C29.8201 45.5565 34.9541 43.4547 39.171 39.2615C43.3878 35.0683 45.5159 29.9614 45.5275 24.0448C45.539 18.1197 43.4208 12.9924 39.2173 8.78623C35.0375 4.60458 29.9404 2.48546 24.0492 2.47254C18.15 2.45961 13.0414 4.56046 8.83702 8.7323C4.60947 12.9291 2.56522 18.0613 2.44356 24.0105Z" fill="#C2BBAF"/>
<path d="M2.44356 24.0105C2.56522 18.0613 4.60947 12.9291 8.83702 8.73229C13.0392 4.56046 18.1513 2.45961 24.0492 2.47253C29.9404 2.48546 35.0375 4.60458 39.2173 8.78622C43.4208 12.9919 45.539 18.1197 45.5275 24.0448C45.5159 29.9614 43.3816 35.0736 39.171 39.2628C34.9604 43.452 29.8201 45.5577 23.8955 45.5306C18.0127 45.5034 12.9291 43.3744 8.75947 39.1941C4.57694 34.9991 2.55898 29.8861 2.44356 24.0105ZM34.2308 21.4212C34.2486 20.4915 34.2027 19.3751 34.0026 18.2668C33.816 17.2629 33.476 16.2936 32.9946 15.3931C32.6201 14.6905 32.1671 14.0326 31.6442 13.4322C30.9267 12.5989 30.0906 11.9081 29.1873 11.2899C28.9413 11.1215 28.6632 11.0181 28.4149 10.8603C27.9336 10.5555 27.4091 10.3434 26.8738 10.1669C26.2261 9.95058 25.5624 9.78518 24.8889 9.67219C24.3277 9.58051 23.7599 9.53579 23.1913 9.53849C22.6526 9.53895 22.1146 9.57992 21.5821 9.66105C20.7409 9.78954 19.9166 10.0115 19.1247 10.3229C18.0939 10.7342 17.158 11.3104 16.2827 12.0026C15.23 12.8373 14.398 13.8534 13.7201 14.9987C13.2054 15.8682 12.864 16.8126 12.6323 17.7962C12.4636 18.5281 12.3791 19.2769 12.3805 20.028C12.3727 21.928 12.3727 23.8279 12.3805 25.7276C12.384 26.3096 12.393 26.893 12.4696 27.4732C12.5772 28.2907 12.7539 29.0975 12.9977 29.8852C13.3043 30.8741 13.7678 31.7904 14.3106 32.6692C14.7264 33.3426 15.2229 33.9532 15.7599 34.5312C16.2435 35.0513 16.7934 35.4938 17.3612 35.9212C17.7222 36.1916 18.101 36.4374 18.495 36.657C19.5976 37.2842 20.7864 37.7459 22.0233 38.0274C22.7501 38.2025 23.4939 38.2948 24.2369 38.3732C24.8986 38.4427 25.5652 38.4543 26.229 38.408C26.7459 38.3728 27.1203 38.0791 27.2865 37.5581C27.4086 37.1735 27.5356 36.7858 27.8137 36.4801C28.2808 35.9671 28.8686 35.6917 29.5607 35.6453C30.1102 35.6083 30.662 35.6008 31.1834 35.3833C31.7048 35.1658 32.1318 34.869 32.3867 34.3467C32.6955 33.7129 32.7592 33.0262 32.851 32.3448C32.9175 31.8545 33.0494 31.3719 33.3324 30.9721C33.7491 30.3843 34.3832 30.1178 35.0776 30.0077C35.784 29.8954 36.4703 29.7381 37.1071 29.394C37.6557 29.0977 38.1067 28.7126 38.3505 28.1257C38.5707 27.5954 38.453 27.1363 38.023 26.7588C37.7386 26.5093 37.3767 26.4228 37.0322 26.3132C36.5453 26.1602 36.0955 25.9077 35.7113 25.5716C35.1743 25.1028 34.7268 24.5608 34.4706 23.8781C34.3462 23.547 34.2317 23.219 34.2304 22.8615C34.2299 22.4448 34.2308 22.0295 34.2308 21.4212Z" fill="#F5EEE4"/>
<path d="M34.2308 21.4212C34.2308 22.0295 34.2308 22.4462 34.2308 22.8607C34.2308 23.2172 34.3467 23.5461 34.471 23.8772C34.7273 24.5609 35.1747 25.1028 35.7118 25.5707C36.0964 25.9073 36.5468 26.1602 37.0345 26.3132C37.379 26.4228 37.7409 26.5093 38.0252 26.7589C38.4553 27.1363 38.5729 27.5954 38.3528 28.1257C38.109 28.7126 37.658 29.0977 37.1094 29.394C36.4725 29.7381 35.7862 29.8954 35.0798 30.0077C34.3841 30.1178 33.75 30.3843 33.3355 30.9735C33.0525 31.3746 32.9206 31.855 32.8542 32.3461C32.7624 33.0275 32.6986 33.7143 32.3898 34.348C32.1349 34.8703 31.703 35.1703 31.1865 35.3846C30.67 35.599 30.1134 35.6075 29.5639 35.6467C28.8717 35.6912 28.2839 35.9684 27.8169 36.4814C27.5388 36.7871 27.4117 37.1748 27.2896 37.5595C27.1247 38.0804 26.749 38.3741 26.2321 38.4093C25.5683 38.4557 24.9017 38.444 24.24 38.3746C23.4962 38.2961 22.7532 38.2039 22.0264 38.0287C20.7883 37.7471 19.5985 37.2849 18.4949 36.657C18.1018 36.437 17.7239 36.1909 17.3638 35.9203C16.7961 35.4929 16.2461 35.0504 15.7626 34.5303C15.2256 33.9509 14.7291 33.3417 14.3133 32.6683C13.7705 31.7895 13.307 30.8732 13.0004 29.8843C12.7565 29.0967 12.5799 28.2898 12.4723 27.4724C12.3947 26.893 12.3858 26.3087 12.3831 25.7267C12.3721 23.827 12.3721 21.9271 12.3831 20.0271C12.3817 19.276 12.4662 18.5272 12.6349 17.7953C12.8667 16.8117 13.208 15.8673 13.7228 14.9979C14.4006 13.8525 15.2327 12.8364 16.2853 12.0017C17.1579 11.3105 18.0938 10.7342 19.1247 10.3246C19.9166 10.0133 20.7408 9.79133 21.582 9.66284C22.1146 9.58171 22.6526 9.54074 23.1913 9.54028C23.7599 9.53758 24.3277 9.5823 24.8889 9.67398C25.5622 9.78685 26.2257 9.9521 26.8734 10.1682C27.4082 10.3465 27.9332 10.5568 28.4145 10.8617C28.6627 11.0194 28.9408 11.1228 29.1868 11.2913C30.0902 11.9094 30.9249 12.6002 31.6438 13.4336C32.1667 14.034 32.6197 14.6918 32.9941 15.3945C33.4761 16.2945 33.8167 17.2632 34.004 18.2668C34.2028 19.3751 34.2487 20.4915 34.2308 21.4212ZM36.1512 27.9091C36.0807 27.8357 35.994 27.7799 35.8981 27.746C35.3606 27.4973 34.8588 27.1854 34.4242 26.7802C33.7427 26.1531 33.2042 25.3866 32.8453 24.5328C32.5937 23.9258 32.4559 23.2777 32.4388 22.6209C32.3885 21.2465 32.5355 19.8649 32.2539 18.4994C32.1477 17.9585 31.9855 17.43 31.7699 16.9227C31.4824 16.2642 31.1212 15.6404 30.6932 15.0634C30.1844 14.3793 29.5825 13.7698 28.9047 13.2526C28.3254 12.807 27.6832 12.4455 27.0133 12.134C26.1929 11.7534 25.3301 11.5248 24.4459 11.4014C23.5884 11.2848 22.7185 11.2943 21.8637 11.4294C20.9621 11.568 20.0864 11.7953 19.2664 12.1871C18.3078 12.6452 17.4307 13.2402 16.6815 13.9978C16.1075 14.5728 15.6158 15.2246 15.2207 15.9346C14.521 17.1842 14.151 18.5914 14.1457 20.0236C14.1346 21.886 14.1457 23.7484 14.1381 25.6108C14.1341 26.5971 14.2184 27.5717 14.4581 28.5304C14.6333 29.2314 14.8378 29.9199 15.1587 30.5688C15.5748 31.428 16.0967 32.2319 16.7123 32.9616C17.5114 33.8975 18.4637 34.6292 19.5222 35.2304C20.3422 35.6975 21.226 36.0094 22.1396 36.239C23.2722 36.5287 24.4388 36.6636 25.6077 36.6401C25.6924 36.6401 25.7534 36.6267 25.7927 36.5251C26.0552 35.8459 26.4518 35.2643 27.0369 34.8155C27.7277 34.2856 28.4987 33.9688 29.3664 33.8885C29.6534 33.8627 29.9458 33.8672 30.2279 33.8239C30.4694 33.7869 30.7404 33.7629 30.8518 33.4794C30.9632 33.196 31.0042 32.9108 31.0412 32.6171C31.1687 31.6001 31.3817 30.6183 32.0533 29.7889C32.318 29.4599 32.634 29.1758 32.9892 28.9475C33.7112 28.4822 34.5281 28.2893 35.3682 28.1703C35.6442 28.1375 35.9107 28.0486 36.1512 27.9091Z" fill="#020202"/>
<path d="M36.1511 27.9091C35.9102 28.0492 35.6431 28.1383 35.3663 28.1712C34.5263 28.2901 33.7094 28.4831 32.9874 28.9484C32.6322 29.1767 32.3162 29.4608 32.0515 29.7898C31.3799 30.6192 31.1669 31.601 31.0394 32.618C31.0024 32.9117 30.9587 33.2036 30.85 33.4803C30.7413 33.7571 30.4672 33.7878 30.2261 33.8248C29.9422 33.8694 29.6516 33.8636 29.3646 33.8894C28.4969 33.9679 27.7259 34.2865 27.0351 34.8164C26.45 35.2652 26.0547 35.8468 25.7909 36.526C25.7516 36.6276 25.6906 36.6387 25.6059 36.6409C24.437 36.6645 23.2704 36.5296 22.1378 36.2398C21.2242 36.0099 20.3404 35.6966 19.5208 35.2313C18.4642 34.6279 17.5118 33.8975 16.7123 32.9616C16.0963 32.2331 15.5738 31.4305 15.1569 30.5724C14.8361 29.9235 14.6315 29.2354 14.4564 28.5339C14.2166 27.5735 14.1324 26.6006 14.1364 25.6144C14.1439 23.752 14.1328 21.8896 14.1439 20.0271C14.1493 18.595 14.5192 17.1878 15.2189 15.9382C15.614 15.2282 16.1057 14.5764 16.6798 14.0014C17.4307 13.2437 18.3078 12.6488 19.2646 12.1906C20.0846 11.7989 20.9603 11.5716 21.8619 11.433C22.7167 11.2979 23.5866 11.2884 24.4441 11.4049C25.3283 11.5284 26.1911 11.757 27.0115 12.1376C27.68 12.4496 28.3218 12.8083 28.9029 13.2562C29.581 13.7721 30.1836 14.3804 30.6931 15.0634C31.1209 15.64 31.482 16.2633 31.7694 16.9213C31.985 17.4287 32.1472 17.9571 32.2534 18.4981C32.535 19.8636 32.3871 21.2451 32.4383 22.6196C32.4554 23.2764 32.5932 23.9245 32.8448 24.5314C33.2039 25.3853 33.7425 26.1518 34.4242 26.7789C34.8587 27.1836 35.3601 27.492 35.898 27.7447C35.9941 27.7789 36.0808 27.8353 36.1511 27.9091ZM27.5713 21.2536C29.3267 21.2509 30.9868 19.9229 31.03 17.8537C31.0684 16.0264 29.6993 14.41 27.6551 14.3485C25.7739 14.2919 24.1949 15.7648 24.1459 17.728C24.0991 19.5806 25.5101 21.2028 27.5713 21.2536ZM22.595 17.7716C22.5464 15.8072 21.0405 14.3664 19.1786 14.3472C17.1798 14.3271 15.6917 15.9382 15.7055 17.8095C15.7198 19.7825 17.2609 21.271 19.1928 21.2478C21.0958 21.2251 22.5834 19.7098 22.595 17.7716Z" fill="#F5EEE4"/>
<path d="M27.5713 21.2536C25.5102 21.2028 24.0992 19.5806 24.146 17.728C24.195 15.7648 25.774 14.2919 27.6551 14.3485C29.6994 14.41 31.0684 16.0282 31.0301 17.8537C30.9869 19.9211 29.3268 21.2509 27.5713 21.2536ZM27.5651 15.4444C26.2281 15.4645 25.212 16.5349 25.2214 17.81C25.2316 19.2245 26.3395 20.1956 27.5936 20.172C29.0599 20.1461 29.9365 19.0855 29.9556 17.8496C29.9784 16.4503 28.8874 15.4506 27.5651 15.4444Z" fill="#020202"/>
<path d="M22.5951 17.7717C22.5857 19.7099 21.0981 21.2251 19.1929 21.2478C17.2609 21.271 15.7198 19.7825 15.7056 17.8095C15.6918 15.9378 17.1798 14.3271 19.1786 14.3472C21.0384 14.3664 22.5442 15.8072 22.5951 17.7717ZM19.1189 15.4444C18.4952 15.4495 17.8989 15.701 17.46 16.1441C17.0211 16.5872 16.7752 17.1859 16.776 17.8095C16.7841 19.2009 17.8857 20.1965 19.1474 20.1756C20.5927 20.1511 21.4992 19.118 21.5166 17.8416C21.5362 16.4605 20.4608 15.4471 19.1189 15.4444Z" fill="#020202"/>
<path d="M27.5651 15.4444C28.8873 15.4507 29.9783 16.4503 29.956 17.851C29.9364 19.0868 29.0598 20.1475 27.594 20.1733C26.34 20.1956 25.2321 19.2245 25.2218 17.8113C25.212 16.5341 26.2286 15.4645 27.5651 15.4444ZM27.631 17.8104H27.6391C27.6391 17.4254 27.6391 17.0403 27.6391 16.6553C27.6391 16.5568 27.6328 16.473 27.5005 16.4846C27.3255 16.4963 27.1545 16.5429 26.9978 16.6215C26.841 16.7002 26.7015 16.8094 26.5875 16.9427C26.4735 17.076 26.3873 17.2307 26.3339 17.3978C26.2806 17.5648 26.2611 17.7409 26.2767 17.9156C26.3212 18.482 26.799 19.0204 27.402 19.1189C27.5731 19.1474 27.6346 19.1189 27.6315 18.9406C27.6252 18.5658 27.631 18.1879 27.631 17.8104Z" fill="#F5EEE4"/>
<path d="M19.1189 15.4444C20.4603 15.4471 21.5357 16.4605 21.5165 17.8416C21.4992 19.118 20.5927 20.1511 19.1474 20.1756C17.8857 20.1965 16.7854 19.2009 16.776 17.8095C16.7752 17.1859 17.021 16.5872 17.46 16.1441C17.8989 15.701 18.4952 15.4495 19.1189 15.4444ZM19.1857 17.7957H19.1915C19.1915 17.4174 19.1915 17.0381 19.1915 16.6606C19.1915 16.5648 19.1946 16.4766 19.0578 16.4864C18.3002 16.5412 17.7485 17.2061 17.8443 17.937C17.9281 18.5797 18.3149 18.962 18.9451 19.1113C19.1256 19.1559 19.1911 19.122 19.1871 18.9308C19.1804 18.5525 19.1862 18.1741 19.1862 17.7957H19.1857Z" fill="#F5EEE4"/>
<path d="M27.631 17.8104C27.631 18.1879 27.6266 18.5658 27.631 18.9433C27.6342 19.1216 27.5727 19.1483 27.4015 19.1216C26.7985 19.0208 26.319 18.4825 26.2762 17.9183C26.2608 17.7437 26.2804 17.5678 26.3338 17.4009C26.3873 17.234 26.4735 17.0795 26.5874 16.9463C26.7014 16.8132 26.8407 16.7041 26.9973 16.6255C27.154 16.5469 27.3247 16.5004 27.4996 16.4886C27.6333 16.477 27.6386 16.5608 27.6382 16.6593C27.6382 17.0443 27.6382 17.4294 27.6382 17.8144L27.631 17.8104Z" fill="#020202"/>
<path d="M19.1862 17.7957C19.1862 18.1741 19.1804 18.5534 19.1889 18.9308C19.1929 19.122 19.1274 19.1537 18.9469 19.1113C18.3167 18.9607 17.9299 18.5797 17.8461 17.937C17.7503 17.2061 18.3011 16.5412 19.0596 16.4864C19.196 16.4766 19.1933 16.5648 19.1933 16.6606C19.1933 17.039 19.1933 17.4182 19.1933 17.7957H19.1862Z" fill="#020202"/>
</svg>
