<svg width="48" height="48" viewBox="0 0 48 48" fill="none" xmlns="http://www.w3.org/2000/svg">
<path d="M24 48C37.2548 48 48 37.2548 48 24C48 10.7452 37.2548 0 24 0C10.7452 0 0 10.7452 0 24C0 37.2548 10.7452 48 24 48Z" fill="white"/>
<path fill-rule="evenodd" clip-rule="evenodd" d="M8.83373 21.7335C9.74603 21.3938 10.4661 20.675 10.8075 19.7633C10.2593 18.7578 10.4389 17.5113 11.2486 16.7014C12.0583 15.8916 13.3046 15.712 14.31 16.2603C14.7636 16.0994 15.1739 15.836 15.5091 15.4906C15.8539 15.1545 16.1171 14.7438 16.2786 14.2901C15.6861 13.2044 15.947 11.8508 16.9007 11.0633C17.8544 10.2758 19.2327 10.2758 20.1864 11.0633C21.1401 11.8508 21.401 13.2044 20.8084 14.2901C20.9698 14.7438 21.233 15.1546 21.5779 15.4906C21.9136 15.8361 22.3244 16.0994 22.7783 16.2603C23.0092 16.2692 24.5469 16.3565 25.546 17.6494C26.0073 18.2591 26.2644 18.9989 26.2808 19.7633C26.6215 20.676 27.3425 21.3952 28.2559 21.7335C29.3414 21.1408 30.6948 21.4018 31.4821 22.3556C32.2695 23.3095 32.2695 24.6879 31.4821 25.6418C30.6948 26.5956 29.3414 26.8566 28.2559 26.2639C27.3443 26.6045 26.6252 27.3237 26.2847 28.2354C26.8329 29.2409 26.6533 30.4874 25.8436 31.2972C25.0339 32.1071 23.7876 32.2867 22.7822 31.7384C21.8699 32.078 21.1505 32.7976 20.811 33.7099C21.4036 34.7956 21.1426 36.1491 20.1889 36.9366C19.2352 37.7241 17.857 37.7241 16.9033 36.9366C15.9496 36.1491 15.6886 34.7956 16.2812 33.7099C15.9407 32.7982 15.2216 32.079 14.31 31.7384C13.3049 32.2882 12.0578 32.1093 11.2476 31.2993C10.4375 30.4894 10.2582 29.2421 10.8075 28.2367C10.4654 27.3251 9.74564 26.6062 8.83373 26.2652C7.74819 26.8572 6.39539 26.5958 5.60838 25.6421C4.82138 24.6884 4.82138 23.3103 5.60838 22.3566C6.39539 21.4029 7.74819 21.1415 8.83373 21.7335ZM9.85973 22.7596C10.2803 23.5308 10.2803 24.4628 9.85973 25.2339C10.2012 26.1473 10.9216 26.8678 11.8348 27.2093C12.8401 26.6588 14.088 26.8376 14.8985 27.6481C15.7089 28.4587 15.8877 29.7068 15.3373 30.7123C15.6778 31.624 16.3969 32.3432 17.3085 32.6838C18.0795 32.2631 19.0114 32.2631 19.7824 32.6838C20.694 32.3432 21.4131 31.624 21.7536 30.7123C21.2055 29.7068 21.385 28.4603 22.1948 27.6505C23.0045 26.8406 24.2508 26.661 25.2561 27.2093C26.1677 26.8687 26.8868 26.1495 27.2273 25.2378C26.8079 24.4664 26.8079 23.5349 27.2273 22.7635C26.8878 21.8511 26.1684 21.1315 25.2561 20.792C24.53 20.6867 23.8444 20.3921 23.2683 19.9377C22.4588 19.2705 21.9204 18.3311 21.7536 17.2954C21.4151 16.3815 20.6955 15.6604 19.7824 15.3201C19.0111 15.7395 18.0798 15.7395 17.3085 15.3201C16.3962 15.6596 15.6768 16.3792 15.3373 17.2915C15.8833 18.2969 15.7027 19.5417 14.8935 20.3504C14.0843 21.1591 12.8396 21.3388 11.8348 20.792C10.9225 21.1308 10.202 21.8486 9.85973 22.7596Z" fill="#217F52"/>
<path fill-rule="evenodd" clip-rule="evenodd" d="M22.7459 20.7894C21.8334 21.129 21.1138 21.8485 20.7742 22.7609C21.1937 23.5323 21.1937 24.4638 20.7742 25.2352C20.9351 25.6892 21.1984 26.1001 21.5439 26.4358C21.9174 26.8259 22.3888 27.1085 22.9089 27.2542C23.354 27.3619 23.0371 27.9866 22.7652 28.2559C22.4932 28.5253 21.8672 28.8447 21.7633 28.3996C21.6176 27.8796 21.3349 27.4083 20.9448 27.0348C20.609 26.6894 20.1981 26.4261 19.744 26.2652C18.6582 26.8572 17.305 26.5958 16.5178 25.6421C15.7306 24.6884 15.7306 23.3103 16.5178 22.3566C17.305 21.4029 18.6582 21.1415 19.744 21.7335C20.6565 21.394 21.3762 20.6744 21.7158 19.762C21.1664 18.7566 21.3457 17.5093 22.1561 16.6993C22.9665 15.8894 24.2139 15.7105 25.2193 16.2603C25.6729 16.0985 26.0836 15.8352 26.42 15.4906C26.7653 15.1548 27.0287 14.744 27.1898 14.2901C26.597 13.2044 26.858 11.8508 27.812 11.0633C28.766 10.2758 30.1446 10.2758 31.0986 11.0633C32.0525 11.8508 32.3136 13.2044 31.7208 14.2901C31.8815 14.7442 32.1449 15.155 32.4905 15.4906C32.8263 15.8355 33.2366 16.0987 33.69 16.2603C34.6954 15.7105 35.9428 15.8894 36.7532 16.6993C37.5636 17.5093 37.7429 18.7566 37.1935 19.762C37.5331 20.6744 38.2527 21.394 39.1652 21.7335C40.2511 21.1415 41.6043 21.4029 42.3915 22.3566C43.1787 23.3103 43.1787 24.6884 42.3915 25.6421C41.6043 26.5958 40.2511 26.8572 39.1652 26.2652C38.2527 26.6047 37.5331 27.3243 37.1935 28.2367C37.7429 29.2421 37.5636 30.4894 36.7532 31.2993C35.9428 32.1093 34.6954 32.2882 33.69 31.7384C32.7788 32.08 32.0599 32.7989 31.7182 33.7099C32.311 34.7956 32.05 36.1491 31.096 36.9366C30.142 37.7241 28.7634 37.7241 27.8094 36.9366C26.8555 36.1491 26.5944 34.7956 27.1872 33.7099C27.0258 33.2565 26.7624 32.8462 26.4175 32.5106C26.0438 32.1208 25.5725 31.8382 25.0525 31.6923C24.6074 31.5832 24.9242 30.9598 25.1962 30.6905C25.4682 30.4211 26.0942 30.1017 26.1981 30.5455C26.3437 31.0659 26.6264 31.5377 27.0166 31.9116C27.3525 32.2568 27.7633 32.5202 28.2173 32.6812C28.9886 32.2605 29.9207 32.2605 30.692 32.6812C31.6038 32.3407 32.3231 31.6214 32.6637 30.7097C32.1154 29.7042 32.295 28.4577 33.105 27.6479C33.9149 26.8381 35.1616 26.6585 36.1672 27.2067C37.079 26.8662 37.7984 26.1469 38.139 25.2352C37.7182 24.4641 37.7182 23.532 38.139 22.7609C37.7984 21.8492 37.079 21.13 36.1672 20.7894C35.1616 21.3377 33.9149 21.1581 33.105 20.3482C32.295 19.5384 32.1154 18.2919 32.6637 17.2864C32.3231 16.3747 31.6038 15.6555 30.692 15.3149C29.9207 15.7356 28.9886 15.7356 28.2173 15.3149C27.7633 15.476 27.3525 15.7393 27.0166 16.0845C26.6719 16.4209 26.4087 16.8316 26.2469 17.2851C26.7966 18.2903 26.6178 19.5376 25.8077 20.3479C24.9976 21.1582 23.7502 21.3375 22.7446 20.7881L22.7459 20.7894Z" fill="#2DB269"/>
<path d="M24.218 32.0363C25.664 32.0363 26.8362 30.8641 26.8362 29.4182C26.8362 27.9722 25.664 26.8 24.218 26.8C22.772 26.8 21.5998 27.9722 21.5998 29.4182C21.5998 30.8641 22.772 32.0363 24.218 32.0363Z" fill="#217F52"/>
</svg>
