<svg width="24" height="24" viewBox="0 0 24 24" fill="none" xmlns="http://www.w3.org/2000/svg">
<g clip-path="url(#clip0_4131_27923)">
<path d="M11.9999 23.3857C18.2881 23.3857 23.3856 18.2881 23.3856 12C23.3856 5.71182 18.2881 0.614288 11.9999 0.614288C5.7118 0.614288 0.614258 5.71182 0.614258 12C0.614258 18.2881 5.7118 23.3857 11.9999 23.3857Z" fill="url(#paint0_linear_4131_27923)"/>
<path fill-rule="evenodd" clip-rule="evenodd" d="M11.9999 1.22855C6.05111 1.22855 1.2286 6.05105 1.2286 11.9999C1.2286 17.9488 6.05111 22.7713 11.9999 22.7713C17.9488 22.7713 22.7713 17.9488 22.7713 11.9999C22.7713 6.05105 17.9488 1.22855 11.9999 1.22855ZM-7.62939e-05 11.9999C-7.62939e-05 5.37249 5.37251 -0.00012207 11.9999 -0.00012207C18.6274 -0.00012207 24 5.37249 24 11.9999C24 18.6273 18.6274 23.9999 11.9999 23.9999C5.37251 23.9999 -7.62939e-05 18.6273 -7.62939e-05 11.9999Z" fill="#7333FF"/>
<path d="M12 21.1741C16.6143 21.1741 20.355 17.4334 20.355 12.8191C20.355 8.20478 16.6143 4.46414 12 4.46414C7.38567 4.46414 3.64503 8.20478 3.64503 12.8191C3.64503 17.4334 7.38567 21.1741 12 21.1741Z" fill="url(#paint1_linear_4131_27923)"/>
<path d="M12 20.355C16.6143 20.355 20.355 16.6143 20.355 12C20.355 7.38565 16.6143 3.64502 12 3.64502C7.38567 3.64502 3.64503 7.38565 3.64503 12C3.64503 16.6143 7.38567 20.355 12 20.355Z" fill="url(#paint2_linear_4131_27923)"/>
<path opacity="0.5" d="M20.355 12C20.355 12.2867 20.355 12.5734 20.314 12.8601C19.8635 8.64162 16.3003 5.36515 12 5.36515C7.69963 5.36515 4.1365 8.64162 3.68597 12.8601C3.64504 12.5734 3.64503 12.2867 3.64503 12C3.64503 7.37199 7.372 3.64502 12 3.64502C16.628 3.64502 20.355 7.37199 20.355 12Z" fill="#8457FF"/>
<path fill-rule="evenodd" clip-rule="evenodd" d="M11.357 12.6428C11.477 12.7628 11.477 12.9573 11.357 13.0772L10.0874 14.3469C9.63396 14.8003 9.63396 15.5887 10.0874 16.0422C10.5408 16.4956 11.3293 16.4956 11.7827 16.0422L11.9999 15.825L12.2171 16.0422C12.6705 16.4956 13.4589 16.4956 13.9124 16.0422C14.3658 15.5887 14.3658 14.8003 13.9124 14.3469L12.6427 13.0772C12.5228 12.9573 12.5228 12.7628 12.6427 12.6428C12.7627 12.5229 12.9572 12.5229 13.0771 12.6428L14.3468 13.9125C15.0401 14.6058 15.0401 15.7832 14.3468 16.4766C13.7215 17.1019 12.7024 17.1632 11.9999 16.6607C11.2973 17.1632 10.2783 17.1019 9.65296 16.4766C8.95963 15.7832 8.95963 14.6058 9.65296 13.9125L10.9226 12.6428C11.0426 12.5229 11.237 12.5229 11.357 12.6428Z" fill="#7333FF"/>
<path fill-rule="evenodd" clip-rule="evenodd" d="M11.9999 7.3393C11.2973 6.83673 10.2783 6.8981 9.65296 7.52337C8.95963 8.2167 8.95963 9.39413 9.65296 10.0875L10.9226 11.3571C11.0426 11.4771 11.237 11.4771 11.357 11.3571C11.477 11.2371 11.477 11.0427 11.357 10.9227L10.0874 9.65307C9.63396 9.19967 9.63396 8.4112 10.0874 7.95777C10.5408 7.50437 11.3293 7.50437 11.7827 7.95777L11.9999 8.17497L12.2171 7.95777C12.6705 7.50437 13.4589 7.50437 13.9124 7.95777C14.3658 8.4112 14.3658 9.19967 13.9124 9.65307L12.6427 10.9227C12.5228 11.0427 12.5228 11.2371 12.6427 11.3571C12.7627 11.4771 12.9572 11.4771 13.0771 11.3571L14.3468 10.0875C15.0401 9.39413 15.0401 8.2167 14.3468 7.52337C13.7215 6.8981 12.7024 6.83673 11.9999 7.3393Z" fill="#7333FF"/>
<path fill-rule="evenodd" clip-rule="evenodd" d="M7.52333 9.65306C8.21667 8.95972 9.3941 8.95972 10.0874 9.65306L11.3571 10.9227C11.477 11.0427 11.477 11.2372 11.3571 11.3571C11.2371 11.4771 11.0426 11.4771 10.9227 11.3571L9.65304 10.0875C9.1996 9.63406 8.41117 9.63406 7.95774 10.0875C7.50433 10.5409 7.50433 11.3294 7.95774 11.7828L8.17494 12L7.95774 12.2172C7.50433 12.6706 7.50433 13.4591 7.95774 13.9125C8.41117 14.3659 9.1996 14.3659 9.65304 13.9125L10.9227 12.6428C11.0426 12.5229 11.2371 12.5229 11.3571 12.6428C11.477 12.7628 11.477 12.9573 11.3571 13.0772L10.0874 14.3469C9.3941 15.0402 8.21667 15.0402 7.52333 14.3469C6.89803 13.7216 6.83667 12.7026 7.33924 12C6.83667 11.2974 6.89803 10.2784 7.52333 9.65306Z" fill="#7333FF"/>
<path fill-rule="evenodd" clip-rule="evenodd" d="M13.9124 9.65306C14.6057 8.95972 15.7832 8.95972 16.4765 9.65306C17.1018 10.2784 17.1632 11.2974 16.6606 12C17.1632 12.7026 17.1018 13.7216 16.4765 14.3469C15.7832 15.0402 14.6057 15.0402 13.9124 14.3469L12.6428 13.0772C12.5228 12.9573 12.5228 12.7628 12.6428 12.6428C12.7627 12.5229 12.9572 12.5229 13.0772 12.6428L14.3468 13.9125C14.8002 14.3659 15.5887 14.3659 16.0421 13.9125C16.4955 13.4591 16.4955 12.6706 16.0421 12.2172L15.8249 12L16.0421 11.7828C16.4955 11.3294 16.4955 10.5409 16.0421 10.0875C15.5887 9.63406 14.8002 9.63406 14.3468 10.0875L13.0772 11.3571C12.9572 11.4771 12.7627 11.4771 12.6428 11.3571C12.5228 11.2372 12.5228 11.0427 12.6428 10.9227L13.9124 9.65306Z" fill="#7333FF"/>
</g>
<defs>
<linearGradient id="paint0_linear_4131_27923" x1="15.6322" y1="1.91741" x2="8.55011" y2="21.5294" gradientUnits="userSpaceOnUse">
<stop offset="0.1161" stop-color="white"/>
<stop offset="0.2704" stop-color="#F8F7FF"/>
<stop offset="0.5145" stop-color="#E7E0FF"/>
<stop offset="0.8159" stop-color="#C9BBFF"/>
<stop offset="1" stop-color="#B5A1FF"/>
</linearGradient>
<linearGradient id="paint1_linear_4131_27923" x1="3.64433" y1="12.8127" x2="20.3429" y2="12.8127" gradientUnits="userSpaceOnUse">
<stop offset="0.1161" stop-color="white"/>
<stop offset="0.2704" stop-color="#F8F7FF"/>
<stop offset="0.5145" stop-color="#E7E0FF"/>
<stop offset="0.8159" stop-color="#C9BBFF"/>
<stop offset="1" stop-color="#B5A1FF"/>
</linearGradient>
<linearGradient id="paint2_linear_4131_27923" x1="14.6662" y1="4.59265" x2="9.46437" y2="18.9977" gradientUnits="userSpaceOnUse">
<stop offset="0.6281" stop-color="#B5A1FF"/>
<stop offset="1" stop-color="#B5A1FF"/>
</linearGradient>
<clipPath id="clip0_4131_27923">
<rect width="24" height="24" fill="white"/>
</clipPath>
</defs>
</svg>
