<svg width="186" height="48" viewBox="0 0 186 48" fill="none" xmlns="http://www.w3.org/2000/svg">
<path d="M18.0399 25.243L19.9523 45.3226L27.2192 47.1075L34.3587 45.3226L35.8248 24.7968L29.0678 27.2829L25.8168 27.0279L18.0399 25.243Z" fill="url(#paint0_linear_4135_28497)"/>
<path d="M18.5497 24.7968L19.9521 45.3226L15.7449 44.3665L12.8764 40.4781L11.7927 28.4302L18.5497 24.7968Z" fill="url(#paint1_linear_4135_28497)"/>
<path d="M35.8244 24.7968L34.3583 45.3226L38.5655 44.3665L41.4339 40.4781L42.5814 28.4302L35.8244 24.7968Z" fill="url(#paint2_linear_4135_28497)"/>
<path fill-rule="evenodd" clip-rule="evenodd" d="M10.0419 20.3984H44.3377L42.3903 40.209C42.3633 42.6717 40.3293 44.6189 37.6738 45.8973C34.9357 47.2158 31.2178 48 27.1555 48C23.2254 48 19.6276 47.2812 16.9212 46.0587C14.2739 44.8628 12.2136 43.0511 11.9276 40.7222L11.9205 40.6641V40.4591L10.0419 20.3984ZM12.1417 22.3107L13.8328 40.3697V40.5422C14.0202 41.8319 15.2739 43.2161 17.7085 44.3159C20.1175 45.4041 23.4361 46.0877 27.1555 46.0877C30.9975 46.0877 34.4191 45.342 36.8443 44.1744C39.3345 42.9755 40.4782 41.498 40.4782 40.1594V40.1126L42.2281 22.3107H12.1417Z" fill="#7333FF"/>
<path d="M43.9203 9.62548C42.4542 9.62548 41.0518 9.9442 39.7769 10.5817C38.1833 5.03583 33.1474 1.0199 27.0917 1.0199C21.0996 1.0199 16 5.03583 14.4064 10.5817C13.1952 10.008 11.8566 9.68922 10.3904 9.68922C5.16334 9.68922 0.956177 13.8964 0.956177 19.1235C0.956177 24.3505 5.16334 28.5578 10.3904 28.5578C13.7052 28.5578 16.6374 26.8366 18.2948 24.1593C20.6533 26.1991 23.6495 27.4741 27.0279 27.4741C30.4064 27.4741 33.5299 26.1992 35.8246 24.0956C37.482 26.7729 40.4143 28.5578 43.7928 28.5578C49.02 28.5578 53.2271 24.3505 53.2271 19.1235C53.2271 13.8964 49.1474 9.62548 43.9203 9.62548Z" fill="url(#paint3_linear_4135_28497)"/>
<path d="M14.9163 18.4224C14.9163 18.4224 13.8964 20.9721 10.3267 21.4821C6.11951 22.0558 2.67727 20.0798 1.46611 16.2551C1.21113 17.1474 1.0199 18.0399 1.0199 19.0597C1.0199 24.2869 5.22707 28.494 10.4542 28.494C14.0239 28.494 17.1474 26.4541 18.741 23.5219C17.5299 22.9482 15.3626 19.5697 14.9163 18.4224Z" fill="#B5A1FF"/>
<path d="M39.6494 20.0158C39.6494 20.0158 41.3067 22.6294 43.9203 22.8207C49.2749 23.2669 52.2072 19.9521 52.9083 16.1911C53.1633 17.0836 53.3546 17.976 53.3546 18.996C53.3546 24.223 49.1474 28.4302 43.9203 28.4302C40.3506 28.4302 37.227 26.3904 35.6334 23.4582C36.8447 22.9482 39.0756 21.0996 39.6494 20.0158Z" fill="#B5A1FF"/>
<path d="M38.3109 19.506C36.781 24.2868 32.2551 27.7929 26.9643 27.7929C20.3985 27.7929 15.0439 22.4382 15.0439 15.8725C15.0439 11.4104 17.53 7.52193 21.0997 5.48208C19.9522 7.20319 19.3149 9.30679 19.3149 11.4741C19.3149 17.6574 24.2869 22.6294 30.4702 22.6294C33.5299 22.6294 36.271 21.4183 38.3109 19.506Z" fill="url(#paint4_linear_4135_28497)"/>
<path fill-rule="evenodd" clip-rule="evenodd" d="M27.0915 1.91235C20.3586 1.91235 14.9161 7.40651 14.9161 14.1514C14.9161 20.8902 20.4163 26.3904 27.1552 26.3904C31.7043 26.3904 35.6664 23.9112 37.7991 20.1791C38.0611 19.7205 38.6452 19.5612 39.1036 19.8232C39.5622 20.0851 39.7215 20.6693 39.4594 21.1278C37.0026 25.4274 32.4228 28.3027 27.1552 28.3027C19.3602 28.3027 13.0038 21.9464 13.0038 14.1514C13.0038 6.36243 19.2904 0 27.0915 0C34.1337 0 39.945 5.1283 41.0391 11.83C41.1241 12.3512 40.7706 12.8427 40.2495 12.9277C39.7282 13.0128 39.2368 12.6593 39.1518 12.1381C38.206 6.34581 33.1807 1.91235 27.0915 1.91235Z" fill="#7333FF"/>
<path fill-rule="evenodd" clip-rule="evenodd" d="M14.9146 19.4262C15.3812 19.1787 15.96 19.3564 16.2074 19.8229C18.2804 23.7319 22.3622 26.3904 27.0917 26.3904C31.8213 26.3904 35.9031 23.7319 37.9761 19.8229C38.2234 19.3564 38.8021 19.1787 39.2688 19.4262C39.7353 19.6735 39.9129 20.2522 39.6655 20.7189C37.2763 25.2241 32.5614 28.3027 27.0917 28.3027C21.6221 28.3027 16.9071 25.2241 14.5179 20.7189C14.2705 20.2522 14.4481 19.6735 14.9146 19.4262Z" fill="#7333FF"/>
<path fill-rule="evenodd" clip-rule="evenodd" d="M13.8192 9.30786C15.8283 3.89044 21.0329 0.0637207 27.0917 0.0637207C33.2064 0.0637207 38.3516 3.88445 40.3583 9.29046C41.4885 8.87523 42.6876 8.6693 43.9203 8.6693C49.7007 8.6693 54.1833 13.3939 54.1833 19.1235C54.1833 24.8787 49.548 29.5138 43.7928 29.5138C40.4616 29.5138 37.5263 27.9392 35.6391 25.503C33.2723 27.344 30.2558 28.4303 27.0279 28.4303C23.7833 28.4303 20.8715 27.3337 18.4938 25.5476C16.6037 27.9885 13.6651 29.5138 10.3904 29.5138C4.63527 29.5138 0 24.8787 0 19.1235C0 13.3683 4.63527 8.73305 10.3904 8.73305C11.61 8.73305 12.7543 8.93454 13.8192 9.30786ZM27.0917 1.97607C21.5364 1.97607 16.8042 5.6996 15.3254 10.8457L15.0144 11.9277L13.9971 11.4458C12.9123 10.932 11.7134 10.6454 10.3904 10.6454C5.69142 10.6454 1.91235 14.4245 1.91235 19.1235C1.91235 23.8225 5.69142 27.6015 10.3904 27.6015C13.3656 27.6015 15.9942 26.0591 17.4818 23.6561L18.0722 22.7025L18.9203 23.4361C21.1224 25.3407 23.901 26.5179 27.0279 26.5179C30.1655 26.5179 33.059 25.3338 35.1786 23.3907L36.0299 22.6104L36.6377 23.5923C38.1302 26.0033 40.7631 27.6015 43.7928 27.6015C48.4919 27.6015 52.271 23.8225 52.271 19.1235C52.271 14.3989 48.5942 10.5816 43.9203 10.5816C42.5949 10.5816 41.3399 10.8692 40.2045 11.4369L39.1757 11.9513L38.858 10.8457C37.3784 5.69691 32.7078 1.97607 27.0917 1.97607Z" fill="#7333FF"/>
<path fill-rule="evenodd" clip-rule="evenodd" d="M2.6417 13.7036C3.10021 13.9656 3.25951 14.5497 2.9975 15.0082C2.32129 16.1916 1.97608 17.5558 1.97608 18.996C1.97608 23.695 5.75515 27.4741 10.4542 27.4741C13.2539 27.4741 15.7152 26.1053 17.2674 23.9781C17.5788 23.5517 18.1768 23.4582 18.6034 23.7695C19.03 24.0807 19.1235 24.6789 18.8122 25.1055C16.9222 27.6954 13.9014 29.3865 10.4542 29.3865C4.69898 29.3865 0.0637207 24.7512 0.0637207 18.996C0.0637207 17.2488 0.48345 15.5533 1.33711 14.0594C1.59911 13.6009 2.1832 13.4417 2.6417 13.7036Z" fill="#7333FF"/>
<path fill-rule="evenodd" clip-rule="evenodd" d="M51.7328 13.7036C52.1913 13.4417 52.7754 13.6009 53.0373 14.0594C53.891 15.5533 54.3108 17.2488 54.3108 18.996C54.3108 24.7512 49.6755 29.3865 43.9203 29.3865C40.473 29.3865 37.4523 27.6954 35.5623 25.1055C35.2511 24.6789 35.3445 24.0807 35.771 23.7695C36.1976 23.4582 36.7958 23.5517 37.107 23.9781C38.6592 26.1053 41.1206 27.4741 43.9203 27.4741C48.6194 27.4741 52.3985 23.695 52.3985 18.996C52.3985 17.5558 52.0532 16.1916 51.377 15.0082C51.1149 14.5497 51.2742 13.9656 51.7328 13.7036Z" fill="#7333FF"/>
<path fill-rule="evenodd" clip-rule="evenodd" d="M27.9078 37.1371C28.0983 36.9543 28.401 36.9606 28.5839 37.1509L30.1106 38.7414C30.9948 39.6297 30.9936 41.1406 30.1068 42.0273C29.3237 42.8106 28.0533 42.9028 27.1553 42.3043C26.2572 42.9028 24.9869 42.8106 24.2037 42.0273C23.3157 41.1394 23.3157 39.6255 24.2037 38.7376L25.7973 37.144C25.9841 36.9573 26.2868 36.9573 26.4734 37.144C26.6601 37.3308 26.6601 37.6335 26.4734 37.8201L24.8798 39.4138C24.3653 39.9283 24.3653 40.8367 24.8798 41.3512C25.3943 41.8657 26.3027 41.8657 26.8172 41.3512L27.1553 41.0131L27.4934 41.3512C28.0079 41.8657 28.9163 41.8657 29.4308 41.3512C29.9453 40.8367 29.9453 39.9283 29.4308 39.4138L29.4273 39.4104L27.894 37.8132C27.7112 37.6227 27.7173 37.32 27.9078 37.1371Z" fill="#7333FF"/>
<path fill-rule="evenodd" clip-rule="evenodd" d="M27.219 30.5564C28.1171 29.9577 29.3874 30.0501 30.1706 30.8333C31.0586 31.7213 31.0586 33.2351 30.1706 34.1229L28.577 35.7167C28.3904 35.9033 28.0877 35.9033 27.9009 35.7167C27.7142 35.5299 27.7142 35.2272 27.9009 35.0405L29.4945 33.4469C30.009 32.9324 30.009 32.024 29.4945 31.5095C28.98 30.995 28.0716 30.995 27.5571 31.5095L27.219 31.8474L26.8809 31.5095C26.3664 30.995 25.458 30.995 24.9435 31.5095C24.429 32.024 24.429 32.9324 24.9435 33.4469L24.947 33.4503L26.4803 35.0475C26.6631 35.2379 26.657 35.5406 26.4665 35.7234C26.276 35.9063 25.9733 35.9001 25.7904 35.7096L24.2637 34.1193C23.3795 33.2309 23.3808 31.7199 24.2675 30.8333C25.0506 30.0501 26.321 29.9577 27.219 30.5564Z" fill="#7333FF"/>
<path fill-rule="evenodd" clip-rule="evenodd" d="M24.8762 33.5069L26.4665 35.0337C26.657 35.2166 26.6631 35.5191 26.4802 35.7096C26.2974 35.9001 25.9947 35.9063 25.8042 35.7234L24.2071 34.1901L24.2037 34.1867C23.6892 33.6722 22.7808 33.6722 22.2663 34.1867C21.7518 34.7012 21.7518 35.6097 22.2663 36.1241L22.6042 36.4622L22.2663 36.8003C21.7518 37.3148 21.7518 38.2232 22.2663 38.7377C22.7808 39.2522 23.6892 39.2522 24.2037 38.7377L24.2071 38.7342L25.8042 37.2009C25.9947 37.0181 26.2974 37.0244 26.4802 37.2147C26.6631 37.4052 26.657 37.7079 26.4665 37.8908L24.8762 39.4175C23.9877 40.3017 22.4767 40.3005 21.5901 39.4139C20.8069 38.6306 20.7145 37.3602 21.313 36.4622C20.7145 35.5641 20.8069 34.2938 21.5901 33.5106C22.4767 32.624 23.9877 32.6228 24.8762 33.5069Z" fill="#7333FF"/>
<path fill-rule="evenodd" clip-rule="evenodd" d="M29.4981 33.5069C30.3866 32.6228 31.8975 32.624 32.7842 33.5106C33.5675 34.2938 33.6597 35.5641 33.0612 36.4622C33.6597 37.3602 33.5675 38.6306 32.7842 39.4139C31.8963 40.3017 30.3824 40.3017 29.4945 39.4139L27.9009 37.8201C27.7142 37.6335 27.7142 37.3308 27.9009 37.1441C28.0877 36.9573 28.3904 36.9573 28.577 37.1441L30.1706 38.7377C30.6851 39.2522 31.5936 39.2522 32.1081 38.7377C32.6226 38.2232 32.6226 37.3148 32.1081 36.8003L31.77 36.4622L32.1081 36.1241C32.6226 35.6097 32.6226 34.7012 32.1081 34.1867C31.5936 33.6722 30.6851 33.6722 30.1706 34.1867L30.1671 34.1901L28.5701 35.7234C28.3796 35.9063 28.0769 35.9001 27.894 35.7096C27.7112 35.5191 27.7173 35.2166 27.9078 35.0337L29.4981 33.5069Z" fill="#7333FF"/>
<path fill-rule="evenodd" clip-rule="evenodd" d="M115.123 31.0185C114.034 32.3336 112.75 33.3368 111.27 34.0251C109.791 34.7135 108.136 35.0577 106.307 35.0577C104.663 35.0577 103.138 34.7597 101.73 34.1637C100.322 33.5679 99.1049 32.7561 98.0774 31.7286C97.0499 30.7013 96.2382 29.4837 95.6423 28.076C95.0463 26.6672 94.7483 25.1529 94.7483 23.5281C94.7483 21.9048 95.0463 20.3906 95.6423 18.983C96.2382 17.574 97.0499 16.3578 98.0774 15.329C99.1049 14.3015 100.322 13.4898 101.73 12.8939C103.138 12.2979 104.663 12 106.307 12C108.075 12 109.631 12.3082 110.977 12.9247C112.323 13.5412 113.52 14.4351 114.568 15.6077L111.64 18.4422C110.982 17.6819 110.227 17.0769 109.374 16.6248C108.522 16.1715 107.51 15.9468 106.338 15.9468C105.311 15.9468 104.345 16.1265 103.442 16.4862C102.538 16.8458 101.752 17.3544 101.084 18.012C100.416 18.6696 99.887 19.4658 99.4965 20.3996C99.1061 21.3359 98.9109 22.3775 98.9109 23.5281C98.9109 24.6789 99.1061 25.7231 99.4965 26.6582C99.887 27.5945 100.416 28.3895 101.084 29.0469C101.752 29.7045 102.538 30.2132 103.442 30.5729C104.346 30.9324 105.312 31.1123 106.338 31.1123C107.571 31.1123 108.667 30.8618 109.622 30.357C110.578 29.8536 111.425 29.1408 112.165 28.2147L115.123 31.0185ZM147.746 31.6851C147.087 32.9591 146.168 34.002 144.987 34.8137C143.806 35.6267 142.332 36.0312 140.565 36.0312C139.394 36.0312 138.32 35.8308 137.343 35.4302C136.367 35.0282 135.524 34.4696 134.815 33.749C134.106 33.0297 133.551 32.1821 133.151 31.2072C132.75 30.2325 132.55 29.1575 132.55 27.9861C132.55 26.8149 132.75 25.736 133.151 24.7484C133.551 23.762 134.106 22.9143 134.815 22.2066C135.524 21.4964 136.367 20.9429 137.343 20.5421C138.32 20.1401 139.394 19.9398 140.565 19.9398C142.311 19.9398 143.781 20.3418 144.973 21.1433C146.165 21.9446 147.038 22.9824 147.593 24.2565L143.894 25.7976C143.545 25.0989 143.098 24.5699 142.553 24.2102C142.009 23.8506 141.326 23.6708 140.504 23.6708C139.968 23.6708 139.464 23.7735 138.992 23.979C138.519 24.1845 138.104 24.4722 137.744 24.8421C137.383 25.212 137.101 25.664 136.896 26.1983C136.69 26.7326 136.588 27.3285 136.588 27.9875C136.588 28.6451 136.69 29.241 136.896 29.7753C137.101 30.3095 137.384 30.7629 137.744 31.1328C138.103 31.5014 138.519 31.7903 138.992 31.9946C139.464 32.2013 139.968 32.3028 140.504 32.3028C141.345 32.3028 142.059 32.114 142.645 31.7339C143.232 31.3524 143.698 30.8027 144.048 30.0848L147.746 31.6851ZM149.495 35.538V20.4329H153.533V35.538H149.495ZM151.499 18.3999C151.151 18.3999 150.818 18.333 150.498 18.2007C150.18 18.0672 149.901 17.8823 149.666 17.6447C149.43 17.4084 149.245 17.136 149.111 16.8279C148.978 16.5197 148.911 16.1805 148.911 15.8106C148.911 15.4407 148.978 15.1016 149.111 14.7934C149.245 14.4851 149.43 14.2129 149.666 13.9766C149.902 13.739 150.18 13.5553 150.498 13.4205C150.818 13.2869 151.151 13.2213 151.499 13.2213C152.22 13.2213 152.835 13.4731 153.348 13.9766C153.863 14.48 154.119 15.0913 154.119 15.8106C154.119 16.5311 153.863 17.1413 153.348 17.6447C152.835 18.1481 152.219 18.3999 151.499 18.3999ZM181.335 29.4041C180.863 29.178 180.375 28.9982 179.871 28.8647C179.367 28.731 178.818 28.6643 178.223 28.6643C177.257 28.6643 176.511 28.8749 175.988 29.2961C175.463 29.7174 175.202 30.2363 175.202 30.8528C175.202 31.4693 175.454 31.9625 175.956 32.3324C176.462 32.7023 177.042 32.8872 177.698 32.8872C178.233 32.8872 178.725 32.7908 179.178 32.5943C179.63 32.3991 180.014 32.141 180.332 31.8237C180.651 31.5053 180.897 31.1354 181.073 30.714C181.247 30.2928 181.335 29.8575 181.335 29.4041ZM181.335 33.9351H181.089C180.617 34.5105 180.045 35.0037 179.378 35.4134C178.71 35.8244 177.852 36.03 176.804 36.03C176.025 36.03 175.289 35.9015 174.6 35.6447C173.912 35.3877 173.31 35.0321 172.797 34.5813C172.284 34.1292 171.882 33.5846 171.596 32.9475C171.308 32.3118 171.164 31.6118 171.164 30.8514C171.164 30.0719 171.318 29.3669 171.626 28.74C171.933 28.1133 172.364 27.5739 172.92 27.1218C173.475 26.6684 174.126 26.3255 174.876 26.0879C175.626 25.8516 176.445 25.7348 177.327 25.7348C178.313 25.7348 179.126 25.8117 179.762 25.9659C180.399 26.12 180.921 26.2793 181.334 26.4437V25.9812C181.334 25.1798 181.016 24.5172 180.378 23.9931C179.742 23.4692 178.95 23.2071 178.005 23.2071C176.607 23.2071 175.427 23.7927 174.459 24.9641L171.533 22.9605C173.135 20.9466 175.323 19.9385 178.098 19.9385C180.44 19.9385 182.228 20.4894 183.461 21.5876C184.694 22.6869 185.309 24.3155 185.309 26.4732V35.5368H181.332V33.9351H181.335ZM155.373 35.538H159.339V27.1013C159.339 25.361 160.779 23.9211 162.521 23.9211C164.262 23.9211 165.702 25.3596 165.702 27.1013V35.538H169.671V27.1013C169.671 23.1686 166.454 19.9539 162.522 19.9539C158.589 19.9539 155.375 23.1699 155.375 27.1013V35.538H155.373ZM116.386 19.4594H120.354V27.8963C120.354 29.6378 121.793 31.0775 123.536 31.0775C125.276 31.0775 126.716 29.6378 126.716 27.8963V19.4594H130.683V27.8963C130.683 31.8288 127.467 35.0448 123.536 35.0448C119.603 35.0448 116.387 31.8276 116.387 27.8963L116.386 19.4594Z" fill="white"/>
<path fill-rule="evenodd" clip-rule="evenodd" d="M89.2355 28.4294C88.7628 28.2033 88.2747 28.0235 87.7712 27.8898C87.2677 27.7563 86.718 27.6894 86.1222 27.6894C85.1564 27.6894 84.4115 27.9002 83.8874 28.3214C83.3634 28.7426 83.1014 29.2616 83.1014 29.8781C83.1014 30.4946 83.3531 30.9876 83.8566 31.3575C84.36 31.7274 84.9405 31.9124 85.5981 31.9124C86.1324 31.9124 86.6256 31.8161 87.0777 31.6196C87.5298 31.4231 87.9152 31.1663 88.2336 30.849C88.5521 30.5304 88.7987 30.1605 88.9734 29.7393C89.1468 29.318 89.2355 28.8827 89.2355 28.4294ZM89.2355 32.9604H88.9887C88.5162 33.5358 87.9459 34.029 87.2781 34.4387C86.6101 34.8497 85.7523 35.0552 84.7043 35.0552C83.9234 35.0552 83.1887 34.9268 82.5003 34.6698C81.812 34.413 81.2108 34.0574 80.6972 33.6065C80.1834 33.1544 79.7826 32.6099 79.4949 31.9728C79.2072 31.337 79.0634 30.6371 79.0634 29.8767C79.0634 29.0972 79.2176 28.392 79.5258 27.7653C79.8341 27.1385 80.2656 26.5991 80.8204 26.147C81.3753 25.6937 82.0277 25.3508 82.7778 25.1132C83.5278 24.8768 84.3446 24.7599 85.2282 24.7599C86.2146 24.7599 87.0263 24.837 87.6633 24.9911C88.3004 25.1453 88.8245 25.3046 89.2355 25.469V25.0065C89.2355 24.2051 88.9169 23.5424 88.2798 23.0184C87.6427 22.4943 86.8517 22.2324 85.9064 22.2324C84.509 22.2324 83.3274 22.818 82.3616 23.9894L79.4333 21.9858C81.0362 19.9719 83.2247 18.9638 85.9989 18.9638C88.3415 18.9638 90.1293 19.5147 91.3623 20.6129C92.5951 21.7122 93.2117 23.3408 93.2117 25.4984V34.562H89.2355V32.9604ZM64.44 12.4932H68.6012V30.6179H77.9409V34.5633H64.44V12.4932Z" fill="#00E093"/>
<defs>
<linearGradient id="paint0_linear_4135_28497" x1="27.185" y1="56.8101" x2="26.7609" y2="4.18643" gradientUnits="userSpaceOnUse">
<stop offset="0.1817" stop-color="white"/>
<stop offset="0.4322" stop-color="#EBE6FF"/>
<stop offset="0.9627" stop-color="#B9A6FF"/>
<stop offset="1" stop-color="#B5A1FF"/>
</linearGradient>
<linearGradient id="paint1_linear_4135_28497" x1="16.8651" y1="47.6176" x2="15.0103" y2="24.936" gradientUnits="userSpaceOnUse">
<stop stop-color="white"/>
<stop offset="1" stop-color="#B5A1FF"/>
</linearGradient>
<linearGradient id="paint2_linear_4135_28497" x1="37.8656" y1="46.7586" x2="39.1905" y2="24.4479" gradientUnits="userSpaceOnUse">
<stop stop-color="white"/>
<stop offset="1" stop-color="#B5A1FF"/>
</linearGradient>
<linearGradient id="paint3_linear_4135_28497" x1="27.1907" y1="-3.34601" x2="27.1907" y2="37.1469" gradientUnits="userSpaceOnUse">
<stop offset="0.1161" stop-color="white"/>
<stop offset="0.2704" stop-color="#F8F7FF"/>
<stop offset="0.5145" stop-color="#E7E0FF"/>
<stop offset="0.8159" stop-color="#C9BBFF"/>
<stop offset="1" stop-color="#B5A1FF"/>
</linearGradient>
<linearGradient id="paint4_linear_4135_28497" x1="15.0132" y1="16.6038" x2="38.2801" y2="16.6038" gradientUnits="userSpaceOnUse">
<stop offset="0.6281" stop-color="#B5A1FF"/>
<stop offset="1" stop-color="#B5A1FF"/>
</linearGradient>
</defs>
</svg>
