<svg id="Layer_1" data-name="Layer 1" xmlns="http://www.w3.org/2000/svg" viewBox="0 0 935.62 935.62"><path fill='#F5F5F5' d="M869.63,228.13a468.28,468.28,0,1,0,66,239.68A469.95,469.95,0,0,0,869.63,228.13ZM868.5,480.2a128,128,0,0,1-22.68,56.71A117.12,117.12,0,0,1,832,552.83a115.72,115.72,0,0,1-12.44,11.09c-9.79,7.77-23.24,14.92-36.5,19.42a126.49,126.49,0,0,1-29.88,6.33,128.28,128.28,0,0,1-42.52-3.38l-3.91-1c-1.58-.39-5.07-1.52-7.32-2.36-1.32-.51-3-1.13-3.8-1.41a147.88,147.88,0,0,1-20.31-10A127.45,127.45,0,0,1,656,556.89a168,168,0,0,1-13.31-14c-2.47-3.1-4.08-4.5-8.61-7.51a65.32,65.32,0,0,0-24.42-10.33,67.14,67.14,0,0,0-42.33,5.49,61.39,61.39,0,0,0-17.44,12.49c-12.19,12.21-18.49,26.14-19.62,43.25a44.82,44.82,0,0,0,.17,9.71,62.18,62.18,0,0,0,6.81,23.75,70,70,0,0,0,16.94,21.61,6.73,6.73,0,0,1,1.75,1.91,45.31,45.31,0,0,0,4.87,5.27,127.34,127.34,0,0,1,36.77,74.62c1.13,8.5,1.05,24.74-.14,32.37-.19,1.37-.59,3.85-.81,5.48a140,140,0,0,1-8.75,29.38,129.18,129.18,0,0,1-27.19,39.43c-14.91,14.57-30.25,24.06-49.5,30.61A128.17,128.17,0,0,1,474,867a138.18,138.18,0,0,1-35.18-4l-4.19-1.12c-2.05-.57-5-1.58-9.74-3.35A126.49,126.49,0,0,1,387.05,836a154.87,154.87,0,0,1-19.22-20.77c-1.27-1.69-5.8-8.5-7.43-11.14a133.2,133.2,0,0,1-12.33-28.34c-4-13.45-6-29.6-5.23-42.46,1-17.14,4.33-31.55,10.58-45.56a126.23,126.23,0,0,1,25.78-38,37.51,37.51,0,0,0,3.74-4.22,4.7,4.7,0,0,1,1.52-1.61,99,99,0,0,0,9.59-9.79A101,101,0,0,0,401.34,623,69.31,69.31,0,0,0,408,600.79a85.36,85.36,0,0,0-.39-19.7A69,69,0,0,0,394,551.26a101,101,0,0,0-9.8-9.85,70.09,70.09,0,0,0-14.6-9.15,66.5,66.5,0,0,0-24.9-5.82,64.71,64.71,0,0,0-30.17,5.94c-8.64,4-16.46,9.68-21,15.39a134.71,134.71,0,0,1-19.59,19.64,132.24,132.24,0,0,1-25.75,16.13l-4.5,2.05c-8.07,3.69-19.95,7.06-30.25,8.61a127.75,127.75,0,0,1-51.49-2.45,125.32,125.32,0,0,1-31.13-12.58c-9.73-5.31-18-11.65-27.15-20.74-12.36-12.29-19.28-22.25-26.91-38.83a123.32,123.32,0,0,1-9.9-36l0-.27a106.5,106.5,0,0,1-.7-24.15c.18-2.49.4-4.89.68-7.22A116.8,116.8,0,0,1,74.61,421,130.32,130.32,0,0,1,96.16,385a145,145,0,0,1,21.3-19.87,153.07,153.07,0,0,1,20.18-12.24,140.33,140.33,0,0,1,23.16-8.55c1.32-.34,2.95-.79,3.66-1a29,29,0,0,1,3.09-.67l6.7-1.13c10.86-1.91,27.72-1.91,39.62,0A124.41,124.41,0,0,1,251,353.57c3.88,1.95,7.79,4.06,8.72,4.68s2.25,1.46,3,1.85c1.38.79,6.47,4.39,9.11,6.42,4.59,3.52,7.77,6.44,15.37,14,10.27,10.3,12.07,11.79,20.06,16.6,5.86,3.52,14.66,6.5,23,7.83a85.81,85.81,0,0,0,18.55,0,67,67,0,0,0,34.44-15.82,95.21,95.21,0,0,0,10.72-11.82,64.53,64.53,0,0,0,9.46-20.15,65.53,65.53,0,0,0,2.45-17.27,57.07,57.07,0,0,0-1.5-15.9,67.11,67.11,0,0,0-21.61-35.23A138.08,138.08,0,0,1,358,261c-10.89-16.74-16.86-33.17-20-54.84-.57-3.91-.62-5.52-.62-15.48,0-11.62.11-13.34,1.4-20.93,3.83-22.77,13.34-43.2,28.79-61.8C380,93,399.74,78.9,418,72a125.75,125.75,0,0,1,38.13-8.64l2.49-.16a81.17,81.17,0,0,1,11.43-.07l1.14.06a125.18,125.18,0,0,1,27.71,4.36,128.23,128.23,0,0,1,45.87,23.36,166.11,166.11,0,0,1,16.72,16A126.52,126.52,0,0,1,590.33,165c1.83,8.59,2.22,13,2.25,25.33,0,7.29-.08,11.85-.34,13.93a132.57,132.57,0,0,1-7.51,31.38c-.56,1.46-1.27,3.37-1.57,4.22-1.21,3.37-6.48,13.62-9.49,18.43A127.35,127.35,0,0,1,560,276.47c-1.5,1.63-3.38,3.8-4.23,4.81a32.6,32.6,0,0,1-3.88,3.77,69.35,69.35,0,0,0-17.19,21.39,51.25,51.25,0,0,0-4.08,9.85,60.67,60.67,0,0,0-3.07,21.38,65.4,65.4,0,0,0,9,32,58.89,58.89,0,0,0,14.52,17.53c7.09,6,12.89,9.17,22.37,12.38a60.28,60.28,0,0,0,20.74,3.29c15.08,0,28.05-4.5,40.41-13.84,3.15-2.39,5.74-4.93,10.07-9.88,11.6-13.2,22.54-22,37.46-30a126.37,126.37,0,0,1,31.51-11.63c1.55-.33,3.58-.76,4.51-1,1.6-.37,5.34-.9,11-1.58a179.89,179.89,0,0,1,21.53-.28c25.41,1.63,49.47,10.84,70.32,27a156.66,156.66,0,0,1,15.76,14.72c11.11,12.18,20.82,28.33,25.86,43.08a120.31,120.31,0,0,1,7.07,42.1A135.3,135.3,0,0,1,868.5,480.2Z" transform="translate(0 0)"/><path fill='#F5F5F5' d="M459.94,118a70.91,70.91,0,0,0-16.74,3.1A63.74,63.74,0,0,0,425.27,129a76.37,76.37,0,0,0-24.36,23.91,75.51,75.51,0,0,0-11.49,32,93.25,93.25,0,0,0,.15,18.15,77.49,77.49,0,0,0,17.5,39.82,72.74,72.74,0,0,0,18.29,15.64,75.63,75.63,0,0,0,92.55-10.63,74.94,74.94,0,0,0,22.26-45.11,92.07,92.07,0,0,0,0-19.14,76.62,76.62,0,0,0-16.07-37.42,85.82,85.82,0,0,0-17.61-15.93,102.15,102.15,0,0,0-13.09-6.87,86,86,0,0,0-13.23-4A82.75,82.75,0,0,0,459.94,118Zm13.93,24.71a57.61,57.61,0,0,1,17.87,6.73,54.73,54.73,0,0,1,16.83,16.46,51.75,51.75,0,0,1,2.73,50.62,46.93,46.93,0,0,1-11.65,15.59,49.87,49.87,0,0,1-27.61,13,69.35,69.35,0,0,1-15.33-.15,53,53,0,0,1-21.11-8.47A63.81,63.81,0,0,1,422.18,223a54,54,0,0,1-8.44-21.53,64.21,64.21,0,0,1,.14-17.08,51.61,51.61,0,0,1,12.35-25c4.95-5.26,7.26-7.2,11.54-9.79a57.52,57.52,0,0,1,22.17-7.45A91.68,91.68,0,0,1,473.87,142.7Z" transform="translate(0 0)"/><path fill='#F5F5F5' d="M738.11,389.24c-.54.05-2.45.25-4.22.39a75.77,75.77,0,0,0-56.68,35.48,84.1,84.1,0,0,0-9,21,76.56,76.56,0,0,0,2.25,44.71,83.4,83.4,0,0,0,12.89,22.68,78,78,0,0,0,14,13.06,75.66,75.66,0,0,0,34.47,13.79,103.53,103.53,0,0,0,18.85.17c13-1.86,23-5.52,32.73-12a64.85,64.85,0,0,0,12.38-10.24c3.74-3.77,9.2-10.53,10.38-12.84.23-.47,1-1.77,1.69-2.89a82.55,82.55,0,0,0,5.55-12.16,77.26,77.26,0,0,0-.12-51.27c-6.64-18-20.43-33.55-37-41.62-11.88-5.8-20.35-7.91-32.78-8.27C741.06,389.18,738.64,389.18,738.11,389.24Zm11.4,24.7c11.39,1.83,19.24,5.69,27.88,13.68a52.29,52.29,0,0,1,12.33,17.64c4.84,11.34,5.06,26.37.53,37.91-6.41,16.4-19.39,28-36,32.22a55.21,55.21,0,0,1-25,0,56,56,0,0,1-15.64-6.87,51.22,51.22,0,0,1-23.45-40.15,50.27,50.27,0,0,1,7-29.66,41.17,41.17,0,0,1,6.87-9,48.85,48.85,0,0,1,15.76-11.48A53.14,53.14,0,0,1,736,413.58,71.12,71.12,0,0,1,749.51,413.94Z" transform="translate(0 0)"/><path fill='#F5F5F5' d="M189.52,394.86c-.62.06-2.59.26-4.37.4a76.07,76.07,0,0,0-65,55.29c-3,10.27-3.32,23.92-.84,35.74a72,72,0,0,0,12.46,28.37,56.72,56.72,0,0,0,7.49,9A75.47,75.47,0,0,0,173.9,544a78.38,78.38,0,0,0,26.56,2.28c6.28-.59,9.82-1.33,17.62-3.69,6.81-2,15.31-6.72,22.31-12.35a77.26,77.26,0,0,0,20.94-25.36,75.14,75.14,0,0,0,8.05-34.47,70.19,70.19,0,0,0-7.82-33.34,75.85,75.85,0,0,0-26.77-30.14,112.63,112.63,0,0,0-13.47-7A80.55,80.55,0,0,0,203,395.4,112.16,112.16,0,0,0,189.52,394.86Zm10.18,24.46a42.54,42.54,0,0,1,9.51,2,54.29,54.29,0,0,1,22.69,14.54,51.59,51.59,0,0,1,12.94,27.5,68.17,68.17,0,0,1-.11,14.91,50.28,50.28,0,0,1-4.81,15.34,52.38,52.38,0,0,1-24.2,23.78,50.58,50.58,0,0,1-23.92,5,51.25,51.25,0,0,1-30.4-11.15,38.57,38.57,0,0,1-7.2-7,43.31,43.31,0,0,1-6.84-10.33,48.22,48.22,0,0,1-5.15-16.46,52.12,52.12,0,0,1,.88-18.44,51.62,51.62,0,0,1,42.35-39.36A48,48,0,0,1,199.7,419.32Z" transform="translate(0 0)"/><path fill='#F5F5F5' d="M467.4,666.11c-.39,0-2.48.25-4.64.42a70.47,70.47,0,0,0-22.09,5.68A75.88,75.88,0,0,0,426.2,803.63a104.11,104.11,0,0,0,9.82,6.08c2,1,7,3,9.85,4.08,4.62,1.63,6.62,2.11,14.78,3.49,3.37.59,15,.67,18.71.14,15.17-2.11,27.24-7.15,38.27-16a111.66,111.66,0,0,0,13.71-14.1,68,68,0,0,0,9-16,76.06,76.06,0,0,0-1.66-62.61,77.19,77.19,0,0,0-25-29.18,78.88,78.88,0,0,0-34.44-13A105.57,105.57,0,0,0,467.4,666.11Zm11.4,24.76a48.31,48.31,0,0,1,9.85,2.62c14.35,5.2,26.25,17.64,31.06,32.53A42.88,42.88,0,0,1,522,738.23c1,12.63-2.64,24.73-10.58,35.37a50.12,50.12,0,0,1-18.12,14.78,41.68,41.68,0,0,1-9.88,3.74,53.55,53.55,0,0,1-29.07-.93,69.57,69.57,0,0,1-12.44-6,51.71,51.71,0,0,1-8.16-79.67,43.7,43.7,0,0,1,10.36-8.13,56.08,56.08,0,0,1,20.79-6.92A73.27,73.27,0,0,1,478.8,690.87Z" transform="translate(0 0)"/></svg>