<svg xmlns="http://www.w3.org/2000/svg" width="400" height="400" fill="none"><circle cx="200" cy="200" r="200" fill="#131026"/><path fill="#00B4E6" d="M323 192.917H77v14.414h246z"/><path fill="#fff" d="M136.722 153.134c-5.093 5.237-11.579 7.88-19.555 7.88s-14.51-2.643-19.555-7.88c-5.093-5.237-7.64-11.771-7.64-19.651 0-7.832 2.547-14.366 7.592-19.603 5.093-5.237 11.579-7.88 19.555-7.88s14.51 2.643 19.555 7.88c5.093 5.237 7.592 11.771 7.592 19.603.048 7.88-2.499 14.414-7.544 19.651m-19.555-2.691c4.132 0 7.351-1.537 9.706-4.612s3.507-7.207 3.507-12.3c0-5.141-1.153-9.273-3.507-12.396s-5.574-4.661-9.706-4.661c-4.18 0-7.447 1.538-9.753 4.613s-3.46 7.207-3.46 12.444c0 5.141 1.153 9.225 3.46 12.3s5.525 4.612 9.753 4.612M150.704 176.485v-69.044h13.309v6.487h.288c3.844-5.285 8.937-7.928 15.327-7.928 6.823 0 12.3 2.546 16.432 7.591 4.132 5.093 6.198 11.676 6.198 19.892 0 8.408-2.066 15.038-6.198 20.035-4.132 4.949-9.561 7.448-16.336 7.448s-11.771-2.451-14.99-7.4h-.192v22.919zm26.09-26.955q5.26 0 8.36-4.18c2.066-2.786 3.075-6.582 3.075-11.483 0-5.189-.961-9.273-2.931-12.252s-4.949-4.468-9.033-4.468c-4.132 0-7.159 1.537-9.129 4.612s-2.931 7.111-2.931 12.108c0 4.805 1.057 8.601 3.267 11.387 2.163 2.883 5.238 4.276 9.322 4.276M233.056 160.966c-8.408 0-14.991-2.595-19.795-7.736-4.805-5.189-7.207-11.771-7.207-19.843 0-7.784 2.402-14.27 7.207-19.507s10.954-7.88 18.45-7.88c8.168 0 14.51 2.835 18.978 8.504 4.469 5.67 6.679 13.309 6.679 22.823h-37.669c.529 4.132 1.922 7.303 4.18 9.561 2.21 2.258 5.285 3.411 9.129 3.411 5.093 0 8.408-2.114 10.042-6.39h13.597c-1.009 4.853-3.603 8.937-7.687 12.156-4.181 3.315-9.466 4.901-15.904 4.901m-1.105-44.3c-6.679 0-10.714 3.7-12.06 11.147h23.111c-.192-3.315-1.298-6.006-3.364-8.072-2.017-2.066-4.564-3.075-7.687-3.075M277.307 107.441v7.111h.289q5.404-8.504 15.423-8.504c5.333 0 9.657 1.826 12.972 5.429 3.316 3.604 4.949 8.313 4.949 14.03v33.969h-13.789v-31.951c0-2.835-.817-5.141-2.403-6.919-1.585-1.777-3.795-2.642-6.63-2.642-3.027 0-5.574 1.105-7.543 3.363-2.018 2.21-2.979 5.093-2.979 8.6v29.501h-13.79v-51.987zM103.81 294.584c-8.024 0-14.51-2.595-19.363-7.832-4.853-5.189-7.303-11.771-7.303-19.699s2.402-14.462 7.159-19.699c4.757-5.189 11.05-7.832 18.834-7.832 6.535 0 11.916 1.73 16.048 5.189s6.679 8.072 7.591 13.886h-13.501c-.48-2.354-1.537-4.276-3.267-5.766-1.682-1.489-3.796-2.21-6.294-2.21-4.036 0-7.159 1.441-9.321 4.372s-3.267 6.919-3.267 12.06c0 5.093 1.057 9.081 3.123 12.012 2.114 2.931 5.189 4.42 9.225 4.42 6.006 0 9.513-2.931 10.426-8.841h13.309c-.481 5.766-2.787 10.475-7.015 14.27-4.132 3.748-9.609 5.67-16.384 5.67M177.466 286.704c-5.093 5.237-11.58 7.88-19.555 7.88-7.976 0-14.511-2.643-19.555-7.88-5.093-5.237-7.592-11.771-7.592-19.603 0-7.831 2.547-14.366 7.592-19.603 5.093-5.237 11.579-7.88 19.555-7.88s14.51 2.643 19.555 7.88c5.093 5.237 7.591 11.772 7.591 19.603s-2.546 14.366-7.591 19.603m-19.603-2.69c4.132 0 7.351-1.538 9.705-4.613s3.507-7.207 3.507-12.3c0-5.141-1.153-9.273-3.507-12.396s-5.573-4.66-9.705-4.66c-4.18 0-7.448 1.537-9.754 4.612s-3.459 7.207-3.459 12.444c0 5.141 1.153 9.225 3.459 12.3 2.354 3.075 5.574 4.613 9.754 4.613M203.748 293.046l-18.066-52.034h13.982l8.312 27.002 2.354 8.312h.192c.481-2.21 1.202-4.997 2.211-8.312l8.504-27.002h13.837l-18.161 52.034zM262.653 294.584c-8.408 0-14.99-2.595-19.795-7.736-4.805-5.189-7.207-11.771-7.207-19.843 0-7.783 2.402-14.27 7.207-19.507s10.955-7.88 18.45-7.88c8.168 0 14.51 2.835 18.978 8.505 4.469 5.669 6.679 13.309 6.679 22.822h-37.717c.529 4.132 1.922 7.303 4.18 9.561 2.21 2.258 5.285 3.412 9.129 3.412 5.093 0 8.408-2.114 10.042-6.391h13.597c-1.009 4.853-3.603 8.937-7.687 12.156-4.18 3.267-9.418 4.901-15.856 4.901m-1.105-44.347c-6.678 0-10.714 3.699-12.06 11.147h23.111c-.192-3.316-1.297-6.006-3.363-8.072-2.018-2.018-4.565-3.075-7.688-3.075M306.664 241.012v8.312h.288c1.634-3.027 3.411-5.285 5.381-6.727 1.97-1.441 4.421-2.162 7.4-2.162 1.441 0 2.498.144 3.267.384v12.06h-.289q-6.99-.72-11.243 3.027c-2.834 2.499-4.276 6.438-4.276 11.772v25.368h-13.789v-52.034z"/></svg>