<svg xmlns="http://www.w3.org/2000/svg" width="48" height="48" fill="none"><path fill="#F87171" d="M24 48c13.255 0 24-10.745 24-24S37.255 0 24 0 0 10.745 0 24s10.745 24 24 24"/><path fill="#fff" d="M23.908 18.289c-.53-.473-1.583-1.125-3.41-1.116-1.825.009-1.527.93-1.527.93s-.037.751 1.156.775c1.192.023 2.47.07 3.508.45s.804-.567.273-1.04M19.593 20.006c-.11.064-.138.247-.011.27.721.128 1.862.362 3.134.161.12-.019.103-.18.015-.263-.451-.432-1.663-1.038-3.138-.168"/><path fill="#fff" d="M34.596 32.094a.16.16 0 0 0-.15-.063.16.16 0 0 0-.126.102c-.742 2.16-1.35 1.63-1.63 1.166a2 2 0 0 1-.217-.525c-.708-2.759-.06-5.299-.06-5.299.386 1.174 1.397 1.522 1.915 1.624a.16.16 0 0 0 .159-.06.15.15 0 0 0 .012-.165c-1.984-3.806-.811-5.42-.811-5.42.341.372.904.406 1.26.386a.16.16 0 0 0 .082-.028.16.16 0 0 0 .065-.153.16.16 0 0 0-.038-.078c-1.439-1.553-1.548-2.08-1.604-4.712-.03-1.458-.554-2.225-1.04-2.624-.558-.457-1.002-1.038-1.245-1.71-1.94-5.337-5.57-6.042-8.94-5.842-4.181.248-6.408 3.38-7.465 4.941-1.118 1.65-1.989 4.09-1.93 4.837s.763.63.763 1.493-1.363 1.581-.827 4.008c.236 1.069 1.194 1.87.763 4.313-.77 4.39 2.668 9.723 3.524 10.519.104.095.287.018.268-.12-.134-.98.062-2.34.062-2.34 1.722 3.614 6.541 2.944 8.05 2.633a.16.16 0 0 0 .084-.045.153.153 0 0 0-.042-.244c-1.524-.792-1.872-2.401-1.872-2.401 1.516.702 2.488.585 2.956.434a.16.16 0 0 0 .107-.129.15.15 0 0 0-.073-.15c-.456-.28-1.152-1.439-1.68-2.573a2.67 2.67 0 0 1 .406-2.875c.617-.72 1.425-1.724 2.344-2.791.192-.225.46-.006.56.238 1.343 3.29 3.09 5.77 4.294 6.454.873.528 1.83.623 2.26.29 1.184-.913.245-2.491-.184-3.091m-14.537-3.062c-1.44.085-1.112-1.747-2.17-1.702-1.133.05-.794 1.446-1.554 1.531s-.671-2.051-.138-2.3c.84-.389 1.825-.482 2.613-.455.934.031 1.826-.004 2.245.875.496 1.036.444 1.968-.996 2.05m9.108-13.092c-1.915 1.114-2.028 1.664-2.302 3.623-.06.43-.122.934.08 1.219.454.642 1.318 1.118 1.08 2.204-.564 2.583-2.055 5.611-4.054 6.558-.24.113-.516-.117-.572-.372-.223-1.024-.754-2.885-.897-3.493-.712-3.48-4.104-3.529-4.2-2.863-.027.198.688.458 1.142.603.416.135.43.717.016.855a1.2 1.2 0 0 1-.337.053c-.838-.056-1.902.007-2.382.042a.66.66 0 0 1-.447-.133.63.63 0 0 1-.24-.392c-.187-1.065.144-1.447.545-2.459.2-.504.455-1.52.544-2.04.046-.28.026-.615-.004-.867a6 6 0 0 1-.042-.896c.028-.965.126-1.754.877-1.754 1.354 0 4.218.004 4.671-.647.476-.682-2.178-.02-5.03-.11a.23.23 0 0 1-.15-.062.22.22 0 0 1-.072-.142q-.001-.026-.005-.05a.35.35 0 0 1 .093-.27.36.36 0 0 1 .265-.117c1.523-.019 2.682-.122 2.987-.557.31-.444-1.23-.245-2.975-.229-.223 0-.408-.003-.397-.221v-.008a.35.35 0 0 1 .104-.23.36.36 0 0 1 .235-.103c1.026-.066 1.464-.143 1.507-.464s-.106-.289-1.24-.225c-.248.014-.177-.17-.037-.37.355-.51 1.939-1.983 5.444-1.875 6.004.187 5.815 4.35 5.998 5.36a.41.41 0 0 1-.205.432"/></svg>