<svg xmlns="http://www.w3.org/2000/svg" width="21" height="24"  fill-rule="evenodd" stroke-linejoin="round" stroke-miterlimit="2" clip-rule="evenodd" viewBox="0 0 14 16"><path fill="#ffac33" d="M.027 8.892c.032.083.088.155.161.206.073.051.161.078.25.078h5.287l-3.05 5.917c-.095.186-.045.415.119.544.077.06.173.094.271.093.105 0 .206-.037.286-.106l3.217-2.772 6.416-5.53c.067-.058.115-.136.138-.222.022-.086.017-.177-.014-.261-.031-.083-.087-.155-.16-.206-.074-.051-.161-.078-.25-.079H7.411l3.05-5.917c.095-.185.045-.414-.119-.543C10.265.033 10.169 0 10.071 0c-.105 0-.207.038-.286.106L6.568 2.879.152 8.408c-.068.059-.116.136-.138.223-.022.086-.018.177.013.261Z"/></svg>