<svg xmlns="http://www.w3.org/2000/svg" fill="none" viewBox="0 0 438 438"><mask id="a" width="438" height="438" x="0" y="0" maskUnits="userSpaceOnUse" style="mask-type:alpha"><circle cx="219" cy="219" r="200" stroke="#fff" stroke-width="37"/></mask><g mask="url(#a)"><path fill="#FAFAFA" d="M-158.758-209.188h755.514v856.377h-755.514z"/><path fill="url(#b)" d="M438.36 494.161c-64.173 440.96-296.39 715.549-518.671 613.309-222.281-102.23-350.453-542.583-286.28-983.544 64.173-440.96 296.39-715.549 518.671-613.312C374.361-387.148 502.533 53.201 438.36 494.161Z"/><path fill="url(#c)" d="M672.555 300.35C639.49 629.851 517.531 866.785 400.152 829.558c-117.379-37.228-185.729-334.519-152.664-664.02 33.066-329.501 155.025-566.436 272.404-529.208 117.379 37.227 185.729 334.519 152.663 664.02Z"/><path fill="url(#d)" d="M338.121 288.247c30.77 138.732-20.421 304.566-114.338 370.4S28.787 665.385-1.983 526.653c-30.77-138.733 20.42-304.566 114.338-370.401 93.917-65.834 194.996-6.738 225.766 131.995Z"/><path fill="url(#e)" d="M202.75 246.476C67.483 230.011-38.123 111.5-33.127-18.226-28.13-147.95 85.575-239.768 220.842-223.303 356.11-206.838 461.715-88.328 456.719 41.398 451.723 171.124 338.017 262.94 202.75 246.476Z"/></g><defs><radialGradient id="b" cx="0" cy="0" r="1" gradientTransform="rotate(98.28 -115.72 170.042) scale(806.84 424.939)" gradientUnits="userSpaceOnUse"><stop stop-color="#F04D42"/><stop offset="1" stop-color="#F04D42" stop-opacity="0"/></radialGradient><radialGradient id="c" cx="0" cy="0" r="1" gradientTransform="matrix(-59.86561 596.615 -217.11174 -21.78545 460.022 232.942)" gradientUnits="userSpaceOnUse"><stop stop-color="#5F5DF9"/><stop offset="1" stop-color="#5F5DF9" stop-opacity="0"/></radialGradient><radialGradient id="d" cx="0" cy="0" r="1" gradientTransform="matrix(55.71227 251.19805 -187.27826 41.53574 168.07 407.451)" gradientUnits="userSpaceOnUse"><stop stop-color="#F3D37E"/><stop offset="1" stop-color="#F3D37E" stop-opacity="0"/></radialGradient><radialGradient id="e" cx="0" cy="0" r="1" gradientTransform="rotate(-173.06 106.25 -.628) scale(246.731 234.262)" gradientUnits="userSpaceOnUse"><stop stop-color="#D478D8"/><stop offset="1" stop-color="#D478D8" stop-opacity="0"/></radialGradient></defs></svg>