<svg xmlns="http://www.w3.org/2000/svg" viewBox="0 0 1500 1500"><circle cx="750" cy="326.18" r="47.67"/><circle cx="750" cy="853.77" r="47.67"/><path d="M978.54,528.35l-35-35a46.83,46.83,0,0,1-14-34.08,47.67,47.67,0,1,0-95.31,0,46.79,46.79,0,0,1-14,34.08l-35,35a48.46,48.46,0,0,1-34.83,14,47.67,47.67,0,0,0-48.09,48.09,48.38,48.38,0,0,1-14,34.82l-35,35a49,49,0,0,1-35.1,14h-.37a48.9,48.9,0,0,1-35-14l-35-35a49,49,0,0,1-14-35.05v-.39a49,49,0,0,1,14-35l35-35a46.86,46.86,0,0,1,34.08-14,47.67,47.67,0,1,0-46.49-47.23,48.5,48.5,0,0,1-14,34.83l-35,35a46.81,46.81,0,0,1-34.08,14,47.67,47.67,0,1,0,0,95.31,46.85,46.85,0,0,1,34.08,14l35,35a46.83,46.83,0,0,1,14,34.08,47.67,47.67,0,1,0,95.31,0,46.79,46.79,0,0,1,14-34.08l35-35a48.5,48.5,0,0,1,34.83-14,47.67,47.67,0,0,0,48.09-48.08,48.39,48.39,0,0,1,14-34.83l35-35a48.92,48.92,0,0,1,35.05-14h.39a48.92,48.92,0,0,1,35,14l35,35a49,49,0,0,1,14,35v.39a49,49,0,0,1-14,35.05l-35,35a46.82,46.82,0,0,1-34.08,14,47.67,47.67,0,1,0,46.49,47.23,48.5,48.5,0,0,1,14-34.83l35-35a46.85,46.85,0,0,1,34.08-14,47.67,47.67,0,1,0,0-95.31A46.81,46.81,0,0,1,978.54,528.35Z"/><path d="M258,1156a53.37,53.37,0,0,0-13.89-7.48,156,156,0,0,0-17.59-5.34,124.73,124.73,0,0,1-15.93-5.35,31.16,31.16,0,0,1-11.46-7.77,17.43,17.43,0,0,1-4.28-12.14,17.25,17.25,0,0,1,3.79-11.27,24.74,24.74,0,0,1,10.59-7.29,43.53,43.53,0,0,1,15.74-2.62,42.25,42.25,0,0,1,11.95,1.74,52.73,52.73,0,0,1,11.08,4.67,33.16,33.16,0,0,1,8.45,6.6,6.18,6.18,0,0,0,3.89,1.37,7.61,7.61,0,0,0,5.53-2.43,7.25,7.25,0,0,0,2.43-5.15q0-3.69-3.88-7.39a43.69,43.69,0,0,0-17-10.69,64.63,64.63,0,0,0-22.44-3.88,57.53,57.53,0,0,0-23.8,4.66,38.73,38.73,0,0,0-16.23,12.93,32.62,32.62,0,0,0-5.83,19.33,36.49,36.49,0,0,0,3,15.45,31.1,31.1,0,0,0,8.55,11.07,49.13,49.13,0,0,0,13,7.58,115.73,115.73,0,0,0,16.42,5.15,117.79,117.79,0,0,1,17.78,5.83,32.67,32.67,0,0,1,12.05,8.36,18.91,18.91,0,0,1,4.37,12.82,17,17,0,0,1-4.08,11.27,26.92,26.92,0,0,1-10.88,7.58,40.93,40.93,0,0,1-15.35,2.72,48.83,48.83,0,0,1-19.92-3.89,55.27,55.27,0,0,1-16.42-11.27,6.71,6.71,0,0,0-4.86-2.13,7.19,7.19,0,0,0-5.53,2.43A7.9,7.9,0,0,0,175,1197a8.14,8.14,0,0,0,.87,3.69,9.28,9.28,0,0,0,2.24,2.92,67.38,67.38,0,0,0,21,13.6q10.88,4.27,25.26,4.28a54.64,54.64,0,0,0,23.41-4.86,41.19,41.19,0,0,0,16.42-13.22,31.68,31.68,0,0,0,6-19q0-10.09-3.21-17A30,30,0,0,0,258,1156Z"/><path d="M435.74,1090.72a7.88,7.88,0,0,1-.58,2.8,14.46,14.46,0,0,1-1.77,3L391,1154v57.54a7.85,7.85,0,0,1-2.25,5.65,7.47,7.47,0,0,1-5.72,2.32h-.48a7.49,7.49,0,0,1-5.72-2.32,7.85,7.85,0,0,1-2.25-5.65V1154l-42.34-57.47a14.1,14.1,0,0,1-1.78-3,7.88,7.88,0,0,1-.58-2.8,6.78,6.78,0,0,1,2.83-5.65,9.17,9.17,0,0,1,5.52-2.15,7.76,7.76,0,0,1,6.44,3.51l38.12,52.33L421,1086.43a7.77,7.77,0,0,1,6.44-3.51,9.13,9.13,0,0,1,5.52,2.15A6.78,6.78,0,0,1,435.74,1090.72Z"/><path d="M578.93,1156a53.37,53.37,0,0,0-13.89-7.48,156,156,0,0,0-17.59-5.34,124.2,124.2,0,0,1-15.93-5.35,31.21,31.21,0,0,1-11.47-7.77,17.47,17.47,0,0,1-4.27-12.14,17.25,17.25,0,0,1,3.79-11.27,24.68,24.68,0,0,1,10.59-7.29,43.53,43.53,0,0,1,15.74-2.62,42.25,42.25,0,0,1,12,1.74,52.42,52.42,0,0,1,11.07,4.67,33.22,33.22,0,0,1,8.46,6.6,6.15,6.15,0,0,0,3.88,1.37,7.64,7.64,0,0,0,5.54-2.43,7.25,7.25,0,0,0,2.43-5.15q0-3.69-3.89-7.39a43.58,43.58,0,0,0-17-10.69,64.63,64.63,0,0,0-22.44-3.88,57.61,57.61,0,0,0-23.81,4.66,38.63,38.63,0,0,0-16.22,12.93A32.62,32.62,0,0,0,500,1118.5a36.49,36.49,0,0,0,3,15.45A31.1,31.1,0,0,0,511.6,1145a49,49,0,0,0,13,7.58,115.73,115.73,0,0,0,16.42,5.15,118.16,118.16,0,0,1,17.78,5.83,32.67,32.67,0,0,1,12,8.36,18.91,18.91,0,0,1,4.37,12.82,17,17,0,0,1-4.08,11.27,26.92,26.92,0,0,1-10.88,7.58,41,41,0,0,1-15.36,2.72,48.82,48.82,0,0,1-19.91-3.89,55.27,55.27,0,0,1-16.42-11.27,6.73,6.73,0,0,0-4.86-2.13,7.23,7.23,0,0,0-5.54,2.43A7.93,7.93,0,0,0,496,1197a8.14,8.14,0,0,0,.87,3.69,9.28,9.28,0,0,0,2.24,2.92,67.45,67.45,0,0,0,21,13.6q10.89,4.27,25.26,4.28a54.66,54.66,0,0,0,23.42-4.86,41.26,41.26,0,0,0,16.42-13.22,31.74,31.74,0,0,0,6-19q0-10.09-3.2-17A30,30,0,0,0,578.93,1156Z"/><path d="M756.67,1083.52H666.32a8.25,8.25,0,0,0-5.64,2,6.78,6.78,0,0,0-2.33,5.34,7.09,7.09,0,0,0,2.33,5.45,8,8,0,0,0,5.64,2.13h36.92v113.1a7.8,7.8,0,0,0,8.16,8,8.12,8.12,0,0,0,6-2.33,7.68,7.68,0,0,0,2.33-5.63v-113.1h36.92a8.29,8.29,0,0,0,5.64-2,6.75,6.75,0,0,0,2.33-5.34,7.08,7.08,0,0,0-2.33-5.44A8.09,8.09,0,0,0,756.67,1083.52Z"/><path d="M909,1098.68a8.25,8.25,0,0,0,5.63-2,6.74,6.74,0,0,0,2.33-5.35,7.33,7.33,0,0,0-2.33-5.53,7.84,7.84,0,0,0-5.63-2.24H839.78a8,8,0,0,0-8,8v120.09a8,8,0,0,0,8,8H909a8,8,0,0,0,5.63-2.13,7,7,0,0,0,2.33-5.44,7.21,7.21,0,0,0-2.33-5.25,7.64,7.64,0,0,0-5.63-2.33H848.14v-45.28h52.07a8.29,8.29,0,0,0,5.64-2,6.77,6.77,0,0,0,2.33-5.34,7.3,7.3,0,0,0-2.33-5.64,8.09,8.09,0,0,0-5.64-2.14H848.14v-45.27Z"/><path d="M1102.44,1083.33a8,8,0,0,0-6.61,3.69l-48.62,72.38-48-72.38a7.79,7.79,0,0,0-3.21-2.72,8.83,8.83,0,0,0-3.79-1,8.13,8.13,0,0,0-8.16,8v120.29a8,8,0,0,0,2.14,5.63,7.52,7.52,0,0,0,10.88,0,8.05,8.05,0,0,0,2.14-5.63V1113.5l41.19,63.29a7.31,7.31,0,0,0,2.72,2.53,8.44,8.44,0,0,0,7.09,0,9.59,9.59,0,0,0,2.82-2.53l41-62.37v97.16a8.25,8.25,0,0,0,14,5.63,7.64,7.64,0,0,0,2.33-5.63V1091.29a7.21,7.21,0,0,0-2.43-5.53A8.79,8.79,0,0,0,1102.44,1083.33Z"/><path d="M1322.07,1112.86a51.1,51.1,0,0,0-8.56-16,41.91,41.91,0,0,0-14.08-11.37,42.86,42.86,0,0,0-19.53-4.27,41.17,41.17,0,0,0-22.25,6.12,45.26,45.26,0,0,0-15.55,16.13,43.23,43.23,0,0,0-5.73,21.86,44.77,44.77,0,0,0,3.21,16.9,47,47,0,0,0,8.84,14.19,42.27,42.27,0,0,0,13,9.81,35.44,35.44,0,0,0,15.74,3.6,37.75,37.75,0,0,0,15-2.82,40.49,40.49,0,0,0,11.66-7.48c.85-.78,1.53-1.62,2.3-2.42a64,64,0,0,1-8,17.29,85.1,85.1,0,0,1-16.81,18.84,70.21,70.21,0,0,1-20,12,10.22,10.22,0,0,0-4.85,3,7.81,7.81,0,0,0,.68,10.59,8.64,8.64,0,0,0,5.53,1.94,10.74,10.74,0,0,0,3.31-.58,73.88,73.88,0,0,0,22.34-12,86.78,86.78,0,0,0,16.72-17.4,100.88,100.88,0,0,0,11.36-20.2,116.08,116.08,0,0,0,6.51-20.6,90.27,90.27,0,0,0,2.14-18.66A59.3,59.3,0,0,0,1322.07,1112.86Zm-27,38.09a29,29,0,0,1-15.55,4.08,25.93,25.93,0,0,1-14.57-4.08,26.63,26.63,0,0,1-9.53-11,33.57,33.57,0,0,1-3.3-14.67,31.09,31.09,0,0,1,3.69-15.25,26.66,26.66,0,0,1,10-10.4,27.78,27.78,0,0,1,14.28-3.69,28.54,28.54,0,0,1,15.35,4,28.11,28.11,0,0,1,10,10.59,29.59,29.59,0,0,1,3.6,14.38,31.44,31.44,0,0,1-3.7,15.06A28.45,28.45,0,0,1,1295.06,1151Z"/></svg>