<svg xmlns="http://www.w3.org/2000/svg" width="328" height="328" fill="none"><circle cx="164" cy="164" r="164" fill="#fff"/><path fill="#000" d="M164.5 80c8.008 0 14.5-6.716 14.5-15s-6.492-15-14.5-15S150 56.716 150 65s6.492 15 14.5 15M164.5 247c8.008 0 14.5-6.716 14.5-15s-6.492-15-14.5-15-14.5 6.716-14.5 15 6.492 15 14.5 15M236.78 128.425l-11.068-11.106a14.87 14.87 0 0 1-4.427-10.813 15.17 15.17 0 0 0-4.278-10.94 15.1 15.1 0 0 0-4.936-3.378 15.03 15.03 0 0 0-16.648 3.377 15.17 15.17 0 0 0-4.278 10.94 14.9 14.9 0 0 1-1.108 5.863 14.85 14.85 0 0 1-3.319 4.951l-11.068 11.106a15.287 15.287 0 0 1-11.014 4.443 15 15 0 0 0-5.841 1.125 15.1 15.1 0 0 0-4.952 3.304 15.15 15.15 0 0 0-4.414 10.83 15.4 15.4 0 0 1-1.103 5.973 15.3 15.3 0 0 1-3.325 5.076l-11.067 11.105a15.48 15.48 0 0 1-11.1 4.443h-.117a15.43 15.43 0 0 1-11.068-4.443l-11.068-11.105a15.6 15.6 0 0 1-3.323-5.116 15.6 15.6 0 0 1-1.104-6.006v-.124a15.6 15.6 0 0 1 4.427-11.106l11.068-11.105a14.799 14.799 0 0 1 10.777-4.443 15.03 15.03 0 0 0 8.489-2.375 15.1 15.1 0 0 0 5.715-6.731 15.17 15.17 0 0 0 .988-8.786 15.15 15.15 0 0 0-4.076-7.84 15.06 15.06 0 0 0-7.748-4.214 15.03 15.03 0 0 0-8.771.853 15.1 15.1 0 0 0-6.798 5.628 15.17 15.17 0 0 0-2.5 8.479 15.4 15.4 0 0 1-1.105 5.973 15.4 15.4 0 0 1-3.322 5.079L92.23 128.447a14.78 14.78 0 0 1-10.777 4.443 15 15 0 0 0-5.884 1.04 15.1 15.1 0 0 0-5.02 3.252 15.1 15.1 0 0 0-3.365 4.953 15.17 15.17 0 0 0 0 11.752 15.1 15.1 0 0 0 3.366 4.953 15.1 15.1 0 0 0 5.019 3.252 15 15 0 0 0 5.884 1.04 14.78 14.78 0 0 1 10.777 4.443l11.068 11.106a14.87 14.87 0 0 1 4.427 10.813 15.146 15.146 0 0 0 4.277 10.941 15.035 15.035 0 0 0 21.585 0 15.15 15.15 0 0 0 4.277-10.941 14.86 14.86 0 0 1 4.427-10.813l11.068-11.106a15.3 15.3 0 0 1 5.062-3.334 15.3 15.3 0 0 1 5.952-1.109 15 15 0 0 0 5.84-1.125 15.1 15.1 0 0 0 4.952-3.303 15.163 15.163 0 0 0 4.416-10.828 15.4 15.4 0 0 1 1.102-5.974 15.4 15.4 0 0 1 3.325-5.078l11.068-11.105a15.45 15.45 0 0 1 11.084-4.443h.123a15.44 15.44 0 0 1 11.068 4.443l11.068 11.105a15.57 15.57 0 0 1 4.427 11.106v.124a15.6 15.6 0 0 1-1.104 6.006 15.6 15.6 0 0 1-3.323 5.116l-11.068 11.105a14.8 14.8 0 0 1-4.935 3.33 14.8 14.8 0 0 1-5.842 1.113 15.03 15.03 0 0 0-8.489 2.375 15.1 15.1 0 0 0-5.715 6.731 15.17 15.17 0 0 0-.988 8.786 15.14 15.14 0 0 0 4.076 7.84 15.029 15.029 0 0 0 16.519 3.361 15.1 15.1 0 0 0 6.798-5.628 15.17 15.17 0 0 0 2.5-8.479 15.4 15.4 0 0 1 1.105-5.973 15.4 15.4 0 0 1 3.322-5.079l11.068-11.105a14.8 14.8 0 0 1 4.935-3.329 14.8 14.8 0 0 1 5.842-1.114 15 15 0 0 0 5.884-1.04 15.1 15.1 0 0 0 5.019-3.252 15.1 15.1 0 0 0 3.366-4.953 15.18 15.18 0 0 0 0-11.752 15.1 15.1 0 0 0-3.366-4.953 15.1 15.1 0 0 0-5.019-3.252 15 15 0 0 0-5.884-1.04 14.774 14.774 0 0 1-10.767-4.443M94.077 269.17a8.6 8.6 0 0 0-2.188-1.122 26 26 0 0 0-2.772-.802 20 20 0 0 1-2.51-.803 4.9 4.9 0 0 1-1.805-1.166 2.54 2.54 0 0 1-.675-1.822 2.5 2.5 0 0 1 .598-1.691 3.9 3.9 0 0 1 1.668-1.094 7.2 7.2 0 0 1 2.48-.393c.638 0 1.272.088 1.883.261a8.5 8.5 0 0 1 1.746.701c.497.259.947.593 1.331.99.174.134.39.206.613.206a1.25 1.25 0 0 0 .871-.365c.116-.097.209-.216.275-.349s.102-.277.108-.424q0-.554-.611-1.109a6.94 6.94 0 0 0-2.679-1.604 10.6 10.6 0 0 0-3.535-.582 9.45 9.45 0 0 0-3.75.699 6.06 6.06 0 0 0-2.557 1.94 4.73 4.73 0 0 0-.919 2.901c-.021.797.14 1.588.473 2.319.31.644.771 1.212 1.347 1.662a7.9 7.9 0 0 0 2.048 1.137c.841.319 1.706.577 2.587.773.957.22 1.894.513 2.802.875a5.16 5.16 0 0 1 1.898 1.255c.471.538.716 1.223.689 1.924a2.48 2.48 0 0 1-.643 1.691c-.463.509-1.052.9-1.714 1.138a6.7 6.7 0 0 1-2.419.408 8 8 0 0 1-3.138-.584 8.7 8.7 0 0 1-2.587-1.691 1.1 1.1 0 0 0-.349-.235 1.182 1.182 0 0 0-.895.006c-.15.063-.285.156-.394.274a1.154 1.154 0 0 0-.217 1.383c.086.167.206.316.353.439.96.871 2.082 1.563 3.309 2.041q1.714.64 3.98.642a9 9 0 0 0 3.688-.729 6.46 6.46 0 0 0 2.587-1.984c.629-.829.96-1.829.945-2.852q0-1.514-.505-2.551a4.55 4.55 0 0 0-1.417-1.713M121 259.199a1.3 1.3 0 0 1-.088.431 2.2 2.2 0 0 1-.268.461l-6.406 8.837v8.846a1.23 1.23 0 0 1-.34.868 1.113 1.113 0 0 1-.865.357h-.072a1.13 1.13 0 0 1-.865-.357 1.2 1.2 0 0 1-.34-.868v-8.846l-6.399-8.836a2.1 2.1 0 0 1-.269-.461 1.2 1.2 0 0 1-.088-.43 1.05 1.05 0 0 1 .428-.869 1.37 1.37 0 0 1 .834-.33c.194.001.384.051.554.145.169.094.314.23.42.394l5.761 8.045 5.775-8.046a1.18 1.18 0 0 1 .973-.54c.307.013.6.129.834.331a1.03 1.03 0 0 1 .421.868M143.065 269.17a8.6 8.6 0 0 0-2.188-1.122 26 26 0 0 0-2.771-.802 20 20 0 0 1-2.51-.803 4.9 4.9 0 0 1-1.807-1.166 2.55 2.55 0 0 1-.673-1.822 2.52 2.52 0 0 1 .597-1.691 3.9 3.9 0 0 1 1.669-1.094 7.2 7.2 0 0 1 2.479-.393c.641 0 1.277.088 1.891.261a8.4 8.4 0 0 1 1.744.701c.498.259.948.593 1.333.99a1 1 0 0 0 .611.206 1.25 1.25 0 0 0 .873-.365c.115-.097.208-.216.274-.349s.103-.277.109-.424q0-.554-.613-1.109a6.9 6.9 0 0 0-2.678-1.604 10.6 10.6 0 0 0-3.536-.582 9.5 9.5 0 0 0-3.751.699 6.05 6.05 0 0 0-2.555 1.94 4.74 4.74 0 0 0-.933 2.901c-.021.797.14 1.588.473 2.319a4.7 4.7 0 0 0 1.355 1.658 7.8 7.8 0 0 0 2.048 1.138q1.263.479 2.587.773c.956.221 1.893.513 2.801.875a5.16 5.16 0 0 1 1.89 1.255c.471.538.716 1.223.689 1.924a2.48 2.48 0 0 1-.643 1.691c-.463.509-1.052.9-1.714 1.138a6.8 6.8 0 0 1-2.42.408 8 8 0 0 1-3.137-.584 8.7 8.7 0 0 1-2.586-1.691q-.15-.151-.349-.235a1.18 1.18 0 0 0-.895.006 1.1 1.1 0 0 0-.395.274 1.16 1.16 0 0 0-.334.833c0 .192.046.382.137.553.086.167.206.316.353.439a10.7 10.7 0 0 0 3.308 2.041q1.716.64 3.98.642a9 9 0 0 0 3.69-.729 6.45 6.45 0 0 0 2.586-1.984 4.6 4.6 0 0 0 .946-2.852q0-1.514-.505-2.551a4.55 4.55 0 0 0-1.43-1.713M170.728 258.001h-14.453c-.33-.01-.652.1-.902.308a1.05 1.05 0 0 0-.282.372 1 1 0 0 0-.09.453c-.005.158.026.315.09.46.065.145.161.275.282.381.245.219.569.337.902.329h5.906v17.46a1.189 1.189 0 0 0 .374.892c.122.116.268.206.429.265s.331.085.502.078c.177.006.354-.023.519-.084s.315-.156.441-.276a1.163 1.163 0 0 0 .373-.869v-17.46h5.905c.331.009.652-.101.903-.309q.184-.155.283-.371c.064-.143.095-.298.089-.453a1.04 1.04 0 0 0-.091-.459 1.1 1.1 0 0 0-.281-.381 1.32 1.32 0 0 0-.899-.336M193.785 260.333c.314.01.621-.101.859-.308a1.04 1.04 0 0 0 .355-.826 1.14 1.14 0 0 0-.355-.853 1.18 1.18 0 0 0-.859-.346h-10.564c-.324 0-.634.13-.863.362a1.24 1.24 0 0 0-.358.873v18.53c0 .328.129.642.358.873.229.232.539.362.863.362h10.564a1.22 1.22 0 0 0 .859-.329 1.1 1.1 0 0 0 .355-.839 1.13 1.13 0 0 0-.355-.811 1.17 1.17 0 0 0-.859-.359h-9.288v-6.987h7.946c.315.009.622-.101.861-.309a1.05 1.05 0 0 0 .355-.824 1.13 1.13 0 0 0-.355-.87 1.23 1.23 0 0 0-.861-.33h-7.946v-6.986zM223.808 258.005a1.2 1.2 0 0 0-.566.156 1.2 1.2 0 0 0-.428.412l-7.313 11.156-7.22-11.156a1.2 1.2 0 0 0-.483-.419 1.3 1.3 0 0 0-.57-.154 1.2 1.2 0 0 0-.861.358c-.23.231-.362.545-.367.875v18.54c-.007.322.109.633.322.868a1.14 1.14 0 0 0 .818.359 1.1 1.1 0 0 0 .819-.359 1.26 1.26 0 0 0 .322-.868v-15.118l6.195 9.755c.102.164.243.298.41.39a1.25 1.25 0 0 0 1.066 0c.165-.1.31-.233.424-.39l6.167-9.613v14.975a1.3 1.3 0 0 0 .224.686c.138.202.331.358.554.45s.467.116.703.068.453-.165.625-.336a1.2 1.2 0 0 0 .351-.868v-18.54a1.14 1.14 0 0 0-.366-.853 1.3 1.3 0 0 0-.826-.374M257.53 262.762a7.6 7.6 0 0 0-1.352-2.407 6.6 6.6 0 0 0-2.223-1.711 7.05 7.05 0 0 0-3.083-.643 6.74 6.74 0 0 0-3.512.921 7 7 0 0 0-2.455 2.427 6.27 6.27 0 0 0-.905 3.29 6.5 6.5 0 0 0 .507 2.543c.328.785.8 1.508 1.396 2.135a6.6 6.6 0 0 0 2.052 1.476 5.8 5.8 0 0 0 2.485.542 6.2 6.2 0 0 0 2.368-.425 6.4 6.4 0 0 0 1.84-1.125c.135-.117.242-.244.364-.364a9.5 9.5 0 0 1-1.263 2.601 13 13 0 0 1-2.654 2.835 11.2 11.2 0 0 1-3.158 1.806c-.295.078-.56.235-.765.452a1.136 1.136 0 0 0 .107 1.593c.247.191.555.295.873.292q.268-.005.523-.087a11.9 11.9 0 0 0 3.526-1.806 13.4 13.4 0 0 0 2.64-2.618 15 15 0 0 0 1.793-3.04c.443-1 .787-2.038 1.028-3.1.215-.922.328-1.863.338-2.807a8.6 8.6 0 0 0-.47-2.78m-4.263 5.732a4.75 4.75 0 0 1-2.455.614 4.25 4.25 0 0 1-2.3-.614 4.07 4.07 0 0 1-1.504-1.655 4.85 4.85 0 0 1-.521-2.208 4.5 4.5 0 0 1 .582-2.295 4.1 4.1 0 0 1 1.579-1.564 4.55 4.55 0 0 1 2.254-.556 4.7 4.7 0 0 1 2.423.602 4.33 4.33 0 0 1 2.148 3.758 4.56 4.56 0 0 1-.585 2.266 4.37 4.37 0 0 1-1.622 1.659z"/></svg>