<svg width="11" height="18" viewBox="0 0 11 18" fill="none" xmlns="http://www.w3.org/2000/svg">
<path fill-rule="evenodd" clip-rule="evenodd" d="M10.7071 13.0207C11.0976 12.6302 11.0976 11.997 10.7071 11.6065C10.3166 11.2159 9.68342 11.2159 9.29289 11.6065L6.75751 14.1418L6.75751 0.999999C6.75751 0.447714 6.3098 -2.05015e-07 5.75751 -2.29156e-07C5.20523 -2.53297e-07 4.75751 0.447714 4.75751 0.999999L4.75751 14.1422L2.22182 11.6065C1.8313 11.2159 1.19813 11.2159 0.807607 11.6065C0.417082 11.997 0.417082 12.6302 0.807607 13.0207L5.05025 17.2633C5.12691 17.34 5.21292 17.4016 5.30461 17.4482C5.44058 17.5173 5.5945 17.5564 5.75751 17.5564C6.04106 17.5564 6.29705 17.4383 6.47904 17.2487L10.7071 13.0207Z" />
</svg>
