<?xml version="1.0" encoding="UTF-8"?>
<svg id="Layer_2" data-name="Layer 2" xmlns="http://www.w3.org/2000/svg" viewBox="0 0 523.82 553.98">
  <defs>
    <style>
      .cls-1 {
        fill: #fee6b3;
      }

      .cls-2 {
        fill: #f3900e;
      }

      .cls-3 {
        fill: #fefefe;
      }

      .cls-4 {
        fill: #fecb4d;
      }

      .cls-5 {
        fill: #fed882;
      }

      .cls-6 {
        fill: #feab33;
      }
    </style>
  </defs>
  <g id="Layer_1-2" data-name="Layer 1">
    <g>
      <path class="cls-2" d="M523.56,288.93c.43,60.45-17.33,115.03-54.29,162.83-41.65,53.87-96.54,86.44-163.53,98.67-7.69,1.4-15.61,1.23-23.15,3.54h-42.19c-5.69-2.37-11.85-2.02-17.78-2.97-63.08-10.16-116.02-38.97-157.89-87.14C21.26,413.84,.16,355.22,.5,288.92c1.49-.65,1.74,.06,1.86,1.43,1.92,21.97,7.33,43.11,15.08,63.7,12.39,32.93,30.75,62.14,54.99,87.6,24.35,25.58,52.69,45.52,85.14,59.65,27.27,11.88,55.69,19.33,85.28,21.1,30.8,1.84,61.31-.6,91.23-9.35,40.12-11.73,75.48-31.65,106.07-59.97,19.79-18.32,36.26-39.33,49.5-62.93,17.37-30.97,28.36-63.91,32.09-99.25,.12-1.12-.44-2.87,1.84-1.98Z"/>
      <path class="cls-4" d="M523.56,288.93c-2.28-.89-1.72,.85-1.84,1.98-3.73,35.34-14.72,68.27-32.09,99.25-13.24,23.6-29.71,44.61-49.5,62.93-30.59,28.32-65.95,48.24-106.07,59.97-29.92,8.75-60.42,11.19-91.23,9.35-29.59-1.77-58.01-9.22-85.28-21.1-32.45-14.14-60.79-34.07-85.14-59.65-24.23-25.45-42.6-54.67-54.99-87.6-7.75-20.59-13.16-41.74-15.08-63.7-.12-1.37-.37-2.07-1.86-1.43C-3.43,213.09,15.74,144.81,67.12,87.35,102.41,47.88,145.7,20.65,197.19,8.39c91.33-21.73,172.79-1.28,242.62,61.75,42.56,38.41,68.2,86.84,79.33,142.94,4.97,25.04,5,50.45,4.42,75.85Zm-476.05,3.16c6.27,110.95,101.25,200.73,215.33,200.35,113.57-.38,207.38-90.04,213.7-200.35,1.32-5.35,1.48-10.69-.19-16.01,.32-2.3,.85-4.59,.93-6.9,.66-18.93-1.12-37.64-5.39-56.08-8.32-35.94-24.86-67.75-49.41-95.16-20.38-22.75-44.56-40.48-72.62-53.03-23.23-10.4-47.5-16.5-72.69-18.11-21.15-1.36-42.23,.12-63.14,4.92-36.78,8.44-68.91,25.45-96.82,50.53-21.81,19.6-38.83,42.89-50.91,69.65-14.97,33.15-22.2,67.71-18.59,104.19-1.67,5.32-1.5,10.65-.2,16.01Z"/>
      <path class="cls-6" d="M47.71,276.09c-3.6-36.48,3.63-71.05,18.6-104.2,12.08-26.76,29.1-50.05,50.91-69.65,27.9-25.08,60.03-42.08,96.82-50.53,20.91-4.8,41.99-6.27,63.14-4.92,25.19,1.62,49.46,7.71,72.69,18.11,28.05,12.56,52.24,30.28,72.62,53.03,24.55,27.41,41.1,59.22,49.41,95.16,4.27,18.45,6.05,37.16,5.39,56.08-.08,2.31-.61,4.6-.93,6.89-.37,5.37-.75,10.74-1.12,16.12-.34,1.76-.71,3.52-1.01,5.29-8.84,51.96-33.39,95.24-73.69,128.9-49.01,40.94-105.91,56.94-169.12,48.35-45.94-6.25-85.89-26.08-119.16-58.41-35.1-34.1-56.17-75.67-63.43-124.14-.37-5.37-.74-10.74-1.12-16.11Zm327.97,37.72c-.03-33.52-.06-67.05-.09-100.57,.35-1.06,.7-2.12,1.05-3.18,5.17-1.67,6.31-6.24,7.55-10.67,.36-1.3-.1-2.77,1.7-3.51,5-2.03,6.73-5.92,5.92-11.11-.42-4.24,1.3-8.48,.02-12.72,.84-7.33-.35-13.39-8.08-16.95-39.73-18.28-79.36-36.76-118.99-55.24-2.33-1.09-4.21-1.17-6.56-.04-11.67,5.63-23.43,11.08-35.15,16.6-26.22,12.34-52.39,24.78-78.68,36.98-11.01,5.1-12.49,6.97-12.18,18.71-1.18,4.23,.46,8.45,.06,12.68,.17,2.59-1.15,5.87,1.43,7.5,4.8,3.05,6.47,7.67,8.07,12.64,.89,2.75,3.2,4.62,5.69,6.1,.85,.5,.97,1.33,1.04,2.2-.03,33.53-.07,67.05-.1,100.58-5.35,3.58-7.71,8.89-8.67,15.01-9.02,.96-12.93,4.22-15.56,12.97-.6,1.98-.96,3.82-2.9,5.39-6.41,5.22-7.01,9.71-3.07,17.45-1.52,.17-2,1.08-2.21,2.54-1.27,8.81,4.32,14.76,14.1,14.77,56.79,.01,113.58,0,170.37,0,31.19,0,62.38-.05,93.57,.05,4.86,.02,8.87-1.46,11.97-5.08,3.14-3.67,3-9.41-.06-12.29,4.02-7.93,3.41-11.95-3.48-17.77-1.8-1.52-1.92-3.29-2.46-5.06-2.59-8.46-6.82-12.03-15.59-12.98-.97-6.12-3.31-11.44-8.68-15.01Z"/>
      <path class="cls-1" d="M48.83,292.2c7.26,48.47,28.33,90.04,63.43,124.14,33.27,32.33,73.21,52.16,119.16,58.41,63.21,8.59,120.11-7.41,169.12-48.35,40.3-33.67,64.85-76.95,73.69-128.9,.3-1.77,.67-3.53,1.01-5.29,.44-.03,.87-.07,1.31-.1-6.32,110.3-100.13,199.96-213.7,200.35-114.08,.38-209.07-89.4-215.33-200.35,.44,.04,.88,.07,1.32,.11Z"/>
      <path class="cls-5" d="M476.55,292.09c-.44,.03-.87,.07-1.31,.1,.37-5.37,.74-10.75,1.12-16.12,1.67,5.32,1.51,10.66,.19,16.01Z"/>
      <path class="cls-5" d="M48.83,292.2c-.44-.04-.88-.07-1.32-.11-1.3-5.35-1.46-10.69,.2-16.01,.37,5.37,.74,10.74,1.12,16.11Z"/>
      <path class="cls-5" d="M384.37,328.81c8.77,.95,13,4.53,15.59,12.98,.54,1.77,.66,3.53,2.46,5.06,6.89,5.82,7.51,9.84,3.48,17.77-3.31,3.52-7.37,4.55-12.18,4.54-87.79-.1-175.58-.1-263.37,0-4.81,0-8.86-1.02-12.17-4.55-3.94-7.74-3.34-12.23,3.07-17.45,1.94-1.58,2.3-3.41,2.9-5.39,2.64-8.75,6.54-12,15.56-12.96,37.81,.04,75.61,.1,113.42,.1,43.75,0,87.49-.07,131.24-.1Z"/>
      <path class="cls-5" d="M132.25,184.78c.39-4.23-1.24-8.45-.06-12.68,2.9-4.03,6.67-6.81,11.21-8.92,25.27-11.77,50.44-23.74,75.69-35.57,13.02-6.1,26.14-11.99,39.15-18.12,2.36-1.11,4.24-1.07,6.58,.03,12.04,5.64,24.2,11.06,36.26,16.65,25.77,11.95,51.53,23.93,77.26,35.98,5.12,2.4,10.84,4.1,13.5,9.9,1.29,4.24-.44,8.48-.02,12.72-2.15,2.16-4.56,3.89-7.6,4.58-81.46,0-162.91,0-244.37,0-3.03-.69-5.46-2.39-7.6-4.56Zm35.27-12.01h187.98c-1.38-2.46-3.65-2.88-5.49-3.73-28.22-13.1-56.49-26.08-84.69-39.22-2.88-1.34-5.07-.62-7.61,.58-15.45,7.29-30.96,14.46-46.42,21.72-14.13,6.63-28.23,13.32-43.77,20.65Z"/>
      <path class="cls-4" d="M139.85,189.34c81.46,0,162.91,0,244.37,0-.53,3.4-1.25,7.16-3.75,9.27-3.87,3.27-4.11,7.11-3.82,11.44-.35,1.06-.7,2.12-1.05,3.18-10.74,.02-21.48,.04-32.22,.05-.64-2.38,.55-5.04-1.02-7.32h-31.32c-.15,2.69-.29,4.99-.42,7.29-10.73,0-21.45,.02-32.18,.02-.59-2.39,.59-5.04-.99-7.31h-31.36c-.16,2.69-.3,5-.43,7.31-10.73,0-21.46-.02-32.19-.03-.56-2.39,.62-5.04-1-7.28h-31.27c-.18,2.7-.33,5.01-.49,7.31-10.74-.02-21.48-.04-32.21-.05-.07-.87-.2-1.7-1.05-2.2-.45-3.22,1.42-6.98-1.67-9.57-3.84-3.21-5.17-7.48-5.91-12.11Z"/>
      <path class="cls-4" d="M384.37,328.81c-43.75,.04-87.49,.1-131.24,.1-37.81,0-75.61-.06-113.42-.1,.96-6.12,3.31-11.43,8.67-15.01,10.76-2.14,21.64-.69,32.45-1.1,10.85,0,21.7,0,32.54,0,10.8,0,21.6,0,32.4,0,10.84,0,21.68,0,32.52,0,10.8,0,21.6,0,32.4,0,10.85,0,21.7,0,32.55,0,10.81,.41,21.69-1.04,32.44,1.1,5.37,3.57,7.71,8.89,8.68,15.01Z"/>
      <path class="cls-2" d="M118.17,364.62c3.31,3.53,7.37,4.55,12.17,4.55,87.79-.1,175.58-.1,263.37,0,4.81,0,8.87-1.02,12.18-4.54,3.06,2.88,3.2,8.62,.06,12.29-3.1,3.62-7.11,5.09-11.97,5.08-31.19-.1-62.38-.05-93.57-.05-56.79,0-113.58,0-170.37,0-9.77,0-15.37-5.95-14.1-14.77,.21-1.46,.69-2.37,2.21-2.54Z"/>
      <path class="cls-5" d="M180.83,312.7c-10.82,.41-21.69-1.04-32.45,1.1,.03-33.53,.07-67.05,.1-100.58,10.74,.02,21.48,.04,32.22,.05,.08,.68,.16,1.36,.24,2.05-.04,32.46-.07,64.92-.11,97.38Z"/>
      <path class="cls-5" d="M375.68,313.8c-10.75-2.14-21.63-.69-32.44-1.1-.04-32.46-.07-64.92-.11-97.38,.08-.68,.17-1.36,.25-2.04,10.74-.02,21.48-.04,32.22-.05,.03,33.53,.06,67.05,.09,100.57Z"/>
      <path class="cls-1" d="M391.84,172.05c-2.66-5.8-8.39-7.51-13.5-9.9-25.73-12.05-51.49-24.03-77.26-35.98-12.07-5.59-24.22-11.01-36.26-16.65-2.34-1.1-4.22-1.14-6.58-.03-13.01,6.13-26.13,12.02-39.15,18.12-25.24,11.83-50.41,23.81-75.69,35.57-4.53,2.11-8.31,4.89-11.21,8.92-.31-11.74,1.18-13.6,12.18-18.71,26.29-12.19,52.46-24.64,78.68-36.98,11.73-5.52,23.48-10.97,35.15-16.6,2.35-1.14,4.23-1.05,6.56,.04,39.63,18.49,79.27,36.96,118.99,55.24,7.73,3.56,8.92,9.62,8.08,16.95Z"/>
      <path class="cls-2" d="M376.64,210.05c-.29-4.33-.05-8.17,3.82-11.44,2.5-2.11,3.22-5.87,3.75-9.27,3.04-.69,5.45-2.41,7.6-4.58,.81,5.19-.93,9.08-5.93,11.11-1.8,.73-1.34,2.21-1.7,3.51-1.24,4.43-2.38,9-7.55,10.67Z"/>
      <path class="cls-2" d="M139.85,189.34c.74,4.63,2.07,8.9,5.91,12.11,3.09,2.59,1.23,6.35,1.67,9.57-2.49-1.49-4.8-3.35-5.69-6.1-1.6-4.97-3.27-9.6-8.07-12.64-2.57-1.63-1.26-4.91-1.43-7.5,2.15,2.17,4.57,3.87,7.6,4.56Z"/>
      <path class="cls-6" d="M167.52,172.77c15.54-7.34,29.64-14.02,43.77-20.65,15.47-7.26,30.98-14.43,46.42-21.72,2.54-1.2,4.73-1.92,7.61-.58,28.2,13.14,56.47,26.12,84.69,39.22,1.84,.86,4.11,1.28,5.49,3.73H167.52Z"/>
      <path class="cls-5" d="M245.77,312.71c-10.8,0-21.6,0-32.4,0-.07-32.48-.13-64.96-.2-97.45,.09-.67,.18-1.35,.28-2.02,10.73,0,21.46,.02,32.19,.03,.1,.67,.19,1.34,.29,2.02-.05,32.47-.1,64.95-.15,97.42Z"/>
      <path class="cls-5" d="M310.69,312.71c-10.8,0-21.6,0-32.4,0-.05-32.47-.1-64.95-.15-97.42,.1-.67,.19-1.34,.29-2.02,10.73,0,21.45-.02,32.18-.02,.09,.67,.18,1.35,.28,2.02-.06,32.48-.13,64.96-.19,97.44Z"/>
      <path class="cls-2" d="M213.45,213.24c-.09,.67-.18,1.35-.28,2.02-10.75,.02-21.49,.04-32.24,.06-.08-.68-.16-1.36-.24-2.05,.15-2.31,.31-4.61,.49-7.31h31.27c1.62,2.24,.44,4.89,1,7.28Z"/>
      <path class="cls-2" d="M278.43,213.27c-.1,.67-.19,1.34-.29,2.02-10.74,0-21.48,0-32.22,0-.09-.67-.19-1.34-.29-2.02,.14-2.31,.27-4.62,.43-7.31h31.36c1.58,2.27,.41,4.92,.99,7.31Z"/>
      <path class="cls-2" d="M310.89,215.27c-.09-.67-.18-1.35-.28-2.02,.13-2.3,.26-4.61,.42-7.29h31.32c1.58,2.29,.38,4.94,1.02,7.32-.08,.68-.17,1.36-.25,2.04-10.75-.02-21.49-.04-32.24-.06Z"/>
      <path class="cls-6" d="M180.93,215.33c10.75-.02,21.5-.04,32.24-.06,.06,32.48,.13,64.96,.19,97.45-10.85,0-21.7,0-32.54,0,.04-32.46,.07-64.92,.11-97.38Z"/>
      <path class="cls-6" d="M245.93,215.29c10.74,0,21.48,0,32.22,0,.05,32.47,.1,64.95,.15,97.42-10.84,0-21.68,0-32.52,0,.05-32.47,.1-64.95,.15-97.42Z"/>
      <path class="cls-6" d="M310.89,215.27c10.75,.02,21.5,.04,32.24,.06,.04,32.46,.07,64.92,.11,97.38-10.85,0-21.7,0-32.55,0,.06-32.48,.13-64.96,.19-97.44Z"/>
    </g>
    <ellipse class="cls-6" cx="262.52" cy="261.66" rx="192.36" ry="176.62"/>
    <g id="Layer_2-2" data-name="Layer 2">
      <g id="Layer_1-2" data-name="Layer 1-2">
        <path class="cls-1" d="M385.82,229.74c.49,1.56,1.09,3.09,1.77,4.58,2.62,6.1,3.36,12.43,2.91,19.01-.35,5.06-.5,10.12-.75,15.19-.34,6.78-.69,13.57-1.04,20.35-.27,5.23-.55,10.48-.84,15.74l-1.2,21.92-.84,15.66c-.34,6.49-.68,12.99-1.03,19.5-.1,1.88,0,3.77-.45,5.62-1.29,5.69-6.36,9.72-12.2,9.68h-31.85c-1.41,.02-2.82-.22-4.15-.69-4.58-1.68-7.19-4.96-8.21-9.67-1.81-8.44-3.66-16.87-5.49-25.31,0-.1-.06-.19-.09-.31h-64.78c-.44,1.96-.89,3.88-1.31,5.83-1.56,7.02-3.05,14.07-4.72,21.07-1.16,5.07-5.58,8.74-10.78,8.96-4.75,.26-9.52,.04-14.27,.07-6.07,.03-12.13,0-18.2,.05-7.31,.06-12.81-5.02-13.08-12.33-.33-8.33-.5-16.67-.77-25-.31-9.59-.63-19.18-.97-28.78-.12-1.59-.47-3.15-1.07-4.63-.43-1.18-1.11-1.58-2.35-1.58-7.77,0-15.53,.08-23.3,0-16.71-.13-30.92-10.93-35.7-27.05-1.04-3.75-1.53-7.63-1.46-11.52,0-12.96-.1-25.93,0-38.89,.06-2.86-1.07-5.63-3.13-7.62-2.26-2.36-4.78-4.45-7.19-6.68-3.32-3.13-6.81-6.15-9.46-9.93-3.11-4.49-5.53-9.28-6.48-14.7-.42-2.24-.38-4.54,.12-6.76,.79-3.18,3.65-5.42,6.93-5.42h27.25c.22-.28,.12-.58,.12-.85v-9.16c-.15-8.21,6.06-15.15,14.24-15.91,4.04-.48,7.96-.1,11.44,2.15,4.87,3.14,7.63,7.57,7.63,13.47v10.17h18.03c.13-.35,.18-.72,.12-1.09v-9.49c.21-7.45,5.62-13.73,12.96-15.04,3.67-.61,7.33-.54,10.74,1.03,6.15,2.84,9.4,7.72,9.55,14.53,.07,3.34,0,6.69,0,10.02,.32,.23,.65,.12,.95,.12h22.35c3.85,0,6.42,1.85,7.51,5.38,.45,1.54,.57,3.15,.36,4.73-.78,6.52-3.39,12.69-7.53,17.8-.6,.77-1.23,1.49-1.86,2.24,.13,.25,.37,.12,.55,.12,5.23,0,10.51,.07,15.76,0,28.51-.35,57.02,.1,85.53,.07,9.33,0,18.67,.12,28,.14,19.23-.1,35.98,13.12,40.34,31.86,1,4.17,1.13,8.42,1.12,12.69v42.04c.02,1.1-.08,2.19-.29,3.27-.26,1.44-1.13,2.69-2.37,3.45-1.57,.94-3.07,1.96-4.55,3.06-1.1,.79-2.48,1.07-3.79,.78-.6-.1-1.19-.19-1.77-.33-3.79-.88-5.51-3.58-6.18-7.15s-.47-7.19-.47-10.79v-37.17c0-8-3.81-13.97-10.15-18.52-.05-.02-.1-.03-.15-.04,0-.07-.07-.14-.13-.07s.03,.13,.11,.14Zm-69.68-7.53c.97,12.76-3.27,23.16-14.02,30.12-10.71,6.89-22.03,7.11-32.94,.59-11.45-6.84-15.97-17.49-14.99-30.67-.12-.02-.25-.04-.37-.04h-24c-1.56,0-2.03,.43-2.27,2.01-.05,.39-.07,.78-.06,1.18,0,13.9-.02,27.81-.05,41.72,0,3.66-.16,7.34-1.31,10.86-2.66,8.4-7.78,15.04-14.9,20.11-.66,.4-1.04,1.14-.97,1.9,.11,5.28,.18,10.55,.22,15.83,.1,14.14,.18,28.28,.24,42.42v1.41c.1,1.08,.41,1.35,1.48,1.36h22.67c1.48,0,1.67-.18,2-1.61,.97-4.28,1.94-8.56,2.9-12.84,1.77-7.76,3.79-15.47,5.59-23.23,3.61-15.58,18.14-26.16,34.34-23.67,6.47,.94,12.45,4,17,8.7,4.34,4.35,7.28,9.9,8.44,15.93,.13,.65,.37,.76,.96,.76,7.51,0,15.01,0,22.51-.04,2.26-.03,4.44,.89,5.99,2.54,.89,.81,1.51,1.87,1.81,3.03,.65,3.04,1.38,6.07,2.07,9.11,1.48,6.5,2.96,13,4.45,19.5,.37,1.6,.65,1.81,2.3,1.81h22.82c.27,0,.58,.1,.88-.16,.25-4.13,.51-8.29,.76-12.46,.18-3.05,.33-6.1,.51-9.16,.24-4.3,.51-8.61,.74-12.9,.19-3.42,.33-6.84,.51-10.25,.29-5.53,.61-11.06,.9-16.59,.24-4.49,.43-8.97,.65-13.46,.34-6.44,.72-12.88,1.05-19.33,.25-4.85,.46-9.71,.69-14.56,.36-6.38-1.56-12.69-5.42-17.78-2.86-3.84-7.05-5.72-10.31-9.21-.75-.8-7.19-.91-5.75-1.82-7.42-.12-11.16-1.03-18.59-1.1-5.89-.05-11.82,0-17.72,0l-.82-.02Zm-152.34-30.25c-.28-.12-.59-.16-.89-.1h-27.74c-2.06,0-3.58,1.22-3.87,3.05-.17,1.01-.17,2.03,0,3.04,.58,3.39,2.18,6.52,4.58,8.99,2.13,2.15,4.32,4.25,6.49,6.36,2.01,1.87,3.11,4.52,3.04,7.26-.05,13.93,0,27.87,0,41.8,0,2.69-.2,5.4,.23,8.06,.8,5.67,3.85,10.79,8.46,14.19,3.26,2.57,7.25,4.04,11.4,4.22,8.1,.26,16.21,.06,24.31,.07,11.94,.11,21.72-9.49,21.83-21.43,.03-2.62,0-5.23,0-7.85,.09-.64-.34-1.24-.98-1.37-5.71-1.75-11.16-4.27-16.19-7.5-5.8-3.66-11.01-8.17-15.47-13.37-5.01-5.96-8.9-12.77-11.5-20.1-1.5-4.09-2.49-8.35-2.94-12.69-.3-3.01-.46-6.04-.55-9.06-.02-1.19-.1-2.35-.19-3.55Zm39.59,49.14c3.97,0,7.19-3.22,7.19-7.19s-3.22-7.19-7.19-7.19-7.19,3.22-7.19,7.19h0c-.04,3.94,3.13,7.16,7.06,7.19,.04,0,.09,0,.13,0Zm-3.09-64.99h11.22c0-3.56,.09-7.06,0-10.56-.08-2.43-1.69-4.02-4.11-4.36-.78-.07-1.56-.1-2.35-.07-2.5-.1-4.6,1.85-4.7,4.35-.12,3.52-.05,7.04-.05,10.63h0Zm-40.23,.05v-3.73c-.07-2.29,.22-4.58,0-6.87-.1-1.85-1.31-3.46-3.05-4.07-1.03-.37-2.13-.51-3.22-.39-3.1,.22-5.07,2.32-4.95,5.53,.1,2.92,0,5.85,0,8.77,0,.25-.09,.52,.12,.77h11.11Z"/>
        <path class="cls-6" d="M316.14,222.21h.82c9.16,0,18.31-.19,27.47-.3,4.47-.06,9.06-.09,13.26,1.45,4.82,1.77,8.74,5.53,11.43,9.91s5.02,10.17,5.42,15.41c.46,6.04-.19,11.97-.5,18-.33,6.44-.71,12.88-1.05,19.33-.24,4.49-.43,8.97-.65,13.46-.29,5.53-.6,11.06-.9,16.59-.18,3.41-.32,6.83-.51,10.25-.23,4.3-.5,8.6-.74,12.9-.18,3.05-.33,6.1-.51,9.16-.25,4.17-.51,8.33-.76,12.46-.31,.26-.61,.16-.88,.16h-22.82c-1.65,0-1.93-.2-2.3-1.81-1.49-6.5-2.97-13-4.45-19.5-.69-3.04-1.39-6.07-2.07-9.11-.29-1.17-.92-2.22-1.81-3.03-1.55-1.65-3.73-2.57-5.99-2.54-7.5,.06-15,0-22.51,.04-.59,0-.83-.11-.96-.76-1.13-6.03-4.04-11.58-8.35-15.94-4.55-4.7-10.53-7.76-17-8.7-16.2-2.45-30.74,8.1-34.34,23.67-1.8,7.76-3.81,15.47-5.59,23.23-.98,4.28-1.94,8.56-2.9,12.84-.33,1.43-.52,1.61-2,1.61h-22.65c-1.08,0-1.39-.28-1.48-1.36-.05-.47,0-.94,0-1.41-.08-14.14-.16-28.28-.24-42.42-.03-5.28-.1-10.56-.22-15.83-.07-.77,.31-1.51,.97-1.9,7.13-5.09,12.24-11.71,14.9-20.11,1.11-3.53,1.27-7.19,1.31-10.86,.03-13.9,.05-27.81,.05-41.72,0-.39,0-.79,.06-1.18,.24-1.58,.71-2.01,2.27-2.01h24c.13,0,.25,.02,.37,.04-.98,13.18,3.54,23.83,14.99,30.67,10.9,6.54,22.24,6.31,32.92-.59,10.72-6.95,14.93-17.34,13.96-30.1Zm21.62,44.6c-10.73-.13-19.54,8.47-19.66,19.21s8.47,19.54,19.21,19.66c10.73,.13,19.54-8.47,19.66-19.21,0-.1,0-.19,0-.29,.03-10.65-8.56-19.31-19.21-19.38Z"/>
        <path class="cls-6" d="M163.8,191.96c.07,1.17,.17,2.36,.21,3.55,.09,3.03,.25,6.06,.55,9.06,.44,4.33,1.43,8.6,2.92,12.69,2.62,7.34,6.53,14.15,11.56,20.11,4.46,5.21,9.67,9.71,15.47,13.37,5.03,3.23,10.48,5.75,16.19,7.5,.64,.12,1.07,.72,.98,1.37-.03,2.62,0,5.23,0,7.85-.11,11.95-9.89,21.55-21.84,21.44-.02,0-.05,0-.07,0-8.1,0-16.21,.18-24.31-.07-4.15-.18-8.13-1.65-11.4-4.22-4.62-3.4-7.68-8.52-8.48-14.2-.43-2.66-.23-5.37-.23-8.06v-41.8c.07-2.74-1.03-5.39-3.04-7.26-2.17-2.11-4.36-4.22-6.49-6.36-2.4-2.46-4-5.6-4.58-8.99-.17-1.01-.17-2.03,0-3.04,.29-1.82,1.81-3.02,3.87-3.05,1.72-.03,3.45,0,5.17,0h22.63c.3-.05,.61-.02,.89,.1Zm-11.41,41.95c-.02,3.9,3.12,7.07,7.01,7.11,3.91,.13,7.18-2.92,7.31-6.83,.13-3.91-2.92-7.18-6.83-7.31-.14,0-.28,0-.43,0-3.89-.02-7.05,3.12-7.07,7,0,.01,0,.02,0,.03Z"/>
        <path class="cls-6" d="M203.39,241.1c-3.97,0-7.19-3.22-7.19-7.19s.22-7.19,4.19-7.19,10.19,3.22,10.19,7.19h0c.05,3.92-3.09,7.14-7.01,7.19-.06,0-.12,0-.18,0Z"/>
        <path class="cls-6" d="M200.3,176.11c0-3.58-.07-7.11,0-10.63,.09-2.5,2.19-4.46,4.69-4.36,.01,0,.02,0,.03,0,.78-.03,1.57,0,2.35,.07,2.42,.33,4.04,1.93,4.11,4.36,.11,3.49,0,7,0,10.56h-11.19Z"/>
        <path class="cls-6" d="M160.07,176.16h-11.12c-.21-.26-.12-.52-.12-.77,0-2.92,.08-5.89,0-8.77-.12-3.2,1.85-5.3,4.95-5.53,1.09-.11,2.19,.02,3.22,.39,1.75,.61,2.96,2.22,3.05,4.07,.23,2.28-.07,4.58,0,6.87,.04,1.2,0,2.43,0,3.73Z"/>
        <path class="cls-3" d="M385.82,229.74c-.08,0-.14-.05-.08-.12s.11,0,.13,.07l-.05,.05Z"/>
        <path class="cls-1" d="M337.76,266.81c10.73-.12,19.54,8.48,19.66,19.21s-8.48,19.54-19.21,19.66c-10.73,.12-19.54-8.48-19.66-19.21,0-.07,0-.14,0-.21-.04-10.66,8.55-19.35,19.21-19.44Z"/>
        <path class="cls-1" d="M152.39,233.92c.12-3.9,3.38-6.96,7.27-6.84,3.73,.11,6.73,3.11,6.84,6.84-.03,3.92-3.19,7.09-7.11,7.14-3.91-.04-7.04-3.23-7.01-7.14Z"/>
      </g>
    </g>
  </g>
</svg>