<svg xmlns="http://www.w3.org/2000/svg" width="24" height="24" fill="none"><path fill="#5C70D6" d="M0 12.292v-.539c.057-.391.082-.787.103-1.177C.48 7.26 2.056 4.615 4.631 2.544A11 11 0 0 1 10.062.148c3.316-.467 6.391.148 9.093 2.206 2.192 1.675 3.737 3.816 4.45 6.504.35 1.347.469 2.743.35 4.13-.145 1.902-.67 3.683-1.703 5.288-1.823 2.832-4.325 4.772-7.655 5.435-4.744.946-8.738-.431-11.885-4.138a11.15 11.15 0 0 1-2.516-5.44c-.038-.22-.063-.438-.093-.659zm22.672-.315a7.8 7.8 0 0 0-.135-1.951 10.3 10.3 0 0 0-1.201-3.297 11.5 11.5 0 0 0-2.794-3.203 10 10 0 0 0-3.54-1.823 9 9 0 0 0-2.337-.378c-.19 0-.378-.063-.568-.037a4 4 0 0 1-.689.038q-.421.005-.838.08a11 11 0 0 0-2.97.846 10.7 10.7 0 0 0-5.517 5.753 10.5 10.5 0 0 0-.654 5.527c.13.988.402 1.951.807 2.86.788 1.746 1.995 3.158 3.512 4.299 1.809 1.36 3.882 1.972 6.13 2.023.34.008.678-.019 1.02-.045q.644-.046 1.279-.169a10 10 0 0 0 2.983-1.095 11.25 11.25 0 0 0 3.655-3.309 9.7 9.7 0 0 0 1.365-2.71 9.5 9.5 0 0 0 .492-3.409"/><path fill="#5C70D6" d="M8.19 7.51v-.882c.012-.645.352-1.152.91-1.367a1.56 1.56 0 0 1 1.746.377c.24.25.376.583.377.93v.921c.278.057.547.019.814.026.267.008.52 0 .795 0q.045-.361.023-.725a2.3 2.3 0 0 1 .051-.539 1.46 1.46 0 0 1 1.419-1.096c.735-.012 1.337.406 1.51 1.052q.065.281.06.57v.686c.07.085.157.054.232.054h1.72q.165-.008.33.025a.65.65 0 0 1 .523.553c.035.23.023.464-.037.688-.125.511-.368.985-.71 1.385q-.502.565-1.073 1.059c-.111.1-.223.204-.325.315a.8.8 0 0 0-.218.574q.014 1.872 0 3.746a3.386 3.386 0 0 1-2.622 3.273 3.6 3.6 0 0 1-.806.092c-.695 0-1.384.009-2.082 0a3.38 3.38 0 0 1-3.336-2.86 4 4 0 0 1-.041-.662c0-1.148-.02-2.296 0-3.443a1.1 1.1 0 0 0-.377-.881q-.48-.443-.95-.882a3.7 3.7 0 0 1-.916-1.364 2.1 2.1 0 0 1-.16-.853c.014-.519.262-.768.792-.773H8.19m2.36 1.494a.24.24 0 0 0-.196-.05H8.062c-.37 0-.515.17-.455.534.046.311.19.6.409.825.168.171.337.345.517.504a1 1 0 0 1 .35.827c-.014.694 0 1.385 0 2.082v2.023a1.98 1.98 0 0 0 2.054 2.022c.682-.025 1.365 0 2.05-.008a1.94 1.94 0 0 0 1.773-1.233c.196-.492.133-1.007.126-1.486-2.828-1.061-4.337-3.026-4.337-6.04m3.596 4.419a.644.644 0 1 0 0-1.289.644.644 0 0 0 0 1.289m.732-5.918c0-.326.013-.63 0-.945-.012-.244-.184-.378-.449-.394-.304-.018-.517.103-.543.355a4.8 4.8 0 0 0 0 .984zm-4.705 0c.015-.029.031-.045.031-.063 0-.239.012-.48.012-.718a1 1 0 0 0-.028-.24c-.062-.23-.26-.347-.538-.324-.252.02-.425.163-.435.405-.014.308 0 .617 0 .938z"/><path fill="#5C70D6" d="M10.798 12.788a.644.644 0 0 1-1.102.44.644.644 0 0 1 .463-1.093.63.63 0 0 1 .64.653"/></svg>