<svg xmlns="http://www.w3.org/2000/svg" width="23" height="24" fill="none"><path fill="#11E173" d="M12.458 9.583a.958.958 0 0 0-1.916 0v2.875H7.667a.958.958 0 0 0 0 1.917h2.875v2.875a.958.958 0 0 0 1.916 0v-2.875h2.875a.958.958 0 0 0 0-1.917h-2.875z"/><path fill="#fff" fill-rule="evenodd" d="M5.29 2.534v1.501H1.334C.443 4.044.026 4.468 0 5.352c-.01.498.082.992.27 1.452a6.35 6.35 0 0 0 1.54 2.324q.794.75 1.598 1.501a1.892 1.892 0 0 1 .635 1.501c-.023 1.303-.015 2.606-.008 3.91q.007.977.008 1.955-.011.568.07 1.128a5.8 5.8 0 0 0 1.92 3.482 5.65 5.65 0 0 0 3.69 1.388c.783.01 1.56.007 2.336.004q.581-.003 1.166-.004c.456 0 .911-.052 1.356-.156 1.247-.291 2.36-1 3.161-2.011a5.8 5.8 0 0 0 1.25-3.565 458 458 0 0 0 0-6.38 1.38 1.38 0 0 1 .366-.977 9 9 0 0 1 .546-.536 20 20 0 0 0 1.807-1.804 5.76 5.76 0 0 0 1.193-2.359c.1-.382.122-.781.061-1.173a1.1 1.1 0 0 0-.289-.615 1.1 1.1 0 0 0-.59-.326 2.3 2.3 0 0 0-.555-.043H18.64l-.082.005c-.105.009-.215.018-.307-.097V2.787a4 4 0 0 0-.104-.969c-.29-1.1-1.303-1.812-2.539-1.793a2.44 2.44 0 0 0-1.509.52c-.432.338-.74.812-.877 1.348q-.096.454-.087.918v1.235c-.954.01-1.298.008-1.784.005-.25-.002-.536-.004-.96-.005V2.433A2.3 2.3 0 0 0 9.756.85 2.62 2.62 0 0 0 8.387.06 2.6 2.6 0 0 0 6.82.205c-.94.367-1.511 1.231-1.53 2.33m4.293 7.05a1.917 1.917 0 0 1 3.834 0V11.5h1.916a1.917 1.917 0 1 1 0 3.833h-1.916v1.917a1.917 1.917 0 0 1-3.834 0v-1.917H7.667a1.917 1.917 0 1 1 0-3.833h1.916z" clip-rule="evenodd" opacity=".5"/></svg>