<svg width="20" height="20" viewBox="0 0 20 20" fill="none" xmlns="http://www.w3.org/2000/svg">
<mask id="mask0_202_718" style="mask-type:luminance" maskUnits="userSpaceOnUse" x="0" y="0" width="20" height="20">
<path d="M19.6151 0H0V19.6151H19.6151V0Z" fill="white"/>
</mask>
<g mask="url(#mask0_202_718)">
<g opacity="0.6">
<path opacity="0.05" d="M12.8133 14.7293C12.8574 14.8724 12.8814 15.0216 12.8884 15.1689C12.9055 15.5336 12.7058 15.9505 12.441 16.2047C12.1638 16.4703 11.7524 16.6335 11.3606 16.6335C10.9465 16.6335 10.5792 16.4676 10.2802 16.2047C9.98027 15.9407 9.85054 15.5476 9.83285 15.1689C9.82362 14.974 9.87694 14.7643 9.96848 14.5723C9.93438 14.5723 9.90028 14.5718 9.86618 14.5718C5.30492 14.5718 1.60742 15.6445 1.60742 16.9678C1.60742 18.2912 5.30492 19.3638 9.86618 19.3638C14.4274 19.3638 18.1249 18.2912 18.1249 16.9678C18.1249 15.9458 15.9191 15.0735 12.8133 14.7291V14.7293Z" fill="#F5F5FF"/>
<path d="M12.8862 15.2845C12.8627 15.6189 12.6783 15.9771 12.4409 16.2047C12.1638 16.4703 11.7522 16.6335 11.3606 16.6335C10.9465 16.6335 10.5791 16.4677 10.2801 16.2047C9.98018 15.9407 9.85044 15.5476 9.83275 15.1689C9.83122 15.1357 9.83199 15.102 9.83404 15.0684C6.23293 15.0718 3.31738 15.9211 3.31738 16.9681C3.31738 18.0152 6.24472 18.8681 9.85609 18.8681C13.4674 18.8681 16.3948 18.0174 16.3948 16.9681C16.3948 16.2366 14.9719 15.6017 12.8864 15.2842L12.8862 15.2845Z" fill="#F5F5FF"/>
<path d="M12.6733 15.9129C12.6061 16.0223 12.5272 16.1224 12.4412 16.2047C12.1641 16.4703 11.7526 16.6335 11.3609 16.6335C10.9468 16.6335 10.5794 16.4676 10.2805 16.2047C10.1041 16.0495 9.98718 15.8497 9.91667 15.6346C9.89642 15.6346 9.87642 15.6346 9.85616 15.6346C7.3116 15.6346 5.24902 16.2317 5.24902 16.9683C5.24902 17.705 7.31185 18.302 9.85616 18.302C12.4004 18.302 14.4633 17.705 14.4633 16.9683C14.4633 16.5389 13.7621 16.157 12.6731 15.9129H12.6733Z" fill="#F5F5FF"/>
<path d="M18.869 17.3832C18.868 17.3864 18.8644 17.3899 18.8652 17.393C18.8764 17.4167 18.8595 17.4395 18.8454 17.4626C18.8077 17.5241 18.7587 17.5852 18.7041 17.6457C18.6333 17.7232 18.5498 17.7993 18.4544 17.8748C18.3104 17.9886 18.1388 18.0984 17.9422 18.2056C17.7604 18.3045 17.5578 18.3996 17.3345 18.491C17.2045 18.5441 17.069 18.596 16.9267 18.6464C16.8334 18.6793 16.7373 18.7113 16.6395 18.743C16.4814 18.7939 16.3155 18.8425 16.145 18.89C15.9555 18.9426 15.7579 18.992 15.5525 19.0394C15.3112 19.0952 15.0608 19.1466 14.8029 19.1953C14.458 19.2603 14.0983 19.3179 13.7252 19.3685C13.3702 19.4165 13.0066 19.4575 12.6336 19.4916C11.1519 19.6274 9.55729 19.6521 8.03337 19.5639C7.56804 19.5369 7.10759 19.4995 6.66302 19.4511C6.44535 19.4273 6.23076 19.4017 6.01874 19.3732C5.71545 19.3327 5.4224 19.2866 5.13628 19.237C4.84529 19.1861 4.56558 19.1306 4.29715 19.0703C4.11256 19.029 3.93361 18.986 3.76029 18.9411C3.53339 18.882 3.31675 18.8197 3.11037 18.7545C2.93526 18.6992 2.76836 18.6417 2.61018 18.5822C2.43789 18.5173 2.27586 18.4507 2.12408 18.3816C1.88205 18.2717 1.67003 18.157 1.48646 18.038C1.35083 17.9505 1.23213 17.8608 1.13138 17.7694C1.04472 17.6909 0.970368 17.611 0.909093 17.5302C0.8732 17.4828 0.842179 17.4355 0.815003 17.3877C0.798081 17.3589 0.7868 17.3299 0.773469 17.3008C0.763982 17.2805 0.752702 17.2596 0.747062 17.2387C0.738601 17.2055 0.72168 17.1726 0.72168 17.1391C0.72168 17.118 0.726295 17.0976 0.743215 17.077C0.749881 17.0736 0.757316 17.0698 0.763982 17.0659C0.806286 17.0415 0.875251 17.0263 0.964728 17.019C1.27367 16.9939 1.53184 17.043 1.79258 17.0959C1.85565 17.1096 1.91795 17.1234 1.97897 17.1376C2.00537 17.1441 2.03255 17.1499 2.05999 17.1564C2.09587 17.1644 2.13152 17.1731 2.16817 17.181C2.25201 17.1996 2.33867 17.2175 2.4207 17.2372C2.51121 17.2591 2.60813 17.2785 2.6994 17.3001C2.78502 17.321 2.87732 17.3394 2.96603 17.3596C3.04986 17.3785 3.13549 17.3967 3.21856 17.4159C3.32881 17.4415 3.44187 17.4654 3.5539 17.4901C3.63877 17.5088 3.72337 17.5272 3.80644 17.5465C3.89874 17.5678 3.99488 17.5875 4.08615 17.6088C4.19178 17.6332 4.30099 17.6563 4.40816 17.6799C4.55609 17.7128 4.70018 17.7512 4.79351 17.7986C4.90759 17.8569 4.92631 17.9195 4.83683 17.9861C4.78684 18.0392 4.59943 18.0835 4.42893 18.1027C4.18127 18.1307 3.9213 18.114 3.70184 18.0744C3.57929 18.0525 3.46366 18.0279 3.3506 18.0021C3.23959 17.9773 3.12652 17.953 3.01705 17.9272C2.92373 17.9053 2.82682 17.8842 2.73067 17.8633C2.67504 17.8512 2.6176 17.8404 2.56198 17.8286C2.5289 17.8215 2.49045 17.8181 2.45173 17.8146C2.43379 17.8128 2.41789 17.8148 2.40456 17.8186C2.39148 17.8222 2.38199 17.8261 2.38199 17.8316C2.38199 17.8357 2.38097 17.8399 2.38482 17.8439C2.39712 17.8566 2.40738 17.8698 2.4243 17.8821C2.44891 17.8999 2.47506 17.9176 2.50429 17.9348C2.57505 17.9765 2.64838 18.0186 2.71991 18.0604C2.73016 18.0665 2.74067 18.0724 2.75195 18.0781C2.78502 18.0948 2.81989 18.111 2.85091 18.128C2.90834 18.159 2.97423 18.1882 3.03935 18.2177C3.13063 18.2599 3.22958 18.301 3.33214 18.3413C3.41034 18.3721 3.49237 18.4023 3.57339 18.4328C3.60159 18.4433 3.6298 18.4539 3.66184 18.4635C3.71825 18.4812 3.76645 18.5013 3.82771 18.5178C3.83618 18.5201 3.8408 18.523 3.84849 18.5257C3.86156 18.5301 3.87387 18.5348 3.88797 18.5392C3.98873 18.5689 4.08872 18.5991 4.19126 18.6285C4.29382 18.6577 4.38996 18.6886 4.50405 18.7142C4.58122 18.7366 4.66787 18.756 4.75094 18.7764C4.81683 18.7926 4.88374 18.8084 4.95169 18.8233C5.02885 18.8405 5.10525 18.8583 5.18627 18.8742C5.28139 18.8929 5.37471 18.9124 5.47163 18.9303C5.61391 18.9568 5.75698 18.9831 5.90491 19.0075C6.01797 19.0261 6.1318 19.0433 6.2459 19.0611C6.32691 19.0736 6.41177 19.0836 6.49458 19.0954C6.59252 19.1094 6.69327 19.122 6.79403 19.134C6.97683 19.1559 7.16245 19.1763 7.35063 19.1944C7.48446 19.2072 7.61726 19.2207 7.75367 19.2308C9.27964 19.3464 10.924 19.3491 12.4377 19.2083C12.4613 19.206 12.4849 19.2038 12.5074 19.2016C12.6431 19.1881 12.7797 19.1753 12.9133 19.1601C13.0281 19.1471 13.143 19.1335 13.2561 19.1193C13.372 19.1045 13.4858 19.0886 13.5999 19.0734C13.6735 19.0635 13.744 19.0524 13.8137 19.0409C13.8852 19.0288 13.9606 19.0182 14.0332 19.0065C14.136 18.9897 14.2367 18.9718 14.3355 18.9534C14.5003 18.9228 14.6613 18.8909 14.8205 18.858C14.8712 18.8474 14.9213 18.8361 14.9713 18.8248C15.023 18.813 15.0749 18.8009 15.1259 18.7889C15.1681 18.7791 15.2107 18.7693 15.251 18.7584C15.3169 18.741 15.3894 18.7255 15.4497 18.7068C15.4553 18.7048 15.4627 18.7036 15.4694 18.7022C15.4909 18.6968 15.5145 18.6918 15.5343 18.686C15.6812 18.6437 15.8273 18.6009 15.9732 18.5583C15.9872 18.5542 16.0034 18.5505 16.0147 18.5455C16.0419 18.5338 16.0789 18.5242 16.1108 18.5136C16.1429 18.503 16.1739 18.4921 16.206 18.4815C16.2465 18.4675 16.2888 18.4539 16.3285 18.4397C16.3821 18.4202 16.4339 18.4004 16.486 18.3801C16.568 18.349 16.647 18.3175 16.7234 18.285C16.8213 18.2437 16.9136 18.2017 17.0012 18.1587C17.0587 18.1307 17.1143 18.1027 17.1662 18.0737C17.2434 18.0306 17.3158 17.9871 17.3902 17.9436C17.4005 17.9374 17.411 17.9316 17.4194 17.9257C17.444 17.9087 17.4666 17.8918 17.493 17.8751C17.5525 17.8362 17.6043 17.7962 17.6532 17.7563C17.704 17.7153 17.7502 17.674 17.7945 17.6325C17.8369 17.5929 17.867 17.5506 17.9189 17.512C17.9612 17.4801 18.0111 17.4483 18.0799 17.4201C18.1722 17.3822 18.2983 17.3542 18.4509 17.3404C18.5206 17.3341 18.5911 17.3309 18.6636 17.3331C18.74 17.3355 18.7993 17.3456 18.8359 17.3655C18.8462 17.3715 18.8567 17.3776 18.8669 17.3832H18.8687H18.869Z" fill="#F5F5FF"/>
<path d="M18.9896 16.7721C18.9829 16.7095 18.9529 16.6473 18.9209 16.5853C18.8927 16.5293 18.8567 16.4737 18.8173 16.4182C18.7552 16.3317 18.6778 16.2461 18.5865 16.1621C18.4724 16.0571 18.3378 15.9547 18.1787 15.8546C17.995 15.7386 17.7841 15.627 17.5438 15.5199C17.3903 15.4513 17.2255 15.3852 17.0504 15.321C16.877 15.2575 16.6942 15.1964 16.5001 15.1383C16.3071 15.0801 16.1063 15.0241 15.8946 14.9712C15.7505 14.9353 15.6036 14.9004 15.4528 14.8672C15.1995 14.8109 14.9368 14.7588 14.6634 14.7107C14.395 14.6637 14.122 14.6195 13.8402 14.5797C13.5763 14.5425 13.3079 14.5089 13.0331 14.4792C13.0185 14.4777 13.0036 14.4761 12.989 14.4747C12.9931 14.5032 12.996 14.532 12.9974 14.5613C13.0008 14.6323 12.9926 14.7016 12.9746 14.7677C12.9987 14.7706 13.0231 14.7733 13.0472 14.7763C13.2187 14.7982 13.3892 14.8203 13.554 14.8456C13.6831 14.8655 13.8112 14.886 13.9383 14.9073C14.1381 14.9408 14.3273 14.9779 14.5186 15.0149C14.6204 15.0349 14.7183 15.057 14.8162 15.0786C14.8916 15.0953 14.966 15.112 15.0395 15.1295C15.0951 15.1426 15.147 15.1571 15.2025 15.1703C15.2677 15.1856 15.3252 15.203 15.3882 15.2187C15.5399 15.2558 15.6735 15.2986 15.8149 15.3389C15.8684 15.3596 15.9353 15.3768 15.9938 15.3961C16.0617 15.4188 16.1304 15.4414 16.1945 15.4648C16.315 15.5083 16.4337 15.552 16.5439 15.5977C16.6108 15.6255 16.6778 15.6538 16.7417 15.6823C16.8 15.7091 16.8565 15.7362 16.9131 15.7632C16.9865 15.7981 17.0534 15.834 17.1167 15.8706C17.1354 15.8809 17.159 15.8905 17.1752 15.9011C17.2308 15.9397 17.3034 15.9755 17.3541 16.0146C17.3682 16.0254 17.3805 16.0368 17.3936 16.0476C17.4038 16.0566 17.4031 16.0655 17.3992 16.0749C17.3974 16.0805 17.3785 16.0854 17.3598 16.0864C17.339 16.0872 17.3193 16.0872 17.3006 16.0844C17.2619 16.079 17.2234 16.0737 17.1864 16.067C17.116 16.0542 17.049 16.0397 16.9849 16.0242C16.9341 16.0119 16.8803 16.0006 16.8275 15.9893C16.7588 15.9743 16.6909 15.9591 16.6222 15.9441C16.4865 15.9146 16.3509 15.8851 16.2142 15.8561C16.1445 15.8413 16.0701 15.8288 15.993 15.8175C15.9299 15.8084 15.8659 15.8021 15.7979 15.7978C15.7366 15.7944 15.6746 15.791 15.6105 15.7915C15.4759 15.7924 15.3026 15.8072 15.1941 15.8332C15.1649 15.8401 15.1339 15.846 15.1085 15.8538C15.0095 15.8851 14.9341 15.92 14.9136 15.9627C14.8957 15.9765 14.8995 15.9905 14.8977 16.0048C14.8949 16.0218 14.908 16.0377 14.9221 16.0539C14.9496 16.0849 14.9974 16.113 15.0662 16.1382C15.1283 16.1611 15.198 16.182 15.2772 16.2002C15.3177 16.2096 15.3554 16.2198 15.3969 16.2289C15.4195 16.2338 15.442 16.239 15.4646 16.2442C15.5833 16.2717 15.7066 16.2978 15.8263 16.3248C15.9345 16.3494 16.0448 16.3735 16.1532 16.3981C16.2663 16.4234 16.3829 16.4477 16.4942 16.474C16.5855 16.4957 16.6827 16.515 16.7729 16.5367C16.8406 16.5534 16.9141 16.5681 16.9849 16.5836C17.0508 16.5981 17.1178 16.6126 17.1836 16.6274C17.3041 16.6545 17.4247 16.6813 17.5461 16.7081C17.6093 16.7218 17.6723 16.7356 17.7356 16.7496C17.7666 16.7564 17.7987 16.7636 17.8297 16.7702C17.8456 16.7736 17.8937 16.7884 17.9125 16.7884C18.0179 16.8115 18.1245 16.8351 18.2402 16.8535C18.3825 16.8761 18.5407 16.8926 18.7044 16.8879C18.9155 16.882 18.9955 16.8267 18.9898 16.7716L18.9896 16.7721Z" fill="#F5F5FF"/>
<path d="M10.1215 14.3172C9.10211 14.3081 8.07761 14.3467 7.1044 14.435C6.73316 14.4688 6.37243 14.5094 6.02017 14.5566C5.72713 14.596 5.4446 14.6402 5.1677 14.6879C4.90312 14.7338 4.64879 14.7835 4.4019 14.8371C4.19192 14.8828 3.98835 14.9299 3.79351 14.9806C3.71711 15.0005 3.64096 15.0209 3.56456 15.0413C3.36381 15.094 3.1764 15.1505 2.99668 15.2089C2.84132 15.2591 2.69517 15.3117 2.55391 15.3656C2.22036 15.4928 1.92937 15.6273 1.67889 15.7694C1.51788 15.8605 1.37662 15.9544 1.25305 16.0505C1.18228 16.1058 1.11844 16.1619 1.06102 16.2187C0.989483 16.2887 0.928208 16.36 0.879239 16.4321C0.873599 16.4401 0.869754 16.4485 0.866933 16.4566C0.859498 16.4765 0.865139 16.4964 0.868728 16.5164H0.872573C0.889495 16.5198 0.892315 16.5262 0.9018 16.5311C0.943334 16.5517 1.00538 16.5637 1.0864 16.5675C1.18151 16.5717 1.27484 16.5677 1.36431 16.5579C1.50455 16.5427 1.61582 16.5164 1.7035 16.4812C1.81374 16.4367 1.86092 16.3875 1.91552 16.3359C1.96911 16.2851 2.02013 16.2342 2.08037 16.1838C2.10858 16.1601 2.1396 16.1371 2.16986 16.1137C2.1878 16.0995 2.20652 16.0857 2.22549 16.0717C2.26036 16.0464 2.29984 16.021 2.33753 15.996C2.39957 15.9539 2.47418 15.9134 2.54391 15.8723C2.61365 15.831 2.68979 15.791 2.77081 15.7516C2.86208 15.7072 2.95361 15.6632 3.05539 15.6207C3.12692 15.5904 3.2005 15.5607 3.27768 15.5317C3.35202 15.5032 3.42842 15.4752 3.50457 15.4472C3.51585 15.4432 3.52815 15.4397 3.53944 15.4358C3.56303 15.4284 3.58841 15.4216 3.60635 15.4129C3.60917 15.4115 3.61302 15.4103 3.6166 15.409C3.68249 15.3883 3.74557 15.3668 3.81428 15.3466C3.96118 15.3031 4.1109 15.2606 4.25986 15.2178C4.28242 15.2111 4.3078 15.2058 4.33139 15.1998C4.34165 15.1971 4.35395 15.1947 4.36344 15.1918C4.41703 15.1751 4.47932 15.1618 4.53855 15.1473C4.65726 15.1182 4.77878 15.0904 4.90312 15.0636C5.05772 15.0308 5.21385 14.998 5.37589 14.968C5.46998 14.9506 5.56433 14.9334 5.66124 14.9169C5.76301 14.8997 5.86557 14.8833 5.96915 14.8671C6.0699 14.8509 6.17168 14.8355 6.27527 14.8213C6.36936 14.8087 6.4637 14.7963 6.55779 14.7842C6.69444 14.7667 6.83367 14.7515 6.97211 14.7351C6.9957 14.7321 7.02005 14.7297 7.04466 14.7271C7.10696 14.7213 7.16901 14.7149 7.23105 14.708C7.29027 14.7017 7.35155 14.6972 7.4118 14.6916C8.23144 14.6173 9.09775 14.5841 9.96073 14.5885C10.0053 14.4924 10.0594 14.4007 10.1207 14.3172H10.1215Z" fill="#F5F5FF"/>
</g>
<path opacity="0.6" d="M16.1826 10.6397C16.168 10.6175 16.152 10.596 16.1389 10.573C15.7537 9.89642 15.3268 9.24466 14.8764 8.60662C14.4624 8.01968 14.0281 7.44671 13.58 6.88342C13.2508 6.46966 12.9152 6.0611 12.5705 5.65917C12.3171 5.36368 12.0355 5.08263 11.8206 4.75995C11.5595 4.36818 11.3747 3.91893 11.2802 3.46306C11.1936 3.04456 11.1995 2.61541 11.2195 2.191C11.2286 1.99583 11.219 1.78599 11.2673 1.59626C11.3162 1.40369 11.3809 1.21987 11.4759 1.04315C11.6537 0.712186 11.9153 0.458817 12.2551 0.279021C12.4742 0.163337 12.7075 0.0843221 12.9522 0.0377173C13.0877 0.0119308 13.2254 -0.000844075 13.3638 0.00246795C13.465 0.00483367 13.5659 0.0114577 13.6659 0.0275446C13.7172 0.0358247 13.769 0.0424487 13.8206 0.0483631C14.0427 0.0732033 14.2497 0.142992 14.4458 0.243299C14.7862 0.41718 15.0608 0.659194 15.2604 0.976912C15.3969 1.19385 15.4783 1.42876 15.5114 1.68048C15.5274 1.8035 15.5335 1.92628 15.5339 2.05001C15.5343 2.3029 15.5361 2.5558 15.5368 2.80869C15.5373 2.91468 15.5366 3.02043 15.5373 3.12642C15.5373 3.15575 15.5405 3.18508 15.5442 3.21418C15.5471 3.23854 15.5676 3.25795 15.5923 3.26102C15.6165 3.26409 15.6411 3.26599 15.6656 3.26693C15.6961 3.26788 15.7271 3.26741 15.7577 3.26741C16.6872 3.26741 17.6167 3.26741 18.5463 3.26718C18.6262 3.26718 18.7059 3.26907 18.7849 3.28066C19.0174 3.31425 19.217 3.40746 19.369 3.58394C19.4339 3.65941 19.4828 3.74434 19.5193 3.83542C19.577 3.97926 19.6086 4.12854 19.6144 4.28255C19.6197 4.41833 19.6056 4.55223 19.5816 4.68614C19.522 5.02065 19.426 5.34476 19.2905 5.65822C19.118 6.05755 18.8878 6.42376 18.607 6.76112C18.4461 6.9544 18.2704 7.13514 18.0908 7.31234C17.8426 7.55695 17.5841 7.79139 17.3204 8.02063C17.1341 8.18269 16.9466 8.34332 16.7595 8.50466C16.659 8.59125 16.5626 8.68162 16.4772 8.78239C16.4017 8.87158 16.3338 8.96574 16.2768 9.06699C16.2433 9.12684 16.2161 9.18906 16.2028 9.25602C16.1967 9.28771 16.191 9.31965 16.1885 9.35183C16.1857 9.38684 16.1865 9.42233 16.1865 9.45758C16.1865 9.8193 16.1865 10.181 16.1865 10.5427C16.1865 10.5749 16.1846 10.6073 16.1833 10.6395L16.1826 10.6397Z" fill="#F5F5FF"/>
<path opacity="0.6" d="M8.40069 3.22042C8.40044 3.22325 8.40019 3.22609 8.39995 3.22893C8.36934 3.55162 8.24646 3.85892 8.12061 4.15677C8.04165 4.3439 7.94961 4.53789 7.83043 4.70964C7.69915 4.89819 7.52913 5.06379 7.37886 5.23862C7.14665 5.50855 6.91495 5.77895 6.68621 6.05149C6.38812 6.40657 6.09744 6.76711 5.81169 7.13144C5.29942 7.78508 4.80663 8.45199 4.34348 9.13852C4.04366 9.58304 3.75816 10.0358 3.49018 10.4985C3.47834 10.5189 3.47044 10.5419 3.45045 10.5573C3.44872 10.525 3.44551 10.4929 3.44551 10.4608C3.4465 10.143 3.44773 9.82553 3.44897 9.50781C3.44897 9.45482 3.44675 9.4023 3.4391 9.34954C3.42084 9.22487 3.37445 9.11132 3.30387 9.00604C3.23083 8.89674 3.14841 8.79431 3.05588 8.69991C2.98654 8.62918 2.91523 8.56034 2.84096 8.49433C2.66576 8.3382 2.48685 8.18584 2.31215 8.029C2.04342 7.78792 1.77644 7.54497 1.50969 7.30177C1.33622 7.14351 1.17311 6.97577 1.02407 6.7955C0.754111 6.46879 0.534496 6.11322 0.357076 5.73305C0.261827 5.52913 0.176941 5.32141 0.113278 5.10613C0.0663937 4.9474 0.0323409 4.78629 0.0133404 4.62234C-0.00442621 4.46715 -0.00640029 4.31102 0.0116131 4.15559C0.0224706 4.06214 0.0394969 3.96893 0.0703418 3.8795C0.167565 3.59728 0.368673 3.41298 0.659603 3.31693C0.76497 3.28215 0.874283 3.26938 0.985325 3.26962C1.15411 3.26985 1.32289 3.27199 1.49142 3.27175C2.0834 3.27175 2.67562 3.27104 3.2676 3.27057C3.46994 3.27057 3.67253 3.26962 3.87488 3.26843C3.92398 3.2682 3.97308 3.26583 4.02194 3.26276C4.05871 3.26064 4.07574 3.24336 4.07895 3.20598C4.08117 3.17973 4.08191 3.15323 4.08191 3.12673C4.08191 3.02666 4.08166 2.92683 4.08166 2.82675C4.08166 2.65902 4.08191 2.49153 4.08166 2.3238C4.08141 2.18848 4.08537 2.05316 4.09202 1.91808C4.11004 1.55825 4.22059 1.22492 4.41405 0.917848C4.61688 0.595873 4.9051 0.365451 5.26093 0.210732C5.44871 0.129114 5.64464 0.0711545 5.84747 0.0370879C6.0017 0.011065 6.1574 -0.00407573 6.31434 0.000419155C6.61094 0.00917236 6.89891 0.0569601 7.17231 0.172408C7.33593 0.241487 7.48792 0.329018 7.62636 0.437132C7.87953 0.635145 8.08286 0.871244 8.22154 1.15655C8.40488 1.53365 8.40019 1.92944 8.40118 2.33658C8.40192 2.62898 8.4266 2.92848 8.3997 3.22018L8.40069 3.22042Z" fill="#F5F5FF"/>
<path d="M14.3133 12.7044C14.3123 12.7392 14.3109 12.774 14.3101 12.8087C14.307 12.9509 14.2926 13.0923 14.2751 13.2336C14.2534 13.4065 14.2207 13.5776 14.1777 13.7466C13.9983 14.4482 13.6696 15.0782 13.1833 15.6309C12.7436 16.1306 12.2154 16.52 11.5961 16.7947C11.2903 16.9303 10.9722 17.0298 10.6426 17.0949C10.5065 17.1218 10.369 17.1411 10.2305 17.156C10.1161 17.1684 10.0014 17.1723 9.88676 17.1815C9.77843 17.1901 9.66913 17.1895 9.56056 17.1757C9.54255 17.1733 9.52429 17.1728 9.50628 17.1719C8.77331 17.1329 8.0939 16.9275 7.46805 16.5618C6.73241 16.1318 6.16862 15.546 5.76429 14.8179C5.55104 14.434 5.40134 14.0281 5.30762 13.603C5.27889 13.4726 5.25796 13.3407 5.24067 13.2083C5.21243 12.989 5.20221 12.7691 5.20732 12.5485C5.21049 12.4147 5.22923 12.2827 5.25406 12.1512C5.31808 11.8133 5.42982 11.4888 5.56395 11.1709C5.7251 10.7886 5.91814 10.421 6.12773 10.0613C6.37578 9.63574 6.64671 9.22377 6.93177 8.81997C7.33221 8.25278 7.75846 7.70403 8.20199 7.16718C8.62287 6.65764 9.05885 6.16024 9.51017 5.67545C9.54644 5.63647 9.5832 5.59795 9.6202 5.55967C9.63237 5.54684 9.64528 5.53446 9.65866 5.5228C9.67448 5.50879 9.69348 5.49875 9.71441 5.49502C9.77722 5.48405 9.83515 5.49152 9.88067 5.54006C9.89479 5.55524 9.90915 5.57018 9.92352 5.58512C10.3926 6.08205 10.8425 6.59486 11.2779 7.11933C11.702 7.63004 12.11 8.15218 12.4956 8.69043C12.8159 9.13764 13.12 9.59467 13.3958 10.0687C13.6185 10.4513 13.8223 10.8429 13.9888 11.2514C14.0835 11.4839 14.1648 11.7203 14.2246 11.9636C14.2602 12.1076 14.2864 12.2532 14.3023 12.4005C14.3131 12.5016 14.3157 12.6031 14.3135 12.7047L14.3133 12.7044ZM13.0155 13.388C13.0175 13.368 13.0085 13.3547 12.9927 13.3508C12.9751 13.3465 12.9574 13.3423 12.9396 13.34C12.8349 13.3262 12.73 13.3134 12.6253 13.2992C12.5207 13.2847 12.4164 13.2686 12.3118 13.2536C12.2999 13.252 12.2877 13.2522 12.2758 13.2534C12.2666 13.254 12.2587 13.2595 12.2563 13.2685C12.2505 13.291 12.2434 13.3134 12.2403 13.3363C12.2322 13.3997 12.2154 13.4616 12.1994 13.5234C12.1416 13.7473 12.0531 13.9593 11.9262 14.1555C11.8077 14.3395 11.6631 14.5019 11.4912 14.6424C11.3174 14.7846 11.1263 14.8996 10.9194 14.9918C10.746 15.0691 10.5664 15.1279 10.3797 15.1664C10.35 15.1725 10.3432 15.1811 10.3468 15.2078C10.3495 15.2278 10.3532 15.2479 10.3573 15.2677C10.3768 15.3615 10.3989 15.4547 10.4157 15.549C10.4325 15.6433 10.4442 15.7383 10.4581 15.8328C10.4603 15.847 10.4629 15.8613 10.4661 15.8755C10.469 15.889 10.4849 15.8982 10.5009 15.8966C10.5099 15.8956 10.519 15.8952 10.5279 15.8933C10.7921 15.8392 11.046 15.7561 11.2892 15.6435C11.5438 15.5259 11.7792 15.3803 11.9944 15.2038C12.269 14.9788 12.4916 14.7138 12.6645 14.4104C12.8266 14.1257 12.9318 13.8212 12.9958 13.5032C13.0038 13.4632 13.0094 13.4231 13.0153 13.3878L13.0155 13.388Z" fill="#DCE5FA"/>
</g>
</svg>
