<svg width="12" height="12" viewBox="0 0 12 12" fill="none" xmlns="http://www.w3.org/2000/svg">
<path opacity="0.6" d="M9.89964 7.13471C9.89071 7.12113 9.88092 7.10797 9.87291 7.0939C9.63727 6.68002 9.37612 6.28132 9.1006 5.89102C8.84735 5.53197 8.58167 5.18147 8.30756 4.83689C8.10618 4.58378 7.90088 4.33386 7.69002 4.08799C7.53501 3.90723 7.36275 3.7353 7.23129 3.53791C7.07157 3.29825 6.95852 3.02344 6.90071 2.74457C6.84774 2.48856 6.85135 2.22604 6.86358 1.96642C6.86915 1.84703 6.86327 1.71866 6.89282 1.6026C6.92273 1.4848 6.96231 1.37235 7.02043 1.26425C7.12919 1.06179 7.28922 0.906795 7.49708 0.796809C7.63111 0.726042 7.77383 0.677707 7.92352 0.649197C8.00641 0.633423 8.09064 0.625608 8.1753 0.627634C8.23721 0.629081 8.29893 0.633134 8.36011 0.642974C8.39149 0.648039 8.42318 0.652092 8.45474 0.65571C8.59061 0.670905 8.71723 0.713597 8.83719 0.774957C9.04542 0.881324 9.2134 1.02937 9.3355 1.22373C9.419 1.35643 9.4688 1.50013 9.48905 1.65412C9.49884 1.72937 9.50257 1.80448 9.50281 1.88017C9.50306 2.03487 9.50416 2.18957 9.50459 2.34427C9.50489 2.40911 9.50446 2.4738 9.50489 2.53864C9.50489 2.55658 9.50685 2.57452 9.50911 2.59232C9.51089 2.60722 9.52343 2.6191 9.53854 2.62098C9.55334 2.62285 9.56839 2.62402 9.58338 2.62459C9.60203 2.62517 9.621 2.62488 9.63972 2.62488C10.2083 2.62488 10.7769 2.62488 11.3456 2.62474C11.3945 2.62474 11.4432 2.6259 11.4915 2.63299C11.6338 2.65354 11.7559 2.71056 11.8488 2.81851C11.8885 2.86468 11.9185 2.91664 11.9408 2.97235C11.9761 3.06034 11.9954 3.15166 11.999 3.24587C12.0022 3.32893 11.9936 3.41084 11.9789 3.49276C11.9424 3.69739 11.8837 3.89565 11.8008 4.08741C11.6953 4.33169 11.5545 4.55571 11.3827 4.76208C11.2843 4.88031 11.1768 4.99088 11.0669 5.09927C10.9151 5.24891 10.757 5.39232 10.5957 5.53255C10.4817 5.63169 10.367 5.72995 10.2525 5.82865C10.1911 5.88162 10.1321 5.9369 10.0799 5.99854C10.0337 6.0531 9.99213 6.1107 9.95726 6.17264C9.93677 6.20925 9.92013 6.24731 9.912 6.28827C9.90826 6.30766 9.90478 6.3272 9.90325 6.34688C9.90153 6.3683 9.90202 6.39001 9.90202 6.41157C9.90202 6.63285 9.90202 6.85411 9.90202 7.07537C9.90202 7.09507 9.90043 7.11501 9.89964 7.13471Z" fill="#F5F5FF"/>
<path opacity="0.6" d="M5.13927 2.59609C5.13912 2.59782 5.13897 2.59956 5.13882 2.6013C5.1201 2.7987 5.04493 2.98668 4.96794 3.16888C4.91964 3.28336 4.86334 3.40202 4.79043 3.50709C4.71012 3.62243 4.60612 3.72373 4.51419 3.83068C4.37215 3.9958 4.23041 4.16121 4.09048 4.32793C3.90813 4.54514 3.73032 4.7657 3.55552 4.98857C3.24215 5.38841 2.94069 5.79638 2.65737 6.21635C2.47397 6.48827 2.29932 6.76524 2.13539 7.04828C2.12814 7.06076 2.12331 7.07483 2.11108 7.08425C2.11003 7.06449 2.10806 7.04486 2.10806 7.02522C2.10867 6.83082 2.10942 6.63661 2.11018 6.44225C2.11018 6.40984 2.10882 6.37771 2.10414 6.34544C2.09297 6.26917 2.06459 6.19971 2.02142 6.13531C1.97674 6.06845 1.92632 6.00579 1.86971 5.94804C1.8273 5.90477 1.78368 5.86266 1.73824 5.82228C1.63107 5.72677 1.52162 5.63357 1.41476 5.53763C1.25037 5.39015 1.08705 5.24153 0.92387 5.09276C0.817754 4.99595 0.717975 4.89334 0.626804 4.78306C0.461663 4.58321 0.327318 4.36569 0.218786 4.13313C0.16052 4.00839 0.108593 3.88132 0.0696484 3.74963C0.040968 3.65253 0.020137 3.55398 0.00851393 3.45368C-0.00235437 3.35875 -0.00356197 3.26324 0.00745729 3.16816C0.0140991 3.111 0.0245145 3.05398 0.0433832 2.99927C0.102857 2.82663 0.22588 2.71389 0.40385 2.65513C0.468305 2.63386 0.535175 2.62604 0.603102 2.62619C0.706352 2.62633 0.8096 2.62764 0.912694 2.62749C1.27482 2.62749 1.6371 2.62706 1.99923 2.62677C2.12301 2.62677 2.24694 2.62619 2.37072 2.62546C2.40075 2.62532 2.43079 2.62387 2.46068 2.62199C2.48317 2.6207 2.49359 2.61013 2.49555 2.58726C2.49691 2.5712 2.49736 2.55499 2.49736 2.53878C2.49736 2.47757 2.49721 2.4165 2.49721 2.35527C2.49721 2.25267 2.49736 2.15021 2.49721 2.04761C2.49706 1.96483 2.49948 1.88205 2.50355 1.79942C2.51457 1.5793 2.5822 1.37539 2.70054 1.18755C2.82462 0.990589 3.00093 0.849634 3.2186 0.754989C3.33347 0.705061 3.45333 0.669606 3.5774 0.648766C3.67175 0.632847 3.767 0.623585 3.863 0.626335C4.04444 0.631689 4.2206 0.660922 4.38784 0.731545C4.48793 0.773802 4.58091 0.827347 4.6656 0.893484C4.82047 1.01461 4.94485 1.15904 5.02968 1.33357C5.14184 1.56425 5.13897 1.80637 5.13957 2.05543C5.14003 2.23429 5.15512 2.41751 5.13867 2.59595L5.13927 2.59609Z" fill="#F5F5FF"/>
<path d="M8.7562 8.39773C8.75559 8.41902 8.75473 8.44031 8.75424 8.46154C8.75234 8.54852 8.74353 8.63502 8.73283 8.72146C8.71955 8.82723 8.69955 8.93189 8.67325 9.03527C8.5635 9.46446 8.36243 9.84985 8.06495 10.1879C7.79597 10.4936 7.47286 10.7318 7.09402 10.8999C6.90695 10.9828 6.71236 11.0437 6.51073 11.0835C6.42748 11.1 6.34337 11.1118 6.25864 11.1209C6.18866 11.1285 6.1185 11.1309 6.04837 11.1365C5.9821 11.1418 5.91524 11.1414 5.84882 11.1329C5.83781 11.1315 5.82664 11.1312 5.81562 11.1306C5.36724 11.1068 4.95163 10.9811 4.56878 10.7574C4.11877 10.4944 3.77388 10.136 3.52655 9.69062C3.39609 9.45577 3.30452 9.20747 3.24719 8.94743C3.22961 8.86766 3.21681 8.78697 3.20623 8.70598C3.18896 8.57183 3.18271 8.43731 3.18583 8.30236C3.18777 8.22052 3.19924 8.13977 3.21442 8.05933C3.25359 7.85262 3.32194 7.65412 3.40399 7.45965C3.50257 7.22579 3.62066 7.00092 3.74887 6.78088C3.90061 6.52055 4.06634 6.26854 4.24072 6.02153C4.48568 5.67456 4.74643 5.33888 5.01775 5.01047C5.27521 4.69877 5.54191 4.3945 5.818 4.09794C5.84019 4.0741 5.86267 4.05053 5.88531 4.02712C5.89275 4.01927 5.90065 4.01169 5.90883 4.00456C5.91851 3.99599 5.93013 3.98985 5.94294 3.98757C5.98136 3.98086 6.0168 3.98543 6.04464 4.01512C6.05328 4.02441 6.06206 4.03354 6.07085 4.04268C6.3578 4.34667 6.63302 4.66037 6.89936 4.9812C7.1588 5.29361 7.40838 5.61302 7.64426 5.94228C7.8402 6.21585 8.02622 6.49543 8.19494 6.78541C8.33117 7.01945 8.45584 7.259 8.55769 7.50889C8.61562 7.65112 8.66536 7.79573 8.70194 7.94457C8.72371 8.03265 8.73974 8.12172 8.74947 8.21183C8.75608 8.27367 8.75754 8.33558 8.7562 8.39773ZM7.9623 8.81591C7.96352 8.80367 7.95802 8.79554 7.94835 8.79315C7.93759 8.79052 7.92676 8.78795 7.91587 8.78655C7.85182 8.7781 7.78765 8.77027 7.7236 8.76159C7.65962 8.75272 7.59581 8.74287 7.53183 8.73369C7.52455 8.73271 7.51709 8.73284 7.50981 8.73357C7.50418 8.73394 7.49934 8.7373 7.49788 8.74281C7.49433 8.75657 7.48999 8.77027 7.48809 8.78428C7.48313 8.82307 7.47286 8.86093 7.46307 8.89874C7.42771 9.0357 7.37357 9.16539 7.29595 9.28541C7.22346 9.39797 7.135 9.49731 7.02985 9.58326C6.92353 9.67025 6.80663 9.74059 6.68006 9.797C6.57399 9.84428 6.46412 9.88025 6.34991 9.9038C6.33174 9.90753 6.32758 9.91279 6.32979 9.92913C6.33144 9.94136 6.3337 9.95366 6.33621 9.96577C6.34814 10.0232 6.36166 10.0802 6.37193 10.1378C6.38221 10.1955 6.38937 10.2536 6.39787 10.3115C6.39922 10.3201 6.40081 10.3289 6.40276 10.3376C6.40454 10.3458 6.41427 10.3515 6.42405 10.3505C6.42956 10.3499 6.43513 10.3496 6.44057 10.3485C6.60219 10.3154 6.7575 10.2645 6.90628 10.1957C7.06202 10.1237 7.20602 10.0347 7.33767 9.92668C7.50565 9.78904 7.64182 9.62694 7.74758 9.44134C7.84674 9.26718 7.9111 9.08091 7.95025 8.88638C7.95514 8.86191 7.95869 8.8375 7.9623 8.81591Z" fill="#DCE5FA"/>
</svg>
