<svg width="24" height="26" viewBox="0 0 24 26" fill="none" xmlns="http://www.w3.org/2000/svg">
<g clip-path="url(#clip0_178_4213)">
<mask id="mask0_178_4213" style="mask-type:luminance" maskUnits="userSpaceOnUse" x="0" y="0" width="24" height="26">
<path d="M24 0H0V25.0552H24V0Z" fill="white"/>
</mask>
<g mask="url(#mask0_178_4213)">
<g opacity="0.5">
<path opacity="0.05" d="M15.6777 18.0211C15.7316 18.1962 15.7611 18.3787 15.7696 18.5589C15.7905 19.0051 15.5462 19.5152 15.2221 19.8262C14.883 20.1512 14.3796 20.3509 13.9003 20.3509C13.3936 20.3509 12.9441 20.1479 12.5784 19.8262C12.2113 19.5032 12.0526 19.0223 12.031 18.5589C12.0197 18.3204 12.0849 18.0639 12.1969 17.829C12.1552 17.829 12.1135 17.8284 12.0718 17.8284C6.49085 17.8284 1.9668 19.1408 1.9668 20.7599C1.9668 22.379 6.49085 23.6914 12.0718 23.6914C17.6526 23.6914 22.1767 22.379 22.1767 20.7599C22.1767 19.5095 19.4778 18.4422 15.6777 18.0209V18.0211Z" fill="white"/>
<path d="M15.7675 18.7003C15.7387 19.1095 15.5131 19.5477 15.2226 19.8262C14.8835 20.1512 14.38 20.3509 13.9008 20.3509C13.3941 20.3509 12.9446 20.148 12.5788 19.8262C12.2118 19.5032 12.0531 19.0223 12.0314 18.5589C12.0295 18.5183 12.0305 18.4771 12.033 18.4359C7.62687 18.4401 4.05957 19.4792 4.05957 20.7602C4.05957 22.0413 7.6413 23.0848 12.06 23.0848C16.4786 23.0848 20.0603 22.044 20.0603 20.7602C20.0603 19.8652 18.3193 19.0885 15.7677 18.6999L15.7675 18.7003Z" fill="white" fill-opacity="0.2"/>
<path d="M15.5058 19.4692C15.4235 19.6031 15.327 19.7255 15.2219 19.8262C14.8828 20.1512 14.3792 20.3509 13.9 20.3509C13.3934 20.3509 12.9439 20.1479 12.5781 19.8262C12.3623 19.6364 12.2192 19.3919 12.1329 19.1288C12.1082 19.1288 12.0837 19.1288 12.0589 19.1288C8.94553 19.1288 6.42188 19.8592 6.42188 20.7605C6.42188 21.6618 8.94584 22.3922 12.0589 22.3922C15.172 22.3922 17.696 21.6618 17.696 20.7605C17.696 20.2352 16.8381 19.7679 15.5055 19.4692H15.5058Z" fill="white"/>
<path d="M23.0879 21.2682C23.0866 21.2721 23.0822 21.2764 23.0831 21.2802C23.0969 21.3092 23.0762 21.337 23.059 21.3654C23.0129 21.4406 22.9529 21.5154 22.8861 21.5893C22.7995 21.6841 22.6973 21.7773 22.5806 21.8696C22.4043 22.0089 22.1944 22.1433 21.9539 22.2744C21.7314 22.3953 21.4836 22.5117 21.2104 22.6236C21.0513 22.6886 20.8854 22.752 20.7113 22.8137C20.5972 22.854 20.4796 22.8931 20.36 22.9319C20.1665 22.9941 19.9635 23.0537 19.7549 23.1117C19.523 23.1761 19.2812 23.2365 19.0299 23.2945C18.7347 23.3628 18.4283 23.4257 18.1128 23.4852C17.6908 23.5648 17.2507 23.6352 16.7942 23.6972C16.3598 23.7559 15.9149 23.806 15.4586 23.8478C13.6457 24.0139 11.6946 24.0442 9.82997 23.9362C9.26062 23.9032 8.69723 23.8574 8.15329 23.7983C7.88696 23.7691 7.6244 23.7378 7.36498 23.7029C6.99389 23.6533 6.63533 23.597 6.28525 23.5362C5.92922 23.474 5.58698 23.4061 5.25854 23.3324C5.03268 23.2818 4.81372 23.2292 4.60166 23.1742C4.32405 23.102 4.05898 23.0257 3.80646 22.9459C3.59221 22.8783 3.388 22.8079 3.19445 22.7352C2.98365 22.6558 2.7854 22.5743 2.59969 22.4897C2.30356 22.3553 2.04414 22.2149 1.81953 22.0693C1.65359 21.9623 1.50835 21.8525 1.38507 21.7407C1.27904 21.6447 1.18807 21.5469 1.1131 21.4481C1.06918 21.39 1.03122 21.3322 0.997974 21.2737C0.977269 21.2384 0.963467 21.2029 0.947156 21.1674C0.935548 21.1425 0.921746 21.117 0.914845 21.0914C0.904493 21.0508 0.883789 21.0105 0.883789 20.9696C0.883789 20.9437 0.889436 20.9188 0.910139 20.8935C0.918295 20.8893 0.927392 20.8848 0.935548 20.88C0.987308 20.8501 1.07169 20.8315 1.18117 20.8225C1.55917 20.7918 1.87506 20.852 2.19408 20.9167C2.27126 20.9335 2.34748 20.9503 2.42214 20.9677C2.45444 20.9756 2.48769 20.9828 2.52127 20.9906C2.56518 21.0005 2.60879 21.0111 2.65363 21.0207C2.75622 21.0435 2.86225 21.0655 2.96262 21.0895C3.07336 21.1164 3.19194 21.14 3.30362 21.1665C3.40838 21.1921 3.52131 21.2146 3.62985 21.2393C3.73242 21.2624 3.8372 21.2847 3.93884 21.3082C4.07373 21.3395 4.21206 21.3687 4.34914 21.399C4.45298 21.4218 4.55649 21.4444 4.65813 21.4679C4.77107 21.494 4.8887 21.5181 5.00037 21.5442C5.12961 21.574 5.26324 21.6023 5.39437 21.6312C5.57537 21.6714 5.75167 21.7184 5.86585 21.7764C6.00544 21.8477 6.02834 21.9244 5.91886 22.0058C5.85769 22.0708 5.62839 22.125 5.41977 22.1484C5.11676 22.1827 4.79867 22.1622 4.53015 22.1138C4.38021 22.0871 4.23873 22.057 4.10039 22.0254C3.96456 21.9951 3.82622 21.9653 3.69227 21.9337C3.57809 21.907 3.45952 21.8811 3.34187 21.8556C3.27381 21.8408 3.20354 21.8276 3.13547 21.8132C3.095 21.8044 3.04795 21.8002 3.00059 21.796C2.97863 21.7938 2.95917 21.7963 2.94287 21.8008C2.92686 21.8053 2.91525 21.8101 2.91525 21.8167C2.91525 21.8218 2.91401 21.827 2.91872 21.8318C2.93377 21.8474 2.94632 21.8636 2.96702 21.8786C2.99714 21.9003 3.02913 21.922 3.06489 21.9431C3.15147 21.9941 3.24119 22.0456 3.32871 22.0967C3.34126 22.1042 3.35411 22.1115 3.36792 22.1184C3.40838 22.1388 3.45104 22.1587 3.489 22.1794C3.55926 22.2173 3.63989 22.2531 3.71957 22.2892C3.83124 22.3408 3.95232 22.3911 4.07781 22.4404C4.17348 22.478 4.27386 22.515 4.37299 22.5524C4.40749 22.5652 4.442 22.5781 4.48121 22.59C4.55023 22.6115 4.6092 22.6362 4.68416 22.6564C4.69452 22.6591 4.70017 22.6627 4.70958 22.666C4.72557 22.6714 4.74063 22.6771 4.75789 22.6825C4.88117 22.7189 5.00351 22.7559 5.12898 22.7917C5.25446 22.8275 5.37209 22.8653 5.51169 22.8966C5.60611 22.924 5.71214 22.9478 5.81377 22.9727C5.89439 22.9925 5.97626 23.0119 6.05939 23.0301C6.15381 23.0512 6.24729 23.0729 6.34642 23.0924C6.4628 23.1153 6.57698 23.1391 6.69557 23.161C6.86966 23.1934 7.04471 23.2256 7.22571 23.2554C7.36404 23.2782 7.50332 23.2993 7.64292 23.321C7.74205 23.3363 7.84587 23.3486 7.9472 23.363C8.06703 23.3802 8.1903 23.3956 8.31358 23.4103C8.53725 23.437 8.76436 23.462 8.99461 23.4842C9.15835 23.4999 9.32085 23.5164 9.48774 23.5287C11.3548 23.6701 13.3668 23.6734 15.2189 23.5011C15.2477 23.4984 15.2766 23.4957 15.3042 23.493C15.4702 23.4764 15.6374 23.4608 15.8008 23.4422C15.9413 23.4263 16.0818 23.4096 16.2202 23.3923C16.362 23.3741 16.5012 23.3547 16.6408 23.3361C16.7309 23.324 16.8171 23.3104 16.9025 23.2964C16.99 23.2816 17.0822 23.2686 17.171 23.2542C17.2968 23.2337 17.42 23.2118 17.5409 23.1892C17.7425 23.1519 17.9396 23.1128 18.1344 23.0725C18.1964 23.0596 18.2577 23.0458 18.3188 23.032C18.3821 23.0175 18.4455 23.0028 18.508 22.9881C18.5597 22.976 18.6118 22.9641 18.6611 22.9507C18.7417 22.9294 18.8304 22.9104 18.9042 22.8876C18.911 22.8852 18.9201 22.8837 18.9282 22.882C18.9546 22.8753 18.9835 22.8693 19.0076 22.8621C19.1874 22.8103 19.3662 22.758 19.5447 22.7059C19.5619 22.7009 19.5817 22.6963 19.5955 22.6903C19.6288 22.6759 19.674 22.6642 19.7131 22.6512C19.7524 22.6383 19.7903 22.6248 19.8296 22.6119C19.8791 22.5948 19.9308 22.5781 19.9795 22.5607C20.045 22.537 20.1084 22.5127 20.1721 22.4879C20.2725 22.4498 20.3691 22.4112 20.4626 22.3715C20.5824 22.321 20.6954 22.2696 20.8026 22.217C20.8728 22.1827 20.9409 22.1484 21.0043 22.1129C21.0988 22.0603 21.1875 22.0071 21.2784 21.9538C21.2911 21.9463 21.3039 21.9391 21.3142 21.9319C21.3443 21.9112 21.372 21.8905 21.4043 21.87C21.477 21.8224 21.5405 21.7735 21.6003 21.7247C21.6624 21.6745 21.7189 21.624 21.7731 21.5732C21.825 21.5247 21.8619 21.473 21.9254 21.4258C21.9771 21.3867 22.0382 21.3479 22.1224 21.3133C22.2352 21.267 22.3895 21.2327 22.5762 21.2158C22.6616 21.2081 22.7478 21.2041 22.8366 21.2068C22.93 21.2098 23.0026 21.2221 23.0474 21.2465C23.06 21.2538 23.0728 21.2613 23.0853 21.2682H23.0875H23.0879Z" fill="white"/>
<path d="M23.2355 20.5206C23.2274 20.4439 23.1906 20.3678 23.1515 20.292C23.117 20.2235 23.073 20.1555 23.0248 20.0875C22.9488 19.9817 22.8541 19.877 22.7424 19.7742C22.6028 19.6458 22.4381 19.5204 22.2434 19.398C22.0187 19.256 21.7605 19.1194 21.4666 18.9884C21.2787 18.9045 21.0771 18.8236 20.8628 18.7451C20.6508 18.6675 20.4271 18.5926 20.1895 18.5216C19.9534 18.4504 19.7077 18.3819 19.4487 18.3171C19.2724 18.2733 19.0926 18.2305 18.9082 18.1899C18.5982 18.121 18.2767 18.0573 17.9423 17.9984C17.6139 17.941 17.2798 17.8868 16.9351 17.8382C16.6122 17.7927 16.2838 17.7515 15.9475 17.7151C15.9296 17.7133 15.9115 17.7114 15.8936 17.7097C15.8986 17.7446 15.9021 17.7797 15.9039 17.8156C15.908 17.9025 15.898 17.9873 15.876 18.0682C15.9054 18.0717 15.9353 18.0751 15.9648 18.0786C16.1747 18.1055 16.3833 18.1325 16.5849 18.1634C16.7428 18.1878 16.8995 18.2129 17.0551 18.239C17.2995 18.2799 17.531 18.3253 17.7651 18.3706C17.8897 18.395 18.0095 18.4222 18.1293 18.4485C18.2215 18.469 18.3125 18.4895 18.4025 18.5108C18.4706 18.5268 18.534 18.5446 18.6019 18.5607C18.6817 18.5794 18.752 18.6008 18.8291 18.62C19.0148 18.6654 19.1782 18.7177 19.3512 18.767C19.4167 18.7923 19.4985 18.8134 19.57 18.8371C19.6532 18.8648 19.7372 18.8924 19.8157 18.921C19.9631 18.9742 20.1083 19.0277 20.2432 19.0837C20.325 19.1177 20.407 19.1522 20.4851 19.1871C20.5566 19.2199 20.6257 19.2531 20.6949 19.2861C20.7847 19.3289 20.8666 19.3727 20.944 19.4175C20.9669 19.4302 20.9958 19.4419 21.0156 19.4548C21.0837 19.502 21.1724 19.5459 21.2345 19.5938C21.2517 19.6069 21.2668 19.6209 21.2829 19.6341C21.2953 19.6452 21.2944 19.656 21.2897 19.6675C21.2875 19.6744 21.2643 19.6804 21.2414 19.6815C21.2159 19.6825 21.1919 19.6825 21.169 19.6792C21.1216 19.6725 21.0745 19.666 21.0294 19.6579C20.9431 19.6422 20.8612 19.6244 20.7828 19.6055C20.7206 19.5904 20.6547 19.5766 20.5901 19.5628C20.5061 19.5445 20.423 19.5258 20.3389 19.5075C20.1729 19.4714 20.0071 19.4352 19.8398 19.3997C19.7545 19.3817 19.6635 19.3663 19.5691 19.3525C19.4919 19.3414 19.4136 19.3337 19.3304 19.3285C19.2554 19.3243 19.1795 19.3201 19.1011 19.3207C18.9364 19.3218 18.7243 19.34 18.5916 19.3718C18.5559 19.3803 18.5179 19.3874 18.4869 19.397C18.3658 19.4352 18.2735 19.478 18.2484 19.5303C18.2266 19.5472 18.2312 19.5643 18.229 19.5817C18.2255 19.6025 18.2416 19.622 18.2589 19.6418C18.2924 19.6798 18.351 19.7141 18.4352 19.745C18.5111 19.773 18.5964 19.7985 18.6933 19.8208C18.7429 19.8323 18.7889 19.8448 18.8398 19.8559C18.8674 19.862 18.895 19.8683 18.9226 19.8747C19.0678 19.9083 19.2187 19.9402 19.3652 19.9733C19.4976 20.0034 19.6325 20.0328 19.7651 20.0629C19.9035 20.0938 20.0462 20.1237 20.1823 20.1558C20.294 20.1823 20.4129 20.206 20.5234 20.2325C20.6062 20.253 20.6962 20.2709 20.7828 20.2899C20.8633 20.3077 20.9453 20.3254 21.0259 20.3434C21.1734 20.3766 21.3208 20.4094 21.4695 20.4422C21.5467 20.4589 21.6238 20.4758 21.7012 20.4929C21.7392 20.5013 21.7784 20.5101 21.8164 20.5182C21.8358 20.5224 21.8948 20.5404 21.9177 20.5404C22.0466 20.5687 22.1771 20.5976 22.3187 20.6201C22.4928 20.6478 22.6863 20.668 22.8867 20.6622C23.145 20.655 23.2428 20.5874 23.2358 20.5199L23.2355 20.5206Z" fill="white"/>
<path d="M12.3835 17.5169C11.1362 17.5058 9.88272 17.553 8.69195 17.661C8.23772 17.7024 7.79635 17.7521 7.36534 17.8098C7.0068 17.858 6.66111 17.9121 6.32232 17.9704C5.99859 18.0266 5.6874 18.0874 5.38532 18.1529C5.1284 18.2089 4.87933 18.2666 4.64093 18.3286C4.54745 18.3529 4.45428 18.3779 4.3608 18.4028C4.11518 18.4672 3.88587 18.5364 3.66597 18.6079C3.47588 18.6693 3.29707 18.7336 3.12423 18.7996C2.71611 18.9552 2.36008 19.1198 2.0536 19.2936C1.85659 19.4051 1.68375 19.52 1.53256 19.6376C1.44598 19.7053 1.36787 19.7738 1.2976 19.8433C1.21008 19.929 1.1351 20.0163 1.07519 20.1044C1.06829 20.1142 1.06358 20.1245 1.06013 20.1345C1.05104 20.1587 1.05794 20.1832 1.06233 20.2076H1.06703C1.08774 20.2117 1.09119 20.2195 1.10279 20.2256C1.15361 20.2508 1.22953 20.2655 1.32866 20.2701C1.44503 20.2752 1.55922 20.2703 1.6687 20.2583C1.84029 20.2397 1.97642 20.2076 2.08371 20.1645C2.2186 20.1101 2.27631 20.0499 2.34313 19.9868C2.40869 19.9246 2.47112 19.8623 2.54483 19.8007C2.57934 19.7717 2.61729 19.7435 2.65432 19.7149C2.67627 19.6975 2.69918 19.6806 2.72239 19.6635C2.76505 19.6325 2.81336 19.6015 2.85947 19.5709C2.93538 19.5194 3.02667 19.4698 3.11199 19.4196C3.19732 19.369 3.29048 19.3201 3.38961 19.2719C3.50128 19.2175 3.61328 19.1637 3.7378 19.1116C3.82532 19.0747 3.91535 19.0383 4.00978 19.0028C4.10075 18.9679 4.19423 18.9337 4.2874 18.8994C4.30119 18.8946 4.31625 18.8903 4.33006 18.8855C4.35892 18.8765 4.38997 18.8681 4.41193 18.8575C4.41538 18.8558 4.42009 18.8543 4.42448 18.8527C4.5051 18.8274 4.58227 18.801 4.66634 18.7764C4.84608 18.7231 5.02927 18.6711 5.21153 18.6187C5.23914 18.6106 5.27019 18.6041 5.29905 18.5968C5.3116 18.5935 5.32666 18.5905 5.33826 18.5869C5.40383 18.5665 5.48005 18.5502 5.55251 18.5324C5.69776 18.4969 5.84645 18.4629 5.99859 18.4301C6.18775 18.39 6.37878 18.3499 6.57704 18.3132C6.69216 18.2918 6.8076 18.2708 6.92618 18.2507C7.05071 18.2296 7.17619 18.2095 7.30292 18.1897C7.4262 18.1698 7.55073 18.1511 7.67747 18.1337C7.7926 18.1183 7.90803 18.103 8.02315 18.0882C8.19035 18.0669 8.36069 18.0483 8.53008 18.0282C8.55895 18.0245 8.58874 18.0215 8.61885 18.0184C8.69509 18.0113 8.771 18.0034 8.84691 17.995C8.91937 17.9873 8.99435 17.9818 9.06807 17.9749C10.0709 17.8841 11.1309 17.8434 12.1868 17.8488C12.2414 17.7313 12.3076 17.6191 12.3825 17.5169H12.3835Z" fill="white"/>
</g>
<path opacity="0.5" d="M19.7997 13.0175C19.7818 12.9902 19.7623 12.964 19.7463 12.9359C19.2749 12.1081 18.7526 11.3107 18.2016 10.53C17.6951 9.8119 17.1636 9.11088 16.6154 8.42171C16.2126 7.91547 15.802 7.4156 15.3801 6.92384C15.0701 6.56232 14.7256 6.21846 14.4626 5.82367C14.1432 5.34434 13.9171 4.79469 13.8014 4.23693C13.6955 3.72491 13.7027 3.19985 13.7271 2.68059C13.7383 2.4418 13.7265 2.18506 13.7857 1.95294C13.8455 1.71732 13.9247 1.49242 14.0409 1.27621C14.2585 0.87128 14.5785 0.561286 14.9943 0.341308C15.2624 0.199771 15.5478 0.103097 15.8473 0.0460763C16.013 0.0145269 16.1815 -0.001103 16.3508 0.00294921C16.4746 0.00584365 16.5981 0.0139481 16.7204 0.0336302C16.7832 0.0437608 16.8466 0.0518651 16.9097 0.0591013C17.1815 0.0894929 17.4347 0.174878 17.6747 0.297603C18.0912 0.510344 18.4272 0.806445 18.6714 1.19517C18.8384 1.46058 18.938 1.748 18.9784 2.05597C18.9981 2.20648 19.0056 2.3567 19.006 2.50809C19.0065 2.8175 19.0087 3.12692 19.0096 3.43633C19.0102 3.566 19.0093 3.69539 19.0102 3.82506C19.0102 3.86095 19.0141 3.89683 19.0186 3.93244C19.0222 3.96225 19.0473 3.98599 19.0775 3.98974C19.1071 3.9935 19.1372 3.99582 19.1672 3.99698C19.2046 3.99814 19.2424 3.99756 19.2798 3.99756C20.4172 3.99756 21.5545 3.99756 22.6918 3.99728C22.7896 3.99728 22.8872 3.99959 22.9838 4.01377C23.2682 4.05488 23.5125 4.16892 23.6984 4.38483C23.7778 4.47717 23.8376 4.58108 23.8823 4.69252C23.9529 4.86849 23.9916 5.05114 23.9988 5.23957C24.0052 5.4057 23.988 5.56953 23.9586 5.73335C23.8856 6.14263 23.7682 6.53917 23.6024 6.92268C23.3914 7.41126 23.1097 7.85932 22.7661 8.27207C22.5692 8.50854 22.3543 8.72967 22.1345 8.94648C21.8308 9.24575 21.5146 9.53259 21.1919 9.81306C20.964 10.0113 20.7345 10.2079 20.5056 10.4053C20.3827 10.5112 20.2647 10.6218 20.1602 10.7451C20.0678 10.8542 19.9848 10.9694 19.915 11.0933C19.874 11.1665 19.8408 11.2426 19.8244 11.3245C19.817 11.3633 19.81 11.4024 19.8069 11.4418C19.8036 11.4846 19.8045 11.528 19.8045 11.5711C19.8045 12.0137 19.8045 12.4563 19.8045 12.8988C19.8045 12.9382 19.8022 12.9778 19.8006 13.0172L19.7997 13.0175Z" fill="white"/>
<path opacity="0.5" d="M10.2788 3.94016C10.2785 3.94362 10.2782 3.9471 10.2779 3.95057C10.2405 4.34538 10.0901 4.72136 9.93615 5.08577C9.83954 5.31472 9.72692 5.55206 9.5811 5.7622C9.42047 5.99289 9.21245 6.19549 9.02858 6.4094C8.74447 6.73965 8.46097 7.07049 8.18109 7.40393C7.81637 7.83837 7.46071 8.27949 7.11108 8.72523C6.4843 9.52496 5.88135 10.3409 5.31465 11.1809C4.94782 11.7247 4.59849 12.2787 4.27061 12.8448C4.25612 12.8697 4.24646 12.8978 4.22199 12.9167C4.21988 12.8772 4.21596 12.8379 4.21596 12.7986C4.21717 12.4098 4.21867 12.0214 4.22019 11.6327C4.22019 11.5679 4.21748 11.5036 4.20811 11.4391C4.18577 11.2865 4.129 11.1476 4.04265 11.0188C3.95328 10.8851 3.85244 10.7597 3.73923 10.6442C3.65438 10.5577 3.56713 10.4735 3.47625 10.3927C3.26189 10.2017 3.04299 10.0153 2.82923 9.82339C2.50044 9.52844 2.17377 9.23118 1.8474 8.93363C1.63514 8.74 1.43557 8.53478 1.25321 8.31422C0.922907 7.9145 0.654199 7.47946 0.437116 7.01433C0.320576 6.76484 0.216714 6.5107 0.138819 6.2473C0.0814539 6.05309 0.0397889 5.85599 0.0165409 5.65539C-0.00519736 5.46552 -0.00761274 5.27449 0.0144275 5.08432C0.0277121 4.96999 0.0485446 4.85595 0.0862847 4.74654C0.205242 4.40124 0.451307 4.17576 0.807272 4.05824C0.936193 4.01569 1.06994 4.00006 1.20581 4.00036C1.41232 4.00064 1.61884 4.00325 1.82504 4.00296C2.54935 4.00296 3.27396 4.0021 3.99827 4.00152C4.24585 4.00152 4.49373 4.00036 4.74131 3.9989C4.80139 3.99862 4.86146 3.99572 4.92125 3.99196C4.96624 3.98936 4.98707 3.96822 4.991 3.92249C4.99371 3.89037 4.99461 3.85795 4.99461 3.82554C4.99461 3.7031 4.99432 3.58095 4.99432 3.45852C4.99432 3.2533 4.99461 3.04838 4.99432 2.84316C4.99401 2.6776 4.99885 2.51203 5.00699 2.34677C5.02904 1.90652 5.1643 1.4987 5.401 1.123C5.64918 0.729063 6.00183 0.447145 6.4372 0.257849C6.66695 0.15799 6.90668 0.0870773 7.15486 0.0453974C7.34356 0.0135586 7.53407 -0.00496579 7.7261 0.000533638C8.089 0.0112431 8.44135 0.0697106 8.77587 0.210959C8.97605 0.295477 9.16203 0.40257 9.33141 0.534846C9.64118 0.777111 9.88996 1.06598 10.0596 1.41504C10.284 1.87642 10.2782 2.36066 10.2794 2.85879C10.2803 3.21654 10.3105 3.58297 10.2776 3.93986L10.2788 3.94016Z" fill="white"/>
<path d="M17.5122 15.5436C17.5111 15.5863 17.5093 15.6288 17.5084 15.6713C17.5045 15.8452 17.4869 16.0183 17.4655 16.1911C17.439 16.4026 17.399 16.612 17.3463 16.8187C17.1268 17.6771 16.7247 18.448 16.1296 19.1242C15.5917 19.7356 14.9454 20.212 14.1876 20.5481C13.8135 20.714 13.4242 20.8357 13.0209 20.9153C12.8545 20.9482 12.6862 20.9719 12.5167 20.9901C12.3768 21.0053 12.2365 21.0101 12.0962 21.0213C11.9636 21.0318 11.8299 21.031 11.6971 21.0142C11.675 21.0113 11.6527 21.0107 11.6307 21.0096C10.7338 20.9619 9.90255 20.7106 9.13679 20.2631C8.23671 19.7371 7.54688 19.0203 7.05216 18.1295C6.79125 17.6597 6.60808 17.1631 6.4934 16.6431C6.45826 16.4835 6.43265 16.3221 6.4115 16.1602C6.37694 15.8918 6.36444 15.6227 6.37069 15.3529C6.37456 15.1892 6.39749 15.0276 6.42788 14.8668C6.50621 14.4534 6.64293 14.0563 6.80704 13.6675C7.00421 13.1997 7.2404 12.7499 7.49685 12.3098C7.80036 11.7892 8.13185 11.2851 8.48063 10.7911C8.97059 10.0971 9.49212 9.42575 10.0348 8.76893C10.5498 8.14551 11.0832 7.53695 11.6354 6.94381C11.6798 6.89612 11.7248 6.849 11.77 6.80216C11.7849 6.78645 11.8007 6.77132 11.8171 6.75704C11.8365 6.73991 11.8597 6.72762 11.8853 6.72306C11.9622 6.70964 12.033 6.71877 12.0887 6.77817C12.106 6.79673 12.1236 6.81501 12.1412 6.83329C12.7151 7.44128 13.2656 8.0687 13.7983 8.71038C14.3172 9.33523 14.8164 9.97406 15.2883 10.6326C15.6801 11.1798 16.0521 11.7389 16.3897 12.3189C16.6621 12.787 16.9115 13.2661 17.1152 13.7659C17.231 14.0504 17.3305 14.3396 17.4037 14.6373C17.4472 14.8134 17.4794 14.9916 17.4988 15.1719C17.512 15.2955 17.5152 15.4197 17.5125 15.544L17.5122 15.5436ZM15.9244 16.3801C15.9268 16.3555 15.9157 16.3393 15.8964 16.3344C15.8749 16.3293 15.8532 16.3241 15.8315 16.3213C15.7034 16.3044 15.575 16.2887 15.4469 16.2713C15.3189 16.2536 15.1914 16.2339 15.0633 16.2156C15.0488 16.2137 15.0339 16.2139 15.0193 16.2154C15.008 16.2161 14.9983 16.2228 14.9954 16.2339C14.9883 16.2614 14.9797 16.2887 14.9758 16.3167C14.9659 16.3944 14.9454 16.47 14.9258 16.5457C14.8551 16.8196 14.7468 17.0789 14.5916 17.3191C14.4465 17.5441 14.2696 17.7428 14.0593 17.9148C13.8466 18.0887 13.6128 18.2295 13.3596 18.3422C13.1476 18.4368 12.9278 18.5088 12.6993 18.5558C12.663 18.5634 12.6546 18.5738 12.6591 18.6065C12.6624 18.631 12.6669 18.6556 12.6719 18.6798C12.6958 18.7946 12.7229 18.9086 12.7434 19.024C12.764 19.1394 12.7783 19.2556 12.7952 19.3712C12.7979 19.3886 12.8012 19.4061 12.8051 19.4235C12.8086 19.44 12.828 19.4512 12.8477 19.4492C12.8587 19.448 12.8697 19.4475 12.8807 19.4452C13.2039 19.379 13.5146 19.2773 13.8121 19.1396C14.1237 18.9956 14.4117 18.8175 14.6749 18.6016C15.0109 18.3263 15.2834 18.0022 15.4949 17.6309C15.6932 17.2826 15.8219 16.9101 15.9003 16.5209C15.9101 16.472 15.9169 16.4229 15.9241 16.3798L15.9244 16.3801Z" fill="url(#paint0_linear_178_4213)"/>
</g>
</g>
<defs>
<linearGradient id="paint0_linear_178_4213" x1="11.955" y1="6.71765" x2="12.7525" y2="21.0313" gradientUnits="userSpaceOnUse">
<stop stop-color="#4BA0F8"/>
<stop offset="0.450144" stop-color="#3F94FC"/>
<stop offset="0.69" stop-color="#2C7CF9"/>
<stop offset="0.8903" stop-color="#1663F6"/>
</linearGradient>
<clipPath id="clip0_178_4213">
<rect width="24" height="25.0552" fill="white"/>
</clipPath>
</defs>
</svg>
