<svg width="20" height="20" viewBox="0 0 20 20" fill="none" xmlns="http://www.w3.org/2000/svg">
<path d="M3.7998 16C3.7998 16.6627 4.33726 17.2002 5 17.2002H13.5254C13.0758 18.1457 12.1157 18.7998 11 18.7998H5C3.4536 18.7998 2.2002 17.5464 2.2002 16L2.2002 7C2.2002 5.88432 2.85428 4.92419 3.7998 4.47461L3.7998 16Z" fill="currentColor"/>
<path fill-rule="evenodd" clip-rule="evenodd" d="M14 1.2002C15.5464 1.2002 16.7998 2.4536 16.7998 4V13C16.7998 14.5464 15.5464 15.7998 14 15.7998H8C6.4536 15.7998 5.2002 14.5464 5.2002 13L5.2002 4C5.2002 2.4536 6.4536 1.2002 8 1.2002L14 1.2002ZM8 2.7998C7.33726 2.7998 6.7998 3.33726 6.7998 4L6.7998 13C6.7998 13.6627 7.33726 14.2002 8 14.2002H14C14.6627 14.2002 15.2002 13.6627 15.2002 13V4C15.2002 3.33726 14.6627 2.7998 14 2.7998L8 2.7998Z" fill="currentColor"/>
</svg>
