<svg width="16" height="16" viewBox="0 0 16 16" fill="none" xmlns="http://www.w3.org/2000/svg">
<path fill-rule="evenodd" clip-rule="evenodd" d="M3.96 12.8C3.96 13.3743 4.42665 13.84 5.00103 13.84H10.6895C10.3221 14.5074 9.61534 14.96 8.80083 14.96H5.00103C3.80809 14.96 2.84083 13.9928 2.84083 12.8V5.59999C2.8409 4.78568 3.29281 4.07881 3.96 3.71132V12.8ZM7.40083 1.04001H12.2007C13.3936 1.04001 14.3608 2.00731 14.3608 3.20025V10.3995C14.3608 11.5924 13.3936 12.5596 12.2007 12.5596H7.40083C6.20796 12.5596 5.24164 11.5924 5.24164 10.3995V3.20025C5.24164 2.00736 6.20796 1.04022 7.40083 1.04001ZM7.40083 2.15921C6.82654 2.15931 6.36083 2.62593 6.36083 3.20025V10.3995C6.36083 10.9738 6.82654 11.4404 7.40083 11.4405H12.2007C12.7751 11.4405 13.2417 10.9738 13.2417 10.3995V3.20025C13.2417 2.62586 12.7751 2.15921 12.2007 2.15921H7.40083Z" fill="currentColor"/>
</svg>
