<svg xmlns="http://www.w3.org/2000/svg" id="Layer_2" data-name="Layer 2" viewBox="0 0 149.51 149.48"><defs><style>.cls-1{fill:#676567}.cls-2{fill:#fff}.cls-3{fill:#fefefe}.cls-4{fill:#9cb999}.cls-5{fill:#9e9ea1}.cls-6{fill:#cdd6dd}.cls-7{fill:#d9737f}.cls-8{fill:#de293e}.cls-9{fill:#dd5160}.cls-10{fill:#dd1f2f}.cls-11{fill:#d7ddeb}.cls-12{fill:#dd2e44}.cls-13{fill:#e2e0dd}.cls-14{fill:#d697a3}</style></defs><g id="Layer_1-2" data-name="Layer 1"><path d="M0 74.74V18.45c0-.46.01-.91 0-1.37-.02-1.2.24-2.36.49-3.52.22-1.02.57-1.99.98-2.94.84-1.95 2-3.69 3.49-5.21.84-.86 1.73-1.67 2.74-2.33 1.2-.78 2.46-1.47 3.82-1.96.81-.29 1.64-.49 2.46-.75.22-.07.45-.07.68-.1.29-.04.59-.03.86-.2.14-.09.31-.05.47-.05.74 0 1.48-.02 2.21-.02h113.11c.35 0 .7.02 1.05 0 1.2-.05 2.36.23 3.51.5.41.1.82.18 1.22.32 1.43.48 2.8 1.06 4.07 1.9.58.39 1.16.78 1.71 1.2.4.31.75.67 1.11 1.03.58.57 1.18 1.12 1.66 1.77.94 1.28 1.83 2.6 2.42 4.09.43 1.08.84 2.17 1.04 3.3.18 1.05.46 2.09.38 3.18-.04.56 0 1.12 0 1.69v113.64c0 .54-.04 1.08-.18 1.61-.16.62-.22 1.27-.37 1.91-.15.62-.39 1.2-.59 1.8-.4 1.22-.99 2.35-1.7 3.42-.56.84-1.09 1.72-1.84 2.39-.69.61-1.22 1.39-2.01 1.89-.53.33-1.01.73-1.54 1.07-.62.39-1.25.75-1.91 1.08-.37.18-.78.3-1.15.47-.4.18-.83.23-1.21.44-.42.23-.91.27-1.37.36-.8.16-1.59.41-2.42.42-.63 0-1.26.01-1.9.01H18.18c-.37 0-.74-.01-1.11 0-1.18.04-2.32-.26-3.46-.49-.85-.17-1.64-.47-2.45-.76-.85-.3-1.67-.72-2.45-1.2-.94-.58-1.88-1.17-2.67-1.94-.71-.7-1.48-1.35-2.09-2.15-.62-.81-1.22-1.62-1.71-2.51-.75-1.37-1.32-2.81-1.72-4.34-.19-.73-.19-1.5-.46-2.21-.06-.16-.04-.35-.04-.52-.01-.76-.02-1.51-.02-2.27zm87.09 66.21h-.72c-2.13-.05-4.27.09-6.4-.09-.95-.08-1.92.06-2.88.07-1.92.02-3.85.11-5.77-.07-.85-.08-1.71.04-2.56.07-2.15.06-4.29.02-6.44.01-.16.03-.34-.04-.51.06.17.1.34.04.5.05 2.39 0 4.77.02 7.16.02 5.67 0 11.34 0 17.01-.01.21 0 .42 0 .63-.01.15.01.31.05.49-.05-.19-.06-.35-.04-.5-.04Zm-15.83-.23c.14 0 .28.02.42.02h5.99c.16 0 .31-.02.47-.03.21 0 .42.02.63.02 2.94 0 5.87 0 8.81.01.12 0 .25.05.34-.07.18-.16.4-.11.6-.11h6.98c.26 0 .52 0 .76-.13.07.05.14.05.22 0l.21.15c.12.27.37.15.55.15 3.07-.01 6.14.04 9.21-.05 1.88-.05 3.75-.01 5.63 0 .7 0 1.4.02 2.1.02.05 0 .1.03.15.03h8.39c.11 0 .25.05.32-.1.25-.13.5-.21.8-.1.12.05.28.02.42.02h7.54c.63 0 1.26-.06 1.87-.2 1.45-.35 2.74-.98 3.87-1.99 1.94-1.73 2.98-3.88 3-6.45.04-5.64.01-11.28.01-16.92v-.21q0-.42-.45-.43h-16.76c-.13 0-.17-.1-.21-.19v-8.51c.04-.25.16-.39.43-.3.38.13.76.07 1.14.07h14.28c.38 0 .77 0 1.15.02.27.01.39-.12.42-.36.01-.1 0-.21 0-.32V79.73c0-.58 0-.58-.59-.59h-15.71q-.42 0-.84.03c-.17.01-.26-.07-.29-.23v-4.99c0-1.14-.01-2.28-.02-3.42.06-.36.33-.34.56-.27.28.09.55.08.83.08h5.59c3.3 0 6.6 0 9.91-.01.51 0 .54-.04.55-.53V44.39c-.01-.26-.14-.37-.4-.37h-15.07c-.52 0-1.05-.07-1.56.09-.22.07-.38-.04-.38-.3v-1.42c0-2.36 0-4.73-.01-7.09.03-.2.17-.24.35-.23.26.01.53.03.79.03h15.6c.14 0 .28.01.42-.01.2-.04.35-.13.28-.4-.04-.17-.01-.35-.01-.53V17.87c0-1.43-.28-2.79-.92-4.1-.69-1.4-1.67-2.5-2.92-3.38-1.58-1.11-3.38-1.59-5.29-1.54-1.47.04-2.95.03-4.42.03-4.02 0-8.04 0-12.07-.02-.61 0-.61-.01-.61.6v15.87c0 .19.04.38-.05.57-.06-.01-.12 0-.15-.04-.11-.1-.2-.13-.31 0-.04.05-.04.1 0 .14.08.1.18.09.28.03.02 0 .03-.02.05-.02.31-.08.15.12.14.23-.19.05-.38.07-.57.07h-7.72c-.21 0-.42 0-.62-.09-.01-.09-.04-.18-.03-.26.13-.66.1-1.32.1-1.98-.02-2.16.01-4.32-.02-6.48-.03-1.91.02-3.82.02-5.73 0-.7 0-1.4-.02-2.1-.03-.78 0-.78-.77-.78H81.1c-.45 0-.91.07-1.36-.07-.16-.05-.31.04-.46.1-.17.07-.06.25-.11.37-.09.22-.05.45-.05.68v24.24q0 .89.92.89h8.64c2.53 0 5.06 0 7.59-.01-.09.45.04.9.04 1.35v6.36c0 .38-.12.76-.05 1.14.02.11-.07.14-.17.16-.36-.22-.75-.09-1.12-.09-5.13-.02-10.26 0-15.38-.01-.24 0-.4.03-.41.34 0 .24-.06.48-.06.73v24.87c.01.22.09.36.35.36s.53.02.79.02h15.23c.23 0 .46.01.68-.05.13.3.12.63.12.94.02 2.33.01 4.65 0 6.98 0 .31-.11.62-.03.93H79.83c-.72 0-.72 0-.72.74v6.95c0 .19.05.38-.08.61-.18-.05-.4-.12-.57.05-.76.1-1.53.08-2.29.07-1.79-.03-3.59.09-5.38-.09-.11-.17-.35 0-.46-.17 0-.12.02-.24.02-.37v-6.9c0-.14-.02-.28-.03-.42-.04-.47-.04-.48-.54-.48H53.81c-.19 0-.39-.04-.55.12-.04-.03-.07-.06-.11-.1.03-.15.09-.31.07-.46-.12-.76-.06-1.53-.05-2.3.02-1.88-.09-3.77.06-5.65 0-.07 0-.16-.04-.2-.34-.3.02-.25.15-.32.17.18.4.1.6.1h15.49c.18 0 .35-.02.53-.02.28 0 .37-.15.37-.4 0-.3.02-.6.02-.89V45.22c0-.3-.03-.6-.04-.89 0-.24-.13-.34-.37-.34H44.49c-.35 0-.51.14-.47.48.04.4-.01.8-.01 1.19v10.99c-.11 0-.23.01-.35.02-.68.1-1.36.08-2.03.08h-3.26c-1.01 0-2.02.03-3.03-.07-.24.01-.21-.14-.21-.31V44.72q0-.73-.72-.73H9.38c-.4 0-.45.04-.48.45-.02.28 0 .56 0 .84V69.1c0 .26-.03.53-.02.79 0 .24.1.39.39.38.37-.01.74.03 1.1.03 3.07 0 6.15.02 9.22 0 2.19-.02 4.39.13 6.57-.1.21.16.2.39.2.62 0 1.41-.04 2.82-.04 4.22 0 1.18.03 2.36.04 3.54 0 .24-.02.45-.21.62-.37.05-.72-.11-1.09-.1-5.08.02-10.15.01-15.23.01h-.47c-.4.01-.49.1-.49.5 0 .28.03.56.03.84v24.14c0 .14-.01.28 0 .42.03.32.1.38.42.38.31 0 .63-.01.94-.01h14.33c.45 0 .91.11 1.35-.09.09-.04.21 0 .3.05.09.29.09.58.11.88.02.46-.1.9-.09 1.36.02 1.19 0 2.39 0 3.58 0 .68-.05 1.36.06 2.04.06.37.05.76-.08 1.14-.49.06-.97-.02-1.46-.02-5.08.02-10.16.01-15.23.01h-.42c-.22 0-.28.1-.28.33.01 5.43.02 10.86.01 16.28 0 .67.04 1.33.09 1.99.05.63.21 1.25.44 1.83.51 1.28 1.23 2.42 2.26 3.38 1.56 1.45 3.39 2.25 5.52 2.35 1.37.07 2.74.04 4.11.03 1.61-.02 3.23.1 4.84-.09.18.23.42.28.7.28h7.95c.45 0 .91-.13 1.36-.06.54.09 1.08.05 1.62.06 2.21.06 4.41-.05 6.62-.01 2.65.04 5.3 0 7.95.02.25 0 .44-.07.58-.26.11.05.22.04.33.01.19.06.38.06.57.06h6.64c.33 0 .66-.09.99 0 .12.27.36.17.55.17h8.32c.14 0 .28-.02.42-.03.17 0 .34 0 .51.01Zm-.92-118.61V10.2c0-.32 0-.63-.04-.95-.02-.21-.07-.4-.39-.35-.29.05-.59.02-.88.02H45.37c-.16 0-.32 0-.47-.01-.79-.08-.89 0-.89.78v24.83c0 .6.01.61.62.61h25.46c.17 0 .24-.08.23-.26 0-.53.02-1.05.02-1.58V22.12ZM22 35.13h12.81c.26.02.35-.11.33-.35V9.54c0-.12.01-.25 0-.37-.03-.22-.13-.36-.39-.3-.29.08-.59.05-.89.05H18.1c-.75-.05-1.5.04-2.23.17-.99.17-1.89.62-2.76 1.1-.74.41-1.33 1.01-1.91 1.62-1.09 1.13-1.74 2.49-2.08 4-.19.85-.21 1.73-.21 2.61v16.17c-.01.51 0 .52.51.53h12.59Zm74.96 105.92h14.74c1.22 0 2.44-.02 3.66 0 1.23.02 2.46 0 3.69 0h3.63c-.27-.2-.56-.21-.85-.21H110c-1.14 0-2.25.01-3.37 0-1.13-.02-2.26.04-3.4.01-1.54-.03-3.09 0-4.64-.01-.54 0-1.07.05-1.62.21Zm-44.42-.02c-.13-.07-.16-.09-.19-.09-2.89-.01-5.78.09-8.67-.1-.48-.03-.93.12-1.41.11-2.31-.04-4.63.06-6.94-.11-.43-.03-.83.11-1.25.11-2.39-.01-4.77-.01-7.16-.02-.07 0-.14 0-.21.11h25.83Zm-26.56-33.87v6.09c.22-.76.17-1.43.18-2.08 0-.68.01-1.37 0-2.05-.02-.65.09-1.31-.17-1.96Zm79.85-81.32c-.08.02-.18.04-.19.14 0 .08.09.09.16.09s.15 0 .16-.09c0-.08-.06-.11-.13-.13Zm17.59 88.28c.08 0 .13-.03.17-.09.05-.08.03-.17-.05-.22-.07-.04-.12.03-.16.08-.04.08-.04.16.04.22Zm-97.33-.19c-.01-.07-.02-.18-.13-.17-.11 0-.12.11-.13.19s.02.13.11.14c.11.01.15-.05.15-.16m-.02-35.2c0-.06 0-.15-.08-.16-.1 0-.13.1-.14.18s.04.13.12.12c.09 0 .09-.08.1-.15Zm-.24-8.05c.02.07.06.13.13.15.1.03.11-.06.12-.12 0-.07-.03-.13-.11-.14-.09-.01-.11.05-.13.12Zm97.63 8.2c.09.01.12-.05.13-.12 0-.05-.02-.11-.07-.12a.14.14 0 0 0-.14.12c0 .05.03.09.08.12m-97.48 26.84c-.08 0-.13.05-.13.13s.06.12.14.12c.05 0 .09-.05.09-.11 0-.07-.01-.14-.1-.15Zm97.61-62.12c-.02-.07-.05-.1-.11-.11-.06 0-.1.03-.1.09 0 .08.04.14.12.11.04-.01.06-.07.09-.09m-.13-8.27c-.07 0-.1.06-.11.12-.01.07.01.14.09.15.09 0 .16-.05.17-.14 0-.06-.04-.12-.14-.13Zm.08 35.44c.04-.17 0-.21-.04-.22-.07-.02-.13.02-.12.1 0 .05.04.08.09.09.06 0 .08-.03.07.03" class="cls-2"/><path d="M123.12 70.53c0 1.14.02 2.28.02 3.42v4.99c-.13.15-.08.34-.08.51v25.69c0 .17-.05.35.08.51v8.51c-.14.19-.07.41-.07.61v25.87h-8.41c-.15 0-.32-.04-.46.07-.7 0-1.4-.02-2.1-.02-1.88 0-3.76-.04-5.63 0-3.07.08-6.14.03-9.21.05-.19 0-.43.12-.55-.15l-.06-.49c.07-.19.04-.38.04-.57v-24.2c0-.21-.02-.42-.03-.63.05-.14.05-.29 0-.43.06-.21.04-.42.04-.63V35.78c0-.23.02-.46-.04-.68a.36.36 0 0 0 0-.32q.06-.21.03-.42c.11-.09.09-.22.11-.34.09-.57.19-1.13.39-1.68.53-1.53 1.46-2.78 2.67-3.83 1.22-1.06 2.64-1.68 4.22-1.96.44-.08.92.02 1.31-.29.2.09.41.09.62.09h7.72c.19 0 .38-.01.57-.07.43.22.91.2 1.37.27 1.32.21 2.52.69 3.62 1.45 1.26.88 2.24 2.02 2.9 3.39.42.86.75 1.77.78 2.75.01.4.04.8.17 1.18 0 2.36 0 4.73.01 7.09v1.42c-.14.15-.09.33-.09.5v25.64c0 .19-.05.39.07.56Z" style="fill:#4493cf"/><path d="M70.34 22.11v11.17c0 .53-.03 1.05-.02 1.58 0 .19-.07.26-.23.26H44.63c-.61 0-.62-.02-.62-.61V9.68c0-.78.1-.86.89-.78.16.02.32.01.47.01h23.66c.29 0 .59.03.88-.02.31-.05.37.14.39.35.03.31.04.63.04.95V22.1ZM22 35.13H9.41c-.51 0-.53-.03-.51-.53V18.43c0-.88.02-1.75.21-2.61.34-1.51.99-2.87 2.08-4 .58-.61 1.17-1.21 1.91-1.62.87-.48 1.76-.93 2.76-1.1.74-.13 1.48-.22 2.23-.17h15.76c.3 0 .6.03.89-.05.26-.07.36.08.39.3.02.12 0 .25 0 .37v25.240000000000002c.02.24-.07.37-.33.35H21.99ZM105.37 26.26c-.39.31-.87.22-1.31.29-1.59.28-3 .9-4.22 1.96-1.21 1.05-2.14 2.3-2.67 3.83-.19.55-.3 1.11-.39 1.68-.02.12 0 .25-.11.34-.09-.04-.11-.2-.25-.16s-.16.17-.17.29c0 .21 0 .42-.01.63-2.53 0-5.06.01-7.59.01h-8.64q-.92 0-.92-.89V10c0-.23-.04-.46.05-.68.05-.12-.07-.3.11-.37.14-.06.3-.15.46-.1.45.13.91.07 1.36.07h23.55c.77 0 .74 0 .77.78.03.7.03 1.4.02 2.1 0 1.91-.06 3.82-.02 5.73.04 2.16 0 4.32.02 6.48 0 .66.03 1.33-.1 1.98-.02.08.02.17.03.26ZM123.12 35.33c-.12-.38-.15-.78-.17-1.18-.04-.99-.37-1.89-.78-2.75a8.65 8.65 0 0 0-2.9-3.39 8.6 8.6 0 0 0-3.62-1.45c-.46-.07-.94-.06-1.37-.27 0-.11.16-.32-.14-.23-.02 0-.03.01-.05.02-.1.06-.2.07-.28-.03-.03-.04-.04-.09 0-.14.11-.13.2-.1.31 0 .03.03.09.02.15.04.09-.19.05-.39.05-.57V9.51c0-.62 0-.6.61-.6 4.02.01 8.04.02 12.07.02 1.47 0 2.95 0 4.42-.03 1.91-.05 3.71.43 5.29 1.54 1.25.88 2.23 1.98 2.92 3.38.64 1.31.92 2.67.92 4.1v16.29c0 .18-.03.36.01.53.07.27-.08.36-.28.4-.14.03-.28.01-.42.01h-15.6c-.26 0-.53-.02-.79-.03-.17 0-.31.02-.35.23ZM43.66 56.72c.12 0 .24-.01.35-.02V45.71c0-.4.05-.79.01-1.19-.03-.34.13-.47.47-.48h25.45c.24 0 .36.1.37.34.01.3.04.6.04.89v23.77c0 .3-.01.6-.02.89 0 .24-.09.4-.37.4-.17 0-.35.02-.53.02H53.94c-.2 0-.43.07-.6-.1-.16-.28-.19-.59-.19-.9v-3.46c0-.27-.05-.44-.37-.41-.05-.32-.09-.64-.14-.95.13-.11.05-.17-.05-.24-.1-.5-.23-.99-.42-1.46-1.22-2.96-3.38-4.79-6.51-5.46-.44-.09-.89-.16-1.34-.24-.02-.2-.12-.31-.34-.3-.12 0-.24 0-.33-.1ZM26.16 70.24c-2.19.23-4.38.08-6.57.1-3.07.03-6.15 0-9.22 0-.37 0-.74-.04-1.1-.03-.28 0-.38-.14-.39-.38 0-.26.02-.53.02-.79V45.32c0-.28-.02-.56 0-.84.03-.41.08-.44.48-.45h25.03q.72 0 .72.73v11.65c0 .17-.03.32.21.31-.13.11-.38.12-.32.38-.22.03-.45.07-.67.1-1.21.15-2.37.45-3.43 1.08-2.09 1.24-3.54 2.99-4.2 5.35-.11.06-.15.15-.09.27-.04.3-.09.61-.13.91-.17.2-.17.41-.05.63 0 .07 0 .13-.01.2-.23.12-.14.34-.14.52v3.52c0 .19.05.39-.12.54ZM78.46 87.5c.17-.17.39-.1.57-.05.13-.23.08-.43.08-.61v-6.95c0-.74 0-.74.72-.74h16.43v25.650000000000002c0 .2-.05.38-.11.56-.14.15-.32.12-.49.11-.21-.02-.42-.04-.63-.04h-6.68c0 2.98-.08 5.9.06 8.85h7.8c.07.13.04.27.04.41v25.74c-.24.13-.5.13-.76.13h-6.98c-.2 0-.42-.05-.6.11.03-.19.14-.37.09-.57-.1-.42-.06-.84-.06-1.26v-33.81c0-2.91 0-5.83-.01-8.74 0-.39-.04-.77-.19-1.13-.03-.32.01-.66-.23-.93.03-.17-.03-.28-.2-.34.04-.2-.01-.37-.09-.56-.91-2.16-2.42-3.73-4.57-4.68-.15-.13-.33-.17-.52-.2h-.01c-.11-.14-.25-.14-.4-.12a.64.64 0 0 0-.42-.11c-.08-.11-.19-.13-.32-.1-.11-.11-.26-.09-.39-.11l-1.5-.18c.02-.23-.06-.37-.32-.35h-.31ZM123.12 105.64c-.13-.15-.07-.34-.08-.51V79.44c0-.17-.05-.35.08-.51.04.16.12.24.29.23q.42-.03.84-.03h15.709999999999999c.58 0 .59.01.59.59v25.35c-.03.24-.15.37-.42.36-.38-.02-.77-.02-1.15-.02H124.7c-.38 0-.77.06-1.14-.07-.27-.1-.39.05-.43.3ZM123.12 70.53c-.12-.18-.07-.38-.07-.56V44.33c0-.17-.06-.35.09-.5 0 .25.16.36.38.3.52-.16 1.05-.08 1.56-.09 4.59-.01 9.17 0 13.76 0h1.31c.26 0 .39.11.4.37v25.41c0 .49-.04.53-.55.53-3.3 0-6.6 0-9.91.01h-5.59c-.28 0-.55.01-.83-.08-.23-.07-.51-.09-.56.27ZM26.26 105.37c-.1-.06-.21-.09-.3-.05-.44.2-.9.09-1.35.09H10.28c-.31 0-.63.01-.94.01-.32 0-.39-.06-.42-.38-.01-.14 0-.28 0-.42V80.48c0-.28-.03-.56-.03-.84 0-.4.09-.49.49-.5h.47c5.08 0 10.15 0 15.23-.01.37 0 .72.15 1.09.1.23.2.13.46.13.69v24.6c0 .28-.02.56-.03.84ZM96.16 70.3c-.22.06-.45.05-.68.05H80.25c-.26 0-.53-.03-.79-.02-.26 0-.34-.14-.35-.36V45.1c0-.25.05-.49.06-.73 0-.3.17-.34.41-.34 5.13 0 10.26 0 15.38.01.37 0 .76-.13 1.12.09.23.18.18.44.18.68v24.71c0 .27-.02.52-.11.78ZM123.05 140.64v-25.87c0-.2-.07-.42.07-.61.04.1.08.19.21.19h16.76q.44 0 .45.43v.21c0 5.64.03 11.28-.01 16.92-.02 2.58-1.05 4.73-3 6.45-1.13 1-2.42 1.64-3.87 1.99-.62.15-1.24.2-1.87.2h-7.54c-.14 0-.29.03-.42-.02-.29-.11-.54-.03-.8.1ZM26.15 140.46c-1.61.19-3.22.07-4.84.09-1.37.01-2.74.04-4.11-.03-2.13-.11-3.95-.9-5.52-2.35-1.03-.95-1.75-2.09-2.26-3.38a6.4 6.4 0 0 1-.44-1.83c-.05-.66-.09-1.32-.09-1.99 0-5.43 0-10.86-.01-16.28 0-.23.05-.33.28-.33h.42c5.08 0 10.16 0 15.23-.01.49 0 .97.08 1.46.02 0 .26.02.53.02.79v24.770000000000003c0 .19.04.39-.13.54ZM53.25 79.26c.16-.15.36-.12.55-.12h15.97c.5 0 .5 0 .54.48.01.14.03.28.03.42v6.9c0 .12-.01.24-.02.37.12.17.36 0 .46.17-.12 0-.24.02-.36.01-.26-.01-.32.14-.31.35-.18.08-.37.05-.56.09-.48.11-1 .01-1.44.3-.15-.02-.29.03-.43.09-.32 0-.58.16-.84.32-.71.32-1.39.69-1.99 1.18a.09.09 0 0 0-.09.09c-.06 0-.1.04-.11.1-.04.03-.07.06-.11.09-.08 0-.14.05-.17.14l-.03.02c-.05 0-.08.02-.08.08l-.03.03c-.06 0-.08.02-.08.08l-.02.02c-.06 0-.08.02-.08.08l-.02.02c-.06 0-.08.02-.08.08l-.02.03c-.08.03-.13.09-.14.17-.03.04-.06.07-.09.11-.06.01-.09.05-.09.11-.06.02-.09.05-.09.1-.18.19-.33.39-.44.63-.04.07-.08.14-.13.2-.06.02-.09.06-.08.12-.03.02-.05.05-.05.09-.02.04-.04.07-.07.11-.05.03-.08.07-.06.12-.03.02-.04.05-.04.09-.1.05-.13.14-.17.23l-.03.1c-.06.1-.11.2-.1.32-.08.05-.12.12-.1.21-.08.08-.15.17-.12.3-.07.1-.12.2-.1.33l-.03-.01c-.06.02-.08.06-.07.12 0 .03-.02.06-.03.09-.08.06-.1.15-.07.25l-.03.18c-.1.31-.28.61-.19.96l-.06 1.02c-.09.16-.06.34-.06.52v6.74c0 .47-.01.95-.02 1.42-.15 0-.32-.04-.41.13-.17 0-.35.01-.52 0q-3.39-.075-6.78 0c-.18 0-.35 0-.48-.14V79.24ZM61.46 140.57c-.33-.1-.66 0-.99 0h-6.64c-.19 0-.39 0-.57-.06v-25.45c0-.23.03-.46-.11-.66.19-.09.4-.1.61-.1 2.4 0 4.8 0 7.2-.01.15.09.31.12.49.1 0 .32.03.63.03.95v23.52c0 .21.01.42.02.63 0 .32-.01.63-.02.95 0 .05 0 .1-.01.15Z" class="cls-6"/><path d="M96.16 70.3c.08-.25.11-.51.11-.78V44.81c0-.24.04-.5-.18-.68.09-.02.19-.05.17-.16-.07-.38.05-.76.05-1.14v-6.36c0-.45-.13-.9-.04-1.35 0-.21 0-.42.01-.63 0-.13.03-.25.17-.29.13-.04.15.13.25.16q.03.21-.03.42c-.23.1-.24.21 0 .32.06.22.04.45.04.68v77.86c0 .21.02.42-.03.63-.23.19-.23.23 0 .43.01.21.03.42.03.63v24.2c0 .19.02.39-.04.57-.18.05-.15.21-.15.34-.07.04-.15.04-.22 0V114.7c0-.14.02-.28-.04-.41-.03-.17-.1-.34-.02-.51.09-.2.07-.41.07-.62v-6.39c0-.47-.03-.93-.11-1.39.06-.18.11-.36.11-.56V79.17c-.08-.31.03-.62.03-.93 0-2.33.01-4.65 0-6.98 0-.31.02-.64-.12-.94Z" class="cls-13"/><path d="M26.15 140.46c.17-.15.13-.35.13-.54v-24.77c0-.26-.01-.53-.02-.79.13-.37.14-.76.08-1.14-.11-.68-.05-1.36-.06-2.04-.01-1.19 0-2.39 0-3.58 0-.46.11-.9.09-1.36-.02-.3-.02-.59-.11-.88 0-.28.03-.56.03-.84v-24.6c0-.23.09-.5-.13-.69.19-.17.21-.38.21-.62-.01-1.18-.04-2.36-.04-3.54 0-1.41.03-2.81.04-4.22 0-.23.01-.46-.2-.62.17-.15.12-.36.12-.54v-3.52c0-.18-.09-.4.14-.52.06.12.05.24.05.36 0 2.48-.01 4.95.05 7.43.04 1.35-.03 2.7-.03 4.05-.03 8.98-.02 17.95-.01 26.93 0 1.65 0 3.3.03 4.94.01.78-.02 1.57-.02 2.36-.02 8.98-.01 17.95-.01 26.93v1.42c0 .39.06.45.46.47h.26c3.5 0 6.99-.01 10.49-.01 4.81 0 9.62 0 14.44.01.23 0 .46.02.66-.13.08-.03.13-.02.15.07-.15.19-.33.26-.58.26-2.65-.01-5.3.03-7.95-.02-2.21-.04-4.41.07-6.62.01-.54-.01-1.08.03-1.62-.06-.45-.07-.91.06-1.36.06-2.65.01-5.3 0-7.95 0-.28 0-.52-.05-.7-.28Z" class="cls-4"/><path d="M53.25 79.26v26.06c-.04.04-.09.07-.13.11h-.31c-.09-.17-.05-.34-.05-.52V79.69c0-.17-.04-.35.05-.52h.32l.11.1ZM52.92 140.49c-.02-.09-.07-.1-.15-.07v-25.3c0-.17-.03-.35.05-.52.11-.04.12-.13.13-.22.06 0 .13 0 .19.01h.02c.13.21.11.45.11.67v25.45a.47.47 0 0 1-.33-.01Z" class="cls-11"/><path d="M87.74 95.17c.16.36.19.74.19 1.13 0 2.91.01 5.83.01 8.74v33.81c0 .42-.04.84.06 1.26.05.2-.06.38-.09.57-.1.11-.23.07-.34.07-2.94 0-5.87 0-8.81-.01-.21 0-.42-.01-.63-.02-.1-.1-.22-.09-.34-.09h-6.14c-.14 0-.28-.03-.39.1-.17 0-.34 0-.51-.01-.17-.14-.37-.08-.55-.08h-7.92c-.2 0-.42.08-.59-.11.14 0 .28-.01.42-.02h1.26c.57 0 1.15.03 1.72.02.97 0 1.95.04 2.92-.03h1.26c.64.05 1.28.05 1.91 0h.52c1.08 0 2.16.02 3.24.02.92 0 1.85-.01 2.77-.02h.52c.64.05 1.28.05 1.91 0h1.26c1.48.04 2.95.04 4.43 0h1.48c.12.04.25.04.35-.05.18-.11.2-.26.13-.44.07-.28.04-.56.04-.84V98.78c0-1.12 0-2.24-.11-3.36.01-.08.02-.16.04-.24Z" class="cls-7"/><path d="M53.14 79.16h-.32c-.09-.22-.05-.45-.05-.67V65.47c.31-.03.37.14.37.41-.01 1.15 0 2.31 0 3.46 0 .32.03.62.19.9-.13.07-.49.02-.15.32.04.04.05.13.04.2-.15 1.88-.04 3.77-.06 5.65 0 .76-.07 1.53.05 2.3.02.15-.04.31-.07.46Z" class="cls-3"/><path d="M96.96 141.05c.55-.17 1.08-.22 1.62-.21 1.55.01 3.09-.02 4.64.01 1.13.02 2.26-.03 3.4-.01 1.12.02 2.25 0 3.37 0h11.83c.29 0 .58.01.85.21h-3.63c-1.23 0-2.46.02-3.69 0-1.22-.02-2.44 0-3.66 0H96.95ZM87.11 141.04c-.21 0-.42.01-.63.01-5.67 0-11.34.01-17.01.01-2.39 0-4.77-.01-7.16-.02v-.11c2.15 0 4.3.05 6.44-.01.85-.02 1.72-.14 2.56-.07 1.92.18 3.85.08 5.77.07.96 0 1.92-.14 2.88-.07 2.14.17 4.27.03 6.4.09h.72c0 .03.01.06.01.09ZM52.54 141.03H26.71c.08-.1.14-.11.21-.11 2.39 0 4.77 0 7.16.02.42 0 .82-.14 1.25-.11 2.31.18 4.62.08 6.94.11.48 0 .93-.14 1.41-.11 2.89.19 5.78.08 8.67.1.03 0 .06.03.19.09Z" class="cls-1"/><path d="M35.02 57.11c-.06-.26.19-.27.32-.38 1.01.1 2.02.07 3.03.07h3.26c.68 0 1.36.02 2.03-.08.09.11.21.11.33.1.21-.01.31.1.34.3-.28.01-.56.04-.84.04h-7.84c-.21 0-.42.01-.63-.05" class="cls-3"/><path d="M70.12 87.85c-.01-.22.05-.37.31-.35.12 0 .24 0 .36-.01 1.79.18 3.59.06 5.38.09.76.01 1.53.03 2.29-.07h.31c.26-.02.33.12.32.35-2.99.1-5.98.09-8.97 0Z" class="cls-11"/><path d="M25.98 107.16c.26.65.16 1.31.17 1.96.02.68 0 1.36 0 2.05 0 .66.05 1.32-.18 2.08v-6.09Z" class="cls-2"/><path d="M61.69 140.52c.17.19.39.11.59.11h7.92c.19 0 .39-.06.55.08-.14 0-.28.03-.42.03h-8.32c-.19 0-.44.1-.55-.17 0-.05 0-.1.01-.15h.12z" class="cls-14"/><path d="M114.18 140.7c.14-.1.3-.07.46-.07h8.41c-.07.15-.21.1-.32.1h-8.39c-.05 0-.1-.02-.15-.03Z" class="cls-6"/><path d="M71.27 140.72c.11-.12.25-.1.39-.1h6.14c.12 0 .25-.01.34.09-.16 0-.31.03-.47.03h-5.99c-.14 0-.28-.01-.42-.02Z" class="cls-14"/><path d="M105.83 25.84c.07.02.14.06.13.13 0 .09-.09.09-.16.09s-.17-.01-.16-.09c0-.09.11-.11.19-.14ZM123.41 114.12c-.07-.06-.08-.14-.04-.22.03-.06.08-.13.16-.08s.1.13.05.22c-.04.06-.09.1-.17.09ZM26.09 113.93c0 .11-.04.17-.15.16-.08 0-.12-.07-.11-.14.01-.08.02-.19.13-.19s.12.1.13.17" class="cls-2"/><path d="M26.07 78.73c0 .07-.01.14-.1.15-.08 0-.13-.04-.12-.12s.04-.18.14-.18c.08 0 .07.09.08.16ZM96.48 140.44c0-.14-.03-.29.15-.34l.06.49z" class="cls-6"/><path d="M25.83 70.68c.02-.07.05-.13.13-.12s.11.08.11.14-.01.15-.12.12c-.07-.02-.11-.07-.13-.15Z" class="cls-5"/><path d="M123.46 78.88a.12.12 0 0 1-.08-.12c0-.08.06-.13.14-.12.05 0 .07.06.07.12 0 .07-.03.13-.13.12" class="cls-6"/><path d="M25.98 105.72c.08.01.1.08.1.15 0 .05-.03.1-.09.11-.08 0-.13-.04-.14-.12 0-.08.04-.12.13-.13Z" class="cls-2"/><path d="M123.59 43.6s-.05.08-.09.09c-.08.02-.12-.03-.12-.11 0-.06.05-.09.1-.09.06 0 .09.03.11.11M123.46 35.33c.1 0 .14.07.14.13 0 .09-.08.15-.17.14-.07 0-.1-.08-.09-.15s.04-.12.11-.12Z" class="cls-5"/><path d="M62.32 140.94v.11c-.16 0-.34.05-.5-.05.17-.1.34-.03.51-.06ZM87.11 141.04s0-.06-.01-.09c.15 0 .31-.03.5.04-.18.1-.33.06-.49.05" class="cls-6"/><path d="M123.54 70.77c.02-.06 0-.02-.07-.03-.05 0-.09-.03-.09-.09 0-.09.05-.12.12-.1.04 0 .08.05.04.22" class="cls-5"/><path d="M96.64 114.7c-.22-.2-.22-.24 0-.43.04.14.05.29 0 .43M96.64 35.1c-.23-.11-.22-.22 0-.32.04.11.04.22 0 .32" class="cls-6"/><path d="M35.02 57.11c.21.06.42.05.63.05h7.84c.28 0 .56-.02.84-.04.45.08.9.15 1.34.24 3.13.67 5.29 2.5 6.51 5.46.19.47.32.96.42 1.46-.06.09-.05.17.05.24.05.32.09.64.14.95v13.02c0 .23-.04.46.05.67-.09.17-.05.34-.05.52v25.22c0 .17-.04.35.05.52-.07.13-.05.27-.05.41v8.07c0 .12-.01.25.05.36q-.09.165 0 .33c-.08.17-.05.35-.05.52v25.3c-.2.15-.43.13-.66.13-4.81 0-9.62-.01-14.44-.01-3.5 0-6.99 0-10.49.01h-.26c-.39-.02-.46-.08-.46-.47v-1.42c0-8.98 0-17.95.01-26.93 0-.79.04-1.58.02-2.36-.03-1.65-.03-3.3-.03-4.94 0-8.98-.01-17.95.01-26.93 0-1.35.07-2.7.03-4.05-.07-2.48-.05-4.95-.05-7.43 0-.12.01-.25-.05-.36 0-.07 0-.13.01-.2.15-.2.13-.41.05-.63.04-.3.09-.61.13-.91.11-.07.16-.15.09-.27.66-2.36 2.11-4.11 4.2-5.35 1.06-.63 2.22-.93 3.43-1.08.22-.03.45-.07.67-.1Z" style="fill:#5d9140"/><path d="M52.64 64.51c-.1-.06-.11-.14-.05-.24.09.06.17.13.05.24M26.5 64.83c.08.22.1.43-.05.63-.12-.22-.11-.43.05-.63M26.72 63.64c.06.12.01.21-.09.27-.06-.12-.02-.21.09-.27" class="cls-4"/><path d="M96.16 105.36c.08.46.11.92.11 1.39v6.39c0 .21.01.42-.07.62-.08.18-.01.34.02.51h-7.8c-.14-2.95-.05-5.87-.06-8.85h6.68c.21 0 .42.02.63.04.17.01.35.05.49-.11Z" class="cls-2"/><path d="M87.71 95.41c.12 1.12.11 2.24.11 3.36v40.39c0 .28.03.56-.04.84-.16-.05-.3-.14-.47-.11-.05-.48.11-.93.11-1.41-.01-5.34 0-10.68 0-16.02 0-1.83-.01-3.65 0-5.48s0-3.66-.03-5.48c-.01-.9 0-1.8-.03-2.7 0-.24-.09-.49-.04-.71.16-.62.06-1.24.07-1.86.03-3.16 0-6.32.02-9.49 0-.56-.17-1.11-.12-1.67 0-.08-.03-.18-.08-.25-.23-.32-.29-.68-.37-1.07-.15-.69-.57-1.3-.94-1.89-.4-.64-.96-1.17-1.54-1.64-.41-.33-.84-.69-1.37-.84-.63-.17-1.15-.61-1.81-.69-.07 0-.13-.05-.18-.1-.16-.14-.34-.15-.54-.15H69.18c-.22 0-.43.01-.6.15-.19.17-.41.17-.64.16-.24 0-.45 0-.59.24-.05.09-.16.15-.27.14-.45-.04-.76.25-1.1.45-.37.22-.73.49-1.06.77-.64.54-1.22 1.15-1.62 1.9-.18.35-.39.67-.52 1.06-.09.29-.27.55-.26.87 0 .03 0 .08-.03.1-.29.24-.25.59-.3.91-.12.83-.23 1.66-.17 2.5.02.33 0 .65 0 .98-.02 1.53 0 3.06-.01 4.58 0 .23.17.44.09.67-.12.33-.06.66-.08.99-.04.58.13 1.14.11 1.73-.06 2.81-.03 5.61-.09 8.42-.1 4.72-.03 9.45-.02 14.17 0 .52-.05 1.05.09 1.57.05.18.02.39-.03.57-.05.19-.06.38-.06.57v6.69c0 .45.07.9.2 1.34h-.52c0-.54-.02-1.09-.02-1.63v-33.93c0-.24.07-.49-.08-.72v-.18c.1-.12.08-.26.08-.4v-4.19c0-.14.02-.28-.08-.4v-.29c.13-.17.07-.37.08-.56.02-.67-.03-1.33.06-2 .1-.13.06-.29.06-.43a.1.1 0 0 1 0-.08c.11-.01.2-.05.21-.17.01-.14-.04-.23-.18-.25a.5.5 0 0 0-.04-.11l.03-.18c.04-.04.07-.08.11-.12.08-.06.1-.13.09-.22 0-.04-.01-.07-.02-.11h.03c.13-.07.12-.19.1-.32s.04-.22.12-.3c.09-.04.11-.12.1-.21.12-.08.12-.2.1-.32l.03-.1c.14-.02.19-.1.17-.23 0-.04.02-.06.04-.09q.075-.045.06-.12c.02-.04.04-.07.07-.11.03-.02.04-.05.05-.09 0-.06.02-.1.08-.12.11-.01.26.06.28-.11.01-.06-.09-.08-.16-.09.11-.24.26-.44.44-.63q.075-.015.09-.09c.06-.02.09-.05.09-.11.03-.04.06-.07.09-.11.09-.02.13-.08.14-.17l.02-.03.08-.08.02-.02.08-.08.02-.02.08-.08.03-.03.08-.08.03-.02c.09 0 .15-.04.17-.14.04-.03.07-.06.11-.09.06 0 .1-.03.11-.09.05 0 .08-.04.09-.09.61-.49 1.28-.87 1.99-1.18.33.12.54-.21.83-.22.04-.02.08-.04.11-.06.11-.03.25 0 .32-.13.88-.17 1.77-.12 2.66-.12 3.4 0 6.79 0 10.19.01.08.13.19.12.32.1.11.16.27.11.42.11.11.14.26.12.4.12h.01c.09.29.34.16.52.2 2.15.95 3.66 2.53 4.57 4.68.08.18.13.36.09.56.02.14.08.26.2.34.06.39.13.78.19 1.17Z" class="cls-8"/><path d="M80.98 88.13c-3.4 0-6.79-.01-10.19-.01-.89 0-1.78-.05-2.66.12.44-.29.96-.19 1.44-.3.18-.04.38 0 .56-.09 2.99.09 5.98.1 8.97 0l1.5.18c.14.02.28 0 .39.11ZM87.71 95.41c-.06-.39-.13-.78-.19-1.17.24.27.2.61.23.93-.01.08-.02.16-.04.24M82.66 88.66c-.18-.04-.44.09-.52-.2.19.03.37.08.52.2M82.12 88.46c-.14 0-.3.02-.4-.12.15-.01.3-.02.4.12M87.52 94.24a.47.47 0 0 1-.2-.34c.17.05.23.17.2.34M81.72 88.34c-.15 0-.31.05-.42-.11.15-.02.29.02.42.11" class="cls-9"/><path d="M81.3 88.23c-.12.02-.24.02-.32-.1.12-.03.24-.01.32.1" class="cls-9"/><path d="M53.13 105.42s.09-.07.13-.11c.13.14.3.15.48.14q3.39-.075 6.78 0h.52c.01.19-.05.38 0 .57.13.53.11 1.07.11 1.62v4.2c0 .54 0 1.08-.06 1.62-.04.27-.18.53-.12.81-2.4 0-4.8.01-7.2.01-.21 0-.41.01-.61.1h-.02c.12-.26.16-.52.07-.81-.04-.11-.02-.24-.02-.36 0-2.13 0-4.26-.01-6.4 0-.23 0-.46.04-.68.05-.25 0-.48-.09-.71" class="cls-2"/><path d="M61.59 98.26v.29q-.06 2.49 0 4.98v.18c0 .18-.02.35-.02.53v34.62c0 .2.07.42-.08.61 0-.21-.02-.42-.02-.63v-23.52c0-.32-.02-.63-.03-.95.01-.16.03-.31.03-.47v-8.11c0-.16-.02-.32-.02-.47 0-.47.02-.95.02-1.42v-6.74c0-.17-.03-.35.06-.52.1.54 0 1.08.06 1.62" class="cls-14"/><path d="M61.45 105.32c0 .16.02.32.02.47v8.11c0 .16-.02.31-.03.47-.17.02-.34 0-.49-.1-.06-.28.08-.54.12-.81.07-.54.06-1.08.06-1.62v-4.2c0-.54.03-1.08-.11-1.62-.05-.19.02-.38 0-.57.09-.18.26-.13.41-.13Z" class="cls-11"/><path d="M61.59 98.26c-.07-.54.04-1.08-.06-1.62l.06-1.02h.1c.01.03.02.06.04.09-.09.66-.04 1.33-.06 2 0 .19.05.39-.08.56Z" class="cls-7"/><path d="M67.68 88.44c-.29.01-.5.34-.83.22.26-.16.52-.32.84-.32l.03.04s-.03.04-.04.07Z" class="cls-9"/><path d="M61.69 95.61h-.1c-.1-.35.09-.65.19-.96.01.04.02.07.04.11 0 .14-.02.28-.03.42a.1.1 0 0 0 0 .08c-.08.1-.07.23-.09.34Z" class="cls-14"/><path d="M63.06 91.82c.07.01.17.03.16.09-.03.17-.18.1-.28.11l.13-.2Z" class="cls-12"/><path d="M68.12 88.24c-.07.13-.21.1-.32.13-.02 0-.05-.01-.07 0l-.03-.04a.7.7 0 0 1 .43-.09ZM62.63 92.54c.01.13-.04.21-.17.23.04-.09.08-.18.17-.23M62.1 93.7c.02.13.03.25-.1.33a.41.41 0 0 1 .1-.33M62.43 92.88c.02.12.02.24-.1.32-.02-.12.04-.22.1-.32M62 94.13c.01.09 0 .17-.09.22-.01-.04-.03-.08-.04-.12l.03-.09c.03 0 .06 0 .1-.01M62.33 93.2c.01.09-.02.16-.1.21-.01-.09.03-.16.1-.21" class="cls-9"/><path d="M61.88 94.23s.03.08.04.12c-.04.04-.07.08-.11.12-.03-.1-.01-.18.07-.24" class="cls-14"/><path d="M63.92 90.7c0 .09-.04.15-.14.17 0-.09.05-.14.14-.17M64.53 90.12c-.02.09-.08.13-.17.14.03-.08.08-.13.17-.14" class="cls-9"/><path d="M62 94.13s-.06 0-.1.01c0-.06.02-.1.07-.12 0 .04.01.07.02.11Z" class="cls-14"/><path d="M62.85 92.14s-.02.06-.05.09c0-.04.02-.07.05-.09" class="cls-12"/><path d="M63.59 91.1c0 .05-.04.08-.09.09 0-.06.04-.09.09-.09M63.69 90.98c0 .06-.03.1-.09.11 0-.06.03-.1.09-.11M64.02 90.59l-.08.08c0-.06.02-.08.08-.08M64.12 90.48l-.08.08c0-.06.02-.08.08-.08M64.23 90.38l-.08.08c0-.06.02-.08.08-.08M64.33 90.28l-.08.08c0-.05.02-.08.08-.08M64.75 89.94c-.02.06-.05.09-.11.09.01-.06.05-.09.11-.09M64.85 89.84q-.015.075-.09.09c0-.06.04-.08.09-.09M62.74 92.33c.01.06 0 .1-.06.12-.01-.06.02-.09.06-.12" class="cls-9"/><path d="M61.49 139.47c.15-.19.08-.41.08-.61v-34.62c0-.18.01-.35.02-.53.15.23.08.48.08.72v33.93c0 .54.01 1.09.02 1.63l-.03.18c-.07.07-.06.15-.07.24h-.12c0-.32.01-.63.02-.95Z" class="cls-7"/><path d="M53.13 105.42c.09.23.14.46.09.71-.04.22-.04.45-.04.68 0 2.13 0 4.26.01 6.4 0 .12-.02.25.02.36.09.28.05.55-.07.81-.06 0-.13 0-.19-.01-.02-.06-.06-.1-.13-.1-.06-.11-.05-.24-.05-.36v-8.07c0-.14-.02-.28.05-.41h.31Z" class="cls-3"/><path d="M52.81 114.26c.07 0 .1.05.13.1 0 .09-.02.19-.13.22a.33.33 0 0 1 0-.33Z" class="cls-13"/><path d="m61.66 140.18.03-.18h.62c.05.22.15.26.32.1.94 0 1.88.03 2.82.08 1.27.07 2.55.02 3.82.02v.29h-1.26c-.1-.09-.23-.07-.35-.07h-3.94c-.12 0-.25-.01-.35.08h-1.26c-.13-.13-.43-.03-.45-.32M87.31 139.9c.17-.03.32.06.47.11.08.18.05.33-.13.44-.12-.03-.25-.05-.35.05h-1.48c-.1-.09-.23-.08-.35-.08h-3.73c-.12 0-.25-.01-.35.07h-1.26v-.29h5.24c.5 0 1.01.03 1.51-.1q.105.165.21 0c.14 0 .21-.07.21-.2ZM78.23 140.5h-.52c-.12-.1-.26-.07-.4-.07h-5.2c-.14 0-.28-.03-.4.08h-.52v-.29h7.07v.29Z" class="cls-10"/><path d="M71.17 140.21v.29c-.64.05-1.28.05-1.91 0v-.29c.07-.09.17-.1.28-.1h1.34c.11 0 .21.01.28.1ZM78.23 140.5v-.29c.07-.09.17-.1.28-.1h1.34c.11 0 .21.01.28.1v.29c-.64.05-1.28.05-1.91 0Z" class="cls-8"/><path d="M71.7 140.49c.12-.1.26-.08.4-.08h5.2c.14 0 .28-.03.4.07-.92 0-1.85.02-2.77.02-1.08 0-2.16-.01-3.24-.02ZM63.37 140.5c.1-.09.23-.08.35-.08h3.94c.12 0 .25-.01.35.07-.97.06-1.95.02-2.92.02-.57 0-1.15-.01-1.72-.02ZM81.4 140.49c.1-.09.23-.07.35-.07h3.73c.12 0 .25-.01.35.08-1.48.04-2.95.04-4.43 0ZM61.66 140.18c.02.29.32.19.45.32-.14 0-.28.01-.42.02l-.1-.1c0-.08 0-.17.07-.24M87.3 140.5c.1-.1.23-.08.35-.05-.11.09-.23.09-.35.05M80.14 140.21c-.07-.09-.17-.1-.28-.1h-1.34c-.11 0-.21.01-.28.1h-7.07c-.07-.09-.17-.1-.28-.1h-1.34c-.11 0-.21.01-.28.1-1.27 0-2.55.05-3.82-.02-.94-.05-1.88-.07-2.82-.08-.08-.13-.2-.11-.32-.1h-.1c-.14-.43-.2-.89-.2-1.34-.01-2.23 0-4.46 0-6.69 0-.19.01-.38.06-.57.05-.18.07-.4.03-.57-.14-.52-.09-1.05-.09-1.57 0-4.73-.07-9.45.02-14.17.06-2.81.03-5.61.09-8.42.01-.58-.16-1.15-.11-1.73.03-.33-.04-.66.08-.99.08-.23-.09-.44-.09-.67.01-1.53 0-3.06.01-4.58 0-.33.02-.65 0-.98-.05-.84.05-1.67.17-2.5.05-.33 0-.67.3-.91.02-.02.03-.06.03-.1-.01-.32.17-.58.26-.87.13-.39.33-.72.52-1.06.4-.75.98-1.35 1.62-1.9.33-.28.68-.55 1.06-.77.34-.2.65-.49 1.1-.45.11 0 .22-.05.27-.14.14-.24.36-.25.59-.24.23 0 .45 0 .64-.16.16-.14.38-.15.6-.15h11.28c.2 0 .38 0 .54.15.05.05.12.09.18.1.66.08 1.19.52 1.81.69.53.14.96.51 1.37.84.59.47 1.14 1 1.54 1.64.37.6.8 1.2.94 1.89.08.38.14.74.37 1.07.05.07.08.17.08.25-.05.56.12 1.11.12 1.67-.02 3.16.01 6.32-.02 9.49 0 .62.09 1.24-.07 1.86-.06.23.03.47.04.71.02.9.01 1.8.03 2.7.03 1.83.04 3.65.03 5.48s0 3.65 0 5.48v16.02c0 .48-.16.93-.11 1.41 0 .13-.08.2-.21.2-.07-.11-.14-.1-.21 0-.5.13-1 .1-1.51.1h-5.24Z" class="cls-12"/><path d="M61.59 103.54q-.06-2.49 0-4.98c.1.12.08.26.08.4v4.19c0 .14.02.28-.08.4Z" class="cls-7"/><path d="M61.78 95.19c0-.14.02-.28.03-.42.15.02.2.11.18.25-.01.13-.1.16-.21.17M61.69 95.61c.02-.12.02-.24.09-.34 0 .15.05.3-.06.43-.01-.03-.03-.06-.04-.09ZM67.72 88.37h.07c-.04.02-.08.04-.11.06 0-.02.02-.05.04-.07Z" class="cls-12"/><path d="M62.31 140c.12 0 .25-.03.32.1-.17.16-.27.12-.32-.1M86.88 140.1q.105-.165.21 0-.105.165-.21 0" class="cls-8"/></g></svg>