<svg width="22" height="18" viewBox="0 0 22 18" fill="none" xmlns="http://www.w3.org/2000/svg">
<path d="M18.98 2.69C17.3 1.35 14.9 0.979995 13.86 0.869995H13.82C13.66 0.869995 13.51 0.959995 13.46 1.11C13.37 1.34 13.51 1.59 13.74 1.63C14.91 1.87 16.26 2.29 17.49 3.06C17.74 3.21 17.8 3.55 17.6 3.78C17.44 3.96 17.17 3.98 16.96 3.86C14.56 2.38 11.58 2.3 11 2.3C10.42 2.3 7.44 2.38 5.04 3.86C4.83 3.98 4.56 3.96 4.4 3.78C4.2 3.55 4.26 3.21 4.51 3.06C5.74 2.29 7.09 1.87 8.26 1.63C8.49 1.59 8.63 1.34 8.54 1.11C8.49 0.959995 8.34 0.869995 8.18 0.869995H8.14C7.1 0.979995 4.7 1.35 3.02 2.69C2.04 3.6 0.09 8.82999 0 13.46C0 13.77 0.08 14.08 0.26 14.33C1.43 15.98 3.97 16.97 5.89 17.11C6.18 17.13 6.46 17 6.63 16.76C6.64 16.76 6.64 16.75 6.65 16.74C7 16.26 6.79 15.58 6.23 15.37C4.63 14.78 3.81 14.08 3.76 14.03C3.56 13.85 3.54 13.55 3.71 13.35C3.89 13.15 4.19 13.13 4.39 13.31C4.42 13.33 6.64 15.22 11 15.22C15.36 15.22 17.58 13.33 17.61 13.31C17.81 13.13 18.11 13.15 18.29 13.35C18.46 13.55 18.44 13.85 18.24 14.03C18.19 14.08 17.37 14.78 15.77 15.37C15.21 15.58 15 16.26 15.35 16.74C15.36 16.75 15.36 16.76 15.37 16.76C15.54 17 15.82 17.13 16.11 17.11C18.03 16.97 20.57 15.98 21.74 14.33C21.92 14.08 22 13.77 22 13.46C21.91 8.82999 19.96 3.6 18.98 2.69ZM7.89 11.87C6.97 11.87 6.22 11.01 6.22 9.96C6.22 8.9 6.97 8.04 7.89 8.04C8.82 8.04 9.56 8.9 9.56 9.96C9.56 11.01 8.82 11.87 7.89 11.87ZM14.11 11.87C13.18 11.87 12.44 11.01 12.44 9.96C12.44 8.9 13.18 8.04 14.11 8.04C15.03 8.04 15.78 8.9 15.78 9.96C15.78 11.01 15.03 11.87 14.11 11.87Z" fill="#D0D0DA"/>
</svg>
