<svg xmlns="http://www.w3.org/2000/svg" width="22" height="18" fill="none"><path fill="#D0D0DA" d="M18.98 2.69C17.3 1.35 14.9.98 13.86.87h-.04c-.16 0-.31.09-.36.24-.09.23.05.48.28.52 1.17.24 2.52.66 3.75 1.43.25.15.31.49.11.72-.16.18-.43.2-.64.08C14.56 2.38 11.58 2.3 11 2.3s-3.56.08-5.96 1.56c-.21.12-.48.1-.64-.08-.2-.23-.14-.57.11-.72 1.23-.77 2.58-1.19 3.75-1.43.23-.04.37-.29.28-.52-.05-.15-.2-.24-.36-.24h-.04C7.1.98 4.7 1.35 3.02 2.69 2.04 3.6.09 8.83 0 13.46c0 .31.08.62.26.87 1.17 1.65 3.71 2.64 5.63 2.78.29.02.57-.11.74-.35.01 0 .01-.01.02-.02a.9.9 0 0 0-.42-1.37c-1.6-.59-2.42-1.29-2.47-1.34a.49.49 0 0 1-.05-.68c.18-.2.48-.22.68-.04.03.02 2.25 1.91 6.61 1.91s6.58-1.89 6.61-1.91c.2-.18.5-.16.68.04.17.2.15.5-.05.68-.05.05-.87.75-2.47 1.34-.56.21-.77.89-.42 1.37.01.01.01.02.02.02.17.24.45.37.74.35 1.92-.14 4.46-1.13 5.63-2.78.18-.25.26-.56.26-.87-.09-4.63-2.04-9.86-3.02-10.77M7.89 11.87c-.92 0-1.67-.86-1.67-1.91 0-1.06.75-1.92 1.67-1.92.93 0 1.67.86 1.67 1.92 0 1.05-.74 1.91-1.67 1.91m6.22 0c-.93 0-1.67-.86-1.67-1.91 0-1.06.74-1.92 1.67-1.92.92 0 1.67.86 1.67 1.92 0 1.05-.75 1.91-1.67 1.91"/></svg>