<svg width="24" height="24" viewBox="0 0 24 24" fill="none" xmlns="http://www.w3.org/2000/svg">
<g clip-path="url(#clip0_4818_63734)">
<path d="M13.2 18L10.8 18L10.8 15.6L13.2 15.6L13.2 18ZM13.2 13.2L10.8 13.2L10.8 6L13.2 6L13.2 13.2ZM12 24C18.624 24 24 18.624 24 12C24 5.376 18.624 -4.69985e-07 12 -1.04907e-06C5.376 -1.62816e-06 1.62816e-06 5.376 1.04907e-06 12C4.69985e-07 18.624 5.376 24 12 24ZM12 2.4C17.292 2.4 21.6 6.708 21.6 12C21.6 17.292 17.292 21.6 12 21.6C6.708 21.6 2.4 17.292 2.4 12C2.4 6.708 6.708 2.4 12 2.4Z" fill="#DC2C10"/>
</g>
<defs>
<clipPath id="clip0_4818_63734">
<rect width="24" height="24" fill="white"/>
</clipPath>
</defs>
</svg>
