<svg width="12" height="12" viewBox="0 0 12 12" fill="none" xmlns="http://www.w3.org/2000/svg">
<path d="M5.25 4.08365H6.41666V2.91699H5.25V4.08365ZM5.25 8.75032H6.41666V5.25032H5.25V8.75032Z" fill="currentColor"/>
<path fill-rule="evenodd" clip-rule="evenodd" d="M9.33333 1.16667H2.33333C1.689 1.16667 1.16666 1.68901 1.16666 2.33334V9.33334C1.16666 9.97772 1.689 10.5 2.33333 10.5H9.33333C9.97767 10.5 10.5 9.97772 10.5 9.33334V2.33334C10.5 1.68901 9.97767 1.16667 9.33333 1.16667ZM2.33333 0C1.04467 0 0 1.04467 0 2.33334V9.33334C0 10.622 1.04467 11.6667 2.33333 11.6667H9.33333C10.622 11.6667 11.6667 10.622 11.6667 9.33334V2.33334C11.6667 1.04467 10.622 0 9.33333 0H2.33333Z" fill="currentColor"/>
</svg>
