<svg xmlns="http://www.w3.org/2000/svg" width="16" height="16" fill="none"><path fill="#D0D0DA" fill-rule="evenodd" d="M3.332 4.667a.667.667 0 0 0-.667.667v7.333a.667.667 0 0 0 .667.667h7.333a.667.667 0 0 0 .667-.667v-4a.667.667 0 0 1 1.333 0v4a2 2 0 0 1-2 2H3.332a2 2 0 0 1-2-2V5.334a2 2 0 0 1 2-2h4a.667.667 0 1 1 0 1.333zM9.332 2c0-.368.299-.667.667-.667h4c.368 0 .666.299.666.667v4a.667.667 0 0 1-1.333 0V2.667H9.999A.667.667 0 0 1 9.332 2" clip-rule="evenodd"/><path fill="#D0D0DA" fill-rule="evenodd" d="M14.471 1.529c.26.26.26.682 0 .943L7.138 9.805a.667.667 0 0 1-.943-.943L13.53 1.53c.26-.26.682-.26.942 0" clip-rule="evenodd"/></svg>