<svg width="24" height="24" viewBox="0 0 24 24" fill="none" xmlns="http://www.w3.org/2000/svg">
<path d="M1.99998 5.26L3.26998 3.99L19.99 20.71L18.72 21.98L15.64 18.9C14.48 19.27 13.26 19.47 11.98 19.47C6.96998 19.47 2.69998 16.35 0.97998 11.97C1.66998 10.21 2.76998 8.65 4.15998 7.42L1.96998 5.23L1.99998 5.26ZM12 8.99C13.657 8.99 15 10.33 15 11.98C15 12.33 14.93 12.67 14.82 12.98L10.98 9.14C11.29 9.02 11.63 8.96 11.98 8.96L12 8.99ZM12 4.49C17.003 4.49 21.27 7.6 23 11.98C22.17 14.06 20.78 15.85 19.01 17.17L17.57 15.73C18.92 14.79 20.05 13.5 20.8 11.97C19.15 8.61 15.74 6.47 11.98 6.47C10.88 6.47 9.81998 6.65 8.81998 6.99L7.26998 5.44C8.70998 4.81 10.3 4.46 11.97 4.46L12 4.49ZM3.17998 11.98C4.81998 15.33 8.22998 17.48 11.99 17.48C12.67 17.48 13.35 17.4 14.01 17.27L11.7 14.96C10.26 14.82 9.11998 13.68 8.98998 12.25L5.56998 8.83C4.56998 9.68 3.73998 10.74 3.14998 11.95L3.17998 11.98Z" fill="#D0D0DA"/>
</svg>
