<svg width="24" height="24" viewBox="0 0 24 24" fill="none" xmlns="http://www.w3.org/2000/svg">
<path d="M12 8.99C13.657 8.99 15 10.33 15 11.98C15 13.637 13.657 14.98 12 14.98C10.343 14.98 8.99998 13.637 8.99998 11.98C8.99998 10.323 10.343 8.98 12 8.98V8.99ZM12 4.49C17 4.49 21.27 7.6 22.99 11.99C21.26 16.37 16.993 19.49 11.99 19.49C6.97998 19.49 2.70998 16.37 0.97998 11.99C2.69998 7.601 6.96998 4.49 11.98 4.49H12ZM3.17998 11.99C4.81998 15.34 8.22998 17.49 11.99 17.49C15.74 17.49 19.16 15.34 20.8 11.99C19.15 8.63 15.74 6.49 11.98 6.49C8.20998 6.49 4.79998 8.63 3.15998 11.99H3.17998Z" fill="#D0D0DA"/>
</svg>
