<svg width="20" height="20" viewBox="0 0 20 20" fill="none" xmlns="http://www.w3.org/2000/svg">
<g clip-path="url(#clip0_40008530_15884)">
<path d="M0.916421 3.96868L2.06992 2.81519L17.2561 18.0014L16.1026 19.1549L13.3052 16.3574C12.2516 16.6935 11.1435 16.8751 9.98091 16.8751C5.4305 16.8751 1.55221 14.0413 -0.0100098 10.0631C0.616693 8.4646 1.61578 7.0477 2.87827 5.93054L0.889173 3.94143L0.916421 3.96868ZM9.99907 3.26932C14.5431 3.26932 18.4187 6.09402 19.99 10.0722C19.2361 11.9614 17.9736 13.5872 16.366 14.7861L15.0581 13.4782C16.2843 12.6244 17.3106 11.4528 17.9918 10.0631C16.4932 7.01137 13.396 5.06768 9.98091 5.06768C8.98182 5.06768 8.01905 5.23117 7.11079 5.53998L5.70298 4.13217C7.01088 3.55996 8.45502 3.24207 9.97182 3.24207L9.99907 3.26932ZM1.98817 10.0722C3.47773 13.1149 6.57491 15.0677 9.98999 15.0677C10.6076 15.0677 11.2252 14.995 11.8247 14.8769C9.22872 12.281 6.78901 9.84127 4.15893 7.21119C3.25066 7.98321 2.4968 8.94598 1.96093 10.045L1.98817 10.0722Z" fill="currentColor"/>
</g>
<defs>
<clipPath id="clip0_40008530_15884">
<rect width="20" height="20" fill="currentColor"/>
</clipPath>
</defs>
</svg>
