<svg width="10" height="10" viewBox="0 0 10 10" fill="none" xmlns="http://www.w3.org/2000/svg">
<path opacity="0.8" fill-rule="evenodd" clip-rule="evenodd" d="M8 1L2 1C1.44772 1 1 1.44772 1 2L1 8C1 8.55229 1.44772 9 2 9L8 9C8.55228 9 9 8.55228 9 8L9 2C9 1.44772 8.55228 1 8 1ZM2 9.70438e-07C0.89543 9.72753e-07 -1.90774e-08 0.895432 -1.6763e-08 2L-4.19074e-09 8C-1.87626e-09 9.10457 0.89543 10 2 10L8 10C9.10457 10 10 9.10457 10 8L10 2C10 0.895432 9.10457 9.55552e-07 8 9.57866e-07L2 9.70438e-07Z" fill="#999CB3"/>
<path d="M4.5 3.5L5.5 3.5L5.5 2.5L4.5 2.5L4.5 3.5ZM4.5 7.5L5.5 7.5L5.5 4.5L4.5 4.5L4.5 7.5Z" fill="#currentColor"/>
</svg>
