<svg width="24" height="24" viewBox="0 0 24 24" fill="none" xmlns="http://www.w3.org/2000/svg">
<g clip-path="url(#clip0_404_749)">
<mask id="mask0_404_749" style="mask-type:luminance" maskUnits="userSpaceOnUse" x="0" y="0" width="24" height="24">
<path d="M24 12C24 5.37258 18.6274 0 12 0C5.37258 0 0 5.37258 0 12C0 18.6274 5.37258 24 12 24C18.6274 24 24 18.6274 24 12Z" fill="white"/>
</mask>
<g mask="url(#mask0_404_749)">
<path d="M24 12C24 5.37258 18.6274 0 12 0C5.37258 0 0 5.37258 0 12C0 18.6274 5.37258 24 12 24C18.6274 24 24 18.6274 24 12Z" fill="#121212"/>
<path d="M24 0H0V24H24V0Z" fill="#61DFFF"/>
<path d="M16.5584 16.8095H7.45215V7.15332H9.53568V14.9381H16.5584V16.8085V16.8095Z" fill="#190066"/>
<path d="M16.5587 9.02349C17.5852 9.02349 18.4172 8.18607 18.4172 7.15309C18.4172 6.12011 17.5852 5.28271 16.5587 5.28271C15.5323 5.28271 14.7002 6.12011 14.7002 7.15309C14.7002 8.18607 15.5323 9.02349 16.5587 9.02349Z" fill="#190066"/>
</g>
</g>
<defs>
<clipPath id="clip0_404_749">
<rect width="24" height="24" fill="white"/>
</clipPath>
</defs>
</svg>
