<svg xmlns="http://www.w3.org/2000/svg" width="19" height="20" fill="none"><path stroke="#5C70D6" stroke-linecap="round" stroke-linejoin="round" stroke-width="2" d="M11.167 8.5c0 1.38-2.239 2.5-5 2.5s-5-1.12-5-2.5m10 0c0-1.38-2.239-2.5-5-2.5s-5 1.12-5 2.5m10 0v4m-10-4v4m16-9c0-1.38-2.239-2.5-5-2.5-1.98 0-3.69.575-4.5 1.409m9.5 1.091c0 .925-1.006 1.733-2.5 2.166m2.5-2.166V12c0 .74-1.006 1.387-2.5 1.732M17.167 8c0 .757-1.05 1.415-2.6 1.755m-3.4 2.745c0 1.38-2.239 2.5-5 2.5s-5-1.12-5-2.5m10 0v4c0 1.38-2.239 2.5-5 2.5s-5-1.12-5-2.5v-4"/></svg>