<svg width="17" height="18" viewBox="0 0 17 18" fill="none" xmlns="http://www.w3.org/2000/svg">
<path fill-rule="evenodd" clip-rule="evenodd" d="M9.00008 0.0749512C13.3769 0.0749512 16.9251 3.62309 16.9251 7.99995C16.9251 12.3768 13.3769 15.925 9.00008 15.925C7.3898 15.925 5.89168 15.4447 4.64117 14.6196L2.01936 17.2767L0.595703 15.872L3.1202 13.3135C1.84916 11.9078 1.07508 10.0443 1.07508 7.99995C1.07508 3.62309 4.62322 0.0749512 9.00008 0.0749512ZM15.0751 7.99995C15.0751 4.64482 12.3552 1.92495 9.00008 1.92495C5.64495 1.92495 2.92508 4.64482 2.92508 7.99995C2.92508 11.3551 5.64495 14.075 9.00008 14.075C12.3552 14.075 15.0751 11.3551 15.0751 7.99995Z" fill="currentColor" />
</svg>
