<svg width="9" height="6" viewBox="0 0 9 6" fill="none" xmlns="http://www.w3.org/2000/svg">
<path d="M4.96324 4.89896L8.11658 1.39363C8.18124 1.32185 8.22372 1.23289 8.23889 1.13748C8.25406 1.04207 8.24127 0.944316 8.20206 0.856026C8.16285 0.767736 8.09891 0.692695 8.01796 0.639976C7.937 0.587256 7.84251 0.559117 7.74591 0.55896H0.991242C0.894524 0.55886 0.799853 0.586813 0.718701 0.639431C0.63755 0.69205 0.5734 0.767076 0.534028 0.855417C0.494656 0.943758 0.48175 1.04162 0.496875 1.13715C0.511999 1.23268 0.554506 1.32177 0.619242 1.39363L3.77391 4.89896C3.84904 4.98214 3.94079 5.04863 4.04322 5.09414C4.14565 5.13965 4.25649 5.16317 4.36858 5.16317C4.48066 5.16317 4.5915 5.13965 4.69393 5.09414C4.79637 5.04863 4.88811 4.98214 4.96324 4.89896Z" fill="currentColor"/>
</svg>
