<svg width="9" height="5" viewBox="0 0 9 5"  xmlns="http://www.w3.org/2000/svg">
<path d="M5.13316 4.33902L8.2865 0.83369C8.35116 0.761917 8.39364 0.672949 8.40881 0.577543C8.42398 0.482137 8.41119 0.384379 8.37198 0.296089C8.33277 0.2078 8.26883 0.132758 8.18788 0.080039C8.10693 0.02732 8.01244 -0.000819049 7.91583 -0.000976293H1.16116C1.06445 -0.00107671 0.969775 0.026876 0.888623 0.0794947C0.807471 0.132113 0.743322 0.207139 0.70395 0.29548C0.664577 0.383822 0.651672 0.481686 0.666796 0.577214C0.681921 0.672742 0.724427 0.761833 0.789164 0.83369L3.94383 4.33902C4.01896 4.4222 4.11071 4.48869 4.21314 4.5342C4.31557 4.57971 4.42641 4.60323 4.5385 4.60323C4.65058 4.60323 4.76142 4.57971 4.86386 4.5342C4.96629 4.48869 5.05803 4.4222 5.13316 4.33902Z" fill="currentColor"/>
</svg>
