<svg xmlns="http://www.w3.org/2000/svg" width="38" height="38" viewBox="0 0 38 38" fill="currentColor">
    <path d="M29.8236 6.58846L32.8162 3.58601L30.9807 1.74941C30.2226 0.990818 31.3558 -0.135098 32.1059 0.615512L36.8941 5.40665C37.6442 6.15726 36.511 7.28317 35.7609 6.53256L33.9254 4.69596L30.9249 7.69042C33.7738 10.8126 35.5135 14.965 35.5135 19.5325C35.5135 29.2345 27.653 37.1 17.957 37.1C8.25296 37.1 0.400391 29.2345 0.400391 19.5325C0.400391 10.3655 7.40705 2.8354 16.3609 2.0289C16.3529 2.00494 16.3529 1.98099 16.3529 1.95703V1.15851C16.3529 0.711335 16.7041 0.359985 17.1509 0.359985H18.747C19.1859 0.359985 19.545 0.711335 19.545 1.15851V1.95703C19.545 1.98099 19.537 1.99696 19.537 2.02091C23.4633 2.37226 27.0225 4.0252 29.7757 6.54055L29.8236 6.58846ZM2.02038 19.5565C2.02038 28.3721 9.16271 35.5269 17.9809 35.5269C26.7911 35.5269 33.9414 28.3721 33.9414 19.5565C33.9414 10.7328 26.7911 3.58601 17.9809 3.58601C9.16271 3.58601 2.02038 10.7328 2.02038 19.5565ZM18.7789 16.4582C20.1515 16.8095 21.173 18.0632 21.173 19.5485C21.173 21.0337 20.1515 22.2794 18.7789 22.6388V24.3316C18.7789 25.3937 17.1829 25.3937 17.1829 24.3316V22.6308C15.8023 22.2714 14.7888 21.0178 14.7888 19.5325C14.7888 18.0393 15.8023 16.7936 17.1829 16.4342V8.34521C17.1829 7.27519 18.7789 7.27519 18.7789 8.34521V16.4262V16.4582ZM17.9809 21.1455C18.8587 21.1455 19.5769 20.4268 19.5769 19.5485C19.5769 18.6621 18.8587 17.9514 17.9809 17.9514C17.0951 17.9514 16.3848 18.6621 16.3848 19.5485C16.3848 20.4268 17.0951 21.1455 17.9809 21.1455Z"/>
</svg>