<svg xmlns="http://www.w3.org/2000/svg" width="16" height="14" fill="none"><path fill="#D0D0DA" fill-rule="evenodd" d="M1.1 6.078q6.443-2.806 8.592-3.7C13.783.675 14.634.38 15.188.37c.121-.002.394.028.57.172.15.12.19.284.21.399.02.114.044.375.025.58-.222 2.33-1.181 7.983-1.67 10.592-.206 1.104-.613 1.474-1.006 1.51-.856.079-1.505-.565-2.334-1.108-1.297-.85-2.03-1.38-3.288-2.209-1.455-.958-.512-1.485.317-2.346.217-.226 3.987-3.654 4.06-3.965.01-.04.018-.184-.069-.261-.086-.077-.213-.05-.305-.03q-.195.045-6.214 4.108-.881.605-1.598.59c-.526-.011-1.538-.297-2.29-.542-.923-.3-1.656-.458-1.592-.968q.05-.397 1.096-.814" clip-rule="evenodd"/></svg>