<svg xmlns="http://www.w3.org/2000/svg" width="16" height="14" fill="none"><path fill="#D0D0DA" d="M14.32 3.728c.009.14.009.28.009.422 0 4.305-3.277 9.27-9.27 9.27v-.002a9.23 9.23 0 0 1-4.995-1.461q.387.045.776.047a6.54 6.54 0 0 0 4.046-1.397 3.26 3.26 0 0 1-3.043-2.263c.488.094.991.075 1.47-.056A3.26 3.26 0 0 1 .7 5.094v-.041c.453.252.96.392 1.479.408A3.26 3.26 0 0 1 1.17 1.11a9.25 9.25 0 0 0 6.715 3.403 3.26 3.26 0 0 1 5.552-2.971 6.5 6.5 0 0 0 2.07-.791 3.27 3.27 0 0 1-1.433 1.802 6.5 6.5 0 0 0 1.871-.513 6.6 6.6 0 0 1-1.626 1.687"/></svg>