<svg xmlns="http://www.w3.org/2000/svg" width="25" height="24" fill="none"><path stroke="#5C70D6" stroke-linecap="round" stroke-linejoin="round" stroke-width="2" d="M17.3 4H7.7c-1.12 0-1.68 0-2.108.218a2 2 0 0 0-.874.874C4.5 5.52 4.5 6.08 4.5 7.2v9.6c0 1.12 0 1.68.218 2.108a2 2 0 0 0 .874.874C6.02 20 6.58 20 7.7 20h9.6c1.12 0 1.68 0 2.108-.218a2 2 0 0 0 .874-.874c.218-.428.218-.988.218-2.108V7.2c0-1.12 0-1.68-.218-2.108a2 2 0 0 0-.874-.874C18.98 4 18.42 4 17.3 4"/><path stroke="#5C70D6" stroke-linecap="round" stroke-linejoin="round" stroke-width="2" d="M14.5 9c-.5-.124-1.315-.129-2-.124m0 0c-.23.001-.09-.008-.4 0-.807.025-1.598.36-1.6 1.311-.002 1.013 1 1.313 2 1.313s2 .231 2 1.312c0 .813-.807 1.17-1.814 1.287-.8 0-1.186.026-2.186-.1m2-5.123V7.5m0 6.6v1.4"/></svg>