<svg xmlns="http://www.w3.org/2000/svg" width="20" height="18" fill="none"><path stroke="#5C70D6" stroke-linecap="round" stroke-linejoin="round" stroke-width="2" d="M16 5v-.8c0-1.12 0-1.68-.218-2.108a2 2 0 0 0-.874-.874C14.48 1 13.92 1 12.8 1H4.2c-1.12 0-1.68 0-2.108.218a2 2 0 0 0-.874.874C1 2.52 1 3.08 1 4.2V5m18 4h-2a2 2 0 1 0 0 4h2M1 5v8.8c0 1.12 0 1.68.218 2.108a2 2 0 0 0 .874.874C2.52 17 3.08 17 4.2 17h11.6c1.12 0 1.68 0 2.108-.218a2 2 0 0 0 .874-.874C19 15.48 19 14.92 19 13.8V8.2c0-1.12 0-1.68-.218-2.108a2 2 0 0 0-.874-.874C17.48 5 16.92 5 15.8 5z"/></svg>