<svg xmlns="http://www.w3.org/2000/svg" width="42" height="42" viewBox="0 0 42 42" fill="currentColor">
    <path d="M12.1797 24.5C12.1797 24.9456 12.0026 25.3724 11.6875 25.6875C11.3724 26.0026 10.9456 26.1797 10.5 26.1797H5.10156V22.8203H10.5C10.9456 22.8203 11.3724 22.9974 11.6875 23.3125C12.0026 23.6276 12.1797 24.0544 12.1797 24.5ZM34.9297 8.75C34.9297 9.19556 34.7526 9.62244 34.4375 9.9375C34.1224 10.2526 33.6956 10.4297 33.25 10.4297H10.5703V7.07031H33.25C33.6956 7.07031 34.1224 7.24744 34.4375 7.5625C34.7526 7.87756 34.9297 8.30444 34.9297 8.75ZM6.92969 10.4307C6.06728 10.4476 5.24112 10.7761 4.60352 11.3535L4.47559 11.4756L4.35352 11.6035C3.7604 12.2584 3.42969 13.1123 3.42969 14V19.1797H3.28125C2.27609 19.1797 1.46094 19.9948 1.46094 21V28C1.46094 29.0052 2.27609 29.8203 3.28125 29.8203H10.5C11.911 29.8203 13.264 29.2594 14.2617 28.2617C15.2594 27.264 15.8203 25.911 15.8203 24.5C15.8203 23.089 15.2594 21.736 14.2617 20.7383C13.264 19.7406 11.911 19.1797 10.5 19.1797H7.07031V14.0703H33.25C34.661 14.0703 36.014 13.5094 37.0117 12.5117C38.0094 11.514 38.5703 10.161 38.5703 8.75C38.5703 7.33905 38.0094 5.98597 37.0117 4.98828C36.014 3.99059 34.661 3.42969 33.25 3.42969H10.5C9.61227 3.42969 8.75843 3.76043 8.10352 4.35352L7.97559 4.47559L7.85352 4.60352C7.26042 5.25843 6.92969 6.11227 6.92969 7V10.4307Z"/>
    <path d="M3.42969 35.0002C3.42969 35.947 3.80608 36.8551 4.47559 37.5246C5.1451 38.1941 6.05318 38.5705 7 38.5705H33.25C34.661 38.5705 36.014 38.0096 37.0117 37.0119C38.0094 36.0142 38.5703 34.6611 38.5703 33.2502V8.75018C38.5703 7.74502 37.7552 6.92987 36.75 6.92987C35.7448 6.92987 34.9297 7.74502 34.9297 8.75018V33.2502C34.9297 33.6957 34.7526 34.1226 34.4375 34.4377C34.1224 34.7527 33.6956 34.9299 33.25 34.9299H7.07031V28.0002C7.07031 26.995 6.25516 26.1799 5.25 26.1799C4.24484 26.1799 3.42969 26.995 3.42969 28.0002V35.0002Z"/>
</svg>