<svg xmlns="http://www.w3.org/2000/svg" width="20" height="20" fill="none"><mask id="a" width="20" height="20" x="0" y="0" maskUnits="userSpaceOnUse" style="mask-type:luminance"><path fill="#fff" d="M19.615 0H0v19.615h19.615z"/></mask><g mask="url(#a)"><g fill="#F5F5FF" opacity=".6"><path d="M12.813 14.73c.044.142.068.292.075.439.018.365-.182.781-.447 1.036a1.6 1.6 0 0 1-1.08.429c-.415 0-.782-.166-1.08-.43-.3-.263-.43-.656-.448-1.035a1.3 1.3 0 0 1 .135-.597h-.102c-4.561 0-8.259 1.073-8.259 2.396s3.698 2.396 8.26 2.396c4.56 0 8.258-1.073 8.258-2.396 0-1.022-2.206-1.895-5.312-2.239" opacity=".05"/><path d="M12.886 15.285a1.5 1.5 0 0 1-.445.92 1.6 1.6 0 0 1-1.08.429c-.415 0-.782-.166-1.08-.43-.3-.263-.43-.656-.448-1.035a1 1 0 0 1 .001-.1c-3.601.003-6.517.852-6.517 1.9 0 1.046 2.928 1.9 6.54 1.9 3.61 0 6.538-.852 6.538-1.9 0-.732-1.423-1.367-3.509-1.685"/><path d="M12.673 15.913c-.067.11-.146.21-.232.292a1.6 1.6 0 0 1-1.08.429c-.414 0-.782-.166-1.08-.43a1.3 1.3 0 0 1-.364-.57h-.06c-2.545 0-4.608.598-4.608 1.334s2.063 1.334 4.607 1.334 4.607-.597 4.607-1.334c0-.43-.7-.811-1.79-1.055"/><path d="M18.869 17.383q-.003.005-.004.01c.011.024-.005.046-.02.07a1.3 1.3 0 0 1-.14.183q-.108.115-.25.229a3.6 3.6 0 0 1-.513.33 6 6 0 0 1-.608.286 9 9 0 0 1-.694.252 13 13 0 0 1-1.088.296q-.36.084-.75.156-.517.098-1.077.174-.532.07-1.091.123a31.5 31.5 0 0 1-4.6.072 27 27 0 0 1-2.015-.19q-.455-.062-.883-.137a18 18 0 0 1-1.376-.296 13 13 0 0 1-.65-.186 10 10 0 0 1-.5-.173 8 8 0 0 1-.486-.2 5 5 0 0 1-.638-.344 3 3 0 0 1-.355-.269 2 2 0 0 1-.222-.239 1 1 0 0 1-.094-.142c-.017-.03-.028-.058-.042-.087q-.015-.03-.026-.062c-.008-.034-.025-.066-.025-.1 0-.021.004-.041.021-.062l.021-.011a.5.5 0 0 1 .2-.047c.31-.025.568.024.829.077q.095.02.186.042l.081.018.108.025.253.056c.09.022.187.042.278.063.086.021.178.04.267.06l.253.056q.166.038.335.074.128.028.252.057c.093.02.189.04.28.062l.322.07c.148.034.292.072.386.12.114.058.132.12.043.187-.05.053-.238.098-.408.117a2.6 2.6 0 0 1-.727-.029 8 8 0 0 1-.351-.072q-.168-.037-.334-.075-.14-.033-.286-.064l-.169-.034q-.051-.01-.11-.014a.1.1 0 0 0-.047.004q-.022.004-.023.013-.002.006.003.012c.012.013.022.026.04.038q.035.027.08.053.106.063.215.125.014.01.032.018.051.025.099.05c.057.031.123.06.188.09q.138.063.293.123.118.046.241.092l.089.03c.056.018.104.038.166.055q.01.003.02.008l.04.013.303.09c.103.029.199.06.313.085.077.023.164.042.247.062q.1.025.2.047.115.026.235.051l.286.056q.212.04.433.078l.34.053q.124.019.25.034.147.021.299.039.274.033.557.06.199.02.403.037c1.526.115 3.17.118 4.684-.023l.07-.006q.204-.02.405-.042l.343-.04.344-.047.214-.032.22-.035q.154-.024.301-.053a24 24 0 0 0 .636-.128l.155-.036.125-.03c.066-.018.138-.034.199-.052l.02-.005.064-.016.44-.128.04-.012c.028-.012.065-.022.097-.032l.095-.032.122-.042a7 7 0 0 0 .395-.155 5 5 0 0 0 .443-.211q.114-.065.224-.13l.03-.018q.035-.026.073-.05.088-.06.16-.12.075-.06.142-.123c.042-.04.072-.082.124-.121a.7.7 0 0 1 .16-.092c.093-.038.22-.066.372-.08q.104-.01.213-.007a.4.4 0 0 1 .172.033l.03.017zM18.99 16.772a.6.6 0 0 0-.07-.187 1.3 1.3 0 0 0-.103-.167 1.7 1.7 0 0 0-.23-.256 3 3 0 0 0-.408-.307 5 5 0 0 0-.635-.335 8 8 0 0 0-.494-.199 10 10 0 0 0-.55-.183 13 13 0 0 0-1.047-.27 18 18 0 0 0-.79-.157 25 25 0 0 0-1.63-.232l-.044-.004a.663.663 0 0 1-.014.293l.072.008a20 20 0 0 1 .891.131c.2.034.39.07.58.108q.152.03.298.064.114.024.223.05l.164.041c.065.016.122.033.185.049.152.037.286.08.427.12.053.02.12.038.179.057q.103.034.2.069a8 8 0 0 1 .548.217l.171.081q.109.053.204.108c.018.01.042.02.058.03.056.039.128.075.18.114l.039.033q.014.013.005.027c-.002.006-.02.01-.04.011q-.03.002-.058-.002-.06-.007-.115-.017a4 4 0 0 1-.201-.043l-.157-.035-.206-.045-.408-.088a4 4 0 0 0-.221-.038 2.4 2.4 0 0 0-.383-.027c-.134.001-.307.016-.416.042l-.086.02c-.099.032-.174.067-.194.11-.018.014-.014.028-.016.042-.003.017.01.033.024.049q.041.046.144.084.093.035.211.062.059.015.12.029l.068.015c.118.028.242.054.361.08l.327.074c.113.025.23.05.341.076.091.022.189.041.279.063l.212.047.199.043.552.123.094.02c.016.004.064.018.083.018q.156.036.327.066c.143.022.3.039.464.034.212-.006.291-.061.286-.116M10.122 14.317c-1.02-.009-2.044.03-3.018.118a23.26 23.26 0 0 0-1.937.253 19 19 0 0 0-1.373.293l-.23.06a10 10 0 0 0-1.01.325 6.4 6.4 0 0 0-.875.403 3.5 3.5 0 0 0-.426.281 2 2 0 0 0-.192.169q-.108.105-.182.213l-.012.025c-.008.02-.002.04.002.06h.004c.016.003.02.01.029.014q.062.03.184.037.144.006.278-.01.209-.024.34-.077c.11-.044.157-.094.212-.145.053-.05.104-.102.164-.152q.044-.036.09-.07l.055-.042q.054-.039.113-.076c.062-.042.136-.083.206-.124q.105-.061.227-.12a5 5 0 0 1 .507-.22q.111-.043.227-.085l.034-.011c.024-.008.05-.014.067-.023l.01-.004q.097-.031.198-.062.221-.065.446-.13l.071-.017.032-.008c.054-.017.116-.03.176-.045q.178-.044.364-.083a18 18 0 0 1 1.655-.28l.414-.049.073-.008.186-.019.18-.016c.82-.075 1.687-.108 2.55-.104q.067-.145.16-.27"/></g><path fill="#F5F5FF" d="M16.183 10.64q-.023-.034-.044-.067a24 24 0 0 0-1.263-1.966A43.078 43.078 0 0 0 12.57 5.66c-.253-.296-.534-.577-.75-.9a3.7 3.7 0 0 1-.54-1.297c-.086-.418-.08-.848-.06-1.272.009-.195-.001-.405.047-.595a2.4 2.4 0 0 1 .209-.553q.268-.494.78-.764.328-.173.696-.241.204-.04.412-.036.152.003.302.026.077.012.155.02c.222.025.429.095.625.195.34.174.615.416.814.734q.203.326.251.703.024.185.023.37l.003.759v.317q0 .045.007.088a.055.055 0 0 0 .048.047l.074.006h2.88c.08 0 .16.002.239.014a.9.9 0 0 1 .584.303.9.9 0 0 1 .15.251q.087.216.095.448c.006.135-.008.27-.032.403a4.4 4.4 0 0 1-.975 2.075 8 8 0 0 1-.516.551q-.374.366-.77.709l-.562.484a2.5 2.5 0 0 0-.282.277q-.113.134-.2.285a.65.65 0 0 0-.088.285q-.004.052-.003.106v1.085zM8.4 3.22v.009c-.03.323-.154.63-.28.928a3 3 0 0 1-.29.553c-.13.188-.3.354-.451.529q-.349.404-.693.812a42 42 0 0 0-.874 1.08A35 35 0 0 0 4.343 9.14q-.45.666-.853 1.36c-.012.02-.02.043-.04.058q-.003-.048-.004-.096 0-.476.003-.953.001-.08-.01-.158a.8.8 0 0 0-.135-.344 2 2 0 0 0-.248-.306q-.104-.106-.215-.206c-.175-.156-.354-.308-.529-.465q-.403-.362-.802-.727a5 5 0 0 1-.486-.506 5 5 0 0 1-.667-1.063 4.5 4.5 0 0 1-.244-.627 3 3 0 0 1-.1-.484 2 2 0 0 1-.001-.466q.013-.142.058-.276c.098-.283.299-.467.59-.563q.158-.05.325-.047l.506.002 1.777-.001q.304 0 .607-.003.073 0 .147-.005.054-.002.057-.057l.003-.08v-.802q0-.203.01-.406c.018-.36.129-.693.322-1 .203-.322.491-.553.847-.707a2.5 2.5 0 0 1 .586-.174c.155-.026.31-.041.467-.037.297.01.585.057.858.172q.247.104.454.265c.254.198.457.434.596.72.183.377.178.772.18 1.18 0 .292.025.591-.002.883" opacity=".6"/><path fill="#DCE5FA" d="m14.313 12.704-.003.105a4 4 0 0 1-.035.425 4.502 4.502 0 0 1-1.092 2.397 4.54 4.54 0 0 1-2.953 1.525c-.114.012-.229.016-.343.026a1.6 1.6 0 0 1-.326-.006q-.028-.003-.055-.004a4.46 4.46 0 0 1-2.038-.61 4.53 4.53 0 0 1-2.26-4.014c.002-.133.021-.265.046-.397.064-.338.176-.662.31-.98.161-.382.354-.75.564-1.11.248-.425.519-.837.804-1.241q.602-.849 1.27-1.653A34 34 0 0 1 9.62 5.56l.039-.037a.1.1 0 0 1 .055-.028c.063-.011.121-.003.167.045l.043.045a32 32 0 0 1 2.572 3.105c.32.448.624.905.9 1.379.222.382.426.774.593 1.182q.144.349.236.713.053.216.077.436.016.152.011.305m-1.298.684q.002-.03-.022-.037l-.053-.011-.315-.04-.313-.046a.2.2 0 0 0-.036 0 .02.02 0 0 0-.02.014q-.01.034-.016.068c-.008.064-.025.126-.04.187a2.078 2.078 0 0 1-.708 1.119 2.623 2.623 0 0 1-1.111.524c-.031.006-.038.015-.034.042l.01.06q.032.14.059.281.022.142.042.284l.008.043c.003.013.019.022.035.02q.013 0 .027-.003.396-.08.761-.25.382-.175.705-.44.412-.337.67-.793c.163-.284.268-.589.332-.907q.01-.061.02-.115"/></g></svg>