<svg xmlns="http://www.w3.org/2000/svg" xml:space="preserve" fill-rule="evenodd" stroke-linejoin="round" stroke-miterlimit="2" clip-rule="evenodd" viewBox="0 0 50 50"><circle cx="25" cy="25" r="25"/><path fill="#fff" fill-rule="nonzero" d="m26.976 22.316 10.378-10.379L33.417 8l-8.41 8.41L16.597 8l-3.937 3.937 10.379 10.379c.543.543 1.256.815 1.968.815.713 0 1.425-.272 1.969-.815ZM42 33.403l-8.41-8.41 8.41-8.41-3.937-3.937-10.378 10.378c-1.087 1.088-1.087 2.85 0 3.938L38.063 37.34 42 33.403Zm-17.007.187 8.41 8.41 3.937-3.937-10.379-10.379c-1.087-1.087-2.849-1.087-3.937 0L12.646 38.063 16.583 42l8.41-8.41Zm-2.678-6.614c.523-.522.816-1.23.816-1.969 0-.738-.293-1.446-.816-1.968L11.937 12.66 8 16.598l8.41 8.409L8 33.417l3.937 3.937 10.379-10.378h-.001Z"/></svg>