<svg xmlns="http://www.w3.org/2000/svg" xml:space="preserve" fill-rule="evenodd" stroke-linejoin="round" stroke-miterlimit="2" clip-rule="evenodd" viewBox="0 0 38 38"><circle cx="18.75" cy="18.75" r="18.75"/><g fill="#fff" fill-rule="nonzero"><path d="M18.75 6c-1.04.005-2.068.199-3.026.572-.959.373-1.828.917-2.559 1.602-.732.684-1.31 1.495-1.703 2.386-.393.892-.592 1.846-.587 2.809v2.434h6.398v-3.526c0-.166.035-.33.104-.483.068-.153.168-.292.295-.409.126-.117.276-.21.441-.273.165-.064.342-.096.521-.096h.231c.179 0 .356.032.521.096.165.063.315.156.442.273.126.117.226.256.295.409.068.153.103.317.103.483v9.453c.84 0 1.672-.153 2.449-.451.776-.298 1.481-.734 2.075-1.285.594-.55 1.066-1.203 1.387-1.923.322-.719.487-1.489.487-2.268v-2.434c.005-1.951-.825-3.824-2.306-5.21-.727-.684-1.594-1.227-2.55-1.598C20.812 6.19 19.786 6 18.75 6Z"/><path d="M18.865 26.517h-.23c-.179 0-.356-.033-.521-.096-.165-.063-.316-.156-.442-.273-.126-.117-.227-.256-.295-.409-.068-.153-.104-.317-.103-.483v-9.453c-.841-.001-1.673.153-2.449.451-.776.297-1.482.734-2.076 1.284-.594.551-1.065 1.204-1.387 1.923-.321.72-.487 1.49-.486 2.269v2.4c-.011.964.185 1.921.576 2.815.391.893.969 1.706 1.701 2.392.732.685 1.604 1.229 2.565 1.6.96.372 1.991.563 3.032.563s2.072-.191 3.032-.563c.961-.371 1.833-.915 2.565-1.6.732-.686 1.311-1.499 1.701-2.392.391-.894.587-1.851.577-2.815v-2.4h-6.398v3.526c0 .166-.036.33-.104.483-.068.153-.169.292-.295.409-.127.117-.277.21-.442.273-.165.063-.342.096-.521.096Z"/></g></svg>