<svg xmlns="http://www.w3.org/2000/svg" fill="none" viewBox="0 0 318 558"><path fill="#fff" d="M158.813.695326C137.909.799578 117.231 5.0426 97.9583 13.1828 78.686 21.323 61.1973 33.2017 46.4911 48.1383 31.7848 63.0749 20.149 80.7781 12.2482 100.237 4.34746 119.695.336643 140.528.444502 161.545v53.129H129.12V137.7c-.002-3.615.705-7.194 2.08-10.535 1.375-3.34 3.392-6.375 5.934-8.931 2.542-2.556 5.56-4.583 8.882-5.967 3.322-1.383 6.882-2.094 10.477-2.093h4.639c3.596-.001 7.157.71 10.479 2.093 3.322 1.384 6.34 3.411 8.883 5.967 2.542 2.556 4.559 5.591 5.935 8.931 1.376 3.341 2.083 6.92 2.082 10.535v206.35c16.899 0 33.631-3.346 49.243-9.848 15.612-6.501 29.798-16.03 41.746-28.044 11.949-12.014 21.427-26.276 27.893-41.973 6.467-15.696 9.794-32.521 9.794-49.511v-53.129c.091-42.584-16.587-83.4726-46.389-113.7301-14.623-14.9312-32.056-26.787-51.282-34.8767C200.29 4.8486 179.655.686554 158.813.695326Z"/><path fill="#fff" d="M161.141 448.531h-4.639c-3.595.001-7.155-.711-10.477-2.094-3.321-1.383-6.339-3.411-8.881-5.967-2.542-2.555-4.558-5.589-5.934-8.928-1.375-3.34-2.083-6.919-2.082-10.534V214.66c-16.898-.001-33.6315 3.344-49.2438 9.845-15.6123 6.501-29.7976 16.03-41.7465 28.044-11.9489 12.014-21.4273 26.277-27.8933 41.974C3.77834 310.22.451186 327.044.45264 344.034v52.391c-.21437 21.047 3.72372 41.929 11.58646 61.437 7.8628 19.508 19.4942 37.255 34.2216 52.215 14.7274 14.96 32.2584 26.836 51.5794 34.941 19.3209 8.104 40.0489 12.278 60.9839 12.278 20.935 0 41.662-4.174 60.983-12.278 19.321-8.105 36.853-19.981 51.58-34.941 14.727-14.96 26.359-32.707 34.221-52.215 7.863-19.508 11.801-40.39 11.587-61.437v-52.391H188.52v76.974c0 3.615-.709 7.194-2.085 10.534-1.376 3.339-3.393 6.374-5.935 8.93s-5.561 4.582-8.883 5.965c-3.321 1.383-6.881 2.095-10.476 2.094Z"/></svg>