<svg xmlns="http://www.w3.org/2000/svg" xml:space="preserve" fill-rule="evenodd" stroke-linejoin="round" stroke-miterlimit="2" clip-rule="evenodd" viewBox="0 0 50 50"><path fill="#fff" fill-rule="nonzero" d="M17.814 32.19c-.798 0-1.539-.108-2.223-.323-.684-.215-1.26-.538-1.729-.969-.469-.431-.804-.969-1.007-1.615-.19-.646-.215-1.4-.076-2.261.101-.545.209-1.089.323-1.634.127-.545.253-1.096.38-1.653.418-1.71 1.172-3.008 2.261-3.895 1.089-.887 2.559-1.33 4.408-1.33.798 0 1.533.114 2.204.342.684.215 1.26.545 1.729.988.481.443.817.988 1.007 1.634.203.646.228 1.4.076 2.261-.089.557-.196 1.108-.323 1.653-.114.545-.234 1.089-.361 1.634-.431 1.735-1.191 3.034-2.28 3.895-1.089.849-2.552 1.273-4.389 1.273Zm.247-2.736c.684 0 1.286-.203 1.805-.608.519-.405.887-1.051 1.102-1.938.139-.557.26-1.083.361-1.577.114-.494.215-1.007.304-1.539.165-.887.089-1.533-.228-1.938s-.817-.608-1.501-.608c-.684 0-1.286.203-1.805.608-.507.405-.868 1.051-1.083 1.938-.139.532-.266 1.045-.38 1.539-.101.494-.203 1.02-.304 1.577-.152.887-.076 1.533.228 1.938s.804.608 1.501.608ZM25.944 32c-.126 0-.228-.044-.304-.133-.076-.089-.101-.203-.076-.342l2.622-12.35c.026-.139.095-.253.209-.342.114-.089.235-.133.361-.133h5.054c.773 0 1.47.089 2.09.266.634.177 1.159.45 1.577.817.418.367.71.83.874 1.387.165.545.171 1.184.019 1.919-.316 1.457-.962 2.533-1.938 3.23-.962.697-2.261 1.045-3.895 1.045h-2.565l-.874 4.161c-.025.139-.095.253-.209.342-.101.089-.221.133-.361.133h-2.584Zm4.522-7.258h2.185c.52 0 .982-.139 1.387-.418.418-.279.691-.703.817-1.273.064-.329.076-.621.038-.874s-.171-.456-.399-.608c-.215-.152-.551-.228-1.007-.228h-2.28l-.741 3.401Z"/><path fill="#ff0320" d="M25 50c13.807 0 25-11.193 25-25S38.807 0 25 0 0 11.193 0 25s11.193 25 25 25Zm-9.409-18.133c.684.215 1.425.323 2.223.323 1.837 0 3.3-.424 4.389-1.273 1.089-.861 1.849-2.16 2.28-3.895.127-.545.247-1.089.361-1.634.127-.545.234-1.096.323-1.653.152-.861.127-1.615-.076-2.261-.19-.646-.526-1.191-1.007-1.634-.469-.443-1.045-.773-1.729-.988-.671-.228-1.406-.342-2.204-.342-1.849 0-3.319.443-4.408 1.33-1.089.887-1.843 2.185-2.261 3.895-.127.557-.253 1.108-.38 1.653-.114.545-.222 1.089-.323 1.634-.139.861-.114 1.615.076 2.261.203.646.538 1.184 1.007 1.615.469.431 1.045.754 1.729.969Zm4.275-3.021c-.519.405-1.121.608-1.805.608-.697 0-1.197-.203-1.501-.608-.304-.405-.38-1.051-.228-1.938.101-.557.203-1.083.304-1.577.114-.494.241-1.007.38-1.539.215-.887.576-1.533 1.083-1.938.519-.405 1.121-.608 1.805-.608.684 0 1.184.203 1.501.608.317.405.393 1.051.228 1.938-.089.532-.19 1.045-.304 1.539-.101.494-.222 1.02-.361 1.577-.215.887-.583 1.533-1.102 1.938Zm5.774 3.021c.076.089.178.133.304.133h2.584c.14 0 .26-.044.361-.133.114-.089.184-.203.209-.342l.874-4.161h2.565c1.634 0 2.933-.348 3.895-1.045.976-.697 1.622-1.773 1.938-3.23.152-.735.146-1.374-.019-1.919-.164-.557-.456-1.02-.874-1.387s-.943-.64-1.577-.817c-.62-.177-1.317-.266-2.09-.266h-5.054c-.126 0-.247.044-.361.133-.114.089-.183.203-.209.342l-2.622 12.35c-.025.139 0 .253.076.342Zm7.011-7.125h-2.185l.741-3.401h2.28c.456 0 .792.076 1.007.228.228.152.361.355.399.608.038.253.026.545-.038.874-.126.57-.399.994-.817 1.273-.405.279-.867.418-1.387.418Z"/></svg>