<svg xmlns="http://www.w3.org/2000/svg" xml:space="preserve" fill-rule="evenodd" stroke-linejoin="round" stroke-miterlimit="2" clip-rule="evenodd" viewBox="0 0 50 50"><path fill="#fff" d="M25 50c13.807 0 25-11.193 25-25S38.807 0 25 0 0 11.193 0 25s11.193 25 25 25Zm-9.409-18.133c.684.215 1.425.323 2.223.323 1.837 0 3.3-.424 4.389-1.273 1.089-.861 1.849-2.16 2.28-3.895.127-.545.247-1.089.361-1.634.127-.545.234-1.096.323-1.653.152-.861.127-1.615-.076-2.261-.19-.646-.526-1.191-1.007-1.634-.469-.443-1.045-.773-1.729-.988-.671-.228-1.406-.342-2.204-.342-1.849 0-3.319.443-4.408 1.33-1.089.887-1.843 2.185-2.261 3.895-.127.557-.253 1.108-.38 1.653-.114.545-.222 1.089-.323 1.634-.139.861-.114 1.615.076 2.261.203.646.538 1.184 1.007 1.615.469.431 1.045.754 1.729.969Zm4.275-3.021c-.519.405-1.121.608-1.805.608-.697 0-1.197-.203-1.501-.608-.304-.405-.38-1.051-.228-1.938.101-.557.203-1.083.304-1.577.114-.494.241-1.007.38-1.539.215-.887.576-1.533 1.083-1.938.519-.405 1.121-.608 1.805-.608.684 0 1.184.203 1.501.608.317.405.393 1.051.228 1.938-.089.532-.19 1.045-.304 1.539-.101.494-.222 1.02-.361 1.577-.215.887-.583 1.533-1.102 1.938Zm5.774 3.021c.076.089.178.133.304.133h2.584c.14 0 .26-.044.361-.133.114-.089.184-.203.209-.342l.874-4.161h2.565c1.634 0 2.933-.348 3.895-1.045.976-.697 1.622-1.773 1.938-3.23.152-.735.146-1.374-.019-1.919-.164-.557-.456-1.02-.874-1.387s-.943-.64-1.577-.817c-.62-.177-1.317-.266-2.09-.266h-5.054c-.126 0-.247.044-.361.133-.114.089-.183.203-.209.342l-2.622 12.35c-.025.139 0 .253.076.342Zm7.011-7.125h-2.185l.741-3.401h2.28c.456 0 .792.076 1.007.228.228.152.361.355.399.608.038.253.026.545-.038.874-.126.57-.399.994-.817 1.273-.405.279-.867.418-1.387.418Z"/></svg>