<svg version="1.2" baseProfile="tiny-ps" xmlns="http://www.w3.org/2000/svg" viewBox="0 0 497 497" width="497" height="497">
	<title>blz-bnb</title>
	<style>
		tspan { white-space:pre }
		.shp0 { fill: #ffb357 } 
		.shp1 { fill: #ffce71 } 
		.shp2 { fill: #30cd9c } 
		.shp3 { fill: #18c08b } 
		.shp4 { fill: #70dcba } 
		.shp5 { fill: #e8b5b1 } 
		.shp6 { fill: #d6948c } 
		.shp7 { fill: #ce857a } 
		.shp8 { fill: #fce3a0 } 
		.shp9 { fill: #f3ba2f } 
		.shp10 { fill: #ffffff } 
		.shp11 { fill: #fdba4d } 
		.shp12 { fill: #5da9dd } 
		.shp13 { fill: #18568c } 
		.shp14 { fill: #18578c } 
		.shp15 { fill: #18568b } 
	</style>
	<g id="g977">
		<g id="g965">
			<path id="path935" class="shp0" d="M130.04 232.67C113.05 240.59 95.32 244.98 77.68 246.15C59.39 247.36 55.29 272.26 72.29 279.13C96.7 288.99 124.99 289.09 150.74 277.08L130.04 232.67Z" />
			<path id="path937" class="shp1" d="M419.32 246.15C401.68 244.98 383.95 240.59 366.96 232.67L346.26 277.08C372.01 289.09 400.3 288.99 424.71 279.13C441.71 272.26 437.61 247.36 419.32 246.15Z" />
			<path id="path939" class="shp2" d="M178.56 129.4C237.13 187.97 234.18 229.34 206.84 256.68C179.5 284.01 138.14 286.97 79.56 228.39C20.98 169.81 -18.49 86.02 8.85 58.69C36.19 31.35 119.98 70.82 178.56 129.4Z" />
			<path id="path941" class="shp2" d="M319.78 129.4C261.2 187.97 264.16 229.34 291.49 256.68C318.83 284.01 360.19 286.97 418.77 228.39C464.52 182.65 497 121.53 497 83.92C497 73.42 495.47 64.67 489.48 58.69C462.15 31.35 378.36 70.82 319.78 129.4Z" />
			<g id="g947">
				<path id="path943" class="shp3" d="M389.92 153.46C383.79 147.88 374.31 148.33 368.73 154.46L291.73 237.09L312.96 258.33L390.92 174.65C396.49 168.52 396.05 159.03 389.92 153.46Z" />
				<path id="path945" class="shp3" d="M107.08 153.46C100.95 159.03 100.51 168.52 106.08 174.65L184.04 258.33L205.27 237.09L128.27 154.46C122.69 148.33 113.21 147.88 107.08 153.46Z" />
			</g>
			<path id="path949" class="shp4" d="M318.5 170C318.5 252.84 287.16 280 248.5 280C209.84 280 178.5 252.84 178.5 170C178.5 87.16 209.84 0 248.5 0C287.16 0 318.5 87.16 318.5 170Z" />
			<path id="path951" class="shp3" d="M263.5 152.83C263.5 144.54 256.78 137.83 248.5 137.83C240.22 137.83 233.5 144.54 233.5 152.83L213.5 423.38L283.5 423.38C283.5 417.19 263.5 155.27 263.5 152.83Z" />
			<g id="g963">
				<g id="g957">
					<path id="path953" class="shp5" d="M255.18 380.7L280.76 369.24C288.98 365.56 298.56 369.95 301.14 378.58L311.18 444.16L246.37 444.16L246.37 394.31C246.37 388.43 249.82 383.11 255.18 380.7Z" />
					<path id="path955" class="shp6" d="M248.83 378.5L217.56 364.49C207.2 359.85 194.21 365.61 192.27 378.38L180.37 454.16L259.6 454.16L259.6 395.13C259.6 387.95 255.38 381.44 248.83 378.5Z" />
				</g>
				<path id="path959" class="shp6" d="M258.2 424.74L292.52 409.36C303.55 404.42 316.41 410.31 319.86 421.89L333.34 497L246.37 497L246.37 442.99C246.37 435.11 251 427.96 258.2 424.74Z" />
				<path id="path961" class="shp7" d="M254.6 465.73L254.6 459.16C254.6 449.36 248.84 440.47 239.9 436.47L207.23 420.35C193.52 414.21 177.54 421.53 173.25 435.93L156.5 497L267.55 497C259.26 488.71 254.6 477.46 254.6 465.73Z" />
			</g>
		</g>
		<g id="g971">
			<path id="path967" class="shp8" d="M196.42 260.4C202.15 242.88 179.93 229.56 167.18 242.87C154.71 255.87 139.67 266.83 122.36 274.9C105.05 282.97 86.99 287.45 69.02 288.64C50.63 289.86 46.55 315.44 63.65 322.31C88.5 332.3 117.27 332.38 143.47 320.16C169.67 307.95 188.1 285.86 196.42 260.4Z" />
			<path id="path969" class="shp8" d="M300.58 260.4C294.85 242.88 317.07 229.56 329.82 242.87C342.29 255.87 357.33 266.83 374.64 274.9C391.95 282.97 410.01 287.45 427.98 288.64C446.37 289.86 450.45 315.44 433.35 322.31C408.5 332.3 379.73 332.38 353.53 320.16C327.33 307.95 308.9 285.86 300.58 260.4Z" />
		</g>
		<path id="path973" class="shp1" d="M232.19 249.45C231.48 228.91 203.65 223.66 195.37 242.46C187.37 260.6 175.94 277.6 161.07 292.47C150.3 303.24 138.4 312.21 125.76 319.38C117.13 324.27 112.49 334.04 114.37 343.78C116.76 356.11 128.6 364.16 140.96 362C162.56 358.24 183.25 348.01 199.93 331.33C222.46 308.8 233.21 278.96 232.19 249.45Z" />
		<path id="path975" class="shp0" d="M264.81 249.45C265.52 228.91 293.35 223.66 301.63 242.46C309.63 260.6 321.06 277.6 335.93 292.47C346.7 303.24 358.6 312.21 371.24 319.38C379.87 324.27 384.51 334.04 382.63 343.78C380.24 356.11 368.4 364.16 356.04 362C334.44 358.24 313.75 348.01 297.07 331.33C274.54 308.8 263.79 278.96 264.81 249.45Z" />
	</g>
	<g id="g1744">
		<path id="circle1740" class="shp9" d="M370.81 427.11C312.83 427.11 265.97 380.25 265.97 322.27C265.97 264.3 312.83 217.44 370.81 217.44C428.78 217.44 475.64 264.3 475.64 322.27C475.64 380.25 428.78 427.11 370.81 427.11Z" />
		<path id="path1742" fill-rule="evenodd" class="shp10" d="M330.55 297.01L370.81 256.75L411.08 297.02L396.27 311.83L370.81 286.37L345.36 311.82L330.55 297.01ZM305.29 322.27L320.09 307.47L334.9 322.27L320.09 337.08L305.29 322.27ZM345.36 332.73L370.81 358.18L396.27 332.72L411.08 347.52L370.81 387.8L330.53 347.52L345.36 332.73ZM406.71 322.27L421.52 307.47L436.33 322.27L421.52 337.08L406.71 322.27ZM385.83 322.26L385.84 322.26L385.84 322.27L370.81 337.3L355.8 322.3L355.77 322.27L355.8 322.25L358.42 319.62L359.7 318.34L370.81 307.24L385.83 322.26Z" />
	</g>
	<g id="Folder 1">
		<path id="Layer" class="shp11" d="M54.63 366.36C61.58 359.44 72.81 359.46 79.73 366.41C86.66 373.35 86.65 384.58 79.72 391.51C72.79 398.44 61.55 398.45 54.61 391.53C47.67 384.61 47.65 373.37 54.56 366.42L54.63 366.36Z" />
		<path id="Layer" class="shp11" d="M176.25 250.89C181.34 245.8 188.99 244.28 195.63 247.03C202.28 249.79 206.61 256.27 206.61 263.46C206.61 270.65 202.28 277.14 195.63 279.89C188.99 282.64 181.34 281.12 176.25 276.04L176.25 276.04C174.6 274.39 173.29 272.43 172.4 270.28C171.51 268.13 171.05 265.82 171.05 263.49C171.04 261.16 171.5 258.85 172.39 256.69C173.28 254.54 174.58 252.58 176.23 250.93L176.25 250.93" />
		<path id="Layer" class="shp11" d="M77.43 352.68L96.19 371.44L113.38 354.25C111.27 353.4 109.24 352.34 107.34 351.08C105.44 349.83 103.67 348.38 102.05 346.77C100.44 345.16 99 343.39 97.74 341.49C96.48 339.58 95.42 337.56 94.57 335.44L77.43 352.68Z" />
		<path id="Layer" class="shp11" d="M161.8 306.77L178.99 289.58L160.23 270.81L143.04 288C144.1 288.43 145.13 288.9 146.14 289.43C147.15 289.96 148.13 290.54 149.08 291.17C150.03 291.8 150.95 292.47 151.83 293.19C152.72 293.91 153.56 294.68 154.37 295.48C155.17 296.28 155.93 297.12 156.65 298C157.37 298.88 158.04 299.79 158.67 300.74C159.29 301.69 159.87 302.67 160.39 303.67C160.91 304.68 161.38 305.71 161.8 306.77Z" />
		<path id="Layer" class="shp12" d="M175.65 390.62C170.57 385.53 169.04 377.88 171.8 371.24C174.55 364.59 181.03 360.26 188.23 360.26C195.42 360.26 201.9 364.59 204.66 371.24C207.41 377.88 205.89 385.53 200.8 390.62L200.8 390.62C199.15 392.27 197.2 393.58 195.04 394.47C192.89 395.37 190.58 395.83 188.24 395.83C185.91 395.83 183.6 395.38 181.44 394.49C179.29 393.59 177.33 392.29 175.67 390.64L175.65 390.62Z" />
		<path id="Layer" class="shp12" d="M56.41 274.45C51.32 269.37 49.8 261.72 52.55 255.07C55.31 248.43 61.79 244.09 68.98 244.09C76.18 244.09 82.66 248.43 85.41 255.07C88.17 261.72 86.64 269.37 81.56 274.45L81.56 274.45C79.91 276.1 77.95 277.41 75.79 278.3C73.64 279.2 71.33 279.66 69 279.66C66.66 279.66 64.35 279.2 62.2 278.3C60.04 277.41 58.08 276.1 56.43 274.45L56.43 274.45" />
		<path id="Layer" class="shp12" d="M158.81 370.69L177.57 351.93L160.38 334.74C159.53 336.85 158.47 338.88 157.22 340.78C155.96 342.68 154.52 344.45 152.9 346.07C151.29 347.68 149.52 349.12 147.62 350.38C145.72 351.64 143.69 352.7 141.58 353.55" />
		<path id="Layer" class="shp12" d="M114.82 287.03L97.63 269.84L78.86 288.6L96.05 305.79C96.48 304.73 96.95 303.7 97.48 302.69C98.01 301.68 98.59 300.7 99.22 299.75C99.85 298.8 100.52 297.88 101.24 297C101.96 296.11 102.73 295.27 103.53 294.46C104.33 293.66 105.17 292.9 106.05 292.18C106.93 291.46 107.84 290.79 108.79 290.16C109.74 289.54 110.72 288.96 111.72 288.44C112.73 287.92 113.76 287.44 114.82 287.03" />
		<path id="Layer" class="shp13" d="M146.24 236.8C146.23 246.62 138.27 254.58 128.45 254.57C118.62 254.57 110.66 246.61 110.66 236.79C110.66 226.97 118.62 219 128.45 219C138.27 219 146.23 226.95 146.24 236.77L146.24 236.8Z" />
		<path id="Layer" class="shp13" d="M146.24 406.82C146.23 416.64 138.27 424.6 128.45 424.59C118.62 424.59 110.66 416.63 110.66 406.81C110.66 396.99 118.62 389.02 128.45 389.02C138.27 389.02 146.23 396.97 146.24 406.79L146.24 406.82Z" />
		<path id="Layer" class="shp13" d="M134.9 263.92L123.71 263.92L123.71 285.96C124.63 285.8 125.56 285.68 126.5 285.6C127.43 285.52 128.37 285.48 129.31 285.48C130.24 285.48 131.18 285.52 132.11 285.6C133.05 285.68 133.98 285.8 134.9 285.96" />
		<path id="Layer" class="shp13" d="M134.9 358.63C133.98 358.79 133.05 358.91 132.11 358.99C131.18 359.07 130.24 359.11 129.31 359.11C128.37 359.11 127.43 359.07 126.5 358.99C125.56 358.91 124.63 358.79 123.71 358.63L123.71 380.68L134.9 380.68" />
		<path id="Layer" class="shp14" d="M207.2 334.74C197.38 334.73 189.42 326.77 189.43 316.94C189.43 307.12 197.39 299.16 207.21 299.16C217.03 299.16 225 307.12 225 316.94C225 326.77 217.05 334.73 207.23 334.74L207.2 334.74Z" />
		<path id="Layer" class="shp14" d="M43.8 337.76C36.6 337.76 30.11 333.42 27.36 326.77C24.6 320.12 26.12 312.47 31.21 307.38C36.3 302.28 43.96 300.76 50.61 303.51C57.26 306.27 61.6 312.76 61.6 319.96C61.6 322.29 61.14 324.61 60.25 326.77C59.35 328.93 58.04 330.89 56.39 332.55C54.74 334.2 52.77 335.51 50.61 336.41C48.45 337.3 46.14 337.76 43.8 337.76L43.8 337.76Z" />
		<path id="Layer" class="shp14" d="M161.94 325.56L183.98 325.56L183.98 314.34L161.94 314.34C162.1 315.27 162.22 316.2 162.3 317.13C162.38 318.07 162.42 319.01 162.42 319.94C162.42 320.88 162.38 321.82 162.3 322.75C162.22 323.69 162.1 324.62 161.94 325.54L161.94 325.56Z" />
		<path id="Layer" class="shp14" d="M93.45 325.56C93.29 324.63 93.17 323.7 93.08 322.77C93 321.84 92.96 320.9 92.96 319.96C92.96 319.02 93 318.09 93.08 317.15C93.17 316.22 93.29 315.29 93.45 314.36L71.4 314.36L71.4 325.56" />
		<path id="Layer" class="shp15" d="M153.14 321.27C153.14 331.48 146.99 340.68 137.56 344.59C128.13 348.49 117.28 346.33 110.06 339.12C102.84 331.9 100.68 321.05 104.59 311.62C108.5 302.19 117.7 296.04 127.91 296.04L127.91 296.04C131.22 296.04 134.5 296.69 137.56 297.96C140.62 299.23 143.4 301.09 145.75 303.43C148.09 305.77 149.95 308.56 151.22 311.62C152.49 314.68 153.14 317.96 153.14 321.27L153.14 321.27Z" />
	</g>
</svg>