<svg version="1.2" baseProfile="tiny-ps" xmlns="http://www.w3.org/2000/svg" viewBox="0 0 497 497" width="497" height="497">
	<title>coti-bnb</title>
	<defs>
		<linearGradient id="grd1" gradientUnits="userSpaceOnUse"  x1="106.706" y1="353.98" x2="93.384" y2="278.479">
			<stop offset="0.1" stop-color="#194aad"  />
			<stop offset="0.5" stop-color="#248fcb"  />
			<stop offset="0.8" stop-color="#2bbfdf"  />
		</linearGradient>
		<linearGradient id="grd2" gradientUnits="userSpaceOnUse"  x1="157.095" y1="271.842" x2="139.478" y2="371.741">
			<stop offset="0.1" stop-color="#194aad"  />
			<stop offset="0.5" stop-color="#248fcb"  />
			<stop offset="0.8" stop-color="#2bbfdf"  />
		</linearGradient>
	</defs>
	<style>
		tspan { white-space:pre }
		.shp0 { fill: #ffb357 } 
		.shp1 { fill: #ffce71 } 
		.shp2 { fill: #30cd9c } 
		.shp3 { fill: #18c08b } 
		.shp4 { fill: #70dcba } 
		.shp5 { fill: #e8b5b1 } 
		.shp6 { fill: #d6948c } 
		.shp7 { fill: #ce857a } 
		.shp8 { fill: #fce3a0 } 
		.shp9 { fill: #00467a } 
		.shp10 { fill: url(#grd1) } 
		.shp11 { fill: url(#grd2) } 
		.shp12 { fill: #194aad } 
		.shp13 { fill: #f3ba2f } 
		.shp14 { fill: #ffffff } 
	</style>
	<g id="g977">
		<g id="g965">
			<path id="path935" class="shp0" d="M130.04 232.67C113.05 240.59 95.32 244.98 77.68 246.15C59.39 247.36 55.29 272.26 72.29 279.13C96.7 288.99 124.99 289.09 150.74 277.08L130.04 232.67Z" />
			<path id="path937" class="shp1" d="M419.32 246.15C401.68 244.98 383.95 240.59 366.96 232.67L346.26 277.08C372.01 289.09 400.3 288.99 424.71 279.13C441.71 272.26 437.61 247.36 419.32 246.15Z" />
			<path id="path939" class="shp2" d="M178.56 129.4C237.13 187.97 234.18 229.34 206.84 256.68C179.5 284.01 138.14 286.97 79.56 228.39C20.98 169.81 -18.49 86.02 8.85 58.69C36.19 31.35 119.98 70.82 178.56 129.4Z" />
			<path id="path941" class="shp2" d="M319.78 129.4C261.2 187.97 264.16 229.34 291.49 256.68C318.83 284.01 360.19 286.97 418.77 228.39C464.52 182.65 497 121.53 497 83.92C497 73.42 495.47 64.67 489.48 58.69C462.15 31.35 378.36 70.82 319.78 129.4Z" />
			<g id="g947">
				<path id="path943" class="shp3" d="M389.92 153.46C383.79 147.88 374.31 148.33 368.73 154.46L291.73 237.09L312.96 258.33L390.92 174.65C396.49 168.52 396.05 159.03 389.92 153.46Z" />
				<path id="path945" class="shp3" d="M107.08 153.46C100.95 159.03 100.51 168.52 106.08 174.65L184.04 258.33L205.27 237.09L128.27 154.46C122.69 148.33 113.21 147.88 107.08 153.46Z" />
			</g>
			<path id="path949" class="shp4" d="M318.5 170C318.5 252.84 287.16 280 248.5 280C209.84 280 178.5 252.84 178.5 170C178.5 87.16 209.84 0 248.5 0C287.16 0 318.5 87.16 318.5 170Z" />
			<path id="path951" class="shp3" d="M263.5 152.83C263.5 144.54 256.78 137.83 248.5 137.83C240.22 137.83 233.5 144.54 233.5 152.83L213.5 423.38L283.5 423.38C283.5 417.19 263.5 155.27 263.5 152.83Z" />
			<g id="g963">
				<g id="g957">
					<path id="path953" class="shp5" d="M255.18 380.7L280.76 369.24C288.98 365.56 298.56 369.95 301.14 378.58L311.18 444.16L246.37 444.16L246.37 394.31C246.37 388.43 249.82 383.11 255.18 380.7Z" />
					<path id="path955" class="shp6" d="M248.83 378.5L217.56 364.49C207.2 359.85 194.21 365.61 192.27 378.38L180.37 454.16L259.6 454.16L259.6 395.13C259.6 387.95 255.38 381.44 248.83 378.5Z" />
				</g>
				<path id="path959" class="shp6" d="M258.2 424.74L292.52 409.36C303.55 404.42 316.41 410.31 319.86 421.89L333.34 497L246.37 497L246.37 442.99C246.37 435.11 251 427.96 258.2 424.74Z" />
				<path id="path961" class="shp7" d="M254.6 465.73L254.6 459.16C254.6 449.36 248.84 440.47 239.9 436.47L207.23 420.35C193.52 414.21 177.54 421.53 173.25 435.93L156.5 497L267.55 497C259.26 488.71 254.6 477.46 254.6 465.73Z" />
			</g>
		</g>
		<g id="g971">
			<path id="path967" class="shp8" d="M196.42 260.4C202.15 242.88 179.93 229.56 167.18 242.87C154.71 255.87 139.67 266.83 122.36 274.9C105.05 282.97 86.99 287.45 69.02 288.64C50.63 289.86 46.55 315.44 63.65 322.31C88.5 332.3 117.27 332.38 143.47 320.16C169.67 307.95 188.1 285.86 196.42 260.4Z" />
			<path id="path969" class="shp8" d="M300.58 260.4C294.85 242.88 317.07 229.56 329.82 242.87C342.29 255.87 357.33 266.83 374.64 274.9C391.95 282.97 410.01 287.45 427.98 288.64C446.37 289.86 450.45 315.44 433.35 322.31C408.5 332.3 379.73 332.38 353.53 320.16C327.33 307.95 308.9 285.86 300.58 260.4Z" />
		</g>
		<path id="path973" class="shp1" d="M232.19 249.45C231.48 228.91 203.65 223.66 195.37 242.46C187.37 260.6 175.94 277.6 161.07 292.47C150.3 303.24 138.4 312.21 125.76 319.38C117.13 324.27 112.49 334.04 114.37 343.78C116.76 356.11 128.6 364.16 140.96 362C162.56 358.24 183.25 348.01 199.93 331.33C222.46 308.8 233.21 278.96 232.19 249.45Z" />
		<path id="path975" class="shp0" d="M264.81 249.45C265.52 228.91 293.35 223.66 301.63 242.46C309.63 260.6 321.06 277.6 335.93 292.47C346.7 303.24 358.6 312.21 371.24 319.38C379.87 324.27 384.51 334.04 382.63 343.78C380.24 356.11 368.4 364.16 356.04 362C334.44 358.24 313.75 348.01 297.07 331.33C274.54 308.8 263.79 278.96 264.81 249.45Z" />
	</g>
	<g id="coti">
		<g id="Layer">
			<g id="Layer">
				<g id="Layer">
					<g id="Layer">
						<path id="SVGID_9_" class="shp9" d="M122.5 219C179.11 219 225 264.89 225 321.5C225 378.11 179.11 424 122.5 424C65.89 424 20 378.11 20 321.5C20 264.89 65.89 219 122.5 219L122.5 219Z" />
					</g>
				</g>
			</g>
		</g>
		<path id="Layer" class="shp10" d="M64.67 308.12C62.61 308.12 61.7 309.04 61.7 310.86C61.7 310.86 61.7 352 61.7 357.94C61.7 359.99 62.61 360.68 64.67 360.68C87.29 360.91 114.94 340.8 137.79 325.03L137.79 270.64C115.17 286.18 86.84 308.35 64.67 308.12Z" />
		<path id="Layer" class="shp11" d="M183.72 329.37C185.78 329.37 186.69 328.46 186.69 326.63C186.69 326.63 186.69 285.5 186.69 279.56C186.69 277.5 185.78 276.82 183.72 276.82C160.87 276.59 133.45 296.69 110.6 312.46L110.6 366.62C133.22 351.08 161.56 328.92 183.72 329.37Z" />
		<path id="Layer" class="shp12" d="M137.79 325.03L137.79 293.95C128.42 299.89 119.06 306.29 110.37 312.23L110.37 343.31C119.97 337.37 129.11 330.97 137.79 325.03Z" />
	</g>
	<g id="g1744">
		<path id="circle1740" class="shp13" d="M370.81 427.11C312.83 427.11 265.97 380.25 265.97 322.27C265.97 264.3 312.83 217.44 370.81 217.44C428.78 217.44 475.64 264.3 475.64 322.27C475.64 380.25 428.78 427.11 370.81 427.11Z" />
		<path id="path1742" fill-rule="evenodd" class="shp14" d="M330.55 297.01L370.81 256.75L411.08 297.02L396.27 311.83L370.81 286.37L345.36 311.82L330.55 297.01ZM305.29 322.27L320.09 307.47L334.9 322.27L320.09 337.08L305.29 322.27ZM345.36 332.73L370.81 358.18L396.27 332.72L411.08 347.52L370.81 387.8L330.53 347.52L345.36 332.73ZM406.71 322.27L421.52 307.47L436.33 322.27L421.52 337.08L406.71 322.27ZM385.83 322.26L385.84 322.26L385.84 322.27L370.81 337.3L355.8 322.3L355.77 322.27L355.8 322.25L358.42 319.62L359.7 318.34L370.81 307.24L385.83 322.26Z" />
	</g>
</svg>