<?xml version="1.0" encoding="UTF-8" standalone="no"?>
<svg
   xmlns:dc="http://purl.org/dc/elements/1.1/"
   xmlns:cc="http://creativecommons.org/ns#"
   xmlns:rdf="http://www.w3.org/1999/02/22-rdf-syntax-ns#"
   xmlns:svg="http://www.w3.org/2000/svg"
   xmlns="http://www.w3.org/2000/svg"
   xmlns:xlink="http://www.w3.org/1999/xlink"
   xmlns:sodipodi="http://sodipodi.sourceforge.net/DTD/sodipodi-0.dtd"
   xmlns:inkscape="http://www.inkscape.org/namespaces/inkscape"
   width="512"
   height="512"
   viewBox="0 0 497 497"
   id="Capa_1"
   overflow="hidden"
   version="1.1"
   sodipodi:docname="doge-bnb.svg"
   inkscape:version="1.0.2 (e86c870879, 2021-01-15)">
  <metadata
     id="metadata984">
    <rdf:RDF>
      <cc:Work
         rdf:about="">
        <dc:format>image/svg+xml</dc:format>
        <dc:type
           rdf:resource="http://purl.org/dc/dcmitype/StillImage" />
        <dc:title></dc:title>
      </cc:Work>
    </rdf:RDF>
  </metadata>
  <defs
     id="defs982">
    <clipPath
       id="clip0">
      <rect
         x="87"
         y="109"
         width="502"
         height="502"
         id="rect1632" />
    </clipPath>
    <clipPath
       id="clip1">
      <rect
         x="154"
         y="180"
         width="331"
         height="331"
         id="rect1635" />
    </clipPath>
    <clipPath
       id="clip2">
      <rect
         x="154"
         y="180"
         width="331"
         height="331"
         id="rect1638" />
    </clipPath>
    <clipPath
       id="clip3">
      <rect
         x="154"
         y="180"
         width="331"
         height="331"
         id="rect1641" />
    </clipPath>
    <clipPath
       id="SVGID_2_">
      <use
         xlink:href="#SVGID_1_"
         style="overflow:visible"
         id="use879"
         x="0"
         y="0"
         width="100%"
         height="100%" />
    </clipPath>
    <linearGradient
       id="SVGID_3_"
       gradientUnits="userSpaceOnUse"
       x1="20.644199"
       y1="1011.5057"
       x2="24.3328"
       y2="998.83948"
       gradientTransform="matrix(1,0,0,-1,-12,1012)">
      <stop
         offset="0"
         style="stop-color:#03B8FF"
         id="stop882" />
      <stop
         offset="1"
         style="stop-color:#FA52A0"
         id="stop884" />
    </linearGradient>
    <linearGradient
       id="SVGID_4_"
       gradientUnits="userSpaceOnUse"
       x1="23.681801"
       y1="1012.3904"
       x2="27.370501"
       y2="999.72412"
       gradientTransform="matrix(1,0,0,-1,-12,1012)">
      <stop
         offset="0"
         style="stop-color:#03B8FF"
         id="stop889" />
      <stop
         offset="1"
         style="stop-color:#FA52A0"
         id="stop891" />
    </linearGradient>
    <linearGradient
       id="SVGID_5_"
       gradientUnits="userSpaceOnUse"
       x1="17.615999"
       y1="1010.6239"
       x2="21.304701"
       y2="997.95758"
       gradientTransform="matrix(1,0,0,-1,-12,1012)">
      <stop
         offset="0"
         style="stop-color:#03B8FF"
         id="stop896" />
      <stop
         offset="1"
         style="stop-color:#FA52A0"
         id="stop898" />
    </linearGradient>
    <rect
       id="rect928"
       width="24"
       height="24"
       x="0"
       y="0" />
    <clipPath
       id="SVGID_2_-0">
      <use
         xlink:href="#SVGID_1_"
         style="overflow:visible"
         id="use879-8"
         x="0"
         y="0"
         width="100%"
         height="100%" />
    </clipPath>
    <rect
       id="rect928-2"
       width="24"
       height="24"
       x="0"
       y="0" />
    <clipPath
       id="SVGID_2_-1">
      <use
         xlink:href="#SVGID_1_"
         style="overflow:visible"
         id="use879-7"
         x="0"
         y="0"
         width="100%"
         height="100%" />
    </clipPath>
    <rect
       id="rect928-8"
       width="24"
       height="24"
       x="0"
       y="0" />
    <rect
       id="SVGID_1_"
       width="24"
       height="24" />
    <linearGradient
       id="paint0_linear"
       x1="45"
       y1="0"
       x2="45"
       y2="90"
       gradientUnits="userSpaceOnUse">
      <stop
         stop-color="#54DADE"
         id="stop1627" />
      <stop
         offset="0.762157"
         stop-color="#24C7D6"
         id="stop1629" />
    </linearGradient>
    <linearGradient
       id="paint1_linear"
       x1="38.761799"
       y1="24.0704"
       x2="38.761799"
       y2="51.894798"
       gradientUnits="userSpaceOnUse">
      <stop
         stop-color="#9F4A08"
         id="stop1632" />
      <stop
         offset="0.370494"
         stop-color="#7D3900"
         id="stop1634" />
      <stop
         offset="1"
         stop-color="#8D4104"
         id="stop1636" />
    </linearGradient>
  </defs>
  <sodipodi:namedview
     pagecolor="#ffffff"
     bordercolor="#666666"
     borderopacity="1"
     objecttolerance="10"
     gridtolerance="10"
     guidetolerance="10"
     inkscape:pageopacity="0"
     inkscape:pageshadow="2"
     inkscape:window-width="1920"
     inkscape:window-height="1001"
     id="namedview980"
     showgrid="false"
     inkscape:zoom="0.81054689"
     inkscape:cx="-61.554742"
     inkscape:cy="242.75111"
     inkscape:window-x="2391"
     inkscape:window-y="489"
     inkscape:window-maximized="1"
     inkscape:current-layer="Capa_1"
     inkscape:document-rotation="0" />
  <g
     id="g977">
    <g
       id="g965">
      <path
         d="M130.036 232.669C113.048 240.59 95.322 244.983 77.68 246.151 59.392 247.361 55.293 272.261 72.287 279.126 96.704 288.989 124.99 289.086 150.744 277.077Z"
         fill="#FFB357"
         id="path935" />
      <path
         d="M419.32 246.151C401.678 244.983 383.951 240.59 366.964 232.669L346.256 277.077C372.01 289.086 400.295 288.989 424.713 279.126 441.707 272.262 437.609 247.362 419.32 246.151Z"
         fill="#FFCE71"
         id="path937" />
      <path
         d="M178.556 129.396C237.135 187.975 234.177 229.339 206.84 256.675 179.503 284.011 138.139 286.969 79.561 228.391 20.983 169.813-18.486 86.022 8.851 58.685 36.188 31.348 119.978 70.817 178.556 129.396Z"
         fill="#30CD9C"
         id="path939" />
      <path
         d="M319.777 129.396C261.198 187.975 264.156 229.339 291.493 256.675 318.83 284.011 360.194 286.969 418.772 228.391 464.517 182.645 497 121.526 497 83.921 497 73.416 495.471 64.674 489.482 58.685 462.146 31.348 378.355 70.817 319.777 129.396Z"
         fill="#30CD9C"
         id="path941" />
      <g
         fill="#18C08B"
         id="g947">
        <path
           d="M389.92 153.458C383.794 147.882 374.306 148.328 368.731 154.456L291.727 237.095 312.964 258.332 390.919 174.648C396.494 168.521 396.047 159.034 389.92 153.458Z"
           id="path943" />
        <path
           d="M107.08 153.458C100.953 159.034 100.506 168.52 106.082 174.647L184.037 258.331 205.274 237.094 128.27 154.455C122.694 148.328 113.206 147.882 107.08 153.458Z"
           id="path945" />
      </g>
      <path
         d="M318.5 170C318.5 252.843 287.16 280 248.5 280 209.84 280 178.5 252.843 178.5 170 178.5 87.157 209.84 0 248.5 0 287.16 0 318.5 87.157 318.5 170Z"
         fill="#70DCBA"
         id="path949" />
      <path
         d="M263.5 152.826C263.5 144.542 256.784 137.826 248.5 137.826 240.216 137.826 233.5 144.542 233.5 152.826L213.5 423.383 283.5 423.383C283.5 417.185 263.5 155.274 263.5 152.826Z"
         fill="#18C08B"
         id="path951" />
      <g
         id="g963">
        <g
           id="g957">
          <path
             d="M255.183 380.704 280.763 369.244C288.98 365.563 298.56 369.953 301.137 378.58L311.177 444.156 246.372 444.156 246.372 394.305C246.373 388.432 249.823 383.106 255.183 380.704Z"
             fill="#E8B5B1"
             id="path953" />
          <path
             d="M248.827 378.5 217.555 364.49C207.203 359.853 194.206 365.608 192.272 378.382L180.373 454.157 259.598 454.157 259.598 395.129C259.598 387.947 255.38 381.436 248.827 378.5Z"
             fill="#D6948C"
             id="path955" />
        </g>
        <path
           d="M258.196 424.739 292.523 409.36C303.55 404.42 316.406 410.311 319.863 421.888L333.336 497 246.372 497 246.372 442.991C246.373 435.109 251.002 427.962 258.196 424.739Z"
           fill="#D6948C"
           id="path959" />
        <path
           d="M254.598 465.733 254.598 459.156C254.598 449.358 248.843 440.474 239.901 436.468L207.231 420.351C193.524 414.21 177.544 421.533 173.245 435.925L156.498 497 267.549 497C259.256 488.708 254.598 477.46 254.598 465.733Z"
           fill="#CE857A"
           id="path961" />
      </g>
    </g>
    <g
       fill="#FCE3A0"
       id="g971">
      <path
         d="M196.422 260.398C202.146 242.881 179.932 229.564 167.179 242.866 154.712 255.87 139.672 266.827 122.363 274.898 105.054 282.969 86.993 287.447 69.017 288.639 50.629 289.858 46.552 315.435 63.65 322.31 88.504 332.303 117.272 332.378 143.47 320.161 169.667 307.946 188.101 285.861 196.422 260.398Z"
         id="path967" />
      <path
         d="M300.578 260.398C294.854 242.881 317.068 229.564 329.821 242.866 342.288 255.87 357.328 266.827 374.637 274.898 391.946 282.969 410.007 287.447 427.983 288.639 446.371 289.858 450.448 315.435 433.35 322.31 408.496 332.303 379.728 332.378 353.53 320.161 327.333 307.946 308.899 285.861 300.578 260.398Z"
         id="path969" />
    </g>
    <path
       d="M232.189 249.448C231.478 228.911 203.654 223.655 195.366 242.458 187.368 260.604 175.937 277.603 161.071 292.469 150.297 303.243 138.402 312.213 125.762 319.38 117.131 324.274 112.49 334.041 114.374 343.783 116.757 356.109 128.597 364.161 140.964 362.003 162.56 358.235 183.249 348.011 199.932 331.329 222.462 308.799 233.211 278.959 232.189 249.448Z"
       fill="#FFCE71"
       id="path973" />
    <path
       d="M264.811 249.448C265.522 228.911 293.346 223.655 301.634 242.458 309.632 260.604 321.063 277.603 335.929 292.469 346.703 303.243 358.598 312.213 371.238 319.38 379.869 324.274 384.51 334.041 382.626 343.783 380.243 356.109 368.403 364.161 356.036 362.003 334.44 358.235 313.751 348.011 297.068 331.329 274.538 308.799 263.789 278.959 264.811 249.448Z"
       fill="#FFB357"
       id="path975" />
  </g>
  <g
     fill="none"
     id="g1744"
     transform="matrix(6.5522461,0,0,6.5522461,265.97266,217.4375)">
    <circle
       cx="16"
       cy="16"
       r="16"
       fill="#f3ba2f"
       id="circle1740" />
    <path
       fill="#ffffff"
       d="M 12.116,14.404 16,10.52 l 3.886,3.886 2.26,-2.26 L 16,6 9.856,12.144 Z M 6,16 8.26,13.74 10.52,16 8.26,18.26 Z m 6.116,1.596 3.884,3.884 3.886,-3.886 2.26,2.259 L 16,26 9.856,19.856 9.853,19.853 Z M 21.48,16 23.74,13.74 26,16 23.74,18.26 Z m -3.188,-0.002 h 0.002 V 16 L 16,18.294 13.709,16.004 13.705,16 13.709,15.997 14.11,15.595 14.305,15.4 16,13.706 l 2.293,2.293 z"
       id="path1742" />
  </g>
  <style
     type="text/css"
     id="style2209">
	.st0{clip-path:url(#SVGID_2_);}
	.st1{fill:url(#SVGID_3_);}
	.st2{fill:url(#SVGID_4_);}
	.st3{fill:url(#SVGID_5_);}
	.st4{fill:#0E0F23;}
	.st5{fill-rule:evenodd;clip-rule:evenodd;fill:#FFFFFF;}
	.st6{fill:#FFFFFF;}
</style>
  <style
     type="text/css"
     id="style1550">
	.st0{fill:#FFFFFF;}
	.st1{fill:#FF002F;}
	.st2{fill:#0AA604;}
	.st3{fill:#AF051E;}
	.st4{fill:#FF3B00;}
	.st5{fill:#106315;}
</style>
  <g
     id="Layer_1-3"
     data-name="Layer_1"
     transform="matrix(0.111825,0,0,0.111825,23.296875,217.4375)">
    <circle
       cx="937.5"
       cy="937.5"
       r="937.5"
       style="fill:#988430"
       id="circle918" />
    <circle
       cx="937.5"
       cy="937.5"
       r="907.46997"
       style="fill:#7a6a2a"
       id="circle920" />
    <circle
       cx="937.5"
       cy="937.5"
       r="888.34998"
       style="fill:#ba9f33"
       id="circle922" />
    <path
       d="m 409.89,837.38 c -5.31,-4.85 -10.92,-9.71 -16.08,-14.56 -5.16,-4.85 -10.46,-9.71 -15.77,-14.56 l -15.78,-15 c -2.58,-2.58 -5.31,-4.85 -7.89,-7.44 -2.58,-2.27 -5.61,-4.85 -8.19,-7.13 -20.94,-19.87 -42,-39.74 -62.65,-59.62 21.39,19.57 42.33,39 63.72,58.86 l 7.43,7.44 c 2.58,2.57 5.31,4.85 7.89,7.43 l 15.77,14.56 c 5.31,4.85 10.47,9.71 15.78,15 5.31,5.29 10.47,10.16 15.78,15 z m -277.91,-3 c 0,0 76.15,7.88 113.32,13.19 34.43,4.86 142.14,21.39 142.14,21.39 z m 0,0 c 21.39,1.82 42.78,4.09 64.17,6.37 10.92,1.06 21.39,2.27 31.86,3.33 l 16.07,1.83 c 5.31,0.75 10.47,1.51 15.78,2.27 l 63.72,10.16 31.85,5.31 c 10.47,1.82 20.94,3.8 31.86,5.62 -10.47,-1.06 -21.39,-2.58 -31.86,-4.1 l -31.85,-4.55 -63.72,-9.4 c -5.31,-0.76 -10.47,-1.83 -15.78,-2.58 L 228,846.79 c -10.47,-1.06 -21.39,-2.58 -31.86,-3.8 -21.39,-2.57 -42.78,-5.31 -64.17,-8.64 z m 247.88,54.42 c 0,0 -81.31,20.64 -108.77,28.53 -27,7.43 -108.77,32.31 -108.77,32.31 l 217.53,-60.83 z"
       style="fill:#cfb66c;fill-rule:evenodd"
       id="path924" />
    <path
       d="m 379.85,888.8 c -18.05,5.31 -36,10.47 -54.31,15.33 l -54.31,14.56 c -18.05,5.31 -36,10.47 -54,15.78 l -27,7.43 c -8.95,2.58 -18.05,4.85 -27.3,7.44 8.94,-3 18.05,-6.07 27,-8.65 l 27,-8.64 c 18.05,-5.62 36,-10.93 54,-16.54 18.35,-4.55 36.41,-9.41 54.76,-13.81 17.44,-4.4 35.8,-8.79 54.16,-12.89 v 0 z M 173.7,999.7 c 8.94,-3.34 112.1,-51.42 136.07,-62.65 12,-5.62 46.88,-18 46.88,-18 z"
       style="fill:#cfb66c;fill-rule:evenodd"
       id="path926" />
    <path
       d="m 173.7,999.7 c 7.88,-3 15.32,-6.67 22.9,-10.16 l 22.45,-10.47 45.06,-21.69 c 15,-7.13 29.58,-15 45.05,-21.7 7.89,-3.33 15.78,-6.06 23.66,-8.64 l 12,-3.79 c 4.09,-1.06 7.89,-2.28 12,-3.34 -15,7.13 -30.79,13.2 -45.81,20.17 -15,7.44 -30.34,13.51 -45.82,20.18 l -45.81,20.17 C 204,986.66 189,993.33 173.69,999.7 v 0 z m 10,42 c 0,0 93.44,-54.76 125.6,-72.36 16.84,-9.4 71.3,-36.41 71.3,-36.41 z"
       style="fill:#cfb66c;fill-rule:evenodd"
       id="path928" />
    <path
       d="m 183.71,1041.72 c 15.77,-9.71 31.85,-19.57 47.93,-29.58 l 24,-14.57 c 8.19,-4.85 16.08,-9.4 24.43,-14.25 8.19,-4.86 16.08,-9.71 24.42,-14.26 a 87.54,87.54 0 0 1 12.44,-6.37 l 12.74,-6.37 c 16.84,-8.19 33.68,-16.54 51.43,-23.67 -16.08,10.17 -32.62,18.82 -49.15,27.76 -8.19,4.55 -16.54,8.65 -24.73,13.2 -8.19,4.55 -16.08,9.41 -24.43,13.81 -8.19,4.85 -16.08,9.4 -24.42,13.8 l -24.73,13.5 -49.91,27 v 0 z m 196.14,-96.79 c 0,0 -58.1,44.6 -76.91,58.86 -18.81,14.26 -74.18,54.31 -74.18,54.31 z"
       style="fill:#cfb66c;fill-rule:evenodd"
       id="path930" />
    <polygon
       points="1302.79,1282.16 1251.37,1448.58 1042.93,1456.47 946.15,1389.42 832.83,1342.08 713.29,1304.61 683.56,1248.33 700.85,1177.94 824.18,1130.31 771.69,1022.61 797.63,913.84 846.33,816.44 996.82,792.78 1107.4,687.35 1346.18,705.4 1393.05,960.71 "
       style="fill:#e2cc85;fill-rule:evenodd"
       id="polygon932" />
    <path
       d="m 1078.89,1302.79 c 0,0 -28.83,13.2 -78,10.16 C 986.66,1293.84 887,1284.89 887,1284.89 c 0,0 -12.44,-3.79 -34.44,5.31 -22.14,9 -43.08,7.89 -62.65,12.74 -19.57,4.85 -39,-20.63 -54,-25.94 -15,-5.61 -34.89,-19.11 -34.89,-19.11 l -42,-4.1 -84.34,-35.65 -133.99,-133.49 -36.41,57 -11.23,70.54 40.51,83.59 109.07,99.36 212.68,54 126.06,-37.14 157.92,-66.75 39.6,-42.47 z"
       style="fill:#f1d789;fill-rule:evenodd"
       id="path934" />
    <polygon
       points="323.27,831.01 350.27,749.25 382.44,696.45 486.04,687.8 454.94,778.52 368.33,932.65 404.28,1070.24 340.57,1102.09 320.99,1072.06 305.22,1003.19 304.16,925.82 "
       style="fill:#f4ecb4;fill-rule:evenodd"
       id="polygon936" />
    <path
       d="m 439.47,1297.18 -19.87,-27.76 c 0,0 -5.31,-13.2 -2.27,-24.73 3,-11.68 2.57,-12.44 1.06,-16.84 -1.51,-4.4 -14.26,-19.57 -13.5,-32.62 0.75,-13.2 -1.06,-17.6 8.64,-28.06 10.16,-10.16 7.13,-27.76 7.13,-27.76 l 13.2,8.19 3,-4.55 c 0,0 4.85,3.79 4.85,9.71 1.06,-8.19 -3.34,-46.12 6.67,-54.76 10.01,-8.64 27.76,40.5 27.76,40.5 l -10.92,-71.3 -28.07,-73.11 -49.91,-66.75 -3,-73.58 v -6.37 c 0,0 -22.91,35.2 -29.28,63 -4.55,19.11 6.37,42.32 4.1,69.78 -1.83,27.31 -4.1,25.18 2.57,36 6.67,10.82 22.91,33.07 16.54,49.15 -5.61,13.81 -24.73,4.1 -24.73,4.1 0,0 -3.79,11.22 -8.95,15.32 -1.82,-6.67 -3.79,-10.92 -7.43,-15 -0.31,2.58 -1.06,6.07 -1.06,6.07 0,0 -3.34,-10.47 -6.68,-23.67 -4.54,-17.59 -9.4,-40.8 -13.8,-53.24 -1.82,7.13 -6.37,28.82 -6.37,28.82 l 2.58,33.38 12.44,45.81 12,30 11.68,36.71 10.15,24.66 8.19,18.81 7.13,42.33 34.43,36.4 18.36,8.2 13.34,-6.83 v 0 z"
       style="fill:#f3e19d;fill-rule:evenodd"
       id="path938" />
    <path
       d="m 341.32,764.26 c 0,0 -24.73,42 -31.85,84.34 -7.12,42.34 -13.5,87.08 -9,144.72 4.55,58.11 13.2,93.75 20.18,119.24 12,42.33 43.08,101.19 43.08,101.19 l 1.06,-2.28 a 159.88,159.88 0 0 1 -12.44,-31.1 c -4.1,-16.08 -5.62,-35.19 -9.41,-43.84 -3.34,-8.64 -8.95,-16.08 -11.68,-26.7 -2.58,-10.16 -3,-26.24 -10.92,-38.22 -3.34,-4.86 -7.44,-17.6 -8.65,-30.34 -1.52,-19.12 0.76,-40.51 -1.06,-58.1 -3.34,-29.28 -5.61,-49.15 -2.58,-64.48 3.03,-15.33 18.82,-58.85 28.53,-93.44 6.37,-22.15 2.57,-40.81 14.25,-60.08 11.68,-19.11 18.82,-35.95 21.39,-47.63 3,-10.62 -30.94,46.72 -30.94,46.72 v 0 z"
       style="fill:#f2e8b0;fill-rule:evenodd"
       id="path940" />
    <path
       d="m 458.59,747.42 c 0,0 -12.74,3.8 -18.81,10.47 -6.07,6.37 -8.65,11.68 -16.84,22.45 -8.19,10.77 -8.65,19.57 -15.33,33.07 -6.67,13.2 -21.39,33.07 -23.21,40.2 -1.82,7.13 -4.85,40.5 -8.64,56.28 -3.34,15.78 3.79,35.2 3.79,35.2 l 8.64,-1.83 c 0,0 0,11.23 8.65,18.82 8.64,7.43 10.16,-25.19 10.16,-25.19 l 32.31,-109.07 48.69,-33.07 5.31,-26.7 -34.74,-20.63 v 0 z"
       style="fill:#f5eec0;fill-rule:evenodd"
       id="path942" />
    <path
       d="m 482.25,796.88 c 0,0 -22.91,1.51 -34.13,9.71 -4.55,3.33 -6.37,6.06 -11.22,10.16 -8.95,7.43 -18.06,14.26 -22.45,24 -4.86,9.7 -10.17,24.42 -13.81,52.18 -1.52,11.68 -1.52,22.45 -2.58,31.86 -1.52,12.74 -3.79,22.9 -2.58,30 1.52,14.56 16.54,22.15 18,38.68 l 31.1,-15.77 29.28,-115.45 62.2,-39 -35.2,-39.44 -18.65,13 v 0 z"
       style="fill:#e6db9d;fill-rule:evenodd"
       id="path944" />
    <path
       d="m 318.18,1574.29 c 0.13,-1.14 0.26,-2.28 0.39,-3.45 4.54,-39 5.31,-68.56 8.64,-87.07 4.85,-26.24 8.19,-36 7.43,-45.82 -1.06,-15.77 -2.27,-27.3 -0.75,-39.44 2.27,-16.08 18.05,-35.19 17.6,-48.39 -0.31,-10.47 -5.62,-17.29 -10.17,-23.66 -4.55,-6.37 -8.19,-11.68 -8.19,-11.68 0,0 31.1,-21.39 30.8,-107.56 a 8.18,8.18 0 0 1 1.82,0.76 l 15.32,43.53 10.47,12.74 40.2,74.94 51.73,50.22 76.45,51.42 47.94,52.17 4.85,139.11 -62.65,81.31 L 539.8,1732 A 891.11,891.11 0 0 1 318.17,1574.28 Z"
       style="fill:#e5cb7a;fill-rule:evenodd"
       id="path946" />
    <path
       d="m 509.56,1707.37 c 0,0 1.06,-17.29 15.32,-28.52 2.28,3.79 3.79,7.44 3.34,10.16 2.58,-4.54 20.63,-33.67 61.44,-41.26 40.81,-7.43 50.67,-37.16 50.67,-37.16 l 86.61,-78.73 99.06,-91.17 120.45,-42.33 56.29,-13.81 c 0,0 1.06,4.1 -1.06,13.2 10.46,-0.75 33.67,-6.06 57.79,-14.56 9.71,-3.79 18.82,-5.31 23.67,-0.3 7.13,6.67 8.19,22.45 8.64,31.85 11.68,-2.58 25.18,-13.8 36,-12.74 17.3,1.82 32.62,22.15 50.22,22.15 23.21,0 33.67,-14.26 49.91,-25.49 9.71,-6.67 23.66,-15 31.55,-20.63 18.81,-13.81 217.84,-74.64 217.84,-74.64 l 69.78,4.55 11.23,74.94 -6,195.9 c -0.74,0.71 -1.48,1.45 -2.23,2.16 L 1232.8,1746.65 793,1814.07 a 882.11,882.11 0 0 1 -281.16,-96.71 l -2.25,-10 v 0 z"
       style="fill:#d8c173;fill-rule:evenodd"
       id="path948" />
    <path
       d="m 344.85,1599.21 c 6.25,-13.07 11.87,-24 12.86,-27.91 0.78,7.88 2.21,25.17 5.09,43.55 q -9.07,-7.71 -17.95,-15.65 z"
       style="fill:#f1d789;fill-rule:evenodd"
       id="path950" />
    <path
       d="m 666.12,1783.57 56.88,-15.82 4.85,1.52 c 0,0 2.58,1.52 2.58,6.67 7.13,-4.09 13.2,-3.34 17.6,-6.06 2.27,4.85 4.54,20.93 14.56,22.9 10.46,2.28 21.69,-4.55 33.07,-13.19 11.22,-8.95 24,-20.18 33.67,-24.73 a 180.8,180.8 0 0 1 9.41,20.17 c 12.74,-10.16 34.89,-51.42 66.44,-50.67 A 119.72,119.72 0 0 1 949,1671.42 c 29.28,-19.87 47.63,-21.39 70.54,-19.57 a 120.62,120.62 0 0 1 33.07,-29.58 c 3.79,1.52 14.26,7.89 27.31,1.82 13.2,-6.06 28.06,-29.58 47.63,-32.61 a 46,46 0 0 1 30.34,6.37 c 0,0 57,-56.59 96.33,-75.4 -1.52,-4.55 -4.55,-21.69 41.56,-59.62 2.58,2.28 0.76,8.65 2.58,9 0.75,0 12,-4.85 26.24,-15.78 17.6,-13.19 38.68,-27 51.42,-30.79 24,-7.13 49.46,7.43 49.46,7.43 a 22.8,22.8 0 0 1 7.13,-3.34 c 6.06,-1.06 10.46,-1.82 13.8,-3 -0.3,7.89 4.1,21.39 0,33.07 a 73.75,73.75 0 0 0 15,6.37 c -2.57,5.61 -8.19,19.87 -17.59,26.7 7.88,3.79 8.94,8.19 20.17,12 -4.55,6.37 -12,17.3 -15.32,24 -3.34,7.13 -15.33,36.71 -20.64,47.93 -5.61,11.23 -13.19,31.86 -16.84,36 -3.65,4.14 -16.84,21.69 -27,30.33 9,-3.34 45.82,-14.56 61.44,-18.81 -4.65,6.82 -28.22,41.79 -50.88,75.42 a 890.14,890.14 0 0 1 -728.7,84.36 z"
       style="fill:#e0cd81;fill-rule:evenodd"
       id="path952" />
    <path
       d="m 486,792.78 c 0,0 -13.19,0 -15.77,1.82 -2.58,1.82 13.2,5.62 18.05,7.44 4.85,1.82 15.32,10.16 18.05,16.84 2.58,6.37 94.81,43.53 94.81,43.53 l 65.23,-3.34 22.49,-31.07 -42.78,-37.47 30,-88.44 -39.74,6.37 -95.57,57 -47.94,18.36 z"
       style="fill:#dfc57c;fill-rule:evenodd"
       id="path954" />
    <path
       d="m 629.25,822.06 a 10.23,10.23 0 0 0 9,4.85 c 13.5,0 25.93,3.34 31.09,10.16 8.65,10.93 32.62,45.82 32.62,45.82 l 57.34,20.63 3.7,-67.52 -62.65,-43.53 -71.3,26.24 v 3.34 h 0.16 z"
       style="fill:#e5cc7c;fill-rule:evenodd"
       id="path956" />
    <path
       d="m 618,847.09 c 0,0 10.46,0.76 23.66,-4.1 13.2,-4.86 34.89,-15.32 44.3,-11.22 13.19,5.61 10.46,23.21 24.73,39 8.64,9.71 24.42,9.41 33.37,19.88 8.95,10.47 39.74,5.61 39.74,5.61 l 11.68,63 -46.87,60.08 -15.33,74.63 H 669.9 L 612,1071 l -28.52,-69 14.26,-69.78 z"
       style="fill:#d2c281;fill-rule:evenodd"
       id="path958" />
    <path
       d="m 740.6,850.12 a 17.16,17.16 0 0 0 4.85,0.76 c -1.82,1.52 -5.62,4.85 -4.1,13.5 1.52,8.65 6.37,19.57 2.28,26.24 a 32.8,32.8 0 0 1 7.13,12.44 c 2.58,7.44 3.34,14.26 20.17,15.33 a 35.44,35.44 0 0 0 -6.67,5.31 c 0,0 11.68,10.16 17.6,19.56 C 787.92,943 804,938 804,938 l 3.34,2.28 7.13,-3 c 0,0 -6.67,-2.58 -1.82,-18.81 4.55,-14.26 8.65,-13.5 9,-14.56 0.35,-1.06 3.34,-16.08 3.34,-22.15 2.27,-7.88 4.09,-31.85 4.09,-31.85 l -4.85,-52.94 -27.3,-16.54 -22.2,-21.43 -20.94,39.44 -13.79,13.75 -1.06,34.13 z"
       style="fill:#e2c270;fill-rule:evenodd"
       id="path960" />
    <path
       d="m 806.28,805.83 c 0,0 4.85,13.8 6.68,24.42 a 23.49,23.49 0 0 0 1.06,-6.37 c 0,0 3.79,20.94 4.54,29.59 1.52,-0.31 3,-0.76 3.34,0.75 0.34,1.51 3.8,18.36 3,27.76 a 75.65,75.65 0 0 1 25.48,-25.48 c 6.07,-3.8 13.2,-7.89 20.64,-8.2 11.68,-0.3 20.17,7.44 34.13,7.44 33.67,0 64.17,-24.73 86.62,-32.31 16.53,-5.62 30.79,-9.71 40.8,-18.82 4.86,-4.09 13.51,-13.19 21.39,-26.7 10.47,-18 21.39,-33.67 32.32,-35.64 a 67.78,67.78 0 0 1 -15,1.06 c 0,0 3.34,-3.34 9,-7.89 5.66,-4.55 12.44,-10.16 22.14,-10.16 17.3,0 25.94,2.57 35.65,2.57 9.71,-0.3 15.32,-2.57 15.32,-2.57 0,0 10.17,7.13 33.07,7.13 22.91,0.3 38.23,2.27 50.22,3.34 11.99,1.07 52.18,-3.34 63.71,-3 a 55.82,55.82 0 0 1 21.7,5.31 l -37.17,-108 -133.52,-116.7 -79.49,56.28 -122.28,122.27 -118.32,43.84 -24.73,27.76 v 42.32 z"
       style="fill:#ccb360;fill-rule:evenodd"
       id="path962" />
    <path
       d="m 1071.76,743.93 c 0,0 3.34,-3.33 8.94,-7.88 5.6,-4.55 12.45,-10.17 22.15,-10.17 17.29,0 25.94,2.58 35.65,2.58 9.71,-0.3 15.32,-2.58 15.32,-2.58 0,0 10.18,7.12 33.07,7.12 22.91,0.3 38.23,2.27 50.22,3.33 11.99,1.06 52.18,-3.33 63.71,-3 a 55.53,55.53 0 0 1 21.69,5.31 l -16.84,-48.7 -19.56,-37.16 -55.83,-61.14 c 0,0 -67,-39.44 -67.51,-39.74 -0.3,-0.3 -23.21,-6.37 -23.21,-6.37 l -60.68,36.71 -55.06,142.45 -1.06,30 35.64,16.84 c 8.95,-15 18.82,-27 28.07,-28.52 -8.35,0.91 -14.72,0.91 -14.72,0.91 v 0 z"
       style="fill:#d5b457;fill-rule:evenodd"
       id="path964" />
    <path
       d="m 1071,754.1 c -5.31,0.3 -9.7,-0.76 -10.92,-4.55 -4.55,-12.74 -8.19,-14.56 -12,-14.56 -3.81,0 -8.95,8.19 -12,8.94 -3.05,0.75 -6.67,-9.4 -6.67,-9.4 l -3.34,-1.52 c 0,0 -19.57,12.74 -33.37,27.76 -13.8,15.02 -36.41,40.51 -46.57,45.05 -10.16,4.54 -45.06,6.07 -57,8.65 -11.94,2.58 -25.18,11.23 -27,13.2 -1.82,1.97 5.32,4.09 6.38,6.06 1.06,1.82 -11.69,1.06 -12.75,3 -0.75,1.52 3,10.16 4.86,14.56 a 24.73,24.73 0 0 1 10.46,-2.58 c 11.68,-0.3 20.18,7.44 34.13,7.44 33.68,0 64.17,-24.73 86.62,-32.32 16.54,-5.61 30.8,-9.71 40.81,-18.81 4.85,-4.09 13.5,-13.2 21.39,-26.7 5.76,-9.25 11.38,-17.9 17,-24.27 v 0 z"
       style="fill:#d2b257;fill-rule:evenodd"
       id="path966" />
    <path
       d="m 588,1504.86 c 0,0 -3,-11.23 -30.8,-40.2 -7.89,-8.19 -12.74,-15 -18.05,-19.87 -13.2,-12.45 -20.94,-15.78 -30.34,-22.91 -20.63,-15.32 -43.08,-15.32 -60.37,-34.13 C 431.15,1368.94 411,1333 397,1296.27 c -13.8,-36.71 -17.6,-48.39 -17.6,-49.45 0,-1.06 3.8,-8.19 8.65,-7.13 4.85,1.06 4.85,10.46 6.07,12.74 a 75.27,75.27 0 0 0 8.19,10.46 c 7.13,8.2 17.29,18 22.45,32.62 -1.06,-12.44 -5.31,-26.24 -5.31,-26.24 0,0 26.7,16.84 49.45,34.43 22.91,17.6 32.31,23.67 39,34.89 6.69,11.22 22.45,40.81 30,49.46 7.55,8.65 111,41.26 111,41.26 l 49.21,36.69 24.43,53.55 -19.12,30 -36.71,7.89 -59.62,-26.7 -19.09,-25.89 v 0 z"
       style="fill:#d2b159;fill-rule:evenodd"
       id="path968" />
    <path
       d="m 455.55,1320.39 c 0,0 12.44,19.87 42.78,38.68 27.31,16.54 70.54,31.56 109.08,40.51 22.14,5.31 44.29,9.4 64.16,9.71 53.55,0.75 90.41,-14.56 136.08,-19.57 24.73,-2.58 55.07,-4.55 86.62,-12 40.5,-9.71 64.47,-20.64 97.09,-36 23.66,-10.92 45.36,-19.11 62.95,-29.58 24.73,-14.56 42.78,-30.79 63.72,-35.64 -2.58,7.13 -5.31,19.87 -25.94,33.07 10.92,-0.31 25.94,-1.06 25.94,-1.06 0,0 -14.56,8.64 -40.2,28.06 -15.78,12 -36.71,32.31 -58.1,45.81 -13.81,8.65 -28.83,15 -38.69,20.18 -24,13.2 -33.68,19.87 -49.45,36 5.61,-0.3 6.07,0 6.07,0 0,0 -19.88,2.58 -34.13,10.16 -3,0 -8.2,-1.06 -17.3,1.52 -7.13,2.27 -16.54,7.44 -26.24,10.16 -13.81,4.1 -18.35,2.28 -18.35,2.28 l 2.27,4.55 c 0,0 -18,-0.31 -24,0.3 1.06,0.3 0.76,0.76 0.76,0.76 a 9.21,9.21 0 0 0 -3,1.06 31.3,31.3 0 0 1 -9.4,4.09 c -1.82,0.3 -3.34,0.3 -5.62,0.76 0.76,1.82 6.68,12 9.41,18 -2.27,1.52 -36.41,27.31 -36.41,27.31 a 26,26 0 0 1 2.58,5.31 c 1.06,3.33 1.52,8.19 2.58,10.46 2.57,4.55 4.09,5.31 4.09,5.31 0,0 -4.09,0.76 -11.23,2.58 -6.06,1.52 -13.5,4.09 -24,5.61 a 95.13,95.13 0 0 1 -9.71,0.76 c 1.52,3.34 8.19,16.08 -4.1,30.79 -12.29,14.71 -16.08,16.85 -19.87,26.25 a 40.69,40.69 0 0 0 -6.07,-3.8 c -4.09,-1.82 -9.71,-4.54 -11.68,-8.19 a 97.33,97.33 0 0 1 -4.55,14.26 c -3.79,10.16 -9.4,20.18 -10.46,27.76 -4.1,-4.55 -11.68,-13.5 -22.15,-11.68 -10.47,1.82 -18.81,16.08 -20.63,20.18 0,-2.58 -1.82,-4.55 -2.27,-1.52 -0.31,3.34 -6.07,38.22 -38.23,66.44 -0.3,-7.13 -0.3,-22.91 -1.06,-28.06 -3,3 -6.67,7.43 -28.52,16.84 -21.39,9.4 -18,18.81 -18,18.81 0,0 -1.82,-15 9.71,-30.8 11.68,-15.77 18.81,-23.21 18.81,-24.42 a 6.75,6.75 0 0 0 -1.52,-3.34 c -1.52,-1.52 -4.55,-3.34 -4.55,-4.55 1.82,-0.75 19.87,-9.4 18.81,-27.31 -1.06,-16.07 -7.88,-24.42 -12.74,-30.33 -0.75,-0.76 7.14,-6.37 6.07,-8.19 -0.76,-1.06 -10.46,-8.2 -11.68,-12 a 34.86,34.86 0 0 1 1.52,-6.67 c 1.06,-3.34 1.82,-5.62 1.52,-7.89 -0.76,-3.79 -4.86,-14.26 -6.07,-15.32 1.06,0.3 8.64,0 8.64,0 0,0 -6.06,-9.71 -7.13,-14.26 -1.07,-4.55 -3.34,-16.54 -4.55,-18.81 2.58,0.3 8.95,0.75 8.95,0 0.31,-2.28 -5.61,-6.07 -3,-9 1.82,0.3 5.31,1.82 8.64,6.07 -1.82,-4.86 -4.85,-14.26 -11.23,-18.05 3,-1.06 13.2,-3.8 22.15,1.51 8.95,5.31 12,12.74 12,12.74 0,0 5.31,4.1 13.51,10.17 9.4,7.43 21.38,18 40.5,25.48 4.1,2.28 14.56,2.28 22.15,0.76 a 34.06,34.06 0 0 0 9.4,-3.79 17.43,17.43 0 0 1 3.34,-1.52 72.71,72.71 0 0 0 -5.61,-9.41 c 2.58,0 5.61,0.31 5.61,0.31 0,0 1.82,-4.1 -6.37,-12 1.82,-1.82 4.1,-3 4.1,-6.07 -2.58,-0.3 -7.13,-4.09 -8.19,-5.61 1.51,-1.06 3.79,-4.55 6.37,-5.61 -2.28,-1.82 -7.89,-9.41 -10.47,-10.16 a 47.69,47.69 0 0 0 7.13,-3.34 c 0,0 -12.74,-3.34 -16.84,-6.07 -4.1,-3 -10.16,-8.19 -13.8,-9.71 -3.8,-1.52 -10.47,-2.27 -13.2,-5.31 2.57,0.76 6.67,0 9.71,0 2.27,0 3.34,0.3 4.09,0.3 -0.3,-1.06 -0.3,-3.34 5.62,-4.09 a 27.71,27.71 0 0 0 8.19,-2.58 c 0,0 -5.62,-0.3 -12,-6.37 -6.38,-6.07 -11.68,-10.92 -15.32,-11.68 -3.79,-0.76 -10.92,2.58 -15.32,2.27 -6.07,-0.75 -8.65,-3.79 -8.65,-3.79 0,0 -20.17,1.82 -64.92,-25.48 -38.69,-23.67 -55.53,-44.6 -55.53,-44.6 a 66.52,66.52 0 0 1 -10.46,-4.86 c -14.56,-7.58 -34.74,-23.36 -34.13,-44 v 0 z"
       style="fill:#c2a44d;fill-rule:evenodd"
       id="path970" />
    <path
       d="m 1013.65,409.89 a 19.69,19.69 0 0 1 9,6.07 c 7.13,8.19 11.68,23.66 -4.55,40.2 6.37,2.27 9,3 14.56,2.27 -5.61,6.68 -18.35,20.94 -19.11,33.38 -0.76,10.16 5.61,13.2 5.61,13.2 0,0 -9.71,11.22 -10.16,30 a 121.56,121.56 0 0 1 15,-14.26 c 11.23,-8.95 26.7,-19.11 37.17,-25.48 a 21.39,21.39 0 0 0 1.06,7.88 c 0,0 19.56,-16.08 36,-8.94 7.43,3.34 4.09,13.8 4.09,13.8 0,0 10.17,-3.79 17.3,3.34 7.13,7.13 17.21,25.52 22.38,32.65 2.27,3.34 8.19,9.71 14.25,19.57 a 247.53,247.53 0 0 1 20.64,43.53 c 0.3,-7.89 2.27,-20.17 24.73,-12.44 22.45,7.89 47.93,24.43 69.32,57 21.39,32.57 26.69,69.34 37.46,83.34 10.92,13.5 22.15,35.95 22.91,45.36 0.76,9.41 -3.34,39.74 19.11,121.81 6.37,-25.48 16.08,-82.07 16.08,-82.07 l 5.31,-49.91 6.07,-154.43 -161.26,-133.97 -126.06,-91.48 -82.07,7.89 5.15,11.68 v 0 z"
       style="fill:#caa13e;fill-rule:evenodd"
       id="path972" />
    <path
       d="m 1313.26,639.71 c 0,0 -2.28,-15 -40.2,-40.5 -37.93,-25.18 -67.51,-25.18 -94.81,-46.57 -20.94,-16.84 -42.78,-55.53 -57,-68.27 -13.81,-12.59 -16.08,-49 -16.08,-49 l 46.57,-39 69.26,-100.11 58.55,-64.47 28.06,39 39,45.81 21.69,91.93 7.89,134.56 -63,96.63 z"
       style="fill:#b59544;fill-rule:evenodd"
       id="path974" />
    <path
       d="m 1360.14,801 a 171,171 0 0 0 -7.44,-60.37 c -10,-31.1 -31.85,-86.32 -42,-107 -4.1,-22.91 -1.06,-24.73 3.34,-27.31 4.4,-2.58 20.94,-12 30,-45.05 9.06,-33.05 37.17,-34.13 37.17,-34.13 l 17.29,-12.74 26.25,65.68 22.9,59.32 7.13,45.36 5.31,38.68 -12.44,81.77 -61.43,55.52 -26.09,-59.73 v 0 z"
       style="fill:#c89d3a;fill-rule:evenodd"
       id="path976" />
    <path
       d="m 502.89,1712.39 v -1.68 a 12.9,12.9 0 0 0 3.33,-3 c 1.06,-1.52 1.83,-3.34 2.58,-3.79 1.52,-0.76 8.65,-3 12.44,-2.28 3.79,0.72 13.81,4.85 19.12,4.55 10.92,-0.3 23.66,-8.65 43.84,-4.85 30.34,5.61 37.47,26.24 55.07,37.92 12,8.2 24.42,4.55 26.24,4.55 h 4.09 c 0.76,0 6.37,-6.37 9.41,-6.06 6.07,0.3 6.67,5.31 10.46,5.61 8.95,1.06 26.25,-4.55 34.9,-2.27 a 16.67,16.67 0 0 1 10.92,10.91 c 1.82,5.61 0.3,12.74 -4.1,16.84 -9.4,8.64 -18.35,16.84 -20.17,24 a 85.25,85.25 0 0 1 6.66,5.64 883.15,883.15 0 0 1 -214.79,-86 z"
       style="fill:#ceb052;fill-rule:evenodd"
       id="path978" />
    <path
       d="m 1310.68,1409.29 c 0,0 23.66,-31.55 31.86,-47.18 C 1350.73,1346 1316.6,1142 1316.6,1142 l 68.57,-224.66 -1.83,-73.12 c 0,0 3.34,-67.51 11.23,-96.79 9.41,16.84 38.69,37.17 45.06,47.94 3,-20.64 13.19,-64.17 11.68,-110.59 5.61,8.64 19.11,95.57 19.11,95.57 l 13.5,58.55 17.6,62.2 19.57,65.69 11.68,45.36 6.67,10.92 5.62,19.11 5.31,20.64 15.32,48.39 9,39.74 7.13,72.06 a 109.86,109.86 0 0 1 3.34,16.84 c 0.3,7.89 -1.06,12.44 -1.06,13.81 0,1.37 2.58,17.29 1.52,29.28 -1.52,12 -1.52,21.39 -10.93,30 -9.41,8.61 -15.32,60.07 -15.32,60.07 l -16.84,-11.22 c 0,0 3.34,-15.33 -4.55,-29.28 -7.89,-13.95 -23.21,-16.84 -31.86,-14.56 -8.64,1.82 -25.93,4.54 -31.55,9.4 -5.31,4.85 -18.35,19.87 -30.34,26.7 -15,9 -39.44,9.71 -52.48,12.74 -13.2,3 -27.76,12 -43.09,22.45 a 240.58,240.58 0 0 1 -37.92,20 v 0 z"
       style="fill:#cca847;fill-rule:evenodd"
       id="path980" />
    <path
       d="m 1310.68,1740.75 c 0,0 1,0.65 2.93,1.71 a 891,891 0 0 0 284,-210.5 c -0.87,-30.7 -2,-62.17 -3.24,-73.83 -2.57,-24.73 -0.75,-49.91 -1.51,-64.47 -0.76,-14.56 -8.95,-73.88 -12.74,-89.2 -4.1,-15.32 -12,-22.91 -13.2,-22.91 -1.06,0.31 -7.44,28.83 -7.44,36 0,7.17 -1.52,24.43 -1.52,28.83 -1.06,-0.31 -1.51,-3 -1.51,-4.1 -1.52,3.79 -3.34,10.47 -4.1,11.23 -0.76,0.76 1.06,-6.37 0,-7.89 -1.06,-1.52 -3,-0.76 -2.58,-4.55 a 43.41,43.41 0 0 1 1.06,-6.67 c 0,0 -4.55,6.67 -7.88,23.66 -3.34,16.84 -3.34,17.3 -4.55,18.81 -1.06,1.83 -7.13,7.89 -7.44,10.17 -0.3,4.09 5.62,8.19 6.07,10.46 0.3,3.8 -5.31,21.39 -7.13,30 -1.82,8.61 -1.06,25.48 -3,34.13 -1.52,7.89 -3,12.44 -8.19,15.77 3.79,0.76 7.43,1.82 7.43,1.82 0,0 5.31,22.45 -8.19,41.57 -4.85,6.67 -6.06,9.71 -11.22,15.78 -10.17,11.22 -18.06,24 -18.82,32.31 a 54.28,54.28 0 0 1 -1.06,-7.44 c 0,0 -15.77,18.36 -22.45,28.83 -8.64,13.5 -20.63,12.74 -24,16.08 -3.37,3.34 -4.1,9.4 -3,14.26 -3,0.75 -8.64,1.82 -12.44,13.5 -1.82,6.06 -6.37,12 -13.5,16.08 -7.13,4.08 -15.78,5.31 -20.18,6.37 3.79,1.06 5.31,1.06 7.13,2.27 -2.27,3.79 -12.74,9.71 -24.42,17.3 -11.68,7.13 -17.3,17.59 -20.18,24.42 -3,6.37 -7.43,10.47 -14.56,11.23 3,1.82 7.44,6.06 9.71,7.43 -3.34,0.76 -9,0.76 -19.11,9.41 -10.62,8.8 -14.26,11.38 -19.12,12.14 v 0 z"
       style="fill:#c39d3c;fill-rule:evenodd"
       id="path982" />
    <path
       d="m 1099.6,1811.05 a 85.79,85.79 0 0 1 18.73,-9.93 c 23.66,-9.4 48.69,-11.22 58.55,-14.25 9.41,-3 16.84,-7.14 28.52,-9.41 -0.31,2.66 -0.57,5.16 -0.85,7.52 a 884.07,884.07 0 0 1 -105,26.07 z"
       style="fill:#d2ba6b;fill-rule:evenodd"
       id="path984" />
    <path
       d="m 1536,1188.72 c 0,0 -4.85,26.24 -13.5,42.78 -8.65,16.54 -18,39.44 -18,39.44 a 72.15,72.15 0 0 1 1.82,-15.33 c -10.92,6.37 -37.47,21.7 -45,28.52 -7.13,6.37 -19.12,17.6 -22.15,22.91 7.13,-20.93 14.56,-39.74 15.78,-48.39 -10.92,7.89 -61.9,49.91 -88.44,77.67 l -82.68,66.9 A 286.14,286.14 0 0 1 1254.4,1417 c -14.25,6.06 -31.09,11.22 -43.53,16.08 3.34,-8.95 8.64,-16.85 16.08,-24.43 7.89,-7.43 31.55,-33.07 35.19,-45 3.34,-12.44 4.1,-19.87 -0.3,-30.34 -4.1,1.06 -13.5,1.52 -19.87,3.34 -6.37,1.82 -13.2,8.64 -13.2,8.64 0,0 4.85,-27.76 15.32,-54 -7.89,0.3 -21.39,2.57 -21.39,2.57 0,0 18.81,-31.55 51,-53.54 a 165.88,165.88 0 0 0 -28.82,8.94 c -18.81,7.89 -39.44,19.57 -54.76,25.94 8.64,-12 69.32,-98.6 105.43,-179.31 36,-80.55 49.45,-101.18 57.34,-144.41 4.09,-21.39 3,-53 4.09,-81.31 1.06,-28.07 4.55,-53.25 2.28,-70.09 9.4,11.68 44.6,44.6 45.81,118.18 1.06,73.57 -33.67,172.94 -70.54,226.48 9,2.58 32.32,5.62 56.28,-36 23.96,-41.62 23.67,-53.24 32.32,-70.54 1.06,8.65 0.75,11.68 0.75,11.68 0,0 34.9,-42.32 51.43,-95.57 3.34,22.91 13.2,43.09 -2.28,85.11 -13.8,37.92 -31.85,47.18 -31.85,47.18 0,0 8.95,-1.52 22.14,-9.41 2.28,5.61 1.83,12 5.62,14.26 3.79,2.26 8.95,6.07 9.71,9.71 4.09,-6.07 10.46,-13.81 12.44,-19.57 -1.52,12 -2.58,64.47 3,91.17 11.69,-1.06 23.67,-1.82 31.86,-22.91 -5.61,20.64 -5.61,33.07 -1.82,50.67 6.22,-4.24 11.83,-11.83 11.83,-11.83 v 0 z"
       style="fill:#c0993a;fill-rule:evenodd"
       id="path986" />
    <path
       d="m 1141.84,352.55 c 0,0 -11.68,4.85 -31.55,4.85 -17.29,0 -12.44,-6.67 -39.44,-6.67 -41.56,0 -186.74,24 -212.23,23.66 -16.54,-0.3 55.82,7.13 55.82,7.13 l 184.93,2.58 37.16,-3 13.81,-28.1 z"
       style="fill:#a88f33;fill-rule:evenodd"
       id="path988" />
    <path
       d="m 662.32,714.05 c 0,0 -23.67,18.05 -33.68,31.86 -10.01,13.81 -15.32,22.9 -26.7,34.13 a 23.3,23.3 0 0 0 7.89,-1.06 c 0,0 0,3 -1.82,3.79 a 10.61,10.61 0 0 1 8.64,3 c -3.34,1.82 -12.44,10.93 -5.31,21.7 5.31,8.19 16.54,8.94 16.54,8.94 0,0 -2.58,7.44 8.19,6.68 23.21,-1.06 49.15,-11.23 61.13,-8.65 12,3 18.82,4.1 27.31,18.82 9,14.56 16.84,16.84 16.84,16.84 0,0 5.31,-13.51 4.1,-33.68 a 100.16,100.16 0 0 0 7.13,-34.13 l -7.89,-58.1 -34.43,-43.54 -44.6,24.73 -3.34,8.64 z"
       style="fill:#e3c571;fill-rule:evenodd"
       id="path990" />
    <path
       d="m 704.64,705.4 c 0,0 3.34,7.89 17.3,8.64 -1.52,3.34 -1.52,3.8 -1.06,6.37 0.3,2.58 0.75,6.37 0.75,6.37 a 14.11,14.11 0 0 0 4.1,-3 c 0.76,3.34 -0.76,8.64 0,12.44 a 27.63,27.63 0 0 0 2.27,6.67 13.4,13.4 0 0 1 0.76,-1.51 c 0.3,-0.76 3,8.19 10.47,15 a 6.22,6.22 0 0 1 0.75,-3 10.52,10.52 0 0 0 1.82,5.31 5.54,5.54 0 0 1 -1.51,-1.06 c 0,0 0.75,24 4.85,36.41 a 17.05,17.05 0 0 0 1.82,-2.58 c 0,-0.75 -0.3,6.68 -1.06,12 -1.06,5.31 -0.3,12.74 -0.3,12.74 a 39.81,39.81 0 0 1 8.94,-5.31 c 4.55,-1.83 12,-7.44 16.54,-19.88 a 132.83,132.83 0 0 0 6.07,-21.69 30.28,30.28 0 0 1 3,9 c 0.31,3.79 7.44,1.82 7.44,1.82 l 1.52,-16.54 9,-37.47 8.19,-23.21 39.44,-61.43 71.26,-54.88 62.2,14.26 52.48,-71.3 -90.41,-54.31 -85.56,8.95 -77.65,107.55 -62.19,97.55 -11.23,16.08 v 0 z"
       style="fill:#d8b65b;fill-rule:evenodd"
       id="path992" />
    <path
       d="m 1152.76,549.76 c 0,0 -5.31,1.06 -20.63,9 -15.32,7.94 -25.94,10.46 -31.86,22.14 -5.92,11.68 -6.37,20.94 -6.37,20.94 0,0 10.47,-4.55 16.54,-6.07 6.37,-1.51 13.5,-1.06 12.74,1.52 a 17.59,17.59 0 0 1 -3,4.85 c 0,0 12,-0.3 11.68,5.62 -0.32,5.92 -2.27,12.44 -4.54,15.32 -2.28,3 -11.68,7.44 -12.74,10.93 -2.58,7.13 1.06,7.43 -0.31,13.19 -1.06,5.62 -6.06,16.54 -22.45,35.65 -16.84,19.12 -24,32.62 -24,32.62 0,0 -8.19,-15.32 -12.44,-28.52 -3,1.51 -19.11,10.46 -19.11,10.46 l -37.32,-130 0.75,-8.65 c 0,0 3.34,-4.09 4.1,-11.68 -5.61,-1.82 -6.37,-3.34 -13.81,-10.46 -7.44,-7.12 -13.5,-15.78 -25.93,-21.7 -1.82,-3.34 -4.1,-7.88 -13.2,-9.71 -9.1,-1.83 -14.56,-3.33 -14.56,-3.33 0,0 4.85,-1.83 7.13,-5.62 -5.62,0.76 -10.16,2.58 -22.45,2.28 -12.44,-0.31 -13.81,-0.76 -20.63,0.3 -6.82,1.06 -15,4.1 -18.05,-6.37 -3.34,-2.58 -10.47,-0.3 -16.54,8.64 -6.07,8.94 -8.19,16.08 -19.87,19.57 a 40.71,40.71 0 0 1 -5.31,14.56 c -3.34,5.62 -8.65,11.23 -15.78,19.57 -11.23,13.2 -9.41,34.89 -27.31,51.43 -18.05,16.53 3,-45.82 3,-45.82 l 28.82,-69 82.07,-80.25 127.43,-8.64 12.44,66 62.2,21.39 39.29,59.92 v 0 z"
       style="fill:#d3ae4d;fill-rule:evenodd"
       id="path994" />
    <path
       d="m 1172.94,564.32 -53.55,-77.21 -37.47,-28.83 c 0,0 -26.7,-49.14 -28.52,-50.66 -1.52,-1.06 -26.7,-3.79 -42.78,-4.85 l 3,7.43 a 19.69,19.69 0 0 1 9,6.07 c 7.13,8.19 11.68,23.66 -4.55,40.2 6.37,2.27 9,3 14.56,2.27 -5.61,6.68 -18.35,20.94 -19.11,33.38 -0.76,10.16 5.61,13.19 5.61,13.19 0,0 -9.71,11.23 -10.16,30 a 121.56,121.56 0 0 1 15,-14.26 c 11.23,-9 26.7,-19.12 37.17,-25.49 a 21.42,21.42 0 0 0 1.06,7.89 c 0,0 19.56,-16.08 36,-8.95 7.43,3.34 4.09,13.81 4.09,13.81 0,0 10.17,-3.79 17.3,3.34 7.13,7.13 17.29,25.48 22.45,32.62 2.27,3.34 8.19,9.71 14.25,19.56 a 247.31,247.31 0 0 1 20.64,43.54 c 0.3,-6.07 1.52,-14.56 12,-14.56 L 1173,564.29 Z"
       style="fill:#caa13e;fill-rule:evenodd"
       id="path996" />
    <path
       d="m 370.15,783.68 c 0,0 -3.79,-9.41 0,-27.76 3.79,-18.35 9.71,-27 11.68,-54 1.97,-27 19.57,-60.68 19.57,-60.68 l 48.69,-22.14 34.44,9.4 10.16,46.12 -43.54,24 c 0,0 -2.27,10.16 -14.56,18.35 -12.29,8.19 -29.28,14.56 -33.37,22.91 a 66.79,66.79 0 0 0 -5.31,16.08 c 0,0 -12.44,-2.58 -19.87,5.61 -7.89,8.35 -7.59,15.78 -7.89,22.15 z"
       style="fill:#f4efc8;fill-rule:evenodd"
       id="path998" />
    <path
       d="m 468.45,771.39 c 0,0 -4.1,2.58 -7.13,9 -3,-4.85 -10.17,-33.68 -10.47,-59.62 -0.3,-25.94 -1.85,-32.37 4.15,-41.31 6,-8.94 29.53,-18.36 26.19,-34.46 -3.34,-15.32 -17.3,-21.69 -34.44,-17.29 -12,3 -20.93,28.52 -33.37,41.26 -9.41,9.71 -20.63,8.19 -23.66,13.5 -4.1,7.13 -0.31,14.26 -1.52,18.81 -0.31,1.52 -4.1,9.71 -10.93,19.57 -13.8,19.87 -37.16,47.94 -40.2,73.12 1.06,-14.26 0.31,-14.56 4.1,-30.34 l -2.28,-3.79 15,-49.15 9.71,-40.5 21.7,-67.82 38.22,-69.32 37.17,-41.57 38.68,2.58 4.55,58.1 22.15,109.08 46.57,57.34 -74.64,50.23 -29.58,2.58 v 0 z"
       style="fill:#ebcc73;fill-rule:evenodd"
       id="path1000" />
    <path
       d="m 491.66,792 c 0,0 -6.37,1.52 -8.65,0.31 -2.28,-1.21 -4.54,-2.58 -3.79,-4.1 0.75,-1.52 4.85,-4.09 4.85,-5.31 a 4.25,4.25 0 0 0 -3.79,-4.55 c -3.49,-0.45 -4.55,1.82 -4.55,1.82 0,0 -3.34,-2.57 -6.06,-3 a 41.93,41.93 0 0 1 4.85,-0.31 47.29,47.29 0 0 0 -13.2,-3.79 c 3.79,-2.27 11.23,-8.95 16.08,-8.95 4.85,0 7.89,-0.75 7.13,-3.33 -0.76,-2.58 -4.55,-6.37 -8.64,-7.89 1.51,-1.82 2.58,-4.55 -1.06,-12 -3.8,-7.43 -2.28,-12.44 -1.06,-14.25 1.06,-2.28 4.85,-6.37 6.67,-8.95 1.82,-2.58 3.34,-6.07 6.37,-7.89 1.52,-1.06 6.37,-3 11.23,-4.85 5.31,-1.82 9.71,-4.1 12.74,-1.82 3.34,2.27 1.82,5.31 1.82,5.31 0,0 10.47,-3.8 19.87,1.06 9.41,4.54 32.32,7.43 32.32,7.43 l 8.21,16.54 -54.31,46.57 -22.45,11.23 -4.55,0.75 v 0 z"
       style="fill:#e5c66b;fill-rule:evenodd"
       id="path1002" />
    <path
       d="m 567.05,715.87 c 0,0 -16.84,11.23 -20.63,15.32 2.27,0.31 6.06,1.83 4.54,4.1 -1.82,2.27 -12.74,10.16 -18.81,17.6 -6.37,7.43 -12.44,16.84 -14.56,21.39 -2.27,4.09 -19.57,16.08 -25.48,17.59 12.44,0 37.47,-15.32 46.87,-15.32 -0.3,4.55 2.58,9.71 7.89,10.16 5.31,0.45 20.63,3.34 41.26,-9.4 20.63,-12.44 13.81,-21.7 22.45,-27.76 16.54,-10.93 23.21,-20.64 32.31,-26.7 9.1,-6.06 13.81,-7.44 13.81,-7.44 0,0 0.3,-4.55 3,-4.09 a 4.08,4.08 0 0 1 3.34,2.58 c 0,0 15.78,-11.23 36,-14.26 a 2.1,2.1 0 0 1 -1.06,-1.06 c 0,0 1.51,-0.76 1.82,-1.52 0,0 1.06,-1.52 1.82,-0.76 0.76,0.76 1.82,6.37 3.34,8.65 3.34,-1.52 9.71,-15.78 9.71,-15.78 L 730,645.33 v -40.05 l -12,2.28 -90,38.22 -54.62,56.59 -6.37,13.5 z"
       style="fill:#e6bd62;fill-rule:evenodd"
       id="path1004" />
    <path
       d="M 826.15,519.42 A 50.87,50.87 0 0 0 840,513.8 c -1.82,4.86 -1.82,10.17 -9.71,21.7 -7.89,11.53 -8.19,13.2 -14.56,25.18 -6.37,12.44 -7.13,30.34 -13.2,38.22 a 27.74,27.74 0 0 1 8.64,-2.57 c 0,0 -6.06,5.31 -8.64,10.92 -2.58,5.61 -7.13,17.29 -18.35,24.43 -11.22,7.14 -25.49,11.68 -40.81,28.52 -15.33,16.53 -31.1,37.47 -39,45 4.1,-7.13 9.71,-21.39 11.23,-30.79 1.52,-9.4 -0.31,-20.64 2.27,-33.07 2.58,-12.43 2.58,-21.39 15,-43.09 12.42,-21.7 33.68,-97.09 33.68,-97.09 l 45.81,-14.56 13.81,32.77 v 0 z"
       style="fill:#b6933f;fill-rule:evenodd"
       id="path1006" />
    <path
       d="m 793.08,491.66 c 0,0 -13.8,19.87 -17.59,37.47 -3.79,17.6 -0.31,16.08 -2.58,24.73 a 32.25,32.25 0 0 0 0,16.08 57.09,57.09 0 0 1 19.09,-18.82 c 13.05,-7.88 23.67,-13.5 30,-20.17 6.37,-7.13 11.68,-18.81 25.48,-27.76 -5.61,-0.76 -13.5,-3.34 -15,-3 5.62,-6.37 22.45,-16.08 39.44,-27.76 16.84,-12 15.78,-16.84 43.09,-28.82 -8.95,1.52 -13.2,-0.76 -20.64,0 3,-6.37 13.5,-9.41 24,-19.87 10.5,-10.46 -6.67,-25.94 -6.67,-25.94 l -80,48.39 -38.68,45.51 z"
       style="fill:#c49937;fill-rule:evenodd"
       id="path1008" />
    <polygon
       points="681.74,270.33 655.49,382.13 580.55,463.9 576,455.55 577.82,440.99 600.73,404.28 624.7,339.81 624.7,251.67 622.88,200.7 626.67,167.32 629.55,156.71 632.59,152.61 652.15,162.77 679.16,199.48 "
       style="fill:#dfc068;fill-rule:evenodd"
       id="polygon1010" />
    <path
       d="m 635.62,148.51 c 0,0 -12,0.31 -14.56,50.22 -2.56,49.91 -3.8,76.15 -5.62,100.88 -1.82,24.73 -6.06,39.74 -8.19,54.31 -2.13,14.57 -3.34,34.43 -10.16,46.57 -3,5.61 -9.41,23.21 -24.43,36.41 -16.84,14.56 -42,24.73 -45.81,25.49 -6.68,1.51 -40.51,4.85 -54.31,12.44 -4.85,2.58 -13.2,5.61 -22.45,14.26 -18.36,16.53 -42.78,46.11 -60.38,81.76 -27,53.25 -54,203.58 -54,203.58 l 6.07,-10.16 c 0,0 0.76,-13.5 14.26,-37.17 13.2,-23.66 9.41,-50.21 27.76,-95.57 7.13,-17.29 16.08,-39.74 27,-58.86 17.3,-31.1 38.23,-57.8 59.32,-72.36 34.43,-23.66 72.36,-28.82 72.36,-28.82 l 40.81,-27 c 0,0 7.13,-13.8 16.54,-29.58 13.19,-22.14 30,-46.87 33.67,-82.82 5.62,-53.25 -7.89,-88.14 -7.13,-119.69 0.76,-31.55 1.06,-54.76 7.44,-60.38 6.38,-5.62 1.82,-3.49 1.82,-3.49 v 0 z"
       style="fill:#a88f33;fill-rule:evenodd"
       id="path1012" />
    <path
       d="m 635.62,386.68 c 0,0 18,-44.3 26.24,-83.59 1.52,-7.89 4.55,-15.77 5.31,-22.14 3.79,-37.17 4.85,-52.49 0,-72.82 -3.79,-15 -18.35,-28.52 -25.94,-39 -7.43,-10.93 -10.92,-15 -9.4,-17.3 1.52,-2.3 7.43,-6.06 13.19,-5.61 a 45.17,45.17 0 0 1 32.32,15 c 11.68,13.5 20.93,59.32 20.93,59.32 L 708,281 l 24.73,76.15 -97.09,29.59 v 0 z"
       style="fill:#c99e3d;fill-rule:evenodd"
       id="path1014" />
    <path
       d="m 804.76,340.57 c 0,0 -3.34,1.51 -9.4,0 a 13.53,13.53 0 0 1 -6.07,12.74 c -6.37,-2.58 -66,2.58 -66,2.58 0,0 -27.76,-4.86 -36.41,-41.57 -6.06,-24.43 4.55,-58.1 1.06,-80.25 -5.31,-32.62 -12.74,-39 -13.5,-49.15 -0.76,-10.15 -1.52,-12.74 -1.52,-19.11 -3.34,-0.76 -5.31,-1.82 -8.64,-1.82 -0.76,-3 0.75,-5.62 -2.58,-10.93 1.82,0.76 14.26,2.28 28.82,16.08 12,11.23 12,15.32 13.81,17.6 2.27,2.27 20.63,18 28.52,33.68 7.89,15.68 23.21,65.68 26.7,73.87 1.06,3.34 3.34,6.68 9,14.26 8.8,10.93 21.69,29 36.25,32 v 0 z"
       style="fill:#b58634;fill-rule:evenodd"
       id="path1016" />
    <path
       d="m 706.47,187.5 a 420.38,420.38 0 0 1 24.72,46.12 c 8.95,20.17 14.26,36.71 25.49,50.21 -6.07,-17.59 -16.84,-52.18 -23.21,-64.47 -7.13,-13 -21.69,-27 -27,-31.85 v 0 z"
       style="fill:#a88f33;fill-rule:evenodd"
       id="path1018" />
    <path
       d="m 603.31,436.9 c 0,0 -15.32,3.79 -43.84,18.81 -9.41,4.85 -18.35,8.94 -27,12.74 -22.47,10.16 -46.57,19.55 -65.69,24.73 1.52,1.82 2.27,2.57 2.27,2.57 0,0 0,7.44 4.1,11.68 -2.27,2.28 -32.62,22.91 -23.66,91.93 6.06,-2.27 13.19,-5.31 14.25,-5.31 1.83,0.31 2.28,5.31 4.55,5.31 2.27,0 9.71,-3 17.6,-13.2 -0.3,4.1 -4.85,45.36 19.57,73.12 4.55,-5.31 16.08,-22.91 16.08,-22.91 l 0.3,-5.61 c 0,0 1.06,-19.57 7.44,-37.47 6.38,-17.9 18.81,-31.1 18.81,-31.1 L 613,469.5 603.29,436.89 v 0 z"
       style="fill:#e6c367;fill-rule:evenodd"
       id="path1020" />
    <path
       d="m 542.63,573 a 35.86,35.86 0 0 1 -9.71,4.85 c -1.06,-3.79 -2.58,-16.84 6.37,-29.58 10.47,-15.33 33.37,-35.2 39.74,-51 4.1,-10.17 2.28,-35.65 38.69,-68.27 36.41,-32.62 50.66,-43.84 50.66,-43.84 l 58.86,-29.58 72.36,28.52 -35.95,140.9 -27.91,66 -111,-20.93 -82.12,2.93 v 0 z"
       style="fill:#dcba5a;fill-rule:evenodd"
       id="path1022" />
    <path
       d="m 585,534.74 13.81,-17.29 v -12.29 c 0,0 15.32,-4.1 31.85,-20.94 16.53,-16.84 39.44,-49.15 59.62,-47.18 20.18,2.28 22.15,43.84 22.91,55.53 0.76,11.69 3.34,38.22 7.43,52.49 4.55,14.26 -49.15,68.26 -49.15,68.26 L 635,641.08 Z"
       style="fill:#e9ce77;fill-rule:evenodd"
       id="path1024" />
    <path
       d="m 627.73,678.7 c 0,0 11.23,-17.6 3,-21.39 4.85,-10.92 13.8,-22.45 13.8,-22.45 0,0 6.37,-15.77 27,-35.19 20.63,-19.42 33.38,-32.32 36.72,-45.36 a 119.5,119.5 0 0 0 3.34,-25.94 49.24,49.24 0 0 0 7.13,4.85 c 3.34,1.52 19.11,14.56 16.84,40.81 -2.27,26.25 -12,37.17 -12,37.17 0,0 -9.4,9.4 -16.07,14.26 -7.14,4.85 -9.71,10.46 -21.7,10.92 a 14.35,14.35 0 0 1 4.1,-2.28 c 0,0 -12.44,-1.51 -19.12,4.55 -6.68,6.06 -20.88,24.73 -28.01,30.35 -7.13,4.55 -15,9.71 -15,9.71 v 0 z"
       style="fill:#cdae50;fill-rule:evenodd"
       id="path1026" />
    <path
       d="m 1132.13,383.64 a 182.69,182.69 0 0 0 -55.82,-10.92 c -31.86,-1.06 -78.43,0.76 -124.09,1.06 -49.15,0.3 -93.75,-16.84 -155.64,-19.87 -10.16,-6.07 -36,-32.62 -116.66,23.66 4.85,-0.3 58.56,-12.44 77.21,10.93 18.81,23.21 13.5,62.65 10.93,72.05 -4.86,20.94 -20.64,51.43 -27,72.82 -6.36,21.39 -4.86,32.63 -9.41,47.63 -4.55,15 -14.56,22.45 -8.65,39.74 7.89,-4.85 12,-4.85 25.18,-34.43 13.18,-29.58 10.47,-50.67 32.32,-75.7 21.39,-25.18 57,-59.62 70.54,-68.27 13.54,-8.65 121.05,-64.47 233.62,-11.22 27.15,-2.88 47.48,-47.49 47.48,-47.49 v 0 z"
       style="fill:#d2a83e;fill-rule:evenodd"
       id="path1028" />
    <path
       d="m 725.27,363 a 13.9,13.9 0 0 0 -0.75,-3.34 24.35,24.35 0 0 0 -4.1,-6.07 c 0,0 -26.7,-4.85 -40.2,-3.34 -23.67,2.58 -45.06,31.86 -55.07,46.88 -10.01,15.02 -22.45,38.22 -35.95,50.21 A 5,5 0 0 0 588.44,444 c 0,0 0.76,1.06 -0.75,2.58 -1.51,1.52 -1.52,2.27 -0.76,3 l 2.28,2.27 c 0.75,0 21.69,-9.41 50.21,-36 30.34,-27.76 53.55,-42 65.69,-46.88 A 92.4,92.4 0 0 1 725.28,363 v 0 z"
       style="fill:#c29637;fill-rule:evenodd"
       id="path1030" />
    <path
       d="m 1243.18,248.94 c 0,0 -4.86,6.06 -10.93,12.74 -13.5,14.26 -31.1,30.33 -46.12,46.87 -14.25,15.78 -30.33,28.07 -48.39,48.7 -18.06,20.63 -39,43.53 -44.3,50.21 -4.85,6.68 -8.64,17.6 -8.64,23.21 -2.58,-1.82 -5.61,-3.79 -5.61,-3.79 a 38.11,38.11 0 0 0 4.55,6.68 c 3.79,5.31 9.7,12 12.74,16.08 a 49,49 0 0 1 7.88,17.29 c 1.82,0.3 13.5,2.58 28.07,-21.39 14.57,-23.97 33.67,-50.21 33.67,-50.21 l 30.34,-45.06 19.12,-38.22 24,-42.78 3.65,-20.33 v 0 z"
       style="fill:#ac8132;fill-rule:evenodd"
       id="path1032" />
    <path
       d="m 1274.28,218.3 c 0,0 -18.36,15 -25.49,24 -7.13,9 -24,32.62 -24,32.62 l 6.07,-0.76 30.8,-27.3 12,-21.39 0.61,-7.13 z"
       style="fill:#a88f33;fill-rule:evenodd"
       id="path1034" />
    <path
       d="m 1268.66,1423.85 c 0,0 -0.3,-12.44 6.68,-19.87 7.13,-7.44 25.18,-18.36 42.78,-59.32 17.6,-40.96 19.56,-50.21 19.56,-50.21 0,0 -31.55,27 -51,33.37 4.55,-9.41 7.13,-16.08 9.41,-20.94 -2.58,-2.27 -13.5,-4.85 -14.56,-6.06 6.06,-6.07 9.4,-20.94 21.69,-30.8 15.78,-12 44.6,-32.62 67,-51 22.4,-18.38 66.44,-61.13 72.06,-73.57 3.34,4.85 4.09,7.88 4.09,7.88 0,0 -22.14,28.83 -33.67,47.18 -10.17,15.78 -9.41,24.73 -9.41,24.73 l 20.94,-9 c 0,0 6.06,22.45 -21.39,56.59 12,-4.55 16.84,-1.82 23.66,-5.62 -11.23,7.14 -26.7,16.85 -41.26,43.54 -14.26,26.7 -33.68,57.8 -66.44,77.21 -31.86,20.48 -50.22,35.8 -50.22,35.8 v 0 z"
       style="fill:#a67a2e;fill-rule:evenodd"
       id="path1036" />
    <path
       d="m 1186.44,399.43 c 0,0 -12.44,25.93 -14.26,46.11 -0.3,4.86 -1.52,8.65 -1.52,14.26 -0.3,18.05 1.06,38.23 -3,47.63 -1.52,-3.79 -2.28,-6.37 -3.8,-7.88 -2.27,6.37 -6.37,26.24 -9.71,33.67 -1.51,-4.85 -4.85,-21.69 -4.54,-41.56 0.31,-19.87 0.75,-23.67 0.75,-27.76 -0.75,6.06 -4.85,14.26 -6.37,19.11 -2.27,-4.09 -4.85,-9.4 -7.89,-13.8 -1.82,3 -4.09,7.43 -6.06,9.71 -0.31,-1.82 -1.06,-6.68 -1.52,-13.5 -0.3,-7.89 -0.76,-18.05 -0.3,-20.18 0.75,-4.09 7.13,-20.17 20.63,-34.89 16.08,-17.6 32.62,-51.42 37.47,-61.89 4.85,-10.47 25.48,-54 25.48,-54 h 15.78 l -22.91,52.18 c 0,0 -13.8,28.52 -20.93,39 -7.13,10.48 -22.15,40.51 -28.83,52.19 4.85,-6.37 8.95,-9.71 13.81,-15.78 4.7,-4.25 17.74,-22.6 17.74,-22.6 v 0 z"
       style="fill:#8c6228;fill-rule:evenodd"
       id="path1038" />
    <path
       d="m 1274.58,216.32 a 65.31,65.31 0 0 1 -12,21.7 c -9.41,11.23 -29.59,26.24 -39.44,38.22 -9,11.68 -27,43.54 -18.82,81.31 3,-8.19 8.65,-24.42 23.67,-42.78 15.02,-18.36 31.1,-39.44 39,-55.82 7.88,-16.54 8.94,-29.58 8.94,-29.58 l 3,-3.79 -1.82,-8.65 -2.58,-0.61 z"
       style="fill:#cba94c;fill-rule:evenodd"
       id="path1040" />
    <path
       d="m 1581.77,1222.54 c 0,0 -6.07,-16.53 -7.89,-31.55 -1.82,-15.02 3,-18 -2.58,-35.19 -3.34,-10.47 -9.4,-9 -10.92,-10.47 -1.52,-1.47 -2.58,-17.29 -2.28,-25.94 0.3,-8.65 -0.3,-19.87 -1.82,-24.73 -2.27,-1.82 -3.79,-3.34 -7.13,-14.56 -3.79,-11.23 -5.61,-16.84 -7.43,-20.17 -1.82,-3.33 -7.14,-6.37 -7.14,-9.71 0,-6.68 6.07,-10.16 6.07,-12 -0.3,-3.79 -4.85,-0.75 -6.07,-1.82 -1.51,-1.82 3.8,-12.74 1.83,-14.26 -0.76,-0.75 -6.07,5.62 -7.44,3.8 -1.52,-1.83 -3.34,-19.88 -6.07,-31.86 -2.57,-11.68 -5.31,-20.17 -5.61,-23.66 -0.3,-3.34 -20.94,-62.2 -25.94,-76.46 a 361.49,361.49 0 0 1 -10.16,-36.71 c -1.52,-7.13 -2.58,-21.7 -3.34,-20.18 -0.76,1.52 -0.3,8.95 -1.52,8.65 -1.06,-0.31 -4.85,-26.24 -6.06,-30.34 -1.06,-4.1 -7.44,-18 -9,-28.06 -1.52,-10.17 -4.85,-36.72 -7.13,-54.77 -2.28,-18.05 -3.34,-25.48 -3.34,-30 a 186.94,186.94 0 0 0 -1.82,-33.07 c -3,-19.12 -9,-42.33 -14.26,-55.82 -10.16,-25.49 -37.17,-90.72 -42,-106.95 0,-4.1 5.31,-1.82 5.31,-1.82 0,0 13.19,33.07 22.9,58.55 9.41,25.49 18.36,47.94 20.64,50.22 1.82,2.27 16.08,27.3 22.45,68.26 6.37,40.96 8.64,78.73 12.44,103.91 1.82,12 3.34,24.73 7.13,37.47 4.09,13.81 10.46,28.07 18.81,49.91 7.13,18.36 12.44,33.68 15.32,46.88 3.34,16.84 3.34,29.58 5.31,37.93 1.83,7.13 4.55,21.38 10.93,42 6.38,20.62 15.77,47.18 22.14,63.71 12.45,33.07 18,60.68 19.88,75.4 1.66,15.17 7.28,67.66 5.76,83.43 v 0 z"
       style="fill:#a88f33;fill-rule:evenodd"
       id="path1042" />
    <path
       d="m 1275.34,214.5 -0.76,1.82 c 0,0 2.27,0.76 1.82,3.8 a 90.7,90.7 0 0 1 -0.76,12.44 c -0.75,5.31 -2.27,9.4 -2.57,12.74 0,7.13 1.06,15.32 -9,35.65 -3,5.61 -4.85,10.46 -6.37,13.8 -3.79,8.19 -4.55,9.41 -7.89,13.2 5.31,-3 24.43,-15 34.13,-13.2 -6.67,3.79 -16.84,11.23 -23.21,20.94 1.52,0.3 7.89,1.52 18,0 16.84,-2.58 35.65,-8.65 52.18,-7.44 18.06,1.06 10.93,-21.69 10.93,-21.69 L 1321,240.75 1281.56,213 l -6.22,1.51 z"
       style="fill:#be9c44;fill-rule:evenodd"
       id="path1044" />
    <path
       d="m 1378.19,557.65 c 0,0 -17.6,-17.6 -24.73,-78 -7.13,-60.68 -5.61,-150 -5.61,-150 l -14.26,-34.89 c 0,0 -3,-23.21 -10.47,-31.85 -7.47,-8.64 -22.14,-23.21 -28.82,-30.34 -6.68,-7.13 -14.26,-16.84 -18.81,-18.36 2.27,-3.79 12.44,-25.18 51.42,-25.48 38.98,-0.3 51,21.39 55.07,29.28 4.07,7.89 22.45,42 29.27,107 6.37,64.92 6.68,69.78 5.62,92.23 -0.76,12.44 -4.86,41.26 -12,72.05 -6.52,26.1 -13.65,55.23 -26.7,68.42 z"
       style="fill:#a17c34;fill-rule:evenodd"
       id="path1046" />
    <path
       d="m 1323,609.38 a 29.79,29.79 0 0 0 16.84,-3.8 c 5.61,-0.3 25.94,2.28 41.56,-17.59 1.06,4.54 3.8,16.84 -3.34,27.76 3.8,-3.8 9.41,-5.31 10.17,-6.37 0.3,5.61 5.61,22.9 -16.84,64.92 6.06,-6.67 13.19,-6.37 19.56,-7.13 0.31,7.89 4.55,34.43 -6.67,48.7 -7.43,9.71 -19.57,6.67 -19.57,6.67 a 38.15,38.15 0 0 0 0,-6.37 c -0.3,-4.1 -1.82,-8.19 -0.75,-10.92 a 54.42,54.42 0 0 1 -15.78,-10.93 c -13.2,-12.44 -30.34,-33.67 -31.55,-49.45 -1.52,-17.6 14.26,-21.39 14.26,-21.39 a 16.87,16.87 0 0 1 -3.34,-4.1 c -0.76,-2.57 -1.52,-6.67 -4.55,-10 z"
       style="fill:#8c6228;fill-rule:evenodd"
       id="path1048" />
    <path
       d="m 1206,418.54 c 0,0 -0.76,-1.06 -4.85,3.79 0.76,-4.85 1.52,-9.41 1.82,-13.81 a 47.6,47.6 0 0 1 7.44,-11.22 c -2.28,4.54 -3.8,8.64 -3.8,8.64 0,0 5.62,-10.47 13.81,-16.84 5.61,-4.55 12.74,-6.67 15.77,-10.92 3.34,-4.55 2.58,-5.31 3.34,-6.07 0,0 7.44,-4.85 18.82,-19.12 1.51,-1.82 3.79,-3.79 5.31,-5.61 2.57,-1.06 8.64,-3.79 15.77,-7.44 7.44,-4.09 15.78,-9.7 20.94,-12 10.16,-4.55 20.94,-4.09 25.94,-11.23 3.79,-1.06 7.88,-12.44 7.13,-22.14 5.61,2.27 34.43,20.17 44.3,59.31 7.13,27.76 -5.62,70.54 -10.93,91.18 -5.31,20.64 -6.06,35.95 -13.5,45.35 -9.41,12.45 -39.74,30 -47.18,38.69 -6.37,7.13 -25.48,25.18 -24.73,38.22 0.76,9.71 12.74,15 15.33,16.84 2.59,1.84 2.57,4.1 7.43,3 4.86,-1.1 6.67,-3.34 8.65,-3.34 2.27,0.3 2.27,0.76 3.33,0.76 a 10.94,10.94 0 0 0 2.28,-0.31 c 0,0 -0.76,13.81 -33.07,18 -2.28,0.31 -4.55,1.06 -7.44,1.52 3.8,-1.82 6.07,-1.82 10.17,-7.43 -4.55,-0.76 -17.6,-1.52 -20.94,-2.58 1.06,-1.82 4.55,-6.68 7.43,-8.95 2.58,-2.27 -0.3,-3 -2.57,-1.82 a 121.45,121.45 0 0 0 -11.23,8.64 c -3.79,3.34 -7.13,7.89 -13.2,12 -1.82,-6.07 -1.52,-17.6 5.62,-25.94 -1.83,0.3 -5.32,5.61 -8.65,4.55 a 48.31,48.31 0 0 1 1.06,-16.54 c 1.82,-6.83 11.68,-18.81 11.68,-18.81 l 47.63,-85.11 10.16,-64.47 -109.07,21.19 v 0 z"
       style="fill:#92723a;fill-rule:evenodd"
       id="path1050" />
    <path
       d="m 1203.43,422.18 c 0,0 -2.58,1.82 2.58,5.31 -0.76,1.06 -2.58,4.85 -4.86,7.43 -2.57,3 -5.31,4.86 -6.37,7.44 -2.27,5.31 -4.09,8.95 -4.09,11.23 0,2.28 -0.76,16.84 -7.13,26.24 -2.28,3.34 -4.86,8.95 -6.68,12.74 -3.79,6.67 -7.13,12 -7.89,15 -1.51,5.31 -2.57,19.87 -2.57,19.87 0,0 3.34,-4.1 4.55,-5.61 -1.83,3.79 -3.8,7.88 -6.68,10.92 1.82,-1.52 7.13,-5.31 16.08,-13.2 12.44,-10.46 31.86,-28.06 55.53,-42 -7.14,2.58 -13.2,2.58 -18.05,3.34 3.79,-3.79 37.92,-43.84 55.82,-47.63 a 7.14,7.14 0 0 0 1.52,-4.86 l -15.33,-1.51 -31.1,6.67 -4.54,-24 -20.79,12.59 z"
       style="fill:#b18e3e;fill-rule:evenodd"
       id="path1052" />
    <path
       d="m 1252.89,558.71 c 0,0 -4.1,4.09 -7.89,14.26 a 47.8,47.8 0 0 1 -7.44,-10.17 c -5.61,-9.4 -14.25,-21.39 -34.43,-14.56 -0.3,-6.37 -0.76,-9.71 0,-14.26 3.34,-0.75 13.5,-8.94 23.66,-20.93 7.14,-8.19 13.81,-17.6 18.36,-29.58 3,-2.28 8.19,-6.07 15,-10.47 9.71,-6.67 21.39,-15.78 23.21,-25.94 -4.55,1.82 -14.26,6.37 -28.83,5.62 5.62,-2.58 14.26,-5.31 13.2,-16.54 2.28,-1.52 4.1,-2.58 4.1,-2.58 a 15,15 0 0 0 -5.31,-0.76 c -0.31,-1.06 -0.76,-2.57 -3.34,-1.82 -2.58,0.75 -3,0.76 -3.34,1.82 -1.06,0.31 -4.55,0 -7.13,1.83 -2.58,1.83 -9.71,7.88 -12.44,8.94 1.06,-1.82 2.57,-4.54 2.57,-4.54 0,0 -7.43,0.75 -12.74,3 -9.71,3.34 -20.93,9.41 -32.31,15.32 1.06,-1.82 1.52,-3 2.27,-3.34 0.75,-0.34 2.58,-0.75 2.58,-1.06 0,-0.31 -0.75,-3 -0.3,-4.09 a 139.18,139.18 0 0 1 12,-20.63 c 5.31,-7.14 6.37,-17.3 6.37,-17.3 l 23.21,-11.68 65.23,-15 42.33,2.58 -5.31,29.28 -25,51.12 -21.39,46.57 -24.43,28.53 -22.45,16.38 v 0 z"
       style="fill:#543e26;fill-rule:evenodd"
       id="path1054" />
    <path
       d="m 1358.62,432 c 0,0 -25.49,31.55 -32.62,36.41 4.55,-9.71 32.62,-67.51 42.78,-83.59 -2.27,-1.82 -5.31,-1.82 1.82,-30 -6.06,14.25 -8.19,21.69 -13.19,25.48 -5,3.79 -5.62,2.58 -9,2.58 a 6.34,6.34 0 0 0 0.75,-3.79 c 0,0 -21.39,-2.58 -36,-2.58 -14.61,0 -43.53,7.89 -59.62,14.26 -12.74,5.31 -19.87,5.31 -24.42,8.64 -4.55,3.79 -7.13,7.89 -9.41,8.95 -1.82,1.06 -10.46,3.79 -12.44,6.67 -1.82,3 -4.85,6.37 -4.85,7.13 0,0.76 -0.76,1.83 1.52,1.06 0.75,-0.3 6.37,-3.34 12.74,-7.13 8.64,-4.85 19.11,-10.46 26.7,-13.8 21.69,-8.65 28.52,-7.13 38.22,-8.95 10.16,-1.82 24.73,-6.07 34.43,-6.07 9.71,-0.3 28.07,0 32.32,0.76 -1.82,1.52 -3.34,3.34 -2.58,9.71 0,1.82 -1.52,3.79 -3,8.19 -4.54,12.44 -13.19,33.07 -18,43.54 -6.67,14.25 -14.25,26.24 -18,33.67 -3.75,7.43 -12,27 -20.17,37.47 -8.17,10.47 -12.44,16.84 -15,19.12 -2.56,2.28 -20.94,15.77 -19.57,20.63 3.34,-1.06 24.43,-9 39.74,-26.24 15.31,-17.24 18.36,-27.76 30.34,-37.17 11.98,-9.41 21.39,-25.18 27,-38.22 4.7,-12.14 3.64,-15.93 9.55,-26.7 v 0 z"
       style="fill:#806031;fill-rule:evenodd"
       id="path1056" />
    <path
       d="m 809.32,667.48 c 0,0 -3.34,13.8 -10.93,20.63 -7.43,6.68 -20.63,12.44 -22.14,23.67 -1.82,11.22 13.2,16.84 13.2,16.84 0,0 -8.2,13.5 -8.2,23.66 0,10.47 -0.3,12.44 0.76,22.45 a 10,10 0 0 0 -3,3 c 0,0 0.75,9.71 8.19,15.77 7.44,6.06 13.8,9.71 17.59,8.19 a 35.78,35.78 0 0 1 1.52,3.8 c 0,0 5.62,-14.26 9.41,-26.7 3.79,-12.74 7.13,-10.93 8.64,-28.07 1.51,-17.14 18,-46.57 18,-46.57 l 11.25,-25.15 -18.35,-14.26 -25.94,2.73 z"
       style="fill:#b6903c;fill-rule:evenodd"
       id="path1058" />
    <path
       d="M 843.45,692.2 A 110.44,110.44 0 0 0 833,704.64 c -4.85,6.68 -8.64,12.74 -15.77,15.33 -7.13,2.59 -11.68,2.57 -11.23,9.71 0.45,7.14 7.13,10.16 10.92,13.8 4.1,3.79 7.44,10.16 5.62,17.3 2.27,-1.06 6.37,-2.28 10.16,-10.47 3.79,-8.19 30.3,-58.1 30.3,-58.1 h -19.55 z"
       style="fill:#685026;fill-rule:evenodd"
       id="path1060" />
    <path
       d="m 948,577.06 c 0,0 2.27,-6.06 0,-10.46 -2.28,-4.55 -16.08,-6.07 -22.91,-11.23 -7.13,-5.31 -15.78,-9 -22.91,-6.67 1.06,-2.58 5.31,-8.2 1.82,-9.41 -3.34,-1.06 -15.77,4.55 -19.11,7.13 -3.34,2.58 -10.93,5.61 -12.44,7.44 -1.51,1.83 -4.1,5.31 -5.62,3.79 -1.52,-1.06 -2.27,-3.79 -4.85,-2.28 -2.58,1.51 -15,11.68 -17.29,17.6 -2.29,5.92 -7.44,19.12 -22.91,34.13 -15.47,15.01 -22.15,24.73 -17.6,30.34 4.55,5.61 6.68,1.52 7.44,6.37 a 40.91,40.91 0 0 1 -0.76,14.26 c -1.82,7.89 -4.85,15.32 -0.76,16.84 10.47,3.34 20.64,-3 22.91,-1.06 4.55,4.09 -2.58,18.81 8.19,21.69 10.93,3 21.7,-2.58 21.7,-2.58 l 39.74,-21.39 38.23,-20.17 19.56,-38.69 -10.49,-32.31 -2,-3.34 z"
       style="fill:#d4b968;fill-rule:evenodd"
       id="path1062" />
    <path
       d="m 910.5,669.45 c 0,0 -6.68,-10.16 1.52,-19.12 8.2,-8.96 19.87,-12.74 24.42,-18.35 a 7,7 0 0 0 -3.34,-2.27 30.21,30.21 0 0 1 13.2,-12.45 c -2.27,-2.27 -5.31,-4.09 -8.64,-4.09 -7.44,0 -12,4.55 -18.82,4.55 -6.67,0 -7.43,-3.34 -7.43,-3.34 0,0 11.23,-1.06 10.16,-6.07 -1.06,-5.31 -3,-5.31 -3,-5.31 0,0 21.69,-9 25.48,-13.8 3.79,-4.8 3.34,-10.47 4.1,-12.74 2.57,0 17.59,-7.89 23.66,-4.55 6.07,3.34 1.82,12.44 1.82,12.44 0,0 18.37,-13.81 27.73,-27.35 8.19,0.76 12,-5.61 18,-5.61 7.44,0 19.12,10.16 21.39,31.85 1.52,12.44 3.79,19.57 1.52,41.57 -1.06,12.44 -0.76,39 3,52.18 2.57,10.47 8.64,9.41 8.64,9.41 a 17,17 0 0 1 -5.31,8.19 c -4.1,3.79 -4.55,13.81 -4.1,17.6 a 75,75 0 0 0 2.28,8.19 c 0,0 -4.85,5.61 -6.07,9.41 -1.06,3.79 -6.06,6.37 -9.71,6.37 -3.65,0 -1.82,-0.31 -6.67,0 -4.85,0.31 -6.37,1.06 -9.41,0 -3.04,-1.06 -5.31,-2.28 -4.09,-12 1.06,-9.71 -37.47,-32.31 -37.47,-32.31 l -63,-22.45 v 0 z"
       style="fill:#cca849;fill-rule:evenodd"
       id="path1064" />
    <path
       d="m 838.14,765.32 c 0,0 13.8,18.36 70.54,18.36 27,0 36.41,-2.58 42,-4.1 6.07,-1.52 28.82,-10.46 51.73,-37.47 20.63,-24.42 16.08,-34.43 16.08,-34.43 l -12,-1.82 -39,5.31 -115.4,49.15 -14,5 z"
       style="fill:#585136;fill-rule:evenodd"
       id="path1066" />
    <path
       d="m 880.46,769.87 c 0,0 -49.15,10.93 -49.15,-20.17 0,-30.34 30.34,-62.2 37.93,-67.81 7.89,-5.62 26.7,-12 26.7,-12 h 45.36 l 8.64,22.91 -3.79,49.45 -65.69,27.61 z"
       style="fill:#252211;fill-rule:evenodd"
       id="path1068" />
    <path
       d="m 925.82,679.16 c 0,0 -9.4,-8.65 -30.79,3 -21.39,11.65 -38.69,36 -39.75,58.11 -1.06,19.56 16.08,34.13 42.78,34.89 19.87,0.75 31.86,-1.52 37.93,-3 -1.52,-1.82 -9.41,-11.68 -9.41,-11.68 l -0.75,-81.31 v 0 z"
       style="fill:#c3b378;fill-rule:evenodd"
       id="path1070" />
    <path
       d="m 916.57,684 c 0,0 -2.27,-1.82 -9,1.82 -5.61,3 -13.8,10.93 -20.17,16.54 -4.1,3.34 -6.68,4.85 -9,7.43 -9.41,11.23 -17.3,29.59 -12.74,38.69 4.56,9.1 19.57,19.57 57.8,12.44 l -7,-76.91 v 0 z"
       style="fill:#e6d89c;fill-rule:evenodd"
       id="path1072" />
    <path
       d="m 904.13,702.82 c 0,0 -6.07,9.41 -6.07,24.43 0,15.32 8.65,39.74 40.51,41.56 24.42,1.52 40.8,-35.19 58.55,-49.45 13.5,-10.92 21.69,-11.23 21.69,-11.23 0,0 -13.8,-15 -50.66,-34.43 -36.41,-19.57 -77.22,-22.15 -99.37,7.89 10.47,-0.76 44.3,-9.41 44.3,-9.41 l 16.54,5.31 -25.49,25.34 v 0 z"
       style="fill:#252211;fill-rule:evenodd"
       id="path1074" />
    <path
       d="m 951.76,722.69 c -1.06,-2.27 -1.82,-5.31 2.58,-6.06 4.4,-0.75 6.37,-0.31 7.89,3 1.52,3.31 3,6.07 0.75,7.44 -2.27,1.21 -8.19,0 -11.23,-4.4 z m -7.13,-21.39 c 0,0 -1.52,1.06 -0.76,-1.06 0.3,-2.57 2.28,-7.13 7.13,-6.06 4.85,1.07 3.8,6.37 3,7.89 -0.8,1.52 -4.85,4.09 -7.89,3 a 2.53,2.53 0 0 1 -1.52,-3.79 z"
       style="fill:#6f674d;fill-rule:evenodd"
       id="path1076" />
    <path
       d="m 534,711 c 0,0 12,9 25.94,8.65 13.8,-0.31 31.55,-14.56 39.74,-23.67 4.85,-5.31 9,-10.92 13.5,-15.32 3.8,-3.79 6.37,-5.61 8.19,-8.19 2.58,-3 5.31,-8.64 6.68,-10.47 -3.34,2.58 -8.19,7.14 -13.2,10.17 -4.85,3 -15.32,8.64 -19.57,10.16 -4.09,1.52 -46.57,24 -46.57,24 z"
       style="fill:#ac924c;fill-rule:evenodd"
       id="path1078" />
    <path
       d="m 552.34,598.91 c 0,0 6.67,-4.55 19.57,-7.44 12.44,-3 37.47,-5.31 37.47,-5.31 l 20.63,9 8.19,31.1 -15,32.32 -19.11,12 -21.7,-34.89 -30,-36.72 v 0 z"
       style="fill:#9f8e57;fill-rule:evenodd"
       id="path1080" />
    <path
       d="M 525.34,626.67 518.2,632 c 0,0 1.83,-3.34 3.34,-13.5 1.51,-10.16 9.41,-34.89 20.94,-49.15 11.53,-14.26 11.23,-13.5 11.23,-13.5 a 7.59,7.59 0 0 0 -6.07,1.51 C 549.16,554 558.87,542 568.58,536 c 9.71,-6 13.5,-7.89 23.66,-3 10.16,4.89 12.74,7.43 20.18,7.13 7.44,-0.3 13.8,-8.19 13.8,-8.19 0,0 1.52,4.85 -4.09,16.08 -5.61,11.23 -27.76,34.13 -27.76,34.13 l -46.12,31.55 -22.91,13 v 0 z"
       style="fill:#eac970;fill-rule:evenodd"
       id="path1082" />
    <path
       d="m 559.46,595.12 c 0,0 33.38,4.55 43.54,-4.85 0.3,1.06 1.52,1.06 1.52,1.82 a 2.65,2.65 0 0 1 -0.76,1.51 24.44,24.44 0 0 1 3.34,-0.3 19.7,19.7 0 0 0 4.1,0.76 23.67,23.67 0 0 0 3.34,-0.31 5.67,5.67 0 0 1 -2.28,3.8 c 1.52,0 3,0.3 3,1.51 0,1.21 0.3,4.86 -1.52,5.62 a 6.88,6.88 0 0 1 -4.55,-0.31 18.72,18.72 0 0 0 2.28,8.2 c 3,5.61 9.4,12 18,10.16 0,0 4.54,10.92 -14.57,35.19 -2.57,3.34 -5.31,7.89 -8.64,11.68 a 44.32,44.32 0 0 0 -3,8.95 c 0,0 32.32,-12.44 41.57,-40.81 9.41,-28.52 11.23,-56.58 9.41,-82.82 -0.31,-7.44 -1.52,-12.74 -3.34,-16.54 -4.55,-9.41 -17.3,-7.89 -22.45,-2.58 -7.44,7.44 -19.88,25.94 -37.17,38.68 -17.6,12.74 -18.35,15 -31.86,20.64 v 0 z"
       style="fill:#d7bc6b;fill-rule:evenodd"
       id="path1084" />
    <path
       d="m 519.42,636.08 c 0,0 -6.37,3.79 -9.71,18 -3.34,14.56 3,32.31 6.67,37.92 3.67,5.61 12,20.94 29.28,21.7 a 32.1,32.1 0 0 0 12.44,-2.58 78.7,78.7 0 0 0 16.84,-10.47 c 7.44,-5.61 13.5,-10.46 12.74,-10.92 -1.82,-0.76 -45.81,-37.17 -45.81,-37.17 l -16.54,-18.46 -5.92,2 z"
       style="fill:#585136;fill-rule:evenodd"
       id="path1086" />
    <path
       d="m 561,696.45 c 0,0 8.95,-0.75 14.26,-4.09 5.31,-3.34 -31.1,-39.44 -31.1,-39.44 l 2.58,39 z"
       style="fill:#453a25;fill-rule:evenodd"
       id="path1088" />
    <path
       d="m 522.3,633.34 c 0,0 -4.55,8.65 -4.55,10.93 -0.76,7.43 1.52,30.79 3.34,38.22 1.82,7.89 11.68,19.87 24.43,19.87 7.88,0 18.81,-4.85 18.81,-6.06 0,-1.52 -11.23,-3 -14.26,-8.65 -1.82,-3 -2.58,-10.46 -3,-18 -0.3,-4.85 -0.3,-10.16 1.52,-12 4.1,-4.55 4.85,-17.6 4.85,-17.6 L 568,613 h -19.15 l -22.91,14.26 z"
       style="fill:#84754b;fill-rule:evenodd"
       id="path1090" />
    <path
       d="m 516.69,641.69 c 0,0 15,-19.87 28.52,-24.43 13.52,-4.56 19.57,-1.82 19.57,-1.82 l -7.89,20.18 -11.23,12.44 0.76,6.37 c 0,0 -1.83,16.84 9.4,28.52 11.23,11.68 19.57,11.23 24.43,11.23 4.86,0 18.81,-4.1 25.94,-20.94 6.37,-15.77 11.68,-36 -1.06,-56.28 C 592.68,596.78 570.69,596 566.44,596 c -4.25,0 -37.62,1.67 -49.75,45.66 v 0 z"
       style="fill:#252211;fill-rule:evenodd"
       id="path1092" />
    <path
       d="m 901.85,709.19 c -5.61,-2.58 -0.3,-18.35 5.31,-23.21 5.61,-4.86 12.74,-10.46 25.19,-11.23 4.54,-0.3 8.94,2.58 8.19,5.62 -1.06,5.61 -8.95,13.5 -16.08,19.11 -9.86,7.74 -16.24,12.59 -22.61,9.71 z"
       style="fill:#f7f7e7;fill-rule:evenodd"
       id="path1094" />
    <path
       d="m 598.45,623.18 c 4.1,-0.3 9.41,3 10.47,7.44 1.06,4.85 -2.58,14.56 -10.47,14.56 -6.37,0 -9.71,-7.89 -9.71,-10.16 a 11.6,11.6 0 0 1 1.52,-5.31 c 0.3,-0.46 1.06,-5.77 8.19,-6.53 z"
       style="fill:#f8f6de;fill-rule:evenodd"
       id="path1096" />
    <path
       d="m 539.29,626.67 c 0,0 -10.47,4.85 -15.32,15 a 39.8,39.8 0 0 0 -3,24 c 0.76,3.79 4.55,13.19 7.13,16.53 2.58,3.34 6.07,5.62 8.65,5.31 2.58,-0.31 7.88,-7.13 7.88,-11.22 0,-4.09 0.31,-21.39 5.31,-30.8 4.4,-9.4 -10.62,-18.81 -10.62,-18.81 v 0 z"
       style="fill:#d4c38b;fill-rule:evenodd"
       id="path1098" />
    <path
       d="m 540.81,625.91 c -1.82,1.06 -4.85,2.58 -4.1,4.55 0.76,1.82 7.13,3 9.41,7.44 2.58,4.55 2.58,9.4 1.82,11.68 a 18.48,18.48 0 0 0 5.31,-3.8 c 3.34,-3.79 7.43,-8.94 10.92,-8.94 2.28,0 4.55,1.06 6.68,1.06 3.34,0 6.67,-1.06 7.13,-4.55 0.75,-4.55 -6.37,-8.65 -10.47,-7.89 0.76,-3 1.82,-7.43 -1.52,-10.47 -3.34,-3.04 -13.8,2.28 -16.08,3.8 -2.28,1.52 -9.1,7.13 -9.1,7.13 v 0 z"
       style="fill:#e2d59d;fill-rule:evenodd"
       id="path1100" />
    <path
       d="m 781.86,944.63 22.45,-6.63 6.37,4.55 c 0,0 4.54,9.71 11.68,10.92 -2.28,4.85 -8.2,9 -7.89,12.44 0.31,3.44 3.34,6.07 3.34,6.07 0,0 -20.18,33.37 19.57,67 -9.41,3.79 -21.39,9 -27.76,12 4.54,1.06 14.25,3 18.35,6.68 4.1,3.68 4.1,4.85 7.89,7.13 3.79,2.28 6.06,5.31 5.31,6.67 -2.58,-1.52 -11.23,-6.06 -12.74,-1.82 -1.51,4.24 -37.47,2.58 -37.47,2.58 l -60.68,11.68 c 0,0 2.27,-6.07 -4.1,-11.68 -7.43,-6.67 -16.53,0.3 -26.24,-7.13 -12.74,-9.71 -13.2,-20.94 -17.29,-25.18 4.09,-2.58 12.44,-6.37 32.31,-9 -0.76,-1.52 -3.34,-6.07 -1.82,-10.16 1.82,-5.31 9.4,-8.65 7.13,-15 3.34,-0.76 4.85,-0.76 13.2,-11.23 7.89,-10.47 12.74,-12.74 18.81,-13.5 6.07,-0.76 9.71,0 20.94,-10.47 7.88,-7.43 5.31,-13.8 5.31,-13.8 0,0 5.15,-1.67 3.34,-12.14 v 0 z"
       style="fill:#cbac5a;fill-rule:evenodd"
       id="path1102" />
    <path
       d="m 715.57,948 c 0.3,-1.52 1.52,-2.28 9.71,-1.52 8.19,0.76 60.07,-4.85 74.18,-5.61 14.26,-1.06 64.47,-0.31 88.9,4.85 24.43,5.16 49.15,11.23 61.13,14.26 12,3.34 15.78,4.54 15.32,6.06 -0.3,1.52 -3,3 -4.55,2.58 -1.51,-0.3 -41.26,-12.44 -53.54,-15 -12.28,-2.56 -54.77,-9.41 -78,-9 -21.69,0.31 -30.34,-0.3 -48.69,1.82 -18.36,2.28 -48.7,5.31 -57.8,4.1 -9,-1.06 -7.14,-1.06 -6.68,-2.58 v 0 z"
       style="fill:#d6bc6f;fill-rule:evenodd"
       id="path1104" />
    <path
       d="m 837.68,1066.9 c 0,0 31.1,16.84 42.33,37.47 8.19,15.32 -4.85,22.91 -4.85,22.91 0,0 17.6,0 15.32,9.71 -1.06,6.06 -30.34,22.44 -49.91,31.09 -19.87,8.65 -19.11,8.2 -28.82,9.71 -9.41,1.52 -35.2,-3 -40.51,4.55 -5.31,7.55 -3,15.33 -1.52,16.54 1.52,1.06 13.81,2.58 13.81,2.58 0,0 -2.58,7.13 -28.06,7.89 -25.48,0.76 -31.86,2.57 -33.38,5.31 -1.52,2.57 4.85,1.06 16.54,3 11.68,1.82 28.06,3 28.06,3 0,0 -5.31,4.55 -19.11,8.19 -15.78,4.09 -40.51,7.89 -47.94,12.44 3.79,2.58 9.41,6.37 12,6.67 -6.37,1.52 -15.33,4.86 -16.84,6.07 2.27,1.52 5.31,3.34 5.31,3.34 0,0 -12.75,15.32 -20.18,19.12 -7.43,3.8 -50.21,23.66 -64.93,19.87 -36.71,-9.71 -41.26,-49.91 -50.21,-52.94 -13.5,-4.55 -19.87,4.54 -31.86,-1.83 5.31,-3.79 8.2,-6.06 13.81,-8.64 -6.07,-3 -37.47,-22.91 -37.47,-22.91 a 232.72,232.72 0 0 0 -10.92,-20.93 c -6.07,-10.47 -15,-24.43 -21.7,-36.72 -14.56,-27 -15.32,-39.44 -28.52,-54.76 2.28,-3 10.16,-2.58 10.16,-2.58 l 110.6,36.41 196.11,5.68 51,-72.81 21.69,2.58 z"
       style="fill:#dfc677;fill-rule:evenodd"
       id="path1106" />
    <path
       d="m 547.18,1177.94 a 17.21,17.21 0 0 0 4.09,3.34 c 3.8,2.58 9.41,5.62 13.2,10.16 1.52,-2.27 5.31,-6.37 12,0 6.69,6.37 15,1.83 20.17,3.34 5.31,1.83 5.61,2.58 5.61,2.58 0,0 3,-2.58 9.71,-5.31 4.1,-1.52 8.95,-2.58 14.26,-4.09 4.85,-1.06 10.16,-2.58 13.81,-2.58 3.34,2.27 15.32,15 63.41,-3.79 45.36,-17.6 55.82,-19.57 63.41,-16.85 0.76,-1.82 1.52,-5.31 13.2,-4.85 0,-4.85 -9.71,-21.39 -9.71,-21.39 l -53.55,-18.35 H 687.5 l -87.83,16.08 -48.67,27.77 -3.79,14 z"
       style="fill:#c4a859;fill-rule:evenodd"
       id="path1108" />
    <path
       d="m 517.9,1147.15 c 0,0 1.06,8.19 13.2,16.84 12,8.64 15.77,13.8 15.77,13.8 0,0 2.28,-3 4.1,-6.06 1.82,-3.34 3.34,-7.13 6.37,-8.19 6.07,-2.58 19.87,2.27 22.91,1.51 2.58,-0.75 1.82,-6.06 4.55,-6.06 6.37,-0.31 10.46,4.09 12.74,4.09 2.28,0 7.88,-0.3 8.64,-1.51 0.76,-1.21 1.06,-13.81 9.71,-19.88 9.41,-6.67 20.94,-3.79 24,-2.27 0,2.27 0.3,7.89 6.37,8.19 6.07,0.3 6.67,-0.76 12,1.06 5.33,1.82 11.68,-0.3 14.56,8.64 2.58,-0.75 8.65,-1.51 7.13,-10.16 3,-2.27 5.62,-3.79 12,-12.74 1.52,-2.27 4.09,-4.85 6.07,-8.19 5.31,0 11.68,-1.06 20.17,6.37 -2.58,1.82 -4.1,3 -4.85,4.85 a 54.56,54.56 0 0 1 6.06,7.13 c 2.28,3 3.8,6.68 6.68,7.44 6.37,1.82 16.84,-0.76 28.52,0 11.23,0.76 20.63,4.85 24.73,7.43 1.52,-0.75 1.52,-1.06 5.31,-0.3 3.79,0.76 6.67,1.06 2.58,-3.79 2.27,1.06 4.85,3.34 7.13,1.06 2.28,-2.28 4.09,-5.61 10.46,-6.37 6.37,-0.76 8.65,0.3 11.23,-6.37 3.34,-8.19 -8.19,-8.19 -8.19,-8.19 0,0 5.31,-4.86 11.23,-11.23 7.13,-6.67 15.32,-15.32 17.29,-25.94 3.34,-19.57 -15.77,-22.14 -15.77,-22.14 l -92.69,28.52 -113.32,-5.62 -96.63,48.09 v 0 z"
       style="fill:#927d49;fill-rule:evenodd"
       id="path1110" />
    <path
       d="m 434.62,879.4 c 0,0 -3,3.79 -4.85,12.74 -1.85,8.95 -1.06,7.89 -2.58,14.26 -1.52,6.37 -20.19,69.78 -13.19,91.17 7,21.39 19.12,29.28 26.7,46.57 1.52,3.79 3,6.07 3.79,9.41 2.58,11.22 0.31,19.87 3.34,31.1 1.06,3.79 3.8,8.19 7.89,12.74 9,9.4 23.67,18.35 30,24.72 8.94,9.41 21.69,28.53 37.92,30.34 8.65,1.06 20.94,-2.58 31.1,-8.64 9,-5.62 14.56,-13.5 24,-18 6.67,-3.34 13.8,-4.55 20.17,-6.07 13.2,-2.58 25.19,-3 32.32,-1.52 10.92,2.28 36.71,10.17 51,10.17 a 138.73,138.73 0 0 0 33.07,-4.55 c 21.69,-6.37 47.93,-17.3 65.23,-22.15 10.16,-3 18.35,-3.79 26.7,-5.61 14.26,-3.34 26.24,-7.89 33.07,-16.54 -4.55,-5.31 -10.16,-13.5 -40.51,-13.2 -34.43,0.76 -74.18,19.87 -93.75,22.91 -19.57,3.04 -28.06,5.61 -49.91,-2.28 C 634.71,1079 634,1073.73 634,1073.73 c 0,0 -22.49,-15.73 -31.9,-55.83 -9.41,-40.1 0,-69.32 24.43,-97.09 6.37,-7.13 4.85,-13.5 4.85,-13.5 0,0 16.08,-21.69 11.68,-42 -4.85,-20.18 -35.95,-16.08 -35.95,-16.08 L 434.63,879.4 v 0 z"
       style="fill:#6e6342;fill-rule:evenodd"
       id="path1112" />
    <path
       d="m 460.56,946.91 a 15.72,15.72 0 0 0 -1.82,8.19 c 0.3,4.09 1.52,9.4 13.8,21.39 10.47,10.46 8.19,22.14 8.19,22.14 0,0 5.27,1.06 19.57,-5.63 11.23,-5.31 15,4.1 15,4.1 a 31.71,31.71 0 0 1 10.47,-3.34 22.91,22.91 0 0 0 9.4,-3 c 0,0 13.2,13.5 24.73,19.87 10.47,5.62 16.54,9.41 21.7,5.62 4.85,-3.34 4.85,-10.17 4.54,-13.2 a 39.39,39.39 0 0 0 -4.54,-7.89 c -3.34,-4.85 -8.65,-10.47 -9,-15 -0.76,-10.46 7.89,-22.91 6.06,-25.94 -1.83,-3.03 -8.64,-3.79 -25.48,2.28 -17.44,5.76 -92.69,-9.56 -92.69,-9.56 v 0 z"
       style="fill:#39331f;fill-rule:evenodd"
       id="path1114" />
    <path
       d="m 500.3,1014.72 c 0,0 -8.64,-8.19 -5.61,-47.94 a 49.38,49.38 0 0 1 10.92,1.06 c 0,0 4.71,30.8 -5.31,46.88 z"
       style="fill:#292311;fill-rule:evenodd"
       id="path1116" />
    <path
       d="m 438.72,849.06 a 23.74,23.74 0 0 0 3.34,-3 c -3,5.61 -16.85,28.06 -5.62,63.41 11.23,35.19 39.44,61.43 74.18,62.65 34.74,1.22 53,-15.78 73.88,-41.26 8.19,-10.16 17.6,-22.91 25.94,-31.55 12.44,-13.51 22.15,-17.3 22.15,-30.34 0,-26.7 -27.31,-38.69 -67.51,-50.67 -40.2,-11.98 -76.46,-10.5 -95.27,-2.3 -18.35,8.94 -26.24,18.35 -31.1,33.07 v 0 z"
       style="fill:#252211;fill-rule:evenodd"
       id="path1118" />
    <path
       d="m 567.81,1026.7 3,-1.52 c 0,0 0.75,-12 5.61,-11.68 4.85,0.76 7.13,7.14 6.67,9.41 -0.3,2.27 -1.51,6.07 -6.37,5.61 -6.37,0.15 -8.94,-1.82 -8.94,-1.82 z"
       style="fill:#3f3824;fill-rule:evenodd"
       id="path1120" />
    <path
       d="m 554.31,975.73 c 0,0 3,-1.06 6.67,2.58 3,0 16.08,-1.52 20.18,1.06 4.1,2.58 5.31,4.85 5.31,4.85 0,0 -15.32,3.34 -23.67,0 -8.49,-2.88 -8.49,-8.49 -8.49,-8.49 z"
       style="fill:#2d2815;fill-rule:evenodd"
       id="path1122" />
    <path
       d="m 621.82,978 c 0,-0.76 -8.19,-6.37 -16.84,-8.2 -1.52,-0.3 -1.83,0.76 -3,0.76 -0.76,-0.3 -1.06,-2.58 -1.06,-2.58 l -4.92,2.59 c 0,0 -0.76,1.06 1.82,3 2.27,1.82 6.07,3.34 7.13,6.37 1.06,3.03 1.06,4.09 1.52,4.55 0.3,0.3 5.61,0 8.19,-1.52 2.58,-1.52 7.44,-4 7.13,-5 v 0 z"
       style="fill:#82764f;fill-rule:evenodd"
       id="path1124" />
    <path
       d="m 545.21,1008.8 c 0,0 1.51,-10.46 11.68,-10.92 10.46,-0.76 12.44,9.4 12.44,9.4 l -6.07,6.07 c 0,-0.15 -4.55,-6.52 -18,-4.55 z"
       style="fill:#2d2816;fill-rule:evenodd"
       id="path1126" />
    <path
       d="m 611.2,963.74 c 0,0 -5.62,6.07 -18.05,7.89 -1.06,-1.52 -3.34,-4.55 0,-9.4 3.34,-4.85 7.13,-6.37 10.92,-4.86 a 8.88,8.88 0 0 1 7.13,6.37 z"
       style="fill:#574f35;fill-rule:evenodd"
       id="path1128" />
    <path
       d="m 634.1,971.18 c 0.31,-1.52 -0.75,-1.82 0,-2.58 0.75,-0.76 4.86,-2.27 5.62,-1.52 0.3,0.31 0,1.52 0,3 0,1.48 0,3 -0.76,4.09 -1.06,1.52 -4.09,2.28 -5.61,1.83 -1.52,-0.45 -1.82,-2.58 -1.82,-3 0.75,-0.3 2.57,-1.06 2.57,-1.82 z M 660,954.8 c 0,-0.76 2.58,-2.28 4.1,-2.28 2.27,0 2.27,1.82 2.58,2.28 0.75,0.3 0.75,-0.31 1.51,1.06 0.76,1.37 1.83,3.79 1.06,5.31 -0.77,1.52 -3.79,2.57 -4.54,2.27 -1.06,-0.76 -4.4,-7.58 -4.71,-8.64 z"
       style="fill:#82764f;fill-rule:evenodd"
       id="path1130" />
    <path
       d="m 607.86,974.67 c 0,0 3.34,0.75 7.89,4.55 -1.52,1.06 -3.8,2.27 -3.8,2.27 0,0 -0.3,-3.49 -4.09,-6.83 z"
       style="fill:#6e6342;fill-rule:evenodd"
       id="path1132" />
    <path
       d="m 600.43,941.29 c -0.76,-0.75 2.27,-2.57 4.09,-2.27 1.82,0.3 2.58,1.52 4.55,1.82 1.97,0.3 2.28,-0.76 3,-1.52 0.72,-0.76 3.34,-0.3 3.79,0 a 8.45,8.45 0 0 1 0.76,1.06 4.2,4.2 0 0 1 1.51,-3 4.79,4.79 0 0 1 4.1,-0.76 c 0.3,1.06 1.82,4.85 1.52,5.61 -0.3,0.76 -4.85,1.83 -5.62,1.06 0.76,1.83 4.1,5.62 4.55,6.37 0.45,0.75 -3.34,2.58 -4.85,2.28 -2.12,-0.15 -15.17,-7.74 -17.44,-10.62 z m 19.87,-25.18 a 3.52,3.52 0 0 0 -1.52,-1.82 c -1.06,-0.3 -4.55,0 -4.55,1.82 0,1.82 3,12 6.37,17.3 3.8,5.31 6.37,9.7 8.95,10.92 a 3.52,3.52 0 0 0 4.55,-1.52 c 0.3,-0.76 1.06,-6.37 0.76,-19.57 -0.3,-13.2 -0.76,-25.94 -1.52,-26.7 -0.76,-0.76 -3.79,-0.75 -4.85,0.76 -1.06,1.51 -7.89,16.54 -8.2,18.81 v 0 z"
       style="fill:#585136;fill-rule:evenodd"
       id="path1134" />
    <path
       d="m 606.8,993.78 c 0,0 -5.31,-3.34 -10.47,-1.06 -4.85,2.28 -4.55,11.23 -4.55,11.23 a 7.19,7.19 0 0 0 6.68,-0.76 c 3.34,-2.27 7.58,-6.06 8.34,-9.4 z"
       style="fill:#574f35;fill-rule:evenodd"
       id="path1136" />
    <path
       d="m 616.81,1005.77 c -0.3,-3 -3,-3 -3,-4.55 a 3.41,3.41 0 0 1 3.33,-2.58 c 1.52,0 3,1.82 4.86,3 1.82,1.06 4.55,3 4.85,5.31 0.3,2.31 -3,8.64 -6.67,8.64 -3.67,0 -2.58,-6.83 -3.34,-9.86 z m 29.28,-4.1 c 0,0 -6.07,1.82 -5.62,0 0.45,-1.82 1.83,-2.27 3.8,-2.27 a 6,6 0 0 1 3.79,-1.83 3.29,3.29 0 0 1 2.27,0.76 c 0,0 4.1,-1.82 5.31,-0.76 1.21,1.06 0.31,1.06 1.06,2.28 a 10.67,10.67 0 0 1 1.83,4.55 c 0,1.21 -4.55,3.79 -8.2,3.34 -4.24,-0.91 -3.49,-5.31 -4.24,-6.07 z m 35.34,-6.83 c 0,0 1.82,1.06 0.31,2.28 -1.06,1.06 -6.37,3 -10.93,3.34 -4.55,0 -8.64,0.75 -8.64,-0.76 0,-1.51 3.79,-4.55 6.06,-5.31 a 4.84,4.84 0 0 1 3.8,-1.82 c 1.82,0 8.94,-0.76 10.92,-1.06 1.82,-0.31 3.34,0.75 2.27,2.27 -0.45,1.06 -3.79,1.06 -3.79,1.06 z M 691.9,948 c 0,0 -2.28,4.85 -4.85,4.85 -2.58,-0.3 -2.58,-1.06 -2.58,-1.82 0,-1.06 2.58,-3.79 2.27,-4.55 -0.75,0 -2.58,0 -2.27,-1.82 0,-1.52 2.58,-3.34 4.85,-3 a 10,10 0 0 1 6.07,-2.27 c 2.58,0 4.85,0.75 4.85,2.27 0,1.52 -3,4.85 -4.1,5.62 -1.21,1.21 -2.73,2 -4.24,0.75 z m -34.59,89.65 c 0,0 -3,0.31 -3,1.82 0,0.76 0.75,0.76 1.82,0.31 a 8.24,8.24 0 0 0 1.82,-0.31 c 0.3,0.31 0.3,1.82 2.58,1.82 a 14.41,14.41 0 0 0 5.31,-1.82 c 1.82,-0.75 3.34,-1.52 3.34,-3 -0.76,-2.58 -2.28,-3.8 -4.55,-3.8 a 6.05,6.05 0 0 0 -3.34,0.76 c 0,0 -0.76,-1.52 -3.34,0 -2.58,1.52 -2.28,1.52 -1.52,2.28 1.36,1.21 0.91,2 0.91,2 z m -17.14,15.78 c 0,-0.76 3.79,-2.28 4.85,-1.82 1.06,0.3 4.09,6.06 4.09,6.67 0,0.76 -3.79,2.58 -5.31,2.58 -1.52,0 -4.09,-2.58 -4.09,-3 0,-0.3 1.82,-0.75 1.82,-1.06 0.45,-0.75 -1.36,-2.58 -1.36,-3.34 z m -12,-22.15 c 0.76,-0.3 0.76,-1.06 1.82,-1.82 a 2.61,2.61 0 0 1 2.28,-0.3 3.69,3.69 0 0 1 2.58,-1.83 c 1.82,-0.3 3.34,0 3,0.76 0,2.28 1.52,3.79 1.52,5.61 0,1.82 -1.06,4.1 -4.85,5.62 -3.79,1.06 -8.95,1.06 -9.71,0.76 -0.76,-0.3 -1.52,-3.34 -0.76,-4.86 0.76,-1.52 2.88,-3.18 4.1,-3.94 v 0 z"
       style="fill:#82764f;fill-rule:evenodd"
       id="path1138" />
    <path
       d="m 633,1032.31 c 0,0 -2.58,1.52 -2.58,2.28 a 6.74,6.74 0 0 0 -0.3,2.27 c 0,0.45 3.34,-0.3 3.79,-0.76 0.15,-0.3 -0.91,-3 -0.91,-3.79 z"
       style="fill:#6e6342;fill-rule:evenodd"
       id="path1140" />
    <path
       d="m 610.44,1025.18 c 1.51,0.31 4.09,0 6.06,0.76 1.52,0.76 2.58,2.28 1.06,4.1 -1.52,1.82 -3,4.55 -6.37,4.09 -3.79,-0.3 -7.43,-2.27 -7.43,-3.79 a 7.27,7.27 0 0 1 1.82,-5.31 c 1.52,-1.21 2.27,-0.45 4.85,0.15 v 0 z"
       style="fill:#585136;fill-rule:evenodd"
       id="path1142" />
    <path
       d="m 608.62,1026.7 c 0,0 -4.85,3.79 -6.07,5.62 -1.52,1.82 -8.95,11.22 -11.22,13.19 a 28.57,28.57 0 0 1 2.57,-3.79 15.52,15.52 0 0 0 -6.37,8.19 c -1.82,5.62 10.17,8.65 18.05,10.93 7.88,2.28 10.93,3 10.93,3 a 84.72,84.72 0 0 1 -7.44,-13.8 c -3,-7.13 -4.55,-7.89 -2.58,-11.23 1.52,-3.34 3.8,-5.61 3.8,-8.19 -0.91,-2.4 -1.67,-3.92 -1.67,-3.92 z"
       style="fill:#574f35;fill-rule:evenodd"
       id="path1144" />
    <path
       d="m 435.68,1038.69 a 9.24,9.24 0 0 0 3.34,0 c 2.27,-0.31 25.94,-9 50.67,-7.44 a 271.06,271.06 0 0 1 54.76,9 c 31.1,8.19 69.78,24.42 94.81,33.68 6.67,2.57 13.2,7.13 18,8.94 19.12,7.44 19.87,7.44 31.1,9.41 13.2,1.82 26.7,-2.58 40.81,-5.61 17.29,-3.8 46.87,-5.62 72.81,-9.41 a 148.73,148.73 0 0 0 24.73,-5.61 c 0,0 -20.63,20.63 -70.09,28.06 a 219.27,219.27 0 0 1 -60.37,0.76 c -15.78,-1.52 -26.24,-3.8 -34.13,-6.07 -8.95,-2.58 -27.31,-9.41 -49.91,-15 -15.78,-4.1 -33.38,-7.13 -53.55,-10.92 -49.76,-9.11 -103.76,-19.57 -123,-29.73 z"
       style="fill:#252211;fill-rule:evenodd"
       id="path1146" />
    <line
       x1="409.89001"
       y1="846.33002"
       x2="283.51999"
       y2="728.31"
       style="fill:none"
       id="line1148" />
    <path
       d="m 379.85,944.94 c -12,10.16 -24.73,19.87 -37.16,29.27 L 305.22,1003 c -12.74,9.4 -25.18,19.11 -37.93,28.52 -12.75,9.41 -25.48,18.35 -39,27 12,-10.16 24.73,-19.57 37.47,-28.82 12.74,-9.25 25.95,-18.32 38.24,-27.7 l 37.47,-28.83 c 12.89,-9.4 25.33,-19.11 38.38,-28.21 z m -66.29,106.19 c 0,0 13.5,-11.23 30.34,-27 20.93,-19.56 46.57,-44.6 54.76,-49.14 l -85.11,76.15 z"
       style="fill:#cfb66c;fill-rule:evenodd"
       id="path1150" />
    <path
       d="m 313.56,1051.12 c 6.68,-6.67 13.81,-13.19 20.94,-19.57 l 10.92,-9.4 c 3.34,-3 7.14,-6.37 10.47,-9.71 6.67,-6.67 13.2,-13.81 19.87,-20.63 a 127.54,127.54 0 0 1 10.47,-9.71 28.3,28.3 0 0 1 6.06,-4.1 c 1.83,-1.06 3.8,-3 6.37,-3.34 -1.51,2.28 -3.33,3.34 -4.85,5.31 -1.82,1.52 -3.34,3.34 -4.85,4.85 -3.34,3.34 -7.13,6.37 -10.47,9.41 -7.13,6.07 -14.56,12 -21.69,18.35 -7.13,6.35 -13.8,13.2 -20.94,19.57 -7.73,6.53 -14.86,12.9 -22.3,19 z m 90.72,-60.68 c 0,0 -49.45,48.4 -59.62,56.28 z"
       style="fill:#cfb66c;fill-rule:evenodd"
       id="path1152" />
    <path
       d="M 404.28,990.44 A 161.47,161.47 0 0 1 390,1005 l -15,14.26 c -4.85,4.85 -9.41,9.71 -14.56,14.56 -5.31,4.55 -10.16,9 -15.78,13.2 l 14.56,-14.26 c 4.86,-4.85 10.17,-8.94 15.33,-13.8 l 14.56,-14.26 c 5,-5 9.86,-9.86 15.17,-14.26 z m 2.27,26.24 a 315.38,315.38 0 0 1 -16.08,37.17 c -12.74,25.49 -31.85,57.34 -40.2,73.58 z"
       style="fill:#cfb66c;fill-rule:evenodd"
       id="path1154" />
    <path
       d="m 406.55,1016.69 c 0,5.61 -1.52,10.47 -3.34,15.32 a 150.66,150.66 0 0 1 -6.06,14.26 c -2.28,4.55 -4.86,9.41 -7.44,13.81 -2.58,4.4 -5.61,8.94 -7.89,13.5 l -15.32,27 c -5.31,9 -10.47,18.05 -16.08,26.7 3.79,-9.71 8.95,-18.81 13.81,-27.76 5.31,-9 10.16,-18 15,-27.31 a 153.85,153.85 0 0 0 6.37,-14.25 c 2.27,-4.86 4.54,-9.41 6.37,-13.81 2.27,-4.85 4.09,-9.41 6.37,-13.8 2.57,-4.71 4.7,-9.26 8.19,-13.66 z"
       style="fill:#cfb66c;fill-rule:evenodd"
       id="path1156" />
    <path
       d="m 460.56,1141.08 c 0,0 -15,19.87 -13.5,45.05 4.09,-13.19 9.25,-33.37 13.5,-45.05 z m 14.26,19.92 c 0,0 -5.31,54 -9.71,80.55 6.22,-30.69 7.43,-28.11 9.71,-80.55 z m 99.36,83.74 c 0,0 -22.45,66 -22.91,84.34 4.86,-18.86 14.26,-57.39 22.91,-84.39 z"
       style="fill:#dec270;fill-rule:evenodd"
       id="path1158" />
    <path
       d="m 626.67,1137 c 0,0 36.41,60.07 63.72,111.34 C 683,1222.54 666,1175.22 626.67,1137 Z"
       style="fill:#cbaf59;fill-rule:evenodd"
       id="path1160" />
    <path
       d="m 724.52,1225.43 a 1104.54,1104.54 0 0 1 54,109.07 c -3.03,-25.79 -11.23,-69.93 -54,-109.07 z"
       style="fill:#e3c677;fill-rule:evenodd"
       id="path1162" />
    <path
       d="m 1012.14,1314 c 6.06,-3.79 18.05,-24.43 28.52,-29.58 10.46,-5.31 18.35,-6.37 27.76,-16.84 9.4,-10.93 12,-17.6 32.61,-26.24 28.83,-12.45 9,-28.53 9,-28.53 a 93.07,93.07 0 0 1 10.16,-8.64 c 7.44,-5.61 16.08,-12.44 15.33,-24.43 -1.06,-20.17 -4.85,-49.45 -21.39,-66.44 16.08,-3.34 46.87,-5.61 66,-10.46 22.14,-5.62 32.31,-13.51 32.31,-13.51 0,0 -12.74,-21.69 7.89,-43.53 20.63,-21.84 37.47,-34.89 49.91,-59.32 -14.26,-1.82 -36,-9.4 -91.48,11.68 a 69.63,69.63 0 0 1 8.65,4.85 c 0,0 -34.13,9.41 -46.57,19.88 -21.7,18.35 -24.43,33.37 -47.94,44.6 -23.51,11.23 -47.18,8.19 -66.74,17.29 -19.56,9.1 -22.45,16.84 -29.59,20.18 1.52,1.82 -0.3,4.85 2.58,7.43 -1.82,2.58 -12.44,19.87 -23.21,19.87 1.06,4.1 10.16,7.13 10.16,7.13 0,0 -6.67,4.86 -23.66,6.07 8.64,9 16.84,18.81 39.44,33.07 -1.82,3.79 -9.41,9.41 -6.37,16.54 3.34,7.13 12,16.84 46.57,24.73 -17.6,0.75 -38.22,4.85 -66,1.06 -27.76,-3.34 -32.31,-5.31 -49.45,-1.06 1.82,1.82 6.67,1.82 10.92,6.67 -4.55,0.3 -33.07,-3.34 -42.78,9.41 -10.16,13.19 -14.56,34.89 -13.8,49.45 -5.31,2.58 -10.47,7.13 -7.89,16.54 2.58,9.41 16.08,12.44 24.73,18.35 8.64,6.37 9.4,8.64 17.6,7.13 8.64,-1.82 21.38,-10.46 28.82,-10.46 7.44,0 12.74,5.61 12.74,5.61 0,0 20.18,-9.71 22.15,-7.89 1.82,1.82 0.3,13.5 2.27,15.32 2,1.37 24.73,-12.13 30.8,-15.93 z"
       style="fill:#ecd592;fill-rule:evenodd"
       id="path1164" />
    <path
       d="M 1453.13,706.92 C 1358.32,462.08 1123.94,416.72 1123.94,416.72 H 455.25 l 2.58,249.39 H 591 V 1223 H 455.24 v 248.94 h 650.19 c 156.7,0 282.31,-157.47 282.31,-157.47 201.15,-285.49 65.38,-607.55 65.38,-607.55 z m -344.21,439.77 c 0,0 -51,73.58 -106.49,73.58 h -111 L 888.8,666.72 h 142.45 c 0,0 66,13.8 112.11,144.41 0,0 61.13,187 -34.44,335.56 z"
       style="fill:#ffffff;fill-opacity:0.8;fill-rule:evenodd"
       id="path1166" />
  </g>
</svg>
