<svg version="1.1" id="Layer_1" xmlns="http://www.w3.org/2000/svg" x="0" y="0" viewBox="0 0 699.6 537.8" xml:space="preserve"><style>.st2{fill:#f6f6f6}.st3{fill:#303133}.st4{fill:#454648}.st6{fill:#46484a}.st7{fill:#2e3132}.st8{fill:#1f2023}.st9{fill:#3d3e41}.st10{fill:#2d3031}.st11{fill:#47484a}.st12{fill:#3a3d3e}.st13{fill:#575a5a}.st14{fill:#2f3032}.st16{fill:#494a4c}.st22{fill:#3b3e3f}.st29{fill:#d0d2d2}.st41{fill:#272b2b}.st45{fill:#d3d2d7}</style><circle cx="354.4" cy="273.9" r="227.4" fill="#41246c"/><path d="M573.6 390.9c-2.9 0-5.9-.4-8.9-1.1-5.3-1.3-10.4-3-15.4-4.7-1.2-.4-2.4-.8-3.7-1.2-.3 0-.7-.1-1-.3-10.3-2.1-20.4-5.5-30.2-10.3-13.1-6.4-26.6-12.8-39.5-19l-4.3-2.1c-1.2-.6-2.5-1.1-3.9-1.6-.6-.2-1.1-.4-1.7-.6l-3.3-.3c-3.6-.4-7.2-.8-10.9-1.2h-.1c-1.1 2.3-3.4 4.8-8.1 4.8h-.2c-4.3-.1-8.1-2.8-9.2-6.6-.1-.4-.2-.5-.2-.5s-.2-.1-.8-.2c-16.5-2.3-33.3-5.6-50.1-9.8-.8-.2-1.5-.4-2.3-.5-.2-.1-.5-.1-.7-.2h-.8c-1 0-1.9-.1-2.7-.5h-.4c-1.5 0-3.2-.1-5-.7-6.1-.6-12.5-1.4-19.5-2.6-3.4-.6-5.8-2.8-6.4-6-.1-.4-.1-.5-1.2-.9-4.4-1.4-9-2.8-13.3-4.2-8.9-2.8-18.1-5.6-27-9-.1 0-.2-.1-.3-.1-.7-.2-2.3-.6-3.1-2.3-.4-.8-.2-1.9.3-2.6.3-.4.7-.6.8-.7 1.2-.8 2.6-1.2 4.2-1.2 8-1.6 16.2-2.8 24.1-3.9 4.6-.7 9.3-1.4 14-2.1-.5-.2-1-.5-1.5-.8-.8 0-1.5-.3-1.9-.7-2-.6-3.9-1.4-5.8-2.4-1.1-.1-1.8-.6-2.3-.9h-.1c-1.3-.3-2.5-.9-3.9-1.7-1.4-.3-2.7-.9-3.9-1.5l-33.8-4.5c-1.3-.2-2.7-.3-4.1-.4-3.5-.4-7.2-.8-10.8-1.3h-1.5c-1 0-2.1-.1-3.1-.7h-1.4c-1 0-2.2-.1-3.5-.6h-.2c-2 0-4.1-.3-6.7-1l-1.8-.1h-.1c-1.7-.2-3.4-.4-5-.5-4.8-.5-9.7-1-14.5-1.9h-.1c-.4.1-.8.1-1.2.1-1.1 0-2.1-.2-3.1-.6-.5-.1-.9-.1-1.4-.2-.5-.1-.9-.1-1.4-.2.4.4.8.9 1.1 1.4.9.7 2.7 2.1 2.6 4.2 0 .8-.3 1.5-.9 2.2 1.2 3.1.6 5.5-2 8.2-.2.2-.4.5-.6.7-1.4 2.5-3.7 3.9-6.4 3.9-.4 0-.8 0-1.2-.1-3.6-.5-6.1-2.7-7.2-6-.7-2.1-.8-5.2 2.3-8.1.6-.6 1.3-1.3 1.9-2.2v-.2c-.2-.4-.7-.8-1.6-1-3.8-.5-7.6-1-11.3-1.4l-4.8-.6-5.2-.6c-5.1-.6-10.5-1.3-15.7-1.9-3.5-.4-3.8-3-3.7-4.1v-.9c-1.4-.3-2.9-.5-4.4-.6-.7-.1-1.5-.2-2.2-.2-11.9-1.5-23.8-3.5-35.4-5.5-2.1-.4-4.3-.7-6.4-1.1-24.1-4-47.3-9-68.9-14.8-6.5-1.8-13-3.9-19.3-5.9l-.9-.3c-1.4-.5-2.9-.6-4.5-.8-1.1-.1-2.2-.2-3.4-.4-.7.1-1.4.2-2.1.2-1.6 0-3.1-.2-4.5-.5-1.2-.2-2.4-.4-3.6-.4-1.3 0-2.3-1.1-2.3-2.3 0-1.3 1-2.3 2.3-2.4.7 0 1.4-.1 2.1-.1 1.7-.1 3.4-.1 5.1-.1 1.5 0 2.8 0 4 .2h.4c.6 0 1.1.1 1.6.2h.2s.4 0 .5.1h4c2.8-.8 5.6-.9 8.3-.9 3.2-.3 6.3-.6 9.5-1 16.7-1.7 34-3.5 51.2-3.6 1.1 0 2-.2 3-.8 1.2-.6 2.5-1.2 3.7-1.8.5-.2.9-.4 1.4-.7 3.8-2.5 7.7-3.7 11.8-3.7 1.3 0 2.6.1 4 .4 6.5.1 13 .8 19.3 1.6 1.9.2 3.8.5 5.7.7 2.1.2 4.1.4 6.2.7 9.1 1 18.6 2 27.8 3.4 7.1 1.1 14.3 2 21.3 2.8 3.3.4 6.8.8 10.2 1.3.5.1 1 .1 1.6.1 1.3 0 2.7.1 4.1.6 5.7.4 11.6 1.1 18.3 2.1 3.8.4 7.5.9 11.3 1.3 8.3.9 16.9 1.9 25.4 2.9 12.9 1.5 25.9 3 38.8 4.5 6.8.8 13.6 1.6 20.3 2.4l5.7.6c4.3.5 8.7.9 13.1 1.6.9.1 1.9.2 3 .2 1.5 0 3-.1 4.5-.3l4.2-.3h.2c3.5-.5 7-1 10.6-1.2-5.6-1.4-11.2-2.8-16.7-4.2-3.6-.9-7.2-1.8-10.9-2.7-.6-.1-1.1-.4-1.6-.5-.1 0-.2-.1-.3-.1-1.5-.2-2.8-.7-4-1.4-.4-.3-.8-.6-1-1.1-.2-.5-.7-1.6-.1-2.7s1.6-1.4 2.2-1.5c.9-.2 1.8-.4 2.7-.7 3-.7 6.2-1.5 9.3-2.2 11.4-2.4 20.2-4.1 28.5-5.7 1.7-.3 1.8-.6 1.9-1.2.4-3.5 3.5-3.8 4.7-3.9h.1c5.1-1.4 10.4-1.5 14.8-1.5h10.8c2.7 0 5.8.1 9 .4h.7c15.1.4 31.3 1 47.4 2.1h1c.9 0 2.1 0 3.3.4 6.7.3 13.5.9 20 1.5 2.8.3 5.7.5 8.5.8l21.1 1.8 7.8-6c11.2-8.7 22.8-17.7 34.1-26.5 1.3-1 2.8-1.5 4.5-1.5h.6c17.7 1 35.3 3.2 48.6 5 2.2.3 3.6 1.5 4.1 3.8l.3 1.5c2.4 10.3 4.9 21 7.4 31.4.6 2.6-.4 4-1.6 4.7.6 1.8 1.3 3.6 2.1 5.5.5 1.3 1.1 2.6 1.6 3.9l.1.2c.9 2.4 1.5 4 .5 5.5-.9 1.5-2.6 1.8-5.3 2.2-.6.1-1.2.3-1.8.5-1.6.4-3.2.8-5 1h-.2v.3c-.1 3-.7 5.9-1.3 8.6-.1.6-.3 1.3-.4 1.9l4.1 1.1c5.3 1.4 10.8 2.9 16.3 4.3 2.2.6 3 2.3 3.4 3.2.8 1.9 1.6 3.7 2.5 5.6 1.4 3.2 2.9 6.5 4.3 9.9.3.8.6 1 1.4 1.2 5.7 1.5 11.8 3.2 19.1 5.3.1 0 .3.1.5.1 2.8.5 4.2 2 4 4.3-.3 3.3-3.4 3.7-4.6 3.8-.2 0-.4 0-.5.1-5.8 1-13.4 2.3-21.1 3.4-.9.1-1.4.4-2 1.1-2 2.2-4 4.4-5.9 6.5-3.2 3.5-6.6 7.2-9.8 10.8-1.9 2.1-3.9 3.2-6.5 3.4-1.3.1-2.5.2-3.9.4-.6.1-1.2.1-1.7.2-1.9.3-3.9.6-5.8.9-4.8.8-9.7 1.6-14.7 2h-.3v.5c0 .3.1.5.1.8 0 4.3-.9 8.3-1.8 12.1-.2.8-.3 1.5-.5 2.3 1.3.5 2.7 1.1 4 1.6 1.1.5 2.3 1 3.5 1.4.6.2 2.1.8 2.5 2.4.4 1.6-.7 2.9-1.1 3.3-3.5 3.9-7 7.8-10.4 11.6-1.1 1.3-2.3 2.6-3.4 3.8-.6.9-1.3 1.7-2.1 2.3-.7 1-1.5 1.8-2.6 2.5-1.2 1.5-2.7 2.6-4.6 3.5l-.8.4c-2.7 1.7-5.5 2.8-8.5 3.2-.7.4-1.5.6-2.4.6h-.2c-2.8.6-5.5.9-8.2.9z" fill="#fff"/><path class="st2" d="M229.7 282.9c-.2-.3-.4-.5-.6-.8-.4-1-1.2-1.7-2-2.3-.7-1-1.4-2-2.7-2.3-.2-1-.2-1.6 1.1-1.4 2.8.4 5.6.7 8.4 1.1 25.5 3.1 51.1 6.2 76.6 9.4 5.4.7 10.9.9 16 3 6.7 2.8 13.5 5.5 20.2 8.3.7.3 1.9.1 1.6 1.4-.2 1.1-1.1 1.2-2.1 1.4-10.9 1.6-21.9 3.3-32.8 5-4.1.6-8.2 1.1-12.4 2.7.9.5 1.5.9 2.1 1.1 5.7 1.9 11.4 3.9 17.1 5.7 8.3 2.6 16.6 5.2 24.8 8 1.1.4 1.3 1.2 1.6 2 .7 2.8 2.6 4.2 5.3 4.6 2.3.3 4.6.7 7 1 9 1.5 18.2 1.8 27.1 4 9.7 2.4 19.4 4.5 29.2 6.2 6.6 1.2 13.3 2.3 19.9 3.4.8 3.9 3.2 6.3 6.8 6.6 3.5.3 5.9-1.1 7.2-4.4.7-.7 1.6-.3 2.4-.2 6.9 1.1 14.1.6 20.6 4 .5.2 1 .4 1.4.7.1.1.2.3.4.3 15.8 7.6 31.5 15.5 47.6 22.7 4 1.8 8 3.8 12.5 4.5.5.1 1 .3 1.5.4.3.1.7.2 1 .2 10 2.9 20 6.3 30.1 8.6 10.5 2.4 20.7.5 29.1-6.6 7.2-6.1 12.8-13.9 19.2-20.9.8-.8.8-1.7-.4-1.7-2.1 0-3.5-1.6-5.5-1.9-1.3-.2-2.8-1.2-3.7-2.3-.6-.7.5-2 .6-3.1.4-4.1 1.9-8.1 1.8-12.3-.1-3.1.8-3.7 4.1-4.1 2.9-.4 5.8-.6 8.7-1.2 3.4-.7 7-.2 10.1-1.9.7 0 1.3.1 2 .1 2.4-.1 5.3.4 7.1-1.4 5.5-5.8 10.8-11.8 16.1-17.7 1.4-1.5 2.9-2.7 5.2-3 6.7-.9 13.4-2.1 20.1-3.2 1.2-.2 2.5-.1 3.3-1.4.5-2-1.2-1.9-2.2-2.2-6.5-1.9-13-3.7-19.6-5.5-1.4-.4-2.3-1-2.9-2.4-2.2-5.2-4.5-10.3-6.7-15.4-.4-.8-.6-1.7-1.7-2-6.1-1.6-12.1-3.2-18.2-4.8-.1-.1-.2-.2-.3-.1-1-.5-2.1-.8-3.2-.9-.9-.1-1-.6-.8-1.4.4-1.5.8-3.1.7-4.7.6-.8-.2-1.7.2-2.5 1.1-.8.9-2.1.9-3.2 0-2.1.6-3.4 3-3.6 1.9-.2 3.7-.8 5.6-1.3.9-.1 1.8-.4 2.7-.4 1.8-.1 2.2-.7 1.5-2.5-1.6-3.7-3-7.6-4.4-11.4-.3-.7-.9-1.4-.4-2.3 1.7-.3 2.3-1 1.8-2.9-2.7-10.9-5.2-21.8-7.7-32.7-.3-1.2-.8-1.8-2.1-2-16.1-2.1-32.2-4-48.5-5-1.4-.1-2.5.3-3.7 1.2-14.3 11.1-28.6 22.2-42.9 33.2-13.6-1.3-27.2-2.6-40.7-3.8-12.9-1.2-25.9-1.9-38.8-2.4-7.5-.3-15-.5-22.6-.7-1.7-.4-3.3-.4-5-.2-2.7-.1-5.3-.2-8-.2-7.2-.1-14.4-.1-21.5 1.3-1.6.3-2.8 1-3 2.5-.3 1.9-1.5 2.3-3.1 2.6-8.6 1.7-17.2 3.4-25.8 5.2-4.9 1-9.8 2.2-14.7 3.3-.4.1-1.8-.3-.9 1.1 1.6.8 3.2 1.3 5 1.6.3.3.6.4 1 .3.7.2 1.3.4 2 .6.5.2.9.4 1.4.5 10.4 2.6 20.8 5.1 31.1 7.8.9.2 2.5-.2 2.7 1.4-.5.1-1 .3-1.6.4-3.4.3-6.7.7-10.1 1.1-3.9 0-7.7.4-11.5 1.1-7 1.1-13.9-.2-20.7-1-22.6-2.6-45.3-5.3-67.9-7.9-12.2-1.4-24.5-2.8-36.7-4.2-6.5-.8-13.1-1.6-19.6-2.4-6.7-.8-13.3-1.5-20-2.3-4.2-.5-8.4-1.1-12.6-1.6-2.5-.3-5-1-7.5-.9-2.7.1-5.2-.6-7.8-.9-4.2-.5-8.4-1.5-12.6-1.6-3.6-.1-7.2-.7-10.7-1.2-5.5-.7-11-1.2-16.5-1.8-4.3-.5-8.8-.8-13.2-.5-1.4.1-2.9.1-4.1.8-7.4 4.8-15.6 5.9-24.3 6.1-25.3.5-50.3 5.8-75.7 4.8 3.7.4 7.4.9 11.2.9 2.5 0 5 .5 7.4 1.3 6.4 2.1 12.7 4.2 19.2 6 34 9.3 68.6 15.2 103.4 20.4 5.5.8 11 1.2 16.4 2.5 0 4.1 0 4.1 4 4.6 11.4 1.4 22.7 2.9 34.1 4.2 1.5.2 2.7.5 3.6 1.8 1.5 1.6.3 3-.3 4.4-.1.2-.3.4-.4.5-.6 0-.7.6-1.1.9-2 1.5-2.4 3.5-1.7 5.8.8 2.6 2.8 3.9 5.3 4.3 2.4.4 3.9-1 5-3 .2-.4.4-.8.8-.9 2.8-1.6 2.6-3.9 1.6-6.4-.2-.5-.7-1.1 0-1.5 2.4-1.1.5-1.6-.3-2.2z"/><path class="st3" d="M535.5 230.4c14.3-11.1 28.6-22.1 42.9-33.2 1.1-.9 2.2-1.3 3.7-1.2 16.2 1 32.4 2.8 48.5 5 1.3.2 1.8.8 2.1 2 2.5 10.9 5.1 21.8 7.7 32.7.5 1.9-.1 2.6-1.8 2.9-8 3.7-16.1 6.2-25.5 3.5.6.9.7 1.1.8 1.1.5.2.9.4 1.4.4 4 .3 7.5 1.8 11.1 3.4 3.4 1.6 3.4 1.6 4.6-2 .1-.3 0-.9.7-.8v5.5c0 .7-.3 1.3-.4 2-.5 3.1.3 4 3.4 3.4 1.5-.3 3-.9 4.5.1-1.9.4-3.7 1.1-5.6 1.3-2.4.2-3 1.5-3 3.6 0 1.1.2 2.4-.9 3.2-.8 0-1.5-.1-1.6 1-.1 1.1.4 1.5 1.4 1.4.1 1.6-.3 3.2-.7 4.7-.2.8-.2 1.3.8 1.4 0 1.1.2 2.4 1.3 2.7 1.4.5 1-1.5 1.9-1.8.1-.1.2 0 .3.1.1.5.1 1 .2 1.5.8 2.8.6 3.1-2.2 3.5-2.1.2-2.8 1.4-1.5 2.9 1.9 2.2.6 4.1.3 6.2-.2 1.8-1.1 2.3-2.9 1.6-1.3-.4-2.8-.1-4.2-.6-.4-.1-1.1.1-.9.5 1 2.8-1.2 1.1-1.9 1.4-.9.4-2.4-.4-2.4 1.3 0 1.6.1 3.6 2.2 3.6 3 0 5.9 1.1 8.9 1.1 5.1.1 10 2 15.1 2.4 2.3.2 5 1 7.4 1.5 5.5 1 11.2.7 16.6 2.6 5.3 1.8 11.2 1.2 16.7 2.6-.7 1.3-2.1 1.2-3.3 1.4-6.7 1.1-13.4 2.3-20.1 3.2-2.3.3-3.8 1.5-5.2 3-3-.5-5.6 2.3-8.7 1-.2-.1-.6.1-.7.3-.8 1.8-2.4 1-3.7 1.2-.9.2-2.1-1-2.4.1-.4 1.3 1.1 1.6 2 2.2.1 0 0 .3 0 .4-.4.3-.8.2-1.2 0-2.1-1.3-4.4-1.5-6.8-1.7-.6-.1-1.5-.3-1.6.7-.1.9.6 1.5 1.5 1.1 1.1-.5 1.7.2 2.4.8.1.1.1.4.2.6-.6.6-1.6 0-2 .8.8 1.2 2.1 1.7 3.4 2.8-2.7-.2-4.5-1.6-6.4-2.4-2.1-.9-3.4.6-4.7 1.5-1.3 1 .9 1.4.9 2.3v.8h-2c-.6 0-1.2.2-1.4.9-.2.6 0 1.2.6 1.5 2.8 1.3 2.3 2.4-.2 3.5-.3.1-.4.5-.2 1 1.9-.4 3.8-.4 5.8-.3-3.2 1.7-6.8 1.2-10.1 1.9-2.9.6-5.8.8-8.7 1.2-3.3.4-4.2 1-4.1 4.1.1 4.2-1.3 8.2-1.8 12.3-.1 1.1-1.2 2.3-.6 3.1.9 1.1 2.3 2.1 3.7 2.3 2 .3 3.4 1.9 5.5 1.9 1.2 0 1.1.8.4 1.7-6.4 7-12 14.8-19.2 20.9-8.4 7.1-18.6 9-29.1 6.6-10.2-2.3-20.1-5.7-30.1-8.6-.2-.6-.5-.8-1-.2-.5-.1-1-.3-1.5-.4.2-.8-.5-2 .7-2.4 1.5-.6 2.1-1.8 2.8-3.1.3-.6.7-1.4 1.9-1.2-.4 1.1-.6 2.1.4 3 .9.8 2-.3 3.1.2-2.2 2.3-2.2 2.3.6 3.4 1.6.6 4.7-1.6 4.5-3.4-.1-1-.7-1.5-1.7-1.3-.7.2-1.4.7-2.1-.2 1.2-1 3.5-1.5 3.4-2.7-.1-1.4-2.5-1.3-3.7-2.1-.6-.4-1.3-.3-1.9.1-1.4.8-2.4.6-3-1.1-.7-1.8-5.8-3.6-7.1-2.4-1.8 1.6-2.3.3-2.8-1-1.1-2.7-3.7-3.7-6.4-2.3-.8.4-1.4.2-1.7-.4-.7-1.3-.8-2.7-2.1-3.8-.7-.5.3-1 .8-.9 3.4.3 1.9-2.2 1.5-3.2-.5-1.1-1.2-2.3-2.2-3.3-1.2-1.3-2.3-1.7-3.5-.2-.5.6-1.2.8-1.8.5-1.7-.8-3.7.2-5.3-1.1-.6-.4-1.2-.1-1.6.4-.6.7.2 1 .6 1.3.8.6 1.6 1.3 2.4 1.9-.1.2-.1.4-.2.6-2.7-1.4-5.2.7-7.9.3-1.1-.2-2.6 1.3-3 .1-.4-1.1 1.7-.9 2.5-1.6.4-.3 1-.4.9-1-.1-.6-.6-.7-1.1-.8-2.4-.8-4.5-.8-6.3 1.4-.3.4-.7 1.2-1.7.8 1-2 .6-3-1.9-2.4-.5.1-.8-.1-1.1-.3-1.5-1.2-3-1.6-4.8-.7-.9.5-1.3 0-1.4-1-.1-.8 1.6-1.4.4-2.1-.8-.5-1.6.6-2.4 1-.6.3-1.3.4-1.9.6-.5.1-1 .5-1.3-.1-.3-.5.2-1 .6-1.2 2.6-1.5 5.3-3.1 8.2-3.3 4.4-.2 8.6.7 13.1.3 3.8-.3 8 .4 12 1 2.6.4 5.3.6 7.9 1.1 1.4.3 1.8-1.4 3.2-1.1 4.7.9 9.4 1.7 14.3 1.1 2.3-.3 4.6.5 6.9.7 2.2.3 4.4.3 6.6 0-.3-1.1-1.5-.5-1.5-1.5.8-.8 2.2.2 3.1-1.1-4.7-2.3-9.8-3.6-14.8-3.9-2.7-.1-5.2-.9-7.8-1.3-2.5-.4-4.8-.9-7.3.1-1.3.5-3.1 1.1-4.1-1-.5-1-1.5-.9-2.3-.1-1.4 1.4-2.8 1.2-4.2-.1-1-.9-1.6-1.3-2.5.2-1.1 1.9-2.5 2.1-4.6 1.2-1.3-.5-2.6-1.7-4.4-1.2-3.6 1.1-7 .2-10.5-.9-2.7-.9-5.4-2-8.3-1.8-2.5.2-4.9.4-6.9-1.6-.5-.5-1.2-.4-1.9-.2-1.9.3-3.9 1-5.3-1.4-.3-.6-1.5-1.1-2.2-.5-1.8 1.4-3.6.8-5.5.4-1.1-.3-2.3-.5-3.2-.1-1.9.7-3.6.1-5.3-.5-1.5-.5-2.9-1.2-4.6-.7-1.4.4-3.3.2-4.3-.2-4.9-2.2-9.8-.7-14.6-.5-4 .1-8.9-1.2-11.1-4.7-.9-1.5-2.9-1.9-3.5-1.3-2.1 1.9-5.5-.5-7 2.5 0 .1-.4.1-.5 0-1.4-1.7-2.3-.5-3.3.5-.5.5-1.3.1-1.9.1-3.6-.3-6.9-2-10.8-1.5-3 .4-6.3.2-9.3-.9-1.9-.7-3.9-.5-5.8-1.1-2.7-.8-5.4-.2-8.1-.5-5.4-.5-10.8-1-16.2-1.3-1.9-.1-4.1.5-4.5-1.8-.3-1.8-1.1-3.8-.4-5.6.4-1 1.4-2.7 2-2.6 2.4.2 4.7.4 6.7-1.4 1.9 2.1 4.2.8 6.3.9 2 .1 3.9.6 5.9 1.1.7.2 1.3.4 1.7-.5.6-1.5 1.7-1.1 2.6-.4 1.9 1.2 4 1.8 6.2 1.8 1.6 0 2.3.5 2.3 2.1.3-1.2.5-2.4.8-3.5.6-3 3-1.4 4.5-1.5 1.7-.1 1.2 1.5 1 2.5-.2 1.3-.7 2.5.2 3.9 1-1 1.3-3.2 3-2.3 2.8 1.4 5 .6 7.1-1 .7-.5 1.1-.6 1.6.2.5.7 1.1 1.4 2 1 .9-.4.8-1.4.8-2.2-.1-2.1 1-2.7 3-2.6.9 0 1.8.7 2.6.6 3-.5 5.9.4 8.8.3 4-.1 7.5 2.2 11.5 1.8 1.5-.2 3.1-.5 4.7 0 4.2 1.4 8.5.1 12.8 1.1 2.2.5 4.8.8 7.3.9 3.3.1 6.8.9 9.8.2 2.3-.5 4.4.3 6.3-.1 4.5-.8 7.1 4.3 11.4 3.3.1 0 .3.2.4.3 1.7.4 3.6 1.4 5.2 1 4-1 7.9-.3 11.8 0 3.7.3 7.4.8 11 1.3 1.3.1 2.2-.4 2.7-1.7.4-1.1.6-2.3 2-3.4-.3 1.5-.4 2.5-.7 3.3-.5 1.2 0 1.6 1 2.2 3.7 2.1 7.8 2.1 11.9 1.9 1.2 0 2.2-.1 3.4.3 3.5 1.2 6.9 1.4 10.5.1 1.8-.7 3.7-2 5.7.1.7.7 2.2.5 3.4.7.6.1 1.3 0 1.5-.7.2-.9-.7-.7-1.2-1-1.1-.5-2.5-.3-3.7-1.7 3.2.5 5.9 1 8.7 1.3 1.3.1 2.2.2 1.6 1.8-.3.8.3 1.2 1.1 1.4 1.3.3 2.6.9 3.9.8 3.6-.1 7.3 1.4 10.9-.4.5-.2 1 0 1.3.5.5.7 1.3.7 1.9 1 1.6 1.1 3.5 0 5 .9 1 .6 2 .6 3.1 0 .5-.3 1.1-.6 1.7-.3 2.8 1.3 5.9 1.3 8.8 2.3 4.4 1.4 9.1 1.9 13.6 2.9 1.5.4 1.7-.8 1.6-1.4-.3-1.4.2-2.6.7-3.9.4-1.3.3-1.7-1.3-1.6-2 .1-4.1-.3-6.1-.4-2.6-.1-5-1.4-7.5-1.8-4.3-.7-9-.3-12.9-2.4-3.8-2.1-8.5 1.2-11.9-2.4-.2-.2-.7-.1-1-.1-2.3.6-4.4-.3-6.6-.4-2-.1-4.5-1.4-5.9 1.9-.4-1.5-1-2.4-2.2-2.7-3.3-1-6.6-2.8-10.2-1.3-.5.2-.9.4-1.6-.1-2-1.6-4.6-2-6.9-2.1-4.2-.3-8.4-.6-12.6-1.4-4.4-.8-9.1-.2-13.3-2.4-1.3-.7-2.4-1.8-3.9-2.1-1.3-.2-2.7-.6-3-2-.3-1.6 1.2-2.3 2.2-3 4.5-3.2 8.2-7.2 12.2-10.9.4-.4 1.4-1.2.4-1.5-2.8-.9-5.5-2.7-8.6-2.4-2.8.3-5.8-.6-8.6.6-.8.4-1.8-.3-2.5-.8-.5-.3-1.2-1.1-1.4-1-2.3 1.7-4.3-.2-6.4-.3-4.1-.2-8.2-1.8-12.4-1.2-.2 0-.5-.1-.7-.2-3.2-1.6-6.4-1.3-9.7-.6-.6.1-1.6.8-1.8.1-.9-2.2-2.9-1.3-4.3-1.4-1-.1-2.1 0-3.1-.1-4.1-.2-8.2-1.7-12.4-.7-1.5.3-3.3.6-4-1.8-.2-.6-1.2-1.2-1.9-1.5-.8-.4-1.4-.8-1-1.6.4-1 0-2.7 1.5-2.9 2.4-.3 4.7-1 7.2-.4 2.6.7 5.3 1.7 8.1 1 1.7-.4 3.4-.4 4.6.5 2.5 2 5.3.9 8 1.4 4.6.8 9.2.6 13.8 1.5 3.1.6 6.1 2.2 9.4 1.4 1.4-.3 2.7-.3 2.7-2.2 0-.5.2-1.1.8-1.1.7 0 .5.7.7 1.1.6 1.3 1 3.2 2.8 2.4 2-.9 3.5-.3 5.1.7.7.4 1.6 1 2.3.9 4.8-.6 9.5.6 14.3.1 1.8-.2 3.4.7 5.2.5 3.2-.3 5.5-2 7.6-4.3.7-.8 2.1-1.3 1.8-2.5-.3-1.3-1.7-1.1-2.7-1.3-9.9-1.7-19.9-3-29.9-3.9-1.3-.1-3.7-1.9-3.3 1.7 0 .4-1 1-1.7 1.4-.7.5-1.4.5-2.1-.1-.6-.6-.4-1.3 0-1.8 1.7-2 .1-2.1-1.3-2.3-3.1-.4-6.2-.9-9.4-1.3-6-.8-12.1-1.3-18.1-2.3-4-.7-8.7.5-11.4-4-.1-.2-.5-.3-.7-.2-2.2 1.4-4.2-.5-6.3-.2-3.6.6-7.3-.6-10.8.9-.4.2-1 .1-1.5 0-4.1-.5-8.3-.7-12.4-1.6-2.6-.5-5.3.2-7.8-1.3-.9-.6-.9-2.3-2-1.9-2.4.9-4.7-.7-7.2.2-2.7 1-6 1-8.2-.3-1.9-1.1-2.6-4.3-5.8-3.4-.8-1.8-2.4-1-3.7-1.2-1-.2-2.2.4-3.1-.5 3.4-.4 6.7-.8 10.1-1.1.6 0 1-.3 1.6-.4.6-.2 1.8.4 1.7-.8-.2-2-2.5-4.1-4.7-4.2-.4 0-.9 0-1.2-.2-4.7-1.9-9.8-1.6-14.6-2.8-4.7-1.2-9.8-.7-14.5-2.4-.7-.3-1.7-.4-2 .8-.7-.2-1.3-.4-2-.6-.1-.7-.4-1-1-.3-1.8-.2-3.4-.8-5-1.6.7-.7 1.6-.5 2.4-.4 6.2 1 12.3-.6 18.5-.3 4.4.2 9 .7 13.5-.2 3.9-.7 7.9-.8 11.9-1.1 1.6-.1 2.8-1.1 4.5-1.2 4.7-.3 9.4 0 14.1-1.1 1.4-.3 2.7-.3 4.1.4 2.6 1.3 5.1-.2 5.4-3.1.1-.5.1-1 .2-1.5.4-1.6 3.4-2.6 4.7-1.7.3.2.6.5.4.8-1.1 1.6.1 3.3-.4 4.8-.5 1.3.3 1.7 1.3 1.8 1.1.1 2.2.1 3.3 0 3.1-.2 6.2-1.7 9.2.3.4.3.7-.1 1.1-.3 1.6-.8 2.9-.6 3.7 1.1.3.5.6 1 1 1.5 1 1.5 2.8 1.3 4.1 1.1 1.2-.1.4-1.6.2-2.5-.2-.9.3-1.5 1.2-1.6 2.7-.1 5.7-.9 8.2-.1 3.3.9 6.5-.1 9.7 1 2.5.8 5.4.1 8 .4 4.4.5 8.8 1.4 13.2 1.7 3.1.2 6.2-.9 9.3 1 1.8 1.1 4.3.3 6.1 1.8.8.6 1.8.2 2.8-.2 1.8-.8 3.6-1.1 5.2.6 1.1 1.1 2.6 1.2 4.2 1.1 2.3-.2 4.6-.4 6.8-.2 2.5.3 5 .6 7.5.5 1.3-.1 2.4.1 3.3 1.3.7 1 1.6 1.1 1.8-.5.3-2.3 1.4-2.2 2.8-.8 1.6 1.7 3.5 1.9 5.7 1.7 3-.3 6.2-2.3 9.1.5.3.2.8.3 1.2.3h7.5c.9 0 1.8-.2 1.8-1.3 0-1-.6-1.6-1.7-1.8-2.2-.3-4.4-.9-6.4-2.1-.7-.4-1.6-.7-2.2-.4-2.4 1.5-4.3.1-6.3-1-.5-.3-1.2-.2-1.6-.4-3.3-1.5-7.1.6-10.3-1.4-2.5-1.5-5.6-1.5-8.2-2.9-1.2-.7-2-1.4-.3-2.5.6 0 1.3-.8 2.1-1.6zm46 42.4c-.1.6.5.6.8.8-1.2 2.2-.8 4.2.7 6 .2.2.2.7.2 1-.3 1.7 1 3 2 3.4 1.6.7 1.4 1.5 1 2.6-.6 1.6-1.5-.7-2.3.3.6.8 0 3 1.1 2.7 1.9-.5 4.1-.1 5.6-1.5.7-.6 1.2-1.1 1.6.1.2.4.1 1.1.9.9.5-.2.7-.8.6-1.2-.6-2.8 1.2-6-1.2-8.6-.1-.1-.1-.6 0-.7 1.5-.9 1-3 2.4-4 1.2-.8 1.8-1.5.7-2.8-.3-.4-.2-.8.2-1.1s.9-.3 1.1.1c.5 1.1 1.8 2.1 1.3 3.4-1 2.8-.2 5.8-1.1 8.5-.9 2.5 1.8 5.2-.7 7.4-.2.2-.1 1.1.1 1.2 1.7.7 1.2 2.9 2.8 3.9 1.8 1.2 1.5 2.8-.4 4.1-.8.6-1.3 1.4-1.4 2.8 1.5-1 2.4.5 3.5.2 3.3-.8 6.4.3 9.6.6 1.6.2 3.3.3 2.4-2.3-.1-.4 0-.8.4-1.1 1.6-1.1 1-2.5.5-3.8-1.5-3.7-.9-7.2.8-10.7.2-.5.3-1.2.2-1.7-.5-2.6-1.1-5.2-1.6-7.8-.5-2.8-3.1-5.1-1.2-8.6 1-1.8-2-1.8-3.2-2.7-.7-.5-1.5-.4-1.6.4-.6 2.7-2.5 1.5-4 1.5-1.9 0-.5-1.8-1.1-2.5-.2-.2-.2-.6-.3-.9-.1-.5-.3-1-.9-1-.6 0-.4.7-.7.9-1.4 1.3-1.8 3.2-2.4 4.9-.2.5-.2 1.3-1 1.2-.7 0-.8-.8-1.2-1.2-.6-.6.2-1.3 0-1.9-.2-.9-.7-1.6-1.7-1.6-1 .1-.7.9-.6 1.6.3 3.1.1 3.3-3.2 3.3-.7-.9 1.2-2.6-.9-3-1.3-1.5-2.1-1.6-3.1-.3-1.1-.1-2.2-.3-3.4-.4-.9-.1-1.1.4-1 1.2-.6.4-1.1 1.2-1.9 1.2 0-2.1-1.2-3-3.2-3-1.3 0-2.3.7-2.4 2-.2 2.1 1.1 2.7 2.9 2.9.8.1 1.2.5 1.1 1.3-.1 1-.8 1.1-1.6 1.2-1.1.1-1.6-1.3-2.7-.8 1.3 2.2 2.6 2.5 5.1 1.3.7.2 1.5.5 2.4.3zM542.9 357l-3.9-2.4c-.9-.5-1.8-1.3-2.9-.3-.3.1-.5.1-.8.2-.4 0-.9-.1-1.2.1-.4.5.1.7.4.9 1 .6 1.9 1.2 2.9 1.8v1c-1.3 4.4-.4 6.2 3.7 7.9 3.9 1.7 7.8 1.8 11.7 0 2 .7 3.5 2.5 5.8 2.7.8 0 1.4-.4 2-.9.6-.6 0-.8-.4-1.1-1.3-.8-2.5-1.5-3.8-2.3 1.6-3.3 1.2-4.8-1.6-6.2-1.2-.6-2.3-1.5-3.5-1.7-2.8-.5-5.7-1-8.4.3zm23.9-85.5c.2.2.4.3.5.5 1.7-1 2.4-2.9 3.5-4.4.6-.8 1.8-1.4 1.2-2.7-.6-1.3-2-1.1-3.1-1.2-.6 0-1.6-.7-1.7.2-.2 1.3 1.1.7 1.7.8 2.1.1 2.2.9 1 2.4-1.1 1.4-2.1 3-3.1 4.4zm-1.7-5.2c0-.5.1-1 .1-1.5s.5-1.3-.4-1.4c-.9-.1-.7.8-.7 1.3-.2 2-.4 4-.5 6 0 .4 0 .9.6.9.4 0 .5-.4.5-.7.1-1.6.3-3.1.4-4.6zm56.2 2.5c-2.1-.7-3.6-.7-5.6.1 2.1.5 3.5.6 5.6-.1zM591.2 292c-.5 1.1-.6 1.9.2 2.6.1.1.6 0 .6-.1.6-.9.2-1.6-.8-2.5z"/><path class="st4" d="M383 252.7c.9.9 2.1.4 3.1.5 1.3.2 2.9-.7 3.7 1.2 3.3-.9 3.9 2.3 5.8 3.4 2.2 1.3 5.5 1.3 8.2.3 2.4-.9 4.7.7 7.2-.2 1.1-.4 1.1 1.3 2 1.9 2.5 1.5 5.2.8 7.8 1.3 4.1.8 8.2 1.1 12.4 1.6.5.1 1.1.1 1.5 0 3.5-1.5 7.2-.3 10.8-.9 2.1-.3 4.1 1.6 6.3.2.1-.1.6.1.7.2 2.7 4.5 7.4 3.3 11.4 4 6 1 12 1.5 18.1 2.3 3.1.4 6.3.9 9.4 1.3 1.4.2 3 .2 1.3 2.3-.4.5-.6 1.2 0 1.8.6.6 1.4.6 2.1.1.6-.4 1.7-1 1.7-1.4-.4-3.6 1.9-1.9 3.3-1.7 10 1 20 2.3 29.9 3.9 1 .2 2.4-.1 2.7 1.3.3 1.2-1 1.7-1.8 2.5-2.1 2.2-4.4 3.9-7.6 4.3-1.8.2-3.4-.6-5.2-.5-4.8.4-9.5-.8-14.3-.1-.7.1-1.6-.5-2.3-.9-1.6-1-3.1-1.6-5.1-.7-1.9.8-2.3-1.1-2.8-2.4-.2-.4 0-1.1-.7-1.1-.6 0-.8.6-.8 1.1 0 1.9-1.3 1.9-2.7 2.2-3.3.8-6.3-.8-9.4-1.4-4.6-.9-9.3-.7-13.8-1.5-2.6-.5-5.5.7-8-1.4-1.2-1-2.9-.9-4.6-.5-2.8.7-5.5-.3-8.1-1-2.5-.7-4.8.1-7.2.4-1.5.2-1 1.9-1.5 2.9-.4.9.3 1.3 1 1.6.7.4 1.7.9 1.9 1.5.7 2.4 2.5 2.1 4 1.8 4.2-1 8.3.5 12.4.7 1.1.1 2.1 0 3.1.1 1.4.1 3.4-.8 4.3 1.4.3.7 1.2 0 1.8-.1 3.3-.8 6.6-1.1 9.7.6.2.1.5.3.7.2 4.2-.6 8.2.9 12.4 1.2 2.1.1 4.1 2 6.4.3.1-.1.9.6 1.4 1 .8.5 1.7 1.2 2.5.8 2.8-1.3 5.7-.3 8.6-.6 3.1-.3 5.8 1.4 8.6 2.4 1 .3 0 1.1-.4 1.5-4 3.7-7.8 7.7-12.2 10.9-1 .8-2.6 1.5-2.2 3 .3 1.3 1.7 1.7 3 2 1.5.3 2.6 1.4 3.9 2.1 4.2 2.2 8.9 1.5 13.3 2.4 4.1.8 8.4 1.1 12.6 1.4 2.3.2 4.9.5 6.9 2.1.6.5 1.1.3 1.6.1 3.7-1.4 6.9.3 10.2 1.3 1.2.4 1.8 1.3 2.2 2.7 1.4-3.4 3.9-2 5.9-1.9 2.2.1 4.4.9 6.6.4.3-.1.8-.1 1 .1 3.4 3.5 8 .3 11.9 2.4 3.9 2.1 8.6 1.7 12.9 2.4 2.5.4 4.8 1.7 7.5 1.8 2.1.1 4.1.5 6.1.4 1.6-.1 1.7.4 1.3 1.6-.4 1.2-.9 2.5-.7 3.9.1.6-.1 1.7-1.6 1.4-4.5-1-9.2-1.5-13.6-2.9-2.9-.9-6-1-8.8-2.3-.6-.3-1.2 0-1.7.3-1 .6-2.1.6-3.1 0-1.5-.9-3.4.2-5-.9-.5-.4-1.4-.3-1.9-1-.3-.4-.9-.7-1.3-.5-3.6 1.7-7.3.3-10.9.4-1.3 0-2.6-.6-3.9-.8-.7-.2-1.4-.6-1.1-1.4.6-1.7-.3-1.7-1.6-1.8-2.8-.3-5.5-.8-8.7-1.3 1.2 1.5 2.6 1.2 3.7 1.7.5.2 1.4.1 1.2 1-.2.7-.9.8-1.5.7-1.2-.2-2.7 0-3.4-.7-2-2.1-3.9-.8-5.7-.1-3.5 1.4-7 1.1-10.5-.1-1.1-.4-2.2-.4-3.4-.3-4.1.2-8.2.2-11.9-1.9-.9-.5-1.4-1-1-2.2.4-.9.4-1.9.7-3.3-1.4 1.1-1.6 2.3-2 3.4-.5 1.3-1.4 1.9-2.7 1.7-3.7-.4-7.3-1-11-1.3-3.9-.3-7.8-1-11.8 0-1.5.4-3.4-.6-5.2-1-.2 0-.3-.3-.4-.3-4.4 1-6.9-4.1-11.4-3.3-1.9.3-3.9-.5-6.3.1-3.1.7-6.5-.2-9.8-.2-2.5 0-5.1-.4-7.3-.9-4.3-1.1-8.7.2-12.8-1.1-1.6-.5-3.1-.2-4.7 0-4 .5-7.5-1.9-11.5-1.8-2.9.1-5.8-.7-8.8-.3-.8.1-1.6-.5-2.6-.6-2-.1-3.1.5-3 2.6 0 .8.2 1.8-.8 2.2-1 .5-1.6-.3-2-1-.5-.8-.9-.7-1.6-.2-2.2 1.7-4.4 2.5-7.1 1-1.7-.9-2 1.3-3 2.3-.9-1.4-.4-2.6-.2-3.9.2-1 .7-2.6-1-2.5-1.5.1-3.8-1.5-4.5 1.5-.2 1.1-.5 2.3-.8 3.5 0-1.6-.8-2.1-2.3-2.1-2.2 0-4.3-.5-6.2-1.8-1-.7-2-1.1-2.6.4-.4.8-1 .6-1.7.5-2-.4-3.9-.9-5.9-1.1-2.1-.2-4.5 1.2-6.3-.9-1.9 1.9-4.2 1.6-6.7 1.4-.6-.1-1.6 1.6-2 2.6-.7 1.9.1 3.8.4 5.6.4 2.3 2.6 1.7 4.5 1.8 5.4.2 10.8.8 16.2 1.3 2.7.2 5.4-.3 8.1.5 1.9.5 3.9.4 5.8 1.1 3 1.1 6.2 1.3 9.3.9 3.8-.5 7.2 1.2 10.8 1.5.7.1 1.4.4 1.9-.1 1-1 1.9-2.2 3.3-.5.1.1.4.1.5 0 1.5-3 5-.6 7-2.5.6-.6 2.6-.2 3.5 1.3 2.2 3.4 7 4.8 11.1 4.7 4.8-.2 9.8-1.7 14.6.5 1 .5 2.9.6 4.3.2 1.7-.5 3.1.2 4.6.7 1.8.6 3.4 1.2 5.3.5 1-.3 2.1-.1 3.2.1 1.8.5 3.7 1 5.5-.4.8-.6 1.9-.1 2.2.5 1.3 2.4 3.3 1.7 5.3 1.4.7-.1 1.4-.3 1.9.2 2 2 4.4 1.8 6.9 1.6 2.9-.2 5.6.9 8.3 1.8 3.5 1.2 6.9 2 10.5.9 1.8-.5 3.1.6 4.4 1.2 2.1.9 3.6.6 4.6-1.2.9-1.5 1.5-1.1 2.5-.2 1.3 1.3 2.8 1.5 4.2.1.8-.9 1.8-.9 2.3.1 1 2.1 2.8 1.6 4.1 1 2.5-1 4.8-.5 7.3-.1 2.6.4 5 1.2 7.8 1.3 5 .3 10.1 1.6 14.8 3.9-.9 1.3-2.2.2-3.1 1.1-.1 1 1.2.4 1.5 1.5-2.2.2-4.4.2-6.6 0-2.3-.3-4.7-1-6.9-.7-4.9.5-9.6-.2-14.3-1.1-1.5-.3-1.8 1.4-3.2 1.1-2.6-.6-5.3-.8-7.9-1.1-4-.6-8.2-1.3-12-1-4.5.3-8.8-.5-13.1-.3-2.9.1-5.6 1.8-8.2 3.3-.4.2-.9.7-.6 1.2.3.6.8.3 1.3.1.6-.2 1.3-.3 1.9-.6.8-.4 1.6-1.4 2.4-1 1.2.7-.5 1.3-.4 2.1.1 1 .5 1.5 1.4 1 1.8-.9 3.4-.5 4.8.7.3.3.7.5 1.1.3 2.4-.7 2.8.4 1.9 2.4 1 .4 1.4-.4 1.7-.8 1.8-2.2 3.9-2.2 6.3-1.4.5.2 1 .2 1.1.8.1.6-.6.7-.9 1-.8.7-2.8.5-2.5 1.6.4 1.2 2-.3 3-.1 2.7.4 5.1-1.7 7.9-.3.1-.2.1-.4.2-.6-.8-.6-1.6-1.3-2.4-1.9-.4-.3-1.2-.6-.6-1.3.4-.4 1-.8 1.6-.4 1.6 1.3 3.6.3 5.3 1.1.6.3 1.3.1 1.8-.5 1.2-1.5 2.3-1.1 3.5.2 1 1 1.7 2.1 2.2 3.3.4 1 1.9 3.5-1.5 3.2-.6-.1-1.5.4-.8.9 1.3 1 1.4 2.5 2.1 3.8.3.6.9.8 1.7.4 2.6-1.4 5.3-.3 6.4 2.3.5 1.3 1.1 2.5 2.8 1 1.3-1.2 6.4.6 7.1 2.4.7 1.7 1.6 1.9 3 1.1.6-.4 1.3-.5 1.9-.1 1.3.8 3.6.6 3.7 2.1.1 1.2-2.2 1.7-3.4 2.7.7.9 1.4.4 2.1.2 1-.2 1.6.2 1.7 1.3.1 1.7-2.9 4-4.5 3.4-2.8-1.1-2.8-1.1-.6-3.4-1.1-.5-2.2.6-3.1-.2-.9-.8-.8-1.9-.4-3-1.2-.1-1.6.6-1.9 1.2-.7 1.3-1.4 2.5-2.8 3.1-1.2.5-.6 1.6-.7 2.4-4.5-.7-8.4-2.7-12.5-4.5-16-7.2-31.7-15.1-47.6-22.7-.1-.1-.2-.2-.4-.3.3-.9 2.1-.7 1.7-2-.2-.7-.9-1.1-1.7-1.1-2-.1-1.3 1.4-1.4 2.4-6.5-3.4-13.7-2.9-20.6-4-.8-.1-1.7-.5-2.4.2-1.6-2.1-3.9-.8-5.8-1.4-1.3-.4-3.3-.4-3.6.2-.6 1.5 1.7 1.3 2.5 2.6-1.8.6-3-.3-3.3-1.6-.6-2.2-2-2.3-3.8-2-6.6-1.1-13.3-2.2-19.9-3.4-9.8-1.7-19.6-3.8-29.2-6.2-8.9-2.2-18.1-2.6-27.1-4-2.3-.4-4.6-.7-7-1-2.8-.4-4.6-1.8-5.3-4.6-.2-.9-.4-1.6-1.6-2-8.2-2.8-16.5-5.4-24.8-8-5.7-1.8-11.4-3.8-17.1-5.7-.6-.2-1.2-.6-2.1-1.1 4.3-1.6 8.4-2 12.4-2.7 10.9-1.7 21.9-3.4 32.8-5 1-.1 1.9-.2 2.1-1.4.2-1.3-1-1.2-1.6-1.4-6.7-2.8-13.5-5.6-20.2-8.3-5.1-2.1-10.6-2.3-16-3-25.5-3.2-51.1-6.3-76.6-9.4-2.8-.3-5.6-.6-8.4-1.1-1.4-.2-1.4.4-1.1 1.4-1.4-.4-2-1.9-3.6-2-4.3-.4-8.6-1-12.8-1.5-6.2-.8-12.3-1.7-18.5-2.3-3.5-.4-6.9-1.3-10.4-1.1-5.4-1.3-10.9-1.7-16.4-2.5C127.6 263 93 257 59 247.7c-6.5-1.8-12.8-3.9-19.2-6-2.4-.8-4.9-1.3-7.4-1.3-3.8 0-7.5-.4-11.2-.9 25.4 1 50.4-4.3 75.7-4.8 8.7-.2 16.9-1.3 24.3-6.1 1.2-.8 2.7-.8 4.1-.8 4.4-.3 8.8 0 13.2.5 5.5.7 11 1.2 16.5 1.8 3.5.4 7.1 1.1 10.7 1.2 4.2.1 8.4 1.1 12.6 1.6 2.6.3 5.1 1 7.8.9 2.5-.1 5 .6 7.5.9 4.2.5 8.4 1.1 12.6 1.6 6.7.8 13.3 1.5 20 2.3.1.1.1.4.2.4 5 1.5 10 2.8 14.7 5.2 1.1.6 2.3.1 3-1.1.5-.8 1.1-1.5 1.6-2.2 12.2 1.4 24.5 2.7 36.7 4.2 22.6 2.6 45.3 5.3 67.9 7.9 6.9.8 13.7 2.1 20.7 1 4.3-.8 8.2-1.3 12-1.3zm23.6 50.8c.5 1.1 2.1.6 2.5 1.2 1.8 2.7 1.2-.8 1.9-.7-.5-.9.6-1.9 0-2.8-1.8.3-2.7 2.1-4.4 2.3-.9-.4-.1-1.1-.3-1.7-.3-1.2-1.3-1.1-2.2-1.1-.8 0-1.8.2-1.9 1.2-.1 1 .8 1.1 1.5 1.3.4.1 1.1 0 1 .7-.1.8-.8.7-1.4.7-.5.1-1-.7-1.6-.1.5 1.1 1.5.8 2.3.8 1.6.2 1.4-1.7 2.6-1.8zm-282-71.8c-.2 1-.2 2.1-.9 3.1-.4.5-.5 1.3.2 1.8.8.6 7 1 7.6.4 1.6-1.9-.6-3.1-1-4.6v-.2c-1.8-1.7-4.2-1-6.5-1.8.3.5.5.9.6 1.3zm199.5 33c.5.3 1 0 1.4-.3 1.5-1 2.7-1 3.9.5.3.3.6.8 1.4.6-1.6-3 .3-4.4 2.9-5.6-2.9.2-4.6-.6-4.4-4.1-.9 3.6-3.5 3.3-6.3 2.8 2.6 3 2.6 3 1.1 6.1 0 .1-.1.1-.1.2v.1c.1-.1.1-.2.1-.3zm61.1 32.6c-1.1-.3-1.7.3-2 1.1-1.1 2.9-2 5.9-2.5 8.9-.1.4-.2 1 .3 1.1 1.6.3 3.3.7 4.9.5 1.1-.1.5-1.6.7-2.4.4-1.5.6-3.2 1.2-4.6.6-1.3 2.2-2.5 1.5-3.7-.8-1.6-2.8-.3-4.1-.9zm-112.6-39.7c1.2-.3.3-2.2 2-1.6 1 .3-.1 2.3 1.4 1.8 1.2-.4-.5-1.6.1-2.4.2-.2.5-.4.8-.6.6-.4.9-1 .6-1.8-.4-1.1-1.5-.9-2.3-1.1-.7-.2-1.4-.2-1.6.7-.4 1.7-1.1 3.2-1 5zm18.8 2.4c1.5-.7.9-2.4 2-2.4 1.2 0 .6 1.5 1.2 2.2.1.2.4.2.8.3-.1-1.4-.4-2.6.9-3.6.8-.7.4-1.9-.7-2.1-1-.2-2.4-1.1-3 .5-.6 1.6-.8 3.2-1.2 5.1zm-41.2-11.3c-1.3 1.1-1.1 2.5-1.5 3.6-.3.7-.5 1.5-1.5 1.3-1.1-.3-.6-1.1-.6-1.8 0-1 .9-1.9.3-3.3-1.2 1.1-.7 2.7-1.4 3.5-.9 1-.9 1.7.3 2.2 1.2.6 2.6 1 3.3-.4.8-1.5 1.2-3.1 1.1-5.1zm57.4 7c-1.6.2-3.2-1.3-4.1.2-.9 1.3-1.7 3.5-.9 4.9.5.9 2.6 1 4.1.2-.4-.6-1-.6-1.4-.5-4 .4 1.3-2.9-1.2-3.1-.1 0 0-.8.5-.9.4-.1.8 0 1.2 0 .5 0 1.2.4 1.8-.8zm-18.4-2c-1.7 0-2.7 1.5-2.7 4 0 1.5 1 1.8 2.2 1.8 1.5.1 2.7-1.8 2.6-4.2-.1-1.4-1-1.6-2.1-1.6zm127.5 48.7c-2.7-1.3-3.6-.9-4.1 1.6-.2 1-.3 1.9.9 2.2 1.2.3 2.5.2 3-1.1s-.6-1.5-1.6-1.6c-.4-.1-.9-.2-.8-.7.1-.5.5-.6.9-.6.6-.1 1.2.1 1.7.2zm-147.8-44.8v-5.5c0-.4 0-.9-.6-.9-.5-.1-.8.3-.9.7-.8 1.5-1.5 3-2.2 4.5.1.3.1.6.2 1 1.4-2.5 2.3-1.2 3.5.2zm-15-3.2c.5 1.3 1.5 1.3 2.6 1.1.8-.1 1.2-.8 1.3-1.6.1-1.1-.6-1.5-1.4-1.7-.5-.1-1-.3-.9-1 .2-.8.9-.6 1.5-.5.5.1.9.8 1.5.1-.5-1.3-1.7-1.2-2.7-1-.7.1-1.2.6-1.3 1.3-.1 1.1.5 1.7 1.5 1.9.6.1 1 .4.8 1-.2.6-.7.6-1.3.5-.5.1-.9-.8-1.6-.1zm47.9 1.9c-.8-1.8-2.1-1.8-3.5-1-1 .6-1.6 4.2-.8 4.8 1.1.9 2.3.9 3.2-.1-.4-1.6-3.3.8-2.5-2.3.6-2.3 1.7-2.3 3.6-1.4zm-15.6-2.9c-1.5.2-3.1-1.7-4.2.5-.6 1.2-.3 2.7-1.3 3.7-.1.1 0 .7.2.9.3.2.9.2 1-.3.2-1 .7-1.7 1.6-2 .4-.1.4-.3.1-.7-1.4-1.7-.4-1.7 1-1.5.4 0 1.1.4 1.6-.6zM114.5 234c5.6 0 5.6 0 5.5-3.8-1.7 1.2-3.3 2.3-5.5 3.8zm157.8 17c-1.6 2.2-1.2 4.3-2.3 5.9 0 .1.2.4.4.5.4.3.6-.2.7-.4.6-1.7 1.1-3.4 1.2-6zm43.3 9.3c4.6 1.8 4.6 1.8 6 .4-2.1-.4-4-.9-6-.4zm6.5-1.2c-2-.6-4.1-1.2-6.2-.6 2 .9 4 .9 6.2.6zm191.5 95.2c-.6.1-1.6-.2-1.6.7-.1 1.1.8 1.6 1.8 1.8.8.1 1.6.1 1.6-1.1-.1-1.1-.9-1.4-1.8-1.4zm-179.1-91.8c1.8.8 3.7.8 5.5.5-1.8-.7-3.6-1-5.5-.5zm108.5 1.3c.4 1.9 1.8 2.1 2.8 2.7.4.2.8.4 1-.2.2-.4-.1-.8-.5-1-1-.5-1.9-.9-3.3-1.5zm34.1 80.4c-.1-.4-.2-.9-.9-.9-1.2.1-1.1 1.3-1.4 2-.2.5.1.8.6.8 1-.1 1.6-.8 1.7-1.9zm-142.8-83.7c2.2 1 4.1.8 5.9.7-1.7-.6-3.5-1.3-5.9-.7zm201.2-30.1c-.8.7-1.5 1.6-2.4 2.2-1.7 1.1-.9 1.8.3 2.5 2.6 1.4 5.7 1.4 8.2 2.9 3.2 2 7-.2 10.3 1.4.4.2 1 .1 1.6.4 2 1 3.9 2.4 6.3 1 .6-.3 1.5 0 2.2.4 2 1.1 4.2 1.7 6.4 2.1 1.1.2 1.7.8 1.7 1.8 0 1.1-.9 1.3-1.8 1.3h-7.5c-.4 0-.9 0-1.2-.3-2.9-2.9-6.1-.9-9.1-.5-2.2.2-4.1 0-5.7-1.7-1.4-1.5-2.4-1.5-2.8.8-.2 1.5-1 1.4-1.8.5-.9-1.2-2-1.4-3.3-1.3-2.5.1-5-.3-7.5-.5-2.2-.2-4.5 0-6.8.2-1.6.1-3.1 0-4.2-1.1-1.7-1.7-3.5-1.4-5.2-.6-1 .4-2 .8-2.8.2-1.9-1.4-4.3-.7-6.1-1.8-3.1-1.8-6.2-.8-9.3-1-4.4-.3-8.8-1.1-13.2-1.7-2.5-.3-5.4.4-8-.4-3.2-1.1-6.5 0-9.7-1-2.5-.7-5.4 0-8.2.1-.9 0-1.4.7-1.2 1.6.2.9.9 2.4-.2 2.5-1.3.1-3.1.4-4.1-1.1-.3-.5-.7-.9-1-1.5-.9-1.7-2.1-2-3.7-1.1-.4.2-.7.5-1.1.3-3-1.9-6.1-.4-9.2-.3-1.1.1-2.2.1-3.3 0-.9-.1-1.8-.5-1.3-1.8.5-1.6-.7-3.3.4-4.8.2-.3-.1-.6-.4-.8-1.3-.9-4.3.1-4.7 1.7-.1.5-.2 1-.2 1.5-.4 2.9-2.8 4.4-5.4 3.1-1.4-.7-2.7-.8-4.1-.4-4.6 1.1-9.4.8-14.1 1.1-1.7.1-2.9 1.1-4.5 1.2-4 .3-8 .3-11.9 1.1-4.5.8-9.1.3-13.5.2-6.2-.3-12.4 1.3-18.5.3-.8-.1-1.7-.3-2.4.4-.9-1.3.6-1 .9-1.1 4.9-1.2 9.8-2.3 14.7-3.3 8.6-1.8 17.2-3.5 25.8-5.2 1.6-.3 2.8-.7 3.1-2.6.2-1.6 1.4-2.2 3-2.5 7.1-1.5 14.3-1.4 21.5-1.3 2.7 0 5.3.2 8 .2 1 1.7 3.6 1.8 5 .2 7.5.2 15 .5 22.6.7 13 .5 25.9 1.2 38.8 2.4 13.4.9 27 2.2 40.6 3.4zm-84.6-4.8c-1.4 0-2.4-.1-3.5 0-1 .1-1.3 1-1.4 1.8-.1.5.1 1.1.7 1.1 3 0 5.9.9 8.9.6.6-.1 1.1-.4 1.2-1 .1-.8-.4-1.1-1-1.4-1.6-.9-3.3-1.5-4.9-1.1zm9.8 4c1.5.3 2.9-.1 3-1.7.1-1.7-1.4-1.7-2.7-1.8-1.7-.1-3.3.5-3.3 2.2.1 1.5 2 1.1 3 1.3zM684.4 305c-5.5-1.4-11.3-.8-16.7-2.6-5.5-1.9-11.1-1.6-16.6-2.6-2.4-.4-5.1-1.3-7.4-1.5-5.1-.4-9.9-2.3-15.1-2.4-3 0-5.9-1.1-8.9-1.1-2.1 0-2.2-2-2.2-3.6 0-1.8 1.5-1 2.4-1.3.7-.3 3 1.4 1.9-1.4-.2-.5.5-.6.9-.5 1.4.5 2.9.1 4.2.6 1.8.6 2.7.1 2.9-1.6.3-2.1 1.6-4.1-.3-6.2-1.3-1.5-.5-2.7 1.5-2.9 2.8-.3 3-.7 2.2-3.5-.1-.5-.2-1-.2-1.5 6.1 1.6 12.1 3.2 18.2 4.8 1.1.3 1.3 1.1 1.7 2 2.3 5.1 4.6 10.2 6.7 15.4.6 1.4 1.4 2 2.9 2.4 6.5 1.8 13.1 3.6 19.6 5.5 1.1.2 2.8 0 2.3 2zm-53.7 26.7c-1.9-.1-3.9-.1-5.8.3-.2-.6-.1-.9.2-1 2.4-1 3-2.2.2-3.5-.6-.3-.8-.8-.6-1.5.2-.6.8-.8 1.4-.9h2c.2 1.4 1.3 1.1 2.6 1.4-.8-1.2-1.7-1.4-2.6-1.4v-.8c0-.9-2.3-1.3-.9-2.3 1.3-1 2.5-2.4 4.7-1.5 2 .8 3.7 2.2 6.4 2.4-1.3-1.2-2.6-1.7-3.4-2.8.4-.8 1.4-.2 2-.8-.1-.2 0-.5-.2-.6-.7-.5-1.3-1.2-2.4-.8-.8.3-1.6-.2-1.5-1.1.1-.9 1-.7 1.6-.7 2.3.2 4.7.4 6.8 1.7.4.2.8.3 1.2 0 0-.2.1-.4 0-.4-.8-.6-2.4-.8-2-2.2.4-1.1 1.6.1 2.4-.1 1.3-.3 2.9.5 3.7-1.2.1-.2.5-.3.7-.3 3.1 1.3 5.7-1.5 8.7-1-5.4 5.9-10.6 11.9-16.1 17.7-1.8 1.9-4.7 1.3-7.1 1.4-.7.1-1.4 0-2 0zm14.5-10.5c1.3-.1 2.5-.7 2.2-.9-1.1-.6.5-2.6-1.2-2.3-.8.1-2.5-.5-2.4 1.3-.1 1.1.6 1.9 1.4 1.9zm4.7-4.9c.1-.6-.3-.7-.6-.7s-.7.2-.8.4c-.2.4.3.5.6.5s.6-.1.8-.2zm-10 3.4c-.1-.1-.1-.3-.2-.4-.1 0-.3.1-.4.1.1.1.1.3.2.4.1.1.3 0 .4-.1z"/><path class="st3" d="M179.1 270.4c3.5-.1 6.9.7 10.4 1.1 6.2.7 12.3 1.6 18.5 2.3 4.3.5 8.6 1.1 12.8 1.5 1.6.2 2.2 1.7 3.6 2 1.3.3 2 1.3 2.7 2.3-.4.9-1.9-.6-2.1.9-.3.1-.5.2-.8.3h-3.5c-.9-1.3-2.1-1.6-3.6-1.8-11.4-1.4-22.7-2.8-34.1-4.2-3.8-.3-3.8-.3-3.9-4.4z"/><path class="st4" d="M639.1 255.3c-1.5-1-3-.4-4.5-.1-3.1.6-3.9-.3-3.4-3.4.1-.7.4-1.3.4-2 .1-1.8 0-3.7 0-5.5-.7-.1-.6.5-.7.8-1.2 3.6-1.2 3.6-4.6 2-3.5-1.6-7.1-3.1-11.1-3.4-.5 0-1-.2-1.4-.4-.1 0-.2-.2-.8-1.1 9.4 2.7 17.6.2 25.5-3.5-.6.9.1 1.6.4 2.3 1.4 3.8 2.8 7.6 4.4 11.4.8 1.8.3 2.4-1.5 2.5-.9 0-1.8.2-2.7.4z"/><path class="st3" d="M229.8 282.8c.7.7 2.6 1.2.3 2.3-.8.4-.2 1 0 1.5 1 2.5 1.2 4.9-1.6 6.4-.3.2-.6.6-.8.9-1.1 1.9-2.6 3.3-5 3-2.6-.4-4.5-1.8-5.3-4.3-.7-2.2-.4-4.3 1.7-5.8.4-.3.4-.9 1.1-.9.1-.2.3-.4.4-.5 3.2.8 3.5.6 3.6-2.5 1.5.3 2.9.5 4.2 1.5 1 .8 1.5.5 1.2-.8 0-.3.1-.5.2-.8z"/><path class="st4" d="M359.4 241.6c.3-1.2 1.3-1 2-.8 4.7 1.7 9.7 1.2 14.5 2.4 4.8 1.2 9.9.9 14.6 2.8.4.2.8.1 1.2.2 2.1.1 4.5 2.2 4.7 4.2.1 1.3-1.1.6-1.7.8-.3-1.7-1.8-1.2-2.7-1.4-10.4-2.6-20.8-5.2-31.1-7.8-.6-.1-1.1-.3-1.5-.4z"/><path class="st3" d="M435.2 344.3c1.8-.3 3.2-.2 3.8 2 .3 1.3 1.5 2.1 3.3 1.6-.8-1.3-3.1-1.1-2.5-2.6.2-.6 2.3-.6 3.6-.2 1.9.6 4.2-.7 5.8 1.4-1.3 3.3-3.7 4.8-7.2 4.4-3.6-.3-6-2.7-6.8-6.6zm-189-103.5c-.5.7-1.1 1.4-1.6 2.2-.7 1.2-1.9 1.6-3 1.1-4.7-2.4-9.7-3.7-14.7-5.2-.1 0-.2-.3-.2-.4 6.4.7 12.9 1.5 19.5 2.3z"/><path class="st4" d="M224.1 282.9c-.1 3.1-.3 3.3-3.6 2.5.5-1.4 1.8-2.8.3-4.4h3.5c-.1.6-.2 1.2-.2 1.9z"/><path class="st3" d="M472.1 350.2c.1-1-.5-2.5 1.4-2.4.8 0 1.6.4 1.7 1.1.3 1.3-1.4 1.1-1.7 2-.4-.2-.9-.5-1.4-.7z"/><path class="st4" d="M229.8 282.8c-.1.3-.2.5-.3.8-1.5-.9-3.2-1.6-4.4-2.9.2-1.5 1.7-.1 2.1-.9.8.7 1.6 1.3 2 2.3.1.2.3.5.6.7z"/><path class="st3" d="M433.4 223.5c-1.4 1.6-4.1 1.5-5-.2 1.6-.1 3.3-.2 5 .2z"/><path class="st4" d="M632.8 272.7c-1 .3-.5 2.3-1.9 1.8-1.1-.4-1.3-1.6-1.3-2.7 1.1.1 2.2.4 3.2.9zm-3.3-6.9c-1 .1-1.5-.4-1.4-1.4.1-1.1.8-1 1.6-1-.4.8.4 1.6-.2 2.4zm-273.1-25.1c.6-.7.9-.3 1 .3-.4.1-.7 0-1-.3zm179.1 138.1c.5-.5.8-.3 1 .2-.3 0-.7-.1-1-.2z"/><path class="st3" d="M229.7 282.9c-.2-.3-.4-.5-.6-.8.2.2.4.5.6.8z"/><path class="st4" d="M220.5 285.4c-.1.2-.3.4-.4.5.1-.1.3-.3.4-.5zm369.7-16.6c3.3 0 3.5-.2 3.2-3.3-.1-.7-.3-1.5.6-1.6.9-.1 1.5.7 1.7 1.6.1.6-.6 1.3 0 1.9.4.4.5 1.2 1.2 1.2.8 0 .8-.7 1-1.2.7-1.7 1-3.6 2.4-4.9.2-.2.1-.9.7-.9s.8.6.9 1c.1.3.1.7.3.9.6.7-.8 2.5 1.1 2.5 1.5 0 3.4 1.3 4-1.5.2-.8 1-.9 1.6-.4 1.2.9 4.1.9 3.2 2.7-1.9 3.5.6 5.8 1.2 8.6.5 2.6 1.1 5.2 1.6 7.8.1.5 0 1.2-.2 1.7-1.6 3.5-2.3 7-.8 10.7.5 1.3 1.1 2.7-.5 3.8-.4.3-.5.7-.4 1.1.9 2.6-.8 2.5-2.4 2.3-3.2-.3-6.3-1.4-9.6-.6-1.1.2-2.1-1.2-3.5-.2.1-1.4.6-2.2 1.4-2.8 1.8-1.3 2.2-2.9.4-4.1-1.6-1-1.1-3.2-2.8-3.9-.2-.1-.3-1-.1-1.2 2.5-2.3-.2-5 .7-7.4 1-2.7.2-5.7 1.1-8.5.4-1.2-.9-2.2-1.3-3.4-.2-.4-.7-.4-1.1-.1s-.5.8-.2 1.1c1.1 1.3.5 2-.7 2.8-1.4.9-.9 3-2.4 4-.1.1-.1.5 0 .7 2.4 2.6.6 5.8 1.2 8.6.1.5-.1 1.1-.6 1.2-.7.3-.7-.4-.9-.9-.4-1.2-.9-.7-1.6-.1-1.6 1.4-3.8 1-5.6 1.5-1.1.3-.5-1.9-1.1-2.7.8-1.1 1.7 1.3 2.3-.3.4-1.1.6-1.9-1-2.6-.9-.4-2.3-1.7-2-3.4.1-.3 0-.7-.2-1-1.6-1.9-2-3.8-.7-6 1.3-1.7 2.5-3.5 3.8-5.1.9-1.1.8-2 .1-3 1-1.3 1.7-1.2 3.1.3-.3 2.7-1 5.5-.6 8.2.2 0 .5 0 .7.1.3-1.6.5-3.4.8-5.2zm-37.3 97.4c-3.9 1.8-7.8 1.7-11.7 0-4.1-1.7-5-3.6-3.7-7.9.1-.3 0-.7 0-1 .9-.1 1.4 1.2 2.6.5-1.7-1.2-3.3-2.2-4.8-3.3.3-.1.5-.1.8-.2.9.5 1.8 1 2.8 1.4 1.3.5 2.3 2.1 4 1.3 2.8-1.3 5.7-.8 8.5-.3 1.2.2 2.3 1.1 3.5 1.7 2.8 1.4 3.2 3 1.6 6.2-.5-.1-1-.6-1.8 0 1.9 1.3 3.8 2.6 6 3.4-.6.5-1.2.8-2 .9-1.2-2-3.5-2.5-5.4-3.5-.6-.3-.8.2-.4.8zm.3-7.8c-3.8 1.8-6.7 1-10.1-1.2 1.2 2.8.2 3.6-1.8 3.7-.7 0-1.5.1-2.1.7 5 .6 5 .6 6.3 3.9 2.1-3.4 5.2-2.4 8.6-1.8-3.3-2.4-3.3-2.4-.9-5.3z"/><path class="st2" d="M579.1 272.3c-2.5 1.2-3.8.9-5.1-1.3 1.1-.5 1.6 1 2.7.8.8-.1 1.5-.2 1.6-1.2.1-.8-.3-1.3-1.1-1.3-1.8-.1-3.1-.8-2.9-2.9.2-1.3 1.1-2 2.4-2 2 0 3.2.9 3.2 3-.6 1.6 0 3.3-.8 4.9zm-.4-5.3c0-.8-.5-1.3-1.5-1.4-.8-.1-1.6 0-1.7 1-.1 1.1.7 1.4 1.6 1.5.8.3 1.5.2 1.6-1.1zm7.5-1.5c.8 1 .9 1.9-.1 3-1.4 1.6-2.6 3.4-3.8 5.1-.4-.2-.9-.2-.8-.8.8-1 1.6-1.9 2.3-2.9.6-.9 2.1-1.9 1.6-2.9-.6-1.1-2.2-.6-3.4-.7-.1-.8 0-1.3 1-1.2 1 .2 2.1.3 3.2.4zm-19.4 6c1.1-1.5 2-3 3.2-4.4 1.2-1.5 1.1-2.3-1-2.4-.6 0-1.8.5-1.7-.8.1-.9 1.1-.3 1.7-.2 1.1.1 2.5-.1 3.1 1.2.6 1.3-.6 2-1.2 2.7-1.1 1.5-1.9 3.4-3.5 4.4-.3-.1-.5-.3-.6-.5z"/><path class="st4" d="M581.9 266.3c1.2.1 2.9-.4 3.4.7.5 1-1 1.9-1.6 2.9-.7 1-1.5 1.9-2.3 2.9-.9.1-1.6-.1-2.4-.5.8-1.5.2-3.3.8-4.8 1-.1 1.4-.8 2.1-1.2z"/><path class="st2" d="M565.1 266.3c-.2 1.5-.3 3-.5 4.5 0 .3-.1.7-.5.7-.6 0-.6-.4-.6-.9.2-2 .3-4 .5-6 .1-.5-.1-1.4.7-1.3.9.1.4.9.4 1.4.1.6.1 1.1 0 1.6zm25.1 2.5c-.3 1.8-.6 3.5-.9 5.3-.2 0-.5 0-.7-.1-.3-2.8.3-5.5.6-8.2 2.2.5.4 2.1 1 3zm-54.9 85.6l4.8 3.3c-1.2.7-1.8-.5-2.6-.5-1-.6-1.9-1.2-2.9-1.8-.3-.2-.9-.4-.4-.9.2-.1.7 0 1.1-.1zm7.6 2.6c-1.7.7-2.7-.8-4-1.3-1-.4-1.9-.9-2.8-1.4 1.1-.9 2-.2 2.9.3l3.9 2.4zm10 9.2c-.4-.6-.2-1.1.4-.8 1.9 1 4.1 1.5 5.4 3.5-2.3-.2-3.8-2.1-5.8-2.7zm7.7 1.8c-2.2-.8-4.1-2-6-3.4.8-.6 1.3-.1 1.8 0 1.3.8 2.5 1.5 3.8 2.3.4.3 1.1.5.4 1.1z"/><path class="st4" d="M621.3 268.8c-2.1.7-3.5.6-5.6.1 2.1-.8 3.5-.7 5.6-.1zM591.2 292c.9.8 1.3 1.6.8 2.5-.1.1-.5.2-.6.1-.8-.6-.7-1.5-.2-2.6z"/><path class="st3" d="M385.2 297.3c1.3.7 3.4-.6 4.1.9.6 1.3-.9 2.5-1.5 3.7-.6 1.4-.8 3-1.2 4.6-.2.8.5 2.3-.7 2.4-1.6.2-3.3-.2-4.9-.5-.5-.1-.4-.7-.3-1.1.5-3 1.4-6 2.5-8.9.3-.9.9-1.5 2-1.1z"/><path class="st2" d="M324.1 264.8c1.5-3.2 1.5-3.2-1.1-6 2.8.5 5.4.8 6.3-2.8-.2 3.5 1.5 4.2 4.4 4.1-2.6 1.2-4.5 2.6-2.9 5.6-.9.2-1.2-.3-1.4-.6-1.1-1.5-2.4-1.6-3.9-.5-.4.1-.9.4-1.4.2z"/><path class="st3" d="M130.5 232v.2c.4 1.5 2.6 2.7 1 4.6-.5.6-6.8.2-7.6-.4-.7-.5-.6-1.2-.2-1.8.7-.9.7-2 .9-3.1.7.8 1.5.8 2.4.7 1.2-.1 2.3-.1 3.5-.2z"/><path class="st2" d="M272.6 257.6c-.1-1.8.6-3.4.9-5 .2-.9.9-.9 1.6-.7.9.2 1.9 0 2.3 1.1.3.7 0 1.3-.6 1.8-.3.2-.6.3-.8.6-.6.8 1 2-.1 2.4-1.4.5-.4-1.5-1.4-1.8-1.6-.6-.8 1.3-1.9 1.6zm18.8 2.4c.4-1.9.6-3.6 1.1-5.1.6-1.7 2-.7 3-.5 1.1.2 1.5 1.4.7 2.1-1.2 1-1 2.3-.9 3.6-.4-.1-.7-.2-.8-.3-.6-.7 0-2.2-1.2-2.2-.9.1-.3 1.8-1.9 2.4zm-41.2-11.3c.1 2-.3 3.6-1.1 5s-2.2 1-3.3.4c-1.1-.5-1.2-1.2-.3-2.2.7-.9.3-2.4 1.4-3.5.6 1.4-.3 2.3-.3 3.3 0 .7-.5 1.6.6 1.8 1 .2 1.2-.5 1.5-1.3.4-1 .2-2.3 1.5-3.5zm57.4 7c-.6 1.1-1.2.7-1.8.7-.4 0-.8-.1-1.2 0-.5.1-.6.9-.5.9 2.5.2-2.8 3.5 1.2 3.1.5 0 1-.1 1.4.5-1.5.8-3.6.7-4.1-.2-.8-1.4 0-3.6.9-4.9.9-1.4 2.5.1 4.1-.1zm-18.4-2c1.1 0 2 .2 2.1 1.6 0 2.4-1.1 4.2-2.6 4.2-1.1 0-2.2-.3-2.2-1.8 0-2.6 1-4.1 2.7-4zm.9 2.5c.1-.8.2-1.5-.7-1.6-1.8-.1-1.4 1.5-1.8 2.4-.3.7-.2 1.5.7 1.5 1.7.2 1.4-1.4 1.8-2.3zm126.6 46.2c-.6-.1-1.1-.3-1.7-.3-.4 0-.9.1-.9.6-.1.5.4.7.8.7 1 .1 2 .4 1.6 1.6-.5 1.3-1.8 1.4-3 1.1-1.2-.3-1.1-1.2-.9-2.2.6-2.4 1.5-2.8 4.1-1.5zm-10.1 1.1c-1.2.1-1.1 2-2.5 1.9-.9-.1-1.8.3-2.3-.8.6-.6 1.1.1 1.6.1.6-.1 1.3 0 1.4-.7.1-.7-.6-.6-1-.7-.7-.2-1.6-.2-1.5-1.3.1-1 1.1-1.2 1.9-1.2.9 0 1.9-.2 2.2 1.1.1.5-.7 1.2.2 1.6zm-137.7-45.9c-1.2-1.5-2.1-2.8-3.6-.3-.1-.3-.1-.6-.2-1 .7-1.5 1.5-3 2.2-4.5.2-.4.4-.7.9-.7.6.1.6.5.6.9.1 1.8.1 3.4.1 5.6zm-15-3.2c.7-.6 1.1.2 1.6.2s1.1 0 1.3-.5c.2-.6-.2-.9-.8-1-1.1-.2-1.6-.8-1.5-1.9.1-.7.6-1.2 1.3-1.3 1.1-.2 2.2-.2 2.7 1-.6.7-1 0-1.5-.1-.6-.1-1.2-.3-1.5.5-.2.6.4.8.9 1 .9.2 1.5.6 1.4 1.7-.1.9-.5 1.5-1.3 1.6-1.1.1-2.2.1-2.6-1.2zm47.9 1.9c-1.9-.9-3-.9-3.6 1.4-.8 3.1 2.2.7 2.5 2.3-.9 1-2.1 1-3.2.1-.8-.6-.2-4.2.8-4.8 1.4-.8 2.7-.8 3.5 1zm-15.6-2.9c-.5 1.1-1.1.6-1.6.6-1.5-.2-2.5-.1-1 1.5.3.4.3.5-.1.7-1 .3-1.5 1-1.6 2-.1.5-.7.5-1 .3-.2-.1-.3-.7-.2-.9 1-1.1.7-2.6 1.3-3.7 1.1-2.2 2.6-.3 4.2-.5zm120.4 50.2c1.7-.3 2.6-2 4.4-2.3.5.9-.6 1.9 0 2.8-.7-.1 0 3.4-1.9.7-.4-.7-1.9-.2-2.5-1.2 0-.1 0 0 0 0zM114.5 234c2.2-1.5 3.8-2.6 5.5-3.8.1 3.8.1 3.8-5.5 3.8zm16-2c-1.1.1-2.3.1-3.4.3-1 .2-1.8.1-2.4-.7-.2-.4-.3-.8-.6-1.5 2.1 1 4.5.2 6.4 1.9zm141.8 19c-.1 2.6-.7 4.3-1.2 6-.1.2-.3.7-.7.4-.2-.1-.5-.5-.4-.5 1.1-1.5.8-3.7 2.3-5.9zm43.3 9.3c2-.4 3.9.1 6 .4-1.4 1.3-1.4 1.3-6-.4zm6.5-1.2c-2.1.3-4.2.3-6.2-.6 2.1-.7 4.2-.1 6.2.6z"/><path class="st3" d="M513.6 354.3c.9 0 1.7.3 1.7 1.4 0 1.1-.8 1.2-1.6 1.1-1-.1-1.8-.7-1.8-1.8.1-.9 1.1-.6 1.7-.7z"/><path class="st2" d="M334.5 262.5c1.9-.5 3.7-.3 5.5.5-1.9.4-3.7.3-5.5-.5z"/><path class="st3" d="M443 263.8c1.4.6 2.4 1.1 3.3 1.5.4.2.7.6.5 1-.2.5-.7.4-1 .2-1.1-.6-2.4-.9-2.8-2.7zm34.1 80.4c-.1 1.1-.7 1.8-1.7 2-.5.1-.8-.3-.6-.8.3-.8.2-1.9 1.4-2 .7-.1.8.4.9.8z"/><path class="st2" d="M334.3 260.5c2.4-.6 4.2.1 5.9.7-1.8.1-3.7.4-5.9-.7zm-10.2 4.2c0 .1 0 .2-.1.3v-.1s.1-.1.1-.2c0 .1 0 0 0 0z"/><path class="st3" d="M450.9 225.6c1.6-.4 3.3.2 4.9 1 .7.3 1.2.6 1 1.4-.1.7-.6.9-1.2 1-3 .4-5.9-.5-8.9-.6-.6 0-.8-.6-.7-1.1.1-.8.4-1.7 1.4-1.8 1 .1 2.1.1 3.5.1zm9.8 4c-1.1-.2-2.9.2-2.9-1.3 0-1.7 1.5-2.3 3.3-2.2 1.3.1 2.8.1 2.7 1.8-.1 1.6-1.5 2-3.1 1.7zm184.5 91.6c-.8.1-1.4-.7-1.4-1.9 0-1.8 1.6-1.2 2.4-1.3 1.7-.3.1 1.7 1.2 2.3.3.1-.9.8-2.2.9zm-17.2 3.9c.9 0 1.8.2 2.6 1.4-1.2-.3-2.3 0-2.6-1.4.1 0 0 0 0 0zm21.9-8.8c-.2.1-.5.2-.8.2-.3 0-.7-.1-.6-.5.1-.2.5-.3.8-.4.3 0 .6.1.6.7zm-10 3.4c-.1.1-.3.2-.4.1-.1 0-.1-.3-.2-.4.1-.1.3-.2.4-.1.1.1.2.3.2.4z"/><path class="st2" d="M225.1 280.7c1.3 1.3 2.9 2.1 4.4 2.9.2 1.3-.2 1.6-1.2.8-1.2-1-2.7-1.3-4.2-1.5.1-.6.1-1.2.2-1.9.2-.1.5-.2.8-.3zm328.1 77.7c-2.4 2.9-2.4 2.9.9 5.4-3.4-.6-6.5-1.6-8.6 1.8-1.3-3.3-1.3-3.3-6.3-3.9.6-.7 1.4-.7 2.1-.7 2-.1 3-.8 1.8-3.7 3.4 2.1 6.3 2.9 10.1 1.1z"/><path class="st4" d="M578.7 267c-.1 1.3-.8 1.3-1.7 1.2-.9-.2-1.7-.4-1.6-1.5.1-1 .9-1.1 1.7-1 1.1.1 1.6.5 1.6 1.3zm-288.6-10.8c-.4.9 0 2.5-1.8 2.4-.9-.1-1-.8-.7-1.5.4-.9-.1-2.6 1.8-2.4.9 0 .8.7.7 1.5z"/><g opacity=".67"><path class="st6" d="M131.7 227.5c8.4.1 16.7 1.3 25 2.2 11.3 1.2 22.7 2.3 33.9 4.1 10.5 1.7 21.1 2.8 31.6 4.1 1.8.2 3.7-.1 5.4.7 4.5.9 9 2.1 13 4.4 1.3.7 2.6.5 3.5-.8.5-.7 1.2-1.1 2-1.5 12.2 1.4 24.5 2.8 36.7 4.2 19.7 2.3 39.4 4.6 59.2 6.9 6.2.7 12.5 1.2 18.7 2.2 4.2.7 8.2-.2 12.2-.3 1.7 0 3.3 0 4.8 1.1.4.3.9.4 1.4.4 12 1.1 23.8 3.1 35.8 4.5 7.7.9 15.5 1.7 23.2 2.7 1.5.2 3.1.2 3.2 2.3.1.9 1 1 1.7 1.2 1.7.3 3.1.8 3.1 2.9 0 2.1-1.6 4.1-3.7 4.5-1.5.3-3 0-4.5.3-1.7.3-3.2 1.5-5.1.7-7-3-14.6-1.7-21.9-3.1-2.3-.4-4.6-1-6.9-1.2-4-.4-7.9-1.9-12-.9-2.4.6-4.9.3-7.4-.5-2.6-.9-5.2-2.4-8.2-.9-1 .5-2.3.1-3.5-.1-4.2-.7-8.3-1.5-12.5-2.5-3.4-.9-6.9-1.2-10.4-1.2-3.3.1-6.4-.9-9.5-1.6-1.7-2-4.1-.9-6.2-1.3-.2 0-.5-.1-.7-.1-1.7-.6-4.2.2-4.7-3.2-1.4 2.7-3.6 1.8-5.4 2.1-.4.2-.9.3-1.4.2-.2-.1-.4-.2-.6-.4-1.5-.9-3.1-1.1-4.8-.4-.1.3-.3.6-.5.9-.3.3-.6.4-1 .4-.8 0-1.7-.2-2.5-.3-1.3-.2-1.8.7-2.1 1.7-.3 1.2.6 1.4 1.5 1.5 1.8.2 2.8.8 2.4 2.9-.2 1.2.8 1.3 1.5.8 2.1-1.3 4-.8 5.9.3 1.3.7 2.4.6 3.8 0 2.4-1.1 3.5-.3 3.7 2.4.1 1.2.1 2.3.3 3.6.2-1 .5-2 1.3-2.6 1-.8 2.1-.6 3.1-.3 1.5.4 3 0 4.4-.5 1.3-.5 2.6-.5 3.8.5 1 .9 2.2 1.1 3.5.9 1-.2 2-.3 2.7.7.2.3.5.6.8.4 3.8-1.4 7.7.7 11.6-.8 1.6-.6 3.6-.6 5.4.3.9.4 1.8.4 2.7 0 1.9-.9 3.8-.1 5.7-.4 1.1-.2 1.6.9 1.8 1.8.4 1.7 1.5 2.1 3.2 2.1 4.7 0 9.3.4 13.9 1.8 2.2.7 4.8.1 6.9 1.7.5.3 1.1 0 1.7-.1 2.6-.6 5.3-.8 8-.1.7.2 1.5.4 2.2.2 4.3-1.1 8.3.3 12.4 1.1 1.5.3 3 .5 4.3-.5.5-.4 1.3-.8 1.8-.2 2 2.5 5.1 2.3 7.6 3.5.7.4 1.6.6 2.3 1 .8.4 1.6.6 2.4.1 1.7-1 3.5-.9 5.4-.6 3.3.6 6.8.2 9.9 1.2 3.1 1 6.1 1.2 9.2.9.6-.1 1.2-.1 1.8.1 4.9 1.6 10 .8 14.9 2 6.7 1.7 13.6 1.4 20.4 1.9 2.5.2 5 .7 7.4 1.2 1 .2 2 .4 2.2 1.7-1.8 2.8-4.1 5-7.2 6.2-4.7-.7-9.4-1-14-1.8-3-.5-5.8-1.3-8.9-.5-.6.2-1.3 0-2-.1-.3-.1-.5-.2-.8-.3-2.8-1.2-5.7-.4-8.6-.6-.5 0-1.1.1-1.6 0-3.1-1.1-6.6-1-9.2-3.3-.3-.3-.6-.4-.9-.1-1.9 2.4-4.4 1-6.6.8-3.2-.4-6.3-.2-9.5-.4-.9 0-2.1.2-2.6-.7-1.1-2.1-2.4-1.2-4-1-2.6.3-5.2.9-7.9 0-1.9-.7-4.2-.5-6.2 0-3.5 1-6.9 1.1-10.4-.1-1.3-.5-2.6-.4-4-.3-3.5.4-6.8-.2-10.1-1.3-2.2-.7-4.3-.3-6.4 0-.4.1-.7.2-1.1.2-5.7.6-11.2-1.3-16.9-.8-2.1.2-4.2.3-6.2.2-.9 0-1.7-.4-2-1.3-.3-.8.5-.9.9-1.2-1.2.1-2.4.5-3.5.2-2.3-.6-3.4.2-3.5 2.6-1.2.7-2.3.5-3.2-.5-1.6-2.4-4.4-2.7-6.8-3.6-.2-.1-.5-.1-.7-.2-2.3-.5-4 1.5-6.2 1.6-2 0-3.8.8-5-1.8-.6-1.3-2.5-.9-3.7-.6-2.7.6-5.1.9-7.8-.2-1.5-.6-3.8-.1-5.5.7-1.4.6-2.4.4-3.5-.4-1.6-1.1-3.3-1.3-5.3-1.1-3.9.4-7.9.2-11.8.1-3.5-.1-7-.6-10.4-1.5-2.3-.6-4.6-1.2-6.1-3.2-.4-.5-.7-.6-1.3-.3-3.5 1.6-7.4 1-11.1 1.7-1 .2-2-.1-3-.4-4-1.4-8.1-1.8-12.4-1.6-1.5.1-3 0-4.5-.4-1.9-.6-3.3-1.6-3.6-3.7-.1-.8-.2-1.6-1.4-1-2.9 1.7-6.1 1.8-9.3 1.6-3.5-.3-7 .5-10.5.4-4.7-.2-9.1-1.8-13.4-3.2-5.3-1.7-10.5-2-15.9-2.1-5.1-.1-10.2-.1-15.1-1.8-3.2-1.1-6.5-1.6-9.9-1.8-1.3-.1-2.4-.6-3.4-1.4-1.9-1.3-3.9-1.9-6.1-1.1-1.6.6-3.2.4-4.7-.1-7.7-2.9-15.9-4.1-24-5.3-9.4-1.4-18.8-3.2-28.2-4.4-10.6-1.3-21-3.2-31.3-5.4-2.3-.5-4.9-.5-6.8-2.2 0-1.5 1.1-1.3 2-1.1 4.6 1 9.4.8 14 2.2 2.3.7 4.8.7 7.1 1.2 1.7.3 2.8-.6 3.7-2 .3-.5.5-1.4 1.4-1.2.9.3.7 1.2.7 1.9 0 .5-.2 1 .4 1.6 1.2-1 2.5-2 3.4.4.2.5 1 .4 1.6.4 5-.1 9.9 1.2 15 1.4 2 .1 4 .5 5.9-.3 1.2-.5 1.6-1.3.4-2.2-1.3-1.1-2.6-2-4.5-1.1-1.5.7-3.1.5-4.7.4-1.2-.1-2.2-.7-1.9-2 .3-1.2.9-2.7 2.5-2.1 1.5.6 2.2.1 2.9-.9.7-1 1.8-1.1 2.8-1.5 1.7-.7 1.9-1.5.5-2.7-1.6-1.4-.9-3-.5-4.7 0-.5 0-1 .1-1.5.2-.7.7-1 1.5-1 2.2 1.5 4.6.6 6.9.7.5-.1 1.1-.1 1.2-.7.1-.6-.5-.8-1-.9-1.5-.5-3-.9-4.6-2 2.4-.8 4-.6 5.6-.4z"/><path class="st7" d="M507.8 298.5c2.2-1.8 4.4-3.7 6.5-5.5.9-2 2.8-3.1 4.4-4.4 1.6-1.3 3.2-2.5 4.5-4 2.3-2.8 6-4 8.2-6.9.8-1.1 1.6-1.8 0-2.7-.3-.2-.5-.5-.6-.8-.3-.9 1.2-2-.3-2.6-2.4-.9-4-3.2-7-3-4.5.3-9 .8-13.5.3-1.9-.2-3.6-.9-5.3-1.3-3.8-.9-7.9-.1-11.5-2.2-.4-.2-.8-.2-1.2 0-2.7 1.2-5.1.2-7.4-1-2-1-4-1.7-6.2-.5-1 .5-1.8.2-2.3-.7-.5-.9-1.2-1.5-2.4-1.6-4.8-.3-9.5-1.7-14.4-1.7-1 0-1.8-.5-2.4-1.2-1-1.4-2.4-1.6-4-1.6-2.3.1-4.7-.2-7-.3-3.4-.1-6.6.6-9.3 2.9-1.7 1.5-3.9 1.2-5.8 1.1-6.4-.3-12.7-1.5-18.7-4-.7-.3-1.5-.7-2.2-.3-2.8 1.7-5.9.4-8.9 1-1.7.3-3.2-.9-4.7-1.6-1.8-.9-3.5-2-5.6-1.9-.7 0-1.5-.3-1.5-1.3 1.8-1 4-.3 5.9-1.1 1.7-1.4 3.7-1.2 5.7-1.2 1.5 2.2 3.1.3 4.6.1 1.9-.3 3.7.2 5.5.4 4.5.6 9 .4 13.4 1.2 1.1.7 2 2.1 3.6 1.3 8.7-.5 17.4-.3 26.1-.2 8 .1 15.6 1.8 23.4 2.9 4.7.7 9.5.4 14.2 1.3 5.5 1 11.1 1.4 16.6 2.6 4.1.9 8.3.7 12.5 1.3 3.3.5 6.6.9 9.9 1.7 3.9.9 7.8 1.8 7.2 7.8 3.9-3.7 7.9-6 11.3-9.3 1.9-1.8 3.9-3.4 5.8-5.2 1-1 2.3-1.5 3.7-1.2 2.2.4 4.3-1 6.4 0 .2.1.4.3.6.4.6 1.5 1.5 1.4 2.4.3.3-.2.7-.3 1.1-.3.9 0 1.7.1 2.4.7 1.2 2.3 2.4.5 3.6 0 2.2.4 4.6-.4 6.6 1.1.4 3-.4 5.7-2.9 7.6-.2.1-.5.1-.7 0-1.3-2.5-3.5-3.5-6.4-3.7 1.2 1.5 2.9 2.4 2.9 4.4 0 1.6-.5 1.8-2.1 1-.8-1.5-2.2-1.9-4-1.9.7.6 1.4.4 2 .8 1.1.7.4 1.4 0 2.1-.4.7-.8 1.2-1.6 1.5-1.7-.7-3.4-1.3-3.7-3.5 0-.1-.1-.1-.1-.2-.1-.2-.3-.3-.3-.1-.4 1.7-.8 3.4-.5 5.3.5-.7.5-1.6 1.3-2.1 1.3-.5 2.2 0 2.7 1.3.1.6-.4 1-.4 1.7 1.5-.9 1.8-3 3.6-3.6 1.2-.1 2.2.7 3.3 1 .2.1.4.3.5.5.4.8 0 1.5-.5 2.1-.4.6.3 1.5-.3 2.1-2.4 1-4.4 3.1-7.3 3.1-1.3 0-2 2.2-.9 3.1 1.5 1.3 2.4 3 4 4.1 1.3.8 2.5 2 1.3 3.5-1 1.2-2.7 1.5-4.1.4-1.1-.9-2.3-.9-3.5-.7-1.3.2-2.2.8-2 2.3.2 1.3.6 2.2 2.3 1.6 1.2-.4 1.6.6 1.6 1.6s-.1 2 .1 3c.3 1.6 1.2 1.8 2.7 1.3-.7-1.3-2-2.6.1-3.6 1.5-.7 3.6-.1 4 1.5 1.1 4.9 5.2 4.2 8.5 4.7 1.6.2 3.3-.2 5-.3 2.2-.2 2.5-.8 1.3-2.6-1.6-2.4-1.4-3.1 1.1-4.4 2.6-1.4 2.7 1.1 3.6 2.3 1-.5 1-1.3 1-2 .1-4.1 1.1-8.1.3-12.3-.4-2.1.8-3.7 1.9-5.3.4-.6 1-1 1.7-.7.8.3.7 1 .8 1.7.7 4.2-.7 8.3-.9 12.4-.2 3.1-.3 6 1.7 8.6.8 1.1.4 1.9-.5 2.8-1.3 1.4-1 2.1.9 2.4 3.8.6 7.7.3 11.5.3 1.6 0 3.5-3.8 3.1-6.1-.3-1.5-.5-3-.3-4.5.2-1.2.4-2.5 1.9-2.6 1.6-.1 2.4 1 2.8 2.4.1.4.1.8.1 1.2-.3 2.2.9 2.9 2.9 3 4.7.4 9.4 1.1 14.1 2.2 4.4 1 8.9 1.4 13.4 1.5 2.3.1 4.5.6 6.7.9 2.4.4 4.8 1 7.2.9.3 0 .7 0 1 .1 1.6.7 4.3 1.2 4.1 2.6-.1 1.3-1.9 3.6-3.7 3.8-3.5.5-5.8 2.8-8.8 4.2-1.2.6-2.2 1-3.5.1-1-.7-2.2-.6-3.1.1-1.6 1.1-3.1.8-4.8.4-3.7-.9-4.1-.7-6.2 2.3-.8 1.1-1.9 1.3-3.1 1.3-1.7-.1-2.6.6-2.9 2.4-.4 1.9-4.5 3.7-6.3 2.7-.6-.3-1.1-.9-1.8-.6-1.7.8-3.3 1.1-4.9-.3-.6-.5-1.2.1-1.8.5-.7.5-1.4.9-2.1 1.3-.7.4-1.6.8-1.4 1.8.2 1 1.1 1.2 1.9 1.5 1.7.5 3.5.5 5.1-.3 1.5-.8 2.4-.3 2.6 1.4.2 1.4 1.2 2.7.3 4.3-.5 1 .7.9 1.2.9 1.3.1 2.5-.4 3.7-.4.9 0 2.1-.3 2.4 1.1-6.8 1-13.6 2.3-20.4 2.9-3.2.3-2.4 2.6-2.4 3.7 0 4.8-1.3 9.4-2.3 13.9-.3 1.4-.1 2.1 1.3 2.6 2.6 1 5.1 2.1 7.7 3.1 1.2.5 1.4.9.5 1.9-4.7 5.2-9.4 10.4-14 15.7-1 .3-1.7-.1-2-.9-.6-1.5.9-2.1 1.8-3.1-1.6-.5-2.8-.7-3.5 1-.6 1.5-1.9 1.3-3 .9-2.2-.8-4.5-.7-6.7-1.1-2.9-.4-4 .5-4.2 3.4-.1 1.2-.5 2.1-1.4 2.8-.8.7-1.4 1.6-1.7 2.7-.5 1.7-1.6 2.1-3 1-1.2-1-2.5-1.9-3.9-2.6-1.7-.7-1.5-2.2.3-3.2 1.6-.9 3.4-1.5 4.8-2.7.6-.5 1.2-.9 1.5-1.7.2-.6.3-1.2-.1-1.7s-.9-.2-1.4-.1c-1.6.6-2.3.3-2.4-1.5-.1-1.4-1.2-1.7-2.4-1.5-1.5.3-2.8.9-3.5 2.3-1 1.8-2.9 2.9-3.4 4.9-.1.5-.6.8-1.2.8-1.3.1-2 .9-2.8 1.9-1.3 1.9-1.9 1.9-3.4.3-.5-.5-1-.8-1.6-1.1-1.5-.7-2.2-2-1.7-3.5.5-1.5 1.8-.6 2.8-.5.3 0 .7.1 1-.1.1-.9-.8-.9-1.3-1.3-.6-.4-1.2-.7-.9-1.5.3-.7.9-1 1.6-1 .3 0 .7.1 1 0 .8-.4 1.6-.8 1.4-1.8-.3-1.3-1.2-.3-1.9-.5-.8-.1-1.4-.4-1.9-1.1-.4-.7-.8-1.5-.9-2.3-.1-.5-.2-1-.5-1.4-3.8-3.2-7.6-6.2-13.1-4.8-.8 0-1.4-.4-1.9-.9-1-1.2-2-2.6-3.9-2.3h-1.1c-1.5-.1-2.8.1-3.8 1.6-1.5 2.2-4.9 1.6-5.7-1.2-.9-3-2.9-4.2-5.5-5.2-.6-.2-1.1-.5-1.4-1-.4-.7-.5-1.4-.1-2.1.4-.7 1-.5 1.6-.4 2.5.5 5 .4 7.4-.4 1-.3 2-.1 3 .1 6.3 1.3 12.8 1.1 19.2 1.2 1.9 0 3-1.9 4.9-1.6.3 0-.1.1.2 0 .5-.2 0-.3-.1-.4-3.7-1.3-7-3.8-11.2-3.8-.4 0-.8-.2-1.2-.3-.7-.2-1.6-.4-1.6-1.3.1-.9 1-1.1 1.7-1.1 2.9-.2 5-2 7.5-3.1.8-.2 1.7.4 2.4-.4 2.3-3 5.3-2.2 8.2-1.5 1.3.3 2.4.3 3.8-.5-.8-.5-1.9-.8-1.6-2.1.3-1.1 1.2-1.5 2.2-1.8 1-.3 2-.4 3-.5 2.3-.1 3.5 1.3 2.7 3.5-.7 1.9-.2 2.7 1.6 3 1.5.3 3 .5 4.3 1.3.8.5 1.6.1 2.4-.2 1.7-.7 2.7-.1 2.6 1.7-.1 2.2.8 2.5 2.7 2.4 3.2-.1 6.4.3 9.4 1.3 2.2.7 4.4.9 6.7 1.2 2.1.3 3.8-1 3.5-3.1-.6-3.9.8-7.6 1.3-11.3.3-1.7.1-2.5-1.8-2.5-4.7 0-9-1.9-13.5-2.5-1.5-.2-3-.7-4.4-.8-3.6-.1-6.5-2.7-10.1-2.7-7.2 0-14-3-21.3-2.3-2.6-.3-5.1-1.3-7.8-.7-.9.1-1.6-.3-2.3-.8-4.9-.4-9.5-2-14.4-2.3-5.3-.3-10.5-1.6-15.8-1.8-2.1-.1-3.7-.6-5.2-1.9-.4-.3-.8-.7-.6-1.2.5-.5 1.1-.6 1.6-.3 4 1.7 8.3.7 12.3 1.6 5.9 1.2 12.3.1 17.9 3.1.5.3 1.1.4 1.7.3 7.8-.8 15.4 1.7 23.2 1.9 3.2.1 6.3.9 9.5 1 2.7 0 5.3.5 7.8 1.7 2.7 1.2 5.8.2 8.7 1.2 2.8.9 5.4.8 7.8-1.2.9-.8 2.2-.8 2.9-.6-1.6.1-3.6-.1-5.5-1.1-1.1-.5-2.1 0-3.2.3-2.2.6-4.3.7-6.4-.3-.4-3.1.6-5.5 2.7-6.1 1.5-.5 2.9-.5 3.5 1.3.3.9.7 1 1.4.7 3.2-1.2 6-1.6 8.2 2.2 1 1.8 3.1 2.2 5.1.9.2-.1.5-.3.7-.2 3.3.5 5.6-1.5 8.1-3.2 1.4-.9 2.6-1.7 2.8-3.5.1-1.1.6-2.3 2.2-1.4.4.4.3 1.2 1 1.3.7.1.5-.7.8-1 1-.9 1.7-.5 2.4.4.2.3.2.8.4.8.5-.1.7-.6.7-1.1-.6-1.3-1.9-.6-2.8-.8-.8-.2-1.9 0-1.6-1.4 1-1.1 2.3-.8 3.5-.9 1.5.2 3 .5 4.5.7 1.9.7 3.9.1 5.8.8.7.3 1.7.2 2 1.2 0 .3 0 .5-.2.7-1.5 1-3.2.4-4.6.6 1.3 2.9 3.4.9 5.5 1 3.4.1 6.6-.4 9.9-.8 1.1-.1 2.1-.3 3.1-.8.2-.1.5-.1.7-.2 1.3-.2 2.7 0 4.2-.3-.8-1.2-2.5-1.9-1.5-3.7.3-.6-.7-.8-1.2-1-1.3-.5-2.6-.4-4-.5-4.3-.3-8.6-.9-12.9-.9-1.2 0-2.3-.2-3.4-.6-.3-.1-.7-.3-1-.5-3.5-.5-7-1.4-10.6-1.4-.9 0-1.9-.1-2.6.6-.2.2-.3.4-.5.6-1.2 1.1-.8 2.4-.5 3.7 1 3.6-.1 4.7-3.7 3.9-1.7-.4-3.3-.4-4.6 1-1 1.1-2 1-2.8-.4-.5-.8-1.2-1.1-2-1.4-5.4-1.5-10.9-1.5-16.4-.9-1.2.1-2.4.3-3.4-.3-2.4-1.5-4.9-.4-7.4-.7-.5-.1-.7.3-.7.8 0 1.3-.4 2.5-.3 3.7.3 3.1 1.1 3.7 4.1 2.8 2.6-.8 4.7.9 4.8 4-3.2 1.3-6.4.2-9.6-.3-.7-.1-1.2-.7-1.3-1.4-.4-2.4-1.6-4.6-1-7-.3 1.9-.8 3.9-.2 6 .4 1.3-.6 2-1.9 2-1.3 0-2.7-.1-3.9-.7-1.7-.8-3.6-1-5.4-1-5.7-.1-11.3-1.1-16.9-2.1-5.3-1-10.8-.9-16-2.3-2-.5-4 .4-6 .1-2.8-.4-5.7-.9-8.3-1.9-2.8-1-5.6-.6-8.5-.5.4.9 1.9.6 1.7 1.8-1.1.9-2.3.6-3.5.3-.9-.3-1.8-.7-2.9-.6-.4 0-.8-.1-1.2-.2-.7-.2-1.2-.7-1.4-1.4-.2-.5-.1-1 .1-1.5 2.1-2.3 4.8-3.9 7-6.2-.6-.3-.3-.3 0-.5z"/><path class="st8" d="M536 230.2c14.2-11 28.4-22.1 42.6-33.1 1.1-.8 2.1-1.1 3.5-1 16.2.9 32.3 2.8 48.4 5 1.3.2 1.8.7 2.1 2 2.5 11 5.1 22 7.8 32.9.5 2.2-.7 2.4-2.1 2.8-1.4 1.9-3.7 2-5.6 3-4.3 2.2-8.8 2.8-13.6 1.8-1.5-.3-3-.1-4.5-.2-.6 0-1.3-.1-1.7.2-2.6 2-5.3 1-7.9.3-2.5-.7-5.1-.9-7.7-.8-2.4.2-4.7-.9-7.2-.9-4 0-8-1.6-11.9-1.3-5.7.4-10.9-2-16.5-2.1-5.8-.1-11.5-2.2-17.4-1.1-.7.1-1.3-.1-1.9-.4-3-1.6-6.4-1.8-9.6-2.6-1.2-.5-1.3-1.2-.5-2.1.9-1.2 2.2-2 3.7-2.4z"/><path class="st9" d="M389.1 252.3c.5.3 1.1.9 1.5.8 2.2-.6 3.6.7 5.3 1.5 2.3 1.1 4.4 2.6 7.3 1.7 2.1-.6 4.6.8 6.6-1 .3-.3 1.2-.1 1.7.1 5.9 3.2 12.5 3.9 19 4.4 2 .2 4.4.6 6.6-1.9 1.6-1.8 5.5-2.7 8.7-2.1 2.8.5 5.7.4 8.5.4 1.1 0 2 .1 2.6 1.4.6 1.2 1.6 1.8 3.3 1.4 2.2-.5 4.3.7 6.5.8 2.6.1 5.1.9 7.7.9.6 0 1.5-.2 1.6.5.4 3.2 2 1.8 3.7 1.2 2.2-.7 4 .7 5.9 1.6 2 .9 3.9 1.9 6.1.5.7-.4 1.8-.5 2.4.1 1.6 1.6 3.6 1.2 5.5 1.4 2.7.4 5.4.8 8 1.5 3.6.9 7.4 1.2 11 .6 2.4-.4 4.8-.2 7.3-.3.6 0 1.2.2 1.6.7 1.1 1.3 2.5 1.9 4 2.4 1 .4 2.5 1 .4 2.2-1.2.7-.3 1 .5 1.4 2.1 1.1 1.9 1.4.3 3.1-3.3 3.7-7.8 5.9-11.2 9.7-1.9 2.1-4.4 4.1-7 5.6-.2-1.3-1.5-1.3-2.4-1.4-4.6-.7-9.1-1.9-13.8-1.1-.8.1-1.7-.1-2.5-.4-.6-.2-1.5-.7-1.9-.5-3.5 2.1-6.4-1-9.6-1.3-3.5-.3-7 .3-10.4-.8-2.6-.8-5.3-1.5-7.9-.9-2.2.5-3.9.2-6-.7-3.3-1.4-7-.6-10.5-1.3-2.3-.5-4.6-.9-6.5 1.1-.3.3-.8.2-1.1-.1-2.3-1.9-5.2-2.4-8-3.2-1-.3-2.2-.3-2.5-1.8-.3-1.2-1-.9-1.6-.2-1.1 1.3-2.4 1.1-3.9.9-4.3-.8-8.4-2.5-13-1.4-2.6.6-5.3-1.3-8.1-.5-.9.2-1.8.1-2.6.6-.9.6-1.7.4-2.5-.4-.6-.6-1.2-1.3-2.1-1.2-3.3.6-6.2-1.2-9.3-1.7-2.8-.4-5.6-.5-8.4-.3-2.2.1-3.5-.5-3.7-2.8-.1-1.3-.9-1-1.9-1.3-3-.9-5.8 2.4-8.9 0-.9-.7-3-.2-4.4.2-2.8.7-5.5 1.5-8.3 0-1.1-.6-1.8.7-2.7 1-.8.3-1.5.9-1.6-.7-.1-1.3-.9-1.1-1.8-.8-1.5.5-3.1.7-4.1-.6-1.1-1.5-2.2-1.2-3.5-.6-1.7.7-3.3 1.1-5.1.4-2.3-.9-3.1.3-3.1 2.4 0 .7.1 1.8-.8 1.9-1.2.1-.5-1.1-.8-1.7-.6-1.4-.4-3-.3-4.4.1-2.7-2.2-1.8-2.5-1.4-2.1 2.5-3.9.6-5.5-.2-1.5-.8-2.6-1-4.1.1-.7.6-1.8 1.3-2.7.5-.8-.7-.6-1.7-.1-2.6.8-1.3-.2-1.3-1.1-1.5-3.8-.5-3.7-.5-2.4-3.8.4-1 .9-1.4 1.8-1.1 1.1.4 2.4.1 3.3.9 1.8.3 3.5 1.1 5.4.6.4-.3.7-.8 1.2-1 .3-.2.5-.3.8-.5 2.6 1.2 2.9 1.9 1.9 4.8 2.4-.8 2.4-.8 4.8.6.3-3.2.8-3.8 4.1-4.4h.5c.2.2.4.5.5.8.1.3.1.6.2.9 1.4 1 2.9 1.3 4.5.6.2-.3.3-.5.5-.8.1-.1.2-.1.3-.2 2.4.7 4.9.5 7.3 1.4 1.8.7 4-.4 6.1.2 2.1.5 4.6-.1 6.4.7 2.7 1.2 5.6.8 8.1 1.9 2.6 1.1 5.3.6 7.9 1.4.2 0 .4.1.5 0 3.4-2.7 6.3.2 9.3 1 1.7.5 3.5.5 5.1.4 2.1-.1 4.1-.8 6.4-.4 1.1.2 2.4-.7 3.3.8.1.2.5.3.7.2 3.7-1.7 6.7 1.5 10.4 1.2 3.6-.3 7.4 1.3 11.1 1.2 4.1-.1 7.9.6 11.6 2.3.3.1.8.2.9.1 1.9-2 4.4-1.1 6.7-1.2 2.3-.2 4.2-2.4 3.8-4.7-.2-1-.9-1.4-1.8-1.4s-1.8-.2-2.7-.5c-.5-.2-1.2-.5-1-.9 1.5-3.2-1.2-1.9-2.3-2.1-11.3-1.4-22.7-2.5-33.9-4.1-6.4-.9-12.9-1.6-19.3-2.6-1.8-.3-3.5-.5-5.3-.5-2.2 0-4-2-6.3-2.4 5-.6 10.4-1.4 15.8-1.3zm170.6 114.1c.7-.2 1.1-1.3 1.9-.6.7.5 1 1.5.7 2.3-.4.9-1.2 1.6-2.3 1.8-.7.2-1.9-.9-2.1.4-.2 1.1 1.2.5 1.7 1 .6.7 1.8 1.1 1.3 2.2s-1.6.4-2.4.3c-.7-.1-1.9-1.4-2.2.1-.2.9.1 2.4 1.7 2.6.6.1 1.2-.1 1.5.6 1.4 3.5 2.1 1 3-.3.6-.9 1-2 2.5-1.4.4.2 1.1 0 1-.4-.2-2.6 2.7-3.2 3.4-5.3.6-1.8 2.7-2.4 4.6-2.7 1.9-.3 2.8 1 2.7 3.8.4-.2.8-.3 1.2-.4.9-.2 1.9-1.6 2.6-.3.7 1.2.8 2.8-.6 3.9-1.8 1.4-3.6 2.7-5.8 3.4-.7.2-1.6.5-1.5 1.4.1.8.9 1.2 1.7 1.1 1.4-.1 2 .9 2.7 1.9.4.6 1.1 1.1 1.9.9.8-.2.4-1.3.7-1.6 2-2.4 2.8-5.3 3.8-8.1.3-.8 1.3-1.3 2.4-1.1 2.6.4 5.3.2 7.9 1.1 1.2.4 2.6 1.4 2.9-1.2.2-1.5 3-1.4 5.5.2-1 .8-2.7.8-3 2.3-.2 1 1.1 1.1 1.7 1.5-.5.8-1.1 1.5-1.9 2.1-1.8.3-3.4.1-5.1-.6-1.1-.5-2.3-.9-3.6-.4 1.8 1.8 4.8 1.1 6.2 3.4-1 1.4-2.4 2.4-4 3.1-1.5-.9-3-1.7-4.6-2.5 1.2 1 3.2 1 3.7 2.9-2.5 1.6-5.2 2.6-8.1 3-1.9-.7-1.9-.7-1.9.5-5.4 1.4-10.7 1.3-16.1 0-6.6-1.6-12.9-3.9-19.4-6 .5-.9 1.6-.7 2.3-1.3-1.7-1.3-2.2 0-2.7 1.2-10.5-2.1-20.5-5.5-30.1-10.2-14.6-7.1-29.2-14.1-43.9-21.1-2-.9-4-1.6-6.1-2.4-2-.2-2.7-1.6-2.4-3.3.3-1.7 1.8-1.9 3.2-1.7 3.4.5 5.5-2.2 8-3.5 1.1-.6.1-1.5-.6-1.4-3.2.6-6.6-1.8-9.7.3-.9.6-1.6 0-2.2-.6-1.1-1.1-2.4-1.4-3.8-1.7-11.8-2.6-23.9-2.8-35.9-4.3-.9-.1-1.8-.2-2.7-.6-4.2-1.8-8.8-1.9-13-3.4-.6-.2-1.2-.4-1.7-.1-2.2 1.3-4.3.6-6.3-.2-3.4-1.3-7-.3-10.4-.8-5.4-.7-10.7-2-16.1-2.6-.5-.1-1-.2-1.4-.6-.2-1.5.9-1.6 1.9-1.7 1.3-.1 2.5-.4 3.8-.1 4.8 1 9.6.7 14.4 1.7 4 .8 8.2.2 12.3.4 1.3.1 2.1-.6 2.6-2 .9-2.2 2.1-2.7 4.6-2.5 3.7.4 6.5 2 8.7 5.2 2.4 3.6 6.5 3.5 10.2 3.5 4.6 0 9.2-.4 13.8.3 5 .7 10 1 14.9 1.7 5.5.8 11-.3 16.4 1.1.7.2 1.5.2 2.2.5 2.3 1.4 4.7 1.6 7.4 1.7 2.3 0 4.5.3 6.5-1.2.5-.4 1.1-.5 1.7-.3 4 1.3 8.5.7 12.4 2.6 2 1 3.9 1.4 6 .3.4-.2 1-.4 1.5-.3 9.1 1.7 18.4 1.8 27.3 4.3 5.8 1.7 11.8 3 17.3 5.5.9 0 1.7.1 2.3.9-.5 1-1.4.5-2.2.6-1 .1-2.2-.8-2.4 1.1 0 .5-.8.4-1.3.4-7.2 0-14.5.4-21.6-1.3-.9-.2-1.8-.2-2.7.2-2.7 1.1-5.3.7-8.1.2-.5 1.3.1 2.3 1.5 2.4 2.3 0 3.1 2.5 5.2 2.7.6.1 0 .6 0 1-.1 1.8.7 3 2.3 3.7 1.6.7 2.6 0 3.4-1.6.9-2 2.7-1 4.2-1.1 1.9 1.6 3.9 3 6.3 3.7.2.1.4.2.6.4 1.1 3 .4 3.7-3.6 4 1.9.2 4.2-.5 5.4 2 .3.6.9.5 1.3.2 2.5-1.8 4.9-.7 7.4 0 .7 1 .1 1.4-.7 1.8-.8.2.3 1.1-.5 1.3-1.5.6-2.3 1.9-3 3.2-.7 1.2-.3 1.9 1.2 1.9s2.9-.5 4.1-1.6c-.9-1-2.6-1.6-1.7-3.4 2-1 3.1 1.2 4.8 1.3.5-.1 1.1-.1 1.5-.5-.3 0-.8-.4-.4-.8zm18.5-102.1c2.2-1.9 2.4-4.5 3.1-7.1.8-.8 1.7-.7 2.7-.5 1 .4 1.3 1.2 1.3 2.2 0 2.2 1.3 3 3.2 3.3 2.3.3 4.5.7 5.8-1.9.6-1.2 1.5-.7 2 .3.3.5.2 1.1.2 1.7 0 .7-.4 1.8.6 1.9 1.2.1 1.1-1.2 1.4-2 .4-1.1-.7-2.3.2-3.3 1.2-.4 2.3 0 3.4.5 1.1 2.1 2.7 2.9 5.2 2.8 2.5-.1 4.7 1.5 7 2.3.8 2.2 2.5 2.8 4.8 2.5 2.7-.3 4.8.7 4.3 1.7-.8 1.8-2.8 1.5-4.4 1.5-.4 0-.8-.1-1.2-.2-3.7-.4-4.1-1.5-2.9 3.3.7 2.6 1.3 5.3 2.1 7.9.3 1-.1 1.8-.2 2.7-.6 2.8 1.1 4.5 3.9 3.6 1.9-.6 3.7-.1 5.5 0 1.6.1 2.2-.5 1.9-2-.8-4 0-8 .5-11.9.1-.9.5-1.6 1.4-1.9l21.6 5.7c1 .3 1.4 1 1.8 1.9 2.2 5.1 4.6 10.2 6.7 15.4.6 1.5 1.5 2.2 3 2.6 6.4 1.7 12.7 3.5 19.1 5.3 1.1.3 2.9.2 2.8 1.9-.1 1.7-2 1.5-3.2 1.8-7 1.2-14 2.4-21.1 3.4-1.4.2-2.5.8-3.4 1.8-5.2 5.8-10.6 11.5-15.7 17.3-1.4 1.6-2.8 2.4-4.9 2.6-1.9.1-3.8.4-5.7.6-1.2-.8-2.6-.6-3.9-.2-1.3.3-2.5.3-3.7.2-1.2-.1-1.9-.8-.8-1.8 1.1-1 1.2-1.8.1-2.8-.3-.3-.2-1-.2-1.4.2-1.7-.5-1.5-1.5-.8-2.1 1.3-6 1.1-7.8-.4-1.2-1-1-2.6.7-3.5 1.3-.7 2.7-1.1 3.7-2.4.6-.8 1.6-.5 2.1.3.8 1.3 1.5 1.3 2.9.6 1-.5 2.7-2.2 3.5.5.2.6.9.1 1.3-.1.7-.5 1.4-.8 2.3-.8 1.2 0 1.7-.4 1.5-1.9-.3-1.6 1.5-3 3.2-2.8 1.6.2 2.9.4 3.3-1.9.3-1.7 2-2.2 3.5-2.2.9 0 1.8.2 2.7.4 1.6.3 3.1 1.2 4.8-.5.7-.7 2.8-1.4 4 .4.4.6 1 .7 1.5.3 1.4-1.4 3.5-1.5 4.9-2.9 1.1-1.1 2.5-1.9 4.3-1.6.8.1 1.9-.3 1.9-.9-.1-2 1.3-2.1 2.8-2.3-4.1-3.2-8.9-2.4-13.2-3.2-6.2-1.1-12.7-1.1-19-2.3-4.1-.7-8.1-1.6-12.2-2.1l-3-.3c-2.6-.1-3.4-1-2.9-3.6.3-1.3-.1-2.1-1-2.8-1.2-1-2.1-.6-2.3.9-.1 1.5-.5 2.9.1 4.5s.7 3.3-.8 4.6c-.2.2-.5.4-.4.6.6 3.5-2 2.5-3.6 2.5-3.5 0-7-.1-10.5-.2-1.2 0-2.3-.5-2.6-1.6-.3-1 .3-1.9 1.5-2.3 1.5-.4 1.1-1.5.4-2-2.2-1.5-2-4-2-6 .1-2.8-.2-5.8.9-8.6 1-2.5-.7-5 .2-7.4 0-.1-.2-.5-.3-.5-.3-.2-.7 0-.8.3-.8 1.9-2.3 3.4-1.8 6 .9 4.2-.3 8.5-.5 12.7 0 .8-.4 2.2-1.6 2.1-1.2-.1-1.2-1.2-1.2-2.1-.1-1.2-.5-1.9-1.9-1-2.6 1.7-2.7 1.8-.3 3.9 1 .9.3 1.7.2 2.5-.1.9-.8.9-1.5.9-4.1 0-8.2.8-12.3-.8-1.7-.7-2.9-1.2-2.8-3.2.1-1.5-.9-2.1-2.1-2.4-.8-.1-1.8.1-2.2.8-.5.9.6.9 1.1 1.3.5.3.7.7.6 1.3-.2.7-.7.9-1.3 1-2.7.5-4-1.1-3.5-4.6.1-.7.8-1.5-.1-2-.8-.4-1.1.6-1.6.9-.3.2-.7.6-.9.2-.8-1.3-1.8-2.7-1.5-4.4.3-1.4 1.6-2.2 2.8-2 1.4.2 3.1-1.1 4.2 1.2.4.8 2.5.3 3.3-.6.8-.9-.2-2-1.1-2.3-2.4-.8-2.9-3.5-5.1-4.6-1.3-.7.9-2.4.4-3.9-.2-.6.9-.2 1.4-.2 1.7.1 3.2-.1 4.4-1.4.9-1 2.4-.8 3.3-1.6.1 0 .1-.1.2-.1 1.6-.5 4.3 1.5 4.6-2 .1-1.8.8-3.8-.8-5.4-.9.5-.9.3-.8.1z"/><path class="st10" d="M424.8 252.2c-5.8-.1-11.6-.6-17.4-1.4-.9-.1-1.8 0-2.7-.1-.5-.2-.7-.6-1-1-1.7-1.2-3.4-.3-5 .1-1.9.5-3.2-.1-3.9-1.8-.7-1.8-2-2.4-3.8-2.7-8.9-1.5-17.9-2.4-26.9-3.4-3.1-.4-6.2-1.4-9.4-1.7-1.2-.2-2.3-.5-3.4-1.1 1.1-1.6 2.9-1.1 4.2-1.1 5.3 0 10.7-.4 16-.5 6.1-.1 12.3.5 18.4-.8 1.7-.3 3.3-.2 5 .1 5.8-1.1 11.5-2.6 17.5-2.1.9.1 1.8-.4 2.6-.8 1.5-.6 3.1-.6 4.7-.1 4.4 1.4 4.8 1.1 5.5-3.4.3-1 .6-1.9 1.7-2.4 3.4-.5 4.2-.2 4.9 2.2-.4 1.5-.1 3-.4 4.5-.1.6-.3 1.2-.4 1.9.1 2.1 1.3 3.8 2.3 5.5.9 1.5 2.2 1.4 3.8-.1 2.4-2.2 2.4-2.2 4.6-.1.8.7 1.7 1 2.7 1.2 4.5.8 9 .5 13.5.6 1.6 0 2.6-.9 3-2.5.2-1.1.5-2.3 1.9-2.3 1.5 0 1.6 1.5 1.9 2.6.1.5.1 1 .3 1.5.2.6.7.9 1.3.9.7 0 1.1-.4 1.3-1 .2-.4.2-.8.3-1.2.2-1 .4-2.1 1.6-2.2 1.2-.1 1.4.9 1.7 1.8.7 1.9 2.3 2.9 4 3.6 1.9.7 3.8.5 5-1.6.5-.9 1.2-2 2.5-1.8 1.2.2 1.1 1.5 1.4 2.4 1 2.9 2.3 3.9 5.3 4 .8 0 1.5-.1 2.3 0 2.8.4 5.2.2 6-3.3.1-.6.7-1.1 1.2-1.6 1-.9 1.8-.7 2.3.5.1.2.1.3.1.5.4 2.2.8 4.3 3.3 5.1 3.1 1 6.3 1.2 9.3-.4 1.8-1 3.1-1.3 4.8.4 1.7 1.6 4.4 1.7 6.7 1.7 3.8 0 7.5.4 11.3.5 2.1.1 3.8-.2 4.5-2.6.2-.7.6-1.8 1.6-1.6.8.1.9 1.1 1.1 1.8.3 1.1.2 2.6 1.7 2.7 2.3.2 4.7 1.7 7-.1 2.5-2 2.5-1.9 4.4.3.9 1.1 2.2 1.1 3.5 1.1 1.8 0 3.5.2 5.2.6.6.1 1.2.5.9 1.2-.3.8-1 .8-1.6.3-2.7-.8-5.4 1-8.1 0-.6-.2-1.1.4-1.5.8-3.8 3.5-7.6 7.1-11.7 10.2-1.9 1.4-4.1 2.6-5.3 4.8-.2.3-.7.5-1 .5-.5 0-.4-.6-.5-1-.6-1.8.8-4-1.6-5.3-1.8-1-3.7-1.5-5.6-2-6.6-1.6-13.3-1.8-20-2.6-4.3-.5-8.6-1-12.8-2-5-1.1-10-1.5-15-1.8-6.3-.3-12.3-1.9-18.5-2.9-.5-.1-1-.2-1.5-.2-8.2-.2-16.5-.5-24.7-.4-3.3 0-6.6.2-9.9.4-.8-.3-1.8-.6-2.5-1.3z"/><path class="st11" d="M431.3 230.6c.1-1.5-.6-2.1-2.1-2h-2.5c-1.2-.5-2.4-1.1-3.7-.3-.3.2-.8.4-.7.9.1.5.5.6.9.7.8.2 1.8 0 2.5.8 0 .7 0 1.4-.1 2-.5 2.7-2 3.6-4.5 2.5-2.6-1.1-4.9-1.4-7.4.2-1.6 1-3.5-.1-5.3.1-1 .1-2.1-.2-3 .6-.4.3-1 .6-1.4.5-3.2-1.1-6 1-9 1.2-1.8-1.5-.3-2.3.8-3 3-1.8 6.4-2.7 9.8-3.6 1.8-.5 3.7-1.1 5.7-.9.4 0 .8-.1 1.2-.2.7-.3 1.6-.6 1.5-1.4-.2-.9-1.2-.8-1.9-.7-4.5.6-9.2.3-13.7 1-2.1.3-2.6-.1-2.4-2.3.2-1.8 1.6-1.8 2.9-2 7-.7 14.1-.9 21.1-1.2 2.7-.1 5.3.8 8 .3 1.6.3 3.3 0 5 .4 1.7.6 3.4 0 5.1-.1 1-.1 2.1-.7 2.9.4.1.4-.1.8-.3 1.2-.4.7-.7 1.4-.1 2.1.7.8 1.3 0 2-.3.7-.4 1.5-.8 2.4-.5 3.7 1.5 7.6 1.6 11.5 1.3 1.8-.1 3.6.5 5.4.8 2.3.4 3.4-.7 4.5-2.2.5-.7.5-1.6 1.4-2 4.9.4 9.7 1.4 14.6 1.5.9 0 1.8.1 2.7-.3 9.6.4 19.2 1.5 28.8 2.3 7.3.6 14.7 1.2 22 1.9-1.1.9-2.2 1.9-3.3 2.8-.4.4-.8.6-.2 1.1.9.7 2.3.5 3.1 1.4.4.4.8.8 1.3 1.2 2 1.7 1.8 2.8-.7 3.7 0 0-.1.1-.2.1-5.6.1-11.3 1.1-16.7-1.6-1-.5-1.8-.8-2.8-.3-1.9.9-3.9.9-5.9.5-3-.6-6.2-.5-9.1-1.7-1.2-.5-2.4.5-3.7.5-3.7-.1-7.4.1-11-.7-6.7-1.5-13.6-.6-20.3-1.9-4.7-1-9.4-.2-14.2-.2-3.6 0-7.2-.3-10.6-1.4-1.2-.4-2.2-.5-3.4-.1-1.8.5-3.7 0-5.4-.5-1.1-.4-1.5-1.4-1.5-2.6z"/><path class="st6" d="M305.1 307.1c12.8-2.6 25.8-4.1 38.7-6.2.8-.1 1.6-.3 2.5-.4 1-.1 1.9-.2 2.1-1.3.4-1.4-1.3-1-1.7-1.7 1-2 3.1-2.1 4.5-1.8 1.8.4.2 1.7-.2 2.6 1.4-.7.7-3 2.6-3.4.2-.1.5-.1.7-.2 2-.3 3.9-.4 5.9-.8 3.8-.3 7.7-.2 11.5 0 1.1.1 2.2.1 3.2.6.9 1.9 2.4 2.8 4.6 2.6 1.3-.1 2.7.2 3.5 1.5.2 2.2-1 4.2-1.3 6.3-.1.8-.5 1.7-.1 2.5.4.7 1.6 1.3.5 2.3-1.2 1.1-2.1 2.5-4.2 2.1-2.1-.4-3.8-1.8-6-1.7-3.3.2-6.6 2.5-9.9 0-4 1.9-8.4-.4-12.6 1.2-1.5.6-3.1 2.6-4.3 1.9-1.5-1-2.9-1-4.4-1.2-1.3-.2-2.7-.2-3.9.5-1 .6-2.1.4-3.2.1-1.5-.5-3.1-.7-4.9 0 2.1 1.3 4.4 1.6 6.5 1.9 3 .5 5.8 1.5 8.8 2.2 1.3.3 2.1.9 2.5 2.2.5 1.9 1.9 2.4 3.7 2.2 1.3-.1 2.7-.2 3.9.7.6 1.3 1.6 2 2.9 2.5 4.6 1.6 9.1 3.4 13.8 4.6.6.1 1.1.3 1.7.6.6.3 1.4.6 1.3 1.3-.1 1-1 .7-1.6.6-.6-.1-1.2 0-1.4.7-6.6-.6-13.1-1.5-19.6-2.6-2.4-.4-4-1.8-4.5-4.2-.3-1.7-1.4-2.2-2.8-2.7-13.4-4.4-27-8.2-40.2-13.1-.7-.3-1.7-.3-2.1-1.2v-.2c0-.1.1-.1.2-.1 4.7.2 9.5-.1 14.2 0 6.2.2 12.3.8 18.5.6 2.9-.1 6 .4 9 .2.7 0 1.4.1 1.9-.3 2.4-2.2 5.5-2.6 8.4-3.5.9-.3 2.4-.3 2.3-1.5-.1-1.1-1.6-1-2.5-1.1-1.6-.2-3 .3-3.5 2.1-.2.8-.8 1.7-1.7 1.4-.9-.2-.5-1.3-.7-1.9-2.3 2.8-5.6 1.9-8.5 2.3-5.4.7-10.9 0-16.3.6-5.2.6-10.3.5-15.5 1-.7.1-1.9.7-2.3-.8z"/><path class="st12" d="M375 295c-4.3.2-8.6-1-12.9-.1-.7.1-1.4-.3-2.2-.4-1.9 0-3.8.2-5.5 1h-.5c-3.4-2.4-6.7-1.5-10.1.1-.6.3-1.1.2-1.7 0-.5 0-1 .1-1.4-.4-.5-1.4.3-2.4 1.3-3.3.8-.7 1.8-1.3 2.3-2.2 0-.2-.1-.3-.3-.4-.7-.3-2-.1-2.1-1-.1-1 1.1-1.4 2-1.6 2.6-.5 4.7-2.6 7.5-2.2 2.2 1.7 2.2 1.7-1.4 5.6 2.4-.5 4.5-.1 5.8-2.4.9-1.6 1.8-.1 2.6.4.7 1.4 1.9.9 3 1 1.5-.9 3.3-1 4.9-.7 4.1.9 8.1 0 12.2.2 1.7.1 3.2.3 4.6 1.4 2 1.5 6.2 1.2 8.3-.2.4-.3.7-.8 1.3-.6h1c2.3 1.5 4.8 1 7.3.9 1.2-.1 2.3-.4 3.2.7.1.1.3.2.4.2 4.4-.3 8.4 2.2 12.7 1.8 1.4-.1 2.8-.3 4.2-.8 2-.7 4.1-.8 6.2-.7 4.2.2 8.5.5 12.6-.4.5-.1 1 0 1.4.3 3.1 2.3 6.5 2.4 10.1 1.8.8-.1 1.5-.1 2.2 0 5.3.9 10.8 1.1 16 2.7.6.2 1.2 0 1.6-.4h1.5c2.1 1 4.4.4 6.6.5.8.1 1.7-.1 2.4.4.7.6 1.6.5 2.4.5 2.8-.1 5.4-.5 8.2.6 1.8.7 4.1.4 6.2.4 2.9.1 5.6 1 8.4 1.5-1.8 2.7-4.4 4.4-7 6-1.6-.8-2.9.4-4.3.8-.6 0-.9-.3-1.3-.7-.9-1.6-2.5-1.5-4-1.5-1.8.1-3.5-.1-5.2-.8-2.3-.9-4.7-1-7.1-1.2-4.4-.4-8.8-.6-13.2-1.1-3.1-.3-6.2-1-9.3-1.6-3.9-.8-8.1-.5-12.2-.3-1 .1-1.5 1-2.1 1.6-1.5.6-3 .1-4.4-.3-2.5-2.5-5.4-1-8.2-.8-1 .1-2.1.2-3.1.5-1.2.4-2.4.7-3.6.6-1.4.1-2.8.2-4.1-.3-3.8-.4-7.7-.2-11.5-.7-.9 0-1.7-.2-2.4-.7-1.5-1-3.2-1.3-5-1.2-3.1.1-6.1-.3-9.2-.7-1.6-.6-3.2-1.3-4.9-.6-.9.2-1.8.2-2.7 0-1.4-.8-2.8-1.4-4.3-.4-1.3-.1-2.3 0-3.2-.8z"/><path class="st6" d="M370.5 323.1c3.8.1 7.5 1.2 11.3 1.7 4.2.5 8.3 1.9 12.6.9 2.2-.5 4.1 1.1 6.2 1.4.6.1 1.5.8 1.9.4 2.1-2.3 4.6-.9 6.4-.2 3.6 1.4 7.4 1.3 10.9 2.9 2.4 1.1 5.3 1.2 8 1.4 6.4.4 12.8.5 19.1 1.6 4.4.8 8.9 1.2 13.2 2.3 2 .5 3.3 1.7 5.9 1 2.3-.6 5.6.1 8.4.6.6.1 1.4 0 1.6.9.1.9-.3 1.7-1 1.8-3.3.9-5.4 5.1-9.7 3.4-.6-.2-1.5 0-1.6.8-.2 1.1.1 2.1.8 3 .2.3.7.4 1 .7l-14.4-1.5c-.8-.1-1.7-.4-2.1.6-2.3-.6-4.5-1.7-7-.4-1.4.7-2.1-.5-1.7-3.2-4.3 1-7.8-2-11.9-2.2-1.8-.1-2.2-2.1-2.5-3.7-.8.1-.9.9-1.4 1.4-1.1 1.1-2.6 1.7-3.6.8-2.2-2-4.5-1-6.8-1.2-4.4-.3-8.6-2-12.9-3.1-2.3-.6-4.8-.8-6.8-2.5-.4-.4-1-.2-1.4 0-1.9 1-3.5.2-5.2-.8-2.1-1.2-4.3-2.1-6.7-2.7-5.8-1.5-11.6-2.6-17.4-3.9-1.5-.4-3-.1-4.5-.6-1-.3-2.6-.2-2.6-1.5 0-1.5 1.6-1.1 2.6-1.3 2.9-.2 5.9 0 8.8.5 1 0 1.8 0 2.5.7z"/><path class="st9" d="M351.3 284.4c-3.2.9-6.1 2.3-9.3 3.7 1.2.8 3-.4 3.4.8.5 1.5-1.4 2.1-2.4 2.9-1.2.9-1.9 2-2.4 3.4-2.3-.7-4.4-1.6-6.5-2.7-.3-.7.2-1.2.7-1.4 1.6-.6 1.8-1.8 1.3-3.3-1.7 1-2.7 2.6-4.1 3.8-1.4-.3-2.7-1-4-1.7-1-.7.8-1.8-.5-2.6-1.8-1.2-2.7-.4-3.5 1.1-11.4-1.5-22.8-3-34.2-4.6-3.6-3.4-7.7-4.4-12.4-2.9-2.1.7-4.5-.1-6.7.5-1.7 0-3.4.3-5-.6-2.2-1.5-4.6-1.5-7-.9-.7 0-1.3-.1-2-.1-1-.8-2.2-1.1-3.5-1.3-2.1-.2-4.5.1-5.5-2.6-.2-.6-.8-.4-1.3-.3-3.2.2-6.3.8-9.3 1.7h-.5c-1.1-.7-2.2-1.7-3.5-.5-1.9-.2-3.9-.5-5.8-.7-1.2-.1-2.4-.6-3.5.3-.4.3-.9.4-1.4.3-3.2-.9-6.7-1-9.9-1.9-1.3-.8-.6-2.1-1-3.5-1.8.9-3.7.7-5.6.4-1.9-.4-3.2.5-4.4 1.8-5.9-.2-11.7-.8-17.4-2.3-1.1-2.2-2.9-3-5.4-3.1-3.2-.2-6.5-.5-9.5-2-1.1-.6-2.5-.9-3.7-.6-4.5 1.1-8.4-1.5-12.7-1.5-.7 0-1.5-.2-2.2-.6-4.8-2.9-10.3-2.7-15.5-3.7-2-.4-4.2.2-6.4 0-5.9-.5-11.4-3.3-17.4-3.4-3.5-.1-7-1.5-10.6-.8-.7.1-1.6 0-2-.8-1.3-2.4-3.5-2.3-5.7-2.1-2.2.2-4.5-.3-6.7.3-1 .3-1.9-.4-2.5-1.3-.9-1.3-2.1-1.8-3.6-2-5.4-.6-10.6-2.6-16-2.9-3.2-.2-5.7-2.3-8.8-2.9-.5-.1-.9-.5-.7-1.1.6-.6 1.4-.6 2.1-.6 4.2.4 8.3 1.3 12.3 2.5.3.1.5.4.7.7 2.9 1.3 6 1.8 9.1 2.5 5.9 1.3 11.9 2.4 17.9 3.4 5.2.9 10.5 1.5 15.8 2.2 3.1.4 6.1 1.1 9.1 1.8 1.5.4 3 .9 4.7.8 2.2-.1 4.4.6 6.5.7 3.7.2 7.1 1.5 10.7 1.9 4.1.4 8.2 1.1 12.2 2.6 2 .8 4.1 1.2 6.2 1.8.8.2 1.7.3 2.5-.1 2.9-1.7 5.2-.5 7.5 1.4.5.4.8.8 1.5.9 5.2.2 10.1 1.8 15.2 2.9 4.5 1 9.2 1 13.8.6 2.8-.3 5.4 1.3 8.1.7 2.6-.6 4 1.8 6.3 2.1 2.3.2 4.6 1 6.9 1.9 2.3.9 5.2 1.3 7.6.8 3.3-.7 6.5 0 9.7-.3 2.9-.3 5.9-.1 8.2-2.4.8-.8 1.2-.5 1.4.6.7 4.5 1.6 5.4 6.3 5.2 5-.1 9.8.3 14.7 1.8 2.6.8 5.8-.1 8.6-.6 1.7-.2 3.8.3 4.9-1.9.2-.5 1.1-.3 1.1.3-.2 3.6 3.2 3.1 5 4.1.9.5 2.5.7 3.7.9 6.5 1.1 13 1.4 19.5.6 2.2-.3 4 .3 5.6 1.7.8.7 1.5 1.2 2.1-.2.3-.7 1-.6 1.5-.5.4 0 .8.3 1.2.3 1.8.1 3.4-1.8 5.5.4 1.1 1.2 3.9 0 5.9-.8 1.1-.4 2.4.9 3.7-.2.5-.4.6.8.6 1.3-.2 1.9 1 2.2 2.4 1.9 1.9-.5 4-.2 5.7-1.6.5-1.2 1.7-1.2 2.6-.4z"/><path class="st13" d="M69.6 245.2c-5-.8-9.9-2.6-15.1-2.5-1.7.5-3.3.3-4.9-.2-.9-.7-1.6-1.7-1.1-2.8.4-1.1 1.7-.9 2.6-1 5.5-.5 11-.4 16.5-1.1.5-.1 1-.1 1.5.1 3.7 1.6 7.3.5 10.9-.4.2 0 .3-.1.5-.1 4.8.1 9.7-.1 14.5.7 1.8.3 3.5.5 5.1 0 1.8-.5 3.6-.4 5.5-.1 3.9.5 7.9 1.1 12.3 1.1-1.2-1.3-2.5-1.3-3.4-2-1.6-1.1-1.7-2-.1-3.5 1.2-.2 2.4.3 3.6-.1 1.3-.4 1.4-1.1.4-1.9-.5-.1-.9-.3-1.1-.8 4.4-2.9 9.1-4.1 14.3-3.1h-4.1c1.4.2 2.3 1.6 3.6 1.6 1.3 0 2.3.5 2.2 1.8-.1 1.6-1.4 1.3-2.5 1.2-2.3-.5-4.5-1.1-6.9-.9-.7 0-1 .4-1.1 1-1 .9.3.6.4.9-.3.6-.7 1.2-.7 1.8-.1 1.1-.5 2.7 1.5 2.8 1.7.1 1.6 1 .7 1.9-1 .9-1.6 2.4-3.5 2-.9-.2-1.1 1.1-1.7 1.6-.8.7-1.6 2.8-2.9.4-.2-.4-.9-.5-1 0-.3.8-1.3 1.2-1.2 2.1.1.5.4.9 1 .9 2-.2 4 .4 6-.8 1.4-.9 5.2 1.5 5.4 3.1.1.9-.4 1.4-1.2 1.7-1.4.4-2.8 1-4.4.8-4.5-.6-9.1-.6-13.6-1.5-1.2-.2-2.5-.2-3.7-.1-2.6.3-2.6.1-3.3-2.3-.9.5-.7 2.6-2.4 1.8-2.3-1 .3-2.9-.7-4.1-2 2.9-1.9 4.5-7.7 2.9-4.7-1.3-9.6-1.6-14.4-2.2-1.8-.4-3.8-1-5.8-.7z"/><path class="st14" d="M629.6 271.9c-1.1 2.5-1.2 5.2-1.4 7.9-.2 2.3-.2 4.8.4 7.1.3 1.5-.3 1.8-1.9 1.7-2.3-.2-4.5-.9-7 .2-2.3 1.1-4.8-2-3.9-4.7.4-1.2 1.3-2.2-.3-3.2-.5-.3-.5-1-.1-1.4.9-1 .2-2-.3-2.7-1.4-2-1.1-4.5-2.1-6.7-.5-1.1 1-1.3 2.1-1.1 5.1.8 5.1.8 7.9-.1-1.1-1.5-2.5-1.2-4-1.1-4.4.3-4.4.3-4.9-3-1-2.5-3.1-3.3-5.7-3.5-2.2-.2-4.5-.3-6.4-1.6-1.2-.2-2.3-.3-3.5-.5-3.6.6-7.1-.4-10.7-.7-1.3-.1-2.4-.5-3.4-1.3h-3c-2.3-1-4.8-.1-7.1-1-1 .8-2 .8-3 0-.8-.5-1.6-.6-2.5-.5-1.1-2.6-.3-4.3 2.4-4.7 1.7-.2 3.3 0 5.2 0-.7-1-1.8-.6-2.7-.9-.7-.3-1.5-.5-1.5-1.4 0-1 .9-1.1 1.6-1.2 3.2-.2 6.3.5 9.5 1 .7.1 1.1.7 1.5 1.2 1.8 2.4 4.1 3.2 7 2.5 1.8-.4 3.1.1 4.7 1.3 2.7 2.1 5.8 4.5 9.7 2.6.8-.4 1.5-.2 2 .4 1.2 1.1 2.6 1.4 4.2 1.4 2.7-.1 5 1.3 7.5 2 2.3.6 4.6.8 6.9.9.8 0 1-.4 1.1-1 .6-.8 1-1.7.3-2.6.1-.9.2-1.7.2-2.6.8-3 .2-6.3 1.7-9.3.3-.6.4-1.7 1.3-1.6.9.1.8 1.1.9 1.9.1 2.2 0 4.3-.2 6.5-.3 2.4 0 2.6 2.4 2.3 1.5-.2 3-.6 4.5-.1.4.1.7.4.7.9-2.2.5-4.4 1.2-6.6 1.4-1.8.2-2.3 1.2-2.4 2.6-.2 3.8-1.1 7.4-1.8 11.1-.2.8 0 1.2.7 1.6z"/><path class="st12" d="M49.5 242.2c1.7.2 3.4-.4 5 .5 4.6 1.3 8.8 3.3 13.8 3.7 4.6.3 9.1 1.9 13.7 2.7 1.1.2 1.9.7 2.2 1.8.3 1.1 1.1 1.5 2.1 1.3 1.7-.3 3.6-.2 5.1-.4 2.1-.3 4 .6 6 .2.6-.1 1.2.1 1.2.6-.1 2.8 2 2.4 3.4 2 2.6-.7 5-.1 7.4.7 2.6.8 5.5 0 8.1 1 4 1.6 8.4 1.9 12.6 2.9.4.1.9.3 1.2.2 5-1.7 9.7 1.4 14.6 1.1.7 0 1.6.3 2.1.7 1.9 1.5 4.2 1.8 6.5 2.3 2.1.4 4.6-.3 6.4 1.6.4.4 1.1.3 1.7.1 2.8-1.3 5.2-.3 7.8.7 2.9 1.1 6.1 1.6 9.3 1.5 2.7 0 4.4 1.2 4.2 3.5-1.6.7-3.2.5-4.7-.4-2.8-1-5.7-1.1-8.6-1.4-14-1.8-27.8-4.2-41.7-6.5-23.1-3.8-46-8.6-68.6-14.8-6.8-1.8-13.4-4-20.1-6.2-2.8-.9-5.8-.8-8.6-1.4 1-1.4 2.3-.5 3.5-.5h4.5c2.6.1 5.1.7 7.6 1.4.8 0 1.6.4 2.3 1.1z"/><path class="st9" d="M358.9 322.6c-.6.1-1.2-.1-1.7.3-.1.8.6.7 1 .7 4.4.8 8.9 1.5 13.3 2.5 5.3 1.2 10.7 2.2 15.8 4.4.5.2 1 .6 1.4 1 1.4 1.2 2.8 1.4 4.3.3.5-.4 1.2-1.1 1.7-.4 2.5 3 6.3 2.7 9.5 3.7 2.6.9 5.2 1.6 7.9 2.2 1.9.4 3.8.8 5.4-.7.9-.8 1.3-.3 1.8.6 1.4 2.6 3.9 2.5 5.4-.1.2-.4.4-.7.6-1.1.2-.4.5-.8.9-.7.5.1.5.6.5 1 .6 3.9.6 3.8 4.4 4.3.9.1 1.8.5 2.6.8 1.9.7 3.8 2.1 6 .8.5-.3 1.4-.3 1.8.4.3.5 0 1-.4 1.3-.8.6-1.3 1.4-.3 2 1.6.9.6-.6.8-1 0-.1.1-.1.2-.1.8-.5 6.4 1.2 6.9 2-1.1 3-3.4 4.2-6.5 4.1-3.1 0-6.1-2-6.9-4.9-.5-1.7-1.3-2.2-2.9-2.4-16.8-2.3-33.4-5.6-49.8-9.7-1.1-.3-2.2-.5-3.4-.8-.9-1-2.2.1-3.2-.4-1.8 0-3.6 0-5.4-.6-.3-.5-1.2-.6-.9-1.4.4-.9 1-.2 1.5-.1.6.1 1.3.2 1.9.2-2.3-1.6-5.1-1.7-7.6-2.7-3.3-1.3-6.7-2.4-10.1-3.6-1-.4-2.4-.7-1.5-2.4 2.1-.9 3.7-1.5 5 .5z"/><path d="M179.1 270.4c1.6 0 3.2-.3 4.7.4 4.8.6 9.6 1.3 14.3 1.9 1.2.2 2.5.1 3.8.2 3.4-.1 6.9-.5 10.1 1.5 4 .2 7.9.9 11.7 2.1 1.7 1.9 4 3.3 5.4 5.5-1 .9-1 .9-2.1-.1-.6-.5-1.2-1.7-2-.2.6 1.6 2.9 1 3.4 2.7-.2 1.2-.2 1.3 1.2 1.6 1.7 3.1 1.5 4.7-.8 7.2-.3.4-.7.7-.9 1.2-1.2 2.1-2.9 3-5.2 2.6-2.6-.4-4.5-1.8-5.3-4.4-.7-2.2-.1-4.1 1.6-5.6.8-.8 1.6-1.7 2.2-2.7 1.2-1.9-.5-4.4-3.3-4.8-5.4-.7-10.8-1.3-16.2-2-7-.9-13.9-1.7-20.9-2.5-1.1-.1-1.7-.5-1.7-1.7.2-1.1 0-2 0-2.9z" fill="#29292a"/><path class="st16" d="M396.1 226.6c0 1.9.9 2.6 2.5 1.5 1.5-1 2.9 0 4.4-.2 3.5-.5 7.1-.5 10.7-.7.7 0 1.6-.1 1.9.9.2.8-.3 1.5-.9 1.9-.9.6-1.8 1.2-3 1.2-5.6-.1-10.6 2.1-15.6 4.2-1 .4-1.6 1.2-.9 2.4-4.5-.8-8.8.4-13.2.8-.8.1-1.8.4-2.5.1-3.6-1.7-7.2 0-10.8-.2-4.6-.3-9.3.4-13.9.4-1.1 0-2.4-.4-3.4.4-.3-.7-.3-.8.5-1 4-1 7.9-2 11.9-2.8 9.5-2 19-3.9 28.5-5.7 1.9-.5 3.4-1.2 3.8-3.2z"/><path class="st9" d="M639.6 255.2c-2.3-1.3-4.6.2-6.8.2-1.6 0-1.8-.3-1.6-1.7.4-3.1.6-6.2.3-9.6-2.2 3.5-1.5 7.3-2.4 10.8-.7 1.4-2 1.2-3.1.8-2.9-.9-6-1.6-8.7-3.2-1.3-.8-2.7-.8-4.1-1-1.3-.2-3.1-.4-2.7-2.2.3-1.5 2-1.7 3.3-1.3 3.6 1 7.3.5 11 .3-2.7-1.9-5.8-2.8-8.9-3.5-.8-.4-2-.5-1.5-2 2.2 0 4.3 0 6.4.4 3.7.6 7.2-.1 10.7-1.7 2.2-1 4.5-1.8 6.7-2.7.9 4.1 2.8 7.8 4.3 11.7 1.6 4.1 1.6 4.1-2.9 4.7z"/><path d="M49.5 242.2c-.9-.2-1.7-.3-2.6-.5-.2-1 .2-2 .5-2.9 20.2-2 40.3-4.4 60.6-4.6 1.5 0 2.8-.4 4.1-1 1.7-.9 3.5-1.7 5.2-2.5.4.2.7.3 1.1.5-.7 1.5-1.8 2.5-3.6 2.5-1.8 1.1-1.4 1.9.2 2.9 1.1.7 2.7.4 3.6 1.6.2.3.7.6.5 1.1-.1.5-.6.5-1 .5-2.5-.1-5.1-.6-7.5-.5-3.7.1-7.2-2.1-11-.3-1.1.5-3.2 1.2-4.7-.4-.3-.4-1.3-.2-1.9-.2-3.3-.1-6.7.3-10-.5-1.3-.3-2.6.1-3.9.7-2.6 1.1-5.7 1.5-8 .9-5.5-1.5-10.8-.2-16.2 0-1 0-2-.1-3-.1-3.4-.3-3.4-.3-2.4 2.8z" fill="#444748"/><path d="M305.1 307.1c2.8.9 5.6-.3 8.3-.2 2.2.1 4.4-.5 6.6-.2 1.4.2 2.8-.4 4.3-.5 5.3-.5 10.7 0 16-.5 1.7-.2 3.2-.7 5-.4.9.1 1.6-1 1.9-2 .2-.5.1-1.3 1-1.1.7.2.5.9.4 1.5-.1.6-.1 1.3-.2 2 .8-.1 1.2-.6 1.2-1.1 0-1.8.9-2.4 2.5-2.7 2-.4 3.6.3 5.3 1 .5.2.4.9 0 1.3-.6.7-1.2 1.5-2.2 1.5-2.7 0-4.8 2.2-7.6 1.9-.1 0-.1.1-.2.1-3.5 3.7-7.6 1.9-11.6 1.5-1.7-.1-3.4.2-5.1.2-8.9-.1-17.7-1-26.6-.9-.7 0-1.5-.3-2.2-.5 1-.6 2.1-.9 3.2-.9z" fill="#636567"/><path class="st9" d="M354.8 240.2c3.5-.5 6.8.7 10.1 1 6.9.7 13.8 1.6 20.7 2.5 2.6.3 5.2 1.1 7.9 1.2 1.3 0 1.3 1.3 1.7 2.2.7 1.6 1 3 3.5 1.9 1.5-.7 3.6-1.2 5.6-.3 1.1.5.5.8-.1 1.1-.9 1.1-1.9 1.3-3 .5-2 .8-4.1.4-6.2.9-.6-1.5-2.1-1.1-3.2-1.4-11.7-3-23.4-5.9-35.1-8.9-.7-.2-1.3-.5-1.9-.7z"/><path class="st16" d="M485.2 226c-1.7 2-3.8 1-5.8.9-4-.2-7.8-1.7-11.9-1.7-1.2.9-2.6.7-4 .7-1.5-.1-3-.1-4.5 0-4.6 1.1-9.2-.3-13.7.2-1.5.1-3.1-.4-4.4-1.4-1.2-1.1-2.3-.2-3.5.1-1.3.2-2.7 1.4-4.1 0-.3-.6.3-.7.5-1.1 15.8.4 31.6 1 47.3 2.1 1.4-.1 2.8-.3 4.1.2z"/><path class="st12" d="M270.8 281.4c.4-.9 1.2-1 2.1-1 3.5 0 7 0 10.3-1.4.2-.1.6-.2.7-.1 1.9 1.8 4.8 2.2 6 4.9-4.9-.6-9.9-1-14.8-1.7-1.4-.2-2.9.3-4.3-.7zm-33.7-4.1c2-2.1 4.9-1.6 7.4-2.3.7-.2 1.7.2 2.6-.3.5-.3 1.4-.4 1.4.3.1 3.6 3 2.5 4.9 2.9 1.4.3 2.9.2 3.3 2-6.5-.8-13.1-1.3-19.6-2.6z"/><path d="M246.2 240.8c-.2.3-.4.5-.6.8-2 3-2 3.7-6.9 1.2-3.5-1.7-7.2-2.9-11-3.7 0 0-.1-.1-.1-.2s.1-.1.1-.2c6.1.4 12.3 1.1 18.5 2.1z" fill="#272829"/><path class="st9" d="M342.1 295.5c1.6-.3 2.9-1.4 4.5-1.9 2.9-.9 5.3-.8 7.2 1.8-.7.4-1.3.8-1.2 1.9.2 1.4-1.4 1.6-2.2 2.4-.1.1-.6-.1-.8-.3-.3-.3.1-.6.2-.9.5-.8 1.7-1.1 1.6-2.6-1.7.4-3.3.8-4.8 1.5-1.5-.3-3.1-.9-4.5-1.9z"/><path class="st16" d="M428.3 224.1c-1.2.7-2.5.8-3.6.3-3.7-1.4-7.4-.1-11.1-.2-4.9-.2-9.7 1.3-14.5.3 5.9-1.6 11.9-1.5 17.9-1.5 5.3.1 10.7-.2 16 .4-1.4 1.2-3.1.4-4.7.7z"/><path class="st7" d="M596.4 380.4c-2.5-1-5-2-7.7-3 .8-1.3 1.8-1.8 3.2-1.4 2.3.6 4.7 1.3 7 1.9-.7 1.1-1.5 1.9-2.5 2.5z"/><path class="st12" d="M332.2 291.7c.6-2.6 2.9-3.6 4.6-5 1.8 3.3-.3 4.5-2.5 5.8-.9.1-1.5-.5-2.1-.8z"/><path class="st13" d="M47.5 238.7c.9 1.2.1 2-.5 2.9-2.5-.8-5.2-.6-7.5-2 2.5-.8 5.3-.9 8-.9z"/><path d="M229.6 285.9c-1.2-.2-2.3 1.7-3.1.6-.9-1.1 1.9-.8 1.6-2.1.4-1.4-1-1.2-1.6-1.7-.7-.6-1.6-.9-2.4-1.3.6-1.7 1.6-2 2.9-.7.6.6.7 2.1 2.1 1.1.1 0 .2.1.2.1 1.6 1.3 2.7 2.5.3 4z" fill="#6b6c6d"/><path class="st12" d="M324.2 288.4c.2-3 .5-2.6 3.2-1.9 3.4.8 1 2.2.9 3.4-1.5-.2-2.8-.8-4.1-1.5zm-65.4-8.5c1.7-1.9 6.2-1.3 7 .9-2.4.1-4.7-.3-7-.9z"/><path class="st7" d="M591.4 384c-1.3-1.1-2.7-1.8-4.4-2.3-.5-.1-.9-.5-.9-1.1 0-.4.5-.8.9-.7 1.9 1 4.3 1.2 5.3 3.5-.3.3-.6.5-.9.6z"/><path d="M34.9 239.6c-1.1.4-2.4-.2-3.5.5-3.4.7-6.8-.6-10.2-.7 4.6-.2 9.2-.5 13.7.2z" fill="#8d8c8b"/><path class="st7" d="M545.5 381.4c-.5-1-.8-2 .5-2.4 1.6-.6 2.7.4 3.9 1.7-1.5.3-2.8.6-4 .8h-.2l-.2-.1z"/><path class="st22" d="M428.3 224.1c1.5-1 3.2-.2 4.7-.6h.9c-.2.4-.3.7-.5 1.1-1.7-.2-3.5.5-5.1-.5z"/><path class="st12" d="M233.1 276.8c.1-.8.5-1.5 1.3-1.4 1 .2 2.1.5 2.2 1.9-1.2.2-2.4 0-3.5-.5z"/><path class="st7" d="M581.3 387.5c-.6-.5-1.9-1.2-1.2-1.7 1.2-.9 2.4 0 3.2 1.2-.6.5-1.2.6-2 .5z"/><path class="st6" d="M376.3 332.7c1.1.1 2.4-1.6 3.2.4-1.1.1-2.1.1-3.2-.4z"/><path class="st9" d="M471.6 295c-.2 1.3-1.1.9-1.9.8-5.1-.9-10.3-1.4-15.3-2.7-.7-.2-1.6-.3-2.2.3-1.1 1-2.6 1-3.5.5-2.4-1.1-5.5 0-7.3-2.5-.1-.2-.6-.3-.9-.2-4 1.4-8.1.4-12.2.7-1.8.2-3.8.2-5.7.2-1.2 0-2 1.2-3.5 1.3-2.5.1-4.8-.7-7.2-.4-1.1.1-2-.3-2.8-.9-.6-.4-1.2-1-2-.7-1.6.7-3.1.8-4-1-.1-.2-.8-.3-.9-.2-1.8 1.7-4-.1-6 .8-1.4.6-2-.9-2.5-1.9.2-.3.4-.8.5-.8 2.3.6 4.5-.6 7 .6 2.8 1.3 6.1 1.7 9.3 1.2 2-.4 3.7.2 5.5.7 2.4.7 5 .7 7.4 0 3.1-.9 6.1-.7 9.3-.1 2.6.5 5.6.7 8.1-1.2 1.1-.8 1.6-.8 1.8.6.2 1.6 1.1 2.1 2.6 2 4.5-.1 9-.1 13.4 1 2.4.6 2.3-2.1 3.7-2.7 1.7 4.2 6.2 3 9.3 4.6zm-79-6.1c-2.2 3.2-8 3.7-10.8.9-.8-.8-1.5-.9-2.4-.9-5.7.2-11.4-.1-17.1.3-.3 0-.6-.2-.9-.3 0-.9-1.4-1.5-.4-2.7.9-1.1 1.9-.6 2.9-.5 1.2.2 2.5.1 3.8.1.9 0 1.8.1 2.5.8-.7 1-1.7-.3-2.7.9 4.4 1 8.6.2 12.8.3 4.1.2 8.1 1.5 12.3 1.1z"/><path d="M333.8 260.3c-.3.2-.6.5-1 .6-1.9.7-3.2 1.7-2.2 4 .2.3.1.8-.5 1.4-1.7-2.9-4-2.8-6.7-.9 2.2-2.4 2-4.4-.4-6.1.3-.2.6-.5.8-.5 2.6.8 4.3-.1 5.2-2.5.7 0 .8.4.8.7-.2 2.1.7 2.9 2.7 2.7.4 0 1 0 1.3.6z" fill="#d4d7db"/><path class="st9" d="M507.3 299c-4.9.1-9.7-.9-14.5-1.3-3-.3-6.1-.6-9.2-.7-.7 0-1.3-.1-1.4-1 2-.1 4.2.5 6.1-.9.3-.2 1 0 1.4.2 2.6 1.5 5.5 1.7 8.5 1.7 3.3 0 6.5 1.1 9.7 1.5-.3.2-.4.3-.6.5zm-148.9-11.1c-.7.3-2.4-2.1-2.3.8 0 .7-1.1.9-1.8 1.1-.9.2-1.8.6-2.7.5-.9-.1-2.1 1.3-2.6-.1-.4-1.1.9-1.6 1.7-2.1 1.6-1 2.4-2.2.6-3.8 2.6.9 5.4 1.1 7.1 3.6z"/><path d="M272.6 257.8c-.3-2.1.3-3.8 1-5.4.6-1.4 2.1-.5 3.1-.1 1 .3 1.2 1.5.5 2.1-1.3 1-1.1 2.3-.9 3.6-1.8-.2-.9-2.1-2-2.6-1 .4-.4 1.7-1.7 2.4z" fill="#d1d1d2"/><path d="M295.2 260.2c-1.4-.3-.6-2.1-1.7-2.5-1 .3-.5 1.7-2.2 2.4.6-2.2.7-4.1 1.5-5.6.6-1 2.2-.5 3.2.1.9.6 1 1.8.1 2.3-1.5.9-.3 2.3-.9 3.3z" fill="#d6d7d8"/><path d="M286.4 257.4c.7-1.3-.1-3.8 2.8-3.7 1.2 0 2.4.4 2 1.8-.4 1.6.1 4-2.6 4.1-1.3 0-2.3-.5-2.2-2.2z" fill="#d3d4d4"/><path d="M306.4 261.3c-1.6.2-3.6.5-4-.5-.6-1.5.1-3.6 1-5 1-1.4 2.7-.2 4.1 0-.2 1.2-1 .8-1.6.7-.6 0-1.2-.5-1.6.2-.5.8.2.9.7 1.2.3.2.3.6-.1.8-.6.2-1.6 0-1.3 1 .2.8 1.1.4 1.7.6.5.2.9.2 1.1 1z" fill="#c8cac9"/><path d="M246.7 248.1c.9 1.9-.1 2.9-.1 4 0 .6-.2 1.2.5 1.4.8.3 1.2-.2 1.5-.9.4-1.2.3-2.6 1.5-3.5-.2 1.9.2 4-1.7 5.4-.9.6-2.2.5-2.7-.5-.9-1.9.2-3.6 1-5.9z" fill="#d3d3d3"/><path class="st29" d="M258.8 251.4c-.8-.2-1.1-.2-1.4-.4-.6-.3-1.4-.6-1.8.1-.5 1 .6.9 1.1 1.1.9.3 1.4.9 1.1 1.9-.2.9-.8 1.5-1.7 1.6-1.1.1-2.1-.1-2.3-1.4.8-.6 1.1.3 1.7.3.5.1 1 0 1.2-.6.2-.6-.2-.7-.7-.8-1.2-.2-1.8-.9-1.7-2.1.1-.7.7-1.2 1.3-1.3 1.3-.2 2.5-.2 3.2 1.6z"/><path class="st9" d="M403.6 265.8c0-.9.1-1.8 0-2.7-.5-2.4 1.1-2.3 2.7-2.3.7 0 1.3.4 1.5 1.1.2.8-.6.9-1.1 1.1-1.3.5-2 1.6-3.1 2.8z"/><path d="M265.1 256.4c.8-1.5 1.5-3.1 2.3-4.6.2-.4.5-.7 1-.6.5.1.5.6.5 1v5.1c-1.2-.9-2.2-2.5-3.5.1-.1-.3-.2-.7-.3-1z" fill="#d7d8d8"/><path class="st29" d="M302 256.5c-2.5-1.3-3.7-.5-3.8 1.9-.1 2.5 1.9.5 2.8 1.3-1.1 1.4-2.4 1.4-3.6.4-.9-.7-.1-4.3 1-5 1.2-.8 2.4-.4 3.6 1.4z"/><path d="M281.2 259.4c-.5-2.7 0-4.7.9-6.1.9-1.3 2.6-.1 4 .1-.4 1.1-1.1.8-1.7.7-1.4-.2-2.3-.1-.9 1.4.3.3.3.7 0 .7-1.6 0-1.3 1.6-2.3 3.2z" fill="#cccecd"/><path d="M124 231.1c-.1-.4-.4-1 .2-.9 2.2.4 4.4.9 6.6 1.4v.5c-1 .1-2 0-3 .3-1.6.4-2.8.1-3.8-1.3z" fill="#b3b2b1"/><path class="st9" d="M482.1 296c-2.4.5-4.7 0-7.1 0-.8 0-1.7.2-1.9-1h6.7c.9 0 1.9-.1 2.3 1z"/><path d="M321.8 261.2c-2.3 1.2-4.2.4-6.1-.9.2-.2.4-.3.5-.5 1.7-.9 3.3-.1 4.9.1.6 0 .9.6.7 1.3z" fill="#dab8c8"/><path d="M321.8 261.2c-1.6-1.6-3.8-.6-5.6-1.4 0-.4 0-.7.1-1.1 2-.1 4.1-.3 6 .7 0 .1.1.3.1.4-.4.4-.1 1-.6 1.4z" fill="#ad596d"/><path d="M334.3 261.1c0-.3-.1-.6-.1-.8 1.7 0 3.4 0 5.1.1.7 0 1.5.2.9 1.3h-.1c-1.9.3-3.9.9-5.8-.6z" fill="#dfbdcc"/><path d="M272.1 251.8c.2 2-.2 3.8-1.3 5.5-.3-2.1.1-3.9 1.3-5.5z" fill="#cdcdce"/><path d="M322.2 259.4c-2-.1-4-.1-6-.7 1.5-1 4.7-.6 6 .7z" fill="#f4cedd"/><path class="st9" d="M356.5 256.8c2.3-1.1 2.3-1.1 5.3-.1-1.2.1-1.8.1-2.5.1h-2.8z"/><path d="M123.4 233c-.7 0-1.7 1.3-1.9-.5 0-.4-.2-1.1.4-1.2.6-.2.7.6 1.1.8.1.3.2.6.4.9z" fill="#c0c0be"/><path class="st9" d="M381 259c-1.5.3-2.5.4-4-.7 1.6 0 2.7-.3 4 .7z"/><path d="M358.9 322.6c-1.4-1-3-.3-4.5-.5-.8-.1-1.7-.3-2.4-.2-2.9.3-5.6.4-6.1-3.5-.1-.6-.6-.7-1.1-.8-4.4-1-8.7-2-13.1-3h-.2c-1.3-.6-3.9-.5-3.7-1.8.2-1.5 2.8-1.4 4.1-1 4.3 1.3 8.4-.7 12.6-.4 1.7.1.5 1.6 1.6 2 .4-1.8 1.9-1.9 3.5-2.3 2.8-.7 5.5-1.4 8.4-.4.8.3 1.7-.2 2.6-.6 1.6-.7 3.4-.9 4.8.7.7.8 1.3 1 2.3.2 2.4-2.2 5.1-1.2 7.7-.6.7.2 1.2.8 2 .9 1.5.2 3.1 1.1 3.7-1.3.1-.3.8-.4 1.8-.8-2.1-.4-2.2-1.4-1.8-2.9.7-2.4.9-4.9 2.1-7.2-.1-.2-.3-.5-.3-.7.5-2 1.8-2.3 5.5-1.5 1.8.4 2 1.5 1.6 3-.7 2.7-2.4 5-2.7 7.8-.3 2.9.1 3.6 3.2 3.6 2 0 4 .4 6 .1 1.4-.2 2.8-.5 3.9-1.5.7-.7 1.6-1 2.6-.9 3 .4 6 .3 9 .6.5 0 1 .3 1.3.6.8 1.3 1.4-.3 2.1-.2 1.8-.1 3.6-.5 5.2.6 1.8 2.6 3.9 4.5 7.3 2.9.5-.2 1-.2 1.5 0 2.9 1.2 6.1.7 9.1 1.7 1.1.4 2.3.5 3.5.3 4-.6 7.6.9 11.3 1.8 2.8.7 5.7 1 8.4-.5 1.4-.8 2.6-.7 3.6.5 1.1 1.3 2.3 1.6 4 1.3 2-.4 3.9.1 4.7 2.4.4 1.2 1.3 1.4 2.4 1.4 1.2 0 2.3 0 3.5-.3.5-.1 1.1-.5 1.5-.2 2.9 2.6 7.1.7 10.1 3.1.1.1.3.2.5.2 4.2.1 8.3 1.8 12.7 1.1 1.6-.3 3-.8 4.1-2.1 1.5-1.8 2.6-1.7 3.5.4.6 1.3 1.5 2 2.8 2.2 1.4.2 2.8.5 4.2.7 1.3.1 2.5-.1 3.1-1.5.5-1.2 1.4-1.9 2.8-1.5 1.2.3 1.9 1.2 1.8 2.4-.1 1.5.8 2.1 2.1 2.2.4 0 .8.1 1.2.2.9.2 1.7.6 1.6 1.6-.1 1.2-1 1.7-2 1.4-3.2-.8-6.3 1.3-9.4 0-.6-.3-1.3.1-2 .1 1.5 1.3 3.2 1.4 5 1.3 3-.2 6-.2 9 .4 3.3.6 7 .4 9.6-.9 3.1-1.6 5.5-.9 8.3-.3.4.1.7.4.9.7.4.6.1 1.2-.1 1.8-1.7 1.9-4.1 2.8-6.5 3.5-.7.2-1.5.1-2.6.2 1.6 1.5 3.3 1.4 4.8 1.6 3.5.4 6.3 2.4 9.4 3.8-5.6-1.6-11.1-3.4-16.8-4.6-5.9-1.2-11.8-3-17.9-3-2.1 0-4.1-1.5-6.2 0-2.6-1.9-5.2-1.1-8-.5-2 .4-3.7-1.2-5.5-1.8-3.1-1.1-6.4-.2-9.3-1.8-1-.6-1.9-.3-2.7.5-1 1-2.3 1.3-3.7 1.2-2-.3-3.9-.8-5.9 0-.2.1-.6.1-.7-.1-2.8-3-6.9-1.8-10.3-3.2-1.9-.8-3.8.5-5.7.4-.4 0-.8.3-1.2.2-7.7-2-15.8-1.6-23.6-3.2-2.5-.5-5.5-.4-8 .1-3.5.7-6.6-.8-9.8-1-1.1-.1-2-1.3-2.5-2.3-1-1.9-2.4-3.2-4.3-4.3-1.8-1-3.8-.8-5.7-1.1-1-.2-2.3.9-2.2 2 .4 3.4-2.5 2.8-3.8 2.7-2.1-.1-4.1-.1-6.2-.2-6.5-.3-13-1.2-19.5-1.9-1.9-.2-4.3-1.1-6 .8-4.2-.2-8-1.1-11.9-.8z" fill="#2f3233"/><path class="st9" d="M551.1 335.2c-.8-.5-.2-1 0-1.5 1-1 .8-2.3 1-3.5.1-.8-.4-1.2-1.1-1.4-3.5-.6-6.8-2.2-10.5-2.3-1.6-.1-2.7.1-2.5 2 .1 1.4-1 2.2-2 2.9 3.1 1.4 3.6 1.2 4.4-1.7.6-2.1 2.7-2.9 5.9-2.1 1.4.4 2.9 1 4.1 1.9 1.5 1.1 1.5 2.1.2 3.6-.6 0-1.1.2-1.7.1-2-.3-4.3-2.4-5.8.7-.1.1-.5.2-.7.2-4-.3-8 1.4-12.1.2-1.5-.4-3.2-.2-4.8-.1-3.2.1-6.5.4-8.8-2.2 3-.9 3-1 5.7-.1.8.3 1.5 0 2.2-.2 1.5-.5 2.9-.8 4.4-.3.9.3 2.1.6 2.2-.7.1-1.2-1.1-1-1.9-1-.9 0-1.8.1-2.7-.4-.8-.5-1.1-1.2-.7-2.1.6-1.3-.2-1.9-1.2-2.3-1.3-.4-2.1.4-2.2 1.4-.1 2.1-1.4 1.9-2.7 1.9-2.3 0-4.5-.6-6.7-1-1.4-.3-1.8-1.3-1.8-2.6 0-.5-.2-1-.8-1.2-.6-.2-1 .2-1.2.6-2.6 4.5-6.9 3.1-10.7 2.9-1.5-.1-3-.7-4.6-.6-1.4.1-3-.1-4.2-1.3-1.5-1.7-3.6.2-5.2-.8-.2-.2-.8.1-1-.1-2.5-2.6-5.5-.5-8.2-.9-1-.2-2 0-2.3-1.4-.6-2.4-2-3.3-4.3-2.4-1.9.7-3 .1-4-1.3-1.1-1.6-2.1-1.6-3.3-.2-.5.6-1 1.2-1.9.8-1.5-.6-3-.9-4.6.1-.2.1-.7.2-.9 0-4.4-2.8-9.5-2.3-14.4-2.9-3.5-.4-7.2-.3-10.5-1.9-.7-.3-1.3 0-1.9.3-2.9 1.2-6-.2-7-3.3.3-.5.9-1 1.4-.9 3 .9 6.1-.7 9.2.4 1.7.6 3.5.2 5.2.3 4.2.1 8.3.4 12.5 1.2 3.9.7 7.9.1 11.8.6.3 0 .7-.1 1-.2 1.8-1.2 3.3-1.4 5.1.3 1.4 1.4 4.2.7 5.8-.8 1.1-1.1 2.4-1 3.1.2.4.7.2 2 1.4 2.2 1.3.2 2.8.3 3.9-.4 1.8-1 3-1.4 3.7 1.1.1.5.6.8 1.2.8 5.8-.1 11.4 1.6 17.2 1.1 1.2-.1 2.1-.3 3-1.3 2.1-2.5 6.9-1.5 8.2 1.5 1 2.1 3.2 2.9 5.1 3.1 5.1.5 10.1 1.6 15.2 1.2 1.3-.1 2.9.2 3-1.8.2-1.9-.7-2.9-2.6-3.3-2.5-.5-4.9-1-7.4-.8-2 .2-4-.2-4.8-2.5 2.6-1.2 5.2.2 7.8.3 3.5.2 7.3.3 10.6 2.1.7.4 1.4 0 2.2-.2.9-.2 1.7-.7 2.6-.1.3.7.8 1 1.5 1 2.1-.5 4.1 0 5.7 1.1 1.3.9 1.7.2 2.3-.6 4.1-.1 8.3-.6 12.1.8 4.2 1.5 8.8.3 12.6 2 3.6 1.6 7.3 2.1 11 2.8 5 .9 9.9 3.1 15.1 2.6 1.3-.1 1.9.6 1.5 1.7-1.2 3.2-.8 6.8-2 10-.5 1.5-.1 2.5 1.2 3.2-.3.9-1.6.6-1.6 1.6.1 3.1-2.1 2.1-3.7 2-5-.3-9.6-2.6-14.7-2.6-.5 0-1-.1-1.5 0-3.2.4-3.3.3-3-3.1.1-.6.1-1.2-.6-1.5-.6-.3-1.3.1-1.5.5-.5.9-1 1.4-1.9.6-1.7-1.5-3.8-1.5-5.8-2-2-.4-2.5-1.4-1.5-3.2.4-.8 1.3-1.4.5-2.4-.7-.9-1.6-1-2.7-.6-1.2.4-2.5 0-3.6.8-.4.3-.8.7-.7 1.2.1.7.7.7 1.2.6.8-.1 1.6-.4 1.6.8 0 .9-.9.7-1.3 1-2.7 2.1-5-.7-7.6-.3-1.6.3-3.3-.1-4.1 2-.9 1.7-2.1.1-3.1.1z"/><path d="M522.4 313.1c1.9 1.1 3.7 2 6.2 1.6 2.7-.5 5.4.8 8.1 1.4 2.7.6.7 2.9 1.6 4.3.4.6-1.2 1.7-2.3 1.7-3.4-.2-6.9.8-10.2-.7-.6-.3-1.3-.1-2 0-3.8.4-7.1-1.1-10.4-2.5-.6-.3-.7-.9-.4-1.5.3-.6.1-1.1-.3-1.6-1.7-1.5-3.6-.3-5.5-.5-1-.1-1.3.6-1.2 1.7.1 1-.9.7-1.5.7-5.6 0-11.1.3-16.6-1.3-.2-.1-.5-.1-.7-.1-1.1.1-2.3 1.4-3.2.5-.7-.7-.7-2.1-1.2-3.6-1.5 2.9-4.2 1.7-6.3 2.2-.9.2-2.2-.6-1.7-2.1.3-.8 0-1.3-.8-1.5-.9-.2-1.4.2-1.5 1.2 0 .5-.2.9-.7 1.2-1.7.7-5.8-.2-6.9-1.7-.7-.9-1.2-.7-1.8 0-1.4 1.4-3 1.6-4.9 1-.7-.2-1.5-.2-2.2-.2-5.1.4-10.1-.9-15.1-1.4-.8-.1-1.7-.1-2.5-.1-5.4 0-10.8-.4-16.1-.9-.6-.1-1.3.2-1.9.4-1.8-1.1-3.7-.2-5.5-.5-.5-.3-1 .2-1.5 0-.9-.6-1.9-.5-2.9-.5-1.9-.1-3.8 0-5.8-.4-1.6-.3-3.3-.3-4.5 1.3-1.4 1.7-3.5 1.1-5.3 1.3-1.6.1-3.3-.1-5-.1-2.8.1-3.4-1.1-3.3-3.8.2-3.1 1.7-5.7 2.8-8.4.6-1.6.5-2.4-1.4-2.4-.6 0-1.2-.1-1.7-.3-1.7-.6-2.8-.1-3 1.8-1.5-1-3.2-1.1-5-1-2.2.1-3.3-.8-3.1-3h3.5c1.2 0 2.4-.2 3.5.5h3c1.5.1 3.1-.2 4.5.5 3.8.1 7.6.7 11.4.6 1.1 0 2.5.1 3.4 1.3.6.8 1.5.6 2.3.7 1.2 1 3 1 3.7 2.5 0 1.4-1.5 1.6-2 2.7 1.1.9 1.9 1.2 2.1-.6.1-.7.3-1.5.3-2.2 1.5-2.3 2 .1 3 .6.3 1-.3 1.7-.5 2.6-.2.8-.1 1.3.7 1.6.6.2 1.2 0 1.6-.5.6-.7-.3-.9-.6-1.3-.6-.7-1.8-1.5.1-2.1-.4-.1-.9.1-1.2-.4.9-1.5 2.5-1.7 4.1-1.9h4.5c1 .7-.2 2.8 1.4 2.8 1.6 0 1.2-1.9 1.8-2.9.1-.1.2-.3.3-.4.9-.9 2-.3 3-.5 2.7.3 5.5-.4 8.1 1 1.6-.2 3 .4 4.5.5.7-.6 1.5-.7 2.4-.6 7 .8 14 1.4 21 1.9.9.1 1.9.2 2.3 1.2.3.9-.5 1.3-1 1.8-1.4 1.2-.6 2.9-1 4.2.9-1.6 2.2-2.9 2.3-5 .1-1.8 2-1.8 3.4-1.6 5.1.6 10.3 1 15.5 1.7 2.2.3 4.5.1 6.7.6.8.2 1.7.2 2.3.8.2.4.6.5 1 .5 1.6-.7 3.2-1.3 4 1l1 1c4.6 2.8 9.4 4.4 14.8 4 1.8.3 4.1-.3 6 1.2z" fill="#48494c"/><path class="st14" d="M616 244.2c3.7.1 6.8 1.9 10.1 3.4.4.2.9.6.7 1.2-.2.6-.8.5-1.3.5-4-.2-8 .6-11.9-.7-1.1-.4-2.3-.1-2.6.8-.4 1.1 1 1.4 1.6 1.3 4.3-.3 7.5 2.9 11.5 3.7 1.7.3 3.2 1.5 5 .5-.1.9.3 1.8-.5 2.5s-2.7-.4-2.8 1.2c0 1.6 1.9.7 2.7 1.3.1 1.4-.1 1.9-1.9 1.9-4.1 0-8-1-11.7-2.6-.6-.3-1.3-.2-2-.3h-2.5c-1.7 0-2.4-1.5-3.7-2.2-.8 1.7-2.6 1.6-3.6 1.1-2.7-1.3-6.2-1.1-8-4.3-.7-1.2-2.2-.6-3.4-.3-2.9.8-6.1-.4-7.5-3.1-.7-1.4-1.9-.8-2.8-1-2.9-.4-5.8-1.1-9.1-.7.8 1.2 1.6 1.5 2.5 1.2.8-.2 1.5-.1 2.1.5.5.5 1.5.9 1.1 1.7-.3.8-1.2.3-1.8.1-1.7-.4-3.5-.3-5.2-.2-2.6.2-2.1 2.3-2.2 4h-1c-.8.6-1.7.6-2.5 0v-.5c.4-.1 1.1-.1 1.1-.3.2-.8-.5-.6-.9-.7-2.1-.2-4.3-.4-6.4-.5-1.5-.1-2.6-.5-2.9-2.2-.3-1.6-1-1.5-1.9-.3-1.5 2.1-3.5 2.6-5.9 1.7-.1 0-.2-.1-.2-.1-3.9.4-5-1.9-4.9-5.3-1 .4-1.3 1.2-1.3 1.8-.3 2.7-2 3-4.1 2.8-5.9-.6-12 0-17.9-1.5-.5-.1-1.3-.1-1.4-.4-1.3-3.1-2.7-1.2-4.5-.5-3.7 1.6-7.5 1.3-11.1-.6-1.9-1-1.7-2.9-2-4.6-.1-.6.1-1.3-.6-1.5-.8-.3-.9.6-1.2 1-.5.6-1.2 1.1-1.3 2.1 0 2.7-2.1 2.8-3.9 2.7-1.3-.1-2.7-.3-4-.2-4 .4-6-1.9-6.7-5.3-.1-.5.2-1.3-.5-1.5-.8-.2-1.4.6-1.5 1.1-1.1 3.3-3.6 3.2-6.3 2.7-1.1-.2-4.1-2.7-4.3-3.7-.1-.8.2-2.2-1.2-2-1.2.1-.8 1.4-.9 2.3-.2 2.3-1 2.9-3 2.4-1-.2-1.5-.7-1.5-1.7 0-.6.1-1.2-.1-1.7-.3-.7-.1-2-1.2-2-1 0-1.1 1.1-1.2 1.9-.5 2.5-1.9 3.8-4.3 3.4-3.2-.6-6.4.2-9.6-.3-3.1-.5-6.5 0-7.8-3.8-1.4.5-1.6 1.9-2.5 2.6-2.1 1.8-3.7 1.4-4.9-1-.8-1.7-2.2-3.3-2-5.4 3.1.4 6.3 0 9.4.1 3.2.2 6.6.6 9.4 2.9 2.3 1.9 5.1 1.4 6.7-1.1.6-1 1.4-1.8 2.5-1.8 2.3 0 4.6-1 6.9.2.4.2.8.2 1.2.2 8.5.3 16.9.7 25.3 2.2 2.2.4 4.5.4 6.7-.2 1.4-.4 2.6-.3 3.8.6 2.4 1.8 5.7 1.8 8 4 .9.9 2.1-.2 3-.7 2.2-1.3 4.1-1.5 5.9.7 1.3 1.5 3.4 1.7 5.2 2.4 1 .4 1.9-.4 2.7-1.1 1-1 2.1-1.4 3.4-1 3.1 1 6.4-.5 9.4 1.1 1 .5 1.4-.6 1.8-1.3 1-1.6 2.2-1.6 3.2-.3 2.3 3 5 3.3 8.2 1.7 1.6-.8 3.2-.6 4.8.1 3.5 1.5 7.2 1.4 10.9.6.5-.1 1.1-.2 1.2-.8.2-.7-.4-1-.9-1.3-.5-.3-1-.7-1.6-.7-3.5-.2-6.8-1.7-10.4-1.8-2.5-.1-4.9-1.1-7.4-1.5-.6-.1-1.6-.2-1.2-1.4 1.3-.9 2.9-1 4.3-.7 4.8 1.3 9.8 1.5 14.8 2.3 2.5.4 4.8 1.8 7.4 2.3 1.4.2 2.9.4 4.2 1.1.8.6 1.1 1.6 1.8 2.2.8-.3.6-1 .9-1.4.1-.2.3-.4.5-.5 3.7-1.9 7.5-1.5 11.2-.3 1.7.6 3.4.9 5.1.6 1.5-.3 3-.2 4.5.3 3.8 1.2 7.8.9 11.6 1.4 1.7.3.8-.9 1.1-1.5z"/><path class="st9" d="M622.5 305c1.1 1 2.4.3 3.6.5.9.1 2 0 1.4 1.5-.5.6-1.2.9-2 .5-.5-.7-1.2-.9-2-.5-.7.6-1.3.6-2 0-1.2-.7-1.6.2-1.5 1 .4 2.4-1.3 3.2-3 4-.8.4-1.5 1.1-2.3 1.4-1.1.5-.9 1.3-.3 2.6-3-1.5-5.5-1.2-8 .2-1.3.7-4.6-1.1-5.4-2.9-.8-1.8-1.3-2.9-3.6-1.4-1 .7-2.8.3-4.1 1.2-.5.3-1.1-.2-.9-.7.4-1.4.3-2.5-1.4-2.3-1.6.2-3.6.7-2.9 3.1.4 1.4-.8 1.7-1.4 2.4-.2.1-.3.1-.5 0-.5-.8-.9-1.6-1.5-2.3-1-1.3-2.3-1.6-3.7-.7-1.7 1.1-3.6.7-4.1-1.3-.4-1.4-.8-3-.3-4.6.1-.3.4-.7.4-.9-1.6-3.7.7-1.8 2.3-1.9 2.7-.2 5.1.1 7.7 1 2 .7 4.6.1 6.9-.4 4.4-.9 8.7.3 12.6 1.6 2.1.7 3.2 2.4 5.4.2.7-.7 2.6-.4 3.8.3.7.3 1.5 1 2.3.2.8-.8.6-1.9.3-2.9-.4-1.3-1.1-2.6-.3-4.1.2-.4.5-.6 1-.7 1.1 1.2.6 2.7 1.1 4.1 0 1.5 1.8.9 2.4 1.8z"/><path class="st14" d="M586.3 315.6h.5c2.9.5 5.8.8 8.5-.7.3-.1.8-.2.9 0 2.3 2.1 5.4 1.3 8.1 2.7-3.5-1.3-5.4 1.9-8.2 2.7-2.1.6-3.7-.4-5.5-.6-1.4-.2-2.7-.5-4.2-.5-1.9 0-3.8 0-5.5-1.3-1.5-1.1-3.4-.7-5.1-.8-4.5-.4-9-.8-13.4-1.5-4.6-.7-9.4-.2-13.8-1.8-.2-.1-.3-.1-.5-.1-6.1 1.8-11.4-2.2-17.3-2.1-5.8 0-11.5-1.9-17.5-1.3-1.6.2-2.8-1.8-4.6-1.6-1-1.1-4-.2-3.5-1.7.5-1.6 3.2-.9 4.9-1.1 4.8-.6 8.9 2.1 13.6 2.6 2.5.2 4.8-.6 7.4-.1 2.4.5 4.7 1.5 7.3 1.4 1.1 0 2.3.4 3.3-.3.4-.2.8-.3 1.2-.1 3.2 1.8 6.8 1.7 10.3 2.3 4.4.8 8.9.7 13.3 1.2 1.5.2 3.4 1.1 5.1 1.6.6.2 1.4.4 1.9-.2.5-.6.3-1.3-.2-1.8-.4-.6-.7-1.2-.4-1.9.9-1.9.9-4 1-6.3 1.1.4 1.5 1.5 1.2 2-1.2 2.6.9 4.8.7 7.3-.1 1 .6 1.5 1.6 1.6 2.9 0 5.9.6 8.9.4z"/><path class="st41" d="M619.5 303.5c-.8-1.4-.4-3-.5-4.5v-.5c1.3-1.3 2.8-.5 4.3-.5 3.5 0 6.9.9 10.3 1l.5.5c1 .8 2.2 1 3.5.9 2.5-.2 4.9 0 7.4.5 2.1.4 4.3.2 6.4.3 1.6.1 2.7.5 2.9 2.4.2 1.7.7 3.4-1.7 3.9h-.5c-.8.4-1.8.6-2.7.5-1.3-.3-2.5-.1-3.8.4-1.2.4-2.9 1-3.4-1.3-.2-.8-1.2-.7-1.9-.9-3.3-.5-6.5-1.1-9.8-1.2-1.6.2-3-.4-4.5-.5-1.2-.5-2.4-.2-3.7-.1-1 .2-2.2.4-2.8-.9z"/><path class="st12" d="M522.4 313.1c-2.2-.3-4.4-.7-6.5-1-.3-.3-.8-.3-1.2-.2-4.2.6-7.6-1.6-11.2-3-.5-.2-1.4-.4-1.2-1.3 2.2-.1 4.2 1.5 6.5 1 3 3.4 7.4 2.3 11.1 2.9 5.9 1 11.9 1 17.7 2.3 2.7.6 5.4.2 7.9 1.3-.6.2-1.3.2-1.9.5-1.5.6-2.7.7-4.4-.1-3-1.4-6.4-1.4-9.7-1.8-2.3-.4-4.7-.5-7.1-.6z"/><path class="st14" d="M630.6 305c3.5-.3 6.9.7 10.4.6.8 0 2.3-.3 2.1 1.8-.1 1.3 2 .8 2.3.5 1.4-1.6 2.8-1 4.3-.4.7.3 1.6.1 2.5.1-3.5 1.6-7.3 2-11.1 1.8-1.9-.1-3.4 0-4.8 1.2-.5.4-1.1 1-1.8.7-.7-.3-.1-1-.1-1.5.1-2.2-2.4-.6-2.8-2.4 2-.7 4.3-.1 7.4.1.3.2-.3.2-.9-.2 0 .2-.1.4 0 .5.6.5 1.3 0 1-.3-2.1-2.1-3.9-1.6-5.5-1.9-1-.2-2.1.3-3-.6z"/><path class="st9" d="M542.8 356.9c3.9-1.7 7.7-.4 10.7 1.8 1 .7 2 1.7 3.1 2.5 1.5 1 .6 2.9 1.4 4.2-1.1.6-1.8-.2-2.7-.6-.7-.3-.9-1.1-1.7-1.3-3.2-1.1-3.5-1.8-1.8-4.3.3-.2-.3-.2-.1-.1-3 1.6-5.6.8-8-1.2-.3-.2-.5-.4-.8-.6l-.1-.1-.2-.1.2-.2zm29.4-50.5c.1.9-.3 1.7-.6 2.4-1.1 2.1-2.4 2.3-3.9.4-1-1.2-1.4-2.8-2.3-4.1-.9-1.4.1-2.4 1.8-2.2.8.1 1.7 0 2.5.2 1.6.5 2.8 1.4 2.5 3.3z"/><path class="st14" d="M652.7 307.5c2.7-1.2.6-3.3.7-4.9.1-1.2-1.7-1.2-2.9-1.1-3.7.1-7.4-.2-11.1-1-1.1-.2-2.1.6-3.2.4-.9-.2-1.8-.5-2.2-1.4 1.3.4 2.6.5 3.9.5 5.7.2 11.4.5 17 1.5 1.2.2 3.4.4.9 2.3-1 .7.1 1 .6 1.4.7.4 1.8.6 1.6 1.7-.3 1.3-1.5.6-2.4.7-.9 0-1.9-.1-2.9-.1z"/><path d="M578.2 264.3c1.7 1.4 2.3 6 1 7.7-1.5 1.9-3.3.9-5 .3 0-.6-1.2-.8-.5-1.6 1.1-.5 2.1.3 3.4 0-.5-1.1-2.2-.7-2.3-2-1.9-1.1-1-2.6-.4-3.8.6-1.3 2-1.6 3.3-.7.2.2.3.2.5.1z" fill="#bdbfbe"/><path class="st9" d="M577.7 264.3c-3.5.2-4.3 1.5-2.9 4.5-1.5.5-2.4-.8-3.7-1-.1-1.1.3-1.9 1.6-2.1.4.4.8 1.7 1.1 0 .3-2.2-1.5-3.1-2.9-4.3-.3-.2-.9-.1-.8-.7 0-.5.4-.7.8-.8 2.1-.7 6.4 2 6.8 4.4z"/><path d="M572.6 265.7c-.5.7-1 1.4-1.6 2.1-.8 1.1-1.6 2.3-2.5 3.3-.5.5-.8 1.8-1.9 1-.9-.7.4-1.1.5-1.8 0-.2.3-.4.5-.6.4-.4.4-1.1 1-1.4.6-.9 1.3-1.8 1.9-2.8-1.4-.7-3.9.6-3.6-1.6.2-1.6 2.4 0 3.7-.2 1.3-.1 1.5 1.2 2 2z" fill="#b9bbbc"/><path class="st10" d="M547.3 266.8c0 .2-.1.4-.1.5-2.2.8-2.2 4-4.8 4.4-1 .2-1.6 1.1-2.1 2-.3.7-.6 1.4-1.4 1.7-.5.2-1.1.7-1.6.2-.6-.5 0-1 .2-1.5.9-2 2.9-2.6 4.4-3.9 1.3-1.1 2.6-2.3 4-3.4.5-.4 1-.7 1.4 0z"/><path class="st14" d="M577.3 301c-2.5 2.6-4.9 1.1-7.2-.1-1.1-.5-2-.4-3.2-.1-1.3.3-2.8.7-4.3-1.5 5.2 1.3 10.2-.9 14.7 1.7zm1.1.4c4.1-.9 7.4 0 10.8.2 1.1.1 2.1.3 3.1-.3.5-.3 1.1-.4 1.7-.2.6.2 1.1.6 1.1 1.2 0 .9-.8.6-1.3.7-3.5.1-7-.3-10.4-.8-1.5-.2-3.1.5-5-.8zm-22.3-16.8c-.2-1.4.3-2.4 1.4-3.3.7-.6 1.4-1.3 2.2-.7.9.7.7 1.9.2 2.7-.7 1.2-2 1.9-2.5 3.4-.2.6-.9.4-1.1-.1-.2-.6-.2-1.3-.2-2z"/><path class="st9" d="M604 321.6c2.1-.7 4.5-.2 6-2.2.2-.3.7-.2.8.2.2.8.4 1.6.5 2.4 0 .3-.4.5-.8.3-1.3-.6-2.2-.1-2.9 1.2-.3.6-1 .6-1.5.1-.6-.6-1.2-1.2-2.1-2zm-101.7-14.1c2.8 2 6.4 2.2 9.3 4 1.2.7 2.9-.7 4.3.5-3.3.9-6.4-.5-9.5-1.3-2-.5-4-1.3-5.1-3.2h1z"/><path d="M565.2 268.3c0 .1 0 .2-.1.2-.6 1 .2 3.1-1.3 3-.9-.1-.8-2.3-.7-3.6 0-1.1.8-2.2.7-3.4 0-.5-.4-1.2.6-1.3 1.1-.1 1.2.6 1.2 1.4-.7 1.2.5 2.6-.4 3.7z" fill="#b3b5b6"/><path class="st14" d="M555.1 316.6c.1 1-.4 1.9-.9 3-1.7-3-4.6-2.9-7.2-3.5 2.8-1.2 5.4.1 8.1.5zm78.5-17.6c-4.2.1-8.3-.4-12.4-.8-.7-.1-1.5.2-2.2.3 1-1.7 2.7-1 4.1-1 3.5.1 7 .8 10.5 1.5z"/><path class="st9" d="M538.4 286.9c-.9.6-1.7 1.3-2.7 1.9-.2.1-.8-.3-.6-.5 1-1.5.6-2.9-.1-4.3-.1-.3 0-.7.4-.7.3 0 .7.2.8.4.2 1.3.5 2.4 2 2.7.1-.1.1.2.2.5z"/><path class="st14" d="M522.8 294.8c-2.1.5-3.8-.5-5.5-.4-.6.1-1.1-.5-.7-1 .6-.8 1.5-1.6 2.5-1 1 .9 2.2 1.4 3.7 2.4zm87.5 10.2c-.2.6-.4 1.5-.9 1.3-1.2-.5-2.6-1.1-3.2-2.4-.3-.5.6-.9 1.2-.8 1.3.1 2.3.6 2.9 1.9z"/><path class="st9" d="M574.8 268.7c.6.4 1.3.7 2.1.7s1.5.2 1.3 1.3c-.2 1.2-1.1 1.1-1.9.9-.9-.2-1.5-1.1-2.5-.9.6-.5 1-1.1 1-2z"/><path class="st12" d="M538.8 298c1 0 2 0 2.1 1.2.1.9-.6 1.3-1.5 1.3-1.1-.1-2-.8-2.1-1.8-.2-1 .9-.6 1.5-.7z"/><path class="st45" d="M542.8 356.9c0 .1 0 .2.1.4-2.7.2-4.5-1.9-6.6-3.1 0 0 .2-.5.3-.8h.7c1.7.4 3 1.3 4.2 2.6.4.3.9.6 1.3.9z"/><path class="st9" d="M626.2 315.9c-.8.1-1.1-.3-1.1-.9.1-1.2.7-1.8 1.9-2 .8-.1 1.8.4 1.7 1.1-.2 1.5-2.2.6-2.5 1.8z"/><path class="st12" d="M527.3 299.9c.1.8-.4 1-1.1 1.1-1.1 0-1.8-.4-1.8-1.6 0-.8.4-1.4 1.2-1.3 1.2 0 1.4 1 1.7 1.8z"/><path class="st14" d="M546.4 281.9c-.3 1.3-1 2.3-2.2 2.8-.3.2-.7-.2-.6-.6.4-1.3.7-2.7 2-3.3.6-.3.6.6.8 1.1zm69.9 15.4c.9 1.5 1.1 2.8 0 4.1-.3.4-.7.4-1.1.1-1-1-.2-1.8.2-2.7.3-.5.5-.9.9-1.5z"/><path d="M555.6 364.2c.8.4 1.7.8 2.5 1.2.5.3 1.1.6 1.6.9.1.7 1.8.4 1 1.6-2.3.2-4-1-5.6-2.4-.8-.5-1-1.3.5-1.3z" fill="#dcbcca"/><path class="st9" d="M565.2 268.3c0-1.2-.1-2.5.4-3.7-.2 2.2 2.2 2.2 3 3.6-.1.6-.4 1.1-1 1.4-.2-1.5-1.3-1.3-2.4-1.3z"/><path class="st14" d="M401.1 250.2c1-.2 2-.3 3-.5.2.3.3.7.5 1-.6.3-1.3.7-1.9 1-1.8.9-1.9 0-1.6-1.5z"/><path class="st9" d="M500.3 306.5c-1.1-1.5-2.6-.9-4-1 1.2-1.1 2.4-2.6 4-.5v1.5z"/><path class="st14" d="M619.5 303.5c1.2.7 2.6.4 3.9.5.9.1 1.9-.3 2.6.5-1.2 0-2.4-.2-3.5.5-1.1-.3-3 .9-3-1.5zm2 3.5h2c.2.7 1.1 1.7-.3 1.8-.8.2-2.3 0-1.7-1.8z"/><path class="st9" d="M592.8 299.1c-.1.7-.3 1.2-1 1.2-.6 0-.9-.5-.8-1.1.1-.6.2-1.5 1-1.5.5.1.6.9.8 1.4zm-21.6-42.8h3c0 .9-.5 1.7-1.4 1.8-1 0-1.5-.9-1.6-1.8zm37.8 71.5v-3.2c1 1 3.1 1.9 0 3.2z"/><path class="st14" d="M614.6 304.2c-.1.7-.5.9-1 .8-.6-.1-1.4-.2-1.4-1 0-.6.5-.8 1-.8.7-.1 1.2.3 1.4 1zM568 258c.1 1.4-.7 2-1.5 2.4-.3.2-.7-.2-.7-.5.2-1.2 1.1-1.5 2.2-1.9z"/><path class="st9" d="M541.5 355.9c-1.5-.7-2.9-1.5-4.2-2.6 2.2-.3 3.3 1 4.2 2.6z"/><path class="st10" d="M548.3 265.4c.4-1.2 1-2 2.8-2.1-.8 1.3-1.6 2-2.8 2.1z"/><path class="st14" d="M625.5 307.5c.6-.3 1.3-.6 2-.5.8 1.2-.2 1.3-1 1.6-1.1.4-.9-.4-1-1.1zm-72.9-9.2c1.1-.2 2.2-.7 3.4.5-1.4.2-2.5.4-3.4-.5zm1.2-24c-.4 0-.9-.2-.9-.7 0-.6.5-.7 1-.8.4 0 .9 0 .9.6s-.4.9-1 .9z"/><path class="st9" d="M461.3 256.6c-.1.5-.4.6-.9.6s-1-.1-1.1-.7c0-.4.4-.7.9-.7.6 0 .9.3 1.1.8zm147.3 74c1 1.5 1 2.3.1 3.5-.4-1.2-.3-2.1-.1-3.5zm-78.7-43.4c-.5-.2-.4-.6-.4-1s.2-.9.7-.8c.6.1.7.6.5 1.1-.2.2-.3.7-.8.7z"/><path class="st14" d="M424.8 252.2c1 .2 2 .5 2.5 1.5-1.1 0-2.7.7-2.5-1.5zm133 45.9c.6 0 1 .2 1.1.6.1.5-.3.7-.7.7-.5 0-1.1-.1-1.1-.7-.1-.1.5-.4.7-.6z"/><path class="st9" d="M565.2 255.8h2.5c-.9 1.8-1.7 1.8-2.5 0z"/><path class="st10" d="M616 244.2c.5.8 2.2 1 1.6 2.1-.5.9-1.8.3-2.8.2-4.5-.5-9-1.1-13.5-1.7-3.2-.4-6.5.1-9.7-1.2-3.1-1.2-6.2-.1-9.3.5-2.3-.5-4.5-1.7-7-1-2-.5-4.1-.8-5.9-1.9-2.1-1.3-4.4-.4-6.6-1-3.2-1-6.8-.6-10-1.9-1.2-.5-2.8.2-4.2.3-2.1.6-4.2 1.2-6.4 0-1.8-.9-3.8-1.1-5.6-2-.6-.3-1-.7-1.6-1-.8-.6-2.1-.4-2.5-1.5 3.4.6 7 .6 10.1 2.5.6.3 1.2.6 1.9.4 4.1-1.1 8.1.2 12.1.6 3.4.3 6.7.4 10.1 1 .2 0 .5-.1.7 0 4.5 2.4 9.4.4 13.9 1.6 4 1.1 8.1.6 12 1.4 5.2 1.1 10.6.4 15.7 2.3.9.3 2.1.6 2.8-.8.5-1.1 1.8-.3 2.7-.5-.1 1.2 1.1.9 1.5 1.6z"/><path d="M340.2 262.8c-.9 1.7-2.4 1.2-3.6.6-.8-.5-2.5.8-2.5-1.2 2.2-.4 4.3-1.3 6.1.6z" fill="#dfc1d0"/><path d="M340.2 262.8c-1.9-.8-4-.5-6-.7 0-.3.1-.7.1-1 1.9.2 3.9 0 5.8.5.1.5.1.8.1 1.2z" fill="#a16374"/><path class="st45" d="M543.1 357.4c.2 0 .5 0 .7.1 2.7 2 5.7 2.5 9.3 1.2-3.8 2.9-.7 3.6 1 4.8v.3c-.9-.2-1.8.2-2.7-.2-1.7-.7-3.4-.5-4.7 1-.3.4-1.4 1.6-1.6.3-.4-3.1-2.7-2.5-4.6-2.9-.5-.1-.9-.1-1.5-.2 1.2-1.8 6.3.4 4.1-4.4z"/><path class="st7" d="M553.6 366.7c-.5 2.6 2.1 2.4 3.4 3.7-2.3.8-4.1 2.1-6.5 2.3-1.5.1-2-.7-2-1.9 0-1.4 2.8-4.2 4.4-4.4.5-.3.7 0 .7.3z"/><path d="M554.1 363.8v-.3c.5.2 1 .5 1.5.7-.8.2-1 .6-.2 1.1 1.7 1 3.3 2.2 5.2 2.8-.7.3-1.3.6-2 .9-1.9-1.3-4.2-2.2-6.1-3.6.5-.7 1.7-.5 1.6-1.6z" fill="#a36277"/><path class="st45" d="M540.1 358c-2.4-.2-4-2-6.3-2.9 1.7-.6 3.4.1 6.3 2.9z"/><path d="M552.6 365.3c2.3.7 4.5 1.6 6.1 3.6-2 .2-3.2-1.7-5-2.1-.2-.1-.4-.2-.6-.4-.1-.4-1.1-.5-.5-1.1z" fill="#dabcca"/><path class="st14" d="M584.3 257.3c3.8.5 7.6 1 11.5 1.5.9.1 1.8 0 2.6.5 1.1 1.4.9 2.9.4 4.5-.3 1-.9 2.1-2 1.8-1-.2-1.4-1.3-1.1-2.4.2-1 .6-2.1-.4-3-2.3 3-4.6 3.9-8.2 3.1-1.1-.2-.9-1.7-2-2-1.5-.4-1-1.3-.4-2.2.3-.7-.2-1.3-.4-1.8zm17.6 2.5c3.2-.1 6.2 1.1 9.3 1.2 2.4.1 2.8 1.8 2.8 3.8-2.2.5-3.7-1.7-5.8-1.7-.7 0-1.5-.5-2.2-.3-2.9.9-3.7-.7-4.1-3z"/><path d="M585.7 266.9c-1.3-.2-2.3-.4-3.2-.5-.4-.1-.8-.2-.7-.8.1-.5.4-.7.9-.6 1.1.1 2.2.1 3.2.5.9.4 1.8 1.1.9 2.3-1.3 1.8-2.5 3.5-3.8 5.2-.3.4-.8.8-1.3.4-.6-.5 0-.9.2-1.2 1.2-1.7 2.4-3.4 3.8-5.3z" fill="#babbbd"/><path d="M590.3 267.9c-.2 1.7-.3 3.3-.5 4.9-.1.6.1 1.6-.9 1.4-.9-.1-.6-1.1-.6-1.7.1-1.5.2-3 .5-4.5.1-.8-.3-2.2 1-2.1 1.2.2.2 1.5.5 2z" fill="#babbbc"/><path class="st22" d="M536.5 236.2c2.3.9 4.7 1.3 7 2.4 1.4.7 3.4.1 5.1.1 2.8 1.2 5.9 1.7 8.9 1.9 3.6.2 6.9 1.9 10.6 1.9.6 0 1.2.5 1.8.8.8.5 1.8 1 1.7 2-.2 1.1-1.4 1.3-2.4 1.4-4.3.7-8.6 1-12.6-1.3-1.3-.7-2.6.3-3.8.8-3.8 1.6-5.3 1.2-8-2.1-1.1-1.4-2-1.5-2.5.4-.7 2.2-1.7 2.5-3.4.9-.3-.3-1-.7-1.3-.6-2.9.8-5.6.1-8.4-.4-.5-.1-.7.3-1 .6-1.6 1.6-2.9 3-5.7 1.1-1.7-1.2-3.9-1.7-5.2-3.5-.3-.5-.9-.3-1.4-.1-1 .5-2.1.8-2.9 1.5-1.7 1.4-2.8 1.1-4.2-.4-.6-.7-1.6-1.4-2.5-1.5-1.9-.3-3.5-.8-4.8-2.2-.4-.5-1.1-.6-1.9-.3-4.5 1.5-8.9.4-13.2-.5-1.7-.4-3.3-.2-5-.3-3.7-.1-7.5.1-11.1-1.4-.8-.3-1.5 0-2.2.3-1.2.5-2.3.5-3.6-.1-3.1-1.6-7.1-.1-8.7 3-.2.4-.5 1.2-.9 1.1-2-.6-4.3.7-6.3-1.2-2.7-2.5-6.3-2.7-9.8-2.8-2.8-.1-5.8 1.3-8.4-.9 0-.6-.1-1.1.5-1.5.6-.6 1.4-1.2 2.2-1 3.9.9 8-1.2 11.9.8 3.2-1.1 6.4 1.4 9.5-.1 1.1-.5 2.3-.1 3.5-.1 5 .2 10 0 14.9 1.2 1.6.4 3.3.1 5 .2 6.5.3 12.8 2 19.4 1.5 4.8-.4 9.3 1 13.8 2 .3.1.7.2 1 .2 7.1-.5 14.1 1.1 21.1 1.4 1.9.1 3.8-.1 5.7-.4.6-.1 1.3-.2 1.5-.8.2-.7-.6-.9-1-1.2-1.1-1.2-2.7-1.2-2.9-2.8z"/><path class="st9" d="M536.5 236.2c1 1.7 3.2 1.3 4.4 2.6.4.4 1.1.5 1 1.3-.2.7-.8.8-1.3 1-3.2.9-6.5 1.2-9.7.5-1.9-.4-3.9-.7-5.7-.4-3.4.5-6.4-1.4-9.7-1.1-5 .5-9.7-.7-14.4-2.3-1.4-.5-2.6.3-3.9.4-5.5.2-10.9-.8-16.3-1.1-4.5-.2-9-.7-13.5-1.2-3.7-.4-7.3 0-11-.6-.8-.1-1.5.2-2.2.4-1.7.6-3.3 1.3-4.9-.3-.1-.2-.5-.3-.7-.2-3.5 1.9-6.8-1.5-10.4-.2-2.3.8-4.9-.6-7.4.1.2-1.5-.5-3.1.5-4.5 1.3 3 4.4 2.9 6.4 2.3 2.2-.7 3.8-.1 5.5.4 3.7 1.1 7.5 1.1 11.3.9 2-.1 4-.4 6 .4.2.1.6.2.7 0 2.9-2.5 5.8.3 8.7.2 2.7-.1 5.7 1.1 8.6.7 4.3-.6 8.2 1.6 12.3 1.4 3.2-.1 6.3.6 9.6-.3 2-.5 4.2 1.2 6.4 1.3 3.6.1 7.3 1.9 10.6-.8.3-.2.7-.4.9-.1 2.7 3.3 6.5 2.7 10 2.6 2.5 0 4.9 1.1 7.4 0 .7-.3 1.6-.2 1.8-1.1.2-.9-.8-.9-1.2-1.4-.5-.5-1-1.1-1.5-1.7.7.4 1.2.6 1.7.8z"/><path class="st16" d="M425.8 230.6h-1.2c-1.3 0-3 .1-3.4-1.3-.3-.9 1.1-1.5 2-1.8 1.5-.6 2.9-.8 3.7 1.1-.4.7-.8 1.3-1.1 2z"/><path class="st22" d="M463.5 225.1c1.3 0 2.6.1 4 .1-.1 1.4-2.7 5.4-3.3 5.1-1.9-1.2-4-.1-5.8-1-.9-.4-1.7-.3-2.6-.3-3.7.1-7.4.4-10.8-1.6-1-.6-1.7.3-2.4.8-.6.4-1.1 1.9-2.1.7-.8-1-1.9-2.4-.3-3.7.2-.2.5-.4.7-.6 3.7 1.2 7.6 0 11.4.9 2.2.6 4.4-.5 6.7-.4 1.5.8 3 .6 4.5 0z"/><path class="st16" d="M434.5 230.6c-.3-.1-1.2 0-.6-.6.8-.7-.8-2 .7-2.1.7-.1 1.3.1 1.2 1.1 0 .8.1 1.6-1.3 1.6z"/><path class="st9" d="M354.4 295.5c1.7-1.2 3.5-1.9 5.5-1-1.7 1.1-3.7.5-5.5 1zm18.1 3.3c-.4 0-.7-.2-.7-.5 0-.7.4-1.2 1.1-1.4.4-.1.6.3.5.6-.1.5-.3 1-.9 1.3zm122.7 6.2c-6.6-.4-13.1-1.1-19.6-1.9-2.1-.3-4.1-.5-6.2-.6-1.1-.1-2.3.5-1.5 1.8.8 1.3.4 1.9-.7 2.5-.9.5-1.1 1.4-1.1 2.4 0 .7-.4 1.4-1.3 1.2-.9-.2-1.1-1-.7-1.7.5-1 .4-2 .2-3.1-.4-1.8 2-1.5 2.4-3.2-8.4-.8-16.8-1.6-25.2-2.3 0-1.9 1.1-2.4 2.8-2.3 2.5.1 4.9.5 7.4.3 2.8-.3 5.3.2 7.9 1.4 2.2 1.1 4.7.3 7.1.5 5.1.6 10.1 1.3 15.2 1.1 1.2 0 2.1.5 3.1 1 2.6 1.3 5.3.7 8 1 1.2 0 2 .5 2.2 1.9zm-81.5-3.5c-.7-.1-1.3-.4-1.9-.9-.6-.5-.5 0-.6.4-.3.3-.6.3-.9 0-1.2-.9-3-.8-3.6-2.5 3.5.2 7 .8 10.5.3.4-.1.5.3.6.7-1.1 1.2-2.7 1.3-4.1 2zm12.1-2.5c-.1 1 .3 2.2-.4 3.1-.5.7-1.1 1.7-2.2 1.3-1-.4-1.4-1.3-1.2-2.4.1-.5.1-1 .2-1.4 1.3 0 2.4-.3 3.6-.6zm11.1.5c-2.7.1-5.4-.1-8.1-1 1.7-.9 3.7-.4 5.6-.9 1-.3 2.3.4 2.5 1.9zm-17.6-1.5c-.9-.1-1.8-.1-1.7-.9.1-1.1 1.2-.5 1.9-.6.7-.1 1.6 0 1.5.9-.2 1.1-1.3.3-1.7.6zm-29.7-2c-1.5-.2-3.1.5-4.5-.5 1.6-.9 3.1-.8 4.5.5zm-7.6-.5c-1.2-.2-2.5.5-3.5-.5 1.4-1.4 2.5-.8 3.5.5zm32.5.6c.4 0 .8.2.9.7.1.5-.3.7-.7.7-.4 0-.8-.1-.9-.6 0-.5.3-.8.7-.8zm46.4 1c0 .5-.3.8-.8.8-.4 0-.9 0-.9-.6 0-.4.4-.7.8-.8.5 0 .8.2.9.6zm2.4 41.9c.7.6 1.2 1.2.9 2.1-.1.3-.5.5-.8.2-.5-.7-.5-1.4-.1-2.3z"/><path class="st12" d="M212 274.3c-3.3-.7-6.8-.4-10.1-1.5-.2-1.1-.5-1.9 1.4-1.9 2.9-.1 6.1 1.7 9.1-1.2-.4 1.9.4 3.3-.4 4.6z"/><path d="M114.8 233.6c1.2-.8 2.4-1.7 3.6-2.5.6-.3 1.1-.6 1.7-.9.1 3.9-1.4 4.8-5.3 3.4z" fill="#c1c1c0"/><path class="st9" d="M628.5 259.8c-.5.2-.9.4-1.4.5-1.5.2-2.4-.6-2.4-1.9 0-1.3 1.2-1.7 2.4-1.6.5 0 .9.3 1.4.5.5.8.6 1.6 0 2.5z"/><path d="M224.1 281.5c1-.3 5.5 1.8 5.3 2.7-.1 1-.9.3-1.4.3-.8-.8-1.8-1.2-2.9-1.3-1-.2-1.2-.8-1-1.7z" fill="#edecec"/><path class="st11" d="M463.5 225.1c-1.5 1.3-3 1.5-4.6 0h4.6z"/><path d="M276.3 253.5c0 .6-.3.8-.7.8-.5 0-1 .1-1.2-.5-.1-.5.1-1 .8-.9.4 0 .9.1 1.1.6z" fill="#606263"/><path d="M295.4 256c-.1.6-.6.7-1.1.7-.6 0-1-.2-.9-.9.1-.5.5-.6.9-.6.6 0 1.1.1 1.1.8z" fill="#5b5c5e"/><path d="M290 256.2c-.4.8 0 2.3-1.6 2.3-.9 0-1.1-.7-.8-1.4.4-.9-.1-2.4 1.6-2.4 1-.1.9.7.8 1.5z" fill="#4f5052"/><path class="st7" d="M550.6 333.2c1-1.8.2-2.6-1.5-3.7-2.1-1.3-4.2-1.1-6.4-1.3-.8-.1-1.4.3-1.6 1.2-1.3 4.3-2.2 4.7-6.3 2.4-.2-.1-.4-.3-.5-.5.2-.9.9-.5 1.4-.7 1.3-.4 2.1-1 1.6-2.6-.6-1.8.3-2.8 2-2.4 2.6.6 5.5-.1 8 1.6 1.2.8 3 .7 4.6.9.7.1 1.4.3 1.3 1.2-.1 1.3-.3 2.6-.6 3.9-.2.8-.8.7-1.4.5-.3-.2-.5-.4-.6-.5z"/><path class="st9" d="M504.8 331.5c-5.2-1.7-10.6-1-15.9-1.9-.7-.1-1.5-.5-1.4-1.2.1-.7 1-.6 1.7-.5 5.2.3 10.4.9 15.6 1.7.8.1 2.1-.2 2.1.8.1 1.2-1.4.6-2.1 1.1zm-90.9-15.8c.6 2.2-.6 2.6-2.1 2.2-1.2-.3-2.1.4-3.2.3-1-.1-2.1-.4-2.1-1.3 0-.8.9-1.5 2.1-1.2.8.2 1.8-.1 2-.8.4-1.1.6-2.3 2-2 1.5.3 1.6 1.6 1.3 2.8zm61.9 12.1c-1-.1-2.2.1-2.5-1.1-.2-.9.8-1.2 1.5-1.1 1.2.3 3.1 0 3.4 1.3.2 1.2-1.6.4-2.4.9zm-10-2.2c.9-.7 1.6-.3 2.3-.4.7-.1 1.4 0 1.7.7.1.3-.1.6-.4.8-.6.4-1.2.6-1.8.2-.6-.4-1.1-.8-1.8-1.3zm80.7 7.8c.5.1.8.3.8.8 0 .6-.5.5-.9.5-.3 0-.7-.2-.6-.6 0-.5.3-.7.7-.7zm-133.3-22.8c.5-.6 1-.6 1.5 0-.7.3-.3 1.2-.8 1.7-.8-.4-.6-1.1-.7-1.7z"/><path class="st7" d="M584 332.9c-.2.8-.8 1.2-1.8 1.2-1.6 0-4-1.8-3.9-3 .1-1.3 1.2-1.4 2.2-1.5 1.1 0 3.4 2.1 3.5 3.3zm-38.9-12.4c2.7.4 5.4.7 8.1 1.1 1 .1 1 .9.6 1.5-.6 1 .5 2.7-1.1 3.3-.6.2-.9-.3-.7-.9.6-2.4-1.1-2.9-2.9-3.4-1.4-.4-2.9-.2-4-1.6zm11.9 9.7c-.9-.1-2.1.2-2.1-1.1-.1-1 1-.9 1.7-1 1.1-.1 2.2.3 2.3 1.4 0 1.1-1.3.5-1.9.7z"/><path d="M401.6 304.2c1.9.3 1.9.3 3.2-.4-.2-.1-.4-.3-.6-.4-1-.2-2.5-.2-2-1.8.4-1.3 1.9-1.2 3-1 1.6.3 1.3 1.4 1 2.5-.3 1.1-.6 2.2-1.9 2.4-.9.1-2.2.5-2.7-1.3z" fill="#b5b9bb"/><path d="M413.7 301.5c1.1.1 2.4-.5 3.4.7-.7.7-1.2 0-1.7 0-.4 0-.9-.1-1 .5-.1.6.4.6.8.7 1 .2 1.9.6 1.4 1.8-.5 1.3-1.7 1.5-2.9 1.3-1.2-.2-1.6-1-1.3-2.2.3-1.1.6-2.1 1.3-2.8z" fill="#bbbfbf"/><path d="M410.3 301h.9c-.1 1.7.3 3.6-1.3 4.9-.8-.1-.4-1.1-1.1-1.2-4.2-.7-.5-1.7 0-2.4.3-.5 1-.9 1.5-1.3z" fill="#b7bbbc"/><path class="st9" d="M484.4 306.6c.6.1 1.1.4 1.1.9 0 .8-.7 1.1-1.4 1.2-.6.1-.9-.4-.9-.9 0-.8.6-1.1 1.2-1.2zm41.2 10c.8 0 1.2.2 1.2.7-.1.9-.9 1.1-1.6 1.2-.5 0-.7-.3-.7-.8.2-.8.7-1.1 1.1-1.1zm-126.3-16.2c-.5-.1-1-.3-.9-.9.1-.7.8-.8 1.3-.9.6-.1.9.3.8.9-.1.6-.5.9-1.2.9zm32.1 1.2c.3 0 .7.1.7.5-.1.6-.5 1-1.1 1.2-.3.1-.6-.1-.6-.5 0-.7.4-1.1 1-1.2zM603 247.2h.9c1 0 2.5-.1 2.4 1.1 0 1.2-1.5.8-2.5.9h-.8c-1.1-.1-2.9.2-2.9-1.1.2-1.6 2.1-.6 2.9-.9zm18.6 12.1c-1-.1-2.1-.6-2.2-1.4-.1-1.1 1.2-1.3 2-1.4.8-.2 1.6.3 1.6 1.4-.1.9-.6 1.3-1.4 1.4z"/><path class="st8" d="M575.2 243.2c2.5-.8 5-1.2 7 1v.5c-1.2.8-2.1-.1-3-.5-1.2-.7-2.5-1-4-1z"/><path class="st10" d="M579.2 244.2c1 .2 2 .3 3 .5-.1.9.3 2.1-.9 2.3-1.2.2-.9-1.2-1.4-1.8-.2-.3-.4-.7-.7-1z"/><path class="st9" d="M591.4 248.2c-.5-.1-1.5.1-1.3-.7.2-1 1.3-1.2 2.2-1.3.5-.1 1 .2.9.8-.1 1.2-1 1.2-1.8 1.2z"/><path class="st41" d="M636.7 308.7c.3-1 1-1.5 1.6-1.6 1-.1 2.2-.4 3.2.3.1.1.3.5.2.6-.8 1-1.8.4-2.8.6-.6 0-1.3 0-2.2.1z"/><path d="M577.5 268.2c-.7-.2-1.8-.1-1.8-1.2 0-.9.5-1.1 1.3-1.1.9 0 1.7.2 1.7 1.4-.1.6-.5.9-1.2.9z" fill="#515355"/><path class="st9" d="M547.6 240.2c2-.1 3.7.6 5.4 1.1.4.1.8.4.7.9-.1.5-.6.6-1 .5-1.8-.1-3.7 1.1-5.5-.4-.6-.5-2.2-.5-2-1.5.3-1.2 1.7-.4 2.4-.6z"/><path d="M414.6 304.1c.4.1 1.1 0 .9.8-.1.5-.5.6-1 .6s-1.1-.2-1.1-.8c0-.7.7-.6 1.2-.6z" fill="#606667"/></g></svg>