<?xml version="1.0" encoding="UTF-8"?>
<svg xmlns="http://www.w3.org/2000/svg" xmlns:xlink="http://www.w3.org/1999/xlink" width="30pt" height="30.000001pt" viewBox="0 0 30 30.000001" version="1.2">
<defs>
<clipPath id="clip1">
  <path d="M 11.082031 10.085938 L 28.5 10.085938 L 28.5 27.503906 L 11.082031 27.503906 Z M 11.082031 10.085938 "/>
</clipPath>
<clipPath id="clip2">
  <path d="M 1.863281 1.773438 L 18.558594 1.773438 L 18.558594 18.46875 L 1.863281 18.46875 Z M 1.863281 1.773438 "/>
</clipPath>
</defs>
<g id="surface1">
<g clip-path="url(#clip1)" clip-rule="nonzero">
<path style=" stroke:none;fill-rule:nonzero;fill:rgb(95.289612%,72.938538%,18.429565%);fill-opacity:1;" d="M 16.40625 17.40625 L 19.789062 14.023438 L 23.175781 17.40625 L 25.144531 15.4375 L 19.789062 10.085938 L 14.4375 15.4375 L 16.40625 17.40625 M 11.082031 18.792969 L 13.050781 16.824219 L 15.015625 18.792969 L 13.050781 20.761719 Z M 16.40625 20.183594 L 19.789062 23.566406 L 23.175781 20.183594 L 25.144531 22.152344 L 19.789062 27.503906 L 14.4375 22.152344 L 16.40625 20.183594 M 24.5625 18.796875 L 26.53125 16.828125 L 28.5 18.796875 L 26.53125 20.765625 Z M 24.5625 18.796875 "/>
</g>
<path style=" stroke:none;fill-rule:nonzero;fill:rgb(95.289612%,72.938538%,18.429565%);fill-opacity:1;" d="M 21.785156 18.792969 L 21.789062 18.792969 L 19.789062 16.796875 L 17.792969 18.792969 L 17.792969 18.796875 L 19.789062 20.792969 L 21.789062 18.796875 L 21.789062 18.792969 L 21.785156 18.792969 "/>
<g clip-path="url(#clip2)" clip-rule="nonzero">
<path style=" stroke:none;fill-rule:nonzero;fill:rgb(96.859741%,57.649231%,10.198975%);fill-opacity:1;" d="M 18.386719 12.191406 C 17.265625 16.683594 12.714844 19.417969 8.222656 18.296875 C 3.730469 17.175781 0.996094 12.625 2.117188 8.132812 C 3.238281 3.640625 7.789062 0.90625 12.28125 2.027344 C 16.773438 3.144531 19.507812 7.695312 18.386719 12.191406 Z M 18.386719 12.191406 "/>
</g>
<path style=" stroke:none;fill-rule:nonzero;fill:rgb(100%,100%,100%);fill-opacity:1;" d="M 13.949219 8.964844 C 14.117188 7.851562 13.265625 7.25 12.105469 6.851562 L 12.480469 5.339844 L 11.5625 5.109375 L 11.195312 6.582031 C 10.953125 6.519531 10.703125 6.464844 10.457031 6.40625 L 10.828125 4.925781 L 9.90625 4.695312 L 9.53125 6.207031 C 9.332031 6.160156 9.132812 6.117188 8.941406 6.070312 L 8.945312 6.066406 L 7.675781 5.746094 L 7.429688 6.730469 C 7.429688 6.730469 8.113281 6.886719 8.097656 6.898438 C 8.472656 6.988281 8.539062 7.238281 8.527344 7.433594 L 8.097656 9.15625 C 8.125 9.160156 8.15625 9.171875 8.195312 9.183594 C 8.164062 9.175781 8.128906 9.167969 8.097656 9.160156 L 7.496094 11.574219 C 7.449219 11.6875 7.332031 11.855469 7.074219 11.792969 C 7.082031 11.804688 6.402344 11.625 6.402344 11.625 L 5.945312 12.679688 L 7.144531 12.976562 C 7.367188 13.035156 7.585938 13.09375 7.800781 13.148438 L 7.417969 14.675781 L 8.339844 14.90625 L 8.714844 13.390625 C 8.96875 13.460938 9.210938 13.523438 9.449219 13.582031 L 9.074219 15.089844 L 9.992188 15.316406 L 10.375 13.792969 C 11.945312 14.089844 13.125 13.96875 13.621094 12.550781 C 14.019531 11.40625 13.601562 10.746094 12.773438 10.316406 C 13.375 10.179688 13.828125 9.785156 13.949219 8.964844 Z M 11.847656 11.914062 C 11.5625 13.058594 9.640625 12.441406 9.015625 12.285156 L 9.519531 10.257812 C 10.144531 10.414062 12.144531 10.722656 11.847656 11.914062 Z M 12.132812 8.949219 C 11.871094 9.988281 10.269531 9.460938 9.75 9.332031 L 10.210938 7.496094 C 10.730469 7.625 12.402344 7.867188 12.132812 8.949219 Z M 12.132812 8.949219 "/>
</g>
</svg>
