<svg version="1.2" baseProfile="tiny-ps" xmlns="http://www.w3.org/2000/svg" viewBox="0 0 497 497" width="497" height="497">
	<title>snx-bnb</title>
	<defs>
		<linearGradient id="grd1" gradientUnits="userSpaceOnUse"  x1="127.014" y1="216.999" x2="127.014" y2="272.038">
			<stop offset="0" stop-color="#090220"  />
			<stop offset="1" stop-color="#170659"  />
		</linearGradient>
	</defs>
	<style>
		tspan { white-space:pre }
		.shp0 { fill: #ffb357 } 
		.shp1 { fill: #ffce71 } 
		.shp2 { fill: #30cd9c } 
		.shp3 { fill: #18c08b } 
		.shp4 { fill: #70dcba } 
		.shp5 { fill: #e8b5b1 } 
		.shp6 { fill: #d6948c } 
		.shp7 { fill: #ce857a } 
		.shp8 { fill: #fce3a0 } 
		.shp9 { fill: url(#grd1) } 
		.shp10 { fill: #00d1ff } 
		.shp11 { fill: #f3ba2f } 
		.shp12 { fill: #ffffff } 
	</style>
	<g id="g977">
		<g id="g965">
			<path id="path935" class="shp0" d="M130.04 232.67C113.05 240.59 95.32 244.98 77.68 246.15C59.39 247.36 55.29 272.26 72.29 279.13C96.7 288.99 124.99 289.09 150.74 277.08L130.04 232.67Z" />
			<path id="path937" class="shp1" d="M419.32 246.15C401.68 244.98 383.95 240.59 366.96 232.67L346.26 277.08C372.01 289.09 400.3 288.99 424.71 279.13C441.71 272.26 437.61 247.36 419.32 246.15Z" />
			<path id="path939" class="shp2" d="M178.56 129.4C237.13 187.97 234.18 229.34 206.84 256.68C179.5 284.01 138.14 286.97 79.56 228.39C20.98 169.81 -18.49 86.02 8.85 58.69C36.19 31.35 119.98 70.82 178.56 129.4Z" />
			<path id="path941" class="shp2" d="M319.78 129.4C261.2 187.97 264.16 229.34 291.49 256.68C318.83 284.01 360.19 286.97 418.77 228.39C464.52 182.65 497 121.53 497 83.92C497 73.42 495.47 64.67 489.48 58.69C462.15 31.35 378.36 70.82 319.78 129.4Z" />
			<g id="g947">
				<path id="path943" class="shp3" d="M389.92 153.46C383.79 147.88 374.31 148.33 368.73 154.46L291.73 237.09L312.96 258.33L390.92 174.65C396.49 168.52 396.05 159.03 389.92 153.46Z" />
				<path id="path945" class="shp3" d="M107.08 153.46C100.95 159.03 100.51 168.52 106.08 174.65L184.04 258.33L205.27 237.09L128.27 154.46C122.69 148.33 113.21 147.88 107.08 153.46Z" />
			</g>
			<path id="path949" class="shp4" d="M318.5 170C318.5 252.84 287.16 280 248.5 280C209.84 280 178.5 252.84 178.5 170C178.5 87.16 209.84 0 248.5 0C287.16 0 318.5 87.16 318.5 170Z" />
			<path id="path951" class="shp3" d="M263.5 152.83C263.5 144.54 256.78 137.83 248.5 137.83C240.22 137.83 233.5 144.54 233.5 152.83L213.5 423.38L283.5 423.38C283.5 417.19 263.5 155.27 263.5 152.83Z" />
			<g id="g963">
				<g id="g957">
					<path id="path953" class="shp5" d="M255.18 380.7L280.76 369.24C288.98 365.56 298.56 369.95 301.14 378.58L311.18 444.16L246.37 444.16L246.37 394.31C246.37 388.43 249.82 383.11 255.18 380.7Z" />
					<path id="path955" class="shp6" d="M248.83 378.5L217.56 364.49C207.2 359.85 194.21 365.61 192.27 378.38L180.37 454.16L259.6 454.16L259.6 395.13C259.6 387.95 255.38 381.44 248.83 378.5Z" />
				</g>
				<path id="path959" class="shp6" d="M258.2 424.74L292.52 409.36C303.55 404.42 316.41 410.31 319.86 421.89L333.34 497L246.37 497L246.37 442.99C246.37 435.11 251 427.96 258.2 424.74Z" />
				<path id="path961" class="shp7" d="M254.6 465.73L254.6 459.16C254.6 449.36 248.84 440.47 239.9 436.47L207.23 420.35C193.52 414.21 177.54 421.53 173.25 435.93L156.5 497L267.55 497C259.26 488.71 254.6 477.46 254.6 465.73Z" />
			</g>
		</g>
		<g id="g971">
			<path id="path967" class="shp8" d="M196.42 260.4C202.15 242.88 179.93 229.56 167.18 242.87C154.71 255.87 139.67 266.83 122.36 274.9C105.05 282.97 86.99 287.45 69.02 288.64C50.63 289.86 46.55 315.44 63.65 322.31C88.5 332.3 117.27 332.38 143.47 320.16C169.67 307.95 188.1 285.86 196.42 260.4Z" />
			<path id="path969" class="shp8" d="M300.58 260.4C294.85 242.88 317.07 229.56 329.82 242.87C342.29 255.87 357.33 266.83 374.64 274.9C391.95 282.97 410.01 287.45 427.98 288.64C446.37 289.86 450.45 315.44 433.35 322.31C408.5 332.3 379.73 332.38 353.53 320.16C327.33 307.95 308.9 285.86 300.58 260.4Z" />
		</g>
		<path id="path973" class="shp1" d="M232.19 249.45C231.48 228.91 203.65 223.66 195.37 242.46C187.37 260.6 175.94 277.6 161.07 292.47C150.3 303.24 138.4 312.21 125.76 319.38C117.13 324.27 112.49 334.04 114.37 343.78C116.76 356.11 128.6 364.16 140.96 362C162.56 358.24 183.25 348.01 199.93 331.33C222.46 308.8 233.21 278.96 232.19 249.45Z" />
		<path id="path975" class="shp0" d="M264.81 249.45C265.52 228.91 293.35 223.66 301.63 242.46C309.63 260.6 321.06 277.6 335.93 292.47C346.7 303.24 358.6 312.21 371.24 319.38C379.87 324.27 384.51 334.04 382.63 343.78C380.24 356.11 368.4 364.16 356.04 362C334.44 358.24 313.75 348.01 297.07 331.33C274.54 308.8 263.79 278.96 264.81 249.45Z" />
	</g>
	<g id="Layer">
		<g id="Layer">
			<path id="Layer" class="shp9" d="M127 425C69.49 425 23 378.51 23 321C23 263.49 69.49 217 127 217C184.51 217 231 263.49 231 321C231 378.51 184.51 425 127 425Z" />
			<g id="Layer">
				<path id="Layer" class="shp10" d="M92.74 295.14C91.91 294.11 90.65 293.54 89.3 293.54L61.53 293.54C61.3 293.54 61.1 293.45 60.93 293.31C60.78 293.17 60.7 292.99 60.7 292.79L60.7 274.07C60.7 273.87 60.78 273.7 60.93 273.56C61.1 273.39 61.3 273.3 61.53 273.33L90.88 273.33C98.28 273.33 104.67 276.37 110.06 282.42L117.2 291.13L103.29 308.07L92.74 295.14ZM144.06 282.33C149.42 276.34 155.84 273.33 163.32 273.33L192.59 273.33C192.79 273.3 192.99 273.39 193.13 273.5C193.28 273.64 193.33 273.84 193.3 274.07L193.3 292.79C193.3 292.99 193.25 293.17 193.13 293.31C192.99 293.48 192.79 293.57 192.59 293.54L164.81 293.54C163.49 293.51 162.23 294.11 161.37 295.14L140.9 320.05L161.46 345.14C162.29 346.08 163.52 346.66 164.78 346.63L192.56 346.63C192.76 346.6 192.99 346.71 193.1 346.86C193.22 347.03 193.3 347.26 193.28 347.46L193.28 366.18C193.28 366.38 193.22 366.55 193.1 366.69C192.96 366.87 192.76 366.95 192.56 366.92L163.32 366.92C155.84 366.92 149.47 363.88 144.14 357.84L127.11 337.05L110.09 357.84C104.73 363.88 98.31 366.92 90.82 366.92L61.53 366.92C61.33 366.95 61.1 366.84 60.98 366.69C60.84 366.52 60.78 366.29 60.81 366.09L60.81 347.37C60.81 347.17 60.87 347 60.98 346.86C61.13 346.68 61.33 346.6 61.53 346.63L89.3 346.63C90.62 346.63 91.88 346.03 92.74 345.02L112.84 320.48L144.06 282.33Z" />
			</g>
		</g>
	</g>
	<g id="g1744">
		<path id="circle1740" class="shp11" d="M370.81 427.11C312.83 427.11 265.97 380.25 265.97 322.27C265.97 264.3 312.83 217.44 370.81 217.44C428.78 217.44 475.64 264.3 475.64 322.27C475.64 380.25 428.78 427.11 370.81 427.11Z" />
		<path id="path1742" fill-rule="evenodd" class="shp12" d="M330.55 297.01L370.81 256.75L411.08 297.02L396.27 311.83L370.81 286.37L345.36 311.82L330.55 297.01ZM305.29 322.27L320.09 307.47L334.9 322.27L320.09 337.08L305.29 322.27ZM345.36 332.73L370.81 358.18L396.27 332.72L411.08 347.52L370.81 387.8L330.53 347.52L345.36 332.73ZM406.71 322.27L421.52 307.47L436.33 322.27L421.52 337.08L406.71 322.27ZM385.83 322.26L385.84 322.26L385.84 322.27L370.81 337.3L355.8 322.3L355.77 322.27L355.8 322.25L358.42 319.62L359.7 318.34L370.81 307.24L385.83 322.26Z" />
	</g>
</svg>