<svg width="20" height="20" viewBox="0 0 20 20" fill="none" xmlns="http://www.w3.org/2000/svg">
<g clip-path="url(#clip0_40009240_529)">
<path d="M18.6854 5.04057L18.2518 4.28328C18.2179 4.224 18.1708 4.17332 18.1142 4.1352C18.0575 4.09708 17.9928 4.07256 17.9252 4.06348C17.8575 4.05444 17.7886 4.06112 17.724 4.083C17.6593 4.10488 17.6005 4.14136 17.5522 4.18964L16.562 5.17993C16.489 5.25289 16.4437 5.34885 16.4335 5.45149C16.4234 5.55417 16.4491 5.65713 16.5064 5.74297C16.8682 6.29549 17.1579 6.89197 17.3685 7.51798C17.762 8.68762 17.8715 9.93406 17.6881 11.1544C17.5047 12.3747 17.0336 13.5339 16.3138 14.5362C15.594 15.5386 14.6461 16.3553 13.5483 16.919C12.4505 17.4827 11.2344 17.7771 10.0004 17.7781C8.72909 17.7817 7.47665 17.4707 6.35468 16.873L8.03325 15.1951C8.87397 15.5133 9.77942 15.6228 10.6718 15.514C11.5641 15.4052 12.4167 15.0815 13.1564 14.5706C13.8961 14.0597 14.5007 13.3769 14.9183 12.5808C15.336 11.7848 15.5542 10.8992 15.5541 10.0003C15.5538 9.80818 15.5432 9.61626 15.5224 9.42526C15.4566 8.78414 15.2794 8.15942 14.9988 7.57918C14.9675 7.51618 14.9216 7.46145 14.8651 7.41957C14.8085 7.37769 14.7428 7.34981 14.6734 7.33821C14.604 7.32657 14.5328 7.33161 14.4657 7.35281C14.3986 7.37401 14.3374 7.41085 14.2873 7.46025L13.2822 8.4653C13.2287 8.51866 13.1897 8.58482 13.1689 8.65746C13.1481 8.73014 13.1462 8.8069 13.1633 8.88054L13.2478 9.24158C13.3963 9.87318 13.3572 10.5344 13.1352 11.144C12.9132 11.7537 12.5181 12.2853 11.9983 12.6736C11.4784 13.0618 10.8566 13.2899 10.209 13.3298C9.56142 13.3696 8.91625 13.2195 8.35277 12.8979L7.91077 12.6445C7.82621 12.5957 7.72789 12.5762 7.63105 12.5889C7.53425 12.6016 7.44433 12.6459 7.37521 12.7149L3.27481 16.8103C3.23008 16.855 3.19542 16.9088 3.17313 16.9679C3.15085 17.0271 3.14146 17.0904 3.14559 17.1535C3.14972 17.2166 3.16728 17.2781 3.19709 17.3338C3.2269 17.3896 3.26828 17.4383 3.31845 17.4768L3.92231 17.9399C5.66364 19.282 7.80193 20.0067 10.0004 20C15.514 20 20.0001 15.5139 20.0001 10.0003C20.0005 8.26086 19.5474 6.55137 18.6854 5.04057Z" fill="url(#paint0_linear_40009240_529)"/>
<path d="M16.0777 2.06009C14.3367 0.718115 12.1986 -0.00660955 10.0004 4.5427e-05C4.48606 4.5427e-05 1.52006e-07 4.4861 1.52006e-07 10.0004C-0.000302998 11.7398 0.452834 13.4493 1.31471 14.9602L1.74825 15.7175C1.78208 15.7774 1.82938 15.8287 1.88643 15.8673C1.94348 15.9058 2.00871 15.9306 2.07697 15.9396C2.14523 15.9486 2.21465 15.9416 2.27975 15.9192C2.34485 15.8967 2.40384 15.8595 2.45206 15.8103L3.44161 14.8208C3.51453 14.7479 3.55993 14.6519 3.57006 14.5492C3.5802 14.4466 3.55446 14.3436 3.49721 14.2578C3.13566 13.7051 2.84594 13.1086 2.63505 12.4828C2.24158 11.3133 2.13191 10.067 2.31509 8.84683C2.49828 7.62663 2.96906 6.4675 3.68857 5.46514C4.4081 4.46274 5.3557 3.64589 6.45319 3.08199C7.55067 2.51808 8.76651 2.22329 10.0004 2.22196C11.2714 2.21846 12.5236 2.52939 13.6454 3.12706L11.9647 4.80562C11.124 4.48718 10.2186 4.37758 9.3262 4.48626C8.43379 4.59498 7.58111 4.9187 6.84143 5.42966C6.10178 5.94058 5.49722 6.62351 5.0797 7.41967C4.66222 8.21583 4.44426 9.10143 4.44454 10.0004C4.44454 10.0926 4.46918 10.5135 4.4769 10.586C4.54486 11.2231 4.72198 11.8438 5.00054 12.4208C5.03146 12.4848 5.07718 12.5405 5.13398 12.5832C5.19078 12.6259 5.25698 12.6544 5.32702 12.6663C5.3971 12.6782 5.46898 12.6732 5.5367 12.6517C5.60442 12.6302 5.66598 12.5928 5.7163 12.5426L6.72135 11.5382C6.77511 11.4844 6.81419 11.4178 6.83491 11.3446C6.85559 11.2714 6.85719 11.1942 6.83959 11.1202L6.75655 10.762C6.69819 10.5123 6.66843 10.2568 6.66787 10.0004C6.66787 9.41712 6.82107 8.84403 7.11211 8.33855C7.40319 7.83307 7.82191 7.41287 8.32639 7.12003C8.83087 6.82723 9.4034 6.67203 9.98672 6.66999C10.57 6.66799 11.1436 6.81919 11.6501 7.10851L12.0928 7.36187C12.1773 7.41047 12.2755 7.42991 12.3722 7.41719C12.4688 7.40447 12.5586 7.36031 12.6277 7.29147L16.7253 3.19392C16.77 3.14916 16.8047 3.09536 16.827 3.03613C16.8493 2.9769 16.8587 2.91359 16.8545 2.85043C16.8504 2.78728 16.8328 2.72573 16.803 2.66991C16.7732 2.61409 16.7318 2.56527 16.6816 2.52671L16.0777 2.06009Z" fill="url(#paint1_linear_40009240_529)"/>
</g>
<defs>
<linearGradient id="paint0_linear_40009240_529" x1="6.4736" y1="20.6369" x2="20.5512" y2="6.55937" gradientUnits="userSpaceOnUse">
<stop stop-color="#B090F5"/>
<stop offset="1" stop-color="#5FBFFF"/>
</linearGradient>
<linearGradient id="paint1_linear_40009240_529" x1="1.52006e-07" y1="7.97067" x2="16.8555" y2="7.97067" gradientUnits="userSpaceOnUse">
<stop stop-color="#68D7FA"/>
<stop offset="1" stop-color="#7EF1B3"/>
</linearGradient>
<clipPath id="clip0_40009240_529">
<rect width="20" height="20" fill="white"/>
</clipPath>
</defs>
</svg>
