<svg xmlns="http://www.w3.org/2000/svg" fill="none" viewBox="0 0 72 102"><path fill="#31CB9E" d="m30.5815 50.9855 38.0953 21.8398c1.3157.7601 3.0114-.2047 3.0114-1.725V30.8707c0-1.5203-1.6665-2.4851-3.0114-1.7249L30.5815 50.9855Zm35.8732-31.2541L41.1651.406034c-1.1695-.877098-2.8652-.26313-3.1868 1.169466l-9.2388 43.0363 37.5106-21.5474c1.2572-.7309 1.3741-2.4559.2046-3.333ZM41.1651 101.594l25.3481-19.3547c1.1402-.8771 1.0233-2.6021-.2046-3.333L28.7395 57.3882l9.268 43.0358c.2631 1.433 1.9589 2.047 3.1576 1.17Z"/><path fill="#31CB9E" d="m20.8165 50.9853 9.9696-46.36927c.3801-1.81267-1.6957-3.15755-3.1868-1.98809L2.0758 22.1288C.760151 23.1228 0 24.7016 0 26.3388v49.3806c0 1.6373.760151 3.2161 2.0758 4.2101l25.5235 19.4716c1.4619 1.1109 3.5669-.2047 3.1868-1.9881l-9.9696-46.4277Z"/></svg>