<svg xmlns="http://www.w3.org/2000/svg" fill="none" viewBox="0 0 72 102"><path fill="#31CB9E" d="m30.582 50.986 38.095 21.84c1.315.76 3.011-.205 3.011-1.726V30.87c0-1.52-1.666-2.484-3.011-1.724zM66.455 19.73 41.165.406c-1.17-.877-2.865-.263-3.187 1.17L28.74 44.612l37.51-21.548c1.257-.73 1.374-2.456.205-3.333m-25.29 81.863 25.348-19.355a2.01 2.01 0 0 0-.204-3.333l-37.57-21.518 9.269 43.036c.263 1.433 1.958 2.047 3.157 1.17"/><path fill="#31CB9E" d="m20.817 50.985 9.97-46.369c.38-1.813-1.697-3.158-3.188-1.988l-25.523 19.5C.76 23.124 0 24.703 0 26.339V75.72c0 1.638.76 3.217 2.076 4.21l25.523 19.472c1.462 1.111 3.567-.205 3.187-1.988z"/></svg>