<svg xmlns="http://www.w3.org/2000/svg" xml:space="preserve" fill-rule="nonzero" stroke-linejoin="round" stroke-miterlimit="2" clip-rule="evenodd" viewBox="0 0 115 89">
  <path fill="#fdfdfe" d="M75.339.825c-.825.45-1.425 1.425-1.35 2.4.075.9 1.05 2.55 2.175 3.6 1.2 1.125 3.525 2.7 5.325 3.6 1.725.9 3.75 1.575 4.5 1.575.675.075 1.725-.375 2.25-.9.525-.525.675-1.65.375-2.475-.225-.825-1.2-2.475-2.175-3.75-.9-1.275-2.85-2.85-4.35-3.6C80.589.6 78.789 0 78.114 0c-.75 0-2.025.375-2.775.825ZM53.739 3.9c-.675.525-1.275 1.5-1.35 2.1-.15.6-.15 1.725-.075 2.475 0 .675 1.65 3 3.675 5.175 1.95 2.1 7.575 6.9 12.45 10.65 4.95 3.75 10.275 8.55 11.925 10.575 1.65 2.1 3.975 5.775 5.25 8.25 1.8 3.6 2.325 5.7 2.625 10.5.225 4.5 0 6.825-1.05 9.375-.675 1.875-1.8 4.05-2.4 4.875l-1.05 1.5c.75-2.325 1.2-4.5 1.425-6.375.3-1.95 0-4.95-.6-7.125-.525-2.025-2.325-5.7-3.825-8.1-1.575-2.325-4.125-5.1-5.625-6.15-1.575-1.05-4.275-2.175-5.925-2.475-2.325-.375-3.45-.225-4.35.6-.675.6-1.275 2.025-1.2 3.225 0 1.425 1.35 3.525 4.65 7.125 2.55 2.775 5.475 6.9 6.525 9.15 1.275 2.775 1.95 5.85 2.175 9.375.225 3.6-.075 6.225-.9 8.25-.675 1.65-2.175 4.125-3.45 5.475-1.2 1.275-2.25 2.55-2.25 2.775 0 .225 1.95.15 4.35-.075 2.325-.225 7.35-1.425 11.025-2.7 3.75-1.2 8.625-3.3 10.875-4.575 2.25-1.275 6.075-3.975 8.475-5.925 2.325-2.025 5.175-5.025 6.375-6.75 1.275-1.95 2.025-4.2 2.1-6.15.075-1.725.375-5.475.675-8.325.45-3.975.3-6.3-.675-9.6-.825-2.925-1.875-4.725-3.225-5.775-1.2-.9-2.625-1.35-3.225-1.05-.6.225-1.425.6-1.875.75-.45.225-1.05-.9-1.35-2.475-.375-1.575-1.35-4.5-2.25-6.6-.825-2.025-2.325-4.95-3.225-6.375-.975-1.425-2.55-3.075-3.6-3.525-1.05-.525-2.625-.975-3.45-.975-.825 0-2.025.75-2.625 1.725-.825 1.275-.9 2.325-.375 4.65l.75 3c-4.275-5.25-6.9-8.1-8.625-9.675-1.65-1.65-5.025-4.275-7.5-5.85-2.475-1.575-6.525-3.525-9-4.35-2.475-.825-5.55-1.5-6.75-1.5-1.275 0-2.85.45-3.525.975V3.9Z"/>
  <path fill="#0fb97f" d="M38.514 3.825c-2.475.375-6.675 1.35-9.375 2.25-2.7.825-7.05 2.7-9.75 4.125-2.7 1.35-7.05 4.275-9.75 6.525-2.7 2.175-5.7 5.325-6.75 6.9-.975 1.65-1.95 4.35-2.025 6-.075 1.65-.375 5.7-.675 9-.375 4.575-.225 6.9.75 9.975.75 2.4 1.95 4.425 3.15 5.25 1.575 1.05 2.175 1.125 3.75.375 1.725-.975 1.8-.9 3 3.375.675 2.325 2.025 6 3.075 8.025 1.05 2.1 2.475 4.35 3.15 5.175.675.75 2.1 1.8 3.3 2.4 1.725.9 2.25.9 3.9-.075 1.35-.825 1.875-1.8 1.875-3.375 0-1.275-.375-3.15-.75-4.275l-.75-2.1c2.475 3.525 5.85 7.125 9.15 10.35 4.425 4.35 7.275 6.45 11.7 8.55 3.375 1.575 7.5 2.85 9.975 3.15 3.225.375 4.575.15 5.475-.675.675-.6 1.275-1.875 1.2-2.85 0-.9-1.125-3.225-2.475-5.1-1.275-1.875-4.425-5.025-6.9-6.975-2.475-1.95-6.375-4.95-8.625-6.6-2.25-1.65-6-5.025-8.325-7.425-2.775-2.85-5.25-6.525-7.125-10.425-2.55-5.325-2.85-6.675-2.85-11.625 0-4.8.375-6.375 2.4-10.65 1.35-2.85 2.55-5.1 2.775-5.1.225 0-.15 1.275-.75 2.85-.6 1.5-1.05 4.575-1.125 6.75 0 2.1.675 5.7 1.425 7.875.825 2.175 3.075 5.7 5.1 7.95 1.95 2.175 4.5 4.5 5.625 5.025 1.2.6 3.45 1.05 5.1 1.05 2.25 0 3.15-.375 3.75-1.5.375-.825.525-2.4.225-3.525-.3-1.2-2.4-3.975-4.575-6.225-2.25-2.25-5.025-6.15-6.225-8.625-1.8-3.675-2.175-5.55-2.25-10.125-.075-4.275.3-6.375 1.425-8.625.825-1.65 2.4-3.9 3.45-5.025 1.05-1.2 1.95-2.25 1.95-2.475 0-.225-.225-.3-.6-.3-.3.075-2.55.375-5.025.75ZM26.289 77.55c-.675.975-.675 1.725.075 3.6.45 1.275 2.025 3.3 3.375 4.5 1.275 1.125 3.15 2.325 4.125 2.55.9.225 2.475.3 3.45.15.975-.15 2.175-.825 2.625-1.575.6-.975.525-1.8-.3-3.3-.6-1.05-2.775-2.85-4.875-4.05-2.025-1.125-4.575-2.325-5.7-2.55-1.275-.3-2.175-.075-2.775.675Z"/>
</svg>
