<?xml version="1.0" encoding="UTF-8" standalone="no"?>
<svg
   width="105"
   height="105"
   viewBox="0 0 105 105"
   fill="none"
   version="1.1"
   id="svg4"
   sodipodi:docname="odos-logo-white-circle-only.svg"
   inkscape:version="1.1.2 (0a00cf5339, 2022-02-04)"
   xmlns:inkscape="http://www.inkscape.org/namespaces/inkscape"
   xmlns:sodipodi="http://sodipodi.sourceforge.net/DTD/sodipodi-0.dtd"
   xmlns="http://www.w3.org/2000/svg"
   xmlns:svg="http://www.w3.org/2000/svg">
  <defs
     id="defs8" />
  <sodipodi:namedview
     id="namedview6"
     pagecolor="#ffffff"
     bordercolor="#666666"
     borderopacity="1.0"
     inkscape:pageshadow="2"
     inkscape:pageopacity="0.0"
     inkscape:pagecheckerboard="0"
     showgrid="false"
     inkscape:zoom="2.9199029"
     inkscape:cx="205.82876"
     inkscape:cy="48.974231"
     inkscape:window-width="3440"
     inkscape:window-height="1367"
     inkscape:window-x="0"
     inkscape:window-y="0"
     inkscape:window-maximized="1"
     inkscape:current-layer="svg4" />
  <path
     fill-rule="evenodd"
     clip-rule="evenodd"
     d="m 24.941349,18.844049 6.7294,6.9404 c 7.0199,-5.5109 15.9168,-8.0569 24.7891,-7.0931 8.8723,0.9633 17.0157,5.3603 22.6889,12.2493 l -6.7801,6.9569 c 3.5921,4.6906 5.3768,10.5181 5.0259,16.4155 -0.3497,5.898 -2.812,11.4729 -6.935,15.7048 -4.1224,4.2325 -9.6311,6.8389 -15.5179,7.3435 -5.8862,0.5041 -11.7585,-1.1273 -16.5415,-4.5955 l -3.4485,3.583 c 5.3933,4.1032 12.0341,6.2264 18.8073,6.0155 6.7737,-0.2121 13.2681,-2.7459 18.3955,-7.177 5.1274,-4.4311 8.5754,-10.4902 9.7663,-17.1614 1.1902,-6.6712 0.0518,-13.5491 -3.2264,-19.4807 l 3.3652,-3.4907 c 3.6808,6.0763 5.3773,13.1491 4.8545,20.2347 -0.5233,7.085 -3.2402,13.8315 -7.7739,19.3018 l 3.4657,3.5585 c 6.0394,-7.101 9.3491,-16.1224 9.3358,-25.4443 -0.0144,-9.322 -3.3508,-18.3331 -9.4117,-25.4166 -6.0603,-7.0823 -14.4477,-11.7724 -23.6548,-13.2281 -9.2077,-1.45512 -18.6322,0.4197 -26.5818,5.2887 l -3.3647,-3.424 c 7.0883,-4.61315 15.3652,-7.0652605 23.8226,-7.0577805 10.1689,-0.06141 20.0323,3.4752405 27.8441,9.9851805 l 3.4576,-3.5586 c -9.4303,-7.9703605 -21.5323,-12.0692955 -33.8654,-11.4690857 -12.3331,0.5996762 -23.9801,5.8531052 -32.5924,14.7013857 -8.6122205,8.8483 -13.5500635,20.633 -13.8165271,32.9779 -0.2664634,12.3449 4.1576766,24.3314 12.3806271,33.5428 l 3.4657,-3.5579 c -3.8485,-4.4236 -6.77002,-9.575 -8.58988,-15.1489 -1.8203805,-5.5733 -2.5028305,-11.4558 -2.0072805,-17.2988 0.49608,-5.8419 2.1600005,-11.5252 4.8935605,-16.7124 2.7335,-5.1872 6.4811,-9.7726 11.02,-13.485 z m 18.8697,26.9181 h 20.4669 l -10.2965,19.5586 z m -8.168,-4.9544 17.1103,32.8658 17.1102,-32.8658 z m 50.2408,-16.792 3.4656,-3.558 h 0.0251 c 8.2347,9.2104 12.668501,21.2017 12.406301,33.5541 -0.2616,12.3524 -5.200601,24.145 -13.818701,32.9982 -8.6176,8.8524 -20.2736,14.106501 -32.6137,14.700701 -12.3412,0.5939 -24.4479,-3.516201 -33.8761,-11.500001 l 3.4656,-3.5584 c 7.1743,5.915 16.0466,9.3902 25.3295,9.921 9.283,0.5307 18.4939,-1.9096 26.2961,-6.9686 l -3.3653,-3.4234 c -7.949,4.8769 -17.3772,6.7586 -26.5892,5.3062 -9.2124,-1.4524 -17.6036,-6.1441 -23.6661,-13.2308 -6.0629,-7.0854 -9.39881,-16.1031 -9.40735,-25.4288 -0.0091,-9.3262 3.30915,-18.3491 9.35825,-25.4475 l 3.4913,3.5756 c -4.5385,5.4681 -7.2581,12.2152 -7.7814,19.3018 -0.5233,7.0861 1.1764,14.1594 4.862,20.2347 l 3.3647,-3.4908 c -3.2862,-5.9305 -4.4332,-12.811 -3.2488,-19.4865 1.1849,-6.676 4.6286,-12.7422 9.755,-17.1797 5.1263,-4.438 11.6229,-6.9782 18.3993,-7.1945 6.7769,-0.2162 13.4225,1.9048 18.8207,6.0064 l -3.5073,3.6002 c -4.1428,-3.0443 -9.1607,-4.6618 -14.3009,-4.6094 -4.5849,-0.0054 -9.0806,1.2703 -12.9798,3.684 -3.8982,2.4136 -7.0456,5.8686 -9.0849,9.9755 -2.0398,4.1064 -2.8916,8.7015 -2.459,13.2666 0.4325,4.5646 2.1317,8.9182 4.9068,12.5686 l -3.4827,3.5746 -3.2888,3.3653 c 5.6763,6.8848 13.8197,11.2762 22.691,12.2381 8.8707,0.9622 17.766,-1.5822 24.7864,-7.0899 l 3.4656,3.5751 3.2809,3.3645 c 4.5352,-3.7147 8.278,-8.3019 11.0083,-13.4896 2.7298,-5.1883 4.391,-10.8711 4.885,-16.7124 0.4939,-5.8414 -0.1885,-11.7223 -2.0084,-17.2951 -1.8198,-5.5727 -4.7392,-10.7236 -8.585,-15.1478 z"
     fill="#ffffff"
     id="path2"
     sodipodi:nodetypes="cccccccccccsccccccccccccccccsccccccccccccccccccccccccccccccccccccccccccccccccccccc" />
</svg>
