<svg xmlns="http://www.w3.org/2000/svg" width="105" height="105" fill="none"><path fill="#ff5100" fill-rule="evenodd" d="m24.674 18.827 6.73 6.94a34.17 34.17 0 0 1 47.478 5.156l-6.78 6.957a24.598 24.598 0 0 1-33.97 34.869l-3.448 3.583a29.543 29.543 0 0 0 43.743-37.804l3.365-3.49a34.2 34.2 0 0 1-2.92 39.536l3.467 3.558a39.19 39.19 0 0 0-.076-50.86 39.182 39.182 0 0 0-50.237-7.94l-3.365-3.424A43.6 43.6 0 0 1 52.484 8.85a43.1 43.1 0 0 1 27.844 9.985l3.458-3.558A48.79 48.79 0 0 0 15.892 85.03l3.466-3.558A43.79 43.79 0 0 1 8.76 49.024a43.8 43.8 0 0 1 15.913-30.197m18.87 26.918H64.01L53.714 65.304Zm-8.168-4.954 17.11 32.865 17.11-32.866zm50.24-16.792 3.466-3.558h.025a48.789 48.789 0 0 1-34.026 81.252 48.8 48.8 0 0 1-33.876-11.5l3.466-3.558a43.74 43.74 0 0 0 51.625 2.952l-3.365-3.423a39.18 39.18 0 0 1-50.255-7.924 39.174 39.174 0 0 1-.05-50.876l3.492 3.575a34.16 34.16 0 0 0-2.92 39.536l3.365-3.49A29.554 29.554 0 0 1 51.47 23.124a29.55 29.55 0 0 1 18.82 6.006l-3.507 3.6a23.74 23.74 0 0 0-14.3-4.609 24.605 24.605 0 0 0-19.618 39.495l-3.482 3.574-3.29 3.366a34.183 34.183 0 0 0 47.478 5.148l3.466 3.575 3.28 3.364a43.81 43.81 0 0 0 13.886-47.497A43.8 43.8 0 0 0 85.617 24" clip-rule="evenodd"/></svg>