<?xml version="1.0" encoding="UTF-8"?>
<svg xmlns="http://www.w3.org/2000/svg" xmlns:xlink="http://www.w3.org/1999/xlink" width="30pt" height="30.000001pt" viewBox="0 0 30 30.000001" version="1.2">
<defs>
<clipPath id="clip1">
  <path d="M 10.609375 10.269531 L 27.300781 10.269531 L 27.300781 26.964844 L 10.609375 26.964844 Z M 10.609375 10.269531 "/>
</clipPath>
<clipPath id="clip2">
  <path d="M 1.5 1.160156 L 18.917969 1.160156 L 18.917969 18.582031 L 1.5 18.582031 Z M 1.5 1.160156 "/>
</clipPath>
</defs>
<g id="surface1">
<g clip-path="url(#clip1)" clip-rule="nonzero">
<path style=" stroke:none;fill-rule:nonzero;fill:rgb(95.289612%,72.938538%,18.429565%);fill-opacity:1;" d="M 27.382812 18.65625 C 27.382812 19.207031 27.328125 19.753906 27.222656 20.292969 C 27.113281 20.832031 26.953125 21.359375 26.742188 21.867188 C 26.53125 22.375 26.273438 22.859375 25.96875 23.316406 C 25.664062 23.773438 25.316406 24.199219 24.925781 24.585938 C 24.535156 24.976562 24.113281 25.324219 23.65625 25.628906 C 23.195312 25.9375 22.714844 26.195312 22.203125 26.40625 C 21.695312 26.617188 21.171875 26.773438 20.632812 26.882812 C 20.089844 26.988281 19.546875 27.042969 18.996094 27.042969 C 18.445312 27.042969 17.898438 26.988281 17.359375 26.882812 C 16.820312 26.773438 16.292969 26.617188 15.785156 26.40625 C 15.277344 26.195312 14.792969 25.9375 14.335938 25.628906 C 13.878906 25.324219 13.453125 24.976562 13.066406 24.585938 C 12.675781 24.199219 12.328125 23.773438 12.023438 23.316406 C 11.714844 22.859375 11.457031 22.375 11.246094 21.867188 C 11.035156 21.359375 10.878906 20.832031 10.769531 20.292969 C 10.664062 19.753906 10.609375 19.207031 10.609375 18.65625 C 10.609375 18.105469 10.664062 17.5625 10.769531 17.019531 C 10.878906 16.480469 11.035156 15.957031 11.246094 15.449219 C 11.457031 14.9375 11.714844 14.457031 12.023438 13.996094 C 12.328125 13.539062 12.675781 13.117188 13.066406 12.726562 C 13.453125 12.335938 13.878906 11.988281 14.335938 11.683594 C 14.792969 11.378906 15.277344 11.121094 15.785156 10.910156 C 16.292969 10.699219 16.820312 10.539062 17.359375 10.429688 C 17.898438 10.324219 18.445312 10.269531 18.996094 10.269531 C 19.546875 10.269531 20.089844 10.324219 20.632812 10.429688 C 21.171875 10.539062 21.695312 10.699219 22.203125 10.910156 C 22.714844 11.121094 23.195312 11.378906 23.65625 11.683594 C 24.113281 11.988281 24.535156 12.335938 24.925781 12.726562 C 25.316406 13.117188 25.664062 13.539062 25.96875 13.996094 C 26.273438 14.457031 26.53125 14.9375 26.742188 15.449219 C 26.953125 15.957031 27.113281 16.480469 27.222656 17.019531 C 27.328125 17.5625 27.382812 18.105469 27.382812 18.65625 Z M 27.382812 18.65625 "/>
</g>
<path style=" stroke:none;fill-rule:nonzero;fill:rgb(100%,100%,100%);fill-opacity:1;" d="M 18.996094 12.816406 L 20.4375 14.292969 L 16.804688 17.925781 L 15.363281 16.484375 Z M 18.996094 12.816406 "/>
<path style=" stroke:none;fill-rule:nonzero;fill:rgb(100%,100%,100%);fill-opacity:1;" d="M 21.1875 15.003906 L 22.628906 16.484375 L 16.804688 22.308594 L 15.363281 20.863281 Z M 21.1875 15.003906 "/>
<path style=" stroke:none;fill-rule:nonzero;fill:rgb(100%,100%,100%);fill-opacity:1;" d="M 14.613281 17.195312 L 16.058594 18.675781 L 14.613281 20.117188 L 13.171875 18.675781 Z M 14.613281 17.195312 "/>
<path style=" stroke:none;fill-rule:nonzero;fill:rgb(100%,100%,100%);fill-opacity:1;" d="M 23.375 17.195312 L 24.820312 18.675781 L 18.996094 24.5 L 17.550781 23.054688 Z M 23.375 17.195312 "/>
<g clip-path="url(#clip2)" clip-rule="nonzero">
<path style=" stroke:none;fill-rule:nonzero;fill:rgb(79.998779%,96.469116%,42.349243%);fill-opacity:1;" d="M 18.917969 9.871094 C 18.917969 10.441406 18.863281 11.007812 18.753906 11.570312 C 18.640625 12.132812 18.476562 12.675781 18.257812 13.203125 C 18.039062 13.730469 17.769531 14.234375 17.453125 14.710938 C 17.132812 15.183594 16.773438 15.625 16.367188 16.03125 C 15.964844 16.433594 15.523438 16.796875 15.046875 17.113281 C 14.574219 17.429688 14.070312 17.699219 13.542969 17.917969 C 13.015625 18.136719 12.46875 18.300781 11.910156 18.414062 C 11.347656 18.523438 10.78125 18.582031 10.210938 18.582031 C 9.636719 18.582031 9.070312 18.523438 8.511719 18.414062 C 7.949219 18.300781 7.40625 18.136719 6.875 17.917969 C 6.347656 17.699219 5.847656 17.429688 5.371094 17.113281 C 4.894531 16.796875 4.457031 16.433594 4.050781 16.03125 C 3.648438 15.625 3.285156 15.183594 2.96875 14.710938 C 2.648438 14.234375 2.382812 13.730469 2.164062 13.203125 C 1.945312 12.675781 1.777344 12.132812 1.667969 11.570312 C 1.554688 11.007812 1.5 10.441406 1.5 9.871094 C 1.5 9.300781 1.554688 8.734375 1.667969 8.171875 C 1.777344 7.609375 1.945312 7.066406 2.164062 6.539062 C 2.382812 6.007812 2.648438 5.507812 2.96875 5.03125 C 3.285156 4.554688 3.648438 4.117188 4.050781 3.710938 C 4.457031 3.308594 4.894531 2.945312 5.371094 2.628906 C 5.847656 2.3125 6.347656 2.042969 6.875 1.824219 C 7.40625 1.605469 7.949219 1.441406 8.511719 1.328125 C 9.070312 1.21875 9.636719 1.160156 10.210938 1.160156 C 10.78125 1.160156 11.347656 1.21875 11.910156 1.328125 C 12.46875 1.441406 13.015625 1.605469 13.542969 1.824219 C 14.070312 2.042969 14.574219 2.3125 15.046875 2.628906 C 15.523438 2.945312 15.964844 3.308594 16.367188 3.710938 C 16.773438 4.117188 17.132812 4.554688 17.453125 5.03125 C 17.769531 5.507812 18.039062 6.007812 18.257812 6.539062 C 18.476562 7.066406 18.640625 7.609375 18.753906 8.171875 C 18.863281 8.734375 18.917969 9.300781 18.917969 9.871094 Z M 18.917969 9.871094 "/>
</g>
<path style=" stroke:none;fill-rule:nonzero;fill:rgb(98.429871%,52.549744%,50.588989%);fill-opacity:1;" d="M 7.960938 8.535156 C 7.308594 8.484375 6.691406 8.304688 6.113281 8 C 5.390625 7.652344 4.570312 7.117188 4.421875 6.640625 C 4.375 6.511719 4.386719 6.390625 4.449219 6.273438 C 4.597656 6.066406 4.792969 5.976562 5.046875 6.011719 C 5.078125 6.011719 5.109375 6.011719 5.144531 6.015625 C 4.996094 5.777344 5 5.546875 5.164062 5.316406 C 5.265625 5.207031 5.394531 5.15625 5.542969 5.164062 C 5.644531 5.167969 5.742188 5.183594 5.839844 5.214844 C 5.75 4.945312 5.808594 4.710938 6.015625 4.519531 C 6.09375 4.460938 6.179688 4.433594 6.277344 4.433594 C 6.777344 4.433594 7.457031 5.230469 7.921875 5.972656 C 8.339844 6.636719 8.777344 7.582031 8.65625 8.089844 C 8.648438 8.183594 8.609375 8.265625 8.546875 8.335938 C 8.503906 8.386719 8.449219 8.425781 8.382812 8.449219 C 8.25 8.515625 8.109375 8.542969 7.960938 8.535156 Z M 7.960938 8.535156 "/>
<path style=" stroke:none;fill-rule:nonzero;fill:rgb(8.239746%,9.408569%,10.198975%);fill-opacity:1;" d="M 6.277344 4.691406 C 6.582031 4.691406 7.175781 5.269531 7.703125 6.109375 C 8.214844 6.921875 8.492188 7.714844 8.398438 8.039062 C 8.398438 8.085938 8.382812 8.125 8.351562 8.160156 C 8.328125 8.183594 8.300781 8.203125 8.269531 8.210938 C 8.171875 8.261719 8.070312 8.28125 7.964844 8.273438 C 7.351562 8.21875 6.769531 8.050781 6.226562 7.761719 C 5.214844 7.28125 4.519531 6.667969 4.675781 6.398438 C 4.726562 6.3125 4.855469 6.269531 5.042969 6.269531 C 5.25 6.277344 5.453125 6.308594 5.652344 6.363281 C 5.359375 5.960938 5.234375 5.628906 5.359375 5.488281 C 5.410156 5.4375 5.46875 5.417969 5.542969 5.421875 C 5.792969 5.453125 6.023438 5.535156 6.234375 5.667969 C 6.054688 5.195312 6.019531 4.832031 6.167969 4.722656 C 6.199219 4.699219 6.234375 4.6875 6.273438 4.691406 M 6.273438 4.171875 C 6.121094 4.171875 5.984375 4.214844 5.859375 4.304688 C 5.664062 4.457031 5.5625 4.65625 5.558594 4.90625 L 5.542969 4.90625 C 5.429688 4.898438 5.324219 4.917969 5.222656 4.960938 C 5.121094 5.007812 5.03125 5.070312 4.960938 5.15625 C 4.886719 5.242188 4.835938 5.335938 4.808594 5.445312 C 4.78125 5.554688 4.777344 5.660156 4.800781 5.769531 C 4.546875 5.800781 4.355469 5.921875 4.222656 6.140625 C 4.125 6.328125 4.105469 6.519531 4.175781 6.71875 C 4.394531 7.414062 5.628906 8.054688 6.003906 8.230469 C 6.617188 8.554688 7.273438 8.742188 7.964844 8.792969 C 8.152344 8.800781 8.332031 8.761719 8.5 8.679688 C 8.59375 8.640625 8.671875 8.582031 8.742188 8.503906 C 8.835938 8.394531 8.894531 8.269531 8.914062 8.128906 C 9.074219 7.390625 8.367188 6.1875 8.144531 5.828125 C 7.828125 5.332031 7.019531 4.171875 6.277344 4.171875 Z M 6.273438 4.171875 "/>
<path style=" stroke:none;fill-rule:nonzero;fill:rgb(97.24884%,69.40918%,68.238831%);fill-opacity:1;" d="M 7.414062 5.945312 C 7.042969 5.496094 6.601562 5.132812 6.089844 4.851562 C 6.101562 4.800781 6.125 4.761719 6.167969 4.726562 C 6.414062 4.542969 7.105469 5.164062 7.699219 6.113281 C 7.867188 6.375 8.011719 6.652344 8.140625 6.933594 C 7.929688 6.582031 7.6875 6.253906 7.414062 5.945312 Z M 7.414062 5.945312 "/>
<path style=" stroke:none;fill-rule:nonzero;fill:rgb(87.059021%,34.509277%,32.159424%);fill-opacity:1;" d="M 4.675781 6.398438 C 4.769531 6.238281 5.144531 6.234375 5.652344 6.363281 C 5.359375 5.960938 5.234375 5.628906 5.355469 5.492188 C 5.375 5.472656 5.394531 5.457031 5.417969 5.445312 L 8.386719 8.09375 C 8.378906 8.117188 8.367188 8.140625 8.351562 8.160156 C 8.328125 8.1875 8.300781 8.203125 8.269531 8.210938 C 8 8.382812 7.140625 8.203125 6.222656 7.761719 C 5.214844 7.28125 4.519531 6.671875 4.675781 6.398438 Z M 4.675781 6.398438 "/>
<path style=" stroke:none;fill-rule:nonzero;fill:rgb(80.389404%,92.939758%,41.569519%);fill-opacity:1;" d="M 13.113281 5.65625 C 12.703125 5.128906 12.195312 4.722656 11.589844 4.4375 C 10.914062 4.125 10.207031 4 9.464844 4.066406 C 8.722656 4.132812 8.050781 4.382812 7.441406 4.8125 C 6.816406 5.292969 6.359375 5.898438 6.066406 6.628906 C 5.617188 7.738281 5.390625 8.890625 5.382812 10.089844 C 5.34375 11.390625 5.441406 12.683594 5.675781 13.964844 C 5.71875 14.371094 5.875 14.730469 6.144531 15.042969 C 6.289062 15.195312 6.464844 15.265625 6.671875 15.257812 C 7.175781 15.207031 7.15625 14.554688 7.164062 14.1875 C 7.132812 13.894531 7.195312 13.625 7.34375 13.378906 C 7.433594 13.261719 7.550781 13.230469 7.6875 13.277344 C 7.777344 13.316406 7.847656 13.375 7.898438 13.460938 C 8.097656 13.796875 7.972656 14.203125 7.984375 14.566406 C 7.984375 14.824219 7.996094 15.082031 8.023438 15.339844 C 8.042969 15.492188 8.09375 15.632812 8.179688 15.757812 C 8.292969 15.902344 8.445312 15.980469 8.632812 15.984375 C 8.816406 15.992188 8.972656 15.925781 9.101562 15.789062 C 9.277344 15.511719 9.355469 15.203125 9.335938 14.875 C 9.339844 14.640625 9.367188 14.414062 9.410156 14.1875 C 9.453125 13.957031 9.585938 13.804688 9.808594 13.730469 C 10.054688 13.695312 10.242188 13.78125 10.363281 14 C 10.457031 14.179688 10.507812 14.375 10.519531 14.578125 C 10.523438 14.835938 10.601562 15.066406 10.757812 15.273438 C 10.921875 15.453125 11.125 15.515625 11.363281 15.457031 C 11.972656 15.292969 11.8125 14.640625 11.953125 14.1875 C 11.980469 14.054688 12.0625 13.972656 12.195312 13.945312 C 12.324219 13.917969 12.429688 13.960938 12.507812 14.066406 C 12.640625 14.257812 12.714844 14.464844 12.738281 14.691406 C 12.742188 14.902344 12.828125 15.070312 12.996094 15.199219 C 13.132812 15.277344 13.273438 15.292969 13.425781 15.253906 C 13.898438 15.132812 14.070312 14.53125 14.152344 14.109375 C 14.515625 12.386719 14.589844 10.652344 14.371094 8.90625 C 14.234375 7.710938 13.816406 6.628906 13.113281 5.65625 Z M 13.113281 5.65625 "/>
<path style=" stroke:none;fill-rule:nonzero;fill:rgb(8.239746%,9.408569%,10.198975%);fill-opacity:1;" d="M 8.648438 16.242188 L 8.609375 16.242188 C 8.34375 16.234375 8.132812 16.125 7.96875 15.914062 C 7.855469 15.753906 7.789062 15.574219 7.769531 15.378906 C 7.742188 15.179688 7.730469 14.980469 7.730469 14.78125 C 7.730469 14.710938 7.730469 14.644531 7.726562 14.574219 C 7.722656 14.453125 7.730469 14.332031 7.738281 14.214844 C 7.78125 14 7.761719 13.792969 7.675781 13.59375 C 7.65625 13.5625 7.632812 13.535156 7.597656 13.519531 C 7.574219 13.515625 7.554688 13.523438 7.542969 13.542969 C 7.441406 13.71875 7.402344 13.910156 7.425781 14.113281 C 7.425781 14.140625 7.425781 14.167969 7.425781 14.195312 C 7.425781 14.222656 7.425781 14.246094 7.425781 14.269531 C 7.414062 14.652344 7.398438 15.449219 6.699219 15.515625 C 6.410156 15.53125 6.167969 15.4375 5.964844 15.230469 C 5.660156 14.878906 5.476562 14.476562 5.421875 14.011719 C 5.183594 12.714844 5.085938 11.402344 5.125 10.082031 C 5.132812 8.851562 5.363281 7.667969 5.828125 6.527344 C 6.140625 5.753906 6.628906 5.113281 7.292969 4.605469 C 7.519531 4.441406 7.765625 4.300781 8.019531 4.183594 C 8.277344 4.070312 8.539062 3.976562 8.8125 3.914062 C 9.085938 3.847656 9.363281 3.808594 9.644531 3.796875 C 9.925781 3.78125 10.207031 3.796875 10.484375 3.839844 C 10.761719 3.878906 11.035156 3.945312 11.300781 4.039062 C 11.566406 4.132812 11.820312 4.25 12.0625 4.394531 C 12.304688 4.535156 12.53125 4.699219 12.742188 4.882812 C 12.953125 5.070312 13.144531 5.273438 13.316406 5.496094 C 14.054688 6.503906 14.492188 7.628906 14.628906 8.867188 C 14.84375 10.644531 14.769531 12.410156 14.40625 14.164062 C 14.351562 14.449219 14.179688 15.328125 13.492188 15.507812 C 13.273438 15.5625 13.0625 15.535156 12.867188 15.421875 C 12.628906 15.253906 12.5 15.027344 12.484375 14.734375 C 12.46875 14.554688 12.410156 14.386719 12.3125 14.234375 C 12.289062 14.207031 12.269531 14.195312 12.25 14.199219 C 12.234375 14.203125 12.214844 14.21875 12.203125 14.261719 C 12.171875 14.382812 12.148438 14.507812 12.140625 14.628906 C 12.097656 15.015625 12.039062 15.542969 11.429688 15.707031 C 11.089844 15.789062 10.804688 15.703125 10.566406 15.445312 C 10.375 15.199219 10.273438 14.917969 10.265625 14.605469 C 10.257812 14.441406 10.21875 14.28125 10.144531 14.132812 C 10.082031 14.015625 9.984375 13.96875 9.855469 13.984375 C 9.78125 13.996094 9.699219 14.117188 9.660156 14.253906 C 9.628906 14.402344 9.609375 14.550781 9.605469 14.703125 C 9.601562 14.765625 9.597656 14.832031 9.59375 14.894531 C 9.589844 14.9375 9.585938 14.984375 9.582031 15.03125 C 9.597656 15.375 9.5 15.683594 9.292969 15.960938 C 9.121094 16.152344 8.90625 16.246094 8.648438 16.242188 Z M 7.585938 13 C 7.652344 13 7.714844 13.011719 7.777344 13.035156 C 7.921875 13.09375 8.039062 13.191406 8.117188 13.328125 C 8.265625 13.621094 8.3125 13.925781 8.253906 14.25 C 8.246094 14.351562 8.242188 14.453125 8.242188 14.554688 C 8.246094 14.625 8.246094 14.699219 8.246094 14.769531 C 8.246094 14.949219 8.257812 15.125 8.277344 15.300781 C 8.289062 15.410156 8.324219 15.511719 8.382812 15.601562 C 8.445312 15.683594 8.53125 15.726562 8.632812 15.726562 C 8.742188 15.734375 8.832031 15.695312 8.90625 15.617188 C 9.027344 15.425781 9.078125 15.21875 9.066406 14.992188 C 9.070312 14.945312 9.074219 14.898438 9.078125 14.847656 C 9.082031 14.792969 9.085938 14.734375 9.089844 14.671875 C 9.09375 14.484375 9.117188 14.300781 9.160156 14.117188 C 9.230469 13.777344 9.429688 13.5625 9.765625 13.476562 C 9.929688 13.449219 10.085938 13.472656 10.238281 13.542969 C 10.386719 13.613281 10.503906 13.722656 10.585938 13.867188 C 10.699219 14.078125 10.761719 14.304688 10.777344 14.546875 C 10.773438 14.75 10.832031 14.933594 10.949219 15.101562 C 11.046875 15.203125 11.164062 15.238281 11.300781 15.203125 C 11.542969 15.140625 11.582031 14.980469 11.628906 14.574219 C 11.640625 14.414062 11.667969 14.261719 11.710938 14.109375 C 11.773438 13.878906 11.921875 13.742188 12.152344 13.691406 C 12.382812 13.648438 12.566406 13.71875 12.710938 13.902344 C 12.871094 14.128906 12.964844 14.375 12.992188 14.648438 C 13.023438 14.824219 13.054688 14.933594 13.128906 14.976562 C 13.203125 15.019531 13.28125 15.027344 13.363281 15.007812 C 13.613281 14.941406 13.789062 14.632812 13.902344 14.0625 C 14.261719 12.367188 14.335938 10.660156 14.121094 8.945312 C 13.996094 7.792969 13.59375 6.75 12.917969 5.816406 C 12.609375 5.417969 12.242188 5.09375 11.808594 4.839844 C 11.375 4.585938 10.914062 4.421875 10.417969 4.347656 C 9.921875 4.273438 9.429688 4.292969 8.941406 4.410156 C 8.453125 4.523438 8.003906 4.730469 7.597656 5.019531 C 7.007812 5.46875 6.578125 6.039062 6.300781 6.726562 C 5.867188 7.808594 5.644531 8.929688 5.640625 10.09375 C 5.601562 11.375 5.695312 12.648438 5.925781 13.910156 C 5.964844 14.265625 6.097656 14.582031 6.324219 14.855469 C 6.414062 14.953125 6.523438 14.996094 6.652344 14.996094 C 6.851562 14.976562 6.898438 14.710938 6.90625 14.253906 C 6.90625 14.226562 6.90625 14.199219 6.90625 14.175781 C 6.90625 14.148438 6.90625 14.125 6.90625 14.097656 C 6.882812 13.773438 6.960938 13.476562 7.144531 13.210938 C 7.257812 13.070312 7.40625 13 7.585938 13 Z M 7.585938 13 "/>
<path style=" stroke:none;fill-rule:nonzero;fill:rgb(68.629456%,79.998779%,27.839661%);fill-opacity:1;" d="M 10.714844 8.574219 C 10.714844 8.84375 10.664062 9.101562 10.558594 9.351562 C 10.457031 9.597656 10.308594 9.820312 10.121094 10.007812 C 9.929688 10.199219 9.710938 10.347656 9.460938 10.449219 C 9.210938 10.550781 8.953125 10.605469 8.683594 10.605469 C 8.414062 10.605469 8.15625 10.550781 7.90625 10.449219 C 7.660156 10.347656 7.441406 10.199219 7.25 10.007812 C 7.058594 9.820312 6.914062 9.597656 6.808594 9.351562 C 6.707031 9.101562 6.65625 8.84375 6.65625 8.574219 C 6.65625 8.304688 6.707031 8.046875 6.808594 7.796875 C 6.914062 7.546875 7.058594 7.328125 7.25 7.140625 C 7.441406 6.949219 7.660156 6.800781 7.90625 6.699219 C 8.15625 6.597656 8.414062 6.542969 8.683594 6.542969 C 8.953125 6.542969 9.210938 6.597656 9.460938 6.699219 C 9.710938 6.800781 9.929688 6.949219 10.121094 7.140625 C 10.308594 7.328125 10.457031 7.546875 10.558594 7.796875 C 10.664062 8.046875 10.714844 8.304688 10.714844 8.574219 Z M 10.714844 8.574219 "/>
<path style=" stroke:none;fill-rule:nonzero;fill:rgb(95.289612%,95.289612%,54.508972%);fill-opacity:1;" d="M 10.226562 8.496094 C 10.226562 8.71875 10.183594 8.933594 10.097656 9.144531 C 10.011719 9.351562 9.886719 9.535156 9.730469 9.691406 C 9.570312 9.851562 9.386719 9.972656 9.179688 10.058594 C 8.972656 10.144531 8.757812 10.1875 8.53125 10.1875 C 8.308594 10.1875 8.089844 10.144531 7.882812 10.058594 C 7.675781 9.972656 7.492188 9.851562 7.332031 9.691406 C 7.175781 9.535156 7.050781 9.351562 6.964844 9.144531 C 6.878906 8.933594 6.835938 8.71875 6.835938 8.496094 C 6.835938 8.269531 6.878906 8.054688 6.964844 7.847656 C 7.050781 7.636719 7.175781 7.457031 7.332031 7.296875 C 7.492188 7.136719 7.675781 7.015625 7.882812 6.929688 C 8.089844 6.84375 8.308594 6.800781 8.53125 6.800781 C 8.757812 6.800781 8.972656 6.84375 9.179688 6.929688 C 9.386719 7.015625 9.570312 7.136719 9.730469 7.296875 C 9.886719 7.457031 10.011719 7.636719 10.097656 7.847656 C 10.183594 8.054688 10.226562 8.269531 10.226562 8.496094 Z M 10.226562 8.496094 "/>
<path style=" stroke:none;fill-rule:nonzero;fill:rgb(8.239746%,9.408569%,10.198975%);fill-opacity:1;" d="M 8.53125 10.5 C 8.265625 10.5 8.007812 10.449219 7.765625 10.347656 C 7.519531 10.246094 7.300781 10.101562 7.113281 9.914062 C 6.925781 9.722656 6.78125 9.507812 6.679688 9.261719 C 6.578125 9.015625 6.527344 8.761719 6.527344 8.496094 C 6.527344 8.230469 6.578125 7.972656 6.679688 7.726562 C 6.78125 7.480469 6.925781 7.265625 7.113281 7.078125 C 7.300781 6.886719 7.519531 6.742188 7.765625 6.640625 C 8.007812 6.539062 8.265625 6.488281 8.53125 6.488281 C 8.796875 6.488281 9.054688 6.539062 9.300781 6.640625 C 9.542969 6.742188 9.761719 6.886719 9.949219 7.074219 C 10.136719 7.265625 10.28125 7.480469 10.382812 7.726562 C 10.484375 7.972656 10.539062 8.226562 10.539062 8.496094 C 10.535156 8.761719 10.484375 9.015625 10.382812 9.261719 C 10.28125 9.507812 10.136719 9.722656 9.949219 9.914062 C 9.761719 10.101562 9.542969 10.246094 9.296875 10.347656 C 9.054688 10.449219 8.796875 10.5 8.53125 10.5 Z M 8.53125 7.113281 C 8.347656 7.113281 8.171875 7.148438 8.003906 7.21875 C 7.832031 7.285156 7.683594 7.386719 7.554688 7.515625 C 7.425781 7.644531 7.324219 7.796875 7.253906 7.964844 C 7.183594 8.132812 7.148438 8.3125 7.148438 8.496094 C 7.148438 8.675781 7.183594 8.855469 7.253906 9.023438 C 7.324219 9.191406 7.425781 9.34375 7.554688 9.472656 C 7.683594 9.601562 7.832031 9.703125 8.003906 9.773438 C 8.171875 9.839844 8.347656 9.875 8.53125 9.878906 C 8.714844 9.875 8.890625 9.839844 9.058594 9.773438 C 9.230469 9.703125 9.378906 9.601562 9.507812 9.472656 C 9.640625 9.34375 9.738281 9.191406 9.808594 9.023438 C 9.878906 8.855469 9.914062 8.675781 9.914062 8.496094 C 9.914062 8.3125 9.878906 8.136719 9.808594 7.964844 C 9.738281 7.796875 9.636719 7.648438 9.507812 7.515625 C 9.378906 7.386719 9.230469 7.289062 9.058594 7.21875 C 8.890625 7.148438 8.714844 7.113281 8.53125 7.113281 Z M 8.53125 7.113281 "/>
<path style=" stroke:none;fill-rule:nonzero;fill:rgb(100%,100%,100%);fill-opacity:1;" d="M 8.546875 7.101562 C 8.28125 7.101562 8.039062 7.175781 7.8125 7.316406 C 7.972656 7.238281 8.140625 7.195312 8.316406 7.183594 C 8.488281 7.171875 8.660156 7.195312 8.828125 7.246094 C 8.996094 7.300781 9.148438 7.382812 9.285156 7.496094 C 9.417969 7.605469 9.527344 7.742188 9.613281 7.894531 C 9.699219 8.046875 9.753906 8.210938 9.773438 8.386719 C 9.796875 8.5625 9.785156 8.734375 9.742188 8.902344 C 9.695312 9.074219 9.621094 9.230469 9.519531 9.371094 C 9.414062 9.511719 9.289062 9.632812 9.140625 9.726562 C 9.429688 9.585938 9.644531 9.371094 9.785156 9.082031 C 9.925781 8.792969 9.960938 8.492188 9.890625 8.175781 C 9.820312 7.863281 9.65625 7.605469 9.40625 7.40625 C 9.15625 7.203125 8.867188 7.105469 8.546875 7.105469 Z M 8.546875 7.101562 "/>
<path style=" stroke:none;fill-rule:nonzero;fill:rgb(93.728638%,83.529663%,40.388489%);fill-opacity:1;" d="M 8.742188 9.699219 C 8.542969 9.699219 8.351562 9.660156 8.167969 9.582031 C 7.984375 9.507812 7.824219 9.398438 7.683594 9.257812 C 7.542969 9.121094 7.4375 8.957031 7.359375 8.773438 C 7.285156 8.589844 7.246094 8.398438 7.246094 8.203125 C 7.246094 8.105469 7.253906 8.011719 7.273438 7.921875 C 7.136719 8.21875 7.109375 8.523438 7.191406 8.839844 C 7.273438 9.15625 7.445312 9.410156 7.710938 9.601562 C 7.972656 9.796875 8.265625 9.886719 8.59375 9.871094 C 8.917969 9.855469 9.203125 9.738281 9.445312 9.523438 C 9.226562 9.640625 8.992188 9.699219 8.742188 9.699219 Z M 8.742188 9.699219 "/>
<path style=" stroke:none;fill-rule:nonzero;fill:rgb(8.239746%,9.408569%,10.198975%);fill-opacity:1;" d="M 8.492188 9.382812 C 8.398438 9.382812 8.316406 9.347656 8.25 9.28125 C 8.183594 9.214844 8.148438 9.132812 8.148438 9.039062 L 8.148438 8.023438 C 8.148438 7.925781 8.183594 7.84375 8.25 7.777344 C 8.316406 7.710938 8.398438 7.675781 8.492188 7.675781 C 8.589844 7.675781 8.667969 7.710938 8.738281 7.777344 C 8.804688 7.84375 8.835938 7.925781 8.835938 8.023438 L 8.835938 9.039062 C 8.835938 9.132812 8.804688 9.214844 8.738281 9.28125 C 8.667969 9.347656 8.589844 9.382812 8.492188 9.382812 Z M 8.492188 9.382812 "/>
<path style=" stroke:none;fill-rule:nonzero;fill:rgb(68.629456%,79.998779%,27.839661%);fill-opacity:1;" d="M 6.847656 11.449219 C 6.847656 11.332031 6.882812 11.222656 6.953125 11.125 C 6.953125 11.121094 6.957031 11.113281 6.960938 11.105469 L 6.960938 11.109375 C 7.011719 11.042969 7.070312 10.984375 7.140625 10.9375 C 7.148438 10.847656 7.128906 10.769531 7.078125 10.699219 C 7.0625 10.660156 6.992188 10.605469 6.957031 10.632812 C 6.722656 10.8125 6.734375 11.246094 6.75 11.574219 C 6.753906 11.730469 6.785156 11.933594 6.6875 12.046875 C 6.648438 12.097656 6.625 12.109375 6.589844 12.0625 C 6.519531 11.851562 6.496094 11.636719 6.511719 11.417969 C 6.507812 11.277344 6.503906 11.136719 6.507812 11 C 6.507812 10.949219 6.507812 10.894531 6.507812 10.839844 C 6.507812 10.824219 6.507812 10.804688 6.507812 10.789062 C 6.507812 10.785156 6.507812 10.777344 6.507812 10.769531 C 6.515625 10.6875 6.515625 10.484375 6.445312 10.449219 C 6.371094 10.417969 6.339844 10.550781 6.332031 10.632812 C 6.3125 10.914062 6.308594 11.199219 6.324219 11.480469 C 6.316406 11.8125 6.359375 12.140625 6.460938 12.457031 C 6.582031 12.742188 6.769531 12.570312 6.855469 12.332031 C 6.914062 12.136719 6.9375 11.941406 6.921875 11.738281 C 6.871094 11.648438 6.847656 11.554688 6.847656 11.449219 Z M 6.847656 11.449219 "/>
<path style=" stroke:none;fill-rule:nonzero;fill:rgb(8.628845%,9.799194%,10.5896%);fill-opacity:1;" d="M 7.632812 11.402344 C 7.484375 11.488281 7.425781 11.542969 7.359375 11.363281 C 7.324219 11.234375 7.277344 11.113281 7.222656 10.996094 C 7.199219 10.953125 7.15625 10.90625 7.101562 10.933594 C 6.726562 11.128906 6.75 11.597656 6.769531 11.957031 C 6.78125 12.125 6.824219 12.351562 6.675781 12.472656 C 6.609375 12.527344 6.574219 12.542969 6.519531 12.488281 C 6.386719 12.367188 6.40625 11.949219 6.398438 11.789062 C 6.390625 11.636719 6.386719 11.484375 6.390625 11.332031 C 6.390625 11.277344 6.390625 11.21875 6.394531 11.164062 C 6.394531 11.144531 6.394531 11.125 6.398438 11.105469 C 6.398438 11.101562 6.398438 11.09375 6.398438 11.082031 C 6.40625 10.996094 6.410156 10.773438 6.296875 10.734375 C 6.183594 10.699219 6.128906 10.84375 6.121094 10.933594 C 6.089844 11.242188 6.085938 11.550781 6.105469 11.859375 C 6.09375 12.230469 6.167969 12.582031 6.324219 12.917969 C 6.519531 13.230469 6.8125 13.042969 6.949219 12.78125 C 7.046875 12.558594 7.082031 12.324219 7.050781 12.082031 C 7.039062 11.882812 6.960938 11.609375 7.101562 11.449219 C 7.136719 11.59375 7.191406 11.730469 7.273438 11.859375 C 7.417969 12.035156 7.597656 11.925781 7.710938 11.773438 C 7.761719 11.710938 7.785156 11.316406 7.632812 11.402344 Z M 7.632812 11.402344 "/>
<path style=" stroke:none;fill-rule:nonzero;fill:rgb(8.239746%,9.408569%,10.198975%);fill-opacity:1;" d="M 6.570312 13.109375 C 6.445312 13.101562 6.359375 13.042969 6.304688 12.933594 C 6.148438 12.613281 6.074219 12.273438 6.085938 11.917969 L 6.082031 11.859375 C 6.058594 11.550781 6.0625 11.238281 6.09375 10.929688 C 6.097656 10.847656 6.132812 10.78125 6.195312 10.726562 C 6.226562 10.703125 6.265625 10.699219 6.304688 10.710938 C 6.453125 10.757812 6.425781 11.054688 6.421875 11.085938 L 6.421875 11.109375 C 6.421875 11.125 6.421875 11.144531 6.421875 11.164062 C 6.421875 11.21875 6.417969 11.277344 6.417969 11.332031 C 6.417969 11.488281 6.417969 11.640625 6.429688 11.785156 C 6.429688 11.816406 6.429688 11.851562 6.429688 11.890625 C 6.433594 12.074219 6.4375 12.375 6.539062 12.472656 C 6.582031 12.507812 6.597656 12.507812 6.660156 12.453125 C 6.78125 12.355469 6.765625 12.183594 6.753906 12.035156 C 6.753906 12.007812 6.75 11.984375 6.746094 11.957031 C 6.726562 11.601562 6.699219 11.117188 7.09375 10.910156 C 7.148438 10.882812 7.207031 10.910156 7.246094 10.980469 C 7.289062 11.066406 7.324219 11.152344 7.347656 11.242188 C 7.359375 11.277344 7.371094 11.316406 7.386719 11.355469 C 7.410156 11.414062 7.429688 11.445312 7.453125 11.453125 C 7.472656 11.460938 7.523438 11.4375 7.585938 11.402344 L 7.625 11.382812 C 7.664062 11.351562 7.699219 11.355469 7.734375 11.394531 C 7.792969 11.527344 7.796875 11.660156 7.738281 11.792969 C 7.671875 11.898438 7.574219 11.960938 7.449219 11.980469 C 7.371094 11.980469 7.304688 11.945312 7.257812 11.878906 C 7.195312 11.789062 7.148438 11.691406 7.125 11.585938 C 7.117188 11.558594 7.109375 11.53125 7.097656 11.503906 C 7.039062 11.644531 7.03125 11.789062 7.066406 11.9375 C 7.074219 11.988281 7.078125 12.039062 7.082031 12.082031 C 7.109375 12.328125 7.074219 12.566406 6.976562 12.796875 C 6.902344 12.972656 6.769531 13.078125 6.582031 13.113281 Z M 6.261719 10.757812 C 6.25 10.757812 6.234375 10.761719 6.222656 10.769531 C 6.175781 10.8125 6.148438 10.871094 6.144531 10.9375 C 6.117188 11.242188 6.113281 11.550781 6.132812 11.855469 L 6.136719 11.914062 C 6.128906 12.261719 6.199219 12.59375 6.347656 12.90625 C 6.394531 13.003906 6.472656 13.050781 6.578125 13.054688 C 6.746094 13.023438 6.863281 12.925781 6.925781 12.769531 C 7.023438 12.546875 7.054688 12.320312 7.027344 12.082031 C 7.023438 12.039062 7.019531 11.988281 7.011719 11.941406 C 6.960938 11.757812 6.984375 11.589844 7.085938 11.429688 L 7.113281 11.398438 L 7.128906 11.4375 C 7.144531 11.480469 7.15625 11.523438 7.171875 11.566406 C 7.195312 11.667969 7.234375 11.757812 7.292969 11.84375 C 7.332031 11.898438 7.382812 11.921875 7.445312 11.925781 C 7.554688 11.90625 7.636719 11.851562 7.691406 11.757812 C 7.734375 11.648438 7.734375 11.535156 7.691406 11.425781 C 7.6875 11.421875 7.675781 11.410156 7.644531 11.425781 L 7.605469 11.449219 C 7.535156 11.492188 7.480469 11.519531 7.429688 11.503906 C 7.390625 11.488281 7.363281 11.449219 7.335938 11.371094 C 7.320312 11.332031 7.308594 11.292969 7.296875 11.257812 C 7.273438 11.167969 7.238281 11.085938 7.195312 11.007812 C 7.179688 10.972656 7.148438 10.9375 7.113281 10.957031 C 6.75 11.148438 6.777344 11.613281 6.796875 11.957031 C 6.796875 11.980469 6.796875 12.007812 6.800781 12.03125 C 6.84375 12.203125 6.808594 12.359375 6.6875 12.496094 C 6.625 12.542969 6.574219 12.578125 6.5 12.507812 C 6.382812 12.398438 6.378906 12.09375 6.375 11.894531 C 6.375 11.851562 6.375 11.816406 6.371094 11.789062 C 6.363281 11.640625 6.359375 11.488281 6.363281 11.332031 C 6.363281 11.277344 6.363281 11.21875 6.367188 11.164062 C 6.367188 11.144531 6.367188 11.125 6.371094 11.105469 L 6.371094 11.082031 C 6.382812 10.96875 6.371094 10.789062 6.285156 10.761719 C 6.277344 10.757812 6.269531 10.757812 6.261719 10.757812 Z M 6.261719 10.757812 "/>
<path style=" stroke:none;fill-rule:nonzero;fill:rgb(95.689392%,100%,70.199585%);fill-opacity:1;" d="M 9.507812 4.34375 C 8.8125 4.402344 8.179688 4.632812 7.609375 5.039062 C 7.019531 5.492188 6.585938 6.066406 6.308594 6.757812 C 6.070312 7.324219 5.898438 7.910156 5.796875 8.519531 C 6.386719 6.40625 7.832031 4.816406 9.507812 4.34375 Z M 9.507812 4.34375 "/>
<path style=" stroke:none;fill-rule:nonzero;fill:rgb(68.629456%,79.998779%,27.839661%);fill-opacity:1;" d="M 14.144531 8.953125 C 14.019531 7.804688 13.617188 6.761719 12.933594 5.828125 C 12.585938 5.378906 12.160156 5.027344 11.660156 4.765625 C 11.15625 4.503906 10.625 4.359375 10.058594 4.332031 C 11.898438 4.644531 13.335938 7.214844 13.335938 10.335938 C 13.347656 11.546875 13.121094 12.714844 12.65625 13.835938 C 12.683594 13.859375 12.707031 13.882812 12.726562 13.910156 C 12.890625 14.132812 12.984375 14.382812 13.011719 14.65625 C 13.042969 14.828125 13.074219 14.9375 13.148438 14.980469 C 13.222656 15.023438 13.300781 15.03125 13.386719 15.011719 C 13.636719 14.945312 13.816406 14.636719 13.925781 14.066406 C 14.289062 12.375 14.363281 10.671875 14.144531 8.953125 Z M 14.144531 8.953125 "/>
<path style=" stroke:none;fill-rule:nonzero;fill:rgb(98.429871%,52.549744%,50.588989%);fill-opacity:1;" d="M 12.96875 8.09375 C 12.609375 8.132812 12.273438 8.050781 11.972656 7.851562 C 11.914062 7.8125 11.871094 7.761719 11.839844 7.703125 C 11.792969 7.617188 11.777344 7.527344 11.789062 7.433594 C 11.789062 6.914062 12.433594 6.097656 12.992188 5.546875 C 13.550781 4.996094 14.320312 4.417969 14.820312 4.417969 C 14.964844 4.410156 15.089844 4.460938 15.183594 4.574219 C 15.339844 4.8125 15.34375 5.050781 15.195312 5.292969 C 15.222656 5.292969 15.246094 5.292969 15.269531 5.292969 C 15.511719 5.261719 15.695312 5.347656 15.828125 5.554688 C 15.933594 5.8125 15.886719 6.042969 15.683594 6.238281 C 16.03125 6.300781 16.238281 6.4375 16.300781 6.648438 C 16.335938 6.777344 16.316406 6.902344 16.242188 7.015625 C 15.988281 7.441406 15.0625 7.773438 14.28125 7.941406 C 13.847656 8.039062 13.414062 8.089844 12.96875 8.09375 Z M 12.96875 8.09375 "/>
<path style=" stroke:none;fill-rule:nonzero;fill:rgb(8.239746%,9.408569%,10.198975%);fill-opacity:1;" d="M 14.820312 4.675781 C 14.886719 4.671875 14.941406 4.695312 14.988281 4.742188 C 15.109375 4.882812 14.988281 5.226562 14.707031 5.648438 C 14.890625 5.589844 15.078125 5.558594 15.273438 5.550781 C 15.4375 5.550781 15.554688 5.589844 15.597656 5.675781 C 15.6875 5.839844 15.488281 6.132812 15.109375 6.457031 L 15.171875 6.457031 C 15.660156 6.457031 16 6.546875 16.050781 6.71875 C 16.136719 7.019531 15.320312 7.453125 14.226562 7.6875 C 13.8125 7.78125 13.394531 7.832031 12.96875 7.835938 C 12.667969 7.871094 12.390625 7.808594 12.132812 7.648438 C 12.105469 7.632812 12.082031 7.609375 12.066406 7.582031 C 12.046875 7.539062 12.039062 7.496094 12.050781 7.449219 C 12.035156 7.113281 12.488281 6.410156 13.175781 5.734375 C 13.828125 5.09375 14.492188 4.679688 14.816406 4.679688 M 14.816406 4.160156 C 14.09375 4.160156 13.097656 5.082031 12.8125 5.363281 C 12.507812 5.660156 11.542969 6.667969 11.527344 7.421875 C 11.511719 7.5625 11.539062 7.699219 11.605469 7.828125 C 11.65625 7.917969 11.722656 7.992188 11.804688 8.054688 C 12.15625 8.296875 12.542969 8.394531 12.96875 8.355469 C 13.429688 8.347656 13.886719 8.292969 14.335938 8.195312 C 14.742188 8.105469 16.09375 7.773438 16.464844 7.144531 C 16.578125 6.964844 16.605469 6.777344 16.550781 6.574219 C 16.472656 6.328125 16.316406 6.164062 16.074219 6.074219 C 16.121094 5.972656 16.144531 5.863281 16.140625 5.753906 C 16.140625 5.640625 16.113281 5.53125 16.058594 5.433594 C 16.007812 5.332031 15.933594 5.25 15.84375 5.183594 C 15.75 5.117188 15.648438 5.074219 15.539062 5.058594 C 15.59375 4.8125 15.542969 4.597656 15.382812 4.402344 C 15.234375 4.230469 15.046875 4.148438 14.820312 4.15625 Z M 14.816406 4.160156 "/>
<path style=" stroke:none;fill-rule:nonzero;fill:rgb(97.24884%,69.40918%,68.238831%);fill-opacity:1;" d="M 13.496094 5.644531 C 13.960938 5.292969 14.472656 5.039062 15.035156 4.886719 C 15.035156 4.835938 15.019531 4.789062 14.988281 4.75 C 14.789062 4.511719 13.976562 4.957031 13.175781 5.742188 C 12.953125 5.957031 12.746094 6.191406 12.554688 6.4375 C 12.84375 6.140625 13.15625 5.878906 13.496094 5.644531 Z M 13.496094 5.644531 "/>
<path style=" stroke:none;fill-rule:nonzero;fill:rgb(87.059021%,34.509277%,32.159424%);fill-opacity:1;" d="M 16.050781 6.71875 C 16 6.539062 15.632812 6.449219 15.109375 6.457031 C 15.488281 6.132812 15.6875 5.839844 15.597656 5.675781 C 15.585938 5.652344 15.570312 5.632812 15.550781 5.617188 L 12.046875 7.503906 C 12.050781 7.53125 12.054688 7.554688 12.066406 7.578125 C 12.085938 7.609375 12.109375 7.632812 12.136719 7.648438 C 12.355469 7.878906 13.234375 7.898438 14.230469 7.6875 C 15.320312 7.453125 16.140625 7.015625 16.050781 6.71875 Z M 16.050781 6.71875 "/>
<path style=" stroke:none;fill-rule:nonzero;fill:rgb(68.629456%,79.998779%,27.839661%);fill-opacity:1;" d="M 11.730469 9.183594 C 11.730469 9.253906 11.707031 9.3125 11.65625 9.363281 C 11.609375 9.414062 11.550781 9.441406 11.480469 9.441406 C 11.410156 9.445312 11.351562 9.417969 11.300781 9.371094 C 11.25 9.324219 11.222656 9.261719 11.222656 9.195312 C 11.21875 9.125 11.242188 9.0625 11.292969 9.011719 C 11.339844 8.960938 11.398438 8.9375 11.46875 8.933594 C 11.539062 8.933594 11.601562 8.957031 11.652344 9.003906 C 11.703125 9.054688 11.726562 9.113281 11.730469 9.183594 Z M 11.730469 9.183594 "/>
<path style=" stroke:none;fill-rule:nonzero;fill:rgb(68.629456%,79.998779%,27.839661%);fill-opacity:1;" d="M 9.597656 13.0625 C 9.601562 13.132812 9.578125 13.191406 9.527344 13.242188 C 9.480469 13.292969 9.421875 13.320312 9.351562 13.320312 C 9.28125 13.324219 9.21875 13.300781 9.167969 13.25 C 9.117188 13.203125 9.09375 13.144531 9.089844 13.074219 C 9.089844 13.003906 9.113281 12.941406 9.160156 12.890625 C 9.210938 12.839844 9.269531 12.816406 9.339844 12.8125 C 9.410156 12.8125 9.46875 12.835938 9.519531 12.882812 C 9.570312 12.933594 9.597656 12.992188 9.597656 13.0625 Z M 9.597656 13.0625 "/>
<path style=" stroke:none;fill-rule:nonzero;fill:rgb(95.689392%,100%,70.199585%);fill-opacity:1;" d="M 8.855469 13.402344 C 8.855469 13.515625 8.800781 13.574219 8.691406 13.574219 C 8.578125 13.578125 8.519531 13.523438 8.519531 13.410156 C 8.515625 13.300781 8.570312 13.242188 8.683594 13.238281 C 8.796875 13.238281 8.851562 13.292969 8.855469 13.402344 Z M 8.855469 13.402344 "/>
<path style=" stroke:none;fill-rule:nonzero;fill:rgb(68.629456%,79.998779%,27.839661%);fill-opacity:1;" d="M 12.695312 9.476562 C 12.695312 9.582031 12.660156 9.671875 12.585938 9.746094 C 12.511719 9.820312 12.421875 9.855469 12.316406 9.855469 C 12.210938 9.855469 12.121094 9.820312 12.046875 9.746094 C 11.972656 9.671875 11.933594 9.582031 11.933594 9.476562 C 11.933594 9.371094 11.972656 9.28125 12.046875 9.207031 C 12.121094 9.128906 12.210938 9.09375 12.316406 9.09375 C 12.421875 9.09375 12.511719 9.128906 12.585938 9.207031 C 12.660156 9.28125 12.695312 9.371094 12.695312 9.476562 Z M 12.695312 9.476562 "/>
<path style=" stroke:none;fill-rule:nonzero;fill:rgb(68.629456%,79.998779%,27.839661%);fill-opacity:1;" d="M 12.363281 8.664062 C 12.363281 8.792969 12.304688 8.855469 12.175781 8.859375 C 12.050781 8.863281 11.984375 8.800781 11.984375 8.671875 C 11.980469 8.546875 12.042969 8.480469 12.167969 8.480469 C 12.296875 8.476562 12.359375 8.539062 12.363281 8.664062 Z M 12.363281 8.664062 "/>
<path style=" stroke:none;fill-rule:nonzero;fill:rgb(95.689392%,100%,70.199585%);fill-opacity:1;" d="M 11.566406 5.109375 C 11.570312 5.238281 11.507812 5.304688 11.382812 5.304688 C 11.253906 5.308594 11.1875 5.246094 11.1875 5.117188 C 11.183594 4.992188 11.246094 4.925781 11.375 4.925781 C 11.5 4.921875 11.566406 4.984375 11.566406 5.109375 Z M 11.566406 5.109375 "/>
<path style=" stroke:none;fill-rule:nonzero;fill:rgb(68.629456%,79.998779%,27.839661%);fill-opacity:1;" d="M 13.109375 11.882812 C 13.105469 11.8125 13.089844 11.648438 12.992188 11.648438 C 12.894531 11.648438 12.882812 11.816406 12.875 11.882812 C 12.882812 12.023438 12.859375 12.160156 12.800781 12.289062 C 12.691406 12.4375 12.511719 12.273438 12.445312 12.160156 C 12.269531 11.847656 12.289062 11.472656 12.035156 11.195312 C 11.9375 11.085938 11.867188 11.269531 11.855469 11.34375 C 11.839844 11.433594 11.828125 11.636719 11.710938 11.648438 C 11.605469 11.660156 11.589844 11.5625 11.570312 11.507812 C 11.527344 11.308594 11.5 11.109375 11.484375 10.910156 C 11.441406 10.683594 11.324219 10.078125 10.96875 10.324219 C 10.835938 10.417969 10.902344 10.875 11.035156 10.78125 C 11.214844 10.652344 11.234375 10.929688 11.257812 11.0625 C 11.292969 11.285156 11.300781 11.515625 11.351562 11.738281 C 11.390625 11.917969 11.519531 12.191406 11.75 12.15625 C 11.902344 12.128906 11.984375 11.96875 12.03125 11.800781 C 12.207031 12.171875 12.167969 12.753906 12.644531 12.863281 C 13.105469 12.972656 13.121094 12.15625 13.109375 11.882812 Z M 13.109375 11.882812 "/>
<path style=" stroke:none;fill-rule:nonzero;fill:rgb(8.628845%,9.799194%,10.5896%);fill-opacity:1;" d="M 13.09375 12.386719 C 13.09375 12.320312 13.078125 12.15625 12.980469 12.15625 C 12.878906 12.15625 12.867188 12.324219 12.863281 12.386719 C 12.871094 12.53125 12.84375 12.664062 12.789062 12.796875 C 12.679688 12.945312 12.496094 12.78125 12.433594 12.664062 C 12.257812 12.351562 12.273438 11.980469 12.023438 11.703125 C 11.921875 11.59375 11.855469 11.777344 11.839844 11.851562 C 11.824219 11.941406 11.8125 12.140625 11.695312 12.152344 C 11.59375 12.164062 11.574219 12.070312 11.554688 12.015625 C 11.515625 11.816406 11.484375 11.617188 11.46875 11.417969 C 11.429688 11.1875 11.308594 10.585938 10.957031 10.832031 C 10.824219 10.925781 10.886719 11.382812 11.019531 11.289062 C 11.203125 11.160156 11.21875 11.433594 11.242188 11.566406 C 11.277344 11.792969 11.289062 12.019531 11.335938 12.242188 C 11.375 12.421875 11.503906 12.699219 11.734375 12.660156 C 11.886719 12.636719 11.96875 12.476562 12.019531 12.304688 C 12.195312 12.679688 12.152344 13.261719 12.632812 13.371094 C 13.089844 13.476562 13.109375 12.664062 13.09375 12.386719 Z M 13.09375 12.386719 "/>
<path style=" stroke:none;fill-rule:nonzero;fill:rgb(8.239746%,9.408569%,10.198975%);fill-opacity:1;" d="M 12.710938 13.40625 C 12.679688 13.40625 12.652344 13.402344 12.625 13.398438 C 12.273438 13.316406 12.191406 12.992188 12.113281 12.683594 C 12.085938 12.578125 12.058594 12.480469 12.023438 12.378906 C 11.957031 12.5625 11.863281 12.664062 11.738281 12.6875 C 11.484375 12.730469 11.351562 12.433594 11.3125 12.25 C 11.285156 12.117188 11.265625 11.984375 11.25 11.851562 C 11.242188 11.757812 11.230469 11.664062 11.214844 11.570312 C 11.214844 11.558594 11.210938 11.542969 11.207031 11.527344 C 11.195312 11.441406 11.175781 11.308594 11.121094 11.285156 C 11.101562 11.277344 11.070312 11.285156 11.035156 11.3125 C 11.007812 11.332031 10.980469 11.335938 10.953125 11.320312 C 10.894531 11.292969 10.863281 11.191406 10.855469 11.101562 C 10.835938 10.992188 10.863281 10.894531 10.941406 10.808594 C 11.015625 10.746094 11.097656 10.730469 11.1875 10.761719 C 11.394531 10.847656 11.46875 11.273438 11.492188 11.410156 C 11.507812 11.484375 11.515625 11.5625 11.523438 11.640625 C 11.527344 11.761719 11.546875 11.882812 11.582031 12.003906 L 11.585938 12.015625 C 11.605469 12.085938 11.625 12.132812 11.691406 12.125 C 11.773438 12.117188 11.792969 11.976562 11.808594 11.886719 C 11.808594 11.871094 11.8125 11.855469 11.816406 11.84375 C 11.824219 11.792969 11.863281 11.667969 11.9375 11.644531 C 11.980469 11.636719 12.015625 11.648438 12.039062 11.683594 C 12.175781 11.851562 12.261719 12.039062 12.304688 12.25 C 12.339844 12.390625 12.386719 12.523438 12.453125 12.652344 C 12.492188 12.722656 12.589844 12.824219 12.671875 12.828125 C 12.714844 12.832031 12.746094 12.8125 12.765625 12.777344 C 12.816406 12.671875 12.839844 12.554688 12.832031 12.4375 C 12.832031 12.417969 12.832031 12.398438 12.835938 12.386719 C 12.84375 12.214844 12.894531 12.128906 12.976562 12.128906 C 13.0625 12.128906 13.113281 12.222656 13.121094 12.386719 C 13.125 12.5625 13.128906 13.144531 12.894531 13.339844 C 12.839844 13.386719 12.777344 13.40625 12.710938 13.40625 Z M 12.011719 12.230469 L 12.042969 12.292969 C 12.09375 12.414062 12.132812 12.539062 12.164062 12.667969 C 12.242188 12.980469 12.316406 13.269531 12.636719 13.34375 C 12.71875 13.371094 12.796875 13.355469 12.863281 13.300781 C 13.046875 13.023438 13.117188 12.71875 13.070312 12.386719 C 13.070312 12.335938 13.054688 12.179688 12.980469 12.179688 C 12.929688 12.179688 12.898438 12.253906 12.890625 12.386719 C 12.890625 12.402344 12.890625 12.417969 12.890625 12.4375 C 12.894531 12.566406 12.871094 12.691406 12.8125 12.808594 C 12.78125 12.859375 12.734375 12.882812 12.675781 12.878906 C 12.558594 12.851562 12.46875 12.785156 12.414062 12.675781 C 12.347656 12.542969 12.292969 12.40625 12.257812 12.261719 C 12.21875 12.058594 12.136719 11.878906 12.007812 11.71875 C 11.988281 11.699219 11.972656 11.6875 11.957031 11.695312 C 11.917969 11.703125 11.882812 11.792969 11.871094 11.851562 C 11.871094 11.863281 11.867188 11.878906 11.863281 11.894531 C 11.847656 12 11.824219 12.164062 11.703125 12.175781 C 11.582031 12.1875 11.554688 12.085938 11.539062 12.03125 L 11.535156 12.019531 C 11.503906 11.894531 11.484375 11.773438 11.476562 11.644531 C 11.46875 11.570312 11.460938 11.492188 11.449219 11.417969 C 11.386719 11.0625 11.292969 10.859375 11.175781 10.808594 C 11.101562 10.785156 11.035156 10.796875 10.976562 10.851562 C 10.917969 10.921875 10.894531 11.003906 10.914062 11.097656 C 10.921875 11.195312 10.953125 11.257812 10.980469 11.273438 C 10.984375 11.273438 10.996094 11.277344 11.007812 11.265625 C 11.050781 11.230469 11.09375 11.21875 11.148438 11.234375 C 11.230469 11.269531 11.246094 11.40625 11.265625 11.519531 C 11.265625 11.535156 11.269531 11.546875 11.269531 11.5625 C 11.285156 11.65625 11.296875 11.75 11.308594 11.84375 C 11.320312 11.976562 11.339844 12.105469 11.367188 12.238281 C 11.398438 12.390625 11.519531 12.671875 11.734375 12.632812 C 11.851562 12.613281 11.941406 12.5 11.996094 12.296875 Z M 12.011719 12.230469 "/>
<path style=" stroke:none;fill-rule:nonzero;fill:rgb(68.629456%,79.998779%,27.839661%);fill-opacity:1;" d="M 13.917969 9.550781 C 13.898438 9.292969 13.765625 9.40625 13.761719 9.613281 C 13.78125 9.773438 13.777344 9.9375 13.753906 10.097656 C 13.6875 10.25 13.613281 10.054688 13.59375 9.949219 C 13.523438 9.578125 13.582031 9.183594 13.527344 8.8125 C 13.484375 8.5 13.332031 8.710938 13.367188 8.9375 C 13.40625 9.203125 13.382812 9.492188 13.398438 9.761719 C 13.386719 10.042969 13.445312 10.3125 13.570312 10.566406 C 13.710938 10.757812 13.855469 10.613281 13.902344 10.390625 C 13.949219 10.109375 13.953125 9.832031 13.917969 9.550781 Z M 13.917969 9.550781 "/>
<path style=" stroke:none;fill-rule:nonzero;fill:rgb(8.628845%,9.799194%,10.5896%);fill-opacity:1;" d="M 14.027344 10.019531 C 14 9.757812 13.8125 9.875 13.808594 10.078125 C 13.804688 10.199219 13.863281 10.460938 13.796875 10.566406 C 13.703125 10.714844 13.597656 10.523438 13.570312 10.417969 C 13.472656 10.046875 13.558594 9.652344 13.480469 9.277344 C 13.417969 8.96875 13.207031 9.179688 13.253906 9.40625 C 13.285156 9.679688 13.300781 9.953125 13.296875 10.226562 C 13.285156 10.523438 13.363281 10.789062 13.539062 11.03125 C 13.738281 11.226562 13.9375 11.082031 14.007812 10.855469 C 14.070312 10.578125 14.078125 10.300781 14.027344 10.019531 Z M 14.027344 10.019531 "/>
<path style=" stroke:none;fill-rule:nonzero;fill:rgb(95.689392%,100%,70.199585%);fill-opacity:1;" d="M 6.890625 14.59375 C 6.421875 14.65625 5.917969 13.761719 5.742188 12.582031 C 5.789062 13.050781 5.855469 13.496094 5.933594 13.90625 C 5.972656 14.261719 6.105469 14.578125 6.332031 14.851562 C 6.421875 14.945312 6.53125 14.992188 6.660156 14.992188 C 6.804688 14.980469 6.867188 14.839844 6.894531 14.59375 Z M 6.890625 14.59375 "/>
</g>
</svg>
