<svg width="23" height="24" viewBox="0 0 23 24" fill="none" xmlns="http://www.w3.org/2000/svg">
<path d="M20.6746 4.2934L13.0238 0.363393C12.0873 -0.121131 10.9683 -0.121131 10.0238 0.363393L2.30159 4.30878C1.13492 4.98558 0.047619 5.78542 0 8.11575V9.99231H3.00794V7.42357L11.5317 3.01673L19.9921 7.42357V10H23V8.12344C22.9524 5.78542 21.8492 4.98558 20.6746 4.30109V4.2934Z" fill="#356DF3"/>
<path d="M19.9921 16.7198L13.0317 20.5453V17.4537C15.4762 16.8916 17.0873 14.932 17.0873 12.3088C17.0873 9.13132 14.8571 7 11.5317 7C8.20635 7 5.97619 9.13132 5.97619 12.3088C5.97619 14.932 7.57937 16.8838 10.0317 17.4537V20.5531L3.00794 16.7198V13.8624H0V15.7674C0.047619 18.1329 1.13492 18.9449 2.30159 19.6319L10.0317 23.637C10.9683 24.121 12.0952 24.121 13.0317 23.637L20.6746 19.6475C21.8492 18.9605 22.9524 18.1486 23 15.7674V13.8624H19.9921V16.7198ZM8.76984 12.3166C8.76984 10.5756 9.75397 9.62317 11.5317 9.62317C13.3095 9.62317 14.2937 10.5834 14.2937 12.3166C14.2937 14.0498 13.2619 15.0101 11.5317 15.0101C9.80159 15.0101 8.76984 14.003 8.76984 12.3166Z" fill="#356DF3"/>
</svg>
