<svg xmlns="http://www.w3.org/2000/svg" width="36" height="36" fill="none"><circle cx="18" cy="18" r="18" fill="#000" transform="rotate(180 18 18)"/><g filter="url(#a)"><path fill="#fff" d="M19.395 16.105 26.72 8.78 23.94 6l-5.936 5.936L12.07 6l-2.78 2.78 7.327 7.325c.383.384.886.576 1.39.576.502 0 1.005-.192 1.389-.576M30 23.931l-5.936-5.936L30 12.06l-2.78-2.78-7.325 7.326a1.965 1.965 0 0 0 0 2.78l7.326 7.326zm-12.005.133L23.93 30l2.78-2.78-7.327-7.325a1.965 1.965 0 0 0-2.779 0L9.28 27.22 12.06 30zm-1.89-4.67a1.965 1.965 0 0 0 0-2.778L8.779 9.29 6 12.069l5.936 5.936L6 23.942l2.78 2.779z"/></g><defs><filter id="a" width="29.964" height="29.964" x="3.018" y="3.018" color-interpolation-filters="sRGB" filterUnits="userSpaceOnUse"><feFlood flood-opacity="0" result="BackgroundImageFix"/><feColorMatrix in="SourceAlpha" result="hardAlpha" values="0 0 0 0 0 0 0 0 0 0 0 0 0 0 0 0 0 0 127 0"/><feOffset/><feGaussianBlur stdDeviation="1.491"/><feColorMatrix values="0 0 0 0 0 0 0 0 0 0 0 0 0 0 0 0 0 0 0.13 0"/><feBlend in2="BackgroundImageFix" result="effect1_dropShadow_7_81"/><feBlend in="SourceGraphic" in2="effect1_dropShadow_7_81" result="shape"/></filter></defs></svg>