<svg width="54" height="32" viewBox="0 0 54 32" fill="none" xmlns="http://www.w3.org/2000/svg">
<path d="M9.89247 32C15.3559 32 19.7849 27.571 19.7849 22.1075C19.7849 16.6441 15.3559 12.215 9.89247 12.215C4.42901 12.215 0 16.6441 0 22.1075C0 27.571 4.42901 32 9.89247 32Z" fill="#444444"/>
<path d="M44.3011 32C49.2895 32 53.3333 27.571 53.3333 22.1075C53.3333 16.6441 49.2895 12.215 44.3011 12.215C39.3127 12.215 35.2688 16.6441 35.2688 22.1075C35.2688 27.571 39.3127 32 44.3011 32Z" fill="#DDDDDD"/>
<mask id="mask0_7_80" style="mask-type:alpha" maskUnits="userSpaceOnUse" x="3" y="0" width="48" height="24">
<path d="M50.3188 0H3.47447V23.2935H50.3188V0Z" fill="#C4C4C4"/>
</mask>
<g mask="url(#mask0_7_80)">
<mask id="mask1_7_80" style="mask-type:alpha" maskUnits="userSpaceOnUse" x="3" y="0" width="48" height="65">
<path fill-rule="evenodd" clip-rule="evenodd" d="M26.9049 0.354294C14.0498 0.354294 3.62872 10.469 3.62872 22.9462V64.749H15.3009V24.0256C15.3009 17.8054 20.4961 12.763 26.9046 12.763C33.3132 12.763 38.5084 17.8054 38.5084 24.0256V64.749H50.1809V22.9462C50.1809 10.469 39.7599 0.354294 26.9049 0.354294Z" fill="#E9BCFF"/>
</mask>
<g mask="url(#mask1_7_80)">
<path d="M3.62952 23.6305C3.62952 10.7754 14.0506 0.354309 26.9057 0.354309C39.7607 0.354309 50.1817 10.7754 50.1817 23.6305V64.749H3.62952V23.6305Z" fill="#E9BCFF"/>
<path d="M6.26933 23.9876C6.26933 12.5736 15.5222 3.32068 26.9363 3.32068C38.3504 3.32068 47.6033 12.5736 47.6033 23.9876V68.8708H6.26933V23.9876Z" fill="#2C98F3"/>
<path d="M8.98404 23.9341C8.98404 14.1886 16.8844 6.28825 26.6299 6.28825C36.3755 6.28825 44.2758 14.1886 44.2758 23.9341V75.4801H8.98404V23.9341Z" fill="#58C971"/>
<path d="M12.2801 24.2854C12.2801 16.2083 18.8278 9.66056 26.9049 9.66056C34.982 9.66056 41.5298 16.2083 41.5298 24.2854V83.7079H12.2801V24.2854Z" fill="#FFCA42"/>
</g>
</g>
</svg>
