<svg xmlns="http://www.w3.org/2000/svg" width="54" height="32" fill="none"><path fill="#444" d="M9.892 32c5.464 0 9.893-4.429 9.893-9.892 0-5.464-4.43-9.893-9.893-9.893S0 16.645 0 22.108 4.429 32 9.892 32"/><path fill="#DDD" d="M44.301 32c4.988 0 9.032-4.429 9.032-9.892 0-5.464-4.044-9.893-9.032-9.893s-9.032 4.43-9.032 9.893S39.313 32 44.3 32"/><mask id="a" width="48" height="24" x="3" y="0" maskUnits="userSpaceOnUse" style="mask-type:alpha"><path fill="#C4C4C4" d="M50.319 0H3.474v23.294H50.32z"/></mask><g mask="url(#a)"><mask id="b" width="48" height="65" x="3" y="0" maskUnits="userSpaceOnUse" style="mask-type:alpha"><path fill="#E9BCFF" fill-rule="evenodd" d="M26.905.354C14.05.354 3.629 10.47 3.629 22.946V64.75H15.3V24.026c0-6.22 5.195-11.263 11.604-11.263s11.603 5.042 11.603 11.263v40.723h11.673V22.946C50.18 10.47 39.76.354 26.905.354" clip-rule="evenodd"/></mask><g mask="url(#b)"><path fill="#E9BCFF" d="M3.63 23.63C3.63 10.776 14.05.355 26.906.355s23.276 10.421 23.276 23.277v41.118H3.63z"/><path fill="#2C98F3" d="M6.27 23.988c0-11.414 9.252-20.667 20.666-20.667s20.667 9.253 20.667 20.667V68.87H6.27z"/><path fill="#58C971" d="M8.984 23.934c0-9.745 7.9-17.646 17.646-17.646s17.646 7.9 17.646 17.646V75.48H8.984z"/><path fill="#FFCA42" d="M12.28 24.285c0-8.077 6.548-14.624 14.625-14.624S41.53 16.208 41.53 24.285v59.423H12.28z"/></g></g></svg>