<svg width="114" height="130" viewBox="0 0 114 130" fill="none" xmlns="http://www.w3.org/2000/svg">
<path d="M113.747 97.5019V32.502L57.3622 0.00195312L0.983887 32.502V97.5019L57.3622 129.995L113.747 97.5019Z" fill="white"/>
<path d="M57.3687 100.362V82.6818L42.0289 91.5218V73.8418L26.6956 82.6818V59.4703L0.983887 44.5918V97.5018L57.3687 130.002L103.212 103.579L77.5526 88.7268L57.3687 100.362Z" fill="#0847F7"/>
<path d="M57.3687 0.00195312L11.434 26.4765L37.0936 41.3225L57.3687 29.642V47.322L72.7086 38.482V56.162L88.0418 47.322V70.6375L113.754 85.516V32.502L57.3687 0.00195312Z" fill="#0847F7"/>
<path d="M42.0289 56.1616L57.3688 47.3216V29.6416L26.6957 47.3216V82.6816L42.0289 73.8416V56.1616Z" fill="#0B101C"/>
<path d="M67.4803 82.8968V70.8263L77.9498 64.7878L88.0548 70.6378V47.3223L57.3752 65.0023V100.362L77.5592 88.7273L67.4803 82.8968Z" fill="#0B101C"/>
</svg>
