<svg xmlns="http://www.w3.org/2000/svg" xml:space="preserve" id="logo" x="0" y="0" version="1.1" viewBox="0 0 1000 1000"><style>.st1{fill:#fff}</style><linearGradient id="SVGID_1_" x1="146.8" x2="853.2" y1="853.2" y2="146.8" gradientUnits="userSpaceOnUse"><stop offset="0" style="stop-color:#29c1fc"/><stop offset=".502" style="stop-color:#ab00ff"/><stop offset=".508" style="stop-color:#ac03fc"/><stop offset=".641" style="stop-color:#c840b8"/><stop offset=".76" style="stop-color:#de7082"/><stop offset=".863" style="stop-color:#ee935b"/><stop offset=".945" style="stop-color:#f7a844"/><stop offset=".996" style="stop-color:#fbb03b"/></linearGradient><circle cx="500" cy="500" r="499.5" style="fill:url(#SVGID_1_)"/><circle cx="500" cy="500" r="467.28"/><path d="m329.27 473.68 82.28-82.48 51.66 51.66c17.91 17.91 40.41 24.79 59.16 6.04s7.5-36.66-10.41-54.78l-56.86-56.86-34.15-33.96c-13.54-13.54-32.51-21.45-51.25-2.7-16.45 16.45-10.92 34.67-1.3 46.91L266.8 448.28c-41.87 42.7-25.41 86.23 3.75 115.39l84.15 83.73c7.5 7.5 36.66 38.12 59.99 14.16 13.54-13.54 10.41-34.37 2.92-42.7l-96.65-95.81c-17.31-17.29-8.98-32.92 8.31-49.37M733.78 433.69l-83.94-83.11c-7.5-7.5-36.66-38.12-59.99-14.16-13.54 13.54-10.41 34.37-2.92 42.7l96.65 95.81c17.29 17.29 8.96 32.91-8.33 49.37l-82.48 82.48-51.66-51.66c-17.91-17.91-40.41-24.79-59.16-6.04s-7.5 36.66 10.41 54.78l56.86 56.86 34.26 34.26c13.54 13.54 32.6 21.98 51.34 3.23 16.66-16.66 10.78-35.13.92-47.37l101.77-101.77c42.72-42.69 26.26-86.22-3.73-115.38" class="st1"/></svg>