<svg width="36" height="36" viewBox="0 0 36 36" fill="none" xmlns="http://www.w3.org/2000/svg">
<circle cx="18" cy="18" r="18" fill="black"/>
<path d="M19.3048 23.2967L19.0092 23.3449H18.9873C18.9655 23.3507 18.9436 23.3507 18.9231 23.3565L18.846 23.3667C14.9719 24.0016 11.6942 24.0838 8.83286 23.6238C8.06178 23.4953 6.92893 23.2845 5.96058 22.8681C4.81553 22.3766 4.16461 21.7115 4.02774 20.8832C3.6814 18.8643 6.67383 17.245 7.66146 16.7136C10.2767 15.3 13.5005 14.2789 17.5114 13.5997C21.5223 12.9205 24.9028 12.8177 27.838 13.2939C29.751 13.6055 32.336 14.2211 32.6425 16.0331C32.949 17.8452 30.7148 19.2781 29.0088 20.2027C26.4572 21.5823 23.3401 22.5802 19.4705 23.262L19.3941 23.2729C19.3729 23.2787 19.3504 23.2787 19.3298 23.2839C19.3093 23.289 19.3099 23.2967 19.3048 23.2967ZM18.9706 23.1875H18.9809L19.2823 23.1329H19.2881C19.3093 23.1271 19.3318 23.1271 19.3523 23.1219L19.4288 23.1104C23.2758 22.437 26.3788 21.4397 28.9176 20.0684C32.7922 17.9724 32.5448 16.5388 32.4697 16.0685C32.1522 14.1639 28.8803 13.6325 27.8072 13.4635C24.8919 12.9925 21.5319 13.0915 17.5377 13.7713C13.5435 14.4511 10.341 15.4612 7.73664 16.8672C3.86196 18.9626 4.10871 20.3968 4.18517 20.8672C4.50645 22.7711 7.78354 23.2967 8.8547 23.4715C11.7006 23.9316 14.9591 23.8493 18.8196 23.2145L18.8967 23.2035C18.9186 23.1984 18.9411 23.1984 18.961 23.1933L18.9706 23.1875Z" fill="white"/>
<path d="M19.0188 22.525C18.9423 22.5365 18.8601 22.5526 18.7727 22.5635C18.6082 22.5905 18.4225 22.6182 18.2195 22.6509L18.1976 22.6567C18.1102 22.667 18.0177 22.6843 17.9187 22.6946C17.8313 22.7055 17.7382 22.7223 17.6399 22.7332H17.6212C17.4741 22.755 17.3154 22.7711 17.156 22.7936H17.1348L16.9318 22.8148C16.8771 22.8206 16.8167 22.8263 16.7628 22.8373H16.755C15.513 22.9741 14.3306 23.0564 13.2473 23.0725C11.2772 23.0994 9.69581 22.9189 8.55654 22.5366C7.46868 22.1696 6.77342 21.6106 6.50483 20.8781C6.4582 20.7531 6.42335 20.624 6.40073 20.4925C6.30435 19.9181 6.44443 19.3494 6.82226 18.8077C7.3453 18.0495 8.34064 17.3273 9.78192 16.6628C11.1313 16.037 12.8354 15.4747 14.8492 14.9825C16.124 14.6702 17.1477 14.4845 17.6456 14.4042C18.1436 14.3239 19.1878 14.1581 20.48 14.0264C21.9026 13.8825 23.9826 13.7527 25.8262 13.9339C27.4075 14.0868 28.5892 14.4428 29.3346 14.9954C29.8544 15.3809 30.1699 15.8654 30.2644 16.4392C30.2871 16.5768 30.2963 16.7163 30.292 16.8556C30.2695 17.6376 29.8049 18.3875 28.9124 19.0821C27.964 19.8191 26.5304 20.5137 24.6528 21.1383C23.6132 21.4827 22.4681 21.795 21.2472 22.0739C21.205 22.0858 21.1621 22.095 21.1187 22.1015L20.6978 22.1928C20.588 22.214 20.4839 22.2365 20.3766 22.257L20.2731 22.2795C20.2127 22.2898 20.1581 22.3014 20.0983 22.3123C20.0386 22.3232 19.9698 22.3399 19.9056 22.3508L19.8015 22.3721C19.599 22.4106 19.4127 22.4434 19.2489 22.4761C19.1788 22.498 19.0991 22.5141 19.0188 22.525ZM17.1252 22.6349H17.1528C17.3057 22.6182 17.4587 22.5963 17.6065 22.5745H17.6212C17.715 22.5635 17.8076 22.5468 17.9007 22.5366C17.9939 22.5263 18.0935 22.5089 18.1796 22.498L18.2015 22.4929C18.4039 22.4594 18.587 22.4325 18.7489 22.41C18.9244 22.383 19.0606 22.3618 19.236 22.3284C19.3999 22.3007 19.5862 22.2641 19.7886 22.2243L19.8927 22.2024C19.9531 22.1915 20.018 22.1806 20.0784 22.1645L20.2487 22.1311L20.3521 22.1092C20.4562 22.0874 20.5603 22.0655 20.6696 22.045L21.0911 21.9518C21.1348 21.9409 21.1733 21.9351 21.2196 21.9242C22.4405 21.6511 23.574 21.3337 24.6085 20.9931C26.4719 20.375 27.8856 19.6906 28.8167 18.9626C29.6687 18.2956 30.1121 17.5894 30.1346 16.8556C30.1389 16.7265 30.1297 16.5973 30.1069 16.4701C30.0196 15.9406 29.7214 15.4902 29.2363 15.129C28.5147 14.5996 27.3651 14.2481 25.8114 14.1009C23.9781 13.9255 21.9097 14.0527 20.4974 14.1941C19.2064 14.3226 18.1719 14.4826 17.6739 14.5662C17.1759 14.6497 16.153 14.8392 14.889 15.1445C12.9151 15.6257 11.1673 16.2002 9.84874 16.8151C8.43703 17.4693 7.46482 18.1697 6.95462 18.9028C6.60443 19.406 6.47334 19.9367 6.56073 20.4675C6.58119 20.5907 6.61347 20.7116 6.65712 20.8286C6.91414 21.5181 7.57149 22.0437 8.61566 22.3939C9.73758 22.7711 11.2971 22.9465 13.2505 22.9189C14.3345 22.9028 15.511 22.8263 16.7473 22.6843H16.7583C16.8152 22.6798 16.8718 22.6723 16.9279 22.6619L17.1252 22.6349Z" fill="white"/>
<path d="M12.6227 20.9218L12.6067 20.9166H12.5912L12.6067 21.0696C12.6548 21.0644 12.6992 21.0644 12.7506 21.0586C12.8789 21.049 13.0076 21.0471 13.1361 21.0529C12.9625 21.0195 12.7911 20.9757 12.6227 20.9218ZM14.4752 21.175H14.4701V21.1839H14.481M30.2541 16.4514C30.1616 15.8731 29.8441 15.3951 29.3243 15.007C28.5802 14.4543 27.3966 14.099 25.8159 13.9454C23.9724 13.7649 21.8962 13.8972 20.4723 14.0386C19.1808 14.1671 18.1411 14.3271 17.638 14.4158C17.1348 14.5045 16.1144 14.685 14.8389 14.9941C12.8258 15.487 11.1178 16.0505 9.77165 16.6744C8.33166 17.3375 7.34018 18.0598 6.81135 18.8148C6.43352 19.3565 6.29151 19.9264 6.38982 20.5003C6.40652 20.5995 6.43036 20.6974 6.46115 20.7933C6.47207 20.826 6.48235 20.8575 6.49392 20.8897C6.50163 20.9096 6.50934 20.9295 6.51769 20.9494C6.80621 21.6562 7.49182 22.1909 8.55142 22.5475C9.69004 22.933 11.2714 23.111 13.2422 23.084H13.2749L13.2961 23.057C13.5801 22.7563 13.886 22.4453 14.1919 22.1806L14.2105 22.1645L14.3801 22.0167H14.1193C12.6581 22.0309 11.4809 21.9004 10.6186 21.6196H10.6108L10.6211 21.6158C11.3774 21.3118 12.0039 21.1435 12.581 21.0779C13.084 21.2237 13.6029 21.3081 14.1263 21.3292C13.7706 21.3111 13.4165 21.2682 13.0667 21.2007L12.881 21.1595L12.8058 21.1377C12.7332 21.1184 12.6619 21.0978 12.5951 21.0734L12.579 21.0696H12.5732C12.4731 21.0389 12.3748 21.0025 12.2789 20.9603C11.7161 21.0535 11.0953 21.2431 10.3628 21.5515L10.1842 21.628L10.1726 21.6331L10.3654 21.7044C11.2239 22.0257 12.4351 22.1915 13.9554 22.1857C13.6984 22.4157 13.4516 22.6728 13.2164 22.9189C11.2817 22.9472 9.73824 22.7672 8.62531 22.3945C7.61777 22.0578 6.97134 21.5592 6.69761 20.9025C6.68669 20.8781 6.67641 20.8543 6.66741 20.8286C6.65841 20.8029 6.64749 20.7746 6.63914 20.7476C6.60917 20.656 6.58576 20.5624 6.5691 20.4675C6.48171 19.938 6.61279 19.406 6.96299 18.9022C7.46933 18.1697 8.44089 17.4693 9.85454 16.8177C11.1731 16.2047 12.9189 15.6302 14.8942 15.147C16.1581 14.8405 17.1817 14.649 17.6797 14.5687C18.1777 14.4884 19.2116 14.3226 20.5032 14.1967C21.9168 14.0521 23.9833 13.9281 25.8165 14.1035C27.3709 14.2513 28.5198 14.6015 29.2421 15.1316C29.7298 15.4927 30.0247 15.9412 30.1121 16.4727C30.1352 16.5998 30.1444 16.7291 30.1397 16.8582C30.1179 17.5914 29.6745 18.2969 28.8212 18.9645C27.8965 19.6868 26.4899 20.3711 24.6445 20.9841C24.338 20.8254 24.0096 20.6628 23.6806 20.5189C25.1091 20.0158 26.1976 19.4683 26.9198 18.8881L27.0785 18.7595H27.0458L26.871 18.7499C25.8532 18.6857 25.0924 18.739 24.4851 18.9138L24.4684 18.9195L24.4524 18.9305C24.0245 19.2212 23.5652 19.4627 23.0831 19.6501L23.006 19.6771C22.8582 19.7375 22.6994 19.7979 22.5414 19.8519L22.4424 19.8853L22.4456 19.8673C22.4514 19.8294 22.4572 19.7909 22.4617 19.753C22.4904 19.5336 22.5024 19.3123 22.4977 19.0911C22.4984 19.0561 22.4969 19.0212 22.4932 18.9864C22.4887 18.951 22.4893 18.9163 22.4861 18.8803C22.4829 18.8444 22.4803 18.809 22.4771 18.773C22.4739 18.7371 22.4694 18.7017 22.4643 18.6657C22.4578 18.6175 22.4508 18.5693 22.4424 18.5212C22.4341 18.473 22.4225 18.4254 22.4135 18.3772C22.409 18.3528 22.4039 18.329 22.3987 18.3059C22.3147 17.9332 22.1773 17.5746 21.9907 17.2412C21.9269 17.1268 21.8579 17.016 21.7838 16.909C21.7613 16.8762 21.7382 16.8447 21.7144 16.8126C21.6906 16.7804 21.6739 16.7573 21.6501 16.7303C21.6264 16.7033 21.6052 16.6725 21.582 16.6442C21.3267 16.3292 21.0259 16.0539 20.6895 15.8275C20.4237 15.6487 20.1369 15.5033 19.8355 15.3944C19.2107 15.1686 18.54 15.0991 17.8821 15.192C17.8174 15.1985 17.753 15.2086 17.6894 15.2222H17.6726C17.0208 15.3516 16.4104 15.6384 15.8947 16.0576C15.657 16.2465 15.4436 16.4641 15.2592 16.7053L15.2437 16.7271C15.1187 16.8898 15.0059 17.0617 14.9064 17.2412C14.8865 17.2771 14.8678 17.3131 14.8492 17.3491C14.8306 17.3851 14.8197 17.4063 14.8062 17.4365C14.7927 17.4667 14.7817 17.4847 14.7715 17.5104C14.717 17.6301 14.6687 17.7526 14.6269 17.8773C14.6153 17.9107 14.6044 17.9416 14.5935 17.9782C14.5825 18.0148 14.5729 18.0424 14.5633 18.0797L14.5414 18.1575C14.543 18.1623 14.543 18.1674 14.5414 18.1722C14.5414 18.1806 14.5363 18.1896 14.5344 18.1986C14.5279 18.2211 14.5228 18.2468 14.5176 18.268C14.517 18.2707 14.517 18.2736 14.5176 18.2763V18.2834C14.5125 18.3027 14.5093 18.32 14.5054 18.3387C14.5016 18.3573 14.4984 18.3721 14.4945 18.3869C14.4874 18.4222 14.481 18.4582 14.4752 18.4935C14.4618 18.5725 14.4502 18.6518 14.4405 18.7313C14.4405 18.7583 14.4348 18.7859 14.4322 18.8129C14.4296 18.8399 14.4264 18.8855 14.4238 18.9221C14.4142 19.0845 14.4142 19.2474 14.4238 19.4098C14.4277 19.4741 14.4322 19.5383 14.4393 19.6026C14.4385 19.6169 14.4401 19.6312 14.4438 19.645C14.4502 19.6926 14.4566 19.735 14.4637 19.778C14.4629 19.7872 14.4645 19.7965 14.4682 19.805C14.4675 19.8067 14.4675 19.8085 14.4682 19.8101C14.4686 19.8175 14.4696 19.8248 14.4714 19.832C14.4707 19.8336 14.4707 19.8355 14.4714 19.8371C14.472 19.846 14.4733 19.8548 14.4752 19.8635C14.4752 19.8828 14.481 19.9014 14.4849 19.9207C14.52 20.109 14.5681 20.2948 14.6288 20.4765C14.7083 20.7217 14.8119 20.9584 14.9379 21.1833H14.9411C14.9623 21.2212 14.9848 21.2591 15.0054 21.2977L15.0298 21.3362H15.0028L14.8055 21.3459H15.0799L15.2245 21.3401L15.1486 21.2212C15.1403 21.2084 15.1326 21.1955 15.1249 21.1814C14.9808 20.944 14.864 20.6912 14.7766 20.4276C14.7116 20.2349 14.6622 20.0372 14.6288 19.8365C14.6185 19.7658 14.607 19.7003 14.6012 19.6289C14.5973 19.591 14.5935 19.5525 14.5903 19.5146C14.5606 19.1819 14.5755 18.8467 14.6346 18.5179C14.7384 17.8996 14.9916 17.3159 15.3723 16.8177C15.425 16.7535 15.4802 16.6847 15.5374 16.6204C15.6774 16.4602 15.8306 16.3121 15.9956 16.1777C16.4907 15.7766 17.076 15.502 17.7009 15.3777L17.717 15.3745L17.7999 15.3604L17.8963 15.3443C18.5288 15.2552 19.1736 15.3229 19.7738 15.5416C20.3837 15.7623 20.928 16.1332 21.3566 16.6199C21.7852 17.1067 22.0841 17.6936 22.2259 18.3265C22.2362 18.3907 22.2529 18.455 22.2638 18.5295C22.2954 18.7102 22.3138 18.893 22.319 19.0763C22.3249 19.3631 22.2997 19.6496 22.2439 19.9309C22.243 19.9431 22.2408 19.9552 22.2374 19.9669L22.2105 20.1089L22.3473 20.0652L22.4032 20.046L22.5819 19.9817C22.7464 19.9271 22.8999 19.8667 23.0529 19.8069L23.1293 19.7793C23.6179 19.5862 24.084 19.3404 24.5192 19.0461C25.0667 18.8932 25.7561 18.8379 26.632 18.8765L26.6255 18.8816C25.8917 19.4323 24.8103 19.9509 23.4127 20.4238L23.1994 20.4951L23.405 20.5767L23.4223 20.5831C23.8203 20.7447 24.209 20.9281 24.5867 21.1325L24.6194 21.1493H24.6413C26.5189 20.5234 27.9524 19.8301 28.8989 19.093C29.7947 18.3978 30.2599 17.6505 30.2798 16.8672C30.2851 16.7281 30.2764 16.5888 30.2541 16.4514ZM14.4727 21.175H14.4675V21.1839H14.4785M14.4232 21.3465H14.4322L14.526 21.3497H14.6012C14.5369 21.3497 14.4727 21.3459 14.4129 21.3427H14.339M12.5925 20.9211L12.6079 21.0741C12.6561 21.0689 12.7005 21.0689 12.7525 21.0638C12.8808 21.0536 13.0095 21.0514 13.1381 21.0574C12.9643 21.0249 12.7926 20.982 12.624 20.9289L12.6073 20.9237L12.5925 20.9211ZM12.624 20.9263L12.6079 20.9211H12.5925L12.6079 21.0741C12.6561 21.0689 12.7005 21.0689 12.7525 21.0638C12.8808 21.0536 13.0095 21.0514 13.1381 21.0574C12.9641 21.0225 12.7925 20.9772 12.624 20.9218V20.9263ZM14.4772 21.1743H14.472V21.1833H14.4829M14.4772 21.1756H14.472V21.1833H14.4829M12.6304 20.9211L12.6144 20.916H12.5989L12.6144 21.0689C12.6626 21.0638 12.7069 21.0638 12.7583 21.058C12.8866 21.0484 13.0153 21.0464 13.1438 21.0522C12.9701 21.0197 12.7984 20.9768 12.6298 20.9237L12.6304 20.9211Z" fill="white"/>
<path d="M12.6227 20.9218L12.6067 20.9166H12.5912L12.6067 21.0696C12.6548 21.0644 12.6992 21.0644 12.7506 21.0586C12.8789 21.049 13.0076 21.0471 13.1361 21.0529C12.9625 21.0195 12.7911 20.9757 12.6227 20.9218ZM14.4752 21.175H14.4701V21.1839H14.481M30.2541 16.4514C30.1616 15.8731 29.8441 15.3951 29.3243 15.007C28.5802 14.4543 27.3966 14.099 25.8159 13.9454C23.9724 13.7649 21.8962 13.8972 20.4723 14.0386C19.1808 14.1671 18.1411 14.3271 17.638 14.4158C17.1348 14.5045 16.1144 14.685 14.8389 14.9941C12.8258 15.487 11.1178 16.0505 9.77165 16.6744C8.33166 17.3375 7.34018 18.0598 6.81135 18.8148C6.43352 19.3565 6.29151 19.9264 6.38982 20.5003C6.40652 20.5995 6.43036 20.6974 6.46115 20.7933C6.47207 20.826 6.48235 20.8575 6.49392 20.8897C6.50163 20.9096 6.50934 20.9295 6.51769 20.9494C6.80621 21.6562 7.49182 22.1909 8.55142 22.5475C9.69004 22.933 11.2714 23.111 13.2422 23.084H13.2749L13.2961 23.057C13.5801 22.7563 13.886 22.4453 14.1919 22.1806L14.2105 22.1645L14.3801 22.0167H14.1193C12.6581 22.0309 11.4809 21.9004 10.6186 21.6196H10.6108L10.6211 21.6158C11.3774 21.3118 12.0039 21.1435 12.581 21.0779C13.084 21.2237 13.6029 21.3081 14.1263 21.3292C13.7706 21.3111 13.4165 21.2682 13.0667 21.2007L12.881 21.1595L12.8058 21.1377C12.7332 21.1184 12.6619 21.0978 12.5951 21.0734L12.579 21.0696H12.5732C12.4731 21.0389 12.3748 21.0025 12.2789 20.9603C11.7161 21.0535 11.0953 21.2431 10.3628 21.5515L10.1842 21.628L10.1726 21.6331L10.3654 21.7044C11.2239 22.0257 12.4351 22.1915 13.9554 22.1857C13.6984 22.4157 13.4516 22.6728 13.2164 22.9189C11.2817 22.9472 9.73824 22.7672 8.62531 22.3945C7.61777 22.0578 6.97134 21.5592 6.69761 20.9025C6.68669 20.8781 6.67641 20.8543 6.66741 20.8286C6.65841 20.8029 6.64749 20.7746 6.63914 20.7476C6.60917 20.656 6.58576 20.5624 6.5691 20.4675C6.48171 19.938 6.61279 19.406 6.96299 18.9022C7.46933 18.1697 8.44089 17.4693 9.85454 16.8177C11.1731 16.2047 12.9189 15.6302 14.8942 15.147C16.1581 14.8405 17.1817 14.649 17.6797 14.5687C18.1777 14.4884 19.2116 14.3226 20.5032 14.1967C21.9168 14.0521 23.9833 13.9281 25.8165 14.1035C27.3709 14.2513 28.5198 14.6015 29.2421 15.1316C29.7298 15.4927 30.0247 15.9412 30.1121 16.4727C30.1352 16.5998 30.1444 16.7291 30.1397 16.8582C30.1179 17.5914 29.6745 18.2969 28.8212 18.9645C27.8965 19.6868 26.4899 20.3711 24.6445 20.9841C24.338 20.8254 24.0096 20.6628 23.6806 20.5189C25.1091 20.0158 26.1976 19.4683 26.9198 18.8881L27.0785 18.7595H27.0458L26.871 18.7499C25.8532 18.6857 25.0924 18.739 24.4851 18.9138L24.4684 18.9195L24.4524 18.9305C24.0245 19.2212 23.5652 19.4627 23.0831 19.6501L23.006 19.6771C22.8582 19.7375 22.6994 19.7979 22.5414 19.8519L22.4424 19.8853L22.4456 19.8673C22.4514 19.8294 22.4572 19.7909 22.4617 19.753C22.4904 19.5336 22.5024 19.3123 22.4977 19.0911C22.4984 19.0561 22.4969 19.0212 22.4932 18.9864C22.4887 18.951 22.4893 18.9163 22.4861 18.8803C22.4829 18.8444 22.4803 18.809 22.4771 18.773C22.4739 18.7371 22.4694 18.7017 22.4643 18.6657C22.4578 18.6175 22.4508 18.5693 22.4424 18.5212C22.4341 18.473 22.4225 18.4254 22.4135 18.3772C22.409 18.3528 22.4039 18.329 22.3987 18.3059C22.3147 17.9332 22.1773 17.5746 21.9907 17.2412C21.9269 17.1268 21.8579 17.016 21.7838 16.909C21.7613 16.8762 21.7382 16.8447 21.7144 16.8126C21.6906 16.7804 21.6739 16.7573 21.6501 16.7303C21.6264 16.7033 21.6052 16.6725 21.582 16.6442C21.3267 16.3292 21.0259 16.0539 20.6895 15.8275C20.4237 15.6487 20.1369 15.5033 19.8355 15.3944C19.2107 15.1686 18.54 15.0991 17.8821 15.192C17.8174 15.1985 17.753 15.2086 17.6894 15.2222H17.6726C17.0208 15.3516 16.4104 15.6384 15.8947 16.0576C15.657 16.2465 15.4436 16.4641 15.2592 16.7053L15.2437 16.7271C15.1187 16.8898 15.0059 17.0617 14.9064 17.2412C14.8865 17.2771 14.8678 17.3131 14.8492 17.3491C14.8306 17.3851 14.8197 17.4063 14.8062 17.4365C14.7927 17.4667 14.7817 17.4847 14.7715 17.5104C14.717 17.6301 14.6687 17.7526 14.6269 17.8773C14.6153 17.9107 14.6044 17.9416 14.5935 17.9782C14.5825 18.0148 14.5729 18.0424 14.5633 18.0797L14.5414 18.1575C14.543 18.1623 14.543 18.1674 14.5414 18.1722C14.5414 18.1806 14.5363 18.1896 14.5344 18.1986C14.5279 18.2211 14.5228 18.2468 14.5176 18.268C14.517 18.2707 14.517 18.2736 14.5176 18.2763V18.2834C14.5125 18.3027 14.5093 18.32 14.5054 18.3387C14.5016 18.3573 14.4984 18.3721 14.4945 18.3869C14.4874 18.4222 14.481 18.4582 14.4752 18.4935C14.4618 18.5725 14.4502 18.6518 14.4405 18.7313C14.4405 18.7583 14.4348 18.7859 14.4322 18.8129C14.4296 18.8399 14.4264 18.8855 14.4238 18.9221C14.4142 19.0845 14.4142 19.2474 14.4238 19.4098C14.4277 19.4741 14.4322 19.5383 14.4393 19.6026C14.4385 19.6169 14.4401 19.6312 14.4438 19.645C14.4502 19.6926 14.4566 19.735 14.4637 19.778C14.4629 19.7872 14.4645 19.7965 14.4682 19.805C14.4675 19.8067 14.4675 19.8085 14.4682 19.8101C14.4686 19.8175 14.4696 19.8248 14.4714 19.832C14.4707 19.8336 14.4707 19.8355 14.4714 19.8371C14.472 19.846 14.4733 19.8548 14.4752 19.8635C14.4752 19.8828 14.481 19.9014 14.4849 19.9207C14.52 20.109 14.5681 20.2948 14.6288 20.4765C14.7083 20.7217 14.8119 20.9584 14.9379 21.1833H14.9411C14.9623 21.2212 14.9848 21.2591 15.0054 21.2977L15.0298 21.3362H15.0028L14.8055 21.3459H15.0799L15.2245 21.3401L15.1486 21.2212C15.1403 21.2084 15.1326 21.1955 15.1249 21.1814C14.9808 20.944 14.864 20.6912 14.7766 20.4276C14.7116 20.2349 14.6622 20.0372 14.6288 19.8365C14.6185 19.7658 14.607 19.7003 14.6012 19.6289C14.5973 19.591 14.5935 19.5525 14.5903 19.5146C14.5606 19.1819 14.5755 18.8467 14.6346 18.5179C14.7384 17.8996 14.9916 17.3159 15.3723 16.8177C15.425 16.7535 15.4802 16.6847 15.5374 16.6204C15.6774 16.4602 15.8306 16.3121 15.9956 16.1777C16.4907 15.7766 17.076 15.502 17.7009 15.3777L17.717 15.3745L17.7999 15.3604L17.8963 15.3443C18.5288 15.2552 19.1736 15.3229 19.7738 15.5416C20.3837 15.7623 20.928 16.1332 21.3566 16.6199C21.7852 17.1067 22.0841 17.6936 22.2259 18.3265C22.2362 18.3907 22.2529 18.455 22.2638 18.5295C22.2954 18.7102 22.3138 18.893 22.319 19.0763C22.3249 19.3631 22.2997 19.6496 22.2439 19.9309C22.243 19.9431 22.2408 19.9552 22.2374 19.9669L22.2105 20.1089L22.3473 20.0652L22.4032 20.046L22.5819 19.9817C22.7464 19.9271 22.8999 19.8667 23.0529 19.8069L23.1293 19.7793C23.6179 19.5862 24.084 19.3404 24.5192 19.0461C25.0667 18.8932 25.7561 18.8379 26.632 18.8765L26.6255 18.8816C25.8917 19.4323 24.8103 19.9509 23.4127 20.4238L23.1994 20.4951L23.405 20.5767L23.4223 20.5831C23.8203 20.7447 24.209 20.9281 24.5867 21.1325L24.6194 21.1493H24.6413C26.5189 20.5234 27.9524 19.8301 28.8989 19.093C29.7947 18.3978 30.2599 17.6505 30.2798 16.8672C30.2851 16.7281 30.2764 16.5888 30.2541 16.4514ZM14.4727 21.175H14.4675V21.1839H14.4785M14.4232 21.3465H14.4322L14.526 21.3497H14.6012C14.5369 21.3497 14.4727 21.3459 14.4129 21.3427H14.339M12.5925 20.9211L12.6079 21.0741C12.6561 21.0689 12.7005 21.0689 12.7525 21.0638C12.8808 21.0536 13.0095 21.0514 13.1381 21.0574C12.9643 21.0249 12.7926 20.982 12.624 20.9289L12.6073 20.9237L12.5925 20.9211ZM12.624 20.9263L12.6079 20.9211H12.5925L12.6079 21.0741C12.6561 21.0689 12.7005 21.0689 12.7525 21.0638C12.8808 21.0536 13.0095 21.0514 13.1381 21.0574C12.9641 21.0225 12.7925 20.9772 12.624 20.9218V20.9263ZM12.6246 20.9211L12.6086 20.916H12.5932L12.6086 21.0689C12.6568 21.0638 12.7011 21.0638 12.7525 21.058C12.8808 21.0484 13.0095 21.0464 13.1381 21.0522C12.9643 21.0197 12.7926 20.9768 12.624 20.9237L12.6246 20.9211Z" fill="white"/>
<path d="M14.4245 21.1692L14.3956 21.1737H14.3898C14.2895 21.1737 14.1899 21.1659 14.0942 21.1602C13.9713 21.1525 13.8524 21.1428 13.7376 21.1313C13.5448 21.112 13.3649 21.0869 13.1978 21.0554C13.0003 21.0202 12.8054 20.9719 12.6144 20.9109L12.597 20.9051H12.581C12.4762 20.9166 12.3689 20.9327 12.2597 20.9533C11.7058 21.0496 11.0986 21.2341 10.3821 21.5316C9.64057 21.2514 9.17406 20.844 8.99222 20.3223C8.98194 20.2933 8.97294 20.2644 8.96459 20.2349C8.95623 20.2053 8.95174 20.1841 8.94595 20.159C8.94017 20.134 8.9331 20.0916 8.92668 20.0594C8.84957 19.6097 8.97037 19.1682 9.28202 18.7467L9.30386 18.7191C9.72667 18.1594 10.4933 17.6222 11.5882 17.1248C12.1802 16.8598 12.7867 16.6283 13.4047 16.4315C14.0788 16.2118 14.8184 16.0049 15.6049 15.8166C15.9544 15.733 16.2744 15.6592 16.5636 15.6C16.5777 15.5962 16.5919 15.5943 16.6066 15.591C16.353 15.7196 16.1143 15.8756 15.8947 16.0563C15.6543 16.2476 15.4384 16.468 15.2521 16.7123L15.2437 16.7271C15.1917 16.7952 15.1416 16.8646 15.0947 16.9359C14.8975 17.2275 14.7402 17.5441 14.6269 17.8773C14.6153 17.9107 14.6044 17.9415 14.5935 17.9782C14.5825 18.0148 14.5729 18.0424 14.5633 18.0797C14.5588 18.0945 14.5549 18.1093 14.5511 18.1247C14.5486 18.1358 14.5453 18.1467 14.5414 18.1575V18.1722C14.5414 18.1767 14.5363 18.1896 14.5344 18.1986C14.5279 18.2211 14.5228 18.2468 14.5176 18.268C14.517 18.2707 14.517 18.2736 14.5176 18.2763V18.2834C14.5125 18.3027 14.5093 18.32 14.5054 18.3387C14.5016 18.3573 14.4984 18.3721 14.4945 18.3868C14.4938 18.3928 14.4926 18.3986 14.4907 18.4042C14.4849 18.4325 14.4797 18.4601 14.4752 18.4877C14.4605 18.5687 14.4495 18.6497 14.4405 18.7313C14.4405 18.7583 14.4348 18.7859 14.4322 18.8129C14.4322 18.8495 14.4264 18.8855 14.4238 18.9221C14.4142 19.0845 14.4142 19.2474 14.4238 19.4098C14.4277 19.4741 14.4328 19.5383 14.4399 19.6026C14.4392 19.6153 14.4405 19.6281 14.4438 19.6405C14.4502 19.6887 14.4572 19.7337 14.4643 19.7786C14.4641 19.7836 14.4641 19.7885 14.4643 19.7934L14.474 19.8577C14.4817 19.9059 14.49 19.9541 14.5009 20.0023C14.4998 20.0069 14.4998 20.0118 14.5009 20.0164C14.5067 20.0434 14.5125 20.0704 14.5189 20.0961C14.5434 20.2008 14.571 20.2991 14.6005 20.3936C14.6083 20.4193 14.6166 20.4418 14.6243 20.4694L14.6564 20.5594C14.6674 20.5902 14.6783 20.6198 14.6905 20.65C14.7143 20.7097 14.7387 20.7695 14.7644 20.8286C14.776 20.8537 14.7869 20.8762 14.7991 20.9031C14.8113 20.9301 14.8229 20.9513 14.8351 20.9764C14.8678 21.0406 14.9038 21.1107 14.9411 21.1749C14.9623 21.2129 14.9848 21.2508 15.0054 21.2893L15.0291 21.3279H15.0021L14.8049 21.3369H15.0876L15.2296 21.3311L15.1596 21.2122C15.1512 21.1994 15.1435 21.1859 15.1352 21.1724C14.9884 20.9366 14.8686 20.685 14.7779 20.4225C14.714 20.2296 14.6657 20.0319 14.6333 19.8313C14.623 19.7607 14.6121 19.6945 14.6063 19.6238C14.6012 19.582 14.5967 19.5409 14.5935 19.4991C14.5661 19.1697 14.5823 18.838 14.6417 18.5128C14.7465 17.8955 15.0006 17.3131 15.3819 16.8164C15.423 16.7644 15.4648 16.7136 15.5104 16.6635C16.0784 15.997 16.8564 15.5438 17.7163 15.3784V15.3777L17.69 15.2248V15.2216L17.4047 15.273C16.9832 15.3501 16.3406 15.4773 15.5753 15.6585C13.9721 16.0441 12.615 16.4855 11.5316 16.9777C10.4341 17.4789 9.64699 18.0206 9.20362 18.5944L9.18113 18.622C8.82579 19.093 8.68893 19.5859 8.77632 20.089C8.7821 20.1224 8.78917 20.1533 8.79688 20.1854C8.80459 20.2175 8.81166 20.2496 8.82001 20.2779C8.82836 20.3062 8.83415 20.3261 8.84122 20.3473C9.01921 20.8896 9.46708 21.3163 10.1726 21.619L10.1848 21.6247C10.242 21.6492 10.3018 21.6729 10.3635 21.6961L10.3962 21.7063L10.4239 21.6961L10.6166 21.6157L10.6276 21.6119C11.3794 21.3099 12.002 21.1383 12.5822 21.0728H12.5899C12.6593 21.0946 12.732 21.1145 12.8065 21.137C12.7339 21.1178 12.6619 21.0972 12.5957 21.0728L12.579 21.0689H12.5739C12.4736 21.0382 12.3751 21.0017 12.2789 20.9597C12.385 20.9417 12.4884 20.9269 12.5899 20.916L12.6054 21.0689C12.6536 21.0638 12.6985 21.0638 12.7499 21.0586C12.8782 21.0484 13.007 21.0463 13.1355 21.0522C13.3603 21.0959 13.5872 21.1281 13.8153 21.1486C13.9111 21.1576 14.0081 21.1647 14.109 21.1711C14.2099 21.1775 14.3069 21.1814 14.4084 21.1846H14.4136L14.4315 21.1807H14.4682V21.1891H14.5369C14.6262 21.1891 14.7149 21.1942 14.7991 21.1942H14.9366C14.9353 21.1924 14.9342 21.1905 14.9334 21.1884H14.7888C14.7053 21.1884 14.6172 21.1846 14.5286 21.1839H14.4656M14.4303 21.3542L14.5215 21.3574H14.6012C14.5369 21.3574 14.4727 21.3536 14.4129 21.351H14.3487M14.4225 21.1807L14.4335 21.1846ZM14.9327 21.1961H14.7882C14.7046 21.1961 14.6172 21.1923 14.5311 21.1917H14.4952L14.4797 21.1878H14.4688V21.1923H14.5369C14.6262 21.1923 14.7149 21.1974 14.7997 21.1974H14.9366V21.1923L14.9327 21.1961Z" fill="white"/>
<path d="M22.2213 20.1173L22.249 19.9727C22.3095 19.6794 22.3369 19.3802 22.3306 19.0808C22.3259 18.8983 22.3076 18.7164 22.276 18.5366C22.265 18.4653 22.249 18.3997 22.238 18.3342C22.02 17.3599 21.4333 16.5078 20.6008 15.9567C20.3466 15.7875 20.0728 15.6499 19.7854 15.5467C19.1851 15.3282 18.5403 15.2607 17.9078 15.3501L17.8782 15.1933C18.2503 15.1329 19.0271 15.0127 20.0122 14.9196C21.1226 14.8097 22.754 14.7114 24.2204 14.8425H24.2313C25.4567 14.9523 26.3877 15.2094 27.0053 15.609L27.0329 15.6251C27.5199 15.9464 27.8097 16.3583 27.892 16.8569C27.9044 16.9291 27.9117 17.0021 27.9138 17.0754C27.9357 17.7045 27.5964 18.3181 26.9031 18.8868L26.8755 18.9086H26.8427C25.8692 18.8482 25.1078 18.8977 24.5172 19.0673C24.0819 19.3613 23.6158 19.6072 23.1274 19.8005L23.0509 19.8281C22.8973 19.8879 22.7444 19.9483 22.5799 20.0029C22.5034 20.0299 22.427 20.0575 22.3447 20.0852L22.2213 20.1173ZM19.0188 15.1849C19.2977 15.2242 19.5718 15.2921 19.8368 15.3874C20.1381 15.4962 20.4249 15.6416 20.6907 15.8204C21.2313 16.181 21.6777 16.6657 21.9926 17.2341C22.1784 17.5679 22.3146 17.927 22.3968 18.3001C22.4128 18.3714 22.4238 18.4447 22.4398 18.5134C22.4717 18.7017 22.4902 18.8919 22.4951 19.0828C22.5015 19.3484 22.4829 19.6141 22.4398 19.8763L22.5388 19.8436C22.6975 19.7889 22.8562 19.7285 23.004 19.6681L23.0805 19.6411C23.5624 19.4501 24.0213 19.2055 24.4485 18.9118L24.4645 18.9009L24.4812 18.8951C25.0833 18.7203 25.8306 18.6702 26.8343 18.7306C27.4692 18.2012 27.7815 17.6383 27.759 17.0728C27.7572 17.0049 27.7499 16.9372 27.7371 16.8704C27.6607 16.427 27.4036 16.055 26.9712 15.7594L26.9493 15.7433C26.3582 15.3578 25.4445 15.1008 24.2351 14.9877H24.2242C22.7688 14.8592 21.1431 14.9549 20.0328 15.0648C19.6607 15.1046 19.3208 15.1432 19.0188 15.1849Z" fill="white"/>
<path d="M14.4778 21.1794V21.1839H14.4939L14.4778 21.1794ZM14.9347 21.1846H14.7901C14.7066 21.1846 14.6185 21.1807 14.5299 21.1794L14.5382 21.1852C14.6275 21.1852 14.7162 21.1897 14.8004 21.1897H14.9379C14.9366 21.1879 14.9355 21.186 14.9347 21.1839V21.1846ZM14.4354 21.173L14.4001 21.1788C14.2992 21.1788 14.2015 21.1711 14.1058 21.1647C13.9952 21.1589 13.8892 21.1512 13.7845 21.1403C13.575 21.1216 13.3675 21.0921 13.1612 21.0529C12.9773 21.0188 12.7957 20.9731 12.6176 20.916L12.6009 20.9109H12.5957L12.5842 20.907C12.0136 20.7142 11.6261 20.4283 11.4314 20.0453C11.4125 20.0087 11.3956 19.9712 11.3806 19.9329C11.3729 19.9136 11.3652 19.8937 11.3582 19.8738C11.3342 19.8058 11.316 19.7359 11.3035 19.6649C11.2553 19.4021 11.3421 19.1354 11.5606 18.8604C11.7492 18.6346 11.9695 18.4372 12.2147 18.2744C12.5415 18.0508 12.8853 17.8529 13.2428 17.6826C13.8401 17.3961 14.4547 17.1474 15.0831 16.9379L15.0953 16.9334C15.0276 17.0336 14.9651 17.1364 14.9077 17.2418C14.8878 17.2778 14.8691 17.3138 14.8505 17.3498C14.8319 17.3857 14.8216 17.4069 14.8074 17.4365C14.7933 17.4661 14.783 17.4847 14.7728 17.511C14.7188 17.6306 14.6706 17.7533 14.6282 17.8779C14.6166 17.9114 14.6057 17.9422 14.5948 17.9788C14.5838 18.0154 14.5742 18.0431 14.5646 18.0797C14.5549 18.1163 14.5498 18.1318 14.5434 18.1581C14.544 18.1633 14.5426 18.1686 14.5395 18.1729C14.5395 18.1812 14.5344 18.1902 14.5324 18.1986C14.526 18.2217 14.5209 18.2468 14.5157 18.2686C14.5151 18.2714 14.5151 18.2742 14.5157 18.277V18.284C14.5106 18.3027 14.5074 18.3207 14.5035 18.3393C14.4997 18.3579 14.4932 18.3843 14.4894 18.4036C14.4855 18.4228 14.4778 18.4588 14.4733 18.4871C14.4592 18.5681 14.4476 18.649 14.4386 18.7306C14.4386 18.7576 14.4328 18.7846 14.4303 18.8122C14.4277 18.8399 14.4245 18.8848 14.4226 18.9208C14.4129 19.0833 14.4129 19.2461 14.4226 19.4085C14.4264 19.4728 14.4309 19.537 14.438 19.6013C14.4373 19.6141 14.4386 19.6269 14.4418 19.6392C14.4483 19.6874 14.4553 19.7324 14.4624 19.7767C14.4621 19.7819 14.4621 19.787 14.4624 19.7921L14.472 19.8564C14.4797 19.9048 14.4887 19.953 14.499 20.001C14.4978 20.0056 14.4978 20.0105 14.499 20.0151C14.5054 20.0415 14.5112 20.0685 14.517 20.0948C14.5421 20.1995 14.5691 20.2978 14.5986 20.3923C14.6063 20.4174 14.6147 20.4405 14.6224 20.4681L14.6545 20.5581C14.6654 20.5883 14.6764 20.6185 14.6886 20.6487C14.7123 20.7084 14.7368 20.7682 14.7631 20.8267C14.774 20.8524 14.7856 20.8749 14.7972 20.9019C14.8087 20.9288 14.8209 20.9501 14.8338 20.9751C14.8666 21.0394 14.9019 21.1088 14.9392 21.1737C14.9604 21.2116 14.9835 21.2488 15.0034 21.2874L15.0272 21.3266H15.0002L14.803 21.3356H15.0863L15.2283 21.3298L15.1641 21.2167C15.154 21.2012 15.1447 21.1851 15.1364 21.1685C14.9943 20.9327 14.8788 20.6819 14.792 20.4206C14.7264 20.2282 14.677 20.0307 14.6442 19.8301C14.6333 19.7587 14.6224 19.6932 14.6166 19.6219C14.5729 19.2519 14.5839 18.8776 14.6494 18.5109C14.7559 17.8932 15.0115 17.3109 15.3941 16.8145L15.522 16.6628L15.5599 16.6147L15.5445 16.6192L15.308 16.695L15.2688 16.7078H15.263C15.2606 16.7076 15.2581 16.7079 15.2558 16.7086C15.2535 16.7094 15.2513 16.7107 15.2495 16.7123C14.864 16.8408 14.5024 16.9713 14.1649 17.1036C13.8132 17.2424 13.4874 17.3847 13.1875 17.5303C12.3561 17.93 11.7649 18.3406 11.4423 18.7512C11.1956 19.0635 11.0973 19.3803 11.1532 19.6868C11.1659 19.748 11.182 19.8085 11.2014 19.868C11.2136 19.9085 11.2277 19.9489 11.2431 19.9881C11.2502 20.0042 11.2566 20.0209 11.2643 20.0363C11.4365 20.4257 11.7726 20.7309 12.2687 20.9468H12.2764L12.2892 20.9526C12.3946 20.9346 12.4987 20.9199 12.6002 20.9083L12.6157 21.0619C12.6638 21.0561 12.7082 21.0561 12.7596 21.0509C12.8879 21.0411 13.0166 21.0389 13.1451 21.0445C13.3696 21.0888 13.5964 21.121 13.8243 21.1409C13.9207 21.1505 14.0171 21.1576 14.1186 21.1634C14.2201 21.1692 14.3159 21.1737 14.4174 21.1769H14.4226L14.4412 21.173H14.4772M14.9482 21.1878C14.9469 21.186 14.9458 21.1841 14.945 21.182H14.8004C14.7168 21.182 14.6288 21.1782 14.5434 21.1775L14.5511 21.1827C14.6404 21.1827 14.7291 21.1878 14.8139 21.1878H14.9482ZM14.4887 21.1801L14.5042 21.1769H14.4887V21.1801ZM14.4405 21.3414L14.5318 21.3452H14.6057C14.5414 21.3452 14.4772 21.3414 14.4174 21.3382H14.3442M14.9295 21.1865H14.785C14.7014 21.1865 14.6134 21.1827 14.5247 21.182H14.4605V21.1865H14.5369C14.6262 21.1865 14.7149 21.1917 14.7991 21.1917H14.9366C14.9355 21.1892 14.9349 21.1866 14.9347 21.1839L14.9295 21.1865Z" fill="white"/>
<path d="M22.2213 20.1173L22.249 19.9727C22.3095 19.6794 22.3369 19.3802 22.3306 19.0808C22.3259 18.8983 22.3076 18.7164 22.276 18.5366C22.265 18.4652 22.249 18.3997 22.2381 18.3342C22.02 17.3599 21.4333 16.5078 20.6008 15.9567L20.3823 15.8089L20.6451 15.8037C21.3886 15.7915 22.132 15.8237 22.8716 15.9001C23.7911 16.0094 24.478 16.1951 24.9278 16.4694C25.278 16.677 25.4804 16.9398 25.5299 17.2463C25.5459 17.3513 25.5513 17.4576 25.546 17.5637C25.5184 18.0932 25.1791 18.5918 24.5391 19.0468L24.5224 19.0571C24.1613 19.3141 23.6915 19.5557 23.1383 19.7851L23.0618 19.8127C22.9083 19.8725 22.7553 19.9329 22.5915 19.9875C22.515 20.0151 22.4379 20.0427 22.3556 20.0697L22.2213 20.1173ZM20.8983 15.9644C21.3462 16.3053 21.7182 16.7357 21.9907 17.2283C22.177 17.5625 22.3138 17.9221 22.3968 18.2956C22.4128 18.3669 22.4238 18.4402 22.4398 18.5089C22.4717 18.6972 22.4902 18.8874 22.4951 19.0783C22.5015 19.3439 22.483 19.6096 22.4398 19.8718L22.5388 19.8391C22.6975 19.7844 22.8562 19.724 23.004 19.6636L23.0805 19.6366C23.5622 19.4471 24.0211 19.2039 24.4485 18.9118L24.4645 18.9009C25.0506 18.4794 25.3641 18.0251 25.3841 17.5515C25.3897 17.458 25.3843 17.3642 25.368 17.272C25.3249 17.015 25.1489 16.7997 24.8437 16.6114C24.417 16.3544 23.7513 16.1739 22.8517 16.0646C22.203 15.9947 21.5508 15.9612 20.8983 15.9644Z" fill="white"/>
<path d="M14.9347 21.1839H14.7901C14.7065 21.1839 14.6185 21.1801 14.5298 21.1794L14.5382 21.1846C14.6275 21.1846 14.7162 21.1891 14.8004 21.1891H14.9379C14.9364 21.1876 14.9353 21.1859 14.9347 21.1839ZM15.2264 21.3356L15.1621 21.2225C15.1518 21.2071 15.1426 21.191 15.1345 21.1743C14.9925 20.9387 14.877 20.688 14.7901 20.427C14.7245 20.2344 14.6751 20.0367 14.6423 19.8358C14.6314 19.7652 14.6204 19.6996 14.6147 19.6283L14.6012 19.4966L14.5864 19.5068L14.4932 19.5672L14.4347 19.6058H14.4315C14.2912 19.7006 14.16 19.8081 14.0396 19.9271C13.8359 20.1308 13.7369 20.3345 13.7433 20.5285V20.5562C13.7442 20.6026 13.7515 20.6487 13.7652 20.693C13.769 20.7078 13.7742 20.7226 13.7787 20.7374C13.8135 20.8364 13.8674 20.9277 13.9374 21.006C13.9857 21.061 14.0395 21.111 14.098 21.155L14.1057 21.1602C14.1081 21.1618 14.1103 21.1638 14.1122 21.166C14.2079 21.1717 14.3082 21.1762 14.411 21.1794H14.4155L14.4039 21.1737L14.3943 21.1685L14.3833 21.1634L14.3615 21.1473H14.3557L14.3082 21.119C14.1926 21.0547 14.0916 20.9672 14.0113 20.862C13.9662 20.801 13.9335 20.7318 13.9149 20.6583C13.9149 20.6448 13.9098 20.6288 13.9078 20.6101C13.9059 20.5915 13.9014 20.5677 13.8982 20.5459C13.8815 20.3923 13.9695 20.2246 14.1449 20.0421C14.2412 19.9446 14.3459 19.8558 14.4579 19.7767V19.8384C14.4588 19.8455 14.4601 19.8526 14.4617 19.8596C14.4694 19.908 14.4784 19.9562 14.4887 20.0042C14.4875 20.0088 14.4875 20.0137 14.4887 20.0183C14.4951 20.0453 14.5009 20.0723 14.5067 20.098C14.5318 20.2027 14.5588 20.3011 14.5883 20.3955C14.596 20.4212 14.6044 20.4437 14.6127 20.4713L14.6442 20.5619C14.6551 20.5921 14.6661 20.6217 14.6783 20.6519C14.702 20.7117 14.7265 20.7714 14.7528 20.8305C14.7644 20.8556 14.7753 20.8781 14.7869 20.9051C14.7984 20.9321 14.8106 20.9533 14.8235 20.9783C14.8563 21.0426 14.8916 21.1126 14.9289 21.1769C14.9501 21.2148 14.9732 21.2527 14.9931 21.2913L15.0169 21.3298H14.9899L14.7926 21.3388H15.076L15.218 21.333L15.2264 21.3356ZM14.9379 21.191C14.9364 21.1896 14.9353 21.1878 14.9347 21.1859H14.7901C14.7065 21.1859 14.6185 21.182 14.5298 21.1814L14.5382 21.1865C14.6275 21.1865 14.7162 21.191 14.8004 21.191H14.9379ZM14.9347 21.1859H14.7901C14.7065 21.1859 14.6185 21.182 14.5298 21.1814H14.4932L14.4778 21.1846H14.5369C14.6262 21.1846 14.7149 21.1891 14.7997 21.1891H14.9366C14.9362 21.1874 14.9362 21.1856 14.9366 21.1839L14.9347 21.1859Z" fill="white"/>
<path d="M22.2214 20.1173L22.249 19.9727C22.3095 19.6794 22.3369 19.3802 22.3306 19.0808C22.3259 18.8983 22.3077 18.7164 22.276 18.5366C22.2651 18.4652 22.249 18.3997 22.2381 18.3342L22.2104 18.205L22.3422 18.2378C22.5188 18.2794 22.691 18.3381 22.8562 18.4132C23.1518 18.5501 23.3266 18.7255 23.3761 18.9273C23.3818 18.9549 23.387 18.9825 23.3921 19.0153C23.4307 19.2832 23.3324 19.5448 23.0914 19.7979L23.0805 19.8082L23.0638 19.814C22.9108 19.8744 22.7579 19.9348 22.5934 19.9894C22.517 20.0164 22.4398 20.044 22.3582 20.071L22.2214 20.1173ZM22.4238 18.4267L22.4398 18.5083C22.4717 18.6965 22.4902 18.8868 22.4951 19.0776C22.5015 19.3433 22.483 19.609 22.4398 19.8712L22.5388 19.8384C22.6917 19.7838 22.8395 19.7285 22.9886 19.6688C23.1814 19.4554 23.263 19.2421 23.2353 19.0339C23.2296 19.0121 23.2296 18.9902 23.2244 18.9626C23.1859 18.8097 23.0381 18.6741 22.7907 18.5578C22.6721 18.5044 22.5494 18.4606 22.4238 18.4267Z" fill="white"/>
<path d="M25.6308 21.6498C25.3841 21.5457 25.0885 21.3928 24.7769 21.2334L24.5963 21.1409L24.6728 20.9963L24.8533 21.0895C25.1656 21.2482 25.4554 21.4018 25.6964 21.5001L25.6308 21.6498Z" fill="white"/>
<path d="M23.1589 19.7729L23.0548 19.6444C23.4593 19.3142 23.9239 19.0655 24.4228 18.9118C24.439 18.9072 24.4549 18.9016 24.4704 18.8951L24.5089 19.0538C24.498 19.059 24.4813 19.059 24.4704 19.0648C23.9921 19.2151 23.5469 19.4554 23.1589 19.7729Z" fill="white"/>
<path d="M30.4957 19.2749C30.0138 19.2472 29.4676 19.1817 28.8585 19.0995L28.8103 19.0943C28.1677 19.0179 27.5078 18.9356 26.8569 18.8919L26.8659 18.7287C27.5226 18.7673 28.1844 18.8495 28.8302 18.9317L28.8784 18.9369C29.4856 19.0134 30.0273 19.0815 30.5092 19.1065L30.4957 19.2749Z" fill="white"/>
<path d="M22.6262 19.9644L22.4977 19.868C22.7766 19.5068 23.0175 19.2254 23.2469 18.9684C23.9473 18.2082 24.6374 17.7379 25.4194 17.486L25.4361 17.4802C26.2163 17.2419 27.017 17.0769 27.8278 16.9873C28.6213 16.8916 29.431 16.8293 30.2053 16.7747L30.2875 16.7689C31.0811 16.7117 31.8239 16.6571 32.5365 16.5639L32.5583 16.7284C31.8412 16.8209 31.092 16.8762 30.2984 16.9308L30.2162 16.9359C29.4393 16.9912 28.6348 17.051 27.8387 17.1493C26.9083 17.2643 26.1314 17.4236 25.4747 17.6363L25.4586 17.6421C24.7113 17.8837 24.0469 18.3444 23.3594 19.0834C23.1402 19.3237 22.9057 19.6084 22.6262 19.9644Z" fill="white"/>
<path d="M22.4784 19.1271L22.3402 19.0403C22.488 18.8103 22.6197 18.613 22.745 18.4383C23.4043 17.5232 24.0533 16.9051 24.8083 16.4893L24.8192 16.4842C24.829 16.4796 24.8383 16.474 24.8469 16.4675C25.4213 16.1501 26.1159 15.8706 26.959 15.6007H26.9641C27.6812 15.3764 28.3977 15.1959 29.2574 14.9825L29.3056 14.9716C30.0125 14.7968 30.6788 14.6343 31.3137 14.4421L31.3618 14.5951C30.7276 14.7878 30.0542 14.9562 29.348 15.1316L29.2998 15.1425C28.4433 15.3591 27.7262 15.5371 27.0097 15.7613H27.0027C26.1712 16.0241 25.4869 16.303 24.9175 16.6153C24.9066 16.6211 24.9015 16.6262 24.8957 16.6262L24.8854 16.6314C24.1574 17.0368 23.5167 17.6383 22.8768 18.5359C22.7579 18.7056 22.6262 18.9028 22.4784 19.1271Z" fill="white"/>
<path d="M21.9907 17.3054L21.8487 17.2232C22.0906 16.7875 22.3826 16.3817 22.7187 16.0139C22.7464 15.9862 22.7733 15.9535 22.801 15.9265C23.217 15.5129 23.6798 15.1491 24.1799 14.8425L24.196 14.8322C24.6946 14.5141 25.2305 14.2301 25.7773 13.9403L25.8596 13.896C26.303 13.6608 26.7264 13.4417 27.1113 13.2174L27.1955 13.3613C26.8016 13.5907 26.3801 13.8111 25.9367 14.045L25.8551 14.0894C25.3018 14.3779 24.7659 14.6632 24.2667 14.9813L24.25 14.9915C23.7636 15.2864 23.3144 15.6387 22.9121 16.0408L22.8305 16.1225C22.5121 16.488 22.2308 16.8842 21.9907 17.3054Z" fill="white"/>
<path d="M19.885 15.4934L19.7321 15.433C19.7925 15.2852 19.8638 15.1374 19.9505 14.9517C20.0983 14.651 20.2628 14.3496 20.4164 14.0707L20.4704 13.9776C20.6079 13.7263 20.755 13.4686 20.881 13.2168L21.0268 13.2887C20.8983 13.5406 20.7524 13.8028 20.6162 14.0553L20.5616 14.1485C20.408 14.4274 20.2442 14.7229 20.0964 15.0243C20.0103 15.2036 19.9396 15.3514 19.885 15.4934Z" fill="white"/>
<path d="M15.8896 16.1719C15.7803 16.0434 15.6602 15.9258 15.5284 15.7941C15.3042 15.5698 15.069 15.361 14.8062 15.1271L14.7342 15.0629C14.5042 14.856 14.2844 14.6638 14.0775 14.4614L14.1938 14.3496C14.3962 14.5469 14.6147 14.7435 14.8447 14.9459L14.9161 15.0063C15.1789 15.2415 15.4141 15.4561 15.6441 15.6797C15.7726 15.8082 15.8953 15.9367 16.0104 16.0653L15.8896 16.1719Z" fill="white"/>
<path d="M24.5192 19.0506C24.084 19.3449 23.6179 19.5907 23.1293 19.7838L23.0529 19.8114C22.8999 19.8712 22.7464 19.9316 22.5819 19.9862L22.4032 20.0505L22.3473 20.0697L22.2105 20.1134L22.2375 19.9714C22.2402 19.9595 22.2424 19.9475 22.2439 19.9354C22.0755 19.9913 21.893 20.0472 21.6958 20.1083C21.3456 20.2117 20.9677 20.3101 20.552 20.409C20.1363 20.508 19.7038 20.6018 19.2553 20.6821C19.0527 20.7207 18.8721 20.7528 18.7136 20.7785C18.5607 20.8003 18.3743 20.8337 18.1662 20.8659C17.6958 20.943 17.2743 21.0027 16.8752 21.0464C16.4479 21.0946 16.0431 21.1345 15.6601 21.1563C15.4854 21.166 15.3061 21.1711 15.1345 21.1756H15.1152C15.123 21.1897 15.1313 21.2026 15.1397 21.2154L15.2148 21.3343H15.2258C15.3279 21.3343 15.4295 21.3272 15.5297 21.3227L15.682 21.3144C16.0675 21.2925 16.4756 21.254 16.9029 21.2051C17.3025 21.1615 17.7234 21.1011 18.1996 21.0239C18.2876 21.013 18.3718 21.0002 18.4521 20.9873L18.5902 20.9642L18.6384 20.9552L18.7457 20.9372C18.9045 20.9096 19.0902 20.8768 19.2926 20.8382C19.7309 20.7585 20.1672 20.6674 20.6008 20.5652C20.7859 20.5223 20.9635 20.4778 21.1335 20.4315H21.1432C21.3559 20.375 21.5589 20.3171 21.7555 20.2599C21.9682 20.2002 22.1661 20.1346 22.3518 20.0742C22.3679 20.0684 22.3846 20.0633 22.4 20.0569C22.4643 20.0357 22.5253 20.0138 22.5864 19.9926C22.7509 19.938 22.9038 19.8776 23.0567 19.8172L23.1338 19.7902C23.6223 19.5969 24.0883 19.3511 24.5237 19.057C25.068 18.9041 25.7536 18.8495 26.6243 18.8868L26.6307 18.8823C25.7587 18.8424 25.0667 18.8977 24.5192 19.0506ZM14.4354 21.1711L14.4001 21.1769C14.2992 21.1769 14.2015 21.1692 14.1058 21.1627C13.9953 21.157 13.8892 21.1492 13.7845 21.1383C13.575 21.1197 13.3675 21.0901 13.1612 21.0509C12.9773 21.0169 12.7957 20.9712 12.6176 20.9141L12.6009 20.9089H12.5842C12.482 20.9205 12.3786 20.934 12.2719 20.9526C11.7096 21.0464 11.0902 21.2347 10.3577 21.5431L10.1784 21.6196L10.1662 21.6254L10.1784 21.6305L10.3551 21.6948C11.2586 22.0315 12.5398 22.1979 14.1636 22.1761H14.1944C14.6674 22.1696 15.1769 22.1484 15.7019 22.1118L15.7951 22.1067C15.8272 22.1015 15.8658 22.1015 15.9043 22.0957L15.948 22.09C16.1671 22.0739 16.3811 22.0572 16.5906 22.0353C16.7191 22.0251 16.8373 22.0084 16.9517 21.9974L17.1869 21.9698C17.291 21.9589 17.3951 21.9422 17.494 21.9312L17.521 21.9261C17.8492 21.8876 18.1666 21.8436 18.4733 21.7944C18.6372 21.7732 18.7747 21.7507 18.889 21.7301C19.0034 21.7096 19.1461 21.6858 19.2829 21.653C19.6042 21.5933 19.9255 21.5245 20.241 21.4557C20.3502 21.4345 20.4595 21.4121 20.5745 21.3851L20.7987 21.3304C20.9028 21.3028 21.0069 21.2823 21.1162 21.254C21.3134 21.2096 21.5159 21.155 21.7234 21.1004L21.8519 21.0676C21.9001 21.0567 21.9451 21.0407 21.9939 21.0291L22.0113 21.0233C22.5067 20.8832 22.986 20.738 23.4346 20.5876L23.4551 20.5806H23.4609C24.9954 20.0601 26.1507 19.4882 26.9018 18.8707L27.0496 18.7493L27.0599 18.7396L26.8517 18.7287C25.8345 18.6644 25.0737 18.7178 24.4659 18.8932L24.4498 18.8983L24.4337 18.9093C24.0063 19.201 23.5471 19.4433 23.0651 19.6315L22.9886 19.6591C22.8408 19.7189 22.6828 19.7793 22.524 19.8339L22.4501 19.8603L22.2966 19.9142L22.2535 19.9297C22.0852 19.9856 21.9027 20.0415 21.7054 20.1025C21.3552 20.206 20.9774 20.3043 20.5616 20.4032C20.1459 20.5022 19.7135 20.596 19.2649 20.6763C19.0623 20.7149 18.8818 20.747 18.7233 20.7727C18.5703 20.7945 18.384 20.828 18.1758 20.8601C17.7054 20.9372 17.2839 20.997 16.8849 21.0407C16.4576 21.0888 16.0528 21.1287 15.6698 21.1505C15.495 21.1602 15.3157 21.1653 15.1442 21.1698H15.0799C15.0356 21.1698 14.9919 21.1737 14.9514 21.1749H14.8042C14.7207 21.1749 14.6333 21.1711 14.5472 21.1698H14.483V21.1814H14.5369C14.6256 21.1814 14.7143 21.1865 14.7991 21.1865H14.936L14.9328 21.1807H14.936C14.9572 21.2193 14.9803 21.2566 15.0002 21.2951L15.024 21.3343H15.2238C15.326 21.3311 15.4275 21.3266 15.5278 21.3221L15.6801 21.3137C16.0656 21.2919 16.473 21.254 16.9009 21.2045C17.3 21.1608 17.7234 21.103 18.1996 21.0259C18.2876 21.0149 18.3718 21.0021 18.4515 20.9892L18.5896 20.9661L18.6378 20.9571L18.7451 20.9391C18.9045 20.9115 19.0902 20.8787 19.2926 20.8402C19.731 20.7606 20.1672 20.6696 20.6008 20.5671C20.7859 20.5242 20.9635 20.4797 21.1335 20.4334H21.1425C21.3559 20.3775 21.5589 20.3197 21.7549 20.2625C21.9682 20.2021 22.1655 20.134 22.3518 20.0762C22.3679 20.0704 22.384 20.0652 22.3994 20.0588C22.4636 20.0376 22.5279 20.0164 22.5864 19.9946C22.7509 19.9399 22.9038 19.8795 23.0567 19.8191L23.1338 19.7921C23.6224 19.5989 24.0884 19.3531 24.5237 19.059C25.068 18.906 25.7536 18.8514 26.6243 18.8887H26.6358C25.9027 19.4413 24.8244 19.956 23.423 20.4309H23.4178L23.2013 20.5035C22.8113 20.632 22.4026 20.7534 21.9804 20.8691L21.9637 20.8742C21.9155 20.8858 21.8712 20.9019 21.8191 20.9128L21.6662 20.9513C21.4696 21.006 21.2723 21.0548 21.0879 21.0991C20.9787 21.1261 20.8752 21.1473 20.7711 21.1756L20.5469 21.2302C20.4318 21.2521 20.322 21.2784 20.2127 21.3015C19.8953 21.3658 19.5779 21.4333 19.2604 21.4943C19.1069 21.5213 18.9719 21.5425 18.8498 21.565C18.7278 21.5875 18.5986 21.6087 18.4399 21.6292C18.1353 21.6749 17.814 21.7237 17.4927 21.7623L17.4658 21.7674C17.3694 21.7841 17.2633 21.795 17.1593 21.8059L16.9241 21.8329C16.8091 21.8496 16.6889 21.8606 16.5681 21.8715C16.3605 21.8882 16.1472 21.91 15.9332 21.9261L15.8953 21.9319C15.8568 21.937 15.824 21.937 15.7861 21.9428L15.6923 21.948C15.2181 21.982 14.7599 22.0032 14.3268 22.0122L14.1604 22.0154H14.1225C12.6639 22.0296 11.488 21.8991 10.6269 21.6196H10.6147C11.3697 21.3157 11.9904 21.1454 12.579 21.0798H12.5733C12.4732 21.0489 12.375 21.0124 12.279 20.9706C12.385 20.9526 12.4884 20.9378 12.59 20.9263L12.6054 21.0798C12.6536 21.0741 12.6979 21.0741 12.75 21.0689C12.8782 21.059 13.007 21.0569 13.1355 21.0625C13.36 21.1068 13.5867 21.139 13.8147 21.1589C13.9111 21.1679 14.0075 21.1756 14.109 21.1814C14.2105 21.1872 14.3063 21.1917 14.4078 21.1949H14.4084L14.4271 21.191H14.4637" fill="white"/>
<path d="M14.5003 18.5636C14.1349 18.2462 13.7346 17.9716 13.307 17.7449L13.1785 17.6807C12.6554 17.437 12.1064 17.2533 11.5419 17.1332C10.9835 17.0047 10.3981 16.9141 9.8012 16.8216L9.70546 16.8049C9.20361 16.7271 8.7339 16.6558 8.2796 16.5684L8.31302 16.4097C8.76667 16.4971 9.23767 16.5684 9.72666 16.6449L9.82305 16.6616C10.4251 16.7547 11.0105 16.8415 11.5747 16.9732C12.1508 17.096 12.7112 17.2833 13.2454 17.5316L13.3771 17.5959C13.8176 17.8275 14.2291 18.1105 14.6031 18.4389L14.5003 18.5636Z" fill="white"/>
<path d="M14.6532 20.5099C14.4341 20.3403 14.2323 20.1886 14.0351 20.0505C13.1432 19.4259 12.3522 19.0545 11.5342 18.89L11.4796 18.8791C10.8537 18.7589 10.1302 18.7152 9.24667 18.7505H9.24153C8.44796 18.7775 7.62162 18.8598 6.89359 18.9311H6.87688C6.12251 19.005 5.41247 19.0763 4.7487 19.1046L4.74292 18.9407C5.39962 18.9138 6.11159 18.8444 6.86339 18.766H6.87945C7.60555 18.6934 8.43254 18.6111 9.2306 18.5841H9.23639C10.1283 18.5507 10.8736 18.5944 11.5072 18.721L11.5625 18.7313C12.3978 18.9015 13.2152 19.2787 14.1231 19.9187C14.3204 20.0633 14.5279 20.2079 14.749 20.3839L14.6532 20.5099Z" fill="white"/>
<path d="M14.8505 21.1897H14.8023C14.7175 21.1897 14.6288 21.1859 14.5395 21.1852L14.5318 21.1795C14.3435 21.0606 14.1719 20.9591 14.0094 20.8684C13.9367 20.828 13.8648 20.7888 13.796 20.7521L13.7767 20.7425C12.9318 20.2927 12.1845 20.073 11.4282 20.0447H11.2534C10.6108 20.0447 9.86865 20.1385 8.99091 20.3236L8.90866 20.3403L8.8444 20.355C8.10417 20.5131 7.35879 20.72 6.68988 20.9064L6.59992 20.9308L6.5196 20.952C5.74209 21.1711 5.00892 21.3735 4.32459 21.5155L4.28796 21.3536C4.96137 21.2116 5.69261 21.0111 6.46048 20.7933L6.47141 20.7901L6.55301 20.7682L6.62883 20.747C7.29967 20.5613 8.0534 20.3544 8.79493 20.188L8.86754 20.1713L8.94272 20.1558C9.81211 19.9695 10.5491 19.8757 11.1917 19.8712H11.353C12.1311 19.8879 12.8951 20.098 13.7382 20.5317L13.8667 20.596L13.9033 20.6159C14.1809 20.7644 14.4849 20.9481 14.8434 21.1814L14.8505 21.1897Z" fill="white"/>
<path d="M14.4514 21.1775H14.4302L14.4122 21.1814H14.4084C14.3069 21.1782 14.2073 21.1737 14.109 21.1679C14.0106 21.1621 13.9104 21.1544 13.8153 21.1454L13.7825 21.1377C13.7681 21.1339 13.7535 21.1306 13.7388 21.128C13.5612 21.0883 13.3807 21.063 13.1991 21.0522H13.1374C13.0089 21.0466 12.8801 21.0488 12.7519 21.0586C12.7037 21.0638 12.6593 21.0638 12.6073 21.0696L12.5919 20.916V20.9038C12.6409 20.8978 12.6902 20.8944 12.7396 20.8935C13.1419 20.8658 13.546 20.9051 13.9355 21.0098C14.0571 21.0419 14.1807 21.0794 14.3062 21.1223L14.3538 21.1396H14.3653L14.3814 21.1505L14.4264 21.1679L14.4373 21.1717C14.442 21.1737 14.447 21.175 14.4521 21.1756L14.4514 21.1775Z" fill="white"/>
<path d="M7.11848 23.2369L7.05743 23.0885C7.52844 22.8912 8.02128 22.6503 8.54112 22.3933L8.57967 22.3765C9.15798 22.0925 9.75557 21.7982 10.3577 21.5451L10.4181 21.6929C9.82176 21.9447 9.22481 22.2345 8.65036 22.5192L8.61245 22.541C8.08683 22.7987 7.59719 23.0397 7.11848 23.2369Z" fill="white"/>
<path d="M19.0188 22.525C18.9423 22.5365 18.8601 22.5526 18.7727 22.5635C18.6082 22.5905 18.4225 22.6182 18.2195 22.6509L18.1713 22.6567L17.9194 22.6895C17.832 22.7004 17.7395 22.7171 17.6411 22.7274H17.6212C17.4741 22.7499 17.3154 22.7659 17.156 22.7916H17.1399L16.9375 22.8128C15.712 22.9588 14.48 23.0428 13.246 23.0647L13.0532 23.0699L13.1817 22.9259C13.4745 22.6094 13.7831 22.3078 14.1064 22.0225L14.1282 22.0006H14.1552C14.6969 21.9949 15.2829 21.9679 15.8902 21.9184L15.9345 21.9133C16.153 21.8972 16.3676 21.8747 16.5693 21.8586C16.6979 21.8471 16.8212 21.831 16.9414 21.8201L17.1605 21.7931C17.2646 21.7815 17.3623 21.7706 17.4554 21.7545L17.4889 21.7494C17.8172 21.7108 18.1314 21.6614 18.4354 21.6177C18.5943 21.5958 18.7312 21.5744 18.846 21.5534C18.9661 21.5316 19.103 21.5097 19.2559 21.4821C19.5733 21.4223 19.8908 21.3536 20.2082 21.2893C20.3174 21.2668 20.4273 21.2411 20.5417 21.218L20.7884 21.1576C20.8868 21.1358 20.9851 21.1139 21.084 21.0863C21.2697 21.0426 21.4612 20.9937 21.6578 20.9385L21.8114 20.9006C22.3698 20.7476 22.9038 20.5883 23.4037 20.4193L23.4371 20.4135L23.4583 20.4193C23.8671 20.5868 24.2673 20.7747 24.6573 20.9822L24.8321 21.0702L24.6483 21.1345C23.466 21.5208 22.265 21.8476 21.05 22.1137L20.7223 22.1851C20.6015 22.2127 20.4864 22.2333 20.3772 22.2564L20.2731 22.2782L20.0983 22.311C20.0379 22.3219 19.9698 22.338 19.912 22.3496L19.8085 22.3708C19.6055 22.4093 19.423 22.4421 19.2553 22.4749C19.1784 22.4995 19.0991 22.5163 19.0188 22.525ZM17.1252 22.6349H17.147C17.3006 22.6182 17.4535 22.5963 17.6013 22.5745H17.6212C17.7138 22.5635 17.8076 22.5468 17.8943 22.5365C17.9811 22.5263 18.0697 22.5141 18.1462 22.5031L18.1899 22.498C18.393 22.4654 18.5754 22.438 18.7374 22.4157C18.8186 22.3984 18.9008 22.3855 18.9835 22.3772C19.0606 22.3663 19.1422 22.3502 19.2244 22.3335C19.3883 22.3065 19.574 22.2692 19.777 22.2294L19.8805 22.2082C19.9409 22.1973 20.0013 22.1857 20.0668 22.1696L20.2365 22.1369L20.3406 22.1144C20.4498 22.0932 20.5648 22.0662 20.685 22.0437L21.0063 21.9724C22.2271 21.6986 23.3709 21.3941 24.4048 21.058C24.0874 20.8935 23.7539 20.7367 23.4255 20.6037C22.9333 20.7682 22.4019 20.9321 21.8493 21.0798L21.7208 21.1126C21.5126 21.1679 21.3108 21.2225 21.1136 21.2662C21.0153 21.288 20.9163 21.3137 20.818 21.3369L20.5661 21.3973C20.4511 21.4249 20.3419 21.4455 20.2326 21.4686C19.9152 21.5399 19.5901 21.6055 19.2746 21.6652C19.1216 21.6929 18.986 21.7205 18.8646 21.7366C18.7432 21.7526 18.6127 21.7802 18.4489 21.8008C18.1417 21.8505 17.8243 21.8944 17.4966 21.9325L17.4638 21.9383C17.3648 21.9486 17.2665 21.9595 17.1624 21.9762L16.944 22.0039C16.8232 22.0148 16.6972 22.0308 16.5661 22.0424C16.3586 22.0636 16.1446 22.0803 15.9236 22.0964L15.8799 22.1022C15.2771 22.1459 14.7033 22.1729 14.1668 22.1844C13.9098 22.4087 13.6527 22.6657 13.4118 22.9176C14.4894 22.8957 15.6608 22.8077 16.8919 22.6657L17.122 22.6329L17.1252 22.6349Z" fill="white"/>
<path d="M12.4916 23.8769L12.3824 23.7561C12.5797 23.5814 12.809 23.3353 13.05 23.0782L13.1869 22.9304L13.307 23.0455L13.1708 23.1894C12.9241 23.4503 12.6947 23.6957 12.4916 23.8769Z" fill="white"/>
<path d="M22.4033 19.9058L23.4794 20.4332L23.4073 20.5803L22.3312 20.0529L22.4033 19.9058Z" fill="white"/>
<path d="M15.0086 21.3388L15.0028 21.3446C14.9488 21.3966 14.5819 21.7545 14.3287 22.0077L14.321 22.0161L14.233 22.1041L14.1135 22.0212L14.1244 22.0109L14.1353 21.9994C14.1353 21.9994 14.6731 21.4211 14.8023 21.3484L15.0002 21.3388H15.0086Z" fill="white"/>
<path d="M15.0748 21.3375H15.0002L14.8023 21.3465H14.6012C14.5369 21.3465 14.4727 21.3427 14.4136 21.3401H14.2015C14.1925 21.3407 14.1835 21.3407 14.1745 21.3401H14.1308C13.7751 21.3217 13.421 21.2788 13.0712 21.2116C13.007 21.1987 12.9466 21.1846 12.8855 21.1705L12.8104 21.1383C12.7377 21.119 12.6664 21.0985 12.5996 21.0741L12.5835 21.0702H12.5777C12.4776 21.0396 12.3793 21.0031 12.2834 20.961C12.3895 20.943 12.4929 20.9282 12.5945 20.9173L12.6099 21.0702C12.6581 21.0651 12.7024 21.0651 12.7544 21.0599C12.8827 21.0497 13.0115 21.0476 13.14 21.0535C13.3646 21.0972 13.5913 21.1293 13.8192 21.1499C13.9156 21.1589 14.012 21.166 14.1135 21.1724C14.215 21.1788 14.3107 21.1827 14.4123 21.1859H14.4174L14.436 21.182H14.4727V21.1884H14.544C14.6327 21.1884 14.7213 21.1936 14.8062 21.1936H14.943L14.9398 21.1878H14.943C14.9642 21.2264 14.9874 21.2636 15.0073 21.3022L15.0311 21.3414L15.0748 21.3375Z" fill="white"/>
<path d="M22.4591 19.7472C22.4533 19.7857 22.4476 19.8249 22.4405 19.8635C22.4321 19.9117 22.4219 19.9624 22.4109 20.0119L22.4032 20.0466V20.0575L22.3595 20.0723C22.1455 20.1436 21.9361 20.2066 21.76 20.2599C21.5672 20.3165 21.3648 20.3724 21.1464 20.4283H21.1367C20.9697 20.472 20.7929 20.515 20.6072 20.5568C20.1375 20.6699 19.7019 20.756 19.3016 20.8312C19.1326 20.8633 18.9578 20.8954 18.7528 20.9301L18.6423 20.9501L18.5941 20.9584L18.4559 20.9815C18.3775 20.9937 18.2921 21.006 18.2034 21.0182C17.7408 21.0933 17.3147 21.1525 16.9041 21.1987C16.4826 21.2469 16.0688 21.2829 15.6794 21.3086L15.5355 21.317C15.4352 21.3221 15.3337 21.326 15.2315 21.3292H15.0291L15.0047 21.29C14.9822 21.2514 14.9597 21.2141 14.9405 21.1762C14.9025 21.112 14.8672 21.0439 14.8344 20.9777C14.8216 20.9533 14.81 20.9295 14.7984 20.9044C14.7869 20.8794 14.7753 20.8562 14.7637 20.8292C14.7361 20.7695 14.7117 20.7104 14.6892 20.6513C14.6776 20.6211 14.6661 20.5909 14.6552 20.5607C14.6442 20.5305 14.6333 20.4964 14.6224 20.4643L14.5992 20.3962C14.5703 20.2998 14.5427 20.2034 14.5183 20.0987C14.5119 20.0729 14.5061 20.046 14.4997 20.019C14.5009 20.0143 14.5009 20.0095 14.4997 20.0048C14.4939 19.9772 14.4881 19.9502 14.4823 19.9213C14.4765 19.8924 14.4733 19.8757 14.4695 19.8519L14.4579 19.7799L14.436 19.6354C14.436 19.6251 14.436 19.6148 14.4328 19.6045C14.391 19.2284 14.4033 18.8482 14.4695 18.4755C14.5654 17.9227 14.7764 17.3962 15.0889 16.9302C15.1371 16.855 15.1911 16.7824 15.2457 16.7104C15.4356 16.4657 15.651 16.2419 15.8882 16.0428C16.3339 15.6794 16.8514 15.4142 17.4066 15.2646C17.4921 15.2415 17.5782 15.2216 17.6636 15.2049L17.8628 15.1708C18.557 15.0694 19.2656 15.151 19.9185 15.4077C20.5714 15.6643 21.1459 16.087 21.5852 16.6339C21.6084 16.6622 21.6328 16.6911 21.6533 16.72C21.6739 16.749 21.6951 16.7753 21.7176 16.8023C21.7401 16.8293 21.7658 16.8665 21.787 16.8987C21.8551 16.9989 21.9194 17.1019 21.9798 17.2077C22.1647 17.5412 22.3018 17.899 22.3872 18.2705C22.3974 18.304 22.4077 18.3348 22.4154 18.3695C22.427 18.4138 22.4366 18.4582 22.4437 18.5032V18.5115C22.4514 18.5597 22.4591 18.6079 22.4649 18.6561C22.4707 18.6914 22.4745 18.7274 22.4784 18.7634C22.4823 18.7994 22.4842 18.8347 22.4874 18.8707C22.4906 18.9067 22.4919 18.9401 22.4938 18.9767C22.4957 19.0134 22.497 19.041 22.4983 19.0725V19.0808C22.5054 19.3037 22.4923 19.5267 22.4591 19.7472Z" fill="white"/>
</svg>
