<svg xmlns="http://www.w3.org/2000/svg" width="36" height="36" fill="none"><circle cx="18" cy="18" r="18" fill="#000"/><path fill="#fff" d="m19.305 23.297-.296.048h-.022c-.021.006-.043.006-.064.012l-.077.01c-3.874.635-7.152.717-10.013.257-.771-.129-1.904-.34-2.872-.756-1.145-.491-1.796-1.156-1.933-1.985-.347-2.019 2.646-3.638 3.633-4.17 2.616-1.413 5.84-2.434 9.85-3.113 4.011-.68 7.392-.782 10.327-.306 1.913.311 4.498.927 4.804 2.74.307 1.811-1.927 3.244-3.633 4.169-2.552 1.38-5.669 2.377-9.538 3.059l-.077.01c-.021.007-.044.007-.064.012s-.02.013-.025.013m-.334-.11h.01l.301-.054h.006c.021-.006.044-.006.064-.011l.077-.012c3.847-.673 6.95-1.67 9.489-3.042 3.874-2.096 3.627-3.53 3.552-4-.318-1.904-3.59-2.436-4.663-2.605-2.915-.47-6.275-.371-10.27.308-3.993.68-7.196 1.69-9.8 3.096-3.875 2.096-3.628 3.53-3.552 4 .321 1.904 3.599 2.43 4.67 2.604 2.846.46 6.104.378 9.965-.256l.077-.012c.022-.005.044-.005.064-.01z"/><path fill="#fff" d="M19.019 22.525c-.077.012-.159.028-.246.039q-.248.038-.553.087l-.022.006c-.088.01-.18.027-.28.038-.087.01-.18.027-.278.038h-.019c-.147.022-.306.038-.465.06h-.021l-.203.022c-.055.006-.115.011-.17.022h-.007a38 38 0 0 1-3.508.236c-1.97.026-3.551-.154-4.69-.536-1.088-.367-1.784-.926-2.052-1.659a2 2 0 0 1-.104-.386c-.097-.574.043-1.143.421-1.684.523-.759 1.519-1.48 2.96-2.145 1.35-.626 3.053-1.188 5.067-1.68a37 37 0 0 1 2.797-.579 48 48 0 0 1 2.834-.378c1.423-.143 3.503-.273 5.346-.092 1.581.153 2.763.509 3.509 1.061.52.386.835.87.93 1.444q.033.207.027.417c-.023.782-.487 1.531-1.38 2.226-.948.737-2.382 1.432-4.26 2.056a37 37 0 0 1-3.533.963l-.421.092-.321.064-.104.022c-.06.01-.115.022-.175.033s-.128.028-.192.039l-.104.021c-.203.039-.39.071-.553.104-.07.022-.15.038-.23.049m-1.894.11h.028q.23-.027.454-.06h.014c.094-.011.187-.028.28-.038s.192-.028.279-.039l.021-.005q.305-.05.548-.083c.175-.027.312-.048.487-.082q.247-.042.553-.104l.104-.022c.06-.01.125-.021.185-.038l.17-.033.104-.022q.154-.033.318-.064l.421-.093c.044-.011.082-.017.129-.028 1.22-.273 2.354-.59 3.389-.93 1.863-.619 3.277-1.303 4.208-2.031.852-.667 1.295-1.374 1.318-2.107a2 2 0 0 0-.028-.386c-.087-.53-.386-.98-.87-1.341-.722-.53-1.872-.88-3.426-1.028-1.833-.176-3.901-.048-5.314.093a44 44 0 0 0-2.823.372c-.498.084-1.521.273-2.785.579-1.974.48-3.722 1.055-5.04 1.67-1.412.654-2.384 1.355-2.894 2.088-.35.503-.482 1.034-.394 1.565q.03.185.096.36c.257.69.914 1.216 1.959 1.566 1.122.377 2.681.553 4.635.525a36 36 0 0 0 3.496-.235h.011a2 2 0 0 0 .17-.022z"/><path fill="#fff" d="m12.623 20.922-.016-.005h-.016l.016.153c.048-.006.092-.006.144-.011a3 3 0 0 1 .385-.006 4 4 0 0 1-.513-.131m1.852.253h-.005v.009h.011m15.773-4.733c-.092-.578-.41-1.056-.93-1.444-.744-.553-1.927-.908-3.508-1.062-1.844-.18-3.92-.048-5.344.094a40 40 0 0 0-2.834.377c-.503.088-1.524.269-2.8.578-2.012.493-3.72 1.056-5.066 1.68-1.44.663-2.432 1.386-2.96 2.14-.378.543-.52 1.112-.422 1.686q.025.15.071.293.016.05.033.097l.024.06c.288.706.974 1.24 2.033 1.598 1.139.385 2.72.563 4.691.536h.033l.021-.027c.284-.3.59-.612.896-.876l.018-.017.17-.147h-.26c-1.462.014-2.64-.117-3.501-.397h-.008l.01-.004c.756-.304 1.383-.473 1.96-.538a7 7 0 0 0 .486.123l-.186-.041-.075-.022a3 3 0 0 1-.21-.065l-.017-.003h-.006q-.15-.046-.294-.11c-.563.093-1.184.283-1.916.591l-.179.077-.011.005.192.071c.859.322 2.07.488 3.59.482-.257.23-.503.487-.739.733-1.934.028-3.478-.152-4.59-.524-1.008-.337-1.655-.836-1.928-1.492l-.03-.074-.029-.081a2 2 0 0 1-.07-.28c-.087-.53.044-1.062.394-1.566.506-.732 1.478-1.433 2.892-2.084 1.318-.613 3.064-1.188 5.04-1.671a39 39 0 0 1 2.785-.578c.498-.08 1.532-.246 2.823-.372 1.414-.145 3.48-.269 5.314-.093 1.554.147 2.703.498 3.425 1.028.488.36.783.81.87 1.34q.034.192.028.386c-.022.733-.466 1.439-1.319 2.107-.925.722-2.331 1.406-4.177 2.02a17 17 0 0 0-.963-.466c1.428-.503 2.517-1.05 3.239-1.63l.158-.13h-.032l-.175-.01c-1.018-.063-1.779-.01-2.386.165l-.017.005-.016.011a7 7 0 0 1-1.369.72l-.077.027c-.148.06-.307.12-.465.175l-.099.033.004-.018.016-.114a4.4 4.4 0 0 0 .031-.767q-.004-.052-.007-.106l-.009-.107-.013-.107-.022-.145q-.014-.072-.029-.144l-.014-.071a4 4 0 0 0-.685-1.493c-.023-.033-.04-.056-.064-.083q-.035-.042-.068-.086a4 4 0 0 0-.893-.816 4 4 0 0 0-.854-.434 4.07 4.07 0 0 0-2.146-.172h-.016a4.08 4.08 0 0 0-2.414 1.483l-.015.022a4 4 0 0 0-.438.71c-.013.03-.024.048-.034.073a4 4 0 0 0-.145.367q-.018.049-.034.101c-.01.037-.02.064-.03.102l-.022.078a.02.02 0 0 1 0 .014c0 .009-.005.018-.007.027l-.016.069v.015q-.008.029-.013.056l-.01.048-.02.107a5 5 0 0 0-.034.237c0 .027-.006.055-.009.082l-.008.11a4 4 0 0 0 .051.94c0 .02.006.038.01.058q.052.282.144.556.12.368.309.706h.003q.033.057.064.115l.025.038h-.027l-.197.01h.274l.145-.006-.076-.119-.024-.04a3.802 3.802 0 0 1-.496-1.345c-.01-.07-.022-.136-.028-.207l-.01-.114a3.8 3.8 0 0 1 .044-.997 3.85 3.85 0 0 1 .737-1.7q.08-.099.165-.198.21-.24.459-.442a3.9 3.9 0 0 1 1.705-.8l.016-.004.083-.014.096-.016a3.9 3.9 0 0 1 3.46 1.276 3.86 3.86 0 0 1 .87 1.706c.01.065.027.129.038.203q.047.272.055.547a4 4 0 0 1-.082.89l-.026.143.136-.044.056-.019.179-.064q.244-.084.47-.175l.077-.028a7.2 7.2 0 0 0 1.39-.733c.548-.153 1.237-.208 2.113-.17l-.007.006c-.733.55-1.815 1.069-3.212 1.542l-.214.071.206.082.017.006q.597.243 1.165.55l.032.016h.022c1.878-.626 3.311-1.319 4.258-2.056.896-.695 1.36-1.442 1.38-2.226a2 2 0 0 0-.025-.416m-15.781 4.724h-.006v.009h.011m-.055.162h.01l.093.004h.075q-.097-.001-.188-.007h-.074m-1.747-.422.016.153c.048-.005.092-.005.144-.01q.193-.015.386-.007a4 4 0 0 1-.514-.128l-.017-.005zm.032.005-.016-.005h-.016l.016.153c.048-.005.092-.005.144-.01q.193-.015.386-.007a4 4 0 0 1-.514-.135zm1.853.248h-.005v.01h.01m-.005-.008h-.005v.007h.01m-1.852-.262-.016-.005H12.6l.015.153c.049-.005.093-.005.144-.011a3 3 0 0 1 .386-.006 4 4 0 0 1-.514-.128z"/><path fill="#fff" d="m12.623 20.922-.016-.005h-.016l.016.153c.048-.006.092-.006.144-.011a3 3 0 0 1 .385-.006 4 4 0 0 1-.513-.131m1.852.253h-.005v.009h.011m15.773-4.733c-.092-.578-.41-1.056-.93-1.444-.744-.553-1.927-.908-3.508-1.062-1.844-.18-3.92-.048-5.344.094a40 40 0 0 0-2.834.377c-.503.088-1.524.269-2.8.578-2.012.493-3.72 1.056-5.066 1.68-1.44.663-2.432 1.386-2.96 2.14-.378.543-.52 1.112-.422 1.686q.025.15.071.293.016.05.033.097l.024.06c.288.706.974 1.24 2.033 1.598 1.139.385 2.72.563 4.691.536h.033l.021-.027c.284-.3.59-.612.896-.876l.018-.017.17-.147h-.26c-1.462.014-2.64-.117-3.501-.397h-.008l.01-.004c.756-.304 1.383-.473 1.96-.538a7 7 0 0 0 .486.123l-.186-.041-.075-.022a3 3 0 0 1-.21-.065l-.017-.003h-.006q-.15-.046-.294-.11c-.563.093-1.184.283-1.916.591l-.179.077-.011.005.192.071c.859.322 2.07.488 3.59.482-.257.23-.503.487-.739.733-1.934.028-3.478-.152-4.59-.524-1.008-.337-1.655-.836-1.928-1.492l-.03-.074-.029-.081a2 2 0 0 1-.07-.28c-.087-.53.044-1.062.394-1.566.506-.732 1.478-1.433 2.892-2.084 1.318-.613 3.064-1.188 5.04-1.671a39 39 0 0 1 2.785-.578c.498-.08 1.532-.246 2.823-.372 1.414-.145 3.48-.269 5.314-.093 1.554.147 2.703.498 3.425 1.028.488.36.783.81.87 1.34q.034.192.028.386c-.022.733-.466 1.439-1.319 2.107-.925.722-2.331 1.406-4.177 2.02a17 17 0 0 0-.963-.466c1.428-.503 2.517-1.05 3.239-1.63l.158-.13h-.032l-.175-.01c-1.018-.063-1.779-.01-2.386.165l-.017.005-.016.011a7 7 0 0 1-1.369.72l-.077.027c-.148.06-.307.12-.465.175l-.099.033.004-.018.016-.114a4.4 4.4 0 0 0 .031-.767q-.004-.052-.007-.106l-.009-.107-.013-.107-.022-.145q-.014-.072-.029-.144l-.014-.071a4 4 0 0 0-.685-1.493c-.023-.033-.04-.056-.064-.083q-.035-.042-.068-.086a4 4 0 0 0-.893-.816 4 4 0 0 0-.854-.434 4.07 4.07 0 0 0-2.146-.172h-.016a4.08 4.08 0 0 0-2.414 1.483l-.015.022a4 4 0 0 0-.438.71c-.013.03-.024.048-.034.073a4 4 0 0 0-.145.367q-.018.049-.034.101c-.01.037-.02.064-.03.102l-.022.078a.02.02 0 0 1 0 .014c0 .009-.005.018-.007.027l-.016.069v.015q-.008.029-.013.056l-.01.048-.02.107a5 5 0 0 0-.034.237c0 .027-.006.055-.009.082l-.008.11a4 4 0 0 0 .051.94c0 .02.006.038.01.058q.052.282.144.556.12.368.309.706h.003q.033.057.064.115l.025.038h-.027l-.197.01h.274l.145-.006-.076-.119-.024-.04a3.802 3.802 0 0 1-.496-1.345c-.01-.07-.022-.136-.028-.207l-.01-.114a3.8 3.8 0 0 1 .044-.997 3.85 3.85 0 0 1 .737-1.7q.08-.099.165-.198.21-.24.459-.442a3.9 3.9 0 0 1 1.705-.8l.016-.004.083-.014.096-.016a3.9 3.9 0 0 1 3.46 1.276 3.86 3.86 0 0 1 .87 1.706c.01.065.027.129.038.203q.047.272.055.547a4 4 0 0 1-.082.89l-.026.143.136-.044.056-.019.179-.064q.244-.084.47-.175l.077-.028a7.2 7.2 0 0 0 1.39-.733c.548-.153 1.237-.208 2.113-.17l-.007.006c-.733.55-1.815 1.069-3.212 1.542l-.214.071.206.082.017.006q.597.243 1.165.55l.032.016h.022c1.878-.626 3.311-1.319 4.258-2.056.896-.695 1.36-1.442 1.38-2.226a2 2 0 0 0-.025-.416m-15.781 4.724h-.006v.009h.011m-.055.162h.01l.093.004h.075q-.097-.001-.188-.007h-.074m-1.747-.422.016.153c.048-.005.092-.005.144-.01q.193-.015.386-.007a4 4 0 0 1-.514-.128l-.017-.005zm.032.005-.016-.005h-.016l.016.153c.048-.005.092-.005.144-.01q.193-.015.386-.007a4 4 0 0 1-.514-.135zm0-.005-.015-.005h-.016l.016.153c.048-.005.092-.005.143-.011q.193-.015.386-.006a4 4 0 0 1-.514-.128z"/><path fill="#fff" d="m14.425 21.17-.03.004h-.005c-.1 0-.2-.008-.296-.014a10 10 0 0 1-.356-.029 6 6 0 0 1-.54-.076 5 5 0 0 1-.584-.144l-.017-.006h-.016a4 4 0 0 0-.321.048c-.554.097-1.161.281-1.878.579-.741-.28-1.208-.688-1.39-1.21l-.027-.087c-.009-.03-.013-.05-.02-.076l-.018-.1q-.114-.677.355-1.312l.022-.028c.423-.56 1.19-1.097 2.284-1.594a17 17 0 0 1 1.817-.694c.674-.22 1.413-.426 2.2-.614q.525-.127.959-.217.02-.005.043-.009a4 4 0 0 0-.712.465c-.24.192-.457.412-.643.656l-.008.015a3.951 3.951 0 0 0-.617 1.15q-.018.049-.033.101c-.011.037-.021.064-.03.102l-.023.078v.014c0 .005-.005.018-.007.027l-.016.069v.015q-.008.029-.013.056l-.014.065-.016.084a4 4 0 0 0-.034.243c0 .027-.006.055-.009.082 0 .037-.006.073-.008.11a4 4 0 0 0 .04.87l.01.065q.011.072.027.144v.014q.008.04.018.08.036.157.082.298.011.036.023.075l.032.09.034.091.074.179.035.074c.012.027.024.048.036.073.033.065.069.135.106.199q.033.057.064.114l.024.039h-.027l-.197.009h.283l.142-.006-.07-.119-.025-.04a3.7 3.7 0 0 1-.357-.75 4 4 0 0 1-.145-.59c-.01-.071-.02-.137-.027-.208l-.012-.125a3.8 3.8 0 0 1 .048-.986c.104-.618.359-1.2.74-1.697a3 3 0 0 1 .128-.152 3.86 3.86 0 0 1 2.206-1.286l-.026-.153v-.003l-.285.051c-.422.077-1.064.204-1.83.386-1.603.385-2.96.826-4.043 1.319-1.098.5-1.885 1.043-2.328 1.616l-.023.028c-.355.471-.492.964-.405 1.467l.02.096.024.093.021.07c.178.542.626.968 1.332 1.271l.012.006q.086.036.178.071l.033.01.028-.01.193-.08.01-.004c.752-.302 1.375-.474 1.955-.54h.008q.105.033.216.065a2 2 0 0 1-.21-.064l-.017-.004h-.005q-.15-.045-.295-.11.16-.026.31-.043l.016.153c.049-.005.093-.005.145-.01q.192-.015.386-.007.336.066.68.097a10 10 0 0 0 .592.036h.006l.018-.004h.036v.008h.069c.09 0 .178.005.262.005h.138l-.004-.006h-.144q-.127-.001-.26-.004h-.063m-.036.17.091.003h.08q-.097 0-.188-.006h-.064m.073-.17.011.004Zm.51.015h-.144q-.125-.002-.257-.004h-.036l-.015-.004h-.011v.004h.068c.09 0 .178.005.263.005h.137v-.005zM22.221 20.117l.028-.144q.09-.442.082-.892a4 4 0 0 0-.055-.544c-.011-.072-.027-.137-.038-.203a3.86 3.86 0 0 0-2.453-2.787 3.9 3.9 0 0 0-1.877-.197l-.03-.157c.372-.06 1.15-.18 2.134-.273 1.11-.11 2.742-.209 4.208-.078h.011c1.226.11 2.157.367 2.774.767l.028.016c.487.321.777.733.859 1.232q.018.108.022.218c.022.63-.318 1.243-1.01 1.812l-.029.022h-.032c-.974-.06-1.735-.011-2.326.158q-.654.442-1.39.733l-.076.028c-.154.06-.307.12-.471.175q-.114.041-.235.082zm-3.202-4.932q.42.06.818.202.453.165.854.433c.54.361.987.846 1.302 1.414.185.334.322.693.404 1.066.016.071.027.145.043.213q.048.284.055.57a4.3 4.3 0 0 1-.055.793l.099-.032c.159-.055.317-.116.465-.176l.076-.027q.725-.286 1.369-.73l.015-.01.017-.006c.602-.175 1.35-.225 2.353-.164.635-.53.948-1.093.925-1.658a1.3 1.3 0 0 0-.022-.203q-.115-.666-.766-1.11l-.022-.017c-.59-.385-1.505-.642-2.714-.755h-.01c-1.456-.129-3.082-.033-4.192.077q-.56.059-1.014.12"/><path fill="#fff" d="M14.478 21.18v.004h.016zm.457.005h-.145q-.126-.002-.26-.006l.008.006c.09 0 .178.005.262.005h.138l-.003-.006m-.5-.012-.035.006c-.1 0-.199-.008-.294-.014a6 6 0 0 1-.322-.025 6 6 0 0 1-.623-.087 4 4 0 0 1-.543-.137l-.017-.005h-.005l-.012-.004c-.57-.193-.958-.479-1.153-.862a1 1 0 0 1-.073-.171 1.3 1.3 0 0 1-.055-.21q-.07-.392.258-.804c.188-.225.409-.423.654-.586q.49-.335 1.028-.591a16 16 0 0 1 1.84-.745l.012-.005a4 4 0 0 0-.288.503c-.014.03-.024.049-.034.075q-.08.18-.145.367l-.033.1-.03.102-.022.078q.002.008-.003.015c0 .008-.006.017-.008.026l-.016.07v.015l-.012.055-.015.065-.016.083a4 4 0 0 0-.034.244c0 .027-.006.054-.009.081l-.007.109a4 4 0 0 0 .04.871l.009.064q.012.073.027.145v.014l.018.08q.037.157.082.297.012.036.023.076l.033.09q.015.045.034.09.035.09.074.179.017.036.034.075c.012.027.024.048.037.073.033.064.068.134.105.199q.033.056.064.113l.024.04H15l-.197.009h.283l.142-.006-.064-.113-.028-.048a3.7 3.7 0 0 1-.344-.748 3.7 3.7 0 0 1-.148-.59c-.01-.072-.022-.138-.027-.21a3.8 3.8 0 0 1 .032-1.11 3.85 3.85 0 0 1 .745-1.697l.128-.151.038-.048-.016.004-.236.076-.04.013h-.012l-.007.004q-.578.194-1.084.392-.528.207-.977.426c-.832.4-1.423.81-1.746 1.221-.246.313-.345.63-.289.936a1.7 1.7 0 0 0 .09.301l.021.048q.26.586 1.005.91h.007l.013.007q.16-.027.311-.045l.016.154c.048-.006.092-.006.144-.011a3 3 0 0 1 .385-.006q.337.066.68.096.143.015.294.022c.101.006.197.01.298.014h.006l.018-.004h.036m.471.015-.003-.006H14.8q-.126-.002-.257-.005l.008.006c.09 0 .178.005.263.005zm-.46-.008.016-.003h-.015zm-.047.161.09.004h.075q-.098-.001-.189-.007h-.073m.586-.152h-.145q-.127-.001-.26-.004h-.065v.005h.077c.09 0 .178.005.262.005h.138l-.002-.008zM22.221 20.117l.028-.144q.09-.442.082-.892a4 4 0 0 0-.055-.544c-.011-.072-.027-.137-.038-.203a3.86 3.86 0 0 0-1.637-2.377l-.219-.148.263-.005q1.116-.019 2.227.096c.92.11 1.606.295 2.056.57.35.207.552.47.602.776q.024.158.016.318c-.028.53-.367 1.028-1.007 1.483l-.017.01c-.36.257-.83.499-1.384.728l-.076.028c-.154.06-.307.12-.47.175l-.236.082zm-1.323-4.153a4.06 4.06 0 0 1 1.499 2.332c.016.07.027.144.043.213q.048.282.055.57.01.398-.055.793l.099-.033c.159-.055.317-.115.465-.175l.076-.027q.725-.286 1.369-.725l.015-.011c.587-.422.9-.876.92-1.35q.008-.14-.016-.279c-.043-.257-.22-.472-.524-.66q-.642-.385-1.992-.547-.974-.105-1.954-.1"/><path fill="#fff" d="M14.935 21.184h-.145q-.126-.002-.26-.005l.008.006c.09 0 .178.004.262.004h.138zm.291.152-.064-.113-.028-.049a3.7 3.7 0 0 1-.344-.747 3.7 3.7 0 0 1-.148-.591c-.01-.07-.022-.136-.027-.208l-.014-.131-.015.01-.093.06-.058.039h-.004q-.21.142-.391.321-.306.308-.297.602v.027q.001.07.022.137l.014.044q.052.15.158.269.074.083.161.149l.008.005.006.006q.144.009.299.013h.005l-.012-.005-.01-.005-.01-.006-.023-.016h-.005l-.048-.028a1 1 0 0 1-.297-.257.6.6 0 0 1-.096-.204q-.002-.02-.007-.048l-.01-.064c-.016-.154.072-.321.247-.504q.144-.146.313-.265v.061q0 .012.004.022.01.072.027.144v.014l.018.08q.037.157.081.297l.025.076.031.09.034.09q.035.09.075.18l.034.074c.011.027.024.048.036.073.033.065.069.135.106.199q.033.057.064.114l.024.039h-.027l-.197.009h.283l.142-.006zm-.288-.145-.003-.005h-.145q-.126-.002-.26-.005l.008.005c.09 0 .178.005.262.005zm-.003-.005h-.145q-.126-.002-.26-.005h-.037l-.015.004h.059c.09 0 .178.004.263.004h.137v-.005zM22.221 20.117l.028-.144q.09-.442.082-.892a4 4 0 0 0-.055-.544c-.01-.072-.027-.137-.038-.203l-.028-.129.132.033q.266.062.514.175c.296.137.47.313.52.514l.016.088q.06.403-.3.783l-.011.01-.017.006c-.153.06-.306.12-.47.175q-.114.041-.236.082zm.203-1.69.016.081q.048.284.055.57.01.399-.055.793l.099-.033c.153-.054.3-.11.45-.17q.288-.32.246-.634c-.005-.022-.005-.044-.01-.071q-.062-.23-.434-.405a2.5 2.5 0 0 0-.367-.131M25.63 21.65c-.246-.104-.541-.257-.853-.417l-.18-.092.076-.145.18.094c.313.158.602.312.843.41z"/><path fill="#fff" d="m23.159 19.773-.104-.129a4.05 4.05 0 0 1 1.415-.749l.039.159c-.011.005-.028.005-.039.01-.478.151-.923.391-1.311.709M30.496 19.275a22 22 0 0 1-1.637-.175l-.049-.006c-.642-.076-1.302-.158-1.953-.202l.009-.163c.657.038 1.318.12 1.964.203l.048.005c.608.076 1.15.144 1.631.17z"/><path fill="#fff" d="m22.626 19.964-.128-.096c.279-.361.52-.643.749-.9.7-.76 1.39-1.23 2.172-1.482l.017-.006c.78-.238 1.581-.403 2.392-.493a48 48 0 0 1 2.377-.212l.083-.006a39 39 0 0 0 2.248-.205l.022.164c-.717.093-1.466.148-2.26.203l-.082.005c-.777.055-1.581.115-2.377.213-.93.115-1.708.275-2.364.487l-.016.006c-.748.242-1.412.702-2.1 1.441-.219.24-.453.525-.733.881"/><path fill="#fff" d="m22.478 19.127-.138-.087c.148-.23.28-.427.405-.602.66-.915 1.308-1.533 2.063-1.949l.011-.005q.015-.006.028-.017c.574-.317 1.269-.596 2.112-.866h.005a39 39 0 0 1 2.293-.619l.049-.01c.706-.175 1.373-.338 2.008-.53l.048.153c-.634.193-1.308.361-2.014.537l-.048.01c-.857.217-1.574.395-2.29.62h-.007c-.832.262-1.516.541-2.085.853q-.015.01-.022.011l-.01.005c-.729.406-1.37 1.007-2.01 1.905q-.177.255-.398.591M21.99 17.305l-.141-.082c.242-.435.534-.841.87-1.21.027-.027.054-.06.082-.087a7.6 7.6 0 0 1 1.379-1.084l.016-.01c.499-.318 1.034-.602 1.581-.892l.083-.044c.443-.235.866-.454 1.251-.679l.084.144c-.393.23-.815.45-1.258.684l-.082.044c-.553.289-1.09.574-1.588.892l-.017.01a7 7 0 0 0-1.338 1.05l-.081.081q-.48.55-.84 1.183M19.885 15.493l-.153-.06c.06-.148.132-.296.219-.481.147-.301.312-.602.465-.881l.054-.093c.138-.252.285-.51.411-.761l.146.072c-.129.252-.275.514-.41.766l-.055.094c-.154.278-.318.574-.466.875a7 7 0 0 0-.211.47M15.89 16.172c-.11-.129-.23-.246-.362-.378-.224-.224-.459-.433-.722-.667l-.072-.064c-.23-.207-.45-.4-.656-.602l.116-.111q.304.293.65.596l.072.06c.263.236.498.45.728.674q.193.192.366.385zM24.52 19.05q-.656.443-1.39.734l-.077.027c-.153.06-.307.12-.471.175l-.179.064-.056.02-.137.043.027-.142.007-.036q-.252.083-.548.173c-.35.104-.728.202-1.144.301s-.848.193-1.297.273q-.303.058-.541.097c-.153.021-.34.055-.548.087-.47.077-.892.137-1.29.18q-.642.075-1.216.11c-.175.01-.354.015-.526.02h-.019l.025.04.075.118h.01c.103 0 .205-.007.305-.011l.152-.009q.58-.034 1.22-.109c.4-.043.821-.104 1.298-.181q.132-.017.252-.037l.138-.023.048-.009.108-.018c.159-.027.344-.06.547-.099a26 26 0 0 0 1.84-.407h.01q.319-.085.613-.171c.212-.06.41-.125.596-.186q.025-.008.048-.017l.186-.064c.165-.055.318-.115.47-.176l.078-.027c.488-.193.954-.439 1.39-.733.544-.153 1.23-.207 2.1-.17l.007-.005c-.872-.04-1.564.016-2.112.169m-10.085 2.121-.035.006c-.1 0-.199-.008-.294-.014a6 6 0 0 1-.322-.025 6 6 0 0 1-.623-.087 4 4 0 0 1-.543-.137l-.017-.005h-.017a5 5 0 0 0-.312.044c-.562.093-1.182.282-1.914.59l-.18.077-.012.005.012.006.177.064c.904.337 2.185.503 3.809.481h.03c.473-.006.983-.028 1.508-.064l.093-.005c.032-.005.07-.005.11-.011l.043-.006q.329-.023.643-.055c.128-.01.246-.027.36-.038l.236-.027c.104-.011.208-.028.307-.039l.027-.005q.492-.057.952-.132.246-.031.416-.064c.114-.02.257-.044.394-.077q.483-.092.958-.197c.11-.021.218-.044.334-.07l.224-.056c.104-.027.208-.048.317-.076.197-.044.4-.099.607-.154l.129-.032c.048-.011.093-.027.142-.039l.017-.006c.496-.14.975-.285 1.424-.435l.02-.007h.006c1.534-.52 2.69-1.093 3.44-1.71l.149-.122.01-.01-.208-.01c-1.018-.065-1.778-.011-2.386.164l-.016.005-.016.011a7 7 0 0 1-1.369.723l-.076.027c-.148.06-.306.12-.465.175l-.074.026-.153.054-.044.016q-.252.082-.548.172c-.35.104-.728.202-1.143.301q-.625.152-1.297.273-.304.058-.542.097c-.153.021-.339.055-.547.087-.47.077-.892.137-1.291.18a22 22 0 0 1-1.215.11c-.175.01-.354.015-.526.02h-.064q-.067.002-.129.005h-.147q-.126-.002-.257-.005h-.064v.011h.054c.089 0 .177.005.262.005h.137l-.003-.005h.003q.033.057.064.114l.024.04h.2l.304-.013.152-.008q.58-.034 1.22-.11c.4-.043.823-.101 1.3-.178q.132-.017.252-.037l.138-.023.048-.009.107-.018q.242-.04.548-.099a26 26 0 0 0 1.84-.407h.01q.319-.084.612-.17c.213-.06.41-.129.597-.187q.024-.008.047-.017.099-.032.187-.064a9 9 0 0 0 .47-.176l.078-.027a7.2 7.2 0 0 0 1.39-.733c.544-.153 1.23-.208 2.1-.17h.012c-.733.552-1.812 1.067-3.213 1.542h-.005l-.217.072q-.586.193-1.22.366l-.017.005c-.048.012-.093.028-.145.039l-.153.038c-.196.055-.394.104-.578.148-.11.027-.213.048-.317.077l-.224.054q-.172.034-.334.072c-.318.064-.635.131-.953.192l-.41.071a8 8 0 0 1-.41.064c-.305.046-.626.095-.947.133l-.027.005c-.097.017-.203.028-.307.039l-.235.027a7 7 0 0 1-.356.039c-.208.016-.42.038-.635.054l-.038.006c-.038.005-.071.005-.109.01l-.094.006c-.474.034-.932.055-1.365.064l-.167.003h-.037c-1.46.015-2.635-.116-3.496-.395h-.012c.755-.304 1.375-.475 1.964-.54h-.006q-.15-.047-.294-.11.16-.026.311-.044l.015.154c.049-.006.093-.006.145-.011a3 3 0 0 1 .386-.006q.336.066.679.096a8 8 0 0 0 .593.036l.02-.004h.036M14.5 18.564a6.4 6.4 0 0 0-1.193-.82l-.129-.063a7.6 7.6 0 0 0-1.636-.548c-.559-.128-1.144-.219-1.74-.311l-.097-.017c-.501-.078-.971-.15-1.425-.237l.033-.158c.454.087.925.158 1.414.235l.096.017c.602.093 1.188.18 1.752.311.576.123 1.136.31 1.67.559l.132.064c.44.232.852.514 1.226.843zM14.653 20.51c-.219-.17-.42-.321-.618-.46-.892-.624-1.683-.995-2.5-1.16l-.055-.01c-.626-.121-1.35-.165-2.233-.13h-.005c-.794.027-1.62.11-2.348.181h-.017c-.754.074-1.465.145-2.128.174l-.006-.164a35 35 0 0 0 2.12-.175h.016a36 36 0 0 1 2.352-.182h.005c.892-.033 1.638.01 2.271.137l.056.01c.835.17 1.652.548 2.56 1.188.197.144.405.289.626.465z"/><path fill="#fff" d="M14.85 21.19h-.048q-.128-.002-.262-.005l-.008-.005a11 11 0 0 0-.736-.428l-.02-.01c-.844-.45-1.591-.669-2.348-.697h-.175c-.642 0-1.384.093-2.262.279l-.082.016-.065.015c-.74.158-1.485.365-2.154.551l-.09.025-.08.021a33 33 0 0 1-2.195.563l-.037-.161a34 34 0 0 0 2.172-.56l.011-.004.082-.022.076-.021c.67-.186 1.424-.393 2.166-.559l.073-.017.075-.015c.87-.186 1.606-.28 2.249-.285h.161c.778.017 1.542.227 2.385.66l.129.065.036.02c.278.148.582.332.94.565z"/><path fill="#fff" d="M14.451 21.178h-.02l-.019.003h-.004a11 11 0 0 1-.593-.036l-.032-.007-.044-.01a3.4 3.4 0 0 0-.54-.076h-.062a3 3 0 0 0-.385.007c-.048.005-.093.005-.145.01l-.015-.153v-.012a1 1 0 0 1 .148-.01c.402-.028.806.011 1.195.116q.183.049.371.112l.048.018h.011l.016.01.045.018.011.004.015.004zM7.118 23.237l-.06-.148c.47-.198.963-.439 1.483-.696l.039-.017c.578-.284 1.176-.578 1.778-.83l.06.147a33 33 0 0 0-1.768.826l-.038.022c-.525.258-1.015.499-1.494.696M19.019 22.525c-.077.012-.159.028-.246.039q-.248.038-.553.087l-.049.006-.252.032c-.087.011-.18.028-.278.038h-.02c-.147.023-.306.039-.465.065h-.016l-.203.02a37 37 0 0 1-3.691.253l-.193.005.129-.144q.44-.476.924-.903l.022-.022h.027a25 25 0 0 0 1.735-.083l.044-.005c.219-.016.434-.038.635-.054.129-.012.252-.028.372-.039l.22-.027q.155-.015.294-.038l.034-.006c.328-.038.642-.088.946-.131q.24-.033.411-.065l.41-.07c.317-.06.635-.13.952-.194q.164-.035.334-.071l.246-.06q.148-.031.296-.072a14 14 0 0 0 .574-.147l.153-.038a29 29 0 0 0 1.593-.482l.033-.006.021.006q.615.252 1.2.563l.174.088-.184.064a37 37 0 0 1-3.598.98l-.328.071c-.12.028-.236.048-.345.071l-.104.022-.175.033c-.06.01-.128.027-.186.039l-.104.02c-.203.04-.385.072-.553.105a1.2 1.2 0 0 1-.236.05m-1.894.11h.022q.231-.027.454-.06h.02c.093-.011.187-.028.273-.038s.176-.023.252-.034l.044-.005q.304-.05.547-.082.123-.026.247-.039.116-.017.24-.043c.164-.027.35-.065.553-.105l.104-.02q.088-.016.186-.04l.17-.032.104-.023c.109-.02.224-.048.344-.07l.321-.072a38 38 0 0 0 3.399-.914c-.318-.165-.651-.321-.98-.454-.492.164-1.023.328-1.576.476l-.128.033c-.208.055-.41.11-.607.153q-.149.035-.296.07l-.252.061c-.115.028-.224.049-.333.072-.318.07-.643.136-.958.196-.153.028-.289.056-.41.072-.122.016-.252.043-.416.064q-.461.074-.952.132l-.033.005c-.1.01-.197.021-.302.038l-.218.028c-.12.01-.247.027-.378.038a22 22 0 0 1-.642.054l-.044.006c-.603.044-1.177.07-1.713.082-.257.225-.514.482-.755.734a37 37 0 0 0 3.48-.252l.23-.033z"/><path fill="#fff" d="m12.492 23.877-.11-.12c.198-.176.427-.422.668-.679l.137-.148.12.116-.136.143c-.247.261-.476.507-.68.688M22.403 19.906l1.076.527-.072.147-1.076-.527zM15.009 21.339l-.006.006c-.054.052-.421.41-.674.663l-.008.008-.088.088-.12-.083.011-.01.011-.012s.538-.578.667-.65l.198-.01z"/><path fill="#fff" d="M15.075 21.338H15l-.198.008h-.2q-.1 0-.188-.006h-.283a8 8 0 0 1-1.06-.128q-.095-.02-.185-.041l-.076-.033a3 3 0 0 1-.21-.064l-.016-.004h-.006q-.15-.046-.295-.109.16-.027.312-.044l.015.153c.048-.005.092-.005.144-.01q.194-.015.386-.006a7 7 0 0 0 .973.118c.102.007.198.01.3.014h.004l.019-.004h.037v.006h.071c.089 0 .177.006.262.006h.137l-.003-.006h.003q.033.057.064.114l.024.04z"/><path fill="#fff" d="M22.46 19.747q-.01.059-.02.116l-.03.149-.007.035v.01l-.043.015a18.1 18.1 0 0 1-1.213.356h-.01q-.25.066-.53.129c-.47.113-.905.199-1.305.274a27 27 0 0 1-.55.1l-.11.02-.048.007-.138.024-.253.036a27 27 0 0 1-2.524.29l-.143.009q-.15.008-.304.012h-.203l-.024-.039q-.035-.058-.065-.114a3 3 0 0 1-.142-.272q-.017-.036-.034-.075a3 3 0 0 1-.109-.268l-.033-.097-.023-.068a5 5 0 0 1-.08-.297l-.02-.08v-.014q-.007-.041-.017-.084l-.012-.07-.012-.071-.022-.145q0-.015-.003-.03a4 4 0 0 1 .037-1.13 4 4 0 0 1 .776-1.765q.286-.367.642-.667a4.1 4.1 0 0 1 1.776-.838l.199-.034a4.03 4.03 0 0 1 3.722 1.463q.036.042.068.086.03.043.065.082a4.658 4.658 0 0 1 .262.405c.185.334.322.692.407 1.063q.016.05.028.1.018.066.029.133v.009q.012.072.02.144.01.053.014.107l.01.108.006.106.004.096v.008q.01.335-.039.666"/></svg>