<svg xmlns="http://www.w3.org/2000/svg" width="36" height="36" fill="none"><circle cx="18" cy="18" r="18" fill="url(#a)"/><path fill="#fff" d="m30.557 14.363-5.171-7.728c-.812-1.211-2.649-.568-2.589.903.055 1.342.543 2.762 1.711 4.504v.006l-.003.002h-.003c-.478-.367-7.681-5.924-16.243-2.965h-.01c-.945.364-1.427 1.158-1.188 2.09.221.861 1.082 1.379 1.937 1.233 1.819-.31 3.624-.459 5.399-.299s3.51.627 5.127 1.444c1.617.815 3.081 1.97 4.427 3.293 1.514 1.486 3.393 4.656 3.393 4.656.11.2.285.355.495.436.21.08.442.083.653.006.509-.188.746-.79.555-1.307a20.5 20.5 0 0 0-1.46-3.12l-.002-.003.002-.004.003-.002.003.001c.634.245 1.22.55 1.912.383a1.88 1.88 0 0 0 1.292-1.085 2.57 2.57 0 0 0-.24-2.444M6.443 22.637l5.171 7.728c.812 1.211 2.649.568 2.589-.903-.055-1.342-.543-2.762-1.711-4.504v-.006l.003-.002h.003c.478.366 7.681 5.924 16.243 2.965h.01c.945-.364 1.427-1.158 1.188-2.09-.221-.861-1.082-1.379-1.937-1.233-1.819.31-3.624.459-5.398.299a14.2 14.2 0 0 1-5.128-1.443c-1.617-.817-3.081-1.971-4.427-3.294-1.514-1.486-3.393-4.656-3.393-4.656a.96.96 0 0 0-.495-.436.93.93 0 0 0-.653-.006c-.509.188-.746.79-.555 1.307a20.5 20.5 0 0 0 1.46 3.12l.002.003-.002.004-.003.002-.003-.001c-.633-.245-1.22-.55-1.912-.383a1.88 1.88 0 0 0-1.292 1.085 2.58 2.58 0 0 0 .24 2.444"/><defs><linearGradient id="a" x1="37.906" x2="-31.94" y1="52.467" y2="-3.354" gradientUnits="userSpaceOnUse"><stop offset=".15" stop-color="#B32EFF"/><stop offset=".42" stop-color="#CE60D3"/><stop offset=".65" stop-color="#E185B3"/><stop offset=".84" stop-color="#EE9C9F"/><stop offset=".96" stop-color="#F2A498"/></linearGradient></defs></svg>