<svg xmlns="http://www.w3.org/2000/svg" width="338" height="202" fill="none"><g fill="#000" clip-path="url(#a)"><path d="M25.969 3.76H0v194.707h25.969zM122.642 127.439h-13.371c-27.62 0-50.087-22.377-50.087-49.888V3.699h76.844c27.621 0 50.087 22.378 50.087 49.889V72.9h-25.968V53.588c0-13.242-10.824-24.023-24.119-24.023H85.152V77.55c0 13.242 10.824 24.023 24.119 24.023h13.371zm66.066 20.973v-23.238c0-27.511-22.467-49.888-50.088-49.888h-15.978v25.865h15.978c13.295 0 24.119 10.781 24.119 24.023v23.238c0 13.242-10.824 24.023-24.119 24.023H85.152V129.13H59.184v69.171h79.436c27.621 0 50.088-22.378 50.088-49.889M277.148 202h-4.321c-33.548 0-60.85-27.194-60.85-60.609V60.594c0-33.415 27.302-60.609 60.85-60.609h4.321c33.548 0 60.851 27.194 60.851 60.609H312.03c0-19.146-15.644-34.729-34.867-34.729h-4.32c-19.223 0-34.868 15.583-34.868 34.729v80.797c0 19.146 15.645 34.729 34.868 34.729h4.32c19.223 0 34.867-15.583 34.867-34.729h25.969c0 33.415-27.303 60.609-60.851 60.609"/></g><defs><clipPath id="a"><path fill="#fff" d="M0 0h338v202H0z"/></clipPath></defs></svg>