<svg xmlns="http://www.w3.org/2000/svg" width="36" height="36" fill="none"><circle cx="18" cy="18" r="18" fill="#000"/><path fill="#fff" d="M28.48 10.855c-.39-.31-.857-.735-1.707-.841-.798-.107-1.61.432-2.16.788-.549.356-1.587 1.402-2.016 1.72s-1.527.615-3.295 1.683c-1.768 1.07-8.704 5.557-8.704 5.557l1.805.022-8.05 4.177h.806L4 24.848s1.023.273 1.88-.273v.25s9.585-3.805 11.436-2.82l-1.128.334c.097 0 1.918.121 1.918.121a2.62 2.62 0 0 0 1.159 1.88c1.098.728 1.12 1.13 1.12 1.13s-.571.234-.571.53c0 0 .842-.258 1.625-.235.496.019.989.098 1.467.235 0 0-.06-.318-.82-.53s-1.512-1.047-1.881-1.501a2.13 2.13 0 0 1-.309-2.077c.264-.69 1.181-1.07 3.077-2.055 2.235-1.167 2.746-2.031 3.062-2.706s.783-2.016 1.046-2.645c.331-.811.737-1.243 1.076-1.501.338-.258 1.843-.826 1.843-.826s-1.151-1.008-1.52-1.304"/></svg>