<svg xmlns="http://www.w3.org/2000/svg" width="36" height="36" fill="none"><circle cx="18" cy="18" r="18" fill="#000" transform="rotate(180 18 18)"/><path fill="#fff" d="M17.837 4A7.876 7.876 0 0 0 10 11.916v2.615h6.367v-3.788a1.353 1.353 0 0 1 1.355-1.355h.23a1.355 1.355 0 0 1 1.354 1.355v10.155a6.367 6.367 0 0 0 6.368-6.367v-2.615a7.93 7.93 0 0 0-2.296-5.597A7.77 7.77 0 0 0 17.837 4"/><path fill="#fff" d="M17.951 25.897h-.23a1.37 1.37 0 0 1-.957-.391 1.34 1.34 0 0 1-.397-.946V14.53c-.836 0-1.664.163-2.436.48a6.4 6.4 0 0 0-2.066 1.362 6.3 6.3 0 0 0-1.38 2.04A6.2 6.2 0 0 0 10 20.82v2.546a7.7 7.7 0 0 0 .574 2.986c.389.948.964 1.81 1.693 2.538a7.8 7.8 0 0 0 2.552 1.698 7.92 7.92 0 0 0 6.035 0 7.8 7.8 0 0 0 2.552-1.698A7.7 7.7 0 0 0 25.1 26.35c.389-.948.584-1.963.573-2.986v-2.546h-6.367v3.74a1.33 1.33 0 0 1-.397.947 1.36 1.36 0 0 1-.958.391"/></svg>