<svg xmlns="http://www.w3.org/2000/svg" width="36" height="36" fill="none"><g clip-path="url(#a)"><circle cx="18" cy="18" r="18" fill="url(#b)"/><path fill="#fff" d="M23.184 12.715c.418 0 .792.159 1.08.461l1.642 1.642c.23.23.518.345.835.345.273 0 .533-.086.734-.273.26-.216.389-.533.389-.864 0-.303-.115-.59-.331-.821l-1.613-1.613a3.86 3.86 0 0 0-2.736-1.138 3.8 3.8 0 0 0-2.736 1.138L9.533 22.507c-.49.49-1.138.763-1.829.763a2.52 2.52 0 0 1-1.714-.676 2.47 2.47 0 0 1-.777-1.815c0-.662.273-1.296.734-1.771l.49-.49.936.936v-3.556H3.802l1.008 1.008-.447.446c-1.886 1.886-1.915 4.94-.057 6.811a4.76 4.76 0 0 0 3.398 1.411c1.282 0 2.477-.49 3.384-1.396L22.09 13.176a1.45 1.45 0 0 1 1.065-.446z"/><path fill="#fff" d="m31.608 17.338-.82-.821 1.007-1.008h-3.557v3.557l.936-.936.864.864c.461.46.735 1.108.735 1.77 0 .692-.274 1.34-.778 1.815a2.43 2.43 0 0 1-1.713.677c-.692 0-1.34-.274-1.83-.763l-5.831-5.832-1.613 1.613 5.875 5.875a4.74 4.74 0 0 0 3.384 1.397 4.78 4.78 0 0 0 3.399-1.412c1.814-1.857 1.785-4.91-.087-6.81zM8.165 15.22c.201.174.46.274.734.274.303 0 .62-.13.835-.345l1.988-1.987c.288-.288.662-.461 1.08-.461.417 0 .792.158 1.08.46l1.468 1.47 1.613-1.628-1.425-1.425a3.86 3.86 0 0 0-2.736-1.138 3.8 3.8 0 0 0-2.736 1.138l-1.973 1.958a1.14 1.14 0 0 0-.331.82c0 .332.144.634.403.865"/></g><defs><linearGradient id="b" x1="0" x2="36" y1="17.085" y2="16.983" gradientUnits="userSpaceOnUse"><stop stop-color="#734CE2"/><stop offset=".682" stop-color="#604DF1"/><stop offset="1" stop-color="#524DFB"/></linearGradient><clipPath id="a"><path fill="#fff" d="M0 0h36v36H0z"/></clipPath></defs></svg>