<svg xmlns="http://www.w3.org/2000/svg" width="36" height="36" fill="none"><circle cx="18" cy="18" r="18" fill="#000"/><path fill="#5A94E8" d="m27.063 12.6 2.387 5.386-2.387 5.38-2.965.728 1.495-6.108-1.5-6.114z"/><path fill="#4664E5" d="m24.093 11.872 1.5 6.114-4.678-2.922-2.927-4.686z"/><path fill="#A63099" d="m25.593 17.986-1.495 6.108-6.11 1.494 2.927-4.676z"/><path fill="#5A94E8" d="m25.593 17.986-4.678 2.926 1.828-2.927-1.828-2.921z"/><path fill="#E24084" d="m24.098 24.094-.729 2.965-5.381 2.386-5.386-2.386-.729-2.97 6.115 1.5z"/><path fill="#6EC7EC" d="m23.37 8.912.723 2.96-6.105-1.494-6.115 1.494.729-2.96 5.386-2.387z"/><path fill="#6EC7EC" d="m17.988 10.378 2.927 4.686-2.927-1.832-2.927 1.827z"/><path fill="#E24084" d="m20.915 20.912-2.927 4.677-2.922-4.677 2.922 1.827z"/><path fill="#413EDB" d="m17.988 10.378-2.927 4.681-4.682 2.927 1.494-6.114z"/><path fill="#7F0A77" d="m15.066 20.912 2.922 4.677-6.115-1.5-1.494-6.103z"/><path fill="#A63099" d="m15.066 20.912-4.687-2.926 4.682-2.927-1.828 2.927z"/><path fill="#A63099" d="m8.913 12.6 2.96-.728-1.494 6.114 1.494 6.103-2.96-.723-2.387-5.38z"/><path fill="#fff" d="m17.988 6.526 5.381 2.41.724 2.96 2.97.728 2.411 5.386-2.41 5.38-2.966.704-.729 2.965-5.381 2.387-5.386-2.387-.729-2.97-2.96-.723-2.387-5.38L8.913 12.6l2.96-.704.729-2.96zm0 16.213 2.927-1.827 1.828-2.926-1.828-2.922-2.927-1.832-2.927 1.827-1.828 2.927 1.833 2.926zm0-16.739-.198.11-5.386 2.411-.212.097-.058.227-.66 2.68-2.677.656-.232.058-.091.217-2.387 5.337-.087.193.087.197 2.387 5.38.096.218.227.053 2.676.655.66 2.686.059.231.212.097 5.386 2.41.198.087.198-.087 5.381-2.41.212-.097.058-.231.66-2.68 2.682-.661.232-.053.091-.217 2.411-5.38.087-.198-.087-.193-2.41-5.386-.093-.217-.231-.057-2.686-.656-.656-2.676-.062-.231-.213-.097-5.376-2.362zm-2.575 9.411 2.575-1.586 2.575 1.615 1.61 2.57-1.61 2.564-2.575 1.596-2.57-1.596-1.616-2.579 1.61-2.574z"/><path fill="#fff" d="m29.561 17.986-5.405-3.587 2.941-1.746-.063-.1-2.99 1.754-1.446-.964-.964-1.447 1.774-2.994-.101-.062-1.746 2.946-3.525-5.294-.048-.072-3.588 5.404-1.745-2.946-.102.063 1.775 2.994-.964 1.446-1.447.965-2.99-1.775-.063.102 2.942 1.745L6.5 17.957l-.077.048 5.406 3.587-2.942 1.745.063.101 2.99-1.774 1.446.964.965 1.447-1.775 2.989.102.063 1.745-2.941 3.54 5.303.048.077 3.588-5.404 1.745 2.94.102-.062-1.775-2.99.965-1.446 1.446-.964 2.99 1.77.063-.102-2.942-1.745 5.329-3.534zm-5.632-3.592-.482.275-.67-1.037zm-6.115 3.423-5.198-3.086.844-1.272 1.273-.844zm-2.985-5.27 3.159-2.097 3.159 2.092-3.16 5.328zm3.038 5.439-5.304 3.157-2.093-3.157 2.093-3.154zm-.053.173-3.081 5.197-1.273-.853-.844-1.268zm.174-.053 3.159 5.303-3.16 2.112-3.158-2.097zm.174.053 5.198 3.086-.844 1.258-1.273.844zm-.058-.173 5.304-3.154 2.093 3.154-2.093 3.157zm.058-.17 3.08-5.201 1.274.844.844 1.272zm4.166-4.618-1.042-.69.275-.457zm-4.34-6.562 3.52 5.304-.304.51-3.182-2.116h-.034l-3.216 2.136-.304-.51zm-3.593 5.41.275.482-1.022.67zM13.2 13.632l-.69 1.037-.482-.275zm-6.568 4.34 5.304-3.52.506.337-2.112 3.182-.024.034 2.136 3.22-.506.3zm5.415 3.59.482-.274.69 1.041zm1.6 1.211 1.023.694-.275.482zm4.34 6.567-3.52-5.304.304-.482 3.183 2.112.034.024 3.216-2.136.304.482zm3.593-5.39-.274-.483 1.022-.694zm1.196-1.582.69-1.041.482.274zm1.264-.839-.482-.299 2.112-3.187v-.033l-2.137-3.22.483-.305 5.304 3.52z"/></svg>