<svg width="36" height="36" viewBox="0 0 36 36" fill="none" xmlns="http://www.w3.org/2000/svg">
<circle cx="18" cy="18" r="18" fill="black"/>
<path d="M11.1839 10.8967L12.8967 9.91301L13.1274 10.3091L19.4409 6.66813L18.9795 6.40262L18.5159 6.13276L18.2852 6L8 11.9413V12.2068L10.9533 10.4984L11.1839 10.8967Z" fill="white"/>
<path d="M11.1839 14.6378L16.1329 11.7781L16.3636 12.1807L22.677 8.53758L22.2157 8.26772L21.7521 8.00221L21.5214 7.87163L8 15.6781V15.9436L10.9533 14.2352L11.1839 14.6378Z" fill="white"/>
<path d="M11.1839 16.5072L17.7499 12.7161L17.9827 13.1144L24.294 9.46687L23.8327 9.20571L23.3713 8.93585L23.1384 8.80309L8 17.5432V17.813L10.9533 16.1068L11.1839 16.5072Z" fill="white"/>
<path d="M11.1839 18.3745L19.4148 13.6236L19.6476 14.0219L25.9132 10.4049L25.4518 10.135L24.9883 9.86949L24.7576 9.73673L8 19.4148V19.6803L10.9533 17.9719L11.1839 18.3745Z" fill="white"/>
<path d="M11.1839 20.2396L21.0339 14.5551L21.2646 14.9577L27.5302 11.3363L27.0688 11.073L26.6075 10.8031L26.3746 10.6704L8 21.2799V21.5454L10.9533 19.8413L11.1839 20.2396Z" fill="white"/>
<path d="M28.2245 11.7389L27.9938 11.604L8 23.1515V23.417L10.9533 21.713L11.1839 22.1112L21.0339 16.4267L21.2646 16.825L28.5705 12.6095V12.0741V11.9413L28.2245 11.7389Z" fill="white"/>
<path d="M9.26662 24.5509L10.9228 23.5955L11.1535 23.9938L20.9861 18.3179L21.2167 18.7205L28.5705 14.4746V13.9392V13.4038V13.1383L9.04028 24.4181L9.26662 24.5509Z" fill="white"/>
<path d="M20.9861 20.1896L21.2168 20.5922L28.5705 16.3462V15.8108V15.2754V15.0099L10.6573 25.3518L10.8902 25.4845L12.5703 24.5117L12.8031 24.9143" fill="white"/>
<path d="M12.5071 26.4203L14.1894 25.4453L14.4201 25.848L20.986 22.0547L21.2167 22.4573L28.5705 18.2113V17.6759V17.1449V16.8772L12.2721 26.2832L12.5071 26.4203Z" fill="white"/>
<path d="M14.1242 27.354L15.8064 26.3833L16.0393 26.7816L20.9861 23.9263L21.2168 24.3245L28.5705 20.0786V19.5475V19.0122V18.7467L13.8935 27.2212L14.1242 27.354Z" fill="white"/>
<path d="M15.5126 28.1549L15.7433 28.2876L17.43 27.3148L17.6563 27.7174L20.9861 25.7914L21.2167 26.194L28.5705 21.948V21.4126V20.8773V20.6118L15.5126 28.1549Z" fill="white"/>
<path d="M17.3603 29.2256L19.0426 28.2484L19.2733 28.6511L20.986 27.6587L21.2167 28.0613L28.5705 23.8196V23.2843V22.7489V22.4834L17.1296 29.0928L17.3603 29.2256Z" fill="white"/>
<path d="M21.06 7.60177L20.5965 7.33626L20.1351 7.07075L19.9044 6.93364L8 13.8064V14.0719L10.9533 12.3701L11.1839 12.7662L14.5137 10.8445L14.7509 11.2471L21.06 7.60177Z" fill="white"/>
</svg>
