<svg xmlns="http://www.w3.org/2000/svg" width="36" height="36" fill="none"><circle cx="18" cy="18" r="18" fill="#000"/><path fill="#fff" d="m11.184 10.897 1.713-.984.23.396 6.314-3.64-.461-.266-.464-.27-.23-.133L8 11.941v.266l2.953-1.709zM11.184 14.638l4.949-2.86.23.403 6.314-3.643-.461-.27-.464-.266-.23-.13L8 15.678v.266l2.953-1.709zM11.184 16.507l6.566-3.79.233.397 6.311-3.647-.461-.261-.462-.27-.233-.133L8 17.543v.27l2.953-1.706zM11.184 18.375l8.23-4.751.234.398 6.265-3.617-.461-.27-.464-.266-.23-.132L8 19.415v.265l2.953-1.708zM11.184 20.24l9.85-5.685.23.403 6.266-3.622-.461-.263-.461-.27-.233-.133L8 21.28v.265l2.953-1.704zM28.225 11.739l-.231-.135L8 23.152v.265l2.953-1.704.23.398 9.85-5.684.232.398 7.305-4.215v-.669zM9.267 24.55l1.656-.954.23.398 9.833-5.676.23.402 7.354-4.245v-1.3370000000000002L9.04 24.418zM20.986 20.19l.23.402 7.354-4.246V15.01L10.657 25.352l.233.133 1.68-.973.233.402M12.507 26.42l1.682-.975.231.403 6.566-3.793.23.402 7.354-4.246v-1.334l-16.298 9.406zM14.124 27.354l1.682-.97.233.398 4.947-2.856.23.399 7.354-4.246v-1.3320000000000003L13.894 27.22zM15.513 28.155l.23.133 1.687-.973.226.402 3.33-1.926.23.403 7.354-4.246v-1.3360000000000003zM17.36 29.226l1.683-.978.23.403 1.713-.992.23.402 7.354-4.241v-1.3370000000000002l-11.44 6.61zM21.06 7.602l-.463-.266-.462-.265-.23-.137L8 13.806v.266l2.953-1.702.23.396 3.33-1.921.238.402z"/></svg>