<svg xmlns="http://www.w3.org/2000/svg" width="36" height="36" fill="none"><circle cx="18" cy="18" r="18" fill="#000"/><path stroke="url(#a)" stroke-width="3" d="m18.43 9.333-10.097 9h20l-9.903 9" opacity=".7"/><path fill="#000" d="M18.333 12.667a3.333 3.333 0 1 0 0-6.667 3.333 3.333 0 0 0 0 6.667"/><path fill="url(#b)" d="M18.333 12.667a3.333 3.333 0 1 0 0-6.667 3.333 3.333 0 0 0 0 6.667"/><path fill="#000" d="M8.333 21.333a3.333 3.333 0 1 0 0-6.666 3.333 3.333 0 0 0 0 6.666"/><path fill="url(#c)" d="M8.333 21.333a3.333 3.333 0 1 0 0-6.666 3.333 3.333 0 0 0 0 6.666"/><path fill="#000" d="M18.333 30a3.333 3.333 0 1 0 0-6.667 3.333 3.333 0 0 0 0 6.667"/><path fill="url(#d)" d="M18.333 30a3.333 3.333 0 1 0 0-6.667 3.333 3.333 0 0 0 0 6.667"/><path fill="#000" d="M27.667 21.333a3.333 3.333 0 1 0 0-6.666 3.333 3.333 0 0 0 0 6.666"/><path fill="url(#e)" d="M27.667 21.333a3.333 3.333 0 1 0 0-6.666 3.333 3.333 0 0 0 0 6.666"/><defs><radialGradient id="a" cx="0" cy="0" r="1" gradientTransform="matrix(49.9313 0 0 63.3305 -15.59 26.957)" gradientUnits="userSpaceOnUse"><stop stop-color="#F0F"/><stop offset="1" stop-color="#AC8FFF"/></radialGradient><radialGradient id="b" cx="0" cy="0" r="1" gradientTransform="matrix(16.6437 0 0 23.4557 7.026 12.527)" gradientUnits="userSpaceOnUse"><stop stop-color="#F0F"/><stop offset="1" stop-color="#AC8FFF"/></radialGradient><radialGradient id="c" cx="0" cy="0" r="1" gradientTransform="matrix(16.6437 0 0 23.4557 -2.974 21.194)" gradientUnits="userSpaceOnUse"><stop stop-color="#F0F"/><stop offset="1" stop-color="#AC8FFF"/></radialGradient><radialGradient id="d" cx="0" cy="0" r="1" gradientTransform="matrix(16.6437 0 0 23.4557 7.026 29.86)" gradientUnits="userSpaceOnUse"><stop stop-color="#F0F"/><stop offset="1" stop-color="#AC8FFF"/></radialGradient><radialGradient id="e" cx="0" cy="0" r="1" gradientTransform="matrix(16.6437 0 0 23.4557 16.36 21.194)" gradientUnits="userSpaceOnUse"><stop stop-color="#F0F"/><stop offset="1" stop-color="#AC8FFF"/></radialGradient></defs></svg>