<svg width="36" height="36" viewBox="0 0 36 36" fill="none" xmlns="http://www.w3.org/2000/svg">
<circle cx="18" cy="18" r="18" transform="rotate(180 18 18)" fill="black"/>
<path d="M17.9903 29.9606C14.8128 29.9586 11.7658 28.6962 9.51793 26.4503C7.27006 24.2045 6.00488 21.1586 6 17.9811C6.00488 14.8034 7.26999 11.7574 9.51781 9.51133C11.7656 7.26523 14.8126 6.00244 17.9903 6C21.168 6.00244 24.215 7.26523 26.4628 9.51133C28.7106 11.7574 29.9757 14.8034 29.9806 17.9811C29.9757 21.1586 28.7106 24.2045 26.4627 26.4503C24.2148 28.6962 21.1679 29.9586 17.9903 29.9606ZM17.9903 6.92233C15.0571 6.92436 12.2445 8.08985 10.1696 10.1631C8.09461 12.2363 6.92681 15.0479 6.92233 17.9811C6.92518 20.9146 8.09253 23.7271 10.1679 25.8004C12.2432 27.8737 15.0568 29.0383 17.9903 29.0383C20.9239 29.0383 23.7374 27.8737 25.8128 25.8004C27.8881 23.7271 29.0554 20.9146 29.0582 17.9811C29.0538 15.0479 27.886 12.2363 25.811 10.1631C23.7361 8.08985 20.9235 6.92436 17.9903 6.92233Z" fill="white"/>
<path d="M19.5063 28.065C16.8737 28.0629 14.3494 27.0168 12.4872 25.156C10.6249 23.2952 9.57683 20.7717 9.57275 18.1392C9.57683 15.5066 10.6249 12.9831 12.4872 11.1223C14.3494 9.26151 16.8737 8.21535 19.5063 8.21332C22.1388 8.21535 24.6631 9.26151 26.5253 11.1223C28.3875 12.9831 29.4357 15.5066 29.4397 18.1392C29.4357 20.7717 28.3875 23.2952 26.5253 25.156C24.6631 27.0168 22.1388 28.0629 19.5063 28.065ZM19.5063 8.92967C17.0638 8.9317 14.7219 9.90244 12.9942 11.6289C11.2666 13.3554 10.2943 15.6967 10.2906 18.1392C10.2947 20.5813 11.2672 22.9222 12.9948 24.6484C14.7224 26.3746 17.0641 27.345 19.5063 27.3471C21.9484 27.345 24.2901 26.3746 26.0177 24.6484C27.7453 22.9222 28.7178 20.5813 28.7219 18.1392C28.7178 15.697 27.7453 13.3561 26.0177 11.6299C24.2901 9.90376 21.9484 8.93324 19.5063 8.93121V8.92967Z" fill="white"/>
<path d="M21.0217 26.1711C18.9342 26.1695 16.9326 25.3399 15.456 23.8644C13.9793 22.3889 13.1482 20.388 13.145 18.3006C13.1482 16.2131 13.9793 14.2121 15.456 12.7366C16.9326 11.2612 18.9342 10.4316 21.0217 10.43C23.1093 10.4312 25.111 11.2606 26.5878 12.7362C28.0645 14.2118 28.8955 16.2129 28.8984 18.3006C28.8951 20.388 28.064 22.3889 26.5873 23.8644C25.1107 25.3399 23.1091 26.1695 21.0217 26.1711ZM21.0217 10.9419C19.0698 10.9431 17.1982 11.7186 15.8174 13.0981C14.4367 14.4777 13.6597 16.3487 13.6568 18.3006C13.6601 20.2521 14.4373 22.1227 15.818 23.502C17.1987 24.8812 19.0701 25.6564 21.0217 25.6577C22.9732 25.6564 24.8446 24.8812 26.2253 23.502C27.606 22.1227 28.3833 20.2521 28.3865 18.3006C28.3837 16.3487 27.6066 14.4777 26.2258 13.0981C24.8451 11.7186 22.9735 10.9431 21.0217 10.9419Z" fill="white"/>
<path d="M22.5375 24.2757C20.9952 24.2745 19.5163 23.6616 18.4252 22.5714C17.3342 21.4812 16.7201 20.0027 16.7177 18.4604C16.7197 16.9177 17.3336 15.4389 18.4247 14.3484C19.5158 13.2579 20.9949 12.6448 22.5375 12.6436C24.0802 12.6448 25.5594 13.2579 26.6504 14.3484C27.7415 15.4389 28.3554 16.9177 28.3575 18.4604C28.355 20.0027 27.741 21.4812 26.6499 22.5714C25.5589 23.6616 24.0799 24.2745 22.5375 24.2757ZM22.5375 12.951C21.0765 12.9522 19.6755 13.533 18.6421 14.5658C17.6087 15.5986 17.0272 16.9993 17.0251 18.4604C17.0275 19.9212 17.6092 21.3214 18.6426 22.3539C19.676 23.3865 21.0767 23.967 22.5375 23.9682C23.9984 23.967 25.3991 23.3865 26.4325 22.3539C27.4659 21.3214 28.0476 19.9212 28.05 18.4604C28.048 16.9993 27.4665 15.5986 26.4331 14.5658C25.3997 13.533 23.9986 12.9522 22.5375 12.951Z" fill="white"/>
</svg>
