<svg xmlns="http://www.w3.org/2000/svg" width="36" height="36" fill="none"><circle cx="18" cy="18" r="18" fill="#000" transform="rotate(180 18 18)"/><path fill="#fff" d="M17.99 29.96A12 12 0 0 1 6 17.982 12 12 0 0 1 17.99 6a12 12 0 0 1 11.99 11.981 12 12 0 0 1-11.99 11.98m0-23.038a11.075 11.075 0 0 0-11.068 11.06 11.068 11.068 0 0 0 22.136 0A11.075 11.075 0 0 0 17.99 6.921"/><path fill="#fff" d="M19.506 28.065a9.94 9.94 0 0 1-9.933-9.926 9.94 9.94 0 0 1 9.933-9.926 9.94 9.94 0 0 1 9.934 9.926 9.94 9.94 0 0 1-9.934 9.926m0-19.135a9.224 9.224 0 0 0-9.215 9.21 9.224 9.224 0 0 0 9.215 9.207 9.223 9.223 0 0 0 9.216-9.208 9.224 9.224 0 0 0-9.216-9.208z"/><path fill="#fff" d="M21.022 26.171a7.883 7.883 0 0 1-7.877-7.87 7.883 7.883 0 0 1 7.877-7.871 7.88 7.88 0 0 1 7.876 7.87 7.883 7.883 0 0 1-7.876 7.871m0-15.23a7.37 7.37 0 0 0-7.365 7.36 7.37 7.37 0 0 0 7.365 7.357 7.37 7.37 0 0 0 7.365-7.357 7.37 7.37 0 0 0-7.365-7.36"/><path fill="#fff" d="M22.538 24.276a5.824 5.824 0 0 1-5.82-5.816 5.824 5.824 0 0 1 5.82-5.816 5.824 5.824 0 0 1 5.82 5.816 5.825 5.825 0 0 1-5.82 5.816m0-11.325a5.517 5.517 0 0 0-5.513 5.51 5.517 5.517 0 0 0 5.513 5.507 5.517 5.517 0 0 0 5.512-5.508 5.517 5.517 0 0 0-5.512-5.509"/></svg>