<svg width="16" height="16" viewBox="0 0 16 16" fill="none" xmlns="http://www.w3.org/2000/svg">
<path d="M2.20044 7C2.97344 7.00024 3.59985 7.62734 3.59985 8.40039C3.59964 9.17326 2.97331 9.79957 2.20044 9.7998C1.42737 9.7998 0.80026 9.17341 0.800049 8.40039C0.800049 7.62719 1.42724 7 2.20044 7ZM7.80005 7C8.57316 7.00011 9.19946 7.62726 9.19946 8.40039C9.19925 9.17334 8.57303 9.7997 7.80005 9.7998C7.02705 9.79973 6.39987 9.17336 6.39966 8.40039C6.39966 7.62724 7.02692 7.00008 7.80005 7ZM13.4006 7C14.1735 7.00034 14.8 7.6274 14.8 8.40039C14.7998 9.1732 14.1734 9.79946 13.4006 9.7998C12.6276 9.7998 12.0005 9.17341 12.0002 8.40039C12.0002 7.62719 12.6274 7 13.4006 7ZM2.20044 9.59961C2.15938 9.59961 2.11837 9.59778 2.07837 9.59375C2.11845 9.5978 2.1593 9.60059 2.20044 9.60059C2.26128 9.60056 2.32087 9.59512 2.37915 9.58594L2.20044 9.59961ZM7.80005 9.59961C7.75885 9.59961 7.71811 9.5978 7.67798 9.59375C7.71814 9.59782 7.75883 9.60058 7.80005 9.60059C7.84089 9.60058 7.88135 9.59774 7.92114 9.59375C7.88131 9.59774 7.84093 9.59961 7.80005 9.59961ZM13.3997 9.59961C13.3588 9.5996 13.3184 9.59775 13.2786 9.59375C13.3186 9.59778 13.3596 9.60059 13.4006 9.60059C13.4412 9.60056 13.4812 9.59771 13.5208 9.59375C13.481 9.59772 13.4404 9.59961 13.3997 9.59961ZM3.30591 7.93262C3.36668 8.07623 3.39966 8.23464 3.39966 8.40039C3.39965 8.4416 3.39793 8.48235 3.3938 8.52246L3.40063 8.40039C3.40063 8.23486 3.36656 8.07707 3.30591 7.93359V7.93262ZM8.99341 8.27734H8.99438H8.99341ZM14.5764 8.15918C14.5922 8.2371 14.5999 8.31789 14.5999 8.40039H14.6008C14.6008 8.31781 14.5925 8.23711 14.5764 8.15918ZM8.85474 7.82812H8.85571H8.85474Z" fill="currentColor"/>
</svg>
