<svg width="24" height="24" viewBox="0 0 24 24"  xmlns="http://www.w3.org/2000/svg">
<path fill-rule="evenodd" clip-rule="evenodd" d="M11.7499 2.33635C11.9159 2.31236 12.0844 2.31236 12.2504 2.33635C12.4405 2.36381 12.6183 2.43083 12.7845 2.49344C12.7982 2.49859 12.8118 2.50372 12.8253 2.50879L18.1871 4.51946C18.2255 4.53388 18.2635 4.54808 18.301 4.5621C18.9374 4.80011 19.4366 4.98679 19.8184 5.32321C20.1534 5.61849 20.4115 5.99093 20.5703 6.40833C20.7513 6.88389 20.7508 7.41684 20.7502 8.09632C20.7502 8.13635 20.7501 8.17689 20.7501 8.21796V12.0004C20.7501 14.5432 19.2006 16.6527 17.5435 18.1931C15.8704 19.7484 13.9637 20.8402 12.9881 21.3485C12.9766 21.3545 12.9649 21.3606 12.9532 21.3667C12.7787 21.458 12.5861 21.5588 12.3343 21.6077C12.1288 21.6477 11.8715 21.6477 11.666 21.6077C11.4141 21.5587 11.2216 21.458 11.047 21.3667C11.0353 21.3606 11.0237 21.3545 11.0122 21.3485C10.0366 20.8402 8.1299 19.7484 6.45682 18.1931C4.79968 16.6527 3.25014 14.5432 3.25014 12.0004V8.21796C3.25014 8.17689 3.25011 8.13635 3.25007 8.09632C3.24946 7.41683 3.24897 6.88389 3.42994 6.40833C3.58877 5.99093 3.84687 5.61849 4.18192 5.32321C4.56366 4.98679 5.06285 4.80011 5.69928 4.5621C5.73678 4.54808 5.77475 4.53388 5.8132 4.51946L11.175 2.50879C11.1885 2.50372 11.2021 2.4986 11.2158 2.49344C11.3819 2.43083 11.5598 2.36381 11.7499 2.33635ZM12.0359 3.82093C12.0122 3.8175 11.9881 3.8175 11.9644 3.82093C11.9683 3.82036 11.9602 3.82066 11.9192 3.83407C11.8723 3.84947 11.8112 3.8722 11.7017 3.91328L6.33989 5.92395C5.53381 6.22623 5.32112 6.31863 5.17368 6.44857C5.02138 6.58278 4.90406 6.75207 4.83187 6.9418C4.76197 7.12548 4.75014 7.35707 4.75014 8.21796V12.0004C4.75014 13.9187 5.93058 15.656 7.47808 17.0945C9.00963 18.5181 10.7823 19.5373 11.7053 20.0182C11.8158 20.0758 11.8674 20.1022 11.9079 20.1199C11.9357 20.1321 11.9442 20.1337 11.9524 20.1353C11.9504 20.1349 11.9502 20.135 11.9518 20.1352C11.9535 20.1354 11.957 20.1358 11.9624 20.1363C11.9727 20.1371 11.9857 20.1377 12.0001 20.1377C12.0146 20.1377 12.0276 20.1371 12.0379 20.1363C12.0487 20.1354 12.0519 20.1346 12.0479 20.1353C12.0561 20.1337 12.0646 20.1321 12.0924 20.1199C12.1329 20.1022 12.1845 20.0758 12.295 20.0182C13.218 19.5373 14.9907 18.5181 16.5222 17.0945C18.0697 15.656 19.2501 13.9187 19.2501 12.0004V8.21796C19.2501 7.35706 19.2383 7.12548 19.1684 6.9418C19.0962 6.75207 18.9789 6.58278 18.8266 6.44857C18.6792 6.31863 18.4665 6.22623 17.6604 5.92395L12.2986 3.91328C12.1891 3.8722 12.128 3.84947 12.081 3.83407C12.0401 3.82066 12.032 3.82036 12.0359 3.82093ZM15.5305 9.47003C15.8234 9.76292 15.8234 10.2378 15.5305 10.5307L11.5305 14.5307C11.2376 14.8236 10.7627 14.8236 10.4698 14.5307L8.46981 12.5307C8.17692 12.2378 8.17692 11.7629 8.46981 11.47C8.76271 11.1771 9.23758 11.1771 9.53047 11.47L11.0001 12.9397L14.4698 9.47003C14.7627 9.17714 15.2376 9.17714 15.5305 9.47003Z" fill="currentColor"/>
</svg>
