<svg width="24" height="24" viewBox="0 0 24 24"  xmlns="http://www.w3.org/2000/svg">
<path fill-rule="evenodd" clip-rule="evenodd" d="M18 6.75C18.1147 6.74999 18.2265 6.77629 18.3274 6.82524C18.3654 6.84367 18.4015 6.86514 18.4354 6.88929C18.4974 6.9335 18.5531 6.98744 18.6 7.05C19.3145 8.00269 20.0285 8.71629 20.5608 9.18945C20.8266 9.42577 21.0463 9.6013 21.1967 9.71593C21.2719 9.77322 21.3297 9.81522 21.3673 9.84191C21.386 9.85526 21.3997 9.86477 21.408 9.87045L21.416 9.87597C21.7605 10.1058 21.8537 10.5715 21.624 10.916C21.3943 11.2607 20.9286 11.3538 20.584 11.124L20.5806 11.1218L20.5751 11.1181L20.5576 11.1061C20.5432 11.0962 20.5232 11.0823 20.498 11.0643C20.4476 11.0285 20.3765 10.9768 20.2877 10.9091C20.11 10.7737 19.8609 10.5742 19.5642 10.3106C19.3209 10.0943 19.045 9.83429 18.75 9.53046V15.7501H21C21.4142 15.7501 21.75 16.0859 21.75 16.5001C21.75 16.9143 21.4142 17.2501 21 17.2501H3C2.58579 17.2501 2.25 16.9143 2.25 16.5001C2.25 16.0859 2.58579 15.7501 3 15.7501H5.25V9.53045C4.95495 9.83429 4.67907 10.0943 4.43577 10.3106C4.13913 10.5742 3.89002 10.7737 3.71234 10.9091C3.62347 10.9768 3.55237 11.0285 3.50202 11.0643C3.47684 11.0823 3.45684 11.0962 3.44239 11.1061L3.42491 11.1181L3.41938 11.1218L3.41742 11.1231L3.41602 11.124C3.07138 11.3538 2.60572 11.2607 2.37596 10.916C2.14625 10.5715 2.23954 10.1058 2.58397 9.87597L2.59203 9.87045C2.60028 9.86477 2.61397 9.85526 2.63274 9.84191C2.67028 9.81522 2.72809 9.77322 2.80328 9.71593C2.95372 9.6013 3.17336 9.42577 3.43922 9.18945C3.97153 8.71629 4.68548 8.00269 5.4 7.05C5.44908 6.98456 5.50775 6.92855 5.57323 6.88325C5.60277 6.86281 5.63392 6.84439 5.66653 6.82822C5.76902 6.77734 5.88299 6.74998 6.00004 6.75C6.01973 6.75 6.03934 6.75078 6.05884 6.75232C6.26336 6.7684 6.4506 6.86734 6.57896 7.02322C6.60572 7.05572 6.62992 7.0907 6.65119 7.12791C6.94281 7.63828 7.24296 8.07609 7.54579 8.45177C8.16042 9.21424 8.78608 9.72085 9.3739 10.0589C9.50316 10.1332 9.63152 10.1999 9.75858 10.2598C10.6025 10.657 11.3891 10.75 12 10.75C12.7029 10.75 13.6383 10.6269 14.6261 10.0589C15.5035 9.55431 16.4653 8.67412 17.3488 7.12791C17.4723 6.91177 17.6949 6.7712 17.9426 6.7522C17.9617 6.75074 17.9808 6.75 18 6.75ZM6.75 9.82781V15.7501H8.25V11.1268C7.74364 10.7917 7.2392 10.3656 6.75 9.82781ZM9.75 15.7501V11.8751C10.2852 12.0627 10.7928 12.1627 11.25 12.2111V15.7501H9.75ZM12.75 15.7501V12.2111C13.2072 12.1627 13.7148 12.0628 14.25 11.8752V15.7501H12.75ZM15.75 15.7501V11.1269C16.2564 10.7918 16.7608 10.3656 17.25 9.82787V15.7501H15.75Z" fill="currentColor"/>
</svg>
