<svg width="24" height="24" viewBox="0 0 24 24"  xmlns="http://www.w3.org/2000/svg">
<path fill-rule="evenodd" clip-rule="evenodd" d="M6.16957 4.25H17.8304C18.3646 4.24999 18.8104 4.24998 19.1747 4.27974C19.5546 4.31078 19.9112 4.37789 20.2485 4.54973C20.7659 4.81338 21.1866 5.23408 21.4503 5.75153C21.6221 6.08879 21.6892 6.44545 21.7203 6.82533C21.75 7.18956 21.75 7.6354 21.75 8.16955V15.8305C21.75 16.3646 21.75 16.8104 21.7203 17.1747C21.6892 17.5546 21.6221 17.9112 21.4503 18.2485C21.1866 18.7659 20.7659 19.1866 20.2485 19.4503C19.9112 19.6221 19.5546 19.6892 19.1747 19.7203C18.8104 19.75 18.3646 19.75 17.8305 19.75H6.16955C5.6354 19.75 5.18956 19.75 4.82533 19.7203C4.44545 19.6892 4.08879 19.6221 3.75153 19.4503C3.23408 19.1866 2.81338 18.7659 2.54973 18.2485C2.37789 17.9112 2.31078 17.5546 2.27974 17.1747C2.24998 16.8104 2.24999 16.3646 2.25 15.8304V8.16957C2.24999 7.63541 2.24998 7.18956 2.27974 6.82533C2.31078 6.44545 2.37789 6.08879 2.54973 5.75153C2.81338 5.23408 3.23408 4.81338 3.75153 4.54973C4.08879 4.37789 4.44545 4.31078 4.82533 4.27974C5.18956 4.24998 5.63541 4.24999 6.16957 4.25ZM3.75 9.75V15.8C3.75 16.3724 3.75058 16.7566 3.77476 17.0525C3.79822 17.3396 3.8401 17.4769 3.88624 17.5675C4.00608 17.8027 4.19731 17.9939 4.43251 18.1138C4.52307 18.1599 4.66036 18.2018 4.94748 18.2252C5.24336 18.2494 5.62757 18.25 6.2 18.25H17.8C18.3724 18.25 18.7566 18.2494 19.0525 18.2252C19.3396 18.2018 19.4769 18.1599 19.5675 18.1138C19.8027 17.9939 19.9939 17.8027 20.1138 17.5675C20.1599 17.4769 20.2018 17.3396 20.2252 17.0525C20.2494 16.7566 20.25 16.3724 20.25 15.8V9.75H3.75ZM20.25 8.25H3.75V8.2C3.75 7.62757 3.75058 7.24336 3.77476 6.94748C3.79822 6.66036 3.8401 6.52307 3.88624 6.43251C4.00608 6.19731 4.19731 6.00608 4.43251 5.88624C4.52307 5.8401 4.66036 5.79822 4.94748 5.77476C5.24336 5.75058 5.62757 5.75 6.2 5.75H17.8C18.3724 5.75 18.7566 5.75058 19.0525 5.77476C19.3396 5.79822 19.4769 5.8401 19.5675 5.88624C19.8027 6.00608 19.9939 6.19731 20.1138 6.43251C20.1599 6.52307 20.2018 6.66036 20.2252 6.94748C20.2494 7.24336 20.25 7.62757 20.25 8.2V8.25ZM6.25 15C6.25 14.5858 6.58579 14.25 7 14.25H9C9.41421 14.25 9.75 14.5858 9.75 15C9.75 15.4142 9.41421 15.75 9 15.75H7C6.58579 15.75 6.25 15.4142 6.25 15Z" fill="currentColor"/>
</svg>
