<svg width="24" height="24" viewBox="0 0 24 24"  xmlns="http://www.w3.org/2000/svg">
<path fill-rule="evenodd" clip-rule="evenodd" d="M11.7993 2.27736C11.9306 2.24088 12.0694 2.24088 12.2007 2.27736L21.2007 4.77736C21.5253 4.86753 21.75 5.16309 21.75 5.5V8C21.75 8.41421 21.4142 8.75 21 8.75H19.75V16.3673C19.9212 16.4092 20.0873 16.4676 20.2485 16.5497C20.7659 16.8134 21.1866 17.2341 21.4503 17.7515C21.6221 18.0888 21.6892 18.4454 21.7203 18.8253C21.75 19.1896 21.75 19.6354 21.75 20.1695V21C21.75 21.4142 21.4142 21.75 21 21.75H3C2.58579 21.75 2.25 21.4142 2.25 21L2.25 20.1696C2.24999 19.6354 2.24998 19.1896 2.27974 18.8253C2.31078 18.4454 2.37789 18.0888 2.54973 17.7515C2.81338 17.2341 3.23408 16.8134 3.75153 16.5497C3.91273 16.4676 4.07877 16.4092 4.25 16.3673V8.75H3C2.58579 8.75 2.25 8.41421 2.25 8V5.5C2.25 5.16309 2.47465 4.86753 2.79927 4.77736L11.7993 2.27736ZM5.75 8.75V16.2506C5.88567 16.25 6.02837 16.25 6.17822 16.25H8.25V8.75H5.75ZM3.75 7.25V6.07006L12 3.7784L20.25 6.07006V7.25H3.75ZM9.75 8.75V16.25H14.25V8.75H9.75ZM15.75 8.75V16.25H17.8217C17.9716 16.25 18.1143 16.25 18.25 16.2506V8.75H15.75ZM6.2 17.75C5.69301 17.75 5.33194 17.7503 5.04571 17.7678C4.69113 17.7894 4.53405 17.8345 4.43251 17.8862C4.19731 18.0061 4.00608 18.1973 3.88624 18.4325C3.8401 18.5231 3.79822 18.6604 3.77476 18.9475C3.75058 19.2434 3.75 19.6276 3.75 20.2V20.25H20.25V20.2C20.25 19.6276 20.2494 19.2434 20.2252 18.9475C20.2018 18.6604 20.1599 18.5231 20.1138 18.4325C19.9939 18.1973 19.8027 18.0061 19.5675 17.8862C19.466 17.8345 19.3089 17.7894 18.9543 17.7678C18.6681 17.7503 18.307 17.75 17.8 17.75H6.2Z" fill="currentColor"/>
</svg>
