<svg width="24" height="24" viewBox="0 0 24 24"  xmlns="http://www.w3.org/2000/svg">
<path fill-rule="evenodd" clip-rule="evenodd" d="M14.8939 3.21787C14.7177 3.26449 14.4842 3.34862 14.1097 3.4848L9.25733 5.24931H15.2502V4.28363C15.2502 3.88514 15.2495 3.63696 15.2331 3.45546C15.223 3.34397 15.2095 3.29676 15.2051 3.28376C15.1714 3.23551 15.1217 3.20071 15.0648 3.1855C15.0511 3.18583 15.0021 3.18924 14.8939 3.21787ZM16.7502 5.25711L16.7502 4.25196C16.7502 3.89486 16.7502 3.5778 16.727 3.32052C16.7028 3.05263 16.6472 2.75006 16.468 2.47402C16.221 2.09368 15.8361 1.82404 15.3942 1.72194C15.0736 1.64784 14.7702 1.69898 14.5102 1.76778C14.2604 1.83386 13.9625 1.94223 13.6269 2.06429L6.32371 4.71998C6.29031 4.73213 6.25717 4.74413 6.22432 4.75602C5.75472 4.92601 5.34238 5.07527 5.02442 5.35155C4.7463 5.59321 4.53179 5.89948 4.39972 6.24344C4.24873 6.63667 4.24937 7.07519 4.2501 7.57461C4.25015 7.60955 4.2502 7.64479 4.2502 7.68033V9.10949C4.2502 9.12916 4.2502 9.14895 4.2502 9.16887V17.8297C4.25019 18.3639 4.25018 18.8097 4.27994 19.174C4.31098 19.5539 4.37809 19.9105 4.54993 20.2478C4.81359 20.7652 5.23428 21.1859 5.75173 21.4496C6.08899 21.6214 6.44565 21.6885 6.82553 21.7196C7.18976 21.7493 7.6356 21.7493 8.16975 21.7493H15.8307C16.3648 21.7493 16.8106 21.7493 17.1749 21.7196C17.5548 21.6885 17.9114 21.6214 18.2487 21.4496C18.7661 21.1859 19.1868 20.7652 19.4505 20.2478C19.6223 19.9105 19.6894 19.5539 19.7205 19.174C19.7502 18.8097 19.7502 18.3639 19.7502 17.8298V9.16886C19.7502 8.63471 19.7502 8.18887 19.7205 7.82464C19.6894 7.44475 19.6223 7.0881 19.4505 6.75083C19.1868 6.23339 18.7661 5.81269 18.2487 5.54904C17.9114 5.3772 17.5548 5.31009 17.1749 5.27905C17.044 5.26835 16.9025 5.2615 16.7502 5.25711ZM5.7502 17.7993C5.7502 18.3717 5.75079 18.756 5.77496 19.0518C5.79842 19.339 5.8403 19.4762 5.88644 19.5668C6.00629 19.802 6.19751 19.9932 6.43271 20.1131C6.52328 20.1592 6.66056 20.2011 6.94768 20.2246C7.24356 20.2487 7.62777 20.2493 8.2002 20.2493H15.8002C16.3726 20.2493 16.7568 20.2487 17.0527 20.2246C17.3398 20.2011 17.4771 20.1592 17.5677 20.1131C17.8029 19.9932 17.9941 19.802 18.114 19.5668C18.1601 19.4762 18.202 19.339 18.2254 19.0518C18.2496 18.756 18.2502 18.3717 18.2502 17.7993V9.19931C18.2502 8.62688 18.2496 8.24267 18.2254 7.94679C18.202 7.65966 18.1601 7.52238 18.114 7.43182C17.9941 7.19662 17.8029 7.00539 17.5677 6.88555C17.4771 6.83941 17.3398 6.79752 17.0527 6.77407C16.7568 6.74989 16.3726 6.74931 15.8002 6.74931H8.2002C7.62777 6.74931 7.24356 6.74989 6.94768 6.77407C6.66056 6.79752 6.52328 6.83941 6.43271 6.88555C6.19751 7.00539 6.00629 7.19662 5.88644 7.43182C5.8403 7.52238 5.79842 7.65966 5.77496 7.94679C5.75079 8.24266 5.7502 8.62688 5.7502 9.19931V17.7993ZM8.2502 9.99931C8.2502 9.58509 8.58599 9.24931 9.0002 9.24931H15.0002C15.4144 9.24931 15.7502 9.58509 15.7502 9.99931C15.7502 10.4135 15.4144 10.7493 15.0002 10.7493H9.0002C8.58599 10.7493 8.2502 10.4135 8.2502 9.99931ZM8.2502 13.4993C8.2502 13.0851 8.58599 12.7493 9.0002 12.7493H15.0002C15.4144 12.7493 15.7502 13.0851 15.7502 13.4993C15.7502 13.9135 15.4144 14.2493 15.0002 14.2493H9.0002C8.58599 14.2493 8.2502 13.9135 8.2502 13.4993ZM8.2502 16.9993C8.2502 16.5851 8.58599 16.2493 9.0002 16.2493H15.0002C15.4144 16.2493 15.7502 16.5851 15.7502 16.9993C15.7502 17.4135 15.4144 17.7493 15.0002 17.7493H9.0002C8.58599 17.7493 8.2502 17.4135 8.2502 16.9993Z" fill="currentColor"/>
</svg>
