<svg width="24" height="24" viewBox="0 0 24 24" fill="none" xmlns="http://www.w3.org/2000/svg">
    <path d="M19.4573 5.87835L16.6057 3.44907L15.538 6.2688L16.5935 7.16639L19.4573 5.87835Z" fill="#999CB3"/>
    <path d="M17.133 8.33725V15.6625L20 16.9515V7.04817L17.133 8.33725Z" fill="#999CB3"/>
    <path d="M9.4751 7.10462L8.17059 8.21595V15.7848L9.4751 16.8953H14.5249L15.8294 15.7848V8.21595L14.5249 7.10462H9.4751Z" fill="#999CB3"/>
    <path d="M15.538 17.7302L16.6058 20.5507L19.458 18.1208L16.5943 16.8327L15.538 17.7302Z" fill="#999CB3"/>
    <path d="M9.68491 18.1842L8.61877 21H15.3812L14.3151 18.1842H9.68491Z" fill="#999CB3"/>
    <path d="M4.54273 18.1216L7.39427 20.5501L8.46204 17.7304L7.4057 16.8336L4.54273 18.1216Z" fill="#999CB3"/>
    <path d="M6.86701 8.33725L4 7.04833V16.9516L6.86701 15.6627V8.33725Z" fill="#999CB3"/>
    <path d="M14.3151 5.81582L15.3812 3H8.61881L9.68495 5.81582H14.3151Z" fill="#999CB3"/>
    <path d="M8.46196 6.26901L7.39419 3.44928L4.54264 5.87856L7.40631 7.16668L8.46196 6.26901Z" fill="#999CB3"/>
</svg>
