<svg width="24" height="24" viewBox="0 0 24 24"  xmlns="http://www.w3.org/2000/svg">
<path fill-rule="evenodd" clip-rule="evenodd" d="M10.0736 3.97612C7.70458 4.5428 5.73257 6.13143 4.64956 8.25H7.81144C8.34 6.5653 9.18166 5.11334 10.0736 3.97612ZM3.75 12C3.75 11.22 3.85825 10.4652 4.06055 9.75H7.44104C7.43085 9.80624 7.42104 9.86268 7.41161 9.91932C7.186 11.2743 7.1816 12.7298 7.49371 14.25H4.06055C3.85825 13.5348 3.75 12.78 3.75 12ZM4.64956 15.75C5.75791 17.9181 7.79735 19.5312 10.2405 20.062C9.13277 18.5991 8.37612 17.153 7.90107 15.75H4.64956ZM9.49646 15.75C10.0095 17.0727 10.8154 18.4516 12 19.8627C13.1846 18.4516 13.9905 17.0727 14.5035 15.75H9.49646ZM16.0989 15.75C15.6239 17.153 14.8672 18.5991 13.7595 20.062C16.2026 19.5312 18.2421 17.9181 19.3504 15.75H16.0989ZM19.9395 14.25H16.5063C16.8184 12.7298 16.814 11.2743 16.5884 9.91932C16.579 9.86268 16.5691 9.80624 16.559 9.75H19.9395C20.1417 10.4652 20.25 11.22 20.25 12C20.25 12.78 20.1417 13.5348 19.9395 14.25ZM14.9704 14.25H9.02964C8.68621 12.7909 8.6828 11.4175 8.89124 10.1657C8.91453 10.0258 8.94051 9.8872 8.96901 9.75H15.031C15.0595 9.8872 15.0855 10.0258 15.1088 10.1657C15.3172 11.4175 15.3138 12.7909 14.9704 14.25ZM16.1886 8.25H19.3504C18.2674 6.13143 16.2954 4.5428 13.9264 3.97612C14.8183 5.11334 15.66 6.5653 16.1886 8.25ZM12 4.04187C11.0411 5.03662 10.0291 6.48844 9.39415 8.25H14.6059C13.9709 6.48844 12.9589 5.03662 12 4.04187ZM2.25 12C2.25 6.61522 6.61522 2.25 12 2.25C17.3848 2.25 21.75 6.61522 21.75 12C21.75 17.3848 17.3848 21.75 12 21.75C6.61522 21.75 2.25 17.3848 2.25 12Z" fill="currentColor"/>
</svg>