<svg width="24" height="24" viewBox="0 0 24 24"  xmlns="http://www.w3.org/2000/svg">
<path fill-rule="evenodd" clip-rule="evenodd" d="M12 3.75C7.44365 3.75 3.75 7.44365 3.75 12C3.75 13.6326 4.22421 15.1544 5.04241 16.4353L7.28153 14.4078L7.28311 14.4063L7.30278 14.3884C7.66506 14.0585 7.96871 13.7819 8.23616 13.5741C8.51614 13.3566 8.80201 13.1773 9.14038 13.0743C9.66242 12.9154 10.2199 12.9154 10.742 13.0743C11.0803 13.1773 11.3662 13.3566 11.6462 13.5741C11.9136 13.7819 12.2173 14.0584 12.5796 14.3884L13.6471 15.3607C13.9368 15.0975 14.1876 14.874 14.4126 14.6991C14.6926 14.4816 14.9785 14.3023 15.3168 14.1993C15.8389 14.0404 16.3964 14.0404 16.9184 14.1993C17.2568 14.3023 17.5427 14.4816 17.8227 14.6991C18.0901 14.9069 18.3937 15.1834 18.756 15.5134L18.7711 15.5271L19.2486 15.9428C19.8871 14.7714 20.25 13.4281 20.25 12C20.25 7.44365 16.5563 3.75 12 3.75ZM18.4065 17.1985L17.7798 16.6529L17.7673 16.6418C17.3782 16.2874 17.1179 16.0511 16.9024 15.8837C16.6943 15.722 16.5744 15.6625 16.4816 15.6343C16.2444 15.562 15.9909 15.562 15.7536 15.6343C15.6609 15.6625 15.541 15.722 15.3329 15.8837C15.177 16.0048 14.9977 16.1619 14.7632 16.3737L17.0977 18.4871C17.5802 18.1073 18.0194 17.6749 18.4065 17.1985ZM17.4781 20.0667C20.0566 18.3122 21.75 15.3539 21.75 12C21.75 6.61522 17.3848 2.25 12 2.25C6.61522 2.25 2.25 6.61522 2.25 12C2.25 17.3848 6.61522 21.75 12 21.75C14.0218 21.75 15.8998 21.1346 17.457 20.081C17.4641 20.0763 17.4712 20.0716 17.4781 20.0667ZM15.7923 19.3287L13.1437 16.931L13.1421 16.9295L11.5908 15.5168C11.2017 15.1624 10.9415 14.9261 10.726 14.7587C10.5178 14.597 10.3979 14.5375 10.3052 14.5093C10.0679 14.437 9.81447 14.437 9.57718 14.5093C9.48444 14.5375 9.36457 14.597 9.15639 14.7587C8.9409 14.9261 8.68061 15.1624 8.29152 15.5168L8.28993 15.5182L5.96415 17.6242C7.47018 19.2397 9.61711 20.25 12 20.25C13.3673 20.25 14.6569 19.9174 15.7923 19.3287ZM15 7.75C14.3096 7.75 13.75 8.30964 13.75 9C13.75 9.69036 14.3096 10.25 15 10.25C15.6904 10.25 16.25 9.69036 16.25 9C16.25 8.30964 15.6904 7.75 15 7.75ZM12.25 9C12.25 7.48122 13.4812 6.25 15 6.25C16.5188 6.25 17.75 7.48122 17.75 9C17.75 10.5188 16.5188 11.75 15 11.75C13.4812 11.75 12.25 10.5188 12.25 9Z" fill="currentColor"/>
</svg>
