<svg width="24" height="24" viewBox="0 0 24 24"  xmlns="http://www.w3.org/2000/svg">
<path fill-rule="evenodd" clip-rule="evenodd" d="M7.16957 2.25H16.8304C17.3646 2.24999 17.8104 2.24998 18.1747 2.27974C18.5546 2.31078 18.9112 2.37789 19.2485 2.54973C19.7659 2.81338 20.1866 3.23408 20.4503 3.75153C20.6221 4.08879 20.6892 4.44545 20.7203 4.82533C20.75 5.18956 20.75 5.6354 20.75 6.16955V17.8305C20.75 18.3646 20.75 18.8104 20.7203 19.1747C20.6892 19.5546 20.6221 19.9112 20.4503 20.2485C20.1866 20.7659 19.7659 21.1866 19.2485 21.4503C18.9112 21.6221 18.5546 21.6892 18.1747 21.7203C17.8104 21.75 17.3646 21.75 16.8305 21.75H7.16955C6.6354 21.75 6.18956 21.75 5.82533 21.7203C5.44545 21.6892 5.08879 21.6221 4.75153 21.4503C4.23408 21.1866 3.81338 20.7659 3.54973 20.2485C3.37789 19.9112 3.31078 19.5546 3.27974 19.1747C3.24998 18.8104 3.24999 18.3646 3.25 17.8304V6.16957C3.24999 5.63541 3.24998 5.18956 3.27974 4.82533C3.31078 4.44545 3.37789 4.08879 3.54973 3.75153C3.81338 3.23408 4.23408 2.81338 4.75153 2.54973C5.08879 2.37789 5.44545 2.31078 5.82533 2.27974C6.18956 2.24998 6.63541 2.24999 7.16957 2.25ZM5.94748 3.77476C5.66036 3.79822 5.52307 3.8401 5.43251 3.88624C5.19731 4.00608 5.00608 4.19731 4.88624 4.43251C4.8401 4.52307 4.79822 4.66036 4.77476 4.94748C4.75058 5.24336 4.75 5.62757 4.75 6.2V17.8C4.75 18.3724 4.75058 18.7566 4.77476 19.0525C4.79822 19.3396 4.8401 19.4769 4.88624 19.5675C5.00608 19.8027 5.19731 19.9939 5.43251 20.1138C5.52307 20.1599 5.66036 20.2018 5.94748 20.2252C6.24336 20.2494 6.62757 20.25 7.2 20.25H16.8C17.3724 20.25 17.7566 20.2494 18.0525 20.2252C18.3396 20.2018 18.4769 20.1599 18.5675 20.1138C18.8027 19.9939 18.9939 19.8027 19.1138 19.5675C19.1599 19.4769 19.2018 19.3396 19.2252 19.0525C19.2494 18.7566 19.25 18.3724 19.25 17.8V6.2C19.25 5.62757 19.2494 5.24336 19.2252 4.94748C19.2018 4.66036 19.1599 4.52307 19.1138 4.43251C18.9939 4.19731 18.8027 4.00608 18.5675 3.88624C18.4769 3.8401 18.3396 3.79822 18.0525 3.77476C17.7566 3.75058 17.3724 3.75 16.8 3.75H7.2C6.62757 3.75 6.24336 3.75058 5.94748 3.77476ZM7.25 6.5C7.25 6.08579 7.58579 5.75 8 5.75H16C16.4142 5.75 16.75 6.08579 16.75 6.5V9.5C16.75 9.91421 16.4142 10.25 16 10.25H8C7.58579 10.25 7.25 9.91421 7.25 9.5V6.5ZM8.75 7.25V8.75H15.25V7.25H8.75ZM7.25 13C7.25 12.5858 7.58579 12.25 8 12.25H16C16.4142 12.25 16.75 12.5858 16.75 13C16.75 13.4142 16.4142 13.75 16 13.75H8C7.58579 13.75 7.25 13.4142 7.25 13ZM7.25 17C7.25 16.5858 7.58579 16.25 8 16.25H16C16.4142 16.25 16.75 16.5858 16.75 17C16.75 17.4142 16.4142 17.75 16 17.75H8C7.58579 17.75 7.25 17.4142 7.25 17Z" fill="currentColor"/>
</svg>
