<svg width="24" height="24" viewBox="0 0 24 24"  xmlns="http://www.w3.org/2000/svg">
<path fill-rule="evenodd" clip-rule="evenodd" d="M3.25 16.8304L3.25 7.16956C3.24999 6.63541 3.24998 6.18956 3.27974 5.82533C3.31078 5.44544 3.37789 5.08879 3.54973 4.75152C3.81338 4.23408 4.23408 3.81339 4.75153 3.54973C5.08879 3.37789 5.44545 3.31078 5.82533 3.27974C6.18956 3.24998 6.6354 3.24999 7.16955 3.25H16.8305C17.3646 3.24999 17.8104 3.24998 18.1747 3.27974C18.5546 3.31078 18.9112 3.37789 19.2485 3.54973C19.7659 3.81338 20.1866 4.23408 20.4503 4.75152C20.6221 5.08879 20.6892 5.44544 20.7203 5.82533C20.75 6.18956 20.75 6.6354 20.75 7.16955V16.8305C20.75 17.3646 20.75 17.8104 20.7203 18.1747C20.6892 18.5546 20.6221 18.9112 20.4503 19.2485C20.1866 19.7659 19.7659 20.1866 19.2485 20.4503C18.9112 20.6221 18.5546 20.6892 18.1747 20.7203C17.8104 20.75 17.3646 20.75 16.8304 20.75H7.16957C6.63541 20.75 6.18956 20.75 5.82533 20.7203C5.44545 20.6892 5.08879 20.6221 4.75153 20.4503C4.23408 20.1866 3.81338 19.7659 3.54973 19.2485C3.37789 18.9112 3.31078 18.5546 3.27974 18.1747C3.24998 17.8104 3.24999 17.3646 3.25 16.8304ZM4.77476 18.0525C4.79822 18.3396 4.8401 18.4769 4.88624 18.5675C5.00608 18.8027 5.19731 18.9939 5.43251 19.1138C5.52307 19.1599 5.66036 19.2018 5.94748 19.2252C6.24336 19.2494 6.62757 19.25 7.2 19.25H16.8C17.3724 19.25 17.7566 19.2494 18.0525 19.2252C18.3396 19.2018 18.4769 19.1599 18.5675 19.1138C18.8027 18.9939 18.9939 18.8027 19.1138 18.5675C19.1599 18.4769 19.2018 18.3396 19.2252 18.0525C19.2494 17.7566 19.25 17.3724 19.25 16.8V7.2C19.25 6.62757 19.2494 6.24336 19.2252 5.94748C19.2018 5.66035 19.1599 5.52307 19.1138 5.43251C18.9939 5.19731 18.8027 5.00608 18.5675 4.88624C18.4769 4.8401 18.3396 4.79822 18.0525 4.77476C17.7566 4.75058 17.3724 4.75 16.8 4.75H7.2C6.62757 4.75 6.24336 4.75058 5.94748 4.77476C5.66036 4.79822 5.52307 4.8401 5.43251 4.88624C5.19731 5.00608 5.00608 5.19731 4.88624 5.43251C4.8401 5.52307 4.79822 5.66035 4.77476 5.94748C4.75058 6.24336 4.75 6.62757 4.75 7.2L4.75 16.8C4.75 17.3724 4.75058 17.7566 4.77476 18.0525Z" fill="currentColor"/>
<path fill-rule="evenodd" clip-rule="evenodd" d="M13.3929 10C13.3929 9.58579 13.7286 9.25 14.1429 9.25H17C17.4142 9.25 17.75 9.58579 17.75 10V12.6667C17.75 13.0809 17.4142 13.4167 17 13.4167C16.5858 13.4167 16.25 13.0809 16.25 12.6667V11.7259L13.226 14.5483C12.9379 14.8172 12.4907 14.8172 12.2025 14.5483L9.85715 12.3592L7.51174 14.5483C7.20893 14.8309 6.73434 14.8146 6.45171 14.5117C6.16909 14.2089 6.18545 13.7343 6.48826 13.4517L9.34541 10.785C9.63356 10.5161 10.0807 10.5161 10.3689 10.785L12.7143 12.9741L15.0972 10.75H14.1429C13.7286 10.75 13.3929 10.4142 13.3929 10Z" fill="currentColor"/>
</svg>
