<svg width="16" height="16" viewBox="0 0 16 16" fill="none" xmlns="http://www.w3.org/2000/svg">
<path fill-rule="evenodd" clip-rule="evenodd" d="M7.375 4.66602C7.375 4.32084 7.65483 4.04102 8 4.04102H8.00833C8.3535 4.04102 8.63333 4.32084 8.63333 4.66602C8.63333 5.01119 8.3535 5.29101 8.00833 5.29101H8C7.65483 5.29101 7.375 5.01119 7.375 4.66602ZM8 6.54101C8.34517 6.54101 8.625 6.82085 8.625 7.16601V11.3327C8.625 11.6778 8.34517 11.9577 8 11.9577C7.65483 11.9577 7.375 11.6778 7.375 11.3327V7.16601C7.375 6.82085 7.65483 6.54101 8 6.54101Z" fill="currentColor"/>
<path d="M3.97529 0.708985H12.026C12.4711 0.708977 12.8426 0.708969 13.1462 0.733769C13.4628 0.759635 13.76 0.81556 14.041 0.95876C14.4722 1.17847 14.8228 1.52905 15.0425 1.96026C15.1857 2.24131 15.2416 2.53852 15.2675 2.85509C15.2923 3.15862 15.2923 3.53015 15.2923 3.97527V12.026C15.2923 12.4711 15.2923 12.8426 15.2675 13.1462C15.2416 13.4628 15.1857 13.76 15.0425 14.041C14.8228 14.4722 14.4722 14.8228 14.041 15.0425C13.76 15.1857 13.4628 15.2416 13.1462 15.2675C12.8426 15.2923 12.4711 15.2923 12.026 15.2923H3.97527C3.53015 15.2923 3.15862 15.2923 2.85509 15.2675C2.53852 15.2416 2.24131 15.1857 1.96026 15.0425C1.52905 14.8228 1.17847 14.4722 0.95876 14.041C0.81556 13.76 0.759635 13.4628 0.733769 13.1462C0.708969 12.8426 0.708977 12.4711 0.708985 12.026V3.97529C0.708977 3.53016 0.708969 3.15862 0.733769 2.85509C0.759635 2.53852 0.81556 2.24131 0.95876 1.96026C1.17847 1.52905 1.52905 1.17847 1.96026 0.95876C2.24131 0.81556 2.53852 0.759635 2.85509 0.733769C3.15862 0.708969 3.53016 0.708977 3.97529 0.708985ZM2.95688 1.97962C2.71762 1.99917 2.60321 2.03407 2.52774 2.07252C2.33174 2.17238 2.17238 2.33174 2.07252 2.52774C2.03407 2.60321 1.99917 2.71762 1.97962 2.95688C1.95947 3.20345 1.95898 3.52362 1.95898 4.00065V12.0006C1.95898 12.4776 1.95947 12.7978 1.97962 13.0444C1.99917 13.2837 2.03407 13.398 2.07252 13.4735C2.17238 13.6695 2.33174 13.8289 2.52774 13.9288C2.60321 13.9672 2.71762 14.0021 2.95688 14.0216C3.20345 14.0418 3.52362 14.0423 4.00065 14.0423H12.0006C12.4776 14.0423 12.7978 14.0418 13.0444 14.0216C13.2837 14.0021 13.398 13.9672 13.4735 13.9288C13.6695 13.8289 13.8289 13.6695 13.9288 13.4735C13.9672 13.398 14.0021 13.2837 14.0216 13.0444C14.0418 12.7978 14.0423 12.4776 14.0423 12.0006V4.00065C14.0423 3.52362 14.0418 3.20345 14.0216 2.95688C14.0021 2.71762 13.9672 2.60321 13.9288 2.52774C13.8289 2.33174 13.6695 2.17238 13.4735 2.07252C13.398 2.03407 13.2837 1.99917 13.0444 1.97962C12.7978 1.95947 12.4776 1.95898 12.0006 1.95898H4.00065C3.52362 1.95898 3.20345 1.95947 2.95688 1.97962Z" fill="currentColor"/>
</svg>
