<svg width="16" height="16" viewBox="0 0 16 16" fill="none" xmlns="http://www.w3.org/2000/svg">
<path fill-rule="evenodd" clip-rule="evenodd" d="M7.37492 4.66659C7.37492 4.32141 7.65475 4.04159 7.99992 4.04159H8.00825C8.35342 4.04159 8.63325 4.32141 8.63325 4.66659C8.63325 5.01176 8.35342 5.29158 8.00825 5.29158H7.99992C7.65475 5.29158 7.37492 5.01176 7.37492 4.66659ZM7.99992 6.54158C8.34509 6.54158 8.62492 6.82142 8.62492 7.16658V11.3333C8.62492 11.6784 8.34509 11.9583 7.99992 11.9583C7.65475 11.9583 7.37492 11.6784 7.37492 11.3333V7.16658C7.37492 6.82142 7.65475 6.54158 7.99992 6.54158Z" fill="currentColor"/>
<path d="M3.97456 0.708252H12.0253C12.4704 0.708244 12.8419 0.708236 13.1455 0.733036C13.4621 0.758902 13.7593 0.814827 14.0403 0.958027C14.4715 1.17774 14.8221 1.52832 15.0418 1.95953C15.185 2.24058 15.2409 2.53779 15.2668 2.85436C15.2916 3.15789 15.2916 3.52942 15.2916 3.97454V12.0253C15.2916 12.4704 15.2916 12.8419 15.2668 13.1455C15.2409 13.4621 15.185 13.7593 15.0418 14.0403C14.8221 14.4715 14.4715 14.8221 14.0403 15.0418C13.7593 15.185 13.4621 15.2409 13.1455 15.2668C12.8419 15.2916 12.4704 15.2916 12.0253 15.2916H3.97454C3.52942 15.2916 3.15789 15.2916 2.85436 15.2668C2.53779 15.2409 2.24058 15.185 1.95953 15.0418C1.52832 14.8221 1.17774 14.4715 0.958027 14.0403C0.814827 13.7593 0.758902 13.4621 0.733036 13.1455C0.708236 12.8419 0.708244 12.4704 0.708252 12.0253V3.97456C0.708244 3.52943 0.708236 3.15789 0.733036 2.85436C0.758902 2.53779 0.814827 2.24058 0.958027 1.95953C1.17774 1.52832 1.52832 1.17774 1.95953 0.958027C2.24058 0.814827 2.53779 0.758902 2.85436 0.733036C3.15789 0.708236 3.52943 0.708244 3.97456 0.708252ZM2.95615 1.97889C2.71689 1.99844 2.60248 2.03334 2.52701 2.07179C2.33101 2.17165 2.17165 2.33101 2.07179 2.52701C2.03334 2.60248 1.99844 2.71689 1.97889 2.95615C1.95874 3.20272 1.95825 3.52289 1.95825 3.99992V11.9999C1.95825 12.4769 1.95874 12.7971 1.97889 13.0437C1.99844 13.283 2.03334 13.3973 2.07179 13.4728C2.17165 13.6688 2.33101 13.8282 2.52701 13.9281C2.60248 13.9665 2.71689 14.0014 2.95615 14.0209C3.20272 14.0411 3.52289 14.0416 3.99992 14.0416H11.9999C12.4769 14.0416 12.7971 14.0411 13.0437 14.0209C13.283 14.0014 13.3973 13.9665 13.4728 13.9281C13.6688 13.8282 13.8282 13.6688 13.9281 13.4728C13.9665 13.3973 14.0014 13.283 14.0209 13.0437C14.0411 12.7971 14.0416 12.4769 14.0416 11.9999V3.99992C14.0416 3.52289 14.0411 3.20272 14.0209 2.95615C14.0014 2.71689 13.9665 2.60248 13.9281 2.52701C13.8282 2.33101 13.6688 2.17165 13.4728 2.07179C13.3973 2.03334 13.283 1.99844 13.0437 1.97889C12.7971 1.95874 12.4769 1.95825 11.9999 1.95825H3.99992C3.52289 1.95825 3.20272 1.95874 2.95615 1.97889Z" fill="currentColor"/>
</svg>
