<svg width="24" height="24" viewBox="0 0 24 24"  xmlns="http://www.w3.org/2000/svg">
<path fill-rule="evenodd" clip-rule="evenodd" d="M15 3.75C13.1147 3.75 11.6459 4.30587 11.0379 4.93161C10.7493 5.22869 10.2744 5.23553 9.97736 4.94688C9.68028 4.65824 9.67344 4.18341 9.96209 3.88633C10.9748 2.84398 12.9271 2.25 15 2.25C16.4719 2.25 17.8415 2.54671 18.8709 3.06141C19.8555 3.55369 20.75 4.37252 20.75 5.5V14C20.75 14.7368 20.2533 15.2807 19.7316 15.6347C19.1908 16.0017 18.4696 16.2779 17.6691 16.4631C17.2655 16.5565 16.8627 16.3051 16.7693 15.9015C16.6759 15.498 16.9274 15.0951 17.3309 15.0017C18.0249 14.8412 18.5537 14.6213 18.8893 14.3935C19.244 14.1529 19.25 14.0035 19.25 14V11.9152C18.7635 12.1595 18.1854 12.3506 17.5606 12.4876C17.156 12.5763 16.7561 12.3202 16.6673 11.9156C16.5786 11.511 16.8347 11.1111 17.2393 11.0224C17.9605 10.8643 18.5142 10.6417 18.8674 10.4082C19.2425 10.1603 19.25 10.0038 19.25 10V7.7298C18.8002 8.00275 18.2748 8.22218 17.7084 8.38601C17.3105 8.5011 16.8946 8.27183 16.7795 7.87393C16.6644 7.47603 16.8937 7.06016 17.2916 6.94508C17.971 6.74856 18.491 6.47929 18.8253 6.19573C19.1603 5.9116 19.25 5.66964 19.25 5.5C19.25 5.24677 19.0252 4.8156 18.2001 4.40305C17.4199 4.01294 16.2895 3.75 15 3.75ZM5.79988 9.40305C4.97478 9.8156 4.75 10.2468 4.75 10.5C4.75 10.7532 4.97478 11.1844 5.79988 11.5969C6.58011 11.9871 7.71048 12.25 9 12.25C10.2895 12.25 11.4199 11.9871 12.2001 11.5969C13.0252 11.1844 13.25 10.7532 13.25 10.5C13.25 10.2468 13.0252 9.8156 12.2001 9.40305C11.4199 9.01294 10.2895 8.75 9 8.75C7.71048 8.75 6.58011 9.01294 5.79988 9.40305ZM13.25 12.7292C13.1264 12.8045 12.9994 12.8743 12.8709 12.9386C11.8415 13.4533 10.4719 13.75 9 13.75C7.5281 13.75 6.15847 13.4533 5.12906 12.9386C5.00057 12.8743 4.87363 12.8045 4.75 12.7292V14.5C4.75 14.7532 4.97478 15.1844 5.79988 15.5969C6.58011 15.9871 7.71048 16.25 9 16.25C10.2895 16.25 11.4199 15.9871 12.2001 15.5969C13.0252 15.1844 13.25 14.7532 13.25 14.5V12.7292ZM13.25 16.7292C13.1264 16.8045 12.9994 16.8743 12.8709 16.9386C11.8415 17.4533 10.4719 17.75 9 17.75C7.5281 17.75 6.15847 17.4533 5.12906 16.9386C5.00057 16.8743 4.87363 16.8045 4.75 16.7292V18.5C4.75 18.7532 4.97478 19.1844 5.79988 19.5969C6.58011 19.9871 7.71048 20.25 9 20.25C10.2895 20.25 11.4199 19.9871 12.2001 19.5969C13.0252 19.1844 13.25 18.7532 13.25 18.5V16.7292ZM14.75 18.5C14.75 19.6275 13.8555 20.4463 12.8709 20.9386C11.8415 21.4533 10.4719 21.75 9 21.75C7.5281 21.75 6.15847 21.4533 5.12906 20.9386C4.14451 20.4463 3.25 19.6275 3.25 18.5V10.5C3.25 9.37252 4.14451 8.55369 5.12906 8.06141C6.15847 7.54671 7.5281 7.25 9 7.25C10.4719 7.25 11.8415 7.54671 12.8709 8.06141C13.8555 8.55369 14.75 9.37252 14.75 10.5V18.5Z" fill="currentColor"/>
</svg>
