<svg width="24" height="24" viewBox="0 0 24 24"  xmlns="http://www.w3.org/2000/svg">
<path  d="M7.16957 3.25H16.8304C17.3646 3.24999 17.8104 3.24998 18.1747 3.27974C18.5546 3.31078 18.9112 3.37789 19.2485 3.54973C19.7659 3.81338 20.1866 4.23408 20.4503 4.75153C20.6221 5.08879 20.6892 5.44545 20.7203 5.82533C20.75 6.18956 20.75 6.6354 20.75 7.16955V16.8305C20.75 17.3646 20.75 17.8104 20.7203 18.1747C20.6892 18.5546 20.6221 18.9112 20.4503 19.2485C20.1866 19.7659 19.7659 20.1866 19.2485 20.4503C18.9112 20.6221 18.5546 20.6892 18.1747 20.7203C17.8104 20.75 17.3646 20.75 16.8305 20.75H7.16955C6.6354 20.75 6.18956 20.75 5.82533 20.7203C5.44545 20.6892 5.08879 20.6221 4.75153 20.4503C4.23408 20.1866 3.81338 19.7659 3.54973 19.2485C3.37789 18.9112 3.31078 18.5546 3.27974 18.1747C3.24998 17.8104 3.24999 17.3646 3.25 16.8304V7.16957C3.24999 6.63541 3.24998 6.18956 3.27974 5.82533C3.31078 5.44545 3.37789 5.08879 3.54973 4.75153C3.81338 4.23408 4.23408 3.81338 4.75153 3.54973C5.08879 3.37789 5.44545 3.31078 5.82533 3.27974C6.18956 3.24998 6.63541 3.24999 7.16957 3.25ZM5.94748 4.77476C5.66036 4.79822 5.52307 4.8401 5.43251 4.88624C5.19731 5.00608 5.00608 5.19731 4.88624 5.43251C4.8401 5.52307 4.79822 5.66036 4.77476 5.94748C4.75058 6.24336 4.75 6.62757 4.75 7.2V16.8C4.75 17.3724 4.75058 17.7566 4.77476 18.0525C4.79822 18.3397 4.8401 18.4769 4.88624 18.5675C5.00608 18.8027 5.19731 18.9939 5.43251 19.1138C5.52307 19.1599 5.66036 19.2018 5.94748 19.2252C6.24336 19.2494 6.62757 19.25 7.2 19.25H16.8C17.3724 19.25 17.7566 19.2494 18.0525 19.2252C18.3397 19.2018 18.4769 19.1599 18.5675 19.1138C18.8027 18.9939 18.9939 18.8027 19.1138 18.5675C19.1599 18.4769 19.2018 18.3397 19.2252 18.0525C19.2494 17.7566 19.25 17.3724 19.25 16.8V7.2C19.25 6.62757 19.2494 6.24336 19.2252 5.94748C19.2018 5.66036 19.1599 5.52307 19.1138 5.43251C18.9939 5.19731 18.8027 5.00608 18.5675 4.88624C18.4769 4.8401 18.3397 4.79822 18.0525 4.77476C17.7566 4.75058 17.3724 4.75 16.8 4.75H7.2C6.62757 4.75 6.24336 4.75058 5.94748 4.77476Z" fill="currentColor"/>
<path  d="M12.0001 6.75C12.4143 6.75 12.7501 7.08579 12.7501 7.5L12.7501 8.12882C13.252 8.13924 13.7822 8.17314 14.1806 8.27196C14.5827 8.37168 14.8277 8.77843 14.728 9.18046C14.6283 9.58249 14.2216 9.82757 13.8195 9.72785C13.4306 9.6314 12.7219 9.6211 12.0051 9.62588C11.9435 9.62629 11.901 9.62598 11.8667 9.62517C11.8371 9.62447 11.8025 9.62287 11.8023 9.62287L11.8017 9.62284C11.7947 9.62257 11.7706 9.62164 11.6219 9.62558C11.297 9.63593 11.0589 9.70886 10.9234 9.80219C10.8281 9.86785 10.7505 9.95867 10.7501 10.1887C10.7499 10.3123 10.7784 10.3772 10.8027 10.4151C10.8296 10.4571 10.8799 10.5093 10.9793 10.5627C11.1965 10.6794 11.5531 10.7499 12.0001 10.7499C12.5311 10.7499 13.1795 10.8065 13.7182 11.0838C14.0005 11.229 14.2686 11.4429 14.4629 11.7516C14.6584 12.0621 14.7501 12.4224 14.7501 12.8124C14.7501 13.5246 14.3717 14.0366 13.8688 14.3517C13.5369 14.5597 13.1458 14.6886 12.7501 14.7688V15.5C12.7501 15.9142 12.4143 16.25 12.0001 16.25C11.5859 16.25 11.2501 15.9142 11.2501 15.5V14.8485C10.8821 14.8412 10.4887 14.8168 9.90705 14.7441C9.49604 14.6927 9.20449 14.3179 9.25587 13.9069C9.30725 13.4959 9.68209 13.2043 10.0931 13.2557C10.8889 13.3552 11.2531 13.3532 11.8334 13.3502C11.929 13.3496 12.0305 13.3491 12.1407 13.349C12.5772 13.2942 12.8882 13.196 13.0723 13.0807C13.2247 12.9851 13.2501 12.9128 13.2501 12.8124C13.2501 12.6617 13.2167 12.5876 13.1935 12.5507C13.1691 12.5119 13.1247 12.4653 13.0319 12.4176C12.8207 12.3089 12.4691 12.2499 12.0001 12.2499C11.4471 12.2499 10.8027 12.1706 10.2696 11.8842C9.6842 11.5698 9.24866 11.0054 9.25008 10.1861C9.25133 9.46539 9.57001 8.91305 10.0724 8.56693C10.4331 8.31848 10.8537 8.19855 11.2501 8.15074L11.2501 7.5C11.2501 7.08579 11.5859 6.75 12.0001 6.75Z" fill="currentColor"/>
</svg>
