<svg xmlns="http://www.w3.org/2000/svg" fill="none" viewBox="0 0 52 72">
  <mask id="a" width="52" height="72" x="0" y="0" maskUnits="userSpaceOnUse" style="mask-type:luminance">
    <path fill="#fff" d="M.77.366h50.46v71.267H.77V.366Z"/>
  </mask>
  <g mask="url(#a)">
    <path stroke="#fff" stroke-linecap="round" stroke-linejoin="round" stroke-width="3.901" d="M49.73 11.911a.6.6 0 0 0-.152-.364l-8.726-9.486-.029-.026-.049-.045a.457.457 0 0 0-.048-.033c-.013-.006-.023-.016-.033-.023l-.02-.01c-.016-.009-.035-.016-.05-.022-.02-.007-.044-.016-.063-.02l-.049-.01a.487.487 0 0 0-.071-.006H11.592a.602.602 0 0 0-.439.192l-8.725 9.486s-.007.006-.007.01c0 0-.006.006-.01.006l-.019.03-.039.055c-.01.016-.016.032-.023.045a.403.403 0 0 0-.022.056c-.007.016-.01.035-.017.051-.003.02-.01.04-.013.059 0 .02-.003.036-.006.055v48.164a.6.6 0 0 0 .35.595l8.528 9.272a.595.595 0 0 0 .44.192h28.83a.745.745 0 0 0 .12-.014c.013 0 .026-.01.04-.013.03-.01.061-.02.087-.032a.024.024 0 0 0 .016-.007c.013-.006.023-.016.033-.022a.583.583 0 0 0 .049-.033.638.638 0 0 0 .048-.045c.01-.01.02-.017.03-.026l8.725-9.486.01-.01s.006-.003.006-.007l.02-.029.04-.055c.01-.016.015-.032.021-.046a.394.394 0 0 0 .023-.055c.007-.016.01-.036.016-.052.004-.02.01-.039.013-.058 0-.02.004-.036.007-.056V11.95s0-.026-.003-.039h.009Z" opacity=".48"/>
    <path fill="#040A14" d="M49.73 11.911a.6.6 0 0 0-.152-.364l-8.726-9.486-.029-.026-.049-.045a.457.457 0 0 0-.048-.033c-.013-.006-.023-.016-.033-.023l-.02-.01c-.016-.009-.035-.016-.05-.022-.02-.007-.044-.016-.063-.02l-.049-.01a.487.487 0 0 0-.071-.006H11.592a.602.602 0 0 0-.439.192l-8.725 9.486s-.007.006-.007.01c0 0-.006.006-.01.006l-.019.03-.039.055c-.01.016-.016.032-.023.045a.403.403 0 0 0-.022.056c-.007.016-.01.035-.017.051-.003.02-.01.04-.013.059 0 .02-.003.036-.006.055v48.164a.6.6 0 0 0 .35.595l8.528 9.272a.595.595 0 0 0 .44.192h28.83a.745.745 0 0 0 .12-.014c.013 0 .026-.01.04-.013.03-.01.061-.02.087-.032a.024.024 0 0 0 .016-.007c.013-.006.023-.016.033-.022a.583.583 0 0 0 .049-.033.638.638 0 0 0 .048-.045c.01-.01.02-.017.03-.026l8.725-9.486.01-.01s.006-.003.006-.007l.02-.029.04-.055c.01-.016.015-.032.021-.046a.394.394 0 0 0 .023-.055c.007-.016.01-.036.016-.052.004-.02.01-.039.013-.058 0-.02.004-.036.007-.056V11.95s0-.026-.003-.039h.009Z"/>
    <path fill="#00C96B" d="m40.544 68.511-2.81-5.331 6.047-6.879 4.493 3.807-7.73 8.403ZM3.465 58.814V13.241L7.6 16.745v38.477l-4.135 3.592Zm7.968-55.296 2.811 5.331-6.023 6.853-4.493-3.807 7.704-8.377h.001Zm36.854 8.393-4.483 3.817-6.07-6.905 2.81-5.328 7.743 8.416ZM8.797 17.76l4.547 3.852L8.796 33.38V17.76Zm4.813 6.485v23.513L9.063 36.003l4.547-11.758Zm.51-3.544-4.986-4.226 5.705-6.492 3.082 5.849-3.8 4.87v-.001Zm24.272 3.544 4.544 11.758-4.544 11.755V24.245Zm-.478-3.505-3.859-4.938 3.082-5.845 5.757 6.548-4.98 4.235Zm-4.744-5.825L27.4 9.593h8.576l-2.805 5.322Zm-1.38.351H20.212l5.786-5.334 5.79 5.334h.002Zm-12.985-.326-2.818-5.347h8.615l-5.797 5.347Zm-3.998 6.828 4.142-5.306h14.104l4.142 5.306v28.47l-4.14 5.303H18.948l-4.142-5.303v-28.47Zm17.034 34.969-5.84 5.338-5.839-5.338h11.68Zm-13.022.393 5.776 5.28h-8.497l2.721-5.28Zm14.371-.003 2.786 5.282h-8.57l5.784-5.282Zm.865-.923 3.826-4.9 4.987 4.224-5.73 6.52-3.083-5.844Zm4.603-5.813 4.548-11.764v15.62l-4.548-3.856Zm4.548-17.011-4.528-11.716 4.528-3.856V33.38ZM36.607 8.397h-21.25l-2.81-5.335H39.42l-2.812 5.335Zm-27.81 30.23 4.501 11.644-4.502 3.91V38.627Zm5.25 12.58 3.9 5-3.036 5.894-5.803-6.603 4.938-4.291Zm1.433 12.399h21.127l2.812 5.334H12.733l2.747-5.334Zm28.922-8.346V16.79l4.135-3.52v45.492l-4.135-3.501v-.001ZM3.76 60.144l4.444-3.862 6.12 6.963-2.77 5.37-7.794-8.471Z"/>
    <path fill="#fff" d="m40.544 68.511-2.809-5.331 6.047-6.879 4.492 3.807-7.73 8.403Z" opacity=".48"/>
    <path fill="#fff" d="M3.465 58.814V13.241L7.6 16.745v38.477l-4.135 3.592Z" opacity=".9"/>
    <path fill="#fff" d="m11.432 3.518 2.812 5.33-6.023 6.854-4.493-3.807 7.704-8.377Z" opacity=".6"/>
    <path fill="#fff" d="m48.287 11.91-4.483 3.818-6.069-6.905 2.81-5.328 7.742 8.416Z" opacity=".48"/>
    <path fill="#fff" d="m8.796 17.76 4.548 3.851-4.548 11.768V17.76Z" opacity=".6"/>
    <path fill="#fff" d="M13.61 24.245v23.513L9.063 36.003l4.547-11.758Zm.511-3.544-4.987-4.226 5.706-6.492 3.081 5.849-3.8 4.869Z" opacity=".9"/>
    <path fill="#fff" d="m38.392 24.245 4.544 11.758-4.544 11.755V24.245Z" opacity=".1"/>
    <path fill="#fff" d="m37.914 20.74-3.86-4.938 3.083-5.845 5.757 6.548-4.98 4.235Z" opacity=".3"/>
    <path fill="#fff" d="M33.17 14.915 27.4 9.593h8.576l-2.805 5.322h-.001Z" opacity=".5"/>
    <path fill="#fff" d="M31.79 15.266H20.212l5.786-5.335 5.79 5.335h.002Z" opacity=".4"/>
    <path fill="#fff" d="m18.805 14.941-2.818-5.348h8.615l-5.797 5.348Zm-3.998 6.827 4.141-5.306h14.105l4.142 5.306v28.47l-4.141 5.303H18.948l-4.141-5.303v-28.47Z" opacity=".6"/>
    <path fill="#fff" d="m31.841 56.737-5.84 5.338-5.839-5.338h11.68Z" opacity=".4"/>
    <path fill="#fff" d="m18.818 57.13 5.777 5.28h-8.498l2.721-5.28Z" opacity=".6"/>
    <path fill="#fff" d="m33.19 57.127 2.786 5.282h-8.569l5.783-5.282Z" opacity=".5"/>
    <path fill="#fff" d="m34.055 56.204 3.826-4.9 4.987 4.224-5.73 6.52-3.083-5.844Z" opacity=".3"/>
    <path fill="#fff" d="m38.658 50.39 4.548-11.763v15.62l-4.548-3.856Zm4.548-17.01-4.528-11.716 4.528-3.856V33.38Z" opacity=".4"/>
    <path fill="#fff" d="M36.607 8.397h-21.25l-2.81-5.335H39.42l-2.812 5.335h-.001Z" opacity=".8"/>
    <path fill="#fff" d="M8.796 38.627 13.3 50.27l-4.503 3.91V38.628l-.001-.001Z" opacity=".6"/>
    <path fill="#fff" d="m14.046 51.207 3.901 5-3.036 5.893-5.803-6.602 4.938-4.291Z" opacity=".9"/>
    <path fill="#fff" d="M15.48 63.606h21.127l2.812 5.334H12.733l2.747-5.334Z" opacity=".8"/>
    <path fill="#fff" d="M44.402 55.26V16.79l4.135-3.52v45.492l-4.135-3.501v-.001Z" opacity=".1"/>
    <path fill="#fff" d="m3.76 60.144 4.444-3.862 6.118 6.963-2.77 5.37-7.792-8.471Z" opacity=".6"/>
    <path fill="#00C96B" d="m40.544 68.511-2.81-5.331 6.047-6.879 4.493 3.807-7.73 8.403ZM3.465 58.814V13.241L7.6 16.745v38.477l-4.135 3.592Zm7.968-55.296 2.811 5.331-6.023 6.853-4.493-3.807 7.704-8.377h.001Zm36.854 8.393-4.483 3.817-6.07-6.905 2.81-5.328 7.743 8.416ZM8.797 17.76l4.547 3.852L8.796 33.38V17.76Zm4.813 6.485v23.513L9.063 36.003l4.547-11.758Zm.51-3.544-4.986-4.226 5.705-6.492 3.082 5.849-3.8 4.87v-.001Zm24.272 3.544 4.544 11.758-4.544 11.755V24.245Zm-.478-3.505-3.859-4.938 3.082-5.845 5.757 6.548-4.98 4.235Zm-4.744-5.825L27.4 9.593h8.576l-2.805 5.322Zm-1.38.351H20.212l5.786-5.334 5.79 5.334h.002Zm-12.985-.326-2.818-5.347h8.615l-5.797 5.347Zm13.036 41.797-5.84 5.338-5.839-5.338h11.68Zm-13.022.393 5.776 5.28h-8.497l2.721-5.28Zm14.371-.003 2.786 5.282h-8.57l5.784-5.282Zm.865-.923 3.826-4.9 4.987 4.224-5.73 6.52-3.083-5.844Zm4.603-5.813 4.548-11.764v15.62l-4.548-3.856Zm4.548-17.011-4.528-11.716 4.528-3.856V33.38ZM36.607 8.397h-21.25l-2.81-5.335H39.42l-2.812 5.335Zm-27.81 30.23 4.501 11.644-4.502 3.91V38.627Zm5.25 12.58 3.9 5-3.036 5.894-5.803-6.603 4.938-4.291Zm1.433 12.399h21.127l2.812 5.334H12.733l2.747-5.334Zm28.922-8.346V16.79l4.135-3.52v45.492l-4.135-3.501v-.001ZM3.76 60.144l4.444-3.862 6.12 6.963-2.77 5.37-7.794-8.471Z" opacity=".4" style="mix-blend-mode:overlay"/>
  </g>
</svg>
