<svg xmlns="http://www.w3.org/2000/svg" fill="none" viewBox="0 0 62 66">
  <mask id="a" width="62" height="66" x="0" y="0" maskUnits="userSpaceOnUse" style="mask-type:luminance">
    <path fill="#fff" d="M.802.359h60.397v65.28H.802V.36Z"/>
  </mask>
  <g mask="url(#a)">
    <path stroke="#fff" stroke-linecap="round" stroke-linejoin="round" stroke-width="3.901" d="M59.695 20.353c0-.016 0-.036-.006-.052 0-.023-.004-.042-.007-.065 0-.017-.01-.03-.013-.046a.555.555 0 0 0-.023-.068c0-.003 0-.01-.003-.013-.006-.01-.013-.02-.016-.03a.575.575 0 0 0-.072-.103.185.185 0 0 0-.022-.03L43.083 2.058a.613.613 0 0 0-.451-.198H19.369c-.023 0-.046.003-.072.006h-.013a.614.614 0 0 0-.37.192L2.653 19.738a.612.612 0 0 0-.267.316l-.029.052c0 .006 0 .01-.006.016a.23.23 0 0 0-.02.062c-.006.016-.01.032-.016.052a.353.353 0 0 0-.007.058c0 .02-.006.04-.006.059v25.304c0 .017 0 .036.006.052 0 .023.004.042.007.065 0 .017.01.03.013.046a.568.568 0 0 0 .023.068c0 .003 0 .01.003.013 0 .006.006.01.01.016.02.044.046.084.078.12l.016.02s0 .003.003.007l16.45 17.882s.01.007.012.01c.017.02.036.036.059.049.013.01.026.023.039.03l.062.035c.016.01.034.02.052.026.006 0 .01.006.013.006.02.007.04.013.061.017l.04.01c.04.007.08.011.12.012h23.26c.04 0 .08-.004.12-.013.013 0 .026-.006.039-.01l.061-.016c.007 0 .01-.006.013-.006.017-.007.033-.016.052-.026a.649.649 0 0 0 .062-.036l.04-.03.058-.048c.003-.003.01-.006.013-.01l16.26-17.678a.612.612 0 0 0 .267-.315.625.625 0 0 0 .084-.306V20.354l-.003-.001Z" opacity=".48"/>
    <path fill="#040A14" d="M59.695 20.353c0-.016 0-.036-.006-.052 0-.023-.004-.042-.007-.065 0-.017-.01-.03-.013-.046a.555.555 0 0 0-.023-.068c0-.003 0-.01-.003-.013-.006-.01-.013-.02-.016-.03a.575.575 0 0 0-.072-.103.185.185 0 0 0-.022-.03L43.083 2.058a.613.613 0 0 0-.451-.198H19.369c-.023 0-.046.003-.072.006h-.013a.614.614 0 0 0-.37.192L2.653 19.738a.612.612 0 0 0-.267.316l-.029.052c0 .006 0 .01-.006.016a.23.23 0 0 0-.02.062c-.006.016-.01.032-.016.052a.353.353 0 0 0-.007.058c0 .02-.006.04-.006.059v25.304c0 .017 0 .036.006.052 0 .023.004.042.007.065 0 .017.01.03.013.046a.568.568 0 0 0 .023.068c0 .003 0 .01.003.013 0 .006.006.01.01.016.02.044.046.084.078.12l.016.02s0 .003.003.007l16.45 17.882s.01.007.012.01c.017.02.036.036.059.049.013.01.026.023.039.03l.062.035c.016.01.034.02.052.026.006 0 .01.006.013.006.02.007.04.013.061.017l.04.01c.04.007.08.011.12.012h23.26c.04 0 .08-.004.12-.013.013 0 .026-.006.039-.01l.061-.016c.007 0 .01-.006.013-.006.017-.007.033-.016.052-.026a.649.649 0 0 0 .062-.036l.04-.03.058-.048c.003-.003.01-.006.013-.01l16.26-17.678a.612.612 0 0 0 .267-.315.625.625 0 0 0 .084-.306V20.354l-.003-.001Z"/>
    <path fill="#FF1467" d="m42.853 62.383-2.156-5.657L55.89 48.21 42.853 62.383ZM5.97 48.06l15.334 8.66-2.155 5.663L5.97 48.06ZM19.16 3.61l2.151 5.664-15.2 8.524L19.157 3.61Zm36.87 14.34L40.726 9.307l2.152-5.65L56.03 17.95v-.001Zm-4.097 14.18-8.413-4.09 8.413-3.786v7.876ZM27.17 45.885h7.657L31 54.548l-3.83-8.663Zm7.657-25.763H27.17l3.83-8.66 3.827 8.66Zm1.933.89 8.45-3.43-3.082 9.266-5.367-5.835Zm-16.89 5.836-3.082-9.265 8.448 3.43-5.367 5.835h.001ZM19.102 36.9l-8.02-3.895 8.02-3.898V36.9Zm6.134 8.094-8.448 3.43 3.081-9.265 5.367 5.835Zm16.892-5.835 3.082 9.265-8.45-3.43 5.368-5.835Zm.77-10.052 8.017 3.898-8.017 3.895v-7.793Zm.572-2.395 3.024-9.087 5.022 5.465-8.046 3.622Zm-6.697-7.035 3.4-8.92 5.052 5.49-8.452 3.43Zm-1.076-.631-3.914-8.855h7.288l-3.374 8.855Zm-9.375-.05-3.345-8.805h7.237l-3.892 8.806Zm-1.05.7-8.5-3.45 5.087-5.53 3.413 8.98Zm-9.769-2.071 3.03 9.11-8.059-3.638 5.03-5.472ZM18.46 28.05l-8.394 4.08v-7.866l8.394 3.786Zm-8.394 5.83 8.413 4.086-8.413 3.79V33.88Zm8.462 5.415-3.023 9.087-5.023-5.462 8.046-3.625Zm6.743 7.015-3.418 8.973-5.08-5.523 8.498-3.45Zm1.052.7 3.892 8.806h-7.247l3.355-8.806Zm9.352 0 3.358 8.806h-7.249l3.891-8.806Zm1.054-.7 8.498 3.45-5.08 5.523-3.418-8.973Zm9.766 2.072-3.017-9.07 7.99 3.663-4.973 5.407Zm-2.985-10.41 8.423-4.092v7.954l-8.423-3.862Zm9.655-14.274 5.3-2.386v23.52l-5.3-2.432V23.698Zm-.464-1.141-9.707-10.555 14.703 8.305-4.996 2.25ZM39.54 8.959h-6.453l8.586-5.598-2.133 5.598Zm-17.03 0L20.4 3.41l8.51 5.55h-6.4ZM9.29 22.56l-5.07-2.287 14.826-8.316L9.291 22.56Zm-.458 1.145V42.31L3.534 44.7V21.31l5.3 2.393Zm.465 19.749 9.707 10.552L4.3 45.703l4.998-2.25Zm13.198 13.595h6.414l-8.533 5.566 2.12-5.566Zm17.005 0 2.12 5.566-8.534-5.566H39.5Zm13.143-13.533 5.003 2.295-14.697 8.24 9.694-10.535ZM31 8.85l-8.835-5.76h17.668L31 8.85Zm0 48.305 8.833 5.763H22.165L31 57.156Zm4.402-35.802h-8.807l-6.26 6.81v9.682l6.26 6.807h8.807l6.264-6.807v-9.681l-6.264-6.811Z"/>
    <path fill="#fff" d="m42.853 62.383-2.156-5.657L55.89 48.21 42.853 62.383Z" opacity=".28"/>
    <path fill="#fff" d="m5.969 48.06 15.334 8.66-2.155 5.663L5.969 48.06ZM19.158 3.61l2.152 5.664-15.201 8.524L19.158 3.61Z" opacity=".8"/>
    <path fill="#fff" d="m56.028 17.95-15.3-8.643 2.151-5.65 13.15 14.294-.001-.001Z" opacity=".28"/>
    <path fill="#fff" d="m51.932 32.13-8.413-4.09 8.413-3.786v7.876Z" opacity=".1"/>
    <path fill="#fff" d="M27.17 45.885h7.657L31 54.548l-3.83-8.663Zm7.657-25.763H27.17l3.83-8.66 3.827 8.66Z" opacity=".72"/>
    <path fill="#fff" d="m36.76 21.013 8.45-3.43-3.082 9.265-5.367-5.835h-.001Zm-1.358 23.64h-8.807l-6.26-6.807v-9.681l6.26-6.81h8.823l6.248 6.81v9.68l-6.264 6.808Z" opacity=".6"/>
    <path fill="#fff" d="m19.87 26.848-3.082-9.265 8.448 3.43-5.367 5.835h.001ZM19.102 36.9l-8.02-3.895 8.02-3.898V36.9Zm6.134 8.094-8.448 3.43 3.081-9.265 5.367 5.835Z" opacity=".8"/>
    <path fill="#fff" d="m42.128 39.159 3.082 9.265-8.45-3.43 5.368-5.835Z" opacity=".6"/>
    <path fill="#fff" d="m42.898 29.107 8.017 3.898-8.017 3.895v-7.793Zm.572-2.395 3.024-9.087 5.022 5.465-8.046 3.622Z" opacity=".4"/>
    <path fill="#fff" d="m36.773 19.677 3.4-8.92 5.052 5.49-8.452 3.43Z" opacity=".28"/>
    <path fill="#fff" d="m35.697 19.046-3.914-8.855h7.288l-3.374 8.855Z" opacity=".6"/>
    <path fill="#fff" d="m26.322 18.997-3.345-8.806h7.237l-3.892 8.806Z" opacity=".4"/>
    <path fill="#fff" d="m25.272 19.696-8.5-3.45 5.087-5.53 3.413 8.98Z" opacity=".6"/>
    <path fill="#fff" d="m15.503 17.625 3.03 9.11-8.059-3.638 5.029-5.472Z" opacity=".28"/>
    <path fill="#fff" d="m18.459 28.05-8.394 4.08v-7.866l8.394 3.786Zm-8.394 5.83 8.413 4.086-8.413 3.79V33.88Z" opacity=".6"/>
    <path fill="#fff" d="m18.527 39.295-3.023 9.087-5.023-5.462 8.046-3.625Z" opacity=".28"/>
    <path fill="#fff" d="m25.27 46.31-3.418 8.973-5.08-5.523 8.498-3.45Z" opacity=".6"/>
    <path fill="#fff" d="m26.322 47.01 3.892 8.806h-7.247l3.355-8.806Z" opacity=".4"/>
    <path fill="#fff" d="m35.674 47.01 3.358 8.806h-7.249l3.891-8.806Z" opacity=".6"/>
    <path fill="#fff" d="m36.728 46.31 8.498 3.45-5.081 5.523-3.417-8.973Z" opacity=".28"/>
    <path fill="#fff" d="m46.494 48.382-3.017-9.07 7.99 3.663-4.973 5.407Z" opacity=".4"/>
    <path fill="#fff" d="m43.509 37.972 8.423-4.092v7.954l-8.423-3.862Z" opacity=".1"/>
    <path fill="#fff" d="m53.164 23.698 5.3-2.386v23.52l-5.3-2.432V23.698Z" opacity=".4"/>
    <path fill="#fff" d="m52.7 22.557-9.707-10.555 14.703 8.305-4.996 2.25Z" opacity=".28"/>
    <path fill="#fff" d="M39.54 8.959h-6.453l8.586-5.598-2.133 5.598Z" opacity=".4"/>
    <path fill="#fff" d="m22.509 8.96-2.11-5.55 8.51 5.55h-6.4Z" opacity=".6"/>
    <path fill="#fff" d="M9.291 22.56 4.22 20.272l14.827-8.316L9.291 22.56Z" opacity=".4"/>
    <path fill="#fff" d="M8.833 23.704V42.31L3.534 44.7V21.31l5.3 2.393Z" opacity=".8"/>
    <path fill="#fff" d="m9.298 43.453 9.707 10.552L4.3 45.703l4.998-2.25Z" opacity=".4"/>
    <path fill="#fff" d="M22.496 57.048h6.414l-8.533 5.566 2.119-5.566Z" opacity=".6"/>
    <path fill="#fff" d="m39.501 57.048 2.12 5.566-8.534-5.566h6.414Z" opacity=".4"/>
    <path fill="#fff" d="m52.644 43.515 5.003 2.295-14.697 8.24 9.694-10.535Z" opacity=".28"/>
    <path fill="#fff" d="m31 8.85-8.835-5.76h17.668L31 8.85Zm0 48.306 8.833 5.763H22.165L31 57.156Z" opacity=".8"/>
    <path fill="#FF1467" d="m42.853 62.383-2.156-5.657L55.89 48.21 42.853 62.383ZM5.97 48.06l15.334 8.66-2.155 5.663L5.97 48.06ZM19.16 3.61l2.151 5.664-15.2 8.524L19.157 3.61Zm36.87 14.34L40.726 9.307l2.152-5.65L56.03 17.95v-.001Zm-4.097 14.18-8.413-4.09 8.413-3.786v7.876ZM27.17 45.885h7.657L31 54.548l-3.83-8.663Zm7.657-25.763H27.17l3.83-8.66 3.827 8.66Zm1.933.89 8.45-3.43-3.082 9.266-5.367-5.835Zm-16.89 5.836-3.082-9.265 8.448 3.43-5.367 5.835h.001ZM19.102 36.9l-8.02-3.895 8.02-3.898V36.9Zm6.134 8.094-8.448 3.43 3.081-9.265 5.367 5.835Zm16.892-5.835 3.082 9.265-8.45-3.43 5.368-5.835Zm.77-10.052 8.017 3.898-8.017 3.895v-7.793Zm.572-2.395 3.024-9.087 5.022 5.465-8.046 3.622Zm-6.697-7.035 3.4-8.92 5.052 5.49-8.452 3.43Zm-1.076-.631-3.914-8.855h7.288l-3.374 8.855Zm-9.375-.05-3.345-8.805h7.237l-3.892 8.806Zm-1.05.7-8.5-3.45 5.087-5.53 3.413 8.98Zm-9.769-2.071 3.03 9.11-8.059-3.638 5.03-5.472ZM18.46 28.05l-8.394 4.08v-7.866l8.394 3.786Zm-8.394 5.83 8.413 4.086-8.413 3.79V33.88Zm8.462 5.415-3.023 9.087-5.023-5.462 8.046-3.625Zm6.743 7.015-3.418 8.973-5.08-5.523 8.498-3.45Zm1.052.7 3.892 8.806h-7.247l3.355-8.806Zm9.352 0 3.358 8.806h-7.249l3.891-8.806Zm1.054-.7 8.498 3.45-5.08 5.523-3.418-8.973Zm9.766 2.072-3.017-9.07 7.99 3.663-4.973 5.407Zm-2.985-10.41 8.423-4.092v7.954l-8.423-3.862Zm9.655-14.274 5.3-2.386v23.52l-5.3-2.432V23.698Zm-.464-1.141-9.707-10.555 14.703 8.305-4.996 2.25ZM39.54 8.959h-6.453l8.586-5.598-2.133 5.598Zm-17.03 0L20.4 3.41l8.51 5.55h-6.4ZM9.29 22.56l-5.07-2.287 14.826-8.316L9.291 22.56Zm-.458 1.145V42.31L3.534 44.7V21.31l5.3 2.393Zm.465 19.749 9.707 10.552L4.3 45.703l4.998-2.25Zm13.198 13.595h6.414l-8.533 5.566 2.12-5.566Zm17.005 0 2.12 5.566-8.534-5.566H39.5Zm13.143-13.533 5.003 2.295-14.697 8.24 9.694-10.535ZM31 8.85l-8.835-5.76h17.668L31 8.85Zm0 48.305 8.833 5.763H22.165L31 57.156Z" opacity=".4" style="mix-blend-mode:overlay"/>
  </g>
</svg>
