<svg xmlns="http://www.w3.org/2000/svg" fill="none" viewBox="0 0 54 74">
  <g clip-path="url(#a)">
    <path stroke="#fff" stroke-linecap="round" stroke-linejoin="round" stroke-width="3.901" d="M50.926 17.39 27.306 3.027l-.02-.01a.671.671 0 0 0-.11-.05l-.036-.01a.53.53 0 0 0-.293 0c-.013 0-.023.008-.036.01a.67.67 0 0 0-.11.05c-.007.003-.013.003-.02.01L3.064 17.39s-.013.013-.02.016a.375.375 0 0 0-.077.065c-.01.01-.023.02-.033.033-.006.006-.016.013-.023.023-.016.02-.026.042-.039.06l-.02.03a.638.638 0 0 0-.051.13c0 .007 0 .014-.003.023a.722.722 0 0 0-.017.117v38.228a.604.604 0 0 0 .072.266c.006.01.013.017.016.026a.414.414 0 0 0 .046.069l.02.02a.524.524 0 0 0 .041.038c.023.02.046.04.072.059a.085.085 0 0 0 .02.016l23.62 14.365.02.01c.035.02.07.036.11.049l.036.01a.529.529 0 0 0 .292 0c.013 0 .023-.007.036-.01a.668.668 0 0 0 .11-.05c.007-.002.014-.002.02-.01l23.62-14.364a.594.594 0 0 0 .287-.51v-38.2a.602.602 0 0 0-.286-.51h-.007v.002Z" opacity=".48"/>
    <path fill="#040A14" d="M50.926 17.39 27.306 3.027l-.02-.01a.671.671 0 0 0-.11-.05l-.036-.01a.53.53 0 0 0-.293 0c-.013 0-.023.008-.036.01a.67.67 0 0 0-.11.05c-.007.003-.013.003-.02.01L3.064 17.39s-.013.013-.02.016a.375.375 0 0 0-.077.065c-.01.01-.023.02-.033.033-.006.006-.016.013-.023.023-.016.02-.026.042-.039.06l-.02.03a.638.638 0 0 0-.051.13c0 .007 0 .014-.003.023a.722.722 0 0 0-.017.117v38.228a.604.604 0 0 0 .072.266c.006.01.013.017.016.026a.414.414 0 0 0 .046.069l.02.02a.524.524 0 0 0 .041.038c.023.02.046.04.072.059a.085.085 0 0 0 .02.016l23.62 14.365.02.01c.035.02.07.036.11.049l.036.01a.529.529 0 0 0 .292 0c.013 0 .023-.007.036-.01a.668.668 0 0 0 .11-.05c.007-.002.014-.002.02-.01l23.62-14.364a.594.594 0 0 0 .287-.51v-38.2a.602.602 0 0 0-.286-.51h-.007v.002Z"/>
    <path fill="#00A2FF" d="M50.02 34.724 44.557 23.66l5.461-4.337v15.402h.002ZM37.579 27.68l-9.984-6.073v-7.262l15.159 9.22-5.175 4.115ZM26.997 51.35l-10.029-6.1V28.743l10.029-6.099 10.029 6.1V45.25l-10.029 6.1Zm-.598-29.743-9.98 6.07-5.127-4.142 15.107-9.19v7.262ZM15.772 28.69v16.45l-4.918 4.038v-24.46l4.918 3.972Zm.536 17.56 10.09 6.136v7.262l-15.17-9.229 5.08-4.17Zm11.287 6.136 9.977-6.07 5.071 4.178-15.048 9.154v-7.262Zm10.627-7.083V28.694l4.915-3.907V49.35l-4.915-4.047Zm-9.466-31.65 10.003-1.8 3.969 10.297-13.972-8.497Zm-17.49 8.497 3.97-10.298 10.002 1.8-13.972 8.498ZM9.657 48.08 4.19 36.996l5.468-11.082V48.08h-.001Zm15.581 12.26-10.002 1.802-3.97-10.299 13.972 8.497Zm17.49-8.497-3.97 10.3-10.002-1.802 13.972-8.498Zm1.609-3.764V25.915l5.468 11.082-5.468 11.082Zm-.205-25.61-3.93-10.2 9.499 5.775-5.569 4.425Zm-16.537-9.824V4.6l10.208 6.21-10.208 1.836Zm-1.196 0L16.19 10.808 26.4 4.6v8.046h-.001ZM9.888 22.397l-5.475-4.424 9.38-5.705-3.905 10.13Zm-.419 1.2L3.975 34.725V19.156l5.494 4.441ZM9.44 50.338l-5.465 4.486V39.27l5.464 11.07.001-.002Zm.425 1.2 3.927 10.188-9.385-5.709 5.458-4.479Zm16.534 9.811v8.042L16.19 63.185 26.4 61.35h-.001Zm1.196 0 10.208 1.836-10.208 6.206V61.35Zm16.482-9.679 5.377 4.428-9.252 5.628 3.875-10.055Zm.416-1.205 5.526-11.196v15.744l-5.526-4.548Z"/>
    <path fill="#fff" d="M50.02 34.724 44.557 23.66l5.461-4.337v15.402l.002-.001Z" opacity=".1"/>
    <path fill="#fff" d="m37.579 27.68-9.984-6.073v-7.262l15.159 9.22-5.175 4.115Z" opacity=".4"/>
    <path fill="#fff" d="m26.997 51.349-10.029-6.098V28.743l10.029-6.099 10.029 6.099V45.25l-10.029 6.099Zm-.598-29.742-9.98 6.07-5.127-4.142 15.107-9.19v7.262Z" opacity=".6"/>
    <path fill="#fff" d="M15.772 28.69v16.45l-4.918 4.038v-24.46l4.918 3.972Z" opacity=".8"/>
    <path fill="#fff" d="m16.308 46.249 10.09 6.137v7.262l-15.17-9.229 5.08-4.17Z" opacity=".6"/>
    <path fill="#fff" d="m27.595 52.386 9.977-6.07 5.071 4.178-15.048 9.154v-7.262Z" opacity=".4"/>
    <path fill="#fff" d="M38.222 45.303V28.694l4.915-3.907V49.35l-4.915-4.047Z" opacity=".1"/>
    <path fill="#fff" d="m28.756 13.653 10.003-1.8 3.969 10.297-13.972-8.497Z" opacity=".6"/>
    <path fill="#fff" d="m11.266 22.15 3.97-10.298 10.002 1.8-13.972 8.498Z" opacity=".8"/>
    <path fill="#fff" d="M9.657 48.079 4.19 36.997l5.468-11.082v22.164h-.001Z" opacity=".6"/>
    <path fill="#fff" d="m25.238 60.34-10.002 1.802-3.97-10.299 13.972 8.497Z" opacity=".8"/>
    <path fill="#fff" d="m42.728 51.843-3.97 10.299-10.002-1.801 13.972-8.498Zm1.609-3.764V25.915l5.468 11.082-5.468 11.082Z" opacity=".6"/>
    <path fill="#fff" d="m44.132 22.47-3.93-10.202 9.499 5.776-5.569 4.425Zm-16.537-9.825V4.6l10.208 6.21-10.208 1.836Z" opacity=".4"/>
    <path fill="#fff" d="M26.399 12.645 16.19 10.808 26.4 4.6v8.046h-.001ZM9.888 22.397l-5.475-4.424 9.38-5.705-3.905 10.13Z" opacity=".6"/>
    <path fill="#fff" d="M9.469 23.597 3.975 34.725V19.156l5.494 4.441ZM9.44 50.338l-5.465 4.486V39.27l5.464 11.07.001-.002Z" opacity=".8"/>
    <path fill="#fff" d="m9.865 51.538 3.927 10.188-9.385-5.709 5.458-4.479Zm16.534 9.811v8.042L16.19 63.185 26.4 61.35h-.001Z" opacity=".6"/>
    <path fill="#fff" d="m27.595 61.349 10.208 1.836-10.208 6.206v-8.042Zm16.482-9.68 5.377 4.429-9.252 5.628 3.875-10.055v-.001Z" opacity=".4"/>
    <path fill="#fff" d="m44.493 50.465 5.526-11.196v15.744l-5.526-4.548Z" opacity=".1"/>
    <path fill="#00A2FF" d="M50.02 34.724 44.557 23.66l5.461-4.337v15.402h.002ZM37.579 27.68l-9.984-6.073v-7.262l15.159 9.22-5.175 4.115Zm-11.18-6.073-9.98 6.07-5.127-4.142 15.107-9.19v7.262ZM15.772 28.69v16.45l-4.918 4.038v-24.46l4.918 3.972Zm.536 17.56 10.09 6.136v7.262l-15.17-9.229 5.08-4.17Zm11.287 6.136 9.977-6.07 5.071 4.178-15.048 9.154v-7.262Zm10.627-7.083V28.694l4.915-3.907V49.35l-4.915-4.047Zm-9.466-31.65 10.003-1.8 3.969 10.297-13.972-8.497Zm-17.49 8.497 3.97-10.298 10.002 1.8-13.972 8.498ZM9.657 48.08 4.19 36.996l5.468-11.082V48.08h-.001Zm15.581 12.26-10.002 1.802-3.97-10.299 13.972 8.497Zm17.49-8.497-3.97 10.3-10.002-1.802 13.972-8.498Zm1.609-3.764V25.915l5.468 11.082-5.468 11.082Zm-.205-25.61-3.93-10.2 9.499 5.775-5.569 4.425Zm-16.537-9.824V4.6l10.208 6.21-10.208 1.836Zm-1.196 0L16.19 10.808 26.4 4.6v8.046h-.001ZM9.888 22.397l-5.475-4.424 9.38-5.705-3.905 10.13Zm-.419 1.2L3.975 34.725V19.156l5.494 4.441ZM9.44 50.338l-5.465 4.486V39.27l5.464 11.07.001-.002Zm.425 1.2 3.927 10.188-9.385-5.709 5.458-4.479Zm16.534 9.811v8.042L16.19 63.185 26.4 61.35h-.001Zm1.196 0 10.208 1.836-10.208 6.206V61.35Zm16.482-9.679 5.377 4.428-9.252 5.628 3.875-10.055Zm.416-1.205 5.526-11.196v15.744l-5.526-4.548Z" opacity=".4" style="mix-blend-mode:overlay"/>
  </g>
  <defs>
    <clipPath id="a">
      <path fill="#fff" d="M0 0h54v74H0z"/>
    </clipPath>
  </defs>
</svg>
