<svg xmlns="http://www.w3.org/2000/svg" viewBox="0 0 952 1080"><style>.st10{opacity:.45}.st11{fill:#e6ad22}.st16{opacity:.2}.st19,.st20,.st21{stroke:#000;stroke-miterlimit:10}.st20{opacity:.3;enable-background:new}.st21{fill:none;stroke-width:10.6772;stroke-linecap:round}.st22{opacity:.1;stroke:#000;enable-background:new;stroke-miterlimit:10}.st25{fill:#948fc4}.st26{opacity:.3;fill:#635ea8;enable-background:new}.st27{fill:none;stroke:#5f6062;stroke-width:10.6772;stroke-linecap:round;stroke-miterlimit:10}.st28{fill:#9590c5}.st29{fill:#635da8}.st30{fill:#e7e5ea}.st31{opacity:.1;fill:#635da8;enable-background:new}.st32{fill:#60b491}.st34{fill:#3c6158}.st35,.st36{opacity:.75;fill:#324e48;enable-background:new}.st36{opacity:.25;fill:#bab1cb}</style><path fill="#fff" stroke="#fff" stroke-miterlimit="10" stroke-width="46.341" d="M620.39 165.474c-57.018 0-108.08 25.531-142.404 65.812-20.992-25.152-52.48-41.133-87.75-41.133-63.165 0-114.32 51.156-114.32 114.32 0 1.04.095 2.08.095 3.12-6.052-1.04-12.293-1.513-18.628-1.513-62.314 0-112.807 50.494-112.807 112.807 0 0 225.52 3.12 225.426 3.12h76.781c27.611 68.838 94.841 117.441 173.514 117.441 103.257 0 186.941-83.684 186.941-186.941S723.647 165.474 620.39 165.474z"/><path fill="#fff" stroke="#fff" stroke-miterlimit="10" stroke-width="33.983" d="M849.882 491.32c86.615 197.626 3.971 430.711-191.29 528.484-201.503 100.799-446.691 19.195-547.49-182.402-56.262-112.335-55.789-238.286-9.361-345.231"/><path fill="#fff" d="M899.146 438.368c0-31.393-33.19-57.113-73.755-57.113H126.609c-40.565 0-73.755 25.72-73.755 57.113s33.19 57.113 73.755 57.113h698.877c40.47.094 73.66-25.625 73.66-57.113z"/><path fill="none" stroke="#fff" stroke-miterlimit="10" stroke-width="33.983" d="M899.146 438.368c0-31.393-33.19-57.113-73.755-57.113H126.609c-40.565 0-73.755 25.72-73.755 57.113s33.19 57.113 73.755 57.113h698.877c40.47.094 73.66-25.625 73.66-57.113z"/><path fill="#e6ad22" stroke="#e6ad22" stroke-miterlimit="10" stroke-width="12.358" d="M620.39 165.474c-57.018 0-108.08 25.531-142.404 65.812-20.992-25.152-52.48-41.133-87.75-41.133-63.165 0-114.32 51.156-114.32 114.32 0 1.04.095 2.08.095 3.12-6.052-1.04-12.293-1.513-18.628-1.513-62.314 0-112.807 50.494-112.807 112.807 0 0 225.52 3.12 225.426 3.12h76.781c27.611 68.838 94.841 117.441 173.514 117.441 103.257 0 186.941-83.684 186.941-186.941S723.647 165.474 620.39 165.474z"/><path fill="#f0c618" d="M620.39 165.474c-57.018 0-108.08 25.531-142.404 65.812-20.992-25.152-52.48-41.133-87.75-41.133-63.165 0-114.32 51.156-114.32 114.32 0 1.04.095 2.08.095 3.12-6.052-1.04-12.293-1.513-18.628-1.513-62.314 0-112.807 50.494-112.807 112.807 0 0 225.52 3.12 225.426 3.12h76.781c27.611 68.838 94.841 117.441 173.514 117.441 103.257 0 186.941-83.684 186.941-186.941S723.647 165.474 620.39 165.474z"/><g class="st10"><path d="M498.032 241.971c5.012-5.957 10.401-11.725 16.264-16.926.756-.662 1.418-1.324 2.175-1.986l2.269-1.891c1.513-1.229 3.026-2.553 4.633-3.688l4.728-3.499c1.607-1.135 3.31-2.175 4.917-3.31.851-.567 1.607-1.135 2.458-1.607l2.553-1.513c1.702-.946 3.404-1.986 5.201-2.931 3.499-1.797 6.997-3.688 10.685-5.295 7.186-3.404 14.751-5.957 22.505-8.132l5.768-1.513c1.986-.473 3.877-.851 5.863-1.229l2.931-.567c.946-.189 1.986-.284 2.931-.473l5.957-.851 5.957-.567 3.026-.284 3.026-.095 6.052-.189 6.052.095a66.4 66.4 0 0 1 6.052.284c1.986.189 3.971.189 5.957.473l5.957.662 5.957.946c1.986.284 3.971.756 5.957 1.135 1.986.378 3.971.756 5.863 1.324 1.986.473 3.877.946 5.863 1.513l5.768 1.797c7.659 2.553 15.129 5.579 22.316 9.172 7.186 3.688 14.089 7.754 20.708 12.387 6.619 4.633 12.765 9.739 18.628 15.224 1.418 1.418 2.931 2.742 4.255 4.161l4.161 4.35 3.971 4.539c1.324 1.513 2.553 3.12 3.782 4.633 4.917 6.241 9.456 12.954 13.238 19.857 3.877 6.903 7.375 14.089 10.118 21.559.378.946.662 1.891 1.04 2.837l.946 2.837.946 2.837.851 2.837c.567 1.891 1.135 3.782 1.607 5.673l1.324 5.768c.378 1.891.756 3.877 1.04 5.768.378 1.891.662 3.877.851 5.863.567 3.877.756 7.754 1.04 11.725-.851-3.782-1.607-7.659-2.648-11.347-.851-3.782-2.08-7.47-3.215-11.158-2.458-7.281-5.295-14.467-8.699-21.37l-2.553-5.106-2.742-5.012c-.851-1.702-1.891-3.31-2.931-4.917l-1.513-2.458c-.473-.851-1.04-1.607-1.607-2.364-1.04-1.607-2.08-3.215-3.215-4.728l-3.404-4.633c-2.364-3.026-4.633-5.957-7.186-8.794-19.857-22.883-45.766-40.282-74.512-49.643-7.092-2.458-14.467-4.161-21.843-5.579-7.375-1.513-14.94-2.175-22.41-2.553l-5.674-.189-5.673.095h-2.837l-2.837.189-5.673.378-5.673.662-2.837.284-2.837.473c-1.891.284-3.782.567-5.579.946l-5.579 1.229c-29.598 5.953-57.492 20.799-80.47 41.885z" class="st11"/></g><g class="st10"><path d="M313.55 258.046c4.35-9.645 10.78-18.628 18.722-26.003 7.848-7.565 17.399-13.427 27.611-17.493 5.201-1.891 10.496-3.688 15.98-4.539l2.08-.378c.662-.095 1.418-.189 2.08-.284l4.161-.473c1.418-.095 2.742-.189 4.161-.284 1.418-.095 2.742-.189 4.161-.095 11.158-.095 22.316 2.08 32.812 6.052 20.992 7.943 38.485 24.112 48.414 43.969 4.917 9.929 7.848 20.708 8.794 31.582.851 10.874-.284 21.748-3.688 31.866 1.04-10.59.662-21.086-1.607-31.109-2.175-10.023-5.863-19.573-10.969-28.273-10.307-17.304-26.287-30.826-44.82-37.918-4.633-1.797-9.361-3.215-14.278-4.161-1.229-.189-2.459-.473-3.688-.662l-3.688-.473-3.688-.378c-1.229-.095-2.458-.095-3.688-.189-9.929-.378-19.952 1.04-29.597 3.971-19.385 5.581-36.689 18.157-49.265 35.272z" class="st11"/></g><g class="st10"><path d="M225.895 328.397c3.688-2.458 7.754-4.161 11.914-5.579 4.255-1.324 8.605-2.175 13.144-2.459 8.888-.567 18.155.567 26.665 3.688 4.255 1.513 8.321 3.593 12.198 5.863l2.837 1.891c.473.284.946.662 1.418.946l1.324 1.04 2.648 2.08 2.459 2.269c.378.378.851.756 1.229 1.135l1.135 1.229c.756.851 1.513 1.607 2.269 2.459.662.851 1.324 1.797 1.986 2.648l.946 1.324.946 1.418 1.702 2.837c.473.946 1.04 1.986 1.513 2.931l.756 1.513.567 1.513 1.135 3.12c-.851-.756-1.607-1.418-2.458-2.175l-1.135-1.135-1.229-1.04c-.851-.662-1.607-1.418-2.364-2.08l-2.458-1.986-1.135-1.04-1.229-.946-2.458-1.891c-1.702-1.135-3.31-2.364-5.012-3.404-3.31-2.269-6.808-4.161-10.307-5.957-.946-.378-1.797-.851-2.648-1.229l-1.324-.662-1.324-.567-2.742-1.135-2.742-1.04c-7.376-2.742-15.129-4.444-23.072-5.39-8.229-.756-16.361-.662-25.154-.189z" class="st11"/></g><g fill="#f8f9e7"><path d="m540.867 261.545-10.969 6.051-6.052 10.969-5.957-10.969-11.063-6.051 11.063-5.957 5.957-10.969 6.052 10.969z"/><path d="m369.433 323.48-10.968 6.052-5.958 10.969-6.051-10.969-10.969-6.052 10.969-6.052 6.051-10.968 5.958 10.968z" opacity=".8"/><path d="m747.948 342.013-11.063 6.052-5.957 10.969-6.052-10.969-10.969-6.052 10.969-5.957 6.052-11.063 5.957 11.063z" opacity=".95"/></g><g class="st16"><path d="M104.484 311.734c.868 3.488 5.076 26.402-33.502 28.484-2.842.153-5.44-1.627-6.292-4.343L9.063 158.569a6.208 6.208 0 0 1 3.506-7.576l19.322-8.17a6.209 6.209 0 0 1 8.203 3.465l64.152 164.701c.096.245.174.489.238.745z" class="st19"/><path d="M104.484 311.734c.868 3.488 5.076 26.402-33.502 28.484-2.842.153-5.44-1.627-6.292-4.343L9.063 158.569a6.208 6.208 0 0 1 3.506-7.576l19.322-8.17a6.209 6.209 0 0 1 8.203 3.465l64.152 164.701c.096.245.174.489.238.745z" class="st20"/><path d="M90.443 326.543c21.982-31.816 78.026-55.514 168.151-59.688 90.125-4.174 115.638-60.306 115.638-60.306L313.669 15.872s-25.514 56.132-115.638 60.306c-77.609 3.595-129.946 21.666-157.022 46.933-7.178 6.699-9.79 16.969-6.817 26.327l56.251 177.105z" class="st19"/><path d="M142.031 274.939c29.369-14.319 61.558-20.623 92.815-29.333 26.298-7.328 58.133-16.588 72.417-42.118 6.738-12.042 9.845-26.467 12.159-39.944 2.683-15.623 3.25-31.522 2.596-47.34-1.336-32.353 1.145-66.397-8.427-97.69a6.718 6.718 0 0 0-.574-1.349c.442-.83.652-1.291.652-1.291l60.563 190.677s-25.514 56.132-115.638 60.306-146.169 27.871-168.151 59.688l-1.835-5.778c12.406-20.16 31.867-35.318 53.423-45.828z" class="st20"/><path d="m314.966 8 214.463 660.052" class="st21"/><path d="M175.557 209.917a79.97 79.97 0 0 1-2.645-.117l-.003.022c.891.047 1.774.078 2.648.095zm53.215-18.214-.027-.029c-.337.299-1.006.874-1.988 1.643a51.813 51.813 0 0 0 2.015-1.614z" class="st19"/><path d="M129.664 189.042c6.066 18.669 19.891 32.649 36.745 39.529.175-7.781 3.501-15.97 5.525-20.262-.513-1.447-1.129-3.915-1.001-7.185 1.105 1.909 5.673 1.916 9.425 1.563 5.472-.515 12.454-2.088 19.66-4.43 7.206-2.341 13.779-5.173 18.509-7.972 3.243-1.919 6.934-4.61 6.706-6.804 2.026 2.57 2.978 4.929 3.414 6.401 4.16 2.282 11.664 6.953 16.379 13.145 9.591-15.473 12.559-34.909 6.493-53.578-10.933-33.649-47.075-52.065-80.725-41.131s-52.063 47.074-41.13 80.724zm7.72-15.14c-2.193-6.748 1.441-13.99 8.127-16.285 1.196-15.955 12.498-30.676 29.537-36.212s34.835-.27 45.181 11.935c6.758-2.073 13.954 1.65 16.147 8.398 2.099 6.459-1.14 13.37-7.284 15.963-.052 8.644-3.1 17.053-8.46 23.992 2.27.17 3.657.719 3.944 1.604.9 2.769-8.829 9.207-24.746 14.379s-27.572 5.681-28.472 2.913c-.287-.884.511-2.144 2.248-3.616-8.414-2.463-15.823-7.474-20.946-14.437-6.495 1.512-13.177-2.175-15.276-8.634z" class="st19"/><path d="M227.263 145.95a37.254 37.254 0 0 1 1.829 11.751c6.144-2.593 9.383-9.504 7.284-15.963-2.193-6.748-9.389-10.471-16.147-8.398a37.24 37.24 0 0 1 7.034 12.61zm2.278 1.591a2.38 2.38 0 1 1 4.525-1.47 2.38 2.38 0 0 1-4.525 1.47zm-2.106-6.481a2.38 2.38 0 1 1 4.525-1.47 2.38 2.38 0 0 1-4.525 1.47z" class="st19"/><circle cx="229.695" cy="140.326" r="2.38" class="st19"/><circle cx="231.802" cy="146.8" r="2.379" class="st19"/><path d="M234.916 199.186a101.439 101.439 0 0 1 5.413 10.448 63.426 63.426 0 0 0 2.21-2.89c-.137-.21-.278-.42-.424-.632-1.851-2.675-4.416-4.979-7.199-6.926zm-62.981 9.123c-2.024 4.292-5.35 12.481-5.525 20.262 1.38.563 2.78 1.078 4.198 1.545a30.73 30.73 0 0 1-.028-.761c-.075-3.251.646-6.623 1.753-9.834.314 3.358.85 7.358 1.762 11.634l.057.015c2.187-4.976 4.622-12.72 3.726-21.239a81.92 81.92 0 0 1-4.969-.108l.003-.022-.343-.02c0-.001-.294-.512-.634-1.472z" class="st19"/><path d="M170.579 229.355c.006.258.016.51.028.761 1.151.379 2.314.725 3.487 1.039a101.344 101.344 0 0 1-1.762-11.634c-1.107 3.21-1.828 6.583-1.753 9.834zm28.868-32.857c-8.788 2.855-17.776 2.835-25.841.474-1.737 1.472-2.535 2.731-2.248 3.616.9 2.769 12.555 2.259 28.472-2.913s25.646-11.61 24.746-14.379c-.287-.884-1.674-1.434-3.944-1.604-5.137 6.651-12.397 11.951-21.185 14.806zm38.047 11.429c.976.66 1.917 1.244 2.795 1.756l.041-.05a101.148 101.148 0 0 0-5.413-10.448c2.782 1.947 5.348 4.252 7.198 6.926.147.212.287.422.424.632a64.313 64.313 0 0 0 2.488-3.717c-4.715-6.192-12.219-10.862-16.379-13.145.289.976.352 1.563.352 1.563s-.086.08-.255.23l.027.029c-.463.392-1.138.944-2.014 1.614a67.1 67.1 0 0 1-1.939 1.426c3.615 6.224 8.803 10.567 12.675 13.184zm-53.341 1.706c.877 9.079-1.416 17.241-3.742 22.874 9.726 1.574 19.962.92 29.977-2.335 10.013-3.253 18.677-8.739 25.62-15.727-5.187-3.187-11.833-8.435-16.46-16.282-7.848 4.668-20.02 10.144-35.395 11.47z" class="st19"/><path d="M177.877 209.931c.896 8.519-1.539 16.263-3.726 21.239 2.058.548 4.147.996 6.26 1.338 2.326-5.633 4.619-13.796 3.742-22.874 15.375-1.326 27.547-6.802 35.396-11.47 4.627 7.847 11.273 13.096 16.46 16.282a64.17 64.17 0 0 0 4.279-4.762 49.935 49.935 0 0 1-2.795-1.756c-3.871-2.617-9.06-6.96-12.676-13.184a67.1 67.1 0 0 0 1.939-1.426 43.172 43.172 0 0 0 1.988-1.643c.169-.15.255-.23.255-.23s-.063-.587-.352-1.563c-.436-1.472-1.387-3.831-3.414-6.401.228 2.194-3.464 4.885-6.706 6.804-4.73 2.8-11.303 5.631-18.509 7.972-7.206 2.341-14.188 3.914-19.66 4.43-3.752.353-8.32.346-9.425-1.563-.129 3.27.488 5.738 1.001 7.185.34.96.634 1.472.634 1.472l.343.02a82.8 82.8 0 0 0 2.645.117c.781.015 1.555.019 2.321.013zm-40.493-36.029c2.099 6.459 8.781 10.146 15.276 8.633a37.221 37.221 0 0 1-5.428-10.582 37.23 37.23 0 0 1-1.721-14.336c-6.686 2.295-10.319 9.537-8.127 16.285zm6.835-5.803a2.38 2.38 0 1 1-4.525 1.47 2.38 2.38 0 0 1 4.525-1.47zm-2.421 7.951a2.38 2.38 0 1 1 4.525-1.47 2.38 2.38 0 0 1-4.525 1.47z" class="st19"/><circle cx="144.064" cy="175.315" r="2.38" class="st19"/><circle cx="141.949" cy="168.832" r="2.38" class="st19"/><path d="M147.232 171.953a37.21 37.21 0 0 0 5.428 10.582c5.123 6.963 12.532 11.974 20.946 14.437 8.065 2.361 17.054 2.381 25.841-.474 8.788-2.855 16.047-8.155 21.185-14.806 5.36-6.939 8.408-15.347 8.46-23.992a37.221 37.221 0 0 0-1.829-11.751 37.24 37.24 0 0 0-7.034-12.61c-10.346-12.205-28.142-17.471-45.181-11.935s-28.341 20.257-29.537 36.212a37.251 37.251 0 0 0 1.721 14.337zm5.424-3.259c-5.189-15.969 5.896-33.882 24.757-40.01s38.358 1.849 43.547 17.817 2.135 31.273-24.757 40.01-38.359-1.848-43.547-17.817z" class="st19"/><path d="M152.656 168.694c5.189 15.969 16.655 26.555 43.547 17.817s29.946-24.042 24.757-40.01c-4.702-14.472-21.155-22.38-38.237-19.174a42.204 42.204 0 0 0-6.188 1.653 42.97 42.97 0 0 0-3.396 1.349 41.832 41.832 0 0 0-6.897 3.924c-11.525 8.137-17.401 21.421-13.816 33.691.072.251.149.501.23.75z" class="st19"/><path d="M234.916 199.186a101.439 101.439 0 0 1 5.413 10.448 63.426 63.426 0 0 0 2.21-2.89c-.137-.21-.278-.42-.424-.632-1.851-2.675-4.416-4.979-7.199-6.926zm-64.337 30.169c.006.258.016.51.028.761 1.151.379 2.314.725 3.487 1.039a101.344 101.344 0 0 1-1.762-11.634c-1.107 3.21-1.828 6.583-1.753 9.834z" class="st22"/></g><g class="st16"><path d="M847.516 311.734c-.868 3.488-5.076 26.402 33.502 28.484 2.842.153 5.44-1.627 6.292-4.343l55.627-177.305a6.208 6.208 0 0 0-3.506-7.576l-19.322-8.17a6.209 6.209 0 0 0-8.203 3.465L847.754 310.99a5.965 5.965 0 0 0-.238.744z" class="st19"/><path d="M847.516 311.734c-.868 3.488-5.076 26.402 33.502 28.484 2.842.153 5.44-1.627 6.292-4.343l55.627-177.305a6.208 6.208 0 0 0-3.506-7.576l-19.322-8.17a6.209 6.209 0 0 0-8.203 3.465L847.754 310.99a5.965 5.965 0 0 0-.238.744z" class="st20"/><path d="M861.557 326.543c-21.982-31.816-78.026-55.514-168.151-59.688-90.125-4.174-115.638-60.306-115.638-60.306l60.563-190.677s25.514 56.132 115.638 60.306c77.609 3.595 129.946 21.666 157.022 46.933 7.178 6.699 9.79 16.969 6.817 26.327l-56.251 177.105z" class="st19"/><path d="M809.969 274.939c-29.369-14.319-61.558-20.623-92.815-29.333-26.298-7.328-58.133-16.588-72.417-42.118-6.738-12.042-9.845-26.467-12.159-39.944-2.683-15.623-3.25-31.522-2.596-47.34 1.336-32.353-1.145-66.397 8.427-97.69.154-.504.349-.951.574-1.349-.442-.83-.652-1.291-.652-1.291L577.768 206.55s25.514 56.132 115.638 60.306 146.169 27.871 168.151 59.688l1.835-5.778c-12.406-20.159-31.867-35.317-53.423-45.827z" class="st20"/><path d="M637.034 8 422.571 668.052" class="st21"/><path d="m779.091 209.822-.003-.022a82.8 82.8 0 0 1-2.645.117 79.587 79.587 0 0 0 2.648-.095zm-53.848-16.505a43.172 43.172 0 0 1-1.988-1.643l-.027.029c.464.392 1.138.945 2.015 1.614z" class="st19"/><path d="M781.204 108.317c-33.649-10.933-69.791 7.482-80.724 41.131-6.066 18.669-3.098 38.105 6.493 53.578 4.715-6.192 12.219-10.862 16.379-13.145.436-1.472 1.387-3.831 3.414-6.401-.228 2.194 3.463 4.885 6.706 6.804 4.73 2.8 11.303 5.631 18.509 7.972s14.188 3.914 19.66 4.43c3.752.353 8.32.346 9.425-1.563.129 3.27-.488 5.738-1.001 7.185 2.024 4.292 5.35 12.481 5.525 20.262 16.854-6.88 30.679-20.86 36.745-39.529 10.934-33.649-7.481-69.79-41.131-80.724zm18.136 74.218c-5.123 6.963-12.532 11.974-20.946 14.437 1.737 1.472 2.535 2.731 2.248 3.616-.9 2.769-12.555 2.259-28.472-2.913s-25.646-11.61-24.746-14.379c.287-.884 1.674-1.434 3.944-1.604-5.359-6.939-8.408-15.347-8.46-23.992-6.144-2.593-9.383-9.504-7.284-15.963 2.193-6.748 9.389-10.471 16.147-8.398 10.346-12.205 28.142-17.471 45.181-11.935s28.341 20.257 29.537 36.212c6.686 2.295 10.319 9.537 8.127 16.285-2.099 6.46-8.781 10.147-15.276 8.634z" class="st19"/><path d="M731.771 133.34c-6.758-2.073-13.954 1.65-16.147 8.398-2.099 6.459 1.14 13.37 7.284 15.963a37.221 37.221 0 0 1 1.829-11.751 37.24 37.24 0 0 1 7.034-12.61zm-12.31 15.729a2.38 2.38 0 1 1 1.47-4.526 2.38 2.38 0 0 1-1.47 4.526zm2.105-6.481a2.38 2.38 0 1 1 1.47-4.526 2.38 2.38 0 0 1-1.47 4.526z" class="st19"/><circle cx="722.305" cy="140.326" r="2.38" class="st19"/><circle cx="720.198" cy="146.8" r="2.379" class="st19"/><path d="M709.885 206.111c-.147.212-.287.422-.424.632a64.159 64.159 0 0 0 2.21 2.89 101.551 101.551 0 0 1 5.412-10.448c-2.782 1.948-5.347 4.252-7.198 6.926zm69.546 3.669-.343.02.003.022a82.49 82.49 0 0 1-4.969.108c-.896 8.519 1.539 16.263 3.726 21.239l.057-.015a101.344 101.344 0 0 0 1.762-11.634c1.106 3.211 1.828 6.583 1.753 9.834a30.73 30.73 0 0 1-.028.761 64.641 64.641 0 0 0 4.198-1.545c-.175-7.781-3.501-15.97-5.525-20.262-.34.961-.634 1.472-.634 1.472z" class="st19"/><path d="M779.668 219.52c-.314 3.358-.85 7.358-1.762 11.634a64.364 64.364 0 0 0 3.487-1.039c.012-.25.022-.503.028-.761.075-3.25-.646-6.623-1.753-9.834zm-48.3-37.828c-2.27.17-3.657.719-3.944 1.604-.9 2.769 8.829 9.207 24.746 14.379s27.572 5.681 28.472 2.913c.287-.884-.511-2.144-2.248-3.616-8.065 2.361-17.054 2.381-25.841-.474-8.788-2.855-16.048-8.155-21.185-14.806zm-4.186 13.051a67.1 67.1 0 0 1-1.939-1.426 51.818 51.818 0 0 1-2.014-1.614l.027-.029c-.169-.15-.255-.23-.255-.23s.063-.587.352-1.563c-4.16 2.282-11.664 6.953-16.379 13.145a63.97 63.97 0 0 0 2.488 3.717c.137-.21.278-.42.424-.632 1.85-2.674 4.416-4.979 7.198-6.926a101.439 101.439 0 0 0-5.413 10.448l.041.05a49.935 49.935 0 0 0 2.795-1.756c3.871-2.617 9.059-6.96 12.675-13.184zm5.269 3.42c-4.627 7.847-11.273 13.096-16.46 16.282 6.943 6.988 15.607 12.474 25.62 15.727 10.015 3.254 20.251 3.908 29.978 2.335-2.326-5.633-4.619-13.796-3.742-22.874-15.375-1.326-27.547-6.802-35.396-11.47z" class="st19"/><path d="M776.443 209.917a79.97 79.97 0 0 0 2.645-.117l.343-.02s.294-.512.634-1.472c.513-1.448 1.129-3.915 1.001-7.185-1.105 1.909-5.673 1.916-9.425 1.563-5.472-.515-12.454-2.088-19.66-4.43-7.206-2.341-13.779-5.173-18.509-7.972-3.243-1.919-6.934-4.61-6.706-6.804-2.026 2.57-2.978 4.929-3.414 6.401-.289.977-.352 1.563-.352 1.563s.086.08.255.23c.337.299 1.006.874 1.988 1.643a67.1 67.1 0 0 0 1.939 1.426c-3.616 6.223-8.804 10.567-12.676 13.184a49.572 49.572 0 0 1-2.795 1.756 64.17 64.17 0 0 0 4.279 4.762c5.187-3.187 11.833-8.435 16.46-16.282 7.849 4.668 20.021 10.144 35.396 11.47-.877 9.079 1.416 17.241 3.742 22.874a64.184 64.184 0 0 0 6.26-1.338c-2.187-4.976-4.622-12.72-3.726-21.239.767.007 1.541.003 2.321-.013zm30.046-52.3a37.248 37.248 0 0 1-1.721 14.336 37.21 37.21 0 0 1-5.428 10.582c6.494 1.513 13.177-2.174 15.276-8.633 2.192-6.748-1.441-13.99-8.127-16.285zm4.29 8.954a2.38 2.38 0 1 1-1.47 4.526 2.38 2.38 0 0 1 1.47-4.526zm-3.576 11.007a2.38 2.38 0 1 1 1.47-4.526 2.38 2.38 0 0 1-1.47 4.526z" class="st19"/><circle cx="807.936" cy="175.315" r="2.38" class="st19"/><circle cx="810.05" cy="168.832" r="2.38" class="st19"/><path d="M806.489 157.617c-1.196-15.955-12.498-30.676-29.537-36.212s-34.835-.27-45.181 11.935a37.24 37.24 0 0 0-7.034 12.61 37.254 37.254 0 0 0-1.829 11.751c.052 8.644 3.1 17.053 8.46 23.992 5.137 6.651 12.397 11.95 21.185 14.806 8.787 2.855 17.776 2.835 25.841.474 8.414-2.463 15.823-7.474 20.946-14.437a37.221 37.221 0 0 0 5.428-10.582 37.256 37.256 0 0 0 1.721-14.337zm-50.691 28.894c-26.892-8.738-29.946-24.042-24.757-40.01 5.189-15.969 24.685-23.946 43.547-17.817s29.946 24.042 24.757 40.01c-5.189 15.969-16.655 26.555-43.547 17.817z" class="st19"/><path d="M799.575 167.944c3.585-12.27-2.292-25.554-13.816-33.691a41.519 41.519 0 0 0-10.293-5.273 43.073 43.073 0 0 0-3.533-1.066 42.36 42.36 0 0 0-2.654-.587c-17.082-3.206-33.535 4.702-38.237 19.174-5.188 15.969-2.135 31.273 24.757 40.01s38.358-1.848 43.547-17.817c.079-.249.156-.499.229-.75z" class="st19"/><path d="M709.885 206.111c-.147.212-.287.422-.424.632a64.159 64.159 0 0 0 2.21 2.89 101.551 101.551 0 0 1 5.412-10.448c-2.782 1.948-5.347 4.252-7.198 6.926zm69.783 13.409c-.314 3.358-.85 7.358-1.762 11.634a64.364 64.364 0 0 0 3.487-1.039c.012-.25.022-.503.028-.761.075-3.25-.646-6.623-1.753-9.834z" class="st22"/></g><path d="M101.484 311.734c.868 3.488 5.076 26.402-33.502 28.484-2.842.153-5.44-1.627-6.292-4.343L6.063 158.569a6.208 6.208 0 0 1 3.506-7.576l19.322-8.17a6.209 6.209 0 0 1 8.203 3.465l64.152 164.701c.096.245.174.489.238.745z" class="st25"/><path d="M101.484 311.734c.868 3.488 5.076 26.402-33.502 28.484-2.842.153-5.44-1.627-6.292-4.343L6.063 158.569a6.208 6.208 0 0 1 3.506-7.576l19.322-8.17a6.209 6.209 0 0 1 8.203 3.465l64.152 164.701c.096.245.174.489.238.745z" class="st26"/><path d="M87.443 326.543c21.982-31.816 78.026-55.514 168.151-59.688 90.125-4.174 115.638-60.306 115.638-60.306L310.669 15.872s-25.514 56.132-115.638 60.306c-77.609 3.595-129.946 21.666-157.022 46.933-7.178 6.699-9.79 16.969-6.817 26.327l56.251 177.105z" class="st25"/><path d="M139.031 274.939c29.369-14.319 61.558-20.623 92.815-29.333 26.298-7.328 58.133-16.588 72.417-42.118 6.738-12.042 9.845-26.467 12.159-39.944 2.683-15.623 3.25-31.522 2.596-47.34-1.336-32.353 1.145-66.397-8.427-97.69a6.718 6.718 0 0 0-.574-1.349c.442-.83.652-1.291.652-1.291l60.563 190.677s-25.514 56.132-115.638 60.306-146.169 27.871-168.151 59.688l-1.835-5.778c12.406-20.16 31.867-35.318 53.423-45.828z" class="st26"/><path d="m311.966 8 214.463 660.052" class="st27"/><path d="M172.557 209.917a79.97 79.97 0 0 1-2.645-.117l-.003.022c.891.047 1.774.078 2.648.095zm53.215-18.214-.027-.029c-.337.299-1.006.874-1.988 1.643a51.813 51.813 0 0 0 2.015-1.614z" class="st28"/><path d="M126.664 189.042c6.066 18.669 19.891 32.649 36.745 39.529.175-7.781 3.501-15.97 5.525-20.262-.513-1.447-1.129-3.915-1.001-7.185 1.105 1.909 5.673 1.916 9.425 1.563 5.472-.515 12.454-2.088 19.66-4.43 7.206-2.341 13.779-5.173 18.509-7.972 3.243-1.919 6.934-4.61 6.706-6.804 2.026 2.57 2.978 4.929 3.414 6.401 4.16 2.282 11.664 6.953 16.379 13.145 9.591-15.473 12.559-34.909 6.493-53.578-10.933-33.649-47.075-52.065-80.725-41.131s-52.063 47.074-41.13 80.724zm7.72-15.14c-2.193-6.748 1.441-13.99 8.127-16.285 1.196-15.955 12.498-30.676 29.537-36.212s34.835-.27 45.181 11.935c6.758-2.073 13.954 1.65 16.147 8.398 2.099 6.459-1.14 13.37-7.284 15.963-.052 8.644-3.1 17.053-8.46 23.992 2.27.17 3.657.719 3.944 1.604.9 2.769-8.829 9.207-24.746 14.379s-27.572 5.681-28.472 2.913c-.287-.884.511-2.144 2.248-3.616-8.414-2.463-15.823-7.474-20.946-14.437-6.495 1.512-13.177-2.175-15.276-8.634z" class="st28"/><path d="M224.263 145.95a37.254 37.254 0 0 1 1.829 11.751c6.144-2.593 9.383-9.504 7.284-15.963-2.193-6.748-9.389-10.471-16.147-8.398a37.24 37.24 0 0 1 7.034 12.61zm2.278 1.591a2.38 2.38 0 1 1 4.525-1.47 2.38 2.38 0 0 1-4.525 1.47zm-2.106-6.481a2.38 2.38 0 1 1 4.525-1.47 2.38 2.38 0 0 1-4.525 1.47z" class="st29"/><circle cx="226.695" cy="140.326" r="2.38" class="st30"/><circle cx="228.802" cy="146.8" r="2.379" class="st30"/><path d="M231.916 199.186a101.439 101.439 0 0 1 5.413 10.448 63.426 63.426 0 0 0 2.21-2.89c-.137-.21-.278-.42-.424-.632-1.851-2.675-4.416-4.979-7.199-6.926zm-62.981 9.123c-2.024 4.292-5.35 12.481-5.525 20.262 1.38.563 2.78 1.078 4.198 1.545a30.73 30.73 0 0 1-.028-.761c-.075-3.251.646-6.623 1.753-9.834.314 3.358.85 7.358 1.762 11.634l.057.015c2.187-4.976 4.622-12.72 3.726-21.239a81.92 81.92 0 0 1-4.969-.108l.003-.022-.343-.02c0-.001-.294-.512-.634-1.472z" class="st30"/><path d="M167.579 229.355c.006.258.016.51.028.761 1.151.379 2.314.725 3.487 1.039a101.344 101.344 0 0 1-1.762-11.634c-1.107 3.21-1.828 6.583-1.753 9.834z" class="st30"/><path d="M196.447 196.498c-8.788 2.855-17.776 2.835-25.841.474-1.737 1.472-2.535 2.731-2.248 3.616.9 2.769 12.555 2.259 28.472-2.913s25.646-11.61 24.746-14.379c-.287-.884-1.674-1.434-3.944-1.604-5.137 6.651-12.397 11.951-21.185 14.806z" class="st29"/><path d="M234.494 207.927c.976.66 1.917 1.244 2.795 1.756l.041-.05a101.148 101.148 0 0 0-5.413-10.448c2.782 1.947 5.348 4.252 7.198 6.926.147.212.287.422.424.632a64.313 64.313 0 0 0 2.488-3.717c-4.715-6.192-12.219-10.862-16.379-13.145.289.976.352 1.563.352 1.563s-.086.08-.255.23l.027.029c-.463.392-1.138.944-2.014 1.614a67.1 67.1 0 0 1-1.939 1.426c3.615 6.224 8.803 10.567 12.675 13.184zm-53.341 1.706c.877 9.079-1.416 17.241-3.742 22.874 9.726 1.574 19.962.92 29.977-2.335 10.013-3.253 18.677-8.739 25.62-15.727-5.187-3.187-11.833-8.435-16.46-16.282-7.848 4.668-20.02 10.144-35.395 11.47z" class="st30"/><path d="M174.877 209.931c.896 8.519-1.539 16.263-3.726 21.239 2.058.548 4.147.996 6.26 1.338 2.326-5.633 4.619-13.796 3.742-22.874 15.375-1.326 27.547-6.802 35.396-11.47 4.627 7.847 11.273 13.096 16.46 16.282a64.17 64.17 0 0 0 4.279-4.762 49.935 49.935 0 0 1-2.795-1.756c-3.871-2.617-9.06-6.96-12.676-13.184a67.1 67.1 0 0 0 1.939-1.426 43.172 43.172 0 0 0 1.988-1.643c.169-.15.255-.23.255-.23s-.063-.587-.352-1.563c-.436-1.472-1.387-3.831-3.414-6.401.228 2.194-3.464 4.885-6.706 6.804-4.73 2.8-11.303 5.631-18.509 7.972-7.206 2.341-14.188 3.914-19.66 4.43-3.752.353-8.32.346-9.425-1.563-.129 3.27.488 5.738 1.001 7.185.34.96.634 1.472.634 1.472l.343.02a82.8 82.8 0 0 0 2.645.117c.781.015 1.555.019 2.321.013zm-40.493-36.029c2.099 6.459 8.781 10.146 15.276 8.633a37.221 37.221 0 0 1-5.428-10.582 37.23 37.23 0 0 1-1.721-14.336c-6.686 2.295-10.319 9.537-8.127 16.285zm6.835-5.803a2.38 2.38 0 1 1-4.525 1.47 2.38 2.38 0 0 1 4.525-1.47zm-2.421 7.951a2.38 2.38 0 1 1 4.525-1.47 2.38 2.38 0 0 1-4.525 1.47z" class="st29"/><circle cx="141.064" cy="175.315" r="2.38" class="st30"/><circle cx="138.949" cy="168.832" r="2.38" class="st30"/><path d="M144.232 171.953a37.21 37.21 0 0 0 5.428 10.582c5.123 6.963 12.532 11.974 20.946 14.437 8.065 2.361 17.054 2.381 25.841-.474s16.047-8.155 21.185-14.806c5.36-6.939 8.408-15.347 8.46-23.992a37.221 37.221 0 0 0-1.829-11.751 37.24 37.24 0 0 0-7.034-12.61c-10.346-12.205-28.142-17.471-45.181-11.935s-28.341 20.257-29.537 36.212a37.251 37.251 0 0 0 1.721 14.337zm5.424-3.259c-5.189-15.969 5.896-33.882 24.757-40.01s38.358 1.849 43.547 17.817c5.188 15.969 2.135 31.273-24.757 40.01s-38.359-1.848-43.547-17.817z" class="st30"/><path d="M149.656 168.694c5.189 15.969 16.655 26.555 43.547 17.817s29.946-24.042 24.757-40.01c-4.702-14.472-21.155-22.38-38.237-19.174a42.204 42.204 0 0 0-6.188 1.653 42.97 42.97 0 0 0-3.396 1.349 41.832 41.832 0 0 0-6.897 3.924c-11.525 8.137-17.401 21.421-13.816 33.691.072.251.149.501.23.75z" class="st29"/><path d="M231.916 199.186a101.439 101.439 0 0 1 5.413 10.448 63.426 63.426 0 0 0 2.21-2.89c-.137-.21-.278-.42-.424-.632-1.851-2.675-4.416-4.979-7.199-6.926zm-64.337 30.169c.006.258.016.51.028.761 1.151.379 2.314.725 3.487 1.039a101.344 101.344 0 0 1-1.762-11.634c-1.107 3.21-1.828 6.583-1.753 9.834z" class="st31"/><path d="M850.516 311.734c-.868 3.488-5.076 26.402 33.502 28.484 2.842.153 5.44-1.627 6.292-4.343l55.627-177.305a6.208 6.208 0 0 0-3.506-7.576l-19.322-8.17a6.209 6.209 0 0 0-8.203 3.465L850.754 310.99a5.965 5.965 0 0 0-.238.744z" class="st25"/><path d="M850.516 311.734c-.868 3.488-5.076 26.402 33.502 28.484 2.842.153 5.44-1.627 6.292-4.343l55.627-177.305a6.208 6.208 0 0 0-3.506-7.576l-19.322-8.17a6.209 6.209 0 0 0-8.203 3.465L850.754 310.99a5.965 5.965 0 0 0-.238.744z" class="st26"/><path d="M864.557 326.543c-21.982-31.816-78.026-55.514-168.151-59.688-90.125-4.174-115.638-60.306-115.638-60.306l60.563-190.677s25.514 56.132 115.638 60.306c77.609 3.595 129.946 21.666 157.022 46.933 7.178 6.699 9.79 16.969 6.817 26.327l-56.251 177.105z" class="st25"/><path d="M812.969 274.939c-29.369-14.319-61.558-20.623-92.815-29.333-26.299-7.328-58.133-16.588-72.417-42.118-6.738-12.042-9.845-26.467-12.159-39.944-2.683-15.623-3.25-31.522-2.597-47.34 1.336-32.353-1.145-66.397 8.427-97.69.154-.504.349-.951.574-1.349-.442-.83-.652-1.291-.652-1.291L580.768 206.55s25.514 56.132 115.638 60.306 146.169 27.871 168.151 59.688l1.835-5.778c-12.406-20.159-31.867-35.317-53.423-45.827z" class="st26"/><path d="M640.034 8 425.571 668.052" class="st27"/><path d="m782.091 209.822-.003-.022a82.8 82.8 0 0 1-2.645.117 79.587 79.587 0 0 0 2.648-.095zm-53.848-16.505a43.172 43.172 0 0 1-1.988-1.643l-.027.029c.464.392 1.138.945 2.015 1.614z" class="st28"/><path d="M784.204 108.317c-33.649-10.933-69.791 7.482-80.724 41.131-6.066 18.669-3.098 38.105 6.493 53.578 4.715-6.192 12.219-10.862 16.379-13.145.436-1.472 1.387-3.831 3.414-6.401-.228 2.194 3.463 4.885 6.706 6.804 4.73 2.8 11.303 5.631 18.509 7.972s14.188 3.914 19.66 4.43c3.752.353 8.32.346 9.425-1.563.129 3.27-.488 5.738-1.001 7.185 2.024 4.292 5.35 12.481 5.525 20.262 16.854-6.88 30.679-20.86 36.745-39.529 10.934-33.649-7.481-69.79-41.131-80.724zm18.136 74.218c-5.123 6.963-12.532 11.974-20.946 14.437 1.737 1.472 2.535 2.731 2.248 3.616-.9 2.769-12.555 2.259-28.472-2.913s-25.646-11.61-24.746-14.379c.287-.884 1.674-1.434 3.944-1.604-5.359-6.939-8.408-15.347-8.46-23.992-6.144-2.593-9.383-9.504-7.284-15.963 2.193-6.748 9.389-10.471 16.147-8.398 10.346-12.205 28.142-17.471 45.181-11.935s28.341 20.257 29.537 36.212c6.686 2.295 10.319 9.537 8.127 16.285-2.099 6.46-8.781 10.147-15.276 8.634z" class="st28"/><path d="M734.771 133.34c-6.758-2.073-13.954 1.65-16.147 8.398-2.099 6.459 1.14 13.37 7.284 15.963a37.221 37.221 0 0 1 1.829-11.751 37.24 37.24 0 0 1 7.034-12.61zm-12.31 15.729a2.38 2.38 0 1 1 1.47-4.526 2.38 2.38 0 0 1-1.47 4.526zm2.105-6.481a2.38 2.38 0 1 1 1.47-4.526 2.38 2.38 0 0 1-1.47 4.526z" class="st29"/><circle cx="725.305" cy="140.326" r="2.38" class="st30"/><circle cx="723.198" cy="146.8" r="2.379" class="st30"/><path d="M712.885 206.111c-.147.212-.287.422-.424.632a64.159 64.159 0 0 0 2.21 2.89 101.551 101.551 0 0 1 5.412-10.448c-2.782 1.948-5.347 4.252-7.198 6.926zm69.546 3.669-.343.02.003.022a82.49 82.49 0 0 1-4.969.108c-.896 8.519 1.539 16.263 3.726 21.239l.057-.015a101.344 101.344 0 0 0 1.762-11.634c1.106 3.211 1.828 6.583 1.753 9.834a30.73 30.73 0 0 1-.028.761 64.641 64.641 0 0 0 4.198-1.545c-.175-7.781-3.501-15.97-5.525-20.262-.34.961-.634 1.472-.634 1.472z" class="st30"/><path d="M782.668 219.52c-.314 3.358-.85 7.358-1.762 11.634a64.364 64.364 0 0 0 3.487-1.039c.012-.25.022-.503.028-.761.075-3.25-.646-6.623-1.753-9.834z" class="st30"/><path d="M734.368 181.692c-2.27.17-3.657.719-3.944 1.604-.9 2.769 8.829 9.207 24.746 14.379s27.572 5.681 28.472 2.913c.287-.884-.511-2.144-2.248-3.616-8.065 2.361-17.054 2.381-25.841-.474-8.788-2.855-16.048-8.155-21.185-14.806z" class="st29"/><path d="M730.182 194.743a67.1 67.1 0 0 1-1.939-1.426 51.818 51.818 0 0 1-2.014-1.614l.027-.029c-.169-.15-.255-.23-.255-.23s.063-.587.352-1.563c-4.16 2.282-11.664 6.953-16.379 13.145a63.97 63.97 0 0 0 2.488 3.717c.137-.21.278-.42.424-.632 1.85-2.674 4.416-4.979 7.198-6.926a101.439 101.439 0 0 0-5.413 10.448l.041.05a49.935 49.935 0 0 0 2.795-1.756c3.871-2.617 9.059-6.96 12.675-13.184zm5.269 3.42c-4.627 7.847-11.273 13.096-16.46 16.282 6.943 6.988 15.607 12.474 25.62 15.727 10.015 3.254 20.251 3.908 29.978 2.335-2.326-5.633-4.619-13.796-3.742-22.874-15.375-1.326-27.547-6.802-35.396-11.47z" class="st30"/><path d="M779.443 209.917a79.97 79.97 0 0 0 2.645-.117l.343-.02s.294-.512.634-1.472c.513-1.448 1.129-3.915 1.001-7.185-1.105 1.909-5.673 1.916-9.425 1.563-5.472-.515-12.454-2.088-19.66-4.43-7.206-2.341-13.779-5.173-18.509-7.972-3.243-1.919-6.934-4.61-6.706-6.804-2.026 2.57-2.978 4.929-3.414 6.401-.289.977-.352 1.563-.352 1.563s.086.08.255.23c.337.299 1.006.874 1.988 1.643a67.1 67.1 0 0 0 1.939 1.426c-3.616 6.223-8.804 10.567-12.676 13.184a49.572 49.572 0 0 1-2.795 1.756 64.17 64.17 0 0 0 4.279 4.762c5.187-3.187 11.833-8.435 16.46-16.282 7.849 4.668 20.021 10.144 35.396 11.47-.877 9.079 1.416 17.241 3.742 22.874a64.184 64.184 0 0 0 6.26-1.338c-2.187-4.976-4.622-12.72-3.726-21.239.767.007 1.541.003 2.321-.013zm30.046-52.3a37.248 37.248 0 0 1-1.721 14.336 37.21 37.21 0 0 1-5.428 10.582c6.494 1.513 13.177-2.174 15.276-8.633 2.192-6.748-1.441-13.99-8.127-16.285zm4.29 8.954a2.38 2.38 0 1 1-1.47 4.526 2.38 2.38 0 0 1 1.47-4.526zm-3.576 11.007a2.38 2.38 0 1 1 1.47-4.526 2.38 2.38 0 0 1-1.47 4.526z" class="st29"/><circle cx="810.936" cy="175.315" r="2.38" class="st30"/><circle cx="813.05" cy="168.832" r="2.38" class="st30"/><path d="M809.489 157.617c-1.196-15.955-12.498-30.676-29.537-36.212s-34.835-.27-45.181 11.935a37.24 37.24 0 0 0-7.034 12.61 37.254 37.254 0 0 0-1.829 11.751c.052 8.644 3.1 17.053 8.46 23.992 5.137 6.651 12.397 11.95 21.185 14.806 8.788 2.855 17.776 2.835 25.841.474 8.414-2.463 15.823-7.474 20.946-14.437a37.221 37.221 0 0 0 5.428-10.582 37.256 37.256 0 0 0 1.721-14.337zm-50.691 28.894c-26.892-8.738-29.946-24.042-24.757-40.01 5.189-15.969 24.685-23.946 43.547-17.817s29.946 24.042 24.757 40.01c-5.189 15.969-16.655 26.555-43.547 17.817z" class="st30"/><path d="M802.575 167.944c3.585-12.27-2.292-25.554-13.816-33.691a41.519 41.519 0 0 0-10.293-5.273 43.073 43.073 0 0 0-3.534-1.066 42.36 42.36 0 0 0-2.654-.587c-17.082-3.206-33.535 4.702-38.237 19.174-5.188 15.969-2.135 31.273 24.757 40.01s38.358-1.848 43.547-17.817c.08-.249.157-.499.23-.75z" class="st29"/><path d="M712.885 206.111c-.147.212-.287.422-.424.632a64.159 64.159 0 0 0 2.21 2.89 101.551 101.551 0 0 1 5.412-10.448c-2.782 1.948-5.347 4.252-7.198 6.926zm69.783 13.409c-.314 3.358-.85 7.358-1.762 11.634a64.364 64.364 0 0 0 3.487-1.039c.012-.25.022-.503.028-.761.075-3.25-.646-6.623-1.753-9.834z" class="st31"/><path d="M849.882 491.32c86.615 197.626 3.971 430.711-191.29 528.484-201.503 100.799-446.691 19.195-547.49-182.402-56.262-112.335-55.789-238.286-9.361-345.231" class="st32"/><path fill="#3c6158" d="M644.313 799.39c-199.706 80.09-426.55-16.831-506.735-216.537-9.55-23.734-16.359-47.846-20.992-72.053-33.19 88.033-35.176 188.076 2.648 282.255 80.09 199.706 307.029 296.722 506.735 216.537 175.972-70.635 272.043-255.117 237.529-434.682-37.161 98.623-113.659 182.118-219.185 224.48z" opacity=".14"/><path d="M165.472 603.939c.378 0 .851 0 1.229.095-.378-.001-.756-.001-1.229-.095zm-1.702 0h-.567.567zm36.216 84.251a49.64 49.64 0 0 1-22.316 13.616c20.803-6.052 36.027-25.247 36.027-47.941 0-5.768-.946-11.252-2.742-16.453-1.04-1.607-28.273-45.293-79.901-21.181 6.052-5.295 13.238-8.983 20.992-10.874-21.937 5.295-38.201 24.963-38.201 48.508 0 4.539.567 8.888 1.702 12.954.566 1.23 27.326 57.775 84.439 21.371zm-41.511-83.968c.378 0 .851-.095 1.229-.095-.378.001-.756.001-1.229.095z" class="st34"/><path d="M177.67 701.806c-.756.189-1.607.473-2.364.662.757-.189 1.608-.473 2.364-.662zM155.544 604.6l1.702-.284-1.702.284zm24.585 2.081c.756.284 1.418.567 2.175.851-.757-.284-1.419-.568-2.175-.851zm2.742 1.04 2.553 1.135c-.851-.379-1.608-.757-2.553-1.135zm-14.751-3.593c.567.095 1.135.095 1.702.189-.568-.095-1.135-.095-1.702-.189zm2.742.283c.851.095 1.797.284 2.648.473-.851-.189-1.797-.284-2.648-.473zm6.146 1.324c.851.189 1.607.473 2.459.756-.851-.283-1.608-.567-2.459-.756zm-60.044 65.434c-.095-.189-.095-.378-.189-.567 0 .284.094.378.189.567zm35.459-65.907c.756-.189 1.418-.284 2.175-.473-.662.095-1.418.284-2.175.473zm-.567 97.111c-.284-.095-.662-.189-.946-.189.378 0 .662.095.946.189zm2.08.473c-.284-.095-.473-.095-.756-.189.283.094.567.094.756.189zm2.269.378zm-9.55-2.458h-.095.095zm2.364.851c-.095 0-.284-.095-.378-.095.189 0 .284 0 .378.095zm-32.811-32.434c-.095-.189-.189-.473-.189-.662.094.19.189.379.189.662zm57.207 33.663c.284-.095.567-.095.851-.189-.284.094-.567.094-.851.189zm-54.654-27.327s0-.095-.095-.095c.095 0 .095.095.095.095zm-.851-1.986c-.095-.095-.095-.189-.189-.378-.001.094.094.284.189.378zm55.694-68.649c1.04.189 1.986.473 3.026.662-1.04-.189-1.986-.473-3.026-.662zm26.855 15.129c.567.567 1.04 1.135 1.607 1.797-.567-.662-1.135-1.229-1.607-1.797zm-5.012-4.727c.095 0 .095 0 0 0 .095 0 .095 0 0 0zm6.714 6.713c.662.756 1.229 1.513 1.797 2.269-.568-.756-1.136-1.512-1.797-2.269zm5.106 7.376zm-8.7-11.253 1.04 1.04c-.283-.378-.661-.662-1.04-1.04zm-12.292-8.794c.567.284 1.04.567 1.513.851-.473-.378-.946-.567-1.513-.851zm10.401 6.998c.284.284.662.567.946.851-.284-.284-.662-.568-.946-.851zm-5.2-3.972.851.567-.851-.567zm-2.364-1.513c.378.189.756.378 1.04.662a6.44 6.44 0 0 0-1.04-.662zm16.642 16.075c.473.756 1.04 1.607 1.418 2.364-.378-.851-.851-1.607-1.418-2.364zm-1.702-2.553c.567.756 1.135 1.513 1.607 2.364-.567-.851-1.04-1.607-1.607-2.364z" class="st34"/><path d="M176.725 605.641h-.095c.095 0 .284.095.378.095-.094-.001-.189-.095-.283-.095zm13.427 5.862c.473.284.851.567 1.324.851-.473-.283-.851-.567-1.324-.851zm-7.849-3.971c.189.095.473.189.662.284-.283-.19-.472-.19-.662-.284zm-22.504-3.404c1.135-.095 2.269-.189 3.404-.189-1.135 0-2.27.094-3.404.189zm28.083 5.957c.378.189.851.473 1.229.756-.472-.283-.85-.472-1.229-.756zm-2.458-1.229c.284.095.567.284.851.473-.284-.19-.567-.284-.851-.473zm-21.559-4.917h1.702-1.702zm2.836.094c.473 0 .946.095 1.418.095-.472 0-.945-.095-1.418-.095zm6.809.851h.095-.095zm-3.688-.567c.378 0 .662.095 1.04.095-.378-.001-.662-.095-1.04-.095zm9.645 2.175c.189.095.473.189.662.189-.284-.095-.473-.095-.662-.189zm26.192 20.235c0 .094.095.094.095.189 0-.094-.095-.189-.095-.189zm-1.702-2.459c.095 0 .095.095 0 0 .095.095.095 0 0 0zm3.31 5.012s0 .095 0 0c0 .095 0 0 0 0zm-14.94-16.358c1.04.756 2.175 1.513 3.215 2.364-1.041-.851-2.175-1.608-3.215-2.364zm9.644 8.888c.095.095.095.189.189.189.001-.094-.094-.189-.189-.189zm-2.269-2.648c.284.284.473.567.756.756a2.861 2.861 0 0 1-.756-.756zm-4.16-3.782c.378.284.756.662 1.135 1.04-.379-.378-.757-.756-1.135-1.04zm15.412 22.127c0-.095-.095-.189-.095-.284.001.095.001.189.095.284zm-13.332-20.33c.378.284.662.662.946.946-.284-.379-.663-.663-.946-.946zm-40.376-12.766c.378-.095.851-.095 1.229-.189-.378 0-.757.095-1.229.189zm-5.201.946c.095 0 .284-.095.378-.095-.094 0-.284 0-.378.095zm2.648-.567c.284-.095.567-.095.946-.189-.379.094-.663.094-.946.189z" class="st35"/><path d="M210.954 637.412c0-.095-.095-.189-.095-.284a45.47 45.47 0 0 0-3.593-7.848v-.095c-.473-.851-.946-1.607-1.418-2.364 0-.094-.095-.094-.095-.189a35.298 35.298 0 0 0-1.607-2.364v-.095c-.567-.756-1.135-1.513-1.797-2.269-.095-.095-.095-.189-.189-.189a27.915 27.915 0 0 0-1.607-1.797c-.284-.284-.473-.567-.756-.756l-1.04-1.04-.946-.946c-.284-.284-.662-.567-.946-.851-.378-.378-.756-.662-1.135-1.04a40.236 40.236 0 0 0-3.215-2.364l-.851-.567c-.473-.284-.851-.567-1.324-.851-.378-.189-.662-.473-1.04-.662-.378-.284-.851-.473-1.229-.756-.473-.284-1.04-.567-1.513-.851-.284-.189-.567-.284-.851-.473l-2.553-1.135a4.587 4.587 0 0 0-.662-.284c-.756-.284-1.418-.567-2.175-.851-.189-.095-.473-.189-.662-.189-.851-.284-1.607-.473-2.459-.756-.095 0-.284-.095-.378-.095-1.04-.284-1.986-.473-3.026-.662h-.095c-.851-.189-1.797-.284-2.648-.473-.378-.095-.662-.095-1.04-.095-.567-.095-1.135-.095-1.702-.189-.473 0-.946-.095-1.418-.095-.378 0-.851 0-1.229-.095h-2.364c-1.135 0-2.269.095-3.404.189-.378 0-.851.095-1.229.095-.378 0-.851.095-1.229.189l-1.702.284c-.284.095-.567.095-.946.189-.756.095-1.513.284-2.175.473-.095 0-.284.095-.378.095-7.754 1.891-14.94 5.673-20.992 10.874 51.441-24.017 78.673 19.575 79.713 21.182z" class="st34"/><path d="M210.954 637.412c0-.095-.095-.189-.095-.284a45.47 45.47 0 0 0-3.593-7.848v-.095c-.473-.851-.946-1.607-1.418-2.364 0-.094-.095-.094-.095-.189a35.298 35.298 0 0 0-1.607-2.364v-.095c-.567-.756-1.135-1.513-1.797-2.269-.095-.095-.095-.189-.189-.189a27.915 27.915 0 0 0-1.607-1.797c-.284-.284-.473-.567-.756-.756l-1.04-1.04-.946-.946c-.284-.284-.662-.567-.946-.851-.378-.378-.756-.662-1.135-1.04a40.236 40.236 0 0 0-3.215-2.364l-.851-.567c-.473-.284-.851-.567-1.324-.851-.378-.189-.662-.473-1.04-.662-.378-.284-.851-.473-1.229-.756-.473-.284-1.04-.567-1.513-.851-.284-.189-.567-.284-.851-.473l-2.553-1.135a4.587 4.587 0 0 0-.662-.284c-.756-.284-1.418-.567-2.175-.851-.189-.095-.473-.189-.662-.189-.851-.284-1.607-.473-2.459-.756-.095 0-.284-.095-.378-.095-1.04-.284-1.986-.473-3.026-.662h-.095c-.851-.189-1.797-.284-2.648-.473-.378-.095-.662-.095-1.04-.095-.567-.095-1.135-.095-1.702-.189-.473 0-.946-.095-1.418-.095-.378 0-.851 0-1.229-.095h-2.364c-1.135 0-2.269.095-3.404.189-.378 0-.851.095-1.229.095-.378 0-.851.095-1.229.189l-1.702.284c-.284.095-.567.095-.946.189-.756.095-1.513.284-2.175.473-.095 0-.284.095-.378.095-7.754 1.891-14.94 5.673-20.992 10.874 51.441-24.017 78.673 19.575 79.713 21.182z" class="st35"/><path d="M153.18 702.657c-.473-.095-.851-.189-1.324-.284.473.095.945.189 1.324.284zm-34.419-27.233c-.284-.662-.567-1.229-.851-1.891.189.662.472 1.229.851 1.891zm56.545 27.044c-.378.094-.662.189-1.04.284.284-.19.662-.19 1.04-.284zm-19.195.756c-.756-.095-1.418-.284-2.175-.378.757.095 1.513.284 2.175.378zm-5.295-1.134h.189c-.662-.189-1.324-.378-1.891-.567.472.283 1.134.378 1.702.567zm26.854-.284zm-29.029-.378c-.662-.189-1.324-.473-1.986-.662.662.283 1.324.473 1.986.662zm-30.921-28.273c-.284-.662-.567-1.324-.756-1.986.189.662.473 1.324.756 1.986zm38.485 30.069c5.863.946 11.631.756 17.21-.378-3.12.567-6.335.946-9.645.946-2.553 0-5.106-.189-7.565-.568zm-37.444-27.705c5.484 11.347 15.224 20.614 27.8 25.247-12.198-4.539-22.127-13.617-27.8-25.247zm-3.215-8.699c.189.567.284 1.135.473 1.702-.19-.568-.284-1.135-.473-1.702zm1.229 3.876a9.351 9.351 0 0 1-.473-1.513c.095.473.284.946.473 1.513z" class="st36"/><path d="M175.306 702.468c.851-.189 1.607-.378 2.364-.662 8.51-2.458 16.169-7.186 22.316-13.616-57.113 36.405-83.873-20.141-84.44-21.37.189.567.284 1.135.473 1.607.095.189.189.473.189.662.189.473.284 1.04.473 1.513.095.189.095.378.189.567.284.662.473 1.324.756 1.986.095.095.095.189.189.378.284.662.567 1.324.851 1.891 0 0 0 .095.095.095 5.579 11.631 15.602 20.708 27.8 25.247h.095c.662.284 1.324.473 1.986.662.095 0 .284.095.378.095.662.189 1.324.378 1.891.567.284.095.662.189.946.189.473.095.851.189 1.324.284.284.094.473.094.756.189.756.189 1.418.284 2.175.378h.095c2.459.378 5.012.567 7.565.567 3.31 0 6.524-.284 9.645-.946.284-.095.567-.095.851-.189.282 0 .66 0 1.038-.094z" class="st34"/><path d="M175.306 702.468c.851-.189 1.607-.378 2.364-.662 8.51-2.458 16.169-7.186 22.316-13.616-57.113 36.405-83.873-20.141-84.44-21.37.189.567.284 1.135.473 1.607.095.189.189.473.189.662.189.473.284 1.04.473 1.513.095.189.095.378.189.567.284.662.473 1.324.756 1.986.095.095.095.189.189.378.284.662.567 1.324.851 1.891 0 0 0 .095.095.095 5.579 11.631 15.602 20.708 27.8 25.247h.095c.662.284 1.324.473 1.986.662.095 0 .284.095.378.095.662.189 1.324.378 1.891.567.284.095.662.189.946.189.473.095.851.189 1.324.284.284.094.473.094.756.189.756.189 1.418.284 2.175.378h.095c2.459.378 5.012.567 7.565.567 3.31 0 6.524-.284 9.645-.946.284-.095.567-.095.851-.189.282 0 .66 0 1.038-.094z" class="st36"/><path d="M629.467 814.897v.095c.095 0 .095-.095 0-.095z" class="st34"/><path d="M629.656 815.275c-.473-.851-13.427-21.37-37.823-10.212-5.106 4.35-8.321 10.78-8.321 18.06 0 2.175.284 4.35.851 6.43 1.324 2.742 14.089 26.287 39.998 10.023 4.066-4.255 6.619-10.023 6.619-16.359 0-2.836-.472-5.483-1.324-7.942z" class="st34"/><path d="M629.467 814.897a23.748 23.748 0 0 0-16.075-14.751c-7.943-2.08-15.98 0-21.748 5.012.095 0 .095-.095.189-.095 4.161-3.499 9.55-5.673 15.413-5.673a23.614 23.614 0 0 1 22.221 15.507zm.189.378c0-.095-.095-.189-.095-.284.001.095.001.19.095.284z" class="st35"/><path d="M629.656 815.275c0-.095-.095-.189-.095-.284v-.095a23.614 23.614 0 0 0-22.221-15.508c-5.863 0-11.252 2.175-15.413 5.673 24.302-11.156 37.162 9.363 37.729 10.214z" class="st34"/><path d="M629.656 815.275c0-.095-.095-.189-.095-.284v-.095a23.614 23.614 0 0 0-22.221-15.508c-5.863 0-11.252 2.175-15.413 5.673 24.302-11.156 37.162 9.363 37.729 10.214z" class="st35"/><path d="M607.246 846.858c-10.874 0-20.046-7.375-22.883-17.304-.095-.189-.095-.284-.095-.284 2.175 7.943 8.321 14.562 16.831 16.831 8.699 2.364 17.588-.473 23.356-6.619h-.095c-4.254 4.539-10.4 7.376-17.114 7.376z" class="st36"/><path d="M584.363 829.554c2.837 10.023 12.009 17.304 22.883 17.304 6.714 0 12.86-2.837 17.115-7.375-25.909 16.358-38.579-7.187-39.998-9.929z" class="st34"/><path d="M584.363 829.554c2.837 10.023 12.009 17.304 22.883 17.304 6.714 0 12.86-2.837 17.115-7.375-25.909 16.358-38.579-7.187-39.998-9.929z" class="st36"/><path d="M674.477 575.098c-.095-.095-.189-.284-.189-.378 0 .189.094.284.189.378zm48.413-26.476c.095.095.095.189.189.378.001-.189-.094-.283-.189-.378zm-49.926 23.356c-.095-.378-.284-.662-.378-1.04.189.378.283.756.378 1.04zm.851 1.891c-.189-.473-.378-.851-.567-1.324.189.473.378.851.567 1.324zm-1.324-3.404c-.095-.378-.284-.756-.378-1.135.094.379.189.757.378 1.135zm2.553 5.768s0-.094 0 0c0-.094 0 0 0 0z" class="st34"/><path d="M718.352 581.245c4.917-5.012 7.943-11.82 7.943-19.384 0-3.215-.567-6.335-1.607-9.172-.946-1.513-15.886-24.585-43.875-11.914-5.957 5.106-9.834 12.671-9.834 21.086 0 2.458.378 4.917.946 7.186.566 1.04 15.223 31.582 46.427 12.198zm3.877-33.757c0 .095.095.189.095.189-.001-.095-.001-.189-.095-.189z" class="st34"/><path d="M722.229 547.488c-3.593-5.863-9.267-10.401-16.453-12.387a27.656 27.656 0 0 0-25.341 5.863c.189-.095.284-.095.473-.189 4.822-4.066 11.063-6.524 17.777-6.524 9.927-.002 18.721 5.294 23.544 13.237zm2.553 5.295a27.169 27.169 0 0 0-1.702-3.782 19.913 19.913 0 0 1 1.702 3.782zm-2.364-5.106c.189.284.378.662.567.946a2.515 2.515 0 0 1-.567-.946z" class="st35"/><path d="M724.687 552.688c-.473-1.324-1.04-2.553-1.608-3.782-.094-.095-.094-.189-.189-.378-.189-.284-.378-.662-.567-.946 0-.095-.095-.189-.095-.189-4.822-7.943-13.616-13.238-23.545-13.238-6.808 0-12.954 2.458-17.777 6.524 27.99-12.576 42.93 10.496 43.781 12.009z" class="st34"/><path d="M724.687 552.688c-.473-1.324-1.04-2.553-1.608-3.782-.094-.095-.094-.189-.189-.378-.189-.284-.378-.662-.567-.946 0-.095-.095-.189-.095-.189-4.822-7.943-13.616-13.238-23.545-13.238-6.808 0-12.954 2.458-17.777 6.524 27.99-12.576 42.93 10.496 43.781 12.009z" class="st35"/><path d="M698.684 589.471c-10.023 0-18.722-5.295-23.639-13.238 3.593 5.863 9.267 10.496 16.548 12.387 10.118 2.742 20.519-.567 27.233-7.659-.189.095-.378.189-.473.284a27.503 27.503 0 0 1-19.669 8.226zm-26.098-18.439c-.094-.189-.094-.378-.189-.473a.727.727 0 0 1 .189.473zm2.458 5.107c-.189-.378-.378-.662-.567-1.04.189.378.378.756.567 1.04zm-1.796-3.594c-.095-.189-.095-.378-.189-.567 0 .189.094.378.189.567zm1.04 2.175c-.189-.284-.284-.567-.473-.851.094.284.284.568.473.851zm-2.27-5.673c0 .095.095.189.095.284 0-.095-.095-.19-.095-.284z" class="st36"/><path d="M672.018 569.047c0 .095 0 .189.095.189.095.378.189.756.378 1.135.094.189.094.378.189.473.095.378.284.662.378 1.04.094.189.094.378.189.567.189.473.378.851.567 1.324.189.284.284.567.473.851.095.095.095.284.189.378.189.378.378.662.567 1.04 4.822 7.943 13.616 13.238 23.639 13.238 7.659 0 14.656-3.12 19.668-8.227-31.202 19.574-45.859-10.968-46.332-12.008z" class="st34"/><path d="M672.018 569.047c0 .095 0 .189.095.189.095.378.189.756.378 1.135.094.189.094.378.189.473.095.378.284.662.378 1.04.094.189.094.378.189.567.189.473.378.851.567 1.324.189.284.284.567.473.851.095.095.095.284.189.378.189.378.378.662.567 1.04 4.822 7.943 13.616 13.238 23.639 13.238 7.659 0 14.656-3.12 19.668-8.227-31.202 19.574-45.859-10.968-46.332-12.008z" class="st36"/><path d="M590.888 929.785c0 1.04.189 1.986.378 3.026.473.851 6.619 13.049 19.479 4.822-2.837 2.931-7.092 4.35-11.347 3.215-3.971-1.135-6.997-4.161-8.037-7.943 1.324 4.917 5.768 8.416 11.063 8.416 6.335 0 11.536-5.201 11.536-11.536 0-3.782-1.797-7.186-4.633-9.267 1.891 1.418 3.215 3.31 3.971 5.484 0 0-6.335-10.59-18.439-4.917-2.458 2.081-3.971 5.201-3.971 8.7zm13.427-11.347c.284 0 .567.095.851.189-.284-.095-.567-.189-.851-.189z" class="st34"/><path d="M594.859 921.086c.189-.189.473-.378.756-.567-.283.188-.472.377-.756.567zm10.685-2.364c1.418.378 2.648 1.04 3.688 1.797-1.135-.852-2.364-1.419-3.688-1.797zm-2.08-.379h.189-.189z" class="st34"/><path d="M603.464 918.343a11.292 11.292 0 0 0-7.848 2.175 11.33 11.33 0 0 1 6.808-2.269c.378 0 .756 0 1.04.094zm.189 0c.189 0 .473.095.662.095-.189-.095-.473-.095-.662-.095zm5.579 2.175zm-3.877-1.891h-.189c.095 0 .284.095.378.095-.094-.095-.094-.095-.189-.095zm-10.496 2.459z" class="st35"/><path d="M613.298 926.003c-.756-2.175-2.175-4.066-3.971-5.484 0 0-.095 0-.095-.095a12.193 12.193 0 0 0-3.688-1.797c-.095 0-.284-.095-.378-.095-.284-.095-.567-.095-.851-.189-.189 0-.473-.094-.662-.094h-.189c-.378 0-.662-.095-1.04-.095a11.33 11.33 0 0 0-6.808 2.269c-.284.189-.473.378-.756.567 12.103-5.578 18.438 5.013 18.438 5.013z" class="st34"/><path d="M613.298 926.003c-.756-2.175-2.175-4.066-3.971-5.484 0 0-.095 0-.095-.095a12.193 12.193 0 0 0-3.688-1.797c-.095 0-.284-.095-.378-.095-.284-.095-.567-.095-.851-.189-.189 0-.473-.094-.662-.094h-.189c-.378 0-.662-.095-1.04-.095a11.33 11.33 0 0 0-6.808 2.269c-.284.189-.473.378-.756.567 12.103-5.578 18.438 5.013 18.438 5.013z" class="st35"/><path d="M591.266 932.716c0 .095 0 .095.095.189-.095-.094-.095-.094-.095-.189z" class="st36"/><path d="M599.398 940.848c4.255 1.135 8.51-.284 11.347-3.215-12.86 8.227-19.006-3.971-19.479-4.822v.095c1.135 3.782 4.161 6.807 8.132 7.942z" class="st34"/><path d="M599.398 940.848c4.255 1.135 8.51-.284 11.347-3.215-12.86 8.227-19.006-3.971-19.479-4.822v.095c1.135 3.782 4.161 6.807 8.132 7.942z" class="st36"/><path d="M769.129 706.061c-.095-.094-.189-.094-.284-.189.095.094.19.094.284.189z" class="st34"/><path d="M783.786 704.359c-1.702 1.797-3.877 2.931-6.335 3.404 5.39-.946 9.55-5.673 9.55-11.347 0-3.782-1.797-7.186-4.633-9.267 1.891 1.418 3.215 3.31 3.971 5.484 0 0-6.335-10.496-18.439-4.917-2.458 2.08-3.971 5.201-3.971 8.699 0 1.135.189 2.175.473 3.215.756 1.419 6.902 12.672 19.384 4.729zm-7.092 3.499h-.095.095zm-4.634-.379h-.095c.001-.094.095-.094.095 0z" class="st34"/><path d="M767.9 687.717c.189-.189.473-.378.756-.567-.283.189-.472.378-.756.567zm8.605-2.742h.189-.189zm2.08.378c1.418.378 2.648 1.04 3.688 1.797-1.135-.852-2.364-1.419-3.688-1.797zm-1.229-.284c.284 0 .567.095.851.189-.284-.094-.568-.189-.851-.189zm-7.187 21.654c-.094-.095-.189-.095-.284-.189.095.094.19.094.284.189z" class="st34"/><path d="M776.694 684.975c.189 0 .473.095.662.095-.189-.095-.473-.095-.662-.095zm5.579 2.174zm-14.373.568zm8.605-2.742a11.292 11.292 0 0 0-7.848 2.175 11.33 11.33 0 0 1 6.808-2.269c.378-.001.756-.001 1.04.094zm1.891.283h-.189c.095 0 .284.094.378.094-.095-.094-.095-.094-.189-.094z" class="st35"/><path d="M786.339 692.634c-.756-2.175-2.175-4.066-3.971-5.484 0 0-.095 0-.095-.095a12.193 12.193 0 0 0-3.688-1.797c-.095 0-.284-.095-.378-.095-.284-.095-.567-.095-.851-.189-.189 0-.473-.095-.662-.095h-.189c-.378 0-.662-.095-1.04-.095a11.33 11.33 0 0 0-6.808 2.269c-.284.189-.473.378-.756.567 12.102-5.482 18.438 5.014 18.438 5.014z" class="st34"/><path d="M786.339 692.634c-.756-2.175-2.175-4.066-3.971-5.484 0 0-.095 0-.095-.095a12.193 12.193 0 0 0-3.688-1.797c-.095 0-.284-.095-.378-.095-.284-.095-.567-.095-.851-.189-.189 0-.473-.095-.662-.095h-.189c-.378 0-.662-.095-1.04-.095a11.33 11.33 0 0 0-6.808 2.269c-.284.189-.473.378-.756.567 12.102-5.482 18.438 5.014 18.438 5.014z" class="st35"/><path d="M777.45 707.763c-.284 0-.473.095-.756.095.284 0 .567 0 .756-.095zm-5.39-.284c.095 0 .284.095.378.095 1.418.378 2.837.473 4.161.284-.378 0-.756.095-1.135.095a12.902 12.902 0 0 1-3.404-.474zm-.094-.094c-.567-.189-1.229-.473-1.702-.756.473.378 1.04.567 1.702.756zm-3.12-1.513a11.505 11.505 0 0 1-4.539-6.335c-.095-.095-.095-.189-.095-.189a11.776 11.776 0 0 0 4.634 6.524zm1.04.662c-.284-.189-.567-.284-.756-.473.283.189.472.284.756.473z" class="st36"/><path d="M768.846 705.872c.095.095.189.095.284.189.284.189.473.284.756.473.095.095.189.095.284.189.567.284 1.135.567 1.702.756h.095c1.04.378 2.269.473 3.404.473.378 0 .756 0 1.135-.095h.095c.284 0 .473-.095.756-.095 2.364-.473 4.633-1.702 6.335-3.404-12.482 7.943-18.628-3.31-19.384-4.728a12.647 12.647 0 0 0 4.538 6.242z" class="st34"/><path d="M768.846 705.872c.095.095.189.095.284.189.284.189.473.284.756.473.095.095.189.095.284.189.567.284 1.135.567 1.702.756h.095c1.04.378 2.269.473 3.404.473.378 0 .756 0 1.135-.095h.095c.284 0 .473-.095.756-.095 2.364-.473 4.633-1.702 6.335-3.404-12.482 7.943-18.628-3.31-19.384-4.728a12.647 12.647 0 0 0 4.538 6.242z" class="st36"/><path d="M281.116 775.088c.095.189.189.284.284.473-.095-.189-.189-.378-.284-.473zm-.756-1.134c.095.189.284.284.378.473-.094-.19-.284-.284-.378-.473zm-21.843 5.484c-1.135 6.714 3.499 13.049 10.118 14.089 3.877.662 7.659-.662 10.307-3.12-3.026 2.742-7.281 3.971-11.536 2.837-4.444-1.229-7.565-4.633-8.699-8.699 0 0 6.525 14.373 20.803 5.295 1.607-1.702 2.742-3.971 3.12-6.43.378-2.175.095-4.255-.567-6.146-.662-.946-7.186-10.78-19.384-5.295-2.082 1.795-3.689 4.443-4.162 7.469zm23.261-3.215c0 .095.095.095.095.189 0 0-.095-.094-.095-.189zm-2.175-3.215c.095.095.189.189.284.378-.094-.094-.189-.189-.284-.378z" class="st34"/><path d="M281.4 775.561c.095.189.284.473.378.756-.094-.283-.283-.567-.378-.756zm-8.794-6.241c2.837.473 5.201 1.797 6.997 3.782-1.513-1.608-3.499-2.931-5.768-3.499-4.066-1.135-8.227 0-11.252 2.553.095 0 .189-.095.189-.095 2.648-2.268 6.146-3.308 9.834-2.741zm7.281 4.066c.189.189.284.378.473.567-.095-.189-.284-.378-.473-.567zm.851 1.04c.095.189.284.378.378.567-.094-.188-.283-.378-.378-.567zm1.513 2.932c-.095-.284-.284-.662-.378-.946.094.284.189.567.378.946z" class="st35"/><path d="M282.156 777.263c-.095-.284-.189-.567-.378-.851 0-.095-.095-.095-.095-.189-.095-.284-.284-.473-.378-.756-.095-.189-.189-.284-.284-.473-.095-.189-.284-.378-.378-.567s-.284-.284-.378-.473c-.189-.189-.284-.378-.473-.567-.095-.095-.189-.189-.284-.378-1.797-1.891-4.161-3.31-6.997-3.782-3.593-.567-7.186.473-9.834 2.648 12.293-5.297 18.912 4.443 19.479 5.388z" class="st34"/><path d="M282.156 777.263c-.095-.284-.189-.567-.378-.851 0-.095-.095-.095-.095-.189-.095-.284-.284-.473-.378-.756-.095-.189-.189-.284-.284-.473-.095-.189-.284-.378-.378-.567s-.284-.284-.378-.473c-.189-.189-.284-.378-.473-.567-.095-.095-.189-.189-.284-.378-1.797-1.891-4.161-3.31-6.997-3.782-3.593-.567-7.186.473-9.834 2.648 12.293-5.297 18.912 4.443 19.479 5.388z" class="st35"/><path d="m279.036 790.407.567-.567-.567.567z" class="st36"/><path d="M258.801 784.544c1.135 4.066 4.255 7.47 8.699 8.699 4.255 1.135 8.51-.094 11.536-2.837l.567-.567c-14.278 9.078-20.802-5.295-20.802-5.295z" class="st34"/><path d="M258.801 784.544c1.135 4.066 4.255 7.47 8.699 8.699 4.255 1.135 8.51-.094 11.536-2.837l.567-.567c-14.278 9.078-20.802-5.295-20.802-5.295z" class="st36"/><path d="m119.422 828.041 2.553-.567c-.756.188-1.701.378-2.553.567zm-8.131 2.742c.851-.378 1.607-.662 2.458-1.04-.851.378-1.702.662-2.458 1.04zm2.458-1.04zm46.617 83.778c.662-.567 1.324-1.04 1.986-1.607-.662.567-1.324 1.134-1.986 1.607zm-29.691-86.804c-2.837 0-5.673.284-8.416.756 6.714-1.135 13.805-.946 20.897.946 16.169 4.255 28.178 16.264 33.284 30.92 0 0-22.788-38.107-66.758-24.869.473.946.946 1.986 1.418 2.931 13.616 27.233 29.88 52.29 48.319 74.984 2.08-1.135 4.255-2.364 6.43-3.782-1.135 1.135-2.269 2.269-3.499 3.31 10.307-8.888 16.831-22.032 16.831-36.688.002-26.76-21.746-48.508-48.506-48.508zm-21.748 5.2 1.702-.851-1.702.851z" class="st34"/><path d="M119.233 828.041c.095 0 .189 0 .189-.095 0 .095-.094.095-.189.095zm-8.604 3.025c.189-.095.473-.189.662-.284-.284.095-.473.19-.662.284zm3.12-1.323zm8.321-2.27h.284-.284zm-13.616 4.634c.095-.095.284-.095.378-.189-.095-.001-.189.094-.378.189z" class="st35"/><path d="M176.441 859.339c-5.106-14.656-17.115-26.665-33.284-30.92-6.997-1.891-14.089-2.175-20.897-.946h-.284l-2.553.567c-.095 0-.189 0-.189.095a52.708 52.708 0 0 0-5.484 1.702c-.851.284-1.607.662-2.458 1.04-.189.095-.473.189-.662.284l-1.702.851c-.095.095-.284.095-.378.189.378.756.756 1.607 1.135 2.364 43.967-13.333 66.756 24.774 66.756 24.774z" class="st34"/><path d="M176.441 859.339c-5.106-14.656-17.115-26.665-33.284-30.92-6.997-1.891-14.089-2.175-20.897-.946h-.284l-2.553.567c-.095 0-.189 0-.189.095a52.708 52.708 0 0 0-5.484 1.702c-.851.284-1.607.662-2.458 1.04-.189.095-.473.189-.662.284l-1.702.851c-.095.095-.284.095-.378.189.378.756.756 1.607 1.135 2.364 43.967-13.333 66.756 24.774 66.756 24.774z" class="st35"/><path d="M162.352 911.913z" class="st36"/><path d="M165.85 908.604c-2.175 1.418-4.35 2.648-6.43 3.782.284.378.662.756.946 1.229.662-.567 1.324-1.04 1.986-1.608 1.229-1.134 2.364-2.268 3.498-3.403z" class="st34"/><path d="M165.85 908.604c-2.175 1.418-4.35 2.648-6.43 3.782.284.378.662.756.946 1.229.662-.567 1.324-1.04 1.986-1.608 1.229-1.134 2.364-2.268 3.498-3.403z" class="st36"/><path d="m390.425 845.25 2.269.284-2.269-.284zm-2.931-.189c.378 0 .756 0 1.135.095-.379-.095-.757-.095-1.135-.095zm18.628 3.499c-3.971-1.324-8.132-2.269-12.387-2.931 2.742.378 5.579.946 8.321 1.702 1.418.378 2.837.756 4.066 1.229zm-21.749-3.594h-.756 1.229-.473zm64.489 45.672c-2.931-4.728-40.282-60.99-109.214-28.84 10.874-9.456 24.49-15.318 39.052-16.548-35.081 2.837-62.692 32.244-62.692 68.082 0 37.729 30.637 68.365 68.365 68.365 19.29 0 36.688-7.943 49.076-20.803-16.737 17.21-41.984 25.058-66.758 18.439-24.396-6.524-42.173-25.531-48.319-48.319 0 0 36.499 79.618 115.644 29.313 11.631-12.292 18.722-28.84 18.722-46.995.001-7.943-1.418-15.602-3.876-22.694zm-69.878-45.482c1.04-.095 1.986-.095 3.026-.189-1.041.094-2.081.189-3.026.189zm31.771 5.106c.189.095.378.095.473.189-.095-.095-.284-.095-.473-.189zm-4.16-1.608c.567.189 1.229.378 1.797.662-.663-.189-1.23-.473-1.797-.662z" class="st34"/><path d="M382.01 845.061h1.607c-.567-.095-1.135-.095-1.607 0zm-3.31.189h.284-.284zm70.162 45.388c.095.189.189.284.189.284a67.902 67.902 0 0 0-37.823-40.471c17.493 7.47 31.299 22.126 37.634 40.187zm-42.74-42.078c.095 0 .284.095.378.095-.095-.001-.189-.095-.378-.095zm-13.427-3.026c.378 0 .756.095 1.135.189-.379-.189-.757-.189-1.135-.189zm15.696 3.782c.851.284 1.607.662 2.364.946-.756-.379-1.607-.662-2.364-.946zm-19.762-4.16c.567 0 1.229.095 1.797.095-.568-.095-1.23-.095-1.797-.095zm-3.783-.19c.851 0 1.702 0 2.648.095-.946-.095-1.797-.095-2.648-.095z" class="st35"/><path d="M448.862 890.638c-6.335-18.061-20.141-32.622-37.634-40.187-.189-.095-.284-.189-.473-.189-.756-.378-1.607-.662-2.364-.946-.567-.189-1.229-.473-1.797-.662-.095 0-.284-.095-.378-.095-1.324-.473-2.648-.851-3.971-1.229a64.995 64.995 0 0 0-8.321-1.702c-.378-.095-.756-.095-1.135-.189l-2.269-.284c-.567-.095-1.229-.095-1.797-.095-.378 0-.756-.095-1.135-.095-.851 0-1.702-.095-2.648-.095h-2.837c-1.04 0-1.986.095-3.026.189h-.284c-14.562 1.229-28.273 7.186-39.052 16.548 68.839-31.959 106.19 24.303 109.121 29.031z" class="st34"/><path d="M448.862 890.638c-6.335-18.061-20.141-32.622-37.634-40.187-.189-.095-.284-.189-.473-.189-.756-.378-1.607-.662-2.364-.946-.567-.189-1.229-.473-1.797-.662-.095 0-.284-.095-.378-.095-1.324-.473-2.648-.851-3.971-1.229a64.995 64.995 0 0 0-8.321-1.702c-.378-.095-.756-.095-1.135-.189l-2.269-.284c-.567-.095-1.229-.095-1.797-.095-.378 0-.756-.095-1.135-.095-.851 0-1.702-.095-2.648-.095h-2.837c-1.04 0-1.986.095-3.026.189h-.284c-14.562 1.229-28.273 7.186-39.052 16.548 68.839-31.959 106.19 24.303 109.121 29.031z" class="st35"/><path d="m434.016 960.327-.567.567.567-.567z" class="st36"/><path d="M318.372 931.014c6.146 22.788 23.923 41.795 48.319 48.319 24.774 6.619 50.021-1.229 66.758-18.439l.567-.567c-79.145 50.305-115.644-29.313-115.644-29.313z" class="st34"/><path d="M318.372 931.014c6.146 22.788 23.923 41.795 48.319 48.319 24.774 6.619 50.021-1.229 66.758-18.439l.567-.567c-79.145 50.305-115.644-29.313-115.644-29.313z" class="st36"/><path d="M744.922 768.942c-15.602 13.522-25.531 33.568-25.531 55.884 0 6.714.946 13.144 2.553 19.384 2.08 4.255 29.597 59.099 86.048 48.035 21.465-30.069 38.58-62.786 51.156-97.205-11.819-15.413-50.494-55.695-114.226-26.098z" class="st34"/><path d="M812.437 753.435c-24.68-6.619-49.737.095-67.609 15.602 0 0 .094 0 .094-.095 12.954-11.252 29.786-17.966 48.319-17.966 29.407 0 54.749 17.21 66.663 42.078v-.095c-8.982-18.816-25.814-33.662-47.467-39.524z" class="st35"/><path d="M793.241 750.976c-18.439 0-35.365 6.808-48.319 17.966 63.637-29.597 102.406 10.59 114.226 26.003.284-.662.473-1.324.756-1.986-11.914-24.774-37.255-41.983-66.663-41.983z" class="st34"/><path d="M793.241 750.976c-18.439 0-35.365 6.808-48.319 17.966 63.637-29.597 102.406 10.59 114.226 26.003.284-.662.473-1.324.756-1.986-11.914-24.774-37.255-41.983-66.663-41.983z" class="st35"/><path d="M721.945 844.21c-.094-.189-.094-.284-.094-.284 6.619 24.68 25.814 45.199 52.29 52.29 10.023 2.648 20.046 3.215 29.691 1.797l.095-.095c-3.499.473-6.997.756-10.591.756-34.135.001-62.881-23.071-71.391-54.464z" class="st36"/><path d="M721.945 844.21c8.51 31.393 37.161 54.465 71.297 54.465 3.593 0 7.186-.284 10.591-.756 1.418-1.891 2.742-3.782 4.161-5.673-56.452 11.063-83.969-43.781-86.049-48.036z" class="st34"/><path d="M721.945 844.21c8.51 31.393 37.161 54.465 71.297 54.465 3.593 0 7.186-.284 10.591-.756 1.418-1.891 2.742-3.782 4.161-5.673-56.452 11.063-83.969-43.781-86.049-48.036z" class="st36"/><path d="M872.292 449.053c0-29.029-31.015-52.858-68.838-52.858H142.305c-37.918 0-68.838 23.734-68.838 52.858 0 29.124 31.015 52.858 68.838 52.858h661.148c37.824 0 68.839-23.829 68.839-52.858z" class="st34"/><path d="M899.146 438.368c0-31.393-33.19-57.113-73.755-57.113H126.609c-40.565 0-73.755 25.72-73.755 57.113s33.19 57.113 73.755 57.113h698.877c40.47.094 73.66-25.625 73.66-57.113z" class="st32"/><path fill="none" stroke="#e4edf8" stroke-linecap="round" stroke-miterlimit="10" stroke-width="12.731" d="M132.282 406.313h440.829" opacity=".12"/><path fill="none" stroke="#e4edf8" stroke-linecap="round" stroke-miterlimit="10" stroke-width="11.387" d="M604.882 406.313h31.866" opacity=".15"/><path fill="none" stroke="#e3ebf5" stroke-linecap="round" stroke-miterlimit="10" stroke-width="12.731" d="M669.371 406.313H807.52" opacity=".14"/><circle cx="476" cy="668.454" r="131.013" fill="#dde7d7"/><path fill="#5a8d3e" d="M517.669 718.003c-7.215 7.035-17.619 11.395-31.207 13.078v20.203h-18.039v-19.662c-8.901-.482-17.379-2.043-25.434-4.69-8.058-2.644-14.552-5.891-19.481-9.741l9.921-22.007c4.568 3.368 9.921 6.195 16.054 8.478a73.31 73.31 0 0 0 18.941 4.329v-30.124c-8.54-2.043-15.756-4.329-21.646-6.855-5.893-2.526-10.823-6.223-14.792-11.094-3.968-4.87-5.953-11.333-5.953-19.392 0-9.981 3.636-18.549 10.914-25.705 7.275-7.153 17.768-11.514 31.477-13.078V581.72h18.039v19.662c14.792 1.203 26.996 4.87 36.619 11.003l-9.019 22.188c-9.019-5.17-18.219-8.298-27.599-9.38v30.666c8.416 1.925 15.542 4.121 21.376 6.584 5.831 2.466 10.733 6.133 14.701 11.003 3.969 4.871 5.953 11.274 5.953 19.211-.002 9.864-3.609 18.311-10.825 25.346zm-59.167-71.523c2.283 1.925 5.592 3.548 9.921 4.87v-25.615c-4.571 1.082-7.937 2.796-10.102 5.141-2.164 2.345-3.247 5.082-3.247 8.208.001 3.007 1.143 5.473 3.428 7.396zm37.701 56.1c2.165-2.164 3.247-4.749 3.247-7.757 0-3.004-1.113-5.47-3.337-7.396-2.227-1.922-5.443-3.608-9.651-5.05v24.893c4.33-.961 7.577-2.526 9.741-4.69z"/></svg>