<svg xmlns="http://www.w3.org/2000/svg" xml:space="preserve" id="Layer_1" x="0" y="0" version="1.1" viewBox="0 0 940 1000"><style>.st5{fill:#fff}.st10{opacity:.45}.st11{fill:#e4ac23}.st16{fill:#4d9ba4}.st18{fill:#305b61}.st19,.st20{opacity:.6;fill:#183437;enable-background:new}.st20{opacity:.25;fill:#b9b0ca}.st25{fill:#db3737}.st27{fill:#aa7d50}</style><path fill="#fff" stroke="#fff" stroke-miterlimit="10" stroke-width="49.008" d="M622.7 25.4c-60.3 0-114.3 27-150.6 69.6-22.2-26.6-55.5-43.5-92.8-43.5-66.8 0-120.9 54.1-120.9 120.9 0 1.1.1 2.2.1 3.3-6.4-1.1-13-1.6-19.7-1.6-65.9 0-119.3 53.4-119.3 119.3 0 0 238.5 3.3 238.4 3.3h81.2c29.2 72.8 100.3 124.2 183.5 124.2 109.2 0 197.7-88.5 197.7-197.7S731.9 25.4 622.7 25.4z"/><path fill="#fff" stroke="#fff" stroke-miterlimit="10" stroke-width="35.939" d="M865.4 370c91.6 209 4.2 455.5-202.3 558.9C450 1035.5 190.7 949.2 84.1 736c-59.5-118.8-59-252-9.9-365.1"/><path d="M917.5 314c0-33.2-35.1-60.4-78-60.4h-739c-42.9 0-78 27.2-78 60.4s35.1 60.4 78 60.4h739.1c42.8.1 77.9-27.1 77.9-60.4z" class="st5"/><path fill="none" stroke="#fff" stroke-miterlimit="10" stroke-width="35.939" d="M917.5 314c0-33.2-35.1-60.4-78-60.4h-739c-42.9 0-78 27.2-78 60.4s35.1 60.4 78 60.4h739.1c42.8.1 77.9-27.1 77.9-60.4z"/><path fill="#e4ac23" stroke="#e4ac23" stroke-miterlimit="10" stroke-width="13.069" d="M622.7 25.4c-60.3 0-114.3 27-150.6 69.6-22.2-26.6-55.5-43.5-92.8-43.5-66.8 0-120.9 54.1-120.9 120.9 0 1.1.1 2.2.1 3.3-6.4-1.1-13-1.6-19.7-1.6-65.9 0-119.3 53.4-119.3 119.3 0 0 238.5 3.3 238.4 3.3h81.2c29.2 72.8 100.3 124.2 183.5 124.2 109.2 0 197.7-88.5 197.7-197.7S731.9 25.4 622.7 25.4z"/><path fill="#eec41a" d="M622.7 25.4c-60.3 0-114.3 27-150.6 69.6-22.2-26.6-55.5-43.5-92.8-43.5-66.8 0-120.9 54.1-120.9 120.9 0 1.1.1 2.2.1 3.3-6.4-1.1-13-1.6-19.7-1.6-65.9 0-119.3 53.4-119.3 119.3 0 0 238.5 3.3 238.4 3.3h81.2c29.2 72.8 100.3 124.2 183.5 124.2 109.2 0 197.7-88.5 197.7-197.7S731.9 25.4 622.7 25.4z"/><g class="st10"><path d="M493.3 106.3c5.3-6.3 11-12.4 17.2-17.9.8-.7 1.5-1.4 2.3-2.1l2.4-2c1.6-1.3 3.2-2.7 4.9-3.9l5-3.7c1.7-1.2 3.5-2.3 5.2-3.5.9-.6 1.7-1.2 2.6-1.7l2.7-1.6c1.8-1 3.6-2.1 5.5-3.1 3.7-1.9 7.4-3.9 11.3-5.6 7.6-3.6 15.6-6.3 23.8-8.6l6.1-1.6c2.1-.5 4.1-.9 6.2-1.3l3.1-.6c1-.2 2.1-.3 3.1-.5l6.3-.9 6.3-.6 3.2-.3 3.2-.1 6.4-.2 6.4.1c2.1 0 4.2.1 6.4.3 2.1.2 4.2.2 6.3.5l6.3.7 6.3 1c2.1.3 4.2.8 6.3 1.2s4.2.8 6.2 1.4c2.1.5 4.1 1 6.2 1.6l6.1 1.9c8.1 2.7 16 5.9 23.6 9.7 7.6 3.9 14.9 8.2 21.9 13.1s13.5 10.3 19.7 16.1c1.5 1.5 3.1 2.9 4.5 4.4l4.4 4.6 4.2 4.8c1.4 1.6 2.7 3.3 4 4.9 5.2 6.6 10 13.7 14 21 4.1 7.3 7.8 14.9 10.7 22.8.4 1 .7 2 1.1 3l1 3 1 3 .9 3c.6 2 1.2 4 1.7 6l1.4 6.1c.4 2 .8 4.1 1.1 6.1.4 2 .7 4.1.9 6.2.6 4.1.8 8.2 1.1 12.4-.9-4-1.7-8.1-2.8-12-.9-4-2.2-7.9-3.4-11.8-2.6-7.7-5.6-15.3-9.2-22.6l-2.7-5.4-2.9-5.3c-.9-1.8-2-3.5-3.1-5.2l-1.6-2.6c-.5-.9-1.1-1.7-1.7-2.5-1.1-1.7-2.2-3.4-3.4-5l-3.6-4.9c-2.5-3.2-4.9-6.3-7.6-9.3-21-24.2-48.4-42.6-78.8-52.5-7.5-2.6-15.3-4.4-23.1-5.9-7.8-1.6-15.8-2.3-23.7-2.7l-6-.2-6 .1h-3l-3 .2-6 .4-6 .7-3 .3-3 .5c-2 .3-4 .6-5.9 1l-5.9 1.3c-31.3 6.3-60.8 22-85.1 44.3z" class="st11"/></g><g class="st10"><path d="M298.2 123.3c4.6-10.2 11.4-19.7 19.8-27.5 8.3-8 18.4-14.2 29.2-18.5 5.5-2 11.1-3.9 16.9-4.8l2.2-.4c.7-.1 1.5-.2 2.2-.3l4.4-.5c1.5-.1 2.9-.2 4.4-.3 1.5-.1 2.9-.2 4.4-.1 11.8-.1 23.6 2.2 34.7 6.4 22.2 8.4 40.7 25.5 51.2 46.5 5.2 10.5 8.3 21.9 9.3 33.4.9 11.5-.3 23-3.9 33.7 1.1-11.2.7-22.3-1.7-32.9-2.3-10.6-6.2-20.7-11.6-29.9-10.9-18.3-27.8-32.6-47.4-40.1-4.9-1.9-9.9-3.4-15.1-4.4-1.3-.2-2.6-.5-3.9-.7l-3.9-.5-3.9-.4c-1.3-.1-2.6-.1-3.9-.2-10.5-.4-21.1 1.1-31.3 4.2-20.5 5.9-38.8 19.2-52.1 37.3z" class="st11"/></g><g class="st10"><path d="M205.5 197.7c3.9-2.6 8.2-4.4 12.6-5.9 4.5-1.4 9.1-2.3 13.9-2.6 9.4-.6 19.2.6 28.2 3.9 4.5 1.6 8.8 3.8 12.9 6.2l3 2c.5.3 1 .7 1.5 1l1.4 1.1 2.8 2.2 2.6 2.4c.4.4.9.8 1.3 1.2l1.2 1.3c.8.9 1.6 1.7 2.4 2.6.7.9 1.4 1.9 2.1 2.8l1 1.4 1 1.5 1.8 3c.5 1 1.1 2.1 1.6 3.1l.8 1.6.6 1.6 1.2 3.3c-.9-.8-1.7-1.5-2.6-2.3l-1.2-1.2-1.3-1.1c-.9-.7-1.7-1.5-2.5-2.2l-2.6-2.1-1.2-1.1-1.3-1-2.6-2c-1.8-1.2-3.5-2.5-5.3-3.6-3.5-2.4-7.2-4.4-10.9-6.3-1-.4-1.9-.9-2.8-1.3l-1.4-.7-1.4-.6-2.9-1.2-2.9-1.1c-7.8-2.9-16-4.7-24.4-5.7-8.7-.8-17.3-.7-26.6-.2z" class="st11"/></g><g fill="#f7f9e7"><path d="m538.6 127-11.6 6.4-6.4 11.6-6.3-11.6-11.7-6.4 11.7-6.3 6.3-11.6 6.4 11.6z"/><path d="m357.3 192.5-11.6 6.4-6.3 11.6-6.4-11.6-11.6-6.4 11.6-6.4 6.4-11.6 6.3 11.6z" opacity=".8"/><path d="m757.6 212.1-11.7 6.4-6.3 11.6-6.4-11.6-11.6-6.4 11.6-6.3 6.4-11.7 6.3 11.7z" opacity=".95"/></g><path d="M865.4 370c91.6 209 4.2 455.5-202.3 558.9C450 1035.5 190.7 949.2 84.1 736c-59.5-118.8-59-252-9.9-365.1" class="st16"/><path fill="#183437" d="M648 695.8c-211.2 84.7-451.1-17.8-535.9-229-10.1-25.1-17.3-50.6-22.2-76.2-35.1 93.1-37.2 198.9 2.8 298.5 84.7 211.2 324.7 313.8 535.9 229 186.1-74.7 287.7-269.8 251.2-459.7C840.5 562.7 759.6 651 648 695.8z" opacity=".12"/><path d="M141.6 489.1c.4 0 .9 0 1.3.1-.4 0-.8 0-1.3-.1zm-1.8 0h-.6.6zm38.3 89.1c-6.4 6.8-14.6 11.8-23.6 14.4 22-6.4 38.1-26.7 38.1-50.7 0-6.1-1-11.9-2.9-17.4-1.1-1.7-29.9-47.9-84.5-22.4 6.4-5.6 14-9.5 22.2-11.5C104.2 496.2 87 517 87 541.9c0 4.8.6 9.4 1.8 13.7.6 1.3 28.9 61.1 89.3 22.6zm-43.9-88.8c.4 0 .9-.1 1.3-.1-.4 0-.8 0-1.3.1z" class="st18"/><path d="M154.5 592.6c-.8.2-1.7.5-2.5.7.8-.2 1.7-.5 2.5-.7zm-23.4-102.8 1.8-.3-1.8.3zm26 2.2c.8.3 1.5.6 2.3.9-.8-.3-1.5-.6-2.3-.9zm2.9 1.1 2.7 1.2c-.9-.4-1.7-.8-2.7-1.2zm-15.6-3.8c.6.1 1.2.1 1.8.2-.6-.1-1.2-.1-1.8-.2zm2.9.3c.9.1 1.9.3 2.8.5-.9-.2-1.9-.3-2.8-.5zm6.5 1.4c.9.2 1.7.5 2.6.8-.9-.3-1.7-.6-2.6-.8zm-63.5 69.2c-.1-.2-.1-.4-.2-.6 0 .3.1.4.2.6zm37.5-69.7c.8-.2 1.5-.3 2.3-.5-.7.1-1.5.3-2.3.5zm-.6 102.7c-.3-.1-.7-.2-1-.2.4 0 .7.1 1 .2zm2.2.5c-.3-.1-.5-.1-.8-.2.3.1.6.1.8.2zm2.4.4zm-10.1-2.6zm2.5.9c-.1 0-.3-.1-.4-.1.2 0 .3 0 .4.1zm-34.7-34.3c-.1-.2-.2-.5-.2-.7.1.2.2.4.2.7zm60.5 35.6c.3-.1.6-.1.9-.2-.3.1-.6.1-.9.2zm-57.8-28.9s0-.1 0 0c0-.1 0 0 0 0zm-.9-2.1c-.1-.1-.1-.2-.2-.4 0 .1.1.3.2.4zm58.9-72.6c1.1.2 2.1.5 3.2.7-1.1-.2-2.1-.5-3.2-.7zm28.4 16c.6.6 1.1 1.2 1.7 1.9-.6-.7-1.2-1.3-1.7-1.9zm-5.3-5c.1 0 .1 0 0 0 .1 0 .1 0 0 0zm7.1 7.1c.7.8 1.3 1.6 1.9 2.4-.6-.8-1.2-1.6-1.9-2.4zm5.4 7.8zm-9.2-11.9 1.1 1.1c-.3-.4-.7-.7-1.1-1.1zm-13-9.3c.6.3 1.1.6 1.6.9-.5-.4-1-.6-1.6-.9zm11 7.4c.3.3.7.6 1 .9-.3-.3-.7-.6-1-.9zm-5.5-4.2.9.6-.9-.6zm-2.5-1.6c.4.2.8.4 1.1.7-.4-.3-.7-.5-1.1-.7zm17.6 17c.5.8 1.1 1.7 1.5 2.5-.4-.9-.9-1.7-1.5-2.5zm-1.8-2.7c.6.8 1.2 1.6 1.7 2.5-.6-.9-1.1-1.7-1.7-2.5z" class="st18"/><path d="M153.5 490.9h-.1c.1 0 .3.1.4.1-.1 0-.2-.1-.3-.1zm14.2 6.2c.5.3.9.6 1.4.9-.5-.3-.9-.6-1.4-.9zm-8.3-4.2c.2.1.5.2.7.3-.3-.2-.5-.2-.7-.3zm-23.8-3.6c1.2-.1 2.4-.2 3.6-.2-1.2 0-2.4.1-3.6.2zm29.7 6.3c.4.2.9.5 1.3.8-.5-.3-.9-.5-1.3-.8zm-2.6-1.3c.3.1.6.3.9.5-.3-.2-.6-.3-.9-.5zm-22.8-5.2h1.8-1.8zm3 .1c.5 0 1 .1 1.5.1-.5 0-1-.1-1.5-.1zm7.2.9h.1-.1zm-3.9-.6c.4 0 .7.1 1.1.1-.4 0-.7-.1-1.1-.1zm10.2 2.3c.2.1.5.2.7.2-.3-.1-.5-.1-.7-.2zm27.7 21.4c0 .1.1.1.1.2 0-.1-.1-.2-.1-.2zm-1.8-2.6c.1 0 .1.1 0 0 .1.1.1 0 0 0zm3.5 5.3s0 .1 0 0c0 .1 0 0 0 0zM170 498.6c1.1.8 2.3 1.6 3.4 2.5-1.1-.9-2.3-1.7-3.4-2.5zm10.2 9.4c.1.1.1.2.2.2 0-.1-.1-.2-.2-.2zm-2.4-2.8c.3.3.5.6.8.8-.3-.2-.6-.5-.8-.8zm-4.4-4c.4.3.8.7 1.2 1.1-.4-.4-.8-.8-1.2-1.1zm16.3 23.4c0-.1-.1-.2-.1-.3 0 .1 0 .2.1.3zm-14.1-21.5c.4.3.7.7 1 1-.3-.4-.7-.7-1-1zm-42.7-13.5c.4-.1.9-.1 1.3-.2-.4 0-.8.1-1.3.2zm-5.5 1c.1 0 .3-.1.4-.1-.1 0-.3 0-.4.1zm2.8-.6c.3-.1.6-.1 1-.2-.4.1-.7.1-1 .2z" class="st19"/><path d="M189.7 524.5c0-.1-.1-.2-.1-.3-1-2.9-2.3-5.7-3.8-8.3v-.1c-.5-.9-1-1.7-1.5-2.5 0-.1-.1-.1-.1-.2-.5-.8-1.1-1.7-1.7-2.5v-.1c-.6-.8-1.2-1.6-1.9-2.4-.1-.1-.1-.2-.2-.2-.5-.6-1.1-1.3-1.7-1.9-.3-.3-.5-.6-.8-.8l-1.1-1.1-1-1c-.3-.3-.7-.6-1-.9-.4-.4-.8-.7-1.2-1.1-1.1-.9-2.2-1.7-3.4-2.5l-.9-.6c-.5-.3-.9-.6-1.4-.9-.4-.2-.7-.5-1.1-.7-.4-.3-.9-.5-1.3-.8-.5-.3-1.1-.6-1.6-.9-.3-.2-.6-.3-.9-.5l-2.7-1.2c-.2-.1-.4-.2-.7-.3-.8-.3-1.5-.6-2.3-.9-.2-.1-.5-.2-.7-.2-.9-.3-1.7-.5-2.6-.8-.1 0-.3-.1-.4-.1-1.1-.3-2.1-.5-3.2-.7h-.1c-.9-.2-1.9-.3-2.8-.5-.4-.1-.7-.1-1.1-.1-.6-.1-1.2-.1-1.8-.2-.5 0-1-.1-1.5-.1-.4 0-.9 0-1.3-.1h-2.5c-1.2 0-2.4.1-3.6.2-.4 0-.9.1-1.3.1s-.9.1-1.3.2l-1.8.3c-.3.1-.6.1-1 .2-.8.1-1.6.3-2.3.5-.1 0-.3.1-.4.1-8.2 2-15.8 6-22.2 11.5 54.4-25.4 83.2 20.7 84.3 22.4z" class="st18"/><path d="M189.7 524.5c0-.1-.1-.2-.1-.3-1-2.9-2.3-5.7-3.8-8.3v-.1c-.5-.9-1-1.7-1.5-2.5 0-.1-.1-.1-.1-.2-.5-.8-1.1-1.7-1.7-2.5v-.1c-.6-.8-1.2-1.6-1.9-2.4-.1-.1-.1-.2-.2-.2-.5-.6-1.1-1.3-1.7-1.9-.3-.3-.5-.6-.8-.8l-1.1-1.1-1-1c-.3-.3-.7-.6-1-.9-.4-.4-.8-.7-1.2-1.1-1.1-.9-2.2-1.7-3.4-2.5l-.9-.6c-.5-.3-.9-.6-1.4-.9-.4-.2-.7-.5-1.1-.7-.4-.3-.9-.5-1.3-.8-.5-.3-1.1-.6-1.6-.9-.3-.2-.6-.3-.9-.5l-2.7-1.2c-.2-.1-.4-.2-.7-.3-.8-.3-1.5-.6-2.3-.9-.2-.1-.5-.2-.7-.2-.9-.3-1.7-.5-2.6-.8-.1 0-.3-.1-.4-.1-1.1-.3-2.1-.5-3.2-.7h-.1c-.9-.2-1.9-.3-2.8-.5-.4-.1-.7-.1-1.1-.1-.6-.1-1.2-.1-1.8-.2-.5 0-1-.1-1.5-.1-.4 0-.9 0-1.3-.1h-2.5c-1.2 0-2.4.1-3.6.2-.4 0-.9.1-1.3.1s-.9.1-1.3.2l-1.8.3c-.3.1-.6.1-1 .2-.8.1-1.6.3-2.3.5-.1 0-.3.1-.4.1-8.2 2-15.8 6-22.2 11.5 54.4-25.4 83.2 20.7 84.3 22.4z" class="st19"/><path d="M128.6 593.5c-.5-.1-.9-.2-1.4-.3.5.1 1 .2 1.4.3zm-36.4-28.8c-.3-.7-.6-1.3-.9-2 .2.7.5 1.3.9 2zm59.8 28.6c-.4.1-.7.2-1.1.3.3-.2.7-.2 1.1-.3zm-20.3.8c-.8-.1-1.5-.3-2.3-.4.8.1 1.6.3 2.3.4zm-5.6-1.2h.2c-.7-.2-1.4-.4-2-.6.5.3 1.2.4 1.8.6zm28.4-.3zm-30.7-.4c-.7-.2-1.4-.5-2.1-.7.7.3 1.4.5 2.1.7zm-32.7-29.9c-.3-.7-.6-1.4-.8-2.1.2.7.5 1.4.8 2.1zm40.7 31.8c6.2 1 12.3.8 18.2-.4-3.3.6-6.7 1-10.2 1-2.7 0-5.4-.2-8-.6zm-39.6-29.3c5.8 12 16.1 21.8 29.4 26.7-12.9-4.8-23.4-14.4-29.4-26.7zm-3.4-9.2c.2.6.3 1.2.5 1.8-.2-.6-.3-1.2-.5-1.8zm1.3 4.1c-.2-.5-.4-1.1-.5-1.6.1.5.3 1 .5 1.6z" class="st20"/><path d="M152 593.3c.9-.2 1.7-.4 2.5-.7 9-2.6 17.1-7.6 23.6-14.4-60.4 38.5-88.7-21.3-89.3-22.6.2.6.3 1.2.5 1.7.1.2.2.5.2.7.2.5.3 1.1.5 1.6.1.2.1.4.2.6.3.7.5 1.4.8 2.1.1.1.1.2.2.4.3.7.6 1.4.9 2 0 0 0 .1.1.1 5.9 12.3 16.5 21.9 29.4 26.7h.1c.7.3 1.4.5 2.1.7.1 0 .3.1.4.1.7.2 1.4.4 2 .6.3.1.7.2 1 .2.5.1.9.2 1.4.3.3.1.5.1.8.2.8.2 1.5.3 2.3.4h.1c2.6.4 5.3.6 8 .6 3.5 0 6.9-.3 10.2-1 .3-.1.6-.1.9-.2.3 0 .7 0 1.1-.1z" class="st18"/><path d="M152 593.3c.9-.2 1.7-.4 2.5-.7 9-2.6 17.1-7.6 23.6-14.4-60.4 38.5-88.7-21.3-89.3-22.6.2.6.3 1.2.5 1.7.1.2.2.5.2.7.2.5.3 1.1.5 1.6.1.2.1.4.2.6.3.7.5 1.4.8 2.1.1.1.1.2.2.4.3.7.6 1.4.9 2 0 0 0 .1.1.1 5.9 12.3 16.5 21.9 29.4 26.7h.1c.7.3 1.4.5 2.1.7.1 0 .3.1.4.1.7.2 1.4.4 2 .6.3.1.7.2 1 .2.5.1.9.2 1.4.3.3.1.5.1.8.2.8.2 1.5.3 2.3.4h.1c2.6.4 5.3.6 8 .6 3.5 0 6.9-.3 10.2-1 .3-.1.6-.1.9-.2.3 0 .7 0 1.1-.1z" class="st20"/><path d="M632.3 712.2c.1.1.1 0 0 0zm.2.4c-.5-.9-14.2-22.6-40-10.8-5.4 4.6-8.8 11.4-8.8 19.1 0 2.3.3 4.6.9 6.8 1.4 2.9 14.9 27.8 42.3 10.6 4.3-4.5 7-10.6 7-17.3 0-3-.5-5.8-1.4-8.4z" class="st18"/><path d="M632.3 712.2c-2.7-7.4-8.9-13.4-17-15.6-8.4-2.2-16.9 0-23 5.3.1 0 .1-.1.2-.1 4.4-3.7 10.1-6 16.3-6 10.8 0 20 6.8 23.5 16.4zm.2.4c0-.1-.1-.2-.1-.3 0 .1 0 .2.1.3z" class="st19"/><path d="M632.5 712.6c0-.1-.1-.2-.1-.3v-.1c-3.5-9.6-12.7-16.4-23.5-16.4-6.2 0-11.9 2.3-16.3 6 25.7-11.8 39.3 9.9 39.9 10.8z" class="st18"/><path d="M632.5 712.6c0-.1-.1-.2-.1-.3v-.1c-3.5-9.6-12.7-16.4-23.5-16.4-6.2 0-11.9 2.3-16.3 6 25.7-11.8 39.3 9.9 39.9 10.8z" class="st19"/><path d="M608.8 746c-11.5 0-21.2-7.8-24.2-18.3-.1-.2-.1-.3-.1-.3 2.3 8.4 8.8 15.4 17.8 17.8 9.2 2.5 18.6-.5 24.7-7h-.1c-4.5 4.8-11 7.8-18.1 7.8z" class="st20"/><path d="M584.6 727.7c3 10.6 12.7 18.3 24.2 18.3 7.1 0 13.6-3 18.1-7.8-27.4 17.3-40.8-7.6-42.3-10.5z" class="st18"/><path d="M584.6 727.7c3 10.6 12.7 18.3 24.2 18.3 7.1 0 13.6-3 18.1-7.8-27.4 17.3-40.8-7.6-42.3-10.5z" class="st20"/><path d="M679.9 458.6c-.1-.1-.2-.3-.2-.4 0 .2.1.3.2.4zm51.2-28c.1.1.1.2.2.4 0-.2-.1-.3-.2-.4zm-52.8 24.7c-.1-.4-.3-.7-.4-1.1.2.4.3.8.4 1.1zm.9 2c-.2-.5-.4-.9-.6-1.4.2.5.4.9.6 1.4zm-1.4-3.6c-.1-.4-.3-.8-.4-1.2.1.4.2.8.4 1.2zm2.7 6.1s0-.1 0 0c0-.1 0 0 0 0z" class="st18"/><path d="M726.3 465.1c5.2-5.3 8.4-12.5 8.4-20.5 0-3.4-.6-6.7-1.7-9.7-1-1.6-16.8-26-46.4-12.6-6.3 5.4-10.4 13.4-10.4 22.3 0 2.6.4 5.2 1 7.6.6 1.1 16.1 33.4 49.1 12.9zm4.1-35.7c0 .1.1.2.1.2 0-.1 0-.2-.1-.2z" class="st18"/><path d="M730.4 429.4c-3.8-6.2-9.8-11-17.4-13.1-9.7-2.6-19.7 0-26.8 6.2.2-.1.3-.1.5-.2 5.1-4.3 11.7-6.9 18.8-6.9 10.5 0 19.8 5.6 24.9 14zm2.7 5.6c-.5-1.4-1.1-2.7-1.8-4 .7 1.2 1.3 2.5 1.8 4zm-2.5-5.4c.2.3.4.7.6 1-.3-.3-.5-.7-.6-1z" class="st19"/><path d="M733 434.9c-.5-1.4-1.1-2.7-1.7-4-.1-.1-.1-.2-.2-.4-.2-.3-.4-.7-.6-1 0-.1-.1-.2-.1-.2-5.1-8.4-14.4-14-24.9-14-7.2 0-13.7 2.6-18.8 6.9 29.6-13.3 45.4 11.1 46.3 12.7z" class="st18"/><path d="M733 434.9c-.5-1.4-1.1-2.7-1.7-4-.1-.1-.1-.2-.2-.4-.2-.3-.4-.7-.6-1 0-.1-.1-.2-.1-.2-5.1-8.4-14.4-14-24.9-14-7.2 0-13.7 2.6-18.8 6.9 29.6-13.3 45.4 11.1 46.3 12.7z" class="st19"/><path d="M705.5 473.8c-10.6 0-19.8-5.6-25-14 3.8 6.2 9.8 11.1 17.5 13.1 10.7 2.9 21.7-.6 28.8-8.1-.2.1-.4.2-.5.3-5.3 5.4-12.7 8.7-20.8 8.7zm-27.6-19.5c-.1-.2-.1-.4-.2-.5.1.1.2.3.2.5zm2.6 5.4c-.2-.4-.4-.7-.6-1.1.2.4.4.8.6 1.1zm-1.9-3.8c-.1-.2-.1-.4-.2-.6 0 .2.1.4.2.6zm1.1 2.3c-.2-.3-.3-.6-.5-.9.1.3.3.6.5.9zm-2.4-6c0 .1.1.2.1.3 0-.1-.1-.2-.1-.3z" class="st20"/><path d="M677.3 452.2c0 .1 0 .2.1.2.1.4.2.8.4 1.2.1.2.1.4.2.5.1.4.3.7.4 1.1.1.2.1.4.2.6.2.5.4.9.6 1.4.2.3.3.6.5.9.1.1.1.3.2.4.2.4.4.7.6 1.1 5.1 8.4 14.4 14 25 14 8.1 0 15.5-3.3 20.8-8.7-33 20.7-48.5-11.6-49-12.7z" class="st18"/><path d="M677.3 452.2c0 .1 0 .2.1.2.1.4.2.8.4 1.2.1.2.1.4.2.5.1.4.3.7.4 1.1.1.2.1.4.2.6.2.5.4.9.6 1.4.2.3.3.6.5.9.1.1.1.3.2.4.2.4.4.7.6 1.1 5.1 8.4 14.4 14 25 14 8.1 0 15.5-3.3 20.8-8.7-33 20.7-48.5-11.6-49-12.7z" class="st20"/><path d="M591.5 833.7c0 1.1.2 2.1.4 3.2.5.9 7 13.8 20.6 5.1-3 3.1-7.5 4.6-12 3.4-4.2-1.2-7.4-4.4-8.5-8.4 1.4 5.2 6.1 8.9 11.7 8.9 6.7 0 12.2-5.5 12.2-12.2 0-4-1.9-7.6-4.9-9.8 2 1.5 3.4 3.5 4.2 5.8 0 0-6.7-11.2-19.5-5.2-2.6 2.2-4.2 5.5-4.2 9.2zm14.2-12c.3 0 .6.1.9.2-.3-.1-.6-.2-.9-.2zm-10 2.8c.2-.2.5-.4.8-.6-.3.2-.5.4-.8.6z" class="st18"/><path d="M607 822c1.5.4 2.8 1.1 3.9 1.9-1.2-.9-2.5-1.5-3.9-1.9zm-2.2-.4h.2-.2z" class="st18"/><path d="M604.8 821.6c-3.1-.3-6 .6-8.3 2.3 2-1.5 4.5-2.4 7.2-2.4.4 0 .8 0 1.1.1zm.2 0c.2 0 .5.1.7.1-.2-.1-.5-.1-.7-.1zm5.9 2.3zm-4.1-2h-.2c.1 0 .3.1.4.1-.1-.1-.1-.1-.2-.1zm-11.1 2.6z" class="st19"/><path d="M615.2 829.7c-.8-2.3-2.3-4.3-4.2-5.8 0 0-.1 0-.1-.1-1.1-.8-2.5-1.5-3.9-1.9-.1 0-.3-.1-.4-.1-.3-.1-.6-.1-.9-.2-.2 0-.5-.1-.7-.1h-.2c-.4 0-.7-.1-1.1-.1-2.7 0-5.2.9-7.2 2.4-.3.2-.5.4-.8.6 12.8-5.9 19.5 5.3 19.5 5.3z" class="st18"/><path d="M615.2 829.7c-.8-2.3-2.3-4.3-4.2-5.8 0 0-.1 0-.1-.1-1.1-.8-2.5-1.5-3.9-1.9-.1 0-.3-.1-.4-.1-.3-.1-.6-.1-.9-.2-.2 0-.5-.1-.7-.1h-.2c-.4 0-.7-.1-1.1-.1-2.7 0-5.2.9-7.2 2.4-.3.2-.5.4-.8.6 12.8-5.9 19.5 5.3 19.5 5.3z" class="st19"/><path d="M591.9 836.8c0 .1 0 .1.1.2-.1-.1-.1-.1-.1-.2z" class="st20"/><path d="M600.5 845.4c4.5 1.2 9-.3 12-3.4-13.6 8.7-20.1-4.2-20.6-5.1v.1c1.2 4 4.4 7.2 8.6 8.4z" class="st18"/><path d="M600.5 845.4c4.5 1.2 9-.3 12-3.4-13.6 8.7-20.1-4.2-20.6-5.1v.1c1.2 4 4.4 7.2 8.6 8.4z" class="st20"/><path d="M780 597.1c-.1-.1-.2-.1-.3-.2.1.1.2.1.3.2z" class="st18"/><path d="M795.5 595.3c-1.8 1.9-4.1 3.1-6.7 3.6 5.7-1 10.1-6 10.1-12 0-4-1.9-7.6-4.9-9.8 2 1.5 3.4 3.5 4.2 5.8 0 0-6.7-11.1-19.5-5.2-2.6 2.2-4.2 5.5-4.2 9.2 0 1.2.2 2.3.5 3.4.8 1.5 7.3 13.4 20.5 5zM788 599zm-4.9-.4c-.1-.1 0-.1 0 0z" class="st18"/><path d="M778.7 577.7c.2-.2.5-.4.8-.6-.3.2-.5.4-.8.6zm9.1-2.9h.2-.2zm2.2.4c1.5.4 2.8 1.1 3.9 1.9-1.2-.9-2.5-1.5-3.9-1.9zm-1.3-.3c.3 0 .6.1.9.2-.3-.1-.6-.2-.9-.2zm-7.6 22.9c-.1-.1-.2-.1-.3-.2.1.1.2.1.3.2z" class="st18"/><path d="M788 574.8c.2 0 .5.1.7.1-.2-.1-.5-.1-.7-.1zm5.9 2.3zm-15.2.6zm9.1-2.9c-3.1-.3-6 .6-8.3 2.3 2-1.5 4.5-2.4 7.2-2.4.4 0 .8 0 1.1.1zm2 .3h-.2c.1 0 .3.1.4.1-.1-.1-.1-.1-.2-.1z" class="st19"/><path d="M798.2 582.9c-.8-2.3-2.3-4.3-4.2-5.8 0 0-.1 0-.1-.1-1.1-.8-2.5-1.5-3.9-1.9-.1 0-.3-.1-.4-.1-.3-.1-.6-.1-.9-.2-.2 0-.5-.1-.7-.1h-.2c-.4 0-.7-.1-1.1-.1-2.7 0-5.2.9-7.2 2.4-.3.2-.5.4-.8.6 12.8-5.8 19.5 5.3 19.5 5.3z" class="st18"/><path d="M798.2 582.9c-.8-2.3-2.3-4.3-4.2-5.8 0 0-.1 0-.1-.1-1.1-.8-2.5-1.5-3.9-1.9-.1 0-.3-.1-.4-.1-.3-.1-.6-.1-.9-.2-.2 0-.5-.1-.7-.1h-.2c-.4 0-.7-.1-1.1-.1-2.7 0-5.2.9-7.2 2.4-.3.2-.5.4-.8.6 12.8-5.8 19.5 5.3 19.5 5.3z" class="st19"/><path d="M788.8 598.9c-.3 0-.5.1-.8.1.3 0 .6 0 .8-.1zm-5.7-.3c.1 0 .3.1.4.1 1.5.4 3 .5 4.4.3-.4 0-.8.1-1.2.1-1.3 0-2.5-.2-3.6-.5zm-.1-.1c-.6-.2-1.3-.5-1.8-.8.5.4 1.1.6 1.8.8zm-3.3-1.6c-2.3-1.6-4-3.9-4.8-6.7-.1-.1-.1-.2-.1-.2.8 2.9 2.6 5.3 4.9 6.9zm1.1.7c-.3-.2-.6-.3-.8-.5.3.2.5.3.8.5z" class="st20"/><path d="M779.7 596.9c.1.1.2.1.3.2.3.2.5.3.8.5.1.1.2.1.3.2.6.3 1.2.6 1.8.8h.1c1.1.4 2.4.5 3.6.5.4 0 .8 0 1.2-.1h.1c.3 0 .5-.1.8-.1 2.5-.5 4.9-1.8 6.7-3.6-13.2 8.4-19.7-3.5-20.5-5 .9 2.7 2.6 5 4.8 6.6z" class="st18"/><path d="M779.7 596.9c.1.1.2.1.3.2.3.2.5.3.8.5.1.1.2.1.3.2.6.3 1.2.6 1.8.8h.1c1.1.4 2.4.5 3.6.5.4 0 .8 0 1.2-.1h.1c.3 0 .5-.1.8-.1 2.5-.5 4.9-1.8 6.7-3.6-13.2 8.4-19.7-3.5-20.5-5 .9 2.7 2.6 5 4.8 6.6z" class="st20"/><path d="M263.9 670.1c.1.2.2.3.3.5-.1-.2-.2-.4-.3-.5zm-.8-1.2c.1.2.3.3.4.5-.1-.2-.3-.3-.4-.5zm-23.1 5.8c-1.2 7.1 3.7 13.8 10.7 14.9 4.1.7 8.1-.7 10.9-3.3-3.2 2.9-7.7 4.2-12.2 3-4.7-1.3-8-4.9-9.2-9.2 0 0 6.9 15.2 22 5.6 1.7-1.8 2.9-4.2 3.3-6.8.4-2.3.1-4.5-.6-6.5-.7-1-7.6-11.4-20.5-5.6-2.2 1.9-3.9 4.7-4.4 7.9zm24.6-3.4c0 .1.1.1.1.2 0 0-.1-.1-.1-.2zm-2.3-3.4c.1.1.2.2.3.4-.1-.1-.2-.2-.3-.4z" class="st18"/><path d="M264.2 670.6c.1.2.3.5.4.8-.1-.3-.3-.6-.4-.8zm-9.3-6.6c3 .5 5.5 1.9 7.4 4-1.6-1.7-3.7-3.1-6.1-3.7-4.3-1.2-8.7 0-11.9 2.7.1 0 .2-.1.2-.1 2.8-2.4 6.5-3.5 10.4-2.9zm7.7 4.3c.2.2.3.4.5.6-.1-.2-.3-.4-.5-.6zm.9 1.1c.1.2.3.4.4.6-.1-.2-.3-.4-.4-.6zm1.6 3.1c-.1-.3-.3-.7-.4-1 .1.3.2.6.4 1z" class="st19"/><path d="M265 672.4c-.1-.3-.2-.6-.4-.9 0-.1-.1-.1-.1-.2-.1-.3-.3-.5-.4-.8-.1-.2-.2-.3-.3-.5-.1-.2-.3-.4-.4-.6-.1-.2-.3-.3-.4-.5-.2-.2-.3-.4-.5-.6-.1-.1-.2-.2-.3-.4-1.9-2-4.4-3.5-7.4-4-3.8-.6-7.6.5-10.4 2.8 13-5.6 20 4.7 20.6 5.7z" class="st18"/><path d="M265 672.4c-.1-.3-.2-.6-.4-.9 0-.1-.1-.1-.1-.2-.1-.3-.3-.5-.4-.8-.1-.2-.2-.3-.3-.5-.1-.2-.3-.4-.4-.6-.1-.2-.3-.3-.4-.5-.2-.2-.3-.4-.5-.6-.1-.1-.2-.2-.3-.4-1.9-2-4.4-3.5-7.4-4-3.8-.6-7.6.5-10.4 2.8 13-5.6 20 4.7 20.6 5.7z" class="st19"/><path d="m261.7 686.3.6-.6-.6.6z" class="st20"/><path d="M240.3 680.1c1.2 4.3 4.5 7.9 9.2 9.2 4.5 1.2 9-.1 12.2-3l.6-.6c-15.1 9.6-22-5.6-22-5.6z" class="st18"/><path d="M240.3 680.1c1.2 4.3 4.5 7.9 9.2 9.2 4.5 1.2 9-.1 12.2-3l.6-.6c-15.1 9.6-22-5.6-22-5.6z" class="st20"/><path d="m92.9 726.1 2.7-.6c-.8.2-1.8.4-2.7.6zm-8.6 2.9c.9-.4 1.7-.7 2.6-1.1-.9.4-1.8.7-2.6 1.1zm2.6-1.1zm49.3 88.6c.7-.6 1.4-1.1 2.1-1.7-.7.6-1.4 1.2-2.1 1.7z" class="st18"/><path d="M104.8 724.7c-3 0-6 .3-8.9.8 7.1-1.2 14.6-1 22.1 1 17.1 4.5 29.8 17.2 35.2 32.7 0 0-24.1-40.3-70.6-26.3.5 1 1 2.1 1.5 3.1 14.4 28.8 31.6 55.3 51.1 79.3 2.2-1.2 4.5-2.5 6.8-4-1.2 1.2-2.4 2.4-3.7 3.5 10.9-9.4 17.8-23.3 17.8-38.8 0-28.3-23-51.3-51.3-51.3zm-23 5.5 1.8-.9-1.8.9z" class="st18"/><path d="M92.7 726.1c.1 0 .2 0 .2-.1 0 .1-.1.1-.2.1zm-9.1 3.2c.2-.1.5-.2.7-.3-.3.1-.5.2-.7.3zm3.3-1.4zm8.8-2.4h.3-.3zm-14.4 4.9c.1-.1.3-.1.4-.2-.1 0-.2.1-.4.2z" class="st19"/><path d="M153.2 759.2c-5.4-15.5-18.1-28.2-35.2-32.7-7.4-2-14.9-2.3-22.1-1h-.3l-2.7.6c-.1 0-.2 0-.2.1-2 .5-3.9 1.1-5.8 1.8-.9.3-1.7.7-2.6 1.1-.2.1-.5.2-.7.3l-1.8.9c-.1.1-.3.1-.4.2.4.8.8 1.7 1.2 2.5 46.5-14.1 70.6 26.2 70.6 26.2z" class="st18"/><path d="M153.2 759.2c-5.4-15.5-18.1-28.2-35.2-32.7-7.4-2-14.9-2.3-22.1-1h-.3l-2.7.6c-.1 0-.2 0-.2.1-2 .5-3.9 1.1-5.8 1.8-.9.3-1.7.7-2.6 1.1-.2.1-.5.2-.7.3l-1.8.9c-.1.1-.3.1-.4.2.4.8.8 1.7 1.2 2.5 46.5-14.1 70.6 26.2 70.6 26.2z" class="st19"/><path d="M138.3 814.8z" class="st20"/><path d="M142 811.3c-2.3 1.5-4.6 2.8-6.8 4 .3.4.7.8 1 1.3.7-.6 1.4-1.1 2.1-1.7 1.3-1.2 2.5-2.4 3.7-3.6z" class="st18"/><path d="M142 811.3c-2.3 1.5-4.6 2.8-6.8 4 .3.4.7.8 1 1.3.7-.6 1.4-1.1 2.1-1.7 1.3-1.2 2.5-2.4 3.7-3.6z" class="st20"/><path d="m379.5 744.3 2.4.3-2.4-.3zm-3.1-.2c.4 0 .8 0 1.2.1-.4-.1-.8-.1-1.2-.1zm19.7 3.7c-4.2-1.4-8.6-2.4-13.1-3.1 2.9.4 5.9 1 8.8 1.8 1.5.4 3 .8 4.3 1.3zm-23-3.8h-.8 1.3-.5zm68.2 48.3c-3.1-5-42.6-64.5-115.5-30.5 11.5-10 25.9-16.2 41.3-17.5-37.1 3-66.3 34.1-66.3 72 0 39.9 32.4 72.3 72.3 72.3 20.4 0 38.8-8.4 51.9-22-17.7 18.2-44.4 26.5-70.6 19.5-25.8-6.9-44.6-27-51.1-51.1 0 0 38.6 84.2 122.3 31 12.3-13 19.8-30.5 19.8-49.7 0-8.4-1.5-16.5-4.1-24zm-73.9-48.1c1.1-.1 2.1-.1 3.2-.2-1.1.1-2.2.2-3.2.2zm33.6 5.4c.2.1.4.1.5.2-.1-.1-.3-.1-.5-.2zm-4.4-1.7c.6.2 1.3.4 1.9.7-.7-.2-1.3-.5-1.9-.7z" class="st18"/><path d="M370.6 744.1h1.7c-.6-.1-1.2-.1-1.7 0zm-3.5.2h.3-.3zm74.2 48c.1.2.2.3.2.3a71.81 71.81 0 0 0-40-42.8c18.5 7.9 33.1 23.4 39.8 42.5zm-45.2-44.5c.1 0 .3.1.4.1-.1 0-.2-.1-.4-.1zm-14.2-3.2c.4 0 .8.1 1.2.2-.4-.2-.8-.2-1.2-.2zm16.6 4c.9.3 1.7.7 2.5 1-.8-.4-1.7-.7-2.5-1zm-20.9-4.4c.6 0 1.3.1 1.9.1-.6-.1-1.3-.1-1.9-.1zm-4-.2c.9 0 1.8 0 2.8.1-1-.1-1.9-.1-2.8-.1z" class="st19"/><path d="M441.3 792.3c-6.7-19.1-21.3-34.5-39.8-42.5-.2-.1-.3-.2-.5-.2-.8-.4-1.7-.7-2.5-1-.6-.2-1.3-.5-1.9-.7-.1 0-.3-.1-.4-.1-1.4-.5-2.8-.9-4.2-1.3-2.9-.8-5.9-1.4-8.8-1.8-.4-.1-.8-.1-1.2-.2l-2.4-.3c-.6-.1-1.3-.1-1.9-.1-.4 0-.8-.1-1.2-.1-.9 0-1.8-.1-2.8-.1h-3c-1.1 0-2.1.1-3.2.2h-.3c-15.4 1.3-29.9 7.6-41.3 17.5 72.8-33.8 112.3 25.7 115.4 30.7z" class="st18"/><path d="M441.3 792.3c-6.7-19.1-21.3-34.5-39.8-42.5-.2-.1-.3-.2-.5-.2-.8-.4-1.7-.7-2.5-1-.6-.2-1.3-.5-1.9-.7-.1 0-.3-.1-.4-.1-1.4-.5-2.8-.9-4.2-1.3-2.9-.8-5.9-1.4-8.8-1.8-.4-.1-.8-.1-1.2-.2l-2.4-.3c-.6-.1-1.3-.1-1.9-.1-.4 0-.8-.1-1.2-.1-.9 0-1.8-.1-2.8-.1h-3c-1.1 0-2.1.1-3.2.2h-.3c-15.4 1.3-29.9 7.6-41.3 17.5 72.8-33.8 112.3 25.7 115.4 30.7z" class="st19"/><path d="m425.6 866-.6.6.6-.6z" class="st20"/><path d="M303.3 835c6.5 24.1 25.3 44.2 51.1 51.1 26.2 7 52.9-1.3 70.6-19.5l.6-.6c-83.7 53.2-122.3-31-122.3-31z" class="st18"/><path d="M303.3 835c6.5 24.1 25.3 44.2 51.1 51.1 26.2 7 52.9-1.3 70.6-19.5l.6-.6c-83.7 53.2-122.3-31-122.3-31z" class="st20"/><path d="M754.4 663.6c-16.5 14.3-27 35.5-27 59.1 0 7.1 1 13.9 2.7 20.5 2.2 4.5 31.3 62.5 91 50.8 22.7-31.8 40.8-66.4 54.1-102.8-12.5-16.3-53.4-58.9-120.8-27.6z" class="st18"/><path d="M825.8 647.2c-26.1-7-52.6.1-71.5 16.5 0 0 .1 0 .1-.1 13.7-11.9 31.5-19 51.1-19 31.1 0 57.9 18.2 70.5 44.5v-.1c-9.5-19.9-27.3-35.6-50.2-41.8z" class="st19"/><path d="M805.5 644.6c-19.5 0-37.4 7.2-51.1 19 67.3-31.3 108.3 11.2 120.8 27.5.3-.7.5-1.4.8-2.1-12.6-26.2-39.4-44.4-70.5-44.4z" class="st18"/><path d="M805.5 644.6c-19.5 0-37.4 7.2-51.1 19 67.3-31.3 108.3 11.2 120.8 27.5.3-.7.5-1.4.8-2.1-12.6-26.2-39.4-44.4-70.5-44.4z" class="st19"/><path d="M730.1 743.2c-.1-.2-.1-.3-.1-.3 7 26.1 27.3 47.8 55.3 55.3 10.6 2.8 21.2 3.4 31.4 1.9l.1-.1c-3.7.5-7.4.8-11.2.8-36.1 0-66.5-24.4-75.5-57.6z" class="st20"/><path d="M730.1 743.2c9 33.2 39.3 57.6 75.4 57.6 3.8 0 7.6-.3 11.2-.8 1.5-2 2.9-4 4.4-6-59.7 11.7-88.8-46.3-91-50.8z" class="st18"/><path d="M730.1 743.2c9 33.2 39.3 57.6 75.4 57.6 3.8 0 7.6-.3 11.2-.8 1.5-2 2.9-4 4.4-6-59.7 11.7-88.8-46.3-91-50.8z" class="st20"/><path d="M889.1 325.3c0-30.7-32.8-55.9-72.8-55.9H117.1c-40.1 0-72.8 25.1-72.8 55.9s32.8 55.9 72.8 55.9h699.2c40 0 72.8-25.2 72.8-55.9z" class="st18"/><path d="M917.5 314c0-33.2-35.1-60.4-78-60.4h-739c-42.9 0-78 27.2-78 60.4s35.1 60.4 78 60.4h739.1c42.8.1 77.9-27.1 77.9-60.4z" class="st16"/><path fill="none" stroke="#e3ebf7" stroke-linecap="round" stroke-miterlimit="10" stroke-width="13.463" d="M106.5 280.1h466.2" opacity=".12"/><path fill="none" stroke="#e3ebf7" stroke-linecap="round" stroke-miterlimit="10" stroke-width="12.042" d="M606.3 280.1H640" opacity=".15"/><path fill="none" stroke="#e2e9f3" stroke-linecap="round" stroke-miterlimit="10" stroke-width="13.463" d="M674.5 280.1h146.1" opacity=".14"/><path d="M562 431c-58 0-105 47-105 105s47 105 105 105 105-47 105-105-47-105-105-105zm64.9 115.8v7.5h-15v33.4l-6.4-.2-6.5-.2v-32.9h-19.2l-3 8.5c-1.7 4.8-4.3 12.2-5.9 16.5l-2.9 7.9h-12l-2.9-7.9c-1.6-4.3-4.2-11.7-5.9-16.5l-3-8.5H525v32.9l-6.4.2-6.5.2v-33.4h-15v-7.5h15V526h-15v-7.5h15v-34.2l9.3.2 9.2.2 4.9 13.3c2.7 7.3 5.4 14.9 6.2 16.8l1.3 3.6h38l3.6-9.8c1.9-5.3 4.8-12.9 6.2-16.8l2.7-7.1 9.3-.2 9.2-.2v34.2h15v7.5h-15v20.8h14.9z" class="st25"/><path d="M626.9 526v-7.5h-15v-34.2l-9.2.2-9.3.2-2.7 7.1c-1.4 3.9-4.2 11.5-6.2 16.8l-3.6 9.8H543l-1.3-3.6c-.8-1.9-3.5-9.5-6.2-16.8l-4.9-13.3-9.2-.2-9.3-.2v34.2h-15v7.5h15v20.8h-15v7.5h15v33.4l6.5-.2 6.4-.2v-32.9h19.2l3 8.5c1.7 4.8 4.3 12.2 5.9 16.5l2.9 7.9h12l2.9-7.9c1.6-4.3 4.2-11.7 5.9-16.5l3-8.5H599v32.9l6.5.2 6.4.2v-33.4h15v-7.5h-15V526h15zm-93.8 20.9H525v-21h4.1c3.1 0 4.3.3 4.7 1.4.3.8 1.9 4.9 3.4 9.1 1.5 4.1 3 8.2 3.4 9 .6 1.3-.1 1.5-7.5 1.5zm41.3-10.1-3.6 9.7h-17.5l-3.5-9.2c-2-5.1-3.6-9.7-3.6-10.3-.1-.8 3.6-1 15.9-1 8.8 0 16 .2 16 .6-.1.3-1.8 4.9-3.7 10.2zm24.6 10.1h-8.1c-7.4 0-8.1-.2-7.5-1.5.3-.8 1.9-4.9 3.4-9 1.5-4.2 3-8.2 3.4-9.1.4-1.1 1.6-1.4 4.7-1.4h4.1v21z" class="st5"/><path d="M537.2 536.4c-1.5-4.2-3-8.2-3.4-9.1-.4-1.1-1.6-1.4-4.7-1.4H525v21h8.1c7.4 0 8.1-.2 7.5-1.5-.4-.8-1.9-4.9-3.4-9zm24.8-10.5c-12.3 0-16 .2-15.9 1 0 .6 1.6 5.2 3.6 10.3l3.5 9.2h17.5l3.6-9.7c1.9-5.3 3.6-9.9 3.6-10.3.1-.3-7.1-.5-15.9-.5zm28.2 1.4c-.3.8-1.9 4.9-3.4 9.1-1.5 4.1-3 8.2-3.4 9-.6 1.3.1 1.5 7.5 1.5h8.1v-21h-4.1c-3.2 0-4.3.3-4.7 1.4z" class="st25"/><circle cx="381" cy="535" r="105" opacity=".15"/><circle cx="379" cy="536" r="103" class="st27"/><path d="M379 435.1c55.6 0 100.9 45.3 100.9 100.9S434.6 636.9 379 636.9 278.1 591.6 278.1 536 323.4 435.1 379 435.1m0-4.1c-58 0-105 47-105 105s47 105 105 105 105-47 105-105-47-105-105-105z" class="st27"/><path d="M352.1 473.7v30.8c4.7-2.5 9.3-5.1 13.6-7.6 4.4-2.6 8.8-5.2 13.2-7.6l14.5 8c4.8 2.7 9.6 5.4 14.5 8.2l9.3 5.6V555l-4.7 2.8-4.9 2.8c-9.5 5.4-19 10.9-28.4 16.5-12.7-7.4-25.5-14.8-38.3-22.1v-45.2l.1-21.6c0-7.2 0-14.1-.1-20.7v-.3c3.9 2.1 7.7 4.3 11.2 6.5zm27 28.3c-4.6 2.5-9.1 5.1-13.5 7.7l-13.5 7.9v30.8l13.5 7.8c4.5 2.6 8.9 5.2 13.3 7.8 4.6-2.5 9.1-5.1 13.5-7.7l13.5-7.9v-30.8c-4.6-2.7-9-5.2-13.4-7.8-4.3-2.6-8.8-5.2-13.4-7.8zm-36.4 83.4v5.7l2.6-1.4 2.5-1.4 2.7 1.5 2.7 1.5 1.7 1v8.1l-.9.5-.9.5-2.7 1.5-2.7 1.6-3.5-2.1-3.5-2.1V584c.7.5 1.3.9 2 1.4zm5 5.2c-.8.5-1.7.9-2.5 1.4l-2.5 1.5v5.7l2.5 1.4 2.5 1.4c.8-.5 1.7-.9 2.5-1.4l2.5-1.5v-5.7l-2.5-1.4-2.5-1.4zm16-2.4 3.5 2.1 3.5 2.1v8.1h-.1l-.1-.1-.9-.5-.9-.5v-5.7l-.1-.1-.2-.1-.2-.1h-.1l-2.2-1.3-2.2-1.3-2.5 1.4-2.5 1.5v5.7l2.3 1.4 2.4 1.4.1.1h.2l.2-.1 1.3-.7 1.2-.7 1.1.6 1 .6-2.5 1.4-2.5 1.4-3.5-2.1-3.5-2.1v-8.1l3.5-2 3.7-2.3zm7.1 12.2v2.4l-2.2-1.2-2.1-1.2 1-.6 1-.6 1 .6 1.3.6zm8.2-12 2.7 1.5 2.7 1.6.9.5.8.5-1 .5-1 .6c-.8-.5-1.7-.9-2.5-1.4l-2.5-1.4c-.8.5-1.7.9-2.5 1.4l-2.6 1.4.4.2.4.2 2.7 1.5c1.7.9 3.3 1.8 4.9 2.8 1.3.7 2.6 1.4 3.8 2.2l-3.5 2-3.5 2-3.5-2c-1.2-.7-2.3-1.4-3.5-2l1-.6 1.1-.6 2.5 1.4 2.5 1.4 1.4-.8 1.4-.8-.6-.4-.6-.4-4.4-2.5-4.4-2.6v-2.4l3.5-2.1c1.1-.3 2.3-1 3.4-1.7zm22.5 3.8-3.5 2.1-3.5 2.1-1-.6-1-.6 2.5-1.4 2.5-1.4-1.4-.8-1.4-.8c-.8.5-1.7.9-2.5 1.4l-2.5 1.5v5.7l2.5 1.4 2.5 1.4 2.5-1.4 2.5-1.4 2.1 1.2-3.5 2.1-3.5 2-3.5-2-3.5-2v-8.1l3-1.8 3.1-1.8.4-.3.4-.2h.3l.3.2 3.2 1.9c.9.4 2 1 3 1.6zm13.8-6.6 2.1-1.2v16.3l-3.5 2.1-3.5 2.1-2.7-1.6-2.7-1.5-.9-.5-.9-.5v-8.1l1.7-1 2.7-1.5 2.7-1.5 2.5 1.4 2.6 1.4-.1-5.9zm-5 5.3-2.5 1.4-2.5 1.4v5.7l2.5 1.5 2.5 1.4 2.5-1.4 2.5-1.4v-5.7l-2.5-1.5-2.5-1.4z" class="st5"/></svg>