<svg xmlns="http://www.w3.org/2000/svg" viewBox="0 0 952 1082"><style>.st5{fill:#fff}.st10{opacity:.45}.st11{fill:#e7ad22}.st15{opacity:.2}.st18,.st19,.st20{stroke:#000;stroke-miterlimit:10}.st19{opacity:.3;enable-background:new}.st20{fill:none;stroke-width:10.6772;stroke-linecap:round}.st21{opacity:.1;stroke:#000;enable-background:new;stroke-miterlimit:10}.st24{fill:#948fc4}.st25{opacity:.3;fill:#635ea8;enable-background:new}.st26{fill:none;stroke:#5f6062;stroke-width:10.6772;stroke-linecap:round;stroke-miterlimit:10}.st27{fill:#9590c5}.st28{fill:#635da8}.st29{fill:#e7e5ea}.st30{opacity:.1;fill:#635da8;enable-background:new}.st34{fill:#46739d}.st35,.st36{opacity:.5;fill:#172734;enable-background:new}.st36{opacity:.25;fill:#bab1cb}.st44{fill:#c2bbaf}</style><path fill="#fff" stroke="#fff" stroke-miterlimit="10" stroke-width="45.802" d="M618.3 178c-56.4 0-106.8 25.2-140.7 65-20.7-24.9-51.9-40.7-86.7-40.7-62.4 0-113 50.6-113 113 0 1 .1 2.1.1 3.1-6-1-12.1-1.5-18.4-1.5-61.6 0-111.5 49.9-111.5 111.5 0 0 222.9 3.1 222.8 3.1h75.9c27.3 68 93.7 116.1 171.5 116.1 102.1 0 184.8-82.7 184.8-184.8S720.4 178 618.3 178z"/><path fill="#fff" stroke="#fff" stroke-miterlimit="10" stroke-width="33.588" d="M845.2 500c85.6 195.4 3.9 425.8-189.1 522.3-199.2 99.7-441.5 19-541.1-180.2-55.6-111.1-55-235.6-9.2-341.2"/><path d="M893.8 447.7c0-31-32.8-56.4-72.9-56.4H130.3c-40.1 0-72.9 25.4-72.9 56.4s32.8 56.4 72.9 56.4H821c40 .1 72.8-25.4 72.8-56.4z" class="st5"/><path fill="none" stroke="#fff" stroke-miterlimit="10" stroke-width="33.588" d="M893.8 447.7c0-31-32.8-56.4-72.9-56.4H130.3c-40.1 0-72.9 25.4-72.9 56.4s32.8 56.4 72.9 56.4H821c40 .1 72.8-25.4 72.8-56.4z"/><path fill="#e7ad22" stroke="#e7ad22" stroke-miterlimit="10" stroke-width="12.214" d="M618.3 178c-56.4 0-106.8 25.2-140.7 65-20.7-24.9-51.9-40.7-86.7-40.7-62.4 0-113 50.6-113 113 0 1 .1 2.1.1 3.1-6-1-12.1-1.5-18.4-1.5-61.6 0-111.5 49.9-111.5 111.5 0 0 222.9 3.1 222.8 3.1h75.9c27.3 68 93.7 116.1 171.5 116.1 102.1 0 184.8-82.7 184.8-184.8S720.4 178 618.3 178z"/><path fill="#f1c616" d="M618.3 178c-56.4 0-106.8 25.2-140.7 65-20.7-24.9-51.9-40.7-86.7-40.7-62.4 0-113 50.6-113 113 0 1 .1 2.1.1 3.1-6-1-12.1-1.5-18.4-1.5-61.6 0-111.5 49.9-111.5 111.5 0 0 222.9 3.1 222.8 3.1h75.9c27.3 68 93.7 116.1 171.5 116.1 102.1 0 184.8-82.7 184.8-184.8S720.4 178 618.3 178z"/><g class="st10"><path d="M497.4 253.5c5-5.9 10.3-11.6 16.1-16.7.7-.7 1.4-1.3 2.1-2l2.2-1.9c1.5-1.2 3-2.5 4.6-3.6l4.7-3.5c1.6-1.1 3.3-2.1 4.9-3.3.8-.6 1.6-1.1 2.4-1.6l2.5-1.5c1.7-.9 3.4-2 5.1-2.9 3.5-1.8 6.9-3.6 10.6-5.2 7.1-3.4 14.6-5.9 22.2-8l5.7-1.5c2-.5 3.8-.8 5.8-1.2l2.9-.6c.9-.2 2-.3 2.9-.5l5.9-.8 5.9-.6 3-.3 3-.1 6-.2 6 .1c2 0 3.9.1 6 .3 2 .2 3.9.2 5.9.5l5.9.7 5.9.9c2 .3 3.9.7 5.9 1.1 2 .4 3.9.7 5.8 1.3 2 .5 3.8.9 5.8 1.5l5.7 1.8c7.6 2.5 15 5.5 22.1 9.1s13.9 7.7 20.5 12.2c6.5 4.6 12.6 9.6 18.4 15 1.4 1.4 2.9 2.7 4.2 4.1l4.1 4.3 3.9 4.5c1.3 1.5 2.5 3.1 3.7 4.6 4.9 6.2 9.3 12.8 13.1 19.6 3.8 6.8 7.3 13.9 10 21.3.4.9.7 1.9 1 2.8l.9 2.8.9 2.8.8 2.8c.6 1.9 1.1 3.7 1.6 5.6l1.3 5.7c.4 1.9.7 3.8 1 5.7.4 1.9.7 3.8.8 5.8.6 3.8.7 7.7 1 11.6-.8-3.7-1.6-7.6-2.6-11.2-.8-3.7-2.1-7.4-3.2-11-2.4-7.2-5.2-14.3-8.6-21.1l-2.5-5-2.7-5c-.8-1.7-1.9-3.3-2.9-4.9l-1.5-2.4c-.5-.8-1-1.6-1.6-2.3-1-1.6-2.1-3.2-3.2-4.7l-3.4-4.6c-2.3-3-4.6-5.9-7.1-8.7-19.6-22.6-45.2-39.8-73.6-49.1-7-2.4-14.3-4.1-21.6-5.5-7.3-1.5-14.8-2.1-22.1-2.5l-5.6-.2-5.6.1h-2.8l-2.8.2-5.6.4-5.6.7c-.9.1-1.9.2-2.8.3l-2.7.5c-1.9.3-3.7.6-5.5.9l-5.5 1.2c-29.3 5.9-56.9 20.7-79.6 41.4z" class="st11"/></g><g class="st10"><path d="M315.1 269.5c4.3-9.5 10.7-18.4 18.5-25.7 7.8-7.5 17.2-13.3 27.3-17.3 5.1-1.9 10.4-3.6 15.8-4.5l2.1-.4 2.1-.3 4.1-.5c1.4-.1 2.7-.2 4.1-.3s2.7-.2 4.1-.1c11-.1 22.1 2.1 32.4 6 20.7 7.9 38 23.8 47.9 43.5 4.9 9.8 7.8 20.5 8.7 31.2.8 10.7-.3 21.5-3.6 31.5 1-10.5.7-20.8-1.6-30.7-2.1-9.9-5.8-19.3-10.8-27.9-10.2-17.1-26-30.5-44.3-37.5-4.6-1.8-9.3-3.2-14.1-4.1-1.2-.2-2.4-.5-3.6-.7l-3.6-.5-3.6-.4c-1.2-.1-2.4-.1-3.6-.2-9.8-.4-19.7 1-29.3 3.9-19.5 5.6-36.6 18.1-49 35z" class="st11"/></g><g class="st10"><path d="M228.4 339c3.6-2.4 7.7-4.1 11.8-5.5 4.2-1.3 8.5-2.1 13-2.4 8.8-.6 17.9.6 26.4 3.6 4.2 1.5 8.2 3.6 12.1 5.8l2.8 1.9c.5.3.9.7 1.4.9l1.3 1 2.6 2.1 2.4 2.2c.4.4.8.7 1.2 1.1l1.1 1.2c.7.8 1.5 1.6 2.2 2.4s1.3 1.8 2 2.6l.9 1.3.9 1.4 1.7 2.8c.5.9 1 2 1.5 2.9l.7 1.5.6 1.5c.4 1 .7 2.1 1.1 3.1l-2.4-2.1-1.1-1.1-1.2-1c-.8-.7-1.6-1.4-2.3-2.1l-2.4-2-1.1-1-1.2-.9-2.4-1.9c-1.7-1.1-3.3-2.3-5-3.4-3.3-2.2-6.7-4.1-10.2-5.9-.9-.4-1.8-.8-2.6-1.2l-1.3-.7-1.3-.6-2.7-1.1-2.7-1c-7.3-2.7-15-4.4-22.8-5.3-8.2-.6-16.3-.5-25-.1z" class="st11"/></g><g fill="#f9fae6"><path d="m539.7 273-10.8 5.8-6 11-5.9-11-10.9-5.8 10.9-6 5.9-10.9 6 10.9z"/><path d="m370.3 334.2-10.8 5.9-5.9 10.8-6-10.8-10.9-5.9 10.9-6 6-10.9 5.9 10.9z" opacity=".8"/><path d="m744.4 352.5-10.9 5.9-5.9 10.8-6-10.8-10.8-5.9 10.8-6 6-10.8 5.9 10.8z" opacity=".95"/></g><g class="st15"><path d="M104.2 312.7c.9 3.5 5.1 26.4-33.5 28.5-2.8.2-5.4-1.6-6.3-4.3L8.7 159.5c-1-3.1.6-6.3 3.5-7.6l19.3-8.2c3.2-1.4 6.9.2 8.2 3.5L103.9 312c.1.2.2.5.3.7z" class="st18"/><path d="M104.2 312.7c.9 3.5 5.1 26.4-33.5 28.5-2.8.2-5.4-1.6-6.3-4.3L8.7 159.5c-1-3.1.6-6.3 3.5-7.6l19.3-8.2c3.2-1.4 6.9.2 8.2 3.5L103.9 312c.1.2.2.5.3.7z" class="st19"/><path d="M90.1 327.5c22-31.8 78-55.5 168.2-59.7 90.1-4.2 115.6-60.3 115.6-60.3L313.3 16.8s-25.5 56.1-115.6 60.3c-77.6 3.6-129.9 21.7-157 46.9-7.2 6.7-9.8 17-6.8 26.3l56.2 177.2z" class="st18"/><path d="M141.7 275.9c29.4-14.3 61.6-20.6 92.8-29.3 26.3-7.3 58.1-16.6 72.4-42.1 6.7-12 9.8-26.5 12.2-39.9 2.7-15.6 3.2-31.5 2.6-47.3-1.3-32.4 1.1-66.4-8.4-97.7-.2-.5-.3-1-.6-1.3.4-.8.7-1.3.7-1.3L374 207.7s-25.5 56.1-115.6 60.3-146.2 27.9-168.2 59.7l-1.8-5.8c12.3-20.3 31.7-35.5 53.3-46z" class="st19"/><path d="m314.6 9 214.5 660" class="st20"/><path d="M175.2 210.9c-.9 0-1.8-.1-2.6-.1.9 0 1.8.1 2.6.1zm53.2-18.2c-.4.3-1 .8-2 1.6.9-.7 1.6-1.2 2-1.6z" class="st18"/><path d="M129.3 190c6.1 18.7 19.9 32.6 36.7 39.5.2-7.8 3.5-16 5.5-20.3-.5-1.4-1.1-3.9-1-7.2 1.1 1.9 5.7 1.9 9.4 1.6 5.5-.5 12.5-2.1 19.7-4.4 7.2-2.3 13.8-5.2 18.5-8 3.2-1.9 6.9-4.6 6.7-6.8 2 2.6 3 4.9 3.4 6.4 4.2 2.3 11.7 7 16.4 13.1 9.6-15.5 12.6-34.9 6.5-53.6-10.9-33.6-47.1-52.1-80.7-41.1s-52 47.2-41.1 80.8zm7.8-15.1c-2.2-6.7 1.4-14 8.1-16.3 1.2-16 12.5-30.7 29.5-36.2s34.8-.3 45.2 11.9c6.8-2.1 14 1.6 16.1 8.4 2.1 6.5-1.1 13.4-7.3 16-.1 8.6-3.1 17.1-8.5 24 2.3.2 3.7.7 3.9 1.6.9 2.8-8.8 9.2-24.7 14.4s-27.6 5.7-28.5 2.9c-.3-.9.5-2.1 2.2-3.6-8.4-2.5-15.8-7.5-20.9-14.4-6.4 1.4-13-2.3-15.1-8.7z" class="st18"/><path d="M226.9 146.9c1.3 3.9 1.9 7.8 1.8 11.8 6.1-2.6 9.4-9.5 7.3-16-2.2-6.7-9.4-10.5-16.1-8.4 3.1 3.6 5.5 7.9 7 12.6zm2.3 1.6c-.4-1.2.3-2.6 1.5-3s2.6.3 3 1.5-.3 2.6-1.5 3-2.6-.2-3-1.5zm-2.1-6.5c-.4-1.2.3-2.6 1.5-3s2.6.3 3 1.5-.3 2.6-1.5 3c-1.2.5-2.6-.2-3-1.5z" class="st18"/><circle cx="229.4" cy="141.3" r="2.4" class="st18"/><circle cx="231.5" cy="147.8" r="2.4" class="st18"/><path d="M234.6 200.2c1.7 2.9 3.6 6.5 5.4 10.4.8-.9 1.5-1.9 2.2-2.9-.1-.2-.3-.4-.4-.6-1.9-2.7-4.4-5-7.2-6.9zm-63 9.1c-2 4.3-5.4 12.5-5.5 20.3 1.4.6 2.8 1.1 4.2 1.5v-.8c-.1-3.3.6-6.6 1.8-9.8.3 3.4.9 7.4 1.8 11.6h.1c2.2-5 4.6-12.7 3.7-21.2h-2.3c-.9 0-1.8 0-2.6-.1h-.3c-.3 0-.6-.6-.9-1.5z" class="st18"/><path d="M170.3 230.3v.8c1.2.4 2.3.7 3.5 1-.9-4.3-1.4-8.3-1.8-11.6-1.1 3.2-1.8 6.6-1.7 9.8zm28.8-32.8c-8.8 2.9-17.8 2.8-25.8.5-1.7 1.5-2.5 2.7-2.2 3.6.9 2.8 12.6 2.3 28.5-2.9s25.6-11.6 24.7-14.4c-.3-.9-1.7-1.4-3.9-1.6-5.2 6.6-12.5 11.9-21.3 14.8zm38.1 11.4c1 .7 1.9 1.2 2.8 1.8v-.1c-1.8-4-3.7-7.5-5.4-10.4 2.8 1.9 5.3 4.3 7.2 6.9.1.2.3.4.4.6.9-1.2 1.7-2.5 2.5-3.7-4.7-6.2-12.2-10.9-16.4-13.1.3 1 .4 1.6.4 1.6s-.1.1-.3.2c-.5.4-1.1.9-2 1.6-.6.4-1.2.9-1.9 1.4 3.6 6.2 8.8 10.6 12.7 13.2zm-53.4 1.7c.9 9.1-1.4 17.2-3.7 22.9 9.7 1.6 20 .9 30-2.3 10-3.3 18.7-8.7 25.6-15.7-5.2-3.2-11.8-8.4-16.5-16.3-7.8 4.6-20 10.1-35.4 11.4z" class="st18"/><path d="M177.6 210.9c.9 8.5-1.5 16.3-3.7 21.2 2.1.5 4.1 1 6.3 1.3 2.3-5.6 4.6-13.8 3.7-22.9 15.4-1.3 27.5-6.8 35.4-11.5 4.6 7.8 11.3 13.1 16.5 16.3 1.5-1.5 2.9-3.1 4.3-4.8-.9-.5-1.8-1.1-2.8-1.8-3.9-2.6-9.1-7-12.7-13.2.7-.5 1.4-1 1.9-1.4 1-.8 1.7-1.3 2-1.6.2-.1.3-.2.3-.2s-.1-.6-.4-1.6c-.4-1.5-1.4-3.8-3.4-6.4.2 2.2-3.5 4.9-6.7 6.8-4.7 2.8-11.3 5.6-18.5 8-7.2 2.3-14.2 3.9-19.7 4.4-3.8.4-8.3.3-9.4-1.6-.1 3.3.5 5.7 1 7.2.3 1 .6 1.5.6 1.5h.3c.9.1 1.8.1 2.6.1.8.2 1.6.2 2.4.2zm-40.5-36c2.1 6.5 8.8 10.1 15.3 8.6-2.3-3.1-4.2-6.7-5.4-10.6-1.5-4.7-2.1-9.6-1.7-14.3-6.8 2.3-10.4 9.5-8.2 16.3zm6.8-5.8c.4 1.2-.3 2.6-1.5 3s-2.6-.3-3-1.5.3-2.6 1.5-3 2.6.2 3 1.5zm-2.4 7.9c-.4-1.2.3-2.6 1.5-3s2.6.3 3 1.5-.3 2.6-1.5 3c-1.3.5-2.6-.2-3-1.5z" class="st18"/><circle cx="143.7" cy="176.3" r="2.4" class="st18"/><circle cx="141.6" cy="169.8" r="2.4" class="st18"/><path d="M146.9 172.9c1.3 3.9 3.1 7.4 5.4 10.6 5.1 7 12.5 12 20.9 14.4 8.1 2.4 17.1 2.4 25.8-.5 8.8-2.9 16-8.2 21.2-14.8 5.4-6.9 8.4-15.3 8.5-24 0-3.9-.6-7.9-1.8-11.8-1.5-4.7-4-9-7-12.6-10.3-12.2-28.1-17.5-45.2-11.9s-28.3 20.3-29.5 36.2c-.4 4.8.2 9.7 1.7 14.4zm5.4-3.2c-5.2-16 5.9-33.9 24.8-40 18.9-6.1 38.4 1.8 43.5 17.8s2.1 31.3-24.8 40-38.3-1.9-43.5-17.8z" class="st18"/><path d="M152.3 169.7c5.2 16 16.7 26.6 43.5 17.8s29.9-24 24.8-40c-4.7-14.5-21.2-22.4-38.2-19.2l-2.7.6c-.6.2-1.2.3-1.8.5l-.9.3-.9.3c-.6.2-1.2.4-1.7.6-.6.2-1.1.5-1.7.7-.5.2-1 .5-1.5.7-.3.1-.6.3-.9.5-.3.1-.5.3-.8.4-.3.2-.6.3-.9.5-.7.4-1.3.8-1.9 1.2l-.9.6c-11.5 8.1-17.4 21.4-13.8 33.7.2.3.2.5.3.8z" class="st18"/><path d="M234.6 200.2c1.7 2.9 3.6 6.5 5.4 10.4.8-.9 1.5-1.9 2.2-2.9-.1-.2-.3-.4-.4-.6-1.9-2.7-4.4-5-7.2-6.9zm-64.3 30.1v.8c1.2.4 2.3.7 3.5 1-.9-4.3-1.4-8.3-1.8-11.6-1.1 3.2-1.8 6.6-1.7 9.8z" class="st21"/></g><g class="st15"><path d="M847.2 312.7c-.9 3.5-5.1 26.4 33.5 28.5 2.8.2 5.4-1.6 6.3-4.3l55.6-177.3c1-3.1-.6-6.3-3.5-7.6l-19.3-8.2c-3.2-1.4-6.9.2-8.2 3.5L847.4 312c-.1.2-.1.5-.2.7z" class="st18"/><path d="M847.2 312.7c-.9 3.5-5.1 26.4 33.5 28.5 2.8.2 5.4-1.6 6.3-4.3l55.6-177.3c1-3.1-.6-6.3-3.5-7.6l-19.3-8.2c-3.2-1.4-6.9.2-8.2 3.5L847.4 312c-.1.2-.1.5-.2.7z" class="st19"/><path d="M861.2 327.5c-22-31.8-78-55.5-168.2-59.7-90.1-4.2-115.6-60.3-115.6-60.3L638 16.8s25.5 56.1 115.6 60.3c77.6 3.6 129.9 21.7 157 46.9 7.2 6.7 9.8 17 6.8 26.3l-56.2 177.2z" class="st18"/><path d="M809.6 275.9c-29.4-14.3-61.6-20.6-92.8-29.3-26.3-7.3-58.1-16.6-72.4-42.1-6.7-12-9.8-26.5-12.2-39.9-2.7-15.6-3.2-31.5-2.6-47.3 1.3-32.4-1.1-66.4 8.4-97.7.2-.5.3-1 .6-1.3-.4-.8-.7-1.3-.7-1.3l-60.6 190.7s25.5 56.1 115.6 60.3 146.2 27.9 168.2 59.7l1.8-5.8c-12.2-20.3-31.7-35.5-53.3-46z" class="st19"/><path d="M636.7 9 422.2 669" class="st20"/><path d="M778.8 210.8c-.9 0-1.8.1-2.6.1.8 0 1.7-.1 2.6-.1zm-53.9-16.5c-1-.8-1.7-1.3-2-1.6.5.4 1.1.9 2 1.6z" class="st18"/><path d="M780.9 109.3c-33.6-10.9-69.8 7.5-80.7 41.1-6.1 18.7-3.1 38.1 6.5 53.6 4.7-6.2 12.2-10.9 16.4-13.1.4-1.5 1.4-3.8 3.4-6.4-.2 2.2 3.5 4.9 6.7 6.8 4.7 2.8 11.3 5.6 18.5 8s14.2 3.9 19.7 4.4c3.8.4 8.3.3 9.4-1.6.1 3.3-.5 5.7-1 7.2 2 4.3 5.3 12.5 5.5 20.3 16.9-6.9 30.7-20.9 36.7-39.5 10.9-33.7-7.5-69.9-41.1-80.8zm18.1 74.2c-5.1 7-12.5 12-20.9 14.4 1.7 1.5 2.5 2.7 2.2 3.6-.9 2.8-12.6 2.3-28.5-2.9s-25.6-11.6-24.7-14.4c.3-.9 1.7-1.4 3.9-1.6-5.4-6.9-8.4-15.3-8.5-24-6.1-2.6-9.4-9.5-7.3-16 2.2-6.7 9.4-10.5 16.1-8.4 10.3-12.2 28.1-17.5 45.2-11.9s28.3 20.3 29.5 36.2c6.7 2.3 10.3 9.5 8.1 16.3-1.9 6.5-8.6 10.2-15.1 8.7z" class="st18"/><path d="M731.4 134.3c-6.8-2.1-14 1.6-16.1 8.4-2.1 6.5 1.1 13.4 7.3 16 0-3.9.6-7.9 1.8-11.8 1.6-4.7 4-9 7-12.6zM719.1 150c-1.2-.4-1.9-1.7-1.5-3 .4-1.2 1.7-1.9 3-1.5 1.2.4 1.9 1.7 1.5 3-.4 1.3-1.7 1.9-3 1.5zm2.1-6.4c-1.2-.4-1.9-1.7-1.5-3 .4-1.2 1.7-1.9 3-1.5s1.9 1.7 1.5 3c-.4 1.2-1.7 1.9-3 1.5z" class="st18"/><circle cx="722" cy="141.3" r="2.4" class="st18"/><circle cx="719.9" cy="147.8" r="2.4" class="st18"/><path d="M709.6 207.1c-.1.2-.3.4-.4.6.7 1 1.4 1.9 2.2 2.9 1.8-4 3.7-7.5 5.4-10.4-2.8 1.9-5.4 4.2-7.2 6.9zm69.5 3.7h-.3c-.9 0-1.8.1-2.6.1h-2.3c-.9 8.5 1.5 16.3 3.7 21.2h.1c.9-4.3 1.4-8.3 1.8-11.6 1.1 3.2 1.8 6.6 1.8 9.8v.8l4.2-1.5c-.2-7.8-3.5-16-5.5-20.3-.6.9-.9 1.5-.9 1.5z" class="st18"/><path d="M779.3 220.5c-.3 3.4-.8 7.4-1.8 11.6 1.2-.3 2.3-.7 3.5-1v-.8c.2-3.2-.6-6.6-1.7-9.8zM731 182.7c-2.3.2-3.7.7-3.9 1.6-.9 2.8 8.8 9.2 24.7 14.4s27.6 5.7 28.5 2.9c.3-.9-.5-2.1-2.2-3.6-8.1 2.4-17.1 2.4-25.8-.5-8.9-2.9-16.1-8.2-21.3-14.8zm-4.1 13c-.7-.5-1.4-1-1.9-1.4-.9-.7-1.6-1.2-2-1.6-.2-.1-.3-.2-.3-.2s.1-.6.4-1.6c-4.2 2.3-11.7 7-16.4 13.1.8 1.3 1.6 2.5 2.5 3.7.1-.2.3-.4.4-.6 1.8-2.7 4.4-5 7.2-6.9-1.7 2.9-3.6 6.5-5.4 10.4v.1c.9-.5 1.8-1.1 2.8-1.8 3.9-2.6 9-7 12.7-13.2zm5.2 3.4c-4.6 7.8-11.3 13.1-16.5 16.3 6.9 7 15.6 12.5 25.6 15.7 10 3.3 20.3 3.9 30 2.3-2.3-5.6-4.6-13.8-3.7-22.9-15.4-1.2-27.5-6.7-35.4-11.4z" class="st18"/><path d="M776.1 210.9c.9 0 1.8-.1 2.6-.1h.3s.3-.5.6-1.5c.5-1.4 1.1-3.9 1-7.2-1.1 1.9-5.7 1.9-9.4 1.6-5.5-.5-12.5-2.1-19.7-4.4-7.2-2.3-13.8-5.2-18.5-8-3.2-1.9-6.9-4.6-6.7-6.8-2 2.6-3 4.9-3.4 6.4-.3 1-.4 1.6-.4 1.6s.1.1.3.2c.3.3 1 .9 2 1.6.6.4 1.2.9 1.9 1.4-3.6 6.2-8.8 10.6-12.7 13.2-1 .7-1.9 1.2-2.8 1.8 1.3 1.7 2.8 3.2 4.3 4.8 5.2-3.2 11.8-8.4 16.5-16.3 7.8 4.7 20 10.1 35.4 11.5-.9 9.1 1.4 17.2 3.7 22.9 2.1-.3 4.2-.8 6.3-1.3-2.2-5-4.6-12.7-3.7-21.2.9-.2 1.6-.2 2.4-.2zm30.1-52.3c.4 4.7-.2 9.6-1.7 14.3-1.3 3.9-3.1 7.4-5.4 10.6 6.5 1.5 13.2-2.2 15.3-8.6 2.1-6.8-1.6-14-8.2-16.3zm4.3 8.9c1.2.4 1.9 1.7 1.5 3-.4 1.2-1.7 1.9-3 1.5-1.2-.4-1.9-1.7-1.5-3 .4-1.2 1.7-1.9 3-1.5zm-3.6 11.1c-1.2-.4-1.9-1.7-1.5-3 .4-1.2 1.7-1.9 3-1.5s1.9 1.7 1.5 3c-.4 1.2-1.8 1.9-3 1.5z" class="st18"/><circle cx="807.6" cy="176.3" r="2.4" class="st18"/><circle cx="809.7" cy="169.8" r="2.4" class="st18"/><path d="M806.2 158.6c-1.2-16-12.5-30.7-29.5-36.2s-34.8-.3-45.2 11.9c-3.1 3.6-5.5 7.9-7 12.6-1.3 3.9-1.9 7.8-1.8 11.8.1 8.6 3.1 17.1 8.5 24 5.1 6.7 12.4 11.9 21.2 14.8 8.8 2.9 17.8 2.8 25.8.5 8.4-2.5 15.8-7.5 20.9-14.4 2.3-3.1 4.2-6.7 5.4-10.6 1.5-4.8 2-9.7 1.7-14.4zm-50.7 28.9c-26.9-8.7-29.9-24-24.8-40 5.2-16 24.7-23.9 43.5-17.8 18.9 6.1 29.9 24 24.8 40-5.2 15.9-16.6 26.5-43.5 17.8z" class="st18"/><path d="M799.2 168.9c3.6-12.3-2.3-25.6-13.8-33.7l-.9-.6c-.6-.4-1.3-.8-1.9-1.2-.3-.2-.6-.4-.9-.5-.3-.1-.5-.3-.8-.4-.3-.2-.6-.3-.9-.5-.5-.2-1-.5-1.5-.7s-1.1-.5-1.7-.7c-.6-.2-1.1-.4-1.7-.6l-.9-.3-.9-.3c-.6-.2-1.2-.3-1.8-.5l-2.7-.6c-17.1-3.2-33.5 4.7-38.2 19.2-5.2 16-2.1 31.3 24.8 40s38.4-1.8 43.5-17.8c.2-.3.3-.5.3-.8z" class="st18"/><path d="M709.6 207.1c-.1.2-.3.4-.4.6.7 1 1.4 1.9 2.2 2.9 1.8-4 3.7-7.5 5.4-10.4-2.8 1.9-5.4 4.2-7.2 6.9zm69.7 13.4c-.3 3.4-.8 7.4-1.8 11.6 1.2-.3 2.3-.7 3.5-1v-.8c.2-3.2-.6-6.6-1.7-9.8z" class="st21"/></g><path d="M101.2 312.7c.9 3.5 5.1 26.4-33.5 28.5-2.8.2-5.4-1.6-6.3-4.3L5.7 159.5c-1-3.1.6-6.3 3.5-7.6l19.3-8.2c3.2-1.4 6.9.2 8.2 3.5L100.9 312c.1.2.2.5.3.7z" class="st24"/><path d="M101.2 312.7c.9 3.5 5.1 26.4-33.5 28.5-2.8.2-5.4-1.6-6.3-4.3L5.7 159.5c-1-3.1.6-6.3 3.5-7.6l19.3-8.2c3.2-1.4 6.9.2 8.2 3.5L100.9 312c.1.2.2.5.3.7z" class="st25"/><path d="M87.1 327.5c22-31.8 78-55.5 168.2-59.7 90.1-4.2 115.6-60.3 115.6-60.3L310.3 16.8s-25.5 56.1-115.6 60.3c-77.6 3.6-129.9 21.7-157 46.9-7.2 6.7-9.8 17-6.8 26.3l56.2 177.2z" class="st24"/><path d="M138.7 275.9c29.4-14.3 61.6-20.6 92.8-29.3 26.3-7.3 58.1-16.6 72.4-42.1 6.7-12 9.8-26.5 12.2-39.9 2.7-15.6 3.2-31.5 2.6-47.3-1.3-32.4 1.1-66.4-8.4-97.7-.2-.5-.3-1-.6-1.3.4-.8.7-1.3.7-1.3L371 207.7s-25.5 56.1-115.6 60.3-146.2 27.9-168.2 59.7l-1.8-5.8c12.3-20.3 31.7-35.5 53.3-46z" class="st25"/><path d="m311.6 9 214.5 660" class="st26"/><path d="M172.2 210.9c-.9 0-1.8-.1-2.6-.1.9 0 1.8.1 2.6.1zm53.2-18.2c-.4.3-1 .8-2 1.6.9-.7 1.6-1.2 2-1.6z" class="st27"/><path d="M126.3 190c6.1 18.7 19.9 32.6 36.7 39.5.2-7.8 3.5-16 5.5-20.3-.5-1.4-1.1-3.9-1-7.2 1.1 1.9 5.7 1.9 9.4 1.6 5.5-.5 12.5-2.1 19.7-4.4 7.2-2.3 13.8-5.2 18.5-8 3.2-1.9 6.9-4.6 6.7-6.8 2 2.6 3 4.9 3.4 6.4 4.2 2.3 11.7 7 16.4 13.1 9.6-15.5 12.6-34.9 6.5-53.6-10.9-33.6-47.1-52.1-80.7-41.1s-52 47.2-41.1 80.8zm7.8-15.1c-2.2-6.7 1.4-14 8.1-16.3 1.2-16 12.5-30.7 29.5-36.2s34.8-.3 45.2 11.9c6.8-2.1 14 1.6 16.1 8.4 2.1 6.5-1.1 13.4-7.3 16-.1 8.6-3.1 17.1-8.5 24 2.3.2 3.7.7 3.9 1.6.9 2.8-8.8 9.2-24.7 14.4s-27.6 5.7-28.5 2.9c-.3-.9.5-2.1 2.2-3.6-8.4-2.5-15.8-7.5-20.9-14.4-6.4 1.4-13-2.3-15.1-8.7z" class="st27"/><path d="M223.9 146.9c1.3 3.9 1.9 7.8 1.8 11.8 6.1-2.6 9.4-9.5 7.3-16-2.2-6.7-9.4-10.5-16.1-8.4 3.1 3.6 5.5 7.9 7 12.6zm2.3 1.6c-.4-1.2.3-2.6 1.5-3s2.6.3 3 1.5-.3 2.6-1.5 3-2.6-.2-3-1.5zm-2.1-6.5c-.4-1.2.3-2.6 1.5-3s2.6.3 3 1.5-.3 2.6-1.5 3c-1.2.5-2.6-.2-3-1.5z" class="st28"/><circle cx="226.4" cy="141.3" r="2.4" class="st29"/><circle cx="228.5" cy="147.8" r="2.4" class="st29"/><path d="M231.6 200.2c1.7 2.9 3.6 6.5 5.4 10.4.8-.9 1.5-1.9 2.2-2.9-.1-.2-.3-.4-.4-.6-1.9-2.7-4.4-5-7.2-6.9zm-63 9.1c-2 4.3-5.4 12.5-5.5 20.3 1.4.6 2.8 1.1 4.2 1.5v-.8c-.1-3.3.6-6.6 1.8-9.8.3 3.4.9 7.4 1.8 11.6h.1c2.2-5 4.6-12.7 3.7-21.2h-2.3c-.9 0-1.8 0-2.6-.1h-.3c-.3 0-.6-.6-.9-1.5z" class="st29"/><path d="M167.3 230.3v.8c1.2.4 2.3.7 3.5 1-.9-4.3-1.4-8.3-1.8-11.6-1.1 3.2-1.8 6.6-1.7 9.8z" class="st29"/><path d="M196.1 197.5c-8.8 2.9-17.8 2.8-25.8.5-1.7 1.5-2.5 2.7-2.2 3.6.9 2.8 12.6 2.3 28.5-2.9s25.6-11.6 24.7-14.4c-.3-.9-1.7-1.4-3.9-1.6-5.2 6.6-12.5 11.9-21.3 14.8z" class="st28"/><path d="M234.2 208.9c1 .7 1.9 1.2 2.8 1.8v-.1c-1.8-4-3.7-7.5-5.4-10.4 2.8 1.9 5.3 4.3 7.2 6.9.1.2.3.4.4.6.9-1.2 1.7-2.5 2.5-3.7-4.7-6.2-12.2-10.9-16.4-13.1.3 1 .4 1.6.4 1.6s-.1.1-.3.2c-.5.4-1.1.9-2 1.6-.6.4-1.2.9-1.9 1.4 3.6 6.2 8.8 10.6 12.7 13.2zm-53.4 1.7c.9 9.1-1.4 17.2-3.7 22.9 9.7 1.6 20 .9 30-2.3 10-3.3 18.7-8.7 25.6-15.7-5.2-3.2-11.8-8.4-16.5-16.3-7.8 4.6-20 10.1-35.4 11.4z" class="st29"/><path d="M174.6 210.9c.9 8.5-1.5 16.3-3.7 21.2 2.1.5 4.1 1 6.3 1.3 2.3-5.6 4.6-13.8 3.7-22.9 15.4-1.3 27.5-6.8 35.4-11.5 4.6 7.8 11.3 13.1 16.5 16.3 1.5-1.5 2.9-3.1 4.3-4.8-.9-.5-1.8-1.1-2.8-1.8-3.9-2.6-9.1-7-12.7-13.2.7-.5 1.4-1 1.9-1.4 1-.8 1.7-1.3 2-1.6.2-.1.3-.2.3-.2s-.1-.6-.4-1.6c-.4-1.5-1.4-3.8-3.4-6.4.2 2.2-3.5 4.9-6.7 6.8-4.7 2.8-11.3 5.6-18.5 8-7.2 2.3-14.2 3.9-19.7 4.4-3.8.4-8.3.3-9.4-1.6-.1 3.3.5 5.7 1 7.2.3 1 .6 1.5.6 1.5h.3c.9.1 1.8.1 2.6.1.8.2 1.6.2 2.4.2zm-40.5-36c2.1 6.5 8.8 10.1 15.3 8.6-2.3-3.1-4.2-6.7-5.4-10.6-1.5-4.7-2.1-9.6-1.7-14.3-6.8 2.3-10.4 9.5-8.2 16.3zm6.8-5.8c.4 1.2-.3 2.6-1.5 3s-2.6-.3-3-1.5.3-2.6 1.5-3 2.6.2 3 1.5zm-2.4 7.9c-.4-1.2.3-2.6 1.5-3s2.6.3 3 1.5-.3 2.6-1.5 3c-1.3.5-2.6-.2-3-1.5z" class="st28"/><circle cx="140.7" cy="176.3" r="2.4" class="st29"/><circle cx="138.6" cy="169.8" r="2.4" class="st29"/><path d="M143.9 172.9c1.3 3.9 3.1 7.4 5.4 10.6 5.1 7 12.5 12 20.9 14.4 8.1 2.4 17.1 2.4 25.8-.5s16-8.2 21.2-14.8c5.4-6.9 8.4-15.3 8.5-24 0-3.9-.6-7.9-1.8-11.8-1.5-4.7-4-9-7-12.6-10.3-12.2-28.1-17.5-45.2-11.9s-28.3 20.3-29.5 36.2c-.4 4.8.2 9.7 1.7 14.4zm5.4-3.2c-5.2-16 5.9-33.9 24.8-40 18.9-6.1 38.4 1.8 43.5 17.8 5.2 16 2.1 31.3-24.8 40s-38.3-1.9-43.5-17.8z" class="st29"/><path d="M149.3 169.7c5.2 16 16.7 26.6 43.5 17.8s29.9-24 24.8-40c-4.7-14.5-21.2-22.4-38.2-19.2l-2.7.6c-.6.2-1.2.3-1.8.5l-.9.3-.9.3c-.6.2-1.2.4-1.7.6-.6.2-1.1.5-1.7.7-.5.2-1 .5-1.5.7-.3.1-.6.3-.9.5-.3.1-.5.3-.8.4-.3.2-.6.3-.9.5-.7.4-1.3.8-1.9 1.2l-.9.6c-11.5 8.1-17.4 21.4-13.8 33.7.2.3.2.5.3.8z" class="st28"/><path d="M231.6 200.2c1.7 2.9 3.6 6.5 5.4 10.4.8-.9 1.5-1.9 2.2-2.9-.1-.2-.3-.4-.4-.6-1.9-2.7-4.4-5-7.2-6.9zm-64.3 30.1v.8c1.2.4 2.3.7 3.5 1-.9-4.3-1.4-8.3-1.8-11.6-1.1 3.2-1.8 6.6-1.7 9.8z" class="st30"/><path d="M850.2 312.7c-.9 3.5-5.1 26.4 33.5 28.5 2.8.2 5.4-1.6 6.3-4.3l55.6-177.3c1-3.1-.6-6.3-3.5-7.6l-19.3-8.2c-3.2-1.4-6.9.2-8.2 3.5L850.4 312c-.1.2-.1.5-.2.7z" class="st24"/><path d="M850.2 312.7c-.9 3.5-5.1 26.4 33.5 28.5 2.8.2 5.4-1.6 6.3-4.3l55.6-177.3c1-3.1-.6-6.3-3.5-7.6l-19.3-8.2c-3.2-1.4-6.9.2-8.2 3.5L850.4 312c-.1.2-.1.5-.2.7z" class="st25"/><path d="M864.2 327.5c-22-31.8-78-55.5-168.2-59.7-90.1-4.2-115.6-60.3-115.6-60.3L641 16.8s25.5 56.1 115.6 60.3c77.6 3.6 129.9 21.7 157 46.9 7.2 6.7 9.8 17 6.8 26.3l-56.2 177.2z" class="st24"/><path d="M812.6 275.9c-29.4-14.3-61.6-20.6-92.8-29.3-26.3-7.3-58.1-16.6-72.4-42.1-6.7-12-9.8-26.5-12.2-39.9-2.7-15.6-3.2-31.5-2.6-47.3 1.3-32.4-1.1-66.4 8.4-97.7.2-.5.3-1 .6-1.3-.4-.8-.7-1.3-.7-1.3l-60.6 190.7s25.5 56.1 115.6 60.3 146.2 27.9 168.2 59.7l1.8-5.8c-12.2-20.3-31.7-35.5-53.3-46z" class="st25"/><path d="M639.7 9 425.2 669" class="st26"/><path d="M781.8 210.8c-.9 0-1.8.1-2.6.1.8 0 1.7-.1 2.6-.1zm-53.9-16.5c-1-.8-1.7-1.3-2-1.6.5.4 1.1.9 2 1.6z" class="st27"/><path d="M783.9 109.3c-33.6-10.9-69.8 7.5-80.7 41.1-6.1 18.7-3.1 38.1 6.5 53.6 4.7-6.2 12.2-10.9 16.4-13.1.4-1.5 1.4-3.8 3.4-6.4-.2 2.2 3.5 4.9 6.7 6.8 4.7 2.8 11.3 5.6 18.5 8s14.2 3.9 19.7 4.4c3.8.4 8.3.3 9.4-1.6.1 3.3-.5 5.7-1 7.2 2 4.3 5.3 12.5 5.5 20.3 16.9-6.9 30.7-20.9 36.7-39.5 10.9-33.7-7.5-69.9-41.1-80.8zm18.1 74.2c-5.1 7-12.5 12-20.9 14.4 1.7 1.5 2.5 2.7 2.2 3.6-.9 2.8-12.6 2.3-28.5-2.9s-25.6-11.6-24.7-14.4c.3-.9 1.7-1.4 3.9-1.6-5.4-6.9-8.4-15.3-8.5-24-6.1-2.6-9.4-9.5-7.3-16 2.2-6.7 9.4-10.5 16.1-8.4 10.3-12.2 28.1-17.5 45.2-11.9s28.3 20.3 29.5 36.2c6.7 2.3 10.3 9.5 8.1 16.3-1.9 6.5-8.6 10.2-15.1 8.7z" class="st27"/><path d="M734.4 134.3c-6.8-2.1-14 1.6-16.1 8.4-2.1 6.5 1.1 13.4 7.3 16 0-3.9.6-7.9 1.8-11.8 1.6-4.7 4-9 7-12.6zM722.1 150c-1.2-.4-1.9-1.7-1.5-3 .4-1.2 1.7-1.9 3-1.5 1.2.4 1.9 1.7 1.5 3-.4 1.3-1.7 1.9-3 1.5zm2.1-6.4c-1.2-.4-1.9-1.7-1.5-3 .4-1.2 1.7-1.9 3-1.5s1.9 1.7 1.5 3c-.4 1.2-1.7 1.9-3 1.5z" class="st28"/><circle cx="725" cy="141.3" r="2.4" class="st29"/><circle cx="722.9" cy="147.8" r="2.4" class="st29"/><path d="M712.6 207.1c-.1.2-.3.4-.4.6.7 1 1.4 1.9 2.2 2.9 1.8-4 3.7-7.5 5.4-10.4-2.8 1.9-5.4 4.2-7.2 6.9zm69.5 3.7h-.3c-.9 0-1.8.1-2.6.1h-2.3c-.9 8.5 1.5 16.3 3.7 21.2h.1c.9-4.3 1.4-8.3 1.8-11.6 1.1 3.2 1.8 6.6 1.8 9.8v.8l4.2-1.5c-.2-7.8-3.5-16-5.5-20.3-.6.9-.9 1.5-.9 1.5z" class="st29"/><path d="M782.3 220.5c-.3 3.4-.8 7.4-1.8 11.6 1.2-.3 2.3-.7 3.5-1v-.8c.2-3.2-.6-6.6-1.7-9.8z" class="st29"/><path d="M734 182.7c-2.3.2-3.7.7-3.9 1.6-.9 2.8 8.8 9.2 24.7 14.4s27.6 5.7 28.5 2.9c.3-.9-.5-2.1-2.2-3.6-8.1 2.4-17.1 2.4-25.8-.5-8.9-2.9-16.1-8.2-21.3-14.8z" class="st28"/><path d="M729.9 195.7c-.7-.5-1.4-1-1.9-1.4-.9-.7-1.6-1.2-2-1.6-.2-.1-.3-.2-.3-.2s.1-.6.4-1.6c-4.2 2.3-11.7 7-16.4 13.1.8 1.3 1.6 2.5 2.5 3.7.1-.2.3-.4.4-.6 1.8-2.7 4.4-5 7.2-6.9-1.7 2.9-3.6 6.5-5.4 10.4v.1c.9-.5 1.8-1.1 2.8-1.8 3.9-2.6 9-7 12.7-13.2zm5.2 3.4c-4.6 7.8-11.3 13.1-16.5 16.3 6.9 7 15.6 12.5 25.6 15.7 10 3.3 20.3 3.9 30 2.3-2.3-5.6-4.6-13.8-3.7-22.9-15.4-1.2-27.5-6.7-35.4-11.4z" class="st29"/><path d="M779.1 210.9c.9 0 1.8-.1 2.6-.1h.3s.3-.5.6-1.5c.5-1.4 1.1-3.9 1-7.2-1.1 1.9-5.7 1.9-9.4 1.6-5.5-.5-12.5-2.1-19.7-4.4-7.2-2.3-13.8-5.2-18.5-8-3.2-1.9-6.9-4.6-6.7-6.8-2 2.6-3 4.9-3.4 6.4-.3 1-.4 1.6-.4 1.6s.1.1.3.2c.3.3 1 .9 2 1.6.6.4 1.2.9 1.9 1.4-3.6 6.2-8.8 10.6-12.7 13.2-1 .7-1.9 1.2-2.8 1.8 1.3 1.7 2.8 3.2 4.3 4.8 5.2-3.2 11.8-8.4 16.5-16.3 7.8 4.7 20 10.1 35.4 11.5-.9 9.1 1.4 17.2 3.7 22.9 2.1-.3 4.2-.8 6.3-1.3-2.2-5-4.6-12.7-3.7-21.2.9-.2 1.6-.2 2.4-.2zm30.1-52.3c.4 4.7-.2 9.6-1.7 14.3-1.3 3.9-3.1 7.4-5.4 10.6 6.5 1.5 13.2-2.2 15.3-8.6 2.1-6.8-1.6-14-8.2-16.3zm4.3 8.9c1.2.4 1.9 1.7 1.5 3-.4 1.2-1.7 1.9-3 1.5-1.2-.4-1.9-1.7-1.5-3 .4-1.2 1.7-1.9 3-1.5zm-3.6 11.1c-1.2-.4-1.9-1.7-1.5-3 .4-1.2 1.7-1.9 3-1.5s1.9 1.7 1.5 3c-.4 1.2-1.8 1.9-3 1.5z" class="st28"/><circle cx="810.6" cy="176.3" r="2.4" class="st29"/><circle cx="812.7" cy="169.8" r="2.4" class="st29"/><path d="M809.2 158.6c-1.2-16-12.5-30.7-29.5-36.2s-34.8-.3-45.2 11.9c-3.1 3.6-5.5 7.9-7 12.6-1.3 3.9-1.9 7.8-1.8 11.8.1 8.6 3.1 17.1 8.5 24 5.1 6.7 12.4 11.9 21.2 14.8 8.8 2.9 17.8 2.8 25.8.5 8.4-2.5 15.8-7.5 20.9-14.4 2.3-3.1 4.2-6.7 5.4-10.6 1.5-4.8 2-9.7 1.7-14.4zm-50.7 28.9c-26.9-8.7-29.9-24-24.8-40 5.2-16 24.7-23.9 43.5-17.8 18.9 6.1 29.9 24 24.8 40-5.2 15.9-16.6 26.5-43.5 17.8z" class="st29"/><path d="M802.2 168.9c3.6-12.3-2.3-25.6-13.8-33.7l-.9-.6c-.6-.4-1.3-.8-1.9-1.2-.3-.2-.6-.4-.9-.5-.3-.1-.5-.3-.8-.4-.3-.2-.6-.3-.9-.5-.5-.2-1-.5-1.5-.7s-1.1-.5-1.7-.7c-.6-.2-1.1-.4-1.7-.6l-.9-.3-.9-.3c-.6-.2-1.2-.3-1.8-.5l-2.7-.6c-17.1-3.2-33.5 4.7-38.2 19.2-5.2 16-2.1 31.3 24.8 40s38.4-1.8 43.5-17.8c.2-.3.3-.5.3-.8z" class="st28"/><path d="M712.6 207.1c-.1.2-.3.4-.4.6.7 1 1.4 1.9 2.2 2.9 1.8-4 3.7-7.5 5.4-10.4-2.8 1.9-5.4 4.2-7.2 6.9zm69.7 13.4c-.3 3.4-.8 7.4-1.8 11.6 1.2-.3 2.3-.7 3.5-1v-.8c.2-3.2-.6-6.6-1.7-9.8z" class="st30"/><path fill="#7eaed9" stroke="#7eaed9" stroke-miterlimit="10" stroke-width="1.527" d="M845.2 500c85.6 195.4 3.9 425.8-189.1 522.3-199.2 99.7-441.5 19-541.1-180.2-55.6-111.1-55-235.6-9.2-341.2"/><path fill="#5e82a2" d="M642 804.5c-197.4 79.2-421.6-16.6-500.8-214-9.4-23.5-16.2-47.3-20.7-71.2-32.8 86.9-34.8 185.8 2.5 278.9 79.2 197.4 303.5 293.3 500.8 214 173.9-69.8 268.9-252.1 234.8-429.6-36.7 97.5-112.3 180.1-216.6 221.9z" opacity=".15"/><path d="M210.3 637c.3.6.7 1.1.9 1.7-.2-.6-.6-1.2-.9-1.7zm-3.3-5.3c.5.7.9 1.3 1.4 2-.4-.7-.9-1.3-1.4-2zm-36.2 78.2c-.8.1-1.7.1-2.4.1.7 0 1.5 0 2.4-.1zm3.4-.4c-.9.2-2 .3-2.9.4 1-.1 1.9-.2 2.9-.4zm34.3-75.5c.5.7.9 1.5 1.4 2.3-.4-.8-.9-1.6-1.4-2.3zm-19.6-17.6c.8.4 1.6.8 2.3 1.2-.7-.3-1.6-.7-2.3-1.2zm-5.4-2.2c.7.2 1.2.5 1.9.7-.7-.3-1.3-.5-1.9-.7zm-22.9 95.4c-.7-.1-1.6-.2-2.3-.4.7.2 1.4.3 2.3.4zm25.7-94.3c.6.3 1.2.6 1.8.8-.6-.3-1.3-.6-1.8-.8zm-65 64c-.4-.8-.7-1.8-1-2.7.4.9.7 1.8 1 2.7zm52.8-67.4c.7.1 1.3.2 2 .4-.7-.2-1.3-.3-2-.4zm31.2 17.7c.4.5.7.9 1.1 1.5-.3-.6-.7-1-1.1-1.5zM177 612.4c.9.2 1.9.4 2.8.7-.9-.3-1.8-.5-2.8-.7zm2.8.6c.9.3 1.9.6 2.8.8-.9-.2-1.8-.5-2.8-.8zm19.2 10c.7.6 1.3 1.1 1.9 1.7-.7-.5-1.4-1.1-1.9-1.7zm2 1.8c.7.7 1.3 1.3 1.9 2-.6-.7-1.3-1.3-1.9-2zm2.5 2.6c.5.5.8.9 1.3 1.4-.5-.4-1-.9-1.3-1.4zm-6.8-6c.5.4 1 .7 1.5 1.2-.4-.5-.9-.9-1.5-1.2zm-2.3-1.7c.6.4 1 .7 1.6 1.1-.6-.5-1-.8-1.6-1.1zm-3.1-2c.8.5 1.6.9 2.3 1.4-.7-.4-1.4-.9-2.3-1.4zm-27 92.3-3-.3c1.1.2 2.1.3 3 .3zm3.1.1c-.8 0-1.7 0-2.5-.1.8.1 1.7.1 2.5.1zm-33.6-12.9c-.6-.5-1-1-1.6-1.5.6.5 1.1 1 1.6 1.5zm25.3-85.2c.7-.1 1.3-.2 1.9-.3-.6.1-1.3.2-1.9.3zm-8.8 2.3c.6-.2 1.2-.4 1.8-.7-.6.3-1.1.5-1.8.7zm-18.6 80.8c-.7-.7-1.3-1.4-2-2.1.7.7 1.3 1.4 2 2.1zm-2.2-2.3c-.6-.7-1-1.3-1.6-2 .6.7 1.1 1.3 1.6 2zm18.2-77.4c.6-.3 1.1-.5 1.8-.7-.6.1-1.3.4-1.8.7zm-11.2 84c-.7-.6-1.4-1.1-2.1-1.7.8.7 1.4 1.2 2.1 1.7zm50.1 6.6c-.7.3-1.4.6-2.1.8.7-.2 1.3-.5 2.1-.8zm-2.9 1.2c-.9.4-1.9.7-2.8.9.9-.3 1.8-.6 2.8-.9zm-30.8-93.8c1.8-.6 3.6-.9 5.3-1.3-1.7.4-3.5.9-5.3 1.3z" class="st34"/><path d="M202.9 694.6c5.5-5.8 9.6-13 11.9-21.2 2.6-9.9 2.1-19.9-1-29-.3-.5-27.3-45.1-79-21-7.2 6.3-12.6 14.6-15.2 24.5-2.3 8.7-2.1 17.5 0 25.6.9 2.2 27.2 56.7 83.3 21.1zm-65.4-73.3c.5-.4 1-.7 1.5-1.1-.5.3-1 .7-1.5 1.1zm-15 60.6c-.3-.7-.6-1.3-.9-2 .4.7.7 1.4.9 2zm-2.3-5.8c-.3-.7-.5-1.5-.7-2.2.2.7.4 1.5.7 2.2z" class="st34"/><path d="M134.7 623.5c.7-.6 1.4-1.1 2.1-1.7-.7.5-1.5 1.1-2.1 1.7zM124 684.9c-.4-.7-.7-1.4-1.1-2.1.4.6.8 1.4 1.1 2.1zm20.5-68c.8-.4 1.6-.8 2.4-1.1-.8.2-1.6.6-2.4 1.1zm-2.4 1.3c.7-.5 1.6-.9 2.3-1.3-.7.4-1.5.8-2.3 1.3zm69.5 21.4c.3.6.6 1.1.7 1.7-.1-.6-.4-1.2-.7-1.7zm-85.8 48.1c-.6-.7-1-1.6-1.5-2.4l1.5 2.4zm14-68.1c.6-.4 1-.7 1.6-1-.5.3-1.1.6-1.6 1zm-12.3 70.5c-.5-.6-.8-1.1-1.2-1.8.4.6.7 1.2 1.2 1.8zm72.7 7.2c-.6.5-1.1 1-1.7 1.5.6-.5 1.1-1 1.7-1.5zm-2.3 1.9c-.7.6-1.5 1.2-2.3 1.8.8-.6 1.5-1.1 2.3-1.8zm-47.4 8c-.7-.3-1.4-.6-2.1-.8.7.3 1.4.5 2.1.8zm30.4.9c-.9.3-1.9.5-2.8.7.9-.2 1.8-.4 2.8-.7zm14.3-6.8c-.7.5-1.3.9-2.1 1.3.7-.4 1.4-.9 2.1-1.3zm-40.9 7.1c-1-.3-2-.6-2.9-.9 1 .3 1.9.6 2.9.9zm22.9.6c-.7.2-1.5.3-2.2.4.7-.1 1.5-.3 2.2-.4zm35.5-67c.3.7.6 1.5.8 2.2-.2-.7-.5-1.4-.8-2.2zm-55.4 67c-1-.2-2.1-.5-3.1-.7 1.1.4 2.2.5 3.1.7zm13.9-97.5c.7.1 1.3.1 2 .2-.7-.1-1.3-.1-2-.2zm31.7 83.1-2.1 2.1c.7-.7 1.4-1.3 2.1-2.1zm-13.1 9.8c-.8.5-1.7.8-2.6 1.2.9-.2 1.8-.7 2.6-1.2zm-45 .3c-.8-.5-1.7-.8-2.4-1.3.7.5 1.5 1 2.4 1.3zm17.2-93.1c.7-.1 1.3-.1 2-.2-.8.1-1.4.1-2 .2zm2.8-.1c.9 0 1.9-.1 2.8-.1-1 0-2 0-2.8.1z" class="st34"/><path d="M167.5 611.4c.9 0 1.9.1 2.8.1-.9 0-1.9-.1-2.8-.1zm-28.4 90c-.8-.6-1.6-1.1-2.3-1.7.7.5 1.4 1.1 2.3 1.7zm2.5 1.6c-.7-.4-1.2-.7-1.9-1.2.6.4 1.3.8 1.9 1.2zm6 3-2.7-1.2c.9.5 1.8.9 2.7 1.2zm44.8-3-2.1 1.2c.7-.3 1.4-.8 2.1-1.2z" class="st34"/><path d="M213.7 644.5c0-.1-.1-.2-.1-.3 0 .2.1.2.1.3zM139 620.1c.3-.2.6-.4.7-.6-.2.3-.4.5-.7.6zm-2.3 1.6c.2-.2.5-.4.7-.5-.2.3-.4.3-.7.5zm27.1-10.2c.3 0 .6 0 .8-.1-.2.1-.5.1-.8.1zm-5.6.6c.3-.1.6-.1.8-.1-.2.1-.5.1-.8.1zm-6 1.6c.3-.1.6-.2.8-.3-.3.1-.6.2-.8.3zm8.8-2c.3 0 .7-.1.9-.1-.3 0-.6.1-.9.1zm-11.5 2.9c.3-.1.6-.2.8-.4-.3.2-.6.3-.8.4zm20.8-3.1c.3 0 .6.1.8.1-.1-.1-.5-.1-.8-.1zm-23.4 4.2c.3-.1.6-.2.7-.4-.2.2-.4.3-.7.4zm41.2.3c.3.1.6.3.8.4-.3-.1-.6-.2-.8-.4zm-2.8-1.1c.3.1.7.3.9.4-.3-.2-.6-.3-.9-.4zm5.9 2.8s.1 0 0 0c.1 0 0 0 0 0zm4.8 3c.3.2.6.4.7.6-.1-.2-.4-.4-.7-.6zm-2.3-1.5c.3.2.5.3.7.5-.2-.2-.5-.4-.7-.5zm-20.5-7.5c.4 0 .7.1 1 .1-.4 0-.7 0-1-.1zm2.9.5c.3.1.6.1.8.2-.2-.1-.4-.1-.8-.2zm6.5 1.7c.3.1.6.2.8.3-.2-.1-.5-.2-.8-.3zm25.7 19.8c.1.1.1.2.2.3 0-.1-.1-.2-.2-.3zm-1.8-2.6c.2.2.4.5.6.7-.3-.3-.4-.5-.6-.7zm3.4 5.2c.1.2.3.5.4.7-.1-.2-.3-.5-.4-.7zm2.5 5c.1.3.3.6.4.8l-.4-.8zm-1.2-2.6c.2.3.3.6.4.8-.1-.3-.3-.6-.4-.8zm-10.3-14 .2.2-.2-.2zm-2.7-2.2c.2.2.5.4.7.6-.2-.2-.4-.4-.7-.6zm4.7 4.3c.2.2.4.4.6.7-.2-.3-.4-.5-.6-.7zm1.8 2c.2.3.4.5.6.7-.1-.2-.3-.4-.6-.7zm-63.3-10.2c.3-.2.5-.3.7-.5-.2.2-.5.4-.7.5z" class="st35"/><path d="M213.7 644.5c0-.1-.1-.2-.1-.3-.3-.7-.6-1.5-.8-2.2-.1-.3-.2-.6-.4-.8-.3-.6-.5-1.1-.7-1.7-.1-.3-.3-.6-.4-.8-.3-.6-.6-1.1-.9-1.7-.1-.3-.3-.5-.4-.7-.5-.7-.9-1.6-1.4-2.3-.1-.1-.1-.2-.2-.3-.5-.7-.9-1.3-1.4-2-.2-.3-.4-.5-.6-.7-.4-.5-.7-1-1.1-1.5-.2-.3-.4-.5-.6-.7-.4-.5-.8-.9-1.3-1.4-.2-.2-.4-.4-.6-.7-.7-.7-1.2-1.3-1.9-2l-.2-.2c-.7-.6-1.2-1.1-1.9-1.7-.2-.2-.5-.4-.7-.6-.5-.4-1-.7-1.5-1.2-.3-.2-.6-.4-.7-.6-.6-.4-1-.7-1.6-1.1-.3-.2-.5-.3-.7-.5-.7-.5-1.6-.9-2.3-1.4 0 0-.1 0-.1-.1-.7-.5-1.6-.8-2.3-1.2-.3-.1-.6-.3-.8-.4-.6-.3-1.2-.6-1.8-.8-.3-.1-.7-.3-.9-.4-.7-.3-1.2-.5-1.9-.7-.3-.1-.6-.2-.8-.3-.9-.3-1.9-.6-2.8-.8-.9-.3-1.9-.5-2.8-.7-.3-.1-.6-.1-.8-.2-.7-.1-1.3-.3-2-.4-.4-.1-.7-.1-1-.1-.7-.1-1.3-.2-2-.2-.3 0-.6-.1-.8-.1-.9-.1-1.9-.1-2.8-.1s-1.9 0-2.8.1c-.3 0-.6 0-.8.1-.7 0-1.3.1-2 .2-.3 0-.7.1-.9.1-.7.1-1.3.2-1.9.3-.3 0-.6.1-.8.1-1.8.4-3.6.7-5.3 1.3-.3.1-.6.2-.8.3-.6.2-1.2.4-1.8.7-.3.1-.6.2-.8.4-.6.2-1.2.5-1.8.7-.3.1-.6.2-.7.4-.8.4-1.7.7-2.4 1.1-.8.4-1.6.8-2.3 1.3-.3.2-.5.3-.7.5-.6.4-1.1.7-1.6 1-.3.2-.6.4-.7.6-.6.4-1 .7-1.5 1.1-.2.2-.5.4-.7.5-.7.6-1.4 1.1-2.1 1.7 51.1-24 78.1 20.7 78.4 21.1z" class="st34"/><path d="M213.7 644.5c0-.1-.1-.2-.1-.3-.3-.7-.6-1.5-.8-2.2-.1-.3-.2-.6-.4-.8-.3-.6-.5-1.1-.7-1.7-.1-.3-.3-.6-.4-.8-.3-.6-.6-1.1-.9-1.7-.1-.3-.3-.5-.4-.7-.5-.7-.9-1.6-1.4-2.3-.1-.1-.1-.2-.2-.3-.5-.7-.9-1.3-1.4-2-.2-.3-.4-.5-.6-.7-.4-.5-.7-1-1.1-1.5-.2-.3-.4-.5-.6-.7-.4-.5-.8-.9-1.3-1.4-.2-.2-.4-.4-.6-.7-.7-.7-1.2-1.3-1.9-2l-.2-.2c-.7-.6-1.2-1.1-1.9-1.7-.2-.2-.5-.4-.7-.6-.5-.4-1-.7-1.5-1.2-.3-.2-.6-.4-.7-.6-.6-.4-1-.7-1.6-1.1-.3-.2-.5-.3-.7-.5-.7-.5-1.6-.9-2.3-1.4 0 0-.1 0-.1-.1-.7-.5-1.6-.8-2.3-1.2-.3-.1-.6-.3-.8-.4-.6-.3-1.2-.6-1.8-.8-.3-.1-.7-.3-.9-.4-.7-.3-1.2-.5-1.9-.7-.3-.1-.6-.2-.8-.3-.9-.3-1.9-.6-2.8-.8-.9-.3-1.9-.5-2.8-.7-.3-.1-.6-.1-.8-.2-.7-.1-1.3-.3-2-.4-.4-.1-.7-.1-1-.1-.7-.1-1.3-.2-2-.2-.3 0-.6-.1-.8-.1-.9-.1-1.9-.1-2.8-.1s-1.9 0-2.8.1c-.3 0-.6 0-.8.1-.7 0-1.3.1-2 .2-.3 0-.7.1-.9.1-.7.1-1.3.2-1.9.3-.3 0-.6.1-.8.1-1.8.4-3.6.7-5.3 1.3-.3.1-.6.2-.8.3-.6.2-1.2.4-1.8.7-.3.1-.6.2-.8.4-.6.2-1.2.5-1.8.7-.3.1-.6.2-.7.4-.8.4-1.7.7-2.4 1.1-.8.4-1.6.8-2.3 1.3-.3.2-.5.3-.7.5-.6.4-1.1.7-1.6 1-.3.2-.6.4-.7.6-.6.4-1 .7-1.5 1.1-.2.2-.5.4-.7.5-.7.6-1.4 1.1-2.1 1.7 51.1-24 78.1 20.7 78.4 21.1z" class="st35"/><path d="M124.3 685.3c-.1-.1-.1-.3-.2-.4 0 .1.1.2.2.4zm37 24.4c-.3 0-.5-.1-.7-.1.3.1.4.1.7.1zm3.6.3h-.6.6zm-28.2-10.4-.2-.2.2.2zm21.5 9.6c-.3-.1-.6-.1-.8-.2.2.1.6.2.8.2zm-32-20.8c-.2-.2-.3-.5-.5-.7.2.2.4.4.5.7zm8.3 9.3c-.2-.2-.5-.4-.7-.6.2.2.4.4.7.6zm52.7 8.1c-.2.1-.5.2-.7.3.2-.2.4-.3.7-.3zm-54.9-10.1-.6-.6.6.6zm45.8 13.1c-.3.1-.6.1-.8.2.2-.1.5-.2.8-.2zM129.7 693l-.3-.3.3.3zm-1.7-2.2c-.2-.2-.4-.5-.6-.7.2.2.4.4.6.7zm23.4 16.6c-.3-.1-.6-.2-.8-.3.2.2.4.2.8.3zm19.9 2.5h-.6.6zm-3.1.2h-.8.8zm6.8-.7c-.3 0-.5.1-.7.1.2 0 .4-.1.7-.1zm20.5-8.4c-.2.1-.3.2-.5.3.2-.1.4-.2.5-.3zm2.9-2.3c-.2.2-.4.3-.6.5.3-.2.4-.3.6-.5zm-53.4 6.1c-.1 0-.1-.1 0 0-.1-.1-.1 0 0 0zm39.4 2.1c-.3.1-.6.2-.7.3.2-.1.4-.2.7-.3zm-42-3.5c-.3-.2-.5-.3-.7-.5.1.2.4.3.7.5zm58.4-6.7c-.2.2-.4.4-.7.6.3-.2.5-.4.7-.6zm-10.5 7.6c-.2.1-.3.2-.5.3.1-.2.3-.2.5-.3zm2.8-1.7c-.3.2-.5.3-.7.5.2-.2.5-.3.7-.5zM121.7 680c-.1-.2-.2-.5-.3-.7 0 .2.2.5.3.7zm1.2 2.8zm-3.5-9.3c0 .1.1.3.1.4 0-.1 0-.3-.1-.4.1 0 0 0 0 0zm29 32.9c-.3-.1-.6-.2-.8-.4.3.1.5.2.8.4zm32.5 1.7zm-60.5-31.5c-.1-.2-.1-.4-.2-.5.1.2.1.4.2.5zm19.3 25.1c-.2-.2-.5-.3-.7-.5.3.3.5.4.7.5z" class="st36"/><path d="M183.7 707.2c.3-.1.6-.2.7-.3.7-.3 1.4-.6 2.1-.8.2-.1.5-.2.7-.3.8-.4 1.8-.8 2.6-1.2.2-.1.3-.2.5-.3.7-.4 1.4-.7 2.1-1.2.3-.2.5-.3.7-.5.7-.5 1.3-.8 2.1-1.3.2-.1.3-.2.5-.3.7-.6 1.6-1.1 2.3-1.8.2-.2.4-.3.6-.5.6-.5 1.1-.9 1.7-1.5.2-.2.4-.4.7-.6.7-.7 1.4-1.3 2.1-2.1-56 35.6-82.4-19-83.5-21.1 0 .1.1.2.1.3.2.7.5 1.5.7 2.2.1.2.1.4.2.5.3.9.7 1.8 1 2.7.1.2.2.5.3.7.3.7.6 1.3.9 2 .1.3.3.6.4.7.4.7.7 1.4 1.1 2.1.1.1.1.3.2.4.5.8.9 1.6 1.5 2.4.2.2.3.5.5.7l1.2 1.8c.2.2.4.5.6.7.5.7 1 1.3 1.6 2l.3.3c.7.7 1.3 1.4 2 2.1l.6.6c.5.5 1 1 1.6 1.5.2.2.5.4.7.6.7.6 1.3 1.1 2.1 1.7l.2.2c.7.6 1.5 1.1 2.3 1.7.2.2.5.3.7.5.6.4 1.2.7 1.9 1.2.3.2.5.3.7.5.8.5 1.6.9 2.4 1.3.1 0 .1.1.1.1.8.5 1.8.8 2.7 1.2.3.1.6.2.8.4.7.3 1.4.6 2.1.8.3.1.6.2.8.3.9.3 2 .7 2.9.9 1 .3 2.1.5 3.1.7.3.1.6.1.8.2.7.2 1.6.3 2.3.4.3 0 .5.1.7.1l3 .3h.6c.8 0 1.7.1 2.5.1h.8c.8 0 1.7-.1 2.4-.1h.6c1-.1 2-.2 2.9-.4.3 0 .5-.1.7-.1.7-.1 1.5-.3 2.2-.4.3-.1.6-.1.8-.2.9-.2 1.9-.5 2.8-.7.8-.6 1.7-.9 2.7-1.2z" class="st34"/><path d="M183.7 707.2c.3-.1.6-.2.7-.3.7-.3 1.4-.6 2.1-.8.2-.1.5-.2.7-.3.8-.4 1.8-.8 2.6-1.2.2-.1.3-.2.5-.3.7-.4 1.4-.7 2.1-1.2.3-.2.5-.3.7-.5.7-.5 1.3-.8 2.1-1.3.2-.1.3-.2.5-.3.7-.6 1.6-1.1 2.3-1.8.2-.2.4-.3.6-.5.6-.5 1.1-.9 1.7-1.5.2-.2.4-.4.7-.6.7-.7 1.4-1.3 2.1-2.1-56 35.6-82.4-19-83.5-21.1 0 .1.1.2.1.3.2.7.5 1.5.7 2.2.1.2.1.4.2.5.3.9.7 1.8 1 2.7.1.2.2.5.3.7.3.7.6 1.3.9 2 .1.3.3.6.4.7.4.7.7 1.4 1.1 2.1.1.1.1.3.2.4.5.8.9 1.6 1.5 2.4.2.2.3.5.5.7l1.2 1.8c.2.2.4.5.6.7.5.7 1 1.3 1.6 2l.3.3c.7.7 1.3 1.4 2 2.1l.6.6c.5.5 1 1 1.6 1.5.2.2.5.4.7.6.7.6 1.3 1.1 2.1 1.7l.2.2c.7.6 1.5 1.1 2.3 1.7.2.2.5.3.7.5.6.4 1.2.7 1.9 1.2.3.2.5.3.7.5.8.5 1.6.9 2.4 1.3.1 0 .1.1.1.1.8.5 1.8.8 2.7 1.2.3.1.6.2.8.4.7.3 1.4.6 2.1.8.3.1.6.2.8.3.9.3 2 .7 2.9.9 1 .3 2.1.5 3.1.7.3.1.6.1.8.2.7.2 1.6.3 2.3.4.3 0 .5.1.7.1l3 .3h.6c.8 0 1.7.1 2.5.1h.8c.8 0 1.7-.1 2.4-.1h.6c1-.1 2-.2 2.9-.4.3 0 .5-.1.7-.1.7-.1 1.5-.3 2.2-.4.3-.1.6-.1.8-.2.9-.2 1.9-.5 2.8-.7.8-.6 1.7-.9 2.7-1.2z" class="st36"/><path d="m622.8 812.4.3.3-.3-.3zm-16.3-8h.4-.4zm6.9 1.5c.2.1.3.1.5.2-.1-.1-.3-.2-.5-.2zm-11.6-1.2c.2 0 .3 0 .5-.1-.1 0-.3.1-.5.1zm13.9 2.2c.1.1.2.1.3.2-.1-.1-.2-.1-.3-.2zm-11.5-2.5h.4-.4zm20.1 9.8c.1.1.1.2.2.3 0-.1-.1-.2-.2-.3zm1.2 1.8c.1.1.1.2.2.3-.1-.1-.2-.2-.2-.3zm-4.1-5.1s.1 0 0 0c.1 0 0 0 0 0zm-12.6-6.2c.2 0 .3.1.5.1-.1 0-.3-.1-.5-.1zm8.9 3.3c.1.1.2.1.3.2-.1-.1-.2-.2-.3-.2zm1.8 1.3c.1.1.2.2.4.3-.1-.1-.3-.2-.4-.3zm7.1 8.7c.1.1.1.3.2.4-.1-.1-.1-.2-.2-.4zm-38.9 25.4c-.1-.1 0-.1 0 0zm18.9 8h-.6.6zm2-.2h-.4.4zm-4.7.2h-.3.3zm7.1-.8c-.2 0-.3.1-.5.1.3 0 .4 0 .5-.1zm-13.8-.6c-.2-.1-.4-.1-.5-.2.1 0 .3.1.5.2zm-2.4-1.1zm7.1 2.2c-.2 0-.4-.1-.6-.1.2.1.4.1.6.1zm19-5.6c-.1.1-.3.2-.4.4.1-.2.3-.3.4-.4zm-1.8 1.4-.2.2.2-.2zm-6 3.2c-.2.1-.3.1-.5.2.2-.2.3-.2.5-.2zm4.1-2c-.2.1-.3.2-.5.3.2-.1.3-.2.5-.3zm-2 1c-.1.1-.2.1-.4.2.3 0 .4-.1.4-.2zm-22.2-1.2c-.2-.1-.3-.2-.5-.3.2.1.3.2.5.3zm-9-10.1c-.1-.2-.1-.3-.2-.5.1.2.1.4.2.5zm-.8-2c0-.1-.1-.1-.1-.2 0 0 .1.1.1.2zm8.3-26.9c.1-.1.2-.2.4-.3-.2.2-.3.2-.4.3zm3.8-2.2c.1 0 .2-.1.3-.2-.1.1-.2.1-.3.2zm-1.8.9c.1-.1.2-.1.3-.2-.1.1-.2.2-.3.2zm-7.1 34.1c-.1-.1-.2-.3-.3-.4.1.2.2.3.3.4zm4.5 4.8s0-.1 0 0c0-.1 0 0 0 0zm-1.5-1.4c-.1-.1-.3-.2-.4-.4.1.2.2.3.4.4zm-4.3-5.3c0-.1-.1-.1-.1-.2 0 .1.1.1.1.2zm12.4-34c.1-.1.3-.1.4-.1-.1 0-.3.1-.4.1z" class="st34"/><path d="M589.9 810.2c-3.5 3-6 6.9-7.3 11.7-1.1 4.2-1 8.4.1 12.2.9 1.9 13.5 26.5 39.6 9.9 2.6-2.7 4.6-6.2 5.6-10.1 1.3-4.7 1-9.4-.5-13.7-.1-.2-12.9-21.5-37.5-10z" class="st34"/><path d="M604.6 804.4h1.9-1.9zm2.2.1c.7 0 1.4.1 2.1.2-.8-.1-1.4-.2-2.1-.2zm-13 3c.6-.3 1-.6 1.6-.8-.5.2-1.1.5-1.6.8zm-2 1.2c.6-.4 1.1-.7 1.7-1-.6.3-1.1.7-1.7 1zm10.5-4.1c.7-.1 1.3-.2 2-.2-.7.1-1.4.1-2 .2zm-12.4 5.6c.5-.5 1-.8 1.6-1.2-.6.4-1.1.8-1.6 1.2zm5.7-3.7c.6-.3 1.2-.5 1.9-.7-.7.2-1.2.4-1.9.7zm2.3-.8c.7-.2 1.3-.4 2-.6-.7.2-1.4.4-2 .6zm1.9-.6c.7-.2 1.3-.3 2-.4-.7.1-1.3.2-2 .4zm14 .9c.7.3 1.3.6 1.9.8-.5-.2-1.2-.5-1.9-.8zm-4.5-1.2c.7.1 1.4.3 2.1.5-.7-.2-1.4-.4-2.1-.5zm12.2 6.1 1.4 1.4-1.4-1.4zm3 3.5c.4.5.7 1 .9 1.5-.2-.4-.5-.9-.9-1.5zm3 5.8c-.2-.7-.5-1.2-.7-1.9.2.7.5 1.3.7 1.9zm-1.8-4c.3.6.7 1.1.9 1.8-.3-.6-.6-1.1-.9-1.8zm-2.6-3.5c.5.5.8 1 1.2 1.5-.4-.5-.7-1.1-1.2-1.5zm-5.1-4.6c.6.4 1.1.7 1.7 1.1-.6-.4-1.2-.7-1.7-1.1zm-6.6-2.8c.7.2 1.4.4 2.1.7-.8-.3-1.4-.5-2.1-.7zm4.6 1.8c.6.3 1.1.6 1.6.9-.5-.4-1-.7-1.6-.9zm3.9 2.5c.6.5 1 .8 1.5 1.3-.5-.5-.9-.9-1.5-1.3z" class="st35"/><path d="M627.5 820.2c-.2-.7-.5-1.2-.7-1.8-.1-.1-.1-.3-.2-.4l-.9-1.8c-.1-.1-.1-.2-.2-.3-.3-.6-.7-1-.9-1.5-.1-.1-.1-.2-.2-.3-.4-.6-.7-1-1.2-1.5l-.3-.3-1.4-1.4c-.5-.5-1-.9-1.5-1.3-.1-.1-.2-.2-.4-.3-.6-.4-1-.7-1.7-1.1-.1-.1-.2-.1-.3-.2-.6-.3-1-.7-1.6-.9-.1-.1-.2-.1-.3-.2-.7-.3-1.2-.6-1.9-.8-.1-.1-.3-.1-.5-.2-.7-.3-1.3-.5-2.1-.7-.7-.2-1.4-.4-2.1-.5-.2 0-.3-.1-.5-.1-.7-.1-1.4-.2-2.1-.2h-2.7c-.7 0-1.3.1-2 .2-.2 0-.3 0-.5.1-.7.1-1.3.2-2 .4s-1.3.4-2 .6c-.1 0-.3.1-.4.1-.7.2-1.2.5-1.9.7-.1 0-.2.1-.3.2-.6.3-1.1.6-1.6.8-.1.1-.2.1-.3.2-.6.4-1.1.7-1.7 1-.1.1-.2.2-.4.3-.6.4-1 .8-1.6 1.2 25.4-11.5 38.2 9.8 38.4 10z" class="st34"/><path d="M627.5 820.2c-.2-.7-.5-1.2-.7-1.8-.1-.1-.1-.3-.2-.4l-.9-1.8c-.1-.1-.1-.2-.2-.3-.3-.6-.7-1-.9-1.5-.1-.1-.1-.2-.2-.3-.4-.6-.7-1-1.2-1.5l-.3-.3-1.4-1.4c-.5-.5-1-.9-1.5-1.3-.1-.1-.2-.2-.4-.3-.6-.4-1-.7-1.7-1.1-.1-.1-.2-.1-.3-.2-.6-.3-1-.7-1.6-.9-.1-.1-.2-.1-.3-.2-.7-.3-1.2-.6-1.9-.8-.1-.1-.3-.1-.5-.2-.7-.3-1.3-.5-2.1-.7-.7-.2-1.4-.4-2.1-.5-.2 0-.3-.1-.5-.1-.7-.1-1.4-.2-2.1-.2h-2.7c-.7 0-1.3.1-2 .2-.2 0-.3 0-.5.1-.7.1-1.3.2-2 .4s-1.3.4-2 .6c-.1 0-.3.1-.4.1-.7.2-1.2.5-1.9.7-.1 0-.2.1-.3.2-.6.3-1.1.6-1.6.8-.1.1-.2.1-.3.2-.6.4-1.1.7-1.7 1-.1.1-.2.2-.4.3-.6.4-1 .8-1.6 1.2 25.4-11.5 38.2 9.8 38.4 10z" class="st35"/><path d="M622.4 844.1c-.5.5-.9.9-1.5 1.4.5-.5 1-1 1.5-1.4zm-1.9 1.7c-.5.4-.9.7-1.4 1.1.4-.3.9-.7 1.4-1.1zm-16.7 5.6c-.7 0-1.2-.1-1.9-.2.6 0 1.2.1 1.9.2zm-2.5-.3c-.7-.1-1.4-.3-2.1-.5.7.2 1.5.3 2.1.5zm4.7.3h-2.1 2.1zm-6.7-.8c-.7-.2-1.4-.4-2.1-.7.7.2 1.3.5 2.1.7zm-2.6-.8c-.7-.3-1.3-.6-1.9-.8.6.2 1.3.5 1.9.8zm15.9.4c-.6.2-1 .3-1.6.5.6-.2 1.2-.4 1.6-.5zm-2 .6c-.7.2-1.3.3-2 .4.7-.1 1.3-.3 2-.4zm-2.4.4c-.6.1-1.1.1-1.7.2.6 0 1.2-.1 1.7-.2zm-24.4-13.8c-.3-.6-.5-1.1-.7-1.7.3.6.5 1.2.7 1.7zm2.3 4c-.4-.5-.7-1-1-1.6.2.5.6 1 1 1.6zm-1.1-1.8c-.4-.6-.7-1.1-.9-1.8.2.7.5 1.2.9 1.8zm30 9.7c-.6.3-1.2.6-1.9.7.7-.1 1.2-.4 1.9-.7zM582.6 834c.1.5.3 1 .5 1.5-.2-.5-.3-1-.5-1.5 0 .1 0 0 0 0zm6.4 10.7c-.5-.5-.9-.9-1.3-1.4.4.6.8 1.1 1.3 1.4zm1.9 1.7c-.6-.4-1-.8-1.5-1.3.4.5.9.9 1.5 1.3zm-3.3-3.1c-.5-.5-.8-1-1.2-1.6.3.6.7 1.1 1.2 1.6zm7.2 5.6c-.7-.3-1.2-.7-1.8-1 .6.4 1.1.7 1.8 1zm-2.3-1.3c-.6-.4-1.1-.7-1.6-1.1.6.4 1.1.8 1.6 1.1zm24.2.8c-.5.3-.9.6-1.5.7.6-.2 1.1-.4 1.5-.7zm2.2-1.3c-.6.4-1.1.7-1.7 1 .6-.3 1.1-.7 1.7-1z" class="st36"/><path d="M582.7 834.1c.1.5.3.9.4 1.4 0 .1.1.1.1.2.2.6.5 1.1.7 1.7.1.2.1.3.2.5l.9 1.8c0 .1.1.1.1.2.3.6.7 1 1 1.6.1.1.2.3.3.4.4.6.8 1 1.2 1.6l.1.1c.4.5.8.9 1.3 1.4l.4.4c.5.5 1 .9 1.5 1.3 0 0 .1 0 .1.1.5.4 1 .7 1.6 1.1.2.1.3.2.5.3.6.4 1.2.7 1.8 1h.1c.6.3 1.2.6 1.9.8.2.1.4.1.5.2.7.3 1.3.5 2.1.7.7.2 1.4.4 2.1.5.2 0 .4.1.6.1.7.1 1.2.2 1.9.2h3c.6 0 1.1-.1 1.7-.2h.4c.7-.1 1.3-.2 2-.4.2 0 .3-.1.5-.1.6-.1 1-.3 1.6-.5.2-.1.3-.1.5-.2.7-.2 1.2-.5 1.9-.7.1-.1.3-.1.4-.2.5-.3 1-.5 1.5-.7.2-.1.3-.2.5-.3.6-.4 1.1-.7 1.7-1l.2-.2c.5-.4.9-.7 1.4-1.1.1-.1.3-.2.4-.4.5-.5 1-.9 1.5-1.4-27.1 16.4-39.7-8.4-40.6-10.2z" class="st34"/><path d="M582.7 834.1c.1.5.3.9.4 1.4 0 .1.1.1.1.2.2.6.5 1.1.7 1.7.1.2.1.3.2.5l.9 1.8c0 .1.1.1.1.2.3.6.7 1 1 1.6.1.1.2.3.3.4.4.6.8 1 1.2 1.6l.1.1c.4.5.8.9 1.3 1.4l.4.4c.5.5 1 .9 1.5 1.3 0 0 .1 0 .1.1.5.4 1 .7 1.6 1.1.2.1.3.2.5.3.6.4 1.2.7 1.8 1h.1c.6.3 1.2.6 1.9.8.2.1.4.1.5.2.7.3 1.3.5 2.1.7.7.2 1.4.4 2.1.5.2 0 .4.1.6.1.7.1 1.2.2 1.9.2h3c.6 0 1.1-.1 1.7-.2h.4c.7-.1 1.3-.2 2-.4.2 0 .3-.1.5-.1.6-.1 1-.3 1.6-.5.2-.1.3-.1.5-.2.7-.2 1.2-.5 1.9-.7.1-.1.3-.1.4-.2.5-.3 1-.5 1.5-.7.2-.1.3-.2.5-.3.6-.4 1.1-.7 1.7-1l.2-.2c.5-.4.9-.7 1.4-1.1.1-.1.3-.2.4-.4.5-.5 1-.9 1.5-1.4-27.1 16.4-39.7-8.4-40.6-10.2z" class="st36"/><path d="M686.7 544c.2-.1.3-.1.5-.2-.3.1-.5.2-.5.2zm20.6 50.4c-.1.1-.3.1-.4.2.2 0 .3-.1.4-.2zm6.5-4.3c-.2.1-.3.3-.5.4.3-.1.5-.2.5-.4zm-4.3 3.2-.6.3c.4-.1.6-.2.6-.3zm2.3-1.5c-.1.1-.2.1-.3.2.1 0 .2-.1.3-.2zm8.7-33.6c.1.2.1.3.2.5-.1-.1-.1-.3-.2-.5zm-1.2-2.4c.1.1.1.2.2.3-.1 0-.2-.1-.2-.3zm-16.9 40.4c-.2 0-.4.1-.6.1.3 0 .5 0 .6-.1zm-5.2.9h-.7.7zm-3 0h-.3.3zm10.6-1.5c-.2.1-.4.1-.6.2.2-.1.4-.2.6-.2zm-5.2 1.2c-.2 0-.3 0-.5.1.2 0 .4 0 .5-.1zm18.3-43c.1.1.2.2.2.4 0-.2-.1-.3-.2-.4zm-18.1-11c.2 0 .4.1.6.1-.2 0-.4-.1-.6-.1zm-5.3-.3h.4-.4zm-2.8.3c.2 0 .4-.1.5-.1-.2 0-.3 0-.5.1zm0 54c-.2 0-.5-.1-.7-.1.3 0 .5.1.7.1zm5.3-54.3h.4-.4zm-12.9 2.5c.1-.1.2-.1.4-.2-.1.1-.2.2-.4.2zm-4.5 2.7c.1-.1.3-.2.4-.3-.1.1-.3.2-.4.3zm25.6-3.5c.2.1.4.1.5.2-.2-.1-.4-.2-.5-.2zm11 7.4c.1.1.2.3.3.4-.1-.2-.2-.3-.3-.4zm-3.8-3.5c.1.1.3.2.4.3-.2-.1-.4-.2-.4-.3zm2.1 1.9zm-4.4-3.5c.1.1.2.1.3.2-.1 0-.2-.1-.3-.2zm-2.2-1.2c.1.1.3.1.4.2-.2-.1-.3-.1-.4-.2zm-37 36.1-.3-.6c.3.2.3.4.3.6zm-1-2.6c0-.1-.1-.2-.1-.2.1.1.1.1.1.2zm13.7 15.5c-.1-.1-.1-.1 0 0-.1-.1-.1-.1 0 0zm-1.6-48.2c.1-.1.2-.1.4-.2-.2.1-.3.2-.4.2zm-.6 46.9c-.2-.1-.4-.2-.5-.3.1.1.3.2.5.3zm-4.3-3.2c-.2-.1-.3-.3-.5-.4.2.1.4.3.5.4zm-4.9-6.2c0-.1-.1-.1-.1-.2 0 0 0 .1.1.2z" class="st34"/><path d="M715.5 588.6c3-3.2 5.3-7.2 6.5-11.7 1.5-5.5 1.1-11-.6-16.1-.2-.3-15.1-25-43.7-11.7-4 3.5-7 8-8.5 13.6-1.3 4.9-1.2 9.7.1 14.3 1.2 2.1 15.8 30.9 46.2 11.6zm-36.5 2.8zm-5.3-5.6c-.1-.2-.2-.3-.4-.5.1.3.3.4.4.5zm1.5 2c0-.1 0-.1 0 0zm11.1 7.6c-.2-.1-.4-.2-.6-.2.2.1.4.1.6.2z" class="st34"/><path d="M680 547.4c.7-.5 1.3-.8 2-1.2-.7.3-1.3.8-2 1.2zm-2.2 1.7c.6-.5 1.2-1 1.9-1.5-.7.6-1.3 1.1-1.9 1.5zm25-5.8c.8.2 1.6.5 2.3.7-.7-.1-1.5-.4-2.3-.7zm-2.4-.4c.8.2 1.6.3 2.4.6-.8-.4-1.7-.5-2.4-.6zm-2.9-.4c.7.1 1.6.2 2.3.3-.7-.1-1.6-.2-2.3-.3zm-2.6 0h2.1c-.6 0-1.4-.1-2.1 0zm10.7 1.9c.7.3 1.5.7 2.1.9-.6-.4-1.3-.7-2.1-.9zm-13.4-1.7c.7-.1 1.5-.2 2.3-.2-.7 0-1.6.1-2.3.2zm18.2 4c.7.4 1.3.8 1.9 1.3-.6-.4-1.3-.8-1.9-1.3zm-2.2-1.2c.7.4 1.3.7 1.9 1-.6-.4-1.2-.7-1.9-1zm8.3 6.5c.5.6.9 1.2 1.4 1.8-.5-.7-1-1.2-1.4-1.8zm-1.9-2c.6.6 1.1 1.1 1.6 1.7-.6-.6-1-1.2-1.6-1.7zm6.9 10.8c-.3-.7-.6-1.4-.8-2.1.2.7.6 1.4.8 2.1zm-2-4.6c.4.7.7 1.3 1 2.1-.3-.8-.7-1.4-1-2.1zm-1.4-2c.4.6.7 1.1 1.1 1.8-.3-.7-.7-1.3-1.1-1.8zm-5.4-5.8c.7.5 1.2 1 1.8 1.5-.6-.5-1.1-1.1-1.8-1.5zm-30.4-2.5c.7-.4 1.2-.7 1.9-.9-.6.3-1.3.7-1.9.9zm7.1-2.8c.7-.2 1.5-.3 2.3-.5-.8.3-1.6.4-2.3.5zm-4.9 1.7c.7-.3 1.4-.6 2.1-.8-.7.3-1.4.5-2.1.8zm2.6-.9c.7-.3 1.5-.5 2.2-.7-.7.1-1.4.4-2.2.7z" class="st35"/><path d="M721.5 560.8c-.3-.7-.6-1.4-.8-2.1-.1-.2-.1-.3-.2-.5-.3-.7-.7-1.4-1-2.1-.1-.1-.1-.2-.2-.3-.4-.6-.7-1.2-1.1-1.8-.1-.1-.2-.2-.2-.4-.5-.7-.9-1.2-1.4-1.8-.1-.1-.2-.3-.3-.4-.5-.6-1-1.1-1.6-1.7-.6-.6-1.2-1-1.8-1.5-.1-.1-.3-.2-.4-.3-.7-.5-1.2-.9-1.9-1.3-.1-.1-.2-.1-.3-.2-.7-.4-1.2-.7-1.9-1-.1-.1-.3-.1-.4-.2-.7-.4-1.4-.7-2.1-.9-.2-.1-.4-.1-.5-.2-.7-.3-1.6-.6-2.3-.7l-2.4-.6c-.2 0-.4-.1-.6-.1-.7-.1-1.6-.2-2.3-.3h-2.9c-.7 0-1.6.1-2.3.2-.2 0-.4.1-.5.1-.7.1-1.6.3-2.3.5s-1.5.4-2.2.7c-.2.1-.3.1-.5.2-.7.3-1.4.6-2.1.8-.1.1-.2.1-.4.2-.7.3-1.2.7-1.9.9-.1.1-.2.1-.4.2-.7.4-1.3.8-2 1.2-.1.1-.3.2-.4.3-.7.5-1.2.9-1.9 1.5 28.4-13.4 43.3 11.3 43.5 11.6z" class="st34"/><path d="M721.5 560.8c-.3-.7-.6-1.4-.8-2.1-.1-.2-.1-.3-.2-.5-.3-.7-.7-1.4-1-2.1-.1-.1-.1-.2-.2-.3-.4-.6-.7-1.2-1.1-1.8-.1-.1-.2-.2-.2-.4-.5-.7-.9-1.2-1.4-1.8-.1-.1-.2-.3-.3-.4-.5-.6-1-1.1-1.6-1.7-.6-.6-1.2-1-1.8-1.5-.1-.1-.3-.2-.4-.3-.7-.5-1.2-.9-1.9-1.3-.1-.1-.2-.1-.3-.2-.7-.4-1.2-.7-1.9-1-.1-.1-.3-.1-.4-.2-.7-.4-1.4-.7-2.1-.9-.2-.1-.4-.1-.5-.2-.7-.3-1.6-.6-2.3-.7l-2.4-.6c-.2 0-.4-.1-.6-.1-.7-.1-1.6-.2-2.3-.3h-2.9c-.7 0-1.6.1-2.3.2-.2 0-.4.1-.5.1-.7.1-1.6.3-2.3.5s-1.5.4-2.2.7c-.2.1-.3.1-.5.2-.7.3-1.4.6-2.1.8-.1.1-.2.1-.4.2-.7.3-1.2.7-1.9.9-.1.1-.2.1-.4.2-.7.4-1.3.8-2 1.2-.1.1-.3.2-.4.3-.7.5-1.2.9-1.9 1.5 28.4-13.4 43.3 11.3 43.5 11.6z" class="st35"/><path d="M670.8 580.8c-.3-.7-.6-1.3-.7-2 .1.7.4 1.3.7 2zm8.1 10.5c-.7-.5-1.2-1-1.8-1.5l1.8 1.5zm2 1.4c-.7-.4-1.2-.8-1.9-1.3.6.4 1.2.9 1.9 1.3zm-4.2-3.3c-.6-.5-1-1-1.5-1.6.5.6 1 1 1.5 1.6zm9 5.8c-.7-.3-1.5-.6-2.1-.9.6.2 1.4.6 2.1.9zm-2.2-1c-.7-.4-1.4-.7-2.1-1.2.7.4 1.3.8 2.1 1.2zm-11.4-10.8c-.4-.7-.7-1.4-1-2.1.2.7.6 1.4 1 2.1zm-2.7-6.5.6 1.8c-.2-.6-.3-1.1-.5-1.6l-.1-.2zm5.7 10.7c-.5-.6-.9-1.2-1.4-1.9.4.8.9 1.4 1.4 1.9zm40.4 1c-.6.6-1.1 1.1-1.7 1.6.6-.5 1.3-1.1 1.7-1.6zm-42.2-3.2c-.4-.6-.8-1.2-1.1-1.8.3.6.7 1.2 1.1 1.8zm15.3 10.7c-.8-.2-1.6-.5-2.3-.7.7.3 1.6.5 2.3.7zm18.3-1.5c-.7.3-1.4.6-2.1.8.7-.1 1.5-.4 2.1-.8zm2.2-1c-.6.3-1.1.7-1.7.9.6-.3 1.1-.6 1.7-.9zm4.3-3c-.6.5-1 .8-1.6 1.3.6-.4 1.1-.9 1.6-1.3zm-9.1 5.1c-.6.2-1.2.4-1.9.6.6-.3 1.3-.4 1.9-.6zm7.2-3.7c-.7.5-1.3.8-2 1.2.8-.3 1.4-.7 2-1.2zm-12.3 4.9c-.7.1-1.3.2-2 .2.7-.1 1.3-.1 2-.2zm2.7-.5c-.7.2-1.5.3-2.3.5.8-.2 1.5-.3 2.3-.5zm-5.3.7h-2.4 2.4zm-2.8 0c-.7-.1-1.4-.1-2.1-.3.7.1 1.5.2 2.1.3zm-2.8-.4c-.8-.2-1.6-.3-2.4-.6.9.3 1.7.4 2.4.6z" class="st36"/><path d="M669.4 577c.2.6.3 1.1.5 1.6 0 .1.1.2.1.2.3.7.5 1.3.7 2l.3.6c.4.7.7 1.4 1 2.1 0 .1.1.1.1.2.4.7.7 1.2 1.1 1.8.1.2.2.3.4.5.5.7.9 1.2 1.4 1.9l.1.1c.5.6 1 1 1.5 1.6.2.1.3.3.5.4.6.6 1.1 1 1.8 1.5l.1.1c.6.5 1.2.9 1.9 1.3.2.1.4.2.5.3l2.1 1.2h.1c.7.4 1.4.7 2.1.9.2.1.4.2.6.2.7.3 1.6.6 2.3.7l2.4.6c.2 0 .5.1.7.1l2.1.3h.3c.8 0 1.6.1 2.4 0h.7c.7 0 1.3-.1 2-.2.2 0 .3 0 .5-.1.7-.1 1.5-.3 2.3-.5.2 0 .4-.1.6-.1.7-.2 1.2-.4 1.9-.6.2-.1.4-.1.6-.2.7-.3 1.4-.6 2.1-.8.1-.1.3-.1.4-.2.6-.3 1.1-.6 1.7-.9l.6-.3c.7-.4 1.3-.8 2-1.2.1-.1.2-.1.3-.2.6-.4 1.1-.8 1.6-1.3.2-.1.3-.3.5-.4.6-.6 1.1-1 1.7-1.6-30.9 19.3-45.5-9.5-46.6-11.6z" class="st34"/><path d="M669.4 577c.2.6.3 1.1.5 1.6 0 .1.1.2.1.2.3.7.5 1.3.7 2l.3.6c.4.7.7 1.4 1 2.1 0 .1.1.1.1.2.4.7.7 1.2 1.1 1.8.1.2.2.3.4.5.5.7.9 1.2 1.4 1.9l.1.1c.5.6 1 1 1.5 1.6.2.1.3.3.5.4.6.6 1.1 1 1.8 1.5l.1.1c.6.5 1.2.9 1.9 1.3.2.1.4.2.5.3l2.1 1.2h.1c.7.4 1.4.7 2.1.9.2.1.4.2.6.2.7.3 1.6.6 2.3.7l2.4.6c.2 0 .5.1.7.1l2.1.3h.3c.8 0 1.6.1 2.4 0h.7c.7 0 1.3-.1 2-.2.2 0 .3 0 .5-.1.7-.1 1.5-.3 2.3-.5.2 0 .4-.1.6-.1.7-.2 1.2-.4 1.9-.6.2-.1.4-.1.6-.2.7-.3 1.4-.6 2.1-.8.1-.1.3-.1.4-.2.6-.3 1.1-.6 1.7-.9l.6-.3c.7-.4 1.3-.8 2-1.2.1-.1.2-.1.3-.2.6-.4 1.1-.8 1.6-1.3.2-.1.3-.3.5-.4.6-.6 1.1-1 1.7-1.6-30.9 19.3-45.5-9.5-46.6-11.6z" class="st36"/><path d="M606.4 943.1c-.4.2-.7.5-1.2.7.4-.2.8-.5 1.2-.7zm1.1-.8c-.3.2-.6.4-.8.6.2-.1.5-.3.8-.6zm.9-17.2c.3.3.6.6.8.9-.2-.3-.5-.6-.8-.9zm-1-.8c.3.3.7.5.9.7-.2-.2-.5-.5-.9-.7zm-14.3.4c.3-.3.7-.6 1-.7-.3.3-.7.5-1 .7zm5.9 19.9c-.5-.1-.9-.2-1.4-.3.5.1.9.2 1.4.3zm-1.4-.2c-.5-.1-.9-.3-1.3-.5.4.2.8.4 1.3.5zm-6.9-5.5c-.2-.4-.4-.7-.6-1.1.2.4.4.8.6 1.1zm9.8 5.8c-.4 0-.7 0-1.1-.1.4.1.7.1 1.1.1zm9.7-17.4c.2.3.3.5.5.7-.2-.1-.3-.4-.5-.7zm-18.8 12.8c-.3-.4-.5-.7-.7-1.1.2.4.4.8.7 1.1zm12.2 4.3c-.4.1-.7.2-1.1.3.3-.2.7-.3 1.1-.3zm-1.3.2c-.5.1-.9.1-1.4.1.4 0 .9 0 1.4-.1zm7.2-18.3c.2.2.4.5.6.7-.3-.2-.5-.5-.6-.7zm-.7 14.9c-.3.4-.7.7-1 .9.3-.3.7-.6 1-.9z" class="st34"/><path d="M589.5 930.4c-.6 2.1-.5 4 0 6 .5.9 6.5 12.9 19.3 4.9 1.3-1.3 2.2-3 2.7-4.9.7-2.2.5-4.6-.3-6.6-.1-.1-6.4-10.4-18.2-4.9-1.6 1.3-2.8 3.3-3.5 5.5zm15.5 13.4zm.2-20.8c.3.1.6.3.8.4-.3-.2-.6-.4-.8-.4z" class="st34"/><path d="M596.7 922.7c.7-.3 1.6-.5 2.4-.6-.8.1-1.6.3-2.4.6zm9.7.9c.3.2.5.3.7.5-.3-.2-.4-.4-.7-.5zm4.5 4.9c.2.4.3.7.5 1-.3-.3-.4-.7-.5-1zm-20.9 8.9c-.1-.3-.2-.7-.3-.9 0 .4.1.7.3.9zm4.4-13.6c.3-.2.5-.3.7-.5-.2.2-.4.3-.7.5zm1.1-.7c.3-.1.6-.3.8-.4-.2.3-.5.3-.8.4zm6.7-1c.5.1.8.2 1.3.3-.4-.1-.9-.2-1.3-.3zm-7.5 20.9c-.4-.2-.7-.5-1.1-.7.3.3.7.6 1.1.7zm8.8-20.6c.5.1.8.3 1.2.5-.3-.2-.8-.4-1.2-.5zm-7.6 21.3c-.3-.1-.7-.3-.9-.5.3.2.6.4.9.5zm5-21.7c.3 0 .6 0 .9.1-.3-.1-.6-.1-.9-.1zm-7.4 20.3c-.4-.3-.7-.6-.9-.8.3.2.6.5.9.8zm6-20.3h.9-.9zm-7.2 19.2c-.2-.3-.5-.5-.7-.7.3.2.5.4.7.7z" class="st34"/><path d="M600.5 922h.5-.5zm6.6 2.1c.1.1.2.2.4.2-.2-.1-.3-.1-.4-.2zm2.2 1.9.3.3c-.2-.1-.2-.2-.3-.3zm.7 1.1c.1.1.2.3.3.4-.1-.3-.2-.3-.3-.4zm-4-3.8c.1.1.3.2.4.2-.2 0-.3-.1-.4-.2zm-12.9 1.5v-.1zm3.3-2c.1-.1.3-.1.4-.2-.2.1-.3.2-.4.2zm2.8-.7h.4c-.1-.1-.3-.1-.4 0zm-5.1 1.9c.1-.1.2-.2.4-.2-.2.1-.3.2-.4.2zm14.2 1.1zm-6.5-3.1h.4c-.1.1-.2.1-.4 0zm-6.6 1.3c.1-.1.3-.1.4-.2-.2.1-.3.2-.4.2zm9.6-.5c.1.1.3.1.4.2-.1-.1-.3-.1-.4-.2zm6.5 6.8zm-.6-1.5c.1.1.1.3.2.4-.1-.1-.1-.2-.2-.4z" class="st35"/><path d="M611.3 929.6c-.2-.5-.3-.7-.5-1.1-.1-.1-.1-.3-.2-.4-.1-.3-.3-.5-.5-.7-.1-.1-.2-.3-.3-.4-.2-.3-.4-.5-.6-.7l-.3-.3c-.3-.3-.6-.7-.8-.9-.3-.3-.6-.6-.9-.7-.1-.1-.2-.2-.4-.2-.3-.2-.5-.4-.7-.5-.1-.1-.3-.2-.4-.2-.3-.2-.6-.3-.8-.4-.1-.1-.3-.1-.4-.2-.4-.2-.8-.3-1.2-.5-.5-.1-.8-.2-1.3-.3h-.4c-.3 0-.6-.1-.9-.1h-1.8c-.8.1-1.7.3-2.4.6-.1 0-.3.1-.4.2-.3.1-.6.2-.8.4-.1.1-.3.1-.4.2-.3.1-.5.3-.7.5-.1.1-.2.1-.4.2-.4.3-.7.5-1 .7 12.2-5.6 18.4 4.7 18.5 4.8z" class="st34"/><path d="M611.3 929.6c-.2-.5-.3-.7-.5-1.1-.1-.1-.1-.3-.2-.4-.1-.3-.3-.5-.5-.7-.1-.1-.2-.3-.3-.4-.2-.3-.4-.5-.6-.7l-.3-.3c-.3-.3-.6-.7-.8-.9-.3-.3-.6-.6-.9-.7-.1-.1-.2-.2-.4-.2-.3-.2-.5-.4-.7-.5-.1-.1-.3-.2-.4-.2-.3-.2-.6-.3-.8-.4-.1-.1-.3-.1-.4-.2-.4-.2-.8-.3-1.2-.5-.5-.1-.8-.2-1.3-.3h-.4c-.3 0-.6-.1-.9-.1h-1.8c-.8.1-1.7.3-2.4.6-.1 0-.3.1-.4.2-.3.1-.6.2-.8.4-.1.1-.3.1-.4.2-.3.1-.5.3-.7.5-.1.1-.2.1-.4.2-.4.3-.7.5-1 .7 12.2-5.6 18.4 4.7 18.5 4.8z" class="st35"/><path d="M595 943.3c-.1-.1-.2-.1-.4-.2.2 0 .3.1.4.2zm8.9 1c-.1 0-.3.1-.4.1.2-.1.3-.1.4-.1zm-11.4-2.8-.3-.3c.2.1.2.2.3.3zm-.8-1.1c-.1-.1-.2-.2-.2-.3 0 .1.1.2.2.3zm-1.6-2.6c-.1-.1-.1-.3-.2-.4.1.2.2.3.2.4zm3.5 4.5zm13.1.7c-.1.1-.2.1-.3.2.1-.2.2-.2.3-.2zm-7.2 1.6h-.4.4zm8.4-2.5-.3.3.3-.3zm-17.2-3.1s0-.1 0 0c0-.1 0 0 0 0zm10.2 5.7h-.4.4zm1.5-.2h-.3c.2.1.3 0 .3 0zm-6.1-.6c-.1-.1-.3-.1-.4-.2.2.1.3.2.4.2zm8.9-.2c-.1 0-.2.1-.2.1s.2 0 .2-.1zm-15.7-7.4c0 .1.1.2.1.2s0-.1-.1-.2z" class="st36"/><path d="M589.6 936.4c0 .1 0 .1.1.2.1.3.2.7.3.9.1.1.1.3.2.4.2.4.4.7.6 1.1 0 0 0 .1.1.1.2.4.5.7.7 1.1.1.1.2.2.2.3.2.3.4.5.7.7l.3.3c.3.3.7.6.9.8h.1c.4.3.7.6 1.1.7.1.1.2.1.4.2.3.2.6.3.9.5.1.1.3.1.4.2.5.2.8.4 1.3.5s.9.2 1.4.3h.4c.4 0 .7.1 1.1.1h.4c.5 0 .9-.1 1.4-.1h.3c.4-.1.7-.2 1.1-.3.1 0 .3-.1.4-.1.4-.1.7-.3 1-.4.1 0 .2-.1.2-.1.4-.2.8-.4 1.2-.7.1-.1.2-.1.3-.2.3-.2.6-.4.8-.6l.3-.3c.4-.3.7-.6 1-.9-13 8.1-19.2-3.9-19.6-4.7z" class="st34"/><path d="M589.6 936.4c0 .1 0 .1.1.2.1.3.2.7.3.9.1.1.1.3.2.4.2.4.4.7.6 1.1 0 0 0 .1.1.1.2.4.5.7.7 1.1.1.1.2.2.2.3.2.3.4.5.7.7l.3.3c.3.3.7.6.9.8h.1c.4.3.7.6 1.1.7.1.1.2.1.4.2.3.2.6.3.9.5.1.1.3.1.4.2.5.2.8.4 1.3.5s.9.2 1.4.3h.4c.4 0 .7.1 1.1.1h.4c.5 0 .9-.1 1.4-.1h.3c.4-.1.7-.2 1.1-.3.1 0 .3-.1.4-.1.4-.1.7-.3 1-.4.1 0 .2-.1.2-.1.4-.2.8-.4 1.2-.7.1-.1.2-.1.3-.2.3-.2.6-.4.8-.6l.3-.3c.4-.3.7-.6 1-.9-13 8.1-19.2-3.9-19.6-4.7z" class="st36"/><path d="M774.6 713.7c-.4.1-.7.2-1.1.3.3-.1.7-.2 1.1-.3zm1.4-.5c-.4.2-.7.3-1 .4.3-.1.7-.2 1-.4zm-4.5 1c-.4 0-.7 0-1.1-.1.5 0 .7.1 1.1.1zm-2.9-.4c-.5-.1-.9-.3-1.3-.5.5.2.9.3 1.3.5zm4.7.2c-.5.1-.9.1-1.4.1.5.1.9 0 1.4-.1zm-3.2.1c-.5-.1-.9-.2-1.4-.3.4.1.8.2 1.4.3zm7.3-1.6c-.4.2-.7.5-1.2.7.4-.2.8-.4 1.2-.7zm1.2-.8c-.3.2-.6.4-.8.6.3-.2.5-.4.8-.6zm-15.2-1.2c-.2-.3-.5-.5-.7-.7.2.3.4.5.7.7zm-1.7-2.2c-.2-.4-.4-.7-.6-1.1.2.4.4.8.6 1.1zm6.1-16.3c.4-.2.7-.3 1.2-.4-.5.2-.9.3-1.2.4zm-5.4 17.5c-.3-.4-.5-.7-.7-1.1.3.4.5.8.7 1.1zm8.2-18h.9c-.4-.1-.6 0-.9 0zm-3.7 21.6c-.3-.1-.7-.3-.9-.5.4.3.6.4.9.5zm-5.9-6.2c-.1-.3-.2-.7-.3-.9.1.2.2.6.3.9zm3.1-12.7c.3-.3.7-.6 1-.7-.3.1-.6.4-1 .7zm1.3-1c.3-.2.5-.3.7-.5-.2.2-.4.3-.7.5zm6.6-1.8c.3 0 .6 0 .9.1-.4 0-.6-.1-.9-.1zm-5.4 1.2c.3-.1.6-.3.8-.4-.3.1-.6.2-.8.4z" class="st34"/><path d="M779.8 710.6c1.3-1.3 2.2-3 2.7-4.9.7-2.2.5-4.6-.3-6.6-.1-.1-6.4-10.4-18.2-4.9-1.7 1.4-2.9 3.4-3.6 5.6-.6 2.1-.5 4 0 6 .6.9 6.8 12.9 19.4 4.8z" class="st34"/><path d="M769 691.7c.4-.1.8-.2 1.2-.2-.5 0-.8.1-1.2.2zm12.9 6.2c.2.4.3.7.5 1-.2-.3-.3-.6-.5-1zm-.7-1.1c.2.3.3.5.5.7-.1-.2-.3-.4-.5-.7zm-.7-1c.2.2.4.5.6.7-.2-.3-.4-.6-.6-.7zm-.7 14.8c-.3.4-.7.7-1 .9.4-.3.7-.6 1-.9zm-6.5-19.1c.5.1.8.2 1.3.3-.5-.2-.9-.3-1.3-.3zm-8.7 20.1c-.4-.3-.7-.6-.9-.8.2.4.5.7.9.8zm1.1.9c-.4-.2-.7-.5-1.1-.7.4.2.7.5 1.1.7zm10.5-20.1c.3.1.6.3.8.4-.3-.2-.5-.3-.8-.4zm3.3 2.1c.3.3.6.6.8.9-.3-.3-.6-.6-.8-.9zm-5-2.8c.5.1.8.3 1.2.5-.3-.2-.7-.3-1.2-.5zm2.9 1.3c.3.2.5.3.7.5-.2-.2-.4-.4-.7-.5zm1 .7c.3.3.7.5.9.7-.2-.2-.5-.5-.9-.7z" class="st34"/><path d="M764.1 694.2zm6.1-2.7h.4-.4zm10.1 3.9.3.3-.3-.3zm-4.5-3.2c.1.1.3.1.4.2-.1-.1-.3-.2-.4-.2zm5.9 5.3c.1.1.1.3.2.4-.1-.1-.1-.3-.2-.4zm-.7-1.1c.1.1.2.3.3.4-.1-.1-.2-.3-.3-.4zm-4-3.6c.1.1.3.2.4.2-.1-.1-.3-.1-.4-.2zm2.4 1.6s.1 0 0 0c.1 0 0 0 0 0zm-13.2-1.6c.1-.1.3-.1.4-.2-.1 0-.2.1-.4.2zm-1 .6c.1-.1.2-.2.4-.2-.3 0-.4.1-.4.2zm2.2-1.2c.1-.1.3-.1.4-.2-.2.1-.3.2-.4.2zm10.7 1.2c.1.1.2.2.4.2-.2 0-.3-.1-.4-.2zm-5.3-1.9h.4-.4zm-1.3-.1h.5-.5zm10.9 7.6z" class="st35"/><path d="M782.4 699c-.2-.5-.3-.7-.5-1.1-.1-.1-.1-.3-.2-.4-.1-.3-.3-.5-.5-.7-.1-.1-.2-.3-.3-.4-.2-.3-.4-.5-.6-.7l-.3-.3c-.3-.3-.6-.7-.8-.9-.3-.3-.6-.6-.9-.7-.1-.1-.2-.2-.4-.2-.3-.2-.5-.4-.7-.5-.1-.1-.3-.2-.4-.2-.3-.2-.6-.3-.8-.4-.1-.1-.3-.1-.4-.2-.4-.2-.8-.3-1.2-.5-.5-.1-.8-.2-1.3-.3h-.4c-.3 0-.6-.1-.9-.1H770c-.4.1-.8.1-1.2.2-.4.1-.8.2-1.2.4-.1 0-.3.1-.4.2-.3.1-.6.2-.8.4-.1.1-.3.1-.4.2-.3.1-.5.3-.7.5-.1.1-.2.1-.4.2-.4.3-.7.5-1 .7 12.1-5.5 18.4 4.7 18.5 4.8z" class="st34"/><path d="M782.4 699c-.2-.5-.3-.7-.5-1.1-.1-.1-.1-.3-.2-.4-.1-.3-.3-.5-.5-.7-.1-.1-.2-.3-.3-.4-.2-.3-.4-.5-.6-.7l-.3-.3c-.3-.3-.6-.7-.8-.9-.3-.3-.6-.6-.9-.7-.1-.1-.2-.2-.4-.2-.3-.2-.5-.4-.7-.5-.1-.1-.3-.2-.4-.2-.3-.2-.6-.3-.8-.4-.1-.1-.3-.1-.4-.2-.4-.2-.8-.3-1.2-.5-.5-.1-.8-.2-1.3-.3h-.4c-.3 0-.6-.1-.9-.1H770c-.4.1-.8.1-1.2.2-.4.1-.8.2-1.2.4-.1 0-.3.1-.4.2-.3.1-.6.2-.8.4-.1.1-.3.1-.4.2-.3.1-.5.3-.7.5-.1.1-.2.1-.4.2-.4.3-.7.5-1 .7 12.1-5.5 18.4 4.7 18.5 4.8z" class="st35"/><path d="M762.7 709.8c-.1-.1-.2-.2-.2-.3 0 .1.1.2.2.3zm7.8 4.3h-.4.4zm-5.9-2.4zm2.7 1.6c-.1-.1-.3-.1-.4-.2.2.1.3.1.4.2zm-1.2-.6c-.1-.1-.2-.1-.4-.2.1.1.2.1.4.2zm-5.4-6.8c0-.1 0-.1-.1-.2v-.1c.1.2.1.2.1.3zm.4 1.4c-.1-.1-.1-.3-.2-.4.1.1.2.3.2.4zm.6 1.2s0-.1 0 0c0-.1 0-.1 0 0zm16 3.8c-.1.1-.2.1-.3.2.1 0 .2-.1.3-.2zm-1.4.8c-.1 0-.2.1-.2.1s.1-.1.2-.1zm2.6-1.6-.3.3c.1-.2.2-.3.3-.3zm-7 2.7h-.4.4zm1.6-.2h-.3.3zm1.5-.4c-.1 0-.3.1-.4.1.1 0 .3 0 .4-.1zm-11.4-2.8-.3-.3.3.3z" class="st36"/><path d="M761 706.9c.1.1.1.3.2.4.2.4.4.7.6 1.1 0 0 0 .1.1.1.2.4.5.7.7 1.1.1.1.2.2.2.3.2.3.4.5.7.7l.3.3c.3.3.7.6.9.8h.1c.4.3.7.6 1.1.7.1.1.2.1.4.2.3.2.6.3.9.5.1.1.3.1.4.2.5.2.8.4 1.3.5s.9.2 1.4.3h.4c.4 0 .7.1 1.1.1h.4c.5 0 .9-.1 1.4-.1h.3c.4-.1.7-.2 1.1-.3.1 0 .3-.1.4-.1.4-.1.7-.3 1-.4.1 0 .2-.1.2-.1.4-.2.8-.4 1.2-.7.1-.1.2-.1.3-.2.3-.2.6-.4.8-.6l.3-.3c.4-.3.7-.6 1-.9-12.7 8-18.8-3.9-19.3-4.9 0 .1 0 .1.1.2-.2.4-.1.8 0 1.1z" class="st34"/><path d="M761 706.9c.1.1.1.3.2.4.2.4.4.7.6 1.1 0 0 0 .1.1.1.2.4.5.7.7 1.1.1.1.2.2.2.3.2.3.4.5.7.7l.3.3c.3.3.7.6.9.8h.1c.4.3.7.6 1.1.7.1.1.2.1.4.2.3.2.6.3.9.5.1.1.3.1.4.2.5.2.8.4 1.3.5s.9.2 1.4.3h.4c.4 0 .7.1 1.1.1h.4c.5 0 .9-.1 1.4-.1h.3c.4-.1.7-.2 1.1-.3.1 0 .3-.1.4-.1.4-.1.7-.3 1-.4.1 0 .2-.1.2-.1.4-.2.8-.4 1.2-.7.1-.1.2-.1.3-.2.3-.2.6-.4.8-.6l.3-.3c.4-.3.7-.6 1-.9-12.7 8-18.8-3.9-19.3-4.9 0 .1 0 .1.1.2-.2.4-.1.8 0 1.1z" class="st36"/><path d="M275.8 775c.5.1.9.3 1.3.5-.4-.2-.8-.4-1.3-.5zm-2.8-.5c.3 0 .7 0 .9.1-.2 0-.6-.1-.9-.1zm-10.9 18.2c-.2-.4-.4-.7-.6-1.1.2.3.4.7.6 1.1zm16.8 4.5c-.4.3-.8.5-1.3.7.5-.3.8-.6 1.3-.7zm-11.2.6c-.4-.2-.7-.3-.9-.5.2.1.6.3.9.5zm9.7.1c-.4.2-.7.3-1.1.4.4-.1.7-.3 1.1-.4zm-5.8-23.3c.3 0 .7 0 .9-.1-.3 0-.6.1-.9.1zm5.9 1c.3.1.6.3.8.5-.2-.3-.4-.3-.8-.5zm-11.4.9c.3-.2.6-.4.8-.5-.2.1-.5.3-.8.5zm-1.4 1c.4-.3.7-.6 1-.8-.4.3-.6.6-1 .8zm16.8 17.6c-.4.4-.7.7-1 .9.3-.2.6-.6 1-.9zm-2.7-18.9c.3.2.6.4.8.6-.2-.2-.5-.4-.8-.6zm-11.5-.4c.3-.1.6-.3.8-.4-.2.2-.5.3-.8.4zm2.5-.9c.5-.1.8-.2 1.3-.3-.4.1-.8.2-1.3.3zm-8.5 16.2c-.1-.4-.3-.7-.4-1 .2.3.3.7.4 1zm18.8 5.2c-.3.2-.6.5-.9.7.3-.3.6-.5.9-.7zm-11.6-21c.4-.2.8-.3 1.3-.4-.4.1-.8.2-1.3.4zm5.9-.6c.5.1.9.2 1.4.3-.5-.2-.9-.3-1.4-.3zm0 24c-.5.1-.9.1-1.5.1.6 0 1-.1 1.5-.1zm-4.9-.2c-.5-.1-.9-.3-1.4-.5.4.1.9.3 1.4.5zm12.7-19.3c.2.3.4.5.6.7-.3-.2-.4-.5-.6-.7zM271 798.7l-1.5-.3c.5.2 1 .3 1.5.3zm12-18.4c.2.3.3.6.5.8-.2-.2-.4-.5-.5-.8zm.7 1.2c.2.4.4.7.5 1.1-.3-.3-.4-.8-.5-1.1zm-11.2 17.3c-.4 0-.7 0-1.1-.1.4.1.8.1 1.1.1zm-6.1-1.7c-.4-.3-.8-.5-1.2-.8.3.3.7.6 1.2.8z" class="st34"/><path d="M264.7 777.5c-1.8 1.5-3.1 3.6-3.7 6-.6 2.1-.6 4.3 0 6.4.5.9 7 13.7 20.6 5.1 1.3-1.4 2.3-3.2 2.9-5.2.7-2.4.6-5-.3-7.1-.2-.1-6.8-11.1-19.5-5.2z" class="st34"/><path d="m281 777.9.9.9c-.3-.2-.6-.6-.9-.9zm-5.2 20.5c-.4.1-.7.2-1.2.3.5-.1.8-.1 1.2-.3zm4.2-21.3c.4.3.7.6 1 .8-.3-.4-.7-.6-1-.8zm-17.1 16.8c-.3-.4-.6-.7-.7-1.2.2.4.4.8.7 1.2zm.9 1.1c-.3-.3-.5-.6-.7-.8.3.3.5.5.7.8zm1.4 1.2c-.4-.3-.7-.6-1-.9.2.4.6.6 1 .9z" class="st34"/><path d="M265.7 776.7c.1-.1.2-.2.4-.2-.1.1-.3.2-.4.2zm12.7-.7c.2.1.3.2.4.3-.1-.1-.3-.2-.4-.3zm-4.5-1.4c.2 0 .3 0 .5.1-.2-.1-.3-.1-.5-.1zm3.2.8c.1.1.3.1.4.2-.1 0-.2-.1-.4-.2zm-4.6-.9h.5-.5zm8.5 3.3s0 .1 0 0c0 .1 0 0 0 0zm-1.4-1c.1.1.3.2.4.3-.2-.1-.3-.2-.4-.3zm-8.5-2.2h.4-.4zm-4.2 1.4c.1-.1.3-.2.4-.2-.2 0-.3.1-.4.2zm16.5 5.1c.1.1.1.3.2.4 0-.1-.1-.2-.2-.4zm-15.3-5.6c.1-.1.3-.1.4-.2-.1 0-.3.1-.4.2zm16 7.2c0 .1 0 .1 0 0zm-2.2-3.9.3.3c-.1 0-.2-.2-.3-.3zm.8 1.2c.1.1.2.3.3.4-.1-.3-.2-.3-.3-.4z" class="st35"/><path d="M283.7 781.5c-.1-.1-.1-.3-.2-.4-.2-.3-.3-.6-.5-.8-.1-.1-.2-.3-.3-.4-.2-.3-.4-.5-.6-.7l-.3-.3c-.3-.4-.6-.7-.9-.9-.3-.3-.7-.6-1-.8-.1-.1-.2-.2-.4-.3-.3-.2-.6-.4-.8-.6-.1-.1-.3-.2-.4-.3-.3-.2-.6-.3-.8-.5-.1-.1-.3-.1-.4-.2-.5-.2-.8-.4-1.3-.5s-.9-.2-1.4-.3c-.2 0-.3 0-.5-.1-.3 0-.7-.1-.9-.1h-.5c-.3 0-.7 0-.9.1h-.4c-.5.1-.9.1-1.3.3-.5.1-.8.3-1.3.4-.1.1-.3.1-.4.2-.3.1-.6.3-.8.4-.1.1-.3.1-.4.2-.3.2-.6.3-.8.5-.1.1-.3.2-.4.2-.4.3-.7.6-1 .8 12.7-5.9 19.3 5 19.4 5.1v-.1c-.3-.1-.4-.6-.5-.9z" class="st34"/><path d="M283.7 781.5c-.1-.1-.1-.3-.2-.4-.2-.3-.3-.6-.5-.8-.1-.1-.2-.3-.3-.4-.2-.3-.4-.5-.6-.7l-.3-.3c-.3-.4-.6-.7-.9-.9-.3-.3-.7-.6-1-.8-.1-.1-.2-.2-.4-.3-.3-.2-.6-.4-.8-.6-.1-.1-.3-.2-.4-.3-.3-.2-.6-.3-.8-.5-.1-.1-.3-.1-.4-.2-.5-.2-.8-.4-1.3-.5s-.9-.2-1.4-.3c-.2 0-.3 0-.5-.1-.3 0-.7-.1-.9-.1h-.5c-.3 0-.7 0-.9.1h-.4c-.5.1-.9.1-1.3.3-.5.1-.8.3-1.3.4-.1.1-.3.1-.4.2-.3.1-.6.3-.8.4-.1.1-.3.1-.4.2-.3.2-.6.3-.8.5-.1.1-.3.2-.4.2-.4.3-.7.6-1 .8 12.7-5.9 19.3 5 19.4 5.1v-.1c-.3-.1-.4-.6-.5-.9z" class="st35"/><path d="M268.1 797.9c-.1-.1-.3-.1-.4-.2.2.1.3.2.4.2zm-5-3.6-.3-.3c.2.1.3.2.3.3zm13.2 4c-.1 0-.3.1-.4.1.1 0 .2 0 .4-.1zm-14.1-5.5s0-.1 0 0c-.1-.1-.1-.1 0 0zm9.2 5.9c-.2 0-.3 0-.5-.1.2.1.4.1.5.1zm6.2-.9c-.1 0-.2.1-.3.1.1-.1.2-.1.3-.1zm-4.7 1h-.4.4zm-8.8-3.5-.3-.3.3.3zm10.6 3.4c-.1 0-.2 0-.3.1.1-.1.2-.1.3-.1zm-13.7-8.8c0 .1.1.2.1.3-.1-.1-.1-.2-.1-.3zm.5 1.6c-.1-.1-.1-.3-.2-.4.1.2.1.3.2.4zm18.9 4.5-.3.3.3-.3zm-13.7 1.3c-.1-.1-.3-.1-.4-.2.2.1.3.2.4.2zm14.8-2.2zm-16.3 1.2c0-.1 0-.1 0 0 0-.1 0-.1 0 0zm14 .7c-.1.1-.2.1-.3.2.1-.1.2-.2.3-.2z" class="st36"/><path d="M261 789.9c0 .1 0 .1.1.2.1.4.2.7.4 1 .1.1.1.3.2.4.2.4.4.7.6 1.1 0 0 0 .1.1.1.2.4.5.7.7 1.2l.3.3c.2.3.5.6.7.8l.3.3c.3.3.7.7 1 .9l.1.1c.4.3.7.6 1.2.8.1.1.3.1.4.2.3.2.7.4.9.5.1.1.3.1.4.2.5.2.9.4 1.4.5l1.5.3c.2 0 .3 0 .5.1.4 0 .7.1 1.1.1h.4c.5 0 .9-.1 1.5-.1.1 0 .2 0 .3-.1.4-.1.7-.2 1.2-.3.1 0 .3-.1.4-.1.4-.1.7-.3 1.1-.4.1 0 .2-.1.3-.1.5-.2.8-.4 1.3-.7.1-.1.2-.1.3-.2.3-.2.7-.4.9-.7l.3-.3c.4-.3.7-.7 1-.9-13.9 8.6-20.5-4.2-20.9-5.2z" class="st34"/><path d="M261 789.9c0 .1 0 .1.1.2.1.4.2.7.4 1 .1.1.1.3.2.4.2.4.4.7.6 1.1 0 0 0 .1.1.1.2.4.5.7.7 1.2l.3.3c.2.3.5.6.7.8l.3.3c.3.3.7.7 1 .9l.1.1c.4.3.7.6 1.2.8.1.1.3.1.4.2.3.2.7.4.9.5.1.1.3.1.4.2.5.2.9.4 1.4.5l1.5.3c.2 0 .3 0 .5.1.4 0 .7.1 1.1.1h.4c.5 0 .9-.1 1.5-.1.1 0 .2 0 .3-.1.4-.1.7-.2 1.2-.3.1 0 .3-.1.4-.1.4-.1.7-.3 1.1-.4.1 0 .2-.1.3-.1.5-.2.8-.4 1.3-.7.1-.1.2-.1.3-.2.3-.2.7-.4.9-.7l.3-.3c.4-.3.7-.7 1-.9-13.9 8.6-20.5-4.2-20.9-5.2z" class="st36"/><path d="M171.4 849.2c.4.5.7.9 1.1 1.4-.3-.5-.7-.9-1.1-1.4zm-10.5-9.6c.6.4 1 .7 1.6 1-.6-.4-1.2-.6-1.6-1zm-47.3-.4c.5.9.9 2 1.4 2.9 13.5 26.9 29.5 51.6 47.8 74 2.1-1.1 4.2-2.3 6.4-3.7 5.3-5.6 9.3-12.6 11.5-20.6 2.6-9.6 2.1-19.3-1-28.1-.4-.4-23-37.6-66.1-24.5z" class="st34"/><path d="M169.1 912.4c-.7.7-1.3 1.3-2.1 2 .8-.6 1.4-1.3 2.1-2zm-42.5-80.2c.7-.1 1.2-.2 1.9-.3-.7.1-1.4.2-1.9.3zm11.7-.5c.7.1 1.3.1 2 .2-.8-.1-1.4-.2-2-.2zm28.9 12.9c.7.6 1.2 1.2 1.9 1.9-.6-.7-1.2-1.2-1.9-1.9zm-9.3-6.9c.7.5 1.6.9 2.3 1.4-.8-.4-1.6-.9-2.3-1.4zm11.7 9.5c.4.5.8.9 1.2 1.4-.3-.6-.8-1.1-1.2-1.4zm3.5 4.2c.5.7.9 1.3 1.3 2-.5-.8-.8-1.5-1.3-2zm-10-10.2c.5.4.9.7 1.5 1.1-.5-.4-.9-.8-1.5-1.1zm14.5 17.7c.3.6.5 1.1.7 1.7-.2-.6-.5-1.1-.7-1.7zm-12.3-16c.7.6 1.2 1 1.8 1.6-.6-.5-1.2-1.1-1.8-1.6zm-1.6 74.4c.2-.2.4-.3.6-.5-.3.3-.5.4-.6.5zM141.1 832c.7.1 1.3.2 2 .3-.7-.1-1.3-.2-2-.3zm-23 2.4c.6-.2 1.1-.4 1.8-.6-.7.2-1.3.4-1.8.6zm58.2 22c.3.6.6 1.1.8 1.7-.3-.6-.5-1.1-.8-1.7zm-1.7-2.9c.5.7.9 1.5 1.3 2.2-.5-.7-.8-1.4-1.3-2.2zm-59.2-18.1c.6-.3 1.1-.5 1.7-.7-.5.2-1.1.5-1.7.7zm7.7-2.5c.8-.2 1.7-.4 2.6-.6-.8.2-1.8.4-2.6.6zm29.8 2.4c.6.3 1.2.5 1.8.7-.6-.2-1.2-.4-1.8-.7zm13.6 79.7c-.6.5-1.1.9-1.7 1.4.5-.5 1.1-.9 1.7-1.4zm-16.3-80.7c.7.2 1.2.5 1.8.7-.6-.3-1.1-.6-1.8-.7zm-29.6-.8c.8-.3 1.7-.5 2.5-.7-.8.2-1.7.5-2.5.7zm11.4-2c.9 0 1.8-.1 2.7-.1-.9.1-1.8.1-2.7.1zm2.7 0c.9 0 1.8.1 2.7.1-.8-.1-1.8-.1-2.7-.1zm-22.3 5.4c.7-.4 1.6-.7 2.3-1.1-.8.2-1.6.6-2.3 1.1zm16.9-5.1c.7-.1 1.2-.1 1.9-.2-.6 0-1.3.1-1.9.2zm26.1 4.7c.7.4 1.6.7 2.3 1.2-.7-.4-1.5-.8-2.3-1.2zm-8.7-3.4c.9.3 1.8.6 2.7.8-.9-.2-1.8-.5-2.7-.8zm31.9 28.3c.3.7.6 1.4.8 2.1-.2-.7-.5-1.5-.8-2.1zm-34.7-28.9c.9.2 1.9.4 2.7.7-.8-.2-1.7-.5-2.7-.7z" class="st34"/><path d="M131.2 831.6c.3 0 .6 0 .8-.1-.3.1-.5.1-.8.1zm45.9 26.5c.1.3.3.6.4.8-.1-.2-.2-.5-.4-.8zm-57.3-24.3c.3-.1.6-.2.7-.3-.2.1-.5.2-.7.3zm20.4-1.9c.3 0 .7.1.9.1-.2 0-.6-.1-.9-.1zm17.6 5.7s.1 0 0 0c0 .1 0 .1 0 0zm-5.8-2.7c.3.1.6.3.9.4-.3-.1-.5-.2-.9-.4zm-8.9-2.5c.3.1.6.1.8.2-.2-.1-.5-.2-.8-.2zm-28.4 3.4c.3-.1.5-.2.7-.3-.1 0-.4.1-.7.3zm40 .3c.3.1.6.3.7.4-.2-.2-.5-.3-.7-.4zm-5.3-2.1c.3.1.6.2.8.3-.3-.1-.6-.2-.8-.3zm-32.2.7c.3-.1.6-.2.8-.3-.2 0-.5.2-.8.3zm8.5-2.4c.3-.1.6-.1.8-.1-.2 0-.5.1-.8.1zm11.7-.7c.3 0 .6.1.8.1-.1-.1-.5-.1-.8-.1zm37 21.6c.1.1.1.2.2.2-.1 0-.2-.1-.2-.2zm-46-21.3c.3 0 .7-.1.9-.1-.3 0-.6 0-.9.1zm42.5 16.6c.2.3.4.5.6.7-.3-.2-.5-.5-.6-.7zm-6.3-6.1c.2.2.5.4.7.6-.2-.3-.5-.5-.7-.6zm2.4 2.1.2.2c0-.1-.1-.2-.2-.2zm2.1 2 .6.6-.6-.6zm3.4 4.1c.2.2.4.5.5.7-.1-.2-.3-.4-.5-.7zm-10.1-10c.3.2.5.4.7.6-.2-.2-.5-.4-.7-.6zm13.5 15.2c.1.2.3.5.4.7-.1-.3-.3-.6-.4-.7zm2.4 4.7c.1.3.2.6.4.7-.2-.1-.3-.4-.4-.7zm1.2 3.3c0-.1-.1-.2-.1-.3.1.1.1.2.1.3zm-19.4-24.7c.2.2.5.3.7.5-.2-.2-.4-.3-.7-.5z" class="st35"/><path d="M179.5 863.8c0-.1-.1-.2-.1-.3-.3-.7-.6-1.4-.8-2.1-.1-.3-.2-.6-.4-.7-.3-.6-.5-1.1-.7-1.7-.1-.3-.3-.6-.4-.8-.3-.6-.6-1.1-.8-1.7-.1-.2-.3-.5-.4-.7-.5-.7-.8-1.5-1.3-2.2-.1-.1-.1-.2-.2-.2-.5-.7-.8-1.3-1.3-2-.2-.2-.4-.5-.5-.7-.4-.5-.7-.9-1.1-1.4-.2-.3-.4-.5-.6-.7-.4-.5-.8-.9-1.2-1.4l-.6-.6c-.6-.7-1.2-1.3-1.9-1.9l-.2-.2c-.6-.6-1.2-1.1-1.8-1.6-.2-.2-.5-.4-.7-.6-.5-.4-.9-.7-1.5-1.1-.3-.2-.5-.4-.7-.6-.5-.4-1-.7-1.6-1-.2-.2-.5-.3-.7-.5-.7-.5-1.5-.9-2.3-1.4 0 0-.1 0-.1-.1-.7-.5-1.5-.8-2.3-1.2-.3-.1-.6-.3-.7-.4-.6-.3-1.1-.6-1.8-.7-.3-.1-.6-.3-.9-.4-.6-.3-1.2-.5-1.8-.7-.3-.1-.6-.2-.8-.3-.8-.3-1.8-.6-2.7-.8-.9-.3-1.9-.5-2.7-.7-.3-.1-.6-.1-.8-.2-.7-.1-1.3-.2-2-.3-.3 0-.7-.1-.9-.1-.7-.1-1.3-.2-2-.2-.3 0-.6-.1-.8-.1-.9-.1-1.8-.1-2.7-.1s-1.8 0-2.7.1c-.3 0-.6 0-.8.1-.7 0-1.2.1-1.9.2-.3 0-.7.1-.9.1-.7.1-1.2.2-1.9.3-.3 0-.6.1-.8.1-.8.2-1.8.4-2.6.6-.8.2-1.7.5-2.5.7-.3.1-.6.2-.7.3l-1.8.6c-.3.1-.6.2-.8.3-.6.2-1.1.5-1.7.7-.3.1-.5.2-.7.3-.7.4-1.6.7-2.3 1.1.4.7.7 1.6 1.1 2.3 43-13.1 65.6 24.1 65.8 24.6z" class="st34"/><path d="M179.5 863.8c0-.1-.1-.2-.1-.3-.3-.7-.6-1.4-.8-2.1-.1-.3-.2-.6-.4-.7-.3-.6-.5-1.1-.7-1.7-.1-.3-.3-.6-.4-.8-.3-.6-.6-1.1-.8-1.7-.1-.2-.3-.5-.4-.7-.5-.7-.8-1.5-1.3-2.2-.1-.1-.1-.2-.2-.2-.5-.7-.8-1.3-1.3-2-.2-.2-.4-.5-.5-.7-.4-.5-.7-.9-1.1-1.4-.2-.3-.4-.5-.6-.7-.4-.5-.8-.9-1.2-1.4l-.6-.6c-.6-.7-1.2-1.3-1.9-1.9l-.2-.2c-.6-.6-1.2-1.1-1.8-1.6-.2-.2-.5-.4-.7-.6-.5-.4-.9-.7-1.5-1.1-.3-.2-.5-.4-.7-.6-.5-.4-1-.7-1.6-1-.2-.2-.5-.3-.7-.5-.7-.5-1.5-.9-2.3-1.4 0 0-.1 0-.1-.1-.7-.5-1.5-.8-2.3-1.2-.3-.1-.6-.3-.7-.4-.6-.3-1.1-.6-1.8-.7-.3-.1-.6-.3-.9-.4-.6-.3-1.2-.5-1.8-.7-.3-.1-.6-.2-.8-.3-.8-.3-1.8-.6-2.7-.8-.9-.3-1.9-.5-2.7-.7-.3-.1-.6-.1-.8-.2-.7-.1-1.3-.2-2-.3-.3 0-.7-.1-.9-.1-.7-.1-1.3-.2-2-.2-.3 0-.6-.1-.8-.1-.9-.1-1.8-.1-2.7-.1s-1.8 0-2.7.1c-.3 0-.6 0-.8.1-.7 0-1.2.1-1.9.2-.3 0-.7.1-.9.1-.7.1-1.2.2-1.9.3-.3 0-.6.1-.8.1-.8.2-1.8.4-2.6.6-.8.2-1.7.5-2.5.7-.3.1-.6.2-.7.3l-1.8.6c-.3.1-.6.2-.8.3-.6.2-1.1.5-1.7.7-.3.1-.5.2-.7.3-.7.4-1.6.7-2.3 1.1.4.7.7 1.6 1.1 2.3 43-13.1 65.6 24.1 65.8 24.6z" class="st35"/><path d="M169.1 912.4zm-4.3 4c-.2.2-.4.3-.6.5.2-.2.4-.3.6-.5zm2.2-2-.6.6c.3-.2.4-.4.6-.6z" class="st36"/><path d="M163.7 917.3c.2-.2.4-.3.6-.5.2-.2.4-.3.6-.5.6-.5 1.1-.9 1.7-1.4l.6-.6c.7-.7 1.4-1.3 2.1-2-2.1 1.4-4.3 2.6-6.4 3.7.1.5.4 1 .8 1.3z" class="st34"/><path d="M163.7 917.3c.2-.2.4-.3.6-.5.2-.2.4-.3.6-.5.6-.5 1.1-.9 1.7-1.4l.6-.6c.7-.7 1.4-1.3 2.1-2-2.1 1.4-4.3 2.6-6.4 3.7.1.5.4 1 .8 1.3z" class="st36"/><path d="M407.8 980.7c-1.2.5-2.5.8-3.8 1.2 1.2-.3 2.6-.7 3.8-1.2zm3.9-1.5c-.9.4-1.9.7-2.9 1.1 1-.3 2-.7 2.9-1.1zm-.3-124.4c.8.4 1.7.7 2.4 1.1-.8-.3-1.6-.7-2.4-1.1zm-21.3 129.6c-1.1.1-2.2.1-3.4.2 1.2 0 2.3-.1 3.4-.2zM404 982c-1.3.4-2.6.7-3.9 1 1.3-.3 2.6-.6 3.9-1zm-5 1.2c-1 .2-2.1.4-3.1.6 1-.2 2.1-.4 3.1-.6zm-4.1.8c-1.3.2-2.6.4-4 .5 1.4-.2 2.7-.3 4-.5zm28.7-11.3c-.9.7-1.9 1.2-2.8 1.8.9-.6 1.8-1.3 2.8-1.8zm10.5-9.1c-.9.9-1.9 1.9-2.9 2.8 1.1-.9 2-1.9 2.9-2.8zm-6.8 6.3c-1 .8-2.1 1.6-3.2 2.4 1.1-.8 2.2-1.6 3.2-2.4zm3.2-2.7c-.7.7-1.6 1.4-2.3 2.1.7-.7 1.4-1.4 2.3-2.1zm-10.8 7.9c-.9.6-1.9 1.1-2.9 1.6 1.1-.6 2-1 2.9-1.6zm-3.4 2c-1.2.7-2.3 1.2-3.6 1.7 1.1-.6 2.4-1.2 3.6-1.7zm12.5-111.5c.8.7 1.8 1.5 2.6 2.3-.9-.8-1.8-1.6-2.6-2.3zm-66.6-12.1c.8-.3 1.6-.6 2.4-.8-.8.3-1.6.5-2.4.8z" class="st34"/><path d="M340.8 866.1c-9.8 8.5-17.3 20-20.9 33.5-3.2 12-3 23.9 0 35 1.4 3 37.6 77.7 114.3 28.9 7.5-7.9 13.2-17.8 16.2-29 3.6-13.6 2.9-27.3-1.4-39.6-.5-.6-37.5-61.7-108.2-28.8zm17.8-11.1c.8-.4 1.6-.7 2.4-.9-.8.3-1.6.5-2.4.9zm-4.4 2.1c1.1-.6 2.2-1.1 3.4-1.6-1.2.4-2.4 1-3.4 1.6zm15.2-5.7c1.2-.3 2.4-.6 3.6-.7-1.2.1-2.4.4-3.6.7zm-3.6 1c1.2-.4 2.3-.7 3.6-.9-1.3.1-2.5.5-3.6.9zm81.9 39.1c.4 1 .7 2 1.1 3-.4-1-.7-1.9-1.1-3zm-106.9-25.4c.9-.8 1.9-1.6 2.9-2.3-1.1.7-2 1.5-2.9 2.3zM321 938.2zm1.5 4.4c-.5-1.2-.9-2.4-1.4-3.6.5 1.1 1 2.4 1.4 3.6zm25.3-81.8c.7-.5 1.5-.9 2.1-1.4-.7.5-1.4.9-2.1 1.4zm-23.7 85.4c-.5-.9-.8-1.8-1.2-2.7.4.9.9 1.8 1.2 2.7zm26.9-87.4c1-.7 2.1-1.2 3.3-1.8-1.2.6-2.3 1.2-3.3 1.8zm-6.4 4.2c.7-.6 1.4-1 2.1-1.5-.7.5-1.5 1.1-2.1 1.5zm41.1-13.5c1.3 0 2.5.1 3.8.2-1.3-.1-2.5-.2-3.8-.2zm9.1.7c.9.1 1.8.3 2.7.5-.8-.2-1.8-.3-2.7-.5zm42.7 24.2c.6.7 1 1.3 1.6 2.1-.6-.7-1-1.4-1.6-2.1z" class="st34"/><path d="M431.5 868c.9.8 1.8 1.8 2.6 2.6-.8-.8-1.7-1.8-2.6-2.6zm3.5 3.5c.6.7 1.2 1.3 1.8 2-.7-.7-1.3-1.4-1.8-2zm-44.2-21.7 2.7.3c-1-.1-1.8-.2-2.7-.3zm-12.7.1c.8-.1 1.8-.2 2.6-.2-.9.1-1.7.1-2.6.2zm-3.9.5c.8-.2 1.8-.3 2.6-.4-.9.1-1.7.2-2.6.4zm70.1 34.2c.5.7.8 1.6 1.2 2.3-.3-.8-.7-1.5-1.2-2.3zm-2.4-4.1c.7 1 1.3 2.1 1.9 3.2-.6-1.1-1.3-2.2-1.9-3.2zm-2.1-3.1c.7.9 1.3 1.8 1.9 2.7-.7-.9-1.2-1.7-1.9-2.7zm6.3 10.7c.4.7.7 1.5 1 2.3-.3-.7-.6-1.5-1-2.3zm-64.2-38.5c1.3-.1 2.5-.1 3.8-.1-1.2 0-2.5.1-3.8.1zm16.8 1.3c1.3.3 2.6.6 3.8.9-1.2-.3-2.5-.6-3.8-.9zm-26.9 132.4-4.2-.9c1.4.4 2.8.6 4.2.9zm50.7-122.4c.7.5 1.5 1 2.1 1.5-.6-.6-1.3-1-2.1-1.5zm-54.9 121.5c-1.4-.4-2.7-.7-4-1.2 1.4.3 2.7.8 4 1.2zm-5.2-1.7c-.9-.4-2-.7-2.9-1.1 1.1.5 2 .8 2.9 1.1zm40.2-128.9c1.3.4 2.5.7 3.8 1.1-1.2-.3-2.6-.7-3.8-1.1zm-17.1 132.8c-1.1 0-2.2 0-3.4-.1 1.2.1 2.3.1 3.4.1zm-9.3-.5c-1-.2-2.1-.3-3.2-.5 1 .1 2.2.3 3.2.5zm42.1-125.8c1.1.7 2.1 1.3 3.3 2-1.1-.8-2.1-1.5-3.3-2zm-3.3-1.8c1.1.6 2.1 1.1 3.3 1.7-1.2-.6-2.3-1.1-3.3-1.7zm-56.5 122.7c-1.2-.6-2.5-1.1-3.7-1.7 1.2.6 2.4 1.2 3.7 1.7zm49.1-125.8c.8.3 1.7.7 2.5.9-.8-.3-1.7-.6-2.5-.9zm-68 113.7c-.7-.7-1.4-1.3-2.1-2.1.6.7 1.4 1.4 2.1 2.1zm-5.8-6.1c-.7-.8-1.5-1.8-2.1-2.7.6.9 1.3 1.8 2.1 2.7zm20.8 16.3c-1.1-.6-2.2-1.2-3.4-1.9 1.2.8 2.3 1.4 3.4 1.9zm-26.1-23.2c-.7-1.1-1.4-2.1-2.1-3.3.8 1 1.5 2.2 2.1 3.3zm2.4 3.2c-.6-.7-1.1-1.6-1.7-2.4.5.9 1.1 1.6 1.7 2.4zm-4.7-7.1c-.6-.9-1-2-1.6-2.9.6 1 1.1 1.9 1.6 2.9zm99.6-87.1c.7.6 1.4 1 2.1 1.6-.7-.4-1.4-1-2.1-1.6zm-75.6 111.8c-.8-.6-1.7-1-2.5-1.6.8.6 1.7 1.1 2.5 1.6zm-3.5-2.2c-1.1-.7-2.1-1.5-3.2-2.3 1.1.8 2.1 1.5 3.2 2.3zm-10-8.4c-.9-.9-1.8-1.9-2.6-2.9.8.9 1.7 1.9 2.6 2.9zm6.6 5.8c-.9-.7-1.9-1.5-2.8-2.3.9.9 1.8 1.6 2.8 2.3zm38.1 14.4c-1.4-.1-2.7-.2-4.1-.4 1.3.3 2.7.3 4.1.4z" class="st34"/><path d="M439.1 876.5c.3.3.5.7.7.9-.3-.2-.4-.6-.7-.9zM373 850.6c.4-.1.7-.1 1.1-.2-.3.1-.7.1-1.1.2zm-3.6.8zm-4.7 1.3c.4-.1.7-.3 1.1-.4-.4.2-.7.3-1.1.4zm12.1-2.6c.5-.1.8-.1 1.3-.2-.4.1-.9.1-1.3.2zm-19.3 5.4c.4-.2.7-.3 1-.5-.3.1-.6.3-1 .5zm-3.4 1.6s.1 0 0 0c.1 0 0 0 0 0zm-7.4 4.4c.4-.3.7-.5 1.1-.7-.4.3-.8.5-1.1.7zm74.9-1.3c.4.2.7.5.9.7-.2-.3-.6-.5-.9-.7zm-40.8-10.5c.4 0 .7-.1 1.2-.1-.5 0-.9.1-1.2.1zM361 854c.4-.2.8-.3 1.2-.5-.4.2-.8.4-1.2.5zm52.8 1.9c.4.2.7.4 1.1.6-.3-.2-.7-.4-1.1-.6zm-3.7-1.5c.5.2.8.4 1.3.6-.4-.3-.8-.5-1.3-.6zm8 3.8c.1 0 .1.1.2.1-.1-.1-.1-.1-.2-.1zm-11.7-5.2c.4.1.7.3 1.1.4-.4-.2-.8-.3-1.1-.4zm-12.9-2.9c.5.1.9.1 1.3.2-.5-.2-.9-.2-1.3-.2zm4 .6c.4.1.8.2 1.2.2-.4 0-.7-.1-1.2-.2zm-8-1c.4 0 .8.1 1.2.1-.3 0-.8-.1-1.2-.1zm-3.8-.2zm-35.8 9.9c.4-.2.7-.4 1-.6-.3.2-.6.4-1 .6zm93.9 24.3c.2.3.4.7.6.9-.3-.3-.5-.6-.6-.9zm-2.1-3.6c.1.1.2.2.2.4-.1-.1-.2-.3-.2-.4zm3.8 6.9c.2.4.4.7.6 1.1-.2-.4-.4-.8-.6-1.1zm1.7 3.4c.2.4.3.7.5 1.1-.2-.3-.4-.7-.5-1.1zm1.8 4.6c0-.1-.1-.3-.2-.4 0 .1.1.2.2.4-.1-.1 0 0 0 0zm-24.3-32.6c.4.3.7.6 1 .7-.3-.2-.6-.4-1-.7zm-81 1.4c.3-.3.7-.5.9-.7-.4.2-.7.4-.9.7zm93 9.6c.3.4.6.7.8 1-.3-.2-.6-.6-.8-1zm-8.8-8.7c.3.3.7.5.9.7-.4-.1-.7-.4-.9-.7zm3.4 3.1c.1.1.2.1.2.2l-.2-.2zm2.9 2.8c.3.3.5.6.7.8-.2-.2-.5-.5-.7-.8z" class="st35"/><path d="M448.9 894.9c0-.1-.1-.3-.2-.4-.4-1-.7-2.1-1.1-3-.2-.4-.3-.7-.5-1.1-.4-.7-.7-1.6-1-2.3-.2-.4-.4-.7-.6-1.1-.4-.7-.8-1.6-1.2-2.3-.2-.3-.4-.7-.6-.9-.7-1-1.2-2.1-1.9-3.2-.1-.1-.2-.2-.2-.4-.6-.9-1.2-1.9-1.9-2.7-.3-.3-.5-.7-.7-.9-.5-.7-1-1.4-1.6-2.1-.3-.4-.6-.7-.8-1-.6-.7-1.1-1.3-1.8-2-.3-.3-.5-.6-.7-.8-.8-.9-1.7-1.8-2.6-2.6-.1-.1-.2-.1-.2-.2-.8-.7-1.7-1.6-2.6-2.3-.3-.3-.7-.5-.9-.7-.7-.6-1.3-1.1-2.1-1.6-.4-.3-.7-.6-1-.7-.7-.6-1.4-1-2.1-1.5-.3-.2-.7-.5-.9-.7-1-.7-2.1-1.3-3.3-2-.1 0-.1-.1-.2-.1-1-.6-2.1-1.1-3.3-1.7-.4-.2-.7-.4-1.1-.6-.8-.4-1.6-.7-2.4-1.1-.4-.2-.8-.4-1.3-.6-.8-.4-1.7-.7-2.5-.9-.4-.1-.7-.3-1.1-.4-1.2-.4-2.5-.8-3.8-1.1-1.3-.4-2.6-.7-3.8-.9-.4-.1-.8-.2-1.2-.2-.9-.2-1.8-.3-2.7-.5-.5-.1-.9-.1-1.3-.2l-2.7-.3c-.4 0-.8-.1-1.2-.1-1.3-.1-2.5-.2-3.8-.2-1.3 0-2.5 0-3.8.1-.4 0-.7.1-1.2.1-.8.1-1.8.1-2.6.2-.5 0-.8.1-1.3.2-.8.1-1.8.3-2.6.4-.4.1-.7.1-1.1.2-1.2.2-2.4.5-3.6.7-1.2.3-2.4.7-3.6.9-.4.1-.7.3-1.1.4-.8.3-1.7.6-2.4.8-.4.2-.8.3-1.2.5-.8.3-1.6.7-2.4.9-.4.2-.7.3-1 .5-1.1.5-2.2 1-3.4 1.6-1.1.6-2.1 1.1-3.3 1.8-.4.2-.7.4-1 .6-.7.5-1.5.9-2.1 1.4-.4.3-.7.5-1.1.7l-2.1 1.5c-.3.2-.7.5-.9.7-.9.7-2 1.5-2.9 2.3 70.2-32.8 107.2 28.3 107.6 28.9z" class="st34"/><path d="M448.9 894.9c0-.1-.1-.3-.2-.4-.4-1-.7-2.1-1.1-3-.2-.4-.3-.7-.5-1.1-.4-.7-.7-1.6-1-2.3-.2-.4-.4-.7-.6-1.1-.4-.7-.8-1.6-1.2-2.3-.2-.3-.4-.7-.6-.9-.7-1-1.2-2.1-1.9-3.2-.1-.1-.2-.2-.2-.4-.6-.9-1.2-1.9-1.9-2.7-.3-.3-.5-.7-.7-.9-.5-.7-1-1.4-1.6-2.1-.3-.4-.6-.7-.8-1-.6-.7-1.1-1.3-1.8-2-.3-.3-.5-.6-.7-.8-.8-.9-1.7-1.8-2.6-2.6-.1-.1-.2-.1-.2-.2-.8-.7-1.7-1.6-2.6-2.3-.3-.3-.7-.5-.9-.7-.7-.6-1.3-1.1-2.1-1.6-.4-.3-.7-.6-1-.7-.7-.6-1.4-1-2.1-1.5-.3-.2-.7-.5-.9-.7-1-.7-2.1-1.3-3.3-2-.1 0-.1-.1-.2-.1-1-.6-2.1-1.1-3.3-1.7-.4-.2-.7-.4-1.1-.6-.8-.4-1.6-.7-2.4-1.1-.4-.2-.8-.4-1.3-.6-.8-.4-1.7-.7-2.5-.9-.4-.1-.7-.3-1.1-.4-1.2-.4-2.5-.8-3.8-1.1-1.3-.4-2.6-.7-3.8-.9-.4-.1-.8-.2-1.2-.2-.9-.2-1.8-.3-2.7-.5-.5-.1-.9-.1-1.3-.2l-2.7-.3c-.4 0-.8-.1-1.2-.1-1.3-.1-2.5-.2-3.8-.2-1.3 0-2.5 0-3.8.1-.4 0-.7.1-1.2.1-.8.1-1.8.1-2.6.2-.5 0-.8.1-1.3.2-.8.1-1.8.3-2.6.4-.4.1-.7.1-1.1.2-1.2.2-2.4.5-3.6.7-1.2.3-2.4.7-3.6.9-.4.1-.7.3-1.1.4-.8.3-1.7.6-2.4.8-.4.2-.8.3-1.2.5-.8.3-1.6.7-2.4.9-.4.2-.7.3-1 .5-1.1.5-2.2 1-3.4 1.6-1.1.6-2.1 1.1-3.3 1.8-.4.2-.7.4-1 .6-.7.5-1.5.9-2.1 1.4-.4.3-.7.5-1.1.7l-2.1 1.5c-.3.2-.7.5-.9.7-.9.7-2 1.5-2.9 2.3 70.2-32.8 107.2 28.3 107.6 28.9z" class="st35"/><path d="M395.9 983.8c-.4.1-.7.1-1 .2.3-.1.6-.2 1-.2zm4.2-.8c-.4.1-.7.2-1.1.3.4-.2.7-.3 1.1-.3zm-27.1.5c-.4-.1-.8-.2-1.2-.2.4.1.7.2 1.2.2zm17.9.9c-.3 0-.5 0-.7.1.2-.1.5-.1.7-.1zm26-7.7c-.2.1-.5.3-.7.4.3-.1.5-.3.7-.4zm14.4-10.3c-.3.3-.6.6-.8.7.3-.2.5-.4.8-.7zm-3.2 2.8c-.3.2-.6.5-.7.7.2-.3.5-.5.7-.7zm-4 3c-.2.2-.4.3-.7.4.4-.1.5-.2.7-.4zm-3.3 2.2c-.4.2-.7.4-1 .7.3-.3.7-.5 1-.7zm-8.2 4.3c-.3.1-.7.3-.9.4.4-.1.7-.2.9-.4zm-25.9 5.9h-1.2 1.2zm-4.5 0h-.7c.1-.1.4-.1.7 0zm-5-.4c-.4 0-.7-.1-1-.2.4.1.7.2 1 .2zm31.7-3.9c-.4.1-.7.3-1.1.4.3-.1.7-.3 1.1-.4zM404 982zm-44.5-2.3c-.4-.2-.7-.3-1.1-.5.5.1.8.3 1.1.5zm-27.9-21.4c-.3-.3-.5-.7-.7-.9.2.2.4.6.7.9zm2.4 3.1c-.1-.1-.2-.3-.3-.4.1.1.2.2.3.4zm6.5 6.4-.8-.8.8.8zm-3-2.8c-.3-.3-.6-.5-.7-.7l.7.7zm-8.3-10.1c-.2-.3-.4-.6-.6-.8.2.3.4.5.6.8zm-9.4-20.4c.1.2.1.4.2.6 0-.2-.1-.3-.2-.6 0 .1 0 0 0 0zm6.8 16.2-.3-.6.3.6zm-3.7-7.2c-.1-.3-.3-.7-.4-.9.1.3.3.5.4.9zm1.8 3.7c-.2-.4-.4-.7-.6-1.1.2.5.4.8.6 1.1zm-3.6-8.3c-.1-.2-.1-.5-.2-.7.1.3.1.5.2.7zm30.1 36.7c-.4-.2-.7-.4-1-.7.4.2.7.5 1 .7zm3.6 1.8c-.1 0-.1-.1-.2-.1.1.1.1.1.2.1zm8.9 3.8c-.4-.1-.7-.3-1.1-.4.2.1.6.2 1.1.4zm-16-7.9c-.3-.2-.7-.4-.9-.7.2.4.6.5.9.7zm-4.1-3c-.1-.1-.2-.2-.3-.2.1.1.2.2.3.2z" class="st36"/><path d="M319.9 934.6c0 .2.1.3.1.5.3 1 .6 2.1.9 3.1.1.2.1.5.2.7.5 1.2.8 2.4 1.4 3.6.1.3.3.7.4.9.4.9.7 1.8 1.2 2.7.2.4.4.7.6 1.1.5 1 1 2 1.6 2.9l.3.6c.7 1.1 1.3 2.2 2.1 3.3.2.3.4.6.6.8.6.8 1.1 1.6 1.7 2.4.3.3.5.7.7.9l2.1 2.7c.1.1.2.3.3.4.8 1 1.8 2 2.6 2.9l.7.7 2.1 2.1.8.8c.9.7 1.8 1.6 2.8 2.3.1.1.2.2.3.2 1 .8 2.1 1.6 3.2 2.3.3.2.7.4.9.7.8.6 1.7 1.1 2.5 1.6.4.2.7.4 1 .7 1.1.7 2.2 1.2 3.4 1.9.1 0 .1.1.2.1 1.2.6 2.4 1.1 3.7 1.7.4.2.7.3 1.1.5.9.4 1.9.7 2.9 1.1.4.1.7.3 1.1.4 1.3.5 2.6.8 4 1.2s2.8.7 4.2.9c.4.1.8.2 1.2.2 1 .2 2.1.4 3.2.5.4.1.7.1 1 .2 1.4.2 2.7.3 4.1.4h.7c1.1.1 2.2.1 3.4.1h1.2c1.1 0 2.2-.1 3.4-.2.3 0 .5 0 .7-.1 1.3-.1 2.7-.3 4-.5.4-.1.7-.1 1-.2 1-.2 2.1-.4 3.1-.6.4-.1.7-.2 1.1-.3 1.3-.3 2.6-.7 3.9-1 1.3-.4 2.5-.8 3.8-1.2.4-.1.7-.3 1.1-.4.9-.4 2-.7 2.9-1.1.3-.1.7-.3.9-.4 1.2-.6 2.4-1.1 3.6-1.7.2-.1.5-.3.7-.4.9-.6 2-1 2.9-1.6.4-.2.7-.4 1-.7.9-.6 1.9-1.2 2.8-1.8.2-.1.4-.3.7-.4 1.1-.7 2.1-1.6 3.2-2.4.3-.2.6-.5.7-.7.8-.7 1.6-1.3 2.3-2.1.3-.3.6-.5.8-.7.9-.9 2-1.9 2.9-2.8-76.5 49-112.7-25.8-114-28.8z" class="st34"/><path d="M319.9 934.6c0 .2.1.3.1.5.3 1 .6 2.1.9 3.1.1.2.1.5.2.7.5 1.2.8 2.4 1.4 3.6.1.3.3.7.4.9.4.9.7 1.8 1.2 2.7.2.4.4.7.6 1.1.5 1 1 2 1.6 2.9l.3.6c.7 1.1 1.3 2.2 2.1 3.3.2.3.4.6.6.8.6.8 1.1 1.6 1.7 2.4.3.3.5.7.7.9l2.1 2.7c.1.1.2.3.3.4.8 1 1.8 2 2.6 2.9l.7.7 2.1 2.1.8.8c.9.7 1.8 1.6 2.8 2.3.1.1.2.2.3.2 1 .8 2.1 1.6 3.2 2.3.3.2.7.4.9.7.8.6 1.7 1.1 2.5 1.6.4.2.7.4 1 .7 1.1.7 2.2 1.2 3.4 1.9.1 0 .1.1.2.1 1.2.6 2.4 1.1 3.7 1.7.4.2.7.3 1.1.5.9.4 1.9.7 2.9 1.1.4.1.7.3 1.1.4 1.3.5 2.6.8 4 1.2s2.8.7 4.2.9c.4.1.8.2 1.2.2 1 .2 2.1.4 3.2.5.4.1.7.1 1 .2 1.4.2 2.7.3 4.1.4h.7c1.1.1 2.2.1 3.4.1h1.2c1.1 0 2.2-.1 3.4-.2.3 0 .5 0 .7-.1 1.3-.1 2.7-.3 4-.5.4-.1.7-.1 1-.2 1-.2 2.1-.4 3.1-.6.4-.1.7-.2 1.1-.3 1.3-.3 2.6-.7 3.9-1 1.3-.4 2.5-.8 3.8-1.2.4-.1.7-.3 1.1-.4.9-.4 2-.7 2.9-1.1.3-.1.7-.3.9-.4 1.2-.6 2.4-1.1 3.6-1.7.2-.1.5-.3.7-.4.9-.6 2-1 2.9-1.6.4-.2.7-.4 1-.7.9-.6 1.9-1.2 2.8-1.8.2-.1.4-.3.7-.4 1.1-.7 2.1-1.6 3.2-2.4.3-.2.6-.5.7-.7.8-.7 1.6-1.3 2.3-2.1.3-.3.6-.5.8-.7.9-.9 2-1.9 2.9-2.8-76.5 49-112.7-25.8-114-28.8z" class="st36"/><path d="M768.3 759.7c1.3-.4 2.5-.7 3.8-1-1.2.2-2.6.5-3.8 1zm21.6-3.1c1.4 0 2.7.1 4.1.2-1.4-.1-2.8-.2-4.1-.2zm-41.1 12.1c.7-.6 1.6-1 2.3-1.5-.7.6-1.5 1.1-2.3 1.5zm32.8-11.7c.9-.1 1.9-.2 2.8-.3-.8.1-1.8.2-2.8.3zm-4.2.5c.9-.2 1.9-.3 2.8-.4-.9.2-1.9.3-2.8.4zm8.4-.8c1.4-.1 2.7-.1 4.1-.1-1.4 0-2.8 0-4.1.1zm-13.5 1.9c1.3-.3 2.6-.6 3.9-.8-1.3.2-2.6.5-3.9.8zm-20 8c1.1-.7 2.3-1.3 3.5-2-1.2.7-2.4 1.3-3.5 2zm-6.9 4.6c.7-.6 1.5-1.1 2.2-1.7-.7.6-1.4 1.1-2.2 1.7zm15.2-8.7c.8-.4 1.7-.7 2.6-1-.9.2-1.8.6-2.6 1zm3.8-1.6c.8-.3 1.8-.7 2.6-.9-.8.3-1.7.6-2.6.9zm-8.6 3.7c1.2-.7 2.3-1.2 3.6-1.7-1.3.6-2.5 1.2-3.6 1.7zm43.9-7.3c.9.2 2 .3 2.9.5-1-.2-1.9-.3-2.9-.5zm8.4 1.7c1.4.4 2.7.7 4.1 1.2-1.3-.3-2.7-.8-4.1-1.2zm5.4 1.7c.9.4 1.9.7 2.8 1-1-.2-1.9-.6-2.8-1zm-9.6-2.6 4.2.9-4.2-.9zm17.5 6c1.2.6 2.3 1.2 3.6 1.9-1.2-.7-2.4-1.4-3.6-1.9zm-25.2 138.2c-.2 0-.4 0-.7.1.2 0 .4-.1.7-.1zm3.3-.4c-.3 0-.6.1-.8.1.4 0 .6-.1.8-.1zm-48-9.8c-.9-.6-1.9-1.1-2.7-1.7.8.6 1.8 1.1 2.7 1.7zm-3.8-2.4c-1.2-.8-2.3-1.7-3.5-2.5 1.1.9 2.4 1.7 3.5 2.5zM825.2 766c1.2.7 2.3 1.4 3.6 2.1-1.3-.7-2.5-1.4-3.6-2.1zm-29.9-9.1c.9.1 2 .2 2.9.3-.9-.1-1.9-.2-2.9-.3zm22.3 5.4c.9.4 1.8.7 2.6 1.2-.8-.4-1.7-.7-2.6-1.2zm30.7 24.5c.7.9 1.4 2 2.1 3-.7-1.1-1.4-2.1-2.1-3zm-2.5-3.3c.6.7 1.1 1.4 1.7 2.1-.5-.6-1-1.3-1.7-2.1zm4.8 6.6c.7 1.1 1.4 2.2 2.1 3.5-.7-1.3-1.4-2.4-2.1-3.5zm2.6 4.4c.5.8.9 1.7 1.3 2.5-.4-.8-.8-1.6-1.3-2.5zm-23.6-25.7c.8.6 1.6 1 2.3 1.6-.7-.5-1.4-1-2.3-1.6zm3.6 2.5c.7.6 1.5 1.1 2.2 1.8-.7-.6-1.5-1.2-2.2-1.8zm3.2 2.6c.9.8 1.9 1.6 2.8 2.4-1-.8-1.9-1.7-2.8-2.4zm6.7 6.4c.7.7 1.3 1.4 1.9 2.1-.7-.7-1.2-1.4-1.9-2.1zm-3.6-3.7c.9.9 1.9 1.9 2.8 2.9-1-1-1.9-2-2.8-2.9zm-54.4 126h-.7c.3-.1.5-.1.7 0zm-43.8-128.1c1-.8 2.1-1.7 3.1-2.5-1.1.8-2.1 1.6-3.1 2.5zm-21.5 78c-.4-1.1-.7-2.2-1-3.4.4 1.1.7 2.3 1 3.4zm36.5 42.3c-1.2-.7-2.4-1.3-3.6-2 1.1.7 2.3 1.4 3.6 2zm-34.7-37.6c-.6-1.3-1-2.6-1.5-3.9.5 1.2.9 2.5 1.5 3.9zm15.2 23.3c-1-1-2-2.1-2.9-3.1 1.1 1.1 2 2.1 2.9 3.1zm-13.5-19.4c-.5-.9-.9-2-1.3-2.9.4.9.8 1.9 1.3 2.9zm7.3 12c-.7-.8-1.2-1.7-1.9-2.6.7.9 1.2 1.8 1.9 2.6zm61.8 29.5h-.7.7zm-66.9-37.2c-.6-1-1.1-2.1-1.7-3.2.6 1.1 1.2 2.2 1.7 3.2zm34.9 31.3c-1.3-.6-2.7-1.2-4-1.9 1.4.8 2.7 1.3 4 1.9zm-32.3-27.1c-.7-1.2-1.5-2.3-2.2-3.6.7 1.2 1.4 2.4 2.2 3.6zm36.6 28.8c-1-.4-2.1-.7-3.1-1.2 1 .4 2.1.8 3.1 1.2zM743.9 887c-1-.8-2-1.7-3-2.5 1.1.8 2 1.6 3 2.5zm37.9 15.3c-.3 0-.6-.1-.8-.1.2 0 .5 0 .8.1zm7.2.4h-.7.7z" class="st34"/><path d="M741.3 774.5c-10.7 9.3-18.7 21.6-22.6 36.2-3.5 12.9-3.2 25.9 0 37.9 1.2 2.6 28.4 58.8 85 47.6 21.2-29.7 38.1-62.1 50.6-96-11.7-15.3-49.9-55.1-113-25.7zm29 125.6c-1.5-.4-2.9-.8-4.3-1.3 1.4.5 2.8 1 4.3 1.3zm7.4 1.6c-.1 0-.3-.1-.4-.1.1 0 .3.1.4.1z" class="st34"/><path d="M740 883.6c-.7-.7-1.6-1.5-2.3-2.2.7.7 1.6 1.5 2.3 2.2zm34.4 17.5c-.3-.1-.6-.1-.8-.2.2.1.5.2.8.2zm-40.7-24c-.8-.9-1.6-1.9-2.3-2.9.7.9 1.4 1.8 2.3 2.9z" class="st34"/><path d="M767.1 760.1c.4-.1.8-.3 1.2-.4-.4.1-.8.2-1.2.4zm-7.7 2.9c.4-.2.7-.4 1.1-.5-.4.2-.8.3-1.1.5zm52.8-2.7c.5.1.8.3 1.2.5-.4-.2-.8-.4-1.2-.5zm-9.6-2.5c.5.1.8.2 1.3.3-.4-.1-.8-.2-1.3-.3zm-26.4-.1c.4-.1.8-.1 1.2-.2-.4.1-.8.2-1.2.2zm-31.8 14.2c.4-.3.7-.5 1-.7-.3.3-.7.5-1 .7zm3.3-2.3c.4-.3.7-.6 1.1-.7-.4.1-.7.4-1.1.7zm24.5-11zm-9.1 2.8c.5-.2.8-.4 1.3-.5-.4.2-.8.4-1.3.5zm35.1-4.2c.5.1.9.1 1.5.2-.5-.1-1-.1-1.5-.2zm-42.5 7.5s.1 0 0 0c.1 0 0 0 0 0zm28.8-7.9c.5 0 .8-.1 1.3-.1-.5 0-.9 0-1.3.1zm-4.3.4c.5-.1.9-.1 1.4-.2-.5.1-.9.1-1.4.2zm-29 10.1c.4-.2.7-.5 1-.7-.3.3-.7.5-1 .7zm84.2 5.7c.4.3.7.6 1 .8-.3-.2-.7-.5-1-.8zm-19.1-11.3c.5.2.9.4 1.4.6-.6-.2-1.1-.4-1.4-.6zm31.3 24.1c.3.4.6.7.7 1-.2-.4-.5-.8-.7-1zm-53.6-29c.5 0 .8.1 1.3.1-.4-.1-.8-.1-1.3-.1zm45.2 19.5c.1.1.2.2.3.2-.1 0-.2-.1-.3-.2zm15.9 21.9c.1 0 .1 0 0 0-.2-.4-.4-.7-.6-1.1.3.3.5.7.6 1.1zm-23-27.8c.4.3.7.6 1.1.8-.4-.2-.8-.5-1.1-.8zm10.2 9c.3.3.6.6.8.9-.3-.2-.6-.6-.8-.9zm2.7 3.1c.3.4.6.7.9 1.1-.4-.5-.7-.8-.9-1.1zm7.6 11c.2.4.4.7.6 1-.2-.3-.4-.7-.6-1zM825 765.9c.1 0 .1.1.2.1-.1-.1-.1-.1-.2-.1zm25.4 23.8c.1.1.2.2.3.4-.2-.1-.3-.3-.3-.4zm-21.8-21.6c.4.2.7.5 1 .7-.2-.2-.6-.4-1-.7zm-8.3-4.6 1.2.6c-.5-.2-.8-.4-1.2-.6z" class="st35"/><path d="M853.2 794.5c-.2-.4-.4-.7-.6-1-.7-1.1-1.3-2.3-2.1-3.5-.1-.1-.2-.3-.3-.4-.7-1-1.3-2-2.1-3-.3-.4-.6-.7-.7-1-.6-.7-1.1-1.5-1.7-2.1-.3-.4-.6-.7-.9-1.1-.7-.7-1.2-1.4-1.9-2.1-.3-.3-.6-.7-.8-.9-.9-.9-1.9-2-2.8-2.9-.1-.1-.2-.2-.3-.2-.9-.8-1.9-1.7-2.8-2.4-.4-.3-.7-.6-1-.8-.7-.6-1.5-1.2-2.2-1.8-.4-.3-.7-.6-1.1-.8-.7-.6-1.6-1.1-2.3-1.6-.4-.3-.7-.5-1-.7-1.1-.7-2.3-1.5-3.6-2.1-.1 0-.1-.1-.2-.1-1.1-.7-2.3-1.2-3.6-1.9-.4-.2-.7-.4-1.2-.6-.8-.4-1.8-.8-2.6-1.2-.5-.2-.9-.4-1.4-.6-.9-.4-1.9-.7-2.8-1-.4-.2-.8-.3-1.2-.5-1.3-.5-2.7-.8-4.1-1.2s-2.8-.7-4.2-.9c-.5-.1-.8-.2-1.3-.3-.9-.2-2-.4-2.9-.5-.5-.1-.9-.1-1.5-.2-.9-.1-2-.2-2.9-.3-.5 0-.8-.1-1.3-.1-1.4-.1-2.8-.2-4.1-.2-1.4 0-2.7 0-4.1.1-.5 0-.8.1-1.3.1-.9.1-1.9.1-2.8.3-.5.1-.9.1-1.4.2-.9.1-1.9.3-2.8.4-.4.1-.8.1-1.2.2-1.3.3-2.6.5-3.9.8-1.3.3-2.6.7-3.8 1-.4.1-.8.3-1.2.4-.9.3-1.8.6-2.6.9-.5.2-.8.3-1.3.5-.8.4-1.8.7-2.6 1-.4.2-.7.3-1.1.5-1.2.6-2.4 1.1-3.6 1.7-1.2.7-2.3 1.2-3.5 2-.4.2-.7.5-1 .7-.8.5-1.6 1-2.3 1.5-.4.3-.7.6-1.1.7-.7.6-1.5 1.1-2.2 1.7-.4.3-.7.5-1 .7-1 .8-2.1 1.7-3.1 2.5 63.1-29.3 101.4 10.5 113.1 25.7.3-.7.5-1.3.7-2.1-.2-.4-.4-.7-.6-1.1-.9-.7-1.3-1.5-1.8-2.4z" class="st34"/><path d="M853.2 794.5c-.2-.4-.4-.7-.6-1-.7-1.1-1.3-2.3-2.1-3.5-.1-.1-.2-.3-.3-.4-.7-1-1.3-2-2.1-3-.3-.4-.6-.7-.7-1-.6-.7-1.1-1.5-1.7-2.1-.3-.4-.6-.7-.9-1.1-.7-.7-1.2-1.4-1.9-2.1-.3-.3-.6-.7-.8-.9-.9-.9-1.9-2-2.8-2.9-.1-.1-.2-.2-.3-.2-.9-.8-1.9-1.7-2.8-2.4-.4-.3-.7-.6-1-.8-.7-.6-1.5-1.2-2.2-1.8-.4-.3-.7-.6-1.1-.8-.7-.6-1.6-1.1-2.3-1.6-.4-.3-.7-.5-1-.7-1.1-.7-2.3-1.5-3.6-2.1-.1 0-.1-.1-.2-.1-1.1-.7-2.3-1.2-3.6-1.9-.4-.2-.7-.4-1.2-.6-.8-.4-1.8-.8-2.6-1.2-.5-.2-.9-.4-1.4-.6-.9-.4-1.9-.7-2.8-1-.4-.2-.8-.3-1.2-.5-1.3-.5-2.7-.8-4.1-1.2s-2.8-.7-4.2-.9c-.5-.1-.8-.2-1.3-.3-.9-.2-2-.4-2.9-.5-.5-.1-.9-.1-1.5-.2-.9-.1-2-.2-2.9-.3-.5 0-.8-.1-1.3-.1-1.4-.1-2.8-.2-4.1-.2-1.4 0-2.7 0-4.1.1-.5 0-.8.1-1.3.1-.9.1-1.9.1-2.8.3-.5.1-.9.1-1.4.2-.9.1-1.9.3-2.8.4-.4.1-.8.1-1.2.2-1.3.3-2.6.5-3.9.8-1.3.3-2.6.7-3.8 1-.4.1-.8.3-1.2.4-.9.3-1.8.6-2.6.9-.5.2-.8.3-1.3.5-.8.4-1.8.7-2.6 1-.4.2-.7.3-1.1.5-1.2.6-2.4 1.1-3.6 1.7-1.2.7-2.3 1.2-3.5 2-.4.2-.7.5-1 .7-.8.5-1.6 1-2.3 1.5-.4.3-.7.6-1.1.7-.7.6-1.5 1.1-2.2 1.7-.4.3-.7.5-1 .7-1 .8-2.1 1.7-3.1 2.5 63.1-29.3 101.4 10.5 113.1 25.7.3-.7.5-1.3.7-2.1-.2-.4-.4-.7-.6-1.1-.9-.7-1.3-1.5-1.8-2.4z" class="st35"/><path d="m737.7 881.4-.8-.8.8.8zm-6.4-7.2c-.3-.4-.6-.7-.7-1 .3.2.4.6.7 1zm12.9 13-.3-.3c.1.2.2.3.3.3zm-10.2-9.8c-.1-.1-.2-.3-.4-.5.2.3.2.4.4.5zm6.9 7c-.3-.3-.7-.6-.9-.8.3.3.7.6.9.8zm57.9 17.6c-.8.1-1.8.2-2.6.3.8-.1 1.7-.2 2.6-.3zm-17.9.2c-1-.1-2.1-.3-3.2-.5 1.1.2 2.1.3 3.2.5zm7.3.5c-1 0-2.1-.1-3.2-.1 1.2 0 2.2.1 3.2.1zm-3.7-.2c-.9-.1-1.8-.1-2.7-.2.8.1 1.8.1 2.7.2zm-7.2-.9c-.9-.2-1.9-.4-2.9-.6.9.4 2 .5 2.9.6zm-28.6-11.2c-.4-.2-.7-.5-1-.7.4.3.7.4 1 .7zm24.9 10.5c-1.1-.3-2.1-.5-3.3-.7 1.1.2 2.1.5 3.3.7zm18 1.7H789c.9.1 1.8.1 2.6 0zm8-.7s-.1 0 0 0c-.1 0 0 0 0 0zm-70.9-31.4c-.2-.3-.5-.7-.7-.9.3.3.5.5.7.9zm66.8 31.9c-1 .1-2.1.2-3.2.2 1.2 0 2.2-.1 3.2-.2zM722 858.2c-.2-.4-.3-.7-.5-1 .2.2.4.6.5 1zm-1.9-5.1c-.1-.3-.2-.5-.2-.7 0 .3.1.6.2.7zm3.7 9.1c-.2-.4-.4-.7-.6-1.1.3.4.5.7.6 1.1zm2.1 3.7-.3-.6c.1.3.2.5.3.6zm26.7 26.9c-.4-.2-.7-.5-1.1-.7.4.3.8.5 1.1.7zm-34-44.3c.1.2.1.4.2.6 0-.3-.1-.4-.2-.6.1.1 0 0 0 0zm37.9 46.4c-.1 0-.1-.1-.2-.1 0 0 .1 0 .2.1zm5.1 2.3c-.4-.2-.8-.3-1.2-.5.5.2.8.4 1.2.5zm4.4 1.6c-.4-.2-.8-.3-1.2-.5.4.3.7.4 1.2.5z" class="st36"/><path d="M718.7 848.7c0 .2.1.3.1.5.3 1.1.7 2.2 1 3.4.1.3.2.5.2.7.5 1.3.9 2.6 1.5 3.9.2.4.3.7.5 1 .4 1 .8 2 1.3 2.9.2.4.4.7.6 1.1.6 1 1.1 2.1 1.7 3.2l.3.6c.7 1.2 1.4 2.4 2.2 3.6.2.3.5.7.7.9.6.8 1.2 1.8 1.9 2.6.3.4.5.7.7 1 .7.9 1.5 2 2.3 2.9.1.1.2.3.4.5.9 1 1.9 2.1 2.9 3.1l.8.8c.7.7 1.5 1.5 2.3 2.2.3.3.7.6.9.8.9.8 2 1.7 3 2.5l.3.3c1.1.8 2.2 1.7 3.5 2.5.4.2.7.5 1 .7.9.6 1.8 1.2 2.7 1.7.4.2.7.5 1.1.7 1.2.7 2.4 1.4 3.6 2 .1 0 .1.1.2.1 1.3.7 2.6 1.2 4 1.9.4.2.7.3 1.2.5 1 .4 2.1.8 3.1 1.2.4.2.8.3 1.2.5 1.4.5 2.9.9 4.3 1.3 1.1.3 2.1.6 3.3.7.3.1.6.1.8.2.9.2 1.9.4 2.9.6.1 0 .3.1.4.1 1.1.2 2.1.3 3.2.5.3 0 .6.1.8.1.9.1 1.8.2 2.7.2h.7c1 .1 2.1.1 3.2.1h4c1 0 2.1-.1 3.2-.2.2 0 .4 0 .7-.1.8-.1 1.8-.2 2.6-.3.3 0 .6-.1.8-.1h.1c1.4-1.9 2.8-3.8 4.1-5.7-56.6 11-83.8-45.1-85-47.7z" class="st34"/><path d="M718.7 848.7c0 .2.1.3.1.5.3 1.1.7 2.2 1 3.4.1.3.2.5.2.7.5 1.3.9 2.6 1.5 3.9.2.4.3.7.5 1 .4 1 .8 2 1.3 2.9.2.4.4.7.6 1.1.6 1 1.1 2.1 1.7 3.2l.3.6c.7 1.2 1.4 2.4 2.2 3.6.2.3.5.7.7.9.6.8 1.2 1.8 1.9 2.6.3.4.5.7.7 1 .7.9 1.5 2 2.3 2.9.1.1.2.3.4.5.9 1 1.9 2.1 2.9 3.1l.8.8c.7.7 1.5 1.5 2.3 2.2.3.3.7.6.9.8.9.8 2 1.7 3 2.5l.3.3c1.1.8 2.2 1.7 3.5 2.5.4.2.7.5 1 .7.9.6 1.8 1.2 2.7 1.7.4.2.7.5 1.1.7 1.2.7 2.4 1.4 3.6 2 .1 0 .1.1.2.1 1.3.7 2.6 1.2 4 1.9.4.2.7.3 1.2.5 1 .4 2.1.8 3.1 1.2.4.2.8.3 1.2.5 1.4.5 2.9.9 4.3 1.3 1.1.3 2.1.6 3.3.7.3.1.6.1.8.2.9.2 1.9.4 2.9.6.1 0 .3.1.4.1 1.1.2 2.1.3 3.2.5.3 0 .6.1.8.1.9.1 1.8.2 2.7.2h.7c1 .1 2.1.1 3.2.1h4c1 0 2.1-.1 3.2-.2.2 0 .4 0 .7-.1.8-.1 1.8-.2 2.6-.3.3 0 .6-.1.8-.1h.1c1.4-1.9 2.8-3.8 4.1-5.7-56.6 11-83.8-45.1-85-47.7z" class="st36"/><path fill="#2f4d69" d="M867.3 458.3c0-28.7-30.7-52.2-68-52.2H145.8c-37.5 0-68 23.5-68 52.2s30.7 52.2 68 52.2h653.5c37.3 0 68-23.5 68-52.2z" opacity=".6"/><path fill="#7eaed9" d="M893.8 447.7c0-31-32.8-56.4-72.9-56.4H130.3c-40.1 0-72.9 25.4-72.9 56.4s32.8 56.4 72.9 56.4H821c40 .1 72.8-25.4 72.8-56.4z"/><path fill="none" stroke="#e4edf7" stroke-linecap="round" stroke-miterlimit="10" stroke-width="12.583" d="M135.9 415.9h435.7" opacity=".1"/><path fill="none" stroke="#e4edf7" stroke-linecap="round" stroke-miterlimit="10" stroke-width="11.254" d="M603 415.9h31.5" opacity=".15"/><path fill="none" stroke="#e4edf7" stroke-linecap="round" stroke-miterlimit="10" stroke-width="12.583" d="M666.7 415.9h136.6" opacity=".2"/><path d="M468.2 592c4.1-2.2 10.4-2.2 14.6 0l42.2 22.2c2.5 1.3 3.9 3.3 4.1 5.3h.1V731c-.1 2.2-1.4 4.4-4.1 5.8L482.9 759c-4.1 2.2-10.4 2.2-14.6 0l-42.2-22.2c-2.7-1.4-4-3.6-4.1-5.8V619.3c.2-2 1.5-3.9 4-5.3l42.2-22zm54.3 89.6-39.7 20.9c-4.1 2.2-10.4 2.2-14.6 0l-39.6-20.8v49l39.6 20.7c2.2 1.2 4.6 2.3 6.8 2.5h.5c2.4 0 4.7-1.2 7-2.3l40-21.1v-48.9zm-107.4 46.8c0 4.3.5 7.1 1.5 9 .8 1.6 2 2.9 4.3 4.4l.1.1c.5.3 1 .7 1.7 1.1l.8.5 2.4 1.4-3.4 5.6-2.7-1.6-.5-.3c-.8-.5-1.4-.9-2-1.3-6.4-4.3-8.8-9-8.8-18.7v-.3l6.6.1zm57.1-76.7c-.3.1-.6.2-.9.4l-42.2 22.2c-.1 0-.1.1-.1.1h.1l.1.1 42.2 22.2c.3.1.6.3.9.4l-.1-45.4zm6.6 0V697c.3-.1.6-.2.9-.4l42.2-22.2c.1 0 .1-.1.1-.1h-.1l-.1-.1-42.2-22.2c-.2-.1-.5-.2-.8-.3zm43.7-24.4-37.9 19.9 37.9 19.9v-39.8zm-93.9.1v39.7l37.8-19.8-37.8-19.9zm51.1-29.6c-2.2-1.2-6.2-1.2-8.4 0L429.1 620c-.1 0-.1.1-.1.1h.1l.1.1 42.2 22.2c2.2 1.2 6.2 1.2 8.4 0l42.2-22.2c.1 0 .1-.1.1-.1h-.1l-.1-.1-42.2-22.2zm49 2.4 2.7 1.6.5.3c.8.5 1.4.9 2 1.3 6.4 4.3 8.8 9 8.8 18.7v.3h-6.6c0-4.3-.5-7.1-1.5-9-.8-1.6-2-2.9-4.3-4.4l-.1-.1c-.5-.3-1-.7-1.7-1.1l-.8-.5-2.4-1.4 3.4-5.7z" class="st5"/><circle cx="475.6" cy="675.4" r="129.8" class="st44"/><g id="Layer_2_00000173863828462036759020000011294475842292520860_"><g id="Layer_1-2"><circle cx="475.6" cy="675.4" r="127.7" fill="#f5eee4"/><g id="Layer_2-2"><path id="Layer_1-2-2" d="M475.5 805.2c-71.6-.1-129.9-58.1-129.7-130.2.2-71.4 58.1-129.6 130.2-129.4 71.4.2 129.4 58.1 129.4 129.9-.1 71.7-58.1 129.7-129.9 129.7zM359 675.4c.6 31.8 11.5 59.4 34.2 82.1 22.5 22.6 50 34.1 81.9 34.3 32 .1 59.8-11.2 82.6-33.9 22.8-22.7 34.3-50.3 34.4-82.3.1-32-11.4-59.8-34.1-82.5-22.6-22.6-50.2-34.1-82-34.1-31.9-.1-59.5 11.3-82.3 33.9-23 22.6-34 50.4-34.7 82.5z" class="st44"/></g><path d="M425.3 675.4v-51.1c0-2.2 1-3.8 2.6-5.2 1.2-1 2.6-1.6 4-2.4 1.6-.9 3.3-1.8 5-2.7 1.3-.7 2.5-1.3 3.8-2 1.4-.7 2.8-1.5 4.2-2.2 1.3-.7 2.5-1.3 3.8-2 1.3-.7 2.7-1.4 4-2.2 1-.5 2-1.1 3-1.6.8-.4 1.5-.9 2.3-1.2 1.1-.5 2.1-1.1 3.1-1.6.7-.4 1.5-.8 2.2-1.2 1-.5 2-1.1 3-1.6.7-.4 1.5-.8 2.2-1.2.9-.5 1.9-.8 2.8-1.1 2-.5 4.1-.7 6.2-.5 1.2.1 2.4.3 3.6.7 1.3.4 2.5 1.1 3.7 1.7 1.3.7 2.6 1.4 4 2.1.7.3 1.4.8 2.1 1.2 1.4.8 2.9 1.5 4.3 2.3 1 .5 2 1.1 3.1 1.6 1.3.6 2.5 1.4 3.8 2 .7.3 1.3.7 2 1.1 1.3.7 2.5 1.3 3.8 2 .9.5 1.8 1 2.8 1.5 1.1.6 2.2 1.1 3.3 1.7.9.5 1.9 1 2.8 1.5 1.4.8 2.8 1.5 4.3 2.3 1.1.6 2.2 1.2 3.1 2.1 1 1 1.7 2.2 2.1 3.5.2.8.3 1.7.2 2.6V726c0 2.1-.9 4.1-2.4 5.5-1 .9-2.1 1.5-3.2 2-1.1.6-2.2 1.2-3.4 1.8-1 .5-2.1 1-3.1 1.6-.7.4-1.4.8-2.2 1.1l-3 1.6c-.8.4-1.5.8-2.3 1.2l-3 1.6-2.3 1.2c-1 .5-2.1 1.1-3.1 1.6-.8.4-1.4.8-2.2 1.2-1.1.5-2.1 1.1-3.1 1.6l-2.2 1.2c-1 .5-2 1.1-3 1.6-.8.4-1.5.8-2.3 1.2-1.4.7-2.7 1.5-4.2 2-2.2.8-4.5 1-6.9.9-1.2-.1-2.5-.3-3.7-.7-1-.3-1.9-.7-2.8-1.2-1.1-.5-2.1-1.1-3.2-1.6-.7-.3-1.4-.8-2.1-1.1-1.4-.7-2.9-1.5-4.3-2.3-1-.5-2.1-1.1-3.1-1.6-1.4-.7-2.8-1.5-4.3-2.2-.7-.3-1.3-.7-1.9-1.1-1.1-.6-2.2-1.2-3.4-1.7-.9-.5-1.9-1-2.8-1.5-1.1-.5-2.1-1.1-3.2-1.7-.7-.3-1.4-.8-2.1-1.1-1.1-.5-2.1-1.1-3.2-1.6-.7-.3-1.4-.7-2-1.1-1-.5-2.1-1.1-3.1-1.7-1.6-1-2.9-2.2-3.6-4-.3-.8-.5-1.7-.4-2.6v-50.7zm92.1 8c-.7.4-1.4.7-2.1 1.1-1.4.8-2.9 1.5-4.3 2.3-1 .5-1.9 1-2.9 1.5-1.1.6-2.2 1.1-3.3 1.7l-3.3 1.8c-1.3.7-2.6 1.3-3.9 2l-3.3 1.8c-1.3.6-2.5 1.3-3.8 2-1 .5-2.1 1.1-3.1 1.6-1.4.7-2.8 1.4-4.2 2.2-.9.5-1.9.9-3 1.2-1.5.4-3 .6-4.5.6-1.1 0-2.2-.1-3.3-.3-.9-.2-1.8-.4-2.7-.7-1.7-.6-3.3-1.6-4.9-2.5-1.6-.8-3.3-1.7-4.9-2.6-1.4-.8-2.8-1.4-4.2-2.2l-3.9-2.1c-1.2-.6-2.3-1.3-3.5-1.9-.8-.4-1.5-.8-2.2-1.2-1-.5-2-1.1-3-1.6-.7-.4-1.4-.8-2.1-1.1-1.3-.7-2.5-1.3-3.8-2l-3-1.6V725c0 .2.1.3.3.4.7.3 1.4.7 2.1 1.1 1.6.9 3.2 1.7 4.8 2.6 1.6.9 3.2 1.7 4.8 2.5 1.7.9 3.3 1.7 5 2.6 1.5.8 3.1 1.6 4.6 2.4 1.9 1 3.9 2 5.8 3.1 1.5.8 3.1 1.6 4.6 2.4 1.4.7 2.7 1.4 4.1 2.2 1.5.8 3.1 1.5 4.8 1.8.3.1.6.1 1 0 1-.2 2-.4 2.9-.9.9-.4 1.8-.8 2.7-1.3l3.3-1.8c1-.6 2.1-1.1 3.1-1.7 1-.5 1.9-1 2.8-1.5 1.1-.5 2.1-1.2 3.2-1.7.7-.3 1.4-.8 2.1-1.1 1.4-.8 2.9-1.5 4.3-2.3 1-.5 1.9-1.1 2.9-1.5 1.3-.6 2.6-1.4 3.9-2 .7-.3 1.4-.7 2-1.1 1.1-.6 2.2-1.1 3.2-1.7 1.4-.7 2.7-1.5 4.1-2.2.5-.2.5-.5.5-.9v-40.6l.3-.4zm-2-58.6c0-.1-.1-.1-.2-.2-1.3-.7-2.6-1.4-4-2.1-1.9-1-3.7-2-5.6-2.9-1.5-.8-3-1.6-4.6-2.4l-5.7-3c-1.2-.6-2.3-1.2-3.5-1.8l-3.3-1.8c-1-.5-2-1.1-3-1.6-.7-.4-1.4-.8-2.2-1.1-1-.5-2-1-3-1.6-.7-.4-1.4-.8-2.1-1.1-1-.3-2.1-.4-3.1-.3-1 .1-1.9.3-2.8.8-.7.4-1.3.8-2 1.1-1.3.6-2.5 1.3-3.8 2-.9.5-1.9 1-2.8 1.5-1 .5-2 1.1-3.1 1.6-1 .5-1.9 1-2.9 1.5-1.1.6-2.2 1.2-3.3 1.7-1.3.7-2.6 1.4-4 2.1s-2.7 1.4-4 2.1c-.7.4-1.3.7-2 1.1-1.1.6-2.2 1.1-3.2 1.6-1.2.7-2.4 1.3-3.6 1.9-.5.3-1 .4-1.4.8.9.6 1.8 1 2.7 1.4 1.2.7 2.4 1.3 3.6 1.9.8.4 1.5.8 2.2 1.2 1 .5 2 1.1 3 1.6.8.4 1.5.8 2.3 1.2 1 .5 1.9 1 2.9 1.5.9.5 2 1 2.9 1.6 1 .6 2.1 1.1 3.1 1.7 1.2.6 2.3 1.2 3.5 1.8.6.3 1.3.7 1.9 1l3.3 1.8c1.3.7 2.6 1.3 3.8 2 .9.5 1.7.9 2.7 1 .9.1 1.9.1 2.8 0 .6 0 1.2-.2 1.8-.5l2.7-1.5c1.4-.8 2.8-1.5 4.2-2.2 1-.5 2-1.1 3-1.6 1.5-.8 2.9-1.5 4.4-2.3.9-.5 1.9-1 2.8-1.5 1.3-.6 2.5-1.3 3.8-2 .9-.5 1.9-.9 2.8-1.5 1-.6 2-1.1 3.1-1.6.8-.4 1.6-.8 2.4-1.3 1.3-.7 2.5-1.3 3.8-2 1.4-.4 2.5-1 3.7-1.6zm-44 68.5v-37.2c-.9.6-1.9 1-2.8 1.5l-2.1 1.2c-1.1.6-2.2 1.1-3.2 1.6-1.3.8-2.7 1.4-4 2.2l-3.9 2.1c-1.1.6-2.1 1.2-3.3 1.7-1 .5-2 1.1-3.1 1.6-.8.4-1.5.8-2.3 1.2-1.3.7-2.6 1.3-3.9 2-1.2.6-2.3 1.2-3.5 1.9-1 .5-2 1.1-3 1.6.6.3 1.1.5 1.6.8 1.1.6 2.2 1.1 3.3 1.7 1.3.7 2.6 1.3 3.9 2 1 .6 2 1.1 3.1 1.6 1.6.9 3.3 1.7 4.9 2.6 1.9 1 3.7 1.9 5.6 3 1 .6 2.1 1.1 3.1 1.7.9.5 1.8 1 2.7 1.4 1.3.6 2.5 1.3 3.8 2 .9.6 2 1.1 3.1 1.8zm44-18.6c-.6-.3-1.1-.6-1.6-.9-1-.5-2-1-3-1.6-1-.5-1.9-1-2.9-1.6-1-.6-2.1-1.1-3.1-1.7-1.1-.6-2.3-1.2-3.4-1.8-1.2-.7-2.5-1.2-3.7-1.9-1.9-1.1-3.8-2-5.7-3.1-.8-.4-1.6-.8-2.3-1.2-1.1-.7-2.3-1.2-3.4-1.8-1-.6-2-1.1-3.1-1.6l-2.7-1.4v37l34.9-18.4zm1.9-9.2v-31.7c-.2-.1-.3 0-.4.1-1 .7-2.2 1.2-3.3 1.8-1.1.6-2.2 1.1-3.3 1.7-.9.5-1.8 1-2.8 1.5-1.1.6-2.2 1.1-3.3 1.7-1.1.6-2.1 1.2-3.3 1.7-1.1.5-2.2 1.1-3.2 1.7-.9.5-1.9 1-2.8 1.5-1.1.6-2.2 1.1-3.2 1.7-.7.4-1.4.8-2.1 1.1-.8.4-1.6.8-2.5 1.3.6.3 1.2.7 1.8 1l6.3 3.3 5.7 3c1.8.9 3.5 1.9 5.3 2.8.8.4 1.7.8 2.5 1.3 1.1.7 2.3 1.2 3.5 1.9 1 .6 2 1 3 1.6.7.2 1.4.6 2.1 1zm-52.9-15.9-30.1-15.8v31.7c.2-.3.5-.3.8-.5.9-.5 1.8-1 2.8-1.5 1.1-.6 2.2-1.1 3.3-1.7.9-.5 1.8-1 2.7-1.4 1.1-.6 2.2-1.1 3.3-1.7.9-.5 1.8-1 2.8-1.5 1.2-.6 2.5-1.3 3.7-1.9.9-.5 1.9-1 2.8-1.5 1.1-.6 2.2-1.1 3.3-1.7 1-.5 1.9-1 2.9-1.5.5-.4 1.1-.7 1.7-1zM409.9 728h2.7c1.2 0 1.7.5 1.7 1.7 0 1.3.1 2.6.3 3.9.2 1.4.5 2.8 1.3 4 .8 1.3 1.9 2.2 3.1 3 .7.5 1.4 1 2.2 1.4s1.4.9 2.2 1.3c.8.5.9 1.5.5 2.2l-2.7 4.5c-.7 1.2-1.8 1.3-2.7.7-1.5-1-3-1.9-4.5-2.8-2.2-1.5-4.1-3.3-5.6-5.6-.8-1.3-1.5-2.8-1.9-4.4-.7-2.7-.9-5.4-1-8.2 0-1.2.6-1.8 1.8-1.8l2.6.1zm132.3-104.2h-2.6c-1.3 0-1.8-.5-1.8-1.8 0-2-.1-4-.7-5.9-.5-1.8-1.6-3.1-3-4.3-1.6-1.3-3.5-2.2-5.2-3.4-.8-.6-1-1.5-.5-2.4.9-1.5 1.8-3 2.7-4.4.6-1 1.5-1.3 2.5-.6 2 1.2 4 2.4 5.8 3.8 2.3 1.7 4.1 3.9 5.3 6.4.6 1.4 1.1 2.8 1.3 4.3.4 2.2.6 4.4.6 6.6 0 1-.6 1.6-1.6 1.7h-2.8z"/></g></g></svg>