<svg xmlns="http://www.w3.org/2000/svg" xmlns:xlink="http://www.w3.org/1999/xlink" viewBox="0 0 940 1000"><style>.st5{fill:#fff}.st9{fill:#f1c616}.st10{opacity:.45}.st11{fill:#e7ad22}.st12{fill:#f9fae6}.st18{fill:#46739d}.st19,.st20{opacity:.5;fill:#172734;enable-background:new}.st20{opacity:.25;fill:#bab1cb}.st21{opacity:.6}.st22{fill:#2f4d69}.st23{fill:#7eaed9}.st40{opacity:.5;fill:#172734}.st41{opacity:.25;fill:#bab1cb}.st46{fill:#f2b92b}</style><path fill="#fff" stroke="#fff" stroke-miterlimit="10" stroke-width="49.008" d="M622.7 25.4c-60.3 0-114.3 27-150.6 69.6-22.2-26.6-55.5-43.5-92.8-43.5-66.8 0-120.9 54.1-120.9 120.9 0 1.1.1 2.2.1 3.3-6.4-1.1-13-1.6-19.7-1.6-65.9 0-119.3 53.4-119.3 119.3 0 0 238.5 3.3 238.4 3.3h81.2c29.2 72.8 100.3 124.2 183.5 124.2 109.2 0 197.7-88.5 197.7-197.7S731.9 25.4 622.7 25.4z"/><path fill="#fff" stroke="#fff" stroke-miterlimit="10" stroke-width="35.939" d="M865.4 369.9C957 579 869.6 825.5 663.1 928.8 450 1035.5 190.7 949.1 84.1 736c-59.5-118.9-58.9-252.1-9.8-365.1"/><path d="M917.5 314c0-33.2-35.1-60.4-78-60.4h-739c-42.9 0-78 27.2-78 60.4s35.1 60.4 78 60.4h739.1c42.8 0 77.9-27.2 77.9-60.4z" class="st5"/><path fill="none" stroke="#fff" stroke-miterlimit="10" stroke-width="35.939" d="M917.5 314c0-33.2-35.1-60.4-78-60.4h-739c-42.9 0-78 27.2-78 60.4s35.1 60.4 78 60.4h739.1c42.8 0 77.9-27.2 77.9-60.4z"/><path fill="#e7ad22" stroke="#e7ad22" stroke-miterlimit="10" stroke-width="13.069" d="M622.7 25.4c-60.3 0-114.3 27-150.6 69.6-22.2-26.6-55.5-43.5-92.8-43.5-66.8 0-120.9 54.1-120.9 120.9 0 1.1.1 2.2.1 3.3-6.4-1.1-13-1.6-19.7-1.6-65.9 0-119.3 53.4-119.3 119.3 0 0 238.5 3.3 238.4 3.3h81.2c29.2 72.8 100.3 124.2 183.5 124.2 109.2 0 197.7-88.5 197.7-197.7S731.9 25.4 622.7 25.4z"/><path d="M622.7 25.4c-60.3 0-114.3 27-150.6 69.6-22.2-26.6-55.5-43.5-92.8-43.5-66.8 0-120.9 54.1-120.9 120.9 0 1.1.1 2.2.1 3.3-6.4-1.1-13-1.6-19.7-1.6-65.9 0-119.3 53.4-119.3 119.3 0 0 238.5 3.3 238.4 3.3h81.2c29.2 72.8 100.3 124.2 183.5 124.2 109.2 0 197.7-88.5 197.7-197.7S731.9 25.4 622.7 25.4z" class="st9"/><g class="st10"><path d="M493.3 106.2c5.3-6.3 11-12.4 17.2-17.9.8-.7 1.5-1.4 2.3-2.1l2.4-2c1.6-1.3 3.2-2.7 4.9-3.9l5-3.7c1.7-1.2 3.5-2.3 5.2-3.5.9-.6 1.7-1.2 2.6-1.7l2.7-1.6c1.8-1 3.6-2.1 5.5-3.1 3.7-1.9 7.4-3.9 11.3-5.6 7.6-3.6 15.6-6.3 23.8-8.6l6.1-1.6c2.1-.5 4.1-.9 6.2-1.3l3.1-.6c1-.2 2.1-.3 3.1-.5l6.3-.9 6.3-.6 3.2-.3 3.2-.1 6.4-.2 6.4.1c2.1 0 4.2.1 6.4.3 2.1.2 4.2.2 6.3.5l6.3.7 6.3 1c2.1.3 4.2.8 6.3 1.2s4.2.8 6.2 1.4c2.1.5 4.1 1 6.2 1.6l6.1 1.9c8.1 2.7 16 5.9 23.6 9.7 7.6 3.9 14.9 8.2 21.9 13.1s13.5 10.3 19.7 16.1c1.5 1.5 3.1 2.9 4.5 4.4l4.4 4.6 4.2 4.8c1.4 1.6 2.7 3.3 4 4.9 5.2 6.6 10 13.7 14 21 4.1 7.3 7.8 14.9 10.7 22.8.4 1 .7 2 1.1 3l1 3 1 3 .9 3c.6 2 1.2 4 1.7 6l1.4 6.1c.4 2 .8 4.1 1.1 6.1.4 2 .7 4.1.9 6.2.6 4.1.8 8.2 1.1 12.4-.9-4-1.7-8.1-2.8-12-.9-4-2.2-7.9-3.4-11.8-2.6-7.7-5.6-15.3-9.2-22.6l-2.7-5.4-2.9-5.3c-.9-1.8-2-3.5-3.1-5.2l-1.6-2.6c-.5-.9-1.1-1.7-1.7-2.5-1.1-1.7-2.2-3.4-3.4-5l-3.6-4.9c-2.5-3.2-4.9-6.3-7.6-9.3-21-24.2-48.4-42.6-78.8-52.5-7.5-2.6-15.3-4.4-23.1-5.9-7.8-1.6-15.8-2.3-23.7-2.7l-6-.2-6 .1h-3l-3 .2-6 .4-6 .7-3 .3-3 .5c-2 .3-4 .6-5.9 1l-5.9 1.3c-31.3 6.3-60.8 22.1-85.1 44.3z" class="st11"/></g><g class="st10"><path d="M298.2 123.3c4.6-10.2 11.4-19.7 19.8-27.5 8.3-8 18.4-14.2 29.2-18.5 5.5-2 11.1-3.9 16.9-4.8l2.2-.4c.7-.1 1.5-.2 2.2-.3l4.4-.5c1.5-.1 2.9-.2 4.4-.3 1.5-.1 2.9-.2 4.4-.1 11.8-.1 23.6 2.2 34.7 6.4 22.2 8.4 40.7 25.5 51.2 46.5 5.2 10.5 8.3 21.9 9.3 33.4.9 11.5-.3 23-3.9 33.7 1.1-11.2.7-22.3-1.7-32.9-2.3-10.6-6.2-20.7-11.6-29.9-10.9-18.3-27.8-32.6-47.4-40.1-4.9-1.9-9.9-3.4-15.1-4.4-1.3-.2-2.6-.5-3.9-.7l-3.9-.5-3.9-.4c-1.3-.1-2.6-.1-3.9-.2-10.5-.4-21.1 1.1-31.3 4.2-20.5 5.9-38.8 19.2-52.1 37.3z" class="st11"/></g><g class="st10"><path d="M205.5 197.7c3.9-2.6 8.2-4.4 12.6-5.9 4.5-1.4 9.1-2.3 13.9-2.6 9.4-.6 19.2.6 28.2 3.9 4.5 1.6 8.8 3.8 12.9 6.2l3 2c.5.3 1 .7 1.5 1l1.4 1.1 2.8 2.2 2.6 2.4c.4.4.9.8 1.3 1.2l1.2 1.3c.8.9 1.6 1.7 2.4 2.6.7.9 1.4 1.9 2.1 2.8l1 1.4 1 1.5 1.8 3c.5 1 1.1 2.1 1.6 3.1l.8 1.6.6 1.6 1.2 3.3c-.9-.8-1.7-1.5-2.6-2.3l-1.2-1.2-1.3-1.1c-.9-.7-1.7-1.5-2.5-2.2l-2.6-2.1-1.2-1.1-1.3-1-2.6-2c-1.8-1.2-3.5-2.5-5.3-3.6-3.5-2.4-7.2-4.4-10.9-6.3-1-.4-1.9-.9-2.8-1.3l-1.4-.7-1.4-.6-2.9-1.2-2.9-1.1c-7.8-2.9-16-4.7-24.4-5.7-8.7-.8-17.3-.7-26.6-.2z" class="st11"/></g><path d="m538.6 127-11.6 6.3-6.4 11.7-6.3-11.7-11.7-6.3 11.7-6.4 6.3-11.6 6.4 11.6z" class="st12"/><path fill="#f9fae6" d="m357.3 192.5-11.6 6.3-6.3 11.6-6.4-11.6-11.6-6.3 11.6-6.4 6.4-11.6 6.3 11.6z" opacity=".8"/><path fill="#f9fae6" d="m757.6 212.1-11.7 6.3-6.3 11.6-6.4-11.6-11.6-6.3 11.6-6.4 6.4-11.6 6.3 11.6z" opacity=".95"/><path fill="#7eaed9" stroke="#7eaed9" stroke-miterlimit="10" stroke-width="1.634" d="M865.4 369.9C957 579 869.6 825.5 663.1 928.8 450 1035.5 190.7 949.1 84.1 736c-59.5-118.9-58.9-252.1-9.8-365.1"/><path fill="#5e82a2" d="M648 695.8c-211.2 84.7-451.1-17.8-535.9-229-10.1-25.1-17.3-50.6-22.2-76.2-35.1 93-37.2 198.8 2.7 298.4 84.7 211.2 324.7 313.8 535.9 229 186.1-74.7 287.7-269.8 251.2-459.7C840.5 562.7 759.6 651 648 695.8z" opacity=".15"/><path d="M186.1 516.5c.3.6.7 1.2 1 1.8-.3-.6-.7-1.2-1-1.8zm-3.5-5.6 1.5 2.1-1.5-2.1zm-38.8 83.6c-.9.1-1.8.1-2.6.1.8 0 1.7 0 2.6-.1zm3.7-.4c-1 .2-2.1.3-3.1.4 1-.1 2-.2 3.1-.4zm36.7-80.8c.5.8 1 1.6 1.5 2.5-.5-.9-1-1.7-1.5-2.5zm-21-18.8c.9.4 1.7.9 2.5 1.3-.8-.4-1.7-.8-2.5-1.3zm-5.8-2.4c.7.2 1.3.5 2 .7-.7-.2-1.3-.4-2-.7zm-24.5 102.1c-.8-.1-1.7-.2-2.5-.4.8.2 1.6.3 2.5.4zm27.5-100.9c.6.3 1.3.6 1.9.9-.6-.4-1.3-.7-1.9-.9zm-69.5 68.5c-.4-.9-.7-1.9-1.1-2.9.4 1 .8 1.9 1.1 2.9zm56.5-72.1c.7.1 1.4.2 2.1.4-.7-.2-1.4-.3-2.1-.4zm33.4 18.9zm-30.3-18.4c1 .2 2 .4 3 .7-1-.3-2-.5-3-.7zm3 .7 3 .9-3-.9zm20.5 10.7c.7.6 1.4 1.2 2 1.8-.7-.6-1.4-1.2-2-1.8zm2.1 1.9c.7.7 1.4 1.4 2 2.1-.6-.7-1.3-1.4-2-2.1zm2.7 2.8c.5.5.9 1 1.4 1.5-.5-.5-1-1-1.4-1.5zm-7.2-6.5c.5.4 1.1.8 1.6 1.3-.5-.5-1-.9-1.6-1.3zm-2.5-1.8c.6.4 1.1.8 1.7 1.2-.6-.5-1.1-.9-1.7-1.2zm-3.3-2.1c.9.5 1.7 1 2.5 1.5-.8-.5-1.6-1-2.5-1.5zm-28.9 98.7c-1.1-.1-2.1-.2-3.2-.3 1.1.2 2.2.3 3.2.3zm3.3.1c-.9 0-1.8 0-2.7-.1.9.1 1.8.1 2.7.1zm-35.9-13.8c-.6-.5-1.1-1.1-1.7-1.6.6.6 1.1 1.1 1.7 1.6zm27-91.1c.7-.1 1.4-.2 2-.3-.6.1-1.3.2-2 .3zm-9.4 2.4c.6-.2 1.3-.4 1.9-.7-.6.3-1.2.5-1.9.7zM102 578.7c-.7-.7-1.4-1.5-2.1-2.2.7.7 1.4 1.5 2.1 2.2zm-2.3-2.5c-.6-.7-1.1-1.4-1.7-2.1.6.7 1.1 1.4 1.7 2.1zm19.4-82.8c.6-.3 1.2-.5 1.9-.8-.6.2-1.3.5-1.9.8zm-12 89.9c-.7-.6-1.5-1.2-2.2-1.8.8.7 1.5 1.3 2.2 1.8zm53.6 7.1c-.7.3-1.5.6-2.2.9.7-.3 1.4-.6 2.2-.9zm-3.1 1.2c-1 .4-2 .7-3 1 1-.3 2-.6 3-1zm-32.9-100.3c1.9-.6 3.8-1 5.7-1.4-1.9.4-3.8.9-5.7 1.4z" class="st18"/><path d="M178.2 578.2c5.9-6.2 10.3-13.9 12.7-22.7 2.8-10.6 2.2-21.3-1.1-31-.3-.5-29.2-48.3-84.5-22.5-7.7 6.7-13.5 15.6-16.3 26.2-2.5 9.3-2.3 18.7 0 27.4 1 2.3 29.2 60.7 89.2 22.6zm-70-78.5c.5-.4 1.1-.8 1.6-1.2-.5.4-1.1.8-1.6 1.2zm-16 64.9c-.3-.7-.6-1.4-1-2.1.4.7.7 1.4 1 2.1zm-2.5-6.2c-.3-.8-.5-1.6-.7-2.4.2.8.4 1.6.7 2.4z" class="st18"/><path d="M105.2 502.1c.7-.6 1.5-1.2 2.2-1.8-.7.5-1.5 1.1-2.2 1.8zm-11.4 65.7c-.4-.8-.8-1.5-1.2-2.3.4.7.8 1.5 1.2 2.3zm21.9-72.8c.9-.4 1.7-.9 2.6-1.2-.9.3-1.8.7-2.6 1.2zm-2.6 1.4c.8-.5 1.7-1 2.5-1.4-.8.4-1.6.9-2.5 1.4zm74.4 22.9c.3.6.6 1.2.8 1.8-.2-.6-.5-1.2-.8-1.8zm-91.8 51.5c-.6-.8-1.1-1.7-1.6-2.6.5.9 1 1.7 1.6 2.6zm15-72.9c.6-.4 1.1-.7 1.7-1.1-.6.4-1.2.7-1.7 1.1zm-13.2 75.4zm77.8 7.7c-.6.5-1.2 1.1-1.8 1.6.6-.5 1.2-1 1.8-1.6zm-2.5 2.1c-.8.6-1.6 1.3-2.5 1.9.9-.6 1.7-1.2 2.5-1.9zm-50.7 8.5c-.8-.3-1.5-.6-2.2-.9.7.4 1.5.6 2.2.9zm32.5 1c-1 .3-2 .5-3 .8 1-.3 2-.5 3-.8zm15.3-7.3c-.7.5-1.4 1-2.2 1.4.7-.4 1.5-.9 2.2-1.4zm-43.7 7.6c-1.1-.3-2.1-.6-3.1-1 1 .4 2 .7 3.1 1zm24.5.7c-.8.2-1.6.3-2.4.4.8-.1 1.6-.3 2.4-.4zm38-71.7.9 2.4-.9-2.4zm-59.3 71.7c-1.1-.2-2.2-.5-3.3-.8 1.2.4 2.3.6 3.3.8zm14.9-104.3c.7.1 1.4.1 2.1.2-.7-.1-1.4-.1-2.1-.2zm33.9 88.9c-.7.8-1.5 1.5-2.2 2.2l2.2-2.2zm-14 10.5c-.9.5-1.8.9-2.8 1.3.9-.3 1.9-.8 2.8-1.3zm-48.2.3c-.9-.5-1.8-.9-2.6-1.4.8.5 1.7 1 2.6 1.4zm18.4-99.6c.7-.1 1.4-.1 2.1-.2-.8.1-1.4.1-2.1.2zm3-.2c1 0 2-.1 3-.1-1.1 0-2.1 0-3 .1z" class="st18"/><path d="M140.3 489.1c1 0 2 .1 3 .1-1 0-2-.1-3-.1zm-30.4 96.3c-.9-.6-1.7-1.2-2.5-1.8.8.6 1.6 1.2 2.5 1.8zm2.7 1.7c-.7-.4-1.3-.8-2-1.3.6.5 1.3.9 2 1.3zm6.4 3.3c-1-.4-1.9-.9-2.9-1.3 1 .5 2 .9 2.9 1.3zm47.9-3.2c-.7.4-1.5.9-2.2 1.3.7-.4 1.5-.9 2.2-1.3z" class="st18"/><path d="M189.7 524.6c0-.1-.1-.2-.1-.3 0 .1.1.2.1.3zm-79.9-26.1c.3-.2.6-.4.8-.6-.2.2-.5.4-.8.6zm-2.4 1.7c.2-.2.5-.4.7-.5-.2.2-.4.3-.7.5zm29-11c.3 0 .6 0 .9-.1-.3.1-.6.1-.9.1zm-6 .7c.3-.1.6-.1.9-.1-.3.1-.6.1-.9.1zm-6.5 1.7.9-.3-.9.3zm9.5-2.1c.3 0 .7-.1 1-.1-.4 0-.7.1-1 .1zm-12.4 3.1c.3-.1.6-.2.9-.4-.3.2-.6.3-.9.4zm22.3-3.4c.3 0 .6.1.9.1-.2 0-.6-.1-.9-.1zm-25 4.5c.3-.1.6-.2.8-.4-.3.2-.5.3-.8.4zm44 .4c.3.1.6.3.9.4-.3-.1-.6-.2-.9-.4zm-2.9-1.2c.3.1.7.3 1 .4-.4-.2-.7-.3-1-.4zm6.3 3s.1 0 .1.1c0-.1-.1-.1-.1-.1zm5.1 3.2c.3.2.6.4.8.6-.2-.2-.5-.4-.8-.6zm-2.5-1.6c.3.2.5.3.8.5-.2-.2-.5-.4-.8-.5zm-21.9-8c.4 0 .7.1 1.1.1-.4 0-.8 0-1.1-.1zm3.1.5c.3.1.6.1.9.2-.2-.1-.5-.1-.9-.2zm7 1.8.9.3-.9-.3zM184 513c.1.1.1.2.2.3 0-.1-.1-.2-.2-.3zm-2-2.8c.2.2.4.5.6.8-.2-.3-.4-.6-.6-.8zm3.7 5.6c.1.2.3.5.4.8-.1-.3-.3-.6-.4-.8zm2.6 5.3c.1.3.3.6.4.9-.1-.4-.2-.6-.4-.9zm-1.2-2.8c.2.3.3.6.4.9-.1-.3-.3-.6-.4-.9zM176 503.4l.2.2-.2-.2zm-2.8-2.4c.2.2.5.4.7.6-.2-.2-.4-.4-.7-.6zm5 4.6zm1.9 2.2c.2.3.4.5.6.8-.1-.3-.3-.5-.6-.8zm-67.7-11c.3-.2.5-.3.8-.5-.3.2-.6.4-.8.5z" class="st19"/><path d="M189.7 524.6c0-.1-.1-.2-.1-.3l-.9-2.4c-.1-.3-.2-.6-.4-.9-.3-.6-.5-1.2-.8-1.8-.1-.3-.3-.6-.4-.9-.3-.6-.6-1.2-1-1.8-.1-.3-.3-.5-.4-.8-.5-.8-1-1.7-1.5-2.5-.1-.1-.1-.2-.2-.3l-1.5-2.1c-.2-.3-.4-.5-.6-.8-.4-.5-.8-1.1-1.2-1.6-.2-.3-.4-.5-.6-.8-.4-.5-.9-1-1.4-1.5-.2-.2-.4-.4-.6-.7-.7-.7-1.3-1.4-2-2.1l-.2-.2c-.7-.6-1.3-1.2-2-1.8-.2-.2-.5-.4-.7-.6-.5-.4-1.1-.8-1.6-1.3-.3-.2-.6-.4-.8-.6-.6-.4-1.1-.8-1.7-1.2-.3-.2-.5-.3-.8-.5-.8-.5-1.7-1-2.5-1.5 0 0-.1 0-.1-.1-.8-.5-1.7-.9-2.5-1.3-.3-.1-.6-.3-.9-.4-.6-.3-1.3-.6-1.9-.9-.3-.1-.7-.3-1-.4-.7-.3-1.3-.5-2-.7l-.9-.3-3-.9c-1-.3-2-.5-3-.7-.3-.1-.6-.1-.9-.2-.7-.1-1.4-.3-2.1-.4-.4-.1-.7-.1-1.1-.1-.7-.1-1.4-.2-2.1-.2-.3 0-.6-.1-.9-.1-1-.1-2-.1-3-.1s-2 0-3 .1c-.3 0-.6 0-.9.1-.7 0-1.4.1-2.1.2-.3 0-.7.1-1 .1-.7.1-1.4.2-2 .3-.3 0-.6.1-.9.1-1.9.4-3.8.8-5.7 1.4l-.9.3c-.6.2-1.3.4-1.9.7-.3.1-.6.2-.9.4-.6.2-1.3.5-1.9.8-.3.1-.6.2-.8.4-.9.4-1.8.8-2.6 1.2-.9.4-1.7.9-2.5 1.4-.3.2-.5.3-.8.5-.6.4-1.2.7-1.7 1.1-.3.2-.6.4-.8.6-.6.4-1.1.8-1.6 1.2-.2.2-.5.4-.7.5-.8.6-1.5 1.2-2.2 1.8 55-25.7 83.9 22.1 84.2 22.6z" class="st18"/><path d="M189.7 524.6c0-.1-.1-.2-.1-.3l-.9-2.4c-.1-.3-.2-.6-.4-.9-.3-.6-.5-1.2-.8-1.8-.1-.3-.3-.6-.4-.9-.3-.6-.6-1.2-1-1.8-.1-.3-.3-.5-.4-.8-.5-.8-1-1.7-1.5-2.5-.1-.1-.1-.2-.2-.3l-1.5-2.1c-.2-.3-.4-.5-.6-.8-.4-.5-.8-1.1-1.2-1.6-.2-.3-.4-.5-.6-.8-.4-.5-.9-1-1.4-1.5-.2-.2-.4-.4-.6-.7-.7-.7-1.3-1.4-2-2.1l-.2-.2c-.7-.6-1.3-1.2-2-1.8-.2-.2-.5-.4-.7-.6-.5-.4-1.1-.8-1.6-1.3-.3-.2-.6-.4-.8-.6-.6-.4-1.1-.8-1.7-1.2-.3-.2-.5-.3-.8-.5-.8-.5-1.7-1-2.5-1.5 0 0-.1 0-.1-.1-.8-.5-1.7-.9-2.5-1.3-.3-.1-.6-.3-.9-.4-.6-.3-1.3-.6-1.9-.9-.3-.1-.7-.3-1-.4-.7-.3-1.3-.5-2-.7l-.9-.3-3-.9c-1-.3-2-.5-3-.7-.3-.1-.6-.1-.9-.2-.7-.1-1.4-.3-2.1-.4-.4-.1-.7-.1-1.1-.1-.7-.1-1.4-.2-2.1-.2-.3 0-.6-.1-.9-.1-1-.1-2-.1-3-.1s-2 0-3 .1c-.3 0-.6 0-.9.1-.7 0-1.4.1-2.1.2-.3 0-.7.1-1 .1-.7.1-1.4.2-2 .3-.3 0-.6.1-.9.1-1.9.4-3.8.8-5.7 1.4l-.9.3c-.6.2-1.3.4-1.9.7-.3.1-.6.2-.9.4-.6.2-1.3.5-1.9.8-.3.1-.6.2-.8.4-.9.4-1.8.8-2.6 1.2-.9.4-1.7.9-2.5 1.4-.3.2-.5.3-.8.5-.6.4-1.2.7-1.7 1.1-.3.2-.6.4-.8.6-.6.4-1.1.8-1.6 1.2-.2.2-.5.4-.7.5-.8.6-1.5 1.2-2.2 1.8 55-25.7 83.9 22.1 84.2 22.6z" class="st19"/><path d="M94.1 568.2c-.1-.1-.1-.3-.2-.4 0 .1.1.2.2.4zm39.6 26.1c-.3 0-.5-.1-.8-.1.3.1.5.1.8.1zm3.8.3h-.6.6zm-30.1-11.1-.2-.2c0 .1.1.2.2.2zm23 10.3c-.3-.1-.6-.1-.9-.2.2.1.6.2.9.2zm-34.3-22.3c-.2-.2-.3-.5-.5-.7.2.2.4.4.5.7zm8.9 10c-.2-.2-.5-.4-.7-.6.2.2.4.4.7.6zm56.4 8.6c-.2.1-.5.2-.7.3.2-.1.4-.2.7-.3zm-58.8-10.8-.6-.6.6.6zm49 14.1c-.3.1-.6.1-.9.2.3-.1.6-.2.9-.2zm-51.7-16.9-.3-.3c.2.1.3.2.3.3zm-1.9-2.4c-.2-.2-.4-.5-.6-.7.2.2.4.4.6.7zm25.1 17.8-.9-.3c.2.1.5.2.9.3zm21.3 2.6h-.6.6zm-3.3.2h-.9.9zm7.2-.7c-.3 0-.5.1-.8.1.3 0 .5-.1.8-.1zm22-9c-.2.1-.3.2-.5.3.2-.1.4-.2.5-.3zm3.1-2.4c-.2.2-.4.3-.6.5.2-.2.4-.3.6-.5zm-57.2 6.5c-.1 0-.1-.1 0 0-.1-.1-.1 0 0 0zm42.2 2.2c-.3.1-.6.2-.8.3.3-.1.5-.2.8-.3zm-45-3.7c-.3-.2-.5-.3-.8-.5.2.2.5.3.8.5zm62.5-7.2c-.2.2-.4.4-.7.6.3-.2.5-.4.7-.6zm-11.2 8.1c-.2.1-.3.2-.5.3.1-.2.3-.2.5-.3zm3-1.8c-.3.2-.5.3-.8.5.3-.2.6-.3.8-.5zm-76.4-24.2c-.1-.2-.2-.5-.3-.7 0 .2.2.5.3.7zm1.3 3c-.1-.3-.3-.6-.4-.8.1.2.3.5.4.8zm-3.8-9.9c0 .1.1.3.1.4 0-.1 0-.3-.1-.4.1 0 0 0 0 0zm31.1 35.2c-.3-.1-.6-.2-.9-.4.3.1.6.2.9.4zm34.7 1.8zm-64.7-33.7c-.1-.2-.1-.4-.2-.5.1.2.1.4.2.5zm20.7 26.9c-.2-.2-.5-.3-.7-.5.2.2.5.4.7.5z" class="st20"/><path d="M157.6 591.6c.3-.1.6-.2.8-.3.8-.3 1.5-.6 2.2-.9.2-.1.5-.2.7-.3.9-.4 1.9-.9 2.8-1.3.2-.1.3-.2.5-.3.8-.4 1.5-.8 2.2-1.3.3-.2.5-.3.8-.5.7-.5 1.4-.9 2.2-1.4.2-.1.3-.2.5-.3.8-.6 1.7-1.2 2.5-1.9.2-.2.4-.3.6-.5.6-.5 1.2-1 1.8-1.6.2-.2.4-.4.7-.6.8-.7 1.5-1.4 2.2-2.2-59.9 38.1-88.2-20.3-89.3-22.6 0 .1.1.2.1.3.2.8.5 1.6.7 2.4.1.2.1.4.2.5.3 1 .7 1.9 1.1 2.9.1.2.2.5.3.7.3.7.6 1.4 1 2.1.1.3.3.6.4.8.4.8.8 1.5 1.2 2.3.1.1.1.3.2.4.5.9 1 1.7 1.6 2.6.2.2.3.5.5.7.4.6.9 1.3 1.3 1.9.2.2.4.5.6.7.5.7 1.1 1.4 1.7 2.1l.3.3c.7.8 1.4 1.5 2.1 2.2l.6.6c.5.5 1.1 1.1 1.7 1.6.2.2.5.4.7.6.7.6 1.4 1.2 2.2 1.8l.2.2c.8.6 1.6 1.2 2.5 1.8.2.2.5.3.7.5.6.4 1.3.8 2 1.3.3.2.5.3.8.5.9.5 1.7 1 2.6 1.4.1 0 .1.1.1.1.9.5 1.9.9 2.9 1.3.3.1.6.2.9.4.7.3 1.5.6 2.2.9l.9.3c1 .3 2.1.7 3.1 1 1.1.3 2.2.5 3.3.8.3.1.6.1.9.2.8.2 1.7.3 2.5.4.3 0 .5.1.8.1 1.1.1 2.1.2 3.2.3h.6c.9 0 1.8.1 2.7.1h.9c.9 0 1.8-.1 2.6-.1h.6c1.1-.1 2.1-.2 3.1-.4.3 0 .5-.1.8-.1.8-.1 1.6-.3 2.4-.4.3-.1.6-.1.9-.2 1-.2 2-.5 3-.8 1.1-.4 2.1-.7 3.1-1.1z" class="st18"/><path d="M157.6 591.6c.3-.1.6-.2.8-.3.8-.3 1.5-.6 2.2-.9.2-.1.5-.2.7-.3.9-.4 1.9-.9 2.8-1.3.2-.1.3-.2.5-.3.8-.4 1.5-.8 2.2-1.3.3-.2.5-.3.8-.5.7-.5 1.4-.9 2.2-1.4.2-.1.3-.2.5-.3.8-.6 1.7-1.2 2.5-1.9.2-.2.4-.3.6-.5.6-.5 1.2-1 1.8-1.6.2-.2.4-.4.7-.6.8-.7 1.5-1.4 2.2-2.2-59.9 38.1-88.2-20.3-89.3-22.6 0 .1.1.2.1.3.2.8.5 1.6.7 2.4.1.2.1.4.2.5.3 1 .7 1.9 1.1 2.9.1.2.2.5.3.7.3.7.6 1.4 1 2.1.1.3.3.6.4.8.4.8.8 1.5 1.2 2.3.1.1.1.3.2.4.5.9 1 1.7 1.6 2.6.2.2.3.5.5.7.4.6.9 1.3 1.3 1.9.2.2.4.5.6.7.5.7 1.1 1.4 1.7 2.1l.3.3c.7.8 1.4 1.5 2.1 2.2l.6.6c.5.5 1.1 1.1 1.7 1.6.2.2.5.4.7.6.7.6 1.4 1.2 2.2 1.8l.2.2c.8.6 1.6 1.2 2.5 1.8.2.2.5.3.7.5.6.4 1.3.8 2 1.3.3.2.5.3.8.5.9.5 1.7 1 2.6 1.4.1 0 .1.1.1.1.9.5 1.9.9 2.9 1.3.3.1.6.2.9.4.7.3 1.5.6 2.2.9l.9.3c1 .3 2.1.7 3.1 1 1.1.3 2.2.5 3.3.8.3.1.6.1.9.2.8.2 1.7.3 2.5.4.3 0 .5.1.8.1 1.1.1 2.1.2 3.2.3h.6c.9 0 1.8.1 2.7.1h.9c.9 0 1.8-.1 2.6-.1h.6c1.1-.1 2.1-.2 3.1-.4.3 0 .5-.1.8-.1.8-.1 1.6-.3 2.4-.4.3-.1.6-.1.9-.2 1-.2 2-.5 3-.8 1.1-.4 2.1-.7 3.1-1.1z" class="st20"/><path d="m627.5 704.2.3.3-.3-.3zm-17.5-8.5h.4-.4zm7.4 1.6c.2.1.3.1.5.2-.1-.1-.3-.2-.5-.2zM605 696c.2 0 .3 0 .5-.1-.1 0-.3.1-.5.1zm14.9 2.3c.1.1.2.1.3.2-.1-.1-.2-.1-.3-.2zm-12.3-2.6h.4-.4zm21.5 10.4c.1.1.1.2.2.3 0-.1-.1-.2-.2-.3zm1.3 2c.1.1.1.2.2.3-.1-.1-.2-.2-.2-.3zm-4.4-5.5s.1 0 0 0c.1 0 0 0 0 0zm-13.5-6.6c.2 0 .3.1.5.1-.1 0-.3-.1-.5-.1zm9.5 3.5c.1.1.2.1.3.2-.1-.1-.2-.2-.3-.2zm2 1.4c.1.1.2.2.4.3-.1-.1-.3-.2-.4-.3zm7.5 9.3c.1.1.1.3.2.4-.1-.1-.1-.2-.2-.4zm-41.6 27.2c-.1-.1 0-.1 0 0zm20.2 8.5h-.6.6zm2.2-.2h-.4.4zm-5 .2h-.3.3zm7.6-.8c-.2 0-.3.1-.5.1.2 0 .4 0 .5-.1zm-14.8-.7c-.2-.1-.4-.1-.5-.2.1 0 .3.1.5.2zm-2.6-1.1zm7.6 2.3c-.2 0-.4-.1-.6-.1.2.1.4.1.6.1zm20.3-6c-.1.1-.3.2-.4.4.1-.2.3-.3.4-.4zm-1.9 1.5-.2.2.2-.2zm-6.4 3.4c-.2.1-.3.1-.5.2.2-.1.3-.1.5-.2zm4.4-2.1c-.2.1-.3.2-.5.3.2-.1.3-.2.5-.3zm-2.1 1.1c-.1.1-.2.1-.4.2.2 0 .3-.1.4-.2zm-23.8-1.3c-.2-.1-.3-.2-.5-.3.2.1.3.2.5.3zm-9.6-10.8c-.1-.2-.1-.3-.2-.5.1.2.1.4.2.5zm-.9-2.2c0-.1-.1-.1-.1-.2 0 0 .1.1.1.2zm8.9-28.7c.1-.1.2-.2.4-.3-.2.2-.3.2-.4.3zm4.1-2.4c.1 0 .2-.1.3-.2-.1.1-.2.1-.3.2zm-2 1c.1-.1.2-.1.3-.2-.1.1-.2.2-.3.2zm-7.6 36.5c-.1-.1-.2-.3-.3-.4.1.1.2.3.3.4zm4.9 5.1s-.1-.1 0 0c-.1-.1 0 0 0 0zm-1.7-1.5c-.1-.1-.3-.2-.4-.4.1.2.2.3.4.4zm-4.6-5.7c0-.1-.1-.1-.1-.2 0 .1.1.1.1.2zm13.3-36.4c.1-.1.3-.1.4-.1-.1 0-.3.1-.4.1z" class="st18"/><path d="M592.3 701.9c-3.7 3.2-6.4 7.4-7.8 12.5-1.2 4.5-1.1 9 .1 13.1 1 2 14.4 28.4 42.4 10.6 2.8-2.9 4.9-6.6 6-10.8 1.4-5 1.1-10.1-.5-14.7-.2-.3-13.9-23-40.2-10.7z" class="st18"/><path d="M608 695.7h2-2zm2.4.1c.7 0 1.5.1 2.2.2-.8-.1-1.5-.2-2.2-.2zm-14 3.2c.6-.3 1.1-.6 1.7-.9-.5.2-1.1.5-1.7.9zm-2.1 1.3c.6-.4 1.2-.8 1.8-1.1-.6.3-1.2.7-1.8 1.1zm11.2-4.4c.7-.1 1.4-.2 2.1-.2-.7.1-1.4.1-2.1.2zm-13.2 6c.5-.5 1.1-.9 1.7-1.3-.6.4-1.2.8-1.7 1.3zm6.1-4c.6-.3 1.3-.5 2-.8-.7.3-1.3.5-2 .8zm2.4-.9 2.1-.6-2.1.6zm2.1-.6c.7-.2 1.4-.3 2.1-.4-.7.1-1.4.2-2.1.4zm15 1c.7.3 1.4.6 2 .9-.6-.3-1.3-.6-2-.9zm-4.9-1.3c.7.1 1.5.3 2.2.5-.7-.2-1.4-.4-2.2-.5zm13.1 6.5 1.5 1.5-1.5-1.5zm3.2 3.8c.4.5.7 1.1 1 1.6-.2-.5-.6-1-1-1.6zm3.2 6.2c-.2-.7-.5-1.3-.8-2 .3.7.6 1.3.8 2zm-1.9-4.3c.3.6.7 1.2 1 1.9-.4-.6-.7-1.2-1-1.9zm-2.8-3.8c.5.5.9 1.1 1.3 1.6-.4-.5-.8-1.1-1.3-1.6zm-5.5-4.9 1.8 1.2-1.8-1.2zm-7-3c.7.2 1.5.4 2.2.7-.8-.3-1.5-.5-2.2-.7zm4.9 1.9c.6.3 1.2.6 1.7 1-.5-.4-1.1-.7-1.7-1zm4.2 2.7c.6.5 1.1.9 1.6 1.4-.5-.5-1-1-1.6-1.4z" class="st19"/><path d="M632.5 712.6c-.2-.7-.5-1.3-.8-1.9-.1-.1-.1-.3-.2-.4-.3-.6-.6-1.3-1-1.9-.1-.1-.1-.2-.2-.3-.3-.6-.7-1.1-1-1.6-.1-.1-.1-.2-.2-.3-.4-.6-.8-1.1-1.3-1.6l-.3-.3-1.5-1.5c-.5-.5-1.1-1-1.6-1.4-.1-.1-.2-.2-.4-.3-.6-.4-1.1-.8-1.8-1.2-.1-.1-.2-.1-.3-.2-.6-.3-1.1-.7-1.7-1-.1-.1-.2-.1-.3-.2-.7-.3-1.3-.6-2-.9-.1-.1-.3-.1-.5-.2-.7-.3-1.4-.5-2.2-.7s-1.5-.4-2.2-.5c-.2 0-.3-.1-.5-.1-.7-.1-1.5-.2-2.2-.2h-2.8c-.7 0-1.4.1-2.1.2-.2 0-.3 0-.5.1-.7.1-1.4.2-2.1.4l-2.1.6c-.1 0-.3.1-.4.1-.7.2-1.3.5-2 .8-.1 0-.2.1-.3.2-.6.3-1.2.6-1.7.9-.1.1-.2.1-.3.2-.6.4-1.2.7-1.8 1.1-.1.1-.2.2-.4.3-.6.4-1.1.9-1.7 1.3 26.5-12.5 40.2 10.2 40.4 10.5z" class="st18"/><path d="M632.5 712.6c-.2-.7-.5-1.3-.8-1.9-.1-.1-.1-.3-.2-.4-.3-.6-.6-1.3-1-1.9-.1-.1-.1-.2-.2-.3-.3-.6-.7-1.1-1-1.6-.1-.1-.1-.2-.2-.3-.4-.6-.8-1.1-1.3-1.6l-.3-.3-1.5-1.5c-.5-.5-1.1-1-1.6-1.4-.1-.1-.2-.2-.4-.3-.6-.4-1.1-.8-1.8-1.2-.1-.1-.2-.1-.3-.2-.6-.3-1.1-.7-1.7-1-.1-.1-.2-.1-.3-.2-.7-.3-1.3-.6-2-.9-.1-.1-.3-.1-.5-.2-.7-.3-1.4-.5-2.2-.7s-1.5-.4-2.2-.5c-.2 0-.3-.1-.5-.1-.7-.1-1.5-.2-2.2-.2h-2.8c-.7 0-1.4.1-2.1.2-.2 0-.3 0-.5.1-.7.1-1.4.2-2.1.4l-2.1.6c-.1 0-.3.1-.4.1-.7.2-1.3.5-2 .8-.1 0-.2.1-.3.2-.6.3-1.2.6-1.7.9-.1.1-.2.1-.3.2-.6.4-1.2.7-1.8 1.1-.1.1-.2.2-.4.3-.6.4-1.1.9-1.7 1.3 26.5-12.5 40.2 10.2 40.4 10.5z" class="st19"/><path d="M627 738.1c-.5.5-1 1-1.6 1.5.6-.5 1.1-1 1.6-1.5zm-2 1.9-1.5 1.2 1.5-1.2zm-17.9 5.9c-.7 0-1.3-.1-2-.2.7 0 1.3.1 2 .2zm-2.6-.3c-.7-.1-1.5-.3-2.2-.5.7.2 1.5.3 2.2.5zm5 .3h-2.2 2.2zm-7.2-.8c-.7-.2-1.5-.4-2.2-.7.7.2 1.4.5 2.2.7zm-2.8-.9c-.7-.3-1.4-.6-2-.9.7.3 1.4.6 2 .9zm17.1.5c-.6.2-1.1.3-1.7.5.6-.2 1.2-.4 1.7-.5zm-2.2.6c-.7.2-1.4.3-2.1.4.7-.1 1.4-.3 2.1-.4zm-2.5.4c-.6.1-1.2.1-1.8.2.6 0 1.2-.1 1.8-.2zM585.8 731c-.3-.6-.5-1.2-.7-1.8.2.6.4 1.2.7 1.8zm2.4 4.2c-.4-.5-.7-1.1-1.1-1.7.3.6.7 1.1 1.1 1.7zm-1.2-1.9c-.4-.6-.7-1.2-1-1.9.3.7.6 1.3 1 1.9zm32.1 10.4c-.6.3-1.3.6-2 .8.7-.2 1.3-.5 2-.8zm-34.6-16.4c.1.5.3 1.1.5 1.6-.2-.5-.3-1-.5-1.6 0 .1 0 0 0 0zm6.8 11.5c-.5-.5-1-1-1.4-1.5.4.6.9 1.1 1.4 1.5zm2 1.8c-.6-.4-1.1-.9-1.6-1.4.5.5 1 1 1.6 1.4zm-3.5-3.3c-.5-.5-.9-1.1-1.3-1.7.4.6.8 1.1 1.3 1.7zm7.7 6c-.7-.3-1.3-.7-1.9-1.1.6.4 1.2.7 1.9 1.1zm-2.4-1.4c-.6-.4-1.2-.8-1.7-1.2.6.4 1.1.8 1.7 1.2zm25.9.8c-.5.3-1 .6-1.6.8.6-.2 1.1-.5 1.6-.8zm2.3-1.4c-.6.4-1.2.8-1.8 1.1.6-.3 1.2-.7 1.8-1.1z" class="st20"/><path d="M584.6 727.4c.1.5.3 1 .4 1.5 0 .1.1.1.1.2.2.6.5 1.2.7 1.8.1.2.1.3.2.5.3.6.6 1.3 1 1.9 0 .1.1.1.1.2.3.6.7 1.1 1.1 1.7.1.1.2.3.3.4.4.6.9 1.1 1.3 1.7l.1.1c.4.5.9 1 1.4 1.5l.4.4c.5.5 1.1 1 1.6 1.4 0 0 .1 0 .1.1.5.4 1.1.8 1.7 1.2.2.1.3.2.5.3.6.4 1.3.8 1.9 1.1h.1c.6.3 1.3.6 2 .9.2.1.4.1.5.2.7.3 1.4.5 2.2.7.7.2 1.5.4 2.2.5.2 0 .4.1.6.1.7.1 1.3.2 2 .2h3.1c.6 0 1.2-.1 1.8-.2h.4c.7-.1 1.4-.2 2.1-.4.2 0 .3-.1.5-.1.6-.1 1.1-.3 1.7-.5.2-.1.3-.1.5-.2.7-.2 1.3-.5 2-.8.1-.1.3-.1.4-.2.5-.3 1.1-.5 1.6-.8.2-.1.3-.2.5-.3.6-.4 1.2-.7 1.8-1.1l.2-.2 1.5-1.2c.1-.1.3-.2.4-.4.5-.5 1.1-1 1.6-1.5-28.2 17.8-41.7-8.7-42.6-10.7z" class="st18"/><path d="M584.6 727.4c.1.5.3 1 .4 1.5 0 .1.1.1.1.2.2.6.5 1.2.7 1.8.1.2.1.3.2.5.3.6.6 1.3 1 1.9 0 .1.1.1.1.2.3.6.7 1.1 1.1 1.7.1.1.2.3.3.4.4.6.9 1.1 1.3 1.7l.1.1c.4.5.9 1 1.4 1.5l.4.4c.5.5 1.1 1 1.6 1.4 0 0 .1 0 .1.1.5.4 1.1.8 1.7 1.2.2.1.3.2.5.3.6.4 1.3.8 1.9 1.1h.1c.6.3 1.3.6 2 .9.2.1.4.1.5.2.7.3 1.4.5 2.2.7.7.2 1.5.4 2.2.5.2 0 .4.1.6.1.7.1 1.3.2 2 .2h3.1c.6 0 1.2-.1 1.8-.2h.4c.7-.1 1.4-.2 2.1-.4.2 0 .3-.1.5-.1.6-.1 1.1-.3 1.7-.5.2-.1.3-.1.5-.2.7-.2 1.3-.5 2-.8.1-.1.3-.1.4-.2.5-.3 1.1-.5 1.6-.8.2-.1.3-.2.5-.3.6-.4 1.2-.7 1.8-1.1l.2-.2 1.5-1.2c.1-.1.3-.2.4-.4.5-.5 1.1-1 1.6-1.5-28.2 17.8-41.7-8.7-42.6-10.7z" class="st20"/><path d="M695.8 417c.2-.1.3-.1.5-.2-.2.1-.4.2-.5.2zm22.1 54c-.1.1-.3.1-.4.2.2 0 .3-.1.4-.2zm7-4.6c-.2.1-.3.3-.5.4.2-.1.4-.2.5-.4zm-4.6 3.4-.6.3c.3-.1.5-.2.6-.3zm2.4-1.6c-.1.1-.2.1-.3.2.1 0 .2-.1.3-.2zm9.3-36c.1.2.1.3.2.5-.1-.1-.1-.3-.2-.5zm-1.3-2.5c.1.1.1.2.2.3-.1 0-.2-.1-.2-.3zm-18 43.2c-.2 0-.4.1-.6.1.2 0 .4 0 .6-.1zm-5.6.9h-.7.7zm-3.2 0h-.3.3zm11.3-1.6c-.2.1-.4.1-.6.2.2-.1.4-.2.6-.2zm-5.5 1.3c-.2 0-.3 0-.5.1.1 0 .3 0 .5-.1zm19.5-46c.1.1.2.2.2.4 0-.2-.1-.3-.2-.4zm-19.3-11.8c.2 0 .4.1.6.1-.2 0-.4-.1-.6-.1zm-5.7-.3h.4-.4zm-3 .3c.2 0 .4-.1.5-.1-.2 0-.3 0-.5.1zm0 57.8c-.2 0-.5-.1-.7-.1.3 0 .5.1.7.1zm5.7-58.1h.4-.4zm-13.8 2.7c.1-.1.2-.1.4-.2-.1.1-.2.2-.4.2zm-4.8 2.9c.1-.1.3-.2.4-.3-.1.1-.3.2-.4.3zm27.3-3.8c.2.1.4.1.5.2-.1-.1-.3-.2-.5-.2zm11.8 8c.1.1.2.3.3.4-.1-.2-.2-.3-.3-.4zm-4.1-3.8c.1.1.3.2.4.3-.1-.1-.3-.2-.4-.3zm2.3 2zm-4.7-3.7c.1.1.2.1.3.2-.1 0-.2-.1-.3-.2zm-2.4-1.3c.1.1.3.1.4.2-.2-.1-.3-.1-.4-.2zM679 457l-.3-.6c.2.2.2.4.3.6zm-1.1-2.7c0-.1-.1-.2-.1-.2.1 0 .1.1.1.2zm14.6 16.5c-.1-.1-.1-.1 0 0-.1-.1-.1-.1 0 0zm-1.7-51.5c.1-.1.2-.1.4-.2-.2.1-.3.2-.4.2zm-.6 50.2c-.2-.1-.4-.2-.5-.3.1 0 .3.1.5.3zm-4.6-3.5c-.2-.1-.3-.3-.5-.4.2.1.4.3.5.4zm-5.3-6.6c0-.1-.1-.1-.1-.2 0 0 0 .1.1.2z" class="st18"/><path d="M726.7 464.7c3.2-3.4 5.7-7.7 7-12.5 1.6-5.9 1.2-11.8-.6-17.2-.2-.3-16.2-26.7-46.8-12.5-4.3 3.7-7.5 8.6-9.1 14.5-1.4 5.2-1.3 10.4.1 15.3 1.2 2.3 16.8 33.1 49.4 12.4zm-39.1 3-.1-.1.1.1zm-5.7-5.9c-.1-.2-.2-.3-.4-.5.1.2.3.3.4.5z" class="st18"/><path d="m683.5 463.9-.1-.1c.1 0 .1 0 .1.1zm11.9 8.1c-.2-.1-.4-.2-.6-.2.2.1.4.1.6.2z" class="st18"/><path d="M688.7 420.7c.7-.5 1.4-.9 2.1-1.3-.7.3-1.4.8-2.1 1.3zm-2.4 1.8c.6-.5 1.3-1.1 2-1.6-.7.6-1.3 1.1-2 1.6zm26.8-6.2c.9.2 1.7.5 2.5.8-.8-.2-1.7-.5-2.5-.8zm-2.6-.5c.9.2 1.7.3 2.6.6-.9-.3-1.8-.5-2.6-.6zm-3.1-.4c.8.1 1.7.2 2.5.3-.8-.1-1.7-.2-2.5-.3zm-2.8 0h2.3c-.7 0-1.5-.1-2.3 0zm11.5 2c.8.3 1.6.7 2.3 1-.7-.4-1.5-.7-2.3-1zm-14.4-1.8c.8-.1 1.6-.2 2.5-.2-.8 0-1.7.1-2.5.2zm19.5 4.3c.7.4 1.4.9 2 1.4-.6-.4-1.3-.9-2-1.4zm-2.3-1.3c.7.4 1.4.7 2 1.1-.7-.4-1.3-.8-2-1.1zm8.8 7c.5.6 1 1.3 1.5 1.9-.5-.7-1-1.3-1.5-1.9zm-2-2.2c.6.6 1.2 1.2 1.7 1.8-.6-.6-1.1-1.2-1.7-1.8zm7.4 11.6c-.3-.8-.6-1.5-.9-2.3.3.8.7 1.5.9 2.3zm-2.2-4.9c.4.7.8 1.4 1.1 2.2-.3-.8-.7-1.5-1.1-2.2zm-1.4-2.2zm-5.8-6.2c.7.5 1.3 1.1 1.9 1.6-.6-.5-1.2-1.1-1.9-1.6zm-32.6-2.6c.7-.4 1.3-.7 2-1-.6.3-1.3.7-2 1zm7.6-3c.8-.2 1.6-.3 2.5-.5-.9.2-1.7.4-2.5.5zm-5.2 1.8c.7-.3 1.5-.6 2.3-.9-.8.3-1.6.6-2.3.9zm2.8-1c.8-.3 1.6-.5 2.4-.7-.8.1-1.6.4-2.4.7z" class="st19"/><path d="M733.1 435c-.3-.8-.6-1.5-.9-2.3-.1-.2-.1-.3-.2-.5-.3-.7-.7-1.5-1.1-2.2-.1-.1-.1-.2-.2-.3-.4-.6-.8-1.3-1.2-1.9-.1-.1-.2-.2-.2-.4-.5-.7-1-1.3-1.5-1.9-.1-.1-.2-.3-.3-.4-.5-.6-1.1-1.2-1.7-1.8-.6-.6-1.3-1.1-1.9-1.6-.1-.1-.3-.2-.4-.3-.7-.5-1.3-1-2-1.4-.1-.1-.2-.1-.3-.2-.7-.4-1.3-.8-2-1.1-.1-.1-.3-.1-.4-.2-.8-.4-1.5-.7-2.3-1-.2-.1-.4-.1-.5-.2-.8-.3-1.7-.6-2.5-.8-.9-.2-1.7-.4-2.6-.6-.2 0-.4-.1-.6-.1-.8-.1-1.7-.2-2.5-.3h-3.1c-.8 0-1.7.1-2.5.2-.2 0-.4.1-.5.1-.8.1-1.7.3-2.5.5s-1.6.4-2.4.7c-.2.1-.3.1-.5.2-.8.3-1.5.6-2.3.9-.1.1-.2.1-.4.2-.7.3-1.3.7-2 1-.1.1-.2.1-.4.2-.7.4-1.4.9-2.1 1.3-.1.1-.3.2-.4.3-.7.5-1.3 1-2 1.6 30.2-14.4 46.2 12 46.4 12.3z" class="st18"/><path d="M733.1 435c-.3-.8-.6-1.5-.9-2.3-.1-.2-.1-.3-.2-.5-.3-.7-.7-1.5-1.1-2.2-.1-.1-.1-.2-.2-.3-.4-.6-.8-1.3-1.2-1.9-.1-.1-.2-.2-.2-.4-.5-.7-1-1.3-1.5-1.9-.1-.1-.2-.3-.3-.4-.5-.6-1.1-1.2-1.7-1.8-.6-.6-1.3-1.1-1.9-1.6-.1-.1-.3-.2-.4-.3-.7-.5-1.3-1-2-1.4-.1-.1-.2-.1-.3-.2-.7-.4-1.3-.8-2-1.1-.1-.1-.3-.1-.4-.2-.8-.4-1.5-.7-2.3-1-.2-.1-.4-.1-.5-.2-.8-.3-1.7-.6-2.5-.8-.9-.2-1.7-.4-2.6-.6-.2 0-.4-.1-.6-.1-.8-.1-1.7-.2-2.5-.3h-3.1c-.8 0-1.7.1-2.5.2-.2 0-.4.1-.5.1-.8.1-1.7.3-2.5.5s-1.6.4-2.4.7c-.2.1-.3.1-.5.2-.8.3-1.5.6-2.3.9-.1.1-.2.1-.4.2-.7.3-1.3.7-2 1-.1.1-.2.1-.4.2-.7.4-1.4.9-2.1 1.3-.1.1-.3.2-.4.3-.7.5-1.3 1-2 1.6 30.2-14.4 46.2 12 46.4 12.3z" class="st19"/><path d="M678.8 456.4c-.3-.7-.6-1.4-.8-2.1.2.7.5 1.4.8 2.1zm8.7 11.2c-.7-.5-1.3-1.1-1.9-1.6.6.6 1.3 1.1 1.9 1.6zm2.1 1.5c-.7-.4-1.3-.9-2-1.4.7.5 1.3 1 2 1.4zm-4.4-3.5c-.6-.5-1.1-1.1-1.6-1.7.5.6 1 1.1 1.6 1.7zm9.6 6.2c-.8-.3-1.6-.6-2.3-1 .7.3 1.5.7 2.3 1zm-2.4-1.1zm-12.2-11.5c-.4-.7-.8-1.5-1.1-2.2.3.7.7 1.4 1.1 2.2zm-2.9-7c.2.6.4 1.3.6 1.9-.2-.6-.3-1.2-.5-1.7l-.1-.2zm6.1 11.5c-.5-.6-1-1.3-1.5-2 .5.8 1 1.4 1.5 2zm43.3 1c-.6.6-1.2 1.2-1.8 1.7.6-.5 1.3-1.1 1.8-1.7zm-45.2-3.4c-.4-.6-.9-1.3-1.2-1.9.4.6.8 1.3 1.2 1.9zm16.4 11.5c-.9-.2-1.7-.5-2.5-.8.8.3 1.7.6 2.5.8zm19.6-1.6c-.8.3-1.5.6-2.3.9.8-.2 1.6-.5 2.3-.9zm2.3-1.1c-.6.3-1.2.7-1.8 1 .6-.4 1.2-.7 1.8-1zm4.6-3.2c-.6.5-1.1.9-1.7 1.4.6-.5 1.2-1 1.7-1.4zm-9.7 5.4c-.6.2-1.3.4-2 .6.6-.2 1.3-.3 2-.6zm7.7-3.9c-.7.5-1.4.9-2.1 1.3.8-.4 1.5-.8 2.1-1.3zm-13.2 5.2c-.7.1-1.4.2-2.1.2.7-.1 1.4-.1 2.1-.2zm2.9-.5c-.8.2-1.6.3-2.5.5.9-.2 1.7-.3 2.5-.5zm-5.7.7h-2.6 2.6zm-2.9 0c-.8-.1-1.5-.1-2.3-.3.8.1 1.6.2 2.3.3zm-3-.4c-.9-.2-1.7-.3-2.6-.6.9.3 1.8.4 2.6.6z" class="st20"/><path d="M677.3 452.3c.2.6.3 1.2.5 1.7 0 .1.1.2.1.2.3.7.5 1.4.8 2.1l.3.6c.4.7.7 1.5 1.1 2.2 0 .1.1.1.1.2.4.7.8 1.3 1.2 1.9.1.2.2.3.4.5.5.7 1 1.3 1.5 2l.1.1c.5.6 1.1 1.1 1.6 1.7.2.1.3.3.5.4.6.6 1.2 1.1 1.9 1.6l.1.1c.6.5 1.3 1 2 1.4.2.1.4.2.5.3.7.4 1.5.9 2.2 1.3h.1c.8.4 1.5.7 2.3 1 .2.1.4.2.6.2.8.3 1.7.6 2.5.8.9.2 1.7.4 2.6.6.2 0 .5.1.7.1.8.1 1.5.2 2.3.3h.3c.9 0 1.7.1 2.6 0h.7c.7 0 1.4-.1 2.1-.2.2 0 .3 0 .5-.1.8-.1 1.6-.3 2.5-.5.2 0 .4-.1.6-.1.7-.2 1.3-.4 2-.6.2-.1.4-.1.6-.2.8-.3 1.5-.6 2.3-.9.1-.1.3-.1.4-.2.6-.3 1.2-.6 1.8-1l.6-.3c.7-.4 1.4-.9 2.1-1.3.1-.1.2-.1.3-.2.6-.4 1.2-.9 1.7-1.4.2-.1.3-.3.5-.4.6-.6 1.2-1.1 1.8-1.7-32.6 20.9-48.2-9.9-49.4-12.2z" class="st18"/><path d="M677.3 452.3c.2.6.3 1.2.5 1.7 0 .1.1.2.1.2.3.7.5 1.4.8 2.1l.3.6c.4.7.7 1.5 1.1 2.2 0 .1.1.1.1.2.4.7.8 1.3 1.2 1.9.1.2.2.3.4.5.5.7 1 1.3 1.5 2l.1.1c.5.6 1.1 1.1 1.6 1.7.2.1.3.3.5.4.6.6 1.2 1.1 1.9 1.6l.1.1c.6.5 1.3 1 2 1.4.2.1.4.2.5.3.7.4 1.5.9 2.2 1.3h.1c.8.4 1.5.7 2.3 1 .2.1.4.2.6.2.8.3 1.7.6 2.5.8.9.2 1.7.4 2.6.6.2 0 .5.1.7.1.8.1 1.5.2 2.3.3h.3c.9 0 1.7.1 2.6 0h.7c.7 0 1.4-.1 2.1-.2.2 0 .3 0 .5-.1.8-.1 1.6-.3 2.5-.5.2 0 .4-.1.6-.1.7-.2 1.3-.4 2-.6.2-.1.4-.1.6-.2.8-.3 1.5-.6 2.3-.9.1-.1.3-.1.4-.2.6-.3 1.2-.6 1.8-1l.6-.3c.7-.4 1.4-.9 2.1-1.3.1-.1.2-.1.3-.2.6-.4 1.2-.9 1.7-1.4.2-.1.3-.3.5-.4.6-.6 1.2-1.1 1.8-1.7-32.6 20.9-48.2-9.9-49.4-12.2z" class="st20"/><path d="M609.9 844.1c-.4.2-.8.5-1.3.7.5-.2.9-.5 1.3-.7zm1.2-.9-.9.6c.3-.1.6-.3.9-.6zm1-18.4c.3.3.6.6.9 1-.3-.4-.6-.7-.9-1zm-1.1-.9c.3.3.7.5 1 .8-.3-.2-.6-.5-1-.8zm-15.3.5c.3-.3.7-.6 1.1-.8-.4.3-.8.6-1.1.8zm6.3 21.3-1.5-.3 1.5.3zm-1.5-.3c-.5-.1-1-.3-1.4-.5.5.2.9.4 1.4.5zm-7.4-5.8-.6-1.2.6 1.2zm10.5 6.2c-.4 0-.8 0-1.2-.1.5.1.8.1 1.2.1zm10.4-18.6c.2.3.3.5.5.8-.2-.2-.3-.5-.5-.8zm-20.1 13.7c-.3-.4-.5-.8-.8-1.2.3.4.5.8.8 1.2zm13 4.5-1.2.3 1.2-.3zm-1.4.3c-.5.1-1 .1-1.5.1.5 0 1 0 1.5-.1zm7.7-19.6c.2.2.4.5.6.8-.2-.3-.4-.6-.6-.8zm-.7 15.9c-.3.4-.7.7-1.1 1 .4-.3.8-.6 1.1-1z" class="st18"/><path d="M591.9 830.5c-.6 2.2-.5 4.3 0 6.4.5 1 7 13.8 20.6 5.2 1.4-1.4 2.4-3.2 2.9-5.2.7-2.4.5-4.9-.3-7.1-.1-.1-6.8-11.1-19.5-5.2-1.7 1.4-3 3.5-3.7 5.9zm16.5 14.3zm.2-22.3c.3.1.6.3.9.4-.3-.1-.6-.3-.9-.4zm-9-.3zm10.3 1c.3.2.5.3.8.5-.3-.2-.5-.4-.8-.5zm4.8 5.2c.2.4.3.8.5 1.1-.2-.3-.3-.7-.5-1.1z" class="st18"/><path d="M592.4 838c-.1-.3-.2-.7-.3-1 0 .4.1.7.3 1zm4.7-14.6c.3-.2.5-.3.8-.5-.3.2-.5.3-.8.5zm1.2-.7c.3-.1.6-.3.9-.4-.3.2-.6.3-.9.4zm7.1-1.1c.5.1.9.2 1.4.3-.4-.1-.9-.2-1.4-.3zm-8 22.4c-.4-.2-.8-.5-1.2-.8.4.3.8.6 1.2.8zm9.4-22.1c.5.1.9.3 1.3.5-.3-.2-.8-.4-1.3-.5zm-8.1 22.8c-.3-.1-.7-.3-1-.5.4.2.7.4 1 .5zm5.3-23.2c.3 0 .6 0 1 .1-.3-.1-.6-.1-1-.1zm-7.9 21.7c-.4-.3-.7-.6-1-.9.4.3.7.6 1 .9zm6.5-21.7h1-1zm-7.8 20.5c-.2-.3-.5-.5-.7-.8.3.3.5.5.7.8z" class="st18"/><path d="M603.6 821.5h.5-.5zm7.1 2.2c.1.1.2.2.4.2-.2-.1-.3-.1-.4-.2zm2.3 2.1.3.3c-.2-.1-.2-.2-.3-.3zm.8 1.1c.1.1.2.3.3.4-.1-.2-.2-.3-.3-.4zm-4.3-4c.1.1.3.2.4.2-.2 0-.3-.1-.4-.2zm-13.8 1.6v-.1zm3.5-2.2c.1-.1.3-.1.4-.2-.2.1-.3.2-.4.2zm3-.7h.4c-.1-.1-.3-.1-.4 0zm-5.4 2c.1-.1.2-.2.4-.2-.2.1-.3.2-.4.2zm15.2 1.2zm-7-3.3h.4c-.1.1-.2.1-.4 0zm-7.1 1.4c.1-.1.3-.1.4-.2-.1.1-.2.2-.4.2zm10.3-.6c.1.1.3.1.4.2-.1-.1-.3-.1-.4-.2zm7 7.3zm-.7-1.6c.1.1.1.3.2.4-.1-.1-.1-.2-.2-.4z" class="st19"/><path d="M615.2 829.6c-.2-.5-.3-.8-.5-1.2-.1-.1-.1-.3-.2-.4-.1-.3-.3-.5-.5-.8-.1-.1-.2-.3-.3-.4-.2-.3-.4-.5-.6-.8l-.3-.3c-.3-.3-.6-.7-.9-1-.3-.3-.6-.6-1-.8-.1-.1-.2-.2-.4-.2-.3-.2-.5-.4-.8-.5-.1-.1-.3-.2-.4-.2-.3-.2-.6-.3-.9-.4-.1-.1-.3-.1-.4-.2-.4-.2-.9-.3-1.3-.5-.5-.1-.9-.2-1.4-.3h-.4c-.3 0-.6-.1-1-.1H602c-.9.1-1.8.3-2.6.6-.1 0-.3.1-.4.2-.3.1-.6.2-.9.4-.1.1-.3.1-.4.2-.3.1-.5.3-.8.5-.1.1-.2.1-.4.2-.4.3-.7.5-1.1.8 13-5.9 19.7 5.1 19.8 5.2z" class="st18"/><path d="M615.2 829.6c-.2-.5-.3-.8-.5-1.2-.1-.1-.1-.3-.2-.4-.1-.3-.3-.5-.5-.8-.1-.1-.2-.3-.3-.4-.2-.3-.4-.5-.6-.8l-.3-.3c-.3-.3-.6-.7-.9-1-.3-.3-.6-.6-1-.8-.1-.1-.2-.2-.4-.2-.3-.2-.5-.4-.8-.5-.1-.1-.3-.2-.4-.2-.3-.2-.6-.3-.9-.4-.1-.1-.3-.1-.4-.2-.4-.2-.9-.3-1.3-.5-.5-.1-.9-.2-1.4-.3h-.4c-.3 0-.6-.1-1-.1H602c-.9.1-1.8.3-2.6.6-.1 0-.3.1-.4.2-.3.1-.6.2-.9.4-.1.1-.3.1-.4.2-.3.1-.5.3-.8.5-.1.1-.2.1-.4.2-.4.3-.7.5-1.1.8 13-5.9 19.7 5.1 19.8 5.2z" class="st19"/><path d="M597.7 844.3c-.1-.1-.2-.1-.4-.2.2 0 .3.1.4.2zm9.6 1c-.1 0-.3.1-.4.1.1-.1.3-.1.4-.1zm-12.2-3-.3-.3.3.3zm-.9-1.1c-.1-.1-.2-.2-.2-.3 0 .1.1.2.2.3zm-1.7-2.8c-.1-.1-.1-.3-.2-.4.1.2.2.3.2.4zm3.7 4.8zm14 .7c-.1.1-.2.1-.3.2.1-.1.2-.1.3-.2zm-7.7 1.8h-.4.4zm9-2.7-.3.3.3-.3zm-18.4-3.3s0-.1 0 0c0-.1 0 0 0 0zm10.9 6.1h-.4.4zm1.7-.2h-.3c.1.1.2 0 .3 0zm-6.6-.7c-.1-.1-.3-.1-.4-.2.2.1.3.2.4.2zm9.6-.2c-.1 0-.2.1-.2.1s.1 0 .2-.1zm-16.8-7.9c0 .1.1.2.1.2s0-.1-.1-.2z" class="st20"/><path d="M592 836.9c0 .1 0 .1.1.2.1.3.2.7.3 1 .1.1.1.3.2.4l.6 1.2s0 .1.1.1c.2.4.5.8.8 1.2.1.1.2.2.2.3.2.3.4.5.7.8l.3.3c.3.3.7.6 1 .9h.1c.4.3.8.6 1.2.8.1.1.2.1.4.2.3.2.6.3 1 .5.1.1.3.1.4.2.5.2.9.4 1.4.5l1.5.3h.4c.4 0 .8.1 1.2.1h.4c.5 0 1-.1 1.5-.1h.3l1.2-.3c.1 0 .3-.1.4-.1.4-.1.8-.3 1.1-.4.1 0 .2-.1.2-.1.4-.2.9-.4 1.3-.7.1-.1.2-.1.3-.2l.9-.6.3-.3c.4-.3.7-.6 1.1-1-13.9 8.5-20.5-4.3-20.9-5.2z" class="st18"/><path d="M592 836.9c0 .1 0 .1.1.2.1.3.2.7.3 1 .1.1.1.3.2.4l.6 1.2s0 .1.1.1c.2.4.5.8.8 1.2.1.1.2.2.2.3.2.3.4.5.7.8l.3.3c.3.3.7.6 1 .9h.1c.4.3.8.6 1.2.8.1.1.2.1.4.2.3.2.6.3 1 .5.1.1.3.1.4.2.5.2.9.4 1.4.5l1.5.3h.4c.4 0 .8.1 1.2.1h.4c.5 0 1-.1 1.5-.1h.3l1.2-.3c.1 0 .3-.1.4-.1.4-.1.8-.3 1.1-.4.1 0 .2-.1.2-.1.4-.2.9-.4 1.3-.7.1-.1.2-.1.3-.2l.9-.6.3-.3c.4-.3.7-.6 1.1-1-13.9 8.5-20.5-4.3-20.9-5.2z" class="st20"/><path d="m789.9 598.6-1.2.3 1.2-.3zm1.5-.5c-.4.2-.7.3-1.1.4.4-.1.8-.2 1.1-.4zm-4.8 1c-.4 0-.8 0-1.2-.1.5 0 .8.1 1.2.1zm-3.1-.4c-.5-.1-1-.3-1.4-.5.5.2 1 .3 1.4.5zm5 .2c-.5.1-1 .1-1.5.1.5.1 1 0 1.5-.1zm-3.4.1-1.5-.3c.4.1.9.2 1.5.3zm7.8-1.7c-.4.2-.8.5-1.3.7.5-.2.9-.4 1.3-.7zm1.3-.8-.9.6.9-.6zm-16.3-1.3c-.2-.3-.5-.5-.7-.8.2.3.4.6.7.8zm-1.8-2.4-.6-1.2c.2.5.4.9.6 1.2zm6.5-17.4c.4-.2.8-.3 1.3-.4-.5.2-.9.3-1.3.4zm-5.7 18.7c-.3-.4-.5-.8-.8-1.2.3.5.5.9.8 1.2zm8.7-19.3h1c-.4-.1-.7 0-1 0zm-3.9 23.2c-.3-.1-.7-.3-1-.5.4.2.7.3 1 .5zm-6.3-6.7c-.1-.3-.2-.7-.3-1 0 .3.1.7.3 1zm3.3-13.6c.3-.3.7-.6 1.1-.8-.4.2-.7.5-1.1.8zm1.4-1c.3-.2.5-.3.8-.5-.3.1-.5.3-.8.5zm7-2c.3 0 .6 0 1 .1-.4 0-.7-.1-1-.1zm-5.8 1.3c.3-.1.6-.3.9-.4-.3.1-.6.2-.9.4z" class="st18"/><path d="M795.5 595.3c1.4-1.4 2.4-3.2 2.9-5.2.7-2.4.5-4.9-.3-7.1-.1-.1-6.8-11.1-19.5-5.2-1.8 1.5-3.1 3.6-3.8 6-.6 2.2-.5 4.3 0 6.4.6.9 7.2 13.7 20.7 5.1z" class="st18"/><path d="M783.9 575.1c.4-.1.9-.2 1.3-.2-.5 0-.9.1-1.3.2zm13.8 6.6c.2.4.3.8.5 1.1-.2-.4-.3-.7-.5-1.1zm-.7-1.2c.2.3.3.5.5.8-.1-.3-.3-.5-.5-.8zm-.8-1.1c.2.2.4.5.6.8-.2-.3-.4-.6-.6-.8zm-.7 15.9c-.3.4-.7.7-1.1 1 .4-.4.8-.7 1.1-1zm-7-20.4c.5.1.9.2 1.4.3-.5-.2-1-.3-1.4-.3zm-9.3 21.5c-.4-.3-.7-.6-1-.9.3.4.6.7 1 .9zm1.2.9c-.4-.2-.8-.5-1.2-.8.4.3.8.6 1.2.8zm11.2-21.5c.3.1.6.3.9.4-.3-.2-.6-.3-.9-.4zm3.5 2.3c.3.3.6.6.9 1-.3-.4-.6-.7-.9-1zm-5.3-3c.5.1.9.3 1.3.5-.3-.2-.8-.3-1.3-.5zm3.1 1.3c.3.2.5.3.8.5-.3-.1-.5-.3-.8-.5zm1.1.8c.3.3.7.5 1 .8-.3-.3-.6-.6-1-.8z" class="st18"/><path d="M778.7 577.7zm6.5-2.9h.4-.4zM796 579l.3.3-.3-.3zm-4.8-3.4c.1.1.3.1.4.2-.1-.1-.3-.2-.4-.2zm6.3 5.7c.1.1.1.3.2.4-.1-.1-.1-.3-.2-.4zm-.7-1.2c.1.1.2.3.3.4-.1-.1-.2-.3-.3-.4zm-4.3-3.9c.1.1.3.2.4.2-.1-.1-.3-.1-.4-.2zm2.5 1.8s.1 0 0 0c.1 0 0 0 0 0zm-14.1-1.8c.1-.1.3-.1.4-.2-.1 0-.2.1-.4.2zm-1.1.7c.1-.1.2-.2.4-.2-.2 0-.3.1-.4.2zm2.4-1.3c.1-.1.3-.1.4-.2-.2.1-.3.2-.4.2zm11.5 1.3c.1.1.2.2.4.2-.2 0-.3-.1-.4-.2zm-5.7-2.1h.4-.4zm-1.4-.1h.5-.5zm11.6 8.2z" class="st19"/><path d="M798.2 582.9c-.2-.5-.3-.8-.5-1.2-.1-.1-.1-.3-.2-.4-.1-.3-.3-.5-.5-.8-.1-.1-.2-.3-.3-.4-.2-.3-.4-.5-.6-.8l-.3-.3c-.3-.3-.6-.7-.9-1-.3-.3-.6-.6-1-.8-.1-.1-.2-.2-.4-.2-.3-.2-.5-.4-.8-.5-.1-.1-.3-.2-.4-.2-.3-.2-.6-.3-.9-.4-.1-.1-.3-.1-.4-.2-.4-.2-.9-.3-1.3-.5-.5-.1-.9-.2-1.4-.3h-.4c-.3 0-.6-.1-1-.1H785c-.4.1-.9.1-1.3.2s-.9.2-1.3.4c-.1 0-.3.1-.4.2-.3.1-.6.2-.9.4-.1.1-.3.1-.4.2-.3.1-.5.3-.8.5-.1.1-.2.1-.4.2-.4.3-.7.5-1.1.8 13-5.9 19.7 5.1 19.8 5.2z" class="st18"/><path d="M798.2 582.9c-.2-.5-.3-.8-.5-1.2-.1-.1-.1-.3-.2-.4-.1-.3-.3-.5-.5-.8-.1-.1-.2-.3-.3-.4-.2-.3-.4-.5-.6-.8l-.3-.3c-.3-.3-.6-.7-.9-1-.3-.3-.6-.6-1-.8-.1-.1-.2-.2-.4-.2-.3-.2-.5-.4-.8-.5-.1-.1-.3-.2-.4-.2-.3-.2-.6-.3-.9-.4-.1-.1-.3-.1-.4-.2-.4-.2-.9-.3-1.3-.5-.5-.1-.9-.2-1.4-.3h-.4c-.3 0-.6-.1-1-.1H785c-.4.1-.9.1-1.3.2s-.9.2-1.3.4c-.1 0-.3.1-.4.2-.3.1-.6.2-.9.4-.1.1-.3.1-.4.2-.3.1-.5.3-.8.5-.1.1-.2.1-.4.2-.4.3-.7.5-1.1.8 13-5.9 19.7 5.1 19.8 5.2z" class="st19"/><path d="M777.2 594.4c-.1-.1-.2-.2-.2-.3 0 .1.1.2.2.3zm8.3 4.6h-.4.4zm-6.3-2.5zm2.9 1.7c-.1-.1-.3-.1-.4-.2.2.1.3.1.4.2zm-1.3-.7c-.1-.1-.2-.1-.4-.2.1.1.2.1.4.2zm-5.8-7.2c0-.1 0-.1-.1-.2v-.1c.1.1.1.2.1.3zm.5 1.4c-.1-.1-.1-.3-.2-.4.1.1.2.3.2.4zm.6 1.3s0-.1 0 0c0-.1 0-.1 0 0zm17.1 4.1c-.1.1-.2.1-.3.2.1 0 .2-.1.3-.2zm-1.5.9c-.1 0-.2.1-.2.1s.1-.1.2-.1zm2.8-1.7-.3.3c.1-.2.2-.3.3-.3zm-7.5 2.8h-.4.4zm1.7-.2h-.3.3zm1.6-.4c-.1 0-.3.1-.4.1.1 0 .3 0 .4-.1zm-12.2-3-.3-.3.3.3z" class="st20"/><path d="M775.4 591.3c.1.1.1.3.2.4l.6 1.2s0 .1.1.1c.2.4.5.8.8 1.2.1.1.2.2.2.3.2.3.4.5.7.8l.3.3c.3.3.7.6 1 .9h.1c.4.3.8.6 1.2.8.1.1.2.1.4.2.3.2.6.3 1 .5.1.1.3.1.4.2.5.2.9.4 1.4.5l1.5.3h.4c.4 0 .8.1 1.2.1h.4c.5 0 1-.1 1.5-.1h.3l1.2-.3c.1 0 .3-.1.4-.1.4-.1.8-.3 1.1-.4.1 0 .2-.1.2-.1.4-.2.9-.4 1.3-.7.1-.1.2-.1.3-.2l.9-.6.3-.3c.4-.3.7-.6 1.1-1-13.6 8.6-20.1-4.2-20.6-5.2 0 .1 0 .1.1.2-.3.3-.2.7 0 1z" class="st18"/><path d="M775.4 591.3c.1.1.1.3.2.4l.6 1.2s0 .1.1.1c.2.4.5.8.8 1.2.1.1.2.2.2.3.2.3.4.5.7.8l.3.3c.3.3.7.6 1 .9h.1c.4.3.8.6 1.2.8.1.1.2.1.4.2.3.2.6.3 1 .5.1.1.3.1.4.2.5.2.9.4 1.4.5l1.5.3h.4c.4 0 .8.1 1.2.1h.4c.5 0 1-.1 1.5-.1h.3l1.2-.3c.1 0 .3-.1.4-.1.4-.1.8-.3 1.1-.4.1 0 .2-.1.2-.1.4-.2.9-.4 1.3-.7.1-.1.2-.1.3-.2l.9-.6.3-.3c.4-.3.7-.6 1.1-1-13.6 8.6-20.1-4.2-20.6-5.2 0 .1 0 .1.1.2-.3.3-.2.7 0 1z" class="st20"/><path d="M256.2 664.2zm-3-.5c.3 0 .7 0 1 .1-.3 0-.7-.1-1-.1zm-11.7 19.4-.6-1.2.6 1.2zm18 4.8c-.4.3-.9.5-1.4.7.5-.2.9-.5 1.4-.7zm-12 .7c-.4-.2-.7-.3-1-.5.3.1.7.3 1 .5zm10.4.1c-.4.2-.8.3-1.2.4.4-.1.8-.3 1.2-.4zm-6.2-24.9c.3 0 .7 0 1-.1-.4 0-.7.1-1 .1zm6.3 1c.3.1.6.3.9.5-.2-.2-.5-.3-.9-.5zm-12.2 1c.3-.2.6-.4.9-.5-.3.1-.6.3-.9.5zm-1.5 1.1c.4-.3.7-.6 1.1-.9-.4.3-.7.6-1.1.9zm18 18.8c-.4.4-.7.7-1.1 1 .3-.3.7-.7 1.1-1zm-2.9-20.2.9.6-.9-.6zm-12.3-.4c.3-.1.6-.3.9-.4-.3.1-.6.2-.9.4zm2.7-1c.5-.1.9-.2 1.4-.3-.5.1-.9.2-1.4.3zm-9.1 17.3c-.1-.4-.3-.7-.4-1.1.2.4.3.8.4 1.1zm20.1 5.6c-.3.2-.6.5-1 .7.3-.3.7-.5 1-.7zm-12.4-22.5c.4-.2.9-.3 1.4-.4-.5.1-.9.2-1.4.4zm6.3-.6 1.5.3c-.5-.2-1-.3-1.5-.3zm0 25.7c-.5.1-1 .1-1.6.1.6 0 1.1-.1 1.6-.1zm-5.2-.3c-.5-.1-1-.3-1.5-.5.4.1.9.3 1.5.5zm13.5-20.6c.2.3.4.5.6.8-.2-.3-.4-.6-.6-.8zm-11.9 20.9c-.5-.1-1.1-.2-1.6-.3.5.1 1 .2 1.6.3zm12.8-19.7c.2.3.3.6.5.9-.2-.3-.4-.6-.5-.9zm.7 1.3c.2.4.4.8.5 1.2-.2-.4-.4-.9-.5-1.2zm-11.9 18.5c-.4 0-.8 0-1.2-.1.4.1.8.1 1.2.1zm-6.6-1.9c-.4-.3-.9-.5-1.3-.9.4.4.8.7 1.3.9z" class="st18"/><path d="M244.3 666.9c-1.9 1.6-3.3 3.8-4 6.4-.6 2.3-.6 4.6 0 6.8.5 1 7.5 14.7 22 5.5 1.4-1.5 2.5-3.4 3.1-5.6.7-2.6.6-5.3-.3-7.6-.1-.1-7.2-11.8-20.8-5.5z" class="st18"/><path d="m261.8 667.3 1 1c-.4-.3-.7-.7-1-1zm-5.6 21.9c-.4.1-.8.2-1.3.3.5-.1.9-.1 1.3-.3zm4.5-22.8c.4.3.7.6 1.1.9-.4-.4-.8-.7-1.1-.9zm-18.3 18c-.3-.4-.6-.8-.8-1.3.2.5.5.9.8 1.3zm1 1.2c-.3-.3-.5-.6-.7-.9.2.4.4.6.7.9zm1.4 1.3c-.4-.3-.7-.6-1.1-1 .3.4.7.7 1.1 1z" class="st18"/><path d="M245.4 666c.1-.1.2-.2.4-.2-.1.1-.3.2-.4.2zm13.6-.7c.2.1.3.2.4.3-.1-.1-.3-.2-.4-.3zm-4.8-1.5c.2 0 .3 0 .5.1-.2-.1-.3-.1-.5-.1zm3.4.8c.1.1.3.1.4.2-.1 0-.2-.1-.4-.2zm-4.9-.9h.5-.5zm9 3.5s0 .1 0 0c0 .1 0 0 0 0zm-1.4-1.1c.1.1.3.2.4.3-.2-.1-.3-.2-.4-.3zm-9.1-2.3h.4-.4zm-4.5 1.5c.1-.1.3-.2.4-.2-.2 0-.3.1-.4.2zm17.6 5.4c.1.1.1.3.2.4 0-.1-.1-.2-.2-.4zm-16.3-6c.1-.1.3-.1.4-.2-.1 0-.3.1-.4.2zm17.1 7.7c0 .1 0 .1 0 0zm-2.4-4.1.3.3c-.1 0-.2-.2-.3-.3zm.9 1.2c.1.1.2.3.3.4-.1-.2-.2-.3-.3-.4z" class="st19"/><path d="M264.6 671.2c-.1-.1-.1-.3-.2-.4-.2-.3-.3-.6-.5-.9-.1-.1-.2-.3-.3-.4-.2-.3-.4-.5-.6-.8l-.3-.3c-.3-.4-.6-.7-1-1-.3-.3-.7-.6-1.1-.9-.1-.1-.2-.2-.4-.3l-.9-.6c-.1-.1-.3-.2-.4-.3-.3-.2-.6-.3-.9-.5-.1-.1-.3-.1-.4-.2-.5-.2-.9-.4-1.4-.5l-1.5-.3c-.2 0-.3 0-.5-.1-.3 0-.7-.1-1-.1h-.5c-.3 0-.7 0-1 .1h-.4c-.5.1-1 .1-1.4.3-.5.1-.9.3-1.4.4-.1.1-.3.1-.4.2-.3.1-.6.3-.9.4-.1.1-.3.1-.4.2-.3.2-.6.3-.9.5-.1.1-.3.2-.4.2-.4.3-.8.6-1.1.9 13.6-6.3 20.7 5.4 20.8 5.5v-.1c-.3-.2-.5-.7-.6-1z" class="st18"/><path d="M264.6 671.2c-.1-.1-.1-.3-.2-.4-.2-.3-.3-.6-.5-.9-.1-.1-.2-.3-.3-.4-.2-.3-.4-.5-.6-.8l-.3-.3c-.3-.4-.6-.7-1-1-.3-.3-.7-.6-1.1-.9-.1-.1-.2-.2-.4-.3l-.9-.6c-.1-.1-.3-.2-.4-.3-.3-.2-.6-.3-.9-.5-.1-.1-.3-.1-.4-.2-.5-.2-.9-.4-1.4-.5l-1.5-.3c-.2 0-.3 0-.5-.1-.3 0-.7-.1-1-.1h-.5c-.3 0-.7 0-1 .1h-.4c-.5.1-1 .1-1.4.3-.5.1-.9.3-1.4.4-.1.1-.3.1-.4.2-.3.1-.6.3-.9.4-.1.1-.3.1-.4.2-.3.2-.6.3-.9.5-.1.1-.3.2-.4.2-.4.3-.8.6-1.1.9 13.6-6.3 20.7 5.4 20.8 5.5v-.1c-.3-.2-.5-.7-.6-1z" class="st19"/><path d="M247.9 688.7c-.1-.1-.3-.1-.4-.2.2.1.3.2.4.2zm-5.3-3.9-.3-.3c.2.1.3.2.3.3zm14.1 4.3c-.1 0-.3.1-.4.1.1 0 .2 0 .4-.1zm-15.1-5.9s0-.1-.1-.1l.1.1zm9.9 6.4c-.2 0-.3 0-.5-.1.2.1.4.1.5.1zm6.6-1c-.1 0-.2.1-.3.1.1-.1.2-.1.3-.1zm-5 1.1h-.4.4zm-9.4-3.8-.3-.3.3.3zm11.3 3.6c-.1 0-.2 0-.3.1.1 0 .2-.1.3-.1zm-14.7-9.4c0 .1.1.2.1.3-.1-.1-.1-.2-.1-.3zm.6 1.7c-.1-.1-.1-.3-.2-.4.1.2.1.3.2.4zm20.2 4.9-.3.3.3-.3zm-14.6 1.3c-.1-.1-.3-.1-.4-.2.1.1.2.2.4.2zm15.8-2.3zm-17.5 1.3c0-.1 0-.1 0 0 0-.1 0-.1 0 0zm15 .7c-.1.1-.2.1-.3.2.1-.1.2-.2.3-.2z" class="st20"/><path d="M240.3 680.1c0 .1 0 .1.1.2.1.4.2.7.4 1.1.1.1.1.3.2.4l.6 1.2s0 .1.1.1c.2.4.5.8.8 1.3l.3.3c.2.3.5.6.7.9l.3.3c.3.3.7.7 1.1 1l.1.1c.4.3.8.6 1.3.9.1.1.3.1.4.2.3.2.7.4 1 .5.1.1.3.1.4.2.5.2 1 .4 1.5.5s1.1.2 1.6.3c.2 0 .3 0 .5.1.4 0 .8.1 1.2.1h.4c.5 0 1-.1 1.6-.1.1 0 .2 0 .3-.1.4-.1.8-.2 1.3-.3.1 0 .3-.1.4-.1.4-.1.8-.3 1.2-.4.1 0 .2-.1.3-.1.5-.2.9-.4 1.4-.7.1-.1.2-.1.3-.2.3-.2.7-.4 1-.7l.3-.3c.4-.3.8-.7 1.1-1-14.7 9.1-21.7-4.6-22.2-5.7z" class="st18"/><path d="M240.3 680.1c0 .1 0 .1.1.2.1.4.2.7.4 1.1.1.1.1.3.2.4l.6 1.2s0 .1.1.1c.2.4.5.8.8 1.3l.3.3c.2.3.5.6.7.9l.3.3c.3.3.7.7 1.1 1l.1.1c.4.3.8.6 1.3.9.1.1.3.1.4.2.3.2.7.4 1 .5.1.1.3.1.4.2.5.2 1 .4 1.5.5s1.1.2 1.6.3c.2 0 .3 0 .5.1.4 0 .8.1 1.2.1h.4c.5 0 1-.1 1.6-.1.1 0 .2 0 .3-.1.4-.1.8-.2 1.3-.3.1 0 .3-.1.4-.1.4-.1.8-.3 1.2-.4.1 0 .2-.1.3-.1.5-.2.9-.4 1.4-.7.1-.1.2-.1.3-.2.3-.2.7-.4 1-.7l.3-.3c.4-.3.8-.7 1.1-1-14.7 9.1-21.7-4.6-22.2-5.7z" class="st20"/><path d="m144.5 743.6 1.2 1.5-1.2-1.5zm-11.3-10.3c.6.4 1.1.8 1.7 1.1-.6-.4-1.2-.7-1.7-1.1zm-50.6-.4c.5 1 1 2.1 1.5 3.1 14.4 28.8 31.6 55.2 51.1 79.2 2.2-1.2 4.5-2.5 6.8-4 5.7-6 10-13.5 12.3-22 2.8-10.3 2.2-20.7-1.1-30.1-.3-.4-24.4-40.2-70.6-26.2zm59.4 78.3c-.7.7-1.4 1.4-2.2 2.1.8-.6 1.5-1.3 2.2-2.1zm-45.5-85.8c.7-.1 1.3-.2 2-.3-.7.1-1.4.2-2 .3zm12.6-.5c.7.1 1.4.1 2.1.2-.8-.1-1.5-.2-2.1-.2z" class="st18"/><path d="M140 738.7c.7.6 1.3 1.3 2 2-.6-.7-1.3-1.3-2-2zm-10-7.4c.8.5 1.7 1 2.5 1.5-.9-.5-1.7-1-2.5-1.5zm12.6 10.1c.4.5.9 1 1.3 1.5-.4-.6-.9-1.1-1.3-1.5zm3.7 4.5c.5.7 1 1.4 1.4 2.1-.5-.8-.9-1.5-1.4-2.1zM135.6 735c.5.4 1 .8 1.6 1.2-.5-.4-1-.8-1.6-1.2zm15.5 19c.3.6.5 1.2.8 1.8-.3-.7-.6-1.2-.8-1.8zm-13.2-17.2c.7.6 1.3 1.1 1.9 1.7-.6-.5-1.2-1.1-1.9-1.7zm-1.7 79.7c.2-.2.4-.3.6-.5-.2.2-.4.3-.6.5zm-24.1-91.3 2.1.3-2.1-.3zm-24.7 2.5zm62.3 23.6.9 1.8-.9-1.8zm-1.8-3.1c.5.8 1 1.6 1.4 2.4-.5-.8-.9-1.6-1.4-2.4zm-63.3-19.4c.6-.3 1.2-.5 1.8-.7-.6.2-1.2.5-1.8.7zm8.2-2.7c.9-.2 1.8-.4 2.8-.6-.9.2-1.9.4-2.8.6zm31.9 2.6c.6.3 1.3.5 1.9.8-.6-.2-1.3-.5-1.9-.8zm14.5 85.3-1.8 1.5 1.8-1.5zm-17.4-86.4c.7.2 1.3.5 1.9.7-.6-.2-1.2-.5-1.9-.7zm-31.7-.8c.9-.3 1.8-.5 2.7-.7-.9.2-1.8.5-2.7.7zm12.2-2.1c1 0 1.9-.1 2.9-.1-.9.1-1.9.1-2.9.1zm2.9 0c1 0 1.9.1 2.9.1-.9-.1-1.9-.1-2.9-.1zm-23.9 5.7c.8-.4 1.7-.8 2.5-1.2-.8.3-1.7.7-2.5 1.2zm18.1-5.4c.7-.1 1.3-.1 2-.2-.6 0-1.3.1-2 .2zm28 5c.8.4 1.7.8 2.5 1.3-.8-.5-1.7-.9-2.5-1.3zm-9.4-3.6c1 .3 1.9.6 2.9.9-.9-.3-1.9-.6-2.9-.9zm34.2 30.2c.3.8.6 1.5.9 2.3-.3-.8-.6-1.6-.9-2.3zm-37.1-30.9c1 .2 2 .4 2.9.7-.9-.2-1.9-.5-2.9-.7z" class="st18"/><path d="M101.5 724.8c.3 0 .6 0 .9-.1-.4.1-.6.1-.9.1zm49.1 28.3c.1.3.3.6.4.9-.1-.3-.2-.6-.4-.9zm-61.3-26c.3-.1.6-.2.8-.3-.3.1-.6.2-.8.3zm21.8-2c.3 0 .7.1 1 .1-.3 0-.7-.1-1-.1zm18.8 6.1s.1 0 .1.1c-.1 0-.1 0-.1-.1zm-6.2-2.9c.3.1.6.3 1 .4-.3-.1-.6-.2-1-.4zm-9.5-2.7c.3.1.6.1.9.2-.3-.1-.6-.2-.9-.2zm-30.4 3.6c.3-.1.5-.2.8-.3-.2 0-.5.1-.8.3zm42.8.4c.3.1.6.3.8.4-.3-.2-.6-.3-.8-.4zm-5.7-2.3.9.3-.9-.3zm-34.4.8.9-.3c-.3 0-.6.2-.9.3zm9.1-2.6c.3-.1.6-.1.9-.1-.3 0-.6.1-.9.1zm12.5-.7c.3 0 .6.1.9.1-.2-.1-.6-.1-.9-.1zm39.6 23.1c.1.1.1.2.2.2-.1 0-.2-.1-.2-.2zm-49.2-22.8c.3 0 .7-.1 1-.1-.4 0-.7 0-1 .1zm45.4 17.7c.2.3.4.5.6.8-.2-.2-.4-.5-.6-.8zm-6.7-6.5c.2.2.5.4.7.6-.2-.3-.5-.5-.7-.6zm2.6 2.3.2.2c0-.1-.1-.2-.2-.2zm2.2 2.1.6.6-.6-.6zm3.7 4.4c.2.2.4.5.5.7-.1-.2-.3-.4-.5-.7zm-10.9-10.7c.3.2.5.4.8.6-.2-.2-.5-.4-.8-.6zm14.5 16.2c.1.2.3.5.4.7-.1-.2-.3-.5-.4-.7zm2.6 5.1c.1.3.2.6.4.8-.2-.2-.3-.5-.4-.8zm1.3 3.5c0-.1-.1-.2-.1-.3 0 .1.1.2.1.3zm-20.8-26.4c.2.2.5.3.7.5-.2-.2-.4-.3-.7-.5z" class="st19"/><path d="M153.2 759.2c0-.1-.1-.2-.1-.3-.3-.8-.6-1.5-.9-2.3-.1-.3-.2-.6-.4-.8-.3-.6-.5-1.2-.8-1.8-.1-.3-.3-.6-.4-.9l-.9-1.8c-.1-.2-.3-.5-.4-.7-.5-.8-.9-1.6-1.4-2.4-.1-.1-.1-.2-.2-.2-.5-.7-.9-1.4-1.4-2.1-.2-.2-.4-.5-.5-.7l-1.2-1.5c-.2-.3-.4-.5-.6-.8-.4-.5-.9-1-1.3-1.5l-.6-.6c-.6-.7-1.3-1.4-2-2l-.2-.2c-.6-.6-1.3-1.2-1.9-1.7-.2-.2-.5-.4-.7-.6-.5-.4-1-.8-1.6-1.2-.3-.2-.5-.4-.8-.6-.5-.4-1.1-.8-1.7-1.1-.2-.2-.5-.3-.7-.5-.8-.5-1.6-1-2.5-1.5 0 0-.1 0-.1-.1-.8-.5-1.6-.9-2.5-1.3-.3-.1-.6-.3-.8-.4-.6-.3-1.2-.6-1.9-.8-.3-.1-.6-.3-1-.4-.6-.3-1.3-.5-1.9-.7l-.9-.3c-.9-.3-1.9-.6-2.9-.9-1-.3-2-.5-2.9-.7-.3-.1-.6-.1-.9-.2l-2.1-.3c-.3 0-.7-.1-1-.1-.7-.1-1.4-.2-2.1-.2-.3 0-.6-.1-.9-.1-1-.1-1.9-.1-2.9-.1s-1.9 0-2.9.1c-.3 0-.6 0-.9.1-.7 0-1.3.1-2 .2-.3 0-.7.1-1 .1-.7.1-1.3.2-2 .3-.3 0-.6.1-.9.1-.9.2-1.9.4-2.8.6-.9.2-1.8.5-2.7.7-.3.1-.6.2-.8.3-.6.2-1.3.4-1.9.6l-.9.3c-.6.2-1.2.5-1.8.7-.3.1-.5.2-.8.3-.8.4-1.7.8-2.5 1.2.4.8.8 1.7 1.2 2.5 46.3-14 70.4 25.8 70.7 26.3z" class="st18"/><path d="M153.2 759.2c0-.1-.1-.2-.1-.3-.3-.8-.6-1.5-.9-2.3-.1-.3-.2-.6-.4-.8-.3-.6-.5-1.2-.8-1.8-.1-.3-.3-.6-.4-.9l-.9-1.8c-.1-.2-.3-.5-.4-.7-.5-.8-.9-1.6-1.4-2.4-.1-.1-.1-.2-.2-.2-.5-.7-.9-1.4-1.4-2.1-.2-.2-.4-.5-.5-.7l-1.2-1.5c-.2-.3-.4-.5-.6-.8-.4-.5-.9-1-1.3-1.5l-.6-.6c-.6-.7-1.3-1.4-2-2l-.2-.2c-.6-.6-1.3-1.2-1.9-1.7-.2-.2-.5-.4-.7-.6-.5-.4-1-.8-1.6-1.2-.3-.2-.5-.4-.8-.6-.5-.4-1.1-.8-1.7-1.1-.2-.2-.5-.3-.7-.5-.8-.5-1.6-1-2.5-1.5 0 0-.1 0-.1-.1-.8-.5-1.6-.9-2.5-1.3-.3-.1-.6-.3-.8-.4-.6-.3-1.2-.6-1.9-.8-.3-.1-.6-.3-1-.4-.6-.3-1.3-.5-1.9-.7l-.9-.3c-.9-.3-1.9-.6-2.9-.9-1-.3-2-.5-2.9-.7-.3-.1-.6-.1-.9-.2l-2.1-.3c-.3 0-.7-.1-1-.1-.7-.1-1.4-.2-2.1-.2-.3 0-.6-.1-.9-.1-1-.1-1.9-.1-2.9-.1s-1.9 0-2.9.1c-.3 0-.6 0-.9.1-.7 0-1.3.1-2 .2-.3 0-.7.1-1 .1-.7.1-1.3.2-2 .3-.3 0-.6.1-.9.1-.9.2-1.9.4-2.8.6-.9.2-1.8.5-2.7.7-.3.1-.6.2-.8.3-.6.2-1.3.4-1.9.6l-.9.3c-.6.2-1.2.5-1.8.7-.3.1-.5.2-.8.3-.8.4-1.7.8-2.5 1.2.4.8.8 1.7 1.2 2.5 46.3-14 70.4 25.8 70.7 26.3z" class="st19"/><path d="M142 811.2zm-4.6 4.3c-.2.2-.4.3-.6.5.2-.2.4-.3.6-.5zm2.4-2.1-.6.6.6-.6z" class="st20"/><path d="M136.2 816.5c.2-.2.4-.3.6-.5.2-.2.4-.3.6-.5l1.8-1.5.6-.6c.7-.7 1.5-1.4 2.2-2.1-2.3 1.5-4.6 2.8-6.8 4 .3.3.6.8 1 1.2z" class="st18"/><path d="M136.2 816.5c.2-.2.4-.3.6-.5.2-.2.4-.3.6-.5l1.8-1.5.6-.6c.7-.7 1.5-1.4 2.2-2.1-2.3 1.5-4.6 2.8-6.8 4 .3.3.6.8 1 1.2z" class="st20"/><path d="M397.4 884.3c-1.3.5-2.7.9-4.1 1.3 1.4-.3 2.8-.8 4.1-1.3zm4.2-1.6zm-.3-133.1c.9.4 1.8.8 2.6 1.2-.9-.4-1.8-.8-2.6-1.2zm-22.8 138.7c-1.2.1-2.4.1-3.6.2 1.2 0 2.4-.1 3.6-.2zm14.9-2.6c-1.4.4-2.8.7-4.2 1.1 1.4-.4 2.8-.7 4.2-1.1zM388 887l-3.3.6 3.3-.6zm-4.4.8c-1.4.2-2.8.4-4.3.5 1.5-.2 2.9-.3 4.3-.5zm30.7-12.1c-1 .7-2 1.3-3 1.9 1-.6 2-1.3 3-1.9zm11.3-9.7c-1 1-2 2-3.1 3 1.1-1 2.1-2 3.1-3zm-7.3 6.7c-1.1.9-2.2 1.7-3.4 2.6 1.2-.9 2.3-1.7 3.4-2.6zm3.4-2.9c-.8.7-1.7 1.5-2.5 2.2.8-.7 1.6-1.4 2.5-2.2zm-11.5 8.5c-1 .6-2 1.2-3.1 1.7 1.1-.6 2.1-1.1 3.1-1.7zm-3.7 2.1c-1.3.7-2.5 1.3-3.8 1.8 1.2-.6 2.5-1.2 3.8-1.8zm13.4-119.3c.9.8 1.9 1.6 2.8 2.5-1-.9-1.9-1.7-2.8-2.5zm-71.3-12.9c.9-.3 1.7-.6 2.6-.9-.8.3-1.7.6-2.6.9z" class="st18"/><path d="M325.7 761.7c-10.5 9.1-18.5 21.4-22.4 35.8-3.4 12.8-3.2 25.6 0 37.5 1.5 3.2 40.2 83.1 122.3 30.9 8-8.5 14.1-19 17.3-31 3.9-14.5 3.1-29.2-1.5-42.4-.4-.7-40-66-115.7-30.8zm19.1-11.9c.9-.4 1.7-.7 2.6-1-.9.3-1.8.6-2.6 1zm-4.7 2.2c1.2-.6 2.4-1.2 3.6-1.7-1.3.5-2.5 1.1-3.6 1.7zm16.2-6.1c1.3-.3 2.6-.6 3.9-.8-1.3.2-2.6.5-3.9.8zm-3.8 1.1c1.3-.4 2.5-.7 3.8-1-1.3.2-2.6.6-3.8 1zm87.6 41.9c.4 1.1.8 2.1 1.2 3.2-.4-1.1-.8-2.1-1.2-3.2zm-114.4-27.2zm-21.2 77.1c-.4-1.1-.7-2.2-1-3.3.3 1.1.6 2.2 1 3.3zm1.7 4.7-1.5-3.9 1.5 3.9zm27-87.5c.8-.5 1.6-1 2.3-1.5-.8.5-1.5 1-2.3 1.5zm-25.3 91.4c-.5-1-.9-1.9-1.3-2.9.4 1 .9 1.9 1.3 2.9zm28.7-93.5c1.1-.7 2.3-1.3 3.5-1.9-1.2.6-2.4 1.2-3.5 1.9zm-6.8 4.5c.7-.6 1.5-1.1 2.2-1.6-.7.5-1.5 1.1-2.2 1.6zm44-14.5c1.4 0 2.7.1 4.1.2-1.4-.1-2.7-.2-4.1-.2zm9.7.8c1 .1 1.9.3 2.9.5-.9-.2-1.9-.3-2.9-.5zm45.7 25.9c.6.7 1.1 1.4 1.7 2.2-.6-.7-1.1-1.5-1.7-2.2z" class="st18"/><path d="M422.8 763.7c1 .9 1.9 1.9 2.8 2.8-.9-.9-1.8-1.9-2.8-2.8zm3.7 3.7c.6.7 1.3 1.4 1.9 2.1-.7-.7-1.3-1.4-1.9-2.1zm-47.3-23.2c1 .1 1.9.2 2.9.3-1-.1-1.9-.2-2.9-.3zm-13.5.1c.9-.1 1.9-.2 2.8-.2-1 .1-1.9.1-2.8.2zm-4.2.6c.9-.2 1.9-.3 2.8-.4-1 .1-1.9.2-2.8.4zm75 36.6c.5.8.9 1.7 1.3 2.5-.4-.9-.8-1.7-1.3-2.5zm-2.6-4.4c.7 1.1 1.4 2.2 2 3.4-.6-1.2-1.3-2.3-2-3.4zm-2.2-3.3c.7 1 1.4 1.9 2 2.9-.7-1-1.3-1.9-2-2.9zm6.7 11.4c.4.8.8 1.6 1.1 2.5-.3-.8-.7-1.6-1.1-2.5zM369.7 744c1.4-.1 2.7-.1 4.1-.1-1.3 0-2.7.1-4.1.1zm18 1.4c1.4.3 2.8.6 4.1 1-1.3-.4-2.7-.7-4.1-1zm-28.8 141.7c-1.5-.3-3-.6-4.5-1 1.5.4 3 .7 4.5 1zm54.3-131c.8.5 1.6 1.1 2.3 1.6-.7-.6-1.5-1.1-2.3-1.6zm-58.8 130c-1.5-.4-2.9-.8-4.3-1.3 1.5.4 2.9.9 4.3 1.3zm-5.5-1.8c-1-.4-2.1-.8-3.1-1.2 1.1.5 2.1.9 3.1 1.2zm43-137.9c1.4.4 2.7.8 4.1 1.2-1.4-.4-2.8-.8-4.1-1.2zm-18.3 142.1c-1.2 0-2.4 0-3.6-.1 1.2.1 2.4.1 3.6.1zm-10-.6c-1.1-.2-2.3-.3-3.4-.5 1.1.1 2.3.3 3.4.5zm45.1-134.6c1.2.7 2.3 1.4 3.5 2.1-1.2-.8-2.3-1.5-3.5-2.1zm-3.6-1.9c1.2.6 2.3 1.2 3.5 1.8-1.2-.6-2.4-1.2-3.5-1.8zm-60.4 131.3c-1.3-.6-2.7-1.2-4-1.8 1.3.6 2.6 1.2 4 1.8zm52.5-134.6c.9.3 1.8.7 2.7 1-.9-.4-1.8-.7-2.7-1zm-72.7 121.6c-.8-.7-1.5-1.4-2.3-2.2.7.7 1.5 1.5 2.3 2.2zm-6.3-6.5c-.8-.9-1.6-1.9-2.3-2.9.7 1 1.5 1.9 2.3 2.9zm22.3 17.5c-1.2-.6-2.4-1.3-3.6-2 1.2.8 2.4 1.4 3.6 2zm-27.9-24.9c-.8-1.2-1.5-2.3-2.2-3.5.8 1.1 1.5 2.3 2.2 3.5zm2.5 3.5c-.6-.8-1.2-1.7-1.8-2.6.6.9 1.2 1.7 1.8 2.6zm-5-7.6c-.6-1-1.1-2.1-1.7-3.1.6 1 1.2 2 1.7 3.1zm106.6-93.2c.7.6 1.5 1.1 2.2 1.7-.7-.5-1.5-1.1-2.2-1.7zm-80.9 119.6c-.9-.6-1.8-1.1-2.7-1.7.9.6 1.8 1.2 2.7 1.7zm-3.7-2.4zm-10.8-9c-1-1-1.9-2-2.8-3.1.9 1 1.9 2.1 2.8 3.1zm7.1 6.3c-1-.8-2-1.6-3-2.5 1 .9 1.9 1.7 3 2.5zm40.8 15.4c-1.5-.1-2.9-.2-4.4-.4 1.4.2 2.9.3 4.4.4z" class="st18"/><path d="M430.9 772.8c.3.3.5.7.8 1-.3-.3-.5-.7-.8-1zm-70.7-27.7c.4-.1.8-.1 1.2-.2-.3.1-.8.1-1.2.2zm-3.9.8zm-5 1.4c.4-.1.8-.3 1.2-.4-.4.2-.8.3-1.2.4zm13-2.8c.5-.1.9-.1 1.4-.2-.5.1-1 .1-1.4.2zm-20.7 5.8c.4-.2.8-.3 1.1-.5-.3.1-.7.3-1.1.5zM340 752s.1 0 0 0c.1 0 0 0 0 0zm-8 4.8c.4-.3.8-.5 1.2-.8-.4.3-.8.5-1.2.8zm80.2-1.4c.4.2.7.5 1 .7-.3-.3-.7-.5-1-.7zm-43.7-11.3c.4 0 .8-.1 1.3-.1-.5 0-.9.1-1.3.1zm-21.2 4.6c.4-.2.9-.3 1.3-.5-.4.2-.8.4-1.3.5zm56.6 2.1 1.2.6-1.2-.6zm-4-1.7c.5.2.9.4 1.4.6-.5-.2-.9-.4-1.4-.6zm8.6 4.1c.1 0 .1.1.2.1-.1-.1-.1-.1-.2-.1zm-12.6-5.6c.4.1.8.3 1.2.4-.4-.1-.8-.2-1.2-.4zm-13.8-3.1c.5.1 1 .1 1.4.2-.5-.1-.9-.1-1.4-.2zm4.3.7c.4.1.9.2 1.3.2-.4 0-.8-.1-1.3-.2zm-8.5-1.1c.4 0 .9.1 1.3.1-.4 0-.9-.1-1.3-.1zm-4.1-.2zm-38.3 10.6c.4-.2.7-.4 1.1-.6-.4.2-.7.4-1.1.6zm100.5 26c.2.3.4.7.6 1-.3-.4-.5-.7-.6-1zm-2.3-3.8c.1.1.2.2.2.4-.1-.1-.2-.3-.2-.4zm4.1 7.3.6 1.2-.6-1.2zm1.8 3.7c.2.4.3.8.5 1.2-.2-.4-.4-.8-.5-1.2zm1.9 4.9c0-.1-.1-.3-.2-.4 0 .1.1.2.2.4-.1-.1 0 0 0 0zm-26-34.9c.4.3.8.6 1.1.8-.3-.3-.7-.5-1.1-.8zm-86.7 1.5c.3-.3.7-.5 1-.7-.4.2-.7.4-1 .7zm99.5 10.3c.3.4.6.7.9 1.1-.3-.3-.6-.7-.9-1.1zm-9.4-9.3c.3.3.7.5 1 .8-.4-.2-.7-.5-1-.8zm3.7 3.3c.1.1.2.1.2.2l-.2-.2zm3.1 3c.3.3.5.6.8.9-.3-.3-.6-.6-.8-.9z" class="st19"/><path d="M441.4 792.5c0-.1-.1-.3-.2-.4-.4-1.1-.8-2.2-1.2-3.2-.2-.4-.3-.8-.5-1.2-.4-.8-.7-1.7-1.1-2.5l-.6-1.2c-.4-.8-.9-1.7-1.3-2.5-.2-.3-.4-.7-.6-1-.7-1.1-1.3-2.3-2-3.4-.1-.1-.2-.2-.2-.4-.6-1-1.3-2-2-2.9-.3-.3-.5-.7-.8-1-.5-.7-1.1-1.5-1.7-2.2-.3-.4-.6-.7-.9-1.1-.6-.7-1.2-1.4-1.9-2.1-.3-.3-.5-.6-.8-.9-.9-1-1.8-1.9-2.8-2.8-.1-.1-.2-.1-.2-.2-.9-.8-1.8-1.7-2.8-2.5-.3-.3-.7-.5-1-.8-.7-.6-1.4-1.2-2.2-1.7-.4-.3-.8-.6-1.1-.8-.8-.6-1.5-1.1-2.3-1.6-.3-.2-.7-.5-1-.7-1.1-.7-2.3-1.4-3.5-2.1-.1 0-.1-.1-.2-.1-1.1-.6-2.3-1.2-3.5-1.8l-1.2-.6c-.9-.4-1.7-.8-2.6-1.2-.4-.2-.9-.4-1.4-.6-.9-.4-1.8-.7-2.7-1-.4-.1-.8-.3-1.2-.4-1.3-.4-2.7-.9-4.1-1.2-1.4-.4-2.8-.7-4.1-1-.4-.1-.9-.2-1.3-.2-1-.2-1.9-.3-2.9-.5-.5-.1-1-.1-1.4-.2-1-.1-1.9-.2-2.9-.3-.4 0-.9-.1-1.3-.1-1.4-.1-2.7-.2-4.1-.2-1.4 0-2.7 0-4.1.1-.4 0-.8.1-1.3.1-.9.1-1.9.1-2.8.2-.5 0-.9.1-1.4.2-.9.1-1.9.3-2.8.4-.4.1-.8.1-1.2.2-1.3.2-2.6.5-3.9.8-1.3.3-2.6.7-3.8 1-.4.1-.8.3-1.2.4-.9.3-1.8.6-2.6.9-.4.2-.9.3-1.3.5-.9.3-1.7.7-2.6 1-.4.2-.8.3-1.1.5-1.2.5-2.4 1.1-3.6 1.7-1.2.6-2.3 1.2-3.5 1.9-.4.2-.7.4-1.1.6-.8.5-1.6 1-2.3 1.5-.4.3-.8.5-1.2.8-.8.5-1.5 1.1-2.2 1.6-.3.2-.7.5-1 .7-1 .8-2.1 1.6-3.1 2.5 75.7-35 115.3 30.3 115.7 31z" class="st18"/><path d="M441.4 792.5c0-.1-.1-.3-.2-.4-.4-1.1-.8-2.2-1.2-3.2-.2-.4-.3-.8-.5-1.2-.4-.8-.7-1.7-1.1-2.5l-.6-1.2c-.4-.8-.9-1.7-1.3-2.5-.2-.3-.4-.7-.6-1-.7-1.1-1.3-2.3-2-3.4-.1-.1-.2-.2-.2-.4-.6-1-1.3-2-2-2.9-.3-.3-.5-.7-.8-1-.5-.7-1.1-1.5-1.7-2.2-.3-.4-.6-.7-.9-1.1-.6-.7-1.2-1.4-1.9-2.1-.3-.3-.5-.6-.8-.9-.9-1-1.8-1.9-2.8-2.8-.1-.1-.2-.1-.2-.2-.9-.8-1.8-1.7-2.8-2.5-.3-.3-.7-.5-1-.8-.7-.6-1.4-1.2-2.2-1.7-.4-.3-.8-.6-1.1-.8-.8-.6-1.5-1.1-2.3-1.6-.3-.2-.7-.5-1-.7-1.1-.7-2.3-1.4-3.5-2.1-.1 0-.1-.1-.2-.1-1.1-.6-2.3-1.2-3.5-1.8l-1.2-.6c-.9-.4-1.7-.8-2.6-1.2-.4-.2-.9-.4-1.4-.6-.9-.4-1.8-.7-2.7-1-.4-.1-.8-.3-1.2-.4-1.3-.4-2.7-.9-4.1-1.2-1.4-.4-2.8-.7-4.1-1-.4-.1-.9-.2-1.3-.2-1-.2-1.9-.3-2.9-.5-.5-.1-1-.1-1.4-.2-1-.1-1.9-.2-2.9-.3-.4 0-.9-.1-1.3-.1-1.4-.1-2.7-.2-4.1-.2-1.4 0-2.7 0-4.1.1-.4 0-.8.1-1.3.1-.9.1-1.9.1-2.8.2-.5 0-.9.1-1.4.2-.9.1-1.9.3-2.8.4-.4.1-.8.1-1.2.2-1.3.2-2.6.5-3.9.8-1.3.3-2.6.7-3.8 1-.4.1-.8.3-1.2.4-.9.3-1.8.6-2.6.9-.4.2-.9.3-1.3.5-.9.3-1.7.7-2.6 1-.4.2-.8.3-1.1.5-1.2.5-2.4 1.1-3.6 1.7-1.2.6-2.3 1.2-3.5 1.9-.4.2-.7.4-1.1.6-.8.5-1.6 1-2.3 1.5-.4.3-.8.5-1.2.8-.8.5-1.5 1.1-2.2 1.6-.3.2-.7.5-1 .7-1 .8-2.1 1.6-3.1 2.5 75.7-35 115.3 30.3 115.7 31z" class="st19"/><path d="M384.7 887.6c-.4.1-.7.1-1.1.2.4-.1.7-.2 1.1-.2zm4.5-.9-1.2.3 1.2-.3zm-29 .6c-.4-.1-.9-.2-1.3-.2.4.1.8.2 1.3.2zm19.1 1c-.3 0-.5 0-.8.1.3-.1.6-.1.8-.1zm27.9-8.3c-.2.1-.5.3-.7.4.2-.1.4-.3.7-.4zm15.4-11c-.3.3-.6.6-.9.8.3-.3.6-.5.9-.8zm-3.5 3c-.3.2-.6.5-.8.7.3-.3.6-.5.8-.7zm-4.2 3.2c-.2.2-.4.3-.7.4.3-.1.5-.2.7-.4zm-3.6 2.4c-.4.2-.7.4-1.1.7.4-.3.8-.5 1.1-.7zm-8.7 4.6c-.3.1-.7.3-1 .4.4-.1.7-.2 1-.4zm-27.7 6.3h-1.3 1.3zm-4.9 0h-.8c.2-.1.5-.1.8 0zm-5.3-.5c-.4 0-.8-.1-1.1-.2.4.1.8.2 1.1.2zm33.9-4.1c-.4.1-.8.3-1.2.4.4-.1.8-.3 1.2-.4zm-5.2 1.8zm-47.6-2.5c-.4-.2-.8-.3-1.2-.5.5.1.8.3 1.2.5zm-29.9-22.9c-.3-.3-.5-.7-.8-1 .3.3.5.7.8 1zm2.6 3.3c-.1-.1-.2-.3-.3-.4.1.1.2.2.3.4zm6.9 6.9-.9-.9.9.9zm-3.2-3c-.3-.3-.6-.5-.8-.8l.8.8zm-8.9-10.8-.6-.9.6.9zm-10-21.8c.1.2.1.4.2.6 0-.2-.1-.3-.1-.5-.1 0-.1-.1-.1-.1zm7.2 17.3-.3-.6.3.6zm-3.9-7.7c-.1-.3-.3-.7-.4-1 .1.3.3.6.4 1zm1.9 4-.6-1.2c.2.5.4.8.6 1.2zm-3.8-8.9c-.1-.2-.1-.5-.2-.7.1.2.1.4.2.7zm32.2 39.2c-.4-.2-.7-.4-1.1-.7.4.2.7.5 1.1.7zm3.8 2c-.1 0-.1-.1-.2-.1.1.1.1.1.2.1zm9.5 4c-.4-.1-.8-.3-1.2-.4.3.1.7.2 1.2.4zm-17.1-8.4c-.3-.2-.7-.4-1-.7.3.3.7.5 1 .7zm-4.4-3.2c-.1-.1-.2-.2-.3-.2.1.1.2.2.3.2z" class="st20"/><path d="M303.4 835c0 .2.1.3.1.5.3 1.1.6 2.2 1 3.3.1.2.1.5.2.7.5 1.3.9 2.6 1.5 3.9.1.3.3.7.4 1 .4 1 .8 1.9 1.3 2.9l.6 1.2c.5 1.1 1.1 2.1 1.7 3.1l.3.6c.7 1.2 1.4 2.4 2.2 3.5l.6.9c.6.9 1.2 1.7 1.8 2.6.3.3.5.7.8 1 .7 1 1.5 1.9 2.3 2.9.1.1.2.3.3.4.9 1.1 1.9 2.1 2.8 3.1l.8.8c.7.7 1.5 1.5 2.3 2.2l.9.9c1 .8 1.9 1.7 3 2.5.1.1.2.2.3.2 1.1.9 2.3 1.7 3.4 2.5.3.2.7.4 1 .7.9.6 1.8 1.2 2.7 1.7.4.2.7.4 1.1.7 1.2.7 2.4 1.3 3.6 2 .1 0 .1.1.2.1 1.3.6 2.6 1.2 4 1.8.4.2.8.3 1.2.5 1 .4 2 .8 3.1 1.2.4.1.8.3 1.2.4 1.4.5 2.8.9 4.3 1.3s3 .7 4.5 1c.4.1.9.2 1.3.2 1.1.2 2.3.4 3.4.5.4.1.8.1 1.1.2 1.5.2 2.9.3 4.4.4h.8c1.2.1 2.4.1 3.6.1h1.3c1.2 0 2.4-.1 3.6-.2.3 0 .5 0 .8-.1 1.4-.1 2.9-.3 4.3-.5.4-.1.7-.1 1.1-.2l3.3-.6 1.2-.3c1.4-.3 2.8-.7 4.2-1.1 1.4-.4 2.7-.9 4.1-1.3.4-.1.8-.3 1.2-.4 1-.4 2.1-.8 3.1-1.2.3-.1.7-.3 1-.4 1.3-.6 2.6-1.2 3.8-1.8.2-.1.5-.3.7-.4 1-.6 2.1-1.1 3.1-1.7.4-.2.7-.4 1.1-.7 1-.6 2-1.3 3-1.9.2-.1.4-.3.7-.4 1.2-.8 2.3-1.7 3.4-2.6.3-.2.6-.5.8-.7.9-.7 1.7-1.4 2.5-2.2.3-.3.6-.5.9-.8 1-1 2.1-2 3.1-3-82.3 52.2-121-27.8-122.4-31z" class="st18"/><path d="M303.4 835c0 .2.1.3.1.5.3 1.1.6 2.2 1 3.3.1.2.1.5.2.7.5 1.3.9 2.6 1.5 3.9.1.3.3.7.4 1 .4 1 .8 1.9 1.3 2.9l.6 1.2c.5 1.1 1.1 2.1 1.7 3.1l.3.6c.7 1.2 1.4 2.4 2.2 3.5l.6.9c.6.9 1.2 1.7 1.8 2.6.3.3.5.7.8 1 .7 1 1.5 1.9 2.3 2.9.1.1.2.3.3.4.9 1.1 1.9 2.1 2.8 3.1l.8.8c.7.7 1.5 1.5 2.3 2.2l.9.9c1 .8 1.9 1.7 3 2.5.1.1.2.2.3.2 1.1.9 2.3 1.7 3.4 2.5.3.2.7.4 1 .7.9.6 1.8 1.2 2.7 1.7.4.2.7.4 1.1.7 1.2.7 2.4 1.3 3.6 2 .1 0 .1.1.2.1 1.3.6 2.6 1.2 4 1.8.4.2.8.3 1.2.5 1 .4 2 .8 3.1 1.2.4.1.8.3 1.2.4 1.4.5 2.8.9 4.3 1.3s3 .7 4.5 1c.4.1.9.2 1.3.2 1.1.2 2.3.4 3.4.5.4.1.8.1 1.1.2 1.5.2 2.9.3 4.4.4h.8c1.2.1 2.4.1 3.6.1h1.3c1.2 0 2.4-.1 3.6-.2.3 0 .5 0 .8-.1 1.4-.1 2.9-.3 4.3-.5.4-.1.7-.1 1.1-.2l3.3-.6 1.2-.3c1.4-.3 2.8-.7 4.2-1.1 1.4-.4 2.7-.9 4.1-1.3.4-.1.8-.3 1.2-.4 1-.4 2.1-.8 3.1-1.2.3-.1.7-.3 1-.4 1.3-.6 2.6-1.2 3.8-1.8.2-.1.5-.3.7-.4 1-.6 2.1-1.1 3.1-1.7.4-.2.7-.4 1.1-.7 1-.6 2-1.3 3-1.9.2-.1.4-.3.7-.4 1.2-.8 2.3-1.7 3.4-2.6.3-.2.6-.5.8-.7.9-.7 1.7-1.4 2.5-2.2.3-.3.6-.5.9-.8 1-1 2.1-2 3.1-3-82.3 52.2-121-27.8-122.4-31z" class="st20"/><path d="M783.2 647.8c1.4-.4 2.7-.8 4.1-1.1-1.4.3-2.8.6-4.1 1.1zm23.1-3.3c1.5 0 2.9.1 4.4.2-1.5-.1-3-.2-4.4-.2zm-44 13c.8-.6 1.7-1.1 2.5-1.6-.8.6-1.6 1.1-2.5 1.6zm35.1-12.6 3-.3c-.9.1-1.9.2-3 .3zm-4.5.6c1-.2 2-.3 3-.4-1 .1-2 .3-3 .4zm9-.9c1.5-.1 2.9-.1 4.4-.1-1.5 0-3 0-4.4.1zm-14.5 2 4.2-.9-4.2.9zm-21.4 8.6c1.2-.7 2.5-1.4 3.7-2.1-1.2.7-2.5 1.4-3.7 2.1zm-7.3 4.9 2.4-1.8-2.4 1.8zm16.2-9.3c.9-.4 1.8-.8 2.8-1.1-1 .3-1.9.7-2.8 1.1zm4.1-1.7c.9-.3 1.9-.7 2.8-1-.9.4-1.8.7-2.8 1zm-9.2 4c1.3-.7 2.5-1.3 3.8-1.8-1.3.6-2.6 1.2-3.8 1.8zm47-7.8c1 .2 2.1.3 3.1.5-1.1-.2-2.1-.3-3.1-.5zm9 1.8c1.5.4 2.9.8 4.4 1.3-1.5-.4-3-.9-4.4-1.3zm5.7 1.8c1 .4 2 .7 3 1.1-1-.3-2-.7-3-1.1zm-10.2-2.8c1.5.3 3 .6 4.5 1-1.5-.4-3-.7-4.5-1zm18.7 6.4c1.3.6 2.5 1.3 3.8 2-1.2-.7-2.5-1.4-3.8-2zm-27 147.9c-.2 0-.4 0-.7.1.2 0 .4-.1.7-.1zm3.6-.4c-.3 0-.6.1-.9.1.4 0 .6-.1.9-.1zm-51.4-10.5c-1-.6-2-1.2-2.9-1.8.9.6 1.9 1.2 2.9 1.8zm-4.1-2.6c-1.3-.9-2.5-1.8-3.7-2.7 1.2 1 2.5 1.9 3.7 2.7zM844 654.6c1.3.7 2.5 1.5 3.8 2.3-1.3-.8-2.6-1.6-3.8-2.3zm-31.9-9.8c1 .1 2.1.2 3.1.3-1-.1-2.1-.2-3.1-.3zm23.8 5.8c1 .4 1.9.8 2.8 1.3-.9-.4-1.8-.8-2.8-1.3zm32.9 26.2c.7 1 1.5 2.1 2.2 3.2-.7-1.2-1.5-2.2-2.2-3.2zm-2.7-3.5c.6.8 1.2 1.5 1.8 2.3-.5-.7-1.1-1.5-1.8-2.3zm5.1 7zm2.8 4.8c.5.9 1 1.8 1.4 2.7-.4-.9-.9-1.8-1.4-2.7zm-25.2-27.5c.9.6 1.7 1.1 2.5 1.7-.8-.6-1.6-1.1-2.5-1.7zm3.8 2.6c.8.6 1.6 1.2 2.4 1.9-.8-.6-1.6-1.2-2.4-1.9zm3.4 2.8c1 .9 2 1.7 3 2.6-1-.9-2-1.8-3-2.6zm7.2 6.9c.7.7 1.4 1.5 2 2.3-.7-.8-1.3-1.6-2-2.3zm-3.9-4c1 1 2 2 3 3.1-1-1.1-2-2.1-3-3.1zm-58.2 134.8h-.7c.3-.1.5-.1.7 0zm-46.8-137 3.3-2.7c-1.2.8-2.3 1.7-3.3 2.7zm-23 83.4c-.4-1.2-.8-2.4-1.1-3.6.4 1.2.7 2.4 1.1 3.6zm39 45.3-3.9-2.1c1.2.7 2.5 1.4 3.9 2.1zm-37.1-40.3c-.6-1.4-1.1-2.8-1.6-4.2.5 1.4 1 2.8 1.6 4.2zm16.3 25c-1.1-1.1-2.1-2.2-3.1-3.3 1.1 1.1 2.1 2.2 3.1 3.3zM735 756.3c-.5-1-1-2.1-1.4-3.1.5 1 .9 2.1 1.4 3.1zm7.8 12.9c-.7-.9-1.3-1.8-2-2.8.7.9 1.3 1.9 2 2.8zm66.1 31.5h-.8.8zm-71.5-39.8zm37.3 33.5c-1.4-.6-2.9-1.3-4.3-2 1.5.8 2.9 1.4 4.3 2zm-34.6-29c-.8-1.3-1.6-2.5-2.4-3.8.8 1.2 1.6 2.5 2.4 3.8zm39.2 30.8c-1.1-.4-2.2-.8-3.3-1.3 1.1.5 2.2.9 3.3 1.3zM757.1 784c-1.1-.9-2.1-1.8-3.2-2.7 1.1.9 2.1 1.8 3.2 2.7zm40.5 16.4c-.3 0-.6-.1-.9-.1.3 0 .6 0 .9.1zm7.7.4h-.8.8z" class="st18"/><path d="M754.3 663.7c-11.4 9.9-20 23.1-24.2 38.7-3.7 13.8-3.4 27.7 0 40.6 1.3 2.8 30.4 62.9 91 50.9 22.7-31.8 40.8-66.4 54.1-102.7-12.5-16.4-53.4-59-120.9-27.5zm31 134.4c-1.6-.4-3.1-.9-4.6-1.4 1.5.5 3 1 4.6 1.4zm7.9 1.7c-.1 0-.3-.1-.4-.1.1 0 .3.1.4.1z" class="st18"/><path d="M752.9 780.4c-.8-.8-1.7-1.6-2.5-2.4.8.8 1.7 1.6 2.5 2.4zm36.8 18.7c-.3-.1-.6-.1-.9-.2.3.1.6.2.9.2zm-43.6-25.7c-.9-1-1.7-2-2.5-3.1.8 1 1.6 2 2.5 3.1z" class="st18"/><path d="M781.9 648.2c.4-.1.9-.3 1.3-.4-.5.1-.9.2-1.3.4zm-8.3 3.1c.4-.2.8-.4 1.2-.5-.4.2-.8.3-1.2.5zm56.5-2.8c.5.1.9.3 1.3.5-.4-.2-.8-.4-1.3-.5zm-10.2-2.7c.5.1.9.2 1.4.3-.5-.1-.9-.2-1.4-.3zm-28.3-.1c.4-.1.9-.1 1.3-.2-.4.1-.9.2-1.3.2zm-34 15.2c.4-.3.7-.5 1.1-.8-.4.3-.8.6-1.1.8zm3.5-2.5c.4-.3.8-.6 1.2-.8-.4.2-.8.5-1.2.8zm26.2-11.8zm-9.7 3c.5-.2.9-.4 1.4-.5-.4.2-.9.4-1.4.5zm37.6-4.5c.5.1 1 .1 1.6.2-.6-.1-1.1-.1-1.6-.2zm-45.5 8.1s.1 0 0 0c.1 0 0 0 0 0zm30.8-8.5c.5 0 .9-.1 1.4-.1-.5 0-1 0-1.4.1zm-4.6.4c.5-.1 1-.1 1.5-.2-.5.1-1 .1-1.5.2zm-31 10.8c.4-.2.8-.5 1.1-.7-.4.3-.8.5-1.1.7zm90.1 6.2c.4.3.7.6 1.1.9-.4-.3-.8-.6-1.1-.9zM834.5 650l1.5.6c-.6-.2-1.1-.4-1.5-.6zm33.5 25.7c.3.4.6.7.8 1.1-.3-.4-.6-.8-.8-1.1zm-57.3-31c.5 0 .9.1 1.4.1-.5-.1-.9-.1-1.4-.1zm48.3 20.9c.1.1.2.2.3.2-.1 0-.2-.1-.3-.2zm17 23.4c.1 0 .1 0 0 0l-.6-1.2c.3.4.5.8.6 1.2zm-24.6-29.7 1.2.9-1.2-.9zm10.9 9.6c.3.3.6.6.9 1-.3-.3-.6-.7-.9-1zm2.9 3.3c.3.4.6.8 1 1.2-.4-.5-.7-.9-1-1.2zm8.2 11.8c.2.4.4.7.6 1.1-.2-.4-.4-.8-.6-1.1zm-29.6-29.5c.1 0 .1.1.2.1-.1-.1-.1-.1-.2-.1zm27.2 25.4c.1.1.2.2.3.4-.2-.1-.3-.3-.3-.4zm-23.3-23.1c.4.2.8.5 1.1.8-.3-.3-.7-.5-1.1-.8zm-8.9-4.9c.4.2.9.4 1.3.6-.5-.2-.9-.4-1.3-.6z" class="st19"/><path d="M874 685.1c-.2-.4-.4-.7-.6-1.1-.7-1.2-1.4-2.5-2.2-3.7-.1-.1-.2-.3-.3-.4-.7-1.1-1.4-2.1-2.2-3.2-.3-.4-.6-.7-.8-1.1-.6-.8-1.2-1.6-1.8-2.3-.3-.4-.6-.8-1-1.2-.7-.8-1.3-1.5-2-2.3-.3-.3-.6-.7-.9-1-1-1-2-2.1-3-3.1-.1-.1-.2-.2-.3-.2-1-.9-2-1.8-3-2.6-.4-.3-.7-.6-1.1-.9-.8-.6-1.6-1.3-2.4-1.9l-1.2-.9c-.8-.6-1.7-1.2-2.5-1.7-.4-.3-.7-.5-1.1-.8-1.2-.8-2.5-1.6-3.8-2.3-.1 0-.1-.1-.2-.1-1.2-.7-2.5-1.3-3.8-2-.4-.2-.8-.4-1.3-.6-.9-.4-1.9-.9-2.8-1.3l-1.5-.6c-1-.4-2-.8-3-1.1-.4-.2-.9-.3-1.3-.5-1.4-.5-2.9-.9-4.4-1.3-1.5-.4-3-.7-4.5-1-.5-.1-.9-.2-1.4-.3-1-.2-2.1-.4-3.1-.5-.5-.1-1-.1-1.6-.2-1-.1-2.1-.2-3.1-.3-.5 0-.9-.1-1.4-.1-1.5-.1-3-.2-4.4-.2-1.5 0-2.9 0-4.4.1-.5 0-.9.1-1.4.1-1 .1-2 .1-3 .3-.5.1-1 .1-1.5.2-1 .1-2 .3-3 .4-.4.1-.9.1-1.3.2-1.4.3-2.8.5-4.2.9-1.4.3-2.8.7-4.1 1.1-.4.1-.9.3-1.3.4-1 .3-1.9.6-2.8 1-.5.2-.9.3-1.4.5-.9.4-1.9.7-2.8 1.1-.4.2-.8.3-1.2.5-1.3.6-2.6 1.2-3.8 1.8-1.3.7-2.5 1.3-3.7 2.1-.4.2-.8.5-1.1.7-.9.5-1.7 1.1-2.5 1.6-.4.3-.8.6-1.2.8l-2.4 1.8c-.4.3-.7.5-1.1.8l-3.3 2.7c67.5-31.4 108.5 11.2 121 27.5.3-.7.5-1.4.8-2.2l-.6-1.2c-.7-.6-1.2-1.5-1.7-2.4z" class="st18"/><path d="M874 685.1c-.2-.4-.4-.7-.6-1.1-.7-1.2-1.4-2.5-2.2-3.7-.1-.1-.2-.3-.3-.4-.7-1.1-1.4-2.1-2.2-3.2-.3-.4-.6-.7-.8-1.1-.6-.8-1.2-1.6-1.8-2.3-.3-.4-.6-.8-1-1.2-.7-.8-1.3-1.5-2-2.3-.3-.3-.6-.7-.9-1-1-1-2-2.1-3-3.1-.1-.1-.2-.2-.3-.2-1-.9-2-1.8-3-2.6-.4-.3-.7-.6-1.1-.9-.8-.6-1.6-1.3-2.4-1.9l-1.2-.9c-.8-.6-1.7-1.2-2.5-1.7-.4-.3-.7-.5-1.1-.8-1.2-.8-2.5-1.6-3.8-2.3-.1 0-.1-.1-.2-.1-1.2-.7-2.5-1.3-3.8-2-.4-.2-.8-.4-1.3-.6-.9-.4-1.9-.9-2.8-1.3l-1.5-.6c-1-.4-2-.8-3-1.1-.4-.2-.9-.3-1.3-.5-1.4-.5-2.9-.9-4.4-1.3-1.5-.4-3-.7-4.5-1-.5-.1-.9-.2-1.4-.3-1-.2-2.1-.4-3.1-.5-.5-.1-1-.1-1.6-.2-1-.1-2.1-.2-3.1-.3-.5 0-.9-.1-1.4-.1-1.5-.1-3-.2-4.4-.2-1.5 0-2.9 0-4.4.1-.5 0-.9.1-1.4.1-1 .1-2 .1-3 .3-.5.1-1 .1-1.5.2-1 .1-2 .3-3 .4-.4.1-.9.1-1.3.2-1.4.3-2.8.5-4.2.9-1.4.3-2.8.7-4.1 1.1-.4.1-.9.3-1.3.4-1 .3-1.9.6-2.8 1-.5.2-.9.3-1.4.5-.9.4-1.9.7-2.8 1.1-.4.2-.8.3-1.2.5-1.3.6-2.6 1.2-3.8 1.8-1.3.7-2.5 1.3-3.7 2.1-.4.2-.8.5-1.1.7-.9.5-1.7 1.1-2.5 1.6-.4.3-.8.6-1.2.8l-2.4 1.8c-.4.3-.7.5-1.1.8l-3.3 2.7c67.5-31.4 108.5 11.2 121 27.5.3-.7.5-1.4.8-2.2l-.6-1.2c-.7-.6-1.2-1.5-1.7-2.4z" class="st19"/><path d="m750.4 778-.9-.9.9.9zm-6.8-7.7c-.3-.4-.6-.7-.8-1.1.3.3.5.7.8 1.1zm13.8 13.9-.3-.3c.1.2.2.3.3.3zm-10.9-10.4c-.1-.1-.2-.3-.4-.5.1.2.2.4.4.5zm7.4 7.5c-.3-.3-.7-.6-1-.9.3.3.7.6 1 .9zm61.9 18.8c-.9.1-1.9.2-2.8.3.9-.1 1.8-.2 2.8-.3zm-19.1.2c-1.1-.1-2.3-.3-3.4-.5 1.1.2 2.2.3 3.4.5zm7.8.5c-1.1 0-2.3-.1-3.4-.1 1.2 0 2.3.1 3.4.1zm-4-.2c-1-.1-1.9-.1-2.9-.2.9.1 1.9.1 2.9.2zm-7.7-.9c-1-.2-2-.4-3.1-.6 1 .3 2.1.4 3.1.6zm-30.6-12c-.4-.2-.7-.5-1.1-.7.4.2.8.4 1.1.7zm26.6 11.2c-1.2-.3-2.3-.5-3.5-.8 1.2.3 2.3.6 3.5.8zm19.3 1.8h-2.8c1 .1 1.9.1 2.8 0zm8.6-.7s-.1 0 0 0c-.1 0 0 0 0 0zm-75.9-33.6c-.2-.3-.5-.7-.7-1 .3.3.5.6.7 1zm71.5 34.1c-1.1.1-2.2.2-3.4.2 1.2 0 2.3-.1 3.4-.2zm-78.7-47.3c-.2-.4-.3-.7-.5-1.1.2.3.4.7.5 1.1zm-2-5.4c-.1-.3-.2-.5-.2-.8 0 .3.1.6.2.8zm4 9.7-.6-1.2.6 1.2zm2.2 4-.3-.6.3.6zm28.6 28.7c-.4-.2-.8-.5-1.2-.7.4.3.8.5 1.2.7zM730 742.8c.1.2.1.4.2.6 0-.2-.1-.3-.1-.5l-.1-.1zm40.5 49.7c-.1 0-.1-.1-.2-.1 0 0 .1 0 .2.1zm5.5 2.5c-.4-.2-.9-.3-1.3-.5.5.1.9.3 1.3.5zm4.7 1.7c-.4-.2-.9-.3-1.3-.5.4.2.8.3 1.3.5z" class="st20"/><path d="M730.1 743c0 .2.1.3.1.5.3 1.2.7 2.4 1.1 3.6.1.3.2.5.2.8.5 1.4 1 2.8 1.6 4.2.2.4.3.7.5 1.1.4 1.1.9 2.1 1.4 3.1l.6 1.2c.6 1.1 1.2 2.3 1.8 3.4l.3.6c.7 1.3 1.5 2.6 2.4 3.8.2.3.5.7.7 1 .6.9 1.3 1.9 2 2.8.3.4.5.7.8 1.1.8 1 1.6 2.1 2.5 3.1.1.1.2.3.4.5 1 1.1 2 2.2 3.1 3.3l.9.9c.8.8 1.6 1.6 2.5 2.4.3.3.7.6 1 .9 1 .9 2.1 1.8 3.2 2.7l.3.3c1.2.9 2.4 1.8 3.7 2.7.4.2.7.5 1.1.7 1 .6 1.9 1.3 2.9 1.8.4.2.8.5 1.2.7 1.3.7 2.6 1.5 3.9 2.1.1 0 .1.1.2.1 1.4.7 2.8 1.3 4.3 2 .4.2.8.3 1.3.5 1.1.4 2.2.9 3.3 1.3.4.2.9.3 1.3.5 1.5.5 3.1 1 4.6 1.4 1.2.3 2.3.6 3.5.8.3.1.6.1.9.2 1 .2 2 .4 3.1.6.1 0 .3.1.4.1 1.2.2 2.3.3 3.4.5.3 0 .6.1.9.1 1 .1 1.9.2 2.9.2h.7c1.1.1 2.3.1 3.4.1h4.4c1.1 0 2.2-.1 3.4-.2.2 0 .4 0 .7-.1.9-.1 1.9-.2 2.8-.3.3 0 .6-.1.9-.1h.1c1.5-2 3-4.1 4.4-6.1-60.7 12-89.8-48.1-91.1-50.9z" class="st18"/><path d="M730.1 743c0 .2.1.3.1.5.3 1.2.7 2.4 1.1 3.6.1.3.2.5.2.8.5 1.4 1 2.8 1.6 4.2.2.4.3.7.5 1.1.4 1.1.9 2.1 1.4 3.1l.6 1.2c.6 1.1 1.2 2.3 1.8 3.4l.3.6c.7 1.3 1.5 2.6 2.4 3.8.2.3.5.7.7 1 .6.9 1.3 1.9 2 2.8.3.4.5.7.8 1.1.8 1 1.6 2.1 2.5 3.1.1.1.2.3.4.5 1 1.1 2 2.2 3.1 3.3l.9.9c.8.8 1.6 1.6 2.5 2.4.3.3.7.6 1 .9 1 .9 2.1 1.8 3.2 2.7l.3.3c1.2.9 2.4 1.8 3.7 2.7.4.2.7.5 1.1.7 1 .6 1.9 1.3 2.9 1.8.4.2.8.5 1.2.7 1.3.7 2.6 1.5 3.9 2.1.1 0 .1.1.2.1 1.4.7 2.8 1.3 4.3 2 .4.2.8.3 1.3.5 1.1.4 2.2.9 3.3 1.3.4.2.9.3 1.3.5 1.5.5 3.1 1 4.6 1.4 1.2.3 2.3.6 3.5.8.3.1.6.1.9.2 1 .2 2 .4 3.1.6.1 0 .3.1.4.1 1.2.2 2.3.3 3.4.5.3 0 .6.1.9.1 1 .1 1.9.2 2.9.2h.7c1.1.1 2.3.1 3.4.1h4.4c1.1 0 2.2-.1 3.4-.2.2 0 .4 0 .7-.1.9-.1 1.9-.2 2.8-.3.3 0 .6-.1.9-.1h.1c1.5-2 3-4.1 4.4-6.1-60.7 12-89.8-48.1-91.1-50.9z" class="st20"/><g class="st21"><path d="M889.1 325.3c0-30.7-32.8-55.9-72.8-55.9H117.1c-40.1 0-72.8 25.1-72.8 55.9s32.8 55.9 72.8 55.9h699.2c40 0 72.8-25.2 72.8-55.9z" class="st22"/></g><path d="M917.5 314c0-33.2-35.1-60.4-78-60.4h-739c-42.9 0-78 27.2-78 60.4s35.1 60.4 78 60.4h739.1c42.8 0 77.9-27.2 77.9-60.4z" class="st23"/><path fill="none" stroke="#e4edf7" stroke-linecap="round" stroke-miterlimit="10" stroke-width="13.463" d="M106.5 280h466.2" opacity=".1"/><path fill="none" stroke="#e4edf7" stroke-linecap="round" stroke-miterlimit="10" stroke-width="12.042" d="M606.3 280H640" opacity=".15"/><path fill="none" stroke="#e4edf7" stroke-linecap="round" stroke-miterlimit="10" stroke-width="13.463" d="M674.5 280h146.1" opacity=".2"/><path fill="#fff" stroke="#fff" stroke-miterlimit="10" stroke-width="30" d="M1582.2 154.6c-36.9 0-70 16.5-92.2 42.6-13.6-16.3-34-26.6-56.8-26.6-40.9 0-74 33.1-74 74 0 .7 0 1.3.1 2-3.9-.7-7.9-1-12.1-1-40.3 0-73 32.7-73 73 0 0 146 2 145.9 2h49.7c17.9 44.5 61.4 76 112.3 76 66.8 0 121-54.2 121-121s-54-121-120.9-121z"/><path fill="#fff" stroke="#fff" stroke-miterlimit="10" stroke-width="22" d="M1730.7 365.5c56.1 128 2.6 278.9-123.8 342.1-130.5 65.3-289.2 12.4-354.4-118-36.4-72.8-36.1-154.3-6-223.5"/><path d="M1762.7 331.2c0-20.4-21.5-37-47.7-37h-452.4c-26.3 0-47.7 16.7-47.7 37 0 20.4 21.5 37 47.7 37H1715c26.2 0 47.7-16.6 47.7-37z" class="st5"/><path fill="none" stroke="#fff" stroke-miterlimit="10" stroke-width="22" d="M1762.7 331.2c0-20.4-21.5-37-47.7-37h-452.4c-26.3 0-47.7 16.7-47.7 37 0 20.4 21.5 37 47.7 37H1715c26.2 0 47.7-16.6 47.7-37z"/><path fill="#e7ad22" stroke="#e7ad22" stroke-miterlimit="10" stroke-width="8" d="M1582.2 154.6c-36.9 0-70 16.5-92.2 42.6-13.6-16.3-34-26.6-56.8-26.6-40.9 0-74 33.1-74 74 0 .7 0 1.3.1 2-3.9-.7-7.9-1-12.1-1-40.3 0-73 32.7-73 73 0 0 146 2 145.9 2h49.7c17.9 44.5 61.4 76 112.3 76 66.8 0 121-54.2 121-121s-54-121-120.9-121z"/><path d="M1582.2 154.6c-36.9 0-70 16.5-92.2 42.6-13.6-16.3-34-26.6-56.8-26.6-40.9 0-74 33.1-74 74 0 .7 0 1.3.1 2-3.9-.7-7.9-1-12.1-1-40.3 0-73 32.7-73 73 0 0 146 2 145.9 2h49.7c17.9 44.5 61.4 76 112.3 76 66.8 0 121-54.2 121-121s-54-121-120.9-121z" class="st9"/><g class="st10"><path d="M1503 204c12.8-15.7 30.9-27.3 50.8-32.8 5-1.5 10.1-2.4 15.2-3.1l3.9-.4 1.9-.2 1.9-.1 3.9-.2h3.9c10.4.2 20.8 2 30.7 5.2 19.8 6.4 37.6 19 50.3 35.3 6.4 8.1 11.5 17.2 15.2 26.8 1.8 4.8 3.3 9.7 4.3 14.7s1.7 10 2 15.1c-3.9-19.8-12.8-38.2-25.7-53.1-12.9-14.8-29.7-26.1-48.2-32.1-9.3-3-18.9-4.8-28.7-5.3l-3.7-.1h-5.5l-1.8.1-3.7.2-3.7.4c-.6.1-1.2.1-1.8.2l-1.8.3-3.6.6-3.6.8c-19.3 4.5-37.3 14.1-52.2 27.7z" class="st11"/></g><g class="st10"><path d="M1383.5 214.5c5.6-12.6 16.7-23 30-28.2 3.3-1.2 6.8-2.4 10.3-3 1.8-.4 3.6-.5 5.3-.8.9-.1 1.8-.1 2.7-.2.9 0 1.8-.1 2.7-.1 7.2-.1 14.5 1.3 21.2 3.9 13.6 5.1 25 15.6 31.3 28.5 1.6 3.2 2.9 6.5 3.8 10 .9 3.4 1.6 6.9 1.9 10.4.5 7-.2 14.1-2.4 20.6 1.4-13.7-1.5-27.2-8.1-38.4-6.7-11.2-17-20-29-24.5-3-1.2-6.1-2.1-9.2-2.7-3.1-.7-6.4-1-9.6-1.1-6.5-.3-12.9.7-19.2 2.5-12.3 3.9-23.5 12-31.7 23.1z" class="st11"/></g><g class="st10"><path d="M1326.8 260c4.8-3.1 10.4-4.8 16.2-5.2 5.8-.4 11.7.3 17.2 2.4 2.8 1 5.4 2.3 7.9 3.8l1.8 1.2.9.6.9.7 1.7 1.4 1.6 1.5.8.8.7.8c.5.5 1 1.1 1.4 1.6.9 1.2 1.8 2.3 2.5 3.5l1.1 1.8c.3.6.7 1.3 1 1.9.7 1.3 1.1 2.6 1.6 4-2.2-1.9-4.1-3.8-6.2-5.4l-.8-.6-.8-.6-1.6-1.2c-1.1-.7-2.1-1.5-3.2-2.2-2.1-1.5-4.4-2.7-6.7-3.9-1.2-.5-2.3-1.2-3.5-1.6l-1.8-.8-1.8-.7c-4.8-1.8-9.8-2.9-14.9-3.5-5-.6-10.3-.6-16-.3z" class="st11"/></g><path d="m1530.7 216.7-7.1 3.9-3.9 7.1-3.9-7.1-7.1-3.9 7.1-3.8 3.9-7.2 3.9 7.2z" class="st12"/><path fill="#f9fae6" d="m1419.8 256.8-7.1 3.9-3.9 7.1-3.9-7.1-7.1-3.9 7.1-3.9 3.9-7.1 3.9 7.1z" opacity=".8"/><path fill="#f9fae6" d="m1664.8 268.8-7.1 3.9-3.9 7.1-3.9-7.1-7.1-3.9 7.1-3.9 3.9-7.1 3.9 7.1z" opacity=".95"/><path fill="#7eaed9" stroke="#7eaed9" stroke-miterlimit="10" d="M1730.7 365.5c56.1 128 2.6 278.9-123.8 342.1-130.5 65.3-289.2 12.4-354.4-118-36.4-72.8-36.1-154.3-6-223.5"/><path fill="#5e82a2" d="M1597.7 564.9c-129.3 51.9-276.2-10.9-328-140.2-6.2-15.4-10.6-31-13.6-46.7-21.5 57-22.8 121.8 1.7 182.7 51.9 129.3 198.7 192.1 328 140.2 113.9-45.7 176.1-165.2 153.8-281.4-24.1 64-73.6 118-141.9 145.4z" opacity=".15"/><defs><path id="SVGID_1_" d="M1700.4 313.2c9.2 12.4 17.5 25.7 24.6 40 65.3 130.5 12.4 289.2-118 354.4s-289.2 12.4-354.4-118c-46.2-92.4-33.2-198.9 24.6-276.4"/></defs><clipPath id="SVGID_2_"><use xlink:href="#SVGID_1_" overflow="visible"/></clipPath><g clip-path="url(#SVGID_2_)"><circle cx="1286.6" cy="470.7" r="32.3" class="st18"/><path d="M1317.2 460.1c-3.4-9.8-11.4-17.7-22.2-20.6-10.8-2.9-21.7 0-29.6 6.8 34-15.8 51.8 13.8 51.8 13.8z" class="st40"/><path d="M1255.4 479.1c2.9 10.8 11.3 19.8 22.9 22.9 11.9 3.2 23.9-.7 31.8-9-37.4 23.8-54.7-13.9-54.7-13.9z" class="st41"/><circle cx="1573.7" cy="580.3" r="15.4" class="st18"/><path d="M1588.2 575.2c-1.6-4.6-5.4-8.4-10.5-9.8-5.1-1.4-10.3 0-14.1 3.2 16.2-7.5 24.6 6.6 24.6 6.6z" class="st40"/><path d="M1558.8 584.2c1.4 5.1 5.4 9.4 10.9 10.9 5.6 1.5 11.4-.3 15.1-4.3-17.8 11.4-26-6.6-26-6.6z" class="st41"/><circle cx="1632.9" cy="411.2" r="17.9" class="st18"/><path d="M1649.8 405.3c-1.9-5.4-6.3-9.8-12.3-11.4-6-1.6-12 0-16.4 3.8 18.9-8.8 28.7 7.6 28.7 7.6z" class="st40"/><path d="M1615.6 415.8c1.6 6 6.3 10.9 12.7 12.7 6.6 1.8 13.3-.4 17.6-5-20.7 13.2-30.3-7.7-30.3-7.7z" class="st41"/><circle cx="1570.6" cy="649.3" r="7.5" class="st18"/><path d="M1577.6 646.9c-.8-2.3-2.6-4.1-5.1-4.8-2.5-.7-5 0-6.8 1.6 7.8-3.7 11.9 3.2 11.9 3.2z" class="st40"/><path d="M1563.4 651.2c.7 2.5 2.6 4.6 5.3 5.3 2.7.7 5.5-.2 7.3-2.1-8.7 5.5-12.6-3.2-12.6-3.2z" class="st41"/><circle cx="1682.6" cy="498.3" r="7.5" class="st18"/><path d="M1689.6 495.8c-.8-2.3-2.6-4.1-5.1-4.8-2.5-.7-5 0-6.8 1.6 7.9-3.6 11.9 3.2 11.9 3.2z" class="st40"/><path d="M1675.4 500.2c.7 2.5 2.6 4.6 5.3 5.3 2.7.7 5.5-.2 7.3-2.1-8.6 5.5-12.6-3.2-12.6-3.2z" class="st41"/><circle cx="1355.8" cy="553.3" r="8" class="st18"/><path d="M1363.3 550.7c-.8-2.4-2.8-4.4-5.5-5.1-2.7-.7-5.4 0-7.3 1.7 8.4-3.9 12.8 3.4 12.8 3.4z" class="st40"/><path d="M1348.1 555.3c.7 2.7 2.8 4.9 5.6 5.6 2.9.8 5.9-.2 7.8-2.2-9.2 5.9-13.4-3.4-13.4-3.4z" class="st41"/><circle cx="1265.2" cy="614" r="31.4" class="st18"/><path d="M1294.8 603.7c-3.3-9.5-11.1-17.2-21.5-20-10.5-2.8-21.1 0-28.7 6.6 33-15.4 50.2 13.4 50.2 13.4z" class="st40"/><path d="M1234.8 622.1c2.8 10.5 11 19.2 22.2 22.2 11.5 3.1 23.2-.6 30.9-8.7-36.3 23.1-53.1-13.5-53.1-13.5z" class="st41"/><circle cx="1429.4" cy="638.7" r="44.3" class="st18"/><path d="M1471.3 624.2c-4.7-13.4-15.6-24.3-30.4-28.2-14.8-4-29.8 0-40.5 9.3 46.6-21.7 70.9 18.9 70.9 18.9z" class="st40"/><path d="M1386.7 650.1c4 14.8 15.5 27.1 31.3 31.3 16.2 4.3 32.8-.9 43.6-12.3-51.3 32.6-74.9-19-74.9-19z" class="st41"/><circle cx="1694.1" cy="581.4" r="47.8" class="st18"/><path d="M1739.3 565.7c-5-14.5-16.9-26.3-32.8-30.5-15.9-4.3-32.2 0-43.8 10.1 50.4-23.5 76.6 20.4 76.6 20.4z" class="st40"/><path d="M1647.9 593.7c4.3 16 16.7 29.2 33.8 33.8 17.5 4.7 35.4-1 47.1-13.3-55.3 35.3-80.9-20.5-80.9-20.5z" class="st41"/></g><g class="st21"><path d="M1745.3 338.1c0-18.8-20.1-34.2-44.6-34.2h-428c-24.5 0-44.6 15.4-44.6 34.2s20.1 34.2 44.6 34.2h428c24.5 0 44.6-15.4 44.6-34.2z" class="st22"/></g><path d="M1762.7 331.2c0-20.4-21.5-37-47.7-37h-452.4c-26.3 0-47.7 16.7-47.7 37 0 20.4 21.5 37 47.7 37H1715c26.2 0 47.7-16.6 47.7-37z" class="st23"/><path fill="#b0cce6" stroke="#e4edf7" stroke-linecap="round" stroke-miterlimit="10" stroke-width="8.242" d="M1266.2 310.4h285.4" opacity=".1"/><path fill="#b0cce6" stroke="#e4edf7" stroke-linecap="round" stroke-miterlimit="10" stroke-width="7.372" d="M1572.2 310.4h20.6" opacity=".15"/><circle cx="470" cy="557.6" r="138.9" fill="#f9e2ab"/><path d="m472 509.7 31.3 31.3c1.1 1.1 3 1.1 4.1 0l16.5-16.5c1.1-1.1 1.1-3 0-4.1L472 468.6c-1.1-1.1-3-1.1-4.1 0L416 520.5c-1.1 1.1-1.1 3 0 4.1l16.5 16.5c1.1 1.1 3 1.1 4.1 0l31.3-31.3c1.2-1.2 3-1.2 4.1-.1zm-74.5 29.4L381 555.6c-1.1 1.1-1.1 3 0 4.1l16.5 16.5c1.1 1.1 3 1.1 4.1 0l16.5-16.5c1.1-1.1 1.1-3 0-4.1l-16.5-16.5c-1.2-1.2-3-1.2-4.1 0zM472 646.6l51.9-51.9c1.1-1.1 1.1-3 0-4.1l-16.5-16.5c-1.1-1.1-3-1.1-4.1 0L472 605.5c-1.1 1.1-3 1.1-4.1 0l-31.3-31.3c-1.1-1.1-2.9-1.1-4.1 0L416 590.7c-1.1 1.1-1.1 3 0 4.1l51.9 51.9c1.2 1.1 3 1.1 4.1-.1zm66.4-107.5-16.5 16.5c-1.1 1.1-1.1 3 0 4.1l16.5 16.5c1.1 1.1 3 1.1 4.1 0l16.5-16.5c1.1-1.1 1.1-3 0-4.1l-16.5-16.5c-1.1-1.2-2.9-1.2-4.1 0z" class="st46"/><path d="M488.9 555.6 472 538.7c-1.1-1.1-3-1.1-4.1 0l-16.8 16.8c-1.1 1.1-1.1 3 0 4.1l16.8 16.8c1.1 1.1 3 1.1 4.1 0l16.8-16.8c1.2-1.1 1.2-2.9.1-4z" class="st46"/></svg>