<svg xmlns="http://www.w3.org/2000/svg" xml:space="preserve" viewBox="0 0 1080 1080"><path fill="#FFF" stroke="#FFF" stroke-miterlimit="10" stroke-width="52.02" d="M702.129 36.273c-64.023 0-121.339 28.685-159.824 73.894-23.538-28.198-58.939-46.15-98.543-46.15-70.867 0-128.316 57.449-128.316 128.316 0 1.168.057 2.322.088 3.482a127.354 127.354 0 0 0-20.896-1.748c-69.909 0-126.582 56.673-126.582 126.582 0 0 253.164 3.468 253.076 3.468h86.183c30.964 77.234 106.513 131.784 194.813 131.784 115.877 0 209.814-93.937 209.814-209.814S818.006 36.273 702.129 36.273z"/><path fill="#FFF" stroke="#FFF" stroke-miterlimit="10" stroke-width="38.148" d="M959.653 401.963c97.322 221.93 4.473 483.593-214.695 593.25-226.237 113.195-501.402 21.557-614.597-204.681-63.127-126.169-62.549-267.555-10.446-387.579"/><path fill="#FFF" d="M1015 342.581c0-35.288-37.243-64.161-82.762-64.161H147.762C102.243 278.42 65 307.293 65 342.581s37.243 64.161 82.762 64.161h784.477c45.518 0 82.761-28.872 82.761-64.161z"/><path fill="none" stroke="#FFF" stroke-miterlimit="10" stroke-width="38.148" d="M1015 342.581c0-35.288-37.243-64.161-82.762-64.161H147.762C102.243 278.42 65 307.293 65 342.581s37.243 64.161 82.762 64.161h784.477c45.518 0 82.761-28.872 82.761-64.161z"/><path fill="#E7AD22" stroke="#E7AD22" stroke-miterlimit="10" stroke-width="13.872" d="M702.129 36.273c-64.023 0-121.339 28.685-159.824 73.894-23.538-28.198-58.939-46.15-98.543-46.15-70.867 0-128.316 57.449-128.316 128.316 0 1.168.057 2.322.088 3.482a127.354 127.354 0 0 0-20.896-1.748c-69.909 0-126.582 56.673-126.582 126.582 0 0 253.164 3.468 253.076 3.468h86.183c30.964 77.234 106.513 131.784 194.813 131.784 115.877 0 209.814-93.937 209.814-209.814S818.006 36.273 702.129 36.273z"/><path fill="#F1C616" d="M702.129 36.273c-64.023 0-121.339 28.685-159.824 73.894-23.538-28.198-58.939-46.15-98.543-46.15-70.867 0-128.316 57.449-128.316 128.316 0 1.168.057 2.322.088 3.482a127.354 127.354 0 0 0-20.896-1.748c-69.909 0-126.582 56.673-126.582 126.582 0 0 253.164 3.468 253.076 3.468h86.183c30.964 77.234 106.513 131.784 194.813 131.784 115.877 0 209.814-93.937 209.814-209.814S818.006 36.273 702.129 36.273z"/><path fill="#E7AD22" d="M564.715 122.079c5.605-6.728 11.659-13.153 18.274-19.009a42.925 42.925 0 0 1 2.492-2.182l2.556-2.111c1.711-1.4 3.402-2.836 5.208-4.116l5.347-3.957c1.828-1.254 3.687-2.466 5.535-3.703.927-.614 1.848-1.239 2.792-1.826l2.877-1.685c1.927-1.108 3.825-2.283 5.786-3.339 3.956-2.042 7.895-4.157 12.004-5.908l3.057-1.376 1.531-.684 1.563-.603 6.264-2.408c2.089-.807 4.243-1.422 6.365-2.142 2.128-.701 4.257-1.412 6.436-1.941l6.506-1.721c2.184-.512 4.388-.938 6.583-1.409l3.3-.683c1.106-.195 2.219-.343 3.328-.517l6.669-1.003 6.712-.663 3.36-.322 3.371-.139 6.746-.265 6.753.06c2.253-.016 4.502.132 6.75.277 2.247.162 4.503.222 6.74.514l6.724.736 6.686 1.038c2.238.301 4.435.824 6.645 1.277 2.207.469 4.424.895 6.599 1.502 2.182.573 4.375 1.113 6.548 1.717l6.47 1.996c8.558 2.873 16.934 6.283 25.023 10.289 8.031 4.116 15.803 8.724 23.194 13.88 7.378 5.176 14.337 10.927 20.865 17.107 1.605 1.574 3.257 3.099 4.819 4.714l4.628 4.897c1.518 1.654 2.94 3.395 4.412 5.086 1.489 1.677 2.857 3.457 4.237 5.224 5.53 7.053 10.566 14.489 14.913 22.296 4.358 7.794 8.266 15.83 11.375 24.165a46.584 46.584 0 0 1 1.139 3.131l1.074 3.153 1.071 3.148.93 3.194.925 3.19c.314 1.061.622 2.122.863 3.204l1.513 6.455c.444 2.163.807 4.344 1.212 6.508.434 2.159.708 4.348.992 6.53.622 4.355.901 8.749 1.2 13.113-1-4.278-1.784-8.566-3.002-12.762-1.005-4.236-2.373-8.375-3.651-12.512-2.76-8.226-5.985-16.252-9.742-23.997l-2.88-5.77-3.116-5.638c-1.005-1.893-2.173-3.697-3.274-5.534l-1.668-2.744c-.558-.912-1.184-1.784-1.772-2.678-1.209-1.766-2.35-3.573-3.603-5.305l-3.776-5.175c-2.644-3.352-5.253-6.725-8.092-9.905-22.319-25.74-51.425-45.269-83.593-55.734-8.008-2.719-16.256-4.664-24.56-6.236-8.303-1.646-16.756-2.397-25.209-2.874l-6.354-.232-6.36.079-3.182.041-3.175.193-6.357.381-6.33.709c-1.055.124-2.114.222-3.166.366l-3.145.51c-2.096.346-4.205.644-6.297 1.027l-6.244 1.332c-2.095.399-4.144.98-6.206 1.517-2.054.565-4.144 1.025-6.175 1.676-4.063 1.298-8.162 2.525-12.146 4.085-4.056 1.387-7.942 3.184-11.908 4.832-1.965.862-3.872 1.845-5.816 2.763l-2.906 1.401-2.841 1.525c-7.7 3.887-14.913 8.662-22.059 13.576l-5.258 3.846c-1.765 1.274-3.392 2.714-5.109 4.058-3.49 2.633-6.623 5.665-9.99 8.49zm-207.118 18.088c2.509-5.389 5.4-10.698 8.985-15.561.83-1.27 1.78-2.443 2.734-3.618.965-1.164 1.868-2.397 2.895-3.512 2.055-2.231 4.096-4.507 6.367-6.548 8.849-8.45 19.532-15.03 31.04-19.686 1.449-.553 2.924-1.04 4.389-1.562l2.204-.769c.739-.242 1.495-.426 2.243-.642l4.512-1.222c1.52-.341 3.054-.619 4.583-.93l2.298-.453c.767-.147 1.545-.215 2.317-.325l4.652-.576c1.554-.153 3.117-.188 4.677-.286 1.561-.072 3.124-.202 4.688-.155 12.523-.112 25.077 2.306 36.811 6.778 23.553 8.916 43.251 27.104 54.298 49.35 5.502 11.137 8.851 23.247 9.834 35.428.086 1.527.207 3.047.259 4.569l.038 4.564c-.133 3.039-.203 6.065-.598 9.065-.353 3-.835 5.975-1.454 8.911-.664 2.929-1.415 5.825-2.372 8.651 2.471-23.688-2.528-47.213-14.097-66.638-11.577-19.385-29.457-34.647-50.276-42.579-5.182-2.025-10.547-3.572-16.004-4.679-1.37-.249-2.731-.553-4.109-.761l-4.142-.581-4.17-.373c-1.391-.119-2.789-.141-4.185-.22-11.187-.424-22.419 1.191-33.237 4.406-21.618 6.659-41.066 20.772-55.18 39.954zm-98.333 78.943c4.109-2.726 8.669-4.714 13.409-6.21 4.748-1.465 9.703-2.412 14.714-2.737 10.017-.686 20.345.607 29.89 4.158l3.566 1.355 3.46 1.607 1.715.83 1.663.931c1.105.626 2.22 1.231 3.306 1.884l3.155 2.124c.522.357 1.052.701 1.566 1.07l1.486 1.183 2.95 2.371 2.757 2.59c.456.433.917.857 1.361 1.301l1.268 1.398c.841.933 1.686 1.855 2.496 2.805.764.997 1.535 1.98 2.275 2.983l1.104 1.503 1.011 1.574 1.946 3.167c.568 1.11 1.145 2.203 1.677 3.317.268.556.545 1.101.8 1.66l.677 1.728c.415 1.17.865 2.303 1.228 3.477-.961-.798-1.833-1.637-2.742-2.438l-1.308-1.229-1.364-1.169c-.911-.772-1.777-1.565-2.652-2.341l-2.725-2.213-1.325-1.115-1.393-1.038-2.721-2.096c-1.924-1.26-3.67-2.688-5.616-3.851-3.725-2.538-7.673-4.648-11.577-6.736-1.017-.45-2.004-.95-3.002-1.427l-1.491-.724-1.536-.625-3.045-1.301-3.106-1.142c-8.27-3.095-16.948-4.968-25.901-6.058-8.986-1.145-18.174-1.08-27.976-.566z" opacity=".45"/><g fill="#F9FAE6"><path d="m612.796 144.102-12.33 6.744-6.744 12.33-6.743-12.33-12.331-6.744 12.331-6.744 6.743-12.33 6.744 12.33z"/><path d="m420.405 213.606-12.33 6.744-6.744 12.331-6.743-12.331-12.331-6.744 12.331-6.743 6.743-12.33 6.744 12.33z" opacity=".8"/><path d="m845.236 234.414-12.331 6.744-6.744 12.331-6.743-12.331-12.33-6.744 12.33-6.743 6.743-12.33 6.744 12.33z" opacity=".95"/></g><path fill="#7EAED9" stroke="#7EAED9" stroke-miterlimit="10" stroke-width="1.734" d="M959.653 401.963c97.322 221.93 4.473 483.593-214.695 593.25-226.237 113.195-501.402 21.557-614.597-204.681-63.127-126.169-62.549-267.555-10.446-387.579"/><path fill="#5E82A2" d="M728.932 747.837c-224.202 89.95-478.873-18.88-568.824-243.085-10.688-26.64-18.368-53.722-23.583-80.894-37.234 98.804-39.484 211.12 2.93 316.838 89.95 224.202 344.621 333.035 568.824 243.085 197.563-79.262 305.346-286.418 266.67-487.933-41.733 110.737-127.532 204.453-246.017 251.989z" opacity=".15"/><circle cx="540" cy="601.151" r="147.375" fill="#DBBC9F" transform="rotate(-45.001 539.996 601.16)"/><path fill="#46739D" d="M171.064 531.613c.124-.044.248-.09.373-.132-.125.042-.249.088-.373.132zm7.811-2.118c.17-.033.34-.067.511-.098-.171.031-.341.064-.511.098zm-29.602 93.969c-.139-.144-.275-.289-.412-.434l.412.434zm32.454-94.452c.132-.019.264-.034.396-.051-.132.017-.265.032-.396.051zm-8.05 1.755c.164-.049.33-.096.495-.143-.165.048-.33.094-.495.143zm-27.966 88.631c-.122-.154-.242-.309-.363-.464.121.156.241.311.363.464zm1.708 2.049-.195-.218c.064.074.131.145.195.218zm-9.823-15.966c-.072-.177-.14-.356-.21-.534.069.179.138.357.21.534zm23.75-69.383c.148-.086.296-.17.445-.255-.149.084-.297.169-.445.255zm-4.429 2.864c.106-.076.214-.149.32-.224-.106.075-.214.148-.32.224zm-20.248 64.061c-.045-.128-.093-.256-.137-.384.044.129.092.256.137.384zm17.969-62.337.402-.319-.402.319zm-18.825 59.695c-.054-.181-.104-.363-.156-.544.052.181.102.363.156.544zm2.874 7.618c-.053-.115-.109-.229-.162-.344.053.115.109.229.162.344zm20.332-70.468c.109-.071.217-.144.327-.215-.109.071-.217.144-.327.215zm-16.455 77.492c-.105-.162-.208-.325-.311-.488.103.162.206.326.311.488zm26.116-82.516c.121-.049.243-.094.365-.142-.122.048-.244.093-.365.142zm-24.597 84.738c-.063-.087-.128-.173-.191-.261.062.088.128.174.191.261zm-2.918-4.494c-.059-.102-.121-.201-.18-.303.059.102.121.201.18.303zm22.727-78.056.011-.006c-.003.003-.007.004-.011.006zm-24.039 75.679c-.089-.171-.176-.344-.263-.516.087.172.174.344.263.516zm26.204-76.73.467-.215-.467.215zm62.477 91.122c-.152.147-.306.293-.46.439l.46-.439zm12.891-61.439zm-1.266-2.851zm-17.796 69.451c-.126.091-.25.184-.376.274.126-.09.25-.183.376-.274zm2.078-1.571c-.159.127-.32.25-.481.375l.481-.375zm2.063-1.722c-.077.067-.152.137-.229.204.078-.066.152-.136.229-.204zm12.171-69.058zm-2.022-3.424zm-85.499 71.171c-.063-.059-.128-.116-.19-.176.062.06.127.117.19.176zm61.965 10.017c-.185.086-.369.172-.555.256.186-.084.37-.17.555-.256zm-2.74 1.191c-.095.038-.192.073-.288.11.096-.037.193-.072.288-.11zm-2.271.849zm11.917-5.851c-.155.1-.312.197-.469.296.157-.099.314-.196.469-.296z"/><path fill="#46739D" d="M230.234 623.06c6.221-6.553 10.942-14.707 13.445-24.049 3.017-11.259 2.378-22.635-1.185-32.872-.341-.566-31.045-51.22-89.713-23.918-8.151 7.075-14.349 16.575-17.352 27.785a55.752 55.752 0 0 0 .029 29.086c1.153 2.447 31.152 64.426 94.776 23.968zm4.68-71.44zm-17.029 81.224c-.161.094-.32.19-.482.283.162-.092.321-.188.482-.283zm-2.557 1.416c-.139.072-.28.14-.419.211.139-.071.28-.139.419-.211zm-22.773-105.711c.177.01.355.019.532.03l-.532-.03zm8.463 1.114c.178.037.356.077.534.116-.178-.039-.356-.079-.534-.116zm3.04.72zm4.112 1.289zm-10.003-2.531c.136.021.272.04.408.062-.136-.022-.272-.04-.408-.062zm-11.086-.622c.174-.008.349-.013.524-.019-.175.005-.35.011-.524.019zm8.44.268c.134.015.268.033.403.048-.135-.015-.269-.033-.403-.048zm37.491 20.363zm-48.719-20.438c.133-.013.266-.028.399-.039-.133.011-.266.027-.399.039zm27.051 4.181zm2.955 1.338zm13.781 9.574zm2.806 2.881zm-5.118-4.944zm-2.464-1.965zm-6.192-4.074zm3.503 2.169z"/><path fill="#46739D" d="M155.266 628.84c-.059-.046-.12-.089-.178-.135l.178.135zm-2.038-1.659-.457-.395c.152.132.303.264.457.395zm36.186 13.367c-.192-.001-.384.001-.577-.001.193.002.385 0 .577.001zm2.583-.048c-.191.008-.382.012-.573.018.191-.006.382-.01.573-.018zm-8.158-.25c-.211-.022-.421-.043-.632-.067.21.024.421.045.632.067zm11.046.046c-.159.015-.317.034-.476.048.158-.014.317-.033.476-.048zm-14.154-.45c-.105-.017-.211-.038-.316-.056.105.017.21.039.316.056zm19.456-.314c-.103.02-.204.043-.307.062.103-.019.205-.042.307-.062zm2.705-.596c-.207.051-.415.1-.623.149.208-.049.416-.098.623-.149zm-5.383 1.048c-.204.029-.41.056-.615.083.205-.028.41-.054.615-.083zm-11.118.477c-.16-.009-.321-.024-.481-.034.16.01.321.025.481.034zm-21.865-5.809-.107-.052.107.052zm-2.286-1.21-.539-.305.539.305zm5.019 2.474c-.194-.084-.386-.169-.579-.254.193.086.386.171.579.254zm-9.701-5.397zm20.653 8.856zm-18.481-7.416c-.05-.031-.101-.06-.15-.092.05.032.101.061.15.092zm9.919 4.931-.068-.024.068.024zm2.942 1.016z"/><path fill="#172734" d="M198.576 529.204zm35.739 21.617c.2.266.403.529.598.799-.194-.27-.398-.533-.598-.799zm-32.763-21.042zm30.772 18.539zm-2.069-2.324c.215.227.42.462.631.692-.21-.231-.416-.465-.631-.692zm-7.833-6.871zm2.575 1.987c.257.21.518.417.771.632-.253-.215-.514-.422-.771-.632zm-5.188-3.775c.272.175.537.358.806.537-.269-.179-.534-.363-.806-.537zm-2.818-1.696c.039.022.081.042.12.064-.039-.022-.08-.042-.12-.064zm-6.698-3.176zm-3.087-1.129c.324.107.642.226.964.338-.321-.112-.639-.231-.964-.338zm20.695 12.309c.059.055.121.107.18.162-.059-.056-.122-.107-.18-.162zM213.38 533.8c.306.143.616.282.919.431-.303-.149-.613-.287-.919-.431zm-20.293-5.22zm-31.296 7.263zm-2.444 1.474zm4.556-2.627zm2.621-1.261zm2.521-1.064zm-14.005 8.003zm2.197-1.63zm83.792 23.663c.133.308.269.615.396.926-.127-.311-.263-.617-.396-.926zm-88.247-20.181zm89.721 23.932c-.039-.112-.087-.221-.127-.333.038.107.082.212.119.32l.008.013zm-71.066-34.671zm65.026 22.39c.062.095.129.186.191.281-.062-.095-.129-.186-.191-.281zm1.774 2.904c.151.264.291.535.438.801-.147-.267-.287-.537-.438-.801zm-50.632-28.276zm-13.433 2.125zm21.752-1.788zm-5.85-.373zm49.616 31.047zm-60.304-30.114zm-2.878.607zm5.614-1.043zm2.57-.287z" opacity=".5"/><path fill="#46739D" d="M242.495 566.139c-.037-.108-.081-.213-.119-.32a56.282 56.282 0 0 0-.951-2.492c-.127-.311-.263-.617-.396-.926a56.398 56.398 0 0 0-1.339-2.892 55.502 55.502 0 0 0-1.016-1.933c-.146-.267-.287-.537-.438-.801a56.338 56.338 0 0 0-1.584-2.623c-.061-.095-.129-.187-.191-.281a56.793 56.793 0 0 0-1.549-2.251c-.195-.269-.398-.533-.598-.799a56.7 56.7 0 0 0-1.991-2.503 55.35 55.35 0 0 0-1.438-1.632c-.211-.23-.416-.465-.631-.692a55.418 55.418 0 0 0-2.175-2.189c-.058-.055-.121-.107-.18-.162a55.92 55.92 0 0 0-2.133-1.901c-.253-.215-.514-.421-.771-.632a56.352 56.352 0 0 0-2.575-1.986 54.17 54.17 0 0 0-1.807-1.251c-.269-.179-.534-.363-.806-.537a55.79 55.79 0 0 0-2.697-1.631c-.039-.022-.081-.042-.12-.064-.88-.493-1.78-.96-2.693-1.408-.303-.149-.612-.287-.919-.431a58.262 58.262 0 0 0-3.086-1.338 55.386 55.386 0 0 0-2.123-.79c-.321-.113-.639-.231-.964-.338a56.53 56.53 0 0 0-3.149-.951c-.835-.224-1.67-.42-2.505-.604-.178-.039-.356-.079-.534-.116a55.113 55.113 0 0 0-2.442-.459c-.136-.022-.272-.041-.408-.062a57.786 57.786 0 0 0-2.244-.306c-.134-.016-.268-.034-.403-.048a55.861 55.861 0 0 0-2.966-.238 55.73 55.73 0 0 0-2.48-.087 54.833 54.833 0 0 0-2.469.037l-.524.019c-.799.035-1.596.085-2.389.154l-.399.039c-.726.069-1.45.151-2.171.248l-.396.051a57.354 57.354 0 0 0-2.852.482c-.793.155-1.583.32-2.367.508-.785.189-1.562.4-2.336.622-.165.047-.33.094-.495.143-.752.223-1.5.46-2.241.714-.125.043-.248.089-.373.132-.678.238-1.351.488-2.019.752-.121.048-.244.093-.365.142a56.98 56.98 0 0 0-2.623 1.137c-.724.335-1.444.68-2.153 1.046l-.011.006c-.71.366-1.408.752-2.102 1.147-.148.085-.297.169-.445.255a55.79 55.79 0 0 0-1.999 1.219c-.11.07-.218.143-.327.215-.602.391-1.196.793-1.782 1.207-.107.075-.214.148-.32.224-.635.455-1.26.925-1.877 1.406-.135.105-.268.212-.402.319a55.463 55.463 0 0 0-1.855 1.534c58.668-27.304 89.372 23.349 89.713 23.916z"/><path fill="#172734" d="M242.495 566.139c-.037-.108-.081-.213-.119-.32a56.282 56.282 0 0 0-.951-2.492c-.127-.311-.263-.617-.396-.926a56.398 56.398 0 0 0-1.339-2.892 55.502 55.502 0 0 0-1.016-1.933c-.146-.267-.287-.537-.438-.801a56.338 56.338 0 0 0-1.584-2.623c-.061-.095-.129-.187-.191-.281a56.793 56.793 0 0 0-1.549-2.251c-.195-.269-.398-.533-.598-.799a56.7 56.7 0 0 0-1.991-2.503 55.35 55.35 0 0 0-1.438-1.632c-.211-.23-.416-.465-.631-.692a55.418 55.418 0 0 0-2.175-2.189c-.058-.055-.121-.107-.18-.162a55.92 55.92 0 0 0-2.133-1.901c-.253-.215-.514-.421-.771-.632a56.352 56.352 0 0 0-2.575-1.986 54.17 54.17 0 0 0-1.807-1.251c-.269-.179-.534-.363-.806-.537a55.79 55.79 0 0 0-2.697-1.631c-.039-.022-.081-.042-.12-.064-.88-.493-1.78-.96-2.693-1.408-.303-.149-.612-.287-.919-.431a58.262 58.262 0 0 0-3.086-1.338 55.386 55.386 0 0 0-2.123-.79c-.321-.113-.639-.231-.964-.338a56.53 56.53 0 0 0-3.149-.951c-.835-.224-1.67-.42-2.505-.604-.178-.039-.356-.079-.534-.116a55.113 55.113 0 0 0-2.442-.459c-.136-.022-.272-.041-.408-.062a57.786 57.786 0 0 0-2.244-.306c-.134-.016-.268-.034-.403-.048a55.861 55.861 0 0 0-2.966-.238 55.73 55.73 0 0 0-2.48-.087 54.833 54.833 0 0 0-2.469.037l-.524.019c-.799.035-1.596.085-2.389.154l-.399.039c-.726.069-1.45.151-2.171.248l-.396.051a57.354 57.354 0 0 0-2.852.482c-.793.155-1.583.32-2.367.508-.785.189-1.562.4-2.336.622-.165.047-.33.094-.495.143-.752.223-1.5.46-2.241.714-.125.043-.248.089-.373.132-.678.238-1.351.488-2.019.752-.121.048-.244.093-.365.142a56.98 56.98 0 0 0-2.623 1.137c-.724.335-1.444.68-2.153 1.046l-.011.006c-.71.366-1.408.752-2.102 1.147-.148.085-.297.169-.445.255a55.79 55.79 0 0 0-1.999 1.219c-.11.07-.218.143-.327.215-.602.391-1.196.793-1.782 1.207-.107.075-.214.148-.32.224-.635.455-1.26.925-1.877 1.406-.135.105-.268.212-.402.319a55.463 55.463 0 0 0-1.855 1.534c58.668-27.304 89.372 23.349 89.713 23.916z" opacity=".5"/><path fill="#BAB1CB" d="M147.225 621.229zm1.636 1.801zm8.196 7.135zm-11.708-11.23zm9.739 9.77zm-2.317-1.919zm-1.808-1.638zm-7.071-8.164zm-5.366-9.329zm-1.994-5.016zm-1.112-3.63c.075.277.158.552.237.828-.07-.247-.131-.497-.198-.745l-.039-.083zm24.16 32.859zm-18.594-19.42zm1.267 2.086zm-2.663-4.676zm-2.205-4.91zm45.821 35.235zm5.632.364zm2.585-.029zm2.985-.174zm-32.707-7.207zm38.179 6.457zm2.389-.509zm-5.375.981zm33.34-17.006zm-44.324 17.367zm-16.329-3.561zm10.833 2.924zm-15.995-5.19zm2.262 1.062zm5.297 2.046zm33.239.609zm-30.165.316zm2.496.602zm35.016-3.639zm15.51-10.391zm-10.671 7.922zm-7.311 3.514zm-4.875 1.676zm9.692-3.846zm4.648-2.646zm4.403-3.094zm2.316-1.892zm-4.289 3.362z" opacity=".25"/><path fill="#46739D" d="M208.108 637.38c.666-.234 1.328-.48 1.984-.739.096-.038.192-.072.288-.11a55.37 55.37 0 0 0 2.185-.935c.186-.084.37-.17.555-.256a55.65 55.65 0 0 0 1.789-.869c.139-.071.28-.139.419-.211.7-.363 1.391-.741 2.075-1.133.162-.093.321-.189.482-.283.563-.33 1.12-.67 1.672-1.019.156-.099.313-.196.469-.296a55.261 55.261 0 0 0 1.961-1.328c.127-.09.25-.183.376-.274a56.185 56.185 0 0 0 1.596-1.196c.161-.125.322-.249.481-.375a56.32 56.32 0 0 0 1.835-1.517c.077-.067.152-.137.229-.204a54.343 54.343 0 0 0 2.029-1.869 55.881 55.881 0 0 0 1.701-1.707c-63.624 40.459-93.623-21.521-94.776-23.968.067.248.128.498.198.745.052.181.102.363.156.544.225.758.463 1.511.719 2.258.044.129.092.256.137.384a56.1 56.1 0 0 0 .716 1.924l.21.534c.296.731.604 1.456.93 2.174.052.115.109.229.162.344.289.625.591 1.245.903 1.859.087.172.174.344.263.516.364.699.74 1.391 1.133 2.074.059.102.121.202.18.303.351.601.714 1.195 1.087 1.783.103.163.206.326.311.488.43.662.871 1.318 1.328 1.962.062.088.128.173.191.261a57.612 57.612 0 0 0 1.629 2.154c.492.62.995 1.232 1.513 1.831.064.074.13.145.195.218.47.537.951 1.063 1.442 1.582l.412.434a55.91 55.91 0 0 0 1.69 1.684c.062.059.128.117.19.176a56.08 56.08 0 0 0 1.617 1.462c.152.132.303.264.457.395.609.519 1.227 1.03 1.86 1.524l.178.135a55.92 55.92 0 0 0 2.292 1.68c.664.462 1.335.914 2.022 1.348l.15.092a53.932 53.932 0 0 0 2.51 1.482c.717.399 1.44.789 2.179 1.158l.107.052a55.753 55.753 0 0 0 2.733 1.264 56.42 56.42 0 0 0 2.39.974 57.15 57.15 0 0 0 2.942 1.016c.812.257 1.63.504 2.461.727a57.612 57.612 0 0 0 3.159.743c.735.153 1.469.292 2.204.414.106.018.211.039.316.056.826.133 1.651.242 2.476.337.211.024.422.045.632.067.691.072 1.382.131 2.071.177.16.011.321.025.481.034.817.047 1.633.075 2.447.086.193.003.384.001.577.001.671.002 1.341-.008 2.009-.03.191-.006.383-.01.573-.018a55.004 55.004 0 0 0 2.411-.156c.159-.014.317-.033.476-.048a53.947 53.947 0 0 0 2.01-.23c.205-.027.41-.053.615-.083a56.885 56.885 0 0 0 2.372-.389c.103-.019.204-.043.307-.062a55.78 55.78 0 0 0 2.082-.447c.208-.049.416-.098.623-.149.78-.192 1.556-.394 2.325-.619.77-.225 1.532-.472 2.289-.729.202-.067.402-.137.602-.207z"/><path fill="#BAB1CB" d="M208.108 637.38c.666-.234 1.328-.48 1.984-.739.096-.038.192-.072.288-.11a55.37 55.37 0 0 0 2.185-.935c.186-.084.37-.17.555-.256a55.65 55.65 0 0 0 1.789-.869c.139-.071.28-.139.419-.211.7-.363 1.391-.741 2.075-1.133.162-.093.321-.189.482-.283.563-.33 1.12-.67 1.672-1.019.156-.099.313-.196.469-.296a55.261 55.261 0 0 0 1.961-1.328c.127-.09.25-.183.376-.274a56.185 56.185 0 0 0 1.596-1.196c.161-.125.322-.249.481-.375a56.32 56.32 0 0 0 1.835-1.517c.077-.067.152-.137.229-.204a54.343 54.343 0 0 0 2.029-1.869 55.881 55.881 0 0 0 1.701-1.707c-63.624 40.459-93.623-21.521-94.776-23.968.067.248.128.498.198.745.052.181.102.363.156.544.225.758.463 1.511.719 2.258.044.129.092.256.137.384a56.1 56.1 0 0 0 .716 1.924l.21.534c.296.731.604 1.456.93 2.174.052.115.109.229.162.344.289.625.591 1.245.903 1.859.087.172.174.344.263.516.364.699.74 1.391 1.133 2.074.059.102.121.202.18.303.351.601.714 1.195 1.087 1.783.103.163.206.326.311.488.43.662.871 1.318 1.328 1.962.062.088.128.173.191.261a57.612 57.612 0 0 0 1.629 2.154c.492.62.995 1.232 1.513 1.831.064.074.13.145.195.218.47.537.951 1.063 1.442 1.582l.412.434a55.91 55.91 0 0 0 1.69 1.684c.062.059.128.117.19.176a56.08 56.08 0 0 0 1.617 1.462c.152.132.303.264.457.395.609.519 1.227 1.03 1.86 1.524l.178.135a55.92 55.92 0 0 0 2.292 1.68c.664.462 1.335.914 2.022 1.348l.15.092a53.932 53.932 0 0 0 2.51 1.482c.717.399 1.44.789 2.179 1.158l.107.052a55.753 55.753 0 0 0 2.733 1.264 56.42 56.42 0 0 0 2.39.974 57.15 57.15 0 0 0 2.942 1.016c.812.257 1.63.504 2.461.727a57.612 57.612 0 0 0 3.159.743c.735.153 1.469.292 2.204.414.106.018.211.039.316.056.826.133 1.651.242 2.476.337.211.024.422.045.632.067.691.072 1.382.131 2.071.177.16.011.321.025.481.034.817.047 1.633.075 2.447.086.193.003.384.001.577.001.671.002 1.341-.008 2.009-.03.191-.006.383-.01.573-.018a55.004 55.004 0 0 0 2.411-.156c.159-.014.317-.033.476-.048a53.947 53.947 0 0 0 2.01-.23c.205-.027.41-.053.615-.083a56.885 56.885 0 0 0 2.372-.389c.103-.019.204-.043.307-.062a55.78 55.78 0 0 0 2.082-.447c.208-.049.416-.098.623-.149.78-.192 1.556-.394 2.325-.619.77-.225 1.532-.472 2.289-.729.202-.067.402-.137.602-.207z" opacity=".25"/><path fill="#46739D" d="M676.785 798.92zm32.079-40.139zm-6.412 37.558zm-12.932-48.47zm-3.486-.071zm19.143 46.381zm-31.658 3.066zm14.017-49.479zm13.428 49.53zm-16.436-49.381zm19.413 47.319zm-28.687 2.977zm32.706-40.604zm-18.69 43.399zm9.789-50.496zm12.301 12.484zm-20.214 37.807zm20.816-36.451zm-26.145 36.692zm-16.02-46.732a26.53 26.53 0 0 0-8.254 13.216 26.515 26.515 0 0 0 .014 13.836c.549 1.166 14.819 30.645 45.082 11.401-.365.384-.744.752-1.129 1.113a26.53 26.53 0 0 0 7.525-12.552 26.532 26.532 0 0 0-.563-15.636c-.08-.131-14.687-24.402-42.675-11.378zm17.665 46.768zm-7.072-.907zm17.405-1.257zm11.896-38.929zm-10.115 38.091zm-3.335 1.451zm-3.481.982zm17.893-38.894zm-15.916 38.406zm-16.384-.492zm3.681 1.022zM662.6 784.464zm20.382-36.341zm21.532 5.96zm-27.691-4.164zm28.791 5.145zm-42.373 30.84zm-1.266-3.144zm40.09-30.516zm-30.767.865zm29.099-1.898zm-27.844 1.012zm25.1-2.349zm-33.592 37.612zm5.736-33.176zm4.009-2.873zm29.537 1.712zm-10.681-4.827zm-12.999.564zm-10.326 45.238zm-1.147-1.108zm22.928-44.963zm-20.345 47.296zm1.377 1.017zm22.037-47.686zm-29.206 40.326zm18.793 11.835zm12.371-51.547zm-29.129 42.433zm11.237-42.373zM665.886 790.3zm41.062-33.866z"/><path fill="#172734" d="M672.128 752.511zm1.287-.835c.13-.079.259-.161.391-.238-.131.077-.26.158-.391.238zm5.811-2.651c.146-.046.291-.095.437-.139-.146.044-.291.093-.437.139zm19.395 1.28c.146.068.293.134.438.205-.145-.071-.292-.137-.438-.205zm-2.937-1.173c.155.051.307.108.46.162-.153-.054-.305-.111-.46-.162zm1.469.537zm-19.38-.136zm22.562 1.644.063.033c-.021-.011-.043-.021-.063-.033zm5.192 3.808.088.079c-.029-.027-.06-.052-.088-.079zm-1.381-1.204c.123.1.247.199.368.301-.121-.102-.245-.2-.368-.301zm2.503 2.324c.102.108.199.219.299.328-.1-.109-.197-.22-.299-.328zm-3.727-3.268zm-17.356-5.009c.156-.01.312-.023.469-.03-.157.007-.313.02-.469.03zm16.112 4.158c.131.084.258.172.387.258-.129-.086-.256-.175-.387-.258zm-30.746 1.397c.12-.094.244-.183.366-.274-.122.092-.245.181-.366.274zm5.472-3.284c.139-.062.28-.12.42-.18-.141.06-.282.118-.42.18zm7.606-2.125zm25.596 11.886.085.125c-.027-.042-.057-.083-.085-.125zm-20.558-12.031c.157.011.314.027.472.04-.158-.013-.315-.03-.472-.04zm19.532 10.573c.095.126.191.251.284.378-.092-.127-.189-.252-.284-.378zm3.895 7.292c-.018-.052-.041-.103-.059-.156l.056.15.003.006zm-1.339-3.16zm-20.551-14.554zm21.189 15.93c.063.146.128.292.188.44-.061-.148-.125-.293-.188-.44zm-1.328-2.676c.072.126.138.254.208.38-.07-.126-.137-.254-.208-.38zm-18.264-13.002c.16.03.32.057.48.09-.16-.033-.32-.06-.48-.09zm15.451 8.979zm-25.105-9.013c.151-.027.302-.05.454-.075-.151.025-.303.047-.454.075z" opacity=".5"/><path fill="#46739D" d="m712.471 765.688-.056-.15a27.4 27.4 0 0 0-.453-1.188c-.06-.148-.125-.293-.188-.44a26.959 26.959 0 0 0-.638-1.376c-.155-.31-.317-.616-.483-.919-.069-.127-.136-.255-.208-.38a27.22 27.22 0 0 0-.754-1.249c-.027-.042-.057-.083-.085-.125a26.43 26.43 0 0 0-.742-1.079c-.092-.128-.189-.252-.284-.378a27.838 27.838 0 0 0-.947-1.192 26.588 26.588 0 0 0-.685-.777c-.1-.109-.198-.221-.299-.328a27.431 27.431 0 0 0-1.034-1.041l-.088-.079a26.376 26.376 0 0 0-1.013-.902c-.121-.102-.245-.201-.368-.301a26.002 26.002 0 0 0-2.082-1.538c-.129-.086-.256-.174-.387-.258a27.055 27.055 0 0 0-1.281-.775l-.063-.033a26.135 26.135 0 0 0-1.276-.667c-.144-.071-.292-.137-.438-.205a26.328 26.328 0 0 0-1.468-.635 25.799 25.799 0 0 0-1.009-.375c-.154-.054-.305-.11-.46-.162a27.01 27.01 0 0 0-1.497-.452 26.893 26.893 0 0 0-1.525-.357c-.16-.033-.32-.06-.48-.09a26.533 26.533 0 0 0-2.662-.363c-.157-.013-.315-.03-.472-.04a26.461 26.461 0 0 0-1.512-.062 25.825 25.825 0 0 0-1.501.032c-.157.007-.312.02-.469.03a25.617 25.617 0 0 0-2.584.295c-.151.025-.303.047-.454.075-.97.177-1.926.407-2.865.688-.147.044-.292.093-.437.139a27.117 27.117 0 0 0-1.453.508c-.32.122-.636.252-.95.386-.14.06-.281.117-.42.18a26.75 26.75 0 0 0-2.597 1.339c-.132.077-.261.159-.391.238a25.597 25.597 0 0 0-2.117 1.434c-.122.091-.245.181-.366.274-.386.299-.766.606-1.135.927 27.99-13.031 42.597 11.24 42.676 11.371z"/><path fill="#172734" d="m712.471 765.688-.056-.15a27.4 27.4 0 0 0-.453-1.188c-.06-.148-.125-.293-.188-.44a26.959 26.959 0 0 0-.638-1.376c-.155-.31-.317-.616-.483-.919-.069-.127-.136-.255-.208-.38a27.22 27.22 0 0 0-.754-1.249c-.027-.042-.057-.083-.085-.125a26.43 26.43 0 0 0-.742-1.079c-.092-.128-.189-.252-.284-.378a27.838 27.838 0 0 0-.947-1.192 26.588 26.588 0 0 0-.685-.777c-.1-.109-.198-.221-.299-.328a27.431 27.431 0 0 0-1.034-1.041l-.088-.079a26.376 26.376 0 0 0-1.013-.902c-.121-.102-.245-.201-.368-.301a26.002 26.002 0 0 0-2.082-1.538c-.129-.086-.256-.174-.387-.258a27.055 27.055 0 0 0-1.281-.775l-.063-.033a26.135 26.135 0 0 0-1.276-.667c-.144-.071-.292-.137-.438-.205a26.328 26.328 0 0 0-1.468-.635 25.799 25.799 0 0 0-1.009-.375c-.154-.054-.305-.11-.46-.162a27.01 27.01 0 0 0-1.497-.452 26.893 26.893 0 0 0-1.525-.357c-.16-.033-.32-.06-.48-.09a26.533 26.533 0 0 0-2.662-.363c-.157-.013-.315-.03-.472-.04a26.461 26.461 0 0 0-1.512-.062 25.825 25.825 0 0 0-1.501.032c-.157.007-.312.02-.469.03a25.617 25.617 0 0 0-2.584.295c-.151.025-.303.047-.454.075-.97.177-1.926.407-2.865.688-.147.044-.292.093-.437.139a27.117 27.117 0 0 0-1.453.508c-.32.122-.636.252-.95.386-.14.06-.281.117-.42.18a26.75 26.75 0 0 0-2.597 1.339c-.132.077-.261.159-.391.238a25.597 25.597 0 0 0-2.117 1.434c-.122.091-.245.181-.366.274-.386.299-.766.606-1.135.927 27.99-13.031 42.597 11.24 42.676 11.371z" opacity=".5"/><path fill="#BAB1CB" d="M689.566 800.987c-.098.008-.197.012-.296.019.099-.008.198-.011.296-.019zm-10.755-1.297c-.154-.051-.305-.107-.457-.161.152.054.303.109.457.161zm15.93.33-.004.001.004-.001zm-1.538.394c-.147.034-.295.064-.443.095.148-.031.296-.061.443-.095zm-1.653.321c-.135.022-.268.047-.404.066.135-.02.269-.044.404-.066zm-3.61.336zm-3.748-.173c-.139-.016-.278-.038-.417-.057.139.018.278.04.417.057zm-1.687-.259c-.157-.029-.314-.057-.471-.089.157.032.314.06.471.089zm3.611.413c-.1-.004-.199-.005-.299-.01.1.005.199.005.299.01zm16.572-4.874c-.078.055-.158.106-.236.16.078-.054.159-.105.236-.16zm-1.329.877c-.131.081-.262.162-.395.241l.395-.241zm-1.532.884c-.084.045-.166.093-.251.137.085-.045.167-.093.251-.137zm5.683-4.063c-.11.103-.222.203-.333.303.111-.101.223-.2.333-.303zm-1.262 1.104c-.102.084-.203.171-.307.254.104-.083.205-.169.307-.254zm-6.082 3.775c-.123.055-.247.106-.371.159.124-.053.248-.104.371-.159zm-20.944.344c-.146-.059-.292-.117-.436-.178.144.061.29.118.436.178zm-1.895-.849c-.025-.012-.048-.026-.073-.039.025.012.049.026.073.039zm21.337 1.12c-.141.053-.281.107-.423.158.142-.051.282-.105.423-.158zm-22.739-1.882c-.137-.079-.271-.161-.406-.243.135.082.269.164.406.243zm-5.431-4.168c-.102-.101-.205-.201-.305-.304.1.103.204.203.305.304zm-3.28-3.969c-.078-.115-.158-.229-.234-.345.077.116.157.229.234.345zm-1.038-1.654c-.04-.069-.076-.141-.115-.211.039.07.075.142.115.211zm-1.415-2.856c-.053-.126-.11-.25-.161-.376.052.126.108.25.161.376zm.686 1.488c-.07-.141-.138-.283-.206-.424.068.141.136.283.206.424zm9.074 10.284c-.124-.082-.249-.163-.371-.248.122.085.248.166.371.248zm-10.983-15.29c.019.071.044.14.064.212l-.046-.172-.018-.04zm.521 1.702c-.03-.088-.055-.177-.084-.265.029.088.054.177.084.265zm5.085 8.856c-.044-.051-.084-.104-.128-.155.044.051.084.105.128.155zm2.542 2.558c-.118-.104-.233-.21-.349-.315.116.106.231.212.349.315zm-3.519-3.764c-.095-.124-.188-.25-.281-.375.093.126.186.251.281.375zm4.72 4.767c-.039-.03-.075-.063-.114-.093.038.031.075.063.114.093z" opacity=".25"/><path fill="#46739D" d="m661.557 781.362.046.172c.114.412.239.821.372 1.226.029.088.054.177.084.265.166.486.348.965.541 1.439.052.126.108.251.161.376a26.01 26.01 0 0 0 .686 1.488c.195.391.4.777.614 1.158.039.07.075.142.115.211.255.444.525.879.805 1.308.076.116.156.23.234.345a26.176 26.176 0 0 0 .952 1.324c.274.357.557.708.85 1.051.043.051.084.104.128.155.336.389.686.766 1.045 1.135.1.103.203.202.305.304.275.274.556.542.843.804.116.106.231.212.349.315.354.312.716.616 1.087.91.038.03.075.063.114.093.41.32.833.626 1.264.923.122.084.247.165.371.248.327.218.659.428.997.632.135.081.27.164.406.243.435.252.877.495 1.329.723.025.012.048.026.073.039.476.238.964.459 1.458.67.144.062.291.119.436.178.372.151.75.295 1.132.43.152.054.304.109.457.161a26.28 26.28 0 0 0 1.58.481c.547.147 1.096.269 1.644.38.157.032.314.06.471.089.424.078.847.145 1.27.202.139.019.278.04.417.057.543.064 1.085.113 1.626.144.1.006.199.006.299.01a26.342 26.342 0 0 0 3.154-.046c.098-.007.198-.011.296-.019.53-.045 1.057-.109 1.58-.185.135-.02.269-.044.404-.066.406-.066.81-.141 1.211-.225.148-.031.296-.061.443-.095a26.505 26.505 0 0 0 1.534-.393l.004-.001a26.826 26.826 0 0 0 1.5-.493c.142-.051.282-.105.423-.158a26.43 26.43 0 0 0 1.131-.456c.123-.053.248-.104.371-.159.477-.213.947-.439 1.41-.68.085-.044.167-.092.251-.137a26.505 26.505 0 0 0 2.625-1.6c.078-.054.159-.105.236-.16.427-.302.844-.618 1.253-.945.104-.083.204-.169.307-.254.315-.26.625-.527.928-.801.111-.101.223-.201.333-.303.386-.36.765-.729 1.129-1.113-30.265 19.246-44.535-10.234-45.084-11.4z"/><path fill="#BAB1CB" d="m661.557 781.362.046.172c.114.412.239.821.372 1.226.029.088.054.177.084.265.166.486.348.965.541 1.439.052.126.108.251.161.376a26.01 26.01 0 0 0 .686 1.488c.195.391.4.777.614 1.158.039.07.075.142.115.211.255.444.525.879.805 1.308.076.116.156.23.234.345a26.176 26.176 0 0 0 .952 1.324c.274.357.557.708.85 1.051.043.051.084.104.128.155.336.389.686.766 1.045 1.135.1.103.203.202.305.304.275.274.556.542.843.804.116.106.231.212.349.315.354.312.716.616 1.087.91.038.03.075.063.114.093.41.32.833.626 1.264.923.122.084.247.165.371.248.327.218.659.428.997.632.135.081.27.164.406.243.435.252.877.495 1.329.723.025.012.048.026.073.039.476.238.964.459 1.458.67.144.062.291.119.436.178.372.151.75.295 1.132.43.152.054.304.109.457.161a26.28 26.28 0 0 0 1.58.481c.547.147 1.096.269 1.644.38.157.032.314.06.471.089.424.078.847.145 1.27.202.139.019.278.04.417.057.543.064 1.085.113 1.626.144.1.006.199.006.299.01a26.342 26.342 0 0 0 3.154-.046c.098-.007.198-.011.296-.019.53-.045 1.057-.109 1.58-.185.135-.02.269-.044.404-.066.406-.066.81-.141 1.211-.225.148-.031.296-.061.443-.095a26.505 26.505 0 0 0 1.534-.393l.004-.001a26.826 26.826 0 0 0 1.5-.493c.142-.051.282-.105.423-.158a26.43 26.43 0 0 0 1.131-.456c.123-.053.248-.104.371-.159.477-.213.947-.439 1.41-.68.085-.044.167-.092.251-.137a26.505 26.505 0 0 0 2.625-1.6c.078-.054.159-.105.236-.16.427-.302.844-.618 1.253-.945.104-.083.204-.169.307-.254.315-.26.625-.527.928-.801.111-.101.223-.201.333-.303.386-.36.765-.729 1.129-1.113-30.265 19.246-44.535-10.234-45.084-11.4z" opacity=".25"/><path fill="#46739D" d="M771.359 456.401zm-6.301 43.303zm7.762-44.335zm8.279-3.886zm-14.723 49.884zm46.132 1.205c-.424.447-.865.876-1.314 1.295a30.882 30.882 0 0 0 8.761-14.614 30.887 30.887 0 0 0-.656-18.206c-.189-.314-17.194-28.368-49.687-13.247.43-.373.873-.731 1.322-1.08a30.892 30.892 0 0 0-10.932 16.468 30.873 30.873 0 0 0 .016 16.109c.636 1.352 17.251 35.684 52.49 13.275zm-27.543-51.977zm-10.685 3.859zm26.121 55.994zm-24.633-56.818zm26.444 56.103zm-34.473-6.867zm10.057-50.181zm1.662-.657zm4.401 59.611zm-19.856-13.443zm6.744 7.386zm47.258-37.673zm-48.929 36.247zm29.577 6.866zm20.053-41.534zm-9.339 35.961zm-1.735 1.287zm-31.666 2.179zm1.782.826zm33.057-5.52zm-36.86 3.569zm33.236-52.399zm1.488 1.054zm8.514 9.859zm-13.502-12.93zm1.559.815zm4.794 3.344zm5.066 5.471zm-3.785-4.328zm4.748 5.73zm-2.017-2.77zm-1.176-1.363zm-40.519 46.493zm33.549 1.084zm-9.666-57.023zm1.777.416zm4.034 1.39zm2.24 56.124zm-3.999-56.8zm-11.768-1.741zm-1.754.136zm7.672.161zm-1.86-.214zm-2.31-.119zm-27.332 46.25zm29.351 15.739zm-4.021.042zm6.206-.28zm-12.524-.734zm3.939.78zm-6.31-1.527zm16.773 1.141zm-34.37-17.005zm-.746-1.677zm-.727-1.982zm29.674 21.326z"/><path fill="#172734" d="M814.77 462.564c.11.147.222.292.33.44-.108-.148-.22-.293-.33-.44zm1.194 1.697c.032.049.067.096.098.145-.031-.049-.066-.096-.098-.145zm1.782 3.114zm-.805-1.515c.084.147.162.296.243.444-.082-.148-.16-.297-.243-.444zm1.547 3.118c.073.17.148.339.218.51-.07-.171-.145-.34-.218-.51zm.815 2.076c-.021-.062-.048-.121-.07-.183.021.059.045.117.065.176.002.001.005.007.005.007zm-40.405-18.817zm14.918-1.809zm5.939 1.342c.179.059.354.124.531.187-.177-.063-.352-.128-.531-.187zm9.854 5.415c.142.116.286.23.425.348-.14-.118-.283-.232-.425-.348zm-6.433-4.048c.168.079.339.155.505.237-.166-.082-.336-.158-.505-.237zm-1.711-.742zm3.717 1.764.058.031c-.019-.012-.039-.021-.058-.031zm3 1.925zm-1.448-.991c.151.097.298.198.446.298-.148-.099-.295-.201-.446-.298zm-11.055-4.371c.185.035.37.066.555.104-.185-.037-.37-.069-.555-.104zm-3.653-.47c.183.012.367.031.55.047-.183-.015-.367-.034-.55-.047zm-18.201 4.479c.152-.092.302-.188.455-.277-.154.09-.304.185-.455.277zm-1.499.972zm-1.392 1.016c.14-.109.283-.212.425-.318-.142.106-.285.21-.425.318zm6.369-3.823c.163-.073.328-.141.493-.211-.165.07-.33.138-.493.211zm10.667-2.644c.183-.012.365-.027.548-.035-.183.008-.365.023-.548.035zm-7.379 1.393c.169-.054.338-.111.508-.162-.171.051-.339.108-.508.162zm3.843-.963c.176-.032.354-.058.531-.087-.177.029-.355.055-.531.087zm1.727-.261zm26.359 9.468c.119.126.233.256.35.384-.117-.128-.231-.258-.35-.384zm1.146 1.288zm-2.444-2.585c.03.029.062.055.093.084-.031-.029-.063-.055-.093-.084z" opacity=".5"/><path fill="#46739D" d="m819.299 471.046-.065-.176a31.213 31.213 0 0 0-.528-1.383c-.07-.171-.145-.34-.218-.51a32.04 32.04 0 0 0-.742-1.603c-.18-.361-.369-.717-.562-1.071-.081-.148-.159-.298-.243-.444-.28-.492-.571-.978-.878-1.454l-.098-.145a31.796 31.796 0 0 0-.865-1.257c-.108-.149-.22-.294-.33-.44a30.72 30.72 0 0 0-1.899-2.291c-.117-.128-.231-.258-.35-.384-.391-.414-.791-.82-1.205-1.213-.03-.029-.062-.055-.093-.084a31.477 31.477 0 0 0-1.188-1.059c-.139-.118-.283-.232-.425-.348a30.886 30.886 0 0 0-1.428-1.101 30.166 30.166 0 0 0-1.001-.693c-.149-.099-.296-.201-.446-.298a30.73 30.73 0 0 0-1.495-.904l-.058-.031a31.368 31.368 0 0 0-1.501-.785c-.167-.082-.337-.158-.505-.237a31.068 31.068 0 0 0-1.711-.741 32.399 32.399 0 0 0-1.178-.439c-.177-.062-.352-.127-.531-.187a31.164 31.164 0 0 0-1.745-.527 30.631 30.631 0 0 0-1.777-.416c-.185-.038-.37-.07-.555-.104a29.837 29.837 0 0 0-3.103-.422c-.183-.016-.367-.035-.55-.047a31.494 31.494 0 0 0-1.76-.073c-.585-.006-1.167.01-1.747.037-.183.009-.365.024-.548.035a32.125 32.125 0 0 0-1.81.169c-.4.05-.799.109-1.195.174-.177.029-.355.055-.531.087a31.13 31.13 0 0 0-3.335.801c-.171.051-.339.108-.508.162a32.08 32.08 0 0 0-1.693.591 30.23 30.23 0 0 0-1.102.448c-.164.07-.33.138-.493.211-.518.232-1.031.474-1.535.734s-.999.537-1.488.824c-.153.09-.303.185-.455.277a30.923 30.923 0 0 0-1.499.971c-.327.226-.649.459-.968.698-.142.106-.285.21-.425.318a30.96 30.96 0 0 0-1.322 1.08c32.493-15.117 49.498 12.936 49.687 13.25z"/><path fill="#172734" d="m819.299 471.046-.065-.176a31.213 31.213 0 0 0-.528-1.383c-.07-.171-.145-.34-.218-.51a32.04 32.04 0 0 0-.742-1.603c-.18-.361-.369-.717-.562-1.071-.081-.148-.159-.298-.243-.444-.28-.492-.571-.978-.878-1.454l-.098-.145a31.796 31.796 0 0 0-.865-1.257c-.108-.149-.22-.294-.33-.44a30.72 30.72 0 0 0-1.899-2.291c-.117-.128-.231-.258-.35-.384-.391-.414-.791-.82-1.205-1.213-.03-.029-.062-.055-.093-.084a31.477 31.477 0 0 0-1.188-1.059c-.139-.118-.283-.232-.425-.348a30.886 30.886 0 0 0-1.428-1.101 30.166 30.166 0 0 0-1.001-.693c-.149-.099-.296-.201-.446-.298a30.73 30.73 0 0 0-1.495-.904l-.058-.031a31.368 31.368 0 0 0-1.501-.785c-.167-.082-.337-.158-.505-.237a31.068 31.068 0 0 0-1.711-.741 32.399 32.399 0 0 0-1.178-.439c-.177-.062-.352-.127-.531-.187a31.164 31.164 0 0 0-1.745-.527 30.631 30.631 0 0 0-1.777-.416c-.185-.038-.37-.07-.555-.104a29.837 29.837 0 0 0-3.103-.422c-.183-.016-.367-.035-.55-.047a31.494 31.494 0 0 0-1.76-.073c-.585-.006-1.167.01-1.747.037-.183.009-.365.024-.548.035a32.125 32.125 0 0 0-1.81.169c-.4.05-.799.109-1.195.174-.177.029-.355.055-.531.087a31.13 31.13 0 0 0-3.335.801c-.171.051-.339.108-.508.162a32.08 32.08 0 0 0-1.693.591 30.23 30.23 0 0 0-1.102.448c-.164.07-.33.138-.493.211-.518.232-1.031.474-1.535.734s-.999.537-1.488.824c-.153.09-.303.185-.455.277a30.923 30.923 0 0 0-1.499.971c-.327.226-.649.459-.968.698-.142.106-.285.21-.425.318a30.96 30.96 0 0 0-1.322 1.08c32.493-15.117 49.498 12.936 49.687 13.25z" opacity=".5"/><path fill="#BAB1CB" d="M790.737 512.245zm-30.135-21.012c-.035-.101-.064-.204-.097-.306.033.101.063.204.097.306zm32.028 20.914c-.115.01-.23.014-.345.022.115-.008.23-.012.345-.022zm-32.634-22.896c.022.082.051.162.074.244l-.053-.199a.845.845 0 0 1-.021-.045zm34.943 22.603c-.156.025-.312.054-.469.077.157-.023.312-.052.469-.077zm5.957-1.59c-.165.062-.329.125-.495.184.166-.059.33-.122.495-.184zm-38.678-15.184c-.082-.164-.161-.329-.24-.494.079.165.158.33.24.494zm3.167 5.06c-.111-.144-.218-.29-.327-.436.108.146.216.292.327.436zm37.258 9.409c-.142.064-.287.122-.43.184.143-.062.287-.12.43-.184zm1.936-.952c-.099.053-.195.109-.294.161.099-.052.196-.109.294-.161zm1.783-1.029zm-9.496 3.912c-.172.039-.346.075-.519.111.174-.036.347-.072.519-.111zm-35.447-18.133c-.062-.146-.127-.291-.187-.438.06.147.125.292.187.438zm2.858 5.253c-.091-.135-.185-.268-.274-.404.089.136.183.269.274.404zm43.632 7.948c-.091.065-.185.124-.277.188.092-.064.186-.123.277-.188zm3.285-2.681c-.128.12-.259.237-.389.355.13-.118.261-.235.389-.355zm-36.776 4.206c-.159-.092-.316-.188-.473-.283.157.095.314.191.473.283zm-11.351-11.4c-.046-.08-.087-.162-.132-.242.044.08.086.162.132.242zm12.984 12.287c-.029-.014-.056-.031-.085-.045.029.014.056.031.085.045zm-5.171-3.269c-.045-.035-.088-.074-.133-.109.045.036.088.074.133.109zm1.905 1.364c-.145-.096-.291-.191-.434-.289.143.099.289.193.434.289zm-4.689-3.834c-.119-.118-.24-.235-.356-.355.116.12.237.237.356.355zm10.16 6.727c-.17-.069-.34-.136-.508-.208.168.072.339.14.508.208zm10.359 2.275c-.117-.005-.234-.006-.351-.012.118.006.234.007.351.012zm-4.207-.481c-.183-.034-.366-.066-.549-.103.183.037.366.07.549.103zm1.965.301c-.163-.019-.326-.045-.488-.067.163.023.326.048.488.067zm-16.892-7.52c-.137-.121-.271-.244-.405-.367.135.123.269.246.405.367zm-2.958-2.979c-.05-.058-.097-.119-.147-.178.05.059.096.12.147.178zm43.203 3.608c-.12.099-.238.2-.359.297.121-.097.239-.198.359-.297zm-29.62 5.485c-.178-.06-.354-.124-.531-.186.177.062.353.126.531.186z" opacity=".25"/><path fill="#46739D" d="M760.017 489.297c.018.066.034.133.053.199.134.481.279.958.435 1.431.034.102.063.205.097.306.193.565.405 1.124.63 1.676.06.147.125.292.187.438a29.303 29.303 0 0 0 .799 1.733c.228.456.466.906.716 1.351.045.08.086.163.132.242.297.517.611 1.024.937 1.523.089.136.182.269.274.404a31.44 31.44 0 0 0 2.099 2.768c.05.058.096.119.147.178.391.452.799.892 1.217 1.322.117.12.238.237.356.355.32.318.646.63.98.935.135.123.269.246.405.367.412.363.833.717 1.266 1.059.045.036.088.074.133.109.477.373.97.729 1.471 1.075.143.099.289.193.434.289a36.92 36.92 0 0 0 1.633 1.018c.507.293 1.021.576 1.548.842.029.015.056.031.085.045.554.277 1.122.535 1.697.781.168.072.338.139.508.208.434.176.873.344 1.319.502.177.063.353.127.531.186.604.202 1.216.393 1.84.56a31.236 31.236 0 0 0 2.462.545c.492.09.985.168 1.477.235.163.022.326.047.488.067.632.075 1.262.132 1.891.167.117.007.234.007.351.012a30.285 30.285 0 0 0 2.122.022 30.607 30.607 0 0 0 1.548-.076c.115-.009.231-.012.345-.022.617-.053 1.23-.126 1.84-.216.157-.023.312-.052.469-.077.472-.077.942-.164 1.409-.262.173-.036.346-.072.519-.111.6-.137 1.197-.286 1.787-.458a31.04 31.04 0 0 0 1.748-.574c.166-.059.33-.122.495-.184.443-.167.882-.344 1.317-.531.143-.062.288-.12.43-.184a31.759 31.759 0 0 0 1.642-.791c.099-.052.196-.108.294-.161a30.607 30.607 0 0 0 1.782-1.029c.43-.267.853-.544 1.27-.832.092-.063.186-.123.277-.188.497-.351.982-.719 1.458-1.099.121-.097.239-.198.359-.297.366-.302.726-.612 1.079-.931.13-.118.261-.235.389-.355.449-.42.89-.848 1.314-1.295-35.239 22.407-51.854-11.925-52.491-13.277z"/><path fill="#BAB1CB" d="M760.017 489.297c.018.066.034.133.053.199.134.481.279.958.435 1.431.034.102.063.205.097.306.193.565.405 1.124.63 1.676.06.147.125.292.187.438a29.303 29.303 0 0 0 .799 1.733c.228.456.466.906.716 1.351.045.08.086.163.132.242.297.517.611 1.024.937 1.523.089.136.182.269.274.404a31.44 31.44 0 0 0 2.099 2.768c.05.058.096.119.147.178.391.452.799.892 1.217 1.322.117.12.238.237.356.355.32.318.646.63.98.935.135.123.269.246.405.367.412.363.833.717 1.266 1.059.045.036.088.074.133.109.477.373.97.729 1.471 1.075.143.099.289.193.434.289a36.92 36.92 0 0 0 1.633 1.018c.507.293 1.021.576 1.548.842.029.015.056.031.085.045.554.277 1.122.535 1.697.781.168.072.338.139.508.208.434.176.873.344 1.319.502.177.063.353.127.531.186.604.202 1.216.393 1.84.56a31.236 31.236 0 0 0 2.462.545c.492.09.985.168 1.477.235.163.022.326.047.488.067.632.075 1.262.132 1.891.167.117.007.234.007.351.012a30.285 30.285 0 0 0 2.122.022 30.607 30.607 0 0 0 1.548-.076c.115-.009.231-.012.345-.022.617-.053 1.23-.126 1.84-.216.157-.023.312-.052.469-.077.472-.077.942-.164 1.409-.262.173-.036.346-.072.519-.111.6-.137 1.197-.286 1.787-.458a31.04 31.04 0 0 0 1.748-.574c.166-.059.33-.122.495-.184.443-.167.882-.344 1.317-.531.143-.062.288-.12.43-.184a31.759 31.759 0 0 0 1.642-.791c.099-.052.196-.108.294-.161a30.607 30.607 0 0 0 1.782-1.029c.43-.267.853-.544 1.27-.832.092-.063.186-.123.277-.188.497-.351.982-.719 1.458-1.099.121-.097.239-.198.359-.297.366-.302.726-.612 1.079-.931.13-.118.261-.235.389-.355.449-.42.89-.848 1.314-1.295-35.239 22.407-51.854-11.925-52.491-13.277z" opacity=".25"/><path fill="#46739D" d="M677.533 882.025zm9.571.339zm-12.183.959zm8.848-1.925zm4.706 1.665zm-3.225-1.366zm-2.972-.425zm-6.064 1.319zm-5.578 17.901zm10.117-19.172zm-10.882 17.533zm12.722 8.227c-.096.005-.191.011-.287.014.096-.003.192-.009.287-.014zm2.485-.378c-.084.021-.167.045-.251.064.084-.019.167-.043.251-.064zm7.809-19.309z"/><path fill="#46739D" d="M673.424 884.427c.358-.311.737-.595 1.126-.865a12.867 12.867 0 0 0-5.098 14.029c.498 1.03 7.427 14.642 21.835 5.48a12.86 12.86 0 0 0 3.101-5.546 12.861 12.861 0 0 0-.276-7.585c-.087-.145-7.166-11.806-20.688-5.513zm20.152 4.222z"/><path fill="#46739D" d="M683.743 906.972c-.072.01-.145.016-.217.025.072-.009.145-.015.217-.025zm4.719-1.663c-.08.047-.162.092-.244.138.082-.045.164-.09.244-.138zm1.033-.676c-.037.027-.073.057-.111.084.038-.027.073-.056.111-.084zm.989-.795zm-4.29 2.529c-.081.029-.164.054-.246.081.082-.027.164-.052.246-.081zm1.208-.499c-.065.031-.128.064-.194.093.065-.029.129-.062.194-.093zm-12.192-.642zm1.421.736zm15.4-19.79zm-20.51 15.686zm2.372 2.46zm-1.378-1.279zm6.045 3.623zm11.133-22.79zm1.096.92zm-9.613 22.291c-.048-.003-.097-.01-.146-.013.049.003.098.01.146.013zm-1.159-.125z"/><path fill="#172734" d="m690.746 884.755.043.037c-.013-.013-.029-.024-.043-.037zm1.016 1.076c.094.111.179.228.269.342-.09-.115-.176-.231-.269-.342zm-2.44-2.219c.124.087.251.17.371.261-.12-.092-.247-.174-.371-.261zm3.297 3.364zm.75 1.27c.07.134.143.267.208.403-.065-.137-.139-.269-.208-.403zm-5.339-5.434zm-13.48.75c.121-.084.248-.159.372-.239-.125.08-.251.155-.372.239zm2.573-1.373c.136-.055.271-.114.409-.164-.138.05-.272.109-.409.164zm9.556-.011c.145.057.284.124.426.187-.143-.063-.281-.13-.426-.187zm7.401 7.68c.01.027.023.053.032.081l.004.007c-.01-.03-.026-.058-.036-.088zm-18.305-7.041zm7.532-1.47c.154.017.307.029.462.051-.154-.022-.308-.034-.462-.051zm-1.539-.08zm-1.461.093c.147-.018.297-.026.445-.04-.148.013-.297.021-.445.04z" opacity=".5"/><path fill="#46739D" d="M693.576 888.649c-.065-.137-.138-.269-.208-.403a13.22 13.22 0 0 0-.749-1.27 12.815 12.815 0 0 0-.589-.803c-.09-.114-.175-.231-.269-.342a13.06 13.06 0 0 0-.972-1.039l-.043-.037a12.944 12.944 0 0 0-1.053-.883c-.12-.091-.247-.174-.371-.261a12.644 12.644 0 0 0-1.293-.8c-.3-.161-.61-.309-.926-.448-.142-.062-.281-.129-.426-.187a13.17 13.17 0 0 0-1.429-.481 12.927 12.927 0 0 0-1.48-.298c-.154-.023-.308-.034-.462-.051a12.777 12.777 0 0 0-1.029-.075c-.17-.005-.34-.007-.51-.005-.341.003-.679.023-1.016.053-.148.013-.298.021-.445.04-.953.119-1.883.344-2.774.665-.138.05-.273.109-.409.164a13.159 13.159 0 0 0-1.349.628 13.12 13.12 0 0 0-.854.506c-.124.08-.25.155-.372.239-.389.269-.768.554-1.126.865 13.522-6.293 20.601 5.368 20.688 5.513-.01-.027-.023-.053-.032-.081a12.263 12.263 0 0 0-.502-1.209z"/><path fill="#172734" d="M693.576 888.649c-.065-.137-.138-.269-.208-.403a13.22 13.22 0 0 0-.749-1.27 12.815 12.815 0 0 0-.589-.803c-.09-.114-.175-.231-.269-.342a13.06 13.06 0 0 0-.972-1.039l-.043-.037a12.944 12.944 0 0 0-1.053-.883c-.12-.091-.247-.174-.371-.261a12.644 12.644 0 0 0-1.293-.8c-.3-.161-.61-.309-.926-.448-.142-.062-.281-.129-.426-.187a13.17 13.17 0 0 0-1.429-.481 12.927 12.927 0 0 0-1.48-.298c-.154-.023-.308-.034-.462-.051a12.777 12.777 0 0 0-1.029-.075c-.17-.005-.34-.007-.51-.005-.341.003-.679.023-1.016.053-.148.013-.298.021-.445.04-.953.119-1.883.344-2.774.665-.138.05-.273.109-.409.164a13.159 13.159 0 0 0-1.349.628 13.12 13.12 0 0 0-.854.506c-.124.08-.25.155-.372.239-.389.269-.768.554-1.126.865 13.522-6.293 20.601 5.368 20.688 5.513-.01-.027-.023-.053-.032-.081a12.263 12.263 0 0 0-.502-1.209z" opacity=".5"/><path fill="#BAB1CB" d="M675.597 905.444c-.129-.072-.261-.142-.387-.218.127.076.258.146.387.218zm1.457.704c-.144-.058-.282-.123-.423-.185.141.062.28.126.423.185zm-7.634-8.624c.024.09.064.175.09.265-.019-.066-.04-.132-.058-.198l-.032-.067zm11.61 9.546zm-1.318-.161zm-7.929-4.718c-.088-.111-.178-.22-.262-.333.084.114.174.222.262.333zm1.041 1.172c-.106-.105-.207-.215-.309-.323.102.108.203.217.309.323zm1.129 1.006c-.021-.016-.039-.035-.06-.052.02.017.039.036.06.052zm-3.915-5.099c-.059-.138-.113-.278-.167-.418.054.141.108.28.167.418zm15.909 7.178zm3.437-1.731zm.88-.689zm-2.045 1.419zm3.068-2.377zm-7.761 3.927zm3.682-1.035zm-16.509-5.348c-.023-.04-.04-.082-.063-.122.023.04.04.082.063.122zm14.128 6.152zm-2.521.328z" opacity=".25"/><path fill="#46739D" d="M669.452 897.591c.018.066.039.132.058.198.105.36.225.715.361 1.064a12.91 12.91 0 0 0 .766 1.64c.022.04.04.082.063.122.248.431.526.844.822 1.244.084.114.175.222.262.333.231.293.475.575.732.848.102.109.203.218.309.323.339.335.692.657 1.069.955.021.016.039.035.06.052.398.311.821.592 1.258.857.126.076.258.146.387.218.334.187.679.36 1.034.518.141.063.279.128.423.185.487.197.986.375 1.506.515a12.796 12.796 0 0 0 1.457.295c.338.05.676.089 1.013.112.049.003.097.01.146.013.379.022.755.023 1.13.011.096-.003.192-.009.287-.014.313-.017.624-.044.932-.083.072-.009.145-.015.217-.025.365-.053.727-.122 1.084-.205.084-.02.167-.043.251-.064.293-.075.583-.159.87-.254.082-.027.165-.052.246-.081.344-.121.682-.256 1.014-.405.065-.029.129-.063.194-.093.277-.131.55-.271.817-.421.081-.046.163-.09.244-.138.315-.185.623-.381.922-.592.038-.027.073-.056.111-.084.264-.192.52-.394.769-.606.074-.063.148-.125.22-.19.277-.245.547-.498.803-.768-14.41 9.162-21.339-4.451-21.837-5.48z"/><path fill="#BAB1CB" d="M669.452 897.591c.018.066.039.132.058.198.105.36.225.715.361 1.064a12.91 12.91 0 0 0 .766 1.64c.022.04.04.082.063.122.248.431.526.844.822 1.244.084.114.175.222.262.333.231.293.475.575.732.848.102.109.203.218.309.323.339.335.692.657 1.069.955.021.016.039.035.06.052.398.311.821.592 1.258.857.126.076.258.146.387.218.334.187.679.36 1.034.518.141.063.279.128.423.185.487.197.986.375 1.506.515a12.796 12.796 0 0 0 1.457.295c.338.05.676.089 1.013.112.049.003.097.01.146.013.379.022.755.023 1.13.011.096-.003.192-.009.287-.014.313-.017.624-.044.932-.083.072-.009.145-.015.217-.025.365-.053.727-.122 1.084-.205.084-.02.167-.043.251-.064.293-.075.583-.159.87-.254.082-.027.165-.052.246-.081.344-.121.682-.256 1.014-.405.065-.029.129-.063.194-.093.277-.131.55-.271.817-.421.081-.046.163-.09.244-.138.315-.185.623-.381.922-.592.038-.027.073-.056.111-.084.264-.192.52-.394.769-.606.074-.063.148-.125.22-.19.277-.245.547-.498.803-.768-14.41 9.162-21.339-4.451-21.837-5.48z" opacity=".25"/><path fill="#46739D" d="M868.148 642.414zm19.684-15.669zm-16.945 17.313zm7.111 1.01c-.072.01-.144.016-.217.025.073-.009.145-.015.217-.025zm8.289-20.799zm-6.782-4.476zm7.638 5.696zm-17.677 17.833zm4.806 1.732zm-10.146-8.106zm7.663-16.827zm5.059 25.056c-.095.005-.191.011-.286.014.096-.003.191-.009.286-.014zm-1.838-25.761zm-4.54 1.271zm4.962 24.492c-.048-.003-.097-.01-.146-.013.049.004.097.01.146.013z"/><path fill="#46739D" d="M888.643 635.62a12.861 12.861 0 0 0-.276-7.585c-.087-.145-7.166-11.805-20.688-5.513.358-.311.737-.596 1.126-.865a12.864 12.864 0 0 0-5.098 14.029c.498 1.03 7.427 14.642 21.835 5.48a12.848 12.848 0 0 0 3.101-5.546zm-3.903 6.314a19.97 19.97 0 0 1-.22.19c.074-.063.147-.125.22-.19zm-15.563-20.514zm14.572 21.311c-.037.027-.072.056-.109.082.037-.026.072-.055.109-.082z"/><path fill="#46739D" d="M880.449 644.464c-.081.029-.163.053-.244.08.081-.027.163-.052.244-.08zm-2.424-24.969zm-11.255 21.64zm12.563 3.663c-.084.021-.167.045-.251.064.085-.019.167-.042.251-.064zm2.323-.833c-.064.03-.127.063-.192.093.065-.029.128-.063.192-.093zm1.062-.559c-.08.047-.162.092-.243.138l.243-.138zm-17.827-4.819zm.885 1.367zm10.759-20.585zm6.196 1.791zm1.218.809zm-2.589-1.508zm-8.544 24.297zm12.229-21.87z"/><path fill="#172734" d="M877.563 619.444c.154.017.308.029.462.051-.155-.023-.308-.034-.462-.051zm3.371.83c.145.057.284.124.426.187-.142-.063-.281-.129-.426-.187zm-10.904.64zm4.532-1.458c.148-.019.299-.027.448-.04-.149.014-.299.022-.448.04zm-3.184.83c.137-.055.272-.114.412-.165-.14.05-.275.11-.412.165zm14.639 3.641c.094.111.18.229.27.343-.091-.115-.176-.232-.27-.343zm-1.015-1.076.043.037-.043-.037zm1.873 2.221zm-10.852-5.708zm11.601 6.978c.07.134.143.267.208.403-.065-.137-.138-.268-.208-.403zm-18.818-4.684c.121-.084.248-.159.371-.239-.124.08-.25.155-.371.239zm19.566 6.384c-.01-.03-.026-.058-.036-.088.01.027.023.053.032.081l.004.007zm-6.087-7.134zm1.292.8c.124.087.251.17.372.261-.121-.091-.248-.174-.372-.261z" opacity=".5"/><path fill="#46739D" d="M888.368 628.036c-.01-.027-.023-.053-.032-.081a13.044 13.044 0 0 0-.503-1.209c-.065-.137-.138-.269-.208-.403a13.22 13.22 0 0 0-.749-1.27 13.533 13.533 0 0 0-.588-.803c-.09-.114-.176-.232-.27-.343a13.046 13.046 0 0 0-.972-1.038l-.043-.037a12.944 12.944 0 0 0-1.053-.883c-.12-.091-.248-.174-.372-.261a13.017 13.017 0 0 0-1.292-.8c-.3-.161-.61-.309-.925-.448-.142-.062-.281-.129-.426-.187a13.17 13.17 0 0 0-1.429-.481 12.927 12.927 0 0 0-1.48-.298c-.154-.023-.308-.034-.462-.051a12.786 12.786 0 0 0-1.028-.075c-.171-.005-.341-.007-.512-.005-.34.003-.677.023-1.013.053-.149.013-.3.021-.448.04-.953.119-1.882.343-2.773.665-.139.05-.274.11-.412.165a13.1 13.1 0 0 0-1.348.628c-.291.157-.575.327-.853.506-.124.08-.25.155-.371.239-.389.269-.768.554-1.126.865 13.522-6.293 20.6 5.367 20.688 5.512z"/><path fill="#172734" d="M888.368 628.036c-.01-.027-.023-.053-.032-.081a13.044 13.044 0 0 0-.503-1.209c-.065-.137-.138-.269-.208-.403a13.22 13.22 0 0 0-.749-1.27 13.533 13.533 0 0 0-.588-.803c-.09-.114-.176-.232-.27-.343a13.046 13.046 0 0 0-.972-1.038l-.043-.037a12.944 12.944 0 0 0-1.053-.883c-.12-.091-.248-.174-.372-.261a13.017 13.017 0 0 0-1.292-.8c-.3-.161-.61-.309-.925-.448-.142-.062-.281-.129-.426-.187a13.17 13.17 0 0 0-1.429-.481 12.927 12.927 0 0 0-1.48-.298c-.154-.023-.308-.034-.462-.051a12.786 12.786 0 0 0-1.028-.075c-.171-.005-.341-.007-.512-.005-.34.003-.677.023-1.013.053-.149.013-.3.021-.448.04-.953.119-1.882.343-2.773.665-.139.05-.274.11-.412.165a13.1 13.1 0 0 0-1.348.628c-.291.157-.575.327-.853.506-.124.08-.25.155-.371.239-.389.269-.768.554-1.126.865 13.522-6.293 20.6 5.367 20.688 5.512z" opacity=".5"/><path fill="#BAB1CB" d="M866.039 640.288c-.088-.111-.178-.22-.262-.333.083.113.174.222.262.333zm1.041 1.171c-.106-.105-.207-.215-.31-.324.103.109.203.219.31.324zm-2.125-2.749c-.023-.04-.041-.083-.063-.123.022.041.04.083.063.123zm12.827 6.383zm-14.107-9.473c.024.09.064.175.09.265-.019-.066-.04-.132-.058-.198l-.032-.067zm.619 1.747c-.059-.138-.113-.279-.167-.419.054.141.107.281.167.419zm7.016 6.877c-.144-.058-.283-.123-.423-.186.141.063.279.128.423.186zm11.164-.7zm-2.27 1zm-3.642.647zm8.98-4.024zm-1.902 1.646zm.88-.689zm-3.056 1.934zm-11.611-.517c-.13-.072-.261-.142-.388-.219.127.077.259.146.388.219zm4.116 1.465zm5.113-.143zm-3.796.303zm-7.078-2.7c-.021-.016-.039-.035-.06-.052.021.016.039.035.06.052z" opacity=".25"/><path fill="#46739D" d="M863.708 635.687c.018.066.039.132.058.198.105.36.225.715.361 1.063.055.14.108.281.167.419.179.417.377.825.598 1.22.023.04.04.083.063.123.247.431.526.844.821 1.244.084.114.175.222.262.333.231.293.475.575.731.848.102.109.203.219.31.324.338.335.692.657 1.068.955.021.016.039.035.06.052.398.311.821.592 1.258.857.126.077.258.146.388.219a13.1 13.1 0 0 0 1.033.518c.141.063.28.128.423.186.487.197.986.375 1.506.515a12.817 12.817 0 0 0 1.456.295c.339.05.677.089 1.014.112.048.003.097.01.146.013.379.022.755.023 1.13.011.096-.003.191-.009.286-.014.313-.017.624-.044.933-.083.072-.009.145-.015.217-.025.365-.053.727-.122 1.084-.205.084-.02.167-.043.251-.064.294-.075.585-.16.872-.255.081-.027.163-.052.244-.08.344-.122.683-.256 1.015-.406.065-.029.128-.062.192-.093.278-.131.55-.272.818-.422.081-.046.163-.09.243-.138.315-.186.624-.381.922-.593.037-.026.072-.055.109-.082.265-.192.521-.395.771-.607.074-.063.147-.125.22-.19.277-.245.547-.498.802-.767-14.406 9.161-21.335-4.451-21.832-5.481z"/><path fill="#BAB1CB" d="M863.708 635.687c.018.066.039.132.058.198.105.36.225.715.361 1.063.055.14.108.281.167.419.179.417.377.825.598 1.22.023.04.04.083.063.123.247.431.526.844.821 1.244.084.114.175.222.262.333.231.293.475.575.731.848.102.109.203.219.31.324.338.335.692.657 1.068.955.021.016.039.035.06.052.398.311.821.592 1.258.857.126.077.258.146.388.219a13.1 13.1 0 0 0 1.033.518c.141.063.28.128.423.186.487.197.986.375 1.506.515a12.817 12.817 0 0 0 1.456.295c.339.05.677.089 1.014.112.048.003.097.01.146.013.379.022.755.023 1.13.011.096-.003.191-.009.286-.014.313-.017.624-.044.933-.083.072-.009.145-.015.217-.025.365-.053.727-.122 1.084-.205.084-.02.167-.043.251-.064.294-.075.585-.16.872-.255.081-.027.163-.052.244-.08.344-.122.683-.256 1.015-.406.065-.029.128-.062.192-.093.278-.131.55-.272.818-.422.081-.046.163-.09.243-.138.315-.186.624-.381.922-.593.037-.026.072-.055.109-.082.265-.192.521-.395.771-.607.074-.063.147-.125.22-.19.277-.245.547-.498.802-.767-14.406 9.161-21.335-4.451-21.832-5.481z" opacity=".25"/><path fill="#46739D" d="M313.043 714.29zm1.979.712zm1.45 24.49c-.086.051-.174.099-.261.147.087-.048.175-.096.261-.147zm-7.614-25.659c.066-.003.132-.002.198-.004-.066.001-.132.001-.198.004zm8.717 24.936c-.041.029-.079.062-.12.091.041-.029.079-.061.12-.091zm-7.429-24.929c.067.003.134.004.201.008-.067-.005-.134-.005-.201-.008zm5.193 26.249c-.069.033-.137.068-.206.099.07-.031.137-.067.206-.099zm-3.793-26.108c.087.013.174.029.262.044-.088-.015-.175-.031-.262-.044zm9.649 6.388zm.735 1.34zm-3.3 16.212c-.078.069-.157.136-.236.203.079-.066.158-.134.236-.203zm-18.209-20.717a13.726 13.726 0 0 0-4.271 6.839 13.698 13.698 0 0 0 .032 7.211c.532 1.101 7.927 15.627 23.305 5.848a13.742 13.742 0 0 0 3.31-5.92 13.73 13.73 0 0 0-.294-8.096c-.096-.155-7.651-12.598-22.082-5.882zm19.859 1.863zm-3.794-3.319zm1.3.864zm1.17.982zm-19.846 19.119-.057-.062.057.062zm1.927 1.814-.048-.035.048.035zm1.192.82z"/><path fill="#46739D" d="M312.86 740.978c-.09.023-.179.048-.269.069.09-.021.179-.046.269-.069zm-5.425-27.004c.084-.013.168-.026.252-.037-.084.011-.168.024-.252.037zm-7.345 23.745zm7.368 3.532a12.877 12.877 0 0 1-.325-.052c.109.02.217.036.325.052zm2.75.131c-.102.005-.205.012-.307.015.103-.003.205-.009.307-.015zm-5.502-.833zm-1.39-.592-.031-.014.031.014zm8.118 1.309c-.077.011-.154.017-.231.027.077-.009.154-.016.231-.027zm-2.739.119c-.052-.003-.104-.01-.156-.014.052.004.104.011.156.014zm-6.169-25.685c.055-.032.111-.061.167-.092-.056.031-.112.06-.167.092zm-1.175.771c.068-.05.136-.1.205-.148l-.205.148zm12.698 24.15c-.086.03-.174.057-.261.086.088-.029.175-.055.261-.086zm-10.413-25.499.173-.083c-.059.026-.115.056-.173.083zm-7.17 17.071c-.014-.039-.031-.078-.044-.117.013.039.03.077.044.117zm8.415-17.583c.079-.028.159-.054.239-.081-.08.027-.16.053-.239.081zm-7.899 18.841c-.042-.089-.081-.178-.121-.268l.121.268zm.591 1.128-.055-.089c.017.03.037.059.055.089zm.755 1.152c-.058-.08-.115-.161-.171-.242.057.081.113.162.171.242z"/><path fill="#172734" d="M310.347 713.848zm-1.291-.02zm2.752.197zm-5.547.171zm1.426-.259zm-4.994 1.671zm11.875-.805c.155.061.303.133.455.199-.152-.066-.3-.138-.455-.199zm1.442.677zm5.699 5.801c.074.143.152.283.221.429-.069-.146-.147-.286-.221-.429zm.758 1.719c.01.03.025.058.035.087l.004.007c-.011-.032-.028-.062-.039-.094zm-1.558-3.076zm-.916-1.222c.1.119.191.244.288.365-.097-.122-.188-.247-.288-.365zm-2.605-2.369c.133.093.269.182.398.28-.129-.098-.265-.187-.398-.28zm1.52 1.22.048.041c-.015-.015-.033-.027-.048-.041zm-17.352-1.229zm-1.135.88zm4.699-2.675zm-1.312.51z" opacity=".5"/><path fill="#46739D" d="M321.93 721.709c-.069-.145-.147-.286-.221-.429a14.304 14.304 0 0 0-.8-1.357 14.26 14.26 0 0 0-.628-.857c-.096-.122-.187-.247-.288-.365a13.732 13.732 0 0 0-1.037-1.108l-.048-.041a13.711 13.711 0 0 0-1.122-.94c-.129-.097-.265-.186-.398-.28a12.95 12.95 0 0 0-2.366-1.331c-.151-.066-.3-.138-.455-.199-.494-.196-1-.372-1.525-.513-.411-.11-.823-.194-1.235-.265-.087-.015-.174-.031-.262-.044-.4-.061-.8-.107-1.199-.133-.067-.004-.134-.005-.201-.008a13.683 13.683 0 0 0-1.09-.011c-.066.002-.132.001-.198.004-.394.017-.784.054-1.171.105-.084.011-.168.024-.252.037-.395.059-.787.129-1.173.222s-.766.208-1.141.333c-.08.027-.16.053-.239.081-.363.129-.722.271-1.072.429-.058.026-.115.056-.173.083-.32.15-.635.312-.943.486-.055.031-.112.06-.167.092-.332.194-.655.403-.97.624-.069.048-.137.098-.205.148-.319.232-.631.473-.93.732 14.431-6.716 21.986 5.727 22.081 5.884-.01-.03-.024-.058-.035-.087a14.054 14.054 0 0 0-.537-1.292z"/><path fill="#172734" d="M321.93 721.709c-.069-.145-.147-.286-.221-.429a14.304 14.304 0 0 0-.8-1.357 14.26 14.26 0 0 0-.628-.857c-.096-.122-.187-.247-.288-.365a13.732 13.732 0 0 0-1.037-1.108l-.048-.041a13.711 13.711 0 0 0-1.122-.94c-.129-.097-.265-.186-.398-.28a12.95 12.95 0 0 0-2.366-1.331c-.151-.066-.3-.138-.455-.199-.494-.196-1-.372-1.525-.513-.411-.11-.823-.194-1.235-.265-.087-.015-.174-.031-.262-.044-.4-.061-.8-.107-1.199-.133-.067-.004-.134-.005-.201-.008a13.683 13.683 0 0 0-1.09-.011c-.066.002-.132.001-.198.004-.394.017-.784.054-1.171.105-.084.011-.168.024-.252.037-.395.059-.787.129-1.173.222s-.766.208-1.141.333c-.08.027-.16.053-.239.081-.363.129-.722.271-1.072.429-.058.026-.115.056-.173.083-.32.15-.635.312-.943.486-.055.031-.112.06-.167.092-.332.194-.655.403-.97.624-.069.048-.137.098-.205.148-.319.232-.631.473-.93.732 14.431-6.716 21.986 5.727 22.081 5.884-.01-.03-.024-.058-.035-.087a14.054 14.054 0 0 0-.537-1.292z" opacity=".5"/><path fill="#BAB1CB" d="M299.874 737.512zm18.52.613zm-17.405.367zm11.602 2.555zm1.198-.34zm-15.632-5.218zm-.639-.999zm18.693 5.149zm-20.064-8.457c.081.301.173.599.274.893-.092-.269-.164-.546-.24-.821l-.034-.072zm2.906 5.469zm18.402 2.209zm-2.322 1.328zm-11.848-.245zm1.129.495zm15.072-3.336zm-12.353 4.098zm-10.271-8.016zm13.039 8.213zm1.302-.104zm-9.23-2.108zm3.93 1.751zm2.636.435z" opacity=".25"/><path fill="#46739D" d="M296.182 731.254c.076.275.148.552.24.821l.044.117c.119.336.252.666.396.991.04.09.079.179.121.268.165.353.341.701.535 1.039.017.03.037.059.055.089a14.059 14.059 0 0 0 .756 1.152c.23.316.469.625.725.921l.057.062a14.001 14.001 0 0 0 .98 1.005c.289.269.586.529.899.774l.048.035a13.766 13.766 0 0 0 1.192.82c.342.211.692.413 1.056.596l.031.014a13.63 13.63 0 0 0 1.389.592c.39.143.787.277 1.197.386.41.11.82.193 1.23.264.108.019.216.035.325.052.361.054.722.095 1.081.12.052.004.104.011.156.014.404.023.806.024 1.206.012.103-.003.205-.01.307-.015.334-.018.666-.047.995-.089.077-.01.155-.016.231-.027.39-.056.775-.13 1.157-.219.09-.021.179-.046.269-.069.313-.08.623-.17.929-.271.087-.029.174-.055.261-.086.367-.13.729-.273 1.083-.433.07-.031.137-.067.206-.099.296-.139.587-.289.872-.449.087-.049.175-.097.261-.147.336-.198.665-.406.983-.632.041-.029.08-.061.12-.091a14.058 14.058 0 0 0 1.055-.848c.295-.262.584-.532.856-.819-15.377 9.777-22.773-4.749-23.304-5.85z"/><path fill="#BAB1CB" d="M296.182 731.254c.076.275.148.552.24.821l.044.117c.119.336.252.666.396.991.04.09.079.179.121.268.165.353.341.701.535 1.039.017.03.037.059.055.089a14.059 14.059 0 0 0 .756 1.152c.23.316.469.625.725.921l.057.062a14.001 14.001 0 0 0 .98 1.005c.289.269.586.529.899.774l.048.035a13.766 13.766 0 0 0 1.192.82c.342.211.692.413 1.056.596l.031.014a13.63 13.63 0 0 0 1.389.592c.39.143.787.277 1.197.386.41.11.82.193 1.23.264.108.019.216.035.325.052.361.054.722.095 1.081.12.052.004.104.011.156.014.404.023.806.024 1.206.012.103-.003.205-.01.307-.015.334-.018.666-.047.995-.089.077-.01.155-.016.231-.027.39-.056.775-.13 1.157-.219.09-.021.179-.046.269-.069.313-.08.623-.17.929-.271.087-.029.174-.055.261-.086.367-.13.729-.273 1.083-.433.07-.031.137-.067.206-.099.296-.139.587-.289.872-.449.087-.049.175-.097.261-.147.336-.198.665-.406.983-.632.041-.029.08-.061.12-.091a14.058 14.058 0 0 0 1.055-.848c.295-.262.584-.532.856-.819-15.377 9.777-22.773-4.749-23.304-5.85z" opacity=".25"/><path fill="#46739D" d="M144.715 779.056c.127-.018.255-.033.382-.05-.127.017-.255.032-.382.05zm45.024 14.369zm-7.251-5.762zm-35.28-8.898c.129-.012.258-.027.387-.038-.129.011-.258.026-.387.038zm45.256 17.458zm-22.063-14.582zm8.684 3.914zm-29.17-6.978.509-.019-.509.019zm-7.969.947.493-.095-.493.095zm31.536 3.301zm11.618 6.688zm-24.418-10.331c.133.021.266.039.399.061-.133-.023-.266-.041-.399-.061zm-2.57-.344c.131.014.263.032.394.047-.131-.015-.262-.033-.394-.047zm8.293 1.55zm-2.952-.699c.172.036.345.075.517.113a29.69 29.69 0 0 0-.517-.113zm-8.221-1.082zm32.26 12.814zm-50.598-10.66c.161-.048.322-.093.484-.14l-.484.14zm39.457 3.364zm13.828 87.94zm-61.438-84.844c.541 1.104 1.069 2.211 1.62 3.312 15.286 30.551 33.531 58.642 54.204 84.112a109.722 109.722 0 0 0 7.266-4.237c6.043-6.365 10.629-14.286 13.06-23.359 2.93-10.936 2.31-21.986-1.151-31.93-.311-.518-25.931-42.756-74.999-27.898zm59.468 86.658c-.075.065-.148.134-.223.199.075-.065.148-.133.223-.199zm8.167-72.863zm-10.172 74.536c-.155.123-.312.243-.468.365.156-.122.313-.242.468-.365zm16.497-63.164zm-4.635-8.913zm3.406 6.143zm-1.443-2.817zm-5.5-8.184zm-65.034-15.062.451-.208c-.15.068-.3.138-.451.208zm4.863-1.972c.121-.042.24-.087.361-.128-.121.041-.24.085-.361.128zm-2.317.868.356-.139-.356.139z"/><path fill="#172734" d="M158.507 778.885zm33.345 16.666c.208.22.408.448.612.672-.204-.224-.404-.452-.612-.672zm-46.755-16.545zm10.651-.37zm-8.153.091zm2.829-.169zm39.141 14.71c.057.053.117.103.174.157-.057-.054-.117-.104-.174-.157zm-36.742-14.745zm8.258.719zm8.382 2.07c.316.104.625.219.938.329-.313-.11-.622-.225-.938-.329zm12.241 5.828c.265.17.522.348.784.522-.261-.174-.519-.352-.784-.522zm-2.731-1.644c.037.021.075.039.112.059l-.112-.059zm-6.511-3.088zm-30.022-2.978zm21.531.371zm22.773 11.007c.25.204.502.405.748.613-.245-.209-.498-.409-.748-.613zm-2.502-1.931zm13.643 14.331c.059.09.123.177.181.267-.058-.091-.122-.177-.181-.267zm1.72 2.816c.146.257.282.519.424.777-.142-.259-.278-.521-.424-.777zm-72.169-21.47zm73.58 24.125zm2.732 6.452c-.038-.11-.086-.217-.125-.327.037.105.08.209.117.314a.574.574 0 0 1 .008.013zm-1.432-3.644c.129.3.262.598.385.901-.123-.303-.256-.601-.385-.901zm-26.853-27.779c.296.139.596.273.888.417-.293-.144-.592-.278-.888-.417zm-35.818-3.689zm-7.248 2.293zm61.464 15.496zm-59.142-16.354zm2.659-.832zm58.417 19.618c.194.258.392.514.581.776-.189-.262-.386-.517-.581-.776zm-65.848-16.893z" opacity=".5"/><path fill="#46739D" d="M203.74 815.118c-.037-.106-.079-.209-.117-.314a55.356 55.356 0 0 0-.922-2.416c-.124-.302-.256-.601-.385-.901a55.002 55.002 0 0 0-1.3-2.808 54.978 54.978 0 0 0-.987-1.878c-.142-.259-.278-.521-.424-.777a54.546 54.546 0 0 0-1.539-2.549c-.058-.09-.122-.177-.181-.267a55.61 55.61 0 0 0-1.508-2.192c-.189-.262-.387-.517-.581-.776a53.544 53.544 0 0 0-1.934-2.432 55.163 55.163 0 0 0-1.397-1.586c-.204-.224-.404-.451-.612-.672a54.302 54.302 0 0 0-2.113-2.126c-.057-.054-.117-.104-.174-.157a53.538 53.538 0 0 0-2.073-1.847c-.246-.208-.498-.409-.748-.613a53.196 53.196 0 0 0-2.503-1.93 55.165 55.165 0 0 0-1.754-1.215c-.261-.174-.519-.353-.784-.522a53.906 53.906 0 0 0-2.62-1.585c-.037-.021-.075-.039-.112-.059a54.232 54.232 0 0 0-2.622-1.371c-.293-.144-.592-.278-.888-.417a53.433 53.433 0 0 0-3.001-1.3 56.247 56.247 0 0 0-2.061-.767c-.313-.11-.622-.225-.938-.329a55.22 55.22 0 0 0-3.058-.924 56.574 56.574 0 0 0-2.434-.587 54.933 54.933 0 0 0-2.89-.559c-.133-.022-.266-.04-.399-.061a52.755 52.755 0 0 0-2.175-.296c-.131-.015-.263-.033-.394-.047a54.078 54.078 0 0 0-2.88-.231 54.048 54.048 0 0 0-2.409-.084 53.158 53.158 0 0 0-2.398.036c-.17.006-.34.011-.509.019a54.08 54.08 0 0 0-2.32.15c-.129.011-.258.026-.387.038-.707.067-1.41.147-2.111.241-.127.017-.255.032-.382.05a53.95 53.95 0 0 0-2.769.469c-.771.15-1.539.311-2.301.494-.762.183-1.516.388-2.267.603-.161.046-.323.092-.484.14-.73.217-1.456.446-2.175.693-.121.041-.24.086-.361.128-.659.231-1.312.474-1.961.73-.118.047-.238.091-.356.139-.705.284-1.403.584-2.095.896-.151.068-.301.138-.451.208-.693.32-1.381.651-2.059 1 .43.89.868 1.778 1.304 2.666 49.068-14.86 74.688 27.378 74.999 27.895z"/><path fill="#172734" d="M203.74 815.118c-.037-.106-.079-.209-.117-.314a55.356 55.356 0 0 0-.922-2.416c-.124-.302-.256-.601-.385-.901a55.002 55.002 0 0 0-1.3-2.808 54.978 54.978 0 0 0-.987-1.878c-.142-.259-.278-.521-.424-.777a54.546 54.546 0 0 0-1.539-2.549c-.058-.09-.122-.177-.181-.267a55.61 55.61 0 0 0-1.508-2.192c-.189-.262-.387-.517-.581-.776a53.544 53.544 0 0 0-1.934-2.432 55.163 55.163 0 0 0-1.397-1.586c-.204-.224-.404-.451-.612-.672a54.302 54.302 0 0 0-2.113-2.126c-.057-.054-.117-.104-.174-.157a53.538 53.538 0 0 0-2.073-1.847c-.246-.208-.498-.409-.748-.613a53.196 53.196 0 0 0-2.503-1.93 55.165 55.165 0 0 0-1.754-1.215c-.261-.174-.519-.353-.784-.522a53.906 53.906 0 0 0-2.62-1.585c-.037-.021-.075-.039-.112-.059a54.232 54.232 0 0 0-2.622-1.371c-.293-.144-.592-.278-.888-.417a53.433 53.433 0 0 0-3.001-1.3 56.247 56.247 0 0 0-2.061-.767c-.313-.11-.622-.225-.938-.329a55.22 55.22 0 0 0-3.058-.924 56.574 56.574 0 0 0-2.434-.587 54.933 54.933 0 0 0-2.89-.559c-.133-.022-.266-.04-.399-.061a52.755 52.755 0 0 0-2.175-.296c-.131-.015-.263-.033-.394-.047a54.078 54.078 0 0 0-2.88-.231 54.048 54.048 0 0 0-2.409-.084 53.158 53.158 0 0 0-2.398.036c-.17.006-.34.011-.509.019a54.08 54.08 0 0 0-2.32.15c-.129.011-.258.026-.387.038-.707.067-1.41.147-2.111.241-.127.017-.255.032-.382.05a53.95 53.95 0 0 0-2.769.469c-.771.15-1.539.311-2.301.494-.762.183-1.516.388-2.267.603-.161.046-.323.092-.484.14-.73.217-1.456.446-2.175.693-.121.041-.24.086-.361.128-.659.231-1.312.474-1.961.73-.118.047-.238.091-.356.139-.705.284-1.403.584-2.095.896-.151.068-.301.138-.451.208-.693.32-1.381.651-2.059 1 .43.89.868 1.778 1.304 2.666 49.068-14.86 74.688 27.378 74.999 27.895z" opacity=".5"/><path fill="#BAB1CB" d="M191.831 870.407zm-3.845 3.671zm1.747-1.587zm-4.078 3.488.081-.063-.082.062.001.001z" opacity=".25"/><path fill="#46739D" d="m185.654 875.978.082-.062c.156-.121.313-.242.468-.365a54.388 54.388 0 0 0 1.782-1.474c.075-.065.148-.133.223-.199a53.996 53.996 0 0 0 1.971-1.814 54.957 54.957 0 0 0 1.652-1.658 109.466 109.466 0 0 1-7.266 4.237c.361.447.725.891 1.088 1.335z"/><path fill="#BAB1CB" d="m185.654 875.978.082-.062c.156-.121.313-.242.468-.365a54.388 54.388 0 0 0 1.782-1.474c.075-.065.148-.133.223-.199a53.996 53.996 0 0 0 1.971-1.814 54.957 54.957 0 0 0 1.652-1.658 109.466 109.466 0 0 1-7.266 4.237c.361.447.725.891 1.088 1.335z" opacity=".25"/><path fill="#46739D" d="M396.356 940.685c-.068-.043-.139-.083-.207-.127.068.044.139.084.207.127zm17.609 8.143c-.28-.089-.56-.179-.839-.271.28.091.559.182.839.271zm41.494 1.41zm-55.666-7.523zm48.296 8.957c-.281.04-.563.076-.844.114.281-.038.563-.073.844-.114zm3.664-.618c-.14.027-.278.059-.418.085.14-.026.278-.058.418-.085zm-22.381.983c-.291-.03-.581-.059-.872-.092.291.034.581.062.872.092zm-39.133-15.627c-.079-.061-.161-.12-.24-.181.079.061.161.119.24.181zm75.471 10.535c-.129.052-.26.098-.389.15.129-.052.26-.099.389-.15zm-72.331-8.234zm69.222 9.396zm-25.598 4.338c-.263-.001-.526.002-.79-.002.264.004.527.001.79.002zm-4.138-.119c-.222-.013-.444-.033-.666-.047.222.014.444.034.666.047zm-22.932-4.891a3.019 3.019 0 0 0-.087-.031l.087.031zm11.726 3.404a72.961 72.961 0 0 1-.905-.193c.302.067.604.13.905.193zm3.453.645c-.144-.023-.288-.052-.432-.076.144.023.288.052.432.076zm-22.181-7.109-.157-.076.157.076zm41.56 7.725c-.216.021-.432.046-.648.065.216-.018.432-.044.648-.065zm-37.826-5.997zm33.873 6.276c-.26.011-.522.016-.783.025.261-.009.522-.014.783-.025zm31.95-8.544c-.19.099-.384.192-.575.289.191-.097.384-.19.575-.289zm-4.722-138.508c.165.072.333.14.498.213-.166-.073-.333-.141-.498-.213zm3.527 1.634c.218.108.435.218.652.328-.217-.11-.433-.22-.652-.328zm-10.852-4.37c.236.075.473.149.708.226-.235-.077-.472-.151-.708-.226zm3.917 1.353c.18.068.357.14.536.209-.179-.069-.356-.141-.536-.209zm10.579 4.935.075.044a2.922 2.922 0 0 1-.075-.044zm12.037 8.422zm-2.91-2.362c.13.1.262.198.391.299-.129-.101-.261-.199-.391-.299zm-6.212-4.319c.2.125.4.249.599.375-.198-.126-.399-.25-.599-.375zm-44.044-11.582c.238-.01.477-.018.716-.026-.239.008-.477.015-.716.026zm-7.33.675c.178-.025.357-.046.535-.07-.178.024-.357.045-.535.07zm3.517-.411c.18-.017.36-.038.54-.053-.181.016-.36.036-.54.053zm-7.421 1.071c.231-.045.463-.091.695-.134l-.695.134zm67.387 19.607.113.111-.113-.111zm-40.972-20.089c.186.029.372.054.558.085-.186-.031-.372-.056-.558-.085zm3.902.714c.245.051.489.106.734.16a48.135 48.135 0 0 0-.734-.16zm-11.588-1.525c.243.013.486.026.729.041a88.994 88.994 0 0 0-.729-.041zm4.059.326c.186.02.373.046.559.067-.186-.022-.372-.047-.559-.067zm49.603 25.796c.131.15.258.303.388.453-.13-.15-.257-.303-.388-.453zm11.92 18.409c.059.127.12.252.178.38-.057-.127-.119-.253-.178-.38zm-1.578-3.228c.094.181.184.364.277.546-.093-.181-.183-.365-.277-.546zm-26.385 99.711c-.214.138-.43.272-.645.408.215-.137.431-.27.645-.408zm3.201-2.194c-.173.125-.344.254-.518.377.174-.124.345-.252.518-.377z"/><path fill="#46739D" d="M386.841 817.8c-11.161 9.688-19.648 22.697-23.761 38.047a76.348 76.348 0 0 0 .039 39.829c1.578 3.35 42.657 88.223 129.781 32.821 8.519-8.973 14.984-20.14 18.411-32.931 4.131-15.417 3.256-30.995-1.622-45.013-.462-.768-42.507-70.14-122.848-32.753zm89.146 124.097c-.219.128-.436.259-.656.385.22-.125.437-.256.656-.385zm32.346-94.94c.09.222.178.444.266.667-.088-.222-.176-.445-.266-.667zm-4.897-9.959c.113.193.227.385.338.579-.111-.194-.225-.386-.338-.579zm-18.47 98.752c-.218.173-.438.342-.658.513.219-.171.44-.34.658-.513zm5.606-4.916c-.209.202-.42.402-.631.602.211-.2.421-.4.631-.602zm-21.11 14.48c-.253.117-.504.236-.758.35.254-.115.506-.233.758-.35zm27.784-117.368c.094.119.192.235.285.355-.093-.12-.191-.237-.285-.355z"/><path fill="#46739D" d="M492.327 822.336c.158.164.318.327.474.492-.156-.166-.316-.329-.474-.492zm9.374 11.82c.041.063.079.127.119.191-.04-.063-.078-.128-.119-.191zm-13.908 99.236c-.106.092-.208.189-.314.281.106-.093.209-.189.314-.281zm11.669-102.514c.139.194.277.388.414.583-.137-.194-.274-.389-.414-.583zm-18.289-18.068c.159.112.316.227.474.339-.158-.112-.314-.227-.474-.339zm-69.297-9.535c.17-.06.339-.122.509-.181-.171.059-.339.121-.509.181zM372.85 917.494c-.145-.223-.287-.449-.429-.673.142.224.284.45.429.673zm-1.915-3.11c-.082-.14-.168-.278-.249-.419.082.141.167.279.249.419zm3.996 6.155c-.087-.121-.178-.24-.264-.361.086.121.177.24.264.361zm4.567 5.752c-.089-.101-.18-.2-.268-.301.088.102.18.2.268.301zm35.954-124.174c.226-.067.452-.131.678-.196-.226.065-.452.129-.678.196zm-10.432 3.939c.212-.098.425-.197.638-.294-.214.097-.426.195-.638.294zm3.591-1.557c.165-.066.332-.128.497-.194-.165.065-.332.127-.497.194zM377.16 923.486c-.168-.212-.334-.426-.5-.639.166.213.331.427.5.639zm-11.115-19.06c-.098-.242-.192-.486-.288-.73.096.244.19.488.288.73zm-2.441-6.982c-.074-.249-.143-.5-.215-.749.072.25.141.5.215.749zm1.172 3.616c-.062-.176-.128-.349-.188-.526.06.176.126.35.188.526zm24.607-85.361c.182-.145.364-.29.548-.434-.184.143-.366.289-.548.434zm-7.349 113.35c-.189-.196-.375-.393-.562-.591.187.198.373.395.562.591zm-14.493-21.173c-.073-.159-.151-.315-.223-.475.072.16.15.317.223.475zm1.595 3.249c-.122-.234-.24-.47-.359-.705.119.236.237.471.359.705zm23.366-97.787c.146-.104.294-.204.44-.308-.146.104-.294.204-.44.308zm2.88-1.959c.15-.097.297-.197.448-.293-.151.096-.299.196-.448.293zm-10.773 120.217c-.085-.08-.173-.158-.258-.239.084.081.173.158.258.239zm2.843 2.546zm11.117-124.726c.201-.117.404-.232.607-.348-.203.115-.406.23-.607.348z"/><path fill="#172734" d="M499.877 831.462zM386.841 817.8zm118.742 23.13zm-89.452-39.009zm76.67 20.906zm-102.87-7.562zm107.6 13.035zm4.289 6.047zm-11.746-14.256zm13.7 17.486zm-8.422-11.922zm-96.176-16.587zm24.093-8.828zm26.278-.264zm-40.439 4.329zm36.814-4.832zm-33.537 3.621zm44.67-1.503zm-3.43-.827zm33.892 17.006zm-56.982-18.521zm30.614 3.568zm-19.117-3.696zm-7.508-.109zm-28.866 6.75zm32.249-6.801zm-10.894.682zm-24.951 7.849zm-6.233 3.594zm112.77 36.538c.382.969.747 1.944 1.09 2.929l.011.018a78.307 78.307 0 0 0-1.101-2.947zm-30.148-36.629zm3.197 2.155zm2.808 2.088zm22.608 28.753zm-114.122-30.96zm79.003-5.742zm-3.682-1.749zm-48.933-4.47zm45.564 3.083zm10.118 4.77z" opacity=".5"/><path fill="#46739D" d="M508.333 846.957a76.813 76.813 0 0 0-1.269-2.966c-.058-.127-.12-.253-.178-.38a77.953 77.953 0 0 0-1.302-2.682c-.093-.182-.183-.365-.277-.546a76.924 76.924 0 0 0-1.532-2.806c-.111-.194-.226-.386-.338-.579a76.165 76.165 0 0 0-1.616-2.651c-.04-.063-.078-.128-.119-.191a77.621 77.621 0 0 0-2.238-3.278 77.897 77.897 0 0 0-1.931-2.578c-.094-.119-.191-.236-.285-.355a79.522 79.522 0 0 0-1.893-2.29c-.13-.151-.257-.304-.388-.453a76.941 76.941 0 0 0-2.164-2.375c-.157-.165-.316-.328-.474-.492a75.71 75.71 0 0 0-2.253-2.245l-.113-.111a76.553 76.553 0 0 0-2.444-2.21c-.181-.157-.361-.314-.543-.469a74.856 74.856 0 0 0-2.519-2.063c-.129-.101-.262-.199-.391-.299a76.116 76.116 0 0 0-2.416-1.789c-.159-.113-.315-.228-.474-.339a75.236 75.236 0 0 0-2.722-1.815c-.198-.126-.399-.25-.599-.375a76.005 76.005 0 0 0-2.84-1.697l-.075-.044a76.788 76.788 0 0 0-2.991-1.59 76.851 76.851 0 0 0-3.682-1.749c-.165-.073-.332-.141-.498-.213a76.362 76.362 0 0 0-2.872-1.174c-.179-.069-.356-.141-.536-.209a77.924 77.924 0 0 0-3.21-1.127c-.235-.077-.472-.151-.708-.226a79.243 79.243 0 0 0-3.386-1 78.705 78.705 0 0 0-3.43-.827c-.245-.054-.489-.108-.734-.16a77.294 77.294 0 0 0-3.344-.629c-.186-.031-.372-.056-.558-.085a77.05 77.05 0 0 0-3.068-.418c-.186-.022-.373-.047-.559-.067a76.803 76.803 0 0 0-3.33-.284c-.243-.016-.486-.028-.729-.041a75.83 75.83 0 0 0-3.397-.119 77.749 77.749 0 0 0-3.383.05 77.147 77.147 0 0 0-3.989.237c-.181.016-.36.036-.54.053a75.73 75.73 0 0 0-2.982.341c-.178.024-.357.044-.535.07a76.33 76.33 0 0 0-3.209.527c-.232.043-.463.089-.695.134a76.982 76.982 0 0 0-3.245.697 76.02 76.02 0 0 0-3.199.851c-.226.065-.453.129-.678.196-1.03.305-2.053.629-3.068.977-.17.058-.339.121-.509.181-.93.326-1.852.669-2.767 1.03-.165.065-.332.127-.497.194a77.715 77.715 0 0 0-3.591 1.557c-.995.46-1.984.934-2.958 1.436a76.038 76.038 0 0 0-2.886 1.576c-.203.116-.405.231-.607.348a77.278 77.278 0 0 0-2.74 1.67c-.15.096-.298.196-.448.293a78.478 78.478 0 0 0-2.44 1.652c-.146.103-.294.203-.44.308a76.45 76.45 0 0 0-2.571 1.926c-.184.143-.365.289-.548.434-.86.684-1.711 1.38-2.542 2.102 80.341-37.387 122.386 31.985 122.848 32.753a77.283 77.283 0 0 0-1.09-2.929c-.088-.223-.176-.446-.266-.668z"/><path fill="#172734" d="M508.333 846.957a76.813 76.813 0 0 0-1.269-2.966c-.058-.127-.12-.253-.178-.38a77.953 77.953 0 0 0-1.302-2.682c-.093-.182-.183-.365-.277-.546a76.924 76.924 0 0 0-1.532-2.806c-.111-.194-.226-.386-.338-.579a76.165 76.165 0 0 0-1.616-2.651c-.04-.063-.078-.128-.119-.191a77.621 77.621 0 0 0-2.238-3.278 77.897 77.897 0 0 0-1.931-2.578c-.094-.119-.191-.236-.285-.355a79.522 79.522 0 0 0-1.893-2.29c-.13-.151-.257-.304-.388-.453a76.941 76.941 0 0 0-2.164-2.375c-.157-.165-.316-.328-.474-.492a75.71 75.71 0 0 0-2.253-2.245l-.113-.111a76.553 76.553 0 0 0-2.444-2.21c-.181-.157-.361-.314-.543-.469a74.856 74.856 0 0 0-2.519-2.063c-.129-.101-.262-.199-.391-.299a76.116 76.116 0 0 0-2.416-1.789c-.159-.113-.315-.228-.474-.339a75.236 75.236 0 0 0-2.722-1.815c-.198-.126-.399-.25-.599-.375a76.005 76.005 0 0 0-2.84-1.697l-.075-.044a76.788 76.788 0 0 0-2.991-1.59 76.851 76.851 0 0 0-3.682-1.749c-.165-.073-.332-.141-.498-.213a76.362 76.362 0 0 0-2.872-1.174c-.179-.069-.356-.141-.536-.209a77.924 77.924 0 0 0-3.21-1.127c-.235-.077-.472-.151-.708-.226a79.243 79.243 0 0 0-3.386-1 78.705 78.705 0 0 0-3.43-.827c-.245-.054-.489-.108-.734-.16a77.294 77.294 0 0 0-3.344-.629c-.186-.031-.372-.056-.558-.085a77.05 77.05 0 0 0-3.068-.418c-.186-.022-.373-.047-.559-.067a76.803 76.803 0 0 0-3.33-.284c-.243-.016-.486-.028-.729-.041a75.83 75.83 0 0 0-3.397-.119 77.749 77.749 0 0 0-3.383.05 77.147 77.147 0 0 0-3.989.237c-.181.016-.36.036-.54.053a75.73 75.73 0 0 0-2.982.341c-.178.024-.357.044-.535.07a76.33 76.33 0 0 0-3.209.527c-.232.043-.463.089-.695.134a76.982 76.982 0 0 0-3.245.697 76.02 76.02 0 0 0-3.199.851c-.226.065-.453.129-.678.196-1.03.305-2.053.629-3.068.977-.17.058-.339.121-.509.181-.93.326-1.852.669-2.767 1.03-.165.065-.332.127-.497.194a77.715 77.715 0 0 0-3.591 1.557c-.995.46-1.984.934-2.958 1.436a76.038 76.038 0 0 0-2.886 1.576c-.203.116-.405.231-.607.348a77.278 77.278 0 0 0-2.74 1.67c-.15.096-.298.196-.448.293a78.478 78.478 0 0 0-2.44 1.652c-.146.103-.294.203-.44.308a76.45 76.45 0 0 0-2.571 1.926c-.184.143-.365.289-.548.434-.86.684-1.711 1.38-2.542 2.102 80.341-37.387 122.386 31.985 122.848 32.753a77.283 77.283 0 0 0-1.09-2.929c-.088-.223-.176-.446-.266-.668z" opacity=".5"/><path fill="#BAB1CB" d="M384.351 931.357zm59.492 20.808zm7.492-1.026zm-4.091.647zm11.399-2.396zm-4.036 1.051zm-18.394 2.002zm3.542-.039zm-7.556-.125zm-3.699-.334zm33.278-3.553zm31.122-19.895zm-11.295 9.78zm5.874-4.605zm-22.158 13.422zm-40.641 4.313zm65.26-19.972zm-5.632 4.828zm-12.395 7.861zm-3.209 1.54zm6.627-3.381zm2.946-1.781zm-110.959-33.1zm7.348 12.775zm-2.246-3.356zm9.052 11.637zm-2.242-2.468zm-2.57-3.143zm-5.973-8.882zm-1.91-3.544zm-3.02-6.724zm-1.169-3.163zm-1.523-4.971c.102.379.216.754.324 1.131-.096-.337-.179-.679-.271-1.018l-.053-.113zm57.689 55.084zm-10.909-3.244zm-23.02-13.804zm19.048 12.156zm7.254 2.801zm4.209 1.267zm-14.562-5.524zm-10.078-6.07zm-2.697-2.001zm9.054 6.068zm-2.904-1.738z" opacity=".25"/><path fill="#46739D" d="M363.119 895.677c.092.339.175.681.271 1.018.071.25.141.5.215.749a77.01 77.01 0 0 0 .984 3.09c.06.176.126.35.188.526.311.885.639 1.764.981 2.637.096.243.19.487.288.73a76.616 76.616 0 0 0 1.273 2.975c.072.159.15.316.223.475.396.856.809 1.704 1.235 2.544.119.235.238.471.359.705a77.943 77.943 0 0 0 1.55 2.84c.081.141.167.279.249.419.479.821.976 1.633 1.485 2.436.143.225.284.45.429.673a76.962 76.962 0 0 0 1.817 2.683c.086.122.177.24.264.361a77.439 77.439 0 0 0 2.229 2.947 76.123 76.123 0 0 0 2.07 2.504c.088.102.18.2.268.301a77.709 77.709 0 0 0 1.974 2.167c.187.198.373.395.562.591a75.234 75.234 0 0 0 2.316 2.308c.085.081.173.158.258.239a76.651 76.651 0 0 0 2.216 2.003 76.559 76.559 0 0 0 3.174 2.63c.079.062.161.12.24.181a78.74 78.74 0 0 0 2.457 1.82c.227.161.454.323.683.482a75.7 75.7 0 0 0 2.77 1.847c.068.043.139.084.207.127a76.45 76.45 0 0 0 3.437 2.03 76.92 76.92 0 0 0 2.981 1.585l.157.076a77.463 77.463 0 0 0 3.734 1.728 76.719 76.719 0 0 0 3.268 1.332 77.675 77.675 0 0 0 4.033 1.393c1.112.352 2.233.69 3.371.995a78.502 78.502 0 0 0 4.323 1.017c1.007.209 2.014.4 3.02.568.144.024.288.053.432.076 1.13.182 2.26.331 3.388.462.291.034.581.062.872.092a75.35 75.35 0 0 0 2.827.241c.222.015.444.035.666.047a76.72 76.72 0 0 0 3.349.117c.264.004.526.001.79.002a76.36 76.36 0 0 0 2.752-.041c.261-.009.522-.014.783-.025a77.22 77.22 0 0 0 3.305-.213c.217-.019.432-.044.648-.065a74.03 74.03 0 0 0 2.753-.315c.281-.037.563-.073.844-.114a76.467 76.467 0 0 0 3.246-.533c.14-.026.279-.058.418-.085a76.593 76.593 0 0 0 2.854-.613c.284-.067.569-.134.852-.203a78.03 78.03 0 0 0 3.184-.847 77.137 77.137 0 0 0 3.957-1.283 74.524 74.524 0 0 0 2.72-1.013c.129-.051.26-.098.389-.15a76.71 76.71 0 0 0 2.994-1.281c.254-.115.506-.233.758-.35a75.77 75.77 0 0 0 2.45-1.19c.191-.097.385-.19.575-.289a78.116 78.116 0 0 0 2.843-1.552c.22-.126.437-.257.656-.385a77.695 77.695 0 0 0 2.29-1.396c.215-.136.431-.27.645-.408a76.962 76.962 0 0 0 2.683-1.817c.174-.124.345-.252.518-.377a75.298 75.298 0 0 0 2.185-1.637c.22-.171.44-.34.658-.513a76.688 76.688 0 0 0 2.513-2.078c.106-.092.209-.188.314-.281a76.289 76.289 0 0 0 2.778-2.558 76.54 76.54 0 0 0 2.328-2.336c-87.119 55.402-128.199-29.471-129.776-32.821z"/><path fill="#BAB1CB" d="M363.119 895.677c.092.339.175.681.271 1.018.071.25.141.5.215.749a77.01 77.01 0 0 0 .984 3.09c.06.176.126.35.188.526.311.885.639 1.764.981 2.637.096.243.19.487.288.73a76.616 76.616 0 0 0 1.273 2.975c.072.159.15.316.223.475.396.856.809 1.704 1.235 2.544.119.235.238.471.359.705a77.943 77.943 0 0 0 1.55 2.84c.081.141.167.279.249.419.479.821.976 1.633 1.485 2.436.143.225.284.45.429.673a76.962 76.962 0 0 0 1.817 2.683c.086.122.177.24.264.361a77.439 77.439 0 0 0 2.229 2.947 76.123 76.123 0 0 0 2.07 2.504c.088.102.18.2.268.301a77.709 77.709 0 0 0 1.974 2.167c.187.198.373.395.562.591a75.234 75.234 0 0 0 2.316 2.308c.085.081.173.158.258.239a76.651 76.651 0 0 0 2.216 2.003 76.559 76.559 0 0 0 3.174 2.63c.079.062.161.12.24.181a78.74 78.74 0 0 0 2.457 1.82c.227.161.454.323.683.482a75.7 75.7 0 0 0 2.77 1.847c.068.043.139.084.207.127a76.45 76.45 0 0 0 3.437 2.03 76.92 76.92 0 0 0 2.981 1.585l.157.076a77.463 77.463 0 0 0 3.734 1.728 76.719 76.719 0 0 0 3.268 1.332 77.675 77.675 0 0 0 4.033 1.393c1.112.352 2.233.69 3.371.995a78.502 78.502 0 0 0 4.323 1.017c1.007.209 2.014.4 3.02.568.144.024.288.053.432.076 1.13.182 2.26.331 3.388.462.291.034.581.062.872.092a75.35 75.35 0 0 0 2.827.241c.222.015.444.035.666.047a76.72 76.72 0 0 0 3.349.117c.264.004.526.001.79.002a76.36 76.36 0 0 0 2.752-.041c.261-.009.522-.014.783-.025a77.22 77.22 0 0 0 3.305-.213c.217-.019.432-.044.648-.065a74.03 74.03 0 0 0 2.753-.315c.281-.037.563-.073.844-.114a76.467 76.467 0 0 0 3.246-.533c.14-.026.279-.058.418-.085a76.593 76.593 0 0 0 2.854-.613c.284-.067.569-.134.852-.203a78.03 78.03 0 0 0 3.184-.847 77.137 77.137 0 0 0 3.957-1.283 74.524 74.524 0 0 0 2.72-1.013c.129-.051.26-.098.389-.15a76.71 76.71 0 0 0 2.994-1.281c.254-.115.506-.233.758-.35a75.77 75.77 0 0 0 2.45-1.19c.191-.097.385-.19.575-.289a78.116 78.116 0 0 0 2.843-1.552c.22-.126.437-.257.656-.385a77.695 77.695 0 0 0 2.29-1.396c.215-.136.431-.27.645-.408a76.962 76.962 0 0 0 2.683-1.817c.174-.124.345-.252.518-.377a75.298 75.298 0 0 0 2.185-1.637c.22-.171.44-.34.658-.513a76.688 76.688 0 0 0 2.513-2.078c.106-.092.209-.188.314-.281a76.289 76.289 0 0 0 2.778-2.558 76.54 76.54 0 0 0 2.328-2.336c-87.119 55.402-128.199-29.471-129.776-32.821z" opacity=".25"/><path fill="#46739D" d="M826.597 821.519c-.157-.242-.311-.487-.466-.731.155.244.309.488.466.731zm-8.728-17.766c-.067-.19-.138-.378-.203-.569.065.191.136.379.203.569zm26.598-92.273c.198-.158.396-.316.596-.472-.2.156-.398.314-.596.472zm-27.865 88.364c-.08-.269-.155-.539-.232-.809.077.269.152.54.232.809zm12.244 24.965c-.094-.131-.193-.26-.286-.391.094.132.192.26.286.391zm25.55-120.121zm-3.444 2.122c.162-.106.323-.214.486-.319-.163.105-.324.214-.486.319zm-26.423 111.349c-.089-.153-.183-.303-.271-.456.088.153.181.303.271.456zm-1.946-3.525c-.132-.254-.26-.51-.39-.765.129.256.258.512.39.765zm-1.724-3.511c-.08-.172-.164-.342-.242-.515.078.172.162.342.242.515zm-1.618-3.73c-.106-.263-.208-.527-.312-.792.104.264.206.529.312.792zm28.6-98.466c.157-.112.317-.221.475-.332-.158.111-.318.219-.475.332zm36.725-14.729c.194-.027.389-.05.583-.076-.194.026-.389.049-.583.076zm3.8-.443c.196-.019.392-.041.589-.058-.197.017-.393.039-.589.058zm16.617.111c.2.022.401.049.601.072-.2-.023-.401-.05-.601-.072zm-4.389-.352c.262.014.525.028.787.045-.262-.017-.525-.031-.787-.045zm-39.223 7.541c.23-.106.46-.214.691-.318-.231.105-.461.212-.691.318zm3.883-1.683c.178-.072.359-.139.538-.21-.179.071-.36.138-.538.21zm3.532-1.324c.182-.064.363-.131.546-.194-.183.062-.364.13-.546.194zm11.56-3.135c.251-.049.503-.099.755-.145-.253.046-.504.096-.755.145zm-7.696 1.884c.244-.072.489-.142.733-.212-.245.07-.489.14-.733.212zm19.841-3.329c.258-.011.517-.02.776-.028-.259.009-.518.017-.776.028zm-9.398 164.792c-.158-.025-.316-.057-.475-.084.159.027.317.059.475.084zm8.379.91c-.24-.014-.48-.035-.72-.051.24.016.48.037.72.051zm-3.776-.311c-.314-.033-.629-.064-.943-.1.315.036.629.067.943.1zm-16.654-3.47zm-4.356-1.505-.099-.036.099.036zm12.672 3.679c-.325-.068-.651-.136-.976-.208.326.072.651.14.976.208zm28.57.901c-.303.044-.607.082-.91.122.303-.04.607-.079.91-.122zm-11.983.835c-.285-.001-.569.002-.854-.002.286.004.57.001.854.002zm8.096-.373c-.235.022-.468.05-.703.071.235-.021.468-.048.703-.071zm-4.274.301c-.282.012-.564.018-.847.027.283-.009.565-.014.847-.027zm-54.371-17.26c-.086-.067-.175-.13-.261-.198.085.067.174.131.261.198zm-8.87-7.957c-.205-.213-.408-.428-.611-.643.203.215.406.43.611.643zm2.785 2.754c-.093-.088-.19-.173-.283-.261.093.088.19.173.283.261zm3.071 2.75c-.228-.194-.453-.391-.679-.587.226.196.451.393.679.587zm-8.597-8.485c-.096-.11-.196-.217-.292-.327.096.11.196.217.292.327zm25.329 19.546c-.056-.028-.114-.053-.17-.081.056.028.114.053.17.081zm-3.391-1.794zm-24.467-20.786c-.182-.229-.361-.46-.541-.691.18.231.359.462.541.691zm20.756 18.595c-.076-.048-.154-.093-.23-.141.076.048.154.093.23.141zm-3.221-2.135zm14.359 7.988c-.286-.124-.571-.25-.856-.376.285.127.57.252.856.376zm76.952-146.455c.216.135.433.269.648.406-.214-.137-.431-.271-.648-.406zm15.648 12.665c.171.177.343.353.513.532-.17-.179-.342-.355-.513-.532zm-12.057-10.297c.172.12.341.245.512.366-.171-.121-.34-.245-.512-.366zm9.499 7.751.121.118-.121-.118zm-3.228-2.896zM929.2 700.268c.178.077.359.151.536.229-.177-.079-.357-.152-.536-.229zm7.751 3.839.083.049c-.028-.017-.055-.034-.083-.049zm-3.939-2.074c.236.117.47.236.705.355a77.327 77.327 0 0 0-.705-.355z"/><path fill="#46739D" d="M841.721 713.75c-12.065 10.472-21.24 24.535-25.686 41.128a82.528 82.528 0 0 0 .042 43.055c1.475 3.128 32.35 66.776 96.658 54.024 24.057-33.723 43.323-70.438 57.426-109.009-13.282-17.293-56.759-62.555-128.44-29.198zm128.06 24.414c.101.194.197.39.297.585-.099-.195-.196-.391-.297-.585zm-2.023-3.662c.122.209.246.417.366.628-.12-.211-.244-.419-.366-.628zm-42.242-35.73c.194.073.385.151.578.226-.193-.075-.384-.153-.578-.226zm40.367 32.659c.043.067.084.137.127.204-.042-.067-.083-.136-.127-.204zm-7.281-9.678c.141.161.277.325.416.487-.139-.162-.275-.326-.416-.487zm2.464 2.963c.102.129.208.255.31.385-.102-.129-.208-.256-.31-.385zm2.397 3.172c.15.209.299.419.447.629-.148-.21-.296-.42-.447-.629zm-16.646-17.232c.141.109.285.214.425.324-.141-.109-.285-.215-.425-.324zm-25.534-13.346c.254.081.508.16.761.243-.252-.083-.507-.163-.761-.243zm-12.383-2.92c.202.032.405.059.607.092-.203-.033-.405-.06-.607-.092zm4.221.772c.264.055.527.114.791.172-.264-.058-.527-.116-.791-.172z"/><path fill="#172734" d="M913.912 695.334zm-4.405-.852zm56.504 37.153zm-107.837-29.028zm3.888-1.87zm59.982-3.184zm4.05 1.444zm-24.713-5.438zm66.743 41.57zm-71.202-41.744zm66.988 35.132zm-74.955-34.82zm-23.163 5.465zm93.226 23.078zm-2.756-3.056zm5.114 5.917zm-68.109-31.661zm60.046 22.785zm17.689 24.428.007-.019a86.712 86.712 0 0 0-.931-1.885c.32.629.62 1.268.924 1.904zm-122.686-32.058zm32.784-13.828zm63.105 13.956zm-102.484 5.027zm63.863-19.812zm31.45 10.217zm3.716 2.239zm-85.694-2.084zm30.093-10.188zm-15.817 3.732zm81.218 15.863zm-3.309-2.737zm-29.62-14.752zm-66.183 10.263zm21.945-9.906zm56.354 3.912zm3.98 1.891zm-56.876-6.723zm-31.778 15.343z" opacity=".5"/><path fill="#46739D" d="M969.781 738.164a84.083 84.083 0 0 0-1.657-3.035c-.12-.21-.244-.419-.366-.628a83.574 83.574 0 0 0-1.747-2.866c-.043-.068-.084-.137-.127-.204a84.104 84.104 0 0 0-2.42-3.543 82.843 82.843 0 0 0-2.088-2.787c-.102-.13-.207-.256-.31-.385a84.555 84.555 0 0 0-2.048-2.477c-.139-.162-.276-.326-.416-.487a83.433 83.433 0 0 0-2.34-2.568c-.169-.179-.342-.355-.513-.532a83.245 83.245 0 0 0-2.436-2.428l-.121-.118a81.08 81.08 0 0 0-2.643-2.389c-.195-.169-.389-.339-.586-.506a82.576 82.576 0 0 0-2.723-2.231c-.14-.11-.284-.215-.425-.324a83.047 83.047 0 0 0-2.611-1.934c-.171-.122-.34-.246-.512-.366a82.173 82.173 0 0 0-2.943-1.962c-.215-.137-.432-.271-.648-.406a81.734 81.734 0 0 0-3.069-1.833l-.083-.049a81.629 81.629 0 0 0-3.233-1.719c-.235-.119-.469-.238-.705-.355a83.013 83.013 0 0 0-3.276-1.536c-.178-.078-.358-.152-.536-.229a83.08 83.08 0 0 0-3.106-1.27c-.193-.075-.384-.153-.578-.226a82.23 82.23 0 0 0-3.472-1.219c-.253-.083-.507-.162-.761-.243a83.72 83.72 0 0 0-3.663-1.081 84.258 84.258 0 0 0-3.709-.894c-.264-.058-.527-.117-.791-.172a83.452 83.452 0 0 0-3.615-.68c-.202-.033-.405-.061-.607-.092a84.2 84.2 0 0 0-3.315-.452c-.2-.023-.401-.051-.601-.072a82.9 82.9 0 0 0-3.602-.307c-.263-.017-.525-.031-.787-.045a82.138 82.138 0 0 0-3.672-.128 83.893 83.893 0 0 0-3.655.054c-.259.009-.518.017-.776.028a82.923 82.923 0 0 0-3.536.228c-.197.017-.392.04-.589.058a81.757 81.757 0 0 0-3.217.368c-.194.026-.389.048-.583.076a82.034 82.034 0 0 0-3.466.569c-.252.047-.503.096-.755.145a82.339 82.339 0 0 0-3.505.753 83.355 83.355 0 0 0-3.458.92c-.245.07-.489.139-.733.212-1.114.33-2.221.68-3.318 1.057-.183.063-.364.13-.546.194a82.601 82.601 0 0 0-2.994 1.115c-.179.071-.36.138-.538.21a83.15 83.15 0 0 0-3.883 1.683 83.287 83.287 0 0 0-3.196 1.552 84.606 84.606 0 0 0-3.118 1.702c-.22.126-.441.251-.66.378a81.92 81.92 0 0 0-2.959 1.804c-.163.104-.324.213-.486.319a83.446 83.446 0 0 0-2.636 1.785c-.158.111-.318.22-.475.332a84.732 84.732 0 0 0-2.778 2.081c-.2.156-.398.314-.596.472a83.66 83.66 0 0 0-2.746 2.27c71.682-33.357 115.158 11.905 128.441 29.199.28-.766.565-1.529.841-2.296-.304-.637-.605-1.275-.925-1.904a26.702 26.702 0 0 0-.294-.586z"/><path fill="#172734" d="M969.781 738.164a84.083 84.083 0 0 0-1.657-3.035c-.12-.21-.244-.419-.366-.628a83.574 83.574 0 0 0-1.747-2.866c-.043-.068-.084-.137-.127-.204a84.104 84.104 0 0 0-2.42-3.543 82.843 82.843 0 0 0-2.088-2.787c-.102-.13-.207-.256-.31-.385a84.555 84.555 0 0 0-2.048-2.477c-.139-.162-.276-.326-.416-.487a83.433 83.433 0 0 0-2.34-2.568c-.169-.179-.342-.355-.513-.532a83.245 83.245 0 0 0-2.436-2.428l-.121-.118a81.08 81.08 0 0 0-2.643-2.389c-.195-.169-.389-.339-.586-.506a82.576 82.576 0 0 0-2.723-2.231c-.14-.11-.284-.215-.425-.324a83.047 83.047 0 0 0-2.611-1.934c-.171-.122-.34-.246-.512-.366a82.173 82.173 0 0 0-2.943-1.962c-.215-.137-.432-.271-.648-.406a81.734 81.734 0 0 0-3.069-1.833l-.083-.049a81.629 81.629 0 0 0-3.233-1.719c-.235-.119-.469-.238-.705-.355a83.013 83.013 0 0 0-3.276-1.536c-.178-.078-.358-.152-.536-.229a83.08 83.08 0 0 0-3.106-1.27c-.193-.075-.384-.153-.578-.226a82.23 82.23 0 0 0-3.472-1.219c-.253-.083-.507-.162-.761-.243a83.72 83.72 0 0 0-3.663-1.081 84.258 84.258 0 0 0-3.709-.894c-.264-.058-.527-.117-.791-.172a83.452 83.452 0 0 0-3.615-.68c-.202-.033-.405-.061-.607-.092a84.2 84.2 0 0 0-3.315-.452c-.2-.023-.401-.051-.601-.072a82.9 82.9 0 0 0-3.602-.307c-.263-.017-.525-.031-.787-.045a82.138 82.138 0 0 0-3.672-.128 83.893 83.893 0 0 0-3.655.054c-.259.009-.518.017-.776.028a82.923 82.923 0 0 0-3.536.228c-.197.017-.392.04-.589.058a81.757 81.757 0 0 0-3.217.368c-.194.026-.389.048-.583.076a82.034 82.034 0 0 0-3.466.569c-.252.047-.503.096-.755.145a82.339 82.339 0 0 0-3.505.753 83.355 83.355 0 0 0-3.458.92c-.245.07-.489.139-.733.212-1.114.33-2.221.68-3.318 1.057-.183.063-.364.13-.546.194a82.601 82.601 0 0 0-2.994 1.115c-.179.071-.36.138-.538.21a83.15 83.15 0 0 0-3.883 1.683 83.287 83.287 0 0 0-3.196 1.552 84.606 84.606 0 0 0-3.118 1.702c-.22.126-.441.251-.66.378a81.92 81.92 0 0 0-2.959 1.804c-.163.104-.324.213-.486.319a83.446 83.446 0 0 0-2.636 1.785c-.158.111-.318.22-.475.332a84.732 84.732 0 0 0-2.778 2.081c-.2.156-.398.314-.596.472a83.66 83.66 0 0 0-2.746 2.27c71.682-33.357 115.158 11.905 128.441 29.199.28-.766.565-1.529.841-2.296-.304-.637-.605-1.275-.925-1.904a26.702 26.702 0 0 0-.294-.586z" opacity=".5"/><path fill="#BAB1CB" d="M816.02 797.811c.11.41.234.815.35 1.223-.104-.365-.194-.734-.293-1.1l-.057-.123zm2.909 8.79zm-1.263-3.417zm4.527 10.686zm6.367 10.548zm2.155 2.886zm-4.584-6.516zm-5.514-10.181zm3.641 7.095zm70.834 41.595zm-36.148-8.803zm-4.022-2.166zm7.372 3.739zm7.841 3.029zm-3.547-1.247zm8.098 2.615zm-38.771-23.097zm5.788 5.56zm10.079 7.522zm-6.648-4.68zm2.913 2.161zm59.965 14.522.002-.003-.087.014a1.16 1.16 0 0 0 .085-.011zm-.994.134zm-8.098.669zm4.418-.258zm-69.845-28.295zm5.535 5.801zm39.354 20.852zm4.236.821zm4.135.583zm3.999.36z" opacity=".25"/><path fill="#46739D" d="M816.078 797.934c.099.366.189.736.293 1.1.077.27.152.54.232.809a82.066 82.066 0 0 0 1.064 3.341c.065.191.137.379.203.569.336.956.69 1.906 1.06 2.848.104.264.206.529.312.792a82.78 82.78 0 0 0 1.375 3.215c.078.173.163.343.242.515.427.924.873 1.84 1.334 2.747.13.255.258.511.39.765a82.718 82.718 0 0 0 1.675 3.068c.088.153.182.304.271.456a83.81 83.81 0 0 0 1.603 2.63c.155.244.309.489.466.731a83.245 83.245 0 0 0 1.963 2.899c.094.132.192.26.286.391a83.495 83.495 0 0 0 1.869 2.495c.18.231.359.462.541.691a82.53 82.53 0 0 0 2.238 2.706c.096.11.196.217.292.327a84.025 84.025 0 0 0 2.13 2.338 83.995 83.995 0 0 0 3.112 3.136c.093.088.19.173.283.261a83.28 83.28 0 0 0 2.392 2.163c.225.196.451.393.679.587a82.08 82.08 0 0 0 2.753 2.255c.086.067.175.131.261.198a82.859 82.859 0 0 0 3.395 2.488 81.321 81.321 0 0 0 2.991 1.994c.076.048.154.093.23.141a82.126 82.126 0 0 0 3.711 2.191c1.06.59 2.13 1.166 3.221 1.713.056.028.114.054.17.081a83.97 83.97 0 0 0 4.037 1.868c1.133.49 2.275.964 3.438 1.406l.099.036a83.073 83.073 0 0 0 4.356 1.504c1.202.381 2.413.746 3.643 1.076 1.231.33 2.464.62 3.696.891.325.072.651.14.976.208a83.29 83.29 0 0 0 3.26.613c.158.026.316.058.475.084 1.221.196 2.441.358 3.66.499.315.036.629.067.943.1 1.02.106 2.038.193 3.055.261.24.016.48.037.72.051 1.209.07 2.416.11 3.62.127.285.004.569.001.854.002.994.003 1.986-.012 2.975-.044.282-.009.565-.015.847-.027a81.457 81.457 0 0 0 3.571-.231c.235-.02.469-.048.703-.071a81.553 81.553 0 0 0 2.976-.34c.303-.04.607-.079.91-.122l.087-.014a456.374 456.374 0 0 0 4.721-6.491c-64.309 12.749-95.184-50.899-96.659-54.027z"/><path fill="#BAB1CB" d="M816.078 797.934c.099.366.189.736.293 1.1.077.27.152.54.232.809a82.066 82.066 0 0 0 1.064 3.341c.065.191.137.379.203.569.336.956.69 1.906 1.06 2.848.104.264.206.529.312.792a82.78 82.78 0 0 0 1.375 3.215c.078.173.163.343.242.515.427.924.873 1.84 1.334 2.747.13.255.258.511.39.765a82.718 82.718 0 0 0 1.675 3.068c.088.153.182.304.271.456a83.81 83.81 0 0 0 1.603 2.63c.155.244.309.489.466.731a83.245 83.245 0 0 0 1.963 2.899c.094.132.192.26.286.391a83.495 83.495 0 0 0 1.869 2.495c.18.231.359.462.541.691a82.53 82.53 0 0 0 2.238 2.706c.096.11.196.217.292.327a84.025 84.025 0 0 0 2.13 2.338 83.995 83.995 0 0 0 3.112 3.136c.093.088.19.173.283.261a83.28 83.28 0 0 0 2.392 2.163c.225.196.451.393.679.587a82.08 82.08 0 0 0 2.753 2.255c.086.067.175.131.261.198a82.859 82.859 0 0 0 3.395 2.488 81.321 81.321 0 0 0 2.991 1.994c.076.048.154.093.23.141a82.126 82.126 0 0 0 3.711 2.191c1.06.59 2.13 1.166 3.221 1.713.056.028.114.054.17.081a83.97 83.97 0 0 0 4.037 1.868c1.133.49 2.275.964 3.438 1.406l.099.036a83.073 83.073 0 0 0 4.356 1.504c1.202.381 2.413.746 3.643 1.076 1.231.33 2.464.62 3.696.891.325.072.651.14.976.208a83.29 83.29 0 0 0 3.26.613c.158.026.316.058.475.084 1.221.196 2.441.358 3.66.499.315.036.629.067.943.1 1.02.106 2.038.193 3.055.261.24.016.48.037.72.051 1.209.07 2.416.11 3.62.127.285.004.569.001.854.002.994.003 1.986-.012 2.975-.044.282-.009.565-.015.847-.027a81.457 81.457 0 0 0 3.571-.231c.235-.02.469-.048.703-.071a81.553 81.553 0 0 0 2.976-.34c.303-.04.607-.079.91-.122l.087-.014a456.374 456.374 0 0 0 4.721-6.491c-64.309 12.749-95.184-50.899-96.659-54.027z" opacity=".25"/><path fill="#2F4D69" d="M984.804 354.565c0-32.627-34.793-59.322-77.317-59.322H165.368c-42.525 0-77.317 26.695-77.317 59.322s34.793 59.322 77.317 59.322h742.118c42.525 0 77.318-26.695 77.318-59.322z" opacity=".6"/><path fill="#7EAED9" d="M1015 342.581c0-35.288-37.243-64.161-82.762-64.161H147.762C102.243 278.42 65 307.293 65 342.581s37.243 64.161 82.762 64.161h784.477c45.518 0 82.761-28.872 82.761-64.161z"/><path fill="#B0CCE6" stroke="#E4EDF7" stroke-linecap="round" stroke-miterlimit="10" stroke-width="14.291" d="M154.146 306.556h494.822" opacity=".1"/><path fill="#B0CCE6" stroke="#E4EDF7" stroke-linecap="round" stroke-miterlimit="10" stroke-width="12.782" d="M684.695 306.556h35.727" opacity=".15"/><path fill="#B0CCE6" stroke="#E4EDF7" stroke-linecap="round" stroke-miterlimit="10" stroke-width="14.291" d="M757.043 306.556h155.116" opacity=".2"/><circle cx="540" cy="601.151" r="147.375" fill="#DBBC9F"/><path fill="#7E441D" d="M634.715 636.973c0 32.118-42.605 58.336-95.042 58.336s-95.042-26.219-95.042-58.336v-15.076h190.74v15.076h-.656z"/><path fill="#A65A26" fill-rule="evenodd" d="M481.336 525.544c-2.622-11.798 6.555-22.941 18.353-22.941 10.487 0 19.008 8.521 19.008 19.008v43.261c6.555-.655 13.109-1.311 20.319-1.311 6.555 0 13.109.655 19.664 1.311v-43.261c0-10.487 8.521-19.008 19.008-19.008 11.798 0 20.975 11.143 19.008 22.941l-8.521 47.193c27.529 10.487 46.538 28.84 46.538 49.815 0 32.118-42.605 58.336-95.042 58.336s-95.042-26.219-95.042-58.336c0-20.975 18.353-39.328 45.883-49.815l-9.176-47.193z" clip-rule="evenodd"/><path fill="#7E441D" d="M512.798 617.964c0 8.521-4.588 15.731-10.487 15.731s-10.487-7.21-10.487-15.731 4.588-15.731 10.487-15.731 10.487 7.21 10.487 15.731zm72.757 0c0 8.521-4.588 15.731-10.487 15.731s-10.487-7.21-10.487-15.731 4.588-15.731 10.487-15.731 10.487 7.21 10.487 15.731z"/></svg>