<svg xmlns="http://www.w3.org/2000/svg" xml:space="preserve" x="0" y="0" version="1.1" viewBox="0 0 940 1000"><style>.st10{opacity:.45}.st11{fill:#e7ad22}.st16{fill:#5c6e9e}.st18{fill:#455377}.st19,.st20{opacity:.5;fill:#2e374f;enable-background:new}.st20{opacity:.15;fill:#fff}.st30,.st31{fill-rule:evenodd;clip-rule:evenodd;fill:#4f2c13}.st31{opacity:.962;fill:#ffb2b2;enable-background:new}</style><path fill="#fff" stroke="#fff" stroke-miterlimit="10" stroke-width="49.008" d="M622.7 25.4c-60.3 0-114.3 27-150.6 69.6-22.2-26.6-55.5-43.5-92.8-43.5-66.8 0-120.9 54.1-120.9 120.9 0 1.1.1 2.2.1 3.3-6.4-1.1-13-1.6-19.7-1.6-65.9 0-119.3 53.4-119.3 119.3 0 0 238.5 3.3 238.4 3.3h81.2c29.2 72.8 100.3 124.2 183.5 124.2 109.2 0 197.7-88.5 197.7-197.7S731.9 25.4 622.7 25.4z"/><path fill="#fff" stroke="#fff" stroke-miterlimit="10" stroke-width="35.94" d="M865.4 369.9C957 579 869.6 825.5 663.1 928.8 450 1035.5 190.7 949.1 84.1 736c-59.5-118.9-58.9-252.1-9.8-365.1"/><path fill="#fff" d="M917.5 314c0-33.2-35.1-60.4-78-60.4h-739c-42.9 0-78 27.2-78 60.4s35.1 60.4 78 60.4h739.1c42.8 0 77.9-27.2 77.9-60.4z"/><path fill="none" stroke="#fff" stroke-miterlimit="10" stroke-width="35.94" d="M917.5 314c0-33.2-35.1-60.4-78-60.4h-739c-42.9 0-78 27.2-78 60.4s35.1 60.4 78 60.4h739.1c42.8 0 77.9-27.2 77.9-60.4z"/><path fill="#e7ad22" stroke="#e7ad22" stroke-miterlimit="10" stroke-width="13.069" d="M622.7 25.4c-60.3 0-114.3 27-150.6 69.6-22.2-26.6-55.5-43.5-92.8-43.5-66.8 0-120.9 54.1-120.9 120.9 0 1.1.1 2.2.1 3.3-6.4-1.1-13-1.6-19.7-1.6-65.9 0-119.3 53.4-119.3 119.3 0 0 238.5 3.3 238.4 3.3h81.2c29.2 72.8 100.3 124.2 183.5 124.2 109.2 0 197.7-88.5 197.7-197.7S731.9 25.4 622.7 25.4z"/><path fill="#f1c616" d="M622.7 25.4c-60.3 0-114.3 27-150.6 69.6-22.2-26.6-55.5-43.5-92.8-43.5-66.8 0-120.9 54.1-120.9 120.9 0 1.1.1 2.2.1 3.3-6.4-1.1-13-1.6-19.7-1.6-65.9 0-119.3 53.4-119.3 119.3 0 0 238.5 3.3 238.4 3.3h81.2c29.2 72.8 100.3 124.2 183.5 124.2 109.2 0 197.7-88.5 197.7-197.7S731.9 25.4 622.7 25.4z"/><g class="st10"><path d="M493.3 106.2c20.9-25.6 50.4-44.6 83-53.7 8.1-2.4 16.5-3.9 24.9-5.1l6.3-.6 3.2-.3 3.2-.1 6.4-.2 6.4.1c17 .3 33.9 3.3 50.1 8.5 32.4 10.5 61.4 31 82.1 57.7 10.5 13.2 18.8 28.1 24.8 43.7 2.9 7.9 5.4 15.9 7.1 24 1.7 8.2 2.8 16.4 3.2 24.6-6.3-32.4-20.9-62.5-42-86.7s-48.5-42.6-78.8-52.5c-15.1-5-30.9-7.9-46.9-8.6l-6-.2-6 .1h-3l-3 .2-6 .4-6 .7-3 .3-3 .5c-2 .3-4 .6-5.9 1l-5.9 1.2c-31.4 7.1-60.9 22.8-85.2 45z" class="st11"/></g><g class="st10"><path d="M298.2 123.3c9.2-20.5 27.2-37.5 49-46.1 5.5-2 11.1-3.9 16.9-4.9 2.9-.7 5.8-.9 8.7-1.3 1.5-.1 2.9-.2 4.4-.3 1.5-.1 2.9-.2 4.4-.1 11.8-.1 23.6 2.2 34.7 6.4 22.2 8.4 40.8 25.5 51.1 46.5 2.6 5.3 4.7 10.7 6.2 16.3s2.6 11.3 3 17.1c.9 11.5-.3 23-3.9 33.7 2.3-22.3-2.4-44.5-13.3-62.8-11-18.2-27.8-32.6-47.4-40.1-4.9-1.9-9.9-3.4-15.1-4.4-5.1-1.1-10.4-1.7-15.6-1.8-10.5-.4-21.1 1.1-31.3 4.1-20.2 6.3-38.5 19.6-51.8 37.7z" class="st11"/></g><g class="st10"><path d="M205.5 197.7c7.8-5 17.1-7.8 26.5-8.4 9.4-.6 19.2.6 28.2 3.9 4.5 1.6 8.8 3.8 12.9 6.2l3 2 1.5 1 1.4 1.1 2.8 2.2 2.6 2.4 1.3 1.2 1.2 1.3c.8.9 1.6 1.7 2.4 2.6 1.4 1.9 2.9 3.7 4.1 5.7l1.8 3c.5 1 1.1 2.1 1.6 3.1 1.1 2 1.8 4.3 2.6 6.5-3.5-3.1-6.7-6.2-10.2-8.8l-1.2-1.1-1.3-1-2.6-2c-1.8-1.2-3.5-2.5-5.3-3.6-3.5-2.4-7.2-4.4-10.9-6.3-1.9-.8-3.7-1.9-5.7-2.6l-2.9-1.2-2.9-1.1c-7.8-2.9-16-4.7-24.4-5.7-8.6-1-17.3-1-26.5-.4z" class="st11"/></g><g fill="#f9fae6"><path d="m538.6 127-11.6 6.3-6.4 11.7-6.3-11.7-11.7-6.3 11.7-6.4 6.3-11.6 6.4 11.6z"/><path d="m357.3 192.5-11.6 6.3-6.3 11.6-6.4-11.6-11.6-6.3 11.6-6.4 6.4-11.6 6.3 11.6z" opacity=".8"/><path d="m757.6 212.1-11.7 6.3-6.3 11.6-6.4-11.6-11.6-6.3 11.6-6.4 6.4-11.6 6.3 11.6z" opacity=".95"/></g><path d="M865.4 369.9C957 579 869.6 825.5 663.1 928.8 450 1035.5 190.7 949.1 84.1 736c-59.5-118.9-58.9-252.1-9.8-365.1" class="st16"/><path fill="#5e82a2" d="M648 695.8c-211.2 84.7-451.1-17.8-535.9-229-10.1-25.1-17.3-50.6-22.2-76.2-35.1 93-37.2 198.8 2.7 298.4 84.7 211.2 324.7 313.8 535.9 229 186.1-74.7 287.7-269.8 251.2-459.7C840.5 562.7 759.6 651 648 695.8z" opacity=".15"/><path d="M126.2 592.9c-1.1-.3-2.1-.6-3.1-1 1 .4 2 .7 3.1 1zm10.7 1.7c-1.1-.1-2.1-.2-3.2-.3 1.1.2 2.2.3 3.2.3zm-4-.4c-.8-.1-1.7-.2-2.5-.4.8.2 1.6.3 2.5.4zm-10.8-2.6c-.8-.3-1.5-.6-2.2-.9.7.4 1.5.6 2.2.9zm-12.2-6.2c-.9-.6-1.7-1.2-2.5-1.8.8.6 1.6 1.2 2.5 1.8zm6.1 3.6c-.9-.5-1.8-.9-2.6-1.4.8.5 1.7 1 2.6 1.4zm31.5 5.1c-1 .2-2.1.3-3.1.4 1-.1 2-.2 3.1-.4zm-34.9-7c-.7-.4-1.3-.8-2-1.3.6.5 1.3.9 2 1.3zm6.4 3.3c-1-.4-1.9-.9-2.9-1.3 1 .5 2 .9 2.9 1.3zm-11.9-7.1c-.7-.6-1.5-1.2-2.2-1.8.8.7 1.5 1.3 2.2 1.8zm33.1 11.4c-.9 0-1.8 0-2.7-.1.9.1 1.8.1 2.7.1zm-10.8-1.1c-1.1-.2-2.2-.5-3.3-.8 1.2.4 2.3.6 3.3.8zm25.2-1c-1 .3-2 .5-3 .8 1-.3 2-.5 3-.8zm-3.9 1c-.8.2-1.6.3-2.4.4.8-.1 1.6-.3 2.4-.4zm35.4-77.1c.3.6.6 1.2 1 1.8-.3-.6-.6-1.2-1-1.8zM174 501.6c.7.6 1.4 1.2 2 1.8-.7-.6-1.4-1.2-2-1.8zm2.1 1.9c.7.7 1.4 1.4 2 2.1-.6-.7-1.3-1.4-2-2.1zm-4.5-3.7c.5.4 1.1.8 1.6 1.3-.5-.5-1-.9-1.6-1.3zm11 11.1 1.5 2.1-1.5-2.1zM169.1 498c.6.4 1.1.8 1.7 1.2-.5-.5-1.1-.9-1.7-1.2zm11.7 10.6zm-2-2.3c.5.5.9 1 1.4 1.5-.5-.5-1-1-1.4-1.5zm-25.3-15.4 3 .9-3-.9zm3.9 1.2c.7.2 1.3.5 2 .7-.7-.2-1.3-.4-2-.7zm3 1.2c.6.3 1.3.6 1.9.9-.6-.4-1.3-.7-1.9-.9zm2.8 1.2c.9.4 1.7.9 2.5 1.3-.8-.4-1.7-.8-2.5-1.3zm2.6 1.4c.9.5 1.7 1 2.5 1.5-.8-.5-1.6-1-2.5-1.5zm22.9 26c.3.8.6 1.6.9 2.3-.3-.7-.6-1.5-.9-2.3zm-18.8 63.4c-.7.5-1.4 1-2.2 1.4.7-.4 1.5-.9 2.2-1.4zm-5.7 3.4c-.9.5-1.8.9-2.8 1.3.9-.3 1.9-.8 2.8-1.3zm20-75.4c.5.8 1 1.6 1.5 2.5-.5-.9-1-1.7-1.5-2.5zm-26.6 78.3c-1 .4-2 .7-3 1 1-.3 2-.6 3-1zm3.1-1.2c-.7.3-1.5.6-2.2.9.7-.3 1.4-.6 2.2-.9zm6.2-3.2c-.7.4-1.5.9-2.2 1.3.7-.4 1.5-.9 2.2-1.3zm5.9-4.1c-.8.6-1.6 1.3-2.5 1.9.9-.6 1.7-1.2 2.5-1.9zm-29 11.4c-.9.1-1.8.1-2.6.1.8 0 1.7 0 2.6-.1zm43.7-75.2c.3.6.6 1.2.8 1.8-.2-.6-.5-1.2-.8-1.8zM175.3 581c-.6.5-1.2 1.1-1.8 1.6.6-.5 1.2-1 1.8-1.6zm-24.8-90.8c1 .2 2 .4 3 .7-1-.3-2-.5-3-.7zm-16.1-.8c.7-.1 1.4-.1 2.1-.2-.8.1-1.4.1-2.1.2zm-44.7 69c-.3-.8-.5-1.6-.7-2.4.2.8.4 1.6.7 2.4zm15.5-56.3c.7-.6 1.5-1.2 2.2-1.8-.7.5-1.5 1.1-2.2 1.8zm-13 62.5c-.3-.7-.6-1.4-1-2.1.4.7.7 1.4 1 2.1zm-1.3-2.8c-.4-.9-.7-1.9-1.1-2.9.4 1 .8 1.9 1.1 2.9zm17.3-62.1c.5-.4 1.1-.8 1.6-1.2-.5.4-1.1.8-1.6 1.2zm2.5-1.8c.6-.4 1.1-.7 1.7-1.1-.6.4-1.2.7-1.7 1.1zm-8.7 80.8c-.7-.7-1.4-1.5-2.1-2.2.7.7 1.4 1.5 2.1 2.2zm11.1-82.3c.8-.5 1.7-1 2.5-1.4-.8.4-1.6.9-2.5 1.4zm-13.4 79.8c-.6-.7-1.1-1.4-1.7-2.1.6.7 1.1 1.4 1.7 2.1zm-5.9-8.4c-.4-.8-.8-1.5-1.2-2.3.4.7.8 1.5 1.2 2.3zm1.9 3c-.6-.8-1.1-1.7-1.6-2.6.5.9 1 1.7 1.6 2.6zm1.8 2.5z" class="st18"/><path d="M178.2 578.2c-.7.8-1.5 1.5-2.2 2.2 7-6.5 12.3-15 14.9-24.9 2.8-10.6 2.2-21.3-1.1-31-.3-.5-29.3-48.3-84.5-22.5-7.7 6.7-13.5 15.6-16.3 26.2-2.5 9.3-2.3 18.7 0 27.4 1 2.3 29.2 60.7 89.2 22.6z" class="st18"/><path d="M131.3 489.8c.7-.1 1.4-.2 2-.3-.6.1-1.3.2-2 .3zm6.1-.6c1 0 2-.1 3-.1-1.1 0-2.1 0-3 .1zm-33.1 91.7c-.6-.5-1.1-1.1-1.7-1.6.6.6 1.1 1.1 1.7 1.6z" class="st18"/><path d="M140.3 489.1c1 0 2 .1 3 .1-1 0-2-.1-3-.1zm4 .2c.7.1 1.4.1 2.1.2-.7-.1-1.4-.1-2.1-.2zm-19.6 2c.9-.3 1.9-.5 2.8-.8-.9.3-1.8.5-2.8.8zm-5.6 2.1c.6-.3 1.2-.5 1.9-.8-.6.2-1.3.5-1.9.8zm2.8-1.2c.6-.2 1.3-.4 1.9-.7-.6.3-1.2.5-1.9.7zm25.5-2.5c.7.1 1.4.2 2.1.4-.7-.2-1.4-.3-2.1-.4zm-19.8.8zm-11.9 4.5c.9-.4 1.7-.9 2.6-1.2-.9.3-1.8.7-2.6 1.2z" class="st18"/><path d="M185.7 515.8c.1.3.3.5.4.8-.1-.3-.2-.6-.4-.8zm-9.7-12.4.2.2-.2-.2zm8 9.6c.1.1.1.2.2.3 0-.1-.1-.2-.2-.3zm-63-20.4c.3-.1.6-.2.9-.4-.3.2-.6.3-.9.4zm57.2 13zm1.9 2.2c.2.3.4.5.7.8-.2-.3-.4-.5-.7-.8zm1.9 2.4c.2.3.4.5.6.8-.2-.3-.4-.6-.6-.8zm-63.7-16.5c.3-.1.6-.2.8-.4-.3.2-.5.3-.8.4zm-5.9 3.1c.3-.2.5-.3.8-.5-.3.2-.6.4-.8.5zm-2.6 1.7c.3-.2.6-.4.8-.6-.2.2-.5.4-.8.6zm26.6-9.3c.3 0 .6 0 .9-.1-.3.1-.6.1-.9.1zm53.3 35.4c0-.1-.1-.2-.1-.3 0 .1.1.2.1.3zm-1.4-3.5c.1.3.3.6.4.9-.1-.4-.2-.6-.4-.9zm-22.6-25.2s.1 0 .1.1c0-.1-.1-.1-.1-.1zm-16.2-5.9c.3.1.6.1.9.2-.2-.1-.5-.1-.9-.2zm7 1.8.9.3-.9-.3zm-10.1-2.3c.4 0 .7.1 1.1.1-.4 0-.8 0-1.1-.1zm-3.1-.3c.3 0 .6.1.9.1-.2 0-.6-.1-.9-.1zm-12.9.8c.3-.1.6-.1.9-.1-.3 0-.6 0-.9.1zm-6.5 1.6.9-.3-.9.3zm9.5-2.1c.3 0 .7-.1 1-.1-.4 0-.7.1-1 .1zm37.4 9.6c.3.2.6.4.8.6-.2-.2-.5-.4-.8-.6zm-2.5-1.6c.3.2.5.3.8.5-.2-.2-.5-.4-.8-.5zm4.9 3.5c.2.2.5.4.7.6-.2-.2-.4-.4-.7-.6zm-65.8-.8c.2-.2.5-.4.7-.5-.2.2-.4.3-.7.5zm54.9-6.1c.3.1.6.3.9.4-.3-.1-.6-.2-.9-.4zm-2.9-1.2c.3.1.7.3 1 .4-.4-.2-.7-.3-1-.4zm27.7 25.4c.2.3.3.6.4.9-.1-.2-.3-.6-.4-.9z" class="st19"/><path d="M189.7 524.6c0-.1-.1-.2-.1-.3-.3-.8-.6-1.6-.9-2.3-.1-.3-.2-.6-.4-.9-.3-.6-.5-1.2-.8-1.8-.1-.3-.3-.6-.4-.9-.3-.6-.6-1.2-1-1.8-.1-.3-.3-.5-.4-.8-.5-.8-1-1.7-1.5-2.5-.1-.1-.1-.2-.2-.3l-1.5-2.1c-.2-.3-.4-.5-.6-.8-.4-.5-.8-1.1-1.2-1.6-.2-.3-.4-.5-.7-.8-.4-.5-.9-1-1.4-1.5-.2-.2-.4-.4-.6-.7-.7-.7-1.3-1.4-2-2.1l-.2-.2c-.7-.6-1.3-1.2-2-1.8-.2-.2-.5-.4-.7-.6-.5-.4-1.1-.8-1.6-1.3-.3-.2-.6-.4-.8-.6-.6-.4-1.1-.8-1.7-1.2-.3-.2-.5-.3-.8-.5-.8-.5-1.7-1-2.5-1.5 0 0-.1 0-.1-.1-.8-.5-1.7-.9-2.5-1.3-.3-.1-.6-.3-.9-.4-.6-.3-1.3-.6-1.9-.9-.3-.1-.7-.3-1-.4-.7-.3-1.3-.5-2-.7l-.9-.3-3-.9c-1-.3-2-.5-3-.7-.3-.1-.6-.1-.9-.2-.7-.1-1.4-.3-2.1-.4-.4-.1-.7-.1-1.1-.1-.7-.1-1.4-.2-2.1-.2-.3 0-.6-.1-.9-.1-1-.1-2-.1-3-.1s-2 0-3 .1c-.3 0-.6 0-.9.1-.7 0-1.4.1-2.1.2-.3 0-.7.1-1 .1-.7.1-1.4.2-2 .3-.3 0-.6.1-.9.1-1 .2-1.9.4-2.9.6-.9.2-1.9.5-2.8.8l-.9.3c-.6.2-1.3.4-1.9.7-.3.1-.6.2-.9.4-.6.2-1.3.5-1.9.8-.3.1-.6.2-.8.4-.9.4-1.8.8-2.6 1.2-.9.4-1.7.9-2.5 1.4-.3.2-.5.3-.8.5-.6.4-1.1.7-1.7 1.1-.3.2-.6.4-.8.6-.6.4-1.1.8-1.6 1.2-.2.2-.5.4-.7.5-.8.6-1.5 1.2-2.2 1.8 55.1-25.8 84 21.9 84.3 22.5z" class="st18"/><path d="M189.7 524.6c0-.1-.1-.2-.1-.3-.3-.8-.6-1.6-.9-2.3-.1-.3-.2-.6-.4-.9-.3-.6-.5-1.2-.8-1.8-.1-.3-.3-.6-.4-.9-.3-.6-.6-1.2-1-1.8-.1-.3-.3-.5-.4-.8-.5-.8-1-1.7-1.5-2.5-.1-.1-.1-.2-.2-.3l-1.5-2.1c-.2-.3-.4-.5-.6-.8-.4-.5-.8-1.1-1.2-1.6-.2-.3-.4-.5-.7-.8-.4-.5-.9-1-1.4-1.5-.2-.2-.4-.4-.6-.7-.7-.7-1.3-1.4-2-2.1l-.2-.2c-.7-.6-1.3-1.2-2-1.8-.2-.2-.5-.4-.7-.6-.5-.4-1.1-.8-1.6-1.3-.3-.2-.6-.4-.8-.6-.6-.4-1.1-.8-1.7-1.2-.3-.2-.5-.3-.8-.5-.8-.5-1.7-1-2.5-1.5 0 0-.1 0-.1-.1-.8-.5-1.7-.9-2.5-1.3-.3-.1-.6-.3-.9-.4-.6-.3-1.3-.6-1.9-.9-.3-.1-.7-.3-1-.4-.7-.3-1.3-.5-2-.7l-.9-.3-3-.9c-1-.3-2-.5-3-.7-.3-.1-.6-.1-.9-.2-.7-.1-1.4-.3-2.1-.4-.4-.1-.7-.1-1.1-.1-.7-.1-1.4-.2-2.1-.2-.3 0-.6-.1-.9-.1-1-.1-2-.1-3-.1s-2 0-3 .1c-.3 0-.6 0-.9.1-.7 0-1.4.1-2.1.2-.3 0-.7.1-1 .1-.7.1-1.4.2-2 .3-.3 0-.6.1-.9.1-1 .2-1.9.4-2.9.6-.9.2-1.9.5-2.8.8l-.9.3c-.6.2-1.3.4-1.9.7-.3.1-.6.2-.9.4-.6.2-1.3.5-1.9.8-.3.1-.6.2-.8.4-.9.4-1.8.8-2.6 1.2-.9.4-1.7.9-2.5 1.4-.3.2-.5.3-.8.5-.6.4-1.1.7-1.7 1.1-.3.2-.6.4-.8.6-.6.4-1.1.8-1.6 1.2-.2.2-.5.4-.7.5-.8.6-1.5 1.2-2.2 1.8 55.1-25.8 84 21.9 84.3 22.5z" class="st19"/><path d="M119.9 590.8c-.3-.1-.6-.2-.9-.4.3.1.6.2.9.4zm17.6 3.8h-.6.6zm-3.8-.3c-.3 0-.5-.1-.8-.1.3.1.5.1.8.1zm-10.6-2.4-.9-.3c.2.1.5.2.9.3zm7.3 1.9c-.3-.1-.6-.1-.9-.2.2.1.6.2.9.2zm-14.2-4.7c-.1 0-.1-.1 0 0-.1-.1-.1 0 0 0zm32.1 4.9c-.3 0-.5.1-.8.1.3 0 .5-.1.8-.1zm-34.9-6.4c-.3-.2-.5-.3-.8-.5.2.2.5.3.8.5zm31 6.9h-.6.6zm-3.3.2h-.9.9zM98 574.1c-.2-.2-.4-.5-.6-.7.2.2.4.4.6.7zm12.6 11.7c-.2-.2-.5-.3-.7-.5.2.2.5.4.7.5zm-14.5-14.3c-.2-.2-.3-.5-.5-.7.2.2.4.4.5.7zm-3.5-6c-.1-.3-.3-.6-.4-.8.1.2.3.5.4.8zm-1.3-3c-.1-.2-.2-.5-.3-.7 0 .2.2.5.3.7zm-1.4-3.6c-.1-.2-.1-.4-.2-.5.1.2.1.4.2.5zm10 17.6-.3-.3c.2.1.3.2.3.3zm-11.1-20.9c0 .1.1.3.1.4 0-.1 0-.3-.1-.4.1 0 0 0 0 0zm18.6 27.9-.2-.2c0 .1.1.2.2.2zm44.2 9.9c-.3.1-.6.1-.9.2.3-.1.6-.2.9-.2zm-49-14.1-.6-.6.6.6zm2.4 2.2c-.2-.2-.5-.4-.7-.6.2.2.4.4.7.6zm-10.9-13.3c-.1-.1-.1-.3-.2-.4 0 .1.1.2.2.4zm64.3 23.1c-.3.1-.6.2-.8.3.3-.1.5-.2.8-.3zm3-1.2c-.2.1-.5.2-.7.3.2-.1.4-.2.7-.3zm12-7.5c-.2.2-.4.3-.6.5.2-.2.4-.3.6-.5zm-3.1 2.4c-.2.1-.3.2-.5.3.2-.1.4-.2.5-.3zm-5.6 3.5c-.2.1-.3.2-.5.3.1-.2.3-.2.5-.3zm3-1.8c-.3.2-.5.3-.8.5.3-.2.6-.3.8-.5zm-13.1 5.9zm21.3-12.2c-.2.2-.4.4-.7.6.3-.2.5-.4.7-.6z" class="st20"/><path d="M157.6 591.6c.3-.1.6-.2.8-.3.8-.3 1.5-.6 2.2-.9.2-.1.5-.2.7-.3.9-.4 1.9-.9 2.8-1.3.2-.1.3-.2.5-.3.8-.4 1.5-.8 2.2-1.3.3-.2.5-.3.8-.5.7-.5 1.4-.9 2.2-1.4.2-.1.3-.2.5-.3.8-.6 1.7-1.2 2.5-1.9.2-.2.4-.3.6-.5.6-.5 1.2-1 1.8-1.6.2-.2.4-.4.7-.6.8-.7 1.5-1.4 2.2-2.2-59.9 38.1-88.2-20.3-89.3-22.6 0 .1.1.2.1.3.2.8.5 1.6.7 2.4.1.2.1.4.2.5.3 1 .7 1.9 1.1 2.9.1.2.2.5.3.7.3.7.6 1.4 1 2.1.1.3.3.6.4.8.4.8.8 1.5 1.2 2.3.1.1.1.3.2.4.5.9 1 1.7 1.6 2.6.2.2.3.5.5.7.4.6.9 1.3 1.3 1.9.2.2.4.5.6.7.5.7 1.1 1.4 1.7 2.1l.3.3c.7.8 1.4 1.5 2.1 2.2l.6.6c.5.5 1.1 1.1 1.7 1.6.2.2.5.4.7.6.7.6 1.4 1.2 2.2 1.8l.2.2c.8.6 1.7 1.2 2.5 1.8.2.2.5.3.7.5.6.4 1.3.8 2 1.3.3.2.5.3.8.5.9.5 1.7 1 2.6 1.4.1 0 .1.1.1.1.9.5 1.9.9 2.9 1.3.3.1.6.2.9.4.7.3 1.5.6 2.2.9l.9.3c1 .3 2.1.7 3.1 1 1.1.3 2.2.5 3.3.8.3.1.6.1.9.2.8.2 1.7.3 2.5.4.3 0 .5.1.8.1 1.1.1 2.1.2 3.2.3h.6c.9 0 1.8.1 2.7.1h.9c.9 0 1.8-.1 2.6-.1h.6c1.1-.1 2.1-.2 3.1-.4.3 0 .5-.1.8-.1.8-.1 1.6-.3 2.4-.4.3-.1.6-.1.9-.2 1-.2 2-.5 3-.8 1.1-.4 2.1-.7 3.1-1.1z" class="st18"/><path d="M157.6 591.6c.3-.1.6-.2.8-.3.8-.3 1.5-.6 2.2-.9.2-.1.5-.2.7-.3.9-.4 1.9-.9 2.8-1.3.2-.1.3-.2.5-.3.8-.4 1.5-.8 2.2-1.3.3-.2.5-.3.8-.5.7-.5 1.4-.9 2.2-1.4.2-.1.3-.2.5-.3.8-.6 1.7-1.2 2.5-1.9.2-.2.4-.3.6-.5.6-.5 1.2-1 1.8-1.6.2-.2.4-.4.7-.6.8-.7 1.5-1.4 2.2-2.2-59.9 38.1-88.2-20.3-89.3-22.6 0 .1.1.2.1.3.2.8.5 1.6.7 2.4.1.2.1.4.2.5.3 1 .7 1.9 1.1 2.9.1.2.2.5.3.7.3.7.6 1.4 1 2.1.1.3.3.6.4.8.4.8.8 1.5 1.2 2.3.1.1.1.3.2.4.5.9 1 1.7 1.6 2.6.2.2.3.5.5.7.4.6.9 1.3 1.3 1.9.2.2.4.5.6.7.5.7 1.1 1.4 1.7 2.1l.3.3c.7.8 1.4 1.5 2.1 2.2l.6.6c.5.5 1.1 1.1 1.7 1.6.2.2.5.4.7.6.7.6 1.4 1.2 2.2 1.8l.2.2c.8.6 1.7 1.2 2.5 1.8.2.2.5.3.7.5.6.4 1.3.8 2 1.3.3.2.5.3.8.5.9.5 1.7 1 2.6 1.4.1 0 .1.1.1.1.9.5 1.9.9 2.9 1.3.3.1.6.2.9.4.7.3 1.5.6 2.2.9l.9.3c1 .3 2.1.7 3.1 1 1.1.3 2.2.5 3.3.8.3.1.6.1.9.2.8.2 1.7.3 2.5.4.3 0 .5.1.8.1 1.1.1 2.1.2 3.2.3h.6c.9 0 1.8.1 2.7.1h.9c.9 0 1.8-.1 2.6-.1h.6c1.1-.1 2.1-.2 3.1-.4.3 0 .5-.1.8-.1.8-.1 1.6-.3 2.4-.4.3-.1.6-.1.9-.2 1-.2 2-.5 3-.8 1.1-.4 2.1-.7 3.1-1.1z" class="st20"/><path d="M592.3 701.9c-3.7 3.2-6.4 7.4-7.8 12.5-1.2 4.5-1.1 9 .1 13.1 1 2 14.4 28.4 42.4 10.6 2.8-2.9 4.9-6.6 6-10.8 1.4-5 1.1-10.1-.5-14.7-.2-.3-13.9-23-40.2-10.7zm17.7-6.2h.4c-.2.1-.3 0-.4 0zm7.4 1.6c.2.1.3.1.5.2-.1-.1-.3-.2-.5-.2zm-4.9-1.3c.2 0 .3.1.5.1-.1 0-.3-.1-.5-.1zm-4.9-.3h.4-.4zm-22.5 33.5c0-.1-.1-.1-.1-.2 0 0 .1.1.1.2zm8.9-28.7c.1-.1.2-.2.4-.3-.2.2-.3.2-.4.3zm2.1-1.4c.1-.1.2-.1.3-.2-.1.1-.2.2-.3.2zm2-1c.1 0 .2-.1.3-.2-.1.1-.2.1-.3.2zm2.3-1c.1-.1.3-.1.4-.1-.1 0-.3.1-.4.1zm25.6 5.5s.1 0 0 0c.1 0 0 0 0 0zm3.1 3.5c.1.1.1.2.2.3 0-.1-.1-.2-.2-.3zm1.3 2c.1.1.1.2.2.3-.1-.1-.2-.2-.2-.3zm-2.9-3.9.3.3-.3-.3zm4 6c.1.1.1.3.2.4-.1-.1-.1-.2-.2-.4z" class="st18"/><path d="M624 700.9c.1.1.2.2.4.3-.1-.1-.3-.2-.4-.3zm-38 30.5c-.1-.2-.1-.3-.2-.5.1.2.1.4.2.5zm36-31.9c.1.1.2.1.3.2-.1-.1-.2-.2-.3-.2zm-2.1-1.2c.1.1.2.1.3.2-.1-.1-.2-.1-.3-.2zm-7.6 47.4h-.4.4zm-7.2-49.7c.2 0 .3 0 .5-.1-.2 0-.4.1-.5.1zm14.3 47.5c-.1.1-.2.1-.4.2.2 0 .3-.1.4-.2zm-19.3.9c-.2-.1-.4-.1-.5-.2.1 0 .3.1.5.2zm21.4-2c-.2.1-.3.2-.5.3.2-.1.3-.2.5-.3zm-24 .9zm26-2.2-.2.2.2-.2zm-8.6 4.1c-.2 0-.3.1-.5.1.2-.1.4-.1.5-.1zm-4.8.7h-.6.6zm-5-.3c-.2 0-.4-.1-.6-.1.2.1.4.1.6.1zm20.3-6c-.1.1-.3.2-.4.4.1-.2.3-.3.4-.4zm-18.1 6.3h-.3.3zm9.8-1.4c-.2.1-.3.1-.5.2.2-.1.3-.1.5-.2zm-30-11c0-.1-.1-.1-.1-.2 0 .1.1.1.1.2zm4.6 5.7c-.1-.1-.3-.2-.4-.4.1.2.2.3.4.4zm-1.8-1.8c-.1-.1 0-.1 0 0zm-1.4-1.8c-.1-.1-.2-.3-.3-.4.1.1.2.3.3.4zm4.9 5.1s-.1-.1 0 0c-.1-.1 0 0 0 0zm2.2 1.5c-.2-.1-.3-.2-.5-.3.2.1.3.2.5.3z" class="st18"/><path d="M596.4 699c.6-.3 1.1-.6 1.7-.9-.5.3-1.1.5-1.7.9zm9.1-3.1c.7-.1 1.4-.2 2.1-.2-.7.1-1.4.1-2.1.2zm2.5-.2h2-2zm-9.5 2.2c.6-.3 1.3-.5 2-.8-.8.3-1.4.5-2 .8zm-4.1 2.4c.6-.4 1.2-.8 1.8-1.1-.7.3-1.3.7-1.8 1.1zm6.4-3.3 2.1-.6-2.1.6zm2.1-.6c.7-.2 1.4-.3 2.1-.4-.7.1-1.4.2-2.1.4zm-10.6 5.5c.5-.5 1.1-.9 1.7-1.3-.6.4-1.2.8-1.7 1.3zm30-2.3 1.8 1.2-1.8-1.2zm2.1 1.6c.6.5 1.1.9 1.6 1.4-.5-.5-1-1-1.6-1.4zm3.4 3.3c.5.5.9 1.1 1.3 1.6-.4-.5-.8-1.1-1.3-1.6zm-1.7-1.9 1.5 1.5-1.5-1.5zm3.2 3.8c.4.5.7 1.1 1 1.6-.2-.5-.6-1-1-1.6zm3.2 6.2c-.2-.7-.5-1.3-.8-2 .3.7.6 1.3.8 2zm-1.9-4.3c.3.6.7 1.2 1 1.9-.4-.6-.7-1.2-1-1.9zm-20.2-12.5c.7 0 1.5.1 2.2.2-.8-.1-1.5-.2-2.2-.2zm7.5 1.6c.7.3 1.4.6 2 .9-.6-.3-1.3-.6-2-.9zm-2.6-.8c.7.2 1.5.4 2.2.7-.8-.3-1.5-.5-2.2-.7zm-2.3-.5c.7.1 1.5.3 2.2.5-.7-.2-1.4-.4-2.2-.5zm7.2 2.4c.6.3 1.2.6 1.7 1-.5-.4-1.1-.7-1.7-1z" class="st19"/><path d="M632.5 712.6c-.2-.7-.5-1.3-.8-1.9-.1-.1-.1-.3-.2-.4-.3-.6-.6-1.3-1-1.9-.1-.1-.1-.2-.2-.3-.3-.6-.7-1.1-1-1.6-.1-.1-.1-.2-.2-.3-.4-.6-.8-1.1-1.3-1.6l-.3-.3-1.5-1.5c-.5-.5-1.1-1-1.6-1.4-.1-.1-.2-.2-.4-.3-.6-.4-1.1-.8-1.8-1.2-.1-.1-.2-.1-.3-.2-.6-.3-1.1-.7-1.7-1-.1-.1-.2-.1-.3-.2-.7-.3-1.3-.6-2-.9-.1-.1-.3-.1-.5-.2-.7-.3-1.4-.5-2.2-.7-.7-.2-1.5-.4-2.2-.5-.2 0-.3-.1-.5-.1-.7-.1-1.5-.2-2.2-.2h-2.8c-.7 0-1.4.1-2.1.2-.2 0-.3 0-.5.1-.7.1-1.4.2-2.1.4l-2.1.6c-.1 0-.3.1-.4.1-.7.2-1.3.5-2 .8-.1 0-.2.1-.3.2-.6.3-1.2.6-1.7.9-.1.1-.2.1-.3.2-.6.4-1.2.7-1.8 1.1-.1.1-.2.2-.4.3-.6.4-1.1.9-1.7 1.3 26.5-12.5 40.2 10.2 40.4 10.5z" class="st18"/><path d="M632.5 712.6c-.2-.7-.5-1.3-.8-1.9-.1-.1-.1-.3-.2-.4-.3-.6-.6-1.3-1-1.9-.1-.1-.1-.2-.2-.3-.3-.6-.7-1.1-1-1.6-.1-.1-.1-.2-.2-.3-.4-.6-.8-1.1-1.3-1.6l-.3-.3-1.5-1.5c-.5-.5-1.1-1-1.6-1.4-.1-.1-.2-.2-.4-.3-.6-.4-1.1-.8-1.8-1.2-.1-.1-.2-.1-.3-.2-.6-.3-1.1-.7-1.7-1-.1-.1-.2-.1-.3-.2-.7-.3-1.3-.6-2-.9-.1-.1-.3-.1-.5-.2-.7-.3-1.4-.5-2.2-.7-.7-.2-1.5-.4-2.2-.5-.2 0-.3-.1-.5-.1-.7-.1-1.5-.2-2.2-.2h-2.8c-.7 0-1.4.1-2.1.2-.2 0-.3 0-.5.1-.7.1-1.4.2-2.1.4l-2.1.6c-.1 0-.3.1-.4.1-.7.2-1.3.5-2 .8-.1 0-.2.1-.3.2-.6.3-1.2.6-1.7.9-.1.1-.2.1-.3.2-.6.4-1.2.7-1.8 1.1-.1.1-.2.2-.4.3-.6.4-1.1.9-1.7 1.3 26.5-12.5 40.2 10.2 40.4 10.5z" class="st19"/><path d="M602.3 745.1c-.7-.2-1.5-.4-2.2-.7.7.2 1.4.5 2.2.7zm-7.2-3.2c-.6-.4-1.2-.8-1.7-1.2.6.4 1.1.8 1.7 1.2zm25.9.8c-.5.3-1 .6-1.6.8.6-.2 1.1-.5 1.6-.8zm-21.4 1.5c-.7-.3-1.4-.6-2-.9.6.3 1.3.6 2 .9zm23.7-2.9c-.6.4-1.2.8-1.8 1.1.6-.3 1.2-.7 1.8-1.1zm-8.9 4c-.7.2-1.4.3-2.1.4.7-.1 1.4-.3 2.1-.4zm-7.3.6c-.7 0-1.3-.1-2-.2.7 0 1.3.1 2 .2zm2.4 0h-2.2 2.2zm-5-.3c-.7-.1-1.5-.3-2.2-.5.7.2 1.5.3 2.2.5zM625 740l-1.5 1.2 1.5-1.2zm-5.9 3.7c-.6.3-1.3.6-2 .8.7-.2 1.3-.5 2-.8zm-7.2 2c-.6.1-1.2.1-1.8.2.6 0 1.2-.1 1.8-.2zm-14.4-2.4c-.7-.3-1.3-.7-1.9-1.1.6.4 1.2.7 1.9 1.1zm-9.3-8.1c-.4-.5-.7-1.1-1.1-1.7.3.6.7 1.1 1.1 1.7zm3.1 3.6c-.5-.5-.9-1-1.4-1.5.4.6.9 1.1 1.4 1.5zm2 1.8c-.6-.4-1.1-.9-1.6-1.4.5.5 1 1 1.6 1.4zm-6.3-7.3c-.4-.6-.7-1.2-1-1.9.3.7.6 1.3 1 1.9zm2.8 4c-.5-.5-.9-1.1-1.3-1.7.4.6.8 1.1 1.3 1.7zm-5.3-10c.1.5.3 1.1.5 1.6-.2-.5-.3-1-.5-1.6 0 .1 0 0 0 0zm1.3 3.7c-.3-.6-.5-1.2-.7-1.8.2.6.4 1.2.7 1.8zm41.2 7.1c-.5.5-1 1-1.6 1.5.6-.5 1.1-1 1.6-1.5zm-10.4 6.6c-.6.2-1.1.3-1.7.5.6-.2 1.2-.4 1.7-.5z" class="st20"/><path d="M584.6 727.4c.1.5.3 1 .4 1.5 0 .1.1.1.1.2.2.6.5 1.2.7 1.8.1.2.1.3.2.5.3.6.6 1.3 1 1.9 0 .1.1.1.1.2.3.6.7 1.1 1.1 1.7.1.1.2.3.3.4.4.6.9 1.1 1.3 1.7l.1.1c.4.5.9 1 1.4 1.5l.4.4c.5.5 1.1 1 1.6 1.4 0 0 .1 0 .1.1.5.4 1.1.8 1.7 1.2.2.1.3.2.5.3.6.4 1.3.8 1.9 1.1h.1c.6.3 1.3.6 2 .9.2.1.4.1.5.2.7.3 1.4.5 2.2.7.7.2 1.5.4 2.2.5.2 0 .4.1.6.1.7.1 1.3.2 2 .2h3.1c.6 0 1.2-.1 1.8-.2h.4c.7-.1 1.4-.2 2.1-.4.2 0 .3-.1.5-.1.6-.1 1.1-.3 1.7-.5.2-.1.3-.1.5-.2.7-.2 1.3-.5 2-.8.1-.1.3-.1.4-.2.5-.3 1.1-.5 1.6-.8.2-.1.3-.2.5-.3.6-.4 1.2-.7 1.8-1.1l.2-.2 1.5-1.2c.1-.1.3-.2.4-.4.5-.5 1.1-1 1.6-1.5-28.2 17.8-41.7-8.6-42.6-10.7z" class="st18"/><path d="M584.6 727.4c.1.5.3 1 .4 1.5 0 .1.1.1.1.2.2.6.5 1.2.7 1.8.1.2.1.3.2.5.3.6.6 1.3 1 1.9 0 .1.1.1.1.2.3.6.7 1.1 1.1 1.7.1.1.2.3.3.4.4.6.9 1.1 1.3 1.7l.1.1c.4.5.9 1 1.4 1.5l.4.4c.5.5 1.1 1 1.6 1.4 0 0 .1 0 .1.1.5.4 1.1.8 1.7 1.2.2.1.3.2.5.3.6.4 1.3.8 1.9 1.1h.1c.6.3 1.3.6 2 .9.2.1.4.1.5.2.7.3 1.4.5 2.2.7.7.2 1.5.4 2.2.5.2 0 .4.1.6.1.7.1 1.3.2 2 .2h3.1c.6 0 1.2-.1 1.8-.2h.4c.7-.1 1.4-.2 2.1-.4.2 0 .3-.1.5-.1.6-.1 1.1-.3 1.7-.5.2-.1.3-.1.5-.2.7-.2 1.3-.5 2-.8.1-.1.3-.1.4-.2.5-.3 1.1-.5 1.6-.8.2-.1.3-.2.5-.3.6-.4 1.2-.7 1.8-1.1l.2-.2 1.5-1.2c.1-.1.3-.2.4-.4.5-.5 1.1-1 1.6-1.5-28.2 17.8-41.7-8.6-42.6-10.7z" class="st20"/><path d="M692.5 470.8c-.1-.1-.1-.1 0 0-.1-.1-.1-.1 0 0zm8.7 2.7c-.2 0-.5-.1-.7-.1.3 0 .5.1.7.1zm26.2-48.3c.1.1.2.3.3.4-.1-.2-.2-.3-.3-.4zm-36.6-5.9c.1-.1.2-.1.4-.2-.2.1-.3.2-.4.2zm4.6 52.7c-.2-.1-.4-.2-.6-.2.2.1.4.1.6.2zm-2.3-53.9c.1-.1.2-.1.4-.2-.1.1-.2.2-.4.2z" class="st18"/><path d="M726.7 464.7c3.2-3.4 5.7-7.7 7-12.5 1.6-5.9 1.2-11.8-.6-17.2-.2-.3-16.2-26.7-46.8-12.5-4.3 3.7-7.5 8.6-9.1 14.5-1.4 5.2-1.3 10.4.1 15.3 1.2 2.3 16.8 33.1 49.4 12.4zM679 457l-.3-.6c.2.2.2.4.3.6zm25.2-41.6h.4-.4z" class="st18"/><path d="M690.2 469.5c-.2-.1-.4-.2-.5-.3.1 0 .3.1.5.3zm11-53.8c.2 0 .4-.1.5-.1-.2 0-.3.1-.5.1zm-5.4 1.3c.2-.1.3-.1.5-.2-.2.1-.4.2-.5.2zm11.1-1.6h.4-.4zm.2 58.4h-.7.7zm10.8-2.8c-.1.1-.3.1-.4.2.2 0 .3-.1.4-.2zm-14 2.8h-.3.3zm16.4-4-.6.3c.3-.1.5-.2.6-.3zm-36.8-5.9-.1-.1c.1 0 .1 0 .1.1zm31.7 8.3c-.2.1-.4.1-.6.2.2-.1.4-.2.6-.2zm16.8-40c.1.2.1.3.2.5-.1-.1-.1-.3-.2-.5zm-44.4 35.5-.1-.1.1.1zm.7-46.7c.1-.1.3-.2.4-.3-.1.1-.3.2-.4.3zm-2.7 45c-.2-.1-.3-.3-.5-.4.2.1.4.3.5.4zm-3.7-4.2c-.1-.2-.2-.3-.4-.5.1.2.3.3.4.5zm40.8 6.4c-.1.1-.2.1-.3.2.1 0 .2-.1.3-.2zm2.2-1.8c-.2.1-.3.3-.5.4.2-.1.4-.2.5-.4zm5.8-36.7c.1.1.1.2.2.3-.1 0-.2-.1-.2-.3zm-1.5-2.2c.1.1.2.2.2.4 0-.2-.1-.3-.2-.4zm-13.6-10.3c.2.1.4.1.5.2-.1-.1-.3-.2-.5-.2zm-2.9 55.7c-.2 0-.4.1-.6.1.2 0 .4 0 .6-.1zm-2.8-57.2c.2 0 .4.1.6.1-.2 0-.4-.1-.6-.1zm8.6 2.7c.1.1.3.1.4.2-.2-.1-.3-.1-.4-.2zm7.1 5zm-2.3-2c.1.1.3.2.4.3-.1-.1-.3-.2-.4-.3zm-2.4-1.7c.1.1.2.1.3.2-.1 0-.2-.1-.3-.2zm-11.2 53.8c-.2 0-.3 0-.5.1.1 0 .3 0 .5-.1zm-29.4-14.1c0-.1-.1-.1-.1-.2 0 0 0 .1.1.2zm-2.4-5.1c0-.1-.1-.2-.1-.2.1 0 .1.1.1.2z" class="st18"/><path d="M727.7 425.6c.5.6 1 1.3 1.5 1.9-.5-.7-1-1.3-1.5-1.9zm1.8 2.3zm-10.6-9.3c.7.4 1.4.7 2 1.1-.7-.4-1.3-.8-2-1.1zm4.8 3.1c.7.5 1.3 1.1 1.9 1.6-.6-.5-1.2-1.1-1.9-1.6zm-22-6.1c.8-.1 1.6-.2 2.5-.2-.8 0-1.7.1-2.5.2zm19.5 4.3c.7.4 1.4.9 2 1.4-.6-.4-1.3-.9-2-1.4zm-13.8-4.5c.8.1 1.7.2 2.5.3-.8-.1-1.7-.2-2.5-.3zm23.5 14.7c.4.7.8 1.4 1.1 2.2-.3-.8-.7-1.5-1.1-2.2zm-14.8-12.7c.8.3 1.6.7 2.3 1-.7-.4-1.5-.7-2.3-1zm-25 1.7c.7-.4 1.3-.7 2-1-.6.3-1.3.7-2 1zm22-2.8c.9.2 1.7.5 2.5.8-.8-.2-1.7-.5-2.5-.8zm-2.6-.5c.9.2 1.7.3 2.6.6-.9-.3-1.8-.5-2.6-.6zm-5.9-.4h2.3c-.7 0-1.5-.1-2.3 0zm-11.1 2.5c.7-.3 1.5-.6 2.3-.9-.8.3-1.6.6-2.3.9zm32.2 5.5c.6.6 1.2 1.2 1.7 1.8-.6-.6-1.1-1.2-1.7-1.8zm-39.4-.9c.6-.5 1.3-1.1 2-1.6-.7.6-1.3 1.1-2 1.6zm46.8 12.5c-.3-.8-.6-1.5-.9-2.3.4.8.7 1.5.9 2.3zm-34.4-18.9c.8-.2 1.6-.3 2.5-.5-.9.2-1.7.4-2.5.5zm-2.4.8c.8-.3 1.6-.5 2.4-.7-.8.1-1.6.4-2.4.7zm-7.6 3.8c.7-.5 1.4-.9 2.1-1.3-.7.3-1.4.8-2.1 1.3z" class="st19"/><path d="M733.1 435c-.3-.8-.6-1.5-.9-2.3-.1-.2-.1-.3-.2-.5-.3-.7-.7-1.5-1.1-2.2-.1-.1-.1-.2-.2-.3-.4-.6-.8-1.3-1.2-1.9-.1-.1-.2-.2-.2-.4-.5-.7-1-1.3-1.5-1.9-.1-.1-.2-.3-.3-.4-.5-.6-1.1-1.2-1.7-1.8-.6-.6-1.3-1.1-1.9-1.6-.1-.1-.3-.2-.4-.3-.7-.5-1.3-1-2-1.4-.1-.1-.2-.1-.3-.2-.7-.4-1.3-.8-2-1.1-.1-.1-.3-.1-.4-.2-.8-.4-1.5-.7-2.3-1-.2-.1-.4-.1-.5-.2-.8-.3-1.7-.6-2.5-.8-.9-.2-1.7-.4-2.6-.6-.2 0-.4-.1-.6-.1-.8-.1-1.7-.2-2.5-.3h-3.1c-.8 0-1.7.1-2.5.2-.2 0-.4.1-.5.1-.8.1-1.7.3-2.5.5s-1.6.4-2.4.7c-.2.1-.3.1-.5.2-.8.3-1.5.6-2.3.9-.1.1-.2.1-.4.2-.7.3-1.3.7-2 1-.1.1-.2.1-.4.2-.7.4-1.4.9-2.1 1.3-.1.1-.3.2-.4.3-.7.5-1.3 1-2 1.6 30.2-14.4 46.2 12 46.4 12.3z" class="st18"/><path d="M733.1 435c-.3-.8-.6-1.5-.9-2.3-.1-.2-.1-.3-.2-.5-.3-.7-.7-1.5-1.1-2.2-.1-.1-.1-.2-.2-.3-.4-.6-.8-1.3-1.2-1.9-.1-.1-.2-.2-.2-.4-.5-.7-1-1.3-1.5-1.9-.1-.1-.2-.3-.3-.4-.5-.6-1.1-1.2-1.7-1.8-.6-.6-1.3-1.1-1.9-1.6-.1-.1-.3-.2-.4-.3-.7-.5-1.3-1-2-1.4-.1-.1-.2-.1-.3-.2-.7-.4-1.3-.8-2-1.1-.1-.1-.3-.1-.4-.2-.8-.4-1.5-.7-2.3-1-.2-.1-.4-.1-.5-.2-.8-.3-1.7-.6-2.5-.8-.9-.2-1.7-.4-2.6-.6-.2 0-.4-.1-.6-.1-.8-.1-1.7-.2-2.5-.3h-3.1c-.8 0-1.7.1-2.5.2-.2 0-.4.1-.5.1-.8.1-1.7.3-2.5.5s-1.6.4-2.4.7c-.2.1-.3.1-.5.2-.8.3-1.5.6-2.3.9-.1.1-.2.1-.4.2-.7.3-1.3.7-2 1-.1.1-.2.1-.4.2-.7.4-1.4.9-2.1 1.3-.1.1-.3.2-.4.3-.7.5-1.3 1-2 1.6 30.2-14.4 46.2 12 46.4 12.3z" class="st19"/><path d="M680.2 459.2c-.4-.7-.8-1.5-1.1-2.2.3.7.7 1.4 1.1 2.2zm1.3 2.1c-.4-.6-.9-1.3-1.2-1.9.4.6.8 1.3 1.2 1.9zm-2.7-4.9c-.3-.7-.6-1.4-.8-2.1.2.7.5 1.4.8 2.1zm33.3 16.7c-.8.2-1.6.3-2.5.5.9-.2 1.7-.3 2.5-.5zm-28.7-9.4c-.5-.6-1-1.3-1.5-2 .5.8 1 1.4 1.5 2zm20.1 10.1c-.8-.1-1.5-.1-2.3-.3.8.1 1.6.2 2.3.3zm23.2-9.1c-.6.6-1.2 1.2-1.8 1.7.6-.5 1.3-1.1 1.8-1.7zm-2.3 2.2c-.6.5-1.1.9-1.7 1.4.6-.5 1.2-1 1.7-1.4zm-2 1.5c-.7.5-1.4.9-2.1 1.3.8-.4 1.5-.8 2.1-1.3zm-37.2-2.8c-.6-.5-1.1-1.1-1.6-1.7.5.6 1 1.1 1.6 1.7zm21.2 8.2h-2.6 2.6zm8.3-1.5c-.6.2-1.3.4-2 .6.6-.1 1.3-.3 2-.6zm-5.5 1.3c-.7.1-1.4.2-2.1.2.7-.1 1.4-.1 2.1-.2zm8.3-2.4c-.8.3-1.5.6-2.3.9.8-.2 1.6-.5 2.3-.9zm2.3-1.1c-.6.3-1.2.7-1.8 1 .6-.4 1.2-.7 1.8-1zm-42.5-17.9c.2.6.4 1.3.6 1.9-.2-.6-.3-1.2-.5-1.7l-.1-.2zm23.2 21.2c-.9-.2-1.7-.3-2.6-.6.9.3 1.8.4 2.6.6zm-2.6-.6c-.9-.2-1.7-.5-2.5-.8.8.3 1.7.6 2.5.8zm-10.4-5.2c-.7-.5-1.3-1.1-1.9-1.6.6.6 1.3 1.1 1.9 1.6zm4.9 3.1zm-2.8-1.6c-.7-.4-1.3-.9-2-1.4.7.5 1.3 1 2 1.4zm5.2 2.7c-.8-.3-1.6-.6-2.3-1 .7.3 1.5.7 2.3 1z" class="st20"/><path d="M677.3 452.3c.2.6.3 1.2.5 1.7 0 .1.1.2.1.2.3.7.5 1.4.8 2.1l.3.6c.4.7.7 1.5 1.1 2.2 0 .1.1.1.1.2.4.7.8 1.3 1.2 1.9.1.2.2.3.4.5.5.7 1 1.3 1.5 2l.1.1c.5.6 1.1 1.1 1.6 1.7.2.1.3.3.5.4.6.6 1.2 1.1 1.9 1.6l.1.1c.6.5 1.3 1 2 1.4.2.1.4.2.5.3.7.4 1.5.9 2.2 1.3h.1c.8.4 1.5.7 2.3 1 .2.1.4.2.6.2.8.3 1.7.6 2.5.8.9.2 1.7.4 2.6.6.2 0 .5.1.7.1.8.1 1.5.2 2.3.3h.3c.9 0 1.7.1 2.6 0h.7c.7 0 1.4-.1 2.1-.2.2 0 .3 0 .5-.1.8-.1 1.6-.3 2.5-.5.2 0 .4-.1.6-.1.7-.2 1.3-.4 2-.6.2-.1.4-.1.6-.2.8-.3 1.5-.6 2.3-.9.1-.1.3-.1.4-.2.6-.3 1.2-.6 1.8-1l.6-.3c.7-.4 1.4-.9 2.1-1.3.1-.1.2-.1.3-.2.6-.4 1.2-.9 1.7-1.4.2-.1.3-.3.5-.4.6-.6 1.2-1.1 1.8-1.7-32.6 20.9-48.2-9.9-49.4-12.2z" class="st18"/><path d="M677.3 452.3c.2.6.3 1.2.5 1.7 0 .1.1.2.1.2.3.7.5 1.4.8 2.1l.3.6c.4.7.7 1.5 1.1 2.2 0 .1.1.1.1.2.4.7.8 1.3 1.2 1.9.1.2.2.3.4.5.5.7 1 1.3 1.5 2l.1.1c.5.6 1.1 1.1 1.6 1.7.2.1.3.3.5.4.6.6 1.2 1.1 1.9 1.6l.1.1c.6.5 1.3 1 2 1.4.2.1.4.2.5.3.7.4 1.5.9 2.2 1.3h.1c.8.4 1.5.7 2.3 1 .2.1.4.2.6.2.8.3 1.7.6 2.5.8.9.2 1.7.4 2.6.6.2 0 .5.1.7.1.8.1 1.5.2 2.3.3h.3c.9 0 1.7.1 2.6 0h.7c.7 0 1.4-.1 2.1-.2.2 0 .3 0 .5-.1.8-.1 1.6-.3 2.5-.5.2 0 .4-.1.6-.1.7-.2 1.3-.4 2-.6.2-.1.4-.1.6-.2.8-.3 1.5-.6 2.3-.9.1-.1.3-.1.4-.2.6-.3 1.2-.6 1.8-1l.6-.3c.7-.4 1.4-.9 2.1-1.3.1-.1.2-.1.3-.2.6-.4 1.2-.9 1.7-1.4.2-.1.3-.3.5-.4.6-.6 1.2-1.1 1.8-1.7-32.6 20.9-48.2-9.9-49.4-12.2z" class="st20"/><path d="M606.8 821.9c.5.1.9.3 1.3.5-.3-.2-.8-.4-1.3-.5zm-12 20.1c-.2-.3-.5-.5-.7-.8.3.3.5.5.7.8zm7.2 3.7-1.5-.3 1.5.3zm.6-24.2h1-1zm4.3 23.9-1.2.3 1.2-.3z" class="st18"/><path d="M591.9 830.5c-.6 2.2-.5 4.3 0 6.4.5 1 7 13.8 20.6 5.2 1.4-1.4 2.4-3.2 2.9-5.2.7-2.4.5-4.9-.3-7.1-.1-.1-6.8-11.1-19.5-5.2-1.7 1.4-3 3.5-3.7 5.9zm12.1-9c.3 0 .6 0 1 .1-.3-.1-.6-.1-1-.1z" class="st18"/><path d="M598.7 844.7c-.3-.1-.7-.3-1-.5.4.2.7.4 1 .5zm-.4-22c.3-.1.6-.3.9-.4-.3.2-.6.3-.9.4zm7.2 23c-.5.1-1 .1-1.5.1.5 0 1 0 1.5-.1zm-5-.3c-.5-.1-1-.3-1.4-.5.5.2.9.4 1.4.5zm-6.6-4.5c-.3-.4-.5-.8-.8-1.2.3.4.5.8.8 1.2zm5.7-18.7zm-6.5 17.4-.6-1.2.6 1.2zm10.5 6.2c-.4 0-.8 0-1.2-.1.5.1.8.1 1.2.1zm-11.2-7.8c-.1-.3-.2-.7-.3-1 0 .4.1.7.3 1zm19.7-13.2c.3.3.6.6.9 1-.3-.4-.6-.7-.9-1zm-1.1-.9c.3.3.7.5 1 .8-.3-.2-.6-.5-1-.8zm-1.1 20.2c-.4.2-.8.5-1.3.7.5-.2.9-.5 1.3-.7zm0-20.9c.3.2.5.3.8.5-.3-.2-.5-.4-.8-.5zM597.4 844c-.4-.2-.8-.5-1.2-.8.4.3.8.6 1.2.8zm8-22.4c.5.1.9.2 1.4.3-.4-.1-.9-.2-1.4-.3zm5.7 21.7-.9.6.9-.6zm-15-.1c-.4-.3-.7-.6-1-.9.4.3.7.6 1 .9zm12.5-20.7c.3.1.6.3.9.4-.3-.1-.6-.3-.9-.4zm-.2 22.3zm4.1-2.8c-.3.4-.7.7-1.1 1 .4-.3.8-.6 1.1-1zm1.5-14.8c.2.3.3.5.5.8-.2-.2-.3-.5-.5-.8zm-16.9-3.8c.3-.2.5-.3.8-.5-.3.2-.5.3-.8.5zm17.6 5c.2.4.3.8.5 1.1-.2-.3-.3-.7-.5-1.1zm-19-4c.3-.3.7-.6 1.1-.8-.4.3-.8.6-1.1.8zm17.5 1.7c.2.2.4.5.6.8-.2-.3-.4-.6-.6-.8z" class="st18"/><path d="M597.9 822.9c.1-.1.3-.1.4-.2-.1.1-.2.2-.4.2zm1.3-.6c.1-.1.3-.1.4-.2-.2.1-.3.2-.4.2zm16 7.4c0-.1 0-.1 0 0 0-.1 0-.1 0 0 0-.1 0 0 0 0zm-11.6-8.2h.5-.5zm-7.9 3v-.1zm13.8-1.6c.1.1.3.2.4.2-.2 0-.3-.1-.4-.2zm-7.3-1.3h.4c-.1-.1-.3-.1-.4 0zm11.6 5.3c.1.1.2.3.3.4-.1-.2-.2-.3-.3-.4zm-3.1-3.2c.1.1.2.2.4.2-.2-.1-.3-.1-.4-.2zm-13.9-.1c.1-.1.2-.2.4-.2-.2.1-.3.2-.4.2zm16.2 2.2.3.3c-.2-.1-.2-.2-.3-.3zm-1-1zm-3.8-2.5c.1.1.3.1.4.2-.1-.1-.3-.1-.4-.2zm-3.2-.7h.4-.4zm9.5 6.4c.1.1.1.3.2.4-.1-.1-.1-.2-.2-.4z" class="st19"/><path d="M615.2 829.6c-.2-.5-.3-.8-.5-1.2-.1-.1-.1-.3-.2-.4-.1-.3-.3-.5-.5-.8-.1-.1-.2-.3-.3-.4-.2-.3-.4-.5-.6-.8l-.3-.3c-.3-.3-.6-.7-.9-1-.3-.3-.6-.6-1-.8-.1-.1-.2-.2-.4-.2-.3-.2-.5-.4-.8-.5-.1-.1-.3-.2-.4-.2-.3-.2-.6-.3-.9-.4-.1-.1-.3-.1-.4-.2-.4-.2-.9-.3-1.3-.5-.5-.1-.9-.2-1.4-.3h-.4c-.3 0-.6-.1-1-.1H602c-.9.1-1.8.3-2.6.6-.1 0-.3.1-.4.2-.3.1-.6.2-.9.4-.1.1-.3.1-.4.2-.3.1-.5.3-.8.5-.1.1-.2.1-.4.2-.4.3-.7.5-1.1.8 13-5.9 19.7 5.1 19.8 5.2z" class="st18"/><path d="M615.2 829.6c-.2-.5-.3-.8-.5-1.2-.1-.1-.1-.3-.2-.4-.1-.3-.3-.5-.5-.8-.1-.1-.2-.3-.3-.4-.2-.3-.4-.5-.6-.8l-.3-.3c-.3-.3-.6-.7-.9-1-.3-.3-.6-.6-1-.8-.1-.1-.2-.2-.4-.2-.3-.2-.5-.4-.8-.5-.1-.1-.3-.2-.4-.2-.3-.2-.6-.3-.9-.4-.1-.1-.3-.1-.4-.2-.4-.2-.9-.3-1.3-.5-.5-.1-.9-.2-1.4-.3h-.4c-.3 0-.6-.1-1-.1H602c-.9.1-1.8.3-2.6.6-.1 0-.3.1-.4.2-.3.1-.6.2-.9.4-.1.1-.3.1-.4.2-.3.1-.5.3-.8.5-.1.1-.2.1-.4.2-.4.3-.7.5-1.1.8 13-5.9 19.7 5.1 19.8 5.2z" class="st19"/><path d="m611.5 843-.3.3.3-.3zm-1.3.9c-.1.1-.2.1-.3.2.1-.1.2-.1.3-.2zm-14-.7zm-2-2c-.1-.1-.2-.2-.2-.3 0 .1.1.2.2.3zm11.5 4.4h-.3c.1.1.2.1.3 0zm-3.2.1h-.4.4zm-4.8-1.4c-.1-.1-.2-.1-.4-.2.2 0 .3.1.4.2zm-2.6-2-.3-.3.3.3zm8.9 3.5h-.4.4zm3.3-.5c-.1 0-.3.1-.4.1.1-.1.3-.1.4-.1zm-8.2-.4c-.1-.1-.3-.1-.4-.2.2.1.3.2.4.2zm9.6-.1c-.1 0-.2.1-.2.1 0-.1.1-.1.2-.1zm-16.8-8c0 .1.1.2.1.2s0-.1-.1-.2zm.6 1.6c-.1-.1-.1-.3-.2-.4.1.2.2.3.2.4zm.6 1.3s0-.1 0 0c0-.1 0 0 0 0z" class="st20"/><path d="M592 836.9c0 .1 0 .1.1.2.1.3.2.7.3 1 .1.1.1.3.2.4l.6 1.2s0 .1.1.1c.2.4.5.8.8 1.2.1.1.2.2.2.3.2.3.4.5.7.8l.3.3c.3.3.7.6 1 .9h.1c.4.3.8.6 1.2.8.1.1.2.1.4.2.3.2.6.3 1 .5.1.1.3.1.4.2.5.2.9.4 1.4.5l1.5.3h.4c.4 0 .8.1 1.2.1h.4c.5 0 1-.1 1.5-.1h.3l1.2-.3c.1 0 .3-.1.4-.1.4-.1.8-.3 1.1-.4.1 0 .2-.1.2-.1.4-.2.9-.4 1.3-.7.1-.1.2-.1.3-.2l.9-.6.3-.3c.4-.3.7-.6 1.1-1-13.9 8.5-20.5-4.3-20.9-5.2z" class="st18"/><path d="M592 836.9c0 .1 0 .1.1.2.1.3.2.7.3 1 .1.1.1.3.2.4l.6 1.2s0 .1.1.1c.2.4.5.8.8 1.2.1.1.2.2.2.3.2.3.4.5.7.8l.3.3c.3.3.7.6 1 .9h.1c.4.3.8.6 1.2.8.1.1.2.1.4.2.3.2.6.3 1 .5.1.1.3.1.4.2.5.2.9.4 1.4.5l1.5.3h.4c.4 0 .8.1 1.2.1h.4c.5 0 1-.1 1.5-.1h.3l1.2-.3c.1 0 .3-.1.4-.1.4-.1.8-.3 1.1-.4.1 0 .2-.1.2-.1.4-.2.9-.4 1.3-.7.1-.1.2-.1.3-.2l.9-.6.3-.3c.4-.3.7-.6 1.1-1-13.9 8.5-20.5-4.3-20.9-5.2z" class="st20"/><path d="M795.1 578.1c.3.3.6.6.9 1-.3-.4-.6-.7-.9-1zm1.1 1.3c.2.2.4.5.6.8-.2-.3-.4-.6-.6-.8zm-2.2-2.2c.3.3.7.5 1 .8-.3-.3-.6-.6-1-.8zm-18.6 14.1c-.1-.3-.2-.7-.3-1 0 .3.1.7.3 1zm5.9-15.3c.3-.1.6-.3.9-.4-.3.1-.6.2-.9.4zm2.6-.9c.4-.1.9-.2 1.3-.2-.5 0-.9.1-1.3.2zm3.2-.4c.3 0 .6 0 1 .1-.4 0-.7-.1-1-.1zm-1.5.1h1c-.3-.1-.7 0-1 0zm-3 .6c.4-.2.8-.3 1.3-.4-.5.2-.9.3-1.3.4zm9 .4c.3.1.6.3.9.4-.3-.2-.6-.3-.9-.4zm-3.1-.9c.5.1.9.2 1.4.3-.5-.2-1-.3-1.4-.3zm-8.4 1.8c.3-.2.5-.3.8-.5-.2.1-.5.3-.8.5zm12.8-.3c.3.2.5.3.8.5-.3-.1-.5-.3-.8-.5zm-3-1.3c.5.1.9.3 1.3.5-.4-.2-.9-.3-1.3-.5zm-4.8 23.9-1.5-.3c.4.1 1 .2 1.5.3zm10.4-3.7c-.3.4-.7.7-1.1 1 .4-.4.8-.7 1.1-1zm-5.6 3.3-1.2.3 1.2-.3zm3-1.3c-.4.2-.8.5-1.3.7.5-.2.9-.4 1.3-.7zm-16.8-4.5-.6-1.2c.2.5.4.9.6 1.2zm18.1 3.7-.9.6.9-.6zm-15.5-18.8c.3-.3.7-.6 1.1-.8-.4.2-.7.5-1.1.8zm19 4c.2.4.3.8.5 1.1-.2-.4-.3-.7-.5-1.1zm-.7-1.2c.2.3.3.5.5.8-.1-.3-.3-.5-.5-.8zm-5.6 17.6c-.4.2-.7.3-1.1.4.4-.1.8-.2 1.1-.4zm-13.5-2.9c-.2-.3-.5-.5-.7-.8.2.3.4.6.7.8zm2.5 2.1c-.4-.2-.8-.5-1.2-.8.4.3.8.6 1.2.8zm-1.2-.8c-.4-.3-.7-.6-1-.9.3.3.6.6 1 .9zm-2.3-2.4c-.3-.4-.5-.8-.8-1.2.3.5.5.9.8 1.2zm6.6 4.6c-.5-.1-1-.3-1.4-.5.5.2 1 .3 1.4.5zm-1.8-.7c-.3-.1-.7-.3-1-.5.4.2.7.3 1 .5zm4.9 1.1c-.4 0-.8 0-1.2-.1.5 0 .9.1 1.2.1zm1.9-.2c-.5.1-1 .1-1.5.1.5.1 1 0 1.5-.1z" class="st18"/><path d="M795.5 595.3c1.4-1.4 2.4-3.2 2.9-5.2.7-2.4.5-4.9-.3-7.1-.1-.1-6.8-11.1-19.5-5.2-1.8 1.5-3.1 3.6-3.8 6-.6 2.2-.5 4.3 0 6.4.6.9 7.2 13.7 20.7 5.1z" class="st18"/><path d="M788 574.8h.4-.4zm3.2.8c.1.1.3.1.4.2-.1-.1-.3-.2-.4-.2zm-9 0c.1-.1.3-.1.4-.2-.1.1-.3.2-.4.2zm4.4-.9h.5-.5zm-1.4.1h.4-.4zm-4.3 1.4c.1-.1.3-.1.4-.2-.1 0-.2.1-.4.2zM796 579l.3.3-.3-.3zm-3.5-2.8c.1.1.3.2.4.2-.1-.1-.3-.1-.4-.2zm4.3 3.9c.1.1.2.3.3.4-.1-.1-.2-.3-.3-.4zM795 578s.1 0 0 0c.1 0 0 0 0 0zm-1.3-1.1c.1.1.2.2.4.2-.2 0-.3-.1-.4-.2zm3.8 4.4c.1.1.1.3.2.4-.1-.1-.1-.3-.2-.4zm.7 1.6zm-19.5-5.2zm1.1-.8c.1-.1.2-.2.4-.2-.2 0-.3.1-.4.2z" class="st19"/><path d="M798.2 582.9c-.2-.5-.3-.8-.5-1.2-.1-.1-.1-.3-.2-.4-.1-.3-.3-.5-.5-.8-.1-.1-.2-.3-.3-.4-.2-.3-.4-.5-.6-.8l-.3-.3c-.3-.3-.6-.7-.9-1-.3-.3-.6-.6-1-.8-.1-.1-.2-.2-.4-.2-.3-.2-.5-.4-.8-.5-.1-.1-.3-.2-.4-.2-.3-.2-.6-.3-.9-.4-.1-.1-.3-.1-.4-.2-.4-.2-.9-.3-1.3-.5-.5-.1-.9-.2-1.4-.3h-.4c-.3 0-.6-.1-1-.1H785c-.4.1-.9.1-1.3.2s-.9.2-1.3.4c-.1 0-.3.1-.4.2-.3.1-.6.2-.9.4-.1.1-.3.1-.4.2-.3.1-.5.3-.8.5-.1.1-.2.1-.4.2-.4.3-.7.5-1.1.8 13-5.9 19.7 5.1 19.8 5.2z" class="st18"/><path d="M798.2 582.9c-.2-.5-.3-.8-.5-1.2-.1-.1-.1-.3-.2-.4-.1-.3-.3-.5-.5-.8-.1-.1-.2-.3-.3-.4-.2-.3-.4-.5-.6-.8l-.3-.3c-.3-.3-.6-.7-.9-1-.3-.3-.6-.6-1-.8-.1-.1-.2-.2-.4-.2-.3-.2-.5-.4-.8-.5-.1-.1-.3-.2-.4-.2-.3-.2-.6-.3-.9-.4-.1-.1-.3-.1-.4-.2-.4-.2-.9-.3-1.3-.5-.5-.1-.9-.2-1.4-.3h-.4c-.3 0-.6-.1-1-.1H785c-.4.1-.9.1-1.3.2s-.9.2-1.3.4c-.1 0-.3.1-.4.2-.3.1-.6.2-.9.4-.1.1-.3.1-.4.2-.3.1-.5.3-.8.5-.1.1-.2.1-.4.2-.4.3-.7.5-1.1.8 13-5.9 19.7 5.1 19.8 5.2z" class="st19"/><path d="M775 590.3c0-.1 0-.1-.1-.2v-.1c.1.1.1.2.1.3zm.5 1.4c-.1-.1-.1-.3-.2-.4.1.1.2.3.2.4zm.6 1.3s0-.1 0 0c0-.1 0-.1 0 0zm1.1 1.4c-.1-.1-.2-.2-.2-.3 0 .1.1.2.2.3zm13.1 4.1c-.1 0-.3.1-.4.1.1 0 .3 0 .4-.1zm1.4-.5c-.1 0-.2.1-.2.1s.1-.1.2-.1zm-3 .9h-.3.3zm5.8-2.6-.3.3c.1-.2.2-.3.3-.3zm-1.3.8c-.1.1-.2.1-.3.2.1 0 .2-.1.3-.2zm-7.7 1.9h-.4.4zm-4.7-1.5c-.1-.1-.2-.1-.4-.2.1.1.2.1.4.2zm-1.6-1zm2.9 1.7c-.1-.1-.3-.1-.4-.2.2.1.3.1.4.2zm4.9.9h-.4.4zm-8.9-3.6-.3-.3c.2.1.2.3.3.3z" class="st20"/><path d="M775.4 591.3c.1.1.1.3.2.4l.6 1.2s0 .1.1.1c.2.4.5.8.8 1.2.1.1.2.2.2.3.2.3.4.5.7.8l.3.3c.3.3.7.6 1 .9h.1c.4.3.8.6 1.2.8.1.1.2.1.4.2.3.2.6.3 1 .5.1.1.3.1.4.2.5.2.9.4 1.4.5l1.5.3h.4c.4 0 .8.1 1.2.1h.4c.5 0 1-.1 1.5-.1h.3l1.2-.3c.1 0 .3-.1.4-.1.4-.1.8-.3 1.1-.4.1 0 .2-.1.2-.1.4-.2.9-.4 1.3-.7.1-.1.2-.1.3-.2l.9-.6.3-.3c.4-.3.7-.6 1.1-1-13.6 8.6-20.1-4.2-20.6-5.2 0 .1 0 .1.1.2-.3.3-.2.7 0 1z" class="st18"/><path d="M775.4 591.3c.1.1.1.3.2.4l.6 1.2s0 .1.1.1c.2.4.5.8.8 1.2.1.1.2.2.2.3.2.3.4.5.7.8l.3.3c.3.3.7.6 1 .9h.1c.4.3.8.6 1.2.8.1.1.2.1.4.2.3.2.6.3 1 .5.1.1.3.1.4.2.5.2.9.4 1.4.5l1.5.3h.4c.4 0 .8.1 1.2.1h.4c.5 0 1-.1 1.5-.1h.3l1.2-.3c.1 0 .3-.1.4-.1.4-.1.8-.3 1.1-.4.1 0 .2-.1.2-.1.4-.2.9-.4 1.3-.7.1-.1.2-.1.3-.2l.9-.6.3-.3c.4-.3.7-.6 1.1-1-13.6 8.6-20.1-4.2-20.6-5.2 0 .1 0 .1.1.2-.3.3-.2.7 0 1z" class="st20"/><path d="M247.5 688.6c-.4-.2-.7-.3-1-.5.3.1.7.3 1 .5zm13.3-1.6c-.3.2-.6.5-1 .7.3-.3.7-.5 1-.7zm-16-.1c-.4-.3-.7-.6-1.1-1 .3.4.7.7 1.1 1zm14.7 1c-.4.3-.9.5-1.4.7.5-.2.9-.5 1.4-.7zm-4.8 1.7c-.5.1-1 .1-1.6.1.6 0 1.1-.1 1.6-.1zm1.5-.4c-.4.1-.8.2-1.3.3.5-.1.9-.1 1.3-.3zm-6.7.1c-.5-.1-1-.3-1.5-.5.4.1.9.3 1.5.5zm8.4-.6c-.4.2-.8.3-1.2.4.4-.1.8-.3 1.2-.4zm-6.8.9c-.5-.1-1.1-.2-1.6-.3.5.1 1 .2 1.6.3zm1.6.1c-.4 0-.8 0-1.2-.1.4.1.8.1 1.2.1zm-6.6-1.9c-.4-.3-.9-.5-1.3-.9.4.4.8.7 1.3.9zm14.6-21.4c.4.3.7.6 1.1.9-.4-.4-.8-.7-1.1-.9zm1.1.9 1 1c-.4-.3-.7-.7-1-1zm-2.4-1.8.9.6-.9-.6zm-1.4-.7c.3.1.6.3.9.5-.2-.2-.5-.3-.9-.5zm-1.8-.6zm8.4 7c.2.4.4.8.5 1.2-.2-.4-.4-.8-.5-1.2zm-9.9-7.3 1.5.3c-.5-.2-1-.3-1.5-.3zm8.3 4.8c.2.3.4.5.6.8-.2-.3-.4-.6-.6-.8z" class="st18"/><path d="M244.3 666.9c-1.9 1.6-3.3 3.8-4 6.4-.6 2.3-.6 4.6 0 6.8.5 1 7.5 14.7 22 5.5-.4.4-.7.7-1.1 1 2-1.7 3.5-3.9 4.3-6.6.7-2.6.6-5.3-.3-7.6-.2-.1-7.3-11.8-20.9-5.5zm19.6 3c.2.3.3.6.5.9-.2-.3-.4-.6-.5-.9z" class="st18"/><path d="M244.3 666.9c.4-.3.7-.6 1.1-.9-.4.3-.7.6-1.1.9zm-3.6 14.5c-.1-.4-.3-.7-.4-1.1.2.4.3.8.4 1.1zm.8 1.7-.6-1.2.6 1.2zm1.9 2.5c-.3-.3-.5-.6-.7-.9.2.4.4.7.7.9zm-1-1.2c-.3-.4-.6-.8-.8-1.3.2.5.5.9.8 1.3zm4.7-19.3c.3-.1.6-.3.9-.4-.3.1-.6.2-.9.4zm1.3-.6c.4-.2.9-.3 1.4-.4-.5.1-.9.2-1.4.4zm-2.6 1.3c.3-.2.6-.4.9-.5-.3.1-.6.3-.9.5zm4-1.7c.5-.1.9-.2 1.4-.3-.5.1-.9.2-1.4.3zm1.9-.3c.3 0 .7 0 1-.1-.4 0-.7.1-1 .1zm1.5-.1c.3 0 .7 0 1 .1-.3 0-.7-.1-1-.1z" class="st18"/><path d="M265.1 672.4c0 .1 0 .1 0 0zm-12.4-8.7h.5-.5zm-6 1.6c.1-.1.3-.2.4-.2-.2 0-.3.1-.4.2zm1.3-.6c.1-.1.3-.1.4-.2-.1 0-.3.1-.4.2zm3.2-.9h.4-.4zm6.4.8c.1.1.3.1.4.2-.1 0-.2-.1-.4-.2zm-3.4-.8c.2 0 .3 0 .5.1-.2-.1-.3-.1-.5-.1zm9.4 5.7c.1.1.2.3.3.4-.1-.2-.2-.3-.3-.4zm-4.6-4.2c.2.1.3.2.4.3-.1-.1-.3-.2-.4-.3zm5.3 5.4c.1.1.1.3.2.4 0-.1-.1-.2-.2-.4zm-2.6-3.5c0 .1 0 .1 0 0 0 .1 0 .1 0 0zm1 1.1.3.3c-.1 0-.2-.2-.3-.3zm-2.4-2.2c.1.1.3.2.4.3-.2-.1-.3-.2-.4-.3zm-14.9-.1c.1-.1.2-.2.4-.2-.1.1-.3.2-.4.2z" class="st19"/><path d="M264.6 671.2c-.1-.1-.1-.3-.2-.4-.2-.3-.3-.6-.5-.9-.1-.1-.2-.3-.3-.4-.2-.3-.4-.5-.6-.8l-.3-.3c-.3-.4-.6-.7-1-1-.3-.3-.7-.6-1.1-.9-.1-.1-.2-.2-.4-.3l-.9-.6c-.1-.1-.3-.2-.4-.3-.3-.2-.6-.3-.9-.5-.1-.1-.3-.1-.4-.2-.5-.2-.9-.4-1.4-.5l-1.5-.3c-.2 0-.3 0-.5-.1-.3 0-.7-.1-1-.1h-.5c-.3 0-.7 0-1 .1h-.4c-.5.1-1 .1-1.4.3-.5.1-.9.3-1.4.4-.1.1-.3.1-.4.2-.3.1-.6.3-.9.4-.1.1-.3.1-.4.2-.3.2-.6.3-.9.5-.1.1-.3.2-.4.2-.4.3-.8.6-1.1.9 13.6-6.3 20.7 5.4 20.8 5.5v-.1c-.3-.2-.5-.6-.6-1z" class="st18"/><path d="M264.6 671.2c-.1-.1-.1-.3-.2-.4-.2-.3-.3-.6-.5-.9-.1-.1-.2-.3-.3-.4-.2-.3-.4-.5-.6-.8l-.3-.3c-.3-.4-.6-.7-1-1-.3-.3-.7-.6-1.1-.9-.1-.1-.2-.2-.4-.3l-.9-.6c-.1-.1-.3-.2-.4-.3-.3-.2-.6-.3-.9-.5-.1-.1-.3-.1-.4-.2-.5-.2-.9-.4-1.4-.5l-1.5-.3c-.2 0-.3 0-.5-.1-.3 0-.7-.1-1-.1h-.5c-.3 0-.7 0-1 .1h-.4c-.5.1-1 .1-1.4.3-.5.1-.9.3-1.4.4-.1.1-.3.1-.4.2-.3.1-.6.3-.9.4-.1.1-.3.1-.4.2-.3.2-.6.3-.9.5-.1.1-.3.2-.4.2-.4.3-.8.6-1.1.9 13.6-6.3 20.7 5.4 20.8 5.5v-.1c-.3-.2-.5-.6-.6-1z" class="st19"/><path d="M241.6 683.2s0-.1-.1-.1l.1.1zm11.5 6.5h-.4.4zm-12.2-7.9c-.1-.1-.1-.3-.2-.4.1.2.1.3.2.4zm10.6 7.8c-.2 0-.3 0-.5-.1.2.1.4.1.5.1zm-3.6-.8c-.1-.1-.3-.1-.4-.2.2 0 .3.1.4.2zm7.1.7c-.1 0-.2 0-.3.1.1 0 .2-.1.3-.1zm1.7-.4c-.1 0-.3.1-.4.1.1 0 .2 0 .4-.1zm-10.2-1.1c-.1-.1-.3-.1-.4-.2.1.1.2.2.4.2zm-2.8-2-.3-.3c.1 0 .2.1.3.3zm-1.1-1.2-.3-.3c.2.1.3.2.3.3zm2.2 2.2c0-.1 0-.1 0 0 0-.1 0-.1 0 0zm16.3-.3-.3.3.3-.3zm-1.3 1c-.1.1-.2.1-.3.2.1-.1.2-.2.3-.2zm-1.7.9c-.1 0-.2.1-.3.1.1-.1.2-.1.3-.1zm-17.8-8.5c0 .1.1.2.1.3-.1-.1-.1-.2-.1-.3z" class="st20"/><path d="M240.3 680.1c0 .1 0 .1.1.2.1.4.2.7.4 1.1.1.1.1.3.2.4l.6 1.2s0 .1.1.1c.2.4.5.8.8 1.3l.3.3c.2.3.5.6.7.9l.3.3c.3.3.7.7 1.1 1h.1c.4.3.8.6 1.3.9.1.1.3.1.4.2.3.2.7.4 1 .5.1.1.3.1.4.2.5.2 1 .4 1.5.5s1.1.2 1.6.3c.2 0 .3 0 .5.1.4 0 .8.1 1.2.1h.4c.5 0 1-.1 1.6-.1.1 0 .2 0 .3-.1.4-.1.8-.2 1.3-.3.1 0 .3-.1.4-.1.4-.1.8-.3 1.2-.4.1 0 .2-.1.3-.1.5-.2.9-.4 1.4-.7.1-.1.2-.1.3-.2.3-.2.7-.4 1-.7l.3-.3c.4-.3.8-.7 1.1-1-14.7 9.2-21.7-4.5-22.2-5.6z" class="st18"/><path d="M240.3 680.1c0 .1 0 .1.1.2.1.4.2.7.4 1.1.1.1.1.3.2.4l.6 1.2s0 .1.1.1c.2.4.5.8.8 1.3l.3.3c.2.3.5.6.7.9l.3.3c.3.3.7.7 1.1 1h.1c.4.3.8.6 1.3.9.1.1.3.1.4.2.3.2.7.4 1 .5.1.1.3.1.4.2.5.2 1 .4 1.5.5s1.1.2 1.6.3c.2 0 .3 0 .5.1.4 0 .8.1 1.2.1h.4c.5 0 1-.1 1.6-.1.1 0 .2 0 .3-.1.4-.1.8-.2 1.3-.3.1 0 .3-.1.4-.1.4-.1.8-.3 1.2-.4.1 0 .2-.1.3-.1.5-.2.9-.4 1.4-.7.1-.1.2-.1.3-.2.3-.2.7-.4 1-.7l.3-.3c.4-.3.8-.7 1.1-1-14.7 9.2-21.7-4.5-22.2-5.6z" class="st20"/><path d="M136.2 816.5c.2-.2.4-.3.6-.5-.2.2-.4.3-.6.5zm-54.9-86.1c.8-.4 1.7-.8 2.5-1.2-.8.3-1.7.7-2.5 1.2zm56.6 6.4c.7.6 1.3 1.1 2 1.7-.7-.5-1.3-1.1-2-1.7zm2.1 1.9c.7.6 1.3 1.3 2 2-.6-.7-1.3-1.3-2-2zm6.3 7.2c.5.7 1 1.4 1.4 2.1-.5-.8-.9-1.5-1.4-2.1zm-13.1-12.6c.6.4 1.1.8 1.7 1.1-.6-.4-1.2-.7-1.7-1.1zm-3.2-2c.8.5 1.7 1 2.5 1.5-.9-.5-1.7-1-2.5-1.5zm12.6 10.1c.4.5.9 1 1.3 1.5-.4-.6-.9-1.1-1.3-1.5zm5.3 6.8c.5.8 1 1.6 1.4 2.4-.5-.8-.9-1.6-1.4-2.4zm-5.9 63c-.7.7-1.4 1.4-2.2 2.1.8-.6 1.5-1.3 2.2-2.1zm-57.4-82.4c.6-.3 1.2-.5 1.8-.7-.6.2-1.2.5-1.8.7zm65.1 22.5.9 1.8-.9-1.8zm-5.2-7.7 1.2 1.5-1.2-1.5zm-5.3 70.4-1.8 1.5 1.8-1.5zm11.9-60c.3.6.5 1.2.8 1.8-.3-.7-.6-1.2-.8-1.8zm-23.7-24c.8.4 1.7.8 2.5 1.3-.8-.5-1.7-.9-2.5-1.3zm-25.1-5.3c1 0 1.9-.1 2.9-.1-.9.1-1.9.1-2.9.1zm-2.9.3c.7-.1 1.3-.1 2-.2-.6 0-1.3.1-2 .2zm5.8-.3c1 0 1.9.1 2.9.1-.9-.1-1.9-.1-2.9-.1zm9.9 1c1 .2 2 .4 2.9.7-.9-.2-1.9-.4-2.9-.7zm37.1 30.9c.3.8.6 1.5.9 2.3-.3-.8-.6-1.6-.9-2.3zm-43.1-31.7c.7.1 1.4.1 2.1.2-.8-.1-1.5-.2-2.1-.2zm3 .3 2.1.3-2.1-.3z" class="st18"/><path d="M82.6 732.9c.5 1 1 2.1 1.5 3.1 14.4 28.8 31.6 55.2 51.1 79.2 2.2-1.2 4.5-2.5 6.8-4 5.7-6 10-13.5 12.3-22 2.8-10.3 2.2-20.7-1.1-30.1-.3-.4-24.4-40.2-70.6-26.2zm42.1-4.2c.6.3 1.3.5 1.9.8-.6-.2-1.3-.5-1.9-.8zm-34.6-1.9c.9-.3 1.8-.5 2.7-.7-.9.2-1.8.5-2.7.7zm-2.7.9zm9.1-2.3c.7-.1 1.3-.2 2-.3-.7.1-1.4.2-2 .3zm-3.7.7c.9-.2 1.8-.4 2.8-.6-.9.2-1.9.4-2.8.6zm25.2.3c1 .3 1.9.6 2.9.9-.9-.3-1.9-.6-2.9-.9zm3.8 1.2c.7.2 1.3.5 1.9.7-.6-.2-1.2-.5-1.9-.7zm13.8 7.4 1.5 1.2c-.4-.4-.9-.8-1.5-1.2z" class="st18"/><path d="m86.5 728.1.9-.3c-.3 0-.6.2-.9.3zm64.1 25c.1.3.3.6.4.9-.1-.3-.2-.6-.4-.9zm-18.2-20.3c.2.2.5.3.7.5-.2-.2-.4-.3-.7-.5zm19.5 22.9c.1.3.2.6.4.9-.2-.3-.3-.6-.4-.9zm-62.6-28.6c.3-.1.6-.2.8-.3-.3.1-.6.2-.8.3zm40.6 4.1s.1 0 .1.1c-.1 0-.1 0-.1-.1zm-34.3-5.7c.3-.1.6-.1.9-.1-.3 0-.6.1-.9.1zm15.5-.4c.3 0 .7.1 1 .1-.3 0-.7-.1-1-.1zm26.1 11.2c.2.2.5.4.7.6-.2-.3-.5-.5-.7-.6zm-23-10.7c.3.1.6.1.9.2-.3-.1-.6-.2-.9-.2zm25.7 13c.1.1.1.1.2.1-.1 0-.2-.1-.2-.1zm-13.3-9c.3.1.6.3.8.4-.3-.2-.6-.3-.8-.4zm-5.7-2.3.9.3-.9-.3zm13.9 7.1c.3.2.5.4.8.6-.2-.2-.5-.4-.8-.6zm-36.3-9.3c.3 0 .7-.1 1-.1-.4 0-.7 0-1 .1zm3-.3c.3 0 .6 0 .9-.1-.4.1-.6.1-.9.1zm46.2 23.1c.1.1.1.2.2.2-.1 0-.2-.1-.2-.2zm1.6 2.7c.1.2.3.5.4.7-.1-.2-.2-.5-.4-.7zm-5.4-7.8c.2.3.4.5.6.8-.2-.2-.4-.5-.6-.8zm1.8 2.3c.2.2.4.5.5.7-.1-.2-.3-.4-.5-.7zm-3.7-4.4.6.6-.6-.6zm-33.9-15.9c.3 0 .6.1.9.1-.2 0-.6-.1-.9-.1zm15.6 3.5c.3.1.6.3 1 .4-.3-.1-.6-.2-1-.4zm29.5 30.9c0-.1-.1-.2-.1-.3 0 .1.1.2.1.3zm-69.4-30c.3-.1.5-.2.8-.3-.2 0-.5.1-.8.3z" class="st19"/><path d="M153.2 759.2c0-.1-.1-.2-.1-.3-.3-.8-.6-1.5-.9-2.3-.1-.3-.2-.6-.4-.9-.3-.6-.5-1.2-.8-1.8-.1-.3-.3-.6-.4-.9l-.9-1.8c-.1-.2-.3-.5-.4-.7-.5-.8-.9-1.6-1.4-2.4-.1-.1-.1-.2-.2-.2-.5-.7-.9-1.4-1.4-2.1-.2-.2-.4-.5-.5-.7l-1.2-1.5c-.2-.3-.4-.5-.6-.8-.4-.5-.9-1-1.3-1.5l-.6-.6c-.6-.7-1.3-1.4-2-2-.1-.1-.1-.1-.2-.1-.6-.6-1.3-1.2-2-1.7-.2-.2-.5-.4-.7-.6l-1.5-1.2c-.3-.2-.5-.4-.8-.6-.5-.4-1.1-.8-1.7-1.1-.2-.2-.5-.3-.7-.5-.8-.5-1.6-1-2.5-1.5 0 0-.1 0-.1-.1-.8-.5-1.6-.9-2.5-1.3-.3-.1-.6-.3-.8-.4-.6-.3-1.2-.6-1.9-.8-.3-.1-.6-.3-1-.4-.6-.3-1.3-.5-1.9-.7l-.9-.3c-.9-.3-1.9-.6-2.9-.9-1-.3-2-.5-2.9-.7-.3-.1-.6-.1-.9-.2l-2.1-.3c-.3 0-.7-.1-1-.1-.7-.1-1.4-.2-2.1-.2-.3 0-.6-.1-.9-.1-1-.1-1.9-.1-2.9-.1s-1.9 0-2.9.1c-.3 0-.6 0-.9.1-.7 0-1.3.1-2 .2-.3 0-.7.1-1 .1-.7.1-1.3.2-2 .3-.3 0-.6.1-.9.1-.9.2-1.9.4-2.8.6-.9.2-1.8.5-2.7.7-.3.1-.6.2-.8.3-.6.2-1.3.4-1.9.6l-.9.3c-.6.2-1.2.5-1.8.7-.3.1-.5.2-.8.3-.8.4-1.7.8-2.5 1.2.4.8.8 1.7 1.2 2.5 46.3-14 70.4 25.8 70.7 26.3z" class="st18"/><path d="M153.2 759.2c0-.1-.1-.2-.1-.3-.3-.8-.6-1.5-.9-2.3-.1-.3-.2-.6-.4-.9-.3-.6-.5-1.2-.8-1.8-.1-.3-.3-.6-.4-.9l-.9-1.8c-.1-.2-.3-.5-.4-.7-.5-.8-.9-1.6-1.4-2.4-.1-.1-.1-.2-.2-.2-.5-.7-.9-1.4-1.4-2.1-.2-.2-.4-.5-.5-.7l-1.2-1.5c-.2-.3-.4-.5-.6-.8-.4-.5-.9-1-1.3-1.5l-.6-.6c-.6-.7-1.3-1.4-2-2-.1-.1-.1-.1-.2-.1-.6-.6-1.3-1.2-2-1.7-.2-.2-.5-.4-.7-.6l-1.5-1.2c-.3-.2-.5-.4-.8-.6-.5-.4-1.1-.8-1.7-1.1-.2-.2-.5-.3-.7-.5-.8-.5-1.6-1-2.5-1.5 0 0-.1 0-.1-.1-.8-.5-1.6-.9-2.5-1.3-.3-.1-.6-.3-.8-.4-.6-.3-1.2-.6-1.9-.8-.3-.1-.6-.3-1-.4-.6-.3-1.3-.5-1.9-.7l-.9-.3c-.9-.3-1.9-.6-2.9-.9-1-.3-2-.5-2.9-.7-.3-.1-.6-.1-.9-.2l-2.1-.3c-.3 0-.7-.1-1-.1-.7-.1-1.4-.2-2.1-.2-.3 0-.6-.1-.9-.1-1-.1-1.9-.1-2.9-.1s-1.9 0-2.9.1c-.3 0-.6 0-.9.1-.7 0-1.3.1-2 .2-.3 0-.7.1-1 .1-.7.1-1.3.2-2 .3-.3 0-.6.1-.9.1-.9.2-1.9.4-2.8.6-.9.2-1.8.5-2.7.7-.3.1-.6.2-.8.3-.6.2-1.3.4-1.9.6l-.9.3c-.6.2-1.2.5-1.8.7-.3.1-.5.2-.8.3-.8.4-1.7.8-2.5 1.2.4.8.8 1.7 1.2 2.5 46.3-14 70.4 25.8 70.7 26.3z" class="st19"/><path d="m139.8 813.4-.6.6.6-.6zm-2.4 2.1c-.2.2-.4.3-.6.5.2-.2.4-.3.6-.5z" class="st20"/><path d="M136.2 816.5c.2-.2.4-.3.6-.5.2-.2.4-.3.6-.5l1.8-1.5.6-.6c.7-.7 1.5-1.4 2.2-2.1-2.3 1.5-4.6 2.8-6.8 4 .3.3.6.8 1 1.2z" class="st18"/><path d="M136.2 816.5c.2-.2.4-.3.6-.5.2-.2.4-.3.6-.5l1.8-1.5.6-.6c.7-.7 1.5-1.4 2.2-2.1-2.3 1.5-4.6 2.8-6.8 4 .3.3.6.8 1 1.2z" class="st20"/><path d="M405.1 751.4c1.2.6 2.3 1.2 3.5 1.8-1.2-.6-2.4-1.2-3.5-1.8zm14.8 9.7c.9.8 1.9 1.6 2.8 2.5-1-.9-1.9-1.7-2.8-2.5zm2.9 2.6c1 .9 1.9 1.9 2.8 2.8-.9-.9-1.8-1.9-2.8-2.8zm-6.1-5.2c.7.6 1.5 1.1 2.2 1.7-.7-.5-1.5-1.1-2.2-1.7zm9.8 8.9c.6.7 1.3 1.4 1.9 2.1-.7-.7-1.3-1.4-1.9-2.1zm-90.7 110.7c-.9-.6-1.8-1.1-2.7-1.7.9.6 1.8 1.2 2.7 1.7zm93.4-107.5c.6.7 1.1 1.4 1.7 2.2-.6-.7-1.1-1.5-1.7-2.2zm-16-14.5c.8.5 1.6 1.1 2.3 1.6-.7-.6-1.5-1.1-2.3-1.6zm18.5 17.7c.7 1 1.4 1.9 2 2.9-.7-1-1.3-1.9-2-2.9zm-23-20.5c1.2.7 2.3 1.4 3.5 2.1-1.2-.7-2.3-1.5-3.5-2.1zm-68.2 127.4c-1.2-.6-2.4-1.3-3.6-2 1.2.8 2.4 1.4 3.6 2zm47.2-135.3c1.4.3 2.8.6 4.1 1-1.3-.4-2.7-.7-4.1-1zm-77.5 106.3c-.6-1-1.1-2.1-1.7-3.1.5 1 1.1 2 1.7 3.1zm87-103.6c.9.3 1.8.7 2.7 1-.9-.4-1.8-.7-2.7-1zm-65.1 127.6zm104.4-94.2c.5.8.9 1.7 1.3 2.5-.4-.9-.8-1.7-1.3-2.5zm-91.8 101.2c-1.3-.6-2.7-1.2-4-1.8 1.3.6 2.6 1.2 4 1.8zm56.6-133.1c.9.4 1.8.8 2.6 1.2-.9-.4-1.8-.8-2.6-1.2zm-96.8 89.3c-.4-1.1-.7-2.2-1-3.3.3 1 .6 2.1 1 3.3zm21.2-77.2zm-19.5 81.8-1.5-3.9 1.5 3.9zm115.5 26.3c-.8.7-1.7 1.5-2.5 2.2.8-.7 1.6-1.4 2.5-2.2zm-91.9-111.4c.7-.6 1.5-1.1 2.2-1.6-.7.5-1.5 1.1-2.2 1.6zM425.6 866c-1 1-2 2-3.1 3 1.1-1 2.1-2 3.1-3zm-117.7-18.6c-.5-1-.9-1.9-1.3-2.9.4 1 .9 1.9 1.3 2.9zm32.2-95.4c1.2-.6 2.4-1.2 3.6-1.7-1.3.5-2.5 1.1-3.6 1.7zm98.3 33.2c.4.8.8 1.7 1.1 2.5-.3-.8-.7-1.6-1.1-2.5zm-89.8-37c.9-.3 1.7-.6 2.6-.9-.8.3-1.7.6-2.6.9zm3.9-1.2c1.3-.4 2.5-.7 3.8-1-1.3.2-2.6.6-3.8 1zm-19.3 9c.8-.5 1.6-1 2.3-1.5-.8.5-1.5 1-2.3 1.5zm3.4-2.1c1.1-.7 2.3-1.3 3.4-1.9-1.1.6-2.3 1.2-3.4 1.9zm97.3 23.2c.7 1.1 1.4 2.2 2 3.4-.6-1.2-1.3-2.3-2-3.4zm-89.1-27.3c.9-.4 1.7-.7 2.6-1-.9.3-1.8.6-2.6 1zm47.1-3.4c1.4.4 2.7.8 4.1 1.2-1.4-.4-2.8-.8-4.1-1.2zm-30.4-1.5c.9-.2 1.9-.3 2.8-.4-1 .1-1.9.2-2.8.4zm-43.3 118.3c-.8-.9-1.6-1.9-2.3-2.9.7 1 1.5 1.9 2.3 2.9zm96.1 12.5c-1 .7-2 1.3-3 1.9 1-.6 2-1.3 3-1.9zm-99.2-16.4c-.6-.8-1.2-1.7-1.8-2.6.6.9 1.2 1.7 1.8 2.6zm103.2 13.4c-1.1.9-2.2 1.7-3.4 2.6 1.2-.9 2.3-1.7 3.4-2.6zm-62-126.8c1.3-.3 2.6-.6 3.9-.8-1.3.2-2.6.5-3.9.8zm27.2-1.2c1 .1 1.9.3 2.9.5-.9-.2-1.9-.3-2.9-.5zm-19.9 143.2c-1.1-.2-2.3-.3-3.4-.5 1.1.1 2.3.3 3.4.5zm38-5.2zm4.9-2.3c-1.3.7-2.5 1.3-3.8 1.8 1.2-.6 2.5-1.2 3.8-1.8zm-78.1-7.4c-1-.8-2-1.6-2.9-2.5.9.9 1.8 1.7 2.9 2.5zm-7.1-6.3c-1-1-1.9-2-2.8-3.1.9 1 1.9 2.1 2.8 3.1zm3.2 3c-.8-.7-1.5-1.4-2.3-2.2.7.7 1.5 1.5 2.3 2.2zm115.6-80.8c.4 1.1.8 2.1 1.2 3.2-.4-1.1-.8-2.1-1.2-3.2zm-29.9 89.4c-1 .6-2 1.2-3.1 1.7 1.1-.6 2.1-1.1 3.1-1.7zm-51.3 8.8c-1.5-.3-3-.6-4.5-1 1.5.4 3 .7 4.5 1zM369.7 744c1.4-.1 2.7-.1 4.1-.1-1.3 0-2.7.1-4.1.1zm4.1-.1c1.4 0 2.7.1 4.1.2-1.4-.1-2.7-.2-4.1-.2zm-8.1.4c.9-.1 1.9-.2 2.8-.2-1 .1-1.9.1-2.8.2zm-11.3 141.8c-1.5-.4-2.9-.8-4.3-1.3 1.5.4 2.9.9 4.3 1.3zm-5.5-1.8c-1-.4-2.1-.8-3.1-1.2 1.1.5 2.1.9 3.1 1.2zm48.5 0c-1.3.5-2.7.9-4.1 1.3 1.4-.3 2.8-.8 4.1-1.3zm-18.2-140.1c1 .1 1.9.2 2.9.3-1-.1-1.9-.2-2.9-.3zm-66.6 111.6c-.8-1.2-1.5-2.3-2.2-3.5.8 1.1 1.5 2.3 2.2 3.5zm65.9 32.5c-1.2.1-2.4.1-3.6.2 1.2 0 2.4-.1 3.6-.2zm-9.3.1c-1.5-.1-2.9-.2-4.4-.4 1.4.2 2.9.3 4.4.4zm4.4.1c-1.2 0-2.4 0-3.6-.1 1.2.1 2.4.1 3.6.1zm19.8-2.8c-1.4.4-2.8.7-4.2 1.1 1.4-.4 2.8-.7 4.2-1.1z" class="st18"/><path d="M325.7 761.7c-10.5 9.1-18.5 21.4-22.4 35.8-3.4 12.8-3.2 25.6 0 37.5 1.5 3.2 40.2 83.1 122.3 30.9 8-8.5 14.1-19 17.3-31 3.9-14.5 3.1-29.2-1.5-42.4-.4-.7-40-66-115.7-30.8z" class="st18"/><path d="M383.6 887.8c-1.4.2-2.8.4-4.3.5 1.5-.1 2.9-.3 4.3-.5zm4.4-.8-3.3.6 3.3-.6z" class="st18"/><path d="M360.2 745.1c.4-.1.8-.1 1.2-.2-.3.1-.8.1-1.2.2zm4.1-.6c.5-.1.9-.1 1.4-.2-.5.1-1 .1-1.4.2zm-8 1.4zm77.4 30.8c.1.1.2.2.2.3-.1 0-.1-.2-.2-.3zm4.1 7.3.6 1.2-.6-1.2zm-6.9-11.2c.3.3.5.7.8 1-.3-.3-.5-.7-.8-1zm-2.6-3.3c.3.4.6.7.9 1.1-.3-.3-.6-.7-.9-1.1zm-77-22.2c.4-.1.8-.3 1.2-.4-.4.2-.8.3-1.2.4zm74.4 19.2c.3.3.5.6.8.9-.3-.3-.6-.6-.8-.9zm-96.9-7.3c.3-.3.7-.5 1-.7-.3.2-.7.4-1 .7zm3.2-2.4c.4-.3.8-.5 1.2-.8-.4.3-.8.5-1.2.8zm3.5-2.3c.4-.2.7-.4 1.1-.6-.4.2-.7.4-1.1.6zm87.1 9c.1.1.2.1.2.2l-.2-.2zM340 752s.1 0 0 0c.1 0 0 0 0 0zm3.6-1.7c.4-.2.8-.3 1.1-.5-.3.1-.7.3-1.1.5zm3.7-1.6c.4-.2.9-.3 1.3-.5-.4.2-.8.4-1.3.5zm68.2 9c.4.3.8.6 1.1.8-.3-.3-.7-.5-1.1-.8zm26 34.9c0-.1-.1-.3-.2-.4 0 .1.1.2.2.4-.1-.1 0 0 0 0zm-45.6-45c.4.1.8.3 1.2.4-.4-.1-.8-.2-1.2-.4zm-9.5-2.4c.4.1.9.2 1.3.2-.4 0-.8-.1-1.3-.2zm-8.5-1.1c.4 0 .9.1 1.3.1-.4 0-.9-.1-1.3-.1zm22 5c.5.2.9.4 1.4.6-.5-.2-.9-.4-1.4-.6zm-17.8-4.6c.5.1 1 .1 1.4.2-.4-.1-.9-.1-1.4-.2zm30.1 10.9c.4.2.7.5 1 .7-.3-.3-.7-.5-1-.7zm-43.7-11.3c.4 0 .8-.1 1.3-.1-.5 0-.9.1-1.3.1zm71.1 43.6c.2.4.3.8.5 1.2-.2-.4-.4-.8-.5-1.2zm-31.1-34.5c.1 0 .1.1.2.1-.1-.1-.1-.1-.2-.1zm-4.6-2.4 1.2.6-1.2-.6zm15 9.4c.3.3.7.5 1 .8-.4-.2-.7-.5-1-.8zm17.1 20.3c.2.3.4.7.6 1-.3-.4-.5-.7-.6-1z" class="st19"/><path d="M441.4 792.5c0-.1-.1-.3-.2-.4-.4-1.1-.8-2.2-1.2-3.2-.2-.4-.3-.8-.5-1.2-.4-.8-.7-1.7-1.1-2.5l-.6-1.2c-.4-.8-.9-1.7-1.3-2.5-.2-.3-.4-.7-.6-1-.7-1.1-1.3-2.3-2-3.4-.1-.1-.2-.2-.2-.3-.6-1-1.3-2-2-2.9-.3-.3-.5-.7-.8-1-.5-.7-1.1-1.5-1.7-2.2-.3-.4-.6-.7-.9-1.1-.6-.7-1.2-1.4-1.9-2.1-.3-.3-.5-.6-.8-.9-.9-1-1.8-1.9-2.8-2.8-.1-.1-.2-.1-.2-.2-.9-.8-1.8-1.7-2.8-2.5-.3-.3-.7-.5-1-.8-.7-.6-1.4-1.2-2.2-1.7-.4-.3-.8-.6-1.1-.8-.8-.6-1.5-1.1-2.3-1.6-.3-.2-.7-.5-1-.7-1.1-.7-2.3-1.4-3.5-2.1-.1 0-.1-.1-.2-.1-1.1-.6-2.3-1.2-3.5-1.8l-1.2-.6c-.9-.4-1.7-.8-2.6-1.2-.4-.2-.9-.4-1.4-.6-.9-.4-1.8-.7-2.7-1-.4-.1-.8-.3-1.2-.4-1.3-.4-2.7-.9-4.1-1.2-1.4-.4-2.8-.7-4.1-1-.4-.1-.9-.2-1.3-.2-1-.2-1.9-.3-2.9-.5-.5-.1-1-.1-1.4-.2-1-.1-1.9-.2-2.9-.3-.4 0-.9-.1-1.3-.1-1.4-.1-2.7-.2-4.1-.2s-2.7 0-4.1.1c-.4 0-.8.1-1.3.1-.9.1-1.9.1-2.8.2-.5 0-.9.1-1.4.2-.9.1-1.9.3-2.8.4-.4.1-.8.1-1.2.2-1.3.2-2.6.5-3.9.8-1.3.3-2.6.7-3.8 1-.4.1-.8.3-1.2.4-.9.3-1.8.6-2.6.9-.4.2-.9.3-1.3.5-.9.3-1.7.7-2.6 1-.4.2-.8.3-1.1.5-1.2.5-2.4 1.1-3.6 1.7-1.2.6-2.3 1.2-3.4 1.9-.4.2-.7.4-1.1.6-.8.5-1.6 1-2.3 1.5-.4.3-.8.5-1.2.8-.8.5-1.5 1.1-2.2 1.6-.3.2-.7.5-1 .7-1 .8-2.1 1.6-3.1 2.5 75.6-35.1 115.2 30.2 115.6 30.9z" class="st18"/><path d="M441.4 792.5c0-.1-.1-.3-.2-.4-.4-1.1-.8-2.2-1.2-3.2-.2-.4-.3-.8-.5-1.2-.4-.8-.7-1.7-1.1-2.5l-.6-1.2c-.4-.8-.9-1.7-1.3-2.5-.2-.3-.4-.7-.6-1-.7-1.1-1.3-2.3-2-3.4-.1-.1-.2-.2-.2-.3-.6-1-1.3-2-2-2.9-.3-.3-.5-.7-.8-1-.5-.7-1.1-1.5-1.7-2.2-.3-.4-.6-.7-.9-1.1-.6-.7-1.2-1.4-1.9-2.1-.3-.3-.5-.6-.8-.9-.9-1-1.8-1.9-2.8-2.8-.1-.1-.2-.1-.2-.2-.9-.8-1.8-1.7-2.8-2.5-.3-.3-.7-.5-1-.8-.7-.6-1.4-1.2-2.2-1.7-.4-.3-.8-.6-1.1-.8-.8-.6-1.5-1.1-2.3-1.6-.3-.2-.7-.5-1-.7-1.1-.7-2.3-1.4-3.5-2.1-.1 0-.1-.1-.2-.1-1.1-.6-2.3-1.2-3.5-1.8l-1.2-.6c-.9-.4-1.7-.8-2.6-1.2-.4-.2-.9-.4-1.4-.6-.9-.4-1.8-.7-2.7-1-.4-.1-.8-.3-1.2-.4-1.3-.4-2.7-.9-4.1-1.2-1.4-.4-2.8-.7-4.1-1-.4-.1-.9-.2-1.3-.2-1-.2-1.9-.3-2.9-.5-.5-.1-1-.1-1.4-.2-1-.1-1.9-.2-2.9-.3-.4 0-.9-.1-1.3-.1-1.4-.1-2.7-.2-4.1-.2s-2.7 0-4.1.1c-.4 0-.8.1-1.3.1-.9.1-1.9.1-2.8.2-.5 0-.9.1-1.4.2-.9.1-1.9.3-2.8.4-.4.1-.8.1-1.2.2-1.3.2-2.6.5-3.9.8-1.3.3-2.6.7-3.8 1-.4.1-.8.3-1.2.4-.9.3-1.8.6-2.6.9-.4.2-.9.3-1.3.5-.9.3-1.7.7-2.6 1-.4.2-.8.3-1.1.5-1.2.5-2.4 1.1-3.6 1.7-1.2.6-2.3 1.2-3.4 1.9-.4.2-.7.4-1.1.6-.8.5-1.6 1-2.3 1.5-.4.3-.8.5-1.2.8-.8.5-1.5 1.1-2.2 1.6-.3.2-.7.5-1 .7-1 .8-2.1 1.6-3.1 2.5 75.6-35.1 115.2 30.2 115.6 30.9z" class="st19"/><path d="m313.3 856.7-.6-.9.6.9zM419.1 872c-.3.2-.6.5-.8.7.3-.3.6-.5.8-.7zm-108.6-19.8-.3-.6c.1.3.2.4.3.6zm5.4 8.1c-.3-.3-.5-.7-.8-1 .3.3.5.7.8 1zm9.5 10.2-.9-.9.9.9zm81.8 9.5c-.2.1-.5.3-.7.4.2-.1.4-.3.7-.4zm-4.6 2.2c-.3.1-.7.3-1 .4.4-.1.7-.2 1-.4zm-73.9-9-.3-.3c.1.2.2.3.3.3zm-6.5-5.7c-.3-.3-.6-.5-.8-.8l.8.8zm-13.7-19-.6-1.2c.2.5.4.8.6 1.2zm10 15.1c-.1-.1-.2-.3-.3-.4.1.1.2.2.3.4zm92.8 14c-.4.2-.7.4-1.1.7.4-.3.8-.5 1.1-.7zm3.6-2.4c-.2.2-.4.3-.7.4.3-.1.5-.2.7-.4zm-78 3.6c-.4-.2-.7-.4-1.1-.7.4.2.7.5 1.1.7zm52.3 7.9-1.2.3 1.2-.3zm-4.5.9c-.4.1-.7.1-1.1.2.4-.1.7-.1 1.1-.2zm-5.4.7c-.3 0-.5 0-.8.1.3-.1.6-.1.8-.1zm-29.1-3.5c-.4-.1-.8-.3-1.2-.4.3.1.7.2 1.2.4zm-4.4-1.6c-.4-.2-.8-.3-1.2-.5.5.1.8.3 1.2.5zm29.1 5.3h-1.3 1.3zm-10.2-.5c-.4 0-.8-.1-1.1-.2.4.1.8.2 1.1.2zm5.3.5h-.8c.2-.1.5-.1.8 0zm-66.7-53.6c.1.2.1.4.2.6 0-.2-.1-.3-.1-.5-.1 0-.1-.1-.1-.1zM422.6 869c-.3.3-.6.6-.9.8.3-.3.6-.5.9-.8zm-117.9-29.4c-.1-.2-.1-.5-.2-.7.1.2.1.4.2.7zm1.9 4.9c-.1-.3-.3-.7-.4-1 .1.3.3.6.4 1zm26.5 31.9c-.3-.2-.7-.4-1-.7.3.3.7.5 1 .7zm27.1 10.9c-.4-.1-.9-.2-1.3-.2.4.1.8.2 1.3.2zm-19.5-6.4c-.1 0-.1-.1-.2-.1.1 0 .1 0 .2.1zm57.9 3c-.4.1-.8.3-1.2.4.4-.1.8-.3 1.2-.4z" class="st20"/><path d="M303.4 835c0 .2.1.3.1.5.3 1.1.6 2.2 1 3.3.1.2.1.5.2.7.5 1.3.9 2.6 1.5 3.9.1.3.3.7.4 1 .4 1 .8 1.9 1.3 2.9l.6 1.2c.5 1.1 1.1 2.1 1.7 3.1l.3.6c.7 1.2 1.4 2.4 2.2 3.5l.6.9c.6.9 1.2 1.7 1.8 2.6.3.3.5.7.8 1 .7 1 1.5 1.9 2.3 2.9.1.1.2.3.3.4.9 1.1 1.9 2.1 2.8 3.1l.8.8c.7.7 1.5 1.5 2.3 2.2l.9.9c1 .8 1.9 1.7 2.9 2.5l.3.3c1.1.9 2.3 1.7 3.4 2.5.3.2.7.4 1 .7.9.6 1.8 1.2 2.7 1.7.4.2.7.4 1.1.7 1.2.7 2.4 1.3 3.6 2 .1 0 .1.1.2.1 1.3.6 2.6 1.2 4 1.8.4.2.8.3 1.2.5 1 .4 2 .8 3.1 1.2.4.1.8.3 1.2.4 1.4.5 2.8.9 4.3 1.3s3 .7 4.5 1c.4.1.9.2 1.3.2 1.1.2 2.3.4 3.4.5.4.1.8.1 1.1.2 1.5.2 2.9.3 4.4.4h.8c1.2.1 2.4.1 3.6.1h1.3c1.2 0 2.4-.1 3.6-.2.3 0 .5 0 .8-.1 1.4-.1 2.9-.3 4.3-.5.4-.1.7-.1 1.1-.2l3.3-.6 1.2-.3c1.4-.3 2.8-.7 4.2-1.1 1.4-.4 2.7-.9 4.1-1.3.4-.1.8-.3 1.2-.4 1-.4 2.1-.8 3.1-1.2.3-.1.7-.3 1-.4 1.3-.6 2.6-1.2 3.8-1.8.2-.1.5-.3.7-.4 1-.6 2.1-1.1 3.1-1.7.4-.2.7-.4 1.1-.7 1-.6 2-1.3 3-1.9.2-.1.4-.3.7-.4 1.2-.8 2.3-1.7 3.4-2.6.3-.2.6-.5.8-.7.9-.7 1.7-1.4 2.5-2.2.3-.3.6-.5.9-.8 1-1 2.1-2 3.1-3-82.2 52.1-120.9-27.9-122.3-31.1z" class="st18"/><path d="M303.4 835c0 .2.1.3.1.5.3 1.1.6 2.2 1 3.3.1.2.1.5.2.7.5 1.3.9 2.6 1.5 3.9.1.3.3.7.4 1 .4 1 .8 1.9 1.3 2.9l.6 1.2c.5 1.1 1.1 2.1 1.7 3.1l.3.6c.7 1.2 1.4 2.4 2.2 3.5l.6.9c.6.9 1.2 1.7 1.8 2.6.3.3.5.7.8 1 .7 1 1.5 1.9 2.3 2.9.1.1.2.3.3.4.9 1.1 1.9 2.1 2.8 3.1l.8.8c.7.7 1.5 1.5 2.3 2.2l.9.9c1 .8 1.9 1.7 2.9 2.5l.3.3c1.1.9 2.3 1.7 3.4 2.5.3.2.7.4 1 .7.9.6 1.8 1.2 2.7 1.7.4.2.7.4 1.1.7 1.2.7 2.4 1.3 3.6 2 .1 0 .1.1.2.1 1.3.6 2.6 1.2 4 1.8.4.2.8.3 1.2.5 1 .4 2 .8 3.1 1.2.4.1.8.3 1.2.4 1.4.5 2.8.9 4.3 1.3s3 .7 4.5 1c.4.1.9.2 1.3.2 1.1.2 2.3.4 3.4.5.4.1.8.1 1.1.2 1.5.2 2.9.3 4.4.4h.8c1.2.1 2.4.1 3.6.1h1.3c1.2 0 2.4-.1 3.6-.2.3 0 .5 0 .8-.1 1.4-.1 2.9-.3 4.3-.5.4-.1.7-.1 1.1-.2l3.3-.6 1.2-.3c1.4-.3 2.8-.7 4.2-1.1 1.4-.4 2.7-.9 4.1-1.3.4-.1.8-.3 1.2-.4 1-.4 2.1-.8 3.1-1.2.3-.1.7-.3 1-.4 1.3-.6 2.6-1.2 3.8-1.8.2-.1.5-.3.7-.4 1-.6 2.1-1.1 3.1-1.7.4-.2.7-.4 1.1-.7 1-.6 2-1.3 3-1.9.2-.1.4-.3.7-.4 1.2-.8 2.3-1.7 3.4-2.6.3-.2.6-.5.8-.7.9-.7 1.7-1.4 2.5-2.2.3-.3.6-.5.9-.8 1-1 2.1-2 3.1-3-82.2 52.1-120.9-27.9-122.3-31.1z" class="st20"/><path d="M816.6 800c-.3 0-.6.1-.9.1.4 0 .6-.1.9-.1zm19.3-149.4c1 .4 1.9.8 2.8 1.3-.9-.4-1.8-.8-2.8-1.3zm-83 129.8c-.8-.8-1.7-1.6-2.5-2.4.8.8 1.7 1.6 2.5 2.4zm5.8-120.3 2.4-1.8-2.4 1.8zm90.2-2.5c.9.6 1.7 1.1 2.5 1.7-.9-.6-1.7-1.1-2.5-1.7zm-63.6 140.5c-1.6-.4-3.1-.9-4.6-1.4 1.5.5 3 1 4.6 1.4zm-23-140.6c.8-.6 1.7-1.1 2.5-1.6-.8.6-1.6 1.1-2.5 1.6zM735 756.3c-.5-1-1-2.1-1.4-3.1.5 1 .9 2.1 1.4 3.1zm139-71.2c.5.9 1 1.8 1.4 2.7-.4-.9-.9-1.8-1.4-2.7zm-34-32.6c1.3.6 2.5 1.3 3.8 2-1.2-.7-2.5-1.4-3.8-2zm-106.8 99.6c-.6-1.4-1.1-2.8-1.6-4.2.5 1.4 1 2.8 1.6 4.2zM844 654.6c1.3.7 2.5 1.5 3.8 2.3-1.3-.8-2.6-1.6-3.8-2.3zm-78 .6c1.2-.7 2.5-1.4 3.7-2.1-1.2.7-2.5 1.4-3.7 2.1zm23.7 143.9c-.3-.1-.6-.1-.9-.2.3.1.6.2.9.2zm-58.4-52c-.4-1.2-.8-2.4-1.1-3.6.4 1.2.7 2.4 1.1 3.6zm23-83.4 3.3-2.7c-1.2.8-2.3 1.7-3.3 2.7zm25 132.5c-1.1-.4-2.2-.8-3.3-1.3 1.1.5 2.2.9 3.3 1.3zm86.8-122.9c.6.8 1.2 1.5 1.8 2.3-.5-.7-1.1-1.5-1.8-2.3zm-2.9-3.4c.7.7 1.4 1.5 2 2.3-.7-.8-1.3-1.6-2-2.3zm-98 119.6c-1-.6-2-1.2-2.9-1.8.9.6 1.9 1.2 2.9 1.8zm103.6-112.7c.7 1 1.5 2.1 2.2 3.2-.7-1.2-1.5-2.2-2.2-3.2zm2.4 3.5zM761.1 787c-1.3-.9-2.5-1.8-3.7-2.7 1.2.9 2.5 1.8 3.7 2.7zm-18.3-17.8c-.7-.9-1.3-1.8-2-2.8.7.9 1.3 1.9 2 2.8z" class="st18"/><path d="M754.3 663.7c-11.4 9.9-20 23.1-24.2 38.7-3.7 13.8-3.4 27.7 0 40.6 1.3 2.8 30.4 62.9 91 50.9 22.7-31.8 40.8-66.4 54.1-102.7-12.5-16.4-53.4-59-120.9-27.5zm20.4 130.7c-1.4-.6-2.9-1.3-4.3-2 1.5.8 2.9 1.4 4.3 2zm-4.4-2-3.9-2.1c1.2.7 2.5 1.4 3.9 2.1zM856 663c1 .9 2 1.7 3 2.6-1-.9-1.9-1.8-3-2.6zm-98.9 121c-1.1-.9-2.1-1.8-3.2-2.7 1.1.9 2.1 1.8 3.2 2.7zm102.2-118.1c1 1 2 2 3 3.1-1-1.1-2-2.1-3-3.1zm-6.7-5.7c.8.6 1.6 1.2 2.4 1.9-.8-.6-1.6-1.2-2.4-1.9zm-59.4 139.6c-.1 0-.3-.1-.4-.1.1 0 .3.1.4.1zm12.1 1h-.8.8zm16-154.7c1.5.3 3 .6 4.5 1-1.5-.4-3-.7-4.5-1zm-33.9.5 4.2-.9-4.2.9zm44.1 2.3c1 .4 2 .7 3 1.1-1-.3-2-.7-3-1.1zm-14.7-3.6c1 .2 2.1.3 3.1.5-1.1-.2-2.1-.3-3.1-.5zm9 1.8c1.5.4 2.9.8 4.4 1.3-1.5-.4-3-.9-4.4-1.3zm-28.4-2.2 3-.3c-.9.1-1.9.2-3 .3zm-4.5.6c1-.2 2-.3 3-.4-1 .1-2 .3-3 .4zm19.2-.7c1 .1 2.1.2 3.1.3-1-.1-2.1-.2-3.1-.3zm.9 155.6c-.2 0-.4 0-.7.1.2 0 .4-.1.7-.1zm-6.7-155.9c1.5 0 2.9.1 4.4.2-1.5-.1-3-.2-4.4-.2zm-4.4.1c1.5-.1 2.9-.1 4.4-.1-1.5 0-3 0-4.4.1zm7 156.1h-.8.8zm-34-149.9c.9-.4 1.8-.8 2.8-1.1-1 .3-1.9.7-2.8 1.1zm-34.8 114.6c-.8-1.3-1.6-2.5-2.4-3.8.8 1.2 1.6 2.5 2.4 3.8zm29.7-112.3c1.3-.7 2.5-1.3 3.8-1.8-1.3.6-2.6 1.2-3.8 1.8zm27.8 147.3c-.3 0-.6-.1-.9-.1.3 0 .6 0 .9.1zm-60.2-39.5zm45.8-113.1c1.4-.4 2.7-.8 4.1-1.1-1.4.3-2.8.6-4.1 1.1z" class="st18"/><path d="M749.5 777.1c-1.1-1.1-2.1-2.2-3.1-3.3 1.1 1.1 2.1 2.2 3.1 3.3zm-3.4-3.7c-.9-1-1.7-2-2.5-3.1.8 1 1.6 2 2.5 3.1zm55 27.3h-.7c.3-.1.5-.1.7 0zM779 649.1c.9-.3 1.9-.7 2.8-1-.9.4-1.8.7-2.8 1z" class="st18"/><path d="M865.2 672.2c.3.4.6.8 1 1.2-.4-.5-.7-.9-1-1.2zm-77.9-25.6zm71.7 19c.1.1.2.2.3.2-.1 0-.2-.1-.3-.2zm-67.4-19.9c.4-.1.9-.1 1.3-.2-.4.1-.9.2-1.3.2zm47.2 6.2c.4.2.9.4 1.3.6-.5-.2-.9-.4-1.3-.6zm32.2 28c.1.1.2.2.3.4-.2-.1-.3-.3-.3-.4zm-40.8-31.4c.5.1.9.3 1.3.5-.5-.2-.9-.4-1.3-.5zm37.8 27.2c.3.4.6.7.8 1.1-.3-.4-.6-.8-.8-1.1zm-16.6-16.4 1.2.9-1.2-.9zm-3.7-2.5c.4.2.8.5 1.1.8-.3-.3-.7-.5-1.1-.8zm-3.9-2.3c.1 0 .1.1.2.1-.1-.1-.1-.1-.2-.1zm-66.2-4.8c.5-.2.9-.4 1.4-.5-.4.1-.9.3-1.4.5zm42.3-3.9c.5.1.9.2 1.4.3-.5-.1-.9-.2-1.4-.3zm35.1 16.3c.4.3.7.6 1.1.9-.4-.3-.8-.6-1.1-.9zm-39.8-17c.5.1 1 .1 1.6.2-.6-.1-1.1-.1-1.6-.2zm-41.6 6.2c.4-.2.8-.4 1.2-.5-.4.2-.8.3-1.2.5zm60.9-1.3 1.5.6c-.6-.2-1.1-.4-1.5-.6zm-52.6-1.8c.4-.1.9-.3 1.3-.4-.5.1-.9.2-1.3.4zm80.4 20.7c.3.3.6.6.9 1-.3-.3-.6-.7-.9-1zm13.8 20.1-.6-1.2.6 1.2zm-2.7-5c.2.4.4.7.6 1.1-.2-.4-.4-.8-.6-1.1zm-108.5-28.1c.4-.2.8-.5 1.1-.7-.4.3-.8.5-1.1.7zm4.8-2.7s.1 0 0 0c.1 0 0 0 0 0zm41-8.5c.5 0 .9.1 1.4.1-.5-.1-.9-.1-1.4-.1zm-53.1 16.2c.4-.3.7-.5 1.1-.8-.4.3-.8.6-1.1.8zm42.9-16.2c.5 0 .9-.1 1.4-.1-.5 0-1 0-1.4.1zm-39.4 13.7c.4-.3.8-.6 1.2-.8-.4.2-.8.5-1.2.8zm34.8-13.3c.5-.1 1-.1 1.5-.2-.5.1-1 .1-1.5.2z" class="st19"/><path d="M874 685.1c-.2-.4-.4-.7-.6-1.1-.7-1.2-1.4-2.5-2.2-3.7-.1-.1-.2-.3-.3-.4-.7-1.1-1.4-2.1-2.2-3.2-.3-.4-.6-.7-.8-1.1-.6-.8-1.2-1.6-1.8-2.3-.3-.4-.6-.8-1-1.2-.7-.8-1.3-1.5-2-2.3-.3-.3-.6-.7-.9-1-1-1-2-2.1-3-3.1-.1-.1-.2-.2-.3-.2-1-.9-2-1.8-3-2.6-.4-.3-.7-.6-1.1-.9-.8-.6-1.6-1.3-2.4-1.9l-1.2-.9c-.8-.6-1.7-1.2-2.5-1.7-.4-.2-.7-.5-1.1-.8-1.2-.8-2.5-1.6-3.8-2.3-.1 0-.1-.1-.2-.1-1.2-.7-2.5-1.3-3.8-2-.4-.2-.8-.4-1.3-.6-.9-.4-1.9-.9-2.8-1.3l-1.5-.6c-1-.4-2-.8-3-1.1-.4-.2-.9-.3-1.3-.5-1.4-.5-2.9-.9-4.4-1.3-1.5-.4-3-.7-4.5-1-.5-.1-.9-.2-1.4-.3-1-.2-2.1-.4-3.1-.5-.5-.1-1-.1-1.6-.2-1-.1-2.1-.2-3.1-.3-.5 0-.9-.1-1.4-.1-1.5-.1-3-.2-4.4-.2-1.5 0-2.9 0-4.4.1-.5 0-.9.1-1.4.1-1 .1-2 .1-3 .3-.5.1-1 .1-1.5.2-1 .1-2 .3-3 .4-.4.1-.9.1-1.3.2-1.4.3-2.8.5-4.2.9-1.4.3-2.8.7-4.1 1.1-.4.1-.9.3-1.3.4-1 .3-1.9.6-2.8 1-.5.2-.9.3-1.4.5-.9.4-1.9.7-2.8 1.1-.4.2-.8.3-1.2.5-1.3.6-2.6 1.2-3.8 1.8-1.3.7-2.5 1.3-3.7 2.1-.4.2-.8.5-1.1.7-.9.5-1.7 1.1-2.5 1.6-.4.3-.8.6-1.2.8l-2.4 1.8c-.4.3-.7.5-1.1.8l-3.3 2.7c67.5-31.4 108.5 11.2 121 27.5.3-.7.5-1.4.8-2.2l-.6-1.2c-.7-.6-1.2-1.5-1.7-2.4z" class="st18"/><path d="M874 685.1c-.2-.4-.4-.7-.6-1.1-.7-1.2-1.4-2.5-2.2-3.7-.1-.1-.2-.3-.3-.4-.7-1.1-1.4-2.1-2.2-3.2-.3-.4-.6-.7-.8-1.1-.6-.8-1.2-1.6-1.8-2.3-.3-.4-.6-.8-1-1.2-.7-.8-1.3-1.5-2-2.3-.3-.3-.6-.7-.9-1-1-1-2-2.1-3-3.1-.1-.1-.2-.2-.3-.2-1-.9-2-1.8-3-2.6-.4-.3-.7-.6-1.1-.9-.8-.6-1.6-1.3-2.4-1.9l-1.2-.9c-.8-.6-1.7-1.2-2.5-1.7-.4-.2-.7-.5-1.1-.8-1.2-.8-2.5-1.6-3.8-2.3-.1 0-.1-.1-.2-.1-1.2-.7-2.5-1.3-3.8-2-.4-.2-.8-.4-1.3-.6-.9-.4-1.9-.9-2.8-1.3l-1.5-.6c-1-.4-2-.8-3-1.1-.4-.2-.9-.3-1.3-.5-1.4-.5-2.9-.9-4.4-1.3-1.5-.4-3-.7-4.5-1-.5-.1-.9-.2-1.4-.3-1-.2-2.1-.4-3.1-.5-.5-.1-1-.1-1.6-.2-1-.1-2.1-.2-3.1-.3-.5 0-.9-.1-1.4-.1-1.5-.1-3-.2-4.4-.2-1.5 0-2.9 0-4.4.1-.5 0-.9.1-1.4.1-1 .1-2 .1-3 .3-.5.1-1 .1-1.5.2-1 .1-2 .3-3 .4-.4.1-.9.1-1.3.2-1.4.3-2.8.5-4.2.9-1.4.3-2.8.7-4.1 1.1-.4.1-.9.3-1.3.4-1 .3-1.9.6-2.8 1-.5.2-.9.3-1.4.5-.9.4-1.9.7-2.8 1.1-.4.2-.8.3-1.2.5-1.3.6-2.6 1.2-3.8 1.8-1.3.7-2.5 1.3-3.7 2.1-.4.2-.8.5-1.1.7-.9.5-1.7 1.1-2.5 1.6-.4.3-.8.6-1.2.8l-2.4 1.8c-.4.3-.7.5-1.1.8l-3.3 2.7c67.5-31.4 108.5 11.2 121 27.5.3-.7.5-1.4.8-2.2l-.6-1.2c-.7-.6-1.2-1.5-1.7-2.4z" class="st19"/><path d="M815.8 800.1c-.9.1-1.9.2-2.8.3.9-.1 1.8-.2 2.8-.3zm-3.5.4c-1.1.1-2.2.2-3.4.2 1.2 0 2.3-.1 3.4-.2zm-78.7-47.3c-.2-.4-.3-.7-.5-1.1.2.3.4.7.5 1.1zm-2-5.4c-.1-.3-.2-.5-.2-.8 0 .3.1.6.2.8zm-1.6-4.9c.1.2.1.4.2.6 0-.2-.1-.3-.1-.5 0-.1-.1-.1-.1-.1zm23.9 38.4c-.3-.3-.7-.6-1-.9.3.3.7.6 1 .9zm-3.5-3.3-.9-.9.9.9zm-12.6-16.5-.3-.6.3.6zm5.8 8.8c-.3-.4-.6-.7-.8-1.1.3.3.5.7.8 1.1zm-2.8-3.9c-.2-.3-.5-.7-.7-1 .3.3.5.6.7 1zm16.6 17.8-.3-.3c.1.2.2.3.3.3zm-21.8-26.7-.6-1.2.6 1.2zm10.9 16.3c-.1-.1-.2-.3-.4-.5.1.2.2.4.4.5zm19.9 16.4c-.4-.2-.8-.5-1.2-.7.4.3.8.5 1.2.7zm30.3 10.1c-1.1-.1-2.3-.3-3.4-.5 1.1.2 2.2.3 3.4.5zm-7.9-1.4c-1.2-.3-2.3-.5-3.5-.8 1.2.3 2.3.6 3.5.8zm27.9 1.1zm-23.9-.3c-1-.2-2-.4-3.1-.6 1 .3 2.1.5 3.1.6zm11.7 1.1c-1.1 0-2.3-.1-3.4-.1 1.2 0 2.3.1 3.4.1zm-4-.2c-1-.1-1.9-.1-2.9-.2.9.1 1.9.1 2.9.2zm-38.3-12.9c-.4-.2-.7-.5-1.1-.7.4.2.8.4 1.1.7zm8.3 4.8c-.1 0-.1-.1-.2-.1 0 0 .1 0 .2.1zm37.6 8.2h-2.8c1 .1 1.9.1 2.8 0zm-27.4-4c-.4-.2-.9-.3-1.3-.5.4.2.8.3 1.3.5zM776 795c-.4-.2-.9-.3-1.3-.5.5.1.9.3 1.3.5z" class="st20"/><path d="M730.1 743c0 .2.1.3.1.5.3 1.2.7 2.4 1.1 3.6.1.3.2.5.2.8.5 1.4 1 2.8 1.6 4.2.2.4.3.7.5 1.1.4 1.1.9 2.1 1.4 3.1l.6 1.2c.6 1.1 1.2 2.3 1.8 3.4l.3.6c.7 1.3 1.5 2.6 2.4 3.8.2.3.5.7.7 1 .6.9 1.3 1.9 2 2.8.3.4.5.7.8 1.1.8 1 1.6 2.1 2.5 3.1.1.1.2.3.4.5 1 1.1 2 2.2 3.1 3.3l.9.9c.8.8 1.6 1.6 2.5 2.4.3.3.7.6 1 .9 1 .9 2.1 1.8 3.2 2.7l.3.3c1.2.9 2.4 1.8 3.7 2.7.4.2.7.5 1.1.7 1 .6 1.9 1.3 2.9 1.8.4.2.8.5 1.2.7 1.3.7 2.6 1.5 3.9 2.1.1 0 .1.1.2.1 1.4.7 2.8 1.3 4.3 2 .4.2.8.3 1.3.5 1.1.4 2.2.9 3.3 1.3.4.2.9.3 1.3.5 1.5.5 3.1 1 4.6 1.4 1.2.3 2.3.6 3.5.8.3.1.6.1.9.2 1 .2 2 .4 3.1.6.1 0 .3.1.4.1 1.2.2 2.3.3 3.4.5.3 0 .6.1.9.1 1 .1 1.9.2 2.9.2h.7c1.1.1 2.3.1 3.4.1h4.4c1.1 0 2.2-.1 3.4-.2.2 0 .4 0 .7-.1.9-.1 1.9-.2 2.8-.3.3 0 .6-.1.9-.1h.1c1.5-2 3-4.1 4.4-6.1-60.7 12-89.8-48.1-91.1-50.9z" class="st18"/><path d="M730.1 743c0 .2.1.3.1.5.3 1.2.7 2.4 1.1 3.6.1.3.2.5.2.8.5 1.4 1 2.8 1.6 4.2.2.4.3.7.5 1.1.4 1.1.9 2.1 1.4 3.1l.6 1.2c.6 1.1 1.2 2.3 1.8 3.4l.3.6c.7 1.3 1.5 2.6 2.4 3.8.2.3.5.7.7 1 .6.9 1.3 1.9 2 2.8.3.4.5.7.8 1.1.8 1 1.6 2.1 2.5 3.1.1.1.2.3.4.5 1 1.1 2 2.2 3.1 3.3l.9.9c.8.8 1.6 1.6 2.5 2.4.3.3.7.6 1 .9 1 .9 2.1 1.8 3.2 2.7l.3.3c1.2.9 2.4 1.8 3.7 2.7.4.2.7.5 1.1.7 1 .6 1.9 1.3 2.9 1.8.4.2.8.5 1.2.7 1.3.7 2.6 1.5 3.9 2.1.1 0 .1.1.2.1 1.4.7 2.8 1.3 4.3 2 .4.2.8.3 1.3.5 1.1.4 2.2.9 3.3 1.3.4.2.9.3 1.3.5 1.5.5 3.1 1 4.6 1.4 1.2.3 2.3.6 3.5.8.3.1.6.1.9.2 1 .2 2 .4 3.1.6.1 0 .3.1.4.1 1.2.2 2.3.3 3.4.5.3 0 .6.1.9.1 1 .1 1.9.2 2.9.2h.7c1.1.1 2.3.1 3.4.1h4.4c1.1 0 2.2-.1 3.4-.2.2 0 .4 0 .7-.1.9-.1 1.9-.2 2.8-.3.3 0 .6-.1.9-.1h.1c1.5-2 3-4.1 4.4-6.1-60.7 12-89.8-48.1-91.1-50.9z" class="st20"/><path fill="#2f4d69" d="M889.1 325.3c0-30.7-32.8-55.9-72.8-55.9H117.1c-40.1 0-72.8 25.1-72.8 55.9s32.8 55.9 72.8 55.9h699.2c40 0 72.8-25.2 72.8-55.9z" opacity=".6"/><path d="M917.5 314c0-33.2-35.1-60.4-78-60.4h-739c-42.9 0-78 27.2-78 60.4s35.1 60.4 78 60.4h739.1c42.8 0 77.9-27.2 77.9-60.4z" class="st16"/><path fill="none" stroke="#e4edf7" stroke-linecap="round" stroke-miterlimit="10" stroke-width="13.463" d="M106.5 280h466.2" opacity=".1"/><path fill="none" stroke="#e4edf7" stroke-linecap="round" stroke-miterlimit="10" stroke-width="12.042" d="M606.3 280H640" opacity=".15"/><path fill="none" stroke="#e4edf7" stroke-linecap="round" stroke-miterlimit="10" stroke-width="13.463" d="M674.5 280h146.1" opacity=".2"/><path fill="#fdb0ae" fill-rule="evenodd" d="M331.4 557.3c0-76.5 62.1-138.6 138.6-138.6s138.6 62.1 138.6 138.6S546.5 695.9 470 695.9s-138.6-62-138.6-138.6z" clip-rule="evenodd"/><path fill="#d59361" fill-rule="evenodd" stroke="#472d1d" stroke-width="10.765" d="M470 476.6c17.2 0 32.8 2.1 44.2 5.7 6.3 1.9 11.3 4.3 15 6.8 4.9 3.4 7.2 7.5 7.4 11.3v113.1c0 4-2 8-6.7 11.7-3.5 2.7-8.6 5-15 7.1-11.5 3.6-27.4 5.9-45 5.9-17.2 0-32.8-2.1-44.2-5.7-6.3-1.9-11.3-4.3-15-6.8-4.9-3.4-7.2-7.5-7.4-11.3V501c.3-4 2.6-8 7.3-11.6 3.5-2.7 8.7-5 14.9-7.1 11.5-3.5 27.3-5.7 44.5-5.7z" clip-rule="evenodd"/><ellipse cx="470" cy="501.2" fill="#ffc69b" fill-rule="evenodd" clip-rule="evenodd" rx="61.2" ry="19.2"/><ellipse cx="452.4" cy="550.5" class="st30" rx="5.5" ry="10.9"/><ellipse cx="487.8" cy="550.5" class="st30" rx="5.5" ry="10.9"/><ellipse cx="438.8" cy="577.8" class="st31" rx="8.1" ry="8.2"/><ellipse cx="501.4" cy="577.8" class="st31" rx="8.1" ry="8.2"/></svg>