<?xml version="1.0" encoding="utf-8"?>
<!-- Generator: Adobe Illustrator 24.0.2, SVG Export Plug-In . SVG Version: 6.00 Build 0)  -->
<svg version="1.1" id="Layer_1" xmlns="http://www.w3.org/2000/svg" xmlns:xlink="http://www.w3.org/1999/xlink" x="0px" y="0px"
	 viewBox="0 0 952 1080" style="enable-background:new 0 0 952 1080;" xml:space="preserve">
<style type="text/css">
	.st0{fill:#FFFFFF;stroke:#FFFFFF;stroke-width:46.3412;stroke-miterlimit:10;}
	
		.st1{opacity:0.35;fill:none;stroke:#E6AD22;stroke-width:18.5365;stroke-linecap:round;stroke-miterlimit:10;enable-background:new    ;}
	.st2{fill:#FFFFFF;stroke:#FFFFFF;stroke-width:33.9836;stroke-miterlimit:10;}
	.st3{fill:none;}
	.st4{fill:#FFF4CA;}
	.st5{fill:#FFFFFF;}
	.st6{fill:none;stroke:#FFFFFF;stroke-width:33.9836;stroke-miterlimit:10;}
	.st7{fill:#6F619A;stroke:#FFFFFF;stroke-width:18.5365;stroke-miterlimit:10;}
	.st8{fill:#E6AD22;stroke:#E6AD22;stroke-width:12.3576;stroke-miterlimit:10;}
	.st9{fill:#F0C618;}
	.st10{opacity:0.45;}
	.st11{fill:#E6AD22;}
	.st12{fill:#F8F9E7;}
	.st13{opacity:0.8;fill:#F8F9E7;enable-background:new    ;}
	.st14{opacity:0.95;fill:#F8F9E7;enable-background:new    ;}
	.st15{opacity:0.2;}
	.st16{opacity:0.35;stroke:#000000;stroke-width:11.5398;stroke-linecap:round;stroke-miterlimit:10;enable-background:new    ;}
	.st17{stroke:#000000;stroke-width:5.095;stroke-miterlimit:10;}
	.st18{stroke:#000000;stroke-miterlimit:10;}
	.st19{opacity:0.3;stroke:#000000;stroke-miterlimit:10;enable-background:new    ;}
	.st20{stroke:#000000;stroke-width:10.6772;stroke-linecap:round;stroke-miterlimit:10;}
	.st21{opacity:0.1;stroke:#000000;stroke-miterlimit:10;enable-background:new    ;}
	
		.st22{opacity:0.35;fill:none;stroke:#E5AC23;stroke-width:11.5398;stroke-linecap:round;stroke-miterlimit:10;enable-background:new    ;}
	.st23{fill:#6E6199;stroke:#FFFFFF;stroke-width:5.095;stroke-miterlimit:10;}
	.st24{fill:#948FC4;}
	.st25{opacity:0.3;fill:#635EA8;enable-background:new    ;}
	.st26{fill:none;stroke:#5F6062;stroke-width:10.6772;stroke-linecap:round;stroke-miterlimit:10;}
	.st27{fill:#9590C5;}
	.st28{fill:#635DA8;}
	.st29{fill:#E7E5EA;}
	.st30{opacity:0.1;fill:#635DA8;enable-background:new    ;}
	
		.st31{opacity:0.35;fill:none;stroke:#E6AD22;stroke-width:10.813;stroke-linecap:round;stroke-miterlimit:10;enable-background:new    ;}
	.st32{fill:#4D9BA5;}
	.st33{opacity:0.12;fill:#193437;enable-background:new    ;}
	.st34{fill:#2F5A61;}
	.st35{opacity:0.6;fill:#193437;enable-background:new    ;}
	.st36{opacity:0.25;fill:#BAB1CB;enable-background:new    ;}
	
		.st37{opacity:0.12;fill:none;stroke:#E4EDF8;stroke-width:12.7308;stroke-linecap:round;stroke-miterlimit:10;enable-background:new    ;}
	.st38{fill:#6F619A;stroke:#FFFFFF;stroke-width:4.7741;stroke-miterlimit:10;}
	
		.st39{opacity:0.15;fill:none;stroke:#E4EDF8;stroke-width:11.3868;stroke-linecap:round;stroke-miterlimit:10;enable-background:new    ;}
	
		.st40{opacity:0.14;fill:none;stroke:#E3EBF5;stroke-width:12.7308;stroke-linecap:round;stroke-miterlimit:10;enable-background:new    ;}
	.st41{fill:#F9E2AC;}
	.st42{fill:#F2B929;}
	.st43{opacity:0.15;}
</style>
<g>
	<g>
		<path class="st0" d="M620.4,165.5c-57,0-108.1,25.5-142.4,65.8c-21-25.1-52.5-41.1-87.7-41.1c-63.1,0-114.4,51.1-114.4,114.4
			c0,1,0.1,2.1,0.1,3.1c-6-1-12.3-1.5-18.6-1.5c-62.3,0-112.9,50.5-112.9,112.9c0,0,225.5,3.1,225.4,3.1h76.7
			c27.6,68.8,94.8,117.5,173.5,117.5c103.2,0,187-83.6,187-187S723.7,165.5,620.4,165.5z"/>
	</g>
	<g>
		<path class="st1" d="M445.8,357.8"/>
		<path class="st2" d="M849.9,491.3c86.6,197.6,4,430.7-191.3,528.4C457,1120.6,211.9,1039,111.1,837.4
			C54.9,725,55.4,599.1,101.8,492.1"/>
		<path class="st3" d="M500.6,244.7"/>
		<path class="st4" d="M500.8,244.7"/>
		<path class="st4" d="M512.5,226.3"/>
		<g>
			<path class="st5" d="M899.2,438.4c0-31.4-33.2-57.1-73.7-57.1H126.6c-40.5,0-73.7,25.7-73.7,57.1s33.2,57.1,73.7,57.1h698.8
				C865.9,495.5,899.2,469.8,899.2,438.4z"/>
			<path class="st6" d="M899.2,438.4c0-31.4-33.2-57.1-73.7-57.1H126.6c-40.5,0-73.7,25.7-73.7,57.1s33.2,57.1,73.7,57.1h698.8
				C865.9,495.5,899.2,469.8,899.2,438.4z"/>
		</g>
		<path class="st7" d="M560.6,396.2"/>
	</g>
</g>
<g>
	<path class="st8" d="M620.4,165.5c-57,0-108.1,25.5-142.4,65.8c-21-25.1-52.5-41.1-87.7-41.1c-63.1,0-114.4,51.1-114.4,114.4
		c0,1,0.1,2.1,0.1,3.1c-6-1-12.3-1.5-18.6-1.5c-62.3,0-112.9,50.5-112.9,112.9c0,0,225.5,3.1,225.4,3.1h76.7
		c27.6,68.8,94.8,117.5,173.5,117.5c103.2,0,187-83.6,187-187S723.7,165.5,620.4,165.5z"/>
	<g>
		<path class="st9" d="M620.4,165.5c-57,0-108.1,25.5-142.4,65.8c-21-25.1-52.5-41.1-87.7-41.1c-63.1,0-114.4,51.1-114.4,114.4
			c0,1,0.1,2.1,0.1,3.1c-6-1-12.3-1.5-18.6-1.5c-62.3,0-112.9,50.5-112.9,112.9c0,0,225.5,3.1,225.4,3.1h76.7
			c27.6,68.8,94.8,117.5,173.5,117.5c103.2,0,187-83.6,187-187S723.7,165.5,620.4,165.5z"/>
		<g class="st10">
			<path class="st11" d="M498.1,242c5-6,10.4-11.7,16.3-16.9c0.8-0.7,1.4-1.3,2.2-2l2.3-1.9c1.5-1.2,3-2.6,4.6-3.7l4.7-3.5
				c1.6-1.1,3.3-2.2,4.9-3.3c0.9-0.6,1.6-1.1,2.5-1.6l2.6-1.5c1.7-0.9,3.4-2,5.2-2.9c3.5-1.8,7-3.7,10.7-5.3
				c7.2-3.4,14.7-6,22.5-8.1l5.8-1.5c2-0.5,3.9-0.9,5.9-1.2l2.9-0.6c0.9-0.2,2-0.3,2.9-0.5l6-0.9l6-0.6l3-0.3l3-0.1l6-0.2l6,0.1
				c2,0,4,0.1,6,0.3c2,0.2,4,0.2,6,0.5l6,0.7l6,0.9c2,0.3,4,0.8,6,1.1c2,0.3,4,0.8,5.9,1.3c2,0.5,3.9,0.9,5.9,1.5l5.8,1.8
				c7.7,2.6,15.1,5.6,22.3,9.2c7.2,3.7,14.1,7.8,20.7,12.4s12.8,9.7,18.6,15.2c1.4,1.4,2.9,2.7,4.3,4.2l4.2,4.3c1.3,1.5,2.6,3,4,4.5
				c1.3,1.5,2.6,3.1,3.8,4.6c4.9,6.2,9.5,12.9,13.2,19.8c3.9,6.9,7.4,14.1,10.1,21.5c0.4,0.9,0.7,1.9,1,2.8l0.9,2.8l0.9,2.8l0.9,2.8
				c0.6,1.9,1.1,3.8,1.6,5.7l1.3,5.8c0.4,1.9,0.8,3.9,1,5.8c0.4,1.9,0.7,3.9,0.9,5.9c0.6,3.9,0.8,7.8,1,11.7
				c-0.9-3.8-1.6-7.7-2.6-11.3c-0.9-3.8-2.1-7.5-3.2-11.2c-2.5-7.3-5.3-14.5-8.7-21.4l-2.6-5.1l-2.7-5c-0.9-1.7-1.9-3.3-2.9-4.9
				l-1.5-2.5c-0.5-0.9-1-1.6-1.6-2.4c-1-1.6-2.1-3.2-3.2-4.7l-3.4-4.6c-2.4-3-4.6-6-7.2-8.8c-19.8-22.9-45.7-40.3-74.5-49.6
				c-7.1-2.5-14.5-4.2-21.8-5.6c-7.4-1.5-14.9-2.2-22.4-2.6l-5.7-0.2l-5.7,0.1h-2.8l-2.8,0.2l-5.7,0.4l-5.7,0.7
				c-0.9,0.1-1.9,0.2-2.8,0.3l-2.8,0.5c-1.9,0.3-3.8,0.6-5.6,0.9l-5.6,1.2C548.9,206,521,220.9,498.1,242z"/>
		</g>
		<g class="st10">
			<path class="st11" d="M313.6,258c4.3-9.6,10.8-18.6,18.7-26c7.8-7.6,17.4-13.4,27.6-17.5c5.2-1.9,10.5-3.7,16-4.5l2.1-0.4
				c0.7-0.1,1.4-0.2,2.1-0.3l4.2-0.5c1.4-0.1,2.7-0.2,4.2-0.3c1.4-0.1,2.7-0.2,4.2-0.1c11.2-0.1,22.3,2.1,32.8,6
				c21,7.9,38.5,24.1,48.4,43.9c4.9,9.9,7.8,20.7,8.8,31.6c0.9,10.9-0.3,21.7-3.7,31.9c1-10.6,0.7-21.1-1.6-31.1
				c-2.2-10-5.9-19.6-11-28.3c-10.3-17.3-26.3-30.8-44.8-37.9c-4.6-1.8-9.4-3.2-14.3-4.2c-1.2-0.2-2.5-0.5-3.7-0.7l-3.7-0.5
				l-3.7-0.4c-1.2-0.1-2.5-0.1-3.7-0.2c-9.9-0.4-19.9,1-29.6,4C343.4,228.4,326.1,240.9,313.6,258z"/>
		</g>
		<g class="st10">
			<path class="st11" d="M225.9,328.4c3.7-2.5,7.8-4.2,11.9-5.6c4.3-1.3,8.6-2.2,13.1-2.5c8.9-0.6,18.1,0.6,26.7,3.7
				c4.3,1.5,8.3,3.6,12.2,5.9l2.8,1.9c0.5,0.3,0.9,0.7,1.4,0.9l1.3,1l2.6,2.1l2.5,2.3c0.4,0.4,0.9,0.8,1.2,1.1l1.1,1.2
				c0.8,0.9,1.5,1.6,2.3,2.5c0.7,0.9,1.3,1.8,2,2.6l0.9,1.3l0.9,1.4l1.7,2.8c0.5,0.9,1,2,1.5,2.9l0.8,1.5l0.6,1.5
				c0.4,1,0.8,2.1,1.1,3.1c-0.9-0.8-1.6-1.4-2.5-2.2l-1.1-1.1l-1.2-1c-0.9-0.7-1.6-1.4-2.4-2.1l-2.5-2l-1.1-1l-1.2-0.9l-2.5-1.9
				c-1.7-1.1-3.3-2.4-5-3.4c-3.3-2.3-6.8-4.2-10.3-6c-0.9-0.4-1.8-0.9-2.6-1.2l-1.3-0.7l-1.3-0.6l-2.7-1.1l-2.7-1
				c-7.4-2.7-15.1-4.4-23.1-5.4C242.8,327.9,234.6,328,225.9,328.4z"/>
		</g>
		<g>
			<polygon class="st12" points="540.9,261.5 529.9,267.6 523.9,278.5 517.9,267.6 506.9,261.5 517.9,255.6 523.9,244.6 
				529.9,255.6 			"/>
			<polygon class="st13" points="369.4,323.4 358.5,329.6 352.5,340.5 346.5,329.6 335.5,323.4 346.5,317.4 352.5,306.4 
				358.5,317.4 			"/>
			<polygon class="st14" points="748,342.1 736.9,348.1 731,359.1 724.9,348.1 713.9,342.1 724.9,336.1 731,324.9 736.9,336.1 			
				"/>
		</g>
	</g>
	<g>
		<g class="st15">
			<path class="st16" d="M286,376"/>
			<path class="st17" d="M182.2,452.9"/>
			<g>
				<path class="st18" d="M104.5,311.7c0.9,3.5,5.1,26.4-33.5,28.5c-2.8,0.2-5.4-1.6-6.3-4.3L9.1,158.6c-1-3.1,0.6-6.3,3.5-7.6
					l19.3-8.2c3.2-1.4,6.9,0.2,8.2,3.5L104.2,311C104.3,311.2,104.4,311.5,104.5,311.7z"/>
				<path class="st19" d="M104.5,311.7c0.9,3.5,5.1,26.4-33.5,28.5c-2.8,0.2-5.4-1.6-6.3-4.3L9.1,158.6c-1-3.1,0.6-6.3,3.5-7.6
					l19.3-8.2c3.2-1.4,6.9,0.2,8.2,3.5L104.2,311C104.3,311.2,104.4,311.5,104.5,311.7z"/>
				<path class="st18" d="M90.4,326.5c22-31.8,78-55.5,168.2-59.7c90.1-4.2,115.6-60.3,115.6-60.3L313.7,15.9
					c0,0-25.5,56.1-115.6,60.3c-77.6,3.6-129.9,21.7-157,46.9c-7.2,6.7-9.8,17-6.8,26.3L90.4,326.5z"/>
				<path class="st19" d="M142,274.9c29.4-14.3,61.6-20.6,92.8-29.3c26.3-7.3,58.1-16.6,72.4-42.1c6.7-12,9.8-26.5,12.2-39.9
					c2.7-15.6,3.2-31.5,2.6-47.3c-1.3-32.4,1.1-66.4-8.4-97.7c-0.2-0.5-0.3-1-0.6-1.3c0.4-0.8,0.7-1.3,0.7-1.3l60.6,190.7
					c0,0-25.5,56.1-115.6,60.3c-90.1,4.2-146.2,27.9-168.2,59.7l-1.8-5.8C101,300.6,120.5,285.4,142,274.9z"/>
			</g>
			<line class="st20" x1="315" y1="8" x2="529.4" y2="668.1"/>
			<g>
				<path class="st18" d="M175.6,209.9c-0.9,0-1.8-0.1-2.6-0.1l0,0C173.8,209.9,174.7,209.9,175.6,209.9z"/>
				<path class="st18" d="M228.8,191.7L228.8,191.7c-0.4,0.3-1,0.8-2,1.6C227.6,192.6,228.3,192.1,228.8,191.7z"/>
				<path class="st18" d="M129.7,189c6.1,18.7,19.9,32.6,36.7,39.5c0.2-7.8,3.5-16,5.5-20.3c-0.5-1.4-1.1-3.9-1-7.2
					c1.1,1.9,5.7,1.9,9.4,1.6c5.5-0.5,12.5-2.1,19.7-4.4c7.2-2.3,13.8-5.2,18.5-8c3.2-1.9,6.9-4.6,6.7-6.8c2,2.6,3,4.9,3.4,6.4
					c4.2,2.3,11.7,7,16.4,13.1c9.6-15.5,12.6-34.9,6.5-53.6c-10.9-33.6-47.1-52.1-80.7-41.1S118.7,155.4,129.7,189z M137.4,173.9
					c-2.2-6.7,1.4-14,8.1-16.3c1.2-16,12.5-30.7,29.5-36.2s34.8-0.3,45.2,11.9c6.8-2.1,14,1.6,16.1,8.4c2.1,6.5-1.1,13.4-7.3,16
					c-0.1,8.6-3.1,17.1-8.5,24c2.3,0.2,3.7,0.7,3.9,1.6c0.9,2.8-8.8,9.2-24.7,14.4c-15.9,5.2-27.6,5.7-28.5,2.9
					c-0.3-0.9,0.5-2.1,2.2-3.6c-8.4-2.5-15.8-7.5-20.9-14.4C146.2,184,139.5,180.4,137.4,173.9z"/>
				<path class="st18" d="M227.3,145.9c1.3,3.9,1.9,7.8,1.8,11.8c6.1-2.6,9.4-9.5,7.3-16c-2.2-6.7-9.4-10.5-16.1-8.4
					C223.3,137,225.7,141.2,227.3,145.9z M229.5,147.5c-0.4-1.2,0.3-2.6,1.5-3c1.2-0.4,2.6,0.3,3,1.5c0.4,1.2-0.3,2.6-1.5,3
					C231.3,149.5,229.9,148.8,229.5,147.5z M227.4,141.1c-0.4-1.2,0.3-2.6,1.5-3s2.6,0.3,3,1.5c0.4,1.2-0.3,2.6-1.5,3
					C229.2,143,227.8,142.3,227.4,141.1z"/>
				<ellipse class="st18" cx="229.7" cy="140.3" rx="2.4" ry="2.4"/>
				<ellipse class="st18" cx="231.8" cy="146.8" rx="2.4" ry="2.4"/>
				<path class="st18" d="M234.9,199.2c1.7,2.9,3.6,6.5,5.4,10.4c0.8-0.9,1.5-1.9,2.2-2.9c-0.1-0.2-0.3-0.4-0.4-0.6
					C240.3,203.4,237.7,201.1,234.9,199.2z"/>
				<path class="st18" d="M171.9,208.3c-2,4.3-5.3,12.5-5.5,20.3c1.4,0.6,2.8,1.1,4.2,1.5c0-0.3,0-0.5,0-0.8
					c-0.1-3.3,0.6-6.6,1.8-9.8c0.3,3.4,0.9,7.4,1.8,11.6c0,0,0,0,0.1,0c2.2-5,4.6-12.7,3.7-21.2c-0.8,0-1.5,0-2.3,0
					c-0.9,0-1.8,0-2.6-0.1l0,0c-0.1,0-0.2,0-0.3,0C172.6,209.8,172.3,209.3,171.9,208.3z"/>
				<path class="st18" d="M170.6,229.4c0,0.3,0,0.5,0,0.8c1.2,0.4,2.3,0.7,3.5,1c-0.9-4.3-1.4-8.3-1.8-11.6
					C171.2,222.7,170.5,226.1,170.6,229.4z"/>
				<path class="st18" d="M199.4,196.5c-8.8,2.9-17.8,2.8-25.8,0.5c-1.7,1.5-2.5,2.7-2.2,3.6c0.9,2.8,12.6,2.3,28.5-2.9
					c15.9-5.2,25.6-11.6,24.7-14.4c-0.3-0.9-1.7-1.4-3.9-1.6C215.5,188.3,208.2,193.6,199.4,196.5z"/>
				<path class="st18" d="M237.5,207.9c1,0.7,1.9,1.2,2.8,1.8c0,0,0,0,0-0.1c-1.8-4-3.7-7.5-5.4-10.4c2.8,1.9,5.3,4.3,7.2,6.9
					c0.1,0.2,0.3,0.4,0.4,0.6c0.9-1.2,1.7-2.5,2.5-3.7c-4.7-6.2-12.2-10.9-16.4-13.1c0.3,1,0.4,1.6,0.4,1.6s-0.1,0.1-0.3,0.2l0,0
					c-0.5,0.4-1.1,0.9-2,1.6c-0.6,0.4-1.2,0.9-1.9,1.4C228.4,201,233.6,205.3,237.5,207.9z"/>
				<path class="st18" d="M184.2,209.6c0.9,9.1-1.4,17.2-3.7,22.9c9.7,1.6,20,0.9,30-2.3c10-3.3,18.7-8.7,25.6-15.7
					c-5.2-3.2-11.8-8.4-16.5-16.3C211.7,202.8,199.5,208.3,184.2,209.6z"/>
				<path class="st18" d="M177.9,209.9c0.9,8.5-1.5,16.3-3.7,21.2c2.1,0.5,4.1,1,6.3,1.3c2.3-5.6,4.6-13.8,3.7-22.9
					c15.4-1.3,27.5-6.8,35.4-11.5c4.6,7.8,11.3,13.1,16.5,16.3c1.5-1.5,2.9-3.1,4.3-4.8c-0.9-0.5-1.8-1.1-2.8-1.8
					c-3.9-2.6-9.1-7-12.7-13.2c0.7-0.5,1.4-1,1.9-1.4c1-0.8,1.7-1.3,2-1.6c0.2-0.1,0.3-0.2,0.3-0.2s-0.1-0.6-0.4-1.6
					c-0.4-1.5-1.4-3.8-3.4-6.4c0.2,2.2-3.5,4.9-6.7,6.8c-4.7,2.8-11.3,5.6-18.5,8c-7.2,2.3-14.2,3.9-19.7,4.4
					c-3.8,0.4-8.3,0.3-9.4-1.6c-0.1,3.3,0.5,5.7,1,7.2c0.3,1,0.6,1.5,0.6,1.5c0.1,0,0.2,0,0.3,0c0.9,0.1,1.8,0.1,2.6,0.1
					C176.3,209.9,177.1,209.9,177.9,209.9z"/>
				<path class="st18" d="M137.4,173.9c2.1,6.5,8.8,10.1,15.3,8.6c-2.3-3.1-4.2-6.7-5.4-10.6c-1.5-4.7-2.1-9.6-1.7-14.3
					C138.8,159.9,135.2,167.2,137.4,173.9z M144.2,168.1c0.4,1.2-0.3,2.6-1.5,3c-1.2,0.4-2.6-0.3-3-1.5c-0.4-1.2,0.3-2.6,1.5-3
					S143.8,166.8,144.2,168.1z M141.8,176.1c-0.4-1.2,0.3-2.6,1.5-3c1.2-0.4,2.6,0.3,3,1.5c0.4,1.2-0.3,2.6-1.5,3
					C143.5,178,142.2,177.3,141.8,176.1z"/>
				<ellipse class="st18" cx="144.1" cy="175.3" rx="2.4" ry="2.4"/>
				<ellipse class="st18" cx="141.9" cy="168.8" rx="2.4" ry="2.4"/>
				<path class="st18" d="M147.2,172c1.3,3.9,3.1,7.4,5.4,10.6c5.1,7,12.5,12,20.9,14.4c8.1,2.4,17.1,2.4,25.8-0.5
					c8.8-2.9,16-8.2,21.2-14.8c5.4-6.9,8.4-15.3,8.5-24c0-3.9-0.6-7.9-1.8-11.8c-1.5-4.7-4-9-7-12.6c-10.3-12.2-28.1-17.5-45.2-11.9
					s-28.3,20.3-29.5,36.2C145.2,162.4,145.7,167.2,147.2,172z M152.7,168.7c-5.2-16,5.9-33.9,24.8-40s38.4,1.8,43.5,17.8
					s2.1,31.3-24.8,40S157.8,184.7,152.7,168.7z"/>
				<path class="st18" d="M152.7,168.7c5.2,16,16.7,26.6,43.5,17.8s29.9-24,24.8-40l0,0l0,0c-4.7-14.5-21.2-22.4-38.2-19.2
					c-0.9,0.2-1.8,0.4-2.7,0.6c-0.6,0.2-1.2,0.3-1.8,0.5c-0.3,0.1-0.6,0.2-0.9,0.3s-0.6,0.2-0.9,0.3c-0.6,0.2-1.2,0.4-1.7,0.6
					c-0.6,0.2-1.1,0.5-1.7,0.7c-0.5,0.2-1,0.5-1.5,0.7c-0.3,0.1-0.6,0.3-0.9,0.5c-0.3,0.1-0.5,0.3-0.8,0.4c-0.3,0.2-0.6,0.3-0.9,0.5
					c-0.7,0.4-1.3,0.8-1.9,1.2c-0.3,0.2-0.6,0.4-0.9,0.6c-11.5,8.1-17.4,21.4-13.8,33.7C152.5,168.2,152.6,168.4,152.7,168.7z"/>
				<path class="st21" d="M234.9,199.2c1.7,2.9,3.6,6.5,5.4,10.4c0.8-0.9,1.5-1.9,2.2-2.9c-0.1-0.2-0.3-0.4-0.4-0.6
					C240.3,203.4,237.7,201.1,234.9,199.2z"/>
				<path class="st21" d="M170.6,229.4c0,0.3,0,0.5,0,0.8c1.2,0.4,2.3,0.7,3.5,1c-0.9-4.3-1.4-8.3-1.8-11.6
					C171.2,222.7,170.5,226.1,170.6,229.4z"/>
			</g>
		</g>
		<g class="st15">
			<path class="st16" d="M666,376"/>
			<path class="st17" d="M769.8,452.9"/>
			<g>
				<path class="st18" d="M847.5,311.7c-0.9,3.5-5.1,26.4,33.5,28.5c2.8,0.2,5.4-1.6,6.3-4.3l55.6-177.3c1-3.1-0.6-6.3-3.5-7.6
					l-19.3-8.2c-3.2-1.4-6.9,0.2-8.2,3.5L847.8,311C847.7,311.2,847.6,311.5,847.5,311.7z"/>
				<path class="st19" d="M847.5,311.7c-0.9,3.5-5.1,26.4,33.5,28.5c2.8,0.2,5.4-1.6,6.3-4.3l55.6-177.3c1-3.1-0.6-6.3-3.5-7.6
					l-19.3-8.2c-3.2-1.4-6.9,0.2-8.2,3.5L847.8,311C847.7,311.2,847.6,311.5,847.5,311.7z"/>
				<path class="st18" d="M861.6,326.5c-22-31.8-78-55.5-168.2-59.7c-90.1-4.2-115.6-60.3-115.6-60.3l60.6-190.7
					c0,0,25.5,56.1,115.6,60.3c77.6,3.6,129.9,21.7,157,46.9c7.2,6.7,9.8,17,6.8,26.3L861.6,326.5z"/>
				<path class="st19" d="M810,274.9c-29.4-14.3-61.6-20.6-92.8-29.3c-26.3-7.3-58.1-16.6-72.4-42.1c-6.7-12-9.8-26.5-12.2-39.9
					c-2.7-15.6-3.2-31.5-2.6-47.3c1.3-32.4-1.1-66.4,8.4-97.7c0.2-0.5,0.3-1,0.6-1.3c-0.4-0.8-0.7-1.3-0.7-1.3l-60.6,190.7
					c0,0,25.5,56.1,115.6,60.3c90.1,4.2,146.2,27.9,168.2,59.7l1.8-5.8C851,300.6,831.5,285.4,810,274.9z"/>
			</g>
			<line class="st20" x1="637" y1="8" x2="422.6" y2="668.1"/>
			<g>
				<path class="st18" d="M779.1,209.8L779.1,209.8c-0.9,0-1.8,0.1-2.6,0.1C777.3,209.9,778.2,209.9,779.1,209.8z"/>
				<path class="st18" d="M725.2,193.3c-1-0.8-1.7-1.3-2-1.6l0,0C723.7,192.1,724.4,192.6,725.2,193.3z"/>
				<path class="st18" d="M781.2,108.3c-33.6-10.9-69.8,7.5-80.7,41.1c-6.1,18.7-3.1,38.1,6.5,53.6c4.7-6.2,12.2-10.9,16.4-13.1
					c0.4-1.5,1.4-3.8,3.4-6.4c-0.2,2.2,3.5,4.9,6.7,6.8c4.7,2.8,11.3,5.6,18.5,8c7.2,2.3,14.2,3.9,19.7,4.4c3.8,0.4,8.3,0.3,9.4-1.6
					c0.1,3.3-0.5,5.7-1,7.2c2,4.3,5.3,12.5,5.5,20.3c16.9-6.9,30.7-20.9,36.7-39.5C833.3,155.4,814.9,119.3,781.2,108.3z
					 M799.3,182.5c-5.1,7-12.5,12-20.9,14.4c1.7,1.5,2.5,2.7,2.2,3.6c-0.9,2.8-12.6,2.3-28.5-2.9c-15.9-5.2-25.6-11.6-24.7-14.4
					c0.3-0.9,1.7-1.4,3.9-1.6c-5.4-6.9-8.4-15.3-8.5-24c-6.1-2.6-9.4-9.5-7.3-16c2.2-6.7,9.4-10.5,16.1-8.4
					c10.3-12.2,28.1-17.5,45.2-11.9s28.3,20.3,29.5,36.2c6.7,2.3,10.3,9.5,8.1,16.3C812.5,180.4,805.8,184,799.3,182.5z"/>
				<path class="st18" d="M731.8,133.3c-6.8-2.1-14,1.6-16.1,8.4c-2.1,6.5,1.1,13.4,7.3,16c0-3.9,0.6-7.9,1.8-11.8
					C726.3,141.2,728.7,137,731.8,133.3z M719.5,149.1c-1.2-0.4-1.9-1.7-1.5-3c0.4-1.2,1.7-1.9,3-1.5c1.2,0.4,1.9,1.7,1.5,3
					C722.1,148.8,720.7,149.5,719.5,149.1z M721.6,142.6c-1.2-0.4-1.9-1.7-1.5-3c0.4-1.2,1.7-1.9,3-1.5s1.9,1.7,1.5,3
					C724.2,142.3,722.8,143,721.6,142.6z"/>
				<ellipse class="st18" cx="722.3" cy="140.3" rx="2.4" ry="2.4"/>
				<ellipse class="st18" cx="720.2" cy="146.8" rx="2.4" ry="2.4"/>
				<path class="st18" d="M709.9,206.1c-0.1,0.2-0.3,0.4-0.4,0.6c0.7,1,1.4,1.9,2.2,2.9c1.8-4,3.7-7.5,5.4-10.4
					C714.3,201.1,711.7,203.4,709.9,206.1z"/>
				<path class="st18" d="M779.4,209.8c-0.1,0-0.2,0-0.3,0l0,0c-0.9,0-1.8,0.1-2.6,0.1c-0.8,0-1.6,0-2.3,0
					c-0.9,8.5,1.5,16.3,3.7,21.2c0,0,0,0,0.1,0c0.9-4.3,1.4-8.3,1.8-11.6c1.1,3.2,1.8,6.6,1.8,9.8c0,0.3,0,0.5,0,0.8
					c1.4-0.5,2.8-1,4.2-1.5c-0.2-7.8-3.5-16-5.5-20.3C779.7,209.3,779.4,209.8,779.4,209.8z"/>
				<path class="st18" d="M779.7,219.5c-0.3,3.4-0.9,7.4-1.8,11.6c1.2-0.3,2.3-0.7,3.5-1c0-0.3,0-0.5,0-0.8
					C781.5,226.1,780.8,222.7,779.7,219.5z"/>
				<path class="st18" d="M731.4,181.7c-2.3,0.2-3.7,0.7-3.9,1.6c-0.9,2.8,8.8,9.2,24.7,14.4c15.9,5.2,27.6,5.7,28.5,2.9
					c0.3-0.9-0.5-2.1-2.2-3.6c-8.1,2.4-17.1,2.4-25.8-0.5C743.8,193.6,736.5,188.3,731.4,181.7z"/>
				<path class="st18" d="M727.2,194.7c-0.7-0.5-1.4-1-1.9-1.4c-0.9-0.7-1.6-1.2-2-1.6l0,0c-0.2-0.1-0.3-0.2-0.3-0.2
					s0.1-0.6,0.4-1.6c-4.2,2.3-11.7,7-16.4,13.1c0.8,1.3,1.6,2.5,2.5,3.7c0.1-0.2,0.3-0.4,0.4-0.6c1.9-2.7,4.4-5,7.2-6.9
					c-1.7,2.9-3.6,6.5-5.4,10.4c0,0,0,0,0,0.1c0.9-0.5,1.8-1.1,2.8-1.8C718.4,205.3,723.6,201,727.2,194.7z"/>
				<path class="st18" d="M732.5,198.2c-4.6,7.8-11.3,13.1-16.5,16.3c6.9,7,15.6,12.5,25.6,15.7c10,3.3,20.3,3.9,30,2.3
					c-2.3-5.6-4.6-13.8-3.7-22.9C752.5,208.3,740.3,202.8,732.5,198.2z"/>
				<path class="st18" d="M776.4,209.9c0.9,0,1.8-0.1,2.6-0.1c0.1,0,0.2,0,0.3,0c0,0,0.3-0.5,0.6-1.5c0.5-1.4,1.1-3.9,1-7.2
					c-1.1,1.9-5.7,1.9-9.4,1.6c-5.5-0.5-12.5-2.1-19.7-4.4c-7.2-2.3-13.8-5.2-18.5-8c-3.2-1.9-6.9-4.6-6.7-6.8c-2,2.6-3,4.9-3.4,6.4
					c-0.3,1-0.4,1.6-0.4,1.6s0.1,0.1,0.3,0.2c0.3,0.3,1,0.9,2,1.6c0.6,0.4,1.2,0.9,1.9,1.4c-3.6,6.2-8.8,10.6-12.7,13.2
					c-1,0.7-1.9,1.2-2.8,1.8c1.3,1.7,2.8,3.2,4.3,4.8c5.2-3.2,11.8-8.4,16.5-16.3c7.8,4.7,20,10.1,35.4,11.5
					c-0.9,9.1,1.4,17.2,3.7,22.9c2.1-0.3,4.2-0.8,6.3-1.3c-2.2-5-4.6-12.7-3.7-21.2C774.9,209.9,775.7,209.9,776.4,209.9z"/>
				<path class="st18" d="M806.5,157.6c0.4,4.7-0.2,9.6-1.7,14.3c-1.3,3.9-3.1,7.4-5.4,10.6c6.5,1.5,13.2-2.2,15.3-8.6
					C816.8,167.2,813.2,159.9,806.5,157.6z M810.8,166.6c1.2,0.4,1.9,1.7,1.5,3c-0.4,1.2-1.7,1.9-3,1.5c-1.2-0.4-1.9-1.7-1.5-3
					C808.2,166.8,809.5,166.2,810.8,166.6z M807.2,177.6c-1.2-0.4-1.9-1.7-1.5-3c0.4-1.2,1.7-1.9,3-1.5s1.9,1.7,1.5,3
					C809.8,177.3,808.5,178,807.2,177.6z"/>
				<ellipse class="st18" cx="807.9" cy="175.3" rx="2.4" ry="2.4"/>
				<ellipse class="st18" cx="810.1" cy="168.8" rx="2.4" ry="2.4"/>
				<path class="st18" d="M806.5,157.6c-1.2-16-12.5-30.7-29.5-36.2s-34.8-0.3-45.2,11.9c-3.1,3.6-5.5,7.9-7,12.6
					c-1.3,3.9-1.9,7.8-1.8,11.8c0.1,8.6,3.1,17.1,8.5,24c5.1,6.7,12.4,12,21.2,14.8c8.8,2.9,17.8,2.8,25.8,0.5
					c8.4-2.5,15.8-7.5,20.9-14.4c2.3-3.1,4.2-6.7,5.4-10.6C806.3,167.2,806.8,162.4,806.5,157.6z M755.8,186.5
					c-26.9-8.7-29.9-24-24.8-40c5.2-16,24.7-23.9,43.5-17.8s29.9,24,24.8,40C794.2,184.7,782.7,195.2,755.8,186.5z"/>
				<path class="st18" d="M799.6,167.9c3.6-12.3-2.3-25.6-13.8-33.7c-0.3-0.2-0.6-0.4-0.9-0.6c-0.6-0.4-1.3-0.8-1.9-1.2
					c-0.3-0.2-0.6-0.4-0.9-0.5c-0.3-0.1-0.5-0.3-0.8-0.4c-0.3-0.2-0.6-0.3-0.9-0.5c-0.5-0.2-1-0.5-1.5-0.7c-0.5-0.2-1.1-0.5-1.7-0.7
					c-0.6-0.2-1.1-0.4-1.7-0.6c-0.3-0.1-0.6-0.2-0.9-0.3c-0.3-0.1-0.6-0.2-0.9-0.3c-0.6-0.2-1.2-0.3-1.8-0.5
					c-0.9-0.2-1.8-0.4-2.7-0.6c-17.1-3.2-33.5,4.7-38.2,19.2l0,0l0,0c-5.2,16-2.1,31.3,24.8,40s38.4-1.8,43.5-17.8
					C799.4,168.4,799.5,168.2,799.6,167.9z"/>
				<path class="st21" d="M709.9,206.1c-0.1,0.2-0.3,0.4-0.4,0.6c0.7,1,1.4,1.9,2.2,2.9c1.8-4,3.7-7.5,5.4-10.4
					C714.3,201.1,711.7,203.4,709.9,206.1z"/>
				<path class="st21" d="M779.7,219.5c-0.3,3.4-0.9,7.4-1.8,11.6c1.2-0.3,2.3-0.7,3.5-1c0-0.3,0-0.5,0-0.8
					C781.5,226.1,780.8,222.7,779.7,219.5z"/>
			</g>
		</g>
		<g>
			<path class="st22" d="M283,376"/>
			<path class="st23" d="M179.2,452.9"/>
			<g>
				<path class="st24" d="M101.5,311.7c0.9,3.5,5.1,26.4-33.5,28.5c-2.8,0.2-5.4-1.6-6.3-4.3L6.1,158.6c-1-3.1,0.6-6.3,3.5-7.6
					l19.3-8.2c3.2-1.4,6.9,0.2,8.2,3.5L101.2,311C101.3,311.2,101.4,311.5,101.5,311.7z"/>
				<path class="st25" d="M101.5,311.7c0.9,3.5,5.1,26.4-33.5,28.5c-2.8,0.2-5.4-1.6-6.3-4.3L6.1,158.6c-1-3.1,0.6-6.3,3.5-7.6
					l19.3-8.2c3.2-1.4,6.9,0.2,8.2,3.5L101.2,311C101.3,311.2,101.4,311.5,101.5,311.7z"/>
				<path class="st24" d="M87.4,326.5c22-31.8,78-55.5,168.2-59.7c90.1-4.2,115.6-60.3,115.6-60.3L310.7,15.9
					c0,0-25.5,56.1-115.6,60.3c-77.6,3.6-129.9,21.7-157,46.9c-7.2,6.7-9.8,17-6.8,26.3L87.4,326.5z"/>
				<path class="st25" d="M139,274.9c29.4-14.3,61.6-20.6,92.8-29.3c26.3-7.3,58.1-16.6,72.4-42.1c6.7-12,9.8-26.5,12.2-39.9
					c2.7-15.6,3.2-31.5,2.6-47.3c-1.3-32.4,1.1-66.4-8.4-97.7c-0.2-0.5-0.3-1-0.6-1.3c0.4-0.8,0.7-1.3,0.7-1.3l60.6,190.7
					c0,0-25.5,56.1-115.6,60.3c-90.1,4.2-146.2,27.9-168.2,59.7l-1.8-5.8C98,300.6,117.5,285.4,139,274.9z"/>
			</g>
			<line class="st26" x1="312" y1="8" x2="526.4" y2="668.1"/>
			<g>
				<path class="st27" d="M172.6,209.9c-0.9,0-1.8-0.1-2.6-0.1l0,0C170.8,209.9,171.7,209.9,172.6,209.9z"/>
				<path class="st27" d="M225.8,191.7L225.8,191.7c-0.4,0.3-1,0.8-2,1.6C224.6,192.6,225.3,192.1,225.8,191.7z"/>
				<path class="st27" d="M126.7,189c6.1,18.7,19.9,32.6,36.7,39.5c0.2-7.8,3.5-16,5.5-20.3c-0.5-1.4-1.1-3.9-1-7.2
					c1.1,1.9,5.7,1.9,9.4,1.6c5.5-0.5,12.5-2.1,19.7-4.4c7.2-2.3,13.8-5.2,18.5-8c3.2-1.9,6.9-4.6,6.7-6.8c2,2.6,3,4.9,3.4,6.4
					c4.2,2.3,11.7,7,16.4,13.1c9.6-15.5,12.6-34.9,6.5-53.6c-10.9-33.6-47.1-52.1-80.7-41.1S115.7,155.4,126.7,189z M134.4,173.9
					c-2.2-6.7,1.4-14,8.1-16.3c1.2-16,12.5-30.7,29.5-36.2s34.8-0.3,45.2,11.9c6.8-2.1,14,1.6,16.1,8.4c2.1,6.5-1.1,13.4-7.3,16
					c-0.1,8.6-3.1,17.1-8.5,24c2.3,0.2,3.7,0.7,3.9,1.6c0.9,2.8-8.8,9.2-24.7,14.4c-15.9,5.2-27.6,5.7-28.5,2.9
					c-0.3-0.9,0.5-2.1,2.2-3.6c-8.4-2.5-15.8-7.5-20.9-14.4C143.2,184,136.5,180.4,134.4,173.9z"/>
				<path class="st28" d="M224.3,145.9c1.3,3.9,1.9,7.8,1.8,11.8c6.1-2.6,9.4-9.5,7.3-16c-2.2-6.7-9.4-10.5-16.1-8.4
					C220.3,137,222.7,141.2,224.3,145.9z M226.5,147.5c-0.4-1.2,0.3-2.6,1.5-3c1.2-0.4,2.6,0.3,3,1.5c0.4,1.2-0.3,2.6-1.5,3
					C228.3,149.5,226.9,148.8,226.5,147.5z M224.4,141.1c-0.4-1.2,0.3-2.6,1.5-3s2.6,0.3,3,1.5c0.4,1.2-0.3,2.6-1.5,3
					C226.2,143,224.8,142.3,224.4,141.1z"/>
				<ellipse class="st29" cx="226.7" cy="140.3" rx="2.4" ry="2.4"/>
				<ellipse class="st29" cx="228.8" cy="146.8" rx="2.4" ry="2.4"/>
				<path class="st29" d="M231.9,199.2c1.7,2.9,3.6,6.5,5.4,10.4c0.8-0.9,1.5-1.9,2.2-2.9c-0.1-0.2-0.3-0.4-0.4-0.6
					C237.3,203.4,234.7,201.1,231.9,199.2z"/>
				<path class="st29" d="M168.9,208.3c-2,4.3-5.3,12.5-5.5,20.3c1.4,0.6,2.8,1.1,4.2,1.5c0-0.3,0-0.5,0-0.8
					c-0.1-3.3,0.6-6.6,1.8-9.8c0.3,3.4,0.9,7.4,1.8,11.6c0,0,0,0,0.1,0c2.2-5,4.6-12.7,3.7-21.2c-0.8,0-1.5,0-2.3,0
					c-0.9,0-1.8,0-2.6-0.1l0,0c-0.1,0-0.2,0-0.3,0C169.6,209.8,169.3,209.3,168.9,208.3z"/>
				<path class="st29" d="M167.6,229.4c0,0.3,0,0.5,0,0.8c1.2,0.4,2.3,0.7,3.5,1c-0.9-4.3-1.4-8.3-1.8-11.6
					C168.2,222.7,167.5,226.1,167.6,229.4z"/>
				<path class="st28" d="M196.4,196.5c-8.8,2.9-17.8,2.8-25.8,0.5c-1.7,1.5-2.5,2.7-2.2,3.6c0.9,2.8,12.6,2.3,28.5-2.9
					c15.9-5.2,25.6-11.6,24.7-14.4c-0.3-0.9-1.7-1.4-3.9-1.6C212.5,188.3,205.2,193.6,196.4,196.5z"/>
				<path class="st29" d="M234.5,207.9c1,0.7,1.9,1.2,2.8,1.8c0,0,0,0,0-0.1c-1.8-4-3.7-7.5-5.4-10.4c2.8,1.9,5.3,4.3,7.2,6.9
					c0.1,0.2,0.3,0.4,0.4,0.6c0.9-1.2,1.7-2.5,2.5-3.7c-4.7-6.2-12.2-10.9-16.4-13.1c0.3,1,0.4,1.6,0.4,1.6s-0.1,0.1-0.3,0.2l0,0
					c-0.5,0.4-1.1,0.9-2,1.6c-0.6,0.4-1.2,0.9-1.9,1.4C225.4,201,230.6,205.3,234.5,207.9z"/>
				<path class="st29" d="M181.2,209.6c0.9,9.1-1.4,17.2-3.7,22.9c9.7,1.6,20,0.9,30-2.3c10-3.3,18.7-8.7,25.6-15.7
					c-5.2-3.2-11.8-8.4-16.5-16.3C208.7,202.8,196.5,208.3,181.2,209.6z"/>
				<path class="st28" d="M174.9,209.9c0.9,8.5-1.5,16.3-3.7,21.2c2.1,0.5,4.1,1,6.3,1.3c2.3-5.6,4.6-13.8,3.7-22.9
					c15.4-1.3,27.5-6.8,35.4-11.5c4.6,7.8,11.3,13.1,16.5,16.3c1.5-1.5,2.9-3.1,4.3-4.8c-0.9-0.5-1.8-1.1-2.8-1.8
					c-3.9-2.6-9.1-7-12.7-13.2c0.7-0.5,1.4-1,1.9-1.4c1-0.8,1.7-1.3,2-1.6c0.2-0.1,0.3-0.2,0.3-0.2s-0.1-0.6-0.4-1.6
					c-0.4-1.5-1.4-3.8-3.4-6.4c0.2,2.2-3.5,4.9-6.7,6.8c-4.7,2.8-11.3,5.6-18.5,8c-7.2,2.3-14.2,3.9-19.7,4.4
					c-3.8,0.4-8.3,0.3-9.4-1.6c-0.1,3.3,0.5,5.7,1,7.2c0.3,1,0.6,1.5,0.6,1.5c0.1,0,0.2,0,0.3,0c0.9,0.1,1.8,0.1,2.6,0.1
					C173.3,209.9,174.1,209.9,174.9,209.9z"/>
				<path class="st28" d="M134.4,173.9c2.1,6.5,8.8,10.1,15.3,8.6c-2.3-3.1-4.2-6.7-5.4-10.6c-1.5-4.7-2.1-9.6-1.7-14.3
					C135.8,159.9,132.2,167.2,134.4,173.9z M141.2,168.1c0.4,1.2-0.3,2.6-1.5,3c-1.2,0.4-2.6-0.3-3-1.5c-0.4-1.2,0.3-2.6,1.5-3
					S140.8,166.8,141.2,168.1z M138.8,176.1c-0.4-1.2,0.3-2.6,1.5-3s2.6,0.3,3,1.5c0.4,1.2-0.3,2.6-1.5,3
					C140.5,178,139.2,177.3,138.8,176.1z"/>
				<ellipse class="st29" cx="141.1" cy="175.3" rx="2.4" ry="2.4"/>
				<ellipse class="st29" cx="138.9" cy="168.8" rx="2.4" ry="2.4"/>
				<path class="st29" d="M144.2,172c1.3,3.9,3.1,7.4,5.4,10.6c5.1,7,12.5,12,20.9,14.4c8.1,2.4,17.1,2.4,25.8-0.5
					c8.8-2.9,16-8.2,21.2-14.8c5.4-6.9,8.4-15.3,8.5-24c0-3.9-0.6-7.9-1.8-11.8c-1.5-4.7-4-9-7-12.6c-10.3-12.2-28.1-17.5-45.2-11.9
					s-28.3,20.3-29.5,36.2C142.2,162.4,142.7,167.2,144.2,172z M149.7,168.7c-5.2-16,5.9-33.9,24.8-40s38.4,1.8,43.5,17.8
					c5.2,16,2.1,31.3-24.8,40S154.8,184.7,149.7,168.7z"/>
				<path class="st28" d="M149.7,168.7c5.2,16,16.7,26.6,43.5,17.8s29.9-24,24.8-40l0,0l0,0c-4.7-14.5-21.2-22.4-38.2-19.2
					c-0.9,0.2-1.8,0.4-2.7,0.6c-0.6,0.2-1.2,0.3-1.8,0.5c-0.3,0.1-0.6,0.2-0.9,0.3s-0.6,0.2-0.9,0.3c-0.6,0.2-1.2,0.4-1.7,0.6
					c-0.6,0.2-1.1,0.5-1.7,0.7c-0.5,0.2-1,0.5-1.5,0.7c-0.3,0.1-0.6,0.3-0.9,0.5c-0.3,0.1-0.5,0.3-0.8,0.4c-0.3,0.2-0.6,0.3-0.9,0.5
					c-0.7,0.4-1.3,0.8-1.9,1.2c-0.3,0.2-0.6,0.4-0.9,0.6c-11.5,8.1-17.4,21.4-13.8,33.7C149.5,168.2,149.6,168.4,149.7,168.7z"/>
				<path class="st30" d="M231.9,199.2c1.7,2.9,3.6,6.5,5.4,10.4c0.8-0.9,1.5-1.9,2.2-2.9c-0.1-0.2-0.3-0.4-0.4-0.6
					C237.3,203.4,234.7,201.1,231.9,199.2z"/>
				<path class="st30" d="M167.6,229.4c0,0.3,0,0.5,0,0.8c1.2,0.4,2.3,0.7,3.5,1c-0.9-4.3-1.4-8.3-1.8-11.6
					C168.2,222.7,167.5,226.1,167.6,229.4z"/>
			</g>
		</g>
		<g>
			<path class="st22" d="M669,376"/>
			<path class="st23" d="M772.8,452.9"/>
			<g>
				<path class="st24" d="M850.5,311.7c-0.9,3.5-5.1,26.4,33.5,28.5c2.8,0.2,5.4-1.6,6.3-4.3l55.6-177.3c1-3.1-0.6-6.3-3.5-7.6
					l-19.3-8.2c-3.2-1.4-6.9,0.2-8.2,3.5L850.8,311C850.7,311.2,850.6,311.5,850.5,311.7z"/>
				<path class="st25" d="M850.5,311.7c-0.9,3.5-5.1,26.4,33.5,28.5c2.8,0.2,5.4-1.6,6.3-4.3l55.6-177.3c1-3.1-0.6-6.3-3.5-7.6
					l-19.3-8.2c-3.2-1.4-6.9,0.2-8.2,3.5L850.8,311C850.7,311.2,850.6,311.5,850.5,311.7z"/>
				<path class="st24" d="M864.6,326.5c-22-31.8-78-55.5-168.2-59.7c-90.1-4.2-115.6-60.3-115.6-60.3l60.6-190.7
					c0,0,25.5,56.1,115.6,60.3c77.6,3.6,129.9,21.7,157,46.9c7.2,6.7,9.8,17,6.8,26.3L864.6,326.5z"/>
				<path class="st25" d="M813,274.9c-29.4-14.3-61.6-20.6-92.8-29.3c-26.3-7.3-58.1-16.6-72.4-42.1c-6.7-12-9.8-26.5-12.2-39.9
					c-2.7-15.6-3.2-31.5-2.6-47.3c1.3-32.4-1.1-66.4,8.4-97.7c0.2-0.5,0.3-1,0.6-1.3c-0.4-0.8-0.7-1.3-0.7-1.3l-60.6,190.7
					c0,0,25.5,56.1,115.6,60.3c90.1,4.2,146.2,27.9,168.2,59.7l1.8-5.8C854,300.6,834.5,285.4,813,274.9z"/>
			</g>
			<line class="st26" x1="640" y1="8" x2="425.6" y2="668.1"/>
			<g>
				<path class="st27" d="M782.1,209.8L782.1,209.8c-0.9,0-1.8,0.1-2.6,0.1C780.3,209.9,781.2,209.9,782.1,209.8z"/>
				<path class="st27" d="M728.2,193.3c-1-0.8-1.7-1.3-2-1.6l0,0C726.7,192.1,727.4,192.6,728.2,193.3z"/>
				<path class="st27" d="M784.2,108.3c-33.6-10.9-69.8,7.5-80.7,41.1c-6.1,18.7-3.1,38.1,6.5,53.6c4.7-6.2,12.2-10.9,16.4-13.1
					c0.4-1.5,1.4-3.8,3.4-6.4c-0.2,2.2,3.5,4.9,6.7,6.8c4.7,2.8,11.3,5.6,18.5,8c7.2,2.3,14.2,3.9,19.7,4.4c3.8,0.4,8.3,0.3,9.4-1.6
					c0.1,3.3-0.5,5.7-1,7.2c2,4.3,5.3,12.5,5.5,20.3c16.9-6.9,30.7-20.9,36.7-39.5C836.3,155.4,817.9,119.3,784.2,108.3z
					 M802.3,182.5c-5.1,7-12.5,12-20.9,14.4c1.7,1.5,2.5,2.7,2.2,3.6c-0.9,2.8-12.6,2.3-28.5-2.9c-15.9-5.2-25.6-11.6-24.7-14.4
					c0.3-0.9,1.7-1.4,3.9-1.6c-5.4-6.9-8.4-15.3-8.5-24c-6.1-2.6-9.4-9.5-7.3-16c2.2-6.7,9.4-10.5,16.1-8.4
					c10.3-12.2,28.1-17.5,45.2-11.9s28.3,20.3,29.5,36.2c6.7,2.3,10.3,9.5,8.1,16.3C815.5,180.4,808.8,184,802.3,182.5z"/>
				<path class="st28" d="M734.8,133.3c-6.8-2.1-14,1.6-16.1,8.4c-2.1,6.5,1.1,13.4,7.3,16c0-3.9,0.6-7.9,1.8-11.8
					C729.3,141.2,731.7,137,734.8,133.3z M722.5,149.1c-1.2-0.4-1.9-1.7-1.5-3c0.4-1.2,1.7-1.9,3-1.5c1.2,0.4,1.9,1.7,1.5,3
					C725.1,148.8,723.7,149.5,722.5,149.1z M724.6,142.6c-1.2-0.4-1.9-1.7-1.5-3c0.4-1.2,1.7-1.9,3-1.5s1.9,1.7,1.5,3
					C727.2,142.3,725.8,143,724.6,142.6z"/>
				<ellipse class="st29" cx="725.3" cy="140.3" rx="2.4" ry="2.4"/>
				<ellipse class="st29" cx="723.2" cy="146.8" rx="2.4" ry="2.4"/>
				<path class="st29" d="M712.9,206.1c-0.1,0.2-0.3,0.4-0.4,0.6c0.7,1,1.4,1.9,2.2,2.9c1.8-4,3.7-7.5,5.4-10.4
					C717.3,201.1,714.7,203.4,712.9,206.1z"/>
				<path class="st29" d="M782.4,209.8c-0.1,0-0.2,0-0.3,0l0,0c-0.9,0-1.8,0.1-2.6,0.1c-0.8,0-1.6,0-2.3,0
					c-0.9,8.5,1.5,16.3,3.7,21.2c0,0,0,0,0.1,0c0.9-4.3,1.4-8.3,1.8-11.6c1.1,3.2,1.8,6.6,1.8,9.8c0,0.3,0,0.5,0,0.8
					c1.4-0.5,2.8-1,4.2-1.5c-0.2-7.8-3.5-16-5.5-20.3C782.7,209.3,782.4,209.8,782.4,209.8z"/>
				<path class="st29" d="M782.7,219.5c-0.3,3.4-0.9,7.4-1.8,11.6c1.2-0.3,2.3-0.7,3.5-1c0-0.3,0-0.5,0-0.8
					C784.5,226.1,783.8,222.7,782.7,219.5z"/>
				<path class="st28" d="M734.4,181.7c-2.3,0.2-3.7,0.7-3.9,1.6c-0.9,2.8,8.8,9.2,24.7,14.4c15.9,5.2,27.6,5.7,28.5,2.9
					c0.3-0.9-0.5-2.1-2.2-3.6c-8.1,2.4-17.1,2.4-25.8-0.5C746.8,193.6,739.5,188.3,734.4,181.7z"/>
				<path class="st29" d="M730.2,194.7c-0.7-0.5-1.4-1-1.9-1.4c-0.9-0.7-1.6-1.2-2-1.6l0,0c-0.2-0.1-0.3-0.2-0.3-0.2
					s0.1-0.6,0.4-1.6c-4.2,2.3-11.7,7-16.4,13.1c0.8,1.3,1.6,2.5,2.5,3.7c0.1-0.2,0.3-0.4,0.4-0.6c1.9-2.7,4.4-5,7.2-6.9
					c-1.7,2.9-3.6,6.5-5.4,10.4c0,0,0,0,0,0.1c0.9-0.5,1.8-1.1,2.8-1.8C721.4,205.3,726.6,201,730.2,194.7z"/>
				<path class="st29" d="M735.5,198.2c-4.6,7.8-11.3,13.1-16.5,16.3c6.9,7,15.6,12.5,25.6,15.7c10,3.3,20.3,3.9,30,2.3
					c-2.3-5.6-4.6-13.8-3.7-22.9C755.5,208.3,743.3,202.8,735.5,198.2z"/>
				<path class="st28" d="M779.4,209.9c0.9,0,1.8-0.1,2.6-0.1c0.1,0,0.2,0,0.3,0c0,0,0.3-0.5,0.6-1.5c0.5-1.4,1.1-3.9,1-7.2
					c-1.1,1.9-5.7,1.9-9.4,1.6c-5.5-0.5-12.5-2.1-19.7-4.4c-7.2-2.3-13.8-5.2-18.5-8c-3.2-1.9-6.9-4.6-6.7-6.8c-2,2.6-3,4.9-3.4,6.4
					c-0.3,1-0.4,1.6-0.4,1.6s0.1,0.1,0.3,0.2c0.3,0.3,1,0.9,2,1.6c0.6,0.4,1.2,0.9,1.9,1.4c-3.6,6.2-8.8,10.6-12.7,13.2
					c-1,0.7-1.9,1.2-2.8,1.8c1.3,1.7,2.8,3.2,4.3,4.8c5.2-3.2,11.8-8.4,16.5-16.3c7.8,4.7,20,10.1,35.4,11.5
					c-0.9,9.1,1.4,17.2,3.7,22.9c2.1-0.3,4.2-0.8,6.3-1.3c-2.2-5-4.6-12.7-3.7-21.2C777.9,209.9,778.7,209.9,779.4,209.9z"/>
				<path class="st28" d="M809.5,157.6c0.4,4.7-0.2,9.6-1.7,14.3c-1.3,3.9-3.1,7.4-5.4,10.6c6.5,1.5,13.2-2.2,15.3-8.6
					C819.8,167.2,816.2,159.9,809.5,157.6z M813.8,166.6c1.2,0.4,1.9,1.7,1.5,3c-0.4,1.2-1.7,1.9-3,1.5c-1.2-0.4-1.9-1.7-1.5-3
					C811.2,166.8,812.5,166.2,813.8,166.6z M810.2,177.6c-1.2-0.4-1.9-1.7-1.5-3c0.4-1.2,1.7-1.9,3-1.5s1.9,1.7,1.5,3
					C812.8,177.3,811.5,178,810.2,177.6z"/>
				<ellipse class="st29" cx="810.9" cy="175.3" rx="2.4" ry="2.4"/>
				<ellipse class="st29" cx="813.1" cy="168.8" rx="2.4" ry="2.4"/>
				<path class="st29" d="M809.5,157.6c-1.2-16-12.5-30.7-29.5-36.2s-34.8-0.3-45.2,11.9c-3.1,3.6-5.5,7.9-7,12.6
					c-1.3,3.9-1.9,7.8-1.8,11.8c0.1,8.6,3.1,17.1,8.5,24c5.1,6.7,12.4,12,21.2,14.8c8.8,2.9,17.8,2.8,25.8,0.5
					c8.4-2.5,15.8-7.5,20.9-14.4c2.3-3.1,4.2-6.7,5.4-10.6C809.3,167.2,809.8,162.4,809.5,157.6z M758.8,186.5
					c-26.9-8.7-29.9-24-24.8-40c5.2-16,24.7-23.9,43.5-17.8s29.9,24,24.8,40C797.2,184.7,785.7,195.2,758.8,186.5z"/>
				<path class="st28" d="M802.6,167.9c3.6-12.3-2.3-25.6-13.8-33.7c-0.3-0.2-0.6-0.4-0.9-0.6c-0.6-0.4-1.3-0.8-1.9-1.2
					c-0.3-0.2-0.6-0.4-0.9-0.5c-0.3-0.1-0.5-0.3-0.8-0.4c-0.3-0.2-0.6-0.3-0.9-0.5c-0.5-0.2-1-0.5-1.5-0.7c-0.5-0.2-1.1-0.5-1.7-0.7
					c-0.6-0.2-1.1-0.4-1.7-0.6c-0.3-0.1-0.6-0.2-0.9-0.3c-0.3-0.1-0.6-0.2-0.9-0.3c-0.6-0.2-1.2-0.3-1.8-0.5
					c-0.9-0.2-1.8-0.4-2.7-0.6c-17.1-3.2-33.5,4.7-38.2,19.2l0,0l0,0c-5.2,16-2.1,31.3,24.8,40s38.4-1.8,43.5-17.8
					C802.4,168.4,802.5,168.2,802.6,167.9z"/>
				<path class="st30" d="M712.9,206.1c-0.1,0.2-0.3,0.4-0.4,0.6c0.7,1,1.4,1.9,2.2,2.9c1.8-4,3.7-7.5,5.4-10.4
					C717.3,201.1,714.7,203.4,712.9,206.1z"/>
				<path class="st30" d="M782.7,219.5c-0.3,3.4-0.9,7.4-1.8,11.6c1.2-0.3,2.3-0.7,3.5-1c0-0.3,0-0.5,0-0.8
					C784.5,226.1,783.8,222.7,782.7,219.5z"/>
			</g>
		</g>
	</g>
</g>
<path class="st31" d="M445.8,357.8"/>
<path class="st32" d="M849.9,491.3c86.6,197.6,4,430.7-191.3,528.4C457,1120.6,211.9,1039,111.1,837.4
	C54.9,725,55.4,599.1,101.8,492.1"/>
<path class="st33" d="M644.3,799.4c-199.7,80.1-426.5-16.8-506.7-216.5c-9.5-23.7-16.4-47.8-21-72c-33.2,88-35.2,188.1,2.6,282.2
	c80.1,199.7,307,296.7,506.7,216.5c176-70.6,272-255.1,237.5-434.7C826.3,673.5,749.9,757.1,644.3,799.4z"/>
<g>
	<path class="st34" d="M165.5,604c0.4,0,0.9,0,1.2,0.1C166.3,604.1,165.9,604.1,165.5,604z"/>
	<path class="st34" d="M163.8,604c-0.2,0-0.4,0-0.6,0C163.4,604,163.6,604,163.8,604L163.8,604z"/>
	<path class="st34" d="M200,688.2c-6,6.4-13.8,11.2-22.3,13.6c20.8-6,36-25.2,36-47.9c0-5.8-0.9-11.2-2.7-16.4
		c-1-1.6-28.3-45.3-79.9-21.2c6-5.3,13.2-9,21-10.9c-21.9,5.3-38.2,25-38.2,48.5c0,4.5,0.6,8.9,1.7,12.9
		C116.1,668,142.9,724.6,200,688.2z"/>
	<path class="st34" d="M158.5,604.2c0.4,0,0.9-0.1,1.2-0.1C159.3,604.1,158.9,604.1,158.5,604.2z"/>
	<path class="st34" d="M177.7,701.8c-0.8,0.2-1.6,0.5-2.4,0.7C176.1,702.3,176.9,702,177.7,701.8z"/>
	<path class="st34" d="M155.5,604.6c0.6-0.1,1.1-0.2,1.7-0.3C156.7,604.4,156.1,604.5,155.5,604.6z"/>
	<path class="st34" d="M180.1,606.7c0.8,0.3,1.4,0.6,2.2,0.9C181.5,607.3,180.9,607,180.1,606.7z"/>
	<path class="st34" d="M182.9,607.7c0.9,0.4,1.7,0.8,2.6,1.1C184.6,608.5,183.8,608.1,182.9,607.7z"/>
	<path class="st34" d="M168.1,604.1c0.6,0.1,1.1,0.1,1.7,0.2C169.2,604.2,168.7,604.2,168.1,604.1z"/>
	<path class="st34" d="M170.9,604.4c0.9,0.1,1.8,0.3,2.6,0.5C172.6,604.7,171.7,604.6,170.9,604.4z"/>
	<path class="st34" d="M177,605.8c0.9,0.2,1.6,0.5,2.5,0.8C178.6,606.2,177.8,605.9,177,605.8z"/>
	<path class="st34" d="M117,671.2c-0.1-0.2-0.1-0.4-0.2-0.6C116.8,670.9,116.9,671,117,671.2z"/>
	<path class="st34" d="M152.4,605.3c0.8-0.2,1.4-0.3,2.2-0.5C153.9,604.9,153.2,605.1,152.4,605.3z"/>
	<path class="st34" d="M151.9,702.3c-0.3-0.1-0.7-0.2-0.9-0.2C151.3,702.2,151.6,702.3,151.9,702.3z"/>
	<path class="st34" d="M153.9,702.8c-0.3-0.1-0.5-0.1-0.8-0.2C153.5,702.7,153.7,702.7,153.9,702.8z"/>
	<path class="st34" d="M156.2,703.2L156.2,703.2L156.2,703.2z"/>
	<path class="st34" d="M146.7,700.7L146.7,700.7L146.7,700.7z"/>
	<path class="st34" d="M149,701.6c-0.1,0-0.3-0.1-0.4-0.1C148.8,701.5,148.9,701.5,149,701.6z"/>
	<path class="st34" d="M116.2,669.2c-0.1-0.2-0.2-0.5-0.2-0.7C116.1,668.7,116.2,668.9,116.2,669.2z"/>
	<path class="st34" d="M173.4,702.8c0.3-0.1,0.6-0.1,0.9-0.2C174,702.7,173.7,702.7,173.4,702.8z"/>
	<path class="st34" d="M118.8,675.5C118.8,675.5,118.8,675.4,118.8,675.5C118.8,675.4,118.8,675.5,118.8,675.5z"/>
	<path class="st34" d="M117.9,673.5c-0.1-0.1-0.1-0.2-0.2-0.4C117.7,673.2,117.8,673.4,117.9,673.5z"/>
	<path class="st34" d="M173.6,604.9c1,0.2,2,0.5,3,0.7C175.6,605.4,174.6,605.1,173.6,604.9z"/>
	<path class="st34" d="M200.4,620c0.6,0.6,1,1.1,1.6,1.8C201.5,621.2,200.9,620.6,200.4,620z"/>
	<path class="st34" d="M195.4,615.3C195.5,615.3,195.5,615.3,195.4,615.3C195.5,615.3,195.5,615.3,195.4,615.3z"/>
	<path class="st34" d="M202.1,622c0.7,0.8,1.2,1.5,1.8,2.3C203.4,623.5,202.8,622.8,202.1,622z"/>
	<path class="st34" d="M207.2,629.4c1.4,2.5,2.6,5.1,3.6,7.8C209.9,634.5,208.7,631.8,207.2,629.4z"/>
	<path class="st34" d="M198.5,618.1c0.4,0.4,0.8,0.8,1,1C199.3,618.8,198.9,618.5,198.5,618.1z"/>
	<path class="st34" d="M186.3,609.3c0.6,0.3,1,0.6,1.5,0.9C187.3,609.8,186.8,609.6,186.3,609.3z"/>
	<path class="st34" d="M196.7,616.3c0.3,0.3,0.7,0.6,0.9,0.9C197.3,616.9,196.9,616.6,196.7,616.3z"/>
	<path class="st34" d="M191.5,612.4c0.3,0.2,0.6,0.4,0.9,0.6C192,612.7,191.7,612.6,191.5,612.4z"/>
	<path class="st34" d="M189.1,610.9c0.4,0.2,0.8,0.4,1,0.7C189.8,611.2,189.5,611,189.1,610.9z"/>
	<path class="st34" d="M205.7,626.9c0.5,0.8,1,1.6,1.4,2.4C206.8,628.4,206.3,627.7,205.7,626.9z"/>
	<path class="st34" d="M204,624.4c0.6,0.8,1.1,1.5,1.6,2.4C205.1,625.9,204.6,625.1,204,624.4z"/>
	<path class="st35" d="M176.7,605.7L176.7,605.7c0,0,0.2,0.1,0.3,0.1C176.9,605.8,176.8,605.7,176.7,605.7z"/>
	<path class="st35" d="M190.1,611.5c0.5,0.3,0.9,0.6,1.3,0.9C191,612.1,190.6,611.8,190.1,611.5z"/>
	<path class="st35" d="M182.3,607.5c0.2,0.1,0.5,0.2,0.7,0.3C182.7,607.6,182.5,607.6,182.3,607.5z"/>
	<path class="st35" d="M159.8,604.1c1.1-0.1,2.3-0.2,3.4-0.2C162.1,604,160.9,604.1,159.8,604.1z"/>
	<path class="st35" d="M187.9,610.1c0.4,0.2,0.9,0.5,1.2,0.8C188.6,610.6,188.2,610.4,187.9,610.1z"/>
	<path class="st35" d="M185.4,608.9c0.3,0.1,0.6,0.3,0.9,0.5C186,609.2,185.7,609.1,185.4,608.9z"/>
	<path class="st35" d="M163.9,604c0.6,0,1.1,0,1.7,0C164.9,604,164.4,604,163.9,604z"/>
	<path class="st35" d="M166.7,604.1c0.5,0,0.9,0.1,1.4,0.1C167.6,604.1,167.2,604.1,166.7,604.1z"/>
	<path class="st35" d="M173.5,604.9L173.5,604.9C173.6,604.9,173.5,604.9,173.5,604.9z"/>
	<path class="st35" d="M169.8,604.3c0.4,0,0.7,0.1,1,0.1C170.5,604.4,170.2,604.3,169.8,604.3z"/>
	<path class="st35" d="M179.5,606.5c0.2,0.1,0.5,0.2,0.7,0.2C179.8,606.6,179.6,606.6,179.5,606.5z"/>
	<path class="st35" d="M205.6,626.7c0,0.1,0.1,0.1,0.1,0.2C205.7,626.8,205.6,626.7,205.6,626.7z"/>
	<path class="st35" d="M203.9,624.3C204,624.3,204,624.4,203.9,624.3C204,624.4,204,624.3,203.9,624.3z"/>
	<path class="st35" d="M207.2,629.3C207.2,629.3,207.2,629.4,207.2,629.3C207.2,629.4,207.2,629.3,207.2,629.3z"/>
	<path class="st35" d="M192.3,612.9c1,0.8,2.2,1.5,3.2,2.4C194.5,614.4,193.3,613.7,192.3,612.9z"/>
	<path class="st35" d="M201.9,621.8c0.1,0.1,0.1,0.2,0.2,0.2C202.1,621.9,202,621.8,201.9,621.8z"/>
	<path class="st35" d="M199.7,619.2c0.3,0.3,0.5,0.6,0.8,0.8C200.2,619.7,199.9,619.5,199.7,619.2z"/>
	<path class="st35" d="M195.5,615.4c0.4,0.3,0.8,0.7,1.1,1C196.3,616.1,195.9,615.7,195.5,615.4z"/>
	<path class="st35" d="M210.9,637.5c0-0.1-0.1-0.2-0.1-0.3C210.8,637.3,210.8,637.4,210.9,637.5L210.9,637.5z"/>
	<path class="st35" d="M197.6,617.2c0.4,0.3,0.7,0.7,0.9,0.9C198.3,617.8,197.9,617.5,197.6,617.2z"/>
	<path class="st35" d="M157.2,604.4c0.4-0.1,0.9-0.1,1.2-0.2C158.1,604.2,157.7,604.3,157.2,604.4z"/>
	<path class="st35" d="M152,605.4c0.1,0,0.3-0.1,0.4-0.1C152.3,605.3,152.1,605.3,152,605.4z"/>
	<path class="st35" d="M154.7,604.8c0.3-0.1,0.6-0.1,0.9-0.2C155.3,604.7,155,604.7,154.7,604.8z"/>
	<path class="st34" d="M210.9,637.4c0-0.1-0.1-0.2-0.1-0.3c-0.9-2.7-2.2-5.4-3.6-7.8c0,0,0,0,0-0.1c-0.5-0.9-0.9-1.6-1.4-2.4
		c0-0.1-0.1-0.1-0.1-0.2c-0.5-0.8-1-1.6-1.6-2.4c0,0,0,0,0-0.1c-0.6-0.8-1.1-1.5-1.8-2.3c-0.1-0.1-0.1-0.2-0.2-0.2
		c-0.5-0.6-1-1.2-1.6-1.8c-0.3-0.3-0.5-0.6-0.8-0.8c-0.4-0.4-0.8-0.8-1-1c-0.3-0.3-0.7-0.7-0.9-0.9c-0.3-0.3-0.7-0.6-0.9-0.9
		c-0.4-0.4-0.8-0.7-1.1-1l0,0c-1-0.9-2.1-1.6-3.2-2.4c-0.3-0.2-0.6-0.4-0.9-0.6c-0.5-0.3-0.9-0.6-1.3-0.9c-0.4-0.2-0.7-0.5-1-0.7
		c-0.4-0.3-0.9-0.5-1.2-0.8c-0.5-0.3-1-0.6-1.5-0.9c-0.3-0.2-0.6-0.3-0.9-0.5c-0.9-0.4-1.7-0.8-2.6-1.1c-0.2-0.1-0.4-0.2-0.7-0.3
		c-0.8-0.3-1.4-0.6-2.2-0.9c-0.2-0.1-0.5-0.2-0.7-0.2c-0.9-0.3-1.6-0.5-2.5-0.8c-0.1,0-0.3-0.1-0.4-0.1c-1-0.3-2-0.5-3-0.7h-0.1
		c-0.9-0.2-1.8-0.3-2.6-0.5c-0.4-0.1-0.7-0.1-1-0.1c-0.6-0.1-1.1-0.1-1.7-0.2c-0.5,0-0.9-0.1-1.4-0.1c-0.4,0-0.9,0-1.2-0.1
		c-0.6,0-1.1,0-1.7,0c-0.2,0-0.5,0-0.7,0c-1.1,0-2.3,0.1-3.4,0.2c-0.4,0-0.9,0.1-1.2,0.1c-0.4,0-0.9,0.1-1.2,0.2
		c-0.6,0.1-1.1,0.2-1.7,0.3c-0.3,0.1-0.6,0.1-0.9,0.2c-0.8,0.1-1.5,0.3-2.2,0.5c-0.1,0-0.3,0.1-0.4,0.1c-7.8,1.9-14.9,5.7-21,10.9
		C182.7,592.2,209.9,635.8,210.9,637.4z"/>
	<path class="st35" d="M210.9,637.4c0-0.1-0.1-0.2-0.1-0.3c-0.9-2.7-2.2-5.4-3.6-7.8c0,0,0,0,0-0.1c-0.5-0.9-0.9-1.6-1.4-2.4
		c0-0.1-0.1-0.1-0.1-0.2c-0.5-0.8-1-1.6-1.6-2.4c0,0,0,0,0-0.1c-0.6-0.8-1.1-1.5-1.8-2.3c-0.1-0.1-0.1-0.2-0.2-0.2
		c-0.5-0.6-1-1.2-1.6-1.8c-0.3-0.3-0.5-0.6-0.8-0.8c-0.4-0.4-0.8-0.8-1-1c-0.3-0.3-0.7-0.7-0.9-0.9c-0.3-0.3-0.7-0.6-0.9-0.9
		c-0.4-0.4-0.8-0.7-1.1-1l0,0c-1-0.9-2.1-1.6-3.2-2.4c-0.3-0.2-0.6-0.4-0.9-0.6c-0.5-0.3-0.9-0.6-1.3-0.9c-0.4-0.2-0.7-0.5-1-0.7
		c-0.4-0.3-0.9-0.5-1.2-0.8c-0.5-0.3-1-0.6-1.5-0.9c-0.3-0.2-0.6-0.3-0.9-0.5c-0.9-0.4-1.7-0.8-2.6-1.1c-0.2-0.1-0.4-0.2-0.7-0.3
		c-0.8-0.3-1.4-0.6-2.2-0.9c-0.2-0.1-0.5-0.2-0.7-0.2c-0.9-0.3-1.6-0.5-2.5-0.8c-0.1,0-0.3-0.1-0.4-0.1c-1-0.3-2-0.5-3-0.7h-0.1
		c-0.9-0.2-1.8-0.3-2.6-0.5c-0.4-0.1-0.7-0.1-1-0.1c-0.6-0.1-1.1-0.1-1.7-0.2c-0.5,0-0.9-0.1-1.4-0.1c-0.4,0-0.9,0-1.2-0.1
		c-0.6,0-1.1,0-1.7,0c-0.2,0-0.5,0-0.7,0c-1.1,0-2.3,0.1-3.4,0.2c-0.4,0-0.9,0.1-1.2,0.1c-0.4,0-0.9,0.1-1.2,0.2
		c-0.6,0.1-1.1,0.2-1.7,0.3c-0.3,0.1-0.6,0.1-0.9,0.2c-0.8,0.1-1.5,0.3-2.2,0.5c-0.1,0-0.3,0.1-0.4,0.1c-7.8,1.9-14.9,5.7-21,10.9
		C182.7,592.2,209.9,635.8,210.9,637.4z"/>
	<path class="st36" d="M153.2,702.6c-0.5-0.1-0.9-0.2-1.3-0.3C152.3,702.4,152.8,702.5,153.2,702.6z"/>
	<path class="st36" d="M118.8,675.4c-0.3-0.7-0.6-1.2-0.9-1.9C118.1,674.2,118.4,674.7,118.8,675.4z"/>
	<path class="st36" d="M175.3,702.4c-0.4,0.1-0.7,0.2-1,0.3C174.5,702.5,174.9,702.5,175.3,702.4z"/>
	<path class="st36" d="M156.1,703.2c-0.8-0.1-1.4-0.3-2.2-0.4C154.7,702.9,155.4,703.1,156.1,703.2z"/>
	<path class="st36" d="M150.8,702.1c0.1,0,0.1,0,0.2,0c-0.7-0.2-1.3-0.4-1.9-0.6C149.6,701.8,150.2,701.9,150.8,702.1z"/>
	<path class="st36" d="M177.7,701.8L177.7,701.8L177.7,701.8z"/>
	<path class="st36" d="M148.6,701.4c-0.7-0.2-1.3-0.5-2-0.7C147.3,701,148,701.2,148.6,701.4z"/>
	<path class="st36" d="M117.7,673.1c-0.3-0.7-0.6-1.3-0.8-2C117.2,671.8,117.5,672.5,117.7,673.1z"/>
	<path class="st36" d="M156.2,703.2c5.9,0.9,11.6,0.8,17.2-0.4c-3.1,0.6-6.3,0.9-9.6,0.9C161.2,703.8,158.7,703.6,156.2,703.2z"/>
	<path class="st36" d="M118.8,675.5c5.5,11.3,15.2,20.6,27.8,25.2C134.4,696.2,124.4,687.1,118.8,675.5z"/>
	<path class="st36" d="M115.6,666.8c0.2,0.6,0.3,1.1,0.5,1.7C115.8,667.9,115.8,667.4,115.6,666.8L115.6,666.8z"/>
	<path class="st36" d="M116.8,670.7c-0.2-0.5-0.4-1-0.5-1.5C116.4,669.6,116.6,670.1,116.8,670.7z"/>
	<path class="st34" d="M175.3,702.4c0.9-0.2,1.6-0.4,2.4-0.7l0,0c8.5-2.5,16.2-7.2,22.3-13.6c-57.1,36.4-83.8-20.1-84.4-21.4
		c0.2,0.6,0.3,1.1,0.5,1.6c0.1,0.2,0.2,0.5,0.2,0.7c0.2,0.5,0.3,1,0.5,1.5c0.1,0.2,0.1,0.4,0.2,0.6c0.3,0.7,0.5,1.3,0.8,2
		c0.1,0.1,0.1,0.2,0.2,0.4c0.3,0.7,0.6,1.3,0.9,1.9c0,0,0,0.1,0.1,0.1c5.6,11.6,15.6,20.7,27.8,25.2h0.1c0.7,0.3,1.3,0.5,2,0.7
		c0.1,0,0.3,0.1,0.4,0.1c0.7,0.2,1.3,0.4,1.9,0.6c0.3,0.1,0.7,0.2,0.9,0.2c0.5,0.1,0.9,0.2,1.3,0.3c0.3,0.1,0.5,0.1,0.8,0.2
		c0.8,0.2,1.4,0.3,2.2,0.4c0,0,0,0,0.1,0c2.5,0.4,5,0.6,7.6,0.6c3.3,0,6.5-0.3,9.6-0.9c0.3-0.1,0.6-0.1,0.9-0.2
		C174.5,702.5,174.9,702.5,175.3,702.4z"/>
	<path class="st36" d="M175.3,702.4c0.9-0.2,1.6-0.4,2.4-0.7l0,0c8.5-2.5,16.2-7.2,22.3-13.6c-57.1,36.4-83.8-20.1-84.4-21.4
		c0.2,0.6,0.3,1.1,0.5,1.6c0.1,0.2,0.2,0.5,0.2,0.7c0.2,0.5,0.3,1,0.5,1.5c0.1,0.2,0.1,0.4,0.2,0.6c0.3,0.7,0.5,1.3,0.8,2
		c0.1,0.1,0.1,0.2,0.2,0.4c0.3,0.7,0.6,1.3,0.9,1.9c0,0,0,0.1,0.1,0.1c5.6,11.6,15.6,20.7,27.8,25.2h0.1c0.7,0.3,1.3,0.5,2,0.7
		c0.1,0,0.3,0.1,0.4,0.1c0.7,0.2,1.3,0.4,1.9,0.6c0.3,0.1,0.7,0.2,0.9,0.2c0.5,0.1,0.9,0.2,1.3,0.3c0.3,0.1,0.5,0.1,0.8,0.2
		c0.8,0.2,1.4,0.3,2.2,0.4c0,0,0,0,0.1,0c2.5,0.4,5,0.6,7.6,0.6c3.3,0,6.5-0.3,9.6-0.9c0.3-0.1,0.6-0.1,0.9-0.2
		C174.5,702.5,174.9,702.5,175.3,702.4z"/>
	<path class="st34" d="M629.4,814.9L629.4,814.9C629.5,815,629.5,814.9,629.4,814.9z"/>
	<path class="st34" d="M629.6,815.3c-0.5-0.9-13.4-21.4-37.8-10.2c-5.1,4.3-8.3,10.8-8.3,18.1c0,2.2,0.3,4.3,0.9,6.4
		c1.3,2.7,14.1,26.3,40,10c4.1-4.3,6.6-10,6.6-16.4C631,820.4,630.5,817.8,629.6,815.3z"/>
	<path class="st35" d="M629.4,814.9c-2.6-7-8.4-12.7-16.1-14.7c-7.9-2.1-16,0-21.7,5c0.1,0,0.1-0.1,0.2-0.1
		c4.2-3.5,9.5-5.7,15.4-5.7C617.4,799.4,626.1,805.8,629.4,814.9z"/>
	<path class="st35" d="M629.6,815.3c0-0.1-0.1-0.2-0.1-0.3C629.5,815.1,629.5,815.2,629.6,815.3L629.6,815.3z"/>
	<path class="st34" d="M629.6,815.3c0-0.1-0.1-0.2-0.1-0.3v-0.1c-3.3-9.1-12-15.5-22.2-15.5c-5.9,0-11.2,2.2-15.4,5.7
		C616.2,793.9,629.1,814.4,629.6,815.3z"/>
	<path class="st35" d="M629.6,815.3c0-0.1-0.1-0.2-0.1-0.3v-0.1c-3.3-9.1-12-15.5-22.2-15.5c-5.9,0-11.2,2.2-15.4,5.7
		C616.2,793.9,629.1,814.4,629.6,815.3z"/>
	<path class="st36" d="M607.2,846.9c-10.9,0-20-7.4-22.9-17.3c-0.1-0.2-0.1-0.3-0.1-0.3c2.2,7.9,8.3,14.6,16.8,16.8
		c8.7,2.4,17.6-0.5,23.3-6.6c0,0,0,0-0.1,0C620.1,844,613.9,846.9,607.2,846.9z"/>
	<path class="st34" d="M584.4,829.6c2.8,10,12,17.3,22.9,17.3c6.7,0,12.9-2.8,17.1-7.4C598.4,855.8,585.8,832.3,584.4,829.6z"/>
	<path class="st36" d="M584.4,829.6c2.8,10,12,17.3,22.9,17.3c6.7,0,12.9-2.8,17.1-7.4C598.4,855.8,585.8,832.3,584.4,829.6z"/>
	<path class="st34" d="M674.4,575.1c-0.1-0.1-0.2-0.3-0.2-0.4C674.2,574.9,674.3,575,674.4,575.1z"/>
	<path class="st34" d="M722.9,548.7c0.1,0.1,0.1,0.2,0.2,0.4C723.1,548.9,723,548.8,722.9,548.7z"/>
	<path class="st34" d="M672.9,572c-0.1-0.4-0.3-0.7-0.4-1C672.7,571.4,672.8,571.7,672.9,572z"/>
	<path class="st34" d="M673.8,573.9c-0.2-0.5-0.4-0.9-0.6-1.3C673.4,573.1,673.6,573.4,673.8,573.9z"/>
	<path class="st34" d="M672.4,570.5c-0.1-0.4-0.3-0.8-0.4-1.1C672.2,569.7,672.3,570.1,672.4,570.5z"/>
	<path class="st34" d="M675,576.3C675,576.3,675,576.2,675,576.3C675,576.2,675,576.3,675,576.3z"/>
	<path class="st34" d="M718.4,581.3c4.9-5,7.9-11.8,7.9-19.4c0-3.2-0.6-6.3-1.6-9.2c-0.9-1.5-15.9-24.6-43.9-11.9
		c-6,5.1-9.8,12.7-9.8,21.1c0,2.5,0.4,4.9,0.9,7.2C672.4,570.1,687.1,600.6,718.4,581.3z"/>
	<path class="st34" d="M722.3,547.5c0,0.1,0.1,0.2,0.1,0.2C722.4,547.6,722.4,547.5,722.3,547.5z"/>
	<path class="st35" d="M722.3,547.5c-3.6-5.9-9.3-10.4-16.4-12.4c-9.2-2.5-18.6,0-25.3,5.9c0.2-0.1,0.3-0.1,0.5-0.2
		c4.8-4.1,11.1-6.5,17.8-6.5C708.6,534.2,717.4,539.6,722.3,547.5z"/>
	<path class="st35" d="M724.8,552.8c-0.5-1.3-1-2.6-1.7-3.8C723.8,550.2,724.3,551.4,724.8,552.8L724.8,552.8z"/>
	<path class="st35" d="M722.4,547.7c0.2,0.3,0.4,0.7,0.6,0.9C722.7,548.4,722.5,548,722.4,547.7z"/>
	<path class="st34" d="M724.7,552.7c-0.5-1.3-1-2.6-1.6-3.8c-0.1-0.1-0.1-0.2-0.2-0.4c-0.2-0.3-0.4-0.7-0.6-0.9
		c0-0.1-0.1-0.2-0.1-0.2c-4.8-7.9-13.6-13.2-23.5-13.2c-6.8,0-12.9,2.5-17.8,6.5C708.9,528.1,723.9,551.2,724.7,552.7z"/>
	<path class="st35" d="M724.7,552.7c-0.5-1.3-1-2.6-1.6-3.8c-0.1-0.1-0.1-0.2-0.2-0.4c-0.2-0.3-0.4-0.7-0.6-0.9
		c0-0.1-0.1-0.2-0.1-0.2c-4.8-7.9-13.6-13.2-23.5-13.2c-6.8,0-12.9,2.5-17.8,6.5C708.9,528.1,723.9,551.2,724.7,552.7z"/>
	<path class="st36" d="M698.7,589.5c-10,0-18.7-5.3-23.6-13.2c3.6,5.9,9.3,10.5,16.5,12.4c10.1,2.7,20.5-0.6,27.2-7.7
		c-0.2,0.1-0.4,0.2-0.5,0.3C713.4,586.4,706.4,589.5,698.7,589.5z"/>
	<path class="st36" d="M672.5,571.1c-0.1-0.2-0.1-0.4-0.2-0.5C672.4,570.7,672.5,570.9,672.5,571.1z"/>
	<path class="st36" d="M675,576.2c-0.2-0.4-0.4-0.7-0.6-1C674.6,575.5,674.8,575.9,675,576.2z"/>
	<path class="st36" d="M673.2,572.6c-0.1-0.2-0.1-0.4-0.2-0.6C673,572.2,673.1,572.4,673.2,572.6z"/>
	<path class="st36" d="M674.2,574.8c-0.2-0.3-0.3-0.6-0.5-0.9C673.9,574.2,674.1,574.5,674.2,574.8z"/>
	<path class="st36" d="M672,569.1c0,0.1,0.1,0.2,0.1,0.3C672.1,569.3,672,569.2,672,569.1L672,569.1z"/>
	<path class="st34" d="M672,569.1c0,0.1,0,0.2,0.1,0.2c0.1,0.4,0.2,0.8,0.4,1.1c0.1,0.2,0.1,0.4,0.2,0.5c0.1,0.4,0.3,0.7,0.4,1
		c0.1,0.2,0.1,0.4,0.2,0.6c0.2,0.5,0.4,0.9,0.6,1.3c0.2,0.3,0.3,0.6,0.5,0.9c0.1,0.1,0.1,0.3,0.2,0.4c0.2,0.4,0.4,0.7,0.6,1l0,0
		c4.8,7.9,13.6,13.2,23.6,13.2c7.7,0,14.6-3.1,19.7-8.2C687.1,600.6,672.4,570.1,672,569.1z"/>
	<path class="st36" d="M672,569.1c0,0.1,0,0.2,0.1,0.2c0.1,0.4,0.2,0.8,0.4,1.1c0.1,0.2,0.1,0.4,0.2,0.5c0.1,0.4,0.3,0.7,0.4,1
		c0.1,0.2,0.1,0.4,0.2,0.6c0.2,0.5,0.4,0.9,0.6,1.3c0.2,0.3,0.3,0.6,0.5,0.9c0.1,0.1,0.1,0.3,0.2,0.4c0.2,0.4,0.4,0.7,0.6,1l0,0
		c4.8,7.9,13.6,13.2,23.6,13.2c7.7,0,14.6-3.1,19.7-8.2C687.1,600.6,672.4,570.1,672,569.1z"/>
	<path class="st34" d="M590.9,929.8c0,1,0.2,2,0.4,3c0.5,0.9,6.6,13,19.5,4.8c-2.8,2.9-7.1,4.3-11.3,3.2c-4-1.1-7-4.2-8-7.9
		c1.3,4.9,5.8,8.4,11.1,8.4c6.3,0,11.5-5.2,11.5-11.5c0-3.8-1.8-7.2-4.6-9.3c1.9,1.4,3.2,3.3,4,5.5c0,0-6.3-10.6-18.4-4.9
		C592.4,923.1,590.9,926.3,590.9,929.8z"/>
	<path class="st34" d="M604.3,918.4c0.3,0,0.6,0.1,0.9,0.2C604.9,918.5,604.6,918.4,604.3,918.4z"/>
	<path class="st34" d="M594.8,921.1c0.2-0.2,0.5-0.4,0.8-0.6C595.3,920.7,595.1,920.9,594.8,921.1z"/>
	<path class="st34" d="M605.5,918.7c1.4,0.4,2.6,1,3.7,1.8C608.1,919.6,606.9,919.1,605.5,918.7z"/>
	<path class="st34" d="M603.5,918.3c0.1,0,0.1,0,0.2,0C603.5,918.3,603.5,918.3,603.5,918.3z"/>
	<path class="st35" d="M603.5,918.3c-2.9-0.3-5.7,0.6-7.8,2.2c1.9-1.4,4.3-2.3,6.8-2.3C602.8,918.2,603.2,918.2,603.5,918.3z"/>
	<path class="st35" d="M603.6,918.3c0.2,0,0.5,0.1,0.7,0.1C604.1,918.3,603.8,918.3,603.6,918.3z"/>
	<path class="st35" d="M609.2,920.5L609.2,920.5L609.2,920.5z"/>
	<path class="st35" d="M605.3,918.6c-0.1,0-0.2,0-0.2,0c0.1,0,0.3,0.1,0.4,0.1C605.4,918.6,605.4,918.6,605.3,918.6z"/>
	<path class="st35" d="M594.8,921.1L594.8,921.1L594.8,921.1L594.8,921.1z"/>
	<path class="st34" d="M613.3,926c-0.8-2.2-2.2-4.1-4-5.5c0,0-0.1,0-0.1-0.1c-1-0.8-2.4-1.4-3.7-1.8c-0.1,0-0.3-0.1-0.4-0.1
		c-0.3-0.1-0.6-0.1-0.9-0.2c-0.2,0-0.5-0.1-0.7-0.1c-0.1,0-0.1,0-0.2,0c-0.4,0-0.7-0.1-1-0.1c-2.6,0-4.9,0.9-6.8,2.3
		c-0.3,0.2-0.5,0.4-0.8,0.6l0,0C606.9,915.4,613.3,926,613.3,926z"/>
	<path class="st35" d="M613.3,926c-0.8-2.2-2.2-4.1-4-5.5c0,0-0.1,0-0.1-0.1c-1-0.8-2.4-1.4-3.7-1.8c-0.1,0-0.3-0.1-0.4-0.1
		c-0.3-0.1-0.6-0.1-0.9-0.2c-0.2,0-0.5-0.1-0.7-0.1c-0.1,0-0.1,0-0.2,0c-0.4,0-0.7-0.1-1-0.1c-2.6,0-4.9,0.9-6.8,2.3
		c-0.3,0.2-0.5,0.4-0.8,0.6l0,0C606.9,915.4,613.3,926,613.3,926z"/>
	<path class="st36" d="M591.3,932.7c0,0.1,0,0.1,0.1,0.2C591.3,932.8,591.3,932.8,591.3,932.7L591.3,932.7z"/>
	<path class="st34" d="M599.4,940.8c4.3,1.1,8.5-0.3,11.3-3.2c-12.9,8.2-19-4-19.5-4.8v0.1C592.4,936.7,595.4,939.7,599.4,940.8z"/>
	<path class="st36" d="M599.4,940.8c4.3,1.1,8.5-0.3,11.3-3.2c-12.9,8.2-19-4-19.5-4.8v0.1C592.4,936.7,595.4,939.7,599.4,940.8z"/>
	<path class="st34" d="M769.1,706c-0.1-0.1-0.2-0.1-0.3-0.2C768.9,705.9,769,705.9,769.1,706z"/>
	<path class="st34" d="M783.8,704.3c-1.7,1.8-3.9,2.9-6.3,3.4c5.4-0.9,9.5-5.7,9.5-11.3c0-3.8-1.8-7.2-4.6-9.3
		c1.9,1.4,3.2,3.3,4,5.5c0,0-6.3-10.5-18.4-4.9c-2.5,2.1-4,5.2-4,8.7c0,1.1,0.2,2.2,0.5,3.2C765.2,701,771.3,712.3,783.8,704.3z"/>
	<path class="st34" d="M776.7,707.8L776.7,707.8L776.7,707.8z"/>
	<path class="st34" d="M772.1,707.4L772.1,707.4C772,707.4,772.1,707.4,772.1,707.4z"/>
	<path class="st34" d="M767.9,687.7c0.2-0.2,0.5-0.4,0.8-0.6C768.4,687.3,768.2,687.5,767.9,687.7z"/>
	<path class="st34" d="M776.5,685c0.1,0,0.1,0,0.2,0C776.6,685,776.6,685,776.5,685z"/>
	<path class="st34" d="M778.6,685.3c1.4,0.4,2.6,1,3.7,1.8C781.1,686.3,779.9,685.7,778.6,685.3z"/>
	<path class="st34" d="M777.4,685.1c0.3,0,0.6,0.1,0.9,0.2C777.9,685.1,777.6,685.1,777.4,685.1z"/>
	<path class="st34" d="M770.2,706.7c-0.1-0.1-0.2-0.1-0.3-0.2C770,706.6,770.1,706.6,770.2,706.7z"/>
	<path class="st35" d="M776.7,685c0.2,0,0.5,0.1,0.7,0.1C777.2,685,776.9,685,776.7,685z"/>
	<path class="st35" d="M782.3,687.1L782.3,687.1L782.3,687.1z"/>
	<path class="st35" d="M767.9,687.7L767.9,687.7L767.9,687.7L767.9,687.7z"/>
	<path class="st35" d="M776.5,685c-2.9-0.3-5.7,0.6-7.8,2.2c1.9-1.4,4.3-2.3,6.8-2.3C775.8,684.9,776.2,684.9,776.5,685z"/>
	<path class="st35" d="M778.4,685.2c-0.1,0-0.2,0-0.2,0c0.1,0,0.3,0.1,0.4,0.1C778.5,685.2,778.5,685.2,778.4,685.2z"/>
	<path class="st34" d="M786.3,692.6c-0.8-2.2-2.2-4.1-4-5.5c0,0-0.1,0-0.1-0.1c-1-0.8-2.4-1.4-3.7-1.8c-0.1,0-0.3-0.1-0.4-0.1
		c-0.3-0.1-0.6-0.1-0.9-0.2c-0.2,0-0.5-0.1-0.7-0.1c-0.1,0-0.1,0-0.2,0c-0.4,0-0.7-0.1-1-0.1c-2.6,0-4.9,0.9-6.8,2.3
		c-0.3,0.2-0.5,0.4-0.8,0.6l0,0C780,682.1,786.3,692.6,786.3,692.6z"/>
	<path class="st35" d="M786.3,692.6c-0.8-2.2-2.2-4.1-4-5.5c0,0-0.1,0-0.1-0.1c-1-0.8-2.4-1.4-3.7-1.8c-0.1,0-0.3-0.1-0.4-0.1
		c-0.3-0.1-0.6-0.1-0.9-0.2c-0.2,0-0.5-0.1-0.7-0.1c-0.1,0-0.1,0-0.2,0c-0.4,0-0.7-0.1-1-0.1c-2.6,0-4.9,0.9-6.8,2.3
		c-0.3,0.2-0.5,0.4-0.8,0.6l0,0C780,682.1,786.3,692.6,786.3,692.6z"/>
	<path class="st36" d="M777.5,707.7c-0.3,0-0.5,0.1-0.8,0.1C777,707.8,777.3,707.8,777.5,707.7z"/>
	<path class="st36" d="M772.1,707.4c0.1,0,0.3,0.1,0.4,0.1c1.4,0.4,2.8,0.5,4.2,0.3c-0.4,0-0.8,0.1-1.1,0.1
		C774.2,707.9,773.1,707.7,772.1,707.4z"/>
	<path class="st36" d="M772,707.4c-0.6-0.2-1.2-0.5-1.7-0.8C770.7,707,771.3,707.2,772,707.4z"/>
	<path class="st36" d="M768.9,705.8c-2.2-1.5-3.8-3.7-4.5-6.3c-0.1-0.1-0.1-0.2-0.1-0.2C765,702.1,766.7,704.3,768.9,705.8z"/>
	<path class="st36" d="M769.9,706.5c-0.3-0.2-0.6-0.3-0.8-0.5C769.4,706.2,769.6,706.3,769.9,706.5z"/>
	<path class="st34" d="M768.9,705.8c0.1,0.1,0.2,0.1,0.3,0.2c0.3,0.2,0.5,0.3,0.8,0.5c0.1,0.1,0.2,0.1,0.3,0.2
		c0.6,0.3,1.1,0.6,1.7,0.8h0.1c1,0.4,2.3,0.5,3.4,0.5c0.4,0,0.8,0,1.1-0.1h0.1c0.3,0,0.5-0.1,0.8-0.1c2.4-0.5,4.6-1.7,6.3-3.4
		c-12.5,7.9-18.6-3.3-19.4-4.7C765.2,702.2,766.8,704.3,768.9,705.8z"/>
	<path class="st36" d="M768.9,705.8c0.1,0.1,0.2,0.1,0.3,0.2c0.3,0.2,0.5,0.3,0.8,0.5c0.1,0.1,0.2,0.1,0.3,0.2
		c0.6,0.3,1.1,0.6,1.7,0.8h0.1c1,0.4,2.3,0.5,3.4,0.5c0.4,0,0.8,0,1.1-0.1h0.1c0.3,0,0.5-0.1,0.8-0.1c2.4-0.5,4.6-1.7,6.3-3.4
		c-12.5,7.9-18.6-3.3-19.4-4.7C765.2,702.2,766.8,704.3,768.9,705.8z"/>
	<path class="st34" d="M281.2,775.1c0.1,0.2,0.2,0.3,0.3,0.5C281.3,775.4,281.2,775.2,281.2,775.1z"/>
	<path class="st34" d="M280.4,774c0.1,0.2,0.3,0.3,0.4,0.5C280.7,774.3,280.5,774.2,280.4,774z"/>
	<path class="st34" d="M258.5,779.5c-1.1,6.7,3.5,13,10.1,14.1c3.9,0.7,7.7-0.7,10.3-3.1c-3,2.7-7.3,4-11.5,2.8
		c-4.4-1.2-7.6-4.6-8.7-8.7c0,0,6.5,14.4,20.8,5.3c1.6-1.7,2.7-4,3.1-6.4c0.4-2.2,0.1-4.3-0.6-6.1c-0.7-0.9-7.2-10.8-19.4-5.3
		C260.5,773.8,258.9,776.5,258.5,779.5z"/>
	<path class="st34" d="M281.8,776.3c0,0.1,0.1,0.1,0.1,0.2C281.9,776.5,281.8,776.4,281.8,776.3z"/>
	<path class="st34" d="M279.6,773c0.1,0.1,0.2,0.2,0.3,0.4C279.8,773.3,279.7,773.2,279.6,773z"/>
	<path class="st35" d="M281.4,775.6c0.1,0.2,0.3,0.5,0.4,0.8C281.7,776.1,281.5,775.8,281.4,775.6z"/>
	<path class="st35" d="M272.6,769.4c2.8,0.5,5.2,1.8,7,3.8c-1.5-1.6-3.5-2.9-5.8-3.5c-4.1-1.1-8.2,0-11.2,2.6c0.1,0,0.2-0.1,0.2-0.1
		C265.5,769.8,269,768.8,272.6,769.4z"/>
	<path class="st35" d="M279.9,773.4c0.2,0.2,0.3,0.4,0.5,0.6C280.3,773.8,280.1,773.6,279.9,773.4z"/>
	<path class="st35" d="M280.8,774.5c0.1,0.2,0.3,0.4,0.4,0.6C281.1,774.8,280.9,774.7,280.8,774.5z"/>
	<path class="st35" d="M282.3,777.4c-0.1-0.3-0.3-0.7-0.4-0.9C282,776.7,282.1,777,282.3,777.4L282.3,777.4z"/>
	<path class="st34" d="M282.2,777.3c-0.1-0.3-0.2-0.6-0.4-0.9c0-0.1-0.1-0.1-0.1-0.2c-0.1-0.3-0.3-0.5-0.4-0.8
		c-0.1-0.2-0.2-0.3-0.3-0.5c-0.1-0.2-0.3-0.4-0.4-0.6c-0.1-0.2-0.3-0.3-0.4-0.5c-0.2-0.2-0.3-0.4-0.5-0.6c-0.1-0.1-0.2-0.2-0.3-0.4
		c-1.8-1.9-4.2-3.3-7-3.8c-3.6-0.6-7.2,0.5-9.8,2.6C275,766.6,281.6,776.4,282.2,777.3z"/>
	<path class="st35" d="M282.2,777.3c-0.1-0.3-0.2-0.6-0.4-0.9c0-0.1-0.1-0.1-0.1-0.2c-0.1-0.3-0.3-0.5-0.4-0.8
		c-0.1-0.2-0.2-0.3-0.3-0.5c-0.1-0.2-0.3-0.4-0.4-0.6c-0.1-0.2-0.3-0.3-0.4-0.5c-0.2-0.2-0.3-0.4-0.5-0.6c-0.1-0.1-0.2-0.2-0.3-0.4
		c-1.8-1.9-4.2-3.3-7-3.8c-3.6-0.6-7.2,0.5-9.8,2.6C275,766.6,281.6,776.4,282.2,777.3z"/>
	<path class="st36" d="M279.1,790.4c0.2-0.2,0.4-0.4,0.6-0.6l0,0C279.5,790.1,279.3,790.2,279.1,790.4z"/>
	<path class="st34" d="M258.7,784.6c1.1,4.1,4.3,7.5,8.7,8.7c4.3,1.1,8.5-0.1,11.5-2.8c0.2-0.2,0.4-0.4,0.6-0.6
		C265.4,798.9,258.7,784.6,258.7,784.6z"/>
	<path class="st36" d="M258.7,784.6c1.1,4.1,4.3,7.5,8.7,8.7c4.3,1.1,8.5-0.1,11.5-2.8c0.2-0.2,0.4-0.4,0.6-0.6
		C265.4,798.9,258.7,784.6,258.7,784.6z"/>
	<path class="st34" d="M119.4,828.1c0.9-0.2,1.7-0.4,2.6-0.6C121.2,827.7,120.3,827.9,119.4,828.1z"/>
	<path class="st34" d="M111.3,830.8c0.9-0.4,1.6-0.7,2.5-1C112.9,830.1,112.1,830.4,111.3,830.8z"/>
	<path class="st34" d="M113.8,829.8c1.8-0.7,3.6-1.2,5.5-1.7C117.4,828.5,115.6,829.1,113.8,829.8z"/>
	<path class="st34" d="M160.4,913.5c0.7-0.6,1.3-1,2-1.6C161.7,912.5,161,913,160.4,913.5L160.4,913.5z"/>
	<path class="st34" d="M130.7,826.7c-2.8,0-5.7,0.3-8.4,0.8c6.7-1.1,13.8-0.9,20.9,0.9c16.2,4.3,28.2,16.3,33.3,30.9
		c0,0-22.8-38.1-66.7-24.9c0.5,0.9,0.9,2,1.4,2.9c13.6,27.2,29.9,52.3,48.3,74.9c2.1-1.1,4.3-2.4,6.4-3.8c-1.1,1.1-2.3,2.3-3.5,3.3
		c10.3-8.9,16.8-22,16.8-36.7C179.2,848.5,157.4,826.7,130.7,826.7z"/>
	<path class="st34" d="M108.9,831.9c0.6-0.3,1.1-0.6,1.7-0.9C110.1,831.4,109.5,831.6,108.9,831.9z"/>
	<path class="st35" d="M119.2,828.1c0.1,0,0.2,0,0.2-0.1C119.4,828.1,119.3,828.1,119.2,828.1z"/>
	<path class="st35" d="M110.6,831.1c0.2-0.1,0.5-0.2,0.7-0.3C111,830.9,110.8,831,110.6,831.1z"/>
	<path class="st35" d="M113.8,829.8L113.8,829.8L113.8,829.8z"/>
	<path class="st35" d="M122.1,827.5c0.1,0,0.2,0,0.3,0C122.3,827.5,122.2,827.5,122.1,827.5z"/>
	<path class="st35" d="M108.5,832.1L108.5,832.1c0.1-0.1,0.3-0.1,0.4-0.2C108.8,831.9,108.7,832,108.5,832.1z"/>
	<path class="st34" d="M176.4,859.3c-5.1-14.6-17.1-26.7-33.3-30.9c-7-1.9-14.1-2.2-20.9-0.9c-0.1,0-0.2,0-0.3,0
		c-0.9,0.2-1.7,0.4-2.6,0.6c-0.1,0-0.2,0-0.2,0.1c-1.9,0.5-3.7,1-5.5,1.7l0,0c-0.9,0.3-1.6,0.7-2.5,1c-0.2,0.1-0.5,0.2-0.7,0.3
		c-0.6,0.3-1.1,0.6-1.7,0.9c-0.1,0.1-0.3,0.1-0.4,0.2c0.4,0.8,0.8,1.6,1.1,2.4C153.7,821.2,176.4,859.3,176.4,859.3z"/>
	<path class="st35" d="M176.4,859.3c-5.1-14.6-17.1-26.7-33.3-30.9c-7-1.9-14.1-2.2-20.9-0.9c-0.1,0-0.2,0-0.3,0
		c-0.9,0.2-1.7,0.4-2.6,0.6c-0.1,0-0.2,0-0.2,0.1c-1.9,0.5-3.7,1-5.5,1.7l0,0c-0.9,0.3-1.6,0.7-2.5,1c-0.2,0.1-0.5,0.2-0.7,0.3
		c-0.6,0.3-1.1,0.6-1.7,0.9c-0.1,0.1-0.3,0.1-0.4,0.2c0.4,0.8,0.8,1.6,1.1,2.4C153.7,821.2,176.4,859.3,176.4,859.3z"/>
	<path class="st36" d="M162.3,911.9L162.3,911.9L162.3,911.9z"/>
	<path class="st34" d="M165.8,908.6c-2.2,1.4-4.3,2.6-6.4,3.8c0.3,0.4,0.7,0.8,0.9,1.2c0.7-0.6,1.3-1,2-1.6l0,0
		C163.6,910.8,164.7,909.7,165.8,908.6z"/>
	<path class="st36" d="M165.8,908.6c-2.2,1.4-4.3,2.6-6.4,3.8c0.3,0.4,0.7,0.8,0.9,1.2c0.7-0.6,1.3-1,2-1.6l0,0
		C163.6,910.8,164.7,909.7,165.8,908.6z"/>
	<path class="st34" d="M390.4,845.3c0.8,0.1,1.5,0.2,2.3,0.3C391.9,845.4,391.2,845.4,390.4,845.3z"/>
	<path class="st34" d="M387.5,845.1c0.4,0,0.8,0,1.1,0.1C388.2,845.1,387.9,845.1,387.5,845.1z"/>
	<path class="st34" d="M406.1,848.6c-4-1.3-8.1-2.3-12.4-2.9c2.7,0.4,5.6,0.9,8.3,1.7C403.5,847.7,404.9,848.1,406.1,848.6z"/>
	<path class="st34" d="M384.4,845c-0.3,0-0.5,0-0.8,0c0.4,0,0.9,0,1.2,0C384.6,845,384.6,845,384.4,845z"/>
	<path class="st34" d="M448.8,890.6c-2.9-4.7-40.3-61-109.3-28.8c10.9-9.5,24.5-15.3,39-16.5c-35.1,2.8-62.7,32.2-62.7,68
		c0,37.7,30.6,68.3,68.3,68.3c19.3,0,36.7-7.9,49.1-20.8c-16.7,17.2-42,25-66.7,18.4c-24.4-6.5-42.2-25.5-48.3-48.3
		c0,0,36.5,79.6,115.7,29.3c11.6-12.3,18.7-28.8,18.7-47C452.7,905.4,451.3,897.7,448.8,890.6z"/>
	<path class="st34" d="M379,845.2c1-0.1,2-0.1,3-0.2C381,845.1,379.9,845.2,379,845.2z"/>
	<path class="st34" d="M410.7,850.3c0.2,0.1,0.4,0.1,0.5,0.2C411.1,850.4,410.9,850.4,410.7,850.3z"/>
	<path class="st34" d="M406.6,848.7c0.6,0.2,1.2,0.4,1.8,0.7C407.7,849.1,407.1,848.8,406.6,848.7z"/>
	<path class="st35" d="M382,845.1c0.6,0,1.1,0,1.6,0C383,845,382.5,845,382,845.1z"/>
	<path class="st35" d="M378.7,845.3c0.1,0,0.2,0,0.3,0C378.9,845.3,378.8,845.3,378.7,845.3z"/>
	<path class="st35" d="M448.8,890.6c0.1,0.2,0.2,0.3,0.2,0.3c-6.1-17.9-19.7-32.8-37.8-40.5C428.7,857.9,442.5,872.6,448.8,890.6z"
		/>
	<path class="st35" d="M406.1,848.6c0.1,0,0.3,0.1,0.4,0.1C406.4,848.7,406.3,848.6,406.1,848.6z"/>
	<path class="st35" d="M392.7,845.5c0.4,0,0.8,0.1,1.1,0.2C393.4,845.5,393.1,845.5,392.7,845.5z"/>
	<path class="st35" d="M408.4,849.3c0.9,0.3,1.6,0.7,2.4,0.9C410,849.9,409.1,849.6,408.4,849.3z"/>
	<path class="st35" d="M388.6,845.2c0.6,0,1.2,0.1,1.8,0.1C389.8,845.2,389.2,845.2,388.6,845.2z"/>
	<path class="st35" d="M384.8,845c0.9,0,1.7,0,2.6,0.1C386.5,845,385.7,845,384.8,845z"/>
	<path class="st34" d="M448.8,890.6c-6.3-18.1-20.1-32.6-37.6-40.2c-0.2-0.1-0.3-0.2-0.5-0.2c-0.8-0.4-1.6-0.7-2.4-0.9
		c-0.6-0.2-1.2-0.5-1.8-0.7c-0.1,0-0.3-0.1-0.4-0.1c-1.3-0.5-2.6-0.9-4-1.2c-2.7-0.8-5.6-1.3-8.3-1.7c-0.4-0.1-0.8-0.1-1.1-0.2
		c-0.8-0.1-1.5-0.2-2.3-0.3c-0.6-0.1-1.2-0.1-1.8-0.1c-0.4,0-0.8-0.1-1.1-0.1c-0.9,0-1.7-0.1-2.6-0.1c-0.4,0-0.9,0-1.2,0
		c-0.6,0-1.1,0-1.6,0c-1,0-2,0.1-3,0.2c-0.1,0-0.2,0-0.3,0c-14.6,1.2-28.3,7.2-39,16.5C408.6,829.7,445.9,885.9,448.8,890.6z"/>
	<path class="st35" d="M448.8,890.6c-6.3-18.1-20.1-32.6-37.6-40.2c-0.2-0.1-0.3-0.2-0.5-0.2c-0.8-0.4-1.6-0.7-2.4-0.9
		c-0.6-0.2-1.2-0.5-1.8-0.7c-0.1,0-0.3-0.1-0.4-0.1c-1.3-0.5-2.6-0.9-4-1.2c-2.7-0.8-5.6-1.3-8.3-1.7c-0.4-0.1-0.8-0.1-1.1-0.2
		c-0.8-0.1-1.5-0.2-2.3-0.3c-0.6-0.1-1.2-0.1-1.8-0.1c-0.4,0-0.8-0.1-1.1-0.1c-0.9,0-1.7-0.1-2.6-0.1c-0.4,0-0.9,0-1.2,0
		c-0.6,0-1.1,0-1.6,0c-1,0-2,0.1-3,0.2c-0.1,0-0.2,0-0.3,0c-14.6,1.2-28.3,7.2-39,16.5C408.6,829.7,445.9,885.9,448.8,890.6z"/>
	<path class="st36" d="M434,960.4L434,960.4c-0.2,0.2-0.4,0.4-0.6,0.6C433.6,960.8,433.8,960.6,434,960.4z"/>
	<path class="st34" d="M318.4,931c6.1,22.8,23.9,41.8,48.3,48.3c24.8,6.6,50-1.2,66.7-18.4c0.2-0.2,0.4-0.4,0.6-0.6
		C354.9,1010.7,318.4,931,318.4,931z"/>
	<path class="st36" d="M318.4,931c6.1,22.8,23.9,41.8,48.3,48.3c24.8,6.6,50-1.2,66.7-18.4c0.2-0.2,0.4-0.4,0.6-0.6
		C354.9,1010.7,318.4,931,318.4,931z"/>
	<path class="st34" d="M744.9,769c-15.6,13.5-25.5,33.6-25.5,55.9c0,6.7,0.9,13.1,2.6,19.4c2.1,4.3,29.6,59.1,86,48
		c21.5-30.1,38.6-62.8,51.1-97.2C847.3,779.7,808.6,739.3,744.9,769z"/>
	<path class="st35" d="M812.4,753.5c-24.7-6.6-49.7,0.1-67.6,15.6c0,0,0.1,0,0.1-0.1c12.9-11.2,29.8-18,48.3-18
		c29.4,0,54.7,17.2,66.6,42.1V793C850.9,774.2,834.1,759.3,812.4,753.5z"/>
	<path class="st34" d="M793.2,751c-18.4,0-35.3,6.8-48.3,18c63.6-29.6,102.4,10.6,114.3,26c0.3-0.7,0.5-1.3,0.8-2
		C848,768.2,822.6,751,793.2,751z"/>
	<path class="st35" d="M793.2,751c-18.4,0-35.3,6.8-48.3,18c63.6-29.6,102.4,10.6,114.3,26c0.3-0.7,0.5-1.3,0.8-2
		C848,768.2,822.6,751,793.2,751z"/>
	<path class="st36" d="M722,844.2c-0.1-0.2-0.1-0.3-0.1-0.3c6.6,24.7,25.8,45.2,52.3,52.3c10,2.6,20,3.2,29.7,1.8l0.1-0.1
		c-3.5,0.5-7,0.8-10.6,0.8C759.2,898.7,730.5,875.6,722,844.2z"/>
	<path class="st34" d="M722,844.2c8.5,31.4,37.1,54.4,71.3,54.4c3.6,0,7.2-0.3,10.6-0.8c1.4-1.9,2.7-3.8,4.2-5.7
		C751.6,903.3,724.1,848.5,722,844.2z"/>
	<path class="st36" d="M722,844.2c8.5,31.4,37.1,54.4,71.3,54.4c3.6,0,7.2-0.3,10.6-0.8c1.4-1.9,2.7-3.8,4.2-5.7
		C751.6,903.3,724.1,848.5,722,844.2z"/>
</g>
<g>
	<path class="st34" d="M872.3,449c0-29-31-52.8-68.8-52.8H142.3c-37.9,0-68.8,23.7-68.8,52.8c0,29.1,31,52.8,68.8,52.8h661.1
		C841.3,501.9,872.3,478.1,872.3,449z"/>
</g>
<g>
	<path class="st32" d="M899.2,438.4c0-31.4-33.2-57.1-73.7-57.1H126.6c-40.5,0-73.7,25.7-73.7,57.1s33.2,57.1,73.7,57.1h698.8
		C865.9,495.5,899.2,469.8,899.2,438.4z"/>
</g>
<line class="st37" x1="132.3" y1="406.3" x2="573.1" y2="406.3"/>
<path class="st38" d="M560.6,396.2"/>
<line class="st39" x1="604.9" y1="406.3" x2="636.7" y2="406.3"/>
<line class="st40" x1="669.3" y1="406.3" x2="807.5" y2="406.3"/>
<g>
	<g>
		<circle class="st41" cx="567.1" cy="640.5" r="104.5"/>
		<g>
			<path class="st42" d="M568.6,604l23.6,23.6c0.8,0.8,2.2,0.8,3.1,0l12.5-12.5c0.8-0.8,0.8-2.2,0-3.1l-39.2-39.2
				c-0.8-0.8-2.2-0.8-3.1,0L526.3,612c-0.8,0.8-0.8,2.2,0,3.1l12.5,12.5c0.8,0.8,2.2,0.8,3.1,0l23.6-23.6
				C566.4,603.2,567.8,603.2,568.6,604z"/>
			<path class="st42" d="M512.3,626.2l-12.5,12.5c-0.8,0.8-0.8,2.2,0,3.1l12.5,12.5c0.8,0.8,2.2,0.8,3.1,0l12.5-12.5
				c0.8-0.8,0.8-2.2,0-3.1l-12.5-12.5C514.5,625.3,513.1,625.3,512.3,626.2z"/>
			<path class="st42" d="M568.6,707.4l39.2-39.2c0.8-0.8,0.8-2.2,0-3.1l-12.5-12.5c-0.8-0.8-2.2-0.8-3.1,0l-23.6,23.6
				c-0.8,0.8-2.2,0.8-3.1,0l-23.6-23.6c-0.8-0.8-2.2-0.8-3.1,0l-12.5,12.5c-0.8,0.8-0.8,2.2,0,3.1l39.2,39.2
				C566.4,708.4,567.8,708.4,568.6,707.4L568.6,707.4z"/>
			<path class="st42" d="M618.9,626.2l-12.5,12.5c-0.8,0.8-0.8,2.2,0,3.1l12.5,12.5c0.8,0.8,2.2,0.8,3.1,0l12.5-12.5
				c0.8-0.8,0.8-2.2,0-3.1L622,626.2C621.1,625.3,619.7,625.3,618.9,626.2z"/>
			<path class="st42" d="M581.4,638.7L568.7,626c-0.8-0.8-2.2-0.8-3.1,0l-12.7,12.7c-0.8,0.8-0.8,2.2,0,3.1l12.7,12.7
				c0.8,0.8,2.2,0.8,3.1,0l12.7-12.7C582.2,640.9,582.2,639.5,581.4,638.7L581.4,638.7z"/>
		</g>
	</g>
	<circle class="st43" cx="386.9" cy="639.5" r="104.5"/>
	<g>
		<path class="st27" d="M432.8,693.6L432.8,693.6c-1.4,0.5-2.7,1-4.1,1.5C430.1,694.6,431.4,694.1,432.8,693.6z"/>
		<path class="st27" d="M340.9,695.1c-1.9-0.7-3.2-1.3-3.9-1.5l0,0.1C337.9,694,339.2,694.5,340.9,695.1z"/>
		<path class="st27" d="M384.9,535c-57.7,0-104.5,46.8-104.5,104.5c0,32,14.4,60.7,37.1,79.9c4.2-12,13.5-23,18.8-28.7
			c-0.1-2.5,0.2-6.6,2.1-11.7c0.8,3.5,7.8,5.8,13.8,7.2c8.7,2,20.4,3,32.7,3s24-1.1,32.7-3c6-1.3,13.1-3.7,13.8-7.2
			c1.8,5,2.1,9.1,2.1,11.7c5.3,5.6,14.6,16.7,18.8,28.7c22.7-19.2,37.1-47.8,37.1-79.9C489.4,581.8,442.6,535,384.9,535z M450.5,641
			c-4.4,13.4-13.4,24.9-25.2,33c3.4,1.4,5.3,3,5.3,4.5c0,4.7-18.3,9.8-45.6,9.8c-27.3,0-45.6-5.1-45.6-9.8c0-1.5,1.9-3.1,5.3-4.5
			c-11.8-8.1-20.8-19.6-25.2-33c-10.8-0.9-19.3-10-19.3-21.1c0-11.6,9.3-21,20.8-21.2c9.9-24.2,34.9-41.3,64.1-41.3
			c29.2,0,54.2,17.1,64.1,41.3c11.5,0.2,20.8,9.6,20.8,21.2C469.8,631,461.3,640.1,450.5,641z"/>
		<path class="st28" d="M320.8,598.7c-11.5,0.2-20.8,9.6-20.8,21.2c0,11.1,8.5,20.2,19.3,21.1c-2-6.1-3.1-12.5-3.1-19.2
			C316.3,613.7,317.9,605.9,320.8,598.7z M309.7,629.4c-2.1,0-3.9-1.7-3.9-3.9s1.7-3.9,3.9-3.9c2.1,0,3.9,1.7,3.9,3.9
			S311.8,629.4,309.7,629.4z M309.7,618.2c-2.1,0-3.9-1.7-3.9-3.9c0-2.1,1.7-3.9,3.9-3.9c2.1,0,3.9,1.7,3.9,3.9
			C313.5,616.5,311.8,618.2,309.7,618.2z"/>
		<ellipse class="st29" cx="309.7" cy="614.4" rx="3.9" ry="3.9"/>
		<ellipse class="st29" cx="309.7" cy="625.5" rx="3.9" ry="3.9"/>
		<path class="st29" d="M323.6,722.7c-0.1,0.4-0.2,0.8-0.3,1.2c1.6,1.2,3.2,2.3,4.9,3.4c0.7-7.1,1.9-13.6,3.1-18.9
			C327.9,712.7,325.1,717.6,323.6,722.7z"/>
		<path class="st29" d="M433.3,693.3c-0.2,0.1-0.3,0.1-0.5,0.2l0,0c-1.4,0.5-2.7,1-4.1,1.5c-1.2,0.4-2.4,0.8-3.6,1.2
			c2.9,13.7,10.6,24.5,16.5,31.1c0,0,0.1,0,0.1-0.1c-0.7-7.1-1.9-13.6-3.1-18.9c3.3,4.4,6.2,9.3,7.7,14.4c0.1,0.4,0.2,0.8,0.3,1.2
			c2-1.4,3.9-2.9,5.7-4.5c-4.2-12-13.5-23-18.8-28.7C433.5,692.4,433.3,693.3,433.3,693.3z"/>
		<path class="st29" d="M438.6,708.3c1.2,5.4,2.4,11.8,3.1,18.9c1.7-1.1,3.3-2.2,4.9-3.4c-0.1-0.4-0.2-0.8-0.3-1.2
			C444.7,717.6,441.9,712.7,438.6,708.3z"/>
		<path class="st28" d="M344.6,674c-3.4,1.4-5.3,3-5.3,4.5c0,4.7,18.3,9.8,45.6,9.8c27.3,0,45.6-5.1,45.6-9.8c0-1.5-1.9-3.1-5.3-4.5
			c-11.3,7.7-25.3,12.3-40.3,12.3S355.9,681.7,344.6,674z"/>
		<path class="st29" d="M344.7,696.3c-1.4-0.4-2.6-0.9-3.7-1.2c-1.7-0.6-3-1.1-3.9-1.5l0-0.1c-0.3-0.1-0.5-0.2-0.5-0.2
			s-0.2-0.9-0.2-2.6c-5.3,5.6-14.6,16.7-18.8,28.7c1.9,1.6,3.8,3.1,5.7,4.5c0.1-0.4,0.2-0.8,0.3-1.2c1.5-5.1,4.3-10,7.7-14.4
			c-1.2,5.4-2.4,11.8-3.1,18.9c0,0,0.1,0,0.1,0.1c1.1-1.2,2.3-2.6,3.5-4.1C336.3,717.2,342.2,707.8,344.7,696.3z"/>
		<path class="st29" d="M354.6,699c-3.2,14.5-10.9,26-17.3,33.6c14.3,7.3,30.5,11.5,47.7,11.5c17.2,0,33.4-4.1,47.7-11.5
			c-6.4-7.6-14.1-19.1-17.3-33.6C390.7,704.6,369.1,702.3,354.6,699z"/>
		<path class="st28" d="M428.7,695c1.3-0.5,2.7-1,4-1.5c0.2-0.1,0.3-0.1,0.5-0.2c0,0,0.2-0.9,0.2-2.6c0.1-2.5-0.2-6.6-2.1-11.7
			c-0.8,3.5-7.8,5.8-13.8,7.2c-8.7,2-20.4,3-32.7,3s-24-1.1-32.7-3c-6-1.3-13.1-3.7-13.8-7.2c-1.8,5-2.1,9.1-2.1,11.7
			c0,1.7,0.2,2.6,0.2,2.6s0.2,0.1,0.5,0.2c0.7,0.3,2,0.8,3.9,1.5c1.1,0.4,2.3,0.8,3.7,1.2c-2.5,11.5-8.3,20.8-13,26.8
			c-1.2,1.5-2.3,2.9-3.5,4.1c2.9,1.9,5.9,3.6,9,5.2c6.4-7.6,14.1-19.1,17.3-33.6c14.5,3.3,36.2,5.6,60.7,0
			c3.2,14.5,10.9,26,17.3,33.6c3.1-1.6,6.1-3.3,9-5.2c-5.9-6.6-13.6-17.4-16.5-31.1C426.3,695.8,427.5,695.5,428.7,695z"/>
		<path class="st28" d="M449,598.7c2.9,7.2,4.6,15,4.6,23.1c0,6.7-1.1,13.1-3.1,19.2c10.8-0.9,19.3-10,19.3-21.1
			C469.8,608.3,460.5,598.9,449,598.7z M460.2,610.5c2.1,0,3.9,1.7,3.9,3.9s-1.7,3.9-3.9,3.9s-3.9-1.7-3.9-3.9
			S458,610.5,460.2,610.5z M460.2,629.4c-2.1,0-3.9-1.7-3.9-3.9s1.7-3.9,3.9-3.9s3.9,1.7,3.9,3.9C464,627.6,462.3,629.4,460.2,629.4
			z"/>
		<ellipse class="st29" cx="460.2" cy="625.5" rx="3.9" ry="3.9"/>
		<ellipse class="st29" cx="460.2" cy="614.3" rx="3.9" ry="3.9"/>
		<path class="st29" d="M449,598.7c-9.9-24.2-34.9-41.3-64.1-41.3c-29.2,0-54.2,17.1-64.1,41.3c-2.9,7.2-4.6,15-4.6,23.1
			c0,6.7,1.1,13.1,3.1,19.2c4.4,13.4,13.4,24.9,25.2,33c11.3,7.7,25.3,12.3,40.3,12.3s29-4.6,40.3-12.3c11.8-8.1,20.8-19.6,25.2-33
			c2-6.1,3.1-12.5,3.1-19.2C453.5,613.7,451.9,605.9,449,598.7z M384.9,669.1c-46.1,0-58.6-22.2-58.6-49.6s26.2-49.6,58.6-49.6
			s58.6,22.2,58.6,49.6S431,669.1,384.9,669.1z"/>
		<path class="st28" d="M443.5,618.3c-0.6-20.8-16.4-38.5-38.4-45.3c-0.5-0.2-1.1-0.3-1.6-0.5c-1.2-0.3-2.4-0.6-3.6-0.9
			c-0.6-0.1-1.1-0.2-1.7-0.4c-0.5-0.1-0.9-0.2-1.4-0.3c-0.5-0.1-1.1-0.2-1.6-0.3c-0.9-0.1-1.8-0.3-2.7-0.4c-1-0.1-2-0.2-3-0.3
			c-1-0.1-2-0.1-3-0.1c-0.5,0-1,0-1.5,0c-0.5,0-1,0-1.5,0c-1,0-2,0.1-3,0.1c-1.5,0.1-3,0.2-4.4,0.4c-28.1,3.6-49.7,24.2-49.7,49l0,0
			l0,0c0,27.4,12.5,49.6,58.6,49.6s58.6-22.2,58.6-49.6C443.5,619.1,443.5,618.7,443.5,618.3z"/>
		<path class="st30" d="M323.6,722.7c-0.1,0.4-0.2,0.8-0.3,1.2c1.6,1.2,3.2,2.3,4.9,3.4c0.7-7.1,1.9-13.6,3.1-18.9
			C327.9,712.7,325.1,717.6,323.6,722.7z"/>
		<path class="st30" d="M438.6,708.3c1.2,5.4,2.4,11.8,3.1,18.9c1.7-1.1,3.3-2.2,4.9-3.4c-0.1-0.4-0.2-0.8-0.3-1.2
			C444.7,717.6,441.9,712.7,438.6,708.3z"/>
	</g>
</g>
</svg>
