<svg xmlns="http://www.w3.org/2000/svg" x="0" y="0" version="1.1" viewBox="0 0 952 1082"><style>.st5{fill:#fff}.st10{opacity:.45}.st11{fill:#e5ac23}.st13{opacity:.2}.st16,.st17,.st18{stroke:#000;stroke-miterlimit:10}.st17{opacity:.3;enable-background:new}.st18{fill:none;stroke-width:10.6772;stroke-linecap:round}.st19{opacity:.1;stroke:#000;enable-background:new;stroke-miterlimit:10}.st22{fill:#948fc4}.st23{opacity:.3;fill:#635ea8;enable-background:new}.st24{fill:none;stroke:#5f6062;stroke-width:10.6772;stroke-linecap:round;stroke-miterlimit:10}.st25{fill:#9590c5}.st26{fill:#635da8}.st27{fill:#e7e5ea}.st28{opacity:.1;fill:#635da8;enable-background:new}.st33{fill:#5d6e9d}.st35{fill:#455477}.st36,.st37{opacity:.5;fill:#2e374f;enable-background:new}.st37{opacity:.15;fill:#fff}</style><path fill="#fff" stroke="#fff" stroke-miterlimit="10" stroke-width="45.8" d="M618.4 177.1c-56.4 0-106.8 25.3-140.7 65.1-20.7-24.8-51.9-40.6-86.8-40.6-62.4 0-113 50.6-113 113 0 1 .1 2 .1 3.1-6-1-12.1-1.5-18.4-1.5-61.6 0-111.4 49.9-111.4 111.4 0 0 222.9 3.1 222.8 3.1h75.9c27.3 68 93.8 116 171.5 116 102 0 184.7-82.7 184.7-184.7s-82.7-184.9-184.7-184.9z"/><path fill="#fff" stroke="#fff" stroke-miterlimit="10" stroke-width="33.587" d="M845.1 499c85.7 195.4 3.9 425.8-189 522.3-199.2 99.7-441.4 19-541.1-180.2-55.6-111.1-55.1-235.6-9.2-341.2"/><path d="M893.8 446.7c0-31.1-32.8-56.5-72.9-56.5H130.3c-40.1 0-72.9 25.4-72.9 56.5s32.8 56.5 72.9 56.5H821c40 0 72.8-25.4 72.8-56.5z" class="st5"/><path fill="none" stroke="#fff" stroke-miterlimit="10" stroke-width="33.587" d="M893.8 446.7c0-31.1-32.8-56.5-72.9-56.5H130.3c-40.1 0-72.9 25.4-72.9 56.5s32.8 56.5 72.9 56.5H821c40 0 72.8-25.4 72.8-56.5z"/><path fill="#e5ac23" stroke="#e5ac23" stroke-miterlimit="10" stroke-width="12.213" d="M618.4 177.1c-56.4 0-106.8 25.3-140.7 65.1-20.7-24.8-51.9-40.6-86.8-40.6-62.4 0-113 50.6-113 113 0 1 .1 2 .1 3.1-6-1-12.1-1.5-18.4-1.5-61.6 0-111.4 49.9-111.4 111.4 0 0 222.9 3.1 222.8 3.1h75.9c27.3 68 93.8 116 171.5 116 102 0 184.7-82.7 184.7-184.7s-82.7-184.9-184.7-184.9z"/><path fill="#efc51a" d="M618.4 177.1c-56.4 0-106.8 25.3-140.7 65.1-20.7-24.8-51.9-40.6-86.8-40.6-62.4 0-113 50.6-113 113 0 1 .1 2 .1 3.1-6-1-12.1-1.5-18.4-1.5-61.6 0-111.4 49.9-111.4 111.4 0 0 222.9 3.1 222.8 3.1h75.9c27.3 68 93.8 116 171.5 116 102 0 184.7-82.7 184.7-184.7s-82.7-184.9-184.7-184.9z"/><g class="st10"><path d="M497.4 252.6c19.5-23.9 47.1-41.7 77.6-50.1 7.6-2.2 15.4-3.6 23.2-4.7l5.9-.6 3-.3 3-.1 5.9-.2 5.9.1c15.9.3 31.7 3.1 46.8 8 30.3 9.8 57.4 29 76.7 53.9 9.8 12.4 17.5 26.3 23.2 40.9 2.7 7.3 5 14.8 6.6 22.4s2.6 15.3 3 23c-5.9-30.3-19.5-58.4-39.2-81s-45.3-39.8-73.6-49c-14.1-4.6-28.9-7.3-43.8-8l-5.6-.2-5.6.1h-2.8l-2.8.2-5.6.3-5.6.6c-.9.1-1.9.2-2.8.3l-2.8.4c-1.8.3-3.7.6-5.5.9l-5.5 1.2c-29.3 6.4-56.9 21.1-79.6 41.9z" class="st11"/></g><g class="st10"><path d="M315 268.5c8.6-19.2 25.4-35.1 45.8-43 5.1-1.9 10.3-3.6 15.8-4.5 2.7-.6 5.4-.8 8.2-1.2 1.4-.1 2.7-.2 4.1-.3s2.8-.2 4.1-.1c11-.1 22.1 2 32.4 6 20.7 7.9 38.1 23.8 47.8 43.5 2.4 4.9 4.4 10 5.8 15.2s2.4 10.6 2.8 15.9c.8 10.7-.3 21.5-3.6 31.5 2.2-20.9-2.2-41.6-12.4-58.7-10.2-17-26-30.5-44.3-37.5-4.6-1.8-9.3-3.1-14.1-4.1-4.8-1-9.7-1.5-14.6-1.7-9.9-.4-19.7 1.1-29.3 3.8-18.9 5.9-36 18.3-48.5 35.2z" class="st11"/></g><g class="st10"><path d="M228.5 338c7.3-4.7 15.9-7.3 24.8-7.9 8.8-.6 17.9.5 26.3 3.7 4.2 1.5 8.2 3.6 12.1 5.8l2.8 1.9 1.4.9 1.3 1 2.6 2.1 2.4 2.3 1.2 1.1 1.1 1.2c.7.8 1.5 1.6 2.2 2.5 1.3 1.8 2.7 3.4 3.9 5.3l1.7 2.8c.5 1 1 1.9 1.5 2.9 1 1.9 1.7 4 2.4 6-3.3-2.9-6.2-5.8-9.5-8.3l-1.2-1-1.2-.9-2.4-1.8c-1.7-1.1-3.2-2.4-4.9-3.4-3.3-2.2-6.8-4.1-10.2-5.9-1.8-.8-3.5-1.8-5.3-2.4l-2.7-1.2-2.7-1c-7.3-2.7-14.9-4.4-22.8-5.3-8.1-.9-16.2-.8-24.8-.4z" class="st11"/></g><g class="st13"><path d="M104.1 311.7c.9 3.5 5.1 26.4-33.5 28.5-2.8.2-5.4-1.6-6.3-4.3L8.7 158.6c-1-3.1.6-6.3 3.5-7.6l19.3-8.2c3.2-1.4 6.9.2 8.2 3.5L103.9 311c.1.2.1.5.2.7z" class="st16"/><path d="M104.1 311.7c.9 3.5 5.1 26.4-33.5 28.5-2.8.2-5.4-1.6-6.3-4.3L8.7 158.6c-1-3.1.6-6.3 3.5-7.6l19.3-8.2c3.2-1.4 6.9.2 8.2 3.5L103.9 311c.1.2.1.5.2.7z" class="st17"/><path d="M90.1 326.5c22-31.8 78-55.5 168.2-59.7 90.1-4.2 115.6-60.3 115.6-60.3L313.3 15.9S287.8 72 197.7 76.2c-77.6 3.6-129.9 21.7-157 46.9-7.2 6.7-9.8 17-6.8 26.3l56.2 177.1z" class="st16"/><path d="M141.7 274.9c29.4-14.3 61.6-20.6 92.8-29.3 26.3-7.3 58.1-16.6 72.4-42.1 6.7-12 9.8-26.5 12.2-39.9 2.7-15.6 3.2-31.5 2.6-47.3-1.3-32.4 1.1-66.4-8.4-97.7-.2-.5-.3-1-.6-1.3.4-.8.7-1.3.7-1.3L374 206.7s-25.5 56.1-115.6 60.3S112 294.7 90.1 326.5l-1.8-5.8c12.3-20.1 31.8-35.3 53.4-45.8z" class="st17"/><path d="m314.6 8 214.5 660.1" class="st18"/><path d="M175.2 209.9c-.9 0-1.8-.1-2.6-.1.8.1 1.7.1 2.6.1zm53.2-18.2c-.4.3-1 .8-2 1.6.9-.7 1.5-1.2 2-1.6z" class="st16"/><path d="M129.3 189c6.1 18.7 19.9 32.6 36.7 39.5.2-7.8 3.5-16 5.5-20.3-.5-1.4-1.1-3.9-1-7.2 1.1 1.9 5.7 1.9 9.4 1.6 5.5-.5 12.5-2.1 19.7-4.4 7.2-2.3 13.8-5.2 18.5-8 3.2-1.9 6.9-4.6 6.7-6.8 2 2.6 3 4.9 3.4 6.4 4.2 2.3 11.7 7 16.4 13.1 9.6-15.5 12.6-34.9 6.5-53.6-10.9-33.6-47.1-52.1-80.7-41.1s-52 47.2-41.1 80.8zm7.7-15.1c-2.2-6.7 1.4-14 8.1-16.3 1.2-16 12.5-30.7 29.5-36.2s34.8-.3 45.2 11.9c6.8-2.1 14 1.6 16.1 8.4 2.1 6.5-1.1 13.4-7.3 16-.1 8.6-3.1 17.1-8.5 24 2.3.2 3.7.7 3.9 1.6.9 2.8-8.8 9.2-24.7 14.4s-27.6 5.7-28.5 2.9c-.3-.9.5-2.1 2.2-3.6-8.4-2.5-15.8-7.5-20.9-14.4-6.3 1.4-13-2.2-15.1-8.7z" class="st16"/><path d="M226.9 145.9c1.3 3.9 1.9 7.8 1.8 11.8 6.1-2.6 9.4-9.5 7.3-16-2.2-6.7-9.4-10.5-16.1-8.4 3 3.7 5.4 7.9 7 12.6zm2.3 1.6c-.4-1.2.3-2.6 1.5-3s2.6.3 3 1.5-.3 2.6-1.5 3-2.6-.2-3-1.5zm-2.1-6.4c-.4-1.2.3-2.6 1.5-3s2.6.3 3 1.5-.3 2.6-1.5 3c-1.3.4-2.6-.3-3-1.5z" class="st16"/><circle cx="229.3" cy="140.3" r="2.4" class="st16"/><circle cx="231.4" cy="146.8" r="2.4" class="st16"/><path d="M234.5 199.2c1.7 2.9 3.6 6.5 5.4 10.4.8-.9 1.5-1.9 2.2-2.9-.1-.2-.3-.4-.4-.6-1.8-2.7-4.4-5-7.2-6.9zm-62.9 9.1c-2 4.3-5.4 12.5-5.5 20.3 1.4.6 2.8 1.1 4.2 1.5v-.8c-.1-3.3.6-6.6 1.8-9.8.3 3.4.9 7.4 1.8 11.6h.1c2.2-5 4.6-12.7 3.7-21.2h-2.3c-.9 0-1.8 0-2.6-.1h-.3c-.3 0-.6-.5-.9-1.5z" class="st16"/><path d="M170.2 229.4v.8c1.2.4 2.3.7 3.5 1-.9-4.3-1.4-8.3-1.8-11.6-1.1 3.1-1.8 6.5-1.7 9.8zm28.9-32.9c-8.8 2.9-17.8 2.8-25.8.5-1.7 1.5-2.5 2.7-2.2 3.6.9 2.8 12.6 2.3 28.5-2.9s25.6-11.6 24.7-14.4c-.3-.9-1.7-1.4-3.9-1.6-5.3 6.6-12.5 11.9-21.3 14.8zm38 11.4c1 .7 1.9 1.2 2.8 1.8v-.1c-1.8-4-3.7-7.5-5.4-10.4 2.8 1.9 5.3 4.3 7.2 6.9.1.2.3.4.4.6.9-1.2 1.7-2.5 2.5-3.7-4.7-6.2-12.2-10.9-16.4-13.1.3 1 .4 1.6.4 1.6s-.1.1-.3.2c-.5.4-1.1.9-2 1.6-.6.4-1.2.9-1.9 1.4 3.7 6.3 8.8 10.6 12.7 13.2zm-53.3 1.7c.9 9.1-1.4 17.2-3.7 22.9 9.7 1.6 20 .9 30-2.3 10-3.3 18.7-8.7 25.6-15.7-5.2-3.2-11.8-8.4-16.5-16.3-7.9 4.6-20 10.1-35.4 11.4z" class="st16"/><path d="M177.5 209.9c.9 8.5-1.5 16.3-3.7 21.2 2.1.5 4.1 1 6.3 1.3 2.3-5.6 4.6-13.8 3.7-22.9 15.4-1.3 27.5-6.8 35.4-11.5 4.6 7.8 11.3 13.1 16.5 16.3 1.5-1.5 2.9-3.1 4.3-4.8-.9-.5-1.8-1.1-2.8-1.8-3.9-2.6-9.1-7-12.7-13.2.7-.5 1.4-1 1.9-1.4 1-.8 1.7-1.3 2-1.6.2-.1.3-.2.3-.2s-.1-.6-.4-1.6c-.4-1.5-1.4-3.8-3.4-6.4.2 2.2-3.5 4.9-6.7 6.8-4.7 2.8-11.3 5.6-18.5 8-7.2 2.3-14.2 3.9-19.7 4.4-3.8.4-8.3.3-9.4-1.6-.1 3.3.5 5.7 1 7.2.3 1 .6 1.5.6 1.5h.3c.9.1 1.8.1 2.6.1.9.2 1.6.2 2.4.2zm-40.5-36c2.1 6.5 8.8 10.1 15.3 8.6-2.3-3.1-4.2-6.7-5.4-10.6-1.5-4.7-2.1-9.6-1.7-14.3-6.8 2.3-10.4 9.6-8.2 16.3zm6.8-5.8c.4 1.2-.3 2.6-1.5 3s-2.6-.3-3-1.5.3-2.6 1.5-3 2.6.2 3 1.5zm-2.4 8c-.4-1.2.3-2.6 1.5-3s2.6.3 3 1.5-.3 2.6-1.5 3-2.6-.3-3-1.5z" class="st16"/><circle cx="143.7" cy="175.3" r="2.4" class="st16"/><circle cx="141.6" cy="168.8" r="2.4" class="st16"/><path d="M146.9 172c1.3 3.9 3.1 7.4 5.4 10.6 5.1 7 12.5 12 20.9 14.4 8.1 2.4 17.1 2.4 25.8-.5 8.8-2.9 16-8.2 21.2-14.8 5.4-6.9 8.4-15.3 8.5-24 0-3.9-.6-7.9-1.8-11.8-1.5-4.7-4-9-7-12.6-10.3-12.2-28.1-17.5-45.2-11.9s-28.3 20.3-29.5 36.2c-.4 4.8.1 9.6 1.7 14.4zm5.4-3.3c-5.2-16 5.9-33.9 24.8-40 18.9-6.1 38.4 1.8 43.5 17.8s2.1 31.3-24.8 40-38.3-1.8-43.5-17.8z" class="st16"/><path d="M152.3 168.7c5.2 16 16.7 26.6 43.5 17.8s29.9-24 24.8-40c-4.7-14.5-21.2-22.4-38.2-19.2l-2.7.6c-.6.2-1.2.3-1.8.5l-.9.3-.9.3c-.6.2-1.2.4-1.7.6-.6.2-1.1.5-1.7.7-.5.2-1 .5-1.5.7-.3.1-.6.3-.9.5-.3.1-.5.3-.8.4-.3.2-.6.3-.9.5-.7.4-1.3.8-1.9 1.2l-.9.6c-11.5 8.1-17.4 21.4-13.8 33.7.1.3.2.5.3.8z" class="st16"/><path d="M234.5 199.2c1.7 2.9 3.6 6.5 5.4 10.4.8-.9 1.5-1.9 2.2-2.9-.1-.2-.3-.4-.4-.6-1.8-2.7-4.4-5-7.2-6.9zm-64.3 30.2v.8c1.2.4 2.3.7 3.5 1-.9-4.3-1.4-8.3-1.8-11.6-1.1 3.1-1.8 6.5-1.7 9.8z" class="st19"/></g><g class="st13"><path d="M847.1 311.7c-.9 3.5-5.1 26.4 33.5 28.5 2.8.2 5.4-1.6 6.3-4.3l55.6-177.3c1-3.1-.6-6.3-3.5-7.6l-19.3-8.2c-3.2-1.4-6.9.2-8.2 3.5L847.4 311c-.1.2-.2.5-.3.7z" class="st16"/><path d="M847.1 311.7c-.9 3.5-5.1 26.4 33.5 28.5 2.8.2 5.4-1.6 6.3-4.3l55.6-177.3c1-3.1-.6-6.3-3.5-7.6l-19.3-8.2c-3.2-1.4-6.9.2-8.2 3.5L847.4 311c-.1.2-.2.5-.3.7z" class="st17"/><path d="M861.2 326.5c-22-31.8-78-55.5-168.2-59.7-90.1-4.2-115.6-60.3-115.6-60.3L638 15.9S663.5 72 753.6 76.2c77.6 3.6 129.9 21.7 157 46.9 7.2 6.7 9.8 17 6.8 26.3l-56.2 177.1z" class="st16"/><path d="M809.6 274.9c-29.4-14.3-61.6-20.6-92.8-29.3-26.3-7.3-58.1-16.6-72.4-42.1-6.7-12-9.8-26.5-12.2-39.9-2.7-15.6-3.2-31.5-2.6-47.3 1.3-32.4-1.1-66.4 8.4-97.7.2-.5.3-1 .6-1.3-.4-.8-.7-1.3-.7-1.3l-60.6 190.7s25.5 56.1 115.6 60.3 146.2 27.9 168.2 59.7l1.8-5.8c-12.3-20.3-31.8-35.5-53.3-46z" class="st17"/><path d="M636.7 8 422.2 668.1" class="st18"/><path d="M778.7 209.8c-.9 0-1.8.1-2.6.1.8 0 1.7 0 2.6-.1zm-53.8-16.5c-1-.8-1.7-1.3-2-1.6.4.4 1.1.9 2 1.6z" class="st16"/><path d="M780.8 108.3c-33.6-10.9-69.8 7.5-80.7 41.1-6.1 18.7-3.1 38.1 6.5 53.6 4.7-6.2 12.2-10.9 16.4-13.1.4-1.5 1.4-3.8 3.4-6.4-.2 2.2 3.5 4.9 6.7 6.8 4.7 2.8 11.3 5.6 18.5 8s14.2 3.9 19.7 4.4c3.8.4 8.3.3 9.4-1.6.1 3.3-.5 5.7-1 7.2 2 4.3 5.3 12.5 5.5 20.3 16.9-6.9 30.7-20.9 36.7-39.5 11-33.7-7.4-69.8-41.1-80.8zm18.2 74.2c-5.1 7-12.5 12-20.9 14.4 1.7 1.5 2.5 2.7 2.2 3.6-.9 2.8-12.6 2.3-28.5-2.9s-25.6-11.6-24.7-14.4c.3-.9 1.7-1.4 3.9-1.6-5.4-6.9-8.4-15.3-8.5-24-6.1-2.6-9.4-9.5-7.3-16 2.2-6.7 9.4-10.5 16.1-8.4 10.3-12.2 28.1-17.5 45.2-11.9s28.3 20.3 29.5 36.2c6.7 2.3 10.3 9.5 8.1 16.3-2 6.6-8.6 10.2-15.1 8.7z" class="st16"/><path d="M731.4 133.3c-6.8-2.1-14 1.6-16.1 8.4-2.1 6.5 1.1 13.4 7.3 16 0-3.9.6-7.9 1.8-11.8 1.5-4.7 3.9-8.9 7-12.6zm-12.3 15.8c-1.2-.4-1.9-1.7-1.5-3 .4-1.2 1.7-1.9 3-1.5 1.2.4 1.9 1.7 1.5 3-.4 1.2-1.8 1.9-3 1.5zm2.1-6.5c-1.2-.4-1.9-1.7-1.5-3 .4-1.2 1.7-1.9 3-1.5s1.9 1.7 1.5 3c-.4 1.2-1.8 1.9-3 1.5z" class="st16"/><circle cx="721.9" cy="140.3" r="2.4" class="st16"/><circle cx="719.8" cy="146.8" r="2.4" class="st16"/><path d="M709.5 206.1c-.1.2-.3.4-.4.6.7 1 1.4 1.9 2.2 2.9 1.8-4 3.7-7.5 5.4-10.4-2.8 1.9-5.3 4.2-7.2 6.9zm69.6 3.7h-.3c-.9 0-1.8.1-2.6.1h-2.3c-.9 8.5 1.5 16.3 3.7 21.2h.1c.9-4.3 1.4-8.3 1.8-11.6 1.1 3.2 1.8 6.6 1.8 9.8v.8l4.2-1.5c-.2-7.8-3.5-16-5.5-20.3-.7 1-.9 1.5-.9 1.5z" class="st16"/><path d="M779.3 219.5c-.3 3.4-.8 7.4-1.8 11.6 1.2-.3 2.3-.7 3.5-1v-.8c.1-3.2-.6-6.6-1.7-9.8zM731 181.7c-2.3.2-3.7.7-3.9 1.6-.9 2.8 8.8 9.2 24.7 14.4s27.6 5.7 28.5 2.9c.3-.9-.5-2.1-2.2-3.6-8.1 2.4-17.1 2.4-25.8-.5-8.9-2.9-16.2-8.2-21.3-14.8zm-4.2 13c-.7-.5-1.4-1-1.9-1.4-.9-.7-1.6-1.2-2-1.6-.2-.1-.3-.2-.3-.2s.1-.6.4-1.6c-4.2 2.3-11.7 7-16.4 13.1.8 1.3 1.6 2.5 2.5 3.7.1-.2.3-.4.4-.6 1.8-2.7 4.4-5 7.2-6.9-1.7 2.9-3.6 6.5-5.4 10.4v.1c.9-.5 1.8-1.1 2.8-1.8 3.9-2.6 9.1-6.9 12.7-13.2zm5.3 3.5c-4.6 7.8-11.3 13.1-16.5 16.3 6.9 7 15.6 12.5 25.6 15.7 10 3.3 20.3 3.9 30 2.3-2.3-5.6-4.6-13.8-3.7-22.9-15.4-1.3-27.6-6.8-35.4-11.4z" class="st16"/><path d="M776.1 209.9c.9 0 1.8-.1 2.6-.1h.3s.3-.5.6-1.5c.5-1.4 1.1-3.9 1-7.2-1.1 1.9-5.7 1.9-9.4 1.6-5.5-.5-12.5-2.1-19.7-4.4-7.2-2.3-13.8-5.2-18.5-8-3.2-1.9-6.9-4.6-6.7-6.8-2 2.6-3 4.9-3.4 6.4-.3 1-.4 1.6-.4 1.6s.1.1.3.2c.3.3 1 .9 2 1.6.6.4 1.2.9 1.9 1.4-3.6 6.2-8.8 10.6-12.7 13.2-1 .7-1.9 1.2-2.8 1.8 1.3 1.7 2.8 3.2 4.3 4.8 5.2-3.2 11.8-8.4 16.5-16.3 7.8 4.7 20 10.1 35.4 11.5-.9 9.1 1.4 17.2 3.7 22.9 2.1-.3 4.2-.8 6.3-1.3-2.2-5-4.6-12.7-3.7-21.2.8-.2 1.6-.2 2.4-.2zm30-52.3c.4 4.7-.2 9.6-1.7 14.3-1.3 3.9-3.1 7.4-5.4 10.6 6.5 1.5 13.2-2.2 15.3-8.6 2.1-6.7-1.5-14-8.2-16.3zm4.3 9c1.2.4 1.9 1.7 1.5 3-.4 1.2-1.7 1.9-3 1.5-1.2-.4-1.9-1.7-1.5-3 .4-1.3 1.8-1.9 3-1.5zm-3.6 11c-1.2-.4-1.9-1.7-1.5-3 .4-1.2 1.7-1.9 3-1.5s1.9 1.7 1.5 3c-.4 1.2-1.7 1.9-3 1.5z" class="st16"/><circle cx="807.6" cy="175.3" r="2.4" class="st16"/><circle cx="809.7" cy="168.8" r="2.4" class="st16"/><path d="M806.1 157.6c-1.2-16-12.5-30.7-29.5-36.2s-34.8-.3-45.2 11.9c-3.1 3.6-5.5 7.9-7 12.6-1.3 3.9-1.9 7.8-1.8 11.8.1 8.6 3.1 17.1 8.5 24 5.1 6.7 12.4 11.9 21.2 14.8 8.8 2.9 17.8 2.8 25.8.5 8.4-2.5 15.8-7.5 20.9-14.4 2.3-3.1 4.2-6.7 5.4-10.6 1.5-4.8 2.1-9.6 1.7-14.4zm-50.7 28.9c-26.9-8.7-29.9-24-24.8-40 5.2-16 24.7-23.9 43.5-17.8s29.9 24 24.8 40-16.6 26.5-43.5 17.8z" class="st16"/><path d="M799.2 167.9c3.6-12.3-2.3-25.6-13.8-33.7l-.9-.6c-.6-.4-1.3-.8-1.9-1.2-.3-.2-.6-.4-.9-.5-.3-.1-.5-.3-.8-.4-.3-.2-.6-.3-.9-.5-.5-.2-1-.5-1.5-.7s-1.1-.5-1.7-.7c-.6-.2-1.1-.4-1.7-.6l-.9-.3-.9-.3c-.6-.2-1.2-.3-1.8-.5l-2.7-.6c-17.1-3.2-33.5 4.7-38.2 19.2-5.2 16-2.1 31.3 24.8 40s38.4-1.8 43.5-17.8c.1-.3.2-.5.3-.8z" class="st16"/><path d="M709.5 206.1c-.1.2-.3.4-.4.6.7 1 1.4 1.9 2.2 2.9 1.8-4 3.7-7.5 5.4-10.4-2.8 1.9-5.3 4.2-7.2 6.9zm69.8 13.4c-.3 3.4-.8 7.4-1.8 11.6 1.2-.3 2.3-.7 3.5-1v-.8c.1-3.2-.6-6.6-1.7-9.8z" class="st19"/></g><path d="M101.1 311.7c.9 3.5 5.1 26.4-33.5 28.5-2.8.2-5.4-1.6-6.3-4.3L5.7 158.6c-1-3.1.6-6.3 3.5-7.6l19.3-8.2c3.2-1.4 6.9.2 8.2 3.5L100.9 311c.1.2.1.5.2.7z" class="st22"/><path d="M101.1 311.7c.9 3.5 5.1 26.4-33.5 28.5-2.8.2-5.4-1.6-6.3-4.3L5.7 158.6c-1-3.1.6-6.3 3.5-7.6l19.3-8.2c3.2-1.4 6.9.2 8.2 3.5L100.9 311c.1.2.1.5.2.7z" class="st23"/><path d="M87.1 326.5c22-31.8 78-55.5 168.2-59.7 90.1-4.2 115.6-60.3 115.6-60.3L310.3 15.9S284.8 72 194.7 76.2c-77.6 3.6-129.9 21.7-157 46.9-7.2 6.7-9.8 17-6.8 26.3l56.2 177.1z" class="st22"/><path d="M138.7 274.9c29.4-14.3 61.6-20.6 92.8-29.3 26.3-7.3 58.1-16.6 72.4-42.1 6.7-12 9.8-26.5 12.2-39.9 2.7-15.6 3.2-31.5 2.6-47.3-1.3-32.4 1.1-66.4-8.4-97.7-.2-.5-.3-1-.6-1.3.4-.8.7-1.3.7-1.3L371 206.7s-25.5 56.1-115.6 60.3S109 294.7 87.1 326.5l-1.8-5.8c12.3-20.1 31.8-35.3 53.4-45.8z" class="st23"/><path d="m311.6 8 214.5 660.1" class="st24"/><path d="M172.2 209.9c-.9 0-1.8-.1-2.6-.1.8.1 1.7.1 2.6.1zm53.2-18.2c-.4.3-1 .8-2 1.6.9-.7 1.5-1.2 2-1.6z" class="st25"/><path d="M126.3 189c6.1 18.7 19.9 32.6 36.7 39.5.2-7.8 3.5-16 5.5-20.3-.5-1.4-1.1-3.9-1-7.2 1.1 1.9 5.7 1.9 9.4 1.6 5.5-.5 12.5-2.1 19.7-4.4 7.2-2.3 13.8-5.2 18.5-8 3.2-1.9 6.9-4.6 6.7-6.8 2 2.6 3 4.9 3.4 6.4 4.2 2.3 11.7 7 16.4 13.1 9.6-15.5 12.6-34.9 6.5-53.6-10.9-33.6-47.1-52.1-80.7-41.1s-52 47.2-41.1 80.8zm7.7-15.1c-2.2-6.7 1.4-14 8.1-16.3 1.2-16 12.5-30.7 29.5-36.2s34.8-.3 45.2 11.9c6.8-2.1 14 1.6 16.1 8.4 2.1 6.5-1.1 13.4-7.3 16-.1 8.6-3.1 17.1-8.5 24 2.3.2 3.7.7 3.9 1.6.9 2.8-8.8 9.2-24.7 14.4s-27.6 5.7-28.5 2.9c-.3-.9.5-2.1 2.2-3.6-8.4-2.5-15.8-7.5-20.9-14.4-6.3 1.4-13-2.2-15.1-8.7z" class="st25"/><path d="M223.9 145.9c1.3 3.9 1.9 7.8 1.8 11.8 6.1-2.6 9.4-9.5 7.3-16-2.2-6.7-9.4-10.5-16.1-8.4 3 3.7 5.4 7.9 7 12.6zm2.3 1.6c-.4-1.2.3-2.6 1.5-3s2.6.3 3 1.5-.3 2.6-1.5 3-2.6-.2-3-1.5zm-2.1-6.4c-.4-1.2.3-2.6 1.5-3s2.6.3 3 1.5-.3 2.6-1.5 3c-1.3.4-2.6-.3-3-1.5z" class="st26"/><circle cx="226.3" cy="140.3" r="2.4" class="st27"/><circle cx="228.4" cy="146.8" r="2.4" class="st27"/><path d="M231.5 199.2c1.7 2.9 3.6 6.5 5.4 10.4.8-.9 1.5-1.9 2.2-2.9-.1-.2-.3-.4-.4-.6-1.8-2.7-4.4-5-7.2-6.9zm-62.9 9.1c-2 4.3-5.4 12.5-5.5 20.3 1.4.6 2.8 1.1 4.2 1.5v-.8c-.1-3.3.6-6.6 1.8-9.8.3 3.4.9 7.4 1.8 11.6h.1c2.2-5 4.6-12.7 3.7-21.2h-2.3c-.9 0-1.8 0-2.6-.1h-.3c-.3 0-.6-.5-.9-1.5z" class="st27"/><path d="M167.2 229.4v.8c1.2.4 2.3.7 3.5 1-.9-4.3-1.4-8.3-1.8-11.6-1.1 3.1-1.8 6.5-1.7 9.8z" class="st27"/><path d="M196.1 196.5c-8.8 2.9-17.8 2.8-25.8.5-1.7 1.5-2.5 2.7-2.2 3.6.9 2.8 12.6 2.3 28.5-2.9s25.6-11.6 24.7-14.4c-.3-.9-1.7-1.4-3.9-1.6-5.3 6.6-12.5 11.9-21.3 14.8z" class="st26"/><path d="M234.1 207.9c1 .7 1.9 1.2 2.8 1.8v-.1c-1.8-4-3.7-7.5-5.4-10.4 2.8 1.9 5.3 4.3 7.2 6.9.1.2.3.4.4.6.9-1.2 1.7-2.5 2.5-3.7-4.7-6.2-12.2-10.9-16.4-13.1.3 1 .4 1.6.4 1.6s-.1.1-.3.2c-.5.4-1.1.9-2 1.6-.6.4-1.2.9-1.9 1.4 3.7 6.3 8.8 10.6 12.7 13.2zm-53.3 1.7c.9 9.1-1.4 17.2-3.7 22.9 9.7 1.6 20 .9 30-2.3 10-3.3 18.7-8.7 25.6-15.7-5.2-3.2-11.8-8.4-16.5-16.3-7.9 4.6-20 10.1-35.4 11.4z" class="st27"/><path d="M174.5 209.9c.9 8.5-1.5 16.3-3.7 21.2 2.1.5 4.1 1 6.3 1.3 2.3-5.6 4.6-13.8 3.7-22.9 15.4-1.3 27.5-6.8 35.4-11.5 4.6 7.8 11.3 13.1 16.5 16.3 1.5-1.5 2.9-3.1 4.3-4.8-.9-.5-1.8-1.1-2.8-1.8-3.9-2.6-9.1-7-12.7-13.2.7-.5 1.4-1 1.9-1.4 1-.8 1.7-1.3 2-1.6.2-.1.3-.2.3-.2s-.1-.6-.4-1.6c-.4-1.5-1.4-3.8-3.4-6.4.2 2.2-3.5 4.9-6.7 6.8-4.7 2.8-11.3 5.6-18.5 8-7.2 2.3-14.2 3.9-19.7 4.4-3.8.4-8.3.3-9.4-1.6-.1 3.3.5 5.7 1 7.2.3 1 .6 1.5.6 1.5h.3c.9.1 1.8.1 2.6.1.9.2 1.6.2 2.4.2zm-40.5-36c2.1 6.5 8.8 10.1 15.3 8.6-2.3-3.1-4.2-6.7-5.4-10.6-1.5-4.7-2.1-9.6-1.7-14.3-6.8 2.3-10.4 9.6-8.2 16.3zm6.8-5.8c.4 1.2-.3 2.6-1.5 3s-2.6-.3-3-1.5.3-2.6 1.5-3 2.6.2 3 1.5zm-2.4 8c-.4-1.2.3-2.6 1.5-3s2.6.3 3 1.5-.3 2.6-1.5 3-2.6-.3-3-1.5z" class="st26"/><circle cx="140.7" cy="175.3" r="2.4" class="st27"/><circle cx="138.6" cy="168.8" r="2.4" class="st27"/><path d="M143.9 172c1.3 3.9 3.1 7.4 5.4 10.6 5.1 7 12.5 12 20.9 14.4 8.1 2.4 17.1 2.4 25.8-.5s16-8.2 21.2-14.8c5.4-6.9 8.4-15.3 8.5-24 0-3.9-.6-7.9-1.8-11.8-1.5-4.7-4-9-7-12.6-10.3-12.2-28.1-17.5-45.2-11.9s-28.3 20.3-29.5 36.2c-.4 4.8.1 9.6 1.7 14.4zm5.4-3.3c-5.2-16 5.9-33.9 24.8-40 18.9-6.1 38.4 1.8 43.5 17.8 5.2 16 2.1 31.3-24.8 40s-38.3-1.8-43.5-17.8z" class="st27"/><path d="M149.3 168.7c5.2 16 16.7 26.6 43.5 17.8s29.9-24 24.8-40c-4.7-14.5-21.2-22.4-38.2-19.2l-2.7.6c-.6.2-1.2.3-1.8.5l-.9.3-.9.3c-.6.2-1.2.4-1.7.6-.6.2-1.1.5-1.7.7-.5.2-1 .5-1.5.7-.3.1-.6.3-.9.5-.3.1-.5.3-.8.4-.3.2-.6.3-.9.5-.7.4-1.3.8-1.9 1.2l-.9.6c-11.5 8.1-17.4 21.4-13.8 33.7.1.3.2.5.3.8z" class="st26"/><path d="M231.5 199.2c1.7 2.9 3.6 6.5 5.4 10.4.8-.9 1.5-1.9 2.2-2.9-.1-.2-.3-.4-.4-.6-1.8-2.7-4.4-5-7.2-6.9zm-64.3 30.2v.8c1.2.4 2.3.7 3.5 1-.9-4.3-1.4-8.3-1.8-11.6-1.1 3.1-1.8 6.5-1.7 9.8z" class="st28"/><path d="M850.1 311.7c-.9 3.5-5.1 26.4 33.5 28.5 2.8.2 5.4-1.6 6.3-4.3l55.6-177.3c1-3.1-.6-6.3-3.5-7.6l-19.3-8.2c-3.2-1.4-6.9.2-8.2 3.5L850.4 311c-.1.2-.2.5-.3.7z" class="st22"/><path d="M850.1 311.7c-.9 3.5-5.1 26.4 33.5 28.5 2.8.2 5.4-1.6 6.3-4.3l55.6-177.3c1-3.1-.6-6.3-3.5-7.6l-19.3-8.2c-3.2-1.4-6.9.2-8.2 3.5L850.4 311c-.1.2-.2.5-.3.7z" class="st23"/><path d="M864.2 326.5c-22-31.8-78-55.5-168.2-59.7-90.1-4.2-115.6-60.3-115.6-60.3L641 15.9S666.5 72 756.6 76.2c77.6 3.6 129.9 21.7 157 46.9 7.2 6.7 9.8 17 6.8 26.3l-56.2 177.1z" class="st22"/><path d="M812.6 274.9c-29.4-14.3-61.6-20.6-92.8-29.3-26.3-7.3-58.1-16.6-72.4-42.1-6.7-12-9.8-26.5-12.2-39.9-2.7-15.6-3.2-31.5-2.6-47.3 1.3-32.4-1.1-66.4 8.4-97.7.2-.5.3-1 .6-1.3-.4-.8-.7-1.3-.7-1.3l-60.6 190.7s25.5 56.1 115.6 60.3 146.2 27.9 168.2 59.7l1.8-5.8c-12.3-20.3-31.8-35.5-53.3-46z" class="st23"/><path d="M639.7 8 425.2 668.1" class="st24"/><path d="M781.7 209.8c-.9 0-1.8.1-2.6.1.8 0 1.7 0 2.6-.1zm-53.8-16.5c-1-.8-1.7-1.3-2-1.6.4.4 1.1.9 2 1.6z" class="st25"/><path d="M783.8 108.3c-33.6-10.9-69.8 7.5-80.7 41.1-6.1 18.7-3.1 38.1 6.5 53.6 4.7-6.2 12.2-10.9 16.4-13.1.4-1.5 1.4-3.8 3.4-6.4-.2 2.2 3.5 4.9 6.7 6.8 4.7 2.8 11.3 5.6 18.5 8s14.2 3.9 19.7 4.4c3.8.4 8.3.3 9.4-1.6.1 3.3-.5 5.7-1 7.2 2 4.3 5.3 12.5 5.5 20.3 16.9-6.9 30.7-20.9 36.7-39.5 11-33.7-7.4-69.8-41.1-80.8zm18.2 74.2c-5.1 7-12.5 12-20.9 14.4 1.7 1.5 2.5 2.7 2.2 3.6-.9 2.8-12.6 2.3-28.5-2.9s-25.6-11.6-24.7-14.4c.3-.9 1.7-1.4 3.9-1.6-5.4-6.9-8.4-15.3-8.5-24-6.1-2.6-9.4-9.5-7.3-16 2.2-6.7 9.4-10.5 16.1-8.4 10.3-12.2 28.1-17.5 45.2-11.9s28.3 20.3 29.5 36.2c6.7 2.3 10.3 9.5 8.1 16.3-2 6.6-8.6 10.2-15.1 8.7z" class="st25"/><path d="M734.4 133.3c-6.8-2.1-14 1.6-16.1 8.4-2.1 6.5 1.1 13.4 7.3 16 0-3.9.6-7.9 1.8-11.8 1.5-4.7 3.9-8.9 7-12.6zm-12.3 15.8c-1.2-.4-1.9-1.7-1.5-3 .4-1.2 1.7-1.9 3-1.5 1.2.4 1.9 1.7 1.5 3-.4 1.2-1.8 1.9-3 1.5zm2.1-6.5c-1.2-.4-1.9-1.7-1.5-3 .4-1.2 1.7-1.9 3-1.5s1.9 1.7 1.5 3c-.4 1.2-1.8 1.9-3 1.5z" class="st26"/><circle cx="724.9" cy="140.3" r="2.4" class="st27"/><circle cx="722.8" cy="146.8" r="2.4" class="st27"/><path d="M712.5 206.1c-.1.2-.3.4-.4.6.7 1 1.4 1.9 2.2 2.9 1.8-4 3.7-7.5 5.4-10.4-2.8 1.9-5.3 4.2-7.2 6.9zm69.6 3.7h-.3c-.9 0-1.8.1-2.6.1h-2.3c-.9 8.5 1.5 16.3 3.7 21.2h.1c.9-4.3 1.4-8.3 1.8-11.6 1.1 3.2 1.8 6.6 1.8 9.8v.8l4.2-1.5c-.2-7.8-3.5-16-5.5-20.3-.7 1-.9 1.5-.9 1.5z" class="st27"/><path d="M782.3 219.5c-.3 3.4-.8 7.4-1.8 11.6 1.2-.3 2.3-.7 3.5-1v-.8c.1-3.2-.6-6.6-1.7-9.8z" class="st27"/><path d="M734 181.7c-2.3.2-3.7.7-3.9 1.6-.9 2.8 8.8 9.2 24.7 14.4s27.6 5.7 28.5 2.9c.3-.9-.5-2.1-2.2-3.6-8.1 2.4-17.1 2.4-25.8-.5-8.9-2.9-16.2-8.2-21.3-14.8z" class="st26"/><path d="M729.8 194.7c-.7-.5-1.4-1-1.9-1.4-.9-.7-1.6-1.2-2-1.6-.2-.1-.3-.2-.3-.2s.1-.6.4-1.6c-4.2 2.3-11.7 7-16.4 13.1.8 1.3 1.6 2.5 2.5 3.7.1-.2.3-.4.4-.6 1.8-2.7 4.4-5 7.2-6.9-1.7 2.9-3.6 6.5-5.4 10.4v.1c.9-.5 1.8-1.1 2.8-1.8 3.9-2.6 9.1-6.9 12.7-13.2zm5.3 3.5c-4.6 7.8-11.3 13.1-16.5 16.3 6.9 7 15.6 12.5 25.6 15.7 10 3.3 20.3 3.9 30 2.3-2.3-5.6-4.6-13.8-3.7-22.9-15.4-1.3-27.6-6.8-35.4-11.4z" class="st27"/><path d="M779.1 209.9c.9 0 1.8-.1 2.6-.1h.3s.3-.5.6-1.5c.5-1.4 1.1-3.9 1-7.2-1.1 1.9-5.7 1.9-9.4 1.6-5.5-.5-12.5-2.1-19.7-4.4-7.2-2.3-13.8-5.2-18.5-8-3.2-1.9-6.9-4.6-6.7-6.8-2 2.6-3 4.9-3.4 6.4-.3 1-.4 1.6-.4 1.6s.1.1.3.2c.3.3 1 .9 2 1.6.6.4 1.2.9 1.9 1.4-3.6 6.2-8.8 10.6-12.7 13.2-1 .7-1.9 1.2-2.8 1.8 1.3 1.7 2.8 3.2 4.3 4.8 5.2-3.2 11.8-8.4 16.5-16.3 7.8 4.7 20 10.1 35.4 11.5-.9 9.1 1.4 17.2 3.7 22.9 2.1-.3 4.2-.8 6.3-1.3-2.2-5-4.6-12.7-3.7-21.2.8-.2 1.6-.2 2.4-.2zm30-52.3c.4 4.7-.2 9.6-1.7 14.3-1.3 3.9-3.1 7.4-5.4 10.6 6.5 1.5 13.2-2.2 15.3-8.6 2.1-6.7-1.5-14-8.2-16.3zm4.3 9c1.2.4 1.9 1.7 1.5 3-.4 1.2-1.7 1.9-3 1.5-1.2-.4-1.9-1.7-1.5-3 .4-1.3 1.8-1.9 3-1.5zm-3.6 11c-1.2-.4-1.9-1.7-1.5-3 .4-1.2 1.7-1.9 3-1.5s1.9 1.7 1.5 3c-.4 1.2-1.7 1.9-3 1.5z" class="st26"/><circle cx="810.6" cy="175.3" r="2.4" class="st27"/><circle cx="812.7" cy="168.8" r="2.4" class="st27"/><path d="M809.1 157.6c-1.2-16-12.5-30.7-29.5-36.2s-34.8-.3-45.2 11.9c-3.1 3.6-5.5 7.9-7 12.6-1.3 3.9-1.9 7.8-1.8 11.8.1 8.6 3.1 17.1 8.5 24 5.1 6.7 12.4 11.9 21.2 14.8 8.8 2.9 17.8 2.8 25.8.5 8.4-2.5 15.8-7.5 20.9-14.4 2.3-3.1 4.2-6.7 5.4-10.6 1.5-4.8 2.1-9.6 1.7-14.4zm-50.7 28.9c-26.9-8.7-29.9-24-24.8-40 5.2-16 24.7-23.9 43.5-17.8s29.9 24 24.8 40-16.6 26.5-43.5 17.8z" class="st27"/><path d="M802.2 167.9c3.6-12.3-2.3-25.6-13.8-33.7l-.9-.6c-.6-.4-1.3-.8-1.9-1.2-.3-.2-.6-.4-.9-.5-.3-.1-.5-.3-.8-.4-.3-.2-.6-.3-.9-.5-.5-.2-1-.5-1.5-.7s-1.1-.5-1.7-.7c-.6-.2-1.1-.4-1.7-.6l-.9-.3-.9-.3c-.6-.2-1.2-.3-1.8-.5l-2.7-.6c-17.1-3.2-33.5 4.7-38.2 19.2-5.2 16-2.1 31.3 24.8 40s38.4-1.8 43.5-17.8c.1-.3.2-.5.3-.8z" class="st26"/><path d="M712.5 206.1c-.1.2-.3.4-.4.6.7 1 1.4 1.9 2.2 2.9 1.8-4 3.7-7.5 5.4-10.4-2.8 1.9-5.3 4.2-7.2 6.9zm69.8 13.4c-.3 3.4-.8 7.4-1.8 11.6 1.2-.3 2.3-.7 3.5-1v-.8c.1-3.2-.6-6.6-1.7-9.8z" class="st28"/><g fill="#f8f9e6"><path d="m539.7 272-10.8 5.9-6 10.9-5.9-10.9-10.9-5.9 10.9-5.9 5.9-10.9 6 10.9z"/><path d="m370.3 333.2-10.8 5.9-6 10.9-5.9-10.9-10.9-5.9 10.9-5.9 5.9-10.9 6 10.9z" opacity=".8"/><path d="m744.4 351.5-10.9 6-5.9 10.8-6-10.8-10.8-6 10.8-5.9 6-10.9 5.9 10.9z" opacity=".95"/></g><path d="M845.1 499c85.7 195.4 3.9 425.8-189 522.3-199.2 99.7-441.4 19-541.1-180.2-55.6-111.1-55.1-235.6-9.2-341.2" class="st33"/><path fill="#5f81a1" d="M642 803.5c-197.4 79.2-421.6-16.6-500.8-214-9.4-23.5-16.2-47.3-20.8-71.2-32.8 87-34.8 185.9 2.6 279 79.2 197.4 303.4 293.2 500.8 214 173.9-69.8 268.8-252.2 234.8-429.6-36.8 97.5-112.3 180-216.6 221.8z" opacity=".15"/><path d="M154.3 707.4c-1-.3-2-.6-2.9-.9 1 .3 1.9.6 2.9.9zm10.1 1.6c-1-.1-2-.1-3-.3 1 .2 2 .3 3 .3zm-3.8-.4c-.8-.1-1.6-.2-2.4-.4.8.2 1.6.3 2.4.4zm-10.1-2.4c-.7-.3-1.4-.5-2.1-.8.7.3 1.4.6 2.1.8zm-11.4-5.8c-.8-.5-1.6-1.1-2.3-1.7.7.5 1.5 1.1 2.3 1.7zm5.7 3.4c-.8-.4-1.7-.9-2.5-1.3.9.4 1.7.8 2.5 1.3zm29.4 4.8c-1 .1-1.9.3-2.9.3 1-.1 2-.2 2.9-.3zm-32.6-6.6-1.8-1.2 1.8 1.2zm6 3.1-2.7-1.2 2.7 1.2zm-11.1-6.6c-.7-.5-1.4-1.1-2-1.7.7.6 1.3 1.1 2 1.7zm30.9 10.6h-2.5 2.5zm-10-1c-1-.2-2-.4-3-.7.9.3 1.9.5 3 .7zm23.5-1c-.9.3-1.9.5-2.8.7.9-.2 1.8-.4 2.8-.7zm-3.7.9c-.7.2-1.5.3-2.2.4.7-.1 1.5-.2 2.2-.4zm33.1-72c.3.6.6 1.1.9 1.7-.3-.5-.6-1.1-.9-1.7zM199 622.1c.6.5 1.3 1.1 1.9 1.7-.7-.6-1.3-1.2-1.9-1.7zm2 1.8c.7.6 1.3 1.3 1.9 1.9-.6-.6-1.2-1.3-1.9-1.9zm-4.2-3.5 1.5 1.2c-.5-.5-1-.9-1.5-1.2zm10.2 10.4c.5.6.9 1.3 1.4 2-.5-.7-.9-1.4-1.4-2zm-12.6-12.1c.5.4 1.1.7 1.6 1.1-.5-.4-1-.8-1.6-1.1zm10.9 9.9c.4.5.8 1 1.1 1.5-.3-.5-.7-1-1.1-1.5zm-1.8-2.2c.4.5.9.9 1.3 1.4-.5-.4-.9-.9-1.3-1.4zm-23.6-14.3c.9.3 1.9.5 2.8.8-1-.3-1.9-.6-2.8-.8zm3.6 1.1c.6.2 1.3.5 1.9.7-.7-.2-1.3-.4-1.9-.7zm2.8 1.1c.6.3 1.2.5 1.8.8-.6-.3-1.2-.5-1.8-.8zm2.6 1.2 2.4 1.2-2.4-1.2zm2.4 1.3c.8.5 1.6.9 2.4 1.4-.8-.5-1.5-1-2.4-1.4zm21.5 24.3c.3.7.6 1.5.8 2.2-.3-.7-.6-1.5-.8-2.2zm-17.7 59.2c-.7.5-1.3.9-2 1.3.7-.4 1.4-.8 2-1.3zm-5.3 3.2c-.9.4-1.7.9-2.6 1.3.9-.4 1.8-.8 2.6-1.3zm18.7-70.5c.5.8.9 1.5 1.4 2.3-.4-.8-.9-1.5-1.4-2.3zm-24.8 73.2c-.9.3-1.8.6-2.8.9.9-.3 1.8-.6 2.8-.9zm2.8-1.1c-.7.3-1.4.6-2.1.8.7-.2 1.4-.5 2.1-.8zm5.9-3-2.1 1.2 2.1-1.2zm5.5-3.8c-.8.6-1.5 1.2-2.3 1.7.8-.5 1.5-1.1 2.3-1.7zm-27.1 10.6c-.8.1-1.6.1-2.5.1.8 0 1.6 0 2.5-.1zm40.8-70.3c.3.6.5 1.1.8 1.7-.2-.6-.5-1.2-.8-1.7zm-11.4 57.7c-.6.5-1.1 1-1.7 1.5.6-.5 1.1-1 1.7-1.5zM177 611.4c.9.2 1.9.4 2.8.7-.9-.3-1.8-.5-2.8-.7zm-15-.7c.6-.1 1.3-.1 1.9-.2-.6.1-1.3.1-1.9.2zm-41.8 64.5c-.2-.7-.5-1.5-.7-2.3.3.8.5 1.5.7 2.3zm14.5-52.7c.7-.6 1.4-1.2 2.1-1.7-.7.6-1.4 1.1-2.1 1.7zM122.6 681c-.3-.7-.6-1.3-.9-2 .3.7.6 1.3.9 2zm-1.2-2.7c-.4-.9-.7-1.8-1-2.7.3 1 .6 1.9 1 2.7zm16.1-58c.5-.4 1-.7 1.5-1.1-.5.3-1 .7-1.5 1.1zm2.3-1.6c.5-.3 1.1-.7 1.6-1-.5.3-1.1.6-1.6 1zm-8.1 75.5c-.7-.7-1.3-1.4-1.9-2.1.6.7 1.3 1.4 1.9 2.1zm10.4-77c.8-.5 1.6-.9 2.4-1.3-.8.4-1.6.8-2.4 1.3zm-12.5 74.6c-.5-.6-1.1-1.3-1.6-1.9.5.6 1 1.2 1.6 1.9zm-5.5-7.9c-.4-.7-.8-1.4-1.1-2.1.3.7.7 1.4 1.1 2.1zm1.7 2.8-1.5-2.4 1.5 2.4zm1.7 2.4-1.2-1.8c.3.7.7 1.3 1.2 1.8z" class="st35"/><path d="m202.9 693.7-2.1 2.1c6.5-6.1 11.5-14 13.9-23.2 2.7-9.9 2.1-19.9-1-28.9-.3-.5-27.3-45.1-79-21.1-7.2 6.2-12.6 14.6-15.3 24.5-2.3 8.7-2.2 17.5 0 25.6 1.1 2 27.5 56.6 83.5 21z" class="st35"/><path d="M159.1 611.1c.6-.1 1.3-.2 1.9-.3-.6.1-1.3.2-1.9.3zm5.7-.6c.9 0 1.8-.1 2.8-.1-1 0-1.9 0-2.8.1zm-30.9 85.7c-.5-.5-1.1-1-1.6-1.5.5.5 1 1 1.6 1.5z" class="st35"/><path d="M167.5 610.4c.9 0 1.9.1 2.8.1-.9 0-1.8-.1-2.8-.1zm3.7.2c.7.1 1.3.1 2 .2-.7-.1-1.3-.2-2-.2zm-18.2 1.9c.9-.3 1.7-.5 2.6-.7-.9.2-1.8.4-2.6.7zm-5.3 1.9c.6-.2 1.2-.5 1.8-.7-.6.2-1.2.4-1.8.7zm2.7-1.1 1.8-.6-1.8.6zm23.8-2.4c.7.1 1.3.2 2 .3-.7-.1-1.4-.2-2-.3zm-18.6.9 2.7-.6c-.9.2-1.8.3-2.7.6zm-11.1 4.1 2.4-1.2-2.4 1.2z" class="st35"/><path d="M209.9 635.3c.1.2.3.5.4.7-.1-.2-.2-.4-.4-.7zm-9.1-11.5c.1 0 .1.1.2.1-.1 0-.1-.1-.2-.1zm7.6 9c.1.1.1.2.2.2-.1-.1-.2-.1-.2-.2zm-58.9-19.1.9-.3-.9.3zm53.4 12.1.6.6-.6-.6zm1.8 2.1c.2.2.4.5.6.7-.2-.2-.4-.5-.6-.7zm1.8 2.2c.2.2.4.5.5.7-.2-.2-.3-.5-.5-.7zm-59.6-15.4c.3-.1.5-.2.8-.3-.2.1-.5.2-.8.3zm-5.5 2.9c.2-.1.5-.3.7-.4-.2.1-.5.3-.7.4zm-2.4 1.6c.3-.2.5-.4.8-.5-.3.1-.5.3-.8.5zm24.9-8.7c.3 0 .6 0 .9-.1-.3.1-.6.1-.9.1zm49.8 33.1c0-.1-.1-.2-.1-.3 0 .1.1.2.1.3zm-1.3-3.3c.1.3.2.5.3.8-.1-.3-.2-.5-.3-.8zm-21.2-23.6s.1 0 .1.1c0 0 0-.1-.1-.1zm-15.1-5.4c.3.1.6.1.9.2-.3-.1-.6-.2-.9-.2zm6.5 1.6c.3.1.6.2.8.3-.2-.1-.5-.2-.8-.3zm-9.4-2.1c.3 0 .7.1 1 .1-.4 0-.7-.1-1-.1zm-2.9-.3c.3 0 .6 0 .9.1-.3 0-.6-.1-.9-.1zm-12 .7c.3-.1.6-.1.8-.1-.3 0-.6.1-.8.1zm-6.1 1.5c.3-.1.5-.2.8-.3-.3.2-.6.2-.8.3zm8.8-1.9c.3 0 .6-.1 1-.1-.3 0-.7 0-1 .1zm35 9c.3.2.5.4.8.6-.3-.2-.5-.4-.8-.6zm-2.3-1.6c.2.2.5.3.7.5-.2-.2-.4-.3-.7-.5zm4.6 3.3c.2.2.5.4.7.6-.3-.2-.5-.4-.7-.6zm-61.5-.7c.2-.2.5-.3.7-.5-.2.2-.5.3-.7.5zm51.3-5.7c.3.1.5.2.8.4-.3-.1-.6-.3-.8-.4zm-2.8-1.2c.3.1.6.2.9.4-.2-.1-.5-.3-.9-.4zm25.9 23.8c.1.3.3.6.4.9-.1-.3-.2-.6-.4-.9z" class="st36"/><path d="M213.7 643.6c0-.1-.1-.2-.1-.3-.3-.7-.5-1.5-.8-2.2-.1-.3-.2-.5-.3-.8-.2-.6-.5-1.1-.8-1.7-.1-.3-.3-.6-.4-.9-.3-.6-.6-1.1-.9-1.7-.1-.2-.3-.5-.4-.7-.4-.8-.9-1.6-1.4-2.3-.1-.1-.1-.2-.2-.2-.4-.7-.9-1.3-1.4-2-.2-.2-.4-.5-.5-.7-.4-.5-.8-1-1.1-1.5-.2-.2-.4-.5-.6-.7-.4-.5-.8-1-1.3-1.4l-.6-.6c-.6-.7-1.3-1.3-1.9-1.9-.1-.1-.1-.1-.2-.1-.6-.6-1.2-1.1-1.9-1.7-.2-.2-.5-.4-.7-.6l-1.5-1.2c-.3-.2-.5-.4-.8-.6-.5-.4-1.1-.7-1.6-1.1-.2-.2-.5-.3-.7-.5-.8-.5-1.6-1-2.4-1.4 0 0-.1 0-.1-.1l-2.4-1.2c-.3-.1-.5-.3-.8-.4-.6-.3-1.2-.5-1.8-.8-.3-.1-.6-.3-.9-.4-.6-.2-1.2-.5-1.9-.7-.3-.1-.6-.2-.8-.3-.9-.3-1.8-.6-2.8-.8-.9-.3-1.9-.5-2.8-.7-.3-.1-.6-.1-.9-.2-.7-.1-1.3-.2-2-.3-.3 0-.7-.1-1-.1-.7-.1-1.3-.1-2-.2-.3 0-.6-.1-.9-.1-.9-.1-1.9-.1-2.8-.1-.9 0-1.9 0-2.8.1-.3 0-.6 0-.9.1-.6 0-1.3.1-1.9.2-.3 0-.6.1-1 .1-.6.1-1.3.2-1.9.3-.3 0-.6.1-.8.1-.9.2-1.8.3-2.7.6-.9.2-1.8.5-2.6.7-.3.1-.5.2-.8.3l-1.8.6-.9.3c-.6.2-1.2.5-1.8.7-.3.1-.5.2-.8.3l-2.4 1.2c-.8.4-1.6.9-2.4 1.3-.2.1-.5.3-.7.4-.5.3-1.1.7-1.6 1-.3.2-.5.4-.8.5-.5.4-1 .7-1.5 1.1-.2.2-.5.3-.7.5-.7.6-1.4 1.1-2.1 1.7 52-24 79 20.6 79.3 21.1z" class="st35"/><path d="M213.7 643.6c0-.1-.1-.2-.1-.3-.3-.7-.5-1.5-.8-2.2-.1-.3-.2-.5-.3-.8-.2-.6-.5-1.1-.8-1.7-.1-.3-.3-.6-.4-.9-.3-.6-.6-1.1-.9-1.7-.1-.2-.3-.5-.4-.7-.4-.8-.9-1.6-1.4-2.3-.1-.1-.1-.2-.2-.2-.4-.7-.9-1.3-1.4-2-.2-.2-.4-.5-.5-.7-.4-.5-.8-1-1.1-1.5-.2-.2-.4-.5-.6-.7-.4-.5-.8-1-1.3-1.4l-.6-.6c-.6-.7-1.3-1.3-1.9-1.9-.1-.1-.1-.1-.2-.1-.6-.6-1.2-1.1-1.9-1.7-.2-.2-.5-.4-.7-.6l-1.5-1.2c-.3-.2-.5-.4-.8-.6-.5-.4-1.1-.7-1.6-1.1-.2-.2-.5-.3-.7-.5-.8-.5-1.6-1-2.4-1.4 0 0-.1 0-.1-.1l-2.4-1.2c-.3-.1-.5-.3-.8-.4-.6-.3-1.2-.5-1.8-.8-.3-.1-.6-.3-.9-.4-.6-.2-1.2-.5-1.9-.7-.3-.1-.6-.2-.8-.3-.9-.3-1.8-.6-2.8-.8-.9-.3-1.9-.5-2.8-.7-.3-.1-.6-.1-.9-.2-.7-.1-1.3-.2-2-.3-.3 0-.7-.1-1-.1-.7-.1-1.3-.1-2-.2-.3 0-.6-.1-.9-.1-.9-.1-1.9-.1-2.8-.1-.9 0-1.9 0-2.8.1-.3 0-.6 0-.9.1-.6 0-1.3.1-1.9.2-.3 0-.6.1-1 .1-.6.1-1.3.2-1.9.3-.3 0-.6.1-.8.1-.9.2-1.8.3-2.7.6-.9.2-1.8.5-2.6.7-.3.1-.5.2-.8.3l-1.8.6-.9.3c-.6.2-1.2.5-1.8.7-.3.1-.5.2-.8.3l-2.4 1.2c-.8.4-1.6.9-2.4 1.3-.2.1-.5.3-.7.4-.5.3-1.1.7-1.6 1-.3.2-.5.4-.8.5-.5.4-1 .7-1.5 1.1-.2.2-.5.3-.7.5-.7.6-1.4 1.1-2.1 1.7 52-24 79 20.6 79.3 21.1z" class="st36"/><path d="M148.4 705.4c-.3-.1-.5-.2-.8-.3.3.1.6.2.8.3zm16.5 3.6h-.6.6zm-3.6-.3c-.3 0-.5-.1-.8-.1.3.1.6.1.8.1zm-9.9-2.2c-.3-.1-.6-.2-.8-.3.2.1.5.2.8.3zm6.8 1.8c-.3-.1-.6-.1-.9-.2.3.1.6.1.9.2zm-13.3-4.5-.1-.1.1.1zm30.1 4.6c-.2 0-.5.1-.7.1.2 0 .4 0 .7-.1zm-32.7-6c-.3-.1-.5-.3-.8-.5.3.2.6.4.8.5zm29 6.5h-.5.5zm-3 .2h-.9.9zM128 689.8c-.2-.2-.3-.5-.5-.7.1.3.3.5.5.7zm11.7 11c-.2-.2-.5-.3-.7-.5.3.2.5.4.7.5zm-13.5-13.4c-.1-.2-.3-.4-.4-.6.1.1.3.4.4.6zm-3.2-5.6c-.1-.3-.3-.5-.4-.8.1.3.2.5.4.8zm-1.3-2.8c-.1-.2-.2-.5-.3-.7.1.3.2.5.3.7zm-1.3-3.3c-.1-.2-.1-.3-.2-.5.1.1.1.3.2.5zm9.4 16.4c-.1-.1-.2-.2-.2-.3 0 .1.1.2.2.3zm-10.4-19.6c0 .1.1.3.1.4 0-.1 0-.2-.1-.4zm17.3 26.1-.2-.2.2.2zm41.3 9.3c-.3.1-.5.1-.8.2.3-.1.6-.2.8-.2zm-45.7-13.2-.6-.6.6.6zm2.2 2.1-.6-.6.6.6zm-10.2-12.5c-.1-.1-.1-.3-.2-.4.1.2.1.3.2.4zm60.1 21.6c-.3.1-.5.2-.8.3.3-.1.6-.2.8-.3zm2.8-1.1c-.2.1-.5.2-.7.3.3-.1.5-.2.7-.3zm11.3-7c-.2.2-.4.3-.6.5.2-.2.4-.4.6-.5zm-2.9 2.2c-.1.1-.3.2-.4.3.1-.1.2-.2.4-.3zm-5.3 3.3c-.2.1-.3.2-.5.3.2-.2.3-.3.5-.3zm2.8-1.7c-.2.2-.5.3-.7.4.2-.1.5-.2.7-.4zm-12.2 5.5zm19.9-11.4-.6.6.6-.6z" class="st37"/><path d="M183.7 706.2c.3-.1.5-.2.8-.3.7-.3 1.4-.5 2.1-.8.2-.1.5-.2.7-.3.9-.4 1.8-.8 2.6-1.3.2-.1.3-.2.5-.3l2.1-1.2c.2-.1.5-.3.7-.4.7-.4 1.4-.9 2-1.3.1-.1.3-.2.4-.3.8-.6 1.6-1.1 2.3-1.7.2-.2.4-.3.6-.5.6-.5 1.2-1 1.7-1.5l.6-.6c.7-.7 1.4-1.3 2.1-2.1-56 35.6-82.4-18.9-83.4-21.1 0 .1.1.2.1.3.2.8.4 1.5.7 2.3.1.2.1.3.2.5.3.9.6 1.8 1 2.7.1.2.2.5.3.7.3.7.6 1.3.9 2 .1.3.3.5.4.8.4.7.7 1.4 1.1 2.1.1.1.1.3.2.4l1.5 2.4c.1.2.3.4.4.6l1.2 1.8c.2.2.3.5.5.7.5.7 1 1.3 1.6 1.9.1.1.2.2.2.3.6.7 1.3 1.4 1.9 2.1l.6.6c.5.5 1 1 1.6 1.5l.6.6c.7.6 1.3 1.1 2 1.7l.2.2c.8.6 1.5 1.2 2.3 1.7.2.2.5.3.7.5l1.8 1.2c.3.2.5.3.8.5.8.5 1.6.9 2.5 1.3l.1.1c.9.4 1.8.9 2.7 1.2.3.1.5.2.8.3.7.3 1.4.5 2.1.8.3.1.6.2.8.3 1 .3 1.9.6 2.9.9 1 .3 2 .5 3 .7.3.1.6.1.9.2.8.1 1.6.3 2.4.4.3 0 .5.1.8.1l3 .3h.6c.8 0 1.7.1 2.5 0h.9c.8 0 1.6-.1 2.5-.1h.5c1-.1 2-.2 2.9-.3.2 0 .5-.1.7-.1.8-.1 1.5-.3 2.2-.4.3-.1.5-.1.8-.2 1-.2 1.9-.5 2.8-.7 1.1-.6 2-.9 3-1.2z" class="st35"/><path d="M183.7 706.2c.3-.1.5-.2.8-.3.7-.3 1.4-.5 2.1-.8.2-.1.5-.2.7-.3.9-.4 1.8-.8 2.6-1.3.2-.1.3-.2.5-.3l2.1-1.2c.2-.1.5-.3.7-.4.7-.4 1.4-.9 2-1.3.1-.1.3-.2.4-.3.8-.6 1.6-1.1 2.3-1.7.2-.2.4-.3.6-.5.6-.5 1.2-1 1.7-1.5l.6-.6c.7-.7 1.4-1.3 2.1-2.1-56 35.6-82.4-18.9-83.4-21.1 0 .1.1.2.1.3.2.8.4 1.5.7 2.3.1.2.1.3.2.5.3.9.6 1.8 1 2.7.1.2.2.5.3.7.3.7.6 1.3.9 2 .1.3.3.5.4.8.4.7.7 1.4 1.1 2.1.1.1.1.3.2.4l1.5 2.4c.1.2.3.4.4.6l1.2 1.8c.2.2.3.5.5.7.5.7 1 1.3 1.6 1.9.1.1.2.2.2.3.6.7 1.3 1.4 1.9 2.1l.6.6c.5.5 1 1 1.6 1.5l.6.6c.7.6 1.3 1.1 2 1.7l.2.2c.8.6 1.5 1.2 2.3 1.7.2.2.5.3.7.5l1.8 1.2c.3.2.5.3.8.5.8.5 1.6.9 2.5 1.3l.1.1c.9.4 1.8.9 2.7 1.2.3.1.5.2.8.3.7.3 1.4.5 2.1.8.3.1.6.2.8.3 1 .3 1.9.6 2.9.9 1 .3 2 .5 3 .7.3.1.6.1.9.2.8.1 1.6.3 2.4.4.3 0 .5.1.8.1l3 .3h.6c.8 0 1.7.1 2.5 0h.9c.8 0 1.6-.1 2.5-.1h.5c1-.1 2-.2 2.9-.3.2 0 .5-.1.7-.1.8-.1 1.5-.3 2.2-.4.3-.1.5-.1.8-.2 1-.2 1.9-.5 2.8-.7 1.1-.6 2-.9 3-1.2z" class="st37"/><path d="M589.9 809.2c-3.4 3-6 6.9-7.3 11.6-1.1 4.2-1 8.4.1 12.3.9 1.9 13.5 26.6 39.6 10 2.6-2.7 4.6-6.2 5.6-10.1 1.3-4.7 1-9.5-.5-13.8-.1-.2-12.9-21.4-37.5-10zm16.5-5.7h.3-.3zm7 1.4c.1.1.3.1.4.2-.1 0-.2-.1-.4-.2zm-4.6-1.1c.1 0 .3 0 .4.1-.1-.1-.2-.1-.4-.1zm-4.5-.3h.3-.3zm-21.1 31.3c0-.1-.1-.1-.1-.2 0 0 0 .1.1.2zm8.3-26.8.3-.3-.3.3zm2-1.3c.1-.1.2-.1.3-.2-.1.1-.2.1-.3.2zm1.9-1c.1 0 .2-.1.3-.1-.1 0-.2.1-.3.1zm2.1-.9c.1 0 .3-.1.4-.1-.1 0-.3.1-.4.1zm23.9 5.1c.1 0 .1 0 0 0 .1 0 .1 0 0 0zm2.9 3.3c.1.1.1.2.2.3 0-.1-.1-.2-.2-.3zm1.2 1.8c.1.1.1.2.2.3-.1-.1-.1-.2-.2-.3zm-2.7-3.6.3.3-.3-.3zm3.8 5.6c.1.1.1.3.2.4-.1-.1-.2-.2-.2-.4zm-7-8.7.3.3-.3-.3zm-35.5 28.6c-.1-.2-.1-.3-.2-.5 0 .2.1.3.2.5zm33.5-29.9c.1.1.2.1.3.2-.1-.1-.2-.1-.3-.2zm-1.9-1.1c.1.1.2.1.3.2-.1-.1-.2-.1-.3-.2zm-7.1 44.3h-.4.4z" class="st35"/><path d="M601.8 803.8c.1 0 .3 0 .4-.1-.1 0-.2 0-.4.1zm13.5 44.4c-.1.1-.2.1-.4.2.1-.1.3-.2.4-.2zm-18.1.8c-.2-.1-.3-.1-.5-.2.2 0 .3.1.5.2zm20-1.8c-.1.1-.3.2-.4.3.1-.2.3-.2.4-.3zm-22.4.8c0-.1 0-.1 0 0 0-.1 0-.1 0 0zm24.3-2.1-.2.2.2-.2zm-8 3.8c-.2 0-.3.1-.5.1.2 0 .3-.1.5-.1zm-4.5.7h-.5.5zm-4.7-.2c-.2 0-.4-.1-.6-.1.2 0 .4 0 .6.1zm19-5.7c-.1.1-.3.2-.4.3.1-.1.2-.2.4-.3zm-16.9 5.9h-.3.3zm9.1-1.3c-.1.1-.3.1-.4.1.1 0 .2-.1.4-.1zm-28-10.3c0-.1-.1-.1-.1-.2 0 .1 0 .2.1.2zm4.2 5.3zm-1.6-1.7c-.1 0-.1 0 0 0zm-1.4-1.6c-.1-.1-.2-.3-.3-.4.1.1.2.2.3.4zm4.7 4.7c-.1 0-.1 0 0 0-.1 0-.1 0 0 0zm2 1.4c-.1-.1-.3-.2-.4-.3.1.1.2.2.4.3z" class="st35"/><path d="M593.8 806.5c.5-.3 1.1-.6 1.6-.8-.6.3-1.1.5-1.6.8zm8.5-2.8c.7-.1 1.3-.1 2-.2-.7 0-1.4.1-2 .2zm2.3-.2h1.9-1.9zm-8.9 2.1c.6-.3 1.2-.5 1.8-.7-.6.2-1.2.4-1.8.7zm-3.9 2.1c.5-.4 1.1-.7 1.6-1.1-.5.4-1 .8-1.6 1.1zm6.1-3c.6-.2 1.3-.4 1.9-.6-.6.2-1.3.4-1.9.6zm1.9-.6c.7-.2 1.3-.3 2-.4-.6.2-1.3.3-2 .4zm-9.9 5.1c.5-.4 1-.9 1.6-1.2-.6.4-1.1.8-1.6 1.2zm28-2c.6.4 1.1.7 1.6 1.2-.5-.5-1-.9-1.6-1.2zm2 1.4c.5.4 1 .9 1.5 1.3-.4-.4-1-.9-1.5-1.3zm3.2 3.1 1.2 1.5c-.3-.5-.8-1-1.2-1.5zm-1.6-1.7 1.4 1.4c-.5-.5-.9-1-1.4-1.4zm3 3.5c.3.5.7 1 1 1.5-.3-.5-.6-1-1-1.5zm3 5.8c-.2-.6-.5-1.2-.7-1.8.2.5.5 1.1.7 1.8zm-1.8-4c.3.6.6 1.2.9 1.7-.3-.5-.6-1.1-.9-1.7zm-18.9-11.8c.7 0 1.4.1 2 .2-.7 0-1.3-.1-2-.2zm7 1.6c.6.2 1.3.5 1.9.8-.6-.3-1.2-.5-1.9-.8zm-2.4-.8c.7.2 1.4.4 2 .7-.6-.3-1.3-.5-2-.7zm-2.1-.5c.7.1 1.4.3 2.1.5-.7-.2-1.4-.3-2.1-.5zm6.7 2.3c.6.3 1.1.6 1.6.9-.5-.3-1-.6-1.6-.9z" class="st36"/><path d="M627.5 819.3c-.2-.6-.5-1.2-.7-1.8-.1-.1-.1-.3-.2-.4-.3-.6-.6-1.2-.9-1.7 0-.1-.1-.2-.2-.3-.3-.5-.6-1-1-1.5-.1-.1-.1-.2-.2-.3l-1.2-1.5-.3-.3c-.4-.5-.9-1-1.4-1.4-.5-.5-1-.9-1.5-1.3l-.3-.3c-.5-.4-1.1-.8-1.6-1.2-.1-.1-.2-.1-.3-.2-.5-.3-1.1-.6-1.6-.9-.1-.1-.2-.1-.3-.2-.6-.3-1.2-.6-1.9-.8-.1-.1-.3-.1-.4-.2-.7-.2-1.3-.5-2-.7s-1.4-.3-2.1-.5c-.1 0-.3-.1-.4-.1-.7-.1-1.4-.2-2-.2h-2.5c-.7 0-1.3.1-2 .2-.1 0-.3 0-.4.1-.7.1-1.3.2-2 .4s-1.3.4-1.9.6c-.1 0-.3.1-.4.1-.6.2-1.2.5-1.8.7-.1 0-.2.1-.3.1-.5.3-1.1.5-1.6.8-.1.1-.2.1-.3.2-.6.3-1.1.7-1.6 1.1l-.3.3c-.5.4-1.1.8-1.6 1.2 24.2-11.5 37 9.7 37.2 10z" class="st35"/><path d="M627.5 819.3c-.2-.6-.5-1.2-.7-1.8-.1-.1-.1-.3-.2-.4-.3-.6-.6-1.2-.9-1.7 0-.1-.1-.2-.2-.3-.3-.5-.6-1-1-1.5-.1-.1-.1-.2-.2-.3l-1.2-1.5-.3-.3c-.4-.5-.9-1-1.4-1.4-.5-.5-1-.9-1.5-1.3l-.3-.3c-.5-.4-1.1-.8-1.6-1.2-.1-.1-.2-.1-.3-.2-.5-.3-1.1-.6-1.6-.9-.1-.1-.2-.1-.3-.2-.6-.3-1.2-.6-1.9-.8-.1-.1-.3-.1-.4-.2-.7-.2-1.3-.5-2-.7s-1.4-.3-2.1-.5c-.1 0-.3-.1-.4-.1-.7-.1-1.4-.2-2-.2h-2.5c-.7 0-1.3.1-2 .2-.1 0-.3 0-.4.1-.7.1-1.3.2-2 .4s-1.3.4-1.9.6c-.1 0-.3.1-.4.1-.6.2-1.2.5-1.8.7-.1 0-.2.1-.3.1-.5.3-1.1.5-1.6.8-.1.1-.2.1-.3.2-.6.3-1.1.7-1.6 1.1l-.3.3c-.5.4-1.1.8-1.6 1.2 24.2-11.5 37 9.7 37.2 10z" class="st36"/><path d="M599.2 849.6c-.7-.2-1.4-.4-2-.7.7.3 1.3.5 2 .7zm-6.7-3c-.5-.4-1.1-.7-1.6-1.1.6.4 1.1.8 1.6 1.1zm24.3.8c-.5.3-1 .5-1.5.8.5-.3 1-.5 1.5-.8zm-20.1 1.4c-.6-.3-1.3-.5-1.9-.8.6.3 1.3.5 1.9.8zm22.2-2.7c-.5.4-1.1.7-1.7 1.1.6-.4 1.1-.7 1.7-1.1zm-8.3 3.7c-.6.2-1.3.3-2 .4.7-.1 1.4-.2 2-.4zm-6.9.6c-.6 0-1.2-.1-1.8-.2.6.1 1.2.1 1.8.2zm2.3 0h-2.1 2.1zm-4.7-.3c-.7-.1-1.4-.3-2.1-.4.7.1 1.4.3 2.1.4zm19.2-5.3c-.5.4-.9.7-1.4 1.1.5-.3.9-.7 1.4-1.1zm-5.6 3.6c-.6.3-1.2.5-1.8.7.6-.2 1.2-.5 1.8-.7zm-6.7 1.8c-.6.1-1.1.1-1.7.2.6 0 1.2-.1 1.7-.2zm-13.4-2.3c-.6-.3-1.2-.7-1.8-1 .6.4 1.2.7 1.8 1zm-8.8-7.5c-.4-.5-.7-1-1-1.5.4.4.7 1 1 1.5zm3 3.4c-.5-.4-.9-.9-1.3-1.4.4.5.8 1 1.3 1.4zm1.9 1.7c-.5-.4-1-.9-1.5-1.3.4.4.9.8 1.5 1.3zm-5.9-6.8-.9-1.8c.2.6.5 1.2.9 1.8zm2.6 3.6c-.4-.5-.8-1-1.2-1.6.3.6.7 1.1 1.2 1.6zm-5-9.3c.1.5.3 1 .5 1.5-.2-.5-.3-.9-.5-1.5.1.1 0 0 0 0zm1.2 3.4c-.2-.6-.5-1.1-.7-1.7.3.6.5 1.2.7 1.7zm38.5 6.7c-.5.5-1 .9-1.5 1.4.6-.5 1.1-.9 1.5-1.4zm-9.7 6.1c-.5.2-1 .3-1.6.5.6-.1 1.1-.3 1.6-.5z" class="st37"/><path d="M582.7 833.2c.1.5.3.9.4 1.4 0 .1.1.1.1.2.2.6.4 1.1.7 1.7.1.2.1.3.2.5l.9 1.8c0 .1.1.1.1.2.3.5.6 1 1 1.5.1.1.2.3.3.4.4.5.8 1.1 1.2 1.6l.1.1c.4.5.8.9 1.3 1.4.1.1.2.2.4.3.5.5 1 .9 1.5 1.3 0 0 .1 0 .1.1.5.4 1 .8 1.6 1.1.1.1.3.2.4.3.6.4 1.2.7 1.8 1 .6.3 1.2.6 1.9.8.2.1.3.1.5.2.7.2 1.3.5 2 .7s1.4.3 2.1.4c.2 0 .4.1.6.1.6.1 1.2.2 1.8.2h2.9c.6 0 1.1-.1 1.7-.2h.4c.7-.1 1.3-.2 2-.4.2 0 .3-.1.5-.1.5-.1 1.1-.3 1.6-.5.1 0 .3-.1.4-.1.6-.2 1.2-.5 1.8-.7.1-.1.2-.1.4-.2.5-.2 1-.5 1.5-.8.1-.1.3-.2.4-.3.6-.3 1.1-.7 1.7-1.1l.2-.2c.5-.3.9-.7 1.4-1.1.1-.1.3-.2.4-.3.5-.4 1-.9 1.5-1.4-26.3 16.6-38.9-8.1-39.8-9.9z" class="st35"/><path d="M582.7 833.2c.1.5.3.9.4 1.4 0 .1.1.1.1.2.2.6.4 1.1.7 1.7.1.2.1.3.2.5l.9 1.8c0 .1.1.1.1.2.3.5.6 1 1 1.5.1.1.2.3.3.4.4.5.8 1.1 1.2 1.6l.1.1c.4.5.8.9 1.3 1.4.1.1.2.2.4.3.5.5 1 .9 1.5 1.3 0 0 .1 0 .1.1.5.4 1 .8 1.6 1.1.1.1.3.2.4.3.6.4 1.2.7 1.8 1 .6.3 1.2.6 1.9.8.2.1.3.1.5.2.7.2 1.3.5 2 .7s1.4.3 2.1.4c.2 0 .4.1.6.1.6.1 1.2.2 1.8.2h2.9c.6 0 1.1-.1 1.7-.2h.4c.7-.1 1.3-.2 2-.4.2 0 .3-.1.5-.1.5-.1 1.1-.3 1.6-.5.1 0 .3-.1.4-.1.6-.2 1.2-.5 1.8-.7.1-.1.2-.1.4-.2.5-.2 1-.5 1.5-.8.1-.1.3-.2.4-.3.6-.3 1.1-.7 1.7-1.1l.2-.2c.5-.3.9-.7 1.4-1.1.1-.1.3-.2.4-.3.5-.4 1-.9 1.5-1.4-26.3 16.6-38.9-8.1-39.8-9.9z" class="st37"/><path d="M683.5 593.3s0-.1 0 0c0-.1 0 0 0 0zm8.2 2.5c-.2 0-.4-.1-.6-.1.2.1.4.1.6.1zm24.4-45.1c.1.1.2.2.3.4 0-.2-.2-.3-.3-.4zm-34.1-5.5c.1-.1.2-.1.3-.2-.1.1-.2.1-.3.2zm4.3 49.2c-.2-.1-.4-.1-.6-.2.2.1.4.2.6.2zm-2.2-50.3c.1-.1.2-.1.3-.2 0 .1-.1.1-.3.2z" class="st35"/><path d="M715.5 587.6c3-3.2 5.3-7.2 6.6-11.7 1.5-5.5 1.2-11-.6-16-.2-.3-15.2-25-43.7-11.7-4 3.4-7 8.1-8.5 13.5-1.3 4.9-1.2 9.8.1 14.3 1 2.2 15.7 31 46.1 11.6zm-44.5-7.2c-.1-.2-.2-.4-.2-.5 0 .1.1.3.2.5zm23.5-38.9h.4-.4z" class="st35"/><path d="M681.4 592.1c-.2-.1-.3-.2-.5-.3.1 0 .3.1.5.3zm10.3-50.3c.2 0 .3-.1.5-.1-.2 0-.4.1-.5.1zm-5.1 1.3c.2-.1.3-.1.5-.2-.2 0-.3.1-.5.2zm10.4-1.6h.4-.4zm.2 54.6h-.6.6zm10.1-2.6c-.1.1-.3.1-.4.2.2 0 .3-.1.4-.2zm-13.1 2.6h-.3.3zm15.4-3.8c-.2.1-.3.2-.5.3.1-.1.3-.2.5-.3zm-34.4-5.5c-.1 0 0 0 0 0zm29.6 7.8c-.2.1-.3.1-.5.2.1-.1.3-.2.5-.2zm15.7-37.3c.1.2.1.3.2.5-.1-.2-.2-.4-.2-.5zM679 590.4s-.1 0 0 0c-.1 0 0 0 0 0zm.6-43.7c.1-.1.3-.2.4-.3-.1.1-.2.2-.4.3zm-2.5 42.1-.4-.4c.1.2.3.3.4.4zm-3.5-3.9c-.1-.2-.2-.3-.3-.5.1.2.2.3.3.5zm38.2 6c-.1.1-.2.1-.2.2 0-.1.1-.1.2-.2zm2.1-1.7c-.2.1-.3.3-.5.4.1-.1.3-.2.5-.4zm5.3-34.3c.1.1.1.2.2.3 0-.1-.1-.2-.2-.3zm-1.3-2.1c.1.1.2.2.2.3-.1 0-.1-.2-.2-.3zm-12.7-9.6c.2.1.3.1.5.2-.2-.1-.4-.2-.5-.2zm-2.8 52.1c-.2 0-.4.1-.5.1.2 0 .3-.1.5-.1zm-2.6-53.5c.2 0 .3.1.5.1-.1 0-.3-.1-.5-.1zm8 2.5c.1.1.2.1.4.2-.1 0-.2-.1-.4-.2zm6.7 4.7zm-2.2-1.9c.1.1.3.2.4.3-.1-.1-.2-.2-.4-.3zm-2.2-1.5c.1.1.2.1.3.2-.1-.1-.2-.2-.3-.2zm-10.5 50.3c-.2 0-.3 0-.5.1.2-.1.3-.1.5-.1zm-27.5-13.3c0-.1-.1-.1-.1-.2.1.1.1.2.1.2zm-2.2-4.7c0-.1-.1-.2-.1-.2.1 0 .1.1.1.2z" class="st35"/><path d="M716.5 551c.5.6 1 1.2 1.4 1.8-.5-.6-.9-1.2-1.4-1.8zm1.6 2.2c.4.6.8 1.2 1.1 1.8-.3-.7-.7-1.3-1.1-1.8zm-9.9-8.7zm4.5 2.9 1.8 1.5-1.8-1.5zm-20.5-5.7c.8-.1 1.5-.2 2.3-.2-.8 0-1.6.1-2.3.2zm18.2 4.1c.7.4 1.3.9 1.9 1.3-.6-.5-1.2-.9-1.9-1.3zm-13-4.3c.8.1 1.6.1 2.4.3l-2.4-.3zm22 13.7c.4.7.7 1.3 1 2-.3-.6-.6-1.3-1-2zm-13.7-11.8c.7.3 1.5.6 2.2 1-.8-.4-1.5-.7-2.2-1zm-23.4 1.6c.6-.3 1.2-.7 1.9-1-.7.4-1.3.7-1.9 1zm20.5-2.6c.8.2 1.6.5 2.4.8-.8-.3-1.6-.6-2.4-.8zm-2.5-.5c.8.1 1.6.3 2.4.5-.7-.2-1.5-.4-2.4-.5zm-5.4-.4h2.2-2.2zm-10.4 2.4c.7-.3 1.4-.6 2.1-.8-.7.2-1.4.5-2.1.8zm30 5.1c.6.5 1.1 1.1 1.6 1.7-.5-.6-1-1.2-1.6-1.7zm-36.7-.8 1.8-1.5-1.8 1.5zm43.7 11.7c-.3-.7-.5-1.4-.9-2.1.4.6.7 1.3.9 2.1 0-.1 0 0 0 0zm-32.1-17.7c.8-.2 1.5-.3 2.3-.4-.8.1-1.6.2-2.3.4zm-2.3.7c.7-.2 1.5-.5 2.3-.7-.8.2-1.6.4-2.3.7zm-7.1 3.5c.6-.4 1.3-.9 1.9-1.2-.6.4-1.2.8-1.9 1.2z" class="st36"/><path d="M721.5 559.8c-.2-.7-.5-1.4-.8-2.1-.1-.2-.1-.3-.2-.5-.3-.7-.7-1.4-1-2-.1-.1-.1-.2-.2-.3-.4-.6-.7-1.2-1.1-1.8-.1-.1-.2-.2-.2-.3-.4-.6-.9-1.2-1.4-1.8-.1-.1-.2-.2-.3-.4-.5-.6-1-1.1-1.6-1.7l-1.8-1.5c-.1-.1-.3-.2-.4-.3-.6-.5-1.2-.9-1.9-1.3-.1-.1-.2-.1-.3-.2-.6-.4-1.2-.7-1.9-1.1-.1-.1-.2-.1-.4-.2-.7-.4-1.4-.7-2.2-1-.2-.1-.3-.1-.5-.2-.8-.3-1.6-.6-2.4-.8-.8-.2-1.6-.4-2.4-.5-.2 0-.3-.1-.5-.1l-2.4-.3h-3c-.8 0-1.6.1-2.3.2-.2 0-.3 0-.5.1-.8.1-1.6.3-2.3.4-.8.2-1.5.4-2.3.7-.2.1-.3.1-.5.2-.7.3-1.4.5-2.1.8-.1.1-.2.1-.3.2-.6.3-1.3.6-1.9 1-.1.1-.2.1-.3.2-.7.4-1.3.8-1.9 1.2-.1.1-.3.2-.4.3-.6.5-1.3.9-1.8 1.5 28.4-13.3 43.3 11.3 43.5 11.6z" class="st35"/><path d="M721.5 559.8c-.2-.7-.5-1.4-.8-2.1-.1-.2-.1-.3-.2-.5-.3-.7-.7-1.4-1-2-.1-.1-.1-.2-.2-.3-.4-.6-.7-1.2-1.1-1.8-.1-.1-.2-.2-.2-.3-.4-.6-.9-1.2-1.4-1.8-.1-.1-.2-.2-.3-.4-.5-.6-1-1.1-1.6-1.7l-1.8-1.5c-.1-.1-.3-.2-.4-.3-.6-.5-1.2-.9-1.9-1.3-.1-.1-.2-.1-.3-.2-.6-.4-1.2-.7-1.9-1.1-.1-.1-.2-.1-.4-.2-.7-.4-1.4-.7-2.2-1-.2-.1-.3-.1-.5-.2-.8-.3-1.6-.6-2.4-.8-.8-.2-1.6-.4-2.4-.5-.2 0-.3-.1-.5-.1l-2.4-.3h-3c-.8 0-1.6.1-2.3.2-.2 0-.3 0-.5.1-.8.1-1.6.3-2.3.4-.8.2-1.5.4-2.3.7-.2.1-.3.1-.5.2-.7.3-1.4.5-2.1.8-.1.1-.2.1-.3.2-.6.3-1.3.6-1.9 1-.1.1-.2.1-.3.2-.7.4-1.3.8-1.9 1.2-.1.1-.3.2-.4.3-.6.5-1.3.9-1.8 1.5 28.4-13.3 43.3 11.3 43.5 11.6z" class="st36"/><path d="M672 582.4c-.4-.7-.7-1.4-1.1-2.1.4.8.7 1.5 1.1 2.1zm1.3 2-1.2-1.8 1.2 1.8zm-2.6-4.6c-.3-.6-.5-1.3-.8-2 .3.7.5 1.4.8 2zm31.2 15.6c-.8.2-1.5.3-2.3.4.8-.1 1.5-.2 2.3-.4zm-26.8-8.7c-.5-.6-1-1.2-1.4-1.8.4.6.9 1.2 1.4 1.8zm18.8 9.4c-.7 0-1.4-.1-2.1-.2.6 0 1.4.1 2.1.2zm21.6-8.5c-.5.6-1.1 1.1-1.7 1.6.6-.5 1.2-1 1.7-1.6zm-2.1 2c-.5.4-1.1.9-1.6 1.3.5-.4 1.1-.8 1.6-1.3zm-1.9 1.5c-.6.4-1.3.9-1.9 1.3.6-.4 1.3-.9 1.9-1.3zm-34.8-2.7c-.5-.5-1-1-1.5-1.6.5.6 1 1.1 1.5 1.6zm19.9 7.7h-2.4 2.4zm7.7-1.4c-.6.2-1.2.4-1.8.5.5-.1 1.2-.3 1.8-.5zm-5.2 1.2c-.7.1-1.3.1-2 .2.7 0 1.4-.1 2-.2zm7.8-2.2-2.1.9 2.1-.9zm2.2-1.1c-.6.3-1.1.6-1.7.9.5-.3 1.1-.5 1.7-.9zm-39.8-16.7c.2.6.3 1.2.5 1.8-.2-.5-.3-1.1-.5-1.6v-.2zm21.8 19.8c-.8-.1-1.6-.3-2.4-.5.8.2 1.6.4 2.4.5zm-2.5-.5c-.8-.2-1.6-.5-2.4-.8.8.3 1.6.6 2.4.8zm-9.7-4.8-1.8-1.5 1.8 1.5zm4.6 2.8-2.1-1.2c.6.5 1.3.9 2.1 1.2zm-2.6-1.5c-.6-.4-1.3-.8-1.9-1.3.6.5 1.2.9 1.9 1.3zm4.8 2.5c-.7-.3-1.5-.6-2.2-1 .7.4 1.4.7 2.2 1z" class="st37"/><path d="M669.4 576c.1.5.3 1.1.5 1.6 0 .1.1.2.1.2.2.7.5 1.3.8 2 .1.2.2.4.2.5.3.7.7 1.4 1.1 2.1 0 .1.1.1.1.2l1.2 1.8c.1.2.2.3.3.5.5.6.9 1.2 1.4 1.8l.1.1c.5.5 1 1.1 1.5 1.6l.4.4 1.8 1.5s.1 0 .1.1c.6.5 1.2.9 1.9 1.3.2.1.3.2.5.3l2.1 1.2h.1c.7.3 1.4.7 2.2 1 .2.1.4.1.6.2.8.3 1.6.5 2.4.8.8.2 1.6.4 2.4.5.2 0 .4.1.6.1.7.1 1.4.2 2.1.2h3.3c.7 0 1.3-.1 2-.2.2 0 .3 0 .5-.1.8-.1 1.5-.3 2.3-.4.2 0 .4-.1.5-.1.6-.2 1.2-.3 1.8-.5.2-.1.3-.1.5-.2.7-.3 1.4-.5 2.1-.9.1-.1.3-.1.4-.2.6-.3 1.2-.6 1.7-.9.2-.1.3-.2.5-.3.7-.4 1.3-.8 1.9-1.3.1-.1.2-.1.2-.2.6-.4 1.1-.8 1.6-1.3.2-.1.3-.3.5-.4.6-.5 1.2-1.1 1.7-1.6-30.3 19.6-45-9.2-46-11.4z" class="st35"/><path d="M669.4 576c.1.5.3 1.1.5 1.6 0 .1.1.2.1.2.2.7.5 1.3.8 2 .1.2.2.4.2.5.3.7.7 1.4 1.1 2.1 0 .1.1.1.1.2l1.2 1.8c.1.2.2.3.3.5.5.6.9 1.2 1.4 1.8l.1.1c.5.5 1 1.1 1.5 1.6l.4.4 1.8 1.5s.1 0 .1.1c.6.5 1.2.9 1.9 1.3.2.1.3.2.5.3l2.1 1.2h.1c.7.3 1.4.7 2.2 1 .2.1.4.1.6.2.8.3 1.6.5 2.4.8.8.2 1.6.4 2.4.5.2 0 .4.1.6.1.7.1 1.4.2 2.1.2h3.3c.7 0 1.3-.1 2-.2.2 0 .3 0 .5-.1.8-.1 1.5-.3 2.3-.4.2 0 .4-.1.5-.1.6-.2 1.2-.3 1.8-.5.2-.1.3-.1.5-.2.7-.3 1.4-.5 2.1-.9.1-.1.3-.1.4-.2.6-.3 1.2-.6 1.7-.9.2-.1.3-.2.5-.3.7-.4 1.3-.8 1.9-1.3.1-.1.2-.1.2-.2.6-.4 1.1-.8 1.6-1.3.2-.1.3-.3.5-.4.6-.5 1.2-1.1 1.7-1.6-30.3 19.6-45-9.2-46-11.4z" class="st37"/><path d="M603.5 921.4c.4.1.9.3 1.3.4-.4-.1-.9-.3-1.3-.4zm-11.2 18.8c-.2-.2-.4-.5-.6-.7.2.2.4.5.6.7zm6.7 3.5c-.5-.1-.9-.1-1.4-.3.5.1 1 .2 1.4.3zm.5-22.6h.9c-.3-.1-.6-.1-.9 0zm4 22.3c-.4.1-.7.2-1.1.2.4-.1.8-.1 1.1-.2z" class="st35"/><path d="M589.6 929.4c-.5 2-.5 4.1 0 5.9.4.9 6.5 12.9 19.2 4.8 1.3-1.3 2.2-3 2.7-4.9.6-2.3.5-4.6-.2-6.7-.1-.1-6.3-10.4-18.2-4.9-1.7 1.6-2.9 3.6-3.5 5.8zm11.3-8.4c.3 0 .6 0 .9.1-.3 0-.6-.1-.9-.1z" class="st35"/><path d="M595.9 942.8c-.3-.1-.6-.3-.9-.5.3.2.6.3.9.5zm-.3-20.6c.3-.1.5-.2.8-.4-.3.1-.6.3-.8.4zm6.6 21.4c-.4.1-.9.1-1.4.1.5 0 1 0 1.4-.1zm-4.6-.2c-.5-.1-.9-.3-1.3-.5.4.2.9.4 1.3.5zm-6.2-4.2c-.3-.4-.5-.7-.7-1.1.2.3.5.7.7 1.1zm5.3-17.5zm-6.1 16.2c-.2-.3-.4-.7-.5-1.1.2.4.3.8.5 1.1zm9.9 5.9c-.4 0-.7 0-1.1-.1.4 0 .7.1 1.1.1zm-10.5-7.3-.3-.9c0 .3.1.6.3.9zm18.4-12.4.9.9-.9-.9zm-1-.8c.3.2.6.5.9.8-.2-.3-.6-.5-.9-.8zm-1 18.9-1.2.6 1.2-.6zm-.1-19.6c.3.2.5.3.7.5-.2-.2-.4-.3-.7-.5zm-11.6 19.5zm7.5-21c.4.1.9.1 1.3.3-.4-.1-.9-.2-1.3-.3zm5.3 20.3c-.3.2-.6.4-.8.6.3-.2.6-.4.8-.6zm-14-.1c-.3-.3-.6-.5-.9-.8.3.3.6.6.9.8zm11.6-19.3c.3.1.6.3.8.4-.2-.2-.5-.3-.8-.4zm-.1 20.9c-.3.1-.7.3-1 .4.3-.2.6-.3 1-.4zm3.8-2.7c-.3.3-.6.6-1 .9.4-.3.7-.6 1-.9zm1.4-13.8c.2.2.3.5.4.8-.1-.3-.2-.5-.4-.8zm-15.8-3.6c.2-.2.5-.3.7-.4-.2.1-.4.3-.7.4zm16.4 4.7c.2.3.3.7.4 1.1 0-.4-.2-.7-.4-1.1zm-17.7-3.7c.3-.3.6-.5 1-.8-.4.3-.7.5-1 .8zm16.4 1.5c.2.2.4.5.5.7-.2-.2-.3-.4-.5-.7z" class="st35"/><path d="M595.2 922.4c.1-.1.3-.1.4-.2-.2.1-.3.1-.4.2zm1.1-.6c.1 0 .2-.1.4-.1-.1 0-.2.1-.4.1zm15 6.9c0-.1 0-.1 0 0 0-.1 0-.1 0 0zm-10.9-7.7h.5-.5zm-7.3 2.8zm12.9-1.4c.1.1.3.1.4.2-.2-.1-.3-.1-.4-.2zm-6.8-1.3h.4-.4zM610 926c.1.1.2.2.2.4 0-.1-.1-.2-.2-.4zm-2.9-2.9c.1.1.2.2.3.2-.1-.1-.2-.1-.3-.2zm-13-.1c.1-.1.2-.1.3-.2-.1.1-.2.2-.3.2zm15.1 2c.1.1.2.2.2.3 0-.1-.1-.2-.2-.3zm-.9-.9c.1 0 .1 0 0 0 .1 0 .1 0 0 0zm-3.5-2.3c.1.1.2.1.4.2-.2-.1-.3-.1-.4-.2zm-3-.7h.4-.4zm8.9 6.1c.1.1.1.2.2.4-.1-.2-.2-.3-.2-.4z" class="st36"/><path d="M611.3 928.7c0-.1 0-.1 0 0-.2-.4-.3-.8-.5-1.1-.1-.1-.1-.2-.2-.4-.1-.3-.3-.5-.4-.8-.1-.1-.2-.2-.2-.4-.2-.2-.3-.5-.5-.7-.1-.1-.2-.2-.2-.3l-.9-.9c-.3-.3-.6-.5-.9-.8-.1-.1-.2-.2-.3-.2-.2-.2-.5-.3-.7-.5-.1-.1-.3-.1-.4-.2-.3-.1-.5-.3-.8-.4-.1-.1-.2-.1-.4-.2-.4-.2-.8-.3-1.3-.4-.4-.1-.9-.2-1.3-.3h-.4c-.3 0-.6-.1-.9-.1h-1.8c-.8.1-1.7.3-2.4.6-.1 0-.2.1-.4.1-.3.1-.5.2-.8.4-.1.1-.3.1-.4.2-.3.1-.5.3-.7.4-.1.1-.2.1-.3.2-.3.2-.7.5-1 .8 11.8-5.4 18 4.8 18.1 5z" class="st35"/><path d="M611.3 928.7c0-.1 0-.1 0 0-.2-.4-.3-.8-.5-1.1-.1-.1-.1-.2-.2-.4-.1-.3-.3-.5-.4-.8-.1-.1-.2-.2-.2-.4-.2-.2-.3-.5-.5-.7-.1-.1-.2-.2-.2-.3l-.9-.9c-.3-.3-.6-.5-.9-.8-.1-.1-.2-.2-.3-.2-.2-.2-.5-.3-.7-.5-.1-.1-.3-.1-.4-.2-.3-.1-.5-.3-.8-.4-.1-.1-.2-.1-.4-.2-.4-.2-.8-.3-1.3-.4-.4-.1-.9-.2-1.3-.3h-.4c-.3 0-.6-.1-.9-.1h-1.8c-.8.1-1.7.3-2.4.6-.1 0-.2.1-.4.1-.3.1-.5.2-.8.4-.1.1-.3.1-.4.2-.3.1-.5.3-.7.4-.1.1-.2.1-.3.2-.3.2-.7.5-1 .8 11.8-5.4 18 4.8 18.1 5z" class="st36"/><path d="M607.8 941.1c-.1.1-.2.2-.3.2.1 0 .2-.1.3-.2zm-1.1.9c-.1.1-.2.1-.3.2.1-.1.2-.2.3-.2zm-13.1-.6c-.1-.1-.1-.1 0 0-.1-.1-.1-.1 0 0zm-2-2c-.1-.1-.2-.2-.2-.3.1.2.2.2.2.3zm10.9 4.2h-.2.2zm-3.1.1h-.4.4zm-4.4-1.4c-.1-.1-.2-.1-.3-.2.1.1.2.1.3.2zm-2.4-1.8-.3-.3.3.3zm8.2 3.3h-.4.4zm3.1-.6c-.1 0-.3.1-.4.1.2 0 .3 0 .4-.1zm-7.6-.3c-.1-.1-.2-.1-.4-.2.1.1.3.2.4.2zm8.9-.1c-.1 0-.2.1-.2.1.1-.1.1-.1.2-.1zm-15.6-7.5c0 .1.1.2.1.2-.1 0-.1 0-.1-.2 0 .1 0 0 0 0zm.5 1.6c-.1-.1-.1-.2-.1-.4 0 .1.1.3.1.4zm.6 1.2s0-.1 0 0c0-.1 0-.1 0 0z" class="st37"/><path d="M589.6 935.4c0 .1 0 .1.1.2l.3.9c0 .1.1.2.1.4.2.4.3.7.5 1.1 0 0 0 .1.1.1.2.4.5.7.7 1.1.1.1.2.2.2.3.2.3.4.5.6.7l.3.3c.3.3.6.6.9.8h.1c.4.3.7.5 1.1.8.1.1.2.1.3.2.3.2.6.3.9.5.1.1.2.1.4.2.4.2.9.3 1.3.5.5.1.9.2 1.4.3h.4c.4 0 .7.1 1.1.1h.4c.5 0 .9 0 1.4-.1h.2c.4-.1.7-.1 1.1-.2.1 0 .3-.1.4-.1.4-.1.7-.2 1-.4.1 0 .2-.1.2-.1l1.2-.6c.1-.1.2-.1.3-.2.3-.2.6-.4.8-.6.1-.1.2-.2.3-.2.3-.3.7-.6 1-.9-12.6 7.8-18.7-4.2-19.1-5.1z" class="st35"/><path d="M589.6 935.4c0 .1 0 .1.1.2l.3.9c0 .1.1.2.1.4.2.4.3.7.5 1.1 0 0 0 .1.1.1.2.4.5.7.7 1.1.1.1.2.2.2.3.2.3.4.5.6.7l.3.3c.3.3.6.6.9.8h.1c.4.3.7.5 1.1.8.1.1.2.1.3.2.3.2.6.3.9.5.1.1.2.1.4.2.4.2.9.3 1.3.5.5.1.9.2 1.4.3h.4c.4 0 .7.1 1.1.1h.4c.5 0 .9 0 1.4-.1h.2c.4-.1.7-.1 1.1-.2.1 0 .3-.1.4-.1.4-.1.7-.2 1-.4.1 0 .2-.1.2-.1l1.2-.6c.1-.1.2-.1.3-.2.3-.2.6-.4.8-.6.1-.1.2-.2.3-.2.3-.3.7-.6 1-.9-12.6 7.8-18.7-4.2-19.1-5.1z" class="st37"/><path d="m779.4 693.5.9.9-.9-.9zm1.1 1.3c.2.2.4.5.5.7-.1-.3-.3-.5-.5-.7zm-2.1-2.1c.3.2.6.5.9.8-.2-.3-.5-.5-.9-.8zM761 705.9l-.3-.9.3.9zm5.6-14.3c.3-.1.5-.2.8-.4-.3.2-.6.3-.8.4zm2.3-.9c.4-.1.8-.2 1.2-.2-.3.1-.8.1-1.2.2zm3-.3c.3 0 .6 0 .9.1-.3 0-.6-.1-.9-.1zm-1.3.1h.9c-.3-.1-.6 0-.9 0zm-2.9.6c.4-.1.8-.3 1.2-.4-.4.1-.8.3-1.2.4zm8.5.3c.3.1.6.3.8.4-.3-.1-.6-.3-.8-.4zm-3-.8c.4.1.9.1 1.3.3-.4-.2-.8-.3-1.3-.3zm-7.8 1.6c.2-.2.5-.3.7-.4-.2.1-.4.3-.7.4zm12-.2c.3.2.5.3.7.5-.2-.2-.5-.3-.7-.5zm-2.9-1.2c.4.1.9.3 1.3.4-.4-.1-.8-.3-1.3-.4zm-4.5 22.3c-.5-.1-.9-.1-1.4-.3.5.1 1 .2 1.4.3zm9.8-3.5c-.3.3-.6.6-1 .9.4-.2.7-.5 1-.9zm-5.2 3.2c-.4.1-.7.2-1.1.2.3 0 .7-.1 1.1-.2zm2.8-1.2-1.2.6 1.2-.6zm-15.7-4.2c-.2-.3-.4-.7-.5-1.1.1.4.3.7.5 1.1zm16.9 3.4c-.3.2-.6.4-.8.6.2-.2.5-.4.8-.6zm-14.5-17.6c.3-.3.6-.5 1-.8-.3.3-.7.5-1 .8zm17.8 3.7c.2.3.3.7.4 1.1-.1-.4-.3-.7-.4-1.1zm-.6-1.1c.2.2.3.5.4.8-.1-.3-.3-.5-.4-.8zm-5.3 16.5c-.3.1-.7.3-1 .4.3-.2.7-.3 1-.4zm-12.7-2.7c-.2-.2-.4-.5-.6-.7.2.2.4.5.6.7zm2.4 1.9zm-1.2-.8c-.3-.3-.6-.5-.9-.8.3.3.6.6.9.8zm-2.1-2.1c-.3-.4-.5-.7-.7-1.1.2.3.5.7.7 1.1zm6.2 4.2c-.5-.1-.9-.3-1.3-.5.4.2.9.4 1.3.5zm-1.7-.6c-.3-.1-.6-.3-.9-.5.3.2.6.3.9.5zm4.6 1c-.4 0-.7 0-1.1-.1.4 0 .8.1 1.1.1zm1.7-.1c-.4.1-.9.1-1.4.1.5 0 1-.1 1.4-.1z" class="st35"/><path d="M779.8 709.6c1.3-1.3 2.2-3 2.7-4.9.6-2.3.5-4.6-.2-6.7-.1-.1-6.3-10.4-18.2-4.9-1.7 1.4-2.9 3.4-3.5 5.6-.5 2-.5 4.1 0 5.9.5 1.1 6.6 13.1 19.2 5z" class="st35"/><path d="M772.8 690.5h.4-.4zm3 .7c.1.1.2.1.4.2-.2-.1-.3-.1-.4-.2zm-8.4 0c.1 0 .2-.1.4-.1-.2 0-.3.1-.4.1zm4.1-.8h.5-.5zm-1.3.1h.4-.4zm-4 1.3c.1-.1.3-.1.4-.2-.2.1-.3.1-.4.2zm14.1 2.7c.1.1.2.2.2.3-.1-.1-.2-.2-.2-.3zm-3.3-2.7c.1.1.3.1.4.2-.2-.1-.3-.1-.4-.2zm4 3.7c.1.1.2.2.2.4 0-.2-.1-.3-.2-.4zm-1.6-2zm-1.3-1c.1.1.2.2.3.2-.1-.1-.2-.1-.3-.2zm3.6 4.1c.1.1.1.2.2.4-.1-.2-.2-.3-.2-.4zm.6 1.5c0-.1 0-.1 0 0 0-.1 0-.1 0 0zm-18.2-4.9zm1-.7c.1-.1.2-.1.3-.2-.1 0-.2.1-.3.2z" class="st36"/><path d="M782.3 698.1c0-.1 0-.1 0 0-.2-.4-.3-.8-.5-1.1-.1-.1-.1-.2-.2-.4-.1-.3-.3-.5-.4-.8-.1-.1-.2-.2-.2-.4-.2-.2-.3-.5-.5-.7-.1-.1-.2-.2-.2-.3l-.9-.9c-.3-.3-.6-.5-.9-.8-.1-.1-.2-.2-.3-.2-.2-.2-.5-.3-.7-.5-.1-.1-.3-.1-.4-.2-.3-.1-.5-.3-.8-.4-.1-.1-.2-.1-.4-.2-.4-.2-.8-.3-1.3-.4-.4-.1-.9-.2-1.3-.3h-.4c-.3 0-.6-.1-.9-.1h-1.8c-.4.1-.8.1-1.2.2-.4.1-.8.2-1.2.4-.1 0-.2.1-.4.1-.3.1-.5.2-.8.4-.1.1-.3.1-.4.2-.3.1-.5.3-.7.4-.1.1-.2.1-.3.2-.3.2-.7.5-1 .8 11.8-5.4 18.1 4.8 18.1 5z" class="st35"/><path d="M782.3 698.1c0-.1 0-.1 0 0-.2-.4-.3-.8-.5-1.1-.1-.1-.1-.2-.2-.4-.1-.3-.3-.5-.4-.8-.1-.1-.2-.2-.2-.4-.2-.2-.3-.5-.5-.7-.1-.1-.2-.2-.2-.3l-.9-.9c-.3-.3-.6-.5-.9-.8-.1-.1-.2-.2-.3-.2-.2-.2-.5-.3-.7-.5-.1-.1-.3-.1-.4-.2-.3-.1-.5-.3-.8-.4-.1-.1-.2-.1-.4-.2-.4-.2-.8-.3-1.3-.4-.4-.1-.9-.2-1.3-.3h-.4c-.3 0-.6-.1-.9-.1h-1.8c-.4.1-.8.1-1.2.2-.4.1-.8.2-1.2.4-.1 0-.2.1-.4.1-.3.1-.5.2-.8.4-.1.1-.3.1-.4.2-.3.1-.5.3-.7.4-.1.1-.2.1-.3.2-.3.2-.7.5-1 .8 11.8-5.4 18.1 4.8 18.1 5z" class="st36"/><path d="M760.7 705c0-.1 0-.1-.1-.2v-.1c0 .1.1.2.1.3zm.4 1.3c-.1-.1-.1-.2-.1-.4 0 .1.1.3.1.4zm.6 1.2s0-.1 0 0c0-.1 0-.1 0 0zm1 1.4c-.1-.1-.2-.2-.2-.3 0 .1.1.2.2.3zm12.3 3.8c-.1 0-.3.1-.4.1.1-.1.2-.1.4-.1zm1.2-.5c-.1 0-.2.1-.2.1.1-.1.2-.1.2-.1zm-2.7.8h-.2.2zm5.4-2.5c-.1.1-.2.2-.3.2.1 0 .2-.1.3-.2zm-1.2.9c-.1.1-.2.1-.3.2.1-.1.2-.2.3-.2zm-7.3 1.7h-.4.4zm-4.4-1.4c-.1-.1-.2-.1-.3-.2.1.1.2.2.3.2zm-1.4-.9s0-.1 0 0c0-.1 0 0 0 0zm2.7 1.5c-.1-.1-.2-.1-.4-.2.2.1.3.2.4.2zm4.6.9h-.4.4zm-8.3-3.3-.3-.3.3.3z" class="st37"/><path d="M761 705.9c0 .1.1.2.1.4.2.4.3.7.5 1.1 0 0 0 .1.1.1.2.4.5.7.7 1.1.1.1.2.2.2.3.2.3.4.5.6.7l.3.3c.3.3.6.6.9.8h.1c.4.3.7.5 1.1.8.1.1.2.1.3.2.3.2.6.3.9.5.1.1.2.1.4.2.4.2.9.3 1.3.5.5.1.9.2 1.4.3h.4c.4 0 .7.1 1.1.1h.4c.5 0 .9 0 1.4-.1h.2c.4-.1.7-.1 1.1-.2.1 0 .3-.1.4-.1.4-.1.7-.2 1-.4.1 0 .2-.1.2-.1l1.2-.6c.1-.1.2-.1.3-.2.3-.2.6-.4.8-.6.1-.1.2-.2.3-.2.3-.3.7-.6 1-.9-12.7 8.1-18.8-3.9-19.2-4.8 0 .1 0 .1.1.2.2 0 .3.3.4.6z" class="st35"/><path d="M761 705.9c0 .1.1.2.1.4.2.4.3.7.5 1.1 0 0 0 .1.1.1.2.4.5.7.7 1.1.1.1.2.2.2.3.2.3.4.5.6.7l.3.3c.3.3.6.6.9.8h.1c.4.3.7.5 1.1.8.1.1.2.1.3.2.3.2.6.3.9.5.1.1.2.1.4.2.4.2.9.3 1.3.5.5.1.9.2 1.4.3h.4c.4 0 .7.1 1.1.1h.4c.5 0 .9 0 1.4-.1h.2c.4-.1.7-.1 1.1-.2.1 0 .3-.1.4-.1.4-.1.7-.2 1-.4.1 0 .2-.1.2-.1l1.2-.6c.1-.1.2-.1.3-.2.3-.2.6-.4.8-.6.1-.1.2-.2.3-.2.3-.3.7-.6 1-.9-12.7 8.1-18.8-3.9-19.2-4.8 0 .1 0 .1.1.2.2 0 .3.3.4.6z" class="st37"/><path d="M267.7 796.8zm12.4-1.5-.9.6c.3-.1.6-.3.9-.6zm-15 0c-.4-.3-.7-.6-1-.9.3.3.7.6 1 .9zm13.8.9c-.4.2-.8.5-1.3.7.5-.3.9-.5 1.3-.7zm-4.5 1.6c-.5.1-1 .1-1.4.1.5 0 .9-.1 1.4-.1zm1.4-.4-1.2.3c.5-.1.9-.1 1.2-.3zm-6.3.1c-.5-.1-1-.3-1.4-.5.5.2.9.3 1.4.5zm7.9-.6c-.4.2-.7.3-1.1.4.3-.1.7-.2 1.1-.4zm-6.4.9-1.5-.3 1.5.3zm1.6.1c-.4 0-.8 0-1.1-.1.3 0 .7.1 1.1.1zm-6.2-1.8c-.4-.2-.8-.5-1.2-.8.4.3.8.6 1.2.8zm13.6-20c.3.3.7.5 1 .8-.3-.3-.7-.6-1-.8zm1 .8c.3.3.6.6.9 1-.3-.3-.6-.7-.9-1zm-2.2-1.6c.3.2.5.3.8.5-.2-.2-.5-.3-.8-.5zm-1.3-.7c.3.1.6.3.9.4-.3-.1-.6-.2-.9-.4zm-1.7-.6c.5.1.9.3 1.3.5-.4-.2-.8-.4-1.3-.5zm7.8 6.5c.2.4.3.7.5 1.1-.1-.3-.3-.7-.5-1.1zm-9.2-6.8c.5.1.9.2 1.4.3-.5-.1-.9-.2-1.4-.3zm7.8 4.5c.2.2.4.5.6.8-.2-.3-.4-.5-.6-.8z" class="st35"/><path d="M264.7 776.6c-1.8 1.5-3.1 3.6-3.8 6-.6 2.2-.5 4.3 0 6.3.5 1 7 13.8 20.5 5.1-.3.3-.7.7-1.1 1 1.9-1.6 3.3-3.7 4-6.2.7-2.4.5-4.9-.3-7.1 0-.1-6.6-11-19.3-5.1zm18.3 2.8c.2.3.3.5.5.8-.2-.3-.4-.6-.5-.8zm-18.3-2.8z" class="st35"/><path d="M261.4 790.1c-.1-.3-.2-.7-.3-1 0 .4.1.7.3 1zm.7 1.6c-.2-.4-.4-.8-.6-1.1.2.3.4.7.6 1.1zm1.7 2.4c-.2-.3-.5-.5-.7-.8.3.2.5.5.7.8zm-.9-1.1c-.3-.4-.5-.8-.8-1.2.3.4.5.8.8 1.2zm4.4-18.1c.3-.1.6-.3.9-.4-.3.1-.6.2-.9.4zm1.3-.6c.4-.2.8-.3 1.3-.4-.5.1-.9.3-1.3.4zm-2.5 1.2c.3-.2.5-.3.8-.5-.3.2-.5.4-.8.5zm3.7-1.6c.4-.1.9-.2 1.3-.2-.4.1-.8.1-1.3.2zm1.8-.2h1c-.4-.1-.7-.1-1 0zm1.4-.1c.3 0 .6 0 1 .1-.3-.1-.7-.1-1-.1z" class="st35"/><path d="M284.1 781.7c0 .1 0 .1 0 0zm-11.6-8.1h.5-.5zm-5.6 1.5c.1-.1.3-.1.4-.2-.1 0-.3.1-.4.2zm1.3-.6c.1-.1.3-.1.4-.2-.2.1-.3.1-.4.2zm3-.8h.4-.4zm5.9.8c.1.1.3.1.4.2-.1-.1-.2-.2-.4-.2zm-3.1-.8h.4-.4zm8.7 5.3c.1.1.2.3.3.4-.1-.2-.2-.3-.3-.4zm-4.3-3.9c.1.1.3.2.4.2-.1-.1-.2-.2-.4-.2zm5 5.1c.1.1.1.3.2.4 0-.2-.1-.3-.2-.4zm-2.4-3.3zm.9 1 .3.3-.3-.3zm-2.3-2.1c.1.1.2.2.3.2 0 0-.2-.1-.3-.2zm-13.8 0c.1-.1.2-.1.3-.2-.1 0-.2.1-.3.2z" class="st36"/><path d="M283.6 780.5c-.1-.1-.1-.3-.2-.4-.1-.3-.3-.5-.5-.8-.1-.1-.2-.3-.3-.4-.2-.3-.4-.5-.6-.8l-.3-.3c-.3-.3-.6-.7-.9-1-.3-.3-.6-.6-1-.8-.1-.1-.2-.2-.3-.2-.3-.2-.5-.4-.8-.5-.1-.1-.3-.2-.4-.2-.3-.2-.6-.3-.9-.4-.1-.1-.3-.1-.4-.2-.4-.2-.9-.3-1.3-.5-.5-.1-.9-.2-1.4-.3h-.4c-.3 0-.6-.1-1-.1H271c-.4.1-.9.1-1.3.2s-.9.2-1.3.4c-.1 0-.3.1-.4.2-.3.1-.6.2-.9.4-.1.1-.3.1-.4.2-.3.1-.5.3-.8.5-.1.1-.2.1-.3.2-.4.3-.7.5-1.1.8 12.7-5.9 19.4 5 19.4 5.2v-.1c.1-.3-.1-.7-.3-1.1z" class="st35"/><path d="M283.6 780.5c-.1-.1-.1-.3-.2-.4-.1-.3-.3-.5-.5-.8-.1-.1-.2-.3-.3-.4-.2-.3-.4-.5-.6-.8l-.3-.3c-.3-.3-.6-.7-.9-1-.3-.3-.6-.6-1-.8-.1-.1-.2-.2-.3-.2-.3-.2-.5-.4-.8-.5-.1-.1-.3-.2-.4-.2-.3-.2-.6-.3-.9-.4-.1-.1-.3-.1-.4-.2-.4-.2-.9-.3-1.3-.5-.5-.1-.9-.2-1.4-.3h-.4c-.3 0-.6-.1-1-.1H271c-.4.1-.9.1-1.3.2s-.9.2-1.3.4c-.1 0-.3.1-.4.2-.3.1-.6.2-.9.4-.1.1-.3.1-.4.2-.3.1-.5.3-.8.5-.1.1-.2.1-.3.2-.4.3-.7.5-1.1.8 12.7-5.9 19.4 5 19.4 5.2v-.1c.1-.3-.1-.7-.3-1.1z" class="st36"/><path d="M262.1 791.8s0-.1-.1-.1c.1 0 .1.1.1.1zm10.9 6.1h-.4.4zm-11.5-7.4c-.1-.1-.1-.3-.2-.4.1.2.2.3.2.4zm9.9 7.3h-.4.4zm-3.3-.8c-.1-.1-.3-.1-.4-.2.1.1.3.1.4.2zm6.6.7h-.3.3zm1.6-.4c-.1 0-.3.1-.4.1.1 0 .2 0 .4-.1zm-9.6-1c-.1-.1-.2-.1-.4-.2.2.1.3.2.4.2zm-2.6-1.9-.3-.3.3.3zm-.9-1.1c-.1-.1-.2-.2-.2-.3 0 .1.1.2.2.3zm2 2zm15.2-.2-.3.3c.1-.2.2-.2.3-.3zm-1.2.9c-.1.1-.2.1-.3.2.1-.1.2-.2.3-.2zm-1.6.8c-.1 0-.2.1-.2.1.1 0 .1 0 .2-.1zm-16.7-7.9c0 .1.1.2.1.2s0-.1-.1-.2z" class="st37"/><path d="M261 788.9c0 .1 0 .1.1.2.1.3.2.7.3 1 .1.1.1.3.2.4.2.4.4.8.6 1.1 0 0 0 .1.1.1.2.4.5.8.8 1.2.1.1.2.2.2.3.2.3.4.5.7.8l.3.3c.3.3.7.6 1 .9h.1c.4.3.8.6 1.2.8.1.1.2.1.4.2.3.2.6.3 1 .5.1.1.3.1.4.2.5.2.9.4 1.4.5l1.5.3h.4c.4 0 .8.1 1.1.1h.4c.5 0 1-.1 1.4-.1h.3l1.2-.3c.1 0 .3-.1.4-.1.4-.1.8-.3 1.1-.4.1 0 .2-.1.2-.1.4-.2.9-.4 1.3-.7.1-.1.2-.1.3-.2l.9-.6.3-.3c.4-.3.7-.6 1.1-1-13.8 8.7-20.3-4.1-20.7-5.1z" class="st35"/><path d="M261 788.9c0 .1 0 .1.1.2.1.3.2.7.3 1 .1.1.1.3.2.4.2.4.4.8.6 1.1 0 0 0 .1.1.1.2.4.5.8.8 1.2.1.1.2.2.2.3.2.3.4.5.7.8l.3.3c.3.3.7.6 1 .9h.1c.4.3.8.6 1.2.8.1.1.2.1.4.2.3.2.6.3 1 .5.1.1.3.1.4.2.5.2.9.4 1.4.5l1.5.3h.4c.4 0 .8.1 1.1.1h.4c.5 0 1-.1 1.4-.1h.3l1.2-.3c.1 0 .3-.1.4-.1.4-.1.8-.3 1.1-.4.1 0 .2-.1.2-.1.4-.2.9-.4 1.3-.7.1-.1.2-.1.3-.2l.9-.6.3-.3c.4-.3.7-.6 1.1-1-13.8 8.7-20.3-4.1-20.7-5.1z" class="st37"/><path d="M163.7 916.4c.2-.1.4-.3.6-.5-.3.2-.5.3-.6.5zm-51.3-80.5c.8-.4 1.5-.8 2.3-1.1-.8.3-1.5.7-2.3 1.1zm52.9 6c.6.5 1.2 1.1 1.8 1.6-.6-.5-1.2-1.1-1.8-1.6zm1.9 1.8c.6.6 1.3 1.2 1.9 1.9-.6-.7-1.2-1.3-1.9-1.9zm5.9 6.7c.5.6.9 1.3 1.3 1.9-.4-.7-.9-1.3-1.3-1.9zm-12.2-11.8c.5.3 1 .7 1.5 1.1-.5-.4-1-.7-1.5-1.1zm-3-1.8c.8.4 1.6.9 2.3 1.4-.8-.5-1.5-1-2.3-1.4zm11.7 9.3c.4.5.8.9 1.2 1.4-.3-.4-.7-.9-1.2-1.4zm5 6.4c.5.7.9 1.5 1.4 2.2-.5-.7-1-1.4-1.4-2.2zm-5.5 59c-.7.7-1.3 1.4-2 2l2-2zm-53.6-77.1c.6-.2 1.1-.5 1.7-.7-.6.3-1.2.5-1.7.7zm60.8 21.1c.3.5.6 1.1.9 1.6-.3-.5-.6-1.1-.9-1.6zm-4.8-7.2c.4.5.8.9 1.1 1.4-.4-.5-.8-1-1.1-1.4zm-5 65.7c-.5.5-1.1 1-1.7 1.4.6-.4 1.1-.9 1.7-1.4zm11.1-56.1c.3.5.5 1.1.7 1.6-.2-.5-.5-1-.7-1.6zm-22.1-22.4c.8.4 1.6.8 2.3 1.2-.8-.4-1.6-.8-2.3-1.2zm-23.5-4.9c.9 0 1.8-.1 2.7-.1-.9.1-1.8.1-2.7.1zm-2.7.2c.6-.1 1.2-.1 1.9-.2-.6.1-1.2.2-1.9.2zm5.4-.2c.9 0 1.8.1 2.7.1-.8-.1-1.8-.1-2.7-.1zm9.3 1 2.7.6-2.7-.6zm34.7 28.8c.3.7.6 1.4.8 2.1-.3-.7-.6-1.4-.8-2.1zm-40.4-29.7c.6.1 1.3.1 1.9.2-.6 0-1.3-.1-1.9-.2zm2.9.4c.6.1 1.3.2 1.9.3-.6-.1-1.3-.2-1.9-.3z" class="st35"/><path d="M113.5 838.2c.5 1 .9 1.9 1.4 2.9 13.5 26.9 29.5 51.6 47.7 74 2.1-1.1 4.2-2.3 6.4-3.7 5.3-5.6 9.4-12.6 11.5-20.6 2.6-9.6 2-19.4-1-28.1-.2-.4-22.8-37.6-66-24.5zm39.4-3.8zm-32.3-1.8c.8-.3 1.7-.5 2.6-.7-.9.2-1.8.4-2.6.7zm-2.5.8 1.8-.6c-.7.2-1.3.4-1.8.6zm8.5-2.2zm-3.5.7c.9-.2 1.7-.4 2.6-.5-.8.1-1.7.3-2.6.5zm23.6.3c.9.2 1.8.5 2.7.8-.9-.3-1.8-.5-2.7-.8zm3.5 1.1c.6.2 1.2.4 1.8.7-.6-.3-1.2-.5-1.8-.7zm13 6.9c.5.4 1 .8 1.4 1.1-.5-.3-.9-.7-1.4-1.1z" class="st35"/><path d="m117.2 833.7.9-.3-.9.3zm60 23.4c.1.3.3.6.4.8-.2-.2-.3-.5-.4-.8zm-17-18.9c.2.1.5.3.7.5-.3-.2-.5-.4-.7-.5zm18.1 21.4c.1.3.2.5.3.8-.1-.3-.2-.6-.3-.8zm-58.5-26.8c.3-.1.5-.2.8-.2-.3.1-.5.1-.8.2zm38 3.9zm-32.1-5.4c.3 0 .5-.1.8-.1-.2 0-.5.1-.8.1zm14.5-.4c.3 0 .6.1 1 .1-.3 0-.7 0-1-.1zm24.4 10.5c.2.2.4.4.7.5-.2-.2-.5-.3-.7-.5zm-21.5-10c.3.1.6.1.9.2-.3-.1-.6-.1-.9-.2zm24 12.1c.1 0 .1.1.2.1-.1 0-.2 0-.2-.1zm-12.4-8.4c.3.1.5.2.8.4-.3-.1-.6-.2-.8-.4zm-5.3-2.1c.3.1.6.2.8.3-.3-.1-.5-.2-.8-.3zm13 6.7c.3.2.5.4.8.6-.3-.2-.5-.4-.8-.6zm-34-8.8c.3 0 .6-.1.9-.1-.3.1-.6.1-.9.1zm2.8-.2c.3 0 .6 0 .8-.1-.2 0-.5.1-.8.1zm43.2 21.6c.1.1.1.2.2.2-.1 0-.1-.1-.2-.2zm1.5 2.5c.1.2.2.5.4.7-.1-.3-.2-.5-.4-.7zm-5-7.3c.2.2.4.5.6.7-.2-.2-.4-.4-.6-.7zm1.7 2.2c.2.2.3.5.5.7-.2-.3-.4-.5-.5-.7zm-3.5-4.1c.2.2.4.4.5.6-.1-.2-.3-.5-.5-.6zm-31.6-14.9c.3 0 .6 0 .8.1-.3-.1-.6-.1-.8-.1zM152 834c.3.1.6.2.9.4-.3-.2-.6-.3-.9-.4zm27.6 28.8c0-.1-.1-.2-.1-.3 0 .1 0 .2.1.3zm-64.9-28c.2-.1.5-.2.8-.3-.3 0-.5.1-.8.3z" class="st36"/><path d="M179.6 862.8c0-.1-.1-.2-.1-.3-.3-.7-.5-1.4-.8-2.1-.1-.3-.2-.5-.3-.8-.2-.6-.5-1.1-.7-1.6-.1-.3-.3-.6-.4-.8-.3-.6-.6-1.1-.9-1.6-.1-.2-.2-.5-.4-.7-.4-.8-.9-1.5-1.4-2.2-.1-.1-.1-.2-.2-.2-.4-.7-.9-1.3-1.3-1.9-.2-.2-.3-.5-.5-.7-.4-.5-.7-1-1.1-1.4-.2-.2-.4-.5-.6-.7-.4-.5-.8-.9-1.2-1.4-.2-.2-.4-.4-.5-.6-.6-.6-1.2-1.3-1.9-1.9 0 0-.1-.1-.2-.1-.6-.6-1.2-1.1-1.8-1.6-.2-.2-.4-.4-.7-.5-.5-.4-1-.8-1.4-1.1-.2-.2-.5-.4-.8-.6-.5-.4-1-.7-1.5-1.1-.2-.2-.5-.3-.7-.5-.8-.5-1.5-1-2.3-1.4 0 0-.1 0-.1-.1-.8-.4-1.5-.8-2.3-1.2-.3-.1-.5-.2-.8-.4-.6-.3-1.2-.5-1.7-.8-.3-.1-.6-.2-.9-.4-.6-.2-1.2-.5-1.8-.7-.3-.1-.5-.2-.8-.3-.9-.3-1.8-.6-2.7-.8s-1.8-.5-2.7-.6c-.3-.1-.6-.1-.9-.2-.6-.1-1.3-.2-1.9-.3-.3 0-.6-.1-1-.1-.6-.1-1.3-.1-1.9-.2-.3 0-.6-.1-.8-.1-.9-.1-1.8-.1-2.7-.1s-1.8 0-2.7.1c-.3 0-.6 0-.8.1-.6 0-1.3.1-1.9.2-.3 0-.6.1-.9.1-.6.1-1.2.2-1.9.3-.3 0-.5.1-.8.1-.9.2-1.7.3-2.6.5s-1.7.4-2.6.7c-.3.1-.5.2-.8.2l-1.8.6-.9.3c-.6.2-1.1.5-1.7.7-.3.1-.5.2-.8.3-.8.4-1.6.7-2.3 1.1.4.8.8 1.6 1.1 2.3 43.2-13.2 65.8 24 66.1 24.5z" class="st35"/><path d="M179.6 862.8c0-.1-.1-.2-.1-.3-.3-.7-.5-1.4-.8-2.1-.1-.3-.2-.5-.3-.8-.2-.6-.5-1.1-.7-1.6-.1-.3-.3-.6-.4-.8-.3-.6-.6-1.1-.9-1.6-.1-.2-.2-.5-.4-.7-.4-.8-.9-1.5-1.4-2.2-.1-.1-.1-.2-.2-.2-.4-.7-.9-1.3-1.3-1.9-.2-.2-.3-.5-.5-.7-.4-.5-.7-1-1.1-1.4-.2-.2-.4-.5-.6-.7-.4-.5-.8-.9-1.2-1.4-.2-.2-.4-.4-.5-.6-.6-.6-1.2-1.3-1.9-1.9 0 0-.1-.1-.2-.1-.6-.6-1.2-1.1-1.8-1.6-.2-.2-.4-.4-.7-.5-.5-.4-1-.8-1.4-1.1-.2-.2-.5-.4-.8-.6-.5-.4-1-.7-1.5-1.1-.2-.2-.5-.3-.7-.5-.8-.5-1.5-1-2.3-1.4 0 0-.1 0-.1-.1-.8-.4-1.5-.8-2.3-1.2-.3-.1-.5-.2-.8-.4-.6-.3-1.2-.5-1.7-.8-.3-.1-.6-.2-.9-.4-.6-.2-1.2-.5-1.8-.7-.3-.1-.5-.2-.8-.3-.9-.3-1.8-.6-2.7-.8s-1.8-.5-2.7-.6c-.3-.1-.6-.1-.9-.2-.6-.1-1.3-.2-1.9-.3-.3 0-.6-.1-1-.1-.6-.1-1.3-.1-1.9-.2-.3 0-.6-.1-.8-.1-.9-.1-1.8-.1-2.7-.1s-1.8 0-2.7.1c-.3 0-.6 0-.8.1-.6 0-1.3.1-1.9.2-.3 0-.6.1-.9.1-.6.1-1.2.2-1.9.3-.3 0-.5.1-.8.1-.9.2-1.7.3-2.6.5s-1.7.4-2.6.7c-.3.1-.5.2-.8.2l-1.8.6-.9.3c-.6.2-1.1.5-1.7.7-.3.1-.5.2-.8.3-.8.4-1.6.7-2.3 1.1.4.8.8 1.6 1.1 2.3 43.2-13.2 65.8 24 66.1 24.5z" class="st36"/><path d="M167.1 913.5c-.2.2-.4.4-.6.5.2-.2.4-.4.6-.5zm-2.3 1.9c-.2.2-.4.3-.6.5.2-.1.4-.3.6-.5z" class="st37"/><path d="M163.6 916.3c.2-.1.4-.3.6-.4.2-.2.4-.3.6-.5.6-.5 1.1-.9 1.7-1.4.2-.2.4-.4.6-.5.7-.6 1.4-1.3 2-2-2.2 1.4-4.3 2.6-6.4 3.7.3.4.6.8.9 1.1z" class="st35"/><path d="M163.6 916.3c.2-.1.4-.3.6-.4.2-.2.4-.3.6-.5.6-.5 1.1-.9 1.7-1.4.2-.2.4-.4.6-.5.7-.6 1.4-1.3 2-2-2.2 1.4-4.3 2.6-6.4 3.7.3.4.6.8.9 1.1z" class="st37"/><path d="M414.9 855.5c1.1.5 2.2 1.1 3.2 1.7-1-.6-2.1-1.1-3.2-1.7zm13.9 9.1c.9.7 1.7 1.5 2.6 2.3-.9-.8-1.8-1.6-2.6-2.3zm2.8 2.5c.9.9 1.8 1.7 2.6 2.6-.9-.9-1.7-1.8-2.6-2.6zm-5.8-4.9c.7.5 1.4 1.1 2 1.6-.6-.5-1.3-1.1-2-1.6zm9.1 8.3c.6.6 1.2 1.3 1.7 2-.5-.7-1.1-1.3-1.7-2zM350.2 974c-.9-.5-1.7-1-2.5-1.6.8.5 1.7 1 2.5 1.6zm87.3-100.5c.5.7 1.1 1.3 1.6 2-.5-.7-1.1-1.3-1.6-2zm-14.9-13.6c.7.5 1.5 1 2.2 1.5-.8-.5-1.5-1-2.2-1.5zm17.2 16.6c.6.9 1.3 1.8 1.9 2.7-.6-.9-1.3-1.8-1.9-2.7zm-21.5-19.2c1.1.6 2.2 1.3 3.3 2-1.1-.7-2.2-1.4-3.3-2zm-63.7 119.1c-1.1-.6-2.3-1.2-3.4-1.8 1.1.6 2.3 1.2 3.4 1.8zM398.7 850l3.9.9c-1.3-.4-2.6-.7-3.9-.9zm-72.5 99.2c-.5-1-1.1-1.9-1.6-2.9.6 1 1.1 2 1.6 2.9zm81.4-96.8c.9.3 1.7.6 2.6 1-.9-.4-1.8-.7-2.6-1zm-60.9 119.3c-1.1-.8-2.2-1.5-3.2-2.3 1.1.8 2.2 1.6 3.2 2.3zm97.6-88c.4.8.8 1.5 1.2 2.3-.3-.8-.7-1.6-1.2-2.3zm-85.8 94.5c-1.3-.5-2.5-1.1-3.7-1.7 1.2.6 2.4 1.2 3.7 1.7zm52.9-124.3c.8.3 1.6.7 2.5 1.1-.9-.4-1.7-.8-2.5-1.1zM321 937.3c-.3-1-.7-2.1-.9-3.1.2 1 .5 2 .9 3.1zm19.8-72.2c.9-.8 1.9-1.6 2.9-2.3-1 .8-2 1.5-2.9 2.3zm-18.3 76.5c-.5-1.2-1-2.4-1.4-3.7.5 1.3.9 2.5 1.4 3.7zm107.9 24.6c-.8.7-1.5 1.4-2.3 2 .8-.6 1.6-1.3 2.3-2zm-85.8-104.1 2.1-1.5-2.1 1.5zm89.6 100.5c-.9 1-1.9 1.9-2.9 2.8 1-.9 1.9-1.8 2.9-2.8zm-110-17.4-1.2-2.7c.3.9.7 1.8 1.2 2.7zm30-89.1c1.1-.6 2.2-1.1 3.3-1.6-1.1.5-2.2 1-3.3 1.6zm91.9 31.1c.4.8.7 1.5 1.1 2.3-.4-.8-.7-1.6-1.1-2.3zm-83.9-34.6c.8-.3 1.6-.6 2.5-.8-.9.2-1.7.5-2.5.8zm3.6-1.2c1.2-.4 2.4-.7 3.6-1-1.2.3-2.4.6-3.6 1zm-18 8.5c.7-.5 1.5-.9 2.2-1.4-.8.4-1.5.9-2.2 1.4zm3.1-2c1.1-.6 2.1-1.2 3.2-1.8-1 .5-2.1 1.1-3.2 1.8zm91 21.6c.7 1 1.3 2.1 1.9 3.2-.6-1.1-1.2-2.1-1.9-3.2zM358.6 854c.8-.3 1.6-.7 2.4-1-.8.3-1.6.7-2.4 1zm44-3.1c1.3.3 2.5.7 3.8 1.1-1.3-.4-2.5-.8-3.8-1.1zm-28.4-1.4c.9-.1 1.7-.3 2.6-.4-.9.1-1.7.2-2.6.4zM333.7 960c-.7-.9-1.5-1.8-2.2-2.7.8.9 1.5 1.8 2.2 2.7zm89.8 11.7zm-92.6-15.3c-.6-.8-1.1-1.6-1.7-2.4.5.8 1.1 1.6 1.7 2.4zm96.4 12.5c-1 .8-2.1 1.6-3.2 2.4 1.1-.8 2.2-1.6 3.2-2.4zm-57.9-118.5c1.2-.3 2.4-.5 3.6-.8-1.2.3-2.4.5-3.6.8zm25.4-1.1c.9.1 1.8.3 2.7.5-.9-.2-1.8-.4-2.7-.5zm-18.6 133.8c-1.1-.1-2.1-.3-3.2-.5 1.1.2 2.1.3 3.2.5zm35.5-4.9zm4.6-2.1c-1.2.6-2.4 1.2-3.6 1.7 1.2-.5 2.4-1.1 3.6-1.7zm-73-6.9c-.9-.7-1.9-1.5-2.8-2.3.9.7 1.8 1.5 2.8 2.3zm-6.6-6c-.9-.9-1.8-1.9-2.6-2.9.8 1.1 1.7 2 2.6 2.9zm2.9 2.9c-.7-.7-1.4-1.3-2.1-2 .7.6 1.4 1.3 2.1 2zm108-75.5c.4 1 .8 2 1.1 3-.3-1-.6-2-1.1-3zm-27.8 83.5c-.9.6-1.9 1.1-2.9 1.6 1-.5 1.9-1 2.9-1.6zm-48 8.2c-1.4-.3-2.8-.6-4.2-1 1.4.5 2.8.8 4.2 1zm10.1-133.7c1.3-.1 2.5-.1 3.8-.1-1.2 0-2.5.1-3.8.1zm3.8 0c1.3 0 2.6.1 3.8.2-1.2-.2-2.5-.2-3.8-.2zm-7.6.3c.9-.1 1.8-.2 2.6-.2-.8.1-1.7.1-2.6.2zm-10.5 132.5c-1.4-.4-2.7-.8-4-1.2 1.3.4 2.7.8 4 1.2zm-5.1-1.6c-1-.3-1.9-.7-2.9-1.1.9.3 1.9.7 2.9 1.1zm45.3 0c-1.3.4-2.5.9-3.8 1.2 1.3-.4 2.5-.8 3.8-1.2zm-17-131 2.7.3-2.7-.3zm-62.2 104.3c-.7-1.1-1.4-2.2-2-3.3.6 1.1 1.3 2.2 2 3.3zm61.5 30.4c-1.1.1-2.2.1-3.4.2 1.2-.1 2.3-.1 3.4-.2zm-8.7.1c-1.4-.1-2.7-.2-4.1-.4 1.3.2 2.7.3 4.1.4zm4.2.1c-1.1 0-2.3 0-3.4-.1 1.1.1 2.2.1 3.4.1zM404 981c-1.3.4-2.6.7-3.9 1 1.3-.3 2.6-.6 3.9-1z" class="st35"/><path d="M340.8 865.1c-9.8 8.5-17.3 20-20.9 33.5-3.2 11.9-3 24 0 35.1 1.4 2.9 37.6 77.7 114.3 28.9 7.5-7.9 13.2-17.7 16.2-29 3.6-13.6 2.9-27.3-1.4-39.6-.5-.7-37.5-61.8-108.2-28.9z" class="st35"/><path d="M394.9 983c-1.3.2-2.7.4-4 .5 1.3-.2 2.7-.3 4-.5zm4.1-.8c-1 .2-2 .4-3.1.6 1-.2 2.1-.3 3.1-.6z" class="st35"/><path d="M373 849.7c.4-.1.8-.1 1.2-.2-.4 0-.8.1-1.2.2zm3.8-.6c.4-.1.9-.1 1.3-.1-.4 0-.9 0-1.3.1zm-7.4 1.3zm72.3 28.8c.1.1.1.2.2.3-.1-.1-.2-.2-.2-.3zm3.9 6.8.6 1.2c-.3-.4-.5-.8-.6-1.2zm-6.5-10.5c.2.3.5.6.7 1-.2-.3-.5-.7-.7-1zm-2.4-3c.3.3.6.7.8 1-.3-.3-.5-.7-.8-1zm-72-20.7c.4-.1.7-.2 1.1-.4-.4.1-.8.2-1.1.4zm69.5 17.9c.3.3.5.6.8.8-.3-.3-.6-.5-.8-.8zm-90.5-6.9c.3-.2.6-.5.9-.7-.3.2-.6.5-.9.7zm3-2.2c.4-.2.7-.5 1.1-.7-.4.2-.8.4-1.1.7zm3.3-2.1c.3-.2.7-.4 1-.6-.4.2-.7.4-1 .6zm81.3 8.4.2.2c0-.1-.1-.2-.2-.2zm-77.1-10.8zm3.3-1.6c.4-.2.7-.3 1.1-.5-.4.2-.7.3-1.1.5zm3.5-1.5c.4-.2.8-.3 1.2-.5-.4.2-.8.4-1.2.5zm63.7 8.4c.4.3.7.5 1.1.8-.4-.3-.7-.5-1.1-.8zm24.2 32.6c0-.1-.1-.3-.2-.4.1.1.2.3.2.4zm-42.5-42c.4.1.8.3 1.2.4-.4-.1-.8-.3-1.2-.4zm-8.9-2.3c.4.1.8.1 1.2.2-.4 0-.8-.1-1.2-.2zm-7.9-1c.4 0 .8.1 1.2.1-.4 0-.8-.1-1.2-.1zm20.5 4.7c.4.2.8.3 1.3.5-.4-.2-.9-.4-1.3-.5zm-16.6-4.3c.5.1.9.1 1.4.2-.5-.1-1-.1-1.4-.2zm28.1 10.2zm-40.9-10.6c.4 0 .8-.1 1.2-.1-.4.1-.8.1-1.2.1zm66.5 40.8c.2.4.3.7.5 1.1-.2-.4-.4-.8-.5-1.1zm-29-32.3.1.1-.1-.1zm-4.4-2.2c.4.2.7.3 1.1.5-.3-.2-.7-.3-1.1-.5zm14 8.8c.3.3.6.5.9.8-.2-.3-.5-.5-.9-.8zm16 18.9c.2.3.3.6.5 1-.1-.4-.3-.7-.5-1z" class="st36"/><path d="M448.9 894c0-.1-.1-.3-.1-.4-.4-1-.7-2-1.1-3-.2-.4-.3-.7-.5-1.1-.3-.8-.7-1.6-1.1-2.3l-.6-1.2c-.4-.8-.8-1.6-1.2-2.3-.2-.3-.3-.6-.5-1-.6-1.1-1.2-2.1-1.9-3.2-.1-.1-.1-.2-.2-.3-.6-.9-1.2-1.8-1.9-2.7-.2-.3-.5-.6-.7-1-.5-.7-1-1.4-1.6-2-.3-.3-.5-.7-.8-1-.6-.7-1.1-1.3-1.7-2-.3-.3-.5-.6-.8-.8-.9-.9-1.7-1.8-2.6-2.6l-.2-.2c-.8-.8-1.7-1.5-2.6-2.3-.3-.3-.6-.5-.9-.8-.7-.5-1.3-1.1-2-1.6-.4-.3-.7-.5-1.1-.8-.7-.5-1.4-1-2.2-1.5-.3-.2-.6-.4-1-.6-1.1-.7-2.1-1.3-3.3-2l-.1-.1c-1.1-.6-2.1-1.2-3.2-1.7-.4-.2-.7-.3-1.1-.5-.8-.4-1.6-.7-2.5-1.1-.4-.2-.8-.3-1.3-.5-.8-.3-1.7-.7-2.6-1-.4-.1-.8-.3-1.2-.4-1.2-.4-2.5-.8-3.8-1.1l-3.9-.9c-.4-.1-.8-.2-1.2-.2-.9-.2-1.8-.3-2.7-.5-.5-.1-.9-.1-1.4-.2l-2.7-.3c-.4 0-.8-.1-1.2-.1-1.3-.1-2.6-.1-3.8-.2-1.3 0-2.5 0-3.8.1-.4 0-.8.1-1.2.1-.9.1-1.8.1-2.6.2-.4 0-.9.1-1.3.1-.9.1-1.7.2-2.6.4-.4.1-.8.1-1.2.2-1.2.2-2.4.5-3.6.8-1.2.3-2.4.6-3.6 1-.4.1-.7.2-1.1.4-.8.3-1.6.5-2.5.8-.4.1-.8.3-1.2.5-.8.3-1.6.6-2.4 1-.4.2-.7.3-1.1.5-1.1.5-2.2 1-3.3 1.6-1.1.6-2.2 1.2-3.2 1.8-.3.2-.7.4-1 .6-.7.4-1.5.9-2.2 1.4-.4.2-.7.5-1.1.7l-2.1 1.5c-.3.2-.6.5-.9.7-1 .8-1.9 1.5-2.9 2.3 70.8-33 107.8 28.1 108.2 28.8z" class="st35"/><path d="M448.9 894c0-.1-.1-.3-.1-.4-.4-1-.7-2-1.1-3-.2-.4-.3-.7-.5-1.1-.3-.8-.7-1.6-1.1-2.3l-.6-1.2c-.4-.8-.8-1.6-1.2-2.3-.2-.3-.3-.6-.5-1-.6-1.1-1.2-2.1-1.9-3.2-.1-.1-.1-.2-.2-.3-.6-.9-1.2-1.8-1.9-2.7-.2-.3-.5-.6-.7-1-.5-.7-1-1.4-1.6-2-.3-.3-.5-.7-.8-1-.6-.7-1.1-1.3-1.7-2-.3-.3-.5-.6-.8-.8-.9-.9-1.7-1.8-2.6-2.6l-.2-.2c-.8-.8-1.7-1.5-2.6-2.3-.3-.3-.6-.5-.9-.8-.7-.5-1.3-1.1-2-1.6-.4-.3-.7-.5-1.1-.8-.7-.5-1.4-1-2.2-1.5-.3-.2-.6-.4-1-.6-1.1-.7-2.1-1.3-3.3-2l-.1-.1c-1.1-.6-2.1-1.2-3.2-1.7-.4-.2-.7-.3-1.1-.5-.8-.4-1.6-.7-2.5-1.1-.4-.2-.8-.3-1.3-.5-.8-.3-1.7-.7-2.6-1-.4-.1-.8-.3-1.2-.4-1.2-.4-2.5-.8-3.8-1.1l-3.9-.9c-.4-.1-.8-.2-1.2-.2-.9-.2-1.8-.3-2.7-.5-.5-.1-.9-.1-1.4-.2l-2.7-.3c-.4 0-.8-.1-1.2-.1-1.3-.1-2.6-.1-3.8-.2-1.3 0-2.5 0-3.8.1-.4 0-.8.1-1.2.1-.9.1-1.8.1-2.6.2-.4 0-.9.1-1.3.1-.9.1-1.7.2-2.6.4-.4.1-.8.1-1.2.2-1.2.2-2.4.5-3.6.8-1.2.3-2.4.6-3.6 1-.4.1-.7.2-1.1.4-.8.3-1.6.5-2.5.8-.4.1-.8.3-1.2.5-.8.3-1.6.6-2.4 1-.4.2-.7.3-1.1.5-1.1.5-2.2 1-3.3 1.6-1.1.6-2.2 1.2-3.2 1.8-.3.2-.7.4-1 .6-.7.4-1.5.9-2.2 1.4-.4.2-.7.5-1.1.7l-2.1 1.5c-.3.2-.6.5-.9.7-1 .8-1.9 1.5-2.9 2.3 70.8-33 107.8 28.1 108.2 28.8z" class="st36"/><path d="m329.2 954-.6-.9.6.9zm98.9 14.2c-.3.2-.5.4-.8.6.3-.1.5-.4.8-.6zm-101.6-18.4c-.1-.2-.2-.4-.3-.5.1.1.2.3.3.5zm5.1 7.5c-.2-.3-.5-.6-.7-1 .2.4.4.7.7 1zm8.9 9.6c-.3-.3-.6-.5-.9-.8.3.2.6.5.9.8zm76.4 8.8c-.2.1-.4.2-.6.4.2-.1.4-.3.6-.4zm-4.2 2.1c-.3.1-.6.3-.9.4.3-.1.6-.3.9-.4zm-69.2-8.4c-.1-.1-.2-.2-.3-.2.1 0 .2.1.3.2zm-6-5.4-.8-.8c.3.3.5.6.8.8zm-12.8-17.7c-.2-.4-.4-.7-.5-1.1.1.4.3.7.5 1.1zm9.4 14.1c-.1-.1-.2-.3-.3-.4 0 .1.1.2.3.4zm86.7 13.1c-.3.2-.7.4-1 .6.3-.2.6-.4 1-.6zm3.3-2.2c-.2.1-.4.3-.6.4.2-.2.4-.3.6-.4zm-72.9 3.3c-.3-.2-.7-.4-1-.6.4.2.7.4 1 .6zm48.9 7.4c-.4.1-.8.2-1.1.2.4 0 .7-.1 1.1-.2zm-4.2.8c-.3.1-.7.1-1 .2.3-.1.7-.1 1-.2zm-5 .6h-.7c.2.1.4.1.7 0zm-27.3-3.2c-.4-.1-.8-.3-1.2-.4.5.1.8.2 1.2.4zm-4-1.5c-.4-.1-.7-.3-1.1-.5.4.2.7.3 1.1.5zm27.2 5h-1.2 1.2zm-9.5-.5c-.4 0-.7-.1-1.1-.1.4 0 .7.1 1.1.1zm4.8.4h-.8.8zm-62.3-50c0 .2.1.4.2.5 0-.1-.1-.2-.2-.5.1 0 0 0 0 0zm111.5 31.8c-.3.3-.6.5-.8.8.2-.3.5-.5.8-.8zm-110.1-27.5c-.1-.2-.1-.4-.2-.7 0 .3.1.5.2.7zm1.7 4.6c-.1-.3-.3-.6-.4-.9.2.3.3.6.4.9zm24.8 29.9-.9-.6.9.6zm25.3 10.2c-.4-.1-.8-.1-1.2-.2.4 0 .8.1 1.2.2zm-18.2-6.1c-.1 0-.1-.1-.2-.1.1 0 .1.1.2.1zm54.1 2.9c-.4.1-.7.3-1.1.4.4-.2.7-.3 1.1-.4z" class="st37"/><path d="M319.9 933.7c0 .1.1.3.1.4.3 1 .6 2.1.9 3.1.1.2.1.4.2.7.4 1.2.9 2.4 1.4 3.7.1.3.3.6.4.9l1.2 2.7c.2.4.3.7.5 1.1.5 1 1 2 1.6 2.9.1.2.2.4.3.5.6 1.1 1.3 2.2 2 3.3l.6.9c.5.8 1.1 1.6 1.7 2.4.2.3.5.6.7 1 .7.9 1.4 1.8 2.2 2.7.1.1.2.3.3.4.9 1 1.7 1.9 2.6 2.9l.8.8c.7.7 1.4 1.4 2.1 2 .3.3.6.5.9.8.9.8 1.8 1.6 2.8 2.3.1.1.2.2.3.2 1 .8 2.1 1.6 3.2 2.3l.9.6c.8.6 1.7 1.1 2.5 1.6.3.2.7.4 1 .6 1.1.6 2.2 1.3 3.4 1.8.1 0 .1.1.2.1 1.2.6 2.4 1.2 3.7 1.7.4.2.7.3 1.1.5.9.4 1.9.7 2.9 1.1.4.1.8.3 1.2.4 1.3.4 2.6.9 4 1.2 1.4.4 2.8.7 4.2 1 .4.1.8.2 1.2.2 1.1.2 2.1.4 3.2.5.4 0 .7.1 1.1.1 1.4.2 2.7.3 4.1.4h.8c1.1.1 2.3.1 3.4.1h1.2c1.1 0 2.3-.1 3.4-.2h.7c1.3-.1 2.7-.3 4-.5.3-.1.7-.1 1-.2 1-.2 2.1-.4 3.1-.6.4-.1.8-.2 1.1-.2 1.3-.3 2.6-.6 3.9-1s2.5-.8 3.8-1.2c.4-.1.7-.3 1.1-.4 1-.4 1.9-.7 2.9-1.2.3-.1.6-.3.9-.4 1.2-.5 2.4-1.1 3.6-1.7.2-.1.4-.2.6-.4 1-.5 1.9-1.1 2.9-1.6.3-.2.7-.4 1-.6.9-.6 1.9-1.2 2.8-1.8.2-.1.4-.3.6-.4 1.1-.8 2.1-1.6 3.2-2.4.3-.2.5-.4.8-.6.8-.7 1.6-1.3 2.3-2 .3-.3.6-.5.8-.8 1-.9 1.9-1.8 2.9-2.8-76.8 48.8-112.9-25.9-114.3-28.9z" class="st35"/><path d="M319.9 933.7c0 .1.1.3.1.4.3 1 .6 2.1.9 3.1.1.2.1.4.2.7.4 1.2.9 2.4 1.4 3.7.1.3.3.6.4.9l1.2 2.7c.2.4.3.7.5 1.1.5 1 1 2 1.6 2.9.1.2.2.4.3.5.6 1.1 1.3 2.2 2 3.3l.6.9c.5.8 1.1 1.6 1.7 2.4.2.3.5.6.7 1 .7.9 1.4 1.8 2.2 2.7.1.1.2.3.3.4.9 1 1.7 1.9 2.6 2.9l.8.8c.7.7 1.4 1.4 2.1 2 .3.3.6.5.9.8.9.8 1.8 1.6 2.8 2.3.1.1.2.2.3.2 1 .8 2.1 1.6 3.2 2.3l.9.6c.8.6 1.7 1.1 2.5 1.6.3.2.7.4 1 .6 1.1.6 2.2 1.3 3.4 1.8.1 0 .1.1.2.1 1.2.6 2.4 1.2 3.7 1.7.4.2.7.3 1.1.5.9.4 1.9.7 2.9 1.1.4.1.8.3 1.2.4 1.3.4 2.6.9 4 1.2 1.4.4 2.8.7 4.2 1 .4.1.8.2 1.2.2 1.1.2 2.1.4 3.2.5.4 0 .7.1 1.1.1 1.4.2 2.7.3 4.1.4h.8c1.1.1 2.3.1 3.4.1h1.2c1.1 0 2.3-.1 3.4-.2h.7c1.3-.1 2.7-.3 4-.5.3-.1.7-.1 1-.2 1-.2 2.1-.4 3.1-.6.4-.1.8-.2 1.1-.2 1.3-.3 2.6-.6 3.9-1s2.5-.8 3.8-1.2c.4-.1.7-.3 1.1-.4 1-.4 1.9-.7 2.9-1.2.3-.1.6-.3.9-.4 1.2-.5 2.4-1.1 3.6-1.7.2-.1.4-.2.6-.4 1-.5 1.9-1.1 2.9-1.6.3-.2.7-.4 1-.6.9-.6 1.9-1.2 2.8-1.8.2-.1.4-.3.6-.4 1.1-.8 2.1-1.6 3.2-2.4.3-.2.5-.4.8-.6.8-.7 1.6-1.3 2.3-2 .3-.3.6-.5.8-.8 1-.9 1.9-1.8 2.9-2.8-76.8 48.8-112.9-25.9-114.3-28.9z" class="st37"/><path d="M799.6 900.9c-.3 0-.5.1-.8.1.2 0 .5 0 .8-.1zm18-139.5 2.7 1.2-2.7-1.2zM740 882.6c-.8-.7-1.6-1.5-2.3-2.2.8.8 1.5 1.5 2.3 2.2zm5.4-112.4c.7-.6 1.5-1.1 2.3-1.6-.8.5-1.6 1.1-2.3 1.6zm84.3-2.3c.8.5 1.6 1.1 2.4 1.6-.8-.6-1.6-1.1-2.4-1.6zm-59.4 131.3c-1.5-.4-2.9-.8-4.3-1.3 1.4.4 2.8.9 4.3 1.3zm-21.5-131.4 2.4-1.5-2.4 1.5zm-25.5 92.3zm129.9-66.6c.5.8.9 1.7 1.3 2.5-.4-.8-.8-1.6-1.3-2.5zm-31.8-30.4c1.2.6 2.4 1.2 3.5 1.8-1.1-.6-2.3-1.2-3.5-1.8zm-99.9 93.1-1.5-3.9c.5 1.2 1 2.6 1.5 3.9zM825.1 765c1.2.7 2.4 1.4 3.5 2.1-1.1-.7-2.3-1.4-3.5-2.1zm-72.8.7c1.1-.7 2.3-1.3 3.5-1.9-1.2.5-2.4 1.2-3.5 1.9zm22.1 134.5c-.3-.1-.6-.1-.9-.2.3 0 .6.1.9.2zm-54.6-48.7c-.4-1.1-.7-2.2-1-3.4.3 1.2.7 2.3 1 3.4zm21.5-78c1-.9 2.1-1.7 3.1-2.5-1.1.8-2.1 1.7-3.1 2.5zm23.4 123.9c-1-.4-2.1-.8-3.1-1.2 1 .5 2.1.9 3.1 1.2zm81.1-114.8c.6.7 1.1 1.4 1.7 2.2-.5-.8-1.1-1.5-1.7-2.2zm-2.7-3.2c.6.7 1.3 1.4 1.9 2.1-.7-.7-1.3-1.4-1.9-2.1zm-91.6 111.8c-.9-.6-1.8-1.1-2.7-1.7.8.5 1.7 1.1 2.7 1.7zm96.8-105.4c.7 1 1.4 1.9 2 2.9-.6-1-1.3-1.9-2-2.9zm2.3 3.3c.7 1.1 1.4 2.3 2.1 3.4-.7-1.2-1.4-2.3-2.1-3.4zm-102.9 99.7c-1.2-.8-2.3-1.7-3.5-2.5 1.2.8 2.3 1.6 3.5 2.5zm-17.1-16.7c-.6-.9-1.2-1.7-1.8-2.6.5.9 1.1 1.8 1.8 2.6z" class="st35"/><path d="M741.3 773.5c-10.6 9.2-18.7 21.6-22.6 36.2-3.5 12.9-3.2 25.9 0 37.9 1.2 2.6 28.4 58.8 85.1 47.6 21.2-29.7 38.2-62 50.6-96-11.8-15.2-50-55-113.1-25.7zm19.1 122.3c-1.4-.6-2.7-1.2-4-1.8 1.3.6 2.7 1.2 4 1.8zm-4.2-2c-1.2-.6-2.5-1.3-3.6-2 1.2.7 2.4 1.4 3.6 2zm80.2-120.9c.9.8 1.9 1.6 2.8 2.5-.9-.9-1.9-1.7-2.8-2.5zM743.9 886c-1-.8-2-1.6-3-2.5 1 .8 2 1.7 3 2.5zm95.5-110.4c1 .9 1.9 1.9 2.8 2.9-.9-1-1.8-2-2.8-2.9zm-6.2-5.2c.7.6 1.5 1.1 2.2 1.7-.7-.6-1.5-1.2-2.2-1.7zm-55.5 130.4c-.1 0-.3-.1-.4-.1.1 0 .3 0 .4.1zm11.3.9h-.8.8zm14.9-144.6c1.4.3 2.8.6 4.2 1-1.4-.4-2.8-.7-4.2-1zm-31.7.5c1.3-.3 2.6-.6 3.9-.8-1.3.2-2.6.5-3.9.8zm41.3 2.2c.9.3 1.9.7 2.8 1-1-.3-1.9-.7-2.8-1zm-13.8-3.4c1 .1 1.9.3 2.9.5-1-.2-1.9-.4-2.9-.5zm8.4 1.7c1.4.4 2.8.8 4.1 1.2-1.4-.4-2.7-.8-4.1-1.2zm-26.5-2.1c.9-.1 1.9-.2 2.8-.2-.9 0-1.8.1-2.8.2zm-4.2.6c.9-.2 1.9-.3 2.8-.4-.9.1-1.9.2-2.8.4zm17.9-.7c1 .1 1.9.2 2.9.3-1-.1-1.9-.2-2.9-.3zm.8 145.5c-.2 0-.4 0-.6.1.2-.1.4-.1.6-.1zm-6.2-145.8c1.4 0 2.8.1 4.1.2-1.4-.1-2.8-.2-4.1-.2zm-4.1.1c1.4-.1 2.7-.1 4.1-.1-1.4 0-2.8 0-4.1.1zm6.6 145.9h-.7.7zm-31.9-140.1c.9-.4 1.7-.7 2.6-1.1-.9.4-1.7.7-2.6 1.1zm-32.4 107.1c-.8-1.2-1.5-2.4-2.2-3.6.7 1.2 1.4 2.4 2.2 3.6zm27.7-104.9c1.2-.6 2.4-1.2 3.6-1.7-1.2.5-2.4 1.1-3.6 1.7zm25.9 137.6c-.3 0-.6-.1-.8-.1.3 0 .6.1.8.1zm-56.1-36.9c-.6-1-1.1-2.1-1.7-3.2.5 1.1 1.1 2.2 1.7 3.2zm42.7-105.7c1.3-.4 2.6-.7 3.9-1.1-1.3.3-2.6.7-3.9 1.1z" class="st35"/><path d="M736.9 879.6c-1-1-1.9-2-2.9-3.1.9 1 1.9 2.1 2.9 3.1zm-3.2-3.5c-.8-.9-1.6-1.9-2.3-2.9.7.9 1.4 1.9 2.3 2.9zm51.4 25.5h-.6c.2-.1.4 0 .6 0zM764.4 760l2.7-.9c-.9.2-1.8.5-2.7.9z" class="st35"/><path d="M844.9 781.5c.3.4.6.7.9 1.1-.3-.4-.6-.8-.9-1.1zm-72.7-23.9zm67 17.8c.1.1.2.1.2.2-.1-.1-.2-.1-.2-.2zm-63.1-18.6c.4-.1.8-.1 1.3-.2-.4.1-.8.1-1.3.2zm44.1 5.8 1.2.6c-.4-.3-.8-.4-1.2-.6zm30.1 26.1c.1.1.2.2.2.4 0-.1-.1-.2-.2-.4zm-38.1-29.4c.4.1.8.3 1.3.4-.5-.1-.9-.2-1.3-.4zm35.3 25.4c.3.3.5.7.8 1-.2-.3-.5-.6-.8-1zM832 769.5c.4.3.8.6 1.1.9-.3-.3-.7-.6-1.1-.9zm-3.4-2.3c.4.2.7.5 1.1.7-.4-.3-.7-.5-1.1-.7zM825 765c.1 0 .1.1.2.1-.1-.1-.2-.1-.2-.1zm-61.9-4.6c.4-.2.9-.3 1.3-.5-.4.2-.8.4-1.3.5zm39.5-3.5c.4.1.9.2 1.3.2-.4-.1-.9-.1-1.3-.2zm32.8 15.2c.3.3.7.5 1 .8-.3-.3-.7-.5-1-.8zm-37.2-15.9c.5.1 1 .1 1.5.2-.5-.1-1-.1-1.5-.2zm-38.8 5.8c.4-.2.8-.3 1.2-.5-.5.2-.9.3-1.2.5zm56.8-1.2c.5.2.9.4 1.4.6-.5-.2-.9-.4-1.4-.6zm-49.1-1.7c.4-.1.8-.3 1.2-.4-.4.1-.8.2-1.2.4zm75.1 19.4c.3.3.5.6.8.9-.2-.3-.5-.7-.8-.9zm12.9 18.7-.6-1.2.6 1.2zm-2.5-4.7c.2.3.4.7.6 1-.2-.3-.4-.7-.6-1zm-101.4-26.2c.4-.2.7-.4 1.1-.7-.4.3-.8.5-1.1.7zm4.5-2.6s.1 0 0 0c.1 0 0 0 0 0zm38.3-7.9c.4 0 .9.1 1.3.1-.4 0-.9-.1-1.3-.1zM744.4 771c.3-.3.7-.5 1-.8-.4.3-.7.5-1 .8zm40.1-15.2c.4 0 .9-.1 1.3-.1-.5 0-.9 0-1.3.1zm-36.8 12.8c.4-.3.8-.5 1.2-.8-.5.3-.9.5-1.2.8zm32.5-12.4c.5-.1.9-.1 1.4-.2-.4.1-.9.1-1.4.2z" class="st36"/><path d="M853.2 793.5c-.2-.3-.4-.7-.6-1-.7-1.2-1.3-2.3-2.1-3.4-.1-.1-.2-.2-.2-.4-.7-1-1.3-2-2-2.9-.3-.3-.5-.7-.8-1-.6-.7-1.1-1.5-1.7-2.2-.3-.4-.6-.7-.9-1.1-.6-.7-1.2-1.4-1.9-2.1-.3-.3-.5-.6-.8-.9-.9-1-1.9-1.9-2.8-2.9-.1-.1-.2-.1-.2-.2-.9-.8-1.8-1.7-2.8-2.5-.3-.3-.7-.5-1-.8-.7-.6-1.5-1.2-2.2-1.7-.4-.3-.8-.6-1.1-.9-.8-.6-1.6-1.1-2.4-1.6-.4-.2-.7-.5-1.1-.7-1.1-.7-2.3-1.5-3.5-2.1-.1 0-.1-.1-.2-.1-1.1-.6-2.3-1.3-3.5-1.8l-1.2-.6-2.7-1.2c-.5-.2-.9-.4-1.4-.6-.9-.4-1.8-.7-2.8-1-.4-.1-.8-.3-1.3-.4-1.3-.4-2.7-.9-4.1-1.2-1.4-.4-2.8-.7-4.2-1-.4-.1-.9-.2-1.3-.2-1-.2-1.9-.3-2.9-.5-.5-.1-1-.1-1.5-.2-1-.1-1.9-.2-2.9-.3-.4 0-.9-.1-1.3-.1-1.4-.1-2.8-.2-4.1-.2-1.4 0-2.7 0-4.1.1-.4 0-.9.1-1.3.1-1 .1-1.9.1-2.8.2-.5 0-.9.1-1.4.2-.9.1-1.9.3-2.8.4-.4.1-.8.1-1.3.2-1.3.2-2.6.5-3.9.8-1.3.3-2.6.7-3.9 1.1-.4.1-.8.3-1.2.4l-2.7.9c-.4.2-.9.3-1.3.5-.9.3-1.7.7-2.6 1.1-.4.2-.8.3-1.2.5-1.2.5-2.4 1.1-3.6 1.7-1.2.6-2.3 1.3-3.5 1.9-.4.2-.7.4-1.1.7l-2.4 1.5c-.4.3-.8.5-1.2.8-.8.5-1.5 1.1-2.3 1.6-.3.3-.7.5-1 .8-1.1.8-2.1 1.7-3.1 2.5 63.1-29.4 101.4 10.5 113.1 25.7.2-.7.5-1.3.7-2l-.6-1.2c-.1-1-.5-1.8-1-2.7z" class="st35"/><path d="M853.2 793.5c-.2-.3-.4-.7-.6-1-.7-1.2-1.3-2.3-2.1-3.4-.1-.1-.2-.2-.2-.4-.7-1-1.3-2-2-2.9-.3-.3-.5-.7-.8-1-.6-.7-1.1-1.5-1.7-2.2-.3-.4-.6-.7-.9-1.1-.6-.7-1.2-1.4-1.9-2.1-.3-.3-.5-.6-.8-.9-.9-1-1.9-1.9-2.8-2.9-.1-.1-.2-.1-.2-.2-.9-.8-1.8-1.7-2.8-2.5-.3-.3-.7-.5-1-.8-.7-.6-1.5-1.2-2.2-1.7-.4-.3-.8-.6-1.1-.9-.8-.6-1.6-1.1-2.4-1.6-.4-.2-.7-.5-1.1-.7-1.1-.7-2.3-1.5-3.5-2.1-.1 0-.1-.1-.2-.1-1.1-.6-2.3-1.3-3.5-1.8l-1.2-.6-2.7-1.2c-.5-.2-.9-.4-1.4-.6-.9-.4-1.8-.7-2.8-1-.4-.1-.8-.3-1.3-.4-1.3-.4-2.7-.9-4.1-1.2-1.4-.4-2.8-.7-4.2-1-.4-.1-.9-.2-1.3-.2-1-.2-1.9-.3-2.9-.5-.5-.1-1-.1-1.5-.2-1-.1-1.9-.2-2.9-.3-.4 0-.9-.1-1.3-.1-1.4-.1-2.8-.2-4.1-.2-1.4 0-2.7 0-4.1.1-.4 0-.9.1-1.3.1-1 .1-1.9.1-2.8.2-.5 0-.9.1-1.4.2-.9.1-1.9.3-2.8.4-.4.1-.8.1-1.3.2-1.3.2-2.6.5-3.9.8-1.3.3-2.6.7-3.9 1.1-.4.1-.8.3-1.2.4l-2.7.9c-.4.2-.9.3-1.3.5-.9.3-1.7.7-2.6 1.1-.4.2-.8.3-1.2.5-1.2.5-2.4 1.1-3.6 1.7-1.2.6-2.3 1.3-3.5 1.9-.4.2-.7.4-1.1.7l-2.4 1.5c-.4.3-.8.5-1.2.8-.8.5-1.5 1.1-2.3 1.6-.3.3-.7.5-1 .8-1.1.8-2.1 1.7-3.1 2.5 63.1-29.4 101.4 10.5 113.1 25.7.2-.7.5-1.3.7-2l-.6-1.2c-.1-1-.5-1.8-1-2.7z" class="st36"/><path d="M798.8 901.1c-.9.1-1.7.2-2.6.3.8-.1 1.7-.2 2.6-.3zm-3.3.3c-1 .1-2.1.2-3.1.2 1 0 2.1-.1 3.1-.2zM722 857.2c-.1-.3-.3-.7-.4-1 .1.3.2.6.4 1zm-1.9-5c-.1-.2-.2-.5-.2-.7 0 .2.1.5.2.7zm-1.5-4.7c.1.2.1.4.2.6 0-.2-.1-.3-.1-.5l-.1-.1zm22.4 36c-.3-.3-.6-.6-1-.9.3.3.6.6 1 .9zm-3.3-3.1-.8-.8c.2.3.5.5.8.8zM725.9 865l-.3-.6.3.6zm5.4 8.2c-.3-.3-.5-.7-.8-1 .3.3.6.6.8 1zm-2.6-3.7zm15.6 16.7-.3-.3c0 .2.1.2.3.3zm-20.4-24.9-.6-1.2.6 1.2zm10.1 15.2c-.1-.1-.2-.3-.3-.4.1.1.2.2.3.4zm18.6 15.3c-.4-.2-.7-.4-1.1-.7.3.3.7.5 1.1.7zm28.3 9.4c-1.1-.1-2.1-.3-3.2-.4 1.1.1 2.1.3 3.2.4zm-7.4-1.2c-1.1-.2-2.2-.5-3.3-.8 1.2.3 2.3.5 3.3.8zm26.1.9zm-22.3-.2c-1-.2-1.9-.3-2.9-.5 1 .2 1.9.3 2.9.5zm11 1c-1.1 0-2.1-.1-3.2-.1 1 0 2.1.1 3.2.1zm-3.9-.2c-.9-.1-1.8-.1-2.7-.2.9.1 1.8.2 2.7.2zm-35.7-12.1c-.3-.2-.7-.5-1-.7.3.3.7.5 1 .7zm7.7 4.5c-.1 0-.1-.1-.2-.1.1.1.2.1.2.1zm35.2 7.7H789c.9.1 1.8.1 2.6 0zm-25.6-3.7c-.4-.1-.8-.3-1.2-.4.3.1.7.2 1.2.4zm-4.4-1.7c-.4-.2-.8-.3-1.2-.5.4.2.8.4 1.2.5z" class="st37"/><path d="M718.7 847.7c0 .2.1.3.1.5.3 1.1.7 2.3 1 3.4.1.2.1.5.2.7l1.5 3.9c.1.3.3.7.4 1 .4 1 .9 2 1.3 2.9l.6 1.2c.5 1.1 1.1 2.1 1.7 3.2l.3.6c.7 1.2 1.4 2.4 2.2 3.6.2.3.4.6.6 1 .6.9 1.2 1.7 1.8 2.6.3.3.5.7.8 1 .8 1 1.5 1.9 2.3 2.9.1.1.2.3.3.4.9 1.1 1.9 2.1 2.9 3.1l.8.8c.8.7 1.5 1.5 2.3 2.2.3.3.6.6 1 .9 1 .9 2 1.7 3 2.5l.3.3c1.1.9 2.3 1.7 3.5 2.5.3.2.7.5 1 .7.9.6 1.8 1.2 2.7 1.7.4.2.7.4 1.1.7 1.2.7 2.4 1.4 3.6 2 .1 0 .1.1.2.1 1.3.7 2.6 1.3 4 1.8.4.2.8.3 1.2.5 1 .4 2.1.8 3.1 1.2.4.1.8.3 1.2.4 1.4.5 2.9.9 4.3 1.3 1.1.3 2.2.5 3.3.8.3.1.6.1.9.2 1 .2 1.9.4 2.9.5.1 0 .3.1.4.1 1.1.2 2.2.3 3.2.4.3 0 .6.1.8.1.9.1 1.8.2 2.7.2h.6c1.1.1 2.1.1 3.2.1h4.1c1.1 0 2.1-.1 3.1-.2.2 0 .4 0 .6-.1.9-.1 1.7-.2 2.6-.3.3 0 .5-.1.8-.1h.1c1.4-1.9 2.8-3.8 4.1-5.7-56.3 11.1-83.5-45-84.7-47.6z" class="st35"/><path d="M718.7 847.7c0 .2.1.3.1.5.3 1.1.7 2.3 1 3.4.1.2.1.5.2.7l1.5 3.9c.1.3.3.7.4 1 .4 1 .9 2 1.3 2.9l.6 1.2c.5 1.1 1.1 2.1 1.7 3.2l.3.6c.7 1.2 1.4 2.4 2.2 3.6.2.3.4.6.6 1 .6.9 1.2 1.7 1.8 2.6.3.3.5.7.8 1 .8 1 1.5 1.9 2.3 2.9.1.1.2.3.3.4.9 1.1 1.9 2.1 2.9 3.1l.8.8c.8.7 1.5 1.5 2.3 2.2.3.3.6.6 1 .9 1 .9 2 1.7 3 2.5l.3.3c1.1.9 2.3 1.7 3.5 2.5.3.2.7.5 1 .7.9.6 1.8 1.2 2.7 1.7.4.2.7.4 1.1.7 1.2.7 2.4 1.4 3.6 2 .1 0 .1.1.2.1 1.3.7 2.6 1.3 4 1.8.4.2.8.3 1.2.5 1 .4 2.1.8 3.1 1.2.4.1.8.3 1.2.4 1.4.5 2.9.9 4.3 1.3 1.1.3 2.2.5 3.3.8.3.1.6.1.9.2 1 .2 1.9.4 2.9.5.1 0 .3.1.4.1 1.1.2 2.2.3 3.2.4.3 0 .6.1.8.1.9.1 1.8.2 2.7.2h.6c1.1.1 2.1.1 3.2.1h4.1c1.1 0 2.1-.1 3.1-.2.2 0 .4 0 .6-.1.9-.1 1.7-.2 2.6-.3.3 0 .5-.1.8-.1h.1c1.4-1.9 2.8-3.8 4.1-5.7-56.3 11.1-83.5-45-84.7-47.6z" class="st37"/><path fill="#2f4d69" d="M867.2 457.3c0-28.7-30.6-52.2-68.1-52.2H145.8c-37.4 0-68.1 23.5-68.1 52.2s30.6 52.2 68.1 52.2h653.4c37.4 0 68-23.5 68-52.2z" opacity=".6"/><path d="M893.8 446.7c0-31.1-32.8-56.5-72.9-56.5H130.3c-40.1 0-72.9 25.4-72.9 56.5s32.8 56.5 72.9 56.5H821c40 0 72.8-25.4 72.8-56.5z" class="st33"/><path fill="none" stroke="#e3ebf5" stroke-linecap="round" stroke-miterlimit="10" stroke-width="12.582" d="M135.9 415h435.7" opacity=".1"/><path fill="none" stroke="#e3ebf5" stroke-linecap="round" stroke-miterlimit="10" stroke-width="11.254" d="M603 415h31.5" opacity=".15"/><path fill="none" stroke="#e3ebf5" stroke-linecap="round" stroke-miterlimit="10" stroke-width="12.582" d="M666.7 415h136.6" opacity=".2"/><linearGradient id="SVGID_1_" x1="473.004" x2="478.628" y1="540.106" y2="281.136" gradientTransform="matrix(1 0 0 -1 0 1079.89)" gradientUnits="userSpaceOnUse"><stop offset="0" stop-color="#7ad9f2"/><stop offset="1" stop-color="#1450c2"/></linearGradient><circle cx="475.9" cy="674.7" r="129.5" fill="url(#SVGID_1_)"/><path d="M405.4 695.8c-3.2 1.7-5.5 3.6-8.9 2.8 8.1-11.5 16.5-22.7 16.9-37.9-1.2.2-2.1.4-3 .4-6.9.5-13.4-.8-18.7-5.5-2.9-2.6-4.7-5.9-5.7-9.6-1.3-4.7-2.4-9.6-3.3-14.4-.4-2-.1-4.1-.1-5.6 2.4 2.1 4.9 4.1 7.3 6.3 4.9 4.4 10.3 6.4 17 4.4 5.6-1.7 11.4-2.8 16.2-6.5 2.1-1.6 3.8-3.6 5.5-5.6 5.5-6.1 12.1-10.5 19.2-14.4 5.2-2.8 10.4-5.3 16.3-6.1 2.3-.3 4.6-.7 6.9-.6 11.8.5 21.8-4.2 31.1-10.8 2.5-1.8 5-3.6 7.8-5.6.4 5.5.5 10.8-2.1 16.6 6.5-.9 12.4-1.7 18.9-2.6-.9 3.4-1.8 7-2.7 10.4-.1.5-.3 1-.5 1.5-1 1.6-.2 2.3 1.4 2.6 5.7 1.1 11.3 2.1 17 3.2.3.1.7.1 1.6.2-2.3 2.7-4.4 5.1-6.7 7.7 5.7 1.4 11 .7 16.1-1.2 5.2-2 8.9-5.7 11.4-10.9 3 3.7 4.5 7.7 5.1 12 1.1 9.2-2.5 16.2-10 21.5-5.8 4-12.1 7.1-18.7 9.5-.7.3-1.4.5-2.6 1 5.5 12 10.9 23.8 16.4 35.9h-8.3c.3 1.2.5 2 .7 2.9 2.9 10.3 1.9 19.7-6.6 27.3-3 2.7-6 5.5-8.9 8.3-6.2 5.9-12.4 11.8-18.5 17.7-1.6 1.6-3 3.5-4.9 5.9-1.3-4-2.5-7.6-3.8-11.6-.4.2-1.3.4-2.1.9-10.2 5.2-20.9 8.6-32.3 9.9-9.9 1.1-19.6.1-28.9-3.7-9.7-3.9-19.3-8.3-27.7-14.7-4.7-3.6-8.9-7.7-11-13.5-1.2-3.5-1.2-6.9-.3-10.6 1.4-5.5 2.3-11.2 3.5-17.5zm42.6-17c.8 6.8 4.3 12.2 7.9 17.4.3.5 1.1.7 1.7.9 13.2 2.5 26.1 2.1 39.2-1.1 6-1.5 9.4-4.3 10.8-10.1.6-2.3 1.6-4.6 2.4-6.8.3 0 .5-.1.7-.1 1.6 3.3 3.2 6.6 5 10.2.2-.7.3-1 .3-1.4.4-8.3 1.1-16.6 1.1-24.9.1-7.6-2.5-14.5-7.3-20.5-.5-.6-1.2-1.1-1.6-1.5-1.8 2.5-3.4 4.7-5.3 7.3-2.6-5.9-5.3-11.1-9.4-15.7-1.7 4.6-5.1 7.2-8.5 10.2-.5-3.1-.8-5.7-1.4-8.3-.7-3-1.9-3.8-4.9-3.8-1 0-2-.1-2.9.1-6.8 1.6-13.6 3.1-20.3 5.1-5.5 1.6-10.9 3.2-15.8 6.4-3.7 2.4-6.6 5.4-7.4 9.8-.7 3.7-1.1 7.4-1.4 11.2-1.1 10.6 1.8 20.3 7.6 29.2.3.4.4.9.6 1.4.2-.2.4-.3.6-.5.7-6.1 2.7-11.2 8.3-14.5zm-28.1-92c5.3-2.9 10.5-5.6 16-8.6.7 2.1 1.5 4.2 2.2 6.2 2 5.8 3.8 11.6 5.9 17.4.5 1.4.2 2-1 2.6-5.9 2.7-3.8 3.2-8.1-1.3-4.8-5-9.4-10.3-14.1-15.4-.4-.2-.6-.5-.9-.9zm23.1-4.9c4-.9 7.9-1.8 12-2.8 0 6.4 0 12.5-.1 18.7 0 .6-.7 1.3-1.2 1.6-1.1.5-2.3.8-3.5 1.2-2.4-6.2-4.8-12.3-7.2-18.7z" class="st5"/><path d="M419.5 597.6c4.5 4 8.8 7.8 13.4 11.9-1.6 1.3-2.9 2.4-4.4 3.4-.5.3-1.4.1-2.1-.1-4.8-1.8-9.6-3.7-14.6-5.7 2.6-3.1 5.1-6.2 7.7-9.5zm27.1 55.6c1.2.5 2.2.8 3.1 1.2 7.9 3.3 15.7 6.6 23.6 9.8 1.6.7 1.8 1.4 1.2 2.9-2.5 5.9-8.5 9.3-14.8 8.5-1.3-.2-2.5-.3-3.8-.6-8.8-2-12.6-7.6-10.9-16.4.4-1.8 1.1-3.5 1.6-5.4zm35.5 11.5c8.6-2.8 17.2-5.5 25.6-8.2 3 6.7-1.4 15.3-9.1 18.3-6.6 2.7-13.6-1.5-16.5-10.1z" class="st5"/></svg>