<?xml version="1.0" encoding="UTF-8" ?>
<!DOCTYPE svg PUBLIC "-//W3C//DTD SVG 1.1//EN" "http://www.w3.org/Graphics/SVG/1.1/DTD/svg11.dtd">
<svg width="200pt" height="200pt" viewBox="0 0 200 200" version="1.1" xmlns="http://www.w3.org/2000/svg">
<g id="#000000ff">
<path fill="#000000" opacity="1.00" d=" M 25.24 6.28 C 32.51 6.86 39.72 8.22 46.97 9.02 C 50.47 9.68 54.54 9.16 57.38 11.73 C 64.64 17.45 72.00 23.05 79.34 28.67 C 81.10 29.92 82.16 31.82 83.58 33.41 C 87.60 37.11 93.63 38.71 96.14 43.92 C 98.89 48.86 101.98 53.61 104.70 58.56 C 99.45 59.44 94.20 56.65 89.06 55.59 C 89.72 59.52 92.80 63.77 90.63 67.68 C 85.65 78.34 80.11 88.75 75.19 99.44 C 75.37 99.68 75.72 100.18 75.90 100.43 C 74.73 101.18 73.50 101.82 72.30 102.52 C 77.13 91.31 82.76 80.46 88.14 69.52 C 82.30 74.76 78.14 81.66 72.19 86.79 C 71.58 85.50 73.03 84.56 73.71 83.66 C 79.35 78.03 83.92 71.43 89.79 66.00 C 86.60 66.37 83.43 66.93 80.32 67.70 C 73.51 68.13 66.96 70.28 60.18 70.93 C 64.13 76.14 66.75 82.22 70.81 87.36 C 71.88 92.53 71.11 97.94 71.18 103.21 C 70.83 103.43 70.13 103.89 69.78 104.11 C 69.82 99.20 69.82 94.29 69.79 89.38 C 63.25 92.63 56.72 95.88 50.20 99.17 C 55.92 101.03 61.62 102.95 67.34 104.80 L 66.90 105.37 L 66.61 105.73 C 60.66 103.84 54.72 101.91 48.90 99.66 C 45.88 103.45 42.62 107.05 39.58 110.83 C 42.16 110.31 44.75 109.87 47.32 109.35 C 52.96 108.87 58.54 107.78 64.09 106.68 C 64.00 107.06 63.83 107.82 63.75 108.21 C 57.47 108.84 51.27 110.11 45.03 110.99 C 43.08 111.41 41.10 111.53 39.12 111.59 L 39.28 112.21 C 41.63 114.23 43.40 116.79 45.34 119.18 C 51.38 115.71 57.71 112.78 63.77 109.35 L 64.29 108.70 C 64.32 109.22 64.37 110.26 64.40 110.78 C 58.29 113.81 52.40 117.27 46.22 120.17 C 46.86 123.16 47.55 126.13 48.39 129.06 C 45.95 134.83 44.04 140.84 41.11 146.39 C 37.39 138.48 36.42 129.58 33.22 121.46 C 27.23 121.09 21.33 121.99 15.49 123.23 C 18.08 118.49 22.70 115.25 26.45 111.47 C 30.22 110.58 34.20 110.77 38.07 110.46 C 41.15 106.49 44.74 102.92 47.69 98.85 C 48.73 90.49 48.14 81.97 48.96 73.56 C 45.55 76.11 43.93 80.08 41.98 83.71 L 41.47 84.15 C 41.21 84.12 40.68 84.06 40.41 84.02 C 41.37 81.74 42.49 79.53 43.75 77.40 C 42.45 75.69 41.21 73.94 39.88 72.26 C 40.11 70.76 40.30 69.25 40.47 67.74 C 39.35 69.03 38.25 70.32 37.16 71.62 C 37.14 70.68 37.09 68.81 37.06 67.87 C 35.90 67.00 34.83 67.62 34.30 68.83 C 35.40 71.85 36.05 75.00 36.71 78.14 C 36.75 78.73 36.82 79.92 36.85 80.52 C 37.60 79.57 38.34 78.61 39.06 77.64 C 39.15 79.95 39.18 82.26 39.13 84.57 C 39.65 84.62 40.67 84.71 41.18 84.75 L 40.99 85.42 C 40.24 86.57 39.50 87.72 38.76 88.88 C 36.90 85.18 36.33 81.04 35.27 77.08 C 34.28 73.07 32.73 69.18 32.29 65.04 C 32.24 60.53 35.47 56.67 35.74 52.25 C 32.28 46.85 28.27 41.82 24.73 36.46 C 24.88 26.66 23.90 16.86 24.18 7.05 C 24.44 6.86 24.97 6.47 25.24 6.28 M 25.79 7.55 C 25.98 10.63 25.51 13.93 27.01 16.77 C 28.35 19.58 29.43 22.51 30.62 25.40 C 31.27 26.90 32.56 28.71 34.55 27.99 C 33.30 28.93 31.88 33.05 31.04 28.47 C 29.57 31.12 27.99 33.70 26.25 36.18 C 30.78 37.08 35.04 38.93 39.43 40.31 C 37.35 37.37 35.28 34.41 33.03 31.60 C 33.84 30.70 34.62 29.77 35.36 28.81 C 41.11 31.90 46.91 34.99 52.92 37.55 C 56.43 35.86 60.24 34.97 63.94 33.83 C 61.44 31.04 58.82 28.31 55.62 26.32 L 55.44 27.41 C 53.76 27.11 51.96 27.18 50.41 26.41 C 48.62 24.96 47.31 23.03 46.36 20.95 C 48.25 20.81 50.16 20.73 52.06 20.66 C 53.40 22.05 54.74 23.45 56.05 24.87 C 58.80 27.54 61.60 30.16 64.13 33.06 C 65.37 28.68 64.74 24.12 65.16 19.65 C 61.76 16.89 58.37 14.08 54.68 11.71 C 45.12 9.95 35.34 9.44 25.79 7.55 M 25.93 17.44 C 25.84 23.11 25.91 28.78 25.92 34.45 C 27.77 32.44 28.91 29.94 30.48 27.73 C 28.88 24.33 27.90 20.66 25.93 17.44 M 66.80 20.81 C 65.34 24.95 65.54 29.31 65.99 33.61 C 70.41 32.29 75.09 32.17 79.50 30.77 C 75.37 27.32 71.05 24.11 66.80 20.81 M 47.88 21.36 C 48.54 22.57 49.23 23.76 49.96 24.93 C 52.02 25.62 54.14 26.04 56.32 26.22 C 53.87 24.06 51.64 20.78 47.88 21.36 M 34.51 31.96 C 37.08 34.64 38.97 37.87 41.24 40.80 C 44.33 39.97 47.40 39.00 50.34 37.72 C 45.46 35.41 40.56 33.14 35.86 30.49 C 35.41 30.98 34.96 31.47 34.51 31.96 M 65.74 34.41 C 68.60 38.74 71.24 43.22 74.01 47.61 C 75.88 42.36 77.99 37.21 80.37 32.18 C 75.45 32.63 70.67 33.97 65.74 34.41 M 74.07 48.21 C 79.18 53.69 85.11 58.32 90.20 63.82 C 88.41 58.34 86.69 52.83 85.13 47.28 C 84.32 44.25 82.85 41.26 83.24 38.04 L 82.59 38.22 C 82.19 36.48 81.76 34.75 81.30 33.03 C 78.55 37.93 77.48 43.70 74.07 48.21 M 49.57 39.53 C 47.57 40.08 45.40 40.34 43.71 41.62 C 49.56 42.68 55.33 44.12 61.18 45.19 C 65.02 46.09 68.88 46.94 72.76 47.64 C 70.10 43.53 67.64 39.29 64.94 35.20 L 64.00 34.94 C 59.21 36.52 54.37 37.99 49.57 39.53 M 83.58 35.25 C 86.69 39.98 90.51 44.28 92.89 49.46 L 94.16 49.28 C 93.22 46.98 93.29 44.52 93.18 42.09 C 90.13 39.62 86.89 37.35 83.58 35.25 M 26.76 37.35 C 32.70 45.33 38.52 53.41 44.27 61.53 C 45.64 62.90 45.95 66.16 48.42 65.73 C 45.00 58.14 43.39 49.91 40.64 42.09 C 36.15 40.19 31.39 38.88 26.76 37.35 M 84.61 42.50 C 86.19 46.17 87.28 50.05 87.90 53.99 C 89.90 53.26 91.92 52.60 93.97 52.02 C 91.07 48.04 88.18 44.05 85.57 39.87 C 85.15 40.71 84.83 41.59 84.61 42.50 M 41.73 41.96 C 48.11 50.95 53.54 60.56 59.75 69.64 C 64.04 62.76 68.34 55.86 73.04 49.25 C 62.74 46.31 52.05 44.91 41.73 41.96 M 94.61 44.00 C 94.64 46.75 94.67 49.49 94.71 52.23 C 96.22 52.89 97.73 53.56 99.28 54.14 C 98.84 54.55 98.40 54.95 97.97 55.35 C 95.96 52.56 92.94 53.04 90.05 53.95 C 92.75 55.88 96.31 55.53 99.26 56.97 C 99.98 56.46 100.71 55.95 101.44 55.45 C 98.96 51.76 96.86 47.84 94.61 44.00 M 42.97 46.04 C 45.38 54.07 48.24 61.98 50.38 70.10 C 53.21 70.19 56.05 70.14 58.88 70.11 C 53.45 62.17 48.60 53.83 42.97 46.04 M 73.94 49.81 C 69.43 56.48 65.15 63.31 60.61 69.97 C 63.06 69.55 65.47 68.92 67.94 68.62 C 75.40 68.06 82.52 65.15 90.07 65.32 C 84.95 59.92 79.86 54.34 73.94 49.81 M 37.57 53.94 C 37.41 58.24 38.16 62.52 37.77 66.82 C 41.49 67.85 45.15 69.17 49.00 69.69 C 45.05 64.54 41.27 59.27 37.57 53.94 M 34.12 66.84 C 35.22 66.39 36.34 65.96 37.46 65.55 C 37.20 62.50 37.13 59.45 36.91 56.40 C 34.20 59.13 33.93 63.22 34.12 66.84 M 40.39 70.87 C 41.69 72.79 42.91 74.78 44.21 76.71 C 45.72 74.94 48.98 73.16 48.34 70.60 C 45.79 69.98 42.22 68.04 40.39 70.87 M 50.61 70.80 C 49.53 76.65 50.87 82.65 49.76 88.49 C 49.35 90.59 49.27 92.73 49.20 94.86 L 50.22 95.01 C 52.39 86.63 56.46 78.89 59.14 70.68 C 56.30 70.77 53.45 70.79 50.61 70.80 M 54.61 85.73 C 53.85 87.64 53.09 89.55 52.40 91.49 C 51.56 93.63 50.62 95.73 49.77 97.86 C 56.63 94.94 63.05 91.09 69.89 88.13 C 66.19 82.96 63.24 77.31 59.87 71.93 C 58.00 76.49 55.97 80.99 54.61 85.73 M 29.18 112.31 C 30.35 113.21 31.69 113.71 33.19 113.81 C 30.36 116.00 27.14 117.68 24.62 120.27 C 27.47 120.32 30.31 120.30 33.16 120.29 C 32.80 118.93 31.81 117.62 32.16 116.16 C 33.15 116.76 33.77 117.77 34.03 119.18 C 35.16 116.81 36.30 114.44 37.31 112.02 C 35.98 112.71 34.65 113.42 33.34 114.14 C 34.34 110.92 30.51 112.82 29.18 112.31 M 34.60 120.72 C 37.67 119.38 40.99 119.17 44.30 119.48 C 43.13 118.17 41.96 116.88 40.85 115.53 C 40.07 114.45 39.31 113.36 38.57 112.26 C 37.26 115.09 35.77 117.83 34.60 120.72 M 25.70 113.70 C 23.21 116.19 20.51 118.51 18.43 121.38 C 23.49 120.91 26.87 116.86 30.50 113.80 C 28.99 113.79 26.97 112.14 25.70 113.70 M 35.21 121.12 C 37.32 122.68 39.29 124.39 41.16 126.22 C 41.96 124.09 43.10 122.13 44.18 120.13 C 41.24 120.85 38.23 121.12 35.21 121.12 M 44.82 121.38 C 43.75 123.16 42.69 124.94 41.63 126.72 C 43.20 127.16 44.74 127.67 46.27 128.24 C 46.48 125.86 45.52 123.60 44.82 121.38 M 34.91 122.05 C 36.64 126.60 37.93 131.30 38.96 136.06 C 39.20 138.35 41.00 139.93 42.13 141.80 C 43.33 137.70 44.86 133.69 46.66 129.81 C 45.03 128.98 43.35 128.23 41.65 127.55 C 41.41 131.47 41.96 135.46 41.18 139.34 C 40.51 135.36 40.73 131.31 40.73 127.30 C 38.81 125.53 36.94 123.70 34.91 122.05 Z" />
</g>
<g id="#ffffffff">
<path fill="#ffffff" opacity="1.00" d=" M 25.79 7.55 C 35.34 9.44 45.12 9.95 54.68 11.71 C 58.37 14.08 61.76 16.89 65.16 19.65 C 64.74 24.12 65.37 28.68 64.13 33.06 C 61.60 30.16 58.80 27.54 56.05 24.87 C 54.74 23.45 53.40 22.05 52.06 20.66 C 50.16 20.73 48.25 20.81 46.36 20.95 C 47.31 23.03 48.62 24.96 50.41 26.41 C 51.96 27.18 53.76 27.11 55.44 27.41 L 55.62 26.32 C 58.82 28.31 61.44 31.04 63.94 33.83 C 60.24 34.97 56.43 35.86 52.92 37.55 C 46.91 34.99 41.11 31.90 35.36 28.81 C 34.62 29.77 33.84 30.70 33.03 31.60 C 35.28 34.41 37.35 37.37 39.43 40.31 C 35.04 38.93 30.78 37.08 26.25 36.18 C 27.99 33.70 29.57 31.12 31.04 28.47 C 31.88 33.05 33.30 28.93 34.55 27.99 C 32.56 28.71 31.27 26.90 30.62 25.40 C 29.43 22.51 28.35 19.58 27.01 16.77 C 25.51 13.93 25.98 10.63 25.79 7.55 Z" />
<path fill="#ffffff" opacity="1.00" d=" M 25.93 17.44 C 27.90 20.66 28.88 24.33 30.48 27.73 C 28.91 29.94 27.77 32.44 25.92 34.45 C 25.91 28.78 25.84 23.11 25.93 17.44 Z" />
<path fill="#ffffff" opacity="1.00" d=" M 66.80 20.81 C 71.05 24.11 75.37 27.32 79.50 30.77 C 75.09 32.17 70.41 32.29 65.99 33.61 C 65.54 29.31 65.34 24.95 66.80 20.81 Z" />
<path fill="#ffffff" opacity="1.00" d=" M 47.88 21.36 C 51.64 20.78 53.87 24.06 56.32 26.22 C 54.14 26.04 52.02 25.62 49.96 24.93 C 49.23 23.76 48.54 22.57 47.88 21.36 Z" />
<path fill="#ffffff" opacity="1.00" d=" M 34.51 31.96 C 34.96 31.47 35.41 30.98 35.86 30.49 C 40.56 33.14 45.46 35.41 50.34 37.72 C 47.40 39.00 44.33 39.97 41.24 40.80 C 38.97 37.87 37.08 34.64 34.51 31.96 Z" />
<path fill="#ffffff" opacity="1.00" d=" M 65.74 34.41 C 70.67 33.97 75.45 32.63 80.37 32.18 C 77.99 37.21 75.88 42.36 74.01 47.61 C 71.24 43.22 68.60 38.74 65.74 34.41 Z" />
<path fill="#ffffff" opacity="1.00" d=" M 74.07 48.21 C 77.48 43.70 78.55 37.93 81.30 33.03 C 81.76 34.75 82.19 36.48 82.59 38.22 L 83.24 38.04 C 82.85 41.26 84.32 44.25 85.13 47.28 C 86.69 52.83 88.41 58.34 90.20 63.82 C 85.11 58.32 79.18 53.69 74.07 48.21 Z" />
<path fill="#ffffff" opacity="1.00" d=" M 49.57 39.53 C 54.37 37.99 59.21 36.52 64.00 34.94 L 64.94 35.20 C 67.64 39.29 70.10 43.53 72.76 47.64 C 68.88 46.94 65.02 46.09 61.18 45.19 C 55.33 44.12 49.56 42.68 43.71 41.62 C 45.40 40.34 47.57 40.08 49.57 39.53 Z" />
<path fill="#ffffff" opacity="1.00" d=" M 83.58 35.25 C 86.89 37.35 90.13 39.62 93.18 42.09 C 93.29 44.52 93.22 46.98 94.16 49.28 L 92.89 49.46 C 90.51 44.28 86.69 39.98 83.58 35.25 Z" />
<path fill="#ffffff" opacity="1.00" d=" M 26.76 37.35 C 31.39 38.88 36.15 40.19 40.64 42.09 C 43.39 49.91 45.00 58.14 48.42 65.73 C 45.95 66.16 45.64 62.90 44.27 61.53 C 38.52 53.41 32.70 45.33 26.76 37.35 Z" />
<path fill="#ffffff" opacity="1.00" d=" M 84.61 42.50 C 84.83 41.59 85.15 40.71 85.57 39.87 C 88.18 44.05 91.07 48.04 93.97 52.02 C 91.92 52.60 89.90 53.26 87.90 53.99 C 87.28 50.05 86.19 46.17 84.61 42.50 Z" />
<path fill="#ffffff" opacity="1.00" d=" M 41.73 41.96 C 52.05 44.91 62.74 46.31 73.04 49.25 C 68.34 55.86 64.04 62.76 59.75 69.64 C 53.54 60.56 48.11 50.95 41.73 41.96 Z" />
<path fill="#ffffff" opacity="1.00" d=" M 94.61 44.00 C 96.86 47.84 98.96 51.76 101.44 55.45 C 100.71 55.95 99.98 56.46 99.26 56.97 C 96.31 55.53 92.75 55.88 90.05 53.95 C 92.94 53.04 95.96 52.56 97.97 55.35 C 98.40 54.95 98.84 54.55 99.28 54.14 C 97.73 53.56 96.22 52.89 94.71 52.23 C 94.67 49.49 94.64 46.75 94.61 44.00 Z" />
<path fill="#ffffff" opacity="1.00" d=" M 42.97 46.04 C 48.60 53.83 53.45 62.17 58.88 70.11 C 56.05 70.14 53.21 70.19 50.38 70.10 C 48.24 61.98 45.38 54.07 42.97 46.04 Z" />
<path fill="#ffffff" opacity="1.00" d=" M 73.94 49.81 C 79.86 54.34 84.95 59.92 90.07 65.32 C 82.52 65.15 75.40 68.06 67.94 68.62 C 65.47 68.92 63.06 69.55 60.61 69.97 C 65.15 63.31 69.43 56.48 73.94 49.81 Z" />
<path fill="#ffffff" opacity="1.00" d=" M 37.57 53.94 C 41.27 59.27 45.05 64.54 49.00 69.69 C 45.15 69.17 41.49 67.85 37.77 66.82 C 38.16 62.52 37.41 58.24 37.57 53.94 Z" />
<path fill="#ffffff" opacity="1.00" d=" M 34.12 66.84 C 33.93 63.22 34.20 59.13 36.91 56.40 C 37.13 59.45 37.20 62.50 37.46 65.55 C 36.34 65.96 35.22 66.39 34.12 66.84 Z" />
<path fill="#ffffff" opacity="1.00" d=" M 34.30 68.83 C 34.83 67.62 35.90 67.00 37.06 67.87 C 37.09 68.81 37.14 70.68 37.16 71.62 C 37.24 73.80 37.01 75.98 36.71 78.14 C 36.05 75.00 35.40 71.85 34.30 68.83 Z" />
<path fill="#ffffff" opacity="1.00" d=" M 80.32 67.70 C 83.43 66.93 86.60 66.37 89.79 66.00 C 83.92 71.43 79.35 78.03 73.71 83.66 C 73.03 84.56 71.58 85.50 72.19 86.79 C 78.14 81.66 82.30 74.76 88.14 69.52 C 82.76 80.46 77.13 91.31 72.30 102.52 C 72.02 102.69 71.46 103.03 71.18 103.21 C 71.11 97.94 71.88 92.53 70.81 87.36 C 66.75 82.22 64.13 76.14 60.18 70.93 C 66.96 70.28 73.51 68.13 80.32 67.70 Z" />
<path fill="#ffffff" opacity="1.00" d=" M 40.39 70.87 C 42.22 68.04 45.79 69.98 48.34 70.60 C 48.98 73.16 45.72 74.94 44.21 76.71 C 42.91 74.78 41.69 72.79 40.39 70.87 Z" />
<path fill="#ffffff" opacity="1.00" d=" M 50.61 70.80 C 53.45 70.79 56.30 70.77 59.14 70.68 C 56.46 78.89 52.39 86.63 50.22 95.01 L 49.20 94.86 C 49.27 92.73 49.35 90.59 49.76 88.49 C 50.87 82.65 49.53 76.65 50.61 70.80 Z" />
<path fill="#ffffff" opacity="1.00" d=" M 39.01 71.85 L 39.88 72.26 C 41.21 73.94 42.45 75.69 43.75 77.40 C 42.49 79.53 41.37 81.74 40.41 84.02 C 40.68 84.06 41.21 84.12 41.47 84.15 L 41.61 84.60 L 41.18 84.75 C 40.67 84.71 39.65 84.62 39.13 84.57 C 39.18 82.26 39.15 79.95 39.06 77.64 C 39.05 75.71 39.02 73.78 39.01 71.85 Z" />
<path fill="#ffffff" opacity="1.00" d=" M 54.61 85.73 C 55.97 80.99 58.00 76.49 59.87 71.93 C 63.24 77.31 66.19 82.96 69.89 88.13 C 63.05 91.09 56.63 94.94 49.77 97.86 C 50.62 95.73 51.56 93.63 52.40 91.49 C 53.09 89.55 53.85 87.64 54.61 85.73 Z" />
<path fill="#ffffff" opacity="1.00" d=" M 50.20 99.17 C 56.72 95.88 63.25 92.63 69.79 89.38 C 69.82 94.29 69.82 99.20 69.78 104.11 C 68.97 104.38 68.16 104.61 67.34 104.80 C 61.62 102.95 55.92 101.03 50.20 99.17 Z" />
<path fill="#ffffff" opacity="1.00" d=" M 48.90 99.66 C 54.72 101.91 60.66 103.84 66.61 105.73 C 65.82 106.71 65.05 107.70 64.29 108.70 L 63.77 109.35 C 57.71 112.78 51.38 115.71 45.34 119.18 C 43.40 116.79 41.63 114.23 39.28 112.21 L 39.12 111.59 C 41.10 111.53 43.08 111.41 45.03 110.99 C 51.27 110.11 57.47 108.84 63.75 108.21 C 63.83 107.82 64.00 107.06 64.09 106.68 C 58.54 107.78 52.96 108.87 47.32 109.35 C 44.75 109.87 42.16 110.31 39.58 110.83 C 42.62 107.05 45.88 103.45 48.90 99.66 Z" />
<path fill="#ffffff" opacity="1.00" d=" M 29.18 112.31 C 30.51 112.82 34.34 110.92 33.34 114.14 C 34.65 113.42 35.98 112.71 37.31 112.02 C 36.30 114.44 35.16 116.81 34.03 119.18 C 33.77 117.77 33.15 116.76 32.16 116.16 C 31.81 117.62 32.80 118.93 33.16 120.29 C 30.31 120.30 27.47 120.32 24.62 120.27 C 27.14 117.68 30.36 116.00 33.19 113.81 C 31.69 113.71 30.35 113.21 29.18 112.31 Z" />
<path fill="#ffffff" opacity="1.00" d=" M 34.60 120.72 C 35.77 117.83 37.26 115.09 38.57 112.26 C 39.31 113.36 40.07 114.45 40.85 115.53 C 41.96 116.88 43.13 118.17 44.30 119.48 C 40.99 119.17 37.67 119.38 34.60 120.72 Z" />
<path fill="#ffffff" opacity="1.00" d=" M 44.82 121.38 C 45.52 123.60 46.48 125.86 46.27 128.24 C 44.74 127.67 43.20 127.16 41.63 126.72 C 42.69 124.94 43.75 123.16 44.82 121.38 Z" />
<path fill="#ffffff" opacity="1.00" d=" M 34.91 122.05 C 36.94 123.70 38.81 125.53 40.73 127.30 C 40.73 131.31 40.51 135.36 41.18 139.34 C 41.96 135.46 41.41 131.47 41.65 127.55 C 43.35 128.23 45.03 128.98 46.66 129.81 C 44.86 133.69 43.33 137.70 42.13 141.80 C 41.00 139.93 39.20 138.35 38.96 136.06 C 37.93 131.30 36.64 126.60 34.91 122.05 Z" />
</g>
<g id="#858585ff">
<path fill="#858585" opacity="1.00" d=" M 40.47 67.74 C 40.30 69.25 40.11 70.76 39.88 72.26 L 39.01 71.85 C 39.02 73.78 39.05 75.71 39.06 77.64 C 38.34 78.61 37.60 79.57 36.85 80.52 C 36.82 79.92 36.75 78.73 36.71 78.14 C 37.01 75.98 37.24 73.80 37.16 71.62 C 38.25 70.32 39.35 69.03 40.47 67.74 Z" />
</g>
<g id="#2b6eefff">
<path fill="#2b6eef" opacity="1.00" d=" M 75.90 100.43 C 79.34 98.47 82.85 96.62 86.19 94.47 C 107.89 107.07 129.74 119.40 151.30 132.22 C 144.52 137.08 137.00 140.75 129.88 145.07 C 111.13 134.17 92.38 123.24 73.53 112.52 C 70.72 110.77 66.29 109.56 66.90 105.37 L 67.34 104.80 C 68.16 104.61 68.97 104.38 69.78 104.11 C 70.13 103.89 70.83 103.43 71.18 103.21 C 71.46 103.03 72.02 102.69 72.30 102.52 C 73.50 101.82 74.73 101.18 75.90 100.43 Z" />
<path fill="#2b6eef" opacity="1.00" d=" M 153.97 105.87 C 160.62 102.16 167.21 98.32 173.78 94.46 C 180.74 98.79 187.97 102.65 195.00 106.85 C 188.36 111.96 180.67 115.42 173.62 119.88 C 168.44 116.90 163.27 113.89 158.12 110.86 C 156.10 109.81 155.08 107.73 153.97 105.87 Z" />
</g>
<g id="#2991f9ff">
<path fill="#2991f9" opacity="1.00" d=" M 66.61 105.73 L 66.90 105.37 C 66.29 109.56 70.72 110.77 73.53 112.52 C 92.38 123.24 111.13 134.17 129.88 145.07 C 129.90 153.38 130.26 161.69 130.01 170.00 C 122.47 165.93 115.26 161.26 107.65 157.32 C 100.50 153.56 93.79 149.02 86.58 145.37 C 85.83 162.85 86.82 180.38 86.13 197.87 C 79.77 194.17 73.39 190.51 66.99 186.87 C 65.94 186.12 64.17 185.59 64.44 183.97 C 64.45 159.58 64.54 135.18 64.40 110.78 C 64.37 110.26 64.32 109.22 64.29 108.70 C 65.05 107.70 65.82 106.71 66.61 105.73 Z" />
<path fill="#2991f9" opacity="1.00" d=" M 151.88 107.18 C 152.57 106.74 153.27 106.31 153.97 105.87 C 155.08 107.73 156.10 109.81 158.12 110.86 C 163.27 113.89 168.44 116.90 173.62 119.88 C 173.89 145.86 173.90 171.85 173.67 197.82 C 167.90 194.86 162.45 191.32 156.74 188.23 C 155.10 187.24 153.29 186.45 151.94 185.06 C 151.70 175.82 151.88 166.56 151.90 157.32 C 151.73 148.83 151.59 140.34 151.85 131.85 C 151.86 123.62 151.79 115.40 151.88 107.18 Z" />
</g>
<g id="#2dbdf8ff">
<path fill="#2dbdf8" opacity="1.00" d=" M 195.00 106.85 L 195.28 106.65 C 194.54 116.09 195.28 125.56 194.92 135.02 C 195.19 151.78 194.56 168.56 195.16 185.32 C 188.02 189.53 180.79 193.59 173.67 197.82 C 173.90 171.85 173.89 145.86 173.62 119.88 C 180.67 115.42 188.36 111.96 195.00 106.85 Z" />
</g>
<g id="#f4f4f4ff">
<path fill="#f4f4f4" opacity="1.00" d=" M 25.70 113.70 C 26.97 112.14 28.99 113.79 30.50 113.80 C 26.87 116.86 23.49 120.91 18.43 121.38 C 20.51 118.51 23.21 116.19 25.70 113.70 Z" />
</g>
<g id="#fcfcfcff">
<path fill="#fcfcfc" opacity="1.00" d=" M 35.21 121.12 C 38.23 121.12 41.24 120.85 44.18 120.13 C 43.10 122.13 41.96 124.09 41.16 126.22 C 39.29 124.39 37.32 122.68 35.21 121.12 Z" />
</g>
<g id="#2dbdf9ff">
<path fill="#2dbdf9" opacity="1.00" d=" M 151.30 132.22 L 151.85 131.85 C 151.59 140.34 151.73 148.83 151.90 157.32 C 144.49 161.33 137.19 165.57 130.01 170.00 C 130.26 161.69 129.90 153.38 129.88 145.07 C 137.00 140.75 144.52 137.08 151.30 132.22 Z" />
<path fill="#2dbdf9" opacity="1.00" d=" M 86.13 197.87 C 86.82 180.38 85.83 162.85 86.58 145.37 C 93.79 149.02 100.50 153.56 107.65 157.32 C 107.45 166.67 107.73 176.02 107.54 185.36 C 100.51 189.70 93.22 193.62 86.13 197.87 Z" />
</g>
</svg>
