<svg xmlns="http://www.w3.org/2000/svg" fill="none" viewBox="0 0 124 32"><path fill="#F3BA2F" d="M5.317 7.306 8.693 3.93l3.379 3.378 1.964-1.965L8.693 0 3.352 5.341l1.965 1.965ZM3.93 8.691 1.965 6.727 0 8.69l1.965 1.965L3.93 8.691Zm1.386 1.389 3.377 3.376 3.378-3.378 1.966 1.964h-.001l-5.343 5.344-5.342-5.341-.002-.003 1.967-1.962Zm10.106.576 1.965-1.965-1.965-1.964-1.964 1.964 1.964 1.965Z"/><path fill="#F3BA2F" d="M10.686 8.693 8.694 6.699 7.22 8.173l-.17.169-.349.35-.003.002.003.003 1.992 1.992 1.994-1.994v-.001l-.001-.001Zm18.746 2.244v-.027c0-.632-.158-1.123-.473-1.475-.316-.361-.75-.646-1.3-.853.172-.09.33-.199.474-.325a2.065 2.065 0 0 0 .663-1.002 2.18 2.18 0 0 0 .108-.717V6.51c0-.75-.28-1.345-.839-1.787-.55-.442-1.313-.663-2.287-.663h-4.4v9.475h4.508a5.99 5.99 0 0 0 1.448-.162 3.296 3.296 0 0 0 1.124-.488 2.12 2.12 0 0 0 .717-.812c.171-.325.257-.704.257-1.137ZM26.833 6.89c0 .352-.135.609-.406.771-.27.154-.636.23-1.096.23h-1.922V5.889h2.057c.442 0 .78.086 1.015.257.235.163.352.402.352.718v.027Zm.528 3.79c0 .352-.13.614-.392.785-.262.162-.623.244-1.083.244h-2.477V9.624h2.41c.54 0 .933.095 1.177.284.243.18.365.429.365.745v.027Zm6.304 2.856V4.061H31.58v9.475h2.085Zm11.568 0V4.061h-2.058v5.834l-4.44-5.834h-1.922v9.475h2.058V7.513l4.589 6.023h1.773Zm11.641 0-4.06-9.543H50.89l-4.06 9.543h2.125l.866-2.125h4.007l.866 2.125h2.18Zm-3.79-3.966h-2.518l1.26-3.073 1.258 3.073Zm13.807 3.966V4.061h-2.057v5.834l-4.44-5.834h-1.922v9.475h2.057V7.513l4.589 6.023h1.773Zm10.938-1.53-1.327-1.34c-.37.343-.744.614-1.123.813-.37.198-.826.297-1.367.297a2.72 2.72 0 0 1-1.124-.23 2.803 2.803 0 0 1-.866-.65 3.085 3.085 0 0 1-.555-.947 3.249 3.249 0 0 1-.203-1.15V8.77a3.14 3.14 0 0 1 .771-2.084 2.63 2.63 0 0 1 .867-.636c.343-.154.713-.23 1.11-.23.478 0 .906.094 1.285.284.389.19.767.451 1.138.785l1.326-1.53a5.58 5.58 0 0 0-.704-.595 4.314 4.314 0 0 0-.826-.46 5.03 5.03 0 0 0-1.001-.298 6.161 6.161 0 0 0-1.205-.109c-.73 0-1.399.131-2.003.393a4.575 4.575 0 0 0-1.557 1.056 4.794 4.794 0 0 0-1.015 1.556 4.891 4.891 0 0 0-.365 1.895v.027c0 .677.121 1.314.365 1.909a4.794 4.794 0 0 0 1.015 1.557 4.902 4.902 0 0 0 3.479 1.408c.46 0 .875-.041 1.245-.122.37-.073.709-.18 1.015-.325.316-.154.605-.334.867-.542.261-.207.514-.442.758-.704Zm9.221 1.53v-1.854h-5.143v-1.99h4.467V7.837h-4.467V5.915h5.076V4.061h-7.147v9.475h7.215ZM32.351 29.463l-1.99-2.01a7.879 7.879 0 0 1-1.685 1.218c-.555.298-1.238.447-2.05.447a4.08 4.08 0 0 1-1.686-.346 4.204 4.204 0 0 1-1.3-.974 4.63 4.63 0 0 1-.832-1.421 4.875 4.875 0 0 1-.304-1.726v-.04c0-.61.101-1.178.304-1.706a4.421 4.421 0 0 1 .853-1.422 3.945 3.945 0 0 1 1.3-.954 4.03 4.03 0 0 1 1.664-.345c.718 0 1.36.142 1.93.426.581.285 1.15.677 1.705 1.178l1.99-2.294a8.369 8.369 0 0 0-1.056-.894 6.56 6.56 0 0 0-1.239-.69 7.544 7.544 0 0 0-1.502-.447 9.242 9.242 0 0 0-1.807-.162c-1.097 0-2.098.196-3.005.589a6.863 6.863 0 0 0-2.335 1.583 7.187 7.187 0 0 0-1.523 2.335 7.336 7.336 0 0 0-.548 2.843v.04c0 1.015.183 1.97.548 2.863a7.186 7.186 0 0 0 1.523 2.335 7.223 7.223 0 0 0 2.314 1.543 7.357 7.357 0 0 0 2.904.569 8.73 8.73 0 0 0 1.868-.183 6.477 6.477 0 0 0 1.523-.487 7.02 7.02 0 0 0 1.3-.813c.392-.31.77-.663 1.136-1.055ZM49.33 24.65v-.04a7.103 7.103 0 0 0-.568-2.842 6.668 6.668 0 0 0-1.563-2.315 7.185 7.185 0 0 0-2.376-1.563c-.92-.393-1.928-.59-3.025-.59-1.096 0-2.111.197-3.046.59a7.254 7.254 0 0 0-2.395 1.583 7.293 7.293 0 0 0-1.564 2.335 7.108 7.108 0 0 0-.568 2.843v.04c0 1.015.182 1.97.548 2.863.379.88.9 1.652 1.563 2.315a7.89 7.89 0 0 0 2.396 1.563c.92.38 1.93.569 3.026.569 1.096 0 2.104-.19 3.025-.569a7.396 7.396 0 0 0 2.396-1.583 7.43 7.43 0 0 0 1.583-2.335 7.254 7.254 0 0 0 .569-2.863Zm-3.268.041c0 .61-.108 1.185-.325 1.726a4.287 4.287 0 0 1-.873 1.401 3.841 3.841 0 0 1-1.34.954 4.272 4.272 0 0 1-1.726.346 4.323 4.323 0 0 1-1.746-.346 4.635 4.635 0 0 1-1.36-.974 4.521 4.521 0 0 1-.894-1.421 4.875 4.875 0 0 1-.304-1.726v-.04c0-.61.101-1.178.304-1.706a4.725 4.725 0 0 1 .873-1.422 4.108 4.108 0 0 1 1.34-.954 4.324 4.324 0 0 1 1.746-.345c.623 0 1.198.122 1.726.365.528.23.982.549 1.36.955.393.406.691.88.894 1.42.217.542.325 1.118.325 1.727v.04Zm18.671 7.066V17.544h-3.086v8.751l-6.66-8.75h-2.883v14.212h3.087v-9.035l6.883 9.035h2.66Zm16.041 0V17.544h-3.086v8.751l-6.66-8.75h-2.883v14.212h3.086v-9.035l6.883 9.035h2.66Zm14.234 0v-2.782h-7.715v-2.984h6.7v-2.782h-6.7v-2.883h7.613v-2.782h-10.72v14.213h10.822Zm15.267-2.294-1.99-2.01a7.892 7.892 0 0 1-1.685 1.218c-.555.298-1.239.447-2.051.447a4.078 4.078 0 0 1-1.685-.346 4.21 4.21 0 0 1-1.3-.974 4.644 4.644 0 0 1-.832-1.421 4.876 4.876 0 0 1-.305-1.726v-.04c0-.61.102-1.178.305-1.706a4.411 4.411 0 0 1 .853-1.422 3.936 3.936 0 0 1 1.299-.954 4.035 4.035 0 0 1 1.665-.345c.718 0 1.361.142 1.929.426a7.429 7.429 0 0 1 1.706 1.178l1.989-2.294a8.368 8.368 0 0 0-1.055-.894 6.56 6.56 0 0 0-1.239-.69 7.555 7.555 0 0 0-1.503-.447 9.232 9.232 0 0 0-1.807-.162c-1.096 0-2.098.196-3.005.589a6.868 6.868 0 0 0-2.334 1.583 7.185 7.185 0 0 0-1.523 2.335 7.336 7.336 0 0 0-.548 2.843v.04c0 1.015.182 1.97.548 2.863a7.184 7.184 0 0 0 1.523 2.335 7.225 7.225 0 0 0 2.314 1.543 7.36 7.36 0 0 0 2.904.569 8.73 8.73 0 0 0 1.868-.183 6.464 6.464 0 0 0 1.522-.487c.474-.23.907-.501 1.3-.813.392-.31.771-.663 1.137-1.055Zm13.264-9.035v-2.884h-11.776v2.884h4.324v11.33h3.127v-11.33h4.325Z"/></svg>