<svg width="2006" height="720" viewBox="0 0 2006 720" fill="none" xmlns="http://www.w3.org/2000/svg">
<path d="M414.706 0.00271606V0.000793457L359.639 0V0.00271606C359.639 83.2359 292.862 150.862 209.961 152.255C209.091 152.245 208.225 152.222 207.353 152.222C206.481 152.222 205.615 152.245 204.746 152.255C121.845 150.862 55.0673 83.2359 55.0673 0.00271606V0.000793457L0 0V0.00271606C0 76.8778 41.8359 143.98 103.981 179.789C41.8359 215.598 0 282.7 0 359.576C0 436.451 41.8364 503.554 103.982 539.363C41.8364 575.171 0 642.274 0 719.15V719.152H55.0673V719.15C55.0673 635.899 121.873 568.261 204.799 566.896C205.651 566.907 206.499 566.929 207.353 566.929C208.207 566.929 209.056 566.907 209.907 566.896C292.833 568.261 359.639 635.899 359.639 719.15V719.152H414.706V719.15C414.706 642.274 372.87 575.171 310.724 539.363C372.87 503.554 414.706 436.451 414.706 359.576C414.706 282.7 372.87 215.598 310.725 179.789C372.87 143.98 414.706 76.8778 414.706 0.00271606ZM359.639 359.576C359.639 442.827 292.833 510.464 209.907 511.829C209.056 511.819 208.207 511.797 207.353 511.797C206.499 511.797 205.651 511.819 204.799 511.829C121.873 510.464 55.0673 442.827 55.0673 359.576C55.0673 276.342 121.845 208.716 204.746 207.323C205.615 207.333 206.481 207.356 207.353 207.356C208.225 207.356 209.091 207.333 209.961 207.323C292.862 208.716 359.639 276.342 359.639 359.576Z" fill="#59C6F2"/>
<path d="M686.718 360.359C778.182 360.359 813.027 404.461 813.027 464.894C813.027 525.326 778.182 569.429 686.718 569.429H603.414V714.252H566.939V360.359H686.718ZM603.414 394.112V535.67H686.718C753.68 535.67 776.552 507.361 776.552 464.894C776.552 421.884 753.68 394.112 686.718 394.112H603.414Z" fill="white"/>
<path d="M1066.16 592.295H887.582V594.473C887.582 659.263 920.798 686.486 970.886 686.486C1004.09 686.486 1031.86 675.05 1049.83 661.985L1062.89 691.929C1037.31 709.352 1005.73 719.152 970.886 719.152C899.555 719.152 852.194 679.95 852.194 586.851V569.429C852.194 475.237 895.21 436.579 958.902 436.579C1022.6 436.579 1066.16 475.237 1066.16 569.429V592.295ZM887.582 563.985H1030.78V560.715C1030.78 494.295 1001.37 469.251 958.902 469.251C916.984 469.251 887.582 494.295 887.582 560.715V563.985Z" fill="white"/>
<path d="M1120.04 333.136H1154.35V634.762C1154.35 673.42 1168.5 686.486 1189.19 686.486C1203.35 686.486 1211.51 682.672 1220.22 676.685L1232.75 706.63C1220.22 714.795 1205.52 719.152 1185.92 719.152C1148.9 719.152 1120.04 696.83 1120.04 634.218V333.136Z" fill="white"/>
<path d="M1464.66 592.295H1286.07V594.473C1286.07 659.263 1319.29 686.486 1369.38 686.486C1402.58 686.486 1430.35 675.05 1448.33 661.985L1461.39 691.929C1435.8 709.352 1404.22 719.152 1369.38 719.152C1298.05 719.152 1250.69 679.95 1250.69 586.851V569.429C1250.69 475.237 1293.7 436.579 1357.39 436.579C1421.1 436.579 1464.66 475.237 1464.66 569.429V592.295ZM1286.07 563.985H1429.27V560.715C1429.27 494.295 1399.87 469.251 1357.39 469.251C1315.48 469.251 1286.07 494.295 1286.07 560.715V563.985Z" fill="white"/>
<path d="M1515.81 458.358C1532.15 448.558 1562.64 436.579 1600.2 436.579C1620.89 436.579 1639.4 440.392 1654.1 448.014L1639.4 478.502C1629.06 472.516 1616.54 469.251 1600.2 469.251C1577.88 469.251 1560.45 476.324 1550.11 480.681V714.252H1515.81V458.358Z" fill="white"/>
<path d="M1705.8 330.957C1718.86 330.957 1728.66 340.758 1728.66 354.366C1728.66 366.888 1718.86 377.238 1705.8 377.238C1692.73 377.238 1682.38 366.888 1682.38 354.366C1682.38 340.758 1692.73 330.957 1705.8 330.957ZM1688.37 442.028H1722.67V714.252H1688.37V442.028Z" fill="white"/>
<path d="M1791.81 458.358C1810.32 448.014 1841.35 436.579 1887.08 436.579C1955.69 436.579 2005.23 474.694 2005.23 570.515V714.252H1970.93V568.886C1970.93 494.295 1936.63 469.251 1885.45 469.251C1857.68 469.251 1840.81 474.694 1826.11 480.681V714.252H1791.81V458.358Z" fill="white"/>
<path d="M566.906 0.00195312H599.76L668.294 115.874L736.475 0.00195312H769.329V229.626H738.948V53.6983L668.294 174.869L597.288 53.6983V229.626H566.906V0.00195312Z" fill="white"/>
<path d="M813.839 0.00195312H842.807V52.9918H913.461V80.5465H842.807V169.217C842.807 192.179 851.639 201.717 865.416 204.191C870.716 204.897 876.721 204.897 882.373 204.191C896.151 203.13 908.162 198.185 916.64 190.06C919.819 198.538 922.999 206.663 926.531 215.142C912.401 226.8 894.031 232.805 873.542 232.805C839.275 232.805 813.839 216.201 813.839 169.217V0.00195312Z" fill="white"/>
</svg>
