<svg xmlns="http://www.w3.org/2000/svg" fill="none" viewBox="0 0 103 32"><g clip-path="url(#a)"><path fill="url(#b)" d="M16.752 32c8.955 0 16.214-7.163 16.214-16S25.706 0 16.752 0C7.798 0 .54 7.163.54 16s7.259 16 16.213 16Z"/><path fill="#fff" d="m26.639 15.038-4.52-4.435-.008-.008-.018-.016a1.264 1.264 0 0 0-.091-.073l-.069-.05-.032-.02a1.245 1.245 0 0 0-1.64.268l-7.03 6.899v-6.146c0-.323-.13-.633-.363-.862a1.253 1.253 0 0 0-.878-.357c-.33 0-.645.129-.877.357a1.208 1.208 0 0 0-.364.862v6.146l-2.566-2.518a1.255 1.255 0 0 0-1.734.02 1.205 1.205 0 0 0-.02 1.702l4.684 4.598c.03.03.06.057.093.083l.097.073c.17.108.363.173.564.19h.005l.12.007h.02l.1-.005h.024l.096-.014h.014l.104-.025h.006a1.18 1.18 0 0 0 .26-.112l.028-.016c.047-.028.092-.06.134-.094l.013-.01.074-.07 7.127-7v6.128c0 .323.131.633.364.862a1.255 1.255 0 0 0 1.756 0c.232-.229.363-.539.363-.862v-6.146l2.408 2.368a1.254 1.254 0 0 0 1.744-.01 1.209 1.209 0 0 0 .273-1.32 1.207 1.207 0 0 0-.263-.394h.002Zm11.873-2.767h3.612v9.487h2.163v-9.487H47.9v-2.033h-9.387v2.032Zm14.502.964c-.28.018-.56.063-.831.134a3.268 3.268 0 0 0-.743.295 2.53 2.53 0 0 0-.753.599 3.044 3.044 0 0 0-.262.362v-1.37h-2.1v8.503h2.401v-4.346a2.46 2.46 0 0 1 .144-.879c.092-.251.242-.482.44-.678.202-.2.443-.356.707-.46.298-.125.616-.198.94-.217.307-.027.616-.003.915.073v-1.996a4.86 4.86 0 0 0-.858-.02Zm9.041 1.176a2.553 2.553 0 0 0-1.335-1.25c-.588-.242-1.261-.363-2.02-.363-1.033 0-1.849.23-2.448.692a3.424 3.424 0 0 0-1.224 1.794l1.955.64c.139-.406.38-.688.724-.846.31-.151.649-.233.993-.24.573 0 .981.124 1.225.371.19.193.304.475.345.84l-1.037.16-1.494.267a7.907 7.907 0 0 0-1.137.32 3.272 3.272 0 0 0-1.101.657 2.31 2.31 0 0 0-.593.902 3.329 3.329 0 0 0-.182 1.126c-.005.473.108.94.33 1.354.223.413.559.754.97.983.426.244.947.366 1.561.366.743 0 1.356-.133 1.84-.4.417-.24.785-.56 1.086-.942v1.096h1.892V16.5l-.048-1.102a2.717 2.717 0 0 0-.302-.988Zm-2.02 4.822c-.088.17-.199.328-.329.469a2.115 2.115 0 0 1-1.657.716 1.63 1.63 0 0 1-.644-.116.92.92 0 0 1-.417-.332.908.908 0 0 1-.146-.523.87.87 0 0 1 .092-.403.999.999 0 0 1 .285-.333 2.25 2.25 0 0 1 .512-.284c.21-.079.425-.145.643-.197l.963-.202.917-.165-.023.53c-.012.29-.078.575-.195.84Zm12.811-4.1a3.58 3.58 0 0 0-.534-1.11 2.85 2.85 0 0 0-1.048-.879c-.449-.23-1.03-.345-1.742-.345-.892 0-1.632.185-2.218.555a3.677 3.677 0 0 0-.728.604v-.9h-2.037v8.7h2.32v-4.414c0-.543.064-.978.19-1.305.125-.328.288-.576.487-.745a1.58 1.58 0 0 1 .631-.343 2.47 2.47 0 0 1 .631-.09c.488 0 .866.106 1.132.315.264.205.464.475.577.781.115.3.186.613.21.93l.034.762v4.108h2.321v-4.882l-.033-.692a5.371 5.371 0 0 0-.193-1.05Zm8.011 2.097c-.409-.232-.95-.436-1.623-.612l-1.54-.428c-.338-.11-.56-.217-.666-.32a.512.512 0 0 1-.161-.388c0-.258.124-.453.374-.592.25-.138.58-.191.99-.164.422.033.756.145 1.003.337a1.11 1.11 0 0 1 .428.782l2.284-.412c-.067-.515-.28-1-.612-1.399a3.215 3.215 0 0 0-1.303-.913 4.963 4.963 0 0 0-1.85-.321c-.717 0-1.34.114-1.869.342-.494.2-.921.537-1.23.972a2.548 2.548 0 0 0-.435 1.486c-.012.407.087.81.287 1.164.192.321.504.597.937.827.433.23 1.012.439 1.737.626l1.418.411c.302.105.5.21.587.317.093.122.14.271.132.424a.757.757 0 0 1-.329.654c-.22.156-.532.233-.935.233-.494 0-.9-.118-1.22-.354a1.6 1.6 0 0 1-.62-.983l-2.289.354c.148.927.566 1.645 1.253 2.153.688.508 1.59.761 2.708.76 1.162 0 2.071-.26 2.729-.781.657-.522.987-1.239.99-2.151a2.347 2.347 0 0 0-.28-1.181c-.188-.326-.486-.606-.895-.841v-.002Zm10.192-2.818a2.643 2.643 0 0 0-1.41-1.25c-.62-.243-1.331-.364-2.131-.364-1.09 0-1.952.23-2.585.692a3.435 3.435 0 0 0-1.292 1.795l2.064.641c.146-.406.4-.689.764-.847a2.608 2.608 0 0 1 1.049-.239c.604 0 1.035.124 1.292.37.202.194.321.476.365.84l-1.095.16-1.577.267a8.694 8.694 0 0 0-1.2.321c-.487.177-.874.395-1.162.655a2.305 2.305 0 0 0-.626.901 3.163 3.163 0 0 0-.193 1.127c-.005.474.115.94.349 1.354.24.42.595.76 1.023.984.45.244 1 .366 1.65.366.783 0 1.43-.133 1.942-.4a3.932 3.932 0 0 0 1.145-.943v1.096h1.998v-5.436c.001-.368-.016-.736-.051-1.102a2.616 2.616 0 0 0-.319-.988Zm-2.131 4.823a2.348 2.348 0 0 1-1.036.966 2.33 2.33 0 0 1-1.062.218 1.81 1.81 0 0 1-.68-.115.965.965 0 0 1-.44-.333.875.875 0 0 1-.154-.522.84.84 0 0 1 .097-.403c.074-.133.177-.247.301-.334.167-.117.349-.212.54-.283.223-.08.45-.145.68-.198l1.015-.202.968-.165-.024.53c-.013.29-.082.576-.205.84Zm9.389-1.797 3.142-4.32h-2.708l-2.949 4.16v-7.04h-2.224l-.016 11.52h2.24v-4.16l3.014 4.16h2.853l-3.352-4.32Z"/></g><defs><linearGradient id="b" x1="2.708" x2="30.609" y1="7.998" y2="24.321" gradientUnits="userSpaceOnUse"><stop offset=".13" stop-color="#348BED"/><stop offset=".31" stop-color="#2B80E8"/><stop offset=".64" stop-color="#1461DB"/><stop offset=".72" stop-color="#0E57D7"/></linearGradient><clipPath id="a"><path fill="#fff" d="M0 0h101.5v32H0z" transform="translate(.539)"/></clipPath></defs></svg>