<svg id="a3285e36-1174-45c2-a6f6-7544cf1d2799" xmlns="http://www.w3.org/2000/svg" width="32" height="32" viewBox="0 0 32 32"><defs><style>.cls-1{fill:#2775ca;}.cls-2,.cls-4{fill:#fff;}.cls-3{fill:#50af95;}.cls-4{fill-rule:evenodd;}.cls-5{fill:#f0b90b;}.cls-6{fill:#f5ac37;}.cls-7{fill:#fefefd;}</style></defs><path class="cls-1" d="M23.9515,31.903A7.9515,7.9515,0,1,0,16,23.9515,7.9324,7.9324,0,0,0,23.9515,31.903Z"/><path class="cls-2" d="M26.1382,25.2105c0-1.16-.6958-1.5572-2.0873-1.7228-.9939-.1326-1.1927-.3976-1.1927-.8615s.3313-.762.9939-.762a.98.98,0,0,1,1.0933.6958.2493.2493,0,0,0,.232.1656h.53a.2265.2265,0,0,0,.232-.2319v-.0331a1.6554,1.6554,0,0,0-1.4909-1.3584v-.7951c0-.1326-.0994-.232-.2651-.2651h-.4969c-.1326,0-.232.0994-.2651.2651v.762a1.6893,1.6893,0,0,0-1.6234,1.6234c0,1.0934.6626,1.524,2.0541,1.69.9277.1657,1.2259.3644,1.2259.8946s-.4639.8945-1.0933.8945c-.8615,0-1.16-.3645-1.2591-.8615a.242.242,0,0,0-.2319-.1987h-.5632a.2265.2265,0,0,0-.2319.2319v.0332a1.8507,1.8507,0,0,0,1.7559,1.59v.7951c0,.1325.0994.2319.2651.265h.4969c.1326,0,.232-.0994.2651-.265v-.7951a1.8149,1.8149,0,0,0,1.6566-1.756Z"/><path class="cls-2" d="M22.2618,28.6892a4.9577,4.9577,0,0,1,0-9.31.3326.3326,0,0,0,.1988-.3314v-.4638a.2518.2518,0,0,0-.1988-.265.2.2,0,0,0-.1326.0331,5.962,5.962,0,0,0,0,11.364.2014.2014,0,0,0,.2982-.1325c.0332-.0331.0332-.0663.0332-.1325v-.4639A.4413.4413,0,0,0,22.2618,28.6892Zm3.5119-10.3369a.2014.2014,0,0,0-.2981.1325c-.0332.0332-.0332.0663-.0332.1326v.4638a.4393.4393,0,0,0,.1988.3313,4.9579,4.9579,0,0,1,0,9.31.3324.3324,0,0,0-.1988.3313v.4638a.2519.2519,0,0,0,.1988.2651.1993.1993,0,0,0,.1325-.0331,5.9876,5.9876,0,0,0,0-11.3972Z"/><g id="busd-icon"><circle id="Ellipse_5" data-name="Ellipse 5" class="cls-3" cx="8.0485" cy="23.9515" r="7.9515"/><path class="cls-4" d="M8.9686,24.2643h0c-.0514.0039-.3169.02-.9092.02-.4711,0-.8055-.0141-.9229-.02h0c-1.82-.08-3.1794-.397-3.1794-.7764s1.3589-.6959,3.1794-.7773v1.2381c.1191.0086.46.0287.9311.0287.5653,0,.8483-.0236.8993-.0283V22.7115c1.8167.0809,3.1725.3978,3.1725.7764s-1.3554.6955-3.1725.776h0Zm0-1.6809V21.4755h2.5353V19.786H4.6012v1.6895H7.1361V22.583c-2.06.0946-3.61.5028-3.61.9918s1.5494.8968,3.61.9919v3.55H8.9682V24.5654c2.0556-.0946,3.6025-.5023,3.6025-.991s-1.5456-.8963-3.6025-.9914h0Zm0,0Z"/></g><g id="busd-icon-2" data-name="busd-icon"><circle id="Ellipse_5-2" data-name="Ellipse 5" class="cls-5" cx="23.9515" cy="8.0485" r="7.9515"/><path id="Path_84" data-name="Path 84" class="cls-4" d="M20.8923,6.4035l3.08-3.08,1.2283,1.2283-3.08,3.08Zm.0023,3.6811,4.9226-4.9229L27.0455,6.39l-4.9229,4.923Zm6.7638-3.0788-4.9229,4.9235,1.2283,1.2286,4.9235-4.9232ZM19.0526,8.2429l1.2283-1.2283,1.2283,1.2283L20.2809,9.4712Z"/></g><g id="Layer_1"><path class="cls-6" d="M8.0485.097A7.9515,7.9515,0,1,1,.097,8.0485,7.9514,7.9514,0,0,1,8.0485.097Z"/><path class="cls-7" d="M8.3416,8.61H11.363c.0644,0,.0948,0,.1-.0844a5.774,5.774,0,0,0,0-.9243c0-.06-.03-.0844-.0945-.0844H5.3548c-.0744,0-.0944.0247-.0944.0944v.8846c0,.1141,0,.1141.1191.1141ZM11.1251,6.483a.0976.0976,0,0,0,0-.0694,1.9728,1.9728,0,0,0-.18-.3131,2.5372,2.5372,0,0,0-.3678-.4623,1.2169,1.2169,0,0,0-.2287-.2236,3.5723,3.5723,0,0,0-1.491-.7554A3.71,3.71,0,0,0,8.0131,4.57H5.3445c-.0745,0-.0845.03-.0845.0944V6.4283c0,.0744,0,.0945.0945.0945h5.7348s.05-.01.06-.04h-.0239Zm0,3.1607a1.1606,1.1606,0,0,0-.2541,0H5.36c-.0744,0-.0994,0-.0994.0994v1.7247c0,.0795,0,.0995.0994.0995H7.9043a1.2714,1.2714,0,0,0,.3625-.0247,3.79,3.79,0,0,0,1.0788-.2386,1.9805,1.9805,0,0,0,.3625-.1689h.0347a3.2283,3.2283,0,0,0,1.3865-1.3959s.0348-.0751-.0042-.0948ZM4.2617,12.4615V9.7134c0-.0647,0-.0744-.0794-.0744H3.1038c-.06,0-.0845,0-.0845-.0794V8.6153H4.1722c.0644,0,.09,0,.09-.0845V7.5966c0-.06,0-.0744-.0794-.0744H3.1038c-.06,0-.0845,0-.0845-.0795V6.5682c0-.0547,0-.0694.08-.0694H4.1672c.0745,0,.0945,0,.0945-.0945V3.7257c0-.0795,0-.0995.0995-.0995h3.727a5.6616,5.6616,0,0,1,.8051.09,4.8559,4.8559,0,0,1,1.5555.5764,4.3884,4.3884,0,0,1,.8745.6759,4.7876,4.7876,0,0,1,.5317.6609,3.98,3.98,0,0,1,.3882.76.13.13,0,0,0,.1485.1045h.89c.1141,0,.1141,0,.1191.1095v.8151c0,.0794-.03.0995-.1095.0995H12.605c-.0694,0-.09,0-.0844.0894a5.0941,5.0941,0,0,1,0,.9092c0,.0845,0,.0945.0948.0945H13.4c.0347.0447,0,.0895,0,.1345a1.0064,1.0064,0,0,1,0,.1736v.6015c0,.0844-.0247.11-.1.11h-.9393a.1243.1243,0,0,0-.1442.0944,3.9739,3.9739,0,0,1-1.0437,1.5208,5.97,5.97,0,0,1-.5318.4272c-.1989.1145-.3925.2337-.5965.3281a5.367,5.367,0,0,1-1.1729.3725,6.1122,6.1122,0,0,1-1.1629.0945H4.26v-.005Z"/></g></svg>