<svg width="68" height="68" viewBox="0 0 68 68" fill="none" xmlns="http://www.w3.org/2000/svg">
<path d="M57.1643 34.9361L57.1642 34.9362L50.0651 56.1243C49.6774 57.2815 48.53 58.1083 47.1874 58.1083H47.1488L47.1102 58.1112L41.333 58.5493C36.4514 58.9195 31.5487 58.9195 26.6671 58.5493L20.8898 58.1112L20.8513 58.1083H20.8127C19.47 58.1083 18.3227 57.2816 17.9349 56.1243L10.8358 34.9362C10.8358 34.9362 10.8358 34.9362 10.8358 34.9362C10.7749 34.7543 10.9103 34.5664 11.1019 34.5664H56.8981C57.09 34.5664 57.2251 34.7545 57.1643 34.9361Z" fill="#FFCD84" stroke="#AC562A" stroke-width="2.04"/>
<path d="M28.6463 58.8955C28.4866 58.8954 28.3308 58.8468 28.1994 58.7561C28.068 58.6654 27.9673 58.5369 27.9107 58.3876L24.2257 48.6681C24.189 48.5715 24.1718 48.4686 24.1749 48.3654C24.178 48.2622 24.2015 48.1606 24.2439 48.0664C24.2863 47.9722 24.3468 47.8873 24.422 47.8165C24.4972 47.7457 24.5856 47.6904 24.6822 47.6538C24.8773 47.5799 25.0937 47.5865 25.2839 47.6721C25.4741 47.7577 25.6225 47.9154 25.6965 48.1104L29.3816 57.8299C29.4267 57.949 29.4423 58.0772 29.427 58.2037C29.4117 58.3301 29.3659 58.4509 29.2936 58.5557C29.2212 58.6605 29.1245 58.7462 29.0118 58.8054C28.899 58.8645 28.7736 58.8955 28.6463 58.8955ZM40.0988 58.8955C39.9714 58.8954 39.846 58.8645 39.7333 58.8053C39.6205 58.7461 39.5239 58.6604 39.4515 58.5556C39.3792 58.4508 39.3334 58.3301 39.3181 58.2036C39.3027 58.0772 39.3183 57.949 39.3635 57.8299L43.0486 48.1104C43.1225 47.9154 43.2709 47.7577 43.4611 47.6721C43.6513 47.5864 43.8678 47.5799 44.0628 47.6538C44.2579 47.7278 44.4155 47.8762 44.5012 48.0664C44.5868 48.2566 44.5933 48.473 44.5194 48.6681L40.8343 58.3876C40.7777 58.5369 40.677 58.6654 40.5456 58.7561C40.4143 58.8468 40.2584 58.8954 40.0988 58.8955ZM34.2137 59.026C34.0051 59.026 33.805 58.9432 33.6575 58.7957C33.51 58.6482 33.4272 58.4481 33.4272 58.2395V47.7865C33.4272 47.3521 33.7792 47 34.2137 47C34.6481 47 35.0001 47.3521 35.0001 47.7865V58.2395C35.0001 58.4481 34.9173 58.6482 34.7698 58.7957C34.6223 58.9432 34.4222 59.026 34.2137 59.026Z" fill="#AC562A"/>
<path d="M53.4598 35.859H53.4174L53.3752 35.8625L43.4618 36.6883C37.1649 37.2128 30.8354 37.2128 24.5385 36.6883L14.625 35.8625L14.5827 35.859H14.5403C12.1482 35.859 10.1079 34.1157 9.76569 31.7673L9.76568 31.7672C9.66901 31.1042 9.61937 30.4302 9.61937 29.7471C9.61937 24.7781 12.2553 20.208 16.658 16.8472C21.0616 13.4858 27.1895 11.3773 34.0002 11.3773C40.8107 11.3773 46.9387 13.4858 51.3422 16.8472C55.7448 20.208 58.3808 24.7781 58.3808 29.7471V29.7473C58.3809 30.4232 58.332 31.0983 58.2345 31.7672C57.8921 34.1158 55.8519 35.859 53.4598 35.859Z" fill="#AC562A" stroke="#AC562A" stroke-width="2.04"/>
<path d="M19.3704 28.1467C19.3704 28.6751 19.5803 29.1818 19.9539 29.5554C20.3275 29.929 20.8342 30.1389 21.3625 30.1389C21.8909 30.1389 22.3976 29.929 22.7712 29.5554C23.1448 29.1818 23.3547 28.6751 23.3547 28.1467C23.3547 27.6184 23.1448 27.1116 22.7712 26.738C22.3976 26.3644 21.8909 26.1545 21.3625 26.1545C20.8342 26.1545 20.3275 26.3644 19.9539 26.738C19.5803 27.1116 19.3704 27.6184 19.3704 28.1467Z" fill="#722F0D"/>
<path d="M25.2056 32.5391C25.2056 33.0674 25.4155 33.5741 25.7891 33.9478C26.1627 34.3214 26.6694 34.5312 27.1978 34.5312C27.7261 34.5312 28.2328 34.3214 28.6064 33.9478C28.9801 33.5741 29.1899 33.0674 29.1899 32.5391C29.1899 32.0107 28.9801 31.504 28.6064 31.1304C28.2328 30.7568 27.7261 30.5469 27.1978 30.5469C26.6694 30.5469 26.1627 30.7568 25.7891 31.1304C25.4155 31.504 25.2056 32.0107 25.2056 32.5391Z" fill="#722F0D"/>
</svg>
