<svg xmlns="http://www.w3.org/2000/svg" fill="none" viewBox="0 0 24 24"><rect width="24" height="24" fill="#8B5CF6" rx="12"/><g fill="#fff" clip-path="url(#a)"><path d="M10.9418 11.38c-.2055.3455-3.41092.4036-5.15963-.5764-1.74871-.98006-.89912-3.97657.87459-4.76341C8.43047 5.25335 11.1473 11.0346 10.9418 11.38Zm-.0245 1.1993c.2055.3455-1.34541 3.0691-3.09413 4.0491-1.74871.98-3.99732-1.2324-3.81247-3.1168.18485-1.8845 6.7011-1.2778 6.9066-.9323Zm1.0593.6199c.411 0 2.0655 2.6656 2.0655 4.6256 0 1.96-3.0982 2.7441-4.68706 1.6465s2.21056-6.2721 2.62156-6.2721Zm1.0813-.579c.2055-.3455 3.4109-.4035 5.1596.5765 1.7487.98.8991 3.9765-.8746 4.7633-1.7737.7869-4.4905-4.9943-4.285-5.3398Zm.0249-1.1995c-.2055-.3455 1.3454-3.06911 3.0941-4.04915 1.7487-.98002 3.9973 1.23244 3.8125 3.11685-.1849 1.8845-6.7011 1.2778-6.9066.9323Zm-1.0584-.62c-.411 0-2.06542-2.66556-2.06542-4.62561 0-1.96004 3.09822-2.74409 4.68702-1.64646 1.5889 1.09762-2.2106 6.27207-2.6216 6.27207Z"/></g><defs><clipPath id="a"><path fill="#fff" d="M4 4h16v16H4z"/></clipPath></defs></svg>