<svg xmlns="http://www.w3.org/2000/svg" fill="none" viewBox="0 0 24 24"><g clip-path="url(#a)"><path fill="#29B6F6" d="M12 0C8.8174 0 5.76516 1.26428 3.51472 3.51472 1.26428 5.76516 0 8.8174 0 12s1.26428 6.2348 3.51472 8.4853C5.76516 22.7357 8.8174 24 12 24s6.2348-1.2643 8.4853-3.5147C22.7357 18.2348 24 15.1826 24 12c0-3.1826-1.2643-6.23484-3.5147-8.48528C18.2348 1.26428 15.1826 0 12 0Z"/><path fill="#fff" d="M17.9696 6.6 15.722 18.0756s-.0966.5244-.747.5244c-.3456 0-.5238-.1644-.5238-.1644l-4.86839-4.0398-2.382-1.2006-3.057-.813s-.5442-.1572-.5442-.6072c0-.375.5598-.5538.5598-.5538L16.949 6.1404s.3906-.141.6756-.1404c.1752 0 .375.075.375.3 0 .15-.03.3-.03.3Z"/><path fill="#B0BEC5" d="m11.3997 15.9031-2.05559 2.0244s-.0894.069-.2088.072c-.0414.0012-.0858-.0054-.1314-.0258l.5784-3.579 1.81739 1.5084Z"/><path fill="#CFD8DC" d="M15.5374 8.51756c-.1014-.132-.2886-.156-.4206-.0558L7.19922 13.2s1.2636 3.5352 1.4562 4.1472c.1932.6126.348.627.348.627l.5784-3.579L15.481 8.93756c.132-.1002.1566-.288.0564-.42Z"/></g><defs><clipPath id="a"><path fill="#fff" d="M0 0h24v24H0z"/></clipPath></defs></svg>