<svg xmlns="http://www.w3.org/2000/svg" fill="none" viewBox="0 0 24 24"><rect width="24" height="24" fill="#1D9BF0" rx="12"/><g clip-path="url(#a)"><path fill="#fff" d="M17.7915 9.68374c.0089.12765.0089.25529.0089.38416 0 3.9253-3.0043 8.4523-8.49778 8.4523v-.0023c-1.6228.0023-3.21188-.46-4.57801-1.3318.23597.0282.47312.0423.71086.0429 1.34484.0012 2.65124-.4476 3.70925-1.2741-1.27801-.0241-2.39871-.8529-2.79022-2.0629.44769.0859.90898.0682 1.34839-.0512-1.39333-.28-2.39575-1.4976-2.39575-2.9118v-.0376c.41516.23.88.3576 1.35548.3718-1.31231-.8724-1.71683-2.60887-.92435-3.96652 1.51634 1.85588 3.7536 2.98412 6.15523 3.10352-.2407-1.03176.0882-2.11293.8641-2.83823 1.2029-1.1247 3.0948-1.06705 4.2255.12883.6689-.13118 1.31-.3753 1.8966-.72118-.2229.68765-.6896 1.27177-1.3129 1.64294.592-.06941 1.1704-.22706 1.7151-.46764-.401.59764-.9061 1.11823-1.4904 1.53882Z"/></g><defs><clipPath id="a"><path fill="#fff" d="M4.66602 6.66663h14.6667v12H4.66602z"/></clipPath></defs></svg>