<svg xmlns="http://www.w3.org/2000/svg" xml:space="preserve" fill-rule="evenodd" stroke-linejoin="round" stroke-miterlimit="2" clip-rule="evenodd" viewBox="0 0 384 384"><rect width="384" height="384" fill="#181A20"/><path fill="#f0b90b" fill-rule="nonzero" d="m191.85 278.03-60.61-60.924-35.53 35.517 96.14 96.127 96.14-96.14-35.53-35.504-60.61 60.924Zm121.233-121.547L277.879 192l35.517 35.517L348.9 192l-35.817-35.517ZM191.85 227.216l35.517-35.53-35.517-35.19L156.333 192l35.517 35.203v.013ZM105.82 192l-35.19 35.203L35.1 192l35.517-35.517L105.82 192Zm86.03-86.03 60.61 60.61 35.53-35.503-96.14-95.827-96.14 96.14 35.53 35.504 60.61-60.924Z"/></svg>