<svg xmlns="http://www.w3.org/2000/svg" fill="#081019" viewBox="0 0 42 42">
    <circle cx="21" cy="21" r="21" fill="#80858c"/>
    <path d="M15.07 23.21a1.06 1.06 0 0 1-1.06 1.06h-3.408v-2.121h3.407a1.06 1.06 0 0 1 1.06 1.06m14.36-9.942a1.06 1.06 0 0 1-1.06 1.06H14.053v-2.12h14.315a1.06 1.06 0 0 1 1.06 1.06m-17.674 1.06a2.25 2.25 0 0 0-1.469.583l-.08.077-.077.08a2.25 2.25 0 0 0-.583 1.514v3.27h-.094A1.15 1.15 0 0 0 8.303 21v4.418a1.15 1.15 0 0 0 1.15 1.15h4.556a3.358 3.358 0 0 0 0-6.717h-2.165v-3.225H28.37a3.358 3.358 0 0 0 0-6.716H14.01c-.56 0-1.099.208-1.512.583l-.081.077-.077.08a2.25 2.25 0 0 0-.583 1.513Z"/>
    <path d="M9.547 29.837a2.254 2.254 0 0 0 2.253 2.254h16.57a3.36 3.36 0 0 0 3.357-3.359V13.268a1.15 1.15 0 0 0-2.298 0v15.464a1.06 1.06 0 0 1-1.06 1.06H11.844V25.42a1.15 1.15 0 0 0-2.297 0z"/>
</svg>