<svg xmlns="http://www.w3.org/2000/svg" viewBox="0 0 142 136.878">
  <path fill="#ff5c16" d="m132.682 132.192-30.583-9.106-23.063 13.787-16.092-.007-23.077-13.78-30.569 9.106L0 100.801l9.299-34.839L0 36.507 9.299 0l47.766 28.538h27.85L132.682 0l9.299 36.507-9.299 29.455 9.299 34.839z"/>
  <path fill="#ff5c16" d="m9.305 0 47.767 28.558-1.899 19.599zm30.57 100.814 21.017 16.01-21.017 6.261zm19.337-26.469-4.039-26.174L29.317 65.97l-.014-.007v.013l.08 18.321 10.485-9.951zM132.682 0 84.915 28.558l1.893 19.599zm-30.569 100.814-21.018 16.01 21.018 6.261zm10.565-34.839h.007zv-.013l-.006.007-25.857-17.798-4.039 26.174h19.336l10.492 9.95z"/>
  <path fill="#e34807" d="m39.868 123.085-30.569 9.106L0 100.814h39.868zm19.337-48.747 5.839 37.84-8.093-21.04-27.581-6.843 10.491-9.956h19.344zm42.907 48.747 30.57 9.106 9.299-31.378h-39.869zM82.776 74.338l-5.839 37.84 8.092-21.04 27.583-6.843-10.498-9.956H82.776z"/>
  <path fill="#ff8d5d" d="m0 100.801 9.299-34.839h19.997l.073 18.327 27.584 6.843 8.092 21.039-4.16 4.633-21.017-16.01H0zm141.981 0-9.299-34.839h-19.998l-.073 18.327-27.582 6.843-8.093 21.039 4.159 4.633 21.018-16.01h39.868zM84.915 28.538h-27.85l-1.891 19.599 9.872 64.013h11.891l9.878-64.013z"/>
  <path fill="#661800" d="M9.299 0 0 36.507l9.299 29.455h19.997l25.87-17.804zm44.127 81.938h-9.059l-4.932 4.835 17.524 4.344-3.533-9.186zM132.682 0l9.299 36.507-9.299 29.455h-19.998L86.815 48.158zM88.568 81.938h9.072l4.932 4.841-17.544 4.353 3.54-9.201zm-9.539 42.447 2.067-7.567-4.16-4.633h-11.9l-4.159 4.633 2.066 7.567"/>
  <path fill="#c0c4cd" d="M79.029 124.384v12.495H62.945v-12.495z"/>
  <path fill="#e7ebf6" d="m39.875 123.072 23.083 13.8v-12.495l-2.067-7.566zm62.238 0-23.084 13.8v-12.495l2.067-7.566z"/>
</svg>