<svg xmlns="http://www.w3.org/2000/svg" shape-rendering="crispEdges" viewBox="0 0 650 650">
    <path fill="#fff" d="M0 0h650v650H0z"/>
    <path d="M0 0h10v10H0Zm10 0h10v10H10Zm10 0h10v10H20Zm10 0h10v10H30Zm10 0h10v10H40Zm10 0h10v10H50Zm10 0h10v10H60Zm520 0h10v10h-10zm10 0h10v10h-10zm10 0h10v10h-10zm10 0h10v10h-10zm10 0h10v10h-10zm10 0h10v10h-10zm10 0h10v10h-10ZM0 10h10v10H0Zm60 0h10v10H60Zm520 0h10v10h-10zm60 0h10v10h-10ZM0 20h10v10H0Zm20 0h10v10H20Zm10 0h10v10H30Zm10 0h10v10H40Zm20 0h10v10H60Zm520 0h10v10h-10zm20 0h10v10h-10zm10 0h10v10h-10zm10 0h10v10h-10zm20 0h10v10h-10ZM0 30h10v10H0Zm20 0h10v10H20Zm10 0h10v10H30Zm10 0h10v10H40Zm20 0h10v10H60Zm240 10q-450-60 0 0m10 0h-10zm10 0h-10zm10 0h-10zm20 0h-10Zm230-10h10v10h-10zm20 0h10v10h-10zm10 0h10v10h-10zm10 0h10v10h-10zm20 0h10v10h-10ZM0 40h10v10H0Zm20 0h10v10H20Zm10 0h10v10H30Zm10 0h10v10H40Zm20 0h10v10H60Zm240 0h10v10h-10zm10 0h10v10h-10zm10 0h10v10h-10zm10 0h10v10h-10zm10 0h10v10h-10zm240 0h10v10h-10zm20 0h10v10h-10zm10 0h10v10h-10zm10 0h10v10h-10zm20 0h10v10h-10ZM0 50h10v10H0Zm60 0h10v10H60Zm240 0v10zm0 0h10v10h-10zm40 0h10v10h-10zm10 0v10zm230 0h10v10h-10zm60 0h10v10h-10ZM0 60h10v10H0Zm10 0h10v10H10Zm10 0h10v10H20Zm10 0h10v10H30Zm10 0h10v10H40Zm10 0h10v10H50Zm10 0h10v10H60Zm240 0h10v10h-10zm20 0h10v10h-10zm20 0h10v10h-10zm240 0h10v10h-10zm10 0h10v10h-10zm10 0h10v10h-10zm10 0h10v10h-10zm10 0h10v10h-10zm10 0h10v10h-10zm10 0h10v10h-10ZM300 70h10v10h-10zm40 0h10v10h-10zm10 0v10zm-50 10h10v10h-10zm10 0h10v10h-10zm10 0h10v10h-10zm10 0h10v10h-10zm10 0h10v10h-10zm10 0v10Zm-50 10q-450-135 0 0m20 0h10zM90 300q-135-450 0 0m220 0h-10zm10 0h-10zm20 0h-10zm10 0h-10zm0 0q-525-450 0 0m240 0h-10zm20 0h-10zm0 0q-915-450 0 0m-570 0h10v10H40Zm10 0h10v10H50Zm10 0h10v10H60Zm10 0h10v10H70Zm10 0h10v10H80Zm220 0h10v10h-10zm10 0h10v10h-10zm10 0h10v10h-10zm10 0h10v10h-10zm10 0h10v10h-10zm10 0v10zm210 0v10zm0 0h10v10h-10zm10 0h10v10h-10zm10 0h10v10h-10zm10 0h10v10h-10zm10 0h10v10h-10ZM40 310v10zm0 0h10v10H40Zm40 0h10v10H80Zm10 0v10zm210 0v10zm0 0h10v10h-10zm40 0h10v10h-10zm10 0v10zm210 0h10v10h-10zm40 0h10v10h-10zm10 0v10zM40 320h10v10H40Zm20 0h10v10H60Zm20 0h10v10H80Zm220 0v10zm0 0h10v10h-10zm20 0h10v10h-10zm20 0h10v10h-10zm220 0v10zm0 0h10v10h-10zm20 0h10v10h-10zm20 0h10v10h-10ZM40 330v10zm0 0h10v10H40Zm40 0h10v10H80Zm10 0v10zm210 0h10v10h-10zm40 0h10v10h-10zm10 0v10zm210 0h10v10h-10zm40 0h10v10h-10zm10 0v10zM40 340v10zm0 0h10v10H40Zm10 0h10v10H50Zm10 0h10v10H60Zm10 0h10v10H70Zm10 0h10v10H80Zm220 0h10v10h-10zm10 0h10v10h-10zm10 0h10v10h-10zm10 0h10v10h-10zm10 0h10v10h-10zm10 0v10zm210 0v10zm0 0h10v10h-10zm10 0h10v10h-10zm10 0h10v10h-10zm10 0h10v10h-10zm10 0h10v10h-10ZM40 350q-60-525 0 0m0 0h10zm40 0h10zm10 0q-135-525 0 0m210 0h10zm40 0h10zm220 0h10zm50 0q-915-525 0 0M300 560q-450-840 0 0m30 0h-10zm10 0h-10zm10 0h-10zm0 0q-525-840 0 0m220 0h-10zm40 0h-10zm0 0q-915-840 0 0m-310 0h10v10h-10zm10 0h10v10h-10zm10 0h10v10h-10zm10 0h10v10h-10zm10 0h10v10h-10zm10 0v10zm210 0h10v10h-10zm10 0h10v10h-10zm10 0h10v10h-10zm10 0h10v10h-10zm10 0h10v10h-10zm-300 10v10zm0 0h10v10h-10zm40 0h10v10h-10zm220 0v10zm0 0h10v10h-10zm40 0h10v10h-10ZM0 580h10v10H0Zm10 0h10v10H10Zm10 0h10v10H20Zm10 0h10v10H30Zm10 0h10v10H40Zm10 0h10v10H50Zm10 0h10v10H60Zm240 0h10v10h-10zm20 0h10v10h-10zm20 0h10v10h-10zm220 0h10v10h-10zm20 0h10v10h-10zm20 0h10v10h-10zm10 0v10zM0 590h10v10H0Zm60 0h10v10H60Zm240 0h10v10h-10zm40 0h10v10h-10zm10 0v10zm210 0h10v10h-10zm40 0h10v10h-10zm10 0v10zM0 600h10v10H0Zm20 0h10v10H20Zm10 0h10v10H30Zm10 0h10v10H40Zm20 0h10v10H60Zm240 0v10zm0 0h10v10h-10zm10 0h10v10h-10zm10 0h10v10h-10zm10 0h10v10h-10zm10 0h10v10h-10zm220 0v10zm0 0h10v10h-10zm10 0h10v10h-10zm10 0h10v10h-10zm10 0h10v10h-10zm10 0h10v10h-10zm10 0v10zM0 610h10v10H0Zm20 0h10v10H20Zm10 0h10v10H30Zm10 0h10v10H40Zm20 0h10v10H60Zm280 0h10zm10 0q-525-915 0 0m210 0h10zm10 0h10zm10 0h10zm10 0h10zm10 0h10zm10 0q-915-915 0 0M0 620h10v10H0Zm20 0h10v10H20Zm10 0h10v10H30Zm10 0h10v10H40Zm20 0h10v10H60ZM0 630h10v10H0Zm60 0h10v10H60ZM0 640h10v10H0Zm10 0h10v10H10Zm10 0h10v10H20Zm10 0h10v10H30Zm10 0h10v10H40Zm10 0h10v10H50Zm10 0h10v10H60Z"/>
</svg>